<svg id="Layer_1" data-name="Layer 1" xmlns="http://www.w3.org/2000/svg" xmlns:xlink="http://www.w3.org/1999/xlink" viewBox="0 0 648 1549.44"><defs><style>.cls-1{fill:#231f20;}</style><symbol id="KU" data-name="KU" viewBox="0 0 439.27 234.57"><path d="M219.88,179.15l0,.37a.69.69,0,0,1-.61-.36c.9,3.35,4.55,4.58,7.68,4.36a1.55,1.55,0,0,0,2.12-2.27,2.17,2.17,0,0,1-.24-.58,11.91,11.91,0,0,0-1.65-4.95l.3,1.18a4,4,0,0,0-.9-1.24l-.14.48a3.58,3.58,0,1,0-6.84,2.14Z"/><path d="M219.25,184.93c-.43-1-.8-2.09-1.17-3.15l0-.34-.75,1.07.07,0a6.37,6.37,0,0,1,4,.77l.49.14a1.09,1.09,0,0,0,.77-.29,1.14,1.14,0,0,0,.08-1.62l-.5-.53c-.91-1.66-3.07-3.37-5.19-2.21-.49.27-.74.9-1.07,1.4a1.58,1.58,0,1,0,2.35,2.1l.24.42-.46,0c.66-.44,1.39-.09,2.1,0l.83.38.85-1.91-.53-.07a1.33,1.33,0,0,1-.06.23,15,15,0,0,1-3-.47l-1.41-.16a1,1,0,0,0-.76,1.07l.16.68,0-.35c.7,1.12,1.57,2.13,2.24,3.27a.39.39,0,0,0,.53.17A.4.4,0,0,0,219.25,184.93Z"/><path d="M215.63,182.46a.93.93,0,0,0-.36-.64l-.2.06.1.51C215.24,182.76,215.47,182.7,215.63,182.46Z"/><path d="M215.07,181.88l0-.22,0,.22h.07Z"/><path d="M250.58,204.68a52.68,52.68,0,0,0,4.08,4.35c.05.05.15,0,.23-.09s.1-.21.05-.24c-1.41-1.39-2.78-2.82-4.06-4.36,0-.05-.15,0-.23.08S250.54,204.63,250.58,204.68Z"/><path d="M254.51,223.56a.34.34,0,0,0-.19.25c0,.09,0,.14.13.09a.44.44,0,0,0,.19-.25C254.66,223.55,254.59,223.52,254.51,223.56Z"/><path d="M248.13,231.09a2.64,2.64,0,0,0-1,.11c-.07,0-.1,0-.1-.09a.58.58,0,0,1-.39.29c-2.58.14-4.65-.62-6.83-1.18a2.17,2.17,0,0,1-.36.32c-.42.32-.81.35-1,.1l-.1-.24c-.54-.79-1.12-1.53-1.63-2.33a1.11,1.11,0,0,1-.77,0,19.61,19.61,0,0,1-2.9-.11,1.17,1.17,0,0,1-.24.43c-.28.34-.62.48-.78.34l-.28-.18q.28.41.54.84a.29.29,0,0,1,.05.14,6.44,6.44,0,0,0,.84.61c2.67,1.58,6,2,9.41,2.3.08,0,.14,0,.1.14s-.13.21-.21.22c-2.77.62-5.77,1.94-8.27,1.82a43.77,43.77,0,0,1-8.41-1.13c-2.07-1.6-4.62-2.25-7.2-3.27a24.86,24.86,0,0,1-2.5-1.12l-.15-.08-.08,0-.13-.09-.55-.35-1.07-.7L212,226.36c-2.8-1.93-5.52-4-8.27-6a4.7,4.7,0,0,1-1.7-6.43,4.77,4.77,0,0,1,3.62-2.31l-.47-.41-.6-.85a4.09,4.09,0,0,1-.67-2.83l.11-1.28c.52-2.19.39-4.47,1.1-6.64l.63-.53v-.3a4,4,0,0,1,.45-2.42l.64-.74a9.81,9.81,0,0,1,2.65-1.95,3.2,3.2,0,0,1,.87-.85,4.79,4.79,0,0,1,1.75-2.72.67.67,0,0,1,.66-.7.64.64,0,0,1,.36.09h0a6.39,6.39,0,0,0,.1-.71c-.14-.22-.21-.35-.21-.35-.41-.54-.41-.54-.75-1a3.24,3.24,0,0,1-.11-1.13c.65-1.71.65-1.71,1.18-2.26l.21-.1c-.18-.46-.19-.5-.24-.63a1.87,1.87,0,0,1,0-.36c.24-.33.24-.33.27-.49a2,2,0,0,1,.17-.25c.47-.21.47-.21.55-.31a1.33,1.33,0,0,1,.24-.09l.48.1c-.17,1.19-.17,1.2-.17,1.2l.32-.21-.18.47.21-.4.07.4,0-.52c.46.57.46.57.7.73a1.08,1.08,0,0,0,.5.31,1.44,1.44,0,0,1,.12-.2c.5.6.5.6,1,1.21,0,.12,0,.23,0,.34a.33.33,0,0,1,.38.1l.26.3h.11l0,0,.39,0h.08l1.68.17a4,4,0,0,1,.39.56l0-.27c0-.19.32-.43.29-.5a24.78,24.78,0,0,0-3.11-4.44.59.59,0,0,1-.21-.8.57.57,0,0,1,.8-.2c4.1.53,7.38,3.43,9.25,7,.64.75,1.3,1.48,2,2.21v-.24l.42.7.05.06V189l-.19-.41c-1.6-1.62-2.54-3.74-3.83-5.63a33,33,0,0,1-1.64-3.25.52.52,0,0,1,.73-.73c3.22,1.87,6.28,4.81,7.13,8.54a3.05,3.05,0,0,1,1.07,1.66l0,0,0-.72c.31.42.22,1,.46,1.42l.36-.74c1.66,1.92,3.92,3.39,5,5.72.06.07.11.15.16.22a12.41,12.41,0,0,1,2.78.66l-.32-.58a2,2,0,0,1,1.39.39c1,.83,1.31,2.69.54,4.77a71.23,71.23,0,0,0,6.4,3.73c.13.05.11.26,0,.46s-.34.33-.46.28a23.65,23.65,0,0,1-5.21-1.95,21.74,21.74,0,0,0,3,3.47l.53.28a.89.89,0,0,1,.38.45,18.54,18.54,0,0,0,4.85,3.19,41.09,41.09,0,0,0,5,1.55c2.52.63,4.88,1.11,6.74,2.55.29.13.25.66-.1,1.16s-.86.82-1.16.68c-5-1.5-10.24-2.63-14.1-6l-1.22-1.09c0,.07-.09.14-.14.2a3,3,0,0,1-.66.63,13.35,13.35,0,0,1,1.22,1.45c1.79.5,3.59,1,4.82,2.42a12.56,12.56,0,0,1,1.81,3.49c1.41.61,2.87,1.13,4.25,1.79.08,0,.09.09,0,.19s-.15.19-.23.18A18.94,18.94,0,0,1,256,219a3.52,3.52,0,0,1-.67,1.28,3.21,3.21,0,0,1-1.14.92l.54.47c.11.11.07.35-.11.57s-.41.34-.52.25l-2.25-1.91c-1.12-.47-2.22-1-3.29-1.53a4.4,4.4,0,0,1-.55,1.27h0l.45.3a19.66,19.66,0,0,1,9.36,4.56c.06,0,0,.15,0,.26s-.19.15-.23.11a16.16,16.16,0,0,0-2.47-1.89h0a.37.37,0,0,1-.19.25c-.08,0-.15,0-.13-.09a.35.35,0,0,1,.19-.25,21.14,21.14,0,0,0-5.47-2.29,24,24,0,0,1,4.13,3.25l.75,0c.06,0,.06.11,0,.22s-.17.17-.23.16H254c.23.24.1.82-.31,1.35s-1,.77-1.24.54a24.29,24.29,0,0,1-2.32-1.51l-.31-.08-.44.07c1,1.08,1.9,2.21,2.8,3.36.1.07.07.28-.08.47s-.34.29-.44.22a39.62,39.62,0,0,1-7.23-3l-3.88.9a2.39,2.39,0,0,0,.23.22c2.18,1.69,5.83.81,8.31,2,.07,0,.05.13,0,.23s-.18.17-.24.13a23.66,23.66,0,0,0-4.28-.66,21.43,21.43,0,0,0-3.6-.38c1.78,1,4.1,1.21,6,2,.11,0,.14.11.11.24a.33.33,0,0,1,.14-.1,4,4,0,0,1,1.1-.11c.08,0,.1.08.05.2A.35.35,0,0,1,248.13,231.09Zm-25.84-37.87V193l.12.41-.21,1.07Zm-7-.92h0l.12-.6ZM245,204.68a6.43,6.43,0,0,1-2-2.63l.71.34A23.89,23.89,0,0,1,245,204.68ZM221.3,187.81a8.07,8.07,0,0,1,0,2.25,2.84,2.84,0,0,1,1,.59,25.79,25.79,0,0,1,2.16,2.15c.11-.35.27-.17.39-.13l.35.16c-.69-.84-1.36-1.7-2-2.59A22.89,22.89,0,0,1,221.3,187.81Zm-6.62-3.48v-.15l.47-.29Zm-.78.49.08.15C213.82,185.09,213.82,185,213.9,184.82Zm.7,1.36a1,1,0,0,0,0-.34Zm-8.44,12.49,2-1.69-2,1.58Z"/><path class="cls-1" d="M95.36,17.53a8.19,8.19,0,0,1,.85.23,2.2,2.2,0,0,1-1.57.85,17.46,17.46,0,0,0,6-.29,22.77,22.77,0,0,0,5.41-2.11,25.61,25.61,0,0,0,4.69-3.32A26.8,26.8,0,0,0,114.53,9c2.08-.48,3.51-2.08,3.19-3.69s-2.36-2.64-4.55-2.16a7,7,0,0,1-1.57-.19,28.25,28.25,0,0,0-6.28-1.64A44.5,44.5,0,0,0,98.42,1l3.06.57A14.1,14.1,0,0,0,97.36,2l.85.71a12.59,12.59,0,0,0-7.38,1.43,9,9,0,0,0-4.52,5.06c-1.3,4.16,2,7.74,6.85,8.11Z"/><path class="cls-1" d="M106.58,23.75c-2.63-.14-5.25-.38-7.94-.63L98,22.77l1.32,2.32,0-.17c1-2.78,3.94-5,6.8-6.68l1-.73a2,2,0,0,0,.46-1.64c-.22-1.24-1.66-2-3.23-1.67l-1.8.39a17.81,17.81,0,0,0-7.54,2.08c-2.27,1.37-4,3.33-4,5.84,0,1.16,1.07,2.13,1.76,3.16.69,1.64,2.89,2.33,4.86,1.57s3.07-2.66,2.45-4.31l1.18-.07-.52.89c-.11-1.61,1.56-2.65,2.59-3.92.62-.39,1.24-.81,1.87-1.17-.93-1.11-1.86-2.2-2.81-3.28l-.87.91c.15.13.42.3.41.32a44.47,44.47,0,0,1-4.94,5.15L94.8,24.34a1.74,1.74,0,0,0,1.37,2.31l1.6.25L97,26.68c3.16-.47,6.33-1.08,9.43-1.32a1,1,0,0,0,1-.81A.78.78,0,0,0,106.58,23.75Z"/><path class="cls-1" d="M97.12,28.35a2.47,2.47,0,0,0-1.76.18l-.12.41,1.2.24C97.29,29.34,97.43,28.85,97.12,28.35Z"/><path class="cls-1" d="M95.24,28.94l-.5-.1.43.24,0-.06Z"/><path class="cls-1" d="M234.16,12.21q16.16,5.07,31.49,11.55c.34.15.66.15.73,0s-.16-.38-.48-.51q-15.33-6.55-31.48-11.65c-.37-.1-.7,0-.78.12S233.82,12.11,234.16,12.21Z"/><path class="cls-1" d="M303.26,57.25c-.26,0-.32.11-.15.32a1.27,1.27,0,0,0,.74.41c.23,0,.3-.13.16-.32A1.34,1.34,0,0,0,303.26,57.25Z"/><path class="cls-1" d="M296.14,66a22.35,22.35,0,0,0-3.88-.92,1.13,1.13,0,0,1-.58-.28c0,.24-.36.32-.86.2-9.75-2.33-19.81-5.18-29.93-6.93a1.42,1.42,0,0,1-.61.46,5.15,5.15,0,0,1-3.72-.08l-1-.44c-4.16-1.49-8.36-2.8-12.56-4.1a14,14,0,0,1-3.16,0l-5.88.28c-2,.12-3.92.25-5.87.32a.85.85,0,0,1,.24.75c-.19.62-1.15,1-2.16.82l-1.55-.1c1.45.27,2.89.62,4.32,1a2.3,2.3,0,0,1,.56.18c1.6.24,3.24.39,4.9.62,7.29.76,14.46,1.56,21.62,2.45,3.59.41,7.13,1,10.7,1.47s7.12,1.15,10.64,1.9a1.11,1.11,0,0,1,.73.33c.08.17,0,.32-.29.29-9.4-.68-17.93.6-27.9.43a240,240,0,0,0-34.7,2,75.54,75.54,0,0,0-8.55.29c-1.41.11-2.8.32-4.18.5s-2.76.38-4.13.67l-4.1.82-4.08,1c-1.36.32-2.72.73-4.08,1.13s-2.72.75-4.08,1.22c-4,1.29-7.92,2.56-11.65,4-7.66,3-14.75,5.92-21.49,9.32a5.19,5.19,0,0,1-5.19.7,8.78,8.78,0,0,1-4.49-4.4,11,11,0,0,1-.67-8.45l-.95.4-1.7.15a6.55,6.55,0,0,1-4.68-1.63l-1.89-1.44c-3-3.08-6.78-4.9-9.93-8.19l-.42-1.61-.51-.28a8.64,8.64,0,0,1-3.86-3L113.78,56a18.09,18.09,0,0,1-1.21-6.56,6.63,6.63,0,0,1-.75-2.33,9.44,9.44,0,0,1-3.36-5.62,1.29,1.29,0,0,1-.68-1.83,1.58,1.58,0,0,1,.57-.58h0a13.22,13.22,0,0,0-1.26-.81,8.37,8.37,0,0,1-.92.07l-2.74.55a7.62,7.62,0,0,1-2.36-.73c-2.77-2.64-2.79-2.64-3.34-4.08a3.93,3.93,0,0,1,0-.49c-1.16,0-1.24,0-1.56-.06a3.63,3.63,0,0,1-.72-.32c-.44-.72-.44-.72-.75-.91a4,4,0,0,1-.34-.53c.08-1.06.08-1.06,0-1.3a2.32,2.32,0,0,1,.07-.53l.76-.83,2.32,1.3-.06-.79.75.73-.58-.72.91.18-1.12-.35a7.91,7.91,0,0,0,2.32-.74,3.5,3.5,0,0,0,1.22-.69,2.71,2.71,0,0,1-.27-.41c1.85-.38,1.85-.38,3.66-.72.23.12.43.25.63.38a.81.81,0,0,1,.66-.62l.93-.21.13-.19,0-.06.56-.67.11-.16h0l2.5-2.81a11.62,11.62,0,0,1,1.62-.15,5.71,5.71,0,0,1-.58-.21c-.38-.16-.42-1-.6-1-4.36-.24-8.7.77-13.12,1.66a1.53,1.53,0,0,1-2-.24,1.17,1.17,0,0,1,.56-1.7,27.4,27.4,0,0,1,12.33-7.84,34.3,34.3,0,0,1,7.36-1.54,35.94,35.94,0,0,1,7.4-.07l3.58-.35,3.58-.29-.43-.28,1.93.15.2,0c-.57-.33-1.15-.66-1.71-1l-1.05-.17a63.78,63.78,0,0,1-8.3.24c-2.8-.12-5.62-.18-8.5,0-3.11.1-6-.28-9.15-.3a1.25,1.25,0,0,1-1.57-.69c-.14-.54.37-1.12,1.09-1.29,8.77-4.05,19.82-5.81,28.21-2.75a8.84,8.84,0,0,1,4.82.35h.07l-1.27-.9c1.29.06,2.16.83,3.36,1l-.77-1.39c6.23-.15,12.68-1.27,18.51.29a6.47,6.47,0,0,1,.65.07,18.76,18.76,0,0,1,8.11-2.61c-1.24-.11-2.49-.16-3.71-.25a26.14,26.14,0,0,1,8-1.26c1,0,1.94,0,2.92.08s2,.2,3,.34A42.32,42.32,0,0,1,180,1.65c3.6,1.15,6.72,2.63,8.68,4.52,3.58.13,7.15.24,10.7.55s7.1.62,10.63,1c7.05.86,14.05,1.87,20.94,3.19.72.12,1.31.53,1.37.9s-.51.59-1.22.47c-10-1.12-20.1-2.16-30.33-2.6,8.5,1.55,16.86,3.45,25.28,5.33l3.26.57a18.44,18.44,0,0,1,3.14.91c10.69,2.58,20.53,5.77,31.14,8.91,9.07,2.73,16.9,5.45,25.69,8.9,12.31,4.89,23.29,10.23,33.93,18,1.46,1,2.51,2.33,2.33,3s-1.5.41-2.95-.55a244,244,0,0,0-36.2-18c-1.55-.67-3.14-1.24-4.72-1.86s-3.15-1.25-4.75-1.83c-3.21-1.14-6.39-2.37-9.65-3.45-6.48-2.3-13.11-4.37-19.86-6.55l-4.37-1.33-2.17-.66-2.17-.6a1.53,1.53,0,0,1,0,.37,1.66,1.66,0,0,1-1,1.09c3.28.89,6.5,2.08,9.73,3.22,9.32,1.73,18.6,4.12,27.73,8.53,1.57.73,3.07,1.54,4.52,2.37s2.88,1.65,4.28,2.48c2.74,1.77,5.43,3.46,8.07,5.3A207.16,207.16,0,0,1,313.6,54.71a1,1,0,0,1,.58.55c0,.18-.18.2-.48.06-2.53-1.2-5.13-2.32-7.73-3.48s-5.24-2.25-7.88-3.39c.6.84.81,1.6.47,2.13s-1.23.73-2.34.6L299.59,53c.69.4,1.12.91,1,1.18s-.84.22-1.5-.14c-2.28-1.24-4.56-2.5-6.89-3.65s-4.64-2.37-7-3.45l-4.36-1.68-4.41-1.58c-2.91-1.09-5.91-2-8.86-3a4.22,4.22,0,0,1,1.1,2.28h0l2.7,1A150.8,150.8,0,0,1,320,66.52c.3.19.49.44.42.56s-.36.06-.62-.13c-2.28-1.53-4.53-3.1-6.87-4.52s-4.65-2.87-7.07-4.14l0,0c.15.18.1.34-.16.31a1.37,1.37,0,0,1-.74-.41c-.18-.21-.08-.34.14-.32a148.35,148.35,0,0,0-27.79-11.64,172.79,172.79,0,0,1,24.81,12l2.89,1a1.07,1.07,0,0,1,.57.53c0,.14-.24.17-.5.06l-.8-.3c1.48.91,2.36,2.07,2,2.7s-2,.4-3.58-.48c-2.13-1.09-4.25-2.18-6.4-3.19s-4.27-2.1-6.45-3.06L288.34,55l-1.57-.31c6.6,3.31,13,7.05,19.13,10.92.55.31.91.76.79,1s-.67.16-1.21-.14c-1.45-.7-2.94-1.31-4.41-2s-2.93-1.3-4.43-1.91c-3-1.19-5.94-2.46-9-3.55-6-2.33-12.14-4.34-18.27-6.27q-3.34-.1-6.67-.14l-6.71.13c.5.17,1,.34,1.54.49,6.61,1.83,12.92,3.05,19.26,4.37,3.14.73,6.32,1.4,9.43,2.36,1.57.47,3.16.93,4.71,1.5s3.12,1.18,4.69,1.85c.32.11.52.34.5.48s-.3.16-.61,0a76.86,76.86,0,0,0-9.2-3.06c-3.05-.89-6.17-1.55-9.35-2.35-2.64-.65-5.25-1.17-7.79-1.68s-5.1-.81-7.62-1.09c9.76,2.56,19.5,4.57,29,8.23a2,2,0,0,1,1,.63.36.36,0,0,1,.31-.07,31.24,31.24,0,0,1,4.09,1,.9.9,0,0,1,.6.47C296.65,66,296.44,66,296.14,66ZM126.34,26.8l-.3-.2.9.23,1.62,1.46ZM116.05,37.74h0l-1-.77Zm92.86-25.17c-3-.39-6-.9-9-1.35-1.51-.25-3-.53-4.52-.84s-3-.57-4.55-.91h4.45c2.3.44,4.58.92,6.86,1.4S206.66,12,208.91,12.57Zm-94,10.33a17.64,17.64,0,0,1,4.31,2.25,8.22,8.22,0,0,1,2.38-1,60.55,60.55,0,0,1,6.9-1.22c-.48-.55.06-.62.31-.77l.77-.37c-2.47.18-5,.37-7.56.51A70.34,70.34,0,0,1,114.93,22.9Zm-15,8.79-.31-.13,0-1.13S99.68,31,99.89,31.69Zm.14,1.88.39,0C100.48,34,100.31,33.87,100,33.57Zm3.51-.19a2.71,2.71,0,0,0-.66-.32Zm15.1,26.52-1.26-5.13,1.09,5Z"/><path d="M10.32,151.36c.27,0,.56,0,.83,0-.1.5-.56.86-1.2,1.14a14.94,14.94,0,0,0,9.66-4.81,23,23,0,0,0,5.55-9.07,3.46,3.46,0,0,0,1.7-4.49c-.8-1.51-2.9-1.92-4.7-.93a6.05,6.05,0,0,1-1.46.21,31.25,31.25,0,0,0-12.3,1.12l2.89-.09a10.23,10.23,0,0,0-3.52,1.32l1,.5C4.08,136.83.07,140.77,0,145s3.72,7.1,8.26,6.57Z"/><path d="M22.18,155c-2.45.45-4.91.79-7.42,1.12l-.71-.2,1.8,2-.07-.16c.18-2.95,2.27-5.7,4.37-8l.67-.92a2.11,2.11,0,0,0,0-1.69,2.5,2.5,0,0,0-3.42-.92c-.51.25-1,.54-1.49.81-4.22,1.24-9.53,5.12-8.38,10,.28,1.11,1.5,1.86,2.38,2.73a3.56,3.56,0,0,0,4.87.62,3.38,3.38,0,0,0,1.16-4.66c.35-.1.71-.22,1.05-.33l-.24,1c-.52-1.55.73-2.93,1.31-4.39l1.37-1.57L16,147.79l-.53,1.08c.18.09.46.2.46.22a37.65,37.65,0,0,1-3.09,6.07L11.53,158a1.83,1.83,0,0,0,1.83,2l1.55-.05-.78-.07c2.84-1,5.54-2.36,8.33-3.26a1,1,0,0,0,.72-1A.78.78,0,0,0,22.18,155Z"/><path d="M14.66,161.45a2.28,2.28,0,0,0-1.59.5v.42h1.16C15.06,162.38,15.06,161.88,14.66,161.45Z"/><path d="M13.06,162.37h-.49l.45.15,0-.07Z"/><path d="M227.91,91.9c1.59.15,3.19.25,4.77.45l4.74.6,9.46,1.22,9.39,1.56,4.69.77,4.65,1,9.3,1.89,9.2,2.23,4.59,1.11c1.53.39,3,.84,4.55,1.26l9.08,2.55c.81.22,1.51.31,1.6.15s-.51-.49-1.26-.68l-9.09-2.57c-1.51-.43-3-.88-4.55-1.28L284.44,101l-9.2-2.25L266,96.84l-4.65-1-4.68-.8-9.39-1.57c-3.15-.45-6.31-.82-9.46-1.24L233,91.67c-1.58-.22-3.18-.3-4.77-.46a2.81,2.81,0,0,0-1.69.21C226.52,91.62,227.11,91.83,227.91,91.9Z"/><path d="M397.18,162.78c-.54-.18-.6,0-.13.34a6.59,6.59,0,0,0,1.71,1c.46.15.53,0,.14-.33A6.81,6.81,0,0,0,397.18,162.78Z"/><path d="M387.29,170.16c-1.49-.67-2.93-1.34-4.35-1.92s-2.81-1.06-4.13-1.49a6.39,6.39,0,0,1-1.36-.68c.06.29-.6.21-1.69-.21-21.55-8.45-45-16.22-68.48-21.31a2.43,2.43,0,0,1-1.16.37,24,24,0,0,1-8.42-1.08l-2.48-.78c-2.52-.7-5.07-1.25-7.61-1.88s-5.06-1.28-7.62-1.77l-7.66-1.55-3.83-.77-3.84-.65a55.2,55.2,0,0,1-7.3-.26c-1.12,0-2.25,0-3.38,0l-3.39.07-6.77.12-13.59.64c.56.24.9.51.87.79s-.68.59-1.54.79a13.36,13.36,0,0,1-3.2.35l-3.67.08c3.51.15,7,.18,10.51.56a13.23,13.23,0,0,1,1.4.16c3.85.17,7.76.18,11.73.48a407.78,407.78,0,0,1,100,17.05,5.65,5.65,0,0,1,1.73.76c.26.24.13.39-.46.23-20.72-5.15-39.25-6.65-62.31-8.93A313.32,313.32,0,0,0,204.44,152a208.67,208.67,0,0,0-40,8.16,236,236,0,0,0-37.59,15.08c-2.12.95-4.11,2.15-6.15,3.21l-6,3.22-5.83,3.46c-1.93,1.16-3.9,2.21-5.73,3.49l-1.39.91-.7.45-.24.19-.9.66-1.79,1.31c-1.19.88-2.42,1.66-3.55,2.59-2.3,1.79-4.62,3.51-7,5.19-1.19.81-2.27,1.77-3.41,2.65l-3.4,2.67a6.34,6.34,0,0,1-2.63,1.67,7.45,7.45,0,0,1-3,.41,9.21,9.21,0,0,1-6-3.13A10.48,10.48,0,0,1,66.45,196c-.31.23-.61.44-.92.65l-1.76.61a7.25,7.25,0,0,1-5.38-.42l-2.33-1c-3.85-2.24-8.12-3.1-12-5.58l-.78-1.5-.56-.15a8.43,8.43,0,0,1-4.53-2.05L37,185a19.2,19.2,0,0,1-2.66-6.16,7,7,0,0,1-1.28-2.13,9.64,9.64,0,0,1-4.56-4.75,1.33,1.33,0,0,1-1.09-1.64,1.48,1.48,0,0,1,.39-.7h0a13,13,0,0,0-1.39-.5c-.52.19-.84.27-.84.27-1.32.59-1.32.59-2.49,1.08a7.27,7.27,0,0,1-2.41-.25c-3.23-2-3.24-2-4.1-3.33,0-.15-.07-.32-.1-.47-1.08.19-1.16.2-1.47.23a3.27,3.27,0,0,1-.75-.18c-.57-.61-.57-.61-.9-.73a4,4,0,0,1-.44-.46c-.18-1-.18-1-.34-1.24a2.35,2.35,0,0,1-.05-.53l.5-.94,2.47.82-.25-.75.89.57-.73-.59h.9l-1.13-.14a6.68,6.68,0,0,0,2-1.15,2.77,2.77,0,0,0,1-.9,3.12,3.12,0,0,1-.35-.33c1.59-.79,1.59-.79,3.16-1.51a4.17,4.17,0,0,1,.68.23.78.78,0,0,1,.45-.75l.8-.41.07-.21,0-.06.33-.78.06-.18h0c.23-.55.55-1.34,1.52-3.33a11.6,11.6,0,0,1,1.47-.5c-.2,0-.39,0-.59-.08-.4-.07-.66-.84-.83-.81a28.12,28.12,0,0,0-3,.74c-1,.34-1.92.72-2.87,1.13-1.89.82-3.76,1.74-5.66,2.62a1.41,1.41,0,0,1-1.86.13,1.18,1.18,0,0,1,.09-1.74c3.82-8.45,12.93-13.8,21.89-15.59,2.14-.81,4.24-1.68,6.33-2.55l-.48-.17,1.8-.39.18-.07-1.88-.51-1,.13a41.09,41.09,0,0,1-7.48,2.42c-2.55.67-5.1,1.34-7.65,2.18-2.74.9-5.53,1.13-8.34,1.79a1.2,1.2,0,0,1-1.61-.34,1.13,1.13,0,0,1,.61-1.48,50.46,50.46,0,0,1,11.52-7.39,29.46,29.46,0,0,1,13-2.48A8,8,0,0,1,42.82,129l.07,0-1.45-.51c1.16-.37,2.24.2,3.38,0l-1.16-1.17c2.82-.94,5.55-2.23,8.31-3.35a41.55,41.55,0,0,1,4.17-1.49,19.74,19.74,0,0,1,4.32-.68,5,5,0,0,1,.62-.14,28.64,28.64,0,0,1,2.49-2.8c.22-.22.45-.44.7-.65a2.3,2.3,0,0,1,.2-.16l.61-.35,1.23-.7a56.53,56.53,0,0,1,5.28-2.65c-1.32.43-2.59.93-3.87,1.44L64,117.25a3.49,3.49,0,0,1,.38-.25l.48-.28,1-.58L67.72,115c.64-.37,1.29-.75,2-1.1l2-1c2.71-1.31,5.5-2.54,8.46-3.7l3-1.16c1-.38,2.07-.69,3.11-1q3.14-1,6.29-1.84c2.11-.57,4.19-1.15,6.27-1.6s4.14-.79,6.14-1.11,3.94-.61,5.8-.83l2.74-.3c.89-.05,1.77-.09,2.62-.11a50.77,50.77,0,0,1,8.77.38,345,345,0,0,1,47.44-8.75,382.53,382.53,0,0,1,47.94-2c1.65,0,3.12.41,3.4.8s-.93.67-2.57.63c-1.42,0-2.85,0-4.28,0l-4.28.16-8.59.29c-2.86.09-5.72.38-8.59.56s-5.74.36-8.6.65c-11.46,1.18-22.95,2.59-34.32,4.86A409.8,409.8,0,0,1,210.76,96c2.5,0,5-.1,7.54,0s5,.31,7.42.6c25,1.43,48.3,5.64,72.87,11.37l3.91.9,3.82,1,7.51,2c2.49.62,4.91,1.4,7.33,2.13l7.25,2.21c1.21.36,2.4.75,3.59,1.17l3.58,1.23,7.2,2.47c4.8,1.76,9.63,3.64,14.63,5.56a397.21,397.21,0,0,1,39.47,18.54,344,344,0,0,1,36.54,23.1c3.2,2.29,5.84,4.84,5.85,5.64s-2.6-.41-5.79-2.67a437.48,437.48,0,0,0-39.24-23.59,452.51,452.51,0,0,0-41.7-19.19,421.25,421.25,0,0,0-44.1-14.86l-5.67-1.6c-1.9-.53-3.82-1-5.74-1.44l-5.76-1.42-2.89-.72c-1-.23-1.94-.42-2.91-.63l-11.73-2.49-11.9-2.15c-1.72-.35-3.44-.56-5.16-.81l-5.15-.74-5.11-.74c-1.71-.21-3.42-.36-5.13-.55a.72.72,0,0,1,.14.39c0,.51-.72.92-1.83,1.21l5.79.64c1.92.27,3.85.59,5.77.89l5.78.93,2.89.48,2.87.59a268.66,268.66,0,0,1,64.59,15.13,331.74,331.74,0,0,1,40.34,19.08,399.47,399.47,0,0,1,48.66,25.87,4.9,4.9,0,0,1,1.4,1.12c.15.26-.25.15-.89-.23l-8.42-4.63-4.23-2.33-4.31-2.22-8.68-4.47-8.87-4.24c1.62,1.38,2.44,2.48,2,3s-2.12.28-4.46-.48l7.8,4.19c1.61.86,2.75,1.78,2.54,2s-1.58-.2-3.11-1c-5.3-2.81-10.57-5.69-16-8.26-2.71-1.3-5.37-2.69-8.11-3.91l-8.21-3.69a417.34,417.34,0,0,0-40.85-14,9.94,9.94,0,0,1,3.45,3h0l6.35,2c39.16,10.8,77.07,29.77,110.91,54.51.68.47,1.17,1,1.1,1.07s-.65-.16-1.24-.59c-5.16-3.66-10.27-7.38-15.59-10.77l-4-2.59q-2-1.31-4-2.51l-8.09-4.87,0,0c.39.34.39.53-.14.33a7.32,7.32,0,0,1-1.69-1c-.45-.39-.32-.5.13-.33a346.63,346.63,0,0,0-63.47-28.45,364.34,364.34,0,0,1,57.65,27.2c2.1,1,4.24,1.91,6.33,3a5.18,5.18,0,0,1,1.39,1.06c.09.2-.38.08-1-.23l-1.74-.89c3.41,2.13,5.75,4.25,5.32,4.85-.59.54-3.82-.74-7.38-2.86-9.76-5.31-19.53-10.51-29.59-15.13l-3.3-1.39L362,150.64a410.72,410.72,0,0,1,44.87,24.86c1.25.74,2.21,1.55,2.1,1.79s-1.24-.18-2.5-.91A418.82,418.82,0,0,0,366,156.57a409.28,409.28,0,0,0-42.41-15.5c-4.92-.88-9.88-1.55-14.81-2.3l-7.48-.82-3.74-.4c-1.25-.15-2.5-.27-3.76-.34,1.22.26,2.45.59,3.68.91,15.72,3.69,30.3,7.3,44.65,11.66a280.13,280.13,0,0,1,42.72,16.54,3,3,0,0,1,1.27.94c0,.16-.53,0-1.25-.35-14-6.74-27.42-11.46-42-16.11l-9-2.75-8.87-2.33-4.37-1.12-4.38-.93c-2.91-.6-5.79-1.2-8.66-1.74l8.59,2.27,4.29,1.09,4.24,1.23,8.47,2.41q4.19,1.35,8.37,2.67l4.19,1.34,4.15,1.47,8.3,3c2.74,1.07,5.47,2.2,8.21,3.32l4.12,1.69c1.37.58,2.71,1.23,4.07,1.84a10.47,10.47,0,0,1,2.41,1.36,1,1,0,0,1,.62.08,92.88,92.88,0,0,1,8.94,3.57,4.62,4.62,0,0,1,1.5,1C388.36,170.49,388,170.43,387.29,170.16Zm-345.91-17L41,153H42l2,1Zm-6.6,13.35h0L33.63,166ZM171.42,98.33l-10.29,1.16c-1.71.15-3.42.4-5.12.65l-5.11.7c-6.86.78-13.62,2-20.51,2.92l9.8-2.37,3.88-.62,3.9-.46,7.8-.87c1.3-.12,2.59-.31,3.9-.38l3.92-.26ZM29.67,152.27a17.71,17.71,0,0,1,4.63,1.12,7.46,7.46,0,0,1,1.9-1.63c1-.58,1.95-1.17,3-1.66s2-.93,3.07-1.36c-.62-.41-.13-.62,0-.83l.61-.57-3.41,1.22-1.74.6-1.72.66A56.36,56.36,0,0,1,29.67,152.27ZM18.05,164.16l-.32-.07L17.41,163Zm.58,1.79.36-.09C19.14,166.23,19,166.19,18.63,166Zm3.26-.86a2.23,2.23,0,0,0-.7-.17Zm20.83,22.59-2.42-4.75,2.22,4.65Z"/></symbol><symbol id="LI" data-name="LI" viewBox="0 0 411.16 576.94"><path d="M36.37,24.09c0,.23,0,.49,0,.73-.44.06-.77-.23-1.05-.69A8.84,8.84,0,0,0,40.19,31a15.18,15.18,0,0,0,8.48,1.1,2.6,2.6,0,0,0,3.88-.44,3.32,3.32,0,0,0,.06-4.3,3.8,3.8,0,0,1-.35-1.1,23.74,23.74,0,0,0-2.16-9.36l.32,2.22a7.42,7.42,0,0,0-1.32-2.29l-.36,1A5.15,5.15,0,0,0,41.5,13.5a8.32,8.32,0,0,0-5.38,8.89Z"/><path d="M34.23,35.61c-.67-2.08-1.2-4.17-1.7-6.26l.12-.69-1.6,2.15.14-.11c2.63-.68,5.14.35,7.35,1.43l.91.22a2.27,2.27,0,0,0,1.46-.65,2.37,2.37,0,0,0,.32-3.17c-.28-.32-.53-.68-.8-1-1.37-3.28-4.84-6.51-9.1-4.18-1,.55-1.58,1.79-2.31,2.78a3.17,3.17,0,0,0-.2,4.41,2.88,2.88,0,0,0,4.22-.3l.38.83-.88.07c1.3-.9,2.6-.22,3.91-.16l1.46.73,1.85-3.85-.94-.12c-.06.18-.13.46-.15.47a23.55,23.55,0,0,1-5.44-.84l-2.61-.27A2.15,2.15,0,0,0,29,29.21l.17,1.34v-.7c1.12,2.22,2.6,4.23,3.72,6.5a.68.68,0,0,0,1,.34A.87.87,0,0,0,34.23,35.61Z"/><path d="M27.78,30.75c-.08-.49-.13-1-.58-1.27l-.38.11.09,1C27,31.34,27.43,31.21,27.78,30.75Z"/><path d="M26.82,29.59l0-.43-.1.43.07,0Z"/><path d="M206.73,89c1.36,0,2.72.16,4.08.17h4.1l8.23,0,8.24-.37,4.14-.2,4.12-.37,8.27-.75,8.26-1.09,4.13-.56c1.38-.2,2.74-.47,4.12-.7l8.24-1.46c.73-.12,1.31-.4,1.31-.57s-.61-.17-1.29,0l-8.22,1.44c-1.37.23-2.74.49-4.11.7l-4.12.54L248,86.75l-8.23.73-4.11.36-4.12.2-8.21.36c-2.73,0-5.47,0-8.19,0h-4.09c-1.36,0-2.72-.12-4.07-.16-.73,0-1.33.11-1.42.29S206.05,88.91,206.73,89Z"/><path d="M373.59,61.07c-.44.36-.35.48.21.29a6.26,6.26,0,0,0,1.69-.93c.37-.3.26-.45-.21-.28A6.16,6.16,0,0,0,373.59,61.07Z"/><path d="M374.6,73.38l-4.09,2.74c-1.33.87-2.59,1.72-3.76,2.57a7.24,7.24,0,0,1-1.4.73c.28.12-.19.61-1.22,1.28-20.25,13.17-44,24.26-68.29,33.36a2.3,2.3,0,0,1-.87.93c-1.52,1.18-4.89,2.56-8.52,3.52l-2.75.64c-2.77.71-5.57,1.27-8.35,1.92s-5.56,1.3-8.37,1.8l-8.41,1.53-4.21.74-4.23.57a66.91,66.91,0,0,1-7.77,2c-1.2.35-2.4.64-3.62.91l-3.64.84-7.34,1.67c-4.93,1-9.94,1.83-15,2.69.65.15,1,.37,1.06.65s-.71.72-1.66,1a17.29,17.29,0,0,1-3.64.53l-4.22.28c4-.08,8.1-.05,12.11-.33a14.85,14.85,0,0,1,1.6,0c4.4-.44,8.86-.8,13.33-1.57a303,303,0,0,0,55.69-14,373.34,373.34,0,0,0,50.08-22,6.45,6.45,0,0,1,1.87-.79c.36,0,.38.16-.19.5-1.22.74-2.42,1.52-3.63,2.23l-3.62,2.12-7.15,4.26c-2.38,1.41-4.8,2.7-7.21,4.07s-4.83,2.74-7.31,4a243.5,243.5,0,0,1-33,14.66,342.59,342.59,0,0,1-94.73,19.53,470.36,470.36,0,0,1-51.55-2.64,338.54,338.54,0,0,1-52.2-9.48c-3-.7-6-1.69-9-2.57s-6-1.79-8.92-2.73l-8.76-3.15c-2.91-1.08-5.85-2.07-8.68-3.33l-2.14-.9-1.07-.45-.41-.15L37.91,123,35,121.89c-1.93-.76-3.88-1.46-5.74-2.35-3.75-1.71-7.48-3.49-11.2-5.31-1.88-.87-3.67-2-5.5-3L7.09,108.2a14,14,0,0,1-3.81-2.5,11,11,0,0,1-2.41-3.44,8.53,8.53,0,0,1,0-7.46A9.12,9.12,0,0,1,8.4,90.11l-1.18-.87-1.56-1.8a8.58,8.58,0,0,1-2.13-5.88V78.92c.77-4.51.31-9.36,1.74-13.78l1.32-1.06v-.61a7.86,7.86,0,0,1,.91-5L8.85,57a20.61,20.61,0,0,1,5.53-3.85,7.12,7.12,0,0,1,1.81-1.7A9.93,9.93,0,0,1,19.87,46a1.41,1.41,0,0,1,1.36-1.42,1.37,1.37,0,0,1,.72.2h0c.12-.58.16-.74.25-1.42-.26-.44-.39-.72-.39-.72-.74-1.09-.74-1.09-1.36-2a6.46,6.46,0,0,1-.08-2.27c1.52-3.41,1.53-3.41,2.65-4.49a4.25,4.25,0,0,1,.43-.21c-.28-.92-.3-1-.36-1.25a3.49,3.49,0,0,1,.1-.7c.52-.66.52-.66.61-1a5.58,5.58,0,0,1,.38-.5c.94-.41.94-.41,1.12-.61a2.65,2.65,0,0,1,.48-.18l.9.19L26.14,32l.66-.41-.44.93.47-.79.08.79,0-1c.79,1.12.8,1.12,1.22,1.45a2,2,0,0,0,.9.61c.15-.25.27-.41.27-.41.86,1.2.86,1.2,1.67,2.41a4.58,4.58,0,0,1-.12.68.58.58,0,0,1,.71.2L32,37h.19l.05,0L33,37h.16v0c.49.05,1.21.13,3.17.22a7.94,7.94,0,0,1,.7,1.08c0-.18,0-.35,0-.54,0-.36.63-.86.58-1a24.36,24.36,0,0,0-1.16-2.28c-.4-.76-.82-1.49-1.27-2.21-.88-1.44-1.85-2.81-2.76-4.21a1.2,1.2,0,0,1,1.29-2c7.39,1,12.88,6.23,16.3,13,1.2,1.34,2.44,2.64,3.7,3.94v-.47l.8,1.29.1.11-.09-1.78c-.11-.26-.23-.51-.36-.76a24.71,24.71,0,0,1-3.79-4.89c-1.07-1.81-2-3.76-3.07-5.52-1.16-1.92-1.71-4.12-2.59-6.13a1.06,1.06,0,0,1,.12-1.43.89.89,0,0,1,1.31-.08,26.2,26.2,0,0,1,7.48,6.39,21.5,21.5,0,0,1,4.78,9.11,5.47,5.47,0,0,1,2,3l0,0V40.51c.56.79.49,1.83,1,2.63L62,41.62c1.61,1.62,3.48,3,5.24,4.49a25.82,25.82,0,0,1,2.53,2.38,17.19,17.19,0,0,1,2.21,2.71,4,4,0,0,1,.35.37,22.26,22.26,0,0,1,3.06,0c.25,0,.5.06.75.1a.88.88,0,0,1,.2,0l.5.22,1,.46c1.36.6,2.68,1.35,4.13,2-.93-.55-1.81-1.16-2.69-1.77l-2.58-1.78A3,3,0,0,1,77,51l.4.17.8.32,1.58.68,1.58.69,1.61.66a69.7,69.7,0,0,1,6.46,3.06c11.81,6.12,25.14,13.75,31.16,19.52a290.11,290.11,0,0,0,39.29,9.09,282.74,282.74,0,0,0,40.37,3.08c1.39,0,2.65.26,2.91.63s-.77.72-2.17.76c-1.21,0-2.43.14-3.65.17h-11c-2.46,0-4.9-.21-7.36-.31s-4.92-.22-7.37-.44a267.08,267.08,0,0,1-29.35-4.15A237.62,237.62,0,0,0,192,93.34c2.18,0,4.38.16,6.59.14a64,64,0,0,1,6.5.25,265.06,265.06,0,0,0,65.22-7.27l3.51-.83,3.44-.94L284,82.82c2.24-.58,4.42-1.31,6.6-2l6.51-2.08c1.09-.33,2.17-.7,3.24-1.1l3.22-1.16,6.48-2.33c4.32-1.68,8.67-3.46,13.16-5.28C335.77,63.5,347.47,57.75,359,51.73s22.73-12.59,34.36-19.58c3-2,6.11-3.37,6.83-3.08S399,31.25,396,33.26q-17.72,11.85-36.31,22A407.44,407.44,0,0,1,321.31,73.4a315.25,315.25,0,0,1-40.6,13.52l-5.23,1.36c-1.74.45-3.52.79-5.28,1.18l-5.3,1.14-2.66.57c-.89.17-1.78.31-2.68.46-3.57.6-7.16,1.22-10.76,1.78l-10.9,1.28c-1.57.21-3.14.29-4.71.41l-4.67.34-4.65.34c-1.55.08-3.1.1-4.64.15a.77.77,0,0,1,.19.37c0,.51-.52,1-1.48,1.43l5.3-.11,5.31-.3,5.34-.29,2.68-.13,2.67-.24c19.65-3.33,39-8.17,59.56-13.72,14.13-3.9,27-7.63,39.94-12.2a437.47,437.47,0,0,0,45.95-24.68,4.51,4.51,0,0,1,1.52-.74c.28,0,0,.28-.55.69-2.5,1.7-5.06,3.34-7.62,5l-3.86,2.5-3.95,2.39-8,4.76L354,65.2c2-.46,3.31-.47,3.45.17s-1,1.86-2.87,3.29l7.71-3.78c1.6-.75,2.95-1.18,3.06-.88s-1,1.21-2.52,2c-5.25,2.59-10.46,5.26-15.81,7.59-2.67,1.19-5.3,2.47-8,3.57L331,80.46a376.69,376.69,0,0,1-39.32,14.73,9.59,9.59,0,0,1,4.42.55h0l6.24-2a495.48,495.48,0,0,0,55-24.76,546,546,0,0,0,52.51-31.35c.66-.45,1.28-.74,1.37-.63s-.37.53-1,.93c-5.19,3.41-10.28,6.93-15.56,10.15L390.7,50.6c-1.3.84-2.61,1.65-3.95,2.42l-7.94,4.73,0,0c.48-.18.64-.08.22.28a7.29,7.29,0,0,1-1.66,1c-.55.2-.58,0-.22-.28A547.68,547.68,0,0,1,316,89a476.58,476.58,0,0,0,57.15-26c1.9-1.28,3.84-2.47,5.74-3.82a4.76,4.76,0,0,1,1.57-.7c.21,0-.11.37-.66.73l-1.58,1.09c3.44-2,6.39-3,6.71-2.34s-2.43,3-6,5.12C369.32,68.6,359.62,74,349.59,78.67l-3.19,1.67-3.11,1.9a421.11,421.11,0,0,0,46-23.35c1.26-.76,2.44-1.23,2.61-1s-.74,1-2,1.79a390.85,390.85,0,0,1-39.47,23.23A376.11,376.11,0,0,1,308,101.59c-4.61,2.31-9.3,4.48-14,6.78l-7.21,3.17-3.63,1.6c-1.22.54-2.44,1.08-3.68,1.55,1.3-.28,2.59-.64,3.89-1,16.52-4.53,31.12-10.82,45.09-17.7S355.87,81.53,370,73.43a3,3,0,0,1,1.5-.59c.14.07-.27.47-1,.88-13.76,8-26.38,15.45-40.73,22.46l-8.87,4.24-8.81,3.88-4.35,1.93L303.38,108l-8.65,3.63c3-1,6-2.09,8.91-3.16l4.4-1.61,4.33-1.77,8.58-3.57,8.4-3.88,4.18-1.94,4.12-2.07,8.23-4.14L354,85.14,358.1,83c1.36-.73,2.69-1.52,4-2.28a11.4,11.4,0,0,1,2.6-1.21c0-.1.17-.27.44-.46,2.55-1.81,5.43-3.58,8.28-5.53a4.57,4.57,0,0,1,1.67-.79C375.48,72.63,375.2,72.94,374.6,73.38ZM39.9,51.86v-.35l.29.78-.3,2.13ZM26.15,50.53h0l.22-1.21ZM157.79,90.18c-3-.56-5.9-1.13-8.82-1.73-1.47-.27-2.92-.64-4.36-1l-4.31-1.15a157.84,157.84,0,0,1-16.85-5.64l8.34,2.06,3.17,1.1,3.22.95,6.47,1.94c1.08.32,2.16.69,3.25,1l3.29.83Zm-119.85-49a18.57,18.57,0,0,1,0,4.47,5.35,5.35,0,0,1,1.85,1.09c.74.64,1.43,1.34,2.15,2s1.42,1.3,2.1,2c.17-.7.5-.38.73-.31l.68.26c-.7-.77-1.38-1.55-2.06-2.34l-1-1.19-1-1.28A40.82,40.82,0,0,1,37.94,41.16Zm-12.3-6.7,0-.3.95-.57Zm-1.58,1,.13.3C23.86,36,23.88,35.81,24.06,35.45Zm1.18,2.72a2.22,2.22,0,0,0,.06-.67ZM7.55,63.31,11.69,60,7.6,63.09Z"/><path d="M232.49,165.56l-.71-.26c.1-.39.51-.58,1.07-.64a10.25,10.25,0,0,0-4.62-.11,8.23,8.23,0,0,0-1.85.66,9.29,9.29,0,0,0-.82.48l-.36.26-.17.14a.45.45,0,0,0,0,.11,4.41,4.41,0,0,0-.19,2.12,8.17,8.17,0,0,0,.95,2.68c-.46.2.17,1.28,1.44,2.38A9.37,9.37,0,0,0,230,175.3a4.59,4.59,0,0,1,.54.34,27.67,27.67,0,0,1,2.5,2.23c.34.34.62.66.87.95.07.09.36.43.35.5l.07.18s.09.05.17.06l.26,0-.5-.2a1.91,1.91,0,0,1-.16-.27,3.09,3.09,0,0,0-.4-.61l.13.17a.31.31,0,0,1,.05.1l.07.18a3.06,3.06,0,0,0,1.13-.1l-.77-.68a6.64,6.64,0,0,0,2.42.3,5.18,5.18,0,0,0,2.09-.65,4.45,4.45,0,0,0,1.57-1.54,5,5,0,0,0,.74-2.32,6.85,6.85,0,0,0-1.77-5.06,8.84,8.84,0,0,0-2.28-1.87,8.53,8.53,0,0,0-2.81-1.07Z"/><path d="M222.35,159.59c1.05.06,2.08.17,3.17.28l3.27.45.62.35-1.5-2.18.06.16c-.35,2.55-2.13,4.35-3.71,5.81-.06.11-.19.23-.19.31V165a4.67,4.67,0,0,0,.57,1.27,6.94,6.94,0,0,0,1.12,1.31,4.4,4.4,0,0,0,.44.35l.18.08a1.57,1.57,0,0,0,.37-.05l1.15-.28a9.23,9.23,0,0,0,2.61-.3,7.79,7.79,0,0,0,2.51-1,5,5,0,0,0,2.35-5c-.15-1.07-1.19-2.06-1.92-3.07a3.64,3.64,0,0,0-4.4-1.72,2.59,2.59,0,0,0-1.29,3.82l-.92,0c.07-.26.15-.51.23-.78.42,1.45-.7,2.33-1.14,3.43l-1.1,1,3,2.94.39-.75c-.15-.12-.39-.28-.39-.3a15.93,15.93,0,0,1,2.69-4.35c.41-.72.88-1.47,1.31-2.21a2.07,2.07,0,0,0-1.5-2.21l-1.41-.32.7.25c-2.65.23-5.09.78-7.5,1a.61.61,0,0,0-.61.74A.91.91,0,0,0,222.35,159.59Z"/><path d="M229.23,155.6a2,2,0,0,0,1.51-.07l0-.39-1.09-.27C228.94,154.67,228.9,155.13,229.23,155.6Z"/><path d="M230.79,155.14l.45.12-.4-.24c-.05,0,0,0,0,0Z"/><path d="M236.37,319.18c-1.68,27.75-3.8,55.4-5.25,82.94a3.48,3.48,0,0,0,.15,1.76c.12,0,.28-.67.32-1.52,1.48-27.55,3.62-55.06,5.32-82.82a4.11,4.11,0,0,0-.17-1.84C236.59,317.66,236.43,318.31,236.37,319.18Z"/><path d="M217.86,524.88c-.13-.64-.26-.61-.32.07a9.7,9.7,0,0,0,.12,2.26c.12.54.27.51.32-.07A9.68,9.68,0,0,0,217.86,524.88Z"/><path d="M207.59,519.39c-.32-3.88-.65-7.56-1.11-10.84a11.49,11.49,0,0,1,0-1.83c-.2.23-.41-.5-.54-1.9-.65-6.9-1-13.93-1.52-21.06s-.7-14.34-1-21.61c-.45-14.53-.69-29.26-1-43.86a2.88,2.88,0,0,1-.49-1.24,43.35,43.35,0,0,1-.58-10.3l.2-3.16q.84-19.14,1.67-38.19c-.22-2.6-.36-5.62-.36-8.89-.56-11-1.11-21.95-1.68-33.18-.16.7-.37,1.12-.58,1.11-.53-.23-.92-2.82-.9-5.84,0-1.53,0-3.05,0-4.57q-.19,6.56-.4,13.1a15.53,15.53,0,0,1-.09,1.74c0,4.81-.06,9.66,0,14.6,0,10.79.12,21.43.26,32s.24,21,.45,31.34.5,20.65.88,30.9c.14,5.11.35,10.22.57,15.33s.41,10.18.71,15.27a9.86,9.86,0,0,1,0,2.31c-.11.4-.26.32-.32-.42-.62-6.41-1.21-12.62-1.81-18.77s-1.16-12.24-1.75-18.44-1.14-12.5-1.6-19.05-.89-13.38-1.18-20.6c-.67-17.21-1.5-34.25-2.35-51.31q-.31-6.39-.65-12.8c-.24-4.26-.47-8.53-.72-12.81-.41-8.58-1.1-17.12-1.68-25.77-.21-4.5-.41-8.95-.62-13.38l-.17-3.31-.09-1.65c0-.19,0-.75,0-1.2v-1.41a69.37,69.37,0,0,1,.84-11.47l.53-2.88.29-1.45.35-1.38c.48-1.81,1-3.76,1.56-5.38l.87-2.52c.15-.44.3-.82.44-1.18l.44-1.11.89-2.22.81-1.89c1.11-2.58,1.87-4.36,2.43-5.87l.06-.14c0-.05,0,0,0-.06V232l0-.16c0-.11.08-.24.09-.3s0-.24,0-.35a3.12,3.12,0,0,0-.23-1.31l-.14-.28,0-.07,0,0v.05a2.28,2.28,0,0,0,0,.26l0,.13v.1l16-5.75h0l.07,0a9.44,9.44,0,0,0,1.08-.4l.54-.26c.17-.08.4-.23.47-.25a4.14,4.14,0,0,0,.66-.34c.2-.12.49-.35.51-.35a2.34,2.34,0,0,0,.27-.2l.11-.1,0,0,0,0a3.15,3.15,0,0,0-.3.38l-.13.19a.49.49,0,0,1-.07.11l-.13.2a6.08,6.08,0,0,0-.46.82l-.09.2,0,.05v0L208.16,242l0,.19-.06.79-.12,1.57c0,.09-.08.07-.16.07h-1.63c-.63,0-1.22,0-1.89.07l-2,.17-1,.08h-.94a85,85,0,0,1-14-1.16l-1.59-.27-1.4-.43-1.41-.44-1.4-.37c-1-.25-1.86-.52-2.74-.79l-1.33-.41-1.15-.56c-1.59-.71-2.9-1.61-4.49-2.25-.38-.18-.79-.34-1.13-.54l-1-.66a21.37,21.37,0,0,0-2.09-1.25c-1.94-1.11-3.27-2.72-5.18-4.06-.23-.17-.47-.33-.68-.52l-.59-.63c-.39-.42-.78-.81-1.16-1.27L157.89,228l-1.35-1.3c-1.6-1.91-2.81-4.17-4.36-6.29-.74-1.08-1.5-2.14-2.14-3.29s-1.37-2.23-2-3.41l-1.79-3.51c-.39-1.25-.72-2.51-1.08-3.77s-.8-2.49-1.19-3.74l-.62-1.86-.5-1.9c-.3-1.28-.71-2.53-.93-3.83l-.73-3.87c-.34-2.62-.75-5.23-.85-7.89-.08-1.32-.22-2.64-.18-4v-2l0-.64a22.06,22.06,0,0,1,0-2.3c0-1.53.09-3.07.17-4.6s.29-3.07.43-4.61c0-.19,0-.38.06-.57l.17-.56.35-1.11.69-2.23c.92-3,1.3-6,2.29-9l.65-2.25c.24-.75.52-1.49.78-2.23.53-1.48,1-3,1.67-4.43a73.07,73.07,0,0,1,4.07-8.72c.84-1.39,1.63-2.81,2.52-4.2s1.76-2.78,2.72-4.15c.67-1,1.39-2.06,2.14-3a23.4,23.4,0,0,1,2.43-2.62,22.51,22.51,0,0,1,5.24-3.78c3.42-1.93,6.09-2.82,8.36-1.28a5.3,5.3,0,0,1,2.22,3.74,13.92,13.92,0,0,1-.15,5.68l1.36-1.64a13.84,13.84,0,0,1,2.64-2.08,12.55,12.55,0,0,1,7.89-2.16,13.11,13.11,0,0,1,2.9.1c4.18,1.68,8.73,2.5,12.4,5.11l.56,1.57.57.17a7.35,7.35,0,0,1,4.34,2.33l.94,1.74a19.66,19.66,0,0,1,1.8,6.38,6.93,6.93,0,0,1,1,2.2,9.57,9.57,0,0,1,3.91,5.13,1.36,1.36,0,0,1,.88,1.71,1.44,1.44,0,0,1-.43.59h0a13,13,0,0,0,1.26.69c.51-.09.82-.11.82-.11,1.29-.32,1.29-.32,2.44-.57a7.08,7.08,0,0,1,2.24.69c2.82,2.54,2.83,2.56,3.48,3.94,0,.16,0,.32,0,.47,1,.06,1.12.07,1.41.1a3.71,3.71,0,0,1,.68.34c.46.69.46.69.75.89a3.75,3.75,0,0,1,.36.52c0,1,0,1,.18,1.23a2.81,2.81,0,0,1,0,.5l-.57.74-2.2-1.32.15.74-.75-.72.61.7-.82-.21,1,.38a5,5,0,0,0-1.91.6,2,2,0,0,0-.92.58c.19.22.3.38.3.38-1.48.34-1.47.34-2.88.63a6.73,6.73,0,0,1-.6-.33.53.53,0,0,1-.41.56l-.69.19-.06.18,0,.05-.28.61-.05.14h0c-.21.44-.41.88-.59,1.31a3.09,3.09,0,0,0-.14.32v.87c-.29,0-.53,0-.8,0a2.33,2.33,0,0,1,.39.19c.26.14.63.81.72.83.27,0,.62.15.81.14l.34,0,.59,0c.79-.07,1.61-.18,2.39-.31l5-.89a1.34,1.34,0,0,1,1.67.35,1,1,0,0,1-.19,1.51,15.36,15.36,0,0,1-1.56,2.13,16.74,16.74,0,0,1-1.72,1.75,15.71,15.71,0,0,1-1.83,1.41c-.21.11-.18.17-.21.24s0,.15-.11.17-.23.2-.37.26c-1,.67-2.58.73-4.84.64a13.12,13.12,0,0,0-2.37,1l.41.12-.88.14-.07,0c.52.12,1,.25,1.52.39h.54c1.56-.92,4.27-.44,6.07-.12a5.51,5.51,0,0,1,1.6.59l.8.44a3.32,3.32,0,0,1,.41.28l.26.19a1.1,1.1,0,0,1,.24,0,1.19,1.19,0,0,1,.34.13,1.44,1.44,0,0,1,.56.56.84.84,0,0,1,.12.65.49.49,0,0,1-.14.23s0,.08,0,.08,0,.11,0,.15-.09,0-.09.06a.63.63,0,0,1-.09.22,1.27,1.27,0,0,1-.3.31,1.75,1.75,0,0,1-1.06.19,45,45,0,0,1-5.21-1,1.08,1.08,0,0,1-.66.22,4.2,4.2,0,0,1-1.11,0h0l1.22.32c-.39.1-1.41-.2-1.95-.13l1.6.57a5.78,5.78,0,0,0-1.88,1.49,7.38,7.38,0,0,1-2.71,1.7,1,1,0,0,1-.2.15c.55.37,1.09.71,1.5,1l.3.24a.34.34,0,0,1,.06.06l0,.2.08.39c.1.53.19,1.06.24,1.62a11.81,11.81,0,0,1,.7-2.2c.56,1.5,1.08,2.86,1.49,4.31a8.52,8.52,0,0,0,1.18,2.89,6.45,6.45,0,0,0,2.16,1.58,14.26,14.26,0,0,1,2.21,1.37,6.53,6.53,0,0,1,1,1,7.47,7.47,0,0,1,.48.63l.23.36,0,.09,0,0,.19.12.8.51,1.52.68c.6.3,1.32.71,2,1.08s1.29.75,2,1.23,1.32.95,2,1.45a32.8,32.8,0,0,1,3.65,3.36,39.27,39.27,0,0,1,3.09,3.86c.86,1.32,1.63,2.66,2.35,4s1.14,2.59,1.63,3.92c.34,1,.63,2,.92,3l.11.37.06.32.13.65.25,1.29a58.52,58.52,0,0,1-.15,21c-.18.87-.34,1.74-.53,2.6l-.74,2.54c-.27.84-.46,1.71-.79,2.53l-.94,2.48a49.13,49.13,0,0,1-2.1,4.7c-.4.86-.66,1.34-.95,1.91l-.87,1.68a72.81,72.81,0,0,0-4.27,8.68,18.38,18.38,0,0,0-1.13,6l-.16,13.12c0,4.38-.12,8.74-.23,13.09s-.17,8.7-.26,13.05a8.72,8.72,0,0,1-.62,3.7c-.29.18-.53-1-.49-2.79q0-9.36,0-18.77T236,274.1v-2.37l.06-1.38a16.89,16.89,0,0,1,.22-2.44,38.37,38.37,0,0,1,.54-2.31c.14-.4.26-.79.37-1.2l.54-1.32c.78-1.85,1.92-4.1,3.45-7.05l1.21-2.42.32-.66.38-.8.75-1.61c.24-.55.52-1,.73-1.63l.64-1.73a34.17,34.17,0,0,0,1.19-3.49c-.16.48-.29,1-.48,1.46l-.58,1.43c-.4.94-.76,1.92-1.18,2.84-.87,1.7-1.86,3.74-2.52,4.86-1.5,2.75-2.72,4.75-3.71,6.57l-.68,1.26c-.25.44-.37.77-.57,1.15-.41.77-.63,1.44-.93,2.12s-.41,1.35-.68,2c-.11.71-.31,1.38-.42,2.13l-.12,1.15-.07.58,0,.31,0,.5-.15,4q-.15,4-.28,8.07c-.15,5.39-.39,10.78-.6,16.2,0,2.76-.09,5.54-.13,8.32s-.25,5.47-.46,8.18c-.27,6.9-.54,13.72-.88,20.47s-.63,13.47-.95,20.2S230.31,371,230,377.8s-.44,13.67-.6,20.64c-.12,6-.23,11.73-.34,17.4s-.19,11.24-.22,16.8c-.12,11.13,0,22.21.17,34,.2,8.26.29,16.35.67,24.29q.24,6,.49,11.86t.64,11.74c.32,7.83,1.06,15.56,1.56,23.41q.51,5.85,1,11.77c.33,3.95.66,7.93,1.15,11.91.55,4.24.53,8.22,0,8.79s-1.48-2.44-2-6.71l-.87-6.25-.69-6.28-1.32-12.56c-.67-8.41-1.5-16.79-1.88-25.24-1.1-16.87-1.46-33.87-1.64-51,0-8.57-.07-17.15.07-25.8s.32-17.33.57-26.07c.51-17.48,1.21-35.18,2.19-53.2.39-7.78.78-15.44,1.17-23.05-.1.09-.2.18-.3.18-.4,0-.73-.74-1-2-.46,8.65-1,17.37-1.59,26.09-.09,6.08-.19,12.15-.28,18.25s-.23,12.21-.35,18.38-.33,12.37-.55,18.64-.51,12.62-.8,19.05c-.92,17.64-1.74,33.62-2.59,50,.48,20.66,1.52,41.2,3.34,61.86a6.82,6.82,0,0,1,0,2c-.1.31-.25-.13-.36-1-1-7.08-1.61-14.3-2.32-21.57-.37-3.64-.57-7.31-.83-11s-.49-7.37-.73-11.07c-.32,2.34-.79,3.75-1.35,3.57s-1.16-2-1.57-4.74l.24,10.11c0,2.09-.13,3.73-.41,3.69s-.58-1.69-.64-3.67c-.08-3.45-.21-6.88-.26-10.33l-.1-10.32c-.11-6.88,0-13.76,0-20.64l-.09-6.19,0-6.2,0-12.38c.06-8.27.11-16.53.26-24.83a14,14,0,0,1-1.59,4.76h0q-.07,3.85-.14,7.68c.57,46.87,1.26,94.78,6.59,142.56.1.93.08,1.72-.06,1.75s-.32-.68-.39-1.52c-1.51-14.44-2.82-28.87-3.64-43.31v.06c-.05.59-.19.71-.32.07a11.3,11.3,0,0,1-.13-2.26c.06-.68.21-.62.32-.08-1.6-26.89-2.24-53.69-2.63-80.18-.27,24.61-.13,49.2.69,73.73.3,2.66.6,5.32.9,8a7.21,7.21,0,0,1-.06,2c-.1.22-.26-.32-.33-1.07l-.24-2.25c.19,4.64-.17,8.26-.85,8.22-.71-.21-1.45-4.17-1.68-9-.19-3.24-.43-6.47-.57-9.7s-.24-6.46-.37-9.69-.27-6.46-.33-9.69l-.16-9.69-.19-4.19c-.13-1.41-.25-2.8-.38-4.21-.12,20.1.18,40.17,1.09,60.12.14,1.71.05,3.18-.19,3.24s-.55-1.32-.68-3c-1.55-17.55-2.74-35.26-3.22-53l-.24-6.67-.13-6.68-.24-13.38c-.05-8.92-.14-17.87-.06-26.81-.92-11.76-1.77-23.57-2.62-35.59-.05,1.51-.1,3-.14,4.56-.74,38.89,1.7,72,3.61,109.7a4.34,4.34,0,0,1-.14,1.86c-.12.11-.26-.53-.29-1.48-.25-4.61-.56-9.11-.85-13.55s-.5-8.85-.76-13.24-.52-8.78-.73-13.22-.46-8.91-.62-13.48c-.51-15.14-.88-29.53-1.46-43.6-.11,14.36.12,28.45.48,42.51.18,7,.49,14.06.71,21.1s.6,14.12.9,21.25a17.75,17.75,0,0,1,0,3.3,1.61,1.61,0,0,1,.19.7c.45,3.56.82,7.44,1.16,11.4a7.15,7.15,0,0,1-.06,2.13C207.83,520.69,207.69,520.23,207.59,519.39Zm1.09-360.85.32.09-.73,0s0,0-2-.71C206.24,158,207.48,158.21,208.68,158.54Zm2.54-10.94h0l1,.59ZM235.4,263.3a90.56,90.56,0,0,1,4.3-8.32l.76-1.41.38-.71c.12-.23.24-.45.41-.79.6-1.24,1.24-2.45,1.81-3.72s1.08-2.65,1.58-4l1.29-4.09a55.06,55.06,0,0,0,1.71-17l-.33-4.29-.34-2.13a10.34,10.34,0,0,0-.2-1.1l-.32-1.2a32.41,32.41,0,0,0-2.13-5.79c-.56-1.09-1.14-2.16-1.8-3.21s-1.5-2.13-2.32-3.14c.83,1,1.62,2,2.36,3s1.28,2,1.87,3.1a15.42,15.42,0,0,1,.75,1.54l.65,1.52.31.76c.1.26.21.54.26.7l.37,1.17.36,1.17c.06.19.13.39.17.57l.1.52.42,2.08c.22,1.39.35,2.8.53,4.21a54.06,54.06,0,0,1-.71,13.14,59,59,0,0,1-4,12.49c-.43,1-.95,1.89-1.42,2.84l-.73,1.4-.6,1.07-1.18,2.07-1.09,1.82-1,1.63-.47.79-.4.7-.78,1.37Zm-17.68-103c-1.12-.38-2.35-1-3.61-1.55a2.5,2.5,0,0,1-.88,1.08c-1,.74-2.16,1.41-3.31,2.1.67.29.4.45.36.61l-.18.42a25.85,25.85,0,0,1,4-1.66A13,13,0,0,1,217.72,160.26Zm8.64-7.87.29.14.2,1Zm-.37-1.76h-.34C225.54,150.26,225.7,150.34,226,150.63Zm-3.08.13a2.46,2.46,0,0,0,.62.29Zm-17.77-24.27,1.79,4.93-1.59-4.82Z"/><path d="M178.62,35.17l.37,0c0,.23-.23.39-.5.5,3.47,0,5.57-3.26,6.13-6.35A1.55,1.55,0,0,0,183,26.75a1.94,1.94,0,0,1-.62.09,11.92,11.92,0,0,0-5.21.37h1.22a4,4,0,0,0-1.42.56l.43.26a3.58,3.58,0,1,0,.37,7.16Z"/><path d="M184.06,37.22c-1.12.16-2.22.26-3.34.35l-.33-.12.86,1,0-.08A6.29,6.29,0,0,1,183,34.66l.26-.44a1.11,1.11,0,0,0-.1-.82,1.13,1.13,0,0,0-1.54-.48l-.64.35c-1.84.47-4,2.13-3.44,4.48.14.54.69.94,1.1,1.38a1.58,1.58,0,1,0,2.62-1.75l.46-.13-.09.46c-.26-.75.26-1.37.48-2.06l.57-.71L181,33.65l-.2.49.22.12a14.79,14.79,0,0,1-1.21,2.79l-.51,1.33a1,1,0,0,0,.85,1h.7l-.35,0c1.26-.4,2.46-1,3.72-1.35a.41.41,0,0,0,.31-.48A.41.41,0,0,0,184.06,37.22Z"/><path d="M180.77,40.11a.91.91,0,0,0-.71.19v.21l.52,0C181,40.57,181,40.33,180.77,40.11Z"/><path d="M180.06,40.51l-.22,0,.21.09v-.07Z"/><path d="M211,11.8a53.72,53.72,0,0,0,5.22-2.87c.06,0,.05-.14,0-.25s-.17-.14-.22-.1c-1.7,1-3.42,2-5.23,2.85-.06,0-.05.14,0,.24S210.94,11.83,211,11.8Z"/><path d="M230.25,12.7a.45.45,0,0,0,.2.25c.08,0,.15,0,.13-.11a.45.45,0,0,0-.2-.25C230.28,12.55,230.24,12.61,230.25,12.7Z"/><path d="M236,20.75a2.77,2.77,0,0,0-.16,1c0,.07-.05.09-.11.07a.62.62,0,0,1,.19.46c-.51,2.53-1.76,4.34-2.84,6.32a3.48,3.48,0,0,1,.22.43c.2.49.13.87-.16,1l-.26,0c-.89.32-1.75.7-2.66,1a1.12,1.12,0,0,1-.23.73,20.1,20.1,0,0,1-.84,2.78,1.27,1.27,0,0,1,.36.34c.26.35.31.72.13.84l-.24.22c.31-.1.63-.21.95-.3a.22.22,0,0,1,.14,0,5.7,5.7,0,0,0,.81-.66c2.2-2.2,3.47-5.28,4.57-8.55,0-.08.06-.12.16-.06s.17.18.16.26c-.09,2.84.44,6.08-.3,8.46A42.54,42.54,0,0,1,232.66,43c-2.06,1.59-3.33,3.91-4.95,6.15-.55.76-1.12,1.47-1.71,2.15l-.12.12,0,.06-.12.11-.47.44-1,.87-1.92,1.7c-2.58,2.23-5.21,4.36-7.9,6.51a4.69,4.69,0,0,1-6.65,0,4.75,4.75,0,0,1-1.33-4.08l-.51.36-1,.37a4.08,4.08,0,0,1-2.9-.06l-1.22-.43c-2-1-4.23-1.49-6.15-2.72l-.36-.74-.29-.08a4,4,0,0,1-2.23-1l-.56-.81a9.59,9.59,0,0,1-1.23-3,3.36,3.36,0,0,1-.61-1.05,4.88,4.88,0,0,1-2.19-2.37.68.68,0,0,1-.52-.82.82.82,0,0,1,.18-.33h0c-.26-.12-.34-.15-.66-.27a2.8,2.8,0,0,1-.39.12c-.62.26-.62.26-1.17.47a3.39,3.39,0,0,1-1.12-.17c-1.49-1.06-1.49-1.06-1.89-1.71a1.55,1.55,0,0,1-.05-.23l-.67.08a2.59,2.59,0,0,1-.34-.11c-.26-.31-.26-.31-.41-.38a2.45,2.45,0,0,1-.2-.23c-.09-.5-.09-.5-.16-.61a1.31,1.31,0,0,1,0-.26c.14-.28.19-.39.22-.43l1.12.46-.12-.37.4.3-.33-.3.4,0-.51-.1a2.7,2.7,0,0,0,.89-.5,1.18,1.18,0,0,0,.42-.41,2.25,2.25,0,0,1-.17-.17l1.42-.64.32.12a.32.32,0,0,1,.19-.34l.36-.18,0-.1,0,0,.14-.36,0-.08h0c.09-.26.22-.62.58-1.59a3.54,3.54,0,0,1,.64-.23l-.27-.05c-.18,0-.33-.41-.41-.4a24.32,24.32,0,0,0-5.08,1.91.58.58,0,1,1-.82-.82c1.53-3.84,5.17-6.29,9.08-7.22.89-.43,1.76-.88,2.63-1.35l-.23-.07.78-.22.08,0-.89-.22-.44.08c-2,1.15-4.26,1.53-6.41,2.31a31.25,31.25,0,0,1-3.55.78.52.52,0,0,1-.71-.19.51.51,0,0,1,.18-.7c2.62-2.66,6.23-4.88,10-4.77a3,3,0,0,1,1.87-.63h0l-.69-.22c.49-.19,1,0,1.49-.09l-.63-.53c2.27-1.12,4.26-2.95,6.79-3.44l.26-.11a12.74,12.74,0,0,1,1.33-2.53l-.65.18a2,2,0,0,1,.73-1.26c1.05-.71,2.93-.6,4.75.67a70.05,70.05,0,0,0,5.21-5.27c.08-.11.28,0,.44.13s.23.42.15.52a23.46,23.46,0,0,1-3.18,4.56A21.6,21.6,0,0,0,211.83,15l.4-.45a.94.94,0,0,1,.54-.25,18.4,18.4,0,0,0,4.29-3.9A41.78,41.78,0,0,0,219.81,6C221,3.72,222.1,1.56,224,.11c.2-.25.7-.07,1.11.39s.57,1,.36,1.3c-2.7,4.49-5.09,9.25-9.32,12.15l-1.36.92c0,.06.11.12.16.19a3,3,0,0,1,.44.79,13.48,13.48,0,0,1,1.71-.82c.93-1.61,1.87-3.22,3.54-4.07a12.38,12.38,0,0,1,3.84-.88c.93-1.21,1.8-2.5,2.79-3.67,0-.08.1-.06.19,0a.3.3,0,0,1,.12.26,19.34,19.34,0,0,1-1.36,3.39,3.45,3.45,0,0,1,1.08,1,3.17,3.17,0,0,1,.6,1.33l.59-.41c.13-.08.36,0,.53.25s.22.48.1.56l-2.4,1.71c-.74,1-1.51,1.9-2.3,2.8a4.7,4.7,0,0,1,1.09.85h0l.4-.37a19.81,19.81,0,0,1,6.75-7.93s.16,0,.24.11.1.22,0,.25a15.63,15.63,0,0,0-2.44,1.92h0a.41.41,0,0,1,.19.25c0,.09,0,.14-.12.1a.4.4,0,0,1-.2-.24A20.57,20.57,0,0,0,226.78,17,23.82,23.82,0,0,1,231,13.78l.16-.74s.13,0,.22.05a.28.28,0,0,1,.1.26l-.05.19c.29-.16.82.11,1.23.64s.5,1.14.22,1.34c-.65.66-1.33,1.28-2,1.87l-.16.28,0,.43c1.29-.66,2.61-1.28,3.95-1.87.09-.08.29,0,.44.2s.19.4.1.48a39.9,39.9,0,0,1-4.73,6.25l-.09,4a1.53,1.53,0,0,0,.27-.17c2.18-1.69,2.24-5.44,4-7.55,0-.07.14,0,.22.07s.12.21.06.25a23.7,23.7,0,0,0-1.7,4,21.49,21.49,0,0,0-1.27,3.39c1.44-1.47,2.2-3.67,3.44-5.35,0-.1.15-.11.27,0a.47.47,0,0,1-.07-.17,3.32,3.32,0,0,1,.18-1.09c0-.08.09-.08.19,0A.35.35,0,0,1,236,20.75ZM192.84,36.34l-.16-.05.42,0,1,.47Zm-2.63,6.56h0l-.56-.26Zm19.4-25.74a6.31,6.31,0,0,1-3.05,1.28l.52-.6C207.89,17.58,208.73,17.35,209.61,17.16ZM187.36,36a8.31,8.31,0,0,1,2.18.55,3,3,0,0,1,.81-.79A27.12,27.12,0,0,1,193,34.15c-.31-.19-.1-.3,0-.41l.24-.29c-1,.45-2,.89-3,1.32A23,23,0,0,1,187.36,36Zm-5,5.55-.15,0-.15-.53S182.16,41.17,182.34,41.5Zm.28.87.17,0C182.86,42.52,182.78,42.5,182.62,42.37Zm1.5-.33a1,1,0,0,0-.33-.1Zm10,11.28L193,51l1,2.3Z"/></symbol><symbol id="I" data-name="I" viewBox="0 0 290.89 387.29"><path class="cls-1" d="M6,319.09l.6.51a1.83,1.83,0,0,1-1.55,0,15.69,15.69,0,0,0,10.08,2.5,22.31,22.31,0,0,0,9.15-2.47c1.85.35,3.49-.41,3.66-1.72s-1.2-2.66-3.08-3.08a6.6,6.6,0,0,1-1.21-.68,37.2,37.2,0,0,0-9.8-6.25c.74.53,1.49,1,2.21,1.58a11.6,11.6,0,0,0-3.35-1.22l.44.84c-3.77-2.39-8.92-2.55-11.34-.08s-1.23,6.62,2.52,9Z"/><path class="cls-1" d="M13,328c-2.15-1-4.24-2.2-6.35-3.42l-.44-.53.25,2.27,0-.14c1.84-1.76,5-2.27,7.91-2.57l1-.23a1.56,1.56,0,0,0,.91-1.06c.21-1-.72-2.1-2.1-2.39l-1.6-.35c-3.91-1.59-10.11-2.4-12,1.31-.43.87.07,2.06.24,3.13-.05,1.53,1.48,3,3.39,3.2s3.49-.8,3.55-2.28l1,.39-.74.47c.48-1.25,2.21-1.41,3.49-2l1.93-.21-1.22-3.48-1,.35c.08.16.24.38.23.4a35,35,0,0,1-5.79,2l-2.61,1.06a1.49,1.49,0,0,0,.27,2.31l1.22.85-.56-.49c2.76,1,5.62,1.62,8.3,2.57a1,1,0,0,0,1.14-.26A.66.66,0,0,0,13,328Z"/><path class="cls-1" d="M3.54,327.92a2.51,2.51,0,0,0-1.51-.6l-.25.27.89.67C3.31,328.74,3.61,328.42,3.54,327.92Z"/><path class="cls-1" d="M1.78,327.59l-.37-.28.26.35.07,0Z"/><path class="cls-1" d="M161.69,316.12l-.7-.58a7.11,7.11,0,0,0-1-.57l-2-1.14c-.65-.39-1.35-.77-1.92-1.16l-.64-.59c-.11-.09-.2-.19-.34-.29l-.46-.29-.94-.59-.62-.59-.31-.29a3.82,3.82,0,0,0-.42-.3l-.9-.6-.87-.61a4.06,4.06,0,0,1-.78-.6l-.57-.6a6.23,6.23,0,0,0-.79-.62l-.43-.31-.21-.15-.13-.16-.55-.61-.53-.61-.27-.31-.13-.16-.2-.16c-1.32-.87-1.5-1.67-2.76-2.59a13.27,13.27,0,0,1-1-1.31l-.48-.66L141,299c-.55-.48-.61-.91-1.07-1.39l-.7-.74a7.22,7.22,0,0,1-.46-.72c-.29-.48-.56-1-.84-1.47l-.41-.75-.63-.82a3.48,3.48,0,0,1-.43-.8c-.13-.26-.25-.53-.37-.81-.14-.52-.72-1.16-1-1.73s-.4-1.18-.61-1.79l-.52-1-.24-1c-.15-.66-.28-1.34-.39-2.05-.12-.38-.28-.76-.38-1.14s-.06-.75-.08-1.14a5.55,5.55,0,0,0-.11-1.19,3.7,3.7,0,0,1-.14-1.26,11.8,11.8,0,0,0,.06-2.61,14.7,14.7,0,0,1,.55-2.65,6.63,6.63,0,0,0,.31-1.35l.09-.71.26-.64a6.3,6.3,0,0,0,.38-1.35,4.39,4.39,0,0,1,.55-1.28c.21-.41.45-.8.68-1.21a9.19,9.19,0,0,0,.53-1.25c0-.1.08-.21.13-.31l.19-.28.4-.56a7,7,0,0,0,.65-1.16,5.45,5.45,0,0,1,.31-.58l.43-.51a7,7,0,0,0,.81-1.05c.24-.36.44-.74.7-1.08l.95-.95c.65-.61,1-1.38,1.67-1.95l1-.86a12.69,12.69,0,0,0,.89-.91c.56-.63,1.15-1.22,1.74-1.82a4.22,4.22,0,0,1,1-.8l1.14-.74c.7-.53,1.31-1.09,2-1.63l2-1.58,2.18-1.44c2.93-1.87,5.94-3.53,8.87-5,1.48-.75,2.93-1.44,4.37-2.11.71-.33,1.46-.65,2.12-1l1-.5.51-.26c.19-.05.43-.06.65-.1a81.56,81.56,0,0,1,19.76-3.57l1.55.1c.47,0,.9-.15,1.34-.23l1.34-.25,1.42-.22c.48-.07.93-.15,1.43-.21l1.52-.16.77-.08a2,2,0,0,1,.82,0l1.84.26a15,15,0,0,0,3.52.12,15.2,15.2,0,0,0,3.31-.49l.82-.17c.29,0,.63,0,.94,0l1.91.1c1.25.05,2.6.2,3.9.29a9,9,0,0,0,1.94,0l1.57-.15c.89-.13,1.48-.23,1.5-.35s-2.14-.36-4.68-.29a75.69,75.69,0,0,0-7.78-.43l-1.64.34a7.75,7.75,0,0,1-1.67.26l-1.73.06a7.11,7.11,0,0,1-1.77-.06l-1.86-.26-.93-.14c-.29,0-.52,0-.79.07-1,.13-2.09.2-3,.37s-1.93.3-2.79.49l-1.34.27-.33.06c-.12,0-.26,0-.39,0l-.78-.05a81.33,81.33,0,0,0-19.85,3.65l-.67.09a1.37,1.37,0,0,0-.61.15l-1,.52c-.66.35-1.37.69-2.09,1-1.43.67-2.88,1.37-4.34,2.13-2.93,1.5-5.93,3.15-8.86,5a48.15,48.15,0,0,0-4.23,3c-.68.53-1.3,1.1-2,1.65s-1.5,1-2.24,1.51c-.58.61-1.18,1.2-1.75,1.82a13.6,13.6,0,0,1-1.82,1.82l-.51.43-.26.22-.19.25-.76,1a11.81,11.81,0,0,1-.92,1l-.47.47-.34.55a7.33,7.33,0,0,1-.72,1.09l-.86,1-.58,1.19c-.22.39-.51.75-.77,1.13a1.88,1.88,0,0,0-.3.6l-.24.63a7.57,7.57,0,0,1-.64,1.23c-.23.39-.44.82-.66,1.23a1.87,1.87,0,0,0-.2.67l-.15.69c-.13.44-.35.86-.49,1.31a12.23,12.23,0,0,1-.21,1.39,24.49,24.49,0,0,0-.67,2.65c.12,1.89-.42,3.47.07,5.15a26.72,26.72,0,0,0,2,8.22,3.13,3.13,0,0,0,.37.88c.18.3.41.61.54.89.23.55.46,1.09.7,1.62s.91,1.11,1.06,1.59.53,1,.8,1.49a5.76,5.76,0,0,0,1,1.45,6.4,6.4,0,0,1,1.06,1.41,9.17,9.17,0,0,0,.69.71l.36.35.23.34.94,1.31c.28.43,1,.9,1.38,1.33a5.44,5.44,0,0,0,1.21,1.28l.4.32a1.52,1.52,0,0,1,.34.32l.51.62.53.62.26.31a1.23,1.23,0,0,0,.33.3,8.82,8.82,0,0,1,1.5,1.24,5.68,5.68,0,0,0,.6.61l.86.61,1.76,1.21.6.6.31.29c.13.1.3.2.45.3l.93.59c.27.2.43.4.66.6a8.14,8.14,0,0,0,1.71,1.17l2,1.16a9.43,9.43,0,0,1,1.85,1.16,5.9,5.9,0,0,0,.78.59l1.05.48a7.93,7.93,0,0,0,1.41.51c.2,0,.07-.13-.27-.37-.18-.11-.4-.26-.68-.41l-.44-.25A2.25,2.25,0,0,1,161.69,316.12Z"/><path class="cls-1" d="M189.25,73.29c-.26,1.26-.05,1.27.51.06.23-.52.51-1.26.77-2s.55-1.52.71-2.13c.26-1,0-1.09-.5-.08a18.73,18.73,0,0,0-.91,2.12A19,19,0,0,0,189.25,73.29Z"/><path class="cls-1" d="M202.42,86.69a50.34,50.34,0,0,0,2,16.4,14.94,14.94,0,0,1,.49,2.75c.26-.4.83.67,1.51,2.73a118.19,118.19,0,0,0,6.4,15.28c2.54,5.09,5.5,10.18,8.62,15.33.77,1.29,1.58,2.58,2.39,3.87s1.62,2.59,2.46,3.9l2.53,3.93,2.53,3.87c3.21,4.81,7,10.06,10.74,15.39s7.56,10.84,11.28,16.54,7.38,11.62,10.87,17.91a140.86,140.86,0,0,1,9.57,20.76,74.61,74.61,0,0,1,3.39,13.15,51.85,51.85,0,0,1,.62,8.21,40.65,40.65,0,0,1-1.26,9.93,7.48,7.48,0,0,1-.07,1.94c-.06.44-.13.93-.26,1.49s-.32,1.22-.54,1.93a28.08,28.08,0,0,1-1.45,3.72,32,32,0,0,1-2.51,4.32,34.41,34.41,0,0,1-8.35,8.44c-.83.57-1.69,1.13-2.57,1.68s-1.74,1-2.65,1.43l-.34.17-.22.1-.45.21-.9.4-1.84.79c-1.26.51-2.61,1-4,1.41s-2.83.79-4.19,1.12l-1.56.27c-.47.08-1.18.21-1.31.21-.51,0-1,.1-1.53.1a32.81,32.81,0,0,1-9.41-.86c-3.15-.68-6.3-1.57-9.55-2.16a34.22,34.22,0,0,0-10-.49,36.31,36.31,0,0,0-9.76,2.67l-2.64,2.68a20.59,20.59,0,0,0-2.78,3.49,7.17,7.17,0,0,0-.31,4.1,9.84,9.84,0,0,0,2.06,4,27,27,0,0,0,7.14,5.71A71.75,71.75,0,0,0,222.36,312c-.26-.19-.2-.3.24-.29a46,46,0,0,1,6.16,1.32l3.52.84a58.92,58.92,0,0,1-8.95-2.82,9.76,9.76,0,0,1-1-.47,36.6,36.6,0,0,1-9.54-5.48,9.62,9.62,0,0,1-3.52-5.1,5,5,0,0,1,.36-3,7.85,7.85,0,0,1,1.72-2.41,20.61,20.61,0,0,1,4.77-3.37,20.14,20.14,0,0,1,5.42-2.06c3.82-.87,7.71-.28,11.62.29a40,40,0,0,0,6.05.47,24,24,0,0,0,3.14-.3c.53-.1,1.06-.21,1.58-.35l3.24-.81a68.07,68.07,0,0,0,10.43-3.75l1.23-.56c.58-.28,1.28-.64,1.91-1a42.94,42.94,0,0,0,3.9-2.35,40.68,40.68,0,0,0,7.49-6.6A40,40,0,0,0,281,257a46.63,46.63,0,0,0,1.12-7.88,52.82,52.82,0,0,0-.12-6.73,64.4,64.4,0,0,0-1.93-11,88,88,0,0,0-2.91-9,138,138,0,0,0-7-15.05,270.83,270.83,0,0,0-15.68-25.23c-5.38-7.82-10.94-15.29-16.12-22.4a14.38,14.38,0,0,1-2-3.33c-.18-.65.12-.7.88.29,3.36,4.24,7,8.62,10.51,13s7.16,8.89,10.7,13.52,7.06,9.39,10.5,14.47a158.84,158.84,0,0,1,10,16.68,101.21,101.21,0,0,1,4.58,10.17,75.33,75.33,0,0,1,3.71,12.9,60.3,60.3,0,0,1,1,8.39,51.25,51.25,0,0,1-.65,10.45,46.48,46.48,0,0,1-4,12.6,45.49,45.49,0,0,1-8.72,12.26,48,48,0,0,1-11.3,8.37l-1.44.75-.95.46-1.72.81-1.73.79-1.82.74c-1.23.48-2.43,1-3.73,1.36l-1.93.61c-.61.19-1.39.43-1.71.51l-2.39.67-.68.29a14.31,14.31,0,0,1-5.27.89,26.55,26.55,0,0,0-5.38.24,8,8,0,0,0-4.24,2.33,9.88,9.88,0,0,0-1.49,1.87,4.61,4.61,0,0,0-.72,2.4A4.19,4.19,0,0,0,229.5,307a11.72,11.72,0,0,0,2.62,2,28.54,28.54,0,0,0,5.53,2.39,37.51,37.51,0,0,0,5,1.24c1.53.26,2.9.55,4.12.88.6.16,1.17.33,1.7.5l.38.13.2.07,1.09.63,1.13.65,1.41.86c.95.55,1.89,1.15,2.82,1.74a120.84,120.84,0,0,1,22,17.88,65.86,65.86,0,0,1,4.92,5.82l.59.79.34.47.37.53c.49.72.95,1.43,1.48,2.24a39,39,0,0,1,2.65,4.92c3.14,6.67,4,13.93,1.78,20.39a21.76,21.76,0,0,1-5.47,8.49,25.64,25.64,0,0,1-4,3.12,26.86,26.86,0,0,1-4.67,2.26,31.12,31.12,0,0,1-5.16,1.41c-1.78.32-3.61.54-5.45.71-.93,0-1.87.05-2.8,0s-1.77,0-2.66,0c-1.47-.08-2.72-.19-3.65-.27-4-.36-8-.63-12.05-.95l-12-1c-32-2.58-64.11-5.12-97.55-5.71-11.29-.26-22.47-.17-33.51.11-5.54.14-11,.44-16.48.72s-10.87.77-16.25,1.21c-1.34.12-2.69.22-4,.36l-2,.2-.41.07-1.27.22-2.54.42-5,.81c-3.35.49-6.68,1-10,1.66l-4.94.88-5,.93c-4.9,1.5-9.34-.31-10-4.36a7.85,7.85,0,0,1,2.71-6.9l-1.22.13-1.94-.2a6.61,6.61,0,0,1-4.44-2.35l-1.4-1.58c-1.88-3.08-4.93-5.58-6.61-9.09l.28-1.41-.38-.37a6.33,6.33,0,0,1-2.44-3.56l0-1.7a14.37,14.37,0,0,1,1.56-5.56,4.89,4.89,0,0,1,.25-2.08,7,7,0,0,1-.83-5.5,1,1,0,0,1,.1-1.65,1.64,1.64,0,0,1,.72-.26h0a10.17,10.17,0,0,0-.8-1.06c-.52-.15-.82-.26-.82-.26-1.38-.31-1.38-.31-2.58-.61a7,7,0,0,1-1.74-1.47c-1.32-3.12-1.33-3.13-1.24-4.45a2.71,2.71,0,0,1,.21-.37c-.95-.49-1-.53-1.28-.68a3.09,3.09,0,0,1-.47-.54c-.09-.72-.09-.72-.27-1a3.61,3.61,0,0,1-.07-.55c.47-.77.47-.77.47-1A1.72,1.72,0,0,1,.74,328l.93-.32,1.42,1.94.24-.62.35.86-.21-.78.68.51-.79-.73a7.36,7.36,0,0,0,2.2.38,2.8,2.8,0,0,0,1.26,0,2.47,2.47,0,0,1-.07-.41c1.67.39,1.67.39,3.31.8a5.93,5.93,0,0,1,.4.51.75.75,0,0,1,.77-.23l.85.18.18-.1v-.06l.7-.31.15-.08h0c1-.44,2-.9,3.06-1.31a11.1,11.1,0,0,1,1.41.47l-.41-.36c-.27-.26-.05-.88-.19-1-3.58-1.66-7.52-2.44-11.43-3.53a1.47,1.47,0,0,1-1.49-1c-.12-.57.35-1,1.06-1a23.91,23.91,0,0,1,6.12-1.39,27.4,27.4,0,0,1,6.52.1,48.85,48.85,0,0,1,12.73,3.58c2.09.5,4.15,1.11,6.23,1.61l-.3-.34L38,326l.17,0L37,324.84l-.84-.43a59.48,59.48,0,0,1-7-2.26c-2.32-.87-4.63-1.89-7-2.75-2.58-.93-4.8-2.35-7.29-3.5-.64-.14-1.09-.61-1-1.09s.65-.71,1.27-.57a57.58,57.58,0,0,1,12.63,2,33.44,33.44,0,0,1,11.18,5.14,9.53,9.53,0,0,1,4,1.52l.07,0-.88-1c1.08.37,1.64,1.17,2.62,1.6l-.33-1.22c1.33.38,2.68.69,4,1l4.06,1a37.48,37.48,0,0,1,7.71,2.54,5.27,5.27,0,0,1,.56.19,30.78,30.78,0,0,1,3.26-.54l.84-.06a1.17,1.17,0,0,1,.27,0l1.34.2,2.7.41c3.62.54,7.35,1.13,11.22,1.78l-7.78-1.53-3.89-.76L65,325.7l8.2,1.17,8.49,1.29c5.66,1,11.41,2,17.35,3.17,8,1.72,16.25,3.29,24.28,5.21s15.94,3.63,23.35,5.44c14.81,3.54,27.64,6.91,35.85,9.28,15.22,2.94,30.44,5.7,45.63,8.38,7.6,1.24,15.21,2.54,22.8,3.68l5.7.88,2.84.41,1.15.14a1.65,1.65,0,0,0,.4,0l.31,0a8.16,8.16,0,0,0,4.06-.64,3.59,3.59,0,0,0,1.52-1.34,3.55,3.55,0,0,0,.48-2,7.61,7.61,0,0,0-1.45-3.77,5.67,5.67,0,0,0-.35-.46,7.12,7.12,0,0,0-.52-.65c-.48-.57-1-1.14-1.54-1.7A44.39,44.39,0,0,0,260,351a63.45,63.45,0,0,0-8.31-5.77,84.07,84.07,0,0,0-9.33-4.73,52,52,0,0,0-5.33-2.08l-4.29-1.48c-.4-.13-.77-.29-1.19-.4l-1.35-.28-2.69-.55c-.9-.16-1.8-.39-2.71-.64l-2.71-.71-1.36-.35-1.62-.25-3.27-.48-7-1c-2.4-.29-4.77-.75-7.15-1.2l-3.56-.66-3.14-.86c-2.09-.58-4.24-1.14-6.09-1.75l-2.89-.91-1.45-.45-1.33-.45-5.22-1.79c-1.18-.49-2.3-1-3.32-1.43l-1.46-.66-1.14-.55a9.39,9.39,0,0,1-2.33-1.38c.07-.12.93.1,2.29.56.68.23,1.49.53,2.38.87s2,.8,3.19,1.26l1.52.62c.52.2,1,.41,1.64.62l3.72,1.24,1.86.62,2,.62,4.06,1.25c1.4.41,2.92.8,4.36,1.19a42.16,42.16,0,0,0,4.58,1.11l5,.92c1.65.33,3.32.5,5,.76l9.39,1.39a12.44,12.44,0,0,1,2,.44l1.9.5c1.26.33,2.53.68,3.78.91l3.75.79,3.29,1.14,2.58.9c.72.25,1.53.51,2.06.75a89.69,89.69,0,0,1,13.61,6.83A53.21,53.21,0,0,1,265,354.58c.38.41.77.87,1.08,1.24s.47.59.61.8a11.61,11.61,0,0,1,.89,1.48,7.16,7.16,0,0,1,.88,3.33,3.91,3.91,0,0,1-1.51,3,6.63,6.63,0,0,1-3.25,1.23,12.94,12.94,0,0,1-1.77.11c-.27,0-.62,0-1-.05a5.06,5.06,0,0,1-.73-.07l-.85-.1c-2.77-.37-5.53-.79-8.3-1.2-5.52-.8-11.06-1.68-16.59-2.55,4.62.77,9.24,1.6,13.86,2.31l6.94,1.11,3.48.54c1.13.17,2.11.28,2.6.31a12.57,12.57,0,0,0,3.19-.13,6.57,6.57,0,0,0,2.93-1.2,4.14,4.14,0,0,0,1.59-2.69,6.72,6.72,0,0,0-.4-3.17,13.08,13.08,0,0,0-1.5-2.87l-.6-.81c-.32-.37-.61-.75-.95-1.11-.65-.74-1.33-1.47-2.06-2.19a59.07,59.07,0,0,0-10-7.79A90.63,90.63,0,0,0,241.92,338l-1.53-.68c-.53-.22-1.21-.46-1.81-.69l-4.8-1.76c-.22-.08-.43-.17-.67-.24l-.76-.17-1.5-.36c-1-.24-2-.44-3-.73l-3-.85-1.53-.43-1.8-.31-3.67-.62-4-.64c-1.34-.22-2.68-.4-4-.66l-4-.8-2-.4c-.66-.14-1.21-.32-1.82-.48l-3.57-1c-1.23-.33-2.29-.68-3.41-1l-3.32-1c-2.1-.68-4-1.36-6-2l-4.91-2-4.36-1.84-3.52-1.68-2.24-1-1.1-.5c-.3-.18-.54-.35-.81-.52a13.21,13.21,0,0,0-1.94-1l-2.07-1a13.81,13.81,0,0,1-1.85-1.06l-.74-.54-1-.53-.48-.27a2.75,2.75,0,0,1-.37-.28l-.71-.54c-.56-.36-1.24-.73-1.83-1.1a11.61,11.61,0,0,1-1.66-1.12,7.14,7.14,0,0,0-.7-.56l-.89-.58c-1.12-.77-1.65-1.51-2.76-2.32l-.85-.6-.61-.6L150,303l-.4-.31-.82-.62c-.39-.42-.79-.82-1.17-1.24-.2-.22-.36-.42-.59-.64l-.77-.66c-.54-.45-.73-.87-1.23-1.33l-.74-.69c-.23-.24-.36-.46-.55-.69-.35-.46-.69-.93-1-1.41l-.5-.72c-.19-.25-.44-.51-.66-.77-.83-1-1.13-2-2.1-3.19-.27-.56-.54-1.13-.79-1.71a11.09,11.09,0,0,1-.91-1.87,18.5,18.5,0,0,1-.58-1.95,13.12,13.12,0,0,1-.62-2.14c-.07-.36-.1-.74-.14-1.11s-.18-.8-.25-1.2a21.64,21.64,0,0,1,0-2.42c-.28-1.77.56-3.33.73-5.12a6.8,6.8,0,0,1,.42-1.25c.13-.42.21-.86.32-1.29.39-.79.82-1.55,1.26-2.31l.5-1.17c.23-.37.49-.71.74-1.06a10,10,0,0,1,1.38-2.1c.62-.62.94-1.35,1.49-2a15.21,15.21,0,0,0,1.71-1.81,9.81,9.81,0,0,1,1.81-1.7c.63-.55,1.14-1.14,1.73-1.7l.87-.82.44-.42c.16-.12.35-.23.53-.35a18.5,18.5,0,0,0,2.08-1.43,54.77,54.77,0,0,1,8.21-5.47c2.87-1.59,5.77-3,8.61-4.23,1.41-.64,2.86-1.18,4.19-1.79l1-.44a7.78,7.78,0,0,1,1.25-.2l1.28-.16a4.51,4.51,0,0,0,1-.39l1-.43c.13-.1.39-.06.6-.09l.64,0,1.3-.09a5.41,5.41,0,0,0,1-.34c1-.86,3.56,0,4.7-.76.36-.1.7-.23,1.08-.32l1.38,0a12.52,12.52,0,0,0,1.37,0l1.16-.28.58-.13a1.36,1.36,0,0,1,.63-.08l1.48.09.74,0,.37,0,.32-.06,1.29-.22c1.73-.3,3.59-.56,5.58-.75a5.9,5.9,0,0,1,.75-.05l.88.1,1.76.22a7.92,7.92,0,0,0,1.68,0l1.64-.07a26.94,26.94,0,0,0,2.71-.49l.68-.14.77,0,1.56.05c1,0,2.09.09,3.16.15l1.59.09,1.54-.09c2-.17,4.15-.12,6.22-.23l3-.32a.74.74,0,0,0,.51-.19l.38-.24.75-.49a7.37,7.37,0,0,1,.91-.55,4.37,4.37,0,0,0,.6-.32,6.47,6.47,0,0,1,.63-.34q.33-.22.66-.42l.17-.09.08-.05h0c-.92-2,8.11,17.37,4.29,9.19l.07.15a10.82,10.82,0,0,0,.59,1.18c.26.43.35.65.55,1s.43.62.53.79a6.75,6.75,0,0,0,.48.61,3.31,3.31,0,0,0,.31.36l.21.21.09.08h0l-.07-.05-.25-.15a8.88,8.88,0,0,0-1.19-.58l-.88-.32c-.36-.13-.64-.19-1.06-.32a12.25,12.25,0,0,0-1.3-.31c-.42-.08-1-.23-1.51-.29l-1.68-.23c-.62-.09-1.2-.12-1.84-.16-1.43-.15-2.67-.12-4.31-.16h-1.52a.25.25,0,0,1,0-.07,2.13,2.13,0,0,1-.07-.31,28.55,28.55,0,0,0-.81-3c-.42-1.33-1-2.88-1.65-4.55-1.34-3.33-3.12-7-5.11-10.85s-4.22-7.78-6.59-11.82-4.9-8.18-7.55-12.43L197,188.92c-2-3.31-4.08-6.64-6.26-10.45l-.83-1.46-.69-1.27-1.38-2.53-2.76-5.14q-2.78-5.2-5.41-10.7c-.89-1.82-1.74-3.73-2.6-5.59s-1.65-3.85-2.47-5.77a156.66,156.66,0,0,1-8.06-25.21A108.38,108.38,0,0,1,164.14,92c.23-2.52.48-5,.8-7.54s.89-5,1.42-7.52a90,90,0,0,1,4.71-14.41,99.37,99.37,0,0,1,15-24.19,113.83,113.83,0,0,1,9.25-9.82,119.11,119.11,0,0,1,10-8.47,157.67,157.67,0,0,1,21-13.33C233.85,2.57,241-.08,242.22,0S238.38,3,231,7c-3.6,2-7.2,4.1-10.77,6.4s-7.14,4.75-10.61,7.44c-1.74,1.34-3.46,2.74-5.17,4.18s-3.42,3-5.05,4.56A119.45,119.45,0,0,0,190,39.74a96.16,96.16,0,0,0-15,25.11,83.28,83.28,0,0,0-4.35,14.9c-.43,2.56-1,5.13-1.16,7.7l-.35,3.86c-.12,1.3-.07,2.55-.11,3.84a107.58,107.58,0,0,0,3.79,29.1A166.76,166.76,0,0,0,182,149.5c3.55,7.82,7.4,15.16,11.22,22.15l1.43,2.62,1.65,2.91c1.09,1.88,2.15,3.65,3.2,5.39,2.1,3.47,4.16,6.78,6.19,10.05,4,6.53,8,12.87,11.61,19.17s7,12.51,9.73,18.42a85.09,85.09,0,0,1,3.39,8.41A30.81,30.81,0,0,1,232,244.7l.06.6v0h0l.18,0,.41,0c.57.06,1,.06,1.46.11s.94.1,1.41.18a20.22,20.22,0,0,1,6.7,1.82c1,.57.55.55-.39-.73l-.35-.5c-.16-.23-.3-.45-.43-.68-.21-.39-.64-1.07-.9-1.66l-2.52-5.41-.16.08-.33.16-.65.35c-.42.2-.84.38-1.25.59l-.61.24-.3.13-.08,0-.15.08-.3.17-1.19.66-.3.16a2.23,2.23,0,0,1-.5.07l-1.08.12c-.73.06-1.44.16-2.17.21l-2.22,0c-1.49,0-2.91.13-4.37.19s-3-.17-4.46-.22l-2.18-.08a17.28,17.28,0,0,0-1.95.27,20.56,20.56,0,0,1-3.94.23c-.68,0-1.4-.16-2.1-.24l-1.06-.14a4.88,4.88,0,0,0-.94,0l-1.81.12-1.72.15c-1.17.1-2.21.24-3.3.36-.58,0-1.22-.08-1.82-.12l-.92-.07a3.13,3.13,0,0,0-.77.09l-1.49.24c-.54,0-1.15,0-1.72-.06l-.87-.05a3.18,3.18,0,0,0-.73.12l-1.39.31c-.5.06-1.11,0-1.66,0l-.84,0a2.12,2.12,0,0,0-.7.15l-1.33.37a13.64,13.64,0,0,1-1.61.1,7.08,7.08,0,0,0-2.84.64c-.92.26-2.23.17-3.15.46-1.77.67-3.66,1.27-5.55,2a78.12,78.12,0,0,0-11.42,5.4,48,48,0,0,0-5.36,3.57c-.82.66-2,1.14-2.74,1.84s-1.58,1.4-2.34,2.13a32.68,32.68,0,0,0-8.37,10.1c-.25.43-.51.85-.74,1.3l-.34.66-.2.72a11.91,11.91,0,0,1-.49,1.42c-.15.47-.15,1-.28,1.47a20.67,20.67,0,0,0-.57,2.86c0,.47.1,1,.08,1.46s0,.92,0,1.37a4.75,4.75,0,0,0,.24,1.36c.1.45.13.86.21,1.28l.12.62.06.3.12.31a11.22,11.22,0,0,1,.44,1.2,20.16,20.16,0,0,0,.78,2.19,5.69,5.69,0,0,0,.59,1.07c.23.36.34.66.52,1s.34.64.51,1a10.77,10.77,0,0,0,.69.95c.46.63.77,1.2,1.19,1.78s1.1,1.18,1.42,1.7.84,1.07,1.26,1.59a77.53,77.53,0,0,0,6.15,5.8.21.21,0,0,1,.24-.14,6,6,0,0,1,1.65.59,12.46,12.46,0,0,1,1.14.59c.4.23.82.49,1.41.78-.83-.5-1.14-1-1.94-1.48a8.9,8.9,0,0,1-1-.77l-.85-.76-.84-.78-1-.82c-.33-.28-.55-.55-.84-.82s-.64-.57-.95-.86c-1.23-1.15-2-2.28-3.21-3.58a7.32,7.32,0,0,1-.79-1c-.23-.32-.45-.66-.68-1s-.54-.7-.81-1.05-.43-.72-.66-1.07-.38-.74-.6-1.12a7.7,7.7,0,0,1-.7-1.19,24.81,24.81,0,0,1-.94-2.47c-.13-.44-.4-.91-.52-1.37s-.2-.91-.27-1.39-.22-1-.34-1.5-.06-1,0-1.52a14.9,14.9,0,0,0-.08-1.6c.07-.53.13-1.06.25-1.59s.25-1.06.37-1.59a5.85,5.85,0,0,1,.4-1.61,15.18,15.18,0,0,0,.52-1.57,13.63,13.63,0,0,1,.78-1.46,24.2,24.2,0,0,1,1.69-2.78c.47-.59.71-1.27,1.22-1.83l.74-.84.64-.85.32-.43.41-.38.8-.77.71-.79a4.57,4.57,0,0,1,.77-.75c1.2-.9,2.14-1.91,3.22-2.82l.8-.7.94-.6.95-.59.85-.64a52.15,52.15,0,0,1,7.3-4.59,79.78,79.78,0,0,1,7.68-3.54c1.27-.49,2.55-1,3.81-1.41l1.87-.66.91-.32.23-.09.28,0,.55-.06,1.11-.12.56-.05L181,245l.89-.3.44-.15.23-.07.28,0,2.22-.09,1.83-.5c.68-.08,1.5,0,2.24,0a2.94,2.94,0,0,0,1-.13l.95-.2.48-.1c.19,0,.39,0,.59,0l1.18.06a7.42,7.42,0,0,0,2.16-.18c1.22-.42,3.37.36,4.68-.06.74-.08,1.49-.17,2.29-.23s1.55-.16,2.4-.2l1.25-.08c.21,0,.4,0,.64,0l.72.09L209,243l.73.1c.24,0,.46,0,.69,0,.91,0,1.85,0,2.74-.1s1.74-.33,2.68-.39l3,.1,3.11.16c1,0,2-.1,3-.14s2.05-.07,3.08-.1,2-.16,3-.25l.75-.08.38,0a.58.58,0,0,0,.31-.08l.85-.45.86-.46.21-.11.11-.05.23-.1c.31-.13.62-.22.93-.37s.63-.29,1-.42l1-.5.24-.11.13-.06c-1.65-3.55,2.26,4.82,1.86,4l0,0,0,.08.07.16a13.36,13.36,0,0,0,.68,1.29,15.35,15.35,0,0,0,1.12,1.76,12.19,12.19,0,0,0,.86,1,10.16,10.16,0,0,0-2.66-1.19,30.34,30.34,0,0,0-6.68-1.18,6.47,6.47,0,0,0,0-.72,23,23,0,0,0-.69-4.27c-.43-1.81-1-3.86-1.79-6a179.4,179.4,0,0,0-8.05-18.76c-3.12-6.37-6.46-12.77-9.9-19.19s-7-12.87-10.56-19.81c-.9-1.73-1.82-3.55-2.72-5.41l-2.41-5.12-2.41-5.22q-1.17-2.66-2.36-5.32c-1.1-2.23-2.22-4.42-3.28-6.73l-1.59-3.43-1.52-3.51c-1-2.32-1.94-4.79-2.9-7.18L181.88,131l-.66-1.86-.59-1.91a115.76,115.76,0,0,1-3.89-15.85c-.21-1.38-.39-2.78-.58-4.17l-.27-2.09c-.07-.7-.11-1.42-.16-2.13l-.28-4.26V94.43a79.25,79.25,0,0,1,8.06-33.73,94.74,94.74,0,0,1,8.7-14.33,111.73,111.73,0,0,1,10.63-12.31,18.59,18.59,0,0,1,3.1-2.68c.57-.3,0,.42-1.2,1.64a108,108,0,0,0-7.36,8.26,93.77,93.77,0,0,0-6.63,9.18,87,87,0,0,0-9.92,21.33,75.37,75.37,0,0,0-2.55,11.93,58.62,58.62,0,0,0-.59,6.06c-.05,1-.16,2-.15,3l0,3a98.12,98.12,0,0,0,3.37,23.26,25.24,25.24,0,0,1,0-5.77c.18-1.34.5-2,1-1.93,1.06.17,2.42,3.68,4.44,8.77a94.8,94.8,0,0,1-3.19-19.9,28.49,28.49,0,0,1,.16-5.35c.16-1.35.37-2.14.6-2.08s.46.91.61,2.24.19,3.15.36,5.11a95.92,95.92,0,0,0,3.33,19.89,153.32,153.32,0,0,0,6.53,18.54c2.51,6,5.31,11.74,8.21,17.37,1.45,2.81,2.93,5.6,4.41,8.35l1.11,2.07,1.19,2.14q1.2,2.13,2.4,4.17c4,6.47,8,12.65,11.95,18.89s7.7,12.46,11.23,18.74a168.31,168.31,0,0,1,9.33,19.06,68.25,68.25,0,0,1,3.08,9.48,26.25,26.25,0,0,1,.82,8.45c1.1-2.56,1.63-5.43,2.48-6.83h0a64.86,64.86,0,0,0-3.59-12.27,212.3,212.3,0,0,0-14.67-27.08c-5.49-8.89-11.35-17.62-17.16-26.65-1.45-2.27-2.9-4.55-4.33-6.92s-2.73-4.69-4.09-7q-4-7-7.77-14.38t-6.86-15.2a131.07,131.07,0,0,1-5.19-16.26,93.94,93.94,0,0,1-2.41-17.34,74.51,74.51,0,0,1,1.53-17.77A70.1,70.1,0,0,1,188.85,71a75.56,75.56,0,0,1,3.47-8.17A86.88,86.88,0,0,1,201.58,48a120.59,120.59,0,0,1,24.58-23.5A286.44,286.44,0,0,1,254.1,6.76a12.41,12.41,0,0,1,2.84-1.4A9,9,0,0,1,254.61,7c-11.37,6.59-22.8,13.48-33.35,22s-20.11,18.79-26.8,31.17l.06-.09c.65-.94.94-1,.47.13a41.17,41.17,0,0,1-2,3.9c-.69,1.11-.84.92-.48-.08a70.52,70.52,0,0,0-3.64,9.21,61.07,61.07,0,0,0-2.31,9.72A71.45,71.45,0,0,0,186,102.7c1.42,13,5.67,25.26,10.9,36.52,2.61,5.65,5.46,11.11,8.42,16.44,1.49,2.66,3,5.31,4.51,7.91.74,1.29,1.53,2.65,2.34,4l2.43,3.9c6.51,10.23,13.17,20,19.34,30-5.47-9.46-11.38-18.71-17.21-28.21-1.45-2.38-2.9-4.78-4.31-7.25s-2.72-4.88-4.06-7.35q-4-7.33-7.68-15a168.68,168.68,0,0,1-6.59-15.7c-1-2.67-1.83-5.43-2.67-8.18s-1.5-5.56-2-8.43A79.45,79.45,0,0,1,187.83,94c0-1.46.13-2.93.23-4.39l.18-2.19c0-.73.21-1.46.31-2.18.25-1.45.43-2.91.74-4.34s.64-2.87,1.07-4.27a70.53,70.53,0,0,1,4.94-14.55,14.88,14.88,0,0,1,2.06-3.22c.33-.25,0,.71-.66,2-.31.64-.63,1.27-.93,1.92l-.84,1.95a46.08,46.08,0,0,1,5.87-9.27c1.76-2.12,3.09-3.17,3.42-2.84.56,1-3.14,7.22-6.6,15.17a72.73,72.73,0,0,0-2.9,8.21c-.35,1.41-.77,2.79-1,4.22-.14.71-.3,1.42-.42,2.13L193,84.5a66.28,66.28,0,0,0-.18,17.29,96.69,96.69,0,0,0,3.6,16.92,143.81,143.81,0,0,0,6.17,16.19l1.64,3.37,1.73,3.34c1.27,2.19,2.6,4.31,3.93,6.45a194.3,194.3,0,0,1-10.63-24.59,95.28,95.28,0,0,1-5.19-25.87A65.06,65.06,0,0,1,198.18,72a81.45,81.45,0,0,1,13.24-22.42c1.87-2.35,3.77-4.09,4.05-3.92s-1.12,2.15-2.95,4.49c-9.14,12.13-15.3,26.47-15.14,41.13l0,1.37.07,1.37.15,2.75c.12,1.82.43,3.65.62,5.47.37,1.82.66,3.64,1.08,5.45l.69,2.71.34,1.35.41,1.34a133.43,133.43,0,0,0,8.5,21.07c3.41,6.89,7.26,13.65,11.29,20.44,2.05,3.46,4,6.63,6.12,9.93l6.53,10C237.56,181.17,242,188,246.21,195a231,231,0,0,1,11.91,22,98.39,98.39,0,0,1,7.42,16,52.5,52.5,0,0,1,2.42,9.7,38.14,38.14,0,0,1,.38,5.7,31.07,31.07,0,0,1-.78,6.48,25.87,25.87,0,0,1-2.7,6.94,25.25,25.25,0,0,1-4.85,6.22,29.15,29.15,0,0,1-6,4.37c-.58.34-.87.48-1.28.69l-1.15.59c-.76.4-1.54.78-2.35,1.12s-1.61.71-2.44,1l-2.52.91-3.71,1.19a29.93,29.93,0,0,1-5.32,1.17,27.5,27.5,0,0,0,5.65-.38c.57-.07,1.89-.38,3-.62l.45-.11.53-.14,1.07-.3c.71-.21,1.43-.39,2.12-.64,1.37-.48,2.77-.94,4.07-1.51l2-.85.25-.1.34-.17.68-.34,1.36-.72a29.5,29.5,0,0,0,9.87-9.08,30.26,30.26,0,0,0,4.67-11.84,39.07,39.07,0,0,0,.33-10.18,54.33,54.33,0,0,0-1.46-8.39,87.93,87.93,0,0,0-4.9-13.9,181.59,181.59,0,0,0-12.56-23c-4.49-7.11-9.14-13.85-13.81-20.44l-7-9.75c-2.28-3.21-4.53-6.41-6.55-9.49-4.31-6.65-8.47-13.25-12.24-20a138.77,138.77,0,0,1-9.69-20.91A76,76,0,0,1,199,93.8a10.11,10.11,0,0,1,0-1.08c0-.33.06-.64.1-.9a2.38,2.38,0,0,1,.29-1c.22-.15.33.88.34,2.4a73.26,73.26,0,0,0,4.27,21.42,124.91,124.91,0,0,0,9.24,20.14c3.63,6.56,7.69,13,11.93,19.58l1.58,2.43,1.55,2.31,3.31,4.76,7,9.88c7.85,11.18,15.53,22.4,22.36,34.64,1.7,3.07,3.34,6.22,4.89,9.51a101.32,101.32,0,0,1,4.31,10.43c.65,1.86,1.25,3.78,1.78,5.83a55.23,55.23,0,0,1,1.31,6.52,44,44,0,0,1,.43,7.55,36.4,36.4,0,0,1-1.41,8.94,36.59,36.59,0,0,0,1.65-9.08,44.41,44.41,0,0,0-.25-7.69,58.35,58.35,0,0,0-1.17-6.63c-.48-2.08-1-4-1.64-5.91a99.52,99.52,0,0,0-4.06-10.53c-1.47-3.31-3-6.45-4.63-9.5-6.48-12.13-13.72-22.94-20.93-33.43-3.58-5.22-7.22-10.37-10.55-15.32-.83-1.24-1.64-2.46-2.4-3.65l-2.46-3.92c-1.62-2.61-3.24-5.22-4.78-7.82-6.16-10.4-11.75-20.88-15.1-31.73-.16-.47-.33-.94-.46-1.41s-.22-.92-.31-1.36a18.91,18.91,0,0,1-.33-2.3,2.15,2.15,0,0,1-.53-1,54.8,54.8,0,0,1-2.66-17.45,10.27,10.27,0,0,1,.55-3.19C202.33,84.66,202.44,85.4,202.42,86.69ZM29.14,336.59l-.21-.23.73.42,1,1.54Zm-12.75,5.22h0l-.62-.9Zm249,24.51a12.28,12.28,0,0,1-2.41.34h-1.22c-.19,0-.44,0-.66-.05l-.35,0c-.1,0-.33,0-.48,0l-1.06-.13-1.24-.18-2.49-.37-5-.77c-6.61-1-13.22-2.12-19.81-3.22s-13.16-2.37-19.73-3.59-13.13-2.5-19.69-3.87c6.43,1.19,12.83,2.29,19.26,3.4l14.92,2.8c5,.92,10,1.74,15,2.61s10,1.65,15,2.48c2.38.38,5.51.88,6.33.88A13.24,13.24,0,0,0,265.39,366.32Zm-245-36.1a17.74,17.74,0,0,1,3,3.06,8.29,8.29,0,0,1,2.39,0c2.19.26,4.33.58,6.42,1-.27-.55.23-.44.49-.48l.79-.06C31.26,333.1,29,332.6,26.7,332A61.47,61.47,0,0,1,20.38,330.22ZM4.59,331.56l-.21-.22.38-.87ZM4,333l.33.14C4.24,333.51,4.13,333.38,4,333Zm3,1.23a2.23,2.23,0,0,0-.45-.49ZM10.26,360l.9-4.45-1,4.28Z"/></symbol><symbol id="NA" data-name="NA" viewBox="0 0 438.27 575.87"><path d="M10.2,57.75c.28,0,.57,0,.84.07a1.83,1.83,0,0,1-1.23,1.1,13.5,13.5,0,0,0,5.39-1.43,15.51,15.51,0,0,0,2.3-1.43c.72-.56,1.41-1.15,2.07-1.75a23,23,0,0,0,5.72-9,3.47,3.47,0,0,0,1.79-4.45c-.78-1.52-2.87-2-4.69-1a5.5,5.5,0,0,1-1.46.18,31.12,31.12,0,0,0-12.31.9l2.88,0A10.27,10.27,0,0,0,8,42.15l.93.51C4.24,43.11.16,47,0,51.17s3.59,7.16,8.14,6.72Z"/><path d="M22,61.62c-2.46.4-4.92.69-7.43,1l-.71-.22,1.76,2-.07-.16c.24-3,2.38-5.67,4.53-8l.69-.91a2.11,2.11,0,0,0,0-1.69,2.51,2.51,0,0,0-3.4-1c-.52.23-1,.52-1.51.78-4.24,1.16-9.63,4.95-8.58,9.81.26,1.12,1.47,1.89,2.33,2.78a3.58,3.58,0,0,0,4.87.71,3.39,3.39,0,0,0,1.25-4.64l1-.31-.26,1c-.49-1.55.78-2.91,1.39-4.36l1.41-1.55-3.4-2.62-.55,1.07c.17.09.45.21.45.23a37.23,37.23,0,0,1-3.21,6l-1.31,2.83a1.83,1.83,0,0,0,1.79,2l1.55,0-.78-.09c2.86-.93,5.58-2.25,8.4-3.1a1,1,0,0,0,.73-1A.77.77,0,0,0,22,61.62Z"/><path d="M14.35,67.93a2.24,2.24,0,0,0-1.6.47l0,.42,1.17,0C14.73,68.87,14.75,68.36,14.35,67.93Z"/><path d="M12.73,68.82h-.48l.44.16,0-.07Z"/><path d="M227.36,1.11c1.57.15,3.16.24,4.72.44l4.7.59,9.39,1.19,9.32,1.52,4.65.75,4.62.92L274,8.36l9.15,2.14,4.56,1.07c1.52.37,3,.81,4.53,1.21l9,2.47c.81.21,1.52.28,1.6.13s-.51-.49-1.26-.67l-9-2.48c-1.51-.41-3-.85-4.52-1.23l-4.57-1.08-9.14-2.17L265.1,5.91,260.49,5l-4.65-.77-9.32-1.52c-3.12-.45-6.25-.81-9.38-1.21S230.87.65,227.7.42A2.78,2.78,0,0,0,226,.63C226,.83,226.57,1,227.36,1.11Z"/><path d="M396.21,70c-.55-.18-.6,0-.13.34a6.73,6.73,0,0,0,1.72.92c.46.15.53,0,.13-.33A6.61,6.61,0,0,0,396.21,70Z"/><path d="M386.47,77.55c-1.49-.64-2.93-1.29-4.36-1.83s-2.81-1-4.14-1.41a6.38,6.38,0,0,1-1.36-.67c.06.3-.59.23-1.68-.18-21.57-8-45-15.44-68.43-20.25a2.29,2.29,0,0,1-1.15.39,23.49,23.49,0,0,1-8.4-1l-2.47-.74c-2.52-.67-5.06-1.2-7.59-1.81l-3.8-.88c-1.27-.29-2.53-.59-3.81-.82l-7.63-1.48-3.82-.75L264,45.5a55.93,55.93,0,0,1-7.27-.22c-1.12,0-2.25,0-3.37,0l-3.38.08-6.74.15-13.54.68c.56.23.89.5.87.78s-.68.61-1.54.8a13.8,13.8,0,0,1-3.19.35l-3.66.08c3.5.14,7,.19,10.48.55a10.87,10.87,0,0,1,1.39.16c3.85.15,7.74.16,11.7.44,34.57,1.56,67.64,6.67,99.81,16a5.54,5.54,0,0,1,1.74.74c.25.23.13.38-.47.22-2.56-.66-5.13-1.15-7.67-1.63l-7.53-1.38c-2.5-.42-5-.72-7.5-1.08s-5-.72-7.51-1l-7.63-.8L305.13,60c-1.3-.13-2.62-.22-3.94-.34-2.65-.22-5.33-.47-8.07-.76s-5.56-.42-8.44-.7A327,327,0,0,0,204,61.14a217.34,217.34,0,0,0-40,7.93l-4.8,1.46-2.4.73-2.37.85c-3.15,1.15-6.32,2.24-9.46,3.43l-9.38,3.88c-3.11,1.35-6.18,2.87-9.31,4.29-2.13.93-4.16,2-6.19,3.1L114,90c-2,1.1-3.92,2.25-5.88,3.35L105.17,95l-1.46.82-1.41.89-1.4.89-.7.44-.25.18-.91.66-1.82,1.28c-1.2.87-2.45,1.64-3.61,2.52q-3.51,2.64-7.06,5.09c-1.21.8-2.34,1.7-3.48,2.58l-3.45,2.62a7.06,7.06,0,0,1-5.68,2A9.19,9.19,0,0,1,68,111.66a10.52,10.52,0,0,1-2.56-8.24c-.31.22-.61.43-.93.63l-1.77.58a7.3,7.3,0,0,1-5.37-.52l-2.31-1c-3.81-2.33-8.05-3.26-11.89-5.82l-.75-1.51-.56-.16a8.47,8.47,0,0,1-4.49-2.13l-1.15-1.65a19,19,0,0,1-2.54-6.21,7,7,0,0,1-1.24-2.15A9.73,9.73,0,0,1,28,78.65,1.34,1.34,0,0,1,26.94,77a1.55,1.55,0,0,1,.4-.69h0A11.59,11.59,0,0,0,26,75.76c-.53.18-.85.26-.85.26-1.33.56-1.33.56-2.51,1a7.29,7.29,0,0,1-2.41-.29c-3.19-2.1-3.2-2.09-4-3.4a4,4,0,0,1-.09-.48,14.17,14.17,0,0,1-1.48.2,3.43,3.43,0,0,1-.74-.19c-.56-.62-.56-.62-.89-.75a3.45,3.45,0,0,1-.43-.46c-.16-1-.16-1-.31-1.25a2.42,2.42,0,0,1-.05-.54l.52-.92,2.45.87-.23-.76.87.59-.71-.61.9,0-1.13-.16a6.71,6.71,0,0,0,2-1.11,2.76,2.76,0,0,0,1-.89,2.67,2.67,0,0,1-.35-.34c1.61-.75,1.61-.75,3.2-1.45a5.84,5.84,0,0,1,.67.24.8.8,0,0,1,.47-.74l.8-.39L22.7,64l0-.05L23,63.2l.07-.17h0l.5-1.11c.25-.5.59-1.19,1.09-2.18a11,11,0,0,1,1.48-.47l-.6-.09c-.4-.08-.64-.85-.81-.83a28.1,28.1,0,0,0-3,.69c-1,.3-1.94.68-2.89,1.07-1.91.78-3.8,1.66-5.72,2.51a1.4,1.4,0,0,1-1.86.09A1.17,1.17,0,0,1,11.37,61c4-8.36,13.19-13.55,22.2-15.15,2.14-.78,4.26-1.6,6.36-2.44l-.48-.17,1.81-.37.18-.07-1.87-.54-1,.11a40.26,40.26,0,0,1-7.51,2.29c-2.58.59-5.13,1.23-7.7,2-2.75.86-5.55,1-8.37,1.64a1.19,1.19,0,0,1-1.6-.38A1.12,1.12,0,0,1,14,46.45a50.3,50.3,0,0,1,11.65-7.18,29.92,29.92,0,0,1,13-2.23,7.71,7.71,0,0,1,4.45-1h.07c-.49-.18-1-.39-1.45-.56,1.19-.3,2.24.25,3.39.12L44,34.37c2.84-.89,5.59-2.14,8.36-3.21a36.84,36.84,0,0,1,4.19-1.41,22.77,22.77,0,0,1,4.34-.59c.21-.06.41-.09.62-.13A29.74,29.74,0,0,1,64,26.27c.23-.21.47-.43.71-.63.07-.05.1-.09.2-.16l.61-.34,1.24-.67c.84-.45,1.69-.89,2.57-1.32s1.79-.8,2.72-1.2c-1.31.42-2.61.83-3.87,1.33l-3.75,1.4a3.4,3.4,0,0,1,.38-.24l.48-.28,1-.55,1.93-1.09c1.28-.75,2.63-1.34,4-2,2.7-1.26,5.49-2.44,8.44-3.55,1-.37,2-.76,3-1.09l3.1-1c2.08-.61,4.18-1.2,6.27-1.74s4.16-1.11,6.24-1.47,4.12-.73,6.1-1a66.06,66.06,0,0,1,19.78-.57,364.36,364.36,0,0,1,47.12-8.23A395.74,395.74,0,0,1,219.8.09c1.63,0,3.09.4,3.38.79s-.93.67-2.56.63h-4.24l-4.25.15L203.62,2c-1.42,0-2.84.12-4.26.23l-4.26.29c-2.84.21-5.69.37-8.53.61L178,4c-2.85.3-5.7.55-8.53,1-5.67.85-11.37,1.53-17,2.69a428.11,428.11,0,0,1,57.84-2.47c2.48,0,5-.1,7.47,0s4.93.31,7.36.6C250,7.2,273.11,11.26,297.55,16.73l3.89.86,3.81,1,7.47,1.92c2.48.6,4.9,1.33,7.31,2l7.21,2.12c2.41.67,4.76,1.52,7.15,2.29l7.19,2.37c4.79,1.67,9.6,3.49,14.6,5.31a410.73,410.73,0,0,1,39.49,17.82,349.36,349.36,0,0,1,36.7,22.35c3.21,2.22,5.89,4.71,5.9,5.51s-2.59-.35-5.8-2.55A441.44,441.44,0,0,0,393.07,55a453.54,453.54,0,0,0-41.72-18.43,431.52,431.52,0,0,0-44-14.25l-5.64-1.53c-1.89-.5-3.81-.91-5.71-1.37L290.3,18l-2.88-.69-2.89-.6-11.66-2.39L261,12.25c-1.7-.34-3.42-.54-5.13-.79l-5.1-.71L245.72,10c-1.69-.22-3.39-.36-5.08-.54a.69.69,0,0,1,.14.39c0,.51-.72.92-1.82,1.21l5.75.63c1.91.26,3.82.57,5.73.86l5.74.91,2.87.46,2.86.57A273.44,273.44,0,0,1,326.17,29,337,337,0,0,1,366.5,47.44a402.2,402.2,0,0,1,48.77,24.94,4.52,4.52,0,0,1,1.41,1.08c.15.25-.25.15-.89-.22q-4.2-2.2-8.44-4.45l-4.25-2.24-4.33-2.14-8.7-4.29L381.2,56c1.63,1.35,2.46,2.43,2,2.93s-2.11.32-4.45-.4l7.82,4c1.61.84,2.76,1.73,2.56,2s-1.58-.16-3.12-.94l-8-4.07-2-1-2-1-4-1.91-4-1.91c-1.35-.64-2.7-1.27-4.07-1.85l-8.21-3.56C340.31,43.3,326.77,38.77,312.93,35A9.8,9.8,0,0,1,316.38,38v0l6.33,1.88c39.05,10.25,77,28.48,111.11,52.48.68.45,1.17.92,1.11,1s-.65-.15-1.25-.57c-5.19-3.55-10.34-7.15-15.69-10.43l-4-2.5-2-1.25-2-1.19-8.13-4.7,0,0c.4.33.4.52-.13.33a7.43,7.43,0,0,1-1.7-1c-.45-.37-.33-.49.13-.34a351.23,351.23,0,0,0-63.53-27.31,367.15,367.15,0,0,1,57.72,26.18c2.1,1,4.24,1.83,6.34,2.87a5,5,0,0,1,1.4,1c.09.19-.38.08-1-.22l-1.74-.86c3.42,2.07,5.78,4.14,5.36,4.75-.58.55-3.81-.67-7.39-2.72-9.79-5.11-19.59-10.13-29.65-14.56l-3.31-1.34L361,58.5a419.89,419.89,0,0,1,45,24c1.26.71,2.23,1.5,2.13,1.74s-1.24-.15-2.51-.86a426.16,426.16,0,0,0-40.51-19,420.27,420.27,0,0,0-42.39-14.83c-4.91-.8-9.84-1.44-14.76-2.11l-7.45-.74-3.73-.36c-1.24-.13-2.49-.24-3.75-.3,1.22.26,2.45.56,3.68.87,15.67,3.52,30.23,7,44.56,11.08A281.58,281.58,0,0,1,384,73.76a2.8,2.8,0,0,1,1.28.92c0,.16-.53,0-1.24-.34-14-6.47-27.46-11-42-15.36l-9-2.62-8.86-2.21c-1.46-.35-2.91-.73-4.36-1l-4.37-.88c-2.9-.56-5.77-1.13-8.64-1.63l8.58,2.16,4.28,1L323.94,55l8.46,2.3,8.36,2.54L345,61.07c1.39.43,2.76.93,4.14,1.4l8.3,2.86c2.75,1,5.48,2.1,8.23,3.17l4.12,1.62c1.37.54,2.71,1.17,4.08,1.76a10.37,10.37,0,0,1,2.41,1.31,1,1,0,0,1,.61.08,93,93,0,0,1,9,3.39,4.51,4.51,0,0,1,1.5.94C387.54,77.86,387.14,77.8,386.47,77.55ZM41.23,60.13,40.89,60l.92,0,1.95,1.07ZM34.37,73.35h0l-1.14-.55Zm136.94-66-10.2,1.09-2.56.25L156,9l-5.08.65c-6.8.73-13.53,1.86-20.37,2.69l9.74-2.26c1.29-.19,2.56-.41,3.85-.56L148,9.13l7.74-.8c2.57-.31,5.17-.4,7.76-.56ZM29.54,59a17.6,17.6,0,0,1,4.61,1.21,7.49,7.49,0,0,1,1.93-1.6,40.74,40.74,0,0,1,6.09-2.89c-.61-.43-.11-.63.07-.83l.62-.56-3.43,1.16c-1.16.37-2.34.74-3.49,1.18A57,57,0,0,1,29.54,59ZM17.69,70.7l-.32-.08-.3-1.08Zm.55,1.8.36-.08C18.74,72.79,18.57,72.75,18.24,72.5Zm3.27-.8a2.26,2.26,0,0,0-.69-.18Zm20.4,23-2.33-4.8,2.13,4.7Z"/><path d="M260.54,76.47l-.73-.19c.08-.41.44-.63,1-.76A8.75,8.75,0,0,0,253,77.9a8.47,8.47,0,0,0-2.25,6.41,1.26,1.26,0,0,0-.69,1.27,3.12,3.12,0,0,0,.9,1.74c1.11,1.16,2.64,1.75,3.6,1.38a3.36,3.36,0,0,1,.94.11,25.14,25.14,0,0,0,8.54,1.7L261.94,90a5.24,5.24,0,0,0,2.35-.23l-.81-.61a5.45,5.45,0,0,0,4.45-.85,5,5,0,0,0,1.9-4.16,6.87,6.87,0,0,0-2.19-4.92,9,9,0,0,0-5.28-2.47Z"/><path d="M249.94,71.39c1,0,2.11,0,3.19,0l3.29.13.64.3-1.68-2.06.08.16c-.1,2.61-1.76,4.59-3.21,6.23l-.4.69a2,2,0,0,0,.31,1.41A2.64,2.64,0,0,0,255,79.51l1.13-.4a9.23,9.23,0,0,0,5-1.88A5.15,5.15,0,0,0,263,72c-.24-1.06-1.36-2-2.16-2.89a3.59,3.59,0,0,0-4.51-1.33,2.64,2.64,0,0,0-.94,4l-.92.12c0-.28.12-.54.17-.82.5,1.44-.46,2.41-.87,3.57l-1,1.1,3.19,2.7c.11-.26.2-.53.32-.8a4,4,0,0,1-.41-.26c.31-.8.61-1.6,1-2.38a12.52,12.52,0,0,1,1.34-2.27l1.1-2.35a2.07,2.07,0,0,0-1.68-2.09l-1.41-.19.71.18c-2.62.48-5,1.27-7.37,1.7a.62.62,0,0,0-.54.8A.9.9,0,0,0,249.94,71.39Z"/><path d="M256.44,66.75a2,2,0,0,0,1.49-.22v-.39L256.85,66C256.07,65.84,256.07,66.3,256.44,66.75Z"/><path d="M257.94,66.14l.46.07L258,66l0,.06Z"/><path d="M261.79,268.48q-.66,12.36-1.34,24.73t-1.39,24.7l-1.38,24.67-1.2,24.65a4.64,4.64,0,0,0,.15,2.08c.11.06.28-.79.31-1.81q.62-12.33,1.23-24.63t1.4-24.62L261,293.61l1.35-24.7a5.49,5.49,0,0,0-.17-2.18C262,266.68,261.85,267.45,261.79,268.48Z"/><path d="M243.18,513.69c-.13-.78-.26-.74-.32.07a13.84,13.84,0,0,0,.12,2.7c.11.65.27.61.32-.08A13.67,13.67,0,0,0,243.18,513.69Z"/><path d="M232.9,507c-.31-4.61-.65-9-1.1-12.9a13.37,13.37,0,0,1-.05-2.17c-.2.28-.41-.6-.55-2.26-.65-8.21-1-16.56-1.53-25s-.7-17.05-1-25.69c-.44-17.27-.72-34.79-1-52.15a4,4,0,0,1-.5-1.48,61.21,61.21,0,0,1-.57-12.24l.19-3.77q.82-22.8,1.64-45.49c-.22-3.1-.36-6.69-.37-10.59-.56-13.06-1.12-26.16-1.69-39.54-.17.84-.37,1.34-.59,1.33-.53-.27-.92-3.37-.91-7,0-1.82,0-3.64,0-5.45-.13,5.21-.26,10.44-.39,15.64,0,.75,0,1.44-.09,2.08,0,5.73-.06,11.52,0,17.41,0,12.86.13,25.54.28,38.11s.25,25,.48,37.3q.19,9.25.39,18.43t.52,18.31c.16,6.08.37,12.16.59,18.22s.41,12.11.72,18.16a14.67,14.67,0,0,1,0,2.74c-.11.47-.26.38-.32-.5-1.25-15.24-2.41-29.48-3.6-44.21-.61-7.36-1.15-14.85-1.62-22.64s-.9-15.9-1.2-24.49q-.27-7.68-.54-15.32t-.61-15.28q-.63-15.24-1.27-30.51c-.84-20.35-1.8-40.73-3.17-61.4-.17-5.4-.42-10.73-.65-16l-.18-4-.09-2-.05-1,0-.5v-.73c0-2,0-3.95,0-5.92s.27-4.05.44-6.08.57-4.06.89-6.09.84-4,1.3-5.92,1-3.76,1.59-5.49l.83-2.52.42-1.25.4-1.1,1.49-4.14.65-1.82.51-1.54.26-.77.17-.62.34-1.22c.12-.42.13-.67.21-1s.14-.65.18-.93c0-.51.13-1,.11-1.49,0-.23,0-.45,0-.67v-.32l-.05-.35c-.08-.87-.27-1.86-.49-3-.16-.61-.3-1.22-.42-1.82h.07l.76-.07,1.52-.19c1-.15,2-.33,3-.55s1.82-.34,2.65-.52,1.64-.38,2.45-.63l1.19-.38c.32-.08.63-.16.94-.26a19.08,19.08,0,0,0,1.87-.68l.46-.21.23-.11.17-.06.66-.26a11.08,11.08,0,0,0,1.31-.7l.16-.1.1-.05.2-.11a3.26,3.26,0,0,0,.4-.24l.4-.28.2-.16.09-.06a2.19,2.19,0,0,0,.34-.29l.09-.09s0,0,0,0l0,0v0h0l-.08.1a2.48,2.48,0,0,0-.31.46l-.06.12-.15.24c-.1.16-.19.33-.27.49-.19.36-.22.54-.52,1.16a12.1,12.1,0,0,0-.59,1.58c-.05.22-.23.67-.35,1s-.24.77-.35,1.16c-.28,1.27-1,3.79-1.26,5.89l-.06.41,0,.21c-2.8,16.63-.81,4.62-1.44,8.33h-.06l-.42.1-.84.2-.83.2-.42.1-.52,0c-1.37.11-2.76.29-4.12.28-2.73.07-5.44.05-8.09-.06-1.34-.05-2.61-.19-3.93-.28s-2.55-.28-3.78-.49-2.48-.4-3.67-.67l-1.8-.39-1.67-.59c-1.1-.42-2.25-.76-3.38-1.14s-2.11-1-3.19-1.45a20.32,20.32,0,0,1-3.17-1.57l-1.5-.93-1.57-.9-.69-.41-.64-.5-1.27-1c-.86-.67-1.81-1.26-2.62-2l-2.34-2.35a23.67,23.67,0,0,1-2.25-2.45c-3-3.28-5.2-7.17-7.7-10.83a76.7,76.7,0,0,1-9-25.37l-.69-4.35c-.21-1.46-.28-3-.43-4.42-.34-2.94-.29-6-.35-8.93l0-1.12.05-1.13.11-2.25.12-2.25a5.42,5.42,0,0,0-.13-2.29,20.13,20.13,0,0,1,.18-2.33l.19-2c.09-1.22.25-2.43.42-3.64l.13-.91.06-.51.05-.44.1-.88c.05-.59.13-1.18.23-1.77.19-1.19.39-2.37.58-3.55.4-2.36,1-4.76,1.57-7.15l1.05-3.65.56-1.83.66-1.87q.69-1.87,1.41-3.75c.47-1.15.95-2.24,1.43-3.37.95-2.24,2-4.42,3.13-6.62a119,119,0,0,1,7.56-12.53,19.41,19.41,0,0,1,8.2-7.77c2.9-1.35,5.66-1.27,7.65.18a6.73,6.73,0,0,1,2.41,3.67,11.45,11.45,0,0,1,.14,5c.4-.44.8-.87,1.21-1.29L207,33.85a8.72,8.72,0,0,1,6.47-1.57l2.61.41c2.1.76,4.33,1.24,6.52,1.82A23.73,23.73,0,0,1,228.8,37l.69,1.52.58.13a7.43,7.43,0,0,1,4.53,2l1.08,1.66A19.55,19.55,0,0,1,238,48.5a6.91,6.91,0,0,1,1.19,2.13,9.63,9.63,0,0,1,4.33,4.81,1.32,1.32,0,0,1,.64,2.27h0c.53.26.68.33,1.32.59a7.7,7.7,0,0,1,.8-.19c1.25-.43,1.26-.43,2.39-.78a6.94,6.94,0,0,1,2.28.49c3,2.3,3,2.32,3.79,3.65,0,.15.06.31.08.46,1,0,1.11,0,1.4,0a3.28,3.28,0,0,1,.7.27c.52.66.52.66.82.82a3.82,3.82,0,0,1,.41.49c.13,1,.13,1,.27,1.22a2.44,2.44,0,0,1,0,.5l-.5.8-2.3-1.12.22.72-.81-.64.67.64-.83-.13,1,.28a5.25,5.25,0,0,0-1.83.77,2,2,0,0,0-.87.68,3.25,3.25,0,0,1,.33.36c-1.42.47-1.44.48-2.81.9-.22-.09-.42-.19-.62-.29a.53.53,0,0,1-.36.6l-.69.26-.05.18.05,0-.23.64,0,.15h0c-.14.44-.42,1.09-.92,2.73a6.82,6.82,0,0,1-1.16.3,4.87,4.87,0,0,1,.52.12c.34.09.67.77.81.77,3.23-.28,6.23-1.31,9.61-2.24a1.3,1.3,0,0,1,1.68.19,1,1,0,0,1-.05,1.54,16.15,16.15,0,0,1-1.35,2.3,15.1,15.1,0,0,1-1.57,1.94,14.6,14.6,0,0,1-1.72,1.62,14.8,14.8,0,0,1-1.84,1.29,22.3,22.3,0,0,1-8.23,2.74,32,32,0,0,0-3.45,1.78l.4.1-1.08.32-.09.06,1.53.29.63-.1c2.42-1.52,5.88-1.71,9.24-2.23a41.35,41.35,0,0,1,5.92-.07,1.25,1.25,0,0,1,1.31.56c.29.45.18.94-.2,1.08a18.64,18.64,0,0,1-6.32,3.49,19.93,19.93,0,0,1-7.56.63,3.47,3.47,0,0,1-2.38.74h0l1.22.27c-.61.22-1.52,0-2.18.16l1.36.61a8.08,8.08,0,0,0-1.71,1.29l-.7.63c-.21.18-.43.37-.66.55a15.86,15.86,0,0,1-1.51,1.33,11.93,11.93,0,0,1-1.95,1.39,1.13,1.13,0,0,1-.24.25,13.23,13.23,0,0,1,.6,2,4.63,4.63,0,0,1,.09.49.57.57,0,0,1,0,.14l-.12.47c-.08.32-.19.62-.25,1-.24.83,0,.86-.13,1.24s0,.65,0,1a9,9,0,0,1,.39-1.27l0-.14a.58.58,0,0,1,.06-.2l.26-.67c.09-.22.21-.43.31-.65l.16-.32a2,2,0,0,1,.12-.25s0,.19-.05.29l-.09.36c0,.25-.13.48-.16.74s-.11.52-.12.71.06.2.08.3a12,12,0,0,0,.13,1.33c.1.88.2,1.73.27,2.63a17.41,17.41,0,0,0,.7,3.84,4.22,4.22,0,0,0,.89,1.81,5.41,5.41,0,0,0,1.45,1.15c1.05.58,2.15,1,3.26,1.61.28.15.56.32.83.5a6.51,6.51,0,0,0,1.42.71,41.69,41.69,0,0,1,10.15,4.47c.79.4,1.56.81,2.33,1.24s1.56,1,2.32,1.49a33,33,0,0,1,4.38,3.61,36.74,36.74,0,0,1,3.69,4.24c.5.72,1,1.46,1.46,2.21a22.44,22.44,0,0,1,1.27,2.21A42.81,42.81,0,0,1,276.34,150c.15,1.82.25,3.54.35,5.31l.07,1.32,0,1.38-.05,2.75a53.58,53.58,0,0,1-.42,5.58,56.14,56.14,0,0,1-.87,5.6,87.11,87.11,0,0,1-6.37,19,80.76,80.76,0,0,0-4.41,11.21,19.13,19.13,0,0,0-.54,2.27,17.5,17.5,0,0,0-.37,2.3c0,.4-.12.78-.16,1.18l-.05,1.24c0,.87-.12,1.47-.12,3l-.18,15.56c0,5.18-.17,10.35-.27,15.51l-.33,15.49A11.92,11.92,0,0,1,262,263c-.29.21-.52-1.2-.49-3.32q0-11.1.06-22.27c0-7.45-.06-14.95-.05-22.45v-4.22l0-1,.05-1.9c0-.63.14-1.21.19-1.81.07-1.22.38-2.36.56-3.54s.55-2.32,1-3.6c.8-2.5,2-5.22,3.51-8.81a108.47,108.47,0,0,0,4.72-12.75c-.3,1-.68,2-1,3s-.7,2-1.08,2.82l-1.11,2.65-1.09,2.39-.55,1.17-.5,1.06-1,2.08c-.59,1.25-1.22,2.56-1.68,3.64a47.38,47.38,0,0,0-2.32,6.29,35.33,35.33,0,0,0-1.12,6.24l-.14,1.66,0,.43,0,.6,0,1.19-.16,4.78q-.15,4.77-.3,9.57c-.16,6.4-.43,12.8-.64,19.23q-.07,4.92-.16,9.89c-.08,3.26-.26,6.49-.48,9.71-.27,8.21-.55,16.31-.89,24.34s-.64,16-1,24-.59,16-.89,24.13-.45,16.27-.62,24.59c-.51,28.41-.84,53.21-.4,81.35.29,19.75.85,38.59,1.79,57.29.32,9.36,1,18.65,1.55,28.06q.51,7,1,14.13c.32,4.74.66,9.52,1.14,14.32.56,5.1.54,9.87,0,10.53s-1.48-3-2-8.12l-.87-7.51-.7-7.54q-.66-7.54-1.33-15.07c-.67-10.08-1.49-20.13-1.87-30.24-1.11-20.19-1.45-40.48-1.64-60.91s.11-41,.65-61.87c.24-10.41.57-20.9.92-31.46s.83-21.18,1.3-31.92c.39-9.26.79-18.37,1.18-27.44-.11.12-.21.23-.31.22-.4,0-.73-.87-1-2.33q-.69,15.45-1.6,31.06c-.35,28.94-.71,57.85-2,88.55-.92,21.05-1.75,40.12-2.6,59.61q.22,9.24.46,18.48c.14,6.16.47,12.31.7,18.47.14,3.07.23,6.16.4,9.23l.54,9.24c.38,6.17.7,12.35,1.23,18.53a8.81,8.81,0,0,1,0,2.38c-.1.36-.25-.17-.36-1.16-1-8.48-1.61-17.12-2.32-25.82-.36-4.35-.58-8.74-.83-13.13s-.48-8.81-.73-13.23c-.32,2.8-.78,4.47-1.34,4.26s-1.16-2.36-1.59-5.67l.25,12.06c0,2.49-.13,4.45-.41,4.39s-.58-2-.64-4.39q-.14-6.15-.26-12.31l-.1-12.31c-.1-8.2,0-16.4,0-24.6l-.09-7.39,0-7.38,0-14.76c0-9.85.12-19.7.26-29.58a19.66,19.66,0,0,1-1.6,5.69h0q-.07,4.59-.14,9.15c.28,27.93.61,56.15,1.53,84.54s2.4,57,5.07,85.52a4.65,4.65,0,0,1-.06,2.09c-.13,0-.32-.82-.39-1.83-1.51-17.26-2.81-34.5-3.64-51.72v.07c0,.7-.19.83-.32.08a15.25,15.25,0,0,1-.13-2.71c.06-.8.2-.73.32-.08-1.6-32.09-2.24-64-2.64-95.6-.26,29.33-.12,58.63.7,87.87.3,3.18.6,6.35.9,9.58a10.27,10.27,0,0,1-.06,2.4c-.1.25-.26-.39-.33-1.29l-.24-2.68c.19,5.53-.17,9.83-.85,9.77-.71-.26-1.46-5-1.68-10.76-.19-3.86-.42-7.71-.57-11.56s-.25-7.7-.37-11.54-.27-7.7-.33-11.54l-.17-11.54-.18-5-.39-5c-.11,23.94.18,47.83,1.1,71.58.13,2,.05,3.79-.19,3.84s-.55-1.57-.68-3.61c-1.55-20.9-2.75-42-3.23-63.15l-.24-7.94-.13-7.95q-.13-7.95-.25-15.92c0-10.62-.14-21.26-.07-31.91-.88-14-1.75-28-2.65-42.33l-.14,5.43c-.72,46.29,1.76,85.69,3.66,130.52a6.5,6.5,0,0,1-.13,2.21c-.12.12-.27-.64-.3-1.78-.25-5.47-.55-10.82-.84-16.12s-.51-10.52-.77-15.74-.52-10.45-.74-15.72-.46-10.6-.62-16c-.51-18-.9-35.13-1.5-51.86-.09,17.09.16,33.85.52,50.57q.36,12.54.72,25.09t.9,25.27a25,25,0,0,1,0,3.92,2.17,2.17,0,0,1,.19.84c.46,4.23.83,8.84,1.16,13.56a10.08,10.08,0,0,1-.06,2.53C233.14,508.54,233,508,232.9,507ZM234,72.43l.32.07-.77.09L231.65,72S232.8,72.15,234,72.43Zm3.68-12.13h0l1.1.49ZM261,199.68a97.27,97.27,0,0,1,4.4-10.49,90.38,90.38,0,0,0,5.77-15.43,66.73,66.73,0,0,0,1.69-9.11c.1-.76.2-1.54.27-2.3l.12-2.26.1-2.27,0-1.14,0-1.09-.14-4.39c0-.65-.13-1.66-.23-2.56l-.17-1.37-.09-.69-.15-.76c-.19-1-.41-2-.64-3s-.67-2.19-1-3.28a33.64,33.64,0,0,0-3.54-7,35.5,35.5,0,0,1,5.56,12.95c.26,1,.38,1.89.52,2.79l.2,1.34c.06.45.13.93.15,1.25l.31,4.29c0,.56,0,1.11,0,1.68l-.06,1.74-.17,3.47c-.08,1.15-.27,2.35-.41,3.52s-.27,2.34-.55,3.5a69.77,69.77,0,0,1-3.9,13.16c-1.62,3.93-3.28,7.21-4.69,10.08S261.86,197.4,261,199.68ZM244,73.1A23.25,23.25,0,0,1,239.91,72a4.41,4.41,0,0,1-1.23,1.35c-1.36,1-2.69,1.91-4,2.79.62.28.3.49.22.67s-.19.34-.27.51c.72-.45,1.51-.85,2.27-1.26s1.6-.76,2.41-1.13l2.28-1A12.91,12.91,0,0,1,244,73.1Zm9.32-9.32.3.11.28,1ZM252.79,62l-.33,0C252.32,61.72,252.48,61.78,252.79,62Zm-3,.41a2.68,2.68,0,0,0,.65.24ZM230,39.6l2.19,4.79-2-4.7Z"/></symbol><symbol id="A" data-name="A" viewBox="0 0 450.33 315.77"><path d="M246.51,6.14c-.18.15-.4.29-.58.44a1.06,1.06,0,0,1-.07-1.24,8.94,8.94,0,0,0-2.35,3.8,8.15,8.15,0,0,0-.23,4.13,14.92,14.92,0,0,0,4.15,7.41,2.56,2.56,0,0,0,2.67,2.83A3.34,3.34,0,0,0,253.57,21a3.78,3.78,0,0,1,.68-.93,24.07,24.07,0,0,0,6.25-7.27c-.52.52-1.07,1.06-1.6,1.57a6.5,6.5,0,0,0,1-2.41l-1,.29C261.58,9.61,261.2,6,258.08,4a8.39,8.39,0,0,0-10.35,1Z"/><path d="M236,11.27c1.27-1.77,2.63-3.44,4-5.07l.62-.31h-2.68l.17,0c2.13,1.7,2.75,4.32,3.25,6.72l.36.86a2.2,2.2,0,0,0,1.39.77,2.36,2.36,0,0,0,2.74-1.61,11.63,11.63,0,0,1,.32-1.26c1.83-3,2.36-7.7-2-9.73-1-.46-2.38-.21-3.62-.2a3.18,3.18,0,0,0-3.66,2.45,2.88,2.88,0,0,0,2.75,3.2l-.44.79-.58-.66c1.5.51,1.73,1.95,2.45,3l.29,1.6,4.19-.81-.47-.82c-.18.05-.45.17-.46.16A23.63,23.63,0,0,1,242,5.57l-1.33-2.25a2.18,2.18,0,0,0-2.69,0l-1,.93.56-.41c-1.11,2.21-1.85,4.58-3,6.82a.68.68,0,0,0,.31,1A.88.88,0,0,0,236,11.27Z"/><path d="M236.05,3.22c.35-.35.71-.68.68-1.21l-.32-.24-.77.67C235.09,2.93,235.47,3.22,236.05,3.22Z"/><path d="M236.41,1.77l.32-.28-.4.17,0,.06Z"/><path d="M294.18,175.44l1.08,1.62c.37.54.76,1.05,1.15,1.58l2.32,3.16,2.32,3.16c.78,1,1.54,2.12,2.39,3.13,3.32,4,6.53,8.24,10.11,12.13,1.76,2,3.48,4,5.29,5.91l5.53,5.72c.92,1,1.83,1.92,2.78,2.85l2.89,2.76,5.8,5.5c.53.48,1.07.77,1.21.65s-.2-.57-.7-1l-5.78-5.51-2.88-2.75c-.95-.92-1.85-1.9-2.77-2.84l-5.5-5.71c-1.8-1.92-3.5-3.94-5.26-5.9-3.55-3.87-6.75-8-10.05-12.09-.84-1-1.61-2.05-2.38-3.11l-2.31-3.15-2.31-3.15L296,176.83l-1.08-1.62c-.4-.57-.84-1-1-.92S293.82,174.89,294.18,175.44Z"/><path d="M410.37,288.17c-.53-.12-.57,0-.11.35a6,6,0,0,0,1.68.77c.44.1.5-.07.11-.35A6.26,6.26,0,0,0,410.37,288.17Z"/><path d="M401.29,296.4c-1.52-.55-3-1.08-4.46-1.56s-2.8-1-4.12-1.41a6.22,6.22,0,0,1-1.37-.66c.07.3-.59.22-1.69-.18-5.46-1.95-10.85-4.32-16.35-6.69-1.39-.58-2.74-1.22-4.1-1.87l-4.09-2c-2.72-1.33-5.5-2.6-8.18-4.07l-8.15-4.34c-2.72-1.45-5.36-3.07-8-4.61-5.42-3-10.61-6.47-15.91-9.74a2.33,2.33,0,0,1-1.24-.09c-1.79-.48-4.8-2.27-7.6-4.52l-2.07-1.76c-2.16-1.68-4.17-3.55-6.26-5.32s-4.15-3.56-6.19-5.39l-6-5.61c-2-1.87-4-3.73-5.86-5.72a63.31,63.31,0,0,1-6-4.82c-1.91-1.43-3.73-3-5.56-4.53l-5.5-4.68c-1.87-1.54-3.6-3.23-5.39-4.89l-5.34-5.07c.25.59.3,1,.08,1.21-.63.27-2.6-1.05-4.27-3.15L255,201.88l3.54,4.63c1.2,1.52,2.46,3,3.68,4.48a15.15,15.15,0,0,1,.95,1.22q2.15,2.34,4.3,4.73c1.47,1.57,3,3.06,4.58,4.59a288.61,288.61,0,0,0,42.8,34.71A360.63,360.63,0,0,0,360.56,282a5.64,5.64,0,0,1,1.67,1c.23.27.09.39-.5.15-20.26-8.21-38.57-15.31-59.87-29.35-6.38-4.11-12.47-8.63-18.62-13.16l-9-7.11c-1.52-1.16-3-2.45-4.42-3.69l-4.39-3.77c-1.45-1.28-3-2.5-4.37-3.84l-4.26-4c-2.84-2.68-5.73-5.33-8.44-8.21l-4.14-4.26c-1.36-1.45-2.81-2.84-4.11-4.35l-8-9a476.45,476.45,0,0,1-27.8-41.09l-3.14-5.36c-1-1.8-2.15-3.56-3.1-5.42l-5.94-11.13c-1.88-3.79-3.7-7.67-5.57-11.58-.46-1-.94-2-1.38-3s-.85-2-1.28-3l-2.56-6.11c-.58-1.39-1.16-2.77-1.73-4.15s-1-2.81-1.56-4.22q-1.53-4.23-3-8.44l-.74-2.11-.66-2.14c-.43-1.43-.87-2.86-1.3-4.29-.86-2.85-1.73-5.71-2.54-8.57l-.54-2.17L169,68.55l-.12-.41-.43-1.5-.86-3c-.56-2-1.1-4-1.62-6A231.38,231.38,0,0,1,161.67,33a14,14,0,0,1-.27-4.58,12,12,0,0,1,.42-2.1,12.14,12.14,0,0,1,.84-1.91,8.5,8.5,0,0,1,6-4.49,9.1,9.1,0,0,1,8.26,3.26V21.66l.51-2.34a8.57,8.57,0,0,1,3.43-5.24L183,12.5c2-1,3.93-2.39,5.9-3.65A28.22,28.22,0,0,1,195,5.64l1.64.44.49-.38a7.85,7.85,0,0,1,4.54-2.24l2,.22a20.21,20.21,0,0,1,6.38,2.15,7.12,7.12,0,0,1,2.44.43,10,10,0,0,1,6.58-.3,1.41,1.41,0,0,1,1.95.25,1.32,1.32,0,0,1,.27.69h0c.53-.25.69-.32,1.29-.65.2-.47.35-.74.35-.74.43-1.24.43-1.24.83-2.31a6.49,6.49,0,0,1,1.78-1.42c3.65-.8,3.65-.79,5.18-.54l.43.22a11.45,11.45,0,0,1,.79-1,3.21,3.21,0,0,1,.62-.34c.84,0,.84,0,1.15-.09a4.52,4.52,0,0,1,.63,0c.89.5.89.5,1.16.53a2.46,2.46,0,0,1,.43.28l.38.83-2.24,1,.72.28-1,.21.91-.1-.59.53L235,3a4.42,4.42,0,0,0-.43,1.84,2,2,0,0,0,0,1.09,2.9,2.9,0,0,1,.49,0c-.46,1.4-.46,1.4-.95,2.77a6,6,0,0,1-.62.31.57.57,0,0,1,.27.68l-.21.72.11.16h.07l.37.62.09.13h0c.24.43.65,1.05,1.73,2.67a7.1,7.1,0,0,1-.45,1.2l.41-.35c.29-.22,1.07,0,1.15-.14a62.87,62.87,0,0,0,3.88-9.3A1.15,1.15,0,0,1,242,4.21a1.12,1.12,0,0,1,1.25,1,19,19,0,0,1,2.26,10.26,22.2,22.2,0,0,1-.94,5.29c-.27.87-.58,1.74-.94,2.61s-.66,1.72-1.06,2.56c-.37,1.75-.69,3.52-1,5.3l.38-.28-.56,1.41a.8.8,0,0,0,0,.15l1.38-1.14c.14-.24.27-.49.4-.74a24.05,24.05,0,0,1,1.68-5.94l.59-1.44.68-1.43c.46-.95.9-1.9,1.3-2.86a47.37,47.37,0,0,1,3.4-5.7,1.06,1.06,0,0,1,1.21-.75.89.89,0,0,1,.85,1,26.55,26.55,0,0,1-.7,9.75,21,21,0,0,1-4.46,9.24,6,6,0,0,1-.32,1.76,5.71,5.71,0,0,1-.85,1.64l0,0,1.11-.84c-.23.92-1.15,1.48-1.5,2.34l1.55-.46c-.68,4.51-.07,9.22-1.69,13.67a4,4,0,0,1-.09.5,21.9,21.9,0,0,1,1.78,2.46q.19.33.36.66a1.59,1.59,0,0,1,.08.18l.12.51.22,1c.25,1.39.65,2.8.91,4.29-.09-1-.17-2-.26-3.06,0-.51,0-1-.05-1.53l0-.76v-.39a3,3,0,0,1,0-.31,1.72,1.72,0,0,1,.09.32l.11.4.2.79c.14.53.24,1.06.41,1.59.3,1.06.59,2.12.86,3.19a67.69,67.69,0,0,1,1.31,6.69c1.17,6.25,1.91,13,2.56,19.22.13,1.55.23,3.07.28,4.54s.2,2.86.23,4.2a37.53,37.53,0,0,1-.39,7.09,284,284,0,0,0,15.58,35.2A259.59,259.59,0,0,0,291,170.05c.82,1,1.3,2.19,1.15,2.61s-1-.16-1.83-1.21c-3-3.52-5.72-7.35-8.52-11.1-1.43-1.86-2.7-3.83-4-5.79s-2.59-3.91-3.89-5.88-2.42-4-3.63-6.06l-1.8-3.05c-.6-1-1.21-2-1.74-3.08l-3.31-6.26-1.65-3.13-1.51-3.21a226.34,226.34,0,0,0,22,42.92c1.2,1.71,2.37,3.46,3.68,5.1a57.59,57.59,0,0,1,3.5,5.15l2.3,3.18c.82,1,1.63,2,2.44,3.07l4.83,6.11c1.66,2,3.38,3.93,5.07,5.89s3.36,3.94,5.18,5.79l5.39,5.65,1.36,1.41,1.41,1.36,2.86,2.71,2.88,2.73c1,.91,1.93,1.82,2.95,2.68l6.14,5.24c1.74,1.53,3.56,2.92,5.34,4.31l5.27,4.12c3.52,2.68,7.1,5.16,10.62,7.72s7.24,4.84,10.91,7.3c3.77,2.31,7.58,4.69,11.56,7.06C387.21,260,398.32,265.62,409.5,271s22.62,10.29,34.59,15.26c3.23,1.19,6.06,2.8,6.24,3.56s-2.35.39-5.62-.79c-12.79-4.58-25.33-9.66-37.6-15.33a394.19,394.19,0,0,1-35.81-19.11l-8.65-5.39-8.46-5.73c-.7-.48-1.42-.95-2.11-1.45L350,240.55l-4.13-3.05c-1.37-1-2.77-2-4.12-3.07l-4-3.23a258,258,0,0,1-30.38-28.4c-2.11-2.17-4-4.52-5.94-6.76s-3.91-4.47-5.68-6.83a.79.79,0,0,1-.2.36c-.38.33-1.08.2-2-.28,1.05,1.32,2,2.69,3.13,4l3.25,3.91c2.18,2.62,4.3,5.3,6.62,7.82,13.8,13.14,28.54,25.17,44.53,37.85,11,8.63,21.22,16.39,32.1,23.78a424,424,0,0,0,45.16,21.22,3.88,3.88,0,0,1,1.43.75c.18.21-.2.19-.85,0-2.73-.94-5.45-2-8.2-3l-4.13-1.53c-1.37-.53-2.72-1.11-4.09-1.67L404.3,279l-8.15-3.72c1.47,1.27,2.22,2.31,1.8,2.81s-2,.38-4.19-.27l7.29,3.78c1.49.81,2.6,1.59,2.42,1.86s-1.52,0-3-.79c-5-2.57-10-5-14.86-7.83-2.43-1.37-4.9-2.69-7.31-4.11l-7.18-4.32c-2.95-1.59-5.79-3.36-8.66-5.09s-5.75-3.43-8.53-5.3-5.61-3.65-8.39-5.54l-8.21-5.83a9,9,0,0,1,2.06,3.78h0l5.06,3.68A517.1,517.1,0,0,0,449,302.64c.73.25,1.29.57,1.26.7s-.62,0-1.27-.2c-5.57-2.05-11.18-4-16.67-6.19-2.75-1.1-5.53-2.09-8.25-3.26l-8.16-3.42,0,0c.4.27.42.45-.1.34a6,6,0,0,1-1.7-.72c-.47-.3-.36-.43.09-.34A534.41,534.41,0,0,1,356,259.92,466.11,466.11,0,0,0,408.67,289c2.07.73,4.09,1.54,6.22,2.22a4.14,4.14,0,0,1,1.43.81c.11.17-.35.14-.94-.07l-1.75-.6c3.48,1.54,5.95,3.23,5.61,3.89s-3.74-.1-7.4-1.66c-9.77-4.21-19.43-8.61-28.78-13.63l-3.1-1.5-3.25-1.29a401.74,401.74,0,0,0,44.22,22.12c1.3.53,2.34,1.18,2.27,1.44s-1.21,0-2.52-.51a373,373,0,0,1-40.43-17l-5-2.43c-1.66-.81-3.27-1.72-4.9-2.58l-4.9-2.61c-1.63-.88-3.27-1.74-4.86-2.69L351,267.25l-9.43-6c-2.25-1-4.4-2.24-6.62-3.37l-6.65-3.45c-4.39-2.41-8.79-4.9-13.25-7.45,1,.83,2,1.6,3,2.39l4.88,3.65c1.63,1.18,3.21,2.4,4.88,3.47q4.95,3.28,9.83,6.37c3.33,2,6.63,3.85,9.92,5.72,1.62.95,3.31,1.81,5,2.67l5,2.58c13.34,6.76,26.81,12.71,41.12,18.95a2.66,2.66,0,0,1,1.3.82c0,.16-.52.07-1.25-.25-14-6-27-11.39-40.61-18.37l-8.33-4.39c-2.73-1.49-5.38-3-8-4.52l-4-2.23c-1.32-.75-2.6-1.55-3.9-2.32Q330,259.24,326.1,257l7.53,5c1.26.82,2.49,1.66,3.77,2.44l3.84,2.31c2.56,1.53,5.1,3.06,7.67,4.54l7.79,4.23,3.89,2.1,4,2,7.89,4,8,3.73,4,1.9,4.07,1.79a10.37,10.37,0,0,1,2.41,1.31,1,1,0,0,1,.61.07c2.85.93,5.87,2.09,9,3.17a4.48,4.48,0,0,1,1.56.84C402.38,296.64,402,296.61,401.29,296.4ZM226.37,25.48l.27-.2-.45.69-1.89,1Zm-7.16-11.8h0l1.1-.54Zm45.87,125.15q-1.87-3.87-3.68-7.76c-.58-1.3-1.23-2.57-1.74-3.9l-1.56-4-1.5-4c-.49-1.33-1-2.64-1.39-4q-1.25-4.07-2.37-8.14,1.59,3.78,3.16,7.56l.48,1.53.54,1.51,1.09,3,2.16,6.08C261.81,130.78,263.48,134.77,265.08,138.83ZM233.75,17.54a19.24,19.24,0,0,1-3.6,2.65,5.28,5.28,0,0,1,.22,2.13l-.15,1.46-.12,1.44c-.09,1-.21,1.92-.35,2.86.67-.28.6.18.69.4l.19.7c.43-2,.83-4.05,1.42-6.09A39.63,39.63,0,0,1,233.75,17.54Zm-2-13.82.27-.16,1,.43ZM230.06,3l-.16.28C229.52,3.19,229.66,3.11,230.06,3ZM228.57,5.6a2.11,2.11,0,0,0,.58-.35Zm-30.72.79L203,7.72l-4.95-1.43Z"/><path d="M248,213.64c-.23-.11-.47-.25-.69-.37.21-.41.7-.55,1.31-.54-6.81-2.65-13,1.89-16.11,7.09a2.83,2.83,0,0,0-2.28,3.53,3.45,3.45,0,0,0,3.87,2.4,5,5,0,0,1,1.26.3,29.27,29.27,0,0,0,10.39,3.36l-2.37-1a8.77,8.77,0,0,0,3.14.13l-.68-.81c3.93,1.4,8-.36,9.06-4.07a7.89,7.89,0,0,0-5.13-9.36Z"/><path d="M238.73,205.73c2.29.52,4.52,1.14,6.77,1.82l.56.47-1-2.53,0,.18c-1,2.63-3.49,4.3-5.88,5.63l-.79.63a2.07,2.07,0,0,0-.35,1.58,2.51,2.51,0,0,0,2.71,2l1.47-.16c3.91.51,9.27-.78,9.67-5.67.08-1.13-.73-2.31-1.23-3.47a3.45,3.45,0,0,0-4-2.51,3,3,0,0,0-2.3,3.8l-1-.11.47-.8c0,1.61-1.4,2.38-2.28,3.49L240,211l2.37,3.63.71-.76c-.12-.15-.34-.36-.34-.38a27,27,0,0,1,4.2-4.28l1.86-2.1a2.05,2.05,0,0,0-1-2.54l-1.34-.56.65.37c-2.74-.22-5.47,0-8.2-.21a.77.77,0,0,0-.9.67A.84.84,0,0,0,238.73,205.73Z"/><path d="M247.09,202.71a1.93,1.93,0,0,0,1.52.18l.13-.39-1-.47C247,201.7,246.86,202.16,247.09,202.71Z"/><path d="M248.74,202.5l.42.2-.35-.32c-.05,0-.05.05-.05.05Z"/><path d="M116,258.14c-12.27,4.83-24.38,10.22-36.3,16-.4.2-.67.47-.6.63s.43.11.8-.08c11.94-5.74,24-11.06,36.27-15.87.4-.18.67-.45.64-.63S116.36,258,116,258.14Z"/><path d="M20.8,292.48c.21-.26.12-.37-.21-.26a2.13,2.13,0,0,0-.92.61c-.17.22-.07.36.21.27A2.3,2.3,0,0,0,20.8,292.48Z"/><path d="M17.17,282A45,45,0,0,0,21,278.26a2.38,2.38,0,0,1,.73-.5c-.21-.13,0-.51.48-1,10-9.43,21.52-18.47,32.93-27.43a1.7,1.7,0,0,1,.19-.86,9.74,9.74,0,0,1,3.79-3.56l1.4-.73c5.5-3.16,11-6.31,16.55-9.26a21.79,21.79,0,0,1,3.44-2.88c4.22-3.63,8.47-7.29,13-10.78a.88.88,0,0,1-.83-.35c-.21-.62.68-1.72,2-2.5q1-.63,2-1.23l-5.87,3a5,5,0,0,1-.8.36c-2.07,1.25-4.14,2.54-6.21,3.93-9,6-17.46,12.37-25.54,18.89S42.4,256.55,34.83,263.27a2.16,2.16,0,0,1-1,.61c-.23,0-.29-.16,0-.43,8.92-9.44,16-18.87,26.95-28.7,13.05-11.67,26.29-23,40.63-33.95,15.81-9.89,30-20.21,46.16-30.85,6-3.92,12-7.68,18-11.23,9.37-6,18.87-11.1,28.74-16.13,4.88-3.19,10.87-2,13.3,2.5a9.72,9.72,0,0,1-.09,8.89l1.27-.5,2.19-.29a7.92,7.92,0,0,1,5.75,1.51l2.13,1.47c3.25,3.15,7.42,5.28,10.39,8.88l.21,1.69.52.33a8,8,0,0,1,3.73,3.43l.56,2a20.28,20.28,0,0,1,.37,6.8,7,7,0,0,1,.49,2.46,9.88,9.88,0,0,1,2.74,6.07,1.4,1.4,0,0,1,.48,1.93,1.43,1.43,0,0,1-.58.51h0a14.8,14.8,0,0,0,1.12,1c.53,0,.85,0,.85,0,1.4-.07,1.4-.07,2.61-.09a7,7,0,0,1,2.09,1.14c2.23,3.13,2.23,3.13,2.58,4.67a3.7,3.7,0,0,1-.06.48c1,.25,1.08.27,1.36.36a3,3,0,0,1,.59.46c.31.79.31.79.56,1a4.42,4.42,0,0,1,.24.59c-.17,1-.17,1-.09,1.29a2.39,2.39,0,0,1-.12.51l-.71.67-1.89-1.73v.78l-.6-.87.46.83L246,201l.94.57a5.64,5.64,0,0,0-2.06.28,2.23,2.23,0,0,0-1.1.46,3.43,3.43,0,0,1,.21.44c-1.62.11-1.61.11-3.2.18a5,5,0,0,1-.54-.46.65.65,0,0,1-.61.52l-.82.08-.12.16,0,.07-.51.59-.1.14h0c-.34.41-.85,1-2.18,2.56a8.27,8.27,0,0,1-1.41,0l.51.27c.33.2.38,1,.54,1,3.75.62,7.46.28,11.19.18a1.28,1.28,0,0,1,1.62.63,1.1,1.1,0,0,1-.54,1.54c-5.53,6-14.2,7.67-22.46,6.74-2,.19-4,.45-6,.72l.41.28-1.67-.09-.17,0,1.6,1,.92.14c4.56-.81,9.3.07,14,.21a62.72,62.72,0,0,1,7.44,1.23,1.17,1.17,0,0,1,1.27.89,1,1,0,0,1-.82,1.14c-6.81,2.8-15.26,4.12-22.67,1.43a6.64,6.64,0,0,1-4-.08h-.07l1.22.82c-1.08,0-1.94-.69-3-.79l.89,1.35c-5.15.57-10.16,2.6-15.41,2.05a5.48,5.48,0,0,1-.57,0,28.22,28.22,0,0,1-2.35,2.29l-.66.51-.17.12-.31.16-.61.32a27.79,27.79,0,0,1-2.65,1.14l4-.82a36.86,36.86,0,0,1-8,3.72,62.39,62.39,0,0,1-12.57,2.59,30.19,30.19,0,0,1-10.84-.52c-15.1,6.25-30.12,12.86-44.72,20.19a2.08,2.08,0,0,1-1.87.21c-.25-.28.1-.81.85-1.2,10.14-5.93,20.78-11.3,31.57-16.39-9.54,3.17-19,6.64-28.46,10.77l-3.51,1.78a25.91,25.91,0,0,1-3.63,1.45c-11.91,5.52-23.19,10.89-34.7,17.75-9.82,5.86-18.29,11.21-27.79,17.48L32.93,301.76c-6.37,4.18-12.74,8.32-19.52,12.44-1.75,1.16-3.67,1.83-4.24,1.48s.41-1.62,2.16-2.81c13.5-9.55,26.94-18.93,40.88-27.9a424,424,0,0,1,43.94-25.12c3.37-1.6,6.67-3.21,10-4.74a1,1,0,0,1-.25-.28,1.56,1.56,0,0,1,.21-1.56c-3.79,1.71-7.61,3.44-11.49,5.1-9.92,6.18-19.79,12.39-30.93,18-7.65,3.88-14.85,7-22.07,10.43-8.38,5.55-16.61,11.26-25,17a1.69,1.69,0,0,1-.9.41c-.2,0-.09-.25.23-.5,5.44-4.41,11.13-8.77,17-13.05-1.21.24-2.09.14-2.35-.41s.16-1.51,1.08-2.57l-4.18,2.62c-.87.53-1.68.77-1.82.5s.37-.93,1.19-1.45q8.49-5.43,17.09-10.65c6.65-4.53,13.35-9,20.16-13.28a5,5,0,0,1-2.9-.27h0l-3.18,2C39.48,280.61,20.33,293.85.85,307.06c-.38.26-.75.4-.83.3s.15-.39.49-.62l17.54-12h0c-.28.09-.42,0-.21-.26a2.44,2.44,0,0,1,.91-.63c.33-.1.39,0,.22.26,10.82-7.48,21.52-15,32-22.55L20.63,290.94l-3,2.62a1.64,1.64,0,0,1-.92.4c-.14,0,0-.29.29-.53l.83-.72c-1.91,1.22-3.68,1.74-4,1.15s1-2.23,2.94-3.56c2.57-1.86,5.16-3.67,7.74-5.48l7.82-5.33L34,278.25l1.52-1.44c-8.38,5.13-16.69,10.34-24.85,15.69-.68.49-1.37.74-1.53.55s.27-.76,1-1.25q20.13-16.23,41.89-31.26l12.65-12.8q-1,.57-1.92,1.17a202.39,202.39,0,0,0-21.73,16.54c-6.75,5.69-13.33,11.45-20.71,17-.35.29-.73.42-.85.35s.06-.37.44-.64C27,276.62,33.08,271,40.07,265.25c5.77-4.76,11.32-9.22,16.6-13.87-11.67,8.07-22,17-33.11,25.58a4,4,0,0,1-1.39.81.53.53,0,0,1-.18.35c-1.23,1.3-2.62,2.64-4.08,3.94a1.66,1.66,0,0,1-.93.49C16.76,282.57,16.87,282.33,17.17,282ZM220.9,201.51l.3.2-.85-.22L218.73,200Zm9.48-10.74h0l.92.86Zm-89.86,50.86a129.47,129.47,0,0,1,20.4-6.88l-4.71,2.16Zm90.9-35.83a19.75,19.75,0,0,1-3.93-2.49,6,6,0,0,1-2.1,1c-2.06.52-4.11.91-6.15,1.24.49.54,0,.62-.21.77l-.67.4c2.22-.25,4.47-.43,6.77-.55A42.78,42.78,0,0,1,231.42,205.8Zm13.51-6.91.26.2,0,1.11Zm0-1.87-.34-.06C244.58,196.56,244.73,196.66,245,197Zm-3.16-.45a2.64,2.64,0,0,0,.57.42ZM229.63,168l.67,5.36-.51-5.2Z"/></symbol></defs><title>kulitan</title><use width="439.27" height="234.57" transform="translate(-1.43 17.08) scale(1.45 1.01)" xlink:href="#KU"/><use width="411.16" height="576.94" transform="translate(103.48 336.45)" xlink:href="#LI"/><use width="290.89" height="387.29" transform="translate(253.63 451.87)" xlink:href="#I"/><use width="438.27" height="575.87" transform="translate(178.15 955.46)" xlink:href="#NA"/><use width="450.34" height="315.77" transform="translate(31.58 1128.12)" xlink:href="#A"/></svg>