<svg id="Layer_1" data-name="Layer 1" xmlns="http://www.w3.org/2000/svg" xmlns:xlink="http://www.w3.org/1999/xlink" viewBox="0 0 648 1191.6"><defs><symbol id="SA" data-name="SA" viewBox="0 0 612 352.19"><path d="M299.85,35.32c.28,0,.58,0,.86,0-.13.49-.63.85-1.32,1.12a17.43,17.43,0,0,0,10.4-4.6,27.33,27.33,0,0,0,6.47-8.81c1.91-.89,2.93-2.76,2.24-4.26s-2.86-2-4.88-1.12a7.18,7.18,0,0,1-1.55.15,32.62,32.62,0,0,0-13.05.83l3-.06a12.47,12.47,0,0,0-3.81,1.26l1,.51c-5,.36-9.55,4.26-9.85,8.52s3.57,7.13,8.32,6.58Z"/><path d="M312,39.12c-2.57.37-5.14.66-7.76,1l-.73-.21,1.78,2-.07-.16c.32-3,2.66-5.64,5-7.86L311,33a2,2,0,0,0,.07-1.67,2.51,2.51,0,0,0-3.46-1l-1.63.75c-4.52,1.06-10.32,5-9.28,9.89.25,1.13,1.49,1.87,2.36,2.74a3.69,3.69,0,0,0,5,.58c1.74-1.12,2.37-3.17,1.41-4.65l1.11-.31c-.1.32-.2.65-.31,1-.45-1.54.91-2.89,1.62-4.32l1.54-1.5L306,31.87l-.63,1.05c.17.09.46.21.46.23a45.93,45.93,0,0,1-3.57,6c-.5,1-1,1.92-1.44,2.88a1.77,1.77,0,0,0,1.82,2l1.59-.06-.8-.07c3-1,5.82-2.34,8.78-3.14a1,1,0,0,0,.81-1A.79.79,0,0,0,312,39.12Z"/><path d="M303.89,45.45a2.39,2.39,0,0,0-1.66.51c0,.24,0,.36,0,.43h1.19C304.26,46.38,304.29,45.87,303.89,45.45Z"/><path d="M302.22,46.39h-.51l.46.14,0-.07Z"/><path d="M596.09,196.48a115.13,115.13,0,0,1,12.82,34.78,113.38,113.38,0,0,1,1.23,37.21,93.77,93.77,0,0,1-13.48,37.69c-1,1.47-1.94,2.93-3,4.36s-2.09,2.84-3.26,4.18-2.3,2.72-3.47,3.91-2.34,2.48-3.57,3.63a96.56,96.56,0,0,1-15.75,12.14c-2.76,1.75-5.59,3.24-8.43,4.72l-4.3,2c-1.43.68-2.88,1.2-4.33,1.8A115.93,115.93,0,0,1,533,348.25a134,134,0,0,1-17.62,2.66c-2.93.2-5.87.4-8.8.4-1.48,0-2.91,0-4.32,0s-2.85,0-4.25-.13c-5.64-.25-11.14-.84-16.51-1.61s-10.61-1.76-15.67-2.91c-10.17-2.27-19.75-5.08-28.9-8-2.45-.77-4.54-1.25-4.72-1.06s1.63,1,3.9,1.66c9.14,2.9,18.73,5.73,28.89,8A189.52,189.52,0,0,0,497.26,352c1.4.09,2.82.15,4.25.17s2.82.09,4.31,0l4.42-.08,4.42-.27a136.41,136.41,0,0,0,17.7-2.53,113.49,113.49,0,0,0,34.83-13.63,93.93,93.93,0,0,0,15.95-12c1.27-1.12,2.45-2.36,3.64-3.59s2.36-2.46,3.52-3.86l1.72-2.05,1.62-2.12c1.1-1.41,2.08-2.89,3.07-4.36a87.33,87.33,0,0,0,9.28-18.6,98.1,98.1,0,0,0,4.84-19.26,113.9,113.9,0,0,0-.84-37.5,116.27,116.27,0,0,0-12.51-35.1c-.83-1.51-1.73-2.85-2.41-3.86a9.69,9.69,0,0,0-1.54-1.81c-.15,0,.09.54.59,1.43S595.27,195.09,596.09,196.48Z"/><path d="M128.37,252.92c1.66-.4,1.57-.58-.21-.43a33.33,33.33,0,0,0-5.83,1.11c-1.38.4-1.28.61.23.42C124.32,253.82,127,253.21,128.37,252.92Z"/><path d="M141.8,236.18l7.74-1.22c1.26-.23,2.54-.36,3.79-.51l3.74-.45c2.47-.28,4.89-.64,7.26-.87l6.94-.64a39.2,39.2,0,0,1,5-.14c-.62-.32,1.41-.6,5.28-.72a247.58,247.58,0,0,1,28.88.73l7.3.71c1.25.15,2.59.38,3.89.57l2,.3,1.81.33c2.37.44,4.84.86,7.16,1.34l7,1.42c18.66,3.89,37.24,8.27,56,12.81s37.47,9.3,56.24,14.21l28.15,7.43L408,279.11a10.79,10.79,0,0,1,3.4.1c5.4.65,15.87,3.25,26.51,6.7l8,2.68c15.73,5.19,30.77,9.63,45.18,11.48,3.61.49,7.15.74,10.66.89l2.62.07,2.54,0c.85,0,1.69,0,2.53-.09s1.69,0,2.53-.14a80.76,80.76,0,0,0,9.9-1.37,72.7,72.7,0,0,0,9.38-2.58,67.09,67.09,0,0,0,14.21-9l.69-.61.62-.67,1.27-1.29,1.15-1.37a15.56,15.56,0,0,0,1.08-1.35,34.86,34.86,0,0,0,3.45-5.7,43.18,43.18,0,0,0,3.88-13.71,59.66,59.66,0,0,0-.3-15.7,66.39,66.39,0,0,0-4.35-15.64c.24,1.35.17,2.24-.15,2.33-.9-.13-3-4.62-5.54-9.23l-1-1.68c-.35-.5-.69-1-1-1.52a33.19,33.19,0,0,0-2.14-2.92c.48.72,1,1.39,1.51,2.1s.9,1.51,1.37,2.25a50.08,50.08,0,0,1,2.59,5.07c.77,1.8,1.49,3.66,2.11,5.57s1.12,3.88,1.55,5.86a28.76,28.76,0,0,1,.53,3.2,59.88,59.88,0,0,1,1,13.08,47,47,0,0,1-2,12,33.23,33.23,0,0,1-5.15,10.2l-.84,1c-.28.35-.67.71-1,1.07a26.86,26.86,0,0,1-2.13,2.14,11.39,11.39,0,0,1-1.17,1c-.4.33-.78.68-1.19,1l-1.3.94-.64.48-.7.44c-7.25,4.82-17.13,8-27.47,9-1.3.11-2.59.25-3.9.29l-2,.11-2.06,0c-2.73,0-5.53-.07-8.36-.25A155.46,155.46,0,0,1,476.3,293c-6-1.16-12.15-2.62-18.43-4.27s-12.67-3.53-19.4-5.38c-13.28-3.72-26.51-7.29-39.71-10.8L379,267.36l-19.75-5q-19.73-5-39.41-9.71t-39.41-9.18a43.88,43.88,0,0,1-5.89-1.61c-1-.44-.73-.63,1.21-.23l48.82,9.75c16,3.27,31.79,6.51,47.86,9.93s32.37,7.12,49.33,11.18c8.47,2,17.13,4.18,26,6.41,8.52,2.2,16.92,4.32,25.1,5.92A133,133,0,0,0,500,287.71a78.29,78.29,0,0,0,11.65-1,60.16,60.16,0,0,0,10.46-2.66c6.5-2.29,11.6-5.6,14.83-9.11.2-.22.44-.42.62-.65l.54-.68c.17-.22.41-.44.54-.64s.26-.4.4-.58a19.12,19.12,0,0,0,1.42-2.52,23.1,23.1,0,0,0,1.22-3,25.28,25.28,0,0,0,.94-3.49,44.09,44.09,0,0,0-.37-17.83c-.35-1.59-.78-3.17-1.26-4.73s-1-3-1.68-4.49-1.3-2.82-2-4.09a31.77,31.77,0,0,0-2.18-3.36,33.08,33.08,0,0,0-4.57-5.23,50.25,50.25,0,0,0-7-5.3l-1.11-.71c-.36-.25-.82-.47-1.22-.7-.87-.46-1.6-1-2.57-1.46s-1.8-1-2.79-1.45l-3-1.5c-4.21-2-8.92-4-14-6.19l-8.12-3.63c-2.37-1.11-4.75-2.25-7.18-3.27-1.21-.53-2.42-1-3.64-1.54l-3.67-1.54c-2.47-1-4.95-2-7.47-2.84a239.74,239.74,0,0,0-31.55-9.2c-5.51-1.26-11.16-2.28-17-3.33-3-.53-5.94-1-9.06-1.5s-6.31-1.09-9.71-1.74l-2.6-.51L396,176.7c-.44-.09-1-.24-1.43-.36l-1.95-.46c-.34-.1-.63-.38-1-.51l-1-.29-2-.58a32.91,32.91,0,0,1-13.47-8.11l-1.48-1.28c-.42-.49-.75-1.06-1.13-1.59a37.79,37.79,0,0,1-2-3.32,24.41,24.41,0,0,1-2.58-7.23,34.76,34.76,0,0,1,1.31-15.84,10.46,10.46,0,0,1,.72-2l.95-1.93.85-1.94c.3-.64.75-1.22,1.11-1.83s.73-1.22,1.08-1.84a10.7,10.7,0,0,1,1.13-1.78l.63-1,.45-.64.85-1.13a69.8,69.8,0,0,1,7.38-8.19,67.83,67.83,0,0,1,8.58-6.93,62.39,62.39,0,0,1,10.25-5.53c7.33-3.11,15.29-4.35,22-5.09l4.91-.58c.8-.09,1.53-.21,2.3-.32l2.17-.34c1.41-.26,2.74-.55,3.94-.87.63-.17,1.16-.37,1.73-.55s1.07-.39,1.55-.61a13,13,0,0,0,4.33-2.91,19,19,0,0,0,2.37-3.42,36.6,36.6,0,0,0,3.61-8.24,12.86,12.86,0,0,0,.47-3.85,3.17,3.17,0,0,0-.76-2.23l-.29-.13h.2c.25,0,.52-.06.79-.11h0l-.27.07-.3.1-.06,0-.16.06-.31.11a6.31,6.31,0,0,0-.58.25l-.34.16-.21.09h0l-.14.06a1.6,1.6,0,0,1-.77,0c-.81-.22-2.34-.91-4.27-1.65a70.76,70.76,0,0,0-7.09-2.26c-2.68-.72-5.65-1.34-8.69-1.85s-6.24-.89-9.27-1.08l-2.22-.12c-.72,0-1.32,0-2,0-1.27,0-2.57.13-3.82.19a57.86,57.86,0,0,0-7.53,1.2,71.73,71.73,0,0,0-14.81,5.17c-1.23.63-2.45,1.16-3.67,1.86-.61.33-1.22.64-1.83,1l-.1.06h0l0,0,0,0-.1.07-.75.54c-.51.36-1,.68-1.51,1.06l-3,2.19c-2,1.42-4,3-6,4.48s-4,3.15-5.93,4.85a5.45,5.45,0,0,1-5,1.9,8.65,8.65,0,0,1-5.44-3.22,10.81,10.81,0,0,1-2.49-8.12c-.28.22-.57.42-.86.62-.55.18-1.1.35-1.65.55a6.53,6.53,0,0,1-5-.48l-2.19-1c-3.62-2.27-7.8-3.28-11.56-5.77l-.75-1.5-.56-.15a8.35,8.35,0,0,1-4.43-2.1L325.93,69a18.5,18.5,0,0,1-2.56-6.17,6.68,6.68,0,0,1-1.23-2.12A9.53,9.53,0,0,1,317.67,56a1.3,1.3,0,0,1-1.05-1.64,1.5,1.5,0,0,1,.42-.69h0a12.06,12.06,0,0,0-1.39-.52c-.54.18-.87.26-.87.26l-2.55,1.07a7.58,7.58,0,0,1-2.44-.24c-3.23-2-3.25-2-4.09-3.32a4,4,0,0,1-.09-.48c-1.11.2-1.19.21-1.5.25a3.58,3.58,0,0,1-.76-.17c-.57-.61-.57-.61-.9-.74a3.52,3.52,0,0,1-.44-.45c-.16-1-.16-1-.32-1.25a2.11,2.11,0,0,1,0-.54c.34-.61.48-.85.53-1l2.51.81-.23-.75.89.57-.72-.59h.91l-1.15-.13a7.44,7.44,0,0,0,2.08-1.16,3,3,0,0,0,1-.89,3.74,3.74,0,0,1-.35-.34c1.68-.78,1.69-.76,3.34-1.46a5.58,5.58,0,0,1,.69.23.8.8,0,0,1,.51-.72l.85-.39.08-.2,0-.06.39-.76a1.27,1.27,0,0,1,.08-.17h0c.28-.51.66-1.28,1.75-3.27a12.76,12.76,0,0,1,1.54-.47l-.61-.09c-.4-.08-.62-.84-.8-.82-4.22.71-8.18,2.52-12.2,4.27a1.52,1.52,0,0,1-1.94.13,1.16,1.16,0,0,1,.17-1.75,26.43,26.43,0,0,1,10-10.06,38.11,38.11,0,0,1,13.88-4.75l6.84-2.24-.49-.18,1.94-.28.2-.06-1.91-.59c-.36,0-.72,0-1.07.07-5.24,1.88-10.78,2.4-16.26,3.9-2.94.81-5.86,1-8.83,1.61a1.23,1.23,0,0,1-1.65-.35,1.18,1.18,0,0,1,.73-1.48c7.44-5.66,17.73-9.79,26.69-8.77a9.42,9.42,0,0,1,4.85-.78H336L334.53,14c1.3-.25,2.32.29,3.55.2L337,13c6.18-1.54,12.49-4.2,18.85-3.87.23,0,.46,0,.68-.07a32.44,32.44,0,0,1,3.27-2.31c.29-.18.59-.35.89-.51l.12-.06.06,0,0,0,.12,0c.76-.22,1.55-.41,2.33-.61,1.58-.39,3.14-.82,4.77-1.15a129.76,129.76,0,0,1,20.49-2.93c-2.43.15-4.89.23-7.27.51l-3.6.37-3.56.49c-2.39.3-4.7.76-7.07,1.17-1.17.22-2.32.48-3.49.72l-3,.67,0,0,.41-.12.93-.25,1.86-.49c1.24-.31,2.46-.65,3.73-.92l3.78-.83c1.27-.27,2.56-.47,3.84-.71,2.54-.49,5.18-.79,7.78-1.14l4-.38,2-.17,2-.1A124.62,124.62,0,0,1,407.32.4c2.78.29,5.55.52,8.35,1,1.39.24,2.79.44,4.19.72l4.2.91c1.9.38,3.77,1,5.65,1.47l1.41.4.7.2.63.2c.89.28,1.79.57,2.66.87,3.48,1.2,6.83,2.5,10.18,3.93a138.92,138.92,0,0,1,19.79,10.36A89.21,89.21,0,0,1,484,36.26a60.47,60.47,0,0,1,8.07,11.51,49,49,0,0,1,5,14.19,46.26,46.26,0,0,1,.26,14.43c-.17,1.1-.31,2.23-.56,3.26s-.48,2.08-.74,3.1a53.49,53.49,0,0,1-2,5.69,55.1,55.1,0,0,1-2.39,5.13c-.9,1.59-1.77,3.16-2.75,4.58a54.05,54.05,0,0,1-6.2,7.81,50.78,50.78,0,0,1-14.26,10.64,45.82,45.82,0,0,1-7.46,3,43.62,43.62,0,0,1-6.95,1.37,46.67,46.67,0,0,1-11.14.47c-3.47-.26-6.64-.76-9.57-1.25-5.84-1-10.92-1.82-15.48-1.33a22,22,0,0,0-12.1,5.08,41.53,41.53,0,0,0-9.21,10.74c-.56.93-1.25,2.31-1.36,2.44a15,15,0,0,0-.69,1.39,9,9,0,0,0-.77,3,4.32,4.32,0,0,0,.76,2.92A4.87,4.87,0,0,0,397,146a9.58,9.58,0,0,0,1.5.34c.14,0,.24,0,.36.06s.21,0,.33,0h.4l1.75,0q3.62-.07,7.68-.48c5.38-.47,11.11-1.13,16.92-1.77,11.67-1.25,23.84-2.35,36.23-2.47,6.19,0,12.45,0,18.72.44s12.58,1,18.86,2c1.57.2,3.13.49,4.7.74l4.58.77,4.29.76,4.38.83c5.92,1.17,12.07,2.54,18.45,4.4A125.48,125.48,0,0,1,556,159.09a100,100,0,0,1,20.06,12.66c1.32,1.11,2.58,2.23,3.72,3.3s2.12,2.19,3,3.14a18.87,18.87,0,0,1,3.05,4.05c.14.83-3.13-2.43-8.17-7-1.11-1-2.25-1.9-3.38-2.84s-2.32-1.73-3.48-2.58a81.92,81.92,0,0,0-7.12-4.66c-1.2-.77-2.41-1.34-3.61-2s-2.41-1.32-3.62-1.88c-2.4-1.08-4.83-2.28-7.19-3.17a163,163,0,0,0-27.37-8.06c-2.16-.43-4.33-.89-6.41-1.27l-6.25-1.14c-2-.36-4.32-.72-6.55-1.1s-4.5-.68-6.75-1a239.09,239.09,0,0,0-27-2c-9-.16-17.84.15-26.55.75s-17.26,1.51-25.49,2.35c-4.1.39-8.12.76-11.91,1-1,.07-1.84.06-2.77.1s-1.75,0-2.64,0a5,5,0,0,1-1-.08c-.19-.08-.44,0-.64-.09a11.69,11.69,0,0,1-1.3-.31,7,7,0,0,1-2.39-1.15,4.63,4.63,0,0,1-1.48-2.18,8.17,8.17,0,0,1,.48-5.24,9.27,9.27,0,0,0-.77,4.44,5.05,5.05,0,0,0,.76,2.13l.33.47a5,5,0,0,1,.41.39,4.38,4.38,0,0,0,.92.68,8.87,8.87,0,0,0,2.12.85c.37.11.74.18,1.12.27a1.28,1.28,0,0,1,.55.09c.28,0,.65,0,1,.06,2.86.09,6.08,0,9.39-.26s6.72-.47,10.22-.76,7-.6,10.6-.87c7.17-.53,14.49-1,21.91-1.12A241.91,241.91,0,0,1,497,148.24c1.9.3,3.79.65,5.68,1s3.84.73,5.52,1.1c3.49.72,7,1.47,10.69,2.34a184.59,184.59,0,0,1,22.73,6.68,107,107,0,0,1,24.47,12.36,80.53,80.53,0,0,1,20.64,20.92l2.64,3.86c.77,1.29,1.58,2.58,2.3,3.89s1.46,2.62,2.11,3.94,1.32,2.65,1.92,4a108,108,0,0,1,5.93,16.33,110.67,110.67,0,0,1,4,34.23,93.53,93.53,0,0,1-8.23,35.2,81.41,81.41,0,0,1-10,16.34c-1,1.25-2.07,2.52-3.12,3.71l-3.23,3.4c-1.07,1.14-2.25,2.14-3.38,3.21-.57.52-1.14,1.05-1.73,1.56l-1.79,1.45c-2.36,2-4.86,3.71-7.36,5.45s-5.11,3.22-7.74,4.58a103.55,103.55,0,0,1-16.1,7,119.24,119.24,0,0,1-16.53,4.29,136.88,136.88,0,0,1-16.71,2c-22.31,1-43-3.33-62.11-8.48-4.07-1.12-8.07-2.25-11.93-3.41l-11.25-3.4q-11-3.36-21.74-6.56c-14.37-4.32-28.56-8.39-42.73-12.54s-28.35-8.21-42.78-12.26l-21.82-6.15L273.06,288l-15.8-4.3-15.6-4.2-7.7-2-3.83-1-3.77-.94c-2.51-.63-5-1.27-7.38-1.8l-3.57-.83-2.87-.58-.73-.15-.88-.13-1.77-.26-3.54-.53c-2.35-.41-4.72-.59-7.08-.88L195,270l-3.56-.26c-2.37-.15-4.73-.41-7.11-.48L177.2,269c-1.18-.06-2.37-.05-3.56,0l-3.58,0c-4.76-.05-9.54.29-14.32.49-1.19,0-2.39.14-3.58.25l-3.59.33c-2.4.25-4.8.37-7.19.7l-7.19,1-3.6.48-3.6.63c-4.79.87-9.62,1.56-14.42,2.71l-7.22,1.57c-1.21.24-2.41.55-3.61.88l-3.6.95-7.24,1.86c-1.22.28-2.42.66-3.62,1l-3.61,1.09-7.25,2.18-1.82.54-1.81.62-3.61,1.25c-9.71,3.13-19.34,6.91-29.12,10.73-5.14,2.21-10.15,4.23-14.1,5.64s-6.69,2.53-7.46,2.5.62-1,3.49-2.63c1.42-.84,3.25-1.72,5.37-2.7s4.49-2.09,7.07-3.22a450.19,450.19,0,0,1,61.4-22.18c2.59-.7,5.17-1.49,7.77-2.13l7.82-1.81c5.19-1.33,10.45-2.15,15.67-3.16,2.6-.56,5.23-.85,7.85-1.26s5.23-.8,7.85-1.11l7.87-.79c1.31-.11,2.61-.3,3.92-.36l3.93-.22c2.62-.12,5.24-.35,7.86-.38l7.83-.13c1.31-.05,2.61,0,3.92,0l3.9.11,3.91.11,3.89.27c5.2.28,10.36.9,15.51,1.53L213,267.5l3.25.65,3.83.88c2.54.56,5.25,1.26,7.92,1.92s5.37,1.36,8.08,2.07c5.4,1.39,10.86,2.88,16.3,4.34q16.36,4.42,32.81,9c43.82,12.33,87.9,25.13,132.09,38.77l16.65,5.19c5.7,1.76,11.53,3.51,17.53,5.15a226.76,226.76,0,0,0,38.22,7.39l5.09.4,5.15.23c1.74,0,3.46.07,5.22.05s3.56-.06,5.34-.16a122,122,0,0,0,21.33-3,108.36,108.36,0,0,0,21-7.2,93.37,93.37,0,0,0,19.73-12.3c1.35-1,2.62-2.23,3.89-3.39.64-.59,1.28-1.16,1.9-1.76l1.8-1.88,1.79-1.88c.59-.65,1.17-1.35,1.74-2,1.18-1.35,2.23-2.8,3.3-4.22a79.22,79.22,0,0,0,9.89-18.43,95.26,95.26,0,0,0,5.7-38.62c-.13.33-.27.64-.43.65-.64,0-1.28-2.35-2.18-6.22.35,3.49.54,7,.55,10.55a101.68,101.68,0,0,1-.57,10.71,88.51,88.51,0,0,1-5.05,21.45,76,76,0,0,1-11.17,20.05c-.58.78-1.19,1.54-1.84,2.27s-1.26,1.5-1.91,2.2c-1.32,1.36-2.62,2.74-4,4.05s-2.78,2.55-4.22,3.73-2.92,2.35-4.43,3.42a96,96,0,0,1-12.9,8.2,107.66,107.66,0,0,1-13.71,5.9,111.12,111.12,0,0,1-14.12,3.87c-1.19.27-2.38.49-3.57.68s-2.39.42-3.58.58c-2.39.31-4.79.64-7.19.8-19.28,1.51-37.6-1.4-54.65-5.57-8.53-2.11-16.79-4.54-24.82-7l-23.67-7.41c-15.84-5-31.93-9.95-48.21-15.15l-64.53-20.7c-20.86-6.72-41.36-13.24-62-19.42-3.29-.85-6.55-1.63-9.82-2.45l-4.8-1.11c-.78-.17-1.63-.38-2.36-.53l-2.13-.42c-.74-.13-1.37-.29-2.19-.4l-2.4-.34-4.8-.7c-3.2-.42-6.42-.7-9.64-1.07a245.39,245.39,0,0,0-38.92-.28c-1.63.12-3.26.16-4.89.33l-4.88.52c-3.26.35-6.52.62-9.77,1.18l-9.76,1.48-9.73,1.88c-3.26.56-6.47,1.42-9.71,2.17l-4.85,1.16-2.43.57-2.41.69-9.65,2.72-2.42.68c-.8.24-1.59.51-2.39.77l-4.79,1.57a33.75,33.75,0,0,1-5,1.39c-.79.09.26-.41,2.32-1.12A334.65,334.65,0,0,1,131,260.48a270.11,270.11,0,0,1,56-4.14c-5.9-.87-9.46-1.7-9-2.55.24-.44,1.52-.81,3.64-1.13,1.07-.16,2.34-.3,3.79-.43s3.09-.12,4.88-.15c-4.32-.41-8.67-.4-13-.56l-1.63-.05-1.63,0-3.27,0-6.53.09c-5.37.29-9.64.21-9.52-.22s4.35-1,9.5-1.36l6.7-.12c2.24,0,4.47-.13,6.7,0,4.46.14,8.92.17,13.36.56,2.22.18,4.44.26,6.65.52l6.64.73,1.65.18,1.65.25,3.3.5,3.3.49c1.12.15,2.1.4,3.15.6,2,.37,4.27.94,6.43,1.44s4.37,1.07,6.56,1.62c4.39,1.09,8.79,2.29,13.19,3.45,8.79,2.37,17.58,4.82,26.38,7.27,42.37,11.33,84.48,23.27,126.65,35.75-5.63-2.44-9.68-4.56-11.45-6.09a0,0,0,0,1,0,0l-19.53-5.79q-45-12.3-90.53-24.32c-15.18-4-30.42-7.93-45.65-11.54-1.9-.46-3.8-.9-5.69-1.3s-3.82-.88-5.6-1.17l-2.72-.51c-.92-.16-1.9-.26-2.85-.4l-5.72-.77c-1.91-.25-3.83-.39-5.75-.59s-3.83-.42-5.76-.51l-5.78-.33-2.89-.17c-1,0-1.93,0-2.89-.05a277.44,277.44,0,0,0-46.37,2.84c-3.84.64-7.7,1.17-11.53,1.88l-11.48,2.33c-3.81.85-7.6,1.86-11.4,2.79s-7.56,2.06-11.33,3.15c-7.57,2.06-15,4.78-22.44,7.26-3.69,1.38-7.36,2.83-11.05,4.23l-5.53,2.12-5.45,2.34-10.9,4.69c-3.6,1.66-7.17,3.39-10.75,5.09-7.23,3.27-14.21,7.1-21.29,10.73A22.37,22.37,0,0,1,0,301.06a18.13,18.13,0,0,1,3.55-2.12l12.78-6.66c2.11-1.16,4.31-2.1,6.47-3.16l6.49-3.1,6.49-3.08,6.59-2.84L49,277.25l3.29-1.42,3.34-1.29a376.94,376.94,0,0,1,54.28-17.38l-.16,0c-1.51.25-1.83.13-.24-.4a34.06,34.06,0,0,1,5.79-1.34c1.76-.22,1.64,0,.26.4a289,289,0,0,1,52.15-6.75l6.54-.19c1.1,0,2.19,0,3.28,0l3.27,0c2.18.05,4.36,0,6.53.13l6.53.37c1.08.07,2.17.1,3.26.2l3.24.32c2.17.22,4.34.39,6.5.65,4.3.59,8.68,1.09,12.72,1.93,8.49,1.76,17.12,3.94,25.68,6l25.69,6.57q25.65,6.68,51.1,13.55c-15.7-4.48-31.41-8.94-47.14-13.26s-31.48-8.61-47.24-12.48c-3.92-.93-7.88-1.87-11.67-2.57-1.94-.34-4-.58-5.94-.88s-4-.61-6-.78l-6-.64c-2-.25-4-.3-6-.46l-6-.38-6-.14a274.94,274.94,0,0,0-48.09,3.36l-5.18,1-5.14,1.21-5.16,1.22c-1.72.42-3.46.76-5.17,1.28a35.39,35.39,0,0,1-5.17,1.05c-.57,0,.77-.53,2.7-1.06s3.8-1.11,5.74-1.52c-.75.15-1.5.28-2.22.44l-2.13.5-4,.88c-2.54.54-4.83,1-6.75,1.3s-3.44.64-4.51.73-1.65.06-1.67-.18c.36-1.13,10.36-4.83,22.92-7.56,33.49-7.62,68.39-9.46,102.27-3.73l2.75.48,2.73.57c1.81.38,3.64.72,5.45,1.15,3.67.72,7.33,1.4,11,2.16-6.45-1.7-12.91-3.32-19.44-4.8-1.66-.32-3.31-.67-5-1l-5-.73c-1.66-.22-3.31-.52-5-.69l-5-.53a259.1,259.1,0,0,0-40.07-.95c-26.73,1.37-53,6.93-78.38,14.9-4.32,1.45-8,2.59-8.25,2.3s3.18-1.78,7.52-3.29a332.45,332.45,0,0,1,69-16.2,290.24,290.24,0,0,1,35.79-1.77l9,.35c1.5,0,3,.17,4.49.29l4.5.37c3,.19,6,.62,9,1l2.24.28c.75.08,1.5.18,2.28.33,1.52.27,3.1.52,4.59.82,5.91,1.19,11.7,2.49,17.47,3.84l8.64,2.05,8.61,2.12q17.24,4.26,34.38,8.79,34.32,9,68.55,18.67c15.23,3.42,30.44,7,45.75,10.56l46,11-11.35-3.54c-49.38-15.27-95.58-27.16-141.58-38.26-23-5.5-45.88-10.93-69.51-15.82l-4.51-.87-2.26-.43-2.38-.4c-3.24-.59-6.24-.83-9.33-1.19s-6.17-.57-9.27-.79c-1.55-.11-3.1-.24-4.65-.32l-4.67-.16-4.69-.15c-1.56-.08-3.12,0-4.69,0l-4.71,0c-1.57,0-3.14,0-4.71.1l-9.47.45c-3.15.24-6.31.57-9.49.84-1.27.13-2.44.19-3.33.21a6.9,6.9,0,0,1-1.68,0c-.29-.14,1.4-.58,4-.76l9.27-.88c3.08-.21,6.15-.33,9.22-.51s6.12-.19,9.16-.24l4.57,0c1.52,0,3,.07,4.55.09l4.55.13c1.51,0,3,.08,4.53.21,3,.22,6,.37,9,.63s6,.65,9,1l4.69.74c1.53.27,3,.55,4.44.83,11.68,2.25,23,4.79,34.53,7.36s23,5.35,34.78,8.22c19.5,4.73,38.46,9.52,57.07,14.26l54.95,14.11q-27.45-8-54.57-15.23t-54.23-14c-18.08-4.49-36.14-8.91-54.46-13-4.57-1-9.2-2-13.84-3l-7.1-1.42c-1.17-.23-2.53-.43-3.79-.65s-2.58-.44-3.76-.55l-7.28-.83c-2.43-.25-4.87-.38-7.3-.58l-3.66-.27c-1.22-.07-2.44-.09-3.66-.14l-7.34-.25c-3.42.05-6.86-.05-9-.26a6.84,6.84,0,0,1-1.93.26c-2.44.17-4.93.42-7.46.61s-5.11.36-7.7.73l-7.87.93-2,.23-2,.31-4,.63a35.51,35.51,0,0,1-5.74.56C138.3,236.92,139.53,236.59,141.8,236.18Zm190-198.37-.34-.13.93,0,1.91,1.07Zm-7.53,12.9h0l-1.13-.53Zm97,97c-5,.42-9.94.82-14.6,1.05-1.14,0-2.33.12-3.42.11l-1.66,0-1.59,0c-.27,0-.54,0-.78,0l-.37,0h-.18l-.1,0c-.27-.1-.59-.06-.87-.15a16.89,16.89,0,0,1-1.73-.45,6.6,6.6,0,0,1-3-1.89,5.55,5.55,0,0,1-1.2-3.29,12.79,12.79,0,0,1,2-6.69l1.31-2.24c.53-.9,1.14-1.78,1.75-2.65a47.94,47.94,0,0,1,4.1-4.92,40.66,40.66,0,0,1,4.71-4.16,25.79,25.79,0,0,1,5.19-3,26.66,26.66,0,0,1,12-1.81c4.38.21,9.08,1.18,14.43,2-5.24-.69-9.84-1.58-14.12-1.78a26.84,26.84,0,0,0-11.7,1.69,25.54,25.54,0,0,0-7.67,4.8,42.26,42.26,0,0,0-6.48,7.06,39.92,39.92,0,0,0-2.59,4l-.28.51-.14.25-.08.11a.82.82,0,0,0-.15.25l-.16.27c-.22.37-.42.75-.61,1.13a11.25,11.25,0,0,0-1.29,5,5.37,5.37,0,0,0,.59,2.52,5,5,0,0,0,1.74,1.9,9.64,9.64,0,0,0,2.4,1c.42.13.85.22,1.28.31a2.25,2.25,0,0,1,.66.12c.37,0,.72.06,1.13.06,3.15.12,6.66,0,10.26-.21S417.4,148,421.18,147.72ZM319.83,36.54a17.42,17.42,0,0,1,4.66,1.24,7.54,7.54,0,0,1,2.08-1.52A54.87,54.87,0,0,1,333,33.52c-.59-.42-.07-.61.14-.81l.67-.53-7.23,2.2C324.34,35.05,322.08,36.05,319.83,36.54ZM307.27,48.16l-.32-.07L306.66,47Zm.55,1.79.36-.09C308.33,50.24,308.15,50.19,307.82,50Zm3.35-.85a2.37,2.37,0,0,0-.7-.18Zm20.35,22.7-2.32-4.75,2.13,4.65Z"/></symbol><symbol id="MA" data-name="MA" viewBox="0 0 440.18 349.36"><path d="M7.06,16c.24.12.48.28.72.41a1.9,1.9,0,0,1-1.6.51,14.83,14.83,0,0,0,5.54,1,18,18,0,0,0,5.41-1,26.42,26.42,0,0,0,9.38-5.76,3.64,3.64,0,0,0,3.75-3.26c0-1.74-1.71-3.09-3.85-3A5.72,5.72,0,0,1,25,4.43,29.2,29.2,0,0,0,13.23,0L15.9,1.17A11.19,11.19,0,0,0,12.07.83l.62.87A10.77,10.77,0,0,0,5.8,1.65a8.76,8.76,0,0,0-5,4.08c-2,3.81.06,8.07,4.36,9.56Z"/><path d="M16,24.7c-2.41-.73-4.78-1.56-7.19-2.4l-.54-.49L9,24.41v-.18c1.53-2.58,4.7-4.07,7.69-5.22l1-.54a2.19,2.19,0,0,0,.77-1.56,2.44,2.44,0,0,0-2.65-2.35c-.58,0-1.15,0-1.73,0a15.06,15.06,0,0,0-7.29.46A7.08,7.08,0,0,0,2,19.91c-.27,1.13.48,2.34.87,3.52A3.47,3.47,0,0,0,6.9,26.11a3.53,3.53,0,0,0,3.18-3.7l1.1.18-.67.77c.25-1.62,2-2.29,3.23-3.34l2-.78L13.8,15.36l-1,.73c.11.16.32.39.31.41a43.46,43.46,0,0,1-5.61,4.06L5.07,22.62a1.83,1.83,0,0,0,.73,2.6l1.4.62-.66-.4c3,.31,6.05.35,9,.83a1,1,0,0,0,1.12-.6A.77.77,0,0,0,16,24.7Z"/><path d="M6.29,27.11a2.24,2.24,0,0,0-1.65-.24l-.2.38,1,.51C6.22,28.13,6.45,27.68,6.29,27.11Z"/><path d="M4.44,27.25,4,27l.34.33.06,0Z"/><path d="M159.26,290.05c.54.22,1.1.37,1.66.55l.42.11c.16,0,.24.08.5.14.44.09.93.23,1.4.33s.95.2,1.47.27l1.61.2,1.61.23,1.65.08a51.84,51.84,0,0,0,13.59-1,61.35,61.35,0,0,0,13.76-4.65,69.88,69.88,0,0,0,12.79-7.92c1.05-.73,2-1.6,2.94-2.41s1.89-1.69,2.8-2.57l1.38-1.31,1.28-1.4,1.29-1.38c.43-.48.83-1,1.25-1.5a83.83,83.83,0,0,0,8.93-13.14,104.27,104.27,0,0,0,10.94-31.51,6.34,6.34,0,0,0,.18-2.91c-.16-.1-.44,1.07-.72,2.46A104,104,0,0,1,229.18,254a83.07,83.07,0,0,1-8.81,13.05l-1.23,1.5c-.41.48-.86.91-1.28,1.38-.85.91-1.67,1.85-2.61,2.68a69.82,69.82,0,0,1-5.64,4.95,64.85,64.85,0,0,1-26.18,12.55A51.53,51.53,0,0,1,170,291.26a26,26,0,0,1-3.21-.28c-1-.16-2.18-.23-3.07-.45-.48-.08-.94-.2-1.4-.32-.21-.06-.47-.1-.61-.15l-.4-.12a4.25,4.25,0,0,1-.79-.24,7.24,7.24,0,0,1-.79-.25c-.56-.19-1.07-.26-1.24-.11S158.72,289.84,159.26,290.05Z"/><path d="M344.94,28.93c-1.34.18-1.27.32.12.35,1.19,0,3.31-.11,4.63-.14,1.12-.07,1.08-.25-.11-.36A21.89,21.89,0,0,0,344.94,28.93Z"/><path d="M335,41.5a70.89,70.89,0,0,0-18.15,6.7,29.53,29.53,0,0,1-2.95,1.34c.24,0,.08.22-.42.56a27,27,0,0,1-2.32,1.54l-2,1.18c-.32.2-.65.38-1,.59l-.94.66-3.77,2.64c-2.38,1.93-4.85,3.76-7,5.92S292.1,67,290,69.2l-2.91,3.57c-.24.3-.49.59-.72.89l-.66,1-1.32,1.88-1.33,1.87-1.17,2-1.18,2-.59,1c-.18.34-.34.68-.51,1l-2,4.08-1.71,4.21a81.51,81.51,0,0,0-4.37,17.79,126.42,126.42,0,0,0-.71,19.17c.23,6.56.94,13.29,1.77,20.13s1.91,13.83,2.89,21c.51,3.56,1,7.21,1.43,10.84s.84,7.37,1.13,11.15a9,9,0,0,1,.81,2.52,38.43,38.43,0,0,1,.61,3.91c.16,1.55.38,3.27.44,5.2a98.8,98.8,0,0,1-.26,12.84c-.22,2.27-.46,4.54-.8,6.81a158.35,158.35,0,0,1-4,20.47,145,145,0,0,1-6.89,19.9,124.87,124.87,0,0,1-10,18.81,116.17,116.17,0,0,1-13.4,17c-1,1.14-2,2.32-3,3.52s-2.29,2.33-3.5,3.53-2.56,2.34-3.91,3.54c-.68.59-1.36,1.19-2.08,1.77l-2.23,1.7c-2.43,2-5.05,3.82-7.66,5.66-1.33.88-2.69,1.71-4.05,2.56s-2.76,1.64-4.17,2.4-2.81,1.59-4.3,2.25L205.18,329c-1.5.65-3,1.22-4.56,1.82-.77.29-1.53.62-2.31.88l-2.36.76-2.38.75-1.19.38-1.21.3-4.89,1.21c-1.65.34-3.32.61-5,.91s-3.37.49-5.08.66a98.89,98.89,0,0,1-10.37.55c-3.5-.15-7-.22-10.65-.73,1.78.49,2.86.88,2.8,1.17-.32.29-2.21.42-5,.1l-1.12-.12a8.1,8.1,0,0,1-1.34-.18c-.92-.17-1.89-.36-2.9-.58a58.88,58.88,0,0,1-6.38-1.86,70.75,70.75,0,0,1-12.76-5.83A74,74,0,0,0,147,337.14c.81.25,1.64.43,2.46.64l1.24.3.62.14c.1,0,.2.09.31,0l.28.06c1.49.28,2.91.59,4.38.79l2.18.32,2.12.21,4.23.38c1.63.12,3.12.1,4.49.18a99.56,99.56,0,0,0,36-6.85,112.82,112.82,0,0,0,33.2-20.13l1.81-1.56L242,310c1.15-1.11,2.32-2.19,3.42-3.34,2.18-2.33,4.37-4.64,6.35-7.14s3.85-5,5.69-7.49c.87-1.28,1.71-2.58,2.55-3.88.42-.64.85-1.28,1.25-1.94l1.17-2a135.82,135.82,0,0,0,13.84-33.09,156.2,156.2,0,0,0,5.27-34.05c.09-1.41.12-2.82.14-4.23s.06-2.82.05-4.23c-.06-2.81-.07-5.64-.26-8.37l-.24-4.12c-.09-1.36-.23-2.69-.35-4l-.37-4-.46-3.93c-1.25-10.47-2.92-20.41-4.33-30A240.7,240.7,0,0,1,273,126.34a97.27,97.27,0,0,1,2.37-25.7,8.52,8.52,0,0,1,.52-1.85,15.5,15.5,0,0,1,.69-1.68c.33-.57.46-.39.15.77l-.51,1.86c-.17.61-.24,1.28-.37,1.92-.24,1.28-.47,2.56-.7,3.83s-.29,2.6-.43,3.89l-.21,1.93-.08,2c0,1.3-.1,2.61-.15,3.9s0,2.65.07,4c0,.66,0,1.3,0,2l.14,2c.09,1.34.16,2.65.27,4,1,10.77,3.1,21.7,5.42,33.51,1.15,5.85,2.3,12,3.37,18.39.48,3.27,1.05,6.47,1.43,9.9.2,1.7.43,3.39.61,5.13s.3,3.53.46,5.31a160.84,160.84,0,0,1-3.14,46.31,149.78,149.78,0,0,1-9.48,28.77,129,129,0,0,1-16.18,26.95A124.59,124.59,0,0,1,234,326.13a121.26,121.26,0,0,1-29.16,16,115.43,115.43,0,0,1-16.55,4.9c-1.43.3-2.89.53-4.34.79s-2.89.54-4.37.68l-4.45.45-2.23.21-2.26.08-4.53.11c-1.52,0-3-.09-4.57-.14s-3-.13-4.6-.26-3.19-.32-4.79-.58l-2.44-.38a.81.81,0,0,0-.16,0c-.08.08-.12,0-.19,0l-.35-.07-.71-.14-1.42-.3c-1.89-.38-3.75-.87-5.62-1.38s-3.7-1.13-5.53-1.75-3.64-1.34-5.41-2.13A75.12,75.12,0,0,1,110.75,330c-1.45-1.28-2.88-2.58-4.2-4s-2.62-2.84-3.86-4.33A67.28,67.28,0,0,1,96.23,312l-1.37-2.57c-.41-.89-.8-1.78-1.19-2.67-.79-1.78-1.45-3.61-2.12-5.45a73.42,73.42,0,0,1-2.86-11.4,78.92,78.92,0,0,1-1.06-11.82c0-2,0-4,.1-6l0-.75a3.85,3.85,0,0,1,0-.76l.12-1.52c.08-.88.13-1.72.23-2.53.4-3.46,1-6.72,1.63-9.89.35-1.54.68-3.13,1.07-4.61l.58-2.25.59-2.08c1.57-5.55,3.36-10.86,5.29-15.86,3.85-10,8.11-19.05,12.16-27.36s8-15.95,11.25-23.09a150.41,150.41,0,0,0,7.74-19.67A56.93,56.93,0,0,0,131.1,146c0-.56,0-1.12,0-1.68l-.1-1.63,0-.4-.07-.37-.12-.74c-.08-.49-.14-1-.19-1.46a7.84,7.84,0,0,0-.32-1.48c-.12-.49-.22-1-.32-1.47a8.35,8.35,0,0,0-.45-1.48c-.16-.5-.32-1-.46-1.49a46.64,46.64,0,0,0-6.42-12A60,60,0,0,0,112,110.69a62.83,62.83,0,0,0-8.91-6c-1.5-1-3.15-1.57-4.67-2.4-.79-.34-1.59-.62-2.37-1l-1.17-.5c-.41-.16-.88-.3-1.32-.45-.89-.3-1.77-.61-2.65-.93l-2.74-.77-1.36-.41L85.35,98l-2.81-.66c-2-.29-3.82-.76-5.84-1-1-.12-2-.29-3-.39l-3-.26c-1-.12-2.06-.13-3.09-.18L66,95.46h-.29l-.92.06L63,95.7c-1.24.13-2.44.13-3.7.29-4.94.37-10,.94-15.19,1.65a6.14,6.14,0,0,1-5.52-1.11,10.4,10.4,0,0,1-3.67-5.82,10.69,10.69,0,0,1,1.32-8.5l-1.08.1-1.78-.38a7.29,7.29,0,0,1-4.45-3l-1.59-2c-2.34-3.83-5.73-6.69-8-10.73V64.6l-.44-.4a8.75,8.75,0,0,1-3.08-3.94l-.3-2a18.89,18.89,0,0,1,.45-6.72,6.74,6.74,0,0,1-.16-2.48,9.72,9.72,0,0,1-1.89-6.35,1.34,1.34,0,0,1-.21-2,1.44,1.44,0,0,1,.67-.43h0a13.73,13.73,0,0,0-1-1.09c-.55-.08-.88-.15-.88-.15C11,39,11,39,9.68,38.94a7.16,7.16,0,0,1-2-1.29c-1.95-3.26-2-3.26-2.13-4.81,0-.16.08-.32.13-.48-1.05-.3-1.13-.32-1.42-.43a3.13,3.13,0,0,1-.58-.49c-.24-.8-.24-.8-.47-1.06a3.37,3.37,0,0,1-.19-.6c.32-1,.32-1,.27-1.28a2.34,2.34,0,0,1,.2-.5l.88-.64,1.82,1.83.12-.79.53.9-.37-.85.79.4-.94-.61a6.93,6.93,0,0,0,2.3-.18,2.86,2.86,0,0,0,1.27-.4,3.48,3.48,0,0,1-.16-.46c1.79,0,1.79,0,3.54.1a4.15,4.15,0,0,1,.51.52.77.77,0,0,1,.75-.46h.91l.16-.16v-.07l.66-.55.14-.13h0c1-.8,1.94-1.56,2.93-2.32a10.89,10.89,0,0,1,1.56.2c-.18-.11-.34-.22-.5-.34-.33-.24-.2-1.06-.36-1.11a28.89,28.89,0,0,0-3.07-.66c-1-.15-2.06-.24-3.1-.31-2.08-.12-4.21-.19-6.31-.2A1.37,1.37,0,0,1,5.8,21a1.22,1.22,0,0,1,.88-1.55c7.33-5.85,18.15-6.8,27.22-4.14,2.35.25,4.68.36,7,.61l-.36-.38,1.85.53.19,0-1.46-1.38c-.33-.13-.65-.26-1-.37a45.46,45.46,0,0,1-8-1.24c-2.65-.58-5.3-1.18-8-1.6-2.93-.44-5.55-1.42-8.41-2.07a1.16,1.16,0,0,1-1.3-1,1.21,1.21,0,0,1,1.26-1.09C24.45,4.94,35.29,5,42.89,9.61a8.4,8.4,0,0,1,4.65,1.14l.07,0L46.54,9.6c1.26.25,2,1.25,3.11,1.66-.15-.51-.32-1.11-.47-1.63,3.11.51,6.31.59,9.49,1.06a44.65,44.65,0,0,1,4.67.82,24.11,24.11,0,0,1,4.4,1.61,6.17,6.17,0,0,1,.65.2,30,30,0,0,1,3.9-1.23c.33-.06.67-.13,1-.18h.33l1.74.14,3.54.32a143.3,143.3,0,0,1,14.76,2.38L88.57,13.5c-1.7-.35-3.39-.66-5.09-1s-3.4-.67-5.1-.89l-4.79-.71h0l.31,0,.69.05,1.4.1,2.78.22c1.85.12,3.72.42,5.58.64,3.73.42,7.5,1.14,11.28,1.87a137.8,137.8,0,0,1,23,6.89c2.65,1,5.25,2.19,7.87,3.39l2,.91,1,.46,1,.52,4,2.12c1.31.74,2.66,1.4,3.92,2.21l3.78,2.38c1.25.82,2.53,1.58,3.73,2.45l3.58,2.62a130.07,130.07,0,0,1,24.45,23.78A113.2,113.2,0,0,1,189.4,87.45c.95,2,1.68,4.17,2.39,6.18l1,3c.32,1,.63,1.91.86,2.88q.74,2.86,1.32,5.45c.18.87.39,1.69.52,2.52s.22,1.64.33,2.42a107.38,107.38,0,0,1,4.79,34.06,119.72,119.72,0,0,1-5.56,32.45c-1.56,5-3.33,9.81-5.24,14.37s-3.94,8.91-6,13.11c-4.15,8.35-8.46,16.07-12.52,23.38-8.14,14.6-15.24,27.9-19,40.29a52.59,52.59,0,0,0-1.8,8,6,6,0,0,0-.06.65,4.7,4.7,0,0,0,0,.53c0,.36,0,.72,0,1.08a15,15,0,0,0,.19,2.12,11.91,11.91,0,0,0,1.41,4,10.93,10.93,0,0,0,2.79,3.11c.92.69,1.65,1.41,1.62,1.84s-1.06.31-2.13-.41a13.23,13.23,0,0,1-2.59-2.14,12.06,12.06,0,0,1-1.89-2.83,15.09,15.09,0,0,1-1.37-6.76c0-.29,0-.6,0-.87,0-.08,0-.12,0-.24l0-.33c0-.22.06-.46.09-.69.12-.93.29-1.91.48-2.91s.44-2,.7-3.1l.44-1.6.52-1.73A122.07,122.07,0,0,1,156.16,251c4.34-9.77,10-19.93,15.9-30.91s12.19-22.81,17.19-36.43a245.76,245.76,0,0,1-15.14,30.56c-5.29,9.31-10.55,18-15.12,26.43a153.81,153.81,0,0,0-11.15,24.66c-.68,2-1.21,3.82-1.64,5.65-.13.46-.2.89-.31,1.34s-.19.89-.26,1.32c-.17.84-.29,1.81-.35,2.28a20.64,20.64,0,0,0,.46,7.3,16.17,16.17,0,0,0,1.48,3.45,14.68,14.68,0,0,0,2.31,2.95,24,24,0,0,0,6,4.31,25.35,25.35,0,0,0,4.46,1.48c.63.16,1.86.44,2.91.61s2.26.29,3.42.43a55.25,55.25,0,0,0,14.32-.53,63.52,63.52,0,0,0,14.34-4.18,73,73,0,0,0,13.41-7.53,75.35,75.35,0,0,0,21.25-23.07,101.29,101.29,0,0,0,12.1-31.58c.24-1.24.54-2.45.72-3.69s.41-2.47.61-3.69c.3-2.48.65-4.93.82-7.4s.33-4.92.44-7.36l.06-3.67c0-1.22,0-2.49-.06-3.73-.2-10-1.32-20.28-2.54-31.13l-.91-8.23c-.32-2.75-.59-5.61-.86-8.45s-.48-5.8-.73-8.7L239,139c-.08-1.5-.17-3-.19-4.54-.07-3.07-.15-6.14,0-9.34.05-1.59,0-3.16.14-4.78s.23-3.25.34-4.88.3-3.29.52-5,.4-3.33.66-5,.65-3.38,1-5.08c.17-.85.32-1.7.51-2.55l.67-2.56A104.88,104.88,0,0,1,247.31,81c1-2.28,2-4.58,3.12-6.8l3.57-6.5a110.57,110.57,0,0,1,18.11-22.57,113.5,113.5,0,0,1,48.67-27.76,109.31,109.31,0,0,1,28.08-3.88,111.35,111.35,0,0,1,27.87,3.37,123,123,0,0,1,26.16,9.75,120.28,120.28,0,0,1,23.45,15.53,81.66,81.66,0,0,1,9.75,9.51,21.93,21.93,0,0,1,4.08,5.68c.15.68-1.05-.29-3.13-2.32s-5.18-5-9-8.2a122.45,122.45,0,0,0-51-26.68A112,112,0,0,0,348,16.81c-2.46.1-4.93.26-7.39.41s-4.92.62-7.38.94c-1.24.13-2.44.44-3.65.68l-3.63.77a36.31,36.31,0,0,0-3.59.92l-3.55,1a112.07,112.07,0,0,0-49.12,31.15,104.43,104.43,0,0,0-16.8,24.52c-1,2.29-2.1,4.56-3.05,6.89s-1.72,4.76-2.53,7.15l-1.94,7.18c-.52,2.4-1,4.8-1.42,7.21a148.5,148.5,0,0,0-1.72,28.3c.24,9.18,1.06,18,2,26.62,1.79,17.15,3.9,33.41,3.13,48.58a131.77,131.77,0,0,1-3.09,22.64A112.19,112.19,0,0,1,237,253.1a89.08,89.08,0,0,1-11.58,18.7c-1.1,1.47-2.35,2.72-3.52,4.07-.57.69-1.25,1.27-1.87,1.92s-1.26,1.27-1.92,1.88a78.82,78.82,0,0,1-8.39,6.74,69.6,69.6,0,0,1-33.13,12.51c.17.11.32.22.33.36.06.51-1,1.17-2.8,1.61,13.23-.44,26.94-5.67,38.62-13.95a82.74,82.74,0,0,0,19.61-22.54,100,100,0,0,0,6.91-13.81,120.17,120.17,0,0,0,4.92-15,125.43,125.43,0,0,0,3-15.86,143.53,143.53,0,0,0,1.14-16.41c.08-11.19-.93-23-2.06-35.63-.75-8.65-1.48-17.35-1.75-26.15a167.45,167.45,0,0,1,1-26.69,109.4,109.4,0,0,1,6.66-26.49A97.07,97.07,0,0,1,265.8,64.62,107.18,107.18,0,0,1,290.17,40.7c.58-.41,1.14-.85,1.73-1.24l1.81-1.14L297.32,36c1.21-.76,2.49-1.38,3.74-2.07s2.5-1.37,3.78-2l3.9-1.77c1.3-.57,2.58-1.2,3.94-1.67l4-1.49c.67-.23,1.33-.51,2-.71l2.07-.61a102.56,102.56,0,0,1,34.12-4.25,111.39,111.39,0,0,1,33.47,7,19,19,0,0,1,4,1.76c.54.41-.38,0-2.11-.55a114.66,114.66,0,0,0-22.81-5.92l-3-.41c-1-.14-2-.29-3-.34l-6-.43a112.22,112.22,0,0,0-12,.27,98.74,98.74,0,0,0-23.7,4.72A110.08,110.08,0,0,0,298,37.66a29,29,0,0,1,3.15-1.33c.94-.35,1.74-.62,2.4-.8,1.31-.37,2-.39,2,0s-.82,1.17-2.23,2.24c-.7.53-1.56,1.14-2.54,1.81s-2,1.52-3.22,2.37c3-1.95,6.15-3.5,9.27-5.16,3.24-1.41,6.42-3,9.79-4.06,1-.37,2-.7,2.9-1a24.28,24.28,0,0,1,2.4-.59c1.37-.28,2.21-.36,2.19-.19,0,.41-3.28,1.42-7.11,2.91-3.39,1.13-6.6,2.69-9.85,4.14l-4.72,2.5-1.18.63-1.14.7-2.27,1.41-2.27,1.41c-.75.47-1.45,1-2.18,1.54-1.43,1.05-2.91,2.05-4.31,3.16l-4.11,3.42a25.78,25.78,0,0,0-2,1.79L281,56.42A92.14,92.14,0,0,0,267.42,73c-.49.76-1,1.49-1.47,2.26l-1.32,2.35-1.31,2.35-.66,1.18-.57,1.23-2.25,4.91c-.67,1.68-1.26,3.39-1.88,5.08a105.31,105.31,0,0,0-4.79,25.14,174.08,174.08,0,0,0,.16,25c1.22,16.45,3.78,32.44,4.88,48.31a43.3,43.3,0,0,1,1.14-9.38h0c-.46-5-1-9.92-1.56-14.88-1.49-11.35-3-22.86-3.37-34.64-.15-2.93-.08-5.9-.06-8.86,0-1.48.13-3,.2-4.46s.11-3,.31-4.46c.36-3,.61-6,1.23-8.93.29-1.48.5-3,.86-4.45l1.13-4.41A40,40,0,0,1,259.46,92c.5-1.44,1-2.91,1.52-4.33l1.84-4.2c.32-.7.6-1.41.95-2.09l1.08-2c.73-1.34,1.44-2.7,2.2-4l2.48-3.86c.41-.64.82-1.29,1.25-1.93l1.38-1.83L274.93,64l3-3.45,1.51-1.73,1.63-1.61L284.38,54l3.48-3,1.75-1.5c.6-.48,1.23-.92,1.84-1.38l3.7-2.73c1.26-.87,2.57-1.67,3.86-2.5L301,41.64c.64-.41,1.33-.75,2-1.12l4.05-2.2c1.37-.71,2.79-1.3,4.19-2C314,35,316.9,34.05,319.78,33a95.09,95.09,0,0,1,18.06-4.18A98.3,98.3,0,0,1,374.68,31a110.21,110.21,0,0,1,60.61,40.12,12.87,12.87,0,0,1,2,3,10.75,10.75,0,0,1-2.11-2.41C417.26,48,389.5,31.88,359.84,29l.12,0c1.19.2,1.39.38.07.36a40.76,40.76,0,0,1-4.63-.4c-1.36-.17-1.23-.32-.11-.36a93.3,93.3,0,0,0-40.66,6.86,105,105,0,0,0-18.18,9.71c-1.45.93-2.78,2-4.17,3l-2.07,1.53-2,1.67c-1.29,1.13-2.63,2.2-3.88,3.38l-3.66,3.61c-.62.59-1.19,1.22-1.75,1.87l-1.7,1.94-1.69,1.93c-.55.65-1,1.36-1.57,2-1,1.38-2.08,2.72-3.06,4.12l-2.78,4.32-.69,1.08c-.22.37-.41.75-.62,1.13L265.63,79a45.57,45.57,0,0,0-2.28,4.59c-.69,1.57-1.39,3.13-2.05,4.7l-1.67,4.85a96.59,96.59,0,0,0-4,19.83,135.62,135.62,0,0,0-.53,19.92,146,146,0,0,1,.65-18.44c.41-3.08.71-6.16,1.39-9.2l.45-2.29a22.09,22.09,0,0,1,.51-2.28l1.22-4.52c.35-1.51,1-3,1.48-4.45l.79-2.21.4-1.1.48-1.07,1.94-4.28A20.48,20.48,0,0,1,265.42,81l1.14-2a87.8,87.8,0,0,1,4.94-8c.87-1.3,1.88-2.49,2.81-3.73a44.88,44.88,0,0,1,3-3.62l3.12-3.47c1.08-1.12,2.23-2.18,3.34-3.27l1.68-1.62c.57-.52,1.18-1,1.77-1.51l3.58-3L294.52,48l1.89-1.36,2-1.24,4-2.46,4.11-2.18c.69-.36,1.37-.74,2.06-1.08l2.13-.95c1.42-.62,2.83-1.27,4.26-1.86l4.38-1.59c.73-.25,1.45-.55,2.2-.76l2.24-.63A90.73,90.73,0,0,1,342,30.56l4-.37,2-.18,2,0,4.09-.07c1.37,0,2.73.13,4.11.18a19.87,19.87,0,0,1,4,.58c.4.18-.7.14-2.24.07l-4.53-.26c2.33.23,4.53.43,6.49.73s3.69.77,5.12,1.12a17,17,0,0,1,3.28,1.11c.74.33,1.11.59,1,.77a3.36,3.36,0,0,1-1.75.15c-.48,0-1.06-.07-1.71-.15s-1.39-.07-2.19-.14l-2.6-.24c-.93-.09-1.91-.23-3-.26l-3.23-.2c-1.12-.07-2.27-.21-3.45-.19l-4.74,0c-1.58,0-3.16.17-4.74.24l-2.36.15c-.78.08-1.56.21-2.35.31-1.56.22-3.13.42-4.68.67-3.08.69-6.2,1.22-9.19,2.21l-2.27.66-1.14.34-1.1.41-4.43,1.65a96.23,96.23,0,0,0-31.33,20.6c-2,1.87-3.68,4-5.46,6-.9,1-1.62,2.2-2.41,3.31s-1.57,2.22-2.3,3.37a94.45,94.45,0,0,1,46.09-33.82c18.26-6.37,38.38-5.87,56.59-.21.79.23,1.55.46,2.23.68s1.29.52,1.8.75c1,.46,1.66.82,1.64,1s-.65,0-1.68-.24c-.51-.14-1.12-.32-1.79-.54l-2.21-.6c-16-4.59-33.25-5.06-49.18-.58a91.27,91.27,0,0,0-41.9,25.41,84.08,84.08,0,0,0-14,20.12,80.1,80.1,0,0,0-7.3,23.29,125.85,125.85,0,0,0-1.24,24.92c.33,8.44,1.25,17,2.28,25.55,1.95,11.23,4.15,22.62,5.53,34.53.4,2.95.59,6,.87,9,.13,1.52.16,3.06.25,4.6s.11,3.07.13,4.62a150.62,150.62,0,0,1-.82,18.69c.24-1.56.54-3.13.73-4.72s.39-3.17.58-4.76c.45-5.07.77-10.09.73-15.07,0-2.5-.08-4.94-.17-7.38s-.27-4.83-.43-7.22c-.75-9.52-2-18.62-3.25-27.44-2.47-17.61-4.82-34.31-3.37-50.42A82.34,82.34,0,0,1,272.49,90a78.92,78.92,0,0,1,12.29-20.73,87.36,87.36,0,0,1,41.4-27.88,12.83,12.83,0,0,1,3.33-.76c.21.09-.88.56-2.56,1.06a86.83,86.83,0,0,0-40.28,26.49,79.89,79.89,0,0,0-12.52,19.9l-1.1,2.72a24.58,24.58,0,0,0-1,2.75l-.88,2.8c-.27.94-.63,1.85-.82,2.83-.41,2-.94,3.87-1.28,5.85s-.68,4-.9,6a122,122,0,0,0-.49,20.33c.14,3.39.48,6.82.78,10.22s.76,6.82,1.25,10.26c1.83,13.69,4.36,27.49,5.69,41.85-.92-14.71-3.21-28.55-4.82-41.9-.43-3.36-.76-6.64-1.11-9.94s-.59-6.55-.69-9.75-.17-6.41-.21-9.6c.15-3.14.2-6.31.58-9.38l.22-2.33c.09-.77.24-1.52.36-2.28.27-1.51.45-3.06.78-4.55l1-4.47a19.56,19.56,0,0,1,.64-2.18l.7-2.16a71.31,71.31,0,0,1,7.9-16.48,45.26,45.26,0,0,1,2.62-3.82,42.21,42.21,0,0,1,2.84-3.7c1-1.18,2-2.41,3-3.56l3.29-3.37A93,93,0,0,1,307.5,52.54a47.09,47.09,0,0,1,5.23-2.71,3,3,0,0,1,1-.73,76.38,76.38,0,0,1,19-7.61,15.69,15.69,0,0,1,3.76-.64C337.26,40.9,336.44,41.06,335,41.5ZM34.16,31.9l-.25-.27.82.42L36,33.92ZM21.94,40.8h0l-.78-1ZM168.18,221.6c7.21-12.93,15.12-26.76,21-43.12.75-2,1.41-4.14,2.09-6.23s1.28-4.26,1.79-6.48a116.06,116.06,0,0,0,2.6-13.56,97.8,97.8,0,0,0,.85-14.22l0-3.62c0-1.21-.17-2.4-.26-3.6l-.32-3.61-.16-1.8-.28-1.77.34,1.72.23,1.75.44,3.51.4,3.51.15,3.54a95.57,95.57,0,0,1-.31,14,116.87,116.87,0,0,1-4.41,20.44,151.42,151.42,0,0,1-7.08,18.29C180,201.83,173.93,212,168.18,221.6ZM24.05,25.58a16.39,16.39,0,0,1,3.63,3.17,7.47,7.47,0,0,1,2.49-.56,47.87,47.87,0,0,1,6.89.11c-.35-.66.19-.62.46-.73l.83-.23c-2.43-.28-4.9-.7-7.4-1C28.69,26.12,26.25,26.05,24.05,25.58Zm-16,5.48-.26-.21L8,29.73Zm-.3,1.87.36.08C8.09,33.41,8,33.3,7.77,32.93Zm3.29.66a2,2,0,0,0-.54-.46Zm8.19,29.78,0-5.34-.16,5.16Z"/><path d="M124.43,127v.73c-.42,0-.73-.24-1-.71a8.34,8.34,0,0,0,4.59,6.8A10.59,10.59,0,0,0,132,135a15.16,15.16,0,0,0,4.15-.05,2.46,2.46,0,0,0,3.75-.48,3.33,3.33,0,0,0,0-4.21,4.19,4.19,0,0,1-.33-1.1,24.16,24.16,0,0,0-.53-4.92c-.16-.77-.36-1.52-.57-2.27s-.44-1.5-.7-2.23c.06.75.13,1.53.19,2.28a6.17,6.17,0,0,0-1.14-2.34l-.37.95a5.37,5.37,0,0,0-2.3-3.93,4.82,4.82,0,0,0-4.44-.33,8.69,8.69,0,0,0-5.47,8.88Z"/><path d="M122.22,138.41a52.27,52.27,0,0,1-1.62-6.2l.14-.69-1.6,2.15.13-.11c2.52-.62,5,.3,7.16,1.37l.86.26a2.05,2.05,0,0,0,1.39-.63,2.54,2.54,0,0,0,.4-3.2l-.77-1c-1.37-3.16-4.49-6.51-8.68-4.21-1,.54-1.59,1.78-2.32,2.78a3.26,3.26,0,0,0-.32,4.42,2.72,2.72,0,0,0,4.08-.25c.11.28.23.57.35.83-.29,0-.57.05-.85.07,1.27-.88,2.56-.25,3.83-.19l1.43.7,1.83-3.82-.93-.11c-.06.18-.13.46-.14.47-.91-.07-1.81-.12-2.7-.23a12.53,12.53,0,0,1-2.56-.6l-2.5-.31a2.2,2.2,0,0,0-1.64,2.13l.13,1.35,0-.71c.51,1.12,1.12,2.19,1.72,3.27s1.27,2.09,1.82,3.21a.68.68,0,0,0,1,.33A.89.89,0,0,0,122.22,138.41Z"/><path d="M116,133.56c-.07-.49-.1-1-.53-1.28l-.38.1.06,1C115.18,134.15,115.63,134,116,133.56Z"/><path d="M115.07,132.38l0-.42-.11.43H115Z"/><path d="M229.35,178.42a158.39,158.39,0,0,0,34.21,2c.38,0,.69-.17.69-.35s-.33-.27-.68-.24a158.11,158.11,0,0,1-34-2.07c-.37-.05-.69.05-.74.23S229,178.36,229.35,178.42Z"/><path d="M319.36,181.93c-.23.21-.17.35.15.32a1.87,1.87,0,0,0,.95-.41c.19-.18.11-.34-.17-.32A1.85,1.85,0,0,0,319.36,181.93Z"/><path d="M321.08,193.24a40.54,40.54,0,0,0-4.42,2.79,2.1,2.1,0,0,1-.8.33c.18.18-.06.52-.65.85-11.51,6.74-25,11.89-38.69,16.07a1.71,1.71,0,0,1-.48.75,9.13,9.13,0,0,1-4.8,1.86l-1.56.14c-6.24.78-12.5,1.33-18.75,1.54a17.64,17.64,0,0,1-4.34,1,150.85,150.85,0,0,1-16.52,3.29c.35.21.56.45.55.72-.13.65-1.46,1.15-3,1.14l-2.33.07,6.67.43a6.13,6.13,0,0,1,.89.06q3.66-.14,7.42-.42a164.08,164.08,0,0,0,31.28-6.14A203.38,203.38,0,0,0,300,206.91a2,2,0,0,1,1.08-.29c.21.06.23.25-.09.43-2.78,1.57-5.46,3.21-8.16,4.83s-5.43,3.14-8.24,4.67-5.74,3-8.84,4.37c-1.56.68-3.15,1.34-4.81,2l-2.52,1-2.62.86-6.39,2-6.47,1.76c-2.16.62-4.35,1.11-6.55,1.6s-4.41,1-6.64,1.43a219.79,219.79,0,0,1-27.58,3.57c-9.82-.3-19.32-.78-29-1.52a290.09,290.09,0,0,1-29.51-3.94,208.5,208.5,0,0,1-22.05-5.56A189.9,189.9,0,0,1,97,210.28a13.53,13.53,0,0,1-6.72-5.71,8.06,8.06,0,0,1-.35-7.34,9,9,0,0,1,7.52-4.7l-1.23-.84-1.67-1.76a8.31,8.31,0,0,1-2.37-5.79l-.05-2.66c.68-4.51,0-9.21,1.4-13.61l1.32-1.05v-.62a7.71,7.71,0,0,1,.88-5l1.35-1.47a20.06,20.06,0,0,1,5.5-3.8,6.83,6.83,0,0,1,1.79-1.69,9.87,9.87,0,0,1,3.65-5.45,1.41,1.41,0,0,1,1.36-1.41,1.27,1.27,0,0,1,.69.21h0c.12-.58.16-.75.25-1.43-.24-.44-.37-.73-.37-.73-.72-1.09-.72-1.09-1.31-2.07a6.66,6.66,0,0,1,0-2.28c1.55-3.41,1.57-3.41,2.68-4.48a4.25,4.25,0,0,1,.43-.21c-.25-.92-.27-1-.32-1.26a3.13,3.13,0,0,1,.11-.7c.52-.66.52-.66.62-1a4.08,4.08,0,0,1,.39-.49c.92-.41.92-.41,1.1-.61a2.65,2.65,0,0,1,.48-.18l.86.21-.59,2.39.65-.41-.44.93.47-.79.06.79,0-1c.75,1.13.75,1.14,1.16,1.47a1.84,1.84,0,0,0,.86.62,3.17,3.17,0,0,1,.27-.41c.8,1.22.79,1.24,1.6,2.41a4.44,4.44,0,0,1-.12.67.57.57,0,0,1,.7.18l.46.59h.19l0-.05.71.06h.16l3.06.27a10.55,10.55,0,0,1,.66,1.09,4.58,4.58,0,0,1,0-.53c0-.37.61-.86.56-1a26.9,26.9,0,0,0-2.3-4.51c-.43-.7-.88-1.39-1.33-2.07L120.49,131a1.17,1.17,0,0,1-.19-1.58,1.06,1.06,0,0,1,1.49-.41,14.35,14.35,0,0,1,2.57.59,16.76,16.76,0,0,1,2.42.92,17.79,17.79,0,0,1,4.21,2.86,22.41,22.41,0,0,1,3.55,3.89,37.1,37.1,0,0,1,2.88,4.66,51.33,51.33,0,0,0,3.58,3.93v-.46l.8,1.26.11.1c-.05-.58-.09-1.16-.13-1.74-.12-.26-.24-.5-.36-.74a13.7,13.7,0,0,1-2-2.3c-.59-.84-1.13-1.71-1.65-2.6s-1-1.8-1.51-2.7-1-1.85-1.47-2.74a35.46,35.46,0,0,1-2.36-6.16,1.15,1.15,0,0,1,.16-1.45.79.79,0,0,1,1.22,0,27,27,0,0,1,11.63,15.46,5.51,5.51,0,0,1,2,2.95l0,.05,0-1.4c.56.76.49,1.81,1,2.59l.51-1.49a61.82,61.82,0,0,0,5.1,4.41,20.13,20.13,0,0,1,4.71,4.93,4,4,0,0,1,.36.35,20.47,20.47,0,0,1,2.93,0l.72.08.18,0,.27.08.55.19c.73.26,1.45.59,2.2.93-.92-.66-1.84-1.37-2.71-2,1.14.26,2.3.66,3.44,1a20.94,20.94,0,0,1,3.39,1.49c.77.41,1.53.86,2.29,1.34s1.54.92,2.29,1.43c1.51,1,2.94,2.15,4.31,3.26a26.62,26.62,0,0,1,6.3,7.07l5,1.61,5,1.42c1.67.5,3.36.9,5.06,1.3s3.38.87,5.09,1.18a167.47,167.47,0,0,0,20.66,3c.72,0,1.35.35,1.46.73s-.44.65-1.16.63a137.16,137.16,0,0,1-30.31-3.6,127.29,127.29,0,0,0,25.44,6.82l3.41.31a24.22,24.22,0,0,1,3.36.54,140,140,0,0,0,34.1-.13,179.9,179.9,0,0,0,28.11-6.36c6.68-2.12,13-4.35,19.17-6.84s12.31-5,18.7-7.74c1.65-.82,3.43-1.11,3.94-.64s-.44,1.53-2.1,2.39A213.92,213.92,0,0,1,310.38,173c-3.35,1.47-6.81,2.65-10.23,4-3.49,1.12-6.95,2.37-10.52,3.31s-7.13,1.88-10.75,2.73c-1.81.4-3.64.71-5.47,1.07l-2.76.5-2.78.39a135,135,0,0,1-22.65,1.45l-4.91-.13-4.85-.33a1.3,1.3,0,0,1,.08.37,1.67,1.67,0,0,1-.84,1.29q2.76.21,5.56.48l5.61.37c10.4-1.06,20.63-2.71,31.71-4l5.61-.64,2.75-.26,2.7-.33,5.39-.62,5.34-.81a238.84,238.84,0,0,0,25.26-10.24,1.27,1.27,0,0,1,.86-.22c.18.07.05.26-.26.45-1.35.85-2.75,1.61-4.16,2.36l-4.27,2.27c-1.45.72-2.93,1.4-4.4,2.1s-3,1.41-4.49,2c1.15.11,1.94.45,2.08,1.07s-.42,1.43-1.46,2.21l2.16-.69,2.14-.77c.88-.3,1.67-.33,1.76,0s-.5.83-1.34,1.14l-2.19.8-2.21.73-4.42,1.44c-3,.91-6,1.71-8.94,2.55-3.55,1.06-7.08,2.24-10.69,3.12-1.81.45-3.59,1-5.41,1.37l-5.47,1.19a4.73,4.73,0,0,1,2.46,1.35h0l3.42-.68a344.62,344.62,0,0,0,59.88-23.91c.38-.2.74-.27.82-.16s-.17.37-.51.53L335.58,174l-2.19,1.12-2.23,1.05-4.44,2.11c-1.48.7-3,1.33-4.48,2h0c.28,0,.39.1.17.31a2.15,2.15,0,0,1-.94.41c-.32,0-.36-.13-.17-.31a348.24,348.24,0,0,1-34,12.88,290.59,290.59,0,0,0,31.93-10.09l3.15-1.94a1.48,1.48,0,0,1,.92-.19c.13.07,0,.3-.34.47l-.89.53c2-.79,3.71-.9,4-.22s-1.24,2-3.29,2.89c-5.4,2.53-10.94,4.71-16.55,6.69-.59.26-1.18.52-1.78.75l-1.74.95a232.14,232.14,0,0,0,26.23-9.2c.7-.36,1.4-.47,1.52-.25s-.35.72-1.06,1.08a217.07,217.07,0,0,1-22.36,10.75,217.71,217.71,0,0,1-23.87,8l-7.8,3.74c-2.64,1.21-5.34,2.36-8.08,3.56.71-.1,1.44-.22,2.17-.35,9.22-1.58,17.43-4.61,25.29-8,2-.86,3.93-1.63,5.85-2.56l5.81-2.67,5.82-2.77c2-.87,3.94-1.84,5.94-2.77.4-.2.78-.24.89-.13s-.14.35-.55.52c-3.88,1.95-7.65,3.69-11.38,5.61-3.79,1.74-7.55,3.66-11.62,5.25-6.7,2.82-13.25,5-19.7,7.5,13.53-3.25,25.8-8.6,38.12-14.13a3.65,3.65,0,0,1,1.51-.42c0-.08.09-.19.24-.31,1.42-1,3-2,4.65-2.92a1.5,1.5,0,0,1,1-.26C321.57,192.8,321.42,193,321.08,193.24ZM127.83,154.51v-.34l.28.78-.26,2.12S127.82,155.8,127.83,154.51Zm-13.56-1.24h0l.22-1.22C114.41,152.55,114.33,152.94,114.27,153.27Zm89.54,26.07a72.39,72.39,0,0,1-17.5-6.54c1.45.39,2.86.86,4.32,1.17,2.16.89,4.32,1.87,6.52,2.76Zm-78-35.36a20,20,0,0,1,0,4.44,5.2,5.2,0,0,1,1.81,1.07,52.22,52.22,0,0,1,4.22,3.91c.16-.7.48-.38.7-.31l.66.27c-1.36-1.55-2.68-3.13-4-4.77A34.51,34.51,0,0,1,125.77,144Zm-12-6.71,0-.3.94-.56Zm-1.56,1,.11.31C112.05,138.78,112.07,138.61,112.26,138.24Zm1.1,2.76a2.37,2.37,0,0,0,.07-.68ZM95.81,166.05l4.14-3.36-4.1,3.14Z"/></symbol><symbol id="BI" data-name="BI" viewBox="0 0 306.04 352.56"><path d="M154.09,117.28l-.49-.47c.18-.36.54-.42,1-.32a6.07,6.07,0,0,0-7-.58,6.92,6.92,0,0,0-1.49,1,11.06,11.06,0,0,0-1.28,1.44,13.56,13.56,0,0,0-1.89,3.44c-1.24.15-1.81,1.76-1.3,3.4a4.23,4.23,0,0,0,1.26,2,2.42,2.42,0,0,0,1.74.62,3.39,3.39,0,0,1,.91.41,22.57,22.57,0,0,0,3.59,2.57c.59.35,1.17.61,1.76.91s1.16.58,1.74.83l-1.56-1.26a3.89,3.89,0,0,0,2,.52l-.46-.88a3.32,3.32,0,0,0,3.5.54c1-.43,1.82-1.58,2.24-3.31.83-3.5-.27-8-3-9.91Z"/><path d="M147.26,108.35a36.6,36.6,0,0,1,5.25,2.6l.4.54-.63-2.61v.17a10.2,10.2,0,0,1-4.73,4.86l-.61.53a2.29,2.29,0,0,0-.25,1.51,2.55,2.55,0,0,0,2.06,2.32h1.08c2.86.81,6.59.51,7.32-4.27a11.09,11.09,0,0,0-.6-3.57c-.17-1.78-1.45-3.14-2.87-3s-2.34,1.59-2.05,3.35c-.25-.08-.52-.19-.77-.25.13-.26.27-.47.41-.71-.06,1.54-1.18,2.21-1.88,3.19l-1.23.72,1.76,3.85.54-.68a3.38,3.38,0,0,1-.25-.41c.5-.69,1-1.39,1.52-2a10,10,0,0,1,1.76-1.63l1.56-1.77a2.46,2.46,0,0,0-.57-2.64l-1-.75.48.47c-1.06-.31-2.14-.52-3.24-.74s-2.18-.28-3.29-.54c-.35-.12-.69.14-.75.57A.91.91,0,0,0,147.26,108.35Z"/><path d="M154.11,106.47c.37.26.74.54,1.18.39l.14-.36-.75-.6C154.14,105.47,154,105.9,154.11,106.47Z"/><path d="M155.43,106.5l.31.26q-.12-.2-.24-.36l0,0Z"/><path d="M133.59,289.8c15.68,6.74,32.86,10.16,49.6,9.16a93.32,93.32,0,0,0,24.44-4.66,95.1,95.1,0,0,0,22.58-11.15,11.09,11.09,0,0,0,1.2-.88c.27-.28.43-.49.4-.58s-.84.26-1.73.81a94.84,94.84,0,0,1-22.42,11.11,93.25,93.25,0,0,1-24.21,4.65,105.48,105.48,0,0,1-25-1.59,116.4,116.4,0,0,1-24.23-7.38,4.7,4.7,0,0,0-2.19-.57C131.94,288.89,132.62,289.36,133.59,289.8Z"/><path d="M269.73,137.81c.58.76.7.65.28-.25a16.35,16.35,0,0,0-1.77-2.8c-.51-.62-.64-.49-.25.26A21.27,21.27,0,0,0,269.73,137.81Z"/><path d="M284,140c3.07,5.26,5.69,10.44,8,15.13a20.5,20.5,0,0,1,1,2.69c.09-.41.75.6,1.56,2.67a125.41,125.41,0,0,1,5.19,15.84,127.1,127.1,0,0,1,3.17,16.8,126.76,126.76,0,0,1-.68,35.05l-.34,2.2-.43,2.19-.88,4.37-1.08,4.33-.56,2.17c-.19.72-.43,1.44-.65,2.16l-1.36,4.31c-.24.72-.44,1.45-.7,2.15l-.82,2.12c-1.1,2.81-2.14,5.66-3.48,8.38a136.44,136.44,0,0,1-19.39,30.78,5.81,5.81,0,0,1-.88,2,50.43,50.43,0,0,1-4.47,5.79c-1,1.16-2.19,2.26-3.4,3.45s-2.5,2.41-3.89,3.51l-4.27,3.27a135.52,135.52,0,0,1-28,16.48A128.81,128.81,0,0,1,196.47,337c-1.07.28-2.18.6-3.35.85l-3.62.66-3.85.63c-1.33.16-2.68.27-4.07.39a144.05,144.05,0,0,1-28.1.76,159.19,159.19,0,0,1-28.12-4.61c1.09.56,1.71,1,1.61,1.3-.28.28-1.52.21-3.33-.13-.9-.17-1.94-.41-3.07-.71l-1.76-.48L117,335c-2.48-.92-5-1.74-7.43-2.75a174.32,174.32,0,0,0,21.48,7.59c1.06.28,2,.57,2.92.86a156.36,156.36,0,0,0,25.21,3.85,151.59,151.59,0,0,0,28.19-.84l7-1,6.87-1.45c1.15-.22,2.28-.53,3.4-.84l3.38-.94c1.12-.33,2.25-.6,3.35-1l3.32-1.14a127.64,127.64,0,0,0,25-11.71,139.42,139.42,0,0,0,21.59-16.09A147.13,147.13,0,0,0,279,289.89a144.15,144.15,0,0,0,13.46-22.32,139.58,139.58,0,0,0,8.83-24.17,134.86,134.86,0,0,0,4.08-25,26.57,26.57,0,0,1,.38-3.8c.18-.64.35-.51.33.73,0,2.68-.2,5.31-.34,8s-.5,5.23-.75,7.84-.72,5.16-1.19,7.71l-.75,3.81c-.25,1.27-.49,2.54-.84,3.8-.66,2.52-1.26,5.08-2,7.59l-2.44,7.49c-.94,2.45-1.93,4.9-2.91,7.37s-2.23,4.82-3.37,7.26a136.59,136.59,0,0,1-18.33,27.7,135.19,135.19,0,0,1-27.34,24.39c-1.57,1.14-3.28,2.09-4.93,3.13l-2.49,1.52c-.84.51-1.67,1-2.54,1.46-3.46,1.83-6.89,3.73-10.53,5.27-1.81.79-3.58,1.67-5.43,2.36l-5.58,2.08c-1.86.74-3.75,1.26-5.63,1.85s-3.78,1.19-5.7,1.65a155.43,155.43,0,0,1-46.87,4.74c-2-.12-3.93-.19-5.89-.36l-5.87-.62c-1-.11-2-.19-2.93-.34l-2.91-.46c-1.94-.31-3.89-.62-5.84-1l-5.77-1.23-2.9-.64-2.85-.75-5.73-1.55-5.64-1.81-2.83-.92c-.94-.32-1.86-.69-2.79-1l-5.57-2.12c-1.84-.74-3.65-1.57-5.48-2.36s-3.67-1.59-5.44-2.51L82.26,332c-1.79-.9-3.51-1.93-5.28-2.9-3.52-1.94-7-4.08-10.43-6.33a172.32,172.32,0,0,1-37.73-35.59,144.15,144.15,0,0,1-14.58-23,132.46,132.46,0,0,1-10-26.58,136.33,136.33,0,0,1-4.11-28A154.46,154.46,0,0,1,1.43,182a172.8,172.8,0,0,1,15.86-52.21c1.41-2.79,2.74-5.63,4.26-8.35s3.11-5.41,4.69-8.1A186.11,186.11,0,0,1,36.87,98l2.84-3.7,3-3.55,3.05-3.53c.52-.58,1-1.18,1.54-1.75l1.62-1.67c2.17-2.23,4.33-4.48,6.56-6.65s4.6-4.19,6.93-6.27c1.14-1.06,2.39-2,3.59-3l1.83-1.46.12-.1,0,0,.09-.08.17-.15,1.34-1.18c.91-.78,1.8-1.58,2.73-2.33,1.88-1.47,3.79-2.9,5.71-4.32l2.89-2.11c1-.68,2-1.31,3-2q3-1.93,6.11-3.82c2.06-1.24,4.23-2.33,6.36-3.48s4.28-2.32,6.55-3.29a16.52,16.52,0,0,1,9.81-2.16,8.9,8.9,0,0,1,6.79,4.26c1.48,2.83.91,6.2-1,9l1.57-.48,2.66-.27a9.21,9.21,0,0,1,6.59,1.7l2.3,1.64C135,60.67,139.36,63.11,142,67l0,1.69.51.39a7.77,7.77,0,0,1,3.4,3.91l.26,2a20.44,20.44,0,0,1-.57,6.69,7,7,0,0,1,.19,2.48,10.15,10.15,0,0,1,1.91,6.33,1.48,1.48,0,0,1,.25,2,1.17,1.17,0,0,1-.58.41h0c.36.47.47.6.92,1.12a6.89,6.89,0,0,1,.76.18c1.24.14,1.24.14,2.32.3A6.31,6.31,0,0,1,153,95.91c1.54,3.39,1.51,3.39,1.63,4.94,0,.16-.06.32-.1.47.8.39.85.42,1.07.54a3.6,3.6,0,0,1,.43.54c.15.82.15.82.32,1.1a5.88,5.88,0,0,1,.12.61c-.25,1-.25,1-.22,1.25a2.64,2.64,0,0,1-.15.49l-.63.55c-1.32-2-1.33-2-1.33-2l-.08.76-.4-.93.28.87-.59-.46.71.69c-1.22-.14-1.23-.14-1.69,0a1.57,1.57,0,0,0-.92.27c.09.27.14.47.14.47-1.32-.14-1.32-.18-2.61-.26a4.93,4.93,0,0,1-.42-.51.51.51,0,0,1-.51.45h-.67l-.11.15,0,.07-.43.53-.09.13h0L145,108.91a7.2,7.2,0,0,1-1.16-.17c.14.1.28.2.42.32s.31,1,.44,1.08a21.1,21.1,0,0,0,4.44,1c.73.09,1.45.15,2.16.21l2.16.34c.46-.16,1,.23,1.18.86a1.12,1.12,0,0,1-.51,1.42,14.07,14.07,0,0,1-1.74,1.65,15.86,15.86,0,0,1-1.85,1.38,13.21,13.21,0,0,1-4.07,1.61,14.62,14.62,0,0,1-4.47.53l-1.18-.06-1.18-.06a23.23,23.23,0,0,1-2.42-.31,31.16,31.16,0,0,0-4.61.63l.36.27-1.33-.07-.13,0,1.41.93.73.13a8.6,8.6,0,0,1,2.64-.27,26.8,26.8,0,0,1,2.69.18c.9.12,1.78.21,2.67.37s1.78.36,2.65.49a23.27,23.27,0,0,1,5.39,1.86c.41,0,.81.45.91,1s-.14,1-.53,1a35.53,35.53,0,0,1-3.6,1.29,15.3,15.3,0,0,1-1.93.37c-.33,0-.66.07-1,.09s-.66.09-1,.12a15.16,15.16,0,0,1-4.2-.28c-.73-.17-1.46-.32-2.19-.52a17.85,17.85,0,0,1-2.24-.81,4.1,4.1,0,0,1-3.11-.08h-.05l1.11.82c-.82,0-1.64-.7-2.44-.73l1,1.31a57.82,57.82,0,0,0-5.51,1.78,13.88,13.88,0,0,1-5.84,1.25,2.05,2.05,0,0,1-.43.09,19.27,19.27,0,0,1-1,2.58c-.1.2-.21.39-.32.58a.66.66,0,0,1-.12.16l-.63.5-1.28,1c-1.7,1.39-3.37,2.92-5.23,4.35l3.9-2.7a19.48,19.48,0,0,1,2-1.29l1.91-1.13,0,0-.11.09-.24.2-.48.41-1,.79c-.67.51-1.26,1.12-1.88,1.69-1.23,1.16-2.54,2.23-3.78,3.41s-2.46,2.39-3.75,3.56-2.46,2.53-3.78,3.78a155.87,155.87,0,0,0-18.91,23.07c-2.82,3.91-5.1,7.78-7.2,11.24s-3.93,6.54-5.48,9a79.52,79.52,0,0,0-1.81,28.23,60.61,60.61,0,0,0,3.13,13,71,71,0,0,0,6,12.56A95.46,95.46,0,0,0,98,267.82a109.68,109.68,0,0,0,12.64,9.41c2.19,1.52,4.52,2.8,6.81,4.15,1.13.71,2.34,1.26,3.51,1.88s2.34,1.26,3.55,1.81c2,.89,3.66,2,3.87,2.52.06.45-1.41.15-3.43-.75a127.18,127.18,0,0,1-20.26-11.28,111.15,111.15,0,0,1-17.44-14.81C76.9,249.8,69.6,237.06,66.88,223.91a73.55,73.55,0,0,0,14.21,32.64,104.34,104.34,0,0,0,13.23,14.57,120.8,120.8,0,0,0,16.24,12.4l4.59,2.65c1.53.9,3.14,1.64,4.71,2.47s3.13,1.58,4.69,2.35,3.1,1.62,4.69,2.31c32.46,13.77,69.14,13.86,98.57-5.67A99.86,99.86,0,0,0,267.1,238c.29-.84.59-1.67.88-2.51a26.63,26.63,0,0,0,.84-2.57l.75-2.63L270,229l.31-1.34c.39-1.78.9-3.56,1.18-5.38l.51-2.73c.18-.91.26-1.84.39-2.76,2.87-20.76-1.06-41.17-9.67-59.74a122.35,122.35,0,0,0-7.29-13.43c-1.34-2.13-2.76-4.22-4.16-6.11-.7-.93-1.42-1.87-1.78-2.25L247,132.52a97.79,97.79,0,0,0-24.09-18.28c-4.91-2.6-9.57-5-10-5.86s3.67.1,8.84,2.59a98.47,98.47,0,0,1,27,18.93c1,.95,1.88,2,2.83,2.95l.35.37.18.19c5.84-5.23.36-.29,1.09-.94-1,.9-1.28,1.16-1.06,1l0,0,.44.52c.37.46.76.95,1.16,1.47,1.61,2.09,3.21,4.41,4.72,6.75a123,123,0,0,1,8.1,14.89,114.24,114.24,0,0,1,9.41,32.3,102.24,102.24,0,0,1-1,33.33c-.13.69-.24,1.38-.39,2.07l-.5,2.05c-.34,1.37-.6,2.75-1,4.1L271.81,235l-1.41,4-.7,2c-.23.66-.55,1.29-.81,1.94l-1.67,3.86c-.56,1.29-1.26,2.51-1.88,3.77s-1.23,2.53-2,3.72l-2.15,3.64a18.47,18.47,0,0,1-1.15,1.77l-1.19,1.75-1.2,1.76-.59.87-.66.84-2.61,3.35-.65.85-.7.79-1.42,1.6-1.4,1.59-.71.81-.75.75-3,3-.76.76-.79.7L242,280.53,240.4,282l-.8.71-.85.65L235.38,286l-.84.66-.88.6-1.77,1.21c-1.19.78-2.31,1.67-3.57,2.36l-3.67,2.2c-1.21.74-2.52,1.32-3.77,2-2.5,1.39-5.16,2.42-7.76,3.59-1.31.55-2.67,1-4,1.48l-2,.74c-.67.23-1.36.4-2,.6l-4.09,1.2-4.2.92c-.7.15-1.39.32-2.1.46l-2.13.32c-1.43.21-2.84.48-4.27.64-2.89.24-5.75.62-8.67.63a113.26,113.26,0,0,1-29.7-2.92.7.7,0,0,1,.17.43c-.1.51-1.12.76-2.78.78A128.86,128.86,0,0,0,164.23,307c2.86.23,5.73.6,8.6.62,1.43,0,2.88.17,4.31.13l4.32-.08a103.93,103.93,0,0,0,44.9-14.73A114.55,114.55,0,0,0,262,259.05c.78-1.24,1.56-2.46,2.34-3.68.38-.61.8-1.2,1.15-1.82l1.05-1.88,2.09-3.73,1.83-3.81.93-1.89c.29-.64.53-1.3.8-1.94l1.59-3.87c.53-1.28.93-2.63,1.41-4l.69-2,.59-2a104,104,0,0,0,3.6-16.14,105.8,105.8,0,0,0,1.11-16.53,117.23,117.23,0,0,0-10.65-40.94,124.9,124.9,0,0,0-10.55-18.59c-1-1.44-2-2.87-3.06-4.19-.49-.62-1.1-1.37-1.39-1.71l-1.77-1.88a104.62,104.62,0,0,0-7.61-7.27,11.28,11.28,0,0,1-2-1.85c-.23-.37.32-.08,1.23.62s1.89,1.53,2.83,2.31l1.41,1.17,1.35,1.24c.89.84,1.84,1.64,2.68,2.53l2.55,2.58.2.21.26.3.55.64c.37.43.75.92,1.12,1.38.76,1,1.51,1.94,2.25,2.94,1.48,2,2.89,4.13,4.26,6.27a124.27,124.27,0,0,1,13.12,27.9c-.51-3.26-.58-5.32.1-5.28.36,0,.89.57,1.51,1.61a28.14,28.14,0,0,1,2.11,4.37A129,129,0,0,0,277,156.47c-1.12-2.77-1.88-5-1.56-5.08s1.59,2,2.69,4.64a125.58,125.58,0,0,1,8,28.64,119.46,119.46,0,0,1,1.25,14.74c.06,1.24,0,2.47,0,3.7s0,2.46-.1,3.69l-.2,3.69-.37,3.68a116.68,116.68,0,0,1-3,17.48c-.31,1.45-.78,2.86-1.17,4.29l-.6,2.14c-.22.71-.48,1.4-.72,2.1l-1.45,4.19c-.46,1.4-1.12,2.74-1.67,4.11a116,116,0,0,1-8.1,15.8,119,119,0,0,1-10.57,14.34c2.62-2.09,4.56-3.69,5.84-4.19h0c2.37-2.92,4.36-6.08,6.44-9.17A117.5,117.5,0,0,0,282.23,242a121.19,121.19,0,0,0,5.44-25.05A120,120,0,0,0,282,166.16a134.23,134.23,0,0,0-10.49-23.66,124.77,124.77,0,0,0-6.92-10.95c-1.23-1.75-2.54-3.49-3.84-5l-.44-.52-.55-.59-1.11-1.17c-.74-.77-1.44-1.59-2.23-2.32-12.12-12.22-27.4-21.28-43.91-26.93a7,7,0,0,1-2.34-1,5.37,5.37,0,0,1,2.24.48,118.81,118.81,0,0,1,28.29,13.89A102.94,102.94,0,0,1,253.08,118c1,.84,1.91,1.79,2.85,2.69l1.41,1.36,1.34,1.42,1.33,1.42.68.71.56.66c.78.95,1.59,2,2.36,3l-.05-.08c-.43-.72-.39-.95.24-.27a17.17,17.17,0,0,1,1.92,2.66c.46.86.28.87-.24.27a133.78,133.78,0,0,1,13.94,25.72,128.1,128.1,0,0,1,4.79,13.81,133.59,133.59,0,0,1,3.17,14.21,119.26,119.26,0,0,1-4.84,57.29,118.14,118.14,0,0,0,6.45-53,131.41,131.41,0,0,0-16.89-50.93c-2.14-3.31-4.43-6.5-6.88-9.61a15.46,15.46,0,0,1-1.6-2.43c-.09-.31.52.21,1.2,1.08s1.37,1.72,2,2.59c-1.93-2.8-3.63-5.31-4.84-7s-1.94-2.92-1.64-3.14,1.74.79,3.59,2.41a45.79,45.79,0,0,1,5.94,7.25,132.36,132.36,0,0,1,21.81,53.46c.4,2.06.68,4.14,1,6.22l.48,3.14c.17,1.05.32,2.1.42,3.15a121.91,121.91,0,0,0-3.13-22.49,133,133,0,0,0-7-21.58A136.47,136.47,0,0,0,273,131.89a109.5,109.5,0,0,0-6.57-9.31c-.31-.37-.61-.75-.94-1.13l-1-1-1.93-2.09c-1.29-1.39-2.69-2.68-4-4-1.94-1.73-3.49-3.34-3.36-3.58s1.87,1,3.86,2.72l3.72,3.44,3.57,3.61c1.25,1.35,2.29,2.64,3.36,4s2.06,2.69,3,4.07a138.68,138.68,0,0,1,10.53,17.37,134,134,0,0,1,12.92,38.79,122.28,122.28,0,0,1-.09,41.4,119.78,119.78,0,0,1-5.19,20.24l-.84,2.49c-.27.83-.64,1.62-1,2.44l-2,4.87c-.7,1.6-1.51,3.16-2.27,4.74s-1.52,3.17-2.43,4.68l-1.52,3.12c-.51,1-1,2.11-1.58,3.1-1.15,2-2.28,4.06-3.46,6.09l-3.83,5.9c-1.33,1.94-2.77,3.81-4.17,5.73a133.17,133.17,0,0,1-19.95,20.81c1-.71,2-1.41,3-2.14l2.91-2.34c3.13-2.42,5.94-5.16,8.79-7.79,1.36-1.38,2.68-2.79,4-4.19.66-.7,1.33-1.38,2-2.1l1.84-2.2a121.62,121.62,0,0,0,12.86-18.44l2.64-4.86c.88-1.61,1.57-3.31,2.36-5,1.61-3.27,2.81-6.72,4.11-10.09a133.65,133.65,0,0,0,5.41-20.72,130.43,130.43,0,0,0,.39-42.19,144.56,144.56,0,0,0-12.89-40.75,9.33,9.33,0,0,1-1-2.68c.06-.2.62.63,1.26,2a144.62,144.62,0,0,1,13.11,39.59,127.54,127.54,0,0,1-3.85,59.66l-1.32,4.26c-.49,1.4-1.05,2.77-1.56,4.16s-1,2.77-1.6,4.13l-1.82,4a139.15,139.15,0,0,1-18.4,29.48,127.45,127.45,0,0,0,19.15-29.06,129.62,129.62,0,0,0,12.46-49.32l.12-2.12,0-2.12c0-1.41,0-2.82,0-4.23-.1-2.82-.14-5.64-.41-8.44a126.86,126.86,0,0,0-2.39-16.71,143.21,143.21,0,0,0-4.42-16.27,47.28,47.28,0,0,1-1.54-5,3.11,3.11,0,0,1-.57-1c-2.32-5.13-5-10.6-8.07-16a17.85,17.85,0,0,1-1.43-3C282.83,138.31,283.29,138.88,284,140ZM132.1,103l.27.21-.76-.24-1.55-1.49S131.09,102.24,132.1,103Zm8.44-10.34h0c.48.54.82.94.82.94ZM72.81,246.11a74.75,74.75,0,0,1-5.27-11.9A59.33,59.33,0,0,1,64.78,222a71.23,71.23,0,0,1,1.7-25.57,80.32,80.32,0,0,0-1,12.55c-.09.81-.11,1.61-.13,2.4l-.08,2.4c0,1.57,0,3.18.13,4.74a68.77,68.77,0,0,0,1.14,9.32A75.1,75.1,0,0,0,72.81,246.11Zm68.48-138.34a20.61,20.61,0,0,1-3.37-2.72,4.48,4.48,0,0,1-1.77.82A47.23,47.23,0,0,1,131,107c.47.56,0,.63-.11.78l-.54.38c1.91-.19,3.81-.34,5.72-.46A28,28,0,0,1,141.29,107.77Zm11.42-5.35.2.22-.14,1.09S152.75,103.16,152.71,102.42Zm.21-1.83-.28-.11C152.66,100.08,152.77,100.21,152.92,100.59Zm-2.63-.91a2.66,2.66,0,0,0,.45.5C150.3,99.68,150.29,99.68,150.29,99.68ZM142,70l0,5.4c0-1.74.1-3.48.17-5.23Z"/><path d="M179,35.17l.37,0c0,.23-.23.39-.5.5,3.47,0,5.57-3.26,6.13-6.35a1.55,1.55,0,0,0-1.67-2.62,1.94,1.94,0,0,1-.62.09,11.92,11.92,0,0,0-5.21.37h1.22a4,4,0,0,0-1.42.56l.43.26a3.58,3.58,0,1,0,.37,7.16Z"/><path d="M184.43,37.22c-1.12.16-2.22.26-3.34.35l-.33-.12.86,1,0-.08a6.29,6.29,0,0,1,1.76-3.71l.26-.44a1.11,1.11,0,0,0-.1-.82,1.13,1.13,0,0,0-1.54-.48l-.64.35c-1.84.47-4,2.13-3.44,4.48.14.54.69.94,1.1,1.38a1.58,1.58,0,1,0,2.62-1.75l.46-.13c0,.15-.06.3-.08.46-.27-.75.25-1.37.47-2.06l.57-.71-1.64-1.29-.2.49.22.12a14.79,14.79,0,0,1-1.21,2.79l-.51,1.33a1,1,0,0,0,.85,1h.7l-.35,0c1.26-.4,2.46-1,3.72-1.35a.39.39,0,1,0-.17-.77Z"/><path d="M181.14,40.11a.91.91,0,0,0-.71.19v.21l.53,0C181.33,40.57,181.33,40.33,181.14,40.11Z"/><path d="M180.43,40.51l-.22,0,.21.09v-.07Z"/><path d="M211.37,11.8a53.72,53.72,0,0,0,5.22-2.87c.06,0,0-.14,0-.25s-.17-.14-.22-.1a58.52,58.52,0,0,1-5.23,2.84c-.06,0,0,.15,0,.25S211.31,11.83,211.37,11.8Z"/><path d="M230.62,12.7a.45.45,0,0,0,.2.25c.08,0,.15,0,.13-.11a.45.45,0,0,0-.2-.25C230.66,12.55,230.61,12.61,230.62,12.7Z"/><path d="M236.33,20.75a2.77,2.77,0,0,0-.16,1c0,.07,0,.09-.11.07a.62.62,0,0,1,.19.46c-.51,2.53-1.76,4.34-2.84,6.32a2.49,2.49,0,0,1,.22.43c.2.49.13.87-.16,1l-.26,0c-.89.32-1.75.7-2.66,1a1.12,1.12,0,0,1-.23.73,18.81,18.81,0,0,1-.84,2.78,1.27,1.27,0,0,1,.36.34c.26.35.31.72.13.84l-.24.22c.31-.1.63-.21,1-.3a.22.22,0,0,1,.14,0,5.7,5.7,0,0,0,.81-.66c2.2-2.2,3.47-5.28,4.57-8.55,0-.08.06-.12.16-.06s.17.18.16.26c-.09,2.84.44,6.08-.3,8.46A42.54,42.54,0,0,1,233,43c-2.06,1.59-3.33,3.91-4.95,6.15-.55.76-1.12,1.47-1.71,2.15l-.12.12-.05.06-.12.11-.47.44-1,.87-1.92,1.7c-2.57,2.23-5.21,4.36-7.9,6.51a4.69,4.69,0,0,1-8-4l-.52.36-1,.37a4.08,4.08,0,0,1-2.9-.06l-1.22-.43c-2-1-4.23-1.49-6.15-2.72l-.36-.74-.29-.08a4,4,0,0,1-2.23-1l-.56-.81a9.59,9.59,0,0,1-1.23-3,3.56,3.56,0,0,1-.61-1.05,4.88,4.88,0,0,1-2.19-2.37.68.68,0,0,1-.52-.82.82.82,0,0,1,.18-.33h0c-.26-.12-.34-.15-.66-.27a2.8,2.8,0,0,1-.39.12c-.62.26-.62.26-1.17.47a3.39,3.39,0,0,1-1.12-.17c-1.49-1.06-1.49-1.06-1.89-1.71a1.55,1.55,0,0,1-.05-.23l-.67.08a2.2,2.2,0,0,1-.33-.11c-.27-.31-.27-.31-.42-.38a2.45,2.45,0,0,1-.2-.23c-.09-.5-.09-.5-.16-.61a1.31,1.31,0,0,1,0-.26c.14-.28.19-.39.22-.43l1.12.46-.12-.37.4.3-.33-.3.4,0-.51-.1a2.7,2.7,0,0,0,.89-.5,1.18,1.18,0,0,0,.42-.41,2.25,2.25,0,0,1-.17-.17c.71-.33.71-.33,1.42-.64l.32.12a.32.32,0,0,1,.19-.34l.36-.18,0-.1,0,0c.06-.14.1-.25.14-.36l0-.08h0c.09-.26.22-.62.58-1.59a3.54,3.54,0,0,1,.64-.23l-.27-.05c-.18,0-.33-.41-.41-.4a24.32,24.32,0,0,0-5.08,1.91.58.58,0,1,1-.82-.82c1.53-3.84,5.17-6.29,9.08-7.22.89-.43,1.76-.88,2.63-1.35l-.23-.07.78-.22.08,0-.89-.22-.44.08c-2,1.15-4.26,1.53-6.41,2.31a31.25,31.25,0,0,1-3.55.78.52.52,0,0,1-.71-.19.51.51,0,0,1,.18-.7c2.62-2.66,6.23-4.88,10.05-4.77a3,3,0,0,1,1.87-.63h0l-.69-.22c.49-.19,1,0,1.49-.09l-.63-.53c2.27-1.12,4.26-2.95,6.79-3.44l.26-.11a12.74,12.74,0,0,1,1.33-2.53l-.65.18a2,2,0,0,1,.73-1.26c1.05-.71,2.93-.6,4.75.67a70.05,70.05,0,0,0,5.21-5.27c.08-.11.28,0,.44.13s.23.42.15.52a23.46,23.46,0,0,1-3.18,4.56A21.6,21.6,0,0,0,212.2,15l.4-.45a1,1,0,0,1,.54-.25,18.4,18.4,0,0,0,4.29-3.9A41.78,41.78,0,0,0,220.18,6c1.23-2.29,2.29-4.45,4.14-5.9.2-.25.7-.07,1.11.39s.57,1,.36,1.3c-2.7,4.49-5.09,9.25-9.32,12.15l-1.36.92c0,.06.11.12.16.19a3,3,0,0,1,.44.79,13.48,13.48,0,0,1,1.71-.82c.93-1.61,1.87-3.22,3.54-4.07a12.45,12.45,0,0,1,3.84-.88c.93-1.21,1.8-2.5,2.79-3.67,0-.08.1-.06.19,0a.3.3,0,0,1,.12.26,20.13,20.13,0,0,1-1.35,3.39,3.53,3.53,0,0,1,1.07,1,3.17,3.17,0,0,1,.6,1.33l.59-.41c.13-.08.36,0,.53.25s.22.48.1.56L227,14.49c-.74,1-1.51,1.9-2.3,2.8a4.7,4.7,0,0,1,1.09.85h0l.4-.37A19.81,19.81,0,0,1,233,9.85s.16,0,.24.11.11.22.05.25a15.63,15.63,0,0,0-2.44,1.92h0a.41.41,0,0,1,.19.25c0,.09,0,.14-.12.1a.4.4,0,0,1-.2-.24A20.86,20.86,0,0,0,227.15,17a23.82,23.82,0,0,1,4.17-3.18l.16-.74s.13,0,.22.05a.28.28,0,0,1,.1.26l-.05.19c.29-.16.82.11,1.23.64s.51,1.14.22,1.34c-.65.66-1.33,1.28-2,1.87l-.16.28,0,.43c1.29-.66,2.61-1.28,3.95-1.87.09-.08.29,0,.44.2s.19.4.1.48a39.9,39.9,0,0,1-4.73,6.25l-.09,4a1.53,1.53,0,0,0,.27-.17c2.18-1.69,2.24-5.44,4-7.55,0-.07.14,0,.22.07s.12.21.07.25a22.93,22.93,0,0,0-1.71,4,22.52,22.52,0,0,0-1.27,3.39c1.44-1.47,2.2-3.67,3.45-5.35,0-.1.14-.11.26,0a.47.47,0,0,1-.07-.17,3.6,3.6,0,0,1,.18-1.09c0-.08.09-.08.19,0A.33.33,0,0,1,236.33,20.75ZM193.22,36.34l-.17-.05.42,0,1,.47Zm-2.64,6.56h0l-.55-.26ZM210,17.16a6.31,6.31,0,0,1-3,1.28l.52-.6C208.26,17.58,209.1,17.35,210,17.16ZM187.73,36a8.31,8.31,0,0,1,2.18.55,3,3,0,0,1,.81-.79,27.12,27.12,0,0,1,2.63-1.56c-.31-.19-.1-.3,0-.41l.24-.29c-1,.45-2,.89-3,1.32A23,23,0,0,1,187.73,36Zm-5,5.55-.15,0-.15-.53S182.53,41.17,182.71,41.5Zm.28.87.17,0C183.23,42.52,183.15,42.5,183,42.37Zm1.5-.33a1,1,0,0,0-.33-.1Zm10,11.28L193.34,51l1,2.3Z"/></symbol><symbol id="A_2" data-name="A 2" viewBox="0 0 450.33 315.77"><path d="M246.51,6.14c-.18.15-.4.29-.58.44a1.06,1.06,0,0,1-.07-1.24,8.94,8.94,0,0,0-2.35,3.8,8.15,8.15,0,0,0-.23,4.13,14.92,14.92,0,0,0,4.15,7.41,2.56,2.56,0,0,0,2.67,2.83A3.34,3.34,0,0,0,253.57,21a3.78,3.78,0,0,1,.68-.93,24.07,24.07,0,0,0,6.25-7.27c-.52.52-1.07,1.06-1.6,1.57a6.5,6.5,0,0,0,1-2.41l-1,.29C261.58,9.61,261.2,6,258.08,4a8.39,8.39,0,0,0-10.35,1Z"/><path d="M236,11.27c1.27-1.77,2.63-3.44,4-5.08l.62-.3h-2.68l.17,0c2.13,1.7,2.75,4.32,3.25,6.72l.36.86a2.18,2.18,0,0,0,1.39.77,2.36,2.36,0,0,0,2.74-1.61,11.63,11.63,0,0,1,.32-1.26c1.83-3,2.36-7.7-2-9.73-1-.46-2.38-.21-3.62-.2a3.18,3.18,0,0,0-3.66,2.45,2.88,2.88,0,0,0,2.75,3.2l-.44.79-.58-.66c1.5.51,1.73,1.95,2.45,3l.29,1.6,4.19-.81-.47-.82c-.18.05-.45.17-.46.16A23.63,23.63,0,0,1,242,5.57l-1.33-2.25a2.18,2.18,0,0,0-2.69,0l-1,.93.56-.41c-1.11,2.21-1.85,4.58-3,6.82a.68.68,0,0,0,.31,1A.88.88,0,0,0,236,11.27Z"/><path d="M236.05,3.22c.35-.35.71-.68.68-1.21l-.32-.24-.77.67C235.09,2.93,235.47,3.22,236.05,3.22Z"/><path d="M236.41,1.77l.32-.28-.4.17,0,.06Z"/><path d="M294.18,175.44l1.08,1.62c.37.54.76,1.05,1.15,1.58l2.32,3.16,2.32,3.16c.78,1,1.54,2.12,2.39,3.13,3.32,4,6.53,8.24,10.11,12.13,1.76,2,3.48,4,5.29,5.91l5.53,5.72c.92,1,1.83,1.93,2.78,2.85l2.89,2.76,5.8,5.5c.53.48,1.07.77,1.21.65s-.2-.57-.7-1l-5.78-5.51-2.88-2.75c-.95-.92-1.84-1.9-2.77-2.84l-5.5-5.71c-1.8-1.92-3.5-3.94-5.26-5.9-3.55-3.87-6.75-8-10.05-12.09-.84-1-1.61-2.05-2.38-3.11l-2.31-3.15-2.31-3.15L296,176.83l-1.08-1.62c-.4-.57-.84-1-1-.92S293.82,174.89,294.18,175.44Z"/><path d="M410.37,288.17c-.53-.12-.57,0-.11.35a6,6,0,0,0,1.68.77c.44.1.5-.07.11-.35A6.26,6.26,0,0,0,410.37,288.17Z"/><path d="M401.29,296.4c-1.52-.55-3-1.08-4.46-1.56s-2.8-1-4.12-1.41a6.22,6.22,0,0,1-1.37-.66c.07.3-.59.22-1.69-.18-5.46-1.95-10.85-4.32-16.35-6.69-1.39-.58-2.74-1.22-4.1-1.87l-4.09-2c-2.72-1.33-5.5-2.6-8.18-4.07l-8.15-4.34c-2.72-1.45-5.36-3.07-8-4.61-5.42-3-10.61-6.47-15.91-9.74a2.33,2.33,0,0,1-1.24-.09c-1.79-.48-4.8-2.27-7.6-4.52l-2.07-1.76c-2.16-1.68-4.17-3.55-6.26-5.32s-4.15-3.56-6.19-5.39l-6-5.61c-2-1.87-4-3.73-5.86-5.72a63.31,63.31,0,0,1-6-4.82c-1.91-1.43-3.73-3-5.56-4.53l-5.5-4.68c-1.87-1.54-3.61-3.23-5.39-4.89l-5.34-5.07c.25.59.3,1,.08,1.21-.63.27-2.6-1.05-4.27-3.15L255,201.88l3.54,4.63c1.2,1.52,2.46,3,3.68,4.48a15.15,15.15,0,0,1,.95,1.22q2.15,2.34,4.3,4.73c1.47,1.57,3,3.06,4.58,4.59a288.61,288.61,0,0,0,42.8,34.71A360.63,360.63,0,0,0,360.56,282a5.82,5.82,0,0,1,1.68,1c.22.27.08.39-.51.15-20.26-8.21-38.57-15.31-59.87-29.35-6.38-4.11-12.47-8.63-18.62-13.16l-9-7.11c-1.52-1.16-3-2.45-4.42-3.69l-4.39-3.77c-1.45-1.28-3-2.5-4.37-3.84l-4.26-4c-2.84-2.68-5.73-5.33-8.44-8.21l-4.14-4.26c-1.36-1.45-2.81-2.84-4.11-4.35l-8-9a476.45,476.45,0,0,1-27.8-41.09l-3.14-5.36c-1-1.8-2.15-3.56-3.1-5.42l-5.94-11.13c-1.88-3.79-3.7-7.67-5.57-11.58-.45-1-.94-2-1.38-3s-.85-2-1.28-3l-2.56-6.11c-.58-1.39-1.16-2.77-1.73-4.15s-1-2.81-1.56-4.22q-1.53-4.23-3-8.44l-.74-2.11-.66-2.14c-.43-1.43-.87-2.86-1.3-4.29-.86-2.85-1.73-5.71-2.54-8.57l-.54-2.17L169,68.55l-.12-.41-.43-1.5c-.29-1-.57-2-.86-3-.56-2-1.1-4-1.62-6A231.38,231.38,0,0,1,161.67,33a14,14,0,0,1-.27-4.58,12,12,0,0,1,.42-2.1,12.14,12.14,0,0,1,.84-1.91,8.5,8.5,0,0,1,6-4.49,9.1,9.1,0,0,1,8.26,3.26V21.66l.51-2.34a8.57,8.57,0,0,1,3.43-5.24L183,12.5c2-1,3.93-2.39,5.9-3.65A28.22,28.22,0,0,1,195,5.64l1.64.44.49-.38a7.85,7.85,0,0,1,4.54-2.24l2,.22a20.21,20.21,0,0,1,6.38,2.15,7.12,7.12,0,0,1,2.44.43,10,10,0,0,1,6.58-.3,1.41,1.41,0,0,1,1.95.25,1.32,1.32,0,0,1,.27.69h0c.53-.25.69-.32,1.29-.65.2-.47.35-.74.35-.74.43-1.24.43-1.24.83-2.31a6.49,6.49,0,0,1,1.78-1.42c3.65-.8,3.65-.79,5.18-.54l.43.22a11.45,11.45,0,0,1,.79-1,3.21,3.21,0,0,1,.62-.34c.84,0,.84,0,1.15-.09a4.52,4.52,0,0,1,.63,0c.89.5.89.5,1.16.53a2.46,2.46,0,0,1,.43.28l.38.83-2.24,1,.72.28-1,.21.91-.1-.59.53L235,3a4.42,4.42,0,0,0-.43,1.84,2,2,0,0,0,0,1.09c.29,0,.49,0,.49,0-.46,1.4-.46,1.4-.95,2.77a6,6,0,0,1-.62.31.57.57,0,0,1,.27.68l-.21.72.11.16h.07c.15.25.25.43.37.62l.09.13h0c.24.43.65,1.05,1.73,2.67a7.1,7.1,0,0,1-.45,1.2l.41-.35c.29-.22,1.07,0,1.15-.14a63.32,63.32,0,0,0,3.88-9.3A1.15,1.15,0,0,1,242,4.21a1.12,1.12,0,0,1,1.25,1,19,19,0,0,1,2.26,10.26,22.29,22.29,0,0,1-.94,5.29c-.27.87-.58,1.74-.94,2.61s-.66,1.71-1.06,2.56c-.37,1.75-.69,3.52-1,5.3l.38-.28-.56,1.41a.8.8,0,0,0,0,.15l1.38-1.14.4-.74a24.05,24.05,0,0,1,1.68-5.94l.59-1.44.68-1.43c.46-.95.9-1.9,1.3-2.86a47.37,47.37,0,0,1,3.4-5.7,1.06,1.06,0,0,1,1.21-.75.89.89,0,0,1,.85,1,26.57,26.57,0,0,1-.7,9.75,21,21,0,0,1-4.46,9.24,6,6,0,0,1-.32,1.76,5.5,5.5,0,0,1-.86,1.64v0l1.11-.84c-.23.92-1.15,1.48-1.5,2.34l1.55-.46c-.68,4.51-.07,9.22-1.69,13.67a4,4,0,0,1-.09.5,21.9,21.9,0,0,1,1.78,2.46q.19.33.36.66a1.59,1.59,0,0,1,.08.18l.12.51c.07.34.15.68.22,1,.25,1.39.65,2.8.91,4.29-.09-1-.17-2-.26-3.06,0-.51,0-1-.05-1.53l0-.76v-.39a3,3,0,0,1,0-.31,1.72,1.72,0,0,1,.09.32l.11.4.2.79c.14.53.24,1.06.41,1.59.3,1.06.59,2.12.86,3.19a67.69,67.69,0,0,1,1.31,6.69c1.17,6.25,1.91,13,2.56,19.22.13,1.55.23,3.07.28,4.54s.2,2.86.23,4.2a37.53,37.53,0,0,1-.39,7.09,284,284,0,0,0,15.58,35.2A259.59,259.59,0,0,0,291,170.05c.82,1,1.3,2.19,1.15,2.61s-1-.16-1.83-1.21c-3-3.52-5.72-7.35-8.52-11.1-1.43-1.86-2.7-3.83-4-5.79s-2.59-3.91-3.89-5.88-2.42-4-3.63-6.06l-1.8-3.05c-.6-1-1.21-2-1.74-3.08l-3.31-6.26-1.65-3.13-1.51-3.21a226.34,226.34,0,0,0,22,42.92c1.2,1.71,2.37,3.46,3.68,5.1a57.59,57.59,0,0,1,3.5,5.15l2.3,3.18c.82,1,1.63,2,2.44,3.07l4.83,6.11c1.66,2,3.38,3.93,5.07,5.89s3.36,3.94,5.18,5.79l5.39,5.65,1.36,1.41,1.41,1.36,2.86,2.71,2.88,2.73c1,.91,1.93,1.82,2.95,2.68l6.14,5.24c1.74,1.53,3.56,2.92,5.34,4.31l5.27,4.12c3.52,2.68,7.1,5.16,10.62,7.72s7.24,4.84,10.91,7.3c3.77,2.31,7.58,4.69,11.56,7.06C387.21,260,398.32,265.62,409.5,271s22.62,10.29,34.59,15.26c3.23,1.19,6.06,2.8,6.24,3.56s-2.35.39-5.62-.79c-12.79-4.58-25.33-9.66-37.6-15.33a394.19,394.19,0,0,1-35.81-19.11l-8.65-5.39-8.46-5.73c-.7-.48-1.42-.95-2.11-1.45L350,240.55l-4.13-3.05c-1.37-1-2.77-2-4.12-3.07l-4-3.23a258,258,0,0,1-30.38-28.4c-2.11-2.17-4-4.52-5.94-6.76s-3.91-4.47-5.68-6.83a.79.79,0,0,1-.2.36c-.38.33-1.08.2-2-.28,1.05,1.32,2,2.69,3.13,4l3.25,3.91c2.18,2.62,4.3,5.3,6.62,7.82,13.8,13.14,28.54,25.17,44.53,37.85,11,8.63,21.22,16.39,32.1,23.78a424,424,0,0,0,45.16,21.22,3.88,3.88,0,0,1,1.43.75c.18.21-.2.19-.85,0-2.73-.94-5.45-2-8.2-3l-4.13-1.53c-1.37-.53-2.72-1.11-4.09-1.67L404.3,279l-8.15-3.72c1.47,1.27,2.22,2.31,1.8,2.81s-2,.38-4.19-.27l7.29,3.78c1.49.81,2.6,1.59,2.42,1.86s-1.52,0-3-.79c-5-2.57-10-5-14.86-7.83-2.43-1.37-4.9-2.69-7.31-4.11l-7.18-4.32c-2.95-1.59-5.79-3.36-8.66-5.09s-5.75-3.43-8.53-5.3-5.61-3.65-8.39-5.54l-8.21-5.83a9,9,0,0,1,2.06,3.78h0l5.06,3.68A517.1,517.1,0,0,0,449,302.64c.73.25,1.29.57,1.26.7s-.62,0-1.27-.2c-5.57-2.05-11.19-4-16.67-6.19-2.75-1.1-5.53-2.09-8.25-3.26l-8.16-3.42,0,0c.4.27.42.45-.1.34a6,6,0,0,1-1.7-.72c-.47-.3-.36-.43.09-.34A534.41,534.41,0,0,1,356,259.92,466.11,466.11,0,0,0,408.67,289c2.07.73,4.09,1.54,6.22,2.22a4.14,4.14,0,0,1,1.43.81c.11.17-.35.14-.94-.07l-1.75-.6c3.48,1.54,5.95,3.23,5.61,3.89s-3.74-.1-7.4-1.66c-9.77-4.21-19.43-8.61-28.78-13.63l-3.1-1.5-3.25-1.29a401.74,401.74,0,0,0,44.22,22.12c1.3.53,2.34,1.18,2.27,1.44s-1.21,0-2.52-.51a373,373,0,0,1-40.43-17l-5-2.43c-1.66-.81-3.27-1.72-4.9-2.58l-4.9-2.61c-1.63-.88-3.27-1.74-4.86-2.69L351,267.25l-9.43-6c-2.25-1-4.4-2.24-6.62-3.37l-6.65-3.45c-4.39-2.41-8.79-4.9-13.25-7.45,1,.83,2,1.6,3,2.39l4.88,3.65c1.63,1.18,3.21,2.4,4.88,3.47q4.95,3.28,9.83,6.37c3.33,2,6.63,3.85,9.92,5.72,1.62.95,3.31,1.81,5,2.67l5,2.58c13.34,6.76,26.81,12.71,41.12,18.95a2.59,2.59,0,0,1,1.3.82c0,.16-.52.07-1.25-.25-14-6-27-11.39-40.61-18.37l-8.33-4.39c-2.73-1.49-5.38-3-8-4.52l-4-2.23c-1.32-.75-2.6-1.55-3.9-2.32Q330,259.24,326.1,257l7.53,5c1.26.82,2.49,1.66,3.77,2.44l3.84,2.31c2.56,1.53,5.1,3.06,7.67,4.54l7.79,4.23,3.89,2.1,4,2,7.89,4,8,3.73,4,1.9,4.07,1.79a10.37,10.37,0,0,1,2.41,1.31,1,1,0,0,1,.61.07c2.85.93,5.87,2.09,9,3.17a4.48,4.48,0,0,1,1.56.84C402.38,296.64,402,296.61,401.29,296.4ZM226.37,25.48l.27-.2-.45.69-1.89,1Zm-7.16-11.8h0l1.1-.54Zm45.87,125.15c-1.25-2.59-2.48-5.17-3.68-7.76-.58-1.3-1.23-2.57-1.74-3.9l-1.56-4-1.5-4c-.49-1.33-1-2.64-1.39-4q-1.25-4.07-2.37-8.14,1.59,3.78,3.16,7.56l.48,1.53.54,1.51,1.09,3,2.16,6.08C261.81,130.78,263.48,134.77,265.08,138.83ZM233.75,17.53a18.85,18.85,0,0,1-3.6,2.66,5.28,5.28,0,0,1,.22,2.13l-.15,1.46-.12,1.44c-.09,1-.21,1.91-.35,2.86.67-.28.6.18.69.4s.13.47.19.7c.43-2,.83-4.05,1.42-6.09A40.18,40.18,0,0,1,233.75,17.53Zm-2-13.81.27-.16,1,.43ZM230.06,3l-.16.28C229.52,3.19,229.66,3.11,230.06,3ZM228.57,5.6a2.11,2.11,0,0,0,.58-.35Zm-30.72.79L203,7.72l-4.95-1.43Z"/><path d="M248,213.64c-.23-.11-.47-.25-.69-.37.21-.41.7-.55,1.31-.54-6.81-2.65-13,1.89-16.11,7.09a2.83,2.83,0,0,0-2.28,3.53,3.45,3.45,0,0,0,3.87,2.4,5,5,0,0,1,1.26.3,29.34,29.34,0,0,0,10.39,3.36l-2.37-1a8.77,8.77,0,0,0,3.14.13c-.22-.25-.46-.55-.68-.81,3.93,1.4,8-.36,9.06-4.07a7.89,7.89,0,0,0-5.13-9.36Z"/><path d="M238.73,205.73c2.29.52,4.52,1.14,6.77,1.82l.56.47-1-2.53,0,.18c-1,2.63-3.49,4.3-5.88,5.63l-.79.63a2.07,2.07,0,0,0-.35,1.58,2.51,2.51,0,0,0,2.71,2l1.47-.16c3.91.51,9.27-.78,9.67-5.67.08-1.13-.73-2.31-1.23-3.47a3.45,3.45,0,0,0-4-2.51,3,3,0,0,0-2.3,3.8l-1-.11.47-.8c0,1.61-1.4,2.38-2.28,3.49L240,211l2.37,3.63.71-.76c-.12-.15-.34-.36-.34-.38a27,27,0,0,1,4.2-4.28l1.86-2.1a2.05,2.05,0,0,0-1-2.54l-1.34-.56.65.37c-2.74-.22-5.47,0-8.2-.21a.77.77,0,0,0-.9.67A.84.84,0,0,0,238.73,205.73Z"/><path d="M247.09,202.71a1.93,1.93,0,0,0,1.52.18c.07-.22.11-.33.13-.39l-1-.47C247,201.7,246.86,202.16,247.09,202.71Z"/><path d="M248.74,202.5l.42.2-.35-.32c-.05,0-.05.05-.05.05Z"/><path d="M116,258.14c-12.27,4.83-24.38,10.22-36.3,16-.4.2-.67.47-.6.63s.43.11.8-.08c11.94-5.74,24-11.06,36.27-15.87.4-.18.67-.45.64-.63S116.36,258,116,258.14Z"/><path d="M20.8,292.48c.21-.26.12-.37-.21-.26a2.13,2.13,0,0,0-.92.61c-.17.22-.07.36.21.27A2.3,2.3,0,0,0,20.8,292.48Z"/><path d="M17.17,282A45,45,0,0,0,21,278.26a2.38,2.38,0,0,1,.73-.5c-.21-.13,0-.51.48-1,10-9.43,21.52-18.47,32.93-27.43a1.7,1.7,0,0,1,.19-.86,9.74,9.74,0,0,1,3.79-3.56l1.4-.73c5.49-3.16,11-6.31,16.55-9.26a21.79,21.79,0,0,1,3.44-2.88c4.22-3.63,8.47-7.29,13-10.78a.88.88,0,0,1-.83-.35c-.21-.62.68-1.72,2-2.5q1-.63,2-1.23l-5.87,3a5,5,0,0,1-.8.36c-2.07,1.25-4.14,2.54-6.21,3.93-9,6-17.46,12.37-25.54,18.89S42.4,256.55,34.83,263.27a2.16,2.16,0,0,1-1,.61c-.23,0-.29-.16,0-.43,8.92-9.44,16-18.87,26.95-28.7,13.05-11.67,26.29-23,40.63-33.95,15.81-9.89,30-20.21,46.16-30.85,6-3.92,12-7.68,18-11.23,9.37-6,18.87-11.1,28.74-16.13,4.88-3.19,10.87-2,13.3,2.5a9.72,9.72,0,0,1-.09,8.89l1.27-.5,2.19-.29a7.92,7.92,0,0,1,5.75,1.51l2.13,1.47c3.25,3.15,7.42,5.28,10.39,8.88l.21,1.69.52.33a8,8,0,0,1,3.73,3.43l.56,2a20.28,20.28,0,0,1,.37,6.8,7,7,0,0,1,.49,2.46,9.88,9.88,0,0,1,2.74,6.07,1.4,1.4,0,0,1,.48,1.93,1.43,1.43,0,0,1-.58.51h0a14.8,14.8,0,0,0,1.12,1c.53,0,.85,0,.85,0,1.4-.07,1.4-.07,2.61-.09a7,7,0,0,1,2.09,1.14c2.23,3.13,2.23,3.13,2.58,4.67a3.7,3.7,0,0,1-.06.48c1,.25,1.08.27,1.36.36a3,3,0,0,1,.59.46c.31.79.31.79.56,1a4.42,4.42,0,0,1,.24.59c-.17,1-.17,1-.09,1.29a2.39,2.39,0,0,1-.12.51l-.71.67-1.89-1.73v.78l-.6-.87.46.83L246,201l.94.57a5.64,5.64,0,0,0-2.06.28,2.23,2.23,0,0,0-1.1.46,3.43,3.43,0,0,1,.21.44c-1.62.11-1.61.11-3.2.18a4.19,4.19,0,0,1-.54-.46.65.65,0,0,1-.61.52l-.82.08-.12.16,0,.07-.51.59-.1.14h0c-.34.41-.85,1-2.18,2.56a8.27,8.27,0,0,1-1.41,0l.51.27c.33.2.38,1,.54,1,3.75.62,7.46.28,11.19.18a1.28,1.28,0,0,1,1.62.63,1.1,1.1,0,0,1-.54,1.54c-5.53,6-14.2,7.67-22.46,6.74-2,.19-4,.45-6,.72l.41.28-1.67-.09-.17,0,1.6,1,.92.14c4.56-.81,9.3.07,14,.21a62.72,62.72,0,0,1,7.44,1.23,1.17,1.17,0,0,1,1.27.89,1,1,0,0,1-.82,1.14c-6.81,2.8-15.26,4.12-22.67,1.43a6.64,6.64,0,0,1-4-.08h-.07l1.22.82c-1.08,0-1.94-.69-3-.79l.89,1.35c-5.15.57-10.16,2.6-15.41,2.05a5.48,5.48,0,0,1-.57,0,28.22,28.22,0,0,1-2.35,2.29l-.66.51-.17.12-.31.16-.61.32a27.79,27.79,0,0,1-2.65,1.14l4-.82a36.86,36.86,0,0,1-8,3.72,63.11,63.11,0,0,1-12.57,2.6,30.14,30.14,0,0,1-10.84-.54c-15.1,6.26-30.12,12.87-44.72,20.2a2.08,2.08,0,0,1-1.87.21c-.25-.28.1-.81.85-1.2,10.14-5.93,20.78-11.3,31.57-16.39-9.54,3.17-19,6.64-28.46,10.77l-3.51,1.78a25.91,25.91,0,0,1-3.63,1.45c-11.91,5.52-23.19,10.89-34.7,17.75-9.82,5.86-18.29,11.21-27.79,17.48L32.93,301.76c-6.37,4.18-12.74,8.32-19.52,12.44-1.75,1.16-3.67,1.83-4.24,1.48s.41-1.62,2.16-2.81c13.5-9.55,26.94-18.93,40.88-27.91a425.73,425.73,0,0,1,43.94-25.11c3.37-1.6,6.67-3.21,10-4.74a1,1,0,0,1-.25-.28,1.56,1.56,0,0,1,.21-1.56c-3.79,1.71-7.61,3.44-11.49,5.1-9.92,6.18-19.79,12.39-30.93,18-7.65,3.88-14.85,7-22.07,10.43-8.38,5.55-16.61,11.26-25,17a1.69,1.69,0,0,1-.9.41c-.2,0-.08-.25.23-.5,5.44-4.41,11.13-8.77,17-13.05-1.21.24-2.09.14-2.35-.41s.16-1.51,1.08-2.57l-4.18,2.62c-.87.53-1.68.77-1.82.5s.37-.93,1.19-1.45q8.49-5.43,17.09-10.65c6.65-4.53,13.35-9,20.16-13.28a5,5,0,0,1-2.9-.27h0l-3.18,2C39.48,280.61,20.33,293.85.85,307.06c-.38.26-.75.4-.83.3s.15-.39.49-.62l17.54-12h0c-.28.09-.42,0-.21-.26a2.44,2.44,0,0,1,.91-.63c.33-.1.39,0,.22.26,10.82-7.48,21.52-15,32-22.55L20.63,290.94l-3,2.62a1.64,1.64,0,0,1-.92.4c-.14,0,0-.29.29-.53l.83-.72c-1.91,1.22-3.68,1.74-4,1.15s1-2.23,2.94-3.56c2.57-1.86,5.16-3.67,7.74-5.48l7.82-5.33L34,278.25l1.52-1.44c-8.38,5.13-16.69,10.34-24.85,15.69-.68.49-1.37.74-1.53.55s.27-.76,1-1.25q20.13-16.23,41.89-31.26l12.65-12.8c-.64.38-1.28.77-1.91,1.17a201.54,201.54,0,0,0-21.74,16.54c-6.75,5.69-13.33,11.45-20.71,17-.35.29-.73.42-.85.35s.06-.37.44-.64C27,276.62,33.08,271,40.07,265.25c5.77-4.76,11.32-9.22,16.6-13.87-11.67,8.07-22,17-33.11,25.58a4,4,0,0,1-1.39.81.53.53,0,0,1-.18.35c-1.23,1.3-2.62,2.64-4.08,3.94a1.66,1.66,0,0,1-.93.49C16.76,282.57,16.87,282.33,17.17,282ZM220.9,201.51l.3.2-.85-.22L218.73,200Zm9.48-10.74h0l.92.86Zm-89.86,50.86a129.47,129.47,0,0,1,20.4-6.88l-4.71,2.16Zm90.9-35.83a19.75,19.75,0,0,1-3.93-2.49,6,6,0,0,1-2.1,1c-2.06.53-4.11.91-6.15,1.24.49.54,0,.62-.21.77l-.67.4c2.22-.25,4.47-.43,6.77-.55A42.78,42.78,0,0,1,231.42,205.8Zm13.51-6.91.26.2,0,1.11S245.05,199.65,244.93,198.89Zm0-1.88-.34,0C244.58,196.56,244.73,196.66,245,197Zm-3.16-.44a2.43,2.43,0,0,0,.58.42C241.79,196.58,241.79,196.57,241.79,196.57ZM229.63,168l.67,5.36-.51-5.2Z"/></symbol></defs><title>Mabiasa</title><use width="612" height="352.19" transform="translate(18 821.57)" xlink:href="#SA"/><use width="440.18" height="349.36" transform="translate(169.8 17.85)" xlink:href="#MA"/><use width="306.04" height="352.56" transform="translate(27.41 434.98) scale(0.77 1)" xlink:href="#BI"/><use width="450.34" height="315.77" transform="translate(152.34 410.02) scale(0.77 1)" xlink:href="#A_2"/><use width="450.34" height="315.77" transform="translate(279.72 454.09) scale(0.77 1)" xlink:href="#A_2"/></svg>