<svg xmlns="http://www.w3.org/2000/svg" viewBox="0 0 432.76 308.74"><g id="Layer_2" data-name="Layer 2"><g id="Layer_1-2" data-name="Layer 1"><path d="M228.76,4.59l-.41.32a.83.83,0,0,1-.06-.93c-3.32,3.5-1.95,8.5,1.11,11.58a2,2,0,0,0,2,2.2,2.29,2.29,0,0,0,2.49-1.83,2.55,2.55,0,0,1,.48-.7,16.59,16.59,0,0,0,2.54-2.56,22.23,22.23,0,0,0,2-2.91l-1.21,1.18a4.92,4.92,0,0,0,.82-1.83l-.71.21a4.1,4.1,0,0,0-.74-6.38,5.74,5.74,0,0,0-7.42.74Z"/><path d="M221.23,8.37c.9-1.31,1.87-2.54,2.86-3.76l.44-.23H222.6l.12,0c1.53,1.27,2.05,3.24,2.37,5l.23.65a1.52,1.52,0,0,0,1,.59,1.76,1.76,0,0,0,2-1.18l.24-.94c1.28-2.27,1.62-5.83-1.55-7.34a6.39,6.39,0,0,0-2.6-.14,2.25,2.25,0,0,0-2.61,1.83,2.15,2.15,0,0,0,2,2.39l-.31.59-.42-.5c1.08.39,1.26,1.47,1.79,2.28l.22,1.2,3-.57-.34-.62c-.13,0-.33.12-.34.11a18.47,18.47,0,0,1-1.88-3.64l-1-1.69a1.52,1.52,0,0,0-1.93,0l-.7.7.41-.31c-.79,1.64-1.3,3.4-2.12,5.06a.51.51,0,0,0,.22.73A.62.62,0,0,0,221.23,8.37Z"/><path d="M221.23,2.39a1.2,1.2,0,0,0,.47-.9,1.65,1.65,0,0,0-.23-.18l-.54.5C220.54,2.17,220.81,2.39,221.23,2.39Z"/><path d="M221.47,1.31l.23-.21-.29.13,0,0Z"/><path d="M272.37,169.92c1.48,2.27,3,4.49,4.56,6.75l2.3,3.38c.78,1.12,1.62,2.19,2.44,3.29l4.92,6.57,5.22,6.37,2.62,3.19,2.75,3.08,5.52,6.15,5.78,5.94c1,1,1.91,2,2.91,3l3,2.86c.54.51,1.06.87,1.17.79s-.25-.53-.75-1l-3-2.85c-1-1-1.93-2-2.9-3l-5.76-5.93c-1.85-2-3.66-4.1-5.5-6.14l-2.73-3.07-2.61-3.17-5.2-6.35-4.9-6.55L279.77,180l-2.28-3.37-4.55-6.73c-.39-.62-.8-1.06-1-1.07S272,169.33,272.37,169.92Z"/><path d="M392.11,285.47c-.53-.16-.55-.06-.07.25a8.17,8.17,0,0,0,1.71.81c.45.14.48,0,.07-.25A8.75,8.75,0,0,0,392.11,285.47Z"/><path d="M384.16,290.6c-3.06-1.22-5.9-2.52-8.53-3.48a8.87,8.87,0,0,1-1.38-.69c.09.24-.54.1-1.64-.36a306.77,306.77,0,0,1-32.42-16.43l-4.05-2.32-4-2.47c-2.65-1.67-5.33-3.3-8-5-5.19-3.53-10.48-7-15.51-10.76a2.48,2.48,0,0,1-1.12-.3,30,30,0,0,1-7.36-5l-2-1.86a328.54,328.54,0,0,1-23.76-23.14c-1.74-1.46-3.64-3.28-5.64-5.33-1.74-1.65-3.55-3.24-5.25-5l-5.09-5.17c-3.48-3.41-6.67-7.13-10-10.85.26.58.35,1,.18,1.11-.5.14-2.25-1.43-3.88-3.58l-2.43-3.26c1.12,1.59,2.16,3.24,3.34,4.79s2.33,3.13,3.49,4.69q.51.66.9,1.26c.67.83,1.33,1.67,2,2.51s1.35,1.68,2.07,2.48l4.31,4.89a292.67,292.67,0,0,0,40.91,37.5A347.63,347.63,0,0,0,344,273.43a7.68,7.68,0,0,1,1.65,1.07c.24.25.12.33-.45,0l-7.32-3.62-3.62-1.78-3.54-1.85-7.08-3.7c-2.36-1.25-4.65-2.61-7-3.93a247.3,247.3,0,0,1-29.05-19.14l-8.94-7.1c-2.9-2.45-5.77-5-8.67-7.45l-2.16-1.88-2.09-2-4.19-3.92c-1.39-1.32-2.83-2.61-4.18-4l-4-4.12L249.26,206c-1.37-1.37-2.62-2.86-3.93-4.29l-3.91-4.36c-1.31-1.46-2.63-2.92-3.84-4.45l-7.49-9.18L223,174.1a408.74,408.74,0,0,1-24.52-42.66,316.17,316.17,0,0,1-18.91-46.71c-.49-1.4-.88-2.82-1.28-4.24s-.8-2.85-1.19-4.27-.79-2.84-1.19-4.25-.8-2.84-1.1-4.28q-1-4.31-1.94-8.59c-.32-1.43-.63-2.87-.94-4.3l-.75-4.33-.37-2.16-.19-1.08-.06-.31-.24-1.05-.46-2.11c-.28-1.4-.63-2.8-.82-4.21q-.63-4.23-1.15-8.49l-.51-4.28c-.17-1.43-.21-2.87-.32-4.32-.73-4.35,1.71-8.35,5.42-8.85A6.78,6.78,0,0,1,178.36,16c0-.34,0-.68,0-1l.39-1.61a6.21,6.21,0,0,1,1-2.07,6,6,0,0,1,1.66-1.52L183,8.7c3-1.4,5.59-3.67,8.77-4.7l1.18.32.35-.26a5.66,5.66,0,0,1,3.27-1.57l1.43.16a14.51,14.51,0,0,1,4.59,1.57,5,5,0,0,1,1.76.32A7.07,7.07,0,0,1,209,4.36a1,1,0,0,1,1.4.19,1,1,0,0,1,.2.5h0a10.18,10.18,0,0,0,.93-.47,4.84,4.84,0,0,1,.25-.53c.3-.91.3-.91.59-1.69a4.45,4.45,0,0,1,1.27-1c2.62-.6,2.62-.59,3.72-.41a3.07,3.07,0,0,1,.31.17c.4-.57.44-.61.56-.76a2.62,2.62,0,0,1,.45-.25c.6,0,.6,0,.82-.07A2.88,2.88,0,0,1,220,0c.65.37.65.37.84.4a1.56,1.56,0,0,1,.31.2l.27.62-1.6.72.52.21-.72.16.66-.08-.42.4.6-.44a3.39,3.39,0,0,0-.3,1.36,1.32,1.32,0,0,0,0,.8,2.2,2.2,0,0,1,.34,0c-.31,1-.31,1-.66,2.05-.15.09-.3.15-.44.22a.45.45,0,0,1,.2.51l-.15.53.08.12h.05c.11.19.18.32.27.46l.07.1h0l1.18,2a4.94,4.94,0,0,1-.37.88l.31-.25c.22-.16.77,0,.83-.09A33.44,33.44,0,0,0,224.73,4a.86.86,0,0,1,1.71-.11A13.21,13.21,0,0,1,228,11.59a19.52,19.52,0,0,1-2.15,7.78c-.32,1.3-.6,2.61-.87,3.92l.29-.19c-.16.34-.31.68-.45,1a.41.41,0,0,0,0,.11c.32-.27.67-.54,1-.8.1-.18.21-.36.3-.55.5-3,2.16-5.78,3.25-8.65a11.81,11.81,0,0,1,1.14-2.17c.46-.7.95-1.38,1.38-2.09a.8.8,0,0,1,.9-.55.64.64,0,0,1,.58.76,26.19,26.19,0,0,1-.5,7.4,16.36,16.36,0,0,1-3.46,6.83,4,4,0,0,1-.87,2.51v0l.83-.59c-.19.68-.88,1.07-1.16,1.7l1.15-.29c-.32,1.67-.38,3.39-.56,5.1a19.72,19.72,0,0,1-.39,2.54,11.71,11.71,0,0,1-.73,2.48,2.29,2.29,0,0,1-.07.36,17.82,17.82,0,0,1,1.23,1.92c.09.16.17.33.25.5l.06.15.08.55c0,.36.11.73.16,1.1.21,1.49.39,3,.52,4.62,0-2.15-.06-4.25-.1-6.4,0,0,.05.22.07.34l.08.43.15.86.28,1.72c.19,1.14.31,2.3.52,3.46.42,2.32.77,4.69,1.05,7.16,1.56,13.38,3.33,28.66,2.88,36.53A284.21,284.21,0,0,0,249.2,129a270.61,270.61,0,0,0,20,35.24,5.91,5.91,0,0,1,1.23,2.68c-.14.27-.86-.35-1.65-1.51a249.22,249.22,0,0,1-15.7-24.81c-1.19-2.16-2.28-4.37-3.42-6.56l-1.7-3.28-.85-1.65-.77-1.68c-2-4.51-4.23-8.94-6-13.56a244.49,244.49,0,0,0,21.24,45.61l1.73,2.78c.62.9,1.23,1.81,1.85,2.72,1.23,1.79,2.35,3.63,3.43,5.5,1.45,2.32,3.12,4.46,4.68,6.68.79,1.1,1.57,2.2,2.36,3.29s1.56,2.2,2.41,3.24c3.34,4.23,6.58,8.52,10.17,12.53a252.36,252.36,0,0,0,22.93,23.54l5.35,4.68,2.63,2.29,2.68,2.17c3.57,2.88,7,5.76,10.7,8.4l5.42,4.05c1.85,1.31,3.73,2.58,5.61,3.89s3.77,2.64,5.73,3.91l6,3.82c1.43.89,2.82,1.83,4.26,2.68l4.29,2.53c2.85,1.68,5.64,3.39,8.53,4.91s5.67,3.17,8.53,4.67l8.6,4.42c11.53,5.72,23.23,11,35.62,16.13,3.34,1.25,6.31,2.76,6.55,3.34s-2.3,0-5.67-1.21c-26.28-9.79-51.48-21.89-75-37.24a322.66,322.66,0,0,1-33.9-25.3,275.17,275.17,0,0,1-30.33-30.54l-3-3.57c-1-1.18-1.92-2.43-2.89-3.64-1.88-2.44-3.81-4.83-5.64-7.27a.48.48,0,0,1-.12.29c-.29.23-.9,0-1.7-.65,1,1.44,2.05,2.82,3.12,4.2l3.21,4.18c1.08,1.39,2.09,2.84,3.24,4.18l3.37,4.09c6.66,7.25,13.83,14,21.14,20.85,1.85,1.69,3.76,3.32,5.64,5s3.74,3.43,5.73,5c3.93,3.27,7.8,6.72,11.94,10,11.21,9.14,21.63,17.23,32.89,24.7a393.22,393.22,0,0,0,46,22.82,6.23,6.23,0,0,1,1.46.78c.2.18-.18.13-.83-.13C399.18,284,388,279,377,273.55c1.57,1.2,2.4,2.1,2.06,2.43s-1.9,0-4.07-.8c2.46,1.35,5,2.62,7.45,3.95,1.53.81,2.66,1.61,2.52,1.79s-1.45-.27-2.92-1c-10.27-5.19-20.12-11.09-29.8-17.21a336.37,336.37,0,0,1-33.82-23.58,11.21,11.21,0,0,1,2.28,3.55h0c1.66,1.35,3.41,2.58,5.1,3.88a425.11,425.11,0,0,0,50.59,30.62A462.94,462.94,0,0,0,431.45,301c.74.27,1.33.56,1.31.66s-.61,0-1.28-.29c-11.47-4.07-22.71-8.65-33.78-13.51l0,0c.42.25.46.39-.06.25a9,9,0,0,1-1.72-.81c-.48-.3-.38-.39.06-.25a434.87,434.87,0,0,1-58.69-32.18c8.4,5.92,17.17,11.28,26,16.55l6.73,3.76c2.24,1.25,4.46,2.55,6.76,3.7,4.56,2.35,9.08,4.81,13.73,7l6.26,2.54a7.49,7.49,0,0,1,1.48.8c.12.15-.34.06-.93-.17l-1.75-.71c3.51,1.68,6.13,3.2,5.85,3.67-.2.21-1.12.08-2.45-.31a31.09,31.09,0,0,1-4.91-1.9c-4.95-2.26-9.91-4.47-14.73-7-2.41-1.23-4.87-2.39-7.25-3.69l-7.14-3.9c-1-.54-2.09-1.06-3.12-1.62L358.67,272a384.5,384.5,0,0,0,44.83,23.23c1.32.55,2.4,1.17,2.36,1.36s-1.18-.13-2.52-.69a360.34,360.34,0,0,1-79.2-42.37l-6.47-3.86c-2.15-1.31-4.24-2.71-6.38-4.07s-4.3-2.72-6.4-4.17l-6.33-4.41,3,2.57a264.55,264.55,0,0,0,38.78,26.81c3.32,1.85,6.57,3.78,9.92,5.55l10.09,5.3,10.33,5.12,10.64,5a3.81,3.81,0,0,1,1.33.84c0,.12-.49,0-1.22-.39-14.15-6.45-27-12.68-40.44-20.47-1.39-.81-2.79-1.59-4.16-2.4l-4-2.5c-2.67-1.68-5.37-3.25-7.95-5l-7.7-5.07-1.91-1.25-1.87-1.3-3.73-2.59c1.23.93,2.44,1.86,3.66,2.8l1.83,1.38,1.87,1.32,7.48,5.19c2.48,1.73,5.07,3.28,7.6,4.9s5.06,3.24,7.67,4.71l7.76,4.52c2.61,1.45,5.26,2.85,7.89,4.28l3.94,2.14,4,2,8.06,4.07a14.76,14.76,0,0,1,2.45,1.33,1.56,1.56,0,0,1,.6.14c2.83,1.08,5.85,2.4,8.95,3.7a6.05,6.05,0,0,1,1.59.84C385.24,290.92,384.84,290.85,384.16,290.6Zm-170-271.92.2-.14L214,19l-1.4.71Zm-5-8.72h0l.82-.38ZM245.16,129.4a194.57,194.57,0,0,1-11.58-33.59l2.87,8.09c.31,1.07.59,2.15.92,3.22l1,3.18q1,3.2,2.09,6.39c.65,2.16,1.53,4.23,2.29,6.35ZM219.48,13a12.72,12.72,0,0,1-2.59,1.9,4.1,4.1,0,0,1,.18,1.56,36.8,36.8,0,0,1-.59,4.23c.5-.19.43.14.49.31l.11.51c.37-1.47.77-2.95,1.21-4.44A28.91,28.91,0,0,1,219.48,13ZM218.17,2.75l.19-.11.73.31Zm-1.25-.5c0,.06-.07.13-.12.2C216.53,2.36,216.64,2.3,216.92,2.25Zm-1.06,1.88a1.76,1.76,0,0,0,.42-.25Zm-22.1.42,3.72,1-3.57-1Z"/><path d="M237.51,201.48l-.49-.26a1,1,0,0,1,.92-.4c-4.83-1.77-9.21,1.55-11.37,5.35a2.08,2.08,0,0,0-1.6,2.58,2.4,2.4,0,0,0,2.75,1.67,3.2,3.2,0,0,1,.9.19,19.89,19.89,0,0,0,7.37,2.2l-1.68-.64a5.93,5.93,0,0,0,2.22,0l-.48-.57a4.88,4.88,0,0,0,6.4-3.13,5.49,5.49,0,0,0-3.68-6.56Z"/><path d="M230.89,196c1.62.32,3.2.74,4.8,1.19l.4.33-.73-1.79v.13c-.67,1.88-2.45,3.11-4.12,4.11l-.56.46a1.48,1.48,0,0,0-.24,1.14,1.73,1.73,0,0,0,1.92,1.41l1-.14c2.76.29,6.56-.73,6.81-4.23a5.9,5.9,0,0,0-.89-2.44,2.4,2.4,0,0,0-2.84-1.72,2.17,2.17,0,0,0-1.6,2.74l-.71-.06.33-.58c0,1.15-1,1.72-1.6,2.52l-1.11.67,1.69,2.56.5-.56c-.09-.11-.25-.25-.24-.26a19.05,19.05,0,0,1,3-3.13l1.31-1.53a1.44,1.44,0,0,0-.73-1.79l-1-.38.46.26c-1.93-.11-3.87.07-5.79,0a.57.57,0,0,0-.64.5A.6.6,0,0,0,230.89,196Z"/><path d="M236.78,193.71a1.36,1.36,0,0,0,1.08.1l.09-.28-.71-.31C236.73,193,236.62,193.32,236.78,193.71Z"/><path d="M238,193.53l.3.14-.25-.22,0,0Z"/><path d="M117.75,245.56c-12.67,5.5-25.18,11.53-37.5,17.95-.41.21-.71.47-.67.59s.41,0,.78-.18q18.51-9.59,37.46-17.85c.42-.2.72-.45.72-.59S118.14,245.38,117.75,245.56Z"/><path d="M21.59,287.66c.23-.25.17-.32-.16-.18a3.32,3.32,0,0,0-.95.66c-.2.21-.12.3.16.18A3.27,3.27,0,0,0,21.59,287.66Z"/><path d="M19.7,279.69c1.52-1.29,3-2.52,4.17-3.72a3.61,3.61,0,0,1,.76-.53c-.18-.07,0-.41.58-.88,10.69-9.35,22.88-18.49,35-27.42a1.55,1.55,0,0,1,.3-.72A13.47,13.47,0,0,1,64.58,243l1.44-.78c5.67-3.36,11.35-6.69,17.1-9.84a33.89,33.89,0,0,1,3.7-2.78c4.54-3.5,9.12-7,13.92-10.39-.39.06-.66,0-.75-.16-.13-.47.87-1.46,2.23-2.26l2-1.24L98.2,218.7a5.57,5.57,0,0,1-.82.4c-2.17,1.26-4.33,2.6-6.5,4-19,12.1-35.73,25.19-51.92,38.46a3.23,3.23,0,0,1-1,.64c-.21,0-.25-.08,0-.34,9.73-9.08,17.74-17.79,29.5-27.31,14-11.27,28.22-22.11,43.5-32.66,8.28-5,16.21-9.84,24.2-14.79s16-9.94,24.64-15c5.8-3.38,11.58-6.65,17.38-9.75l1.09-.59.54-.29.23-.13.86-.51,1.72-1,3.45-1.92c4.61-2.52,9.29-4.84,14.07-7.13,3.43-2.15,7.67-1.2,9.4,2a6.9,6.9,0,0,1,0,6.3l.89-.34,1.55-.18a5.64,5.64,0,0,1,4.06,1.14l1.51,1.07c2.32,2.26,5.26,3.77,7.38,6.32l.16,1.2.37.23a5.81,5.81,0,0,1,2.66,2.43l.4,1.38a14.24,14.24,0,0,1,.3,4.81,4.84,4.84,0,0,1,.36,1.74,7,7,0,0,1,2,4.29,1,1,0,0,1,.35,1.37,1,1,0,0,1-.4.37h0a10,10,0,0,0,.8.68l.6,0c1-.06,1-.06,1.84-.09a5.08,5.08,0,0,1,1.49.78c1.59,2.19,1.59,2.2,1.85,3.28,0,.12,0,.23,0,.34.71.16.76.18,1,.24a2.44,2.44,0,0,1,.42.31c.23.56.23.56.4.73a2.51,2.51,0,0,1,.17.42c-.1.73-.1.73,0,.92a1.78,1.78,0,0,1-.08.36l-.5.49-1.34-1.2v.56l-.42-.61.32.58-.55-.24.67.38a3.86,3.86,0,0,0-1.46.24,1.45,1.45,0,0,0-.77.34,2.72,2.72,0,0,1,.15.31c-1.14.1-1.14.1-2.27.16a3.05,3.05,0,0,1-.38-.32.48.48,0,0,1-.43.38l-.58.07-.08.12,0,.05-.36.43-.07.1h0l-1.53,1.86a5.56,5.56,0,0,1-1,0l.36.19c.23.14.27.71.38.73a39.64,39.64,0,0,0,7.93,0,.9.9,0,0,1,1.15.41.82.82,0,0,1-.38,1.12c-3.89,4.35-10,5.75-15.87,5.15-1.42.16-2.83.37-4.25.59l.29.19-1.18-.05-.12,0,1.14.67c.22,0,.43.07.65.09,3.22-.63,6.58,0,9.91,0a41.19,41.19,0,0,1,5.28.76.8.8,0,0,1,.9.61.69.69,0,0,1-.57.83c-4.82,2.14-10.8,3.25-16.05,1.38a4.77,4.77,0,0,1-2.87,0h-.05l.87.59c-.76,0-1.38-.48-2.11-.54l.64,1c-3.65.46-7.19,2-10.92,1.58a2.58,2.58,0,0,1-.39,0,22.06,22.06,0,0,1-1.67,1.68c-.15.13-.3.26-.46.38l-.13.09-.32.16-.66.31c-.89.41-1.82.8-2.81,1.17l4.08-1.05a56.08,56.08,0,0,1-8.47,3.73c-8.35,2.85-18.25,4.85-23.68,4.24-15.85,6.65-31.56,13.75-46.87,21.54a2.71,2.71,0,0,1-1.86.41c-.21-.18.21-.65,1-1.06,10.74-6.08,21.94-11.68,33.29-17-9.87,3.65-19.7,7.58-29.48,12.11l-3.68,1.88a40.16,40.16,0,0,1-3.75,1.64c-12.39,6-24.09,11.89-36.15,19.11-10.3,6.17-19.19,11.78-29.15,18.38-14,9.31-26.53,18-40.43,27.14-1.81,1.26-3.71,2.15-4.18,1.95s.63-1.4,2.44-2.69c14-10.19,28.1-20.07,42.66-29.57q10.94-7.09,22.31-13.86c7.63-4.46,15.43-8.82,23.5-12.94,3.49-1.77,6.93-3.49,10.36-5.18a.56.56,0,0,1-.21-.19c-.17-.31,0-.75.41-1.27l-11.86,5.68C86.4,255,76,261.47,64.54,267.74c-7.89,4.28-15.16,8-22.53,11.91-8.75,5.86-17.33,11.89-26,18a2.33,2.33,0,0,1-.9.48c-.18,0,0-.18.29-.45,5.75-4.53,11.73-9.07,17.87-13.51-1.18.4-2,.46-2.16.05s.37-1.26,1.4-2.28l-4.33,2.83c-.89.57-1.69.9-1.79.7s.49-.82,1.34-1.38c5.86-3.88,11.74-7.71,17.68-11.43,7-4.74,14-9.36,21.09-13.87a5.33,5.33,0,0,1-2.74.2h0c-1.11.68-2.22,1.38-3.31,2.07C40.85,274.81,20.87,288.76.83,303c-.39.29-.76.46-.82.39s.2-.34.55-.59L18.68,290h0c-.28.12-.39.07-.16-.18a3.37,3.37,0,0,1,1-.66c.32-.14.35,0,.16.17l33.47-23.54c-10.55,6.77-21,13.71-31.41,20.67l-3.18,2.63a2.49,2.49,0,0,1-.91.49c-.13,0,0-.25.34-.49l.89-.73c-2,1.33-3.69,2.05-4,1.62s1.24-2,3.26-3.41c5.35-3.88,10.73-7.69,16.19-11.39L36,273.88l1.64-1.43q-13,8.26-25.58,16.93c-.7.51-1.39.83-1.51.7s.37-.67,1.08-1.19c14.09-11.14,28.76-21.95,43.92-32.2l6.86-6.1q3.45-3.08,7-6.14l-2,1.22a273.69,273.69,0,0,0-23,16.68c-7.18,5.7-14.21,11.41-21.92,17.17a1.49,1.49,0,0,1-.86.43c-.09,0,.12-.31.52-.6,7.47-5.7,14.06-11.27,21.46-17,6.15-4.75,12-9.25,17.7-13.76C49.11,256.82,38,265.68,26.42,274.49a6.15,6.15,0,0,1-1.42.9c0,.06-.08.17-.22.31-1.33,1.28-2.85,2.57-4.4,3.89a2.3,2.3,0,0,1-.93.56C19.24,280.2,19.38,280,19.7,279.69Zm198.56-86.57.2.14-.6-.16-1.15-1Zm6.64-7.73h0l.66.61Zm-80.83,43.89a178.3,178.3,0,0,1,21.11-7.89l-5,2.26Zm81.64-33.17a13.21,13.21,0,0,1-2.78-1.74,4.17,4.17,0,0,1-1.49.7c-1.45.39-2.9.68-4.35.92.35.39,0,.45-.14.56l-.47.29c1.57-.19,3.16-.33,4.78-.43A33.38,33.38,0,0,1,225.71,196.11Zm9.53-5.08a1.18,1.18,0,0,0,.18.13l0,.8Zm0-1.33-.24,0C235,189.38,235.08,189.45,235.24,189.7Zm-2.23-.28a1.76,1.76,0,0,0,.4.3A4.7,4.7,0,0,1,233,189.42Zm-8.76-20.2.5,3.78-.38-3.67Z"/></g></g></svg>