<svg xmlns="http://www.w3.org/2000/svg" viewBox="0 0 503.58 223.29"><g id="Layer_2" data-name="Layer 2"><g id="Layer_1-2" data-name="Layer 1"><path d="M174.31,4.34l-.41.31a.76.76,0,0,1,0-.87A6.07,6.07,0,0,0,172,9.38,10.51,10.51,0,0,0,175,14.62a1.81,1.81,0,0,0,1.9,2,2.36,2.36,0,0,0,2.45-1.77,2.66,2.66,0,0,1,.48-.66,17.06,17.06,0,0,0,4.42-5.14l-1.14,1.11a4.42,4.42,0,0,0,.74-1.7l-.7.2a3.59,3.59,0,0,0-.61-5.85,5.93,5.93,0,0,0-7.33.68Z"/><path d="M166.86,8c.91-1.25,1.87-2.43,2.85-3.59l.44-.22h-1.89l.11,0c1.51,1.2,1.95,3.05,2.3,4.75l.25.61a1.6,1.6,0,0,0,1,.54A1.68,1.68,0,0,0,173.85,9c.06-.3.13-.59.22-.89,1.3-2.14,1.67-5.45-1.44-6.88A6.72,6.72,0,0,0,170.07,1a2.23,2.23,0,0,0-2.58,1.73A2,2,0,0,0,169.43,5l-.31.56-.41-.46c1.06.36,1.22,1.38,1.73,2.14l.2,1.13,3-.57-.33-.59a2.46,2.46,0,0,1-.33.12,16,16,0,0,1-1.81-3.42l-.94-1.59a1.53,1.53,0,0,0-1.9,0l-.69.66.4-.29c-.79,1.56-1.31,3.24-2.13,4.82a.48.48,0,0,0,.21.7A.61.61,0,0,0,166.86,8Z"/><path d="M166.92,2.28c.24-.25.5-.48.48-.86l-.23-.17-.54.48C166.24,2.07,166.51,2.28,166.92,2.28Z"/><path d="M167.17,1.25l.23-.2c-.1,0-.19.09-.29.12l0,.05Z"/><path d="M208,124.06c1,1.55,2.14,3,3.22,4.49s2.16,3,3.33,4.45c2.35,2.87,4.62,5.83,7.15,8.58,1.24,1.39,2.46,2.81,3.74,4.18l3.91,4.05c.65.67,1.29,1.36,2,2l2,2,4.1,3.89c.38.34.76.54.86.46s-.15-.41-.5-.71a211.86,211.86,0,0,1-15.69-16c-2.51-2.74-4.77-5.69-7.11-8.55-1.17-1.43-2.21-3-3.31-4.43l-1.64-2.23c-.55-.73-1.08-1.48-1.57-2.26-.28-.4-.6-.67-.74-.64S207.77,123.67,208,124.06Z"/><path d="M290.18,203.77c-.37-.09-.4,0-.07.25a3.86,3.86,0,0,0,1.18.54c.32.08.36,0,.08-.24A4.36,4.36,0,0,0,290.18,203.77Z"/><path d="M283.76,209.59c-1.07-.39-2.13-.76-3.15-1.1s-2-.71-2.92-1a4.75,4.75,0,0,1-1-.46c0,.2-.42.15-1.2-.13-3.86-1.38-7.67-3.06-11.56-4.73-2-.82-3.85-1.8-5.79-2.71s-3.89-1.84-5.79-2.88l-5.76-3.07c-1.92-1-3.79-2.17-5.69-3.26-3.83-2.15-7.5-4.57-11.25-6.88a1.79,1.79,0,0,1-.88-.07,18,18,0,0,1-5.37-3.19L222,178.86c-1.52-1.19-2.95-2.51-4.42-3.76s-2.94-2.52-4.38-3.81l-4.23-4c-1.41-1.32-2.82-2.64-4.14-4a44.12,44.12,0,0,1-4.25-3.4c-1.35-1-2.63-2.11-3.92-3.21l-3.89-3.31c-1.33-1.09-2.55-2.28-3.82-3.46l-3.77-3.58c.17.42.21.73.06.86-.45.19-1.85-.75-3-2.23l-1.86-2.18,2.5,3.27c.85,1.07,1.74,2.11,2.6,3.17a9.22,9.22,0,0,1,.67.86l3,3.34c1,1.11,2.14,2.17,3.23,3.25a204.67,204.67,0,0,0,30.27,24.54A254,254,0,0,0,255,199.41a4.25,4.25,0,0,1,1.19.7c.16.19.06.28-.36.11-14.33-5.81-27.28-10.83-42.33-20.76a233.64,233.64,0,0,1-25.78-19.61A226.52,226.52,0,0,1,164.14,136,336.09,336.09,0,0,1,144.48,107c-1.46-2.53-3-5-4.41-7.62s-2.79-5.23-4.2-7.87-2.62-5.42-3.94-8.19c-.32-.69-.66-1.38-1-2.08l-.9-2.14-1.82-4.31c-.4-1-.81-2-1.22-2.94s-.73-2-1.1-3c-.72-2-1.43-4-2.15-6l-.52-1.5-.47-1.51-.92-3c-.6-2-1.22-4-1.79-6.06l-.38-1.54-.19-.76-.09-.3-.31-1.06-.6-2.12c-.39-1.42-.77-2.84-1.15-4.25a163.39,163.39,0,0,1-3-17.45,8.61,8.61,0,0,1,.7-6.07,6,6,0,0,1,4.22-3.18,6.43,6.43,0,0,1,5.84,2.3v-1l.36-1.65a6.1,6.1,0,0,1,2.43-3.7l1.5-1.12C132.22,7.36,134.8,5,137.91,4l1.15.31.35-.27a5.57,5.57,0,0,1,3.21-1.58L144,2.6a14.31,14.31,0,0,1,4.51,1.52,5,5,0,0,1,1.72.31,7.06,7.06,0,0,1,4.66-.21,1,1,0,0,1,1.38.17,1,1,0,0,1,.19.49h0c.38-.18.49-.23.92-.46.14-.33.24-.52.24-.52.31-.88.31-.88.59-1.64a4.72,4.72,0,0,1,1.26-1c2.58-.57,2.58-.56,3.66-.38l.31.16c.4-.55.43-.59.55-.73a2.23,2.23,0,0,1,.45-.24c.59,0,.59,0,.81-.06a2.74,2.74,0,0,1,.44,0c.63.36.63.36.82.38a2.33,2.33,0,0,1,.31.2l.26.58-1.58.7.51.2-.71.14.65-.07-.42.38.6-.42a3,3,0,0,0-.31,1.3,1.32,1.32,0,0,0,0,.76l.34,0c-.32,1-.32,1-.67,2a2.92,2.92,0,0,1-.43.22.42.42,0,0,1,.19.48l-.16.51a.83.83,0,0,1,.08.12h.05l.27.44.06.09h0c.17.3.46.74,1.22,1.89a5.71,5.71,0,0,1-.31.85,2.37,2.37,0,0,1,.29-.25c.2-.16.75,0,.81-.09a45.72,45.72,0,0,0,2.75-6.59.79.79,0,0,1,.79-.79.8.8,0,0,1,.89.68,13.52,13.52,0,0,1,1.59,7.26,15.72,15.72,0,0,1-.66,3.74c-.19.62-.41,1.23-.66,1.84a17.78,17.78,0,0,1-.76,1.81c-.26,1.24-.48,2.49-.69,3.75l.27-.2-.4,1s0,.07,0,.11l1-.81c.1-.17.19-.35.28-.52a17.2,17.2,0,0,1,1.19-4.2c.5-1.36,1.28-2.7,1.82-4.05a33.2,33.2,0,0,1,2.4-4,.76.76,0,0,1,.86-.54.64.64,0,0,1,.6.71,18.82,18.82,0,0,1-.49,6.89A14.77,14.77,0,0,1,175.19,23a4.3,4.3,0,0,1-.83,2.41v0l.79-.6c-.17.65-.82,1.05-1.07,1.66l1.1-.33c-.48,3.19,0,6.52-1.2,9.67a2.14,2.14,0,0,1-.06.35,16,16,0,0,1,1.26,1.74c.09.15.17.31.25.47a.53.53,0,0,1,.06.13l.08.35c.06.24.11.49.16.73.18,1,.46,2,.64,3l-.18-2.16-.06-2.11c.4,1.48.79,3,1.19,4.45a47.72,47.72,0,0,1,.92,4.73c.83,4.41,1.35,9.22,1.81,13.58.1,1.1.16,2.18.2,3.22s.14,2,.16,3a26.59,26.59,0,0,1-.27,5,199.54,199.54,0,0,0,11,24.89,184.89,184.89,0,0,0,14.65,23.07,2.87,2.87,0,0,1,.81,1.84c-.15.24-.71-.11-1.29-.86-2.16-2.48-4-5.19-6-7.84-1-1.31-1.91-2.71-2.83-4.09l-2.75-4.16c-.88-1.41-1.71-2.86-2.56-4.29s-1.74-2.85-2.51-4.33l-2.34-4.43-1.17-2.22-1.06-2.26A159.9,159.9,0,0,0,199.6,118c.85,1.21,1.67,2.45,2.61,3.61s1.69,2.4,2.47,3.64l1.63,2.25c.57.73,1.15,1.45,1.72,2.17l3.42,4.33c1.17,1.4,2.39,2.77,3.58,4.16s2.38,2.79,3.66,4.1,2.54,2.65,3.81,4,2.65,2.58,4,3.88,2.68,2.6,4.12,3.82l4.34,3.71c1.23,1.08,2.51,2.06,3.77,3l3.73,2.92c2.49,1.89,5,3.64,7.51,5.46s5.12,3.41,7.71,5.15,5.37,3.32,8.18,5c8,4.64,15.81,8.64,23.72,12.48s16,7.28,24.46,10.79c2.29.84,4.28,2,4.41,2.51s-1.66.28-4-.55c-9.05-3.24-17.92-6.83-26.59-10.84a278.16,278.16,0,0,1-25.32-13.51,216.21,216.21,0,0,1-23.73-16.57,182.29,182.29,0,0,1-21.48-20.09c-1.49-1.53-2.81-3.19-4.2-4.78s-2.77-3.16-4-4.83a.55.55,0,0,1-.14.26c-.27.24-.76.14-1.4-.2.74.94,1.45,1.91,2.21,2.82l2.31,2.77c1.53,1.85,3,3.75,4.67,5.53,9.76,9.29,20.19,17.8,31.49,26.76,7.81,6.1,15,11.6,22.7,16.82a298.38,298.38,0,0,0,31.94,15,2.85,2.85,0,0,1,1,.53c.12.15-.15.14-.6,0-1.94-.67-3.86-1.4-5.8-2.11l-2.92-1.08c-1-.37-1.93-.78-2.89-1.18l-5.82-2.41-5.76-2.63c1,.9,1.57,1.64,1.27,2s-1.41.27-3-.19l5.15,2.67c1.06.58,1.84,1.13,1.71,1.32s-1.07,0-2.08-.56c-3.52-1.82-7.08-3.56-10.51-5.54-1.72-1-3.47-1.9-5.17-2.9l-5.07-3.06A248.34,248.34,0,0,1,238.57,173a6.39,6.39,0,0,1,1.46,2.67h0l3.58,2.6A365.07,365.07,0,0,0,317.5,214c.52.18.92.41.89.5s-.44,0-.9-.14c-3.94-1.45-7.91-2.81-11.78-4.38-1.95-.78-3.92-1.47-5.84-2.3l-5.77-2.42,0,0c.29.19.3.32-.07.24a4.58,4.58,0,0,1-1.21-.51c-.32-.21-.24-.3.07-.24a377.79,377.79,0,0,1-41.16-21A328.82,328.82,0,0,0,289,204.35c1.47.51,2.9,1.09,4.4,1.57a2.86,2.86,0,0,1,1,.57c.08.12-.25.1-.66-.05l-1.24-.42c2.46,1.08,4.21,2.28,4,2.74s-2.65-.07-5.24-1.17c-6.9-3-13.74-6.09-20.35-9.64l-2.19-1.06-2.3-.91a285.89,285.89,0,0,0,31.27,15.64c.92.38,1.65.84,1.61,1s-.86,0-1.79-.36a265,265,0,0,1-28.59-12,250.42,250.42,0,0,1-27.34-15.48c-3.15-1.53-6.22-3.21-9.39-4.82s-6.22-3.47-9.37-5.27c.68.59,1.42,1.13,2.14,1.69,2.32,1.74,4.58,3.47,6.91,5s4.65,3.05,6.95,4.51,4.69,2.72,7,4,4.71,2.48,7,3.72c9.44,4.77,19,9,29.08,13.39a2,2,0,0,1,.92.58c0,.12-.37.05-.88-.17-9.93-4.23-19.09-8.05-28.72-13l-5.89-3.1c-1.93-1.05-3.81-2.15-5.69-3.2l-2.82-1.57c-.93-.53-1.84-1.1-2.75-1.64l-5.49-3.22,5.33,3.56c.89.58,1.76,1.18,2.66,1.73l2.72,1.64c1.81,1.07,3.61,2.16,5.42,3.2l5.51,3,2.75,1.48,2.8,1.39,5.59,2.8,5.67,2.64,2.83,1.34,2.88,1.27a7.59,7.59,0,0,1,1.71.92.76.76,0,0,1,.43.06c2,.65,4.15,1.48,6.37,2.24a3.13,3.13,0,0,1,1.09.59C284.53,209.76,284.24,209.74,283.76,209.59ZM160.07,18l.19-.15-.32.49-1.33.73ZM155,9.68h0l.78-.38Zm32.43,88.49c-1.73-3.67-3.56-7.27-4.93-11.06-.7-1.88-1.47-3.73-2-5.65s-1.14-3.83-1.67-5.76c.75,1.79,1.49,3.57,2.24,5.35.92,2.88,2,5.7,3,8.58S186.32,95.3,187.44,98.17ZM165.29,12.4a13.45,13.45,0,0,1-2.55,1.88,3.62,3.62,0,0,1,.16,1.5c-.16,1.38-.21,2.74-.44,4.08.47-.2.43.12.49.28l.14.49c.3-1.43.58-2.86,1-4.3A28.4,28.4,0,0,1,165.29,12.4Zm-1.38-9.77.18-.11.72.3Zm-1.23-.48-.11.19C162.3,2.26,162.4,2.2,162.68,2.15ZM161.63,4a1.4,1.4,0,0,0,.41-.25Zm-21.73.56,3.65.94-3.5-1Z"/><path d="M175.39,151.07c-.17-.08-.33-.18-.49-.26.15-.29.49-.39.93-.38-4.82-1.88-9.22,1.33-11.4,5a2,2,0,0,0-1.61,2.5,2.44,2.44,0,0,0,2.74,1.69,3.41,3.41,0,0,1,.89.22,20.58,20.58,0,0,0,7.35,2.37l-1.68-.69a6.17,6.17,0,0,0,2.22.1l-.48-.58c2.78,1,5.63-.25,6.4-2.87a5.56,5.56,0,0,0-3.62-6.62Z"/><path d="M168.81,145.48c1.62.36,3.2.81,4.79,1.28l.4.33-.72-1.78v.12c-.68,1.86-2.46,3-4.15,4l-.56.44a1.48,1.48,0,0,0-.25,1.12,1.78,1.78,0,0,0,1.92,1.44l1-.12c2.76.37,6.55-.55,6.84-4a6.09,6.09,0,0,0-.87-2.45,2.45,2.45,0,0,0-2.83-1.78,2.12,2.12,0,0,0-1.62,2.69l-.7-.08.33-.56c0,1.14-1,1.68-1.61,2.46l-1.12.64,1.67,2.56.5-.54-.24-.26a18.52,18.52,0,0,1,3-3l1.32-1.49a1.45,1.45,0,0,0-.72-1.8l-1-.39.46.26c-1.93-.16-3.86,0-5.79-.15a.55.55,0,0,0-.64.48A.59.59,0,0,0,168.81,145.48Z"/><path d="M174.72,143.34a1.37,1.37,0,0,0,1.08.13l.09-.28-.71-.33C174.67,142.63,174.56,143,174.72,143.34Z"/><path d="M175.89,143.19l.29.14-.24-.22,0,0Z"/><path d="M82,182.54c-8.67,3.41-17.24,7.22-25.67,11.31-.28.14-.47.33-.42.44s.31.07.56-.06c8.45-4,17-7.82,25.65-11.22.29-.12.48-.32.46-.44S82.28,182.43,82,182.54Z"/><path d="M14.71,206.82c.15-.18.08-.26-.15-.19a1.48,1.48,0,0,0-.65.44c-.12.16-.05.25.15.19A1.63,1.63,0,0,0,14.71,206.82Z"/><path d="M12.14,199.43a33.31,33.31,0,0,0,2.74-2.66,1.58,1.58,0,0,1,.52-.36c-.16-.09,0-.36.33-.69C22.78,189.05,31,182.66,39,176.32a1.12,1.12,0,0,1,.14-.61,6.7,6.7,0,0,1,2.68-2.51l1-.52c3.89-2.23,7.77-4.46,11.7-6.55a16.62,16.62,0,0,1,2.44-2c3-2.57,6-5.16,9.16-7.63-.28,0-.49-.07-.58-.24-.15-.44.47-1.22,1.4-1.77l1.38-.87-4.16,2.13a3,3,0,0,1-.56.25c-1.47.88-2.93,1.8-4.39,2.78C52.82,163,46.86,167.5,41.15,172.1S30,181.41,24.63,186.17a1.44,1.44,0,0,1-.68.42c-.16,0-.2-.11,0-.3C30.24,179.62,35.24,173,43,166c9.22-8.25,18.59-16.24,28.73-24,11.18-7,21.19-14.29,32.64-21.81q6.36-4.17,12.72-8c6.63-4.21,13.35-7.85,20.33-11.4,3.45-2.26,7.68-1.45,9.4,1.77a6.83,6.83,0,0,1-.06,6.28l.9-.35,1.55-.21a5.58,5.58,0,0,1,4.06,1.07l1.51,1c2.3,2.22,5.25,3.73,7.35,6.27l.15,1.2.36.23a5.61,5.61,0,0,1,2.64,2.43l.39,1.38a14.2,14.2,0,0,1,.27,4.81,5.24,5.24,0,0,1,.35,1.74,7,7,0,0,1,1.93,4.29,1,1,0,0,1-.07,1.73h0a9.74,9.74,0,0,0,.79.69,4.92,4.92,0,0,1,.6,0l1.85-.06a4.92,4.92,0,0,1,1.47.81c1.58,2.21,1.58,2.21,1.83,3.3,0,.11,0,.23,0,.34.71.17.76.19,1,.25a2.56,2.56,0,0,1,.42.33c.22.56.22.56.39.73a2.51,2.51,0,0,1,.17.42c-.12.73-.12.73-.06.91a1.78,1.78,0,0,1-.08.37l-.51.47-1.33-1.23v.56l-.42-.62.32.59-.55-.25.66.4a3.78,3.78,0,0,0-1.46.2,1.46,1.46,0,0,0-.77.32,1.8,1.8,0,0,1,.14.31c-1.14.08-1.14.08-2.26.13a3.11,3.11,0,0,1-.38-.33.47.47,0,0,1-.43.37l-.58.05-.08.12v.05l-.35.42-.07.09h0l-1.54,1.81a6.63,6.63,0,0,1-1,0l.36.19c.23.14.27.71.38.73a41,41,0,0,0,7.91.13.91.91,0,0,1,1.15.44.79.79,0,0,1-.39,1.1c-3.9,4.23-10,5.42-15.88,4.76-1.42.13-2.83.32-4.24.51l.29.2-1.19-.07-.11,0,1.13.67.64.1c3.23-.57,6.58,0,9.9.14a44.56,44.56,0,0,1,5.27.88.81.81,0,0,1,.89.63.67.67,0,0,1-.57.8c-4.82,2-10.79,2.91-16,1a4.85,4.85,0,0,1-2.87-.06h0l.86.58c-.76,0-1.37-.48-2.1-.55l.63.95c-3.64.4-7.19,1.84-10.9,1.45a2.69,2.69,0,0,1-.4,0,19.51,19.51,0,0,1-1.66,1.62,5.32,5.32,0,0,1-.47.36l-.12.09-.21.11-.44.23c-.59.29-1.21.56-1.87.81l2.8-.58a26.06,26.06,0,0,1-5.64,2.62c-5.66,1.8-12.54,2.63-16.56,1.47-10.68,4.42-21.3,9.09-31.63,14.27a1.42,1.42,0,0,1-1.32.15c-.17-.19.08-.57.61-.84,7.16-4.2,14.69-8,22.32-11.59-6.75,2.24-13.47,4.69-20.12,7.61l-2.49,1.26a17.78,17.78,0,0,1-2.56,1,260.36,260.36,0,0,0-24.54,12.55c-6.95,4.14-12.93,7.92-19.65,12.36-9.44,6.25-17.91,12.08-27.49,17.91-1.24.82-2.59,1.3-3,1s.28-1.14,1.52-2c9.55-6.75,19-13.39,28.91-19.73A298.74,298.74,0,0,1,68,183.75c2.38-1.14,4.71-2.27,7.06-3.35a.68.68,0,0,1-.18-.2,1.09,1.09,0,0,1,.15-1.1c-2.68,1.2-5.38,2.43-8.13,3.6-7,4.37-14,8.76-21.87,12.75-5.4,2.74-10.5,4.94-15.6,7.38-5.93,3.92-11.75,8-17.67,12a1.1,1.1,0,0,1-.64.29c-.13,0,0-.17.17-.35,3.84-3.12,7.87-6.2,12-9.23-.86.18-1.48.11-1.67-.28s.12-1.07.77-1.82l-3,1.85c-.61.38-1.18.54-1.28.35s.26-.65.84-1q6-3.84,12.08-7.53c4.71-3.21,9.45-6.33,14.26-9.39a3.51,3.51,0,0,1-2-.2h0L41,188.9C27.92,198.42,14.38,207.79.6,217.13c-.27.19-.53.28-.59.21s.11-.27.35-.43l12.4-8.5h0c-.2.06-.29,0-.15-.19a2,2,0,0,1,.65-.44c.23-.07.27,0,.15.19C21,202.68,28.61,197.38,36,192l-21.43,13.7-2.11,1.86a1.13,1.13,0,0,1-.64.28c-.1,0,0-.21.2-.38l.59-.51c-1.35.87-2.6,1.24-2.86.81s.69-1.57,2.07-2.51q5.45-3.93,11-7.65l1.16-.87,1.07-1c-5.92,3.63-11.8,7.31-17.57,11.1-.48.34-1,.52-1.08.38s.19-.54.67-.88c9.5-7.65,19.4-15.05,29.63-22.1l9-9.06-1.36.83A142.78,142.78,0,0,0,29,187.71c-4.78,4-9.43,8.09-14.64,12-.26.21-.52.3-.61.25s.05-.27.32-.46c5-3.91,9.37-7.91,14.31-12,4.08-3.37,8-6.52,11.74-9.81-8.25,5.71-15.58,12-23.41,18.08a2.73,2.73,0,0,1-1,.58.37.37,0,0,1-.12.25c-.87.92-1.85,1.86-2.89,2.78a1.17,1.17,0,0,1-.65.35C11.85,199.81,11.93,199.64,12.14,199.43ZM156.21,142.5l.2.14-.6-.16-1.14-1Zm6.69-7.6h0l.65.6Zm-63.54,36A92.76,92.76,0,0,1,113.79,166l-3.33,1.54Zm64.28-25.34a13.61,13.61,0,0,1-2.77-1.75,4.69,4.69,0,0,1-1.49.68c-1.45.37-2.9.64-4.35.87.34.38,0,.44-.15.55l-.47.28c1.57-.18,3.16-.3,4.78-.39A31.69,31.69,0,0,1,163.64,145.52Zm9.55-4.88.19.14,0,.79S173.29,141.18,173.19,140.64Zm0-1.33-.24,0C173,139,173.05,139.07,173.21,139.31ZM171,139a1.76,1.76,0,0,0,.4.3Zm-8.61-20.21.48,3.78-.36-3.67Z"/><path d="M200.25,85.74c.2,0,.4,0,.59,0-.07.35-.4.6-.85.8a10.54,10.54,0,0,0,6.84-3.4,16.26,16.26,0,0,0,3.92-6.42,2.44,2.44,0,0,0,1.2-3.17,2.39,2.39,0,0,0-3.33-.65,4.23,4.23,0,0,1-1,.14,21.93,21.93,0,0,0-8.7.8l2-.07a7,7,0,0,0-2.49.94c.21.11.46.23.67.35-3.28.37-6.11,3.16-6.16,6.12s2.63,5,5.84,4.65Z"/><path d="M208.64,88.31c-1.73.32-3.47.56-5.24.79l-.51-.14,1.28,1.41-.06-.11c.13-2.09,1.61-4,3.09-5.69l.48-.65a1.49,1.49,0,0,0,0-1.19,1.77,1.77,0,0,0-2.42-.66c-.36.18-.7.39-1.06.58-3,.87-6.73,3.62-5.92,7,.2.78,1.06,1.31,1.68,1.93a2.53,2.53,0,0,0,3.45.44,2.39,2.39,0,0,0,.82-3.3l.74-.23c-.06.23-.11.46-.17.69-.37-1.09.51-2.06.93-3.1l1-1.11-2.44-1.81-.38.77.33.15A25.85,25.85,0,0,1,202,88.42l-.89,2a1.3,1.3,0,0,0,1.3,1.4l1.09,0-.55,0c2-.7,3.91-1.67,5.89-2.3a.67.67,0,0,0,.51-.73A.56.56,0,0,0,208.64,88.31Z"/><path d="M203.32,92.88a1.52,1.52,0,0,0-1.12.35v.29H203C203.6,93.53,203.61,93.18,203.32,92.88Z"/><path d="M202.19,93.52h-.34l.32.11,0,0Z"/><path d="M354.12,43.69c1.12.11,2.25.18,3.37.32l3.35.42,6.69.87,6.64,1.1,3.32.55,3.29.67L387.35,49l6.51,1.57,3.25.79c1.07.27,2.14.6,3.21.89L406.74,54c.57.15,1.07.22,1.13.1s-.36-.35-.89-.48l-6.42-1.82-3.22-.9-3.25-.79-6.5-1.59L381,47.19l-3.28-.68L374.42,46l-6.64-1.11c-2.22-.32-4.45-.58-6.68-.88s-4.47-.59-6.73-.76a1.92,1.92,0,0,0-1.2.16C353.13,43.5,353.56,43.64,354.12,43.69Z"/><path d="M473.82,93.81c-.39-.13-.43,0-.1.24a4.74,4.74,0,0,0,1.21.68c.33.11.38,0,.1-.23A4.84,4.84,0,0,0,473.82,93.81Z"/><path d="M466.82,99c-1.05-.47-2.07-.94-3.07-1.35s-2-.75-2.93-1.06a4.78,4.78,0,0,1-1-.48c0,.21-.42.15-1.2-.15a319.67,319.67,0,0,0-48.42-15.07,1.66,1.66,0,0,1-.82.26,17,17,0,0,1-5.95-.76l-1.75-.55c-1.79-.5-3.59-.88-5.38-1.33s-3.59-.9-5.4-1.25l-5.41-1.1-2.71-.55-2.71-.45a39.3,39.3,0,0,1-5.17-.19c-3.19,0-6.38.12-9.57.15l-9.61.45c.4.16.63.36.62.55s-.49.43-1.09.57A9.87,9.87,0,0,1,353,77l-2.59.06c2.48.11,5,.13,7.43.4a9.07,9.07,0,0,1,1,.11c2.72.12,5.49.12,8.29.34a288,288,0,0,1,70.74,12.06,3.7,3.7,0,0,1,1.23.53c.18.17.09.27-.33.16C424.13,87,411,85.92,394.72,84.31a221.07,221.07,0,0,0-57.2,1.86,147.75,147.75,0,0,0-28.27,5.77,166.67,166.67,0,0,0-26.58,10.66c-1.5.67-2.91,1.52-4.35,2.27L274,107.15l-4.12,2.45c-1.36.81-2.75,1.56-4.05,2.46l-1,.65-.5.32-.17.13-.63.47-1.27.92c-.84.62-1.71,1.18-2.51,1.83q-2.44,1.91-4.92,3.67c-1.64,1.21-3.19,2.53-4.81,3.77a5.11,5.11,0,0,1-4,1.47,6.55,6.55,0,0,1-4.22-2.21,7.47,7.47,0,0,1-1.93-5.8l-.65.46-1.24.44a5.19,5.19,0,0,1-3.81-.3l-1.64-.68c-2.72-1.59-5.74-2.2-8.49-4l-.55-1.06-.4-.1a6,6,0,0,1-3.2-1.45l-.83-1.15a13.36,13.36,0,0,1-1.88-4.36,5,5,0,0,1-.91-1.5,6.91,6.91,0,0,1-3.23-3.36.94.94,0,0,1-.76-1.16,1,1,0,0,1,.27-.49h0a9.07,9.07,0,0,0-1-.35c-.36.13-.59.19-.59.19-.94.42-.94.42-1.76.76a5.31,5.31,0,0,1-1.71-.17c-2.28-1.44-2.29-1.44-2.89-2.35,0-.12-.06-.23-.08-.34-.76.13-.82.14-1,.16a2.59,2.59,0,0,1-.52-.12c-.41-.43-.41-.43-.64-.52a2.25,2.25,0,0,1-.31-.32c-.13-.73-.13-.73-.24-.88a2.1,2.1,0,0,1,0-.38l.36-.66,1.74.58-.17-.53.62.4-.51-.41h.63l-.79-.09a4.81,4.81,0,0,0,1.4-.82,2,2,0,0,0,.68-.64,2.42,2.42,0,0,1-.25-.23c1.13-.56,1.13-.56,2.24-1.07a3.38,3.38,0,0,1,.48.16.55.55,0,0,1,.32-.53l.56-.29a.88.88,0,0,0,0-.15l0,0,.24-.55,0-.12h0c.16-.39.39-1,1.07-2.35a8.05,8.05,0,0,1,1-.36l-.42,0c-.28-.05-.47-.6-.59-.58-.72.14-1.42.32-2.12.53s-1.36.51-2,.8c-1.34.57-2.66,1.22-4,1.85a1,1,0,0,1-1.32.09.82.82,0,0,1,.07-1.23c2.69-6,9.13-9.76,15.48-11,1.5-.58,3-1.19,4.47-1.81l-.34-.11,1.27-.28.13-.06-1.33-.35c-.24,0-.48,0-.71.09a29.17,29.17,0,0,1-5.29,1.71c-1.8.47-3.61.94-5.42,1.54s-3.91.8-5.89,1.27a.85.85,0,0,1-1.14-.24.8.8,0,0,1,.43-1,35.9,35.9,0,0,1,8.15-5.23,20.88,20.88,0,0,1,9.17-1.75,5.64,5.64,0,0,1,3.13-.8h0l-1-.36c.82-.26,1.58.14,2.39,0l-.82-.83c2-.66,3.93-1.58,5.88-2.37a29.47,29.47,0,0,1,2.94-1,13.84,13.84,0,0,1,3.06-.48,3.93,3.93,0,0,1,.44-.1,21.86,21.86,0,0,1,1.76-2l.49-.46s.07-.07.14-.12l.43-.24.88-.49a38.2,38.2,0,0,1,3.73-1.88c-.93.3-1.83.66-2.73,1l-2.66,1a2,2,0,0,1,.27-.18l.34-.2.68-.41,1.36-.79c.91-.54,1.84-1,2.8-1.48,1.92-.92,3.9-1.8,6-2.61,11.37-4.37,24.9-6.54,31.65-5.37a245,245,0,0,1,33.55-6.19A270.75,270.75,0,0,1,348.73,43a4.25,4.25,0,0,1,2.41.57c.11.26-.66.47-1.82.44a264.89,264.89,0,0,0-48.55,4.62,288.49,288.49,0,0,1,41.22-2c1.77,0,3.55-.07,5.33,0s3.51.23,5.25.43c17.69,1,34.15,4,51.53,8l2.76.63,2.7.72,5.32,1.42c1.76.44,3.47,1,5.18,1.51l5.12,1.56c3.4,1.08,6.74,2.29,10.17,3.44s6.81,2.58,10.34,3.93A283.46,283.46,0,0,1,473.6,81.37,243.18,243.18,0,0,1,499.44,97.7c2.26,1.62,4.13,3.43,4.14,4s-1.84-.29-4.1-1.89a311.12,311.12,0,0,0-27.74-16.68,320,320,0,0,0-29.49-13.57A300.53,300.53,0,0,0,411.06,59a311.52,311.52,0,0,0-32.95-7.39c-2.43-.44-4.87-.73-7.29-1.09L367.2,50c-1.2-.16-2.41-.26-3.62-.39a.43.43,0,0,1,.1.27c0,.36-.51.65-1.3.86l4.1.45c1.36.19,2.72.42,4.08.63l4.09.66,2,.33,2,.42A190.28,190.28,0,0,1,424.39,64a235.42,235.42,0,0,1,28.53,13.49,283,283,0,0,1,34.41,18.3,3.14,3.14,0,0,1,1,.79c.11.18-.17.1-.62-.17l-5.95-3.26-3-1.65-3.05-1.58-6.14-3.16-6.26-3c1.14,1,1.72,1.76,1.41,2.1s-1.5.21-3.15-.33l5.51,3c1.14.61,1.94,1.26,1.8,1.45s-1.12-.14-2.2-.71c-3.75-2-7.48-4-11.31-5.84-1.91-.92-3.79-1.9-5.73-2.76L443.81,78a293.33,293.33,0,0,0-28.88-9.88,6.91,6.91,0,0,1,2.43,2.12h0l4.5,1.38c27.69,7.64,54.49,21.06,78.42,38.55.48.33.83.67.78.75s-.46-.11-.88-.41c-3.65-2.59-7.26-5.22-11-7.62-1.88-1.2-3.71-2.48-5.64-3.61l-5.72-3.44,0,0c.28.24.27.38-.1.24a5.81,5.81,0,0,1-1.19-.72c-.32-.28-.23-.36.09-.24A244.27,244.27,0,0,0,431.74,75a256.39,256.39,0,0,1,40.77,19.23c1.49.7,3,1.35,4.48,2.12a3.65,3.65,0,0,1,1,.75c.07.14-.27.06-.68-.16l-1.23-.64c2.42,1.52,4.07,3,3.76,3.44s-2.7-.52-5.22-2c-6.9-3.75-13.81-7.43-20.92-10.69l-2.33-1-2.43-.83a290.83,290.83,0,0,1,31.73,17.57c.89.53,1.57,1.1,1.49,1.27s-.88-.12-1.77-.64a295.3,295.3,0,0,0-28.58-14,288.87,288.87,0,0,0-30-11c-3.48-.62-7-1.1-10.47-1.63-3.54-.37-7.05-.81-10.6-1.1.87.19,1.73.42,2.6.64,11.12,2.61,21.43,5.17,31.58,8.25a197.47,197.47,0,0,1,30.2,11.7,2,2,0,0,1,.9.66c0,.12-.37,0-.88-.25a222.66,222.66,0,0,0-29.69-11.39l-6.35-1.94-6.27-1.65L419.73,81l-3.1-.66c-2.05-.43-4.09-.85-6.12-1.23l6.08,1.6,3,.78,3,.87,6,1.7,5.92,1.89,3,.94,2.93,1.05L446.29,90c1.94.76,3.87,1.56,5.81,2.34l2.91,1.2c1,.41,1.92.87,2.88,1.3a7.83,7.83,0,0,1,1.7,1,.79.79,0,0,1,.44.06,67.09,67.09,0,0,1,6.33,2.52,3.23,3.23,0,0,1,1.05.69C467.58,99.27,467.29,99.22,466.82,99ZM222.22,87l-.25-.08h.65l1.4.73Zm-4.67,9.45h0l-.81-.37Zm96.62-48.2-7.27.82c-1.21.11-2.42.28-3.62.46l-3.62.49c-4.85.56-9.63,1.45-14.5,2.07l6.93-1.68,2.74-.44,2.76-.32,5.52-.61c1.83-.23,3.68-.35,5.52-.46ZM213.94,86.38a12.41,12.41,0,0,1,3.27.79A5.35,5.35,0,0,1,218.56,86a27.32,27.32,0,0,1,4.26-2.13c-.43-.3-.09-.45,0-.59l.44-.41c-1.58.61-3.25,1.1-4.86,1.76A40.91,40.91,0,0,1,213.94,86.38Zm-8.22,8.41-.23-.05-.22-.76Zm.41,1.26.26-.06C206.49,96.25,206.37,96.22,206.13,96.05Zm2.31-.61a1.93,1.93,0,0,0-.5-.12Zm14.73,16-1.71-3.36,1.56,3.29Z"/></g></g></svg>