<svg xmlns="http://www.w3.org/2000/svg" viewBox="0 0 385.39 483.43"><g id="Layer_2" data-name="Layer 2"><g id="Layer_1-2" data-name="Layer 1"><path d="M120.37,7.78v.51c-.3,0-.54-.16-.73-.49a6.23,6.23,0,0,0,3.43,4.83,10.72,10.72,0,0,0,6,.78,1.84,1.84,0,0,0,2.75-.31,2.36,2.36,0,0,0,0-3,2.84,2.84,0,0,1-.25-.78,16.85,16.85,0,0,0-1.53-6.62c.08.52.15,1.06.22,1.58a5.05,5.05,0,0,0-.93-1.63l-.25.68a3.65,3.65,0,0,0-5.12-3,5.91,5.91,0,0,0-3.81,6.29Z"/><path d="M118.86,15.92c-.47-1.47-.85-2.95-1.2-4.43l.08-.48-1.13,1.52.09-.08a7.57,7.57,0,0,1,5.2,1l.65.16a1.58,1.58,0,0,0,1-.47,1.66,1.66,0,0,0,.23-2.23c-.2-.23-.38-.49-.57-.73-1-2.32-3.42-4.6-6.43-2.95a6.46,6.46,0,0,0-1.64,2,2.24,2.24,0,0,0-.14,3.11,2,2,0,0,0,3-.21l.27.58-.62.06c.93-.64,1.84-.16,2.77-.11l1,.51,1.31-2.72-.67-.09c0,.13-.09.33-.1.33a16.52,16.52,0,0,1-3.85-.59l-1.84-.19a1.52,1.52,0,0,0-1.16,1.51l.12.95v-.5c.8,1.57,1.84,3,2.63,4.59a.48.48,0,0,0,.69.25A.63.63,0,0,0,118.86,15.92Z"/><path d="M114.3,12.48a1.17,1.17,0,0,0-.41-.89l-.28.07c0,.2,0,.46.07.72C113.73,12.9,114.05,12.81,114.3,12.48Z"/><path d="M113.61,11.66l0-.3c0,.11,0,.21-.07.31h0Z"/><path d="M240.83,53.64c1,0,1.93.11,2.89.12h8.72l5.83-.27,2.92-.13,2.92-.27,5.85-.53,5.83-.77,2.93-.4c1-.14,1.94-.33,2.91-.49l5.82-1c.53-.09.94-.28.93-.41s-.42-.11-.9,0l-5.82,1-2.91.5-2.91.39-5.82.76-5.82.52-2.91.26-2.91.13-5.8.26c-1.94,0-3.87,0-5.8,0s-3.85,0-5.77-.12c-.51,0-.94.08-1,.21S240.35,53.61,240.83,53.64Z"/><path d="M358.83,33.93c-.31.25-.25.34.15.2a4.49,4.49,0,0,0,1.19-.65c.26-.22.19-.32-.15-.21A4.23,4.23,0,0,0,358.83,33.93Z"/><path d="M359.54,42.63l-2.89,1.94c-.94.61-1.83,1.21-2.66,1.81a4.51,4.51,0,0,1-1,.52c.2.09-.13.44-.86.91C337.82,57.12,321,65,303.85,71.4a1.67,1.67,0,0,1-.61.66,19.76,19.76,0,0,1-6,2.48l-1.95.46c-1.95.5-3.94.9-5.9,1.35s-3.93.92-5.92,1.27l-5.95,1.09-3,.52-3,.41a48.45,48.45,0,0,1-5.5,1.42c-3.4.89-6.85,1.61-10.32,2.42s-7,1.29-10.62,1.9c.46.1.74.26.75.46s-.5.5-1.18.7a13.06,13.06,0,0,1-2.57.37l-3,.2c2.86-.06,5.73,0,8.56-.24a11.28,11.28,0,0,1,1.14,0c3.11-.31,6.26-.56,9.42-1.11a213.83,213.83,0,0,0,39.39-9.9A263.69,263.69,0,0,0,333,60.26a4.45,4.45,0,0,1,1.32-.56c.26,0,.27.12-.14.36-1.71,1.08-3.42,2.08-5.12,3.07l-5.06,3c-3.38,1.94-6.78,3.84-10.27,5.74A170.88,170.88,0,0,1,290.4,82.25a242.28,242.28,0,0,1-67,13.81A335.84,335.84,0,0,1,187,94.2a239.67,239.67,0,0,1-36.91-6.71c-2.16-.49-4.25-1.2-6.36-1.81l-6.31-1.94-6.19-2.23c-2.06-.76-4.13-1.46-6.14-2.35l-1.51-.64-.76-.32-.29-.1-1-.39-2-.78c-1.36-.53-2.74-1-4.06-1.66q-4-1.81-7.92-3.75c-2.62-1.31-5.16-2.82-7.76-4.27a8.31,8.31,0,0,1-4.4-4.2,6,6,0,0,1,0-5.28,6.46,6.46,0,0,1,5.33-3.31l-.83-.62-1.1-1.27a6,6,0,0,1-1.51-4.15V46.55c.54-3.19.22-6.62,1.23-9.75l.93-.74v-.44A5.55,5.55,0,0,1,100,32.1l1-1a14.47,14.47,0,0,1,3.91-2.72,5,5,0,0,1,1.28-1.2,7,7,0,0,1,2.6-3.86,1,1,0,0,1,1-1,1,1,0,0,1,.5.14h0c.09-.41.11-.53.18-1-.18-.31-.27-.51-.27-.51-.53-.77-.53-.77-1-1.45a4.61,4.61,0,0,1-.06-1.6c1.08-2.42,1.09-2.41,1.88-3.18l.3-.15c-.19-.64-.2-.69-.25-.88a3,3,0,0,1,.07-.5c.37-.46.37-.46.43-.69a4.21,4.21,0,0,1,.27-.35c.67-.29.67-.29.79-.43a1.58,1.58,0,0,1,.35-.13l.63.14c-.38,1.68-.39,1.68-.39,1.68l.47-.29-.31.66.34-.56.05.56V13c.57.79.57.79.87,1a1.29,1.29,0,0,0,.64.43,3.45,3.45,0,0,1,.19-.29l1.18,1.71a3.41,3.41,0,0,1-.09.48.42.42,0,0,1,.51.14l.32.42h.14l0,0,.51.05h.11c.35,0,.85.1,2.24.16a5,5,0,0,1,.5.76l0-.38c0-.26.44-.61.41-.7a16.37,16.37,0,0,0-.82-1.62q-.42-.81-.9-1.56c-.62-1-1.3-2-2-3a.8.8,0,0,1-.17-1.11.79.79,0,0,1,1.08-.3c5.23.72,9.11,4.4,11.53,9.17.84.95,1.72,1.87,2.62,2.79v-.33l.56.91.08.08-.06-1.26-.26-.54a17.63,17.63,0,0,1-2.68-3.45c-.76-1.28-1.4-2.66-2.17-3.91a34.38,34.38,0,0,1-1.83-4.34.76.76,0,0,1,.08-1,.64.64,0,0,1,.93,0,18.85,18.85,0,0,1,5.29,4.51,15.37,15.37,0,0,1,3.38,6.45,3.86,3.86,0,0,1,1.41,2.15l0,0c0-.35,0-.67,0-1,.39.56.35,1.29.68,1.86l.4-1.07c1.13,1.14,2.46,2.11,3.71,3.16A18.93,18.93,0,0,1,144,25,11.68,11.68,0,0,1,145.51,27a2,2,0,0,1,.25.26,15.69,15.69,0,0,1,2.17,0l.53.08.14,0,.35.15.71.32c1,.43,1.9,1,2.92,1.43-.66-.39-1.28-.82-1.9-1.25l-1.82-1.26c.65.24,1.47.6,2.19.91s1.49.65,2.26.95c1.52.64,3,1.34,4.57,2.17,8.35,4.32,17.77,9.72,22,13.8A203.75,203.75,0,0,0,207.7,51a200.41,200.41,0,0,0,28.54,2.18,3.09,3.09,0,0,1,2.06.45c.1.26-.54.5-1.53.53s-1.72.1-2.59.12H226.4c-1.73,0-3.46-.15-5.2-.22s-3.48-.15-5.21-.31a189,189,0,0,1-20.75-2.94,167.45,167.45,0,0,0,35.19,5.94c1.55,0,3.11.12,4.67.1s3.06.06,4.59.18a187.72,187.72,0,0,0,46.12-5.14,240.74,240.74,0,0,0,37.42-12.44c8.85-3.79,17.13-7.86,25.28-12.12s16.08-8.9,24.3-13.85c2.12-1.39,4.32-2.38,4.83-2.17s-.82,1.54-3,3Q362.14,22.63,349,29.84a286,286,0,0,1-27.14,12.8,223.21,223.21,0,0,1-28.71,9.57,193.58,193.58,0,0,1-30.27,5.49c-2.22.26-4.44.35-6.64.53l-3.28.24c-1.1.06-2.19.07-3.28.11a.58.58,0,0,1,.13.26c0,.36-.37.7-1.05,1l3.75-.08,3.76-.21,3.77-.2,1.9-.1,1.89-.17c13.89-2.36,27.54-5.78,42.11-9.7,10-2.75,19.08-5.4,28.25-8.62a312.1,312.1,0,0,0,32.49-17.46,3,3,0,0,1,1.07-.52c.2,0,0,.2-.39.49-1.77,1.2-3.58,2.36-5.38,3.54l-2.73,1.78-2.8,1.68-5.65,3.37L345,36.84c1.4-.32,2.33-.32,2.44.13s-.67,1.31-2,2.32l5.45-2.67C352,36.09,353,35.79,353,36s-.7.85-1.78,1.38c-3.71,1.83-7.39,3.71-11.18,5.37-1.89.83-3.75,1.74-5.66,2.52l-5.72,2.36a265.35,265.35,0,0,1-27.8,10.43,6.8,6.8,0,0,1,3.12.38h0l4.41-1.39a372.66,372.66,0,0,0,76-39.68c.47-.32.9-.52,1-.44s-.26.38-.69.66c-3.67,2.41-7.27,4.9-11,7.17-1.86,1.15-3.67,2.38-5.56,3.46l-5.62,3.35,0,0c.34-.12.45-.06.15.2a4.6,4.6,0,0,1-1.17.7c-.39.14-.41,0-.16-.2a385.06,385.06,0,0,1-43.25,21.41,337.39,337.39,0,0,0,40.42-18.42c1.34-.9,2.71-1.74,4.06-2.69a3.18,3.18,0,0,1,1.11-.5c.15,0-.08.26-.47.51l-1.12.78c2.44-1.39,4.52-2.13,4.75-1.66s-1.72,2.15-4.26,3.62C355.81,39.25,349,43,341.85,46.37l-2.25,1.18-2.2,1.35A299.39,299.39,0,0,0,370,32.39c.89-.54,1.73-.88,1.84-.73s-.52.71-1.41,1.26a275.62,275.62,0,0,1-27.91,16.43,267.43,267.43,0,0,1-30,13.23c-3.26,1.63-6.58,3.17-9.91,4.79-3.38,1.47-6.78,3-10.27,4.47.92-.2,1.84-.45,2.75-.72A177.62,177.62,0,0,0,326.93,58.6c9.89-4.89,19.37-10.21,29.36-15.93a2,2,0,0,1,1.06-.42c.1,0-.19.33-.7.62-9.73,5.68-18.65,10.93-28.8,15.89l-6.27,3-6.23,2.74-3.08,1.37-3.09,1.27-6.12,2.56c2.12-.72,4.22-1.48,6.3-2.23l3.12-1.14,3.06-1.25,6.06-2.53,5.94-2.74,3-1.37L333.42,57,339.24,54,345,51l2.88-1.54c1-.52,1.91-1.08,2.86-1.62a8,8,0,0,1,1.84-.85c0-.07.12-.19.31-.33,1.81-1.28,3.84-2.53,5.86-3.91a3.39,3.39,0,0,1,1.17-.56C360.16,42.1,360,42.32,359.54,42.63ZM122.87,27.41v-.24l.2.55-.21,1.5S122.86,28.32,122.87,27.41Zm-9.73-.94h0c.09-.49.15-.85.15-.85C113.24,26,113.19,26.24,113.14,26.47Zm93.09,28L200,53.29c-1-.19-2.06-.46-3.08-.73l-3-.82a113.15,113.15,0,0,1-11.91-4l5.9,1.45,2.24.78,2.28.68L196.94,52c1.52.49,3.07.87,4.62,1.26ZM121.48,19.84a12.94,12.94,0,0,1,0,3.17,3.55,3.55,0,0,1,1.31.77c1,.94,2,1.85,3,2.81.12-.5.35-.27.52-.23l.47.19a43.4,43.4,0,0,1-2.85-3.4A28.86,28.86,0,0,1,121.48,19.84Zm-8.7-4.73,0-.22.67-.39Zm-1.11.7.08.21C111.52,16.18,111.54,16.06,111.67,15.81Zm.83,1.93a2,2,0,0,0,0-.48ZM100,35.51l2.93-2.37L100,35.35Z"/><path d="M258.54,106l-.57-.28c.13-.18.48-.2,1-.11a10.3,10.3,0,0,0-7.08-.49,9.44,9.44,0,0,0-2.45,1.16,7.42,7.42,0,0,0-1.62,1.49c-1.15.11-1.56.73-1.14,1.3a2.45,2.45,0,0,0,1.11.73,4.33,4.33,0,0,0,1.62.29,5.81,5.81,0,0,1,.89.2c.6.24,1.19.47,1.81.69l1.93.66,2,.67c.7.21,1.4.42,2.12.66-.63-.29-1.29-.57-1.9-.82a19.72,19.72,0,0,0,2.43.62l-.58-.48c3.13,1.3,6.41,1.69,7.06.21s-1.78-4.52-5.11-5.89Z"/><path d="M250.8,101.39a25.36,25.36,0,0,1,2.57.46c.87.19,1.73.4,2.61.67l.47.28-1-1.41,0,.09c-.42,1.37-2.22,2-3.78,2.64l-.52.27a.64.64,0,0,0-.12.73,2.57,2.57,0,0,0,2.16,1.06l1.07,0c.71.12,1.55.23,2.36.3a12.23,12.23,0,0,0,2.28,0c1.42-.18,2.46-.7,2.33-2-.06-.61-.85-1.41-1.37-2.13a3.85,3.85,0,0,0-3.39-1.78c-1.32.1-1.87,1-1.34,1.92l-.75-.1.26-.4c.2.85-.8,1.17-1.36,1.68l-1.06.39,2.06,1.86.46-.32c-.11-.08-.29-.2-.29-.21a14.93,14.93,0,0,1,2.79-1.82l1.24-.94c.2-.47-.28-1.15-1.07-1.51l-1.1-.41.54.25a53.49,53.49,0,0,0-6.1-.31c-.32,0-.57.14-.57.36S250.48,101.36,250.8,101.39Z"/><path d="M256.68,100a2.19,2.19,0,0,0,1.18.21l.06-.22-.83-.33C256.5,99.39,256.44,99.65,256.68,100Z"/><path d="M257.92,100l.34.15a2.73,2.73,0,0,0-.3-.21l0,0Z"/><path d="M267,249.68c-1,24.83-2.14,49.81-3.69,74.78-.05.83,0,1.54.21,1.58s.33-.6.37-1.38c1.61-25,2.78-49.83,3.78-74.66a2.81,2.81,0,0,0-.31-1.64C267.17,248.31,267,248.9,267,249.68Z"/><path d="M244.34,435.91c-.05-.59-.16-.57-.26,0A9.9,9.9,0,0,0,244,438c0,.5.17.48.25,0A9.72,9.72,0,0,0,244.34,435.91Z"/><path d="M236.12,430.48c-.27-3.5-.59-6.82-1-9.78a10.32,10.32,0,0,1-.06-1.64c-.18.21-.37-.46-.51-1.72-2.62-24.85-4.51-51.57-6.25-77.89a2.49,2.49,0,0,1-.65-1.11,29.56,29.56,0,0,1-1.12-9.28l.12-2.86c.17-11.55.38-23.07.8-34.56a68.29,68.29,0,0,1-.63-8.05c-.91-9.95-1.72-19.93-2.25-30.14-.21.64-.46,1-.73,1-.62-.2-1.09-2.57-1-5.33,0-1.39.07-2.77.16-4.16-.45,4-.54,8-.79,12,0,.58-.07,1.11-.13,1.59-.09,4.37-.09,8.79,0,13.28.43,39.22,4,76.09,7.74,112.67a6.88,6.88,0,0,1,0,2.07c-.1.36-.26.29-.36-.38-3.5-23.07-8.22-43-11-69.14-1.63-15.52-3-30.95-4-46.48-.26-3.89-.51-7.78-.7-11.68q-.16-2.93-.31-5.86c-.1-2-.23-3.91-.21-5.87a57.71,57.71,0,0,1,5.28-23.65c4-8.29,9-16.37,12.8-24.51,1-2.08,1.82-4,2.71-6.34l.64-1.67c.23-.64.47-1.17.67-1.62.42-.92.82-1.7,1.13-2.49a15.64,15.64,0,0,0,1.21-9.44,13,13,0,0,0-1.75-4.35c-.43-.69-.93-1.4-1.61-2.35a19,19,0,0,1-2.19-4,16.26,16.26,0,0,1-1.06-5.26,17.57,17.57,0,0,1,.56-5.16,23.47,23.47,0,0,1,4-7.76,12.76,12.76,0,0,0,1-1.58l0-.06h0l.09.06.35.18a6.11,6.11,0,0,0,.74.32l.39.13.19.08a2.75,2.75,0,0,0,.67.17s0,0,0,0h-.21l-.3,0-.21.05.11,0c.05,0,0,0-.4.18l-.31.17-.35.24a3.17,3.17,0,0,0-.46.33l-.1.08h0a.72.72,0,0,0-.18-.3,2.73,2.73,0,0,0-.24-.26,14.83,14.83,0,0,0-1.14-1c-.79-.6-1.57-1.2-2.29-1.82a21.6,21.6,0,0,1-3.72-3.67,9.81,9.81,0,0,1-1.75-4.15,3.52,3.52,0,0,1-.14-1.21c0-.42,0-.83,0-1.24a11,11,0,0,1,.52-2.26,7,7,0,0,1,.65-1.38,6.71,6.71,0,0,1,.85-1.27,6.19,6.19,0,0,1,.46-.62l.6-.58A16.66,16.66,0,0,1,231.9,128c.24-.18.51-.36.79-.53a6.56,6.56,0,0,1,.87-.49c.67-.28,1.32-.56,2-.87,1.32-.56,2.83-.95,4.2-1.41l2.08-.7c.42-.15.63-.25.93-.37a9,9,0,0,0,1.34-.69,1.3,1.3,0,0,0,.28-.24h0l.07.09c.19.24.47.52.59.7s.33.38.51.56l.28.26.2.2a4.09,4.09,0,0,0,.44.37c.17.11.21.17.34.24s.28.14.32.17l.19.09c.13,0,.19,0,.11,0a1.2,1.2,0,0,0-.34.11,2.18,2.18,0,0,0-.6.34,4.37,4.37,0,0,0-.86.62l-.19.18-.28.24a6.51,6.51,0,0,0-.54.51c-.17.18-.33.36-.48.55a3.39,3.39,0,0,1-.28.31c-.09.09,0,0-.07.06h-.08c-.11,0-.23,0-.38-.07-.65-.16-1.65-.4-2.73-.58-.56-.1-1.07-.2-1.74-.28l-2-.07c-.68,0-1.38-.2-2.06-.3a75.92,75.92,0,0,1-8.85-2l-1.68-1a3.48,3.48,0,0,0-.43-.25l-.54-.2-1.1-.39c-.34-.14-.76-.25-1.05-.41l-.74-.57c-.49-.38-1-.75-1.44-1.13s-.93-.76-1.36-1.15l-.43-.39-.58-.52c-.79-.69-.49-1.59-1.36-2.25l-.5-.54a2.13,2.13,0,0,1-.43-.54l-.67-1.12-.54-1.15a13.2,13.2,0,0,0-.73-1.19c-.64-.8.09-1.58-.74-2.49l-.37-.65a4.87,4.87,0,0,1,0-.66l.06-.65c0-.1,0-.23-.09-.35l-.16-.37c-.18-.49-.56-1-.31-1.44l.17-.68.08-.34a1.4,1.4,0,0,0-.07-.39c-.12-.52-.26-1-.36-1.58l.56-1.36.14-.34a1.26,1.26,0,0,0,0-.39l0-.8c0-.53-.05-1.06,0-1.6l.1-1.61,0-.41c0-.14.13-.21.19-.32l.49-.61,1-1.22a9.8,9.8,0,0,0,.56-1.46l.52-1.48,0-.1v0a.53.53,0,0,0-.06-.1l-.26-.42-.13-.2c0-.06,0-.08,0-.11l.09-.2.35-.81.34-.8.28-.71.54-1.32c.35-.85.73-1.72,1.1-2.56.28-.69.6-1.36.92-2a17.62,17.62,0,0,1,1-1.81,12.73,12.73,0,0,1,2.07-2.62c1.34-1.28,2.7-1.68,3.69-1,1.19.9,1.54,3.11,1.12,5.54l.65-1c.39-.45.8-.93,1.2-1.35,1.14-1.18,2.35-1.94,3.45-1.87H232c2.31.53,5.1.33,7.46,1.74l.39,1,.36,0a3.77,3.77,0,0,1,2.86,1.17l.64,1.14A11.85,11.85,0,0,1,244.9,87a3.87,3.87,0,0,1,.66,1.41,5.63,5.63,0,0,1,2.63,3.22.8.8,0,0,1,.58,1.08,1,1,0,0,1-.33.36h0l.89.45a5.19,5.19,0,0,1,.61,0c1-.16,1-.15,1.84-.24a5.89,5.89,0,0,1,1.66.59c2,1.84,2.05,1.88,2.5,2.8a1.46,1.46,0,0,1,0,.29c.78.17.85.2,1.07.26a3.51,3.51,0,0,1,.51.31c.34.49.34.49.56.66a4.24,4.24,0,0,1,.26.37c0,.6,0,.6.09.76a1.12,1.12,0,0,1,0,.29l-.47.33-1.65-1.12.09.46-.56-.53.44.49-.63-.24.78.37a4.54,4.54,0,0,0-1.54.07,1.75,1.75,0,0,0-.77.22,2.58,2.58,0,0,1,.21.25l-2.33.07-.44-.24c0,.15-.16.26-.39.28l-.58,0-.07.1,0,0c-.11.13-.19.22-.29.32l-.05.07h0c-.2.22-.5.53-1.29,1.33-.34,0-.69,0-1,.05l.37.1c.26.08.37.47.48.47,1.36.09,2.7.15,4.05.17s2.76.09,4.18.22a1.58,1.58,0,0,1,1.34.5c.3.37.17.7-.28.76a10.25,10.25,0,0,1-3.23,1.44,24.65,24.65,0,0,1-3.84.74c-2.7.31-5.46.42-8,.5-.57.08-1.14.21-1.69.33l-1.52.36.24.06c-.25,0-.62,0-.56.15v0h.19l.4.08h.47a17.26,17.26,0,0,1,3.89-.45c.75,0,1.45,0,2.23,0l2.39.12a16.91,16.91,0,0,1,2.67.36l2.77.61a1.37,1.37,0,0,1,1,.54c.14.26-.11.44-.53.4-1.25.14-2.46.16-3.77.24-.64,0-1.23,0-1.88,0h-1.86c-1.25,0-2.38-.08-3.51-.12l-1.58-.16a3.29,3.29,0,0,1-.36-.07l-.31,0-.11.06a1.53,1.53,0,0,1-.84.31h0l.49.08c-.17.11-.6,0-.8.14l.61.2a1.53,1.53,0,0,0-.47,1.3c0,.47.22.84.26,1.2a.59.59,0,0,1,0,.08c.35.12.69.21,1,.3l.22.06.06,0,.17.09.34.16c.46.21.92.39,1.39.59a13.61,13.61,0,0,1-1.67-.91c.65.3,1.35.56,2,.79.08,0,.15.06.24.08l.12,0,.06,0,.12.08,2,1.3c.68.46,1.37.9,2.13,1.46a22,22,0,0,1,2.48,2l.47.44c.16.16.34.36.5.55a9.07,9.07,0,0,1,1,1.36,7.78,7.78,0,0,1,.51.93,6.86,6.86,0,0,1,.42,1.1,10.87,10.87,0,0,1,.27,1.26,10.29,10.29,0,0,1,0,1.36,7.5,7.5,0,0,1-1.79,4.32,9.65,9.65,0,0,1-2.31,2,24.34,24.34,0,0,1-3.63,1.78c-.52.21-1.23.47-1.16.46a2.47,2.47,0,0,0-.36.11,9.58,9.58,0,0,0-1.46.54,1.55,1.55,0,0,0-.62.51,1.74,1.74,0,0,1-.11.18c0,.07,0,.13,0,.19a.75.75,0,0,0,.1.36,4.86,4.86,0,0,0,1,1l.27.24.14.13.07.07h0s0,0-.05,0,0,0,0,0l.17.14a15.63,15.63,0,0,1,2.67,2.62,12,12,0,0,1,2,3.71,11,11,0,0,1,.48,2,18,18,0,0,1,.09,2.06,14.87,14.87,0,0,1-.29,2,13.33,13.33,0,0,1-.57,1.72,13.58,13.58,0,0,1-.7,1.38c-.24.38-.48.75-.71,1.08a28.39,28.39,0,0,1-2.11,2.77c-.58.71-1.1,1.3-1.47,1.82a6.2,6.2,0,0,0-1.3,2.82,4.5,4.5,0,0,0,0,1.36,5.41,5.41,0,0,0,.62,1.7c.79,1.5,2,3.54,3,5.59a55.41,55.41,0,0,1,4.12,12.93c.43,2.24.71,4.55.95,6.72l.18,1.56a12.34,12.34,0,0,0,.26,1.32c.19.9.43,1.79.65,2.67.51,1.91,1.05,3.86,1.67,5.77s1.29,3.9,2,5.84c1.4,3.88,3,7.81,4.42,11.7a98.86,98.86,0,0,1,6.27,23.36c.22,1.6,0,3-.29,3.31s-.71-.9-.89-2.5a97.91,97.91,0,0,0-3.91-16.79c-1.81-5.63-4-11.26-6-16.92-1-2.81-1.9-5.64-2.73-8.46-.4-1.39-.78-2.79-1.12-4.19l-.26-1-.21-1c-.15-.65-.3-1.31-.42-2-.26-1.15-.34-2.8-.52-4.38s-.36-3.24-.66-4.85a53.32,53.32,0,0,0-2.55-9.41,51.89,51.89,0,0,1,2.16,7.84,68.23,68.23,0,0,1,1,8.05c.06.66.09,1.28.15,1.86s.17,1.06.26,1.62c.21,1.12.39,2.15.66,3.38.5,2.36,1,4.7,1.71,7.1,2.5,9.54,5.88,19.2,7.52,28.89.49,2.48.88,5,1.19,7.46a46.21,46.21,0,0,1,.23,7.33c-.09,12.38-.44,24.45-.7,36.58s-.52,24.33-.66,37c-.25,21.6-.67,40.49-1.64,62-1.43,30.2-4,57.7-9.74,87.51a43.24,43.24,0,0,1-2.06,8.09c-.35.48,0-2.4.65-6.38,2.47-15.54,4.13-31,5.38-46.52s2.1-31,2.74-46.59c1.26-31.18,1.81-62.73,2.85-95.24.2-7,.41-13.92.61-20.78a.66.66,0,0,1-.36.17c-.49,0-.93-.67-1.28-1.77q-.39,11.69-1.06,23.53c.5,21.93.65,43.9-1,67.28-1.15,16.05-2.9,30.57-4.53,45.41-.78,18.82-1.79,37.58-3.6,56.59a8.15,8.15,0,0,1-.28,1.81c-.1.28-.13-.13-.08-.9.85-13.07,1.37-26.46,1.76-40-.51,2.12-1,3.39-1.55,3.21s-.9-1.83-1.13-4.36l-.47,9.2c-.11,1.89-.37,3.38-.61,3.32s-.4-1.55-.32-3.35q.75-18.76,1.49-37.47c.14-15,.2-29.92.24-44.93a10.54,10.54,0,0,1-1.85,4.32h0c0,2.32-.05,4.64-.07,6.95q.88,31.82.26,64.3t-2.89,65.29a7.75,7.75,0,0,1-.19,1.57,5.8,5.8,0,0,1,0-1.41q1.22-19.81,1.94-39.52v.06c-.08.53-.19.63-.24,0a11.9,11.9,0,0,1,.07-2.06c.1-.6.21-.55.25-.05.86-24.47,1.07-48.77.6-72.75q-.44,33.42-1.66,66.81c0,2.42.1,4.84.16,7.31a7.74,7.74,0,0,1-.19,1.82c-.08.18-.17-.31-.17-1l0-2c-.17,4.21-.65,7.45-1.12,7.38-.48-.24-.83-3.86-.78-8.24,0-11.72.06-23.39.08-35.07l-.09-3.79c-.11-1.28-.22-2.54-.32-3.81-.38,18.16-.73,36.28-.87,54.3a8.19,8.19,0,0,1-.26,2.89c-.16,0-.31-1.21-.33-2.77-1.1-31.76-2.38-63.92-3.14-96.21-1.38-10.62-2.86-21.26-4.34-32.11,0,1.37,0,2.75,0,4.13.17,17.55,1.45,33.79,2.7,49.88s2.47,32,3.06,49a4.06,4.06,0,0,1-.13,1.67c-.1.09-.22-.48-.24-1.35-.72-16.59-2.12-31.74-3.31-48.21-1-13.64-1.91-26.61-3.15-39.29.84,25.91,3,50.77,4.4,76.43a15.12,15.12,0,0,1,0,3,1.37,1.37,0,0,1,.18.63c.41,3.21.74,6.71,1,10.29a6.77,6.77,0,0,1,0,1.91C236.33,431.66,236.21,431.24,236.12,430.48Zm2.5-329.2.2,0-.54.07-1.11-.28S237.87,101.16,238.62,101.28Zm4.87-6.89h0l.71.31Zm7.4,99.63c-.14-.8-.28-1.59-.37-2.35l-.2-2.71c-.13-1.89-.32-3.82-.64-5.73a49.38,49.38,0,0,0-3.11-11,47.22,47.22,0,0,0-2.48-5.1,13.92,13.92,0,0,1-1.74-3.74,4.63,4.63,0,0,1,0-1.35,6.68,6.68,0,0,1,.34-1.45,8.78,8.78,0,0,1,1.73-2.73,9.17,9.17,0,0,0-1.63,2.69,5.7,5.7,0,0,0-.27,2.67c0,1.12,1.68,3.53,2.95,6.15a47.45,47.45,0,0,1,3.09,8.12,52.09,52.09,0,0,1,1.62,8.61c.16,1.44.24,2.9.33,4.29,0,.66.07,1.37.14,1.9S250.79,193.43,250.89,194Zm-5.15-92.28a22.85,22.85,0,0,1-2.83-.73,4.9,4.9,0,0,1-1.26.7c-1.2.53-2.44,1-3.54,1.53.34.12.07.24,0,.34s-.24.19-.33.28c.61-.26,1.25-.5,1.88-.71s1.37-.42,2.05-.6,1.33-.34,2-.49A12.43,12.43,0,0,1,245.74,101.74Zm8.86-4,.22.12.1.63Zm-.21-1.08-.26,0C254.07,96.36,254.18,96.42,254.39,96.63ZM252,96.42a2.53,2.53,0,0,0,.46.22ZM240.1,81.19l1.18,3.18-1.05-3.13Z"/><path d="M174.31,150.65l-.41.31a.77.77,0,0,1,0-.88,6.09,6.09,0,0,0-1.83,5.61,10.59,10.59,0,0,0,2.93,5.24,1.81,1.81,0,0,0,1.9,2,2.36,2.36,0,0,0,2.45-1.77,2.72,2.72,0,0,1,.48-.67,17.14,17.14,0,0,0,4.42-5.13l-1.14,1.11a4.52,4.52,0,0,0,.74-1.71l-.7.2a3.59,3.59,0,0,0-.61-5.85,6,6,0,0,0-7.33.68Z"/><path d="M166.86,154.27c.91-1.25,1.87-2.43,2.85-3.59l.44-.21h-1.89l.11,0c1.51,1.2,1.95,3,2.3,4.75l.26.61a1.56,1.56,0,0,0,1,.55,1.69,1.69,0,0,0,1.94-1.14,8.89,8.89,0,0,1,.22-.89c1.3-2.15,1.67-5.45-1.44-6.88a6.52,6.52,0,0,0-2.56-.15,2.23,2.23,0,0,0-2.58,1.73,2,2,0,0,0,1.94,2.27l-.31.56-.41-.47c1.06.36,1.22,1.38,1.73,2.14l.2,1.14,3-.58-.33-.58c-.13,0-.32.12-.33.11a15.8,15.8,0,0,1-1.81-3.42l-.94-1.59a1.53,1.53,0,0,0-1.9,0l-.69.65.4-.29c-.79,1.56-1.31,3.24-2.13,4.83a.48.48,0,0,0,.21.7A.63.63,0,0,0,166.86,154.27Z"/><path d="M166.92,148.58a1.15,1.15,0,0,0,.48-.85l-.23-.18-.54.48C166.24,148.38,166.51,148.58,166.92,148.58Z"/><path d="M167.17,147.55l.23-.19-.29.12,0,0Z"/><path d="M208,270.36c1,1.55,2.14,3,3.22,4.5s2.16,3,3.33,4.45c2.35,2.86,4.62,5.83,7.15,8.57,1.24,1.39,2.46,2.82,3.74,4.18l3.91,4.05c.65.67,1.29,1.36,2,2l2,1.94,4.1,3.9c.38.33.76.54.86.46s-.14-.41-.5-.71a213.86,213.86,0,0,1-15.69-16.06c-2.51-2.74-4.77-5.68-7.11-8.55-1.17-1.42-2.21-3-3.31-4.43l-1.64-2.22c-.55-.74-1.08-1.49-1.57-2.26-.28-.41-.6-.67-.74-.65S207.77,270,208,270.36Z"/><path d="M290.18,350.08c-.37-.09-.4,0-.07.24a4.13,4.13,0,0,0,1.18.55c.32.07.36-.05.08-.25A3.93,3.93,0,0,0,290.18,350.08Z"/><path d="M283.76,355.9c-1.07-.39-2.13-.76-3.15-1.11s-2-.7-2.92-1a4.76,4.76,0,0,1-1-.47c0,.21-.42.16-1.2-.13-3.86-1.37-7.67-3.05-11.56-4.73-2-.82-3.85-1.79-5.79-2.71s-3.89-1.83-5.79-2.88l-5.76-3.06c-1.92-1-3.79-2.18-5.69-3.26-3.83-2.15-7.5-4.58-11.25-6.89a1.64,1.64,0,0,1-.88-.06,18.29,18.29,0,0,1-5.37-3.2L222,325.17c-1.52-1.19-2.95-2.51-4.42-3.76s-2.94-2.53-4.38-3.82l-4.23-4c-1.41-1.33-2.82-2.64-4.14-4.05a45.94,45.94,0,0,1-4.25-3.41c-1.35-1-2.63-2.1-3.92-3.2l-3.89-3.31c-1.33-1.09-2.55-2.29-3.82-3.46l-3.77-3.59c.17.42.21.74.06.86-.45.2-1.85-.74-3-2.23l-1.86-2.18,2.5,3.27c.85,1.08,1.74,2.11,2.6,3.17a10.75,10.75,0,0,1,.67.86l3,3.35c1,1.11,2.14,2.16,3.23,3.25a205.31,205.31,0,0,0,30.27,24.54A255.24,255.24,0,0,0,255,345.72a4.22,4.22,0,0,1,1.19.69c.16.19.06.28-.36.11-14.32-5.8-27.28-10.83-42.33-20.75a233.73,233.73,0,0,1-25.78-19.62,225.56,225.56,0,0,1-23.54-23.81,336.09,336.09,0,0,1-19.66-29.06c-1.46-2.53-3-5-4.41-7.62l-4.2-7.87c-1.33-2.68-2.62-5.42-3.94-8.18-.32-.7-.66-1.39-1-2.09l-.9-2.13c-.6-1.43-1.21-2.87-1.81-4.32L127,218.13c-.39-1-.73-2-1.1-3l-2.15-6-.52-1.49-.47-1.52-.92-3c-.6-2-1.22-4-1.79-6.07l-.38-1.53-.19-.77-.09-.29-.31-1.06-.6-2.13c-.39-1.42-.77-2.83-1.15-4.25a163.39,163.39,0,0,1-3-17.45,8.61,8.61,0,0,1,.7-6.07,6.05,6.05,0,0,1,4.22-3.18,6.43,6.43,0,0,1,5.84,2.31v-1l.36-1.65a6.12,6.12,0,0,1,2.43-3.71l1.5-1.12c2.85-1.47,5.43-3.79,8.54-4.84l1.15.3.35-.26a5.52,5.52,0,0,1,3.21-1.59l1.41.16a14.31,14.31,0,0,1,4.51,1.52,4.94,4.94,0,0,1,1.72.3,7.06,7.06,0,0,1,4.66-.21,1,1,0,0,1,1.38.18,1,1,0,0,1,.19.48h0a8.74,8.74,0,0,0,.92-.46c.14-.33.24-.52.24-.52.31-.88.31-.88.59-1.63a4.49,4.49,0,0,1,1.26-1c2.58-.58,2.58-.57,3.66-.39l.31.16.55-.73a3,3,0,0,1,.45-.24c.59,0,.59,0,.81-.06a2.17,2.17,0,0,1,.44,0c.63.35.63.35.82.37a2.33,2.33,0,0,1,.31.2l.26.59-1.58.69.51.2-.71.14.65-.06-.42.37.6-.42a3,3,0,0,0-.31,1.3,1.35,1.35,0,0,0,0,.77,1.71,1.71,0,0,1,.34,0c-.32,1-.32,1-.67,2a4.25,4.25,0,0,1-.43.21.43.43,0,0,1,.19.49l-.16.51a.76.76,0,0,1,.08.11h.05l.27.44.06.09h0c.17.3.46.74,1.22,1.88a5,5,0,0,1-.31.85,3.7,3.7,0,0,1,.29-.24c.2-.16.75,0,.81-.1a45.61,45.61,0,0,0,2.75-6.58.8.8,0,0,1,.79-.8.81.81,0,0,1,.89.69,13.5,13.5,0,0,1,1.59,7.25A15.72,15.72,0,0,1,173,161c-.19.62-.41,1.24-.66,1.85a18.79,18.79,0,0,1-.76,1.81c-.26,1.23-.48,2.49-.69,3.75l.27-.2-.4,1s0,.07,0,.11l1-.8.28-.53a17.45,17.45,0,0,1,1.19-4.2c.5-1.36,1.28-2.69,1.82-4.05a34,34,0,0,1,2.4-4,.75.75,0,0,1,.86-.53.63.63,0,0,1,.6.7,18.87,18.87,0,0,1-.49,6.9,14.73,14.73,0,0,1-3.16,6.52,4.25,4.25,0,0,1-.83,2.41v0l.79-.6c-.17.65-.82,1.05-1.07,1.66l1.1-.32c-.48,3.18,0,6.51-1.2,9.66a2,2,0,0,1-.06.35,16.09,16.09,0,0,1,1.26,1.75c.09.15.17.3.25.46a.81.81,0,0,1,.06.13l.09.36.15.72c.18,1,.46,2,.64,3l-.18-2.16-.06-2.12c.4,1.48.79,3,1.19,4.45a47.72,47.72,0,0,1,.92,4.73c.83,4.42,1.35,9.22,1.81,13.59.1,1.1.16,2.17.2,3.21s.14,2,.16,3a26.54,26.54,0,0,1-.27,5,200.32,200.32,0,0,0,11,24.9,184.77,184.77,0,0,0,14.65,23.06,2.89,2.89,0,0,1,.81,1.85c-.15.24-.71-.11-1.29-.86-2.16-2.49-4-5.2-6-7.85-1-1.31-1.91-2.71-2.83-4.09l-2.75-4.16c-.88-1.41-1.71-2.86-2.56-4.29s-1.74-2.84-2.51-4.33l-2.34-4.43-1.17-2.21-1.06-2.27a160.27,160.27,0,0,0,15.54,30.35c.85,1.21,1.67,2.44,2.61,3.61a43.08,43.08,0,0,1,2.47,3.64l1.63,2.25c.57.72,1.15,1.44,1.72,2.17l3.42,4.32c1.17,1.41,2.39,2.78,3.58,4.17s2.38,2.78,3.66,4.09l3.81,4c1.26,1.36,2.65,2.58,4,3.88s2.68,2.6,4.12,3.82l4.34,3.71c1.23,1.08,2.51,2.06,3.77,3l3.73,2.92c2.49,1.9,5,3.65,7.51,5.46s5.12,3.42,7.71,5.16,5.37,3.32,8.18,5c8,4.64,15.81,8.65,23.72,12.49s16,7.27,24.46,10.79c2.29.84,4.28,2,4.41,2.51s-1.66.28-4-.56c-9.05-3.24-17.92-6.83-26.59-10.84a278.16,278.16,0,0,1-25.32-13.51,216.21,216.21,0,0,1-23.73-16.57,182.2,182.2,0,0,1-21.48-20.08c-1.49-1.54-2.81-3.2-4.2-4.78s-2.77-3.16-4-4.83a.51.51,0,0,1-.14.25c-.27.24-.76.15-1.4-.19.74.93,1.45,1.9,2.21,2.82l2.31,2.76c1.53,1.85,3,3.75,4.67,5.54,9.76,9.28,20.19,17.79,31.49,26.76,7.81,6.1,15,11.59,22.7,16.81a300.39,300.39,0,0,0,31.94,15,2.85,2.85,0,0,1,1,.53c.12.15-.15.13-.6,0-1.94-.66-3.86-1.39-5.8-2.1l-2.92-1.08c-1-.38-1.93-.79-2.89-1.18l-5.82-2.41L280.13,341c1,.9,1.57,1.63,1.27,2s-1.41.27-3-.2l5.15,2.68c1.06.57,1.84,1.12,1.71,1.31s-1.07,0-2.08-.55c-3.52-1.82-7.08-3.57-10.51-5.54-1.72-1-3.47-1.9-5.17-2.91l-5.07-3.05a250.37,250.37,0,0,1-23.9-15.39A6.39,6.39,0,0,1,240,322h0l3.58,2.6a366.13,366.13,0,0,0,73.9,35.72c.52.18.92.4.89.5s-.44,0-.9-.15c-3.94-1.45-7.91-2.8-11.78-4.38-1.95-.77-3.92-1.47-5.84-2.3l-5.77-2.42,0,0c.29.19.3.32-.07.24a4.55,4.55,0,0,1-1.21-.5c-.32-.22-.24-.31.07-.25a377.73,377.73,0,0,1-41.16-21A330.32,330.32,0,0,0,289,350.65c1.47.52,2.9,1.09,4.4,1.57a3,3,0,0,1,1,.57c.08.13-.25.1-.66-.05l-1.24-.42c2.46,1.08,4.21,2.28,4,2.75s-2.65-.07-5.24-1.17c-6.9-3-13.74-6.09-20.35-9.64l-2.19-1.06-2.3-.91a287.69,287.69,0,0,0,31.27,15.64c.92.37,1.65.83,1.61,1s-.86,0-1.79-.35a267.07,267.07,0,0,1-28.59-12,250.42,250.42,0,0,1-27.34-15.48c-3.15-1.52-6.22-3.21-9.39-4.82s-6.22-3.46-9.37-5.27c.68.59,1.42,1.13,2.14,1.69,2.32,1.74,4.58,3.48,6.91,5s4.65,3,6.95,4.5,4.69,2.72,7,4,4.71,2.49,7,3.72c9.44,4.78,19,9,29.08,13.4.51.2.9.46.92.58s-.37.05-.88-.18c-9.93-4.22-19.09-8.05-28.72-13l-5.89-3.1c-1.93-1.05-3.81-2.15-5.69-3.2l-2.82-1.58c-.93-.53-1.84-1.09-2.75-1.63L230.59,328l5.33,3.56c.89.58,1.76,1.18,2.66,1.73L241.3,335c1.81,1.08,3.61,2.16,5.42,3.21l5.51,3,2.75,1.48,2.8,1.4,5.59,2.8,5.67,2.64,2.83,1.34,2.88,1.26a7.2,7.2,0,0,1,1.71.93.72.72,0,0,1,.43.05c2,.66,4.15,1.48,6.37,2.24a3.13,3.13,0,0,1,1.09.6C284.53,356.06,284.24,356,283.76,355.9ZM160.07,164.32l.19-.14-.32.49-1.33.73ZM155,156h0l.78-.38Zm32.43,88.5c-1.73-3.68-3.56-7.27-4.93-11.06-.7-1.89-1.47-3.74-2-5.65s-1.14-3.84-1.67-5.76c.75,1.78,1.49,3.56,2.24,5.35.92,2.87,2,5.69,3,8.58S186.32,241.6,187.44,244.48ZM165.29,158.7a13,13,0,0,1-2.55,1.88,3.64,3.64,0,0,1,.16,1.5c-.16,1.39-.21,2.74-.44,4.08.47-.19.43.13.49.29l.14.49c.3-1.44.58-2.87,1-4.31A29.26,29.26,0,0,1,165.29,158.7Zm-1.38-9.77.18-.11.72.3Zm-1.23-.48a2,2,0,0,1-.11.2C162.3,148.56,162.4,148.5,162.68,148.45Zm-1.05,1.81A1.69,1.69,0,0,0,162,150Zm-21.73.56,3.65.94-3.5-1Z"/><path d="M175.39,297.38l-.49-.27c.15-.28.49-.38.93-.38-4.81-1.87-9.22,1.34-11.4,5a2,2,0,0,0-1.61,2.49,2.45,2.45,0,0,0,2.74,1.7,3.06,3.06,0,0,1,.89.21,20.8,20.8,0,0,0,7.35,2.38l-1.68-.69a6.41,6.41,0,0,0,2.22.1c-.15-.19-.32-.4-.48-.58,2.78,1,5.63-.26,6.4-2.88a5.57,5.57,0,0,0-3.62-6.62Z"/><path d="M168.81,291.78c1.62.37,3.2.81,4.79,1.29l.4.33-.72-1.79v.13c-.68,1.86-2.46,3-4.15,4l-.56.45a1.47,1.47,0,0,0-.25,1.12,1.77,1.77,0,0,0,1.92,1.43l1-.11c2.76.36,6.55-.55,6.84-4a6.18,6.18,0,0,0-.87-2.46,2.44,2.44,0,0,0-2.83-1.77,2.11,2.11,0,0,0-1.62,2.68l-.7-.07.33-.57c0,1.14-1,1.69-1.61,2.47l-1.12.63,1.67,2.57.5-.54-.24-.27a18.92,18.92,0,0,1,3-3l1.32-1.48a1.45,1.45,0,0,0-.72-1.8l-1-.4.46.27c-1.93-.16-3.86,0-5.79-.15a.55.55,0,0,0-.64.47A.59.59,0,0,0,168.81,291.78Z"/><path d="M174.72,289.65a1.36,1.36,0,0,0,1.08.12l.09-.27-.71-.33C174.67,288.93,174.56,289.26,174.72,289.65Z"/><path d="M175.89,289.5l.29.14-.24-.23,0,0Z"/><path d="M82,328.84c-8.68,3.42-17.24,7.23-25.67,11.31-.28.14-.47.33-.42.44s.31.08.56,0q12.68-6.09,25.65-11.23c.29-.12.48-.31.46-.44S82.28,328.74,82,328.84Z"/><path d="M14.71,353.13c.15-.19.08-.27-.15-.19a1.54,1.54,0,0,0-.65.43c-.12.16-.05.25.15.19A1.61,1.61,0,0,0,14.71,353.13Z"/><path d="M12.14,345.73a31.76,31.76,0,0,0,2.74-2.66,1.74,1.74,0,0,1,.52-.36c-.16-.08,0-.35.33-.69C22.78,335.35,31,329,39,322.63a1.09,1.09,0,0,1,.14-.61,6.71,6.71,0,0,1,2.68-2.52l1-.51c3.89-2.24,7.76-4.47,11.7-6.56a16.62,16.62,0,0,1,2.44-2c3-2.57,6-5.15,9.16-7.63a.59.59,0,0,1-.58-.24c-.15-.44.47-1.22,1.4-1.77l1.38-.87L64.16,302a4,4,0,0,1-.56.26c-1.47.88-2.93,1.79-4.39,2.77-6.39,4.25-12.35,8.75-18.06,13.36S30,327.72,24.63,332.47a1.55,1.55,0,0,1-.68.43c-.16,0-.2-.11,0-.3,6.31-6.68,11.31-13.35,19.06-20.3,9.22-8.25,18.59-16.23,28.73-24,11.18-7,21.19-14.3,32.64-21.82,4.24-2.77,8.47-5.43,12.72-7.94,6.63-4.22,13.35-7.85,20.33-11.41,3.45-2.25,7.68-1.44,9.4,1.77a6.85,6.85,0,0,1-.06,6.29l.9-.35,1.55-.21a5.54,5.54,0,0,1,4.06,1.07l1.51,1c2.3,2.23,5.25,3.73,7.35,6.27l.15,1.2.36.23a5.66,5.66,0,0,1,2.64,2.43l.39,1.38a14.22,14.22,0,0,1,.27,4.81,5.29,5.29,0,0,1,.35,1.74,7,7,0,0,1,1.93,4.29,1,1,0,0,1,.34,1.37,1,1,0,0,1-.41.36h0a9.76,9.76,0,0,0,.79.68c.38,0,.6,0,.6,0,1-.05,1-.05,1.85-.06a4.78,4.78,0,0,1,1.47.8c1.58,2.21,1.58,2.22,1.83,3.3,0,.12,0,.23,0,.34.71.18.76.19,1,.26a2.23,2.23,0,0,1,.42.32c.22.56.22.56.39.74a2.51,2.51,0,0,1,.17.42c-.12.73-.12.73-.06.91a1.78,1.78,0,0,1-.08.36l-.51.47-1.33-1.22v.55l-.42-.61.32.58-.55-.25.66.4a3.78,3.78,0,0,0-1.46.2,1.66,1.66,0,0,0-.77.32,2.39,2.39,0,0,1,.15.32c-1.15.07-1.15.08-2.27.12a3.05,3.05,0,0,1-.38-.32.46.46,0,0,1-.43.36l-.58.06-.08.12v0l-.35.42-.07.1h0l-1.54,1.81a6.67,6.67,0,0,1-1,0l.36.18c.23.15.27.71.38.74a41,41,0,0,0,7.91.12.92.92,0,0,1,1.15.45.78.78,0,0,1-.39,1.09c-3.9,4.23-10,5.42-15.88,4.76-1.41.14-2.83.32-4.24.52l.29.19-1.19-.07-.11,0,1.13.67c.21,0,.43.08.64.1,3.23-.57,6.58.05,9.9.15a44.54,44.54,0,0,1,5.27.87.82.82,0,0,1,.89.63.66.66,0,0,1-.57.8c-4.82,2-10.79,2.92-16,1a4.7,4.7,0,0,1-2.87-.06h0l.86.58c-.76,0-1.37-.49-2.1-.56l.63.95c-3.64.41-7.19,1.84-10.9,1.45a2.71,2.71,0,0,1-.4,0,21.15,21.15,0,0,1-1.66,1.62l-.47.36-.12.08-.21.12-.44.22a18.79,18.79,0,0,1-1.87.81l2.8-.58a26.56,26.56,0,0,1-5.64,2.63c-5.66,1.79-12.54,2.62-16.56,1.46-10.68,4.42-21.3,9.1-31.63,14.28a1.45,1.45,0,0,1-1.32.15c-.17-.2.08-.57.61-.85,7.16-4.19,14.69-8,22.32-11.59-6.75,2.24-13.47,4.7-20.12,7.61l-2.49,1.26a17.78,17.78,0,0,1-2.56,1,260.36,260.36,0,0,0-24.54,12.55c-6.95,4.15-12.93,7.93-19.65,12.36-9.44,6.25-17.91,12.08-27.49,17.91-1.24.83-2.59,1.3-3,1s.28-1.14,1.52-2c9.55-6.75,19-13.39,28.91-19.73A300.56,300.56,0,0,1,68,330.05c2.38-1.13,4.71-2.27,7.06-3.35a.68.68,0,0,1-.18-.2,1.09,1.09,0,0,1,.15-1.1c-2.68,1.21-5.38,2.43-8.13,3.61-7,4.36-14,8.76-21.87,12.75-5.4,2.74-10.5,4.93-15.6,7.37-5.93,3.92-11.75,8-17.67,12a1.17,1.17,0,0,1-.64.29c-.13,0,0-.17.17-.36,3.84-3.12,7.87-6.2,12-9.22-.86.17-1.48.1-1.67-.29s.12-1.07.77-1.82l-3,1.85c-.61.38-1.18.55-1.28.36s.26-.66.84-1q6-3.84,12.08-7.53c4.71-3.2,9.45-6.32,14.26-9.39a3.52,3.52,0,0,1-2-.19h0L41,335.2C27.92,344.73,14.38,354.09.6,363.43c-.27.19-.53.29-.59.22s.11-.28.35-.44l12.4-8.49h0c-.2.07-.29,0-.15-.18a1.71,1.71,0,0,1,.65-.44c.23-.08.27,0,.15.18C21,349,28.61,343.69,36,338.33L14.59,352l-2.11,1.85a1.13,1.13,0,0,1-.64.28c-.1,0,0-.21.2-.37l.59-.51c-1.35.86-2.6,1.23-2.86.81s.69-1.58,2.07-2.52q5.45-3.93,11-7.64l1.16-.88,1.07-1c-5.92,3.63-11.8,7.32-17.57,11.1-.48.34-1,.52-1.08.39s.19-.54.67-.89c9.5-7.64,19.4-15.05,29.63-22.1l9-9.06-1.36.84A142.73,142.73,0,0,0,29,334c-4.78,4-9.43,8.1-14.64,12-.26.21-.52.3-.61.25s.05-.26.32-.45c5-3.92,9.37-7.91,14.31-12,4.08-3.37,8-6.52,11.74-9.81-8.25,5.71-15.58,12-23.41,18.09a2.69,2.69,0,0,1-1,.57.35.35,0,0,1-.12.25c-.87.92-1.85,1.87-2.89,2.79a1.09,1.09,0,0,1-.65.34C11.85,346.12,11.93,346,12.14,345.73ZM156.21,288.8l.2.14-.6-.16-1.14-1Zm6.69-7.6h0l.65.61Zm-63.54,36a91.73,91.73,0,0,1,14.43-4.87l-3.33,1.53Zm64.28-25.34a13.66,13.66,0,0,1-2.77-1.76,4.48,4.48,0,0,1-1.49.68c-1.45.37-2.9.65-4.35.87.34.39,0,.44-.15.55l-.47.28c1.57-.17,3.16-.3,4.78-.39A30.24,30.24,0,0,1,163.64,291.83ZM173.2,287l.18.13,0,.79Zm0-1.33-.24,0C173,285.3,173.05,285.37,173.21,285.62Zm-2.23-.31a1.65,1.65,0,0,0,.4.29Zm-8.61-20.22.48,3.79-.36-3.68Z"/></g></g></svg>