<svg xmlns="http://www.w3.org/2000/svg" viewBox="0 0 386.86 430.98"><g id="Layer_2" data-name="Layer 2"><g id="Layer_1-2" data-name="Layer 1"><path d="M83.54,42.83l.59,0c-.07.35-.4.61-.85.8a10.49,10.49,0,0,0,6.83-3.4A16.32,16.32,0,0,0,94,33.85a2.46,2.46,0,0,0,1.2-3.18A2.39,2.39,0,0,0,91.91,30a3.86,3.86,0,0,1-1,.14,22.08,22.08,0,0,0-8.69.8l2-.07a7.24,7.24,0,0,0-2.49.94l.67.35c-3.28.37-6.12,3.16-6.16,6.12s2.63,5,5.84,4.65Z"/><path d="M91.93,45.41c-1.74.31-3.47.55-5.25.79l-.5-.15,1.27,1.41,0-.11c.13-2.09,1.61-4,3.09-5.68L91,41a1.45,1.45,0,0,0,0-1.19,1.77,1.77,0,0,0-2.41-.66c-.36.18-.7.39-1.06.58-3,.87-6.73,3.62-5.92,7,.19.79,1.06,1.32,1.68,1.93a2.52,2.52,0,0,0,3.45.44,2.39,2.39,0,0,0,.82-3.29l.74-.24c-.06.23-.11.46-.17.7-.37-1.1.51-2.07.92-3.11l1-1.11-2.43-1.8-.38.76.33.15a26.64,26.64,0,0,1-2.19,4.29l-.89,2a1.29,1.29,0,0,0,1.3,1.39l1.09,0-.55-.06c2-.7,3.91-1.66,5.89-2.3a.68.68,0,0,0,.51-.73A.55.55,0,0,0,91.93,45.41Z"/><path d="M86.61,50a1.58,1.58,0,0,0-1.13.35v.3h.82C86.89,50.62,86.9,50.27,86.61,50Z"/><path d="M85.48,50.62h-.34l.31.11,0,0Z"/><path d="M237.41.78c1.12.11,2.25.18,3.37.32l3.35.43,6.69.86,6.64,1.1,3.32.55,3.29.67,6.57,1.34,6.51,1.58,3.24.78c1.08.28,2.15.6,3.22.89L290,11.11c.57.15,1.07.22,1.13.11s-.36-.35-.89-.49l-6.43-1.82L280.63,8l-3.25-.79-6.5-1.59-6.57-1.35L261,3.6,257.71,3l-6.64-1.11c-2.22-.32-4.45-.58-6.69-.87s-4.47-.6-6.72-.76c-.61,0-1.12,0-1.2.15S236.84.73,237.41.78Z"/><path d="M357.1,50.91c-.38-.13-.42,0-.09.23a4.74,4.74,0,0,0,1.21.68c.32.11.38,0,.1-.23A4.67,4.67,0,0,0,357.1,50.91Z"/><path d="M350.11,56.12c-1.05-.47-2.07-.94-3.08-1.35s-2-.75-2.92-1.06a4.3,4.3,0,0,1-1-.48c0,.21-.42.15-1.2-.15A320.8,320.8,0,0,0,293.53,38a1.56,1.56,0,0,1-.82.26,16.94,16.94,0,0,1-5.95-.76L285,37c-1.78-.5-3.58-.88-5.38-1.33s-3.58-.9-5.39-1.25l-5.41-1.09-2.71-.55-2.72-.46a40.87,40.87,0,0,1-5.16-.18c-3.19,0-6.38.11-9.57.14l-9.61.45c.4.17.63.36.62.56s-.49.42-1.1.56a9.72,9.72,0,0,1-2.26.24l-2.59.06c2.48.11,4.95.13,7.43.4a9.07,9.07,0,0,1,1,.11c2.72.12,5.49.12,8.29.34A288,288,0,0,1,321.17,47a3.9,3.9,0,0,1,1.23.54c.18.17.09.27-.33.15C307.42,44.07,294.32,43,278,41.4a221.07,221.07,0,0,0-57.2,1.86A147.59,147.59,0,0,0,192.54,49,167.29,167.29,0,0,0,166,59.7c-1.5.66-2.91,1.52-4.35,2.26l-4.28,2.28-4.12,2.45c-1.36.82-2.76,1.56-4.05,2.46l-1,.65-.49.32-.17.13-.64.47-1.26.93c-.84.61-1.71,1.17-2.51,1.83q-2.44,1.89-4.92,3.67c-1.65,1.2-3.19,2.52-4.82,3.76a5,5,0,0,1-4,1.47,6.6,6.6,0,0,1-4.23-2.21,7.5,7.5,0,0,1-1.92-5.8l-.65.47-1.24.43a5.19,5.19,0,0,1-3.81-.3l-1.64-.68c-2.72-1.59-5.74-2.19-8.49-4l-.55-1.06-.4-.1a5.94,5.94,0,0,1-3.2-1.45l-.83-1.15a13.5,13.5,0,0,1-1.89-4.36,5.12,5.12,0,0,1-.9-1.5,6.82,6.82,0,0,1-3.23-3.36,1,1,0,0,1-.77-1.16,1.09,1.09,0,0,1,.28-.49h0a7.28,7.28,0,0,0-1-.36c-.37.13-.59.19-.59.19-.94.42-.94.42-1.77.76a5,5,0,0,1-1.7-.17c-2.28-1.44-2.29-1.43-2.9-2.35,0-.11,0-.23-.07-.34l-1,.17a3,3,0,0,1-.53-.13c-.4-.43-.4-.43-.63-.52a2.74,2.74,0,0,1-.32-.32c-.12-.73-.12-.73-.23-.88a1.4,1.4,0,0,1,0-.38c.23-.42.32-.59.35-.66l1.75.58L87,50.77l.63.4-.51-.41h.63l-.8-.09a4.77,4.77,0,0,0,1.41-.82,2.05,2.05,0,0,0,.68-.63,1.89,1.89,0,0,1-.25-.24c1.12-.56,1.12-.56,2.24-1.07l.48.16a.54.54,0,0,1,.31-.52l.57-.29,0-.16,0,0c.09-.23.16-.38.23-.56l0-.12h0c.16-.38.38-1,1.07-2.35a6.36,6.36,0,0,1,1-.35l-.42-.06c-.28-.05-.47-.6-.59-.58-.72.14-1.43.32-2.13.53s-1.35.51-2,.8c-1.34.58-2.66,1.23-4,1.85a1,1,0,0,1-1.31.09.83.83,0,0,1,.06-1.23c2.7-6,9.14-9.76,15.48-11,1.51-.58,3-1.19,4.48-1.81l-.35-.11,1.28-.28.12-.05-1.32-.36q-.36,0-.72.09a28.92,28.92,0,0,1-5.29,1.71c-1.8.47-3.6,1-5.41,1.54s-3.91.8-5.9,1.27a.84.84,0,0,1-1.13-.24.8.8,0,0,1,.43-1,36.05,36.05,0,0,1,8.14-5.23,21,21,0,0,1,9.18-1.75,5.62,5.62,0,0,1,3.12-.8h0l-1-.36c.82-.26,1.58.14,2.39,0l-.82-.83c2-.66,3.92-1.57,5.88-2.37a29.47,29.47,0,0,1,2.94-1.05,13.84,13.84,0,0,1,3.06-.48,3.48,3.48,0,0,1,.44-.1,21.74,21.74,0,0,1,1.75-2c.16-.16.33-.31.5-.46l.14-.11.43-.25.88-.49a39.34,39.34,0,0,1,3.73-1.88c-.94.3-1.84.66-2.74,1l-2.65,1a2,2,0,0,1,.27-.18l.34-.2.68-.4,1.36-.8a31.09,31.09,0,0,1,2.8-1.48c1.92-.92,3.89-1.79,6-2.61,11.38-4.37,24.9-6.54,31.66-5.37a245,245,0,0,1,33.55-6.19A270.66,270.66,0,0,1,232,.06a4.21,4.21,0,0,1,2.41.56c.11.27-.66.48-1.82.44a264.89,264.89,0,0,0-48.55,4.62,288.42,288.42,0,0,1,41.22-2c1.77,0,3.55-.07,5.33,0s3.51.22,5.25.42c17.69,1,34.15,4,51.52,8l2.77.64,2.7.71,5.31,1.42c1.76.44,3.48,1,5.19,1.51L308.47,18c3.4,1.07,6.74,2.28,10.17,3.44S325.45,24,329,25.35a281.15,281.15,0,0,1,27.91,13.11,244.79,244.79,0,0,1,25.84,16.33c2.26,1.62,4.13,3.43,4.13,4s-1.83-.29-4.09-1.89A312.24,312.24,0,0,0,355,40.21a320.17,320.17,0,0,0-29.49-13.57,299.56,299.56,0,0,0-31.18-10.51,317.15,317.15,0,0,0-33-7.39C259,8.3,256.53,8,254.11,7.65l-3.62-.52c-1.21-.15-2.42-.26-3.62-.39A.53.53,0,0,1,247,7c0,.35-.51.64-1.3.85l4.09.45c1.37.19,2.73.42,4.09.63l4.09.66,2,.34,2,.42a189.34,189.34,0,0,1,45.67,10.7,233.9,233.9,0,0,1,28.53,13.48,284.47,284.47,0,0,1,34.41,18.3,3.4,3.4,0,0,1,1,.79c.11.18-.17.1-.63-.16l-6-3.27-3-1.65c-1-.53-2-1.05-3-1.57l-6.14-3.16-6.26-3c1.14,1,1.72,1.76,1.41,2.1s-1.5.21-3.16-.33l5.52,3c1.14.61,1.94,1.26,1.8,1.45s-1.12-.14-2.2-.71c-3.76-2-7.48-4-11.31-5.84-1.92-.91-3.8-1.9-5.73-2.76l-5.81-2.61a296,296,0,0,0-28.88-9.88,7,7,0,0,1,2.43,2.12h0l4.49,1.38c27.69,7.64,54.5,21.06,78.43,38.55.48.34.83.67.78.76s-.46-.11-.88-.42c-3.65-2.59-7.26-5.22-11-7.62-1.88-1.2-3.71-2.48-5.63-3.61l-5.72-3.44,0,0c.27.24.27.37-.1.23a5.17,5.17,0,0,1-1.19-.72c-.32-.28-.23-.35.09-.24A244.94,244.94,0,0,0,315,32.12,256.8,256.8,0,0,1,355.8,51.35c1.49.7,3,1.35,4.48,2.12a3.82,3.82,0,0,1,1,.75c.06.14-.27.06-.68-.16l-1.23-.63c2.41,1.51,4.07,3,3.76,3.43s-2.7-.52-5.22-2C351,51.08,344.08,47.4,337,44.14l-2.34-1-2.42-.83A291.84,291.84,0,0,1,363.94,59.9c.89.52,1.57,1.1,1.49,1.26s-.88-.12-1.77-.64a297.51,297.51,0,0,0-28.58-14,287.48,287.48,0,0,0-30-11c-3.48-.62-7-1.09-10.48-1.63-3.53-.37-7-.81-10.59-1.1.86.19,1.73.42,2.6.64,11.11,2.61,21.43,5.17,31.58,8.25a197.87,197.87,0,0,1,30.2,11.7,2.06,2.06,0,0,1,.9.66c0,.12-.38,0-.88-.25a222.66,222.66,0,0,0-29.69-11.39l-6.35-1.94-6.27-1.65L303,38.05l-3.1-.66c-2.05-.43-4.09-.85-6.12-1.23l6.08,1.6,3,.78,3,.87,6,1.7L317.81,43l3,1,2.93,1,5.87,2.11c1.94.76,3.87,1.56,5.81,2.35l2.91,1.19c1,.41,1.92.87,2.88,1.31a7.45,7.45,0,0,1,1.7.95.79.79,0,0,1,.44.06,64.51,64.51,0,0,1,6.32,2.53,3.18,3.18,0,0,1,1.06.68C350.87,56.36,350.58,56.31,350.11,56.12Zm-244.61-12-.24-.09h.65l1.4.73Zm-4.66,9.44h0l-.82-.37Zm96.62-48.2-7.27.82c-1.22.11-2.42.29-3.63.46l-3.61.5c-4.85.55-9.63,1.44-14.5,2.06l6.93-1.68,2.74-.43,2.76-.33,5.51-.61c1.84-.23,3.68-.34,5.53-.45ZM97.23,43.47a12.14,12.14,0,0,1,3.27.8,5.15,5.15,0,0,1,1.34-1.16A27,27,0,0,1,106.11,41c-.43-.3-.09-.44,0-.59l.43-.4c-1.58.6-3.24,1.09-4.86,1.75A40.75,40.75,0,0,1,97.23,43.47ZM89,51.88l-.23-.05-.22-.76Zm.41,1.27.25-.07C89.78,53.34,89.66,53.31,89.42,53.15Zm2.3-.61a1.48,1.48,0,0,0-.49-.12Zm14.73,16-1.71-3.36,1.57,3.29Z"/><path d="M258.54,53.5l-.57-.28c.13-.18.48-.2,1-.11a10.3,10.3,0,0,0-7.08-.49,9.44,9.44,0,0,0-2.45,1.16,7.42,7.42,0,0,0-1.62,1.49c-1.15.11-1.56.73-1.14,1.3a2.45,2.45,0,0,0,1.11.73,4.33,4.33,0,0,0,1.62.29,5.55,5.55,0,0,1,.89.2c.6.24,1.19.47,1.81.69l1.93.65,2,.67c.7.22,1.4.43,2.12.67-.63-.29-1.29-.57-1.9-.82a19.72,19.72,0,0,0,2.43.62l-.58-.48c3.13,1.3,6.41,1.69,7.06.21s-1.78-4.53-5.11-5.89Z"/><path d="M250.8,48.94a25.36,25.36,0,0,1,2.57.46c.87.19,1.73.4,2.61.66l.47.29-1-1.41,0,.09c-.42,1.37-2.22,2-3.78,2.64l-.52.27a.64.64,0,0,0-.12.73,2.57,2.57,0,0,0,2.16,1.06l1.07,0a23,23,0,0,0,2.36.3,12.26,12.26,0,0,0,2.28,0c1.42-.18,2.46-.7,2.33-2.05-.06-.61-.85-1.41-1.37-2.13a3.85,3.85,0,0,0-3.39-1.78c-1.32.1-1.87,1-1.34,1.92l-.75-.1.26-.4c.2.85-.8,1.17-1.36,1.68l-1.06.38,2.06,1.87.46-.32-.29-.21a14.93,14.93,0,0,1,2.79-1.82l1.24-.94c.2-.47-.28-1.15-1.07-1.51l-1.1-.41.54.25a53.56,53.56,0,0,0-6.1-.32c-.32,0-.57.14-.57.37S250.48,48.91,250.8,48.94Z"/><path d="M256.68,47.52a2.09,2.09,0,0,0,1.18.2c0-.12.05-.18.06-.21l-.83-.33C256.5,46.94,256.44,47.2,256.68,47.52Z"/><path d="M257.92,47.51l.34.15a2.73,2.73,0,0,0-.3-.21l0,0Z"/><path d="M267,197.23c-1,24.83-2.14,49.81-3.69,74.78-.05.83,0,1.54.21,1.58s.33-.6.37-1.38c1.61-25,2.78-49.83,3.78-74.66a2.79,2.79,0,0,0-.31-1.64C267.17,195.86,267,196.45,267,197.23Z"/><path d="M244.34,383.46c-.05-.59-.16-.57-.26,0a10,10,0,0,0-.06,2.06c0,.5.17.48.25-.05A9.61,9.61,0,0,0,244.34,383.46Z"/><path d="M236.12,378c-.27-3.5-.59-6.82-1-9.78a10.32,10.32,0,0,1-.06-1.64c-.18.2-.37-.46-.51-1.73C231.93,340,230,313.32,228.3,287a2.48,2.48,0,0,1-.65-1.12,29.45,29.45,0,0,1-1.12-9.27l.12-2.86c.17-11.55.38-23.07.8-34.56a68.29,68.29,0,0,1-.63-8.05c-.91-9.95-1.72-19.93-2.25-30.14-.21.64-.46,1-.73,1-.62-.2-1.09-2.57-1-5.33,0-1.39.07-2.77.16-4.16-.45,4-.54,8-.79,11.95,0,.57-.07,1.11-.13,1.59-.09,4.37-.09,8.79,0,13.28.43,39.22,4,76.09,7.74,112.67a6.88,6.88,0,0,1,0,2.07c-.1.36-.26.29-.36-.38-3.5-23.07-8.22-43.05-11-69.14-1.63-15.52-3-30.95-4-46.49-.26-3.88-.51-7.77-.7-11.67-.11-2-.21-3.91-.31-5.86s-.23-3.92-.21-5.88A57.63,57.63,0,0,1,218.46,171c4-8.29,9-16.37,12.8-24.51,1-2.08,1.82-4,2.71-6.34l.64-1.67c.23-.65.47-1.17.67-1.63.42-.92.82-1.69,1.13-2.48a15.64,15.64,0,0,0,1.21-9.44,12.88,12.88,0,0,0-1.75-4.35c-.43-.69-.93-1.4-1.61-2.36a18.53,18.53,0,0,1-2.19-4A16.15,16.15,0,0,1,231,109a17.57,17.57,0,0,1,.56-5.16,23.37,23.37,0,0,1,4-7.76,12.76,12.76,0,0,0,1-1.58l0-.06h0l.09.06.35.18a6.11,6.11,0,0,0,.74.32l.39.13a1,1,0,0,1,.19.08,2.75,2.75,0,0,0,.67.17s0,0,0,0h-.21l-.3,0-.21,0,.11,0c.05,0,0,0-.4.18l-.31.17-.35.24a4.13,4.13,0,0,0-.46.32l-.1.09h0a.72.72,0,0,0-.18-.3,2.73,2.73,0,0,0-.24-.26,14.83,14.83,0,0,0-1.14-1c-.79-.6-1.57-1.2-2.29-1.82a21.63,21.63,0,0,1-3.72-3.68,9.72,9.72,0,0,1-1.75-4.14,3.52,3.52,0,0,1-.14-1.21c0-.42,0-.83,0-1.24a11,11,0,0,1,.52-2.26,7,7,0,0,1,.65-1.38,6.4,6.4,0,0,1,.85-1.27,6.19,6.19,0,0,1,.46-.62l.6-.58a16.66,16.66,0,0,1,1.42-1.11c.24-.18.51-.36.79-.53a6.56,6.56,0,0,1,.87-.49c.67-.28,1.32-.56,2-.87,1.32-.56,2.83-1,4.2-1.42l2.08-.69c.42-.16.63-.25.93-.38a8.21,8.21,0,0,0,1.34-.68,1.3,1.3,0,0,0,.28-.24h0s0,0,0,0l.07.1c.19.24.47.52.59.7s.33.38.51.56l.28.26.2.2a3.13,3.13,0,0,0,.44.36c.17.12.21.17.34.25s.28.14.32.17l.19.09c.13,0,.19,0,.11,0a1.76,1.76,0,0,0-.34.12,2.16,2.16,0,0,0-.6.33,4.87,4.87,0,0,0-.86.63l-.19.18-.28.24a6.51,6.51,0,0,0-.54.51c-.17.18-.33.36-.48.55s-.16.19-.28.31,0,0-.07,0l-.08,0-.38-.07c-.65-.16-1.65-.4-2.73-.58-.56-.1-1.07-.2-1.74-.28l-2-.07c-.68-.05-1.38-.2-2.06-.3a75.92,75.92,0,0,1-8.85-1.95l-1.68-1a3.48,3.48,0,0,0-.43-.25l-.54-.2-1.1-.39a9.19,9.19,0,0,1-1.05-.42l-.74-.56c-.49-.38-1-.75-1.44-1.13s-.93-.76-1.36-1.15l-.43-.4-.58-.51c-.79-.69-.49-1.59-1.36-2.26l-.5-.53a2.13,2.13,0,0,1-.43-.54l-.67-1.12L213.05,61a13.2,13.2,0,0,0-.73-1.19c-.64-.8.09-1.59-.74-2.49l-.37-.66a4.82,4.82,0,0,1,0-.65l.06-.65a.59.59,0,0,0-.09-.35l-.16-.37c-.18-.49-.56-1-.31-1.44l.17-.68.08-.35a1.4,1.4,0,0,0-.07-.38c-.12-.53-.26-1.06-.36-1.58l.56-1.36.14-.34a1.26,1.26,0,0,0,0-.39l0-.8c0-.53-.05-1.06,0-1.6l.1-1.61,0-.41c0-.14.13-.21.19-.32l.49-.61,1-1.22a9.8,9.8,0,0,0,.56-1.46l.52-1.48,0-.1v0a.53.53,0,0,0-.06-.1l-.26-.42-.13-.2c0-.06,0-.08,0-.11l.09-.21.35-.8.34-.81.28-.7.54-1.32c.35-.85.73-1.73,1.1-2.56s.6-1.36.92-2a17.62,17.62,0,0,1,1-1.81,12.47,12.47,0,0,1,2.07-2.62c1.34-1.28,2.7-1.68,3.69-.95,1.19.89,1.54,3.11,1.12,5.54l.65-1c.39-.45.8-.93,1.2-1.35,1.14-1.18,2.35-1.94,3.45-1.87H232c2.31.53,5.1.33,7.46,1.74l.39,1,.36.05a3.73,3.73,0,0,1,2.86,1.17l.64,1.14a11.85,11.85,0,0,1,1.21,4.22,3.87,3.87,0,0,1,.66,1.41,5.63,5.63,0,0,1,2.63,3.22.79.79,0,0,1,.58,1.07,1,1,0,0,1-.33.37h0c.36.19.46.24.9.44.37,0,.6,0,.6,0a16.94,16.94,0,0,1,1.84-.24,5.89,5.89,0,0,1,1.66.59c2,1.84,2.05,1.88,2.5,2.8a1.46,1.46,0,0,1,0,.29,9.81,9.81,0,0,1,1.07.26,3.51,3.51,0,0,1,.51.31c.34.49.34.49.56.66a4.24,4.24,0,0,1,.26.37c0,.6,0,.6.09.76a1.19,1.19,0,0,1,0,.29l-.47.33-1.65-1.12.09.45-.56-.52.44.49-.63-.24.78.37a4.27,4.27,0,0,0-1.54.07,1.62,1.62,0,0,0-.77.22,2.58,2.58,0,0,1,.21.25l-2.33.07-.44-.24c0,.15-.16.26-.39.28l-.58,0-.07.09,0,0c-.11.13-.19.22-.29.32l-.05.07h0c-.2.21-.5.53-1.29,1.33-.34,0-.69,0-1,0l.37.1c.26.08.37.46.48.47,1.36.09,2.7.15,4.05.17s2.76.08,4.18.22a1.55,1.55,0,0,1,1.34.5c.3.37.17.7-.28.76a10.25,10.25,0,0,1-3.23,1.44,23.55,23.55,0,0,1-3.84.73c-2.7.32-5.46.43-8,.51-.57.08-1.14.21-1.69.33l-1.52.36.24.06c-.25,0-.62,0-.56.15v0h.19l.4.08h.47a17.82,17.82,0,0,1,3.89-.46c.75,0,1.45,0,2.23,0l2.39.11a15.85,15.85,0,0,1,2.67.37l2.77.61a1.37,1.37,0,0,1,1,.54c.14.26-.11.44-.53.4-1.25.14-2.46.16-3.77.24-.64,0-1.23,0-1.88,0l-1,0h-.89c-1.25,0-2.38-.08-3.51-.13L242.36,57a3.29,3.29,0,0,1-.36-.07c-.1,0-.29-.06-.31,0l-.11.06a1.53,1.53,0,0,1-.84.31h0l.49.08c-.17.11-.6,0-.8.14l.61.2a1.53,1.53,0,0,0-.47,1.3c0,.46.22.84.26,1.2a.3.3,0,0,1,0,.08c.35.12.69.21,1,.3l.22.06.06,0,.17.09.34.16c.46.21.92.39,1.39.59a13.61,13.61,0,0,1-1.67-.92c.65.31,1.35.56,2,.79a1.7,1.7,0,0,0,.24.09l.12,0,.06,0,.12.08,2,1.29c.68.46,1.37.91,2.14,1.47a23,23,0,0,1,2.47,2l.47.44c.16.16.34.36.5.55a9.07,9.07,0,0,1,1,1.36,7.78,7.78,0,0,1,.51.93,7.1,7.1,0,0,1,.42,1.09,11,11,0,0,1,.27,1.27,10.14,10.14,0,0,1,0,1.35,7.51,7.51,0,0,1-1.79,4.33,10.15,10.15,0,0,1-2.31,2,24.34,24.34,0,0,1-3.63,1.78l-1.16.45-.36.11a10.85,10.85,0,0,0-1.46.55,1.55,1.55,0,0,0-.62.51,1.74,1.74,0,0,1-.11.18c0,.07,0,.13,0,.19a.75.75,0,0,0,.1.36,4.86,4.86,0,0,0,1,1l.27.24.14.13.07.06,0,0s0,0-.05,0h0l.17.14a15.63,15.63,0,0,1,2.67,2.62,12,12,0,0,1,2,3.71,10.77,10.77,0,0,1,.48,2,18,18,0,0,1,.09,2.06,15.11,15.11,0,0,1-.29,2,13.33,13.33,0,0,1-.57,1.72,13.58,13.58,0,0,1-.7,1.38c-.24.38-.48.75-.71,1.08a28.11,28.11,0,0,1-2.11,2.76c-.58.72-1.1,1.31-1.47,1.83a6.2,6.2,0,0,0-1.3,2.82,4.5,4.5,0,0,0,0,1.36,5.5,5.5,0,0,0,.62,1.7c.79,1.5,2,3.54,3,5.58a55.49,55.49,0,0,1,4.12,12.94c.43,2.23.71,4.55.95,6.72l.18,1.56a12.34,12.34,0,0,0,.26,1.32c.19.9.43,1.79.65,2.67.51,1.91,1.05,3.85,1.67,5.77s1.29,3.89,2,5.84c1.4,3.88,3,7.81,4.42,11.7a98.74,98.74,0,0,1,6.27,23.36c.22,1.6,0,3-.29,3.31s-.71-.9-.89-2.5a97.91,97.91,0,0,0-3.91-16.79c-1.81-5.63-4-11.26-6-16.92-1-2.81-1.9-5.65-2.73-8.46-.4-1.39-.78-2.79-1.12-4.19L252,143.2l-.21-1c-.15-.65-.3-1.31-.42-2-.26-1.15-.34-2.8-.52-4.39s-.36-3.23-.66-4.84a53.32,53.32,0,0,0-2.55-9.41,51.89,51.89,0,0,1,2.16,7.84,68.23,68.23,0,0,1,1,8c.06.66.09,1.28.15,1.86s.17,1.06.26,1.62c.21,1.12.39,2.15.66,3.37.5,2.37,1,4.71,1.71,7.11,2.5,9.54,5.88,19.2,7.52,28.89.49,2.48.88,5,1.19,7.46a46.17,46.17,0,0,1,.23,7.33c-.09,12.38-.44,24.44-.7,36.58s-.52,24.33-.66,37c-.25,21.59-.67,40.49-1.64,62-1.43,30.2-4,57.7-9.74,87.51a43.24,43.24,0,0,1-2.06,8.09c-.35.48,0-2.4.65-6.38,2.47-15.54,4.13-31,5.38-46.52s2.1-31,2.74-46.59c1.26-31.18,1.81-62.73,2.85-95.25.2-7,.41-13.91.61-20.77a.66.66,0,0,1-.36.17c-.49,0-.93-.67-1.28-1.77q-.39,11.69-1.06,23.53c.5,21.93.65,43.9-1,67.27-1.15,16-2.9,30.58-4.53,45.42-.78,18.82-1.79,37.58-3.6,56.58a8.16,8.16,0,0,1-.28,1.82c-.1.27-.13-.14-.08-.9.85-13.07,1.37-26.47,1.76-40-.51,2.13-1,3.4-1.55,3.22s-.9-1.83-1.13-4.36l-.47,9.19c-.11,1.9-.37,3.39-.61,3.33s-.4-1.55-.32-3.35q.75-18.76,1.49-37.47c.14-15,.2-29.92.24-44.93a10.6,10.6,0,0,1-1.85,4.32h0c0,2.32-.05,4.64-.07,6.95q.88,31.82.26,64.3t-2.89,65.28a7.78,7.78,0,0,1-.19,1.58,5.87,5.87,0,0,1,0-1.42q1.22-19.8,1.94-39.51v.06c-.08.53-.19.62-.24,0a11.9,11.9,0,0,1,.07-2.06c.1-.6.21-.55.25,0,.86-24.47,1.07-48.77.6-72.75q-.44,33.42-1.66,66.8c0,2.43.1,4.85.16,7.32a7.65,7.65,0,0,1-.19,1.81c-.08.19-.17-.3-.17-1l0-2c-.17,4.21-.65,7.45-1.12,7.38-.48-.24-.83-3.86-.78-8.24q0-17.58.08-35.07l-.09-3.79-.32-3.81c-.38,18.15-.73,36.28-.87,54.3a8.19,8.19,0,0,1-.26,2.89c-.16,0-.31-1.22-.33-2.77-1.1-31.76-2.38-63.92-3.14-96.21-1.38-10.62-2.86-21.26-4.34-32.11,0,1.36,0,2.75,0,4.13.17,17.55,1.45,33.79,2.7,49.88s2.47,32.05,3.06,49a4.09,4.09,0,0,1-.13,1.67c-.1.09-.22-.49-.24-1.35-.72-16.59-2.12-31.74-3.31-48.21-1-13.64-1.91-26.61-3.15-39.29.84,25.91,3,50.77,4.4,76.43a15.14,15.14,0,0,1,0,3,1.37,1.37,0,0,1,.18.63c.41,3.21.74,6.71,1,10.29a6.68,6.68,0,0,1,0,1.9C236.33,379.21,236.21,378.79,236.12,378Zm2.5-329.21.2,0-.54.07-1.11-.27S237.87,48.71,238.62,48.82Zm4.87-6.88h0l.71.31Zm7.4,99.63c-.14-.8-.28-1.6-.37-2.36l-.2-2.7c-.13-1.89-.32-3.83-.64-5.73a49.38,49.38,0,0,0-3.11-11,46.32,46.32,0,0,0-2.48-5.1,13.92,13.92,0,0,1-1.74-3.74,4.63,4.63,0,0,1,0-1.35,6.68,6.68,0,0,1,.34-1.45,8.93,8.93,0,0,1,1.73-2.74,9.33,9.33,0,0,0-1.63,2.7,5.68,5.68,0,0,0-.27,2.67c0,1.12,1.68,3.53,2.95,6.15a47.45,47.45,0,0,1,3.09,8.12,52.17,52.17,0,0,1,1.62,8.6c.16,1.45.24,2.91.33,4.29,0,.67.07,1.38.14,1.9S250.79,141,250.89,141.57Zm-5.15-92.28a22.85,22.85,0,0,1-2.83-.73,4.9,4.9,0,0,1-1.26.7c-1.2.53-2.44,1-3.54,1.53.34.12.07.24,0,.34a3,3,0,0,0-.33.28c.61-.26,1.25-.5,1.88-.71s1.37-.42,2.05-.6,1.33-.34,2-.49A11.47,11.47,0,0,1,245.74,49.29Zm8.86-4,.22.12.1.63Zm-.21-1.08-.26,0C254.07,43.91,254.18,44,254.39,44.18ZM252,44a3.47,3.47,0,0,0,.46.22ZM240.1,28.73l1.18,3.19-1.05-3.13Z"/><path d="M174.31,98.2l-.41.3a.75.75,0,0,1,0-.87,6.08,6.08,0,0,0-1.83,5.6,10.51,10.51,0,0,0,2.93,5.24,1.82,1.82,0,0,0,1.9,2,2.37,2.37,0,0,0,2.45-1.78,2.66,2.66,0,0,1,.48-.66,17.14,17.14,0,0,0,4.42-5.13l-1.14,1.1a4.42,4.42,0,0,0,.74-1.7l-.7.2a3.59,3.59,0,0,0-.61-5.85,6,6,0,0,0-7.33.68Z"/><path d="M166.86,101.82c.91-1.25,1.87-2.43,2.85-3.59l.44-.21h-1.89l.11,0c1.51,1.2,1.95,3,2.3,4.75l.26.61a1.61,1.61,0,0,0,1,.55,1.69,1.69,0,0,0,1.94-1.15c.06-.29.13-.59.22-.88,1.3-2.15,1.67-5.45-1.44-6.89a6.72,6.72,0,0,0-2.56-.14,2.23,2.23,0,0,0-2.58,1.73,2,2,0,0,0,1.94,2.26l-.31.57-.41-.47c1.06.36,1.22,1.38,1.73,2.14l.2,1.13,3-.57-.33-.58c-.13,0-.32.12-.33.11a15.8,15.8,0,0,1-1.81-3.42l-.94-1.59a1.53,1.53,0,0,0-1.9,0l-.69.66.4-.29c-.79,1.56-1.31,3.24-2.13,4.83a.47.47,0,0,0,.21.69A.61.61,0,0,0,166.86,101.82Z"/><path d="M166.92,96.13c.24-.25.5-.48.48-.86l-.23-.17-.54.48C166.24,95.93,166.51,96.13,166.92,96.13Z"/><path d="M167.17,95.1l.23-.2-.29.13,0,0Z"/><path d="M208,217.91c1,1.55,2.14,3,3.22,4.5s2.16,3,3.33,4.44c2.35,2.87,4.62,5.83,7.15,8.58,1.24,1.39,2.46,2.81,3.74,4.18l3.91,4c.65.67,1.29,1.36,2,2l2,1.94,4.1,3.9c.38.33.76.54.86.46s-.14-.41-.5-.71a213.86,213.86,0,0,1-15.69-16.06c-2.51-2.74-4.77-5.68-7.11-8.55-1.17-1.42-2.21-3-3.31-4.43L210.09,220c-.55-.73-1.08-1.48-1.57-2.25-.28-.41-.6-.68-.74-.65S207.77,217.52,208,217.91Z"/><path d="M290.18,297.63c-.37-.09-.4,0-.07.24a4.13,4.13,0,0,0,1.18.55c.32.07.36-.05.08-.25A3.93,3.93,0,0,0,290.18,297.63Z"/><path d="M283.76,303.45c-1.07-.39-2.13-.77-3.15-1.11s-2-.71-2.92-1a4.76,4.76,0,0,1-1-.47c0,.21-.42.16-1.2-.13-3.86-1.37-7.67-3.05-11.56-4.73-2-.82-3.85-1.8-5.79-2.71s-3.89-1.83-5.79-2.88l-5.76-3.06c-1.92-1-3.79-2.18-5.69-3.26-3.83-2.15-7.5-4.58-11.25-6.89a1.64,1.64,0,0,1-.88-.06,18.29,18.29,0,0,1-5.37-3.2L222,272.72c-1.52-1.19-2.95-2.51-4.42-3.77s-2.94-2.52-4.38-3.81l-4.23-4c-1.41-1.32-2.82-2.64-4.14-4a45.94,45.94,0,0,1-4.25-3.41c-1.35-1-2.63-2.11-3.92-3.2l-3.89-3.31c-1.33-1.09-2.55-2.29-3.82-3.46l-3.77-3.59c.17.42.21.74.06.86-.45.19-1.85-.74-3-2.23l-1.86-2.18,2.5,3.27c.85,1.08,1.74,2.11,2.6,3.17a10.75,10.75,0,0,1,.67.86l3,3.35c1,1.11,2.14,2.16,3.23,3.25A204.59,204.59,0,0,0,222.64,275,254,254,0,0,0,255,293.26a4.25,4.25,0,0,1,1.19.7c.16.19.06.28-.36.11-14.32-5.8-27.28-10.83-42.33-20.75a233.73,233.73,0,0,1-25.78-19.62,225.56,225.56,0,0,1-23.54-23.81,336.09,336.09,0,0,1-19.66-29.06c-1.46-2.53-3-5-4.41-7.62s-2.79-5.23-4.2-7.87-2.62-5.42-3.94-8.19c-.32-.69-.66-1.38-1-2.08l-.9-2.13c-.6-1.44-1.21-2.87-1.81-4.32L127,165.68c-.39-1-.73-2-1.1-3-.72-2-1.43-4-2.15-6l-.52-1.49-.47-1.52-.92-3c-.6-2-1.22-4-1.79-6.06l-.38-1.53-.19-.77-.09-.29-.31-1.07-.6-2.12c-.39-1.42-.77-2.84-1.15-4.25a163.39,163.39,0,0,1-3-17.45,8.61,8.61,0,0,1,.7-6.07,6,6,0,0,1,4.22-3.18,6.43,6.43,0,0,1,5.84,2.31v-1l.36-1.66a6.1,6.1,0,0,1,2.43-3.7l1.5-1.12c2.85-1.47,5.43-3.79,8.54-4.85l1.15.31.35-.26a5.52,5.52,0,0,1,3.21-1.59l1.41.15A14.58,14.58,0,0,1,148.54,98a4.72,4.72,0,0,1,1.72.3,7.06,7.06,0,0,1,4.66-.21,1,1,0,0,1,1.38.18,1,1,0,0,1,.19.48h0c.38-.17.49-.23.92-.46.14-.33.24-.52.24-.52.31-.88.31-.88.59-1.64a4.72,4.72,0,0,1,1.26-1c2.58-.57,2.58-.56,3.66-.38l.31.16c.4-.55.43-.58.55-.73a3,3,0,0,1,.45-.24c.59,0,.59,0,.81-.06a2.74,2.74,0,0,1,.44,0c.63.36.63.36.82.38a2.33,2.33,0,0,1,.31.2l.26.59-1.58.69.51.2-.71.14L166,96l-.42.37.6-.42a3,3,0,0,0-.31,1.3,1.35,1.35,0,0,0,0,.77,1.71,1.71,0,0,1,.34,0c-.32,1-.32,1-.67,2a4.25,4.25,0,0,1-.43.21.43.43,0,0,1,.19.49l-.16.51a.76.76,0,0,1,.08.11h.05l.27.44.06.09h0c.17.31.46.75,1.22,1.89a5,5,0,0,1-.31.85,2.31,2.31,0,0,1,.29-.24c.2-.16.75,0,.81-.1a45.61,45.61,0,0,0,2.75-6.58.85.85,0,0,1,1.68-.11,13.5,13.5,0,0,1,1.59,7.25,15.72,15.72,0,0,1-.66,3.74c-.19.62-.41,1.23-.66,1.84a18,18,0,0,1-.76,1.82c-.26,1.23-.48,2.48-.69,3.74l.27-.19-.4,1s0,.07,0,.11l1-.8.28-.53a17.45,17.45,0,0,1,1.19-4.2c.5-1.36,1.28-2.69,1.82-4.05a34,34,0,0,1,2.4-4,.75.75,0,0,1,.86-.53.63.63,0,0,1,.6.7,18.8,18.8,0,0,1-.49,6.89,14.71,14.71,0,0,1-3.16,6.53,4.25,4.25,0,0,1-.83,2.41v0l.79-.6c-.17.65-.82,1-1.07,1.66l1.1-.33c-.48,3.19,0,6.52-1.2,9.67a2,2,0,0,1-.06.35,17,17,0,0,1,1.26,1.74l.25.47a.81.81,0,0,1,.06.13l.09.36.15.72c.18,1,.46,2,.64,3l-.18-2.17-.06-2.11c.4,1.48.79,2.95,1.19,4.45a47.72,47.72,0,0,1,.92,4.73c.83,4.41,1.35,9.22,1.81,13.59.1,1.1.16,2.17.2,3.21s.14,2,.16,3a26.54,26.54,0,0,1-.27,5,199.54,199.54,0,0,0,11,24.89,184.16,184.16,0,0,0,14.65,23.07,2.89,2.89,0,0,1,.81,1.85c-.15.23-.71-.12-1.29-.86-2.16-2.49-4-5.2-6-7.85-1-1.31-1.91-2.71-2.83-4.09L193.7,199c-.88-1.41-1.71-2.86-2.56-4.29s-1.74-2.84-2.51-4.33l-2.34-4.43-1.17-2.21-1.06-2.27a160.27,160.27,0,0,0,15.54,30.35c.85,1.2,1.67,2.44,2.61,3.61a43.08,43.08,0,0,1,2.47,3.64l1.63,2.24c.57.73,1.15,1.45,1.72,2.17l3.42,4.33c1.17,1.41,2.39,2.78,3.58,4.16s2.38,2.79,3.66,4.1l3.81,4c1.26,1.36,2.65,2.58,4,3.88s2.68,2.6,4.12,3.82l4.34,3.71c1.23,1.08,2.51,2.06,3.77,3l3.73,2.92c2.49,1.89,5,3.65,7.51,5.46s5.12,3.42,7.71,5.16,5.37,3.31,8.18,5c8,4.64,15.81,8.65,23.72,12.49s16,7.27,24.46,10.78c2.29.85,4.28,2,4.41,2.52s-1.66.28-4-.56c-9.05-3.24-17.92-6.83-26.59-10.84a278.16,278.16,0,0,1-25.32-13.51,216.21,216.21,0,0,1-23.73-16.57,182.2,182.2,0,0,1-21.48-20.08c-1.49-1.54-2.81-3.2-4.2-4.79s-2.77-3.16-4-4.82a.51.51,0,0,1-.14.25c-.27.24-.76.15-1.4-.19.74.93,1.45,1.9,2.21,2.82l2.31,2.76c1.53,1.85,3,3.75,4.67,5.53,9.76,9.29,20.19,17.8,31.49,26.76,7.81,6.11,15,11.6,22.7,16.82a298.38,298.38,0,0,0,31.94,15,3,3,0,0,1,1,.53c.12.15-.15.14-.6,0-1.94-.66-3.86-1.39-5.8-2.1l-2.92-1.09c-1-.37-1.93-.78-2.89-1.18l-5.82-2.4-5.76-2.64c1,.91,1.57,1.64,1.27,2s-1.41.26-3-.2l5.15,2.68c1.06.57,1.84,1.12,1.71,1.31s-1.07,0-2.08-.56c-3.52-1.81-7.08-3.56-10.51-5.53-1.72-1-3.47-1.9-5.17-2.91l-5.07-3.05a250.37,250.37,0,0,1-23.9-15.39,6.39,6.39,0,0,1,1.46,2.67h0l3.58,2.6a366.13,366.13,0,0,0,73.9,35.72c.52.18.92.4.89.49s-.44,0-.9-.14c-3.94-1.45-7.91-2.8-11.78-4.38-1.95-.77-3.92-1.47-5.84-2.3l-5.77-2.42,0,0c.29.19.3.32-.07.24a4.55,4.55,0,0,1-1.21-.5c-.32-.22-.24-.31.07-.25a377.73,377.73,0,0,1-41.16-21A330.32,330.32,0,0,0,289,298.2c1.47.52,2.9,1.09,4.4,1.57a3,3,0,0,1,1,.57c.08.12-.25.1-.66,0l-1.24-.42c2.46,1.08,4.21,2.28,4,2.75s-2.65-.07-5.24-1.17c-6.9-3-13.74-6.1-20.35-9.65l-2.19-1.05-2.3-.91a287.69,287.69,0,0,0,31.27,15.64c.92.37,1.65.83,1.61,1s-.86,0-1.79-.35a267.07,267.07,0,0,1-28.59-12.05,250.42,250.42,0,0,1-27.34-15.48c-3.15-1.52-6.22-3.21-9.39-4.82s-6.22-3.47-9.37-5.27c.68.59,1.42,1.13,2.14,1.69,2.32,1.74,4.58,3.48,6.91,5s4.65,3,6.95,4.5,4.69,2.72,7,4,4.71,2.49,7,3.72c9.44,4.77,19,9,29.08,13.4.51.2.9.46.92.58s-.37.05-.88-.18c-9.93-4.23-19.09-8.05-28.72-13l-5.89-3.1c-1.93-1.06-3.81-2.15-5.69-3.2l-2.82-1.58c-.93-.53-1.84-1.1-2.75-1.63l-5.49-3.23,5.33,3.57c.89.57,1.76,1.17,2.66,1.73l2.72,1.63c1.81,1.08,3.61,2.16,5.42,3.21l5.51,3,2.75,1.48,2.8,1.4,5.59,2.79L269,297l2.83,1.34,2.88,1.26a7.2,7.2,0,0,1,1.71.93.72.72,0,0,1,.43.05c2,.66,4.15,1.48,6.37,2.24a3.13,3.13,0,0,1,1.09.59C284.53,303.61,284.24,303.59,283.76,303.45ZM160.07,111.87l.19-.14-.32.49-1.33.73ZM155,103.53h0l.78-.38ZM187.44,192c-1.73-3.67-3.56-7.27-4.93-11.05-.7-1.89-1.47-3.74-2-5.66s-1.14-3.83-1.67-5.75c.75,1.78,1.49,3.56,2.24,5.35.92,2.87,2,5.69,3,8.58S186.32,189.15,187.44,192Zm-22.15-85.77a13,13,0,0,1-2.55,1.88,3.62,3.62,0,0,1,.16,1.5c-.16,1.39-.21,2.74-.44,4.08.47-.2.43.13.49.28l.14.5c.3-1.44.58-2.87,1-4.31A28.82,28.82,0,0,1,165.29,106.25Zm-1.38-9.77.18-.11.72.3ZM162.68,96l-.11.2C162.3,96.11,162.4,96.05,162.68,96Zm-1.05,1.81a1.69,1.69,0,0,0,.41-.24Zm-21.73.56,3.65.94-3.5-1Z"/><path d="M175.39,244.93l-.49-.27c.15-.29.49-.39.93-.38-4.82-1.88-9.22,1.33-11.4,5a2,2,0,0,0-1.61,2.5,2.45,2.45,0,0,0,2.74,1.7,3.06,3.06,0,0,1,.89.21,20.8,20.8,0,0,0,7.35,2.38l-1.68-.69a6.17,6.17,0,0,0,2.22.09l-.48-.57c2.78,1,5.63-.26,6.4-2.88a5.57,5.57,0,0,0-3.62-6.62Z"/><path d="M168.81,239.33c1.62.37,3.2.81,4.79,1.29l.4.33-.72-1.79v.13c-.68,1.86-2.46,3-4.15,4l-.56.45a1.46,1.46,0,0,0-.25,1.11,1.78,1.78,0,0,0,1.92,1.44l1-.11c2.76.36,6.55-.56,6.84-4a6.14,6.14,0,0,0-.87-2.45,2.45,2.45,0,0,0-2.83-1.78,2.12,2.12,0,0,0-1.62,2.69l-.7-.07.33-.57c0,1.14-1,1.68-1.61,2.47l-1.12.63,1.67,2.56.5-.53c-.09-.11-.24-.26-.24-.27a18.92,18.92,0,0,1,3-3l1.32-1.48a1.45,1.45,0,0,0-.72-1.8l-1-.4.46.26c-1.93-.15-3.86,0-5.79-.15a.55.55,0,0,0-.64.48A.59.59,0,0,0,168.81,239.33Z"/><path d="M174.72,237.2a1.4,1.4,0,0,0,1.08.12,2.55,2.55,0,0,1,.09-.27l-.71-.33C174.67,236.48,174.56,236.81,174.72,237.2Z"/><path d="M175.89,237.05l.29.13-.24-.22,0,0Z"/><path d="M82,276.39c-8.68,3.42-17.24,7.23-25.67,11.31-.28.14-.47.33-.42.44s.31.08.56-.06c8.45-4.05,17-7.82,25.65-11.22.29-.12.48-.31.46-.44S82.28,276.28,82,276.39Z"/><path d="M14.71,300.68c.15-.19.08-.27-.15-.19a1.54,1.54,0,0,0-.65.43c-.12.16-.05.25.15.19A1.61,1.61,0,0,0,14.71,300.68Z"/><path d="M12.14,293.28a33.31,33.31,0,0,0,2.74-2.66,1.58,1.58,0,0,1,.52-.36c-.16-.09,0-.35.33-.69C22.78,282.9,31,276.51,39,270.18a1.09,1.09,0,0,1,.14-.61,6.71,6.71,0,0,1,2.68-2.52l1-.52c3.89-2.23,7.76-4.46,11.7-6.55A16.62,16.62,0,0,1,57,258c3-2.57,6-5.15,9.16-7.63a.59.59,0,0,1-.58-.24c-.15-.44.47-1.22,1.4-1.77l1.38-.87-4.16,2.13a4,4,0,0,1-.56.26q-2.2,1.3-4.39,2.77c-6.39,4.25-12.35,8.75-18.06,13.36S30,275.27,24.63,280a1.55,1.55,0,0,1-.68.43c-.16,0-.2-.11,0-.3,6.31-6.68,11.31-13.35,19.06-20.3,9.22-8.25,18.59-16.23,28.73-24,11.18-7,21.19-14.29,32.64-21.81,4.24-2.77,8.47-5.43,12.72-7.94,6.63-4.22,13.35-7.85,20.33-11.41,3.45-2.25,7.68-1.44,9.4,1.77a6.85,6.85,0,0,1-.06,6.29l.9-.36,1.55-.2a5.54,5.54,0,0,1,4.06,1.07l1.51,1c2.3,2.22,5.25,3.73,7.35,6.27l.15,1.2.36.23a5.61,5.61,0,0,1,2.64,2.43l.39,1.38a14.2,14.2,0,0,1,.27,4.81,5.29,5.29,0,0,1,.35,1.74,7,7,0,0,1,1.93,4.29,1,1,0,0,1,.34,1.37,1,1,0,0,1-.41.36h0a9.76,9.76,0,0,0,.79.68c.38,0,.6,0,.6,0,1,0,1,0,1.85-.06a4.78,4.78,0,0,1,1.47.8c1.58,2.21,1.58,2.22,1.83,3.3,0,.12,0,.23,0,.34l1,.25a2.56,2.56,0,0,1,.42.33c.22.56.22.56.39.74a2.51,2.51,0,0,1,.17.42c-.12.72-.12.72-.06.91a1.78,1.78,0,0,1-.08.36l-.51.47-1.33-1.22v.55l-.42-.61.32.58L174,236l.66.4a3.78,3.78,0,0,0-1.46.2,1.66,1.66,0,0,0-.77.32,2.39,2.39,0,0,1,.15.32l-2.27.12a3.05,3.05,0,0,1-.38-.32.46.46,0,0,1-.43.36l-.58.06-.08.12v0l-.35.42-.07.1h0L166.83,240a5.54,5.54,0,0,1-1,0l.36.19c.23.14.27.71.38.73a41,41,0,0,0,7.91.13.91.91,0,0,1,1.15.44.79.79,0,0,1-.39,1.1c-3.9,4.23-10,5.42-15.88,4.76-1.41.14-2.83.32-4.24.51l.29.2-1.19-.07-.11,0,1.13.67.64.1c3.23-.57,6.58.05,9.9.15a42.58,42.58,0,0,1,5.27.87.82.82,0,0,1,.89.63.66.66,0,0,1-.57.8c-4.82,2-10.79,2.92-16,1a4.85,4.85,0,0,1-2.87-.06h0l.86.58c-.76,0-1.37-.48-2.1-.55l.63,1c-3.64.4-7.19,1.84-10.9,1.45a1.8,1.8,0,0,1-.4,0,19.63,19.63,0,0,1-1.66,1.63l-.47.35-.12.09-.21.12-.44.22c-.59.29-1.21.56-1.87.81l2.8-.58a26.56,26.56,0,0,1-5.64,2.63c-5.66,1.79-12.54,2.62-16.56,1.46-10.68,4.42-21.3,9.09-31.63,14.28a1.45,1.45,0,0,1-1.32.15c-.17-.2.08-.58.61-.85,7.16-4.2,14.69-8,22.32-11.59-6.75,2.24-13.47,4.69-20.12,7.61l-2.49,1.26a17.78,17.78,0,0,1-2.56,1,260.36,260.36,0,0,0-24.54,12.55c-6.95,4.14-12.93,7.93-19.65,12.36C27.53,304.37,19.06,310.2,9.48,316c-1.24.82-2.59,1.3-3,1.05s.28-1.15,1.52-2c9.55-6.75,19-13.39,28.91-19.73A298.74,298.74,0,0,1,68,277.6c2.38-1.13,4.72-2.27,7.06-3.35a.68.68,0,0,1-.18-.2A1.09,1.09,0,0,1,75,273c-2.68,1.2-5.38,2.43-8.13,3.61-7,4.36-14,8.76-21.87,12.74-5.4,2.75-10.5,4.94-15.6,7.38-5.93,3.92-11.75,8-17.67,12a1.17,1.17,0,0,1-.64.29c-.13,0,0-.17.17-.36,3.84-3.12,7.87-6.2,12-9.22-.86.17-1.48.1-1.67-.29s.12-1.07.77-1.82l-3,1.85c-.61.38-1.18.55-1.28.36s.26-.66.84-1q6-3.84,12.08-7.53c4.71-3.21,9.45-6.33,14.26-9.39a3.52,3.52,0,0,1-2-.19h0L41,282.75C27.92,292.28,14.38,301.64.6,311c-.27.19-.53.28-.59.21s.11-.27.35-.43l12.4-8.5h0c-.2.07-.29,0-.15-.18a1.71,1.71,0,0,1,.65-.44c.23-.08.27,0,.15.18C21,296.54,28.61,291.24,36,285.88l-21.43,13.7-2.11,1.86a1.13,1.13,0,0,1-.64.28c-.1,0,0-.21.2-.37l.59-.52c-1.35.87-2.6,1.24-2.86.82s.69-1.58,2.07-2.52q5.45-3.93,11-7.65l1.16-.87,1.07-1c-5.92,3.63-11.8,7.32-17.57,11.1-.48.34-1,.52-1.08.38s.19-.53.67-.88c9.5-7.65,19.4-15.05,29.63-22.1l9-9.06-1.36.84A142.73,142.73,0,0,0,29,281.56c-4.78,4-9.43,8.09-14.64,12-.26.21-.52.3-.61.25s.05-.26.32-.46c5-3.91,9.37-7.9,14.31-11.95,4.08-3.37,8-6.52,11.74-9.81-8.25,5.71-15.58,12-23.41,18.09a2.84,2.84,0,0,1-1,.57.35.35,0,0,1-.12.25c-.87.92-1.85,1.86-2.89,2.79a1.21,1.21,0,0,1-.65.34C11.85,293.67,11.93,293.5,12.14,293.28Zm144.07-56.93.2.14-.6-.16-1.14-1Zm6.69-7.6h0l.65.61Zm-63.54,36a91.73,91.73,0,0,1,14.43-4.87l-3.33,1.53Zm64.28-25.34a13.66,13.66,0,0,1-2.77-1.76,4.48,4.48,0,0,1-1.49.68c-1.45.37-2.9.64-4.35.87.34.39,0,.44-.15.55l-.47.28c1.57-.17,3.16-.3,4.78-.39A30.24,30.24,0,0,1,163.64,239.38Zm9.56-4.88.18.13,0,.79Zm0-1.33-.24,0C173,232.84,173.05,232.92,173.21,233.17Zm-2.23-.31a2,2,0,0,0,.4.29Zm-8.61-20.22.48,3.79-.36-3.68Z"/></g></g></svg>