<svg xmlns="http://www.w3.org/2000/svg" viewBox="0 0 216.41 220.11"><g id="Layer_2" data-name="Layer 2"><g id="Layer_1-2" data-name="Layer 1"><path d="M109,53.74l-.34-.34c.12-.25.37-.29.69-.22a4.29,4.29,0,0,0-5-.41,4.9,4.9,0,0,0-1,.72,8.08,8.08,0,0,0-.91,1,9.56,9.56,0,0,0-1.33,2.43c-.88.11-1.29,1.25-.93,2.4a2.32,2.32,0,0,0,2.13,1.84,2.18,2.18,0,0,1,.64.29,16,16,0,0,0,2.54,1.81c.42.25.83.43,1.24.65s.83.41,1.24.58l-1.11-.89a2.79,2.79,0,0,0,1.42.37l-.32-.62a2.35,2.35,0,0,0,2.48.38A3.2,3.2,0,0,0,112,61.41c.59-2.47-.18-5.64-2.12-7Z"/><path d="M104.13,47.42a24.62,24.62,0,0,1,3.71,1.84l.29.39-.45-1.85v.12a7.16,7.16,0,0,1-3.35,3.43l-.43.38a1.64,1.64,0,0,0-.17,1.07,1.81,1.81,0,0,0,1.45,1.64H106c2,.58,4.66.36,5.17-3a7.75,7.75,0,0,0-.42-2.53,2.16,2.16,0,0,0-2-2.15,1.87,1.87,0,0,0-1.45,2.37c-.18-.06-.37-.13-.54-.17.09-.19.19-.34.28-.51,0,1.09-.83,1.56-1.32,2.26l-.87.51L106,53.92l.38-.47c-.07-.12-.18-.28-.18-.29.36-.49.71-1,1.08-1.45a7.55,7.55,0,0,1,1.25-1.15l1.1-1.25a1.75,1.75,0,0,0-.4-1.86l-.72-.53.34.32c-.75-.21-1.52-.36-2.29-.52s-1.54-.19-2.32-.38a.43.43,0,0,0-.54.41A.63.63,0,0,0,104.13,47.42Z"/><path d="M109,46.09c.27.19.53.39.84.28.06-.14.08-.22.1-.25l-.53-.43C109,45.39,108.88,45.69,109,46.09Z"/><path d="M109.91,46.12l.22.17L110,46l0,0Z"/><path d="M94.47,175.73a77.88,77.88,0,0,0,35.07,6.48,66.31,66.31,0,0,0,17.28-3.29,68,68,0,0,0,16-7.89c.69-.43,1.18-.9,1.13-1s-.6.19-1.23.58a66.89,66.89,0,0,1-15.85,7.85,65.46,65.46,0,0,1-17.11,3.29,73.92,73.92,0,0,1-17.66-1.12,82.89,82.89,0,0,1-17.14-5.22,3.23,3.23,0,0,0-1.54-.4C93.3,175.09,93.78,175.42,94.47,175.73Z"/><path d="M190.74,68.25c.41.54.49.46.19-.18a11.78,11.78,0,0,0-1.25-2c-.36-.44-.45-.35-.18.18A13.92,13.92,0,0,0,190.74,68.25Z"/><path d="M200.82,69.81c2.18,3.71,4,7.38,5.63,10.69a13.71,13.71,0,0,1,.71,1.91c.06-.29.53.42,1.1,1.88a91.74,91.74,0,0,1,5.92,23.08,90.08,90.08,0,0,1-.49,24.79c-.27,2.08-.77,4.12-1.16,6.19l-.77,3.07c-.25,1-.51,2-.85,3.05-.67,2-1.21,4.1-2,6.07s-1.51,4-2.46,5.93a96.6,96.6,0,0,1-13.71,21.76,4.23,4.23,0,0,1-.62,1.42,37.24,37.24,0,0,1-3.16,4.1c-.7.81-1.55,1.59-2.41,2.43s-1.76,1.7-2.75,2.48l-3,2.32A95.81,95.81,0,0,1,161,202.63a90.6,90.6,0,0,1-22,6.44c-.76.2-1.54.43-2.37.6l-2.56.47-2.72.45c-.94.11-1.9.19-2.88.27a106.06,106.06,0,0,1-39.76-2.72c.77.4,1.21.73,1.15.92-.38.36-3.56-.14-7.06-1.39-1.75-.65-3.53-1.23-5.25-1.94a122.71,122.71,0,0,0,15.19,5.36c.75.2,1.44.41,2.06.61a109.66,109.66,0,0,0,17.83,2.72,99.64,99.64,0,0,0,39.23-5.11,95.28,95.28,0,0,0,32.93-19.66,104.54,104.54,0,0,0,12.54-13.86A101.79,101.79,0,0,0,206.78,160,98.65,98.65,0,0,0,213,142.92a96.15,96.15,0,0,0,2.89-17.65,17.5,17.5,0,0,1,.27-2.68c.12-.45.25-.36.23.52a100.66,100.66,0,0,1-2.74,22,93.69,93.69,0,0,1-7.58,21,96.54,96.54,0,0,1-13,19.58A95.4,95.4,0,0,1,173.79,203c-1.11.81-2.31,1.48-3.47,2.21s-2.34,1.47-3.57,2.11c-2.44,1.29-4.87,2.64-7.44,3.73a100.61,100.61,0,0,1-15.8,5.61A110,110,0,0,1,110.37,220,121.55,121.55,0,0,1,93.8,218l-4.09-.87-2-.44-2-.54-4.05-1.09-4-1.28c-2.69-.82-5.27-1.9-7.91-2.89-1.31-.53-2.59-1.11-3.88-1.67s-2.59-1.12-3.85-1.77l-3.8-1.9c-1.27-.64-2.49-1.37-3.73-2.06-2.49-1.37-4.95-2.88-7.38-4.47a121.9,121.9,0,0,1-26.68-25.17,102.15,102.15,0,0,1-10.31-16.28A93.48,93.48,0,0,1,3,138.79,102.91,102.91,0,0,1,1,99.48,122.22,122.22,0,0,1,12.23,62.55,123.14,123.14,0,0,1,26.07,40.08,128.12,128.12,0,0,1,44.14,20.9c.81-.75,1.69-1.41,2.55-2.11l1.29-1,.29-.25,1-.84c.64-.55,1.27-1.11,1.92-1.65,1.34-1,2.68-2,4-3l2.05-1.49c.69-.49,1.41-.93,2.12-1.39q2.14-1.37,4.32-2.7c1.46-.88,3-1.65,4.5-2.46s3-1.64,4.64-2.32A11.58,11.58,0,0,1,79.75.07a6.27,6.27,0,0,1,4.8,3,6.2,6.2,0,0,1-.72,6.39l1.11-.35,1.88-.19a6.59,6.59,0,0,1,4.66,1.2l1.63,1.17c2.38,2.41,5.44,4.13,7.3,6.9l0,1.2.35.27a5.53,5.53,0,0,1,2.41,2.77l.19,1.41a14.66,14.66,0,0,1-.41,4.73,5,5,0,0,1,.13,1.75,7.19,7.19,0,0,1,1.36,4.48,1,1,0,0,1,.17,1.38.84.84,0,0,1-.41.29h0a10,10,0,0,0,.65.79c.34.07.54.13.54.13.88.1.88.1,1.64.21a4.51,4.51,0,0,1,1.19,1c1.09,2.39,1.07,2.4,1.15,3.49a2.72,2.72,0,0,1-.07.33c.57.28.61.3.76.39a2.6,2.6,0,0,1,.3.37c.11.58.11.58.23.78a3.92,3.92,0,0,1,.09.44c-.18.69-.18.69-.16.88a2.86,2.86,0,0,1-.1.34L110,46,109,44.65l-.06.54-.28-.66.2.62-.42-.33.5.49c-.86-.1-.87-.1-1.19,0a1.14,1.14,0,0,0-.66.19,2.69,2.69,0,0,1,.1.33c-.93-.1-.93-.13-1.84-.18q-.16-.18-.3-.36a.36.36,0,0,1-.36.32h-.47l-.08.11v.05l-.3.38-.06.09h0l-1.28,1.62a5.4,5.4,0,0,1-.82-.12l.3.22c.19.17.22.73.31.77a15.29,15.29,0,0,0,3.14.69c.51.06,1,.1,1.53.14l1.52.24c.33-.11.71.17.84.61a.81.81,0,0,1-.36,1,9.55,9.55,0,0,1-1.24,1.16,10.8,10.8,0,0,1-1.3,1,9.25,9.25,0,0,1-2.88,1.13,15.44,15.44,0,0,1-6.54.08,21.11,21.11,0,0,0-3.26.44l.25.19-.94,0H93L94,56a4.71,4.71,0,0,0,.52.09A10.78,10.78,0,0,1,98.26,56c.64.08,1.26.15,1.89.27s1.26.25,1.87.34A15.88,15.88,0,0,1,105.84,58c.29,0,.57.31.64.72s-.1.72-.37.72a13.74,13.74,0,0,1-11.43.19,2.9,2.9,0,0,1-2.2-.06h0l.78.58c-.58,0-1.16-.49-1.72-.51.22.29.46.63.69.92-1.32.3-2.59.82-3.9,1.26a10,10,0,0,1-4.13.89l-.3.06a17.7,17.7,0,0,1-.73,1.82c-.07.14-.15.28-.23.41a.59.59,0,0,1-.08.11l-.45.36-.9.71c-1.2,1-2.39,2.06-3.7,3.07l2.76-1.91a14.3,14.3,0,0,1,1.38-.91l1.35-.8a3,3,0,0,1-.26.23l-.34.28-.69.57c-.47.36-.89.79-1.33,1.19-.87.82-1.8,1.57-2.67,2.41S76.24,72,75.32,72.78s-1.74,1.79-2.67,2.67A110.49,110.49,0,0,0,59.28,91.77c-3.91,5.55-6.7,10.88-9,14.28A55.9,55.9,0,0,0,49,126a42.32,42.32,0,0,0,2.21,9.19,50,50,0,0,0,4.25,8.88,67.46,67.46,0,0,0,13.81,16.11,78,78,0,0,0,8.94,6.66,88.45,88.45,0,0,0,9.81,5.54,7,7,0,0,1,2.73,1.78c0,.32-1,.11-2.42-.53a89.4,89.4,0,0,1-14.33-8,78.77,78.77,0,0,1-12.33-10.47c-7.33-7.74-12.49-16.76-14.41-26.05a52,52,0,0,0,10,23.08,78.35,78.35,0,0,0,20.84,19.07l3.25,1.88c1.08.63,2.22,1.15,3.33,1.74S87,176,88.07,176.57s2.19,1.15,3.32,1.64c23,9.73,48.89,9.79,69.7-4a73.73,73.73,0,0,0,21.26-21.69,72.5,72.5,0,0,0,6.52-13.4,69.48,69.48,0,0,0,2.25-7.33c.28-1.26.63-2.51.83-3.8s.49-2.58.64-3.89c2-14.67-.75-29.11-6.84-42.23a84.41,84.41,0,0,0-5.16-9.5c-1-1.51-2-3-2.94-4.32-.49-.66-1-1.33-1.26-1.6l-1.76-1.93a69.12,69.12,0,0,0-17-12.92c-3.47-1.84-6.77-3.54-7-4.14s2.59.06,6.25,1.83a69.81,69.81,0,0,1,19.07,13.38c.68.67,1.32,1.4,2,2.09a9,9,0,0,1,.73.81c.26.32.54.67.82,1,1.14,1.48,2.27,3.11,3.34,4.78a86.23,86.23,0,0,1,5.73,10.53,80.65,80.65,0,0,1,6.65,22.83,72.05,72.05,0,0,1-.72,23.57l-.27,1.46-.36,1.46c-.24,1-.42,1.94-.73,2.9l-.84,2.88-1,2.79c-.6,1.89-1.5,3.67-2.25,5.5-.4.91-.89,1.78-1.33,2.67s-.87,1.79-1.41,2.63a72.65,72.65,0,0,1-15.1,18.57,71.46,71.46,0,0,1-20.41,12.76c-.93.39-1.89.7-2.83,1l-1.42.52c-.48.17-1,.28-1.44.43l-2.9.84-3,.65c-.5.11-1,.23-1.49.33l-1.51.23c-1,.14-2,.33-3,.45-2,.17-4.06.44-6.13.44a80,80,0,0,1-21-2.06.44.44,0,0,1,.12.31c-.07.36-.79.53-2,.54a89.59,89.59,0,0,0,12,2.21c2,.16,4.05.43,6.08.44,1,0,2,.12,3.05.09l3-.05a73.74,73.74,0,0,0,31.76-10.42,81,81,0,0,0,25.16-24l1.66-2.59c.27-.43.56-.85.81-1.29l.74-1.33,1.48-2.64c.43-.9.86-1.8,1.3-2.69l.65-1.34c.21-.45.38-.92.57-1.37.37-.92.75-1.83,1.12-2.74s.66-1.86,1-2.79l.49-1.4.41-1.41A73.17,73.17,0,0,0,198,121a74.56,74.56,0,0,0,.78-11.69,82.7,82.7,0,0,0-7.53-28.95,88.79,88.79,0,0,0-7.45-13.14c-.71-1-1.44-2-2.17-3-.35-.45-.78-1-1-1.21l-1.26-1.33A70.78,70.78,0,0,0,174,56.54a7.93,7.93,0,0,1-1.39-1.31c-.17-.25.22,0,.86.44a72.21,72.21,0,0,1,7.65,6.95l.33.37.39.45.79,1c.54.68,1.07,1.37,1.59,2.08,1,1.43,2,2.92,3,4.44a87.89,87.89,0,0,1,9.29,19.72c-.37-2.3-.42-3.76.06-3.73s1.51,1.61,2.56,4.23a90.1,90.1,0,0,0-3.31-9.7c-.8-2-1.33-3.55-1.11-3.59s1.13,1.4,1.9,3.28a83.6,83.6,0,0,1,6,41.11,81.69,81.69,0,0,1-6.05,24.26,82.85,82.85,0,0,1-5.73,11.17,83.94,83.94,0,0,1-7.48,10.15,22.44,22.44,0,0,1,4.13-3h0c1.68-2.06,3.09-4.3,4.56-6.48a85.79,85.79,0,0,0,11.3-34.2,84.89,84.89,0,0,0-4-35.89A94.93,94.93,0,0,0,192,71.57a89.37,89.37,0,0,0-4.89-7.74c-.88-1.24-1.8-2.47-2.72-3.57l-.31-.37-.39-.41-.78-.83c-.53-.54-1-1.12-1.58-1.64a80.23,80.23,0,0,0-31-19,4.91,4.91,0,0,1-1.65-.72,3.88,3.88,0,0,1,1.58.34,84.11,84.11,0,0,1,20,9.82A73.25,73.25,0,0,1,179,54.25c.71.59,1.35,1.26,2,1.9l1,1,.95,1,.94,1,.48.5.39.47c.56.67,1.13,1.39,1.67,2.12l0-.05c-.3-.51-.27-.67.17-.19a12.36,12.36,0,0,1,1.36,1.88c.32.61.19.62-.17.19a93.9,93.9,0,0,1,15.49,38,84.43,84.43,0,0,1-3.43,40.52,85.92,85.92,0,0,0,4.43-18.49,85,85,0,0,0,.13-19,92.91,92.91,0,0,0-11.94-36c-1.52-2.33-3.13-4.59-4.87-6.79a11,11,0,0,1-1.12-1.72c-.07-.22.36.15.85.76s1,1.22,1.44,1.83c-1.37-2-2.57-3.75-3.43-4.92s-1.37-2.07-1.16-2.22,1.23.55,2.54,1.7a32.23,32.23,0,0,1,4.2,5.12,93.56,93.56,0,0,1,15.42,37.81c.28,1.46.48,2.93.71,4.4s.49,3,.64,4.45a91,91,0,0,0-7.19-31.17A96.68,96.68,0,0,0,193,64.07a72.45,72.45,0,0,0-4.65-6.58,79.48,79.48,0,0,0-5.56-5.87c-1.37-1.23-2.47-2.37-2.37-2.54s1.32.7,2.72,1.93l2.63,2.43L188.31,56a63.88,63.88,0,0,1,4.53,5.7A97.09,97.09,0,0,1,200.29,74a95.14,95.14,0,0,1,9.14,27.42,86.7,86.7,0,0,1-.07,29.28A84.91,84.91,0,0,1,205.69,145c-.72,2.37-1.77,4.62-2.69,6.93-.5,1.13-1.07,2.23-1.61,3.35s-1.08,2.25-1.72,3.31a92.26,92.26,0,0,1-24.4,31.65l2.14-1.52,2.06-1.65a87.51,87.51,0,0,0,31.09-53.28,92.23,92.23,0,0,0,.28-29.84,102.14,102.14,0,0,0-9.12-28.81,6.72,6.72,0,0,1-.73-1.9c0-.14.44.45.89,1.4a102.44,102.44,0,0,1,9.27,28,89.39,89.39,0,0,1,.18,29.84,90.89,90.89,0,0,1-2.9,12.35c-.32,1-.63,2-.94,3s-.74,2-1.1,2.94-.74,2-1.14,2.92L204,156.52a98.32,98.32,0,0,1-13,20.84,90.29,90.29,0,0,0,13.54-20.54,93.08,93.08,0,0,0,7.44-23,95.31,95.31,0,0,0,1.38-11.9c.15-2,.1-4,.13-6s-.11-4-.3-6a96.25,96.25,0,0,0-4.81-23.32,35,35,0,0,1-1.09-3.51,2.28,2.28,0,0,1-.4-.69c-1.64-3.63-3.55-7.5-5.71-11.32a12.38,12.38,0,0,1-1-2.11C200,68.61,200.32,69,200.82,69.81ZM93.41,43.65l.19.15-.54-.16L92,42.58S92.69,43.1,93.41,43.65Zm6-7.31h0L100,37Zm-47.9,108.5a46.67,46.67,0,0,1-5.67-17.08A50.29,50.29,0,0,1,47,109.68a56.14,56.14,0,0,0-.72,8.88c-.12,1.14-.1,2.26-.15,3.39s0,2.26.1,3.36a46.38,46.38,0,0,0,.8,6.58A53,53,0,0,0,51.48,144.84ZM99.91,47a14.52,14.52,0,0,1-2.38-1.92,3.16,3.16,0,0,1-1.26.58,32.42,32.42,0,0,1-3.67.81c.34.4,0,.45-.07.55l-.38.27c1.34-.14,2.69-.24,4-.32A20.08,20.08,0,0,1,99.91,47ZM108,43.23l.14.16-.1.76S108,43.76,108,43.23Zm.14-1.3-.2-.07C108,41.58,108,41.67,108.13,41.93Zm-1.85-.64a1.67,1.67,0,0,0,.31.35Zm-5.91-21v3.82l.11-3.69Z"/></g></g></svg>