<svg xmlns="http://www.w3.org/2000/svg" viewBox="0 0 471.3 270.66"><g id="Layer_2" data-name="Layer 2"><g id="Layer_1-2" data-name="Layer 1"><path d="M216,62.94c.2-.07.41-.12.61-.18a1.73,1.73,0,0,1-.69,1.16A15.08,15.08,0,0,0,222.36,58a26.29,26.29,0,0,0,3.17-8.08c1.23-1.1,1.71-2.73,1-3.73s-2.44-.93-3.75.23a5.11,5.11,0,0,1-1.11.47A17.94,17.94,0,0,0,217,48.23a26.29,26.29,0,0,0-4.59,2.53l2.15-.84a11.21,11.21,0,0,0-2.5,1.94l.78.14c-3.49,1.58-5.95,5.79-5.28,9s3.87,4.24,7,2.6Z"/><path d="M225.2,62.78c-1.71.87-3.49,1.66-5.21,2.55l-.55,0,1.62,1-.08-.1c-.37-2.22.77-4.74,2-6.93l.37-.85a1.62,1.62,0,0,0-.25-1.26c-.55-.75-1.72-.7-2.62.12l-1,.95c-3,1.89-6.24,6.29-4.51,9.58.39.75,1.39,1,2.17,1.36a2.58,2.58,0,0,0,3.53-.85,2.7,2.7,0,0,0,.07-3.69c.23-.16.46-.34.7-.5,0,.26,0,.52,0,.78-.63-1,.1-2.31.32-3.53.26-.49.52-1,.8-1.47l-2.89-1.1-.25.93a2.29,2.29,0,0,1,.37,0,48.3,48.3,0,0,1-1.35,5.26c-.16.81-.31,1.61-.42,2.44a1.2,1.2,0,0,0,1.64,1l1.08-.43-.57.14c.93-.72,1.82-1.49,2.71-2.24s1.83-1.46,2.77-2.1A.81.81,0,0,0,226,63,.54.54,0,0,0,225.2,62.78Z"/><path d="M220.81,69.26a1.8,1.8,0,0,0-1,.78l.07.31.82-.3C221.26,69.83,221.17,69.46,220.81,69.26Z"/><path d="M219.86,70.35l-.34.12h.35V70.4Z"/><path d="M253.09,206.54l-2.58,1.89c-.84.64-1.63,1.31-2.45,2-1.6,1.31-3.31,2.58-4.77,4l-2.28,2c-.77.68-1.55,1.36-2.22,2.08l-.51.52-.16.18-.33.37c-.21.24-.61.55-.87.85a23.38,23.38,0,0,0-3.1,4.07,6.27,6.27,0,0,0-.77,2.45,3.83,3.83,0,0,0,.64,2.44,11.79,11.79,0,0,0,4,3.14,28.58,28.58,0,0,0,4.81,2.07l.36.1.5.15,1.35.42c.91.26,1.85.47,2.77.72,1.87.43,3.76.84,5.7,1.12a83.91,83.91,0,0,0,11.84,1,4.92,4.92,0,0,0,2-.23c.05-.11-.79-.21-1.78-.2a86.27,86.27,0,0,1-11.79-1c-1.92-.28-3.8-.69-5.66-1.1l-2.76-.71c-.83-.26-2-.63-2.3-.71a27,27,0,0,1-4.58-1.95,11.94,11.94,0,0,1-3.86-2.94,3.59,3.59,0,0,1-.69-2.29,5.85,5.85,0,0,1,.68-2.34,20.58,20.58,0,0,1,2.92-3.87,8.19,8.19,0,0,1,.85-.82l.3-.34.15-.17.08-.09.23-.23,1.05-1.07,1.14-1,2.27-2c.77-.67,1.47-1.38,2.3-2l2.43-2,2.43-1.95,2.56-1.88a6.33,6.33,0,0,0,1.65-1.54C254.67,205.52,254,205.91,253.09,206.54Z"/><path d="M423.91,199.45c-1,0-.93.1,0,.26s2.35.37,3.3.46.81,0,0-.26A15.91,15.91,0,0,0,423.91,199.45Z"/><path d="M416,207.47a61,61,0,0,0-13.21,3.42c-.75.28-1.6.53-2.26.7.34.07-.54.52-2.25,1.17-16.91,6.44-33.59,15.6-51.13,24.73-8.78,4.56-17.82,9.08-27.26,13.13a192.94,192.94,0,0,1-29.6,10.17,6.09,6.09,0,0,1-1.66.82,42,42,0,0,1-6.13,1.75c-1.31.25-2.73.5-4.2.74s-3,.38-4.6.52-3.16.18-4.74.23a116.28,116.28,0,0,1-14.45-.32,95.4,95.4,0,0,1-14.45-2.27l-1.8-.41-1.78-.5-2-.55a20.35,20.35,0,0,1-2.22-.7c-1.47-.53-3-1-4.41-1.58l-4.3-1.76a67.45,67.45,0,0,1-15.12-9.42,28.39,28.39,0,0,1-5.27-5.29,19.34,19.34,0,0,1-3.51-7.64,21.55,21.55,0,0,1-.43-7.41,30.06,30.06,0,0,1,1.7-7.2,33.15,33.15,0,0,1,3.3-6.89q2.22-3.34,4.45-6.69c.74-1.13,1.48-2.26,2.35-3.35.42-.55.82-1.1,1.27-1.66l1.42-1.65,2.56-3c.67-.82,1.38-1.58,2.1-2.33l4.33-4.55c1.47-1.48,3-2.86,4.5-4.3-.88.57-1.48.85-1.61.69-.07-.55,2.56-3.53,6.05-6.26,1.75-1.42,3.47-2.9,5.24-4.21-1.29.92-2.56,1.91-3.84,2.91l-3.81,3c-2.53,2-5,4.23-7.5,6.35-.7.67-1.35,1.27-2,1.81l-3.92,3.87c-.66.63-1.26,1.37-1.9,2l-2.66,3c-.45.51-.94,1-1.36,1.53l-1.2,1.54c-.84,1-1.55,2.06-2.28,3.12q-2.18,3.15-4.37,6.34l-1.2,1.73c-.35.59-.65,1.19-1,1.79a31.68,31.68,0,0,0-1.66,3.62c-.49,1.22-.88,2.46-1.29,3.7s-.6,2.5-.81,3.77a31.13,31.13,0,0,0-.37,3.86,26.88,26.88,0,0,0,.25,3.9,20.73,20.73,0,0,0,.87,3.82c.18.62.41,1.23.64,1.83s.54,1.18.83,1.75a27.3,27.3,0,0,0,4.36,6.15,34.36,34.36,0,0,0,2.73,2.66c1,.83,2.09,1.61,3.13,2.41A67.68,67.68,0,0,0,223,259.91l3.91,1.5,4,1.3c.66.22,1.32.45,2,.64s1.31.32,2,.47l3.08.74a105.91,105.91,0,0,0,12.21,1.83A115.79,115.79,0,0,0,274,266c15.61-1.94,30-6.61,43.33-12.28s25.76-12.35,37.86-18.83a21.61,21.61,0,0,1,2.8-1.35c.52-.15.49,0-.39.5-15,8.55-29.27,17.13-45.69,24.28a161.5,161.5,0,0,1-26.68,9.05,116.19,116.19,0,0,1-32,3.2c-.86,0-1.72-.06-2.59-.12l-2.59-.21c-1.73-.12-3.47-.36-5.21-.59s-3.48-.56-5.22-.85c-.87-.14-1.74-.34-2.61-.54l-3.06-.71a10.2,10.2,0,0,1-1.82-.5l-1.79-.57-3.6-1.15L221.25,264l-1.78-.66a12.63,12.63,0,0,1-1.73-.73L214.4,261c-1.11-.55-2.24-1.09-3.27-1.73L208,257.36c-.52-.31-1.09-.59-1.56-.94L205,255.34a51.26,51.26,0,0,1-5.34-4.46,36.17,36.17,0,0,1-4.19-5.17l-.89-1.4c-.27-.49-.54-1-.8-1.48a23.36,23.36,0,0,1-1.38-3.1c-.37-1.07-.73-2.17-1-3.29s-.48-2.26-.62-3.4A34.31,34.31,0,0,1,192,219.55a37,37,0,0,1,2.44-6.53l.77-1.61c.31-.52.67-1,1-1.57l2-3.14,4.08-6.31a57.25,57.25,0,0,1,4.83-6.26l2.54-2.93c.56-.65,1.1-1.34,1.68-1.95l3.5-3.7c2.32-2.54,4.75-4.78,7.18-7.09l1.82-1.72,1.85-1.62,3.71-3.24c9.93-8.47,20.08-15.77,29.69-22.8,10.24-7.05,19.63-13.72,27.67-20.63,1.06-.85,2-1.73,2.94-2.6l2.84-2.61c.95-.87,1.75-1.78,2.64-2.66l2.57-2.64a62.78,62.78,0,0,0,7.72-10.27c.54-.85.91-1.67,1.38-2.49s.81-1.62,1.07-2.39a22.56,22.56,0,0,0,1.37-4.31,15.73,15.73,0,0,0,.36-3.47,11.54,11.54,0,0,0-.39-2.6,15,15,0,0,0-2.69-4.92,16.66,16.66,0,0,0-5-4.22,20.06,20.06,0,0,0-8.88-2,26.86,26.86,0,0,0-5.38.49,26.16,26.16,0,0,0-5.21,1.65c-.4.2-.8.34-1.22.58l-.64.31a.43.43,0,0,0-.11.08l-.35.28-.7.52c-.45.39-.92.7-1.38,1.09a59.5,59.5,0,0,0-5.49,4.91,2.54,2.54,0,0,1-2.77,1,9.14,9.14,0,0,1-4.22-2,8.55,8.55,0,0,1-3.26-5l-.46.43-1,.43a5,5,0,0,1-3.46,0l-1.66-.41c-2.92-1.13-5.93-1.22-9-2.29l-.82-.87-.4,0a6.31,6.31,0,0,1-3.43-.64l-1.12-.88a13.13,13.13,0,0,1-3-3.7A4.8,4.8,0,0,1,236.37,76a6.74,6.74,0,0,1-4-2.4.93.93,0,0,1-1.05-.93,1.32,1.32,0,0,1,.15-.58h0a10.47,10.47,0,0,0-1-.06c-.33.24-.54.37-.54.37-.82.71-.82.71-1.55,1.31a5,5,0,0,1-1.7.39c-2.61-.67-2.62-.65-3.46-1.37a3.18,3.18,0,0,1-.16-.32l-1,.55a3,3,0,0,1-.55.06c-.52-.29-.52-.29-.77-.3a2.2,2.2,0,0,1-.39-.21c-.32-.7-.32-.7-.47-.81a1.5,1.5,0,0,1-.14-.37c.11-.52.16-.73.18-.82l1.87,0-.31-.48.72.19-.61-.25.62-.22-.81.19a7.27,7.27,0,0,0,1.2-1.33,2.44,2.44,0,0,0,.53-.89,2,2,0,0,1-.31-.16c1-1,1-1,2-1.83a4.42,4.42,0,0,1,.52,0,.65.65,0,0,1,.22-.64l.51-.47,0-.17,0,0,.12-.64,0-.14h0l.65-2.77a7.48,7.48,0,0,1,1-.69l-.45.06c-.29,0-.59-.48-.71-.42a35.21,35.21,0,0,0-7.73,6,1.11,1.11,0,0,1-1.32.57c-.43-.2-.52-.78-.21-1.31a20.93,20.93,0,0,1,5.18-9.85,27.2,27.2,0,0,1,9.3-6.56c1.6-1,3.13-2,4.76-3l-.39,0,1.4-.56.13-.08-1.49-.12-.78.25c-3.63,2.39-7.64,3.89-11.36,6.27-2,1.28-4.08,2.09-6.06,3.31-.41.39-1,.46-1.23.14a1,1,0,0,1,.26-1.28c4.25-6.16,11.37-11.67,18.23-12.49a7.34,7.34,0,0,1,3.56-1.45l.05,0-1.17-.2c1-.42,1.79-.16,2.72-.42l-.94-.76c4.51-2.21,9.13-5.2,14.09-5.65a3.3,3.3,0,0,1,.52-.13,27.76,27.76,0,0,1,2.37-2.21c.22-.18.43-.35.66-.51a1.43,1.43,0,0,1,.23-.14l1.29-.54c.87-.35,1.73-.71,2.63-1a76.77,76.77,0,0,1,11.48-3.25c-1.37.25-2.73.5-4.09.79s-2.69.64-4,1-2.67.77-4,1.19l-3.66,1.27,0,0,.22-.1.52-.22,1-.43c.69-.29,1.37-.58,2.07-.85,1.41-.52,2.83-1.05,4.27-1.52a82,82,0,0,1,8.82-2.27,76.65,76.65,0,0,1,32.1.57,77,77,0,0,1,13.11,4.38,72.79,72.79,0,0,1,12.1,6.9A66.63,66.63,0,0,1,349,53.9a62.58,62.58,0,0,1,5.14,10,53.36,53.36,0,0,1,4,17.51c.23,1.07.43,2.15.56,3.25s.29,2.18.38,3.29l.19,3.33c.07,1.12,0,2.19,0,3.28a62.74,62.74,0,0,1-.48,6.46c-.12,1.07-.33,2.11-.5,3.16s-.37,2.09-.63,3.1l-.75,3-.92,2.94c-.29,1-.64,1.93-1,2.86s-.72,1.89-1.1,2.81a85.36,85.36,0,0,1-5.27,10.32,104.74,104.74,0,0,1-13.09,17.26c-2.37,2.54-4.85,5-7.29,7.2L324.56,157c-1.22,1.12-2.49,2.1-3.74,3.15A316.82,316.82,0,0,1,290.4,182c-10,6.5-19.79,12.55-28.7,18.87a14.09,14.09,0,0,1-4.06,2.33c-.35-.08.71-1.15,2.52-2.48,12.6-9.35,27-18.1,41.59-28.31a252.8,252.8,0,0,0,21.68-17l5.23-4.85c1.74-1.68,3.48-3.48,5.16-5.31a108,108,0,0,0,9.52-11.93,100.5,100.5,0,0,1-8.15,9.88c-.7.78-1.42,1.54-2.15,2.27s-1.45,1.49-2.2,2.19l-2.24,2.13-2.24,2-4.5,3.92-4.6,3.66-2.3,1.82-2.34,1.71-4.67,3.4c-12.52,8.74-25.26,16.25-37.24,23.91l-4.53,3-4.44,3.05-4.32,3c-1.41,1-2.91,1.92-4.27,2.92L248,206l-4.85,4c-1.59,1.35-3,2.79-4.57,4.17l-1.13,1c-.37.36-.7.73-1.05,1.09l-.46.49-.24.27-.46.52c-.3.36-.75.75-1.08,1.16l-1,1.25a30,30,0,0,0-1.95,2.57,12,12,0,0,0-1.43,2.87,5.81,5.81,0,0,0-.22,3.17,5.4,5.4,0,0,0,1.64,2.72,13.48,13.48,0,0,0,2.62,1.88,30.91,30.91,0,0,0,5.86,2.73c.5.2,1,.33,1.54.5l.77.23.46.11.63.18,1.4.39,1.43.33c1,.21,1.9.46,2.88.61a76,76,0,0,0,12,1.32,95.58,95.58,0,0,0,10.45-.26c3.47-.3,6.84-.71,10.26-1.35a143,143,0,0,0,20.23-5.34c13.41-4.54,26.65-10.78,41.13-17.83,10.19-4.94,20.39-9.93,31-14.37,5.29-2.23,10.68-4.31,16.19-6.18a122.75,122.75,0,0,1,17.64-4.78,59.36,59.36,0,0,1,21-.37,44,44,0,0,1,21,9.81A55.39,55.39,0,0,1,463,215.94a76.55,76.55,0,0,1,6.66,18.93c1.51,6.65,1.83,12.47,1.5,13.25s-1.24-3.56-2.54-10a81.75,81.75,0,0,0-6.38-19.3,54.68,54.68,0,0,0-13.32-17.51,43.66,43.66,0,0,0-9.91-6.44,42.77,42.77,0,0,0-11.43-3.44,59.9,59.9,0,0,0-21.48,1c-3.28.68-6.42,1.54-9.45,2.46s-5.9,1.9-8.81,2.93c-5.79,2.08-11.43,4.38-17,6.78-11.06,4.82-21.66,10.1-32.14,15.11s-20.85,9.77-31.38,13.61a142.62,142.62,0,0,1-31.88,8A87.68,87.68,0,0,1,244,239.34l-1.86-.54c-.51-.14-.9-.22-1.28-.36-.77-.26-1.56-.48-2.32-.79s-1.53-.58-2.27-.93-1.49-.68-2.22-1.07-1.43-.8-2.14-1.22a17.47,17.47,0,0,1-2-1.39,6.78,6.78,0,0,1-2.7-4,7.26,7.26,0,0,1,.55-4.16,17.48,17.48,0,0,1,2.14-3.64c.87-1.1,1.76-2.18,2.64-3.26.42-.53,1-1,1.4-1.49s.68-.78,1.64-1.77c-.15,0-.29,0-.36,0-.25-.25.07-1.15,1-2.37-.49.46-1,.89-1.46,1.38l-1.2,1.26c-.52.58-1,1.15-1.69,1.78-1.15,1.28-2.23,2.64-3.36,4a19.19,19.19,0,0,0-2.7,4.53,7.38,7.38,0,0,0-.28,5.19,7.93,7.93,0,0,0,2.33,2.87,19.64,19.64,0,0,0,3.13,2,41.17,41.17,0,0,0,6.67,3c1.13.42,2.29.73,3.43,1.06l.47.12.54.13,1.3.35c.87.24,1.77.4,2.65.6a81,81,0,0,0,10.9,1.56,103.18,103.18,0,0,0,11.28.19q5.7-.26,11.47-1.1a155,155,0,0,0,23.53-5.55,334.62,334.62,0,0,0,31.52-12c10.24-4.37,20.37-8.94,30.88-13.27,6.56-3,13.23-5.87,20.09-8.44q5.15-1.93,10.43-3.62a105.28,105.28,0,0,1,11.1-3A63.83,63.83,0,0,1,419.3,194a43.83,43.83,0,0,1,12.94,1.69c1.08.29,2.15.71,3.21,1.08s2.12.86,3.12,1.4a38.85,38.85,0,0,1,5.74,3.52,45.87,45.87,0,0,1,9.22,9.13,16.2,16.2,0,0,1,1.79,2.7c.19.46-.27-.1-1.08-1.19a45.71,45.71,0,0,0-13.12-12,38.58,38.58,0,0,0-8.55-3.74,41.12,41.12,0,0,0-9-1.56,59.74,59.74,0,0,0-17.09,1.61c-2.69.61-5.31,1.34-7.87,2.14-1.29.39-2.53.82-3.78,1.24s-2.49.85-3.73,1.3c3.25-.77,5.28-.91,5.16-.41s-2.43,1.67-6,3.23c4.46-1.53,8.94-3,13.64-4.13,2.91-.7,5.3-.94,5.25-.7s-2.33.87-5.07,1.54a202.68,202.68,0,0,0-27.16,9.35c-8.78,3.64-17.34,7.64-25.84,11.66-10.12,5-20.14,9.92-30.36,14.28a192.36,192.36,0,0,1-31.36,10.62,30.58,30.58,0,0,1,6.53-.26h0c3.31-.94,6.61-1.92,9.85-3,14.83-5.37,29.09-12.49,43.51-19.67S378.35,209.37,394,204c7.79-2.65,16-5.07,24.86-5.29a38.46,38.46,0,0,1,13.29,1.87,34.48,34.48,0,0,1,11.76,6.8c6.8,5.93,11.37,13.83,14.11,22s4,16.6,5,24.78a8.69,8.69,0,0,1,.14,2.39,6.68,6.68,0,0,1-.44-2.1c-1.27-9.86-2.75-20.08-6.91-29.73a49.94,49.94,0,0,0-8.41-13.37,36.85,36.85,0,0,0-13-9.52l.08,0c.78.41.88.58,0,.26s-2.39-.85-3.19-1.2-.82-.42,0-.26a40.57,40.57,0,0,0-14.82-1.5,72.48,72.48,0,0,0-14.14,2.6,210.67,210.67,0,0,0-26.12,9.6c-16.88,7.37-32.81,16.09-49.08,23.6,15.23-6.73,30.09-14.51,45.52-21.26a242.68,242.68,0,0,1,23.65-9.06,104.07,104.07,0,0,1,12.37-3.27,54.41,54.41,0,0,1,13-1.06,35.36,35.36,0,0,1,11.5,1.93,12,12,0,0,1,2.64,1.32c.22.23-.51-.09-1.54-.48a31.42,31.42,0,0,0-3.09-1.08,25.48,25.48,0,0,1,7.46,3.89c1.67,1.3,2.45,2.29,2.26,2.45-.62.24-5.14-3.11-11.52-4.81a38.11,38.11,0,0,0-13.07-1A70.93,70.93,0,0,0,403.39,205a213.25,213.25,0,0,0-24.73,8.93c-1.74.76-3.46,1.56-5.19,2.35s-3.41,1.72-5.1,2.61c6.22-2.8,12.5-5.44,18.86-7.82q4.78-1.78,9.62-3.34c3.23-1,6.48-2,9.76-2.72,6.54-1.5,13.32-2.21,19.8-1a29.84,29.84,0,0,1,9.15,3.34,33.2,33.2,0,0,1,7.63,6.09c1.58,1.61,2.61,3.25,2.49,3.39s-1.31-1.2-2.85-2.78a29.69,29.69,0,0,0-14.26-8.34,39.73,39.73,0,0,0-16.82,0,107.79,107.79,0,0,0-16.85,4.9c-5.57,2-11.07,4.3-16.52,6.73-21.79,9.75-42.8,22.07-66,30.88a178.58,178.58,0,0,1-23.23,8.47,122.72,122.72,0,0,1-25.25,4.48c1.1,0,2.2,0,3.31-.06s2.22-.07,3.32-.17c14.15-.95,27.12-4.56,39.14-9.06a315.58,315.58,0,0,0,33.9-15.66c10.79-5.62,21.31-11.39,32.2-16.58,5.44-2.6,11-5,16.67-7.27A119.79,119.79,0,0,1,410,206.79a8.18,8.18,0,0,1,2.37-.28c.14.07-.65.32-1.85.54a114.15,114.15,0,0,0-16.93,5.32c-5.51,2.12-10.86,4.51-16.16,7-10.6,5-21,10.7-32,16.43-9.15,4.75-18.25,9.28-27.53,13.28a196.54,196.54,0,0,1-28.55,9.95,175.83,175.83,0,0,0,28.75-9.37c9.12-3.8,17.83-8.08,26.38-12.44,17.05-8.7,33.5-17.79,51.14-24.26a29.16,29.16,0,0,1,4.13-1.3,3.34,3.34,0,0,1,.83-.42,70.81,70.81,0,0,1,14-4,10.49,10.49,0,0,1,2.61-.15C417.62,207.19,417.06,207.31,416,207.47ZM239,57.9l-.26,0,.67-.14,1.53.47ZM235.9,68.56h0l-.89-.17Zm84.45,87c2.15-1.78,4.22-3.75,6.33-5.62s4.2-4,6.22-6.12a106.16,106.16,0,0,0,11.32-14.13A77.72,77.72,0,0,0,353,112.43a64,64,0,0,0,3.77-20.64,62.8,62.8,0,0,1-2.95,20.37,81.33,81.33,0,0,1-14.49,25.1,115.77,115.77,0,0,1-9.23,9.86c-.8.74-1.61,1.54-2.42,2.24l-2.43,2.09C323.62,152.82,322,154.29,320.35,155.56ZM230.3,59.19a11,11,0,0,1,3.53,0,6.13,6.13,0,0,1,1.23-1.51,34.78,34.78,0,0,1,4.22-3.15c-.49-.22-.14-.44,0-.63l.41-.51-2.45,1.41-2.46,1.49C233.28,57.2,231.8,58.35,230.3,59.19Zm-6.63,11.18-.24,0-.41-.7Zm.74,1.15.23-.15C224.81,71.6,224.68,71.61,224.41,71.52Zm2.13-1.38a1.84,1.84,0,0,0-.52,0ZM245,81.78,242.47,79c.78.93,1.57,1.85,2.37,2.75Z"/><path d="M109,53.74l-.34-.34c.12-.25.37-.3.69-.22a4.29,4.29,0,0,0-5-.41,4.9,4.9,0,0,0-1,.72,8.08,8.08,0,0,0-.91,1,9.56,9.56,0,0,0-1.33,2.43c-.88.11-1.29,1.25-.93,2.4a2.32,2.32,0,0,0,2.13,1.84,2.18,2.18,0,0,1,.64.29,16,16,0,0,0,2.54,1.81c.42.25.83.43,1.24.65s.83.41,1.24.58l-1.11-.89a2.79,2.79,0,0,0,1.42.37l-.32-.62a2.35,2.35,0,0,0,2.48.38A3.18,3.18,0,0,0,112,61.41c.59-2.47-.18-5.64-2.12-7Z"/><path d="M104.13,47.43a23.66,23.66,0,0,1,3.71,1.83l.29.39-.45-1.85v.12a7.16,7.16,0,0,1-3.35,3.43l-.43.38a1.64,1.64,0,0,0-.17,1.07,1.81,1.81,0,0,0,1.45,1.64H106c2,.58,4.66.36,5.17-3a7.75,7.75,0,0,0-.42-2.53,2.16,2.16,0,0,0-2-2.15,1.87,1.87,0,0,0-1.45,2.37c-.18-.06-.37-.13-.54-.17.09-.19.19-.34.29-.51,0,1.09-.84,1.56-1.33,2.26l-.87.51L106,53.92l.38-.47c-.07-.12-.18-.28-.18-.29.36-.49.71-1,1.08-1.45a7.55,7.55,0,0,1,1.25-1.15l1.1-1.25a1.75,1.75,0,0,0-.4-1.86l-.72-.53.34.32c-.75-.21-1.52-.36-2.29-.52s-1.54-.19-2.32-.38a.43.43,0,0,0-.54.41A.65.65,0,0,0,104.13,47.43Z"/><path d="M109,46.09c.27.19.53.39.84.28.06-.14.09-.22.1-.25l-.53-.43C109,45.39,108.88,45.69,109,46.09Z"/><path d="M109.91,46.12l.22.17L110,46l0,0Z"/><path d="M94.47,175.73a77.88,77.88,0,0,0,35.07,6.48,66.31,66.31,0,0,0,17.28-3.29,68,68,0,0,0,16-7.89c.69-.43,1.18-.9,1.13-1s-.6.19-1.23.58a66.89,66.89,0,0,1-15.85,7.85,65.46,65.46,0,0,1-17.11,3.29,73.92,73.92,0,0,1-17.66-1.12,82.89,82.89,0,0,1-17.14-5.22,3.23,3.23,0,0,0-1.54-.4C93.3,175.09,93.78,175.42,94.47,175.73Z"/><path d="M190.74,68.25c.41.54.49.46.19-.18a11.78,11.78,0,0,0-1.25-2c-.36-.44-.45-.35-.18.18A13.92,13.92,0,0,0,190.74,68.25Z"/><path d="M200.82,69.81c2.18,3.71,4,7.38,5.63,10.69a13.71,13.71,0,0,1,.71,1.91c.06-.29.53.42,1.1,1.89a91.56,91.56,0,0,1,5.92,23.07,90.08,90.08,0,0,1-.49,24.79c-.27,2.09-.77,4.12-1.16,6.19l-.77,3.07c-.25,1-.51,2-.85,3.05-.67,2-1.21,4.1-2,6.07s-1.51,4-2.46,5.93a96.6,96.6,0,0,1-13.71,21.76,4.23,4.23,0,0,1-.62,1.42,37.24,37.24,0,0,1-3.16,4.1c-.7.81-1.55,1.59-2.41,2.43s-1.76,1.7-2.75,2.48l-3,2.32A95.81,95.81,0,0,1,161,202.63a90.6,90.6,0,0,1-22,6.44c-.76.2-1.54.43-2.37.6l-2.56.47-2.72.45c-.94.11-1.9.19-2.88.27a106.06,106.06,0,0,1-39.76-2.72c.77.4,1.21.73,1.15.92-.38.37-3.56-.14-7.06-1.39-1.75-.65-3.53-1.23-5.25-1.95a121.14,121.14,0,0,0,15.19,5.37c.75.2,1.44.41,2.06.61a109.66,109.66,0,0,0,17.83,2.72,99.64,99.64,0,0,0,39.23-5.11,95.28,95.28,0,0,0,32.93-19.66,104.54,104.54,0,0,0,12.54-13.86A101.79,101.79,0,0,0,206.78,160,98.65,98.65,0,0,0,213,142.92a96.15,96.15,0,0,0,2.89-17.65,17.5,17.5,0,0,1,.27-2.68c.12-.45.25-.36.23.52a100.66,100.66,0,0,1-2.74,22,93.69,93.69,0,0,1-7.58,21A96.17,96.17,0,0,1,173.8,203c-1.12.81-2.32,1.48-3.48,2.21s-2.34,1.47-3.57,2.11c-2.44,1.29-4.87,2.64-7.44,3.73a100.25,100.25,0,0,1-15.8,5.61A110,110,0,0,1,110.37,220,121.55,121.55,0,0,1,93.8,218l-4.09-.87-2-.44-2-.54-4.05-1.09-4-1.28c-2.69-.82-5.27-1.9-7.91-2.89-1.31-.53-2.58-1.11-3.88-1.67s-2.59-1.12-3.85-1.77l-3.8-1.9c-1.27-.64-2.49-1.37-3.73-2.06-2.49-1.37-4.95-2.88-7.38-4.47a121.9,121.9,0,0,1-26.68-25.17,102.15,102.15,0,0,1-10.31-16.28A93.48,93.48,0,0,1,3,138.79,102.91,102.91,0,0,1,1,99.48,122.22,122.22,0,0,1,12.23,62.55,123.14,123.14,0,0,1,26.07,40.08,128.12,128.12,0,0,1,44.14,20.9c.81-.75,1.69-1.41,2.55-2.11l1.29-1,.29-.25,1-.84c.64-.55,1.27-1.11,1.92-1.65,1.34-1,2.68-2,4-3l2.05-1.49c.69-.49,1.41-.93,2.12-1.39q2.14-1.37,4.32-2.7c1.46-.88,3-1.65,4.5-2.46s3-1.64,4.64-2.32A11.58,11.58,0,0,1,79.75.07a6.27,6.27,0,0,1,4.8,3,6.2,6.2,0,0,1-.72,6.39l1.11-.35,1.88-.19a6.59,6.59,0,0,1,4.66,1.2l1.63,1.17c2.38,2.41,5.44,4.13,7.3,6.9l0,1.2.35.27a5.53,5.53,0,0,1,2.41,2.77l.19,1.41a14.66,14.66,0,0,1-.41,4.73,5,5,0,0,1,.13,1.75,7.17,7.17,0,0,1,1.36,4.48,1,1,0,0,1,.17,1.38.84.84,0,0,1-.41.29h0a10,10,0,0,0,.65.79c.34.07.54.13.54.13.88.1.88.1,1.64.21a4.51,4.51,0,0,1,1.19,1c1.09,2.39,1.07,2.4,1.15,3.49a2.72,2.72,0,0,1-.07.33c.57.28.61.3.76.39a2.6,2.6,0,0,1,.3.37c.11.58.11.58.23.78a3.92,3.92,0,0,1,.09.44c-.18.69-.18.69-.16.88a2.86,2.86,0,0,1-.1.34L110,46,109,44.65l-.06.54-.28-.66.2.61-.42-.32.5.49c-.86-.1-.87-.1-1.19,0a1.14,1.14,0,0,0-.66.19,2.69,2.69,0,0,1,.1.33c-.93-.1-.93-.13-1.84-.18q-.16-.18-.3-.36a.36.36,0,0,1-.36.32h-.47l-.08.11v.05l-.3.38-.06.09h0l-1.28,1.62a5.4,5.4,0,0,1-.82-.12l.3.22c.19.17.22.73.31.77a15.29,15.29,0,0,0,3.14.69c.51.06,1,.1,1.53.14l1.52.24c.33-.11.71.17.84.61a.81.81,0,0,1-.36,1,9.55,9.55,0,0,1-1.24,1.16,12,12,0,0,1-1.3,1,9.25,9.25,0,0,1-2.88,1.13,15.44,15.44,0,0,1-6.54.08,21.11,21.11,0,0,0-3.26.44l.25.19-.94,0H93L94,56a4.71,4.71,0,0,0,.52.09A10.78,10.78,0,0,1,98.26,56c.64.08,1.26.15,1.89.27s1.26.25,1.87.34A15.88,15.88,0,0,1,105.84,58c.29,0,.57.31.64.72s-.1.72-.37.72a13.74,13.74,0,0,1-11.43.19,2.9,2.9,0,0,1-2.2-.06h0l.78.58c-.58,0-1.16-.49-1.72-.51l.69.92c-1.32.3-2.59.82-3.9,1.26a10,10,0,0,1-4.13.89l-.3.06a17.7,17.7,0,0,1-.73,1.82c-.07.14-.15.28-.23.41s0,.06-.08.11l-.45.36-.9.71c-1.2,1-2.39,2.06-3.7,3.07l2.76-1.91a14.3,14.3,0,0,1,1.38-.91l1.35-.8a3,3,0,0,1-.26.23l-.34.28-.69.57c-.47.36-.89.79-1.33,1.19-.87.82-1.8,1.58-2.67,2.41S76.24,72,75.32,72.78s-1.74,1.79-2.67,2.67A110.49,110.49,0,0,0,59.28,91.77c-3.91,5.55-6.7,10.88-9,14.28A55.9,55.9,0,0,0,49,126a42.32,42.32,0,0,0,2.21,9.19,50,50,0,0,0,4.25,8.88,67.46,67.46,0,0,0,13.81,16.11,78,78,0,0,0,8.94,6.66,88.45,88.45,0,0,0,9.81,5.54,7,7,0,0,1,2.73,1.78c0,.32-1,.11-2.42-.53a89.4,89.4,0,0,1-14.33-8,78.77,78.77,0,0,1-12.33-10.47c-7.33-7.74-12.49-16.76-14.41-26.05a52.09,52.09,0,0,0,10,23.08,78.35,78.35,0,0,0,20.84,19.07l3.25,1.88c1.08.63,2.22,1.15,3.33,1.74S87,176,88.07,176.57s2.19,1.15,3.32,1.64c23,9.73,48.89,9.79,69.7-4a73.82,73.82,0,0,0,21.26-21.68,72.9,72.9,0,0,0,6.52-13.41,67,67,0,0,0,2.25-7.32c.28-1.27.63-2.52.83-3.81s.49-2.57.64-3.89c2-14.67-.75-29.11-6.84-42.23a84.41,84.41,0,0,0-5.16-9.5c-1-1.51-2-3-2.94-4.32-.49-.66-1-1.33-1.26-1.6l-1.76-1.92a68.91,68.91,0,0,0-17-12.93c-3.47-1.84-6.77-3.54-7-4.14s2.59.06,6.25,1.83a69.81,69.81,0,0,1,19.07,13.38c.69.67,1.32,1.4,2,2.09a10.36,10.36,0,0,1,.72.81c.26.32.54.67.82,1,1.14,1.48,2.27,3.12,3.34,4.78a86.23,86.23,0,0,1,5.73,10.53,80.65,80.65,0,0,1,6.65,22.83,72.05,72.05,0,0,1-.72,23.57l-.27,1.46-.36,1.46c-.24,1-.42,1.94-.73,2.9l-.84,2.88-1,2.79c-.6,1.89-1.5,3.67-2.25,5.5-.4.91-.89,1.78-1.33,2.67s-.87,1.79-1.41,2.63a72.65,72.65,0,0,1-15.1,18.57,71.46,71.46,0,0,1-20.41,12.76c-.93.39-1.89.7-2.83,1l-1.42.52c-.48.17-1,.28-1.44.43l-2.9.84-3,.66c-.5.1-1,.23-1.49.32l-1.51.23c-1,.14-2,.33-3,.45-2,.17-4.06.44-6.13.44a80,80,0,0,1-21-2.06c.07.11.14.22.12.31-.07.36-.79.53-2,.54a89.59,89.59,0,0,0,12,2.21c2,.16,4.05.43,6.08.44,1,0,2,.12,3.05.09l3-.05a73.74,73.74,0,0,0,31.76-10.42,81,81,0,0,0,25.16-24l1.66-2.59c.27-.44.56-.85.81-1.29l.74-1.33c.5-.88,1-1.76,1.48-2.64s.87-1.8,1.3-2.69l.65-1.34c.21-.45.38-.92.57-1.37.37-.92.75-1.83,1.12-2.74s.66-1.86,1-2.79l.49-1.4.41-1.41A73.17,73.17,0,0,0,198,121a74.56,74.56,0,0,0,.78-11.69,82.7,82.7,0,0,0-7.53-28.95,88.79,88.79,0,0,0-7.45-13.14c-.71-1-1.44-2-2.17-3-.35-.44-.78-1-1-1.2l-1.26-1.33A69,69,0,0,0,174,56.54a7.93,7.93,0,0,1-1.39-1.31c-.17-.25.22,0,.86.45a71.06,71.06,0,0,1,7.65,6.94l.33.37.39.45.79,1c.54.68,1.07,1.37,1.59,2.09,1,1.42,2,2.91,3,4.43a87.89,87.89,0,0,1,9.29,19.72c-.37-2.3-.42-3.76.06-3.73s1.51,1.61,2.56,4.23a90.1,90.1,0,0,0-3.31-9.7c-.8-2-1.33-3.55-1.11-3.59s1.13,1.4,1.9,3.28a83.48,83.48,0,0,1,6,41.11,81.69,81.69,0,0,1-6.05,24.26,82.85,82.85,0,0,1-5.73,11.17,83.94,83.94,0,0,1-7.48,10.15,22.44,22.44,0,0,1,4.13-3h0c1.68-2.06,3.09-4.3,4.56-6.48a85.79,85.79,0,0,0,11.3-34.2,84.89,84.89,0,0,0-4-35.89A94.93,94.93,0,0,0,192,71.57a89.37,89.37,0,0,0-4.89-7.74c-.87-1.24-1.8-2.47-2.72-3.57l-.31-.37-.39-.41-.78-.83c-.53-.54-1-1.12-1.58-1.64a80.23,80.23,0,0,0-31-19,4.91,4.91,0,0,1-1.65-.72,3.88,3.88,0,0,1,1.58.34,84.11,84.11,0,0,1,20,9.82A73.25,73.25,0,0,1,179,54.25c.71.59,1.35,1.26,2,1.9l1,1,.95,1,.94,1,.48.5.39.47c.56.67,1.13,1.39,1.67,2.12l0-.05c-.3-.51-.27-.67.17-.19a12.36,12.36,0,0,1,1.36,1.88c.32.61.19.62-.17.19a93.9,93.9,0,0,1,15.49,38,84.43,84.43,0,0,1-3.43,40.52,85.92,85.92,0,0,0,4.43-18.49,85,85,0,0,0,.13-19,92.91,92.91,0,0,0-11.94-36c-1.52-2.33-3.13-4.59-4.87-6.79a11,11,0,0,1-1.12-1.72c-.07-.22.36.15.85.76s1,1.22,1.44,1.83c-1.37-2-2.57-3.75-3.43-4.92s-1.37-2.07-1.16-2.22,1.23.55,2.54,1.7a32.23,32.23,0,0,1,4.2,5.12,93.56,93.56,0,0,1,15.42,37.81c.28,1.46.48,2.93.71,4.4s.49,3,.64,4.45a91,91,0,0,0-7.19-31.17A96.68,96.68,0,0,0,193,64.07a72.45,72.45,0,0,0-4.65-6.58,79.48,79.48,0,0,0-5.56-5.87c-1.37-1.23-2.47-2.37-2.37-2.54s1.32.7,2.72,1.93l2.63,2.43L188.31,56a63.88,63.88,0,0,1,4.53,5.7A97.09,97.09,0,0,1,200.29,74a94.83,94.83,0,0,1,9.14,27.42,86.7,86.7,0,0,1-.07,29.28A84.91,84.91,0,0,1,205.69,145c-.72,2.37-1.77,4.62-2.69,6.93-.5,1.13-1.07,2.24-1.61,3.36s-1.08,2.24-1.71,3.3a92.41,92.41,0,0,1-24.41,31.65l2.14-1.52,2.06-1.65a87.51,87.51,0,0,0,31.09-53.28,92.23,92.23,0,0,0,.28-29.84,102.14,102.14,0,0,0-9.12-28.81,6.72,6.72,0,0,1-.73-1.9c0-.14.44.45.89,1.4a102.44,102.44,0,0,1,9.27,28,89.39,89.39,0,0,1,.18,29.84,90.89,90.89,0,0,1-2.9,12.35c-.32,1-.63,2-.94,3s-.74,2-1.1,2.94-.74,2-1.13,2.92L204,156.52a98.32,98.32,0,0,1-13,20.84,90.13,90.13,0,0,0,13.54-20.55,92.87,92.87,0,0,0,7.44-23,95.31,95.31,0,0,0,1.38-11.9c.15-2,.1-4,.13-6s-.1-4-.3-6a96.15,96.15,0,0,0-4.81-23.32,35,35,0,0,1-1.09-3.51,2.28,2.28,0,0,1-.4-.69c-1.64-3.63-3.55-7.5-5.71-11.32a12.38,12.38,0,0,1-1-2.11C200,68.61,200.32,69,200.82,69.81ZM93.41,43.66l.19.14-.54-.16L92,42.58S92.7,43.1,93.41,43.66Zm6-7.32h0L100,37Zm-47.9,108.5a46.67,46.67,0,0,1-5.67-17.08A50.29,50.29,0,0,1,47,109.68a56.14,56.14,0,0,0-.72,8.88c-.11,1.14-.1,2.26-.15,3.39s0,2.26.1,3.36a46.38,46.38,0,0,0,.8,6.58A53,53,0,0,0,51.48,144.84ZM99.91,47a14.52,14.52,0,0,1-2.38-1.92,3.16,3.16,0,0,1-1.26.58,32.42,32.42,0,0,1-3.67.81c.34.4,0,.45-.07.55l-.38.27c1.34-.14,2.69-.24,4-.32A20.08,20.08,0,0,1,99.91,47ZM108,43.23l.14.16-.1.76S108,43.76,108,43.23Zm.14-1.3-.2-.07C108,41.58,108,41.67,108.13,41.93Zm-1.85-.64a1.67,1.67,0,0,0,.31.35Zm-5.91-21v3.82l.11-3.69Z"/></g></g></svg>