<svg xmlns="http://www.w3.org/2000/svg" viewBox="0 0 358.32 302.82"><g id="Layer_2" data-name="Layer 2"><g id="Layer_1-2" data-name="Layer 1"><path d="M109,82.93l-.34-.33c.12-.26.37-.3.69-.23a4.32,4.32,0,0,0-5-.41,4.9,4.9,0,0,0-1,.72,8.08,8.08,0,0,0-.91,1,9.79,9.79,0,0,0-1.33,2.44c-.88.1-1.29,1.24-.93,2.4a2.31,2.31,0,0,0,2.13,1.83,2.47,2.47,0,0,1,.64.29,16.12,16.12,0,0,0,2.54,1.82c.42.24.83.43,1.24.64s.83.41,1.24.59l-1.11-.9a2.81,2.81,0,0,0,1.42.38l-.32-.63a2.35,2.35,0,0,0,2.48.39A3.2,3.2,0,0,0,112,90.6c.59-2.47-.18-5.63-2.12-7Z"/><path d="M104.13,76.62a24.62,24.62,0,0,1,3.71,1.84l.29.38L107.68,77v.12a7.18,7.18,0,0,1-3.35,3.44l-.43.37a1.65,1.65,0,0,0-.17,1.07,1.79,1.79,0,0,0,1.45,1.64H106c2,.57,4.66.36,5.17-3a7.74,7.74,0,0,0-.42-2.52,2.16,2.16,0,0,0-2-2.15,1.87,1.87,0,0,0-1.45,2.37,4.27,4.27,0,0,0-.54-.18c.09-.19.19-.34.28-.51,0,1.09-.83,1.57-1.32,2.26l-.87.51L106,83.12l.38-.48c-.07-.11-.18-.28-.18-.29.36-.49.71-1,1.08-1.44a7.14,7.14,0,0,1,1.25-1.15l1.1-1.26a1.75,1.75,0,0,0-.4-1.86l-.72-.53.34.33c-.75-.22-1.52-.37-2.29-.52s-1.54-.2-2.32-.39a.43.43,0,0,0-.54.41A.64.64,0,0,0,104.13,76.62Z"/><path d="M109,75.29c.27.18.53.38.84.28.06-.15.08-.22.1-.26l-.53-.42C109,74.58,108.88,74.88,109,75.29Z"/><path d="M109.91,75.31l.22.18-.17-.25,0,0Z"/><path d="M94.47,204.93a77.87,77.87,0,0,0,35.07,6.47,65.9,65.9,0,0,0,17.28-3.29,67.26,67.26,0,0,0,16-7.89c.69-.42,1.18-.9,1.13-1s-.6.18-1.23.58a67.27,67.27,0,0,1-15.85,7.85,65.45,65.45,0,0,1-17.11,3.28,73.92,73.92,0,0,1-17.66-1.12,82.25,82.25,0,0,1-17.14-5.21,3.17,3.17,0,0,0-1.54-.41C93.3,204.28,93.78,204.62,94.47,204.93Z"/><path d="M190.74,97.45c.41.53.49.46.19-.18a11.86,11.86,0,0,0-1.25-2c-.36-.44-.45-.35-.18.19A14.52,14.52,0,0,0,190.74,97.45Z"/><path d="M200.82,99c2.18,3.72,4,7.38,5.63,10.7a14.09,14.09,0,0,1,.71,1.9c.06-.29.53.42,1.1,1.89a91.52,91.52,0,0,1,5.92,23.08,90,90,0,0,1-.49,24.78c-.27,2.09-.77,4.13-1.16,6.2l-.77,3.06c-.25,1-.51,2-.85,3.06-.67,2-1.21,4.09-2,6.07s-1.51,4-2.46,5.92a96.66,96.66,0,0,1-13.71,21.77,4.13,4.13,0,0,1-.62,1.41,35.43,35.43,0,0,1-3.16,4.1c-.7.82-1.55,1.6-2.41,2.44s-1.76,1.7-2.75,2.48l-3,2.31A95.37,95.37,0,0,1,161,231.82a91.07,91.07,0,0,1-22,6.45c-.76.19-1.54.42-2.37.59l-2.56.48-2.72.44c-.94.11-1.9.19-2.88.28a106.07,106.07,0,0,1-39.76-2.73c.77.4,1.21.73,1.15.93-.38.36-3.56-.15-7.06-1.4-1.75-.64-3.53-1.23-5.25-1.94a122.76,122.76,0,0,0,15.19,5.37c.75.2,1.44.41,2.06.61a111.89,111.89,0,0,0,17.83,2.72,99.82,99.82,0,0,0,39.23-5.11,95.52,95.52,0,0,0,32.93-19.66A105.17,105.17,0,0,0,197.26,205a101.79,101.79,0,0,0,9.52-15.78,99.05,99.05,0,0,0,6.24-17.1,96,96,0,0,0,2.89-17.64,17.37,17.37,0,0,1,.27-2.68c.12-.46.25-.36.23.51a100.75,100.75,0,0,1-2.74,22,93.61,93.61,0,0,1-7.58,21,96,96,0,0,1-32.29,36.83c-1.12.81-2.32,1.48-3.48,2.21s-2.34,1.48-3.57,2.11c-2.44,1.29-4.87,2.64-7.44,3.73a99.29,99.29,0,0,1-15.8,5.62,109.66,109.66,0,0,1-33.14,3.34,121.54,121.54,0,0,1-16.57-1.93l-4.09-.87-2-.45-2-.53-4.05-1.1-4-1.28c-2.69-.81-5.27-1.9-7.91-2.88-1.31-.53-2.58-1.11-3.88-1.67s-2.59-1.13-3.85-1.78l-3.8-1.9c-1.27-.63-2.49-1.37-3.73-2-2.49-1.37-4.95-2.89-7.38-4.48a121.66,121.66,0,0,1-26.68-25.17,101.7,101.7,0,0,1-10.31-16.28A93.48,93.48,0,0,1,3,168a102.9,102.9,0,0,1-2-39.31A122.25,122.25,0,0,1,12.23,91.75,123.56,123.56,0,0,1,26.07,69.27,128,128,0,0,1,44.14,50.1c.81-.76,1.69-1.42,2.55-2.12L48,47l.29-.26,1-.83c.64-.56,1.27-1.12,1.92-1.65,1.34-1,2.68-2.05,4-3.06l2.05-1.49c.69-.48,1.41-.92,2.12-1.38,1.43-.92,2.87-1.81,4.32-2.7s3-1.65,4.5-2.47,3-1.64,4.64-2.32a11.66,11.66,0,0,1,6.93-1.53,6.3,6.3,0,0,1,4.8,3,6.2,6.2,0,0,1-.72,6.39l1.11-.34,1.88-.19a6.54,6.54,0,0,1,4.66,1.2l1.63,1.16c2.38,2.41,5.44,4.14,7.3,6.91l0,1.19.35.28a5.51,5.51,0,0,1,2.41,2.76l.19,1.41a14.7,14.7,0,0,1-.41,4.74,4.9,4.9,0,0,1,.13,1.74A7.22,7.22,0,0,1,104.42,64a1,1,0,0,1,.17,1.38.84.84,0,0,1-.41.29h0a8.43,8.43,0,0,0,.65.79c.34.07.54.13.54.13l1.64.22a4.38,4.38,0,0,1,1.19,1c1.09,2.4,1.07,2.4,1.15,3.5,0,.11,0,.22-.07.33a7.52,7.52,0,0,1,.76.38,2.41,2.41,0,0,1,.3.38c.11.58.11.58.23.78a4,4,0,0,1,.09.43c-.18.7-.18.7-.16.88a2.71,2.71,0,0,1-.1.35l-.45.39-.94-1.4-.06.55-.28-.67.2.62-.42-.33.5.49a2.8,2.8,0,0,0-1.19,0,1.12,1.12,0,0,0-.66.2,2.69,2.69,0,0,1,.1.33c-.93-.1-.93-.13-1.84-.19a3.37,3.37,0,0,1-.3-.36.36.36,0,0,1-.36.32h-.47l-.08.11v0l-.3.38-.06.09h0L102.52,77a5.4,5.4,0,0,1-.82-.11,2.86,2.86,0,0,1,.3.22c.19.16.22.73.31.76a14.66,14.66,0,0,0,3.14.69c.51.06,1,.1,1.53.15l1.52.24c.33-.12.71.16.84.6a.8.8,0,0,1-.36,1,9.55,9.55,0,0,1-1.24,1.16,9.84,9.84,0,0,1-1.3,1,9.27,9.27,0,0,1-2.88,1.14,15.6,15.6,0,0,1-6.54.07,23.86,23.86,0,0,0-3.26.44l.25.2-.94,0-.09,0,1,.66.52.09a10.54,10.54,0,0,1,3.76-.06c.64.08,1.26.14,1.89.26s1.26.26,1.87.34a16.8,16.8,0,0,1,3.82,1.32c.29,0,.57.31.64.73s-.1.71-.37.72a13.75,13.75,0,0,1-11.43.18,2.86,2.86,0,0,1-2.2-.06h0l.78.57c-.58,0-1.16-.49-1.72-.51.22.3.46.63.69.93A38.43,38.43,0,0,0,88.3,91a9.91,9.91,0,0,1-4.13.88,1.59,1.59,0,0,1-.3.06,17,17,0,0,1-.73,1.83c-.07.14-.15.28-.23.41a.48.48,0,0,1-.08.11l-.45.35-.9.71c-1.2,1-2.38,2.06-3.7,3.07l2.75-1.9a13.25,13.25,0,0,1,1.39-.91l1.35-.81s-.17.16-.26.23l-.34.29-.69.56c-.47.36-.89.8-1.33,1.2-.87.82-1.8,1.57-2.67,2.4s-1.74,1.7-2.66,2.53-1.74,1.78-2.67,2.66A111,111,0,0,0,59.28,121c-3.91,5.56-6.7,10.88-9,14.28a55.91,55.91,0,0,0-1.28,20,42.18,42.18,0,0,0,2.21,9.19,49.76,49.76,0,0,0,4.25,8.89,67.61,67.61,0,0,0,13.81,16.1A78,78,0,0,0,78.25,196a88.45,88.45,0,0,0,9.81,5.54,7,7,0,0,1,2.73,1.79c0,.31-1,.1-2.42-.54a90.12,90.12,0,0,1-14.33-8,78.83,78.83,0,0,1-12.33-10.48c-7.33-7.74-12.49-16.75-14.41-26a52,52,0,0,0,10,23.08,78.55,78.55,0,0,0,20.84,19.08l3.25,1.87c1.08.63,2.22,1.16,3.33,1.75s2.21,1.11,3.31,1.66,2.19,1.14,3.32,1.63c23,9.74,48.89,9.8,69.7-4a73.58,73.58,0,0,0,21.26-21.68,72.28,72.28,0,0,0,6.52-13.41,68.58,68.58,0,0,0,2.25-7.32c.28-1.26.63-2.52.83-3.81s.49-2.57.64-3.88c2-14.68-.75-29.11-6.84-42.24a84.41,84.41,0,0,0-5.16-9.5c-1-1.5-2-3-2.94-4.32-.49-.66-1-1.32-1.26-1.59l-1.76-1.93a69.15,69.15,0,0,0-17-12.93c-3.47-1.84-6.77-3.54-7-4.14s2.59.07,6.25,1.83a70,70,0,0,1,19.07,13.38c.68.68,1.32,1.4,2,2.09.42.45.43.46.72.81s.54.68.82,1c1.14,1.47,2.27,3.11,3.34,4.77a87,87,0,0,1,5.73,10.53,80.75,80.75,0,0,1,6.65,22.83,72.11,72.11,0,0,1-.72,23.58l-.27,1.46-.36,1.45c-.24,1-.42,2-.73,2.9l-.84,2.88-1,2.8c-.6,1.89-1.5,3.66-2.25,5.5-.4.91-.89,1.77-1.33,2.66s-.87,1.79-1.41,2.63a72.69,72.69,0,0,1-15.1,18.58,71.68,71.68,0,0,1-20.41,12.76c-.93.38-1.89.69-2.83,1.05l-1.42.51c-.48.17-1,.29-1.44.43l-2.9.85-3,.65c-.5.11-1,.23-1.49.32l-1.51.23c-1,.15-2,.34-3,.46-2,.16-4.06.43-6.13.44A80,80,0,0,1,106,214c.07.11.14.22.12.31-.07.36-.79.53-2,.55a89.57,89.57,0,0,0,12,2.2c2,.17,4.05.43,6.08.45,1,0,2,.11,3.05.09l3-.06a73.73,73.73,0,0,0,31.76-10.41,81.1,81.1,0,0,0,25.16-23.95l1.66-2.6c.27-.43.56-.85.81-1.29l.74-1.33,1.48-2.63c.43-.91.86-1.8,1.3-2.7l.65-1.34c.21-.45.38-.91.57-1.37l1.12-2.73c.38-.91.66-1.87,1-2.79l.49-1.4.41-1.42A72.92,72.92,0,0,0,198,150.16a74.43,74.43,0,0,0,.78-11.68,82.7,82.7,0,0,0-7.53-28.95,88,88,0,0,0-7.45-13.15c-.71-1-1.44-2-2.17-3-.35-.44-.77-1-1-1.21l-1.26-1.33A70.65,70.65,0,0,0,174,85.74a7.93,7.93,0,0,1-1.39-1.31c-.17-.26.22-.05.86.44a71.15,71.15,0,0,1,7.65,6.95l.33.36.39.45.79,1c.54.67,1.07,1.37,1.59,2.08,1,1.42,2,2.92,3,4.43a88.17,88.17,0,0,1,9.29,19.73c-.37-2.3-.42-3.76.06-3.73s1.51,1.6,2.56,4.22a90.69,90.69,0,0,0-3.31-9.69c-.8-2-1.33-3.55-1.11-3.6s1.13,1.4,1.9,3.29a83.54,83.54,0,0,1,6,41.1,81.75,81.75,0,0,1-6.05,24.27A77.92,77.92,0,0,1,183.42,197a23,23,0,0,1,4.13-3h0c1.68-2.06,3.09-4.3,4.56-6.48a85.8,85.8,0,0,0,11.3-34.19,84.86,84.86,0,0,0-4-35.89A94.7,94.7,0,0,0,192,100.76,90.92,90.92,0,0,0,187.13,93c-.87-1.23-1.8-2.46-2.72-3.56l-.31-.37-.39-.41-.78-.83c-.53-.55-1-1.13-1.58-1.65a80.35,80.35,0,0,0-31-19,5,5,0,0,1-1.65-.71,3.7,3.7,0,0,1,1.58.34,84.11,84.11,0,0,1,20,9.82A73.17,73.17,0,0,1,179,83.44c.71.6,1.35,1.26,2,1.9l1,1,.95,1,.94,1,.48.5.39.46c.56.67,1.13,1.39,1.67,2.13l0,0c-.3-.52-.27-.68.17-.2A12.88,12.88,0,0,1,187.9,93c.32.61.19.62-.17.2a93.78,93.78,0,0,1,15.49,38,84.4,84.4,0,0,1-3.43,40.51,83.43,83.43,0,0,0,4.56-37.49,92.92,92.92,0,0,0-11.94-36c-1.52-2.34-3.13-4.6-4.87-6.79a10.57,10.57,0,0,1-1.12-1.73c-.07-.22.36.15.85.77s1,1.21,1.44,1.83c-1.37-2-2.57-3.75-3.43-4.93s-1.37-2.06-1.16-2.22,1.23.56,2.54,1.71a31.78,31.78,0,0,1,4.2,5.12,93.52,93.52,0,0,1,15.42,37.8c.28,1.46.48,2.93.71,4.4s.49,3,.64,4.45a91,91,0,0,0-7.19-31.16A96.18,96.18,0,0,0,193,93.27a74,74,0,0,0-4.65-6.59,79.48,79.48,0,0,0-5.56-5.87c-1.37-1.22-2.47-2.36-2.37-2.53s1.32.7,2.72,1.93l2.63,2.42,2.53,2.56a63.88,63.88,0,0,1,4.53,5.7,97,97,0,0,1,7.45,12.28,94.8,94.8,0,0,1,9.14,27.43,86.65,86.65,0,0,1-.07,29.27,84.67,84.67,0,0,1-3.67,14.31c-.72,2.38-1.77,4.63-2.69,6.93-.5,1.14-1.07,2.24-1.61,3.36s-1.08,2.24-1.71,3.31a92.47,92.47,0,0,1-24.41,31.64l2.14-1.51,2.06-1.66A87.48,87.48,0,0,0,210.56,163a92.17,92.17,0,0,0,.28-29.83,102.2,102.2,0,0,0-9.12-28.82,6.71,6.71,0,0,1-.73-1.89c0-.15.44.44.89,1.39a102.62,102.62,0,0,1,9.27,28,89.39,89.39,0,0,1,.18,29.84,90.75,90.75,0,0,1-2.9,12.34c-.32,1-.63,2-.94,3s-.74,2-1.1,2.94-.74,1.95-1.13,2.91-.86,1.9-1.29,2.84a98.39,98.39,0,0,1-13,20.85A90.35,90.35,0,0,0,204.5,186a93.14,93.14,0,0,0,7.44-23,95.47,95.47,0,0,0,1.38-11.91c.15-2,.1-4,.13-6s-.1-4-.3-6a96.23,96.23,0,0,0-4.81-23.33,33.48,33.48,0,0,1-1.09-3.51,2.32,2.32,0,0,1-.4-.68c-1.64-3.63-3.55-7.5-5.71-11.32a12.07,12.07,0,0,1-1-2.12C200,97.8,200.32,98.2,200.82,99ZM93.41,72.85l.19.14-.54-.16L92,71.77S92.7,72.3,93.41,72.85Zm6-7.32h0l.57.66ZM51.48,174A46.69,46.69,0,0,1,45.81,157,50.27,50.27,0,0,1,47,138.88a56,56,0,0,0-.72,8.88c-.11,1.14-.1,2.25-.15,3.39s0,2.25.1,3.35a46.7,46.7,0,0,0,.8,6.59A53.09,53.09,0,0,0,51.48,174ZM99.91,76.2a14,14,0,0,1-2.38-1.92,3,3,0,0,1-1.26.58,30.85,30.85,0,0,1-3.67.82c.34.39,0,.44-.07.55l-.38.27c1.34-.14,2.69-.25,4-.32A20.08,20.08,0,0,1,99.91,76.2ZM108,72.42a1,1,0,0,0,.14.16l-.1.77S108,73,108,72.42Zm.14-1.29-.2-.08C108,70.77,108,70.86,108.13,71.13Zm-1.85-.64a2.45,2.45,0,0,0,.31.35Zm-5.91-21v3.82l.11-3.7Z"/><path d="M126.57,24.87l.26,0c0,.16-.16.27-.35.35,2.45,0,3.93-2.31,4.33-4.49a1.1,1.1,0,0,0-1.18-1.85,1.72,1.72,0,0,1-.44.06,8.48,8.48,0,0,0-3.68.26h.86a2.85,2.85,0,0,0-1,.4l.31.18a2.53,2.53,0,1,0,.26,5.06Z"/><path d="M130.42,26.32c-.79.11-1.58.18-2.37.24l-.23-.08.61.71,0-.06a4.52,4.52,0,0,1,1.24-2.62l.19-.31a.82.82,0,0,0-.07-.58.8.8,0,0,0-1.09-.34l-.45.24c-1.3.34-2.85,1.51-2.44,3.17.1.39.49.67.78,1a1.11,1.11,0,1,0,1.85-1.24l.33-.09-.06.32c-.19-.53.18-1,.34-1.45l.4-.5-1.16-.92-.14.35.15.08a9.72,9.72,0,0,1-.86,2l-.35.94a.67.67,0,0,0,.6.7l.49,0-.25,0c.9-.28,1.74-.7,2.64-1a.28.28,0,0,0,.21-.33A.27.27,0,0,0,130.42,26.32Z"/><path d="M128.09,28.36a.69.69,0,0,0-.5.14v.14l.37,0C128.22,28.69,128.22,28.52,128.09,28.36Z"/><path d="M127.59,28.64h-.16l.15.06v-.05Z"/><path d="M149.46,8.35a36.73,36.73,0,0,0,3.7-2s0-.1,0-.17S153,6,153,6.06a41.26,41.26,0,0,1-3.7,2s0,.1,0,.17S149.42,8.36,149.46,8.35Z"/><path d="M163.08,9a.27.27,0,0,0,.14.17c.06,0,.1,0,.09-.07a.26.26,0,0,0-.14-.17C163.1,8.88,163.07,8.92,163.08,9Z"/><path d="M167.12,14.67a1.89,1.89,0,0,0-.12.74c0,.05,0,.06-.07.05a.48.48,0,0,1,.13.32,15.23,15.23,0,0,1-2,4.47,1.27,1.27,0,0,1,.15.31c.15.34.1.61-.11.69l-.18,0c-.63.23-1.24.49-1.88.7a.79.79,0,0,1-.17.52,12.93,12.93,0,0,1-.59,2,.83.83,0,0,1,.26.24c.18.25.22.51.09.59l-.17.16.67-.22h.1a4.18,4.18,0,0,0,.57-.47,15,15,0,0,0,3.23-6c0-.06,0-.08.12,0a.22.22,0,0,1,.11.18c-.06,2,.31,4.3-.21,6a31.2,31.2,0,0,1-2.25,5.56c-1.47,1.13-2.36,2.77-3.51,4.35a18.77,18.77,0,0,1-1.21,1.52,1.65,1.65,0,0,1-.2.21l-.33.31-.68.61q-.68.62-1.35,1.2c-1.82,1.59-3.69,3.09-5.59,4.61a3.32,3.32,0,0,1-4.7,0,3.37,3.37,0,0,1-.94-2.89l-.37.26-.69.26a2.9,2.9,0,0,1-2.05,0l-.86-.3c-1.41-.75-3-1.06-4.35-1.93l-.25-.52L137.5,38a2.89,2.89,0,0,1-1.58-.73l-.39-.58a6.67,6.67,0,0,1-.87-2.15,2.56,2.56,0,0,1-.43-.75,3.46,3.46,0,0,1-1.55-1.67.5.5,0,0,1-.37-.58.48.48,0,0,1,.13-.23h0l-.47-.19-.28.09-.82.33a2.21,2.21,0,0,1-.79-.12c-1.06-.75-1.06-.75-1.34-1.21a.9.9,0,0,1,0-.16l-.48.05a1.26,1.26,0,0,1-.24-.07c-.18-.22-.18-.22-.29-.27a1.27,1.27,0,0,1-.14-.17c-.06-.35-.06-.35-.11-.43a.94.94,0,0,1,0-.18c.09-.2.13-.27.15-.31l.79.33-.08-.26.28.21-.23-.21.28,0-.36-.07a2.17,2.17,0,0,0,.63-.35.87.87,0,0,0,.3-.29l-.12-.12,1-.46.22.09a.23.23,0,0,1,.14-.24l.25-.13,0-.07v0c0-.1.06-.18.09-.26l0-.06h0c.07-.18.16-.44.41-1.13a3.16,3.16,0,0,1,.46-.16l-.19,0c-.13,0-.24-.29-.29-.29a17.44,17.44,0,0,0-3.59,1.35.43.43,0,0,1-.59,0,.42.42,0,0,1,0-.59,9,9,0,0,1,6.43-5.1l1.86-1-.17-.05.56-.16.05,0-.63-.15-.31,0a26.82,26.82,0,0,1-4.53,1.63,22.07,22.07,0,0,1-2.51.55.37.37,0,0,1-.51-.13.37.37,0,0,1,.14-.5c1.84-1.87,4.4-3.44,7.1-3.37a2.14,2.14,0,0,1,1.32-.44h0l-.49-.15c.35-.14.71,0,1.06-.06l-.45-.38c1.61-.8,3-2.09,4.81-2.44l.18-.07a8.61,8.61,0,0,1,.94-1.79l-.46.12a1.47,1.47,0,0,1,.52-.89,3.11,3.11,0,0,1,3.36.48A49.84,49.84,0,0,0,149,8.4c.06-.08.19,0,.31.09s.16.3.11.37a16.35,16.35,0,0,1-2.26,3.23,15.53,15.53,0,0,0,2.91-1.46l.29-.31a.68.68,0,0,1,.38-.18,13.17,13.17,0,0,0,3-2.76,28.87,28.87,0,0,0,1.94-3.13A12.4,12.4,0,0,1,158.62.08c.15-.18.5,0,.79.27s.4.74.26.92c-1.92,3.18-3.61,6.55-6.6,8.6l-1,.64.11.14a2,2,0,0,1,.32.56,9.5,9.5,0,0,1,1.2-.58,6.59,6.59,0,0,1,2.51-2.88A9.25,9.25,0,0,1,159,7.12c.66-.85,1.28-1.76,2-2.59,0,0,.08,0,.14,0a.19.19,0,0,1,.08.19,13.48,13.48,0,0,1-1,2.4,2.26,2.26,0,0,1,.75.68,2.17,2.17,0,0,1,.43.94l.42-.29c.09-.05.25,0,.37.18s.16.34.08.4l-1.7,1.21c-.53.68-1.07,1.34-1.63,2a3.16,3.16,0,0,1,.77.61h0l.28-.26A14,14,0,0,1,164.75,7s.12,0,.17.07.08.16,0,.18a10.79,10.79,0,0,0-1.73,1.36h0a.27.27,0,0,1,.14.17c0,.07,0,.1-.09.08a.28.28,0,0,1-.14-.18A15.37,15.37,0,0,0,160.62,12a17.5,17.5,0,0,1,3-2.25c0-.17.07-.35.11-.52s.09,0,.15,0a.21.21,0,0,1,.07.19l0,.13c.2-.11.58.08.87.46s.35.81.15.94c-.46.47-.94.91-1.44,1.33l-.11.19,0,.31c.91-.47,1.85-.9,2.79-1.32.07-.06.21,0,.31.14s.14.28.07.34a28.22,28.22,0,0,1-3.34,4.41c0,.94,0,1.89-.07,2.83a1.37,1.37,0,0,0,.2-.13c1.54-1.19,1.58-3.85,2.81-5.34,0-.05.1,0,.16,0s.08.15,0,.18a17.2,17.2,0,0,0-1.2,2.82,14.65,14.65,0,0,0-.9,2.4c1-1,1.55-2.6,2.43-3.79,0-.07.1-.07.19,0a.19.19,0,0,1,0-.11,2.32,2.32,0,0,1,.12-.78c0-.05.06-.05.14,0A.23.23,0,0,1,167.12,14.67Zm-30.49,11-.12,0h.3l.69.33Zm-1.87,4.64h0l-.4-.18Zm13.72-18.2a4.59,4.59,0,0,1-2.15.9l.36-.42A16.77,16.77,0,0,1,148.48,12.14ZM132.75,25.42a5.91,5.91,0,0,1,1.54.39,2.21,2.21,0,0,1,.58-.56,18.38,18.38,0,0,1,1.85-1.1c-.22-.14-.07-.22,0-.29l.17-.21c-.69.32-1.4.63-2.13.94A16.4,16.4,0,0,1,132.75,25.42Zm-3.55,3.93-.1,0-.12-.38Zm.2.61.12,0C129.57,30.07,129.51,30.05,129.4,30Zm1.06-.24a.7.7,0,0,0-.23-.06Zm7.06,8-.8-1.66.73,1.63Z"/><path d="M156.9,254.59l.42.37a1.33,1.33,0,0,1-1.1,0,11.17,11.17,0,0,0,7.14,1.76,15.76,15.76,0,0,0,6.47-1.75c1.3.25,2.46-.29,2.59-1.21s-.85-1.89-2.19-2.18a5.25,5.25,0,0,1-.85-.48,26.44,26.44,0,0,0-6.93-4.42c.52.37,1.05.73,1.56,1.11a8.84,8.84,0,0,0-2.37-.86l.31.6c-2.66-1.69-6.3-1.81-8-.06s-.87,4.68,1.78,6.35Z"/><path d="M161.87,260.91c-1.52-.75-3-1.56-4.49-2.42l-.3-.38.17,1.61,0-.1c1.29-1.24,3.52-1.6,5.58-1.81l.74-.17a1.1,1.1,0,0,0,.64-.75c.15-.71-.51-1.49-1.49-1.69l-1.13-.24c-2.76-1.13-7.14-1.71-8.5.92-.31.61,0,1.46.17,2.21a2.53,2.53,0,0,0,2.39,2.27c1.35.15,2.47-.57,2.52-1.62l.7.28-.53.33c.34-.88,1.57-1,2.47-1.41l1.37-.14-.86-2.47-.71.26a2.13,2.13,0,0,1,.16.27,24.17,24.17,0,0,1-4.1,1.41l-1.84.75a1.06,1.06,0,0,0,.19,1.64l.86.59-.39-.34c1.95.69,4,1.15,5.87,1.81a.67.67,0,0,0,.81-.18C162.32,261.31,162.19,261,161.87,260.91Z"/><path d="M155.16,260.84a1.76,1.76,0,0,0-1.07-.43,1.85,1.85,0,0,1-.18.19l.64.48C155,261.41,155.21,261.19,155.16,260.84Z"/><path d="M153.91,260.6l-.26-.2c.06.09.13.17.18.25h0Z"/><path d="M267.13,252.52c-1-.54-2-1.07-2.89-1.62-.46-.27-1-.54-1.38-.82l-.89-.83-.44-.41-.64-.43-1.29-.84c-.33-.28-.56-.57-.85-.85l-.41-.42a3.9,3.9,0,0,0-.56-.44l-1.19-.89a6.33,6.33,0,0,1-.8-.87,14.49,14.49,0,0,0-2-1.84c-.53-.63-.95-1.23-1.4-1.88-.23-.32-.4-.63-.69-1l-1-1a2.76,2.76,0,0,1-.23-.27l-.15-.26-.29-.53c-.19-.34-.38-.7-.56-1.08a7.36,7.36,0,0,0-.62-1.15,12.21,12.21,0,0,1-.79-1.24l-.42-1.27-.36-1.35-.29-1.45c-.15-.55-.38-1.1-.48-1.65s-.05-1.1,0-1.7a11.08,11.08,0,0,0,0-1.84c0-.33,0-.66,0-1l.26-.93a18.51,18.51,0,0,1,.63-1.86,17.78,17.78,0,0,0,.52-1.9,1.22,1.22,0,0,1,.2-.45l.25-.42.51-.83c.32-.56.54-1.13.82-1.7.07-.14.12-.29.2-.42l.32-.35.64-.72c.93-.91,1.38-2,2.27-2.85a36.08,36.08,0,0,0,2.83-2.41l1.3-1.23c.45-.4.92-.77,1.38-1.16s.93-.77,1.41-1.14l1.55-1a69.92,69.92,0,0,1,6.22-3.62l3.06-1.53,1.46-.74.73-.37.36-.18a3.81,3.81,0,0,1,.47-.07l1.9-.22.95-.11.48-.05.35-.16,1.42-.65.7-.32c.13,0,.21-.13.38-.14h.49l2,0a5.06,5.06,0,0,0,1.87-.17l1.64-.48.81-.25c.12-.06.35,0,.52,0l.56,0,2.25.17,1.12.08,1-.14,2.07-.27c.36,0,.66-.1,1.07-.11l1.18-.06a48.73,48.73,0,0,1,4.9-.09l2.62.07c.87.05,1.77-.07,2.64-.1a13.15,13.15,0,0,0,3.49-.48c0-.19-1.52-.27-3.28-.15-.89,0-1.78.12-2.67.14l-2.65-.07c-.87,0-1.81-.07-2.62,0l-2.38.12-1.19.06a9,9,0,0,0-1.12.1l-2.09.28a15.46,15.46,0,0,1-4.4,0l-1.13-.08a.77.77,0,0,0-.47.06l-.41.12-1.63.51-.82.25c-.32,0-.67,0-1,0l-2,0c-.33,0-.69,0-1,0l-.7.34-1.4.67a3.91,3.91,0,0,1-.75.3l-.95.11-1.9.23a3.68,3.68,0,0,0-.92.16l-.72.38-1.46.75-3,1.57c-1,.49-2.07,1.13-3.1,1.71s-2.08,1.23-3.11,1.91a21.92,21.92,0,0,0-3,2.13L257.15,207c-.45.4-.86.83-1.3,1.24s-.82.84-1.31,1.24l-1.48,1.19-.36.3-.19.15-.13.18-.52.74a14.18,14.18,0,0,1-1.09,1.46l-1.27,1.43-.77,1.71c-.29.57-.66,1.12-1,1.68a1.08,1.08,0,0,0-.18.46l-.12.48-.24,1a12.69,12.69,0,0,0-1,3.76l.05,1a8.72,8.72,0,0,1-.05.9,14.47,14.47,0,0,0,0,1.72c.53,2.34.82,4.16,1.39,5.82a3.73,3.73,0,0,0,.67,1.25l.41.62.27.56c.33.76.71,1.45,1.08,2.16a29.19,29.19,0,0,1,3,3.94c.07.16.29.31.47.47l.54.47a6.61,6.61,0,0,1,1,.92l.72.89c.08.14.36.29.53.44l.59.45a9.9,9.9,0,0,1,1.86,1.73c.61.56,1.75,1.14,2.36,1.7.87,1.12,3,2.24,5,3.31a12.64,12.64,0,0,0,2.53,1.11C268.76,253.45,268.13,253.05,267.13,252.52Z"/><path d="M286.48,80.77c-.18.9,0,.9.36,0,.17-.36.36-.89.55-1.42s.38-1.08.5-1.51c.19-.73,0-.77-.35-.06a12.49,12.49,0,0,0-.65,1.5C286.71,79.87,286.56,80.4,286.48,80.77Z"/><path d="M295.79,90.25a35.25,35.25,0,0,0,1.39,11.59,10.67,10.67,0,0,1,.34,2c.18-.29.59.47,1.07,1.93,2.38,7.21,6.17,14.37,10.61,21.64.54.91,1.12,1.82,1.69,2.74l1.74,2.76,1.79,2.78.91,1.4.88,1.34c1.12,1.68,2.38,3.48,3.66,5.3l3.93,5.57a272.61,272.61,0,0,1,15.66,24.36,98.18,98.18,0,0,1,6.76,14.69,51,51,0,0,1,2.4,9.31,31.51,31.51,0,0,1-.43,12.79,10.94,10.94,0,0,1-.62,3.8,15.85,15.85,0,0,1-1.05,2.62,18.13,18.13,0,0,1-1.74,3A28.16,28.16,0,0,1,342.2,223a39.49,39.49,0,0,1-3.31,2.84,40.81,40.81,0,0,1-3.69,2.19l-.25.13-.17.08-.32.14-.64.27-1.33.54c-.9.36-1.82.71-2.76,1s-1.73.42-2.61.63l-1.33.28-.66.13-.29.06h-.13l-1.09.06a23.56,23.56,0,0,1-6.65-.6c-2.23-.47-4.46-1.09-6.75-1.51a24.41,24.41,0,0,0-7-.35,27.1,27.1,0,0,0-6.9,1.89c-.28.3-.59.57-.9.9s-.64.63-1,1a13.49,13.49,0,0,0-2,2.46,5.14,5.14,0,0,0-.23,2.9,6.87,6.87,0,0,0,1.46,2.82,18.93,18.93,0,0,0,5,4,50.4,50.4,0,0,0,11.14,4.61c-.19-.13-.14-.21.17-.21a33.47,33.47,0,0,1,4.35.94l2.49.6a43,43,0,0,1-6.33-2,5.74,5.74,0,0,1-.73-.34,25.48,25.48,0,0,1-6.74-3.87,6.81,6.81,0,0,1-2.49-3.61,4.28,4.28,0,0,1,1.47-3.83,14.55,14.55,0,0,1,3.37-2.37,18.72,18.72,0,0,1,1.87-.88c.32-.13.65-.21,1-.32a6.54,6.54,0,0,1,1-.26c2.69-.61,5.45-.2,8.21.19a24.1,24.1,0,0,0,4.28.32,13.88,13.88,0,0,0,2.22-.2l1.12-.25.28-.06.8-.22,1.64-.44,1.64-.45a8.41,8.41,0,0,0,.84-.24l.91-.35c1.2-.46,2.4-.95,3.58-1.45l.89-.38c.44-.22.94-.49,1.39-.74.93-.51,1.85-1.06,2.74-1.63s1.85-1.41,2.74-2.17c.44-.38.88-.77,1.3-1.17s.83-.89,1.23-1.35a34,34,0,0,0,2.25-2.89c.63-1,1.23-2.05,1.77-3.11a21,21,0,0,0,1.31-3.12,22.12,22.12,0,0,0,.91-3.06c.21-1,.39-1.93.54-2.89a12.35,12.35,0,0,0,.15-1.35l.08-1.3.06-1.29,0-.64,0-.57c0-.76-.07-1.53-.13-2.28,0-.37,0-.78-.09-1.12l-.14-1-.31-2c-.24-1.28-.53-2.44-.81-3.66s-.65-2.21-1-3.3l-1.08-3.05a98.48,98.48,0,0,0-5-10.63,187.68,187.68,0,0,0-11.09-17.84c-3.8-5.53-7.73-10.82-11.39-15.84a10.5,10.5,0,0,1-1.43-2.35c-.12-.46.08-.5.62.2,4.8,6,10,12.26,15,18.77,2.51,3.27,5,6.65,7.42,10.24a113.58,113.58,0,0,1,7.07,11.8,70,70,0,0,1,3.24,7.18c.26.62.5,1.37.74,2.06s.48,1.38.7,2.16a49.72,49.72,0,0,1,1.18,4.93l.24,1.36c.07.45.15.88.2,1.43.1,1,.18,2.07.25,3.11,0,.49,0,1.13,0,1.72l-.06,1.81c0,.62-.05,1.16-.14,1.85s-.19,1.37-.31,2.06-.25,1.37-.39,2.06-.4,1.49-.62,2.23-.51,1.51-.79,2.26c-.14.37-.28.74-.44,1.12L353.1,219a34.71,34.71,0,0,1-2.66,4.54A39.2,39.2,0,0,1,347,227.7a47.76,47.76,0,0,1-4,3.39,41.44,41.44,0,0,1-4,2.52l-1,.56-.39.2-.31.14-1.24.55-2.51,1.08a35.52,35.52,0,0,1-4.76,1.6l-2.16.63-.49.19a10,10,0,0,1-3.72.64,19.32,19.32,0,0,0-3.81.18,5.68,5.68,0,0,0-3,1.65,4.48,4.48,0,0,0-1.56,3,2.93,2.93,0,0,0,.88,2,8.14,8.14,0,0,0,1.85,1.42,23.61,23.61,0,0,0,7.42,2.56q1.62.28,2.91.63c.43.11.83.23,1.2.35l.28.09.13,0,.9.53c1.22.72,2.35,1.35,3.73,2.26a85.68,85.68,0,0,1,15.57,12.64,47.22,47.22,0,0,1,3.48,4.12l.42.55a3.58,3.58,0,0,1,.24.34l.25.41,1,1.62a26.18,26.18,0,0,1,1.9,3.41,19.05,19.05,0,0,1,1.21,14.4c-.21.56-.41,1.13-.67,1.67s-.59,1.05-.89,1.57a16,16,0,0,1-2.32,2.74,8,8,0,0,1-1.35,1.18l-1.46,1.06c-.53.3-1.07.58-1.61.86l-.83.4-.87.32c-.59.21-1.19.4-1.78.59a18.78,18.78,0,0,1-1.87.4c-.63.12-1.27.23-1.9.31s-1.3.12-2,.15-1.31.05-2,.05l-1.62-.05-1.62-.06h-.4l-.29,0-.53-.05-17-1.39c-11.33-.91-22.66-1.86-34.12-2.53-5.74-.36-11.48-.71-17.3-.94s-11.65-.5-17.56-.55a420.3,420.3,0,0,0-46.83,1.45l-2.85.25-1.43.14-.28.05-.91.15-1.79.3-3.56.57c-2.37.35-4.73.74-7.05,1.18s-4.65.83-7,1.28c-3.47,1.06-6.6-.22-7.11-3.08a5.54,5.54,0,0,1,1.92-4.88l-.86.09-1.37-.14a4.67,4.67,0,0,1-3.14-1.66l-1-1.12c-1.34-2.18-3.49-4-4.68-6.43l.2-1-.27-.26a4.43,4.43,0,0,1-1.73-2.51l0-1.21a10.25,10.25,0,0,1,1.11-3.93,3.48,3.48,0,0,1,.17-1.47,5,5,0,0,1-.58-3.89.71.71,0,0,1,.07-1.16,1.26,1.26,0,0,1,.51-.19h0a9.06,9.06,0,0,0-.56-.75c-.37-.1-.58-.18-.58-.18-1-.22-1-.22-1.83-.44a4.72,4.72,0,0,1-1.23-1c-.94-2.2-.94-2.21-.87-3.14a2.15,2.15,0,0,1,.14-.26c-.67-.35-.72-.37-.9-.48a2.53,2.53,0,0,1-.34-.38c-.06-.51-.06-.51-.18-.7a1.81,1.81,0,0,1-.05-.39c.33-.55.33-.55.33-.71a.93.93,0,0,1,.19-.26l.65-.23c1,1.37,1,1.37,1,1.37l.17-.44.25.62-.15-.56.48.36-.56-.51a5.31,5.31,0,0,0,1.56.27,2.08,2.08,0,0,0,.89,0,1.14,1.14,0,0,1,0-.29c1.18.27,1.18.27,2.34.56a4,4,0,0,1,.28.36.56.56,0,0,1,.55-.16l.6.12.12-.06v0l.5-.22.1-.06h0c.72-.32,1.44-.64,2.16-.93a8.37,8.37,0,0,1,1,.33l-.3-.26c-.19-.18,0-.61-.13-.66a51.63,51.63,0,0,0-8.08-2.5,1.06,1.06,0,0,1-1.06-.7c-.08-.4.25-.72.76-.73a18.77,18.77,0,0,1,8.93-.91,34.38,34.38,0,0,1,9,2.53c1.48.35,2.94.78,4.41,1.14l-.21-.24,1.14.47.12,0-.85-.86-.6-.31a86.25,86.25,0,0,1-9.94-3.54c-1.82-.66-3.39-1.66-5.15-2.48-.45-.09-.77-.42-.73-.76s.46-.5.9-.41a41,41,0,0,1,8.93,1.4,23.58,23.58,0,0,1,7.9,3.64,6.79,6.79,0,0,1,2.82,1.07l0,0-.61-.7c.76.26,1.16.82,1.85,1.13-.08-.28-.16-.59-.24-.86,1.89.51,3.84.88,5.74,1.36a27,27,0,0,1,5.45,1.8l.39.13c.76-.15,1.52-.29,2.31-.37l.6,0h.19l.94.14,1.91.29c2.57.38,5.2.8,7.93,1.26L204,260.34l-2.75-.54-2.59-.53,5.8.82,6,.91c4,.72,8.07,1.42,12.27,2.24,5.65,1.23,11.49,2.33,17.16,3.69s11.27,2.57,16.51,3.85c10.47,2.5,19.55,4.88,25.35,6.56,10.76,2.06,21.52,4.07,32.26,5.92,5.38.9,10.75,1.83,16.12,2.62l4,.61,2,.29c.42,0,.83.06,1.25.12a1.87,1.87,0,0,0,.45,0h.36c.25,0,.49,0,.73-.06a4.46,4.46,0,0,0,1.39-.41,2.41,2.41,0,0,0,1.41-2.33,5.26,5.26,0,0,0-1-2.68l-.24-.33a2.37,2.37,0,0,0-.35-.43L339,279.47l-1.21-1.17c-.4-.39-.86-.76-1.3-1.13a41,41,0,0,0-5.87-4.08,56.56,56.56,0,0,0-6.59-3.35,11.61,11.61,0,0,0-1.87-.69l-2-.64-6.54-2.1c-.29-.09-.56-.19-.88-.27l-1.11-.17-2.21-.35-4.42-.69c-1.42-.2-3.13-.56-4.72-.86l-4.84-.92-2.42-.46-2.13-.62-4.26-1.23-2.13-.62-1.06-.31c-.36-.11-.61-.21-.92-.31l-3.52-1.24-2.76-1-1.21-.46a5.28,5.28,0,0,1-.7-.38c-.8-.47-1.29-.82-1.31-1s.62.06,1.45.38c.41.16.9.36,1.44.6a10.43,10.43,0,0,0,1.13.4l1.38.48,5,1.71,1.26.42,1.49.43,3,.86,3,.85a24.77,24.77,0,0,0,3.11.78l6.75,1.3c2.32.47,4.3.76,6.36,1.09l3.07.5,1.54.25a2.75,2.75,0,0,1,.67.16l.61.2,8,2.59,1.41.47,1.23.56c.82.38,1.66.73,2.45,1.15s1.6.82,2.38,1.26l2.3,1.34a36.77,36.77,0,0,1,7.91,6.43l.78.87.4.55a8.64,8.64,0,0,1,.65,1.06,5.09,5.09,0,0,1,.62,2.36,2.81,2.81,0,0,1-1.07,2.13,4.86,4.86,0,0,1-2.3.87,8.65,8.65,0,0,1-1.25.08c-.12,0-.17,0-.35,0l-.48-.06-1-.07-5.87-.85c-3.91-.55-7.82-1.17-11.73-1.8,3.26.56,6.53,1.14,9.8,1.64l4.91.78,2.46.37c.46.08.67.08,1,.11l.83.1.34,0h.84a8.52,8.52,0,0,0,1.12-.12,4.5,4.5,0,0,0,2.07-.85,3,3,0,0,0,1.12-1.9,4.48,4.48,0,0,0-.28-2.23,8.19,8.19,0,0,0-1.09-2.06c-.13-.18-.21-.33-.38-.54l-.68-.78a19.19,19.19,0,0,0-1.46-1.55,42.79,42.79,0,0,0-7-5.51,60.86,60.86,0,0,0-8.29-4.37c-1.71-.61-2.78-1-5.82-2.05l-1.95-.67-1-.33a6.19,6.19,0,0,0-1.06-.29l-4.87-.9-2.5-.45c-.85-.16-1.8-.36-2.69-.54l-5.45-1.12-1.36-.28c-.45-.1-.83-.24-1.24-.35l-2.43-.71-4.88-1.43c-1.48-.47-2.75-.93-4.11-1.4l-4-1.4-5.28-2.53c-2.11-.93-4.16-1.88-6.07-2.88a11.56,11.56,0,0,1-2.34-1.51c-.69-.51-1.79-1-2.54-1.55l-.95-.79c-.17-.13-.3-.26-.5-.39l-.63-.41-1.24-.83-.89-.82-.44-.41-.58-.44-1.16-.88c-.55-.6-1.11-1.16-1.63-1.78a11.39,11.39,0,0,0-.82-.93l-1-1-.25-.25-.18-.25-.36-.51c-.24-.33-.47-.67-.69-1s-.41-.69-.72-1.09l-.89-1.19-.55-1.21c-.18-.41-.33-.86-.49-1.29s-.28-.92-.42-1.38-.36-1-.53-1.54a2.44,2.44,0,0,1-.13-.8l-.07-.8v-1.71l-.06-.93,0-.47A1.8,1.8,0,0,1,249,224a11.41,11.41,0,0,1,.5-1.77c.21-.59.41-1.18.56-1.78.08-.3.16-.6.25-.9l.48-.79.49-.79.4-.79a4.83,4.83,0,0,1,.95-1.5c.4-.44.82-.89,1.2-1.34l1-1.35a5.67,5.67,0,0,1,1.29-1.19c.46-.37.95-.74,1.4-1.12.86-.74,1.66-1.55,2.57-2.25l1.36-1.06a10.39,10.39,0,0,1,1.42-1l3-1.84,3-1.6c1-.53,2-.94,3-1.42l2.91-1.33.72-.32a6.15,6.15,0,0,1,.89-.13l1.82-.19.91-.1a4.8,4.8,0,0,0,.73-.25l1.4-.56.7-.28c.28,0,.62,0,.93,0h1.9c.32,0,.65,0,.95,0l.8-.2,1.61-.42.4-.1a.88.88,0,0,1,.45-.06l1.07.08,2.14.15a7.6,7.6,0,0,0,2-.13l2-.25c.32-.05.7-.07,1.08-.09l1.14-.06,2.27-.12c1.38,0,2.85,0,4.26,0a17.26,17.26,0,0,0,2.15-.09l2.14-.17c1.41-.16,2.93-.1,4.4-.12H316c.24,0,.21-.06.29-.09l.18-.13.36-.25,1.32-1a7.79,7.79,0,0,1,.92-.53l.11-.06.06,0h0c1.36,2.89-3-6.48,3,6.48v0l0,.1a6,6,0,0,0,.33.74c.13.24.27.49.43.73a5.79,5.79,0,0,1,.4.58,3.51,3.51,0,0,0,.57.7l.09.08h0v0l0,0,0,0,0,0-.06-.06a2.29,2.29,0,0,0-.29-.18,1.45,1.45,0,0,0-.26-.11l-.06,0-.15-.08-.32-.15a6.21,6.21,0,0,0-.64-.23l-.31-.08a3.15,3.15,0,0,1-.38-.1,10,10,0,0,0-2-.44l-.5-.05-.69-.11c-.47-.07-.93-.12-1.39-.16-1-.07-1.7,0-3-.07h-1s-.06-.18-.07-.25a31.23,31.23,0,0,0-1.72-5.34c-.95-2.35-2.21-5-3.62-7.67s-3-5.5-4.66-8.36C299.81,175,296,169.09,292,162.53c-1.44-2.34-2.89-4.71-4.43-7.41l-.58-1-.49-.9-1-1.79-1.95-3.63c-2.59-4.91-5.14-10.07-7.41-15.6a106,106,0,0,1-5.69-17.83A74.76,74.76,0,0,1,268.72,94c.17-1.79.34-3.57.57-5.34s.63-3.55,1-5.31a62.32,62.32,0,0,1,3.33-10.19A70.13,70.13,0,0,1,284.2,56a82.81,82.81,0,0,1,13.62-12.93,111.54,111.54,0,0,1,14.86-9.42C318,30.77,323.1,28.9,323.94,29S321.22,31,316,33.88c-2.55,1.4-5.1,2.89-7.62,4.52s-5,3.36-7.5,5.26a85.81,85.81,0,0,0-7.23,6.18A83.47,83.47,0,0,0,287,57.05,68,68,0,0,0,276.39,74.8a59.79,59.79,0,0,0-3.08,10.54c-.3,1.8-.69,3.63-.82,5.44l-.24,2.73c-.09.92-.06,1.81-.08,2.71a75,75,0,0,0,2.67,20.58,113.53,113.53,0,0,0,6.51,17.86c2.51,5.53,5.22,10.72,7.93,15.66l1,1.86,1.17,2,2.26,3.81c1.48,2.45,2.94,4.8,4.38,7.11,2.85,4.61,5.64,9.1,8.2,13.55s4.95,8.84,6.88,13a59,59,0,0,1,2.39,5.94,21.23,21.23,0,0,1,1.1,4.3c0,.23,0,.28,0,.43s0,0,0,0H317a16.3,16.3,0,0,1,2.16.26,13,13,0,0,1,1.59.22c.26,0,.52.12.79.2l.39.12c.14.05.18,0,.27.07a4.87,4.87,0,0,1,1,.32c.15.06.35.17.47.23l.2.07a2.7,2.7,0,0,1,.43.27c.05,0,0,0,0,0l0,0,0,0,0,0s0,0,0,0L324,204a3,3,0,0,1-.44-.54c-.08-.11-.07-.14-.2-.31l-.38-.54a7.18,7.18,0,0,1-.59-1.13l-.1-.28c-3.29-7-.93-2-1.67-3.52l0,0-.06,0-.23.1-.45.21c-.31.15-.58.3-.91.49l-1.23.72-.62.36-.15.09a1.68,1.68,0,0,1-.35,0h-.79l-3.15,0c-2.08,0-4.07.3-6.1.3s-4.09-.12-5.86,0l-1.38,0c-.46,0-.93,0-1.33.06l-2.48.19a12,12,0,0,1-2.59-.11l-1.32-.12-.67-.06a2.28,2.28,0,0,0-.54.07,15.07,15.07,0,0,1-4.38.44l-1.2,0a2.55,2.55,0,0,0-1.1.09l-1.87.56a8.6,8.6,0,0,1-2.18.31l-1.17.09-.58,0-.3,0-.24.09c-1.29.5-2.53.92-3.89,1.49l-2,.81c-.67.28-1.34.63-2,.94s-1.35.61-2,1l-2,1.14a30.6,30.6,0,0,0-3.78,2.51c-1.22.92-2.24,1.91-3.56,2.85s-2.14,2.12-3.24,3.25a7,7,0,0,0-1.47,1.84l-.57,1-.64,1a6.1,6.1,0,0,0-.79,1.94c-.2.67-.47,1.33-.66,2-.51,1.3-.18,2.82-.23,4a14,14,0,0,0,.19,1.85c.21.57.48,1.22.64,1.74a18.2,18.2,0,0,0,1.22,3,16.12,16.12,0,0,0,1.82,2.64,26.18,26.18,0,0,0,1.77,2.31l1.21,1.11c.38.36.66.68,1,1s.66.66,1,1a7.45,7.45,0,0,0,1.12,1c0-.06,0-.11.17-.1a5,5,0,0,1,1.17.41c.27.12.57.27.9.44s.7.36,1,.55a26.19,26.19,0,0,1-2.81-2.15c-.4-.36-.8-.73-1.18-1.11s-.75-.76-1.25-1.18a14,14,0,0,1-2.33-2.55c-.35-.45-.65-.88-1.08-1.39l-.61-.75a6.16,6.16,0,0,1-.46-.76,19.28,19.28,0,0,1-1.48-3.35l-.37-1a3.35,3.35,0,0,1-.29-1l-.13-1,0-1.08-.05-1.14a3.4,3.4,0,0,1,.06-1.15l.27-1.13.39-1.1a20.24,20.24,0,0,1,.8-2.18c.41-.65.87-1.31,1.24-1.95l.38-.67a2.37,2.37,0,0,1,.43-.65l1.07-1.16c.72-.75,1.26-1.56,2-2.25s1.69-1.28,2.44-1.91,1.5-1.32,2.34-1.88l1.22-.89a9.52,9.52,0,0,1,1.26-.84l2.66-1.54c.88-.52,1.8-.88,2.69-1.34.46-.21.91-.44,1.36-.64l1.35-.54c.89-.36,1.81-.74,2.67-1.05l1.3-.48a3.61,3.61,0,0,1,1.41-.35c1-.11,2.14-.15,3.11-.3l2.55-.75c1,0,2.16,0,3.24,0h.41l.36-.06.71-.12,1.42-.25a3.31,3.31,0,0,1,.74-.1l.9.08,1.81.15.9.08a8.12,8.12,0,0,0,.86,0l1.71-.14c1.09-.11,2.41-.12,3.67-.16.65,0,1.25,0,1.93,0l2.09,0,2.09,0,2.11-.14c1.4-.1,2.81-.21,4.29-.2l2.2,0h1l.07,0,.45-.25,1.76-1a14.36,14.36,0,0,1,1.37-.66l.17-.07.09,0c2.61,5.6.73,1.56,1.31,2.82v0l0,.05,0,.1a7.37,7.37,0,0,0,.38.81c.27.53.79,1.16.84,1.3a3.52,3.52,0,0,0,.31.39c.1.11.32.3.26.26a.3.3,0,0,0,.1.09,2.12,2.12,0,0,0-.61-.34,1.67,1.67,0,0,1-.28-.13l-.35-.16a5.4,5.4,0,0,0-.71-.24l-.36-.08-.57-.18a11.63,11.63,0,0,0-1.14-.25c-.19,0-.38-.06-.56-.07l-.28,0h-.14l-.2,0-.79-.13-.63-.07c0,.09,0-.24,0-.46s-.05-.39-.06-.59,0-.19,0-.32l-.07-.39-.13-.81-.22-.93-.1-.47-.15-.52-.29-1-.72-2.22a129.42,129.42,0,0,0-5.69-13.27c-2.21-4.5-4.57-9-7-13.57s-4.93-9.1-7.47-14l-1-1.88-1-1.95-1.71-3.62c-1.13-2.44-2.27-4.92-3.37-7.45-1.56-3.14-3.12-6.32-4.52-9.67-.73-1.63-1.37-3.38-2.06-5.07s-1.28-3.47-1.81-5.3a86.18,86.18,0,0,1-2.75-11.21l-.41-2.94-.19-1.48-.11-1.51-.2-3V95.72a56.08,56.08,0,0,1,5.7-23.85A70.61,70.61,0,0,1,296.09,53a13.34,13.34,0,0,1,2.19-1.9c.41-.21,0,.3-.85,1.16a76.08,76.08,0,0,0-9.88,12.33,61.06,61.06,0,0,0-7,15.08,56.44,56.44,0,0,0-2.31,17,68.25,68.25,0,0,0,2.38,16.44,17.84,17.84,0,0,1,0-4.07c.12-1,.35-1.44.7-1.37.75.12,1.72,2.6,3.15,6.2a66.66,66.66,0,0,1-2.26-14.07,19.17,19.17,0,0,1,.12-3.78c.11-1,.26-1.52.42-1.47s.33.64.43,1.58.13,2.23.26,3.61c.52,9.68,3.43,18.76,7,27.18,1.78,4.22,3.75,8.3,5.8,12.28,1,2,2.07,4,3.12,5.91l.79,1.46.83,1.51,1.7,2.95c5.66,9.09,11.41,17.68,16.38,26.61a118.78,118.78,0,0,1,6.61,13.47,53.22,53.22,0,0,1,2.18,6.7,18.61,18.61,0,0,1,.58,6c.15-.48.38-.9.51-1.38a13.17,13.17,0,0,1,.44-1.34,8.19,8.19,0,0,1,.8-2.11h0a46.14,46.14,0,0,0-2.54-8.68,149.23,149.23,0,0,0-10.37-19.15c-3.89-6.28-8-12.46-12.14-18.85-2.06-3.16-4.1-6.6-5.95-9.87s-3.74-6.7-5.5-10.17-3.37-7.06-4.85-10.74A93.34,93.34,0,0,1,285.1,110a64.89,64.89,0,0,1-1.7-12.26,52.27,52.27,0,0,1,1.08-12.57,50.69,50.69,0,0,1,4.17-11.87,61.18,61.18,0,0,1,6.55-10.47,85.37,85.37,0,0,1,17.38-16.62,206.51,206.51,0,0,1,19.76-12.52,8.69,8.69,0,0,1,2-1,6.31,6.31,0,0,1-1.64,1.12c-8,4.66-16.12,9.53-23.58,15.56a74,74,0,0,0-19,22l0-.07c.46-.66.66-.72.33.1a28.88,28.88,0,0,1-1.42,2.76c-.49.79-.59.65-.34-.06a50.51,50.51,0,0,0-4.58,27.38,82.91,82.91,0,0,0,7.7,25.82c1.85,4,3.86,7.86,6,11.63,1.05,1.87,2.11,3.75,3.18,5.59.53.91,1.09,1.86,1.66,2.81l1.72,2.75c4.6,7.24,9.31,14.16,13.67,21.24-3.87-6.68-8-13.23-12.16-19.94-1-1.69-2.06-3.38-3.05-5.14s-1.93-3.44-2.87-5.19c-1.9-3.46-3.72-7-5.43-10.6a117,117,0,0,1-4.67-11.1c-.71-1.89-1.28-3.84-1.88-5.78s-1.06-3.94-1.41-6a52.51,52.51,0,0,1,.64-24.57,50,50,0,0,1,3.5-10.29,10.54,10.54,0,0,1,1.45-2.27c.24-.19,0,.5-.46,1.41s-.86,1.81-1.25,2.73c2.74-5.6,6.13-9,6.57-8.56.39.69-2.22,5.11-4.67,10.73a44.31,44.31,0,0,0-3.28,11.82,46.73,46.73,0,0,0-.12,12.22,68,68,0,0,0,2.54,12,102.13,102.13,0,0,0,4.36,11.45c.76,1.6,1.56,3.17,2.38,4.74s1.84,3,2.78,4.56a136.55,136.55,0,0,1-7.51-17.39A67.24,67.24,0,0,1,289.88,98a46.12,46.12,0,0,1,2.91-18.09A58,58,0,0,1,302.16,64c1.32-1.66,2.67-2.89,2.86-2.77s-.79,1.52-2.09,3.17c-6.46,8.58-10.82,18.71-10.7,29.08a51.67,51.67,0,0,0,2.35,15.42,94.77,94.77,0,0,0,6,14.9c2.41,4.87,5.13,9.65,8,14.45,1.45,2.45,2.81,4.69,4.33,7l4.61,7c3.12,4.73,6.24,9.53,9.24,14.48a160.71,160.71,0,0,1,8.41,15.53,69.52,69.52,0,0,1,5.25,11.29,37.68,37.68,0,0,1,1.72,6.85,24.39,24.39,0,0,1-.27,8.61,18.81,18.81,0,0,1-5.33,9.28,20.75,20.75,0,0,1-2.08,1.75c-.71.47-1.44.94-2.18,1.37a7.23,7.23,0,0,1-.92.49l-.83.4-1.67.79c-.55.25-1.13.55-1.67.75l-1.62.55-1.63.55-.41.13-.19.07-.12,0-.48.14c-.64.17-1.27.4-1.9.52l-1.87.33,2,0c.67,0,1.33-.16,2-.25a20.17,20.17,0,0,0,2.34-.52c.92-.25,1.81-.42,2.75-.74s1.91-.72,2.86-1.09l1.42-.57.18-.08.25-.13.49-.25,1-.54a15,15,0,0,0,1.9-1.2c.63-.48,1.25-1,1.85-1.5a13.44,13.44,0,0,0,1.7-1.75,18.82,18.82,0,0,0,3.65-6.15c.26-.7.52-1.43.71-2.13s.29-1.34.42-2l.17-1c0-.33.06-.63.09-.94l.11-1.85c0-1.21-.06-2.28-.12-3.42s-.27-2.06-.42-3.09l-.62-2.83a61.64,61.64,0,0,0-3.47-9.82c-1.31-3-2.75-5.8-4.25-8.49s-3.05-5.28-4.63-7.8c-3.17-5-6.46-9.79-9.76-14.45S314.87,144.37,312,140c-3-4.7-6-9.37-8.65-14.16A99.22,99.22,0,0,1,296.49,111a54,54,0,0,1-3.15-15.76,5.27,5.27,0,0,1,.05-1.41,1.7,1.7,0,0,1,.2-.69c.16-.1.24.62.25,1.7a51.88,51.88,0,0,0,3,15.14,89.92,89.92,0,0,0,6.53,14.25c2.57,4.64,5.43,9.19,8.44,13.84l1.12,1.72,1.09,1.64q1.17,1.67,2.34,3.36c1.62,2.31,3.27,4.63,4.92,7A281.66,281.66,0,0,1,337.1,176.3a94.06,94.06,0,0,1,6.51,14.1c.24.63.43,1.35.65,2s.43,1.34.6,2.1l.53,2.21.39,2.4a27.56,27.56,0,0,1-.69,11.65,28.16,28.16,0,0,0,1-11.85,46.12,46.12,0,0,0-2-8.87A90.17,90.17,0,0,0,338,175.91a246.78,246.78,0,0,0-14.79-23.64c-2.53-3.69-5.11-7.33-7.46-10.83l-1.7-2.58-1.74-2.77c-1.15-1.85-2.29-3.69-3.37-5.53-4.37-7.35-8.3-14.77-10.68-22.44a11,11,0,0,1-.54-2c-.12-.62-.2-1.19-.24-1.63a1.58,1.58,0,0,1-.37-.72,38.76,38.76,0,0,1-1.88-12.34,7.32,7.32,0,0,1,.39-2.26C295.73,88.81,295.81,89.33,295.79,90.25ZM173.26,267l-.15-.16.52.29.72,1.09Zm-9,3.69h0l-.43-.64ZM340.31,288a9.92,9.92,0,0,1-1.71.24h-.86c-.31,0-.79-.09-1.18-.12l-.62-.05-.88-.13-1.76-.26-3.52-.53c-4.67-.69-9.34-1.5-14-2.28-9.32-1.63-18.6-3.37-27.88-5.28L301.52,282q10.55,2,21.13,3.83c3.53.62,7.05,1.15,10.59,1.73l2.65.41,1.83.2A9.86,9.86,0,0,0,340.31,288ZM167.07,262.47a12,12,0,0,1,2.12,2.16,5.62,5.62,0,0,1,1.69,0c1.55.19,3.07.41,4.55.7-.19-.38.16-.31.34-.33l.56,0-4.79-1.22C170.07,263.3,168.48,263,167.07,262.47Zm-11.17.94-.15-.16.27-.61Zm-.41,1,.23.1C155.65,264.79,155.57,264.7,155.49,264.46Zm2.14.86a1.53,1.53,0,0,0-.31-.34Zm2.28,18.18.64-3.14-.71,3Z"/></g></g></svg>