<svg xmlns="http://www.w3.org/2000/svg" viewBox="0 0 430.8 284.14"><g id="Layer_2" data-name="Layer 2"><g id="Layer_1-2" data-name="Layer 1"><path d="M109,82.93l-.34-.33c.12-.26.37-.3.69-.23a4.32,4.32,0,0,0-5-.41,4.9,4.9,0,0,0-1,.72,8.08,8.08,0,0,0-.91,1,9.79,9.79,0,0,0-1.33,2.44c-.88.1-1.29,1.24-.93,2.4a2.31,2.31,0,0,0,2.13,1.83,2.47,2.47,0,0,1,.64.29,16.12,16.12,0,0,0,2.54,1.82c.42.24.83.43,1.24.64s.83.41,1.24.59l-1.11-.9a2.81,2.81,0,0,0,1.42.38l-.32-.63a2.35,2.35,0,0,0,2.48.39A3.2,3.2,0,0,0,112,90.6c.59-2.47-.18-5.63-2.12-7Z"/><path d="M104.13,76.62a24.62,24.62,0,0,1,3.71,1.84l.29.38L107.68,77v.12a7.18,7.18,0,0,1-3.35,3.44l-.43.37a1.65,1.65,0,0,0-.17,1.07,1.79,1.79,0,0,0,1.45,1.64H106c2,.57,4.66.36,5.17-3a7.74,7.74,0,0,0-.42-2.52,2.15,2.15,0,0,0-2-2.15,1.87,1.87,0,0,0-1.45,2.37,4.27,4.27,0,0,0-.54-.18c.09-.19.19-.34.28-.51,0,1.09-.83,1.57-1.32,2.26l-.87.51L106,83.12l.38-.48c-.07-.11-.18-.28-.18-.29.36-.49.71-1,1.08-1.44a7.14,7.14,0,0,1,1.25-1.15l1.1-1.26a1.75,1.75,0,0,0-.4-1.86l-.72-.53.34.33c-.75-.22-1.52-.37-2.29-.52s-1.54-.2-2.32-.39a.43.43,0,0,0-.54.41A.64.64,0,0,0,104.13,76.62Z"/><path d="M109,75.29c.27.18.53.38.84.28.06-.15.08-.22.1-.26l-.53-.42C109,74.58,108.88,74.88,109,75.29Z"/><path d="M109.91,75.31l.22.18-.17-.25,0,0Z"/><path d="M94.47,204.93a77.87,77.87,0,0,0,35.07,6.47,65.9,65.9,0,0,0,17.28-3.29,67.26,67.26,0,0,0,16-7.89c.69-.42,1.18-.9,1.13-1s-.6.18-1.23.58a67.27,67.27,0,0,1-15.85,7.85,65.45,65.45,0,0,1-17.11,3.28,73.92,73.92,0,0,1-17.66-1.12,82.25,82.25,0,0,1-17.14-5.21,3.17,3.17,0,0,0-1.54-.41C93.3,204.28,93.78,204.62,94.47,204.93Z"/><path d="M190.74,97.45c.41.53.49.46.19-.18a11.86,11.86,0,0,0-1.25-2c-.36-.44-.45-.35-.18.19A14.52,14.52,0,0,0,190.74,97.45Z"/><path d="M200.82,99c2.18,3.72,4,7.38,5.63,10.7a14.09,14.09,0,0,1,.71,1.9c.06-.29.53.42,1.1,1.89a91.52,91.52,0,0,1,5.92,23.08,90,90,0,0,1-.49,24.78c-.27,2.09-.77,4.13-1.16,6.2l-.77,3.06c-.25,1-.51,2-.85,3.06-.67,2-1.21,4.09-2,6.06s-1.51,4-2.46,5.93a96.66,96.66,0,0,1-13.71,21.77,4.13,4.13,0,0,1-.62,1.41,35.43,35.43,0,0,1-3.16,4.1c-.7.82-1.55,1.6-2.41,2.44s-1.76,1.7-2.75,2.48l-3,2.31A95.37,95.37,0,0,1,161,231.82a91.07,91.07,0,0,1-22,6.45c-.76.19-1.54.42-2.37.59l-2.56.47-2.72.45c-.94.11-1.9.19-2.88.28a106.07,106.07,0,0,1-39.76-2.73c.77.4,1.21.73,1.15.93-.38.36-3.56-.15-7.06-1.4-1.75-.64-3.53-1.23-5.25-1.94a122.76,122.76,0,0,0,15.19,5.37c.75.2,1.44.41,2.06.61a111.89,111.89,0,0,0,17.83,2.72,99.82,99.82,0,0,0,39.23-5.11,95.43,95.43,0,0,0,32.93-19.66A105.17,105.17,0,0,0,197.26,205a101.79,101.79,0,0,0,9.52-15.78,99.05,99.05,0,0,0,6.24-17.1,96,96,0,0,0,2.89-17.64,17.37,17.37,0,0,1,.27-2.68c.12-.46.25-.36.23.51a100.75,100.75,0,0,1-2.74,22,93.79,93.79,0,0,1-7.58,21,96,96,0,0,1-32.29,36.83c-1.12.81-2.32,1.48-3.48,2.21s-2.34,1.48-3.57,2.11c-2.44,1.29-4.87,2.64-7.44,3.73a99.29,99.29,0,0,1-15.8,5.62,109.66,109.66,0,0,1-33.14,3.34,121.54,121.54,0,0,1-16.57-1.93l-4.09-.87-2-.45-2-.53-4.05-1.1-4-1.28c-2.69-.81-5.27-1.9-7.91-2.88-1.31-.53-2.58-1.11-3.88-1.68s-2.59-1.12-3.85-1.77l-3.8-1.9c-1.27-.63-2.49-1.37-3.73-2-2.49-1.37-4.95-2.89-7.38-4.48a121.66,121.66,0,0,1-26.68-25.17,101.7,101.7,0,0,1-10.31-16.28A93.48,93.48,0,0,1,3,168a102.9,102.9,0,0,1-2-39.31A122.25,122.25,0,0,1,12.23,91.75,123.56,123.56,0,0,1,26.07,69.27,128,128,0,0,1,44.14,50.1c.81-.76,1.69-1.42,2.55-2.12L48,47l.29-.26,1-.83c.64-.56,1.27-1.12,1.92-1.65,1.34-1,2.68-2.05,4-3.06l2.05-1.49c.69-.48,1.41-.92,2.12-1.39,1.43-.91,2.87-1.8,4.32-2.69s3-1.65,4.5-2.47,3-1.64,4.64-2.32a11.66,11.66,0,0,1,6.93-1.53,6.3,6.3,0,0,1,4.8,3,6.2,6.2,0,0,1-.72,6.39l1.11-.34,1.88-.19a6.54,6.54,0,0,1,4.66,1.2l1.63,1.16c2.38,2.41,5.44,4.14,7.3,6.91l0,1.19.35.28a5.51,5.51,0,0,1,2.41,2.76l.19,1.41a14.7,14.7,0,0,1-.41,4.74,4.9,4.9,0,0,1,.13,1.74A7.22,7.22,0,0,1,104.42,64a1,1,0,0,1,.17,1.38.84.84,0,0,1-.41.29h0a8.43,8.43,0,0,0,.65.79c.34.07.54.13.54.13l1.64.22a4.38,4.38,0,0,1,1.19,1c1.09,2.4,1.07,2.4,1.15,3.5,0,.11,0,.22-.07.33a7.52,7.52,0,0,1,.76.38,2.41,2.41,0,0,1,.3.38c.11.58.11.58.23.78a4,4,0,0,1,.09.43c-.18.7-.18.7-.16.88a2.71,2.71,0,0,1-.1.35l-.45.39-.94-1.4-.06.55-.28-.67.2.62-.42-.33.5.49c-.86-.09-.87-.1-1.19,0a1.12,1.12,0,0,0-.66.2,2.69,2.69,0,0,1,.1.33c-.93-.1-.93-.13-1.84-.19a3.37,3.37,0,0,1-.3-.36.36.36,0,0,1-.36.32h-.47l-.08.11v0l-.3.38-.06.09h0L102.52,77a5.4,5.4,0,0,1-.82-.11,2.86,2.86,0,0,1,.3.22c.19.16.22.73.31.76a14.66,14.66,0,0,0,3.14.69c.51.06,1,.1,1.53.15l1.52.24c.33-.12.71.16.84.6a.8.8,0,0,1-.36,1,9.55,9.55,0,0,1-1.24,1.16,9.84,9.84,0,0,1-1.3,1,9.27,9.27,0,0,1-2.88,1.14,15.6,15.6,0,0,1-6.54.07,23.86,23.86,0,0,0-3.26.44l.25.2-.94,0-.09,0,1,.66.52.09a10.54,10.54,0,0,1,3.76-.06c.64.08,1.26.14,1.89.26s1.26.26,1.87.34a16.8,16.8,0,0,1,3.82,1.32c.29,0,.57.31.64.73s-.1.71-.37.72a13.75,13.75,0,0,1-11.43.18,2.86,2.86,0,0,1-2.2-.06h0l.78.57c-.58,0-1.16-.49-1.72-.51.22.3.46.63.69.93A38.43,38.43,0,0,0,88.3,91a10,10,0,0,1-4.13.88,1.59,1.59,0,0,1-.3.06,17,17,0,0,1-.73,1.83c-.07.14-.15.28-.23.41l-.08.11-.45.35-.9.71c-1.2,1-2.38,2.06-3.7,3.07l2.76-1.9a12.73,12.73,0,0,1,1.38-.92l1.35-.8s-.17.16-.26.23l-.34.29-.69.56c-.47.36-.89.8-1.33,1.2-.87.82-1.8,1.57-2.67,2.4s-1.74,1.7-2.66,2.53-1.74,1.78-2.67,2.66A111,111,0,0,0,59.28,121c-3.91,5.56-6.7,10.88-9,14.28a55.91,55.91,0,0,0-1.28,20,42.18,42.18,0,0,0,2.21,9.19,49.76,49.76,0,0,0,4.25,8.89,67.61,67.61,0,0,0,13.81,16.1A78,78,0,0,0,78.25,196a88.45,88.45,0,0,0,9.81,5.54,7,7,0,0,1,2.73,1.79c0,.31-1,.1-2.42-.54a90.12,90.12,0,0,1-14.33-8,78.83,78.83,0,0,1-12.33-10.48c-7.33-7.74-12.49-16.75-14.41-26a52,52,0,0,0,10,23.08,78.55,78.55,0,0,0,20.84,19.08l3.25,1.87c1.08.63,2.22,1.16,3.33,1.75s2.21,1.11,3.31,1.66,2.19,1.14,3.32,1.63c23,9.74,48.89,9.8,69.7-4a73.58,73.58,0,0,0,21.26-21.68,72.28,72.28,0,0,0,6.52-13.41,68.58,68.58,0,0,0,2.25-7.32c.28-1.26.63-2.52.83-3.81s.49-2.57.64-3.88c2-14.68-.75-29.11-6.84-42.24a84.41,84.41,0,0,0-5.16-9.5c-1-1.5-2-3-2.94-4.32-.49-.66-1-1.32-1.26-1.59l-1.76-1.93a69.15,69.15,0,0,0-17-12.93c-3.47-1.84-6.77-3.54-7-4.14s2.59.07,6.25,1.83a70,70,0,0,1,19.07,13.38c.69.68,1.32,1.4,2,2.09.42.45.43.46.72.81s.54.68.82,1c1.14,1.47,2.27,3.11,3.34,4.77a87,87,0,0,1,5.73,10.53,80.75,80.75,0,0,1,6.65,22.83,72.11,72.11,0,0,1-.72,23.58l-.27,1.46-.36,1.45c-.24,1-.42,2-.73,2.9l-.84,2.88-1,2.8c-.6,1.89-1.5,3.66-2.25,5.5-.4.91-.89,1.77-1.33,2.66s-.87,1.79-1.41,2.63a72.69,72.69,0,0,1-15.1,18.58,71.68,71.68,0,0,1-20.41,12.76c-.93.38-1.89.69-2.83,1.05l-1.42.51c-.48.17-1,.29-1.44.43l-2.9.85-3,.65c-.5.11-1,.23-1.49.32l-1.51.23c-1,.15-2,.34-3,.46-2,.16-4.06.43-6.13.44A80,80,0,0,1,106,214a.44.44,0,0,1,.12.31c-.07.36-.79.53-2,.55a89.57,89.57,0,0,0,12,2.2c2,.17,4.05.43,6.08.45,1,0,2,.11,3.05.09l3-.06a73.73,73.73,0,0,0,31.76-10.41,81.1,81.1,0,0,0,25.16-23.95l1.66-2.6c.27-.43.56-.85.81-1.29l.74-1.33,1.48-2.63c.43-.91.87-1.8,1.3-2.7l.65-1.34c.21-.45.38-.91.57-1.37l1.12-2.73c.38-.91.66-1.87,1-2.79l.49-1.4.41-1.42A72.92,72.92,0,0,0,198,150.16a74.43,74.43,0,0,0,.78-11.68,82.7,82.7,0,0,0-7.53-28.95,88.89,88.89,0,0,0-7.45-13.15c-.71-1-1.44-2-2.17-3l-1-1.21-1.26-1.33A68.83,68.83,0,0,0,174,85.74a7.93,7.93,0,0,1-1.39-1.31c-.17-.26.22-.05.86.44a71.15,71.15,0,0,1,7.65,6.95l.33.36.39.45.79,1c.54.67,1.07,1.37,1.59,2.08,1,1.42,2,2.92,3,4.43a88.17,88.17,0,0,1,9.29,19.73c-.37-2.3-.42-3.76.06-3.73s1.51,1.6,2.56,4.22a90.69,90.69,0,0,0-3.31-9.69c-.8-2-1.33-3.55-1.11-3.6s1.13,1.4,1.9,3.28a83.6,83.6,0,0,1,6,41.11,81.75,81.75,0,0,1-6.05,24.27A77.92,77.92,0,0,1,183.42,197a23,23,0,0,1,4.13-3h0c1.68-2.06,3.09-4.3,4.56-6.48a85.8,85.8,0,0,0,11.3-34.19,84.86,84.86,0,0,0-4-35.89A94.7,94.7,0,0,0,192,100.76,90.92,90.92,0,0,0,187.13,93c-.88-1.23-1.8-2.46-2.72-3.56l-.31-.37-.39-.41-.78-.83c-.53-.55-1-1.13-1.58-1.65a80.35,80.35,0,0,0-31-19,5,5,0,0,1-1.65-.71,3.7,3.7,0,0,1,1.58.34,84.11,84.11,0,0,1,20,9.82A73.17,73.17,0,0,1,179,83.44c.71.6,1.35,1.26,2,1.9l1,1,.95,1,.94,1,.48.5.39.46c.56.67,1.13,1.39,1.67,2.13l0,0c-.3-.52-.27-.68.17-.2A12.88,12.88,0,0,1,187.9,93c.32.61.19.62-.17.2a93.78,93.78,0,0,1,15.49,38,84.4,84.4,0,0,1-3.43,40.51,83.43,83.43,0,0,0,4.56-37.49,92.92,92.92,0,0,0-11.94-36c-1.52-2.34-3.13-4.6-4.87-6.79a10.57,10.57,0,0,1-1.12-1.73c-.07-.22.36.15.85.77s1,1.21,1.44,1.83c-1.37-2-2.57-3.75-3.43-4.93s-1.37-2.06-1.16-2.22,1.23.56,2.54,1.71a31.78,31.78,0,0,1,4.2,5.12,93.52,93.52,0,0,1,15.42,37.8c.28,1.46.48,2.93.71,4.4s.49,3,.64,4.45a91,91,0,0,0-7.19-31.16A96.18,96.18,0,0,0,193,93.27a74,74,0,0,0-4.65-6.59,79.48,79.48,0,0,0-5.56-5.87c-1.37-1.22-2.47-2.36-2.37-2.53s1.32.7,2.72,1.93l2.63,2.42,2.53,2.56a63.88,63.88,0,0,1,4.53,5.7,97,97,0,0,1,7.45,12.28,95.1,95.1,0,0,1,9.14,27.43,86.65,86.65,0,0,1-.07,29.27,84.67,84.67,0,0,1-3.67,14.31c-.72,2.38-1.77,4.63-2.69,6.93-.5,1.14-1.07,2.24-1.61,3.36s-1.08,2.24-1.72,3.3a92.26,92.26,0,0,1-24.4,31.65l2.14-1.51,2.06-1.66A87.48,87.48,0,0,0,210.56,163a92.17,92.17,0,0,0,.28-29.83,102.2,102.2,0,0,0-9.12-28.82,6.71,6.71,0,0,1-.73-1.89c0-.15.44.44.89,1.39a102.62,102.62,0,0,1,9.27,28,89.39,89.39,0,0,1,.18,29.84,90.75,90.75,0,0,1-2.9,12.34c-.32,1-.63,2-.94,3s-.74,2-1.1,2.93-.74,2-1.13,2.92L204,185.71a98.64,98.64,0,0,1-13,20.85A90.35,90.35,0,0,0,204.5,186a93.14,93.14,0,0,0,7.44-23,95.47,95.47,0,0,0,1.38-11.91c.15-2,.1-4,.13-6s-.1-4-.3-6a96.23,96.23,0,0,0-4.81-23.33,33.48,33.48,0,0,1-1.09-3.51,2.32,2.32,0,0,1-.4-.68c-1.64-3.63-3.55-7.5-5.71-11.32a12.07,12.07,0,0,1-1-2.12C200,97.8,200.32,98.2,200.82,99ZM93.41,72.85l.19.14-.54-.16L92,71.77S92.7,72.3,93.41,72.85Zm6-7.32h0l.57.66ZM51.48,174A46.69,46.69,0,0,1,45.81,157,50.27,50.27,0,0,1,47,138.88a56,56,0,0,0-.72,8.88c-.11,1.14-.1,2.25-.15,3.39s0,2.25.1,3.35a46.7,46.7,0,0,0,.8,6.59A53.09,53.09,0,0,0,51.48,174ZM99.91,76.2a14,14,0,0,1-2.38-1.92,3,3,0,0,1-1.26.58,30.42,30.42,0,0,1-3.67.82c.34.39,0,.44-.07.55l-.38.27c1.34-.14,2.69-.25,4-.32A20.08,20.08,0,0,1,99.91,76.2ZM108,72.42a2,2,0,0,0,.14.16l-.1.77Zm.14-1.29-.2-.08C108,70.77,108,70.86,108.13,71.13Zm-1.85-.64a2.45,2.45,0,0,0,.31.35Zm-5.91-21v3.82l.11-3.7Z"/><path d="M126.57,24.87l.26,0c0,.16-.16.27-.35.35,2.45,0,3.93-2.31,4.33-4.49a1.1,1.1,0,0,0-1.18-1.85,1.72,1.72,0,0,1-.44.06,8.48,8.48,0,0,0-3.68.26h.86a2.68,2.68,0,0,0-1,.4l.31.18a2.53,2.53,0,1,0,.26,5.06Z"/><path d="M130.42,26.32c-.79.11-1.58.18-2.37.24l-.23-.08.61.71,0-.06a4.52,4.52,0,0,1,1.24-2.62l.19-.31a.82.82,0,0,0-.07-.58.8.8,0,0,0-1.09-.34l-.45.24c-1.3.34-2.85,1.51-2.44,3.17.1.39.49.67.78,1a1.11,1.11,0,1,0,1.85-1.24l.33-.09-.06.32c-.19-.53.18-1,.34-1.45l.4-.5-1.16-.92-.14.35.15.08a9.72,9.72,0,0,1-.86,2l-.35.94a.68.68,0,0,0,.6.7l.49,0-.25,0c.9-.28,1.74-.7,2.64-1a.28.28,0,0,0,.21-.33A.27.27,0,0,0,130.42,26.32Z"/><path d="M128.09,28.36a.64.64,0,0,0-.5.14v.14l.37,0C128.22,28.69,128.22,28.52,128.09,28.36Z"/><path d="M127.59,28.64h-.16l.15.06v-.05Z"/><path d="M149.46,8.35a36.73,36.73,0,0,0,3.7-2s0-.1,0-.17S153,6,153,6.06a41.26,41.26,0,0,1-3.7,2s0,.1,0,.17S149.42,8.36,149.46,8.35Z"/><path d="M163.08,9a.24.24,0,0,0,.14.17c.06,0,.1,0,.09-.07a.3.3,0,0,0-.14-.17C163.1,8.88,163.07,8.92,163.08,9Z"/><path d="M167.12,14.67a1.89,1.89,0,0,0-.12.74c0,.05,0,.06-.07.05a.48.48,0,0,1,.13.32,15.23,15.23,0,0,1-2,4.47,1.82,1.82,0,0,1,.16.31c.13.34.09.61-.12.69l-.18,0c-.63.23-1.24.49-1.88.7a.79.79,0,0,1-.17.52,12.93,12.93,0,0,1-.59,2,.83.83,0,0,1,.26.24c.18.25.22.51.09.59l-.17.16.67-.22h.1a4.18,4.18,0,0,0,.57-.47,15,15,0,0,0,3.23-6c0-.06,0-.08.12,0a.22.22,0,0,1,.11.18c-.06,2,.31,4.3-.21,6a31.2,31.2,0,0,1-2.25,5.56c-1.47,1.13-2.36,2.77-3.51,4.35-.39.54-.79,1-1.21,1.52a1.65,1.65,0,0,1-.2.21l-.33.31-.68.61q-.68.62-1.35,1.2c-1.82,1.58-3.69,3.09-5.59,4.61a3.32,3.32,0,0,1-4.7,0,3.37,3.37,0,0,1-.94-2.89l-.37.26-.69.26a2.9,2.9,0,0,1-2.05,0l-.86-.3c-1.41-.75-3-1.06-4.35-1.93l-.25-.52L137.5,38a2.89,2.89,0,0,1-1.58-.73l-.39-.58a6.67,6.67,0,0,1-.87-2.15,2.56,2.56,0,0,1-.43-.75,3.44,3.44,0,0,1-1.55-1.68.47.47,0,0,1-.24-.8h0l-.47-.19-.28.09-.82.33a2.21,2.21,0,0,1-.79-.12c-1.06-.75-1.06-.75-1.34-1.21a.9.9,0,0,1,0-.16l-.48.05a1.26,1.26,0,0,1-.24-.07c-.18-.22-.18-.22-.29-.27a1.27,1.27,0,0,1-.14-.17c-.06-.35-.06-.35-.11-.43a.94.94,0,0,1,0-.18l.15-.31.79.33-.08-.26.28.21-.23-.21.28,0-.36-.07a2.17,2.17,0,0,0,.63-.35.87.87,0,0,0,.3-.29l-.12-.12,1-.46.22.09a.23.23,0,0,1,.14-.24l.25-.13,0-.07v0c0-.1.06-.18.09-.26l0-.06h0c.07-.18.16-.44.41-1.13a3.16,3.16,0,0,1,.46-.16l-.19,0c-.13,0-.24-.29-.29-.29a17.44,17.44,0,0,0-3.59,1.35.43.43,0,0,1-.59,0,.42.42,0,0,1,0-.59,9,9,0,0,1,6.43-5.1l1.86-1-.17-.05.56-.16.05,0-.63-.15-.31,0a26.82,26.82,0,0,1-4.53,1.63,22.07,22.07,0,0,1-2.51.55.37.37,0,1,1-.38-.63c1.85-1.87,4.41-3.44,7.11-3.37a2.14,2.14,0,0,1,1.32-.44h0l-.49-.15c.35-.14.71,0,1.06-.07l-.45-.37c1.61-.8,3-2.09,4.81-2.44l.18-.07a8.61,8.61,0,0,1,.94-1.79l-.46.12a1.47,1.47,0,0,1,.52-.89,3.11,3.11,0,0,1,3.36.48A49.84,49.84,0,0,0,149,8.4c.06-.08.19,0,.31.09s.16.3.11.37a16.35,16.35,0,0,1-2.26,3.23,15.53,15.53,0,0,0,2.91-1.46l.29-.31a.68.68,0,0,1,.38-.18,13.17,13.17,0,0,0,3-2.76,28.87,28.87,0,0,0,1.94-3.13A12.4,12.4,0,0,1,158.62.08c.15-.18.5,0,.79.27s.4.74.26.92c-1.92,3.18-3.61,6.55-6.6,8.6l-1,.64.11.14a2,2,0,0,1,.32.56,9.5,9.5,0,0,1,1.2-.58,6.59,6.59,0,0,1,2.51-2.88A9.25,9.25,0,0,1,159,7.12c.66-.85,1.28-1.76,2-2.59,0,0,.08,0,.14,0a.19.19,0,0,1,.08.19,13.48,13.48,0,0,1-1,2.4,2.26,2.26,0,0,1,.75.68,2.17,2.17,0,0,1,.43.94l.42-.29c.09-.05.25,0,.37.18s.16.34.08.4l-1.7,1.21c-.53.68-1.07,1.34-1.63,2a3.16,3.16,0,0,1,.77.61h0l.28-.26A14,14,0,0,1,164.75,7s.12,0,.17.07.08.16,0,.18a10.79,10.79,0,0,0-1.73,1.36h0a.27.27,0,0,1,.14.17c0,.07,0,.1-.09.08a.28.28,0,0,1-.14-.18A15.37,15.37,0,0,0,160.62,12a17.5,17.5,0,0,1,3-2.25l.11-.52s.09,0,.15,0a.21.21,0,0,1,.07.19l0,.13c.2-.11.58.08.87.46s.35.81.15.94c-.46.47-.94.91-1.44,1.33l-.11.19,0,.31c.91-.47,1.85-.91,2.79-1.32.07-.06.21,0,.31.14s.14.28.07.34a28.22,28.22,0,0,1-3.34,4.41c0,.94,0,1.89-.07,2.82a.82.82,0,0,0,.2-.12c1.54-1.19,1.58-3.85,2.81-5.34,0-.05.1,0,.16,0s.08.15,0,.18a17.2,17.2,0,0,0-1.2,2.82,14.65,14.65,0,0,0-.9,2.4c1-1,1.55-2.6,2.43-3.79,0-.07.1-.07.19,0a.19.19,0,0,1,0-.11,2.32,2.32,0,0,1,.12-.78c0-.05.06-.05.14,0A.23.23,0,0,1,167.12,14.67Zm-30.49,11-.12,0h.3l.69.33Zm-1.87,4.64h0l-.4-.18Zm13.72-18.2a4.59,4.59,0,0,1-2.15.9l.36-.42A16.77,16.77,0,0,1,148.48,12.14ZM132.75,25.42a5.91,5.91,0,0,1,1.54.39,2.21,2.21,0,0,1,.58-.56,18.38,18.38,0,0,1,1.85-1.1c-.22-.14-.07-.22,0-.29l.17-.21c-.69.32-1.4.63-2.13.94A16.4,16.4,0,0,1,132.75,25.42Zm-3.55,3.93-.1,0-.12-.37Zm.2.61.12,0C129.57,30.07,129.51,30.05,129.4,30Zm1.06-.24a.7.7,0,0,0-.23-.06Zm7.06,8-.8-1.66.73,1.63Z"/><path d="M197.73,63.72l.64,0c-.08.34-.43.62-.92.86a13.74,13.74,0,0,0,7.42-3.88,20.39,20.39,0,0,0,4.43-6.37c1.37-.73,2.06-2.06,1.54-3s-2.13-1.13-3.59-.39a5.52,5.52,0,0,1-1.14.21,27.81,27.81,0,0,0-9.6,1.44l2.26-.24a10.64,10.64,0,0,0-2.8,1.09l.73.28c-3.68.57-7,3.49-7.09,6.43s3,4.61,6.52,3.87Z"/><path d="M206.77,65.39c-1.85.44-3.68.85-5.59,1.26l-.55-.09,1.4,1.23-.06-.1c.1-2,1.67-4,3.29-5.71l.51-.68a1.28,1.28,0,0,0,0-1.13,1.89,1.89,0,0,0-2.56-.39l-1.16.63c-3.26,1-7.43,4.09-6.43,7.43.24.75,1.2,1.16,1.91,1.7a2.87,2.87,0,0,0,3.73,0c1.21-.91,1.57-2.35.8-3.28l.79-.3c-.06.22-.11.46-.17.69-.41-1,.52-2,1-3.06l1.05-1.14-2.6-1.5-.43.75a2.8,2.8,0,0,1,.36.12,32.49,32.49,0,0,1-2.36,4.32c-.32.69-.62,1.39-.92,2.08a1.22,1.22,0,0,0,1.45,1.22l1.17-.17-.59,0c2.13-.92,4.13-2,6.22-2.83a.7.7,0,0,0,.53-.73A.55.55,0,0,0,206.77,65.39Z"/><path d="M201.21,70.34a1.85,1.85,0,0,0-1.19.49v.29l.88-.1C201.54,71,201.53,70.6,201.21,70.34Z"/><path d="M200,71.12l-.37,0,.35.07,0,0Z"/><path d="M256.55,207.56l-.32.91c-.1.25-.16.32-.24.49l-.46.9c-.34.6-.54,1.22-.82,1.84a30.76,30.76,0,0,0-1.32,3.86,17.68,17.68,0,0,0-.61,4.12,8.53,8.53,0,0,0,.91,4.06,6.37,6.37,0,0,0,3.11,2.71,12.1,12.1,0,0,0,4.09.9,28.9,28.9,0,0,0,4.26,0l2.15-.19,4.91-.58c.85-.1,1.54-.33,1.55-.51s-.66-.24-1.44-.13l-5,.58-2.06.18a27.41,27.41,0,0,1-4.05,0,12,12,0,0,1-3.89-.83,6.22,6.22,0,0,1-3-2.53,7.69,7.69,0,0,1-.9-3.85,15.57,15.57,0,0,1,.55-3.91,28.12,28.12,0,0,1,1.24-3.66c.26-.58.47-1.17.77-1.74l.44-.85.22-.42a3,3,0,0,0,.14-.37l.16-.45a2.65,2.65,0,0,0,.18-1.43C257,206.54,256.77,207,256.55,207.56Z"/><path d="M402,228.57c-.54-.57-.63-.46-.25.25a14.8,14.8,0,0,0,1.48,2.19c.41.49.54.38.25-.23A11.81,11.81,0,0,0,402,228.57Z"/><path d="M389.75,230.63a26.65,26.65,0,0,0-8.35-5.06,7.49,7.49,0,0,1-1.33-.66c.06.28-.59.24-1.64-.07-5.26-1.41-10.7-.66-16.91,1.42-.77.26-1.55.55-2.35.85l-2.46.95-2.44,1-2.44,1.09c-3.26,1.49-6.49,3.16-9.76,4.93-6.52,3.57-13.09,7.65-20.13,11.81l-2.69,1.57c-.95.54-1.89,1.09-2.87,1.61-1.92,1.07-3.91,2.07-5.91,3.05a131,131,0,0,1-12.42,5.26,3.5,3.5,0,0,1-1.26,1.1c-2.18,1.45-7,3.21-12.11,4.12-1.29.22-2.58.39-3.87.57-1.93.29-4,.57-5.65.77l-2.83.34c-1.26.17-2.53.3-3.8.42a103.22,103.22,0,0,1-15.06.61A56.55,56.55,0,0,1,239.23,264a35.39,35.39,0,0,1-12.4-6.58,18.32,18.32,0,0,1-2.42-1.83,19.79,19.79,0,0,1-2.33-2.26L221,252c-.36-.44-.67-.93-1-1.4s-.68-1-1-1.47l-.85-1.6a36.78,36.78,0,0,1-4.07-11.41c-.18-1-.35-2-.48-3.06a21.28,21.28,0,0,1-.32-3.11,51.87,51.87,0,0,1,.06-6.47,65.79,65.79,0,0,1,2.41-13.4c.63-2.28,1.57-4.44,2.4-6.67l1.29-3.34c.11-.28.2-.56.33-.83l.42-.78.85-1.55c-.77,1-1.36,1.53-1.58,1.45-.18-.25.21-1.38,1-3,.4-.82.89-1.77,1.45-2.8l.44-.79c.15-.26.31-.55.45-.74l.89-1.31,1.85-2.66.94-1.31,1-1.24a42.37,42.37,0,0,0-2.88,3.65l-1.39,1.89-.69.95c-.24.32-.51.8-.76,1.19-2,3.31-4.3,6.44-5.75,10.18-.46,1-.91,2-1.34,2.87a47.34,47.34,0,0,0-2.31,6.11c-.65,2.08-1.17,4.18-1.62,6.28a60.66,60.66,0,0,0-1.3,12.55,41.94,41.94,0,0,0,.58,6.59,44.32,44.32,0,0,0,1.34,6.34c.35,1,.68,2,1.05,3l1.27,3,1.55,2.81c.58.9,1.22,1.77,1.82,2.65s1.34,1.69,2,2.53,1.53,1.53,2.29,2.28,1.65,1.38,2.47,2.08a23.84,23.84,0,0,0,2.63,1.84,43.5,43.5,0,0,0,11.68,5c8.23,2.18,17.18,2.2,26,1.17,2.2-.26,4.38-.58,6.56-.9.54-.07,1.09-.19,1.62-.28l1.39-.24,2.18-.41,4.59-.93c1.58-.36,3.16-.7,4.74-1.11a128.27,128.27,0,0,0,18.54-6.15,134.16,134.16,0,0,0,17-8.67c10-6.06,18.71-12,27.65-16.66a7.28,7.28,0,0,1,2.09-.86c.41,0,.41.18-.23.53a185.44,185.44,0,0,0-15.91,10.6l-8.08,5.92-4.26,3c-1.57,1.07-3.17,2.14-4.83,3.18a121.54,121.54,0,0,1-22,11,123.36,123.36,0,0,1-12.47,4c-1.07.29-2.15.55-3.23.81l-3,.72-1.48.33-.76.17-.48.09-.6.12c-1.62.34-3.27.56-4.93.83-2,.32-4,.57-6,.86s-4,.38-6,.46l-3,.13c-1,.06-2,0-3,0s-2,0-2.95-.1l-2.92-.25c-1-.08-1.92-.23-2.87-.38s-1.91-.29-2.85-.49a53.91,53.91,0,0,1-5.52-1.45,47,47,0,0,1-10.35-4.62l-2.39-1.55-2.25-1.77a25.85,25.85,0,0,1-2.16-1.89l-1-1-.27-.24-.06-.06c-.09,0-.06,0-.1,0l-.11-.13-.48-.54a45,45,0,0,1-6.56-9.27,44.58,44.58,0,0,1-4-10.59c-.42-1.87-.77-3.76-1.11-5.67a17.63,17.63,0,0,1-.32-2.93c-.05-1-.18-2-.14-3a64,64,0,0,1,1.05-12.43A61,61,0,0,1,206.42,205l2.56-6.17.64-1.55.32-.77c.11-.26.28-.48.41-.72l1.7-2.81,1.7-2.83.86-1.42.42-.7c.14-.24.3-.5.41-.65q1.44-2.09,2.91-4.12c.5-.68,1-1.38,1.5-2l1.63-1.91,1.64-1.89c.55-.63,1.1-1.25,1.68-1.81,1.15-1.15,2.31-2.27,3.47-3.39s2.34-2,3.52-3a145,145,0,0,1,13.32-9.55c4.35-2.73,8.31-5.16,11.79-7.81,1.82-1.31,3.42-2.71,5.07-4.11.85-.69,1.56-1.46,2.33-2.2s1.54-1.5,2.28-2.27c1.41-1.61,2.82-3.21,4.16-4.89s2.6-3.49,3.78-5.21A51.6,51.6,0,0,0,280,122.63a41.15,41.15,0,0,0,2.63-11.09,34.79,34.79,0,0,0-.59-10.86l-.28-1.3c-.11-.43-.25-.84-.37-1.26-.22-.83-.55-1.64-.83-2.46A31.66,31.66,0,0,0,278.35,91a29.89,29.89,0,0,0-6-7.63,12.52,12.52,0,0,0-4.16-2.63,2.88,2.88,0,0,0-.78-.18l-.17,0a.29.29,0,0,0-.1,0,.84.84,0,0,0-.2.08c-.25.12-.5.27-.82.42a5.85,5.85,0,0,1-1.58.43,12.15,12.15,0,0,0-1.85.19,9.82,9.82,0,0,0-1,.32,21.82,21.82,0,0,0-4.07,2c-.33.19-.7.47-1.05.69-.17.11-.35.25-.53.38l-.12.1-.38.34c-.25.21-.52.47-.77.7a10.34,10.34,0,0,0-.77.73c-.26.25-.51.47-.77.75-1,1-2.09,2.13-3.14,3.32S248,93.45,247,94.81c-1.27,2.37-4.06,2.58-6.48.29a7.64,7.64,0,0,1-2.29-5.35l-.51.51-1,.58a4,4,0,0,1-3.27.23l-1.51-.43c-2.57-1.19-5.42-1.44-8.19-2.81l-.65-1-.39-.06a5.54,5.54,0,0,1-3.19-1l-.94-1a12.72,12.72,0,0,1-2.28-4,4.59,4.59,0,0,1-1-1.36,6.45,6.45,0,0,1-3.48-2.9.89.89,0,0,1-.85-1,1,1,0,0,1,.25-.51h0c-.41-.11-.52-.14-1-.24l-.6.26-1.76.95a5.61,5.61,0,0,1-1.77,0c-2.47-1.13-2.49-1.12-3.18-2,0-.11-.07-.22-.1-.33-.8.23-.86.25-1.09.3a2.93,2.93,0,0,1-.56-.06c-.46-.37-.46-.37-.71-.43a2.92,2.92,0,0,1-.36-.28c-.18-.71-.18-.71-.31-.84a1.33,1.33,0,0,1-.06-.37l.35-.7,1.88.35-.21-.5.69.32-.57-.35.68-.07h-.85a5.68,5.68,0,0,0,1.45-1,2.07,2.07,0,0,0,.7-.7,2.35,2.35,0,0,1-.27-.2c1.19-.65,1.18-.66,2.35-1.25a3.84,3.84,0,0,1,.51.1.57.57,0,0,1,.32-.53l.6-.33.05-.15,0,0c.1-.22.16-.38.24-.55l0-.12h0c.17-.38.41-.92,1.11-2.35a7.46,7.46,0,0,1,1.09-.43l-.44,0c-.29,0-.48-.52-.61-.49a42.1,42.1,0,0,0-8.68,3.82,1.19,1.19,0,0,1-1.42.23.75.75,0,0,1,0-1.2c2.89-6,10-10.14,16.87-11.73l4.93-2-.35-.08,1.4-.32.14,0-1.39-.26c-.26,0-.52.07-.78.12-3.78,1.62-7.78,2.36-11.74,3.76-2.11.75-4.24,1.08-6.4,1.7a.94.94,0,0,1-1.23-.12c-.2-.31,0-.78.5-1,5.27-4.31,12.76-7.77,19.35-7.69a8.2,8.2,0,0,1,3.56-.83h.06L222.55,47a21.08,21.08,0,0,1,2.62-.08l-.77-.71c2.29-.7,4.65-1.53,7-2.22a26.07,26.07,0,0,1,7.21-1.14l.53-.06a19.93,19.93,0,0,1,2.63-1.54l.73-.33a1.39,1.39,0,0,1,.23-.08l1.06-.27,2.21-.44a57.77,57.77,0,0,1,9.51-1c-1.14,0-2.27,0-3.38.09s-2.24.14-3.33.27-2.2.23-3.27.4l-1.64.25-1.41.26,0,0,.19-.05.42-.11L244,40l1.73-.37c1.15-.25,2.35-.42,3.54-.61a60.35,60.35,0,0,1,7.33-.63c1.25,0,2.52,0,3.79,0s2.56.17,3.85.28l1.94.27,1,.15.49.07.24,0,.13,0,3.32.7A45.83,45.83,0,0,1,282.82,44a42.82,42.82,0,0,1,5.43,3.36c.79.6,1.58,1.21,2.34,1.83s1.43,1.27,2.13,1.92a54.55,54.55,0,0,1,11.54,16.28,61.21,61.21,0,0,1,4.89,15.35,53.52,53.52,0,0,1,.92,11.9,77.46,77.46,0,0,1-.35,16.83,93,93,0,0,1-3.61,16.05A107.34,107.34,0,0,1,300,142.47c-.62,1.19-1.2,2.4-1.86,3.56l-1,1.74-1,1.65-2,3.3c-.65,1.11-1.32,2.21-2.05,3.28-2.79,4.34-5.74,8.65-8.89,12.79l-2.35,3.12-2.41,3-1.21,1.52-1.21,1.47-2.41,2.95c-3.15,3.82-6.23,7.55-8.76,11a56.34,56.34,0,0,0-5.79,9.93c-.54,1.32-1.09,2.35-1.44,2.41s-.17-1,.32-2.34c.47-1.16,1.06-2.31,1.59-3.51s1.34-2.39,2.06-3.62,1.61-2.48,2.52-3.76,1.88-2.54,2.94-3.88c4.15-5.26,9-10.9,13.55-16.8a201.48,201.48,0,0,0,12.67-18.43l2.83-4.77c.94-1.65,1.85-3.35,2.71-5.07a103.23,103.23,0,0,0,4.6-10.61,94.56,94.56,0,0,1-3.95,8.83c-.71,1.44-1.48,2.84-2.25,4.25L296,146.62l-1.23,2c-1.64,2.62-3.24,5.27-5.06,7.81-.9,1.27-1.73,2.6-2.67,3.85L284.26,164c-3.82,5-7.89,9.85-12,14.41s-8,8.91-11.2,13.11l-1.19,1.62c-.36.54-.69,1.08-1,1.61l-1,1.59c-.33.53-.58,1.07-.88,1.6-.56,1-1.18,2-1.63,3.06l-.76,1.49-.38.74-.33.76-.74,2-.36.92-.28.6a26,26,0,0,0-1.05,2.44,45.81,45.81,0,0,0-1.63,5,26.28,26.28,0,0,0-.84,5.13,12.38,12.38,0,0,0,.7,5.09,7.52,7.52,0,0,0,3.29,3.89,12.18,12.18,0,0,0,5,1.43,26.32,26.32,0,0,0,5.25-.12c.87-.1,1.74-.22,2.6-.36l1.29-.23c.47-.08.67-.15,1.76-.31,3.31-.52,5.82-.94,8.5-1.51s5.18-1.2,7.66-1.93a99.79,99.79,0,0,0,14.34-5.46c2.38-1.12,4.57-2.24,7.3-3.69l8.19-4.34c5.67-3,11.77-6.07,18.56-8.95a130.89,130.89,0,0,1,14.83-5.35,78,78,0,0,1,17.55-3.29,52.25,52.25,0,0,1,20.78,3,49.67,49.67,0,0,1,9.46,4.7,60.92,60.92,0,0,1,7.65,5.81,62.57,62.57,0,0,1,6.51,6.86,68.5,68.5,0,0,1,5,7.26A99.72,99.72,0,0,1,422,236.45l1.31,3.27c.45,1.15.92,2.37,1.35,3.56.87,2.4,1.63,4.85,2.33,7.31a111.05,111.05,0,0,1,3.17,15,57.59,57.59,0,0,1,.6,7.35,11.59,11.59,0,0,1-.37,3.82c-.44.72-1-3.08-1.74-8.4A110.3,110.3,0,0,0,425.26,253c-.75-2.54-1.6-5.06-2.53-7.55-.47-1.25-1-2.48-1.48-3.71l-1.47-3.46a103,103,0,0,0-7.42-14.38A58.37,58.37,0,0,0,400,209.71c-1.25-1.06-2.58-2-3.9-2.94l-2-1.32c-.67-.44-1.5-.88-2.25-1.31a47.68,47.68,0,0,0-9.94-4,50.62,50.62,0,0,0-20.4-1.13,75.59,75.59,0,0,0-8.85,1.79c-1.37.36-2.64.73-4,1.11s-2.59.8-3.87,1.23A155.08,155.08,0,0,0,330.11,209c-4.69,2.13-9.15,4.38-13.47,6.62l-6.35,3.31-3.09,1.61-2.94,1.5a101,101,0,0,1-23.21,8.35c-2,.48-4.09.86-6.16,1.22l-3.21.49-3.42.49a59.55,59.55,0,0,1-7.81.8,26.11,26.11,0,0,1-3.95-.17,15,15,0,0,1-3.84-.93,8.89,8.89,0,0,1-3.32-2.13,9.31,9.31,0,0,1-1.26-1.54,10.74,10.74,0,0,1-.84-1.82,15.4,15.4,0,0,1-.6-6.77,35,35,0,0,1,1.44-6.6.88.88,0,0,1-.36.11c-.44,0-.73-.42-.84-1.19a43.37,43.37,0,0,0-2,8.15,24.53,24.53,0,0,0-.18,4.29,15.35,15.35,0,0,0,.89,4.22,9.79,9.79,0,0,0,4.21,4,15.59,15.59,0,0,0,5.72,1.46,47.25,47.25,0,0,0,11.56-.87l1.43-.25,2.43-.37,2.37-.36c.75-.13,1.5-.23,2.23-.37q4.46-.78,8.8-1.85a121.69,121.69,0,0,0,17.26-5.68l3-1.25,3-1.35,6.36-2.91c4.27-1.94,8.62-3.89,13.08-5.7s9-3.53,13.74-5c2.36-.73,4.74-1.43,7.17-2,1.2-.31,2.42-.6,3.65-.86l1.85-.41,1.92-.37a64.87,64.87,0,0,1,10.37-1.71,46.25,46.25,0,0,1,11.38.55,42.07,42.07,0,0,1,11.19,3.66c.89.41,1.71.91,2.57,1.37s1.55,1,2.34,1.47a50.88,50.88,0,0,1,4.4,3.25,53.11,53.11,0,0,1,7.58,7.72,66.15,66.15,0,0,1,5.7,8.47c1.63,2.84,3,5.65,4.31,8.43.63,1.38,1.25,2.76,1.84,4.11s1.23,2.88,1.81,4.32a9.22,9.22,0,0,1,.7,2.32c0,.39-.26-.08-.65-1s-.85-2-1.29-3l-1.35-2.88c-.87-1.85-1.81-3.75-2.78-5.66a88.82,88.82,0,0,0-7.08-11.61,57.25,57.25,0,0,0-4.73-5.62,52.23,52.23,0,0,0-5.65-5c-1-.78-2.06-1.48-3.1-2.2s-2.07-1.34-3.3-2a38.15,38.15,0,0,0-7.47-3.13c3.13,1.54,4.6,3,4.1,3.47s-3-.16-6.66-.76a38.28,38.28,0,0,1,6.29,2.44c1,.47,2,1.07,2.94,1.61s1.8,1.15,2.66,1.78c2.16,1.54,3.54,3.14,3.3,3.31s-2-.95-4-2.35c-.87-.62-1.77-1.17-2.67-1.75s-1.89-1.12-2.91-1.57a35,35,0,0,0-6.22-2.34,39.45,39.45,0,0,0-13.05-1.17,61.73,61.73,0,0,0-12.23,2.25c-3.86,1.05-7.63,2.31-11.32,3.72a261.71,261.71,0,0,0-24.95,12.3l-6,3.2c-2,1-3.89,2-5.87,3a115.24,115.24,0,0,1-12.05,4.91,14.59,14.59,0,0,1,5.41.12h0c2.56-1,5.07-2,7.55-3.19,5.55-2.82,11.09-6.16,16.79-9.3s11.54-6.25,17.67-8.95c3.06-1.36,6.21-2.59,9.42-3.7,1.59-.56,3.23-1,4.86-1.55s3.35-.93,5.09-1.29a45.8,45.8,0,0,1,10.87-1,35.06,35.06,0,0,1,11.12,2.12l1.34.5,1.3.59a26.15,26.15,0,0,1,2.53,1.29,44.84,44.84,0,0,1,12.61,10.55c4.66,5.62,7.88,11.85,10.74,17.92,1.41,3,2.84,6.21,4,9.41s2.27,6.49,3.17,9.79a112.18,112.18,0,0,1,3.6,20.19,5.57,5.57,0,0,1,0,2,4.61,4.61,0,0,1-.32-1.73,112.58,112.58,0,0,0-4.82-24.2,104.56,104.56,0,0,0-4.4-11.59c-1.69-3.72-3.39-7.36-5.41-11l0,.07c.25.63.18.81-.26.21a17.26,17.26,0,0,1-1.28-2.27c-.31-.72-.15-.74.24-.24a57.11,57.11,0,0,0-7-9.69,46.66,46.66,0,0,0-4.4-4.26,44.9,44.9,0,0,0-5-3.59,37.4,37.4,0,0,0-5.55-2.91,36.44,36.44,0,0,0-6-1.85,38.8,38.8,0,0,0-12.37-.46,62.57,62.57,0,0,0-11.48,2.6c-3.64,1.14-7.2,2.47-10.66,3.94a202.59,202.59,0,0,0-19.87,10c6-3.14,12.16-6.19,18.56-8.82,3.19-1.32,6.45-2.52,9.77-3.56a78.27,78.27,0,0,1,10.24-2.6,43,43,0,0,1,10.9-.57,34,34,0,0,1,10.76,2.73,40.39,40.39,0,0,1,9.22,5.84,43.54,43.54,0,0,1,7.35,7.83,64.49,64.49,0,0,1,5.45,7.49,7.87,7.87,0,0,1,.93,2.07c0,.26-.38-.22-.83-1s-.88-1.44-1.36-2.15c2.6,4.59,3.75,8.45,3.14,8.66-.75,0-3.12-3.68-5.87-8.21-3.76-6-8.58-11.43-14.64-15.08a30.48,30.48,0,0,0-9.68-4,33.4,33.4,0,0,0-10.46-.63c-1.51.17-3,.45-4.49.77s-2.93.88-4.36,1.41a42.46,42.46,0,0,1,16-1.31,29.55,29.55,0,0,1,7.63,2.08,34.56,34.56,0,0,1,6.84,4,44,44,0,0,1,10.75,11.67A123.07,123.07,0,0,1,406.55,248c.82,1.66,1.3,3.18,1.11,3.3s-1-1.14-1.81-2.79a136.77,136.77,0,0,0-7.13-12.23,46,46,0,0,0-9-10.07,34.76,34.76,0,0,0-5.48-3.68,27.58,27.58,0,0,0-5.86-2.45,29.16,29.16,0,0,0-12.6-.59,48.37,48.37,0,0,0-6.49,1.47c-2.17.64-4.4,1.42-6.57,2.22a138.11,138.11,0,0,0-12.9,5.64c-4.25,2.09-8.45,4.38-12.7,6.73s-8.46,4.75-13,7.14A127.21,127.21,0,0,1,296,252.5,133.69,133.69,0,0,1,276,259.32c1.74-.25,3.55-.51,5.32-.85a110.32,110.32,0,0,0,31.66-11.05c4.84-2.56,9.06-5.19,13.26-7.73s8.26-5,12.35-7.35,8.19-4.48,12.4-6.34a79.11,79.11,0,0,1,12.73-4.61,29.9,29.9,0,0,1,12.48-.65,24.24,24.24,0,0,1,6,1.92c1,.43,2,1,2.94,1.56l1.43.92c.47.31.92.66,1.38,1a3.27,3.27,0,0,1,1.24,1.3c0,.16-.57-.14-1.27-.72a33,33,0,0,0-5.54-3.34,22.94,22.94,0,0,0-5.65-1.9,28.46,28.46,0,0,0-11.81.42,52.92,52.92,0,0,0-6.08,1.82c-2.09.76-4.19,1.59-6.26,2.5-4.15,1.81-8.27,3.89-12.45,6.19-6.94,3.81-13.63,8-20.57,12.22A143.38,143.38,0,0,1,296.72,256a122.87,122.87,0,0,0,23.17-10.52c6.86-3.94,13.27-7.89,19.69-11.39a128,128,0,0,1,19.49-8.87c6.46-2.22,12.53-3.18,18.14-1.72a7,7,0,0,1,2.47,1,1.19,1.19,0,0,1,.62.05c.36.1.71.25,1.08.38a9,9,0,0,1,1.12.45l1.17.53c.38.19.76.41,1.14.62.79.39,1.51.91,2.28,1.38s1.48,1,2.17,1.65a4.6,4.6,0,0,1,1.31,1.47C390.75,231.35,390.35,231.13,389.75,230.63ZM220.83,63l-.24-.05.65-.07,1.39.56Zm-4.75,9.32h0l-.82-.27Zm75.32,80.64c1.16-1.87,2.31-3.75,3.47-5.63s2.27-3.93,3.32-5.93a103.11,103.11,0,0,0,5.48-12.55,86.51,86.51,0,0,0,5.27-27.42,78.85,78.85,0,0,1-1.11,13.78,81.45,81.45,0,0,1-2.63,10.25,90.82,90.82,0,0,1-3.74,9.75,102.53,102.53,0,0,1-4.7,9.23l-1.31,2.22-1.35,2.1ZM212.3,63a12.43,12.43,0,0,1,3.38.47,5.42,5.42,0,0,1,1.42-1.18A40,40,0,0,1,221.6,60c-.43-.23-.07-.4.07-.55l.47-.4-5.11,2C215.48,61.7,213.89,62.53,212.3,63Zm-8.46,8.89-.25,0-.27-.72Zm.5,1.19.26-.09C204.73,73.27,204.6,73.26,204.34,73.12Zm2.38-.86a1.57,1.57,0,0,0-.52-.06Zm15.9,13.89-2-3.08,1.83,3Z"/><path d="M290,101.56l.37,0a.83.83,0,0,1-.56.47c3.49-.1,6-3,7.23-5.79a1.39,1.39,0,1,0-1.15-2.45,2.7,2.7,0,0,1-.68,0,13.74,13.74,0,0,0-5.57.28H291a5.51,5.51,0,0,0-1.61.52l.41.24a4.28,4.28,0,0,0-4.14,3.61,3,3,0,0,0,3.49,3.06Z"/><path d="M295.23,103.44c-1.13.12-2.21.23-3.34.31l-.31-.1.75.91,0-.07a6.16,6.16,0,0,1,2.18-3.41l.32-.4a.92.92,0,0,0,0-.76,1.09,1.09,0,0,0-1.49-.46l-.7.32c-1.95.42-4.39,2-4,4.2.1.5.62.85,1,1.26a1.56,1.56,0,0,0,2.13.36,1.5,1.5,0,0,0,.63-2l.48-.12-.14.43c-.18-.69.4-1.27.71-1.9l.67-.64-1.48-1.21-.27.45c.07,0,.2.1.2.11a17.69,17.69,0,0,1-1.54,2.59l-.62,1.24a.8.8,0,0,0,.76.91h.68l-.34,0c1.27-.38,2.51-.92,3.79-1.24a.42.42,0,0,0,.35-.43A.35.35,0,0,0,295.23,103.44Z"/><path d="M291.72,106.1a1,1,0,0,0-.71.19v.19l.51,0C291.87,106.52,291.89,106.3,291.72,106.1Z"/><path d="M291,106.48h-.22l.2.08,0,0Z"/><path d="M375.56,95.44a12.09,12.09,0,0,0,6.78.46,18.05,18.05,0,0,0,7.32-4.11c.16-.14.26-.31.21-.37s-.21,0-.36.16a18,18,0,0,1-7.22,4,11.77,11.77,0,0,1-6.61-.47c-.16,0-.35,0-.39,0S375.39,95.39,375.56,95.44Z"/><path d="M412.18,65.1c0,.2,0,.21.15,0a1.69,1.69,0,0,0,.23-.64c0-.17-.06-.19-.15,0A2,2,0,0,0,412.18,65.1Z"/><path d="M416.21,68.4c-.3,1.16-.52,2.28-.73,3.29a2.08,2.08,0,0,1-.2.53c.12,0,.13.21,0,.64a84,84,0,0,1-10.84,25.39.91.91,0,0,1,0,.5,8.25,8.25,0,0,1-1.92,3l-.8.78a36.85,36.85,0,0,1-11.4,8.21c-.43.28-.9.57-1.41.85a15.14,15.14,0,0,1-1.71.74,18.92,18.92,0,0,1-3.12,1.23,22.45,22.45,0,0,1-3.34.87,24.12,24.12,0,0,1-3.45.44,27.73,27.73,0,0,1-3.4,0c.26.12.42.25.4.37-.12.28-1.19.39-2.4.22-.59-.08-1.14-.19-1.71-.29a43.78,43.78,0,0,0,5.14.91c.27,0,.51,0,.74.07l1.55,0a10.55,10.55,0,0,0,1.58-.05c1.07-.1,2.16-.17,3.23-.37s2.33-.51,3.46-.83,2.16-.79,3.21-1.21,2-1,3-1.48,1.86-1.11,2.7-1.74a38.64,38.64,0,0,0,8.41-8.26,56.72,56.72,0,0,0,5.54-9L409.81,91l1-2.3c.32-.76.66-1.52.95-2.29l.84-2.29a2,2,0,0,1,.33-.66c.11-.09.17,0,.1.2-.29,1-.57,2-.85,3s-.63,1.94-.93,2.92c-.59,2-1.36,3.88-2.13,5.87a44.45,44.45,0,0,1-7.56,12.37,38.09,38.09,0,0,1-8.16,7c-.8.51-1.66,1-2.5,1.44s-1.8.84-2.72,1.24l-1.4.58c-.47.19-1,.32-1.48.48-1,.28-2,.59-3,.81a41.19,41.19,0,0,1-12,.49l-2.67-.32-2.42-.38c-.84-.14-1.53-.27-2.27-.41l-2.14-.39-2-.52-1.87-.44-.92-.21L355,117l-1.7-.31a37.08,37.08,0,0,0-6.14-.46,39.51,39.51,0,0,0-11.41,1.93,51.9,51.9,0,0,0-8.06,3.4c-2.79,1.7-5.5,3.42-8.25,5.41-1.27,1.25-3.4.89-4.83-.86a4.73,4.73,0,0,1-1-3.64l-.41.25-.76.22a3.15,3.15,0,0,1-2.3-.32l-1-.46c-1.62-1.07-3.5-1.59-5.14-2.75l-.31-.68-.24-.08a3.74,3.74,0,0,1-2-1l-.48-.74a8.63,8.63,0,0,1-1-2.77,3.07,3.07,0,0,1-.51-1,4.29,4.29,0,0,1-1.91-2.19.59.59,0,0,1-.44-.75.7.7,0,0,1,.19-.29h0a4.47,4.47,0,0,0-.61-.26l-.38.1-1.12.43a3.09,3.09,0,0,1-1.05-.16c-1.38-.95-1.38-.95-1.73-1.54a1.7,1.7,0,0,1,0-.22c-.48.07-.51.07-.65.08a1.83,1.83,0,0,1-.32-.09c-.24-.28-.24-.28-.38-.34a1.57,1.57,0,0,1-.19-.21c-.05-.46-.05-.46-.12-.56a1.1,1.1,0,0,1,0-.24c.15-.26.21-.36.24-.4L292,107l-.09-.34.38.27-.31-.28.4,0-.5-.08a3.17,3.17,0,0,0,.9-.47,1.24,1.24,0,0,0,.45-.38l-.15-.15c.73-.31.73-.31,1.45-.59a2.65,2.65,0,0,1,.3.11.32.32,0,0,1,.21-.31l.37-.16,0-.09v0l.17-.33,0-.07h0l.77-1.44a5.53,5.53,0,0,1,.66-.2l-.27,0c-.17,0-.27-.39-.34-.38a23.89,23.89,0,0,0-5.27,1.72.62.62,0,0,1-.82,0,.52.52,0,0,1,.08-.77c1.91-3.6,6.16-5.83,10.31-6.37,1-.31,2-.65,3-1l-.21-.09.85-.11.08,0-.84-.28a3.55,3.55,0,0,0-.46,0c-2.26.84-4.67,1-7,1.67-1.26.35-2.54.38-3.79.64a.47.47,0,1,1-.4-.82c3.17-2.46,7.59-4.3,11.49-3.81a3.92,3.92,0,0,1,2.09-.36h0l-.64-.27c.56-.12,1,.14,1.55.1l-.47-.55c2.68-.68,5.36-1.94,8.12-1.8l.3,0a15,15,0,0,1,1.36-1.12c.12-.08.25-.17.38-.24l.1-.06.25-.1.51-.19c.69-.25,1.41-.49,2.16-.71l-3.08.63c1-.43,2.1-.86,3.18-1.23a33.21,33.21,0,0,1,3.47-.9,44.93,44.93,0,0,1,5.08-.66,37.93,37.93,0,0,1,5,0,21.89,21.89,0,0,1,7.69,1.75,70.3,70.3,0,0,1,18.5,2.76c5.82,1.62,10.94,3.75,14.84,4.82.38.08.68.29.71.47s-.28.25-.66.16c-2.8-.55-6.31-1.76-10.2-2.94a87.67,87.67,0,0,0-12.62-3,79.75,79.75,0,0,1,10.49,3.17c3.29,1.21,6.39,2.52,9.14,3.52.73.24,1.38.41,2.08.62s1.24.37,1.85.62a9.08,9.08,0,0,0,1.1.26l1.06.22,1,.1a3.75,3.75,0,0,0,.93.07,9.79,9.79,0,0,0,1.8-.08c.3,0,.6-.06.9-.11l.91-.26a12.53,12.53,0,0,0,3.74-1.62l.93-.57.92-.7a19.9,19.9,0,0,0,1.81-1.57,43.09,43.09,0,0,0,5.43-6.66,71.74,71.74,0,0,0,4.52-8.11c1-2.06,1.9-4.21,2.81-6.29.43-1,.83-2.13,1.25-3.19s.85-2.1,1.22-3.19c.75-2.17,1.59-4.28,2.32-6.51s1.56-4.42,2.3-6.73c.37-1.23,1-2.31,1.26-2.38s.27.88-.1,2.13c-2.74,9.73-5.85,19.25-10.23,27.92a57.18,57.18,0,0,1-7.75,11.76A29.24,29.24,0,0,1,388,96.15a16.44,16.44,0,0,1-5.29,2.46,12.75,12.75,0,0,1-4.48.43.55.55,0,0,1,0,.17.65.65,0,0,1-.41.55,7,7,0,0,0,1.35.09,7.5,7.5,0,0,0,1.34,0l1.35-.11c.45-.11.91-.22,1.38-.31,5-1.94,9.28-6.43,13.63-12a102.44,102.44,0,0,0,7.91-11.87A165.62,165.62,0,0,0,411,58.33a1.27,1.27,0,0,1,.26-.55c.08-.07.09.08,0,.32-.53,2.07-1,4.19-1.7,6.26s-1.26,4.2-2,6.26c.45-.57.84-.86,1.08-.71s.28.74.14,1.58L410,68.7c.23-.58.5-1,.62-.94s.07.57-.13,1.13c-.8,1.9-1.55,3.82-2.38,5.7s-1.67,3.75-2.65,5.54a68.69,68.69,0,0,1-7.27,12.61,3.11,3.11,0,0,1,1.46-.66h0l1.31-1.85A124,124,0,0,0,409.71,71c2.47-6.7,4.65-13.59,6.68-20.57.08-.28.19-.49.25-.48s0,.23,0,.48c-.62,2.11-1.25,4.21-1.87,6.31s-1.31,4.16-2,6.24v0c.09-.15.16-.16.15,0a1.87,1.87,0,0,1-.22.64c-.11.18-.17.14-.15,0a163.6,163.6,0,0,1-9,22.27,141.5,141.5,0,0,0,9-20.16c.19-.79.39-1.57.59-2.37a1.34,1.34,0,0,1,.26-.55c.07,0,.08.13,0,.36s-.1.44-.16.66c.48-1.32,1-2.28,1.34-2.16s.19,1.42-.29,2.8c-.63,1.86-1.23,3.73-1.88,5.57s-1.38,3.67-2.12,5.48l-.46,1.19L409.58,78c1.33-2.75,2.46-5.58,3.62-8.4s2.18-5.68,3.1-8.56c.15-.5.37-.9.48-.88s.08.46-.07,1a151.6,151.6,0,0,1-4.79,15.48,90.83,90.83,0,0,1-7.07,15,55.28,55.28,0,0,1-5.6,10.24c.34-.37.69-.75,1.05-1.12,4.38-4.87,6.91-10.15,9.06-15.31s3.68-10.43,5.48-15.91c.08-.28.2-.49.27-.5s.06.19,0,.47c-1.72,5.37-3.06,10.41-5.28,15.72a94.25,94.25,0,0,1-6.33,12.53,65.5,65.5,0,0,0,6.65-12c.82-2.06,1.72-4.08,2.42-6.16.37-1,.75-2.06,1.12-3.1s.69-2.08,1-3.13a3.18,3.18,0,0,1,.41-.92.37.37,0,0,1,0-.24c.24-1.08.5-2.26.78-3.44a1.46,1.46,0,0,1,.27-.6C416.24,68,416.26,68.15,416.21,68.4ZM303.85,103.06l-.15-.06.4,0,.85.5Zm-3.34,5.71h0l-.49-.26ZM357.9,91.93a106.17,106.17,0,0,0-15.52-3.24c1.31,0,2.6,0,3.91.18A61.88,61.88,0,0,1,357.9,91.93Zm-59.26,10.45a7.8,7.8,0,0,1,2,.6,2.88,2.88,0,0,1,.91-.66,21.1,21.1,0,0,1,2.8-1.18c-.26-.2,0-.28.06-.37l.3-.23c-1.05.3-2.1.6-3.17.93S299.62,102.18,298.64,102.38Zm-5.49,5-.14,0-.12-.48S293,107.06,293.15,107.37Zm.22.8.16,0C293.59,108.3,293.51,108.28,293.37,108.17Zm1.46-.32a1.57,1.57,0,0,0-.31-.09Zm8.67,10.4-1-2.14.87,2.09Z"/></g></g></svg>