<svg xmlns="http://www.w3.org/2000/svg" viewBox="0 0 421.67 483.43"><g id="Layer_2" data-name="Layer 2"><g id="Layer_1-2" data-name="Layer 1"><path d="M109,208.68l-.34-.33c.12-.26.37-.3.69-.23a4.31,4.31,0,0,0-5-.41,4.9,4.9,0,0,0-1,.72,8.08,8.08,0,0,0-.91,1,9.73,9.73,0,0,0-1.33,2.43c-.88.11-1.29,1.25-.93,2.4a2.31,2.31,0,0,0,2.13,1.84,2.18,2.18,0,0,1,.64.29,16.12,16.12,0,0,0,2.54,1.82c.42.24.83.42,1.24.64s.83.41,1.24.58c-.37-.29-.75-.59-1.11-.89a2.79,2.79,0,0,0,1.42.37l-.32-.62a2.35,2.35,0,0,0,2.48.38,3.16,3.16,0,0,0,1.57-2.34c.59-2.47-.18-5.64-2.12-7Z"/><path d="M104.13,202.37a22.87,22.87,0,0,1,3.71,1.84l.29.38-.45-1.85v.12a7.18,7.18,0,0,1-3.35,3.44l-.43.37a1.65,1.65,0,0,0-.17,1.07,1.81,1.81,0,0,0,1.45,1.64H106c2,.58,4.66.37,5.17-3a7.75,7.75,0,0,0-.42-2.53,2.16,2.16,0,0,0-2-2.15,1.87,1.87,0,0,0-1.45,2.37c-.18-.06-.37-.13-.54-.17.09-.19.19-.34.29-.51,0,1.09-.84,1.56-1.33,2.26l-.87.51,1.24,2.72.38-.48c-.07-.12-.18-.28-.18-.29.36-.49.71-1,1.08-1.44a7.2,7.2,0,0,1,1.25-1.16l1.1-1.25a1.75,1.75,0,0,0-.4-1.86l-.72-.53.34.33c-.75-.22-1.52-.37-2.29-.52s-1.54-.2-2.32-.39a.43.43,0,0,0-.54.41A.65.65,0,0,0,104.13,202.37Z"/><path d="M109,201c.27.19.53.39.84.28l.1-.25-.53-.43C109,200.33,108.88,200.63,109,201Z"/><path d="M109.91,201.06l.22.18L110,201l0,0Z"/><path d="M94.47,330.67a77.74,77.74,0,0,0,35.07,6.48,66.31,66.31,0,0,0,17.28-3.29,67.26,67.26,0,0,0,16-7.89c.69-.42,1.18-.9,1.13-1s-.6.18-1.23.57a66.51,66.51,0,0,1-15.85,7.85,65.46,65.46,0,0,1-17.11,3.29,73.92,73.92,0,0,1-17.66-1.12,81.69,81.69,0,0,1-17.14-5.22,3.23,3.23,0,0,0-1.54-.4C93.3,330,93.78,330.36,94.47,330.67Z"/><path d="M190.74,223.19c.41.54.49.47.19-.17a11.46,11.46,0,0,0-1.25-2c-.36-.44-.45-.35-.18.18A13.92,13.92,0,0,0,190.74,223.19Z"/><path d="M200.82,224.75c2.18,3.72,4,7.38,5.63,10.69a14.2,14.2,0,0,1,.71,1.91c.06-.29.53.42,1.1,1.89a91.56,91.56,0,0,1,5.92,23.07,90.08,90.08,0,0,1-.49,24.79c-.27,2.09-.77,4.12-1.16,6.2l-.77,3.06c-.25,1-.51,2-.85,3.06-.67,2-1.21,4.09-2,6.06s-1.51,4-2.46,5.93a96.66,96.66,0,0,1-13.71,21.77,4.21,4.21,0,0,1-.62,1.41,36.32,36.32,0,0,1-3.16,4.1c-.7.81-1.55,1.6-2.41,2.43s-1.76,1.7-2.75,2.49l-3,2.31A95.81,95.81,0,0,1,161,357.57a90.6,90.6,0,0,1-22,6.44c-.76.2-1.54.43-2.37.6l-2.56.47-2.72.45c-.94.11-1.9.19-2.88.27a106.06,106.06,0,0,1-39.76-2.72c.77.4,1.21.73,1.15.92-.38.37-3.56-.14-7.06-1.39-1.75-.64-3.53-1.23-5.25-1.94A124.42,124.42,0,0,0,92.67,366c.75.2,1.44.4,2.06.6a109.66,109.66,0,0,0,17.83,2.72,99.45,99.45,0,0,0,39.23-5.11,95.25,95.25,0,0,0,32.93-19.65,105.25,105.25,0,0,0,12.54-13.87A101.32,101.32,0,0,0,206.78,315,98.65,98.65,0,0,0,213,297.86a96,96,0,0,0,2.89-17.64,17.5,17.5,0,0,1,.27-2.69c.12-.45.25-.36.23.52a100.83,100.83,0,0,1-2.74,22,93.79,93.79,0,0,1-7.58,21,96.17,96.17,0,0,1-32.29,36.83c-1.12.81-2.32,1.48-3.48,2.21s-2.34,1.47-3.57,2.11c-2.44,1.29-4.87,2.64-7.44,3.73a100.25,100.25,0,0,1-15.8,5.61,109.66,109.66,0,0,1-33.14,3.35A123.13,123.13,0,0,1,93.8,373l-4.09-.87-2-.45-2-.54L81.6,370l-4-1.28c-2.69-.82-5.27-1.9-7.91-2.89-1.31-.52-2.58-1.11-3.88-1.67s-2.59-1.12-3.85-1.77l-3.8-1.9c-1.27-.64-2.49-1.37-3.73-2.06-2.49-1.37-4.95-2.88-7.38-4.47a121.9,121.9,0,0,1-26.68-25.17,101.7,101.7,0,0,1-10.31-16.28A93.48,93.48,0,0,1,3,293.73a102.91,102.91,0,0,1-2-39.31A122.08,122.08,0,0,1,12.23,217.5,123.22,123.22,0,0,1,26.07,195a128.6,128.6,0,0,1,18.07-19.18c.81-.75,1.69-1.41,2.55-2.11l1.29-1,.29-.25,1-.84c.64-.55,1.27-1.11,1.92-1.64,1.34-1,2.68-2.06,4-3.06l2.05-1.49c.69-.48,1.41-.93,2.12-1.39q2.14-1.36,4.32-2.69c1.46-.88,3-1.65,4.5-2.47s3-1.64,4.64-2.32A11.58,11.58,0,0,1,79.75,155a6.3,6.3,0,0,1,4.8,3,6.2,6.2,0,0,1-.72,6.39l1.11-.35,1.88-.18a6.53,6.53,0,0,1,4.66,1.19l1.63,1.17c2.38,2.41,5.44,4.14,7.3,6.9l0,1.2.35.27a5.57,5.57,0,0,1,2.41,2.77l.19,1.41a14.61,14.61,0,0,1-.41,4.73,5,5,0,0,1,.13,1.75,7.19,7.19,0,0,1,1.36,4.48,1,1,0,0,1,.17,1.39,1,1,0,0,1-.41.29h0a10,10,0,0,0,.65.79c.34.07.54.13.54.13.88.1.88.1,1.64.22a4.38,4.38,0,0,1,1.19,1c1.09,2.39,1.07,2.4,1.15,3.49a2.72,2.72,0,0,1-.07.33c.57.28.61.3.76.39a2.41,2.41,0,0,1,.3.38c.11.58.11.58.23.77a3.92,3.92,0,0,1,.09.44c-.18.7-.18.69-.16.88a2.29,2.29,0,0,1-.1.34L110,201l-.94-1.39-.06.54-.28-.66.2.62-.42-.33.5.49c-.86-.1-.87-.1-1.19,0a1.14,1.14,0,0,0-.66.19,2.69,2.69,0,0,1,.1.33c-.93-.1-.93-.13-1.84-.18q-.16-.18-.3-.36a.36.36,0,0,1-.36.32h-.47l-.08.11v.05l-.3.38-.06.09h0l-1.28,1.62a4.38,4.38,0,0,1-.82-.12l.3.22c.19.17.22.73.31.77a14.66,14.66,0,0,0,3.14.69c.51.06,1,.1,1.53.14l1.52.25c.33-.12.71.16.84.6a.81.81,0,0,1-.36,1,9.55,9.55,0,0,1-1.24,1.16,10.8,10.8,0,0,1-1.3,1,9.27,9.27,0,0,1-2.88,1.14,15.6,15.6,0,0,1-6.54.07,23.86,23.86,0,0,0-3.26.44l.25.19-.94,0-.09,0,1,.65a4.71,4.71,0,0,0,.52.09,10.78,10.78,0,0,1,3.76-.05c.64.08,1.26.14,1.89.26s1.26.25,1.87.34a16.33,16.33,0,0,1,3.82,1.32c.29,0,.57.31.64.72s-.1.72-.37.73a13.75,13.75,0,0,1-11.43.18,2.9,2.9,0,0,1-2.2-.06h0l.78.58c-.58,0-1.16-.49-1.72-.51l.69.93c-1.32.29-2.59.82-3.9,1.25a9.8,9.8,0,0,1-4.13.89,1.59,1.59,0,0,1-.3.06,16.83,16.83,0,0,1-.73,1.82c-.07.15-.15.28-.23.42s0,0-.08.11l-.45.35-.9.71c-1.2,1-2.39,2.06-3.7,3.07l2.76-1.9a12.73,12.73,0,0,1,1.38-.92l1.35-.8s-.17.15-.26.23l-.34.29-.69.56c-.47.36-.89.79-1.33,1.19-.87.83-1.8,1.58-2.67,2.41s-1.74,1.7-2.66,2.52-1.74,1.79-2.67,2.67a111,111,0,0,0-13.37,16.32c-3.91,5.55-6.7,10.88-9,14.28A55.9,55.9,0,0,0,49,281a42.18,42.18,0,0,0,2.21,9.19A49.67,49.67,0,0,0,55.5,299a67.46,67.46,0,0,0,13.81,16.11,78,78,0,0,0,8.94,6.66,88.45,88.45,0,0,0,9.81,5.54,7,7,0,0,1,2.73,1.78c0,.32-1,.11-2.42-.53a90.12,90.12,0,0,1-14.33-8,78.83,78.83,0,0,1-12.33-10.48c-7.33-7.74-12.49-16.75-14.41-26.05a52,52,0,0,0,10,23.08,78.35,78.35,0,0,0,20.84,19.07l3.25,1.88c1.08.63,2.22,1.15,3.33,1.74S87,331,88.07,331.52s2.19,1.14,3.32,1.63c23,9.73,48.89,9.8,69.7-4a70.49,70.49,0,0,0,27.78-35.09,69.29,69.29,0,0,0,2.25-7.32c.28-1.27.63-2.52.83-3.81s.49-2.57.64-3.88c2-14.68-.75-29.11-6.84-42.24a84.41,84.41,0,0,0-5.16-9.5c-1-1.51-2-3-2.94-4.32-.49-.66-1-1.33-1.26-1.6l-1.76-1.92a68.91,68.91,0,0,0-17-12.93c-3.47-1.84-6.77-3.54-7-4.14s2.59.07,6.25,1.83a69.81,69.81,0,0,1,19.07,13.38c.69.68,1.32,1.4,2,2.09.42.45.43.46.72.81s.54.67.82,1c1.14,1.48,2.27,3.12,3.34,4.78a86.23,86.23,0,0,1,5.73,10.53,80.65,80.65,0,0,1,6.65,22.83,72.05,72.05,0,0,1-.72,23.57l-.27,1.47-.36,1.45c-.24,1-.42,1.94-.73,2.9l-.84,2.88-1,2.8c-.6,1.89-1.5,3.66-2.25,5.5-.4.9-.89,1.77-1.33,2.66s-.87,1.79-1.41,2.63a72.87,72.87,0,0,1-15.1,18.58,71.68,71.68,0,0,1-20.41,12.76c-.93.38-1.89.69-2.83,1l-1.42.52c-.48.17-1,.29-1.44.43l-2.9.84-3,.66c-.5.1-1,.23-1.49.32l-1.51.23c-1,.15-2,.34-3,.45-2,.17-4.06.44-6.13.44a79.52,79.52,0,0,1-21-2.06.44.44,0,0,1,.12.31c-.07.36-.79.53-2,.55a91.19,91.19,0,0,0,12,2.2c2,.17,4.05.43,6.08.45,1,0,2,.11,3.05.08l3,0a73.86,73.86,0,0,0,31.76-10.41,81.21,81.21,0,0,0,25.16-23.95l1.66-2.6c.27-.43.56-.85.81-1.29l.74-1.33,1.48-2.64c.43-.9.87-1.8,1.3-2.69l.65-1.34c.21-.45.38-.92.57-1.37l1.12-2.73c.38-.91.66-1.87,1-2.8l.49-1.4.41-1.41A73.17,73.17,0,0,0,198,275.91a74.56,74.56,0,0,0,.78-11.69,82.7,82.7,0,0,0-7.53-29,88.79,88.79,0,0,0-7.45-13.14c-.71-1-1.44-2-2.17-3-.35-.44-.77-1-1-1.21l-1.26-1.33a68.83,68.83,0,0,0-5.38-5.14,8.33,8.33,0,0,1-1.39-1.31c-.17-.26.22-.06.86.44a70.12,70.12,0,0,1,7.65,6.95l.33.36.39.45.79,1c.54.68,1.07,1.38,1.59,2.09,1,1.42,2,2.91,3,4.43a88.17,88.17,0,0,1,9.29,19.73c-.37-2.31-.42-3.77.06-3.74s1.51,1.61,2.56,4.23a90.86,90.86,0,0,0-3.31-9.7c-.8-2-1.33-3.55-1.11-3.59s1.13,1.4,1.9,3.28a83.6,83.6,0,0,1,6,41.11,81.69,81.69,0,0,1-6.05,24.26,83.57,83.57,0,0,1-5.73,11.18,84.63,84.63,0,0,1-7.48,10.14,23,23,0,0,1,4.13-3h0c1.68-2.06,3.09-4.3,4.56-6.48a85.79,85.79,0,0,0,11.3-34.2,84.89,84.89,0,0,0-4-35.89A94.93,94.93,0,0,0,192,226.51a90.92,90.92,0,0,0-4.89-7.74c-.88-1.24-1.8-2.47-2.72-3.56l-.31-.37-.39-.42-.78-.83c-.53-.54-1-1.12-1.58-1.64a80.35,80.35,0,0,0-31-19,5.26,5.26,0,0,1-1.65-.71,3.77,3.77,0,0,1,1.58.33,84.14,84.14,0,0,1,20,9.83,73.17,73.17,0,0,1,8.73,6.83c.71.6,1.35,1.26,2,1.9l1,1,.95,1,.94,1,.48.51.39.46c.56.67,1.13,1.39,1.67,2.13l0-.06c-.3-.51-.27-.67.17-.19a12.36,12.36,0,0,1,1.36,1.88c.32.61.19.62-.17.2a93.8,93.8,0,0,1,15.49,38,84.43,84.43,0,0,1-3.43,40.52A85.92,85.92,0,0,0,204.22,279a85,85,0,0,0,.13-19,92.91,92.91,0,0,0-11.94-36c-1.52-2.33-3.13-4.59-4.87-6.79a10.58,10.58,0,0,1-1.12-1.72c-.07-.22.36.15.85.76s1,1.22,1.44,1.84c-1.37-2-2.57-3.76-3.43-4.93s-1.37-2.07-1.16-2.22,1.23.55,2.54,1.7a32.37,32.37,0,0,1,4.2,5.13,93.46,93.46,0,0,1,15.42,37.8c.28,1.46.48,2.93.71,4.4s.49,3,.64,4.45a91,91,0,0,0-7.19-31.17A97.18,97.18,0,0,0,193,219a73.88,73.88,0,0,0-4.65-6.58,79.48,79.48,0,0,0-5.56-5.87c-1.37-1.22-2.47-2.37-2.37-2.54s1.32.7,2.72,1.93l2.63,2.43,2.53,2.55a66.88,66.88,0,0,1,4.53,5.7,97.09,97.09,0,0,1,7.45,12.29,95.1,95.1,0,0,1,9.14,27.43,86.65,86.65,0,0,1-.07,29.27,84.67,84.67,0,0,1-3.67,14.31c-.72,2.38-1.77,4.62-2.69,6.93-.5,1.14-1.07,2.24-1.61,3.36s-1.08,2.24-1.72,3.3a92.26,92.26,0,0,1-24.4,31.65l2.14-1.52,2.06-1.65a87.51,87.51,0,0,0,31.09-53.28,92.23,92.23,0,0,0,.28-29.84,102.14,102.14,0,0,0-9.12-28.81,6.82,6.82,0,0,1-.73-1.89c0-.15.44.44.89,1.39a102.55,102.55,0,0,1,9.27,28,89.39,89.39,0,0,1,.18,29.84,90.54,90.54,0,0,1-2.9,12.35c-.32,1-.63,2-.94,3s-.74,2-1.1,2.94-.74,2-1.13,2.92-.86,1.9-1.29,2.84a98.32,98.32,0,0,1-13,20.84,90.07,90.07,0,0,0,13.54-20.54,93.08,93.08,0,0,0,7.44-23,95.31,95.31,0,0,0,1.38-11.9c.15-2,.1-4,.13-6s-.1-4-.3-6a96.25,96.25,0,0,0-4.81-23.32,35,35,0,0,1-1.09-3.51,2.28,2.28,0,0,1-.4-.69c-1.64-3.62-3.55-7.49-5.71-11.31a12.41,12.41,0,0,1-1-2.12C200,223.55,200.32,224,200.82,224.75ZM93.41,198.6l.19.14-.54-.16L92,197.52S92.7,198,93.41,198.6Zm6-7.32h0l.57.67Zm-47.9,108.5a46.69,46.69,0,0,1-5.67-17.07A50.26,50.26,0,0,1,47,264.63a56,56,0,0,0-.72,8.87c-.11,1.14-.1,2.26-.15,3.4s0,2.25.1,3.35a46.7,46.7,0,0,0,.8,6.59A53.09,53.09,0,0,0,51.48,299.78ZM99.91,202A14.52,14.52,0,0,1,97.53,200a3,3,0,0,1-1.26.58,32.46,32.46,0,0,1-3.67.82c.34.39,0,.44-.07.55l-.38.27c1.34-.14,2.69-.25,4-.33A21,21,0,0,1,99.91,202Zm8.08-3.78.14.16-.1.77Zm.14-1.3-.2-.07C108,196.52,108,196.61,108.13,196.87Zm-1.85-.64a2.15,2.15,0,0,0,.31.36C106.28,196.24,106.28,196.23,106.28,196.23Zm-5.91-21V179l.11-3.69Z"/><path d="M126.57,150.62l.26,0c0,.17-.16.28-.35.36,2.45,0,3.93-2.31,4.33-4.5a1.09,1.09,0,0,0-1.18-1.84,1.72,1.72,0,0,1-.44.06,8.48,8.48,0,0,0-3.68.26h.86a2.83,2.83,0,0,0-1,.39l.31.19a2.53,2.53,0,1,0,.26,5.06Z"/><path d="M130.42,152.07c-.79.11-1.58.18-2.37.24l-.23-.08.61.7,0-.05a4.58,4.58,0,0,1,1.24-2.63l.19-.31a.84.84,0,0,0-.07-.58.8.8,0,0,0-1.09-.34l-.45.25c-1.3.34-2.85,1.51-2.44,3.17.1.38.49.66.78,1a1.11,1.11,0,1,0,1.85-1.24l.33-.1-.06.33c-.19-.53.18-1,.34-1.45l.4-.5-1.16-.92-.14.35.15.08a10,10,0,0,1-.86,2l-.35.93a.68.68,0,0,0,.6.71h.49l-.25,0c.9-.28,1.74-.69,2.64-.95a.28.28,0,0,0,.21-.34A.27.27,0,0,0,130.42,152.07Z"/><path d="M128.09,154.11a.61.61,0,0,0-.5.14v.14l.37,0C128.22,154.43,128.22,154.26,128.09,154.11Z"/><path d="M127.59,154.39h-.16l.15.06v-.05Z"/><path d="M149.46,134.09a36.66,36.66,0,0,0,3.7-2s0-.1,0-.17-.13-.11-.16-.08a41.26,41.26,0,0,1-3.7,2s0,.1,0,.17S149.42,134.11,149.46,134.09Z"/><path d="M163.08,134.73a.26.26,0,0,0,.14.17c.06,0,.1,0,.09-.07a.31.31,0,0,0-.14-.18C163.1,134.62,163.07,134.66,163.08,134.73Z"/><path d="M167.12,140.42a1.89,1.89,0,0,0-.12.74c0,.05,0,.06-.07.05a.46.46,0,0,1,.13.32,15.34,15.34,0,0,1-2,4.47,2.19,2.19,0,0,1,.16.3c.13.35.09.62-.12.7l-.18,0c-.63.22-1.24.49-1.88.7a.79.79,0,0,1-.17.52,12.47,12.47,0,0,1-.59,2,1.16,1.16,0,0,1,.26.24c.18.25.22.52.09.6l-.17.16.67-.22a.16.16,0,0,1,.1,0,5.08,5.08,0,0,0,.57-.47,15,15,0,0,0,3.23-6c0-.06,0-.09.12-.05s.12.13.11.19c-.06,2,.31,4.29-.21,6a31.3,31.3,0,0,1-2.25,5.57c-1.47,1.13-2.36,2.76-3.51,4.35-.39.54-.79,1-1.21,1.52a2.84,2.84,0,0,1-.2.21l-.33.31-.68.61-1.35,1.2c-1.82,1.58-3.69,3.09-5.59,4.61a3.32,3.32,0,0,1-4.7,0,3.37,3.37,0,0,1-.94-2.89l-.37.26-.69.26a3,3,0,0,1-2.05,0l-.86-.31c-1.41-.74-3-1.05-4.35-1.92l-.25-.53-.21-.05a2.9,2.9,0,0,1-1.58-.74l-.39-.57a6.72,6.72,0,0,1-.87-2.16,2.39,2.39,0,0,1-.43-.74,3.48,3.48,0,0,1-1.55-1.68.48.48,0,0,1-.37-.57.56.56,0,0,1,.13-.24h0c-.19-.08-.24-.11-.47-.19a2,2,0,0,1-.28.08l-.82.34a2.35,2.35,0,0,1-.79-.13c-1.06-.74-1.06-.74-1.34-1.2a1,1,0,0,1,0-.17l-.48.06-.24-.08c-.18-.22-.18-.22-.29-.27a.92.92,0,0,1-.14-.16c-.06-.36-.06-.36-.11-.43a.94.94,0,0,1,0-.18l.15-.31.79.33-.08-.26.28.21-.23-.22.28,0-.36-.06a1.89,1.89,0,0,0,.63-.36,1,1,0,0,0,.3-.28l-.12-.12,1-.46.22.09a.25.25,0,0,1,.14-.25l.25-.12,0-.07v0l.09-.26,0-.06h0c.07-.18.16-.43.41-1.12.16-.07.31-.12.46-.17l-.19,0c-.13,0-.24-.3-.29-.29a16.88,16.88,0,0,0-3.59,1.35.42.42,0,0,1-.59,0,.41.41,0,0,1,0-.58,9,9,0,0,1,6.43-5.11c.62-.3,1.24-.62,1.86-1l-.17,0,.56-.16.05,0-.63-.15-.31.06a26.82,26.82,0,0,1-4.53,1.63,22.07,22.07,0,0,1-2.51.55.37.37,0,1,1-.38-.63c1.85-1.88,4.41-3.45,7.11-3.37a2.15,2.15,0,0,1,1.32-.45h0l-.49-.16c.35-.13.71,0,1.06-.06l-.45-.38c1.61-.79,3-2.08,4.81-2.43l.18-.07a8.35,8.35,0,0,1,.94-1.79l-.46.12a1.44,1.44,0,0,1,.52-.89,3.13,3.13,0,0,1,3.36.47,49.7,49.7,0,0,0,3.68-3.72c.06-.08.19,0,.31.09s.16.29.11.37a16.28,16.28,0,0,1-2.26,3.22,14.91,14.91,0,0,0,2.91-1.45l.29-.31a.62.62,0,0,1,.38-.18,13.4,13.4,0,0,0,3-2.76,28.87,28.87,0,0,0,1.94-3.13,12.4,12.4,0,0,1,2.93-4.17c.15-.18.5-.06.79.27s.4.74.26.92c-1.92,3.18-3.61,6.54-6.6,8.59l-1,.65.11.13a2.2,2.2,0,0,1,.32.57,8.3,8.3,0,0,1,1.2-.58,6.59,6.59,0,0,1,2.51-2.88,9.25,9.25,0,0,1,2.71-.63c.66-.85,1.28-1.76,2-2.59,0-.05.08,0,.14,0a.19.19,0,0,1,.08.19,13.09,13.09,0,0,1-1,2.39,2.41,2.41,0,0,1,.75.69,2.17,2.17,0,0,1,.43.94l.42-.29c.09-.05.25,0,.37.18s.16.34.08.4l-1.7,1.2c-.53.69-1.07,1.35-1.63,2a3.16,3.16,0,0,1,.77.61h0l.28-.26a14.11,14.11,0,0,1,4.77-5.61s.12,0,.17.08.08.15,0,.17a12.63,12.63,0,0,0-1.73,1.36h0a.27.27,0,0,1,.14.17c0,.06,0,.1-.09.08a.31.31,0,0,1-.14-.18,14.91,14.91,0,0,0-2.53,3.34,17.5,17.5,0,0,1,3-2.25c0-.18.07-.35.11-.52s.09,0,.15,0a.19.19,0,0,1,.07.18l0,.14c.2-.11.58.08.87.45s.35.81.15.95a17.86,17.86,0,0,1-1.44,1.32l-.11.2,0,.31c.91-.47,1.85-.91,2.79-1.33.07-.05.21,0,.31.14s.14.29.07.35a28.22,28.22,0,0,1-3.34,4.41c0,.94,0,1.88-.07,2.82a.82.82,0,0,0,.2-.12c1.54-1.2,1.58-3.85,2.81-5.34,0,0,.1,0,.16.05s.08.15,0,.18a16.84,16.84,0,0,0-1.2,2.82,14.65,14.65,0,0,0-.9,2.4c1-1,1.55-2.6,2.43-3.79,0-.07.1-.08.19,0a.19.19,0,0,1,0-.11,2.32,2.32,0,0,1,.12-.78c0-.05.06-.06.14,0A.23.23,0,0,1,167.12,140.42Zm-30.49,11-.12,0,.3,0,.69.34Zm-1.87,4.63h0l-.4-.18Zm13.72-18.2a4.5,4.5,0,0,1-2.15.91l.36-.43C147.27,138.18,147.86,138,148.48,137.88Zm-15.73,13.29a5.53,5.53,0,0,1,1.54.39,2.21,2.21,0,0,1,.58-.56,18.38,18.38,0,0,1,1.85-1.1c-.22-.14-.07-.22,0-.29l.17-.21q-1,.48-2.13.93A16.46,16.46,0,0,1,132.75,151.17Zm-3.55,3.92-.1,0-.12-.37Zm.2.62.12,0C129.57,155.82,129.51,155.8,129.4,155.71Zm1.06-.24-.23-.07Zm7.06,8-.8-1.66.73,1.62Z"/><path d="M156.65,7.78v.51c-.3,0-.54-.16-.73-.49a6.23,6.23,0,0,0,3.43,4.83,10.71,10.71,0,0,0,6,.78,1.83,1.83,0,0,0,2.74-.31,2.35,2.35,0,0,0,0-3,2.54,2.54,0,0,1-.25-.78,16.85,16.85,0,0,0-1.53-6.62c.07.52.15,1.06.22,1.58a5.05,5.05,0,0,0-.93-1.63l-.25.68a3.65,3.65,0,0,0-5.12-3,5.91,5.91,0,0,0-3.81,6.29Z"/><path d="M155.14,15.92c-.47-1.47-.85-2.95-1.2-4.43L154,11l-1.13,1.52.09-.08a7.57,7.57,0,0,1,5.2,1l.64.16a1.59,1.59,0,0,0,1-.47,1.66,1.66,0,0,0,.23-2.23c-.2-.23-.38-.49-.57-.73-1-2.32-3.42-4.6-6.43-2.95a6.46,6.46,0,0,0-1.64,2,2.23,2.23,0,0,0-.14,3.11,2,2,0,0,0,3-.21l.27.58-.62.06c.92-.64,1.84-.16,2.77-.11l1,.51,1.31-2.72-.67-.09a1.68,1.68,0,0,1-.11.33,16.52,16.52,0,0,1-3.84-.59l-1.84-.19a1.52,1.52,0,0,0-1.16,1.51l.12.95v-.5c.79,1.57,1.84,3,2.63,4.59a.48.48,0,0,0,.69.25A.63.63,0,0,0,155.14,15.92Z"/><path d="M150.57,12.48a1.13,1.13,0,0,0-.4-.89l-.28.07.07.72C150,12.9,150.33,12.81,150.57,12.48Z"/><path d="M149.89,11.66l0-.3c0,.11-.05.21-.07.31h0Z"/><path d="M277.11,53.64c1,0,1.93.11,2.89.12h8.72l5.83-.27,2.92-.13,2.92-.27,5.85-.53,5.83-.77,2.93-.4c1-.14,1.94-.33,2.91-.49l5.82-1c.53-.09.94-.28.93-.41s-.42-.11-.91,0l-5.81,1-2.91.5-2.91.39-5.82.76-5.82.52-2.91.26-2.91.13-5.8.26c-1.94,0-3.87,0-5.8,0s-3.85,0-5.77-.12c-.51,0-.94.08-1,.21S276.63,53.61,277.11,53.64Z"/><path d="M395.1,33.93c-.3.25-.24.34.16.2a4.49,4.49,0,0,0,1.19-.65c.26-.22.19-.32-.15-.21A4.44,4.44,0,0,0,395.1,33.93Z"/><path d="M395.82,42.63l-2.89,1.94c-.94.61-1.83,1.21-2.66,1.81a4.51,4.51,0,0,1-1,.52c.2.09-.13.44-.86.91C374.1,57.12,357.3,65,340.13,71.4a1.67,1.67,0,0,1-.61.66,19.76,19.76,0,0,1-6,2.48l-1.95.46c-2,.5-3.94.9-5.9,1.35s-3.93.92-5.92,1.27l-6,1.09-3,.52-3,.41a48.45,48.45,0,0,1-5.5,1.42c-3.4.89-6.85,1.61-10.32,2.42s-7,1.29-10.62,1.9c.46.1.74.26.75.46s-.5.5-1.18.7a13.06,13.06,0,0,1-2.58.37l-3,.2c2.86-.06,5.73,0,8.56-.24a11.28,11.28,0,0,1,1.14,0c3.11-.31,6.26-.56,9.42-1.11a213.83,213.83,0,0,0,39.39-9.9A263.69,263.69,0,0,0,369.3,60.26a4.34,4.34,0,0,1,1.32-.56c.26,0,.26.12-.14.36-1.71,1.08-3.42,2.08-5.12,3.07l-5.06,3c-3.38,1.94-6.78,3.84-10.27,5.74a170.88,170.88,0,0,1-23.35,10.37,242.28,242.28,0,0,1-67,13.81,335.84,335.84,0,0,1-36.45-1.86,239.67,239.67,0,0,1-36.91-6.71c-2.16-.49-4.25-1.2-6.36-1.81l-6.31-1.94-6.19-2.23c-2.06-.76-4.14-1.46-6.14-2.35l-1.52-.64-.75-.32-.29-.1-1-.39-2.05-.78c-1.37-.53-2.74-1-4.06-1.66q-4-1.81-7.92-3.75c-2.62-1.31-5.16-2.82-7.77-4.27a8.39,8.39,0,0,1-4.4-4.2,6.07,6.07,0,0,1,0-5.28,6.49,6.49,0,0,1,5.34-3.31l-.83-.62-1.1-1.27a6,6,0,0,1-1.51-4.15V46.55c.54-3.19.21-6.62,1.23-9.75l.93-.74v-.44a5.55,5.55,0,0,1,.64-3.52l1-1a14.47,14.47,0,0,1,3.91-2.72,5,5,0,0,1,1.28-1.2,7,7,0,0,1,2.6-3.86,1,1,0,0,1,1-1,1,1,0,0,1,.5.14h0c.09-.41.11-.53.18-1-.18-.31-.27-.51-.27-.51-.53-.77-.53-.77-1-1.45a4.61,4.61,0,0,1-.06-1.6c1.08-2.42,1.09-2.41,1.88-3.18l.3-.15a7.65,7.65,0,0,1-.25-.88,3,3,0,0,1,.07-.5c.37-.46.36-.46.43-.69a4.21,4.21,0,0,1,.27-.35c.67-.29.67-.29.79-.43a1.6,1.6,0,0,1,.34-.13l.64.14-.39,1.68.47-.29-.31.66.33-.56.06.56V13c.57.79.57.79.87,1a1.29,1.29,0,0,0,.64.43,3.45,3.45,0,0,1,.19-.29l1.18,1.71a3.41,3.41,0,0,1-.09.48.41.41,0,0,1,.5.14l.33.42h.14l0,0,.52.05h.11c.35,0,.85.1,2.24.16a5,5,0,0,1,.5.76,2.34,2.34,0,0,1,0-.38c0-.26.44-.61.41-.7a16.37,16.37,0,0,0-.82-1.62q-.42-.81-.9-1.56c-.63-1-1.3-2-1.95-3a.85.85,0,0,1,.91-1.41c5.23.72,9.11,4.4,11.53,9.17.84.95,1.72,1.87,2.62,2.79v-.33l.56.91.08.08-.06-1.26-.26-.54a17.63,17.63,0,0,1-2.68-3.45c-.76-1.28-1.4-2.66-2.17-3.91a34.38,34.38,0,0,1-1.83-4.34.75.75,0,0,1,.08-1,.64.64,0,0,1,.93,0,18.85,18.85,0,0,1,5.29,4.51,15.24,15.24,0,0,1,3.37,6.45,3.82,3.82,0,0,1,1.42,2.15l0,0c0-.35,0-.67,0-1,.39.56.34,1.29.68,1.86l.4-1.07c1.13,1.14,2.46,2.11,3.71,3.16A18.93,18.93,0,0,1,180.23,25,11.68,11.68,0,0,1,181.79,27a3.07,3.07,0,0,1,.25.26,15.69,15.69,0,0,1,2.17,0l.53.08.14,0,.35.15.71.32c1,.43,1.9,1,2.92,1.43-.66-.39-1.28-.82-1.9-1.25l-1.82-1.26c.65.24,1.47.6,2.19.91s1.49.65,2.26.95c1.52.64,3,1.34,4.57,2.17,8.35,4.32,17.77,9.72,22,13.8A203.75,203.75,0,0,0,244,51a200.41,200.41,0,0,0,28.54,2.18,3.1,3.1,0,0,1,2.06.45c.1.26-.54.5-1.54.53s-1.72.1-2.58.12h-7.78c-1.73,0-3.46-.15-5.2-.22s-3.48-.15-5.22-.31a189.21,189.21,0,0,1-20.74-2.94,167.34,167.34,0,0,0,35.19,5.94c1.55,0,3.1.12,4.66.1s3.07.06,4.6.18a187.72,187.72,0,0,0,46.12-5.14,240.74,240.74,0,0,0,37.42-12.44c8.85-3.79,17.13-7.86,25.28-12.12s16.08-8.9,24.29-13.85c2.13-1.39,4.32-2.38,4.84-2.17s-.82,1.54-3,3q-12.54,8.37-25.68,15.58a286,286,0,0,1-27.14,12.8,223.21,223.21,0,0,1-28.71,9.57,193.58,193.58,0,0,1-30.27,5.49c-2.22.26-4.44.35-6.64.53l-3.29.24c-1.09.06-2.18.07-3.27.11a.58.58,0,0,1,.13.26c0,.36-.37.7-1,1l3.75-.08,3.76-.21,3.77-.2,1.9-.1,1.89-.17c13.89-2.36,27.54-5.78,42.11-9.7,10-2.75,19.08-5.4,28.24-8.62A311.24,311.24,0,0,0,403,23.31a3,3,0,0,1,1.07-.52c.2,0,0,.2-.39.49-1.77,1.2-3.58,2.36-5.39,3.54l-2.72,1.78-2.8,1.68-5.65,3.37-5.8,3.19c1.4-.32,2.33-.32,2.44.13s-.67,1.31-2,2.32l5.45-2.67c1.13-.53,2.09-.83,2.16-.62s-.7.85-1.78,1.38c-3.71,1.83-7.39,3.71-11.18,5.37-1.89.83-3.75,1.74-5.66,2.52L365,47.63a265.35,265.35,0,0,1-27.8,10.43,6.8,6.8,0,0,1,3.12.38h0l4.4-1.39a372.48,372.48,0,0,0,76-39.68c.47-.32.9-.52,1-.44s-.25.38-.68.66c-3.67,2.41-7.27,4.9-11,7.17-1.86,1.15-3.67,2.38-5.56,3.46l-5.62,3.35,0,0c.33-.12.45-.06.15.2a4.6,4.6,0,0,1-1.17.7c-.39.14-.41,0-.16-.2A385.06,385.06,0,0,1,354.4,53.67a337.39,337.39,0,0,0,40.42-18.42c1.34-.9,2.71-1.74,4.06-2.69a3.18,3.18,0,0,1,1.11-.5c.15,0-.08.26-.47.51l-1.12.78c2.44-1.39,4.52-2.13,4.75-1.66s-1.72,2.15-4.26,3.62c-6.8,3.94-13.66,7.73-20.76,11.06l-2.25,1.18-2.2,1.35a300.3,300.3,0,0,0,32.56-16.51c.89-.54,1.73-.88,1.84-.73s-.52.71-1.41,1.26a275.62,275.62,0,0,1-27.91,16.43,267.43,267.43,0,0,1-30,13.23c-3.26,1.63-6.58,3.17-9.91,4.79-3.38,1.47-6.78,3-10.27,4.47.92-.2,1.84-.45,2.75-.72A177.62,177.62,0,0,0,363.21,58.6c9.89-4.89,19.36-10.21,29.36-15.93a2,2,0,0,1,1.06-.42c.1,0-.19.33-.7.62-9.73,5.68-18.65,10.93-28.8,15.89l-6.27,3-6.23,2.74-3.08,1.37-3.09,1.27-6.12,2.56c2.12-.72,4.22-1.48,6.3-2.23l3.12-1.14,3.05-1.25,6.07-2.53,5.94-2.74,3-1.37L369.69,57,375.52,54,381.27,51l2.88-1.54c1-.52,1.91-1.08,2.86-1.62a8,8,0,0,1,1.84-.85c0-.07.12-.19.31-.33C391,45.33,393,44.08,395,42.7a3.39,3.39,0,0,1,1.17-.56C396.44,42.1,396.24,42.32,395.82,42.63ZM159.15,27.41v-.24c.06.17.12.35.2.55l-.21,1.5S159.14,28.32,159.15,27.41Zm-9.73-.94h0c.09-.49.15-.85.15-.85C149.52,26,149.46,26.24,149.42,26.47Zm93.09,28-6.24-1.22c-1-.19-2.06-.46-3.08-.73l-3.05-.82a113.15,113.15,0,0,1-11.91-4l5.89,1.45,2.25.78,2.28.68L233.22,52c1.52.49,3.07.87,4.62,1.26ZM157.76,19.84a13.45,13.45,0,0,1,0,3.17,3.63,3.63,0,0,1,1.31.77c1,.94,2,1.85,3,2.81.13-.5.36-.27.53-.23l.47.19a41.31,41.31,0,0,1-2.85-3.4A28.86,28.86,0,0,1,157.76,19.84Zm-8.7-4.73,0-.22.67-.39Zm-1.11.7L148,16C147.8,16.18,147.82,16.06,148,15.81Zm.83,1.93a2,2,0,0,0,.05-.48ZM136.27,35.51l2.93-2.37-2.9,2.21Z"/><path d="M294.82,106l-.57-.28c.13-.18.48-.2,1-.11a10.3,10.3,0,0,0-7.08-.49,9.44,9.44,0,0,0-2.45,1.16,7.19,7.19,0,0,0-1.62,1.49c-1.15.11-1.56.73-1.14,1.3a2.45,2.45,0,0,0,1.11.73,4.33,4.33,0,0,0,1.62.29,5.81,5.81,0,0,1,.89.2c.6.24,1.18.47,1.81.69l1.93.66,2,.67c.7.21,1.4.42,2.12.66-.64-.29-1.29-.57-1.91-.82a20.32,20.32,0,0,0,2.44.62l-.58-.48c3.13,1.3,6.4,1.69,7.06.21s-1.78-4.52-5.11-5.89Z"/><path d="M287.08,101.39a25.36,25.36,0,0,1,2.57.46c.86.19,1.73.4,2.61.67l.47.28-1-1.41,0,.09c-.42,1.37-2.22,2-3.78,2.64l-.52.27a.62.62,0,0,0-.12.73,2.57,2.57,0,0,0,2.16,1.06l1.07,0c.71.12,1.55.23,2.36.3a12.23,12.23,0,0,0,2.28,0c1.41-.18,2.46-.7,2.33-2-.06-.61-.85-1.41-1.38-2.13a3.84,3.84,0,0,0-3.39-1.78c-1.31.1-1.86,1-1.33,1.92l-.75-.1.26-.4c.2.85-.8,1.17-1.36,1.68l-1.06.39,2.06,1.86.46-.32c-.11-.08-.29-.2-.29-.21a15.17,15.17,0,0,1,2.78-1.82l1.25-.94c.2-.47-.28-1.15-1.07-1.51l-1.1-.41.54.25a53.61,53.61,0,0,0-6.1-.31c-.32,0-.57.14-.57.36S286.76,101.36,287.08,101.39Z"/><path d="M293,100a2.19,2.19,0,0,0,1.18.21l.06-.22-.83-.33C292.78,99.39,292.72,99.65,293,100Z"/><path d="M294.2,100l.34.15-.3-.21,0,0Z"/><path d="M303.28,249.68c-1,24.83-2.14,49.81-3.69,74.78-.06.83,0,1.54.21,1.58s.33-.6.37-1.38c1.61-25,2.78-49.83,3.78-74.66a2.81,2.81,0,0,0-.31-1.64C303.45,248.31,303.3,248.9,303.28,249.68Z"/><path d="M280.62,435.91c-.05-.59-.16-.57-.26,0a10.62,10.62,0,0,0-.07,2.05c0,.5.18.48.26,0A9.72,9.72,0,0,0,280.62,435.91Z"/><path d="M272.4,430.48c-.27-3.5-.59-6.82-1-9.78a11.57,11.57,0,0,1-.05-1.64c-.18.21-.37-.46-.51-1.72-2.62-24.85-4.51-51.57-6.25-77.89a2.49,2.49,0,0,1-.65-1.11,29.56,29.56,0,0,1-1.12-9.28l.12-2.86c.17-11.55.38-23.07.8-34.56a68.29,68.29,0,0,1-.63-8.05c-.91-9.95-1.72-19.93-2.25-30.14-.21.64-.46,1-.73,1-.63-.2-1.09-2.57-1-5.33,0-1.39.07-2.77.16-4.16-.45,4-.54,8-.79,12,0,.58-.07,1.11-.13,1.59-.09,4.37-.09,8.79,0,13.28.43,39.22,4,76.09,7.74,112.67a6.88,6.88,0,0,1,0,2.07c-.1.36-.27.29-.36-.38-3.5-23.07-8.22-43-11-69.14-1.63-15.52-3-30.95-4-46.48-.26-3.89-.51-7.78-.71-11.68l-.3-5.86c-.1-2-.23-3.91-.21-5.87a57.55,57.55,0,0,1,5.28-23.65c4-8.29,9-16.37,12.8-24.51,1-2.08,1.82-4,2.71-6.34l.64-1.67c.23-.64.47-1.17.67-1.62.42-.92.82-1.7,1.13-2.49a15.64,15.64,0,0,0,1.21-9.44,13,13,0,0,0-1.75-4.35c-.43-.69-.93-1.4-1.61-2.35a19,19,0,0,1-2.19-4,16.26,16.26,0,0,1-1.06-5.26,17.57,17.57,0,0,1,.56-5.16,23.47,23.47,0,0,1,4-7.76,12.76,12.76,0,0,0,1-1.58l0-.06h0l.09.06.35.18a6.11,6.11,0,0,0,.74.32l.38.13.2.08a2.75,2.75,0,0,0,.67.17s0,0,0,0h-.22l-.29,0-.21.05.11,0s0,0-.41.18l-.3.17-.36.24a3.72,3.72,0,0,0-.45.33l-.11.08h0a.72.72,0,0,0-.18-.3,2.73,2.73,0,0,0-.24-.26,14.83,14.83,0,0,0-1.14-1c-.79-.6-1.57-1.2-2.29-1.82a21.6,21.6,0,0,1-3.72-3.67,9.83,9.83,0,0,1-1.76-4.15,3.78,3.78,0,0,1-.13-1.21c0-.42,0-.83,0-1.24a10.38,10.38,0,0,1,.52-2.26,6.44,6.44,0,0,1,.65-1.38,7.15,7.15,0,0,1,.84-1.27,6.33,6.33,0,0,1,.47-.62l.6-.58a16.66,16.66,0,0,1,1.42-1.11,8.34,8.34,0,0,1,.79-.53,6,6,0,0,1,.87-.49c.66-.28,1.32-.56,2-.87,1.32-.56,2.83-.95,4.2-1.41l2.08-.7c.42-.15.63-.25.93-.37a9,9,0,0,0,1.34-.69,1.3,1.3,0,0,0,.28-.24h0l.07.09c.19.24.47.52.59.7s.33.38.51.56l.28.26.2.2a4.09,4.09,0,0,0,.44.37c.17.11.21.17.34.24s.28.14.31.17l.2.09c.13,0,.19,0,.11,0a1.2,1.2,0,0,0-.34.11,2.18,2.18,0,0,0-.6.34,4.37,4.37,0,0,0-.86.62l-.19.18-.28.24a6.51,6.51,0,0,0-.54.51c-.17.18-.33.36-.49.55a1.8,1.8,0,0,1-.28.31l-.06.06H280c-.11,0-.23,0-.38-.07-.65-.16-1.65-.4-2.73-.58-.56-.1-1.08-.2-1.74-.28l-2-.07c-.68,0-1.38-.2-2.06-.3a75.92,75.92,0,0,1-8.85-2l-1.68-1a3.48,3.48,0,0,0-.43-.25l-.55-.2-1.09-.39a10.47,10.47,0,0,1-1.05-.41l-.74-.57c-.49-.38-1-.75-1.44-1.13s-.93-.76-1.36-1.15l-.43-.39-.58-.52c-.79-.69-.49-1.59-1.36-2.25l-.5-.54a2.13,2.13,0,0,1-.43-.54l-.67-1.12-.54-1.15a13.2,13.2,0,0,0-.73-1.19c-.64-.8.09-1.58-.74-2.49l-.37-.65a4.87,4.87,0,0,1,0-.66l.05-.65c0-.1,0-.23-.08-.35l-.16-.37c-.18-.49-.56-1-.31-1.44l.17-.68.08-.34a1.4,1.4,0,0,0-.07-.39c-.12-.52-.26-1-.36-1.58l.56-1.36.14-.34a1.67,1.67,0,0,0,0-.39l0-.8c0-.53-.05-1.06,0-1.6l.1-1.61,0-.41c0-.14.13-.21.19-.32l.49-.61,1-1.22a9.8,9.8,0,0,0,.56-1.46l.52-1.48,0-.1,0,0a.53.53,0,0,0-.06-.1l-.26-.42-.13-.2c0-.06,0-.08,0-.11l.09-.2.35-.81.34-.8.28-.71.53-1.32c.36-.85.74-1.72,1.11-2.56.28-.69.6-1.36.92-2a17.62,17.62,0,0,1,1-1.81,12.73,12.73,0,0,1,2.07-2.62c1.34-1.28,2.7-1.68,3.68-1,1.2.9,1.55,3.11,1.13,5.54l.65-1c.39-.45.8-.93,1.2-1.35,1.14-1.18,2.35-1.94,3.45-1.87h1.44c2.31.53,5.1.33,7.46,1.74l.39,1,.36,0a3.8,3.8,0,0,1,2.86,1.17l.64,1.14A12.06,12.06,0,0,1,281.18,87a3.87,3.87,0,0,1,.66,1.41,5.63,5.63,0,0,1,2.63,3.22.8.8,0,0,1,.58,1.08,1,1,0,0,1-.33.36h0l.89.45a5.19,5.19,0,0,1,.61,0c1-.16,1-.15,1.84-.24a5.89,5.89,0,0,1,1.66.59c2,1.84,2,1.88,2.5,2.8,0,.1,0,.2,0,.29.78.17.85.2,1.07.26a3.51,3.51,0,0,1,.51.31c.34.49.34.49.56.66a4.24,4.24,0,0,1,.26.37c0,.6,0,.6.09.76a1.12,1.12,0,0,1,0,.29l-.47.33-1.65-1.12.09.46-.56-.53.44.49-.63-.24.78.37a4.51,4.51,0,0,0-1.54.07,1.75,1.75,0,0,0-.77.22,2.58,2.58,0,0,1,.21.25l-2.33.07-.44-.24c0,.15-.16.26-.39.28l-.58,0-.07.1,0,0c-.11.13-.19.22-.29.32l0,.07h0c-.2.22-.5.53-1.29,1.33-.34,0-.69,0-1,.05l.37.1c.26.08.36.47.48.47,1.36.09,2.7.15,4,.17s2.75.09,4.18.22a1.59,1.59,0,0,1,1.34.5c.3.37.17.7-.28.76a10.25,10.25,0,0,1-3.23,1.44,24.65,24.65,0,0,1-3.84.74c-2.7.31-5.46.42-8,.5-.57.08-1.15.21-1.69.33l-1.52.36.24.06c-.25,0-.62,0-.56.15v0h.2l.4.08h.47a17.12,17.12,0,0,1,3.89-.45c.75,0,1.45,0,2.23,0l2.38.12a16.87,16.87,0,0,1,2.68.36l2.76.61a1.34,1.34,0,0,1,1,.54c.14.26-.1.44-.52.4-1.26.14-2.46.16-3.77.24-.64,0-1.23,0-1.88,0h-1.86c-1.26,0-2.38-.08-3.51-.12l-1.58-.16a2.88,2.88,0,0,1-.36-.07l-.31,0-.11.06a1.56,1.56,0,0,1-.84.31h0l.49.08c-.17.11-.6,0-.8.14l.61.2a1.53,1.53,0,0,0-.47,1.3c.05.47.22.84.26,1.2a.59.59,0,0,1,0,.08c.35.12.69.21,1,.3l.22.06.06,0,.17.09.34.16c.46.21.92.39,1.39.59a13.61,13.61,0,0,1-1.67-.91c.64.3,1.35.56,2,.79l.24.08.12,0,.06,0,.12.08,1.95,1.3c.69.46,1.38.9,2.14,1.46a22,22,0,0,1,2.48,2l.47.44c.16.16.34.36.5.55a9.07,9.07,0,0,1,1,1.36,7.78,7.78,0,0,1,.51.93,6.86,6.86,0,0,1,.42,1.1,10.87,10.87,0,0,1,.27,1.26,10.29,10.29,0,0,1,0,1.36,7.57,7.57,0,0,1-1.79,4.32,9.65,9.65,0,0,1-2.31,2,24.34,24.34,0,0,1-3.63,1.78c-.52.21-1.23.47-1.16.46a2.47,2.47,0,0,0-.36.11,9.58,9.58,0,0,0-1.46.54,1.66,1.66,0,0,0-.63.51.81.81,0,0,1-.1.18c0,.07,0,.13,0,.19a.65.65,0,0,0,.1.36,4.8,4.8,0,0,0,1,1l.28.24.14.13.07.07h0l-.05,0s0,0,0,0l.17.13a15.63,15.63,0,0,1,2.67,2.62,12,12,0,0,1,2,3.71,11.8,11.8,0,0,1,.48,2c.06.7.1,1.39.09,2.06a14.87,14.87,0,0,1-.29,2,13.33,13.33,0,0,1-.57,1.72c-.23.49-.47,1-.7,1.38s-.48.75-.72,1.08a27,27,0,0,1-2.1,2.77c-.59.71-1.1,1.3-1.48,1.82a6.29,6.29,0,0,0-1.29,2.82,4.5,4.5,0,0,0,0,1.36,5.41,5.41,0,0,0,.62,1.7c.79,1.5,2,3.54,3,5.59A55.41,55.41,0,0,1,287,183.31c.43,2.24.7,4.55.94,6.72l.19,1.56a12.34,12.34,0,0,0,.26,1.32c.19.9.43,1.79.65,2.67.51,1.91,1.05,3.86,1.67,5.77s1.29,3.9,2,5.84c1.39,3.88,3,7.81,4.42,11.7a98.86,98.86,0,0,1,6.27,23.36c.21,1.6,0,3-.29,3.31s-.71-.9-.89-2.5a97.91,97.91,0,0,0-3.91-16.79c-1.81-5.63-4-11.26-6-16.92-1-2.81-1.9-5.64-2.73-8.46-.4-1.39-.78-2.79-1.12-4.19l-.26-1-.22-1c-.14-.65-.29-1.31-.41-2-.26-1.15-.34-2.8-.52-4.38s-.36-3.24-.66-4.85a53.32,53.32,0,0,0-2.55-9.41,51.89,51.89,0,0,1,2.16,7.84,68.23,68.23,0,0,1,1,8.05c.06.66.09,1.28.15,1.86s.16,1.06.26,1.62c.21,1.12.39,2.15.66,3.38.5,2.36,1,4.7,1.7,7.1,2.51,9.54,5.89,19.2,7.53,28.89.49,2.48.88,5,1.19,7.46a46.21,46.21,0,0,1,.23,7.33c-.1,12.38-.44,24.45-.7,36.58s-.52,24.33-.66,37c-.25,21.6-.67,40.49-1.64,62-1.43,30.2-4,57.7-9.74,87.51a43.24,43.24,0,0,1-2.06,8.09c-.35.48,0-2.4.65-6.38,2.47-15.54,4.12-31,5.38-46.52s2.1-31,2.74-46.59c1.26-31.18,1.8-62.73,2.85-95.24.2-7,.41-13.92.61-20.78a.66.66,0,0,1-.36.17c-.49,0-.93-.67-1.29-1.77q-.37,11.69-1.05,23.53c.5,21.93.65,43.9-1,67.28-1.15,16.05-2.9,30.57-4.53,45.41-.78,18.82-1.79,37.58-3.6,56.59a8.15,8.15,0,0,1-.28,1.81c-.1.28-.14-.13-.09-.9.86-13.07,1.38-26.46,1.77-40-.51,2.12-1.05,3.39-1.55,3.21s-.9-1.83-1.14-4.36l-.46,9.2c-.11,1.89-.37,3.38-.61,3.32s-.4-1.55-.32-3.35q.75-18.76,1.49-37.47c.14-15,.2-29.92.24-44.93a10.67,10.67,0,0,1-1.85,4.32h0c0,2.32-.05,4.64-.08,6.95q.9,31.82.27,64.3t-2.89,65.29a7.75,7.75,0,0,1-.19,1.57,5.8,5.8,0,0,1,0-1.41q1.21-19.81,1.94-39.52v.06c-.08.53-.19.63-.24,0a11,11,0,0,1,.07-2.06c.1-.6.21-.55.25-.05.86-24.47,1.07-48.77.6-72.75q-.43,33.42-1.66,66.81c.05,2.42.1,4.84.16,7.31a7.74,7.74,0,0,1-.19,1.82c-.08.18-.17-.31-.17-1l0-2c-.17,4.21-.65,7.45-1.12,7.38-.48-.24-.83-3.86-.78-8.24,0-11.72.06-23.39.08-35.07l-.1-3.79c-.1-1.28-.21-2.54-.31-3.81-.39,18.16-.73,36.28-.87,54.3a8.19,8.19,0,0,1-.26,2.89c-.16,0-.31-1.21-.34-2.77-1.09-31.76-2.38-63.92-3.13-96.21-1.38-10.62-2.86-21.26-4.34-32.11,0,1.37,0,2.75,0,4.13.17,17.55,1.45,33.79,2.7,49.88s2.47,32,3.06,49a4.06,4.06,0,0,1-.13,1.67c-.1.09-.22-.48-.24-1.35-.73-16.59-2.12-31.74-3.31-48.21-1-13.64-1.91-26.61-3.15-39.29.84,25.91,3.05,50.77,4.4,76.43a15.94,15.94,0,0,1,0,3,1.52,1.52,0,0,1,.18.63c.41,3.21.74,6.71,1,10.29a6.77,6.77,0,0,1-.05,1.91C272.61,431.66,272.49,431.24,272.4,430.48Zm2.5-329.2.2,0-.54.07-1.11-.28S274.14,101.16,274.9,101.28Zm4.87-6.89h0l.71.31ZM287.16,194c-.14-.8-.27-1.59-.36-2.35l-.2-2.71c-.13-1.89-.33-3.82-.64-5.73a49.38,49.38,0,0,0-3.11-11,47.22,47.22,0,0,0-2.48-5.1,13.61,13.61,0,0,1-1.74-3.74,4.63,4.63,0,0,1,0-1.35,7.31,7.31,0,0,1,.33-1.45,9.17,9.17,0,0,1,1.73-2.73A9.33,9.33,0,0,0,279,160.5a5.7,5.7,0,0,0-.27,2.67c0,1.12,1.68,3.53,3,6.15a47.45,47.45,0,0,1,3.09,8.12,52.09,52.09,0,0,1,1.62,8.61c.16,1.44.24,2.9.33,4.29,0,.66.07,1.37.14,1.9S287.07,193.43,287.16,194ZM282,101.74a23.15,23.15,0,0,1-2.82-.73,4.9,4.9,0,0,1-1.26.7c-1.2.53-2.44,1-3.54,1.53.34.12.07.24,0,.34s-.24.19-.33.28c.61-.26,1.25-.5,1.88-.71s1.37-.42,2-.6,1.33-.34,2-.49A12.47,12.47,0,0,1,282,101.74Zm8.87-4,.22.12.09.63Zm-.21-1.08-.26,0C290.35,96.36,290.46,96.42,290.67,96.63Zm-2.37-.21a2.25,2.25,0,0,0,.46.22ZM276.38,81.19l1.18,3.18-1.05-3.13Z"/></g></g></svg>