<svg xmlns="http://www.w3.org/2000/svg" viewBox="0 0 435.14 277.7"><g id="Layer_2" data-name="Layer 2"><g id="Layer_1-2" data-name="Layer 1"><path d="M109,53.74l-.34-.34c.12-.25.37-.3.69-.22a4.29,4.29,0,0,0-5-.41,4.9,4.9,0,0,0-1,.72,8.08,8.08,0,0,0-.91,1,9.56,9.56,0,0,0-1.33,2.43c-.88.11-1.29,1.25-.93,2.4a2.32,2.32,0,0,0,2.13,1.84,2.18,2.18,0,0,1,.64.29,16,16,0,0,0,2.54,1.81c.42.25.83.43,1.24.65s.83.41,1.24.58l-1.11-.89a2.79,2.79,0,0,0,1.42.37l-.32-.62a2.35,2.35,0,0,0,2.48.38A3.18,3.18,0,0,0,112,61.41c.59-2.47-.18-5.64-2.12-7Z"/><path d="M104.13,47.43a23.66,23.66,0,0,1,3.71,1.83l.29.39-.45-1.85v.12a7.16,7.16,0,0,1-3.35,3.43l-.43.38a1.64,1.64,0,0,0-.17,1.07,1.81,1.81,0,0,0,1.45,1.64H106c2,.58,4.66.36,5.17-3a7.75,7.75,0,0,0-.42-2.53,2.16,2.16,0,0,0-2-2.15,1.87,1.87,0,0,0-1.45,2.37c-.18-.06-.37-.13-.54-.17.09-.19.19-.34.29-.51,0,1.09-.84,1.56-1.33,2.26l-.87.51L106,53.92l.38-.47c-.07-.12-.18-.28-.18-.29.36-.49.71-1,1.08-1.45a7.55,7.55,0,0,1,1.25-1.15l1.1-1.25a1.75,1.75,0,0,0-.4-1.86l-.72-.53.34.32c-.75-.21-1.52-.36-2.29-.51s-1.54-.2-2.32-.39a.43.43,0,0,0-.54.41A.65.65,0,0,0,104.13,47.43Z"/><path d="M109,46.09c.27.19.53.39.84.28.06-.14.08-.22.1-.25l-.53-.43C109,45.39,108.88,45.69,109,46.09Z"/><path d="M109.91,46.12l.22.17L110,46l0,0Z"/><path d="M94.47,175.73a77.88,77.88,0,0,0,35.07,6.48,66.31,66.31,0,0,0,17.28-3.29,68,68,0,0,0,16-7.89c.69-.43,1.18-.9,1.13-1s-.6.19-1.23.58a66.89,66.89,0,0,1-15.85,7.85,65.46,65.46,0,0,1-17.11,3.29,73.92,73.92,0,0,1-17.66-1.12,82.28,82.28,0,0,1-17.14-5.22,3.23,3.23,0,0,0-1.54-.4C93.3,175.09,93.78,175.42,94.47,175.73Z"/><path d="M190.74,68.25c.41.54.49.46.19-.18a11.78,11.78,0,0,0-1.25-2c-.36-.44-.45-.35-.18.18A13.92,13.92,0,0,0,190.74,68.25Z"/><path d="M200.82,69.81c2.18,3.71,4,7.38,5.63,10.69a13.71,13.71,0,0,1,.71,1.91c.06-.29.53.42,1.1,1.89a91.56,91.56,0,0,1,5.92,23.07,90.08,90.08,0,0,1-.49,24.79c-.27,2.09-.77,4.12-1.16,6.19l-.77,3.07c-.25,1-.51,2-.85,3.05-.67,2-1.21,4.1-2,6.07s-1.51,4-2.46,5.93a96.6,96.6,0,0,1-13.71,21.76,4.23,4.23,0,0,1-.62,1.42,37.24,37.24,0,0,1-3.16,4.1c-.7.81-1.55,1.59-2.41,2.43s-1.76,1.7-2.75,2.48l-3,2.32A95.81,95.81,0,0,1,161,202.63a90.6,90.6,0,0,1-22,6.44c-.76.2-1.54.43-2.37.6l-2.56.47-2.72.45c-.94.11-1.9.19-2.88.27a106.06,106.06,0,0,1-39.76-2.72c.77.4,1.21.73,1.15.92-.38.37-3.56-.14-7.06-1.39-1.75-.65-3.53-1.23-5.25-1.94a122.71,122.71,0,0,0,15.19,5.36c.75.2,1.44.41,2.06.61a109.66,109.66,0,0,0,17.83,2.72,99.64,99.64,0,0,0,39.23-5.11,95.28,95.28,0,0,0,32.93-19.66,104.54,104.54,0,0,0,12.54-13.86A101.79,101.79,0,0,0,206.78,160,98.65,98.65,0,0,0,213,142.92a96.15,96.15,0,0,0,2.89-17.65,17.5,17.5,0,0,1,.27-2.68c.12-.45.25-.36.23.52a100.66,100.66,0,0,1-2.74,22,93.69,93.69,0,0,1-7.58,21A96.17,96.17,0,0,1,173.8,203c-1.12.81-2.32,1.48-3.48,2.21s-2.34,1.47-3.57,2.11c-2.44,1.29-4.87,2.64-7.44,3.73a100.25,100.25,0,0,1-15.8,5.61A110,110,0,0,1,110.37,220,121.55,121.55,0,0,1,93.8,218l-4.09-.87-2-.44-2-.54-4.05-1.09-4-1.28c-2.69-.82-5.27-1.9-7.91-2.89-1.31-.53-2.58-1.11-3.88-1.67s-2.59-1.12-3.85-1.77l-3.8-1.9c-1.27-.64-2.49-1.37-3.73-2.06-2.49-1.37-4.95-2.88-7.38-4.47a121.9,121.9,0,0,1-26.68-25.17,102.15,102.15,0,0,1-10.31-16.28A93.48,93.48,0,0,1,3,138.79,102.91,102.91,0,0,1,1,99.48,122.22,122.22,0,0,1,12.23,62.55,123.14,123.14,0,0,1,26.07,40.08,128.12,128.12,0,0,1,44.14,20.9c.81-.75,1.69-1.41,2.55-2.11l1.29-1,.29-.25,1-.84c.64-.55,1.27-1.11,1.92-1.65,1.34-1,2.68-2,4-3l2.05-1.49c.69-.49,1.41-.93,2.12-1.39q2.14-1.37,4.32-2.7c1.46-.88,3-1.65,4.5-2.46s3-1.64,4.64-2.32A11.58,11.58,0,0,1,79.75.07a6.27,6.27,0,0,1,4.8,3,6.2,6.2,0,0,1-.72,6.39l1.11-.35,1.88-.19a6.59,6.59,0,0,1,4.66,1.2l1.63,1.17c2.38,2.41,5.44,4.13,7.3,6.9l0,1.2.35.27a5.53,5.53,0,0,1,2.41,2.77l.19,1.41a14.64,14.64,0,0,1-.41,4.73,5,5,0,0,1,.13,1.75,7.17,7.17,0,0,1,1.36,4.48,1,1,0,0,1,.17,1.38.84.84,0,0,1-.41.29h0a10,10,0,0,0,.65.79c.34.07.54.13.54.13.88.1.88.1,1.64.21a4.51,4.51,0,0,1,1.19,1c1.09,2.39,1.07,2.4,1.15,3.49a2.72,2.72,0,0,1-.07.33c.57.28.61.3.76.39a2.6,2.6,0,0,1,.3.37c.11.58.11.58.23.78a3.92,3.92,0,0,1,.09.44c-.18.69-.18.69-.16.88a2.86,2.86,0,0,1-.1.34L110,46,109,44.65l-.06.54-.28-.66.2.61-.42-.32.5.49c-.86-.1-.87-.1-1.19,0a1.14,1.14,0,0,0-.66.19,2.69,2.69,0,0,1,.1.33c-.93-.1-.93-.13-1.84-.18q-.16-.18-.3-.36a.36.36,0,0,1-.36.32h-.47l-.08.11v.05l-.3.38-.06.09h0l-1.28,1.62a5.4,5.4,0,0,1-.82-.12l.3.22c.19.17.22.73.31.77a15.29,15.29,0,0,0,3.14.69c.51.06,1,.1,1.53.14l1.52.24c.33-.11.71.17.84.61a.81.81,0,0,1-.36,1,9.55,9.55,0,0,1-1.24,1.16,12,12,0,0,1-1.3,1,9.25,9.25,0,0,1-2.88,1.13,15.44,15.44,0,0,1-6.54.08,21.11,21.11,0,0,0-3.26.44l.25.19-.94,0H93L94,56a4.71,4.71,0,0,0,.52.09A10.78,10.78,0,0,1,98.26,56c.64.08,1.26.15,1.89.27s1.26.25,1.87.34A15.88,15.88,0,0,1,105.84,58c.29,0,.57.31.64.72s-.1.72-.37.72a13.74,13.74,0,0,1-11.43.19,2.9,2.9,0,0,1-2.2-.06h0l.78.58c-.58,0-1.16-.49-1.72-.51l.69.92c-1.32.3-2.59.82-3.9,1.26a10,10,0,0,1-4.13.89l-.3.06a17.7,17.7,0,0,1-.73,1.82c-.07.14-.15.28-.23.41a.59.59,0,0,1-.08.11l-.45.36-.9.71c-1.2,1-2.39,2.06-3.7,3.07l2.76-1.91a14.3,14.3,0,0,1,1.38-.91l1.35-.8a3,3,0,0,1-.26.23l-.34.28-.69.57c-.47.36-.89.79-1.33,1.19-.87.82-1.8,1.58-2.67,2.41S76.24,72,75.32,72.78s-1.74,1.79-2.67,2.67A110.49,110.49,0,0,0,59.28,91.77c-3.91,5.55-6.7,10.88-9,14.28A55.9,55.9,0,0,0,49,126a42.32,42.32,0,0,0,2.21,9.19,50,50,0,0,0,4.25,8.88,67.46,67.46,0,0,0,13.81,16.11,78,78,0,0,0,8.94,6.66,88.45,88.45,0,0,0,9.81,5.54,7,7,0,0,1,2.73,1.78c0,.32-1,.11-2.42-.53a89.4,89.4,0,0,1-14.33-8,78.77,78.77,0,0,1-12.33-10.47c-7.33-7.74-12.49-16.76-14.41-26.05a52.09,52.09,0,0,0,10,23.08,78.35,78.35,0,0,0,20.84,19.07l3.25,1.88c1.08.63,2.22,1.15,3.33,1.74S87,176,88.07,176.57s2.19,1.15,3.32,1.64c23,9.73,48.89,9.79,69.7-4a73.82,73.82,0,0,0,21.26-21.68,72.9,72.9,0,0,0,6.52-13.41,66.54,66.54,0,0,0,2.25-7.33c.28-1.26.63-2.51.83-3.8s.49-2.58.64-3.89c2-14.67-.75-29.11-6.84-42.23a84.41,84.41,0,0,0-5.16-9.5c-1-1.51-2-3-2.94-4.32-.49-.66-1-1.33-1.26-1.6l-1.76-1.92a68.91,68.91,0,0,0-17-12.93c-3.47-1.84-6.77-3.54-7-4.14s2.59.06,6.25,1.83a69.81,69.81,0,0,1,19.07,13.38c.69.67,1.32,1.4,2,2.09a10.36,10.36,0,0,1,.72.81c.26.32.54.67.82,1,1.14,1.48,2.27,3.12,3.34,4.78a86.23,86.23,0,0,1,5.73,10.53,80.65,80.65,0,0,1,6.65,22.83,72.05,72.05,0,0,1-.72,23.57l-.27,1.46-.36,1.46c-.24,1-.42,1.94-.73,2.9l-.84,2.88-1,2.79c-.6,1.89-1.5,3.67-2.25,5.5-.4.91-.89,1.78-1.33,2.67s-.87,1.79-1.41,2.63a72.65,72.65,0,0,1-15.1,18.57,71.46,71.46,0,0,1-20.41,12.76c-.93.39-1.89.7-2.83,1l-1.42.52c-.48.17-1,.28-1.44.43l-2.9.84-3,.66c-.5.1-1,.23-1.49.32l-1.51.23c-1,.14-2,.33-3,.45-2,.17-4.06.44-6.13.44a80,80,0,0,1-21-2.06c.07.11.14.22.12.31-.07.36-.79.53-2,.54a89.59,89.59,0,0,0,12,2.21c2,.16,4.05.43,6.08.44,1,0,2,.12,3.05.09l3-.05a73.74,73.74,0,0,0,31.76-10.42,81,81,0,0,0,25.16-24l1.66-2.59c.27-.44.56-.85.81-1.29l.74-1.33,1.48-2.64c.43-.9.87-1.8,1.3-2.69l.65-1.34c.21-.45.38-.92.57-1.37.37-.92.75-1.83,1.12-2.74s.66-1.86,1-2.79l.49-1.4.41-1.41A73.17,73.17,0,0,0,198,121a74.56,74.56,0,0,0,.78-11.69,82.7,82.7,0,0,0-7.53-28.95,88.79,88.79,0,0,0-7.45-13.14c-.71-1-1.44-2-2.17-3-.35-.45-.77-1-1-1.21l-1.26-1.33A69,69,0,0,0,174,56.54a7.93,7.93,0,0,1-1.39-1.31c-.17-.25.22,0,.86.44a72.21,72.21,0,0,1,7.65,6.95l.33.37.39.45.79,1c.54.68,1.07,1.37,1.59,2.08,1,1.43,2,2.92,3,4.44a87.89,87.89,0,0,1,9.29,19.72c-.37-2.3-.42-3.76.06-3.73s1.51,1.61,2.56,4.23a90.1,90.1,0,0,0-3.31-9.7c-.8-2-1.33-3.55-1.11-3.59s1.13,1.4,1.9,3.28a83.48,83.48,0,0,1,6,41.11,81.69,81.69,0,0,1-6.05,24.26,82.85,82.85,0,0,1-5.73,11.17,83.94,83.94,0,0,1-7.48,10.15,22.44,22.44,0,0,1,4.13-3h0c1.68-2.06,3.09-4.3,4.56-6.48a85.79,85.79,0,0,0,11.3-34.2,84.89,84.89,0,0,0-4-35.89A94.93,94.93,0,0,0,192,71.57a89.37,89.37,0,0,0-4.89-7.74c-.87-1.24-1.8-2.47-2.72-3.57l-.31-.37-.39-.41-.78-.83c-.53-.54-1-1.12-1.58-1.64a80.23,80.23,0,0,0-31-19,4.91,4.91,0,0,1-1.65-.72,3.88,3.88,0,0,1,1.58.34,84.11,84.11,0,0,1,20,9.82A73.25,73.25,0,0,1,179,54.25c.71.59,1.35,1.26,2,1.9l1,1,.95,1,.94,1,.48.5.39.47c.56.67,1.13,1.39,1.67,2.12l0-.05c-.3-.51-.27-.67.17-.19a12.36,12.36,0,0,1,1.36,1.88c.32.61.19.62-.17.19a93.9,93.9,0,0,1,15.49,38,84.43,84.43,0,0,1-3.43,40.52,85.92,85.92,0,0,0,4.43-18.49,85,85,0,0,0,.13-19,92.91,92.91,0,0,0-11.94-36c-1.52-2.33-3.13-4.59-4.87-6.79a11,11,0,0,1-1.12-1.72c-.07-.22.36.15.85.76s1,1.22,1.44,1.83c-1.37-2-2.57-3.75-3.43-4.92s-1.37-2.07-1.16-2.22,1.23.55,2.54,1.7a32.23,32.23,0,0,1,4.2,5.12,93.56,93.56,0,0,1,15.42,37.81c.28,1.46.48,2.93.71,4.4s.49,3,.64,4.45a91,91,0,0,0-7.19-31.17A96.68,96.68,0,0,0,193,64.07a72.45,72.45,0,0,0-4.65-6.58,79.48,79.48,0,0,0-5.56-5.87c-1.37-1.23-2.47-2.37-2.37-2.54s1.32.7,2.72,1.93l2.63,2.43L188.31,56a63.88,63.88,0,0,1,4.53,5.7A97.09,97.09,0,0,1,200.29,74a95.14,95.14,0,0,1,9.14,27.42,86.7,86.7,0,0,1-.07,29.28A84.91,84.91,0,0,1,205.69,145c-.72,2.37-1.77,4.62-2.69,6.93-.5,1.13-1.07,2.23-1.61,3.36s-1.08,2.24-1.72,3.3a92.26,92.26,0,0,1-24.4,31.65l2.14-1.52,2.06-1.65a87.51,87.51,0,0,0,31.09-53.28,92.23,92.23,0,0,0,.28-29.84,102.14,102.14,0,0,0-9.12-28.81,6.72,6.72,0,0,1-.73-1.9c0-.14.44.45.89,1.4a102.44,102.44,0,0,1,9.27,28,89.39,89.39,0,0,1,.18,29.84,90.89,90.89,0,0,1-2.9,12.35c-.32,1-.63,2-.94,3s-.74,2-1.1,2.94-.74,2-1.13,2.92L204,156.52a98.32,98.32,0,0,1-13,20.84,90.13,90.13,0,0,0,13.54-20.55,92.87,92.87,0,0,0,7.44-23,95.31,95.31,0,0,0,1.38-11.9c.15-2,.1-4,.13-6s-.1-4-.3-6a96.15,96.15,0,0,0-4.81-23.32,35,35,0,0,1-1.09-3.51,2.28,2.28,0,0,1-.4-.69c-1.64-3.63-3.55-7.5-5.71-11.32a12.38,12.38,0,0,1-1-2.11C200,68.61,200.32,69,200.82,69.81ZM93.41,43.66l.19.14-.54-.16L92,42.58S92.7,43.1,93.41,43.66Zm6-7.32h0L100,37Zm-47.9,108.5a46.67,46.67,0,0,1-5.67-17.08A50.29,50.29,0,0,1,47,109.68a56.14,56.14,0,0,0-.72,8.88c-.11,1.14-.1,2.26-.15,3.39s0,2.26.1,3.36a46.38,46.38,0,0,0,.8,6.58A53,53,0,0,0,51.48,144.84ZM99.91,47a14.52,14.52,0,0,1-2.38-1.92,3.16,3.16,0,0,1-1.26.58,32.42,32.42,0,0,1-3.67.81c.34.4,0,.45-.07.55l-.38.27c1.34-.14,2.69-.24,4-.32A20.08,20.08,0,0,1,99.91,47ZM108,43.23l.14.16-.1.76Zm.14-1.3-.2-.07C108,41.58,108,41.67,108.13,41.93Zm-1.85-.64a1.67,1.67,0,0,0,.31.35Zm-5.91-21v3.82l.11-3.69Z"/><path d="M107.58,238.51l0,.26a.48.48,0,0,1-.43-.26c.63,2.37,3.21,3.24,5.43,3.08a1.09,1.09,0,0,0,1.49-1.6,1.78,1.78,0,0,1-.17-.41,8.35,8.35,0,0,0-1.17-3.5l.22.83a2.93,2.93,0,0,0-.64-.88l-.1.35a2.54,2.54,0,1,0-4.84,1.51Z"/><path d="M107.14,242.59c-.3-.74-.57-1.48-.83-2.23l0-.24-.54.76,0,0a4.54,4.54,0,0,1,2.85.55l.35.1a.76.76,0,0,0,.54-.21.8.8,0,0,0,.06-1.14l-.35-.37c-.65-1.18-2.17-2.39-3.68-1.57-.34.19-.52.64-.75,1a1.12,1.12,0,0,0,.09,1.58,1.11,1.11,0,0,0,1.57-.09l.17.29-.33,0c.47-.32,1-.07,1.49,0l.59.27.6-1.35-.37,0a1,1,0,0,1-.05.16,10,10,0,0,1-2.12-.34l-1-.11a.68.68,0,0,0-.53.76l.11.48,0-.25c.5.79,1.11,1.51,1.58,2.31a.28.28,0,1,0,.5-.25Z"/><path d="M104.58,240.85a.66.66,0,0,0-.26-.46l-.14,0,.07.37C104.3,241.06,104.47,241,104.58,240.85Z"/><path d="M104.18,240.43l0-.15,0,.15h.05Z"/><path d="M129.29,256.56a38.24,38.24,0,0,0,2.89,3.07s.1,0,.16-.06.07-.15,0-.17c-1-1-2-2-2.88-3.08,0,0-.1,0-.16.05S129.26,256.53,129.29,256.56Z"/><path d="M132.07,269.91a.23.23,0,0,0-.13.18c0,.06,0,.09.09.06a.29.29,0,0,0,.13-.18C132.18,269.9,132.13,269.88,132.07,269.91Z"/><path d="M127.57,275.23a2,2,0,0,0-.75.08s-.07,0-.07-.06a.39.39,0,0,1-.28.2,15.23,15.23,0,0,1-4.83-.83,2.73,2.73,0,0,1-.25.23c-.3.22-.58.24-.7.06l-.07-.17c-.38-.55-.79-1.08-1.16-1.64a.81.81,0,0,1-.54,0,12.51,12.51,0,0,1-2-.08,1,1,0,0,1-.17.31c-.19.24-.44.34-.55.24l-.2-.13c.13.19.26.39.38.6a.19.19,0,0,1,0,.09,4.31,4.31,0,0,0,.59.44,15.36,15.36,0,0,0,6.66,1.62c.06,0,.09,0,.07.1s-.09.15-.15.16c-2,.44-4.08,1.37-5.85,1.28a30.3,30.3,0,0,1-6-.79c-1.46-1.14-3.26-1.6-5.09-2.31-.62-.25-1.2-.51-1.77-.8a1.84,1.84,0,0,1-.25-.14l-.39-.25-.76-.5-1.5-1c-2-1.37-3.9-2.8-5.85-4.26a3.32,3.32,0,0,1-1.2-4.55,3.36,3.36,0,0,1,2.56-1.63l-.34-.29-.42-.6a2.87,2.87,0,0,1-.47-2l.08-.91c.36-1.54.27-3.16.78-4.69l.44-.38v-.21a2.91,2.91,0,0,1,.32-1.71l.46-.52a6.43,6.43,0,0,1,1.87-1.38,2.52,2.52,0,0,1,.61-.61,3.46,3.46,0,0,1,1.24-1.91.48.48,0,0,1,.47-.5.48.48,0,0,1,.26.06h0c0-.2,0-.26.06-.5l-.15-.25c-.27-.38-.27-.38-.52-.71a2.33,2.33,0,0,1-.08-.8c.46-1.21.46-1.21.83-1.6l.15-.07c-.13-.33-.13-.35-.17-.45a1.91,1.91,0,0,1,0-.25c.16-.23.16-.23.19-.34a1,1,0,0,1,.12-.18c.33-.15.33-.15.39-.22l.17-.07.33.07-.12.85.23-.14-.13.33.15-.29,0,.29,0-.37c.33.4.33.4.5.52a.67.67,0,0,0,.35.21.81.81,0,0,1,.09-.14l.69.86,0,.24a.22.22,0,0,1,.27.07l.18.21h.08v0l.28,0h.06l1.19.12a4.56,4.56,0,0,1,.27.39l0-.19c0-.13.22-.3.2-.35a16.58,16.58,0,0,0-2.2-3.14.43.43,0,0,1-.15-.57.42.42,0,0,1,.57-.14,8.91,8.91,0,0,1,6.54,4.95c.45.53.92,1.05,1.39,1.56v-.17l.29.5,0,0v-.64c0-.1-.09-.2-.13-.29a26.07,26.07,0,0,1-2.71-4,22.5,22.5,0,0,1-1.16-2.3.37.37,0,0,1,.52-.52c2.27,1.33,4.43,3.41,5,6a2.15,2.15,0,0,1,.76,1.17v0l0-.51c.22.3.16.69.32,1l.26-.53c1.17,1.36,2.77,2.4,3.55,4.05a1.58,1.58,0,0,1,.12.15,8.84,8.84,0,0,1,2,.47l-.24-.41a1.41,1.41,0,0,1,1,.27,3.1,3.1,0,0,1,.38,3.38,49.57,49.57,0,0,0,4.53,2.64c.09,0,.08.18,0,.32s-.24.23-.32.19a16.41,16.41,0,0,1-3.69-1.37,15.16,15.16,0,0,0,2.14,2.45l.37.2a.67.67,0,0,1,.27.32,13,13,0,0,0,3.43,2.25,27.61,27.61,0,0,0,3.51,1.1,12.57,12.57,0,0,1,4.77,1.8c.2.1.17.47-.07.83s-.62.57-.82.48c-3.56-1.06-7.24-1.86-10-4.25l-.87-.77-.1.15a2.14,2.14,0,0,1-.47.44,8.65,8.65,0,0,1,.87,1,6.71,6.71,0,0,1,3.41,1.71,9,9,0,0,1,1.28,2.47c1,.43,2,.8,3,1.27.06,0,.06.06,0,.14a.22.22,0,0,1-.17.12,13.77,13.77,0,0,1-2.55-.33,2.59,2.59,0,0,1-.48.91,2.17,2.17,0,0,1-.8.64l.38.34c.08.07.05.25-.08.4s-.29.24-.37.17l-1.59-1.34c-.79-.34-1.56-.7-2.32-1.09a3.27,3.27,0,0,1-.39.9h0l.33.21a14,14,0,0,1,6.62,3.22s0,.11,0,.19-.13.11-.16.08A11.28,11.28,0,0,0,132.5,270h0a.3.3,0,0,1-.14.18c-.05,0-.1,0-.09-.07a.3.3,0,0,1,.13-.18,14.56,14.56,0,0,0-3.86-1.61,17,17,0,0,1,2.92,2.3l.53,0s0,.08,0,.15a.21.21,0,0,1-.16.12h-.14c.17.18.07.59-.22,1s-.69.55-.88.38A17.64,17.64,0,0,1,129,271.1l-.22-.06-.3,0c.68.76,1.34,1.56,2,2.37.07.05,0,.2-.06.34s-.24.2-.31.15a27.91,27.91,0,0,1-5.11-2.13l-2.75.63a1.29,1.29,0,0,0,.17.16c1.54,1.2,4.12.57,5.87,1.39.05,0,0,.1,0,.17s-.13.12-.16.09a17,17,0,0,0-3-.47,16.57,16.57,0,0,0-2.55-.27c1.26.72,2.9.86,4.27,1.42.08,0,.1.07.08.17a.2.2,0,0,1,.1-.07,2.41,2.41,0,0,1,.78-.08s.07.05,0,.14A.23.23,0,0,1,127.57,275.23Zm-18.28-26.78v-.12c0,.09.06.18.09.29l-.14.75S109.26,248.92,109.29,248.45Zm-5-.65h0l.08-.42C104.38,247.55,104.35,247.69,104.33,247.8Zm21,8.75a4.56,4.56,0,0,1-1.42-1.86l.51.25C124.79,255.45,125.09,256,125.38,256.55Zm-16.79-11.92a6,6,0,0,1,0,1.59,2.06,2.06,0,0,1,.68.41,18.41,18.41,0,0,1,1.53,1.53c.08-.25.19-.12.28-.09l.24.11c-.48-.59-1-1.2-1.43-1.83A17.75,17.75,0,0,1,108.59,244.63Zm-4.68-2.46v-.11l.33-.2Zm-.55.35,0,.1C103.3,242.7,103.3,242.64,103.36,242.52Zm.49,1a.68.68,0,0,0,0-.24Zm-6,8.83,1.41-1.2-1.4,1.12Z"/><path d="M327.69,57.25l-.34-.34c.12-.26.38-.3.69-.23a4.32,4.32,0,0,0-5-.41A4.9,4.9,0,0,0,322,57a8.84,8.84,0,0,0-.91,1,10.13,10.13,0,0,0-1.33,2.44c-.88.1-1.29,1.24-.92,2.4A2.3,2.3,0,0,0,321,64.68a2.5,2.5,0,0,1,.64.3,17.2,17.2,0,0,0,2.54,1.81c.42.25.83.43,1.24.64s.83.42,1.24.59l-1.11-.89a2.79,2.79,0,0,0,1.42.37l-.32-.63a2.35,2.35,0,0,0,2.48.39,3.23,3.23,0,0,0,1.58-2.35c.59-2.47-.19-5.63-2.13-7Z"/><path d="M322.86,50.93a24.62,24.62,0,0,1,3.71,1.84l.29.38-.45-1.85v.12a7.21,7.21,0,0,1-3.34,3.44l-.44.37a1.65,1.65,0,0,0-.17,1.07,1.79,1.79,0,0,0,1.46,1.64h.76c2,.57,4.66.36,5.17-3a7.74,7.74,0,0,0-.42-2.52,2.15,2.15,0,0,0-2-2.15A1.87,1.87,0,0,0,326,52.63c-.18-.06-.36-.14-.54-.18.09-.19.19-.33.29-.51,0,1.09-.84,1.57-1.33,2.26l-.87.51,1.24,2.72.38-.48c-.07-.11-.18-.28-.18-.29.36-.49.71-1,1.08-1.44a7.14,7.14,0,0,1,1.25-1.15l1.1-1.25A1.75,1.75,0,0,0,328,51l-.72-.53.34.33c-.75-.22-1.52-.37-2.29-.52s-1.54-.2-2.32-.38a.42.42,0,0,0-.54.4A.66.66,0,0,0,322.86,50.93Z"/><path d="M327.7,49.6c.27.18.53.38.84.28.06-.15.09-.22.1-.26l-.53-.42C327.73,48.89,327.61,49.19,327.7,49.6Z"/><path d="M328.64,49.62l.22.18-.17-.25,0,0Z"/><path d="M313.2,179.24a77.92,77.92,0,0,0,35.07,6.47,65.82,65.82,0,0,0,17.28-3.29,67.26,67.26,0,0,0,16-7.89c.69-.42,1.18-.9,1.13-1s-.59.18-1.22.58a67.34,67.34,0,0,1-15.86,7.85,65.46,65.46,0,0,1-17.11,3.29,73.92,73.92,0,0,1-17.66-1.13,82.25,82.25,0,0,1-17.14-5.21,3.11,3.11,0,0,0-1.54-.4C312,178.59,312.51,178.93,313.2,179.24Z"/><path d="M409.47,71.76c.41.54.49.46.19-.18a12.46,12.46,0,0,0-1.24-2c-.37-.43-.46-.35-.19.19A14.52,14.52,0,0,0,409.47,71.76Z"/><path d="M419.55,73.31c2.18,3.72,4,7.38,5.64,10.7a15.59,15.59,0,0,1,.71,1.9c.06-.29.52.42,1.1,1.89a91.51,91.51,0,0,1,5.91,23.08,90,90,0,0,1-.49,24.78c-.27,2.09-.77,4.13-1.16,6.2l-.77,3.06c-.25,1-.51,2.05-.85,3.06-.67,2-1.21,4.1-2,6.07s-1.51,4-2.46,5.93a96.47,96.47,0,0,1-13.71,21.76,4.23,4.23,0,0,1-.62,1.42,36.37,36.37,0,0,1-3.16,4.09c-.7.82-1.55,1.6-2.41,2.44s-1.76,1.7-2.75,2.48l-3,2.31a96.19,96.19,0,0,1-19.79,11.66,91,91,0,0,1-22,6.44c-.75.19-1.54.42-2.36.6l-2.57.47-2.72.44c-.94.11-1.9.19-2.88.28a106,106,0,0,1-39.75-2.73c.76.4,1.2.73,1.14.93-.38.36-3.56-.15-7-1.4-1.76-.64-3.54-1.22-5.26-1.94a122.76,122.76,0,0,0,15.19,5.37c.75.2,1.44.41,2.06.61a111.89,111.89,0,0,0,17.83,2.72,99.64,99.64,0,0,0,39.23-5.11,95.43,95.43,0,0,0,32.93-19.66A104.47,104.47,0,0,0,416,179.3a101.79,101.79,0,0,0,9.52-15.78,97.93,97.93,0,0,0,6.24-17.1,96,96,0,0,0,2.89-17.64,18.7,18.7,0,0,1,.27-2.68c.13-.46.25-.36.23.51a100.75,100.75,0,0,1-2.74,22,93.61,93.61,0,0,1-7.58,21,96.6,96.6,0,0,1-13,19.59,95.6,95.6,0,0,1-19.33,17.24c-1.11.81-2.32,1.48-3.48,2.21s-2.34,1.48-3.57,2.11c-2.44,1.3-4.87,2.64-7.44,3.73a98.94,98.94,0,0,1-15.8,5.62,109.66,109.66,0,0,1-33.14,3.34,121.72,121.72,0,0,1-16.57-1.93l-4.09-.87-2-.45-2-.53-4.05-1.1-4-1.28c-2.69-.81-5.27-1.9-7.91-2.88-1.3-.53-2.58-1.11-3.88-1.67S282,211.62,280.7,211l-3.8-1.9c-1.27-.63-2.49-1.36-3.73-2-2.49-1.37-4.95-2.89-7.38-4.48a121.66,121.66,0,0,1-26.68-25.17,101.26,101.26,0,0,1-10.31-16.28,93.62,93.62,0,0,1-7.06-18.79,103.16,103.16,0,0,1-2-39.32A122.25,122.25,0,0,1,231,66.06,124.12,124.12,0,0,1,244.8,43.58a128,128,0,0,1,18.07-19.17c.81-.76,1.7-1.42,2.55-2.12l1.29-1L267,21l.95-.83c.64-.56,1.27-1.12,1.92-1.65,1.34-1,2.68-2.05,4-3L276,14c.69-.48,1.41-.92,2.12-1.38,1.43-.92,2.87-1.81,4.32-2.7s3-1.65,4.51-2.46,3-1.65,4.63-2.33a11.57,11.57,0,0,1,6.93-1.52,6.25,6.25,0,0,1,4.8,3,6.2,6.2,0,0,1-.72,6.39l1.12-.34,1.87-.19a6.54,6.54,0,0,1,4.66,1.2l1.63,1.16c2.38,2.42,5.44,4.14,7.3,6.91l0,1.19.36.28a5.54,5.54,0,0,1,2.4,2.76l.19,1.41a14.7,14.7,0,0,1-.41,4.74,5.15,5.15,0,0,1,.14,1.74,7.28,7.28,0,0,1,1.35,4.49,1,1,0,0,1,.17,1.38.86.86,0,0,1-.4.29h0a10,10,0,0,0,.65.8,5.25,5.25,0,0,1,.54.12l1.64.22a4.58,4.58,0,0,1,1.19,1c1.09,2.4,1.07,2.4,1.16,3.5,0,.11-.05.22-.08.33a7.52,7.52,0,0,1,.76.38,2.41,2.41,0,0,1,.3.38c.11.58.11.58.23.78a4,4,0,0,1,.09.43c-.18.7-.18.7-.16.89a2.86,2.86,0,0,1-.1.34l-.45.39-.94-1.4-.06.55-.28-.67.2.62-.42-.33.5.49a2.8,2.8,0,0,0-1.19,0,1,1,0,0,0-.65.2c.06.19.09.33.09.33-.92-.1-.93-.13-1.84-.18a4.68,4.68,0,0,1-.29-.37.38.38,0,0,1-.37.32H323l-.08.11,0,0-.31.37-.06.09h0l-1.28,1.62a7.36,7.36,0,0,1-.82-.12,2.86,2.86,0,0,1,.3.22c.19.17.22.73.31.76a14.66,14.66,0,0,0,3.14.69l1.53.15,1.52.24c.33-.12.71.16.84.6a.79.79,0,0,1-.36,1,10.29,10.29,0,0,1-1.23,1.17,11.64,11.64,0,0,1-1.31,1,9.27,9.27,0,0,1-2.88,1.14,15.44,15.44,0,0,1-6.54.07,22.42,22.42,0,0,0-3.26.45l.25.19-.94,0-.09,0,1,.66.52.09a10.59,10.59,0,0,1,3.77-.06c.63.08,1.25.14,1.88.26s1.26.26,1.87.34a16.63,16.63,0,0,1,3.82,1.32c.29,0,.57.32.64.73s-.1.72-.37.72a13.75,13.75,0,0,1-11.43.18,2.86,2.86,0,0,1-2.2-.06h0l.78.57c-.58,0-1.16-.49-1.72-.51l.69.93a38.43,38.43,0,0,0-3.9,1.26,9.88,9.88,0,0,1-4.13.88,1.63,1.63,0,0,1-.3.07,14.1,14.1,0,0,1-.73,1.82c-.07.14-.15.28-.23.41a.48.48,0,0,1-.08.11l-.44.36-.91.7c-1.2,1-2.38,2.06-3.7,3.07l2.76-1.9a15.65,15.65,0,0,1,1.38-.91l1.35-.81s-.17.16-.26.23l-.34.29-.69.57c-.47.35-.89.79-1.33,1.19-.87.82-1.8,1.57-2.67,2.41s-1.74,1.69-2.66,2.52-1.73,1.78-2.67,2.67A110.41,110.41,0,0,0,278,95.27c-3.91,5.56-6.7,10.88-9,14.29a55.88,55.88,0,0,0-1.28,20A42.23,42.23,0,0,0,270,138.7a49.76,49.76,0,0,0,4.25,8.89A67.61,67.61,0,0,0,288,163.69a77.71,77.71,0,0,0,8.94,6.66,88.45,88.45,0,0,0,9.81,5.54,7,7,0,0,1,2.73,1.79c.05.31-1,.1-2.42-.54a88.82,88.82,0,0,1-14.32-8,77.93,77.93,0,0,1-12.34-10.48C273.11,151,268,141.94,266,132.64a52.07,52.07,0,0,0,10,23.09,78.68,78.68,0,0,0,20.84,19.07l3.25,1.87c1.08.63,2.22,1.16,3.33,1.75s2.21,1.11,3.31,1.66,2.19,1.14,3.32,1.63c22.95,9.74,48.89,9.8,69.7-4a70.67,70.67,0,0,0,27.79-35.08,69.45,69.45,0,0,0,2.24-7.33c.28-1.26.63-2.52.83-3.81s.49-2.57.64-3.88c2-14.68-.75-29.11-6.84-42.24a85.29,85.29,0,0,0-5.16-9.5c-.94-1.5-1.95-3-2.94-4.32-.49-.66-1-1.32-1.25-1.59L393.37,68a69.4,69.4,0,0,0-17-12.93c-3.47-1.83-6.77-3.53-7.05-4.14s2.6.07,6.25,1.83A69.87,69.87,0,0,1,394.6,66.16c.69.68,1.33,1.4,2,2.1a10.49,10.49,0,0,1,.72.8c.27.33.54.68.83,1,1.13,1.47,2.26,3.11,3.33,4.77a87,87,0,0,1,5.73,10.53,80.72,80.72,0,0,1,6.65,22.84,72.33,72.33,0,0,1-.71,23.57l-.28,1.46-.35,1.45c-.25,1-.43,2-.74,2.9l-.84,2.89-1,2.79c-.6,1.89-1.5,3.66-2.25,5.5-.4.91-.89,1.77-1.33,2.66s-.87,1.79-1.41,2.63a72.52,72.52,0,0,1-15.1,18.58,71.68,71.68,0,0,1-20.41,12.76c-.93.39-1.89.69-2.83,1.05l-1.42.52c-.47.16-1,.28-1.44.42l-2.89.85-3,.65c-.5.11-1,.23-1.49.32l-1.5.23c-1,.15-2,.34-3,.46-2.05.17-4.07.43-6.14.44a79.83,79.83,0,0,1-21-2.07.47.47,0,0,1,.11.31c-.07.36-.79.53-2,.55a91.06,91.06,0,0,0,12,2.21c2,.16,4,.42,6.07.44,1,0,2,.11,3.06.09l3.05-.06a73.73,73.73,0,0,0,31.75-10.41A81.1,81.1,0,0,0,404,157.49l1.66-2.6c.27-.43.56-.85.81-1.29l.74-1.33,1.48-2.63,1.3-2.7.65-1.34c.21-.45.38-.91.57-1.37l1.12-2.73c.38-.91.66-1.87,1-2.79l.49-1.4.42-1.42a77.41,77.41,0,0,0,3.33-23.1A83.13,83.13,0,0,0,410,83.84a89,89,0,0,0-7.46-13.15c-.71-1-1.44-2-2.17-3-.34-.44-.77-1-1-1.21l-1.26-1.33a70.73,70.73,0,0,0-5.38-5.14,7.93,7.93,0,0,1-1.39-1.31c-.17-.26.22-.05.86.44a72.21,72.21,0,0,1,7.65,6.95l.33.36.39.46.8,1c.53.67,1.06,1.37,1.58,2.08,1,1.42,2,2.92,3,4.43a88.17,88.17,0,0,1,9.29,19.73c-.37-2.3-.42-3.76.06-3.73s1.51,1.6,2.56,4.22A88.52,88.52,0,0,0,414.58,85c-.79-2-1.33-3.55-1.11-3.6s1.13,1.41,1.9,3.29a83.44,83.44,0,0,1,6,41.1A81.75,81.75,0,0,1,415.36,150a77.92,77.92,0,0,1-13.21,21.31,22.57,22.57,0,0,1,4.14-3h0c1.68-2.06,3.09-4.3,4.56-6.48a85.8,85.8,0,0,0,11.3-34.19,84.86,84.86,0,0,0-4-35.89,94.61,94.61,0,0,0-7.42-16.73,89.54,89.54,0,0,0-4.89-7.75c-.87-1.23-1.8-2.46-2.72-3.56l-.31-.37-.39-.41-.78-.83c-.53-.55-1-1.13-1.58-1.64A80.37,80.37,0,0,0,369,41.47a5,5,0,0,1-1.65-.71,3.7,3.7,0,0,1,1.58.34,84.11,84.11,0,0,1,20,9.82,74.09,74.09,0,0,1,8.74,6.83c.7.6,1.34,1.27,2,1.9l1,1,.95,1,1,1,.47.5.4.46c.55.67,1.12,1.4,1.66,2.13l0,0c-.3-.51-.27-.67.17-.2a12.18,12.18,0,0,1,1.36,1.88c.33.61.2.62-.17.2a93.78,93.78,0,0,1,15.49,38,84.4,84.4,0,0,1-3.43,40.51,83.43,83.43,0,0,0,4.56-37.49,92.92,92.92,0,0,0-11.94-36c-1.52-2.34-3.13-4.59-4.86-6.79A10.12,10.12,0,0,1,405.15,64c-.07-.21.36.16.85.77s1,1.21,1.44,1.83c-1.37-2-2.57-3.75-3.43-4.93s-1.37-2.06-1.15-2.22,1.22.56,2.53,1.71a31.78,31.78,0,0,1,4.21,5.12A93.63,93.63,0,0,1,425,104.13c.29,1.45.48,2.93.71,4.39s.5,3,.64,4.45a90.73,90.73,0,0,0-7.19-31.16,97.59,97.59,0,0,0-7.42-14.23A78.38,78.38,0,0,0,407.1,61a79.6,79.6,0,0,0-5.57-5.87c-1.37-1.22-2.46-2.36-2.37-2.53s1.32.7,2.72,1.93L404.51,57,407,59.5a62.12,62.12,0,0,1,4.53,5.7A97,97,0,0,1,419,77.48a94.9,94.9,0,0,1,9.14,27.43,86.65,86.65,0,0,1-.07,29.27,85,85,0,0,1-3.67,14.32c-.72,2.37-1.77,4.62-2.69,6.92-.5,1.14-1.07,2.24-1.61,3.36s-1.07,2.24-1.71,3.31A92.47,92.47,0,0,1,394,193.73l2.14-1.51,2.06-1.66a87.48,87.48,0,0,0,31.09-53.28,92.17,92.17,0,0,0,.28-29.83,102.2,102.2,0,0,0-9.12-28.82,6.71,6.71,0,0,1-.73-1.89c0-.15.44.44.89,1.39a102.28,102.28,0,0,1,9.27,28,89.13,89.13,0,0,1,.18,29.84,90.75,90.75,0,0,1-2.9,12.34c-.32,1-.63,2-.94,3s-.74,2-1.1,2.94-.73,1.95-1.13,2.92L422.7,160a98.39,98.39,0,0,1-13,20.85,90.73,90.73,0,0,0,13.55-20.55,93.54,93.54,0,0,0,7.43-23,95.47,95.47,0,0,0,1.38-11.91c.15-2,.1-4,.13-6s-.1-4-.29-6a96.65,96.65,0,0,0-4.82-23.32A34.3,34.3,0,0,1,426,86.65a2.58,2.58,0,0,1-.4-.68c-1.64-3.63-3.54-7.5-5.71-11.32a12.38,12.38,0,0,1-1-2.11C418.73,72.11,419.06,72.51,419.55,73.31ZM312.14,47.16l.19.14-.54-.16-1.09-1.06S311.43,46.61,312.14,47.16Zm6-7.31h0l.57.66ZM270.22,148.34a46.71,46.71,0,0,1-5.68-17.07,50.27,50.27,0,0,1,1.2-18.08,57.25,57.25,0,0,0-.72,8.88c-.11,1.14-.09,2.26-.15,3.39s0,2.25.1,3.35a48.21,48.21,0,0,0,.8,6.59A53.12,53.12,0,0,0,270.22,148.34Zm48.42-97.82a14.09,14.09,0,0,1-2.38-1.93,3.05,3.05,0,0,1-1.25.58,31.3,31.3,0,0,1-3.67.82c.33.39,0,.44-.08.55l-.38.27c1.35-.14,2.69-.24,4-.32A19.25,19.25,0,0,1,318.64,50.52Zm8.08-3.79.14.16-.1.77Zm.14-1.29-.2-.07C326.68,45.08,326.76,45.17,326.86,45.44ZM325,44.8a1.64,1.64,0,0,0,.32.35Zm-5.9-21V27.6l.11-3.7Z"/></g></g></svg>