<svg xmlns="http://www.w3.org/2000/svg" viewBox="0 0 460.49 284.78"><g id="Layer_2" data-name="Layer 2"><g id="Layer_1-2" data-name="Layer 1"><path d="M171.83,107.6l.63,0a1.69,1.69,0,0,1-.93,1,15.62,15.62,0,0,0,7.72-4.36,42.75,42.75,0,0,0,3-3.46,25.55,25.55,0,0,0,2.31-3.78c1.51-.82,2.54-2.27,2.09-3.44s-2.19-1.48-3.87-.66a5.93,5.93,0,0,1-1.23.22,20.69,20.69,0,0,0-5,.29,25,25,0,0,0-2.64.58c-.85.26-1.71.56-2.58.89l2.33-.36a11.38,11.38,0,0,0-2.94,1.38l.73.31A10,10,0,0,0,166.25,99a7.89,7.89,0,0,0-2.23,4.77c-.15,3.29,2.77,5,6.24,4.16Z"/><path d="M180.86,109.56c-1.9.44-3.89.78-5.74,1.28l-.53-.09,1.33,1.35,0-.11c.1-2.29,1.93-4.43,3.69-6.32l.56-.76a1.61,1.61,0,0,0,.07-1.3c-.36-.87-1.51-1.08-2.59-.47l-1.23.71c-3.54,1.13-7.58,4.77-6.74,8.31.21.81,1.13,1.25,1.8,1.82a2.63,2.63,0,0,0,3.66,0,2.75,2.75,0,0,0,.9-3.61c.27-.11.52-.23.8-.33l-.2.76c-.4-1.15.67-2.23,1.19-3.37l1.16-1.25-2.56-1.74-.49.85.36.13c-.44.83-.85,1.64-1.28,2.44a23.61,23.61,0,0,1-1.32,2.4l-1,2.28a1.2,1.2,0,0,0,1.37,1.33l1.16-.18h-.58c1.06-.49,2.09-1,3.13-1.59a30,30,0,0,1,3.25-1.39.82.82,0,0,0,.6-.8A.54.54,0,0,0,180.86,109.56Z"/><path d="M175,114.87a1.84,1.84,0,0,0-1.19.51v.32l.87-.1C175.32,115.53,175.32,115.16,175,114.87Z"/><path d="M173.83,115.7l-.37,0,.34.07a.2.2,0,0,0,0-.06Z"/><path d="M303,231.33c9.43-8.39,16.22-22.24,20.1-37.16a138.38,138.38,0,0,0,3.88-23.3,206.16,206.16,0,0,0,.25-24.56,5.82,5.82,0,0,0-.33-2.15,4.22,4.22,0,0,0-.12,1.91,205.2,205.2,0,0,1-.25,24.51,137.77,137.77,0,0,1-3.83,23.18c-3.82,14.85-10.56,28.6-19.83,37a3.56,3.56,0,0,0-1.06,1.27C301.89,232.16,302.41,231.85,303,231.33Z"/><path d="M399.46,15.56c-.89.08-.85.19.07.26.4,0,1,0,1.51,0s1.13.07,1.57.07c.74,0,.73-.13-.06-.26a10.61,10.61,0,0,0-1.6-.17C400.38,15.51,399.84,15.53,399.46,15.56Z"/><path d="M392.8,24.14l-3.15.8c-1,.31-2,.73-2.95,1.08-.48.19-1,.35-1.42.56l-1.33.68c-.87.46-1.74.86-2.53,1.34a16.8,16.8,0,0,1-1.81,1c.31,0-.37.54-1.69,1.4-1.56,1.2-3.2,2.26-4.65,3.62-.74.67-1.53,1.26-2.23,2l-2.12,2.12a67.46,67.46,0,0,0-7.53,9.53c-1.18,1.67-2.13,3.51-3.19,5.26-.48.91-.93,1.84-1.39,2.76l-.7,1.38-.61,1.42a68.87,68.87,0,0,0-4,11.66l-.68,3c-.19,1-.34,2.08-.52,3.11-.39,2.06-.56,4.2-.8,6.31-.15,1.05-.16,2.14-.24,3.2s-.15,2.14-.18,3.22L349,92.81l0,1.63,0,1.64a261.08,261.08,0,0,0,2,26.8,4.73,4.73,0,0,1,.61,1.51,76.22,76.22,0,0,1,1.9,13l.24,4.09c.57,8.29,1,16.78.78,25.45A169.78,169.78,0,0,1,352,192.77c-.19,1.77-.37,3.7-.73,5.73-.18,1-.36,2.05-.55,3.12s-.47,2.16-.71,3.27a122.75,122.75,0,0,1-6.62,22.42,104.81,104.81,0,0,1-5.21,11l-1.59,2.72-.81,1.36-.88,1.33-1.78,2.66L331.15,249c.8-.75,1.35-1.15,1.51-1s-.43,1.27-1.35,2.65c-.45.7-1.08,1.44-1.75,2.27s-1.41,1.7-2.29,2.54L324.68,258c-.89.85-1.84,1.65-2.76,2.46a84.4,84.4,0,0,0,14.24-15.15c.57-.8,1.15-1.51,1.62-2.19a104.17,104.17,0,0,0,10-19.53c5.75-14.8,8.29-29.76,9.17-44.35a177.36,177.36,0,0,0-.08-21.64c-.43-7-1.17-13.85-2-20.49-1.62-13.28-3.44-25.84-4-38a121.44,121.44,0,0,1,.4-17.85l.21-2.18.32-2.14c.22-1.43.4-2.89.73-4.22l.43-2c.13-.69.37-1.36.55-2l.56-2c.19-.69.46-1.34.68-2a13.36,13.36,0,0,1,1-2.37c.28-.36.33-.25.07.54s-.53,1.7-.79,2.55c-.13.42-.27.83-.38,1.26l-.31,1.27-.6,2.52c-.15.84-.29,1.68-.43,2.52-.33,1.62-.45,3.43-.65,5.14l-.14,1.29-.07,1.31-.13,2.62a137.65,137.65,0,0,0,1.11,21.38c.87,7.33,2.15,14.93,3.49,23.1s2.74,17,3.65,26.73c.16,1.45.27,2.92.37,4.41s.23,3,.3,4.45l.18,4.52.08,4.54a180.91,180.91,0,0,1-.85,18.26,145.64,145.64,0,0,1-8.32,37c-1.17,3.09-2.46,6.17-3.92,9.24s-3.07,6.09-4.93,9.16a92,92,0,0,1-13.46,17.27,75.83,75.83,0,0,1-19.14,14.15l-2.86,1.42c-.95.47-2,.85-3,1.27s-2,.83-3.08,1.18l-3.22,1-1.63.48c-.55.14-1.12.26-1.68.38-1.13.25-2.27.49-3.4.71s-2.34.33-3.51.48l-3.84.39A61.38,61.38,0,0,1,268.45,283a54.64,54.64,0,0,1-14.94-6.15,53,53,0,0,1-12.41-10.15,55.12,55.12,0,0,1-8.73-13.39,46.34,46.34,0,0,1-2.87-7c-.44-1.33-.77-2.59-1.12-3.87s-.6-2.52-.8-3.69a76.11,76.11,0,0,1-1.23-13.44,100.12,100.12,0,0,1,.66-11.88c.25-1.84.45-3.75.77-5.52l.46-2.69c.15-.92.3-1.63.46-2.46.59-3.17,1.31-6.43,2.07-9.64s1.63-6.35,2.37-9.12a85.24,85.24,0,0,0,2.72-13.35c.12-1.09.25-2.17.34-3.34s.2-2.34.28-3.55l.07-.9c0-.29,0-.44,0-.66V161c0-.41,0-.75-.06-1.12a8.15,8.15,0,0,0-.08-1c-.05-.32-.08-.63-.11-1s-.13-.54-.18-.81a4.29,4.29,0,0,0-.19-.73,3.69,3.69,0,0,0-.21-.64,9,9,0,0,0-1.08-2.09,31.91,31.91,0,0,0-2.88-3.77c-.73-.83-1.55-1.75-2.52-2.76l-.74-.77-.18-.19-.09-.09h0l-.14-.06a1.64,1.64,0,0,1-.46-.29c-.63-.19-1-.41-1.39-.28l-.12,0-.16.06a.41.41,0,0,1-.27,0,.72.72,0,0,1-.35.1s-.09,0-.16,0a1,1,0,0,1-.21.09c-.15.05-.26,0-.41.05l-.27.1-.05,0-.16.11c-.11.08-.19.06-.33.18a2.76,2.76,0,0,1-.75.43c-1.1.64-2.47,1.3-4.1,2.26-.52.66-1.36.58-2.42,0a10.38,10.38,0,0,1-3.4-3,9.25,9.25,0,0,1-2-5.66c-.17.11-.33.21-.5.3l-1,.16a5.22,5.22,0,0,1-3.26-.92l-1.48-.79c-2.51-1.74-5.43-2.66-8.16-4.4l-.6-1-.39-.1a6.26,6.26,0,0,1-3.16-1.4l-.88-1.11a13.46,13.46,0,0,1-2.07-4.32,4.79,4.79,0,0,1-.95-1.49,6.73,6.73,0,0,1-3.34-3.26.93.93,0,0,1-.8-1.15,1.17,1.17,0,0,1,.27-.53h0a6.64,6.64,0,0,0-1-.3c-.37.16-.61.24-.61.24-.94.51-.94.51-1.78.94a5.37,5.37,0,0,1-1.77,0c-2.4-1.27-2.41-1.25-3.06-2.14,0-.12-.06-.23-.08-.35-.8.23-.86.24-1.09.29a2.76,2.76,0,0,1-.55-.06c-.44-.41-.44-.41-.69-.47a2.32,2.32,0,0,1-.33-.3c-.14-.75-.14-.75-.26-.89a1.87,1.87,0,0,1,0-.4l.37-.74,1.84.41-.18-.54.66.35-.54-.38.66-.07h-.83a6,6,0,0,0,1.47-1,2.48,2.48,0,0,0,.72-.75,1.42,1.42,0,0,1-.26-.23,20.83,20.83,0,0,1,2.41-1.33,2.73,2.73,0,0,1,.51.14.62.62,0,0,1,.38-.57l.63-.34.06-.16,0,0,.29-.59,0-.13h0L183,108a6.52,6.52,0,0,1,1.15-.45l-.46,0c-.3,0-.46-.61-.59-.58a27.08,27.08,0,0,0-4.6,1.74c-.76.36-1.53.73-2.27,1.12L174,111a1.12,1.12,0,0,1-1.41.27.91.91,0,0,1,.09-1.34,20.61,20.61,0,0,1,1.32-2.44,17.85,17.85,0,0,1,1.78-2.22,25,25,0,0,1,4.4-3.84,34.66,34.66,0,0,1,5.35-2.75,19.2,19.2,0,0,1,2.87-.91c1-.25,1.94-.45,2.9-.6.94-.31,1.83-.66,2.8-.93l2.9-.81-.37-.15,1.59-.19.16,0-1.47-.5-.87,0c-1.11.36-2.28.61-3.37.9s-2.17.56-3.28.81l-3.36.75c-1.1.28-2.15.63-3.24,1-2.3.82-4.7,1.08-6.9,1.87-.5.3-1,.25-1.24-.13s.08-.91.58-1.21c5.84-5,14.55-9,22-8a8.43,8.43,0,0,1,2.07-.54,7.5,7.5,0,0,1,2.07.07h.07l-1.15-.52c1.14-.14,1.92.35,3,.34l-.7-1c1.39-.21,2.72-.54,4.14-.76s2.86-.42,4.29-.59l2.12-.21c.71,0,1.44,0,2.15,0a24.27,24.27,0,0,1,4.15.53,5.82,5.82,0,0,1,.6,0,23.35,23.35,0,0,1,3.46-1.13c.31-.08.62-.14.93-.2a2,2,0,0,1,.3-.05h1.49c.51,0,1,0,1.52,0l1.54.13c2.08.2,4.17.34,6.31.74s4.31.91,6.49,1.51c-1.47-.46-2.94-.83-4.42-1.21a36.41,36.41,0,0,0-4.43-.94c-1.47-.23-3-.44-4.45-.62l-1.12-.14-1.11,0-1.94-.09h.31l.6,0h1.2a19.73,19.73,0,0,1,2.42.09c1.63.12,3.25.26,4.88.44a21.13,21.13,0,0,1,2.45.39l2.46.5a39.59,39.59,0,0,1,4.89,1.28q2.43.8,4.85,1.69c1.59.67,3.15,1.45,4.71,2.23.78.39,1.57.79,2.34,1.21l2.23,1.42c1.47,1,3,1.93,4.38,3,1.85,1.53,3.73,3.08,5.46,4.75s3.31,3.52,4.79,5.25c2.17,2.74,4.39,5.75,6.53,9.08a76,76,0,0,1,5.86,11.06,61.78,61.78,0,0,1,3.86,12.33c.45,2.07.7,4.1.93,6.09.11,1,.15,2,.21,2.93s.11,1.91.09,2.82c0,1.83,0,3.63-.2,5.28-.07.83-.15,1.66-.22,2.47l-.33,2.3c-.12.74-.24,1.48-.36,2.2s-.29,1.38-.44,2-.3,1.32-.45,2-.31,1.09-.46,1.63c-.31,1-.62,2-.93,2.91s-.64,1.81-1,2.62c-.24,1.53-.58,3.13-.87,4.69s-.67,3.17-1.08,4.77c-.76,3.18-1.7,6.38-2.62,9.26-1.9,5.81-3.45,10.21-4.73,14.92-.31,1.18-.65,2.33-.94,3.54l-.44,1.79c-.16.61-.25,1.09-.37,1.64l-.36,1.6-.28,1.56c-.22,1.05-.32,2-.47,3a44.35,44.35,0,0,0-.35,5.53,21.61,21.61,0,0,0,.4,4.13,7.81,7.81,0,0,0,.34,1.26l.25.64.14.34,0,0s-.09-.21-.06-.15v0l0,0,.09.17a5.54,5.54,0,0,0,.33.64,9.55,9.55,0,0,0,1.78,2.26,9.87,9.87,0,0,0,5.07,2.49c.47.09.95.09,1.41.14a13.45,13.45,0,0,1,1.42,0,4.45,4.45,0,0,1,.82-.09l.49,0c.16,0,.33-.06.5-.08a14.3,14.3,0,0,0,2.05-.41,27.59,27.59,0,0,0,8.83-4.09,11.42,11.42,0,0,1,1.72-1.09,3.07,3.07,0,0,1,1.11-.43c.15,0,.06.29-.22.65a8,8,0,0,1-1.39,1.22,32.18,32.18,0,0,1-6.54,3.89,23.27,23.27,0,0,1-6.35,1.74l-.38,0-.31,0a2.07,2.07,0,0,1-.6.06,9.11,9.11,0,0,0-1.16.06,14.28,14.28,0,0,1-2.35-.23,11.35,11.35,0,0,1-4.4-1.87A11,11,0,0,1,273,236c-.1-.18-.18-.37-.28-.55l-.08-.13,0-.07,0,0h0l.05.12,0-.07-.3-.71a9.73,9.73,0,0,1-.4-1.11,16.52,16.52,0,0,1-.54-2.81,36.36,36.36,0,0,1,.09-8l.29-2.28.39-2.34c.33-1.61.62-3.12,1.07-4.95-.19.71-.43,1.51-.58,2.14l-.51,2c-.18.68-.28,1.31-.43,2s-.29,1.31-.38,1.94a46.45,46.45,0,0,0-.79,7.24,24,24,0,0,0,.45,5.51c.08.35.15.61.27,1l.15.4.14.37,0,.11,0,.06c0,.1-.08-.2,0-.11l0,.07.22.52c.12.37.35.68.49,1s.37.67.61,1a12.67,12.67,0,0,0,7.52,5.16,20.22,20.22,0,0,0,2.33.39c.4,0,.79,0,1.19,0a5.83,5.83,0,0,0,.59,0l.63-.05a12.3,12.3,0,0,0,1.46-.09c.5-.08,1-.15,1.51-.21s1-.24,1.54-.35l.78-.17.79-.27a30.42,30.42,0,0,0,6.41-3.07c.52-.34,1-.65,1.59-1s1-.73,1.56-1.08a18.7,18.7,0,0,0,1.56-1.13c.51-.4,1-.77,1.56-1.18a54.36,54.36,0,0,0,7-7.45c.52-.69,1.08-1.35,1.57-2.07l1.47-2.16c.93-1.52,1.91-3,2.75-4.64s1.68-3.24,2.49-4.88,1.53-3.37,2.18-5.13a99.1,99.1,0,0,0,3.55-10.77,130.88,130.88,0,0,0,4.06-23c.32-4,.53-8,.55-12,0-2,0-4.1-.07-6.17s-.13-4.18-.27-6.32c-.79-14.58-2.58-28.89-3.08-44a172.48,172.48,0,0,1,.67-23.35c.15-2,.49-4,.77-6.07s.7-4.1,1.11-6.16,1-4.2,1.54-6.35c.27-1.09.62-2.14,1-3.19l1.07-3.17a92.78,92.78,0,0,1,19.16-31.3c1.09-1.1,2.09-2.25,3.25-3.29L358,20.67a78,78,0,0,1,7.58-5.6A63.26,63.26,0,0,1,383.11,7a44.72,44.72,0,0,1,4.8-1.14l2.43-.48c.82-.13,1.66-.2,2.49-.29a41.69,41.69,0,0,1,5-.34h3.77l1.24.1A58.59,58.59,0,0,1,422,9.4a70.67,70.67,0,0,1,16.35,9.74c1.2,1,2.46,1.95,3.59,3l3.39,3.2c2.11,2.23,4.25,4.48,6.12,6.9l1.51,1.88c.48.63.9,1.27,1.32,1.88.84,1.23,1.6,2.38,2.22,3.4a17,17,0,0,1,1.87,4c0,.91-2.6-2.86-6.46-8a87.15,87.15,0,0,0-13.25-13.58,69.21,69.21,0,0,0-16.74-10.21,58.35,58.35,0,0,0-19.8-4.55c-1.71-.09-3.45,0-5.17,0s-3.43.32-5.15.49A58.11,58.11,0,0,0,381.84,10a65.54,65.54,0,0,0-17.66,9.06,79.62,79.62,0,0,0-14,13.12,86.79,86.79,0,0,0-10.52,15.58,92.18,92.18,0,0,0-7.1,17.44c-.41,1.53-.86,3.08-1.21,4.6l-.91,4.52c-.35,1.51-.49,3-.74,4.52s-.45,3-.57,4.51a156.08,156.08,0,0,0-.84,17.84c.06,11.74,1.07,23.09,1.92,34.18.43,5.54.8,11,1.05,16.41s.28,10.73.06,16a136.71,136.71,0,0,1-4.75,31.08,114.31,114.31,0,0,1-4.3,12.51,85,85,0,0,1-5.75,11.31.57.57,0,0,1,.35,0c.32.19.2,1-.24,2.34a99.28,99.28,0,0,0,11.81-27.21,143.34,143.34,0,0,0,3.21-21.31,181.54,181.54,0,0,0,.28-22c-.59-15.07-2.54-31-2.69-48.24,0-5.94.18-11.8.76-17.62.13-1.45.36-2.91.53-4.35l.28-2.17c.11-.72.25-1.44.38-2.16.26-1.43.5-2.86.79-4.29s.68-2.83,1-4.25a88.48,88.48,0,0,1,6-16.51,93.55,93.55,0,0,1,9.1-14.73,79.24,79.24,0,0,1,15.07-16.22,62.45,62.45,0,0,1,20-10.93,52.78,52.78,0,0,1,23.35-2.11,58.86,58.86,0,0,1,21.81,7.9,11.06,11.06,0,0,1,2.4,1.67c.31.33-.28,0-1.31-.64a65,65,0,0,0-14.55-6.41,51.38,51.38,0,0,0-16.18-2.11l-2.06.05c-.69,0-1.37.14-2.05.21l-2,.25-1,.13-1,.22-4,.89c-1.32.35-2.6.82-3.9,1.24a58.3,58.3,0,0,0-14.34,7.39A27.94,27.94,0,0,1,371.91,20c.88-.24,1.37-.25,1.36,0s-.54.75-1.4,1.55-2.11,1.81-3.63,3l2.94-1.9,1.47-1,1.56-.82c1-.55,2.06-1.11,3.11-1.64l3.26-1.36a18.33,18.33,0,0,1,3.52-1.11c.91-.2,1.46-.27,1.45-.14s-.52.4-1.38.75-2.06.74-3.3,1.3L377.6,20l-3.12,1.65c-.51.29-1.05.55-1.55.85l-1.47.95c-1,.65-2,1.25-2.94,1.94-1.84,1.43-3.76,2.79-5.45,4.39-.85.79-1.77,1.52-2.57,2.36l-2.42,2.5a78.09,78.09,0,0,0-8.5,11A81.25,81.25,0,0,0,343,57.78a76.63,76.63,0,0,0-4.82,15.89,111.92,111.92,0,0,0-2,16.23L336,94,335.93,98c0,1.35,0,2.7,0,4s0,2.69.1,4c.2,5.36.56,10.69,1,16a23.15,23.15,0,0,1,.89-6.24h0c-.09-1.65-.19-3.29-.28-4.93s-.13-3.29-.2-4.94a153.11,153.11,0,0,1,.37-22.84c.19-1.91.48-3.82.72-5.74s.69-3.81,1-5.72.91-3.82,1.46-5.7l.9-2.8.46-1.4.54-1.37a83.57,83.57,0,0,1,11.41-20.62,70.14,70.14,0,0,1,17.46-16.31l1.27-.84c.43-.26.88-.49,1.33-.74l2.67-1.46c.89-.5,1.86-.84,2.79-1.27s1.86-.84,2.83-1.17l2.94-.94,1.46-.47,1.51-.32,3-.64c1-.21,2-.26,3.08-.39a51.26,51.26,0,0,1,6.2-.25c1,0,2.07.16,3.1.24l1.55.14c.51.06,1,.17,1.52.26l3.06.55,3,.83,1.49.42,1.44.54L419,19a65.3,65.3,0,0,1,19.95,13.81,87.2,87.2,0,0,1,14.26,19.28,7.65,7.65,0,0,1,1,2.09A6.4,6.4,0,0,1,453,52.5l-1.77-3.14-1.94-3-1-1.51-1.06-1.47-2.14-2.92a82.65,82.65,0,0,0-9.93-10.57,67.3,67.3,0,0,0-12-8.37,55.8,55.8,0,0,0-13.84-5.09l.08,0c.77.21.89.35,0,.26a23.16,23.16,0,0,1-3-.56c-.89-.23-.79-.33-.05-.26a48.91,48.91,0,0,0-13.83,0c-1.14.17-2.26.45-3.38.68l-1.69.36c-.56.13-1.1.33-1.65.5l-3.28,1.05c-1,.43-2.1.9-3.15,1.35l-1.57.68-1.5.82-3,1.64L370.5,24.8c-.47.31-.95.61-1.41.94l-1.32,1.05c-.89.7-1.78,1.38-2.65,2.1l-2.47,2.27c-.41.38-.83.75-1.23,1.14l-1.15,1.22L358,36l-2.12,2.58-1.05,1.29-1,1.35-1.93,2.7-1.77,2.81c-1.22,1.84-2.18,3.84-3.25,5.76-.5,1-.94,2-1.42,3s-.94,2-1.32,3l-1.2,3.07c-.39,1-.69,2.09-1,3.13-.73,2.07-1.19,4.23-1.74,6.35s-.84,4.27-1.2,6.41-.61,4.29-.77,6.43c.18-2,.55-4,.81-5.95s.78-4,1.16-5.92c.19-1,.5-2,.75-2.94s.48-2,.83-2.92c.66-1.91,1.23-3.86,2-5.71l1.15-2.81,1.31-2.73c.83-1.85,1.87-3.58,2.84-5.35.48-.9,1-1.73,1.59-2.58l1.63-2.55,1.8-2.45c.6-.81,1.17-1.64,1.84-2.4a68.45,68.45,0,0,1,18.22-16,50.71,50.71,0,0,1,23.3-7,43.88,43.88,0,0,1,5.38-.07l2.7.14,2.7.4c.49.08,1.06.19,1.54.31a6,6,0,0,1,1.06.4c.24.17-.47,0-1.47-.15l-3-.45,2.2.44a13.11,13.11,0,0,1,2,.52c1.25.4,2.35.79,3.26,1.13,1.76.84,2.74,1.47,2.6,1.69-.52.44-5.4-1.28-11.53-2a47.48,47.48,0,0,0-12.32.25l-3,.64-1.5.33-1.47.47-2.93.94c-.95.39-1.89.82-2.83,1.22-7.56,3.27-14.09,8.53-19.67,14.51a25.61,25.61,0,0,0-1.72,2l-1.67,2.07c-1.05,1.45-2,3-2.95,4.45a71.12,71.12,0,0,1,12.77-14,55,55,0,0,1,16.21-9.47L388.32,21l4.59-.92c1.55-.12,3.09-.35,4.64-.39H401l1.16.11A47.21,47.21,0,0,1,420,24.91a15.16,15.16,0,0,1,2.4,1.39c.6.41,1,.72.93.81s-.43,0-1.06-.33c-.31-.14-.68-.32-1.09-.53l-.63-.34-.7-.32a46.38,46.38,0,0,0-15.37-4.41,42.61,42.61,0,0,0-15.77,1.41c-10.25,3-19.21,9.61-26.23,17.78a77.37,77.37,0,0,0-15.12,28.45l-1,3.91-.76,4c-.28,1.33-.42,2.7-.6,4s-.38,2.71-.46,4.08a140.29,140.29,0,0,0-.5,16.56c1.17,14.61,4.07,29.19,6.23,44.63-.11-2-.28-3.92-.44-5.89-.53-6.23-1.16-12.27-1.76-18.16s-1.09-11.62-1.44-17.26-.41-11.16-.21-16.6a102.45,102.45,0,0,1,1.87-16,69.18,69.18,0,0,1,4.91-15,74.21,74.21,0,0,1,8.19-13.81A59.81,59.81,0,0,1,372.71,31.7a48.34,48.34,0,0,1,14.46-7.78,5.53,5.53,0,0,1,2.13-.49c.07,0-.08.11-.37.22a9.77,9.77,0,0,1-1.26.48,46.61,46.61,0,0,0-14,7.39A62.36,62.36,0,0,0,362.61,42.6a73.58,73.58,0,0,0-13.49,28.25,93.63,93.63,0,0,0-2,13.14,130.29,130.29,0,0,0-.29,13.25,246,246,0,0,0,2.35,26.35c-.88-9-1.64-17.75-1.74-26.32a109.5,109.5,0,0,1,2.19-25l.68-3,.88-2.92c.27-1,.63-1.93,1-2.89s.68-1.93,1.09-2.87c.84-1.87,1.61-3.77,2.6-5.58s2-3.6,3-5.37a66.42,66.42,0,0,1,7.49-9.83c1.33-1.59,2.9-2.91,4.37-4.36l2.38-1.95c.4-.32.78-.67,1.2-1l1.26-.87a15.06,15.06,0,0,1,3.24-1.92,2.34,2.34,0,0,1,.63-.51l1.31-.83.67-.43.7-.35,2.89-1.45a41.17,41.17,0,0,1,6.32-2.13,8.18,8.18,0,0,1,2.39-.39C394.23,23.77,393.72,23.84,392.8,24.14ZM195.75,108l-.25-.1.7,0,1.38.84Zm-5.87,9.63h0l-.82-.37ZM269.6,232.07a26.39,26.39,0,0,1-.22-4.59c0-.82.09-1.73.13-2.59s.17-1.79.32-2.72a85.34,85.34,0,0,1,2.7-11.78c.61-2.08,1.24-4.12,2-6.17s1.46-4.11,2.28-6.34c1.65-4.39,3.57-9.79,5-15.13a149.34,149.34,0,0,1-4.2,15c-1.25,3.41-2.36,6.41-3.37,9.5-.51,1.54-1,3.1-1.45,4.67l-.68,2.37-.58,2.19a65.06,65.06,0,0,0-1.64,8.38A36,36,0,0,0,269.6,232.07ZM186.77,107.2a11.64,11.64,0,0,1,3.48.8,5.65,5.65,0,0,1,1.61-1.2,51.13,51.13,0,0,1,5.07-2c-.43-.33,0-.48.15-.63a5.58,5.58,0,0,1,.56-.39c-1.88.51-3.73,1.09-5.69,1.64a21.79,21.79,0,0,0-2.6.94A20.66,20.66,0,0,1,186.77,107.2Zm-9.22,9.42-.24,0-.24-.77S177.28,116.16,177.55,116.62Zm.44,1.29.27-.1C178.37,118.08,178.24,118.06,178,117.91Zm2.39-.87a1.62,1.62,0,0,0-.51-.08Zm15.22,15.58c-.61-1.08-1.21-2.18-1.8-3.28.54,1.08,1.09,2.15,1.66,3.21Z"/><path d="M328.87,141.55l.64.13a1.74,1.74,0,0,1-1.13.67,14.67,14.67,0,0,0,8.33-2.2,26.07,26.07,0,0,0,3.44-2.5,23.73,23.73,0,0,0,2.79-2.91c1.58-.35,2.66-1.53,2.43-2.65s-1.77-1.76-3.44-1.41a5.6,5.6,0,0,1-1.2-.1,25,25,0,0,0-9.93-.84l2.3.26a11,11,0,0,0-3.08.5l.64.46c-3.82-.26-7.86,2.11-8.65,5.12s1.69,5.37,5.25,5.4C327.8,141.5,328.33,141.51,328.87,141.55Z"/><path d="M337.23,145.45l-5.8-.1-.51-.22,1,1.58,0-.12c.66-2,2.71-3.73,4.8-5l.7-.56a1.43,1.43,0,0,0,.3-1.18,1.82,1.82,0,0,0-2.4-1l-1.33.35a13,13,0,0,0-5.48,1.8c-1.63,1.06-2.78,2.54-2.72,4.31,0,.82.85,1.45,1.38,2.15a2.73,2.73,0,0,0,3.58.87c1.38-.66,2.14-2,1.64-3.14l.85-.11c-.12.21-.23.43-.35.65-.12-1.13,1.07-1.94,1.78-2.89.44-.31.91-.59,1.36-.89l-2.14-2.19c-.22.21-.42.44-.63.67a3.55,3.55,0,0,1,.31.2,32.53,32.53,0,0,1-3.47,3.86l-1.42,1.92a1.22,1.22,0,0,0,1.08,1.57l1.16.1-.57-.12,3.41-.74c1.14-.24,2.26-.48,3.39-.61a.76.76,0,0,0,.73-.6C337.9,145.67,337.62,145.43,337.23,145.45Z"/><path d="M330.5,149.1a1.88,1.88,0,0,0-1.26.21l-.07.3.87.11C330.66,149.8,330.74,149.44,330.5,149.1Z"/><path d="M329.17,149.61l-.36,0,.31.14,0,0Z"/><path d="M419.4,144.43a135.36,135.36,0,0,1,15.31,11.24c.16.14.34.18.41.09s0-.26-.15-.39a131.77,131.77,0,0,0-15.31-11.32c-.19-.11-.38-.12-.46,0S419.23,144.32,419.4,144.43Z"/><path d="M447,181.13c-.14,0-.21,0-.17.18a.49.49,0,0,0,.3.33c.12,0,.21,0,.18-.17A.55.55,0,0,0,447,181.13Z"/><path d="M440.51,185.57a8.2,8.2,0,0,0-1.85-1,.51.51,0,0,1-.24-.24c-.08.15-.29.16-.53,0-4.66-2.5-9.25-5.33-14.06-7.43a1.11,1.11,0,0,1-.43.23,2.14,2.14,0,0,1-1.89-.43l-.4-.38c-1.77-1.33-3.59-2.58-5.42-3.79a5.39,5.39,0,0,1-1.58-.31l-3-.34-3-.3a.65.65,0,0,1,0,.51,1,1,0,0,1-1.21.36c-.24-.08-.48-.14-.72-.2.64.29,1.26.67,1.88,1a.72.72,0,0,1,.24.16l2.26.82A177.28,177.28,0,0,1,431,182a.41.41,0,0,1,.29.29c0,.11-.09.19-.23.14-4.82-1.4-9.57-1.44-14.48-2.44a74.1,74.1,0,0,0-16.79-1.41l-1.92-.3c-.64,0-1.28-.07-1.91-.09a28.93,28.93,0,0,0-3.74.17,43.75,43.75,0,0,0-7.27,1.68c-1.77.56-3.45,1.16-5.05,1.76-2.22.87-4.31,1.69-6.33,2.7-1,.43-2,1-3,1.5s-1.94,1.05-2.87,1.69a2.8,2.8,0,0,1-3.05.48,6.63,6.63,0,0,1-3-3,8.18,8.18,0,0,1-.8-5.87l-.6.27-1.08.16a4.38,4.38,0,0,1-3.15-1.05l-1.32-.94a26.73,26.73,0,0,0-3.5-2.67,26.63,26.63,0,0,1-3.62-2.73l-.37-1.12-.36-.18a6.12,6.12,0,0,1-2.83-2l-.63-1.25a12.68,12.68,0,0,1-1.12-4.55,4.65,4.65,0,0,1-.62-1.62,6.59,6.59,0,0,1-2.6-3.81.9.9,0,0,1-.55-1.26,1.15,1.15,0,0,1,.39-.43s0,0,0,0a7.2,7.2,0,0,0-.93-.51l-.65.09c-1.05.24-1,.27-1.95.5a5.33,5.33,0,0,1-1.71-.41c-2.08-1.73-2.1-1.73-2.55-2.72a2.08,2.08,0,0,1,0-.35,10.35,10.35,0,0,1-1.12,0,2.36,2.36,0,0,1-.54-.19c-.34-.48-.34-.48-.57-.6a2.55,2.55,0,0,1-.26-.36c0-.75,0-.75-.08-.91a1.45,1.45,0,0,1,0-.39c.33-.39.46-.55.51-.62l1.72.81-.07-.56.57.49-.45-.49.66.09-.81-.2a5.68,5.68,0,0,0,1.64-.63,2.48,2.48,0,0,0,.86-.53,1.73,1.73,0,0,1-.2-.28c1.32-.36,1.32-.36,2.62-.68a3.42,3.42,0,0,1,.47.24.6.6,0,0,1,.46-.46l.67-.2.09-.13,0,0,.39-.49.08-.11h0l1.76-2.09a8.67,8.67,0,0,1,1.18-.18l-.42-.12c-.28-.1-.33-.66-.46-.66a26,26,0,0,0-4.78.55c-1.58.35-3.17.77-4.76,1.18a1.1,1.1,0,0,1-1.42-.08c-.31-.36-.15-.9.35-1.22a18.5,18.5,0,0,1,3.94-3.58,25.13,25.13,0,0,1,4.94-2.49,30.59,30.59,0,0,1,5.48-1.32,31.62,31.62,0,0,1,5.56-.22c1.82-.15,3.6-.4,5.41-.52l-.32-.2,1.46.11h.15l-1.27-.7-.79-.12a48.72,48.72,0,0,1-6.28.27c-2.08.06-4.26,0-6.39.21-2.31.22-4.53,0-6.83.14-.54.15-1.05,0-1.17-.42s.25-.81.79-1a33.38,33.38,0,0,1,5.17-2.07,31.91,31.91,0,0,1,5.54-1.24,26.43,26.43,0,0,1,5.53-.22,19.61,19.61,0,0,1,5.11.95,7.16,7.16,0,0,1,3.69.25H359l-1-.64c1,.06,1.64.61,2.55.75l-.53-1c2.4,0,4.87-.11,7.28-.11a35.46,35.46,0,0,1,3.59.26c.58.07,1.16.17,1.73.28s1.13.3,1.68.48a4.42,4.42,0,0,1,.5.1,17.49,17.49,0,0,1,3.69-1.06,11.79,11.79,0,0,1,2.09-.13l-2.11-.45h0a14.16,14.16,0,0,1,4.7-.27,20.05,20.05,0,0,1,6.6,2.05,11.73,11.73,0,0,1,4.58,3.78,103.9,103.9,0,0,1,23.4,7.37c.39.15.65.48.62.74s-.39.33-.78.18a151.55,151.55,0,0,0-16.73-4.87c4.62,1.86,9,4,13.42,6.13l1.72.73a7.76,7.76,0,0,1,1.6.93c5.5,2.88,10.31,6.12,15.51,9.43a144.92,144.92,0,0,1,12.23,8.82,68.41,68.41,0,0,1,14.44,15.35c.57.76.8,1.7.5,2.07s-1,.05-1.56-.7a115.5,115.5,0,0,0-15.65-15.54,214.83,214.83,0,0,0-18.44-13.42c-1.45-.9-2.85-1.84-4.31-2.68a.67.67,0,0,1-.07.24,1.23,1.23,0,0,1-.77.61c1.64.94,3.17,2.09,4.72,3.19a46.24,46.24,0,0,1,13.36,8.75,57.32,57.32,0,0,1,6.78,8.41,96.07,96.07,0,0,1,9.19,9.3.45.45,0,0,1,.17.4c0,.11-.16.09-.29,0-2.25-2-4.55-4.09-6.93-6.09a1.35,1.35,0,0,1-.32,1.35,1.53,1.53,0,0,1-1.49.09c.46.51.94,1,1.38,1.53.27.33.37.7.2.85s-.53,0-.79-.28c-.93-1-1.9-2-2.84-3.06s-2-2-2.95-3c-1.29-1.07-2.66-2-4-3.07s-2.72-2-4.09-2.9a2.61,2.61,0,0,1,0,1.56h0l1.22.93a65.52,65.52,0,0,1,20.88,19.48c.12.15.15.32.08.38s-.22,0-.32-.15c-.86-1.18-1.72-2.36-2.61-3.52s-1.86-2.23-2.82-3.33h0c0,.13,0,.22-.18.17a.56.56,0,0,1-.3-.34c0-.14.05-.21.17-.17a63.41,63.41,0,0,0-12.23-10.43,71.53,71.53,0,0,1,10.44,10.29l1.35.94a.43.43,0,0,1,.16.39c0,.09-.18.07-.29,0s-.24-.18-.37-.27c.58.72.71,1.55.32,1.87s-1.23,0-1.86-.73l-2.66-2.68L440,178.46l-.65-.49-.78-.36a101.25,101.25,0,0,1,7.52,8.84c.22.25.29.56.16.68s-.43,0-.65-.22a127.29,127.29,0,0,0-15.93-12.43c-1.17-.28-2.31-.59-3.49-.8l-3.54-.62.68.47c1.48.94,3,1.71,4.5,2.5l4.54,2.27c1.53.74,3,1.6,4.47,2.47a35.1,35.1,0,0,1,4.2,3.12.3.3,0,0,1,.13.35c-.06.08-.21.06-.34-.07a34.65,34.65,0,0,0-4.16-2.91c-1.46-.84-2.91-1.65-4.42-2.47a45,45,0,0,0-7.43-3.33c4.45,2.59,9.11,4.89,13.28,8.18a.82.82,0,0,1,.38.48.21.21,0,0,1,.19,0,10.31,10.31,0,0,1,2,1.06.38.38,0,0,1,.2.35C440.79,185.64,440.66,185.64,440.51,185.57ZM351.7,147l-.21-.13.65.13,1.18,1Zm-7.28,7.95h0l-.73-.5ZM405.14,142c-1.65-.54-3.28-1.14-4.91-1.77s-3.28-1.3-4.94-2c.85.11,1.68.27,2.52.43A71.19,71.19,0,0,1,405.14,142Zm-61.81,2.55A12.5,12.5,0,0,1,346.5,146a5.6,5.6,0,0,1,1.75-.76,33.61,33.61,0,0,1,5.07-1c-.35-.37.05-.43.24-.53l.57-.27-2.77.21-2.81.28c-.85.09-1.74.21-2.61.34A19.51,19.51,0,0,1,343.33,144.54Zm-10.72,6.79-.22-.08-.08-.79Zm.18,1.32.27,0C333.12,152.9,333,152.85,332.79,152.65Zm2.51-.28a1.73,1.73,0,0,0-.49-.2Zm11.71,18-1.1-3.55,1,3.46Z"/><path d="M8.12,25.36l.65,0c-.08.35-.44.63-.93.86a13.79,13.79,0,0,0,7.43-3.87A20.64,20.64,0,0,0,19.69,16c1.38-.73,2.06-2.07,1.55-3s-2.14-1.13-3.59-.39a6.52,6.52,0,0,1-1.14.2A27.83,27.83,0,0,0,6.9,14.2L9.16,14a11.14,11.14,0,0,0-2.8,1.09l.73.28c-3.68.58-7,3.49-7.09,6.43s3,4.61,6.52,3.87Z"/><path d="M17.16,27c-1.85.44-3.68.85-5.59,1.25L11,28.21l1.4,1.22-.06-.1c.1-2,1.67-4,3.3-5.71l.5-.67a1.27,1.27,0,0,0,0-1.14,1.89,1.89,0,0,0-2.56-.39l-1.16.63C9.18,23.09,5,26.14,6,29.48c.24.75,1.21,1.17,1.91,1.7a2.88,2.88,0,0,0,3.73,0c1.21-.91,1.57-2.36.8-3.29l.79-.3c-.06.23-.11.46-.17.69-.41-1,.52-2,1-3.06l1.06-1.13-2.61-1.51-.42.75.35.12a33.23,33.23,0,0,1-2.36,4.33c-.31.68-.62,1.38-.92,2.08a1.21,1.21,0,0,0,1.45,1.21l1.17-.16h-.59c2.13-.92,4.13-2,6.22-2.83a.7.7,0,0,0,.53-.73A.54.54,0,0,0,17.16,27Z"/><path d="M11.6,32a1.9,1.9,0,0,0-1.19.49v.3l.88-.11C11.93,32.59,11.92,32.24,11.6,32Z"/><path d="M10.42,32.77l-.37,0,.35.06,0,0Z"/><path d="M66.94,169.2l-.32.91c-.1.25-.16.32-.24.5l-.46.9a20,20,0,0,0-.82,1.83,30.76,30.76,0,0,0-1.32,3.86,17.23,17.23,0,0,0-.6,4.12,8.45,8.45,0,0,0,.9,4.07,6.47,6.47,0,0,0,3.11,2.71,12.33,12.33,0,0,0,4.09.89,30.32,30.32,0,0,0,4.26,0l2.15-.19,4.91-.58c.85-.11,1.54-.33,1.56-.52s-.67-.24-1.45-.13l-5,.58-2,.18a29,29,0,0,1-4.06.05,12,12,0,0,1-3.89-.84,6.22,6.22,0,0,1-3-2.53,7.69,7.69,0,0,1-.9-3.85,15.43,15.43,0,0,1,.55-3.9,27.17,27.17,0,0,1,1.25-3.66c.26-.59.46-1.17.76-1.74l.44-.85.22-.43a3,3,0,0,0,.14-.37l.16-.45a2.77,2.77,0,0,0,.19-1.42C67.42,168.18,67.16,168.59,66.94,169.2Z"/><path d="M212.43,190.21c-.54-.57-.63-.46-.25.25a15.42,15.42,0,0,0,1.48,2.2c.41.49.54.38.25-.24A12.14,12.14,0,0,0,212.43,190.21Z"/><path d="M200.14,192.27a26.5,26.5,0,0,0-8.34-5.05,6.7,6.7,0,0,1-1.34-.67c.06.29-.58.24-1.64-.07-5.26-1.41-10.7-.66-16.9,1.43-.78.25-1.56.54-2.36.84l-2.45,1-2.45,1-2.44,1.09c-3.25,1.49-6.49,3.16-9.75,4.94-6.53,3.56-13.1,7.64-20.14,11.81l-2.69,1.57c-.95.54-1.89,1.08-2.86,1.6-1.93,1.07-3.91,2.07-5.91,3.06a130,130,0,0,1-12.43,5.25,3.41,3.41,0,0,1-1.26,1.1c-2.18,1.45-7,3.21-12.11,4.13-1.29.22-2.58.38-3.87.57-1.93.29-4,.56-5.65.76l-2.83.34c-1.26.17-2.53.3-3.8.43a104.49,104.49,0,0,1-15.05.6,55.67,55.67,0,0,1-14.25-2.35,35.39,35.39,0,0,1-12.4-6.58,17.61,17.61,0,0,1-2.41-1.83A19.76,19.76,0,0,1,32.47,215l-1.1-1.3c-.36-.44-.67-.93-1-1.4s-.67-1-1-1.47l-.84-1.59a36.58,36.58,0,0,1-4.07-11.42c-.19-1-.36-2-.49-3a24.6,24.6,0,0,1-.32-3.12,51.74,51.74,0,0,1,.07-6.46,65.85,65.85,0,0,1,2.4-13.41c.63-2.28,1.57-4.44,2.4-6.67l1.29-3.34c.11-.27.21-.56.33-.83l.42-.77.86-1.55c-.78,1-1.36,1.52-1.59,1.44-.18-.25.21-1.37,1-3,.39-.82.88-1.77,1.44-2.8.15-.25.29-.52.44-.78a7.8,7.8,0,0,1,.45-.75l.89-1.3,1.86-2.66.93-1.31,1-1.25A42.37,42.37,0,0,0,35,149.81l-1.39,1.89-.69,1c-.23.32-.51.8-.76,1.19-2,3.31-4.3,6.45-5.75,10.18-.46,1-.91,2-1.34,2.88a45.35,45.35,0,0,0-2.3,6.11,63.62,63.62,0,0,0-1.62,6.28,59.94,59.94,0,0,0-1.31,12.55,54.18,54.18,0,0,0,1.92,12.92c.35,1,.68,2,1.06,3l1.26,2.95,1.55,2.81c.58.9,1.22,1.77,1.82,2.65s1.34,1.7,2,2.53,1.53,1.53,2.3,2.28a28.76,28.76,0,0,0,2.46,2.08,23.84,23.84,0,0,0,2.63,1.84,43.91,43.91,0,0,0,11.69,5c8.23,2.17,17.17,2.2,26,1.16,2.2-.26,4.39-.58,6.56-.9.54-.07,1.09-.19,1.62-.27l1.39-.25,2.18-.41,4.59-.93c1.58-.36,3.16-.7,4.74-1.11a128.23,128.23,0,0,0,18.54-6.14,136.15,136.15,0,0,0,17-8.67c10-6.07,18.71-12,27.65-16.66a6.71,6.71,0,0,1,2.1-.86c.4,0,.4.18-.24.53A180.87,180.87,0,0,0,144.7,206l-8.08,5.91L132.36,215c-1.57,1.07-3.17,2.15-4.82,3.19a121.65,121.65,0,0,1-34.52,15c-1.07.3-2.15.55-3.23.81l-3,.72-1.48.33-.76.17-.48.1-.6.11c-1.61.34-3.27.56-4.93.84-2,.31-4,.57-6,.85s-4,.39-6,.46l-3,.13c-1,.06-2,0-3,0s-2,0-3-.1l-2.91-.25c-1-.07-1.93-.23-2.88-.38S50,236.59,49,236.4a56.66,56.66,0,0,1-5.52-1.46,46.57,46.57,0,0,1-10.35-4.62l-2.39-1.55L28.51,227a24.14,24.14,0,0,1-2.16-1.89l-1-1-.26-.25-.07-.06c-.09.05-.06,0-.09,0l-.12-.14-.47-.54a45.09,45.09,0,0,1-6.57-9.27,43.89,43.89,0,0,1-4-10.58c-.43-1.87-.78-3.77-1.12-5.68a17.52,17.52,0,0,1-.32-2.93c-.05-1-.18-2-.14-3a63.34,63.34,0,0,1,1.06-12.43,60,60,0,0,1,3.58-12.63l2.55-6.17.64-1.55.33-.77a6.3,6.3,0,0,1,.4-.72l1.7-2.81,1.7-2.83.86-1.41.43-.71c.14-.23.29-.5.4-.64q1.44-2.08,2.91-4.13c.5-.67,1-1.37,1.5-2l1.63-1.92L33.51,139c.55-.63,1.1-1.25,1.68-1.81q1.73-1.71,3.47-3.39c1.17-1.08,2.34-2,3.52-3a145.2,145.2,0,0,1,13.32-9.56c4.35-2.72,8.31-5.15,11.79-7.81,1.82-1.3,3.42-2.7,5.07-4.11.85-.68,1.56-1.46,2.34-2.2s1.53-1.49,2.27-2.27c1.41-1.6,2.82-3.2,4.16-4.88s2.6-3.49,3.78-5.22a51.53,51.53,0,0,0,5.46-10.48A41.71,41.71,0,0,0,93,73.18a35.11,35.11,0,0,0-.6-10.86L92.13,61c-.11-.43-.25-.84-.37-1.25-.22-.84-.55-1.65-.83-2.47a31.66,31.66,0,0,0-2.19-4.68,29.89,29.89,0,0,0-6-7.63,12.54,12.54,0,0,0-4.15-2.62,2.74,2.74,0,0,0-.78-.19l-.17,0a.29.29,0,0,0-.11,0l-.2.08c-.25.12-.49.28-.82.42a5.62,5.62,0,0,1-1.58.43c-.34.09-1.82,0-1.85.2a7.79,7.79,0,0,0-1,.31,21.82,21.82,0,0,0-4.07,2c-.33.19-.7.48-1,.7a5.31,5.31,0,0,0-.53.38l-.12.1-.38.33c-.25.21-.52.48-.77.7s-.51.48-.77.73-.51.48-.77.75c-1,1-2.09,2.13-3.14,3.32s-2.09,2.46-3.13,3.82c-1.27,2.37-4.06,2.58-6.47.29a7.63,7.63,0,0,1-2.3-5.35l-.5.52-1,.57a4,4,0,0,1-3.27.23l-1.51-.43c-2.57-1.18-5.42-1.44-8.19-2.81l-.65-1-.38,0a5.56,5.56,0,0,1-3.2-1l-.93-1a12.5,12.5,0,0,1-2.28-4.06,4.5,4.5,0,0,1-1-1.36,6.45,6.45,0,0,1-3.48-2.9.88.88,0,0,1-.85-1,1.16,1.16,0,0,1,.25-.51h0a8.75,8.75,0,0,0-1-.23l-.6.25-1.75,1a5.6,5.6,0,0,1-1.77,0c-2.48-1.12-2.5-1.12-3.19-2,0-.11-.07-.22-.1-.33a11.24,11.24,0,0,1-1.09.3,2.52,2.52,0,0,1-.56,0c-.46-.38-.46-.38-.71-.44a2.12,2.12,0,0,1-.36-.28c-.18-.7-.18-.7-.31-.84a1.93,1.93,0,0,1-.06-.36l.35-.71,1.89.35-.21-.5.68.32-.56-.35.67-.07H12a5.47,5.47,0,0,0,1.45-1,2.28,2.28,0,0,0,.71-.69,1.79,1.79,0,0,1-.27-.21c1.18-.65,1.17-.65,2.34-1.25a3.54,3.54,0,0,1,.51.1.56.56,0,0,1,.33-.53l.59-.33.05-.15,0,0c.1-.22.17-.37.24-.55l0-.12h0c.17-.38.42-.92,1.12-2.35a10.54,10.54,0,0,1,1.08-.43h-.44c-.29,0-.48-.52-.61-.5a42.88,42.88,0,0,0-8.68,3.82,1.2,1.2,0,0,1-1.42.24.76.76,0,0,1,0-1.21c2.9-6,10-10.14,16.87-11.72l4.94-2-.36-.09L32,13.36l.14,0-1.39-.26-.78.12c-3.79,1.62-7.79,2.36-11.74,3.76-2.12.75-4.25,1.08-6.41,1.71a1,1,0,0,1-1.23-.13c-.2-.31,0-.78.5-1,5.27-4.31,12.77-7.77,19.35-7.7A8.34,8.34,0,0,1,34,9H34l-1.07-.28a19.34,19.34,0,0,1,2.62-.09l-.77-.71c2.29-.7,4.65-1.52,7-2.22A26.2,26.2,0,0,1,49,4.5l.53-.06A20.88,20.88,0,0,1,52.18,2.9l.72-.32a1.57,1.57,0,0,1,.23-.09l1.06-.26,2.21-.45a59,59,0,0,1,9.51-1c-1.14,0-2.27,0-3.38.1s-2.23.13-3.32.26-2.21.23-3.28.41l-1.63.25L52.88,2l0,0,.19,0,.42-.11c.28-.08.57-.15.86-.21l1.74-.36C57.27,1,58.47.84,59.66.64A60.35,60.35,0,0,1,67,0c1.25,0,2.53,0,3.79,0s2.56.17,3.85.28L76.57.6l1,.15L78,.83l.24,0,.13,0,3.32.69a45.89,45.89,0,0,1,11.5,4.07A43.42,43.42,0,0,1,98.64,9c.8.6,1.58,1.22,2.35,1.83s1.42,1.28,2.12,1.92a54.46,54.46,0,0,1,11.54,16.29,61.15,61.15,0,0,1,4.89,15.34,53.6,53.6,0,0,1,.92,11.91,76.85,76.85,0,0,1-.35,16.83,93.18,93.18,0,0,1-3.61,16,109,109,0,0,1-6.13,14.93c-.62,1.18-1.21,2.39-1.87,3.55l-1,1.74-1,1.65-2,3.31c-.65,1.1-1.32,2.2-2,3.27-2.8,4.34-5.75,8.65-8.9,12.79l-2.35,3.12-2.41,3-1.21,1.53-1.21,1.46-2.41,3c-3.15,3.82-6.23,7.55-8.76,11a56,56,0,0,0-5.79,9.93c-.54,1.31-1.09,2.34-1.44,2.41s-.17-1,.33-2.35c.46-1.16,1.05-2.31,1.58-3.51s1.34-2.39,2.06-3.62,1.61-2.48,2.53-3.76,1.87-2.54,2.93-3.88c4.15-5.25,9-10.9,13.55-16.79a201.62,201.62,0,0,0,12.67-18.44l2.83-4.76c.94-1.66,1.85-3.36,2.71-5.08a101.84,101.84,0,0,0,4.6-10.6c-1.16,3-2.5,6-3.94,8.82-.72,1.44-1.49,2.84-2.26,4.25l-1.21,2.09-1.23,2c-1.63,2.62-3.24,5.27-5.06,7.81-.9,1.27-1.73,2.6-2.67,3.85l-2.82,3.77c-3.81,5-7.88,9.86-12,14.41s-8,8.92-11.2,13.11l-1.18,1.63c-.37.54-.7,1.07-1,1.6l-1,1.6c-.33.52-.58,1.06-.88,1.59-.56,1-1.18,2-1.63,3.06l-.75,1.5-.39.73-.32.76-.75,2c-.12.3-.26.7-.36.92l-.28.61a25.81,25.81,0,0,0-1,2.43,46.54,46.54,0,0,0-1.63,5,26.28,26.28,0,0,0-.84,5.13,12.45,12.45,0,0,0,.7,5.1,7.5,7.5,0,0,0,3.29,3.88,12,12,0,0,0,5,1.43,25.71,25.71,0,0,0,5.26-.12c.87-.09,1.73-.22,2.6-.36l1.28-.23c.47-.08.68-.14,1.76-.31,3.31-.51,5.82-.93,8.5-1.51s5.19-1.2,7.66-1.92a101,101,0,0,0,14.34-5.47c2.38-1.12,4.57-2.24,7.3-3.69l8.2-4.33c5.66-3,11.76-6.08,18.55-9a128.43,128.43,0,0,1,14.84-5.34,78.32,78.32,0,0,1,17.55-3.3,52.22,52.22,0,0,1,20.77,3,49.74,49.74,0,0,1,9.47,4.69,61.79,61.79,0,0,1,7.64,5.81,62.57,62.57,0,0,1,6.51,6.86,69.18,69.18,0,0,1,5.06,7.27,100.09,100.09,0,0,1,6.82,13.9l1.31,3.27c.45,1.15.92,2.37,1.35,3.56.87,2.41,1.63,4.85,2.34,7.31a112.72,112.72,0,0,1,3.16,15,55.56,55.56,0,0,1,.6,7.35,12,12,0,0,1-.36,3.81c-.44.72-1-3.08-1.75-8.4a110.3,110.3,0,0,0-3.43-15.43c-.75-2.54-1.6-5.06-2.53-7.55-.47-1.24-1-2.48-1.48-3.71l-1.46-3.45a103.68,103.68,0,0,0-7.43-14.39,58.34,58.34,0,0,0-12.38-14.14c-1.25-1.06-2.58-2-3.9-2.94l-2-1.32c-.66-.44-1.5-.88-2.25-1.3a46.2,46.2,0,0,0-9.94-4,50.46,50.46,0,0,0-20.4-1.14,76.44,76.44,0,0,0-8.85,1.79c-1.37.36-2.64.74-4,1.11s-2.59.8-3.86,1.23a155.28,155.28,0,0,0-14.68,5.85c-4.69,2.13-9.15,4.39-13.47,6.62l-6.35,3.32-3.09,1.6-2.94,1.5A101.36,101.36,0,0,1,91.44,192c-2,.47-4.08.85-6.16,1.22l-3.2.49-3.43.48a59.56,59.56,0,0,1-7.81.81,26.18,26.18,0,0,1-4-.18,15,15,0,0,1-3.84-.93,9.05,9.05,0,0,1-3.32-2.13,8.92,8.92,0,0,1-1.26-1.54,11,11,0,0,1-.84-1.81,15.61,15.61,0,0,1-.6-6.78,34.7,34.7,0,0,1,1.44-6.59,1,1,0,0,1-.36.1c-.44,0-.73-.42-.83-1.18a44,44,0,0,0-2,8.15,24.41,24.41,0,0,0-.18,4.28,15.42,15.42,0,0,0,.89,4.23,9.85,9.85,0,0,0,4.22,4,15.7,15.7,0,0,0,5.71,1.47,47.67,47.67,0,0,0,11.56-.88l1.43-.24,2.43-.37,2.38-.37c.74-.13,1.49-.23,2.23-.37q4.44-.76,8.79-1.85A119.2,119.2,0,0,0,112,186.35l3-1.25,3-1.35,6.35-2.9c4.28-1.94,8.62-3.9,13.09-5.71s9-3.53,13.73-5c2.36-.74,4.74-1.43,7.17-2,1.21-.3,2.42-.6,3.65-.86l1.85-.4,1.92-.38a65.07,65.07,0,0,1,10.37-1.7,45.3,45.3,0,0,1,11.38.55A41.58,41.58,0,0,1,198.68,169c.89.41,1.72.91,2.57,1.38s1.56,1,2.34,1.46a50.88,50.88,0,0,1,4.4,3.25,53.69,53.69,0,0,1,7.59,7.72,67.1,67.1,0,0,1,5.69,8.47c1.63,2.84,3,5.65,4.32,8.43.62,1.38,1.24,2.76,1.83,4.12s1.23,2.87,1.81,4.32a9.12,9.12,0,0,1,.71,2.32c0,.38-.26-.09-.66-1s-.85-2-1.29-3l-1.34-2.88c-.88-1.85-1.82-3.75-2.79-5.65a88.17,88.17,0,0,0-7.08-11.61,56.21,56.21,0,0,0-4.73-5.63,52.15,52.15,0,0,0-5.65-5c-1-.79-2.05-1.49-3.1-2.21s-2.07-1.34-3.3-2a39.59,39.59,0,0,0-7.46-3.13c3.12,1.54,4.59,3,4.09,3.47s-3-.16-6.66-.75a36.57,36.57,0,0,1,6.29,2.44c1,.46,2,1.06,2.94,1.6s1.8,1.15,2.66,1.78c2.16,1.54,3.55,3.15,3.3,3.31s-2-.94-4-2.35c-.86-.62-1.76-1.17-2.66-1.75s-1.9-1.11-2.91-1.56a35.15,35.15,0,0,0-6.23-2.35,39.43,39.43,0,0,0-13-1.17,61.73,61.73,0,0,0-12.23,2.26c-3.85,1.05-7.63,2.3-11.32,3.71a264.11,264.11,0,0,0-25,12.3l-6,3.2c-2,1-3.89,2-5.86,2.95A112.41,112.41,0,0,1,104,200.32a14.32,14.32,0,0,1,5.41.13,0,0,0,0,1,0,0c2.56-1,5.08-2.05,7.55-3.19,5.55-2.83,11.09-6.16,16.79-9.3s11.54-6.26,17.67-9c3.06-1.35,6.21-2.59,9.42-3.69,1.6-.57,3.23-1.06,4.86-1.56s3.35-.92,5.09-1.28a45.79,45.79,0,0,1,10.87-1,35.34,35.34,0,0,1,11.12,2.12l1.34.5,1.3.59c.88.37,1.7.84,2.54,1.29a46.41,46.41,0,0,1,4.63,3,45.43,45.43,0,0,1,8,7.56c4.65,5.61,7.88,11.84,10.73,17.91,1.41,3,2.84,6.21,4,9.41s2.27,6.49,3.17,9.8a111.92,111.92,0,0,1,3.6,20.18,6.09,6.09,0,0,1,0,2,4.37,4.37,0,0,1-.33-1.74,113.17,113.17,0,0,0-4.81-24.2,107.44,107.44,0,0,0-4.41-11.59c-1.69-3.71-3.39-7.36-5.41-11l0,.06c.25.63.18.81-.26.21a18.49,18.49,0,0,1-1.28-2.27c-.31-.72-.15-.73.24-.23a56.8,56.8,0,0,0-7-9.69,43.47,43.47,0,0,0-9.38-7.86,37.4,37.4,0,0,0-5.55-2.9,35.93,35.93,0,0,0-6.06-1.86,38.45,38.45,0,0,0-12.36-.45,60.9,60.9,0,0,0-11.49,2.6c-3.64,1.14-7.19,2.46-10.66,3.93a202.65,202.65,0,0,0-19.87,10c6-3.14,12.17-6.2,18.56-8.83,3.19-1.32,6.45-2.52,9.77-3.56a78.68,78.68,0,0,1,10.24-2.6,43,43,0,0,1,10.9-.57A34,34,0,0,1,193.71,176a40.73,40.73,0,0,1,9.22,5.84,43.87,43.87,0,0,1,7.35,7.83,63.34,63.34,0,0,1,5.45,7.49,8.21,8.21,0,0,1,.94,2.08c0,.26-.39-.22-.83-1s-.89-1.44-1.37-2.15c2.6,4.59,3.76,8.45,3.14,8.66-.75.06-3.11-3.68-5.87-8.2a45.53,45.53,0,0,0-14.64-15.09,30.61,30.61,0,0,0-9.68-4,33.68,33.68,0,0,0-10.46-.63c-1.51.18-3,.45-4.48.77s-2.93.88-4.37,1.41a42.25,42.25,0,0,1,16-1.3,29.16,29.16,0,0,1,7.63,2.08,34.44,34.44,0,0,1,6.85,4,43.92,43.92,0,0,1,10.74,11.66,122.4,122.4,0,0,1,7.64,14.27c.82,1.66,1.3,3.17,1.11,3.29s-1-1.14-1.81-2.78A134,134,0,0,0,209.11,198a45.78,45.78,0,0,0-9-10.07,35,35,0,0,0-5.48-3.69,28.11,28.11,0,0,0-5.86-2.45,29.16,29.16,0,0,0-12.6-.59,51.66,51.66,0,0,0-6.49,1.47c-2.16.65-4.4,1.42-6.57,2.22a138.11,138.11,0,0,0-12.9,5.64c-4.25,2.09-8.45,4.39-12.69,6.73s-8.47,4.75-13,7.14a126.22,126.22,0,0,1-18.17,9.78,133.73,133.73,0,0,1-20,6.83c1.74-.25,3.55-.52,5.33-.86a110.82,110.82,0,0,0,31.66-11c4.84-2.57,9-5.2,13.25-7.74s8.26-5,12.35-7.35,8.19-4.48,12.4-6.34A79.83,79.83,0,0,1,174.07,183a29.88,29.88,0,0,1,12.48-.64,23.86,23.86,0,0,1,6,1.91c1,.43,2,1,2.94,1.57l1.43.91c.47.32.92.66,1.39,1a3.43,3.43,0,0,1,1.24,1.3c0,.16-.57-.14-1.28-.71A33.76,33.76,0,0,0,192.7,185a22.94,22.94,0,0,0-5.65-1.9,28.47,28.47,0,0,0-11.81.43,50.91,50.91,0,0,0-6.08,1.81c-2.09.77-4.19,1.59-6.26,2.5-4.15,1.82-8.26,3.9-12.45,6.19-6.94,3.81-13.63,8-20.56,12.22a143.91,143.91,0,0,1-22.78,11.33,122,122,0,0,0,23.17-10.52c6.86-3.94,13.27-7.88,19.69-11.39a128.33,128.33,0,0,1,19.49-8.86c6.46-2.23,12.53-3.19,18.14-1.73a7,7,0,0,1,2.47,1,1.05,1.05,0,0,1,.62,0c.36.11.71.25,1.08.38a9,9,0,0,1,1.12.45l1.17.54c.39.19.76.4,1.15.61.78.4,1.5.91,2.27,1.38s1.48,1,2.18,1.65a4.64,4.64,0,0,1,1.31,1.48C201.14,193,200.74,192.78,200.14,192.27ZM31.22,24.6,31,24.54l.66-.06L33,25Zm-4.75,9.32h0l-.83-.27Zm75.33,80.64,3.46-5.63c1.17-1.88,2.27-3.93,3.32-5.93a102.91,102.91,0,0,0,5.48-12.55A86.57,86.57,0,0,0,119.33,63a78.82,78.82,0,0,1-1.11,13.77,81,81,0,0,1-2.63,10.25,88,88,0,0,1-3.74,9.75,102.53,102.53,0,0,1-4.7,9.23l-1.31,2.23-1.35,2.1ZM22.7,24.69a12.81,12.81,0,0,1,3.37.46A5.71,5.71,0,0,1,27.5,24,37.45,37.45,0,0,1,32,21.65c-.43-.24-.07-.4.07-.55l.47-.41-5.1,2C25.87,23.34,24.29,24.17,22.7,24.69Zm-8.47,8.88-.24,0-.28-.72Zm.5,1.2.26-.1C15.12,34.92,15,34.9,14.73,34.77Zm2.38-.87a2.4,2.4,0,0,0-.52-.06ZM33,47.79l-2-3.08,1.84,3Z"/><path d="M100.43,63.2l.37,0a.84.84,0,0,1-.57.47c3.49-.1,6-3,7.24-5.78a1.39,1.39,0,1,0-1.16-2.45,3.21,3.21,0,0,1-.67.05,13.54,13.54,0,0,0-5.57.27h1.29a5.22,5.22,0,0,0-1.62.53l.41.24A4.29,4.29,0,0,0,96,60.17a3,3,0,0,0,3.5,3.06Z"/><path d="M105.62,65.09c-1.12.11-2.21.22-3.34.3l-.31-.1.75.91,0-.07a6.21,6.21,0,0,1,2.18-3.41l.32-.4a.9.9,0,0,0,0-.75,1.07,1.07,0,0,0-1.48-.46l-.7.31c-2,.42-4.4,2-4,4.2.09.5.62.86,1,1.26a1.56,1.56,0,0,0,2.13.36,1.49,1.49,0,0,0,.62-2l.48-.13-.13.43c-.19-.69.39-1.27.7-1.89l.67-.65L103,61.77l-.27.46a1.31,1.31,0,0,1,.2.11,18.23,18.23,0,0,1-1.54,2.59l-.62,1.24a.8.8,0,0,0,.76.91h.68l-.34,0c1.27-.38,2.51-.92,3.79-1.24a.42.42,0,0,0,.36-.43A.35.35,0,0,0,105.62,65.09Z"/><path d="M102.11,67.75a.92.92,0,0,0-.71.19v.18l.51,0C102.27,68.17,102.28,67.94,102.11,67.75Z"/><path d="M101.39,68.12h-.22l.2.08,0,0Z"/><path d="M186,57.09a12.2,12.2,0,0,0,6.79.45,18.11,18.11,0,0,0,7.31-4.1c.16-.15.26-.31.21-.38s-.21,0-.36.16a17.89,17.89,0,0,1-7.22,4,11.85,11.85,0,0,1-6.61-.46c-.16,0-.35,0-.39,0S185.78,57,186,57.09Z"/><path d="M222.57,26.74c0,.2,0,.21.15,0a1.8,1.8,0,0,0,.23-.65c0-.17,0-.18-.15,0A1.83,1.83,0,0,0,222.57,26.74Z"/><path d="M226.6,30.05c-.3,1.16-.52,2.28-.73,3.28a2,2,0,0,1-.2.53c.12,0,.13.22,0,.64a83.9,83.9,0,0,1-10.84,25.39.86.86,0,0,1,0,.51,8.1,8.1,0,0,1-1.91,3l-.8.78a36.9,36.9,0,0,1-11.41,8.21c-.42.28-.89.57-1.4.85a13.68,13.68,0,0,1-1.72.74,19.88,19.88,0,0,1-3.12,1.24,23.72,23.72,0,0,1-3.34.86,24.12,24.12,0,0,1-3.45.44,27.73,27.73,0,0,1-3.4,0c.26.12.42.25.4.38-.12.28-1.19.38-2.4.22-.59-.09-1.14-.2-1.71-.3a42.48,42.48,0,0,0,5.14.91c.27,0,.52,0,.74.07l1.55,0a12.06,12.06,0,0,0,1.58-.06c1.08-.1,2.16-.17,3.23-.36s2.33-.52,3.46-.83,2.16-.79,3.21-1.21,2-1,3-1.49,1.86-1.11,2.7-1.74A38.19,38.19,0,0,0,213.53,64a56.79,56.79,0,0,0,5.55-9l1.12-2.28,1-2.3c.32-.76.66-1.52.95-2.28l.85-2.3a1.84,1.84,0,0,1,.32-.66c.11-.09.17,0,.1.2-.29,1-.57,2-.85,3s-.63,1.94-.93,2.92c-.58,2-1.36,3.88-2.13,5.87a44.07,44.07,0,0,1-7.56,12.37,38.09,38.09,0,0,1-8.16,7c-.79.51-1.65,1-2.5,1.44s-1.8.84-2.72,1.24l-1.4.59c-.46.19-1,.31-1.48.47-1,.28-2,.59-3,.81a40.93,40.93,0,0,1-12,.49l-2.66-.32-2.42-.38-2.28-.4-2.14-.4-2-.52L167.18,79l-.92-.21-.86-.16-1.7-.31a37.08,37.08,0,0,0-6.14-.46,39.51,39.51,0,0,0-11.41,1.93,51.39,51.39,0,0,0-8.05,3.4c-2.79,1.71-5.51,3.43-8.26,5.41-1.27,1.25-3.4.89-4.83-.86a4.73,4.73,0,0,1-1-3.64l-.41.25-.76.22a3.12,3.12,0,0,1-2.29-.32l-1-.46c-1.62-1.07-3.49-1.59-5.14-2.75l-.3-.68-.25-.07a3.75,3.75,0,0,1-2-1l-.48-.74a8.46,8.46,0,0,1-1-2.77,3,3,0,0,1-.51-1A4.25,4.25,0,0,1,108,72.64a.59.59,0,0,1-.44-.74.77.77,0,0,1,.19-.3h0a4.94,4.94,0,0,0-.6-.25l-.38.1-1.13.42a3.3,3.3,0,0,1-1.05-.15c-1.37-1-1.38-1-1.73-1.55a1.52,1.52,0,0,1,0-.21l-.65.07a1.18,1.18,0,0,1-.33-.09c-.24-.28-.24-.28-.38-.34a1.57,1.57,0,0,1-.19-.21c-.05-.46-.05-.46-.12-.56a1,1,0,0,1,0-.23c.15-.26.21-.37.24-.41l1.07.41-.1-.34.38.27-.3-.27.39,0-.49-.08a2.83,2.83,0,0,0,.89-.48,1.26,1.26,0,0,0,.45-.37l-.15-.16c.73-.31.73-.31,1.45-.59a2.08,2.08,0,0,1,.3.12.34.34,0,0,1,.22-.32l.37-.16,0-.09,0,0,.17-.33,0-.08h0l.77-1.44a4.1,4.1,0,0,1,.66-.19l-.26,0c-.18,0-.27-.38-.35-.38a24.34,24.34,0,0,0-5.26,1.72.62.62,0,0,1-.83,0,.53.53,0,0,1,.08-.77c1.91-3.59,6.16-5.82,10.31-6.37,1-.31,2-.64,3-1L114,57.2l.84-.12.08,0-.83-.28c-.16,0-.31,0-.47,0-2.26.85-4.67,1-7,1.68-1.26.34-2.53.38-3.79.64a.53.53,0,0,1-.71-.18.52.52,0,0,1,.31-.65c3.17-2.46,7.59-4.3,11.49-3.81a3.82,3.82,0,0,1,2.09-.35h0l-.63-.27c.55-.11,1,.14,1.54.11l-.47-.55c2.68-.68,5.37-1.94,8.13-1.81l.29,0a16.17,16.17,0,0,1,1.36-1.12,4.13,4.13,0,0,1,.38-.25l.1-.06.26-.1.51-.19c.69-.25,1.4-.49,2.15-.71l-3.08.63c1-.42,2.1-.86,3.18-1.23a35.36,35.36,0,0,1,3.48-.9,42.31,42.31,0,0,1,5.07-.65,38,38,0,0,1,5,0,21.89,21.89,0,0,1,7.69,1.75,70.65,70.65,0,0,1,18.5,2.76c5.82,1.63,10.94,3.75,14.84,4.82.38.09.68.3.72.47s-.28.25-.67.17c-2.8-.56-6.31-1.77-10.2-2.95a86.37,86.37,0,0,0-12.62-3A78.26,78.26,0,0,1,172,54.24c3.3,1.2,6.39,2.52,9.14,3.51.73.24,1.38.41,2.08.62s1.24.37,1.85.62a9.54,9.54,0,0,0,1.1.26l1.06.23,1,.1a4.36,4.36,0,0,0,.94.06,8.21,8.21,0,0,0,1.79-.08c.3,0,.6-.06.9-.11l.92-.25a13.13,13.13,0,0,0,3.73-1.62l.94-.58.91-.7a19.76,19.76,0,0,0,1.81-1.56,43,43,0,0,0,5.44-6.66A72.77,72.77,0,0,0,210.08,40c1-2.05,1.9-4.2,2.81-6.28.44-1.06.83-2.14,1.25-3.19s.85-2.11,1.22-3.2c.76-2.16,1.6-4.28,2.32-6.51s1.56-4.41,2.3-6.72c.38-1.23,1-2.31,1.26-2.39s.27.89-.1,2.13c-2.74,9.73-5.85,19.25-10.23,27.92a56.51,56.51,0,0,1-7.75,11.76,28.84,28.84,0,0,1-4.82,4.31,16.69,16.69,0,0,1-5.29,2.47,13,13,0,0,1-4.48.43.47.47,0,0,1,0,.17.7.7,0,0,1-.42.55,6.94,6.94,0,0,0,1.35.08,7.5,7.5,0,0,0,1.34,0c.45,0,.89-.09,1.35-.12l1.38-.31c5-1.93,9.29-6.42,13.63-12a102.44,102.44,0,0,0,7.91-11.87A164.83,164.83,0,0,0,221.42,20a1.35,1.35,0,0,1,.25-.55c.09-.06.1.08,0,.32-.53,2.07-1,4.2-1.7,6.27s-1.26,4.19-2,6.25c.45-.57.85-.86,1.08-.71s.28.75.14,1.58l1.16-2.79c.23-.58.5-1,.63-.94s.07.57-.14,1.13c-.79,1.9-1.55,3.82-2.38,5.7s-1.66,3.76-2.64,5.54a68.4,68.4,0,0,1-7.28,12.61,3.11,3.11,0,0,1,1.46-.66h0l1.32-1.85a124.94,124.94,0,0,0,8.77-19.22c2.46-6.7,4.64-13.58,6.68-20.57.07-.27.18-.49.24-.48s.05.24,0,.48l-1.86,6.31-2,6.24h0c.09-.16.17-.17.15,0a1.73,1.73,0,0,1-.22.65c-.11.17-.17.13-.15,0a163.47,163.47,0,0,1-9,22.26,140.39,140.39,0,0,0,9-20.16c.2-.79.39-1.57.59-2.37a1.57,1.57,0,0,1,.26-.55c.07,0,.08.14,0,.36s-.11.44-.17.66c.48-1.32,1-2.28,1.34-2.16s.2,1.42-.29,2.8c-.62,1.86-1.23,3.73-1.88,5.58s-1.37,3.66-2.12,5.47l-.45,1.19L220,39.59c1.33-2.75,2.46-5.58,3.63-8.39s2.17-5.69,3.09-8.57c.15-.5.37-.9.48-.87s.08.45-.07.95a152.56,152.56,0,0,1-4.79,15.49,90.36,90.36,0,0,1-7.07,15,55,55,0,0,1-5.6,10.24l1.05-1.12c4.38-4.86,6.92-10.14,9.07-15.31s3.67-10.43,5.47-15.91a.92.92,0,0,1,.27-.5c.07,0,.06.2,0,.48-1.71,5.37-3.06,10.4-5.28,15.71a93.64,93.64,0,0,1-6.33,12.53,64.59,64.59,0,0,0,6.65-12c.82-2.06,1.72-4.08,2.42-6.16l1.13-3.09c.34-1,.68-2.09,1-3.13a3.72,3.72,0,0,1,.41-.93.42.42,0,0,1,0-.23c.24-1.09.5-2.26.79-3.45a1.34,1.34,0,0,1,.26-.6C226.64,29.63,226.65,29.79,226.6,30.05ZM114.24,64.71l-.15-.06h.41l.84.5Zm-3.34,5.7h0l-.49-.25Zm57.39-16.83a106.18,106.18,0,0,0-15.52-3.25c1.31,0,2.61,0,3.91.18A61.89,61.89,0,0,1,168.29,53.58ZM109,64a7.8,7.8,0,0,1,2,.6A3.17,3.17,0,0,1,112,64a23.57,23.57,0,0,1,2.81-1.18c-.26-.2,0-.28,0-.37l.3-.23-3.16.93C111,63.39,110,63.82,109,64Zm-5.49,5-.14,0-.11-.48Zm.22.8.16,0C104,69.94,103.91,69.92,103.76,69.81Zm1.46-.31a1.08,1.08,0,0,0-.31-.1Zm8.67,10.39-1-2.14.88,2.09Z"/></g></g></svg>