<svg xmlns="http://www.w3.org/2000/svg" viewBox="0 0 424.43 483.43"><g id="Layer_2" data-name="Layer 2"><g id="Layer_1-2" data-name="Layer 1"><path d="M159.41,7.78v.51c-.3,0-.54-.16-.73-.49a6.23,6.23,0,0,0,3.43,4.83,10.72,10.72,0,0,0,6,.78,1.84,1.84,0,0,0,2.75-.31,2.36,2.36,0,0,0,0-3,2.84,2.84,0,0,1-.25-.78,16.85,16.85,0,0,0-1.53-6.62c.08.52.15,1.06.22,1.58a5.05,5.05,0,0,0-.93-1.63l-.25.68a3.65,3.65,0,0,0-5.12-3,5.91,5.91,0,0,0-3.81,6.29Z"/><path d="M157.9,15.92c-.47-1.47-.85-2.95-1.2-4.43l.08-.48-1.13,1.52.09-.08a7.57,7.57,0,0,1,5.2,1l.65.16a1.58,1.58,0,0,0,1-.47,1.66,1.66,0,0,0,.23-2.23c-.2-.23-.38-.49-.57-.73-1-2.32-3.42-4.6-6.43-2.95a6.46,6.46,0,0,0-1.64,2,2.24,2.24,0,0,0-.14,3.11,2,2,0,0,0,3-.21l.27.58-.62.06c.93-.64,1.84-.16,2.77-.11l1,.51,1.31-2.72-.67-.09c0,.13-.09.33-.1.33a16.52,16.52,0,0,1-3.85-.59l-1.84-.19a1.52,1.52,0,0,0-1.16,1.51l.12.95v-.5c.8,1.57,1.84,3,2.63,4.59a.48.48,0,0,0,.69.25A.63.63,0,0,0,157.9,15.92Z"/><path d="M153.34,12.48a1.17,1.17,0,0,0-.41-.89l-.28.07.07.72C152.77,12.9,153.09,12.81,153.34,12.48Z"/><path d="M152.65,11.66l0-.3-.07.31h.05Z"/><path d="M279.87,53.64c1,0,1.93.11,2.89.12h8.72l5.83-.27,2.92-.13,2.92-.27,5.85-.53,5.83-.77,2.93-.4c1-.14,1.94-.33,2.91-.49l5.82-1c.53-.09.94-.28.93-.41s-.42-.11-.9,0l-5.82,1-2.91.5-2.91.39-5.82.76-5.82.52-2.91.26-2.91.13-5.8.26c-1.94,0-3.87,0-5.8,0s-3.85,0-5.77-.12c-.51,0-.94.08-1,.21S279.39,53.61,279.87,53.64Z"/><path d="M397.87,33.93c-.31.25-.25.34.15.2a4.49,4.49,0,0,0,1.19-.65c.26-.22.19-.32-.15-.21A4.23,4.23,0,0,0,397.87,33.93Z"/><path d="M398.58,42.63l-2.89,1.94c-.94.61-1.83,1.21-2.66,1.81a4.51,4.51,0,0,1-1,.52c.2.09-.13.44-.86.91C376.86,57.12,360.06,65,342.89,71.4a1.67,1.67,0,0,1-.61.66,19.51,19.51,0,0,1-6,2.48L334.3,75c-1.95.5-3.94.9-5.9,1.35s-3.93.92-5.92,1.27l-6,1.09-3,.52-3,.41a48.45,48.45,0,0,1-5.5,1.42c-3.4.89-6.85,1.62-10.32,2.42s-7,1.29-10.62,1.9c.46.1.74.26.75.46s-.5.5-1.18.7a13.06,13.06,0,0,1-2.57.37l-3,.2c2.86-.06,5.73,0,8.56-.24a11.28,11.28,0,0,1,1.14,0c3.11-.31,6.26-.56,9.42-1.11a213.83,213.83,0,0,0,39.39-9.9,263.69,263.69,0,0,0,35.41-15.57,4.45,4.45,0,0,1,1.32-.56c.26,0,.27.12-.14.36-1.71,1.08-3.42,2.08-5.12,3.07l-5.06,3c-3.38,1.94-6.78,3.84-10.27,5.74a170.88,170.88,0,0,1-23.35,10.37,242.28,242.28,0,0,1-67,13.81A335.84,335.84,0,0,1,226,94.2a239.67,239.67,0,0,1-36.91-6.71c-2.16-.49-4.25-1.2-6.36-1.81l-6.31-1.94-6.19-2.23c-2.06-.76-4.13-1.46-6.14-2.35l-1.51-.64-.76-.32-.29-.1-1-.39-2.05-.78c-1.36-.53-2.74-1-4.06-1.66q-4-1.81-7.92-3.75c-2.62-1.31-5.16-2.82-7.76-4.27a8.31,8.31,0,0,1-4.4-4.2,6,6,0,0,1,0-5.28,6.46,6.46,0,0,1,5.33-3.31l-.83-.62-1.1-1.27a6,6,0,0,1-1.51-4.15V46.55c.54-3.19.22-6.62,1.23-9.75l.93-.74v-.44A5.55,5.55,0,0,1,139,32.1l1-1a14.47,14.47,0,0,1,3.91-2.72,5,5,0,0,1,1.28-1.2,7,7,0,0,1,2.6-3.86,1,1,0,0,1,1-1,.87.87,0,0,1,.5.13h0c.09-.41.11-.53.18-1-.18-.31-.27-.51-.27-.51-.53-.77-.53-.77-1-1.45a4.61,4.61,0,0,1-.06-1.6c1.08-2.42,1.09-2.41,1.88-3.18l.3-.15c-.19-.64-.2-.69-.25-.88a3,3,0,0,1,.07-.5c.37-.46.37-.46.43-.69a4.21,4.21,0,0,1,.27-.35c.67-.29.67-.29.79-.43a1.58,1.58,0,0,1,.35-.13l.63.14c-.38,1.68-.39,1.68-.39,1.68l.47-.29-.31.66.34-.56.05.56V13c.57.79.57.79.87,1a1.29,1.29,0,0,0,.64.43,2.44,2.44,0,0,1,.19-.28c.6.85.6.85,1.18,1.7a3.41,3.41,0,0,1-.09.48.42.42,0,0,1,.51.14l.32.43h.14l0,0,.51.05h.11c.35,0,.85.1,2.24.16a5,5,0,0,1,.5.76l0-.38c0-.26.44-.61.41-.7a16.37,16.37,0,0,0-.82-1.62q-.42-.81-.9-1.56c-.62-1-1.3-2-1.95-3a.8.8,0,0,1-.17-1.11.79.79,0,0,1,1.08-.3c5.23.72,9.11,4.4,11.53,9.17.84.95,1.72,1.87,2.62,2.79v-.33l.56.91a.6.6,0,0,0,.08.08l-.06-1.26L172,20a17.63,17.63,0,0,1-2.68-3.45c-.76-1.28-1.4-2.66-2.17-3.91a34.38,34.38,0,0,1-1.83-4.34.76.76,0,0,1,.08-1,.64.64,0,0,1,.93,0,18.85,18.85,0,0,1,5.29,4.51A15.37,15.37,0,0,1,175,18.22a3.86,3.86,0,0,1,1.41,2.15l0,0c0-.35,0-.67,0-1,.39.56.35,1.29.68,1.86l.4-1.07c1.13,1.14,2.46,2.11,3.71,3.16A18.93,18.93,0,0,1,183,25,11.68,11.68,0,0,1,184.55,27a2,2,0,0,1,.25.26,14.26,14.26,0,0,1,2.17,0,4.81,4.81,0,0,1,.53.07l.14,0,.35.15.71.32c1,.43,1.9,1,2.92,1.43-.66-.39-1.28-.82-1.9-1.25l-1.82-1.26c.65.24,1.47.6,2.19.91s1.49.65,2.26.95c1.52.64,3,1.34,4.57,2.17,8.35,4.32,17.77,9.72,22,13.8A203.75,203.75,0,0,0,246.74,51a200.41,200.41,0,0,0,28.54,2.18,3.09,3.09,0,0,1,2.06.45c.1.26-.54.5-1.53.53s-1.72.1-2.59.12h-7.78c-1.73,0-3.46-.15-5.2-.22s-3.48-.15-5.21-.31a189,189,0,0,1-20.75-2.94,167.45,167.45,0,0,0,35.19,5.94c1.55,0,3.11.12,4.67.1s3.06.06,4.59.18a187.72,187.72,0,0,0,46.12-5.14,240.74,240.74,0,0,0,37.42-12.44c8.85-3.79,17.13-7.86,25.28-12.12s16.08-8.9,24.3-13.85c2.12-1.39,4.32-2.38,4.83-2.17s-.82,1.54-3,3Q401.18,22.63,388,29.84a286,286,0,0,1-27.14,12.8,223.21,223.21,0,0,1-28.71,9.57,193.58,193.58,0,0,1-30.27,5.49c-2.22.26-4.44.35-6.64.53l-3.28.24c-1.1.06-2.19.07-3.28.11a.58.58,0,0,1,.13.26c0,.36-.37.7-1.05,1l3.75-.08,3.76-.21,3.77-.2,1.9-.1,1.89-.17c13.89-2.36,27.54-5.78,42.11-9.7,10-2.75,19.08-5.4,28.25-8.62a312.1,312.1,0,0,0,32.49-17.46,3,3,0,0,1,1.07-.52c.2,0,0,.2-.39.49-1.77,1.2-3.58,2.36-5.38,3.54l-2.73,1.78-2.8,1.68-5.65,3.37L384,36.84c1.4-.32,2.33-.32,2.44.13s-.67,1.31-2,2.32l5.45-2.67c1.13-.53,2.09-.83,2.16-.62s-.7.85-1.78,1.37c-3.71,1.84-7.39,3.72-11.18,5.38-1.89.83-3.75,1.74-5.66,2.52l-5.72,2.36a267.6,267.6,0,0,1-27.8,10.43,6.8,6.8,0,0,1,3.12.38h0l4.41-1.39a372.66,372.66,0,0,0,76-39.68c.47-.32.9-.52,1-.44s-.26.38-.69.66c-3.67,2.41-7.27,4.9-11,7.17-1.86,1.15-3.67,2.38-5.56,3.46l-5.62,3.35,0,0c.34-.12.45-.06.15.2a4.6,4.6,0,0,1-1.17.7c-.39.14-.41,0-.16-.2a385.06,385.06,0,0,1-43.25,21.41,338.9,338.9,0,0,0,40.42-18.41c1.34-.91,2.71-1.75,4.06-2.7a3.18,3.18,0,0,1,1.11-.5c.15,0-.08.26-.47.51l-1.12.78c2.44-1.39,4.52-2.13,4.75-1.66s-1.72,2.15-4.26,3.62C394.85,39.25,388,43,380.89,46.37l-2.25,1.18-2.2,1.35A299.39,299.39,0,0,0,409,32.39c.89-.54,1.73-.88,1.84-.73s-.52.71-1.41,1.26a275.62,275.62,0,0,1-27.91,16.43,267.43,267.43,0,0,1-30,13.23c-3.26,1.63-6.58,3.17-9.91,4.79-3.38,1.47-6.78,3-10.27,4.47.92-.2,1.84-.45,2.75-.72A177.62,177.62,0,0,0,366,58.6c9.89-4.89,19.37-10.21,29.36-15.93a2,2,0,0,1,1.06-.42c.1,0-.19.33-.7.62C386,48.55,377,53.8,366.89,58.76l-6.27,3-6.23,2.74-3.08,1.37-3.09,1.27-6.12,2.56c2.12-.72,4.22-1.48,6.3-2.23l3.12-1.14,3.06-1.25,6.06-2.53,5.94-2.74,3-1.37L372.46,57,378.28,54,384,51l2.88-1.54c1-.52,1.91-1.08,2.86-1.62a8,8,0,0,1,1.84-.85c0-.07.12-.19.31-.33,1.81-1.28,3.84-2.53,5.86-3.91a3.39,3.39,0,0,1,1.17-.56C399.2,42.1,399,42.32,398.58,42.63ZM161.91,27.41v-.24l.2.55-.21,1.5S161.9,28.32,161.91,27.41Zm-9.73-.94h0c.09-.49.15-.85.15-.85Zm93.09,28L239,53.29c-1-.19-2.06-.46-3.08-.73l-3-.82a113.15,113.15,0,0,1-11.91-4l5.9,1.45,2.24.78,2.28.68L236,52c1.52.49,3.07.87,4.62,1.26ZM160.52,19.84a12.94,12.94,0,0,1,0,3.17,3.55,3.55,0,0,1,1.31.77c1,.94,2,1.85,3,2.81.12-.5.35-.27.52-.23l.47.19a43.4,43.4,0,0,1-2.85-3.4A28.86,28.86,0,0,1,160.52,19.84Zm-8.7-4.73,0-.22.67-.39Zm-1.11.7.08.21C150.56,16.18,150.58,16.06,150.71,15.81Zm.83,1.93a2,2,0,0,0,.05-.48ZM139,35.51,142,33.14l-2.9,2.21Z"/><path d="M297.58,106l-.57-.28c.13-.18.48-.2,1-.11a10.35,10.35,0,0,0-7.08-.49,9.44,9.44,0,0,0-2.45,1.16,7.42,7.42,0,0,0-1.62,1.49c-1.15.11-1.56.73-1.14,1.3a2.45,2.45,0,0,0,1.11.73,4.33,4.33,0,0,0,1.62.29,5.81,5.81,0,0,1,.89.2c.6.24,1.19.47,1.81.69l1.93.66,2,.67c.7.21,1.4.42,2.12.66-.63-.29-1.29-.57-1.9-.82a19.72,19.72,0,0,0,2.43.62l-.58-.48c3.13,1.3,6.41,1.69,7.06.21s-1.78-4.52-5.11-5.89Z"/><path d="M289.84,101.39a25.36,25.36,0,0,1,2.57.46c.87.19,1.73.4,2.61.67l.47.28-1-1.41,0,.09c-.42,1.37-2.22,2-3.78,2.64l-.52.27a.64.64,0,0,0-.12.73,2.57,2.57,0,0,0,2.16,1.06l1.07,0c.71.12,1.55.23,2.36.3a12.23,12.23,0,0,0,2.28,0c1.42-.18,2.46-.7,2.33-2-.06-.61-.85-1.41-1.37-2.12a3.84,3.84,0,0,0-3.39-1.79c-1.32.1-1.87,1-1.34,1.92l-.75-.1.26-.4c.2.85-.8,1.17-1.36,1.68l-1.06.39,2.06,1.86.46-.32c-.11-.08-.29-.2-.29-.21a14.93,14.93,0,0,1,2.79-1.82l1.24-.94c.2-.47-.28-1.15-1.07-1.51l-1.1-.41.54.25a53.49,53.49,0,0,0-6.1-.31c-.32,0-.57.14-.57.36S289.52,101.36,289.84,101.39Z"/><path d="M295.72,100a2.19,2.19,0,0,0,1.18.21L297,100l-.83-.33C295.54,99.39,295.48,99.65,295.72,100Z"/><path d="M297,100l.34.15-.3-.21,0,0Z"/><path d="M306,249.68c-1,24.83-2.14,49.81-3.69,74.78-.05.83,0,1.54.21,1.58s.33-.6.37-1.38c1.61-25,2.78-49.83,3.78-74.66a2.81,2.81,0,0,0-.31-1.64C306.21,248.31,306.06,248.9,306,249.68Z"/><path d="M283.38,435.91c-.05-.59-.16-.57-.26,0a9.9,9.9,0,0,0-.06,2.05c0,.5.17.48.25,0A9.72,9.72,0,0,0,283.38,435.91Z"/><path d="M275.16,430.48c-.27-3.5-.59-6.82-1-9.78a10.32,10.32,0,0,1-.06-1.64c-.18.21-.37-.46-.51-1.72-2.62-24.85-4.51-51.57-6.25-77.89a2.49,2.49,0,0,1-.65-1.11,29.56,29.56,0,0,1-1.12-9.28l.12-2.86c.17-11.55.38-23.07.8-34.56a68.29,68.29,0,0,1-.63-8.05c-.91-9.95-1.72-19.93-2.25-30.14-.21.64-.46,1-.73,1-.62-.2-1.09-2.57-1-5.33,0-1.39.07-2.77.16-4.16-.45,4-.54,8-.79,12,0,.58-.07,1.11-.13,1.59-.09,4.37-.09,8.79,0,13.28.43,39.22,4,76.09,7.74,112.67a6.88,6.88,0,0,1,0,2.07c-.1.36-.26.29-.36-.38-3.5-23.07-8.22-43-11-69.14-1.63-15.52-3-30.95-4-46.48-.26-3.89-.51-7.78-.7-11.68q-.17-2.93-.31-5.86c-.1-2-.23-3.91-.21-5.87a57.71,57.71,0,0,1,5.28-23.65c4-8.29,9-16.37,12.8-24.51,1-2.08,1.82-4,2.71-6.34l.64-1.67c.23-.64.47-1.17.67-1.62.42-.92.82-1.7,1.13-2.49a15.64,15.64,0,0,0,1.21-9.44,13,13,0,0,0-1.75-4.35c-.43-.69-.93-1.4-1.61-2.35a19,19,0,0,1-2.19-4,16.26,16.26,0,0,1-1.06-5.26,17.57,17.57,0,0,1,.56-5.16,23.47,23.47,0,0,1,4-7.76,12.76,12.76,0,0,0,1-1.58l0-.06h0l.09.06.35.18a6.11,6.11,0,0,0,.74.32l.39.13.19.08a2.75,2.75,0,0,0,.67.17s0,0,0,0h-.21l-.3,0-.21.05.11,0c.05,0,0,0-.4.18l-.31.17-.35.24a3.17,3.17,0,0,0-.46.33l-.1.08h0a.72.72,0,0,0-.18-.3,2.73,2.73,0,0,0-.24-.26,14.83,14.83,0,0,0-1.14-1c-.79-.6-1.57-1.2-2.29-1.82a21.6,21.6,0,0,1-3.72-3.67,9.81,9.81,0,0,1-1.75-4.15,3.52,3.52,0,0,1-.14-1.21c0-.42,0-.83,0-1.24A11,11,0,0,1,267,133a7,7,0,0,1,.65-1.38,6.71,6.71,0,0,1,.85-1.27,6.19,6.19,0,0,1,.46-.62l.6-.58a16.66,16.66,0,0,1,1.42-1.11c.24-.18.51-.36.79-.53a6.56,6.56,0,0,1,.87-.49c.67-.28,1.32-.56,2-.87,1.32-.56,2.83-.95,4.2-1.41l2.08-.7c.42-.15.63-.25.93-.37a9,9,0,0,0,1.34-.69,1.3,1.3,0,0,0,.28-.24h0l.07.09c.19.24.47.52.59.7s.33.38.51.56l.28.26.2.2a4.09,4.09,0,0,0,.44.37c.17.11.21.17.34.24s.28.14.32.17l.19.09c.13,0,.19,0,.11,0a1.2,1.2,0,0,0-.34.11,2.18,2.18,0,0,0-.6.34,4.37,4.37,0,0,0-.86.62l-.19.18-.28.24a6.51,6.51,0,0,0-.54.51c-.17.18-.33.36-.48.55l-.28.32c-.09.09,0,0-.07.05h-.08c-.11,0-.23,0-.38-.07-.65-.16-1.65-.4-2.73-.58-.56-.1-1.07-.2-1.74-.28l-2-.07c-.68,0-1.38-.2-2.06-.3a75.92,75.92,0,0,1-8.85-2l-1.68-1a3.48,3.48,0,0,0-.43-.25l-.54-.2-1.1-.39c-.34-.14-.76-.25-1.05-.41l-.74-.57c-.49-.38-1-.75-1.44-1.13s-.93-.76-1.36-1.15l-.43-.39-.58-.52c-.79-.69-.49-1.59-1.36-2.25l-.5-.54a2.13,2.13,0,0,1-.43-.54l-.67-1.12-.54-1.15a13.2,13.2,0,0,0-.73-1.19c-.64-.8.09-1.58-.74-2.49l-.37-.65a4.87,4.87,0,0,1,0-.66l.06-.65c0-.1,0-.23-.09-.35l-.16-.37c-.18-.49-.56-1-.31-1.44L250,105l.08-.34a1.4,1.4,0,0,0-.07-.39c-.12-.52-.26-1-.36-1.57l.56-1.37.14-.34a1.26,1.26,0,0,0,0-.39l0-.8c0-.53-.05-1.06,0-1.6l.1-1.61,0-.41c0-.14.13-.21.19-.32l.49-.61,1-1.22a9.8,9.8,0,0,0,.56-1.46l.52-1.48,0-.1v0a.53.53,0,0,0-.06-.1l-.26-.42-.13-.2c0-.06,0-.07,0-.11l.09-.2.35-.81.34-.8.28-.71.54-1.32c.35-.85.73-1.72,1.1-2.56.28-.69.6-1.36.92-2a17.62,17.62,0,0,1,1-1.81,12.73,12.73,0,0,1,2.07-2.62c1.34-1.28,2.7-1.68,3.69-1,1.19.9,1.54,3.11,1.12,5.54l.65-1c.39-.45.8-.93,1.2-1.35,1.14-1.18,2.35-1.94,3.45-1.87H271c2.31.53,5.1.33,7.46,1.74l.39,1,.36,0a3.77,3.77,0,0,1,2.86,1.17l.64,1.14A11.91,11.91,0,0,1,283.94,87a3.87,3.87,0,0,1,.66,1.41,5.63,5.63,0,0,1,2.63,3.22.8.8,0,0,1,.58,1.08,1,1,0,0,1-.33.36h0c.36.19.46.24.9.45a5,5,0,0,1,.6,0c1-.16,1-.15,1.84-.24a5.89,5.89,0,0,1,1.66.59c2,1.84,2,1.88,2.5,2.8a1.46,1.46,0,0,1,0,.29c.78.17.85.2,1.07.26a3.51,3.51,0,0,1,.51.31c.34.49.34.49.56.66a4.24,4.24,0,0,1,.26.37c0,.6,0,.6.09.76a1.12,1.12,0,0,1,0,.29l-.47.33-1.65-1.12.09.46-.56-.53.44.49-.63-.24.78.37a4.54,4.54,0,0,0-1.54.07,1.75,1.75,0,0,0-.77.22,2.58,2.58,0,0,1,.21.25l-2.33.07-.44-.24c0,.15-.16.26-.39.28l-.58,0-.07.1,0,0-.29.32-.05.07h0c-.2.22-.5.53-1.29,1.33-.34,0-.69,0-1,.05l.37.1c.26.08.37.47.48.48,1.36.08,2.7.14,4.05.16s2.76.09,4.18.22a1.58,1.58,0,0,1,1.34.5c.3.37.17.7-.28.77a10.47,10.47,0,0,1-3.23,1.43,24.65,24.65,0,0,1-3.84.74c-2.7.31-5.46.42-8,.5-.57.08-1.14.21-1.69.33l-1.52.36.24.06c-.25,0-.62,0-.56.15v0h.19l.4.08h.47a17.26,17.26,0,0,1,3.89-.45c.75,0,1.45,0,2.23,0l2.39.12a16.91,16.91,0,0,1,2.67.36l2.77.61a1.37,1.37,0,0,1,1,.54c.14.26-.11.44-.53.4-1.25.14-2.46.16-3.77.24-.64,0-1.23,0-1.88,0h-1.86c-1.25,0-2.38-.08-3.51-.12l-1.58-.16c-.14,0-.24,0-.36-.06l-.31-.06-.11.06a1.53,1.53,0,0,1-.84.31h0l.49.08c-.17.11-.6,0-.8.14l.61.2a1.53,1.53,0,0,0-.47,1.3c.05.47.22.84.26,1.2l0,.08c.35.12.69.21,1,.3l.22.06.06,0,.17.09.34.16c.46.21.92.39,1.39.59a13.61,13.61,0,0,1-1.67-.91c.65.3,1.35.56,2,.79.08,0,.15.06.24.08l.12,0,.06,0,.12.08,2,1.3c.68.46,1.37.91,2.14,1.46a24.28,24.28,0,0,1,2.47,2l.47.44c.16.16.34.36.5.55a9.07,9.07,0,0,1,1,1.36,7.78,7.78,0,0,1,.51.93,6.86,6.86,0,0,1,.42,1.1,10.87,10.87,0,0,1,.27,1.26,10.29,10.29,0,0,1,0,1.36,7.5,7.5,0,0,1-1.79,4.32,9.65,9.65,0,0,1-2.31,2,24.34,24.34,0,0,1-3.63,1.78c-.52.21-1.23.47-1.16.46a2.47,2.47,0,0,0-.36.11,9.58,9.58,0,0,0-1.46.54,1.55,1.55,0,0,0-.62.51,1.74,1.74,0,0,1-.11.18c0,.07,0,.13,0,.2a.74.74,0,0,0,.1.35,4.86,4.86,0,0,0,1,1l.27.24.14.13.07.07h0l0,0s0,0,0,0l.17.14a15.63,15.63,0,0,1,2.67,2.62,12,12,0,0,1,2,3.71,11,11,0,0,1,.48,2,18,18,0,0,1,.09,2.06,14.87,14.87,0,0,1-.29,2,14,14,0,0,1-.57,1.73,14.49,14.49,0,0,1-.7,1.37c-.24.38-.48.75-.71,1.08a28.39,28.39,0,0,1-2.11,2.77c-.58.71-1.1,1.3-1.47,1.82a6.2,6.2,0,0,0-1.3,2.82,4.5,4.5,0,0,0,0,1.36,5.41,5.41,0,0,0,.62,1.7c.79,1.5,2,3.54,3,5.59a55.41,55.41,0,0,1,4.12,12.93c.43,2.24.71,4.55.95,6.72l.18,1.56a12.34,12.34,0,0,0,.26,1.32c.19.9.43,1.79.65,2.67.51,1.91,1.05,3.86,1.67,5.77s1.29,3.9,2,5.84c1.4,3.88,3,7.81,4.42,11.7a98.86,98.86,0,0,1,6.27,23.36c.22,1.6,0,3-.29,3.32s-.71-.91-.89-2.51a97.91,97.91,0,0,0-3.91-16.79c-1.81-5.63-4-11.26-6-16.92-1-2.81-1.9-5.64-2.73-8.46-.4-1.39-.78-2.79-1.12-4.19l-.26-1-.21-1c-.15-.65-.3-1.31-.42-2-.26-1.15-.34-2.8-.52-4.38s-.36-3.24-.66-4.85a53.32,53.32,0,0,0-2.55-9.41,51.89,51.89,0,0,1,2.16,7.84,68.23,68.23,0,0,1,1,8.05c.06.66.09,1.28.15,1.86s.17,1.06.26,1.62c.21,1.12.39,2.15.66,3.38.5,2.36,1,4.7,1.71,7.1,2.5,9.54,5.88,19.2,7.52,28.89.49,2.48.88,5,1.19,7.46a46.21,46.21,0,0,1,.23,7.33c-.09,12.38-.44,24.45-.7,36.58s-.52,24.33-.66,37c-.25,21.6-.67,40.49-1.64,62-1.43,30.2-4,57.7-9.74,87.51a43.24,43.24,0,0,1-2.06,8.09c-.35.48,0-2.4.65-6.38,2.47-15.54,4.13-31,5.38-46.52s2.1-31,2.74-46.58c1.26-31.19,1.81-62.74,2.85-95.25.2-7,.41-13.92.61-20.78a.66.66,0,0,1-.36.17c-.49,0-.93-.67-1.28-1.77q-.39,11.69-1.06,23.53c.5,21.93.65,43.9-1,67.28-1.15,16.05-2.9,30.57-4.53,45.41-.78,18.82-1.79,37.58-3.6,56.59a8.15,8.15,0,0,1-.28,1.81c-.1.28-.13-.13-.08-.9.85-13.07,1.37-26.46,1.76-40-.51,2.12-1,3.39-1.55,3.21s-.9-1.83-1.13-4.36l-.47,9.2c-.11,1.89-.37,3.38-.61,3.32s-.4-1.55-.32-3.35q.75-18.76,1.49-37.47c.14-15,.2-29.91.24-44.93a10.54,10.54,0,0,1-1.85,4.32h0c0,2.32-.05,4.64-.07,6.95q.88,31.82.26,64.3t-2.89,65.29a7.75,7.75,0,0,1-.19,1.57,5.8,5.8,0,0,1,0-1.41q1.21-19.81,1.94-39.52v.06c-.08.53-.19.62-.24,0a11.9,11.9,0,0,1,.07-2.06c.1-.6.21-.55.25-.05.86-24.47,1.07-48.77.6-72.75q-.44,33.42-1.66,66.81c.05,2.42.1,4.84.16,7.31a7.74,7.74,0,0,1-.19,1.82c-.08.18-.17-.31-.17-1l0-2c-.17,4.21-.65,7.45-1.12,7.38-.48-.24-.83-3.86-.78-8.24,0-11.72.06-23.39.08-35.07l-.09-3.79c-.11-1.28-.22-2.54-.32-3.81-.38,18.16-.73,36.28-.87,54.3a8.19,8.19,0,0,1-.26,2.89c-.16,0-.31-1.21-.33-2.77-1.1-31.76-2.38-63.92-3.14-96.21-1.38-10.62-2.86-21.26-4.34-32.11,0,1.37,0,2.75,0,4.13.17,17.55,1.45,33.79,2.7,49.88s2.47,32,3.06,49a4.06,4.06,0,0,1-.13,1.67c-.1.09-.22-.48-.24-1.35-.72-16.59-2.12-31.74-3.31-48.21-1-13.64-1.91-26.61-3.15-39.29.84,25.91,3.05,50.77,4.4,76.43a15.12,15.12,0,0,1,0,3,1.37,1.37,0,0,1,.18.63c.41,3.21.74,6.71,1,10.29a6.77,6.77,0,0,1-.05,1.91C275.37,431.66,275.25,431.24,275.16,430.48Zm2.5-329.2.2,0-.54.07-1.11-.28S276.91,101.16,277.66,101.28Zm4.87-6.89h0l.71.31Zm7.4,99.63c-.14-.8-.28-1.59-.37-2.35l-.2-2.71c-.13-1.89-.32-3.82-.64-5.73a49.38,49.38,0,0,0-3.11-11,47.22,47.22,0,0,0-2.48-5.1,13.92,13.92,0,0,1-1.74-3.74,4.63,4.63,0,0,1,0-1.35,6.68,6.68,0,0,1,.34-1.45,8.78,8.78,0,0,1,1.73-2.73,9.17,9.17,0,0,0-1.63,2.69,5.7,5.7,0,0,0-.27,2.67c0,1.12,1.68,3.53,3,6.15a47.45,47.45,0,0,1,3.09,8.12,52.09,52.09,0,0,1,1.62,8.61c.16,1.44.24,2.9.33,4.29,0,.66.07,1.37.14,1.9S289.83,193.43,289.93,194Zm-5.15-92.28A22.85,22.85,0,0,1,282,101a4.9,4.9,0,0,1-1.26.7c-1.2.53-2.44,1-3.54,1.53.34.12.07.24,0,.34s-.24.19-.33.28c.61-.26,1.25-.5,1.88-.71s1.37-.42,2.05-.6,1.33-.34,2-.49A12.43,12.43,0,0,1,284.78,101.74Zm8.86-4,.22.12.1.63Zm-.21-1.08-.26,0C293.11,96.36,293.22,96.42,293.43,96.63Zm-2.37-.21a2.53,2.53,0,0,0,.46.22ZM279.14,81.18l1.18,3.19-1.05-3.13Z"/><path d="M8.12,169.4l.65,0c-.08.35-.44.63-.93.87a13.8,13.8,0,0,0,7.43-3.88A20.64,20.64,0,0,0,19.69,160c1.38-.73,2.06-2.06,1.55-3s-2.14-1.13-3.59-.39a5.71,5.71,0,0,1-1.14.2,27.85,27.85,0,0,0-9.61,1.45L9.16,158a11.14,11.14,0,0,0-2.8,1.09l.73.28c-3.68.58-7,3.49-7.09,6.43s3,4.61,6.52,3.88Z"/><path d="M17.16,171.08c-1.85.44-3.68.85-5.59,1.25l-.55-.08,1.4,1.23-.06-.11c.1-2,1.67-4,3.3-5.71l.5-.67a1.25,1.25,0,0,0,0-1.13,1.87,1.87,0,0,0-2.56-.39l-1.16.62c-3.25,1-7.42,4.1-6.43,7.43.24.76,1.21,1.17,1.91,1.7a2.85,2.85,0,0,0,3.73,0c1.21-.91,1.57-2.35.8-3.28l.79-.31c-.06.23-.11.46-.17.69-.41-1,.52-2,1-3.06l1.06-1.13-2.61-1.51-.42.76a1.83,1.83,0,0,1,.35.12,33.78,33.78,0,0,1-2.36,4.32c-.31.68-.62,1.38-.92,2.08a1.22,1.22,0,0,0,1.45,1.22l1.17-.17-.59,0c2.13-.93,4.13-2.05,6.22-2.83a.71.71,0,0,0,.53-.74A.54.54,0,0,0,17.16,171.08Z"/><path d="M11.6,176a2,2,0,0,0-1.19.49v.3l.88-.1C11.93,176.63,11.92,176.28,11.6,176Z"/><path d="M10.42,176.81l-.37,0,.35.06,0,0Z"/><path d="M66.94,313.24l-.32.91a4.83,4.83,0,0,1-.24.5l-.46.9c-.34.6-.54,1.22-.82,1.84a29.7,29.7,0,0,0-1.32,3.86,17.14,17.14,0,0,0-.6,4.11,8.42,8.42,0,0,0,.9,4.07,6.47,6.47,0,0,0,3.11,2.71,12.34,12.34,0,0,0,4.09.9,30.32,30.32,0,0,0,4.26-.05l2.15-.19,4.91-.58c.85-.1,1.54-.33,1.56-.52s-.67-.23-1.45-.12l-5,.58-2,.18a30.61,30.61,0,0,1-4.06,0,12.24,12.24,0,0,1-3.89-.83,6.24,6.24,0,0,1-3-2.54,7.66,7.66,0,0,1-.9-3.84,15.51,15.51,0,0,1,.55-3.91,27.66,27.66,0,0,1,1.25-3.66c.26-.59.46-1.17.76-1.74l.44-.85.22-.42a3.34,3.34,0,0,0,.14-.38l.16-.45a2.76,2.76,0,0,0,.19-1.42C67.42,312.23,67.16,312.64,66.94,313.24Z"/><path d="M212.43,334.26c-.54-.57-.63-.46-.25.24a14.37,14.37,0,0,0,1.48,2.2c.41.49.54.38.25-.24A11.71,11.71,0,0,0,212.43,334.26Z"/><path d="M200.14,336.31a26.88,26.88,0,0,0-8.34-5.05,7.27,7.27,0,0,1-1.34-.66c.06.28-.58.23-1.64-.07-5.26-1.41-10.7-.67-16.9,1.42-.78.25-1.56.55-2.36.84l-2.45,1-2.45,1-2.44,1.09c-3.25,1.48-6.49,3.15-9.75,4.93-6.53,3.56-13.1,7.65-20.14,11.81l-2.69,1.57c-.95.54-1.89,1.08-2.86,1.61-1.93,1.06-3.91,2.06-5.91,3a130.06,130.06,0,0,1-12.43,5.26,3.41,3.41,0,0,1-1.26,1.1c-2.18,1.44-7,3.21-12.11,4.12-1.29.22-2.58.39-3.87.57-1.92.29-4,.56-5.65.77l-2.83.34c-1.26.17-2.53.3-3.8.42a101.69,101.69,0,0,1-15.05.6,55.67,55.67,0,0,1-14.25-2.35,35.37,35.37,0,0,1-12.4-6.57,17.7,17.7,0,0,1-2.41-1.84A19,19,0,0,1,32.47,359l-1.1-1.29c-.36-.44-.67-.93-1-1.41s-.67-1-1-1.46l-.84-1.6a36.61,36.61,0,0,1-4.07-11.41c-.19-1-.36-2-.49-3.06a24.42,24.42,0,0,1-.32-3.12,51.74,51.74,0,0,1,.07-6.46,66,66,0,0,1,2.4-13.41c.63-2.27,1.57-4.43,2.4-6.66l1.29-3.34c.11-.28.21-.57.33-.84l.42-.77.86-1.55c-.78,1-1.36,1.53-1.59,1.44-.18-.25.21-1.37,1-3,.39-.82.88-1.77,1.44-2.8l.44-.79c.15-.26.31-.56.45-.75l.89-1.3,1.86-2.66.93-1.31,1-1.24A42.37,42.37,0,0,0,35,293.86l-1.39,1.89-.69.95c-.23.32-.51.79-.76,1.18-2,3.31-4.3,6.45-5.75,10.18-.46,1.05-.91,2-1.34,2.88a45.35,45.35,0,0,0-2.3,6.11,64.35,64.35,0,0,0-1.62,6.28,59.94,59.94,0,0,0-1.31,12.55,54.37,54.37,0,0,0,1.92,12.93c.35,1,.68,2,1.06,3l1.26,2.94,1.55,2.81c.58.9,1.22,1.77,1.82,2.66s1.34,1.69,2,2.53,1.53,1.52,2.3,2.28a28.65,28.65,0,0,0,2.46,2.07A23.93,23.93,0,0,0,36.84,369a43.88,43.88,0,0,0,11.69,5c8.23,2.18,17.17,2.2,26,1.17,2.2-.27,4.39-.58,6.56-.91.54-.06,1.09-.18,1.62-.27l1.39-.24,2.18-.42,4.59-.92c1.58-.36,3.16-.7,4.74-1.11a128.27,128.27,0,0,0,18.54-6.15,133.5,133.5,0,0,0,17-8.67c10-6.06,18.71-12,27.65-16.66a7,7,0,0,1,2.1-.86c.4,0,.4.18-.24.53A183.13,183.13,0,0,0,144.7,350L136.62,356,132.36,359c-1.57,1.08-3.17,2.15-4.82,3.19a122.24,122.24,0,0,1-34.52,15c-1.07.29-2.15.55-3.23.81l-3,.71-1.48.34-.76.16-.48.1-.6.11c-1.61.35-3.27.56-4.93.84-2,.32-4,.57-6,.85s-4,.39-6,.46l-3,.14c-1,.06-2,0-3,0s-2,0-3-.1l-2.91-.25c-1-.07-1.93-.23-2.88-.37s-1.91-.29-2.85-.49A56.62,56.62,0,0,1,43.5,379a47.5,47.5,0,0,1-10.35-4.62l-2.39-1.56-2.25-1.76a27.82,27.82,0,0,1-2.16-1.89l-1-1-.26-.25-.07-.06c-.09.05-.06,0-.09,0l-.12-.13-.47-.54a45.36,45.36,0,0,1-6.57-9.27,44.12,44.12,0,0,1-4-10.59c-.43-1.87-.78-3.77-1.12-5.67a17.63,17.63,0,0,1-.32-2.93c-.05-1-.18-2-.14-3a63.44,63.44,0,0,1,1.06-12.44,59.9,59.9,0,0,1,3.58-12.62l2.55-6.17.64-1.55.33-.78a7.14,7.14,0,0,1,.4-.71l1.7-2.82,1.7-2.82.86-1.42.43-.71c.14-.23.29-.49.4-.64q1.44-2.08,2.91-4.13c.5-.67,1-1.37,1.5-2L31.87,285l1.64-1.89c.55-.63,1.1-1.25,1.68-1.81q1.73-1.72,3.47-3.39c1.17-1.09,2.34-2,3.52-3a147.15,147.15,0,0,1,13.32-9.56c4.35-2.72,8.31-5.15,11.79-7.81,1.82-1.3,3.42-2.7,5.07-4.11.85-.68,1.56-1.45,2.34-2.2s1.53-1.49,2.27-2.26c1.41-1.61,2.82-3.21,4.16-4.89s2.6-3.49,3.78-5.21a51.86,51.86,0,0,0,5.46-10.49A41.55,41.55,0,0,0,93,217.23a35.09,35.09,0,0,0-.6-10.86l-.28-1.31c-.11-.42-.25-.83-.37-1.25-.22-.83-.55-1.65-.83-2.46a31.31,31.31,0,0,0-2.19-4.69,30.07,30.07,0,0,0-6-7.63,12.54,12.54,0,0,0-4.15-2.62,2.67,2.67,0,0,0-.79-.18l-.16,0-.11,0a1,1,0,0,0-.2.08c-.25.12-.49.27-.82.41a5.53,5.53,0,0,1-1.58.44,12.45,12.45,0,0,0-1.85.19,9.82,9.82,0,0,0-1,.32,22.38,22.38,0,0,0-4.07,2c-.33.19-.7.48-1,.7-.17.11-.35.25-.53.38l-.12.1-.38.33-.77.7c-.25.22-.51.48-.77.73s-.51.48-.77.76c-1,1-2.09,2.12-3.14,3.31s-2.09,2.46-3.13,3.82c-1.27,2.37-4.06,2.58-6.47.3a7.66,7.66,0,0,1-2.3-5.35l-.5.51-1,.57a3.94,3.94,0,0,1-3.27.23l-1.51-.43c-2.57-1.18-5.42-1.43-8.19-2.81l-.65-1-.38,0a5.56,5.56,0,0,1-3.2-1l-.93-1a12.45,12.45,0,0,1-2.28-4.05,4.67,4.67,0,0,1-1-1.37,6.41,6.41,0,0,1-3.48-2.9.88.88,0,0,1-.85-1,1.11,1.11,0,0,1,.25-.51h0a7,7,0,0,0-1-.24c-.37.17-.6.25-.6.25l-1.75.95a5.79,5.79,0,0,1-1.77.05c-2.48-1.13-2.5-1.13-3.19-2a3,3,0,0,1-.1-.32l-1.09.3a2.93,2.93,0,0,1-.56-.06c-.46-.37-.46-.37-.71-.43a2.92,2.92,0,0,1-.36-.28c-.18-.71-.18-.71-.31-.84a2.1,2.1,0,0,1-.06-.37l.35-.71,1.89.36-.21-.5.68.31-.56-.34.67-.07H12a6,6,0,0,0,1.46-1,2.32,2.32,0,0,0,.7-.69,2.35,2.35,0,0,1-.27-.2c1.18-.65,1.17-.66,2.34-1.26.19,0,.35.07.51.11a.57.57,0,0,1,.33-.54l.59-.33.05-.14,0,0,.24-.54,0-.12h0c.17-.38.42-.92,1.12-2.35a8.76,8.76,0,0,1,1.08-.44h-.44c-.29,0-.48-.52-.61-.49a42.84,42.84,0,0,0-8.68,3.81,1.2,1.2,0,0,1-1.42.24.76.76,0,0,1,0-1.21c2.9-6,10-10.14,16.87-11.72l4.94-2-.36-.09,1.41-.31.14-.06-1.39-.25c-.26,0-.53.07-.78.12-3.79,1.61-7.79,2.36-11.74,3.76-2.12.75-4.25,1.07-6.41,1.7a1,1,0,0,1-1.23-.12c-.2-.31,0-.79.5-1,5.27-4.31,12.77-7.77,19.35-7.69A8.06,8.06,0,0,1,34,153l.06,0-1.07-.28a19.34,19.34,0,0,1,2.62-.09l-.77-.7c2.29-.7,4.65-1.53,7-2.22A25.84,25.84,0,0,1,49,148.54l.53-.06A20.35,20.35,0,0,1,52.18,147l.72-.33.23-.09,1.06-.26,2.21-.45a57.92,57.92,0,0,1,9.51-1c-1.14,0-2.27,0-3.38.09s-2.23.13-3.32.27-2.21.23-3.28.4l-1.63.25-1.42.26,0,0,.19-.05.42-.11.86-.2,1.74-.37c1.14-.25,2.34-.42,3.53-.61a58.41,58.41,0,0,1,7.33-.63c1.25,0,2.53,0,3.79,0s2.56.18,3.85.29l1.94.27,1,.14.49.08.24,0,.13,0,3.32.69a46.29,46.29,0,0,1,11.5,4.07,44.63,44.63,0,0,1,5.42,3.36c.8.61,1.58,1.22,2.35,1.84s1.42,1.27,2.12,1.91a54.58,54.58,0,0,1,11.54,16.29,61.08,61.08,0,0,1,4.89,15.35,53.48,53.48,0,0,1,.92,11.9,76.83,76.83,0,0,1-.35,16.83,93,93,0,0,1-3.61,16,109,109,0,0,1-6.13,14.93c-.62,1.18-1.21,2.39-1.87,3.55l-1,1.75-1,1.65-2,3.3c-.65,1.11-1.32,2.21-2,3.28-2.8,4.33-5.75,8.65-8.9,12.78l-2.35,3.13-2.41,3-1.21,1.53-1.21,1.46L84,286.56c-3.15,3.83-6.23,7.56-8.76,11a56.34,56.34,0,0,0-5.79,9.93c-.54,1.32-1.09,2.35-1.44,2.41s-.17-1,.33-2.34c.46-1.16,1.05-2.32,1.58-3.52s1.34-2.39,2.06-3.62,1.61-2.47,2.53-3.75,1.87-2.55,2.93-3.89c4.15-5.25,9-10.9,13.55-16.79a201.62,201.62,0,0,0,12.67-18.44l2.83-4.76c.94-1.66,1.85-3.36,2.71-5.08a101.84,101.84,0,0,0,4.6-10.6c-1.16,3-2.5,5.95-3.94,8.82-.72,1.44-1.49,2.85-2.26,4.26l-1.21,2.08-1.23,2c-1.63,2.63-3.24,5.27-5.06,7.81-.9,1.27-1.73,2.61-2.67,3.85l-2.82,3.78c-3.81,5-7.88,9.85-12,14.41s-8,8.91-11.2,13.11l-1.18,1.62c-.37.54-.7,1.07-1,1.61l-1,1.59c-.33.53-.58,1.07-.88,1.59-.56,1.05-1.18,2-1.63,3.07L65,308.21l-.39.73-.32.77-.75,2c-.12.3-.26.69-.36.91l-.28.61c-.36.81-.78,1.61-1,2.43a47.28,47.28,0,0,0-1.63,5,26.4,26.4,0,0,0-.84,5.13,12.41,12.41,0,0,0,.7,5.1,7.46,7.46,0,0,0,3.29,3.88,12.19,12.19,0,0,0,5,1.44,27.21,27.21,0,0,0,5.26-.12c.87-.1,1.73-.22,2.6-.37l1.28-.23c.47-.07.68-.14,1.76-.3,3.31-.52,5.82-.94,8.5-1.51s5.19-1.2,7.66-1.93a99.84,99.84,0,0,0,14.34-5.47c2.38-1.12,4.57-2.24,7.3-3.68l8.2-4.34c5.66-3,11.76-6.07,18.55-8.95a130.36,130.36,0,0,1,14.84-5.35,78.32,78.32,0,0,1,17.55-3.3,52.4,52.4,0,0,1,20.77,3,49.76,49.76,0,0,1,9.47,4.7,60.74,60.74,0,0,1,7.64,5.8,63.48,63.48,0,0,1,6.51,6.86,69.18,69.18,0,0,1,5.06,7.27,100.09,100.09,0,0,1,6.82,13.9l1.31,3.28c.45,1.14.92,2.37,1.35,3.56.87,2.4,1.63,4.85,2.34,7.31a112.25,112.25,0,0,1,3.16,15,55.69,55.69,0,0,1,.6,7.35,12.12,12.12,0,0,1-.36,3.82c-.44.71-1-3.09-1.75-8.4a110,110,0,0,0-3.43-15.43c-.75-2.54-1.6-5.06-2.53-7.56-.47-1.24-1-2.48-1.48-3.7l-1.46-3.46a104.24,104.24,0,0,0-7.43-14.39,58.11,58.11,0,0,0-12.38-14.13c-1.25-1.06-2.58-2-3.9-2.94l-2-1.33c-.66-.43-1.5-.88-2.25-1.3a46.2,46.2,0,0,0-9.94-4,50.46,50.46,0,0,0-20.4-1.14,74.36,74.36,0,0,0-8.85,1.8c-1.37.36-2.64.73-4,1.11s-2.59.79-3.86,1.22a158,158,0,0,0-14.68,5.86c-4.69,2.13-9.15,4.38-13.47,6.62l-6.35,3.31-3.09,1.61-2.94,1.49a101.36,101.36,0,0,1-23.21,8.36c-2,.48-4.08.85-6.16,1.22l-3.2.49-3.43.49a61.32,61.32,0,0,1-7.81.8,26.17,26.17,0,0,1-4-.17,15,15,0,0,1-3.84-.93,9.08,9.08,0,0,1-3.32-2.14,8.92,8.92,0,0,1-1.26-1.54,11,11,0,0,1-.84-1.81,15.6,15.6,0,0,1-.6-6.78,34.87,34.87,0,0,1,1.44-6.59,1.06,1.06,0,0,1-.36.11c-.44,0-.73-.43-.83-1.19a44.17,44.17,0,0,0-2,8.15,24.41,24.41,0,0,0-.18,4.28,15.35,15.35,0,0,0,.89,4.23,9.79,9.79,0,0,0,4.22,4,15.31,15.31,0,0,0,5.71,1.47,48.18,48.18,0,0,0,11.56-.87l1.43-.25,2.43-.37,2.38-.37c.74-.12,1.49-.23,2.23-.37,3-.51,5.89-1.13,8.79-1.84A121.69,121.69,0,0,0,112,330.4l3-1.25,3-1.36,6.35-2.9c4.28-1.94,8.62-3.89,13.09-5.71s9-3.53,13.73-5c2.36-.73,4.74-1.43,7.17-2,1.21-.31,2.42-.61,3.65-.87l1.85-.4,1.92-.38a65.07,65.07,0,0,1,10.37-1.7,45.3,45.3,0,0,1,11.38.55A41.93,41.93,0,0,1,198.68,313c.89.41,1.72.91,2.57,1.38s1.56,1,2.34,1.46a51,51,0,0,1,4.4,3.26,53.12,53.12,0,0,1,7.59,7.71,68.57,68.57,0,0,1,5.69,8.47c1.63,2.84,3,5.66,4.32,8.43.62,1.38,1.24,2.76,1.83,4.12s1.23,2.87,1.81,4.32a9.24,9.24,0,0,1,.71,2.32c0,.39-.26-.09-.66-1s-.85-2-1.29-3l-1.34-2.88c-.88-1.86-1.82-3.75-2.79-5.66a88.17,88.17,0,0,0-7.08-11.61,57.25,57.25,0,0,0-4.73-5.62,52.23,52.23,0,0,0-5.65-5c-1-.79-2.05-1.48-3.1-2.2s-2.07-1.34-3.3-2a39,39,0,0,0-7.46-3.14c3.12,1.54,4.59,3,4.09,3.48s-3-.16-6.66-.76a36.57,36.57,0,0,1,6.29,2.44c1,.47,2,1.07,2.94,1.61s1.8,1.14,2.66,1.78c2.16,1.54,3.55,3.14,3.3,3.31s-2-1-4-2.35c-.86-.62-1.76-1.18-2.66-1.75s-1.9-1.12-2.91-1.57a34.36,34.36,0,0,0-6.23-2.34,38.9,38.9,0,0,0-13-1.17,61.73,61.73,0,0,0-12.23,2.25c-3.85,1-7.63,2.3-11.32,3.71a261.76,261.76,0,0,0-25,12.31l-6,3.19c-2,1-3.89,2-5.86,2.95A110.39,110.39,0,0,1,104,344.36a14.75,14.75,0,0,1,5.41.13h0c2.56-1,5.08-2.05,7.55-3.19,5.55-2.82,11.09-6.16,16.79-9.3s11.54-6.26,17.67-8.95c3.06-1.36,6.21-2.59,9.42-3.7,1.6-.57,3.23-1.06,4.86-1.56s3.35-.92,5.09-1.28a45.79,45.79,0,0,1,10.87-1,35.34,35.34,0,0,1,11.12,2.12l1.34.51,1.3.58c.88.38,1.7.84,2.54,1.29a46.41,46.41,0,0,1,4.63,3,45.43,45.43,0,0,1,8,7.56c4.65,5.62,7.88,11.85,10.73,17.92,1.41,3,2.84,6.2,4,9.41s2.27,6.48,3.17,9.79a112.18,112.18,0,0,1,3.6,20.19,6,6,0,0,1,0,2,4.31,4.31,0,0,1-.33-1.74,113.42,113.42,0,0,0-4.81-24.2,107.28,107.28,0,0,0-4.41-11.58c-1.69-3.72-3.39-7.37-5.41-11l0,.06c.25.63.18.81-.26.22a17.9,17.9,0,0,1-1.28-2.28c-.31-.71-.15-.73.24-.23a57.6,57.6,0,0,0-7-9.69,46.74,46.74,0,0,0-4.41-4.26,45.82,45.82,0,0,0-5-3.6,37.4,37.4,0,0,0-5.55-2.9,35.9,35.9,0,0,0-6.06-1.85,38.45,38.45,0,0,0-12.36-.46A61.68,61.68,0,0,0,164,318.9c-3.64,1.14-7.19,2.47-10.66,3.94a202.59,202.59,0,0,0-19.87,10c6-3.14,12.17-6.2,18.56-8.82,3.19-1.32,6.45-2.53,9.77-3.57a77.09,77.09,0,0,1,10.24-2.59,42.57,42.57,0,0,1,10.9-.57A33.51,33.51,0,0,1,193.71,320a40.35,40.35,0,0,1,9.22,5.83,43.93,43.93,0,0,1,7.35,7.84,63.23,63.23,0,0,1,5.45,7.48,8.21,8.21,0,0,1,.94,2.08c0,.26-.39-.22-.84-.95s-.88-1.45-1.36-2.16c2.6,4.6,3.76,8.46,3.14,8.67-.75.05-3.11-3.68-5.87-8.21-3.76-6-8.58-11.43-14.64-15.08a30.38,30.38,0,0,0-9.68-4,33.38,33.38,0,0,0-10.46-.63,45,45,0,0,0-4.48.76c-1.49.42-2.93.88-4.37,1.41a42.25,42.25,0,0,1,16-1.3,29.16,29.16,0,0,1,7.63,2.08,34.93,34.93,0,0,1,6.85,4,43.81,43.81,0,0,1,10.74,11.67,123.07,123.07,0,0,1,7.64,14.26c.82,1.66,1.3,3.17,1.11,3.3s-1-1.14-1.81-2.79A135.38,135.38,0,0,0,209.11,342a46,46,0,0,0-9-10.07,35,35,0,0,0-5.48-3.69,28.11,28.11,0,0,0-5.86-2.45,29.47,29.47,0,0,0-12.6-.59,50,50,0,0,0-6.49,1.48c-2.16.64-4.4,1.41-6.57,2.21a138.2,138.2,0,0,0-12.9,5.65c-4.25,2.09-8.45,4.38-12.69,6.72s-8.47,4.76-13,7.14a126.26,126.26,0,0,1-18.17,9.79,134.83,134.83,0,0,1-20,6.82c1.74-.25,3.55-.52,5.33-.86a110.51,110.51,0,0,0,31.66-11c4.84-2.56,9-5.19,13.25-7.73s8.26-5,12.35-7.35,8.19-4.48,12.4-6.35a78.81,78.81,0,0,1,12.74-4.6,29.88,29.88,0,0,1,12.48-.65,24.3,24.3,0,0,1,6,1.92,31,31,0,0,1,2.94,1.56l1.43.92c.47.31.92.66,1.39,1a3.43,3.43,0,0,1,1.24,1.29c0,.17-.57-.13-1.28-.71a33.76,33.76,0,0,0-5.54-3.35,22.91,22.91,0,0,0-5.65-1.89,28.3,28.3,0,0,0-11.81.42,52.92,52.92,0,0,0-6.08,1.82c-2.09.76-4.19,1.59-6.26,2.5-4.15,1.81-8.26,3.89-12.45,6.19-6.94,3.81-13.63,8-20.56,12.22a144.77,144.77,0,0,1-22.78,11.33,122,122,0,0,0,23.17-10.53c6.86-3.94,13.27-7.88,19.69-11.38a127.42,127.42,0,0,1,19.49-8.87c6.46-2.23,12.53-3.18,18.14-1.73a7.14,7.14,0,0,1,2.47,1,1.15,1.15,0,0,1,.62,0c.36.11.71.26,1.08.38a10.91,10.91,0,0,1,1.12.45l1.17.54c.39.19.76.41,1.15.61.78.4,1.5.91,2.27,1.39s1.48,1,2.18,1.64A4.74,4.74,0,0,1,201,336.7C201.14,337,200.74,336.82,200.14,336.31ZM31.22,168.64l-.24-.06.66-.06,1.38.56ZM26.47,178h0l-.83-.27ZM101.8,258.6l3.46-5.63c1.17-1.88,2.27-3.93,3.32-5.93a102.24,102.24,0,0,0,5.48-12.55,86.57,86.57,0,0,0,5.27-27.42,78.85,78.85,0,0,1-1.11,13.78,81.89,81.89,0,0,1-2.63,10.25,88.75,88.75,0,0,1-3.74,9.75c-1.41,3.16-3,6.23-4.7,9.23l-1.31,2.22-1.35,2.1ZM22.7,168.73a12.81,12.81,0,0,1,3.37.46A5.71,5.71,0,0,1,27.5,168,39,39,0,0,1,32,165.69c-.43-.24-.07-.4.07-.55l.47-.4-5.1,2C25.87,167.38,24.29,168.22,22.7,168.73Zm-8.47,8.89-.24,0-.28-.72Zm.5,1.19.26-.09C15.12,179,15,179,14.73,178.81Zm2.38-.86a2,2,0,0,0-.52-.07ZM33,191.83l-2-3.08,1.84,3Z"/><path d="M103.6,382.63l0,.26c-.16,0-.3-.09-.43-.26.64,2.37,3.21,3.24,5.43,3.08a1.1,1.1,0,0,0,1.5-1.6,1.43,1.43,0,0,1-.17-.41,8.55,8.55,0,0,0-1.17-3.5l.21.83a2.74,2.74,0,0,0-.63-.88l-.1.35a2.54,2.54,0,1,0-4.84,1.51Z"/><path d="M103.16,386.71c-.31-.74-.57-1.48-.83-2.23l0-.24-.53.76.05,0a4.55,4.55,0,0,1,2.85.55l.35.1a.78.78,0,0,0,.54-.21.81.81,0,0,0,.06-1.14l-.35-.37c-.65-1.18-2.17-2.39-3.68-1.57-.35.19-.52.64-.75,1a1.12,1.12,0,1,0,1.66,1.49l.17.29-.33,0c.47-.32,1-.07,1.49,0l.59.27.6-1.35-.38-.05c0,.06,0,.16,0,.16a10.17,10.17,0,0,1-2.13-.34l-1-.11a.7.7,0,0,0-.54.76l.11.48,0-.25c.49.79,1.11,1.51,1.58,2.31a.28.28,0,0,0,.38.13A.29.29,0,0,0,103.16,386.71Z"/><path d="M100.6,385a.7.7,0,0,0-.26-.46l-.14,0,.07.37C100.32,385.18,100.48,385.13,100.6,385Z"/><path d="M100.2,384.55l0-.15,0,.15h0Z"/><path d="M125.31,400.68a38.24,38.24,0,0,0,2.89,3.07s.1,0,.16-.06.07-.15,0-.17c-1-1-2-2-2.87-3.08,0,0-.1,0-.16.06S125.28,400.65,125.31,400.68Z"/><path d="M128.09,414a.24.24,0,0,0-.14.18c0,.06,0,.09.1.06a.34.34,0,0,0,.13-.18C128.19,414,128.14,414,128.09,414Z"/><path d="M123.58,419.35a2,2,0,0,0-.74.08s-.07,0-.07-.06a.39.39,0,0,1-.28.2,15.18,15.18,0,0,1-4.83-.83,1.43,1.43,0,0,1-.26.23c-.3.22-.57.24-.7.06l-.07-.17c-.38-.55-.78-1.07-1.15-1.64a.76.76,0,0,1-.54,0,12.47,12.47,0,0,1-2-.08,1.19,1.19,0,0,1-.17.31c-.2.24-.44.34-.56.24l-.19-.13c.13.19.26.39.38.6a.12.12,0,0,1,0,.09,4.41,4.41,0,0,0,.6.44,15.33,15.33,0,0,0,6.66,1.62s.09,0,.07.1a.3.3,0,0,1-.15.16c-2,.44-4.09,1.37-5.85,1.28a30.2,30.2,0,0,1-5.95-.79c-1.46-1.14-3.27-1.6-5.09-2.31-.62-.25-1.21-.51-1.77-.8a2.56,2.56,0,0,1-.26-.14l-.38-.25-.76-.5L98,416c-2-1.37-3.91-2.8-5.85-4.26a3.32,3.32,0,0,1,1.36-6.18l-.34-.29-.42-.6a2.88,2.88,0,0,1-.48-2l.08-.91c.37-1.54.28-3.16.78-4.69l.45-.38v-.21a2.83,2.83,0,0,1,.32-1.71l.45-.52a6.61,6.61,0,0,1,1.88-1.38,2.52,2.52,0,0,1,.61-.61,3.46,3.46,0,0,1,1.24-1.91.48.48,0,0,1,.46-.5.44.44,0,0,1,.26.06h0a3.35,3.35,0,0,0,.07-.5,2.6,2.6,0,0,1-.15-.25l-.53-.71a2.33,2.33,0,0,1-.08-.8c.47-1.21.47-1.21.84-1.6l.15-.07c-.13-.33-.14-.35-.17-.45a1.23,1.23,0,0,1,0-.25c.17-.23.17-.23.19-.34l.12-.18c.33-.15.33-.15.39-.22l.17-.07.34.07-.12.85.23-.14-.13.33.15-.28,0,.28,0-.37c.33.4.33.4.5.52a.68.68,0,0,0,.36.21l.08-.14c.36.43.36.43.69.86a1,1,0,0,1,0,.24.22.22,0,0,1,.27.07l.19.21h.07l0,0,.27,0h.06l1.19.12a2.63,2.63,0,0,1,.28.4l0-.2c0-.13.22-.3.2-.35a17.54,17.54,0,0,0-2.2-3.14.42.42,0,0,1-.15-.57.41.41,0,0,1,.56-.14,8.92,8.92,0,0,1,6.55,4.95c.45.53.91,1.05,1.39,1.56v-.17l.3.5,0,0v-.64l-.13-.29a27.6,27.6,0,0,1-2.71-4,22.42,22.42,0,0,1-1.15-2.3.36.36,0,0,1,0-.52.36.36,0,0,1,.51,0c2.28,1.33,4.44,3.41,5,6a2.18,2.18,0,0,1,.76,1.17v0l0-.51c.21.3.15.69.32,1l.26-.53c1.17,1.36,2.77,2.4,3.55,4.05l.12.15a8.58,8.58,0,0,1,2,.47c-.08-.14-.15-.28-.23-.41a1.42,1.42,0,0,1,1,.27,3.14,3.14,0,0,1,.38,3.38,49.57,49.57,0,0,0,4.53,2.64c.08,0,.07.18,0,.32s-.24.23-.33.19a16.33,16.33,0,0,1-3.68-1.37,15.61,15.61,0,0,0,2.13,2.45l.37.2a.58.58,0,0,1,.27.32,13.14,13.14,0,0,0,3.43,2.25,28.28,28.28,0,0,0,3.52,1.1,12.46,12.46,0,0,1,4.76,1.8c.21.1.18.47-.07.83s-.61.57-.82.48c-3.56-1.06-7.24-1.86-10-4.25l-.86-.77-.1.15a2.39,2.39,0,0,1-.47.44,9.46,9.46,0,0,1,.86,1,6.67,6.67,0,0,1,3.41,1.71,9.06,9.06,0,0,1,1.29,2.47c1,.43,2,.8,3,1.27,0,0,.06.06,0,.14a.22.22,0,0,1-.16.12,14,14,0,0,1-2.56-.33,2.41,2.41,0,0,1-.47.91,2.12,2.12,0,0,1-.81.64l.39.34c.07.07,0,.25-.08.4s-.29.24-.37.17l-1.59-1.34c-.8-.34-1.57-.7-2.32-1.09a3,3,0,0,1-.4.9h0l.32.21a14,14,0,0,1,6.62,3.22s0,.11,0,.19-.13.11-.16.08a10.82,10.82,0,0,0-1.75-1.34h0a.28.28,0,0,1-.13.18c-.06,0-.1,0-.09-.07a.27.27,0,0,1,.13-.18,14.63,14.63,0,0,0-3.87-1.61,16.62,16.62,0,0,1,2.92,2.3l.53,0s.05.08,0,.15a.24.24,0,0,1-.16.12h-.14c.16.18.07.59-.22,1s-.7.55-.88.38a17.64,17.64,0,0,1-1.64-1.06l-.22-.06-.31,0c.69.76,1.34,1.56,2,2.37.07.05,0,.2,0,.34s-.25.2-.32.15a28.2,28.2,0,0,1-5.11-2.13l-2.75.63.17.16c1.54,1.2,4.12.57,5.88,1.39.05,0,0,.1,0,.17s-.13.12-.17.09a16.7,16.7,0,0,0-3-.47,16.31,16.31,0,0,0-2.55-.27c1.26.72,2.91.86,4.28,1.42.07,0,.1.07.07.17a.26.26,0,0,1,.1-.07,2.47,2.47,0,0,1,.79-.08s.07.05,0,.14A.2.2,0,0,1,123.58,419.35ZM105.3,392.57v-.12l.09.29-.15.75Zm-5-.65h0l.08-.42Zm21,8.75a4.54,4.54,0,0,1-1.41-1.86l.5.25A16.75,16.75,0,0,1,121.39,400.67Zm-16.78-11.92a6,6,0,0,1,0,1.59,2.06,2.06,0,0,1,.68.41,20.08,20.08,0,0,1,1.53,1.53c.07-.25.19-.12.27-.09l.25.11c-.49-.59-1-1.2-1.44-1.83A17.64,17.64,0,0,1,104.61,388.75Zm-4.69-2.46v-.11l.33-.2Zm-.55.35.06.1C99.31,386.82,99.32,386.76,99.37,386.64Zm.5,1a1.05,1.05,0,0,0,0-.24Zm-6,8.83,1.41-1.2-1.39,1.12Z"/><path d="M100.43,207.25l.37,0a.8.8,0,0,1-.57.47c3.49-.09,6-3,7.24-5.78a1.39,1.39,0,1,0-1.16-2.45,2.65,2.65,0,0,1-.67,0,13.55,13.55,0,0,0-5.57.28h1.29a5.22,5.22,0,0,0-1.62.53l.41.24a4.29,4.29,0,0,0-4.14,3.6,3,3,0,0,0,3.5,3.07Z"/><path d="M105.62,209.13c-1.12.12-2.21.22-3.34.31l-.31-.11.75.92,0-.07a6.15,6.15,0,0,1,2.18-3.41l.32-.41a.9.9,0,0,0,0-.75,1.07,1.07,0,0,0-1.48-.46l-.7.31c-2,.42-4.4,2-4,4.21.09.5.62.85,1,1.25a1.55,1.55,0,0,0,2.13.36,1.49,1.49,0,0,0,.62-2l.48-.12-.13.42c-.19-.68.39-1.26.7-1.89l.67-.65-1.48-1.2-.27.45.2.11a18.23,18.23,0,0,1-1.54,2.59l-.62,1.24a.8.8,0,0,0,.76.91h.68l-.34,0c1.27-.39,2.51-.92,3.79-1.25a.42.42,0,0,0,.36-.42A.35.35,0,0,0,105.62,209.13Z"/><path d="M102.11,211.79a1,1,0,0,0-.71.19v.19l.51,0C102.27,212.21,102.28,212,102.11,211.79Z"/><path d="M101.39,212.17h-.22l.2.07,0,0Z"/><path d="M186,201.13a12.21,12.21,0,0,0,6.79.46,18,18,0,0,0,7.31-4.11c.16-.15.26-.31.21-.37s-.21,0-.36.15a17.92,17.92,0,0,1-7.22,4.05,11.86,11.86,0,0,1-6.61-.47c-.16,0-.35,0-.39,0S185.78,201.08,186,201.13Z"/><path d="M222.57,170.78c0,.2,0,.22.16,0a1.94,1.94,0,0,0,.22-.64c0-.17,0-.19-.15,0A1.91,1.91,0,0,0,222.57,170.78Z"/><path d="M226.6,174.09c-.3,1.16-.52,2.28-.73,3.29a2,2,0,0,1-.2.52c.12,0,.13.22,0,.64a83.79,83.79,0,0,1-10.84,25.39.86.86,0,0,1,0,.51,8.2,8.2,0,0,1-1.91,3l-.8.78a37.06,37.06,0,0,1-11.41,8.21c-.42.28-.89.56-1.4.85a15.32,15.32,0,0,1-1.72.74,20.87,20.87,0,0,1-3.12,1.23,21.26,21.26,0,0,1-3.34.86,30.68,30.68,0,0,1-6.85.49c.26.13.42.26.4.38-.12.28-1.19.38-2.4.22-.59-.08-1.14-.19-1.71-.29a44.57,44.57,0,0,0,5.14.9l.74.07,1.55,0a10.51,10.51,0,0,0,1.58,0c1.08-.1,2.16-.17,3.23-.37s2.33-.51,3.46-.83,2.16-.79,3.21-1.21,2-1,3-1.49,1.86-1.11,2.7-1.73a38.45,38.45,0,0,0,8.41-8.27,55.91,55.91,0,0,0,5.55-9l1.12-2.28,1-2.29c.32-.77.66-1.52.95-2.29l.85-2.3a1.8,1.8,0,0,1,.32-.65c.11-.09.17,0,.1.19l-.85,3c-.29,1-.63,1.95-.93,2.92-.58,2-1.36,3.88-2.13,5.87a43.94,43.94,0,0,1-7.56,12.37,37.54,37.54,0,0,1-8.16,7c-.79.52-1.65,1-2.5,1.45s-1.8.83-2.72,1.24l-1.4.58c-.46.19-1,.32-1.48.47-1,.29-2,.59-3,.82a40.91,40.91,0,0,1-12,.48l-2.66-.31-2.42-.39c-.85-.13-1.54-.26-2.28-.4l-2.14-.39-2-.53-1.87-.43-.92-.21-.86-.16-1.7-.32a36,36,0,0,0-6.14-.45,39.18,39.18,0,0,0-11.41,1.93,50.45,50.45,0,0,0-8.05,3.4c-2.79,1.7-5.51,3.42-8.26,5.41-1.27,1.25-3.4.89-4.83-.86a4.75,4.75,0,0,1-1-3.64l-.41.24-.76.22a3.12,3.12,0,0,1-2.29-.32l-1-.46c-1.62-1.07-3.49-1.59-5.14-2.75l-.3-.67-.25-.08a3.75,3.75,0,0,1-2-1l-.48-.73a8.63,8.63,0,0,1-1-2.77,3.12,3.12,0,0,1-.51-1,4.27,4.27,0,0,1-1.91-2.18.6.6,0,0,1-.44-.75.85.85,0,0,1,.19-.3h0c-.24-.11-.31-.14-.6-.25l-.38.1-1.13.42a3,3,0,0,1-1.05-.15c-1.37-1-1.38-1-1.73-1.55a1.52,1.52,0,0,1,0-.21c-.48.07-.52.07-.65.08a1.79,1.79,0,0,1-.33-.09c-.24-.28-.24-.28-.38-.35a1.57,1.57,0,0,1-.19-.21c-.05-.46-.05-.46-.12-.55a1.1,1.1,0,0,1,0-.24l.24-.41,1.07.41-.1-.33.38.26-.3-.27.39,0-.49-.08a2.83,2.83,0,0,0,.89-.48,1.16,1.16,0,0,0,.45-.37,1.22,1.22,0,0,1-.15-.16l1.45-.58a2.65,2.65,0,0,1,.3.11.34.34,0,0,1,.22-.32l.37-.15,0-.09,0,0,.17-.33,0-.07h0l.77-1.44a3.32,3.32,0,0,1,.66-.2l-.26,0c-.18,0-.27-.38-.35-.37a23.29,23.29,0,0,0-5.26,1.72.64.64,0,0,1-.83,0,.53.53,0,0,1,.08-.77c1.91-3.6,6.16-5.83,10.31-6.37q1.5-.48,3-1l-.21-.08.84-.12.08,0-.83-.29-.47,0c-2.26.85-4.67,1-7,1.68-1.26.35-2.53.38-3.79.64a.47.47,0,1,1-.39-.83c3.16-2.45,7.58-4.3,11.48-3.81a4,4,0,0,1,2.09-.35h0l-.63-.26c.55-.12,1,.13,1.54.1l-.47-.55c2.68-.68,5.37-1.94,8.13-1.81l.29,0c.44-.39.88-.77,1.36-1.12l.38-.25.1-.06.26-.09.51-.2c.69-.25,1.4-.49,2.15-.71l-3.08.63c1-.42,2.1-.85,3.18-1.23s2.27-.64,3.48-.9a44.45,44.45,0,0,1,5.07-.65,36.29,36.29,0,0,1,5,0,21.67,21.67,0,0,1,7.69,1.75,69.83,69.83,0,0,1,18.5,2.76c5.82,1.62,10.94,3.75,14.84,4.82.38.08.68.29.72.47s-.28.25-.67.16c-2.8-.55-6.31-1.76-10.2-3a87.68,87.68,0,0,0-12.62-3A79.75,79.75,0,0,1,172,198.28c3.3,1.2,6.39,2.52,9.14,3.52.73.24,1.38.4,2.08.61s1.24.37,1.85.63a9.37,9.37,0,0,0,1.1.25l1.06.23,1,.1a5.15,5.15,0,0,0,.94.07,8.88,8.88,0,0,0,1.79-.09l.9-.1.92-.26a12.85,12.85,0,0,0,3.73-1.62l.94-.58.91-.69a21.6,21.6,0,0,0,1.81-1.57,42.58,42.58,0,0,0,5.44-6.66,73.51,73.51,0,0,0,4.51-8.11c1-2.06,1.9-4.21,2.81-6.29.44-1.05.83-2.13,1.25-3.19s.85-2.1,1.22-3.19c.76-2.17,1.6-4.29,2.32-6.51s1.56-4.42,2.3-6.73c.38-1.23,1-2.31,1.26-2.38s.27.88-.1,2.12c-2.74,9.73-5.85,19.25-10.23,27.93a56.44,56.44,0,0,1-7.75,11.75,28.41,28.41,0,0,1-4.82,4.31,16.69,16.69,0,0,1-5.29,2.47,13,13,0,0,1-4.48.43.53.53,0,0,1,0,.17.69.69,0,0,1-.42.55,7,7,0,0,0,1.35.09,7.5,7.5,0,0,0,1.34,0c.45-.05.89-.09,1.35-.11s.92-.22,1.38-.31c5-1.94,9.29-6.43,13.63-12a103.41,103.41,0,0,0,7.91-11.88A164,164,0,0,0,221.42,164a1.29,1.29,0,0,1,.25-.54c.09-.07.1.07,0,.32-.53,2.07-1,4.19-1.7,6.26s-1.26,4.19-2,6.25c.45-.56.85-.86,1.08-.71s.28.75.14,1.58l1.16-2.78c.23-.59.5-1,.63-.95s.07.57-.14,1.13c-.79,1.91-1.55,3.83-2.38,5.71s-1.66,3.75-2.64,5.54a69.06,69.06,0,0,1-7.28,12.61,3.25,3.25,0,0,1,1.46-.67h0l1.32-1.86a124.4,124.4,0,0,0,8.77-19.21c2.46-6.7,4.64-13.59,6.68-20.58.07-.27.18-.48.24-.47s.05.23,0,.48l-1.86,6.3-2,6.25v0c.09-.16.17-.16.15,0a1.67,1.67,0,0,1-.22.65c-.11.18-.17.14-.15,0a163.6,163.6,0,0,1-9,22.27,140.51,140.51,0,0,0,9-20.17l.59-2.36a1.4,1.4,0,0,1,.26-.55c.07-.05.08.13,0,.35s-.11.45-.17.66c.48-1.31,1-2.27,1.34-2.15s.2,1.41-.29,2.8c-.62,1.86-1.23,3.72-1.88,5.57s-1.37,3.67-2.12,5.48l-.45,1.19-.36,1.24c1.33-2.75,2.46-5.58,3.63-8.4s2.17-5.68,3.09-8.57c.15-.5.37-.89.48-.87s.08.45-.07.95a152.56,152.56,0,0,1-4.79,15.49,90.83,90.83,0,0,1-7.07,15,54.89,54.89,0,0,1-5.6,10.23l1.05-1.12c4.38-4.86,6.92-10.14,9.07-15.3s3.67-10.43,5.47-15.91a.92.92,0,0,1,.27-.51c.07,0,.06.2,0,.48-1.71,5.37-3.06,10.4-5.28,15.71a93,93,0,0,1-6.33,12.53,64.59,64.59,0,0,0,6.65-12c.82-2.06,1.72-4.08,2.42-6.16l1.13-3.09c.34-1,.68-2.08,1-3.13a3.72,3.72,0,0,1,.41-.93.41.41,0,0,1,0-.23c.24-1.09.5-2.26.79-3.45a1.25,1.25,0,0,1,.26-.59C226.64,173.68,226.65,173.83,226.6,174.09ZM114.24,208.75l-.15-.06h.41l.84.5Zm-3.34,5.7h0l-.49-.25Zm57.39-16.83a107.51,107.51,0,0,0-15.52-3.25c1.31,0,2.61,0,3.91.19A61.88,61.88,0,0,1,168.29,197.62ZM109,208.07a7.41,7.41,0,0,1,2,.59A3.37,3.37,0,0,1,112,208a23.57,23.57,0,0,1,2.81-1.18c-.26-.19,0-.27,0-.36l.3-.24-3.16.93C111,207.44,110,207.86,109,208.07Zm-5.49,5-.14,0-.11-.48Zm.22.8.16,0C104,214,103.91,214,103.76,213.85Zm1.46-.31a1,1,0,0,0-.31-.09Zm8.67,10.4-1-2.15.88,2.1Z"/></g></g></svg>