<svg xmlns="http://www.w3.org/2000/svg" viewBox="0 0 523.91 111.78"><g id="Layer_2" data-name="Layer 2"><g id="Layer_1-2" data-name="Layer 1"><path d="M7.3,42.83l.59,0a1.28,1.28,0,0,1-.86.8,10.52,10.52,0,0,0,6.84-3.4,16.18,16.18,0,0,0,3.92-6.41A2.47,2.47,0,0,0,19,30.67,2.39,2.39,0,0,0,15.67,30a3.86,3.86,0,0,1-1,.14,22.13,22.13,0,0,0-8.7.8l2-.07a7.19,7.19,0,0,0-2.48.94l.66.35C2.89,32.55.05,35.34,0,38.3s2.63,5,5.84,4.65Z"/><path d="M15.68,45.41c-1.73.31-3.47.55-5.24.79l-.51-.15,1.28,1.41-.05-.11c.13-2.09,1.61-4,3.09-5.68l.47-.66a1.45,1.45,0,0,0,0-1.19,1.77,1.77,0,0,0-2.41-.66c-.36.18-.71.39-1.06.58-3,.87-6.74,3.62-5.93,7,.2.79,1.06,1.32,1.69,1.93a2.51,2.51,0,0,0,3.44.44,2.38,2.38,0,0,0,.82-3.29l.74-.24c-.05.23-.11.46-.17.7-.36-1.1.52-2.07.93-3.11l1-1.11-2.44-1.8-.37.76.32.15a26.6,26.6,0,0,1-2.18,4.29l-.9,2a1.3,1.3,0,0,0,1.3,1.39l1.09,0-.55,0c2-.7,3.92-1.67,5.9-2.31a.66.66,0,0,0,.5-.73A.54.54,0,0,0,15.68,45.41Z"/><path d="M10.37,50a1.58,1.58,0,0,0-1.13.35v.3h.82C10.65,50.62,10.65,50.27,10.37,50Z"/><path d="M9.24,50.62H8.89l.32.11s0,0,0,0Z"/><path d="M161.16.78c1.13.11,2.26.18,3.37.32l3.35.43,6.69.86,6.65,1.1,3.31.55,3.29.67,6.57,1.34,6.51,1.58,3.25.78c1.08.28,2.14.6,3.22.89l6.41,1.81c.58.15,1.08.22,1.13.11s-.35-.35-.89-.49L207.6,8.91,204.38,8l-3.24-.79-6.51-1.59-6.56-1.35-3.29-.68L181.47,3l-6.64-1.11c-2.23-.32-4.46-.58-6.69-.87s-4.47-.6-6.73-.76a1.87,1.87,0,0,0-1.2.15C160.18.59,160.6.73,161.16.78Z"/><path d="M280.86,50.91c-.39-.13-.43,0-.1.23a4.74,4.74,0,0,0,1.21.68c.33.11.38,0,.1-.23A4.47,4.47,0,0,0,280.86,50.91Z"/><path d="M273.87,56.12c-1.06-.47-2.08-.94-3.08-1.35s-2-.75-2.93-1.06a4.78,4.78,0,0,1-1-.48c0,.21-.42.15-1.19-.15A321.52,321.52,0,0,0,217.29,38a1.6,1.6,0,0,1-.82.26,17,17,0,0,1-6-.76L208.76,37c-1.78-.5-3.59-.88-5.38-1.33s-3.58-.9-5.39-1.25l-5.42-1.09-2.7-.55-2.72-.46A40.76,40.76,0,0,1,182,32.1c-3.19,0-6.39.11-9.58.14l-9.6.45c.39.17.62.36.61.56s-.49.42-1.09.56a10.39,10.39,0,0,1-2.26.25l-2.6,0c2.48.11,5,.13,7.43.4a9.07,9.07,0,0,1,1,.11c2.73.12,5.49.12,8.3.34A288,288,0,0,1,244.93,47a3.75,3.75,0,0,1,1.22.54c.18.17.09.27-.33.15-14.65-3.64-27.75-4.7-44-6.31a221.13,221.13,0,0,0-57.21,1.86A147.75,147.75,0,0,0,116.29,49,166.25,166.25,0,0,0,89.72,59.7c-1.5.67-2.91,1.52-4.35,2.26l-4.28,2.28L77,66.69c-1.36.81-2.75,1.56-4,2.46l-1,.65-.49.32-.18.13-.63.47-1.27.93c-.84.61-1.71,1.17-2.51,1.83-1.63,1.26-3.26,2.48-4.92,3.67s-3.19,2.52-4.81,3.76a5,5,0,0,1-4,1.47,6.57,6.57,0,0,1-4.22-2.21A7.44,7.44,0,0,1,47,74.38l-.65.46-1.25.43a5.16,5.16,0,0,1-3.8-.3l-1.65-.68c-2.72-1.59-5.74-2.19-8.48-4l-.55-1-.4-.11A6,6,0,0,1,27,67.73l-.83-1.15a13.48,13.48,0,0,1-1.88-4.36,4.72,4.72,0,0,1-.9-1.5,6.82,6.82,0,0,1-3.23-3.36.94.94,0,0,1-.77-1.16,1,1,0,0,1,.27-.49h0a7.83,7.83,0,0,0-1-.36c-.37.13-.6.19-.6.19-.93.42-.93.42-1.76.76a5,5,0,0,1-1.71-.17c-2.28-1.44-2.29-1.43-2.89-2.35a2.05,2.05,0,0,1-.07-.34l-1,.17a3,3,0,0,1-.53-.13c-.41-.43-.41-.43-.64-.52a2.25,2.25,0,0,1-.31-.32c-.13-.73-.12-.73-.24-.88a2.1,2.1,0,0,1,0-.38l.36-.66L11,51.3l-.17-.53.62.4-.51-.41h.63l-.79-.09a4.81,4.81,0,0,0,1.4-.82,1.94,1.94,0,0,0,.68-.63,1.89,1.89,0,0,1-.25-.24c1.13-.56,1.13-.56,2.24-1.07l.48.16a.55.55,0,0,1,.32-.52l.56-.29a1.42,1.42,0,0,0,.05-.16l0,0,.24-.56,0-.12h0c.16-.38.39-1,1.08-2.35a6.26,6.26,0,0,1,1-.35l-.42-.06c-.28-.05-.46-.59-.58-.58-.72.14-1.43.32-2.13.53s-1.36.51-2,.8c-1.34.58-2.66,1.23-4,1.85a1,1,0,0,1-1.31.09.82.82,0,0,1,.06-1.23c2.7-6,9.14-9.76,15.48-11,1.51-.58,3-1.19,4.47-1.81l-.34-.11,1.28-.28.12-.05-1.33-.36c-.24,0-.47.05-.71.09a29.17,29.17,0,0,1-5.29,1.71c-1.8.47-3.61,1-5.41,1.54s-3.91.8-5.9,1.27a.85.85,0,0,1-1.14-.24.8.8,0,0,1,.43-1A36.12,36.12,0,0,1,18,29.55a20.91,20.91,0,0,1,9.17-1.75,5.66,5.66,0,0,1,3.13-.8h0l-1-.36c.82-.26,1.58.14,2.39,0-.27-.27-.56-.55-.83-.83,2-.66,3.93-1.57,5.88-2.37a30.57,30.57,0,0,1,3-1.05,13.65,13.65,0,0,1,3.06-.48,3.34,3.34,0,0,1,.43-.1,23.49,23.49,0,0,1,1.76-2l.49-.46.15-.11L46,19l.87-.49a40.58,40.58,0,0,1,3.73-1.88c-.93.3-1.83.66-2.73,1l-2.65,1s.17-.12.27-.18l.33-.2.68-.4,1.36-.8c.91-.54,1.85-1,2.81-1.48,1.91-.92,3.89-1.79,6-2.61C68.05,8.67,81.57,6.5,88.32,7.67a245.25,245.25,0,0,1,33.55-6.19A270.74,270.74,0,0,1,155.77.06a4.19,4.19,0,0,1,2.41.56c.11.27-.66.48-1.82.44a264.89,264.89,0,0,0-48.55,4.62,288.56,288.56,0,0,1,41.22-2c1.77,0,3.55-.07,5.34,0s3.5.22,5.24.42c17.69,1,34.15,4,51.53,8l2.77.64,2.7.71,5.31,1.42c1.76.45,3.47,1,5.18,1.51L232.22,18c3.4,1.07,6.75,2.28,10.17,3.44s6.81,2.57,10.34,3.93a280.28,280.28,0,0,1,27.92,13.11,245.82,245.82,0,0,1,25.84,16.33c2.25,1.62,4.13,3.43,4.13,4s-1.84-.29-4.09-1.88a311.39,311.39,0,0,0-27.75-16.69,317.47,317.47,0,0,0-29.49-13.56,298.84,298.84,0,0,0-31.18-10.52,317.34,317.34,0,0,0-33-7.39c-2.43-.44-4.87-.72-7.28-1.09l-3.62-.52c-1.21-.15-2.42-.26-3.63-.39a.46.46,0,0,1,.1.28c0,.35-.51.64-1.3.85l4.1.45c1.36.19,2.72.42,4.08.63l4.09.66,2,.34,2,.42a189.56,189.56,0,0,1,45.67,10.7A234.45,234.45,0,0,1,260,34.55a283,283,0,0,1,34.41,18.3,3.34,3.34,0,0,1,1,.79c.11.18-.18.1-.63-.16l-6-3.27-3-1.65L282.73,47l-6.13-3.16-6.27-3c1.15,1,1.72,1.75,1.41,2.09s-1.5.21-3.15-.33l5.52,3c1.13.61,1.94,1.26,1.79,1.45s-1.12-.14-2.2-.71c-3.75-2-7.47-4-11.31-5.84-1.91-.91-3.79-1.9-5.73-2.76l-5.8-2.61A297.06,297.06,0,0,0,222,25.2a7.06,7.06,0,0,1,2.44,2.12h0l4.49,1.38c27.69,7.64,54.5,21.06,78.43,38.55.47.34.82.67.77.76s-.45-.11-.88-.42C303.58,65,300,62.38,296.2,60c-1.88-1.2-3.71-2.48-5.63-3.61l-5.73-3.44,0,0c.28.24.28.37-.1.23a5.4,5.4,0,0,1-1.19-.72c-.32-.28-.23-.35.09-.24a245.16,245.16,0,0,0-44.88-20.11,257.22,257.22,0,0,1,40.77,19.23c1.48.71,3,1.35,4.47,2.12a3.49,3.49,0,0,1,1,.75c.07.14-.27.06-.68-.16l-1.22-.63c2.41,1.51,4.06,3,3.75,3.43s-2.7-.52-5.21-2c-6.9-3.75-13.81-7.43-20.92-10.69l-2.34-1L256,42.32A290.76,290.76,0,0,1,287.69,59.9c.89.52,1.57,1.1,1.49,1.26s-.87-.12-1.77-.64a295.22,295.22,0,0,0-28.58-14,286.65,286.65,0,0,0-30-11c-3.48-.62-7-1.09-10.47-1.63-3.53-.37-7-.81-10.6-1.1.87.19,1.74.42,2.61.64,11.11,2.62,21.43,5.17,31.57,8.25a197.57,197.57,0,0,1,30.21,11.7,2.13,2.13,0,0,1,.9.66c0,.12-.38,0-.88-.25a223.32,223.32,0,0,0-29.7-11.39l-6.34-1.94-6.28-1.65-3.09-.79-3.09-.66c-2.06-.43-4.1-.85-6.13-1.23l6.08,1.61,3,.77,3,.87,6,1.7L241.57,43l3,1,2.93,1,5.87,2.11c1.94.76,3.87,1.56,5.81,2.35l2.92,1.2c1,.41,1.91.86,2.88,1.3a7.68,7.68,0,0,1,1.7.95.76.76,0,0,1,.43.06,64.65,64.65,0,0,1,6.33,2.53,3.18,3.18,0,0,1,1.06.68C274.62,56.36,274.33,56.31,273.87,56.12Zm-244.61-12L29,44h.65l1.39.73Zm-4.67,9.44h0l-.82-.37Zm96.62-48.2-7.27.82c-1.21.11-2.42.29-3.62.46l-3.62.5c-4.84.55-9.62,1.44-14.5,2.06L99.13,7.5l2.74-.44,2.76-.33,5.52-.61c1.83-.23,3.68-.34,5.53-.45ZM21,43.47a12.59,12.59,0,0,1,3.28.8,5,5,0,0,1,1.34-1.16A27,27,0,0,1,29.87,41c-.44-.3-.09-.44,0-.59l.43-.4c-1.58.6-3.25,1.09-4.86,1.75A40.91,40.91,0,0,1,21,43.47Zm-8.22,8.41-.23-.05-.22-.76Zm.42,1.27.25-.07C13.54,53.34,13.41,53.31,13.18,53.15Zm2.3-.61a1.54,1.54,0,0,0-.49-.12Zm14.73,16L28.5,65.15l1.57,3.29Z"/><path d="M220.59,72.21l.59,0c-.08.35-.41.6-.86.8a10.61,10.61,0,0,0,6.84-3.4,16.22,16.22,0,0,0,3.92-6.42,2.46,2.46,0,0,0,1.21-3.17,2.39,2.39,0,0,0-3.33-.65,4.31,4.31,0,0,1-1,.14,22.12,22.12,0,0,0-8.7.79l2-.06a7,7,0,0,0-2.48.94l.66.34c-3.28.38-6.11,3.17-6.16,6.13s2.63,5,5.84,4.65Z"/><path d="M229,74.79c-1.73.32-3.47.56-5.24.79l-.51-.14,1.28,1.41-.05-.12c.13-2.08,1.61-4,3.09-5.68l.47-.65a1.45,1.45,0,0,0,0-1.19,1.77,1.77,0,0,0-2.42-.66c-.36.18-.7.38-1,.58-3,.87-6.74,3.62-5.93,7.05.2.78,1.06,1.31,1.68,1.93a2.52,2.52,0,0,0,3.45.43,2.38,2.38,0,0,0,.82-3.29l.74-.23c-.05.23-.11.46-.17.69-.36-1.09.52-2.06.93-3.1l1-1.11-2.44-1.81-.37.77c.12.06.32.14.32.15a26.6,26.6,0,0,1-2.18,4.29l-.9,2a1.3,1.3,0,0,0,1.3,1.4l1.09,0-.55,0c2-.7,3.92-1.67,5.89-2.3a.67.67,0,0,0,.51-.73A.55.55,0,0,0,229,74.79Z"/><path d="M223.66,79.35a1.62,1.62,0,0,0-1.13.35V80h.82C223.94,80,223.94,79.65,223.66,79.35Z"/><path d="M222.53,80h-.35l.32.11s0,0,0,0Z"/><path d="M374.45,30.17c1.13.11,2.25.18,3.37.32l3.35.42,6.69.86,6.65,1.11,3.31.55,3.29.67,6.57,1.34L414.19,37l3.25.79c1.08.27,2.14.6,3.22.89l6.41,1.8c.58.16,1.07.23,1.13.11s-.35-.35-.89-.48l-6.42-1.82-3.22-.9-3.25-.8L407.92,35l-6.56-1.35L398.07,33l-3.31-.56-6.64-1.11c-2.23-.32-4.46-.58-6.69-.88s-4.47-.59-6.73-.76a2,2,0,0,0-1.2.15C373.47,30,373.89,30.12,374.45,30.17Z"/><path d="M494.15,80.29c-.39-.13-.43,0-.1.24a4.74,4.74,0,0,0,1.21.68c.33.11.38,0,.1-.23A4.67,4.67,0,0,0,494.15,80.29Z"/><path d="M487.15,85.51c-1-.47-2.07-.94-3.07-1.35s-2-.75-2.93-1.06a4.78,4.78,0,0,1-1-.48c0,.21-.42.15-1.19-.15A320.37,320.37,0,0,0,430.58,67.4a1.82,1.82,0,0,1-.82.26,17,17,0,0,1-6-.76l-1.75-.55c-1.78-.5-3.59-.88-5.38-1.33s-3.58-.91-5.39-1.25l-5.42-1.1-2.7-.55-2.72-.45a39.09,39.09,0,0,1-5.16-.19c-3.19,0-6.39.12-9.58.14l-9.61.46c.4.16.63.36.62.55s-.49.42-1.09.57a9.87,9.87,0,0,1-2.27.24l-2.59.06c2.48.11,5,.13,7.43.4a9.07,9.07,0,0,1,1,.11c2.73.12,5.49.12,8.3.34A288.35,288.35,0,0,1,458.21,76.4a3.93,3.93,0,0,1,1.23.54c.18.17.09.27-.33.16-14.65-3.64-27.75-4.7-44.05-6.31a221.13,221.13,0,0,0-57.21,1.86,147.75,147.75,0,0,0-28.27,5.77A166.19,166.19,0,0,0,303,89.08c-1.51.67-2.91,1.52-4.36,2.27l-4.27,2.28-4.13,2.45c-1.36.81-2.75,1.56-4.05,2.46l-1,.65-.49.32-.18.13-.63.47-1.27.92c-.84.62-1.71,1.18-2.51,1.83q-2.44,1.9-4.92,3.67c-1.64,1.21-3.19,2.53-4.81,3.77a5.06,5.06,0,0,1-4,1.46,6.48,6.48,0,0,1-4.22-2.21,7.43,7.43,0,0,1-1.92-5.79l-.65.46-1.25.43a5.12,5.12,0,0,1-3.8-.3l-1.65-.67c-2.72-1.59-5.74-2.2-8.48-4l-.55-1.06-.41-.1a6,6,0,0,1-3.2-1.46L239.46,96a13.57,13.57,0,0,1-1.88-4.36,4.66,4.66,0,0,1-.9-1.51,6.8,6.8,0,0,1-3.23-3.35,1,1,0,0,1-.77-1.16,1.06,1.06,0,0,1,.27-.5h0a9.92,9.92,0,0,0-1-.35c-.37.13-.6.19-.6.19-.93.42-.93.42-1.76.76a5.15,5.15,0,0,1-1.71-.18c-2.28-1.43-2.29-1.43-2.89-2.34a2.29,2.29,0,0,1-.07-.34c-.77.13-.83.14-1,.16a2.58,2.58,0,0,1-.53-.12c-.41-.43-.41-.43-.64-.52a3.09,3.09,0,0,1-.31-.32c-.13-.74-.13-.74-.24-.88a2.1,2.1,0,0,1,0-.38l.36-.66,1.74.58-.17-.53.62.4-.51-.41h.63l-.79-.1a4.64,4.64,0,0,0,1.4-.81,1.93,1.93,0,0,0,.68-.64,1.89,1.89,0,0,1-.25-.24c1.13-.55,1.13-.55,2.24-1.06a3,3,0,0,1,.48.16.56.56,0,0,1,.32-.53l.56-.29a.88.88,0,0,0,.05-.15l0,0,.24-.55,0-.12h0c.16-.39.39-1,1.08-2.36a9,9,0,0,1,1-.35l-.42,0c-.28-.06-.46-.6-.58-.58-.72.14-1.43.32-2.13.53s-1.36.51-2,.79c-1.34.58-2.66,1.23-4,1.85a1,1,0,0,1-1.32.1.82.82,0,0,1,.07-1.23c2.7-6,9.14-9.76,15.48-11,1.51-.58,3-1.19,4.47-1.81l-.34-.12,1.28-.28.12,0-1.33-.35c-.24,0-.48,0-.71.09a29.17,29.17,0,0,1-5.29,1.71c-1.8.47-3.61.94-5.41,1.54s-3.91.8-5.9,1.26a.84.84,0,0,1-1.14-.23.8.8,0,0,1,.43-1,36.12,36.12,0,0,1,8.15-5.23,20.91,20.91,0,0,1,9.17-1.75,5.66,5.66,0,0,1,3.13-.8l.05,0-1-.35c.82-.26,1.58.14,2.39,0l-.83-.83c2-.66,3.93-1.58,5.88-2.37a28.1,28.1,0,0,1,3-1.05,14.26,14.26,0,0,1,3.06-.49,3.29,3.29,0,0,1,.43-.09,23.62,23.62,0,0,1,1.76-2l.49-.45.15-.12.43-.24.87-.49A38.2,38.2,0,0,1,263.91,46c-.93.3-1.83.66-2.73,1l-2.66,1a1.71,1.71,0,0,1,.28-.18l.33-.2.68-.41,1.36-.79c.91-.54,1.85-1,2.81-1.48,1.91-.92,3.89-1.8,6-2.61,11.38-4.37,24.9-6.54,31.65-5.37a243.74,243.74,0,0,1,33.55-6.19,268.86,268.86,0,0,1,33.9-1.43,4.25,4.25,0,0,1,2.41.57c.11.26-.66.47-1.82.44a264.89,264.89,0,0,0-48.55,4.62,287.11,287.11,0,0,1,41.22-2c1.77,0,3.55-.07,5.33,0s3.51.23,5.25.43c17.69,1,34.15,4,51.53,8l2.76.63,2.71.72,5.31,1.42c1.76.44,3.47,1,5.18,1.51l5.12,1.56c3.4,1.08,6.74,2.29,10.17,3.44s6.81,2.58,10.34,3.93a284.82,284.82,0,0,1,27.92,13.11,245.93,245.93,0,0,1,25.84,16.34c2.25,1.62,4.12,3.43,4.13,4s-1.84-.29-4.1-1.89A309.7,309.7,0,0,0,492.07,69.6,317.55,317.55,0,0,0,462.58,56a300.53,300.53,0,0,0-31.19-10.51,311.52,311.52,0,0,0-32.95-7.39c-2.43-.44-4.87-.73-7.28-1.09l-3.62-.52c-1.21-.16-2.42-.26-3.63-.4a.48.48,0,0,1,.1.28c0,.36-.51.65-1.3.86l4.1.45c1.36.19,2.72.42,4.08.63L395,39l2,.33,2,.42a190.28,190.28,0,0,1,45.67,10.7,235.42,235.42,0,0,1,28.53,13.49,281.6,281.6,0,0,1,34.41,18.3,3.19,3.19,0,0,1,1,.79c.1.18-.18.1-.63-.17l-5.95-3.27-3-1.64L496,76.37l-6.13-3.16-6.27-3c1.15,1,1.72,1.76,1.41,2.1s-1.5.2-3.15-.33l5.52,3c1.13.6,1.93,1.26,1.79,1.45s-1.12-.14-2.2-.71c-3.75-2-7.47-4-11.31-5.84-1.91-.92-3.79-1.9-5.73-2.76l-5.8-2.61a294.41,294.41,0,0,0-28.89-9.88,7,7,0,0,1,2.44,2.12h0l4.49,1.38c27.69,7.64,54.49,21.06,78.43,38.55.47.33.82.67.77.75s-.45-.11-.88-.41c-3.64-2.59-7.26-5.22-11-7.62-1.88-1.2-3.71-2.48-5.63-3.61l-5.73-3.44,0,0c.28.24.28.38-.1.24a5.81,5.81,0,0,1-1.19-.72c-.32-.28-.23-.36.09-.24a244.48,244.48,0,0,0-44.88-20.11,257.22,257.22,0,0,1,40.77,19.23c1.48.7,3,1.35,4.47,2.12a3.46,3.46,0,0,1,1,.75c.07.14-.27.06-.68-.16l-1.22-.64c2.41,1.51,4.06,3,3.75,3.43s-2.7-.51-5.21-2C488,80.47,481.13,76.79,474,73.53l-2.34-1-2.42-.83A291.62,291.62,0,0,1,501,89.28c.89.53,1.57,1.1,1.49,1.27s-.87-.12-1.77-.64a295.3,295.3,0,0,0-28.58-14,288.87,288.87,0,0,0-30-11c-3.48-.62-7-1.1-10.47-1.63-3.53-.37-7-.81-10.6-1.1.87.19,1.74.42,2.61.64,11.11,2.61,21.43,5.17,31.57,8.25a198,198,0,0,1,30.21,11.7c.5.24.88.54.89.66s-.37,0-.87-.25a222,222,0,0,0-29.7-11.39l-6.34-1.94-6.28-1.65-3.09-.79L437,66.78c-2.06-.43-4.1-.85-6.13-1.23l6.08,1.6,3,.78,3,.86,6,1.71,5.92,1.89,3,.94,2.93,1,5.87,2.12c1.94.76,3.87,1.55,5.81,2.34l2.92,1.2c1,.41,1.91.87,2.87,1.3a7.94,7.94,0,0,1,1.71,1,.76.76,0,0,1,.43.06,67.09,67.09,0,0,1,6.33,2.52,3.18,3.18,0,0,1,1.06.69C487.91,85.74,487.62,85.7,487.15,85.51Zm-244.6-12-.24-.08H243l1.39.73Zm-4.67,9.44h0l-.81-.37ZM334.5,34.72l-7.27.82c-1.21.11-2.42.28-3.62.46l-3.62.49c-4.84.55-9.63,1.45-14.5,2.07l6.93-1.68,2.74-.44,2.76-.32,5.52-.62c1.83-.23,3.68-.34,5.53-.45ZM234.27,72.86a12.19,12.19,0,0,1,3.28.79,5.13,5.13,0,0,1,1.34-1.15,27,27,0,0,1,4.27-2.13c-.44-.3-.09-.45,0-.59l.43-.41c-1.58.61-3.25,1.1-4.86,1.76A40.91,40.91,0,0,1,234.27,72.86Zm-8.22,8.41-.23,0-.22-.76Zm.41,1.26.26-.06C226.83,82.73,226.7,82.7,226.46,82.53Zm2.31-.61a1.87,1.87,0,0,0-.49-.12Zm14.73,16-1.71-3.36,1.57,3.29Z"/></g></g></svg>