<svg xmlns="http://www.w3.org/2000/svg" viewBox="0 0 409.12 273.87"><g id="Layer_2" data-name="Layer 2"><g id="Layer_1-2" data-name="Layer 1"><path d="M7.3,197.25l.59,0c-.08.35-.4.6-.86.8a10.61,10.61,0,0,0,6.84-3.4,16.22,16.22,0,0,0,3.92-6.42A2.46,2.46,0,0,0,19,185.1a2.39,2.39,0,0,0-3.33-.66,3.89,3.89,0,0,1-1,.15,22.12,22.12,0,0,0-8.7.79l2-.06a6.81,6.81,0,0,0-2.48.94l.66.34C2.89,187,.05,189.77,0,192.73s2.63,5,5.84,4.65Z"/><path d="M15.68,199.83c-1.73.31-3.47.56-5.24.79l-.51-.14,1.28,1.4-.05-.11c.13-2.08,1.61-4,3.09-5.68l.47-.65a1.47,1.47,0,0,0,0-1.2,1.76,1.76,0,0,0-2.41-.65c-.36.18-.71.38-1.06.57-3,.88-6.74,3.63-5.93,7.05.2.79,1.06,1.32,1.69,1.94a2.51,2.51,0,0,0,3.44.43,2.38,2.38,0,0,0,.82-3.29l.74-.23c-.05.23-.11.46-.17.69-.36-1.09.52-2.06.93-3.1l1-1.11-2.44-1.81-.37.76c.12.07.32.14.32.16a26.6,26.6,0,0,1-2.18,4.29l-.9,2a1.31,1.31,0,0,0,1.3,1.4l1.09,0-.55,0c2-.7,3.92-1.67,5.9-2.31a.65.65,0,0,0,.5-.73A.55.55,0,0,0,15.68,199.83Z"/><path d="M10.37,204.39a1.62,1.62,0,0,0-1.13.35v.3h.82C10.65,205.05,10.65,204.69,10.37,204.39Z"/><path d="M9.24,205H8.89l.32.1,0,0Z"/><path d="M161.16,155.21c1.13.11,2.26.18,3.37.31l3.35.43,6.69.86,6.65,1.11,3.31.54,3.29.68,6.57,1.34,6.51,1.57,3.25.79c1.08.27,2.14.59,3.22.89l6.41,1.8c.58.16,1.08.22,1.13.11s-.35-.35-.89-.48l-6.42-1.82-3.22-.9-3.24-.8-6.51-1.58-6.56-1.36-3.29-.67-3.31-.56-6.64-1.11c-2.23-.32-4.46-.58-6.69-.88s-4.47-.59-6.73-.76a2,2,0,0,0-1.2.15C160.18,155,160.6,155.16,161.16,155.21Z"/><path d="M280.86,205.33c-.39-.13-.43,0-.1.24a4.74,4.74,0,0,0,1.21.68c.33.11.38,0,.1-.24A4.75,4.75,0,0,0,280.86,205.33Z"/><path d="M273.87,210.55c-1.06-.48-2.08-1-3.08-1.36s-2-.75-2.93-1.05a4.78,4.78,0,0,1-1-.48c0,.2-.42.15-1.19-.16a321.49,321.49,0,0,0-48.42-15.06,1.82,1.82,0,0,1-.82.26,16.8,16.8,0,0,1-6-.77l-1.75-.54c-1.78-.5-3.59-.89-5.38-1.33s-3.58-.91-5.39-1.26l-5.42-1.09-2.7-.55-2.72-.45a40.89,40.89,0,0,1-5.16-.19c-3.19,0-6.39.12-9.58.14l-9.6.46c.39.16.62.35.61.55s-.48.42-1.09.56a9.28,9.28,0,0,1-2.26.25l-2.6.06c2.48.1,5,.13,7.43.39a7.06,7.06,0,0,1,1,.12c2.73.12,5.49.12,8.3.34a288,288,0,0,1,70.74,12.05,4,4,0,0,1,1.22.54c.18.17.09.27-.33.16-14.65-3.64-27.75-4.7-44-6.31a221.58,221.58,0,0,0-57.21,1.85,147.76,147.76,0,0,0-28.27,5.78,166.19,166.19,0,0,0-26.57,10.66c-1.5.67-2.91,1.52-4.35,2.27l-4.28,2.28L77,221.12c-1.37.81-2.76,1.56-4.06,2.46l-1,.64-.49.33-.18.12-.63.48-1.27.92c-.84.62-1.71,1.18-2.51,1.83-1.63,1.27-3.26,2.48-4.92,3.67s-3.19,2.53-4.81,3.77a5.06,5.06,0,0,1-4,1.46,6.48,6.48,0,0,1-4.22-2.21A7.43,7.43,0,0,1,47,228.8l-.65.46-1.25.43a5.12,5.12,0,0,1-3.8-.3l-1.65-.67c-2.72-1.59-5.74-2.2-8.48-3.95l-.55-1.06-.4-.11A6,6,0,0,1,27,222.15L26.17,221a13.57,13.57,0,0,1-1.88-4.36,4.66,4.66,0,0,1-.9-1.51,6.8,6.8,0,0,1-3.23-3.35,1,1,0,0,1-.77-1.16,1.06,1.06,0,0,1,.27-.5h0a7.88,7.88,0,0,0-1-.35c-.37.13-.6.19-.6.19-.93.42-.93.42-1.76.76a5.15,5.15,0,0,1-1.71-.18c-2.28-1.43-2.29-1.43-2.89-2.35a1.94,1.94,0,0,1-.07-.33c-.77.13-.83.14-1,.16a2.58,2.58,0,0,1-.53-.12c-.41-.44-.41-.44-.64-.53a2.25,2.25,0,0,1-.31-.32c-.13-.73-.12-.73-.24-.88a2,2,0,0,1,0-.37l.36-.67,1.74.59-.17-.53.62.4-.51-.42h.63l-.79-.1a4.64,4.64,0,0,0,1.4-.81,1.93,1.93,0,0,0,.68-.64,1.89,1.89,0,0,1-.25-.24c1.13-.55,1.13-.55,2.24-1.06a3,3,0,0,1,.48.16.55.55,0,0,1,.32-.53l.56-.29a.88.88,0,0,0,.05-.15l0,0c.1-.22.16-.38.24-.55l0-.13h0c.16-.39.39-.95,1.08-2.36a7.37,7.37,0,0,1,1-.35l-.42-.05c-.28-.06-.46-.6-.58-.58a17.44,17.44,0,0,0-2.13.53c-.68.23-1.36.5-2,.79-1.34.58-2.66,1.23-4,1.85a1,1,0,0,1-1.31.09.82.82,0,0,1,.06-1.23c2.7-6,9.14-9.75,15.48-11,1.51-.57,3-1.18,4.47-1.8l-.34-.12,1.28-.28.12,0-1.33-.36-.71.09a28.44,28.44,0,0,1-5.29,1.72c-1.8.47-3.61.94-5.41,1.54s-3.91.8-5.9,1.26a.85.85,0,0,1-1.14-.24.79.79,0,0,1,.43-1A35.77,35.77,0,0,1,18,184a20.91,20.91,0,0,1,9.17-1.75,5.6,5.6,0,0,1,3.13-.8l0,0-1-.35c.82-.27,1.58.14,2.39,0l-.83-.83c2-.66,3.93-1.58,5.88-2.37a30.66,30.66,0,0,1,3-1.06,14.9,14.9,0,0,1,3.06-.48,3.29,3.29,0,0,1,.43-.09,22.15,22.15,0,0,1,1.76-2l.49-.45.15-.12.43-.24.87-.5a38.17,38.17,0,0,1,3.73-1.87c-.93.3-1.83.66-2.73,1l-2.65,1a1.92,1.92,0,0,1,.27-.17l.33-.2.68-.41,1.36-.79a30.1,30.1,0,0,1,2.81-1.48c1.91-.92,3.89-1.8,6-2.62,11.38-4.36,24.9-6.53,31.65-5.37a245.22,245.22,0,0,1,33.55-6.18,268.86,268.86,0,0,1,33.9-1.43,4.27,4.27,0,0,1,2.41.56c.11.27-.66.48-1.82.45a264.88,264.88,0,0,0-48.55,4.61,288.56,288.56,0,0,1,41.22-2c1.77,0,3.55-.07,5.34,0s3.5.22,5.24.43c17.69,1,34.15,4,51.53,8l2.77.63,2.7.72,5.31,1.42c1.76.44,3.47,1,5.18,1.51l5.12,1.56c3.4,1.07,6.75,2.29,10.17,3.44s6.81,2.57,10.34,3.93a282.53,282.53,0,0,1,27.92,13.11,245.93,245.93,0,0,1,25.84,16.34c2.25,1.62,4.13,3.42,4.13,4s-1.84-.29-4.09-1.89a308.93,308.93,0,0,0-27.75-16.68,317.55,317.55,0,0,0-29.49-13.57,298.8,298.8,0,0,0-31.18-10.51,312.27,312.27,0,0,0-33-7.39c-2.43-.45-4.87-.73-7.28-1.1l-3.62-.52c-1.21-.15-2.42-.26-3.63-.39a.48.48,0,0,1,.1.28c0,.36-.51.65-1.3.85l4.1.46c1.36.19,2.72.42,4.08.63l4.09.66,2,.33,2,.42a190.5,190.5,0,0,1,45.67,10.7A234.47,234.47,0,0,1,260,189a281.6,281.6,0,0,1,34.41,18.3,3.19,3.19,0,0,1,1,.79c.11.18-.18.1-.63-.17l-6-3.27-3-1.65-3.06-1.57-6.13-3.16-6.27-3c1.15,1,1.72,1.75,1.41,2.1s-1.5.2-3.15-.34l5.52,3c1.13.61,1.94,1.27,1.79,1.45s-1.12-.14-2.2-.7c-3.75-2-7.47-4-11.31-5.84-1.91-.92-3.79-1.9-5.73-2.77l-5.8-2.61A297,297,0,0,0,222,179.63a7.06,7.06,0,0,1,2.44,2.11h0l4.49,1.39c27.69,7.64,54.5,21.05,78.43,38.55.47.33.82.67.78.75s-.46-.11-.89-.41c-3.64-2.59-7.25-5.23-11-7.62-1.88-1.2-3.71-2.48-5.63-3.61l-5.73-3.44,0,0c.28.24.28.37-.1.23a5,5,0,0,1-1.19-.72c-.32-.27-.23-.35.09-.23a245.2,245.2,0,0,0-44.88-20.12,257.26,257.26,0,0,1,40.77,19.24c1.48.7,3,1.34,4.47,2.12a3.16,3.16,0,0,1,1,.75c.07.14-.27,0-.68-.17l-1.22-.63c2.41,1.51,4.06,3,3.75,3.43s-2.7-.52-5.21-2c-6.9-3.76-13.81-7.43-20.92-10.69l-2.34-1-2.42-.84a290.76,290.76,0,0,1,31.72,17.58c.89.52,1.57,1.1,1.49,1.27s-.87-.12-1.77-.65a297.55,297.55,0,0,0-28.58-14,288.87,288.87,0,0,0-30-11c-3.48-.62-7-1.1-10.47-1.63-3.53-.37-7-.81-10.6-1.1.87.18,1.74.41,2.61.64,11.11,2.61,21.43,5.16,31.57,8.25a197.51,197.51,0,0,1,30.21,11.69,2.12,2.12,0,0,1,.9.67c0,.11-.38,0-.88-.25a222,222,0,0,0-29.7-11.39l-6.34-1.94-6.28-1.66-3.09-.78-3.09-.66c-2.06-.43-4.1-.85-6.13-1.23l6.08,1.6,3,.78,3,.86,6,1.71,5.92,1.89,3,.94,2.93,1,5.87,2.12c1.94.75,3.87,1.55,5.81,2.34l2.92,1.2c1,.41,1.91.87,2.88,1.3a8.08,8.08,0,0,1,1.7,1,.76.76,0,0,1,.43.06,67.09,67.09,0,0,1,6.33,2.52,3.18,3.18,0,0,1,1.06.69C274.62,210.78,274.34,210.74,273.87,210.55Zm-244.61-12-.24-.08h.65l1.39.73ZM24.59,208h0l-.82-.38Zm96.62-48.2-7.27.83c-1.21.1-2.42.28-3.62.46l-3.62.49c-4.84.55-9.62,1.45-14.5,2.07l6.93-1.68,2.74-.44,2.76-.32,5.52-.62c1.83-.23,3.68-.34,5.53-.45ZM21,197.9a12.19,12.19,0,0,1,3.28.79,5.13,5.13,0,0,1,1.34-1.15,27.93,27.93,0,0,1,4.27-2.14c-.44-.29-.09-.44,0-.59l.43-.4c-1.58.61-3.25,1.1-4.86,1.76A43,43,0,0,1,21,197.9Zm-8.22,8.41-.23-.05-.22-.76Zm.42,1.26.25-.06C13.54,207.77,13.41,207.74,13.18,207.57Zm2.3-.61a1.87,1.87,0,0,0-.49-.12Zm14.73,16-1.71-3.36,1.57,3.29Z"/><path d="M207.69,225.64l.43.36a1.34,1.34,0,0,1-1.1,0,11.15,11.15,0,0,0,7.13,1.77,15.83,15.83,0,0,0,6.47-1.75c1.31.25,2.47-.29,2.59-1.22s-.85-1.88-2.18-2.18a4,4,0,0,1-.85-.47,26.08,26.08,0,0,0-6.94-4.42c.53.37,1.06.72,1.57,1.11a8.43,8.43,0,0,0-2.37-.86l.31.6c-2.67-1.7-6.31-1.81-8-.07s-.87,4.69,1.78,6.35Z"/><path d="M212.67,232c-1.52-.74-3-1.55-4.49-2.41l-.31-.38.18,1.61,0-.1c1.3-1.25,3.53-1.61,5.59-1.82l.73-.16a1.12,1.12,0,0,0,.64-.75c.15-.71-.5-1.49-1.48-1.7l-1.13-.24c-2.77-1.13-7.15-1.7-8.51.93-.3.61.05,1.45.17,2.21a2.52,2.52,0,0,0,2.39,2.26c1.36.16,2.47-.56,2.52-1.61l.7.27-.52.34c.34-.89,1.56-1,2.47-1.41l1.37-.15-.87-2.46-.71.25a2.86,2.86,0,0,1,.16.28,24,24,0,0,1-4.09,1.4l-1.84.76a1,1,0,0,0,.19,1.63l.86.6-.39-.34c1.94.69,4,1.14,5.87,1.81a.65.65,0,0,0,.8-.18C213.12,232.36,213,232.08,212.67,232Z"/><path d="M206,231.88a1.76,1.76,0,0,0-1.07-.42l-.18.19.63.47C205.79,232.46,206,232.24,206,231.88Z"/><path d="M204.71,231.65l-.26-.2.18.25.05,0Z"/><path d="M317.93,223.56c-1-.53-2-1.06-2.9-1.61-.45-.28-1-.55-1.37-.82l-.89-.83-.45-.42-.63-.42-1.29-.85c-.34-.28-.56-.56-.85-.84l-.41-.43a5.78,5.78,0,0,0-.56-.44l-1.19-.88a7.2,7.2,0,0,1-.81-.88,13.92,13.92,0,0,0-2-1.84,22.06,22.06,0,0,1-1.39-1.87c-.23-.33-.4-.63-.69-1l-1-1c-.07-.09-.17-.17-.23-.26l-.14-.27-.29-.52c-.2-.35-.39-.71-.56-1.09a7,7,0,0,0-.63-1.14,12.19,12.19,0,0,1-.78-1.25l-.43-1.26-.36-1.35-.28-1.45c-.16-.55-.38-1.1-.49-1.66s0-1.09,0-1.69a11.15,11.15,0,0,0,0-1.85c0-.32,0-.65,0-1l.26-.94a18.33,18.33,0,0,1,.63-1.85c.23-.62.34-1.27.52-1.91a1,1,0,0,1,.19-.44l.26-.42.51-.83c.31-.56.54-1.14.81-1.7a3.29,3.29,0,0,1,.21-.42l.32-.36.63-.71c.94-.92,1.39-2,2.27-2.86a34.45,34.45,0,0,0,2.84-2.4l1.29-1.24c.45-.39.93-.77,1.39-1.16s.92-.77,1.4-1.14l1.55-1a68.67,68.67,0,0,1,6.23-3.62l3.06-1.54,1.45-.74.73-.36.37-.19c.14,0,.31,0,.47-.06l1.9-.22,1-.11.47-.06.36-.16,1.41-.64.71-.33c.12,0,.21-.13.37-.13h2.49a5,5,0,0,0,1.86-.18l1.64-.48.82-.24c.11-.07.34,0,.52,0l.56,0,2.24.17c.37,0,.75.06,1.12.07l1-.13,2.07-.27c.36,0,.66-.11,1.06-.12l1.18-.05a46,46,0,0,1,4.91-.1l2.62.08c.87,0,1.76-.08,2.64-.1a12.37,12.37,0,0,0,3.48-.49c0-.19-1.51-.26-3.27-.14-.89,0-1.79.12-2.68.14l-2.65-.07c-.86,0-1.8-.08-2.61-.05l-2.38.12-1.19.06a9.25,9.25,0,0,0-1.13.09l-2.08.29a16.23,16.23,0,0,1-4.4,0l-1.13-.08a.85.85,0,0,0-.47,0l-.41.13-1.64.51-.82.25c-.31,0-.66,0-1,0l-2,0a7.63,7.63,0,0,0-1,0l-.71.33-1.4.67a2.73,2.73,0,0,1-.74.3l-.95.12-1.91.22a4.1,4.1,0,0,0-.91.16l-.73.38-1.45.76-3,1.56c-1,.5-2.07,1.14-3.11,1.72s-2.07,1.23-3.1,1.91a21.31,21.31,0,0,0-3,2.13L308,178.06c-.46.39-.87.82-1.3,1.23s-.83.84-1.32,1.24l-1.47,1.2-.37.3-.18.15-.13.18-.52.73a13.38,13.38,0,0,1-1.1,1.47L300.3,186l-.77,1.71c-.29.57-.67,1.12-1,1.68a1,1,0,0,0-.18.45l-.12.48-.23,1a12.39,12.39,0,0,0-1,3.76l0,1a8.84,8.84,0,0,1,0,.91,12.53,12.53,0,0,0-.05,1.72,55.45,55.45,0,0,0,1.39,5.82,3.83,3.83,0,0,0,.67,1.25l.41.62c.1.19.17.37.26.56.34.76.72,1.45,1.09,2.15a28.27,28.27,0,0,1,3,3.95,2.6,2.6,0,0,0,.47.47l.55.47a5.6,5.6,0,0,1,.95.92l.73.88c.08.15.35.3.53.45l.59.44a10.5,10.5,0,0,1,1.85,1.73c.62.57,1.75,1.14,2.37,1.71.87,1.12,3.05,2.23,5,3.31a11.87,11.87,0,0,0,2.54,1.1C319.56,224.5,318.93,224.09,317.93,223.56Z"/><path d="M337.28,51.82c-.19.89,0,.9.35,0a15.05,15.05,0,0,0,.55-1.43,14.73,14.73,0,0,0,.5-1.51c.19-.73,0-.77-.35-.05a15.63,15.63,0,0,0-.65,1.5A11.79,11.79,0,0,0,337.28,51.82Z"/><path d="M346.59,61.29A35.58,35.58,0,0,0,348,72.89a11.5,11.5,0,0,1,.35,2c.18-.29.58.46,1.06,1.92C351.76,84,355.55,91.14,360,98.41c.54.91,1.11,1.82,1.69,2.73l1.74,2.76,1.78,2.78.91,1.4.89,1.35c1.11,1.67,2.37,3.47,3.66,5.29l3.92,5.58a267.63,267.63,0,0,1,15.67,24.36A97.71,97.71,0,0,1,397,159.35a50.32,50.32,0,0,1,2.39,9.3,31.38,31.38,0,0,1-.43,12.8,10.65,10.65,0,0,1-.62,3.79,14.62,14.62,0,0,1-1.05,2.63,18.13,18.13,0,0,1-1.74,3,26,26,0,0,1-2.58,3.15,36.31,36.31,0,0,1-3.31,2.84,39.51,39.51,0,0,1-3.69,2.2l-.24.13-.17.08-.32.13-.65.28-1.33.54c-.89.36-1.81.71-2.75,1s-1.74.43-2.62.64l-1.32.27-.66.14a1.73,1.73,0,0,1-.29,0h-.14l-1.08.07a23.53,23.53,0,0,1-6.65-.6c-2.23-.48-4.46-1.1-6.76-1.51a24.37,24.37,0,0,0-7-.36,26.83,26.83,0,0,0-6.9,1.9c-.28.29-.59.57-.89.9s-.65.63-1,1a13.24,13.24,0,0,0-2,2.47,5.11,5.11,0,0,0-.22,2.89,6.79,6.79,0,0,0,1.45,2.82,18.78,18.78,0,0,0,5,4,50.2,50.2,0,0,0,11.14,4.61c-.19-.13-.15-.2.16-.2a31.55,31.55,0,0,1,4.35.94l2.49.6a43.41,43.41,0,0,1-6.33-2,5.06,5.06,0,0,1-.72-.33,25.93,25.93,0,0,1-6.75-3.87,6.94,6.94,0,0,1-2.49-3.61,4.3,4.3,0,0,1,1.48-3.83,14.18,14.18,0,0,1,3.37-2.38c.59-.35,1.24-.58,1.86-.87.32-.14.66-.21,1-.32a5,5,0,0,1,1-.26c2.7-.62,5.45-.21,8.22.19a25.08,25.08,0,0,0,4.28.32,17,17,0,0,0,2.22-.2l1.12-.25.28-.07.79-.21,1.65-.45,1.64-.44c.28-.09.53-.13.83-.25l.91-.34c1.2-.47,2.4-1,3.59-1.46l.89-.38,1.39-.73c.93-.52,1.84-1.07,2.73-1.64a34.12,34.12,0,0,0,2.74-2.16c.44-.38.88-.78,1.31-1.17s.82-.9,1.23-1.36a33.75,33.75,0,0,0,2.24-2.88c.63-1,1.23-2.06,1.78-3.11a22.61,22.61,0,0,0,1.31-3.12,23.71,23.71,0,0,0,.91-3.07c.2-1,.38-1.92.53-2.89a11.84,11.84,0,0,0,.15-1.35l.09-1.29.06-1.29v-.65l0-.57q0-1.14-.12-2.28c0-.37-.05-.78-.09-1.11l-.14-1-.31-2c-.24-1.28-.53-2.45-.82-3.66s-.64-2.21-1-3.31l-1.09-3a95.75,95.75,0,0,0-4.94-10.63,189.15,189.15,0,0,0-11.09-17.85c-3.8-5.52-7.73-10.81-11.39-15.84a10.33,10.33,0,0,1-1.44-2.35c-.12-.46.09-.49.62.2,4.8,6,10,12.27,15,18.78,2.52,3.27,5,6.64,7.42,10.24a113.59,113.59,0,0,1,7.08,11.8,71,71,0,0,1,3.24,7.17c.26.62.49,1.38.73,2.07s.49,1.38.7,2.15a47.28,47.28,0,0,1,1.18,4.94l.24,1.35a13.7,13.7,0,0,1,.2,1.43c.1,1,.19,2.07.25,3.12a16.07,16.07,0,0,1,0,1.72l-.06,1.8c0,.62,0,1.17-.13,1.85s-.2,1.38-.31,2.06-.25,1.38-.39,2.06-.4,1.5-.63,2.24-.5,1.51-.78,2.25c-.15.38-.28.74-.44,1.12l-.57,1.18a33,33,0,0,1-2.67,4.53,39.31,39.31,0,0,1-3.46,4.14,47.61,47.61,0,0,1-3.95,3.39,42.69,42.69,0,0,1-4,2.52l-1,.56a3.14,3.14,0,0,1-.39.19l-.31.14-1.24.56-2.52,1.08a33.93,33.93,0,0,1-4.75,1.59l-2.17.64-.49.19a10.09,10.09,0,0,1-3.72.64,19.37,19.37,0,0,0-3.81.17,5.76,5.76,0,0,0-3,1.65,4.55,4.55,0,0,0-1.56,3,2.94,2.94,0,0,0,.89,2,8,8,0,0,0,1.84,1.41A23.79,23.79,0,0,0,375,221c1.08.19,2.05.39,2.9.62.43.11.83.23,1.21.36l.27.09.14.05.9.53c1.21.72,2.34,1.35,3.72,2.26a85.59,85.59,0,0,1,15.58,12.63,53,53,0,0,1,3.48,4.13l.42.54c.06.08.14.2.23.35l.26.4,1,1.62A28.22,28.22,0,0,1,407,248a19,19,0,0,1,1.22,14.4c-.22.56-.42,1.13-.68,1.67s-.58,1-.88,1.57a16.48,16.48,0,0,1-2.33,2.74,8.46,8.46,0,0,1-1.35,1.18l-1.45,1.06c-.53.29-1.07.58-1.62.85l-.82.41-.88.32c-.59.2-1.18.4-1.78.58s-1.24.28-1.86.41-1.27.22-1.91.31-1.3.11-2,.14-1.32.06-2,.06l-1.63-.06-1.61-.05-.41,0-.28,0-.53-.05-17-1.38c-11.33-.91-22.65-1.87-34.11-2.53-5.74-.37-11.48-.72-17.3-.95s-11.66-.49-17.57-.55a425.17,425.17,0,0,0-46.83,1.45l-2.85.26-1.42.14-.29,0-.9.16-1.79.3-3.57.57q-3.56.52-7,1.18c-2.33.41-4.66.83-7,1.28-3.47,1.06-6.61-.22-7.11-3.08a5.52,5.52,0,0,1,1.92-4.88l-.87.09-1.37-.15a4.65,4.65,0,0,1-3.14-1.66l-1-1.11c-1.33-2.19-3.49-3.95-4.67-6.43l.19-1-.26-.26a4.46,4.46,0,0,1-1.73-2.52l0-1.2a10.36,10.36,0,0,1,1.1-3.93,3.63,3.63,0,0,1,.18-1.47,5,5,0,0,1-.59-3.89.72.72,0,0,1,.08-1.17,1.08,1.08,0,0,1,.5-.18h0a9.36,9.36,0,0,0-.57-.75l-.58-.19c-1-.22-1-.22-1.83-.43a5.18,5.18,0,0,1-1.23-1c-.93-2.2-.94-2.21-.87-3.15l.14-.26-.9-.47a2.59,2.59,0,0,1-.33-.39c-.06-.51-.06-.51-.19-.7a1.81,1.81,0,0,1-.05-.39c.33-.54.33-.54.33-.7a1.49,1.49,0,0,1,.19-.27l.66-.22,1,1.37.18-.44.25.61-.16-.55.49.36-.56-.52a4.88,4.88,0,0,0,1.55.27,2.06,2.06,0,0,0,.89,0,2.2,2.2,0,0,1-.05-.29l2.34.57a2.93,2.93,0,0,1,.28.36.54.54,0,0,1,.55-.16l.6.12.13-.07v0l.5-.22.1,0h0c.72-.31,1.44-.63,2.17-.93a8.83,8.83,0,0,1,1,.34l-.29-.26c-.19-.18,0-.62-.13-.67a53,53,0,0,0-8.08-2.49,1.06,1.06,0,0,1-1.06-.7c-.09-.4.25-.73.75-.73a18.83,18.83,0,0,1,8.94-.91,34.47,34.47,0,0,1,9,2.52c1.48.36,2.93.79,4.4,1.14l-.2-.23,1.13.47.12,0-.85-.87-.59-.3a86.33,86.33,0,0,1-9.94-3.55c-1.82-.65-3.4-1.65-5.16-2.47-.45-.1-.77-.43-.73-.77s.46-.5.9-.41a41.06,41.06,0,0,1,8.93,1.41,23.72,23.72,0,0,1,7.91,3.63,6.76,6.76,0,0,1,2.81,1.08l0,0-.62-.71c.77.27,1.16.83,1.85,1.13-.07-.27-.16-.58-.23-.86,1.88.52,3.84.88,5.73,1.37a26.69,26.69,0,0,1,5.46,1.8l.39.13c.75-.15,1.51-.3,2.31-.38l.6,0h.18l.95.14,1.91.29q3.84.57,7.93,1.26l-5.5-1.08-2.75-.54-2.59-.54,5.8.83,6,.91c4,.72,8.06,1.41,12.26,2.24,5.65,1.22,11.49,2.33,17.17,3.68s11.27,2.57,16.51,3.85c10.47,2.51,19.54,4.89,25.34,6.56,10.77,2.07,21.52,4.07,32.27,5.93,5.37.89,10.75,1.83,16.12,2.61l4,.62,2,.29c.42,0,.84.06,1.26.11a2.86,2.86,0,0,0,.44,0H389a6.15,6.15,0,0,0,.73-.06,4.4,4.4,0,0,0,1.38-.41,2.4,2.4,0,0,0,1.41-2.33,5.13,5.13,0,0,0-1-2.67l-.24-.34a5.13,5.13,0,0,0-.35-.43l-1.09-1.2-1.2-1.17c-.4-.4-.87-.77-1.3-1.14a43.07,43.07,0,0,0-5.87-4.08,58.17,58.17,0,0,0-6.59-3.35,14.4,14.4,0,0,0-1.87-.69l-2-.64-6.53-2.09c-.3-.09-.56-.19-.89-.27l-1.1-.17-2.21-.35-4.43-.7c-1.41-.2-3.12-.56-4.71-.85l-4.85-.92-2.42-.47-2.13-.61-4.25-1.24-2.13-.62-1.07-.31c-.36-.1-.6-.2-.91-.31l-3.53-1.23-2.75-1-1.21-.46a5.49,5.49,0,0,1-.71-.38c-.8-.48-1.28-.83-1.3-1s.61.07,1.44.39c.42.16.91.36,1.45.59a9.14,9.14,0,0,0,1.12.41l1.38.47,5,1.71,1.26.43,1.5.43,3,.85,3,.86a26.13,26.13,0,0,0,3.11.78l6.74,1.29c2.32.47,4.3.76,6.36,1.1l3.08.49,1.53.25a2.81,2.81,0,0,1,.68.17l.6.19,8,2.59c.47.16,1,.31,1.41.48l1.23.56c.82.38,1.67.73,2.45,1.15s1.61.81,2.38,1.25l2.31,1.35a37.27,37.27,0,0,1,7.91,6.43l.78.87.4.54a8.63,8.63,0,0,1,.64,1.07,5,5,0,0,1,.63,2.35,2.8,2.8,0,0,1-1.08,2.14,4.79,4.79,0,0,1-2.29.87,7.49,7.49,0,0,1-1.25.07,1.42,1.42,0,0,1-.35,0l-.48-.05-1-.08-5.86-.84c-3.91-.56-7.83-1.17-11.74-1.8,3.27.56,6.54,1.14,9.81,1.64l4.9.77,2.46.38c.47.08.67.07,1,.11l.83.09a1.73,1.73,0,0,0,.35,0h.84a10.18,10.18,0,0,0,1.11-.12,4.61,4.61,0,0,0,2.07-.85,3,3,0,0,0,1.12-1.9,4.53,4.53,0,0,0-.27-2.24,9.32,9.32,0,0,0-1.09-2.06c-.13-.18-.22-.32-.38-.53l-.69-.79a20.74,20.74,0,0,0-1.45-1.54,42.34,42.34,0,0,0-7.05-5.51,59.64,59.64,0,0,0-8.28-4.37c-1.71-.62-2.78-1-5.83-2.06l-1.95-.66-1-.33a5.07,5.07,0,0,0-1.05-.3l-4.88-.9-2.5-.45c-.84-.15-1.79-.36-2.68-.54l-5.45-1.12-1.37-.28c-.45-.1-.82-.23-1.24-.34l-2.43-.72-4.88-1.43c-1.48-.46-2.74-.93-4.1-1.4s-2.65-.93-4-1.4l-5.28-2.52c-2.12-.94-4.17-1.88-6.07-2.88a12.43,12.43,0,0,1-2.35-1.51c-.69-.51-1.78-1-2.53-1.55l-1-.79c-.17-.13-.3-.26-.5-.4l-.62-.41-1.25-.82-.88-.83-.44-.41-.58-.44-1.17-.88c-.54-.59-1.11-1.16-1.62-1.78-.28-.31-.5-.6-.82-.93l-1-1-.26-.25-.18-.25-.35-.5c-.24-.33-.48-.67-.7-1s-.4-.69-.71-1.09l-.9-1.18-.55-1.21c-.18-.42-.32-.87-.49-1.29s-.27-.93-.41-1.38-.36-1-.53-1.54a2.21,2.21,0,0,1-.14-.8l-.06-.81v-1.7l-.05-.94,0-.46a2.24,2.24,0,0,1,.09-.45,13.84,13.84,0,0,1,.5-1.78,15.33,15.33,0,0,0,.56-1.78c.09-.29.16-.6.26-.89l.48-.79.48-.79.41-.79a4.8,4.8,0,0,1,.94-1.5c.4-.45.82-.89,1.21-1.34l1.05-1.35a5.26,5.26,0,0,1,1.28-1.2c.47-.37,1-.74,1.4-1.11.86-.75,1.67-1.55,2.58-2.26l1.36-1.06a10.87,10.87,0,0,1,1.41-1l3-1.84,3-1.6c1-.54,2-.95,3-1.43l2.92-1.32.72-.33a6,6,0,0,1,.88-.12l1.82-.2.91-.1a3.68,3.68,0,0,0,.73-.25l1.41-.55.7-.28c.28,0,.62,0,.93,0h1.9c.32,0,.64,0,.95,0l.8-.21,1.6-.41.4-.11a1.06,1.06,0,0,1,.45-.05l1.07.07,2.14.15a8.14,8.14,0,0,0,2-.12l2-.25c.32,0,.69-.07,1.08-.09l1.13-.06,2.27-.13c1.39,0,2.85,0,4.26,0A17.28,17.28,0,0,0,358,168l2.15-.16a42.47,42.47,0,0,1,4.4-.12h2.22c.25,0,.22-.05.3-.08l.18-.13.35-.26,1.33-.95a6.51,6.51,0,0,1,.91-.53l.12-.06.06,0h0c1.35,2.89-3-6.48,3,6.48v0l0,.09c.1.25.21.5.33.74a6.15,6.15,0,0,0,.44.73c.16.24.38.52.4.58a3.19,3.19,0,0,0,.56.7l.1.09h0a.23.23,0,0,0,0,0l0,0,0,0-.07-.05-.28-.18-.26-.12-.06,0-.16-.08-.32-.15a5.47,5.47,0,0,0-.64-.23l-.31-.08a3.15,3.15,0,0,1-.38-.1,10,10,0,0,0-2-.45l-.49,0-.7-.12c-.47-.07-.93-.12-1.39-.15-.95-.08-1.69,0-3-.07h-1s0-.17-.06-.25a32.47,32.47,0,0,0-1.72-5.33c-.95-2.36-2.22-5-3.62-7.68s-3-5.49-4.67-8.35c-3.35-5.74-7.12-11.64-11.19-18.2-1.43-2.35-2.88-4.71-4.43-7.41l-.57-1-.49-.89-1-1.79-2-3.64c-2.59-4.91-5.14-10.06-7.42-15.59a108.19,108.19,0,0,1-5.69-17.83A74.8,74.8,0,0,1,319.52,65c.16-1.78.33-3.56.56-5.34s.63-3.55,1-5.31a64,64,0,0,1,3.34-10.19A69.92,69.92,0,0,1,335,27.07a83.61,83.61,0,0,1,13.62-12.93,110,110,0,0,1,14.87-9.42c5.33-2.9,10.41-4.78,11.25-4.72S372,2.08,366.79,4.92c-2.54,1.4-5.09,2.9-7.61,4.53s-5.05,3.35-7.5,5.26a87.54,87.54,0,0,0-7.24,6.18,85.21,85.21,0,0,0-6.67,7.21,68,68,0,0,0-10.59,17.75,58.58,58.58,0,0,0-3.07,10.53,53.5,53.5,0,0,0-.82,5.45L323,64.56c-.09.91-.05,1.8-.08,2.71a75.42,75.42,0,0,0,2.67,20.58,114.41,114.41,0,0,0,6.51,17.85c2.51,5.54,5.23,10.72,7.94,15.67l1,1.85,1.16,2,2.27,3.81c1.48,2.45,2.93,4.8,4.37,7.11,2.86,4.62,5.64,9.11,8.21,13.56s4.94,8.84,6.88,13a61,61,0,0,1,2.39,5.94,21.26,21.26,0,0,1,1.09,4.31,3,3,0,0,0,.05.42c0,.05,0,.05,0,0h0l.27,0a17.71,17.71,0,0,1,2.15.25,14.87,14.87,0,0,1,1.59.22c.26.06.53.12.79.2l.4.13a1.22,1.22,0,0,0,.27.06,5.5,5.5,0,0,1,1,.32l.48.23.19.08a2.24,2.24,0,0,1,.43.26c.06.05,0,0,0,0l0,0,0,0a0,0,0,0,1,0,0l0,0-.14-.13a3.53,3.53,0,0,1-.44-.53c-.07-.11-.07-.14-.19-.31s-.27-.36-.39-.55a7.47,7.47,0,0,1-.58-1.12l-.11-.29c-3.28-7-.93-1.94-1.67-3.51h0l-.06,0-.23.1-.45.21a9.07,9.07,0,0,0-.91.49l-1.24.72-.61.35-.16.09s-.24,0-.35,0h-.78l-3.15,0c-2.08,0-4.08.3-6.11.31s-4.09-.13-5.85,0l-1.38,0c-.47,0-.94,0-1.33.06l-2.48.2a12.79,12.79,0,0,1-2.6-.11l-1.32-.12-.66-.06a1.77,1.77,0,0,0-.54.07,15.14,15.14,0,0,1-4.38.44l-1.2,0a2.39,2.39,0,0,0-1.1.09l-1.87.55a7.79,7.79,0,0,1-2.18.31l-1.17.1-.59,0-.29,0-.24.09c-1.3.49-2.53.92-3.89,1.49l-2,.8c-.67.29-1.34.63-2,.95s-1.35.61-2,1l-2,1.13a30.29,30.29,0,0,0-3.78,2.52c-1.22.92-2.24,1.91-3.55,2.85s-2.14,2.12-3.25,3.25a7.54,7.54,0,0,0-1.47,1.83l-.56,1-.65,1a6,6,0,0,0-.78,1.94c-.2.67-.47,1.32-.67,2-.5,1.31-.17,2.83-.22,4.06a13.64,13.64,0,0,0,.19,1.84c.21.58.47,1.23.64,1.74a17.49,17.49,0,0,0,1.21,3,16.37,16.37,0,0,0,1.83,2.64,24.68,24.68,0,0,0,1.76,2.31l1.21,1.11c.38.36.66.69,1,1s.65.67,1,1a6.82,6.82,0,0,0,1.11,1,.15.15,0,0,1,.17-.09,4.41,4.41,0,0,1,1.17.41l.9.43c.34.17.7.36,1,.56a26.19,26.19,0,0,1-2.81-2.15c-.4-.36-.79-.73-1.17-1.12s-.75-.75-1.25-1.18a14.06,14.06,0,0,1-2.34-2.54c-.34-.46-.64-.88-1.08-1.4l-.61-.74a5.59,5.59,0,0,1-.46-.77,18.83,18.83,0,0,1-1.47-3.34l-.38-1a3,3,0,0,1-.28-1l-.14-1,0-1.08,0-1.14a3,3,0,0,1,.06-1.15l.26-1.12.39-1.1c.29-.73.45-1.5.8-2.19s.87-1.31,1.24-1.94l.38-.68a2.48,2.48,0,0,1,.43-.64L307.1,187c.72-.75,1.26-1.56,2-2.25s1.69-1.28,2.43-1.92,1.51-1.31,2.35-1.88l1.22-.88a9.92,9.92,0,0,1,1.26-.85l2.65-1.53c.89-.52,1.8-.89,2.7-1.34.45-.21.9-.44,1.35-.64l1.35-.54c.9-.36,1.82-.75,2.67-1l1.31-.48a3.57,3.57,0,0,1,1.4-.36c1-.1,2.14-.15,3.11-.3l2.56-.74c1,0,2.16,0,3.24,0h.41l.35-.06.71-.13,1.42-.25a3.42,3.42,0,0,1,.75-.09l.9.08,1.8.15.91.08a6.11,6.11,0,0,0,.86,0l1.71-.13c1.08-.11,2.4-.12,3.67-.16.64,0,1.24,0,1.93,0l2.08,0,2.09,0,2.11-.15c1.41-.1,2.82-.2,4.3-.2l2.2,0h1l.06,0,.45-.25,1.77-1c.45-.24.9-.46,1.36-.65l.17-.07.09,0,1.32,2.83v0l0,.05,0,.11c.11.27.24.54.38.81.28.52.79,1.15.85,1.3a4.73,4.73,0,0,0,.31.38c.1.12.32.31.26.26s.06.08.09.1a1.89,1.89,0,0,0-.61-.34l-.27-.14-.36-.16a4.89,4.89,0,0,0-.71-.23l-.35-.08a5.58,5.58,0,0,0-.58-.18,9.58,9.58,0,0,0-1.13-.25l-.57-.08-.28,0h-.14l-.19,0-.79-.12-.64-.07c0,.08,0-.25,0-.46s-.05-.4-.06-.6,0-.19,0-.31l-.08-.4-.12-.8L368,170l-.11-.47-.15-.51-.29-1-.71-2.22A128.63,128.63,0,0,0,361,152.5c-2.2-4.51-4.57-9-7-13.57s-4.92-9.1-7.46-14l-1-1.88-1-1.94-1.7-3.62c-1.14-2.45-2.27-4.92-3.37-7.46-1.56-3.14-3.12-6.31-4.53-9.66-.73-1.64-1.37-3.39-2-5.08s-1.28-3.47-1.82-5.29a85,85,0,0,1-2.74-11.21l-.41-3-.2-1.47-.11-1.51-.19-3V66.77a56.1,56.1,0,0,1,5.71-23.86,70.4,70.4,0,0,1,13.67-18.83,12.31,12.31,0,0,1,2.19-1.89c.4-.21,0,.29-.85,1.16a75.18,75.18,0,0,0-9.89,12.33,61.25,61.25,0,0,0-7,15.08,56.38,56.38,0,0,0-2.31,17A68.34,68.34,0,0,0,331.4,84.2a17.47,17.47,0,0,1,0-4.08c.13-1,.36-1.43.71-1.36.75.12,1.72,2.6,3.14,6.2A66.86,66.86,0,0,1,333,70.89a20.19,20.19,0,0,1,.11-3.79c.11-.95.26-1.51.43-1.46s.32.64.43,1.58.13,2.23.25,3.61c.52,9.68,3.43,18.76,7,27.17,1.78,4.22,3.75,8.31,5.81,12.28,1,2,2.06,4,3.11,5.91l.79,1.46.84,1.52,1.7,2.94c5.66,9.09,11.4,17.69,16.38,26.62a119.65,119.65,0,0,1,6.61,13.47,54.25,54.25,0,0,1,2.17,6.7,18.62,18.62,0,0,1,.59,6c.14-.48.37-.9.51-1.38s.28-.93.43-1.35a8.64,8.64,0,0,1,.8-2.1h0a47.35,47.35,0,0,0-2.54-8.67A150.67,150.67,0,0,0,368,142.21c-3.88-6.28-8-12.45-12.13-18.84-2.06-3.16-4.11-6.61-6-9.87s-3.73-6.71-5.49-10.17-3.38-7.06-4.86-10.75a92.8,92.8,0,0,1-3.66-11.5,66.31,66.31,0,0,1-1.7-12.26,52.19,52.19,0,0,1,1.09-12.56,49.64,49.64,0,0,1,4.17-11.87A61.36,61.36,0,0,1,346,33.92,85.42,85.42,0,0,1,363.38,17.3,202.51,202.51,0,0,1,383.13,4.78a8.66,8.66,0,0,1,2-1,6.6,6.6,0,0,1-1.65,1.13c-8,4.66-16.12,9.53-23.58,15.55a74.17,74.17,0,0,0-19,22l0-.07c.46-.66.67-.72.33.09a28.71,28.71,0,0,1-1.41,2.76c-.5.79-.6.65-.35-.06A50.73,50.73,0,0,0,335,72.61a82.49,82.49,0,0,0,7.71,25.82c1.85,4,3.86,7.86,5.95,11.63,1.06,1.88,2.11,3.75,3.19,5.59.52.92,1.09,1.87,1.66,2.81l1.71,2.76c4.61,7.24,9.32,14.15,13.68,21.24-3.87-6.69-8.05-13.23-12.17-20-1-1.68-2.05-3.37-3.05-5.13s-1.92-3.45-2.87-5.19c-1.89-3.46-3.71-7-5.43-10.6s-3.29-7.3-4.66-11.1c-.71-1.89-1.29-3.84-1.89-5.78s-1.05-3.94-1.41-6a52.42,52.42,0,0,1,.65-24.58,49.5,49.5,0,0,1,3.5-10.28A10.28,10.28,0,0,1,343,41.61c.24-.18,0,.5-.47,1.41s-.86,1.81-1.25,2.74c2.74-5.61,6.14-9,6.57-8.57.4.7-2.22,5.11-4.67,10.73a44.87,44.87,0,0,0-3.27,11.82A47.24,47.24,0,0,0,339.79,72a68.91,68.91,0,0,0,2.54,12,102.78,102.78,0,0,0,4.37,11.44c.75,1.6,1.55,3.18,2.38,4.74s1.84,3,2.78,4.57a137.23,137.23,0,0,1-7.52-17.39A67.29,67.29,0,0,1,340.68,69a46,46,0,0,1,2.91-18.1A57.72,57.72,0,0,1,353,35.06c1.32-1.66,2.67-2.89,2.86-2.77s-.79,1.52-2.08,3.18C347.27,44,342.91,54.18,343,64.54A51.42,51.42,0,0,0,345.38,80a94.67,94.67,0,0,0,6,14.89c2.4,4.87,5.13,9.66,8,14.45,1.45,2.45,2.81,4.7,4.32,7l4.62,7c3.11,4.73,6.24,9.53,9.23,14.49A159.6,159.6,0,0,1,386,153.39a69.58,69.58,0,0,1,5.25,11.29,37.48,37.48,0,0,1,1.71,6.85,24.1,24.1,0,0,1-.27,8.6,19.2,19.2,0,0,1-7.41,11c-.7.48-1.43.94-2.17,1.38-.42.26-.64.34-.92.49l-.83.4-1.67.79c-.55.25-1.13.55-1.68.74l-1.61.55-1.63.55-.41.14-.2.07-.12,0-.48.14c-.64.17-1.26.39-1.89.52l-1.88.33,2,0c.67,0,1.33-.17,2-.25a20.71,20.71,0,0,0,2.34-.53c.92-.25,1.8-.42,2.75-.73s1.91-.72,2.86-1.1l1.41-.57.19-.07.24-.13.49-.26,1-.54a18,18,0,0,0,1.9-1.19c.63-.48,1.25-1,1.85-1.51a12.77,12.77,0,0,0,1.69-1.75,21,21,0,0,0,1.51-1.93,21.49,21.49,0,0,0,2.15-4.21c.25-.71.52-1.43.71-2.13s.29-1.34.41-2l.18-1c0-.32.06-.62.08-.93l.12-1.86c0-1.21-.07-2.27-.12-3.41s-.27-2.07-.43-3.09l-.61-2.84a62.51,62.51,0,0,0-3.47-9.81c-1.32-3-2.76-5.81-4.25-8.5s-3.05-5.27-4.63-7.79c-3.17-5-6.47-9.8-9.77-14.45s-6.65-9.23-9.54-13.61c-3-4.7-6-9.37-8.65-14.16a98.39,98.39,0,0,1-6.85-14.79,53.89,53.89,0,0,1-3.14-15.76,5.18,5.18,0,0,1,.05-1.4,1.5,1.5,0,0,1,.2-.69c.15-.11.23.62.24,1.69a52.28,52.28,0,0,0,3,15.15,90.29,90.29,0,0,0,6.54,14.24c2.56,4.64,5.43,9.2,8.43,13.84l1.12,1.73,1.1,1.63,2.33,3.36,4.93,7a280.06,280.06,0,0,1,15.8,24.49,93.14,93.14,0,0,1,6.51,14.1c.24.63.44,1.35.65,2s.43,1.35.6,2.11l.53,2.2.4,2.4a27.94,27.94,0,0,1-.69,11.66,28.32,28.32,0,0,0,1-11.85,46,46,0,0,0-2-8.87A89.36,89.36,0,0,0,388.75,147,246.32,246.32,0,0,0,374,123.32c-2.53-3.69-5.11-7.34-7.46-10.83l-1.69-2.58-1.75-2.78c-1.14-1.84-2.28-3.69-3.37-5.53-4.37-7.35-8.29-14.77-10.68-22.43a11.09,11.09,0,0,1-.54-2,13.74,13.74,0,0,1-.23-1.63,1.53,1.53,0,0,1-.38-.72A39,39,0,0,1,346,62.53a7.27,7.27,0,0,1,.39-2.26C346.52,59.86,346.6,60.38,346.59,61.29ZM224.05,238a1.29,1.29,0,0,0-.15-.17l.53.29.72,1.09Zm-9,3.68h0l-.43-.63ZM391.1,259a8.93,8.93,0,0,1-1.71.25h-.86c-.3,0-.79-.09-1.17-.11l-.63,0-.88-.13-1.76-.26-3.51-.54c-4.68-.68-9.35-1.49-14-2.28-9.32-1.62-18.6-3.36-27.87-5.28L352.31,253q10.56,2,21.13,3.82c3.53.62,7.06,1.16,10.59,1.74l2.66.41,1.82.2A9.41,9.41,0,0,0,391.1,259ZM217.86,233.51a12.41,12.41,0,0,1,2.13,2.16,6,6,0,0,1,1.69,0c1.55.18,3.06.41,4.54.7-.19-.39.17-.31.35-.34l.55,0-4.79-1.23A42.8,42.8,0,0,1,217.86,233.51Zm-11.16,1-.15-.16.27-.62S206.77,234,206.7,234.46Zm-.42,1,.24.1C206.45,235.83,206.37,235.75,206.28,235.5Zm2.15.87a1.93,1.93,0,0,0-.32-.35Zm2.28,18.18.63-3.14-.71,3Z"/></g></g></svg>