<svg xmlns="http://www.w3.org/2000/svg" viewBox="0 0 433.02 163.23"><g id="Layer_2" data-name="Layer 2"><g id="Layer_1-2" data-name="Layer 1"><path d="M6.73,117.94c.19,0,.39.08.57.12a1.22,1.22,0,0,1-.91.68c5.51.36,9.47-4.25,11.4-8.55a2.38,2.38,0,0,0,1.43-3A2.43,2.43,0,0,0,16,106.09a4.4,4.4,0,0,1-1,0,17.81,17.81,0,0,0-4.19-.6,21.89,21.89,0,0,0-4.31.4l2,.13a7.64,7.64,0,0,0-2.47.68l.62.44C3.35,107.1.36,109.49,0,112.44s2.07,5.37,5.26,5.43Z"/><path d="M14.76,121.62c-1.76.09-3.5.11-5.27.11L9,121.52l1.12,1.58,0-.12c.34-2.08,2-3.82,3.61-5.29l.51-.63a1.57,1.57,0,0,0,.07-1.22,1.71,1.71,0,0,0-2.29-.91l-1.09.45c-3,.48-7,2.72-6.52,6.26.11.81.9,1.46,1.45,2.16a2.51,2.51,0,0,0,3.35.89,2.36,2.36,0,0,0,1.15-3.18l.76-.14-.24.67c-.25-1.14.71-2,1.22-3l1.07-1L10.89,116l-.44.71c.11.08.3.19.3.2a24.55,24.55,0,0,1-2.57,4L7.1,122.77a1.34,1.34,0,0,0,1.13,1.57l1.08.11-.54-.13c2.06-.43,4-1.15,6.08-1.54a.64.64,0,0,0,.57-.66A.56.56,0,0,0,14.76,121.62Z"/><path d="M9,125.5a1.52,1.52,0,0,0-1.15.2c0,.17,0,.25,0,.3l.81.11C9.23,126.19,9.27,125.84,9,125.5Z"/><path d="M7.84,126l-.34,0,.3.15,0,0Z"/><path d="M210.17,71.68l9.62.61,4.81.3,4.79.45,9.56.9,9.54,1.17,4.76.59,4.75.72,9.47,1.45,9.43,1.72,4.71.86,4.68,1a3.27,3.27,0,0,0,1.62.11c.06-.1-.57-.34-1.35-.5l-4.68-1-4.71-.87-9.42-1.73L258.28,76l-4.74-.73-4.75-.59-9.52-1.19-9.56-.91-4.78-.45-4.81-.31-9.62-.63a3.51,3.51,0,0,0-1.69.21C208.76,71.52,209.37,71.65,210.17,71.68Z"/><path d="M390.35,124.85c-.57-.16-.59,0-.06.26a10.32,10.32,0,0,0,1.88.8c.48.14.51,0,.05-.25A9.89,9.89,0,0,0,390.35,124.85Z"/><path d="M382.4,130.18c-3.23-1.1-6.33-2.08-9.12-2.85a9.85,9.85,0,0,1-1.49-.58c.12.23-.54.14-1.72-.23-23.22-6.92-48.38-13.4-73.54-17.13a2.69,2.69,0,0,1-1.14.25,21.05,21.05,0,0,1-3.79-.15c-1.55-.17-3.34-.37-5.13-.71l-2.7-.55c-10.92-2.08-21.92-3.47-32.88-4.82-2.28.1-4.91.09-7.75,0-2.4,0-4.79,0-7.18.08l-7.2.26c-4.8.09-9.62.47-14.47.74.61.15,1,.33,1,.54-.19.49-2.44.86-5.05.86l-3.95.19c3.78-.09,7.57.07,11.33.18.55,0,1,0,1.51.07,4.14-.07,8.33.08,12.6.15a510.46,510.46,0,0,1,107.15,12.92,8.61,8.61,0,0,1,1.92.58c.3.18.2.29-.43.16-5.51-1-10.82-2-16.14-2.68l-7.93-1.07-8-.84c-5.33-.63-10.78-1-16.4-1.48-2.81-.28-5.7-.39-8.64-.62s-5.93-.52-9-.64a416,416,0,0,0-43.93-.63A401.83,401.83,0,0,0,186.56,116a304.21,304.21,0,0,0-44.24,7.78c-3.56,1-7.15,1.84-10.69,2.9L121,130l-10.58,3.71c-1.79.59-3.52,1.36-5.29,2l-5.3,2.08c-2.42.9-4.73,2-7.07,3s-4.67,2-7,3.05L79,147.11l-3.36,1.61-3.27,1.74-1.63.86-.81.44-.22.13-.72.45-1.45.88c-1,.6-2,1.13-2.88,1.74-1.87,1.21-3.75,2.37-5.65,3.51s-3.83,2.23-5.66,3.47c-2.56,2.2-6.43,1.51-8.68-1.48a7.23,7.23,0,0,1-1.26-6.08l-.75.4-1.38.3a5.43,5.43,0,0,1-2,0,5.35,5.35,0,0,1-1.92-.69l-1.6-.82c-2.6-1.87-5.67-2.88-8.25-5l-.43-1.13-.4-.16a6,6,0,0,1-3.08-1.85l-.7-1.26a13.44,13.44,0,0,1-1.37-4.62,4.89,4.89,0,0,1-.74-1.63A7,7,0,0,1,18,134.18a1,1,0,0,1-.64-1.26,1.09,1.09,0,0,1,.33-.46h0a7.41,7.41,0,0,0-.94-.49c-.38.09-.62.12-.62.12-1,.3-1,.3-1.84.54a5,5,0,0,1-1.68-.4c-2.11-1.74-2.12-1.74-2.61-2.73,0-.12,0-.24,0-.35l-1.05,0a2.34,2.34,0,0,1-.5-.2c-.36-.49-.36-.49-.58-.61a2.21,2.21,0,0,1-.27-.36c0-.75,0-.75-.14-.91a1.73,1.73,0,0,1,0-.39c.27-.39.37-.55.42-.61l1.66.81-.12-.55.58.48-.46-.48.62.09-.77-.2a4.45,4.45,0,0,0,1.47-.64,1.86,1.86,0,0,0,.74-.54,2,2,0,0,1-.22-.28c1.17-.4,1.17-.4,2.33-.77a4,4,0,0,1,.46.22.54.54,0,0,1,.37-.49l.59-.21.07-.15,0,0,.29-.53,0-.11h0l1.27-2.28a7.19,7.19,0,0,1,1-.26l-.4-.1c-.28-.08-.41-.65-.53-.64a40.58,40.58,0,0,0-8.34,2.2,1,1,0,0,1-1.31-.09.83.83,0,0,1,.19-1.22,18.81,18.81,0,0,1,6.91-6.55,25.07,25.07,0,0,1,9.27-2.7c1.51-.46,3-1,4.49-1.47l-.33-.14c.43-.06.85-.13,1.28-.16l.13,0-1.3-.5-.7,0c-3.4,1.3-7.08,1.43-10.73,2.18a21,21,0,0,1-2.94.33c-1,.09-1.94.15-2.91.29a.8.8,0,0,1-1.08-.36.82.82,0,0,1,.49-1c.61-.45,1.25-.9,1.91-1.33s1.36-.78,2.07-1.14a30.36,30.36,0,0,1,4.38-1.81,19.33,19.33,0,0,1,9.05-.93,5.44,5.44,0,0,1,3.15-.43h.05l-1-.48c.83-.15,1.54.29,2.35.24l-.77-.91c2-.52,3.91-1.31,5.86-2a26.47,26.47,0,0,1,2.94-.85,14.66,14.66,0,0,1,3-.27l.43-.07a21.52,21.52,0,0,1,1.79-1.91c.16-.15.33-.29.5-.43a.73.73,0,0,1,.15-.11l.63-.31,1.29-.61c1.73-.81,3.52-1.64,5.41-2.41L45.5,97.19l0,0,.11-.06.25-.12.49-.26,1-.5,2-1c1.35-.64,2.68-1.33,4.07-1.89,2.78-1.14,5.63-2.24,8.62-3.29,4-1.5,8.3-2.6,12.5-3.72,2.11-.53,4.19-1.1,6.26-1.52S85,84,86.93,83.7a85.64,85.64,0,0,1,19.63-1.54A426.3,426.3,0,0,1,154.34,74l12-1.22,12-.82c1-.07,2-.15,3-.2l3-.11,6-.22c2-.06,4-.17,6-.19l6,0a8,8,0,0,1,3.45.47c.17.27-.92.52-2.57.54A471.07,471.07,0,0,0,134.16,79,511.53,511.53,0,0,1,193,75.09c2.53-.14,5.07-.13,7.62-.15s5,.07,7.52.2c1.59,0,3.16,0,4.74.13l4.71.2,4.69.2c1.56,0,3.11.13,4.66.27,6.19.48,12.36.84,18.51,1.56,12.32,1.15,24.6,3,37.31,5l8,1.42c2.63.46,5.23.9,7.79,1.46l7.62,1.57c1.27.27,2.53.51,3.79.79l3.75.89c5,1.18,10,2.31,15,3.71l7.63,2,7.75,2.28a414.19,414.19,0,0,1,82.1,33.8c3.53,1.94,6.62,4.07,6.82,4.7s-2.52-.43-6.06-2.36q-21-10.86-42.79-19.55L378.69,111c-1.82-.72-3.64-1.44-5.5-2.08l-11.07-4-11.19-3.69c-3.74-1.21-7.53-2.27-11.3-3.42a536.32,536.32,0,0,0-94.51-18.54l-5.29-.58c-1.76-.19-3.52-.29-5.28-.43-3.5-.27-7-.57-10.48-.8.09.1.17.19.17.28,0,.37-.69.68-1.81.93,2,.07,3.95.25,5.93.42l5.93.51c4,.3,7.93.81,11.89,1.31,22.12,1.52,44.24,4.62,67.05,10.83L319,93.42c1.91.53,3.79,1.07,5.64,1.68l10.93,3.55,10.58,3.83c1.76.62,3.49,1.29,5.22,2l5.21,2.06a466,466,0,0,1,52.73,21.12,6.77,6.77,0,0,1,1.6.89c.21.2-.2.1-.91-.2-12-5.29-24.51-10.23-37.25-14.83,1.89,1,2.9,2,2.58,2.31s-2,.12-4.46-.46c2.87,1.05,5.67,2.28,8.5,3.42,1.75.72,3.05,1.45,2.92,1.64s-1.59-.18-3.25-.86c-5.74-2.4-11.58-4.53-17.4-6.71-2.9-1.1-5.86-2-8.8-3.08s-5.86-2.05-8.84-2.94c-14.28-4.31-28.74-7.81-43.38-10.75a12.51,12.51,0,0,1,3.94,2.17h0c2.27.44,4.5,1,6.73,1.52a415.88,415.88,0,0,1,61.39,17.42,432.18,432.18,0,0,1,58.92,27.18,3.84,3.84,0,0,1,1.3.89c0,.1-.65-.15-1.32-.52-11.46-6.4-23.23-12.18-35.14-17.51l.05,0c.45.27.5.42-.06.25a11.06,11.06,0,0,1-1.88-.8c-.53-.31-.43-.39.05-.26l-8.39-3.56c-2.8-1.17-5.64-2.22-8.46-3.33-5.62-2.26-11.36-4.16-17-6.17-11.45-3.74-22.94-7.2-34.53-9.89a430.57,430.57,0,0,1,62.51,21.78l6.81,2.52a7.28,7.28,0,0,1,1.6.84c.13.15-.35.05-1-.2l-1.9-.71c1,.42,1.85.84,2.64,1.25s1.47.82,2,1.18c1.12.72,1.74,1.26,1.6,1.49-.44.41-3.83-.78-7.81-2.45l-8-3.34c-2.67-1.08-5.38-2.09-8.06-3.14-5.35-2.16-10.81-4-16.22-6-1.18-.4-2.37-.77-3.57-1.12l-3.65-.91A479.62,479.62,0,0,1,402.64,135c1.38.62,2.5,1.3,2.45,1.48s-1.23-.19-2.62-.81c-14.35-6.15-29-11.7-44-16.5s-30.24-8.89-45.66-12.27l-7.75-1-7.79-.78c-5.19-.58-10.45-.86-15.71-1.22l3.94.68c16.8,2.78,32.35,5.56,47.68,9a344.86,344.86,0,0,1,46,13.59,4.27,4.27,0,0,1,1.46.73c.05.13-.52,0-1.3-.29a372.36,372.36,0,0,0-45.2-13.24,354.57,354.57,0,0,0-37.58-7c12.38,2.11,24.43,4.7,36.43,7.52l9,2.26c1.5.37,3,.77,4.46,1.21l4.46,1.27c6,1.63,11.85,3.62,17.8,5.56a13.23,13.23,0,0,1,2.67,1.1,1.47,1.47,0,0,1,.63.09c3,.86,6.29,1.9,9.61,3a6.21,6.21,0,0,1,1.69.8C383.53,130.48,383.11,130.41,382.4,130.18Zm-354-8.35-.24-.11.65,0,1.33.87Zm-5.56,9h0l-.77-.46ZM153.2,77.94l-10.39,1.24c-1.73.22-3.46.39-5.18.62l-5.17.74c-3.44.51-6.9.88-10.33,1.43s-6.88,1.08-10.33,1.58l9.93-2.21,2-.32,2-.25,3.92-.5,7.85-1Q145.31,78.54,153.2,77.94ZM20.14,120.22a13,13,0,0,1,3.2,1.2,5,5,0,0,1,1.44-1,43.81,43.81,0,0,1,4.41-1.74c-.41-.34-.06-.46.08-.6l.45-.38c-1.61.47-3.25.9-4.94,1.33A39.42,39.42,0,0,1,20.14,120.22Zm-9,7.51-.22-.08-.14-.79Zm.27,1.32.26,0C11.8,129.3,11.68,129.25,11.46,129.05Zm2.36-.31a1.63,1.63,0,0,0-.48-.18Zm13,17.91-1.32-3.59,1.19,3.5Z"/><path d="M193.92,28l.25.07a.54.54,0,0,1-.4.3c2.43.31,4.22-1.74,4.92-3.85a1.09,1.09,0,0,0-.91-2,1.62,1.62,0,0,1-.44,0,8.53,8.53,0,0,0-3.69-.26l.86.13a2.74,2.74,0,0,0-1.06.24l.28.23a2.54,2.54,0,0,0-.45,5.05Z"/><path d="M197.52,30c-.8,0-1.58,0-2.37-.09l-.22-.11.5.78,0-.06a4.56,4.56,0,0,1,1.6-2.43l.22-.28a.78.78,0,0,0,0-.58.81.81,0,0,0-1-.49l-.48.18c-1.33.15-3,1.1-2.85,2.8a2.82,2.82,0,0,0,.63,1.07,1.12,1.12,0,1,0,2-1l.34,0c0,.11-.07.21-.11.31-.11-.55.32-.93.54-1.39l.47-.44-1-1.07-.19.33.14.1a11,11,0,0,1-1.12,1.84l-.49.88a.69.69,0,0,0,.5.78l.48.08-.24-.07c.93-.15,1.82-.45,2.75-.58a.28.28,0,1,0,0-.55Z"/><path d="M194.93,31.66a.61.61,0,0,0-.51.06.53.53,0,0,0,0,.14l.36.08C195,32,195,31.82,194.93,31.66Z"/><path d="M194.4,31.86l-.15,0,.13.08v-.05Z"/><path d="M224.61,11.55c2.24-.93,4.44-2,6.62-3a.13.13,0,0,0,.05-.2.14.14,0,0,0-.19-.07c-2.18,1.06-4.37,2.07-6.61,3a.17.17,0,0,0-.07.21A.16.16,0,0,0,224.61,11.55Z"/><path d="M244.66,10.27a.16.16,0,0,0,.12.19.12.12,0,0,0,.17-.1.2.2,0,0,0-.12-.19A.13.13,0,0,0,244.66,10.27Z"/><path d="M247.67,16.58a3.2,3.2,0,0,0-.56.92.14.14,0,0,1-.14.07.32.32,0,0,1,0,.37,35.73,35.73,0,0,1-5.39,5.73,1,1,0,0,1,.07.35.82.82,0,0,1-.53.86l-.29.06c-1.07.37-2.12.78-3.19,1.14a1.75,1.75,0,0,1-.53.65,27.82,27.82,0,0,1-1.93,2.48.69.69,0,0,1,.26.25.53.53,0,0,1-.19.71l-.34.22,1.13-.36a.22.22,0,0,1,.16,0c.37-.2.74-.42,1.1-.66a38.35,38.35,0,0,0,8.06-7.83.13.13,0,0,1,.19-.07c.06,0,.11.14.07.21-1.16,2.45-1.82,5.17-3.51,7.3a68.33,68.33,0,0,1-6.33,7.1c-2.79,1.6-5,3.72-7.57,5.82-.95.78-1.91,1.51-2.87,2.21-2.91,2-5.86,3.81-8.9,5.61a3.32,3.32,0,0,1-5.19-3.61l-.4.2-.72.16a2.85,2.85,0,0,1-2-.33l-.81-.42c-1.29-.93-2.82-1.46-4-2.51l-.18-.56-.19-.08a2.84,2.84,0,0,1-1.47-.95l-.31-.62a7.15,7.15,0,0,1-.56-2.25,2.63,2.63,0,0,1-.32-.8A3.45,3.45,0,0,1,199,36a.47.47,0,0,1-.28-.62.42.42,0,0,1,.16-.21h0a4.09,4.09,0,0,0-.43-.25l-.29,0-.86.22a2.26,2.26,0,0,1-.77-.23c-.94-.89-.94-.89-1.15-1.38a1.11,1.11,0,0,1,0-.17h-.47l-.23-.11c-.15-.25-.15-.25-.25-.31a1.59,1.59,0,0,1-.12-.18c0-.36,0-.36,0-.44a.67.67,0,0,1,0-.19l.19-.28.74.44-.05-.27.26.24-.21-.24.28.06-.35-.12a1.88,1.88,0,0,0,.67-.26,1,1,0,0,0,.34-.24.75.75,0,0,1-.1-.14l1-.31.21.12a.25.25,0,0,1,.17-.22l.27-.09,0-.07v0l.13-.25,0-.05h0l.56-1a2.83,2.83,0,0,1,.47-.1l-.18-.06c-.13,0-.19-.32-.25-.32a17.74,17.74,0,0,0-3.74.83.42.42,0,0,1-.58-.07.41.41,0,0,1,.08-.58A8.92,8.92,0,0,1,201.27,25c.67-.21,1.32-.45,2-.69l-.16-.07.57-.08.06,0-.6-.23h-.32a26.43,26.43,0,0,1-4.71,1,22.05,22.05,0,0,1-2.57.19.36.36,0,1,1-.28-.67c2.1-1.6,4.84-2.8,7.51-2.35a2.11,2.11,0,0,1,1.37-.25h0l-.46-.22c.36-.08.7.12,1,.09l-.39-.44c1.71-.56,3.28-1.65,5.1-1.74l.19-.05a5.43,5.43,0,0,1,1.45-1.79l-.74.21h0a3.44,3.44,0,0,1,1.23-1.14,5,5,0,0,1,4.78.07c2.52-1.65,5.07-3.28,7.5-5.09a.3.3,0,0,1,.41.08.31.31,0,0,1,0,.42,44.8,44.8,0,0,1-5.1,4.26,42.94,42.94,0,0,0,5.14-2.2l.59-.42a1.69,1.69,0,0,1,.66-.28,39.52,39.52,0,0,0,6-3.81c1.63-1.36,3-2.6,4.57-4.09A33.9,33.9,0,0,1,242.73.13a.72.72,0,0,1,1,.21.79.79,0,0,1-.09,1.08c-4.57,4.15-8.89,8.49-14.46,11.43l-1.79.93.11.15a1.36,1.36,0,0,1,.17.64c.68-.33,1.39-.62,2.11-.89a19,19,0,0,1,5.28-3.87,22.36,22.36,0,0,1,4.4-1.17c1.45-1.14,2.85-2.34,4.33-3.45a.14.14,0,0,1,.21,0,.17.17,0,0,1,0,.22,31.55,31.55,0,0,1-2.71,3,1.62,1.62,0,0,1,.77.72,1.53,1.53,0,0,1,.13,1.08l.79-.41a.37.37,0,0,1,.36.63l-3.19,1.72q-1.73,1.37-3.49,2.65a2.44,2.44,0,0,1,.84.62h0l.57-.36a40.06,40.06,0,0,1,10.13-7.53.16.16,0,0,1,.21.07.14.14,0,0,1,0,.21,33,33,0,0,0-3.31,1.91h0a.19.19,0,0,1,.12.19.14.14,0,0,1-.17.11.18.18,0,0,1-.12-.19,41.49,41.49,0,0,0-5.57,4.43A51.12,51.12,0,0,1,245,11.12l.44-.64a.16.16,0,0,1,.22.22l-.12.17a.84.84,0,0,1,1.06.42.82.82,0,0,1-.28,1.13c-.93.64-1.89,1.24-2.86,1.82l-.27.26-.21.38c1.62-.71,3.25-1.38,4.89-2a.29.29,0,0,1,.39.12.3.3,0,0,1-.08.41,81.12,81.12,0,0,1-7.35,5.87c-.54,1.14-1.07,2.28-1.61,3.43a3,3,0,0,0,.36-.18c2.94-1.68,4.42-4.91,7.06-6.91a.13.13,0,0,1,.2,0,.14.14,0,0,1,0,.21,38.1,38.1,0,0,0-3.31,3.61,32.63,32.63,0,0,0-2.63,3.05c2.08-1.42,3.72-3.39,5.67-5a.23.23,0,0,1,.29-.06.22.22,0,0,1,0-.14,4.27,4.27,0,0,1,.59-1,.14.14,0,0,1,.21,0A.18.18,0,0,1,247.67,16.58ZM203.76,30.21l-.11-.05.3,0,.64.43Zm-2.49,4.33h0l-.37-.24ZM221.12,16.3a12.74,12.74,0,0,1-3.7,1.42l.77-.57C219.14,16.84,220.12,16.56,221.12,16.3ZM200,29.39a6.06,6.06,0,0,1,1.47.6,2.21,2.21,0,0,1,.65-.47,19,19,0,0,1,2-.83c-.2-.17,0-.22,0-.29l.2-.18c-.74.22-1.48.42-2.24.62A15.7,15.7,0,0,1,200,29.39Zm-4.07,3.39-.1,0,0-.38S195.8,32.54,195.89,32.78Zm.12.64h.12C196.16,33.55,196.1,33.52,196,33.42Zm1.07-.09a.77.77,0,0,0-.21-.1ZM203,42.22l-.57-1.76.5,1.71Z"/></g></g></svg>