<svg xmlns="http://www.w3.org/2000/svg" viewBox="0 0 435.75 220.11"><g id="Layer_2" data-name="Layer 2"><g id="Layer_1-2" data-name="Layer 1"><path d="M7.3,137.27l.59,0c-.08.35-.4.6-.86.8a10.52,10.52,0,0,0,6.84-3.4,16.15,16.15,0,0,0,3.92-6.42A2.46,2.46,0,0,0,19,125.11a2.39,2.39,0,0,0-3.33-.65,4.31,4.31,0,0,1-1,.14,22,22,0,0,0-8.7.8l2-.07a7.19,7.19,0,0,0-2.48.94l.66.35C2.89,127,.05,129.78,0,132.74s2.63,5,5.84,4.65Z"/><path d="M15.68,139.84c-1.73.32-3.47.56-5.24.79l-.51-.14,1.28,1.41-.05-.11c.13-2.09,1.61-4,3.09-5.69l.47-.65a1.45,1.45,0,0,0,0-1.19,1.77,1.77,0,0,0-2.41-.66c-.36.18-.71.39-1.06.58-3,.87-6.74,3.62-5.93,7,.2.79,1.06,1.31,1.69,1.93a2.52,2.52,0,0,0,3.44.44,2.38,2.38,0,0,0,.82-3.29l.74-.24-.17.7c-.36-1.1.52-2.07.93-3.11l1-1.11-2.44-1.8-.37.76.32.15A26.6,26.6,0,0,1,9.05,140l-.9,2a1.3,1.3,0,0,0,1.3,1.4l1.09,0-.55-.06c2-.7,3.92-1.67,5.9-2.3a.67.67,0,0,0,.5-.73A.55.55,0,0,0,15.68,139.84Z"/><path d="M10.37,144.41a1.53,1.53,0,0,0-1.13.35v.3h.82C10.65,145.06,10.65,144.71,10.37,144.41Z"/><path d="M9.24,145.06H8.89l.32.11s0,0,0,0Z"/><path d="M161.16,95.22c1.13.11,2.26.18,3.37.32l3.35.43,6.69.86,6.65,1.1,3.31.55,3.29.67,6.57,1.34,6.51,1.57,3.25.79c1.08.27,2.14.6,3.22.89l6.41,1.81c.58.15,1.08.22,1.13.1s-.35-.35-.89-.48l-6.42-1.82-3.22-.9-3.24-.79-6.51-1.59-6.56-1.35L184.78,98l-3.31-.56-6.64-1.11c-2.23-.32-4.46-.58-6.69-.88s-4.47-.59-6.73-.76a1.92,1.92,0,0,0-1.2.16C160.18,95,160.6,95.17,161.16,95.22Z"/><path d="M280.86,145.35c-.39-.14-.43,0-.1.23a4.74,4.74,0,0,0,1.21.68c.33.11.38,0,.1-.23A4.47,4.47,0,0,0,280.86,145.35Z"/><path d="M273.87,150.56c-1.06-.47-2.08-.94-3.08-1.35s-2-.75-2.93-1.06a4.78,4.78,0,0,1-1-.48c0,.21-.42.15-1.19-.15a321.52,321.52,0,0,0-48.42-15.07,1.6,1.6,0,0,1-.82.26,17,17,0,0,1-6-.76l-1.75-.55c-1.78-.5-3.59-.88-5.38-1.33s-3.58-.9-5.39-1.25l-5.42-1.1-2.7-.55-2.72-.45a40.76,40.76,0,0,1-5.16-.18c-3.19,0-6.39.11-9.58.14l-9.6.45c.39.17.62.36.61.56s-.48.42-1.09.56a9.85,9.85,0,0,1-2.26.24l-2.6.06c2.48.11,5,.13,7.43.4a9.07,9.07,0,0,1,1,.11c2.73.12,5.49.12,8.3.34a288,288,0,0,1,70.74,12.06,4,4,0,0,1,1.22.53c.18.17.09.28-.33.16-14.65-3.64-27.75-4.7-44-6.31a221.13,221.13,0,0,0-57.21,1.86,147.75,147.75,0,0,0-28.27,5.77,166.19,166.19,0,0,0-26.57,10.66c-1.5.67-2.91,1.52-4.36,2.27l-4.27,2.28L77,161.13c-1.36.81-2.75,1.56-4,2.46l-1,.65-.49.32-.18.13-.63.47-1.27.92c-.84.62-1.71,1.18-2.51,1.84-1.63,1.26-3.26,2.48-4.92,3.67s-3.19,2.52-4.81,3.76a5.07,5.07,0,0,1-4,1.47,6.57,6.57,0,0,1-4.22-2.21,7.46,7.46,0,0,1-1.92-5.8l-.65.46-1.25.44a5.16,5.16,0,0,1-3.8-.3l-1.65-.68c-2.72-1.59-5.74-2.19-8.48-3.95l-.55-1.06-.4-.1A6,6,0,0,1,27,162.17L26.17,161a13.48,13.48,0,0,1-1.88-4.36,4.72,4.72,0,0,1-.9-1.5,6.86,6.86,0,0,1-3.23-3.36.94.94,0,0,1-.77-1.16,1,1,0,0,1,.27-.49h0a9.92,9.92,0,0,0-1-.35c-.37.13-.6.19-.6.19-.93.42-.93.42-1.76.76a5.31,5.31,0,0,1-1.71-.17c-2.28-1.44-2.29-1.44-2.89-2.35a2.05,2.05,0,0,1-.07-.34l-1,.17a3,3,0,0,1-.53-.13c-.41-.43-.41-.43-.64-.52a2.25,2.25,0,0,1-.31-.32c-.13-.73-.12-.73-.24-.88a2.1,2.1,0,0,1,0-.38l.36-.66,1.74.58-.17-.53.62.4-.51-.41h.63l-.79-.09a4.81,4.81,0,0,0,1.4-.82,1.94,1.94,0,0,0,.68-.63,1.89,1.89,0,0,1-.25-.24c1.13-.56,1.13-.56,2.24-1.07l.48.16a.57.57,0,0,1,.32-.53l.56-.29.05-.15,0,0,.24-.56,0-.12h0c.16-.38.39-1,1.08-2.35a7.45,7.45,0,0,1,1-.36l-.42-.05c-.28,0-.46-.6-.58-.58-.72.14-1.43.32-2.13.53s-1.36.51-2,.8c-1.34.57-2.66,1.23-4,1.85a1,1,0,0,1-1.31.09.82.82,0,0,1,.06-1.23c2.7-6,9.14-9.76,15.48-11,1.51-.58,3-1.19,4.47-1.81l-.34-.11,1.28-.28.12-.06-1.33-.35c-.24,0-.47,0-.71.09a29.17,29.17,0,0,1-5.29,1.71c-1.8.47-3.61,1-5.41,1.54s-3.91.8-5.9,1.27a.85.85,0,0,1-1.14-.24.8.8,0,0,1,.43-1.05A36.12,36.12,0,0,1,18,124a20.91,20.91,0,0,1,9.17-1.75,5.66,5.66,0,0,1,3.13-.8h0l-1-.36c.82-.26,1.58.14,2.39,0l-.83-.83c2-.66,3.93-1.58,5.88-2.37a30.57,30.57,0,0,1,3-1,13.65,13.65,0,0,1,3.06-.48,3.34,3.34,0,0,1,.43-.1,23.49,23.49,0,0,1,1.76-2l.49-.46a1,1,0,0,1,.15-.11l.43-.25.87-.49a40.58,40.58,0,0,1,3.73-1.88c-.93.3-1.83.66-2.73,1l-2.65,1s.17-.12.27-.18l.33-.2.68-.4,1.36-.8c.91-.54,1.85-1,2.81-1.48,1.91-.92,3.89-1.8,6-2.61,11.38-4.37,24.9-6.54,31.65-5.37a245.25,245.25,0,0,1,33.55-6.19,270.74,270.74,0,0,1,33.9-1.42,4.19,4.19,0,0,1,2.41.56c.11.26-.66.47-1.82.44a264.89,264.89,0,0,0-48.55,4.62,288.56,288.56,0,0,1,41.22-2c1.77,0,3.55-.07,5.34,0s3.5.22,5.24.42c17.69,1,34.15,4,51.53,8l2.77.64,2.7.71,5.31,1.42c1.76.44,3.47,1,5.18,1.51l5.12,1.56c3.4,1.08,6.75,2.29,10.17,3.44s6.81,2.58,10.34,3.93a282.57,282.57,0,0,1,27.92,13.12,244.2,244.2,0,0,1,25.84,16.33c2.25,1.62,4.13,3.43,4.13,4s-1.84-.29-4.09-1.89a311.29,311.29,0,0,0-27.75-16.68,320.17,320.17,0,0,0-29.49-13.57,301.15,301.15,0,0,0-31.18-10.51,312.27,312.27,0,0,0-33-7.39c-2.43-.44-4.87-.72-7.28-1.09l-3.62-.52c-1.21-.15-2.42-.26-3.63-.39a.43.43,0,0,1,.1.27c0,.36-.51.65-1.3.86l4.1.45c1.36.19,2.72.42,4.08.63l4.09.66,2,.34,2,.42a190,190,0,0,1,45.68,10.69A236,236,0,0,1,260,129a283,283,0,0,1,34.41,18.3,3.34,3.34,0,0,1,1,.79c.1.18-.18.1-.63-.17l-6-3.26-3-1.65-3.06-1.58-6.13-3.16q-3.14-1.48-6.27-3c1.15,1,1.72,1.76,1.41,2.1s-1.5.21-3.15-.33l5.52,3c1.13.61,1.94,1.26,1.79,1.45s-1.12-.14-2.2-.71c-3.75-2-7.47-4-11.31-5.84-1.91-.91-3.79-1.9-5.73-2.76l-5.8-2.61A294.41,294.41,0,0,0,222,119.64a7,7,0,0,1,2.44,2.12h0l4.49,1.38c27.69,7.64,54.5,21.06,78.43,38.55.47.33.82.67.77.76s-.45-.11-.88-.42c-3.64-2.59-7.26-5.22-11-7.62-1.88-1.2-3.71-2.48-5.63-3.61l-5.73-3.44,0,0c.28.24.28.38-.1.24a5.4,5.4,0,0,1-1.19-.72c-.32-.28-.23-.36.09-.24a244.48,244.48,0,0,0-44.88-20.11,257.22,257.22,0,0,1,40.77,19.23c1.48.7,3,1.35,4.47,2.12a3.49,3.49,0,0,1,1,.75c.07.14-.27.06-.68-.16l-1.22-.63c2.41,1.51,4.06,3,3.75,3.43s-2.7-.52-5.21-2c-6.9-3.75-13.81-7.43-20.92-10.69l-2.34-1-2.42-.83a290.76,290.76,0,0,1,31.72,17.58c.89.52,1.57,1.09,1.49,1.26s-.87-.12-1.77-.64a295.3,295.3,0,0,0-28.58-14,288.87,288.87,0,0,0-30-11c-3.48-.62-7-1.09-10.47-1.63-3.53-.37-7-.81-10.6-1.1.87.19,1.74.42,2.61.64,11.11,2.61,21.43,5.17,31.57,8.25a197.57,197.57,0,0,1,30.21,11.7,2.05,2.05,0,0,1,.9.66c0,.12-.38,0-.88-.25a223.32,223.32,0,0,0-29.7-11.39l-6.34-1.94-6.28-1.65-3.09-.79-3.09-.66c-2.06-.43-4.1-.85-6.13-1.23l6.08,1.6,3,.78,3,.87,6,1.7,5.92,1.89,3,.95,2.93,1,5.87,2.11c1.94.76,3.87,1.56,5.81,2.35l2.92,1.19c1,.41,1.91.87,2.88,1.3a8.08,8.08,0,0,1,1.7,1,.76.76,0,0,1,.43.06,64.65,64.65,0,0,1,6.33,2.53,3.18,3.18,0,0,1,1.06.68C274.62,150.8,274.33,150.75,273.87,150.56Zm-244.61-12-.24-.08h.65l1.39.73ZM24.59,148h0l-.81-.37Zm96.62-48.2-7.27.82c-1.21.11-2.42.28-3.62.46l-3.62.5c-4.84.55-9.62,1.44-14.5,2.06l6.93-1.68,2.74-.43,2.76-.33,5.52-.61c1.83-.23,3.68-.34,5.53-.46ZM21,137.91a12.21,12.21,0,0,1,3.28.8,5,5,0,0,1,1.34-1.16,27,27,0,0,1,4.27-2.13c-.44-.3-.09-.44,0-.59l.43-.4c-1.58.6-3.25,1.09-4.86,1.75A40.91,40.91,0,0,1,21,137.91Zm-8.22,8.41-.23,0-.22-.76Zm.41,1.26.26-.06C13.54,147.78,13.41,147.75,13.17,147.58Zm2.31-.6a1.54,1.54,0,0,0-.49-.12Zm14.73,16-1.71-3.36,1.57,3.29Z"/><path d="M140,56.68l.26,0c0,.16-.16.27-.36.35,2.45,0,3.94-2.3,4.34-4.49a1.1,1.1,0,0,0-1.18-1.85,1.72,1.72,0,0,1-.44.06,8.48,8.48,0,0,0-3.68.26h.86a2.85,2.85,0,0,0-1,.4l.31.18a2.54,2.54,0,0,0,.26,5.07Z"/><path d="M143.88,58.13c-.79.11-1.57.18-2.36.25l-.23-.09.6.71,0-.06a4.46,4.46,0,0,1,1.24-2.62l.18-.31a.77.77,0,0,0-.06-.58.81.81,0,0,0-1.1-.34l-.45.24c-1.3.34-2.85,1.51-2.43,3.17.1.39.49.67.77,1a1.12,1.12,0,1,0,1.86-1.24l.33-.09-.06.32c-.19-.53.18-1,.33-1.45l.41-.5-1.16-.92-.14.35s.15.08.15.09a10.49,10.49,0,0,1-.86,2l-.36.94a.7.7,0,0,0,.61.71h.49l-.25,0c.89-.28,1.74-.7,2.63-1a.28.28,0,1,0-.12-.54Z"/><path d="M141.56,60.18a.67.67,0,0,0-.51.13v.14l.37,0C141.69,60.5,141.69,60.33,141.56,60.18Z"/><path d="M141.05,60.45h-.15l.14.06v0Z"/><path d="M162.93,40.16a40,40,0,0,0,3.7-2s0-.1,0-.18-.12-.1-.15-.07c-1.2.72-2.42,1.4-3.7,2,0,0,0,.1,0,.17S162.89,40.17,162.93,40.16Z"/><path d="M176.55,40.79a.25.25,0,0,0,.14.18c.05,0,.1,0,.08-.08a.28.28,0,0,0-.13-.17C176.57,40.69,176.53,40.73,176.55,40.79Z"/><path d="M180.58,46.48a1.89,1.89,0,0,0-.11.74c0,.05,0,.06-.08.05a.4.4,0,0,1,.13.32,15,15,0,0,1-2,4.47,1.3,1.3,0,0,1,.16.31c.14.34.09.61-.11.69l-.18,0c-.64.23-1.24.49-1.88.71a.84.84,0,0,1-.17.51,12.93,12.93,0,0,1-.59,2,.83.83,0,0,1,.26.24c.18.25.21.51.09.59l-.18.16.68-.22h.1a4.18,4.18,0,0,0,.57-.47,15.25,15.25,0,0,0,3.23-6c0-.06,0-.08.11,0a.29.29,0,0,1,.12.18c-.07,2,.31,4.3-.22,6a29.77,29.77,0,0,1-2.25,5.56c-1.46,1.13-2.35,2.77-3.5,4.36-.39.53-.8,1-1.21,1.51-.08.07-.07.09-.2.21l-.34.31-.67.61L171,70.43c-1.82,1.58-3.68,3.08-5.58,4.6a3.32,3.32,0,0,1-5.64-2.86l-.37.26-.69.26a2.84,2.84,0,0,1-2.05,0l-.86-.3c-1.41-.75-3-1.06-4.35-1.93l-.26-.52-.2-.06a2.82,2.82,0,0,1-1.58-.73l-.39-.57a6.72,6.72,0,0,1-.87-2.16,2.36,2.36,0,0,1-.43-.75A3.37,3.37,0,0,1,146.15,64a.49.49,0,0,1-.37-.58.48.48,0,0,1,.13-.23h0a3.36,3.36,0,0,0-.46-.19l-.28.08-.82.33a2.29,2.29,0,0,1-.8-.12c-1-.75-1-.75-1.33-1.21a.94.94,0,0,1,0-.16,4.69,4.69,0,0,1-.47,0,1,1,0,0,1-.24-.07c-.19-.22-.19-.22-.29-.27a1.27,1.27,0,0,1-.14-.17c-.07-.35-.07-.35-.12-.43a.94.94,0,0,1,0-.18,2.94,2.94,0,0,0,.15-.31l.8.33-.09-.26.29.21-.24-.21.29,0-.36-.07a1.91,1.91,0,0,0,.62-.35.78.78,0,0,0,.3-.29l-.12-.12c.51-.24.51-.24,1-.45l.22.08a.23.23,0,0,1,.14-.24l.25-.13,0-.07,0,0,.1-.26v-.05h0c.06-.18.16-.44.41-1.13a2.51,2.51,0,0,1,.46-.16l-.2,0c-.13,0-.23-.29-.29-.28a17.26,17.26,0,0,0-3.59,1.34.41.41,0,1,1-.58-.58,8.93,8.93,0,0,1,6.42-5.1c.63-.3,1.25-.63,1.86-1l-.16,0,.55-.15,0,0-.62-.15-.31,0A25.82,25.82,0,0,1,143.73,53a21.13,21.13,0,0,1-2.51.54.36.36,0,1,1-.37-.62c1.85-1.88,4.4-3.45,7.1-3.38a2.19,2.19,0,0,1,1.33-.44h0l-.49-.15c.34-.14.71,0,1.05-.06l-.44-.38c1.61-.8,3-2.09,4.8-2.44l.18-.07a8.89,8.89,0,0,1,.94-1.79l-.45.12a1.42,1.42,0,0,1,.51-.89,3.11,3.11,0,0,1,3.36.48,52,52,0,0,0,3.69-3.73c.05-.07.19,0,.31.1s.16.29.1.36a16.31,16.31,0,0,1-2.25,3.23,14.67,14.67,0,0,0,2.91-1.46l.28-.31a.71.71,0,0,1,.38-.18,13,13,0,0,0,3-2.76,30.52,30.52,0,0,0,1.94-3.13,12.4,12.4,0,0,1,2.93-4.17c.14-.17.49-.05.78.28s.4.73.26.91c-1.91,3.18-3.6,6.55-6.59,8.6l-1,.65.12.13A2,2,0,0,1,166,43a9,9,0,0,1,1.21-.58,6.63,6.63,0,0,1,2.5-2.88,8.93,8.93,0,0,1,2.72-.62c.66-.86,1.27-1.77,2-2.6,0-.05.08,0,.14,0s.1.13.08.18a13.5,13.5,0,0,1-1,2.4,2.38,2.38,0,0,1,.76.68,2.29,2.29,0,0,1,.43.94l.42-.29c.09-.05.25,0,.37.18s.16.34.07.4L174,42.06c-.52.68-1.06,1.34-1.63,2a3.14,3.14,0,0,1,.78.6h0l.29-.26a13.86,13.86,0,0,1,4.77-5.6s.11,0,.17.07.07.16,0,.18a10.91,10.91,0,0,0-1.73,1.36h0a.24.24,0,0,1,.14.17c0,.07,0,.1-.08.08a.26.26,0,0,1-.14-.17,14.33,14.33,0,0,0-2.53,3.34A17,17,0,0,1,177,41.55l.12-.52s.08,0,.15,0,.09.15.07.19l0,.14c.21-.12.59.07.87.45s.36.81.16.94c-.46.47-1,.91-1.44,1.33l-.12.19,0,.31c.92-.47,1.85-.9,2.8-1.32.06-.06.2,0,.31.14s.14.28.07.34a28.31,28.31,0,0,1-3.34,4.42c0,.93-.05,1.88-.07,2.82l.19-.13c1.55-1.19,1.58-3.84,2.82-5.34,0,0,.1,0,.15.05s.09.15,0,.18a16.4,16.4,0,0,0-1.21,2.82,15.62,15.62,0,0,0-.9,2.4c1-1,1.56-2.59,2.44-3.79,0-.07.1-.07.19,0a.21.21,0,0,1-.05-.11,2.71,2.71,0,0,1,.12-.78c0-.05.07-.05.14,0A.22.22,0,0,1,180.58,46.48Zm-30.49,11-.11,0h.3l.69.33Zm-1.86,4.64h0l-.39-.19ZM162,44a4.63,4.63,0,0,1-2.15.9l.36-.42A16.16,16.16,0,0,1,162,44ZM146.22,57.23a6.57,6.57,0,0,1,1.54.39,2.17,2.17,0,0,1,.57-.56,19.71,19.71,0,0,1,1.86-1.1c-.22-.13-.07-.21,0-.29l.17-.21c-.7.32-1.4.63-2.13.94A17.09,17.09,0,0,1,146.22,57.23Zm-3.55,3.93-.11,0-.11-.37Zm.2.61.11,0C143,61.88,143,61.86,142.87,61.77Zm1-.23a.53.53,0,0,0-.23-.07Zm7.07,8-.81-1.66.74,1.63Z"/><path d="M328.3,53.74,328,53.4c.13-.25.38-.3.69-.22a4.27,4.27,0,0,0-4.95-.41,5.22,5.22,0,0,0-1.06.72,8,8,0,0,0-.9,1,9.59,9.59,0,0,0-1.34,2.43c-.88.11-1.28,1.25-.92,2.4a2.31,2.31,0,0,0,2.12,1.84,2.12,2.12,0,0,1,.65.29,16,16,0,0,0,2.54,1.81c.41.25.82.43,1.24.65s.83.41,1.23.58l-1.1-.89a2.79,2.79,0,0,0,1.42.37l-.33-.62a2.35,2.35,0,0,0,2.48.38,3.16,3.16,0,0,0,1.58-2.34c.59-2.47-.18-5.64-2.13-7Z"/><path d="M323.47,47.43a24.56,24.56,0,0,1,3.71,1.83l.28.39L327,47.8v.12a7.14,7.14,0,0,1-3.34,3.43l-.43.38a1.58,1.58,0,0,0-.18,1.07,1.83,1.83,0,0,0,1.46,1.64h.77c2,.58,4.65.36,5.17-3A7.77,7.77,0,0,0,330,48.9a2.15,2.15,0,0,0-2-2.15,1.86,1.86,0,0,0-1.45,2.37c-.18-.06-.37-.13-.55-.17.09-.19.2-.34.29-.51,0,1.09-.84,1.56-1.33,2.26l-.86.51,1.24,2.71.38-.47c-.07-.12-.18-.28-.18-.29.35-.49.7-1,1.08-1.45a7.11,7.11,0,0,1,1.24-1.15l1.1-1.25a1.71,1.71,0,0,0-.4-1.86l-.71-.53.34.32c-.75-.21-1.52-.36-2.29-.51s-1.55-.2-2.33-.39a.42.42,0,0,0-.53.41A.65.65,0,0,0,323.47,47.43Z"/><path d="M328.31,46.09c.27.19.52.39.84.28a1.68,1.68,0,0,1,.1-.25l-.53-.43C328.34,45.39,328.22,45.69,328.31,46.09Z"/><path d="M329.25,46.12l.21.17L329.3,46l0,0Z"/><path d="M313.81,175.73a77.86,77.86,0,0,0,35.06,6.48,66.38,66.38,0,0,0,17.29-3.29,68,68,0,0,0,16-7.89c.68-.43,1.18-.9,1.12-1s-.59.19-1.22.58a66.89,66.89,0,0,1-15.85,7.85,65.54,65.54,0,0,1-17.12,3.29,73.83,73.83,0,0,1-17.65-1.12,82.28,82.28,0,0,1-17.14-5.22,3.29,3.29,0,0,0-1.55-.4C312.63,175.09,313.11,175.42,313.81,175.73Z"/><path d="M410.07,68.25c.41.54.49.46.2-.18a12.46,12.46,0,0,0-1.25-2c-.36-.44-.46-.35-.18.18A14.88,14.88,0,0,0,410.07,68.25Z"/><path d="M420.16,69.81c2.18,3.71,4,7.38,5.63,10.69a15.11,15.11,0,0,1,.71,1.91c.06-.29.53.42,1.1,1.89a91.55,91.55,0,0,1,5.91,23.07,90.07,90.07,0,0,1-.48,24.79c-.27,2.09-.77,4.12-1.16,6.19l-.77,3.07c-.25,1-.52,2-.86,3.05-.66,2-1.2,4.1-2,6.07s-1.51,4-2.46,5.93A96.29,96.29,0,0,1,412,178.23a3.94,3.94,0,0,1-.61,1.42,37.56,37.56,0,0,1-3.17,4.1c-.7.81-1.54,1.59-2.4,2.43s-1.77,1.7-2.75,2.48l-3,2.32a96.34,96.34,0,0,1-19.78,11.65,90.6,90.6,0,0,1-22,6.44c-.76.2-1.55.43-2.37.6l-2.56.47-2.73.45c-.93.11-1.89.19-2.87.27A106.06,106.06,0,0,1,308,208.14c.77.4,1.21.73,1.14.92-.38.37-3.55-.14-7.05-1.39-1.75-.65-3.53-1.23-5.26-1.94a122.85,122.85,0,0,0,15.2,5.36c.75.2,1.44.41,2.06.61a109.54,109.54,0,0,0,17.82,2.72,99.61,99.61,0,0,0,39.23-5.11,95.32,95.32,0,0,0,32.94-19.66,104.54,104.54,0,0,0,12.54-13.86A102.51,102.51,0,0,0,426.11,160a98.69,98.69,0,0,0,6.25-17.09,96.15,96.15,0,0,0,2.89-17.65,18.88,18.88,0,0,1,.26-2.68c.13-.45.25-.36.24.52a100.66,100.66,0,0,1-2.74,22,93.69,93.69,0,0,1-7.58,21,96.54,96.54,0,0,1-13,19.58A95.4,95.4,0,0,1,393.13,203c-1.11.81-2.31,1.48-3.48,2.21s-2.33,1.47-3.56,2.11c-2.44,1.29-4.87,2.64-7.44,3.73a100.61,100.61,0,0,1-15.8,5.61A110,110,0,0,1,329.71,220,121.7,121.7,0,0,1,313.13,218l-4.08-.87-2.05-.44-2-.54-4-1.09-4-1.28c-2.68-.82-5.26-1.9-7.91-2.89-1.3-.53-2.58-1.11-3.87-1.67s-2.6-1.12-3.85-1.77l-3.8-1.9c-1.27-.64-2.49-1.37-3.74-2.06-2.49-1.37-4.95-2.88-7.37-4.47a121.9,121.9,0,0,1-26.68-25.17,102.15,102.15,0,0,1-10.31-16.28,93.48,93.48,0,0,1-7.06-18.8,102.71,102.71,0,0,1-2-39.31,122.2,122.2,0,0,1,11.21-36.93,123.74,123.74,0,0,1,13.85-22.47A128.12,128.12,0,0,1,263.48,20.9c.81-.75,1.69-1.41,2.54-2.11l1.3-1,.29-.25.95-.84c.64-.55,1.28-1.11,1.93-1.65q2-1.54,4-3l2.05-1.49c.69-.49,1.41-.93,2.12-1.39q2.15-1.37,4.32-2.7c1.46-.88,3-1.65,4.5-2.46s3-1.64,4.63-2.32A11.61,11.61,0,0,1,299.08.07a6.28,6.28,0,0,1,4.81,3,6.2,6.2,0,0,1-.72,6.39l1.11-.35,1.88-.19a6.59,6.59,0,0,1,4.66,1.2l1.62,1.17c2.38,2.41,5.44,4.13,7.31,6.9l0,1.2.36.27a5.58,5.58,0,0,1,2.41,2.77l.18,1.41a14.36,14.36,0,0,1-.4,4.73,5,5,0,0,1,.13,1.75,7.16,7.16,0,0,1,1.35,4.48,1,1,0,0,1,.18,1.38.84.84,0,0,1-.41.29h0a9.69,9.69,0,0,0,.64.79c.34.07.54.13.54.13.88.1.88.1,1.64.21a4.46,4.46,0,0,1,1.2,1c1.09,2.39,1.07,2.4,1.15,3.49a2.72,2.72,0,0,1-.07.33l.76.39a2.6,2.6,0,0,1,.3.37c.11.58.11.58.23.78a2.9,2.9,0,0,1,.08.44c-.18.69-.17.69-.15.88a2.09,2.09,0,0,1-.11.34l-.44.39-.94-1.39-.06.54-.29-.66.21.61-.42-.32.5.49c-.87-.1-.87-.1-1.19,0a1.11,1.11,0,0,0-.66.19,2.69,2.69,0,0,1,.1.33c-.93-.1-.93-.13-1.84-.18q-.16-.18-.3-.36a.36.36,0,0,1-.36.32h-.48l-.07.11v.05l-.3.38-.06.09h0l-1.29,1.62a5.27,5.27,0,0,1-.81-.12,3.15,3.15,0,0,1,.29.22c.2.17.23.73.31.77a15.53,15.53,0,0,0,3.15.69c.51.06,1,.1,1.52.14l1.53.24c.32-.11.7.17.83.61a.8.8,0,0,1-.36,1,8.88,8.88,0,0,1-1.23,1.16,12.07,12.07,0,0,1-1.31,1,9.19,9.19,0,0,1-2.87,1.13,15.44,15.44,0,0,1-6.54.08,21.23,21.23,0,0,0-3.27.44l.26.19-.94,0h-.09l1,.66.51.09A10.83,10.83,0,0,1,317.6,56c.64.08,1.26.15,1.89.27s1.26.25,1.87.34A15.81,15.81,0,0,1,325.17,58c.29,0,.57.31.65.72s-.1.72-.38.72a13.74,13.74,0,0,1-11.43.19,2.88,2.88,0,0,1-2.19-.06h0l.78.58c-.57,0-1.15-.49-1.72-.51l.69.92c-1.31.3-2.58.82-3.89,1.26a10,10,0,0,1-4.13.89,2.84,2.84,0,0,1-.31.06,14.1,14.1,0,0,1-.73,1.82c-.07.14-.14.28-.22.41a.59.59,0,0,1-.08.11l-.45.36-.91.71c-1.2,1-2.38,2.06-3.7,3.07.93-.64,1.85-1.27,2.76-1.91a14.45,14.45,0,0,1,1.39-.91l1.35-.8a3,3,0,0,1-.26.23l-.34.28-.69.57c-.48.36-.89.79-1.34,1.19-.86.82-1.79,1.58-2.67,2.41s-1.73,1.69-2.65,2.52-1.74,1.79-2.67,2.67a111.19,111.19,0,0,0-13.38,16.32c-3.9,5.55-6.69,10.88-9,14.28a56.13,56.13,0,0,0-1.28,20,43.51,43.51,0,0,0,2.21,9.19,50.7,50.7,0,0,0,4.25,8.88,67.74,67.74,0,0,0,13.82,16.11,77.14,77.14,0,0,0,8.94,6.66,88.45,88.45,0,0,0,9.81,5.54,7.06,7.06,0,0,1,2.73,1.78c0,.32-1,.11-2.42-.53a89.4,89.4,0,0,1-14.33-8,78.77,78.77,0,0,1-12.33-10.47c-7.34-7.74-12.49-16.76-14.42-26.05a52.11,52.11,0,0,0,10.05,23.08,78.35,78.35,0,0,0,20.84,19.07l3.24,1.88c1.09.63,2.23,1.15,3.34,1.74s2.21,1.12,3.31,1.66,2.19,1.15,3.31,1.64c23,9.73,48.9,9.79,69.71-4a73.66,73.66,0,0,0,21.25-21.68,72.94,72.94,0,0,0,6.53-13.41,69.27,69.27,0,0,0,2.24-7.32c.28-1.27.64-2.52.84-3.81s.49-2.57.64-3.89c2-14.67-.75-29.11-6.84-42.23a86,86,0,0,0-5.16-9.5C399,70.85,398,69.37,397,68c-.49-.66-1-1.33-1.26-1.6L394,64.52a69.15,69.15,0,0,0-17-12.93c-3.47-1.84-6.76-3.54-7.05-4.14s2.6.06,6.25,1.83A69.51,69.51,0,0,1,395.2,62.66c.69.67,1.33,1.4,2,2.09a10.8,10.8,0,0,1,.73.81c.26.32.54.67.82,1,1.14,1.48,2.27,3.12,3.34,4.78a87.61,87.61,0,0,1,5.73,10.53,81,81,0,0,1,6.65,22.83,72.33,72.33,0,0,1-.72,23.57l-.28,1.46-.35,1.46c-.25,1-.43,1.94-.74,2.9l-.84,2.88-1,2.79c-.6,1.89-1.5,3.67-2.25,5.5-.4.91-.9,1.78-1.34,2.67s-.86,1.79-1.4,2.63a72.86,72.86,0,0,1-15.1,18.57A71.51,71.51,0,0,1,370,181.93c-.93.39-1.89.7-2.83,1l-1.41.52c-.48.17-1,.28-1.45.43l-2.89.84-3,.66c-.49.1-1,.23-1.48.32l-1.51.23c-1,.14-2,.33-3,.45-2,.17-4.07.44-6.13.44a79.9,79.9,0,0,1-21-2.06c.07.11.14.22.12.31-.07.36-.8.53-2,.54a89.74,89.74,0,0,0,12,2.21c2,.16,4,.43,6.08.44,1,0,2,.12,3.05.09l3-.05a73.66,73.66,0,0,0,31.75-10.42,80.91,80.91,0,0,0,25.17-24l1.65-2.59c.27-.44.57-.85.82-1.29l.74-1.33,1.47-2.64c.44-.9.87-1.8,1.3-2.69l.66-1.34c.2-.45.37-.92.56-1.37.38-.92.76-1.83,1.13-2.74s.66-1.86,1-2.79l.49-1.4.41-1.41a76.57,76.57,0,0,0,3.33-23.11,82.91,82.91,0,0,0-7.53-28.95,88,88,0,0,0-7.46-13.14c-.7-1-1.43-2-2.16-3-.35-.45-.78-1-1-1.21l-1.25-1.33a72.7,72.7,0,0,0-5.38-5.15,7.72,7.72,0,0,1-1.4-1.31c-.16-.25.23,0,.87.45a71.06,71.06,0,0,1,7.65,6.94l.33.37.38.45.8,1c.54.68,1.06,1.37,1.59,2.09,1,1.42,2,2.91,3,4.43a87.86,87.86,0,0,1,9.28,19.72c-.36-2.3-.41-3.76.07-3.73s1.5,1.61,2.56,4.23a92.35,92.35,0,0,0-3.31-9.7c-.8-2-1.34-3.55-1.11-3.59s1.12,1.4,1.9,3.28a83.71,83.71,0,0,1,6,41.11A81.71,81.71,0,0,1,416,146.51a80.6,80.6,0,0,1-5.73,11.17,84.94,84.94,0,0,1-7.47,10.15,22.1,22.1,0,0,1,4.13-3h0c1.68-2.06,3.09-4.3,4.56-6.48a86,86,0,0,0,11.3-34.2,84.9,84.9,0,0,0-4-35.89,93.49,93.49,0,0,0-7.42-16.73,87,87,0,0,0-4.89-7.74c-.87-1.24-1.79-2.47-2.71-3.57l-.32-.37-.38-.41-.78-.83c-.53-.54-1-1.12-1.58-1.64a80.19,80.19,0,0,0-31.06-19,4.69,4.69,0,0,1-1.64-.72,3.85,3.85,0,0,1,1.57.34,84.17,84.17,0,0,1,20,9.82,73.25,73.25,0,0,1,8.73,6.84c.71.59,1.34,1.26,2,1.9l1,1,.94,1,.95,1,.47.5.4.47c.56.67,1.13,1.39,1.67,2.12l0-.05c-.3-.51-.28-.67.17-.19a11.66,11.66,0,0,1,1.35,1.88c.33.61.2.62-.17.19a93.62,93.62,0,0,1,15.49,38,84.3,84.3,0,0,1-3.42,40.52,85.92,85.92,0,0,0,4.43-18.49,85,85,0,0,0,.13-19,93.25,93.25,0,0,0-11.94-36c-1.52-2.33-3.13-4.59-4.87-6.79a12.09,12.09,0,0,1-1.13-1.72c-.06-.22.36.15.85.76s1,1.22,1.44,1.83c-1.37-2-2.56-3.75-3.42-4.92s-1.37-2.07-1.16-2.22,1.23.55,2.54,1.7a32.79,32.79,0,0,1,4.2,5.12,93.7,93.7,0,0,1,15.42,37.81c.28,1.46.48,2.93.71,4.4s.49,3,.63,4.45a90.5,90.5,0,0,0-7.19-31.17,95.67,95.67,0,0,0-7.42-14.23,72.45,72.45,0,0,0-4.65-6.58,79.48,79.48,0,0,0-5.56-5.87c-1.38-1.23-2.47-2.37-2.38-2.54s1.32.7,2.73,1.93l2.63,2.43L407.64,56a62.26,62.26,0,0,1,4.54,5.7A99.48,99.48,0,0,1,419.63,74a95.12,95.12,0,0,1,9.13,27.42,86.36,86.36,0,0,1-.06,29.28A84.91,84.91,0,0,1,425,145c-.73,2.37-1.78,4.62-2.69,6.93-.5,1.13-1.08,2.24-1.61,3.36s-1.08,2.24-1.72,3.3a92.26,92.26,0,0,1-24.4,31.65l2.14-1.52,2.05-1.65a87.52,87.52,0,0,0,31.1-53.28,92.51,92.51,0,0,0,.28-29.84,102.46,102.46,0,0,0-9.12-28.81,6.89,6.89,0,0,1-.74-1.9c.05-.14.44.45.89,1.4a102.13,102.13,0,0,1,9.28,28,90.28,90.28,0,0,1-2.73,42.19l-.93,3c-.35,1-.74,2-1.11,2.94s-.73,2-1.13,2.92l-1.29,2.84a97.88,97.88,0,0,1-13,20.84,90.13,90.13,0,0,0,13.54-20.55,92.43,92.43,0,0,0,7.43-23,93.46,93.46,0,0,0,1.38-11.9c.15-2,.11-4,.13-6s-.1-4-.29-6a96.63,96.63,0,0,0-4.81-23.32,32.57,32.57,0,0,1-1.09-3.51,2.22,2.22,0,0,1-.41-.69c-1.63-3.63-3.54-7.5-5.7-11.32a12.38,12.38,0,0,1-1-2.11C419.33,68.61,419.66,69,420.16,69.81ZM312.75,43.66l.19.14-.54-.16-1.1-1.06S312,43.1,312.75,43.66Zm6-7.32h0l.58.67Zm-47.9,108.5a46.69,46.69,0,0,1-5.68-17.08,50.52,50.52,0,0,1,1.21-18.08,57.38,57.38,0,0,0-.73,8.88c-.11,1.14-.09,2.26-.14,3.39s0,2.26.09,3.36a49.48,49.48,0,0,0,.8,6.58A53.47,53.47,0,0,0,270.82,144.84ZM319.25,47a15,15,0,0,1-2.39-1.92,3.18,3.18,0,0,1-1.25.58,33.41,33.41,0,0,1-3.67.81c.34.4,0,.45-.07.55l-.39.27c1.35-.14,2.69-.24,4-.32A20.09,20.09,0,0,1,319.25,47Zm8.07-3.78.14.16-.09.76Zm.15-1.3-.2-.07C327.29,41.58,327.36,41.67,327.47,41.93Zm-1.86-.64a1.65,1.65,0,0,0,.32.35Zm-5.9-21v3.82l.12-3.69Z"/></g></g></svg>