<svg xmlns="http://www.w3.org/2000/svg" viewBox="0 0 501.61 248.58"><g id="Layer_2" data-name="Layer 2"><g id="Layer_1-2" data-name="Layer 1"><path d="M246.34,40.87c.2-.07.41-.12.61-.18a1.67,1.67,0,0,1-.69,1.15,14.94,14.94,0,0,0,6.41-5.93,26.14,26.14,0,0,0,3.17-8.08c1.23-1.1,1.72-2.73,1-3.73s-2.43-.93-3.75.23a5.11,5.11,0,0,1-1.11.47,18.31,18.31,0,0,0-4.68,1.35,27.41,27.41,0,0,0-4.59,2.54l2.16-.84a10.7,10.7,0,0,0-2.51,1.94l.78.13c-3.49,1.59-5.95,5.8-5.27,9s3.87,4.24,7,2.6Z"/><path d="M255.51,40.71c-1.71.87-3.49,1.66-5.21,2.55l-.55,0,1.62,1-.08-.1c-.37-2.22.77-4.74,2-6.93l.37-.85a1.57,1.57,0,0,0-.25-1.26c-.55-.75-1.72-.7-2.62.11l-1,.95c-3,1.9-6.25,6.3-4.52,9.59.4.74,1.39.95,2.17,1.36a2.58,2.58,0,0,0,3.53-.85,2.7,2.7,0,0,0,.07-3.69c.23-.17.46-.35.7-.5,0,.25,0,.52,0,.78-.63-1,.1-2.31.32-3.53.26-.5.52-1,.8-1.48L250,36.8l-.25.93a3.45,3.45,0,0,1,.37.06A47.55,47.55,0,0,1,248.73,43c-.15.82-.31,1.62-.42,2.44a1.2,1.2,0,0,0,1.64,1c.36-.15.71-.3,1.08-.44l-.56.15c.92-.72,1.82-1.49,2.7-2.25a33.5,33.5,0,0,1,2.77-2.09.81.81,0,0,0,.39-.91A.54.54,0,0,0,255.51,40.71Z"/><path d="M251.13,47.18a1.88,1.88,0,0,0-1,.78l.08.31L251,48C251.57,47.76,251.48,47.39,251.13,47.18Z"/><path d="M250.18,48.27l-.34.13h.34v-.12Z"/><path d="M283.4,184.47l-2.58,1.89c-.83.64-1.62,1.3-2.44,1.95-1.61,1.32-3.31,2.59-4.78,4l-2.28,2a29.44,29.44,0,0,0-2.22,2.08l-.5.52-.17.18-.33.36c-.21.25-.61.55-.87.86a23.38,23.38,0,0,0-3.1,4.07,6.17,6.17,0,0,0-.77,2.45,3.83,3.83,0,0,0,.64,2.44,11.86,11.86,0,0,0,4,3.13,27.14,27.14,0,0,0,4.82,2.07,3.21,3.21,0,0,0,.36.11l.49.14,1.35.42c.92.27,1.85.48,2.77.73,1.87.43,3.76.84,5.7,1.12a84,84,0,0,0,11.84,1,5,5,0,0,0,2-.23c0-.11-.79-.22-1.79-.21a83.21,83.21,0,0,1-11.79-1c-1.92-.28-3.8-.68-5.66-1.1l-2.75-.71c-.84-.26-2-.63-2.31-.7a27.33,27.33,0,0,1-4.58-2,11.77,11.77,0,0,1-3.86-2.93,3.6,3.6,0,0,1-.68-2.29,5.7,5.7,0,0,1,.68-2.34,20.53,20.53,0,0,1,2.91-3.87,11.05,11.05,0,0,1,.85-.83l.3-.34.16-.17.07-.08.24-.24,1-1.06,1.14-1,2.27-2c.78-.67,1.47-1.37,2.3-2l2.44-1.95,2.42-1.95,2.57-1.89A6.25,6.25,0,0,0,285,183.6C285,183.45,284.26,183.84,283.4,184.47Z"/><path d="M454.22,177.38c-1,0-.93.1,0,.26s2.35.37,3.3.46.81,0,0-.26A15.19,15.19,0,0,0,454.22,177.38Z"/><path d="M446.35,185.39a61,61,0,0,0-13.21,3.43c-.75.28-1.6.52-2.25.7.33.07-.55.52-2.26,1.17-16.91,6.44-33.59,15.6-51.13,24.73-8.78,4.56-17.81,9.08-27.25,13.13a193.65,193.65,0,0,1-29.6,10.16,6,6,0,0,1-1.67.83,42.2,42.2,0,0,1-6.13,1.74c-1.31.26-2.72.51-4.2.75s-3,.37-4.59.52-3.16.18-4.75.23a116.37,116.37,0,0,1-14.45-.32,98,98,0,0,1-14.45-2.27l-1.79-.42-1.79-.49-2-.56a17.92,17.92,0,0,1-2.23-.69c-1.47-.53-2.95-1-4.4-1.58l-4.31-1.76a67.13,67.13,0,0,1-15.12-9.43,28.28,28.28,0,0,1-5.26-5.28,19.41,19.41,0,0,1-3.52-7.64,21.84,21.84,0,0,1-.43-7.42,30.58,30.58,0,0,1,1.7-7.19,33.42,33.42,0,0,1,3.3-6.89c1.48-2.23,3-4.46,4.45-6.7.75-1.12,1.48-2.26,2.35-3.34.43-.55.82-1.11,1.27-1.66l1.42-1.66,2.56-3c.67-.83,1.39-1.58,2.1-2.33l4.33-4.55c1.47-1.48,3-2.87,4.5-4.31-.88.58-1.48.86-1.61.7-.07-.55,2.56-3.54,6.06-6.27,1.74-1.42,3.47-2.9,5.23-4.2-1.29.91-2.56,1.9-3.83,2.91l-3.82,3c-2.53,2-5,4.23-7.5,6.35-.69.67-1.35,1.27-2,1.8l-3.93,3.87c-.66.64-1.26,1.38-1.89,2.06l-2.67,3c-.45.51-.94,1-1.35,1.53l-1.21,1.53c-.83,1-1.55,2.07-2.27,3.12L232.43,189l-1.2,1.74c-.35.59-.65,1.19-1,1.78a31,31,0,0,0-1.66,3.63c-.49,1.22-.88,2.45-1.28,3.69s-.61,2.51-.82,3.78a30.94,30.94,0,0,0-.36,3.86,25.61,25.61,0,0,0,.24,3.9,22,22,0,0,0,.87,3.82c.19.62.41,1.23.64,1.83s.54,1.17.83,1.74a27.91,27.91,0,0,0,4.36,6.16,34.36,34.36,0,0,0,2.73,2.66c1,.83,2.09,1.6,3.13,2.41a68.13,68.13,0,0,0,14.37,7.86l3.92,1.5,4,1.3c.66.21,1.32.45,2,.64s1.3.32,1.95.47l3.09.74a105.42,105.42,0,0,0,12.2,1.83,115.78,115.78,0,0,0,23.87-.41c15.62-1.93,30-6.6,43.33-12.28s25.76-12.34,37.87-18.83a21.41,21.41,0,0,1,2.79-1.34c.52-.15.49,0-.38.5-15,8.55-29.28,17.13-45.7,24.27a159.66,159.66,0,0,1-26.68,9.05,115.75,115.75,0,0,1-31.95,3.21c-.86,0-1.72-.06-2.59-.12l-2.59-.21c-1.73-.12-3.47-.37-5.21-.59s-3.48-.56-5.22-.85c-.87-.14-1.74-.35-2.61-.54l-3.06-.71a11.4,11.4,0,0,1-1.82-.5l-1.79-.57-3.59-1.16-3.54-1.32-1.77-.66a12.13,12.13,0,0,1-1.73-.73l-3.34-1.66c-1.12-.55-2.25-1.09-3.28-1.73l-3.18-1.85c-.52-.32-1.09-.6-1.56-.95l-1.39-1.08A48.88,48.88,0,0,1,230,228.8a35.55,35.55,0,0,1-4.19-5.16l-.89-1.41c-.27-.48-.54-1-.79-1.47a26.15,26.15,0,0,1-1.39-3.1c-.37-1.08-.73-2.18-1-3.29s-.48-2.26-.61-3.4a33.94,33.94,0,0,1,1.21-13.49,36.15,36.15,0,0,1,2.43-6.53l.78-1.61c.31-.53.66-1.05,1-1.57l2-3.14,4.09-6.31a56.18,56.18,0,0,1,4.82-6.26l2.54-2.93c.56-.65,1.1-1.34,1.68-2l3.5-3.7c2.32-2.53,4.75-4.77,7.18-7.08l1.82-1.73L256,153l3.71-3.23c9.93-8.48,20.08-15.78,29.69-22.8,10.25-7.05,19.63-13.73,27.68-20.64,1-.84,2-1.72,2.93-2.6l2.84-2.61c.95-.86,1.75-1.77,2.64-2.65l2.58-2.65a63.27,63.27,0,0,0,7.71-10.27c.55-.84.91-1.67,1.38-2.48s.81-1.62,1.08-2.39a23.68,23.68,0,0,0,1.36-4.31,15.17,15.17,0,0,0,.36-3.48,11.72,11.72,0,0,0-.39-2.6,15.14,15.14,0,0,0-2.69-4.92,16.63,16.63,0,0,0-5-4.21A20.05,20.05,0,0,0,323,59.15a25.56,25.56,0,0,0-5.39.49,26.07,26.07,0,0,0-5.2,1.65c-.41.19-.81.34-1.23.58l-.64.31a.38.38,0,0,0-.11.08l-.35.28q-.35.27-.69.51c-.46.4-.93.71-1.38,1.1a58.3,58.3,0,0,0-5.5,4.91,2.56,2.56,0,0,1-2.77,1,9.14,9.14,0,0,1-4.22-2,8.59,8.59,0,0,1-3.26-5l-.46.43-1,.43a5,5,0,0,1-3.47.05l-1.66-.42c-2.92-1.12-5.92-1.22-9-2.29l-.81-.87h-.41a6.42,6.42,0,0,1-3.43-.64L271,58.81a13.17,13.17,0,0,1-3-3.7,5,5,0,0,1-1.27-1.23,6.78,6.78,0,0,1-4-2.4.93.93,0,0,1-1-.93,1.18,1.18,0,0,1,.14-.58h0a8.43,8.43,0,0,0-1.06-.06c-.33.24-.54.37-.54.37-.81.7-.81.7-1.54,1.31a5.38,5.38,0,0,1-1.7.39c-2.62-.67-2.63-.65-3.47-1.37-.06-.11-.11-.21-.16-.32-.71.41-.77.44-1,.54a2.69,2.69,0,0,1-.56.07c-.51-.29-.51-.29-.77-.3a2.75,2.75,0,0,1-.39-.21c-.32-.7-.32-.7-.47-.81a2.13,2.13,0,0,1-.14-.38c.11-.52.16-.72.18-.81l1.87,0-.31-.48.72.18-.61-.24.62-.22-.81.19a7.2,7.2,0,0,0,1.2-1.33,2.52,2.52,0,0,0,.53-.89,1.63,1.63,0,0,1-.3-.16c1-.95,1-1,2-1.83a4.38,4.38,0,0,1,.52,0,.64.64,0,0,1,.22-.64l.52-.47a.88.88,0,0,1,0-.17l0,0,.13-.65v-.14h0l.65-2.77a8.84,8.84,0,0,1,1-.69l-.44.07c-.3,0-.59-.48-.71-.43a35.33,35.33,0,0,0-7.74,6,1.12,1.12,0,0,1-1.31.58.89.89,0,0,1-.22-1.31,20.89,20.89,0,0,1,5.19-9.86,27.29,27.29,0,0,1,9.29-6.56c1.6-1,3.14-2,4.76-3l-.39-.06,1.4-.55.14-.08-1.5-.12-.78.25c-3.63,2.39-7.64,3.89-11.36,6.27-2,1.28-4.07,2.08-6.06,3.3-.41.4-1,.47-1.23.15s-.14-.89.27-1.29c4.25-6.15,11.36-11.66,18.22-12.49a7.44,7.44,0,0,1,3.56-1.45l.06,0-1.17-.2c.94-.42,1.78-.17,2.72-.43l-.95-.75c4.51-2.21,9.14-5.2,14.09-5.65a4.58,4.58,0,0,1,.53-.14,31.22,31.22,0,0,1,2.36-2.21l.66-.51c.08,0,.07,0,.23-.13l1.29-.54c.87-.35,1.73-.72,2.63-1a78,78,0,0,1,11.48-3.25c-1.37.26-2.73.51-4.08.79s-2.7.64-4,1-2.66.78-4,1.2l-3.66,1.27,0,0,.23-.1.51-.21,1-.44c.69-.28,1.37-.58,2.07-.85,1.42-.51,2.84-1,4.28-1.51a79,79,0,0,1,8.81-2.27,75.8,75.8,0,0,1,45.21,5,72.52,72.52,0,0,1,12.11,6.89A66.85,66.85,0,0,1,379.3,31.83a62.9,62.9,0,0,1,5.13,10,53.1,53.1,0,0,1,4,17.51c.22,1.07.42,2.14.55,3.25s.3,2.18.39,3.29l.18,3.33c.07,1.12,0,2.18,0,3.28a60.25,60.25,0,0,1-.48,6.46c-.12,1.07-.33,2.1-.5,3.15s-.37,2.1-.63,3.1l-.75,3-.91,2.94c-.3,1-.64,1.94-1,2.87s-.71,1.88-1.1,2.8a85.5,85.5,0,0,1-5.27,10.33,104.23,104.23,0,0,1-13.09,17.25c-2.37,2.54-4.85,5-7.29,7.2l-3.67,3.35c-1.23,1.13-2.5,2.1-3.75,3.16a317.32,317.32,0,0,1-30.42,21.79c-10,6.5-19.79,12.54-28.7,18.86a14.09,14.09,0,0,1-4.06,2.33c-.35-.08.71-1.14,2.53-2.47,12.59-9.35,27-18.11,41.58-28.31a253.23,253.23,0,0,0,21.68-17l5.23-4.86c1.74-1.67,3.48-3.47,5.16-5.3a107.91,107.91,0,0,0,9.52-11.94,100.8,100.8,0,0,1-8.14,9.89c-.71.77-1.43,1.53-2.16,2.26s-1.45,1.5-2.2,2.2l-2.24,2.13-2.24,2-4.49,3.93-4.61,3.66-2.3,1.82-2.34,1.7-4.67,3.41c-12.52,8.74-25.26,16.24-37.24,23.9l-4.53,3-4.44,3-4.31,3c-1.42,1-2.91,1.92-4.28,2.92L278.33,184l-4.85,4c-1.6,1.36-3,2.79-4.57,4.18l-1.14,1c-.37.35-.7.73-1,1.09l-.46.49-.23.26-.47.53c-.29.36-.75.75-1.08,1.15l-1,1.26a28.46,28.46,0,0,0-2,2.57,12.41,12.41,0,0,0-1.43,2.87,5.9,5.9,0,0,0-.22,3.17,5.45,5.45,0,0,0,1.64,2.72,13.55,13.55,0,0,0,2.63,1.88,31.76,31.76,0,0,0,5.85,2.73c.51.19,1,.33,1.54.49l.77.24.46.11.64.17,1.39.4,1.43.33c.95.21,1.9.45,2.88.61a74.82,74.82,0,0,0,12,1.31,95.77,95.77,0,0,0,10.46-.25c3.46-.3,6.83-.71,10.26-1.35a141.91,141.91,0,0,0,20.22-5.35c13.42-4.54,26.65-10.77,41.13-17.82,10.19-4.95,20.4-9.93,31-14.38,5.29-2.22,10.68-4.31,16.19-6.17A124.05,124.05,0,0,1,438,167.48a59.84,59.84,0,0,1,21-.37,44.37,44.37,0,0,1,21,9.81,55.74,55.74,0,0,1,13.37,16.94A76.69,76.69,0,0,1,500,212.79c1.51,6.65,1.83,12.48,1.5,13.26s-1.23-3.56-2.54-10a81.14,81.14,0,0,0-6.38-19.3,54.71,54.71,0,0,0-13.31-17.5,43.65,43.65,0,0,0-9.92-6.45,42.79,42.79,0,0,0-11.42-3.43,60.2,60.2,0,0,0-21.49,1c-3.28.69-6.42,1.54-9.45,2.47s-5.9,1.9-8.81,2.93c-5.79,2.08-11.43,4.37-17,6.78-11,4.82-21.66,10.09-32.14,15.1s-20.85,9.77-31.38,13.61a142.48,142.48,0,0,1-31.88,8,87.92,87.92,0,0,1-31.51-1.88l-1.86-.54c-.51-.14-.89-.23-1.28-.36-.77-.27-1.56-.48-2.32-.79s-1.53-.58-2.27-.93-1.49-.69-2.22-1.08-1.43-.79-2.14-1.21a17.47,17.47,0,0,1-2-1.39,6.85,6.85,0,0,1-2.7-4,7.16,7.16,0,0,1,.56-4.16,17.19,17.19,0,0,1,2.13-3.64c.87-1.11,1.76-2.18,2.64-3.26.42-.53,1-1,1.4-1.49s.68-.78,1.64-1.78c-.14,0-.29,0-.35,0-.26-.25.06-1.16,1-2.38-.49.46-1,.9-1.45,1.39l-1.2,1.26c-.53.57-1.05,1.15-1.69,1.77-1.16,1.29-2.24,2.65-3.37,4a19,19,0,0,0-2.69,4.53,7.38,7.38,0,0,0-.29,5.19,8,8,0,0,0,2.34,2.87,19.06,19.06,0,0,0,3.12,2,40.37,40.37,0,0,0,6.67,3c1.13.42,2.29.73,3.43,1.06l.47.11.54.14,1.3.35c.87.24,1.77.39,2.65.6a79.46,79.46,0,0,0,10.9,1.55,100.72,100.72,0,0,0,11.28.2q5.72-.27,11.47-1.1a155.08,155.08,0,0,0,23.53-5.56,334.58,334.58,0,0,0,31.52-12c10.24-4.37,20.37-8.94,30.89-13.28,6.55-3,13.22-5.86,20.08-8.44q5.14-1.93,10.44-3.62a110.18,110.18,0,0,1,11.09-2.95A63.85,63.85,0,0,1,449.62,172a43.75,43.75,0,0,1,12.93,1.68c1.09.29,2.15.72,3.22,1.09s2.11.86,3.11,1.4a39.13,39.13,0,0,1,5.74,3.51,46.24,46.24,0,0,1,9.23,9.14,16.44,16.44,0,0,1,1.79,2.7c.18.46-.28-.1-1.09-1.19a45.44,45.44,0,0,0-13.12-12,37.92,37.92,0,0,0-8.55-3.74,40.53,40.53,0,0,0-9-1.56,59.42,59.42,0,0,0-17.09,1.61c-2.69.61-5.31,1.34-7.87,2.14-1.28.39-2.53.81-3.78,1.23s-2.49.86-3.72,1.3c3.24-.77,5.27-.9,5.15-.41s-2.43,1.68-6,3.23c4.46-1.52,8.93-3,13.64-4.12,2.91-.7,5.29-.95,5.25-.7s-2.34.86-5.07,1.53a203.15,203.15,0,0,0-27.16,9.36c-8.79,3.63-17.35,7.64-25.84,11.65-10.13,5-20.15,9.93-30.37,14.28a192.4,192.4,0,0,1-31.36,10.63,30.78,30.78,0,0,1,6.53-.27,0,0,0,0,1,0,0c3.32-.94,6.61-1.92,9.85-3.05,14.84-5.36,29.1-12.49,43.51-19.67s29.1-14.42,44.78-19.78c7.79-2.65,16-5.07,24.86-5.3a38.71,38.71,0,0,1,13.29,1.88,34.46,34.46,0,0,1,11.76,6.79c6.81,5.93,11.37,13.84,14.11,22s4,16.6,5,24.78a8.62,8.62,0,0,1,.14,2.38,6.48,6.48,0,0,1-.44-2.09c-1.27-9.86-2.75-20.08-6.91-29.73a49.79,49.79,0,0,0-8.41-13.37,36.76,36.76,0,0,0-13-9.53l.08,0c.79.42.88.58,0,.27s-2.39-.86-3.18-1.2c-1-.34-.83-.43,0-.27a40.75,40.75,0,0,0-14.82-1.49,72.23,72.23,0,0,0-14.13,2.59,212.44,212.44,0,0,0-26.13,9.6c-16.88,7.37-32.81,16.1-49.08,23.61,15.23-6.73,30.09-14.51,45.53-21.26a244.34,244.34,0,0,1,23.65-9.07A105.5,105.5,0,0,1,439,179.31a54.88,54.88,0,0,1,13-1.05,35.66,35.66,0,0,1,11.5,1.92,12,12,0,0,1,2.63,1.33c.22.22-.5-.09-1.54-.49a31.35,31.35,0,0,0-3.09-1.07,25.44,25.44,0,0,1,7.47,3.89c1.66,1.3,2.45,2.29,2.25,2.45-.62.24-5.14-3.11-11.52-4.82a38.11,38.11,0,0,0-13.07-1,70.93,70.93,0,0,0-12.92,2.43A213.25,213.25,0,0,0,409,191.84c-1.74.75-3.46,1.56-5.19,2.34s-3.4,1.72-5.09,2.61c6.21-2.79,12.49-5.44,18.86-7.82,3.18-1.19,6.38-2.31,9.62-3.33s6.47-2,9.75-2.73c6.54-1.5,13.32-2.2,19.8-1a29.84,29.84,0,0,1,9.15,3.34,33.2,33.2,0,0,1,7.63,6.09c1.58,1.6,2.62,3.24,2.5,3.39s-1.32-1.2-2.86-2.79a29.72,29.72,0,0,0-14.26-8.34,39.89,39.89,0,0,0-16.82,0,106.72,106.72,0,0,0-16.85,4.9c-5.57,2-11.07,4.3-16.52,6.73-21.79,9.74-42.79,22.07-66,30.88a180.74,180.74,0,0,1-23.24,8.47A123.39,123.39,0,0,1,294.24,239c1.1,0,2.2,0,3.31-.06s2.22-.06,3.32-.16c14.15-1,27.12-4.57,39.14-9.06a313.69,313.69,0,0,0,33.9-15.67c10.79-5.62,21.31-11.38,32.2-16.58,5.45-2.59,11-5.05,16.68-7.26a119.33,119.33,0,0,1,17.48-5.52,8.39,8.39,0,0,1,2.37-.27c.14.06-.65.31-1.85.53a112.54,112.54,0,0,0-16.92,5.33c-5.51,2.12-10.86,4.51-16.16,7-10.61,5.05-21,10.71-32,16.44-9.15,4.74-18.25,9.28-27.53,13.28a198.52,198.52,0,0,1-28.55,10,176.79,176.79,0,0,0,28.75-9.37c9.12-3.81,17.84-8.08,26.38-12.44,17.05-8.7,33.5-17.79,51.14-24.27a30.73,30.73,0,0,1,4.13-1.29,3.34,3.34,0,0,1,.83-.42,70.24,70.24,0,0,1,14-4,10.48,10.48,0,0,1,2.6-.16C447.93,185.12,447.38,185.24,446.35,185.39Zm-177-149.57-.27,0,.67-.15,1.54.48Zm-3.15,10.67h0l-.89-.17Zm84.46,87c2.15-1.78,4.22-3.75,6.33-5.62s4.19-4,6.22-6.12a106.74,106.74,0,0,0,11.31-14.13,77.72,77.72,0,0,0,8.78-17.26,64,64,0,0,0,3.77-20.64,62.53,62.53,0,0,1-2.95,20.37,81.25,81.25,0,0,1-14.49,25.1,115.67,115.67,0,0,1-9.22,9.86c-.81.74-1.62,1.53-2.43,2.23l-2.43,2.1C353.93,130.75,352.34,132.21,350.67,133.49ZM260.61,37.12a11,11,0,0,1,3.53,0,6,6,0,0,1,1.24-1.51,34,34,0,0,1,4.22-3.15c-.5-.22-.15-.45,0-.63l.42-.51-2.46,1.41-2.46,1.48C263.6,35.12,262.11,36.28,260.61,37.12ZM254,48.3l-.24,0-.41-.7Zm.74,1.15.23-.16C255.12,49.53,255,49.54,254.72,49.45Zm2.14-1.38a1.53,1.53,0,0,0-.52,0Zm18.45,11.64-2.53-2.79c.78.93,1.57,1.84,2.37,2.75Z"/><path d="M7.3,145.3l.59,0a1.28,1.28,0,0,1-.86.8,10.52,10.52,0,0,0,6.84-3.4,16.18,16.18,0,0,0,3.92-6.41A2.47,2.47,0,0,0,19,133.14a2.4,2.4,0,0,0-3.33-.65,4.34,4.34,0,0,1-1,.15,21.94,21.94,0,0,0-8.7.79l2-.07a7.19,7.19,0,0,0-2.48.94l.66.35C2.89,135,.05,137.81,0,140.78s2.63,5,5.84,4.64Z"/><path d="M15.68,147.88c-1.73.31-3.47.55-5.24.79l-.51-.15,1.28,1.41-.05-.11c.13-2.09,1.61-4,3.09-5.68l.47-.66a1.45,1.45,0,0,0,0-1.19,1.76,1.76,0,0,0-2.41-.65c-.37.18-.71.38-1.06.57-3,.88-6.74,3.62-5.93,7,.2.79,1.06,1.32,1.68,1.93a2.53,2.53,0,0,0,3.45.44,2.38,2.38,0,0,0,.82-3.29l.74-.24c-.05.23-.11.47-.17.7-.36-1.09.52-2.07.93-3.1l1-1.12-2.44-1.8-.37.76.32.15A27.12,27.12,0,0,1,9.05,148l-.9,2a1.31,1.31,0,0,0,1.3,1.4l1.09,0-.55-.05c2-.7,3.92-1.67,5.9-2.31a.67.67,0,0,0,.5-.73A.54.54,0,0,0,15.68,147.88Z"/><path d="M10.37,152.44a1.58,1.58,0,0,0-1.13.35v.3h.82C10.65,153.09,10.65,152.74,10.37,152.44Z"/><path d="M9.24,153.09H8.89l.32.1s0-.05,0-.05Z"/><path d="M161.16,103.25c1.13.11,2.26.18,3.37.32l3.35.43,6.69.86,6.65,1.1,3.31.55,3.29.67,6.57,1.35,6.51,1.57,3.25.78c1.08.28,2.14.6,3.22.89l6.41,1.81c.58.15,1.08.22,1.13.11s-.35-.35-.89-.49l-6.42-1.82-3.22-.9-3.24-.79-6.51-1.59-6.56-1.35-3.29-.68-3.31-.56-6.64-1.11c-2.23-.32-4.46-.58-6.69-.87s-4.47-.6-6.73-.76a1.87,1.87,0,0,0-1.2.15C160.18,103.06,160.6,103.2,161.16,103.25Z"/><path d="M280.86,153.38c-.39-.13-.43,0-.1.23a4.76,4.76,0,0,0,1.21.69c.33.1.38,0,.1-.24A4.47,4.47,0,0,0,280.86,153.38Z"/><path d="M273.86,158.6c-1.05-.48-2.07-.95-3.07-1.36s-2-.75-2.93-1.05a5.38,5.38,0,0,1-1-.49c0,.21-.42.15-1.19-.15a321.52,321.52,0,0,0-48.42-15.07,1.69,1.69,0,0,1-.82.27,16.8,16.8,0,0,1-6-.77l-1.75-.55c-1.78-.49-3.59-.88-5.38-1.33s-3.58-.9-5.39-1.25l-5.42-1.09-2.7-.55-2.72-.46a40.76,40.76,0,0,1-5.16-.18c-3.19,0-6.39.11-9.58.14l-9.6.45c.39.17.62.36.61.56s-.49.42-1.09.56a9.8,9.8,0,0,1-2.26.25l-2.6.06c2.48.1,5,.12,7.43.39a9.07,9.07,0,0,1,1,.11c2.73.12,5.49.13,8.3.34a288,288,0,0,1,70.74,12.06,3.75,3.75,0,0,1,1.22.54c.18.17.09.27-.33.15-14.65-3.64-27.75-4.69-44-6.31a221.58,221.58,0,0,0-57.21,1.86,147.75,147.75,0,0,0-28.27,5.77,167.19,167.19,0,0,0-26.57,10.67c-1.5.67-2.91,1.52-4.36,2.27l-4.27,2.27L77,169.16c-1.36.82-2.75,1.56-4,2.46l-1,.65-.49.32-.18.13-.63.47-1.27.93c-.84.62-1.71,1.17-2.51,1.83-1.63,1.27-3.26,2.48-4.92,3.67s-3.19,2.53-4.81,3.76a5,5,0,0,1-4,1.47,6.53,6.53,0,0,1-4.22-2.21A7.43,7.43,0,0,1,47,176.85l-.65.46-1.25.43a5.16,5.16,0,0,1-3.8-.3l-1.65-.68c-2.72-1.58-5.74-2.19-8.48-3.95l-.55-1.05-.4-.11A6,6,0,0,1,27,170.2l-.83-1.15a13.48,13.48,0,0,1-1.88-4.36,4.72,4.72,0,0,1-.9-1.5,6.84,6.84,0,0,1-3.23-3.35,1,1,0,0,1-.77-1.17,1.08,1.08,0,0,1,.27-.49h0a9.81,9.81,0,0,0-1-.36c-.37.13-.6.19-.6.19-.93.42-.93.42-1.76.77a5.15,5.15,0,0,1-1.71-.18c-2.28-1.44-2.29-1.43-2.89-2.35a2.05,2.05,0,0,1-.07-.34c-.77.14-.83.14-1,.17a2.26,2.26,0,0,1-.53-.13c-.41-.43-.41-.43-.64-.52a2.25,2.25,0,0,1-.31-.32c-.13-.73-.12-.73-.24-.88a2.1,2.1,0,0,1,0-.38l.36-.66,1.74.58-.17-.53.62.41-.51-.42h.63l-.79-.1a5.15,5.15,0,0,0,1.4-.81,2,2,0,0,0,.68-.64,1.89,1.89,0,0,1-.25-.24c1.13-.55,1.13-.55,2.24-1.06a4.56,4.56,0,0,1,.48.15.55.55,0,0,1,.32-.52l.56-.29.05-.15,0,0,.24-.56,0-.12h0c.16-.38.39-1,1.08-2.35a7.37,7.37,0,0,1,1-.35l-.42-.06c-.28,0-.46-.59-.58-.57a19.45,19.45,0,0,0-2.13.52c-.68.24-1.36.51-2,.8-1.34.58-2.66,1.23-4,1.85a1,1,0,0,1-1.31.09.82.82,0,0,1,.06-1.23c2.7-6,9.14-9.76,15.48-11,1.51-.58,3-1.19,4.47-1.81l-.34-.11,1.28-.28.12-.05-1.33-.36-.71.09a28.41,28.41,0,0,1-5.29,1.71c-1.8.47-3.61,1-5.41,1.54s-3.91.8-5.9,1.27a.85.85,0,0,1-1.14-.24.81.81,0,0,1,.43-1.05A35.74,35.74,0,0,1,18,132a20.92,20.92,0,0,1,9.17-1.76,5.66,5.66,0,0,1,3.13-.8h0l-1-.36c.82-.26,1.58.14,2.39,0l-.83-.82c2-.67,3.93-1.58,5.88-2.38,1-.39,2-.76,3-1a14.25,14.25,0,0,1,3.06-.48,3.34,3.34,0,0,1,.43-.1,23.49,23.49,0,0,1,1.76-2l.49-.46.15-.11.43-.25.87-.49a38.17,38.17,0,0,1,3.73-1.87c-.93.3-1.83.65-2.73,1l-2.65,1a1.92,1.92,0,0,1,.27-.17l.33-.21.68-.4,1.36-.8c.91-.54,1.85-1,2.81-1.48,1.91-.92,3.89-1.79,6-2.61,11.38-4.37,24.9-6.54,31.65-5.37A245.25,245.25,0,0,1,121.87,104a270.74,270.74,0,0,1,33.9-1.42,4.19,4.19,0,0,1,2.41.56c.11.27-.66.48-1.82.45a264.88,264.88,0,0,0-48.55,4.61,290,290,0,0,1,41.22-2c1.77,0,3.55-.07,5.34,0s3.5.22,5.24.42c17.69,1,34.15,4,51.53,8l2.77.63,2.7.72,5.31,1.41c1.76.45,3.47,1,5.18,1.52l5.12,1.56c3.4,1.07,6.74,2.28,10.17,3.44s6.81,2.57,10.34,3.93a280.28,280.28,0,0,1,27.92,13.11,247.47,247.47,0,0,1,25.84,16.33c2.25,1.62,4.12,3.43,4.13,4s-1.84-.28-4.09-1.88a311.39,311.39,0,0,0-27.75-16.69,317.47,317.47,0,0,0-29.49-13.56,298.84,298.84,0,0,0-31.18-10.52,314.77,314.77,0,0,0-33-7.38c-2.43-.45-4.87-.73-7.28-1.1l-3.62-.52c-1.21-.15-2.42-.26-3.63-.39a.46.46,0,0,1,.1.28c0,.36-.51.64-1.3.85l4.1.46c1.36.18,2.72.41,4.08.62l4.09.66,2,.34,2,.42a190,190,0,0,1,45.68,10.7A234.47,234.47,0,0,1,260,137a281.53,281.53,0,0,1,34.41,18.29,3.34,3.34,0,0,1,1,.79c.1.19-.18.11-.63-.16l-6-3.27-3-1.65-3.06-1.57-6.13-3.16-6.27-3c1.15,1,1.72,1.75,1.41,2.1s-1.5.2-3.15-.34l5.52,3c1.13.61,1.93,1.26,1.79,1.45s-1.12-.14-2.2-.71c-3.75-2-7.47-4-11.31-5.83-1.91-.92-3.79-1.91-5.73-2.77l-5.8-2.61A294.34,294.34,0,0,0,222,127.68a7.06,7.06,0,0,1,2.44,2.11h0l4.49,1.39c27.69,7.64,54.5,21.05,78.43,38.55.47.33.82.66.77.75s-.45-.11-.88-.42c-3.64-2.58-7.26-5.22-11-7.61-1.88-1.21-3.71-2.48-5.63-3.61l-5.73-3.45,0,0c.28.24.28.37-.1.23a5,5,0,0,1-1.19-.72c-.32-.27-.23-.35.09-.24a245.84,245.84,0,0,0-44.88-20.11,257.22,257.22,0,0,1,40.77,19.23c1.48.71,3,1.35,4.47,2.12a3.31,3.31,0,0,1,1,.76c.07.13-.27.05-.68-.17l-1.22-.63c2.41,1.51,4.06,3,3.75,3.43s-2.7-.52-5.21-2c-6.9-3.75-13.81-7.43-20.92-10.69l-2.34-1-2.42-.83a290.76,290.76,0,0,1,31.72,17.58c.89.52,1.57,1.1,1.49,1.26s-.87-.12-1.77-.64a297.55,297.55,0,0,0-28.58-14,286.65,286.65,0,0,0-30-11c-3.48-.62-7-1.09-10.47-1.63-3.53-.37-7-.81-10.6-1.1.87.19,1.74.42,2.61.65,11.11,2.61,21.43,5.16,31.57,8.25a196.48,196.48,0,0,1,30.21,11.69c.5.25.88.55.89.67s-.37,0-.87-.26a221.89,221.89,0,0,0-29.7-11.38L236.14,143l-6.28-1.65-3.09-.79-3.09-.66c-2.06-.42-4.1-.85-6.13-1.23l6.08,1.61,3,.77,3,.87,6,1.71,5.92,1.88,3,.95,2.93,1,5.87,2.11c1.94.76,3.87,1.56,5.81,2.35l2.92,1.2c1,.41,1.91.86,2.88,1.3a7.28,7.28,0,0,1,1.7,1c.06,0,.21,0,.43.06A62.09,62.09,0,0,1,273.4,158a3.18,3.18,0,0,1,1.06.68C274.62,158.83,274.33,158.78,273.86,158.6Zm-244.6-12-.24-.09h.65l1.39.73ZM24.59,156h0l-.81-.38Zm96.62-48.2-7.27.82c-1.21.11-2.42.29-3.62.46l-3.62.5c-4.84.55-9.62,1.44-14.5,2.06L99.13,110l2.74-.44,2.76-.33,5.52-.61c1.83-.23,3.68-.34,5.53-.45ZM21,145.94a12.59,12.59,0,0,1,3.28.8,5,5,0,0,1,1.34-1.16,27,27,0,0,1,4.27-2.13c-.44-.29-.09-.44,0-.59l.43-.4c-1.58.6-3.25,1.1-4.86,1.75A40.91,40.91,0,0,1,21,145.94Zm-8.22,8.41-.23,0-.22-.76Zm.41,1.27.26-.07C13.54,155.82,13.41,155.79,13.17,155.62Zm2.31-.61a1.54,1.54,0,0,0-.49-.12Zm14.73,16-1.71-3.36,1.57,3.29Z"/><path d="M140,64.72l.26,0c0,.16-.16.27-.36.35,2.45,0,3.94-2.3,4.34-4.49a1.1,1.1,0,0,0-1.18-1.85,1.37,1.37,0,0,1-.44.06,8.33,8.33,0,0,0-3.68.27h.86a2.83,2.83,0,0,0-1,.39l.31.18a2.54,2.54,0,1,0,.26,5.07Z"/><path d="M143.88,66.16c-.79.11-1.57.18-2.36.25l-.23-.08.6.7,0,0a4.46,4.46,0,0,1,1.24-2.63l.18-.31a.78.78,0,0,0-.06-.58.81.81,0,0,0-1.1-.34l-.45.25c-1.3.33-2.85,1.51-2.43,3.17.1.38.49.66.77,1a1.12,1.12,0,1,0,1.86-1.24l.33-.09-.06.33c-.19-.53.18-1,.33-1.45l.41-.51-1.16-.91-.14.35.15.08a10.22,10.22,0,0,1-.86,2l-.36.94a.69.69,0,0,0,.61.71h.49l-.25,0c.89-.28,1.74-.69,2.63-1a.29.29,0,0,0,.22-.34A.29.29,0,0,0,143.88,66.16Z"/><path d="M141.56,68.21a.67.67,0,0,0-.51.13v.15l.37,0C141.69,68.53,141.69,68.36,141.56,68.21Z"/><path d="M141.05,68.49h-.15l.14.06v-.05Z"/><path d="M162.93,48.19a40,40,0,0,0,3.7-2s0-.1,0-.17-.12-.11-.15-.08a41.17,41.17,0,0,1-3.7,2s0,.1,0,.17S162.89,48.21,162.93,48.19Z"/><path d="M176.55,48.82a.24.24,0,0,0,.14.18c.05,0,.1,0,.08-.07a.3.3,0,0,0-.13-.18C176.57,48.72,176.53,48.76,176.55,48.82Z"/><path d="M180.58,54.51a1.94,1.94,0,0,0-.11.75s0,.06-.08,0a.42.42,0,0,1,.13.33,15.2,15.2,0,0,1-2,4.47,1.24,1.24,0,0,1,.16.3c.14.35.09.62-.11.69l-.18,0c-.64.23-1.24.5-1.89.71a.74.74,0,0,1-.16.51,12.6,12.6,0,0,1-.59,2,1.16,1.16,0,0,1,.26.24c.18.25.21.51.09.6l-.18.15c.23-.07.45-.15.68-.21a.16.16,0,0,1,.1,0,4.1,4.1,0,0,0,.57-.46,15.29,15.29,0,0,0,3.23-6c0-.05,0-.08.11,0a.32.32,0,0,1,.12.18c-.07,2,.31,4.3-.22,6a29.5,29.5,0,0,1-2.25,5.56c-1.46,1.13-2.35,2.77-3.5,4.36-.39.54-.8,1-1.21,1.51-.08.08-.07.09-.2.21l-.34.31-.67.62L171,78.46c-1.82,1.58-3.68,3.08-5.58,4.6a3.32,3.32,0,0,1-5.64-2.85l-.37.25-.69.26a2.84,2.84,0,0,1-2.05,0l-.86-.3c-1.41-.74-3-1-4.35-1.93l-.26-.52-.2-.05a2.9,2.9,0,0,1-1.58-.74l-.39-.57a6.72,6.72,0,0,1-.87-2.16,2.31,2.31,0,0,1-.43-.74A3.39,3.39,0,0,1,146.15,72a.48.48,0,0,1-.37-.58.48.48,0,0,1,.13-.23h0a3.36,3.36,0,0,0-.46-.19,2,2,0,0,1-.28.08l-.82.33a2.29,2.29,0,0,1-.8-.12c-1-.75-1-.75-1.33-1.2a1,1,0,0,1,0-.17,2.69,2.69,0,0,1-.47,0,1,1,0,0,1-.24-.07c-.19-.22-.19-.22-.29-.27a1.69,1.69,0,0,1-.14-.16c-.07-.36-.07-.36-.12-.43a1.09,1.09,0,0,1,0-.19c.1-.19.14-.27.15-.3l.8.32-.09-.25.29.2-.24-.21.29,0-.36-.07a1.91,1.91,0,0,0,.62-.35.78.78,0,0,0,.3-.29l-.12-.12,1-.45.22.08a.24.24,0,0,1,.14-.24l.25-.13,0-.07h0l.1-.26v-.06h0c.06-.18.16-.44.41-1.12a2.54,2.54,0,0,1,.46-.17l-.2,0c-.13,0-.23-.29-.29-.28a17.85,17.85,0,0,0-3.59,1.34.4.4,0,0,1-.58,0,.41.41,0,0,1,0-.58,8.94,8.94,0,0,1,6.42-5.11c.63-.3,1.25-.62,1.86-1l-.16,0,.55-.16,0,0-.62-.15-.31.06a26.61,26.61,0,0,1-4.54,1.63,23.35,23.35,0,0,1-2.51.55.37.37,0,0,1-.5-.14.36.36,0,0,1,.13-.49c1.85-1.88,4.4-3.45,7.1-3.38a2.19,2.19,0,0,1,1.33-.44h0l-.49-.15c.34-.13.71,0,1.05-.06l-.44-.38c1.61-.79,3-2.09,4.8-2.43l.18-.08a8.89,8.89,0,0,1,.94-1.79l-.45.13a1.36,1.36,0,0,1,.51-.89,3.11,3.11,0,0,1,3.36.47,50,50,0,0,0,3.69-3.73c.05-.07.19,0,.31.1s.16.29.1.36a16,16,0,0,1-2.25,3.23,15.2,15.2,0,0,0,2.91-1.45l.28-.32a.71.71,0,0,1,.38-.18,12.8,12.8,0,0,0,3-2.76,29.48,29.48,0,0,0,1.94-3.13,12.35,12.35,0,0,1,2.93-4.16c.14-.18.49-.06.78.27s.4.74.26.91c-1.91,3.19-3.6,6.55-6.59,8.6l-1,.65.12.13a2.1,2.1,0,0,1,.31.56,10.41,10.41,0,0,1,1.21-.58,6.55,6.55,0,0,1,2.5-2.87,8.66,8.66,0,0,1,2.72-.63c.66-.86,1.27-1.77,2-2.6,0,0,.08,0,.14,0s.1.14.08.19a14.19,14.19,0,0,1-1,2.39,2.42,2.42,0,0,1,.76.69,2.24,2.24,0,0,1,.43.94l.42-.29c.09-.06.25,0,.37.17s.16.35.07.4L174,50.09c-.52.69-1.06,1.34-1.63,2a3.4,3.4,0,0,1,.78.6h0l.29-.26a13.89,13.89,0,0,1,4.77-5.61s.11,0,.17.07.07.16,0,.18a10.91,10.91,0,0,0-1.73,1.36h0a.28.28,0,0,1,.14.18c0,.06,0,.1-.08.07a.26.26,0,0,1-.14-.17,14.33,14.33,0,0,0-2.53,3.34A17.49,17.49,0,0,1,177,49.58l.12-.51s.08,0,.15,0,.09.14.07.18l0,.14c.21-.12.59.07.87.45s.36.81.16,1c-.46.47-1,.9-1.44,1.32l-.12.2,0,.31c.92-.47,1.85-.91,2.8-1.33.06-.06.2,0,.31.14s.14.29.07.34a27.85,27.85,0,0,1-3.34,4.42c0,.93-.05,1.88-.07,2.82l.19-.12c1.54-1.2,1.58-3.85,2.82-5.35,0,0,.1,0,.15,0s.09.15,0,.18a16.4,16.4,0,0,0-1.21,2.82,16.44,16.44,0,0,0-.9,2.4c1-1,1.56-2.59,2.44-3.78,0-.07.1-.08.19,0a.21.21,0,0,1-.05-.12,2.59,2.59,0,0,1,.12-.77c0-.06.07-.06.14,0A.23.23,0,0,1,180.58,54.51Zm-30.49,11-.11,0,.3,0,.69.33Zm-1.86,4.64h0l-.39-.18ZM162,52a4.53,4.53,0,0,1-2.15.9l.36-.42C160.73,52.27,161.33,52.12,162,52ZM146.22,65.26a6.57,6.57,0,0,1,1.54.39,2.17,2.17,0,0,1,.57-.56c.61-.4,1.23-.77,1.86-1.1-.22-.13-.07-.21,0-.29l.17-.2c-.7.32-1.4.63-2.13.93A15.52,15.52,0,0,1,146.22,65.26Zm-3.55,3.93-.11,0-.11-.37Zm.2.62.11,0C143,69.91,143,69.89,142.87,69.81Zm1-.24a.71.71,0,0,0-.23-.07Zm7.07,8-.81-1.67.74,1.63Z"/></g></g></svg>