<svg xmlns="http://www.w3.org/2000/svg" viewBox="0 0 433.02 120.91"><g id="Layer_2" data-name="Layer 2"><g id="Layer_1-2" data-name="Layer 1"><path d="M6.73,46.78a5.22,5.22,0,0,1,.57.11,1.2,1.2,0,0,1-.91.68c5.51.36,9.47-4.24,11.4-8.55a2.38,2.38,0,0,0,1.43-3A2.43,2.43,0,0,0,16,34.92a3.91,3.91,0,0,1-1,0,17.81,17.81,0,0,0-4.19-.6,21.89,21.89,0,0,0-4.31.4l2,.14A7.38,7.38,0,0,0,6,35.55l.62.44C3.35,35.93.36,38.32,0,41.27S2.1,46.64,5.29,46.7Z"/><path d="M14.76,50.46c-1.76.09-3.5.1-5.27.1L9,50.35l1.12,1.58,0-.12c.34-2.08,2-3.82,3.61-5.29l.51-.63a1.57,1.57,0,0,0,.07-1.22,1.7,1.7,0,0,0-2.29-.9l-1.09.44c-3,.48-7,2.72-6.52,6.26.11.81.9,1.46,1.45,2.16a2.51,2.51,0,0,0,3.35.9,2.37,2.37,0,0,0,1.15-3.19l.76-.14-.24.67c-.25-1.14.71-2,1.22-3l1.07-1-2.24-2.13-.44.72.3.19a24.55,24.55,0,0,1-2.57,4L7.1,51.6a1.34,1.34,0,0,0,1.13,1.57l1.08.11-.54-.13c2.06-.43,4-1.15,6.08-1.54a.64.64,0,0,0,.57-.66A.55.55,0,0,0,14.76,50.46Z"/><path d="M9,54.33a1.52,1.52,0,0,0-1.15.2c0,.17,0,.25,0,.3l.81.11C9.23,55,9.27,54.67,9,54.33Z"/><path d="M7.84,54.83l-.34,0,.3.15,0,0Z"/><path d="M210.17.51l9.62.61,4.81.31,4.79.44,9.56.9,9.54,1.17,4.76.59,4.75.72,9.47,1.45,9.43,1.72,4.71.86,4.68,1a3.14,3.14,0,0,0,1.62.11c.06-.1-.57-.34-1.35-.5l-4.68-1L277.17,8l-9.42-1.73-9.47-1.47-4.74-.73-4.75-.59L239.27,2.3l-9.56-.91L224.93.94,220.12.63,210.5,0a3.56,3.56,0,0,0-1.69.2C208.76.35,209.37.48,210.17.51Z"/><path d="M390.35,53.68c-.57-.16-.59,0-.06.26a11.09,11.09,0,0,0,1.88.81c.48.13.51,0,.05-.26A9.89,9.89,0,0,0,390.35,53.68Z"/><path d="M382.4,59c-3.23-1.1-6.33-2.08-9.12-2.85a9.85,9.85,0,0,1-1.49-.58c.12.23-.54.15-1.72-.22C346.85,48.43,321.69,42,296.53,38.22a2.54,2.54,0,0,1-1.14.25,21.05,21.05,0,0,1-3.79-.15c-1.55-.17-3.34-.37-5.13-.71l-2.7-.55c-10.92-2.08-21.92-3.47-32.88-4.81-2.28.09-4.91.09-7.75,0-2.4,0-4.79,0-7.18.08l-7.2.26c-4.8.09-9.62.48-14.47.74.61.15,1,.34,1,.54-.19.49-2.44.86-5.05.86l-3.95.19c3.78-.09,7.57.07,11.33.18.55,0,1,0,1.51.07,4.14-.07,8.33.08,12.6.15A510.46,510.46,0,0,1,338.84,48.19a8.61,8.61,0,0,1,1.92.58c.3.18.2.29-.43.16-5.51-1-10.82-2-16.14-2.68l-7.93-1.07-8-.83c-5.33-.64-10.78-1-16.4-1.49-2.81-.28-5.7-.38-8.64-.62s-5.93-.51-9-.64A416,416,0,0,0,230.28,41a401.83,401.83,0,0,0-43.72,3.88,304.21,304.21,0,0,0-44.24,7.79c-3.56,1-7.15,1.83-10.69,2.89L121,58.8l-10.58,3.72c-1.79.58-3.52,1.35-5.29,2l-5.3,2.09c-2.42.89-4.73,2-7.07,3s-4.67,2-7,3L79,75.94l-3.36,1.61-3.27,1.74-1.63.87-.81.43-.22.13-.72.45-1.45.89c-1,.59-2,1.12-2.88,1.73C62.83,85,61,86.16,59.05,87.3s-3.83,2.23-5.66,3.48C50.83,93,47,92.28,44.71,89.29a7.23,7.23,0,0,1-1.26-6.08l-.75.4-1.38.3a5.43,5.43,0,0,1-2,0,5.53,5.53,0,0,1-1.92-.68l-1.6-.83c-2.6-1.87-5.67-2.87-8.25-5l-.43-1.14-.4-.15a6.13,6.13,0,0,1-3.08-1.86l-.7-1.25a13.56,13.56,0,0,1-1.37-4.63,4.8,4.8,0,0,1-.74-1.63A7,7,0,0,1,18,63a1,1,0,0,1-.64-1.27,1.09,1.09,0,0,1,.33-.46h0a9.05,9.05,0,0,0-.94-.48c-.38.08-.62.11-.62.11-1,.3-1,.3-1.84.54a5,5,0,0,1-1.68-.4c-2.11-1.74-2.12-1.73-2.61-2.73,0-.12,0-.24,0-.35L8.86,58a2.34,2.34,0,0,1-.5-.2c-.36-.48-.36-.48-.58-.6a2.56,2.56,0,0,1-.27-.37c0-.75,0-.75-.14-.91a1.62,1.62,0,0,1,0-.38l.42-.62,1.66.81-.12-.55.58.48-.46-.48.62.09-.77-.2a4.78,4.78,0,0,0,1.47-.63,2,2,0,0,0,.74-.55,2.37,2.37,0,0,1-.22-.27c1.17-.41,1.17-.41,2.33-.78.17.07.32.15.46.22a.53.53,0,0,1,.37-.48l.59-.22.07-.15,0,0,.29-.52,0-.12h0c.2-.36.5-.88,1.27-2.27a7.26,7.26,0,0,1,1-.27l-.4-.1c-.28-.08-.41-.65-.53-.64a40.58,40.58,0,0,0-8.34,2.2,1,1,0,0,1-1.31-.08.84.84,0,0,1,.19-1.23,18.81,18.81,0,0,1,6.91-6.55,25.26,25.26,0,0,1,9.27-2.7c1.51-.46,3-.95,4.49-1.46l-.33-.15c.43-.06.85-.13,1.28-.16l.13,0-1.3-.5-.7,0c-3.4,1.3-7.08,1.43-10.73,2.18a19.6,19.6,0,0,1-2.94.33c-1,.09-1.94.15-2.91.29a.8.8,0,0,1-1.08-.36.81.81,0,0,1,.49-1c.61-.46,1.25-.91,1.91-1.34s1.36-.78,2.07-1.13a29.32,29.32,0,0,1,4.38-1.82,19.19,19.19,0,0,1,9.05-.92,5.44,5.44,0,0,1,3.15-.44h.05l-1-.47c.83-.16,1.54.28,2.35.23l-.77-.91c2-.52,3.91-1.31,5.86-2a28.81,28.81,0,0,1,2.94-.85,14.65,14.65,0,0,1,3-.26,2.14,2.14,0,0,1,.43-.07,21.64,21.64,0,0,1,1.79-1.92c.16-.15.33-.29.5-.43a.73.73,0,0,1,.15-.11l.63-.31,1.29-.61c1.73-.81,3.52-1.63,5.41-2.4L45.5,26l0,0,.11-.06.25-.12.49-.25,1-.5,2-1c1.35-.63,2.68-1.33,4.07-1.88,2.78-1.15,5.63-2.25,8.62-3.3,4-1.49,8.3-2.6,12.5-3.72,2.11-.53,4.19-1.09,6.26-1.52s4.12-.78,6.1-1.12A85.17,85.17,0,0,1,106.56,11a426.3,426.3,0,0,1,47.78-8.2l12-1.21,12-.83c1-.06,2-.15,3-.2l3-.1,6-.22c2-.07,4-.18,6-.2l6,0a8,8,0,0,1,3.45.47c.17.27-.92.52-2.57.54a472.46,472.46,0,0,0-69.2,6.8A511.53,511.53,0,0,1,193,3.92c2.53-.13,5.07-.13,7.62-.15s5,.07,7.52.2c1.59,0,3.16,0,4.74.13l4.71.2,4.69.2c1.56.06,3.11.14,4.66.27,6.19.48,12.36.85,18.51,1.56,12.32,1.15,24.6,3,37.31,5l8,1.41c2.63.46,5.23.9,7.79,1.46l7.62,1.57c1.27.27,2.53.51,3.79.8l3.75.88c5,1.18,10,2.31,15,3.71l7.63,2,7.75,2.28a414.19,414.19,0,0,1,82.1,33.8c3.53,1.94,6.62,4.07,6.82,4.7s-2.52-.43-6.06-2.35Q406,50.7,384.16,42l-5.47-2.15c-1.82-.72-3.64-1.44-5.5-2.08l-11.07-4-11.19-3.68c-3.74-1.22-7.53-2.28-11.3-3.43A536.32,536.32,0,0,0,245.12,8.16l-5.29-.58c-1.76-.18-3.52-.28-5.28-.43-3.5-.26-7-.56-10.48-.8.09.1.17.19.17.28,0,.37-.69.69-1.81.93,2,.07,3.95.25,5.93.42l5.93.51c4,.3,7.93.81,11.89,1.31,22.12,1.52,44.24,4.62,67.05,10.84L319,22.25c1.91.53,3.79,1.07,5.64,1.69l10.93,3.54,10.58,3.83c1.76.62,3.49,1.29,5.22,2l5.21,2.05a466,466,0,0,1,52.73,21.12,7.16,7.16,0,0,1,1.6.89c.21.2-.2.11-.91-.2-12-5.29-24.51-10.23-37.25-14.83,1.89,1.05,2.9,2,2.58,2.31s-2,.12-4.46-.46c2.87,1,5.67,2.28,8.5,3.42,1.75.72,3.05,1.45,2.92,1.64s-1.59-.18-3.25-.85c-5.74-2.41-11.58-4.53-17.4-6.72-2.9-1.1-5.86-2-8.8-3.07s-5.86-2.05-8.84-3c-14.28-4.31-28.74-7.8-43.38-10.75a12.72,12.72,0,0,1,3.94,2.17h0c2.27.44,4.5,1,6.73,1.53A417.06,417.06,0,0,1,372.7,46,432.18,432.18,0,0,1,431.62,73.2a4,4,0,0,1,1.3.9c0,.09-.65-.16-1.32-.52-11.46-6.41-23.23-12.18-35.14-17.52l.05,0c.45.26.5.41-.06.25a11.11,11.11,0,0,1-1.88-.81c-.53-.31-.43-.39.05-.26l-8.39-3.56c-2.8-1.17-5.64-2.22-8.46-3.33-5.62-2.26-11.36-4.16-17-6.17-11.45-3.73-22.94-7.19-34.53-9.88A429.34,429.34,0,0,1,388.71,54.1l6.81,2.52a7.74,7.74,0,0,1,1.6.84c.13.16-.35,0-1-.19l-1.9-.72c1,.42,1.85.85,2.64,1.25s1.47.82,2,1.18c1.12.72,1.74,1.27,1.6,1.49-.44.41-3.83-.78-7.81-2.45l-8-3.33c-2.67-1.09-5.38-2.1-8.06-3.15-5.35-2.15-10.81-4-16.22-6-1.18-.41-2.37-.78-3.57-1.13l-3.65-.91a479.62,479.62,0,0,1,49.45,20.34c1.38.63,2.5,1.3,2.45,1.48s-1.23-.18-2.62-.81c-14.35-6.15-29-11.7-44-16.5s-30.24-8.89-45.66-12.27l-7.75-1L297.25,34c-5.19-.58-10.45-.86-15.71-1.22l3.94.68c16.8,2.78,32.35,5.56,47.68,9a344.86,344.86,0,0,1,46,13.59,4.21,4.21,0,0,1,1.46.74c.05.12-.52,0-1.3-.29a370.63,370.63,0,0,0-45.2-13.25,354.57,354.57,0,0,0-37.58-7C308.91,38.4,321,41,333,43.81l9,2.26c1.5.37,3,.78,4.46,1.21l4.46,1.27c6,1.63,11.85,3.62,17.8,5.56a13.19,13.19,0,0,1,2.67,1.11,1.4,1.4,0,0,1,.63.08c3,.86,6.29,1.9,9.61,3a6.21,6.21,0,0,1,1.69.8C383.53,59.31,383.11,59.24,382.4,59Zm-354-8.35-.24-.11.65.06,1.33.87Zm-5.56,9h0l-.77-.46ZM153.2,6.77,142.81,8c-1.73.21-3.46.38-5.18.61l-5.17.74c-3.44.51-6.9.88-10.33,1.43s-6.88,1.08-10.33,1.58l9.93-2.21,2-.32,2-.25,3.92-.5,7.85-1C142.68,7.63,147.94,7.17,153.2,6.77ZM20.14,49.05a13.41,13.41,0,0,1,3.2,1.2,5,5,0,0,1,1.44-1,46.33,46.33,0,0,1,4.41-1.74c-.41-.34-.06-.46.08-.6l.45-.38c-1.61.47-3.25.91-4.94,1.33A39.42,39.42,0,0,1,20.14,49.05Zm-9,7.51L11,56.48l-.14-.79Zm.27,1.32.26,0C11.8,58.13,11.68,58.08,11.46,57.88Zm2.36-.31a1.63,1.63,0,0,0-.48-.18Zm13,17.91-1.32-3.59,1.19,3.51Z"/><path d="M242.18,116.7c0-.08-.05-.17-.07-.26a.49.49,0,0,1,.46.2c-.95-2.26-3.63-2.76-5.8-2.29a1.09,1.09,0,1,0-1.26,1.79,1.49,1.49,0,0,1,.22.38,8.53,8.53,0,0,0,1.65,3.31l-.33-.8a2.79,2.79,0,0,0,.75.78l.06-.35a2.54,2.54,0,0,0,4.58-2.18Z"/><path d="M242.05,112.59c.4.69.77,1.39,1.13,2.09v.25l.42-.83,0,0a4.45,4.45,0,0,1-2.9-.14l-.36,0a.79.79,0,0,0-.51.28.8.8,0,0,0,.11,1.14l.4.32c.8,1.08,2.48,2.06,3.85,1a2.69,2.69,0,0,0,.61-1.09,1.11,1.11,0,1,0-1.85-1.24l-.21-.27.32-.06c-.42.37-1,.2-1.47.24l-.62-.18-.4,1.42h.38c0-.07,0-.17,0-.18a10.38,10.38,0,0,1,2.16,0l1,0a.67.67,0,0,0,.42-.82l-.18-.46.06.24c-.6-.71-1.3-1.34-1.88-2.07a.3.3,0,0,0-.4-.07A.28.28,0,0,0,242.05,112.59Z"/><path d="M244.83,114c.07.17.13.34.32.41l.13-.05c0-.1-.08-.23-.12-.35S244.92,113.78,244.83,114Z"/><path d="M245.28,114.32l.05.14v-.15h-.05Z"/><path d="M212.45,98.58c-1.94-1.46-3.94-2.84-6-4.17a.14.14,0,0,0-.2.06.14.14,0,0,0,0,.2c2,1.34,4,2.72,5.95,4.18a.16.16,0,0,0,.21,0A.18.18,0,0,0,212.45,98.58Z"/><path d="M201.17,82a.16.16,0,0,0,.11-.2.12.12,0,0,0-.17-.09.18.18,0,0,0-.11.19A.13.13,0,0,0,201.17,82Z"/><path d="M205.08,76.16a3.55,3.55,0,0,0,1.08,0,.12.12,0,0,1,.13.08.35.35,0,0,1,.31-.21,36.26,36.26,0,0,1,7.68,1.74,1.2,1.2,0,0,1,.26-.24.82.82,0,0,1,1,0l.2.21c.86.74,1.75,1.43,2.6,2.18a1.7,1.7,0,0,1,.83.12,26.88,26.88,0,0,1,3.12.41.62.62,0,0,1,.08-.35.52.52,0,0,1,.71-.2l.36.18-.89-.78a.41.41,0,0,1-.1-.13c-.36-.22-.74-.42-1.13-.61a37.88,37.88,0,0,0-10.83-3,.14.14,0,0,1-.16-.13.19.19,0,0,1,.14-.17c2.71-.24,5.39-1,8.08-.68a70,70,0,0,1,9.33,1.86c2.79,1.6,5.74,2.43,8.85,3.58,1.16.42,2.27.87,3.36,1.35,3.23,1.47,6.26,3.11,9.36,4.82a3.34,3.34,0,0,1,1.82,4.34,3.39,3.39,0,0,1-2.31,2l.38.24.5.54a2.89,2.89,0,0,1,.75,1.91l.05.91c-.15,1.58.16,3.17-.12,4.75l-.39.44,0,.21a2.87,2.87,0,0,1-.08,1.74l-.38.58a6.76,6.76,0,0,1-1.66,1.63,2.32,2.32,0,0,1-.52.68,3.49,3.49,0,0,1-1,2.07.47.47,0,0,1-.39.56.42.42,0,0,1-.27,0h0a4.33,4.33,0,0,0,0,.5l.18.23.62.63a2.46,2.46,0,0,1,.19.78c-.29,1.26-.29,1.26-.6,1.7l-.14.09.23.42a1.76,1.76,0,0,1,0,.25c-.13.25-.13.25-.14.37a1.19,1.19,0,0,1-.1.19c-.3.2-.3.2-.35.27a.72.72,0,0,1-.16.09l-.34,0v-.86l-.21.18.08-.35-.1.3-.09-.27.07.36c-.38-.35-.38-.35-.56-.44a.9.9,0,0,0-.38-.17l-.07.16-.8-.76a1.93,1.93,0,0,1,0-.24.24.24,0,0,1-.28,0l-.21-.18h-.07v0h-.34l-1.19,0a3.6,3.6,0,0,1-.33-.36l0,.19c0,.13-.18.33-.15.37a17,17,0,0,0,2.61,2.81.42.42,0,0,1,.23.54.41.41,0,0,1-.54.22,8.94,8.94,0,0,1-7.17-4c-.52-.46-1.06-.91-1.59-1.35v.17l-.36-.45,0,0,.1.64c.06.09.11.18.17.26a26.9,26.9,0,0,1,3.24,3.57,22,22,0,0,1,1.46,2.11.36.36,0,1,1-.43.58c-2.44-1-4.87-2.75-5.84-5.27a2.2,2.2,0,0,1-.91-1.06h0l0,.51c-.26-.27-.25-.66-.46-1l-.18.55c-1.35-1.18-3.08-2-4.08-3.51a.93.93,0,0,1-.14-.14,5.24,5.24,0,0,1-2.28-.34l.55.53h0a3.4,3.4,0,0,1-1.6-.48,5,5,0,0,1-2.37-4.15c-2.7-1.34-5.4-2.71-8.19-3.89a.3.3,0,0,1-.14-.39.33.33,0,0,1,.38-.19,46.52,46.52,0,0,1,6.26,2.23,44.56,44.56,0,0,0-4.51-3.3l-.66-.3a1.69,1.69,0,0,1-.57-.43,39,39,0,0,0-6.34-3.25c-2-.72-3.78-1.29-5.85-1.87a34,34,0,0,1-8.09-2.9.72.72,0,0,1-.34-1,.77.77,0,0,1,1-.46c5.9,1.82,11.84,3.35,17.19,6.66L213,95l.07-.16a1.32,1.32,0,0,1,.47-.47c-.63-.42-1.24-.88-1.84-1.37a19,19,0,0,1-6-2.59,22.29,22.29,0,0,1-3.24-3.2c-1.71-.67-3.46-1.27-5.17-2a.13.13,0,0,1-.1-.17.15.15,0,0,1,.17-.13,31.56,31.56,0,0,1,4,.78,1.47,1.47,0,0,1,.23-1,1.52,1.52,0,0,1,.86-.67l-.76-.47A.37.37,0,0,1,202,83l3.1,1.88c1.37.53,2.71,1.08,4.05,1.66a2.32,2.32,0,0,1,.11-1h0l-.6-.3A39.9,39.9,0,0,1,197,80.24.16.16,0,0,1,197,80c.05-.08.14-.12.2-.07a36.4,36.4,0,0,0,3.33,1.88h0a.16.16,0,0,1,.1-.19.14.14,0,0,1,.18.09.17.17,0,0,1-.11.19,41.11,41.11,0,0,0,6.65,2.55,52.64,52.64,0,0,1-5.59-3.23l-.78-.06a.15.15,0,0,1-.1-.19.16.16,0,0,1,.18-.11l.21,0a.85.85,0,0,1-.18-1.13.82.82,0,0,1,1.11-.33c1,.48,2,1,3,1.54l.36.11.43,0c-1.43-1-2.84-2.1-4.23-3.18a.31.31,0,0,1,.3-.54,80.21,80.21,0,0,1,8.78,3.36l3.78-.36-.33-.21c-3-1.69-6.48-1.32-9.54-2.58a.15.15,0,0,1,.12-.28,39.12,39.12,0,0,0,4.79,1,34.67,34.67,0,0,0,4,.71c-2.27-1.07-4.8-1.48-7.16-2.36a.24.24,0,0,1-.2-.22.19.19,0,0,1-.11.07,4.26,4.26,0,0,1-1.13,0c-.08,0-.13-.08-.12-.17A.17.17,0,0,1,205.08,76.16Zm34,30.93a.49.49,0,0,1,0,.12q-.06-.12-.12-.27l0-.77S239.07,106.62,239.1,107.09Zm5,0h0c0,.25,0,.43,0,.43C244.09,107.3,244.1,107.16,244.1,107Zm-25.79-7.86a12.63,12.63,0,0,1,3.11,2.47l-.89-.37Q219.41,100.28,218.31,99.18Zm22,11.6a6,6,0,0,1-.23-1.58,2,2,0,0,1-.74-.31,18.89,18.89,0,0,1-1.72-1.3c0,.26-.18.15-.26.13l-.26-.08q.84.78,1.68,1.62A15.68,15.68,0,0,1,240.33,110.78Zm5,1.78a.41.41,0,0,1,0,.11l-.3.24Zm.5-.42-.07-.1C245.84,111.94,245.84,112,245.81,112.14Zm-.63-.88a.63.63,0,0,0,0,.23Zm4.68-9.58-1.23,1.38,1.22-1.3Z"/></g></g></svg>