<svg xmlns="http://www.w3.org/2000/svg" viewBox="0 0 471.32 223.29"><g id="Layer_2" data-name="Layer 2"><g id="Layer_1-2" data-name="Layer 1"><path d="M7.3,110.05l.59,0a1.28,1.28,0,0,1-.86.8,10.52,10.52,0,0,0,6.84-3.4,16.18,16.18,0,0,0,3.92-6.41A2.47,2.47,0,0,0,19,97.89a2.4,2.4,0,0,0-3.33-.65,4.34,4.34,0,0,1-1,.15,21.94,21.94,0,0,0-8.7.79l2-.07a7.19,7.19,0,0,0-2.48.94l.66.35c-3.27.38-6.11,3.16-6.16,6.13s2.63,5,5.84,4.64Z"/><path d="M15.68,112.63c-1.73.31-3.47.55-5.24.79l-.51-.15,1.28,1.41-.05-.11c.13-2.09,1.61-4,3.09-5.68l.47-.66a1.45,1.45,0,0,0,0-1.19,1.76,1.76,0,0,0-2.41-.65c-.36.18-.71.38-1.06.57-3,.88-6.74,3.62-5.93,7.05.2.79,1.06,1.32,1.69,1.93a2.51,2.51,0,0,0,3.44.44,2.38,2.38,0,0,0,.82-3.29l.74-.24c-.05.23-.11.47-.17.7-.36-1.09.52-2.07.93-3.1l1-1.12-2.44-1.8-.37.76.32.15a26.6,26.6,0,0,1-2.18,4.29l-.9,2a1.31,1.31,0,0,0,1.3,1.4l1.09,0-.55-.05c2-.7,3.92-1.67,5.9-2.31a.67.67,0,0,0,.5-.73A.54.54,0,0,0,15.68,112.63Z"/><path d="M10.37,117.19a1.58,1.58,0,0,0-1.13.35v.3h.82C10.65,117.84,10.65,117.49,10.37,117.19Z"/><path d="M9.24,117.84H8.89l.32.1s0,0,0,0Z"/><path d="M161.16,68c1.13.11,2.26.18,3.37.32l3.35.43,6.69.86,6.65,1.1,3.31.55,3.29.67,6.57,1.35,6.51,1.57,3.25.78c1.08.28,2.14.6,3.22.89l6.41,1.81c.58.15,1.08.22,1.13.11s-.35-.35-.89-.49l-6.42-1.82-3.22-.9-3.24-.79-6.51-1.59-6.56-1.35-3.29-.68-3.31-.56-6.64-1.11c-2.23-.32-4.46-.58-6.69-.87s-4.47-.6-6.73-.76a1.87,1.87,0,0,0-1.2.15C160.18,67.81,160.6,68,161.16,68Z"/><path d="M280.86,118.13c-.39-.13-.43,0-.1.23a4.76,4.76,0,0,0,1.21.69c.33.1.38,0,.1-.24A4.47,4.47,0,0,0,280.86,118.13Z"/><path d="M273.87,123.35c-1.06-.48-2.08-.95-3.08-1.36s-2-.75-2.93-1a5.38,5.38,0,0,1-1-.49c0,.21-.42.15-1.19-.15a321.52,321.52,0,0,0-48.42-15.07,1.69,1.69,0,0,1-.82.27,16.8,16.8,0,0,1-6-.77l-1.75-.55c-1.78-.49-3.59-.88-5.38-1.33s-3.58-.9-5.39-1.25l-5.42-1.09-2.7-.55-2.72-.46a40.76,40.76,0,0,1-5.16-.18c-3.19,0-6.39.11-9.58.14l-9.6.45c.39.17.62.36.61.56s-.49.42-1.09.56a9.8,9.8,0,0,1-2.26.25l-2.6.06c2.48.1,5,.12,7.43.39a9.07,9.07,0,0,1,1,.11c2.73.12,5.49.12,8.3.34a288,288,0,0,1,70.74,12.06,3.75,3.75,0,0,1,1.22.54c.18.17.1.27-.33.15-14.65-3.64-27.75-4.69-44-6.31a221.58,221.58,0,0,0-57.21,1.86,148.52,148.52,0,0,0-28.27,5.77,167.19,167.19,0,0,0-26.57,10.67c-1.5.67-2.91,1.52-4.36,2.27l-4.27,2.27L77,133.91c-1.36.82-2.75,1.56-4,2.46l-1,.65-.49.32-.18.13-.63.47-1.27.93c-.84.62-1.71,1.17-2.51,1.83-1.63,1.26-3.26,2.48-4.92,3.67s-3.19,2.53-4.81,3.76a5,5,0,0,1-4,1.47,6.53,6.53,0,0,1-4.22-2.21A7.43,7.43,0,0,1,47,141.6l-.65.46-1.25.43a5.16,5.16,0,0,1-3.8-.3l-1.65-.68c-2.72-1.58-5.74-2.19-8.48-3.95l-.55-1.05-.4-.11A6,6,0,0,1,27,135l-.83-1.15a13.48,13.48,0,0,1-1.88-4.36,4.72,4.72,0,0,1-.9-1.5,6.84,6.84,0,0,1-3.23-3.35,1,1,0,0,1-.77-1.17,1.08,1.08,0,0,1,.27-.49h0a9.81,9.81,0,0,0-1-.36c-.37.13-.6.19-.6.19-.93.42-.93.42-1.76.77a5.15,5.15,0,0,1-1.71-.18c-2.28-1.44-2.29-1.43-2.89-2.35a2.05,2.05,0,0,1-.07-.34c-.77.14-.83.14-1,.17a2.26,2.26,0,0,1-.53-.13c-.41-.43-.41-.43-.64-.52a2.25,2.25,0,0,1-.31-.32c-.13-.73-.13-.73-.24-.88a2.1,2.1,0,0,1,0-.38l.36-.66,1.74.58-.17-.53.62.41-.51-.42h.63l-.79-.1a5.15,5.15,0,0,0,1.4-.81,1.93,1.93,0,0,0,.68-.64,1.89,1.89,0,0,1-.25-.24c1.13-.55,1.13-.55,2.24-1.06a4.56,4.56,0,0,1,.48.15.55.55,0,0,1,.32-.52l.56-.29c0-.06,0-.11.05-.15l0,0,.24-.56,0-.12h0c.16-.38.39-.94,1.08-2.35a7.37,7.37,0,0,1,1-.35c-.14,0-.28,0-.42-.06s-.46-.59-.58-.57a19.45,19.45,0,0,0-2.13.52c-.68.24-1.36.51-2,.8-1.34.58-2.66,1.23-4,1.85a1,1,0,0,1-1.32.09.82.82,0,0,1,.07-1.23c2.7-6,9.14-9.75,15.48-11,1.51-.58,3-1.19,4.47-1.81l-.34-.11,1.28-.28.12,0-1.33-.36-.71.09a29.17,29.17,0,0,1-5.29,1.71c-1.8.47-3.61,1-5.41,1.54s-3.91.8-5.9,1.27a.85.85,0,0,1-1.14-.24.81.81,0,0,1,.43-1A35.74,35.74,0,0,1,18,96.78,20.92,20.92,0,0,1,27.15,95a5.66,5.66,0,0,1,3.13-.8h0l-1-.36c.82-.26,1.58.14,2.39,0l-.83-.82c2-.67,3.93-1.58,5.88-2.38,1-.39,2-.76,3-1a14.25,14.25,0,0,1,3.06-.48,3.34,3.34,0,0,1,.43-.1,23.49,23.49,0,0,1,1.76-2c.16-.16.32-.31.49-.45l.15-.12.43-.25.87-.49a38.17,38.17,0,0,1,3.73-1.87c-.93.3-1.83.65-2.73,1l-2.65,1a1.92,1.92,0,0,1,.27-.17l.33-.21.68-.4,1.36-.8c.91-.54,1.85-1,2.81-1.48,1.91-.92,3.89-1.79,6-2.61,11.38-4.37,24.9-6.54,31.65-5.37a245.25,245.25,0,0,1,33.55-6.19,270.74,270.74,0,0,1,33.9-1.42,4.19,4.19,0,0,1,2.41.56c.11.27-.66.48-1.82.45a264.88,264.88,0,0,0-48.55,4.61,290,290,0,0,1,41.22-2c1.77,0,3.55-.07,5.34,0s3.5.22,5.24.42c17.69,1,34.15,4,51.53,8l2.77.63,2.7.72,5.31,1.41c1.76.45,3.47,1,5.18,1.52l5.12,1.56c3.4,1.07,6.75,2.28,10.17,3.44s6.81,2.57,10.34,3.93a280.28,280.28,0,0,1,27.92,13.11A247.47,247.47,0,0,1,306.49,122c2.25,1.62,4.13,3.43,4.13,4s-1.84-.28-4.09-1.88a311.39,311.39,0,0,0-27.75-16.69,317.47,317.47,0,0,0-29.49-13.56,298.84,298.84,0,0,0-31.18-10.52,314.77,314.77,0,0,0-33-7.38c-2.43-.45-4.87-.73-7.28-1.1l-3.62-.52c-1.21-.15-2.42-.26-3.63-.39a.46.46,0,0,1,.1.28c0,.36-.51.64-1.3.85l4.1.46c1.36.18,2.72.41,4.08.62l4.09.66,2,.34,2,.42a190,190,0,0,1,45.67,10.7A234.47,234.47,0,0,1,260,101.78a281.53,281.53,0,0,1,34.41,18.29,3.34,3.34,0,0,1,1,.79c.1.19-.18.11-.63-.16l-6-3.27-3-1.65-3.06-1.57-6.13-3.16-6.27-3c1.15,1,1.72,1.75,1.41,2.1s-1.5.2-3.15-.34l5.52,3c1.13.61,1.93,1.26,1.79,1.45s-1.12-.14-2.2-.71c-3.75-2-7.47-4-11.31-5.83-1.91-.92-3.79-1.91-5.73-2.77l-5.8-2.61A294.34,294.34,0,0,0,222,92.43a7.06,7.06,0,0,1,2.44,2.11h0l4.49,1.39c27.69,7.64,54.5,21,78.43,38.55.47.33.82.66.77.75s-.45-.11-.88-.42c-3.64-2.59-7.26-5.22-11-7.61-1.88-1.21-3.71-2.48-5.63-3.61l-5.73-3.45,0,0c.28.24.28.37-.1.23a5,5,0,0,1-1.19-.72c-.32-.27-.23-.35.09-.24a245.84,245.84,0,0,0-44.88-20.11,257.22,257.22,0,0,1,40.77,19.23c1.48.71,3,1.35,4.47,2.12a3.31,3.31,0,0,1,1,.76c.07.13-.27,0-.68-.17l-1.22-.63c2.41,1.51,4.06,3,3.75,3.43s-2.7-.52-5.21-2c-6.9-3.75-13.81-7.43-20.92-10.69l-2.34-1-2.42-.83a290.76,290.76,0,0,1,31.72,17.58c.89.52,1.57,1.1,1.49,1.26s-.87-.12-1.77-.64a297.55,297.55,0,0,0-28.58-14,286.65,286.65,0,0,0-30-11c-3.48-.62-7-1.09-10.47-1.62s-7-.82-10.6-1.11c.87.19,1.74.42,2.61.65,11.11,2.61,21.43,5.16,31.57,8.25a196.48,196.48,0,0,1,30.21,11.69,2.12,2.12,0,0,1,.9.67c0,.11-.38,0-.88-.26a221.89,221.89,0,0,0-29.7-11.38l-6.34-2-6.28-1.65-3.09-.79-3.09-.66c-2.06-.42-4.1-.85-6.13-1.23l6.08,1.61,3,.77,3,.87,6,1.71,5.92,1.88,3,1,2.93,1,5.87,2.11c1.94.76,3.87,1.56,5.81,2.35l2.92,1.2c1,.41,1.91.86,2.88,1.3a7.28,7.28,0,0,1,1.7,1c.06,0,.21,0,.43.06a62.09,62.09,0,0,1,6.33,2.52,3.18,3.18,0,0,1,1.06.68C274.62,123.58,274.33,123.53,273.87,123.35Zm-244.61-12-.24-.09h.65l1.39.73Zm-4.67,9.44h0l-.82-.38Zm96.62-48.2-7.27.82c-1.21.11-2.42.29-3.62.46l-3.62.5c-4.84.55-9.62,1.44-14.5,2.06l6.93-1.67,2.74-.44,2.76-.32,5.52-.62c1.83-.23,3.68-.34,5.53-.45ZM21,110.69a12.59,12.59,0,0,1,3.28.8,5,5,0,0,1,1.34-1.16,27,27,0,0,1,4.27-2.13c-.44-.29-.09-.44,0-.59l.43-.4c-1.58.6-3.25,1.1-4.86,1.75A40.91,40.91,0,0,1,21,110.69Zm-8.22,8.41-.23,0-.22-.76Zm.41,1.27.26-.07C13.54,120.57,13.41,120.54,13.17,120.37Zm2.31-.61a1.54,1.54,0,0,0-.49-.12Zm14.73,16-1.71-3.36,1.57,3.29Z"/><path d="M155.48,129.7l0,.26a.49.49,0,0,1-.43-.25c.64,2.37,3.21,3.24,5.43,3.08a1.1,1.1,0,0,0,1.55-.06,1.09,1.09,0,0,0-.05-1.54,2,2,0,0,1-.17-.41,8.45,8.45,0,0,0-1.17-3.5l.21.83a2.74,2.74,0,0,0-.63-.88l-.1.34a2.54,2.54,0,1,0-4.84,1.52Z"/><path d="M155,133.79c-.31-.74-.57-1.48-.83-2.23l0-.24-.53.76.05,0a4.48,4.48,0,0,1,2.85.55l.35.1a.83.83,0,0,0,.54-.21.8.8,0,0,0,.06-1.14l-.35-.38c-.65-1.18-2.17-2.38-3.68-1.56-.34.19-.52.63-.75,1a1.11,1.11,0,1,0,1.66,1.48l.17.3-.33,0c.47-.31,1-.06,1.49,0l.59.26.6-1.35-.38,0a.58.58,0,0,1,0,.17,10,10,0,0,1-2.12-.34l-1-.11a.69.69,0,0,0-.54.76l.11.48a2.11,2.11,0,0,0,0-.25c.49.79,1.11,1.51,1.58,2.31a.29.29,0,0,0,.38.13A.29.29,0,0,0,155,133.79Z"/><path d="M152.48,132c0-.17-.08-.35-.26-.45l-.14,0c0,.1,0,.23.07.36S152.36,132.21,152.48,132Z"/><path d="M152.08,131.63l0-.15a.77.77,0,0,1,0,.15h.05Z"/><path d="M177.19,147.76a38.24,38.24,0,0,0,2.89,3.07s.1,0,.16-.06.07-.15,0-.18c-1-1-2-2-2.87-3.08,0,0-.1,0-.16.06S177.16,147.72,177.19,147.76Z"/><path d="M180,161.1a.31.31,0,0,0-.14.18c0,.06,0,.1.1.07a.34.34,0,0,0,.13-.18C180.07,161.1,180,161.08,180,161.1Z"/><path d="M175.46,166.43a1.77,1.77,0,0,0-.74.08c-.05,0-.07,0-.07-.07a.45.45,0,0,1-.28.21,15.18,15.18,0,0,1-4.83-.83,1.71,1.71,0,0,1-.25.22c-.3.23-.58.25-.71.07l-.07-.17c-.38-.56-.78-1.08-1.15-1.65a.76.76,0,0,1-.54,0,13.68,13.68,0,0,1-2-.08,1,1,0,0,1-.17.31c-.2.24-.44.34-.56.23l-.19-.12c.13.19.26.39.38.59a.17.17,0,0,1,0,.1,5,5,0,0,0,.6.43,15.19,15.19,0,0,0,6.66,1.63s.09,0,.07.1a.27.27,0,0,1-.15.15c-2,.44-4.09,1.37-5.85,1.29a31.07,31.07,0,0,1-6-.8c-1.46-1.13-3.27-1.59-5.09-2.31a17.87,17.87,0,0,1-1.77-.79,1.84,1.84,0,0,1-.25-.14l-.39-.25-.76-.5-1.5-1c-2-1.37-3.91-2.8-5.85-4.26a3.32,3.32,0,0,1,1.36-6.18l-.34-.29-.42-.6a2.89,2.89,0,0,1-.48-2l.08-.91c.37-1.55.28-3.16.78-4.69l.45-.38v-.21a2.89,2.89,0,0,1,.32-1.71l.45-.53a7,7,0,0,1,1.88-1.38,2.48,2.48,0,0,1,.61-.6,3.45,3.45,0,0,1,1.24-1.92.49.49,0,0,1,.47-.5.52.52,0,0,1,.25.07h0a3.54,3.54,0,0,0,.07-.5,2.6,2.6,0,0,1-.15-.25l-.52-.72a2.28,2.28,0,0,1-.08-.79c.46-1.21.46-1.21.83-1.6l.15-.07c-.13-.33-.14-.35-.17-.45a.88.88,0,0,1,0-.25c.16-.23.16-.23.18-.35a1.41,1.41,0,0,1,.13-.18c.32-.15.32-.15.38-.21a.75.75,0,0,1,.18-.07l.33.07-.12.85.23-.15-.13.33.15-.28.05.28,0-.36c.33.4.33.4.49.51a.89.89,0,0,0,.36.22.69.69,0,0,1,.08-.14c.36.43.36.43.69.86a1.64,1.64,0,0,1,0,.23.25.25,0,0,1,.27.07l.18.22h.07l0,0,.27,0h.06l1.19.12a3.24,3.24,0,0,1,.28.4l0-.19c0-.13.22-.3.2-.35a17.19,17.19,0,0,0-2.2-3.14.42.42,0,0,1-.15-.57.41.41,0,0,1,.57-.14,8.92,8.92,0,0,1,6.54,5c.45.53.92,1,1.39,1.56v-.17l.3.49,0,0v-.65l-.14-.28a27.7,27.7,0,0,1-2.71-4,24.49,24.49,0,0,1-1.15-2.29.37.37,0,0,1,0-.52.36.36,0,0,1,.51,0c2.28,1.32,4.44,3.4,5,6a2.11,2.11,0,0,1,.76,1.17v0l0-.51c.22.3.15.69.32,1l.26-.52c1.17,1.36,2.77,2.39,3.55,4l.12.16a8.07,8.07,0,0,1,2,.47c-.07-.14-.15-.28-.23-.42a1.48,1.48,0,0,1,1,.28,3.12,3.12,0,0,1,.38,3.37A49.57,49.57,0,0,0,177,147.3c.08,0,.07.18,0,.33s-.24.23-.33.19a16.35,16.35,0,0,1-3.68-1.38,15.24,15.24,0,0,0,2.13,2.46l.38.2a.6.6,0,0,1,.26.32,13.14,13.14,0,0,0,3.43,2.25,30.06,30.06,0,0,0,3.52,1.1,12.41,12.41,0,0,1,4.77,1.8c.2.09.17.47-.07.83s-.62.57-.83.48c-3.55-1.07-7.23-1.87-10-4.25l-.86-.77-.1.14a2.19,2.19,0,0,1-.47.45,8.65,8.65,0,0,1,.87,1,6.6,6.6,0,0,1,3.4,1.71,8.92,8.92,0,0,1,1.29,2.47c1,.43,2,.8,3,1.26,0,0,.06.07,0,.14a.22.22,0,0,1-.16.13,14,14,0,0,1-2.56-.33,2.3,2.3,0,0,1-.47.9,2.15,2.15,0,0,1-.81.65l.39.34c.07.07,0,.24-.08.4s-.29.24-.37.17L178.11,159c-.79-.33-1.57-.69-2.32-1.08a3.27,3.27,0,0,1-.39.9h0l.33.22a14,14,0,0,1,6.62,3.22s0,.11,0,.19-.13.11-.16.07a11.78,11.78,0,0,0-1.74-1.33h0a.26.26,0,0,1-.14.17c-.06,0-.1,0-.09-.06a.27.27,0,0,1,.13-.18,15.07,15.07,0,0,0-3.86-1.62,17,17,0,0,1,2.91,2.3l.53,0c.05,0,.05.08,0,.16s-.11.12-.16.11h-.14c.16.17.07.59-.22,1s-.7.55-.88.38a17.64,17.64,0,0,1-1.64-1.06l-.22-.07-.3.05c.68.77,1.33,1.57,2,2.38.07.05,0,.2-.06.34s-.25.2-.32.15a28.23,28.23,0,0,1-5.11-2.14l-2.74.64a1.21,1.21,0,0,0,.16.16c1.55,1.19,4.12.57,5.88,1.39,0,0,0,.1,0,.17s-.13.11-.17.08a16.71,16.71,0,0,0-3-.46,14.21,14.21,0,0,0-2.54-.27c1.25.72,2.9.86,4.27,1.41.07,0,.1.08.08.18a.19.19,0,0,1,.1-.08,2.67,2.67,0,0,1,.78-.07c.05,0,.07.05,0,.13A.24.24,0,0,1,175.46,166.43Zm-18.27-26.78v-.12l.09.29-.15.75Zm-5-.65h0c.05-.25.08-.43.08-.43C152.28,138.75,152.25,138.89,152.23,139Zm21,8.75a4.54,4.54,0,0,1-1.41-1.86l.5.25A16.75,16.75,0,0,1,173.27,147.75Zm-16.78-11.92a6,6,0,0,1,0,1.59,2.06,2.06,0,0,1,.68.41,20,20,0,0,1,1.53,1.52c.08-.24.19-.12.28-.09l.24.12c-.48-.6-1-1.2-1.44-1.83A17.64,17.64,0,0,1,156.49,135.83Zm-4.69-2.47v-.1l.33-.2Zm-.55.35.06.11C151.2,133.9,151.2,133.84,151.25,133.71Zm.5,1a1,1,0,0,0,0-.23Zm-6,8.84,1.41-1.2-1.39,1.12Z"/><path d="M327.19,4.34l-.41.31c-.22-.22-.19-.53,0-.88a6.12,6.12,0,0,0-1.82,5.61,10.51,10.51,0,0,0,2.93,5.24,1.82,1.82,0,0,0,1.89,2,2.36,2.36,0,0,0,2.45-1.78,2.94,2.94,0,0,1,.48-.66,17,17,0,0,0,4.43-5.14L336,10.16a4.74,4.74,0,0,0,.74-1.7l-.7.2a3.59,3.59,0,0,0-.62-5.85,5.92,5.92,0,0,0-7.32.68Z"/><path d="M319.74,8c.91-1.25,1.87-2.43,2.85-3.59l.44-.22h-1.9l.12,0c1.51,1.2,1.95,3.05,2.3,4.75l.25.61a1.57,1.57,0,0,0,1,.54A1.67,1.67,0,0,0,326.72,9c.06-.3.14-.59.23-.89,1.29-2.14,1.67-5.45-1.44-6.88A6.74,6.74,0,0,0,323,1a2.24,2.24,0,0,0-2.59,1.73A2,2,0,0,0,322.3,5c-.1.19-.2.38-.31.56l-.41-.46c1.07.36,1.22,1.38,1.74,2.14l.2,1.13,3-.57-.33-.59a2,2,0,0,1-.33.12A16.45,16.45,0,0,1,324,3.94l-.94-1.59a1.53,1.53,0,0,0-1.9,0l-.69.66.4-.29c-.79,1.56-1.31,3.24-2.14,4.82a.49.49,0,0,0,.22.7A.62.62,0,0,0,319.74,8Z"/><path d="M319.8,2.28c.24-.25.5-.48.47-.86l-.22-.17c-.15.13-.35.3-.54.48C319.12,2.07,319.38,2.28,319.8,2.28Z"/><path d="M320.05,1.25l.23-.2-.29.13,0,0Z"/><path d="M360.9,124.06c1,1.55,2.14,3,3.21,4.49s2.16,3,3.34,4.45c2.35,2.87,4.61,5.83,7.15,8.58,1.24,1.39,2.46,2.81,3.74,4.18l3.9,4.05c.66.67,1.3,1.36,2,2l2.05,2,4.1,3.89c.38.34.76.54.85.46s-.14-.4-.49-.71a211.86,211.86,0,0,1-15.69-16c-2.51-2.74-4.78-5.69-7.11-8.55-1.17-1.42-2.21-3-3.32-4.43L363,126.15c-.55-.73-1.08-1.48-1.58-2.26-.28-.4-.59-.67-.73-.64S360.64,123.67,360.9,124.06Z"/><path d="M443.06,203.77c-.37-.09-.4,0-.08.25a3.91,3.91,0,0,0,1.19.54c.31.08.35,0,.08-.24A4.5,4.5,0,0,0,443.06,203.77Z"/><path d="M436.64,209.59c-1.08-.39-2.13-.76-3.15-1.1s-2-.71-2.92-1a4.6,4.6,0,0,1-1-.46c0,.2-.41.15-1.19-.13-3.86-1.38-7.67-3.06-11.56-4.73-2-.82-3.85-1.8-5.79-2.71s-3.9-1.84-5.79-2.88l-5.76-3.07c-1.93-1-3.79-2.17-5.69-3.26-3.83-2.15-7.51-4.57-11.25-6.88a1.79,1.79,0,0,1-.88-.07,18.14,18.14,0,0,1-5.38-3.19l-1.46-1.25c-1.53-1.18-3-2.51-4.43-3.76s-2.93-2.52-4.37-3.81l-4.23-4c-1.41-1.32-2.82-2.64-4.14-4a42.92,42.92,0,0,1-4.25-3.4c-1.35-1-2.64-2.11-3.93-3.21l-3.89-3.31c-1.32-1.09-2.55-2.28-3.81-3.46L338,146.31c.18.42.22.73.06.86-.44.19-1.84-.75-3-2.23l-1.86-2.18,2.5,3.27c.85,1.07,1.74,2.11,2.6,3.17a9.22,9.22,0,0,1,.67.86l3,3.34c1,1.11,2.14,2.17,3.23,3.25a205.12,205.12,0,0,0,30.26,24.54,254.13,254.13,0,0,0,32.33,18.22,4.05,4.05,0,0,1,1.18.7c.16.19.06.28-.35.11-14.33-5.81-27.28-10.83-42.34-20.76a232.59,232.59,0,0,1-25.77-19.61A226.6,226.6,0,0,1,317,136,336,336,0,0,1,297.36,107c-1.46-2.53-3-5-4.42-7.62s-2.79-5.23-4.19-7.87-2.62-5.42-3.94-8.19c-.33-.69-.67-1.38-1-2.08l-.9-2.14c-.61-1.43-1.21-2.87-1.82-4.31l-1.22-2.94c-.39-1-.74-2-1.1-3l-2.15-6-.53-1.5-.46-1.51-.92-3c-.61-2-1.22-4-1.8-6.06l-.38-1.54-.19-.76-.08-.3L272,47.12,271.36,45l-1.14-4.25a160.92,160.92,0,0,1-3-17.45,8.5,8.5,0,0,1,.7-6.07,6,6,0,0,1,4.22-3.18,6.46,6.46,0,0,1,5.84,2.3v-1l.36-1.65a6.05,6.05,0,0,1,2.43-3.7l1.5-1.12C285.1,7.36,287.68,5,290.78,4l1.16.31.35-.27a5.54,5.54,0,0,1,3.21-1.58l1.41.15a14.31,14.31,0,0,1,4.51,1.52,5,5,0,0,1,1.72.31,7,7,0,0,1,4.65-.21,1,1,0,0,1,1.38.17.93.93,0,0,1,.19.49h0c.38-.18.49-.23.91-.46a5.18,5.18,0,0,1,.25-.52c.3-.88.3-.88.59-1.64a4.76,4.76,0,0,1,1.25-1C315,.69,315,.7,316,.88a2.11,2.11,0,0,1,.3.16c.41-.55.44-.59.56-.73a2.3,2.3,0,0,1,.44-.24c.59,0,.59,0,.81-.07a3.82,3.82,0,0,1,.45,0c.63.36.63.36.82.38a1.88,1.88,0,0,1,.3.2l.27.59c-1.58.68-1.58.69-1.58.69l.51.2-.71.14.65-.07-.42.38L319,2.1a3.41,3.41,0,0,0-.31,1.3,1.38,1.38,0,0,0,0,.76l.34,0c-.32,1-.32,1-.67,2a3,3,0,0,1-.44.22.39.39,0,0,1,.19.48l-.15.51.08.12h.05c.11.17.18.3.26.44l.07.09h0c.17.3.46.74,1.22,1.89a4.8,4.8,0,0,1-.32.85l.29-.25c.21-.16.76,0,.81-.09a44.62,44.62,0,0,0,2.75-6.59A.81.81,0,0,1,324,3a.78.78,0,0,1,.88.68,13.44,13.44,0,0,1,1.6,7.26,15.72,15.72,0,0,1-.66,3.74,18.48,18.48,0,0,1-.67,1.84c-.22.61-.47,1.22-.75,1.81-.26,1.24-.48,2.49-.69,3.75l.27-.2-.4,1s0,.07,0,.11l1-.81c.1-.17.19-.35.28-.52a17.2,17.2,0,0,1,1.19-4.2c.5-1.36,1.28-2.7,1.81-4.05a34.61,34.61,0,0,1,2.41-4,.76.76,0,0,1,.86-.54.63.63,0,0,1,.59.71,18.4,18.4,0,0,1-.49,6.89A14.66,14.66,0,0,1,328.06,23a4.19,4.19,0,0,1-.82,2.41v0l.78-.6c-.16.65-.81,1.05-1.06,1.66l1.1-.33c-.49,3.19-.05,6.52-1.2,9.67,0,.12,0,.23-.06.35a17.45,17.45,0,0,1,1.26,1.74c.09.15.17.31.25.47a.67.67,0,0,1,.06.12l.08.36c.05.24.11.49.16.73.17,1,.46,2,.64,3l-.18-2.16L329,38.33l1.18,4.45a47.7,47.7,0,0,1,.93,4.73c.83,4.41,1.35,9.22,1.81,13.59.09,1.09.16,2.17.2,3.21s.14,2,.16,3a26.46,26.46,0,0,1-.28,5,201.08,201.08,0,0,0,11,24.89,183,183,0,0,0,14.65,23.07,2.87,2.87,0,0,1,.81,1.84c-.15.24-.72-.11-1.3-.86-2.15-2.48-4-5.19-6-7.84-1-1.31-1.91-2.71-2.83-4.09l-2.75-4.16c-.88-1.41-1.71-2.86-2.56-4.29s-1.75-2.85-2.51-4.33l-2.34-4.43L338,89.87l-1.07-2.26A160,160,0,0,0,352.48,118c.85,1.21,1.67,2.45,2.6,3.61a43.94,43.94,0,0,1,2.47,3.64l1.63,2.25,1.72,2.17,3.42,4.33c1.18,1.4,2.39,2.77,3.59,4.16s2.37,2.79,3.66,4.1l3.81,4c1.25,1.35,2.65,2.58,4,3.88s2.68,2.6,4.13,3.82l4.34,3.71c1.23,1.08,2.51,2.06,3.77,3l3.73,2.92c2.49,1.89,5,3.64,7.51,5.46s5.12,3.42,7.71,5.15,5.37,3.32,8.18,5c8,4.64,15.81,8.65,23.71,12.48s16,7.28,24.47,10.79c2.28.84,4.28,2,4.4,2.51s-1.65.28-4-.55c-9-3.24-17.91-6.83-26.59-10.84a278,278,0,0,1-25.31-13.51,216.21,216.21,0,0,1-23.73-16.57,183,183,0,0,1-21.48-20.08c-1.49-1.54-2.82-3.2-4.2-4.79s-2.77-3.16-4-4.83a.65.65,0,0,1-.14.26c-.27.24-.77.14-1.4-.2.74.94,1.44,1.91,2.21,2.83l2.3,2.76c1.54,1.85,3,3.75,4.68,5.53,9.76,9.29,20.18,17.8,31.49,26.76,7.81,6.1,15,11.6,22.7,16.82a299.13,299.13,0,0,0,31.93,15,2.91,2.91,0,0,1,1,.53c.12.15-.15.14-.61,0-1.93-.67-3.85-1.4-5.8-2.11l-2.91-1.08c-1-.37-1.93-.78-2.9-1.18l-5.81-2.41L433,194.66c1,.9,1.56,1.64,1.27,2s-1.41.27-3-.19l5.16,2.67c1,.58,1.84,1.13,1.71,1.32s-1.07,0-2.09-.56c-3.52-1.82-7.07-3.56-10.5-5.54-1.72-1-3.47-1.9-5.17-2.9l-5.08-3.06A248.19,248.19,0,0,1,391.45,173a6.35,6.35,0,0,1,1.45,2.67h0l3.58,2.6A364.81,364.81,0,0,0,470.38,214c.51.18.91.41.89.5s-.44,0-.9-.14c-3.94-1.45-7.91-2.8-11.79-4.38-1.94-.78-3.91-1.47-5.83-2.3L447,205.26l0,0c.28.19.3.32-.07.24a4.58,4.58,0,0,1-1.21-.51c-.33-.21-.25-.3.07-.24a377.79,377.79,0,0,1-41.16-21,327.1,327.1,0,0,0,37.22,20.56c1.46.51,2.89,1.09,4.4,1.57a2.86,2.86,0,0,1,1,.57c.08.12-.25.1-.67-.05l-1.23-.42c2.45,1.08,4.2,2.28,4,2.74s-2.64-.06-5.23-1.17c-6.91-3-13.74-6.09-20.35-9.64l-2.2-1.06-2.29-.91a285,285,0,0,0,31.27,15.64c.92.38,1.65.84,1.6,1s-.85,0-1.78-.36a264.12,264.12,0,0,1-28.59-12,250.55,250.55,0,0,1-27.35-15.48c-3.14-1.53-6.22-3.21-9.38-4.82s-6.22-3.47-9.37-5.27c.68.59,1.42,1.13,2.14,1.69,2.32,1.74,4.57,3.47,6.9,5s4.65,3.05,6.95,4.51,4.69,2.72,7,4,4.72,2.48,7,3.72c9.43,4.77,19,9,29.07,13.39a2,2,0,0,1,.93.58c0,.12-.37.05-.89-.17-9.92-4.23-19.08-8.05-28.72-13l-5.89-3.1c-1.92-1.05-3.8-2.15-5.69-3.2l-2.81-1.57c-.93-.53-1.84-1.1-2.76-1.64l-5.48-3.22,5.32,3.56c.89.58,1.77,1.18,2.67,1.73l2.72,1.64c1.81,1.07,3.6,2.16,5.42,3.2l5.51,3,2.75,1.48,2.8,1.39,5.58,2.8,5.68,2.64,2.83,1.34,2.88,1.27a7.5,7.5,0,0,1,1.7.92.79.79,0,0,1,.44.06c2,.65,4.15,1.48,6.36,2.24a3.1,3.1,0,0,1,1.1.59C437.41,209.76,437.12,209.74,436.64,209.59ZM313,18l.19-.15-.32.49-1.33.73Zm-5.06-8.34h0l.78-.38Zm32.43,88.49c-1.73-3.67-3.57-7.27-4.93-11.06-.7-1.88-1.47-3.73-2.05-5.65s-1.14-3.83-1.67-5.76l2.23,5.35c.93,2.88,2,5.7,3,8.58S339.19,95.3,340.32,98.17ZM318.17,12.4a13.78,13.78,0,0,1-2.55,1.88,3.79,3.79,0,0,1,.16,1.5c-.16,1.38-.22,2.74-.44,4.08.47-.2.43.12.49.28l.13.49c.3-1.43.59-2.86,1-4.3A28.43,28.43,0,0,1,318.17,12.4Zm-1.39-9.77.19-.11.72.3Zm-1.22-.48-.12.19C315.17,2.26,315.28,2.2,315.56,2.15ZM314.5,4a1.48,1.48,0,0,0,.42-.25Zm-21.72.56,3.65.94-3.5-1Z"/><path d="M328.26,151.07l-.48-.26c.15-.29.49-.39.92-.38-4.81-1.88-9.21,1.33-11.39,5a2,2,0,0,0-1.61,2.5,2.42,2.42,0,0,0,2.74,1.69,3.52,3.52,0,0,1,.89.22,20.6,20.6,0,0,0,7.34,2.37l-1.67-.69a6.17,6.17,0,0,0,2.22.1c-.16-.18-.33-.39-.48-.58,2.78,1,5.63-.25,6.4-2.87a5.57,5.57,0,0,0-3.62-6.62Z"/><path d="M321.69,145.48c1.62.36,3.2.81,4.79,1.28l.39.33-.71-1.78v.12c-.69,1.86-2.46,3-4.15,4l-.56.44a1.44,1.44,0,0,0-.25,1.12,1.78,1.78,0,0,0,1.91,1.44l1.05-.12c2.76.37,6.55-.55,6.83-4a5.8,5.8,0,0,0-.87-2.45,2.44,2.44,0,0,0-2.82-1.78,2.12,2.12,0,0,0-1.62,2.69l-.71-.08.33-.56c0,1.14-1,1.68-1.61,2.46l-1.12.64,1.67,2.56.51-.54-.24-.26a18.52,18.52,0,0,1,3-3l1.32-1.49a1.46,1.46,0,0,0-.72-1.8l-.95-.39.46.26c-1.94-.15-3.87,0-5.79-.15a.56.56,0,0,0-.65.48A.61.61,0,0,0,321.69,145.48Z"/><path d="M327.6,143.34a1.35,1.35,0,0,0,1.07.13c.06-.16.08-.24.1-.28l-.71-.33C327.55,142.63,327.44,143,327.6,143.34Z"/><path d="M328.77,143.19l.29.14-.24-.22,0,0Z"/><path d="M234.89,182.54c-8.68,3.41-17.24,7.22-25.67,11.31-.28.13-.47.33-.43.44s.31.08.57-.06c8.45-4,17-7.82,25.65-11.22.28-.12.47-.31.45-.44S235.16,182.43,234.89,182.54Z"/><path d="M167.59,206.82c.14-.18.08-.26-.15-.19a1.67,1.67,0,0,0-.65.44c-.13.16,0,.25.15.19A1.7,1.7,0,0,0,167.59,206.82Z"/><path d="M165,199.43a33.11,33.11,0,0,0,2.73-2.66,1.68,1.68,0,0,1,.52-.36c-.15-.09,0-.36.34-.69,7-6.67,15.22-13.06,23.29-19.4a1.19,1.19,0,0,1,.13-.61,6.84,6.84,0,0,1,2.68-2.51l1-.52c3.89-2.23,7.76-4.46,11.7-6.55a15.63,15.63,0,0,1,2.44-2c3-2.57,6-5.16,9.16-7.63-.28,0-.5-.07-.58-.24-.15-.44.47-1.22,1.4-1.77l1.37-.87L217,155.72a3,3,0,0,1-.56.25c-1.47.88-2.93,1.8-4.39,2.78-6.4,4.24-12.35,8.75-18.06,13.35s-11.17,9.31-16.52,14.07a1.49,1.49,0,0,1-.68.42c-.16,0-.21-.11,0-.3,6.31-6.67,11.31-13.34,19.05-20.29,9.23-8.25,18.59-16.24,28.73-24,11.18-7,21.2-14.29,32.65-21.81q6.36-4.17,12.72-8c6.63-4.21,13.35-7.85,20.33-11.4,3.45-2.26,7.68-1.45,9.4,1.77a6.89,6.89,0,0,1-.06,6.28l.89-.35,1.56-.21a5.6,5.6,0,0,1,4.06,1.07l1.5,1c2.31,2.22,5.25,3.73,7.35,6.27l.15,1.2.37.23a5.61,5.61,0,0,1,2.64,2.43l.39,1.38a14.2,14.2,0,0,1,.26,4.81,4.78,4.78,0,0,1,.35,1.74,7,7,0,0,1,1.94,4.29,1,1,0,0,1,.34,1.36,1,1,0,0,1-.41.37h0c.31.29.4.38.78.69a5.22,5.22,0,0,1,.61,0l1.84-.06a4.9,4.9,0,0,1,1.48.81c1.58,2.21,1.58,2.21,1.82,3.3a2,2,0,0,1,0,.34c.72.17.77.19,1,.25a2.13,2.13,0,0,1,.42.33c.22.56.22.56.39.73a3.22,3.22,0,0,1,.18.42c-.12.73-.12.73-.07.91a1.78,1.78,0,0,1-.08.37l-.5.47-1.34-1.23v.56l-.43-.61.32.58-.54-.25.66.4a3.78,3.78,0,0,0-1.46.2,1.51,1.51,0,0,0-.78.32,2.72,2.72,0,0,1,.15.31c-1.14.08-1.14.08-2.26.13a3.22,3.22,0,0,1-.39-.33.46.46,0,0,1-.42.37l-.58.05a.62.62,0,0,1-.09.12l0,.05-.36.42-.07.09h0c-.25.29-.61.7-1.55,1.81a6.66,6.66,0,0,1-1,0l.36.19c.24.14.28.71.38.73a41.14,41.14,0,0,0,7.92.13.92.92,0,0,1,1.15.44.79.79,0,0,1-.39,1.1c-3.91,4.23-10,5.42-15.88,4.76-1.42.13-2.83.32-4.24.51l.28.2-1.18-.07-.12,0,1.14.67.64.1c3.23-.57,6.58,0,9.9.14a44.74,44.74,0,0,1,5.26.88.81.81,0,0,1,.9.63.67.67,0,0,1-.58.8c-4.82,2-10.79,2.91-16,1a4.82,4.82,0,0,1-2.86-.06h0l.86.58c-.76,0-1.37-.48-2.1-.55l.63.95c-3.64.4-7.19,1.84-10.9,1.45l-.4,0a18.25,18.25,0,0,1-1.67,1.62,5.19,5.19,0,0,1-.46.36l-.12.09-.22.11-.43.23c-.6.29-1.22.56-1.88.81l2.81-.58a26.36,26.36,0,0,1-5.65,2.62c-5.65,1.8-12.54,2.63-16.55,1.47-10.68,4.42-21.3,9.09-31.63,14.27a1.42,1.42,0,0,1-1.32.15c-.17-.19.07-.57.6-.84,7.17-4.2,14.69-8,22.33-11.59-6.75,2.24-13.47,4.69-20.13,7.61l-2.48,1.26a18.25,18.25,0,0,1-2.56,1,259.15,259.15,0,0,0-24.54,12.55c-6.95,4.14-12.94,7.92-19.66,12.36-9.43,6.25-17.9,12.08-27.48,17.91-1.24.82-2.6,1.3-3,1s.29-1.14,1.53-2c9.54-6.75,19.05-13.39,28.9-19.73a299.78,299.78,0,0,1,31.07-17.76c2.39-1.14,4.72-2.27,7.07-3.35a.67.67,0,0,1-.18-.2,1.11,1.11,0,0,1,.14-1.1c-2.68,1.2-5.38,2.43-8.12,3.6-7,4.37-14,8.76-21.87,12.75-5.41,2.74-10.5,4.94-15.61,7.38-5.92,3.92-11.75,8-17.66,12a1.13,1.13,0,0,1-.64.29c-.14,0-.06-.17.17-.35,3.84-3.12,7.87-6.2,12-9.23-.86.18-1.48.11-1.67-.28s.12-1.07.77-1.82l-3,1.85c-.61.38-1.18.54-1.29.35s.27-.65.84-1q6-3.84,12.09-7.53c4.7-3.21,9.44-6.33,14.26-9.39a3.56,3.56,0,0,1-2.06-.2h0l-2.25,1.39c-13.1,9.52-26.64,18.89-40.41,28.23-.27.19-.53.28-.59.21s.1-.27.35-.43l12.4-8.5h0c-.2.06-.3,0-.15-.19a1.87,1.87,0,0,1,.65-.44c.23-.07.27,0,.15.19Q177.74,200,188.9,192l-21.43,13.7-2.11,1.86a1.19,1.19,0,0,1-.64.28c-.11,0,0-.21.2-.38l.59-.51c-1.35.87-2.6,1.24-2.87.81s.7-1.57,2.08-2.51q5.44-3.93,11-7.65l1.15-.87,1.08-1c-5.92,3.63-11.8,7.31-17.57,11.1-.48.34-1,.52-1.08.38s.19-.54.67-.88c9.49-7.65,19.4-15.05,29.62-22.1l9-9.06-1.35.83a141.8,141.8,0,0,0-15.37,11.7c-4.78,4-9.43,8.09-14.65,12-.25.21-.52.3-.6.25s0-.27.32-.46c5-3.91,9.37-7.91,14.31-12,4.08-3.37,8-6.52,11.74-9.81-8.25,5.71-15.59,12-23.41,18.08a2.82,2.82,0,0,1-1,.58.37.37,0,0,1-.12.25c-.87.92-1.86,1.86-2.89,2.78a1.17,1.17,0,0,1-.65.35C164.73,199.81,164.81,199.64,165,199.43ZM309.08,142.5l.21.14-.6-.16-1.15-1Zm6.7-7.6h0l.65.6Zm-63.54,36A92.76,92.76,0,0,1,266.67,166l-3.33,1.54Zm64.28-25.34a13.68,13.68,0,0,1-2.78-1.75,4.54,4.54,0,0,1-1.48.68c-1.46.37-2.91.64-4.35.87.34.38,0,.44-.15.55l-.47.28c1.57-.18,3.15-.3,4.78-.39A31.61,31.61,0,0,1,316.52,145.52Zm9.55-4.88.19.14,0,.79S326.16,141.18,326.07,140.64Zm0-1.33-.24,0C325.83,139,325.93,139.07,326.09,139.31Zm-2.24-.31a1.58,1.58,0,0,0,.41.3Zm-8.6-20.21.48,3.78-.36-3.67Z"/></g></g></svg>