<svg xmlns="http://www.w3.org/2000/svg" viewBox="0 0 440.95 245.79"><g id="Layer_2" data-name="Layer 2"><g id="Layer_1-2" data-name="Layer 1"><path d="M207.88,25.36l.65,0a1.53,1.53,0,0,1-.93.86A13.72,13.72,0,0,0,215,22.32,20.5,20.5,0,0,0,219.45,16c1.37-.73,2.06-2.07,1.55-3s-2.14-1.13-3.6-.39a6.22,6.22,0,0,1-1.14.2,27.81,27.81,0,0,0-9.6,1.44l2.26-.24a11,11,0,0,0-2.8,1.09l.73.28c-3.68.58-7,3.49-7.09,6.43s3,4.61,6.52,3.87Z"/><path d="M216.92,27c-1.85.44-3.68.85-5.59,1.25l-.55-.08,1.4,1.22-.06-.1c.1-2,1.67-4,3.29-5.71l.51-.67a1.3,1.3,0,0,0,0-1.14,1.89,1.89,0,0,0-2.56-.39l-1.16.63c-3.26,1-7.43,4.09-6.43,7.43.24.75,1.2,1.17,1.91,1.7a2.88,2.88,0,0,0,3.73,0c1.21-.91,1.57-2.36.8-3.29l.79-.3c-.06.23-.11.46-.17.69-.41-1,.52-2,1-3.06l1.05-1.13-2.6-1.51-.42.75.35.12a33.23,33.23,0,0,1-2.36,4.33c-.31.68-.62,1.38-.92,2.08a1.21,1.21,0,0,0,1.45,1.21l1.17-.16h-.59c2.13-.92,4.13-2,6.22-2.83a.7.7,0,0,0,.53-.73A.54.54,0,0,0,216.92,27Z"/><path d="M211.36,32a1.9,1.9,0,0,0-1.19.49v.3l.88-.11C211.69,32.59,211.68,32.24,211.36,32Z"/><path d="M210.18,32.77l-.37,0,.35.06,0,0Z"/><path d="M266.7,169.2l-.32.91c-.1.25-.16.32-.24.5l-.46.9a20,20,0,0,0-.82,1.83,30.76,30.76,0,0,0-1.32,3.86,17.23,17.23,0,0,0-.6,4.12,8.45,8.45,0,0,0,.9,4.07A6.42,6.42,0,0,0,267,188.1,12.33,12.33,0,0,0,271,189a30.33,30.33,0,0,0,4.26,0l2.15-.19,4.91-.58c.85-.11,1.54-.33,1.55-.52s-.66-.24-1.44-.13l-5,.58-2.06.18a28.86,28.86,0,0,1-4.05.05,12,12,0,0,1-3.89-.84,6.22,6.22,0,0,1-3-2.53,7.69,7.69,0,0,1-.9-3.85,15.43,15.43,0,0,1,.55-3.9,27.14,27.14,0,0,1,1.24-3.66c.26-.59.47-1.17.77-1.74l.44-.85.22-.43a3,3,0,0,0,.14-.37l.16-.45a2.62,2.62,0,0,0,.18-1.42C267.18,168.18,266.92,168.59,266.7,169.2Z"/><path d="M412.19,190.21c-.54-.57-.63-.46-.25.25a15.42,15.42,0,0,0,1.48,2.2c.41.49.54.38.25-.24A12.14,12.14,0,0,0,412.19,190.21Z"/><path d="M399.9,192.27a26.43,26.43,0,0,0-8.35-5.05,6.88,6.88,0,0,1-1.33-.67c.06.29-.58.24-1.64-.07-5.26-1.41-10.7-.66-16.91,1.43-.77.25-1.55.54-2.35.84l-2.46,1-2.44,1L362,191.82c-3.26,1.49-6.49,3.16-9.76,4.94-6.52,3.56-13.09,7.64-20.13,11.81l-2.69,1.57c-.95.54-1.89,1.08-2.86,1.6-1.93,1.07-3.92,2.07-5.91,3.06a131.08,131.08,0,0,1-12.43,5.25,3.5,3.5,0,0,1-1.26,1.1c-2.18,1.45-7,3.21-12.11,4.13-1.29.22-2.58.38-3.87.57-1.93.29-4,.56-5.65.76l-2.83.34c-1.26.17-2.53.3-3.8.43a104.62,104.62,0,0,1-15.06.6,55.67,55.67,0,0,1-14.24-2.35,35.39,35.39,0,0,1-12.4-6.58,18.32,18.32,0,0,1-2.42-1.83,19.69,19.69,0,0,1-2.33-2.25l-1.1-1.3c-.36-.44-.67-.93-1-1.4s-.67-1-1-1.47-.56-1.06-.85-1.59a36.83,36.83,0,0,1-4.07-11.42c-.18-1-.35-2-.48-3a22.9,22.9,0,0,1-.32-3.12,51.72,51.72,0,0,1,.06-6.46,65.88,65.88,0,0,1,2.41-13.41c.63-2.28,1.57-4.44,2.4-6.67l1.29-3.34c.11-.27.2-.56.33-.83l.42-.77.85-1.55c-.77,1-1.36,1.52-1.58,1.44-.18-.25.21-1.37,1-3,.4-.82.89-1.77,1.45-2.8.15-.25.29-.52.44-.78a7.8,7.8,0,0,1,.45-.75c.29-.42.58-.86.89-1.3l1.85-2.66.94-1.31,1-1.25a42.37,42.37,0,0,0-2.88,3.65l-1.39,1.89-.69,1c-.24.32-.51.8-.76,1.19-2,3.31-4.3,6.45-5.75,10.18-.46,1-.91,2-1.34,2.88A46.79,46.79,0,0,0,222.5,173c-.65,2.08-1.17,4.17-1.62,6.28a60.59,60.59,0,0,0-1.3,12.55,43.4,43.4,0,0,0,.58,6.59,44.47,44.47,0,0,0,1.34,6.33c.35,1,.68,2,1.06,3l1.26,2.95,1.55,2.81c.58.9,1.22,1.77,1.82,2.65s1.34,1.7,2,2.53,1.53,1.53,2.29,2.28a30.53,30.53,0,0,0,2.47,2.08,23.84,23.84,0,0,0,2.63,1.84,43.84,43.84,0,0,0,11.68,5c8.23,2.17,17.18,2.2,26,1.16,2.2-.26,4.38-.58,6.56-.9.54-.07,1.09-.19,1.62-.27l1.39-.25,2.18-.41,4.59-.93c1.58-.36,3.16-.7,4.74-1.11a128.23,128.23,0,0,0,18.54-6.14,136.85,136.85,0,0,0,17-8.67c10-6.07,18.71-12,27.65-16.66a7,7,0,0,1,2.09-.86c.41,0,.41.18-.23.53A180.87,180.87,0,0,0,344.46,206l-8.08,5.91L332.12,215c-1.57,1.07-3.17,2.15-4.83,3.19a121.48,121.48,0,0,1-34.51,15c-1.07.3-2.15.55-3.23.81l-3,.72L285,235l-.76.17-.48.1-.6.11c-1.61.34-3.27.56-4.93.84-2,.31-4,.57-6,.85s-4,.39-6,.46l-3,.13c-1,.06-2,0-3,0s-2,0-2.95-.1l-2.92-.25c-1-.07-1.92-.23-2.87-.38s-1.91-.29-2.85-.48a56.66,56.66,0,0,1-5.52-1.46,46.57,46.57,0,0,1-10.35-4.62l-2.39-1.55L228.27,227a24.14,24.14,0,0,1-2.16-1.89l-1-1-.26-.25-.07-.06c-.09.05-.06,0-.1,0l-.11-.14-.48-.54a45,45,0,0,1-6.56-9.27,44.34,44.34,0,0,1-4-10.58c-.42-1.87-.77-3.77-1.11-5.68a17.63,17.63,0,0,1-.32-2.93c-.05-1-.18-2-.14-3A64.09,64.09,0,0,1,213,179.22a61.2,61.2,0,0,1,3.58-12.63l2.56-6.17.64-1.55.32-.77c.11-.26.28-.48.41-.72l1.7-2.81,1.7-2.83.86-1.41.42-.71c.15-.23.3-.5.41-.64q1.44-2.08,2.91-4.13c.5-.67,1-1.37,1.5-2l1.63-1.92,1.64-1.89c.55-.63,1.1-1.25,1.68-1.8q1.73-1.72,3.47-3.4c1.17-1.08,2.34-2,3.52-3a145.2,145.2,0,0,1,13.32-9.56c4.35-2.72,8.31-5.15,11.79-7.81,1.82-1.3,3.42-2.7,5.07-4.11.85-.68,1.56-1.46,2.34-2.2s1.53-1.49,2.27-2.27c1.41-1.6,2.82-3.2,4.16-4.88s2.6-3.49,3.78-5.22a51.53,51.53,0,0,0,5.46-10.48,41.31,41.31,0,0,0,2.63-11.1,34.81,34.81,0,0,0-.59-10.86l-.28-1.3c-.11-.43-.25-.84-.37-1.25-.22-.84-.55-1.65-.83-2.47a31.66,31.66,0,0,0-2.19-4.68,29.89,29.89,0,0,0-6-7.63,12.68,12.68,0,0,0-4.16-2.63,2.88,2.88,0,0,0-.78-.18l-.17,0a.29.29,0,0,0-.1,0l-.2.08c-.25.12-.49.28-.82.42a5.74,5.74,0,0,1-1.58.43c-.35.09-1.82,0-1.85.2a7.79,7.79,0,0,0-1,.31,21.82,21.82,0,0,0-4.07,2c-.33.19-.7.48-1.05.7a5.31,5.31,0,0,0-.53.38l-.12.1-.38.33c-.25.21-.52.48-.77.7a10.34,10.34,0,0,0-.77.73c-.26.25-.51.48-.77.75-1,1-2.09,2.13-3.14,3.32s-2.09,2.46-3.13,3.82c-1.27,2.37-4.06,2.58-6.47.29a7.59,7.59,0,0,1-2.3-5.35l-.51.52-1,.57a4,4,0,0,1-3.27.23l-1.51-.43c-2.57-1.18-5.42-1.44-8.19-2.81l-.65-1-.39,0a5.56,5.56,0,0,1-3.19-1l-.94-1a12.87,12.87,0,0,1-2.28-4.06,4.47,4.47,0,0,1-1-1.36,6.45,6.45,0,0,1-3.48-2.9.88.88,0,0,1-.85-1,1.06,1.06,0,0,1,.25-.51h0a8.75,8.75,0,0,0-1-.23l-.6.25-1.75,1a5.67,5.67,0,0,1-1.78,0c-2.47-1.13-2.49-1.12-3.18-2,0-.11-.07-.22-.1-.33a11.24,11.24,0,0,1-1.09.3,2.52,2.52,0,0,1-.56,0c-.46-.38-.46-.38-.71-.44a2.12,2.12,0,0,1-.36-.28c-.18-.7-.18-.71-.31-.84a1.29,1.29,0,0,1-.06-.36l.35-.71,1.88.35-.21-.5.69.32-.56-.35.67-.07h-.85a5.88,5.88,0,0,0,1.45-1,2.41,2.41,0,0,0,.71-.69,1.63,1.63,0,0,1-.28-.21c1.19-.65,1.18-.65,2.35-1.25a3.84,3.84,0,0,1,.51.1.57.57,0,0,1,.32-.53l.6-.33.05-.15,0,0,.24-.55.05-.12h0c.17-.38.42-.92,1.11-2.35a10.69,10.69,0,0,1,1.09-.43h-.44c-.29,0-.48-.52-.61-.5a42.64,42.64,0,0,0-8.68,3.82,1.2,1.2,0,0,1-1.42.24.76.76,0,0,1,0-1.21c2.89-6,10-10.14,16.87-11.72l4.93-2-.35-.09,1.41-.32.13,0-1.39-.26-.77.12c-3.79,1.62-7.79,2.36-11.75,3.76-2.11.75-4.24,1.08-6.4,1.71a1,1,0,0,1-1.23-.13c-.2-.31,0-.78.5-1,5.27-4.31,12.76-7.77,19.35-7.7A8.34,8.34,0,0,1,233.71,9h.06l-1.07-.28a19.34,19.34,0,0,1,2.62-.09l-.77-.71c2.29-.7,4.65-1.52,7-2.22a26.07,26.07,0,0,1,7.21-1.14l.53-.06a22.41,22.41,0,0,1,2.63-1.54l.73-.32a1.2,1.2,0,0,1,.23-.09L254,2.23l2.21-.45a58.88,58.88,0,0,1,9.51-1c-1.14,0-2.27,0-3.38.1s-2.24.13-3.33.26-2.2.23-3.27.41l-1.64.25L252.64,2h0l.19-.05.42-.11c.28-.08.56-.15.86-.21l1.73-.36C257,1,258.23.84,259.42.64A60.35,60.35,0,0,1,266.75,0c1.25,0,2.52,0,3.79,0s2.56.17,3.85.28l1.94.27,1,.15.49.08.24,0,.13,0,3.32.69A45.83,45.83,0,0,1,293,5.66,44,44,0,0,1,298.4,9c.79.6,1.58,1.22,2.34,1.83s1.43,1.28,2.13,1.92a54.46,54.46,0,0,1,11.54,16.29A61.15,61.15,0,0,1,319.3,44.4a53.6,53.6,0,0,1,.92,11.91,77.47,77.47,0,0,1-.35,16.83,93.18,93.18,0,0,1-3.61,16,107.84,107.84,0,0,1-6.14,14.93c-.62,1.18-1.2,2.39-1.86,3.55l-1,1.74-1,1.65-2,3.31c-.65,1.1-1.32,2.2-2.05,3.27-2.79,4.34-5.74,8.65-8.89,12.79L291,133.55l-2.41,3-1.21,1.53-1.21,1.46-2.41,3c-3.15,3.82-6.23,7.55-8.76,11a56,56,0,0,0-5.79,9.93c-.54,1.31-1.09,2.34-1.44,2.41s-.17-1,.32-2.35c.47-1.16,1.06-2.31,1.59-3.51s1.34-2.39,2.06-3.62,1.61-2.48,2.52-3.76,1.88-2.54,2.94-3.88c4.15-5.25,9-10.9,13.55-16.79a201.62,201.62,0,0,0,12.67-18.44l2.83-4.76c.94-1.66,1.85-3.36,2.71-5.08a104,104,0,0,0,4.6-10.6c-1.16,3-2.5,6-3.94,8.82-.72,1.44-1.49,2.84-2.26,4.25l-1.21,2.09-1.23,2c-1.64,2.62-3.24,5.27-5.06,7.81-.9,1.27-1.73,2.6-2.67,3.85l-2.82,3.77c-3.81,5-7.89,9.86-12,14.41s-8,8.92-11.2,13.11L270,154.82c-.36.54-.69,1.07-1,1.6l-1,1.6c-.33.52-.58,1.06-.88,1.59-.56,1-1.18,2-1.63,3.06l-.76,1.5-.38.73-.33.76-.74,2c-.12.3-.27.7-.36.92l-.28.61a25.81,25.81,0,0,0-1.05,2.43,46.54,46.54,0,0,0-1.63,5,26.28,26.28,0,0,0-.84,5.13,12.45,12.45,0,0,0,.7,5.1,7.5,7.5,0,0,0,3.29,3.88,12,12,0,0,0,5,1.43,25.59,25.59,0,0,0,5.25-.12c.88-.09,1.74-.22,2.6-.36l1.29-.23c.47-.08.67-.14,1.76-.31,3.31-.51,5.82-.93,8.5-1.51s5.18-1.2,7.66-1.92a101,101,0,0,0,14.34-5.47c2.38-1.12,4.57-2.24,7.3-3.69l8.19-4.33c5.67-3,11.77-6.08,18.56-9a130.85,130.85,0,0,1,14.83-5.34,78.54,78.54,0,0,1,17.55-3.3,52.27,52.27,0,0,1,20.78,3,49.47,49.47,0,0,1,9.47,4.7,61.47,61.47,0,0,1,7.64,5.8,62.57,62.57,0,0,1,6.51,6.86,67.59,67.59,0,0,1,5.05,7.27,99.1,99.1,0,0,1,6.83,13.9l1.31,3.27c.45,1.15.92,2.37,1.35,3.56.87,2.41,1.63,4.85,2.33,7.31a111.19,111.19,0,0,1,3.17,15,55.56,55.56,0,0,1,.6,7.35,11.56,11.56,0,0,1-.37,3.81c-.44.72-1-3.08-1.74-8.4a110.3,110.3,0,0,0-3.43-15.43c-.75-2.54-1.6-5.06-2.53-7.55-.47-1.24-1-2.48-1.48-3.71l-1.47-3.45a102.49,102.49,0,0,0-7.42-14.39,58.55,58.55,0,0,0-12.38-14.14c-1.25-1.06-2.58-2-3.9-2.94l-2-1.32c-.67-.44-1.5-.88-2.25-1.3a46.62,46.62,0,0,0-9.94-4,50.46,50.46,0,0,0-20.4-1.14,75.59,75.59,0,0,0-8.85,1.79c-1.37.36-2.64.74-4,1.11s-2.59.8-3.87,1.23a155.08,155.08,0,0,0-14.67,5.85c-4.69,2.13-9.15,4.39-13.47,6.62l-6.35,3.32-3.09,1.6-2.94,1.5A101.52,101.52,0,0,1,291.2,192c-2,.47-4.09.85-6.16,1.22l-3.21.49-3.42.49a61.32,61.32,0,0,1-7.81.8,26.12,26.12,0,0,1-4-.18,15,15,0,0,1-3.84-.93,9.48,9.48,0,0,1-4.58-3.67,11,11,0,0,1-.84-1.81,15.46,15.46,0,0,1-.6-6.78,34.7,34.7,0,0,1,1.44-6.59,1,1,0,0,1-.36.1c-.44,0-.73-.42-.83-1.18a42.44,42.44,0,0,0-2,8.15,24.41,24.41,0,0,0-.18,4.28,15.42,15.42,0,0,0,.89,4.23,9.79,9.79,0,0,0,4.22,4,15.7,15.7,0,0,0,5.71,1.47,47.75,47.75,0,0,0,11.56-.88l1.43-.24,2.43-.37,2.37-.37c.75-.13,1.5-.23,2.24-.37,3-.51,5.89-1.13,8.79-1.84a120.49,120.49,0,0,0,17.26-5.69l3-1.25,3-1.35,6.35-2.9c4.27-1.94,8.62-3.9,13.08-5.71s9-3.53,13.74-5c2.36-.74,4.74-1.43,7.17-2,1.21-.3,2.42-.6,3.65-.86l1.85-.4,1.92-.38a64.88,64.88,0,0,1,10.37-1.7,45.3,45.3,0,0,1,11.38.55A41.69,41.69,0,0,1,398.44,169c.89.41,1.72.91,2.57,1.38s1.56,1,2.34,1.46a50.88,50.88,0,0,1,4.4,3.25,53.1,53.1,0,0,1,7.58,7.72,66.15,66.15,0,0,1,5.7,8.47c1.63,2.84,3,5.65,4.31,8.43.63,1.38,1.25,2.76,1.84,4.12s1.23,2.87,1.81,4.32a9,9,0,0,1,.7,2.32c0,.38-.25-.09-.65-1s-.85-2-1.29-3l-1.35-2.88c-.87-1.85-1.81-3.75-2.78-5.65a88.17,88.17,0,0,0-7.08-11.61,56.21,56.21,0,0,0-4.73-5.63,52.15,52.15,0,0,0-5.65-5c-1-.79-2.06-1.49-3.1-2.21s-2.07-1.34-3.3-2a39.41,39.41,0,0,0-7.47-3.13c3.13,1.54,4.6,3,4.1,3.47s-3-.16-6.66-.75a36.57,36.57,0,0,1,6.29,2.44c1,.47,2,1.06,2.94,1.6s1.8,1.15,2.66,1.78c2.16,1.54,3.55,3.15,3.3,3.31s-2-.94-4-2.35c-.87-.62-1.77-1.17-2.67-1.75s-1.89-1.11-2.9-1.56a35.45,35.45,0,0,0-6.23-2.35A39.45,39.45,0,0,0,376.09,171a61.73,61.73,0,0,0-12.23,2.26c-3.86,1.05-7.63,2.3-11.32,3.71a264.11,264.11,0,0,0-25,12.3l-6,3.2c-2,1-3.89,2-5.87,2.95a112.26,112.26,0,0,1-12.05,4.91,14.32,14.32,0,0,1,5.41.13,0,0,0,0,1,0,0c2.56-1,5.07-2.05,7.55-3.19,5.55-2.83,11.09-6.16,16.79-9.3s11.54-6.26,17.67-9c3.06-1.35,6.21-2.59,9.42-3.69,1.59-.57,3.23-1.06,4.86-1.56s3.35-.92,5.09-1.28a45.79,45.79,0,0,1,10.87-1,35.34,35.34,0,0,1,11.12,2.12l1.34.5,1.3.59c.88.37,1.7.84,2.53,1.29a46.56,46.56,0,0,1,4.64,3,45.43,45.43,0,0,1,8,7.56c4.65,5.61,7.87,11.84,10.73,17.91,1.41,3,2.84,6.21,4,9.41s2.27,6.49,3.17,9.8a111.92,111.92,0,0,1,3.6,20.18,5.64,5.64,0,0,1,0,2,4.7,4.7,0,0,1-.32-1.74,112.58,112.58,0,0,0-4.82-24.2,105.32,105.32,0,0,0-4.4-11.59c-1.69-3.71-3.39-7.36-5.41-11l0,.06c.25.63.18.81-.26.21a16.64,16.64,0,0,1-1.28-2.27c-.31-.72-.15-.73.24-.23a56.8,56.8,0,0,0-7-9.69,45.52,45.52,0,0,0-4.41-4.26,45,45,0,0,0-5-3.6,36.44,36.44,0,0,0-5.55-2.9,35.55,35.55,0,0,0-6.05-1.86,38.51,38.51,0,0,0-12.37-.45,61,61,0,0,0-11.48,2.6c-3.64,1.14-7.2,2.46-10.66,3.93a202.65,202.65,0,0,0-19.87,10c6-3.14,12.16-6.2,18.56-8.83,3.19-1.32,6.45-2.52,9.77-3.56a78.27,78.27,0,0,1,10.24-2.6,43,43,0,0,1,10.9-.57A34,34,0,0,1,393.47,176a40.73,40.73,0,0,1,9.22,5.84,43.87,43.87,0,0,1,7.35,7.83,64.49,64.49,0,0,1,5.45,7.49,7.76,7.76,0,0,1,.93,2.08c0,.26-.38-.22-.83-1s-.88-1.44-1.36-2.15c2.6,4.59,3.76,8.45,3.14,8.66-.75.06-3.12-3.68-5.87-8.2a45.53,45.53,0,0,0-14.64-15.09,30.61,30.61,0,0,0-9.68-4,33.7,33.7,0,0,0-10.46-.63c-1.51.18-3,.45-4.49.77s-2.93.88-4.36,1.41a42.25,42.25,0,0,1,16-1.3,29.16,29.16,0,0,1,7.63,2.08,34.08,34.08,0,0,1,6.84,4,44,44,0,0,1,10.75,11.66,122.4,122.4,0,0,1,7.64,14.27c.82,1.66,1.3,3.17,1.11,3.29s-1-1.14-1.81-2.78A134,134,0,0,0,408.87,198a45.78,45.78,0,0,0-9-10.07,35.52,35.52,0,0,0-5.48-3.69,28.11,28.11,0,0,0-5.86-2.45,29.16,29.16,0,0,0-12.6-.59,51.66,51.66,0,0,0-6.49,1.47c-2.17.65-4.4,1.42-6.57,2.22a138.11,138.11,0,0,0-12.9,5.64c-4.25,2.09-8.45,4.39-12.7,6.73s-8.46,4.75-13,7.14a126.22,126.22,0,0,1-18.17,9.78,133.73,133.73,0,0,1-20,6.83c1.74-.25,3.55-.52,5.32-.86a110.6,110.6,0,0,0,31.66-11c4.85-2.57,9.06-5.2,13.26-7.74s8.26-5,12.35-7.35,8.19-4.48,12.4-6.34A80.08,80.08,0,0,1,373.82,183a29.93,29.93,0,0,1,12.49-.64,23.86,23.86,0,0,1,6,1.91c1,.43,2,1,2.94,1.57l1.43.91c.47.32.92.66,1.38,1a3.26,3.26,0,0,1,1.24,1.3c0,.16-.57-.14-1.27-.71a33.76,33.76,0,0,0-5.54-3.35,22.94,22.94,0,0,0-5.65-1.9,28.47,28.47,0,0,0-11.81.43,50.91,50.91,0,0,0-6.08,1.81c-2.09.77-4.19,1.59-6.26,2.5-4.15,1.82-8.27,3.9-12.45,6.19-6.94,3.81-13.63,8-20.56,12.22a143.91,143.91,0,0,1-22.78,11.33A122.24,122.24,0,0,0,330,207.07c6.86-3.94,13.27-7.88,19.69-11.39a128.33,128.33,0,0,1,19.49-8.86c6.46-2.23,12.53-3.19,18.14-1.73a7,7,0,0,1,2.47,1,1.05,1.05,0,0,1,.62,0c.36.11.71.25,1.08.38a9,9,0,0,1,1.12.45l1.17.54c.39.19.76.4,1.15.61.78.4,1.5.91,2.27,1.38s1.48,1,2.17,1.65a4.52,4.52,0,0,1,1.31,1.48C400.9,193,400.5,192.78,399.9,192.27ZM231,24.6l-.24-.06.65-.06,1.39.56Zm-4.75,9.32h0l-.83-.27Zm75.32,80.64c1.16-1.88,2.31-3.76,3.47-5.63s2.27-3.93,3.32-5.93a102.91,102.91,0,0,0,5.48-12.55A86.57,86.57,0,0,0,319.09,63,78.82,78.82,0,0,1,318,76.8a81.45,81.45,0,0,1-2.63,10.25,88,88,0,0,1-3.74,9.75,102.53,102.53,0,0,1-4.7,9.23l-1.31,2.23-1.35,2.1Zm-79.1-89.87a12.83,12.83,0,0,1,3.38.46A5.84,5.84,0,0,1,227.25,24a38.35,38.35,0,0,1,4.5-2.32c-.43-.24-.07-.4.07-.55l.47-.41-5.11,2C225.63,23.34,224,24.17,222.45,24.69ZM214,33.57l-.24,0-.28-.72Zm.5,1.2.26-.1C214.88,34.92,214.75,34.9,214.49,34.77Zm2.38-.87a2.4,2.4,0,0,0-.52-.06Zm15.9,13.89-2-3.08,1.83,3Z"/><path d="M300.18,63.2l.37,0c-.06.22-.27.36-.56.47,3.49-.1,6-3,7.23-5.78a1.39,1.39,0,1,0-1.15-2.45,3.26,3.26,0,0,1-.68.05,13.5,13.5,0,0,0-5.56.27h1.28a5.25,5.25,0,0,0-1.61.53l.41.24a4.28,4.28,0,0,0-4.14,3.6,3,3,0,0,0,3.49,3.06Z"/><path d="M305.38,65.09c-1.13.11-2.21.22-3.34.31l-.31-.11.75.91,0-.07a6.16,6.16,0,0,1,2.18-3.41l.32-.4a.9.9,0,0,0,0-.75,1.08,1.08,0,0,0-1.49-.46l-.7.31c-2,.42-4.39,2-4,4.2.1.5.62.86,1,1.26a1.56,1.56,0,0,0,2.13.36,1.49,1.49,0,0,0,.63-2l.48-.13-.13.43c-.19-.69.39-1.27.7-1.89l.67-.65-1.48-1.21-.27.46a2.19,2.19,0,0,1,.2.11,18.23,18.23,0,0,1-1.54,2.59l-.62,1.24a.8.8,0,0,0,.76.91H302l-.34,0c1.27-.38,2.51-.92,3.79-1.24a.41.41,0,0,0,.35-.43A.33.33,0,0,0,305.38,65.09Z"/><path d="M301.87,67.75a.92.92,0,0,0-.71.19v.18l.51,0C302,68.17,302,67.94,301.87,67.75Z"/><path d="M301.15,68.12h-.22l.2.08,0,0Z"/><path d="M385.71,57.09a12.17,12.17,0,0,0,6.78.45,18.14,18.14,0,0,0,7.32-4.1c.16-.15.26-.31.21-.38s-.21,0-.36.16a17.77,17.77,0,0,1-7.22,4,11.85,11.85,0,0,1-6.61-.46c-.16,0-.35,0-.39,0S385.54,57,385.71,57.09Z"/><path d="M422.33,26.74c0,.2,0,.21.15,0a1.8,1.8,0,0,0,.23-.65c0-.17-.06-.18-.15,0A1.83,1.83,0,0,0,422.33,26.74Z"/><path d="M426.36,30.05c-.3,1.16-.52,2.28-.73,3.28a2,2,0,0,1-.2.53c.12,0,.13.22,0,.64a83.9,83.9,0,0,1-10.84,25.39.86.86,0,0,1,0,.51,8,8,0,0,1-1.92,3l-.8.78a36.73,36.73,0,0,1-11.4,8.21c-.43.28-.9.57-1.4.85a14.35,14.35,0,0,1-1.72.74,19.88,19.88,0,0,1-3.12,1.24,23.72,23.72,0,0,1-3.34.86,24.12,24.12,0,0,1-3.45.44,27.73,27.73,0,0,1-3.4,0c.26.12.42.25.4.38-.12.28-1.19.38-2.4.22-.59-.09-1.14-.2-1.71-.3a41.8,41.8,0,0,0,5.14.91c.27,0,.52,0,.74.07l1.55,0a12,12,0,0,0,1.58,0c1.07-.11,2.16-.18,3.23-.37s2.33-.52,3.46-.83,2.16-.79,3.21-1.21,2-1,3-1.49,1.86-1.11,2.7-1.74A38.19,38.19,0,0,0,413.29,64a56.72,56.72,0,0,0,5.54-9L420,52.65l1-2.3c.32-.76.66-1.52.95-2.28l.84-2.3a2,2,0,0,1,.33-.66c.11-.09.17,0,.1.2-.29,1-.57,2-.85,3s-.63,1.94-.93,2.92c-.58,2-1.36,3.88-2.13,5.87a44.31,44.31,0,0,1-7.56,12.37,37.82,37.82,0,0,1-8.16,7c-.8.51-1.65,1-2.5,1.44s-1.8.84-2.72,1.24l-1.4.59c-.47.19-1,.31-1.48.47-1,.28-2,.59-3,.81a40.93,40.93,0,0,1-12,.49l-2.66-.32-2.43-.38-2.27-.4-2.14-.4-2-.52L366.94,79l-.92-.21-.86-.16-1.7-.31a37.08,37.08,0,0,0-6.14-.46,39.51,39.51,0,0,0-11.41,1.93,51.9,51.9,0,0,0-8.06,3.4c-2.78,1.71-5.5,3.43-8.25,5.41-1.27,1.25-3.4.89-4.83-.86a4.73,4.73,0,0,1-1-3.64l-.41.25-.76.22a3.11,3.11,0,0,1-2.29-.32l-1-.46c-1.62-1.07-3.5-1.59-5.14-2.75l-.31-.68-.24-.07a3.75,3.75,0,0,1-1.95-1l-.48-.74a8.46,8.46,0,0,1-1-2.77,3,3,0,0,1-.51-1,4.25,4.25,0,0,1-1.91-2.19.58.58,0,0,1-.44-.74.67.67,0,0,1,.19-.3h0a4.94,4.94,0,0,0-.6-.25l-.39.1-1.12.42a3.24,3.24,0,0,1-1.05-.15c-1.38-1-1.38-1-1.73-1.55a1.55,1.55,0,0,1,0-.21l-.65.07a1.18,1.18,0,0,1-.32-.09c-.24-.28-.24-.28-.38-.34a1.57,1.57,0,0,1-.19-.21c0-.46,0-.46-.12-.56a1,1,0,0,1,0-.23c.15-.26.21-.37.24-.41l1.06.41-.09-.34.38.27-.31-.27.4,0-.5-.08a2.94,2.94,0,0,0,.9-.48,1.37,1.37,0,0,0,.45-.37l-.15-.16c.73-.31.73-.31,1.45-.59a2.68,2.68,0,0,1,.3.12.33.33,0,0,1,.21-.32l.37-.16,0-.09v0c.07-.14.11-.23.17-.33l0-.08h0l.77-1.44a4.1,4.1,0,0,1,.66-.19L307,64c-.18,0-.28-.38-.35-.38a24.16,24.16,0,0,0-5.26,1.72.62.62,0,0,1-.83,0,.52.52,0,0,1,.08-.77c1.91-3.59,6.16-5.82,10.31-6.37,1-.31,2-.64,3-1l-.21-.08.85-.12.08,0-.84-.28-.46,0c-2.26.85-4.67,1-7,1.68-1.26.34-2.54.38-3.79.64a.53.53,0,0,1-.71-.18.52.52,0,0,1,.31-.65c3.17-2.46,7.59-4.3,11.49-3.81a3.82,3.82,0,0,1,2.09-.35h0l-.64-.27c.56-.11,1,.14,1.55.11l-.47-.55c2.68-.68,5.37-1.94,8.12-1.81l.3,0A14.71,14.71,0,0,1,326,50.45a3.11,3.11,0,0,1,.38-.25l.1-.06.25-.1.52-.19c.68-.25,1.4-.49,2.15-.71l-3.08.63c1-.42,2.1-.86,3.18-1.23s2.27-.64,3.47-.9A42.74,42.74,0,0,1,338,47a38,38,0,0,1,5,0,21.89,21.89,0,0,1,7.69,1.75,70.72,70.72,0,0,1,18.5,2.76c5.82,1.63,10.94,3.75,14.84,4.82.38.09.68.3.71.47s-.27.25-.66.17c-2.8-.56-6.31-1.77-10.2-2.95a86.37,86.37,0,0,0-12.62-3,78.26,78.26,0,0,1,10.49,3.17c3.29,1.2,6.39,2.52,9.14,3.51.73.24,1.38.41,2.08.62s1.24.37,1.85.62a9.08,9.08,0,0,0,1.1.26l1.06.23,1,.1a4.27,4.27,0,0,0,.93.06,8.3,8.3,0,0,0,1.8-.08c.3,0,.6-.06.9-.11l.91-.25a13.06,13.06,0,0,0,3.74-1.62l.93-.58.92-.7a19.76,19.76,0,0,0,1.81-1.56,44.23,44.23,0,0,0,5.44-6.66A74.41,74.41,0,0,0,409.84,40c1-2.05,1.9-4.2,2.81-6.28.43-1.06.83-2.14,1.25-3.19s.85-2.11,1.22-3.2c.75-2.16,1.59-4.28,2.32-6.51s1.56-4.41,2.3-6.72A4.72,4.72,0,0,1,421,11.67c.32-.07.27.89-.1,2.13-2.74,9.73-5.85,19.25-10.23,27.92a56.91,56.91,0,0,1-7.75,11.76,29.24,29.24,0,0,1-4.82,4.31,16.69,16.69,0,0,1-5.29,2.47,13,13,0,0,1-4.48.43.47.47,0,0,1,0,.17.67.67,0,0,1-.41.55,6.94,6.94,0,0,0,1.35.08,7.5,7.5,0,0,0,1.34,0q.66-.07,1.35-.12l1.38-.31c5-1.93,9.28-6.42,13.63-12a102.44,102.44,0,0,0,7.91-11.87A164.79,164.79,0,0,0,421.17,20a1.48,1.48,0,0,1,.26-.55c.08-.06.09.08,0,.32-.53,2.07-1,4.2-1.7,6.27s-1.26,4.19-2,6.25c.45-.57.84-.86,1.08-.71s.28.75.14,1.58l1.16-2.79c.23-.58.5-1,.62-.94s.08.57-.13,1.13c-.8,1.9-1.55,3.82-2.38,5.7s-1.67,3.76-2.65,5.54a68.36,68.36,0,0,1-7.27,12.61,3.11,3.11,0,0,1,1.46-.66h0c.44-.62.88-1.23,1.31-1.85a124,124,0,0,0,8.77-19.22c2.47-6.7,4.65-13.58,6.68-20.57.08-.27.19-.49.25-.48s0,.24,0,.48q-.93,3.16-1.87,6.31c-.66,2.08-1.31,4.16-2,6.24h0c.09-.16.16-.17.15,0a1.93,1.93,0,0,1-.22.65c-.11.17-.17.13-.15,0a163.47,163.47,0,0,1-9,22.26,141.5,141.5,0,0,0,9-20.16c.19-.79.39-1.57.59-2.37a1.41,1.41,0,0,1,.26-.55c.07,0,.08.14,0,.36s-.1.44-.16.66c.48-1.32,1-2.28,1.34-2.16s.19,1.42-.29,2.8c-.63,1.86-1.23,3.73-1.88,5.58s-1.38,3.66-2.12,5.47l-.46,1.19-.35,1.24c1.33-2.75,2.46-5.58,3.63-8.39s2.17-5.69,3.09-8.57c.15-.5.37-.9.48-.87s.08.45-.07.95a152.56,152.56,0,0,1-4.79,15.49,90.36,90.36,0,0,1-7.07,15,55,55,0,0,1-5.6,10.24c.34-.37.69-.75,1.05-1.12,4.38-4.86,6.91-10.14,9.06-15.31s3.68-10.43,5.48-15.91a.92.92,0,0,1,.27-.5c.07,0,.06.2,0,.48-1.71,5.37-3.06,10.4-5.28,15.71a93.64,93.64,0,0,1-6.33,12.53,65.17,65.17,0,0,0,6.65-12c.82-2.06,1.72-4.08,2.42-6.16.37-1,.75-2.06,1.13-3.09s.68-2.09,1-3.13a3.39,3.39,0,0,1,.41-.93.34.34,0,0,1,0-.23c.24-1.09.5-2.26.78-3.45a1.46,1.46,0,0,1,.27-.6C426.4,29.63,426.41,29.79,426.36,30.05ZM314,64.71l-.15-.06h.4l.85.5Zm-3.34,5.7h0l-.49-.25Zm57.39-16.83a106.18,106.18,0,0,0-15.52-3.25c1.31,0,2.61,0,3.91.18A61.14,61.14,0,0,1,368.05,53.58ZM308.79,64a7.8,7.8,0,0,1,2,.6,3,3,0,0,1,.91-.66,24.15,24.15,0,0,1,2.8-1.18c-.26-.2,0-.28.06-.37l.3-.23-3.17.93C310.75,63.39,309.77,63.82,308.79,64Zm-5.49,5-.14,0-.11-.48S303.15,68.71,303.3,69Zm.22.8.16,0C303.74,70,303.66,69.92,303.52,69.81ZM305,69.5a1.18,1.18,0,0,0-.31-.1Zm8.67,10.39-1-2.14.87,2.09Z"/><path d="M7.3,146.6l.59,0a1.28,1.28,0,0,1-.86.8,10.52,10.52,0,0,0,6.84-3.4,16.18,16.18,0,0,0,3.92-6.41A2.47,2.47,0,0,0,19,134.44a2.39,2.39,0,0,0-3.33-.65,3.86,3.86,0,0,1-1,.14,22.13,22.13,0,0,0-8.7.8l2-.07a7.19,7.19,0,0,0-2.48.94l.66.35c-3.27.37-6.11,3.16-6.16,6.12s2.63,5,5.84,4.65Z"/><path d="M15.68,149.18c-1.73.31-3.47.55-5.24.79l-.51-.15,1.28,1.41-.05-.11c.13-2.09,1.61-4,3.09-5.68l.47-.66a1.45,1.45,0,0,0,0-1.19,1.77,1.77,0,0,0-2.41-.66c-.36.18-.71.39-1.06.58-3,.87-6.74,3.62-5.93,7.05.2.79,1.06,1.32,1.69,1.93a2.51,2.51,0,0,0,3.44.44,2.38,2.38,0,0,0,.82-3.29l.74-.24c-.05.23-.11.46-.17.7-.36-1.1.52-2.07.93-3.11l1-1.11-2.44-1.8-.37.76c.12.06.32.14.32.15a26.6,26.6,0,0,1-2.18,4.29l-.9,2a1.3,1.3,0,0,0,1.3,1.39l1.09,0-.55,0c2-.71,3.92-1.67,5.9-2.31a.67.67,0,0,0,.5-.73A.54.54,0,0,0,15.68,149.18Z"/><path d="M10.37,153.74a1.58,1.58,0,0,0-1.13.35v.3h.82C10.65,154.39,10.65,154,10.37,153.74Z"/><path d="M9.24,154.39H8.89l.32.11c0-.05,0-.05,0-.05Z"/><path d="M161.16,104.55c1.13.11,2.26.18,3.37.32l3.35.43,6.69.86,6.65,1.1,3.31.55,3.29.67,6.57,1.34,6.51,1.58,3.25.78c1.08.28,2.14.6,3.22.89l6.41,1.81c.58.15,1.08.22,1.13.11s-.35-.35-.89-.49l-6.42-1.82-3.22-.9-3.24-.79-6.51-1.59-6.56-1.35-3.29-.68-3.31-.56-6.64-1.11c-2.23-.32-4.46-.58-6.69-.87s-4.47-.6-6.73-.76a1.87,1.87,0,0,0-1.2.15C160.18,104.36,160.6,104.5,161.16,104.55Z"/><path d="M280.86,154.68c-.39-.13-.43,0-.1.23a4.74,4.74,0,0,0,1.21.68c.33.11.38,0,.1-.23A4.47,4.47,0,0,0,280.86,154.68Z"/><path d="M273.86,159.89c-1.05-.47-2.07-.94-3.07-1.35s-2-.75-2.93-1.06a4.78,4.78,0,0,1-1-.48c0,.21-.42.15-1.19-.15a321.52,321.52,0,0,0-48.42-15.07,1.6,1.6,0,0,1-.82.26,17,17,0,0,1-6-.76l-1.75-.55c-1.78-.5-3.59-.88-5.38-1.33s-3.58-.9-5.39-1.25l-5.42-1.09-2.7-.55-2.72-.46a40.76,40.76,0,0,1-5.16-.18c-3.19,0-6.39.11-9.58.14l-9.6.45c.39.17.62.36.61.56s-.48.42-1.09.56a10.39,10.39,0,0,1-2.26.25l-2.6,0c2.48.11,5,.13,7.43.4a9.07,9.07,0,0,1,1,.11c2.73.12,5.49.12,8.3.34a288,288,0,0,1,70.74,12.06,3.75,3.75,0,0,1,1.22.54c.18.17.09.27-.33.15-14.65-3.64-27.75-4.7-44-6.31A221.13,221.13,0,0,0,144.56,147a147.75,147.75,0,0,0-28.27,5.77,167.19,167.19,0,0,0-26.57,10.67c-1.5.67-2.91,1.52-4.36,2.26L81.09,168,77,170.46c-1.36.82-2.75,1.56-4,2.46l-1,.65-.49.32-.18.13-.63.47-1.27.93c-.84.61-1.71,1.17-2.51,1.83-1.63,1.26-3.26,2.48-4.92,3.67s-3.19,2.52-4.81,3.76a5,5,0,0,1-4,1.47,6.57,6.57,0,0,1-4.22-2.21A7.45,7.45,0,0,1,47,178.15l-.65.46-1.25.43a5.16,5.16,0,0,1-3.8-.3l-1.65-.68c-2.72-1.59-5.74-2.19-8.48-3.95l-.55-1.05-.4-.11A6,6,0,0,1,27,171.5l-.83-1.15A13.48,13.48,0,0,1,24.29,166a4.72,4.72,0,0,1-.9-1.5,6.82,6.82,0,0,1-3.23-3.36.94.94,0,0,1-.77-1.16,1,1,0,0,1,.27-.49h0a7.83,7.83,0,0,0-1-.36c-.37.13-.6.19-.6.19-.93.42-.93.42-1.76.76a5,5,0,0,1-1.71-.17c-2.28-1.44-2.29-1.43-2.89-2.35a2.05,2.05,0,0,1-.07-.34l-1,.17a3,3,0,0,1-.53-.13c-.41-.43-.41-.43-.64-.52a2.25,2.25,0,0,1-.31-.32c-.13-.73-.12-.73-.24-.88a2.1,2.1,0,0,1,0-.38l.36-.66,1.74.58-.17-.53.62.4-.51-.41h.63l-.79-.09a4.81,4.81,0,0,0,1.4-.82,1.94,1.94,0,0,0,.68-.63,1.89,1.89,0,0,1-.25-.24c1.13-.56,1.13-.56,2.24-1.07a4.49,4.49,0,0,1,.48.16.55.55,0,0,1,.32-.52l.56-.29.05-.16,0,0,.24-.56,0-.12h0c.16-.38.39-.95,1.08-2.35a6.26,6.26,0,0,1,1-.35l-.42-.06c-.28-.05-.46-.59-.58-.58-.72.14-1.43.32-2.13.53s-1.36.51-2,.8c-1.34.58-2.66,1.23-4,1.85a1,1,0,0,1-1.31.09.82.82,0,0,1,.06-1.23c2.7-6,9.14-9.76,15.48-11,1.51-.58,3-1.19,4.47-1.81l-.34-.11,1.28-.28.12,0-1.33-.36c-.24,0-.47.05-.71.09A29.17,29.17,0,0,1,21.85,137c-1.8.47-3.61.95-5.41,1.54s-3.91.8-5.9,1.27a.85.85,0,0,1-1.14-.24.81.81,0,0,1,.43-1A36.12,36.12,0,0,1,18,133.32a20.91,20.91,0,0,1,9.17-1.75,5.66,5.66,0,0,1,3.13-.8h0l-1-.36c.82-.26,1.58.14,2.39,0-.27-.27-.56-.55-.83-.83,2-.66,3.93-1.57,5.88-2.37a30.57,30.57,0,0,1,3-1,13.65,13.65,0,0,1,3.06-.48,3.34,3.34,0,0,1,.43-.1,23.49,23.49,0,0,1,1.76-2l.49-.46.15-.11.43-.25.87-.49a40.58,40.58,0,0,1,3.73-1.88c-.93.3-1.83.66-2.73,1l-2.65,1s.17-.12.27-.18l.33-.2.68-.4,1.36-.8c.91-.54,1.85-1,2.81-1.48,1.91-.92,3.89-1.79,6-2.61,11.38-4.37,24.9-6.54,31.65-5.37a245.25,245.25,0,0,1,33.55-6.19,270.74,270.74,0,0,1,33.9-1.42,4.19,4.19,0,0,1,2.41.56c.11.27-.66.48-1.82.45a264,264,0,0,0-48.55,4.61,288.56,288.56,0,0,1,41.22-2c1.77,0,3.55-.07,5.34,0s3.5.22,5.24.42c17.69,1,34.15,4,51.53,8l2.77.64,2.7.71,5.31,1.42c1.76.45,3.47,1,5.18,1.51l5.12,1.57c3.4,1.07,6.75,2.28,10.17,3.44s6.81,2.57,10.34,3.93a280.28,280.28,0,0,1,27.92,13.11,245.82,245.82,0,0,1,25.84,16.33c2.25,1.62,4.12,3.43,4.13,4s-1.84-.29-4.09-1.89A313.68,313.68,0,0,0,278.78,144a320.17,320.17,0,0,0-29.49-13.57,301.15,301.15,0,0,0-31.18-10.51,317.34,317.34,0,0,0-33-7.39c-2.43-.44-4.87-.72-7.28-1.09l-3.62-.52c-1.21-.15-2.42-.26-3.63-.39a.46.46,0,0,1,.1.28c0,.35-.51.64-1.3.85l4.1.45c1.36.19,2.72.42,4.08.63l4.09.66,2,.34,2,.42a189.56,189.56,0,0,1,45.67,10.7A234.45,234.45,0,0,1,260,138.32a283,283,0,0,1,34.41,18.3,3.34,3.34,0,0,1,1,.79c.1.18-.18.1-.63-.16l-6-3.27-3-1.65-3.06-1.57-6.13-3.16-6.27-3c1.15,1,1.72,1.75,1.41,2.1s-1.5.2-3.15-.34l5.52,3c1.13.61,1.94,1.26,1.79,1.45s-1.12-.14-2.2-.71c-3.75-2-7.47-4-11.31-5.84-1.91-.91-3.79-1.9-5.73-2.76l-5.8-2.61A297.06,297.06,0,0,0,222,129a7.06,7.06,0,0,1,2.44,2.12h0l4.49,1.38c27.69,7.64,54.5,21.06,78.43,38.55.47.34.82.67.77.76s-.45-.11-.88-.42c-3.64-2.59-7.26-5.22-11-7.62-1.88-1.2-3.71-2.48-5.63-3.61l-5.73-3.44,0,0c.28.24.28.37-.1.23a5.4,5.4,0,0,1-1.19-.72c-.32-.28-.23-.35.09-.24a245.84,245.84,0,0,0-44.88-20.11,257.22,257.22,0,0,1,40.77,19.23c1.48.7,3,1.35,4.47,2.12a3.49,3.49,0,0,1,1,.75c.07.14-.27.06-.68-.16l-1.22-.63c2.41,1.51,4.06,3,3.75,3.43s-2.7-.52-5.21-2c-6.9-3.75-13.81-7.43-20.92-10.69l-2.34-1-2.42-.83a290.76,290.76,0,0,1,31.72,17.58c.89.52,1.57,1.1,1.49,1.26s-.87-.12-1.77-.64a295.22,295.22,0,0,0-28.58-14,286.65,286.65,0,0,0-30-11c-3.48-.62-7-1.09-10.47-1.63-3.53-.37-7-.81-10.6-1.1.87.19,1.74.42,2.61.64,11.11,2.62,21.43,5.17,31.57,8.26a196.48,196.48,0,0,1,30.21,11.69c.5.25.88.54.89.66s-.37,0-.87-.25a223.32,223.32,0,0,0-29.7-11.39l-6.34-1.94-6.28-1.65-3.09-.79-3.09-.66c-2.06-.43-4.1-.85-6.13-1.23l6.08,1.61,3,.77,3,.87,6,1.7,5.92,1.89,3,.95,2.93,1,5.87,2.11c1.94.76,3.87,1.56,5.81,2.35l2.92,1.19c1,.42,1.91.87,2.88,1.31a7.68,7.68,0,0,1,1.7.95.76.76,0,0,1,.43.06,64.65,64.65,0,0,1,6.33,2.53,3.18,3.18,0,0,1,1.06.68C274.62,160.13,274.33,160.08,273.86,159.89Zm-244.6-12-.24-.09h.65l1.39.73Zm-4.67,9.44h0l-.81-.37Zm96.62-48.2-7.27.82c-1.21.11-2.42.29-3.62.46l-3.62.5c-4.84.55-9.62,1.44-14.5,2.06l6.93-1.68,2.74-.43,2.76-.33,5.52-.61c1.83-.23,3.68-.34,5.53-.45ZM21,147.24a12.59,12.59,0,0,1,3.28.8,5,5,0,0,1,1.34-1.16,27,27,0,0,1,4.27-2.13c-.44-.3-.09-.44,0-.59l.43-.4c-1.58.6-3.25,1.09-4.86,1.75A40.91,40.91,0,0,1,21,147.24Zm-8.22,8.41-.23-.05-.22-.76Zm.41,1.27.26-.07C13.54,157.11,13.41,157.08,13.17,156.92Zm2.31-.61a1.54,1.54,0,0,0-.49-.12Zm14.73,16-1.71-3.36,1.57,3.29Z"/><path d="M155.48,166.25l0,.26a.49.49,0,0,1-.43-.25c.64,2.37,3.22,3.24,5.43,3.08a1.1,1.1,0,0,0,1.5-1.61,1.62,1.62,0,0,1-.17-.41,8.55,8.55,0,0,0-1.17-3.5l.21.84a2.74,2.74,0,0,0-.63-.88l-.1.34a2.54,2.54,0,1,0-4.84,1.52Z"/><path d="M155,170.34c-.31-.74-.57-1.48-.83-2.23l0-.24-.53.76.05,0a4.42,4.42,0,0,1,2.85.55l.35.1a.83.83,0,0,0,.54-.21.8.8,0,0,0,.06-1.14l-.35-.38c-.65-1.18-2.17-2.38-3.68-1.57a2.86,2.86,0,0,0-.75,1,1.11,1.11,0,0,0,.09,1.57,1.09,1.09,0,0,0,1.57-.09l.17.3-.33,0c.47-.31,1-.07,1.49,0l.59.26.6-1.35-.38-.05a.7.7,0,0,1,0,.17,10,10,0,0,1-2.12-.34l-1-.11a.69.69,0,0,0-.54.76l.11.48,0-.25c.49.79,1.11,1.51,1.58,2.31a.28.28,0,0,0,.38.12A.27.27,0,0,0,155,170.34Z"/><path d="M152.48,168.59c0-.17-.08-.35-.26-.45l-.14,0,.07.36C152.2,168.8,152.36,168.76,152.48,168.59Z"/><path d="M152.08,168.18l0-.15,0,.15h.05Z"/><path d="M177.19,184.31a38.24,38.24,0,0,0,2.89,3.07s.1,0,.16-.07.07-.14,0-.17a42.1,42.1,0,0,1-2.88-3.08s-.1,0-.16.06S177.16,184.27,177.19,184.31Z"/><path d="M180,197.65a.31.31,0,0,0-.14.18c0,.06,0,.1.1.07a.34.34,0,0,0,.13-.18C180.07,197.65,180,197.62,180,197.65Z"/><path d="M175.46,203a1.76,1.76,0,0,0-.74.07c-.05,0-.07,0-.07-.06a.45.45,0,0,1-.28.21,15.47,15.47,0,0,1-4.83-.83,1.71,1.71,0,0,1-.25.22c-.3.22-.58.25-.71.07l-.07-.17c-.38-.56-.78-1.08-1.15-1.65a.82.82,0,0,1-.54,0,13.68,13.68,0,0,1-2-.08,1.07,1.07,0,0,1-.17.31c-.2.23-.44.33-.56.23l-.19-.12c.13.19.26.39.38.59a.17.17,0,0,1,0,.1,5,5,0,0,0,.6.43,15.19,15.19,0,0,0,6.66,1.63s.09,0,.07.09a.3.3,0,0,1-.15.16c-2,.44-4.09,1.37-5.85,1.29a31.07,31.07,0,0,1-6-.8c-1.46-1.13-3.27-1.59-5.09-2.31-.62-.24-1.21-.51-1.77-.79a1.84,1.84,0,0,1-.25-.14l-.39-.25-.76-.5-1.5-1c-2-1.36-3.91-2.79-5.85-4.26a3.32,3.32,0,0,1,1.36-6.17l-.34-.29-.42-.61a2.85,2.85,0,0,1-.48-2l.08-.91c.37-1.55.28-3.16.78-4.69l.45-.38v-.21a2.94,2.94,0,0,1,.32-1.72l.45-.52a7,7,0,0,1,1.88-1.38,2.48,2.48,0,0,1,.61-.6A3.45,3.45,0,0,1,150,174a.48.48,0,0,1,.47-.5.43.43,0,0,1,.25.07h0a3.4,3.4,0,0,0,.07-.49l-.15-.25-.52-.72a2.33,2.33,0,0,1-.08-.8c.46-1.21.46-1.21.83-1.59l.15-.08c-.13-.32-.14-.35-.17-.44a.88.88,0,0,1,0-.25c.16-.24.16-.24.18-.35a1.41,1.41,0,0,1,.13-.18c.32-.15.32-.15.38-.22l.18-.06.33.07-.12.85.23-.15-.13.33.15-.28.05.28,0-.36c.33.4.33.4.49.51a.89.89,0,0,0,.36.22.69.69,0,0,1,.08-.14c.36.42.36.42.69.85a1.66,1.66,0,0,1,0,.24.25.25,0,0,1,.27.07l.18.22h.07l0,0,.27,0h.06l1.19.12a3.24,3.24,0,0,1,.28.4l0-.19c0-.14.22-.3.2-.35a17.27,17.27,0,0,0-2.2-3.15.41.41,0,1,1,.42-.7,8.93,8.93,0,0,1,6.54,4.94c.45.54.92,1,1.39,1.57v-.17l.3.49,0,.05,0-.65c0-.1-.08-.19-.13-.29a27.06,27.06,0,0,1-2.71-4,24.49,24.49,0,0,1-1.15-2.29.37.37,0,0,1,0-.52.36.36,0,0,1,.51,0c2.28,1.32,4.44,3.4,5,6a2.11,2.11,0,0,1,.76,1.17v0l0-.51c.22.3.15.69.32,1l.26-.52c1.17,1.36,2.77,2.39,3.55,4l.12.16a8.7,8.7,0,0,1,2,.46c-.07-.14-.15-.27-.23-.41a1.42,1.42,0,0,1,1,.28,3.12,3.12,0,0,1,.38,3.37,49.57,49.57,0,0,0,4.53,2.64c.08,0,.07.18,0,.33s-.24.23-.33.19A16.35,16.35,0,0,1,173,183a15.24,15.24,0,0,0,2.13,2.46l.38.19a.67.67,0,0,1,.26.33,13.4,13.4,0,0,0,3.43,2.25,30.06,30.06,0,0,0,3.52,1.1,12.41,12.41,0,0,1,4.77,1.8c.2.09.17.46-.07.82s-.62.58-.83.48c-3.55-1.06-7.24-1.86-10-4.24l-.86-.77-.1.14a2.19,2.19,0,0,1-.47.45,8.65,8.65,0,0,1,.87,1,6.6,6.6,0,0,1,3.41,1.71,9.17,9.17,0,0,1,1.28,2.47c1,.43,2,.8,3,1.26,0,0,.06.07,0,.14a.22.22,0,0,1-.16.13,14,14,0,0,1-2.56-.33,2.44,2.44,0,0,1-.47.9,2.15,2.15,0,0,1-.81.65l.39.33c.07.08,0,.25-.08.41s-.29.23-.37.17l-1.59-1.35c-.79-.33-1.56-.7-2.32-1.08a3.41,3.41,0,0,1-.39.9h0l.33.22a14,14,0,0,1,6.62,3.22s0,.11,0,.18-.13.11-.16.08a11.78,11.78,0,0,0-1.74-1.33h0a.25.25,0,0,1-.14.18c-.06,0-.1,0-.09-.06a.27.27,0,0,1,.13-.18,14.73,14.73,0,0,0-3.86-1.62,17,17,0,0,1,2.91,2.3l.53,0c.05,0,.05.08,0,.16s-.11.12-.16.11h-.14c.16.17.07.59-.22,1s-.7.54-.88.38c-.57-.33-1.11-.69-1.64-1.06l-.22-.07-.3.05c.68.77,1.33,1.57,2,2.38.07,0,0,.2-.06.33s-.25.21-.32.16a28.23,28.23,0,0,1-5.11-2.14l-2.74.64a1.21,1.21,0,0,0,.16.16c1.55,1.19,4.12.57,5.88,1.39,0,0,0,.09,0,.16s-.13.12-.17.09a16.74,16.74,0,0,0-3-.46,15.43,15.43,0,0,0-2.55-.28c1.25.73,2.9.87,4.27,1.42.07,0,.1.08.08.17a.23.23,0,0,1,.1-.07,2.36,2.36,0,0,1,.78-.07c.05,0,.07,0,0,.13A.26.26,0,0,1,175.46,203ZM157.19,176.2v-.12l.09.28-.15.76Zm-5-.65h0l.08-.43C152.28,175.3,152.25,175.43,152.23,175.55Zm21,8.75a4.54,4.54,0,0,1-1.41-1.86l.5.25A15.62,15.62,0,0,1,173.27,184.3Zm-16.78-11.93a6.12,6.12,0,0,1,0,1.6,2.06,2.06,0,0,1,.68.41,20,20,0,0,1,1.53,1.52c.08-.24.19-.12.28-.09l.24.12c-.49-.6-1-1.21-1.44-1.83A16.62,16.62,0,0,1,156.49,172.37Zm-4.69-2.46v-.11l.33-.2Zm-.55.35.06.11C151.2,170.45,151.2,170.39,151.25,170.26Zm.5,1a1.05,1.05,0,0,0,0-.24Zm-6,8.83,1.41-1.19L145.8,180Z"/></g></g></svg>