<svg xmlns="http://www.w3.org/2000/svg" viewBox="0 0 523.91 146.59"><g id="Layer_2" data-name="Layer 2"><g id="Layer_1-2" data-name="Layer 1"><path d="M280.72,12.39l.6.17a1.56,1.56,0,0,1-1.11.6c5.91.77,11-3,14.07-6.83,1.47-.34,2.48-1.47,2.25-2.61s-1.67-1.86-3.21-1.53a4.28,4.28,0,0,1-1.11-.13A20.53,20.53,0,0,0,287.77.9a32.45,32.45,0,0,0-4.88-.21l2.16.41a9.94,9.94,0,0,0-2.91.3l.59.5c-3.59-.44-7.51,1.62-8.41,4.6s1.39,5.47,4.84,5.73Z"/><path d="M288.65,16.8c-1.85-.1-3.71-.27-5.61-.45l-.48-.25.93,1.64,0-.12c.71-2,2.78-3.54,4.8-4.72l.68-.52a1.44,1.44,0,0,0,.32-1.15A1.8,1.8,0,0,0,287,10.05l-1.27.27a12.63,12.63,0,0,0-5.33,1.47,5.08,5.08,0,0,0-2.83,4.13c0,.82.76,1.51,1.24,2.24a2.65,2.65,0,0,0,3.44,1.1,2.51,2.51,0,0,0,1.74-3l.83-.06c-.13.21-.25.42-.37.63-.08-1.13,1.11-1.87,1.83-2.77.44-.27.88-.57,1.33-.83l-2-2.31-.62.64c.11.09.3.21.29.23a32.4,32.4,0,0,1-3.49,3.64l-1.47,1.82a1.24,1.24,0,0,0,1,1.64l1.13.18-.55-.16c2.24-.33,4.48-.77,6.67-.94a.74.74,0,0,0,.73-.57A.56.56,0,0,0,288.65,16.8Z"/><path d="M282,20.05a1.76,1.76,0,0,0-1.25.12c-.05.17-.07.25-.08.3l.84.16C282.09,20.75,282.18,20.4,282,20.05Z"/><path d="M280.64,20.47l-.36-.07.31.16,0,0Z"/><path d="M378.87,8.64q11.43,3.58,22.27,8.16c.24.11.47.11.52,0s-.12-.27-.34-.36q-10.85-4.65-22.27-8.24c-.26-.07-.49,0-.55.08S378.63,8.56,378.87,8.64Z"/><path d="M427.73,40.48c-.18,0-.23.08-.1.23a.9.9,0,0,0,.52.29c.16,0,.22-.09.11-.22A1,1,0,0,0,427.73,40.48Z"/><path d="M422.7,46.66A15,15,0,0,0,420,46a.88.88,0,0,1-.41-.2c0,.17-.26.23-.61.14-6.9-1.64-14-3.66-21.17-4.9a1,1,0,0,1-.43.33,3.63,3.63,0,0,1-2.63-.06L394,41c-2.94-1.06-5.91-2-8.88-2.9a9.28,9.28,0,0,1-2.23,0l-8.31.43a.61.61,0,0,1,.17.53c-.14.44-.82.68-1.53.58l-1.1-.07c1,.19,2.05.44,3.06.7a1.56,1.56,0,0,1,.4.12l3.46.44c5.16.54,10.23,1.11,15.29,1.74,2.53.29,5,.68,7.57,1s5,.82,7.52,1.35a.73.73,0,0,1,.51.24c.06.11,0,.22-.2.2-6.65-.48-12.68.42-19.73.3a169.36,169.36,0,0,0-24.54,1.44c-8.21-.19-15.76,1.61-23.47,4-2.86.91-5.6,1.81-8.24,2.8-5.42,2.11-10.43,4.18-15.19,6.59a3.68,3.68,0,0,1-3.68.49,6.14,6.14,0,0,1-3.17-3.11,7.68,7.68,0,0,1-.47-6l-.68.28-1.2.1a4.62,4.62,0,0,1-3.31-1.15l-1.34-1c-2.15-2.18-4.79-3.46-7-5.79l-.3-1.14L297,43a6.14,6.14,0,0,1-2.74-2.13l-.56-1.29a13.17,13.17,0,0,1-.85-4.64,4.69,4.69,0,0,1-.53-1.65,6.73,6.73,0,0,1-2.38-4A.92.92,0,0,1,289.5,28a1.21,1.21,0,0,1,.4-.41h0c-.35-.24-.46-.31-.89-.56-.41,0-.65,0-.65,0l-1.94.39a5.42,5.42,0,0,1-1.67-.51c-1.95-1.87-2-1.87-2.36-2.89,0-.12,0-.24,0-.35-.81,0-.87,0-1.1,0a2.68,2.68,0,0,1-.51-.23c-.31-.5-.31-.5-.53-.64a2.83,2.83,0,0,1-.24-.37c.05-.75.06-.75,0-.92a1.6,1.6,0,0,1,.05-.38l.54-.59,1.63.92,0-.55.54.52-.42-.52.65.13-.79-.25a5.53,5.53,0,0,0,1.64-.52,2.46,2.46,0,0,0,.86-.49,1.53,1.53,0,0,1-.19-.29c1.31-.27,1.31-.27,2.58-.51.17.09.31.18.45.27a.59.59,0,0,1,.47-.44l.65-.14.1-.14,0,0,.39-.48.08-.11h0l1.76-2a7.78,7.78,0,0,1,1.15-.1l-.41-.15c-.27-.12-.3-.68-.42-.69A37.59,37.59,0,0,0,282,16.17,1.07,1.07,0,0,1,280.6,16a.83.83,0,0,1,.4-1.2,19.35,19.35,0,0,1,8.71-5.54,26.61,26.61,0,0,1,10.44-1.14c1.69-.17,3.38-.32,5.06-.45l-.3-.2,1.37.1h.14l-1.21-.7-.74-.12a46,46,0,0,1-5.87.16c-2-.08-4-.12-6,0s-4.26-.19-6.46-.21A.88.88,0,0,1,285,6.17c-.1-.38.26-.79.76-.91,6.21-2.86,14-4.11,20-1.94a6.34,6.34,0,0,1,3.41.24h.06l-.91-.64c.92,0,1.53.59,2.38.71l-.54-1c4.4-.1,9-.9,13.09.21a3.42,3.42,0,0,1,.46,0,13.22,13.22,0,0,1,5.73-1.84c-.88-.08-1.76-.11-2.63-.18A18.77,18.77,0,0,1,332.42,0a24.37,24.37,0,0,1,4.15.3,30.14,30.14,0,0,1,4,.87,16.09,16.09,0,0,1,6.14,3.19,192.43,192.43,0,0,1,29.89,3.35c.5.09.92.37,1,.64s-.37.41-.87.33c-7.05-.79-14.21-1.53-21.44-1.84,6,1.1,11.92,2.44,17.87,3.77l2.3.4a13.49,13.49,0,0,1,2.23.64c7.55,1.83,14.51,4.08,22,6.31,6.41,1.93,11.94,3.85,18.16,6.29,8.7,3.46,16.47,7.24,24,12.74,1,.69,1.77,1.64,1.64,2.11s-1.06.29-2.09-.39A172.18,172.18,0,0,0,415.82,26c-8.86-3.6-18-6.65-27.57-9.69-2.07-.61-4.1-1.29-6.16-1.83a.76.76,0,0,1,0,.26,1.13,1.13,0,0,1-.71.77c2.32.63,4.6,1.48,6.88,2.28a76.38,76.38,0,0,1,19.61,6c2.22,1,4.24,2.27,6.22,3.43s3.84,2.45,5.71,3.75a148.08,148.08,0,0,1,15.25,7.69.78.78,0,0,1,.41.39c0,.12-.13.14-.34,0-3.6-1.66-7.3-3.28-11-4.86.42.59.57,1.14.33,1.51s-.87.51-1.65.42l2.38,1.32c.48.28.79.64.67.83s-.59.16-1.06-.09c-1.62-.88-3.23-1.78-4.88-2.59s-3.27-1.67-4.95-2.44c-4.1-1.64-8.27-3-12.47-4.42a3,3,0,0,1,.78,1.61h0l1.91.68A106.42,106.42,0,0,1,439.53,47c.21.13.35.31.3.39s-.25,0-.44-.08a110.57,110.57,0,0,0-9.85-6.13h0c.1.13.07.25-.11.23a1,1,0,0,1-.53-.3c-.12-.15-.05-.24.11-.22a104.71,104.71,0,0,0-19.66-8.23,122.2,122.2,0,0,1,17.55,8.47l2,.71c.18.08.38.26.4.38s-.17.12-.35,0l-.57-.21c1.05.64,1.67,1.46,1.4,1.91s-1.44.28-2.54-.34c-1.5-.77-3-1.54-4.52-2.26s-3-1.48-4.56-2.17l-1-.37-1.11-.22c4.67,2.35,9.16,5,13.53,7.73.39.21.64.53.56.69s-.47.12-.86-.09a208.22,208.22,0,0,0-25.52-9.68l-4.71-.11-4.75.1c.36.12.72.24,1.09.34,4.67,1.3,9.14,2.16,13.62,3.1a72,72,0,0,1,13.32,4c.22.08.37.24.35.34s-.21.11-.43,0a89.75,89.75,0,0,0-13.12-3.83c-1.87-.46-3.72-.82-5.51-1.19s-3.61-.57-5.39-.76c6.9,1.81,13.79,3.22,20.52,5.81a1.4,1.4,0,0,1,.7.45.29.29,0,0,1,.23-.05,21.72,21.72,0,0,1,2.88.68.66.66,0,0,1,.43.33C423.06,46.67,422.91,46.7,422.7,46.66ZM302.63,19l-.21-.14.63.16,1.15,1Zm-7.28,7.74h0l-.7-.54ZM361,8.89c-2.14-.28-4.26-.64-6.39-1-1.07-.17-2.13-.37-3.2-.59s-2.14-.4-3.21-.64h3.14c1.63.31,3.24.64,4.85,1S359.42,8.48,361,8.89Zm-66.46,7.3a13.17,13.17,0,0,1,3.05,1.59,5.5,5.5,0,0,1,1.68-.73,42.77,42.77,0,0,1,4.88-.87c-.34-.39,0-.44.22-.54l.55-.27c-1.75.14-3.52.27-5.35.37A49.72,49.72,0,0,1,294.56,16.19Zm-10.64,6.22-.22-.09,0-.8S283.78,21.9,283.92,22.41Zm.1,1.33h.28C284.34,24,284.22,24,284,23.74Zm2.48-.13a1.61,1.61,0,0,0-.46-.23Zm10.68,18.75-.89-3.63.77,3.53Z"/><path d="M220.59,107c.19,0,.39,0,.59,0a1.3,1.3,0,0,1-.86.8,10.55,10.55,0,0,0,6.84-3.39,16.29,16.29,0,0,0,3.92-6.42,2.46,2.46,0,0,0,1.21-3.17,2.39,2.39,0,0,0-3.33-.66,4.34,4.34,0,0,1-1,.15,22.11,22.11,0,0,0-8.7.79l2-.06a7,7,0,0,0-2.48.93l.66.35c-3.28.38-6.11,3.16-6.16,6.13s2.63,5,5.84,4.64Z"/><path d="M229,109.61c-1.73.31-3.47.55-5.24.79l-.51-.14,1.28,1.4-.05-.11c.13-2.09,1.61-4,3.09-5.68l.47-.65a1.51,1.51,0,0,0,0-1.2,1.77,1.77,0,0,0-2.42-.65c-.36.18-.7.38-1,.57-3,.88-6.74,3.63-5.93,7,.2.79,1.06,1.32,1.68,1.94a2.53,2.53,0,0,0,3.45.43,2.38,2.38,0,0,0,.82-3.29l.74-.23c-.05.23-.11.46-.17.69-.36-1.09.52-2.07.93-3.1l1-1.11-2.44-1.81-.37.76a2.22,2.22,0,0,1,.32.16,26.25,26.25,0,0,1-2.19,4.29l-.89,2a1.3,1.3,0,0,0,1.3,1.4l1.09,0-.55,0c2-.7,3.91-1.67,5.89-2.31a.67.67,0,0,0,.51-.73A.55.55,0,0,0,229,109.61Z"/><path d="M223.66,114.17a1.58,1.58,0,0,0-1.13.35v.3h.82C223.94,114.83,223.94,114.47,223.66,114.17Z"/><path d="M222.53,114.82h-.35l.32.1s0,0,0,0Z"/><path d="M374.45,65c1.13.1,2.25.18,3.37.31l3.35.43,6.69.86,6.65,1.1,3.31.55,3.29.68,6.57,1.34,6.51,1.57,3.25.79c1.08.27,2.14.59,3.22.89l6.41,1.8c.58.16,1.07.22,1.13.11s-.35-.35-.89-.49l-6.42-1.81-3.22-.91-3.25-.79-6.5-1.59-6.56-1.35-3.29-.67-3.31-.56-6.64-1.11c-2.23-.32-4.46-.59-6.69-.88s-4.47-.6-6.73-.76a2,2,0,0,0-1.2.15C373.47,64.79,373.89,64.93,374.45,65Z"/><path d="M494.15,115.11c-.39-.13-.43,0-.1.24a4.74,4.74,0,0,0,1.21.68c.33.11.38,0,.1-.24A4.62,4.62,0,0,0,494.15,115.11Z"/><path d="M487.15,120.33c-1-.48-2.07-1-3.07-1.36s-2-.75-2.93-1a4.8,4.8,0,0,1-1-.49c0,.21-.42.15-1.19-.15a320.35,320.35,0,0,0-48.42-15.06,1.82,1.82,0,0,1-.82.26,16.8,16.8,0,0,1-6-.77l-1.75-.55c-1.78-.49-3.59-.88-5.38-1.32s-3.59-.91-5.39-1.26l-5.42-1.09-2.7-.55-2.72-.45a40.89,40.89,0,0,1-5.16-.19c-3.19,0-6.39.11-9.58.14l-9.61.45c.4.17.63.36.62.56s-.49.42-1.09.56a9.83,9.83,0,0,1-2.27.25l-2.59.06c2.48.1,5,.12,7.43.39a9.07,9.07,0,0,1,1,.11c2.73.13,5.49.13,8.3.34a287.89,287.89,0,0,1,70.73,12.06,3.93,3.93,0,0,1,1.23.54c.18.17.09.27-.33.16-14.65-3.65-27.75-4.7-44.05-6.31a221.58,221.58,0,0,0-57.21,1.85,148.52,148.52,0,0,0-28.27,5.77A167.19,167.19,0,0,0,303,123.9c-1.51.67-2.91,1.52-4.36,2.27l-4.27,2.28-4.13,2.44c-1.36.82-2.75,1.57-4.05,2.47l-1,.64-.49.32-.18.13-.63.47-1.27.93c-.84.62-1.71,1.17-2.51,1.83-1.63,1.27-3.27,2.48-4.92,3.67s-3.19,2.53-4.81,3.76a5,5,0,0,1-4,1.47,6.5,6.5,0,0,1-4.22-2.21,7.43,7.43,0,0,1-1.92-5.79l-.65.46-1.25.43a5.16,5.16,0,0,1-3.8-.3l-1.65-.68c-2.72-1.58-5.74-2.19-8.48-3.94l-.55-1.06-.41-.11a6,6,0,0,1-3.2-1.45l-.83-1.14a13.67,13.67,0,0,1-1.88-4.36,4.77,4.77,0,0,1-.9-1.51,6.8,6.8,0,0,1-3.23-3.35,1,1,0,0,1-.77-1.17,1.08,1.08,0,0,1,.27-.49h0c-.4-.16-.51-.21-1-.36-.37.14-.6.2-.6.2l-1.76.76a5.15,5.15,0,0,1-1.71-.18c-2.28-1.44-2.29-1.43-2.89-2.35a1.86,1.86,0,0,1-.07-.34c-.77.14-.83.15-1,.17a2.26,2.26,0,0,1-.53-.13c-.41-.43-.41-.43-.64-.52a2.25,2.25,0,0,1-.31-.32c-.13-.73-.13-.73-.24-.88a2,2,0,0,1,0-.37l.36-.67,1.74.59-.17-.53.62.4-.51-.42h.63l-.79-.1a5.15,5.15,0,0,0,1.4-.81,2,2,0,0,0,.68-.64,1.89,1.89,0,0,1-.25-.24c1.13-.55,1.13-.55,2.24-1.06a3,3,0,0,1,.48.16.55.55,0,0,1,.32-.53l.56-.29.05-.15,0,0c.1-.22.16-.38.24-.55l0-.13h0c.16-.38.39-.94,1.08-2.35a7.37,7.37,0,0,1,1-.35c-.14,0-.28,0-.42-.06s-.46-.59-.58-.57a19.45,19.45,0,0,0-2.13.52c-.68.24-1.36.51-2,.8-1.34.58-2.66,1.23-4,1.85a1,1,0,0,1-1.32.09.82.82,0,0,1,.07-1.23c2.69-6,9.14-9.75,15.48-11,1.51-.57,3-1.18,4.47-1.8l-.34-.12,1.28-.28.12,0-1.33-.36-.71.09a27.69,27.69,0,0,1-5.29,1.71c-1.8.48-3.61,1-5.41,1.54s-3.91.81-5.9,1.27a.85.85,0,0,1-1.14-.24.81.81,0,0,1,.43-1,36.08,36.08,0,0,1,8.15-5.22A20.92,20.92,0,0,1,240.44,92a5.74,5.74,0,0,1,3.13-.8h.05l-1-.36c.82-.26,1.58.14,2.39,0l-.83-.82c2-.67,3.93-1.58,5.88-2.38,1-.39,2-.76,3-1.05a14.9,14.9,0,0,1,3.06-.48l.43-.1a21.86,21.86,0,0,1,1.76-2c.16-.15.32-.31.49-.45a1.11,1.11,0,0,1,.15-.12l.43-.25.87-.49a38.17,38.17,0,0,1,3.73-1.87c-.93.3-1.83.65-2.73,1l-2.66,1,.28-.17.33-.21.68-.4,1.36-.8A31.19,31.19,0,0,1,264,79.86c1.91-.93,3.89-1.8,6-2.62,11.37-4.37,24.9-6.54,31.65-5.37a245.22,245.22,0,0,1,33.55-6.18,268.86,268.86,0,0,1,33.9-1.43,4.27,4.27,0,0,1,2.41.56c.11.27-.66.48-1.82.45a264.88,264.88,0,0,0-48.55,4.61,290,290,0,0,1,41.22-2c1.77,0,3.55-.06,5.33,0s3.51.22,5.25.43c17.69,1,34.15,4,51.53,8l2.76.63,2.71.72,5.31,1.42c1.76.44,3.47,1,5.18,1.51l5.12,1.56c3.4,1.07,6.74,2.28,10.17,3.44s6.81,2.57,10.34,3.93a280.28,280.28,0,0,1,27.92,13.11A244.77,244.77,0,0,1,519.77,119c2.26,1.61,4.13,3.42,4.14,4s-1.84-.29-4.1-1.89a309.8,309.8,0,0,0-27.74-16.69,320.1,320.1,0,0,0-29.49-13.56,295.88,295.88,0,0,0-31.19-10.51A311.52,311.52,0,0,0,398.44,73c-2.43-.45-4.87-.73-7.28-1.1l-3.62-.52c-1.21-.15-2.42-.26-3.63-.39a.48.48,0,0,1,.1.28c0,.36-.51.64-1.3.85l4.1.46c1.36.18,2.72.41,4.08.62l4.09.66,2,.34,2,.42a189.81,189.81,0,0,1,45.67,10.7,233.92,233.92,0,0,1,28.53,13.49,280.23,280.23,0,0,1,34.41,18.3,3.19,3.19,0,0,1,1,.78c.1.19-.18.11-.63-.16l-5.95-3.27-3-1.65L496,111.19,489.89,108l-6.27-3c1.15,1,1.72,1.75,1.41,2.1s-1.5.2-3.15-.34l5.52,3c1.13.61,1.93,1.26,1.79,1.45s-1.12-.14-2.2-.71c-3.75-2-7.47-4-11.31-5.83-1.91-.92-3.79-1.91-5.73-2.77l-5.8-2.61a297,297,0,0,0-28.89-9.87,7.06,7.06,0,0,1,2.44,2.11h0l4.49,1.39c27.69,7.64,54.49,21,78.43,38.55.47.33.82.67.77.75s-.45-.11-.88-.42c-3.64-2.58-7.26-5.22-11-7.61-1.88-1.21-3.71-2.48-5.63-3.61l-5.73-3.44,0,0c.28.24.28.37-.1.23a5,5,0,0,1-1.19-.72c-.32-.27-.23-.35.09-.23a245.2,245.2,0,0,0-44.88-20.12,257.26,257.26,0,0,1,40.77,19.24c1.48.7,3,1.34,4.47,2.12a3.28,3.28,0,0,1,1,.75c.07.13-.27,0-.68-.17l-1.22-.63c2.41,1.51,4.06,3,3.75,3.43s-2.7-.52-5.21-2c-6.9-3.76-13.81-7.43-20.92-10.7l-2.34-1-2.42-.84A291.69,291.69,0,0,1,501,124.1c.89.52,1.57,1.1,1.49,1.27s-.88-.13-1.77-.65a297.55,297.55,0,0,0-28.58-14,288.87,288.87,0,0,0-30-11c-3.48-.62-7-1.1-10.47-1.63-3.53-.37-7-.82-10.6-1.11.87.19,1.74.42,2.61.65,11.11,2.61,21.43,5.16,31.57,8.25a197.91,197.91,0,0,1,30.21,11.69c.5.25.88.55.89.67s-.37,0-.87-.25a220.6,220.6,0,0,0-29.7-11.39l-6.34-1.94L443.15,103l-3.09-.79L437,101.6c-2.06-.43-4.1-.85-6.13-1.24l6.08,1.61,3,.77,3,.87,6,1.71,5.92,1.89,3,.94,2.93,1,5.87,2.12c1.94.75,3.87,1.55,5.81,2.34l2.92,1.2c1,.41,1.91.86,2.87,1.3a7.23,7.23,0,0,1,1.7,1,.79.79,0,0,1,.44.06,64.49,64.49,0,0,1,6.33,2.52,3,3,0,0,1,1.06.69C487.91,120.56,487.62,120.52,487.15,120.33Zm-244.6-12-.24-.09H243l1.39.74Zm-4.67,9.44h0l-.81-.38Zm96.62-48.2-7.27.82c-1.21.11-2.42.29-3.62.46l-3.62.5c-4.84.55-9.63,1.44-14.5,2.06l6.93-1.67,2.74-.44,2.76-.32,5.52-.62c1.83-.23,3.68-.34,5.53-.45ZM234.27,107.67a12.59,12.59,0,0,1,3.28.8,5,5,0,0,1,1.34-1.15,27,27,0,0,1,4.27-2.14c-.44-.29-.09-.44,0-.59l.43-.4c-1.58.6-3.25,1.1-4.86,1.76A43,43,0,0,1,234.27,107.67Zm-8.22,8.42-.23-.06-.22-.76Zm.41,1.26.26-.07C226.83,117.55,226.7,117.52,226.46,117.35Zm2.31-.61a2,2,0,0,0-.49-.12Zm14.73,16-1.71-3.37,1.57,3.29Z"/><path d="M7.3,77.64l.59,0c-.08.35-.4.6-.86.8a10.61,10.61,0,0,0,6.84-3.4,16.22,16.22,0,0,0,3.92-6.42A2.46,2.46,0,0,0,19,65.49a2.4,2.4,0,0,0-3.33-.66,3.89,3.89,0,0,1-1,.15,22.12,22.12,0,0,0-8.7.79l2-.06a7,7,0,0,0-2.48.94l.66.34C2.89,67.37.05,70.16,0,73.12s2.63,5,5.84,4.65Z"/><path d="M15.68,80.22c-1.73.32-3.47.56-5.24.79l-.51-.14,1.28,1.41-.05-.12c.13-2.08,1.61-4,3.09-5.68l.47-.65a1.45,1.45,0,0,0,0-1.19A1.75,1.75,0,0,0,12.29,74c-.37.18-.71.38-1.06.58-3,.87-6.74,3.62-5.93,7,.2.78,1.06,1.31,1.68,1.93a2.52,2.52,0,0,0,3.45.43,2.38,2.38,0,0,0,.82-3.29l.74-.23c-.05.23-.11.46-.17.69-.36-1.09.52-2.06.93-3.1l1-1.11-2.44-1.81-.37.77a2.63,2.63,0,0,1,.32.15,26.6,26.6,0,0,1-2.18,4.29l-.9,2a1.31,1.31,0,0,0,1.3,1.4l1.09,0-.55,0c2-.7,3.92-1.67,5.9-2.3a.67.67,0,0,0,.5-.73A.55.55,0,0,0,15.68,80.22Z"/><path d="M10.37,84.78a1.62,1.62,0,0,0-1.13.35v.3h.82C10.65,85.44,10.65,85.08,10.37,84.78Z"/><path d="M9.24,85.43H8.89l.32.11c0-.05,0-.05,0-.05Z"/><path d="M161.16,35.6c1.13.11,2.26.18,3.37.32l3.35.42,6.69.86,6.65,1.11,3.31.55,3.29.67,6.57,1.34,6.51,1.57,3.25.79c1.08.27,2.14.59,3.22.89l6.41,1.8c.58.16,1.08.23,1.13.11s-.35-.35-.89-.48l-6.42-1.82-3.22-.9-3.24-.8-6.51-1.58-6.56-1.35-3.29-.68-3.31-.56-6.64-1.11c-2.23-.32-4.46-.58-6.69-.88s-4.47-.59-6.73-.76a2,2,0,0,0-1.2.15C160.18,35.4,160.6,35.55,161.16,35.6Z"/><path d="M280.86,85.72c-.39-.13-.43,0-.1.24a4.74,4.74,0,0,0,1.21.68c.33.11.38,0,.1-.23A4.51,4.51,0,0,0,280.86,85.72Z"/><path d="M273.86,90.94c-1.05-.48-2.07-.94-3.07-1.36s-2-.74-2.93-1a4.78,4.78,0,0,1-1-.48c0,.21-.42.15-1.19-.15a320.37,320.37,0,0,0-48.42-15.07,1.82,1.82,0,0,1-.82.26,17,17,0,0,1-6-.76l-1.75-.55c-1.78-.5-3.59-.88-5.38-1.33s-3.58-.91-5.39-1.26l-5.42-1.09-2.7-.55-2.72-.45a39.09,39.09,0,0,1-5.16-.19c-3.19,0-6.39.12-9.58.14l-9.6.46c.39.16.62.35.61.55s-.49.42-1.09.57a9.85,9.85,0,0,1-2.26.24l-2.6.06c2.48.11,5,.13,7.43.39a7.06,7.06,0,0,1,1,.12c2.73.12,5.49.12,8.3.34a288.43,288.43,0,0,1,70.74,12,4,4,0,0,1,1.22.54c.18.17.09.27-.33.16-14.65-3.64-27.75-4.7-44-6.31a221.13,221.13,0,0,0-57.21,1.86,147.75,147.75,0,0,0-28.27,5.77A166.19,166.19,0,0,0,89.72,94.51c-1.5.67-2.91,1.52-4.36,2.27l-4.27,2.28L77,101.51c-1.36.81-2.75,1.56-4,2.46l-1,.64-.49.33-.18.13-.63.47-1.27.92c-.84.62-1.71,1.18-2.51,1.83-1.63,1.27-3.26,2.49-4.92,3.67s-3.19,2.53-4.81,3.77a5.06,5.06,0,0,1-4,1.46A6.48,6.48,0,0,1,48.91,115,7.43,7.43,0,0,1,47,109.19l-.65.46-1.25.43a5.12,5.12,0,0,1-3.8-.3l-1.65-.67c-2.72-1.59-5.74-2.2-8.48-4l-.55-1.06-.4-.1A6,6,0,0,1,27,102.54l-.83-1.14A13.57,13.57,0,0,1,24.29,97a4.66,4.66,0,0,1-.9-1.51,6.8,6.8,0,0,1-3.23-3.35A1,1,0,0,1,19.39,91a1.06,1.06,0,0,1,.27-.5h0a9.92,9.92,0,0,0-1-.35c-.37.13-.6.19-.6.19-.93.42-.93.42-1.76.76a5.15,5.15,0,0,1-1.71-.18c-2.28-1.43-2.29-1.43-2.89-2.34a2.29,2.29,0,0,1-.07-.34c-.77.13-.83.14-1,.16a2.58,2.58,0,0,1-.53-.12c-.41-.43-.41-.43-.64-.52a3.09,3.09,0,0,1-.31-.32c-.13-.74-.12-.74-.24-.89a2,2,0,0,1,0-.37l.36-.66,1.74.58-.17-.53.62.4-.51-.42h.63l-.79-.1a4.64,4.64,0,0,0,1.4-.81,1.93,1.93,0,0,0,.68-.64,1.89,1.89,0,0,1-.25-.24c1.13-.55,1.13-.55,2.24-1.06a3,3,0,0,1,.48.16.56.56,0,0,1,.32-.53l.56-.29.05-.15,0,0,.24-.55,0-.12h0c.16-.39.39-.95,1.08-2.36a9,9,0,0,1,1-.35l-.42,0c-.28-.06-.46-.6-.58-.58-.72.14-1.43.32-2.13.53s-1.36.51-2,.79c-1.34.58-2.66,1.23-4,1.85a1,1,0,0,1-1.31.1.82.82,0,0,1,.06-1.23c2.7-6,9.14-9.76,15.48-11,1.51-.58,3-1.19,4.47-1.81L27.78,67l1.28-.28.12-.05-1.33-.35c-.24,0-.47,0-.71.09a29.17,29.17,0,0,1-5.29,1.71c-1.8.47-3.61.94-5.41,1.54s-3.91.8-5.9,1.26a.83.83,0,0,1-1.14-.24.79.79,0,0,1,.43-1A36.12,36.12,0,0,1,18,64.37a20.91,20.91,0,0,1,9.17-1.75,5.66,5.66,0,0,1,3.13-.8l0,0-1-.35c.82-.26,1.58.14,2.39,0l-.83-.83c2-.66,3.93-1.58,5.88-2.37a28.1,28.1,0,0,1,3-1.05,14.26,14.26,0,0,1,3.06-.49,3.29,3.29,0,0,1,.43-.09,23.62,23.62,0,0,1,1.76-2l.49-.45.15-.12.43-.24.87-.5a40.54,40.54,0,0,1,3.73-1.87c-.93.3-1.83.66-2.73,1l-2.65,1s.17-.12.27-.18l.33-.2.68-.41L47.88,52a30.1,30.1,0,0,1,2.81-1.48c1.91-.92,3.89-1.8,6-2.62,11.38-4.36,24.9-6.53,31.65-5.37a245.22,245.22,0,0,1,33.55-6.18,268.86,268.86,0,0,1,33.9-1.43,4.27,4.27,0,0,1,2.41.56c.11.27-.66.48-1.82.45a264.89,264.89,0,0,0-48.55,4.62,287.11,287.11,0,0,1,41.22-2c1.77,0,3.55-.07,5.34,0s3.5.23,5.24.43c17.69,1,34.15,4,51.53,8l2.77.63,2.7.72,5.31,1.42c1.76.44,3.47,1,5.18,1.51l5.12,1.56c3.4,1.07,6.74,2.29,10.17,3.44s6.81,2.57,10.34,3.93a282.53,282.53,0,0,1,27.92,13.11,245.93,245.93,0,0,1,25.84,16.34c2.25,1.62,4.12,3.43,4.13,4s-1.84-.29-4.09-1.89A311.29,311.29,0,0,0,278.78,75a317.55,317.55,0,0,0-29.49-13.57A301.15,301.15,0,0,0,218.11,51a312.27,312.27,0,0,0-33-7.39c-2.43-.45-4.87-.73-7.28-1.09L174.25,42c-1.21-.16-2.42-.26-3.63-.4a.48.48,0,0,1,.1.28c0,.36-.51.65-1.3.86l4.1.45c1.36.19,2.72.42,4.08.63l4.09.66,2,.33,2,.42a190.47,190.47,0,0,1,45.68,10.7A236,236,0,0,1,260,69.37a281.6,281.6,0,0,1,34.41,18.3,3.19,3.19,0,0,1,1,.79c.1.18-.18.1-.63-.17l-6-3.27-3-1.64-3.06-1.58-6.13-3.16-6.27-3c1.15,1,1.72,1.76,1.41,2.1s-1.5.2-3.15-.33l5.52,3c1.13.6,1.93,1.26,1.79,1.45s-1.12-.14-2.2-.71c-3.75-2-7.47-4-11.31-5.84-1.91-.92-3.79-1.9-5.73-2.76l-5.8-2.61A294.41,294.41,0,0,0,222,60a7,7,0,0,1,2.44,2.12h0l4.49,1.39c27.69,7.64,54.5,21,78.43,38.55.47.33.82.67.77.75s-.45-.11-.88-.41c-3.64-2.59-7.26-5.22-11-7.62-1.88-1.2-3.71-2.48-5.63-3.61l-5.73-3.44,0,0c.28.24.28.38-.1.24a5.44,5.44,0,0,1-1.19-.73c-.32-.27-.23-.35.09-.23a244.48,244.48,0,0,0-44.88-20.11,257.22,257.22,0,0,1,40.77,19.23c1.48.7,3,1.35,4.47,2.12a3.16,3.16,0,0,1,1,.75c.07.14-.27.06-.68-.16l-1.22-.64c2.41,1.51,4.06,3,3.75,3.43s-2.7-.52-5.21-2c-6.9-3.75-13.81-7.43-20.92-10.69l-2.34-1L256,77.13a292.45,292.45,0,0,1,31.72,17.58c.89.53,1.57,1.1,1.49,1.27s-.87-.12-1.77-.64a295.3,295.3,0,0,0-28.58-14,288.87,288.87,0,0,0-30-11c-3.48-.62-7-1.1-10.47-1.63-3.53-.37-7-.81-10.6-1.1.87.19,1.74.41,2.61.64,11.11,2.61,21.43,5.17,31.57,8.25a197.57,197.57,0,0,1,30.21,11.7c.5.24.88.54.89.66s-.37,0-.87-.25a222,222,0,0,0-29.7-11.39l-6.34-1.94-6.28-1.65-3.09-.79-3.09-.66c-2.06-.43-4.1-.85-6.13-1.23l6.08,1.6,3,.78,3,.86,6,1.71,5.92,1.89,3,.94,2.93,1,5.87,2.12c1.94.76,3.87,1.55,5.81,2.34l2.92,1.2c1,.41,1.91.87,2.88,1.3a8.08,8.08,0,0,1,1.7,1,.76.76,0,0,1,.43.06,67.09,67.09,0,0,1,6.33,2.52,3.18,3.18,0,0,1,1.06.69C274.62,91.17,274.33,91.13,273.86,90.94Zm-244.6-12L29,78.82h.65l1.39.73Zm-4.67,9.44h0L23.78,88Zm96.62-48.19-7.27.82c-1.21.11-2.42.28-3.62.46l-3.62.49c-4.84.55-9.62,1.45-14.5,2.07l6.93-1.68,2.74-.44,2.76-.32,5.52-.62c1.83-.23,3.68-.34,5.53-.45ZM21,78.29a12.19,12.19,0,0,1,3.28.79,5.13,5.13,0,0,1,1.34-1.15,27.93,27.93,0,0,1,4.27-2.14c-.44-.29-.09-.44,0-.58l.43-.41c-1.58.61-3.25,1.1-4.86,1.76A40.91,40.91,0,0,1,21,78.29ZM12.76,86.7l-.23,0-.22-.76ZM13.17,88l.26-.06C13.54,88.16,13.41,88.13,13.17,88Zm2.31-.61a1.87,1.87,0,0,0-.49-.12Zm14.73,16L28.5,100l1.57,3.29Z"/><path d="M155.48,97.3l0,.26c-.16,0-.3-.09-.43-.26.64,2.37,3.21,3.24,5.43,3.08a1.1,1.1,0,0,0,1.5-1.6,1.78,1.78,0,0,1-.17-.41,8.55,8.55,0,0,0-1.17-3.5l.21.84a2.54,2.54,0,0,0-.63-.88l-.1.34a2.54,2.54,0,0,0-4.84,1.51Z"/><path d="M155,101.38c-.31-.73-.57-1.47-.83-2.22l0-.25-.53.76.05,0a4.55,4.55,0,0,1,2.85.55l.35.1a.77.77,0,0,0,.54-.2.81.81,0,0,0,.06-1.15l-.35-.37c-.65-1.18-2.17-2.39-3.68-1.57-.34.19-.52.64-.75,1a1.12,1.12,0,1,0,1.66,1.49l.17.3-.33,0c.47-.32,1-.07,1.49,0l.59.27.6-1.35-.38,0a.58.58,0,0,1,0,.16,10.65,10.65,0,0,1-2.12-.33l-1-.11a.69.69,0,0,0-.54.76l.11.47a2.29,2.29,0,0,0,0-.25c.49.8,1.11,1.51,1.58,2.32a.29.29,0,0,0,.38.12A.28.28,0,0,0,155,101.38Z"/><path d="M152.48,99.64c0-.17-.08-.35-.26-.45l-.14,0c0,.1,0,.24.07.37S152.36,99.81,152.48,99.64Z"/><path d="M152.08,99.22l0-.15a.78.78,0,0,1,0,.16h.05Z"/><path d="M177.19,115.35a38.38,38.38,0,0,0,2.89,3.08s.1,0,.16-.07.07-.15,0-.17c-1-1-2-2-2.87-3.08,0,0-.1,0-.16.06S177.16,115.32,177.19,115.35Z"/><path d="M180,128.7a.28.28,0,0,0-.14.18c0,.06,0,.1.1.06a.28.28,0,0,0,.13-.17C180.07,128.69,180,128.67,180,128.7Z"/><path d="M175.46,134a2,2,0,0,0-.74.08c-.05,0-.07,0-.07-.06a.39.39,0,0,1-.28.2,14.91,14.91,0,0,1-4.83-.83,1.34,1.34,0,0,1-.25.23c-.3.22-.58.24-.71.06l-.07-.16c-.38-.56-.78-1.08-1.15-1.65a.82.82,0,0,1-.54,0,13.64,13.64,0,0,1-2-.09,1,1,0,0,1-.17.31c-.2.24-.44.34-.56.24l-.19-.13c.13.2.26.39.38.6a.14.14,0,0,1,0,.09,5.13,5.13,0,0,0,.6.44,15.05,15.05,0,0,0,6.66,1.62s.09,0,.07.1a.3.3,0,0,1-.15.16c-2,.44-4.09,1.37-5.85,1.28a30.3,30.3,0,0,1-6-.79c-1.46-1.14-3.27-1.59-5.09-2.31a17.91,17.91,0,0,1-1.77-.8,1.84,1.84,0,0,1-.25-.14l-.39-.24-.76-.5-1.5-1c-2-1.37-3.91-2.8-5.85-4.26a3.31,3.31,0,0,1,1.36-6.17l-.34-.29-.42-.61a2.88,2.88,0,0,1-.48-2l.08-.9c.37-1.55.28-3.17.78-4.7l.45-.37v-.21a2.93,2.93,0,0,1,.32-1.72l.45-.52a7,7,0,0,1,1.88-1.38,2.48,2.48,0,0,1,.61-.6A3.45,3.45,0,0,1,150,105a.48.48,0,0,1,.47-.5.51.51,0,0,1,.25.06h0a3.35,3.35,0,0,0,.07-.5,2.6,2.6,0,0,1-.15-.25c-.28-.37-.28-.37-.52-.71a2.33,2.33,0,0,1-.08-.8c.46-1.21.46-1.21.83-1.59l.15-.08c-.13-.33-.14-.35-.17-.44a.88.88,0,0,1,0-.25c.16-.24.16-.24.18-.35a1.41,1.41,0,0,1,.13-.18c.32-.15.32-.15.38-.22l.17-.06.34.07-.12.84.23-.14-.13.33.15-.28.05.28,0-.37a2.23,2.23,0,0,0,.49.52.89.89,0,0,0,.36.22,1.11,1.11,0,0,1,.08-.15c.36.43.36.43.69.86a1.79,1.79,0,0,1,0,.24.24.24,0,0,1,.27.07l.18.21h.09l.27,0h.06l1.19.12a2.63,2.63,0,0,1,.28.4l0-.2c0-.13.22-.3.2-.35a17.54,17.54,0,0,0-2.2-3.14.41.41,0,0,1-.15-.56.42.42,0,0,1,.57-.15,9,9,0,0,1,6.54,5c.45.53.92,1,1.39,1.56v-.17l.3.5,0,0,0-.64-.13-.29a27.06,27.06,0,0,1-2.71-4,24.66,24.66,0,0,1-1.15-2.3.37.37,0,0,1,0-.52.36.36,0,0,1,.51,0c2.28,1.32,4.44,3.4,5,6a2.11,2.11,0,0,1,.76,1.17h0l0-.51c.22.3.15.69.32,1l.26-.53c1.17,1.36,2.77,2.4,3.55,4.05l.12.16a8.7,8.7,0,0,1,2,.46l-.23-.41a1.38,1.38,0,0,1,1,.28,3.12,3.12,0,0,1,.38,3.37A49.57,49.57,0,0,0,177,114.9c.08,0,.07.18,0,.32s-.24.23-.33.2A16.84,16.84,0,0,1,173,114a15.17,15.17,0,0,0,2.13,2.45l.38.2a.6.6,0,0,1,.26.32,13.43,13.43,0,0,0,3.43,2.26,30,30,0,0,0,3.52,1.09,12.74,12.74,0,0,1,4.77,1.8c.2.1.17.47-.07.83s-.62.57-.83.48c-3.55-1.06-7.24-1.86-10-4.25l-.86-.77-.1.15a1.91,1.91,0,0,1-.47.44,8.76,8.76,0,0,1,.87,1,6.53,6.53,0,0,1,3.4,1.71,8.92,8.92,0,0,1,1.29,2.47c1,.43,2,.79,3,1.26,0,0,.06.06,0,.14s-.11.13-.16.12a13.18,13.18,0,0,1-2.56-.33,2.41,2.41,0,0,1-.47.91,2.12,2.12,0,0,1-.81.64l.39.34c.07.08,0,.25-.08.4s-.29.24-.37.18l-1.59-1.35c-.79-.34-1.57-.7-2.32-1.08a3.36,3.36,0,0,1-.39.89h0l.33.21a14,14,0,0,1,6.62,3.23s0,.11,0,.18-.13.11-.16.08a11.14,11.14,0,0,0-1.74-1.33h0a.28.28,0,0,1-.14.18c-.06,0-.1,0-.09-.07a.25.25,0,0,1,.13-.17,14.73,14.73,0,0,0-3.86-1.62,16.55,16.55,0,0,1,2.91,2.3l.53,0c.05,0,.05.08,0,.15s-.11.13-.16.12h-.14c.16.17.07.58-.22.95s-.7.55-.88.39c-.57-.33-1.11-.69-1.64-1.07l-.22-.06-.3,0c.68.77,1.33,1.57,2,2.37.07.05,0,.21-.06.34s-.25.21-.32.16a28.23,28.23,0,0,1-5.11-2.14l-2.74.64a1.14,1.14,0,0,0,.16.15c1.55,1.2,4.12.58,5.88,1.4,0,0,0,.09,0,.16s-.13.12-.17.09a16.7,16.7,0,0,0-3-.47,16.31,16.31,0,0,0-2.54-.27c1.25.73,2.9.86,4.27,1.42.07,0,.1.08.07.17a.34.34,0,0,1,.11-.07,2.38,2.38,0,0,1,.78-.08c.05,0,.07.05,0,.14A.23.23,0,0,1,175.46,134Zm-18.27-26.77v-.13l.09.29-.15.75Zm-5-.66h0l.08-.43C152.28,106.34,152.25,106.48,152.23,106.59Zm21,8.76a4.6,4.6,0,0,1-1.41-1.86l.5.24A15.78,15.78,0,0,1,173.27,115.35Zm-16.78-11.93a6,6,0,0,1,0,1.59,1.93,1.93,0,0,1,.68.42,18.3,18.3,0,0,1,1.53,1.52c.08-.25.19-.12.28-.09l.24.11c-.49-.59-1-1.2-1.44-1.83A15.51,15.51,0,0,1,156.49,103.42ZM151.8,101v-.11l.33-.2Zm-.55.35.06.1C151.19,101.5,151.2,101.44,151.25,101.31Zm.5,1a1.05,1.05,0,0,0,0-.24Zm-6,8.83,1.41-1.19L145.8,111Z"/></g></g></svg>