<svg xmlns="http://www.w3.org/2000/svg" viewBox="0 0 508.97 247.04"><g id="Layer_2" data-name="Layer 2"><g id="Layer_1-2" data-name="Layer 1"><path d="M202.7,11.33l.51.29a1.34,1.34,0,0,1-1.13.36,11,11,0,0,0,7.75,0,18.93,18.93,0,0,0,6.63-4.08,2.56,2.56,0,0,0,2.64-2.3,2.41,2.41,0,0,0-2.72-2.15,4.13,4.13,0,0,1-1-.34A20.53,20.53,0,0,0,207.06,0L209,.83a7.69,7.69,0,0,0-2.71-.24l.44.62a7.59,7.59,0,0,0-4.87,0,6.18,6.18,0,0,0-3.55,2.88c-1.43,2.7,0,5.71,3.08,6.76Z"/><path d="M209,17.47c-1.71-.52-3.38-1.11-5.09-1.7l-.38-.35.49,1.84v-.13c1.09-1.82,3.33-2.88,5.44-3.69l.74-.38a1.53,1.53,0,0,0,.54-1.1,1.72,1.72,0,0,0-1.87-1.67c-.41,0-.81,0-1.22,0a10.62,10.62,0,0,0-5.16.33,5,5,0,0,0-3.44,3.42,5.07,5.07,0,0,0,.62,2.49,2.45,2.45,0,0,0,2.88,1.89,2.5,2.5,0,0,0,2.25-2.62l.78.13-.48.55c.18-1.15,1.42-1.62,2.28-2.36l1.4-.55-1.35-2.74-.7.51a2.38,2.38,0,0,1,.22.29,29.46,29.46,0,0,1-4,2.87L201.3,16a1.28,1.28,0,0,0,.51,1.83l1,.45-.46-.29c2.1.22,4.28.24,6.35.58a.67.67,0,0,0,.8-.42A.55.55,0,0,0,209,17.47Z"/><path d="M202.16,19.17A1.58,1.58,0,0,0,201,19l-.14.27.73.36C202.1,19.89,202.27,19.57,202.16,19.17Z"/><path d="M200.85,19.27l-.31-.15.24.23,0,0Z"/><path d="M310.33,205.1c.38.16.78.27,1.17.39.23,0,.35.1.65.18s.66.16,1,.23.67.15,1,.2l1.14.14,1.14.16,1.17,0a36.39,36.39,0,0,0,9.61-.74A46.08,46.08,0,0,0,346,196.82a49.18,49.18,0,0,0,7.73-7.47,58.93,58.93,0,0,0,6.32-9.3,73.76,73.76,0,0,0,7.74-22.28,4.43,4.43,0,0,0,.12-2.06c-.11-.07-.31.76-.51,1.74a73.24,73.24,0,0,1-7.64,22.16,59.29,59.29,0,0,1-6.23,9.24,49.4,49.4,0,0,1-7.61,7.42,45.77,45.77,0,0,1-18.51,8.88,36.79,36.79,0,0,1-9.48.81,17.24,17.24,0,0,1-2.28-.2c-.73-.11-1.53-.16-2.16-.32a23,23,0,0,1-2.82-.76c-.4-.13-.76-.18-.88-.08S309.94,205,310.33,205.1Z"/><path d="M441.63,20.45c-.95.13-.9.24.08.26s2.34-.08,3.27-.1.77-.18-.07-.26A15.92,15.92,0,0,0,441.63,20.45Z"/><path d="M434.59,29.35a50.25,50.25,0,0,0-12.84,4.73,18.61,18.61,0,0,1-2.09,1c.17,0,.06.16-.29.39a18.78,18.78,0,0,1-1.65,1.09c-1.88,1.06-3.62,2.36-5.4,3.59s-3.43,2.66-5,4.19a64.56,64.56,0,0,0-4.56,4.65l-2.06,2.52c-.72.82-1.27,1.76-1.91,2.62a51.62,51.62,0,0,0-6,11.39A56.66,56.66,0,0,0,389.69,78a89.31,89.31,0,0,0-.51,13.56c.17,4.64.67,9.4,1.26,14.23s1.35,9.78,2,14.83,1.38,10.22,1.81,15.55a6.34,6.34,0,0,1,.57,1.78,44.82,44.82,0,0,1,.74,6.45,66.81,66.81,0,0,1-.18,9.07c-.16,1.61-.32,3.22-.57,4.82a105.07,105.07,0,0,1-7.67,28.55,84.9,84.9,0,0,1-16.56,25.29,61.46,61.46,0,0,1-10.43,9.94c-1.72,1.43-3.57,2.7-5.41,4s-3.8,2.46-5.82,3.51-4.07,2.08-6.16,3c-1.06.46-2.15.87-3.23,1.29s-2.18.81-3.3,1.16c-2.21.77-4.52,1.31-6.83,1.87a69.86,69.86,0,0,1-7.12,1.11,71.23,71.23,0,0,1-7.33.39c-2.48-.1-4.93-.16-7.54-.52,1.27.35,2,.63,2,.83-.23.21-1.57.3-3.56.07l-.8-.08a6.42,6.42,0,0,1-.94-.13c-.65-.12-1.34-.25-2.05-.41a43.71,43.71,0,0,1-4.51-1.31,51.18,51.18,0,0,1-9-4.12,53,53,0,0,0,13.12,5.6c1.15.3,2.34.63,3.47.82s2.06.42,3.1.56l1.54.23,1.5.14,3,.27c1.15.08,2.21.07,3.18.13a70.42,70.42,0,0,0,25.43-4.85,80,80,0,0,0,23.47-14.23,78.3,78.3,0,0,0,9.41-9.69c1.47-1.72,2.72-3.52,4-5.3s2.46-3.63,3.51-5.52a95.72,95.72,0,0,0,9.79-23.4,113.7,113.7,0,0,0,2.55-12,117.06,117.06,0,0,0,1.18-12,115.1,115.1,0,0,0-.05-11.9l-.17-2.91c-.07-1-.17-1.9-.25-2.85l-.26-2.84-.33-2.78c-.88-7.4-2.06-14.44-3.06-21.23-2-13.53-3.11-26.26-.28-37.81a10.6,10.6,0,0,1,.86-2.51c.23-.39.32-.27.1.55L393,70.52c-.12.44-.17.92-.26,1.36-.17.91-.33,1.81-.5,2.71l-.3,2.76-.15,1.36-.05,1.39c0,.92-.07,1.84-.11,2.76s0,1.87.05,2.8.05,1.87.12,2.82.12,1.87.2,2.82c.72,7.61,2.19,15.34,3.83,23.69.81,4.14,1.63,8.51,2.39,13s1.4,9.28,1.76,14.37a113.62,113.62,0,0,1-2.22,32.75,98.13,98.13,0,0,1-18.14,39.4,87.62,87.62,0,0,1-16.44,16.09,85.74,85.74,0,0,1-20.61,11.32,75.94,75.94,0,0,1-24.19,5l-3.2.09c-1.07,0-2.15-.07-3.23-.1s-2.15-.1-3.25-.19-2.26-.22-3.39-.41l-1.73-.26a17.73,17.73,0,0,1-2-.36c-1.34-.27-2.66-.62-4-1s-2.62-.8-3.91-1.24-2.57-.95-3.82-1.5c-10.05-4.32-18.88-11.67-24.13-21.36A49.85,49.85,0,0,1,260.42,205a56.84,56.84,0,0,1-.75-8.36c0-1.41,0-2.82.07-4.23l0-.53a2.44,2.44,0,0,1,0-.54l.09-1.08c0-.62.08-1.21.15-1.79.29-2.44.7-4.75,1.16-7,.24-1.09.48-2.21.76-3.26l.41-1.59.42-1.45c.58-1.93,1.15-3.9,1.77-5.77s1.31-3.64,2-5.46c2.73-7.06,5.72-13.44,8.59-19.34s5.6-11.26,7.93-16.33c1.21-2.55,2.18-4.92,3.17-7.29l1.27-3.4c.42-1.12.67-2.15,1-3.22a43,43,0,0,0,1.92-11.12c0-.79-.08-1.56-.08-2.34s-.22-1.4-.27-2.1-.34-1.39-.45-2.09a6.28,6.28,0,0,0-.32-1c-.11-.35-.22-.7-.32-1C287,89,282.78,83,276.88,78.27a44.82,44.82,0,0,0-6.3-4.24c-1.06-.68-2.23-1.11-3.3-1.69l-1.68-.67-.83-.36c-.29-.11-.62-.21-.93-.31L262,70.34,260,69.79l-1-.28-1-.23-2-.46c-1.38-.21-2.7-.54-4.13-.68-.7-.08-1.39-.2-2.1-.27l-2.15-.19c-.71-.08-1.45-.09-2.19-.13l-1.1,0h-.21l-.65,0-1.31.12c-.88.09-1.73.09-2.62.21-3.49.26-7.07.66-10.74,1.17-2.69.81-5.58-1.29-6.5-4.91a7.51,7.51,0,0,1,.93-6l-.76.06-1.26-.26a5.22,5.22,0,0,1-3.15-2.1L217,54.46c-1.65-2.71-4.05-4.73-5.68-7.59V45.68l-.31-.29a6.17,6.17,0,0,1-2.18-2.78l-.21-1.4a13.29,13.29,0,0,1,.32-4.76,5,5,0,0,1-.12-1.75,6.94,6.94,0,0,1-1.33-4.49.94.94,0,0,1-.15-1.39,1,1,0,0,1,.47-.31h0a9.74,9.74,0,0,0-.72-.77c-.39-.05-.62-.1-.62-.1l-1.91-.09a5,5,0,0,1-1.44-.92c-1.38-2.3-1.39-2.3-1.51-3.4,0-.11.06-.23.09-.33l-1-.31a2.58,2.58,0,0,1-.41-.34c-.17-.57-.17-.57-.33-.76a2.3,2.3,0,0,1-.13-.42c.22-.72.22-.72.19-.9a1.62,1.62,0,0,1,.14-.36l.62-.45,1.28,1.29.09-.56.38.64-.27-.6.56.28-.66-.43a4.7,4.7,0,0,0,1.62-.13,2,2,0,0,0,.9-.28,2.05,2.05,0,0,1-.11-.33c1.26,0,1.27,0,2.5.08a3.06,3.06,0,0,1,.36.36.57.57,0,0,1,.53-.33h.64l.12-.11v-.05l.47-.38.1-.09h0c.68-.57,1.38-1.1,2.08-1.64a7.69,7.69,0,0,1,1.1.14,3.75,3.75,0,0,1-.36-.24c-.23-.17-.14-.75-.25-.78a20.21,20.21,0,0,0-4.36-.69c-1.47-.08-3-.14-4.46-.14a1,1,0,0,1-1.22-.49.87.87,0,0,1,.63-1.1c5.18-4.13,12.82-4.8,19.24-2.92l5,.43L226.4,11l1.31.37.14,0-1-1q-.34-.15-.69-.27a32.89,32.89,0,0,1-5.68-.87c-1.88-.41-3.75-.84-5.69-1.14s-3.92-1-5.95-1.46a.81.81,0,0,1-.91-.72.85.85,0,0,1,.88-.77C215,3.49,222.67,3.52,228,6.79a5.93,5.93,0,0,1,3.28.81h.06l-.76-.82c.89.17,1.39.89,2.2,1.17-.11-.36-.23-.78-.33-1.15,2.2.36,4.46.42,6.71.75a29.93,29.93,0,0,1,3.3.58,16.32,16.32,0,0,1,3.11,1.14,3.5,3.5,0,0,1,.46.14,20,20,0,0,1,2.75-.87c.24-.05.48-.09.73-.12a.62.62,0,0,1,.23,0l1.24.1,2.5.22A105,105,0,0,1,264,10.41l-3.62-.86-3.6-.7c-1.2-.23-2.41-.48-3.61-.63l-3.39-.5H250l.49,0,1,.07,2,.16c1.31.08,2.64.29,3.95.45,2.64.29,5.3.8,8,1.32a97.2,97.2,0,0,1,16.28,4.87A94.55,94.55,0,0,1,303.4,26.69a92.17,92.17,0,0,1,17.29,16.82,80.23,80.23,0,0,1,10.95,18.33c.67,1.45,1.19,2.94,1.69,4.37s1,2.76,1.32,4.12a56.25,56.25,0,0,1,1.54,7.36,75.59,75.59,0,0,1,3.37,24.08,86.23,86.23,0,0,1-3.94,22.92c-.58,1.74-1.1,3.56-1.75,5.22l-1.94,5c-1.38,3.15-2.77,6.33-4.25,9.24-2.92,5.92-6,11.41-8.84,16.55s-5.6,10.12-7.88,14.84a102.57,102.57,0,0,0-5.53,13.67,36.86,36.86,0,0,0-1.28,5.65c0,.24,0,.34,0,.45s0,.25,0,.38,0,.51,0,.76a9.4,9.4,0,0,0,.14,1.5,8.34,8.34,0,0,0,1,2.81,7.87,7.87,0,0,0,2,2.2c.65.49,1.17,1,1.14,1.3s-.74.23-1.5-.29a8.35,8.35,0,0,1-3.17-3.51,10.64,10.64,0,0,1-1-4.78c0-.2,0-.43,0-.62s0-.23,0-.4,0-.32.07-.49c.08-.66.2-1.35.33-2s.32-1.45.5-2.19l.31-1.13.4-1.23.78-2.47c.23-.82.63-1.68.93-2.51l1-2.53,1.14-2.58c3-6.91,7-14.07,11.22-21.85a201,201,0,0,0,12.14-25.77,173.46,173.46,0,0,1-10.69,21.62c-3.74,6.59-7.46,12.73-10.7,18.69a109.51,109.51,0,0,0-7.87,17.44,38.93,38.93,0,0,0-1.17,4c-.15.63-.3,1.27-.4,1.88s-.21,1.28-.25,1.61a14.47,14.47,0,0,0,.33,5.16,10.37,10.37,0,0,0,2.68,4.53,17.09,17.09,0,0,0,4.21,3.05,18.55,18.55,0,0,0,3.16,1c.44.11,1.31.31,2.05.43s1.61.2,2.42.3a38.4,38.4,0,0,0,10.13-.37,45.25,45.25,0,0,0,10.14-3,51.32,51.32,0,0,0,9.49-5.32,53.29,53.29,0,0,0,15-16.32,71.85,71.85,0,0,0,8.56-22.33,83.13,83.13,0,0,0,1.52-10.44,88.61,88.61,0,0,0,.3-10.44c-.14-7-.93-14.35-1.8-22s-1.82-15.66-2.06-24.33c0-2.17-.11-4.34,0-6.6,0-1.13,0-2.24.1-3.39s.16-2.29.24-3.45.21-2.32.36-3.5.29-2.35.47-3.54l.69-3.59.36-1.81.47-1.81a74.83,74.83,0,0,1,3.34-10.08c.73-1.61,1.42-3.24,2.21-4.81l2.52-4.59a78.27,78.27,0,0,1,12.8-16,80.39,80.39,0,0,1,34.42-19.63A77.16,77.16,0,0,1,444.4,9.55a78.83,78.83,0,0,1,19.7,2.38,86.75,86.75,0,0,1,18.5,6.9,85.32,85.32,0,0,1,16.59,11c5.51,4.55,9.62,9.8,9.78,10.75.1.48-.74-.21-2.22-1.64s-3.66-3.52-6.33-5.8a86.63,86.63,0,0,0-36-18.87,79.17,79.17,0,0,0-20.57-2.35,74.38,74.38,0,0,0-20.64,3.36,79.15,79.15,0,0,0-34.73,22,73.55,73.55,0,0,0-11.88,17.34c-.73,1.62-1.49,3.23-2.17,4.87s-1.21,3.37-1.78,5.05l-1.37,5.08c-.37,1.7-.68,3.4-1,5.1a106,106,0,0,0-1.22,20c.17,6.48.76,12.75,1.39,18.82,1.27,12.12,2.76,23.62,2.21,34.35a93.16,93.16,0,0,1-2.18,16A79.6,79.6,0,0,1,365.29,179a63.39,63.39,0,0,1-8.19,13.23c-.78,1-1.66,1.92-2.49,2.87s-1.78,1.8-2.68,2.69a54.31,54.31,0,0,1-5.94,4.76,49.15,49.15,0,0,1-23.42,8.86c.12.08.22.15.23.25.05.36-.68.83-2,1.14,9.36-.31,19.05-4,27.31-9.87,11-8.68,18.53-21.71,22.23-36.31a97.18,97.18,0,0,0,2.93-22.82c.06-7.91-.66-16.28-1.46-25.2-1-12.2-2.1-24.65-.51-37.36A77.75,77.75,0,0,1,376,62.48a69.43,69.43,0,0,1,9.63-16.79A75.57,75.57,0,0,1,402.9,28.78a73.6,73.6,0,0,1,21.66-10.6,72.1,72.1,0,0,1,24.12-3,78.63,78.63,0,0,1,23.67,4.93,13.4,13.4,0,0,1,2.83,1.25c.38.29-.27,0-1.49-.39a81,81,0,0,0-16.13-4.19c-1.4-.17-2.77-.43-4.18-.53l-4.22-.3a80.45,80.45,0,0,0-8.5.19,69.42,69.42,0,0,0-16.75,3.34,78,78,0,0,0-15.49,7.16c3.3-1.49,5.39-2,5.33-1.51,0,.27-.58.82-1.57,1.58-.5.38-1.11.81-1.8,1.28s-1.44,1.07-2.28,1.67c2.1-1.37,4.35-2.47,6.56-3.64,2.29-1,4.54-2.1,6.92-2.88A24.15,24.15,0,0,1,425.33,22c1-.2,1.56-.26,1.55-.13,0,.29-2.32,1-5,2.06-2.4.79-4.67,1.9-7,2.92-2.22,1.18-4.48,2.31-6.58,3.7l-1.6,1c-.53.34-1,.73-1.55,1.09-1,.74-2.06,1.45-3,2.23l-2.91,2.42c-1,.8-1.84,1.73-2.77,2.58a65.23,65.23,0,0,0-9.62,11.7,60.75,60.75,0,0,0-6.69,13.69,74.57,74.57,0,0,0-3.39,17.77,122.88,122.88,0,0,0,.12,17.7c.86,11.64,2.67,22.94,3.44,34.17a30.9,30.9,0,0,1,.81-6.63h0c-.33-3.51-.72-7-1.11-10.52-1-8-2.12-16.17-2.38-24.5a99.86,99.86,0,0,1,.32-12.57c.25-2.11.43-4.22.87-6.32.21-1,.35-2.1.61-3.14l.8-3.12a29,29,0,0,1,1-3.09c.36-1,.68-2,1.08-3.06l1.3-3c.22-.49.42-1,.67-1.48l.76-1.43c.52-.95,1-1.91,1.56-2.85l1.75-2.73.88-1.36,1-1.3,2-2.59,2.14-2.44,1.07-1.22,1.16-1.14,2.31-2.28,2.47-2.12,1.23-1c.42-.34.87-.65,1.3-1l2.62-1.93c.89-.61,1.82-1.18,2.73-1.77s1.83-1.17,2.79-1.67l2.87-1.56c1-.49,2-.91,3-1.37,2-1,4-1.64,6.07-2.42a66.9,66.9,0,0,1,12.77-3,69.89,69.89,0,0,1,26.05,1.59A78,78,0,0,1,505.52,50.3a8.9,8.9,0,0,1,1.38,2.12,7.79,7.79,0,0,1-1.49-1.71,76.94,76.94,0,0,0-53.25-30.23h.09c.84.14,1,.27.05.26a30.27,30.27,0,0,1-3.27-.28c-1-.13-.88-.23-.08-.26a65.94,65.94,0,0,0-28.75,4.85,73.45,73.45,0,0,0-12.86,6.87,71.56,71.56,0,0,0-11.13,9.34c-.88.83-1.62,1.79-2.44,2.69l-1.19,1.36c-.4.46-.74,1-1.12,1.44-.72,1-1.47,1.92-2.16,2.91l-2,3.06c-.69,1-1.19,2.11-1.78,3.16a30.59,30.59,0,0,0-1.62,3.24l-1.45,3.33-1.18,3.43a68.17,68.17,0,0,0-2.86,14A96.4,96.4,0,0,0,378.06,94a103.71,103.71,0,0,1,.46-13c.29-2.17.5-4.35,1-6.5.24-1.08.38-2.17.68-3.23l.87-3.19a58.46,58.46,0,0,1,5.15-12.2,63.64,63.64,0,0,1,3.49-5.63c.62-.91,1.33-1.75,2-2.64s1.34-1.75,2.1-2.55l2.2-2.46c.77-.79,1.58-1.54,2.36-2.31l1.19-1.14c.4-.37.84-.71,1.25-1.07l2.53-2.12L406,34l1.33-1,1.4-.88,2.79-1.73,2.91-1.55c.49-.25,1-.52,1.46-.76l1.5-.67c1-.44,2-.91,3-1.32,2.07-.72,4.1-1.58,6.23-2.11a64.58,64.58,0,0,1,12.93-2.38,66,66,0,0,1,11.52-.33,13.84,13.84,0,0,1,2.84.41c.29.13-.49.1-1.57,0l-3.21-.19c6.64.42,11.49,2.19,11.25,2.64-.47.45-6-.48-12.64-.73a67.7,67.7,0,0,0-13.34.94,69.48,69.48,0,0,0-12.82,3.73,68,68,0,0,0-22.15,14.56c-1.4,1.33-2.6,2.83-3.86,4.28a28,28,0,0,0-1.71,2.34c-.54.79-1.11,1.57-1.63,2.38a66.79,66.79,0,0,1,32.59-23.91c12.92-4.51,27.14-4.16,40-.15.56.16,1.09.32,1.58.48s.91.37,1.27.53c.73.33,1.17.58,1.16.67s-.46,0-1.18-.17c-.37-.1-.8-.23-1.27-.38l-1.57-.43a63.19,63.19,0,0,0-64.4,17.56,59.43,59.43,0,0,0-9.92,14.23,56.66,56.66,0,0,0-5.17,16.47c-1.85,11.53-.72,23.55.74,35.69,1.38,7.94,2.94,16,3.91,24.41a120.88,120.88,0,0,1,.89,12.89,108.91,108.91,0,0,1-.58,13.22c.17-1.11.38-2.22.52-3.34s.26-2.24.4-3.37a117.65,117.65,0,0,0,.09-21c-.52-6.73-1.42-13.17-2.29-19.41-1.75-12.45-3.41-24.26-2.39-35.65a58.08,58.08,0,0,1,3.77-16.42A55.42,55.42,0,0,1,399.09,49a61.74,61.74,0,0,1,29.27-19.71,9.15,9.15,0,0,1,2.36-.53c.15.05-.63.39-1.82.74A61.48,61.48,0,0,0,400.42,48.2a56.57,56.57,0,0,0-8.85,14.08l-.78,1.92a18.84,18.84,0,0,0-.73,1.94c-.39,1.34-.87,2.62-1.2,4s-.66,2.73-.91,4.13-.47,2.81-.63,4.24A86.23,86.23,0,0,0,387,92.88c.23,4.81.78,9.63,1.44,14.48,1.29,9.68,3.08,19.44,4,29.59-.65-10.4-2.27-20.18-3.41-29.63-.59-4.73-1.06-9.36-1.27-13.92-.15-2.29-.12-4.53-.15-6.79s.14-4.46.41-6.63a55.78,55.78,0,0,1,2.65-12.7,50.79,50.79,0,0,1,5.59-11.66,58.35,58.35,0,0,1,8.34-10.22,65.49,65.49,0,0,1,10.57-8.25,31.68,31.68,0,0,1,3.69-1.91,2,2,0,0,1,.73-.52A53.71,53.71,0,0,1,433,29.34a11.09,11.09,0,0,1,2.66-.45C436.19,28.92,435.62,29,434.59,29.35Zm-212.73-6.8-.17-.19.58.31.9,1.31S222.51,23.27,221.86,22.55Zm-8.64,6.3h0l-.55-.71C212.9,28.44,213.08,28.66,213.22,28.85ZM316.64,156.7c2.55-4.59,5.21-9.29,7.76-14.36,1.3-2.47,2.51-5.14,3.73-7.78.61-1.31,1.15-2.75,1.72-4.12s1.15-2.76,1.63-4.25L333,121.8c.43-1.52.84-3.06,1.24-4.6.2-.77.42-1.53.59-2.32l.45-2.41c.28-1.61.63-3.2.82-4.84a76.67,76.67,0,0,0-.13-20.24,74.14,74.14,0,0,1,.87,19.81c-.09,1.28-.37,2.49-.57,3.72l-.68,3.68c-.54,2.4-1.22,4.71-1.85,7.06s-1.53,4.47-2.34,6.66-1.74,4.24-2.67,6.27A236.07,236.07,0,0,1,316.64,156.7ZM214.71,18.09a11.47,11.47,0,0,1,2.57,2.24,5.24,5.24,0,0,1,1.76-.39,33,33,0,0,1,4.88.07c-.25-.47.13-.44.32-.51l.59-.17c-1.72-.19-3.47-.49-5.24-.68C218,18.47,216.27,18.42,214.71,18.09ZM203.41,22l-.18-.15.15-.78Zm-.21,1.33.26.05C203.43,23.63,203.34,23.55,203.2,23.29Zm2.33.46a1.46,1.46,0,0,0-.38-.33Zm5.79,21.06,0-3.77-.12,3.64Z"/><path d="M285.7,89.78v.52c-.3,0-.52-.17-.69-.5.49,4.7,5.16,6.23,9,5.63a1.74,1.74,0,0,0,2.65-.34,2.35,2.35,0,0,0,0-3,3.16,3.16,0,0,1-.23-.78,20.37,20.37,0,0,0-1.27-6.66c0,.53.09,1.08.13,1.61a4.4,4.4,0,0,0-.81-1.65c-.08.21-.17.45-.26.67a3.74,3.74,0,0,0-1.63-2.78,3.41,3.41,0,0,0-3.13-.23,6.14,6.14,0,0,0-3.87,6.28Z"/><path d="M284.13,97.87A36.1,36.1,0,0,1,283,93.49l.1-.49L282,94.52l.09-.08a7.42,7.42,0,0,1,5.06,1l.61.17a1.39,1.39,0,0,0,1-.44,1.79,1.79,0,0,0,.28-2.26l-.54-.72c-1-2.23-3.18-4.6-6.14-3a6.69,6.69,0,0,0-1.64,2,2.3,2.3,0,0,0-.22,3.13,1.92,1.92,0,0,0,2.88-.18c.08.2.16.4.25.59-.21,0-.4,0-.6,0,.89-.63,1.81-.18,2.71-.14l1,.5,1.29-2.7-.65-.08c-.05.13-.1.33-.11.33a13.1,13.1,0,0,1-3.72-.59l-1.77-.21a1.54,1.54,0,0,0-1.15,1.5l.09,1v-.5c.36.79.79,1.55,1.22,2.31s.9,1.48,1.29,2.27a.47.47,0,0,0,.68.23A.62.62,0,0,0,284.13,97.87Z"/><path d="M279.72,94.44c-.05-.34-.07-.69-.37-.9l-.27.07,0,.73C279.16,94.86,279.47,94.77,279.72,94.44Z"/><path d="M279.08,93.61l0-.3-.07.31h0Z"/><path d="M359.89,126.17a112,112,0,0,0,24.19,1.4c.27,0,.49-.12.48-.24s-.22-.2-.47-.17A111.53,111.53,0,0,1,360,125.69c-.26,0-.49,0-.53.16S359.64,126.12,359.89,126.17Z"/><path d="M423.53,128.65c-.16.15-.11.24.12.22a1.26,1.26,0,0,0,.66-.29c.14-.13.08-.24-.11-.22A1.32,1.32,0,0,0,423.53,128.65Z"/><path d="M424.76,136.64a30.19,30.19,0,0,0-3.13,2,1.52,1.52,0,0,1-.57.23c.13.13,0,.37-.46.6-8.13,4.77-17.68,8.41-27.36,11.36a1,1,0,0,1-.34.53,6.25,6.25,0,0,1-3.39,1.32l-1.1.1c-4.42.55-8.84.94-13.26,1.09a13.07,13.07,0,0,1-3.07.71,106.3,106.3,0,0,1-11.68,2.32c.25.15.39.32.39.52-.09.45-1,.81-2.13.8l-1.64.05,4.72.3a4,4,0,0,1,.62,0c1.73-.07,3.48-.16,5.25-.3A116.15,116.15,0,0,0,389.73,154a144.79,144.79,0,0,0,20.09-7.65,1.4,1.4,0,0,1,.76-.2c.15,0,.17.17-.06.3-2,1.11-3.86,2.27-5.77,3.41s-3.84,2.23-5.83,3.31-4.05,2.12-6.25,3.09c-1.1.48-2.23.95-3.4,1.41s-2.38.91-3.64,1.3l-4.51,1.41-4.58,1.25c-1.53.43-3.08.78-4.63,1.13s-3.12.73-4.7,1a156.12,156.12,0,0,1-19.5,2.53c-6.95-.22-13.66-.56-20.48-1.08a204.91,204.91,0,0,1-20.87-2.79,148.08,148.08,0,0,1-15.59-3.93,134.17,134.17,0,0,1-24.47-9.77,9.59,9.59,0,0,1-4.75-4,5.72,5.72,0,0,1-.25-5.19,6.41,6.41,0,0,1,5.32-3.33l-.87-.59-1.18-1.24a5.91,5.91,0,0,1-1.68-4.1l0-1.88c.48-3.19,0-6.51,1-9.63l.93-.74v-.43a5.51,5.51,0,0,1,.62-3.53l1-1a14.2,14.2,0,0,1,3.89-2.69,4.78,4.78,0,0,1,1.26-1.2,7,7,0,0,1,2.59-3.85,1,1,0,0,1,1-1,1,1,0,0,1,.5.15h0c.09-.41.11-.53.18-1-.17-.31-.26-.51-.26-.51-.51-.78-.51-.78-.93-1.47a4.53,4.53,0,0,1,0-1.61c1.09-2.41,1.11-2.41,1.89-3.17.1-.06.21-.1.31-.15-.18-.65-.19-.7-.23-.89a2.33,2.33,0,0,1,.08-.49c.37-.47.37-.47.43-.69a2.92,2.92,0,0,1,.28-.36c.65-.29.65-.29.78-.42a1.6,1.6,0,0,1,.34-.13l.61.15-.42,1.68L279,95l-.31.65.33-.56,0,.57,0-.74c.53.81.53.81.82,1a1.23,1.23,0,0,0,.61.44,2.44,2.44,0,0,1,.19-.28l1.13,1.7c0,.17-.05.32-.08.47a.4.4,0,0,1,.49.13l.32.42h.14l0,0,.5,0h.11l2.17.19a5.68,5.68,0,0,1,.46.78c0-.13,0-.25,0-.38s.43-.61.4-.71a18.71,18.71,0,0,0-1.62-3.19c-.31-.5-.63-1-.95-1.46l-.91-1.5a.83.83,0,0,1-.13-1.12.76.76,0,0,1,1.05-.29,10.72,10.72,0,0,1,1.82.42,11.36,11.36,0,0,1,1.71.65,12.94,12.94,0,0,1,3,2,20.41,20.41,0,0,1,4.54,6,37.07,37.07,0,0,0,2.53,2.78v-.33l.56.89.08.07-.09-1.23-.26-.52a14.74,14.74,0,0,1-2.57-3.47l-1.07-1.91c-.34-.65-.68-1.3-1-1.93a26.9,26.9,0,0,1-1.67-4.36.82.82,0,0,1,.12-1,.55.55,0,0,1,.86,0,19.08,19.08,0,0,1,8.22,10.93,3.86,3.86,0,0,1,1.41,2.09l0,0v-1c.39.54.35,1.29.69,1.84.11-.35.23-.71.35-1.06a44.87,44.87,0,0,0,3.61,3.12,14.39,14.39,0,0,1,3.33,3.49,1.43,1.43,0,0,1,.25.24,7.78,7.78,0,0,1,4.85.94c-.65-.47-1.3-1-1.91-1.44a21.45,21.45,0,0,1,4.83,1.79c.54.29,1.08.61,1.61,1s1.09.65,1.62,1a37,37,0,0,1,3.05,2.31,18.53,18.53,0,0,1,4.45,5A129.93,129.93,0,0,0,343,123.4a118.05,118.05,0,0,0,14.6,2.12c.51,0,1,.25,1,.52s-.31.46-.83.44a96.58,96.58,0,0,1-21.43-2.54,91.33,91.33,0,0,0,18,4.82l2.41.22a17.59,17.59,0,0,1,2.38.38,98.76,98.76,0,0,0,24.11-.09,126.35,126.35,0,0,0,19.88-4.5c4.73-1.49,9.19-3.08,13.56-4.83s8.71-3.55,13.22-5.47c1.17-.58,2.43-.79,2.79-.46s-.31,1.08-1.49,1.69a151.33,151.33,0,0,1-14,6.62c-2.37,1-4.82,1.87-7.24,2.79s-4.91,1.68-7.43,2.34a109.66,109.66,0,0,1-15.39,3.32,95.64,95.64,0,0,1-16,1l-3.47-.1-3.43-.23a.8.8,0,0,1,.05.26,1.14,1.14,0,0,1-.59.91l3.93.34,4,.26c7.35-.74,14.59-1.91,22.42-2.8l4-.45c1.3-.13,2.59-.25,3.86-.42l3.8-.44,3.78-.58a168.47,168.47,0,0,0,17.86-7.23.9.9,0,0,1,.61-.16c.13,0,0,.19-.18.32-1.91,1.18-3.94,2.18-6,3.27s-4.14,2-6.29,2.92c.81.07,1.37.32,1.47.75s-.29,1-1,1.56l1.53-.48,1.51-.55c.63-.21,1.18-.23,1.24,0s-.35.59-.94.8c-1,.4-2.07.76-3.11,1.09l-3.13,1c-2.1.65-4.21,1.22-6.32,1.81a149.27,149.27,0,0,1-15.25,4,3.32,3.32,0,0,1,1.73,1h0l2.42-.48a243.53,243.53,0,0,0,42.35-16.91c.26-.14.52-.19.58-.11s-.12.26-.37.37c-4.15,2.11-8.3,4.19-12.55,6h0c.2,0,.28.07.12.22a1.49,1.49,0,0,1-.67.29c-.22,0-.25-.09-.12-.22a243.16,243.16,0,0,1-24,9.1,203.89,203.89,0,0,0,22.58-7.13l2.23-1.37a1,1,0,0,1,.64-.13c.1,0,0,.21-.24.33l-.62.37c1.39-.55,2.62-.63,2.82-.15s-.88,1.42-2.33,2c-3.82,1.79-7.74,3.33-11.7,4.73-.42.19-.84.37-1.26.53l-1.23.67a162.13,162.13,0,0,0,18.54-6.5c.5-.26,1-.34,1.09-.18s-.26.51-.76.77a155.45,155.45,0,0,1-15.81,7.6A153.32,153.32,0,0,1,398,144.13l-5.51,2.64c-1.87.86-3.78,1.67-5.72,2.52l1.53-.25a79.77,79.77,0,0,0,17.89-5.62c5.57-2.34,10.89-5,16.56-7.62a.74.74,0,0,1,.63-.09c.06.08-.1.25-.39.37-2.74,1.38-5.41,2.61-8,4s-5.34,2.58-8.22,3.71c-4.74,2-9.37,3.57-13.93,5.31,9.56-2.3,18.24-6.09,27-10a2.64,2.64,0,0,1,1.07-.3c0-.06.06-.13.17-.21a37,37,0,0,1,3.29-2.07,1,1,0,0,1,.69-.18C425.1,136.33,425,136.48,424.76,136.64ZM288.1,109.26V109l.2.55-.18,1.5Zm-9.59-.88h0l.15-.86C278.61,107.87,278.56,108.15,278.51,108.38Zm63.32,18.44a51.38,51.38,0,0,1-12.37-4.63c1,.28,2,.61,3.05.83,1.53.63,3.05,1.32,4.61,2Zm-55.19-25a13.19,13.19,0,0,1,0,3.14,3.63,3.63,0,0,1,1.28.76,34,34,0,0,1,3,2.76c.12-.49.34-.26.5-.22l.46.2c-1-1.1-1.89-2.22-2.81-3.38A23.93,23.93,0,0,1,286.64,101.81Zm-8.45-4.74,0-.22.66-.39Zm-1.1.69.08.21C276.94,98.13,277,98,277.09,97.76Zm.78,1.94a1.54,1.54,0,0,0,.05-.48Zm-12.41,17.72,2.93-2.38-2.9,2.22Z"/><path d="M7.3,145.92l.59,0c-.08.35-.4.6-.86.8a10.52,10.52,0,0,0,6.84-3.4,16.15,16.15,0,0,0,3.92-6.42A2.46,2.46,0,0,0,19,133.76a2.39,2.39,0,0,0-3.33-.65,4.31,4.31,0,0,1-1,.14,22,22,0,0,0-8.7.8L8,134a7.19,7.19,0,0,0-2.48.94l.66.35c-3.27.37-6.11,3.16-6.16,6.12s2.63,5,5.84,4.65Z"/><path d="M15.68,148.49c-1.73.32-3.47.56-5.24.79l-.51-.14,1.28,1.41-.05-.11c.13-2.09,1.61-4,3.09-5.69l.47-.65a1.45,1.45,0,0,0,0-1.19,1.77,1.77,0,0,0-2.41-.66c-.36.18-.71.39-1.06.58-3,.87-6.74,3.62-5.93,7,.2.78,1.06,1.31,1.69,1.93a2.52,2.52,0,0,0,3.44.44,2.39,2.39,0,0,0,.82-3.3l.74-.23-.17.69c-.36-1.09.52-2.06.93-3.1l1-1.11-2.44-1.8-.37.76.32.15a26.6,26.6,0,0,1-2.18,4.29l-.9,2a1.3,1.3,0,0,0,1.3,1.4l1.09,0-.55,0c2-.7,3.92-1.67,5.9-2.3a.67.67,0,0,0,.5-.73A.55.55,0,0,0,15.68,148.49Z"/><path d="M10.37,153.06a1.53,1.53,0,0,0-1.13.35v.29h.82C10.65,153.71,10.65,153.36,10.37,153.06Z"/><path d="M9.24,153.7H8.89l.32.11c0-.05,0-.05,0-.05Z"/><path d="M161.16,103.87c1.13.11,2.26.18,3.37.32l3.35.42,6.69.87,6.65,1.1,3.31.55,3.29.67,6.57,1.34,6.51,1.57,3.25.79c1.08.27,2.14.6,3.22.89l6.41,1.81c.58.15,1.08.22,1.13.1s-.35-.35-.89-.48L207.6,112l-3.22-.9-3.24-.79-6.51-1.59-6.56-1.35-3.29-.68-3.31-.56L174.83,105c-2.23-.32-4.46-.58-6.69-.88s-4.47-.59-6.73-.76a1.92,1.92,0,0,0-1.2.16C160.18,103.68,160.6,103.82,161.16,103.87Z"/><path d="M280.86,154c-.39-.13-.43,0-.1.24a4.74,4.74,0,0,0,1.21.68c.33.11.38,0,.1-.23A4.8,4.8,0,0,0,280.86,154Z"/><path d="M273.86,159.21c-1.05-.47-2.07-.94-3.07-1.35s-2-.75-2.93-1.06a4.78,4.78,0,0,1-1-.48c0,.21-.42.15-1.19-.15a321.52,321.52,0,0,0-48.42-15.07,1.6,1.6,0,0,1-.82.26,17,17,0,0,1-6-.76l-1.75-.55c-1.78-.5-3.59-.88-5.38-1.33s-3.58-.9-5.39-1.25l-5.42-1.1-2.7-.55-2.72-.45a40.76,40.76,0,0,1-5.16-.18c-3.19,0-6.39.11-9.58.14l-9.6.45c.39.17.62.36.61.56s-.48.42-1.09.56a9.85,9.85,0,0,1-2.26.24l-2.6.06c2.48.11,5,.13,7.43.4a9.07,9.07,0,0,1,1,.11c2.73.12,5.49.12,8.3.34a288,288,0,0,1,70.74,12.06,3.74,3.74,0,0,1,1.22.53c.18.17.09.28-.33.16-14.65-3.64-27.75-4.7-44-6.31a221.13,221.13,0,0,0-57.21,1.86,147.75,147.75,0,0,0-28.27,5.77,166.19,166.19,0,0,0-26.57,10.66c-1.5.67-2.91,1.52-4.36,2.27l-4.27,2.28L77,169.78c-1.36.81-2.75,1.56-4,2.46l-1,.65-.49.32-.18.13-.63.47-1.27.92c-.84.62-1.71,1.18-2.51,1.84-1.63,1.26-3.26,2.48-4.92,3.66s-3.19,2.53-4.81,3.77a5.1,5.1,0,0,1-4,1.47,6.57,6.57,0,0,1-4.22-2.21,7.46,7.46,0,0,1-1.92-5.8l-.65.46-1.25.44a5.16,5.16,0,0,1-3.8-.3l-1.65-.68c-2.72-1.59-5.74-2.19-8.48-3.95l-.55-1.06-.4-.1A6,6,0,0,1,27,170.82l-.83-1.15a13.57,13.57,0,0,1-1.88-4.36,4.72,4.72,0,0,1-.9-1.5,6.86,6.86,0,0,1-3.23-3.36.94.94,0,0,1-.77-1.16,1,1,0,0,1,.27-.49h0a9.92,9.92,0,0,0-1-.35c-.37.13-.6.19-.6.19-.93.42-.93.42-1.76.76a5.31,5.31,0,0,1-1.71-.17c-2.28-1.44-2.29-1.44-2.89-2.35a2.29,2.29,0,0,1-.07-.34c-.77.13-.83.14-1,.16a2.58,2.58,0,0,1-.53-.12c-.41-.43-.41-.43-.64-.52a2.25,2.25,0,0,1-.31-.32C9,155,9,155,8.89,154.85a2.1,2.1,0,0,1,0-.38l.36-.66,1.74.58-.17-.53.62.4-.51-.41h.63l-.79-.09a4.81,4.81,0,0,0,1.4-.82,1.93,1.93,0,0,0,.68-.64,1.56,1.56,0,0,1-.25-.23c1.13-.56,1.13-.56,2.24-1.07a3,3,0,0,1,.48.16.57.57,0,0,1,.32-.53l.56-.29.05-.15,0,0,.24-.55,0-.12h0c.16-.38.39-.95,1.08-2.35a7.45,7.45,0,0,1,1-.36l-.42-.05c-.28-.05-.46-.6-.58-.58-.72.14-1.43.32-2.13.53s-1.36.51-2,.8c-1.34.57-2.66,1.22-4,1.85a1,1,0,0,1-1.31.09.82.82,0,0,1,.06-1.23c2.7-6,9.14-9.76,15.48-11,1.51-.58,3-1.19,4.47-1.81l-.34-.11,1.28-.28.12-.06-1.33-.35c-.24,0-.47,0-.71.09a29.17,29.17,0,0,1-5.29,1.71c-1.8.47-3.61.94-5.41,1.54s-3.91.8-5.9,1.27a.85.85,0,0,1-1.14-.24.8.8,0,0,1,.43-1A36.12,36.12,0,0,1,18,132.64a20.91,20.91,0,0,1,9.17-1.75,5.66,5.66,0,0,1,3.13-.8h0l-1-.36c.82-.26,1.58.14,2.39,0l-.83-.83c2-.66,3.93-1.58,5.88-2.37a30.57,30.57,0,0,1,3-1.05,13.65,13.65,0,0,1,3.06-.48,3.34,3.34,0,0,1,.43-.1,23.49,23.49,0,0,1,1.76-2l.49-.46a1,1,0,0,1,.15-.11l.43-.25.87-.49a38.2,38.2,0,0,1,3.73-1.88c-.93.3-1.83.66-2.73,1l-2.65,1s.17-.12.27-.18l.33-.2.68-.41,1.36-.79c.91-.54,1.85-1,2.81-1.48,1.91-.92,3.89-1.8,6-2.61,11.38-4.37,24.9-6.54,31.65-5.37a245.25,245.25,0,0,1,33.55-6.19,268.85,268.85,0,0,1,33.9-1.42,4.19,4.19,0,0,1,2.41.56c.11.26-.66.47-1.82.44a264.89,264.89,0,0,0-48.55,4.62,288.56,288.56,0,0,1,41.22-2c1.77,0,3.55-.07,5.34,0s3.5.23,5.24.43c17.69,1,34.15,4,51.53,8l2.77.63q1.35.38,2.7.72l5.31,1.42c1.76.44,3.47,1,5.18,1.51l5.12,1.56c3.4,1.08,6.75,2.29,10.17,3.44s6.81,2.58,10.34,3.93a282.57,282.57,0,0,1,27.92,13.12,244.2,244.2,0,0,1,25.84,16.33c2.25,1.62,4.12,3.43,4.13,4s-1.84-.29-4.09-1.89a311.29,311.29,0,0,0-27.75-16.68,317.55,317.55,0,0,0-29.49-13.57,301.15,301.15,0,0,0-31.18-10.51,312.27,312.27,0,0,0-33-7.39c-2.43-.44-4.87-.73-7.28-1.09l-3.62-.52c-1.21-.16-2.42-.26-3.63-.39a.43.43,0,0,1,.1.27c0,.36-.51.65-1.3.86l4.1.45c1.36.19,2.72.42,4.08.63l4.09.66,2,.34,2,.41a190.47,190.47,0,0,1,45.68,10.7A236,236,0,0,1,260,137.64a283,283,0,0,1,34.41,18.3,3.34,3.34,0,0,1,1,.79c.1.18-.18.1-.63-.17l-6-3.26-3-1.65-3.06-1.58-6.13-3.16-6.27-3c1.15,1,1.72,1.76,1.41,2.1s-1.5.21-3.15-.33l5.52,3c1.13.61,1.93,1.26,1.79,1.45s-1.12-.14-2.2-.71c-3.75-2-7.47-4-11.31-5.84-1.91-.92-3.79-1.9-5.73-2.76l-5.8-2.61A294.41,294.41,0,0,0,222,128.29a7,7,0,0,1,2.44,2.12h0l4.49,1.38c27.69,7.64,54.5,21.06,78.43,38.55.47.33.82.67.77.76s-.45-.12-.88-.42c-3.64-2.59-7.26-5.22-11-7.62-1.88-1.2-3.71-2.48-5.63-3.61L284.84,156l0,0c.28.24.28.38-.1.24a5.4,5.4,0,0,1-1.19-.72c-.32-.28-.23-.36.09-.24a244.48,244.48,0,0,0-44.88-20.11,257.22,257.22,0,0,1,40.77,19.23c1.48.7,3,1.35,4.47,2.12a3.49,3.49,0,0,1,1,.75c.07.14-.27.06-.68-.16l-1.22-.63c2.41,1.51,4.06,3,3.75,3.43s-2.7-.52-5.21-2c-6.9-3.75-13.81-7.43-20.92-10.69l-2.34-1-2.42-.83A290.76,290.76,0,0,1,287.69,163c.89.52,1.57,1.09,1.49,1.26s-.87-.12-1.77-.64a295.3,295.3,0,0,0-28.58-14,288.87,288.87,0,0,0-30-11c-3.48-.62-7-1.1-10.47-1.63-3.53-.37-7-.81-10.6-1.1.87.19,1.74.42,2.61.64,11.11,2.61,21.43,5.17,31.57,8.25a197.57,197.57,0,0,1,30.21,11.7c.5.24.88.54.89.66s-.37,0-.87-.25a223.32,223.32,0,0,0-29.7-11.39l-6.34-1.94-6.28-1.65-3.09-.79-3.09-.66c-2.06-.43-4.1-.85-6.13-1.23l6.08,1.6,3,.78,3,.87,6,1.7,5.92,1.89,3,.94,2.93,1.05,5.87,2.11c1.94.76,3.87,1.56,5.81,2.34l2.92,1.2c1,.41,1.91.87,2.88,1.3a8.08,8.08,0,0,1,1.7,1,.76.76,0,0,1,.43.06,67.09,67.09,0,0,1,6.33,2.52,3.34,3.34,0,0,1,1.06.69C274.62,159.45,274.33,159.4,273.86,159.21Zm-244.6-12-.24-.08h.65l1.39.73Zm-4.67,9.45h0l-.81-.37Zm96.62-48.2-7.27.82c-1.21.11-2.42.28-3.62.46l-3.62.5c-4.84.55-9.62,1.44-14.5,2.06l6.93-1.68,2.74-.44,2.76-.32,5.52-.61c1.83-.23,3.68-.35,5.53-.46ZM21,146.56a12.58,12.58,0,0,1,3.28.79,5.13,5.13,0,0,1,1.34-1.15,27,27,0,0,1,4.27-2.13c-.44-.3-.09-.45,0-.59l.43-.41c-1.58.61-3.25,1.1-4.86,1.76A40.91,40.91,0,0,1,21,146.56ZM12.76,155l-.23-.05-.22-.76Zm.41,1.26.26-.06C13.54,156.43,13.41,156.4,13.17,156.23Zm2.31-.6a1.3,1.3,0,0,0-.49-.12Zm14.73,16-1.71-3.36,1.57,3.29Z"/><path d="M155.48,165.57l0,.26c-.16,0-.3-.09-.43-.25.64,2.36,3.21,3.23,5.43,3.08a1.1,1.1,0,0,0,1.5-1.61,1.78,1.78,0,0,1-.17-.41,8.55,8.55,0,0,0-1.17-3.5l.21.84a2.63,2.63,0,0,0-.63-.88l-.1.34a2.54,2.54,0,1,0-4.84,1.52Z"/><path d="M155,169.65c-.31-.73-.57-1.47-.83-2.22l0-.25-.53.76.05,0a4.48,4.48,0,0,1,2.85.54l.35.1a.77.77,0,0,0,.54-.2.81.81,0,0,0,.06-1.15l-.35-.37c-.65-1.18-2.17-2.39-3.68-1.57-.34.19-.52.64-.75,1a1.11,1.11,0,1,0,1.66,1.48l.17.3-.33,0c.47-.32,1-.07,1.49,0l.59.27.6-1.35-.38-.05a.85.85,0,0,1,0,.17,10.66,10.66,0,0,1-2.12-.34l-1-.11a.69.69,0,0,0-.54.76l.11.47,0-.25c.49.8,1.11,1.52,1.58,2.32a.28.28,0,0,0,.5-.26Z"/><path d="M152.48,167.91c0-.17-.08-.35-.26-.45l-.14,0,.07.36C152.2,168.12,152.36,168.08,152.48,167.91Z"/><path d="M152.08,167.5l0-.16,0,.16h.05Z"/><path d="M177.19,183.62a38.38,38.38,0,0,0,2.89,3.08s.1,0,.16-.07.07-.14,0-.17c-1-1-2-2-2.87-3.08,0,0-.1,0-.16.06S177.16,183.59,177.19,183.62Z"/><path d="M180,197a.28.28,0,0,0-.14.18c0,.06,0,.1.1.07a.34.34,0,0,0,.13-.18C180.07,197,180,196.94,180,197Z"/><path d="M175.46,202.3a1.76,1.76,0,0,0-.74.07c-.05,0-.07,0-.07-.06a.45.45,0,0,1-.28.21,15.18,15.18,0,0,1-4.83-.84,1.34,1.34,0,0,1-.25.23c-.3.22-.58.25-.71.07l-.07-.17c-.38-.56-.78-1.08-1.15-1.65a.82.82,0,0,1-.54,0,13.68,13.68,0,0,1-2-.08,1,1,0,0,1-.17.3c-.2.24-.44.34-.56.24l-.19-.13c.13.2.26.4.38.6a.15.15,0,0,1,0,.1,6.51,6.51,0,0,0,.6.43,15.19,15.19,0,0,0,6.66,1.63s.09,0,.07.09a.3.3,0,0,1-.15.16c-2,.44-4.09,1.37-5.85,1.28a30.3,30.3,0,0,1-6-.79c-1.46-1.13-3.27-1.59-5.09-2.31a17.91,17.91,0,0,1-1.77-.8,1.84,1.84,0,0,1-.25-.14l-.39-.24-.76-.5-1.5-1c-2-1.37-3.91-2.79-5.85-4.26a3.32,3.32,0,0,1,1.36-6.17l-.34-.29-.42-.61a2.86,2.86,0,0,1-.48-2l.08-.91c.37-1.55.28-3.17.78-4.7l.45-.37v-.21a2.93,2.93,0,0,1,.32-1.72l.45-.52a7,7,0,0,1,1.88-1.38,2.48,2.48,0,0,1,.61-.6A3.45,3.45,0,0,1,150,173.3a.48.48,0,0,1,.47-.5.43.43,0,0,1,.25.07h0a3.35,3.35,0,0,0,.07-.5,2.6,2.6,0,0,1-.15-.25c-.28-.37-.28-.37-.52-.71a2.33,2.33,0,0,1-.08-.8c.46-1.21.46-1.21.83-1.59l.15-.08c-.13-.32-.14-.35-.17-.44a.88.88,0,0,1,0-.25c.16-.24.16-.24.18-.35a1.41,1.41,0,0,1,.13-.18c.32-.15.32-.15.38-.22a1.08,1.08,0,0,1,.18-.06l.33.07-.12.85.23-.15-.13.33.15-.28.05.28,0-.37a2.23,2.23,0,0,0,.49.52.89.89,0,0,0,.36.22.69.69,0,0,1,.08-.14c.36.42.36.42.69.85a1.66,1.66,0,0,1,0,.24.25.25,0,0,1,.27.07l.18.21h.07l0,0,.27,0h.06l1.19.12a2.63,2.63,0,0,1,.28.4l0-.19c0-.14.22-.31.2-.36a17.54,17.54,0,0,0-2.2-3.14.41.41,0,0,1-.15-.56.42.42,0,0,1,.57-.15,9,9,0,0,1,6.54,4.95c.45.53.92,1.05,1.39,1.57v-.17l.3.49,0,0,0-.64-.13-.29a27.06,27.06,0,0,1-2.71-4,23.49,23.49,0,0,1-1.15-2.3.37.37,0,0,1,0-.52.36.36,0,0,1,.51,0c2.28,1.32,4.44,3.4,5,6a2.11,2.11,0,0,1,.76,1.17v0l0-.52c.22.3.15.69.32,1l.26-.53c1.17,1.36,2.77,2.4,3.55,4l.12.16a8.7,8.7,0,0,1,2,.46c-.07-.14-.15-.27-.23-.41a1.38,1.38,0,0,1,1,.28,3.12,3.12,0,0,1,.38,3.37,49.57,49.57,0,0,0,4.53,2.64c.08,0,.07.18,0,.32s-.24.23-.33.2a16.35,16.35,0,0,1-3.68-1.38,15.24,15.24,0,0,0,2.13,2.46l.38.19a.69.69,0,0,1,.26.32,13.17,13.17,0,0,0,3.43,2.26,32.09,32.09,0,0,0,3.52,1.1,12.41,12.41,0,0,1,4.77,1.8c.2.09.17.46-.07.82s-.62.58-.83.48c-3.55-1.06-7.24-1.86-10-4.24l-.86-.77-.1.14a1.91,1.91,0,0,1-.47.44,9.66,9.66,0,0,1,.87,1,6.6,6.6,0,0,1,3.41,1.71,9.17,9.17,0,0,1,1.28,2.47c1,.43,2,.79,3,1.26,0,0,.06.06,0,.14a.22.22,0,0,1-.16.13,14,14,0,0,1-2.56-.33,2.44,2.44,0,0,1-.47.9,2.26,2.26,0,0,1-.81.65l.39.33c.07.08,0,.25-.08.4s-.29.24-.37.18l-1.59-1.35c-.79-.34-1.57-.7-2.32-1.08a3.41,3.41,0,0,1-.39.9h0l.33.21a14,14,0,0,1,6.62,3.23s0,.11,0,.18-.13.11-.16.08A11.78,11.78,0,0,0,180.4,197h0a.28.28,0,0,1-.14.18c-.06,0-.1,0-.09-.06a.25.25,0,0,1,.13-.18,14.73,14.73,0,0,0-3.86-1.62,17,17,0,0,1,2.91,2.3l.53,0c.05,0,.05.08,0,.15s-.11.13-.16.12h-.14c.16.17.07.58-.22,1s-.7.55-.88.39c-.57-.33-1.11-.69-1.64-1.07l-.22-.06-.3.05c.68.77,1.33,1.57,2,2.38.07,0,0,.2-.06.33s-.25.21-.32.16a28.23,28.23,0,0,1-5.11-2.14l-2.74.64a1.14,1.14,0,0,0,.16.15c1.55,1.2,4.12.58,5.88,1.4,0,0,0,.09,0,.16s-.13.12-.17.09a16.71,16.71,0,0,0-3-.46,15.19,15.19,0,0,0-2.54-.28c1.25.73,2.9.86,4.27,1.42.07,0,.1.08.08.17a.23.23,0,0,1,.1-.07,2.69,2.69,0,0,1,.78-.08c.05,0,.07,0,0,.14A.26.26,0,0,1,175.46,202.3Zm-18.27-26.78v-.13l.09.29-.15.75Zm-5-.65h0l.08-.43Zm21,8.75a4.6,4.6,0,0,1-1.41-1.86l.5.24A15.78,15.78,0,0,1,173.27,183.62Zm-16.78-11.93a6,6,0,0,1,0,1.59,2.27,2.27,0,0,1,.68.42,18.3,18.3,0,0,1,1.53,1.52c.07-.25.19-.12.28-.09l.24.11c-.49-.59-1-1.2-1.44-1.83A15.51,15.51,0,0,1,156.49,171.69Zm-4.69-2.46v-.11l.33-.2Zm-.55.35.06.11C151.2,169.77,151.2,169.71,151.25,169.58Zm.5,1a1.05,1.05,0,0,0,0-.24Zm-6,8.83,1.41-1.19-1.39,1.11Z"/></g></g></svg>