<svg xmlns="http://www.w3.org/2000/svg" viewBox="0 0 459.52 430.98"><g id="Layer_2" data-name="Layer 2"><g id="Layer_1-2" data-name="Layer 1"><path d="M156.2,42.83l.58,0c-.07.35-.4.61-.85.8a10.54,10.54,0,0,0,6.84-3.4,16.18,16.18,0,0,0,3.92-6.41,2.46,2.46,0,0,0,1.2-3.18,2.39,2.39,0,0,0-3.33-.65,3.73,3.73,0,0,1-1,.14,22.12,22.12,0,0,0-8.7.8l2-.07a7.12,7.12,0,0,0-2.48.94l.66.35c-3.28.37-6.11,3.16-6.16,6.12s2.63,5,5.84,4.65Z"/><path d="M164.58,45.41c-1.73.31-3.47.55-5.24.79l-.51-.15,1.28,1.41-.06-.11c.13-2.09,1.61-4,3.09-5.68l.48-.66a1.49,1.49,0,0,0,0-1.19,1.78,1.78,0,0,0-2.42-.66c-.36.18-.7.39-1.06.58-3,.87-6.73,3.62-5.92,7,.2.79,1.06,1.32,1.68,1.93a2.52,2.52,0,0,0,3.45.44,2.38,2.38,0,0,0,.82-3.29l.74-.24-.17.7c-.36-1.1.51-2.07.93-3.11l1-1.11-2.44-1.8-.38.76.33.15a25.85,25.85,0,0,1-2.19,4.29l-.89,2a1.29,1.29,0,0,0,1.3,1.39l1.09,0-.55,0c2-.71,3.91-1.67,5.89-2.31a.67.67,0,0,0,.51-.73A.54.54,0,0,0,164.58,45.41Z"/><path d="M159.27,50a1.58,1.58,0,0,0-1.13.35c0,.17,0,.25,0,.3H159C159.55,50.62,159.55,50.27,159.27,50Z"/><path d="M158.13,50.62h-.34l.32.11,0,0Z"/><path d="M310.06.78c1.12.11,2.25.18,3.37.32l3.35.43,6.69.86,6.64,1.1,3.32.55,3.29.67,6.57,1.34,6.51,1.58,3.25.78c1.08.28,2.14.6,3.21.89l6.42,1.81c.58.15,1.07.22,1.13.11s-.35-.35-.89-.49L356.5,8.91,353.28,8,350,7.22l-6.5-1.59L337,4.28l-3.29-.68L330.36,3l-6.63-1.11c-2.23-.32-4.46-.58-6.69-.87s-4.47-.6-6.73-.76a1.87,1.87,0,0,0-1.2.15C309.08.59,309.5.73,310.06.78Z"/><path d="M429.76,50.91c-.39-.13-.43,0-.1.23a4.74,4.74,0,0,0,1.21.68c.33.11.38,0,.1-.23A4.62,4.62,0,0,0,429.76,50.91Z"/><path d="M422.76,56.12c-1.05-.47-2.07-.94-3.07-1.35s-2-.75-2.93-1.06a4.78,4.78,0,0,1-1-.48c0,.21-.42.15-1.19-.15A321.28,321.28,0,0,0,366.18,38a1.56,1.56,0,0,1-.82.26,17,17,0,0,1-5.95-.76L357.66,37c-1.78-.5-3.59-.88-5.38-1.33s-3.59-.9-5.39-1.25l-5.42-1.09-2.7-.55-2.72-.46a40.76,40.76,0,0,1-5.16-.18c-3.2,0-6.39.11-9.58.14l-9.61.45c.4.17.63.36.62.56s-.49.42-1.09.56a10.41,10.41,0,0,1-2.27.25l-2.59,0c2.48.11,5,.13,7.43.4a9.07,9.07,0,0,1,1,.11c2.72.12,5.49.12,8.3.34A287.89,287.89,0,0,1,393.82,47a3.71,3.71,0,0,1,1.23.54c.18.17.09.27-.33.15C380.07,44.07,367,43,350.67,41.4a221.13,221.13,0,0,0-57.21,1.86A147.75,147.75,0,0,0,265.19,49,167.67,167.67,0,0,0,238.61,59.7c-1.5.67-2.91,1.52-4.35,2.26L230,64.24l-4.13,2.45c-1.36.82-2.75,1.56-4.05,2.46l-1,.65-.49.32-.18.13-.63.47-1.27.93c-.84.61-1.71,1.17-2.51,1.83q-2.44,1.89-4.92,3.67c-1.64,1.2-3.19,2.52-4.81,3.76a5,5,0,0,1-4,1.47,6.55,6.55,0,0,1-4.22-2.21,7.42,7.42,0,0,1-1.92-5.8l-.65.47-1.25.43a5.19,5.19,0,0,1-3.81-.3l-1.64-.68c-2.72-1.59-5.74-2.19-8.49-4l-.54-1-.41-.11a6,6,0,0,1-3.2-1.45l-.83-1.15a13.48,13.48,0,0,1-1.88-4.36,5,5,0,0,1-.91-1.5,6.87,6.87,0,0,1-3.23-3.36.93.93,0,0,1-.76-1.16,1,1,0,0,1,.27-.49h0a7.28,7.28,0,0,0-1-.36c-.36.13-.59.19-.59.19-.94.42-.94.42-1.76.76a5,5,0,0,1-1.71-.17c-2.28-1.44-2.29-1.43-2.89-2.35a2.05,2.05,0,0,1-.07-.34l-1,.17a3,3,0,0,1-.53-.13c-.41-.43-.41-.43-.64-.52a2.25,2.25,0,0,1-.31-.32c-.13-.73-.13-.73-.24-.88a2.1,2.1,0,0,1,0-.38l.36-.66,1.74.58-.17-.53.62.4-.51-.41h.63l-.79-.09a4.81,4.81,0,0,0,1.4-.82,2.05,2.05,0,0,0,.68-.63,1.89,1.89,0,0,1-.25-.24c1.13-.56,1.13-.56,2.24-1.07l.48.16a.53.53,0,0,1,.32-.52l.56-.29.05-.16,0,0,.24-.56,0-.12h0c.16-.38.39-1,1.07-2.35a6.7,6.7,0,0,1,1-.35l-.42-.06c-.28-.05-.47-.59-.59-.58-.71.14-1.42.32-2.12.53s-1.36.51-2,.8c-1.34.58-2.66,1.23-4,1.85a1,1,0,0,1-1.32.09.82.82,0,0,1,.07-1.23c2.69-6,9.14-9.76,15.48-11,1.51-.58,3-1.19,4.47-1.81l-.34-.11,1.27-.28.13-.05-1.33-.36c-.24,0-.48.05-.71.09a29.17,29.17,0,0,1-5.29,1.71c-1.8.47-3.61,1-5.41,1.54s-3.91.8-5.9,1.27a.85.85,0,0,1-1.14-.24.81.81,0,0,1,.43-1,36.12,36.12,0,0,1,8.15-5.23,20.91,20.91,0,0,1,9.17-1.75,5.64,5.64,0,0,1,3.13-.8h0l-1-.36c.82-.26,1.58.14,2.39,0l-.82-.83c2-.66,3.93-1.57,5.88-2.37a29.64,29.64,0,0,1,2.95-1.05,13.66,13.66,0,0,1,3.05-.48,3.93,3.93,0,0,1,.44-.1,21.86,21.86,0,0,1,1.76-2l.49-.46.14-.11.44-.25.87-.49a40.58,40.58,0,0,1,3.73-1.88c-.93.3-1.83.66-2.73,1l-2.66,1a2,2,0,0,1,.27-.18l.34-.2.68-.4,1.36-.8c.91-.54,1.84-1,2.8-1.48,1.92-.92,3.9-1.79,6-2.61,11.37-4.37,24.9-6.54,31.65-5.37a245,245,0,0,1,33.55-6.19A270.74,270.74,0,0,1,304.67.06a4.19,4.19,0,0,1,2.41.56c.11.27-.66.48-1.82.44a264.89,264.89,0,0,0-48.55,4.62,288.49,288.49,0,0,1,41.22-2c1.77,0,3.55-.07,5.33,0s3.51.22,5.25.42c17.69,1,34.15,4,51.53,8l2.76.64,2.71.71,5.31,1.42c1.76.45,3.47,1,5.18,1.51L381.12,18c3.4,1.07,6.74,2.28,10.17,3.44s6.81,2.57,10.34,3.93a281.15,281.15,0,0,1,27.91,13.11,244.79,244.79,0,0,1,25.84,16.33c2.26,1.62,4.13,3.43,4.14,4s-1.84-.29-4.1-1.89a313.51,313.51,0,0,0-27.74-16.68,322.62,322.62,0,0,0-29.49-13.57A300.53,300.53,0,0,0,367,16.13a316.58,316.58,0,0,0-32.95-7.39c-2.43-.44-4.87-.72-7.28-1.09l-3.62-.52c-1.21-.15-2.42-.26-3.63-.39a.46.46,0,0,1,.1.28c0,.35-.51.64-1.3.85l4.1.45c1.36.19,2.72.42,4.08.63l4.09.66,2,.34,2,.42a189.34,189.34,0,0,1,45.67,10.7,233.9,233.9,0,0,1,28.53,13.48,283,283,0,0,1,34.41,18.3,3.34,3.34,0,0,1,1,.79c.1.18-.18.1-.63-.16l-5.95-3.27-3-1.65L431.63,47c-2-1.05-4.08-2.11-6.14-3.16l-6.26-3c1.14,1,1.72,1.75,1.41,2.09s-1.5.21-3.15-.33l5.52,3c1.13.61,1.93,1.26,1.79,1.45s-1.12-.14-2.2-.71c-3.75-2-7.48-4-11.31-5.84-1.91-.91-3.79-1.9-5.73-2.76l-5.81-2.61a296,296,0,0,0-28.88-9.88,7.16,7.16,0,0,1,2.44,2.12h0l4.5,1.38c27.69,7.64,54.49,21.06,78.42,38.55.48.34.83.67.78.76s-.46-.11-.88-.42c-3.65-2.59-7.26-5.22-11-7.62-1.88-1.2-3.71-2.48-5.63-3.61l-5.73-3.44,0,0c.28.24.28.37-.1.23a5.4,5.4,0,0,1-1.19-.72c-.32-.28-.23-.35.09-.24a245.16,245.16,0,0,0-44.88-20.11,257.22,257.22,0,0,1,40.77,19.23c1.48.7,3,1.35,4.47,2.12a3.65,3.65,0,0,1,1,.75c.07.14-.27.06-.68-.16L432,53.43c2.42,1.51,4.07,3,3.76,3.43s-2.7-.52-5.21-2c-6.9-3.75-13.81-7.43-20.92-10.69l-2.34-1-2.42-.83A291.69,291.69,0,0,1,436.59,59.9c.89.52,1.57,1.1,1.49,1.26s-.88-.12-1.77-.64a295.22,295.22,0,0,0-28.58-14,286.65,286.65,0,0,0-30-11c-3.48-.62-7-1.09-10.47-1.63-3.53-.37-7-.81-10.6-1.1.87.19,1.73.42,2.6.64,11.12,2.62,21.43,5.17,31.58,8.26a196.37,196.37,0,0,1,30.2,11.69,2.06,2.06,0,0,1,.9.66c0,.12-.37,0-.88-.25a222.66,222.66,0,0,0-29.69-11.39L385,40.49l-6.27-1.65-3.09-.79-3.09-.66c-2.06-.43-4.1-.85-6.13-1.23l6.08,1.61,3,.77,3,.87,6,1.7L390.47,43l3,1,2.93,1,5.87,2.11c1.94.76,3.87,1.56,5.81,2.35L411,50.64c1,.42,1.92.87,2.88,1.31a7.24,7.24,0,0,1,1.7.95A.79.79,0,0,1,416,53a64.65,64.65,0,0,1,6.33,2.53,3.12,3.12,0,0,1,1.05.68C423.52,56.36,423.23,56.31,422.76,56.12Zm-244.6-12-.25-.09h.65l1.4.73Zm-4.67,9.44h0l-.81-.37Zm96.62-48.2-7.27.82c-1.21.11-2.42.29-3.62.46l-3.62.5c-4.85.55-9.63,1.44-14.5,2.06L248,7.49l2.74-.43,2.76-.33,5.52-.61c1.83-.23,3.68-.34,5.53-.45ZM169.88,43.47a12.42,12.42,0,0,1,3.27.8,5.19,5.19,0,0,1,1.35-1.16A27,27,0,0,1,178.77,41c-.44-.3-.09-.44,0-.59l.43-.4c-1.58.6-3.25,1.09-4.86,1.75A40.91,40.91,0,0,1,169.88,43.47Zm-8.22,8.41-.23-.05-.22-.76Zm.41,1.27.26-.07C162.43,53.34,162.31,53.31,162.07,53.15Zm2.31-.61a1.58,1.58,0,0,0-.5-.12Zm14.73,16-1.71-3.36L179,68.44Z"/><path d="M331.2,53.5l-.58-.28c.13-.18.49-.2,1-.11a10.32,10.32,0,0,0-7.09-.49,9.44,9.44,0,0,0-2.45,1.16,7.13,7.13,0,0,0-1.61,1.49c-1.15.11-1.56.73-1.14,1.3a2.41,2.41,0,0,0,1.1.73,4.41,4.41,0,0,0,1.62.29,5.55,5.55,0,0,1,.89.2c.61.24,1.19.47,1.81.69l1.94.65,2,.67c.7.22,1.4.43,2.12.67-.63-.29-1.28-.57-1.9-.82a19.41,19.41,0,0,0,2.44.62l-.59-.48c3.14,1.3,6.41,1.69,7.07.21s-1.79-4.53-5.11-5.89Z"/><path d="M323.46,48.94a24.7,24.7,0,0,1,2.56.46c.87.19,1.73.4,2.62.66l.47.29-1-1.41,0,.09c-.42,1.37-2.22,2-3.78,2.64l-.52.27a.64.64,0,0,0-.11.73,2.55,2.55,0,0,0,2.16,1.06l1.07,0a23.14,23.14,0,0,0,2.35.3,12.25,12.25,0,0,0,2.28,0c1.42-.18,2.46-.7,2.33-2.05-.06-.61-.85-1.41-1.37-2.13a3.85,3.85,0,0,0-3.39-1.78c-1.32.1-1.86,1-1.34,1.92l-.75-.1.27-.4c.2.85-.81,1.17-1.37,1.68l-1.06.38L327,53.41l.46-.32a2.86,2.86,0,0,1-.29-.21,15.17,15.17,0,0,1,2.78-1.82l1.24-.94c.2-.47-.28-1.15-1.06-1.51L329,48.2l.55.25a53.73,53.73,0,0,0-6.11-.32c-.32,0-.57.14-.57.37S323.13,48.91,323.46,48.94Z"/><path d="M329.33,47.52a2.12,2.12,0,0,0,1.19.2l.05-.21-.82-.33C329.16,46.94,329.09,47.2,329.33,47.52Z"/><path d="M330.57,47.51l.35.15-.31-.21,0,0Z"/><path d="M339.66,197.23c-1,24.83-2.15,49.81-3.7,74.78,0,.83,0,1.54.21,1.58s.34-.6.37-1.38c1.61-25,2.79-49.83,3.78-74.66a2.71,2.71,0,0,0-.31-1.64C339.83,195.86,339.68,196.45,339.66,197.23Z"/><path d="M317,383.46c-.06-.59-.17-.57-.26,0a9.34,9.34,0,0,0-.07,2.06c.05.5.17.48.25-.05A10.35,10.35,0,0,0,317,383.46Z"/><path d="M308.78,378c-.28-3.5-.59-6.82-1-9.78a9.21,9.21,0,0,1,0-1.64c-.18.2-.38-.46-.51-1.73C304.58,340,302.7,313.32,301,287a2.48,2.48,0,0,1-.65-1.12,29.21,29.21,0,0,1-1.11-9.27l.11-2.86c.17-11.55.39-23.07.8-34.56a70.5,70.5,0,0,1-.63-8.05c-.9-9.95-1.71-19.93-2.25-30.14-.21.64-.46,1-.72,1-.63-.2-1.09-2.57-1-5.33,0-1.39.07-2.77.17-4.16-.46,4-.55,8-.8,11.95a14.83,14.83,0,0,1-.13,1.59c-.08,4.37-.08,8.79,0,13.28.43,39.22,4,76.09,7.75,112.67a7.21,7.21,0,0,1,0,2.07c-.1.36-.26.29-.36-.38-3.49-23.07-8.22-43.05-11-69.14-1.63-15.52-3-30.95-4-46.49-.27-3.88-.52-7.77-.71-11.67-.1-2-.2-3.91-.31-5.86s-.23-3.92-.21-5.88A57.63,57.63,0,0,1,291.11,171c4-8.29,9-16.37,12.81-24.51,1-2.08,1.81-4,2.71-6.34l.63-1.67c.23-.65.48-1.17.68-1.63.41-.92.82-1.69,1.13-2.48a15.71,15.71,0,0,0,1.2-9.44,13.07,13.07,0,0,0-1.74-4.35c-.44-.69-.94-1.4-1.62-2.36a19.45,19.45,0,0,1-2.19-4,16.69,16.69,0,0,1-1.06-5.25,17.92,17.92,0,0,1,.56-5.16,23.75,23.75,0,0,1,4-7.76,13.46,13.46,0,0,0,1-1.58.09.09,0,0,1,0-.06h0l.1.06.34.18a6.88,6.88,0,0,0,.74.32l.39.13a1,1,0,0,1,.19.08,3,3,0,0,0,.67.17l0,0h-.21l-.3,0c-.06,0-.24,0-.2,0l.1,0c.06,0,0,0-.4.18l-.3.17-.36.24c-.16.1-.31.21-.46.32l-.1.09h0s-.05-.15-.18-.3a2.53,2.53,0,0,0-.23-.26c-.41-.36-.74-.7-1.14-1-.8-.6-1.58-1.2-2.3-1.82a22,22,0,0,1-3.72-3.68,9.72,9.72,0,0,1-1.75-4.14A3.79,3.79,0,0,1,300,84c0-.42,0-.83,0-1.24a11,11,0,0,1,.53-2.26,9.81,9.81,0,0,1,1.49-2.65c.16-.2.27-.42.46-.62l.61-.58a16.47,16.47,0,0,1,1.41-1.11c.24-.18.51-.36.79-.53a7.27,7.27,0,0,1,.87-.49c.67-.28,1.33-.56,2-.87,1.33-.56,2.83-1,4.21-1.42l2.07-.69c.43-.16.64-.25.94-.38a9.13,9.13,0,0,0,1.34-.68,1.16,1.16,0,0,0,.27-.24h0l.08.1c.18.24.46.52.58.7s.33.38.51.56l.28.26.2.2a3.94,3.94,0,0,0,.45.36c.17.12.21.17.34.25s.28.14.31.17l.19.09c.13,0,.2,0,.11,0a1.2,1.2,0,0,0-.34.11,2.16,2.16,0,0,0-.6.33,4.87,4.87,0,0,0-.86.63l-.18.18-.28.24a6.51,6.51,0,0,0-.54.51c-.17.18-.34.36-.49.55s-.16.19-.28.31,0,0-.06,0l-.09,0-.38-.07c-.65-.16-1.65-.4-2.73-.58-.55-.1-1.07-.2-1.74-.28l-2-.07c-.68-.05-1.37-.2-2.06-.3a76.37,76.37,0,0,1-8.85-1.95l-1.67-1a4.6,4.6,0,0,0-.44-.25l-.54-.2-1.09-.39a8.67,8.67,0,0,1-1.06-.42l-.74-.56c-.48-.38-1-.75-1.44-1.13s-.93-.76-1.35-1.15l-.44-.4-.58-.51c-.79-.69-.48-1.59-1.36-2.26l-.49-.53a2.18,2.18,0,0,1-.44-.54l-.66-1.12L285.7,61c-.17-.38-.49-.79-.72-1.19-.65-.8.08-1.59-.74-2.49l-.38-.66a4.82,4.82,0,0,1,0-.65l.06-.65a.59.59,0,0,0-.09-.35l-.16-.37c-.18-.49-.56-1-.31-1.44l.17-.68.08-.34a1.09,1.09,0,0,0-.06-.39c-.12-.53-.27-1.06-.37-1.58l.57-1.36.14-.34a1.68,1.68,0,0,0,0-.39l0-.8a14.25,14.25,0,0,1,0-1.6l.1-1.61,0-.41c0-.14.14-.21.2-.32l.49-.61,1-1.22a11,11,0,0,0,.56-1.46l.52-1.48,0-.1v0a.53.53,0,0,0-.06-.1l-.25-.42-.13-.2c0-.06,0-.08,0-.11l.09-.21.35-.8.35-.81.27-.7.54-1.32c.35-.85.73-1.73,1.11-2.56s.59-1.36.91-2a19.74,19.74,0,0,1,1-1.81,12.45,12.45,0,0,1,2.06-2.62c1.34-1.28,2.7-1.68,3.69-.95,1.19.89,1.54,3.11,1.13,5.54l.64-1c.4-.45.8-.93,1.2-1.35,1.14-1.18,2.36-1.94,3.46-1.87h1.43c2.32.53,5.1.33,7.47,1.74l.38,1,.37.05a3.72,3.72,0,0,1,2.85,1.17l.64,1.14a12.08,12.08,0,0,1,1.22,4.22,4,4,0,0,1,.65,1.41,5.65,5.65,0,0,1,2.64,3.22.79.79,0,0,1,.57,1.07,1,1,0,0,1-.33.37h0c.35.19.45.24.89.44.37,0,.6,0,.6,0a16.94,16.94,0,0,1,1.84-.24,5.89,5.89,0,0,1,1.66.59c2,1.84,2.05,1.88,2.51,2.8,0,.1,0,.2,0,.29.78.17.84.2,1.06.26a3,3,0,0,1,.51.31c.34.49.34.49.56.66a2.62,2.62,0,0,1,.26.37c0,.6,0,.6.1.76a1,1,0,0,1,0,.29l-.47.33C329,46.34,329,46.33,329,46.33l.08.45-.56-.52.45.49-.64-.24.79.37a4.21,4.21,0,0,0-1.54.07,1.52,1.52,0,0,0-.77.22c.13.15.2.25.2.25l-2.32.07c-.17-.08-.31-.16-.45-.24,0,.15-.16.26-.38.28l-.59,0-.07.09,0,0-.29.32-.06.07h0c-.2.21-.49.53-1.29,1.33-.33,0-.68,0-1,0l.38.1c.25.08.36.46.47.47,1.36.09,2.7.15,4,.17s2.76.08,4.19.22a1.54,1.54,0,0,1,1.33.5c.3.37.17.7-.28.76a10.15,10.15,0,0,1-3.23,1.44,23.34,23.34,0,0,1-3.84.73c-2.7.32-5.46.43-8,.51-.57.08-1.14.21-1.69.33l-1.51.36.23.06c-.25,0-.61,0-.56.15v0h.2l.39.08h.47a17.82,17.82,0,0,1,3.89-.46c.76,0,1.46,0,2.24,0l2.38.11a15.58,15.58,0,0,1,2.67.37l2.77.61a1.37,1.37,0,0,1,1,.54c.14.26-.11.44-.53.4-1.25.14-2.45.16-3.77.24-.64,0-1.23,0-1.88,0l-1,0h-.89c-1.25,0-2.38-.08-3.51-.13L315,57a3.29,3.29,0,0,1-.36-.07c-.1,0-.29-.06-.31,0l-.11.06a1.53,1.53,0,0,1-.84.31h0l.49.08c-.18.11-.61,0-.81.14l.61.2a1.53,1.53,0,0,0-.46,1.3c0,.46.22.84.25,1.2l.05.08c.35.12.68.21,1,.3l.21.06.06,0,.17.09.34.16c.46.21.92.39,1.39.59a16.07,16.07,0,0,1-1.67-.91c.65.3,1.35.55,2,.78l.24.09.13,0,.05,0,.12.08,2,1.29c.68.46,1.38.91,2.14,1.47a24,24,0,0,1,2.48,2l.46.44c.16.16.34.36.51.55a9.79,9.79,0,0,1,1,1.36,6.58,6.58,0,0,1,.51.93,6,6,0,0,1,.42,1.1,8.82,8.82,0,0,1,.27,1.26,10.14,10.14,0,0,1,0,1.35,7.44,7.44,0,0,1-1.79,4.33,10.13,10.13,0,0,1-2.3,2,24.39,24.39,0,0,1-3.64,1.78c-.52.21-1.22.47-1.16.46-.12,0-.24.07-.36.1a11.38,11.38,0,0,0-1.46.55A1.55,1.55,0,0,0,316,83a1.62,1.62,0,0,1-.1.18,1.15,1.15,0,0,1,0,.19.75.75,0,0,0,.1.36,4.86,4.86,0,0,0,1,1l.28.24.14.13.06.06,0,0-.05,0s0,0,0,0l.17.14a15.59,15.59,0,0,1,2.66,2.62,12.28,12.28,0,0,1,2,3.71,11.55,11.55,0,0,1,.47,2,16,16,0,0,1,.09,2.06,13.61,13.61,0,0,1-.29,2,13.33,13.33,0,0,1-.57,1.72,11.8,11.8,0,0,1-.7,1.38c-.24.38-.48.75-.71,1.08a28.11,28.11,0,0,1-2.11,2.76c-.58.72-1.1,1.31-1.47,1.83a6.31,6.31,0,0,0-1.3,2.82,4.5,4.5,0,0,0,0,1.36,5.24,5.24,0,0,0,.63,1.7c.78,1.5,2,3.54,2.95,5.58a55,55,0,0,1,4.12,12.94c.44,2.23.71,4.55,1,6.72l.18,1.56c.07.53.16.84.26,1.32.19.9.44,1.79.65,2.67.51,1.91,1.06,3.85,1.67,5.77s1.3,3.89,2,5.84c1.4,3.88,3,7.81,4.43,11.7a98.71,98.71,0,0,1,6.26,23.36c.22,1.6.05,3-.28,3.31s-.71-.9-.89-2.5a98.9,98.9,0,0,0-3.92-16.79c-1.8-5.63-4-11.26-6-16.92-1-2.81-1.91-5.65-2.73-8.46-.41-1.39-.78-2.79-1.12-4.19l-.26-1.05-.22-1c-.15-.65-.29-1.31-.42-2-.26-1.15-.34-2.8-.51-4.39s-.37-3.23-.67-4.84a52.47,52.47,0,0,0-2.55-9.41,50.74,50.74,0,0,1,2.16,7.84,66.23,66.23,0,0,1,1,8c.05.66.08,1.28.15,1.86s.16,1.06.25,1.62c.21,1.12.39,2.15.66,3.37.51,2.37,1.05,4.71,1.71,7.11,2.5,9.54,5.88,19.2,7.52,28.89.5,2.48.88,5,1.19,7.46a45,45,0,0,1,.23,7.33c-.09,12.38-.43,24.44-.7,36.58s-.52,24.33-.66,37c-.25,21.59-.67,40.49-1.64,62-1.42,30.2-3.95,57.7-9.74,87.51a44.46,44.46,0,0,1-2,8.09c-.35.48,0-2.4.64-6.38,2.48-15.54,4.13-31,5.39-46.52s2.1-31,2.73-46.59c1.26-31.18,1.81-62.73,2.85-95.25.21-7,.41-13.91.61-20.77a.66.66,0,0,1-.36.17c-.48,0-.92-.67-1.28-1.77q-.39,11.69-1.06,23.53c.51,21.93.65,43.9-1,67.27-1.16,16-2.9,30.58-4.54,45.42-.78,18.82-1.79,37.58-3.59,56.58a8.8,8.8,0,0,1-.28,1.82c-.11.27-.14-.13-.09-.9.85-13.07,1.38-26.47,1.76-40-.5,2.13-1.05,3.4-1.55,3.22s-.9-1.83-1.13-4.36L319,371c-.11,1.9-.38,3.39-.62,3.33s-.4-1.55-.32-3.35q.75-18.76,1.49-37.47c.14-15,.21-29.92.25-44.93a10.89,10.89,0,0,1-1.85,4.32h0c0,2.32-.05,4.64-.07,6.95q.9,31.82.27,64.3t-2.9,65.28A7,7,0,0,1,315,431a6.57,6.57,0,0,1,0-1.42q1.23-19.8,1.94-39.51v.06c-.08.53-.19.62-.24,0a11.91,11.91,0,0,1,.08-2.06c.09-.6.2-.55.24,0,.87-24.47,1.07-48.77.6-72.75q-.43,33.42-1.66,66.8c.06,2.43.11,4.85.16,7.32a8.27,8.27,0,0,1-.18,1.81c-.09.19-.17-.3-.17-1s0-1.36,0-2c-.16,4.21-.65,7.45-1.11,7.38-.48-.24-.83-3.86-.78-8.24q0-17.58.07-35.07l-.09-3.79c-.11-1.28-.21-2.54-.32-3.81-.38,18.15-.73,36.28-.87,54.3a7.68,7.68,0,0,1-.26,2.89,6.82,6.82,0,0,1-.33-2.77c-1.1-31.76-2.38-63.92-3.13-96.21-1.38-10.62-2.86-21.26-4.35-32.11,0,1.36,0,2.75,0,4.13.18,17.55,1.45,33.79,2.7,49.88s2.47,32.05,3.07,49a4.21,4.21,0,0,1-.14,1.67c-.1.09-.22-.49-.24-1.35-.72-16.59-2.11-31.74-3.31-48.21-1-13.64-1.91-26.61-3.14-39.29.83,25.91,3.05,50.77,4.39,76.43a15.14,15.14,0,0,1,0,3,1.26,1.26,0,0,1,.18.63c.42,3.21.75,6.71,1,10.29a7.14,7.14,0,0,1,0,1.9C309,379.21,308.86,378.79,308.78,378Zm2.5-329.21.2,0-.54.07-1.12-.27S310.52,48.71,311.28,48.82Zm4.86-6.88h0l.71.31Zm7.4,99.63c-.14-.8-.28-1.6-.36-2.36l-.21-2.7c-.13-1.89-.32-3.83-.64-5.73a49.36,49.36,0,0,0-3.1-11,46.37,46.37,0,0,0-2.49-5.1,13.5,13.5,0,0,1-1.73-3.74,4.29,4.29,0,0,1,0-1.35,6.68,6.68,0,0,1,.34-1.45,8.93,8.93,0,0,1,1.73-2.74,9.27,9.27,0,0,0-1.62,2.7,5.7,5.7,0,0,0-.28,2.67c0,1.12,1.69,3.53,2.95,6.15a48.34,48.34,0,0,1,3.1,8.12,52.17,52.17,0,0,1,1.62,8.6c.16,1.45.23,2.91.32,4.29,0,.67.07,1.38.15,1.91S323.44,141,323.54,141.57Zm-5.15-92.28a22.23,22.23,0,0,1-2.82-.73,5.26,5.26,0,0,1-1.26.7c-1.21.53-2.44,1-3.55,1.53.35.12.07.24,0,.34s-.23.18-.33.28c.62-.26,1.25-.5,1.88-.71s1.37-.42,2.06-.6,1.32-.34,2-.49A11.61,11.61,0,0,1,318.39,49.29Zm8.86-4,.22.12.1.63Zm-.2-1.08-.27,0C326.72,43.91,326.84,44,327.05,44.18ZM324.68,44a3,3,0,0,0,.45.22ZM312.76,28.73l1.18,3.19-1.06-3.13Z"/><path d="M67.43,163.45c.2,0,.41.11.61.16a1.59,1.59,0,0,1-1.12.61c5.91.77,11-3,14.07-6.83,1.47-.35,2.48-1.47,2.25-2.61s-1.67-1.87-3.21-1.53a5.37,5.37,0,0,1-1.11-.13A19.44,19.44,0,0,0,74.48,152a31.18,31.18,0,0,0-4.88-.21l2.16.4a10,10,0,0,0-2.91.31l.6.5c-3.6-.45-7.52,1.62-8.42,4.59s1.39,5.47,4.85,5.73Z"/><path d="M75.37,167.85c-1.86-.1-3.72-.27-5.62-.44l-.48-.25.93,1.64,0-.12c.71-2,2.78-3.54,4.8-4.72l.68-.52a1.41,1.41,0,0,0,.32-1.16,1.8,1.8,0,0,0-2.28-1.18l-1.27.28a12.35,12.35,0,0,0-5.33,1.47A5.07,5.07,0,0,0,64.27,167c0,.81.76,1.5,1.24,2.23A2.65,2.65,0,0,0,69,170.32a2.5,2.5,0,0,0,1.74-3l.83-.06c-.13.21-.25.42-.37.63-.08-1.14,1.11-1.87,1.83-2.77.44-.28.88-.58,1.33-.83l-2-2.32-.62.65c.11.09.3.21.29.22a31.66,31.66,0,0,1-3.49,3.65L67,168.27a1.23,1.23,0,0,0,1,1.63l1.14.18-.55-.16c2.23-.33,4.47-.76,6.66-.93a.74.74,0,0,0,.73-.58A.57.57,0,0,0,75.37,167.85Z"/><path d="M68.68,171.11a1.76,1.76,0,0,0-1.25.12c-.05.17-.07.25-.08.29l.84.17C68.8,171.81,68.89,171.46,68.68,171.11Z"/><path d="M67.35,171.52l-.35-.07.3.17,0,0Z"/><path d="M165.58,159.69q11.43,3.59,22.27,8.17c.24.1.47.1.52,0s-.12-.27-.34-.36q-10.84-4.63-22.27-8.24c-.26-.07-.49,0-.55.09S165.34,159.62,165.58,159.69Z"/><path d="M214.44,191.54c-.18,0-.23.07-.1.23a.9.9,0,0,0,.52.29c.16,0,.22-.1.11-.23A.94.94,0,0,0,214.44,191.54Z"/><path d="M209.41,197.71a15,15,0,0,0-2.74-.64.8.8,0,0,1-.41-.21c0,.18-.26.23-.61.15-6.89-1.65-14-3.66-21.17-4.91a.93.93,0,0,1-.43.33,3.58,3.58,0,0,1-2.63-.06l-.71-.31c-2.94-1.05-5.91-2-8.88-2.9a9.26,9.26,0,0,1-2.23,0l-8.31.42a.62.62,0,0,1,.17.53c-.14.44-.82.68-1.53.59l-1.09-.08c1,.2,2,.44,3,.7a1.57,1.57,0,0,1,.4.13l3.46.44c5.16.54,10.23,1.11,15.29,1.73,2.53.29,5,.69,7.57,1s5,.82,7.52,1.35a.72.72,0,0,1,.51.23c.06.12,0,.22-.2.21-6.65-.49-12.68.42-19.73.3a169.36,169.36,0,0,0-24.54,1.44c-8.21-.19-15.76,1.61-23.47,4-2.85.91-5.6,1.81-8.24,2.79-5.42,2.12-10.43,4.19-15.19,6.6a3.73,3.73,0,0,1-3.68.49,6.24,6.24,0,0,1-3.17-3.12,7.68,7.68,0,0,1-.47-6l-.68.28-1.2.11a4.59,4.59,0,0,1-3.31-1.16l-1.34-1c-2.14-2.18-4.79-3.47-7-5.79l-.29-1.14-.36-.2A6.17,6.17,0,0,1,81,191.93l-.56-1.3A13.11,13.11,0,0,1,79.6,186a4.76,4.76,0,0,1-.53-1.65,6.79,6.79,0,0,1-2.38-4,.92.92,0,0,1-.47-1.3,1.1,1.1,0,0,1,.39-.41h0a8.62,8.62,0,0,0-.89-.57l-.65.05-1.94.39a5.28,5.28,0,0,1-1.67-.52c-1.95-1.87-2-1.86-2.36-2.89,0-.11,0-.23,0-.34-.81,0-.87,0-1.1,0a2.34,2.34,0,0,1-.51-.22c-.31-.51-.31-.51-.53-.64a3.37,3.37,0,0,1-.24-.38c.06-.75.06-.75,0-.92a1.57,1.57,0,0,1,.05-.37l.54-.59,1.63.92,0-.56.54.52L69,172l.65.13-.79-.25a5.41,5.41,0,0,0,1.64-.53,2.52,2.52,0,0,0,.86-.48,2.57,2.57,0,0,1-.19-.29c1.31-.28,1.31-.28,2.58-.51a3.81,3.81,0,0,1,.45.26.58.58,0,0,1,.47-.43l.65-.15a1.13,1.13,0,0,0,.1-.13l0-.05.39-.47.08-.11h0c.28-.31.69-.77,1.76-2a9.41,9.41,0,0,1,1.15-.1,3.39,3.39,0,0,1-.41-.15c-.27-.11-.3-.68-.42-.69a37.13,37.13,0,0,0-9.28,1.18,1.09,1.09,0,0,1-1.38-.17.84.84,0,0,1,.4-1.21,19.25,19.25,0,0,1,8.71-5.53,26.25,26.25,0,0,1,10.44-1.14c1.7-.18,3.38-.32,5.06-.46l-.3-.2,1.37.11h.14l-1.21-.71-.74-.12a46,46,0,0,1-5.87.17c-2-.08-4-.13-6,0-2.19.07-4.26-.2-6.46-.21a.88.88,0,0,1-1.11-.49c-.1-.38.26-.79.77-.91,6.2-2.86,14-4.11,19.94-1.94a6.25,6.25,0,0,1,3.41.24h.06L95,154c.92,0,1.53.59,2.38.72l-.54-1c4.41-.11,9-.9,13.09.2l.46.05a13.08,13.08,0,0,1,5.73-1.84c-.88-.08-1.76-.11-2.62-.18a18.35,18.35,0,0,1,5.64-.89,24.3,24.3,0,0,1,4.15.3,28.65,28.65,0,0,1,4,.87,16,16,0,0,1,6.14,3.19,191.22,191.22,0,0,1,29.89,3.35c.5.08.92.37,1,.63s-.36.42-.87.34c-7-.8-14.21-1.54-21.44-1.84,6,1.09,11.92,2.43,17.87,3.76l2.3.41a12.59,12.59,0,0,1,2.23.64c7.55,1.82,14.51,4.08,22,6.3,6.41,1.93,11.94,3.85,18.16,6.29,8.7,3.46,16.47,7.24,24,12.74,1,.69,1.77,1.65,1.64,2.11s-1.06.29-2.08-.38a171.86,171.86,0,0,0-25.6-12.72c-8.86-3.6-18-6.64-27.57-9.68-2.07-.61-4.1-1.29-6.16-1.83a.76.76,0,0,1,0,.26,1.17,1.17,0,0,1-.71.77c2.32.63,4.6,1.47,6.88,2.28a76,76,0,0,1,19.61,6c2.22,1,4.24,2.27,6.22,3.43s3.84,2.45,5.71,3.75a146.1,146.1,0,0,1,15.25,7.69.71.71,0,0,1,.41.39c0,.12-.13.13-.34,0-3.6-1.65-7.3-3.28-11-4.85.42.59.57,1.13.33,1.5s-.87.52-1.65.42l2.38,1.32c.48.28.79.65.67.84s-.59.16-1.06-.1c-1.62-.88-3.23-1.77-4.88-2.58s-3.27-1.67-5-2.44c-4.1-1.64-8.27-3.05-12.47-4.42a2.94,2.94,0,0,1,.78,1.61h0l1.91.68a106.6,106.6,0,0,1,34.39,15.93c.22.14.35.32.3.4s-.25,0-.44-.09a112.83,112.83,0,0,0-9.85-6.12h0c.1.13.07.24-.11.22a1,1,0,0,1-.53-.29c-.12-.15-.05-.24.11-.23a105.38,105.38,0,0,0-19.66-8.23,121.75,121.75,0,0,1,17.55,8.48l2,.71a.7.7,0,0,1,.4.37c0,.1-.17.12-.35,0l-.57-.21c1.05.64,1.67,1.46,1.4,1.91s-1.44.28-2.54-.34c-1.5-.77-3-1.54-4.52-2.25s-3-1.49-4.56-2.17l-1-.37-1.11-.22c4.67,2.34,9.16,5,13.53,7.72.39.22.64.54.56.7s-.47.12-.86-.1a209.86,209.86,0,0,0-25.52-9.68l-4.71-.1-4.75.09,1.09.35c4.67,1.29,9.14,2.16,13.62,3.09a71.26,71.26,0,0,1,13.32,4c.22.08.37.24.35.34s-.21.11-.43,0a89.35,89.35,0,0,0-13.12-3.82c-1.87-.46-3.72-.82-5.51-1.19s-3.61-.57-5.39-.77c6.9,1.81,13.79,3.23,20.52,5.82a1.41,1.41,0,0,1,.7.44.26.26,0,0,1,.23,0,21.72,21.72,0,0,1,2.88.68.6.6,0,0,1,.43.33C209.77,197.73,209.62,197.76,209.41,197.71ZM89.34,170l-.21-.14.63.16,1.15,1Zm-7.28,7.73h0l-.7-.55Zm65.67-17.8c-2.14-.27-4.26-.63-6.39-.95-1.07-.18-2.13-.37-3.2-.59s-2.14-.4-3.21-.65h3.14c1.63.31,3.24.65,4.86,1S146.13,159.54,147.73,159.94Zm-66.46,7.31a12.44,12.44,0,0,1,3,1.59A5.77,5.77,0,0,1,86,168.1a42.77,42.77,0,0,1,4.88-.87c-.34-.38,0-.43.22-.54l.55-.26c-1.75.13-3.52.26-5.35.36A49.73,49.73,0,0,1,81.27,167.25Zm-10.64,6.22-.22-.1,0-.79Zm.11,1.33.27,0C71.05,175.06,70.93,175,70.74,174.8Zm2.47-.14a1.52,1.52,0,0,0-.46-.22Zm10.68,18.75L83,189.79l.77,3.52Z"/><path d="M7.3,258.09l.59,0c-.08.35-.4.6-.86.8a10.52,10.52,0,0,0,6.84-3.4,16.15,16.15,0,0,0,3.92-6.42A2.46,2.46,0,0,0,19,245.93a2.39,2.39,0,0,0-3.33-.65,4.31,4.31,0,0,1-1,.14,22,22,0,0,0-8.7.8l2-.07a7.19,7.19,0,0,0-2.48.94l.66.35c-3.27.37-6.11,3.16-6.16,6.12s2.63,5,5.84,4.65Z"/><path d="M15.68,260.66c-1.73.32-3.47.56-5.24.8l-.51-.15,1.28,1.41-.05-.11c.13-2.09,1.61-4,3.09-5.69l.47-.65a1.45,1.45,0,0,0,0-1.19,1.77,1.77,0,0,0-2.41-.66c-.37.18-.71.39-1.06.58-3,.87-6.74,3.62-5.93,7.05.2.79,1.06,1.31,1.68,1.93a2.54,2.54,0,0,0,3.45.44,2.38,2.38,0,0,0,.82-3.29l.74-.24-.17.7c-.36-1.1.52-2.07.93-3.11l1-1.11-2.44-1.8-.37.76.32.15a26.6,26.6,0,0,1-2.18,4.29l-.9,2a1.3,1.3,0,0,0,1.3,1.4l1.09,0L10,264.1c2-.7,3.92-1.66,5.9-2.3a.67.67,0,0,0,.5-.73A.55.55,0,0,0,15.68,260.66Z"/><path d="M10.37,265.23a1.53,1.53,0,0,0-1.13.35v.3h.82C10.65,265.88,10.65,265.53,10.37,265.23Z"/><path d="M9.24,265.88H8.89l.32.11c0-.05,0-.05,0-.05Z"/><path d="M161.16,216c1.13.11,2.26.18,3.37.32l3.35.43,6.69.86,6.65,1.1,3.31.55,3.29.67,6.57,1.34,6.51,1.57,3.25.79c1.08.28,2.14.6,3.22.89l6.41,1.81c.58.15,1.08.22,1.13.1s-.35-.35-.89-.48l-6.42-1.82-3.22-.9-3.24-.79-6.51-1.59-6.56-1.35-3.29-.68-3.31-.56-6.64-1.11c-2.23-.32-4.46-.58-6.69-.88s-4.47-.59-6.73-.75a1.87,1.87,0,0,0-1.2.15C160.18,215.85,160.6,216,161.16,216Z"/><path d="M280.86,266.17c-.39-.14-.43,0-.1.23a4.74,4.74,0,0,0,1.21.68c.33.11.38,0,.1-.23A4.47,4.47,0,0,0,280.86,266.17Z"/><path d="M273.86,271.38c-1.05-.47-2.07-.94-3.07-1.35s-2-.75-2.93-1.06a4.78,4.78,0,0,1-1-.48c0,.21-.42.15-1.19-.15a321.52,321.52,0,0,0-48.42-15.07,1.6,1.6,0,0,1-.82.26,17,17,0,0,1-6-.76l-1.75-.55c-1.78-.5-3.59-.88-5.38-1.33s-3.58-.9-5.39-1.25l-5.42-1.1-2.7-.55-2.72-.45a40.76,40.76,0,0,1-5.16-.18c-3.19,0-6.39.11-9.58.14l-9.6.45c.39.17.62.36.61.56s-.49.42-1.09.56a9.85,9.85,0,0,1-2.26.24l-2.6.06c2.48.11,5,.13,7.43.4a9.07,9.07,0,0,1,1,.11c2.73.12,5.49.12,8.3.34a288,288,0,0,1,70.74,12.06,4,4,0,0,1,1.22.53c.18.17.09.28-.33.16-14.65-3.64-27.75-4.7-44-6.31a221.13,221.13,0,0,0-57.21,1.86,147.75,147.75,0,0,0-28.27,5.77A165.32,165.32,0,0,0,89.72,275c-1.5.66-2.91,1.51-4.36,2.26l-4.27,2.28L77,282c-1.36.81-2.75,1.56-4,2.46l-1,.65-.49.32-.18.13-.63.47-1.27.93c-.84.61-1.71,1.17-2.51,1.83-1.63,1.26-3.26,2.48-4.92,3.67s-3.19,2.52-4.81,3.76a5,5,0,0,1-4,1.47,6.57,6.57,0,0,1-4.22-2.21,7.46,7.46,0,0,1-1.92-5.8l-.65.46-1.25.44a5.16,5.16,0,0,1-3.8-.3l-1.65-.68c-2.72-1.59-5.74-2.19-8.48-3.95l-.55-1.06-.4-.1A6,6,0,0,1,27,283l-.83-1.15a13.48,13.48,0,0,1-1.88-4.36,4.72,4.72,0,0,1-.9-1.5,6.82,6.82,0,0,1-3.23-3.36.94.94,0,0,1-.77-1.16,1,1,0,0,1,.27-.49h0a7.83,7.83,0,0,0-1-.36c-.37.13-.6.19-.6.19-.93.42-.93.42-1.76.76a5.31,5.31,0,0,1-1.71-.17C12.33,270,12.32,270,11.72,269a2.05,2.05,0,0,1-.07-.34l-1,.17a3,3,0,0,1-.53-.13c-.41-.43-.41-.43-.64-.52a2.25,2.25,0,0,1-.31-.32c-.13-.73-.12-.73-.24-.88a2.1,2.1,0,0,1,0-.38l.36-.66,1.74.58-.17-.53.62.4-.51-.41h.63l-.79-.09a4.81,4.81,0,0,0,1.4-.82,1.94,1.94,0,0,0,.68-.63,1.89,1.89,0,0,1-.25-.24c1.13-.56,1.13-.56,2.24-1.07l.48.16a.57.57,0,0,1,.32-.53l.56-.29.05-.15,0,0,.24-.56,0-.12h0c.16-.38.39-.95,1.08-2.35a7.45,7.45,0,0,1,1-.36l-.42-.05c-.28-.05-.46-.6-.58-.58-.72.14-1.43.32-2.13.53s-1.36.51-2,.8c-1.34.57-2.66,1.23-4,1.85a1,1,0,0,1-1.31.09.82.82,0,0,1,.06-1.23c2.7-6,9.14-9.76,15.48-11,1.51-.58,3-1.19,4.47-1.81l-.34-.11,1.28-.28.12,0-1.33-.36c-.24,0-.47.05-.71.09a29.17,29.17,0,0,1-5.29,1.71c-1.8.47-3.61.95-5.41,1.54s-3.91.8-5.9,1.27a.85.85,0,0,1-1.14-.24A.8.8,0,0,1,9.83,250,36.12,36.12,0,0,1,18,244.81a20.91,20.91,0,0,1,9.17-1.75,5.66,5.66,0,0,1,3.13-.8h0l-1-.36c.82-.26,1.58.14,2.39,0l-.83-.83c2-.66,3.93-1.58,5.88-2.37a30.57,30.57,0,0,1,3-1.05,13.65,13.65,0,0,1,3.06-.48,3.34,3.34,0,0,1,.43-.1,23.49,23.49,0,0,1,1.76-2l.49-.46.15-.11.43-.25.87-.49a40.58,40.58,0,0,1,3.73-1.88c-.93.3-1.83.66-2.73,1l-2.65,1s.17-.12.27-.18l.33-.2.68-.4,1.36-.8c.91-.54,1.85-1,2.81-1.48,1.91-.92,3.89-1.8,6-2.61,11.38-4.37,24.9-6.54,31.65-5.37a245.25,245.25,0,0,1,33.55-6.19,270.74,270.74,0,0,1,33.9-1.42,4.19,4.19,0,0,1,2.41.56c.11.26-.66.47-1.82.44a264.89,264.89,0,0,0-48.55,4.62A288.56,288.56,0,0,1,149,219c1.77,0,3.55-.07,5.34,0s3.5.22,5.24.42c17.69,1,34.15,4,51.53,8l2.77.64,2.7.71,5.31,1.42c1.76.44,3.47,1,5.18,1.51l5.12,1.57c3.4,1.07,6.74,2.28,10.17,3.44s6.81,2.57,10.34,3.92a282.57,282.57,0,0,1,27.92,13.12,244.2,244.2,0,0,1,25.84,16.33c2.25,1.62,4.12,3.43,4.13,4s-1.84-.29-4.09-1.89a311.29,311.29,0,0,0-27.75-16.68,320.17,320.17,0,0,0-29.49-13.57,301.15,301.15,0,0,0-31.18-10.51,317.34,317.34,0,0,0-33-7.39c-2.43-.44-4.87-.72-7.28-1.09l-3.62-.52c-1.21-.15-2.42-.26-3.63-.39a.43.43,0,0,1,.1.27c0,.36-.51.65-1.3.86l4.1.45c1.36.19,2.72.42,4.08.63l4.09.66,2,.34,2,.42a190,190,0,0,1,45.68,10.69A236,236,0,0,1,260,249.81a283,283,0,0,1,34.41,18.3,3.34,3.34,0,0,1,1,.79c.1.18-.18.1-.63-.16l-6-3.27-3-1.65-3.06-1.58-6.13-3.16-6.27-3c1.15,1,1.72,1.76,1.41,2.1s-1.5.21-3.15-.33l5.52,3c1.13.61,1.93,1.26,1.79,1.45s-1.12-.14-2.2-.71c-3.75-2-7.47-4-11.31-5.84-1.91-.91-3.79-1.9-5.73-2.76l-5.8-2.61A294.41,294.41,0,0,0,222,240.46a7,7,0,0,1,2.44,2.12h0L228.9,244c27.69,7.64,54.5,21.06,78.43,38.55.47.33.82.67.77.76s-.45-.11-.88-.42c-3.64-2.59-7.26-5.22-11-7.62-1.88-1.2-3.71-2.48-5.63-3.61l-5.73-3.44,0,0c.28.24.28.38-.1.24a5.4,5.4,0,0,1-1.19-.72c-.32-.28-.23-.36.09-.24a244.48,244.48,0,0,0-44.88-20.11,257.22,257.22,0,0,1,40.77,19.23c1.48.7,3,1.35,4.47,2.12a3.49,3.49,0,0,1,1,.75c.07.14-.27.06-.68-.16l-1.22-.63c2.41,1.51,4.06,3,3.75,3.43s-2.7-.52-5.21-2c-6.9-3.75-13.81-7.43-20.92-10.69l-2.34-1-2.42-.83a290.76,290.76,0,0,1,31.72,17.58c.89.52,1.57,1.09,1.49,1.26s-.87-.12-1.77-.64a295.22,295.22,0,0,0-28.58-14,286.65,286.65,0,0,0-30-11c-3.48-.62-7-1.09-10.47-1.63-3.53-.37-7-.81-10.6-1.1.87.19,1.74.42,2.61.64,11.11,2.61,21.43,5.17,31.57,8.25a197.57,197.57,0,0,1,30.21,11.7c.5.24.88.54.89.66s-.37,0-.87-.25a223.32,223.32,0,0,0-29.7-11.39l-6.34-1.94-6.28-1.65-3.09-.79-3.09-.66c-2.06-.43-4.1-.85-6.13-1.23l6.08,1.6,3,.78,3,.87,6,1.7,5.92,1.89,3,.95,2.93,1,5.87,2.11c1.94.76,3.87,1.56,5.81,2.35l2.92,1.19c1,.41,1.91.87,2.88,1.3a8.08,8.08,0,0,1,1.7,1,.76.76,0,0,1,.43.06,64.65,64.65,0,0,1,6.33,2.53,3.18,3.18,0,0,1,1.06.68C274.62,271.62,274.33,271.57,273.86,271.38Zm-244.6-12-.24-.08h.65l1.39.73Zm-4.67,9.45h0l-.81-.37Zm96.62-48.2-7.27.82c-1.21.11-2.42.28-3.62.46l-3.62.5c-4.84.55-9.62,1.44-14.5,2.06l6.93-1.68,2.74-.43,2.76-.33,5.52-.61c1.83-.23,3.68-.34,5.53-.46ZM21,258.73a12.21,12.21,0,0,1,3.28.8,5,5,0,0,1,1.34-1.16,27,27,0,0,1,4.27-2.13c-.44-.3-.09-.44,0-.59l.43-.4c-1.58.6-3.25,1.09-4.86,1.75A40.91,40.91,0,0,1,21,258.73Zm-8.22,8.41-.23-.05-.22-.76Zm.41,1.26.26-.06C13.54,268.6,13.41,268.57,13.17,268.4Zm2.31-.6a1.54,1.54,0,0,0-.49-.12Zm14.73,16-1.71-3.36,1.57,3.29Z"/></g></g></svg>