<svg xmlns="http://www.w3.org/2000/svg" viewBox="0 0 454.53 289.67"><g id="Layer_2" data-name="Layer 2"><g id="Layer_1-2" data-name="Layer 1"><path d="M257.19,32.35l.63-.07a1.47,1.47,0,0,1-.82.95,12.79,12.79,0,0,0,6.91-4.5,20.67,20.67,0,0,0,3.71-7c1.3-.86,1.84-2.33,1.2-3.31s-2.27-1.07-3.65-.19a5.71,5.71,0,0,1-1.11.29,24.35,24.35,0,0,0-9.31,2.19l2.18-.42a9.81,9.81,0,0,0-2.61,1.35l.75.25c-3.55.86-6.37,4.17-6.09,7.21s3.36,4.61,6.69,3.65Z"/><path d="M266.28,33.58c-1.8.57-3.6,1.09-5.42,1.62l-.54-.05,1.49,1.2-.07-.11c-.11-2.13,1.25-4.31,2.69-6.16l.44-.74a1.42,1.42,0,0,0-.14-1.2,1.83,1.83,0,0,0-2.58-.25l-1.08.73c-3.12,1.3-6.81,4.75-5.49,8.1.31.76,1.27,1.14,2,1.65a2.67,2.67,0,0,0,3.63-.18,2.44,2.44,0,0,0,.46-3.45l.76-.36-.11.72c-.5-1,.32-2.15.67-3.24l.93-1.25-2.75-1.44-.33.82c.13.05.36.09.36.11a33.76,33.76,0,0,1-1.88,4.65L258.63,37a1.28,1.28,0,0,0,1.53,1.18l1.13-.23-.58,0c2-1.06,3.87-2.34,5.89-3.27a.71.71,0,0,0,.46-.8A.56.56,0,0,0,266.28,33.58Z"/><path d="M261.24,39a1.75,1.75,0,0,0-1.11.56l0,.31.85-.15C261.62,39.64,261.58,39.28,261.24,39Z"/><path d="M260.16,39.89l-.35.06.34,0,0-.06Z"/><path d="M444.24,163.51a105,105,0,0,1,7,21.55,122,122,0,0,1,2.63,21.68A110.58,110.58,0,0,1,452.43,229a85.88,85.88,0,0,1-7.21,22.9l-.67,1.43-.8,1.43-1.63,2.83-.83,1.41-.91,1.33c-.62.89-1.21,1.78-1.87,2.65a69.72,69.72,0,0,1-8.88,9.75A63.65,63.65,0,0,1,406.51,286a66.69,66.69,0,0,1-13,2.73c-1.09.1-2.19.19-3.28.27l-3.29.09c-2.13,0-4.22-.06-6.27-.24A94.51,94.51,0,0,1,358.21,284a12.5,12.5,0,0,0-3.49-.9,8,8,0,0,0,2.87,1.31,96.74,96.74,0,0,0,22.54,5c1,.07,2.06.16,3.11.21l3.17.08c2.19,0,4.42-.09,6.62-.32a67.16,67.16,0,0,0,13.09-2.61,64,64,0,0,0,23.42-13.14,66.4,66.4,0,0,0,9-9.73c.7-.86,1.29-1.76,1.91-2.65s1.26-1.76,1.79-2.73l1.65-2.84c.52-1,1.13-1.92,1.54-2.87a84.89,84.89,0,0,0,7.43-23,111,111,0,0,0,1.58-22.34,122.56,122.56,0,0,0-2.5-21.77A106.75,106.75,0,0,0,445.15,164a19.22,19.22,0,0,0-2.15-3.77C442.8,160.23,443.36,161.66,444.24,163.51Z"/><path d="M161.73,208.75c1.07-.33,1-.45-.15-.3a21.56,21.56,0,0,0-3.77.88c-.88.34-.8.48.17.29C159.11,209.39,160.84,209.05,161.73,208.75Z"/><path d="M170.05,196.68l2.59-.53,2.59-.37,5.06-.75,4.91-.47,2.37-.24,2.32-.12c1.14,0,2.42,0,3.38.05-.41-.2,1-.49,3.59-.36l4.85.17,4.87.44c1.63.12,3.24.42,4.87.64l2.44.36c.85.16,1.77.38,2.66.57,3.44.82,6.39,1.68,9.44,2.58s6,1.84,9,2.78c12,3.79,23.86,7.89,35.82,12.15s23.95,8.66,35.91,13.21,23.92,9.17,35.8,13.94a6.56,6.56,0,0,1,2.23.29,60.25,60.25,0,0,1,7.26,2.31c2.88,1.08,6,2.37,9.16,3.66q2.32,1,4.61,1.9c2.31.87,4.58,1.66,6.81,2.32a65.21,65.21,0,0,0,6.51,1.57,43.66,43.66,0,0,0,6.16.69c1,.06,1.93,0,2.86,0s1.86-.13,2.77-.28a29,29,0,0,0,18.78-10.79c.45-.64.81-1.41,1.25-2.14s.74-1.56,1.17-2.35a23.14,23.14,0,0,0,1.15-2.59l.58-1.38c.17-.5.33-1,.5-1.52,4.05-13.89,2.68-31.86-2.63-46.71.16,1,.1,1.63-.14,1.69s-.85-.92-1.47-2.22c-.31-.66-.62-1.45-1-2.23s-.72-1.73-1.12-2.57-.78-1.71-1.22-2.49-.83-1.59-1.31-2.29c.34.49.58,1.12.89,1.67a17.69,17.69,0,0,1,.84,1.75l.81,1.83.74,2,.37,1c.12.35.21.71.32,1.07l.65,2.12c.38,1.46.75,2.94,1.07,4.43.18.87.32,1.68.43,2.42a87,87,0,0,1,1.66,20.54c-.34,7.44-1.72,14.56-4.21,19.89a13.09,13.09,0,0,1-1,1.91,15.06,15.06,0,0,1-1,1.82l-.57.9c-.19.29-.41.55-.62.84s-.39.56-.61.83l-.66.77a27.54,27.54,0,0,1-2.79,2.82,26.91,26.91,0,0,1-6.61,4.07c-.63.21-1.22.51-1.86.68l-.95.31-1,.24a28.92,28.92,0,0,1-8.42.75,53,53,0,0,1-10.06-1.58,115.1,115.1,0,0,1-11.15-3.47c-3.9-1.4-7.79-3-12.09-4.68s-8.43-3.35-12.63-5c-8.4-3.29-16.82-6.43-25.22-9.53S295,219.92,286.62,217s-16.81-5.85-25.24-8.69a28.42,28.42,0,0,1-3.75-1.46c-.6-.36-.42-.48.83-.09l31.4,9.63c10.26,3.22,20.44,6.42,30.76,9.78s20.77,6.94,31.63,10.87c2.78,1,5.31,1.92,7.86,2.79s5,1.67,7.43,2.38A67.61,67.61,0,0,0,381,244.93c.6.06,1.18.08,1.75.1s1.12,0,1.66,0,1.06-.06,1.58-.07.92-.12,1.38-.16A19.43,19.43,0,0,0,400,237.52c.24-.35.53-.65.76-1s.48-.72.72-1.09.45-.8.68-1.18.35-.81.55-1.19a22.76,22.76,0,0,0,1.07-2.59,9.19,9.19,0,0,0,.47-1.48c.15-.51.31-1,.47-1.53a59.56,59.56,0,0,0,1.55-14.93,77.74,77.74,0,0,0-2-16.38,68.47,68.47,0,0,0-2.28-7.61l-.66-1.77-.73-1.63-.35-.82-.37-.68-.72-1.37c-.52-.79-.95-1.68-1.49-2.35s-1-1.39-1.5-2.07a9,9,0,0,1-.79-1c-.28-.31-.59-.6-.87-.92s-.63-.61-.93-.93a8.77,8.77,0,0,0-1-.95l-.54-.49c-.19-.17-.41-.33-.62-.5-.43-.33-.79-.68-1.31-1s-.91-.71-1.46-1.07l-1.63-1.09c-2.29-1.51-5.09-3.09-8.22-4.84l-1.22-.72-1.29-.74-1.28-.75-1.05-.63-2-1.24-2.06-1.21c-2.78-1.53-5.62-3-8.59-4.33A103.23,103.23,0,0,0,341.77,149c-1.79-.42-3.61-.82-5.53-1.2l-6-1.15c-2.08-.39-4.36-.85-6.85-1.4-.65-.16-1.23-.28-1.93-.47l-1.06-.29-.61-.16-.16,0c-.05,0-.09-.13-.13-.19a.36.36,0,0,0-.07-.1l-.08,0-.16-.05c-.86-.27-1.73-.52-2.58-.81s-1.66-.67-2.46-1.06-1.54-.87-2.35-1.24l-1.21-.56a2.45,2.45,0,0,1-.58-.3l-.51-.44-1-.88c-.32-.31-.61-.64-.91-1a18.1,18.1,0,0,1-1.68-2c-.52-.71-1.09-1.32-1.64-2l-.21-.24-.14-.3-.27-.59-.56-1.2c-.33-.81-.59-1.64-.89-2.46-.15-.41-.3-.82-.41-1.24l-.17-.63c-.05-.22-.06-.46-.09-.68-.1-.92-.2-1.83-.27-2.72l-.12-1.35a7,7,0,0,1-.06-1.37l.13-2.79a4.1,4.1,0,0,1,.28-1.39l.41-1.38c.59-1.88,1-3.64,1.48-5.45,0-.24.4-.39.43-.6l.23-.59.2-.49.19-.43c.24-.57.49-1.14.76-1.68a58.14,58.14,0,0,1,7.65-12c.72-.93,1.57-1.82,2.37-2.71s1.7-1.75,2.7-2.61a30.86,30.86,0,0,1,3.14-2.47,27.31,27.31,0,0,1,3.59-2.16l.93-.5,1-.41,2-.79c.67-.27,1.37-.39,2.06-.6a20.43,20.43,0,0,1,2.06-.49c1.34-.22,2.73-.47,3.95-.55.62,0,1.3-.14,1.87-.16l1.74-.11,1.62-.1,1.53-.12a26,26,0,0,0,2.59-.39,7.49,7.49,0,0,0,1.09-.29l.89-.34a2.46,2.46,0,0,0,.7-.43c.19-.16.45-.24.56-.43a3.53,3.53,0,0,0,.63-1l.2-.47.17-.59c.11-.27.24-.84.36-1.25s.27-1,.41-1.45a57.31,57.31,0,0,0,1.46-7.27,21.81,21.81,0,0,0-.08-7.15,10.42,10.42,0,0,0-.91-2.61,7.8,7.8,0,0,0-1.29-1.73,13.56,13.56,0,0,0-2.27-1.78,24.54,24.54,0,0,0-3.18-1.75,40.75,40.75,0,0,0-9.14-2.94,24,24,0,0,0-4.78-.55,14.29,14.29,0,0,0-3.08.56,23.45,23.45,0,0,0-2.79,1.2c-1,.52-1.89,1.06-2.92,1.76-.24.15-.52.38-.77.55s-.52.36-.79.58l-.81.62c-.11.09-.08.08-.13.12l-.36.38c-.24.24-.48.47-.73.75l-.74.76L317,56c-1,1.08-2.06,2.17-3.12,3.38s-2.14,2.45-3.22,3.8c-1.32,2.31-4.46,2.43-7.17.1a7.91,7.91,0,0,1-2.73-5.42l-.52.53-1.07.56a4.54,4.54,0,0,1-3.53.23L294,58.73c-2.81-1.17-5.86-1.39-8.81-2.71l-.71-1L284,55a6,6,0,0,1-3.38-.95l-1-1a13.15,13.15,0,0,1-2.54-4A4.88,4.88,0,0,1,276,47.64a6.76,6.76,0,0,1-3.72-2.84.93.93,0,0,1-.94-1,1.07,1.07,0,0,1,.22-.54h0a8.2,8.2,0,0,0-1-.2c-.36.19-.58.29-.58.29l-1.69,1.06a5.28,5.28,0,0,1-1.76.12c-2.53-1-2.54-1-3.29-1.86a2.19,2.19,0,0,1-.12-.33c-.77.28-.82.3-1,.36a2.59,2.59,0,0,1-.56,0c-.48-.36-.48-.36-.72-.41a3.12,3.12,0,0,1-.37-.27c-.24-.72-.24-.72-.38-.85a1.78,1.78,0,0,1-.09-.38c.17-.47.24-.65.27-.73l1.87.27-.25-.5.7.29-.58-.33.65-.11-.83.05a5.37,5.37,0,0,0,1.34-1.07,2.21,2.21,0,0,0,.63-.76,1.69,1.69,0,0,1-.29-.2c1.11-.74,1.11-.73,2.21-1.43a3.74,3.74,0,0,1,.52.09.58.58,0,0,1,.28-.58l.56-.37,0-.16,0,0,.19-.59,0-.13h0c.14-.4.32-1,.89-2.52a7.21,7.21,0,0,1,1-.52h-.44c-.3,0-.54-.52-.66-.49a38.58,38.58,0,0,0-8.23,4.49,1.09,1.09,0,0,1-1.36.32.81.81,0,0,1-.08-1.25c2.19-6.45,8.74-11.3,15.56-13.37,1.58-.8,3.15-1.62,4.77-2.4l-.38-.07,1.39-.43.13-.07L278.39,18l-.77.17c-3.65,2-7.61,3-11.4,4.72-2,.93-4.12,1.41-6.18,2.21a.88.88,0,0,1-1.22-.05.86.86,0,0,1,.37-1.13,34.92,34.92,0,0,1,8.49-6.45,24.49,24.49,0,0,1,10-3,7.51,7.51,0,0,1,3.51-1.12l.06,0L280.11,13c.93-.33,1.75,0,2.66-.25l-.88-.73c1.12-.45,2.24-1,3.38-1.44s2.28-1,3.44-1.45a24.25,24.25,0,0,1,7.17-1.78c.18,0,.36-.08.53-.11a19.59,19.59,0,0,1,2.45-1.92c.23-.15.45-.3.69-.44l.09,0,0,0,0,0,.09,0c.54-.21,1.11-.38,1.67-.56,1.13-.36,2.25-.74,3.44-1A66.3,66.3,0,0,1,320.22.81a68.79,68.79,0,0,0-10.86,1.06c-1.78.29-3.48.69-5.2,1.1-.87.2-1.69.45-2.53.68L300.36,4l-.63.18-.25.08h0l0,0,.29-.11.66-.23,1.34-.44c.89-.29,1.77-.58,2.71-.83l2.76-.74,2.85-.62A65.35,65.35,0,0,1,322,0a59.3,59.3,0,0,1,12.46,1.11,63.34,63.34,0,0,1,6.18,1.53c2,.69,4.08,1.38,5.82,2.16A78.58,78.58,0,0,1,360,12.39a68.34,68.34,0,0,1,12.19,10.76,50.79,50.79,0,0,1,9.23,14.77,42.78,42.78,0,0,1,3.08,16.9,47.09,47.09,0,0,1-2.64,14.39,47.71,47.71,0,0,1-5.49,11.23,41.9,41.9,0,0,1-7.34,8.35c-.64.58-1.39,1.11-2.05,1.63s-1.46,1-2.16,1.42a21.68,21.68,0,0,1-2.12,1.24l-2.18,1-.93.44-1,.36c-.67.22-1.35.44-2,.64a15.7,15.7,0,0,1-2,.42,18.46,18.46,0,0,1-2,.28,30.27,30.27,0,0,1-3.79.05c-.6,0-1.21-.06-1.77-.11l-1.63-.21c-.56,0-1.07-.13-1.55-.21l-1.47-.23c-.88-.13-1.85-.28-2.65-.36L338.44,95c-.41,0-.76,0-1.14,0a12,12,0,0,0-2.12.12c-2.65.29-4.66,1.75-6.64,3.84a30.53,30.53,0,0,0-5,7.9c-.36.73-.63,1.49-.93,2.23s-.53,1.5-.74,2.25a21.12,21.12,0,0,0-.56,2.25c0,.08,0,.2-.06.26l-.06.16c0,.11,0,.18-.06.26l-.12.5a6.59,6.59,0,0,0,.14,4,3,3,0,0,0,1.38,1.43,4.25,4.25,0,0,0,.94.36,2.5,2.5,0,0,0,.49.11,2.12,2.12,0,0,0,.6.07c1.29,0,2.83-.12,4.54-.32l5.34-.61A182.39,182.39,0,0,1,358.68,118a117.08,117.08,0,0,1,12.89.76c2.16.23,4.32.55,6.49.9s4.31.81,6.44,1.33,4.26,1.06,6.38,1.65c1.88.52,3.69,1,5.63,1.64a119.25,119.25,0,0,1,12.17,4.37,75.52,75.52,0,0,1,13,7.1,67.86,67.86,0,0,1,12.08,10.57,46.69,46.69,0,0,1,3.65,4.76,13.11,13.11,0,0,1,1.51,2.85c0,.27-.47-.16-1.26-1.09-.39-.46-.86-1.05-1.4-1.74l-1.93-2.29a66.47,66.47,0,0,0-8.11-8.07c-1.47-1.18-3-2.33-4.49-3.39s-3.06-2.08-4.61-2.93l-2.32-1.33L412.46,132c-1.56-.81-3.06-1.42-4.59-2.11-3-1.24-6-2.34-8.81-3.24l-2.12-.68-2.06-.62c-1.4-.42-2.68-.78-4-1.15l-4.49-1.23-4.59-1.06a116.89,116.89,0,0,0-18.51-2.36,138.37,138.37,0,0,0-18.05.35c-5.82.45-11.48,1.22-16.44,1.66-.62.06-1.22.11-1.79.14s-1.13.06-1.67.08c-.28,0-.53,0-.76,0a5,5,0,0,1-.6,0c-.28-.08-.58-.09-.85-.19a4,4,0,0,1-2.7-2,4.11,4.11,0,0,1-.44-1.69,3.58,3.58,0,0,1-.08-.86,8.49,8.49,0,0,1,.05-.88,10.41,10.41,0,0,1,.31-1.74c.07-.31.12-.48.26-1a14.57,14.57,0,0,1,.42-1.67,12,12,0,0,0-.38,1.39c-.09.52-.23.79-.26,1a14.76,14.76,0,0,0-.35,1.46,9.3,9.3,0,0,0-.15,1.5v.37l.05.37a1.68,1.68,0,0,1,0,.39c0,.13.05.25.07.37a3.79,3.79,0,0,0,1.51,2.54,6.29,6.29,0,0,0,.64.41c.25.08.46.22.71.28a6.25,6.25,0,0,0,.74.21l.37.09c.15,0,.26,0,.48,0a56.72,56.72,0,0,0,5.84-.24l6.74-.57c4.66-.44,9.58-.78,14.6-.86a116.8,116.8,0,0,1,30.8,3.41c1.27.33,2.56.64,3.83,1l3.77,1.15c2.24.7,4.52,1.45,6.89,2.27a103.32,103.32,0,0,1,14.87,6.37A66.43,66.43,0,0,1,427,145.52a58.2,58.2,0,0,1,11.3,15.22c1,1.71,1.74,3.44,2.59,5.17s1.43,3.41,2.13,5.11,1.2,3.4,1.79,5.1,1,3.4,1.49,5.1a116.61,116.61,0,0,1,3.52,20.47c1.09,13.7.21,27.77-4.91,42.14-.33.9-.61,1.79-1,2.69l-1.19,2.68c-.4.89-.8,1.78-1.23,2.67L440,254.51l-1.51,2.63-1.67,2.49c-.55.84-1.16,1.64-1.78,2.44s-1.22,1.62-1.9,2.39a64.55,64.55,0,0,1-8.85,8.63,59.58,59.58,0,0,1-10.58,6.76,62.23,62.23,0,0,1-24.17,6.47c-1,.05-2.1.1-3.14.12l-3,0c-2-.08-4-.21-5.94-.43a90.32,90.32,0,0,1-11.29-2,131.82,131.82,0,0,1-17-5.46c-5.17-2-10.05-4.18-14.47-6.06-9-3.9-18-7.58-26.94-11.33s-17.92-7.4-27.06-11-18.41-7.42-28-11.15l-20-7.72L223,227.53l-4.82-1.75-4.7-1.65-2.18-.71c-.69-.22-1.57-.53-1.95-.62l-.73-.22a6.08,6.08,0,0,0-.83-.23l-2.13-.45-2.14-.46-2.14-.33c-1.44-.22-2.86-.5-4.31-.6s-2.87-.33-4.32-.4l-4.35-.19c-1.45,0-2.92,0-4.38,0l-2.19,0-2.2.17a117.78,117.78,0,0,0-17.74,2.56l-4.46,1.13c-1.49.37-3,.7-4.47,1.21l-4.46,1.41c-.75.24-1.5.44-2.24.71L144,228c-3,1.13-6,2.12-8.93,3.49s-6,2.49-8.9,4c-6,2.77-11.84,6-17.79,9.39-3.1,1.9-6.15,3.66-8.58,4.92a25.49,25.49,0,0,1-4.61,2.31c-.51.06.29-.74,2-2.08.43-.33.9-.71,1.43-1.09l1.77-1.18c1.27-.84,2.71-1.77,4.27-2.74a224.63,224.63,0,0,1,37.59-19.23,147.65,147.65,0,0,1,19.44-6.13,124.11,124.11,0,0,1,19.61-2.9,103.29,103.29,0,0,1,19.36.81c1.59.27,3.19.42,4.77.8l2.36.49c.38.09.83.16,1.15.25l.89.26.88.25,1.17.38,2.39.77,5,1.75c6.83,2.44,13.76,5.09,20.69,7.76s13.89,5.38,20.83,8.16c13.9,5.56,27.83,11.19,41.74,17l20.87,8.81,10.43,4.5,10.62,4.63a140.14,140.14,0,0,0,24.38,8.34,80.35,80.35,0,0,0,14.19,2c1.25,0,2.49.06,3.75,0s2.58-.06,3.87-.17a61.16,61.16,0,0,0,7.71-1.1,59.64,59.64,0,0,0,14.8-5.19,58.48,58.48,0,0,0,12.95-9,61.28,61.28,0,0,0,10-11.9c.72-1.07,1.33-2.23,2-3.35a38.57,38.57,0,0,0,1.81-3.41,66.53,66.53,0,0,0,2.9-6.93,88.75,88.75,0,0,0,4.89-23.82,114.17,114.17,0,0,0-.71-23c-.08.21-.17.41-.28.42-.46.06-1-1.33-1.74-3.65a109.11,109.11,0,0,1,1.09,25.77,86.52,86.52,0,0,1-6,26.3l-2,4.58c-.7,1.52-1.58,3-2.38,4.51s-1.79,2.88-2.71,4.31-2,2.77-3.11,4.09a60.41,60.41,0,0,1-7.34,7.41,59.43,59.43,0,0,1-8.69,6,58,58,0,0,1-20,6.73,64,64,0,0,1-10.46.57,78.68,78.68,0,0,1-10-1c-12.94-2.2-24.05-7-34.2-11.55L309,256.86l-40.67-18.21c-13.16-5.88-26.1-11.58-39.18-17.09-4.2-1.56-8.4-3.08-12.52-4.49-1.06-.38-2-.65-3-1l-1.5-.48-1.24-.34c-.43-.12-.78-.25-1.28-.35l-1.5-.3-3-.62a102.41,102.41,0,0,0-24.51-1.29c-2.06.2-4.12.34-6.18.57l-6.19.93c-4.1.85-8.23,1.65-12.31,2.87l-3.07.84c-1,.3-2,.68-3,1-2,.7-4.06,1.34-6.08,2.08-4,1.67-8.06,3.09-12,5a19.49,19.49,0,0,1-3.11,1.26c-.5.11.13-.3,1.4-.91A153.55,153.55,0,0,1,163.75,214c1.46-.32,2.92-.72,4.39-1l4.43-.73c.73-.12,1.47-.26,2.21-.36l2.23-.23,4.46-.45a115.91,115.91,0,0,1,17.87.26c-3.7-.79-5.94-1.58-5.6-2.13.16-.32,1-.51,2.37-.65.68-.07,1.5-.12,2.44-.15.47,0,1,0,1.5,0l1.65.09c-.69-.1-1.38-.23-2.08-.3l-2.08-.2c-1.39-.12-2.78-.31-4.18-.37-2.8-.08-5.59-.29-8.4-.14-1.74,0-3.29,0-4.4,0s-1.79-.07-1.75-.22.72-.37,1.84-.57a36.87,36.87,0,0,1,4.31-.29c2.89-.16,5.78.06,8.66.13,1.44.08,2.87.25,4.31.37l2.15.2,2.13.33c1.42.23,2.86.39,4.26.69l4.23.87c.71.15,1.3.36,2,.53l1,.27,1,.34c1.39.46,2.76.88,4.16,1.39,11.2,3.94,22.42,8.37,33.58,12.8q40.42,15.48,80.32,32.39c-3.48-2-6-3.77-7-4.94v0l-12.35-5.23q-28.55-11.26-57.56-22.24c-9.67-3.62-19.37-7.25-29.11-10.68L223,212.44l-3.64-1.22c-1.23-.42-2.43-.79-3.63-1.16L214,209.5l-1.7-.46c-1.08-.33-2.37-.52-3.58-.77s-2.44-.52-3.68-.66c-2.48-.33-4.94-.75-7.44-.88a113.25,113.25,0,0,0-30,1.53,148.41,148.41,0,0,0-29.2,8.76l-3.55,1.47-1.78.74-1.74.83-7,3.33c-2.3,1.18-4.55,2.45-6.83,3.67l-3.41,1.84-3.33,2-6.66,4-6.5,4.34c-4.39,2.81-8.52,6-12.77,9.07A13.28,13.28,0,0,1,82.27,250a10.85,10.85,0,0,1,2.09-1.74l7.64-5.6c1.25-1,2.59-1.8,3.89-2.69l3.93-2.63,3.91-2.63,4-2.44,4-2.45,2-1.22,2.07-1.13a183.87,183.87,0,0,1,34-15.21l-.1,0c-1,.25-1.19.18-.18-.27a21.79,21.79,0,0,1,3.71-1.11c1.13-.22,1.07-.06.2.27a126.37,126.37,0,0,1,33.69-5.36,108.34,108.34,0,0,1,16.9,1.14c.7.11,1.41.18,2.1.31l2.08.4,2.08.39c.34.07.7.13,1,.21l1,.25c.65.19,1.26.32,1.94.53l2,.63c1.36.41,2.73.87,4.1,1.33,11,3.69,21.93,7.79,32.82,11.84s21.73,8.23,32.53,12.39c-19.92-8.07-39.91-16.05-60-23.4-2.51-.93-5-1.78-7.55-2.65L214.46,208c-.62-.19-1.22-.34-1.82-.51a17.43,17.43,0,0,0-1.86-.46l-3.84-.78c-1.28-.29-2.58-.41-3.87-.62-2.58-.45-5.2-.62-7.8-.87A115,115,0,0,0,164,206.92l-3.34.87c-1.11.3-2.23.53-3.32.92l-6.62,2.14a27.71,27.71,0,0,1-3.32,1c-.36,0,.47-.41,1.7-.87s2.45-.82,3.68-1.24c-7.68,2.25-13.63,4.1-13.74,3.49.08-.39,1.66-1.43,4.29-2.55,1.31-.58,2.86-1.23,4.58-1.9l1.33-.52,1.41-.44,3-.89a126.21,126.21,0,0,1,33.4-5.44c1.41-.06,2.82,0,4.24,0s2.83,0,4.24.14l4.22.34c1.42.08,2.81.35,4.21.52,2.82.31,5.58.94,8.36,1.46,2.76.68,5.45,1.54,8.13,2.43,2.33.75,4.66,1.48,7,2.27s4.7,1.42,7,2.16q-3.07-1.17-6.17-2.3c-2.06-.77-4.12-1.52-6.2-2.23s-4.17-1.42-6.27-2.1c-1.06-.33-2.16-.61-3.23-.91l-3.25-.67a109.22,109.22,0,0,0-26.39-2,131.68,131.68,0,0,0-26.14,3.95l-6.35,1.83-1.59.46-1.56.54-3.11,1.1c-4.19,1.37-8.19,3.18-12.24,4.87-1.4.57-2.64,1.21-3.59,1.58a4.3,4.3,0,0,1-1.66.52c-.16-.14,1.91-1.49,4.68-2.75l5.31-2.41,2.66-1.2c.9-.37,1.82-.71,2.73-1.06l5.47-2.1c1.83-.7,3.72-1.22,5.58-1.83,3.71-1.29,7.56-2.13,11.38-3.11,1.93-.44,3.88-.74,5.82-1.12,1-.17,1.94-.38,2.92-.53l2.95-.36c3.93-.57,7.91-.75,11.89-.94l6,0c2,.06,4,.23,6,.34,4,.35,8,.88,11.91,1.63a31,31,0,0,1,3,.67c.51.13,1,.25,1.53.39l1.43.42,2.87.85,2.8.9c14.89,4.87,29.47,10.25,44.07,15.75s29.12,11.19,43.61,17c9.75,3.29,19.47,6.69,29.25,10.16,4.87,1.73,9.84,3.55,14.56,5.18a141.52,141.52,0,0,0,14.05,4.11c-2.26-.72-4.56-1.53-6.89-2.39-3.71-1.39-7.43-2.94-11.18-4.54l-11.46-4.82c-7.62-3.14-15.13-6.16-22.61-9-15-5.77-29.65-11.17-44.36-16.35s-29.37-10.24-44.48-15c-3.79-1.2-7.61-2.37-11.61-3.46l-3.24-.77-3.08-.51c-1-.16-2.05-.35-3.09-.49L204,197.7a121.14,121.14,0,0,0-25.26-.08,13.42,13.42,0,0,1-3.35.16c-.19-.1.94-.36,2.67-.55a121.85,121.85,0,0,1,24.66-.27l3,.32c1,.1,2,.21,3,.39l3,.48,1.5.25c.51.09,1.05.23,1.58.35,4.25,1,7.8,2.12,11.58,3.24,14.79,4.61,29.28,9.53,44.33,14.89,12.46,4.43,24.56,8.87,36.43,13.29s23.52,8.81,35,13.21c-11.6-4.89-23.15-9.51-34.68-14s-23-8.76-34.59-12.94-23.1-8.28-34.82-12.21c-5.86-2-11.74-3.9-17.88-5.73-1.57-.44-3.06-.9-4.9-1.31l-1.31-.32c-.45-.11-.83-.15-1.24-.22l-2.44-.41-2.44-.41-2.46-.29c-1.64-.17-3.28-.43-4.93-.52-2.31-.1-4.62-.34-6.08-.55a5,5,0,0,1-1.31.17l-5,.19c-1.71.11-3.45.31-5.2.45l-2.64.24-2.65.39c-1.77.27-3.57.5-5.35.8a24.34,24.34,0,0,1-3.83.54C167.72,197.3,168.53,197,170.05,196.68ZM280.26,30.3l-.25-.05.67-.1,1.47.54Zm-4,10h0l-.86-.25Zm55.06,82c-1.55.12-3.11.25-4.5.3a14.43,14.43,0,0,1-3.5-.12,6.48,6.48,0,0,1-2.18-.87,3.93,3.93,0,0,1-1.47-1.8,8.21,8.21,0,0,1-.22-4.63c.07-.39.18-.77.28-1.14a4.69,4.69,0,0,1,.17-.6c.08-.27.16-.65.23-1,.18-.67.41-1.33.6-2l.74-2a36.8,36.8,0,0,1,4.1-7.5,18.39,18.39,0,0,1,5.49-5.38,12.15,12.15,0,0,1,7.1-1.45c2.79.14,6,.93,10,1.2-3.89-.22-7-.94-9.78-1.08a12.18,12.18,0,0,0-6.92,1.31,14.16,14.16,0,0,0-2.18,1.6l-1.05.93-1,1.1a31.72,31.72,0,0,0-3.56,5.24,37.19,37.19,0,0,0-2.63,5.88,31.08,31.08,0,0,0-.86,3c-.14.41-.18.62-.27.91s-.15.55-.2.83a9.59,9.59,0,0,0-.18,3.42,4.27,4.27,0,0,0,1.69,2.95,5.57,5.57,0,0,0,1.57.76,8,8,0,0,0,.84.23,4.79,4.79,0,0,0,.48.08l.68,0C326.72,122.63,329,122.51,331.36,122.34ZM271.6,30.81a12.51,12.51,0,0,1,3.47.32,5.18,5.18,0,0,1,1.32-1.32,37.85,37.85,0,0,1,4.33-2.69c-.47-.24-.11-.43,0-.59l.43-.46-5,2.4C274.67,29.22,273.16,30.19,271.6,30.81ZM264,40.54h-.25l-.33-.73Zm.59,1.2.25-.11C265,41.88,264.83,41.87,264.56,41.74Zm2.28-1a1.64,1.64,0,0,0-.52,0Zm17.09,13.62-2.2-3.08,2,3Z"/><path d="M67.43,28c.2,0,.41.11.61.16a1.55,1.55,0,0,1-1.12.61c5.91.77,11-3,14.07-6.83,1.47-.34,2.48-1.47,2.25-2.61S81.57,17.41,80,17.75a5.37,5.37,0,0,1-1.11-.13,19.44,19.44,0,0,0-4.44-1.16,31.18,31.18,0,0,0-4.88-.21l2.16.41a9.61,9.61,0,0,0-2.91.3l.6.5c-3.6-.45-7.52,1.62-8.42,4.59s1.39,5.47,4.85,5.73Z"/><path d="M75.37,32.36c-1.86-.11-3.72-.28-5.62-.45l-.48-.25.93,1.64,0-.12c.71-2,2.78-3.54,4.8-4.72l.68-.52A1.41,1.41,0,0,0,76,26.78,1.8,1.8,0,0,0,73.7,25.6l-1.27.28a12.35,12.35,0,0,0-5.33,1.47,5.07,5.07,0,0,0-2.83,4.13c0,.81.76,1.5,1.24,2.23A2.65,2.65,0,0,0,69,34.82a2.5,2.5,0,0,0,1.74-3l.83-.06c-.13.21-.25.42-.37.63-.08-1.13,1.11-1.87,1.83-2.77.44-.28.88-.57,1.33-.83l-2-2.31-.62.64c.11.09.3.21.29.22A31.66,31.66,0,0,1,68.5,31L67,32.77a1.24,1.24,0,0,0,1,1.64l1.14.17-.55-.16c2.23-.33,4.47-.76,6.66-.93a.74.74,0,0,0,.73-.57A.56.56,0,0,0,75.37,32.36Z"/><path d="M68.68,35.61a1.76,1.76,0,0,0-1.25.12l-.08.3.84.16C68.8,36.31,68.89,36,68.68,35.61Z"/><path d="M67.35,36,67,36l.3.16,0,0Z"/><path d="M165.58,24.2q11.43,3.57,22.27,8.16c.24.1.47.1.52,0s-.12-.27-.34-.36q-10.84-4.64-22.27-8.24c-.26-.07-.49,0-.55.09S165.34,24.12,165.58,24.2Z"/><path d="M214.44,56c-.18,0-.23.08-.1.23a.9.9,0,0,0,.52.29c.16,0,.22-.1.11-.23A.94.94,0,0,0,214.44,56Z"/><path d="M209.41,62.21a15.83,15.83,0,0,0-2.74-.64.88.88,0,0,1-.41-.2c0,.17-.26.22-.61.14-6.89-1.65-14-3.66-21.17-4.9a1.09,1.09,0,0,1-.43.33,3.68,3.68,0,0,1-2.63-.06l-.71-.32c-2.94-1.05-5.91-2-8.88-2.9a9.26,9.26,0,0,1-2.23,0l-8.31.42a.63.63,0,0,1,.17.54c-.14.43-.81.67-1.53.58l-1.09-.08c1,.2,2,.44,3,.7a2.09,2.09,0,0,1,.4.13l3.46.44c5.16.54,10.23,1.11,15.29,1.73,2.53.29,5,.69,7.57,1s5,.82,7.52,1.35a.72.72,0,0,1,.51.23c.06.12,0,.23-.2.21-6.65-.49-12.68.42-19.73.3a169.36,169.36,0,0,0-24.54,1.44c-8.21-.19-15.76,1.61-23.47,4-2.85.91-5.6,1.81-8.24,2.79-5.42,2.12-10.43,4.19-15.19,6.6a3.7,3.7,0,0,1-3.68.49,6.25,6.25,0,0,1-3.17-3.11,7.71,7.71,0,0,1-.47-6c-.23.1-.45.2-.68.28l-1.2.11a4.62,4.62,0,0,1-3.31-1.15l-1.34-1c-2.14-2.18-4.79-3.47-7-5.79l-.29-1.14-.36-.2A6.1,6.1,0,0,1,81,56.43l-.56-1.29a13.21,13.21,0,0,1-.85-4.64,4.69,4.69,0,0,1-.53-1.65,6.79,6.79,0,0,1-2.38-4,.91.91,0,0,1-.47-1.29,1.13,1.13,0,0,1,.39-.42h0c-.35-.24-.46-.31-.89-.57a6,6,0,0,1-.65,0L73.13,43a5.28,5.28,0,0,1-1.67-.52c-1.95-1.87-2-1.86-2.36-2.89,0-.11,0-.23,0-.34l-1.1,0A2.68,2.68,0,0,1,67.5,39c-.31-.51-.31-.51-.53-.64a2.6,2.6,0,0,1-.24-.38c.06-.74.06-.74,0-.91a1.6,1.6,0,0,1,.05-.38l.54-.59,1.63.92,0-.56.54.52L69,36.49l.65.13-.79-.25a5.12,5.12,0,0,0,1.64-.53,2.52,2.52,0,0,0,.86-.48,2.57,2.57,0,0,1-.19-.29c1.31-.27,1.31-.27,2.58-.51a2.82,2.82,0,0,1,.45.27.58.58,0,0,1,.47-.44l.65-.15.1-.13,0,0,.39-.48.08-.11h0l1.76-2a7.83,7.83,0,0,1,1.15-.11,3.39,3.39,0,0,1-.41-.15c-.27-.11-.3-.68-.42-.68a37.12,37.12,0,0,0-9.28,1.17,1.09,1.09,0,0,1-1.38-.17.83.83,0,0,1,.4-1.2,19.27,19.27,0,0,1,8.71-5.54,26.25,26.25,0,0,1,10.44-1.14c1.7-.18,3.38-.32,5.06-.45l-.3-.21,1.37.11h.14l-1.21-.71-.74-.12a46,46,0,0,1-5.87.17c-2-.08-4-.13-6,0-2.19.07-4.26-.2-6.46-.21a.88.88,0,0,1-1.11-.49c-.1-.38.26-.79.77-.91,6.2-2.86,14-4.11,19.94-1.94a6.25,6.25,0,0,1,3.41.24h.06L95,18.49c.92,0,1.53.58,2.38.71l-.54-1c4.41-.11,9-.9,13.09.2l.46,0a13.08,13.08,0,0,1,5.73-1.84c-.88-.08-1.76-.11-2.62-.18a18.65,18.65,0,0,1,5.64-.89,24.3,24.3,0,0,1,4.15.3,30.14,30.14,0,0,1,4,.87,16.09,16.09,0,0,1,6.14,3.19,191.22,191.22,0,0,1,29.89,3.35c.5.08.92.37,1,.63s-.36.42-.87.34c-7-.8-14.21-1.53-21.44-1.84,6,1.1,11.92,2.44,17.87,3.76l2.3.41a12.59,12.59,0,0,1,2.23.64c7.55,1.83,14.51,4.08,22,6.3,6.41,1.94,11.94,3.85,18.16,6.3,8.7,3.45,16.47,7.23,24,12.73,1,.69,1.77,1.65,1.64,2.11s-1.06.29-2.08-.38a172.83,172.83,0,0,0-25.6-12.72c-8.86-3.6-18-6.64-27.57-9.68-2.07-.61-4.1-1.29-6.16-1.83a.76.76,0,0,1,0,.26,1.17,1.17,0,0,1-.71.77c2.32.63,4.6,1.47,6.88,2.28a76,76,0,0,1,19.61,6c2.22,1,4.24,2.27,6.22,3.43s3.84,2.45,5.71,3.75a146.1,146.1,0,0,1,15.25,7.69.75.75,0,0,1,.41.39c0,.12-.13.13-.34,0-3.6-1.65-7.3-3.28-11-4.85.42.59.57,1.13.33,1.5s-.87.52-1.65.43l2.38,1.32c.48.28.79.64.67.83s-.59.16-1.06-.1c-1.62-.87-3.23-1.77-4.88-2.58s-3.27-1.67-5-2.44c-4.1-1.64-8.27-3-12.47-4.42a2.94,2.94,0,0,1,.78,1.61h0l1.91.68A106.32,106.32,0,0,1,226.24,62.6c.22.13.35.31.3.39s-.25,0-.44-.09a112.83,112.83,0,0,0-9.85-6.12h0c.1.13.07.24-.11.22a1,1,0,0,1-.53-.29c-.12-.15-.05-.24.11-.22a104.76,104.76,0,0,0-19.66-8.24,122.8,122.8,0,0,1,17.55,8.48l2,.71c.18.08.38.25.4.37s-.17.12-.35,0l-.57-.2c1.05.64,1.67,1.46,1.4,1.9s-1.44.28-2.54-.34c-1.5-.77-3-1.54-4.52-2.25s-3-1.49-4.56-2.17l-1-.37-1.11-.22c4.67,2.34,9.16,5,13.53,7.72.39.22.64.54.56.7s-.47.12-.86-.1a211.52,211.52,0,0,0-25.52-9.68l-4.71-.1-4.75.09c.36.13.72.24,1.09.35,4.67,1.29,9.14,2.16,13.62,3.09a71.26,71.26,0,0,1,13.32,4c.22.08.37.24.35.34s-.21.11-.43,0a88.18,88.18,0,0,0-13.12-3.83c-1.87-.46-3.72-.82-5.51-1.19s-3.61-.57-5.39-.76c6.9,1.8,13.79,3.22,20.52,5.81a1.49,1.49,0,0,1,.71.44s.11-.06.22,0a21.72,21.72,0,0,1,2.88.68.63.63,0,0,1,.43.33C209.77,62.23,209.62,62.26,209.41,62.21ZM89.34,34.51l-.21-.14.63.16,1.15,1Zm-7.28,7.73h0l-.7-.55Zm65.67-17.79c-2.14-.28-4.26-.64-6.39-1-1.07-.18-2.13-.37-3.2-.59s-2.14-.4-3.21-.64h3.14c1.63.31,3.24.65,4.86,1S146.13,24,147.73,24.45Zm-66.46,7.3a12.44,12.44,0,0,1,3,1.59A5.77,5.77,0,0,1,86,32.6a45,45,0,0,1,4.88-.86c-.34-.39,0-.44.22-.55l.55-.26c-1.75.13-3.52.26-5.35.36A49.73,49.73,0,0,1,81.27,31.75ZM70.63,38l-.22-.1,0-.79Zm.11,1.33.27,0C71.05,39.57,70.93,39.51,70.74,39.3Zm2.47-.14a1.52,1.52,0,0,0-.46-.22ZM83.89,57.91,83,54.29l.77,3.52Z"/><path d="M7.3,122.59l.59,0a1.28,1.28,0,0,1-.86.8,10.52,10.52,0,0,0,6.84-3.4,16.18,16.18,0,0,0,3.92-6.41A2.47,2.47,0,0,0,19,110.43a2.39,2.39,0,0,0-3.33-.65,4.34,4.34,0,0,1-1,.15,21.94,21.94,0,0,0-8.7.79l2-.07a7.19,7.19,0,0,0-2.48.94l.66.35c-3.27.38-6.11,3.16-6.16,6.12s2.63,5,5.84,4.65Z"/><path d="M15.68,125.17c-1.73.31-3.47.55-5.24.79l-.51-.15,1.28,1.41-.05-.11c.13-2.09,1.61-4,3.09-5.68l.47-.66a1.45,1.45,0,0,0,0-1.19,1.77,1.77,0,0,0-2.41-.66c-.36.18-.71.39-1.06.58-3,.88-6.74,3.62-5.93,7,.2.79,1.06,1.32,1.69,1.93a2.51,2.51,0,0,0,3.44.44,2.38,2.38,0,0,0,.82-3.29l.74-.24-.17.7c-.36-1.09.52-2.07.93-3.11l1-1.11-2.44-1.8-.37.76c.12.06.32.14.32.15a26.6,26.6,0,0,1-2.18,4.29l-.9,2a1.3,1.3,0,0,0,1.3,1.39l1.09,0-.55,0c2-.7,3.92-1.67,5.9-2.31a.67.67,0,0,0,.5-.73A.54.54,0,0,0,15.68,125.17Z"/><path d="M10.37,129.73a1.58,1.58,0,0,0-1.13.35v.3h.82C10.65,130.38,10.65,130,10.37,129.73Z"/><path d="M9.24,130.38H8.89l.32.11s0,0,0,0Z"/><path d="M161.16,80.54c1.13.11,2.26.18,3.37.32l3.35.43,6.69.86,6.65,1.1,3.31.55,3.29.67,6.57,1.34,6.51,1.58,3.25.78c1.08.28,2.14.6,3.22.89l6.41,1.81c.58.15,1.08.22,1.13.11s-.35-.35-.89-.49l-6.42-1.82-3.22-.9L201.14,87l-6.51-1.59L188.07,84l-3.29-.68-3.31-.56-6.64-1.11c-2.23-.32-4.46-.58-6.69-.87s-4.47-.6-6.73-.76a1.87,1.87,0,0,0-1.2.15C160.18,80.35,160.6,80.49,161.16,80.54Z"/><path d="M280.86,130.67c-.39-.13-.43,0-.1.23a4.74,4.74,0,0,0,1.21.68c.33.11.38,0,.1-.23A4.47,4.47,0,0,0,280.86,130.67Z"/><path d="M273.86,135.88c-1.05-.47-2.07-.94-3.07-1.35s-2-.75-2.93-1.06a4.78,4.78,0,0,1-1-.48c0,.21-.42.15-1.19-.15a321.52,321.52,0,0,0-48.42-15.07,1.6,1.6,0,0,1-.82.26,17,17,0,0,1-6-.76l-1.75-.55c-1.78-.5-3.59-.88-5.38-1.33s-3.58-.9-5.39-1.25l-5.42-1.09-2.7-.55-2.72-.46a40.76,40.76,0,0,1-5.16-.18c-3.19,0-6.39.11-9.58.14l-9.6.45c.39.17.62.36.61.56s-.48.42-1.09.56a9.8,9.8,0,0,1-2.26.25l-2.6.05c2.48.11,5,.13,7.43.4a9.07,9.07,0,0,1,1,.11c2.73.12,5.49.12,8.3.34a288,288,0,0,1,70.74,12.06,3.75,3.75,0,0,1,1.22.54c.18.17.09.27-.33.15-14.65-3.64-27.75-4.7-44-6.31A221.58,221.58,0,0,0,144.56,123a147.75,147.75,0,0,0-28.27,5.77,167.19,167.19,0,0,0-26.57,10.67c-1.5.67-2.91,1.52-4.36,2.26L81.09,144,77,146.45c-1.36.82-2.75,1.56-4,2.46l-1,.65-.49.32-.18.13-.63.47-1.27.93c-.84.62-1.71,1.17-2.51,1.83-1.63,1.26-3.26,2.48-4.92,3.67s-3.19,2.53-4.81,3.76a5,5,0,0,1-4,1.47,6.57,6.57,0,0,1-4.22-2.21A7.44,7.44,0,0,1,47,154.14l-.65.46-1.25.43a5.16,5.16,0,0,1-3.8-.3l-1.65-.68c-2.72-1.59-5.74-2.19-8.48-4l-.55-1-.4-.11A6,6,0,0,1,27,147.49l-.83-1.15A13.48,13.48,0,0,1,24.29,142a4.72,4.72,0,0,1-.9-1.5,6.82,6.82,0,0,1-3.23-3.36.94.94,0,0,1-.77-1.16,1,1,0,0,1,.27-.49h0a7.83,7.83,0,0,0-1-.36c-.37.13-.6.19-.6.19-.93.42-.93.42-1.76.76a5,5,0,0,1-1.71-.17c-2.28-1.44-2.29-1.43-2.89-2.35a2.05,2.05,0,0,1-.07-.34l-1,.17a3,3,0,0,1-.53-.13c-.41-.43-.41-.43-.64-.52a2.25,2.25,0,0,1-.31-.32c-.13-.73-.12-.73-.24-.88a2.1,2.1,0,0,1,0-.38l.36-.66,1.74.58-.17-.53.62.4-.51-.41h.63l-.79-.09a4.81,4.81,0,0,0,1.4-.82,1.94,1.94,0,0,0,.68-.63,1.89,1.89,0,0,1-.25-.24c1.13-.55,1.13-.55,2.24-1.07a4.49,4.49,0,0,1,.48.16.55.55,0,0,1,.32-.52l.56-.29.05-.16,0,0,.24-.56,0-.12h0c.16-.38.39-1,1.08-2.35a7.37,7.37,0,0,1,1-.35c-.14,0-.28,0-.42-.06s-.46-.59-.58-.58c-.72.14-1.43.32-2.13.53s-1.36.51-2,.8c-1.34.58-2.66,1.23-4,1.85a1,1,0,0,1-1.31.09.82.82,0,0,1,.06-1.23c2.7-6,9.14-9.76,15.48-11,1.51-.58,3-1.19,4.47-1.81l-.34-.11,1.28-.28.12,0-1.33-.36c-.24,0-.47,0-.71.09A29.17,29.17,0,0,1,21.85,113c-1.8.47-3.61,1-5.41,1.54s-3.91.8-5.9,1.27a.85.85,0,0,1-1.14-.24.81.81,0,0,1,.43-1A35.74,35.74,0,0,1,18,109.32a20.78,20.78,0,0,1,9.17-1.76,5.66,5.66,0,0,1,3.13-.8h0l-1-.36c.82-.26,1.58.14,2.39,0l-.83-.82c2-.67,3.93-1.58,5.88-2.38a30.57,30.57,0,0,1,3-1,13.65,13.65,0,0,1,3.06-.48,3.34,3.34,0,0,1,.43-.1,23.49,23.49,0,0,1,1.76-2l.49-.46.15-.11.43-.25.87-.49a38.17,38.17,0,0,1,3.73-1.87c-.93.3-1.83.65-2.73,1l-2.65,1s.17-.12.27-.17l.33-.21.68-.4,1.36-.8c.91-.54,1.85-1,2.81-1.48,1.91-.92,3.89-1.79,6-2.61,11.38-4.37,24.9-6.54,31.65-5.37a245.25,245.25,0,0,1,33.55-6.19,270.74,270.74,0,0,1,33.9-1.42,4.19,4.19,0,0,1,2.41.56c.11.27-.66.48-1.82.45a264,264,0,0,0-48.55,4.61,288.56,288.56,0,0,1,41.22-2c1.77,0,3.55-.07,5.34,0s3.5.22,5.24.42c17.69,1,34.15,4,51.53,8l2.77.64,2.7.72,5.31,1.41c1.76.45,3.47,1,5.18,1.51l5.12,1.57c3.4,1.07,6.75,2.28,10.17,3.44s6.81,2.57,10.34,3.93a280.28,280.28,0,0,1,27.92,13.11,245.82,245.82,0,0,1,25.84,16.33c2.25,1.62,4.12,3.43,4.13,4s-1.84-.29-4.09-1.88A311.39,311.39,0,0,0,278.78,120a317.47,317.47,0,0,0-29.49-13.56,298.84,298.84,0,0,0-31.18-10.52,314.77,314.77,0,0,0-33-7.38c-2.43-.45-4.87-.73-7.28-1.1l-3.62-.52c-1.21-.15-2.42-.26-3.63-.39a.46.46,0,0,1,.1.28c0,.35-.51.64-1.3.85l4.1.45c1.36.19,2.72.42,4.08.63l4.09.66,2,.34,2,.42a189.52,189.52,0,0,1,45.68,10.7A234.45,234.45,0,0,1,260,114.31a283,283,0,0,1,34.41,18.3,3.34,3.34,0,0,1,1,.79c.1.18-.18.1-.63-.16l-6-3.27-3-1.65-3.06-1.57-6.13-3.16-6.27-3c1.15,1,1.72,1.75,1.41,2.1s-1.5.2-3.15-.34l5.52,3c1.13.61,1.93,1.26,1.79,1.45s-1.12-.14-2.2-.71c-3.75-2-7.47-4-11.31-5.84-1.91-.91-3.79-1.9-5.73-2.76l-5.8-2.61A297.06,297.06,0,0,0,222,105a7.06,7.06,0,0,1,2.44,2.12h0l4.49,1.38c27.69,7.64,54.5,21.06,78.43,38.55.47.34.82.67.77.76s-.45-.11-.88-.42c-3.64-2.59-7.26-5.22-11-7.61-1.88-1.21-3.71-2.49-5.63-3.62l-5.73-3.44,0,0c.28.24.28.37-.1.23a5.4,5.4,0,0,1-1.19-.72c-.32-.28-.23-.35.09-.24a245.84,245.84,0,0,0-44.88-20.11,257.22,257.22,0,0,1,40.77,19.23c1.48.71,3,1.35,4.47,2.12a3.49,3.49,0,0,1,1,.75c.07.14-.27.06-.68-.16l-1.22-.63c2.41,1.51,4.06,3,3.75,3.43s-2.7-.52-5.21-2c-6.9-3.75-13.81-7.43-20.92-10.69l-2.34-1-2.42-.83a290.76,290.76,0,0,1,31.72,17.58c.89.52,1.57,1.1,1.49,1.26s-.87-.12-1.77-.64a297.55,297.55,0,0,0-28.58-14,286.65,286.65,0,0,0-30-11c-3.48-.62-7-1.09-10.47-1.63-3.53-.37-7-.81-10.6-1.1.87.19,1.74.42,2.61.64,11.11,2.62,21.43,5.17,31.57,8.26a196.48,196.48,0,0,1,30.21,11.69c.5.25.88.54.89.66s-.37,0-.87-.25a223.32,223.32,0,0,0-29.7-11.39l-6.34-1.94-6.28-1.65-3.09-.79-3.09-.66c-2.06-.42-4.1-.85-6.13-1.23l6.08,1.61,3,.77,3,.87,6,1.7,5.92,1.89,3,.95,2.93,1,5.87,2.11c1.94.76,3.87,1.56,5.81,2.35l2.92,1.2c1,.41,1.91.86,2.88,1.3a7.68,7.68,0,0,1,1.7.95.76.76,0,0,1,.43.06,64.65,64.65,0,0,1,6.33,2.53,3.18,3.18,0,0,1,1.06.68C274.62,136.12,274.33,136.07,273.86,135.88Zm-244.6-12-.24-.09h.65l1.39.73Zm-4.67,9.44h0l-.81-.37Zm96.62-48.2-7.27.82c-1.21.11-2.42.29-3.62.46l-3.62.5c-4.84.55-9.62,1.44-14.5,2.06l6.93-1.67,2.74-.44,2.76-.33,5.52-.61c1.83-.23,3.68-.34,5.53-.45ZM21,123.23a12.59,12.59,0,0,1,3.28.8,5,5,0,0,1,1.34-1.16,27,27,0,0,1,4.27-2.13c-.44-.3-.09-.44,0-.59l.43-.4c-1.58.6-3.25,1.09-4.86,1.75A40.91,40.91,0,0,1,21,123.23Zm-8.22,8.41-.23,0-.22-.76Zm.41,1.27.26-.07C13.54,133.11,13.41,133.07,13.17,132.91Zm2.31-.61a1.54,1.54,0,0,0-.49-.12Zm14.73,16-1.71-3.36,1.57,3.29Z"/></g></g></svg>