<svg xmlns="http://www.w3.org/2000/svg" viewBox="0 0 433.03 237.47"><g id="Layer_2" data-name="Layer 2"><g id="Layer_1-2" data-name="Layer 1"><path d="M90.88,72.13c.18.06.38.15.56.22a1.33,1.33,0,0,1-1.08.5C95.9,74.17,101,70.76,103.91,67a2.42,2.42,0,0,0,2.16-2.59,2.46,2.46,0,0,0-3-1.71,4.08,4.08,0,0,1-1-.2,21.13,21.13,0,0,0-8.65-2l2,.55a8.53,8.53,0,0,0-2.71.12l.54.55a7.57,7.57,0,0,0-4.87.54A6,6,0,0,0,85.2,65.5c-1,2.84,1,5.66,4.22,6.3Z"/><path d="M98.22,77.31c-1.79-.28-3.56-.66-5.35-1l-.45-.29.79,1.75v-.13c.78-2,2.86-3.3,4.82-4.38l.67-.49A1.57,1.57,0,0,0,99,71.64a1.77,1.77,0,0,0-2.13-1.35l-1.21.19c-3.2-.23-7.73,1.3-8,4.85-.06.82.61,1.6,1,2.39a2.58,2.58,0,0,0,3.21,1.49,2.43,2.43,0,0,0,1.84-2.92h.8l-.39.62c0-1.19,1.16-1.79,1.9-2.64l1.3-.72L95.57,71l-.61.59.27.25c-.57.59-1.11,1.18-1.68,1.74a17.84,17.84,0,0,1-1.82,1.64l-1.51,1.68A1.31,1.31,0,0,0,91,78.69l1.07.3-.52-.22c2.17-.07,4.33-.41,6.47-.33a.66.66,0,0,0,.73-.52A.57.57,0,0,0,98.22,77.31Z"/><path d="M91.6,80a1.61,1.61,0,0,0-1.2,0,2.51,2.51,0,0,0-.1.29l.8.25C91.67,80.69,91.79,80.35,91.6,80Z"/><path d="M90.3,80.25,90,80.14l.28.2,0,0Z"/><path d="M213.43,65.7q17.74,3.43,35,8.32c.38.11.72.12.77,0s-.24-.29-.59-.38c-11.5-3.32-23.13-6.1-35-8.41-.4-.06-.74,0-.8.1S213.06,65.63,213.43,65.7Z"/><path d="M294.87,100.6c-.28,0-.31.07-.07.24a2.27,2.27,0,0,0,.87.37c.23,0,.27-.09.08-.24A2.08,2.08,0,0,0,294.87,100.6Z"/><path d="M289.68,107.09a38.86,38.86,0,0,0-4.31-.94,2.34,2.34,0,0,1-.69-.24c0,.19-.3.23-.86.12-10.94-2.24-22.52-4.74-34.06-6.22a1.29,1.29,0,0,1-.59.34A8.29,8.29,0,0,1,245,100l-1.2-.35c-2.46-.59-4.94-1.09-7.4-1.64L229,96.55a19.09,19.09,0,0,1-3.57,0l-3.31.1-3.31.17c-2.21.11-4.43.19-6.66.33.26.16.41.35.39.55-.14.46-1.19.75-2.37.67l-1.8-.07,5.1.65a4.2,4.2,0,0,1,.68.11c1.87.14,3.77.3,5.71.4,16.89,1.06,33.11,2.21,49.15,4.89a1.83,1.83,0,0,1,.87.28c.12.13.05.24-.25.21-10.36-.84-19.54,0-30.9-.27-6.77-.14-13.46,0-20.11.34s-13.28.9-19.94,1.61a135.28,135.28,0,0,0-20.13,1.93,195.18,195.18,0,0,0-19.71,4.41c-4.93,1.29-9.66,2.77-14.28,4.22-6.05,2.31-11.83,4.38-17.52,6.71-2.81,1.61-6.17.31-7.71-3a7.5,7.5,0,0,1,0-6.17l-.77.26-1.34,0a5.2,5.2,0,0,1-3.56-1.39l-1.36-1.11c-2.1-2.31-4.87-3.92-7-6.44l-.2-1.19-.35-.22a5.88,5.88,0,0,1-2.62-2.37l-.45-1.36a13.73,13.73,0,0,1-.47-4.8,5,5,0,0,1-.4-1.73,6.85,6.85,0,0,1-2.07-4.23,1,1,0,0,1-.38-1.36,1.05,1.05,0,0,1,.42-.39h0a9.33,9.33,0,0,0-.83-.64c-.4,0-.64,0-.64,0l-1.94.2a5.3,5.3,0,0,1-1.6-.7C92,85.14,92,85.14,91.72,84.07c0-.12,0-.24,0-.35l-1.07-.16a2.83,2.83,0,0,1-.47-.28c-.26-.55-.26-.55-.46-.7a3.71,3.71,0,0,1-.2-.41c.11-.75.11-.75,0-.93a1.36,1.36,0,0,1,.08-.37l.55-.53,1.51,1.1v-.57l.48.58-.36-.56.61.2-.75-.33a5,5,0,0,0,1.62-.36,2,2,0,0,0,.86-.4,2.13,2.13,0,0,1-.16-.31c1.27-.18,1.26-.2,2.51-.31a3.51,3.51,0,0,1,.42.31.53.53,0,0,1,.48-.39l.64-.09.1-.12,0,0,.41-.44a.53.53,0,0,0,.08-.11h0l1.78-1.93a6.92,6.92,0,0,1,1.11,0c-.13-.06-.26-.11-.39-.18s-.26-.71-.38-.73a38,38,0,0,0-8.94.44,1,1,0,0,1-1.3-.32A.83.83,0,0,1,91,74.58a18.49,18.49,0,0,1,8.5-4.92,25.67,25.67,0,0,1,10-.61c1.63-.09,3.24-.23,4.85-.35l-.29-.22,1.31.16h.14l-1.17-.77c-.24-.06-.47-.11-.71-.15-3.72.45-7.46-.32-11.31-.3-2.08,0-4-.51-6.1-.64a.76.76,0,1,1-.28-1.46,28.93,28.93,0,0,1,4.64-1.51,31.3,31.3,0,0,1,4.88-.83,21,21,0,0,1,9.34,1.24,5.92,5.92,0,0,1,3.26.29h0l-.87-.67c.87,0,1.46.61,2.27.74-.17-.33-.36-.68-.53-1,4.2,0,8.51-1.08,12.53,0a3.13,3.13,0,0,1,.44,0,23.25,23.25,0,0,1,2.26-1.35l.61-.28.16-.06.32-.08.65-.14c.88-.19,1.78-.35,2.73-.47l-3.86.06a40.54,40.54,0,0,1,8.34-1.54c8.07-.62,17.18.8,21.48,3.3q11.4-.36,22.74.09c7.55.35,15.08.89,22.55,1.67a2.05,2.05,0,0,1,1.56.63c.05.28-.48.43-1.25.37-10.73-.58-21.62-1-32.56-.79,9.16.74,18.26,1.82,27.48,3l3.54.32a21.34,21.34,0,0,1,3.47.6c11.72,1.69,22.66,4,34.41,6.37,10,2.08,18.74,4.25,28.56,7.11,3.45,1,6.78,2.1,10.08,3.16s6.53,2.26,9.7,3.56a168.48,168.48,0,0,1,18.89,8.76c1.69.87,3.08,2,3.08,2.52s-1.38.23-3.07-.62a280,280,0,0,0-41.15-15.56Q262.08,81,251.19,78.45c-3.62-.91-7.3-1.68-11-2.55s-7.42-1.61-11.2-2.34c-3.25-.69-6.47-1.24-9.68-1.83a.72.72,0,0,1,0,.28c0,.35-.39.63-.93.82,3.62.68,7.26,1.39,10.88,2.3a153.3,153.3,0,0,1,30.93,6.48,185.62,185.62,0,0,1,19.79,8.16,260.21,260.21,0,0,1,24.73,9.4,1.68,1.68,0,0,1,.72.48c.08.14-.13.13-.47,0-2.87-1.07-5.79-2.09-8.72-3.14s-5.91-2.06-8.93-3c.82.66,1.22,1.26,1,1.65s-1.09.52-2.28.38c1.31.53,2.65,1,3.94,1.58.81.35,1.38.77,1.28,1s-.82.13-1.58-.19c-2.67-1.08-5.37-2.08-8.05-3.12s-5.41-2-8.14-2.87c-6.62-1.93-13.3-3.58-20-5.13a4.31,4.31,0,0,1,1.63,1.74h0l3.08.77A200.41,200.41,0,0,1,314.29,109c.35.18.61.39.57.48s-.34,0-.66-.14c-2.7-1.38-5.39-2.81-8.15-4.05l-4.12-1.91-4.18-1.76h0c.2.16.2.28-.07.24a2.32,2.32,0,0,1-.87-.37c-.23-.18-.17-.27.07-.24a196.54,196.54,0,0,0-31.83-10,229.44,229.44,0,0,1,28.85,10.14c1.08.28,2.14.62,3.23,1a1.61,1.61,0,0,1,.71.45c.05.11-.2.11-.5,0l-.89-.28c1.75.8,2.95,1.77,2.72,2.24s-2,.19-3.81-.59c-2.48-1-5-1.87-7.47-2.81l-7.5-2.65-1.67-.45L277,97.91q11.63,4.22,22.75,9.38c.65.26,1.12.65,1.07.82s-.64.08-1.29-.18c-6.75-2.44-13.61-4.64-20.54-6.66s-14-3.75-21-5.33c-2.43-.09-4.86-.18-7.3-.22s-4.89,0-7.35,0l1.79.38c7.65,1.45,14.82,2.51,22,3.72A142.16,142.16,0,0,1,288.47,105c.37.11.64.3.65.41s-.27.11-.64,0a169.44,169.44,0,0,0-21.08-4.91c-3-.61-5.94-1-8.82-1.49s-5.74-.73-8.57-1c11.28,2.08,22.26,3.91,33.27,7.16a3.66,3.66,0,0,1,1.22.52.42.42,0,0,1,.31,0c1.45.21,3,.59,4.54,1a1.55,1.55,0,0,1,.76.39C290.23,107.12,290,107.15,289.68,107.09ZM111.75,80.31l-.2-.15.62.19,1.11,1.12Zm-7.47,7.55h0l-.66-.61Zm82.26-21.1c-3.26-.15-6.51-.39-9.76-.58l-4.89-.38c-1.63-.12-3.26-.26-4.9-.44l4.76-.22c2.47.18,4.94.44,7.41.68S184.08,66.44,186.54,66.76ZM104,77.09a12.54,12.54,0,0,1,2.91,1.8,5.22,5.22,0,0,1,1.66-.67,38,38,0,0,1,4.78-.7c-.32-.41,0-.45.22-.55l.54-.25c-1.71.08-3.44.11-5.22.16A42.1,42.1,0,0,1,104,77.09ZM93.33,82.56l-.21-.12,0-.81Zm0,1.35h.27C93.62,84.21,93.51,84.14,93.33,83.91Zm2.42.11a1.67,1.67,0,0,0-.43-.26ZM105,104l-.6-3.75.48,3.64Z"/><path d="M6.73,192.19a5.22,5.22,0,0,1,.57.11,1.2,1.2,0,0,1-.91.68c5.51.36,9.47-4.24,11.4-8.55a2.37,2.37,0,0,0,1.43-3A2.43,2.43,0,0,0,16,180.33a3.52,3.52,0,0,1-1,0,18.34,18.34,0,0,0-4.19-.6,21.89,21.89,0,0,0-4.31.4l2,.14A7.16,7.16,0,0,0,6,181l.62.43c-3.24-.06-6.23,2.33-6.56,5.28s2.07,5.37,5.26,5.43Z"/><path d="M14.76,195.87c-1.76.09-3.5.1-5.27.1L9,195.76l1.12,1.58,0-.12c.34-2.08,2-3.81,3.61-5.29l.51-.62a1.6,1.6,0,0,0,.07-1.23,1.7,1.7,0,0,0-2.29-.9l-1.09.44c-3,.49-7,2.72-6.52,6.26.11.82.9,1.46,1.45,2.16a2.5,2.5,0,0,0,3.35.9,2.37,2.37,0,0,0,1.15-3.19l.76-.14-.24.68c-.25-1.15.71-2,1.22-3l1.07-1-2.24-2.13-.44.72.3.19a24.64,24.64,0,0,1-2.57,4L7.1,197a1.34,1.34,0,0,0,1.13,1.57l1.08.11-.54-.12c2.06-.44,4-1.16,6.08-1.54a.65.65,0,0,0,.57-.67A.56.56,0,0,0,14.76,195.87Z"/><path d="M9,199.74a1.52,1.52,0,0,0-1.15.2c0,.17,0,.26,0,.3l.81.11C9.23,200.43,9.27,200.08,9,199.74Z"/><path d="M7.84,200.24l-.34-.05.3.15s0-.05,0-.05Z"/><path d="M210.17,145.92l9.62.61,4.81.31,4.79.44,9.57.9,9.53,1.17,4.76.59,4.75.72,9.48,1.45,9.42,1.72,4.71.86,4.68,1a3.14,3.14,0,0,0,1.62.11c.06-.1-.57-.34-1.35-.5l-4.68-1-4.71-.87-9.42-1.73-9.47-1.47-4.74-.72-4.75-.6-9.52-1.19-9.56-.9-4.78-.46-4.81-.31-9.62-.62a3.56,3.56,0,0,0-1.69.2C208.76,145.76,209.37,145.89,210.17,145.92Z"/><path d="M390.35,199.1c-.57-.17-.59-.06-.06.25a11.09,11.09,0,0,0,1.88.81c.48.13.51,0,.06-.26A9.54,9.54,0,0,0,390.35,199.1Z"/><path d="M382.41,204.42c-3.24-1.1-6.34-2.08-9.13-2.85a9.86,9.86,0,0,1-1.49-.57c.12.22-.54.14-1.71-.23-23.23-6.93-48.39-13.41-73.54-17.14a2.46,2.46,0,0,1-1.15.25,20.16,20.16,0,0,1-3.79-.15c-1.55-.17-3.34-.37-5.13-.71l-2.7-.55c-10.91-2.08-21.92-3.46-32.88-4.81-2.28.09-4.91.09-7.75,0-2.4,0-4.79,0-7.18.09l-7.2.25c-4.8.09-9.62.48-14.47.74.61.15,1,.34,1,.54-.19.49-2.44.87-5.05.86l-3.94.19c3.78-.09,7.56.07,11.32.18.55,0,1,0,1.51.07,4.14-.07,8.33.09,12.61.15A510.45,510.45,0,0,1,338.84,193.6a8.61,8.61,0,0,1,1.92.58c.3.18.21.29-.43.16-5.51-1-10.82-2-16.14-2.68l-7.92-1.06-8-.84c-5.32-.64-10.78-1-16.4-1.49-2.81-.28-5.7-.38-8.64-.62s-5.93-.51-9-.64a418.67,418.67,0,0,0-43.93-.63,399.59,399.59,0,0,0-43.72,3.89,302.87,302.87,0,0,0-44.24,7.78c-3.56,1-7.15,1.83-10.69,2.89L121,204.22l-10.58,3.71c-1.79.58-3.52,1.35-5.28,2L99.83,212c-2.42.89-4.73,2-7.07,3s-4.67,2-7,3.05L79,221.35,75.68,223l-3.27,1.74-1.63.87L70,226l-.22.13-.72.45-1.45.89c-1,.59-2,1.12-2.88,1.74q-2.81,1.8-5.65,3.5c-1.9,1.14-3.83,2.23-5.66,3.48-2.56,2.2-6.43,1.5-8.68-1.49a7.23,7.23,0,0,1-1.26-6.08l-.75.4-1.38.3a5.43,5.43,0,0,1-2,0,5.53,5.53,0,0,1-1.92-.68l-1.6-.83c-2.6-1.87-5.67-2.87-8.25-5l-.43-1.14-.4-.15a6.13,6.13,0,0,1-3.08-1.86l-.7-1.25a13.56,13.56,0,0,1-1.37-4.63,4.84,4.84,0,0,1-.74-1.62A7.07,7.07,0,0,1,18,208.43a1,1,0,0,1-.64-1.27,1.09,1.09,0,0,1,.33-.46h0a9.05,9.05,0,0,0-.94-.48c-.38.08-.62.11-.62.11-1,.3-1,.3-1.84.54a5,5,0,0,1-1.68-.4c-2.11-1.73-2.12-1.73-2.61-2.73,0-.12,0-.24,0-.35l-1.05,0a2.34,2.34,0,0,1-.5-.2c-.36-.48-.36-.48-.58-.6a2.56,2.56,0,0,1-.27-.37c0-.75,0-.75-.14-.91a1.62,1.62,0,0,1,0-.38l.42-.62,1.66.82-.12-.56.58.49-.46-.49.62.09-.77-.2a4.78,4.78,0,0,0,1.47-.63,2,2,0,0,0,.74-.55,2.37,2.37,0,0,1-.22-.27c1.17-.41,1.17-.41,2.33-.78.17.07.32.15.46.22a.53.53,0,0,1,.37-.48l.59-.22.07-.15,0,0,.29-.52,0-.12h0c.2-.36.5-.88,1.27-2.27a7.26,7.26,0,0,1,1-.27l-.4-.09c-.28-.08-.41-.66-.53-.65a41.23,41.23,0,0,0-8.34,2.2,1,1,0,0,1-1.31-.08.84.84,0,0,1,.19-1.23A18.89,18.89,0,0,1,14.27,188a25.26,25.26,0,0,1,9.27-2.7c1.51-.46,3-.95,4.49-1.46l-.33-.15c.43-.06.85-.12,1.28-.16l.13,0-1.3-.5-.7,0c-3.4,1.3-7.08,1.43-10.73,2.18a19.6,19.6,0,0,1-2.94.33c-1,.09-1.94.15-2.91.29a.8.8,0,0,1-1.08-.36.81.81,0,0,1,.49-1c.61-.46,1.25-.91,1.91-1.34s1.36-.78,2.07-1.13a29.32,29.32,0,0,1,4.38-1.82,19.19,19.19,0,0,1,9.05-.92,5.44,5.44,0,0,1,3.15-.44h.05l-1-.47c.83-.16,1.54.28,2.35.23l-.77-.91c2-.52,3.91-1.31,5.86-2a28.81,28.81,0,0,1,2.94-.85,14.65,14.65,0,0,1,3-.26,2.14,2.14,0,0,1,.43-.07,23.12,23.12,0,0,1,1.79-1.92l.5-.43a.73.73,0,0,1,.15-.11l.63-.31,1.29-.61c1.73-.81,3.52-1.63,5.41-2.4l-7.67,2.72,0,0,.11-.06.25-.12.49-.25,1-.5,2-1c1.35-.63,2.68-1.33,4.07-1.88,2.78-1.15,5.63-2.25,8.62-3.3,4-1.49,8.3-2.6,12.5-3.72,2.11-.53,4.19-1.09,6.26-1.52s4.12-.78,6.1-1.12a85.74,85.74,0,0,1,19.63-1.55,426.08,426.08,0,0,1,47.79-8.2l12-1.21,12-.83c1-.06,2-.15,3-.19l3-.11,6-.22c2-.06,4-.17,6-.2l6,0a8,8,0,0,1,3.44.47c.17.27-.92.52-2.57.54a472.46,472.46,0,0,0-69.2,6.8A511.53,511.53,0,0,1,193,149.33c2.53-.13,5.07-.13,7.63-.15s5,.07,7.51.2c1.59,0,3.17.05,4.74.13l4.71.2,4.69.2c1.56.06,3.11.14,4.66.27,6.19.48,12.36.85,18.51,1.56,12.32,1.15,24.6,3,37.31,5l8,1.41c2.63.46,5.23.9,7.79,1.46l7.63,1.57c1.26.27,2.52.51,3.78.8l3.75.88c5,1.18,10,2.31,15,3.71l7.63,2,7.75,2.28a413.94,413.94,0,0,1,82.1,33.8c3.53,1.94,6.62,4.07,6.82,4.7s-2.52-.43-6.06-2.35q-21-10.87-42.79-19.55l-5.47-2.15c-1.82-.72-3.64-1.44-5.49-2.08l-11.07-4-11.19-3.68c-3.74-1.22-7.54-2.28-11.3-3.43a536.61,536.61,0,0,0-94.52-18.54l-5.29-.58c-1.76-.18-3.52-.28-5.28-.43-3.5-.26-7-.56-10.48-.8.09.1.17.19.17.28,0,.37-.69.69-1.81.93,2,.07,3.95.25,5.93.42l5.94.51c4,.3,7.92.81,11.88,1.31a341,341,0,0,1,67.05,10.84l5.79,1.61c1.91.53,3.79,1.07,5.64,1.69l10.93,3.54,10.58,3.83c1.76.62,3.5,1.29,5.22,2l5.21,2a466,466,0,0,1,52.73,21.12,6.93,6.93,0,0,1,1.6.89c.21.2-.2.11-.91-.2-12-5.28-24.51-10.22-37.24-14.83,1.88,1,2.89,2,2.57,2.31s-2,.13-4.46-.45c2.87,1,5.67,2.27,8.5,3.41,1.75.72,3.06,1.45,2.92,1.64s-1.59-.18-3.25-.85c-5.74-2.41-11.58-4.53-17.4-6.72-2.9-1.1-5.86-2-8.79-3.07s-5.87-2-8.85-2.94c-14.28-4.31-28.74-7.81-43.38-10.76a12.72,12.72,0,0,1,3.94,2.17h0c2.26.44,4.49,1,6.72,1.53a417.53,417.53,0,0,1,61.4,17.41,430.92,430.92,0,0,1,58.91,27.19,3.84,3.84,0,0,1,1.3.89c0,.09-.65-.15-1.32-.52-11.46-6.41-23.23-12.18-35.14-17.52l.05,0c.46.26.5.41-.06.25a11.11,11.11,0,0,1-1.88-.81c-.53-.31-.43-.39.05-.26l-8.39-3.56c-2.8-1.17-5.64-2.22-8.46-3.33-5.62-2.26-11.36-4.15-17-6.17-11.45-3.73-22.94-7.19-34.53-9.88a429.34,429.34,0,0,1,62.51,21.77l6.81,2.53a6.66,6.66,0,0,1,1.6.84c.14.15-.35,0-1-.2l-1.9-.72c1,.43,1.85.85,2.64,1.25s1.47.82,2,1.18c1.13.72,1.74,1.27,1.6,1.49-.44.41-3.82-.77-7.81-2.45l-8-3.33C382,199,379.31,198,376.63,197c-5.35-2.15-10.81-4-16.22-6-1.18-.41-2.37-.78-3.57-1.13l-3.65-.91a479.62,479.62,0,0,1,49.45,20.34c1.39.63,2.5,1.3,2.45,1.48s-1.23-.18-2.62-.81c-14.35-6.15-29-11.7-44-16.5s-30.24-8.89-45.66-12.27l-7.75-1-7.79-.78c-5.19-.58-10.44-.86-15.71-1.22l3.94.68c16.8,2.78,32.35,5.56,47.68,9a344.86,344.86,0,0,1,46,13.59,4.21,4.21,0,0,1,1.46.74c.05.12-.51,0-1.3-.29a370.63,370.63,0,0,0-45.2-13.25,354.57,354.57,0,0,0-37.58-7c12.38,2.12,24.43,4.7,36.43,7.52l9,2.27c1.5.36,3,.77,4.46,1.2l4.46,1.27c6,1.63,11.85,3.62,17.8,5.56a13.56,13.56,0,0,1,2.68,1.11,1.44,1.44,0,0,1,.62.09c3,.85,6.29,1.89,9.61,3a6.21,6.21,0,0,1,1.69.8C383.53,204.72,383.12,204.65,382.41,204.42Zm-354-8.35-.24-.11.65.06,1.33.87Zm-5.56,9h0l-.77-.46Zm130.39-52.9-10.39,1.25c-1.73.21-3.46.38-5.18.61l-5.17.74c-3.44.51-6.9.88-10.33,1.43s-6.88,1.08-10.33,1.58l9.93-2.21,2-.32,2-.25,3.92-.5,7.85-1Q145.31,152.79,153.2,152.18ZM20.14,194.46a13,13,0,0,1,3.2,1.21,4.83,4.83,0,0,1,1.44-1,46.33,46.33,0,0,1,4.41-1.74c-.41-.34-.06-.46.08-.6l.45-.38c-1.61.47-3.25.91-4.94,1.33A39.42,39.42,0,0,1,20.14,194.46Zm-9,7.51-.22-.08-.14-.79Zm.27,1.32.26,0C11.8,203.54,11.68,203.49,11.46,203.29Zm2.36-.31a2,2,0,0,0-.48-.18Zm13,17.92-1.32-3.6,1.19,3.51Z"/><path d="M171.59,28l.26.07a.52.52,0,0,1-.4.3c2.43.31,4.22-1.74,4.92-3.85a1.1,1.1,0,0,0,.53-1.45,1.08,1.08,0,0,0-1.44-.54,1.69,1.69,0,0,1-.45,0,8.49,8.49,0,0,0-3.68-.26l.85.13a2.73,2.73,0,0,0-1.05.24l.28.23a2.54,2.54,0,0,0-.45,5.05Z"/><path d="M175.2,30c-.8,0-1.58,0-2.37-.09l-.22-.11.5.78,0-.06a4.5,4.5,0,0,1,1.6-2.43l.22-.28a.83.83,0,0,0,0-.58.81.81,0,0,0-1-.49l-.48.18c-1.33.15-3,1.1-2.85,2.8a2.82,2.82,0,0,0,.63,1.07,1.12,1.12,0,1,0,2-1l.34,0c0,.11-.07.21-.11.31-.11-.55.32-.93.54-1.39l.47-.44-1-1.07-.19.33.14.1a10.43,10.43,0,0,1-1.13,1.84l-.48.88a.67.67,0,0,0,.5.78l.48.08-.24-.07c.92-.15,1.82-.45,2.74-.58a.28.28,0,1,0,0-.55Z"/><path d="M172.61,31.66a.63.63,0,0,0-.52.06.71.71,0,0,1,0,.14l.37.08C172.7,32,172.72,31.83,172.61,31.66Z"/><path d="M172.07,31.86l-.15,0,.14.08v-.05Z"/><path d="M202.29,11.55c2.24-.93,4.44-2,6.61-3a.14.14,0,0,0,.06-.2.14.14,0,0,0-.19-.07c-2.18,1.06-4.37,2.07-6.62,3a.17.17,0,0,0-.06.21A.16.16,0,0,0,202.29,11.55Z"/><path d="M222.34,10.27a.15.15,0,0,0,.11.19.13.13,0,0,0,.18-.1.2.2,0,0,0-.12-.19A.13.13,0,0,0,222.34,10.27Z"/><path d="M225.35,16.58a3.2,3.2,0,0,0-.56.92.14.14,0,0,1-.14.07.33.33,0,0,1,0,.37,36.18,36.18,0,0,1-5.39,5.73,1,1,0,0,1,.07.35.83.83,0,0,1-.54.86l-.28.06c-1.07.37-2.12.78-3.2,1.14a1.63,1.63,0,0,1-.52.65,27.82,27.82,0,0,1-1.93,2.48.69.69,0,0,1,.26.25.53.53,0,0,1-.19.71l-.34.22,1.12-.36a.23.23,0,0,1,.16,0c.38-.2.74-.42,1.11-.66a38.06,38.06,0,0,0,8.05-7.83.14.14,0,0,1,.19-.07.19.19,0,0,1,.08.21c-1.17,2.45-1.83,5.17-3.51,7.3a68.41,68.41,0,0,1-6.34,7.1c-2.79,1.6-5,3.72-7.57,5.82-1,.78-1.9,1.51-2.87,2.21-2.9,2-5.85,3.81-8.9,5.61a3.33,3.33,0,0,1-4.66-.62,3.37,3.37,0,0,1-.52-3l-.4.2-.72.16a2.89,2.89,0,0,1-2-.33l-.81-.42c-1.29-.93-2.81-1.46-4-2.51l-.17-.55-.2-.09a2.81,2.81,0,0,1-1.46-.95l-.31-.62a6.89,6.89,0,0,1-.56-2.25,2.4,2.4,0,0,1-.32-.8,3.45,3.45,0,0,1-1.3-1.88.49.49,0,0,1-.29-.62.49.49,0,0,1,.16-.21h0a4.09,4.09,0,0,0-.43-.25l-.29,0-.86.22a2.26,2.26,0,0,1-.77-.23c-.94-.89-.94-.89-1.16-1.38,0-.06,0-.12,0-.17h-.47l-.23-.11c-.15-.25-.15-.25-.25-.31a1.59,1.59,0,0,1-.12-.18c0-.36,0-.36,0-.44a1,1,0,0,1,0-.19l.2-.28.74.44-.05-.27.25.24-.2-.24.28.06-.35-.12a1.88,1.88,0,0,0,.67-.26,1,1,0,0,0,.34-.24.75.75,0,0,1-.1-.14l1.05-.31.21.12a.23.23,0,0,1,.17-.22l.27-.09,0-.07,0,0,.14-.25,0-.05h0l.57-1a2.83,2.83,0,0,1,.47-.1l-.19-.06c-.12,0-.19-.32-.24-.32a17.6,17.6,0,0,0-3.74.83.42.42,0,0,1-.58-.07.4.4,0,0,1,.08-.58A8.92,8.92,0,0,1,179,25c.67-.21,1.32-.45,2-.69l-.16-.07.57-.08.06,0-.61-.23h-.31a26.43,26.43,0,0,1-4.71,1,22.22,22.22,0,0,1-2.57.19.36.36,0,1,1-.28-.67c2.09-1.6,4.84-2.8,7.51-2.35a2.1,2.1,0,0,1,1.37-.25h0l-.46-.22c.36-.08.69.12,1,.09l-.39-.44c1.71-.56,3.27-1.65,5.1-1.74l.19-.05a5.31,5.31,0,0,1,1.45-1.79l-.74.21h0a3.49,3.49,0,0,1,1.22-1.14,5,5,0,0,1,4.78.07c2.53-1.65,5.08-3.28,7.51-5.09a.3.3,0,0,1,.41.08.31.31,0,0,1,0,.42,43.84,43.84,0,0,1-5.09,4.26,42.8,42.8,0,0,0,5.13-2.2l.59-.42a1.83,1.83,0,0,1,.66-.28,39.61,39.61,0,0,0,6-3.81c1.63-1.36,3-2.6,4.57-4.09A34.14,34.14,0,0,1,220.4.13a.73.73,0,0,1,1,.21.79.79,0,0,1-.1,1.08c-4.56,4.15-8.88,8.49-14.45,11.43l-1.79.93.1.15a1.25,1.25,0,0,1,.17.64c.69-.33,1.39-.62,2.12-.89a18.66,18.66,0,0,1,5.28-3.87,21.68,21.68,0,0,1,4.4-1.17C218.6,7.5,220,6.3,221.49,5.19a.13.13,0,0,1,.2,0,.16.16,0,0,1,0,.22,31.55,31.55,0,0,1-2.71,3,1.62,1.62,0,0,1,.77.72,1.53,1.53,0,0,1,.13,1.08l.79-.41a.37.37,0,0,1,.36.63l-3.19,1.72q-1.73,1.37-3.49,2.65a2.32,2.32,0,0,1,.83.62h0l.57-.36a39.7,39.7,0,0,1,10.13-7.53.16.16,0,0,1,.21.07.14.14,0,0,1,0,.21,33,33,0,0,0-3.31,1.91h0a.17.17,0,0,1,.11.19.14.14,0,0,1-.17.11.17.17,0,0,1-.11-.19,41.49,41.49,0,0,0-5.57,4.43,51.12,51.12,0,0,1,5.63-3.18l.44-.64a.15.15,0,0,1,.21,0,.17.17,0,0,1,0,.21l-.13.17a.85.85,0,0,1,1.07.42.82.82,0,0,1-.28,1.13c-.94.64-1.89,1.24-2.86,1.82l-.28.26-.2.38c1.61-.71,3.25-1.38,4.88-2a.3.3,0,0,1,.4.12.31.31,0,0,1-.08.41,79.88,79.88,0,0,1-7.36,5.87l-1.6,3.43a3,3,0,0,0,.36-.18c2.94-1.68,4.41-4.91,7.05-6.91a.14.14,0,0,1,.21,0,.14.14,0,0,1,0,.21,38,38,0,0,0-3.3,3.61,32.63,32.63,0,0,0-2.63,3.05c2.08-1.42,3.71-3.39,5.67-5a.23.23,0,0,1,.29-.06.17.17,0,0,1,0-.14,4.27,4.27,0,0,1,.59-1,.14.14,0,0,1,.21,0A.18.18,0,0,1,225.35,16.58ZM181.44,30.21l-.11-.05.3,0,.63.43Zm-2.5,4.33h0l-.36-.24ZM198.8,16.3a12.69,12.69,0,0,1-3.71,1.42l.77-.57C196.82,16.84,197.8,16.56,198.8,16.3ZM177.64,29.39a6.4,6.4,0,0,1,1.47.6,2.3,2.3,0,0,1,.64-.47,20,20,0,0,1,2-.83c-.19-.17,0-.22,0-.29l.2-.18c-.74.22-1.48.42-2.24.62A15.7,15.7,0,0,1,177.64,29.39Zm-4.07,3.39-.1,0-.06-.38Zm.11.64h.12C173.84,33.55,173.78,33.52,173.68,33.42Zm1.08-.09a1.19,1.19,0,0,0-.21-.1Zm5.89,8.89-.57-1.76.5,1.71Z"/></g></g></svg>