<svg xmlns="http://www.w3.org/2000/svg" viewBox="0 0 440.95 264.28"><g id="Layer_2" data-name="Layer 2"><g id="Layer_1-2" data-name="Layer 1"><path d="M67.43,70.45l.61.17a1.58,1.58,0,0,1-1.12.6c5.91.77,11-3,14.07-6.83,1.47-.34,2.48-1.47,2.25-2.61S81.57,59.91,80,60.25a4.76,4.76,0,0,1-1.11-.13A19.44,19.44,0,0,0,74.48,59a32.45,32.45,0,0,0-4.88-.21l2.16.41a9.94,9.94,0,0,0-2.91.3l.6.5c-3.6-.45-7.52,1.62-8.42,4.6s1.39,5.47,4.85,5.73Z"/><path d="M75.37,74.86c-1.86-.1-3.72-.27-5.62-.45l-.48-.25.93,1.64,0-.12c.71-2,2.78-3.54,4.8-4.72l.68-.52A1.4,1.4,0,0,0,76,69.29a1.8,1.8,0,0,0-2.28-1.18l-1.27.27a12.63,12.63,0,0,0-5.33,1.47A5.08,5.08,0,0,0,64.27,74c0,.82.76,1.51,1.24,2.24A2.66,2.66,0,0,0,69,77.32a2.5,2.5,0,0,0,1.74-3l.83-.06c-.13.21-.25.42-.37.63C71.07,73.72,72.26,73,73,72.08c.44-.27.88-.57,1.33-.83l-2-2.31-.62.64c.11.09.3.21.29.23a32.4,32.4,0,0,1-3.49,3.64L67,75.27a1.24,1.24,0,0,0,1,1.64l1.14.18-.55-.16c2.23-.33,4.47-.77,6.66-.94a.74.74,0,0,0,.73-.57A.56.56,0,0,0,75.37,74.86Z"/><path d="M68.68,78.11a1.76,1.76,0,0,0-1.25.12c-.05.17-.07.25-.08.3l.84.16C68.8,78.81,68.89,78.46,68.68,78.11Z"/><path d="M67.35,78.53,67,78.46l.3.16,0,0Z"/><path d="M165.58,66.7q11.43,3.58,22.27,8.16c.24.11.47.11.52,0s-.12-.27-.34-.36c-7.23-3.1-14.63-5.83-22.27-8.24-.26-.07-.49,0-.55.08S165.34,66.62,165.58,66.7Z"/><path d="M214.44,98.54c-.18,0-.23.08-.1.23a.9.9,0,0,0,.52.29c.16,0,.22-.09.11-.22A.9.9,0,0,0,214.44,98.54Z"/><path d="M209.41,104.72a15,15,0,0,0-2.74-.65.88.88,0,0,1-.41-.2c0,.17-.26.22-.61.14-6.89-1.64-14-3.66-21.17-4.9a1,1,0,0,1-.43.33,3.63,3.63,0,0,1-2.63-.06l-.71-.31c-2.94-1.06-5.91-2-8.88-2.9a9.83,9.83,0,0,1-2.23,0l-8.31.43a.61.61,0,0,1,.17.53c-.14.44-.81.67-1.53.58l-1.09-.07c1,.19,2,.44,3,.7a1.56,1.56,0,0,1,.4.12l3.46.44c5.16.54,10.23,1.11,15.29,1.74,2.53.29,5,.68,7.57,1s5,.82,7.52,1.35a.69.69,0,0,1,.51.24c.06.11,0,.22-.2.2-6.65-.49-12.68.42-19.73.3a169.36,169.36,0,0,0-24.54,1.44c-8.21-.19-15.76,1.61-23.47,4-2.85.91-5.6,1.81-8.24,2.79-5.41,2.12-10.43,4.19-15.19,6.6a3.68,3.68,0,0,1-3.68.49,6.18,6.18,0,0,1-3.17-3.11,7.68,7.68,0,0,1-.47-6l-.68.28-1.2.1a4.62,4.62,0,0,1-3.31-1.15l-1.34-1c-2.14-2.18-4.79-3.46-7-5.79l-.29-1.14-.36-.19A6.19,6.19,0,0,1,81,98.93l-.56-1.29A13.17,13.17,0,0,1,79.6,93a4.69,4.69,0,0,1-.53-1.65,6.73,6.73,0,0,1-2.38-4,.91.91,0,0,1-.47-1.29,1.1,1.1,0,0,1,.39-.41h0c-.35-.24-.46-.31-.89-.56-.41,0-.65,0-.65,0l-1.94.39A5.42,5.42,0,0,1,71.46,85c-1.95-1.87-2-1.87-2.36-2.89,0-.12,0-.24,0-.35-.81,0-.87,0-1.1,0a2.68,2.68,0,0,1-.51-.23c-.31-.5-.31-.5-.53-.64a2.6,2.6,0,0,1-.24-.38c.06-.74.06-.74,0-.91a1.6,1.6,0,0,1,.05-.38l.54-.59,1.63.92,0-.56.54.52L69,79l.65.13-.79-.25a5.53,5.53,0,0,0,1.64-.52,2.46,2.46,0,0,0,.86-.49,2.57,2.57,0,0,1-.19-.29c1.31-.27,1.31-.27,2.58-.51.17.09.31.18.45.27a.59.59,0,0,1,.47-.44l.65-.14.1-.14,0,0,.39-.48.08-.11h0l1.76-2a6.62,6.62,0,0,1,1.15-.1l-.41-.15c-.27-.12-.3-.68-.42-.69a37.59,37.59,0,0,0-9.28,1.17,1.07,1.07,0,0,1-1.38-.17.83.83,0,0,1,.4-1.2,19.35,19.35,0,0,1,8.71-5.54,26.43,26.43,0,0,1,10.44-1.14c1.7-.17,3.38-.32,5.06-.45l-.3-.21,1.37.11h.14l-1.21-.7-.74-.12a46,46,0,0,1-5.87.16c-2-.08-4-.12-6,0-2.19.07-4.26-.19-6.46-.21a.88.88,0,0,1-1.11-.49c-.1-.38.26-.79.77-.91,6.2-2.86,14-4.11,19.94-1.94a6.24,6.24,0,0,1,3.41.24h.06L95,61c.92,0,1.53.58,2.38.71l-.54-1c4.41-.1,9-.9,13.09.2l.46,0a13.22,13.22,0,0,1,5.73-1.84c-.88-.08-1.76-.11-2.62-.18a18.65,18.65,0,0,1,5.64-.89,24.3,24.3,0,0,1,4.15.3,30.14,30.14,0,0,1,4,.87,16.09,16.09,0,0,1,6.14,3.19,192.43,192.43,0,0,1,29.89,3.35c.5.09.92.37,1,.64s-.36.41-.87.33c-7-.79-14.21-1.53-21.44-1.84,6,1.1,11.92,2.44,17.87,3.76l2.3.41a13.49,13.49,0,0,1,2.23.64c7.55,1.83,14.51,4.08,22,6.3,6.41,1.94,11.94,3.86,18.16,6.3,8.7,3.46,16.47,7.24,24,12.74,1,.69,1.77,1.64,1.64,2.11s-1.06.29-2.08-.39a172.77,172.77,0,0,0-25.6-12.71c-8.86-3.6-18-6.65-27.57-9.69-2.07-.61-4.1-1.29-6.16-1.83a.76.76,0,0,1,0,.26,1.15,1.15,0,0,1-.71.77c2.32.63,4.6,1.47,6.88,2.28a76,76,0,0,1,19.61,6c2.22,1,4.24,2.27,6.22,3.43s3.84,2.45,5.71,3.75a148.08,148.08,0,0,1,15.25,7.69.78.78,0,0,1,.41.39c0,.12-.13.13-.34,0-3.6-1.66-7.3-3.29-11-4.86.42.59.57,1.14.33,1.51s-.87.51-1.65.42l2.38,1.32c.48.28.79.64.67.83s-.59.16-1.06-.1c-1.62-.87-3.23-1.77-4.88-2.58s-3.27-1.67-5-2.44c-4.1-1.64-8.27-3-12.47-4.42a3,3,0,0,1,.78,1.61h0l1.91.68a106.32,106.32,0,0,1,34.39,15.94c.22.13.35.31.3.39s-.25.05-.44-.09a112.83,112.83,0,0,0-9.85-6.12h0c.1.13.07.25-.11.23a1,1,0,0,1-.53-.3c-.12-.15-.05-.24.11-.22a105.42,105.42,0,0,0-19.66-8.24,122.8,122.8,0,0,1,17.55,8.48l2,.71c.18.08.38.26.4.38s-.17.12-.35,0l-.57-.21c1.05.64,1.67,1.46,1.4,1.9s-1.44.29-2.54-.33c-1.5-.77-3-1.55-4.52-2.26s-3-1.48-4.56-2.17l-1-.37-1.11-.22c4.67,2.34,9.16,5,13.53,7.73.39.21.64.53.56.69s-.47.12-.86-.09a208.22,208.22,0,0,0-25.52-9.68l-4.71-.11-4.75.1c.36.12.72.24,1.09.34,4.67,1.3,9.14,2.16,13.62,3.09a72.79,72.79,0,0,1,13.32,4c.22.08.37.24.35.34s-.21.11-.43,0a88.18,88.18,0,0,0-13.12-3.83c-1.87-.46-3.72-.82-5.51-1.19s-3.61-.57-5.39-.76c6.9,1.81,13.79,3.22,20.52,5.81a1.43,1.43,0,0,1,.71.45.27.27,0,0,1,.22-.05,21.72,21.72,0,0,1,2.88.68.66.66,0,0,1,.43.33C209.77,104.73,209.62,104.76,209.41,104.72ZM89.34,77l-.21-.14.63.16,1.15,1Zm-7.28,7.73h0l-.7-.54ZM147.73,67c-2.14-.28-4.26-.64-6.39-1-1.07-.17-2.13-.37-3.2-.59s-2.14-.4-3.21-.64h3.14c1.63.31,3.24.64,4.86,1S146.13,66.54,147.73,67Zm-66.46,7.3a13.17,13.17,0,0,1,3,1.59A5.5,5.5,0,0,1,86,75.11a42.77,42.77,0,0,1,4.88-.87c-.34-.39,0-.44.22-.55l.55-.26c-1.75.13-3.52.27-5.35.37A49.72,49.72,0,0,1,81.27,74.25ZM70.63,80.47l-.22-.09,0-.8Zm.11,1.33H71C71.05,82.07,70.93,82,70.74,81.8Zm2.47-.13a1.61,1.61,0,0,0-.46-.23Zm10.68,18.75L83,96.79l.77,3.53Z"/><path d="M7.3,165.09l.59,0a1.28,1.28,0,0,1-.86.8,10.55,10.55,0,0,0,6.84-3.39,16.29,16.29,0,0,0,3.92-6.42A2.46,2.46,0,0,0,19,152.94a2.39,2.39,0,0,0-3.33-.66,4.34,4.34,0,0,1-1,.15,22.12,22.12,0,0,0-8.7.79l2-.06a7,7,0,0,0-2.48.93l.66.35c-3.27.38-6.11,3.16-6.16,6.13s2.63,5,5.84,4.64Z"/><path d="M15.68,167.67c-1.73.31-3.47.55-5.24.79l-.51-.14,1.28,1.4-.05-.11c.13-2.09,1.61-4,3.09-5.68l.47-.65a1.47,1.47,0,0,0,0-1.2,1.76,1.76,0,0,0-2.41-.65c-.36.18-.71.38-1.06.57-3,.88-6.74,3.62-5.93,7.05.2.79,1.06,1.32,1.69,1.93a2.51,2.51,0,0,0,3.44.44,2.38,2.38,0,0,0,.82-3.29l.74-.23c-.05.22-.11.46-.17.69-.36-1.09.52-2.07.93-3.1l1-1.11-2.44-1.81-.37.76a2.22,2.22,0,0,1,.32.16,27.45,27.45,0,0,1-2.18,4.29l-.9,2a1.31,1.31,0,0,0,1.3,1.4l1.09,0-.55,0c2-.7,3.92-1.67,5.9-2.31a.67.67,0,0,0,.5-.73A.55.55,0,0,0,15.68,167.67Z"/><path d="M10.37,172.23a1.58,1.58,0,0,0-1.13.35v.3h.82C10.65,172.89,10.65,172.53,10.37,172.23Z"/><path d="M9.24,172.88H8.89l.32.1s0,0,0,0Z"/><path d="M161.16,123.05c1.13.1,2.26.17,3.37.31l3.35.43,6.69.86,6.65,1.1,3.31.55,3.29.67,6.57,1.35,6.51,1.57,3.25.79c1.08.27,2.14.59,3.22.89l6.41,1.8c.58.15,1.08.22,1.13.11s-.35-.35-.89-.49l-6.42-1.82-3.22-.9-3.24-.79-6.51-1.59-6.56-1.35-3.29-.67-3.31-.57-6.64-1.11c-2.23-.31-4.46-.58-6.69-.87s-4.47-.6-6.73-.76a2,2,0,0,0-1.2.15C160.18,122.85,160.6,123,161.16,123.05Z"/><path d="M280.86,173.17c-.39-.13-.43,0-.1.24a4.74,4.74,0,0,0,1.21.68c.33.11.38,0,.1-.24A4.47,4.47,0,0,0,280.86,173.17Z"/><path d="M273.86,178.39c-1.05-.48-2.07-.95-3.07-1.36s-2-.75-2.93-1.05a5.38,5.38,0,0,1-1-.49c0,.21-.42.15-1.19-.15a320.35,320.35,0,0,0-48.42-15.06,1.82,1.82,0,0,1-.82.26,16.8,16.8,0,0,1-6-.77l-1.75-.55c-1.78-.49-3.59-.88-5.38-1.32s-3.58-.91-5.39-1.26l-5.42-1.09-2.7-.55-2.72-.46a39,39,0,0,1-5.16-.18c-3.19,0-6.39.11-9.58.14l-9.6.45c.39.17.62.36.61.56s-.48.42-1.09.56a9.8,9.8,0,0,1-2.26.25l-2.6.06c2.48.1,5,.12,7.43.39a9.07,9.07,0,0,1,1,.11c2.73.12,5.49.13,8.3.34a288,288,0,0,1,70.74,12.06,3.75,3.75,0,0,1,1.22.54c.18.17.09.27-.33.16-14.65-3.65-27.75-4.7-44-6.31a221.58,221.58,0,0,0-57.21,1.85,148.52,148.52,0,0,0-28.27,5.77A167.19,167.19,0,0,0,89.72,182c-1.5.67-2.91,1.52-4.36,2.27l-4.27,2.27L77,189c-1.36.82-2.75,1.57-4,2.47l-1,.64-.49.32-.18.13-.63.47-1.27.93c-.84.62-1.71,1.17-2.51,1.83-1.63,1.27-3.26,2.48-4.92,3.67s-3.19,2.53-4.81,3.76a5,5,0,0,1-4,1.47,6.53,6.53,0,0,1-4.22-2.21A7.43,7.43,0,0,1,47,196.64l-.65.46-1.25.43a5.16,5.16,0,0,1-3.8-.3l-1.65-.68c-2.72-1.58-5.74-2.19-8.48-3.94l-.55-1.06-.4-.11A6,6,0,0,1,27,190l-.83-1.15a13.52,13.52,0,0,1-1.88-4.35,4.77,4.77,0,0,1-.9-1.51,6.84,6.84,0,0,1-3.23-3.35,1,1,0,0,1-.77-1.17,1.08,1.08,0,0,1,.27-.49h0a9.81,9.81,0,0,0-1-.36c-.37.14-.6.2-.6.2l-1.76.76a5.15,5.15,0,0,1-1.71-.18C12.33,177,12.32,177,11.72,176a2.05,2.05,0,0,1-.07-.34c-.77.14-.83.14-1,.17a2.26,2.26,0,0,1-.53-.13c-.41-.43-.41-.43-.64-.52a2.25,2.25,0,0,1-.31-.32c-.13-.73-.12-.73-.24-.88a2,2,0,0,1,0-.37l.36-.67,1.74.59-.17-.53.62.4-.51-.42h.63l-.79-.1a5.15,5.15,0,0,0,1.4-.81,1.93,1.93,0,0,0,.68-.64,1.89,1.89,0,0,1-.25-.24c1.13-.55,1.13-.55,2.24-1.06a3,3,0,0,1,.48.16.55.55,0,0,1,.32-.53l.56-.29.05-.15,0,0c.1-.22.16-.38.24-.56l0-.12h0c.16-.38.39-.94,1.08-2.35a7.37,7.37,0,0,1,1-.35l-.42-.06c-.28,0-.46-.59-.58-.57a19.45,19.45,0,0,0-2.13.52c-.68.24-1.36.51-2,.8-1.34.58-2.66,1.23-4,1.85a1,1,0,0,1-1.31.09.82.82,0,0,1,.06-1.23c2.7-6,9.14-9.75,15.48-11,1.51-.57,3-1.19,4.47-1.81l-.34-.11,1.28-.28.12,0-1.33-.36-.71.09a27.69,27.69,0,0,1-5.29,1.71c-1.8.48-3.61.95-5.41,1.54s-3.91.81-5.9,1.27a.85.85,0,0,1-1.14-.24A.81.81,0,0,1,9.83,157,36.08,36.08,0,0,1,18,151.82a20.92,20.92,0,0,1,9.17-1.76,5.66,5.66,0,0,1,3.13-.8h0l-1-.36c.82-.26,1.58.14,2.39,0l-.83-.82c2-.67,3.93-1.58,5.88-2.38,1-.39,2-.76,3-1.05a14.25,14.25,0,0,1,3.06-.48l.43-.1a23.49,23.49,0,0,1,1.76-2c.16-.16.32-.31.49-.45l.15-.12.43-.25.87-.49a38.17,38.17,0,0,1,3.73-1.87c-.93.3-1.83.65-2.73,1l-2.65,1a1.92,1.92,0,0,1,.27-.17l.33-.21.68-.4,1.36-.8c.91-.54,1.85-1,2.81-1.47,1.91-.93,3.89-1.8,6-2.62,11.38-4.37,24.9-6.54,31.65-5.37a245.22,245.22,0,0,1,33.55-6.18,268.86,268.86,0,0,1,33.9-1.43,4.27,4.27,0,0,1,2.41.56c.11.27-.66.48-1.82.45a264.88,264.88,0,0,0-48.55,4.61A290,290,0,0,1,149,126c1.77,0,3.55-.07,5.34,0s3.5.22,5.24.42c17.69,1,34.15,4,51.53,8.05l2.77.63,2.7.72,5.31,1.42c1.76.44,3.47,1,5.18,1.51l5.12,1.56c3.4,1.07,6.75,2.28,10.17,3.44s6.81,2.57,10.34,3.93a280.28,280.28,0,0,1,27.92,13.11,245.93,245.93,0,0,1,25.84,16.34c2.25,1.61,4.12,3.42,4.13,4s-1.84-.29-4.09-1.89a311.39,311.39,0,0,0-27.75-16.69,320.1,320.1,0,0,0-29.49-13.56,298.84,298.84,0,0,0-31.18-10.52,314.77,314.77,0,0,0-33-7.38c-2.43-.45-4.87-.73-7.28-1.1l-3.62-.52c-1.21-.15-2.42-.26-3.63-.39a.48.48,0,0,1,.1.28c0,.36-.51.64-1.3.85l4.1.46c1.36.18,2.72.41,4.08.62l4.09.66,2,.34,2,.42a190,190,0,0,1,45.67,10.7A234.47,234.47,0,0,1,260,156.82a280.23,280.23,0,0,1,34.41,18.3,3.19,3.19,0,0,1,1,.78c.1.19-.18.11-.63-.16l-6-3.27-3-1.65-3.06-1.57-6.13-3.16-6.27-3c1.15,1,1.72,1.75,1.41,2.1s-1.5.2-3.15-.34l5.52,3c1.13.61,1.94,1.26,1.79,1.45s-1.12-.14-2.2-.71c-3.75-2-7.47-4-11.31-5.83-1.91-.92-3.79-1.91-5.73-2.77l-5.8-2.61A297,297,0,0,0,222,147.47a7.06,7.06,0,0,1,2.44,2.11h0L228.9,151c27.69,7.64,54.5,21.05,78.43,38.55.47.33.82.67.77.75s-.45-.11-.88-.42c-3.64-2.58-7.26-5.22-11-7.61-1.88-1.21-3.71-2.48-5.63-3.61l-5.73-3.44,0,0c.28.24.28.37-.1.23a5,5,0,0,1-1.19-.72c-.32-.27-.23-.35.09-.24a245.84,245.84,0,0,0-44.88-20.11,258.1,258.1,0,0,1,40.77,19.23c1.48.71,3,1.35,4.47,2.13a3.16,3.16,0,0,1,1,.75c.07.13-.27,0-.68-.17l-1.22-.63c2.41,1.51,4.06,3,3.75,3.43s-2.7-.52-5.21-2c-6.9-3.76-13.81-7.43-20.92-10.7l-2.34-1-2.42-.83a290.76,290.76,0,0,1,31.72,17.58c.89.52,1.57,1.1,1.49,1.27s-.87-.13-1.77-.65a297.55,297.55,0,0,0-28.58-14,288.87,288.87,0,0,0-30-11c-3.48-.62-7-1.1-10.47-1.63-3.53-.38-7-.82-10.6-1.11.87.19,1.74.42,2.61.65,11.11,2.61,21.43,5.16,31.57,8.25a196.48,196.48,0,0,1,30.21,11.69c.5.25.88.55.89.67s-.37,0-.87-.26a221.89,221.89,0,0,0-29.7-11.38l-6.34-1.95-6.28-1.65-3.09-.79-3.09-.65c-2.06-.43-4.1-.85-6.13-1.24l6.08,1.61,3,.77,3,.87,6,1.71,5.92,1.89,3,.94,2.93,1,5.87,2.12c1.94.75,3.87,1.55,5.81,2.34l2.92,1.2c1,.41,1.91.86,2.88,1.3a7.66,7.66,0,0,1,1.7,1,.76.76,0,0,1,.43.06,64.49,64.49,0,0,1,6.33,2.52,3,3,0,0,1,1.06.69C274.62,178.62,274.33,178.57,273.86,178.39Zm-244.6-12-.24-.09h.65l1.39.74Zm-4.67,9.44h0l-.81-.38Zm96.62-48.2-7.27.82c-1.21.11-2.42.29-3.62.46l-3.62.5c-4.84.55-9.62,1.44-14.5,2.06l6.93-1.67,2.74-.44,2.76-.32,5.52-.62c1.83-.23,3.68-.34,5.53-.45ZM21,165.73a12.59,12.59,0,0,1,3.28.8,5,5,0,0,1,1.34-1.15,27,27,0,0,1,4.27-2.14c-.44-.29-.09-.44,0-.59l.43-.4c-1.58.6-3.25,1.1-4.86,1.75A40.91,40.91,0,0,1,21,165.73Zm-8.22,8.42-.23-.06-.22-.76Zm.41,1.26.26-.07C13.54,175.61,13.41,175.58,13.17,175.41Zm2.31-.61a1.87,1.87,0,0,0-.49-.12Zm14.73,16-1.71-3.36,1.57,3.29Z"/><path d="M124.62,24.87l.26,0c0,.17-.16.28-.35.36,2.45,0,3.93-2.31,4.33-4.49a1.1,1.1,0,0,0-1.18-1.85,1.72,1.72,0,0,1-.44.06,8.48,8.48,0,0,0-3.68.26h.86a2.85,2.85,0,0,0-1,.4l.31.18a2.53,2.53,0,1,0,.26,5.06Z"/><path d="M128.46,26.32c-.78.11-1.57.18-2.36.24l-.23-.08.61.71,0-.06a4.52,4.52,0,0,1,1.24-2.62l.19-.32a.81.81,0,0,0-1.16-.91l-.45.24c-1.3.34-2.85,1.51-2.44,3.17.1.39.49.67.78,1a1.11,1.11,0,1,0,1.85-1.24l.33-.09-.06.32c-.19-.53.18-1,.34-1.45l.4-.5-1.16-.92-.14.35.15.08a9.72,9.72,0,0,1-.86,2l-.35.94a.67.67,0,0,0,.6.7l.49,0-.25,0c.9-.28,1.74-.7,2.64-1a.28.28,0,1,0-.13-.54Z"/><path d="M126.14,28.36a.64.64,0,0,0-.5.14v.14l.37,0C126.27,28.69,126.27,28.52,126.14,28.36Z"/><path d="M125.64,28.64h-.16l.15.06v-.05Z"/><path d="M147.51,8.35a36.73,36.73,0,0,0,3.7-2s0-.1,0-.17-.13-.1-.16-.08a41.26,41.26,0,0,1-3.7,2s0,.1,0,.17S147.47,8.36,147.51,8.35Z"/><path d="M161.13,9a.24.24,0,0,0,.14.17c.06,0,.1,0,.09-.07a.3.3,0,0,0-.14-.17C161.15,8.88,161.12,8.92,161.13,9Z"/><path d="M165.17,14.67a1.89,1.89,0,0,0-.12.74c0,.05,0,.06-.07.05a.48.48,0,0,1,.13.32,15.23,15.23,0,0,1-2,4.47,1.27,1.27,0,0,1,.15.31c.14.34.1.61-.11.69l-.18,0c-.63.23-1.24.49-1.88.7a.79.79,0,0,1-.17.52,12.93,12.93,0,0,1-.59,2,.83.83,0,0,1,.26.24c.18.25.22.51.09.59l-.17.16.67-.22h.1a4.18,4.18,0,0,0,.57-.47,15,15,0,0,0,3.23-6c0-.06.05-.08.12,0a.22.22,0,0,1,.11.18c-.06,2,.31,4.3-.21,6a31,31,0,0,1-2.25,5.57c-1.47,1.13-2.36,2.77-3.51,4.35-.39.54-.79,1-1.21,1.52a1.65,1.65,0,0,1-.2.21l-.33.31-.68.61q-.67.62-1.35,1.2c-1.82,1.58-3.69,3.09-5.59,4.61a3.32,3.32,0,0,1-4.7,0,3.37,3.37,0,0,1-.94-2.89l-.37.26-.69.26a2.9,2.9,0,0,1-2.05,0l-.86-.3c-1.41-.75-3-1.06-4.35-1.93l-.25-.52-.21-.06A2.89,2.89,0,0,1,134,37.3l-.39-.58a6.67,6.67,0,0,1-.87-2.15,2.56,2.56,0,0,1-.43-.75,3.4,3.4,0,0,1-1.55-1.68.47.47,0,0,1-.24-.8h0l-.47-.19-.28.09-.82.33a2.21,2.21,0,0,1-.79-.12c-1.06-.75-1.06-.75-1.34-1.21a.9.9,0,0,1,0-.16l-.48.05a1.26,1.26,0,0,1-.24-.07c-.18-.22-.18-.22-.29-.27a1.27,1.27,0,0,1-.14-.17c-.06-.35-.06-.35-.11-.43a.94.94,0,0,1,0-.18l.15-.31.79.33-.08-.26.28.21-.23-.21.28,0-.36-.07a2.17,2.17,0,0,0,.63-.35.72.72,0,0,0,.29-.29l-.11-.12,1-.46.22.09a.23.23,0,0,1,.14-.24l.25-.13,0-.07v0l.09-.26,0-.06h0c.07-.18.16-.44.41-1.13a3.16,3.16,0,0,1,.46-.16l-.19,0c-.13,0-.24-.29-.29-.29a17.44,17.44,0,0,0-3.59,1.35.43.43,0,0,1-.59,0,.42.42,0,0,1,0-.59,9,9,0,0,1,6.43-5.1q.93-.47,1.86-1l-.17-.05.56-.16,0,0-.63-.15-.31,0a26.82,26.82,0,0,1-4.53,1.63,22.07,22.07,0,0,1-2.51.55.37.37,0,1,1-.38-.63c1.85-1.87,4.41-3.44,7.11-3.37a2.14,2.14,0,0,1,1.32-.44h0l-.49-.15c.35-.14.71,0,1.06-.07l-.45-.37c1.61-.8,3-2.09,4.81-2.44l.18-.07a8.61,8.61,0,0,1,.94-1.79l-.46.12a1.47,1.47,0,0,1,.52-.89,3.11,3.11,0,0,1,3.36.48A49.84,49.84,0,0,0,147,8.4c.06-.08.19,0,.31.09s.16.3.11.37a16.35,16.35,0,0,1-2.26,3.23,15.53,15.53,0,0,0,2.91-1.46l.29-.31a.68.68,0,0,1,.37-.18,13,13,0,0,0,3-2.76,28.87,28.87,0,0,0,1.94-3.13A12.4,12.4,0,0,1,156.67.08c.15-.18.5,0,.79.27s.4.74.26.92c-1.92,3.18-3.61,6.55-6.6,8.6l-1,.64.11.14a2,2,0,0,1,.32.56,9.5,9.5,0,0,1,1.2-.58,6.59,6.59,0,0,1,2.51-2.88A9.25,9.25,0,0,1,157,7.12c.66-.85,1.28-1.76,2-2.59,0,0,.08,0,.14,0a.19.19,0,0,1,.08.19,13.48,13.48,0,0,1-.95,2.4,2.26,2.26,0,0,1,.75.68,2.17,2.17,0,0,1,.43.94l.42-.29c.09-.05.25,0,.37.18s.16.34.08.4l-1.7,1.21c-.53.68-1.07,1.34-1.63,2a3.16,3.16,0,0,1,.77.61h0l.28-.26A14,14,0,0,1,162.8,7s.12,0,.17.07.08.16,0,.18a10.79,10.79,0,0,0-1.73,1.36h0a.27.27,0,0,1,.14.17c0,.07,0,.1-.09.08a.28.28,0,0,1-.14-.18A15.06,15.06,0,0,0,158.67,12a17.11,17.11,0,0,1,3-2.25c0-.17.07-.35.11-.52s.09,0,.15,0a.21.21,0,0,1,.07.19l0,.13c.2-.11.58.08.87.46s.35.81.15.94c-.46.47-.94.91-1.44,1.33l-.11.19,0,.31c.91-.47,1.85-.91,2.79-1.32.07-.06.21,0,.31.13s.14.29.07.35a28.22,28.22,0,0,1-3.34,4.41c0,.94,0,1.89-.07,2.82a.82.82,0,0,0,.2-.12c1.54-1.19,1.58-3.85,2.81-5.34,0-.05.1,0,.16,0s.08.15,0,.18a17.2,17.2,0,0,0-1.2,2.82,14.65,14.65,0,0,0-.9,2.4c1-1,1.55-2.6,2.43-3.79,0-.07.1-.07.19,0a.19.19,0,0,1,0-.11,2.32,2.32,0,0,1,.12-.78c0-.05.06-.05.14,0A.23.23,0,0,1,165.17,14.67Zm-30.49,11-.12,0h.3l.69.33Zm-1.87,4.64h0l-.39-.18Zm13.72-18.2a4.59,4.59,0,0,1-2.15.9l.36-.42A16.77,16.77,0,0,1,146.53,12.14ZM130.8,25.42a5.91,5.91,0,0,1,1.54.39,2.21,2.21,0,0,1,.58-.56,18.38,18.38,0,0,1,1.85-1.1c-.22-.14-.07-.22,0-.29l.17-.21c-.69.32-1.4.63-2.13.94A16.4,16.4,0,0,1,130.8,25.42Zm-3.55,3.93-.11,0-.11-.38Zm.2.61.12,0C127.62,30.07,127.56,30.05,127.45,30Zm1.06-.24a.7.7,0,0,0-.23-.06Zm7.06,8-.8-1.66.73,1.63Z"/><path d="M207.88,43.85l.65,0c-.09.35-.44.63-.93.87A13.74,13.74,0,0,0,215,40.81a20.5,20.5,0,0,0,4.43-6.37c1.37-.73,2.06-2.06,1.55-3s-2.14-1.13-3.6-.39a5.47,5.47,0,0,1-1.14.2,27.83,27.83,0,0,0-9.6,1.45l2.26-.25a11,11,0,0,0-2.8,1.09l.73.28c-3.68.58-7,3.49-7.09,6.43s3,4.61,6.52,3.87Z"/><path d="M216.92,45.53c-1.85.44-3.68.85-5.59,1.25l-.55-.08,1.4,1.23-.06-.11c.1-2,1.67-4,3.29-5.71l.51-.67a1.28,1.28,0,0,0,0-1.13,1.87,1.87,0,0,0-2.56-.39l-1.16.62c-3.26,1.05-7.43,4.1-6.43,7.43.24.76,1.2,1.17,1.91,1.7a2.85,2.85,0,0,0,3.73,0c1.21-.91,1.57-2.35.8-3.28l.79-.31c-.06.23-.11.46-.17.69-.41-1,.52-2,1-3.06l1.05-1.13-2.6-1.51-.42.76.35.11a33.23,33.23,0,0,1-2.36,4.33c-.31.68-.62,1.38-.92,2.08a1.22,1.22,0,0,0,1.45,1.22l1.17-.17h-.59c2.13-.92,4.13-2,6.22-2.82a.71.71,0,0,0,.53-.74A.54.54,0,0,0,216.92,45.53Z"/><path d="M211.36,50.47a2,2,0,0,0-1.19.49v.3l.88-.1C211.69,51.08,211.68,50.73,211.36,50.47Z"/><path d="M210.18,51.26l-.37,0,.35.06,0,0Z"/><path d="M266.7,187.69l-.32.91a4.83,4.83,0,0,1-.24.5l-.46.9c-.34.6-.54,1.22-.82,1.83a30.76,30.76,0,0,0-1.32,3.86,17.3,17.3,0,0,0-.6,4.12,8.42,8.42,0,0,0,.9,4.07,6.42,6.42,0,0,0,3.11,2.71,12.34,12.34,0,0,0,4.09.9,31.94,31.94,0,0,0,4.26-.05l2.15-.19,4.91-.58c.85-.11,1.54-.33,1.55-.52s-.66-.23-1.44-.13l-5,.59-2.06.18a30.45,30.45,0,0,1-4.05,0,12.24,12.24,0,0,1-3.89-.83,6.24,6.24,0,0,1-3-2.54,7.66,7.66,0,0,1-.9-3.84,15.51,15.51,0,0,1,.55-3.91,27.62,27.62,0,0,1,1.24-3.66c.26-.59.47-1.17.77-1.74l.44-.85.22-.42a3.34,3.34,0,0,0,.14-.38l.16-.45a2.62,2.62,0,0,0,.18-1.42C267.18,186.68,266.92,187.09,266.7,187.69Z"/><path d="M412.19,208.7c-.54-.56-.63-.45-.25.25a14.37,14.37,0,0,0,1.48,2.2c.41.49.54.38.25-.24A12.14,12.14,0,0,0,412.19,208.7Z"/><path d="M399.9,210.76a26.8,26.8,0,0,0-8.35-5,6.88,6.88,0,0,1-1.33-.67c.06.29-.58.24-1.64-.06-5.26-1.42-10.7-.67-16.91,1.42-.77.25-1.55.55-2.35.84l-2.46,1-2.44,1L362,210.32c-3.26,1.48-6.49,3.15-9.76,4.93-6.52,3.56-13.09,7.65-20.13,11.81l-2.69,1.57c-.95.54-1.89,1.08-2.86,1.61-1.93,1.06-3.92,2.06-5.91,3a131.15,131.15,0,0,1-12.43,5.26,3.6,3.6,0,0,1-1.26,1.1c-2.18,1.44-7,3.21-12.11,4.12-1.29.22-2.58.39-3.87.57-1.93.29-4,.56-5.65.77l-2.83.34c-1.26.16-2.53.3-3.8.42a103.21,103.21,0,0,1-15.06.6,55.67,55.67,0,0,1-14.24-2.35,35.53,35.53,0,0,1-12.4-6.57,19.33,19.33,0,0,1-2.42-1.84,19.69,19.69,0,0,1-2.33-2.25l-1.1-1.29c-.36-.45-.67-.93-1-1.41s-.67-1-1-1.46l-.85-1.6a36.87,36.87,0,0,1-4.07-11.41c-.18-1-.35-2-.48-3.06a22.9,22.9,0,0,1-.32-3.12,51.72,51.72,0,0,1,.06-6.46,66,66,0,0,1,2.41-13.41c.63-2.27,1.57-4.43,2.4-6.66l1.29-3.34c.11-.28.2-.57.33-.84l.42-.77.85-1.55c-.77,1-1.36,1.53-1.58,1.44-.18-.25.21-1.37,1-3,.4-.82.89-1.77,1.45-2.8l.44-.79a7.8,7.8,0,0,1,.45-.75c.29-.42.58-.86.89-1.3l1.85-2.66.94-1.31,1-1.24a42.37,42.37,0,0,0-2.88,3.65l-1.39,1.89-.69,1c-.24.32-.51.79-.76,1.18-2,3.31-4.3,6.45-5.75,10.18-.46,1.05-.91,2-1.34,2.88a46.79,46.79,0,0,0-2.31,6.11c-.65,2.08-1.17,4.18-1.62,6.28a60.59,60.59,0,0,0-1.3,12.55,43.17,43.17,0,0,0,.58,6.59,44.18,44.18,0,0,0,1.34,6.33c.35,1,.68,2,1.06,3l1.26,2.94,1.55,2.81c.58.9,1.22,1.77,1.82,2.66s1.34,1.69,2,2.53,1.53,1.52,2.29,2.28a30.4,30.4,0,0,0,2.47,2.07,23.84,23.84,0,0,0,2.63,1.84,43.52,43.52,0,0,0,11.68,5c8.23,2.17,17.18,2.2,26,1.17,2.2-.27,4.38-.58,6.56-.91.54-.07,1.09-.18,1.62-.27l1.39-.24,2.18-.42,4.59-.93c1.58-.35,3.16-.69,4.74-1.1a128.27,128.27,0,0,0,18.54-6.15,134.16,134.16,0,0,0,17-8.67c10-6.07,18.71-12,27.65-16.66a7,7,0,0,1,2.09-.86c.41,0,.41.18-.23.53a183.13,183.13,0,0,0-15.91,10.6l-8.08,5.91-4.26,3c-1.57,1.08-3.17,2.15-4.83,3.19a121.54,121.54,0,0,1-22,11,123.36,123.36,0,0,1-12.47,4c-1.07.29-2.15.55-3.23.81l-3,.71-1.48.34-.76.16-.48.1-.6.11c-1.61.35-3.27.56-4.93.84-2,.32-4,.57-6,.85s-4,.39-6,.46l-3,.14c-1,.06-2,0-3,0s-2,0-2.95-.1l-2.92-.25c-1-.07-1.92-.23-2.87-.37s-1.91-.29-2.85-.49a56.62,56.62,0,0,1-5.52-1.45,47.5,47.5,0,0,1-10.35-4.62l-2.39-1.56-2.25-1.76a27.82,27.82,0,0,1-2.16-1.89l-1-1-.26-.25-.07-.06c-.09.05-.06,0-.1,0l-.11-.13-.48-.54a45.31,45.31,0,0,1-6.56-9.27,44.58,44.58,0,0,1-4-10.59c-.42-1.87-.77-3.77-1.11-5.68a17.4,17.4,0,0,1-.32-2.93c-.05-1-.18-2-.14-3A64.19,64.19,0,0,1,213,197.71a61.2,61.2,0,0,1,3.58-12.63l2.56-6.16.64-1.55.32-.78c.11-.26.28-.47.41-.71l1.7-2.82,1.7-2.82.86-1.42.42-.71c.15-.23.3-.49.41-.64q1.44-2.08,2.91-4.13c.5-.67,1-1.37,1.5-2l1.63-1.91,1.64-1.89c.55-.63,1.1-1.26,1.68-1.81q1.73-1.72,3.47-3.39c1.17-1.09,2.34-2,3.52-3a147.15,147.15,0,0,1,13.32-9.56c4.35-2.72,8.31-5.15,11.79-7.81,1.82-1.3,3.42-2.7,5.07-4.11.85-.68,1.56-1.46,2.34-2.2s1.53-1.49,2.27-2.26c1.41-1.61,2.82-3.21,4.16-4.89s2.6-3.49,3.78-5.21a51.86,51.86,0,0,0,5.46-10.49,41.15,41.15,0,0,0,2.63-11.09,34.79,34.79,0,0,0-.59-10.86l-.28-1.31c-.11-.43-.25-.83-.37-1.25-.22-.83-.55-1.65-.83-2.46a31.31,31.31,0,0,0-2.19-4.69,30.07,30.07,0,0,0-6-7.63,12.47,12.47,0,0,0-4.16-2.62,2.55,2.55,0,0,0-.78-.18l-.17,0-.1,0-.2.09c-.25.12-.49.27-.82.41a5.64,5.64,0,0,1-1.58.44c-.35.08-1.82,0-1.85.19a6.55,6.55,0,0,0-1,.32,22.38,22.38,0,0,0-4.07,2c-.33.19-.7.48-1.05.7-.17.11-.35.25-.53.38l-.12.1-.38.33c-.25.21-.52.48-.77.7s-.51.48-.77.73-.51.48-.77.76c-1,1-2.09,2.12-3.14,3.31s-2.09,2.46-3.13,3.82c-1.27,2.37-4.06,2.58-6.47.3a7.62,7.62,0,0,1-2.3-5.35l-.51.51-1,.57a3.94,3.94,0,0,1-3.27.23l-1.51-.43c-2.57-1.18-5.42-1.43-8.19-2.81l-.65-1-.39,0a5.56,5.56,0,0,1-3.19-1l-.94-1a12.83,12.83,0,0,1-2.28-4,4.63,4.63,0,0,1-1-1.37,6.41,6.41,0,0,1-3.48-2.9.88.88,0,0,1-.85-1,1,1,0,0,1,.25-.51h0a7,7,0,0,0-1-.24c-.37.17-.6.25-.6.25L218,56a5.86,5.86,0,0,1-1.78.05c-2.47-1.13-2.49-1.13-3.18-2,0-.11-.07-.22-.1-.32l-1.09.3a2.93,2.93,0,0,1-.56-.06c-.46-.37-.46-.37-.71-.43a2.92,2.92,0,0,1-.36-.28c-.18-.71-.18-.71-.31-.85a1.29,1.29,0,0,1-.06-.36l.35-.71,1.88.36-.21-.5.69.31-.56-.34.67-.07h-.85a5.88,5.88,0,0,0,1.45-1,2.41,2.41,0,0,0,.71-.69,1.63,1.63,0,0,1-.28-.21c1.19-.64,1.18-.65,2.35-1.25l.51.11a.58.58,0,0,1,.32-.54l.6-.33.05-.14,0,0,.24-.54.05-.13h0c.17-.38.42-.92,1.11-2.35a8.88,8.88,0,0,1,1.09-.44h-.44c-.29,0-.48-.52-.61-.49a42.6,42.6,0,0,0-8.68,3.81,1.2,1.2,0,0,1-1.42.24.76.76,0,0,1,0-1.21c2.89-6,10-10.14,16.87-11.72l4.93-2-.35-.09,1.41-.31.13-.06-1.39-.25c-.26,0-.52.07-.77.12-3.79,1.61-7.79,2.36-11.75,3.76-2.11.75-4.24,1.07-6.4,1.7A1,1,0,0,1,210.3,37c-.2-.31,0-.79.5-1,5.27-4.31,12.76-7.77,19.35-7.69a8.06,8.06,0,0,1,3.56-.83l.06,0-1.07-.28a19.34,19.34,0,0,1,2.62-.09l-.77-.7c2.29-.7,4.65-1.53,7-2.23A26.07,26.07,0,0,1,248.77,23l.53-.06a21,21,0,0,1,2.63-1.53l.73-.33.23-.09,1.06-.26,2.21-.45a58.88,58.88,0,0,1,9.51-1.05c-1.14,0-2.27,0-3.38.1s-2.24.13-3.33.27-2.2.23-3.27.4l-1.64.25-1.41.25h0l.19-.05.42-.11.86-.2,1.73-.37c1.15-.25,2.35-.42,3.54-.61a58.41,58.41,0,0,1,7.33-.63c1.25,0,2.52,0,3.79,0s2.56.18,3.85.29l1.94.27,1,.14.49.08.24,0,.13,0,3.32.69A46.23,46.23,0,0,1,293,24.15a44,44,0,0,1,5.43,3.36c.79.61,1.58,1.22,2.34,1.84s1.43,1.27,2.13,1.91a54.46,54.46,0,0,1,11.54,16.29A61.08,61.08,0,0,1,319.3,62.9a53.48,53.48,0,0,1,.92,11.9,77.47,77.47,0,0,1-.35,16.83,93.18,93.18,0,0,1-3.61,16.05,107.84,107.84,0,0,1-6.14,14.93c-.62,1.18-1.2,2.39-1.86,3.55l-1,1.75-1,1.64-2,3.31c-.65,1.11-1.32,2.21-2.05,3.28-2.79,4.33-5.74,8.65-8.89,12.78L291,152.05l-2.41,3-1.21,1.53-1.21,1.46L283.8,161c-3.15,3.83-6.23,7.56-8.76,11a56.34,56.34,0,0,0-5.79,9.93c-.54,1.32-1.09,2.35-1.44,2.41s-.17-1,.32-2.34c.47-1.16,1.06-2.32,1.59-3.52s1.34-2.39,2.06-3.62,1.61-2.47,2.52-3.76,1.88-2.54,2.94-3.88c4.15-5.25,9-10.9,13.55-16.79A201.62,201.62,0,0,0,303.46,132l2.83-4.76c.94-1.66,1.85-3.36,2.71-5.08a104,104,0,0,0,4.6-10.6c-1.16,3-2.5,6-3.94,8.82-.72,1.44-1.49,2.85-2.26,4.26l-1.21,2.08-1.23,2c-1.64,2.62-3.24,5.27-5.06,7.81-.9,1.27-1.73,2.61-2.67,3.85l-2.82,3.78c-3.81,5-7.89,9.85-12,14.4s-8,8.92-11.2,13.12L270,173.31c-.36.54-.69,1.07-1,1.61l-1,1.59c-.33.53-.58,1.06-.88,1.59-.56,1.05-1.18,2-1.63,3.06l-.76,1.5-.38.73-.33.77-.74,2-.36.91-.28.61a25.81,25.81,0,0,0-1.05,2.43,47.28,47.28,0,0,0-1.63,5,26.4,26.4,0,0,0-.84,5.13,12.41,12.41,0,0,0,.7,5.1,7.5,7.5,0,0,0,3.29,3.88,12.19,12.19,0,0,0,5,1.44,27.09,27.09,0,0,0,5.25-.12c.88-.1,1.74-.22,2.6-.37l1.29-.23c.47-.07.67-.14,1.76-.3,3.31-.52,5.82-.94,8.5-1.51s5.18-1.2,7.66-1.93a99.84,99.84,0,0,0,14.34-5.47c2.38-1.12,4.57-2.24,7.3-3.68l8.19-4.34c5.67-3,11.77-6.07,18.56-9a130.89,130.89,0,0,1,14.83-5.35,78.54,78.54,0,0,1,17.55-3.3,52.45,52.45,0,0,1,20.78,3,49.47,49.47,0,0,1,9.47,4.7,61.47,61.47,0,0,1,7.64,5.8,63.48,63.48,0,0,1,6.51,6.86,67.59,67.59,0,0,1,5.05,7.27,99.1,99.1,0,0,1,6.83,13.9l1.31,3.28c.45,1.14.92,2.36,1.35,3.56.87,2.4,1.63,4.85,2.33,7.3a111.19,111.19,0,0,1,3.17,15,55.69,55.69,0,0,1,.6,7.35,11.68,11.68,0,0,1-.37,3.82c-.44.71-1-3.09-1.74-8.4a110,110,0,0,0-3.43-15.43c-.75-2.54-1.6-5.06-2.53-7.56-.47-1.24-1-2.48-1.48-3.7l-1.47-3.46A103,103,0,0,0,422.51,204a58.33,58.33,0,0,0-12.38-14.13c-1.25-1.06-2.58-2-3.9-2.94l-2-1.33c-.67-.43-1.5-.88-2.25-1.3a46.62,46.62,0,0,0-9.94-4,50.46,50.46,0,0,0-20.4-1.14,75.59,75.59,0,0,0-8.85,1.79c-1.37.37-2.64.74-4,1.12s-2.59.79-3.87,1.22a155.11,155.11,0,0,0-14.67,5.86c-4.69,2.13-9.15,4.38-13.47,6.62L320.44,199l-3.09,1.61-2.94,1.49a101.52,101.52,0,0,1-23.21,8.36c-2,.48-4.09.85-6.16,1.22l-3.21.49-3.42.49a61.32,61.32,0,0,1-7.81.8,26.11,26.11,0,0,1-4-.17,15,15,0,0,1-3.84-.93,9.55,9.55,0,0,1-4.58-3.68,11,11,0,0,1-.84-1.81,15.45,15.45,0,0,1-.6-6.78,34.7,34.7,0,0,1,1.44-6.59,1,1,0,0,1-.36.1c-.44,0-.73-.42-.83-1.18a42.63,42.63,0,0,0-2,8.15,24.41,24.41,0,0,0-.18,4.28,15.35,15.35,0,0,0,.89,4.23,9.73,9.73,0,0,0,4.22,4,15.5,15.5,0,0,0,5.71,1.47,47.75,47.75,0,0,0,11.56-.88l1.43-.24,2.43-.37,2.37-.37c.75-.12,1.5-.23,2.24-.37,3-.51,5.89-1.13,8.79-1.84a121.69,121.69,0,0,0,17.26-5.68l3-1.25,3-1.36,6.35-2.9c4.27-1.94,8.62-3.89,13.08-5.71s9-3.53,13.74-5c2.36-.73,4.74-1.43,7.17-2,1.21-.31,2.42-.61,3.65-.87l1.85-.4,1.92-.38a64.88,64.88,0,0,1,10.37-1.7,45.3,45.3,0,0,1,11.38.55,41.69,41.69,0,0,1,11.19,3.65c.89.41,1.72.91,2.57,1.38s1.56,1,2.34,1.46a49,49,0,0,1,4.4,3.26,52.54,52.54,0,0,1,7.58,7.71,67.57,67.57,0,0,1,5.7,8.47c1.63,2.84,3,5.66,4.31,8.43.63,1.38,1.25,2.76,1.84,4.12s1.23,2.87,1.81,4.32a9.11,9.11,0,0,1,.7,2.32c0,.38-.25-.09-.65-1s-.85-2-1.29-3l-1.35-2.87c-.87-1.86-1.81-3.75-2.78-5.66a88.17,88.17,0,0,0-7.08-11.61,57.25,57.25,0,0,0-4.73-5.62,52.23,52.23,0,0,0-5.65-5c-1-.79-2.06-1.49-3.1-2.2s-2.07-1.34-3.3-2a38.8,38.8,0,0,0-7.47-3.14c3.13,1.54,4.6,3,4.1,3.48s-3-.17-6.66-.76A36.57,36.57,0,0,1,396,192c1,.47,2,1.07,2.94,1.61s1.8,1.14,2.66,1.78c2.16,1.54,3.55,3.14,3.3,3.3s-2-.94-4-2.34c-.87-.62-1.77-1.18-2.67-1.76s-1.89-1.11-2.9-1.56a34.64,34.64,0,0,0-6.23-2.34,38.93,38.93,0,0,0-13.05-1.17,61.73,61.73,0,0,0-12.23,2.25c-3.86,1-7.63,2.3-11.32,3.71a261.76,261.76,0,0,0-25,12.31l-6,3.19c-2,1-3.89,2-5.87,3a110.23,110.23,0,0,1-12.05,4.91,14.75,14.75,0,0,1,5.41.13h0c2.56-1,5.07-2,7.55-3.19,5.55-2.83,11.09-6.16,16.79-9.3s11.54-6.26,17.67-9c3.06-1.36,6.21-2.59,9.42-3.7,1.59-.57,3.23-1.06,4.86-1.56s3.35-.92,5.09-1.28a45.79,45.79,0,0,1,10.87-1,35.34,35.34,0,0,1,11.12,2.12l1.34.51,1.3.58c.88.38,1.7.84,2.53,1.29a46.56,46.56,0,0,1,4.64,3,45.43,45.43,0,0,1,8,7.56c4.65,5.62,7.87,11.85,10.73,17.92,1.41,3,2.84,6.2,4,9.41s2.27,6.48,3.17,9.79a112.18,112.18,0,0,1,3.6,20.19,5.59,5.59,0,0,1,0,2,4.64,4.64,0,0,1-.32-1.74,112.82,112.82,0,0,0-4.82-24.2,105.16,105.16,0,0,0-4.4-11.58c-1.69-3.72-3.39-7.37-5.41-11l0,.06c.25.63.18.81-.26.22a16.76,16.76,0,0,1-1.28-2.28c-.31-.72-.15-.73.24-.23a57.2,57.2,0,0,0-7-9.69,46.74,46.74,0,0,0-4.41-4.26,45,45,0,0,0-5-3.6,36.44,36.44,0,0,0-5.55-2.9,35.51,35.51,0,0,0-6.05-1.85,38.52,38.52,0,0,0-12.37-.46,61.76,61.76,0,0,0-11.48,2.6c-3.64,1.14-7.2,2.47-10.66,3.94a202.59,202.59,0,0,0-19.87,10c6-3.14,12.16-6.2,18.56-8.83,3.19-1.32,6.45-2.52,9.77-3.56a78.27,78.27,0,0,1,10.24-2.6,42.55,42.55,0,0,1,10.9-.56,33.75,33.75,0,0,1,10.76,2.72,40.73,40.73,0,0,1,9.22,5.84,44.22,44.22,0,0,1,7.35,7.83,65.35,65.35,0,0,1,5.45,7.49,7.76,7.76,0,0,1,.93,2.08c0,.26-.38-.22-.83-.95s-.88-1.45-1.36-2.16c2.6,4.59,3.76,8.45,3.14,8.66-.75.06-3.12-3.67-5.87-8.2A45.53,45.53,0,0,0,396.86,200a30.85,30.85,0,0,0-9.68-4,33.69,33.69,0,0,0-10.46-.62c-1.51.17-3,.44-4.49.76s-2.93.88-4.36,1.41a42.25,42.25,0,0,1,16-1.3,29.16,29.16,0,0,1,7.63,2.08,34.56,34.56,0,0,1,6.84,4,44,44,0,0,1,10.75,11.66,124,124,0,0,1,7.64,14.27c.82,1.66,1.3,3.17,1.11,3.3s-1-1.15-1.81-2.79a135.38,135.38,0,0,0-7.13-12.23,45.78,45.78,0,0,0-9-10.07,35.52,35.52,0,0,0-5.48-3.69,28.11,28.11,0,0,0-5.86-2.45,29.31,29.31,0,0,0-12.6-.59,50,50,0,0,0-6.49,1.48c-2.17.64-4.4,1.41-6.57,2.21A138.2,138.2,0,0,0,350,209c-4.25,2.08-8.45,4.38-12.7,6.72s-8.46,4.76-13,7.14a125.24,125.24,0,0,1-18.17,9.78,133.73,133.73,0,0,1-20,6.83c1.74-.25,3.55-.52,5.32-.86a110.6,110.6,0,0,0,31.66-11c4.85-2.56,9.06-5.2,13.26-7.73s8.26-5,12.35-7.35,8.19-4.49,12.4-6.35a79,79,0,0,1,12.73-4.6,29.94,29.94,0,0,1,12.49-.65,24.7,24.7,0,0,1,6,1.91c1,.43,2,1,2.94,1.57l1.43.91c.47.32.92.67,1.38,1a3.26,3.26,0,0,1,1.24,1.29c0,.17-.57-.14-1.27-.71a33.76,33.76,0,0,0-5.54-3.35,22.91,22.91,0,0,0-5.65-1.89A28.29,28.29,0,0,0,375,202a51,51,0,0,0-6.08,1.82c-2.09.76-4.19,1.58-6.26,2.5-4.15,1.81-8.27,3.89-12.45,6.19-6.94,3.81-13.63,8-20.56,12.21a144,144,0,0,1-22.78,11.34A122.27,122.27,0,0,0,330,225.56c6.86-3.94,13.27-7.88,19.69-11.38a127.42,127.42,0,0,1,19.49-8.87c6.46-2.23,12.53-3.19,18.14-1.73a7,7,0,0,1,2.47,1,1.15,1.15,0,0,1,.62,0c.36.11.71.25,1.08.38a9,9,0,0,1,1.12.45l1.17.54c.39.19.76.41,1.15.61.78.4,1.5.91,2.27,1.39s1.48,1,2.17,1.64a4.62,4.62,0,0,1,1.31,1.48C400.9,211.49,400.5,211.27,399.9,210.76ZM231,43.09l-.24-.06.65-.06,1.39.56Zm-4.75,9.32h0l-.83-.26Zm75.32,80.64c1.16-1.88,2.31-3.76,3.47-5.63s2.27-3.93,3.32-5.93a102.24,102.24,0,0,0,5.48-12.55,86.57,86.57,0,0,0,5.27-27.42A78.93,78.93,0,0,1,318,95.3a81.89,81.89,0,0,1-2.63,10.25,88.75,88.75,0,0,1-3.74,9.75c-1.41,3.16-3,6.23-4.7,9.23l-1.31,2.22-1.35,2.1Zm-79.1-89.87a12.83,12.83,0,0,1,3.38.46,5.84,5.84,0,0,1,1.42-1.18,39.94,39.94,0,0,1,4.5-2.32c-.43-.24-.07-.4.07-.55l.47-.4-5.11,2C225.63,41.83,224,42.67,222.45,43.18ZM214,52.07l-.24,0-.28-.72Zm.5,1.19.26-.1C214.88,53.41,214.75,53.4,214.49,53.26Zm2.38-.86a2,2,0,0,0-.52-.07Zm15.9,13.88-2-3.08,1.83,3Z"/><path d="M300.18,81.69l.37,0a.78.78,0,0,1-.56.47c3.49-.1,6-3,7.23-5.78A1.39,1.39,0,1,0,306.07,74a3.26,3.26,0,0,1-.68,0,13.51,13.51,0,0,0-5.56.28h1.28a5.25,5.25,0,0,0-1.61.53l.41.24a4.28,4.28,0,0,0-4.14,3.6,3,3,0,0,0,3.49,3.07Z"/><path d="M305.38,83.58c-1.13.11-2.21.22-3.34.31l-.31-.11.75.92,0-.07a6.15,6.15,0,0,1,2.18-3.42l.32-.4a.9.9,0,0,0,0-.75,1.08,1.08,0,0,0-1.49-.46l-.7.31c-2,.42-4.39,2-4,4.21.1.5.62.85,1,1.25a1.56,1.56,0,0,0,2.13.36,1.49,1.49,0,0,0,.63-2l.48-.12-.13.42c-.19-.69.39-1.27.7-1.89l.67-.65-1.48-1.2-.27.45a2.19,2.19,0,0,1,.2.11,18.23,18.23,0,0,1-1.54,2.59l-.62,1.24a.8.8,0,0,0,.76.91H302l-.34,0c1.27-.39,2.51-.93,3.79-1.25a.4.4,0,0,0,.35-.42A.33.33,0,0,0,305.38,83.58Z"/><path d="M301.87,86.24a1,1,0,0,0-.71.19v.19l.51,0C302,86.66,302,86.44,301.87,86.24Z"/><path d="M301.15,86.62h-.22l.2.07,0,0Z"/><path d="M385.71,75.58a12.18,12.18,0,0,0,6.78.46,18.05,18.05,0,0,0,7.32-4.11c.16-.15.26-.31.21-.37s-.21,0-.36.15a17.92,17.92,0,0,1-7.22,4.05,11.86,11.86,0,0,1-6.61-.47c-.16,0-.35,0-.39,0S385.54,75.53,385.71,75.58Z"/><path d="M422.33,45.23c0,.2,0,.22.15,0a1.75,1.75,0,0,0,.23-.64c0-.17-.06-.19-.15,0A1.91,1.91,0,0,0,422.33,45.23Z"/><path d="M426.36,48.54c-.3,1.16-.52,2.28-.73,3.29a2,2,0,0,1-.2.52c.12,0,.13.22,0,.64a83.79,83.79,0,0,1-10.84,25.39.86.86,0,0,1,0,.51,8,8,0,0,1-1.92,3l-.8.79a36.71,36.71,0,0,1-11.4,8.2c-.43.28-.9.57-1.4.86a16.16,16.16,0,0,1-1.72.74,20.87,20.87,0,0,1-3.12,1.23,21.26,21.26,0,0,1-3.34.86,30.68,30.68,0,0,1-6.85.49c.26.13.42.26.4.38-.12.28-1.19.38-2.4.22-.59-.08-1.14-.19-1.71-.29a43.83,43.83,0,0,0,5.14.9l.74.07,1.55,0a12,12,0,0,0,1.58-.05c1.07-.1,2.16-.18,3.23-.37s2.33-.52,3.46-.83,2.16-.79,3.21-1.21,2-1,3-1.49,1.86-1.11,2.7-1.73a38.45,38.45,0,0,0,8.41-8.27,56.27,56.27,0,0,0,5.54-9L420,71.14l1-2.29c.32-.77.66-1.52.95-2.29l.84-2.3a1.9,1.9,0,0,1,.33-.65c.11-.09.17,0,.1.19l-.85,3c-.29,1-.63,1.95-.93,2.92-.58,2-1.36,3.88-2.13,5.87a44.31,44.31,0,0,1-7.56,12.37,37.82,37.82,0,0,1-8.16,7c-.8.52-1.65,1-2.5,1.44s-1.8.84-2.72,1.25l-1.4.58c-.47.19-1,.32-1.48.47-1,.29-2,.59-3,.82a40.91,40.91,0,0,1-12,.48l-2.66-.31-2.43-.39c-.84-.13-1.53-.27-2.27-.4l-2.14-.4-2-.52-1.87-.43-.92-.21-.86-.17-1.7-.31a36,36,0,0,0-6.14-.45,38.85,38.85,0,0,0-11.41,1.93,50,50,0,0,0-8.06,3.4c-2.78,1.7-5.5,3.42-8.25,5.41-1.27,1.25-3.4.89-4.83-.86a4.75,4.75,0,0,1-1-3.64l-.41.24-.76.22a3.11,3.11,0,0,1-2.29-.32l-1-.46c-1.62-1.07-3.5-1.59-5.14-2.75l-.31-.67-.24-.08a3.75,3.75,0,0,1-1.95-1l-.48-.73a8.63,8.63,0,0,1-1-2.77,3.12,3.12,0,0,1-.51-1,4.27,4.27,0,0,1-1.91-2.18.59.59,0,0,1-.44-.75.73.73,0,0,1,.19-.3h0c-.24-.11-.31-.14-.6-.25l-.39.1-1.12.42a3,3,0,0,1-1.05-.15c-1.38-1-1.38-1-1.73-1.55a1.55,1.55,0,0,1,0-.21l-.65.08a1.83,1.83,0,0,1-.32-.09c-.24-.29-.24-.29-.38-.35a1.57,1.57,0,0,1-.19-.21c0-.46,0-.46-.12-.56a1,1,0,0,1,0-.23l.24-.41,1.06.41-.09-.33.38.26-.31-.27.4,0-.5-.08a2.94,2.94,0,0,0,.9-.48,1.37,1.37,0,0,0,.45-.37l-.15-.16,1.45-.58a2.65,2.65,0,0,1,.3.11.33.33,0,0,1,.21-.32l.37-.15,0-.1v0l.17-.33,0-.08h0l.77-1.44a3.32,3.32,0,0,1,.66-.2l-.26,0c-.18,0-.28-.38-.35-.37a23.61,23.61,0,0,0-5.26,1.71.63.63,0,0,1-.83,0,.52.52,0,0,1,.08-.77c1.91-3.6,6.16-5.83,10.31-6.37,1-.32,2-.65,3-1l-.21-.08.85-.12.08,0-.84-.29-.46,0c-2.26.85-4.67,1-7,1.68-1.26.35-2.54.38-3.79.64a.47.47,0,1,1-.4-.83c3.17-2.45,7.59-4.3,11.49-3.81a4,4,0,0,1,2.09-.35h0l-.64-.26c.56-.12,1,.13,1.55.1l-.47-.55c2.68-.68,5.37-1.94,8.12-1.81l.3,0A14.71,14.71,0,0,1,326,68.94c.12-.09.25-.17.38-.25l.1-.06.25-.09.52-.2c.68-.25,1.4-.49,2.15-.71l-3.08.63c1-.42,2.1-.85,3.18-1.23s2.27-.64,3.47-.9a42.74,42.74,0,0,1,5.08-.65,36.29,36.29,0,0,1,5,0,21.7,21.7,0,0,1,7.69,1.74A70.31,70.31,0,0,1,369.2,70c5.82,1.62,10.94,3.75,14.84,4.82.38.08.68.29.71.47s-.27.24-.66.16c-2.8-.55-6.31-1.76-10.2-3a87.68,87.68,0,0,0-12.62-3,79.75,79.75,0,0,1,10.49,3.17c3.29,1.2,6.39,2.52,9.14,3.52.73.23,1.38.4,2.08.61s1.24.37,1.85.63a8.94,8.94,0,0,0,1.1.25L387,78l1,.1a5,5,0,0,0,.93.07,9,9,0,0,0,1.8-.09c.3,0,.6-.06.9-.11l.91-.25a12.79,12.79,0,0,0,3.74-1.62l.93-.58.92-.69a21.6,21.6,0,0,0,1.81-1.57,43.74,43.74,0,0,0,5.44-6.66,75.19,75.19,0,0,0,4.51-8.11c1-2.06,1.9-4.21,2.81-6.29.43-1.05.83-2.13,1.25-3.19s.85-2.1,1.22-3.19c.75-2.17,1.59-4.29,2.32-6.51s1.56-4.42,2.3-6.73c.37-1.23.95-2.31,1.26-2.38s.27.88-.1,2.12c-2.74,9.73-5.85,19.25-10.23,27.93A57.11,57.11,0,0,1,402.92,72a28.8,28.8,0,0,1-4.82,4.31,16.69,16.69,0,0,1-5.29,2.47,13,13,0,0,1-4.48.43.51.51,0,0,1,0,.17.65.65,0,0,1-.41.55,6.94,6.94,0,0,0,1.35.08,6.67,6.67,0,0,0,1.34,0q.66-.07,1.35-.12c.45-.1.91-.21,1.38-.3,5-1.94,9.28-6.43,13.63-12a103.41,103.41,0,0,0,7.91-11.88,164,164,0,0,0,6.26-17.25,1.41,1.41,0,0,1,.26-.54c.08-.07.09.07,0,.32-.53,2.07-1,4.19-1.7,6.26s-1.26,4.19-2,6.25c.45-.56.84-.86,1.08-.71s.28.75.14,1.58l1.16-2.78c.23-.59.5-1,.62-1s.08.57-.13,1.13c-.8,1.91-1.55,3.83-2.38,5.7s-1.67,3.76-2.65,5.55a68.6,68.6,0,0,1-7.27,12.6,3.33,3.33,0,0,1,1.46-.66h0l1.31-1.86a123.46,123.46,0,0,0,8.77-19.21c2.47-6.7,4.65-13.59,6.68-20.58.08-.27.19-.48.25-.47s0,.23,0,.47q-.93,3.16-1.87,6.31c-.66,2.09-1.31,4.17-2,6.25v0c.09-.16.16-.17.15,0a1.85,1.85,0,0,1-.22.65c-.11.18-.17.14-.15,0a163,163,0,0,1-9,22.26,141.5,141.5,0,0,0,9-20.16c.19-.78.39-1.57.59-2.36a1.28,1.28,0,0,1,.26-.55c.07-.05.08.13,0,.35s-.1.44-.16.66c.48-1.32,1-2.27,1.34-2.15s.19,1.41-.29,2.8c-.63,1.86-1.23,3.72-1.88,5.57s-1.38,3.67-2.12,5.48l-.46,1.19-.35,1.23c1.33-2.74,2.46-5.57,3.63-8.39s2.17-5.68,3.09-8.57c.15-.5.37-.89.48-.87s.08.45-.07,1a152.56,152.56,0,0,1-4.79,15.49,90.83,90.83,0,0,1-7.07,15,54.89,54.89,0,0,1-5.6,10.23l1.05-1.12c4.38-4.86,6.91-10.14,9.06-15.3s3.68-10.43,5.48-15.91a.92.92,0,0,1,.27-.51c.07,0,.06.2,0,.48-1.71,5.37-3.06,10.4-5.28,15.71a93,93,0,0,1-6.33,12.53,65.17,65.17,0,0,0,6.65-12c.82-2.06,1.72-4.08,2.42-6.16.37-1,.75-2.06,1.13-3.09s.68-2.08,1-3.13a3.39,3.39,0,0,1,.41-.93.33.33,0,0,1,0-.23c.24-1.09.5-2.26.78-3.45a1.35,1.35,0,0,1,.27-.59C426.4,48.13,426.41,48.28,426.36,48.54ZM314,83.2l-.15-.06h.4l.85.5Zm-3.34,5.7h0l-.49-.25Zm57.39-16.83a107.51,107.51,0,0,0-15.52-3.25c1.31,0,2.61,0,3.91.18A62.67,62.67,0,0,1,368.05,72.07ZM308.79,82.52a7.41,7.41,0,0,1,2,.59,3,3,0,0,1,.91-.66,24.15,24.15,0,0,1,2.8-1.18c-.26-.19,0-.28.06-.36l.3-.24-3.17.93C310.75,81.89,309.77,82.31,308.79,82.52Zm-5.49,5-.14,0-.11-.48S303.15,87.2,303.3,87.5Zm.22.8.16,0C303.74,88.44,303.66,88.42,303.52,88.3ZM305,88a1.09,1.09,0,0,0-.31-.09Zm8.67,10.39-1-2.14.87,2.1Z"/></g></g></svg>