<svg xmlns="http://www.w3.org/2000/svg" viewBox="0 0 506.25 280.02"><g id="Layer_2" data-name="Layer 2"><g id="Layer_1-2" data-name="Layer 1"><path d="M217.59,102.85l.63,0a1.69,1.69,0,0,1-.93,1A15.75,15.75,0,0,0,225,99.42,39.58,39.58,0,0,0,228,96a25.46,25.46,0,0,0,2.31-3.77c1.51-.82,2.54-2.27,2.09-3.44s-2.19-1.48-3.88-.66a5.84,5.84,0,0,1-1.22.22,21.18,21.18,0,0,0-5,.28,25,25,0,0,0-2.64.59c-.85.26-1.71.55-2.58.89l2.33-.36a11.38,11.38,0,0,0-2.94,1.38l.73.3A10.14,10.14,0,0,0,212,94.26,7.87,7.87,0,0,0,209.78,99c-.16,3.28,2.77,5,6.24,4.16Z"/><path d="M226.62,104.8c-1.91.45-3.9.79-5.74,1.28l-.53-.09,1.33,1.36-.05-.12c.09-2.28,1.93-4.42,3.69-6.31l.56-.76a1.63,1.63,0,0,0,.06-1.31c-.35-.86-1.5-1.07-2.58-.46l-1.23.71c-3.54,1.13-7.59,4.76-6.74,8.3.21.82,1.13,1.26,1.8,1.83a2.63,2.63,0,0,0,3.66,0,2.76,2.76,0,0,0,.9-3.62c.27-.1.52-.23.8-.33-.07.25-.14.51-.2.76-.4-1.15.67-2.22,1.19-3.36l1.16-1.26-2.56-1.74-.49.85a2.32,2.32,0,0,1,.35.14c-.43.83-.84,1.64-1.27,2.43a22.58,22.58,0,0,1-1.32,2.4l-1,2.29a1.19,1.19,0,0,0,1.37,1.32L221,109h-.58c1.06-.49,2.09-1,3.12-1.59a28.31,28.31,0,0,1,3.26-1.4.8.8,0,0,0,.59-.79A.52.52,0,0,0,226.62,104.8Z"/><path d="M220.78,110.12a1.84,1.84,0,0,0-1.19.51v.31l.87-.09C221.08,110.78,221.08,110.4,220.78,110.12Z"/><path d="M219.59,110.94l-.37,0,.34.08,0-.06Z"/><path d="M348.77,226.58c9.43-8.39,16.22-22.24,20.1-37.17a137.08,137.08,0,0,0,3.87-23.29,204,204,0,0,0,.26-24.56,5.77,5.77,0,0,0-.33-2.15,4.19,4.19,0,0,0-.12,1.9,205.39,205.39,0,0,1-.25,24.52A137.65,137.65,0,0,1,368.47,189c-3.82,14.85-10.56,28.61-19.83,37a3.4,3.4,0,0,0-1.06,1.27C347.65,227.4,348.17,227.09,348.77,226.58Z"/><path d="M445.22,10.81c-.89.08-.85.19.07.25.39,0,.94,0,1.51,0s1.13.07,1.57.07c.74,0,.73-.13-.06-.26a10.76,10.76,0,0,0-1.6-.17C446.14,10.75,445.6,10.77,445.22,10.81Z"/><path d="M438.56,19.39l-3.15.8c-1,.31-2,.73-3,1.08-.48.19-1,.34-1.42.55l-1.33.68c-.87.47-1.74.86-2.53,1.35a16.63,16.63,0,0,1-1.81,1c.31,0-.37.55-1.69,1.41A55.26,55.26,0,0,0,419,29.87c-.74.67-1.53,1.25-2.23,2L414.68,34a66.19,66.19,0,0,0-7.53,9.53C406,45.16,405,47,404,48.76c-.48.91-.93,1.84-1.4,2.76l-.69,1.38-.61,1.42a68.77,68.77,0,0,0-4,11.65l-.68,3c-.19,1-.34,2.08-.52,3.12-.39,2.06-.56,4.2-.8,6.31-.15,1-.16,2.13-.24,3.2s-.15,2.14-.18,3.22l-.06,3.26,0,1.62,0,1.65a261.08,261.08,0,0,0,2,26.8,4.87,4.87,0,0,1,.61,1.51,77.27,77.27,0,0,1,1.9,13l.24,4.1c.57,8.28,1,16.77.78,25.45A169.52,169.52,0,0,1,397.72,188c-.19,1.78-.37,3.7-.73,5.73-.18,1-.36,2.06-.55,3.13l-.71,3.26a122.29,122.29,0,0,1-6.62,22.42,103.88,103.88,0,0,1-5.21,11l-1.6,2.73-.8,1.36-.88,1.33-1.78,2.66-1.93,2.58c.8-.74,1.35-1.14,1.51-1s-.43,1.27-1.35,2.65a27,27,0,0,1-1.75,2.26c-.7.81-1.41,1.71-2.29,2.55l-2.59,2.58c-.89.84-1.84,1.64-2.76,2.46a84.74,84.74,0,0,0,14.24-15.15c.57-.8,1.15-1.51,1.62-2.19a104,104,0,0,0,10-19.54c5.75-14.8,8.29-29.75,9.17-44.34a177.35,177.35,0,0,0-.08-21.64c-.43-7-1.17-13.86-2-20.49-1.62-13.28-3.45-25.84-4-38a121.31,121.31,0,0,1,.4-17.84l.21-2.18.32-2.15c.22-1.43.4-2.89.73-4.22l.43-2c.13-.68.37-1.35.54-2l.57-2c.19-.68.46-1.34.68-2a13.47,13.47,0,0,1,1-2.38c.28-.36.33-.24.07.55s-.53,1.7-.79,2.54c-.13.42-.27.84-.38,1.26l-.31,1.28c-.2.84-.4,1.68-.61,2.52s-.28,1.68-.43,2.51c-.33,1.62-.44,3.43-.64,5.14l-.14,1.3-.07,1.31-.13,2.62a137.78,137.78,0,0,0,1.11,21.38c.87,7.33,2.15,14.92,3.48,23.1s2.75,16.94,3.66,26.73c.16,1.44.27,2.92.37,4.4s.23,2.95.29,4.46l.19,4.52.08,4.53c0,6.06-.25,12.15-.85,18.27a145.83,145.83,0,0,1-8.32,37c-1.17,3.08-2.46,6.17-3.92,9.23a102.74,102.74,0,0,1-4.94,9.17,91.88,91.88,0,0,1-13.45,17.27,76.26,76.26,0,0,1-19.14,14.15l-2.86,1.41c-.95.48-2,.86-3,1.28s-2,.82-3.08,1.18l-3.22,1-1.63.47c-.55.15-1.12.26-1.68.39-1.13.25-2.27.48-3.41.71s-2.33.32-3.5.47l-3.84.39a61.37,61.37,0,0,1-16.24-1.73,54.64,54.64,0,0,1-14.94-6.15A53.08,53.08,0,0,1,286.86,262a54.59,54.59,0,0,1-8.73-13.38,47,47,0,0,1-2.87-7c-.44-1.33-.77-2.58-1.12-3.87s-.6-2.51-.8-3.69a75.06,75.06,0,0,1-1.23-13.43,100,100,0,0,1,.66-11.88c.25-1.84.45-3.76.77-5.52l.46-2.7c.15-.92.3-1.63.46-2.45.59-3.18,1.31-6.43,2.07-9.64s1.62-6.36,2.36-9.13a84.25,84.25,0,0,0,2.73-13.35c.12-1.09.25-2.17.34-3.34s.2-2.33.28-3.54l.07-.9c0-.3,0-.44,0-.67l0-1.23c0-.4-.05-.74-.06-1.11a8,8,0,0,0-.08-1c-.05-.32-.09-.64-.11-1s-.13-.54-.18-.81a4.29,4.29,0,0,0-.19-.73,3.81,3.81,0,0,0-.21-.65,9.19,9.19,0,0,0-1.08-2.09,32,32,0,0,0-2.88-3.76c-.73-.84-1.55-1.75-2.52-2.76l-.74-.77-.19-.19-.08-.1h0l-.14,0a1.9,1.9,0,0,1-.46-.29c-.64-.19-1-.42-1.39-.29a.24.24,0,0,1-.12,0c-.05,0-.11.05-.16.06a.49.49,0,0,1-.27,0,.85.85,0,0,1-.35.1c-.05,0-.09,0-.16,0l-.21.08a2.9,2.9,0,0,1-.41.06l-.27.1,0,0-.16.1c-.11.08-.19.06-.33.19a3.1,3.1,0,0,1-.76.43c-1.09.64-2.46,1.3-4.09,2.25-.52.66-1.36.59-2.42,0a10.4,10.4,0,0,1-3.4-3,9.27,9.27,0,0,1-2-5.66l-.5.3-1,.16a5.25,5.25,0,0,1-3.26-.92l-1.48-.79c-2.51-1.75-5.43-2.66-8.16-4.4l-.6-1-.39-.1a6.26,6.26,0,0,1-3.16-1.4l-.88-1.12a13.2,13.2,0,0,1-2.07-4.31,5,5,0,0,1-1-1.49A6.76,6.76,0,0,1,231,117a.93.93,0,0,1-.8-1.15,1.2,1.2,0,0,1,.27-.54h0a8.61,8.61,0,0,0-1-.3c-.38.17-.61.25-.61.25-.94.51-.94.51-1.79.93a5.17,5.17,0,0,1-1.76,0c-2.4-1.27-2.41-1.26-3.06-2.15,0-.11-.06-.23-.08-.34-.8.22-.86.24-1.09.29a2.53,2.53,0,0,1-.56-.07c-.43-.4-.43-.4-.68-.47a2,2,0,0,1-.33-.29c-.15-.76-.14-.76-.27-.9a2.17,2.17,0,0,1,0-.39c.24-.47.33-.66.37-.74l1.84.4-.18-.54.66.35-.54-.38.66-.06h-.84a5.79,5.79,0,0,0,1.48-1,2.51,2.51,0,0,0,.72-.75,1.69,1.69,0,0,1-.26-.22,18.21,18.21,0,0,1,2.41-1.33,3.8,3.8,0,0,1,.51.13.63.63,0,0,1,.38-.57l.63-.33.06-.16,0,0,.29-.6.05-.13h0l1.3-2.59a6,6,0,0,1,1.14-.45l-.45,0c-.3,0-.46-.61-.59-.58a27.51,27.51,0,0,0-4.61,1.74c-.75.35-1.52.72-2.26,1.12l-2.14,1.25a1.1,1.1,0,0,1-1.41.27.9.9,0,0,1,.09-1.33,19.86,19.86,0,0,1,1.32-2.44,17.85,17.85,0,0,1,1.78-2.22,24.6,24.6,0,0,1,4.4-3.84,33.81,33.81,0,0,1,5.35-2.75A18.11,18.11,0,0,1,234.2,93c1-.25,1.94-.45,2.9-.61s1.83-.65,2.8-.92l2.9-.81-.37-.15,1.59-.19.16,0-1.47-.5-.87,0c-1.12.36-2.28.61-3.37.9s-2.17.55-3.28.8l-3.36.76c-1.1.28-2.16.62-3.24,1-2.3.82-4.7,1.09-6.9,1.88-.5.3-1,.25-1.24-.13s.08-.92.58-1.22c5.84-5,14.55-9,22-8a8,8,0,0,1,2.07-.53,7.5,7.5,0,0,1,2.07.07h.07l-1.15-.53c1.14-.13,1.92.35,3,.34-.22-.31-.47-.67-.7-1,1.38-.21,2.71-.55,4.14-.76s2.86-.43,4.29-.59c.71-.08,1.41-.16,2.12-.21s1.44,0,2.15,0a22.43,22.43,0,0,1,4.15.53,3.94,3.94,0,0,1,.6,0,22.26,22.26,0,0,1,3.46-1.14l.93-.2a2.2,2.2,0,0,1,.29,0l1.5,0c.51,0,1,0,1.51,0L275,82c2.07.2,4.17.34,6.31.74s4.3.91,6.49,1.52c-1.47-.46-2.94-.83-4.42-1.21a36.46,36.46,0,0,0-4.43-1c-1.47-.22-3-.43-4.45-.62l-1.12-.13-1.11-.06-1.94-.08h.91l1.2,0a21.93,21.93,0,0,1,2.42.09c1.62.12,3.25.27,4.88.44a23.57,23.57,0,0,1,2.45.4l2.46.5a37.83,37.83,0,0,1,4.89,1.27q2.43.8,4.85,1.7c1.59.67,3.15,1.45,4.71,2.22.78.4,1.57.79,2.34,1.22l2.23,1.41c1.47,1,3,1.93,4.38,3,1.85,1.53,3.73,3.08,5.46,4.75s3.31,3.51,4.79,5.24c2.17,2.74,4.39,5.76,6.53,9.09a75.38,75.38,0,0,1,5.86,11.05,62.07,62.07,0,0,1,3.86,12.34c.45,2.07.7,4.1.93,6.09.11,1,.15,2,.21,2.92s.11,1.92.09,2.83c0,1.83,0,3.62-.2,5.28-.07.83-.15,1.65-.22,2.46s-.22,1.55-.33,2.3-.24,1.49-.36,2.21-.29,1.37-.44,2-.3,1.31-.45,2-.31,1.09-.46,1.63q-.46,1.53-.93,2.91c-.32.93-.64,1.81-1,2.62-.24,1.53-.58,3.13-.87,4.68s-.67,3.18-1.08,4.77c-.76,3.18-1.7,6.39-2.63,9.26-1.89,5.82-3.44,10.22-4.73,14.92-.31,1.18-.64,2.34-.93,3.54l-.45,1.79c-.15.62-.24,1.09-.37,1.64l-.35,1.6-.28,1.56c-.22,1.06-.32,2-.47,3.05a44.35,44.35,0,0,0-.35,5.53,20.82,20.82,0,0,0,.4,4.13,7.67,7.67,0,0,0,.34,1.25l.25.65.14.34,0,0s-.09-.21-.06-.15v0l0,0,.09.16a5,5,0,0,0,.33.65,9.6,9.6,0,0,0,6.85,4.74c.47.09.94.1,1.41.15s.94-.05,1.41,0a7.81,7.81,0,0,1,.83-.09h.49a4.8,4.8,0,0,0,.5-.09,14.24,14.24,0,0,0,2.05-.4,27.67,27.67,0,0,0,8.82-4.09,11.17,11.17,0,0,1,1.73-1.09,3.3,3.3,0,0,1,1.11-.44c.14.05.06.29-.22.65a7.92,7.92,0,0,1-1.39,1.23,32.18,32.18,0,0,1-6.54,3.89,23.63,23.63,0,0,1-6.35,1.74l-.38,0-.31,0a1.79,1.79,0,0,1-.6.05,9.14,9.14,0,0,0-1.16.07,14.29,14.29,0,0,1-2.35-.24,11.42,11.42,0,0,1-4.4-1.86,11,11,0,0,1-3.26-3.61c-.11-.18-.18-.37-.28-.55l-.08-.14,0-.07,0,0h0l0,.12,0-.07-.3-.72a9.66,9.66,0,0,1-.4-1.1,16.72,16.72,0,0,1-.54-2.81,36.45,36.45,0,0,1,.09-8l.29-2.27.39-2.35c.33-1.61.61-3.11,1.07-4.95-.19.71-.43,1.51-.58,2.15l-.51,2c-.18.67-.28,1.31-.43,2s-.29,1.3-.38,1.93a45.51,45.51,0,0,0-.79,7.25,24,24,0,0,0,.45,5.51,8.08,8.08,0,0,0,.27,1l.15.4.14.36,0,.12,0,.06c0,.09-.08-.2,0-.11l0,.06.22.53c.12.36.35.68.49,1s.37.68.61,1a12.71,12.71,0,0,0,7.52,5.16,18.25,18.25,0,0,0,2.33.38c.4,0,.79,0,1.19,0,.2,0,.39,0,.59,0l.63-.05a12.42,12.42,0,0,0,1.46-.09c.5-.08,1-.15,1.51-.21s1-.25,1.54-.35l.78-.18L337,238a30.42,30.42,0,0,0,6.41-3.07c.52-.34,1.05-.66,1.58-1l1.57-1.09a18.09,18.09,0,0,0,1.56-1.13c.51-.4,1-.76,1.55-1.17a55,55,0,0,0,7-7.45c.52-.7,1.08-1.35,1.57-2.08l1.47-2.16c.93-1.52,1.91-3,2.75-4.63s1.67-3.24,2.49-4.89,1.53-3.36,2.17-5.12a99.85,99.85,0,0,0,3.56-10.77,132.14,132.14,0,0,0,4.06-23c.32-4,.53-8,.55-12,0-2,0-4.1-.07-6.17s-.13-4.18-.27-6.32c-.79-14.59-2.59-28.89-3.08-44a172.37,172.37,0,0,1,.67-23.34c.15-2,.49-4,.77-6.08s.7-4.09,1.11-6.16,1-4.2,1.54-6.35c.27-1.08.62-2.13,1-3.18l1.07-3.18a92.74,92.74,0,0,1,19.16-31.29c1.08-1.1,2.09-2.26,3.24-3.29l3.45-3.13a78,78,0,0,1,7.58-5.59,63.26,63.26,0,0,1,17.51-8.06,40.39,40.39,0,0,1,4.8-1.14L436.1.64c.82-.13,1.66-.2,2.49-.29a39.71,39.71,0,0,1,5-.34h3.76l1.25.1a58.15,58.15,0,0,1,19.14,4.54,70.32,70.32,0,0,1,16.35,9.74c1.2,1,2.46,1.95,3.59,3l3.39,3.19c2.11,2.24,4.25,4.49,6.12,6.91l1.51,1.88c.48.63.9,1.27,1.32,1.88.83,1.22,1.6,2.37,2.22,3.4a16.65,16.65,0,0,1,1.87,4c0,.9-2.6-2.87-6.46-8a87.65,87.65,0,0,0-13.25-13.59A69.49,69.49,0,0,0,467.65,7a58.36,58.36,0,0,0-19.8-4.56c-1.72-.08-3.45,0-5.17,0s-3.44.31-5.15.49a58.11,58.11,0,0,0-9.93,2.35,65.6,65.6,0,0,0-17.67,9.06,79.91,79.91,0,0,0-14,13.12A86.43,86.43,0,0,0,385.45,43a92.78,92.78,0,0,0-7.11,17.43c-.4,1.54-.85,3.09-1.2,4.61l-.92,4.52c-.34,1.5-.48,3-.73,4.52s-.45,3-.57,4.51a158.32,158.32,0,0,0-.85,17.84c.07,11.74,1.08,23.09,1.93,34.18.43,5.53.8,11,1.05,16.41s.28,10.72.06,16a137.44,137.44,0,0,1-4.75,31.08,114.14,114.14,0,0,1-4.3,12.5,86.38,86.38,0,0,1-5.75,11.32c.14,0,.27-.09.35,0,.32.18.2,1-.24,2.34A99.22,99.22,0,0,0,374.23,193a143,143,0,0,0,3.21-21.3,181.54,181.54,0,0,0,.28-22c-.59-15.08-2.54-31-2.69-48.25a174.4,174.4,0,0,1,.76-17.61c.12-1.45.35-2.91.53-4.36l.28-2.16c.11-.72.25-1.44.38-2.16.26-1.44.5-2.87.79-4.29s.68-2.84,1-4.25a88,88,0,0,1,6-16.51,94.1,94.1,0,0,1,9.1-14.74A79.19,79.19,0,0,1,409,19.08,62.28,62.28,0,0,1,429,8.14,53.07,53.07,0,0,1,452.35,6a59.1,59.1,0,0,1,21.8,7.9,10.88,10.88,0,0,1,2.41,1.68c.3.32-.28,0-1.31-.64A64.63,64.63,0,0,0,460.7,8.55a52,52,0,0,0-16.18-2.11l-2.06,0c-.69,0-1.37.15-2,.22L438.35,7l-1,.12-1,.22-4,.89c-1.32.36-2.6.83-3.9,1.25a58.12,58.12,0,0,0-14.34,7.39,26.6,26.6,0,0,1,3.59-1.63c.88-.25,1.37-.26,1.36,0s-.54.76-1.4,1.56-2.11,1.8-3.63,3l2.94-1.91,1.47-.94,1.56-.83c1-.54,2.06-1.1,3.11-1.63l3.26-1.36A18.33,18.33,0,0,1,429.86,12c.91-.2,1.46-.27,1.45-.15s-.53.41-1.38.76-2.06.73-3.3,1.3l-3.27,1.38-3.12,1.65c-.51.28-1.05.54-1.55.85l-1.48.95c-1,.65-2,1.25-2.93,1.94A69.73,69.73,0,0,0,408.83,25c-.85.79-1.77,1.52-2.57,2.36l-2.42,2.5a78.66,78.66,0,0,0-8.51,10.94A82.61,82.61,0,0,0,388.76,53a77.54,77.54,0,0,0-4.83,15.9,111.9,111.9,0,0,0-2,16.23l-.19,4.06-.05,4.05c0,1.35,0,2.69,0,4s0,2.69.1,4c.2,5.36.56,10.69,1,16a23.23,23.23,0,0,1,.89-6.24h0c-.09-1.65-.19-3.29-.28-4.94s-.14-3.29-.2-4.93a153.05,153.05,0,0,1,.36-22.84c.2-1.92.48-3.83.72-5.74s.7-3.82,1.05-5.73.91-3.81,1.46-5.7l.9-2.8.46-1.4.54-1.37A83.75,83.75,0,0,1,400.13,35,70.33,70.33,0,0,1,417.59,18.7l1.26-.83c.44-.26.89-.5,1.34-.74l2.67-1.46c.89-.5,1.86-.85,2.79-1.27s1.86-.85,2.83-1.17l2.93-1,1.47-.46,1.51-.33,3-.63c1-.21,2.05-.26,3.08-.39a49.3,49.3,0,0,1,6.2-.25c1,0,2.07.16,3.1.24l1.55.13c.51.07,1,.18,1.52.26l3.05.56,3,.82,1.49.42,1.44.54,2.88,1.1a65.49,65.49,0,0,1,20,13.8,87,87,0,0,1,14.26,19.29,7.51,7.51,0,0,1,1,2.09,6.4,6.4,0,0,1-1.15-1.72L497,44.6l-1.94-3-1-1.52L493,38.58l-2.14-2.92A82.11,82.11,0,0,0,481,25.08a67.7,67.7,0,0,0-12-8.36,55.8,55.8,0,0,0-13.84-5.09l.07,0c.78.21.9.35,0,.26a27,27,0,0,1-3-.56c-.89-.23-.79-.33-.05-.26a49.29,49.29,0,0,0-13.83,0c-1.14.18-2.26.46-3.39.68l-1.68.36c-.56.13-1.1.34-1.65.5l-3.28,1.06c-1.06.43-2.1.9-3.15,1.35l-1.57.68-1.5.81-3,1.65L416.26,20c-.47.32-.95.62-1.41.95l-1.33,1c-.88.7-1.77,1.39-2.64,2.1l-2.47,2.28c-.41.38-.83.75-1.23,1.14L406,28.77l-2.29,2.44-2.12,2.58-1.06,1.29-1,1.35-1.93,2.7-1.77,2.81c-1.22,1.84-2.18,3.83-3.25,5.76-.51,1-.94,2-1.42,3s-.94,2-1.32,3l-1.2,3.07c-.39,1-.69,2.08-1,3.12-.73,2.08-1.19,4.24-1.74,6.36s-.84,4.27-1.2,6.41S384.11,77,384,79.1c.18-2,.55-4,.81-6s.77-3.94,1.15-5.92c.2-1,.51-2,.76-2.94s.48-2,.82-2.92c.67-1.91,1.24-3.86,2.05-5.71l1.15-2.8L392,50.11c.83-1.84,1.87-3.58,2.84-5.34.47-.9,1-1.74,1.58-2.59l1.64-2.55,1.8-2.44c.6-.81,1.17-1.65,1.84-2.41a68.64,68.64,0,0,1,18.22-16,50.7,50.7,0,0,1,23.3-6.95,42,42,0,0,1,5.38-.08l2.7.15,2.7.4c.49.08,1.05.19,1.54.31a6.2,6.2,0,0,1,1.06.39c.24.18-.47,0-1.47-.14l-3-.45,2.2.44a14.39,14.39,0,0,1,2,.51c1.25.41,2.35.79,3.26,1.14,1.76.83,2.74,1.47,2.6,1.69-.53.43-5.4-1.29-11.53-2a47.92,47.92,0,0,0-12.32.24l-3,.65-1.5.32-1.47.47-2.93.95c-1,.39-1.89.81-2.84,1.21A60,60,0,0,0,407,32.56a25.47,25.47,0,0,0-1.72,2l-1.67,2.08c-1.05,1.45-2,3-2.95,4.45a70.56,70.56,0,0,1,12.77-14,55.26,55.26,0,0,1,16.21-9.48l4.48-1.38,4.59-.91c1.55-.12,3.09-.36,4.64-.39h3.49l1.16.12a47.11,47.11,0,0,1,17.75,5.1,14,14,0,0,1,2.4,1.39c.6.41,1,.71.94.8s-.43,0-1.06-.32l-1.09-.54-.63-.33-.7-.32a46.38,46.38,0,0,0-15.37-4.41,42.4,42.4,0,0,0-15.77,1.41c-10.25,3-19.21,9.61-26.23,17.78a77.23,77.23,0,0,0-15.13,28.45l-1,3.91-.75,4c-.28,1.34-.42,2.7-.6,4.06s-.38,2.7-.47,4.08a142.41,142.41,0,0,0-.49,16.56c1.17,14.61,4.07,29.19,6.23,44.63-.12-2-.28-3.92-.44-5.89-.53-6.23-1.16-12.27-1.76-18.16s-1.1-11.62-1.44-17.26-.41-11.16-.22-16.6a103.94,103.94,0,0,1,1.88-16,69.18,69.18,0,0,1,4.91-15,74.31,74.31,0,0,1,8.19-13.81A60,60,0,0,1,418.47,27a48.12,48.12,0,0,1,14.46-7.78,5.47,5.47,0,0,1,2.13-.49c.07,0-.08.11-.37.22s-.72.3-1.26.48a46.58,46.58,0,0,0-14,7.38,62.36,62.36,0,0,0-11.06,11.08A73.55,73.55,0,0,0,394.88,66.1a92.18,92.18,0,0,0-2,13.14,127.27,127.27,0,0,0-.29,13.24A246,246,0,0,0,395,118.84c-.88-9-1.64-17.76-1.74-26.33a110,110,0,0,1,2.18-25l.69-3,.88-2.92c.27-1,.63-1.94,1-2.89s.68-1.93,1.09-2.87c.84-1.87,1.61-3.78,2.6-5.58s2-3.6,3-5.38a68.13,68.13,0,0,1,7.48-9.83c1.34-1.58,2.91-2.9,4.38-4.36l2.38-1.95c.4-.32.78-.66,1.2-1l1.26-.86a14.43,14.43,0,0,1,3.24-1.92,2.34,2.34,0,0,1,.63-.51l1.31-.84.66-.42.71-.35,2.89-1.45a40.83,40.83,0,0,1,6.32-2.14,8.4,8.4,0,0,1,2.38-.38C440,19,439.48,19.09,438.56,19.39Zm-197,83.89-.25-.1.7,0,1.37.85Zm-5.87,9.63h0l-.82-.36Zm79.72,114.41a27.46,27.46,0,0,1-.23-4.6c0-.81.1-1.72.14-2.58s.17-1.79.32-2.72a85.46,85.46,0,0,1,2.7-11.79c.61-2.08,1.24-4.11,1.95-6.16s1.45-4.11,2.28-6.35c1.65-4.38,3.57-9.79,5-15.12a150.09,150.09,0,0,1-4.2,15c-1.25,3.4-2.36,6.41-3.37,9.5-.51,1.54-1,3.09-1.45,4.66l-.68,2.37-.58,2.19a67.61,67.61,0,0,0-1.65,8.38A36.76,36.76,0,0,0,315.36,227.32ZM232.53,102.45a11.64,11.64,0,0,1,3.48.8,5.51,5.51,0,0,1,1.61-1.2,52.08,52.08,0,0,1,5.06-2c-.42-.33,0-.47.16-.62a4.31,4.31,0,0,1,.56-.39c-1.88.5-3.73,1.08-5.69,1.63a23.69,23.69,0,0,0-2.6.94A23.17,23.17,0,0,1,232.53,102.45Zm-9.22,9.42-.24,0-.24-.78Zm.44,1.28.27-.09C224.13,113.32,224,113.31,223.75,113.15Zm2.39-.86a1.37,1.37,0,0,0-.51-.08Zm15.22,15.58c-.61-1.08-1.21-2.18-1.8-3.28.54,1.08,1.09,2.14,1.66,3.21Z"/><path d="M374.63,136.8l.64.12a1.71,1.71,0,0,1-1.13.67,14.62,14.62,0,0,0,8.33-2.19,27,27,0,0,0,3.44-2.5A24.47,24.47,0,0,0,388.7,130c1.58-.36,2.66-1.53,2.43-2.65s-1.77-1.76-3.44-1.41a6.33,6.33,0,0,1-1.2-.1,25,25,0,0,0-9.93-.84l2.3.26a11.31,11.31,0,0,0-3.08.49l.64.46c-3.82-.25-7.86,2.11-8.65,5.13s1.69,5.37,5.25,5.4C373.56,136.75,374.08,136.76,374.63,136.8Z"/><path d="M383,140.7l-5.8-.1-.51-.22,1,1.58,0-.12c.65-2,2.71-3.74,4.8-5l.69-.57a1.38,1.38,0,0,0,.31-1.17c-.18-.87-1.25-1.33-2.4-1l-1.33.35a12.9,12.9,0,0,0-5.48,1.8,5.14,5.14,0,0,0-2.73,4.31c0,.81.86,1.45,1.39,2.15a2.72,2.72,0,0,0,3.57.87c1.39-.66,2.15-2,1.65-3.15l.85-.11-.35.66c-.13-1.13,1.06-1.95,1.78-2.89.44-.31.91-.59,1.36-.89l-2.14-2.2c-.22.22-.43.44-.63.67a1.86,1.86,0,0,1,.31.21,33.42,33.42,0,0,1-3.48,3.86l-1.41,1.92a1.21,1.21,0,0,0,1.07,1.57l1.17.1-.57-.12,3.41-.74c1.14-.24,2.26-.49,3.39-.62a.74.74,0,0,0,.73-.6C383.66,140.92,383.37,140.68,383,140.7Z"/><path d="M376.26,144.35a1.83,1.83,0,0,0-1.26.21l-.07.3.87.11C376.42,145,376.5,144.69,376.26,144.35Z"/><path d="M374.93,144.86l-.37-.05.32.15,0-.05Z"/><path d="M465.16,139.68a133.83,133.83,0,0,1,15.31,11.24c.15.14.34.18.41.09s0-.27-.15-.39a131.47,131.47,0,0,0-15.31-11.32c-.19-.12-.38-.12-.46,0S465,139.56,465.16,139.68Z"/><path d="M492.76,176.38c-.14,0-.21,0-.18.17a.58.58,0,0,0,.31.34c.12,0,.21,0,.18-.18A.56.56,0,0,0,492.76,176.38Z"/><path d="M486.27,180.81a8.86,8.86,0,0,0-1.85-1,.49.49,0,0,1-.24-.23c-.08.14-.29.15-.53,0-4.66-2.5-9.25-5.33-14.06-7.44a1.16,1.16,0,0,1-.44.24,2.16,2.16,0,0,1-1.88-.43l-.41-.38c-1.76-1.33-3.58-2.58-5.41-3.8a4.81,4.81,0,0,1-1.58-.31l-3-.33-3-.3a.65.65,0,0,1,0,.51,1,1,0,0,1-1.21.36c-.24-.08-.48-.14-.72-.21.64.29,1.26.67,1.88,1a.67.67,0,0,1,.24.16l2.25.82a177.42,177.42,0,0,1,20.46,7.75.39.39,0,0,1,.29.28.16.16,0,0,1-.23.15c-4.82-1.41-9.57-1.45-14.48-2.44a73,73,0,0,0-16.79-1.41c-.65-.12-1.29-.21-1.92-.3s-1.28-.07-1.91-.1a28.92,28.92,0,0,0-3.74.18,42.55,42.55,0,0,0-7.27,1.68c-1.77.55-3.45,1.15-5.06,1.76-2.21.86-4.31,1.68-6.32,2.7-1,.43-2,1-3,1.49s-1.94,1.06-2.87,1.7a2.77,2.77,0,0,1-1.47.69,2.68,2.68,0,0,1-1.58-.21,6.63,6.63,0,0,1-3-3,8.19,8.19,0,0,1-.8-5.87l-.61.27L405,175a4.36,4.36,0,0,1-3.14-1l-1.32-.95a27.64,27.64,0,0,0-3.5-2.67,25.83,25.83,0,0,1-3.62-2.73l-.37-1.12-.36-.17a6.12,6.12,0,0,1-2.83-2l-.63-1.26a12.63,12.63,0,0,1-1.12-4.55,4.6,4.6,0,0,1-.62-1.61,6.62,6.62,0,0,1-2.6-3.81.91.91,0,0,1-.55-1.26,1.24,1.24,0,0,1,.38-.44h0c-.37-.22-.48-.28-.93-.51-.41.07-.65.09-.65.09-1.05.25-1,.28-1.95.5a5.38,5.38,0,0,1-1.71-.4c-2.08-1.73-2.1-1.73-2.55-2.73a1.93,1.93,0,0,1,0-.34l-1.13,0a3.16,3.16,0,0,1-.53-.19c-.34-.48-.34-.48-.57-.6a2.27,2.27,0,0,1-.26-.36c0-.75,0-.75-.08-.92a1.42,1.42,0,0,1,0-.38c.32-.4.45-.55.51-.62l1.72.8-.07-.55.57.48-.45-.48.66.09-.82-.2a5.39,5.39,0,0,0,1.65-.64,2.6,2.6,0,0,0,.86-.53,2,2,0,0,1-.2-.27c1.32-.36,1.32-.36,2.62-.68a4.12,4.12,0,0,1,.47.23.61.61,0,0,1,.46-.46l.66-.19.1-.13,0-.05.4-.48.08-.11h0l1.76-2.09a8.6,8.6,0,0,1,1.18-.17l-.42-.12c-.29-.1-.33-.66-.46-.67a27.91,27.91,0,0,0-4.78.55c-1.58.35-3.17.77-4.76,1.19a1.14,1.14,0,0,1-1.43-.08.84.84,0,0,1,.36-1.23,18.5,18.5,0,0,1,3.94-3.58,24.82,24.82,0,0,1,4.94-2.48,31.5,31.5,0,0,1,5.48-1.33,30.67,30.67,0,0,1,5.56-.21c1.82-.15,3.6-.4,5.41-.52l-.32-.2,1.46.11h.15l-1.27-.7-.8-.12a50.34,50.34,0,0,1-6.27.27c-2.08.06-4.26,0-6.39.21-2.31.21-4.53,0-6.83.13-.54.15-1.05,0-1.17-.42s.25-.8.78-1a36,36,0,0,1,10.72-3.31,27.11,27.11,0,0,1,5.53-.21,19.28,19.28,0,0,1,5.11,1,7.06,7.06,0,0,1,3.69.25h.06l-1-.64a21.09,21.09,0,0,1,2.55.75l-.53-1c2.4,0,4.87-.11,7.28-.12a35,35,0,0,1,3.58.27c.59.07,1.17.16,1.74.28a16.12,16.12,0,0,1,1.68.48c.17,0,.33.06.5.09a16.75,16.75,0,0,1,3.69-1.05,11.73,11.73,0,0,1,2.09-.13l-2.11-.45h0a13.88,13.88,0,0,1,4.7-.27,20.14,20.14,0,0,1,6.59,2,11.78,11.78,0,0,1,4.59,3.78,103.9,103.9,0,0,1,23.4,7.37c.39.16.65.49.62.75s-.4.33-.78.17a151.06,151.06,0,0,0-16.74-4.86c4.63,1.86,9,4,13.43,6.13l1.72.72a8.08,8.08,0,0,1,1.6.94c5.5,2.88,10.31,6.12,15.51,9.43a142.71,142.71,0,0,1,12.23,8.82,68.58,68.58,0,0,1,14.44,15.34c.57.77.79,1.71.5,2.07s-1,.06-1.57-.69a114.93,114.93,0,0,0-15.65-15.54,215.3,215.3,0,0,0-18.43-13.43c-1.45-.89-2.85-1.83-4.31-2.67a1.09,1.09,0,0,1-.07.24,1.18,1.18,0,0,1-.77.6c1.64.95,3.17,2.1,4.72,3.19a46.07,46.07,0,0,1,13.36,8.76,56.29,56.29,0,0,1,6.78,8.41,94.73,94.73,0,0,1,9.18,9.29.46.46,0,0,1,.18.4c0,.11-.16.09-.29,0-2.26-2-4.55-4.09-6.93-6.09a1.32,1.32,0,0,1-.32,1.34,1.53,1.53,0,0,1-1.49.1c.46.51.94,1,1.38,1.53.27.33.36.7.2.84s-.53,0-.79-.28c-.93-1-1.9-2-2.85-3.05s-2-2-2.95-3c-1.28-1.07-2.65-2.05-4-3.08s-2.72-1.94-4.09-2.9a2.53,2.53,0,0,1,0,1.56h0l1.22.93a65.6,65.6,0,0,1,20.88,19.47c.12.15.15.33.08.39s-.23,0-.32-.15c-.86-1.19-1.72-2.36-2.61-3.52s-1.87-2.24-2.82-3.34v0c0,.13-.05.22-.18.17a.65.65,0,0,1-.31-.34c0-.15.06-.21.18-.17a63.06,63.06,0,0,0-12.23-10.43,71,71,0,0,1,10.44,10.29l1.35.94a.43.43,0,0,1,.16.39c0,.08-.18.07-.29,0l-.37-.28c.58.73.71,1.56.32,1.88s-1.23,0-1.86-.73c-.89-.9-1.78-1.79-2.66-2.69l-2.72-2.61-.65-.5-.78-.35a99.79,99.79,0,0,1,7.52,8.84c.22.25.29.55.16.68s-.43,0-.65-.22a127.38,127.38,0,0,0-15.93-12.44c-1.17-.28-2.31-.58-3.49-.8l-3.54-.62.68.47c1.48.94,3,1.72,4.5,2.51l4.54,2.26c1.53.75,3,1.61,4.47,2.48a36.12,36.12,0,0,1,4.2,3.11.31.31,0,0,1,.13.36c-.06.08-.21.06-.34-.07a34.74,34.74,0,0,0-4.16-2.92c-1.46-.83-2.91-1.64-4.42-2.46a45.07,45.07,0,0,0-7.43-3.34c4.44,2.6,9.11,4.9,13.28,8.19a.82.82,0,0,1,.38.48.24.24,0,0,1,.19,0,10.37,10.37,0,0,1,1.95,1.07.37.37,0,0,1,.2.35C486.55,180.88,486.42,180.89,486.27,180.81Zm-88.81-38.6-.22-.14.66.14,1.18,1Zm-7.28,7.95h0l-.73-.51Zm60.72-12.92c-1.65-.55-3.28-1.15-4.92-1.77s-3.27-1.3-4.93-2c.85.1,1.68.26,2.52.42A71.26,71.26,0,0,1,450.9,137.24Zm-61.81,2.55a12.5,12.5,0,0,1,3.17,1.42,5.31,5.31,0,0,1,1.75-.77,34.87,34.87,0,0,1,5.07-1c-.35-.38.05-.43.23-.53l.58-.27-2.77.21-2.81.27c-.85.1-1.74.21-2.61.35A21.29,21.29,0,0,1,389.09,139.79Zm-10.72,6.79-.22-.08-.08-.79S378.2,146.07,378.37,146.58Zm.18,1.32.27,0C378.88,148.14,378.76,148.1,378.55,147.9Zm2.51-.29a2.09,2.09,0,0,0-.49-.2Zm11.71,18-1.1-3.56,1,3.46Z"/><path d="M67.43,106.55c.2,0,.41.11.61.16a1.59,1.59,0,0,1-1.12.61c5.91.77,11-3,14.07-6.83,1.47-.35,2.48-1.48,2.25-2.61S81.57,96,80,96.35a4.74,4.74,0,0,1-1.11-.14,20.53,20.53,0,0,0-4.44-1.16,32.47,32.47,0,0,0-4.88-.2l2.16.4a10.29,10.29,0,0,0-2.91.3c.19.17.4.34.6.5-3.6-.44-7.52,1.63-8.42,4.6s1.39,5.47,4.85,5.73Z"/><path d="M75.37,111c-1.86-.1-3.72-.27-5.62-.45l-.48-.25.93,1.65,0-.12c.71-2,2.78-3.55,4.8-4.72l.68-.52a1.42,1.42,0,0,0,.32-1.16,1.8,1.8,0,0,0-2.28-1.18l-1.27.27a12.63,12.63,0,0,0-5.33,1.47,5.08,5.08,0,0,0-2.83,4.13c0,.82.76,1.51,1.24,2.24A2.66,2.66,0,0,0,69,113.42a2.52,2.52,0,0,0,1.74-3l.83-.05c-.13.21-.25.41-.37.63-.08-1.14,1.11-1.87,1.83-2.77.44-.28.88-.58,1.33-.83l-2-2.32-.62.65c.11.09.3.21.29.22a32.4,32.4,0,0,1-3.49,3.64L67,111.37A1.23,1.23,0,0,0,68,113l1.14.18-.55-.16c2.23-.33,4.47-.76,6.66-.93a.74.74,0,0,0,.73-.58A.57.57,0,0,0,75.37,111Z"/><path d="M68.68,114.2a1.76,1.76,0,0,0-1.25.13l-.08.29.84.17C68.8,114.9,68.89,114.56,68.68,114.2Z"/><path d="M67.35,114.62l-.35-.07.3.17s0,0,0,0Z"/><path d="M165.58,102.79Q177,106.38,187.85,111c.24.11.47.11.52,0s-.12-.27-.34-.36c-7.23-3.09-14.63-5.83-22.27-8.24-.26-.07-.49,0-.55.09S165.34,102.72,165.58,102.79Z"/><path d="M214.44,134.64c-.18,0-.23.07-.1.22a.91.91,0,0,0,.52.3c.16,0,.22-.1.11-.23A.88.88,0,0,0,214.44,134.64Z"/><path d="M209.41,140.81a15.9,15.9,0,0,0-2.74-.65.79.79,0,0,1-.41-.2c0,.17-.26.23-.61.14-6.89-1.64-14-3.66-21.17-4.9a1,1,0,0,1-.43.33,3.63,3.63,0,0,1-2.63-.06l-.71-.31c-2.94-1-5.91-2-8.88-2.9a9.26,9.26,0,0,1-2.23,0l-8.31.42a.61.61,0,0,1,.17.53c-.14.44-.81.68-1.53.59l-1.09-.08c1,.19,2,.44,3,.7a1.57,1.57,0,0,1,.4.13l3.46.43c5.16.55,10.23,1.11,15.29,1.74,2.53.29,5,.68,7.57,1s5,.81,7.52,1.34a.77.77,0,0,1,.51.24c.06.11,0,.22-.2.2-6.65-.48-12.68.43-19.73.3a172.24,172.24,0,0,0-24.54,1.44c-8.21-.18-15.76,1.61-23.47,4-2.85.92-5.6,1.82-8.24,2.8-5.42,2.12-10.43,4.18-15.19,6.59a3.68,3.68,0,0,1-3.68.49A6.18,6.18,0,0,1,98.42,152a7.68,7.68,0,0,1-.47-6l-.68.28-1.2.11a4.68,4.68,0,0,1-3.31-1.16l-1.34-1c-2.14-2.17-4.79-3.46-7-5.78l-.29-1.15-.36-.19A6.24,6.24,0,0,1,81,135l-.56-1.3a13.15,13.15,0,0,1-.85-4.63,4.81,4.81,0,0,1-.53-1.66,6.74,6.74,0,0,1-2.38-4,.92.92,0,0,1-.47-1.3,1.1,1.1,0,0,1,.39-.41h0a7.66,7.66,0,0,0-.89-.57l-.65,0-1.94.38a5.42,5.42,0,0,1-1.67-.51c-1.95-1.87-2-1.87-2.36-2.89,0-.12,0-.23,0-.35-.81,0-.87,0-1.1,0a2.11,2.11,0,0,1-.51-.23c-.31-.5-.31-.5-.53-.63a3.37,3.37,0,0,1-.24-.38c.06-.75.06-.75,0-.92a1.71,1.71,0,0,1,.05-.38l.54-.58,1.64.92,0-.56.54.52-.42-.51.65.13-.79-.26a5.53,5.53,0,0,0,1.64-.52,2.46,2.46,0,0,0,.86-.49,3.25,3.25,0,0,1-.19-.28c1.31-.28,1.31-.28,2.58-.51a3.81,3.81,0,0,1,.45.26.58.58,0,0,1,.47-.43l.65-.15.1-.13,0,0c.16-.19.27-.32.39-.48l.08-.1h0c.28-.32.69-.77,1.76-2a9.41,9.41,0,0,1,1.15-.1l-.41-.15c-.27-.11-.3-.68-.42-.69a37.59,37.59,0,0,0-9.28,1.17,1.06,1.06,0,0,1-1.38-.17.83.83,0,0,1,.4-1.2,19.35,19.35,0,0,1,8.71-5.54,26.61,26.61,0,0,1,10.44-1.14c1.7-.17,3.38-.31,5.06-.45l-.3-.2,1.37.11h.14L91.92,101l-.74-.12a44.23,44.23,0,0,1-5.87.16c-2-.08-4-.12-6,0-2.19.07-4.26-.2-6.46-.21a.89.89,0,0,1-1.11-.5c-.1-.37.26-.78.77-.9,6.2-2.87,14-4.11,19.94-2a6.25,6.25,0,0,1,3.41.25h.06L95,97.08c.92,0,1.53.59,2.38.72l-.54-1c4.41-.1,9-.9,13.09.21a3.42,3.42,0,0,1,.46,0,13.22,13.22,0,0,1,5.73-1.83c-.88-.09-1.76-.12-2.62-.18a18.05,18.05,0,0,1,5.64-.89,24.28,24.28,0,0,1,4.15.29,31.79,31.79,0,0,1,4,.87,16,16,0,0,1,6.14,3.2,190,190,0,0,1,29.89,3.35c.5.08.92.36,1,.63s-.36.42-.87.33c-7-.79-14.21-1.53-21.44-1.84,6,1.1,11.92,2.44,17.87,3.77l2.3.41a12.59,12.59,0,0,1,2.23.64c7.55,1.82,14.51,4.08,22,6.3,6.41,1.93,11.94,3.85,18.16,6.29,8.7,3.46,16.47,7.24,24,12.74,1,.69,1.77,1.65,1.64,2.11s-1.06.29-2.08-.38a171.86,171.86,0,0,0-25.6-12.72c-8.86-3.6-18-6.64-27.57-9.68-2.07-.61-4.1-1.3-6.16-1.83a.76.76,0,0,1,0,.26,1.17,1.17,0,0,1-.71.77c2.32.63,4.6,1.47,6.88,2.27a76.41,76.41,0,0,1,19.61,6c2.22,1,4.24,2.27,6.22,3.43s3.84,2.45,5.71,3.75a146,146,0,0,1,15.25,7.68.78.78,0,0,1,.41.39c0,.13-.13.14-.34,0-3.6-1.66-7.3-3.28-11-4.85.42.59.57,1.13.33,1.5s-.87.52-1.65.42l2.38,1.32c.48.28.79.65.67.84s-.59.15-1.06-.1c-1.62-.88-3.23-1.77-4.88-2.58s-3.27-1.68-5-2.44c-4.1-1.64-8.27-3-12.47-4.42a2.94,2.94,0,0,1,.78,1.61h0l1.91.68a106.3,106.3,0,0,1,34.39,15.93c.22.14.35.31.3.4s-.25,0-.44-.09a110.57,110.57,0,0,0-9.85-6.13v0c.1.13.07.24-.11.22a1.11,1.11,0,0,1-.53-.29c-.12-.15-.05-.24.11-.23a105.38,105.38,0,0,0-19.66-8.23,121.69,121.69,0,0,1,17.55,8.47l2,.72a.7.7,0,0,1,.4.37c0,.1-.17.12-.35,0l-.57-.21c1.05.64,1.67,1.46,1.4,1.91s-1.44.28-2.54-.34c-1.5-.77-3-1.54-4.52-2.26s-3-1.48-4.56-2.16l-1-.37-1.11-.22c4.67,2.34,9.16,5,13.53,7.72.39.22.64.53.56.7s-.47.11-.86-.1a209.86,209.86,0,0,0-25.52-9.68l-4.71-.1-4.75.09,1.09.35c4.67,1.29,9.14,2.15,13.62,3.09a72,72,0,0,1,13.32,4c.22.09.37.25.35.35s-.21.11-.43,0a89.39,89.39,0,0,0-13.12-3.83c-1.87-.45-3.72-.82-5.51-1.18s-3.61-.58-5.39-.77c6.9,1.81,13.79,3.23,20.52,5.81a1.5,1.5,0,0,1,.71.45.26.26,0,0,1,.22-.05,23.5,23.5,0,0,1,2.88.69.6.6,0,0,1,.43.33C209.77,140.83,209.62,140.86,209.41,140.81ZM89.34,113.1a1.91,1.91,0,0,1-.21-.14l.63.16,1.15,1Zm-7.28,7.74h0l-.7-.55ZM147.73,103c-2.14-.27-4.26-.63-6.39-1-1.07-.18-2.13-.38-3.2-.6s-2.14-.4-3.21-.64h3.14c1.63.31,3.24.65,4.86,1S146.13,102.63,147.73,103Zm-66.46,7.3a12.83,12.83,0,0,1,3,1.6A5.52,5.52,0,0,1,86,111.2a42.77,42.77,0,0,1,4.88-.87c-.34-.38,0-.44.22-.54l.55-.26c-1.75.13-3.52.26-5.35.36A49.72,49.72,0,0,1,81.27,110.34Zm-10.64,6.23-.22-.1,0-.79Zm.11,1.32H71C71.05,118.16,70.93,118.11,70.74,117.89Zm2.47-.13a1.52,1.52,0,0,0-.46-.22Zm10.68,18.75L83,132.89l.77,3.52Z"/><path d="M7.3,201.18l.59,0c-.08.35-.4.6-.86.8a10.61,10.61,0,0,0,6.84-3.4,16.22,16.22,0,0,0,3.92-6.42A2.46,2.46,0,0,0,19,189a2.4,2.4,0,0,0-3.33-.66,3.89,3.89,0,0,1-1,.15,22.12,22.12,0,0,0-8.7.79l2-.06a7,7,0,0,0-2.48.94l.66.34c-3.27.38-6.11,3.17-6.16,6.13s2.63,5,5.84,4.65Z"/><path d="M15.68,203.76c-1.73.32-3.47.56-5.24.79l-.51-.14,1.28,1.41-.05-.12c.13-2.08,1.61-4,3.09-5.68l.47-.65a1.45,1.45,0,0,0,0-1.19,1.75,1.75,0,0,0-2.41-.66c-.36.18-.71.38-1.06.58-3,.87-6.74,3.62-5.93,7.05.2.78,1.06,1.31,1.69,1.93a2.51,2.51,0,0,0,3.44.43,2.38,2.38,0,0,0,.82-3.29L12,204c-.05.23-.11.46-.17.69-.36-1.09.52-2.06.93-3.1l1-1.11-2.44-1.81-.37.77a2.63,2.63,0,0,1,.32.15,26.6,26.6,0,0,1-2.18,4.29l-.9,2a1.3,1.3,0,0,0,1.3,1.4l1.09,0L10,207.2c2-.7,3.92-1.67,5.9-2.3a.67.67,0,0,0,.5-.73A.55.55,0,0,0,15.68,203.76Z"/><path d="M10.37,208.32a1.62,1.62,0,0,0-1.13.35v.3h.82C10.65,209,10.65,208.62,10.37,208.32Z"/><path d="M9.24,209H8.89l.32.11c0-.05,0-.05,0-.05Z"/><path d="M161.16,159.14c1.13.11,2.26.18,3.37.32l3.35.42,6.69.86,6.65,1.11,3.31.55,3.29.67,6.57,1.34L200.9,166l3.25.79c1.08.27,2.14.59,3.22.89l6.41,1.8c.58.16,1.08.23,1.13.11s-.35-.35-.89-.48l-6.42-1.82-3.22-.9-3.24-.8L194.63,164l-6.56-1.35-3.29-.68-3.31-.56-6.64-1.11c-2.23-.32-4.46-.58-6.69-.88s-4.47-.59-6.73-.76a2,2,0,0,0-1.2.15C160.18,158.94,160.6,159.09,161.16,159.14Z"/><path d="M280.86,209.26c-.39-.13-.43,0-.1.24a4.74,4.74,0,0,0,1.21.68c.33.11.38,0,.1-.23A4.51,4.51,0,0,0,280.86,209.26Z"/><path d="M273.86,214.48c-1.05-.48-2.07-.95-3.07-1.36s-2-.74-2.93-1.05a4.78,4.78,0,0,1-1-.48c0,.21-.42.15-1.19-.15a320.37,320.37,0,0,0-48.42-15.07,1.82,1.82,0,0,1-.82.26,17,17,0,0,1-6-.76l-1.75-.55c-1.78-.5-3.59-.88-5.38-1.33s-3.58-.91-5.39-1.26l-5.42-1.09-2.7-.55-2.72-.45a39.09,39.09,0,0,1-5.16-.19c-3.19,0-6.39.12-9.58.14l-9.6.46c.39.16.62.35.61.55s-.48.42-1.09.57a9.85,9.85,0,0,1-2.26.24l-2.6.06c2.48.1,5,.13,7.43.39a7.06,7.06,0,0,1,1,.12c2.73.12,5.49.12,8.3.34a288,288,0,0,1,70.74,12.05,4,4,0,0,1,1.22.54c.18.17.09.27-.33.16-14.65-3.64-27.75-4.7-44-6.31a221.13,221.13,0,0,0-57.21,1.86,147.75,147.75,0,0,0-28.27,5.77,166.19,166.19,0,0,0-26.57,10.66c-1.5.67-2.91,1.52-4.36,2.27l-4.27,2.28L77,225.05c-1.36.81-2.75,1.56-4,2.46l-1,.64-.49.33-.18.13-.63.47-1.27.92c-.84.62-1.71,1.18-2.51,1.83-1.63,1.27-3.26,2.49-4.92,3.67s-3.19,2.53-4.81,3.77a5.06,5.06,0,0,1-4,1.46,6.48,6.48,0,0,1-4.22-2.21A7.43,7.43,0,0,1,47,232.73l-.65.46-1.25.43a5.12,5.12,0,0,1-3.8-.3l-1.65-.67c-2.72-1.59-5.74-2.2-8.48-4l-.55-1.06-.4-.1A6,6,0,0,1,27,226.08l-.83-1.14a13.57,13.57,0,0,1-1.88-4.36,4.66,4.66,0,0,1-.9-1.51,6.8,6.8,0,0,1-3.23-3.35,1,1,0,0,1-.77-1.16,1.06,1.06,0,0,1,.27-.5h0a9.92,9.92,0,0,0-1-.35c-.37.13-.6.19-.6.19-.93.42-.93.42-1.76.76a5.15,5.15,0,0,1-1.71-.18c-2.28-1.43-2.29-1.43-2.89-2.34a2.29,2.29,0,0,1-.07-.34c-.77.13-.83.14-1,.16a2.58,2.58,0,0,1-.53-.12c-.41-.43-.41-.43-.64-.52a2.66,2.66,0,0,1-.31-.33c-.13-.73-.12-.73-.24-.88a2,2,0,0,1,0-.37l.36-.66,1.74.58-.17-.53.62.4-.51-.42h.63l-.79-.1a4.64,4.64,0,0,0,1.4-.81,1.93,1.93,0,0,0,.68-.64,1.89,1.89,0,0,1-.25-.24c1.13-.55,1.13-.55,2.24-1.06a3,3,0,0,1,.48.16.56.56,0,0,1,.32-.53l.56-.29.05-.15,0,0,.24-.55,0-.12h0c.16-.39.39-.95,1.08-2.36a9,9,0,0,1,1-.35l-.42,0c-.28-.06-.46-.6-.58-.58-.72.14-1.43.32-2.13.53s-1.36.51-2,.79c-1.34.58-2.66,1.23-4,1.85a1,1,0,0,1-1.31.1.82.82,0,0,1,.06-1.23c2.7-6,9.14-9.76,15.48-11,1.51-.58,3-1.19,4.47-1.81l-.34-.12,1.28-.28.12-.05-1.33-.35c-.24,0-.47.05-.71.09a29.17,29.17,0,0,1-5.29,1.71c-1.8.47-3.61.94-5.41,1.54s-3.91.8-5.9,1.26a.83.83,0,0,1-1.14-.24.79.79,0,0,1,.43-1A36.12,36.12,0,0,1,18,187.91a20.91,20.91,0,0,1,9.17-1.75,5.66,5.66,0,0,1,3.13-.8l0,0-1-.35c.82-.26,1.58.14,2.39,0l-.83-.83c2-.66,3.93-1.58,5.88-2.37a28.1,28.1,0,0,1,3-1.05,14.26,14.26,0,0,1,3.06-.49,3.29,3.29,0,0,1,.43-.09,22.15,22.15,0,0,1,1.76-2l.49-.45.15-.12.43-.24.87-.5A40.54,40.54,0,0,1,50.62,175c-.93.3-1.83.66-2.73,1l-2.65,1a1.92,1.92,0,0,1,.27-.17l.33-.2.68-.41,1.36-.79A30.1,30.1,0,0,1,50.69,174c1.91-.92,3.89-1.8,6-2.62,11.38-4.36,24.9-6.53,31.65-5.37a245.22,245.22,0,0,1,33.55-6.18,268.86,268.86,0,0,1,33.9-1.43,4.36,4.36,0,0,1,2.41.56c.11.27-.66.48-1.82.45A264.89,264.89,0,0,0,107.81,164a287.11,287.11,0,0,1,41.22-2c1.77,0,3.55-.07,5.34,0s3.5.23,5.24.43c17.69,1,34.15,4,51.53,8l2.77.63,2.7.72,5.31,1.42c1.76.44,3.47,1,5.18,1.51l5.12,1.56c3.4,1.07,6.75,2.29,10.17,3.44s6.81,2.57,10.34,3.93a282.53,282.53,0,0,1,27.92,13.11,245.93,245.93,0,0,1,25.84,16.34c2.25,1.62,4.12,3.43,4.13,4s-1.84-.29-4.09-1.89a311.29,311.29,0,0,0-27.75-16.68A317.55,317.55,0,0,0,249.29,185a301.15,301.15,0,0,0-31.18-10.51,312.27,312.27,0,0,0-33-7.39c-2.43-.45-4.87-.73-7.28-1.09l-3.62-.52c-1.21-.16-2.42-.26-3.63-.4a.48.48,0,0,1,.1.28c0,.36-.51.65-1.3.86l4.1.45c1.36.19,2.72.42,4.08.63l4.09.66,2,.33,2,.42a190.47,190.47,0,0,1,45.68,10.7A236,236,0,0,1,260,192.91a281.6,281.6,0,0,1,34.41,18.3,3.19,3.19,0,0,1,1,.79c.1.18-.18.1-.63-.17l-6-3.27-3-1.64-3.06-1.58-6.13-3.16-6.27-3c1.15,1,1.72,1.76,1.41,2.1s-1.5.2-3.15-.33l5.52,3c1.13.6,1.94,1.26,1.79,1.45s-1.12-.15-2.2-.71c-3.75-2-7.47-4-11.31-5.84-1.91-.92-3.79-1.9-5.73-2.77l-5.8-2.6A294.41,294.41,0,0,0,222,183.56a7,7,0,0,1,2.44,2.12h0l4.49,1.39c27.69,7.64,54.5,21.05,78.43,38.55.47.33.82.67.77.75s-.45-.11-.88-.41c-3.64-2.59-7.26-5.22-11-7.62-1.88-1.2-3.71-2.48-5.63-3.61l-5.73-3.44,0,0c.28.24.28.38-.1.23a5,5,0,0,1-1.19-.72c-.32-.27-.23-.35.09-.23a244.48,244.48,0,0,0-44.88-20.11,257.22,257.22,0,0,1,40.77,19.23c1.48.7,3,1.35,4.47,2.12a3.16,3.16,0,0,1,1,.75c.07.14-.27.06-.68-.16l-1.22-.64c2.41,1.51,4.06,3,3.75,3.43s-2.7-.52-5.21-2c-6.9-3.75-13.81-7.43-20.92-10.69l-2.34-1-2.42-.84a292.45,292.45,0,0,1,31.72,17.58c.89.53,1.57,1.1,1.49,1.27s-.87-.12-1.77-.64a295.3,295.3,0,0,0-28.58-14,288.87,288.87,0,0,0-30-11c-3.48-.62-7-1.1-10.47-1.63-3.53-.37-7-.81-10.6-1.1.87.18,1.74.41,2.61.64,11.11,2.61,21.43,5.17,31.57,8.25a198.55,198.55,0,0,1,30.21,11.69c.5.25.88.55.89.67s-.37,0-.87-.25a222,222,0,0,0-29.7-11.39l-6.34-1.94-6.28-1.65-3.09-.79-3.09-.66c-2.06-.43-4.1-.85-6.13-1.23l6.08,1.6,3,.78,3,.86,6,1.71,5.92,1.89,3,.94,2.93,1,5.87,2.12c1.94.75,3.87,1.55,5.81,2.34l2.92,1.2c1,.41,1.91.87,2.88,1.3a8.08,8.08,0,0,1,1.7,1,.76.76,0,0,1,.43.06,67.09,67.09,0,0,1,6.33,2.52,3.18,3.18,0,0,1,1.06.69C274.62,214.71,274.33,214.67,273.86,214.48Zm-244.6-12-.24-.08h.65l1.39.73Zm-4.67,9.44h0l-.81-.38Zm96.62-48.19-7.27.82c-1.21.11-2.42.28-3.62.46l-3.62.49c-4.84.55-9.62,1.45-14.5,2.07l6.93-1.68,2.74-.44,2.76-.32,5.52-.62c1.83-.23,3.68-.34,5.53-.45ZM21,201.83a12.19,12.19,0,0,1,3.28.79,5.13,5.13,0,0,1,1.34-1.15,27.93,27.93,0,0,1,4.27-2.14c-.44-.29-.09-.44,0-.58l.43-.41c-1.58.61-3.25,1.1-4.86,1.76A40.91,40.91,0,0,1,21,201.83Zm-8.22,8.41-.23-.05-.22-.76Zm.41,1.26.26-.06C13.54,211.7,13.41,211.67,13.17,211.5Zm2.31-.61a1.87,1.87,0,0,0-.49-.12Zm14.73,16-1.71-3.36,1.57,3.29Z"/><path d="M124.62,61l.26,0c0,.16-.16.27-.35.35,2.45,0,3.93-2.3,4.33-4.49A1.1,1.1,0,0,0,127.68,55a1.37,1.37,0,0,1-.44.06,8.48,8.48,0,0,0-3.68.26h.86a2.83,2.83,0,0,0-1,.39l.31.18A2.54,2.54,0,0,0,124,61Z"/><path d="M128.46,62.41c-.78.11-1.57.18-2.36.25l-.23-.08.61.7,0-.05a4.52,4.52,0,0,1,1.24-2.63l.19-.31a.83.83,0,0,0-.07-.58.8.8,0,0,0-1.09-.34l-.45.25c-1.3.33-2.85,1.5-2.44,3.17.1.38.49.66.78,1a1.11,1.11,0,1,0,1.85-1.24l.33-.09-.06.33c-.19-.53.18-1,.34-1.45l.4-.51-1.16-.91-.14.35.15.08a9.64,9.64,0,0,1-.86,2l-.35.94a.68.68,0,0,0,.6.71h.49l-.25,0c.9-.28,1.74-.69,2.64-.95a.28.28,0,0,0,.21-.34A.29.29,0,0,0,128.46,62.41Z"/><path d="M126.14,64.46a.64.64,0,0,0-.5.13v.15l.37,0C126.27,64.78,126.27,64.61,126.14,64.46Z"/><path d="M125.64,64.74h-.16l.15.06v-.05Z"/><path d="M147.51,44.44a38.75,38.75,0,0,0,3.7-2s0-.1,0-.18-.13-.1-.16-.07c-1.2.72-2.42,1.4-3.7,2,0,0,0,.1,0,.17S147.47,44.46,147.51,44.44Z"/><path d="M161.13,45.07a.26.26,0,0,0,.14.18c.06,0,.1,0,.09-.08a.3.3,0,0,0-.14-.17C161.15,45,161.12,45,161.13,45.07Z"/><path d="M165.17,50.76a1.89,1.89,0,0,0-.12.74s0,.07-.07,0a.5.5,0,0,1,.13.33,15.46,15.46,0,0,1-2,4.47,1.2,1.2,0,0,1,.15.3c.14.34.1.62-.11.69l-.18,0c-.63.23-1.24.49-1.88.71a.75.75,0,0,1-.17.51,12.6,12.6,0,0,1-.59,2,1.16,1.16,0,0,1,.26.24c.18.25.22.51.09.6l-.17.15c.22-.07.44-.15.67-.21a.16.16,0,0,1,.1,0,3.56,3.56,0,0,0,.57-.47,15,15,0,0,0,3.23-6c0-.06.05-.08.12,0s.12.13.11.18c-.06,2,.31,4.3-.21,6a31.2,31.2,0,0,1-2.25,5.56c-1.47,1.13-2.36,2.77-3.51,4.36a18.59,18.59,0,0,1-1.21,1.51,1.17,1.17,0,0,1-.2.21l-.33.31-.68.62-1.35,1.2c-1.82,1.58-3.69,3.08-5.59,4.6a3.32,3.32,0,0,1-5.64-2.85l-.37.25-.69.26a2.84,2.84,0,0,1-2.05,0l-.86-.3c-1.41-.74-3-1-4.35-1.93l-.25-.52-.21-.05a3,3,0,0,1-1.58-.74l-.39-.57a6.72,6.72,0,0,1-.87-2.16,2.51,2.51,0,0,1-.43-.74,3.44,3.44,0,0,1-1.55-1.68.49.49,0,0,1-.37-.58.48.48,0,0,1,.13-.23h0a3.53,3.53,0,0,0-.47-.19,2,2,0,0,1-.28.08l-.82.33a2.21,2.21,0,0,1-.79-.12c-1.06-.75-1.06-.75-1.34-1.2a1,1,0,0,1,0-.17,2.76,2.76,0,0,1-.48,0,1.26,1.26,0,0,1-.24-.07c-.18-.22-.18-.22-.29-.27a1.69,1.69,0,0,1-.14-.16c-.06-.36-.06-.36-.11-.43a1.09,1.09,0,0,1,0-.19l.15-.3.79.32-.08-.26.28.21-.23-.21.28,0-.36-.07a2.17,2.17,0,0,0,.63-.35.72.72,0,0,0,.29-.29.66.66,0,0,1-.11-.12l1-.45.22.08a.24.24,0,0,1,.14-.24l.25-.13,0-.07v0c0-.1.06-.17.09-.25l0-.06h0c.07-.18.16-.44.41-1.12a3.25,3.25,0,0,1,.46-.17l-.19,0c-.13,0-.24-.29-.29-.28a16.85,16.85,0,0,0-3.59,1.34.41.41,0,1,1-.59-.57A9,9,0,0,1,131.49,57c.62-.3,1.24-.62,1.86-1l-.17,0,.56-.16,0,0-.63-.15-.31.06a26.82,26.82,0,0,1-4.53,1.63,24.46,24.46,0,0,1-2.51.55.38.38,0,0,1-.51-.14.36.36,0,0,1,.13-.49c1.85-1.88,4.41-3.45,7.11-3.38a2.14,2.14,0,0,1,1.32-.44h0l-.49-.15c.35-.14.71,0,1.06-.06l-.45-.38c1.61-.8,3-2.09,4.81-2.43l.18-.08a8.89,8.89,0,0,1,.94-1.79l-.46.13a1.41,1.41,0,0,1,.52-.89,3.11,3.11,0,0,1,3.36.47A48,48,0,0,0,147,44.49c.06-.07.19,0,.31.1s.16.29.11.36a16.07,16.07,0,0,1-2.26,3.23,14.91,14.91,0,0,0,2.91-1.45l.29-.32a.68.68,0,0,1,.37-.18,12.8,12.8,0,0,0,3-2.76,27.93,27.93,0,0,0,1.94-3.13,12.5,12.5,0,0,1,2.93-4.17c.15-.17.5-.05.79.28s.4.74.26.91c-1.92,3.18-3.61,6.55-6.6,8.6l-1,.65.11.13a2.16,2.16,0,0,1,.32.56,9.5,9.5,0,0,1,1.2-.58,6.59,6.59,0,0,1,2.51-2.88,8.94,8.94,0,0,1,2.71-.62c.66-.86,1.28-1.77,2-2.6,0,0,.08,0,.14,0a.19.19,0,0,1,.08.19,13.38,13.38,0,0,1-.95,2.39,2.29,2.29,0,0,1,.75.69,2.12,2.12,0,0,1,.43.94l.42-.29c.09-.06.25,0,.37.17s.16.35.08.4l-1.7,1.21c-.53.68-1.07,1.34-1.63,2a3.36,3.36,0,0,1,.77.6h0l.28-.26a14,14,0,0,1,4.77-5.61s.12,0,.17.07.08.16,0,.18a11.39,11.39,0,0,0-1.73,1.36h0a.29.29,0,0,1,.14.18c0,.06,0,.1-.09.07a.29.29,0,0,1-.14-.17,14.62,14.62,0,0,0-2.53,3.34,17.17,17.17,0,0,1,3-2.26c0-.17.07-.34.11-.51s.09,0,.15,0a.19.19,0,0,1,.07.18l0,.14c.2-.12.58.07.87.45s.35.81.15,1c-.46.47-.94.9-1.44,1.32l-.11.2,0,.31c.91-.48,1.85-.91,2.79-1.33.07-.06.21,0,.31.14s.14.29.07.34a27.85,27.85,0,0,1-3.34,4.42c0,.93,0,1.88-.07,2.82l.2-.12c1.54-1.2,1.58-3.85,2.81-5.35,0,0,.1,0,.16,0s.08.15,0,.18a17.2,17.2,0,0,0-1.2,2.82,15,15,0,0,0-.9,2.4c1-1,1.55-2.59,2.43-3.78,0-.07.1-.08.19,0a.21.21,0,0,1,0-.12,2.3,2.3,0,0,1,.12-.77c0-.06.06-.06.14,0A.26.26,0,0,1,165.17,50.76Zm-30.49,11-.12,0,.3,0,.69.33Zm-1.87,4.64h0l-.39-.19Zm13.72-18.2a4.49,4.49,0,0,1-2.15.9l.36-.42A16.77,16.77,0,0,1,146.53,48.23ZM130.8,61.51a6.33,6.33,0,0,1,1.54.39,2.21,2.21,0,0,1,.58-.56,20.47,20.47,0,0,1,1.85-1.1c-.22-.13-.07-.21,0-.29l.17-.2q-1,.48-2.13.93A14.94,14.94,0,0,1,130.8,61.51Zm-3.55,3.93-.11,0L127,65Zm.2.62.12,0C127.62,66.16,127.56,66.14,127.45,66.06Zm1.06-.24a.79.79,0,0,0-.23-.07Zm7.06,8-.8-1.67.73,1.63Z"/></g></g></svg>