<svg xmlns="http://www.w3.org/2000/svg" viewBox="0 0 501.61 268.38"><g id="Layer_2" data-name="Layer 2"><g id="Layer_1-2" data-name="Layer 1"><path d="M246.34,60.66c.2-.07.41-.12.61-.18a1.71,1.71,0,0,1-.69,1.16,15,15,0,0,0,6.41-5.94,26,26,0,0,0,3.17-8.08c1.23-1.1,1.72-2.73,1-3.73s-2.43-.93-3.75.23a5.11,5.11,0,0,1-1.11.47A17.94,17.94,0,0,0,247.29,46a26.66,26.66,0,0,0-4.59,2.53l2.16-.84a10.7,10.7,0,0,0-2.51,1.94l.78.14c-3.49,1.58-5.95,5.79-5.27,9s3.87,4.24,7,2.6Z"/><path d="M255.51,60.5c-1.71.87-3.49,1.66-5.21,2.55l-.55,0,1.62,1-.08-.1c-.37-2.22.77-4.74,2-6.93l.37-.85a1.57,1.57,0,0,0-.25-1.26c-.55-.75-1.72-.7-2.62.11l-1,.95c-3,1.9-6.25,6.3-4.52,9.59.4.74,1.39,1,2.17,1.36a2.58,2.58,0,0,0,3.53-.85,2.7,2.7,0,0,0,.07-3.69c.23-.17.46-.34.7-.5,0,.25,0,.52,0,.78-.63-1,.1-2.31.32-3.53.26-.49.52-1,.8-1.47L250,56.59l-.25.94a2.29,2.29,0,0,1,.37,0,48.3,48.3,0,0,1-1.35,5.26c-.15.81-.31,1.61-.42,2.43a1.2,1.2,0,0,0,1.64,1c.36-.15.71-.3,1.08-.43l-.56.14c.92-.72,1.82-1.49,2.7-2.25s1.83-1.46,2.77-2.09a.81.81,0,0,0,.39-.91A.54.54,0,0,0,255.51,60.5Z"/><path d="M251.13,67a1.81,1.81,0,0,0-1,.77c0,.18.07.27.08.31l.81-.3C251.57,67.55,251.48,67.18,251.13,67Z"/><path d="M250.18,68.06l-.34.13h.34v-.12Z"/><path d="M283.4,204.26l-2.58,1.89c-.83.64-1.62,1.3-2.44,2-1.61,1.31-3.31,2.58-4.78,4l-2.28,2a29.44,29.44,0,0,0-2.22,2.08l-.5.52-.17.18-.33.37c-.21.24-.61.54-.87.85a23.38,23.38,0,0,0-3.1,4.07,6.22,6.22,0,0,0-.77,2.45,3.83,3.83,0,0,0,.64,2.44,11.74,11.74,0,0,0,4,3.13,27.14,27.14,0,0,0,4.82,2.07,3.21,3.21,0,0,0,.36.11l.49.15,1.35.42c.92.26,1.85.47,2.77.72,1.87.43,3.76.84,5.7,1.12a84,84,0,0,0,11.84,1,5,5,0,0,0,2-.23c0-.11-.79-.22-1.79-.2a86.27,86.27,0,0,1-11.79-1c-1.92-.29-3.8-.69-5.66-1.11l-2.75-.71c-.84-.26-2-.63-2.31-.7a26.53,26.53,0,0,1-4.58-2,11.77,11.77,0,0,1-3.86-2.93,3.6,3.6,0,0,1-.68-2.29,5.7,5.7,0,0,1,.68-2.34,20.53,20.53,0,0,1,2.91-3.87,11.05,11.05,0,0,1,.85-.83l.3-.34.16-.17.07-.08.24-.24,1-1.06,1.14-1,2.27-2c.78-.66,1.47-1.37,2.3-2l2.44-2,2.42-1.95,2.57-1.88a6.39,6.39,0,0,0,1.64-1.54C285,203.24,284.26,203.63,283.4,204.26Z"/><path d="M454.22,197.17c-1,0-.93.1,0,.26s2.35.37,3.3.46.81,0,0-.26A15.19,15.19,0,0,0,454.22,197.17Z"/><path d="M446.35,205.19a60.39,60.39,0,0,0-13.21,3.42c-.75.28-1.6.53-2.25.7.33.07-.55.52-2.26,1.17-16.91,6.44-33.59,15.6-51.13,24.73-8.78,4.56-17.81,9.08-27.25,13.13a193.65,193.65,0,0,1-29.6,10.16,6,6,0,0,1-1.67.83,42.2,42.2,0,0,1-6.13,1.74c-1.31.26-2.72.51-4.2.75s-3,.37-4.59.52-3.16.18-4.75.23a116.37,116.37,0,0,1-14.45-.32A96.67,96.67,0,0,1,270.41,260l-1.79-.42-1.79-.49-2-.56a17.92,17.92,0,0,1-2.23-.69c-1.47-.53-2.95-1-4.4-1.58l-4.31-1.76a67.13,67.13,0,0,1-15.12-9.43,28,28,0,0,1-5.26-5.28,19.35,19.35,0,0,1-3.52-7.64,21.8,21.8,0,0,1-.43-7.41,30.54,30.54,0,0,1,1.7-7.2,33.42,33.42,0,0,1,3.3-6.89c1.48-2.23,3-4.46,4.45-6.7.75-1.12,1.48-2.25,2.35-3.34.43-.55.82-1.11,1.27-1.66l1.42-1.66,2.56-3c.67-.82,1.39-1.58,2.1-2.33l4.33-4.55c1.47-1.48,3-2.87,4.5-4.31-.88.58-1.48.86-1.61.7-.07-.55,2.56-3.54,6.06-6.27,1.74-1.41,3.47-2.89,5.23-4.2-1.29.91-2.56,1.91-3.83,2.91l-3.82,3c-2.53,2-5,4.23-7.5,6.35-.69.67-1.35,1.27-2,1.81l-3.93,3.86c-.66.64-1.26,1.38-1.89,2.06l-2.67,3c-.45.51-.94,1-1.35,1.53l-1.21,1.53c-.83,1-1.55,2.07-2.27,3.13q-2.19,3.15-4.38,6.33l-1.2,1.74c-.35.59-.65,1.19-1,1.78a31,31,0,0,0-1.66,3.63c-.49,1.22-.88,2.45-1.28,3.69s-.61,2.51-.82,3.78a30.94,30.94,0,0,0-.36,3.86,25.61,25.61,0,0,0,.24,3.9,21.78,21.78,0,0,0,.87,3.82c.19.62.41,1.23.64,1.83s.54,1.17.83,1.74a27.68,27.68,0,0,0,4.36,6.16,34.36,34.36,0,0,0,2.73,2.66c1,.83,2.09,1.61,3.13,2.41a67.68,67.68,0,0,0,14.37,7.86l3.92,1.5,4,1.3c.66.21,1.32.45,2,.64s1.3.32,1.95.47l3.09.74a105.42,105.42,0,0,0,12.2,1.83,115.78,115.78,0,0,0,23.87-.41c15.62-1.93,30-6.6,43.33-12.28s25.76-12.34,37.87-18.83a21.41,21.41,0,0,1,2.79-1.34c.52-.15.49,0-.38.5-15,8.55-29.28,17.13-45.7,24.28a160.57,160.57,0,0,1-26.68,9,115.75,115.75,0,0,1-31.95,3.21c-.86,0-1.72-.06-2.59-.12L278.4,268c-1.73-.12-3.47-.37-5.21-.59s-3.48-.56-5.22-.85c-.87-.14-1.74-.35-2.61-.54l-3.06-.71a10.44,10.44,0,0,1-1.82-.5l-1.79-.57L255.1,263l-3.54-1.32-1.77-.66a12.13,12.13,0,0,1-1.73-.73l-3.34-1.65a35.23,35.23,0,0,1-3.28-1.74l-3.18-1.85c-.52-.32-1.09-.6-1.56-1l-1.39-1.08a48.88,48.88,0,0,1-5.34-4.46,35.55,35.55,0,0,1-4.19-5.16l-.89-1.41c-.27-.48-.54-1-.79-1.47a24.78,24.78,0,0,1-1.39-3.1c-.37-1.08-.73-2.18-1-3.29s-.48-2.26-.61-3.4a33.94,33.94,0,0,1,1.21-13.49,36.15,36.15,0,0,1,2.43-6.53l.78-1.61c.31-.53.66-1,1-1.57l2-3.14,4.09-6.31a56.18,56.18,0,0,1,4.82-6.26l2.54-2.93c.56-.65,1.1-1.34,1.68-2l3.5-3.7c2.32-2.53,4.75-4.77,7.18-7.08l1.82-1.72,1.85-1.63,3.71-3.23c9.93-8.48,20.08-15.77,29.69-22.8,10.25-7.05,19.63-13.72,27.68-20.63,1-.85,2-1.73,2.93-2.61l2.84-2.61c.95-.86,1.75-1.77,2.64-2.65l2.58-2.65a63.27,63.27,0,0,0,7.71-10.27c.55-.84.91-1.67,1.38-2.48s.81-1.62,1.08-2.39a23.44,23.44,0,0,0,1.36-4.31,15.17,15.17,0,0,0,.36-3.48,11.72,11.72,0,0,0-.39-2.6,15.1,15.1,0,0,0-2.69-4.91,16.52,16.52,0,0,0-5-4.22,20.05,20.05,0,0,0-8.87-2,25.14,25.14,0,0,0-10.59,2.14c-.41.19-.81.34-1.23.58l-.64.31-.11.08-.35.28-.69.52c-.46.39-.93.7-1.38,1.09a58.3,58.3,0,0,0-5.5,4.91,2.54,2.54,0,0,1-2.77,1,9.14,9.14,0,0,1-4.22-2,8.6,8.6,0,0,1-3.26-5l-.46.43-1,.43a5.06,5.06,0,0,1-3.47,0l-1.66-.42c-2.92-1.12-5.92-1.21-9-2.28l-.81-.87-.41,0a6.32,6.32,0,0,1-3.43-.64L271,78.6a13.17,13.17,0,0,1-3-3.7,5,5,0,0,1-1.27-1.23,6.78,6.78,0,0,1-4-2.4.93.93,0,0,1-1-.93,1.18,1.18,0,0,1,.14-.58h0a8.43,8.43,0,0,0-1.06-.06c-.33.24-.54.37-.54.37-.81.7-.81.71-1.54,1.31a5.38,5.38,0,0,1-1.7.39c-2.62-.67-2.63-.65-3.47-1.37-.06-.11-.11-.21-.16-.32-.71.41-.77.44-1,.54a2.69,2.69,0,0,1-.56.07c-.51-.29-.51-.29-.77-.3a2.75,2.75,0,0,1-.39-.21c-.32-.7-.32-.7-.47-.81A2.19,2.19,0,0,1,250,69c.11-.52.16-.73.18-.82l1.87,0-.31-.48.72.19-.61-.25.62-.22-.81.19a6.87,6.87,0,0,0,1.2-1.33,2.52,2.52,0,0,0,.53-.89,1.63,1.63,0,0,1-.3-.16c1-1,1-1,2-1.83a4.38,4.38,0,0,1,.52,0,.64.64,0,0,1,.22-.64l.52-.47a.88.88,0,0,1,0-.17l0,0,.13-.65v-.14h0l.65-2.77a8.84,8.84,0,0,1,1-.69l-.44.07c-.3,0-.59-.48-.71-.42a35,35,0,0,0-7.74,6A1.11,1.11,0,0,1,248,64a.89.89,0,0,1-.22-1.31,20.86,20.86,0,0,1,5.19-9.85,27,27,0,0,1,9.29-6.56c1.6-1,3.14-2,4.76-3l-.39,0,1.4-.56.14-.08-1.5-.12-.78.25c-3.63,2.39-7.64,3.89-11.36,6.27-2,1.28-4.07,2.08-6.06,3.31-.41.39-1,.46-1.23.14s-.14-.89.27-1.29c4.25-6.15,11.36-11.66,18.22-12.49a7.42,7.42,0,0,1,3.56-1.44l.06,0-1.17-.2c.94-.42,1.78-.17,2.72-.43l-.95-.75c4.51-2.21,9.14-5.2,14.09-5.65a3.16,3.16,0,0,1,.53-.13,29.41,29.41,0,0,1,2.36-2.22l.66-.5a1.43,1.43,0,0,1,.23-.14l1.29-.54c.87-.35,1.73-.72,2.63-1.05a78,78,0,0,1,11.48-3.24c-1.37.25-2.73.5-4.08.79s-2.7.63-4,1-2.66.78-4,1.2l-3.66,1.27,0,0,.23-.1.51-.22,1-.44,2.07-.85c1.42-.51,2.84-1,4.28-1.51a79,79,0,0,1,8.81-2.27,75.8,75.8,0,0,1,45.21,5,73.23,73.23,0,0,1,12.11,6.89A66.85,66.85,0,0,1,379.3,51.62a62.9,62.9,0,0,1,5.13,10,53.15,53.15,0,0,1,4,17.51c.22,1.07.42,2.14.55,3.25s.3,2.18.39,3.29l.18,3.33c.07,1.12,0,2.18,0,3.28a60.06,60.06,0,0,1-.48,6.46c-.12,1.07-.33,2.11-.5,3.16S388.23,104,388,105l-.75,3-.91,2.93c-.3,1-.64,1.94-1,2.87s-.71,1.89-1.1,2.8a85.5,85.5,0,0,1-5.27,10.33,104.23,104.23,0,0,1-13.09,17.25c-2.37,2.55-4.85,5-7.29,7.21l-3.67,3.34c-1.23,1.13-2.5,2.11-3.75,3.16a317.32,317.32,0,0,1-30.42,21.79c-10,6.5-19.79,12.55-28.7,18.86a14.21,14.21,0,0,1-4.06,2.34c-.35-.09.71-1.15,2.53-2.48,12.59-9.35,27-18.1,41.58-28.31a251.26,251.26,0,0,0,21.68-17l5.23-4.86c1.74-1.67,3.48-3.47,5.16-5.3A108.72,108.72,0,0,0,373.65,131a101.86,101.86,0,0,1-8.14,9.88c-.71.78-1.43,1.53-2.16,2.26s-1.45,1.5-2.2,2.2l-2.24,2.13-2.24,2-4.49,3.93L347.57,157l-2.3,1.82-2.34,1.7L338.26,164C325.74,172.7,313,180.2,301,187.87l-4.53,3-4.44,3-4.31,3c-1.42,1-2.91,1.92-4.28,2.92l-5.13,3.91-4.85,4c-1.6,1.36-3,2.79-4.57,4.18l-1.14,1c-.37.35-.7.73-1,1.09l-.46.49-.23.26-.47.53c-.29.36-.75.75-1.08,1.15l-1,1.26a30,30,0,0,0-2,2.57,12.41,12.41,0,0,0-1.43,2.87,5.9,5.9,0,0,0-.22,3.17,5.4,5.4,0,0,0,1.64,2.72,13.55,13.55,0,0,0,2.63,1.88,31.12,31.12,0,0,0,5.85,2.73c.51.2,1,.33,1.54.49l.77.24.46.11.64.17,1.39.4,1.43.33c.95.21,1.9.46,2.88.61a76,76,0,0,0,12,1.32,95.76,95.76,0,0,0,10.46-.26c3.46-.3,6.83-.71,10.26-1.35a141.91,141.91,0,0,0,20.22-5.35c13.42-4.54,26.65-10.77,41.13-17.82,10.19-4.94,20.4-9.93,31-14.38,5.29-2.22,10.68-4.31,16.19-6.17A124.05,124.05,0,0,1,438,187.27a59.61,59.61,0,0,1,21-.36,44.12,44.12,0,0,1,21,9.81,55.5,55.5,0,0,1,13.37,16.94A76.48,76.48,0,0,1,500,232.58c1.51,6.65,1.83,12.48,1.5,13.26s-1.23-3.56-2.54-10a81.14,81.14,0,0,0-6.38-19.3A54.71,54.71,0,0,0,479.26,199a44,44,0,0,0-9.92-6.45,42.79,42.79,0,0,0-11.42-3.43,60.2,60.2,0,0,0-21.49,1c-3.28.69-6.42,1.54-9.45,2.47s-5.9,1.9-8.81,2.93c-5.79,2.08-11.43,4.37-17,6.78-11,4.82-21.66,10.09-32.14,15.11s-20.85,9.76-31.38,13.6a141.41,141.41,0,0,1-31.88,8,87.47,87.47,0,0,1-31.51-1.88l-1.86-.54c-.51-.14-.89-.22-1.28-.36-.77-.27-1.56-.48-2.32-.79s-1.53-.58-2.27-.93-1.49-.68-2.22-1.07-1.43-.8-2.14-1.22a17.47,17.47,0,0,1-2-1.39,6.85,6.85,0,0,1-2.7-4,7.17,7.17,0,0,1,.56-4.16,17.44,17.44,0,0,1,2.13-3.64c.87-1.1,1.76-2.18,2.64-3.26.42-.53,1-1,1.4-1.49s.68-.78,1.64-1.78c-.14,0-.29,0-.35,0-.26-.25.06-1.16,1-2.38-.49.46-1,.9-1.45,1.39l-1.2,1.26c-.53.57-1.05,1.15-1.69,1.77-1.16,1.29-2.24,2.65-3.37,4a19.16,19.16,0,0,0-2.69,4.53,7.38,7.38,0,0,0-.29,5.19,7.94,7.94,0,0,0,2.34,2.87,19.8,19.8,0,0,0,3.12,2,41.17,41.17,0,0,0,6.67,3c1.13.42,2.29.73,3.43,1.06l.47.11.54.14,1.3.35c.87.24,1.77.4,2.65.6a79.46,79.46,0,0,0,10.9,1.55,100.72,100.72,0,0,0,11.28.2q5.72-.27,11.47-1.1a155.08,155.08,0,0,0,23.53-5.56,331.84,331.84,0,0,0,31.52-12c10.24-4.37,20.37-8.94,30.89-13.28,6.55-3,13.22-5.86,20.08-8.44,3.43-1.28,6.91-2.5,10.44-3.62a107.58,107.58,0,0,1,11.09-2.94,63,63,0,0,1,12.11-1.38,43.77,43.77,0,0,1,12.93,1.69c1.09.28,2.15.71,3.22,1.08s2.11.86,3.11,1.4a39.13,39.13,0,0,1,5.74,3.51,46.24,46.24,0,0,1,9.23,9.14,16.88,16.88,0,0,1,1.79,2.7c.18.46-.28-.1-1.09-1.19a45.44,45.44,0,0,0-13.12-12,37.92,37.92,0,0,0-8.55-3.74,41.12,41.12,0,0,0-9-1.56,59.77,59.77,0,0,0-17.09,1.61c-2.69.61-5.31,1.34-7.87,2.14-1.28.39-2.53.81-3.78,1.24s-2.49.85-3.72,1.3c3.24-.78,5.27-.91,5.15-.42s-2.43,1.68-6,3.23c4.46-1.52,8.93-3,13.64-4.12,2.91-.7,5.29-.95,5.25-.7s-2.34.86-5.07,1.53a203.15,203.15,0,0,0-27.16,9.36c-8.79,3.63-17.35,7.64-25.84,11.66-10.13,5-20.15,9.92-30.37,14.27a191.45,191.45,0,0,1-31.36,10.63,31.49,31.49,0,0,1,6.53-.27h0c3.32-.94,6.61-1.92,9.85-3,14.84-5.37,29.1-12.5,43.51-19.67s29.1-14.43,44.78-19.79c7.79-2.65,16-5.07,24.86-5.3a38.71,38.71,0,0,1,13.29,1.88,34.32,34.32,0,0,1,11.76,6.8c6.81,5.93,11.37,13.83,14.11,22s4,16.6,5,24.78a8.69,8.69,0,0,1,.14,2.39,6.68,6.68,0,0,1-.44-2.1c-1.27-9.86-2.75-20.08-6.91-29.73a49.79,49.79,0,0,0-8.41-13.37,36.61,36.61,0,0,0-13-9.52l.08,0c.79.41.88.58,0,.26s-2.39-.86-3.18-1.2c-1-.34-.83-.43,0-.27a40.75,40.75,0,0,0-14.82-1.49,73,73,0,0,0-14.13,2.59,210.86,210.86,0,0,0-26.13,9.61c-16.88,7.36-32.81,16.09-49.08,23.6,15.23-6.73,30.09-14.51,45.53-21.26a241.7,241.7,0,0,1,23.65-9.06A103.6,103.6,0,0,1,439,199.1a54.88,54.88,0,0,1,13-1,35.66,35.66,0,0,1,11.5,1.92,12.48,12.48,0,0,1,2.63,1.33c.22.22-.5-.09-1.54-.49s-2.05-.74-3.09-1.07a25.44,25.44,0,0,1,7.47,3.89c1.66,1.3,2.45,2.29,2.25,2.45-.62.24-5.14-3.11-11.52-4.82a38.36,38.36,0,0,0-13.07-1,70.93,70.93,0,0,0-12.92,2.43A213.25,213.25,0,0,0,409,211.63c-1.74.75-3.46,1.56-5.19,2.35s-3.4,1.72-5.09,2.61c6.21-2.8,12.49-5.44,18.86-7.83,3.18-1.18,6.38-2.31,9.62-3.33s6.47-2,9.75-2.73c6.54-1.49,13.32-2.2,19.8-1a29.84,29.84,0,0,1,9.15,3.34,33.2,33.2,0,0,1,7.63,6.09c1.58,1.6,2.62,3.24,2.5,3.39s-1.32-1.2-2.86-2.79a29.72,29.72,0,0,0-14.26-8.34,39.89,39.89,0,0,0-16.82,0,107.79,107.79,0,0,0-16.85,4.9c-5.57,2-11.07,4.3-16.52,6.73-21.79,9.74-42.79,22.07-66,30.88a179.26,179.26,0,0,1-23.24,8.47,123.39,123.39,0,0,1-25.25,4.47c1.1,0,2.2,0,3.31-.06s2.22-.06,3.32-.16C315,257.64,328,254,340,249.53a313.69,313.69,0,0,0,33.9-15.67c10.79-5.62,21.31-11.38,32.2-16.57,5.45-2.6,11-5.06,16.68-7.27a119.33,119.33,0,0,1,17.48-5.52,8.39,8.39,0,0,1,2.37-.27c.14.07-.65.32-1.85.53a112.54,112.54,0,0,0-16.92,5.33c-5.51,2.12-10.86,4.51-16.16,7-10.61,5-21,10.7-32,16.43-9.15,4.74-18.25,9.28-27.53,13.28a198.52,198.52,0,0,1-28.55,9.95,176.79,176.79,0,0,0,28.75-9.37c9.12-3.81,17.84-8.08,26.38-12.44,17.05-8.7,33.5-17.79,51.14-24.27a30.73,30.73,0,0,1,4.13-1.29,3.34,3.34,0,0,1,.83-.42,70.91,70.91,0,0,1,14-4,10.39,10.39,0,0,1,2.6-.15C447.93,204.91,447.38,205,446.35,205.19Zm-177-149.58-.27,0,.67-.15,1.54.48Zm-3.15,10.67h0l-.89-.17Zm84.46,87c2.15-1.78,4.22-3.75,6.33-5.62s4.19-4,6.22-6.12a106.74,106.74,0,0,0,11.31-14.13,77.72,77.72,0,0,0,8.78-17.26,64,64,0,0,0,3.77-20.64,62.53,62.53,0,0,1-2.95,20.37A81.13,81.13,0,0,1,369.64,135a115.67,115.67,0,0,1-9.22,9.86c-.81.74-1.62,1.54-2.43,2.24l-2.43,2.09C353.93,150.54,352.34,152,350.67,153.28ZM260.61,56.91a11,11,0,0,1,3.53,0,6,6,0,0,1,1.24-1.51,34,34,0,0,1,4.22-3.15c-.5-.22-.15-.45,0-.63l.42-.51-2.46,1.41L265.07,54C263.6,54.92,262.11,56.07,260.61,56.91ZM254,68.09l-.24,0-.41-.7Zm.74,1.15.23-.16C255.12,69.32,255,69.33,254.72,69.24Zm2.14-1.38a1.48,1.48,0,0,0-.52,0ZM275.31,79.5l-2.53-2.79c.78.93,1.57,1.84,2.37,2.75Z"/><path d="M67.43,70.45l.61.17a1.58,1.58,0,0,1-1.12.6c5.91.77,11-3,14.07-6.83,1.47-.34,2.48-1.47,2.25-2.61S81.57,59.91,80,60.25a4.76,4.76,0,0,1-1.11-.13A19.44,19.44,0,0,0,74.48,59a32.45,32.45,0,0,0-4.88-.21l2.16.41a9.94,9.94,0,0,0-2.91.3l.59.5c-3.59-.45-7.51,1.62-8.41,4.6s1.39,5.47,4.85,5.73Z"/><path d="M75.37,74.86c-1.86-.1-3.72-.27-5.62-.45l-.48-.25.93,1.64,0-.12c.71-2,2.78-3.54,4.8-4.72l.68-.52A1.4,1.4,0,0,0,76,69.29a1.8,1.8,0,0,0-2.28-1.18l-1.27.27a12.63,12.63,0,0,0-5.33,1.47A5.08,5.08,0,0,0,64.27,74c0,.82.76,1.51,1.24,2.24A2.66,2.66,0,0,0,69,77.32a2.5,2.5,0,0,0,1.74-3l.83-.06c-.13.21-.25.42-.37.63C71.07,73.72,72.26,73,73,72.08c.44-.27.88-.57,1.33-.83l-2-2.31-.62.64c.11.09.3.21.29.23a32.4,32.4,0,0,1-3.49,3.64L67,75.27a1.24,1.24,0,0,0,1,1.64l1.14.18-.55-.16c2.23-.33,4.47-.77,6.66-.94a.74.74,0,0,0,.73-.57A.56.56,0,0,0,75.37,74.86Z"/><path d="M68.68,78.11a1.76,1.76,0,0,0-1.25.12c-.05.17-.07.25-.08.3l.84.16C68.8,78.81,68.89,78.46,68.68,78.11Z"/><path d="M67.35,78.53,67,78.46l.31.16,0,0Z"/><path d="M165.58,66.7q11.43,3.58,22.27,8.16c.24.11.47.11.52,0s-.12-.27-.34-.36q-10.84-4.65-22.27-8.24c-.26-.07-.49,0-.55.08S165.34,66.62,165.58,66.7Z"/><path d="M214.44,98.54c-.18,0-.23.08-.1.23a.9.9,0,0,0,.52.29c.16,0,.22-.09.11-.22A.9.9,0,0,0,214.44,98.54Z"/><path d="M209.41,104.72a15,15,0,0,0-2.74-.65.88.88,0,0,1-.41-.2c0,.17-.26.22-.61.14-6.89-1.64-14-3.66-21.17-4.9a1,1,0,0,1-.43.33,3.63,3.63,0,0,1-2.63-.06l-.71-.31c-2.94-1.06-5.91-2-8.88-2.9a9.83,9.83,0,0,1-2.23,0l-8.31.43a.61.61,0,0,1,.17.53c-.14.44-.82.67-1.53.58l-1.09-.07c1,.19,2,.44,3,.7a1.56,1.56,0,0,1,.4.12l3.46.44c5.16.54,10.23,1.11,15.29,1.74,2.53.29,5,.68,7.57,1s5,.82,7.52,1.35a.69.69,0,0,1,.51.24c.06.11,0,.22-.2.2-6.65-.49-12.68.42-19.73.3a169.36,169.36,0,0,0-24.54,1.44c-8.21-.19-15.76,1.61-23.47,4-2.85.91-5.6,1.81-8.24,2.79-5.42,2.12-10.43,4.19-15.19,6.6a3.68,3.68,0,0,1-3.68.49,6.18,6.18,0,0,1-3.17-3.11,7.68,7.68,0,0,1-.47-6l-.68.28-1.2.1a4.62,4.62,0,0,1-3.31-1.15l-1.34-1c-2.14-2.18-4.79-3.46-7-5.79l-.29-1.14-.36-.19A6.19,6.19,0,0,1,81,98.93l-.56-1.29A13.17,13.17,0,0,1,79.6,93a4.69,4.69,0,0,1-.53-1.65,6.73,6.73,0,0,1-2.38-4,.91.91,0,0,1-.47-1.29,1.1,1.1,0,0,1,.39-.41h0c-.35-.24-.46-.31-.89-.56-.41,0-.65,0-.65,0l-1.94.39A5.42,5.42,0,0,1,71.46,85c-1.95-1.87-2-1.87-2.36-2.89,0-.12,0-.24,0-.35-.81,0-.87,0-1.1,0a2.68,2.68,0,0,1-.51-.23c-.31-.5-.31-.5-.53-.64a2.6,2.6,0,0,1-.24-.38c.06-.74.06-.74,0-.91a1.6,1.6,0,0,1,.05-.38l.54-.59,1.63.92,0-.56.54.52L69,79l.65.13-.79-.25a5.53,5.53,0,0,0,1.64-.52,2.46,2.46,0,0,0,.86-.49,2.57,2.57,0,0,1-.19-.29c1.31-.27,1.31-.27,2.58-.51.17.09.31.18.45.27a.59.59,0,0,1,.47-.44l.65-.14.1-.14,0,0,.39-.48.08-.11h0l1.76-2a6.62,6.62,0,0,1,1.15-.1l-.41-.15c-.27-.12-.3-.68-.42-.69a37.59,37.59,0,0,0-9.28,1.17,1.07,1.07,0,0,1-1.38-.17.83.83,0,0,1,.4-1.2,19.35,19.35,0,0,1,8.71-5.54,26.43,26.43,0,0,1,10.44-1.14c1.7-.17,3.38-.32,5.06-.45l-.3-.21,1.37.11h.14l-1.21-.7-.74-.12a46,46,0,0,1-5.87.16c-2-.08-4-.12-6,0-2.19.07-4.26-.19-6.46-.21a.88.88,0,0,1-1.11-.49c-.1-.38.26-.79.77-.91,6.2-2.86,14-4.11,19.94-1.94a6.25,6.25,0,0,1,3.41.24h.06L95,61c.92,0,1.53.58,2.38.71l-.54-1c4.4-.1,9-.9,13.09.2l.46,0a13.22,13.22,0,0,1,5.73-1.84c-.88-.08-1.76-.11-2.62-.18a18.65,18.65,0,0,1,5.64-.89,24.3,24.3,0,0,1,4.15.3,30.14,30.14,0,0,1,4,.87,16.09,16.09,0,0,1,6.14,3.19,192.43,192.43,0,0,1,29.89,3.35c.5.09.92.37,1,.64s-.36.41-.87.33c-7-.79-14.21-1.53-21.44-1.84,6,1.1,11.92,2.44,17.87,3.76l2.3.41a13.49,13.49,0,0,1,2.23.64c7.55,1.83,14.51,4.08,22,6.3,6.41,1.94,11.94,3.86,18.16,6.3,8.7,3.46,16.47,7.24,24,12.74,1,.69,1.77,1.64,1.64,2.11s-1.06.29-2.08-.39a172.77,172.77,0,0,0-25.6-12.71c-8.86-3.6-18-6.65-27.57-9.69-2.07-.61-4.1-1.29-6.16-1.83a.76.76,0,0,1,0,.26,1.15,1.15,0,0,1-.71.77c2.32.63,4.6,1.47,6.88,2.28a76,76,0,0,1,19.61,6c2.22,1,4.24,2.27,6.22,3.43s3.84,2.45,5.71,3.75a148.08,148.08,0,0,1,15.25,7.69.78.78,0,0,1,.41.39c0,.12-.13.13-.34,0-3.6-1.66-7.3-3.29-11-4.86.42.59.57,1.14.33,1.51s-.87.51-1.65.42l2.38,1.32c.48.28.79.64.67.83s-.59.16-1.06-.1c-1.62-.87-3.23-1.77-4.88-2.58s-3.27-1.67-5-2.44c-4.1-1.64-8.27-3-12.47-4.42a3,3,0,0,1,.78,1.61h0l1.91.68a106.42,106.42,0,0,1,34.39,15.94c.22.13.35.31.3.39s-.25.05-.44-.09a112.83,112.83,0,0,0-9.85-6.12h0c.1.13.07.25-.11.23a1,1,0,0,1-.53-.3c-.12-.15-.05-.24.11-.22a105.42,105.42,0,0,0-19.66-8.24,122.8,122.8,0,0,1,17.55,8.48l2,.71c.18.08.38.26.4.38s-.17.12-.35,0l-.57-.21c1.05.64,1.67,1.46,1.4,1.9s-1.44.29-2.54-.33c-1.5-.77-3-1.55-4.52-2.26s-3-1.48-4.56-2.17l-1-.37-1.11-.22c4.67,2.34,9.16,5,13.53,7.73.39.21.64.53.56.69s-.47.12-.86-.09a208.22,208.22,0,0,0-25.52-9.68l-4.71-.11-4.75.1c.36.12.72.24,1.09.34,4.67,1.3,9.14,2.16,13.62,3.09a72.79,72.79,0,0,1,13.32,4c.22.08.37.24.35.34s-.21.11-.43,0a88.18,88.18,0,0,0-13.12-3.83c-1.87-.46-3.72-.82-5.51-1.19s-3.61-.57-5.39-.76c6.9,1.81,13.79,3.22,20.52,5.81a1.36,1.36,0,0,1,.7.45.29.29,0,0,1,.23-.05,21.72,21.72,0,0,1,2.88.68.66.66,0,0,1,.43.33C209.77,104.73,209.62,104.76,209.41,104.72ZM89.34,77l-.21-.14.63.16,1.15,1Zm-7.28,7.73h0l-.7-.54ZM147.73,67c-2.14-.28-4.26-.64-6.39-1-1.07-.17-2.13-.37-3.2-.59s-2.14-.4-3.21-.64h3.14c1.63.31,3.24.64,4.86,1S146.13,66.54,147.73,67Zm-66.46,7.3a13.17,13.17,0,0,1,3,1.59A5.5,5.5,0,0,1,86,75.11a42.77,42.77,0,0,1,4.88-.87c-.34-.39,0-.44.22-.55l.55-.26c-1.75.13-3.52.27-5.35.37A49.72,49.72,0,0,1,81.27,74.25ZM70.63,80.47l-.22-.09,0-.8S70.49,80,70.63,80.47Zm.11,1.33H71C71.05,82.07,70.93,82,70.74,81.8Zm2.47-.13a1.61,1.61,0,0,0-.46-.23Zm10.68,18.75L83,96.79l.77,3.53Z"/><path d="M7.3,165.09l.59,0a1.28,1.28,0,0,1-.86.8,10.55,10.55,0,0,0,6.84-3.39,16.29,16.29,0,0,0,3.92-6.42A2.46,2.46,0,0,0,19,152.94a2.39,2.39,0,0,0-3.33-.66,4.34,4.34,0,0,1-1,.15,22.12,22.12,0,0,0-8.7.79l2-.06a7,7,0,0,0-2.48.93l.66.35c-3.27.38-6.11,3.16-6.16,6.13s2.63,5,5.84,4.64Z"/><path d="M15.68,167.67c-1.73.31-3.47.55-5.24.79l-.51-.14,1.28,1.4-.05-.11c.13-2.09,1.61-4,3.09-5.68l.47-.65a1.47,1.47,0,0,0,0-1.2,1.76,1.76,0,0,0-2.41-.65c-.37.18-.71.38-1.06.57-3,.88-6.74,3.62-5.93,7.05.2.79,1.06,1.32,1.68,1.93a2.53,2.53,0,0,0,3.45.44,2.38,2.38,0,0,0,.82-3.29l.74-.23c-.05.22-.11.46-.17.69-.36-1.09.52-2.07.93-3.1l1-1.11-2.44-1.81-.37.76a2.22,2.22,0,0,1,.32.16,27.45,27.45,0,0,1-2.18,4.29l-.9,2a1.31,1.31,0,0,0,1.3,1.4l1.09,0-.55,0c2-.7,3.92-1.67,5.9-2.31a.67.67,0,0,0,.5-.73A.55.55,0,0,0,15.68,167.67Z"/><path d="M10.37,172.23a1.58,1.58,0,0,0-1.13.35v.3h.82C10.65,172.89,10.65,172.53,10.37,172.23Z"/><path d="M9.24,172.88H8.89l.32.1s0,0,0,0Z"/><path d="M161.16,123.05c1.13.1,2.26.17,3.37.31l3.35.43,6.69.86,6.65,1.1,3.31.55,3.29.67,6.57,1.35,6.51,1.57,3.25.79c1.08.27,2.14.59,3.22.89l6.41,1.8c.58.15,1.08.22,1.13.11s-.35-.35-.89-.49l-6.42-1.82-3.22-.9-3.24-.79-6.51-1.59-6.56-1.35-3.29-.67-3.31-.57-6.64-1.11c-2.23-.31-4.46-.58-6.69-.87s-4.47-.6-6.73-.76a2,2,0,0,0-1.2.15C160.18,122.85,160.6,123,161.16,123.05Z"/><path d="M280.86,173.17c-.39-.13-.43,0-.1.24a4.74,4.74,0,0,0,1.21.68c.33.11.38,0,.1-.24A4.47,4.47,0,0,0,280.86,173.17Z"/><path d="M273.86,178.39c-1.05-.48-2.07-.95-3.07-1.36s-2-.75-2.93-1.05a5.38,5.38,0,0,1-1-.49c0,.21-.42.15-1.19-.15a320.35,320.35,0,0,0-48.42-15.06,1.82,1.82,0,0,1-.82.26,16.8,16.8,0,0,1-6-.77l-1.75-.55c-1.78-.49-3.59-.88-5.38-1.32s-3.58-.91-5.39-1.26l-5.42-1.09-2.7-.55-2.72-.46a39,39,0,0,1-5.16-.18c-3.19,0-6.39.11-9.58.14l-9.6.45c.39.17.62.36.61.56s-.49.42-1.09.56a9.8,9.8,0,0,1-2.26.25l-2.6.06c2.48.1,5,.12,7.43.39a9.07,9.07,0,0,1,1,.11c2.73.12,5.49.13,8.3.34a288,288,0,0,1,70.74,12.06,3.75,3.75,0,0,1,1.22.54c.18.17.09.27-.33.16-14.65-3.65-27.75-4.7-44-6.31a221.58,221.58,0,0,0-57.21,1.85,148.52,148.52,0,0,0-28.27,5.77A167.19,167.19,0,0,0,89.72,182c-1.5.67-2.91,1.52-4.36,2.27l-4.27,2.27L77,189c-1.36.82-2.75,1.57-4,2.47l-1,.64-.49.32-.18.13-.63.47-1.27.93c-.84.62-1.71,1.17-2.51,1.83-1.63,1.27-3.26,2.48-4.92,3.67s-3.19,2.53-4.81,3.76a5,5,0,0,1-4,1.47,6.53,6.53,0,0,1-4.22-2.21A7.43,7.43,0,0,1,47,196.64l-.65.46-1.25.43a5.16,5.16,0,0,1-3.8-.3l-1.65-.68c-2.72-1.58-5.74-2.19-8.48-3.94l-.55-1.06-.4-.11A6,6,0,0,1,27,190l-.83-1.15a13.52,13.52,0,0,1-1.88-4.35,4.77,4.77,0,0,1-.9-1.51,6.84,6.84,0,0,1-3.23-3.35,1,1,0,0,1-.77-1.17,1.08,1.08,0,0,1,.27-.49h0a9.81,9.81,0,0,0-1-.36c-.37.14-.6.2-.6.2l-1.76.76a5.15,5.15,0,0,1-1.71-.18C12.33,177,12.32,177,11.72,176a2.05,2.05,0,0,1-.07-.34c-.77.14-.83.14-1,.17a2.26,2.26,0,0,1-.53-.13c-.41-.43-.41-.43-.64-.52a2.25,2.25,0,0,1-.31-.32c-.13-.73-.12-.73-.24-.88a2,2,0,0,1,0-.37l.36-.67,1.74.59-.17-.53.62.4-.51-.42h.63l-.79-.1a5.15,5.15,0,0,0,1.4-.81,1.93,1.93,0,0,0,.68-.64,1.89,1.89,0,0,1-.25-.24c1.13-.55,1.13-.55,2.24-1.06a3,3,0,0,1,.48.16.55.55,0,0,1,.32-.53l.56-.29.05-.15,0,0c.1-.22.16-.38.24-.56l0-.12h0c.16-.38.39-.94,1.08-2.35a7.37,7.37,0,0,1,1-.35l-.42-.06c-.28,0-.46-.59-.58-.57a19.45,19.45,0,0,0-2.13.52c-.68.24-1.36.51-2,.8-1.34.58-2.66,1.23-4,1.85a1,1,0,0,1-1.31.09.82.82,0,0,1,.06-1.23c2.7-6,9.14-9.75,15.48-11,1.51-.57,3-1.19,4.47-1.81l-.34-.11,1.28-.28.12,0-1.33-.36-.71.09a27.69,27.69,0,0,1-5.29,1.71c-1.8.48-3.61.95-5.41,1.54s-3.91.81-5.9,1.27a.85.85,0,0,1-1.14-.24A.81.81,0,0,1,9.83,157,36.08,36.08,0,0,1,18,151.82a20.92,20.92,0,0,1,9.17-1.76,5.66,5.66,0,0,1,3.13-.8h0l-1-.36c.82-.26,1.58.14,2.39,0l-.83-.82c2-.67,3.93-1.58,5.88-2.38,1-.39,2-.76,3-1.05a14.25,14.25,0,0,1,3.06-.48l.43-.1a23.49,23.49,0,0,1,1.76-2c.16-.16.32-.31.49-.45l.15-.12.43-.25.87-.49a38.17,38.17,0,0,1,3.73-1.87c-.93.3-1.83.65-2.73,1l-2.65,1a1.92,1.92,0,0,1,.27-.17l.33-.21.68-.4,1.36-.8c.91-.54,1.85-1,2.81-1.47,1.91-.93,3.89-1.8,6-2.62,11.38-4.37,24.9-6.54,31.65-5.37a245.22,245.22,0,0,1,33.55-6.18,268.86,268.86,0,0,1,33.9-1.43,4.27,4.27,0,0,1,2.41.56c.11.27-.66.48-1.82.45a264.88,264.88,0,0,0-48.55,4.61A290,290,0,0,1,149,126c1.77,0,3.55-.07,5.34,0s3.5.22,5.24.42c17.69,1,34.15,4,51.53,8.05l2.77.63,2.7.72,5.31,1.42c1.76.44,3.47,1,5.18,1.51l5.12,1.56c3.4,1.07,6.74,2.28,10.17,3.44s6.81,2.57,10.34,3.93a280.28,280.28,0,0,1,27.92,13.11,245.93,245.93,0,0,1,25.84,16.34c2.25,1.61,4.12,3.42,4.13,4s-1.84-.29-4.09-1.89a311.39,311.39,0,0,0-27.75-16.69,320.1,320.1,0,0,0-29.49-13.56,298.84,298.84,0,0,0-31.18-10.52,314.77,314.77,0,0,0-33-7.38c-2.43-.45-4.87-.73-7.28-1.1l-3.62-.52c-1.21-.15-2.42-.26-3.63-.39a.48.48,0,0,1,.1.28c0,.36-.51.64-1.3.85l4.1.46c1.36.18,2.72.41,4.08.62l4.09.66,2,.34,2,.42a190,190,0,0,1,45.68,10.7A234.47,234.47,0,0,1,260,156.82a280.23,280.23,0,0,1,34.41,18.3,3.19,3.19,0,0,1,1,.78c.1.19-.18.11-.63-.16l-6-3.27-3-1.65-3.06-1.57-6.13-3.16-6.27-3c1.15,1,1.72,1.75,1.41,2.1s-1.5.2-3.15-.34l5.52,3c1.13.61,1.93,1.26,1.79,1.45s-1.12-.14-2.2-.71c-3.75-2-7.47-4-11.31-5.83-1.91-.92-3.79-1.91-5.73-2.77l-5.8-2.61A297,297,0,0,0,222,147.47a7.06,7.06,0,0,1,2.44,2.11h0L228.9,151c27.69,7.64,54.5,21.05,78.43,38.55.47.33.82.67.77.75s-.45-.11-.88-.42c-3.64-2.58-7.26-5.22-11-7.61-1.88-1.21-3.71-2.48-5.63-3.61l-5.73-3.44,0,0c.28.24.28.37-.1.23a5,5,0,0,1-1.19-.72c-.32-.27-.23-.35.09-.24a245.84,245.84,0,0,0-44.88-20.11,258.1,258.1,0,0,1,40.77,19.23c1.48.71,3,1.35,4.47,2.13a3.16,3.16,0,0,1,1,.75c.07.13-.27,0-.68-.17l-1.22-.63c2.41,1.51,4.06,3,3.75,3.43s-2.7-.52-5.21-2c-6.9-3.76-13.81-7.43-20.92-10.7l-2.34-1-2.42-.83a290.76,290.76,0,0,1,31.72,17.58c.89.52,1.57,1.1,1.49,1.27s-.87-.13-1.77-.65a297.55,297.55,0,0,0-28.58-14,288.87,288.87,0,0,0-30-11c-3.48-.62-7-1.1-10.47-1.63-3.53-.38-7-.82-10.6-1.11.87.19,1.74.42,2.61.65,11.11,2.61,21.43,5.16,31.57,8.25a196.48,196.48,0,0,1,30.21,11.69c.5.25.88.55.89.67s-.37,0-.87-.26a221.89,221.89,0,0,0-29.7-11.38l-6.34-1.95-6.28-1.65-3.09-.79-3.09-.65c-2.06-.43-4.1-.85-6.13-1.24l6.08,1.61,3,.77,3,.87,6,1.71,5.92,1.89,3,.94,2.93,1,5.87,2.12c1.94.75,3.87,1.55,5.81,2.34l2.92,1.2c1,.41,1.91.86,2.88,1.3a7.66,7.66,0,0,1,1.7,1,.76.76,0,0,1,.43.06,64.49,64.49,0,0,1,6.33,2.52,3,3,0,0,1,1.06.69C274.62,178.62,274.33,178.57,273.86,178.39Zm-244.6-12-.24-.09h.65l1.39.74Zm-4.67,9.44h0l-.81-.38Zm96.62-48.2-7.27.82c-1.21.11-2.42.29-3.62.46l-3.62.5c-4.84.55-9.62,1.44-14.5,2.06l6.93-1.67,2.74-.44,2.76-.32,5.52-.62c1.83-.23,3.68-.34,5.53-.45ZM21,165.73a12.59,12.59,0,0,1,3.28.8,5,5,0,0,1,1.34-1.15,27,27,0,0,1,4.27-2.14c-.44-.29-.09-.44,0-.59l.43-.4c-1.58.6-3.25,1.1-4.86,1.75A40.91,40.91,0,0,1,21,165.73Zm-8.22,8.42-.23-.06-.22-.76Zm.41,1.26.26-.07C13.54,175.61,13.41,175.58,13.17,175.41Zm2.31-.61a1.87,1.87,0,0,0-.49-.12Zm14.73,16-1.71-3.36,1.57,3.29Z"/><path d="M124.62,24.87l.26,0c0,.17-.16.28-.35.36,2.45,0,3.93-2.31,4.33-4.49a1.1,1.1,0,0,0-1.18-1.85,1.72,1.72,0,0,1-.44.06,8.48,8.48,0,0,0-3.68.26h.86a2.85,2.85,0,0,0-1,.4l.31.18a2.53,2.53,0,1,0,.26,5.06Z"/><path d="M128.46,26.32c-.78.11-1.57.18-2.36.24l-.23-.08.61.71,0-.06a4.52,4.52,0,0,1,1.24-2.62l.19-.32a.81.81,0,0,0-1.16-.91l-.45.24c-1.31.34-2.85,1.51-2.44,3.17.1.39.49.67.78,1a1.11,1.11,0,1,0,1.85-1.24l.33-.09-.06.32c-.19-.53.18-1,.34-1.45l.4-.5-1.16-.92-.14.35.15.08a9.72,9.72,0,0,1-.86,2l-.35.94a.67.67,0,0,0,.6.7l.49,0-.25,0c.89-.28,1.74-.7,2.64-1a.28.28,0,1,0-.13-.54Z"/><path d="M126.14,28.36a.64.64,0,0,0-.5.14v.14l.37,0C126.27,28.69,126.27,28.52,126.14,28.36Z"/><path d="M125.64,28.64h-.16l.15.06v-.05Z"/><path d="M147.51,8.35a36.73,36.73,0,0,0,3.7-2s0-.1,0-.17-.13-.1-.16-.08a41.26,41.26,0,0,1-3.7,2s0,.1,0,.17S147.47,8.36,147.51,8.35Z"/><path d="M161.13,9a.24.24,0,0,0,.14.17c.06,0,.1,0,.09-.07a.3.3,0,0,0-.14-.17C161.15,8.88,161.12,8.92,161.13,9Z"/><path d="M165.17,14.67a1.89,1.89,0,0,0-.12.74c0,.05,0,.06-.07.05a.48.48,0,0,1,.13.32,15.23,15.23,0,0,1-2,4.47,1.27,1.27,0,0,1,.15.31c.14.34.1.61-.11.69l-.18,0c-.63.23-1.24.49-1.88.7a.79.79,0,0,1-.17.52,12.93,12.93,0,0,1-.59,2,.83.83,0,0,1,.26.24c.18.25.22.51.09.59l-.17.16.67-.22h.1a4.18,4.18,0,0,0,.57-.47,15.13,15.13,0,0,0,3.23-6c0-.06.05-.08.12,0a.22.22,0,0,1,.11.18c-.06,2,.31,4.3-.21,6a31,31,0,0,1-2.25,5.57c-1.47,1.13-2.36,2.77-3.51,4.35-.39.54-.79,1-1.21,1.52a1.65,1.65,0,0,1-.2.21l-.33.31-.68.61q-.67.62-1.35,1.2c-1.83,1.58-3.69,3.09-5.59,4.61a3.32,3.32,0,0,1-5.64-2.86l-.37.26-.69.26a2.9,2.9,0,0,1-2.05,0l-.86-.3c-1.41-.75-3-1.06-4.35-1.93l-.25-.52-.21-.06A2.89,2.89,0,0,1,134,37.3l-.39-.58a6.67,6.67,0,0,1-.87-2.15,2.56,2.56,0,0,1-.43-.75,3.4,3.4,0,0,1-1.55-1.68.47.47,0,0,1-.24-.8h0l-.47-.19-.28.09-.82.33a2.21,2.21,0,0,1-.79-.12c-1.06-.75-1.06-.75-1.34-1.21a.9.9,0,0,1,0-.16l-.48.05a1.26,1.26,0,0,1-.24-.07c-.18-.22-.18-.22-.29-.27a1.27,1.27,0,0,1-.14-.17c-.06-.35-.06-.35-.11-.43a.94.94,0,0,1,0-.18c.09-.2.13-.27.15-.31l.79.33-.08-.26.28.21-.23-.21.28,0-.36-.07a2.17,2.17,0,0,0,.63-.35.72.72,0,0,0,.29-.29l-.11-.12,1-.46.22.09a.23.23,0,0,1,.14-.24l.25-.13,0-.07v0c0-.1.06-.18.09-.26l0-.06h0c.07-.18.16-.44.41-1.13a3.16,3.16,0,0,1,.46-.16l-.19,0c-.13,0-.24-.29-.29-.29a17.44,17.44,0,0,0-3.59,1.35.43.43,0,0,1-.59,0,.42.42,0,0,1,0-.59,9,9,0,0,1,6.43-5.1q.93-.47,1.86-1l-.17-.05.56-.16,0,0-.63-.15-.31,0a26.82,26.82,0,0,1-4.53,1.63,22.07,22.07,0,0,1-2.51.55.37.37,0,1,1-.38-.63c1.85-1.87,4.41-3.44,7.11-3.37a2.14,2.14,0,0,1,1.32-.44h0l-.49-.15c.35-.14.71,0,1.06-.07l-.45-.37c1.61-.8,3-2.09,4.81-2.44l.18-.07a8.61,8.61,0,0,1,.94-1.79l-.46.12a1.47,1.47,0,0,1,.52-.89,3.11,3.11,0,0,1,3.36.48A49.84,49.84,0,0,0,147,8.4c.06-.08.19,0,.31.09s.16.3.11.37a16.35,16.35,0,0,1-2.26,3.23,15.53,15.53,0,0,0,2.91-1.46l.29-.31a.68.68,0,0,1,.37-.18,13,13,0,0,0,3-2.76,28.87,28.87,0,0,0,1.94-3.13A12.4,12.4,0,0,1,156.67.08c.14-.18.5,0,.79.27s.4.74.26.92c-1.92,3.18-3.61,6.55-6.6,8.6l-1,.64.11.14a2,2,0,0,1,.32.56,9.5,9.5,0,0,1,1.2-.58,6.59,6.59,0,0,1,2.51-2.88A9.25,9.25,0,0,1,157,7.12c.66-.85,1.28-1.76,2-2.59,0,0,.08,0,.14,0a.19.19,0,0,1,.08.19,13.48,13.48,0,0,1-.95,2.4,2.26,2.26,0,0,1,.75.68,2.17,2.17,0,0,1,.43.94l.42-.29c.09-.05.25,0,.37.18s.16.34.08.4l-1.7,1.21c-.53.68-1.07,1.34-1.63,2a3.16,3.16,0,0,1,.77.61h0l.28-.26A14,14,0,0,1,162.8,7s.11,0,.17.07.08.16,0,.18a10.79,10.79,0,0,0-1.73,1.36h0a.27.27,0,0,1,.14.17c0,.07,0,.1-.09.08a.28.28,0,0,1-.14-.18A15.06,15.06,0,0,0,158.67,12a17.11,17.11,0,0,1,3-2.25c0-.17.07-.35.11-.52s.09,0,.15,0a.21.21,0,0,1,.07.19l0,.13c.2-.11.58.08.87.46s.35.81.15.94c-.46.47-.94.91-1.44,1.33l-.11.19,0,.31c.91-.47,1.85-.9,2.79-1.32.07-.06.21,0,.31.13s.14.29.07.35a28.22,28.22,0,0,1-3.34,4.41c0,.94,0,1.89-.07,2.82a.82.82,0,0,0,.2-.12c1.54-1.19,1.58-3.85,2.81-5.34,0-.05.1,0,.16,0s.08.15,0,.18a17.2,17.2,0,0,0-1.2,2.82,14.65,14.65,0,0,0-.9,2.4c1-1,1.55-2.6,2.43-3.79,0-.07.1-.07.19,0a.19.19,0,0,1,0-.11,2.32,2.32,0,0,1,.12-.78c0-.05.06-.05.14,0A.23.23,0,0,1,165.17,14.67Zm-30.49,11-.12,0h.3l.69.33Zm-1.87,4.64h0l-.39-.18Zm13.72-18.2a4.63,4.63,0,0,1-2.15.9l.36-.42A16.77,16.77,0,0,1,146.53,12.14ZM130.8,25.42a5.91,5.91,0,0,1,1.54.39,2.21,2.21,0,0,1,.58-.56,18.38,18.38,0,0,1,1.85-1.1c-.22-.14-.07-.22,0-.29l.17-.21c-.69.32-1.4.63-2.13.94A16.4,16.4,0,0,1,130.8,25.42Zm-3.55,3.93-.11,0-.11-.38Zm.2.61.12,0C127.62,30.07,127.56,30.05,127.45,30Zm1.06-.24a.7.7,0,0,0-.23-.06Zm7.06,8-.8-1.66.73,1.63Z"/></g></g></svg>