<svg xmlns="http://www.w3.org/2000/svg" viewBox="0 0 310.62 165.88"><g id="Layer_2" data-name="Layer 2"><g id="Layer_1-2" data-name="Layer 1"><path d="M155.48,126.69l0,.26c-.16,0-.3-.09-.43-.26.64,2.37,3.21,3.24,5.43,3.08a1.1,1.1,0,1,0,1.5-1.6,1.78,1.78,0,0,1-.17-.41,8.5,8.5,0,0,0-1.17-3.5l.21.83a2.74,2.74,0,0,0-.63-.88l-.1.34a2.54,2.54,0,1,0-4.84,1.52Z"/><path d="M155,130.77c-.31-.74-.57-1.48-.83-2.23l0-.24-.53.76.05,0a4.55,4.55,0,0,1,2.85.55l.35.1a.78.78,0,0,0,.54-.21.8.8,0,0,0,.06-1.14l-.35-.38c-.65-1.17-2.17-2.38-3.68-1.56-.34.19-.52.64-.75,1a1.12,1.12,0,1,0,1.66,1.49l.17.29-.33,0c.47-.31,1-.06,1.49,0l.59.27.6-1.35-.38-.06a.58.58,0,0,1,0,.17,10,10,0,0,1-2.12-.34l-1-.11a.7.7,0,0,0-.54.76l.11.48a2.11,2.11,0,0,0,0-.25c.49.79,1.11,1.51,1.58,2.31a.28.28,0,1,0,.5-.25Z"/><path d="M152.48,129a.66.66,0,0,0-.26-.46l-.14,0c0,.1,0,.23.07.37S152.36,129.19,152.48,129Z"/><path d="M152.08,128.61l0-.15a.77.77,0,0,1,0,.15h.05Z"/><path d="M177.19,144.74a38.24,38.24,0,0,0,2.89,3.07s.1,0,.16-.06.07-.15,0-.17c-1-1-2-2-2.87-3.08,0,0-.1,0-.16.05S177.16,144.7,177.19,144.74Z"/><path d="M180,158.09a.26.26,0,0,0-.14.17c0,.07,0,.1.1.07a.34.34,0,0,0,.13-.18C180.07,158.08,180,158.06,180,158.09Z"/><path d="M175.46,163.41a1.77,1.77,0,0,0-.74.08c-.05,0-.07,0-.07-.06a.39.39,0,0,1-.28.2,15.18,15.18,0,0,1-4.83-.83,2.73,2.73,0,0,1-.25.23c-.3.22-.58.24-.71.06l-.07-.17c-.38-.55-.78-1.08-1.15-1.64a.81.81,0,0,1-.54,0,12.47,12.47,0,0,1-2-.08,1,1,0,0,1-.17.31c-.2.24-.44.34-.56.24l-.19-.13c.13.19.26.39.38.6a.12.12,0,0,1,0,.09,5.13,5.13,0,0,0,.6.44,15.33,15.33,0,0,0,6.66,1.62s.09,0,.07.1a.3.3,0,0,1-.15.16c-2,.44-4.09,1.37-5.85,1.28a30.3,30.3,0,0,1-6-.79c-1.46-1.14-3.27-1.6-5.09-2.32a17.87,17.87,0,0,1-1.77-.79,1.84,1.84,0,0,1-.25-.14l-.39-.25-.76-.5-1.5-1c-2-1.37-3.91-2.8-5.85-4.26a3.32,3.32,0,0,1,1.36-6.18l-.34-.29-.42-.6a2.88,2.88,0,0,1-.48-2l.08-.91c.37-1.55.28-3.16.78-4.69l.45-.38v-.21a2.89,2.89,0,0,1,.32-1.71l.45-.52a6.61,6.61,0,0,1,1.88-1.38,2.52,2.52,0,0,1,.61-.61,3.46,3.46,0,0,1,1.24-1.91.48.48,0,0,1,.47-.5.42.42,0,0,1,.25.06h0a3.35,3.35,0,0,0,.07-.5,2.6,2.6,0,0,1-.15-.25l-.52-.71a2.34,2.34,0,0,1-.08-.8c.46-1.21.46-1.21.83-1.6l.15-.07c-.13-.33-.14-.35-.17-.45a.94.94,0,0,1,0-.25c.16-.23.16-.23.18-.35a1.87,1.87,0,0,1,.13-.17c.32-.15.32-.15.38-.22a.75.75,0,0,1,.18-.07l.33.07-.12.85.23-.14-.13.33.15-.29.05.29,0-.37a2.23,2.23,0,0,0,.49.52.82.82,0,0,0,.36.21l.08-.14c.36.43.36.43.69.86a1.94,1.94,0,0,1,0,.24.22.22,0,0,1,.27.07l.18.21h.07l0,0,.27,0h.06l1.19.11a4.21,4.21,0,0,1,.28.4l0-.19c0-.13.22-.3.2-.35a17.54,17.54,0,0,0-2.2-3.14.41.41,0,1,1,.42-.71,8.92,8.92,0,0,1,6.54,5c.45.53.92,1,1.39,1.56v-.17l.3.5,0,0v-.65l-.14-.28a27.6,27.6,0,0,1-2.71-4,24.66,24.66,0,0,1-1.15-2.3.37.37,0,0,1,0-.52.36.36,0,0,1,.51,0c2.28,1.33,4.44,3.41,5,6a2.11,2.11,0,0,1,.76,1.17v0l0-.51c.22.3.15.69.32,1l.26-.52c1.17,1.36,2.77,2.4,3.55,4l.12.15a8.58,8.58,0,0,1,2,.47c-.07-.14-.15-.28-.23-.42a1.48,1.48,0,0,1,1,.28,3.14,3.14,0,0,1,.38,3.38,52,52,0,0,0,4.53,2.64c.08,0,.07.18,0,.32s-.24.23-.33.19a16.33,16.33,0,0,1-3.68-1.37,15.61,15.61,0,0,0,2.13,2.45l.38.2a.6.6,0,0,1,.26.32,13.14,13.14,0,0,0,3.43,2.25,28.28,28.28,0,0,0,3.52,1.1,12.57,12.57,0,0,1,4.77,1.8c.2.09.17.47-.07.83s-.62.57-.83.48c-3.55-1.06-7.23-1.86-10-4.25l-.86-.77-.1.15a2.39,2.39,0,0,1-.47.44,8.65,8.65,0,0,1,.87,1,6.6,6.6,0,0,1,3.4,1.71,9.06,9.06,0,0,1,1.29,2.47c1,.43,2,.8,3,1.27,0,0,.06.06,0,.14a.22.22,0,0,1-.16.12,14,14,0,0,1-2.56-.33,2.41,2.41,0,0,1-.47.91,2.22,2.22,0,0,1-.81.64l.39.34c.07.07,0,.25-.08.4s-.29.24-.37.17L178.11,156c-.79-.34-1.57-.7-2.32-1.09a3.27,3.27,0,0,1-.39.9h0l.33.21a14,14,0,0,1,6.62,3.22s0,.11,0,.19-.13.11-.16.08a11.2,11.2,0,0,0-1.74-1.34h0a.3.3,0,0,1-.14.18c-.06,0-.1,0-.09-.07a.27.27,0,0,1,.13-.18,14.7,14.7,0,0,0-3.86-1.61,16.55,16.55,0,0,1,2.91,2.3l.53,0c.05,0,.05.07,0,.15a.22.22,0,0,1-.16.12h-.14c.16.18.07.59-.22,1s-.7.55-.88.38a17.64,17.64,0,0,1-1.64-1.06l-.22-.06-.3.05c.68.76,1.33,1.56,2,2.37.07.05,0,.2-.06.34s-.25.2-.32.15a28.94,28.94,0,0,1-5.11-2.13l-2.74.63a1.21,1.21,0,0,0,.16.16c1.55,1.2,4.12.57,5.88,1.39,0,0,0,.1,0,.17s-.13.11-.17.09a16.7,16.7,0,0,0-3-.47,15.19,15.19,0,0,0-2.54-.27c1.25.72,2.9.86,4.27,1.41.07,0,.1.08.08.18a.17.17,0,0,1,.1-.07,2.38,2.38,0,0,1,.78-.08c.05,0,.07.05,0,.14A.23.23,0,0,1,175.46,163.41Zm-18.27-26.78v-.12l.09.29-.15.75Zm-5-.65h0c.05-.24.08-.42.08-.42C152.28,135.73,152.25,135.87,152.23,136Zm21,8.75a4.54,4.54,0,0,1-1.41-1.86l.5.25A16.75,16.75,0,0,1,173.27,144.73Zm-16.78-11.92a6,6,0,0,1,0,1.59,2.06,2.06,0,0,1,.68.41,20.08,20.08,0,0,1,1.53,1.53c.08-.25.19-.12.28-.1l.24.12q-.72-.88-1.44-1.83A17.64,17.64,0,0,1,156.49,132.81Zm-4.69-2.46v-.11l.33-.2Zm-.55.34.06.11C151.2,130.88,151.2,130.82,151.25,130.69Zm.5,1a1.05,1.05,0,0,0,0-.24Zm-6,8.83,1.41-1.2-1.39,1.12Z"/><path d="M67.43,12.39l.61.17a1.58,1.58,0,0,1-1.12.6c5.91.77,11-3,14.07-6.83,1.47-.34,2.48-1.47,2.25-2.61S81.57,1.86,80,2.19a4.28,4.28,0,0,1-1.11-.13A20.53,20.53,0,0,0,74.48.9,32.45,32.45,0,0,0,69.6.69l2.16.41a9.94,9.94,0,0,0-2.91.3l.6.5c-3.6-.44-7.52,1.62-8.42,4.6s1.39,5.47,4.85,5.73Z"/><path d="M75.37,16.8c-1.86-.1-3.72-.27-5.62-.45l-.48-.25.93,1.64,0-.12c.71-2,2.78-3.54,4.8-4.72l.68-.52A1.4,1.4,0,0,0,76,11.23a1.8,1.8,0,0,0-2.28-1.18l-1.27.27a12.63,12.63,0,0,0-5.33,1.47,5.08,5.08,0,0,0-2.83,4.13c0,.82.76,1.51,1.24,2.24A2.66,2.66,0,0,0,69,19.26a2.5,2.5,0,0,0,1.74-3l.83-.06c-.13.21-.25.42-.37.63C71.07,15.66,72.26,14.92,73,14c.44-.27.88-.57,1.33-.83l-2-2.31-.62.64c.11.09.3.21.29.23a32.4,32.4,0,0,1-3.49,3.64L67,17.21a1.24,1.24,0,0,0,1,1.64l1.14.18-.55-.16c2.23-.33,4.47-.77,6.66-.94a.74.74,0,0,0,.73-.57A.56.56,0,0,0,75.37,16.8Z"/><path d="M68.68,20.05a1.76,1.76,0,0,0-1.25.12c-.05.17-.07.25-.08.3l.84.16C68.8,20.75,68.89,20.4,68.68,20.05Z"/><path d="M67.35,20.47,67,20.4l.3.16,0,0Z"/><path d="M165.58,8.64Q177,12.22,187.85,16.8c.24.11.47.11.52,0s-.12-.27-.34-.36q-10.84-4.65-22.27-8.24c-.26-.07-.49,0-.55.08S165.34,8.56,165.58,8.64Z"/><path d="M214.44,40.48c-.18,0-.23.08-.1.23a.9.9,0,0,0,.52.29c.16,0,.22-.09.11-.22A1,1,0,0,0,214.44,40.48Z"/><path d="M209.41,46.66a15,15,0,0,0-2.74-.65.88.88,0,0,1-.41-.2c0,.17-.26.23-.61.14-6.89-1.64-14-3.66-21.17-4.9a1,1,0,0,1-.43.33,3.63,3.63,0,0,1-2.63-.06l-.71-.31c-2.94-1.06-5.91-2-8.88-2.9a9.28,9.28,0,0,1-2.23,0l-8.31.43a.61.61,0,0,1,.17.53c-.14.44-.82.68-1.53.58l-1.09-.07c1,.19,2,.44,3,.7a1.56,1.56,0,0,1,.4.12l3.46.44c5.16.54,10.23,1.11,15.29,1.74,2.53.29,5,.68,7.57,1s5,.81,7.52,1.34a.69.69,0,0,1,.51.24c.06.11,0,.22-.2.2-6.65-.48-12.68.42-19.73.3a169.36,169.36,0,0,0-24.54,1.44c-8.21-.19-15.76,1.61-23.47,4-2.85.91-5.6,1.81-8.24,2.8C115,56,110,58.09,105.27,60.5a3.68,3.68,0,0,1-3.68.49,6.18,6.18,0,0,1-3.17-3.11,7.68,7.68,0,0,1-.47-6l-.68.28-1.2.1a4.62,4.62,0,0,1-3.31-1.15l-1.34-1c-2.14-2.18-4.79-3.46-7-5.79l-.29-1.14L83.75,43A6.19,6.19,0,0,1,81,40.87l-.56-1.29a13.17,13.17,0,0,1-.85-4.64,4.69,4.69,0,0,1-.53-1.65,6.73,6.73,0,0,1-2.38-4A.91.91,0,0,1,76.22,28a1.1,1.1,0,0,1,.39-.41h0a9.31,9.31,0,0,0-.89-.56c-.41,0-.65,0-.65,0l-1.94.39A5.42,5.42,0,0,1,71.46,27c-1.95-1.87-2-1.87-2.36-2.89,0-.12,0-.24,0-.35-.81,0-.87,0-1.1,0a2.68,2.68,0,0,1-.51-.23c-.31-.5-.31-.5-.53-.64a2.6,2.6,0,0,1-.24-.38c.06-.74.06-.74,0-.91a1.6,1.6,0,0,1,.05-.38l.54-.59,1.63.92,0-.55.54.51L69,20.93l.65.13-.79-.25a5.53,5.53,0,0,0,1.64-.52,2.46,2.46,0,0,0,.86-.49,2.57,2.57,0,0,1-.19-.29c1.31-.27,1.31-.27,2.58-.51.17.09.31.18.45.27a.59.59,0,0,1,.47-.44l.65-.14.1-.14,0,0L75.8,18l.08-.11h0l1.76-2a7.78,7.78,0,0,1,1.15-.1l-.41-.15c-.27-.12-.3-.68-.42-.69a37.59,37.59,0,0,0-9.28,1.17A1.07,1.07,0,0,1,67.31,16a.83.83,0,0,1,.4-1.2,19.35,19.35,0,0,1,8.71-5.54A26.61,26.61,0,0,1,86.86,8.12c1.7-.17,3.38-.32,5.06-.45l-.3-.2,1.37.1h.14l-1.21-.7-.74-.12a46,46,0,0,1-5.87.16c-2-.08-4-.12-6,0-2.19.07-4.26-.19-6.46-.21a.88.88,0,0,1-1.11-.49c-.1-.38.26-.79.77-.91,6.2-2.86,14-4.11,19.94-1.94a6.34,6.34,0,0,1,3.41.24h.06L95,2.93c.92,0,1.53.59,2.38.71l-.54-1c4.41-.1,9-.9,13.09.21a3.42,3.42,0,0,1,.46,0,13.22,13.22,0,0,1,5.73-1.84c-.88-.08-1.76-.11-2.62-.18A18.65,18.65,0,0,1,119.13,0a24.3,24.3,0,0,1,4.15.3,30.14,30.14,0,0,1,4,.87,16.09,16.09,0,0,1,6.14,3.19,192.43,192.43,0,0,1,29.89,3.35c.5.09.92.37,1,.64s-.36.41-.87.33c-7-.79-14.21-1.53-21.44-1.84,6,1.1,11.92,2.44,17.87,3.77l2.3.4a13.49,13.49,0,0,1,2.23.64c7.55,1.83,14.51,4.08,22,6.31,6.41,1.93,11.94,3.85,18.16,6.29,8.7,3.46,16.47,7.24,24,12.74,1,.69,1.77,1.64,1.64,2.11s-1.06.29-2.08-.39A172.77,172.77,0,0,0,202.53,26c-8.86-3.6-18-6.65-27.57-9.69-2.07-.61-4.1-1.29-6.16-1.83a.76.76,0,0,1,0,.26,1.13,1.13,0,0,1-.71.77c2.32.63,4.6,1.48,6.88,2.28a76.38,76.38,0,0,1,19.61,6c2.22,1.05,4.24,2.27,6.22,3.43s3.84,2.45,5.71,3.75a148.08,148.08,0,0,1,15.25,7.69.78.78,0,0,1,.41.39c0,.12-.13.14-.34,0-3.6-1.66-7.29-3.28-11-4.86.42.59.57,1.14.33,1.51s-.87.51-1.65.42l2.38,1.32c.48.28.79.64.67.83s-.59.16-1.06-.09c-1.62-.88-3.23-1.78-4.88-2.59s-3.27-1.67-5-2.43c-4.1-1.65-8.27-3-12.47-4.43a3,3,0,0,1,.78,1.61h0l1.91.68A106.42,106.42,0,0,1,226.24,47c.22.13.35.31.3.39s-.25,0-.44-.08a110.57,110.57,0,0,0-9.85-6.13h0c.1.13.07.25-.11.23a1,1,0,0,1-.53-.3c-.12-.15-.05-.24.11-.22a104.9,104.9,0,0,0-19.65-8.23,122.09,122.09,0,0,1,17.54,8.47l2,.71c.18.08.38.26.4.38s-.17.12-.35,0l-.57-.21c1.05.64,1.67,1.46,1.4,1.91s-1.44.28-2.54-.34c-1.5-.77-3-1.54-4.52-2.26s-3-1.48-4.56-2.16l-1-.38-1.11-.22c4.67,2.35,9.16,5,13.53,7.73.39.21.64.53.56.69s-.47.12-.86-.09a208.22,208.22,0,0,0-25.52-9.68l-4.71-.11-4.75.1c.36.12.72.24,1.09.34,4.67,1.3,9.14,2.16,13.62,3.1a72,72,0,0,1,13.32,4c.22.08.37.24.35.34s-.21.11-.43,0a89.39,89.39,0,0,0-13.12-3.83c-1.87-.46-3.72-.82-5.51-1.19s-3.61-.57-5.39-.76c6.9,1.81,13.79,3.22,20.52,5.81a1.36,1.36,0,0,1,.7.45.3.3,0,0,1,.23-.05,21.72,21.72,0,0,1,2.88.68.66.66,0,0,1,.43.33C209.77,46.67,209.62,46.7,209.41,46.66ZM89.34,19l-.21-.14.63.16,1.15,1Zm-7.28,7.74h0l-.7-.54Zm65.67-17.8c-2.14-.28-4.26-.64-6.39-1-1.07-.17-2.13-.37-3.2-.59s-2.14-.4-3.21-.64h3.14c1.63.31,3.24.64,4.86,1S146.13,8.48,147.73,8.89Zm-66.46,7.3a13.17,13.17,0,0,1,3,1.59A5.5,5.5,0,0,1,86,17.05a42.77,42.77,0,0,1,4.88-.87c-.34-.39,0-.44.22-.54l.55-.27c-1.75.14-3.52.27-5.35.37A49.72,49.72,0,0,1,81.27,16.19ZM70.63,22.41l-.22-.09,0-.8S70.49,21.9,70.63,22.41Zm.11,1.33H71C71.05,24,70.93,24,70.74,23.74Zm2.47-.13a1.61,1.61,0,0,0-.46-.23ZM83.89,42.36,83,38.73l.77,3.53Z"/><path d="M7.3,107l.59,0a1.28,1.28,0,0,1-.86.8,10.55,10.55,0,0,0,6.84-3.39,16.29,16.29,0,0,0,3.92-6.42A2.46,2.46,0,0,0,19,94.88a2.39,2.39,0,0,0-3.33-.66,3.89,3.89,0,0,1-1,.15,22.12,22.12,0,0,0-8.7.79l2-.06A7,7,0,0,0,5.5,96l.66.35C2.89,96.76.05,99.54,0,102.51s2.63,5,5.84,4.64Z"/><path d="M15.68,109.61c-1.73.31-3.47.55-5.24.79l-.51-.14,1.28,1.4-.05-.11c.13-2.09,1.61-4,3.09-5.68l.47-.65a1.47,1.47,0,0,0,0-1.2,1.76,1.76,0,0,0-2.41-.65c-.36.18-.71.38-1.06.57-3,.88-6.74,3.63-5.93,7,.2.79,1.06,1.32,1.69,1.94a2.52,2.52,0,0,0,3.44.43,2.38,2.38,0,0,0,.82-3.29l.74-.23c-.05.23-.11.46-.17.69-.36-1.09.52-2.07.93-3.1l1-1.11-2.44-1.81-.37.76a2.22,2.22,0,0,1,.32.16,27,27,0,0,1-2.18,4.29l-.9,2a1.31,1.31,0,0,0,1.3,1.4l1.09,0-.55,0c2-.7,3.92-1.67,5.9-2.31a.67.67,0,0,0,.5-.73A.55.55,0,0,0,15.68,109.61Z"/><path d="M10.37,114.17a1.58,1.58,0,0,0-1.13.35v.3h.82C10.65,114.83,10.65,114.47,10.37,114.17Z"/><path d="M9.24,114.82H8.89l.32.1s0,0,0,0Z"/><path d="M161.16,65c1.13.1,2.26.18,3.37.31l3.35.43,6.69.86,6.65,1.1,3.31.55,3.29.68,6.57,1.34,6.51,1.57,3.25.79c1.08.27,2.14.59,3.22.89l6.41,1.8c.58.16,1.08.22,1.13.11s-.35-.35-.89-.49l-6.42-1.81-3.22-.91-3.24-.79-6.51-1.59-6.56-1.35-3.29-.67-3.31-.56-6.64-1.11c-2.23-.32-4.46-.59-6.69-.88s-4.47-.6-6.73-.76a2,2,0,0,0-1.2.15C160.18,64.79,160.6,64.93,161.16,65Z"/><path d="M280.86,115.11c-.39-.13-.43,0-.1.24A4.74,4.74,0,0,0,282,116c.33.11.38,0,.1-.24A4.47,4.47,0,0,0,280.86,115.11Z"/><path d="M273.87,120.33c-1.06-.48-2.08-1-3.08-1.36s-2-.75-2.93-1a4.8,4.8,0,0,1-1-.49c0,.21-.42.15-1.19-.15a320.35,320.35,0,0,0-48.42-15.06,1.82,1.82,0,0,1-.82.26,16.8,16.8,0,0,1-6-.77l-1.75-.55c-1.78-.49-3.59-.88-5.38-1.32s-3.58-.91-5.39-1.26l-5.42-1.09-2.7-.55-2.72-.45A40.89,40.89,0,0,1,182,96.3c-3.19,0-6.39.11-9.58.14l-9.6.45c.39.17.62.36.61.56s-.49.42-1.09.56a9.8,9.8,0,0,1-2.26.25l-2.6.06c2.48.1,5,.12,7.43.39a9.07,9.07,0,0,1,1,.11c2.73.13,5.49.13,8.3.34a288,288,0,0,1,70.74,12.06,4,4,0,0,1,1.22.54c.18.17.1.27-.33.16-14.65-3.65-27.75-4.7-44-6.31a221.58,221.58,0,0,0-57.21,1.85,148.52,148.52,0,0,0-28.27,5.77A167.19,167.19,0,0,0,89.72,123.9c-1.5.67-2.91,1.52-4.36,2.27l-4.27,2.28L77,130.89c-1.36.82-2.75,1.57-4,2.47l-1,.64-.49.32-.18.13-.63.47-1.27.93c-.84.62-1.71,1.17-2.51,1.83-1.63,1.27-3.26,2.48-4.92,3.67s-3.19,2.53-4.81,3.76a5,5,0,0,1-4,1.47,6.53,6.53,0,0,1-4.22-2.21A7.43,7.43,0,0,1,47,138.58l-.65.46-1.25.43a5.16,5.16,0,0,1-3.8-.3l-1.65-.68c-2.72-1.58-5.74-2.19-8.48-3.94l-.55-1.06-.4-.11A6,6,0,0,1,27,131.93l-.83-1.14a13.67,13.67,0,0,1-1.88-4.36,4.77,4.77,0,0,1-.9-1.51,6.8,6.8,0,0,1-3.23-3.35,1,1,0,0,1-.77-1.17,1.08,1.08,0,0,1,.27-.49h0a9.81,9.81,0,0,0-1-.36c-.37.14-.6.2-.6.2l-1.76.76a5.15,5.15,0,0,1-1.71-.18c-2.28-1.44-2.29-1.43-2.89-2.35a1.86,1.86,0,0,1-.07-.34c-.77.14-.83.15-1,.17a2.26,2.26,0,0,1-.53-.13c-.41-.43-.41-.43-.64-.52a2.25,2.25,0,0,1-.31-.32c-.13-.73-.12-.73-.24-.88a2,2,0,0,1,0-.37l.36-.67,1.74.59-.17-.53.62.4-.51-.42h.63l-.79-.1a5.15,5.15,0,0,0,1.4-.81,1.93,1.93,0,0,0,.68-.64,1.89,1.89,0,0,1-.25-.24c1.13-.55,1.13-.55,2.24-1.06a3,3,0,0,1,.48.16.55.55,0,0,1,.32-.53l.56-.29a.88.88,0,0,0,.05-.15l0,0c.1-.22.16-.38.24-.55l0-.13h0c.16-.38.39-.94,1.08-2.35a7.37,7.37,0,0,1,1-.35c-.14,0-.28,0-.42-.06s-.46-.59-.58-.57a19.45,19.45,0,0,0-2.13.52c-.68.24-1.36.51-2,.8-1.34.58-2.66,1.23-4,1.85a1,1,0,0,1-1.31.09.82.82,0,0,1,.06-1.23c2.7-6,9.14-9.75,15.48-11,1.51-.57,3-1.18,4.47-1.8l-.34-.12,1.28-.28.12,0-1.33-.36-.71.09a27.69,27.69,0,0,1-5.29,1.71c-1.8.48-3.61,1-5.41,1.54s-3.91.81-5.9,1.27A.85.85,0,0,1,9.4,100a.81.81,0,0,1,.43-1A36.08,36.08,0,0,1,18,93.76,20.92,20.92,0,0,1,27.15,92a5.74,5.74,0,0,1,3.13-.8h0l-1-.36c.82-.26,1.58.14,2.39,0L30.87,90c2-.67,3.93-1.58,5.88-2.38,1-.39,2-.76,3-1.05a14.9,14.9,0,0,1,3.06-.48l.43-.1A23.49,23.49,0,0,1,45,84c.16-.15.32-.31.49-.45l.15-.12.43-.25.87-.49a38.17,38.17,0,0,1,3.73-1.87c-.93.3-1.83.65-2.73,1l-2.65,1a1.92,1.92,0,0,1,.27-.17l.33-.21.68-.4,1.36-.8c.91-.54,1.85-1,2.81-1.47,1.91-.93,3.89-1.8,6-2.62,11.38-4.37,24.9-6.54,31.65-5.37a245.22,245.22,0,0,1,33.55-6.18,268.86,268.86,0,0,1,33.9-1.43,4.27,4.27,0,0,1,2.41.56c.11.27-.66.48-1.82.45a264.88,264.88,0,0,0-48.55,4.61,290,290,0,0,1,41.22-2c1.77,0,3.55-.06,5.34,0s3.5.22,5.24.43c17.69,1,34.15,4,51.53,8l2.77.63,2.7.72,5.31,1.42c1.76.44,3.47,1,5.18,1.51l5.12,1.56c3.4,1.07,6.75,2.28,10.17,3.44s6.81,2.57,10.34,3.93a280.28,280.28,0,0,1,27.92,13.11A245.93,245.93,0,0,1,306.49,119c2.25,1.61,4.13,3.42,4.13,4s-1.84-.29-4.09-1.89a311.39,311.39,0,0,0-27.75-16.69,320.1,320.1,0,0,0-29.49-13.56,296.48,296.48,0,0,0-31.18-10.51,312.27,312.27,0,0,0-33-7.39c-2.43-.45-4.87-.73-7.28-1.1l-3.62-.52c-1.21-.15-2.42-.26-3.63-.39a.48.48,0,0,1,.1.28c0,.36-.51.65-1.3.85l4.1.46c1.36.18,2.72.41,4.08.63l4.09.65,2,.34,2,.42a190,190,0,0,1,45.67,10.7A234.47,234.47,0,0,1,260,98.76a280.23,280.23,0,0,1,34.41,18.3,3.19,3.19,0,0,1,1,.78c.1.19-.18.11-.63-.16l-6-3.27-3-1.65-3.06-1.57L276.6,108l-6.27-3c1.15,1,1.72,1.75,1.41,2.1s-1.5.2-3.15-.34l5.52,3c1.13.61,1.93,1.26,1.79,1.45s-1.12-.14-2.2-.71c-3.75-2-7.47-4-11.31-5.83-1.91-.92-3.79-1.91-5.73-2.77l-5.8-2.61A297,297,0,0,0,222,89.41a7.06,7.06,0,0,1,2.44,2.11h0l4.49,1.39c27.69,7.64,54.5,21,78.43,38.55.47.33.82.67.77.75s-.45-.11-.88-.42c-3.64-2.58-7.26-5.22-11-7.61-1.88-1.21-3.71-2.48-5.63-3.61l-5.73-3.44,0,0c.28.24.28.37-.1.23a5,5,0,0,1-1.19-.72c-.32-.27-.23-.35.09-.23a245.2,245.2,0,0,0-44.88-20.12,257.26,257.26,0,0,1,40.77,19.24c1.48.7,3,1.34,4.47,2.12a3.16,3.16,0,0,1,1,.75c.07.14-.27,0-.68-.17l-1.22-.63c2.41,1.51,4.06,3,3.75,3.43s-2.7-.52-5.21-2c-6.9-3.76-13.81-7.43-20.92-10.7l-2.34-1-2.42-.84a290.76,290.76,0,0,1,31.72,17.58c.89.52,1.57,1.1,1.49,1.27s-.87-.13-1.77-.65a297.55,297.55,0,0,0-28.58-14,288.87,288.87,0,0,0-30-11c-3.48-.62-7-1.1-10.47-1.63-3.53-.37-7-.82-10.6-1.1.87.18,1.74.41,2.61.64,11.11,2.61,21.43,5.16,31.57,8.25a197.51,197.51,0,0,1,30.21,11.69,2.12,2.12,0,0,1,.9.67c0,.11-.38,0-.88-.25a220.6,220.6,0,0,0-29.7-11.39l-6.34-1.94L229.86,103l-3.09-.79-3.09-.65c-2.06-.43-4.1-.85-6.13-1.24l6.08,1.61,3,.77,3,.87,6,1.71,5.92,1.89,3,.94,2.93,1,5.87,2.12c1.94.75,3.87,1.55,5.81,2.34l2.92,1.2c1,.41,1.91.86,2.88,1.3a7.66,7.66,0,0,1,1.7,1,.76.76,0,0,1,.43.06,64.49,64.49,0,0,1,6.33,2.52,3,3,0,0,1,1.06.69C274.62,120.56,274.33,120.52,273.87,120.33Zm-244.61-12L29,108.2h.65l1.39.74Zm-4.67,9.44h0l-.82-.38Zm96.62-48.2-7.27.82c-1.21.11-2.42.29-3.62.46l-3.62.5c-4.84.55-9.62,1.44-14.5,2.06l6.93-1.67,2.74-.44,2.76-.32,5.52-.62c1.83-.23,3.68-.34,5.53-.45ZM21,107.67a12.59,12.59,0,0,1,3.28.8,5,5,0,0,1,1.34-1.15,27,27,0,0,1,4.27-2.14c-.44-.29-.09-.44,0-.59l.43-.4c-1.58.6-3.25,1.1-4.86,1.76A43,43,0,0,1,21,107.67Zm-8.22,8.42-.23-.06-.22-.76Zm.42,1.26.25-.07C13.54,117.55,13.41,117.52,13.18,117.35Zm2.3-.61a1.87,1.87,0,0,0-.49-.12Zm14.73,16-1.71-3.37,1.57,3.29Z"/></g></g></svg>