<svg xmlns="http://www.w3.org/2000/svg" viewBox="0 0 432.76 625.59"><g id="Layer_2" data-name="Layer 2"><g id="Layer_1-2" data-name="Layer 1"><path d="M19.43,8.6l.09.52c-.31.09-.6-.09-.86-.39a7,7,0,0,0,4.42,4.46,9.21,9.21,0,0,0,3.16.56,13.19,13.19,0,0,0,3.26-.43,2,2,0,0,0,2.9-.66A2.28,2.28,0,0,0,32,9.59a3.27,3.27,0,0,1-.4-.76A16,16,0,0,0,30.5,5.35a21.65,21.65,0,0,0-1.63-3.18c.16.53.33,1.09.48,1.63A4.68,4.68,0,0,0,28.1,2.21c-.05.22-.1.49-.15.72A4.2,4.2,0,0,0,21.9.51,5.72,5.72,0,0,0,19,7.41Z"/><path d="M19.19,17c-.72-1.42-1.36-2.86-2-4.31v-.5l-.93,1.69.09-.09c1.85-.74,3.85-.25,5.6.33l.68.1a1.55,1.55,0,0,0,1-.57,1.76,1.76,0,0,0-.08-2.35l-.72-.67c-1.41-2.21-4.42-4.22-7.26-2.15a6.26,6.26,0,0,0-1.36,2.22,2.28,2.28,0,0,0,.38,3.18,2.17,2.17,0,0,0,3.07-.62l.37.56-.64.14c.86-.78,1.9-.41,2.88-.49l1.17.38L22.41,11h-.72c0,.14,0,.35-.05.35a17.88,17.88,0,0,1-4.14-.09l-2,0A1.51,1.51,0,0,0,14.6,13l.28.94-.08-.5c1.08,1.48,2.4,2.77,3.47,4.28a.53.53,0,0,0,.77.15A.61.61,0,0,0,19.19,17Z"/><path d="M13.89,14.18c-.11-.34-.21-.69-.57-.85l-.27.11c0,.2.12.46.19.72C13.37,14.68,13.69,14.55,13.89,14.18Z"/><path d="M13.05,13.44l-.07-.3,0,.32H13Z"/><path d="M202.63,62.27c12.28.48,24.68.67,37.09,0,6.21-.17,12.4-.74,18.62-1.17,3.1-.24,6.2-.62,9.3-.93s6.2-.62,9.29-1.08a3.12,3.12,0,0,0,1.53-.43c0-.11-.64-.13-1.4,0-3.09.45-6.19.75-9.29,1.07s-6.18.67-9.28.92c-6.2.41-12.37,1-18.56,1.14-12.36.64-24.72.43-37,0a3.38,3.38,0,0,0-1.62.16C201.28,62.08,201.86,62.22,202.63,62.27Z"/><path d="M388.67,40.32c-.53.29-.47.38.14.22a11,11,0,0,0,1.95-.8c.45-.25.38-.36-.14-.21A10.29,10.29,0,0,0,388.67,40.32Z"/><path d="M386.54,49.86c-3.33,1.46-6.48,2.87-9.25,4.26a11.51,11.51,0,0,1-1.59.62c.26.08-.34.47-1.53,1-3,1.29-6,2.54-9,3.81q-2.28,1-4.59,1.9l-4.67,1.79c-3.14,1.17-6.28,2.4-9.47,3.53l-9.67,3.31c-13,4.25-26.34,8.19-39.78,11.42a3.2,3.2,0,0,1-1.05.7,24.76,24.76,0,0,1-3.9,1.42c-1.65.43-3.57.84-5.53,1.17l-3,.44c-6,1.06-12,1.79-18,2.63-3,.45-6,.69-9,1s-6,.65-9,.9c-2.44.48-5.29.93-8.4,1.29-5.18.92-10.41,1.54-15.68,2.23l-4,.51c-1.33.16-2.66.26-4,.4L207.3,95c.68.13,1.1.3,1.09.51-.2.48-2.71,1-5.64,1l-4.43.07c2.12,0,4.24.11,6.37.1l6.36-.07c.61,0,1.18,0,1.69,0,2.33-.1,4.67-.15,7-.31l7.08-.57a421.22,421.22,0,0,0,59.94-9.58A497.82,497.82,0,0,0,342.6,69.56a10.46,10.46,0,0,1,2.09-.6c.38,0,.35.13-.3.38l-8.33,3.37c-2.74,1.14-5.49,2.12-8.21,3.2s-5.43,2.14-8.18,3.14l-8.29,3-4.2,1.5-4.3,1.39-8.82,2.79c-3,.92-6.11,1.73-9.29,2.59s-6.44,1.75-9.85,2.47a474.43,474.43,0,0,1-49,8.81A445.58,445.58,0,0,1,175,105.19c-18.06-.47-35.5-1.59-53.06-3.53a428.68,428.68,0,0,1-53.67-9.2c-1.56-.33-3.11-.75-4.65-1.16L59,90.07l-4.62-1.24-2.31-.62-2.28-.71c-6.08-1.92-12.18-3.69-18.14-6l-2.24-.82-1.12-.41-.3-.09-1-.3-2-.62c-1.34-.41-2.66-.88-4-1.38-2.63-1-5.23-2-7.83-3.08L9.28,73.23l-3.87-1.8c-4.1-1.44-6.36-5.49-5-9a6.78,6.78,0,0,1,4.92-4.08l-.87-.49L3.23,56.77a5.84,5.84,0,0,1-1.87-4l-.18-1.92c.22-3.32-.54-6.66.08-9.94L2.1,40,2,39.58A5.61,5.61,0,0,1,2.23,36l.82-1.19a14.81,14.81,0,0,1,3.56-3.29,5.43,5.43,0,0,1,1.12-1.39,7.14,7.14,0,0,1,2.1-4.25,1,1,0,0,1,.84-1.14,1,1,0,0,1,.53.07h0a8.51,8.51,0,0,0,0-1c-.23-.29-.35-.47-.35-.47-.65-.7-.65-.7-1.21-1.33a4.54,4.54,0,0,1-.3-1.61c.72-2.58.72-2.58,1.41-3.46l.29-.2c-.31-.63-.33-.67-.4-.85a2.59,2.59,0,0,1,0-.52c.3-.52.3-.52.33-.76a3.53,3.53,0,0,1,.22-.39c.64-.39.64-.39.75-.55a1.6,1.6,0,0,1,.33-.17l.67.05-.11,1.76.43-.36-.21.7.25-.61.15.56-.11-.74c.72.73.72.73,1.07.92a1.46,1.46,0,0,0,.73.35,2,2,0,0,1,.15-.32c.76.78.76.78,1.5,1.57a2.64,2.64,0,0,1,0,.49.45.45,0,0,1,.55.07l.4.39.14,0,0,0,.54,0h.12l2.33-.09a6.07,6.07,0,0,1,.61.75c0-.13-.06-.26-.08-.39s.37-.68.32-.78A34.09,34.09,0,0,0,17,11.85a.82.82,0,0,1-.36-1.1.82.82,0,0,1,1.08-.45,13.45,13.45,0,0,1,7.62,2.31,20.16,20.16,0,0,1,5.88,5.66c1,.91,2,1.79,3.07,2.66l0-.35.7.9.09.07-.21-1.29c-.11-.18-.22-.36-.34-.54-2.46-1.9-4.1-4.68-6.13-7a26.35,26.35,0,0,1-2.58-4.27.79.79,0,0,1-.07-1.06.66.66,0,0,1,1-.15,27,27,0,0,1,6.36,4,16,16,0,0,1,4.41,6.38,4,4,0,0,1,1.81,2l0,0c0-.35-.08-.68-.12-1,.51.5.52,1.29,1,1.84.1-.36.2-.77.3-1.14,1.33,1.1,2.84,2,4.28,3a17.42,17.42,0,0,1,3.88,3.5,2.31,2.31,0,0,1,.29.24,18,18,0,0,1,2.32-.13l.57,0,.16,0,.58.22,1.18.46c1.58.63,3.19,1.3,4.84,2.05l-6.38-3.38a3.46,3.46,0,0,1,.36.12l.47.17.92.34,1.85.69c1.23.46,2.46.95,3.69,1.45,2.5.93,5,1.89,7.64,3,14.06,6,30.1,12.86,37.52,17.61a413.31,413.31,0,0,0,44.92,9,403.81,403.81,0,0,0,45.82,3.81,7.37,7.37,0,0,1,3.28.57c.16.27-.89.49-2.47.47-11,.09-22.13-.56-33.24-1.45-2.78-.24-5.54-.59-8.32-.89s-5.56-.56-8.32-1L137.92,58c-1.38-.21-2.77-.39-4.15-.63l-4.12-.75A358.79,358.79,0,0,0,185.91,65l3.7.2,3.71.07c2.46,0,4.88.22,7.31.42,3.09.16,6.15.11,9.21.14s6.09.07,9.13,0l9.1-.25c1.51,0,3-.06,4.54-.15l4.54-.28,9.11-.59,9.14-.9,4.6-.47,4.62-.62,9.33-1.3a481,481,0,0,0,60.56-13.67c14.52-4.28,28.24-8.89,41.7-14.06S403,22.92,416.62,16.77c3.58-1.75,7.06-3,7.69-2.82s-1.79,1.8-5.38,3.57Q397.83,27.84,376,36.26c-14.56,5.62-29.38,10.63-44.52,14.83C301.23,59.51,269.8,65.38,237.15,67l-5.25.29-5.23.14c-3.47.06-6.92.22-10.36.2.09.09.18.18.18.27,0,.37-.63.71-1.73,1l2.94,0,3,0,5.92-.1,5.93-.09,5.95-.25,8.25-.81,8.24-1c5.52-.6,11-1.53,16.58-2.3,2.78-.36,5.56-.88,8.36-1.33l8.44-1.36,8.52-1.54,4.31-.74c1.44-.25,2.88-.56,4.33-.84,4-.79,7.88-1.45,11.69-2.24l11.28-2.33c7.4-1.69,14.69-3.28,22-5.24a543.56,543.56,0,0,0,53.53-20.55,7,7,0,0,1,1.74-.62c.29,0-.05.22-.75.55-11.92,5.82-24.47,11.1-37.29,16,2.18-.36,3.52-.45,3.52,0s-1.44,1.49-3.78,2.58c3-1,5.89-2.08,8.84-3.14,1.82-.65,3.31-1,3.35-.77s-1.33,1-3.07,1.58c-6,2.28-12.06,4.23-18.1,6.29-3,1-6.09,1.88-9.14,2.83l-4.57,1.4c-1.53.47-3.07.86-4.6,1.3-14.63,4.53-29.44,8.28-44.47,11.38a13.52,13.52,0,0,1,4.62.43h0l3.49-.72,3.47-.8A640.57,640.57,0,0,0,370,47a617.74,617.74,0,0,0,61.21-26.61,4,4,0,0,1,1.53-.57c.05.08-.52.45-1.23.79-12.06,6.11-24.35,11.69-36.7,17h.05c.53-.15.67-.08.15.21a11.16,11.16,0,0,1-2,.79c-.6.17-.59,0-.15-.21l-8.67,3.57c-2.91,1.16-5.83,2.25-8.74,3.38L371.15,47c-1.45.55-2.93,1.06-4.39,1.59L358,51.72l-8.82,3-4.4,1.48-4.43,1.38-8.84,2.74-8.88,2.55a571,571,0,0,0,65.15-21l6.8-3.17a8,8,0,0,1,1.78-.58c.21,0-.22.29-.86.58l-1.91.88c4-1.55,7.23-2.58,7.39-2,0,.57-3.23,2.52-7.43,4.17l-8.34,3.5-8.42,3.26c-5.59,2.23-11.31,4.11-17,6.14-1.21.47-2.45.88-3.67,1.32s-2.44,1-3.66,1.46a521.32,521.32,0,0,0,52.58-19.26c1.45-.65,2.76-1.07,2.87-.91s-1,.82-2.47,1.48q-22.23,10.59-45.72,19.1T311.83,72.27c-2.63.86-5.24,1.79-7.89,2.61l-8,2.44c-5.33,1.71-10.77,3.1-16.25,4.66l4.24-.75A368.74,368.74,0,0,0,334.23,68c15.9-5.32,31.33-11.36,47.64-18a4.67,4.67,0,0,1,1.67-.47c.12,0-.4.36-1.23.69-15.89,6.59-30.49,12.53-46.79,17.91-1.68.59-3.36,1.12-5,1.64l-5,1.56c-3.32,1-6.6,2.09-9.88,3l-9.76,2.84-9.67,2.62c3.31-.75,6.6-1.5,9.86-2.28l9.69-2.58c1.61-.44,3.22-.84,4.81-1.32l4.77-1.44c3.16-1,6.34-1.88,9.48-2.92,6.26-2.1,12.54-4.12,18.73-6.44s12.4-4.62,18.64-7a27,27,0,0,1,2.92-1,1.72,1.72,0,0,1,.56-.37c3-1.47,6.33-3,9.73-4.47a9.84,9.84,0,0,1,1.88-.65C387.61,49.24,387.25,49.5,386.54,49.86ZM24.9,28.24l0-.25.27.55-.05,1.57S25,29.18,24.9,28.24Zm-10.11.24h0c0-.52.06-.9.06-.9C14.82,28,14.8,28.24,14.79,28.48ZM147.4,61.35a270.7,270.7,0,0,1-39.09-9l9.48,2.07c2.41.72,4.86,1.3,7.32,1.9l7.37,1.82C137.42,59.26,142.41,60.24,147.4,61.35Zm-125-40.56A12.47,12.47,0,0,1,22.87,24a3.94,3.94,0,0,1,1.47.6,36.73,36.73,0,0,1,3.46,2.55c.07-.52.33-.31.51-.28l.51.15c-1.13-1-2.24-2.1-3.36-3.2A31.89,31.89,0,0,1,22.43,20.79Zm-9.67-3.74c0-.08,0-.14,0-.23l.63-.49S13.11,16.63,12.76,17.05Zm-1,.85.13.2C11.64,18.3,11.63,18.18,11.72,17.9Zm1.16,1.83a1.76,1.76,0,0,0,0-.49ZM2.71,39.37l2.63-2.8L2.72,39.2Z"/><path d="M234.79,117.33l-.56-.27c.13-.21.49-.25,1-.2a9.63,9.63,0,0,0-7-.09,9.89,9.89,0,0,0-4.33,3.26c-1.14.17-1.75.92-1.34,1.66a3.21,3.21,0,0,0,2.86,1.14,5.47,5.47,0,0,1,.93.19c1.25.49,2.52.9,3.85,1.31.66.2,1.33.39,2,.57l2.12.54c-.64-.26-1.27-.51-1.9-.74a14.56,14.56,0,0,0,2.44.43l-.58-.5a10.58,10.58,0,0,0,4.36.73c1.27-.11,2.21-.6,2.5-1.53.58-1.85-1.67-4.8-4.85-6Z"/><path d="M227.21,112.66a41.22,41.22,0,0,1,5.12,1l.47.29-1-1.49,0,.1c-.51,1.5-2.19,2.37-3.83,3.08l-.54.33a.79.79,0,0,0-.14.83,2.25,2.25,0,0,0,2.15,1.12l1.09,0c2.88.39,7,.31,6.85-2.55,0-.67-.8-1.45-1.3-2.19a3.33,3.33,0,0,0-3.27-1.69c-1.26.18-1.87,1.16-1.36,2.16l-.75-.09c.08-.15.19-.29.28-.44.16.92-.82,1.31-1.37,1.92l-1.08.48,2,2,.47-.39c-.11-.09-.29-.21-.29-.22a13.46,13.46,0,0,1,2.78-2.21l1.22-1.13c.2-.53-.26-1.23-1-1.56l-1.06-.37.52.23c-2.07-.2-4.07-.09-6-.12a.49.49,0,0,0-.59.4A.61.61,0,0,0,227.21,112.66Z"/><path d="M233.05,110.9a1.91,1.91,0,0,0,1.16.16l.06-.24-.8-.31C232.9,110.29,232.83,110.57,233.05,110.9Z"/><path d="M234.27,110.82l.33.14-.29-.21,0,0Z"/><path d="M241,301.58c.18,4.31.13,8.61-.05,12.92s-.29,8.62-.44,12.93q-.48,12.94-.95,25.9-1,25.94-2.22,51.89a4.37,4.37,0,0,0,.2,2.2c.15.06.34-.84.39-1.91.83-17.31,1.62-34.58,2.27-51.82q.48-12.93,1-25.84l.44-12.91c.18-4.31.26-8.61.07-12.91a5.53,5.53,0,0,0-.44-2.28C241,299.69,240.92,300.5,241,301.58Z"/><path d="M217.63,559.73c0-.83-.16-.8-.26.06a19,19,0,0,0-.08,2.85c.05.69.17.66.26-.07A18.49,18.49,0,0,0,217.63,559.73Z"/><path d="M209.33,552.22c-.27-4.84-.56-9.44-1-13.55a19.5,19.5,0,0,1,0-2.27c-.19.28-.38-.64-.51-2.39-1.25-17.21-2.35-35.07-3.31-53.19s-1.77-36.48-2.58-54.71a3.93,3.93,0,0,1-.65-1.55,54.25,54.25,0,0,1-1.06-12.85l.13-4c.26-16,.55-32,1.08-47.89-.32-3.26-.53-7-.57-11.16-.79-13.78-1.58-27.61-1.9-41.75-.24.89-.51,1.42-.77,1.41-.63-.29-1-3.57-.64-7.38.14-1.93.33-3.85.55-5.77-.82,5.51-1.35,11.05-1.62,16.56,0,.79-.07,1.53-.13,2.2-.1,6.06-.19,12.18-.19,18.41.06,54.33,3.39,105.41,7,156.09a13.82,13.82,0,0,1,0,2.87c-.1.49-.27.4-.36-.53-3.4-32-8.08-59.63-10.66-95.77-1.52-21.5-2.76-42.88-3.63-64.4q-.28-8.07-.56-16.17c-.09-2.71-.19-5.41-.13-8.12s.21-5.42.46-8.14.65-5.42,1.15-8.14,1.13-5.45,1.86-8.18a167.75,167.75,0,0,1,5.53-16.42c2.37-5.73,4.82-11.43,7-17.12.56-1.44,1.15-2.87,1.66-4.3l.79-2.13.82-2.34.78-2.32.42-1.2c.15-.45.28-.76.42-1.12.57-1.34,1.05-2.45,1.48-3.58a26.31,26.31,0,0,0,1.68-6.71,21.07,21.07,0,0,0-.31-6.81,19.94,19.94,0,0,0-2.54-6.41c-.61-1.06-1.4-2.11-2.29-3.51a21,21,0,0,1-2.67-5.39c-.15-.54-.3-1.1-.42-1.65s-.19-1.11-.26-1.65l-.13-1.59,0-1.59a18.53,18.53,0,0,1,.39-3.19,14.55,14.55,0,0,1,.42-1.57,13.37,13.37,0,0,1,.51-1.51,26.78,26.78,0,0,1,2.76-5.18c1-1.43,1.93-2.64,2.68-3.65l.49-.69c.09-.12.14-.21.2-.3l.07-.12h0a.6.6,0,0,0,.08-.16.53.53,0,0,0,0-.35.52.52,0,0,0-.16-.32c0-.06-.06,0-.14-.14a10.33,10.33,0,0,0-.9-.78c-.38-.3-.8-.59-1.29-.93l-.37-.25-.78-.51c-.58-.36-1.14-.74-1.7-1.1s-1.09-.76-1.62-1.15-1.1-.72-1.55-1.14l-1.36-1.24c-.44-.41-.81-.85-1.21-1.26a10.51,10.51,0,0,1-2.63-5.9c-.05-.56,0-1.14,0-1.7a10.93,10.93,0,0,1,.28-1.65c.14-.52.29-1,.46-1.51s.48-.93.72-1.38a13.45,13.45,0,0,1,5-4.68c2.28-1.35,5.32-2.09,7.9-2.92.8-.25,1-.29,1.38-.41l.53-.15.26-.07c.12,0,0,0,.07,0s.08,0,.12,0l.21-.1c.09-.06.26-.17.14-.3a.8.8,0,0,0-.34-.18l-.11,0s0,0,0,0,0,0,0-.05l-.64-.14-1.31-.27-5.5-1.06c-1.88-.39-3.86-.78-5.9-1.32a49.86,49.86,0,0,1-6.5-2.08,28.5,28.5,0,0,1-7.51-4.4c-.69-.62-1.36-1.22-2-1.93a23.28,23.28,0,0,1-2-2.44,20.56,20.56,0,0,1-1.74-3c-.25-.55-.5-1.11-.73-1.68s-.39-1.18-.56-1.78-.35-1.22-.47-1.83-.2-1.21-.27-1.82-.15-1.26-.17-1.84,0-1.15,0-1.74,0-1.18.08-1.74l.11-1,.06-.51c.08-.68.18-1.37.29-2a50.48,50.48,0,0,1,4.18-12.12c.39-.81.81-1.66,1.21-2.45l1.18-2.24c.82-1.57,1.59-2.84,2.43-4.26,1.61-2.73,3.25-5.35,4.87-7.87,2.47-4.46,6-6.54,8-4.56,1.17,1.19,1.48,3.35.94,5.64.24-.29.47-.55.7-.81l1.28-1A4.52,4.52,0,0,1,207.42,86l1.47.26c2.35,1,5.21,1.14,7.56,2.81l.35,1.07.37.09A4.28,4.28,0,0,1,220,91.69l.61,1.18a12.52,12.52,0,0,1,1.07,4.35,4.34,4.34,0,0,1,.61,1.48,6.05,6.05,0,0,1,2.55,3.46.84.84,0,0,1,.54,1.14,1,1,0,0,1-.35.37h0c.36.21.46.28.89.5.38,0,.61,0,.61,0,1-.14,1-.14,1.84-.23a5.36,5.36,0,0,1,1.62.61c2,1.89,2,1.92,2.4,2.87,0,.1,0,.21,0,.3.77.16.83.18,1,.24a3.11,3.11,0,0,1,.49.3c.32.5.32.5.53.66a3.73,3.73,0,0,1,.25.38c0,.64,0,.64.08.8a1.84,1.84,0,0,1,0,.32l-.47.37-1.59-1.1.08.48-.54-.54.42.51-.61-.23.76.36a4.38,4.38,0,0,0-1.5.15,1.62,1.62,0,0,0-.77.27,2.46,2.46,0,0,1,.2.26l-2.33.13c-.16-.08-.3-.17-.43-.25a.38.38,0,0,1-.38.31l-.58.07-.07.1,0,0-.31.35-.06.08h0l-1.35,1.47a8.8,8.8,0,0,1-1,.05l.37.12c.25.1.36.53.47.54,2.78.23,5.38,0,8.22.15a1.33,1.33,0,0,1,1.29.45.49.49,0,0,1-.27.86,15.07,15.07,0,0,1-7.11,2.87c-1.36.24-2.79.4-4.25.51s-2.85.17-4.28.19c-1.32.22-2.6.49-3.9.82l.29.08c-.38,0-.7.09-1.06.14l-.1,0,1.07.24.6,0c2.92-.76,6.18-.6,9.56-.51a17,17,0,0,1,2.74.31l2.78.53a1.16,1.16,0,0,1,1,.55c.14.29-.12.52-.54.51a56.64,56.64,0,0,1-15.66.76,7.48,7.48,0,0,1-2.53.3h0l.79.21c-.64.1-1.19-.09-1.8,0l.64.43c-.73.18-1.5.41-2.12.63s-1.39.49-1.91.71l-.89.33-.78.27c-.25.07-.57.18-.79.23l-.72.12-.21.06a.9.9,0,0,1,0,.22c0,.07-.1.15-.08.12h0l-.38-.11-.28-.06c-.22-.06-.55-.1-.7-.14l-.46-.11a5.55,5.55,0,0,0-1-.08,2.2,2.2,0,0,0-.52,0l-.23,0h-.07l.06,0,.12,0a1,1,0,0,0,.21-.07c.08,0,.07,0,.26-.11a4.17,4.17,0,0,0,.79-.4l.52-.29-.08.07c-.08,0,0,.13-.06.22a.56.56,0,0,0,0,.33,3.57,3.57,0,0,0,.12.4c-.07-.2-.09-.38-.14-.55a3.14,3.14,0,0,1,0-.39l.13-.11s-.59.31-.65.37a3.91,3.91,0,0,1-.54.28c-.1,0-.2.08-.3.12l-.13.06a1.89,1.89,0,0,1-.31.1l-.08,0h.1a1.63,1.63,0,0,1,.39,0,2.11,2.11,0,0,1,.36,0,6,6,0,0,1,.75,0,7,7,0,0,1,.69.15l.78.15-.83-.16a4.15,4.15,0,0,0-.75-.15,2.6,2.6,0,0,0-.4,0l-.32,0a2.6,2.6,0,0,0-.4,0l-.23,0h-.14l.09,0,.17-.05c.13,0,.15-.07.34-.14a3.92,3.92,0,0,0,.62-.29l.28-.17.46-.25.21-.13c.08,0,0,0,0,0l-.06,0s0,.1,0,.16,0,.13,0,.21l.07.27a2.78,2.78,0,0,0,.28.63,12.85,12.85,0,0,0,2.79,3.11,43.37,43.37,0,0,0,4.38,3.25c2.21,1.43,4.64,2.88,7.2,4.3l.48.27.25.14.38.19a13,13,0,0,0,1.54,1c1,.66,2.11,1.12,3.14,1.68a27.69,27.69,0,0,1,4.89,3.89,7.75,7.75,0,0,1,.85,1.08c.27.36.5.76.75,1.14a8.49,8.49,0,0,1,.51,1.24l.22.67c.05.22,0,.47.07.71,0,.47,0,1,0,1.44a6,6,0,0,1-.3,1.36,7.06,7.06,0,0,1-1.13,2.28,13.78,13.78,0,0,1-1.77,1.91c-.36.29-.72.59-1.13.86s-.82.54-1.28.79a44.17,44.17,0,0,1-6,2.62l-2.79,1-.89.33-.11,0h0l-.07,0-.14.05c-.36.1-.7.2-1.05.32a3.55,3.55,0,0,0-1.85,1.15,1,1,0,0,0-.05,1,2.48,2.48,0,0,0,.56.71c.43.4.88.74,1.3,1.09l1.39.81c.67.41,1.34.83,2,1.34a23.57,23.57,0,0,1,2.13,1.73,17.55,17.55,0,0,1,2.15,2.49,12.61,12.61,0,0,1,2.29,6.07,11.74,11.74,0,0,1-1,6.39,9.66,9.66,0,0,1-.76,1.46,10.54,10.54,0,0,1-.9,1.38l-.9,1.16-.76.87c-1,1.11-1.92,2-2.63,2.89a10.69,10.69,0,0,0-2.77,4.7c0,.42-.15.85-.17,1.27a5.8,5.8,0,0,0,0,1.19,6.31,6.31,0,0,0,.85,2.38c1,1.85,3,4.34,4.43,7a55.54,55.54,0,0,1,6.41,17.3,76.44,76.44,0,0,1,1.15,9.24l.18,2.16a15,15,0,0,0,.26,1.85c.22,1.25.46,2.49.71,3.72.55,2.67,1.19,5.34,1.84,8s1.39,5.4,2.13,8.09c1.47,5.38,3.06,10.8,4.4,16.18a165.34,165.34,0,0,1,3.41,16.18c.37,2.22.34,4.22,0,4.6s-.76-1.25-1.09-3.47c-.62-3.87-1.39-7.73-2.27-11.61q-.66-2.93-1.41-5.83t-1.5-5.83c-1-3.89-2.1-7.81-3.08-11.69l-1.46-5.85c-.44-2-.87-3.86-1.28-5.8l-.58-2.91c-.16-.91-.33-1.8-.47-2.71l-.23-1.37c-.07-.48-.12-.81-.16-1.33l-.21-3.11a64.79,64.79,0,0,0-2.09-13.21A53.38,53.38,0,0,0,219.6,209c-1.07-1.9-2.31-3.72-3.39-5.32a25.61,25.61,0,0,1-1.34-2.2,6.57,6.57,0,0,1-.66-1.81,9.11,9.11,0,0,0,1.47,3.26c.8,1.28,1.83,2.74,2.76,4.28a51.81,51.81,0,0,1,4.72,9.91,53.45,53.45,0,0,1,2.58,10.87c.25,1.86.39,3.73.49,5.57s.13,3.69.28,5.08c.2,1.57.39,3.06.64,4.65s.53,3.29.83,4.94c.56,3.26,1.27,6.63,1.93,9.94,1.37,6.66,2.82,13.37,4,20.09.65,3.43,1.23,6.88,1.71,10.34a85.54,85.54,0,0,1,.78,10.17c.58,8.58.16,17,0,25.47s-.33,16.81-.49,25.22c-.34,16.81-.64,33.72-.83,51.24-.36,29.92-.84,56.11-1.92,85.91-1.55,41.85-4.27,80-10.3,121.29-.77,5.49-1.79,10.58-2.14,11.22s0-3.33.7-8.84,1.23-10.77,1.81-16.15,1.05-10.75,1.51-16.12c.92-10.74,1.74-21.47,2.4-32.21,1.34-21.47,2.26-43,3-64.57,1.43-43.22,2.09-86.94,3.31-132,.24-9.72.48-19.28.71-28.79-.12.12-.24.23-.36.23-.49,0-.92-.92-1.27-2.45-.3,10.8-.71,21.69-1.19,32.61.38,30.4.46,60.84-1.33,93.24-1.23,22.24-3.06,42.37-4.79,62.94-.86,26.08-2,52.09-3.91,78.43a16.05,16.05,0,0,1-.3,2.52c-.1.37-.13-.19-.08-1.26.91-18.11,1.55-36.67,2-55.41-.52,3-1.07,4.7-1.58,4.46s-.91-2.53-1.13-6l-.51,12.74c-.12,2.63-.4,4.69-.64,4.62s-.39-2.15-.31-4.65q.86-26,1.69-51.92c.15-20.77.31-41.46.46-62.27a18,18,0,0,1-1.89,6h0c0,3.23-.07,6.44-.11,9.64q.75,44.08,0,89.1t-3.25,90.48a14.05,14.05,0,0,1-.2,2.18,13.39,13.39,0,0,1,0-2q1.33-27.45,2.15-54.76v.08c-.09.73-.2.87-.25.06a22.74,22.74,0,0,1,.09-2.85c.1-.85.21-.77.25-.08,1-33.91,1.31-67.58,1-100.81q-.6,46.31-2,92.58c0,3.36.09,6.71.13,10.13a15.6,15.6,0,0,1-.2,2.52c-.09.26-.17-.43-.17-1.38s0-1.89,0-2.83c-.19,5.83-.69,10.33-1.16,10.23-.49-.32-.82-5.34-.75-11.41q.12-24.36.24-48.61l-.08-5.25-.3-5.28c-.48,25.17-.92,50.28-1.14,75.25a15.27,15.27,0,0,1-.27,4c-.16,0-.31-1.68-.33-3.83-1-44-2.12-88.57-2.7-133.33-1.38-14.7-2.77-29.45-4.18-44.47,0,1.89,0,3.8,0,5.72.07,24.32,1.24,46.82,2.43,69.11s2.33,44.4,2.86,67.95a8,8,0,0,1-.14,2.32c-.11.12-.22-.68-.24-1.87-.66-23-2-44-3.11-66.8-.93-18.9-1.79-36.87-2.95-54.44.67,35.9,2.78,70.34,4,105.91a29.94,29.94,0,0,1,0,4.1,2.5,2.5,0,0,1,.18.88c.41,4.44.72,9.29,1,14.25a13.47,13.47,0,0,1-.06,2.64C209.53,553.85,209.42,553.28,209.33,552.22ZM214.6,112l.21.06h-.58l-1.17-.48S213.82,111.74,214.6,112Zm5.41-7.13h0l.71.38Zm4.65,118.63a52.06,52.06,0,0,0-5.57-14.65c-1.25-2.25-2.8-4.39-3.9-6.16a7.35,7.35,0,0,1-1.38-4.67,8.63,8.63,0,0,1,1.58-4.54,44.52,44.52,0,0,1,4.09-4.73c.44-.51.84-.94,1.33-1.57a16.58,16.58,0,0,0,1.51-2.24,11.76,11.76,0,0,0,1.52-5.09,12.59,12.59,0,0,0-3.89-9.68,14.14,14.14,0,0,1,3,4.31,11,11,0,0,1,.78,2.5,8.24,8.24,0,0,1,.17,1.31,11.39,11.39,0,0,1,.05,1.31,12.11,12.11,0,0,1-1.32,5.05,14.62,14.62,0,0,1-1.41,2.25c-.59.78-.91,1.17-1.35,1.68-2.64,2.88-4.59,4.76-5.4,7a8.82,8.82,0,0,0-.42,1.72,4.7,4.7,0,0,0-.1.91,5.05,5.05,0,0,0,0,.87,7.65,7.65,0,0,0,1.26,3.46c.8,1.34,1.89,2.87,2.91,4.52a49.58,49.58,0,0,1,2.79,5.19A51,51,0,0,1,224.66,223.46ZM222,113a18.27,18.27,0,0,1-2.9-1,6,6,0,0,1-1.35.72c-1.32.5-2.69,1-4,1.4.36.19.05.3-.07.41l-.4.28c1.39-.44,2.88-.81,4.41-1.13A26,26,0,0,1,222,113Zm9-4.44.21.11.08.68S231.24,109,231.07,108.58Zm-.18-1.15-.26,0C230.57,107.15,230.68,107.22,230.89,107.43Zm-2.34-.18a1.93,1.93,0,0,0,.46.23Zm-11.5-16.34,1.08,3.33-1-3.27Z"/></g></g></svg>