<svg xmlns="http://www.w3.org/2000/svg" viewBox="0 0 304.94 483.43"><g id="Layer_2" data-name="Layer 2"><g id="Layer_1-2" data-name="Layer 1"><path d="M25.72,7.78v.51c-.3,0-.54-.16-.74-.49a6.24,6.24,0,0,0,3.44,4.83,10.71,10.71,0,0,0,6,.78,1.83,1.83,0,0,0,2.74-.31,2.36,2.36,0,0,0,.05-3A2.56,2.56,0,0,1,37,9.28a16.85,16.85,0,0,0-1.52-6.62c.07.52.15,1.06.22,1.58a5.05,5.05,0,0,0-.93-1.63c-.08.22-.17.47-.26.68a3.64,3.64,0,0,0-5.11-3,5.9,5.9,0,0,0-3.81,6.29Z"/><path d="M24.21,15.92c-.48-1.47-.86-2.95-1.21-4.43l.09-.48L22,12.53l.09-.08c1.86-.48,3.64.25,5.2,1l.64.16a1.59,1.59,0,0,0,1-.47,1.67,1.67,0,0,0,.23-2.23c-.2-.23-.38-.49-.57-.73-1-2.32-3.42-4.6-6.43-2.95a6.46,6.46,0,0,0-1.64,2,2.23,2.23,0,0,0-.14,3.11,2,2,0,0,0,3-.21l.27.58-.62.06c.92-.64,1.84-.16,2.76-.11l1,.51,1.31-2.72-.67-.09a2.93,2.93,0,0,1-.11.33,16.52,16.52,0,0,1-3.84-.59l-1.85-.19A1.52,1.52,0,0,0,20.5,11.4l.12.95v-.5c.79,1.57,1.84,3,2.63,4.59a.48.48,0,0,0,.69.25A.63.63,0,0,0,24.21,15.92Z"/><path d="M19.64,12.48a1.11,1.11,0,0,0-.41-.89l-.27.07c0,.2,0,.46.07.72C19.07,12.9,19.4,12.81,19.64,12.48Z"/><path d="M19,11.66l0-.3c0,.11-.05.21-.07.31h0Z"/><path d="M146.18,53.64c1,0,1.92.11,2.89.12h8.72l5.83-.27,2.92-.13,2.92-.27,5.85-.53,5.83-.77,2.93-.4c1-.14,1.93-.33,2.91-.49l5.82-1c.52-.09.93-.28.93-.41s-.43-.11-.91,0l-5.82,1-2.9.5-2.91.39-5.82.76-5.82.52-2.91.26-2.91.13-5.8.26c-1.94,0-3.87,0-5.8,0s-3.86,0-5.77-.12c-.52,0-.94.08-1,.21S145.7,53.61,146.18,53.64Z"/><path d="M264.17,33.93c-.31.25-.24.34.15.2a4.39,4.39,0,0,0,1.2-.65c.26-.22.19-.32-.15-.21A4.29,4.29,0,0,0,264.17,33.93Z"/><path d="M264.89,42.63,262,44.57c-.94.61-1.83,1.21-2.66,1.81a4.51,4.51,0,0,1-1,.52c.2.09-.13.44-.86.91C243.17,57.12,226.37,65,209.2,71.4a1.63,1.63,0,0,1-.62.66,19.8,19.8,0,0,1-6,2.48l-1.95.46c-2,.5-3.94.9-5.9,1.35s-3.93.92-5.92,1.27l-5.95,1.09-3,.52-3,.41a47.7,47.7,0,0,1-5.49,1.42c-3.4.89-6.85,1.62-10.32,2.42s-7,1.29-10.63,1.9c.47.1.75.26.76.46s-.5.5-1.18.7a13.06,13.06,0,0,1-2.58.37l-3,.2c2.86-.06,5.73,0,8.56-.24a11.28,11.28,0,0,1,1.14,0c3.11-.31,6.26-.56,9.42-1.11A213.52,213.52,0,0,0,203,75.83a263.27,263.27,0,0,0,35.42-15.57,4.39,4.39,0,0,1,1.31-.56c.26,0,.27.12-.13.36-1.71,1.08-3.42,2.08-5.12,3.07l-5.06,3C226,68.08,222.59,70,219.1,71.88a170.88,170.88,0,0,1-23.35,10.37,242.36,242.36,0,0,1-67,13.81A335.58,335.58,0,0,1,92.31,94.2a240,240,0,0,1-36.92-6.71c-2.15-.49-4.24-1.2-6.35-1.81l-6.31-1.94-6.19-2.23c-2.06-.76-4.14-1.46-6.14-2.35l-1.52-.64-.75-.32-.29-.1-1-.39-2.06-.78c-1.36-.53-2.73-1-4.05-1.66-2.66-1.21-5.29-2.46-7.92-3.75S7.62,68.7,5,67.25a8.39,8.39,0,0,1-4.4-4.2,6,6,0,0,1,0-5.28,6.49,6.49,0,0,1,5.34-3.31l-.83-.62L4,52.57a6.07,6.07,0,0,1-1.5-4.15V46.55c.54-3.19.21-6.62,1.22-9.75l.94-.74v-.44A5.49,5.49,0,0,1,5.3,32.1l1-1a14.47,14.47,0,0,1,3.91-2.72,5,5,0,0,1,1.28-1.2,7,7,0,0,1,2.6-3.86,1,1,0,0,1,1-1,1,1,0,0,1,.51.14h0c.09-.41.11-.53.18-1-.18-.31-.27-.51-.27-.51-.53-.77-.53-.77-1-1.45a4.61,4.61,0,0,1-.06-1.6c1.08-2.42,1.09-2.41,1.88-3.18l.3-.15a7.65,7.65,0,0,1-.25-.88,2.13,2.13,0,0,1,.07-.5c.36-.46.36-.46.43-.69a2.66,2.66,0,0,1,.27-.35c.66-.29.66-.29.79-.43a1.6,1.6,0,0,1,.34-.13l.64.14-.39,1.68.47-.29-.31.66.33-.56.06.56V13c.56.79.57.79.87,1a1.32,1.32,0,0,0,.63.43l.19-.28c.61.85.61.85,1.19,1.7a3.41,3.41,0,0,1-.09.48.41.41,0,0,1,.5.14l.33.42h.13l0,0,.52.05h.11c.35,0,.85.1,2.24.16a5.84,5.84,0,0,1,.5.76,2.34,2.34,0,0,1,0-.38c0-.26.44-.61.4-.7a14.45,14.45,0,0,0-.82-1.62c-.27-.54-.58-1.06-.89-1.56-.63-1-1.31-2-2-3a.85.85,0,0,1,.91-1.41c5.23.72,9.1,4.4,11.53,9.17.84.95,1.72,1.87,2.61,2.79v-.33l.56.91a.6.6,0,0,0,.08.08c0-.42-.05-.84-.07-1.26-.08-.18-.16-.36-.25-.54a17.26,17.26,0,0,1-2.68-3.45c-.76-1.28-1.4-2.66-2.17-3.91A33,33,0,0,1,31.6,8.32a.75.75,0,0,1,.08-1,.63.63,0,0,1,.92,0,18.75,18.75,0,0,1,5.3,4.51,15.35,15.35,0,0,1,3.37,6.45,3.87,3.87,0,0,1,1.42,2.15l0,0v-1c.4.56.35,1.29.69,1.86l.4-1.07c1.13,1.14,2.46,2.11,3.7,3.16A19,19,0,0,1,49.3,25,11.68,11.68,0,0,1,50.86,27a3.07,3.07,0,0,1,.25.26,14.26,14.26,0,0,1,2.17,0,5.15,5.15,0,0,1,.53.07l.14,0,.35.15.71.32c1,.43,1.89,1,2.92,1.43-.66-.39-1.28-.82-1.9-1.25L54.2,26.73c.66.24,1.48.6,2.2.91s1.49.65,2.26.95c1.51.64,3,1.34,4.56,2.17,8.36,4.32,17.78,9.72,22,13.8A204,204,0,0,0,113,51a200.55,200.55,0,0,0,28.55,2.18,3.05,3.05,0,0,1,2,.45c.11.26-.54.5-1.53.53s-1.72.1-2.58.12h-7.78c-1.73,0-3.47-.15-5.2-.22s-3.48-.15-5.22-.31a189.21,189.21,0,0,1-20.74-2.94,167.34,167.34,0,0,0,35.19,5.94c1.55,0,3.1.12,4.66.1s3.07.06,4.6.18a187.72,187.72,0,0,0,46.12-5.14,240.28,240.28,0,0,0,37.41-12.44c8.86-3.79,17.13-7.86,25.29-12.12s16.07-8.9,24.29-13.85c2.13-1.39,4.32-2.38,4.84-2.17s-.82,1.54-3,3q-12.52,8.37-25.67,15.58a287.16,287.16,0,0,1-27.14,12.8,223.21,223.21,0,0,1-28.71,9.57,193.58,193.58,0,0,1-30.27,5.49c-2.23.26-4.45.35-6.64.53l-3.29.24c-1.09.06-2.18.07-3.27.11a.48.48,0,0,1,.12.26c0,.36-.36.7-1,1l3.75-.08,3.76-.21,3.77-.2,1.9-.1,1.89-.17c13.89-2.36,27.54-5.78,42.11-9.7,10-2.75,19.08-5.4,28.24-8.62A311.09,311.09,0,0,0,272,23.31a3.14,3.14,0,0,1,1.08-.52c.2,0,0,.2-.39.49-1.77,1.2-3.58,2.36-5.39,3.54l-2.73,1.78-2.79,1.68-5.65,3.37-5.8,3.19c1.4-.32,2.33-.32,2.44.13s-.67,1.31-2,2.32l5.45-2.67c1.13-.53,2.09-.83,2.16-.62s-.7.85-1.78,1.37c-3.71,1.84-7.4,3.72-11.18,5.38-1.89.83-3.75,1.74-5.66,2.52L234,47.63a267.6,267.6,0,0,1-27.8,10.43,6.82,6.82,0,0,1,3.12.38h0l4.41-1.39a373,373,0,0,0,76-39.68c.47-.32.9-.52,1-.44s-.25.38-.68.66c-3.67,2.41-7.27,4.9-11,7.17-1.87,1.15-3.67,2.38-5.57,3.46l-5.62,3.35,0,0c.33-.12.45-.06.15.2a4.78,4.78,0,0,1-1.17.7c-.39.14-.41,0-.16-.2a385.91,385.91,0,0,1-43.25,21.41,338,338,0,0,0,40.41-18.41c1.35-.91,2.72-1.75,4.07-2.7a3.23,3.23,0,0,1,1.1-.5c.15,0-.08.26-.46.51l-1.12.78c2.43-1.39,4.52-2.13,4.75-1.66s-1.73,2.15-4.26,3.62c-6.8,3.94-13.66,7.73-20.76,11.06L245,47.55l-2.2,1.35a300.3,300.3,0,0,0,32.56-16.51c.88-.54,1.72-.88,1.84-.73s-.52.71-1.42,1.26a274.37,274.37,0,0,1-27.9,16.43,267.59,267.59,0,0,1-30,13.23c-3.25,1.63-6.57,3.17-9.9,4.79-3.38,1.47-6.78,3-10.27,4.47.92-.2,1.84-.45,2.75-.72A177.91,177.91,0,0,0,232.28,58.6c9.89-4.89,19.36-10.21,29.36-15.93a2,2,0,0,1,1.06-.42c.1,0-.19.33-.7.62-9.73,5.68-18.65,10.93-28.81,15.89l-6.26,3-6.23,2.74-3.08,1.37-3.09,1.27-6.12,2.56c2.12-.72,4.22-1.48,6.3-2.23l3.11-1.14,3.06-1.25L227,62.54l5.94-2.74,3-1.37L238.76,57,244.58,54,250.34,51l2.88-1.54c1-.52,1.9-1.08,2.86-1.62a8,8,0,0,1,1.83-.85.9.9,0,0,1,.32-.33c1.8-1.28,3.84-2.53,5.85-3.91a3.5,3.5,0,0,1,1.18-.56C265.51,42.1,265.31,42.32,264.89,42.63ZM28.21,27.41v-.24c.07.17.13.35.21.55l-.21,1.5Zm-9.72-.94h0c.09-.49.16-.85.16-.85C18.58,26,18.53,26.24,18.49,26.47Zm93.09,28-6.24-1.22c-1-.19-2.06-.46-3.08-.73l-3.05-.82a113.15,113.15,0,0,1-11.91-4l5.89,1.45,2.25.78,2.27.68L102.29,52c1.52.49,3.07.87,4.62,1.26ZM26.83,19.84a13.45,13.45,0,0,1,0,3.17,3.71,3.71,0,0,1,1.31.77c1,.94,2,1.85,3,2.81.13-.5.36-.27.52-.23l.48.19a41.31,41.31,0,0,1-2.85-3.4A27.72,27.72,0,0,1,26.83,19.84Zm-8.7-4.73a1.5,1.5,0,0,0,0-.22l.67-.39Zm-1.12.7.09.21C16.87,16.18,16.88,16.06,17,15.81Zm.83,1.93a1.59,1.59,0,0,0,.05-.48ZM5.34,35.51l2.93-2.37-2.9,2.21Z"/><path d="M163.89,106l-.57-.28c.12-.18.48-.2,1-.11a10.3,10.3,0,0,0-7.08-.49,9.44,9.44,0,0,0-2.45,1.16,7.19,7.19,0,0,0-1.62,1.49c-1.15.11-1.56.73-1.14,1.3a2.45,2.45,0,0,0,1.11.73,4.33,4.33,0,0,0,1.62.29,5.81,5.81,0,0,1,.89.2c.6.24,1.18.47,1.8.69l1.94.66,2,.67c.69.21,1.4.42,2.12.66-.64-.29-1.29-.57-1.91-.82a19.86,19.86,0,0,0,2.44.62l-.58-.48c3.13,1.3,6.4,1.69,7.06.21s-1.78-4.52-5.11-5.89Z"/><path d="M156.15,101.39a25.36,25.36,0,0,1,2.57.46c.86.19,1.73.4,2.61.67l.47.28-1-1.41,0,.09c-.41,1.37-2.21,2-3.77,2.64l-.53.27a.64.64,0,0,0-.11.73,2.57,2.57,0,0,0,2.16,1.06l1.07,0c.71.12,1.55.23,2.36.3a12.1,12.1,0,0,0,2.27,0c1.42-.18,2.47-.7,2.34-2-.06-.61-.85-1.41-1.38-2.12a3.83,3.83,0,0,0-3.39-1.79c-1.31.1-1.86,1-1.33,1.92l-.75-.1.26-.4c.2.85-.8,1.17-1.36,1.68l-1.06.39,2.06,1.86.46-.32c-.11-.08-.29-.2-.29-.21a15.17,15.17,0,0,1,2.78-1.82l1.25-.94c.19-.47-.29-1.15-1.07-1.51l-1.1-.41.54.25a53.61,53.61,0,0,0-6.1-.31c-.32,0-.58.14-.57.36S155.83,101.36,156.15,101.39Z"/><path d="M162,100a2.24,2.24,0,0,0,1.19.21,1.65,1.65,0,0,0,0-.22l-.82-.33C161.85,99.39,161.79,99.65,162,100Z"/><path d="M163.26,100l.35.15-.3-.21,0,0Z"/><path d="M172.35,249.68c-1,24.83-2.15,49.81-3.7,74.78-.05.83,0,1.54.22,1.58s.33-.6.37-1.38c1.6-25,2.78-49.83,3.78-74.66a2.81,2.81,0,0,0-.31-1.64C172.52,248.31,172.37,248.9,172.35,249.68Z"/><path d="M149.69,435.91c-.06-.59-.16-.57-.26,0a10.62,10.62,0,0,0-.07,2.05c0,.5.17.48.26,0A10.43,10.43,0,0,0,149.69,435.91Z"/><path d="M141.47,430.48c-.28-3.5-.59-6.82-1-9.78a9.21,9.21,0,0,1-.05-1.64c-.18.21-.38-.46-.51-1.72-2.62-24.85-4.51-51.57-6.25-77.89a2.43,2.43,0,0,1-.65-1.11,29.56,29.56,0,0,1-1.12-9.28l.11-2.86c.18-11.55.39-23.07.8-34.56a70.65,70.65,0,0,1-.62-8.05c-.91-9.95-1.72-19.93-2.25-30.14-.21.64-.46,1-.73,1-.63-.2-1.09-2.57-1-5.33,0-1.39.07-2.77.16-4.16-.46,4-.54,8-.8,12a14.75,14.75,0,0,1-.12,1.59c-.09,4.37-.09,8.79,0,13.28.42,39.22,4,76.09,7.74,112.67a7.61,7.61,0,0,1,0,2.07c-.1.36-.27.29-.36-.38-3.5-23.07-8.23-43-11-69.14-1.63-15.52-3-30.95-4-46.48-.26-3.89-.52-7.78-.71-11.68l-.3-5.86c-.1-2-.23-3.91-.21-5.87a57.39,57.39,0,0,1,5.28-23.65c4-8.29,9-16.37,12.8-24.51,1-2.08,1.82-4,2.71-6.34L140,191c.24-.64.48-1.17.68-1.62.42-.92.82-1.7,1.13-2.49A15.64,15.64,0,0,0,143,177.4a13.17,13.17,0,0,0-1.75-4.35c-.44-.69-.94-1.4-1.61-2.35a19,19,0,0,1-2.19-4,16.26,16.26,0,0,1-1.06-5.26,17.24,17.24,0,0,1,.56-5.16,23.67,23.67,0,0,1,4-7.76,12.14,12.14,0,0,0,1-1.58l0-.06h0s0,0,.09.06l.35.18a6,6,0,0,0,.73.32l.39.13.2.08a2.79,2.79,0,0,0,.66.17s0,0,0,0h-.22l-.29,0-.21.05.1,0c.06,0,0,0-.4.18l-.3.17-.36.24a3.72,3.72,0,0,0-.45.33l-.11.08h0a.68.68,0,0,0-.19-.3,1.72,1.72,0,0,0-.23-.26,14.83,14.83,0,0,0-1.14-1c-.79-.6-1.58-1.2-2.3-1.82a21.88,21.88,0,0,1-3.71-3.67,9.83,9.83,0,0,1-1.76-4.15,3.78,3.78,0,0,1-.13-1.21,10.21,10.21,0,0,1,0-1.24,10.38,10.38,0,0,1,.52-2.26,6.41,6.41,0,0,1,.64-1.38,7.82,7.82,0,0,1,.85-1.27c.16-.2.27-.42.46-.62l.61-.58a16.47,16.47,0,0,1,1.41-1.11c.25-.18.51-.36.8-.53a6,6,0,0,1,.87-.49c.66-.28,1.32-.56,2-.87,1.32-.56,2.83-.95,4.2-1.41l2.08-.7c.42-.15.63-.25.93-.37a9,9,0,0,0,1.34-.69,1.64,1.64,0,0,0,.28-.24h0l.08.09c.19.24.46.52.59.7a5.27,5.27,0,0,0,.51.56l.28.26.2.2a4.09,4.09,0,0,0,.44.37c.17.11.21.17.34.24s.28.14.31.17l.2.09c.13,0,.19,0,.11,0a1.2,1.2,0,0,0-.34.11,2.18,2.18,0,0,0-.6.34,4.37,4.37,0,0,0-.86.62l-.19.18-.28.24a6.51,6.51,0,0,0-.54.51c-.17.18-.33.36-.49.55a3,3,0,0,1-.28.32c-.08.09,0,0-.06.05H149c-.11,0-.22,0-.38-.07-.65-.16-1.64-.4-2.72-.58-.56-.1-1.08-.2-1.75-.28l-2-.07c-.67,0-1.37-.2-2.06-.3a76.82,76.82,0,0,1-8.85-2l-1.67-1a3.48,3.48,0,0,0-.43-.25l-.55-.2-1.09-.39a9.6,9.6,0,0,1-1-.41l-.74-.57c-.49-.38-1-.75-1.44-1.13s-.93-.76-1.36-1.15l-.43-.39-.59-.52c-.79-.69-.48-1.59-1.35-2.25l-.5-.54a2.13,2.13,0,0,1-.43-.54l-.67-1.12-.54-1.15c-.18-.38-.49-.79-.73-1.19-.64-.8.09-1.58-.74-2.49l-.37-.65a3.65,3.65,0,0,1,0-.66l.06-.65c0-.1,0-.23-.09-.35l-.15-.37c-.18-.49-.56-1-.31-1.44l.16-.68.09-.34a1.4,1.4,0,0,0-.07-.39c-.12-.52-.26-1-.36-1.57l.56-1.37.14-.34a1.67,1.67,0,0,0,0-.39l0-.8c0-.53-.05-1.06,0-1.6l.1-1.61,0-.41c0-.14.13-.21.19-.32l.49-.61,1-1.22a9.8,9.8,0,0,0,.56-1.46l.52-1.48,0-.1,0,0a.53.53,0,0,0-.06-.1l-.26-.42-.13-.2c0-.06,0-.08,0-.11l.09-.2.34-.81.35-.8.27-.71.54-1.32c.35-.85.73-1.72,1.11-2.56.28-.69.6-1.36.92-2a17.62,17.62,0,0,1,1-1.81,12.73,12.73,0,0,1,2.07-2.62c1.34-1.28,2.7-1.68,3.68-1,1.19.9,1.55,3.11,1.13,5.54.22-.33.43-.66.64-1,.4-.45.81-.93,1.2-1.35,1.15-1.18,2.36-1.94,3.46-1.87h1.43c2.32.53,5.1.33,7.47,1.74l.38,1,.37,0a3.76,3.76,0,0,1,2.85,1.17l.65,1.14A12.12,12.12,0,0,1,150.25,87a3.87,3.87,0,0,1,.66,1.41,5.63,5.63,0,0,1,2.63,3.22.8.8,0,0,1,.58,1.08.9.9,0,0,1-.34.36h0c.35.19.46.24.89.45a5.19,5.19,0,0,1,.61,0c1-.16,1-.15,1.84-.24a5.91,5.91,0,0,1,1.65.59c2,1.84,2.06,1.88,2.51,2.8,0,.1,0,.2,0,.29.78.17.85.2,1.07.26a3.51,3.51,0,0,1,.51.31c.34.49.34.49.56.66a4.24,4.24,0,0,1,.26.37c0,.6,0,.6.09.76a1.12,1.12,0,0,1,0,.29l-.47.33-1.65-1.12.09.46-.56-.53.44.49L161,99l.78.37a4.51,4.51,0,0,0-1.54.07,1.75,1.75,0,0,0-.77.22,2.58,2.58,0,0,1,.21.25l-2.33.07-.44-.24c0,.15-.16.26-.39.28l-.59,0-.06.1,0,0-.29.32c0,.07-.06.07-.06.07h0c-.21.22-.5.53-1.29,1.33-.34,0-.69,0-1,.05l.37.1c.26.08.36.47.48.48,1.36.08,2.7.14,4,.16s2.75.09,4.18.22a1.6,1.6,0,0,1,1.34.5c.3.37.17.7-.28.77a10.57,10.57,0,0,1-3.23,1.43,24.65,24.65,0,0,1-3.84.74c-2.7.31-5.47.42-8,.5-.56.08-1.14.21-1.68.33l-1.52.36.23.06c-.24,0-.61,0-.55.15v0h.2l.4.08h.46a17.28,17.28,0,0,1,3.9-.45c.75,0,1.45,0,2.23,0l2.38.12a16.87,16.87,0,0,1,2.68.36l2.76.61a1.37,1.37,0,0,1,1,.54c.14.26-.1.44-.53.4-1.25.14-2.45.16-3.76.24-.64,0-1.24,0-1.89,0H152.8c-1.26,0-2.38-.08-3.51-.12l-1.58-.16a3.49,3.49,0,0,1-.37-.07l-.31,0-.1.06a1.6,1.6,0,0,1-.85.31h0l.49.08c-.17.11-.6,0-.81.14l.62.2a1.53,1.53,0,0,0-.47,1.3c0,.47.22.84.25,1.2a.25.25,0,0,1,0,.08c.35.12.69.21,1,.3l.22.06,0,0,.18.09.34.16c.46.21.92.39,1.39.59a13.61,13.61,0,0,1-1.67-.91c.64.3,1.35.56,2,.79.08,0,.15.06.24.08l.12,0,.06,0,.12.08,2,1.3c.69.46,1.38.91,2.14,1.46a23.24,23.24,0,0,1,2.48,2l.47.44c.16.16.34.36.5.55a10.63,10.63,0,0,1,1,1.36,6.6,6.6,0,0,1,.5.93,5.38,5.38,0,0,1,.42,1.1,9.15,9.15,0,0,1,.28,1.26,10.29,10.29,0,0,1,0,1.36,7.57,7.57,0,0,1-1.79,4.32,9.85,9.85,0,0,1-2.31,2,23.93,23.93,0,0,1-3.64,1.78c-.51.21-1.22.47-1.15.46a2.15,2.15,0,0,0-.36.11,10.1,10.1,0,0,0-1.47.54,1.7,1.7,0,0,0-.62.51,1.62,1.62,0,0,1-.1.18,1.34,1.34,0,0,1,0,.2.88.88,0,0,0,.1.35,5.1,5.1,0,0,0,1,1l.28.24.14.13.07.07h0l0,0s0,0,0,0l.17.14a15.24,15.24,0,0,1,2.66,2.62,12.07,12.07,0,0,1,2,3.71,11.8,11.8,0,0,1,.48,2c.06.7.1,1.39.09,2.06a14.87,14.87,0,0,1-.29,2,14,14,0,0,1-.58,1.73,12.46,12.46,0,0,1-.7,1.37c-.24.38-.48.75-.71,1.08a28.49,28.49,0,0,1-2.1,2.77c-.59.71-1.1,1.3-1.48,1.82a6.29,6.29,0,0,0-1.29,2.82,4.53,4.53,0,0,0,0,1.36,5.24,5.24,0,0,0,.63,1.7c.79,1.5,2,3.54,3,5.59a55.89,55.89,0,0,1,4.12,12.93c.43,2.24.7,4.55.94,6.72l.19,1.56a12.34,12.34,0,0,0,.26,1.32c.19.9.43,1.79.65,2.67.51,1.91,1.05,3.86,1.67,5.77s1.29,3.9,2,5.84c1.39,3.88,3,7.81,4.42,11.7a98.86,98.86,0,0,1,6.27,23.36c.21,1.6,0,3-.29,3.32s-.71-.91-.89-2.51a98.86,98.86,0,0,0-3.91-16.79c-1.81-5.63-4-11.26-6-16.92-1-2.81-1.9-5.64-2.73-8.46-.4-1.39-.78-2.79-1.12-4.19l-.26-1-.22-1c-.15-.65-.29-1.31-.41-2-.26-1.15-.34-2.8-.52-4.38s-.37-3.24-.66-4.85a53.32,53.32,0,0,0-2.55-9.41,50.71,50.71,0,0,1,2.15,7.84,66.23,66.23,0,0,1,1,8.05c0,.66.09,1.28.15,1.86s.16,1.06.26,1.62c.2,1.12.39,2.15.66,3.38.5,2.36,1,4.7,1.7,7.1,2.51,9.54,5.88,19.2,7.53,28.89q.74,3.72,1.18,7.46a45.07,45.07,0,0,1,.24,7.33c-.1,12.38-.44,24.45-.7,36.58s-.52,24.33-.66,37c-.25,21.6-.68,40.49-1.65,62-1.42,30.2-4,57.7-9.73,87.51a44.11,44.11,0,0,1-2.06,8.09c-.35.48,0-2.4.64-6.38,2.48-15.54,4.13-31,5.39-46.52s2.1-31,2.73-46.58c1.27-31.19,1.81-62.74,2.85-95.25.21-7,.42-13.92.62-20.78a.66.66,0,0,1-.36.17c-.49,0-.93-.67-1.29-1.77q-.39,11.69-1.05,23.53c.5,21.93.65,43.9-1,67.28-1.16,16.05-2.9,30.57-4.53,45.41-.78,18.82-1.8,37.58-3.6,56.59a8.8,8.8,0,0,1-.28,1.81c-.1.28-.14-.13-.09-.9.86-13.07,1.38-26.46,1.76-40-.5,2.12-1,3.39-1.54,3.21s-.9-1.83-1.14-4.36l-.46,9.2c-.11,1.89-.38,3.38-.62,3.32s-.39-1.55-.31-3.35q.75-18.76,1.49-37.47c.14-15,.2-29.91.24-44.93a10.67,10.67,0,0,1-1.85,4.32h0c0,2.32-.05,4.64-.08,6.95q.9,31.82.27,64.3t-2.9,65.29a8.2,8.2,0,0,1-.18,1.57,6.09,6.09,0,0,1,0-1.41q1.23-19.81,2-39.52v.06c-.08.53-.2.62-.24,0a11,11,0,0,1,.07-2.06c.09-.6.2-.55.25-.05.86-24.47,1.07-48.77.6-72.75q-.43,33.42-1.66,66.81c.05,2.42.1,4.84.16,7.31a7.74,7.74,0,0,1-.19,1.82c-.08.18-.17-.31-.17-1l0-2c-.17,4.21-.65,7.46-1.12,7.38-.48-.24-.83-3.86-.78-8.24,0-11.72.05-23.39.08-35.07l-.1-3.79c-.1-1.28-.21-2.54-.31-3.81-.39,18.16-.74,36.28-.87,54.3a7.81,7.81,0,0,1-.27,2.89,7,7,0,0,1-.33-2.77c-1.09-31.76-2.38-63.92-3.13-96.21-1.38-10.62-2.86-21.26-4.34-32.11,0,1.37,0,2.75,0,4.13.17,17.55,1.45,33.79,2.69,49.88s2.47,32,3.07,49a4.06,4.06,0,0,1-.13,1.67c-.1.09-.22-.48-.25-1.35-.72-16.59-2.11-31.74-3.3-48.21-1-13.64-1.91-26.61-3.15-39.29.83,25.91,3,50.77,4.4,76.43a15.94,15.94,0,0,1,0,3,1.52,1.52,0,0,1,.18.63c.41,3.21.74,6.71,1,10.29a6.77,6.77,0,0,1-.05,1.91C141.68,431.66,141.56,431.24,141.47,430.48Zm2.5-329.2.2,0-.54.07-1.11-.28S143.21,101.16,144,101.28Zm4.87-6.89h0l.71.31ZM156.23,194c-.14-.8-.27-1.59-.36-2.35l-.2-2.71c-.14-1.89-.33-3.82-.65-5.73a48.83,48.83,0,0,0-3.1-11,47.22,47.22,0,0,0-2.48-5.1,13.31,13.31,0,0,1-1.74-3.74,4.31,4.31,0,0,1,0-1.35,6.67,6.67,0,0,1,.33-1.45,9.17,9.17,0,0,1,1.73-2.73,9.33,9.33,0,0,0-1.62,2.69,5.7,5.7,0,0,0-.27,2.67c0,1.12,1.68,3.53,2.95,6.15a49.18,49.18,0,0,1,3.09,8.12,52.09,52.09,0,0,1,1.62,8.61c.16,1.44.24,2.9.33,4.29,0,.66.07,1.37.14,1.9S156.13,193.43,156.23,194Zm-5.15-92.28a22.68,22.68,0,0,1-2.82-.73,5.08,5.08,0,0,1-1.26.7c-1.2.53-2.44,1-3.54,1.53.34.12.07.24,0,.34s-.24.19-.33.28c.61-.26,1.24-.5,1.88-.71s1.37-.42,2.05-.6,1.32-.34,2-.49A12.47,12.47,0,0,1,151.08,101.74Zm8.87-4,.22.12.09.63Zm-.21-1.08-.26,0C159.41,96.36,159.53,96.42,159.74,96.63Zm-2.37-.21a2.25,2.25,0,0,0,.46.22ZM145.45,81.19l1.18,3.18-1-3.13Z"/><path d="M103.52,344.94l.43.36a1.34,1.34,0,0,1-1.1,0,11.15,11.15,0,0,0,7.13,1.77,15.92,15.92,0,0,0,6.47-1.75c1.31.25,2.46-.29,2.59-1.22s-.85-1.88-2.18-2.17a5,5,0,0,1-.86-.48,26,26,0,0,0-6.93-4.42c.53.37,1.05.72,1.57,1.11a8.69,8.69,0,0,0-2.38-.86c.1.18.22.41.31.6-2.66-1.7-6.3-1.81-8-.06s-.87,4.68,1.78,6.34Z"/><path d="M108.5,351.25c-1.52-.74-3-1.55-4.49-2.41l-.31-.38.18,1.61,0-.1c1.29-1.25,3.53-1.61,5.59-1.82l.73-.16a1.1,1.1,0,0,0,.64-.75c.15-.71-.5-1.49-1.49-1.7l-1.12-.24c-2.77-1.13-7.15-1.7-8.51.93-.3.61.05,1.45.17,2.21a2.54,2.54,0,0,0,2.39,2.27c1.35.15,2.47-.57,2.52-1.62l.7.27-.52.34c.34-.89,1.56-1,2.46-1.41l1.37-.15-.86-2.46-.71.25a2.86,2.86,0,0,1,.16.28,25,25,0,0,1-4.09,1.41l-1.84.75a1,1,0,0,0,.19,1.63l.86.6-.4-.34c2,.69,4,1.14,5.87,1.81a.67.67,0,0,0,.81-.18C109,351.66,108.81,351.38,108.5,351.25Z"/><path d="M101.78,351.18a1.82,1.82,0,0,0-1.07-.42l-.17.19.63.47C101.62,351.76,101.83,351.54,101.78,351.18Z"/><path d="M100.54,351l-.27-.2.19.25.05,0Z"/><path d="M213.75,342.86c-1-.53-2-1.06-2.89-1.61-.45-.28-1-.55-1.37-.82l-.89-.83-.45-.42-.64-.42-1.28-.85a11.29,11.29,0,0,1-.85-.84l-.42-.43a3.76,3.76,0,0,0-.55-.43l-1.2-.89a6.44,6.44,0,0,1-.8-.88,13.87,13.87,0,0,0-2-1.83c-.52-.63-1-1.23-1.39-1.88-.24-.33-.4-.63-.69-1l-1-1.06c-.07-.09-.17-.17-.23-.26l-.14-.26-.29-.53c-.2-.35-.39-.71-.56-1.08a6.66,6.66,0,0,0-.63-1.15,14.38,14.38,0,0,1-.79-1.25l-.42-1.26-.36-1.35-.29-1.45c-.15-.55-.37-1.1-.48-1.65s0-1.1,0-1.7a11.07,11.07,0,0,0,0-1.84c0-.33,0-.66,0-1l.26-.93a16.29,16.29,0,0,1,.63-1.86c.23-.62.34-1.27.52-1.91a1,1,0,0,1,.19-.44l.26-.42.51-.83c.31-.56.54-1.14.81-1.7a3.29,3.29,0,0,1,.21-.42l.32-.36.63-.71c.94-.92,1.39-2,2.27-2.86a34.15,34.15,0,0,0,2.84-2.4l1.29-1.24c.45-.39.93-.77,1.39-1.15s.92-.78,1.4-1.15l1.55-1a69.92,69.92,0,0,1,6.22-3.62l3.06-1.54,1.46-.73.73-.37.37-.19c.14,0,.31,0,.46-.06l1.9-.22,1-.11.47-.05.36-.16,1.41-.65.7-.32c.13-.05.22-.14.38-.14h2.48a5,5,0,0,0,1.87-.18l1.64-.48.82-.24c.11-.07.34,0,.52,0l.56,0,2.24.17,1.12.08,1-.14,2.08-.27c.35,0,.66-.11,1.06-.12l1.18-.05a46,46,0,0,1,4.91-.1l2.62.08c.87.05,1.76-.08,2.64-.1a12.37,12.37,0,0,0,3.48-.49c0-.19-1.51-.26-3.27-.14-.89.05-1.79.12-2.68.14l-2.65-.07c-.87,0-1.8-.08-2.61-.05l-2.38.12-1.2.06a7.52,7.52,0,0,0-1.12.1L239,285a16.23,16.23,0,0,1-4.4,0l-1.13-.08a.81.81,0,0,0-.48.06l-.4.12-1.64.51-.82.25c-.31,0-.66,0-1,0l-2,0c-.32,0-.68,0-1,0l-.7.33-1.4.67a2.73,2.73,0,0,1-.74.3l-1,.12-1.9.23a3.27,3.27,0,0,0-.92.16l-.72.37-1.45.76-3,1.56c-1,.5-2.07,1.14-3.11,1.72s-2.07,1.23-3.1,1.91a21.31,21.31,0,0,0-3,2.13l-1.39,1.16c-.46.39-.87.83-1.3,1.24s-.83.84-1.32,1.23l-1.47,1.2-.37.3-.19.15-.13.18-.51.74a14.31,14.31,0,0,1-1.1,1.46l-1.26,1.43-.78,1.71c-.28.57-.66,1.12-1,1.68a1,1,0,0,0-.18.45l-.12.49-.24,1a12.69,12.69,0,0,0-1,3.76l.05,1a8.72,8.72,0,0,1-.05.9,16.87,16.87,0,0,0,0,1.72c.53,2.34.82,4.15,1.39,5.82a4.25,4.25,0,0,0,.67,1.25l.41.62c.11.19.18.37.27.56.34.76.72,1.45,1.09,2.15a29.92,29.92,0,0,1,3,3.95,2.31,2.31,0,0,0,.47.47l.54.47a5.7,5.7,0,0,1,1,.92l.72.88a3.11,3.11,0,0,0,.53.45l.6.44a10.5,10.5,0,0,1,1.85,1.73c.62.57,1.75,1.15,2.36,1.71.87,1.12,3.06,2.23,5,3.31a12.64,12.64,0,0,0,2.53,1.11C215.39,343.8,214.75,343.4,213.75,342.86Z"/><path d="M233.1,171.12c-.18.89,0,.9.36,0a15.05,15.05,0,0,0,.55-1.43,15.46,15.46,0,0,0,.5-1.5c.19-.74,0-.78-.35-.06a13.47,13.47,0,0,0-.65,1.5A15,15,0,0,0,233.1,171.12Z"/><path d="M242.42,180.59a35.31,35.31,0,0,0,1.38,11.6,10.52,10.52,0,0,1,.34,1.95c.19-.29.59.46,1.07,1.93,2.38,7.21,6.17,14.37,10.61,21.64.55.91,1.12,1.82,1.7,2.74l1.73,2.75L261,226l.91,1.4.89,1.35c1.11,1.67,2.37,3.47,3.66,5.3l3.92,5.57A267.6,267.6,0,0,1,286.08,264a98.72,98.72,0,0,1,6.77,14.69,51.13,51.13,0,0,1,2.39,9.3,31.38,31.38,0,0,1-.43,12.8,10.9,10.9,0,0,1-.62,3.79,15.08,15.08,0,0,1-1.05,2.63,18.13,18.13,0,0,1-1.74,3,25.29,25.29,0,0,1-2.58,3.15,36.31,36.31,0,0,1-3.31,2.84,37.45,37.45,0,0,1-3.69,2.2l-.24.13-.17.08-.32.13-.65.28-1.33.54c-.9.36-1.82.71-2.75,1s-1.74.43-2.62.64l-1.33.27-.66.14-.29.06h-.13l-1.08.07a23.63,23.63,0,0,1-6.66-.6c-2.22-.47-4.45-1.1-6.75-1.51a24,24,0,0,0-7-.35,26.3,26.3,0,0,0-6.9,1.89c-.28.29-.59.57-.89.9s-.65.63-1,1a13.24,13.24,0,0,0-2,2.47,5.11,5.11,0,0,0-.22,2.89,6.89,6.89,0,0,0,1.45,2.83,19.17,19.17,0,0,0,5,4,49.8,49.8,0,0,0,11.13,4.6c-.18-.13-.14-.2.17-.2a33.47,33.47,0,0,1,4.35.94l2.49.6a43.41,43.41,0,0,1-6.33-2,5.06,5.06,0,0,1-.72-.33,25.93,25.93,0,0,1-6.75-3.87,6.94,6.94,0,0,1-2.49-3.61,4.29,4.29,0,0,1,1.47-3.83,14.74,14.74,0,0,1,3.38-2.38c.59-.35,1.24-.58,1.86-.87.32-.14.65-.21,1-.32a5,5,0,0,1,1-.26c2.7-.61,5.45-.21,8.21.19a25.19,25.19,0,0,0,4.29.32,17,17,0,0,0,2.22-.2l1.11-.25.29-.07.79-.21,1.65-.45,1.64-.44c.28-.08.53-.13.83-.24l.91-.35c1.2-.47,2.4-1,3.59-1.46l.89-.38,1.39-.73c.92-.52,1.84-1.06,2.73-1.64a32,32,0,0,0,2.74-2.16c.44-.38.88-.77,1.3-1.17s.83-.9,1.23-1.36a33.88,33.88,0,0,0,2.25-2.88c.63-1,1.23-2.05,1.78-3.11a31.09,31.09,0,0,0,2.21-6.18c.21-1,.39-1.93.54-2.9a11.84,11.84,0,0,0,.15-1.35l.09-1.29.05-1.29,0-.64,0-.58q0-1.14-.12-2.28c0-.37-.05-.77-.1-1.11l-.14-1-.31-2c-.23-1.28-.53-2.44-.81-3.66s-.64-2.21-1-3.31l-1.08-3a95.75,95.75,0,0,0-4.94-10.63A189.15,189.15,0,0,0,279.19,248c-3.81-5.52-7.73-10.81-11.39-15.84a10.12,10.12,0,0,1-1.44-2.35c-.12-.45.09-.49.62.2,4.8,6,10,12.27,15,18.78,2.51,3.27,5,6.64,7.42,10.24a115.37,115.37,0,0,1,7.08,11.8,73.51,73.51,0,0,1,3.24,7.18c.26.62.49,1.37.73,2.06s.48,1.38.7,2.15a47.28,47.28,0,0,1,1.18,4.94l.24,1.35c.07.46.15.89.2,1.43.1,1,.19,2.07.25,3.12a16.11,16.11,0,0,1,0,1.72l-.06,1.8c0,.62,0,1.17-.13,1.85s-.2,1.38-.31,2.07-.25,1.37-.4,2.06-.4,1.49-.62,2.23-.5,1.51-.78,2.26c-.15.37-.28.74-.45,1.11l-.56,1.18a34,34,0,0,1-2.67,4.53,38.32,38.32,0,0,1-3.46,4.14,47.61,47.61,0,0,1-4,3.39,44,44,0,0,1-4,2.52l-1,.56a3.88,3.88,0,0,1-.4.19l-.3.14-1.24.56-2.52,1.08a34.36,34.36,0,0,1-4.75,1.59l-2.17.64-.49.19a10.16,10.16,0,0,1-3.72.64,20.17,20.17,0,0,0-3.81.17,5.72,5.72,0,0,0-3,1.65,4.55,4.55,0,0,0-1.56,3,2.92,2.92,0,0,0,.89,2,8,8,0,0,0,1.84,1.41,23.49,23.49,0,0,0,7.42,2.57c1.09.19,2.06.4,2.91.62q.65.17,1.2.36l.28.09.14.05.9.53c1.21.72,2.34,1.35,3.72,2.26a85.59,85.59,0,0,1,15.58,12.63A53,53,0,0,1,299,361l.41.54a2.57,2.57,0,0,1,.24.35l.26.4,1,1.62a27,27,0,0,1,1.9,3.42,19,19,0,0,1,1.22,14.4c-.22.56-.42,1.13-.68,1.67s-.58,1.05-.89,1.57a16.42,16.42,0,0,1-2.32,2.74,8.46,8.46,0,0,1-1.35,1.18L297.35,390c-.53.29-1.06.58-1.61.86l-.82.4-.88.32c-.59.2-1.18.4-1.78.58a18.8,18.8,0,0,1-1.87.41c-.63.12-1.26.22-1.9.31s-1.3.11-2,.15-1.31,0-2,0l-1.63,0-1.62-.06h-.4l-.28,0-.53-.05-17-1.38c-11.33-.91-22.66-1.86-34.12-2.53-5.73-.37-11.48-.72-17.29-.94s-11.66-.5-17.57-.55a422.75,422.75,0,0,0-46.83,1.44l-2.85.26-1.42.14-.29.05-.9.15-1.8.3-3.56.57c-2.37.35-4.73.74-7,1.18s-4.66.83-7,1.28c-3.47,1.06-6.6-.22-7.11-3.08a5.54,5.54,0,0,1,1.92-4.88l-.86.09-1.37-.15a4.59,4.59,0,0,1-3.14-1.66l-1-1.11c-1.34-2.18-3.49-3.95-4.68-6.43l.2-1-.27-.26a4.45,4.45,0,0,1-1.72-2.51l0-1.21a10.18,10.18,0,0,1,1.1-3.93,3.65,3.65,0,0,1,.18-1.47,5,5,0,0,1-.59-3.89.72.72,0,0,1,.07-1.17,1.16,1.16,0,0,1,.51-.18h0a9.36,9.36,0,0,0-.57-.75c-.37-.11-.58-.19-.58-.19-1-.22-1-.22-1.83-.43a4.72,4.72,0,0,1-1.23-1c-.93-2.2-.94-2.21-.87-3.14,0-.09.09-.18.14-.27l-.9-.47a2.83,2.83,0,0,1-.33-.38c-.06-.52-.06-.52-.19-.71a1.76,1.76,0,0,1,0-.38c.33-.55.33-.55.33-.71a1.49,1.49,0,0,1,.19-.27l.66-.22,1,1.37.18-.44.24.61-.15-.55.49.36-.56-.51a5.05,5.05,0,0,0,1.55.26,2.35,2.35,0,0,0,.89,0,2.2,2.2,0,0,1,0-.29c1.19.27,1.19.27,2.34.56a2.93,2.93,0,0,1,.28.36.54.54,0,0,1,.55-.16l.6.12.13-.07v0l.5-.22.11,0h0c.72-.32,1.44-.64,2.16-.93a6.9,6.9,0,0,1,1,.33l-.29-.26c-.19-.18,0-.61-.14-.67a52.91,52.91,0,0,0-8.07-2.49,1,1,0,0,1-1.06-.7c-.09-.4.24-.73.75-.73a18.81,18.81,0,0,1,8.94-.91,34.11,34.11,0,0,1,9,2.53c1.48.35,2.93.78,4.4,1.14l-.21-.24,1.14.47.12,0-.85-.87-.6-.3a88.74,88.74,0,0,1-9.93-3.54c-1.83-.66-3.4-1.66-5.16-2.48-.45-.09-.77-.43-.73-.76s.46-.51.9-.41a41,41,0,0,1,8.93,1.4,23.58,23.58,0,0,1,7.9,3.63,6.75,6.75,0,0,1,2.82,1.08l.05,0-.62-.71c.76.27,1.16.83,1.85,1.14-.07-.28-.16-.59-.23-.87,1.88.52,3.83.88,5.73,1.37a27,27,0,0,1,5.45,1.8l.4.13c.75-.15,1.51-.3,2.3-.38l.6,0h.19l1,.14,1.91.29q3.84.57,7.93,1.26l-5.5-1.08-2.75-.54-2.59-.53,5.8.82,6,.91c4,.72,8.07,1.41,12.27,2.24,5.65,1.22,11.49,2.33,17.16,3.68s11.28,2.57,16.52,3.85c10.47,2.51,19.54,4.89,25.34,6.56,10.77,2.07,21.52,4.07,32.27,5.93,5.37.89,10.75,1.83,16.12,2.61l4,.62,2,.29c.42,0,.84.06,1.25.11a2,2,0,0,0,.45,0h.37a5.83,5.83,0,0,0,.72-.06,4.73,4.73,0,0,0,1.39-.4,2.42,2.42,0,0,0,1.41-2.33,5.13,5.13,0,0,0-1-2.68l-.24-.34a4.08,4.08,0,0,0-.35-.42l-1.09-1.21-1.2-1.17c-.4-.39-.87-.77-1.3-1.14a43.07,43.07,0,0,0-5.87-4.08,59.17,59.17,0,0,0-6.6-3.35,13.72,13.72,0,0,0-1.86-.69l-2-.64-6.54-2.09c-.29-.09-.55-.19-.88-.27l-1.1-.17-2.22-.35-4.42-.7c-1.42-.19-3.12-.55-4.71-.85l-4.85-.92-2.42-.47-2.13-.61-4.25-1.24-2.14-.62-1.06-.31c-.36-.1-.61-.2-.91-.3l-3.53-1.24-2.76-1-1.21-.46a6,6,0,0,1-.7-.38c-.8-.48-1.29-.83-1.3-1s.61.07,1.44.39c.42.16.91.36,1.45.6a11.64,11.64,0,0,0,1.12.4l1.38.47,5,1.71,1.26.43,1.5.43,3,.85,3,.86a26.13,26.13,0,0,0,3.11.78l6.74,1.29c2.32.48,4.3.76,6.36,1.1l3.08.5,1.53.24a3.1,3.1,0,0,1,.67.17l.61.19,8,2.6c.47.15,1,.3,1.41.47l1.23.56c.82.38,1.67.73,2.45,1.15s1.61.81,2.38,1.25l2.3,1.35a37.08,37.08,0,0,1,7.92,6.43l.77.87.4.54a7.65,7.65,0,0,1,.65,1.07,5,5,0,0,1,.62,2.35A2.75,2.75,0,0,1,288,377a4.83,4.83,0,0,1-2.29.87,7.49,7.49,0,0,1-1.25.07,1.42,1.42,0,0,1-.35,0l-.49-.05-1-.08L276.8,377c-3.9-.55-7.82-1.17-11.73-1.8,3.26.56,6.53,1.14,9.8,1.64l4.91.77,2.46.38c.47.08.67.08,1,.11l.83.09a1.19,1.19,0,0,0,.35,0h.83a8.52,8.52,0,0,0,1.12-.12,4.5,4.5,0,0,0,2.07-.85,3,3,0,0,0,1.12-1.9,4.64,4.64,0,0,0-.27-2.24,9.32,9.32,0,0,0-1.09-2.06c-.13-.18-.22-.32-.39-.53l-.68-.79c-.43-.53-.95-1-1.45-1.54a42.34,42.34,0,0,0-7.05-5.51,60.21,60.21,0,0,0-8.28-4.37c-1.71-.62-2.79-1-5.83-2.06l-2-.66-1-.33a5,5,0,0,0-1.06-.3l-4.87-.89-2.5-.45c-.84-.16-1.79-.37-2.69-.55L245,351.93l-1.37-.28c-.45-.09-.82-.23-1.24-.34l-2.43-.72-4.88-1.42c-1.48-.47-2.74-.94-4.11-1.41l-4-1.4-5.28-2.52c-2.12-.93-4.17-1.88-6.07-2.88a11.39,11.39,0,0,1-2.35-1.51c-.69-.51-1.78-1-2.53-1.55l-1-.79c-.17-.13-.3-.26-.5-.39l-.62-.42-1.25-.82-.88-.82-.45-.42-.58-.44-1.16-.87c-.54-.6-1.11-1.17-1.62-1.79-.28-.31-.5-.6-.83-.93l-1-1-.26-.25-.18-.26-.35-.5c-.24-.33-.48-.67-.7-1s-.4-.68-.71-1.09l-.9-1.18-.55-1.21c-.18-.41-.33-.86-.49-1.29s-.28-.92-.42-1.38-.35-1-.53-1.54a2.44,2.44,0,0,1-.13-.8l-.07-.8v-1.71l-.05-.94,0-.46a1.71,1.71,0,0,1,.09-.45,13.84,13.84,0,0,1,.5-1.78,17.53,17.53,0,0,0,.56-1.78c.09-.29.16-.6.25-.89l.49-.79.48-.79.4-.79a5,5,0,0,1,.95-1.5c.4-.45.82-.89,1.2-1.34l1-1.35a5.49,5.49,0,0,1,1.29-1.2c.47-.37.95-.73,1.4-1.11.86-.75,1.67-1.55,2.57-2.25l1.37-1.07a10.87,10.87,0,0,1,1.41-1l3-1.84,3-1.6c1-.53,2-.95,3-1.43l2.91-1.32.72-.33a8,8,0,0,1,.89-.12l1.82-.2.91-.09a3.92,3.92,0,0,0,.73-.26l1.4-.55.71-.28c.27,0,.62,0,.93,0h1.9c.31,0,.64,0,.95,0l.8-.2,1.6-.42.4-.11a1,1,0,0,1,.45-.05l1.07.08,2.14.14a8.14,8.14,0,0,0,2-.12l2-.25a10.73,10.73,0,0,1,1.07-.09l1.14-.06,2.27-.12c1.38,0,2.85,0,4.26,0a17.28,17.28,0,0,0,2.15-.1l2.15-.16a42.47,42.47,0,0,1,4.4-.12h2.22c.24,0,.21-.06.3-.09l.17-.13.36-.26,1.33-.95a7.67,7.67,0,0,1,.91-.53l.11-.06.06,0h0c1.35,2.89-3-6.48,3,6.48v0l0,.09a6.12,6.12,0,0,0,.33.75,7.07,7.07,0,0,0,.44.73c.15.23.38.51.4.57a2.74,2.74,0,0,0,.56.7l.09.09h0l0,.05,0,0,0,0-.07-.05-.28-.18-.26-.12-.07,0-.15-.08-.32-.15a6.21,6.21,0,0,0-.64-.23l-.31-.08a3.15,3.15,0,0,1-.38-.1,10,10,0,0,0-2-.45l-.5,0-.69-.12c-.47-.07-.93-.12-1.39-.15-1-.07-1.69,0-3-.07h-1s-.05-.17-.06-.25a32.8,32.8,0,0,0-1.73-5.33,84.26,84.26,0,0,0-3.62-7.67c-1.4-2.71-3-5.5-4.66-8.36-3.35-5.74-7.12-11.64-11.19-18.2-1.44-2.34-2.88-4.71-4.43-7.41l-.58-1-.49-.89-1-1.79c-.65-1.21-1.31-2.43-2-3.64-2.6-4.91-5.15-10.06-7.42-15.59a106.32,106.32,0,0,1-5.69-17.83,74.8,74.8,0,0,1-1.71-20.4c.16-1.78.33-3.56.56-5.33s.63-3.56,1-5.32a64,64,0,0,1,3.33-10.19,70.26,70.26,0,0,1,10.57-17.1,83.21,83.21,0,0,1,13.62-12.93A110,110,0,0,1,259.31,124c5.33-2.9,10.41-4.78,11.25-4.72s-2.71,2.08-7.94,4.92c-2.55,1.4-5.09,2.9-7.62,4.53s-5,3.35-7.5,5.26a89.1,89.1,0,0,0-7.23,6.18,83.58,83.58,0,0,0-6.67,7.21A68,68,0,0,0,223,165.15a59.68,59.68,0,0,0-3.08,10.53c-.3,1.81-.69,3.63-.81,5.45l-.25,2.73c-.09.91-.06,1.8-.08,2.71a75.42,75.42,0,0,0,2.67,20.58A114.41,114.41,0,0,0,228,225c2.51,5.54,5.23,10.72,7.93,15.67l1,1.85,1.16,2.06,2.26,3.8c1.49,2.46,2.94,4.8,4.38,7.12,2.85,4.61,5.64,9.1,8.21,13.55s4.94,8.84,6.88,13A62.38,62.38,0,0,1,262.2,288a21.26,21.26,0,0,1,1.09,4.31c0,.23,0,.28,0,.42s0,.05,0,0h.26a17.71,17.71,0,0,1,2.15.25,15.24,15.24,0,0,1,1.59.22l.79.2.39.13a1.52,1.52,0,0,0,.27.06,5.65,5.65,0,0,1,1,.33c.16.06.36.17.47.22l.2.08a2.59,2.59,0,0,1,.43.26c.06.05,0,0,0,0l0,0,0,0,0,0s0,0,0,0l-.14-.13a3,3,0,0,1-.44-.53c-.08-.11-.07-.14-.19-.31s-.27-.36-.39-.55a7,7,0,0,1-.58-1.12l-.11-.29c-3.29-7-.93-1.94-1.67-3.51h0l-.05,0-.23.1-.46.21c-.3.15-.58.3-.91.49l-1.23.72-.62.35-.15.09s-.24,0-.35,0h-.79l-3.15,0c-2.08,0-4.07.29-6.1.3s-4.09-.13-5.86,0l-1.38,0c-.46,0-.93,0-1.32.06l-2.48.19a12.76,12.76,0,0,1-2.6-.11l-1.32-.12-.66-.06a2.29,2.29,0,0,0-.55.07,15,15,0,0,1-4.37.44l-1.21,0a2.42,2.42,0,0,0-1.1.09l-1.86.56a8.68,8.68,0,0,1-2.19.31l-1.17.09-.58,0-.29,0L224,292c-1.3.49-2.54.92-3.89,1.49l-2,.8c-.67.29-1.34.64-2,.95s-1.36.61-2,1l-2,1.13a31.44,31.44,0,0,0-3.78,2.52c-1.22.92-2.24,1.91-3.55,2.85s-2.14,2.12-3.25,3.25a7.18,7.18,0,0,0-1.47,1.84l-.56,1-.65,1a5.78,5.78,0,0,0-.78,1.94c-.2.67-.48,1.33-.67,2-.5,1.3-.18,2.82-.23,4.05a15.46,15.46,0,0,0,.2,1.84c.21.58.47,1.23.64,1.74a17.94,17.94,0,0,0,1.21,3,16.68,16.68,0,0,0,1.82,2.63,24.78,24.78,0,0,0,1.77,2.31l1.21,1.11c.38.36.66.69,1,1s.65.67,1,1a6.85,6.85,0,0,0,1.11,1,.14.14,0,0,1,.17-.1,4.41,4.41,0,0,1,1.17.41l.9.43c.33.17.7.37,1,.56a26.19,26.19,0,0,1-2.81-2.15c-.4-.36-.8-.73-1.18-1.12s-.75-.75-1.25-1.18a14.36,14.36,0,0,1-2.33-2.54c-.35-.46-.64-.88-1.08-1.4l-.61-.74a5.59,5.59,0,0,1-.46-.77,18.85,18.85,0,0,1-1.48-3.34l-.37-1a3,3,0,0,1-.28-1l-.14-1,0-1.08,0-1.13a3.22,3.22,0,0,1,0-1.16l.27-1.12.39-1.1a22.81,22.81,0,0,1,.8-2.19c.42-.65.87-1.31,1.24-1.94l.38-.68a2.48,2.48,0,0,1,.43-.64l1.07-1.16c.72-.75,1.26-1.56,2-2.25s1.7-1.28,2.44-1.92,1.51-1.31,2.34-1.88l1.23-.88a9.26,9.26,0,0,1,1.26-.85l2.65-1.53c.88-.52,1.8-.89,2.7-1.34.45-.21.9-.44,1.35-.64l1.35-.54c.9-.36,1.81-.75,2.67-1.05l1.3-.48a3.66,3.66,0,0,1,1.41-.36c1-.1,2.14-.14,3.11-.3l2.56-.74c1,0,2.16,0,3.24,0H235l.35-.06.71-.13,1.42-.25a4.16,4.16,0,0,1,.74-.09l.9.08,1.81.15.9.08a6.26,6.26,0,0,0,.87,0l1.7-.13c1.09-.11,2.41-.12,3.67-.16.65,0,1.25-.05,1.94,0l2.08,0,2.09,0,2.11-.15c1.41-.1,2.81-.2,4.3-.19l2.19,0h1l.06,0,.45-.25,1.77-1a14.19,14.19,0,0,1,1.36-.66l.17-.07.09,0c2.61,5.61.73,1.57,1.32,2.83v0l0,.06,0,.1a7.37,7.37,0,0,0,.38.81c.28.52.79,1.15.85,1.3a2.63,2.63,0,0,0,.3.38c.1.12.32.31.26.26l.1.1a2,2,0,0,0-.61-.34l-.27-.13-.36-.17a7.3,7.3,0,0,0-.71-.23l-.35-.08-.58-.18a9.31,9.31,0,0,0-1.14-.25l-.56-.08-.28,0h-.14l-.2,0-.78-.12-.64-.07c0,.08,0-.25,0-.46s-.05-.4-.06-.59,0-.2,0-.32l-.08-.39-.13-.81-.22-.93-.1-.47-.15-.52-.29-1-.72-2.22a127.24,127.24,0,0,0-5.69-13.27c-2.2-4.51-4.57-9-7-13.57s-4.93-9.1-7.47-14l-1-1.88-1-1.94-1.7-3.62c-1.14-2.44-2.27-4.92-3.37-7.45-1.57-3.14-3.12-6.32-4.53-9.67-.73-1.64-1.37-3.39-2.05-5.07s-1.28-3.48-1.82-5.3a85,85,0,0,1-2.74-11.21l-.42-3-.19-1.47-.11-1.51-.19-3v-3.06a56.13,56.13,0,0,1,5.7-23.86,70.62,70.62,0,0,1,13.67-18.82,12.37,12.37,0,0,1,2.2-1.9c.4-.21,0,.29-.85,1.16A75.18,75.18,0,0,0,234.17,155a60.89,60.89,0,0,0-7,15.08,56.42,56.42,0,0,0-2.31,17,68.83,68.83,0,0,0,2.38,16.45,17.94,17.94,0,0,1,0-4.08c.12-.95.36-1.43.71-1.36.74.12,1.72,2.6,3.14,6.2a66.86,66.86,0,0,1-2.25-14.07,19.37,19.37,0,0,1,.11-3.79c.11-1,.26-1.51.42-1.46s.33.64.43,1.58.13,2.23.26,3.61c.52,9.68,3.43,18.76,7,27.17,1.78,4.22,3.75,8.31,5.8,12.29,1,2,2.07,4,3.12,5.9l.79,1.47.84,1.51,1.69,2.95c5.66,9.08,11.41,17.68,16.39,26.61a119.55,119.55,0,0,1,6.6,13.47,52.7,52.7,0,0,1,2.18,6.7,18.62,18.62,0,0,1,.59,6c.14-.48.37-.9.51-1.38s.27-.93.43-1.35a8.25,8.25,0,0,1,.8-2.1h0a46,46,0,0,0-2.54-8.67,149.23,149.23,0,0,0-10.37-19.15c-3.88-6.29-8-12.46-12.14-18.85-2.06-3.16-4.1-6.61-6-9.87s-3.73-6.71-5.49-10.17-3.38-7.06-4.86-10.75a92.8,92.8,0,0,1-3.66-11.5,64.67,64.67,0,0,1-1.7-12.25,52.74,52.74,0,0,1,1.08-12.57,50.53,50.53,0,0,1,4.17-11.87,60.79,60.79,0,0,1,6.55-10.47,85.16,85.16,0,0,1,17.39-16.62A204.42,204.42,0,0,1,279,124.08a8.73,8.73,0,0,1,2-1,6.6,6.6,0,0,1-1.65,1.13c-8,4.66-16.12,9.53-23.58,15.55a74.17,74.17,0,0,0-19,22l0-.07c.46-.66.67-.72.33.09a30.09,30.09,0,0,1-1.41,2.77c-.5.78-.6.65-.35-.07a50.64,50.64,0,0,0-4.58,27.38,82.49,82.49,0,0,0,7.71,25.82c1.85,4,3.86,7.86,5.95,11.63,1.06,1.88,2.11,3.75,3.19,5.6.52.91,1.08,1.86,1.65,2.8l1.72,2.76c4.6,7.24,9.31,14.15,13.67,21.24-3.86-6.69-8-13.23-12.16-19.95-1-1.68-2.05-3.37-3.05-5.13s-1.92-3.44-2.87-5.19c-1.89-3.46-3.71-7-5.43-10.6a119.65,119.65,0,0,1-4.66-11.1c-.71-1.89-1.29-3.84-1.89-5.78s-1.05-3.94-1.41-6a52.42,52.42,0,0,1,.65-24.58,50.06,50.06,0,0,1,3.49-10.28,10.24,10.24,0,0,1,1.46-2.28c.24-.18,0,.5-.47,1.41s-.86,1.81-1.25,2.74c2.74-5.61,6.14-9,6.57-8.56.4.69-2.22,5.1-4.67,10.73A44.7,44.7,0,0,0,235.75,179a47.24,47.24,0,0,0-.13,12.23,68.91,68.91,0,0,0,2.54,12,104,104,0,0,0,4.36,11.44c.76,1.6,1.56,3.18,2.38,4.74s1.85,3.06,2.79,4.57a135.2,135.2,0,0,1-7.52-17.39,66.92,66.92,0,0,1-3.66-18.29,45.84,45.84,0,0,1,2.91-18.1,57.67,57.67,0,0,1,9.36-15.84c1.32-1.67,2.67-2.9,2.86-2.78s-.79,1.52-2.08,3.18c-6.47,8.57-10.82,18.71-10.71,29.08a51.37,51.37,0,0,0,2.36,15.42,94.62,94.62,0,0,0,6,14.89c2.41,4.88,5.14,9.66,8,14.46,1.45,2.44,2.81,4.69,4.33,7l4.61,7c3.12,4.73,6.25,9.53,9.24,14.49a163,163,0,0,1,8.42,15.53A69.56,69.56,0,0,1,287,284a37.47,37.47,0,0,1,1.72,6.85,24.4,24.4,0,0,1-.27,8.61,18.78,18.78,0,0,1-5.33,9.28,18.44,18.44,0,0,1-2.08,1.74c-.71.48-1.43.94-2.17,1.38a8,8,0,0,1-.93.49l-.82.4-1.67.79c-.56.25-1.14.55-1.68.75l-1.62.54-1.62.55-.41.14-.2.07-.12,0-.48.14c-.64.17-1.27.39-1.9.52l-1.87.33,2,0c.66,0,1.32-.17,2-.25a21.21,21.21,0,0,0,2.34-.53c.92-.25,1.8-.42,2.74-.73s1.92-.72,2.86-1.1l1.42-.57.18-.07.25-.13.49-.26,1-.53a17,17,0,0,0,1.89-1.2c.64-.48,1.26-1,1.86-1.51a14,14,0,0,0,1.69-1.74c.52-.64,1.07-1.27,1.51-1.94a20.94,20.94,0,0,0,2.15-4.21c.25-.7.51-1.43.71-2.13s.29-1.34.41-2l.18-1c0-.32,0-.62.08-.93l.11-1.86c0-1.21-.06-2.27-.12-3.41s-.27-2.06-.42-3.09l-.61-2.84a62.51,62.51,0,0,0-3.47-9.81c-1.32-3-2.76-5.81-4.25-8.5s-3.05-5.27-4.63-7.79c-3.17-5-6.47-9.8-9.77-14.45s-6.66-9.23-9.54-13.61c-3.05-4.7-6-9.37-8.65-14.16a98.39,98.39,0,0,1-6.85-14.79A53.89,53.89,0,0,1,240,185.62a5.22,5.22,0,0,1,0-1.4,1.65,1.65,0,0,1,.21-.69c.15-.11.23.62.24,1.69a52.28,52.28,0,0,0,3,15.15A91.14,91.14,0,0,0,250,214.61c2.57,4.64,5.44,9.2,8.44,13.84l1.12,1.73,1.1,1.63,2.33,3.36,4.92,7a280.15,280.15,0,0,1,15.81,24.49,93.14,93.14,0,0,1,6.51,14.1c.24.63.44,1.35.65,2s.43,1.35.6,2.11l.53,2.2.4,2.4a27.8,27.8,0,0,1-.7,11.66,28.17,28.17,0,0,0,1-11.85,45.22,45.22,0,0,0-2-8.87,87.56,87.56,0,0,0-6.15-14.16,244.32,244.32,0,0,0-14.79-23.64c-2.53-3.69-5.11-7.33-7.46-10.83l-1.69-2.58-1.75-2.78c-1.14-1.84-2.28-3.69-3.37-5.52-4.37-7.36-8.3-14.78-10.68-22.44a11.09,11.09,0,0,1-.54-2,13.89,13.89,0,0,1-.23-1.62,1.66,1.66,0,0,1-.38-.72,39.08,39.08,0,0,1-1.88-12.34,7.27,7.27,0,0,1,.39-2.26C242.35,179.16,242.43,179.68,242.42,180.59ZM119.88,357.32l-.15-.17.52.3.72,1.09Zm-9,3.68h0l-.43-.63C110.61,360.63,110.75,360.83,110.87,361Zm176.06,17.33a9.78,9.78,0,0,1-1.71.24h-.86c-.3,0-.79-.09-1.17-.12l-.63-.05-.88-.13-1.76-.26-3.51-.53c-4.68-.69-9.35-1.5-14-2.28-9.32-1.63-18.6-3.37-27.87-5.28l13.61,2.42c7,1.33,14.07,2.62,21.13,3.82,3.53.63,7.06,1.16,10.59,1.74l2.66.41,1.82.2A9.84,9.84,0,0,0,286.93,378.33ZM113.69,352.81a12.34,12.34,0,0,1,2.12,2.16,6,6,0,0,1,1.7,0c1.55.18,3.06.41,4.54.7-.19-.39.16-.31.34-.34l.56,0L118.16,354A42.13,42.13,0,0,1,113.69,352.81Zm-11.17.95-.14-.16.27-.62S102.59,353.32,102.52,353.76Zm-.41,1.05.23.09C102.27,355.13,102.19,355.05,102.11,354.81Zm2.14.86a1.93,1.93,0,0,0-.31-.35Zm2.28,18.18.64-3.14-.71,3Z"/></g></g></svg>