<svg xmlns="http://www.w3.org/2000/svg" viewBox="0 0 382.43 483.43"><g id="Layer_2" data-name="Layer 2"><g id="Layer_1-2" data-name="Layer 1"><path d="M185.09,170.25l.63-.07c0,.37-.36.68-.81,1a12.82,12.82,0,0,0,6.9-4.51,20.78,20.78,0,0,0,3.72-7c1.29-.86,1.83-2.32,1.19-3.3s-2.27-1.07-3.65-.2a4.61,4.61,0,0,1-1.1.29,24.54,24.54,0,0,0-9.32,2.19l2.18-.41a9.4,9.4,0,0,0-2.61,1.35l.75.24c-3.54.86-6.37,4.18-6.09,7.21s3.37,4.61,6.69,3.66Z"/><path d="M194.18,171.49c-1.8.57-3.59,1.08-5.42,1.62l-.54-.06,1.49,1.2-.07-.1c-.11-2.13,1.26-4.31,2.7-6.16l.43-.75a1.43,1.43,0,0,0-.13-1.19,1.84,1.84,0,0,0-2.59-.26l-1.08.73c-3.12,1.3-6.81,4.76-5.49,8.11.31.76,1.28,1.14,2,1.65a2.67,2.67,0,0,0,3.63-.18,2.46,2.46,0,0,0,.47-3.46l.75-.35-.11.72c-.5-1,.32-2.15.67-3.25l.93-1.25-2.75-1.43-.33.82.36.1a35.13,35.13,0,0,1-1.87,4.66l-.69,2.2a1.27,1.27,0,0,0,1.52,1.19l1.13-.23-.58,0c2-1.06,3.87-2.35,5.89-3.28a.71.71,0,0,0,.46-.79A.56.56,0,0,0,194.18,171.49Z"/><path d="M189.14,176.93a1.68,1.68,0,0,0-1.11.56l0,.3.85-.14C189.52,177.54,189.48,177.18,189.14,176.93Z"/><path d="M188.06,177.79l-.35.06.34.05,0-.05Z"/><path d="M372.14,301.41a105.2,105.2,0,0,1,7,21.55,122,122,0,0,1,2.63,21.69,110.67,110.67,0,0,1-1.43,22.25,86.11,86.11,0,0,1-7.21,22.9l-.67,1.43-.8,1.42L370,395.49l-.83,1.4-.91,1.34c-.62.88-1.21,1.78-1.86,2.64a69.85,69.85,0,0,1-8.89,9.75,63.28,63.28,0,0,1-23.12,13.26,66,66,0,0,1-13,2.73c-1.09.1-2.19.2-3.28.27l-3.29.1c-2.13,0-4.22-.07-6.27-.25a93.64,93.64,0,0,1-22.49-4.83,12.28,12.28,0,0,0-3.49-.89,8.25,8.25,0,0,0,2.87,1.3,96.74,96.74,0,0,0,22.54,5c1,.08,2.07.16,3.11.22l3.17.08c2.19,0,4.42-.1,6.62-.32A67.93,67.93,0,0,0,334,424.64a63.9,63.9,0,0,0,23.42-13.14,66.4,66.4,0,0,0,9.05-9.73c.7-.86,1.29-1.75,1.91-2.64s1.26-1.77,1.79-2.73l1.65-2.85c.52-.95,1.13-1.91,1.54-2.87a84.7,84.7,0,0,0,7.44-23,112.53,112.53,0,0,0,1.58-22.34,122.78,122.78,0,0,0-2.51-21.77,106.51,106.51,0,0,0-6.84-21.64,18.46,18.46,0,0,0-2.15-3.76C370.7,298.13,371.27,299.57,372.14,301.41Z"/><path d="M89.64,346.66c1.06-.34,1-.46-.16-.3a20.08,20.08,0,0,0-3.77.88c-.88.33-.8.48.17.28C87,347.29,88.74,347,89.64,346.66Z"/><path d="M98,334.59l2.59-.53,2.59-.38,5.06-.75,4.91-.47,2.37-.23,2.32-.12a31,31,0,0,1,3.38.05c-.41-.21,1-.49,3.59-.37l4.85.18,4.87.44c1.63.11,3.24.41,4.87.63l2.44.37c.85.15,1.78.38,2.66.57,3.44.81,6.39,1.68,9.44,2.58s6,1.83,9,2.77c12,3.8,23.87,7.9,35.83,12.16s23.94,8.66,35.9,13.21,23.92,9.17,35.8,13.93a6.83,6.83,0,0,1,2.23.29,63.18,63.18,0,0,1,7.27,2.32c2.87,1.07,6,2.36,9.15,3.65,1.55.67,3.09,1.31,4.61,1.9,2.31.87,4.58,1.67,6.81,2.33a65.1,65.1,0,0,0,6.51,1.56,40.9,40.9,0,0,0,6.16.69c1,.06,1.93,0,2.86,0s1.86-.12,2.78-.27a29,29,0,0,0,18.77-10.79c.45-.64.81-1.41,1.26-2.14s.74-1.56,1.16-2.35a23.32,23.32,0,0,0,1.15-2.6l.59-1.38.49-1.51c4.05-13.89,2.68-31.87-2.62-46.71.15,1,.09,1.62-.15,1.69s-.85-.92-1.47-2.23c-.31-.65-.62-1.44-1-2.22s-.72-1.74-1.12-2.57-.78-1.71-1.22-2.49-.83-1.59-1.31-2.3c.34.5.58,1.13.89,1.68a16.68,16.68,0,0,1,.84,1.75l.81,1.82.74,2,.37,1c.12.34.22.71.33,1.06L338,325c.38,1.46.75,2.93,1.07,4.42.18.87.32,1.68.43,2.42a87.59,87.59,0,0,1,1.67,20.54c-.35,7.44-1.73,14.56-4.21,19.9a14.65,14.65,0,0,1-1,1.9,16.34,16.34,0,0,1-1,1.82l-.58.9c-.19.3-.41.56-.61.84s-.4.57-.62.83l-.66.77a27.65,27.65,0,0,1-2.79,2.83,26.64,26.64,0,0,1-3.15,2.26,25.78,25.78,0,0,1-3.46,1.8c-.62.21-1.21.51-1.86.68l-.95.31-1,.24a28.24,28.24,0,0,1-8.42.75,53.51,53.51,0,0,1-10.05-1.57c-3.57-.9-7.29-2.08-11.16-3.48s-7.78-3-12.09-4.68-8.42-3.34-12.63-5c-8.4-3.29-16.82-6.42-25.22-9.52s-16.79-6.13-25.18-9.1-16.82-5.85-25.24-8.7a25.58,25.58,0,0,1-3.76-1.46c-.6-.36-.42-.47.83-.09l31.4,9.63c10.26,3.22,20.44,6.42,30.76,9.79s20.77,6.94,31.64,10.87c2.77,1,5.3,1.91,7.85,2.79s5,1.67,7.43,2.37a66.9,66.9,0,0,0,13.42,2.77c.6.07,1.18.09,1.75.1s1.12,0,1.66,0,1.06-.06,1.58-.08.92-.12,1.38-.15a19.79,19.79,0,0,0,5-1.4,19.48,19.48,0,0,0,7.63-5.89c.24-.36.52-.65.75-1s.49-.73.73-1.1.44-.79.68-1.18.34-.8.54-1.19a22.57,22.57,0,0,0,1.07-2.58,9.88,9.88,0,0,0,.47-1.48c.15-.52.31-1,.47-1.53a59.64,59.64,0,0,0,1.55-14.94,77.73,77.73,0,0,0-2-16.37,67.84,67.84,0,0,0-2.28-7.61l-.66-1.77-.73-1.63-.35-.82-.37-.68-.72-1.38c-.52-.79-.95-1.68-1.49-2.35a25.38,25.38,0,0,0-1.5-2.06,11.69,11.69,0,0,1-.79-.95c-.28-.31-.59-.6-.86-.92s-.64-.61-.94-.94a9.67,9.67,0,0,0-1-.94l-.53-.5c-.19-.17-.42-.33-.62-.49-.43-.33-.8-.68-1.32-1s-.91-.72-1.46-1.07l-1.63-1.1c-2.29-1.5-5.09-3.09-8.22-4.84l-1.22-.71-1.29-.74-1.28-.75-1.05-.63-2-1.25-2.06-1.2c-2.78-1.53-5.62-3-8.59-4.34a103.23,103.23,0,0,0-19.43-6.46c-1.79-.42-3.61-.82-5.53-1.21l-6-1.14c-2.08-.4-4.35-.85-6.84-1.41-.66-.15-1.24-.28-1.94-.47l-1.06-.28-.61-.16-.16,0c-.05,0-.08-.13-.13-.2a.36.36,0,0,0-.07-.1l-.08,0-.16-.05c-.86-.28-1.73-.52-2.58-.82s-1.66-.67-2.46-1.05-1.54-.88-2.35-1.25l-1.21-.55a2.93,2.93,0,0,1-.58-.31l-.5-.44-1-.88c-.32-.3-.6-.64-.91-.95a19,19,0,0,1-1.68-2c-.52-.72-1.09-1.33-1.64-2l-.21-.25c-.05-.09-.09-.2-.14-.29l-.27-.6-.56-1.19c-.33-.81-.59-1.64-.89-2.47a11.18,11.18,0,0,1-.4-1.24l-.18-.63c0-.21-.05-.45-.08-.68-.11-.91-.21-1.82-.28-2.72l-.12-1.35a7.66,7.66,0,0,1-.06-1.36l.13-2.79a4,4,0,0,1,.28-1.39l.41-1.39c.59-1.87,1-3.64,1.48-5.45,0-.24.4-.39.43-.59l.23-.59.21-.49.18-.43c.24-.58.49-1.14.76-1.68a58.21,58.21,0,0,1,7.65-12c.72-.93,1.57-1.82,2.37-2.71s1.71-1.75,2.7-2.61a32,32,0,0,1,3.14-2.46,26.88,26.88,0,0,1,3.59-2.16l.93-.5,1-.41,2-.8c.67-.27,1.38-.39,2.06-.6a21,21,0,0,1,2.06-.48c1.34-.22,2.73-.48,3.95-.55.62-.05,1.3-.14,1.87-.17l1.74-.1,1.62-.11c.5,0,1.08-.07,1.53-.12a26,26,0,0,0,2.59-.39,7.52,7.52,0,0,0,1.09-.28l.89-.34a2.71,2.71,0,0,0,.7-.43c.19-.16.45-.24.56-.44a3.49,3.49,0,0,0,.63-1l.2-.47.17-.59c.11-.27.24-.84.37-1.25s.26-.95.4-1.46a56.61,56.61,0,0,0,1.46-7.27,21.49,21.49,0,0,0-.08-7.14,10.27,10.27,0,0,0-.9-2.62,8.31,8.31,0,0,0-1.29-1.72,13.69,13.69,0,0,0-2.28-1.79,25.85,25.85,0,0,0-3.18-1.74,40.75,40.75,0,0,0-9.14-2.94,22.61,22.61,0,0,0-4.78-.55,13.81,13.81,0,0,0-3.08.56,21.92,21.92,0,0,0-2.79,1.2,31.89,31.89,0,0,0-2.92,1.76c-.24.15-.52.38-.77.55a9.31,9.31,0,0,0-.79.58l-.81.61-.13.13-.36.37c-.24.25-.48.48-.73.75l-.74.76-.75.81c-1,1.08-2.06,2.17-3.12,3.38s-2.14,2.44-3.22,3.79c-1.32,2.32-4.45,2.44-7.17.11a7.93,7.93,0,0,1-2.73-5.42l-.52.52-1.06.57a4.57,4.57,0,0,1-3.54.23l-1.64-.43c-2.81-1.17-5.86-1.39-8.81-2.7l-.71-1-.41,0a6,6,0,0,1-3.37-.95l-1-1a13.3,13.3,0,0,1-2.55-4.05,4.85,4.85,0,0,1-1.12-1.36,6.74,6.74,0,0,1-3.73-2.84.94.94,0,0,1-.94-1,1,1,0,0,1,.22-.53h0a10.23,10.23,0,0,0-1.05-.21c-.36.2-.58.3-.58.3l-1.68,1.06a5.61,5.61,0,0,1-1.76.12c-2.54-1-2.55-1-3.3-1.86a2.19,2.19,0,0,1-.12-.33l-1,.36a2.87,2.87,0,0,1-.55,0c-.48-.36-.48-.36-.73-.41a2.21,2.21,0,0,1-.37-.27c-.24-.72-.24-.72-.37-.85a1.39,1.39,0,0,1-.1-.37l.27-.74,1.88.28-.25-.51.69.3-.58-.33.65-.11-.83,0A5.37,5.37,0,0,0,191,176.5a2.05,2.05,0,0,0,.63-.75,2.07,2.07,0,0,1-.28-.2c1.1-.75,1.1-.74,2.2-1.43a3.79,3.79,0,0,1,.52.08.6.6,0,0,1,.28-.57l.56-.38,0-.15,0,0,.2-.58,0-.13h0c.14-.4.33-1,.89-2.53a11.2,11.2,0,0,1,1-.52,3.23,3.23,0,0,1-.44,0c-.3,0-.54-.52-.66-.48a38.58,38.58,0,0,0-8.23,4.49,1.1,1.1,0,0,1-1.36.32.82.82,0,0,1-.08-1.26c2.2-6.44,8.75-11.3,15.56-13.37,1.59-.79,3.16-1.61,4.77-2.39l-.37-.08,1.38-.43.13-.06-1.43-.19-.78.17c-3.65,1.95-7.6,3-11.4,4.72-2,.92-4.11,1.4-6.18,2.21a.89.89,0,0,1-1.22-.05.86.86,0,0,1,.37-1.13,34.54,34.54,0,0,1,8.5-6.45,24.42,24.42,0,0,1,10-3,7.65,7.65,0,0,1,3.51-1.11l.06,0-1.13-.25c.93-.33,1.76,0,2.66-.25l-.88-.72c1.12-.46,2.24-.95,3.38-1.45s2.28-1,3.45-1.45a24.49,24.49,0,0,1,7.17-1.78,4.82,4.82,0,0,1,.52-.11,19.91,19.91,0,0,1,2.46-1.92c.22-.15.45-.29.68-.43l.09-.05,0,0h0l.09,0c.54-.2,1.12-.37,1.67-.56,1.13-.36,2.25-.74,3.45-1a66.76,66.76,0,0,1,15.31-2.39,68.79,68.79,0,0,0-10.86,1.07c-1.78.29-3.48.69-5.2,1.1-.87.19-1.68.44-2.53.67l-1.27.36-.62.19-.26.08h0l0,0,.29-.1c.21-.09.44-.16.66-.23l1.34-.44c.9-.29,1.77-.59,2.71-.83l2.76-.75,2.85-.61a63.74,63.74,0,0,1,11.94-1.29A58.64,58.64,0,0,1,262.39,139a63.34,63.34,0,0,1,6.18,1.53c2,.69,4.08,1.38,5.83,2.16a78.74,78.74,0,0,1,13.54,7.58,68.06,68.06,0,0,1,12.19,10.77,51,51,0,0,1,9.24,14.77,42.94,42.94,0,0,1,3.07,16.9,47,47,0,0,1-2.64,14.38,48,48,0,0,1-5.49,11.24,41.52,41.52,0,0,1-7.34,8.34c-.64.59-1.39,1.12-2.05,1.63s-1.46,1-2.16,1.43a20.47,20.47,0,0,1-2.12,1.23c-.75.36-1.48.69-2.18,1l-.93.45-1,.35c-.67.23-1.34.45-2,.65a20.69,20.69,0,0,1-2.05.42c-.67.09-1.37.25-2,.28a28.58,28.58,0,0,1-3.8,0c-.59,0-1.21,0-1.77-.11l-1.63-.2c-.56-.06-1.06-.13-1.55-.22l-1.47-.22c-.88-.13-1.85-.29-2.65-.36l-1.23-.12c-.41,0-.76,0-1.14,0a14.33,14.33,0,0,0-2.12.12c-2.65.3-4.66,1.75-6.64,3.84a30.69,30.69,0,0,0-5,7.91c-.36.72-.63,1.48-.93,2.22s-.53,1.51-.74,2.26a21,21,0,0,0-.56,2.24,2.61,2.61,0,0,1-.06.26l0,.16c-.05.12,0,.18-.07.27l-.12.49a6.62,6.62,0,0,0,.14,4,3,3,0,0,0,1.38,1.42,3.58,3.58,0,0,0,.94.36,2.7,2.7,0,0,0,.49.12,2.18,2.18,0,0,0,.6.07c1.29,0,2.83-.13,4.54-.32l5.35-.61a182.06,182.06,0,0,1,24.25-1.76,119.59,119.59,0,0,1,12.89.76c2.17.24,4.33.55,6.49.91s4.31.81,6.44,1.32,4.26,1.07,6.39,1.66c1.87.52,3.68,1,5.63,1.63a122.65,122.65,0,0,1,12.16,4.38,76.14,76.14,0,0,1,13,7.09,68.67,68.67,0,0,1,12.08,10.57,49.65,49.65,0,0,1,3.66,4.76,13.88,13.88,0,0,1,1.5,2.85c0,.27-.47-.15-1.26-1.08-.39-.47-.86-1-1.4-1.74l-1.93-2.29a65.76,65.76,0,0,0-8.11-8.07c-1.47-1.18-3-2.33-4.49-3.4s-3.06-2.07-4.61-2.92L342.67,271l-2.31-1.17c-1.56-.81-3.06-1.42-4.59-2.11-3-1.25-6-2.35-8.8-3.25l-2.13-.68-2.06-.61c-1.39-.42-2.68-.78-4-1.16l-4.49-1.23-4.59-1.06a116.89,116.89,0,0,0-18.51-2.36,142,142,0,0,0-18.05.35c-5.82.45-11.48,1.23-16.44,1.67-.62.06-1.22.11-1.79.14s-1.13.05-1.67.07c-.28,0-.53,0-.76,0a4.64,4.64,0,0,1-.6,0,8.45,8.45,0,0,1-.84-.19,3.94,3.94,0,0,1-2.71-2,4.23,4.23,0,0,1-.44-1.69,3.07,3.07,0,0,1-.07-.86,6.55,6.55,0,0,1,0-.88,10.3,10.3,0,0,1,.31-1.73c.07-.32.12-.48.26-1a14.41,14.41,0,0,1,.42-1.66,14.1,14.1,0,0,0-.37,1.38c-.1.53-.24.8-.27,1a14.11,14.11,0,0,0-.35,1.46,10.59,10.59,0,0,0-.15,1.49v.38l.06.37c0,.11,0,.25,0,.38a2.5,2.5,0,0,0,.06.38,3.88,3.88,0,0,0,1.51,2.54,4.37,4.37,0,0,0,.65.4c.24.08.46.22.7.28a6.25,6.25,0,0,0,.74.21l.37.1c.15,0,.26,0,.48,0,1.66,0,3.7-.07,5.84-.24l6.74-.58c4.66-.43,9.59-.77,14.6-.86a116.76,116.76,0,0,1,30.8,3.41c1.27.34,2.57.64,3.83,1l3.77,1.15c2.24.7,4.52,1.45,6.89,2.26a102.31,102.31,0,0,1,14.87,6.38,66.68,66.68,0,0,1,15.29,10.88,58.24,58.24,0,0,1,11.3,15.23c1,1.71,1.74,3.44,2.59,5.17s1.43,3.4,2.14,5.11,1.19,3.4,1.78,5.1,1,3.39,1.49,5.09a116.61,116.61,0,0,1,3.52,20.47c1.09,13.71.21,27.78-4.91,42.15-.33.9-.61,1.79-1,2.68l-1.19,2.68c-.4.89-.79,1.78-1.22,2.67l-1.47,2.65-1.51,2.63-1.67,2.49c-.55.83-1.16,1.64-1.78,2.44s-1.22,1.61-1.9,2.38a64,64,0,0,1-8.85,8.64,60.44,60.44,0,0,1-10.57,6.76,62.13,62.13,0,0,1-24.18,6.46c-1,0-2.1.1-3.14.12l-3,0c-2-.08-4-.2-5.94-.42a92.52,92.52,0,0,1-11.29-2,130.28,130.28,0,0,1-17-5.46c-5.17-2-10.05-4.18-14.47-6.06-9-3.9-18-7.58-26.93-11.33s-17.93-7.39-27.07-11-18.41-7.42-28-11.15l-20-7.72-9.78-3.67-4.82-1.76L141.38,362l-2.19-.71c-.68-.22-1.57-.54-1.95-.63l-.73-.21a4.91,4.91,0,0,0-.83-.23l-2.13-.45-2.14-.46-2.14-.34c-1.43-.22-2.86-.49-4.3-.59s-2.88-.34-4.33-.41l-4.35-.19c-1.45,0-2.92.05-4.38,0l-2.19,0-2.2.16a120.39,120.39,0,0,0-17.74,2.56l-4.46,1.13c-1.49.38-3,.71-4.46,1.22l-4.47,1.4c-.74.24-1.5.44-2.24.72l-2.22.84C69,367,66,368,63,369.41s-6,2.49-8.9,4c-6,2.76-11.83,6-17.79,9.38-3.1,1.9-6.15,3.66-8.58,4.93a25.12,25.12,0,0,1-4.61,2.3c-.51.06.29-.73,2-2.07.43-.33.9-.71,1.43-1.09l1.77-1.18c1.27-.84,2.71-1.77,4.27-2.75a225,225,0,0,1,37.59-19.22,144.39,144.39,0,0,1,19.45-6.13,122.85,122.85,0,0,1,19.6-2.9,103.29,103.29,0,0,1,19.36.81c1.59.26,3.19.42,4.77.8l2.37.49c.38.08.82.16,1.15.24l.88.27.88.24,1.18.38,2.38.77,5,1.75c6.83,2.45,13.77,5.09,20.69,7.76s13.89,5.39,20.84,8.16q20.83,8.34,41.73,17l20.87,8.82,10.43,4.49,10.63,4.63a140.57,140.57,0,0,0,24.37,8.35,81.28,81.28,0,0,0,14.2,2c1.24,0,2.48.06,3.74.06s2.58-.06,3.87-.18a57.71,57.71,0,0,0,7.71-1.1,59.1,59.1,0,0,0,14.8-5.19,58.1,58.1,0,0,0,13-9,61.45,61.45,0,0,0,10-11.91c.71-1.07,1.32-2.22,2-3.34a37.37,37.37,0,0,0,1.81-3.41,66.18,66.18,0,0,0,2.9-6.93,89.24,89.24,0,0,0,4.9-23.82,114.12,114.12,0,0,0-.72-23.05c-.08.21-.16.4-.28.42-.46.05-1-1.33-1.74-3.65a109.56,109.56,0,0,1,1.1,25.76,86.83,86.83,0,0,1-6,26.31l-2,4.57c-.7,1.52-1.58,3-2.38,4.51s-1.79,2.88-2.7,4.32-2,2.77-3.12,4.08a60.49,60.49,0,0,1-7.34,7.42,56.86,56.86,0,0,1-28.68,12.73,63.94,63.94,0,0,1-10.46.58,78.67,78.67,0,0,1-10-1c-12.94-2.19-24-7-34.19-11.55l-30.32-13.49-40.68-18.2C183,370.68,170.08,365,157,359.47c-4.2-1.57-8.4-3.09-12.53-4.49-1-.38-2-.66-3-1l-1.5-.48-1.24-.35c-.43-.11-.78-.24-1.27-.34l-1.51-.31-3-.61a101.33,101.33,0,0,0-24.5-1.29c-2.06.2-4.13.34-6.19.57l-6.19.93c-4.1.84-8.23,1.65-12.3,2.87l-3.08.84c-1,.29-2,.67-3,1-2,.71-4.06,1.34-6.08,2.09-4,1.66-8.06,3.09-12,5a19.8,19.8,0,0,1-3.11,1.27c-.5.11.13-.3,1.4-.92a153.52,153.52,0,0,1,33.78-12.38c1.47-.32,2.92-.73,4.39-1l4.43-.74c.74-.11,1.47-.26,2.21-.36l2.23-.22,4.46-.46a115.89,115.89,0,0,1,17.87.27c-3.7-.79-5.93-1.59-5.6-2.13.17-.32,1-.52,2.37-.66.69-.06,1.51-.11,2.45-.14.47,0,1,0,1.49,0l1.65.1c-.69-.1-1.38-.24-2.07-.31l-2.09-.2c-1.39-.11-2.78-.31-4.18-.36-2.79-.08-5.59-.29-8.4-.15-1.73,0-3.29,0-4.4,0s-1.79-.07-1.75-.23.72-.36,1.84-.56a36.87,36.87,0,0,1,4.31-.29c2.89-.16,5.78.05,8.66.12,1.44.08,2.87.26,4.31.38l2.15.2,2.13.32c1.42.24,2.86.39,4.27.69l4.22.88c.71.14,1.3.36,2,.53l1,.27,1,.34c1.38.46,2.75.87,4.15,1.39,11.2,3.93,22.42,8.37,33.58,12.8q40.44,15.48,80.32,32.39c-3.48-2.05-6-3.77-7-4.95a0,0,0,0,1,0,0l-12.35-5.23q-28.54-11.26-57.56-22.24c-9.67-3.63-19.37-7.26-29.11-10.68L151,350.35l-3.65-1.22c-1.22-.42-2.43-.8-3.63-1.17l-1.8-.56-1.71-.45c-1.08-.33-2.36-.53-3.58-.77s-2.44-.52-3.68-.67c-2.48-.32-4.94-.74-7.44-.88a113.26,113.26,0,0,0-30,1.54,147.45,147.45,0,0,0-29.19,8.76l-3.56,1.46-1.78.74-1.74.84-7,3.33c-2.29,1.17-4.55,2.45-6.83,3.66L42,366.81l-3.33,2-6.66,4-6.5,4.34c-4.39,2.8-8.52,6-12.77,9.06a14.13,14.13,0,0,1-2.54,1.66,10.2,10.2,0,0,1,2.08-1.74l7.64-5.61c1.25-1,2.6-1.79,3.9-2.68l3.92-2.63,3.92-2.64,4-2.44,4-2.44,2-1.23,2.07-1.12a183.51,183.51,0,0,1,34-15.21l-.1,0c-1,.26-1.19.18-.18-.26a20.35,20.35,0,0,1,3.71-1.11c1.13-.23,1.07-.06.2.27a126.37,126.37,0,0,1,33.69-5.36A108.55,108.55,0,0,1,132,344.88c.69.1,1.4.17,2.09.3l2.08.4,2.08.4c.35.07.71.12,1,.2l1,.26c.65.18,1.27.32,1.95.53l2,.63c1.35.41,2.72.87,4.1,1.33,11,3.68,21.93,7.78,32.82,11.83s21.72,8.24,32.52,12.4c-19.92-8.08-39.91-16.05-60-23.4-2.51-.94-5-1.78-7.54-2.66l-3.76-1.21c-.62-.19-1.21-.34-1.82-.51s-1.2-.34-1.85-.46l-3.85-.78c-1.28-.28-2.58-.4-3.87-.62-2.58-.45-5.19-.62-7.8-.86a114.56,114.56,0,0,0-31.32,2.16l-3.34.87c-1.11.3-2.23.54-3.32.93l-6.62,2.14a28.21,28.21,0,0,1-3.31.95c-.37,0,.46-.41,1.69-.88s2.45-.82,3.68-1.24c-7.68,2.26-13.63,4.1-13.74,3.5.08-.4,1.66-1.43,4.29-2.55,1.31-.58,2.86-1.23,4.59-1.91l1.32-.51,1.41-.45,3-.88a125.47,125.47,0,0,1,33.4-5.44c1.41-.07,2.83,0,4.24,0s2.83,0,4.24.15l4.23.33c1.41.08,2.8.36,4.2.52,2.82.32,5.58.94,8.36,1.46,2.76.69,5.45,1.55,8.13,2.44,2.33.74,4.66,1.47,7,2.27s4.71,1.42,7.05,2.15q-3.08-1.17-6.17-2.3c-2.06-.76-4.12-1.51-6.2-2.23s-4.17-1.42-6.27-2.1c-1.06-.32-2.15-.6-3.23-.91l-3.25-.67a109.72,109.72,0,0,0-26.39-2,131.06,131.06,0,0,0-26.14,3.95l-6.35,1.82-1.59.46-1.55.55L72,346.35c-4.19,1.36-8.2,3.18-12.25,4.86-1.4.57-2.64,1.21-3.59,1.59s-1.59.6-1.66.51,1.92-1.48,4.68-2.75l5.31-2.4,2.67-1.2c.89-.38,1.81-.71,2.72-1.07l5.47-2.1c1.83-.69,3.72-1.21,5.59-1.83,3.71-1.29,7.55-2.13,11.37-3.1,1.93-.44,3.88-.75,5.82-1.13,1-.17,1.94-.37,2.92-.52l3-.36c3.93-.57,7.91-.76,11.89-1l6,0c2,.06,4,.23,6,.35a114,114,0,0,1,11.91,1.63,30.86,30.86,0,0,1,3,.66l1.53.39,1.43.43,2.87.85,2.8.9c14.89,4.87,29.47,10.24,44.07,15.74s29.12,11.2,43.61,17c9.75,3.3,19.47,6.7,29.25,10.16,4.88,1.74,9.84,3.56,14.56,5.19a145.08,145.08,0,0,0,14,4.11c-2.25-.72-4.56-1.54-6.89-2.4-3.71-1.39-7.43-2.93-11.18-4.53l-11.46-4.83c-7.61-3.13-15.13-6.16-22.61-9-14.95-5.77-29.64-11.18-44.36-16.35S171.15,346,156,341.18c-3.79-1.2-7.61-2.37-11.61-3.46l-3.24-.76-3.08-.51c-1-.17-2.05-.36-3.08-.5l-3.12-.35a121.14,121.14,0,0,0-25.26-.08,13.66,13.66,0,0,1-3.35.17c-.19-.11,1-.36,2.67-.56a122.59,122.59,0,0,1,24.66-.27l3,.33c1,.1,2,.21,3,.39l3,.48,1.5.24c.51.09,1.06.24,1.58.35,4.25,1,7.8,2.12,11.58,3.25,14.8,4.61,29.29,9.53,44.33,14.89,12.46,4.42,24.56,8.87,36.44,13.29s23.51,8.81,35,13.2c-11.6-4.89-23.14-9.51-34.68-14s-23-8.77-34.59-12.94-23.09-8.29-34.82-12.21c-5.86-2-11.73-3.9-17.88-5.73-1.57-.45-3-.9-4.89-1.32l-1.32-.31c-.45-.11-.83-.15-1.24-.23l-2.44-.41-2.44-.41-2.46-.29c-1.64-.17-3.27-.42-4.92-.51-2.31-.1-4.63-.35-6.09-.56a4.58,4.58,0,0,1-1.31.17l-5,.2c-1.71.1-3.44.3-5.2.45l-2.64.24-2.65.39c-1.77.26-3.56.5-5.35.79a22.17,22.17,0,0,1-3.83.54C95.63,335.2,96.44,334.93,98,334.59ZM208.17,168.2l-.26,0,.67-.09,1.47.53Zm-4,10h0l-.87-.24Zm55.06,82c-1.55.12-3.1.25-4.5.29a14,14,0,0,1-3.5-.12,6.33,6.33,0,0,1-2.18-.86,4,4,0,0,1-1.47-1.8,8.24,8.24,0,0,1-.21-4.64c.06-.38.17-.76.27-1.14a5.82,5.82,0,0,1,.17-.6c.08-.26.16-.64.23-1,.18-.66.41-1.33.6-2l.74-2a36.94,36.94,0,0,1,4.1-7.49,18.27,18.27,0,0,1,5.49-5.38,12.08,12.08,0,0,1,7.1-1.45c2.79.14,6,.93,10,1.2-3.9-.23-7-.95-9.79-1.08a12.06,12.06,0,0,0-6.91,1.31,13.1,13.1,0,0,0-2.19,1.59l-1.05.94-1,1.09a33.25,33.25,0,0,0-3.56,5.24,36.36,36.36,0,0,0-2.62,5.89,29.1,29.1,0,0,0-.87,3c-.14.42-.18.63-.26.92a7.58,7.58,0,0,0-.21.82,9.63,9.63,0,0,0-.18,3.43,4.25,4.25,0,0,0,1.69,2.94,5.08,5.08,0,0,0,1.57.76,8.06,8.06,0,0,0,.84.24,4.79,4.79,0,0,0,.48.08l.68,0C254.62,260.54,256.89,260.41,259.26,260.25ZM199.5,168.72A12.51,12.51,0,0,1,203,169a5.34,5.34,0,0,1,1.32-1.32,40.88,40.88,0,0,1,4.33-2.69c-.47-.23-.11-.42,0-.59l.44-.45-5,2.4C202.57,167.12,201.06,168.1,199.5,168.72Zm-7.63,9.72h-.24l-.33-.73Zm.59,1.21.25-.11C192.86,179.78,192.73,179.78,192.46,179.65Zm2.29-1a1.77,1.77,0,0,0-.53,0Zm17.09,13.62-2.21-3.08,2.05,3Z"/><path d="M25.72,7.78v.51c-.3,0-.54-.16-.74-.49a6.24,6.24,0,0,0,3.44,4.83,10.71,10.71,0,0,0,6,.78,1.83,1.83,0,0,0,2.74-.31,2.36,2.36,0,0,0,.05-3A2.56,2.56,0,0,1,37,9.28a16.85,16.85,0,0,0-1.52-6.62c.07.52.15,1.06.22,1.58a5.05,5.05,0,0,0-.93-1.63l-.26.68a3.64,3.64,0,0,0-5.11-3,5.9,5.9,0,0,0-3.81,6.29Z"/><path d="M24.21,15.92c-.48-1.47-.86-2.95-1.2-4.43l.08-.48L22,12.53l.09-.08c1.86-.48,3.64.25,5.2,1l.64.16a1.59,1.59,0,0,0,1-.47,1.67,1.67,0,0,0,.23-2.23c-.2-.23-.38-.49-.57-.73-1-2.32-3.42-4.6-6.43-2.95a6.46,6.46,0,0,0-1.64,2,2.23,2.23,0,0,0-.14,3.11,2,2,0,0,0,3-.21l.27.58-.62.06c.92-.64,1.84-.16,2.77-.11l1,.51,1.31-2.72-.67-.09a2.93,2.93,0,0,1-.11.33,16.52,16.52,0,0,1-3.84-.59l-1.85-.19A1.52,1.52,0,0,0,20.5,11.4l.12.95v-.5c.79,1.57,1.84,3,2.63,4.59a.48.48,0,0,0,.69.25A.63.63,0,0,0,24.21,15.92Z"/><path d="M19.64,12.48a1.11,1.11,0,0,0-.41-.89l-.27.07.07.72C19.07,12.9,19.4,12.81,19.64,12.48Z"/><path d="M19,11.66l0-.3-.07.31h0Z"/><path d="M146.18,53.64c1,0,1.92.11,2.89.12h8.72l5.83-.27,2.92-.13,2.92-.27,5.85-.53,5.83-.77,2.93-.4c1-.14,1.93-.33,2.91-.49l5.82-1c.53-.09.93-.28.93-.41s-.43-.11-.91,0l-5.82,1-2.9.5-2.91.39-5.82.76-5.82.52-2.91.26-2.91.13-5.8.26c-1.94,0-3.87,0-5.8,0s-3.86,0-5.77-.12c-.52,0-.94.08-1,.21S145.7,53.61,146.18,53.64Z"/><path d="M264.17,33.93c-.31.25-.24.34.15.2a4.39,4.39,0,0,0,1.2-.65c.26-.22.19-.32-.15-.21A4.29,4.29,0,0,0,264.17,33.93Z"/><path d="M264.89,42.63,262,44.57c-.94.61-1.83,1.21-2.66,1.81a4.51,4.51,0,0,1-1,.52c.2.09-.13.44-.86.91C243.17,57.12,226.37,65,209.2,71.4a1.63,1.63,0,0,1-.62.66,19.8,19.8,0,0,1-6,2.48l-1.95.46c-2,.5-3.94.9-5.9,1.35s-3.93.92-5.92,1.27l-5.95,1.09-3,.52-3,.41a47.7,47.7,0,0,1-5.49,1.42c-3.4.89-6.85,1.62-10.32,2.42s-7,1.29-10.63,1.9c.47.1.75.26.75.46s-.49.5-1.17.7a13.06,13.06,0,0,1-2.58.37l-3,.2c2.86-.06,5.73,0,8.56-.24a11.28,11.28,0,0,1,1.14,0c3.11-.31,6.26-.56,9.42-1.11A213.52,213.52,0,0,0,203,75.83a263.27,263.27,0,0,0,35.42-15.57,4.39,4.39,0,0,1,1.31-.56c.26,0,.27.12-.13.36-1.71,1.08-3.42,2.08-5.12,3.07l-5.06,3C226,68.08,222.59,70,219.1,71.88a170.88,170.88,0,0,1-23.35,10.37,242.36,242.36,0,0,1-67,13.81A335.58,335.58,0,0,1,92.31,94.2a240,240,0,0,1-36.92-6.71c-2.15-.49-4.24-1.2-6.35-1.81l-6.31-1.94-6.19-2.23c-2.06-.76-4.14-1.46-6.14-2.35l-1.52-.64-.75-.32-.29-.1-1-.39-2.06-.78c-1.36-.53-2.73-1-4.05-1.66-2.66-1.21-5.29-2.46-7.92-3.75S7.62,68.7,5,67.25a8.39,8.39,0,0,1-4.4-4.2,6,6,0,0,1,0-5.28,6.49,6.49,0,0,1,5.34-3.31l-.83-.62L4,52.57a6.07,6.07,0,0,1-1.5-4.15V46.55c.54-3.19.21-6.62,1.22-9.75l.94-.74v-.44A5.49,5.49,0,0,1,5.3,32.1l1-1a14.47,14.47,0,0,1,3.91-2.72,5,5,0,0,1,1.28-1.2,7,7,0,0,1,2.6-3.86,1,1,0,0,1,1-1,1,1,0,0,1,.51.14h0c.09-.41.11-.53.18-1-.18-.31-.27-.51-.27-.51-.53-.77-.53-.77-1-1.45a4.61,4.61,0,0,1-.06-1.6c1.08-2.42,1.09-2.41,1.88-3.18l.3-.15a7.65,7.65,0,0,1-.25-.88,2.13,2.13,0,0,1,.07-.5c.36-.46.36-.46.43-.69a2.66,2.66,0,0,1,.27-.35c.66-.29.66-.29.79-.43a1.6,1.6,0,0,1,.34-.13l.64.14-.39,1.68.47-.29-.31.66.33-.56.06.56V13c.56.79.57.79.87,1a1.29,1.29,0,0,0,.64.43c.1-.17.18-.28.18-.28.61.85.61.85,1.19,1.7a3.41,3.41,0,0,1-.09.48.41.41,0,0,1,.5.14l.33.42h.13l0,0,.52.05h.11c.35,0,.85.1,2.24.16a5.84,5.84,0,0,1,.5.76,2.34,2.34,0,0,1,0-.38c0-.26.44-.61.4-.7a14.45,14.45,0,0,0-.82-1.62c-.27-.54-.58-1.06-.89-1.56-.63-1-1.31-2-2-3a.85.85,0,0,1,.91-1.41c5.23.72,9.1,4.4,11.53,9.17.84.95,1.72,1.87,2.61,2.79v-.33l.56.91a.6.6,0,0,0,.08.08l-.07-1.26c-.08-.18-.16-.36-.25-.54a17.26,17.26,0,0,1-2.68-3.45c-.76-1.28-1.4-2.66-2.17-3.91A33,33,0,0,1,31.6,8.32a.75.75,0,0,1,.08-1,.63.63,0,0,1,.92,0,18.75,18.75,0,0,1,5.3,4.51,15.35,15.35,0,0,1,3.37,6.45,3.87,3.87,0,0,1,1.42,2.15l0,0v-1c.4.56.35,1.29.69,1.86l.4-1.07c1.13,1.14,2.46,2.11,3.7,3.16A19,19,0,0,1,49.3,25,11.68,11.68,0,0,1,50.86,27a3.07,3.07,0,0,1,.25.26,14.26,14.26,0,0,1,2.17,0,5.15,5.15,0,0,1,.53.07l.14,0,.35.15.71.32c1,.43,1.89,1,2.92,1.43-.66-.39-1.28-.82-1.9-1.25L54.2,26.73c.66.24,1.48.6,2.2.91s1.49.65,2.26.95c1.52.64,3,1.34,4.56,2.17,8.36,4.32,17.78,9.72,22,13.8A204,204,0,0,0,113,51a200.66,200.66,0,0,0,28.55,2.18,3.05,3.05,0,0,1,2,.45c.11.26-.54.5-1.53.53s-1.72.1-2.58.12h-7.78c-1.73,0-3.47-.15-5.2-.22s-3.48-.15-5.22-.31a189.21,189.21,0,0,1-20.74-2.94,167.34,167.34,0,0,0,35.19,5.94c1.55,0,3.1.12,4.66.1s3.07.06,4.6.18a187.72,187.72,0,0,0,46.12-5.14,240.28,240.28,0,0,0,37.41-12.44c8.86-3.79,17.13-7.86,25.29-12.12s16.07-8.9,24.29-13.85c2.13-1.39,4.32-2.38,4.84-2.17s-.82,1.54-3,3q-12.52,8.37-25.67,15.58a287.16,287.16,0,0,1-27.14,12.8,223.21,223.21,0,0,1-28.71,9.57,193.58,193.58,0,0,1-30.27,5.49c-2.23.26-4.45.35-6.64.53l-3.29.24c-1.09.06-2.18.07-3.27.11a.58.58,0,0,1,.13.26c0,.36-.37.7-1,1l3.75-.08,3.76-.21,3.77-.2,1.9-.1,1.89-.17c13.89-2.36,27.54-5.78,42.11-9.7,10-2.75,19.08-5.4,28.24-8.62A311.09,311.09,0,0,0,272,23.31a3.14,3.14,0,0,1,1.08-.52c.2,0,0,.2-.39.49-1.77,1.2-3.58,2.36-5.39,3.54l-2.73,1.78-2.79,1.68-5.65,3.37-5.8,3.19c1.4-.32,2.33-.32,2.44.13s-.67,1.31-2,2.32l5.45-2.67c1.13-.53,2.09-.83,2.16-.62s-.7.85-1.78,1.37c-3.71,1.84-7.4,3.72-11.18,5.38-1.89.83-3.75,1.74-5.66,2.52L234,47.63a267.6,267.6,0,0,1-27.8,10.43,6.82,6.82,0,0,1,3.12.38h0l4.41-1.39a373,373,0,0,0,76-39.68c.47-.32.9-.52,1-.44s-.25.38-.68.66c-3.67,2.41-7.27,4.9-11,7.17-1.87,1.15-3.67,2.38-5.57,3.46l-5.62,3.35,0,0c.33-.12.45-.06.15.2a4.78,4.78,0,0,1-1.17.7c-.39.14-.41,0-.16-.2a385.91,385.91,0,0,1-43.25,21.41,338,338,0,0,0,40.41-18.41c1.35-.91,2.72-1.75,4.07-2.7a3.23,3.23,0,0,1,1.1-.5c.15,0-.08.26-.46.51l-1.12.78c2.43-1.39,4.52-2.13,4.75-1.66s-1.73,2.15-4.26,3.62c-6.8,3.94-13.66,7.73-20.76,11.06L245,47.55l-2.2,1.35a300.3,300.3,0,0,0,32.56-16.51c.88-.54,1.72-.88,1.84-.73s-.52.71-1.42,1.26a274.37,274.37,0,0,1-27.9,16.43,267.59,267.59,0,0,1-30,13.23c-3.25,1.63-6.57,3.17-9.9,4.79-3.38,1.47-6.78,3-10.27,4.47.92-.2,1.84-.45,2.75-.72A177.91,177.91,0,0,0,232.28,58.6c9.89-4.89,19.36-10.21,29.36-15.93a2,2,0,0,1,1.06-.42c.1,0-.19.33-.7.62-9.73,5.68-18.65,10.93-28.81,15.89l-6.26,3-6.23,2.74-3.08,1.37-3.09,1.27-6.12,2.56c2.12-.72,4.22-1.48,6.3-2.23l3.11-1.14,3.06-1.25L227,62.54l5.94-2.74,3-1.37L238.76,57,244.58,54,250.34,51l2.88-1.54c1-.52,1.9-1.08,2.86-1.62a8,8,0,0,1,1.83-.85.9.9,0,0,1,.32-.33c1.8-1.28,3.84-2.53,5.85-3.91a3.5,3.5,0,0,1,1.18-.56C265.51,42.1,265.31,42.32,264.89,42.63ZM28.21,27.41v-.24l.2.55-.21,1.5Zm-9.72-.94h0l.16-.85Zm93.09,28-6.24-1.22c-1-.19-2.06-.46-3.08-.73l-3.05-.82a113.15,113.15,0,0,1-11.91-4l5.89,1.45,2.25.78,2.27.68L102.29,52c1.52.49,3.07.87,4.62,1.26ZM26.83,19.84a13.45,13.45,0,0,1,0,3.17,3.71,3.71,0,0,1,1.31.77c1,.94,2,1.85,3,2.81.13-.5.36-.27.52-.23l.48.19a41.31,41.31,0,0,1-2.85-3.4A27.72,27.72,0,0,1,26.83,19.84Zm-8.7-4.73,0-.22.67-.39Zm-1.12.7.09.21C16.87,16.18,16.88,16.06,17,15.81Zm.83,1.93a1.59,1.59,0,0,0,.05-.48ZM5.34,35.51l2.93-2.37-2.9,2.21Z"/><path d="M163.89,106l-.57-.28c.12-.18.48-.2,1-.11a10.3,10.3,0,0,0-7.08-.49,9.44,9.44,0,0,0-2.45,1.16,7.19,7.19,0,0,0-1.62,1.49c-1.15.11-1.56.73-1.14,1.3a2.45,2.45,0,0,0,1.11.73,4.33,4.33,0,0,0,1.62.29,5.81,5.81,0,0,1,.89.2c.6.24,1.18.47,1.8.69l1.94.66,2,.67c.69.21,1.4.42,2.12.66-.64-.29-1.29-.57-1.91-.82a19.86,19.86,0,0,0,2.44.62l-.58-.48c3.13,1.3,6.4,1.69,7.06.21s-1.78-4.52-5.11-5.89Z"/><path d="M156.15,101.39a25.36,25.36,0,0,1,2.57.46c.86.19,1.73.4,2.61.67l.47.28-1-1.41,0,.09c-.41,1.37-2.21,2-3.77,2.64l-.53.27a.64.64,0,0,0-.11.73,2.57,2.57,0,0,0,2.16,1.06l1.07,0c.71.12,1.55.23,2.36.3a12.23,12.23,0,0,0,2.28,0c1.41-.18,2.46-.7,2.33-2-.06-.61-.85-1.41-1.38-2.12a3.83,3.83,0,0,0-3.39-1.79c-1.31.1-1.86,1-1.33,1.92l-.75-.1.26-.4c.2.85-.8,1.17-1.36,1.68l-1.06.39,2.06,1.86.46-.32c-.11-.08-.29-.2-.29-.21a15.17,15.17,0,0,1,2.78-1.82l1.25-.94c.19-.47-.29-1.15-1.07-1.51l-1.1-.41.54.25a53.61,53.61,0,0,0-6.1-.31c-.32,0-.58.14-.57.36S155.83,101.36,156.15,101.39Z"/><path d="M162,100a2.24,2.24,0,0,0,1.19.21l0-.22-.82-.33C161.85,99.39,161.79,99.65,162,100Z"/><path d="M163.26,100l.35.15-.3-.21,0,0Z"/><path d="M172.35,249.68c-1,24.83-2.15,49.81-3.7,74.78-.05.83,0,1.54.22,1.58s.33-.6.37-1.38c1.6-25,2.78-49.83,3.78-74.66a2.81,2.81,0,0,0-.31-1.64C172.52,248.31,172.37,248.9,172.35,249.68Z"/><path d="M149.69,435.91c-.06-.59-.16-.57-.26,0a10.62,10.62,0,0,0-.07,2.05c0,.5.17.48.26,0A10.43,10.43,0,0,0,149.69,435.91Z"/><path d="M141.47,430.48c-.28-3.5-.59-6.82-1-9.78a9.21,9.21,0,0,1-.05-1.64c-.18.21-.38-.46-.51-1.72-2.62-24.85-4.51-51.57-6.25-77.89a2.43,2.43,0,0,1-.65-1.11,29.56,29.56,0,0,1-1.12-9.28l.11-2.86c.18-11.55.39-23.07.8-34.56a70.65,70.65,0,0,1-.62-8.05c-.91-9.95-1.72-19.93-2.25-30.14-.21.64-.46,1-.73,1-.63-.2-1.09-2.57-1-5.33,0-1.39.07-2.77.16-4.16-.46,4-.54,8-.8,12a14.75,14.75,0,0,1-.12,1.59c-.09,4.37-.09,8.79,0,13.28.42,39.22,4,76.09,7.74,112.67a7.61,7.61,0,0,1,0,2.07c-.1.36-.27.29-.36-.38-3.5-23.07-8.23-43-11-69.14-1.63-15.52-3-30.95-4-46.48-.26-3.89-.52-7.78-.71-11.68l-.3-5.86c-.1-2-.23-3.91-.21-5.87a57.39,57.39,0,0,1,5.28-23.65c4-8.29,9-16.37,12.8-24.51,1-2.08,1.82-4,2.71-6.34L140,191c.24-.64.48-1.17.68-1.62.42-.92.82-1.7,1.13-2.49A15.64,15.64,0,0,0,143,177.4a13.17,13.17,0,0,0-1.75-4.35c-.44-.69-.94-1.4-1.61-2.35a19,19,0,0,1-2.19-4,16.26,16.26,0,0,1-1.06-5.26,17.24,17.24,0,0,1,.56-5.16,23.67,23.67,0,0,1,4-7.76,12.14,12.14,0,0,0,1-1.58l0-.06h0s0,0,.09.06l.35.18a6,6,0,0,0,.73.32l.39.13.2.08a2.79,2.79,0,0,0,.66.17s0,0,0,0h-.22l-.29,0-.21.05.1,0c.06,0,0,0-.4.18l-.3.17-.36.24a3.72,3.72,0,0,0-.45.33l-.11.08h0a.68.68,0,0,0-.19-.3,1.72,1.72,0,0,0-.23-.26,14.83,14.83,0,0,0-1.14-1c-.79-.6-1.58-1.2-2.29-1.82a21.6,21.6,0,0,1-3.72-3.67,9.83,9.83,0,0,1-1.76-4.15,3.78,3.78,0,0,1-.13-1.21,10.21,10.21,0,0,1,0-1.24,10.38,10.38,0,0,1,.52-2.26,6.41,6.41,0,0,1,.64-1.38,7.82,7.82,0,0,1,.85-1.27c.16-.2.27-.42.46-.62l.61-.58a16.47,16.47,0,0,1,1.41-1.11c.25-.18.51-.36.8-.53a6,6,0,0,1,.87-.49c.66-.28,1.32-.56,2-.87,1.32-.56,2.83-.95,4.2-1.41l2.08-.7c.42-.15.63-.25.93-.37a9,9,0,0,0,1.34-.69,1.64,1.64,0,0,0,.28-.24h0l.08.09c.19.24.46.52.59.7a5.27,5.27,0,0,0,.51.56l.28.26.2.2a4.09,4.09,0,0,0,.44.37c.17.11.21.17.34.24s.28.14.31.17l.2.09c.13,0,.19,0,.11,0a1.2,1.2,0,0,0-.34.11,2.18,2.18,0,0,0-.6.34,4.37,4.37,0,0,0-.86.62l-.19.18-.28.24a6.51,6.51,0,0,0-.54.51c-.17.18-.33.36-.49.55a3,3,0,0,1-.28.32c-.08.09,0,0-.06.05H149c-.11,0-.22,0-.38-.07-.65-.16-1.64-.4-2.72-.58-.56-.1-1.08-.2-1.75-.28l-2-.07c-.67,0-1.37-.2-2.06-.3a76.82,76.82,0,0,1-8.85-2l-1.67-1a3.48,3.48,0,0,0-.43-.25l-.55-.2-1.09-.39a9.6,9.6,0,0,1-1-.41l-.74-.57c-.49-.38-1-.75-1.44-1.13s-.93-.76-1.36-1.15l-.43-.39-.59-.52c-.79-.69-.48-1.59-1.35-2.25l-.5-.54a2.13,2.13,0,0,1-.43-.54l-.67-1.12-.54-1.15c-.18-.38-.49-.79-.73-1.19-.64-.8.09-1.58-.74-2.49l-.37-.65a3.65,3.65,0,0,1,0-.66l.06-.65c0-.1,0-.23-.08-.35l-.16-.37c-.18-.49-.56-1-.31-1.44l.16-.68.09-.34a1.4,1.4,0,0,0-.07-.39c-.12-.52-.26-1-.36-1.57l.56-1.37.14-.34a1.67,1.67,0,0,0,0-.39l0-.8c0-.53-.05-1.06,0-1.6l.1-1.61,0-.41c0-.14.13-.21.19-.32l.49-.61,1-1.22a9.8,9.8,0,0,0,.56-1.46l.52-1.48,0-.1,0,0a.53.53,0,0,0-.06-.1l-.26-.42-.13-.2c0-.06,0-.08,0-.11l.09-.2.34-.81.35-.8.27-.71.54-1.32c.35-.85.73-1.72,1.11-2.56.28-.69.6-1.36.92-2a17.62,17.62,0,0,1,1-1.81,12.73,12.73,0,0,1,2.07-2.62c1.34-1.28,2.7-1.68,3.68-1,1.19.9,1.55,3.11,1.13,5.54l.64-1c.4-.45.81-.93,1.2-1.35,1.15-1.18,2.36-1.94,3.46-1.87h1.43c2.32.53,5.11.33,7.47,1.74l.38,1,.37,0a3.76,3.76,0,0,1,2.85,1.17l.65,1.14A12.12,12.12,0,0,1,150.25,87a3.87,3.87,0,0,1,.66,1.41,5.63,5.63,0,0,1,2.63,3.22.8.8,0,0,1,.58,1.08.9.9,0,0,1-.34.36h0c.35.19.46.24.89.45a5.19,5.19,0,0,1,.61,0c1-.16,1-.15,1.83-.24a5.89,5.89,0,0,1,1.66.59c2,1.84,2.06,1.88,2.51,2.8,0,.1,0,.2,0,.29.78.17.85.2,1.07.26a3.51,3.51,0,0,1,.51.31c.34.49.34.49.56.66a4.24,4.24,0,0,1,.26.37c0,.6,0,.6.09.76a1.12,1.12,0,0,1,0,.29l-.47.33-1.65-1.12.09.46-.56-.53.44.49L161,99l.78.37a4.51,4.51,0,0,0-1.54.07,1.75,1.75,0,0,0-.77.22l.21.25-2.33.07-.44-.24c0,.15-.16.26-.39.28l-.59,0-.06.1,0,0-.29.32,0,.07h0c-.21.22-.5.53-1.29,1.33-.34,0-.69,0-1,.05l.37.1c.26.08.36.47.48.48,1.36.08,2.7.14,4,.16s2.75.09,4.18.22a1.6,1.6,0,0,1,1.34.5c.3.37.17.7-.28.77a10.57,10.57,0,0,1-3.23,1.43,24.65,24.65,0,0,1-3.84.74c-2.7.31-5.47.42-8,.5-.56.08-1.14.21-1.68.33l-1.52.36.23.06c-.24,0-.61,0-.55.15v0h.2l.4.08h.46a17.28,17.28,0,0,1,3.9-.45c.75,0,1.45,0,2.23,0l2.38.12a16.87,16.87,0,0,1,2.68.36l2.76.61a1.37,1.37,0,0,1,1,.54c.14.26-.1.44-.53.4-1.25.14-2.45.16-3.76.24-.64,0-1.24,0-1.89,0H152.8c-1.26,0-2.38-.08-3.51-.12l-1.58-.16a3.49,3.49,0,0,1-.37-.07l-.31,0-.1.06a1.6,1.6,0,0,1-.85.31h0l.49.08c-.17.11-.6,0-.81.14l.62.2a1.53,1.53,0,0,0-.47,1.3c0,.47.22.84.25,1.2a.25.25,0,0,1,0,.08c.35.12.69.21,1,.3l.22.06,0,0,.18.09.34.16c.46.21.92.39,1.39.59a13.61,13.61,0,0,1-1.67-.91c.64.3,1.35.56,2,.79.08,0,.15.06.24.08l.12,0,.06,0,.12.08,2,1.3c.69.46,1.38.91,2.14,1.46a23.24,23.24,0,0,1,2.48,2l.47.44c.16.16.34.36.5.55a9.79,9.79,0,0,1,1,1.36,6.6,6.6,0,0,1,.5.93,5.38,5.38,0,0,1,.42,1.1,9.15,9.15,0,0,1,.28,1.26,10.29,10.29,0,0,1,0,1.36,7.57,7.57,0,0,1-1.79,4.32,9.85,9.85,0,0,1-2.31,2,23.93,23.93,0,0,1-3.64,1.78c-.51.21-1.22.47-1.15.46a2.15,2.15,0,0,0-.36.11,10.1,10.1,0,0,0-1.47.54,1.7,1.7,0,0,0-.62.51,1.62,1.62,0,0,1-.1.18,1.34,1.34,0,0,1,0,.2.88.88,0,0,0,.1.35,5.1,5.1,0,0,0,1,1l.28.24.14.13.07.07h0l0,0s0,0,0,0l.17.14a15.24,15.24,0,0,1,2.66,2.62,12.07,12.07,0,0,1,2,3.71,11.8,11.8,0,0,1,.48,2c.06.7.1,1.39.09,2.06a14.87,14.87,0,0,1-.29,2,16,16,0,0,1-.57,1.73,14.44,14.44,0,0,1-.71,1.37c-.23.38-.48.75-.71,1.08a28.49,28.49,0,0,1-2.1,2.77c-.59.71-1.1,1.3-1.48,1.82a6.29,6.29,0,0,0-1.29,2.82,4.53,4.53,0,0,0,0,1.36,5.24,5.24,0,0,0,.63,1.7c.79,1.5,2,3.54,3,5.59a55.89,55.89,0,0,1,4.12,12.93c.43,2.24.7,4.55.94,6.72l.19,1.56a12.34,12.34,0,0,0,.26,1.32c.19.9.43,1.79.65,2.67.51,1.91,1.05,3.86,1.67,5.77s1.29,3.9,2,5.84c1.39,3.88,3,7.81,4.42,11.7a98.86,98.86,0,0,1,6.27,23.36c.21,1.6,0,3-.29,3.32s-.71-.91-.89-2.51a98.86,98.86,0,0,0-3.91-16.79c-1.81-5.63-4-11.26-6-16.92-1-2.81-1.9-5.64-2.73-8.46-.4-1.39-.78-2.79-1.12-4.19l-.26-1-.22-1c-.15-.65-.29-1.31-.41-2-.26-1.15-.34-2.8-.52-4.38s-.37-3.24-.66-4.85a53.32,53.32,0,0,0-2.55-9.41,50.71,50.71,0,0,1,2.15,7.84,66.23,66.23,0,0,1,1,8.05c0,.66.09,1.28.15,1.86s.16,1.06.26,1.62c.2,1.12.39,2.15.66,3.38.5,2.36,1,4.7,1.7,7.1,2.51,9.54,5.88,19.2,7.53,28.89q.74,3.72,1.18,7.46a45.07,45.07,0,0,1,.24,7.33c-.1,12.38-.44,24.45-.7,36.58s-.52,24.33-.66,37c-.25,21.6-.68,40.49-1.65,62-1.42,30.2-4,57.7-9.73,87.51a44.11,44.11,0,0,1-2.06,8.09c-.35.48,0-2.4.64-6.38,2.48-15.54,4.13-31,5.39-46.52s2.1-31,2.73-46.58c1.27-31.19,1.81-62.74,2.85-95.25.21-7,.42-13.92.62-20.78a.66.66,0,0,1-.36.17c-.49,0-.93-.67-1.29-1.77q-.37,11.69-1.05,23.53c.5,21.93.65,43.9-1,67.28-1.16,16.05-2.9,30.57-4.53,45.41-.78,18.82-1.8,37.58-3.6,56.59a8.15,8.15,0,0,1-.28,1.81c-.1.28-.14-.13-.09-.9.86-13.07,1.38-26.46,1.76-40-.5,2.12-1,3.39-1.54,3.21s-.9-1.83-1.14-4.36l-.46,9.2c-.11,1.89-.38,3.38-.62,3.32s-.39-1.55-.31-3.35q.75-18.76,1.49-37.47c.14-15,.2-29.91.24-44.93a10.67,10.67,0,0,1-1.85,4.32h0c0,2.32-.05,4.64-.08,6.95q.9,31.82.27,64.3t-2.9,65.29a8.2,8.2,0,0,1-.18,1.57,6.09,6.09,0,0,1,0-1.41q1.23-19.81,2-39.52v.06c-.08.53-.2.62-.24,0a11,11,0,0,1,.07-2.06c.09-.6.2-.55.25-.05.86-24.47,1.07-48.77.6-72.75q-.43,33.42-1.66,66.81c.05,2.42.1,4.84.16,7.31a7.74,7.74,0,0,1-.19,1.82c-.08.18-.17-.31-.17-1l0-2c-.17,4.21-.65,7.46-1.12,7.38-.48-.24-.83-3.86-.78-8.24,0-11.72.05-23.39.08-35.07l-.1-3.79c-.1-1.28-.21-2.54-.31-3.81-.39,18.16-.74,36.28-.87,54.3a7.81,7.81,0,0,1-.27,2.89,7,7,0,0,1-.33-2.77c-1.09-31.76-2.38-63.92-3.13-96.21-1.38-10.62-2.86-21.26-4.34-32.11v4.13c.17,17.55,1.45,33.79,2.69,49.88s2.48,32,3.07,49a4.06,4.06,0,0,1-.13,1.67c-.1.09-.22-.48-.25-1.35-.72-16.59-2.11-31.74-3.3-48.21-1-13.64-1.91-26.61-3.15-39.29.83,25.91,3,50.77,4.4,76.43a15.94,15.94,0,0,1,0,3,1.52,1.52,0,0,1,.18.63c.41,3.21.74,6.71,1,10.29a6.77,6.77,0,0,1-.05,1.91C141.68,431.66,141.56,431.24,141.47,430.48Zm2.5-329.2.2,0-.54.07-1.11-.28S143.21,101.16,144,101.28Zm4.87-6.89h0l.71.31ZM156.23,194c-.14-.8-.27-1.59-.36-2.35l-.2-2.71c-.14-1.89-.33-3.82-.65-5.73a48.83,48.83,0,0,0-3.1-11,47.22,47.22,0,0,0-2.48-5.1,13.31,13.31,0,0,1-1.74-3.74,4.31,4.31,0,0,1,0-1.35,6.67,6.67,0,0,1,.33-1.45,9.17,9.17,0,0,1,1.73-2.73,9.33,9.33,0,0,0-1.62,2.69,5.7,5.7,0,0,0-.27,2.67c0,1.12,1.68,3.53,2.95,6.15a49.18,49.18,0,0,1,3.09,8.12,52.09,52.09,0,0,1,1.62,8.61c.16,1.44.24,2.9.33,4.29,0,.66.07,1.37.14,1.9S156.13,193.43,156.23,194Zm-5.15-92.28a22.68,22.68,0,0,1-2.82-.73,5.08,5.08,0,0,1-1.26.7c-1.2.53-2.44,1-3.54,1.53.34.12.07.24,0,.34s-.24.19-.33.28c.61-.26,1.24-.5,1.88-.71s1.37-.42,2.05-.6,1.32-.34,2-.49A12.47,12.47,0,0,1,151.08,101.74Zm8.87-4,.22.12.09.63Zm-.21-1.08-.26,0C159.41,96.36,159.53,96.42,159.74,96.63Zm-2.37-.21a2.25,2.25,0,0,0,.46.22ZM145.45,81.19l1.18,3.18-1-3.13Z"/></g></g></svg>