<svg xmlns="http://www.w3.org/2000/svg" viewBox="0 0 457.32 483.43"><g id="Layer_2" data-name="Layer 2"><g id="Layer_1-2" data-name="Layer 1"><path d="M202.05,199.32l.61-.19a1.7,1.7,0,0,1-.69,1.16,15,15,0,0,0,6.41-5.94,26.09,26.09,0,0,0,3.17-8.07c1.23-1.11,1.71-2.74,1-3.73s-2.44-.93-3.75.23a5.65,5.65,0,0,1-1.11.47A17.91,17.91,0,0,0,203,184.6a26.35,26.35,0,0,0-4.59,2.54l2.15-.85a11,11,0,0,0-2.5,2l.78.13c-3.49,1.59-6,5.8-5.28,9s3.88,4.24,7,2.6Z"/><path d="M211.22,199.16c-1.71.87-3.49,1.66-5.21,2.54l-.55,0,1.62,1-.08-.1c-.37-2.22.77-4.74,2-6.93l.37-.85a1.61,1.61,0,0,0-.25-1.26c-.55-.75-1.72-.71-2.62.11l-1,.95c-3,1.9-6.25,6.3-4.52,9.58.4.75,1.39,1,2.17,1.36a2.58,2.58,0,0,0,3.53-.84,2.71,2.71,0,0,0,.07-3.7c.23-.16.46-.34.7-.49,0,.25,0,.51,0,.77-.63-1,.1-2.3.32-3.53.26-.49.52-1,.8-1.47l-2.89-1.1-.25.93a3.45,3.45,0,0,1,.37.06,48.13,48.13,0,0,1-1.35,5.25c-.15.82-.31,1.62-.42,2.44a1.2,1.2,0,0,0,1.64,1c.36-.15.71-.3,1.08-.44l-.56.15c.92-.72,1.81-1.49,2.7-2.25s1.83-1.46,2.77-2.1a.79.79,0,0,0,.38-.9A.53.53,0,0,0,211.22,199.16Z"/><path d="M206.83,205.63a1.84,1.84,0,0,0-1,.78,2,2,0,0,0,.08.31l.81-.3C207.28,206.21,207.19,205.84,206.83,205.63Z"/><path d="M205.89,206.72l-.35.13h.35v-.12Z"/><path d="M239.11,342.92l-2.58,1.89c-.84.64-1.63,1.3-2.44,1.95-1.61,1.32-3.31,2.59-4.78,4l-2.28,2a29.44,29.44,0,0,0-2.22,2.08l-.51.51-.16.19-.33.36c-.21.25-.61.55-.87.86a23.69,23.69,0,0,0-3.1,4.06,6.27,6.27,0,0,0-.77,2.45,3.86,3.86,0,0,0,.64,2.45,11.86,11.86,0,0,0,4,3.13,27.14,27.14,0,0,0,4.82,2.07,3.21,3.21,0,0,0,.36.11l.49.14,1.35.42c.91.27,1.85.48,2.77.73,1.87.43,3.76.84,5.7,1.12a84,84,0,0,0,11.84,1,5,5,0,0,0,2-.23c0-.11-.79-.22-1.79-.21a83.21,83.21,0,0,1-11.79-1c-1.92-.28-3.8-.68-5.66-1.1l-2.75-.71c-.84-.26-2-.63-2.31-.7a27.81,27.81,0,0,1-4.58-2,11.77,11.77,0,0,1-3.86-2.93,3.56,3.56,0,0,1-.68-2.29,5.55,5.55,0,0,1,.68-2.34,20.53,20.53,0,0,1,2.91-3.87,9.5,9.5,0,0,1,.85-.83l.3-.34.16-.17.07-.08.23-.24,1-1.06,1.14-1,2.27-2c.77-.67,1.47-1.37,2.3-2l2.44-1.95,2.42-1.95,2.56-1.89a6.19,6.19,0,0,0,1.65-1.53C240.69,341.9,240,342.29,239.11,342.92Z"/><path d="M409.93,335.83c-1,0-.93.1.05.26s2.35.36,3.3.46.81,0,0-.27A15.86,15.86,0,0,0,409.93,335.83Z"/><path d="M402.06,343.84a60.39,60.39,0,0,0-13.21,3.43c-.75.28-1.6.52-2.26.7.34.07-.54.52-2.25,1.17-16.91,6.44-33.59,15.6-51.13,24.73C324.43,378.42,315.39,383,306,387a191.87,191.87,0,0,1-29.6,10.17,5.74,5.74,0,0,1-1.66.83,42.2,42.2,0,0,1-6.13,1.74c-1.31.26-2.72.51-4.2.75s-3,.37-4.6.52-3.16.18-4.74.23a116.33,116.33,0,0,1-14.45-.32,98,98,0,0,1-14.45-2.27l-1.8-.42-1.78-.49-2-.56a16.76,16.76,0,0,1-2.22-.7c-1.47-.52-2.95-1-4.4-1.57l-4.31-1.76a67.13,67.13,0,0,1-15.12-9.43,28.28,28.28,0,0,1-5.26-5.28,19.41,19.41,0,0,1-3.52-7.64,21.84,21.84,0,0,1-.43-7.42,30.46,30.46,0,0,1,1.7-7.19,32.91,32.91,0,0,1,3.3-6.89l4.45-6.7c.75-1.12,1.48-2.26,2.35-3.35.42-.55.82-1.1,1.27-1.65l1.42-1.66,2.56-3c.67-.83,1.38-1.58,2.1-2.33l4.33-4.55c1.47-1.48,3-2.87,4.5-4.31-.88.58-1.48.86-1.61.7-.07-.55,2.56-3.54,6.06-6.27,1.74-1.42,3.46-2.9,5.23-4.2-1.29.91-2.56,1.9-3.83,2.91l-3.82,3c-2.53,2.05-5,4.24-7.5,6.36-.7.67-1.35,1.27-2,1.8l-3.92,3.87c-.66.64-1.26,1.37-1.9,2.06l-2.66,3c-.45.51-.94,1-1.35,1.53L194.79,338c-.83,1-1.55,2.07-2.27,3.12l-4.38,6.34-1.2,1.74c-.35.59-.65,1.18-1,1.78a31,31,0,0,0-1.66,3.63c-.49,1.22-.88,2.45-1.28,3.69s-.61,2.51-.82,3.78a29.15,29.15,0,0,0-.36,3.86,25.4,25.4,0,0,0,.24,3.89,21,21,0,0,0,.87,3.83c.18.62.41,1.23.64,1.83s.54,1.17.83,1.74a27.58,27.58,0,0,0,4.36,6.16,34.36,34.36,0,0,0,2.73,2.66c1,.83,2.09,1.6,3.13,2.41A68.13,68.13,0,0,0,209,396.29l3.91,1.49,4,1.31c.66.21,1.32.45,2,.64s1.3.31,1.95.47l3.08.73a101.73,101.73,0,0,0,12.21,1.83,115.09,115.09,0,0,0,23.87-.4c15.62-1.93,30-6.6,43.33-12.28s25.76-12.35,37.87-18.83a21.41,21.41,0,0,1,2.79-1.34c.52-.15.49,0-.39.5-15,8.55-29.27,17.13-45.69,24.27a159.66,159.66,0,0,1-26.68,9.05,116.18,116.18,0,0,1-32,3.21c-.86,0-1.72-.06-2.59-.12l-2.59-.22c-1.73-.11-3.47-.36-5.21-.58s-3.48-.56-5.22-.85c-.87-.14-1.74-.35-2.61-.54l-3.06-.71a11.4,11.4,0,0,1-1.82-.5l-1.79-.57-3.6-1.16-3.53-1.32-1.78-.66a14,14,0,0,1-1.73-.73l-3.33-1.66c-1.12-.55-2.25-1.09-3.28-1.73L194,393.74c-.52-.32-1.09-.6-1.56-.95L191,391.71a48.88,48.88,0,0,1-5.34-4.46,35.55,35.55,0,0,1-4.19-5.16l-.89-1.41c-.27-.48-.54-1-.8-1.47a26.1,26.1,0,0,1-1.38-3.1c-.37-1.08-.73-2.18-1-3.29s-.48-2.26-.62-3.4A34.31,34.31,0,0,1,178,355.93a36.4,36.4,0,0,1,2.44-6.53l.78-1.61c.31-.53.66-1.05,1-1.57l2-3.14,4.08-6.31a56.31,56.31,0,0,1,4.83-6.26l2.54-2.93c.56-.65,1.1-1.34,1.68-2l3.5-3.7c2.32-2.53,4.75-4.77,7.18-7.08l1.82-1.73,1.85-1.62,3.71-3.23c9.93-8.48,20.08-15.78,29.69-22.8,10.24-7,19.63-13.73,27.67-20.64,1.06-.85,2-1.72,2.94-2.6l2.84-2.61c.95-.86,1.75-1.78,2.64-2.66l2.58-2.64A63.27,63.27,0,0,0,291.51,244c.54-.84.91-1.67,1.38-2.49s.81-1.61,1.08-2.38a23.68,23.68,0,0,0,1.36-4.31,15.17,15.17,0,0,0,.36-3.48,11.72,11.72,0,0,0-.39-2.6,15.14,15.14,0,0,0-2.69-4.92,16.49,16.49,0,0,0-5-4.21,20.06,20.06,0,0,0-8.88-2.05,25.47,25.47,0,0,0-5.38.49,26.16,26.16,0,0,0-5.21,1.65c-.4.19-.8.34-1.22.58l-.64.31a.26.26,0,0,0-.11.08l-.35.27a8.44,8.44,0,0,1-.7.52c-.45.4-.92.71-1.37,1.1a58.3,58.3,0,0,0-5.5,4.91,2.56,2.56,0,0,1-2.77,1,9.14,9.14,0,0,1-4.22-2,8.55,8.55,0,0,1-3.26-5l-.46.43-1,.43a5,5,0,0,1-3.46.05l-1.66-.42c-2.92-1.12-5.93-1.22-9-2.29l-.81-.87h-.41a6.4,6.4,0,0,1-3.43-.64l-1.12-.88a13.42,13.42,0,0,1-3-3.7,5,5,0,0,1-1.27-1.23,6.78,6.78,0,0,1-4-2.4.93.93,0,0,1-1-.94,1.15,1.15,0,0,1,.14-.57h0a6.89,6.89,0,0,0-1.06-.06c-.33.24-.54.37-.54.37-.81.7-.81.7-1.54,1.3a5.27,5.27,0,0,1-1.71.4c-2.61-.67-2.62-.65-3.46-1.37l-.16-.32c-.72.41-.77.44-1,.54a2.56,2.56,0,0,1-.55.07c-.52-.29-.52-.29-.77-.3a2.75,2.75,0,0,1-.39-.21c-.32-.7-.32-.71-.47-.81a2.13,2.13,0,0,1-.14-.38c.11-.52.16-.72.18-.81l1.87,0-.31-.48.72.18-.61-.24.62-.22-.81.19a7.11,7.11,0,0,0,1.2-1.34,2.43,2.43,0,0,0,.53-.88,1.63,1.63,0,0,1-.3-.16c1-.95,1-1,2-1.83a2.24,2.24,0,0,1,.52,0,.64.64,0,0,1,.22-.64l.51-.47,0-.18,0,0,.12-.65,0-.14h0l.66-2.77a7.7,7.7,0,0,1,1-.69l-.44.07c-.3,0-.6-.48-.71-.43a35,35,0,0,0-7.74,6,1.12,1.12,0,0,1-1.31.58.89.89,0,0,1-.22-1.31,20.89,20.89,0,0,1,5.19-9.86,27.2,27.2,0,0,1,9.29-6.56c1.6-1,3.14-2,4.76-3l-.39-.06,1.4-.55.13-.08-1.49-.12-.78.24c-3.63,2.4-7.64,3.9-11.36,6.28-2,1.28-4.07,2.08-6.06,3.3-.41.4-.95.47-1.23.15s-.14-.89.27-1.29c4.25-6.15,11.36-11.66,18.22-12.49a7.44,7.44,0,0,1,3.56-1.45l.06,0-1.17-.2c.94-.42,1.78-.17,2.71-.43l-.94-.75c4.51-2.22,9.13-5.2,14.09-5.65a3.34,3.34,0,0,1,.52-.14,29.46,29.46,0,0,1,2.37-2.21l.66-.51a1.66,1.66,0,0,1,.23-.13l1.29-.54c.87-.35,1.73-.72,2.63-1.05A78,78,0,0,1,258.89,161c-1.37.26-2.73.5-4.08.79s-2.7.64-4,1-2.67.78-4,1.2l-3.66,1.27,0,0,.23-.1.51-.22,1-.43c.69-.28,1.37-.58,2.07-.85,1.41-.51,2.83-1,4.27-1.51a79.74,79.74,0,0,1,8.82-2.27,76,76,0,0,1,45.21,4.94,73.28,73.28,0,0,1,12.11,6.9,69.44,69.44,0,0,1,10,8.8,68.35,68.35,0,0,1,7.56,9.76,62.16,62.16,0,0,1,5.14,10,53.1,53.1,0,0,1,4,17.51c.22,1.07.42,2.14.55,3.24s.29,2.19.38,3.3l.19,3.33c.07,1.12,0,2.18,0,3.28a63,63,0,0,1-.48,6.46c-.12,1.07-.33,2.1-.5,3.15s-.37,2.1-.63,3.1l-.75,3-.92,2.94c-.29,1-.64,1.94-1,2.87s-.72,1.88-1.1,2.8a84.62,84.62,0,0,1-5.27,10.32,103.9,103.9,0,0,1-13.09,17.26c-2.37,2.54-4.85,5-7.29,7.2l-3.67,3.35c-1.23,1.13-2.5,2.1-3.75,3.16a317.32,317.32,0,0,1-30.42,21.79c-10,6.5-19.79,12.54-28.7,18.86a14.09,14.09,0,0,1-4.06,2.33c-.35-.08.71-1.14,2.52-2.47,12.6-9.35,27-18.11,41.59-28.31a254.8,254.8,0,0,0,21.68-17l5.23-4.86c1.74-1.67,3.48-3.47,5.16-5.3a109.09,109.09,0,0,0,9.52-11.94,100.8,100.8,0,0,1-8.14,9.89c-.71.77-1.43,1.53-2.16,2.26s-1.45,1.5-2.2,2.2l-2.24,2.13-2.24,2L307.89,292l-4.61,3.66L301,297.5l-2.34,1.71L294,302.62c-12.52,8.74-25.26,16.24-37.24,23.9l-4.53,3-4.44,3.05-4.32,3c-1.41,1-2.9,1.92-4.27,2.92L234,342.4l-4.85,4c-1.59,1.36-3,2.79-4.57,4.17l-1.13,1.05c-.37.35-.7.73-1,1.09l-.46.49-.23.26-.47.53c-.3.36-.75.75-1.08,1.15l-1,1.26a28.46,28.46,0,0,0-2,2.57,12,12,0,0,0-1.43,2.87,5.8,5.8,0,0,0-.22,3.17,5.45,5.45,0,0,0,1.64,2.72,13.79,13.79,0,0,0,2.62,1.88,31.84,31.84,0,0,0,5.86,2.73c.51.19,1,.33,1.54.49l.77.24.46.1.63.18,1.4.4,1.43.32c.95.22,1.9.46,2.88.62a76,76,0,0,0,12,1.31,95.58,95.58,0,0,0,10.45-.25c3.47-.31,6.84-.71,10.27-1.35a141.91,141.91,0,0,0,20.22-5.35c13.41-4.54,26.65-10.77,41.13-17.82,10.19-4.95,20.39-9.93,31-14.38,5.29-2.22,10.68-4.31,16.19-6.17a122.74,122.74,0,0,1,17.64-4.79,59.83,59.83,0,0,1,21-.37,44.37,44.37,0,0,1,21,9.81A55.74,55.74,0,0,1,449,352.31a76.69,76.69,0,0,1,6.66,18.93c1.51,6.65,1.83,12.48,1.5,13.26s-1.24-3.57-2.54-10a81.59,81.59,0,0,0-6.38-19.3A54.75,54.75,0,0,0,435,337.66a43.36,43.36,0,0,0-9.91-6.45,42.75,42.75,0,0,0-11.43-3.43,60.14,60.14,0,0,0-21.48,1c-3.28.69-6.42,1.54-9.45,2.47s-5.9,1.9-8.81,2.93c-5.79,2.07-11.43,4.37-17,6.78-11.06,4.82-21.66,10.09-32.14,15.1s-20.85,9.77-31.38,13.61a142.62,142.62,0,0,1-31.88,8A87.91,87.91,0,0,1,230,375.72l-1.86-.54c-.51-.14-.9-.23-1.28-.37-.77-.26-1.56-.47-2.32-.78s-1.53-.58-2.27-.93-1.49-.69-2.22-1.08-1.43-.8-2.14-1.21a17.47,17.47,0,0,1-2-1.39,6.81,6.81,0,0,1-2.7-4,7.24,7.24,0,0,1,.55-4.16,17.23,17.23,0,0,1,2.14-3.64c.87-1.11,1.76-2.18,2.64-3.26.42-.53,1-1,1.4-1.5s.68-.77,1.64-1.77c-.15,0-.29,0-.35,0-.26-.25.06-1.16,1-2.38-.49.46-1,.9-1.45,1.39l-1.2,1.26c-.53.57-1.06,1.15-1.7,1.77-1.15,1.29-2.23,2.65-3.36,4a18.64,18.64,0,0,0-2.69,4.53,7.33,7.33,0,0,0-.29,5.19,8.1,8.1,0,0,0,2.33,2.87,19.58,19.58,0,0,0,3.13,2,40.37,40.37,0,0,0,6.67,3c1.13.42,2.29.73,3.43,1.06l.47.11.54.14,1.3.35c.87.24,1.77.39,2.65.6a81,81,0,0,0,10.9,1.55,100.72,100.72,0,0,0,11.28.2q5.7-.27,11.47-1.1A155.08,155.08,0,0,0,289.2,372a334.58,334.58,0,0,0,31.52-12c10.24-4.37,20.37-8.94,30.88-13.28,6.56-3,13.23-5.86,20.09-8.44q5.15-1.94,10.44-3.62a107.58,107.58,0,0,1,11.09-3,63.84,63.84,0,0,1,12.1-1.37,43.82,43.82,0,0,1,12.94,1.68c1.09.29,2.15.72,3.22,1.09s2.11.86,3.11,1.4a39.66,39.66,0,0,1,5.74,3.51,46,46,0,0,1,9.23,9.14,15.8,15.8,0,0,1,1.78,2.7c.19.45-.27-.1-1.08-1.19a45.56,45.56,0,0,0-13.12-12,37.48,37.48,0,0,0-8.55-3.74,40.53,40.53,0,0,0-9-1.56A59.07,59.07,0,0,0,392.49,333c-2.69.61-5.31,1.34-7.87,2.14-1.29.39-2.53.81-3.78,1.23s-2.49.85-3.72,1.3c3.24-.77,5.27-.9,5.15-.41s-2.43,1.68-6,3.23c4.46-1.52,8.94-3,13.65-4.12,2.9-.7,5.29-.95,5.24-.7s-2.33.86-5.06,1.53a205.18,205.18,0,0,0-27.17,9.35c-8.78,3.64-17.34,7.65-25.83,11.66-10.13,5-20.15,9.93-30.37,14.28a192.4,192.4,0,0,1-31.36,10.63,30.78,30.78,0,0,1,6.53-.27h0c3.31-.94,6.61-1.92,9.85-3.05,14.83-5.36,29.09-12.49,43.51-19.67s29.1-14.42,44.78-19.79c7.79-2.64,16-5.06,24.86-5.29A38.71,38.71,0,0,1,418.2,337,34.46,34.46,0,0,1,430,343.75c6.8,5.93,11.37,13.84,14.11,22s4,16.59,5,24.78a8.62,8.62,0,0,1,.14,2.38,6.48,6.48,0,0,1-.44-2.09c-1.27-9.86-2.75-20.08-6.91-29.73a49.79,49.79,0,0,0-8.41-13.37,36.76,36.76,0,0,0-13-9.53l.08,0c.78.41.88.58,0,.27s-2.39-.86-3.19-1.2-.82-.43,0-.27a40.78,40.78,0,0,0-14.82-1.49,72.47,72.47,0,0,0-14.14,2.59,212.29,212.29,0,0,0-26.12,9.6c-16.88,7.37-32.81,16.1-49.08,23.61,15.23-6.73,30.09-14.51,45.53-21.27A244.09,244.09,0,0,1,382.36,341a106.55,106.55,0,0,1,12.37-3.27,55,55,0,0,1,13-1.05,35.19,35.19,0,0,1,11.51,1.92,12,12,0,0,1,2.63,1.33c.22.22-.5-.09-1.54-.49a31.35,31.35,0,0,0-3.09-1.07,25.49,25.49,0,0,1,7.46,3.88c1.67,1.31,2.46,2.3,2.26,2.46-.62.23-5.14-3.12-11.52-4.82a38.36,38.36,0,0,0-13.07-1,71.82,71.82,0,0,0-12.92,2.44,213.19,213.19,0,0,0-24.73,8.92c-1.74.76-3.46,1.57-5.19,2.35s-3.41,1.72-5.09,2.61c6.21-2.79,12.49-5.44,18.85-7.82,3.19-1.19,6.39-2.31,9.62-3.33s6.48-2,9.76-2.73c6.54-1.5,13.32-2.2,19.8-1a29.84,29.84,0,0,1,9.15,3.34,33.16,33.16,0,0,1,7.63,6.08c1.58,1.61,2.62,3.25,2.5,3.4s-1.32-1.2-2.86-2.79a29.72,29.72,0,0,0-14.26-8.34,39.89,39.89,0,0,0-16.82,0,106.72,106.72,0,0,0-16.85,4.9c-5.57,2-11.07,4.3-16.52,6.73-21.79,9.74-42.8,22.07-66,30.87A178.58,178.58,0,0,1,275.2,393,122.72,122.72,0,0,1,250,397.47c1.1,0,2.2,0,3.31-.06s2.22-.06,3.32-.16c14.15-.95,27.12-4.57,39.14-9.06a313.69,313.69,0,0,0,33.9-15.67c10.79-5.62,21.31-11.38,32.2-16.58,5.44-2.59,11-5.05,16.68-7.26A119.33,119.33,0,0,1,396,343.16a8.58,8.58,0,0,1,2.37-.28c.14.07-.65.32-1.85.54a113.66,113.66,0,0,0-16.92,5.32c-5.51,2.13-10.87,4.51-16.17,7-10.6,5.05-21,10.71-32,16.44-9.15,4.74-18.25,9.28-27.53,13.28a199,199,0,0,1-28.55,9.95,176.79,176.79,0,0,0,28.75-9.37c9.12-3.81,17.84-8.08,26.38-12.44,17.05-8.7,33.5-17.79,51.14-24.27a30.3,30.3,0,0,1,4.13-1.29,3,3,0,0,1,.83-.42,70.14,70.14,0,0,1,14-4,10.58,10.58,0,0,1,2.61-.16C403.64,343.57,403.08,343.69,402.06,343.84Zm-177-149.57-.26,0,.67-.15,1.53.48Zm-3.14,10.67h0l-.89-.17Zm84.45,87c2.15-1.79,4.22-3.76,6.33-5.62s4.2-4,6.22-6.12a106.8,106.8,0,0,0,11.32-14.13A77.72,77.72,0,0,0,339,248.81a64,64,0,0,0,3.77-20.64,62.8,62.8,0,0,1-3,20.37,81.45,81.45,0,0,1-14.49,25.1,117.3,117.3,0,0,1-9.22,9.86c-.81.74-1.62,1.53-2.43,2.23l-2.43,2.1C309.64,289.2,308.05,290.66,306.37,291.94Zm-90.05-96.37a11,11,0,0,1,3.53,0,6.37,6.37,0,0,1,1.23-1.52,35.06,35.06,0,0,1,4.23-3.14c-.5-.22-.15-.45,0-.63l.41-.51-2.45,1.41-2.46,1.48C219.3,193.57,217.82,194.73,216.32,195.57Zm-6.63,11.18-.24,0-.41-.69Zm.74,1.15.23-.16C210.83,208,210.7,208,210.43,207.9Zm2.13-1.38a1.58,1.58,0,0,0-.52,0ZM231,218.16l-2.53-2.79c.78.92,1.57,1.84,2.37,2.75Z"/><path d="M25.72,7.78v.51c-.3,0-.54-.16-.74-.49a6.24,6.24,0,0,0,3.44,4.83,10.71,10.71,0,0,0,6,.78,1.83,1.83,0,0,0,2.74-.31,2.36,2.36,0,0,0,.05-3A2.29,2.29,0,0,1,37,9.28a17,17,0,0,0-1.53-6.62c.07.52.15,1.06.22,1.58a5.05,5.05,0,0,0-.93-1.63l-.25.68a3.65,3.65,0,0,0-5.12-3,5.9,5.9,0,0,0-3.81,6.29Z"/><path d="M24.21,15.92c-.48-1.47-.86-2.95-1.2-4.43l.08-.48L22,12.53l.09-.08c1.86-.48,3.64.25,5.2,1l.64.16a1.59,1.59,0,0,0,1-.47,1.67,1.67,0,0,0,.23-2.23c-.2-.23-.38-.49-.57-.73-1-2.32-3.42-4.6-6.43-2.95a6.46,6.46,0,0,0-1.64,2,2.23,2.23,0,0,0-.14,3.11,2,2,0,0,0,3-.21l.27.58-.62.06c.92-.64,1.84-.16,2.77-.11l1,.51,1.31-2.72-.67-.09a2.93,2.93,0,0,1-.11.33,16.52,16.52,0,0,1-3.84-.59l-1.85-.19A1.52,1.52,0,0,0,20.5,11.4l.12.95v-.5c.79,1.57,1.84,3,2.63,4.59a.48.48,0,0,0,.69.25A.63.63,0,0,0,24.21,15.92Z"/><path d="M19.64,12.48a1.11,1.11,0,0,0-.41-.89l-.27.07c0,.2,0,.46.07.72C19.07,12.9,19.4,12.81,19.64,12.48Z"/><path d="M19,11.66l0-.3-.07.31h0Z"/><path d="M146.18,53.64c1,0,1.92.11,2.89.12h8.72l5.83-.27,2.92-.13,2.92-.27,5.85-.53,5.83-.77,2.93-.4c1-.14,1.93-.33,2.91-.49l5.82-1c.53-.09.94-.28.93-.41s-.43-.11-.91,0l-5.82,1-2.9.5-2.91.39-5.82.76-5.82.52-2.91.26-2.91.13-5.8.26c-1.94,0-3.87,0-5.8,0s-3.86,0-5.77-.12c-.52,0-.94.08-1,.21S145.7,53.61,146.18,53.64Z"/><path d="M264.17,33.93c-.31.25-.24.34.15.2a4.39,4.39,0,0,0,1.2-.65c.26-.22.19-.32-.15-.21A4.29,4.29,0,0,0,264.17,33.93Z"/><path d="M264.89,42.63,262,44.57c-.94.61-1.83,1.21-2.66,1.81a4.51,4.51,0,0,1-1,.52c.2.09-.13.44-.86.91C243.17,57.12,226.37,65,209.2,71.4a1.63,1.63,0,0,1-.62.66,19.68,19.68,0,0,1-6,2.48l-1.95.46c-2,.5-3.94.9-5.9,1.35s-3.93.92-5.92,1.27l-5.95,1.09-3,.52-3,.41a47.7,47.7,0,0,1-5.49,1.42c-3.4.89-6.85,1.62-10.32,2.42s-7,1.29-10.63,1.9c.47.1.75.26.75.46s-.49.5-1.17.7a13.06,13.06,0,0,1-2.58.37l-3,.2c2.86-.06,5.73,0,8.56-.24a11.28,11.28,0,0,1,1.14,0c3.11-.31,6.26-.56,9.42-1.11A213.52,213.52,0,0,0,203,75.83a263.27,263.27,0,0,0,35.42-15.57,4.39,4.39,0,0,1,1.31-.56c.26,0,.27.12-.13.36-1.71,1.08-3.42,2.08-5.12,3.07l-5.06,3C226,68.08,222.59,70,219.1,71.88a170.88,170.88,0,0,1-23.35,10.37,242.28,242.28,0,0,1-67,13.81A335.58,335.58,0,0,1,92.31,94.2a240,240,0,0,1-36.92-6.71c-2.15-.49-4.24-1.2-6.35-1.81l-6.31-1.94-6.19-2.23c-2.06-.76-4.14-1.46-6.14-2.35l-1.52-.64-.75-.32-.29-.1-1-.39-2.06-.78c-1.36-.53-2.73-1-4.05-1.66-2.66-1.21-5.29-2.46-7.92-3.75S7.62,68.7,5,67.25a8.39,8.39,0,0,1-4.4-4.2,6,6,0,0,1,0-5.28,6.49,6.49,0,0,1,5.34-3.31l-.83-.62L4,52.57a6.07,6.07,0,0,1-1.5-4.15V46.55c.54-3.19.21-6.62,1.22-9.75l.94-.74v-.44A5.49,5.49,0,0,1,5.3,32.1l1-1a14.47,14.47,0,0,1,3.91-2.72,5,5,0,0,1,1.28-1.2,7,7,0,0,1,2.6-3.86,1,1,0,0,1,1-1,1,1,0,0,1,.5.14h0c.09-.41.11-.53.18-1-.18-.31-.27-.51-.27-.51-.53-.77-.53-.77-1-1.45a4.61,4.61,0,0,1-.06-1.6c1.08-2.42,1.09-2.41,1.88-3.18l.3-.15a7.65,7.65,0,0,1-.25-.88,2.13,2.13,0,0,1,.07-.5c.36-.46.36-.46.43-.69a2.66,2.66,0,0,1,.27-.35c.66-.29.66-.29.79-.43a1.6,1.6,0,0,1,.34-.13l.64.14-.39,1.68.47-.29-.31.66.33-.56.06.56V13c.56.79.57.79.87,1a1.29,1.29,0,0,0,.64.43c.1-.17.18-.28.18-.28.61.85.61.85,1.19,1.7a3.41,3.41,0,0,1-.09.48.41.41,0,0,1,.5.14l.33.42h.13l0,0,.52.05h.11c.35,0,.85.1,2.24.16a5.84,5.84,0,0,1,.5.76,2.34,2.34,0,0,1,0-.38c0-.26.44-.61.4-.7a14.45,14.45,0,0,0-.82-1.62c-.27-.54-.58-1.06-.89-1.56-.63-1-1.31-2-2-3a.85.85,0,0,1,.91-1.41c5.23.72,9.1,4.4,11.53,9.17.84.95,1.72,1.87,2.61,2.79v-.33l.56.91a.6.6,0,0,0,.08.08c0-.42-.05-.84-.07-1.26-.08-.18-.16-.36-.25-.54a17.26,17.26,0,0,1-2.68-3.45c-.76-1.28-1.4-2.66-2.17-3.91A33,33,0,0,1,31.6,8.32a.75.75,0,0,1,.08-1,.63.63,0,0,1,.92,0,18.75,18.75,0,0,1,5.3,4.51,15.35,15.35,0,0,1,3.37,6.45,3.87,3.87,0,0,1,1.42,2.15l0,0v-1c.4.56.35,1.29.69,1.86l.4-1.07c1.13,1.14,2.46,2.11,3.71,3.16A20.24,20.24,0,0,1,49.3,25,11.68,11.68,0,0,1,50.86,27a3.07,3.07,0,0,1,.25.26,14.26,14.26,0,0,1,2.17,0,5.15,5.15,0,0,1,.53.07l.14,0,.35.15.71.32c1,.43,1.89,1,2.92,1.43-.66-.39-1.28-.82-1.9-1.25L54.2,26.73c.66.24,1.48.6,2.2.91s1.49.65,2.26.95c1.52.64,3,1.34,4.56,2.17,8.36,4.32,17.78,9.72,22,13.8A204,204,0,0,0,113,51a200.66,200.66,0,0,0,28.55,2.18,3.05,3.05,0,0,1,2,.45c.11.26-.54.5-1.53.53s-1.72.1-2.58.12h-7.78c-1.73,0-3.47-.15-5.2-.22s-3.48-.15-5.22-.31a189.21,189.21,0,0,1-20.74-2.94,167.34,167.34,0,0,0,35.19,5.94c1.55,0,3.1.12,4.66.1s3.07.06,4.6.18a187.72,187.72,0,0,0,46.12-5.14,240.28,240.28,0,0,0,37.41-12.44c8.86-3.79,17.13-7.86,25.29-12.12s16.07-8.9,24.29-13.85c2.13-1.39,4.32-2.38,4.84-2.17s-.82,1.54-3,3q-12.52,8.37-25.67,15.58a287.16,287.16,0,0,1-27.14,12.8,223.21,223.21,0,0,1-28.71,9.57,193.58,193.58,0,0,1-30.27,5.49c-2.23.26-4.44.35-6.64.53l-3.29.24c-1.09.06-2.18.07-3.27.11a.58.58,0,0,1,.13.26c0,.36-.37.7-1,1l3.75-.08,3.76-.21,3.77-.2,1.9-.1,1.89-.17c13.89-2.36,27.54-5.78,42.11-9.7,10-2.75,19.08-5.4,28.24-8.62A311.09,311.09,0,0,0,272,23.31a3.14,3.14,0,0,1,1.08-.52c.2,0,0,.2-.39.49-1.77,1.2-3.58,2.36-5.39,3.54l-2.73,1.78-2.79,1.68-5.65,3.37-5.8,3.19c1.4-.32,2.33-.32,2.44.13s-.67,1.31-2,2.32l5.45-2.67c1.13-.53,2.09-.83,2.16-.62s-.7.85-1.78,1.37c-3.71,1.84-7.4,3.72-11.18,5.38-1.89.83-3.75,1.74-5.66,2.52L234,47.63a267.6,267.6,0,0,1-27.8,10.43,6.82,6.82,0,0,1,3.12.38h0l4.41-1.39a373,373,0,0,0,76-39.68c.47-.32.9-.52,1-.44s-.25.38-.68.66c-3.67,2.41-7.27,4.9-11,7.17-1.87,1.15-3.67,2.38-5.57,3.46l-5.61,3.35,0,0c.33-.12.45-.06.15.2a4.78,4.78,0,0,1-1.17.7c-.39.14-.41,0-.16-.2a385.91,385.91,0,0,1-43.25,21.41,338,338,0,0,0,40.41-18.41c1.35-.91,2.72-1.75,4.07-2.7a3.23,3.23,0,0,1,1.1-.5c.15,0-.08.26-.46.51l-1.12.78c2.43-1.39,4.52-2.13,4.75-1.66s-1.73,2.15-4.26,3.62c-6.8,3.94-13.66,7.73-20.76,11.06L245,47.55l-2.2,1.35a300.3,300.3,0,0,0,32.56-16.51c.88-.54,1.72-.88,1.84-.73s-.52.71-1.42,1.26a274.37,274.37,0,0,1-27.9,16.43,267.59,267.59,0,0,1-30,13.23c-3.25,1.63-6.57,3.17-9.9,4.79-3.38,1.47-6.78,3-10.27,4.47.92-.2,1.84-.45,2.75-.72A177.91,177.91,0,0,0,232.28,58.6c9.89-4.89,19.36-10.21,29.36-15.93a2,2,0,0,1,1.06-.42c.1,0-.19.33-.7.62-9.73,5.68-18.65,10.93-28.81,15.89l-6.26,3-6.23,2.74-3.08,1.37-3.09,1.27-6.12,2.56c2.12-.72,4.22-1.48,6.3-2.23l3.11-1.14,3.06-1.25L227,62.54l5.94-2.74,3-1.37L238.76,57,244.58,54,250.34,51l2.88-1.54c1-.52,1.9-1.08,2.86-1.62a8,8,0,0,1,1.83-.85.9.9,0,0,1,.32-.33c1.8-1.28,3.84-2.53,5.85-3.91a3.5,3.5,0,0,1,1.18-.56C265.51,42.1,265.31,42.32,264.89,42.63ZM28.21,27.41c0-.09,0-.17,0-.24l.2.55-.21,1.5Zm-9.72-.94h0c.09-.49.16-.85.16-.85C18.58,26,18.53,26.24,18.49,26.47Zm93.09,28-6.24-1.22c-1-.19-2.06-.46-3.08-.73l-3.05-.82a113.15,113.15,0,0,1-11.91-4l5.89,1.45,2.25.78,2.27.68L102.29,52c1.52.49,3.07.87,4.62,1.26ZM26.83,19.84a13.45,13.45,0,0,1,0,3.17,3.71,3.71,0,0,1,1.31.77c1,.94,2,1.85,3,2.81.13-.5.36-.27.52-.23l.48.19a41.31,41.31,0,0,1-2.85-3.4A28.86,28.86,0,0,1,26.83,19.84Zm-8.7-4.73a1.5,1.5,0,0,0,0-.22l.67-.39Zm-1.12.7.09.21C16.87,16.18,16.88,16.06,17,15.81Zm.83,1.93a1.59,1.59,0,0,0,.05-.48ZM5.34,35.51l2.93-2.37-2.9,2.21Z"/><path d="M163.89,106l-.57-.28c.12-.18.48-.2,1-.11a10.3,10.3,0,0,0-7.08-.49,9.44,9.44,0,0,0-2.45,1.16,7.19,7.19,0,0,0-1.62,1.49c-1.15.11-1.56.73-1.14,1.3a2.45,2.45,0,0,0,1.11.73,4.33,4.33,0,0,0,1.62.29,5.81,5.81,0,0,1,.89.2c.6.24,1.18.47,1.8.69l1.94.66,2,.67c.69.21,1.4.42,2.12.66-.64-.29-1.29-.57-1.91-.82a20.32,20.32,0,0,0,2.44.62l-.58-.48c3.13,1.3,6.4,1.69,7.06.21s-1.78-4.52-5.11-5.89Z"/><path d="M156.15,101.39a25.36,25.36,0,0,1,2.57.46c.86.19,1.73.4,2.61.67l.47.28-1-1.41,0,.09c-.41,1.37-2.21,2-3.77,2.64l-.53.27a.64.64,0,0,0-.11.73,2.57,2.57,0,0,0,2.16,1.06l1.07,0c.71.12,1.55.23,2.36.3a12.23,12.23,0,0,0,2.28,0c1.41-.18,2.46-.7,2.33-2-.06-.61-.85-1.41-1.38-2.12a3.83,3.83,0,0,0-3.39-1.79c-1.31.1-1.86,1-1.33,1.92l-.75-.1.26-.4c.2.85-.8,1.17-1.36,1.68l-1.06.39,2.06,1.86.46-.32c-.11-.08-.29-.2-.29-.21a15.17,15.17,0,0,1,2.78-1.82l1.25-.94c.19-.47-.29-1.15-1.07-1.51l-1.1-.41.54.25a53.61,53.61,0,0,0-6.1-.31c-.32,0-.58.14-.57.36S155.83,101.36,156.15,101.39Z"/><path d="M162,100a2.24,2.24,0,0,0,1.19.21l0-.22-.82-.33C161.85,99.39,161.79,99.65,162,100Z"/><path d="M163.26,100l.35.15-.3-.21,0,0Z"/><path d="M172.35,249.68c-1,24.83-2.15,49.81-3.7,74.78-.05.83,0,1.54.22,1.58s.33-.6.37-1.38c1.6-25,2.78-49.83,3.78-74.66a2.81,2.81,0,0,0-.31-1.64C172.52,248.31,172.37,248.9,172.35,249.68Z"/><path d="M149.69,435.91c-.06-.59-.16-.57-.26,0a10.62,10.62,0,0,0-.07,2.05c0,.5.17.48.26,0A10.43,10.43,0,0,0,149.69,435.91Z"/><path d="M141.47,430.48c-.28-3.5-.59-6.82-1-9.78a9.21,9.21,0,0,1-.05-1.64c-.18.21-.38-.46-.51-1.72-2.62-24.85-4.51-51.57-6.25-77.89a2.43,2.43,0,0,1-.65-1.11,29.56,29.56,0,0,1-1.12-9.28l.11-2.86c.18-11.55.39-23.07.8-34.56a70.65,70.65,0,0,1-.62-8.05c-.91-9.95-1.72-19.93-2.25-30.14-.21.64-.46,1-.73,1-.63-.2-1.09-2.57-1-5.33,0-1.39.07-2.77.16-4.16-.46,4-.54,8-.8,12a14.75,14.75,0,0,1-.12,1.59c-.09,4.37-.09,8.79,0,13.28.42,39.22,4,76.09,7.74,112.67a7.61,7.61,0,0,1,0,2.07c-.1.36-.27.29-.36-.38-3.5-23.07-8.23-43-11-69.14-1.63-15.52-3-30.95-4-46.48-.26-3.89-.52-7.78-.71-11.68l-.3-5.86c-.1-2-.23-3.91-.21-5.87a57.55,57.55,0,0,1,5.28-23.65c4-8.29,9-16.37,12.8-24.51,1-2.08,1.82-4,2.71-6.34L140,191c.23-.64.47-1.17.67-1.62.42-.92.82-1.7,1.13-2.49A15.64,15.64,0,0,0,143,177.4a13.17,13.17,0,0,0-1.75-4.35c-.44-.69-.94-1.4-1.61-2.35a19,19,0,0,1-2.19-4,16.26,16.26,0,0,1-1.06-5.26,17.24,17.24,0,0,1,.56-5.16,23.67,23.67,0,0,1,4-7.76,12.14,12.14,0,0,0,1-1.58l0-.06h0s0,0,.09.06l.35.18a6,6,0,0,0,.73.32l.39.13.2.08a2.79,2.79,0,0,0,.66.17s0,0,0,0h-.22l-.29,0-.21.05.1,0c.06,0,0,0-.4.18l-.3.17-.36.24a3.72,3.72,0,0,0-.45.33l-.11.08h0a.68.68,0,0,0-.19-.3,1.72,1.72,0,0,0-.23-.26,14.83,14.83,0,0,0-1.14-1c-.79-.6-1.58-1.2-2.29-1.82a21.6,21.6,0,0,1-3.72-3.67,9.83,9.83,0,0,1-1.76-4.15,3.78,3.78,0,0,1-.13-1.21,10.21,10.21,0,0,1,0-1.24,10.38,10.38,0,0,1,.52-2.26,6.41,6.41,0,0,1,.64-1.38,7.82,7.82,0,0,1,.85-1.27c.16-.2.27-.42.46-.62l.61-.58a16.47,16.47,0,0,1,1.41-1.11c.25-.18.51-.36.8-.53a6,6,0,0,1,.87-.49c.66-.28,1.32-.56,2-.87,1.32-.56,2.83-.95,4.2-1.41l2.08-.7c.42-.15.63-.25.93-.37a9,9,0,0,0,1.34-.69,1.64,1.64,0,0,0,.28-.24h0l.08.09c.19.24.46.52.59.7a5.27,5.27,0,0,0,.51.56l.28.26.2.2a4.09,4.09,0,0,0,.44.37c.17.11.21.17.34.24s.28.14.31.17l.2.09c.13,0,.19,0,.11,0a1.2,1.2,0,0,0-.34.11,2.18,2.18,0,0,0-.6.34,4.37,4.37,0,0,0-.86.62l-.19.18-.28.24a6.51,6.51,0,0,0-.54.51c-.17.18-.33.36-.49.55a3,3,0,0,1-.28.32c-.08.09,0,0-.06.05H149c-.11,0-.22,0-.38-.07-.65-.16-1.64-.4-2.72-.58-.56-.1-1.08-.2-1.75-.28l-2-.07c-.67,0-1.37-.2-2.05-.3a76.52,76.52,0,0,1-8.86-2l-1.67-1a3.48,3.48,0,0,0-.43-.25l-.55-.2-1.09-.39a9.6,9.6,0,0,1-1-.41l-.74-.57c-.49-.38-1-.75-1.44-1.13s-.93-.76-1.36-1.15l-.43-.39-.59-.52c-.79-.69-.48-1.59-1.35-2.25l-.5-.54a2.13,2.13,0,0,1-.43-.54l-.67-1.12-.54-1.15c-.18-.38-.49-.79-.73-1.19-.64-.8.09-1.58-.74-2.49l-.37-.65a3.65,3.65,0,0,1,0-.66l.06-.65c0-.1,0-.23-.08-.35l-.16-.37c-.18-.49-.56-1-.31-1.44l.16-.68.09-.34a1.4,1.4,0,0,0-.07-.39c-.12-.52-.26-1-.36-1.57l.56-1.37.14-.34a1.67,1.67,0,0,0,0-.39l0-.8c0-.53-.05-1.06,0-1.6l.1-1.61,0-.41c0-.14.13-.21.19-.32l.49-.61,1-1.22a9.8,9.8,0,0,0,.56-1.46l.52-1.48,0-.1,0,0a.53.53,0,0,0-.06-.1l-.26-.42-.13-.2c0-.06,0-.08,0-.11l.09-.2.34-.81.35-.8.27-.71.54-1.32c.35-.85.73-1.72,1.11-2.56.28-.69.6-1.36.92-2a17.62,17.62,0,0,1,1-1.81,12.73,12.73,0,0,1,2.07-2.62c1.34-1.28,2.7-1.68,3.68-1,1.19.9,1.55,3.11,1.13,5.54l.65-1c.39-.45.8-.93,1.19-1.35,1.15-1.18,2.36-1.94,3.46-1.87h1.43c2.32.53,5.11.33,7.47,1.74l.38,1,.37,0a3.76,3.76,0,0,1,2.85,1.17l.65,1.14A12.12,12.12,0,0,1,150.25,87a3.87,3.87,0,0,1,.66,1.41,5.63,5.63,0,0,1,2.63,3.22.8.8,0,0,1,.58,1.08.9.9,0,0,1-.34.36h0c.35.19.46.24.89.45a5.19,5.19,0,0,1,.61,0c1-.16,1-.15,1.84-.24a5.91,5.91,0,0,1,1.65.59c2,1.84,2.06,1.88,2.51,2.8,0,.1,0,.2,0,.29.78.17.85.2,1.07.26a3.51,3.51,0,0,1,.51.31c.34.49.34.49.56.66a4.24,4.24,0,0,1,.26.37c0,.6,0,.6.09.76a1.12,1.12,0,0,1,0,.29l-.47.33-1.65-1.12.09.46-.56-.53.44.49L161,99l.78.37a4.51,4.51,0,0,0-1.54.07,1.75,1.75,0,0,0-.77.22l.21.25-2.33.07-.44-.24c0,.15-.16.26-.39.28l-.59,0-.06.1,0,0-.29.32,0,.07h0c-.21.22-.5.53-1.29,1.33-.34,0-.69,0-1,.05l.37.1c.26.08.36.47.48.48,1.36.08,2.7.14,4,.16s2.75.09,4.18.22a1.6,1.6,0,0,1,1.34.5c.3.37.17.7-.28.77a10.57,10.57,0,0,1-3.23,1.43,24.65,24.65,0,0,1-3.84.74c-2.7.31-5.47.42-8,.5-.56.08-1.14.21-1.68.33l-1.52.36.23.06c-.24,0-.61,0-.55.15v0h.2l.4.08h.46a17.28,17.28,0,0,1,3.9-.45c.75,0,1.45,0,2.23,0l2.38.12a16.87,16.87,0,0,1,2.68.36l2.76.61a1.37,1.37,0,0,1,1,.54c.14.26-.1.44-.53.4-1.25.14-2.45.16-3.76.24-.64,0-1.24,0-1.89,0H152.8c-1.26,0-2.38-.08-3.51-.12l-1.58-.16a3.49,3.49,0,0,1-.37-.07l-.31,0-.1.06a1.6,1.6,0,0,1-.85.31h0l.49.08c-.17.11-.6,0-.81.14l.62.2a1.53,1.53,0,0,0-.47,1.3c0,.47.22.84.25,1.2a.25.25,0,0,1,0,.08c.35.12.69.21,1,.3l.22.06,0,0,.18.09.34.16c.46.21.92.39,1.39.59a13.61,13.61,0,0,1-1.67-.91c.64.3,1.35.56,2,.79.08,0,.15.06.24.08l.12,0,.06,0,.12.08,2,1.3c.69.46,1.38.91,2.14,1.46a23.24,23.24,0,0,1,2.48,2l.47.44c.16.16.34.36.5.55a9.79,9.79,0,0,1,1,1.36,6.6,6.6,0,0,1,.5.93,5.38,5.38,0,0,1,.42,1.1,9.15,9.15,0,0,1,.28,1.26,10.29,10.29,0,0,1,0,1.36,7.57,7.57,0,0,1-1.79,4.32,9.85,9.85,0,0,1-2.31,2,23.93,23.93,0,0,1-3.64,1.78c-.51.21-1.22.47-1.15.46a2.15,2.15,0,0,0-.36.11,10.1,10.1,0,0,0-1.47.54,1.7,1.7,0,0,0-.62.51,1.62,1.62,0,0,1-.1.18,1.34,1.34,0,0,1,0,.2.88.88,0,0,0,.1.35,5.1,5.1,0,0,0,1,1l.28.24.14.13.07.07h0l0,0s0,0,0,0l.17.14a15.24,15.24,0,0,1,2.66,2.62,12.07,12.07,0,0,1,2,3.71,11.8,11.8,0,0,1,.48,2c.06.7.1,1.39.09,2.06a14.87,14.87,0,0,1-.29,2,16,16,0,0,1-.57,1.73,14.44,14.44,0,0,1-.71,1.37c-.23.38-.48.75-.71,1.08a27,27,0,0,1-2.1,2.77c-.59.71-1.1,1.3-1.48,1.82a6.29,6.29,0,0,0-1.29,2.82,4.53,4.53,0,0,0,0,1.36,5.24,5.24,0,0,0,.63,1.7c.79,1.5,2,3.54,3,5.59a55.89,55.89,0,0,1,4.12,12.93c.43,2.24.7,4.55.94,6.72l.19,1.56a12.34,12.34,0,0,0,.26,1.32c.19.9.43,1.79.65,2.67.51,1.91,1.05,3.86,1.67,5.77s1.29,3.9,2,5.84c1.39,3.88,3,7.81,4.42,11.7a98.86,98.86,0,0,1,6.27,23.36c.21,1.6,0,3-.29,3.32s-.71-.91-.89-2.51a98.86,98.86,0,0,0-3.91-16.79c-1.81-5.63-4-11.26-6-16.92-1-2.81-1.9-5.64-2.73-8.46-.4-1.39-.78-2.79-1.12-4.19l-.26-1-.22-1c-.15-.65-.29-1.31-.41-2-.26-1.15-.34-2.8-.52-4.38s-.37-3.24-.66-4.85a53.32,53.32,0,0,0-2.55-9.41,50.71,50.71,0,0,1,2.15,7.84,66.23,66.23,0,0,1,1,8.05c0,.66.09,1.28.15,1.86s.16,1.06.26,1.62c.2,1.12.39,2.15.66,3.38.5,2.36,1,4.7,1.7,7.1,2.51,9.54,5.88,19.2,7.53,28.89q.74,3.72,1.18,7.46a45.07,45.07,0,0,1,.24,7.33c-.1,12.38-.44,24.45-.7,36.58s-.52,24.33-.66,37c-.25,21.6-.68,40.49-1.65,62-1.42,30.2-4,57.7-9.73,87.51a44.11,44.11,0,0,1-2.06,8.09c-.35.48,0-2.4.64-6.38,2.48-15.54,4.13-31,5.39-46.52s2.1-31,2.73-46.58c1.27-31.19,1.81-62.74,2.85-95.25.21-7,.42-13.92.62-20.78a.66.66,0,0,1-.36.17c-.49,0-.93-.67-1.29-1.77q-.37,11.69-1.05,23.53c.5,21.93.65,43.9-1,67.28-1.16,16.05-2.9,30.57-4.53,45.41-.78,18.82-1.8,37.58-3.6,56.59a8.15,8.15,0,0,1-.28,1.81c-.1.28-.14-.13-.09-.9.86-13.07,1.38-26.46,1.76-40-.5,2.12-1,3.39-1.54,3.21s-.9-1.83-1.14-4.36l-.46,9.2c-.11,1.89-.38,3.38-.62,3.32s-.39-1.55-.31-3.35q.75-18.76,1.49-37.47c.14-15,.2-29.91.24-44.93a10.67,10.67,0,0,1-1.85,4.32h0c0,2.32-.05,4.64-.08,6.95q.9,31.82.27,64.3t-2.9,65.29a8.2,8.2,0,0,1-.18,1.57,6.09,6.09,0,0,1,0-1.41q1.23-19.81,2-39.52v.06c-.08.53-.2.62-.24,0a11,11,0,0,1,.07-2.06c.09-.6.2-.55.25-.05.86-24.47,1.07-48.77.6-72.75q-.43,33.42-1.66,66.81c.05,2.42.1,4.84.16,7.31a7.74,7.74,0,0,1-.19,1.82c-.08.18-.17-.31-.17-1l0-2c-.17,4.21-.65,7.46-1.12,7.38-.48-.24-.83-3.86-.78-8.24,0-11.72.05-23.39.08-35.07l-.1-3.79c-.1-1.28-.21-2.54-.31-3.81-.39,18.16-.74,36.28-.87,54.3a7.81,7.81,0,0,1-.27,2.89,7,7,0,0,1-.33-2.77c-1.09-31.76-2.38-63.92-3.13-96.21-1.38-10.62-2.86-21.26-4.34-32.11,0,1.37,0,2.75,0,4.13.17,17.55,1.45,33.79,2.69,49.88s2.48,32,3.07,49a4.06,4.06,0,0,1-.13,1.67c-.1.09-.22-.48-.25-1.35-.72-16.59-2.11-31.74-3.3-48.21-1-13.64-1.91-26.61-3.15-39.29.83,25.91,3,50.77,4.4,76.43a15.94,15.94,0,0,1,0,3,1.52,1.52,0,0,1,.18.63c.41,3.21.74,6.71,1,10.29a6.77,6.77,0,0,1-.05,1.91C141.68,431.66,141.56,431.24,141.47,430.48Zm2.5-329.2.2,0-.54.07-1.11-.28S143.21,101.16,144,101.28Zm4.87-6.89h0l.71.31ZM156.23,194c-.14-.8-.27-1.59-.36-2.35l-.2-2.71c-.14-1.89-.33-3.82-.65-5.73a48.83,48.83,0,0,0-3.1-11,47.22,47.22,0,0,0-2.48-5.1,13.31,13.31,0,0,1-1.74-3.74,4.31,4.31,0,0,1,0-1.35,6.67,6.67,0,0,1,.33-1.45,9.17,9.17,0,0,1,1.73-2.73,9.33,9.33,0,0,0-1.62,2.69,5.7,5.7,0,0,0-.27,2.67c0,1.12,1.68,3.53,2.95,6.15a49.18,49.18,0,0,1,3.09,8.12,52.09,52.09,0,0,1,1.62,8.61c.16,1.44.24,2.9.33,4.29,0,.66.07,1.37.14,1.9S156.13,193.43,156.23,194Zm-5.15-92.28a22.68,22.68,0,0,1-2.82-.73,5.08,5.08,0,0,1-1.26.7c-1.2.53-2.44,1-3.54,1.53.34.12.07.24,0,.34s-.24.19-.33.28c.61-.26,1.24-.5,1.88-.71s1.37-.42,2.05-.6,1.32-.34,2-.49A12.47,12.47,0,0,1,151.08,101.74Zm8.87-4,.22.12.09.63Zm-.21-1.08-.26,0C159.41,96.36,159.53,96.42,159.74,96.63Zm-2.37-.21a2.25,2.25,0,0,0,.46.22ZM145.45,81.19l1.18,3.18-1-3.13Z"/></g></g></svg>