<svg xmlns="http://www.w3.org/2000/svg" viewBox="0 0 400.76 492.69"><g id="Layer_2" data-name="Layer 2"><g id="Layer_1-2" data-name="Layer 1"><path d="M25.72,17v.51c-.3,0-.54-.16-.74-.49a6.24,6.24,0,0,0,3.44,4.83,10.71,10.71,0,0,0,6,.78,1.83,1.83,0,0,0,2.74-.31,2.36,2.36,0,0,0,.05-3,2.56,2.56,0,0,1-.26-.78,16.85,16.85,0,0,0-1.52-6.62c.07.52.15,1.06.22,1.58a5,5,0,0,0-.93-1.63l-.26.68a3.64,3.64,0,0,0-5.11-3,5.9,5.9,0,0,0-3.81,6.29Z"/><path d="M24.21,25.18c-.48-1.47-.86-2.95-1.2-4.43l.08-.48L22,21.79l.09-.08c1.86-.48,3.64.25,5.2,1l.64.16a1.64,1.64,0,0,0,1-.47,1.67,1.67,0,0,0,.23-2.23c-.2-.23-.38-.49-.57-.73-1-2.32-3.42-4.6-6.43-2.95a6.46,6.46,0,0,0-1.64,2,2.23,2.23,0,0,0-.14,3.11,2,2,0,0,0,3-.21l.27.58L23,22c.92-.64,1.84-.16,2.77-.12l1,.52,1.31-2.73-.67-.08a2.93,2.93,0,0,1-.11.33,16.52,16.52,0,0,1-3.84-.59l-1.85-.19a1.52,1.52,0,0,0-1.15,1.51l.12.94v-.49c.79,1.56,1.84,3,2.63,4.59a.47.47,0,0,0,.69.24A.62.62,0,0,0,24.21,25.18Z"/><path d="M19.64,21.74a1.11,1.11,0,0,0-.41-.89l-.27.07c0,.2,0,.46.07.72C19.07,22.16,19.4,22.07,19.64,21.74Z"/><path d="M19,20.92l0-.3c0,.11-.05.21-.07.31h0Z"/><path d="M146.18,62.9c1,0,1.92.11,2.89.12h8.72l5.83-.27,2.92-.14,2.92-.26,5.85-.53,5.83-.77,2.93-.4c1-.14,1.93-.33,2.91-.49l5.82-1c.53-.09.94-.28.93-.41s-.43-.12-.91,0l-5.82,1-2.9.5-2.91.38-5.82.77-5.82.52-2.91.25-2.91.14-5.8.26c-1.94,0-3.87,0-5.8,0s-3.86,0-5.77-.12c-.52,0-.94.08-1,.21S145.7,62.87,146.18,62.9Z"/><path d="M264.17,43.18c-.31.26-.24.35.15.21a4.17,4.17,0,0,0,1.2-.66c.26-.21.19-.31-.15-.2A4.55,4.55,0,0,0,264.17,43.18Z"/><path d="M264.89,51.89,262,53.83c-.94.61-1.83,1.21-2.66,1.81a4.51,4.51,0,0,1-1,.52c.2.09-.13.43-.86.9-14.32,9.32-31.12,17.16-48.29,23.6a1.57,1.57,0,0,1-.62.65,19.52,19.52,0,0,1-6,2.49l-1.95.46c-2,.5-3.94.89-5.9,1.35s-3.93.92-5.92,1.27L182.84,88l-3,.53-3,.4a47.59,47.59,0,0,1-5.49,1.43c-3.4.89-6.85,1.61-10.32,2.42s-7,1.28-10.63,1.89c.47.11.75.27.75.47s-.49.5-1.17.7a13.06,13.06,0,0,1-2.58.37l-3,.2c2.86-.06,5.73,0,8.56-.24a11.28,11.28,0,0,1,1.14,0c3.11-.31,6.26-.56,9.42-1.11A213.52,213.52,0,0,0,203,85.09a263.27,263.27,0,0,0,35.42-15.57,4.39,4.39,0,0,1,1.31-.56c.26,0,.27.11-.13.36-1.71,1.08-3.42,2.08-5.12,3.07l-5.06,3c-3.39,1.94-6.78,3.84-10.27,5.74a170.88,170.88,0,0,1-23.35,10.37,242.36,242.36,0,0,1-67,13.81,333.06,333.06,0,0,1-36.45-1.87,238.76,238.76,0,0,1-36.92-6.7c-2.15-.5-4.24-1.2-6.35-1.81L42.73,93l-6.19-2.23c-2.06-.76-4.14-1.46-6.14-2.35l-1.52-.64-.75-.32-.29-.1-1-.39-2.06-.78c-1.36-.53-2.73-1-4.05-1.66-2.66-1.21-5.29-2.47-7.92-3.76S7.62,78,5,76.51a8.39,8.39,0,0,1-4.4-4.2A6,6,0,0,1,.6,67a6.47,6.47,0,0,1,5.34-3.31l-.83-.62L4,61.83a6.07,6.07,0,0,1-1.5-4.15V55.81c.54-3.19.21-6.62,1.22-9.75l.94-.74v-.44a5.49,5.49,0,0,1,.65-3.52l1-1a14.47,14.47,0,0,1,3.91-2.72,5,5,0,0,1,1.28-1.2,7,7,0,0,1,2.6-3.86,1,1,0,0,1,1-1,1,1,0,0,1,.5.14h0c.09-.41.11-.53.18-1-.18-.31-.27-.51-.27-.51-.53-.77-.53-.77-1-1.45a4.61,4.61,0,0,1-.06-1.6c1.08-2.42,1.09-2.41,1.88-3.18l.3-.15a8.33,8.33,0,0,1-.25-.88,2.13,2.13,0,0,1,.07-.5c.36-.46.36-.46.43-.69a2.66,2.66,0,0,1,.27-.35c.66-.29.66-.29.79-.43a1.6,1.6,0,0,1,.34-.13l.64.14-.39,1.68.47-.29-.31.66.33-.57L19,23v-.72c.56.79.57.79.87,1a1.37,1.37,0,0,0,.64.43l.18-.29c.61.85.61.85,1.19,1.71a3.41,3.41,0,0,1-.09.48.41.41,0,0,1,.5.14l.33.42h.13l0,0,.52.05h.11c.35,0,.85.1,2.24.16a5.84,5.84,0,0,1,.5.76,2.43,2.43,0,0,1,0-.38c0-.26.44-.61.4-.71a15.21,15.21,0,0,0-.82-1.61c-.27-.54-.58-1.06-.89-1.56-.63-1-1.31-2-2-3a.85.85,0,0,1,.91-1.41c5.23.72,9.1,4.4,11.53,9.17.84.95,1.72,1.87,2.61,2.79v-.33l.56.91.08.08c0-.42-.05-.84-.07-1.26-.08-.18-.16-.36-.25-.54a17,17,0,0,1-2.68-3.46c-.76-1.27-1.4-2.65-2.17-3.9a33.55,33.55,0,0,1-1.83-4.34.75.75,0,0,1,.08-1,.63.63,0,0,1,.92-.05A18.59,18.59,0,0,1,37.9,21a15.35,15.35,0,0,1,3.37,6.45,3.88,3.88,0,0,1,1.42,2.14l0,0v-1c.4.56.35,1.29.69,1.86l.4-1.08c1.13,1.15,2.46,2.12,3.71,3.17a20.24,20.24,0,0,1,1.78,1.69,11.68,11.68,0,0,1,1.56,1.92c.09.08.17.17.25.25a17.41,17.41,0,0,1,2.17,0l.53.08.14,0,.35.16.71.32c1,.43,1.89,1,2.92,1.43-.66-.39-1.28-.82-1.9-1.25L54.2,36c.66.24,1.48.59,2.2.91s1.49.64,2.26,1A48.24,48.24,0,0,1,63.22,40c8.36,4.32,17.78,9.72,22,13.8A202.45,202.45,0,0,0,113,60.24a199.22,199.22,0,0,0,28.55,2.19,3.13,3.13,0,0,1,2,.44c.11.27-.54.51-1.53.54s-1.72.1-2.58.12h-7.78c-1.73,0-3.47-.15-5.2-.22s-3.48-.15-5.22-.31a191.66,191.66,0,0,1-20.74-2.94A168,168,0,0,0,135.78,66c1.55,0,3.1.12,4.66.1s3.07.06,4.6.18a187.72,187.72,0,0,0,46.12-5.14A240.28,240.28,0,0,0,228.57,48.7c8.86-3.8,17.13-7.86,25.29-12.12s16.07-8.91,24.29-13.85c2.13-1.4,4.32-2.38,4.84-2.17s-.82,1.53-3,3q-12.52,8.37-25.67,15.57A287.24,287.24,0,0,1,227.21,51.9a223.21,223.21,0,0,1-28.71,9.57A195.93,195.93,0,0,1,168.23,67c-2.23.26-4.45.35-6.64.53l-3.29.24c-1.09,0-2.18.07-3.27.1a.67.67,0,0,1,.13.27c0,.35-.37.7-1,1l3.75-.08,3.76-.21,3.77-.21,1.9-.09,1.89-.17c13.89-2.36,27.54-5.78,42.11-9.7,10-2.76,19.08-5.4,28.24-8.63A309.14,309.14,0,0,0,272,32.57a3.14,3.14,0,0,1,1.08-.52c.2,0,0,.2-.39.49-1.77,1.2-3.58,2.36-5.39,3.54l-2.73,1.77-2.79,1.69-5.65,3.37-5.8,3.19c1.4-.32,2.33-.33,2.44.12s-.67,1.32-2,2.33l5.45-2.67c1.13-.53,2.09-.84,2.16-.63s-.7.86-1.78,1.38c-3.71,1.84-7.4,3.72-11.18,5.38-1.89.83-3.75,1.74-5.66,2.52L234,56.89a265.29,265.29,0,0,1-27.8,10.42,6.79,6.79,0,0,1,3.12.39h0l4.41-1.39a373,373,0,0,0,76-39.68c.47-.32.9-.52,1-.44s-.25.38-.68.66c-3.67,2.41-7.27,4.9-11,7.17-1.87,1.15-3.67,2.38-5.57,3.46l-5.62,3.35,0,0c.33-.12.45-.06.15.2a4.78,4.78,0,0,1-1.17.7c-.39.14-.41,0-.16-.2a387.63,387.63,0,0,1-43.25,21.41,336.53,336.53,0,0,0,40.41-18.42c1.35-.9,2.72-1.74,4.07-2.69a3.3,3.3,0,0,1,1.1-.51c.15,0-.08.27-.46.52l-1.12.78c2.43-1.39,4.52-2.13,4.75-1.66s-1.73,2.15-4.26,3.62c-6.8,3.94-13.66,7.73-20.76,11.06L245,56.81l-2.2,1.35a302.12,302.12,0,0,0,32.56-16.51c.88-.55,1.72-.88,1.84-.73s-.52.71-1.42,1.26a276.24,276.24,0,0,1-27.9,16.43,267.59,267.59,0,0,1-30,13.23c-3.25,1.63-6.57,3.17-9.9,4.79s-6.78,3-10.27,4.47c.92-.2,1.84-.45,2.75-.72a177.91,177.91,0,0,0,31.89-12.52c9.89-4.89,19.36-10.21,29.36-15.93a2.2,2.2,0,0,1,1.06-.43c.1.06-.19.34-.7.63C252.27,57.8,243.35,63.06,233.19,68l-6.26,3-6.23,2.74-3.08,1.37-3.09,1.27L208.41,79c2.12-.72,4.22-1.48,6.3-2.23l3.11-1.14,3.06-1.25L227,71.8l5.94-2.74,3-1.37,2.91-1.47,5.82-2.93,5.76-3.09,2.88-1.54c1-.51,1.9-1.07,2.86-1.61a8.53,8.53,0,0,1,1.83-.86,1,1,0,0,1,.32-.32c1.8-1.28,3.84-2.53,5.85-3.91a3.5,3.5,0,0,1,1.18-.56C265.51,51.36,265.31,51.58,264.89,51.89ZM28.21,36.67v-.24c.06.17.12.35.2.55l-.21,1.5Zm-9.72-.94h0c.09-.49.16-.85.16-.85C18.58,35.23,18.53,35.5,18.49,35.73Zm93.09,28-6.24-1.22c-1-.19-2.06-.46-3.08-.73L99.21,61A113.15,113.15,0,0,1,87.3,57l5.89,1.45,2.25.78,2.27.67,4.58,1.38c1.52.49,3.07.87,4.62,1.26ZM26.83,29.1a13.45,13.45,0,0,1,0,3.17,3.84,3.84,0,0,1,1.31.76c1,.95,2,1.86,3,2.82.13-.5.36-.27.52-.23l.48.19a43.05,43.05,0,0,1-2.85-3.4A27.72,27.72,0,0,1,26.83,29.1Zm-8.7-4.73,0-.22.67-.4ZM17,25.06l.09.22C16.87,25.44,16.89,25.32,17,25.06ZM17.84,27a1.54,1.54,0,0,0,.05-.48ZM5.34,44.77,8.27,42.4l-2.9,2.21Z"/><path d="M126.31,24.87l.26,0c0,.16-.16.27-.36.35,2.46,0,3.94-2.31,4.34-4.49a1.1,1.1,0,0,0-1.18-1.85,1.72,1.72,0,0,1-.44.06,8.48,8.48,0,0,0-3.68.26h.86a2.85,2.85,0,0,0-1,.4l.31.18a2.53,2.53,0,0,0,.26,5.06Z"/><path d="M130.15,26.32c-.79.11-1.57.18-2.36.24l-.23-.08.6.71,0-.06a4.46,4.46,0,0,1,1.24-2.62l.18-.32a.75.75,0,0,0-.06-.57.8.8,0,0,0-1.09-.34l-.45.24c-1.31.34-2.86,1.51-2.44,3.17.1.39.49.67.78,1a1.11,1.11,0,1,0,1.85-1.24l.33-.09-.06.32c-.19-.53.18-1,.33-1.45l.41-.5L128,23.79l-.14.35a.76.76,0,0,0,.15.08,9.72,9.72,0,0,1-.86,2l-.35.94a.67.67,0,0,0,.6.7l.49,0-.25,0c.89-.28,1.74-.7,2.63-1a.28.28,0,1,0-.12-.54Z"/><path d="M127.83,28.36a.68.68,0,0,0-.51.14v.14l.37,0C128,28.69,128,28.52,127.83,28.36Z"/><path d="M127.33,28.64h-.16l.15.06v-.05Z"/><path d="M149.2,8.35a37.86,37.86,0,0,0,3.7-2s0-.1,0-.17-.12-.1-.15-.08a41.26,41.26,0,0,1-3.7,2s0,.1,0,.17S149.16,8.36,149.2,8.35Z"/><path d="M162.82,9a.22.22,0,0,0,.14.17c.06,0,.1,0,.09-.07a.34.34,0,0,0-.14-.17C162.84,8.88,162.81,8.92,162.82,9Z"/><path d="M166.85,14.67a1.89,1.89,0,0,0-.11.74c0,.05,0,.06-.07.05a.42.42,0,0,1,.12.32,15.21,15.21,0,0,1-2,4.47,1.77,1.77,0,0,1,.15.31c.14.34.1.61-.11.69l-.18,0c-.63.23-1.24.49-1.88.7a.85.85,0,0,1-.17.52,12.93,12.93,0,0,1-.59,2,.83.83,0,0,1,.26.24c.18.25.22.51.09.59l-.17.16.67-.22h.1a4.18,4.18,0,0,0,.57-.47,15.25,15.25,0,0,0,3.23-6c0-.06,0-.08.11,0a.27.27,0,0,1,.12.18c-.06,2,.31,4.3-.21,6a30.3,30.3,0,0,1-2.26,5.57c-1.46,1.13-2.35,2.77-3.5,4.35-.39.54-.79,1-1.21,1.52-.07.07-.07.09-.2.21l-.34.31-.67.61c-.45.41-.91.81-1.36,1.2-1.82,1.58-3.68,3.09-5.58,4.61A3.32,3.32,0,0,1,146,40.36l-.37.26-.69.26a2.9,2.9,0,0,1-2.05,0l-.86-.3c-1.41-.75-3-1.06-4.35-1.93l-.26-.52-.2-.06a2.85,2.85,0,0,1-1.58-.73l-.39-.58a6.67,6.67,0,0,1-.87-2.15,2.56,2.56,0,0,1-.43-.75,3.42,3.42,0,0,1-1.55-1.67.5.5,0,0,1-.37-.58.48.48,0,0,1,.13-.23h0l-.47-.19-.28.09-.82.33a2.21,2.21,0,0,1-.79-.12c-1.06-.75-1.06-.75-1.34-1.21a.94.94,0,0,1,0-.16l-.47.05a1.26,1.26,0,0,1-.24-.07c-.18-.22-.18-.22-.29-.27a1.27,1.27,0,0,1-.14-.17c-.06-.35-.06-.35-.12-.43a.94.94,0,0,1,0-.18l.16-.31.79.33-.09-.26.29.21-.24-.21.29,0-.36-.07a1.91,1.91,0,0,0,.62-.35.78.78,0,0,0,.3-.29l-.11-.12,1-.46.22.09a.23.23,0,0,1,.14-.24l.25-.13,0-.07,0,0,.1-.26,0-.06h0c.07-.18.16-.44.41-1.13a3.16,3.16,0,0,1,.46-.16l-.2,0c-.13,0-.23-.29-.28-.29a17.44,17.44,0,0,0-3.59,1.35.43.43,0,0,1-.59,0,.42.42,0,0,1,0-.59,9,9,0,0,1,6.43-5.1c.62-.31,1.24-.63,1.85-1l-.16-.05.55-.16.06,0-.63-.15-.31,0A26.82,26.82,0,0,1,130,21.21a21.77,21.77,0,0,1-2.52.55.36.36,0,0,1-.5-.13.37.37,0,0,1,.13-.5c1.85-1.87,4.4-3.44,7.11-3.37a2.14,2.14,0,0,1,1.32-.44h0l-.49-.15c.35-.14.71,0,1.06-.07l-.45-.37c1.61-.8,3-2.09,4.8-2.44l.18-.07a9.71,9.71,0,0,1,.94-1.79l-.45.12a1.42,1.42,0,0,1,.51-.89,3.11,3.11,0,0,1,3.36.48,50,50,0,0,0,3.69-3.73c.05-.08.19,0,.31.09s.16.3.11.37a16.78,16.78,0,0,1-2.26,3.23,15.53,15.53,0,0,0,2.91-1.46l.28-.31a.71.71,0,0,1,.38-.18,13,13,0,0,0,3-2.76,28.87,28.87,0,0,0,1.94-3.13A12.4,12.4,0,0,1,158.36.08c.14-.18.5,0,.78.27s.41.74.26.92c-1.91,3.18-3.6,6.55-6.59,8.6l-1,.64.11.14a1.74,1.74,0,0,1,.31.56,9.63,9.63,0,0,1,1.21-.58A6.59,6.59,0,0,1,156,7.75a9.18,9.18,0,0,1,2.71-.63c.66-.85,1.28-1.76,2-2.59,0,0,.08,0,.14,0s.1.14.08.19a12.79,12.79,0,0,1-1,2.4,2.38,2.38,0,0,1,.76.68,2.29,2.29,0,0,1,.43.94l.42-.29c.09-.05.25,0,.37.18s.16.34.07.4l-1.7,1.21c-.52.68-1.06,1.34-1.62,2a3.36,3.36,0,0,1,.77.61h0l.29-.26A13.86,13.86,0,0,1,164.49,7s.11,0,.17.07.08.16,0,.18A10.79,10.79,0,0,0,163,8.58h0a.3.3,0,0,1,.14.17c0,.07,0,.1-.09.08a.25.25,0,0,1-.14-.18A15.06,15.06,0,0,0,160.36,12a17.43,17.43,0,0,1,2.95-2.25l.12-.52s.09,0,.15,0,.09.15.07.19l0,.13c.21-.11.59.08.88.46s.35.81.15.94c-.46.47-.94.91-1.44,1.33l-.12.19,0,.31c.91-.47,1.85-.9,2.79-1.32.06-.06.2,0,.31.13s.14.29.07.35a28.22,28.22,0,0,1-3.34,4.41c0,.94,0,1.89-.07,2.82a1.06,1.06,0,0,0,.2-.12c1.54-1.19,1.58-3.85,2.81-5.34,0-.05.1,0,.15,0s.09.15.05.18a15.63,15.63,0,0,0-1.2,2.82,14.68,14.68,0,0,0-.91,2.4c1-1,1.56-2.6,2.44-3.79,0-.07.1-.07.19,0a.34.34,0,0,1-.05-.11,2.61,2.61,0,0,1,.12-.78c0-.05.07-.05.14,0A.21.21,0,0,1,166.85,14.67Zm-30.48,11-.12,0h.3l.69.33Zm-1.87,4.64h0l-.39-.18Zm13.72-18.2a4.63,4.63,0,0,1-2.15.9l.36-.42A16.16,16.16,0,0,1,148.22,12.14ZM132.49,25.42a5.91,5.91,0,0,1,1.54.39,2.17,2.17,0,0,1,.57-.56,19.71,19.71,0,0,1,1.86-1.1c-.22-.14-.07-.22,0-.29l.17-.21c-.69.32-1.4.63-2.13.94A16.4,16.4,0,0,1,132.49,25.42Zm-3.55,3.93-.11,0-.11-.37Zm.2.61.11,0C129.31,30.07,129.25,30.05,129.14,30Zm1.05-.24a.65.65,0,0,0-.23-.06Zm7.07,8L136.45,36l.74,1.63Z"/><path d="M163.89,115.21l-.57-.28c.12-.18.48-.2,1-.11a10.3,10.3,0,0,0-7.08-.49,9.44,9.44,0,0,0-2.45,1.16,7.19,7.19,0,0,0-1.62,1.49c-1.15.11-1.56.73-1.14,1.3a2.45,2.45,0,0,0,1.11.73,4.33,4.33,0,0,0,1.62.29,5.81,5.81,0,0,1,.89.2c.6.24,1.18.47,1.8.69l1.94.65,2,.67c.69.22,1.4.43,2.12.67-.64-.29-1.29-.57-1.91-.82A19.86,19.86,0,0,0,164,122l-.58-.48c3.13,1.3,6.4,1.69,7.06.21s-1.78-4.52-5.11-5.89Z"/><path d="M156.15,110.65a25.36,25.36,0,0,1,2.57.46c.86.19,1.73.4,2.61.67l.47.28-1-1.41,0,.09c-.41,1.37-2.21,2.05-3.77,2.64l-.53.27a.64.64,0,0,0-.11.73,2.57,2.57,0,0,0,2.16,1.06l1.07,0a23,23,0,0,0,2.36.3,12.26,12.26,0,0,0,2.28,0c1.41-.18,2.46-.7,2.33-2-.06-.61-.85-1.41-1.38-2.13a3.84,3.84,0,0,0-3.39-1.78c-1.31.1-1.86,1-1.33,1.92l-.75-.1.26-.4c.2.85-.8,1.17-1.36,1.68l-1.06.38,2.06,1.87.46-.32-.29-.21a15.17,15.17,0,0,1,2.78-1.82l1.25-.94c.19-.47-.29-1.15-1.07-1.51l-1.1-.41.54.25a53.68,53.68,0,0,0-6.1-.32c-.32,0-.58.14-.57.37S155.83,110.62,156.15,110.65Z"/><path d="M162,109.23a2.13,2.13,0,0,0,1.19.2l0-.21-.82-.33C161.85,108.65,161.79,108.91,162,109.23Z"/><path d="M163.26,109.22l.35.15-.3-.21,0,0Z"/><path d="M172.35,258.94c-1,24.83-2.15,49.81-3.7,74.78-.05.83,0,1.54.22,1.58s.33-.6.37-1.38c1.6-25,2.78-49.83,3.78-74.66a2.79,2.79,0,0,0-.31-1.64C172.52,257.57,172.37,258.16,172.35,258.94Z"/><path d="M149.69,445.17c-.06-.59-.16-.57-.26,0a10.75,10.75,0,0,0-.07,2.06c0,.5.17.48.26,0A10.31,10.31,0,0,0,149.69,445.17Z"/><path d="M141.47,439.74c-.28-3.5-.59-6.82-1-9.78a9.21,9.21,0,0,1-.05-1.64c-.18.2-.38-.46-.51-1.73-2.62-24.84-4.51-51.56-6.25-77.88a2.48,2.48,0,0,1-.65-1.12,29.45,29.45,0,0,1-1.12-9.27l.11-2.86c.18-11.55.39-23.07.8-34.56a70.65,70.65,0,0,1-.62-8c-.91-10-1.72-19.93-2.25-30.14-.21.64-.46,1-.73,1-.63-.2-1.09-2.57-1-5.33,0-1.39.07-2.77.16-4.16-.46,4-.54,8-.8,12a14.75,14.75,0,0,1-.12,1.59c-.09,4.37-.09,8.79,0,13.28.42,39.22,4,76.09,7.74,112.67a7.61,7.61,0,0,1,0,2.07c-.1.36-.27.29-.36-.38-3.5-23.07-8.23-43.05-11-69.14-1.63-15.52-3-30.95-4-46.49-.26-3.88-.52-7.77-.71-11.67l-.3-5.86c-.1-2-.23-3.92-.21-5.88a57.34,57.34,0,0,1,5.28-23.64c4-8.29,9-16.37,12.8-24.51,1-2.08,1.82-4,2.71-6.34l.63-1.67c.24-.65.48-1.17.68-1.63.42-.92.82-1.69,1.13-2.48a15.64,15.64,0,0,0,1.21-9.44,13.09,13.09,0,0,0-1.75-4.35c-.44-.69-.94-1.4-1.61-2.36a18.53,18.53,0,0,1-2.19-4,16.15,16.15,0,0,1-1.06-5.25,17.24,17.24,0,0,1,.56-5.16,23.57,23.57,0,0,1,4-7.76,12.14,12.14,0,0,0,1-1.58l0-.06h0s0,0,.09.06l.35.18a6,6,0,0,0,.73.32l.39.13a.88.88,0,0,1,.2.08,2.79,2.79,0,0,0,.66.17l0,0a.72.72,0,0,0-.22,0l-.29,0-.21.05.1,0c.06,0,0,0-.4.18l-.3.17-.36.24a5.15,5.15,0,0,0-.45.32l-.11.09h0a.68.68,0,0,0-.19-.3,1.72,1.72,0,0,0-.23-.26,14.83,14.83,0,0,0-1.14-1c-.79-.6-1.58-1.2-2.29-1.82a21.63,21.63,0,0,1-3.72-3.68,9.73,9.73,0,0,1-1.76-4.14,3.78,3.78,0,0,1-.13-1.21,10.21,10.21,0,0,1,0-1.24,10.38,10.38,0,0,1,.52-2.26,6.41,6.41,0,0,1,.64-1.38,7.41,7.41,0,0,1,.85-1.27c.16-.2.27-.42.46-.62l.61-.58a16.47,16.47,0,0,1,1.41-1.11c.25-.18.51-.36.8-.53a6,6,0,0,1,.87-.49c.66-.28,1.32-.56,2-.87,1.32-.56,2.83-.95,4.2-1.42l2.08-.69c.42-.15.63-.25.93-.38a8.21,8.21,0,0,0,1.34-.68,1.64,1.64,0,0,0,.28-.24h0l.08.1c.19.24.46.52.59.7a5.27,5.27,0,0,0,.51.56l.28.26.2.2a3.13,3.13,0,0,0,.44.36c.17.12.21.17.34.25s.28.14.31.17l.2.09c.13,0,.19,0,.11.05a1.2,1.2,0,0,0-.34.11,2.16,2.16,0,0,0-.6.33,4.87,4.87,0,0,0-.86.63l-.19.18-.28.24a6.51,6.51,0,0,0-.54.51c-.17.18-.33.36-.49.55a2.28,2.28,0,0,1-.28.31c-.08.09,0,0-.06.05l-.09,0-.38-.07c-.65-.16-1.64-.4-2.72-.58-.56-.1-1.08-.2-1.75-.28l-2-.07c-.67,0-1.37-.2-2.06-.3a76.82,76.82,0,0,1-8.85-2l-1.67-1a3.48,3.48,0,0,0-.43-.25l-.55-.2-1.09-.39a7.92,7.92,0,0,1-1-.42l-.74-.56c-.49-.38-1-.75-1.44-1.13s-.93-.76-1.36-1.15l-.44-.4-.58-.51c-.79-.69-.48-1.59-1.35-2.26l-.5-.53a2.13,2.13,0,0,1-.43-.54l-.67-1.12-.54-1.15c-.18-.38-.49-.79-.73-1.19-.64-.8.09-1.59-.74-2.49l-.37-.66a3.58,3.58,0,0,1,0-.65l.06-.65c0-.11,0-.23-.08-.35l-.16-.37c-.18-.49-.56-1-.31-1.44l.16-.68.09-.34a1.4,1.4,0,0,0-.07-.39c-.12-.53-.26-1.06-.36-1.58l.56-1.36.14-.34a1.67,1.67,0,0,0,0-.39l0-.8c0-.53-.05-1.06,0-1.6l.1-1.61,0-.41c0-.14.13-.21.19-.32l.49-.61,1-1.22a9.8,9.8,0,0,0,.56-1.46l.52-1.48,0-.1,0,0a.53.53,0,0,0-.06-.1l-.26-.42-.13-.2c0-.06,0-.08,0-.11l.09-.21.34-.8.35-.81.27-.7.54-1.32c.35-.85.73-1.73,1.11-2.56s.6-1.36.92-2a17.62,17.62,0,0,1,1-1.81,12.47,12.47,0,0,1,2.07-2.62c1.34-1.28,2.7-1.68,3.68-1,1.19.89,1.55,3.11,1.13,5.54.22-.33.43-.66.64-1,.4-.45.81-.93,1.2-1.35,1.15-1.18,2.36-1.94,3.46-1.87h1.43c2.32.53,5.11.33,7.47,1.74l.38,1,.37,0a3.72,3.72,0,0,1,2.85,1.17l.65,1.14a12.06,12.06,0,0,1,1.21,4.22,3.87,3.87,0,0,1,.66,1.41,5.63,5.63,0,0,1,2.63,3.22.79.79,0,0,1,.58,1.07.92.92,0,0,1-.34.37h0c.35.19.46.24.89.44.38,0,.61,0,.61,0a16.94,16.94,0,0,1,1.84-.24,5.91,5.91,0,0,1,1.65.59c2,1.84,2.06,1.88,2.51,2.8,0,.1,0,.2,0,.29.78.17.85.2,1.07.26a3.51,3.51,0,0,1,.51.31c.34.49.34.49.56.66a4.24,4.24,0,0,1,.26.37c0,.6,0,.6.09.76a1.19,1.19,0,0,1,0,.29l-.47.33L161.66,108l.09.45-.56-.52.44.49-.63-.24.78.37a4.24,4.24,0,0,0-1.54.07,1.62,1.62,0,0,0-.77.22l.21.25-2.33.07-.44-.24c0,.15-.16.26-.39.28l-.59.05-.06.09,0,0-.29.32,0,.07h0c-.21.21-.5.53-1.29,1.33-.34,0-.69,0-1,0l.37.1c.26.08.36.46.48.47,1.36.09,2.7.15,4,.17s2.75.08,4.18.22a1.57,1.57,0,0,1,1.34.5c.3.37.17.7-.28.76a10.35,10.35,0,0,1-3.23,1.44,23.55,23.55,0,0,1-3.84.73c-2.7.32-5.47.43-8,.51-.56.08-1.14.21-1.68.33l-1.52.36.23.06c-.24,0-.61,0-.55.15v0h.2l.4.08h.46a17.84,17.84,0,0,1,3.9-.46c.75,0,1.45,0,2.23,0l2.38.11a15.83,15.83,0,0,1,2.68.37l2.76.61a1.37,1.37,0,0,1,1,.54c.14.26-.1.44-.53.4-1.25.14-2.45.16-3.76.24-.64,0-1.24,0-1.89,0l-1,0h-.89c-1.26,0-2.38-.08-3.51-.13l-1.58-.15a3.49,3.49,0,0,1-.37-.07c-.09,0-.28-.06-.31,0l-.1.06a1.6,1.6,0,0,1-.85.31h0l.49.08c-.17.11-.6,0-.81.14l.62.2a1.53,1.53,0,0,0-.47,1.3c0,.46.22.84.25,1.2a.18.18,0,0,1,0,.08c.35.12.69.21,1,.3l.22.06,0,0,.18.09.34.16c.46.21.92.39,1.39.59a15.1,15.1,0,0,1-1.67-.91c.64.3,1.35.56,2,.78a1.7,1.7,0,0,0,.24.09l.12,0,.06,0,.12.08,2,1.29c.69.46,1.38.91,2.14,1.47a22,22,0,0,1,2.48,2l.47.44c.16.16.34.36.5.55a9.79,9.79,0,0,1,1,1.36,6.6,6.6,0,0,1,.5.93,5.38,5.38,0,0,1,.42,1.1,8.84,8.84,0,0,1,.28,1.26,10.14,10.14,0,0,1,0,1.35,7.57,7.57,0,0,1-1.79,4.33,10.36,10.36,0,0,1-2.31,2,23.93,23.93,0,0,1-3.64,1.78c-.51.21-1.22.47-1.15.46-.13,0-.24.07-.36.1a11.51,11.51,0,0,0-1.47.55,1.7,1.7,0,0,0-.62.51,1.62,1.62,0,0,1-.1.18,1.15,1.15,0,0,1,0,.19.88.88,0,0,0,.1.36,5.1,5.1,0,0,0,1,1l.28.24.14.13.07.06v0l0,0s0,0,0,0l.17.14A15.24,15.24,0,0,1,153,149.6a12.07,12.07,0,0,1,2,3.71,11.59,11.59,0,0,1,.48,2c.06.7.1,1.39.09,2.06a10.92,10.92,0,0,1-.86,3.71,13.54,13.54,0,0,1-.71,1.38c-.23.38-.48.75-.71,1.08a28.21,28.21,0,0,1-2.1,2.76c-.59.72-1.1,1.31-1.48,1.83a6.29,6.29,0,0,0-1.29,2.82,4.53,4.53,0,0,0,0,1.36,5.24,5.24,0,0,0,.63,1.7c.79,1.5,2,3.54,3,5.58a56,56,0,0,1,4.12,12.94c.43,2.23.7,4.55.94,6.72l.19,1.56a12.34,12.34,0,0,0,.26,1.32c.19.9.43,1.79.65,2.67.51,1.91,1.05,3.85,1.67,5.77s1.29,3.89,2,5.84c1.39,3.88,3,7.81,4.42,11.7a98.86,98.86,0,0,1,6.27,23.36c.21,1.6,0,3-.29,3.31s-.71-.9-.89-2.5a98.86,98.86,0,0,0-3.91-16.79c-1.81-5.63-4-11.26-6-16.92-1-2.81-1.9-5.65-2.73-8.46-.4-1.39-.78-2.79-1.12-4.19l-.26-1.05-.22-1c-.15-.65-.29-1.31-.41-2-.26-1.15-.34-2.8-.52-4.39s-.37-3.23-.66-4.84a53.32,53.32,0,0,0-2.55-9.41,50.71,50.71,0,0,1,2.15,7.84,66.23,66.23,0,0,1,1,8.05c0,.66.09,1.28.15,1.86s.16,1.06.26,1.62c.2,1.12.39,2.15.66,3.37.5,2.37,1,4.71,1.7,7.11,2.51,9.54,5.88,19.2,7.53,28.89q.74,3.72,1.18,7.46a45.07,45.07,0,0,1,.24,7.33c-.1,12.38-.44,24.44-.7,36.58s-.52,24.33-.66,37c-.25,21.6-.68,40.49-1.65,62-1.42,30.2-4,57.7-9.73,87.51A44.11,44.11,0,0,1,153,488c-.35.48,0-2.4.64-6.38,2.48-15.54,4.13-31,5.39-46.52s2.1-31,2.73-46.59c1.27-31.18,1.81-62.73,2.85-95.24.21-7,.42-13.92.62-20.78a.66.66,0,0,1-.36.17c-.49,0-.93-.67-1.29-1.77q-.37,11.69-1.05,23.53c.5,21.93.65,43.9-1,67.27-1.16,16.05-2.9,30.58-4.53,45.42-.78,18.82-1.8,37.58-3.6,56.58a8.16,8.16,0,0,1-.28,1.82c-.1.27-.14-.13-.09-.9.86-13.07,1.38-26.47,1.76-40-.5,2.13-1,3.4-1.54,3.22s-.9-1.83-1.14-4.36l-.46,9.19c-.11,1.9-.38,3.39-.62,3.33s-.39-1.55-.31-3.35q.75-18.76,1.49-37.47c.14-15,.2-29.92.24-44.93a10.74,10.74,0,0,1-1.85,4.32h0c0,2.32-.05,4.64-.08,6.95q.9,31.82.27,64.3t-2.9,65.28a8.24,8.24,0,0,1-.18,1.58,6.16,6.16,0,0,1,0-1.42q1.23-19.8,2-39.51v.06c-.08.53-.2.62-.24,0a11,11,0,0,1,.07-2.06c.09-.6.2-.55.25-.05.86-24.47,1.07-48.77.6-72.75q-.43,33.42-1.66,66.8c.05,2.43.1,4.85.16,7.32a7.58,7.58,0,0,1-.19,1.81c-.08.19-.17-.3-.17-1l0-2c-.17,4.21-.65,7.45-1.12,7.38-.48-.24-.83-3.86-.78-8.24q0-17.58.08-35.07l-.1-3.79c-.1-1.28-.21-2.54-.31-3.81-.39,18.15-.74,36.28-.87,54.3a7.81,7.81,0,0,1-.27,2.89,7,7,0,0,1-.33-2.77c-1.09-31.76-2.38-63.92-3.13-96.21-1.38-10.62-2.86-21.26-4.34-32.11,0,1.36,0,2.75,0,4.13.17,17.55,1.45,33.79,2.69,49.88s2.48,32,3.07,49a4.09,4.09,0,0,1-.13,1.67c-.1.09-.22-.49-.25-1.35-.72-16.59-2.11-31.74-3.3-48.21-1-13.64-1.91-26.61-3.15-39.29.83,25.91,3,50.77,4.4,76.43a16,16,0,0,1,0,3,1.52,1.52,0,0,1,.18.63c.41,3.21.74,6.71,1,10.29a6.68,6.68,0,0,1-.05,1.9C141.68,440.92,141.56,440.5,141.47,439.74Zm2.5-329.2.2,0-.54.07-1.11-.27S143.21,110.42,144,110.54Zm4.87-6.89h0l.71.31Zm7.39,99.63c-.14-.8-.27-1.6-.36-2.36l-.2-2.7c-.14-1.89-.33-3.83-.65-5.73a48.83,48.83,0,0,0-3.1-11.05,46.32,46.32,0,0,0-2.48-5.1,13.31,13.31,0,0,1-1.74-3.74,4.31,4.31,0,0,1,0-1.35,6.67,6.67,0,0,1,.33-1.45,9.33,9.33,0,0,1,1.73-2.74,9.36,9.36,0,0,0-1.62,2.7,5.68,5.68,0,0,0-.27,2.67c0,1.12,1.68,3.53,2.95,6.15a49.18,49.18,0,0,1,3.09,8.12,52.17,52.17,0,0,1,1.62,8.6c.16,1.45.24,2.91.33,4.29,0,.67.07,1.38.14,1.91S156.13,202.69,156.23,203.28ZM151.08,111a22.68,22.68,0,0,1-2.82-.73,5.08,5.08,0,0,1-1.26.7c-1.2.53-2.44,1-3.54,1.53.34.12.07.24,0,.34a3,3,0,0,0-.33.28c.61-.26,1.24-.5,1.88-.71s1.37-.42,2.05-.6,1.32-.34,2-.49A11.5,11.5,0,0,1,151.08,111Zm8.87-4,.22.12.09.63Zm-.21-1.08-.26,0C159.41,105.62,159.53,105.68,159.74,105.89Zm-2.37-.21a3,3,0,0,0,.46.22ZM145.45,90.44l1.18,3.19-1-3.13Z"/><path d="M293.31,217.94l-.34-.34c.12-.25.37-.29.69-.22a4.29,4.29,0,0,0-5-.41,4.9,4.9,0,0,0-1.05.72,8.08,8.08,0,0,0-.91,1,9.26,9.26,0,0,0-1.33,2.43c-.88.11-1.29,1.25-.93,2.4a2.31,2.31,0,0,0,2.13,1.84,2.18,2.18,0,0,1,.64.29,16,16,0,0,0,2.54,1.81c.42.25.83.43,1.24.65s.83.41,1.24.58l-1.11-.89a2.79,2.79,0,0,0,1.42.37l-.32-.62a2.33,2.33,0,0,0,2.47.38,3.16,3.16,0,0,0,1.58-2.34c.59-2.47-.18-5.64-2.13-7Z"/><path d="M288.48,211.63a24.1,24.1,0,0,1,3.71,1.83l.29.39L292,212v.12a7.23,7.23,0,0,1-3.35,3.44l-.43.37a1.64,1.64,0,0,0-.17,1.07,1.81,1.81,0,0,0,1.45,1.64h.77c2,.58,4.66.36,5.17-3a7.75,7.75,0,0,0-.42-2.53,2.16,2.16,0,0,0-2-2.15,1.87,1.87,0,0,0-1.45,2.37c-.18-.06-.37-.13-.54-.17.09-.19.19-.34.28-.51,0,1.09-.83,1.56-1.33,2.26l-.86.51,1.24,2.72.38-.48-.18-.29c.36-.49.71-1,1.08-1.44a6.86,6.86,0,0,1,1.25-1.16l1.1-1.25a1.74,1.74,0,0,0-.41-1.86l-.71-.53.34.32c-.75-.21-1.52-.36-2.29-.51s-1.54-.2-2.33-.39a.42.42,0,0,0-.53.41A.65.65,0,0,0,288.48,211.63Z"/><path d="M293.32,210.29c.27.19.53.39.84.28l.1-.25-.53-.43C293.35,209.59,293.23,209.89,293.32,210.29Z"/><path d="M294.26,210.32l.22.18-.17-.26,0,0Z"/><path d="M278.82,339.93a77.74,77.74,0,0,0,35.07,6.48,66.31,66.31,0,0,0,17.28-3.29,68,68,0,0,0,16-7.89c.69-.43,1.18-.9,1.13-1s-.6.19-1.23.58a66.51,66.51,0,0,1-15.85,7.85,65.46,65.46,0,0,1-17.11,3.29,73.92,73.92,0,0,1-17.66-1.12,81.69,81.69,0,0,1-17.14-5.22,3.23,3.23,0,0,0-1.54-.4C277.65,339.29,278.13,339.62,278.82,339.93Z"/><path d="M375.09,232.45c.41.54.49.46.19-.17a11.46,11.46,0,0,0-1.25-2c-.36-.44-.45-.35-.18.18A13.92,13.92,0,0,0,375.09,232.45Z"/><path d="M385.17,234c2.18,3.71,4,7.38,5.63,10.69a13.71,13.71,0,0,1,.71,1.91c.06-.29.53.42,1.1,1.89a91.56,91.56,0,0,1,5.92,23.07,90.08,90.08,0,0,1-.49,24.79c-.27,2.09-.77,4.12-1.16,6.2l-.77,3.06c-.25,1-.51,2-.85,3.05-.67,2-1.21,4.1-2,6.07s-1.51,4-2.46,5.93a96.89,96.89,0,0,1-13.71,21.77,4.29,4.29,0,0,1-.62,1.41,38.54,38.54,0,0,1-3.16,4.1c-.7.81-1.55,1.59-2.41,2.43s-1.76,1.7-2.75,2.49l-3,2.31a95.81,95.81,0,0,1-19.78,11.65,90.6,90.6,0,0,1-22,6.44c-.76.2-1.54.43-2.37.6l-2.56.47-2.72.45c-.94.11-1.9.19-2.88.27A106.06,106.06,0,0,1,273,372.34c.77.4,1.21.73,1.15.92-.38.37-3.56-.14-7.06-1.39-1.75-.64-3.53-1.23-5.25-1.94A122.71,122.71,0,0,0,277,375.29c.75.21,1.44.41,2.06.61a109.66,109.66,0,0,0,17.83,2.72,99.56,99.56,0,0,0,39.22-5.11,95.32,95.32,0,0,0,32.94-19.66A104.54,104.54,0,0,0,381.61,340a103.37,103.37,0,0,0,9.52-15.78,98.65,98.65,0,0,0,6.24-17.09,96.15,96.15,0,0,0,2.89-17.65,17.5,17.5,0,0,1,.27-2.68c.12-.45.25-.36.23.52a100.83,100.83,0,0,1-2.74,22,93.79,93.79,0,0,1-7.58,21,96.54,96.54,0,0,1-13,19.58,95.4,95.4,0,0,1-19.34,17.25c-1.11.81-2.31,1.48-3.48,2.21s-2.33,1.47-3.56,2.11c-2.44,1.29-4.87,2.64-7.44,3.73a100.61,100.61,0,0,1-15.8,5.61,110,110,0,0,1-33.14,3.35,121.55,121.55,0,0,1-16.57-1.94l-4.09-.87-2-.44-2-.54L266,379.28,262,378c-2.69-.82-5.27-1.9-7.91-2.89-1.31-.53-2.59-1.11-3.88-1.67s-2.59-1.12-3.85-1.77l-3.8-1.9c-1.27-.64-2.49-1.37-3.73-2.06-2.49-1.37-4.95-2.88-7.38-4.47a121.9,121.9,0,0,1-26.68-25.17,102.15,102.15,0,0,1-10.31-16.28,93.48,93.48,0,0,1-7.06-18.8,102.91,102.91,0,0,1-2-39.31,126.77,126.77,0,0,1,25.06-59.4,128.6,128.6,0,0,1,18.07-19.18c.81-.75,1.69-1.41,2.55-2.11l1.29-1,.29-.25,1-.84c.64-.55,1.27-1.11,1.92-1.65,1.34-1,2.68-2.05,4-3.05l2.05-1.49c.69-.48,1.41-.93,2.12-1.39q2.14-1.36,4.32-2.7c1.46-.87,3-1.64,4.5-2.46s3-1.64,4.63-2.32a11.63,11.63,0,0,1,6.94-1.53,6.27,6.27,0,0,1,4.8,3,6.2,6.2,0,0,1-.72,6.39l1.11-.35,1.88-.19a6.59,6.59,0,0,1,4.66,1.2l1.62,1.17c2.39,2.41,5.45,4.14,7.31,6.9l0,1.2.35.27a5.53,5.53,0,0,1,2.41,2.77l.18,1.41a14.36,14.36,0,0,1-.4,4.73,5,5,0,0,1,.13,1.75,7.12,7.12,0,0,1,1.35,4.48,1,1,0,0,1,.18,1.38.84.84,0,0,1-.41.29h0a10,10,0,0,0,.65.79c.34.07.54.13.54.13.88.1.88.1,1.64.21a4.51,4.51,0,0,1,1.19,1c1.09,2.39,1.07,2.4,1.15,3.49a2.72,2.72,0,0,1-.07.33c.57.28.6.3.76.39a2.41,2.41,0,0,1,.3.38c.11.58.11.58.23.77a2.9,2.9,0,0,1,.08.44c-.17.69-.17.69-.15.88a2.29,2.29,0,0,1-.1.34l-.45.39-.94-1.39-.06.54-.28-.66.2.62-.42-.33.5.49c-.86-.1-.87-.1-1.19,0a1.14,1.14,0,0,0-.66.19,2.69,2.69,0,0,1,.1.33c-.93-.1-.93-.13-1.84-.18q-.17-.18-.3-.36a.36.36,0,0,1-.36.32h-.48l-.07.11v.05l-.3.38-.06.09h0L286.87,212a5.4,5.4,0,0,1-.82-.12,3.15,3.15,0,0,1,.29.22c.2.17.23.73.32.77a15.29,15.29,0,0,0,3.14.69c.51.06,1,.1,1.52.14l1.53.25c.33-.12.71.16.84.6a.82.82,0,0,1-.36,1,9.55,9.55,0,0,1-1.24,1.16,10.8,10.8,0,0,1-1.3,1,9,9,0,0,1-2.88,1.13,15.44,15.44,0,0,1-6.54.08,21.11,21.11,0,0,0-3.26.44l.25.19-.94,0h-.09l1,.66a4.71,4.71,0,0,0,.52.09,11,11,0,0,1,3.76-.06c.64.08,1.26.15,1.89.27s1.26.25,1.87.34a15.88,15.88,0,0,1,3.82,1.32c.28,0,.57.31.64.72s-.1.72-.37.72a13.71,13.71,0,0,1-11.43.19,2.9,2.9,0,0,1-2.2-.06h0l.78.58c-.58,0-1.16-.49-1.73-.51.23.3.47.63.7.92-1.32.3-2.59.82-3.9,1.26a10,10,0,0,1-4.13.89,1.55,1.55,0,0,1-.31.06,15.67,15.67,0,0,1-.72,1.82c-.08.14-.15.28-.23.41a.59.59,0,0,1-.08.11l-.45.36-.9.71c-1.2,1-2.39,2.06-3.7,3.07l2.75-1.91a15.8,15.8,0,0,1,1.39-.91l1.35-.8s-.17.15-.26.23l-.34.29-.69.56c-.48.36-.89.79-1.33,1.19-.87.83-1.8,1.58-2.67,2.41s-1.74,1.69-2.66,2.52-1.74,1.79-2.67,2.67A110.49,110.49,0,0,0,243.63,256c-3.91,5.55-6.7,10.88-9,14.28a55.9,55.9,0,0,0-1.28,20,42.18,42.18,0,0,0,2.21,9.19,50,50,0,0,0,4.25,8.88,67.46,67.46,0,0,0,13.81,16.11,78,78,0,0,0,8.94,6.66,88.45,88.45,0,0,0,9.81,5.54,7,7,0,0,1,2.73,1.78c0,.32-1,.11-2.42-.53a90.12,90.12,0,0,1-14.33-8,79.37,79.37,0,0,1-12.33-10.48c-7.33-7.74-12.49-16.75-14.42-26.05a52.06,52.06,0,0,0,10.05,23.08,78.35,78.35,0,0,0,20.84,19.07l3.25,1.88c1.08.63,2.22,1.15,3.33,1.74s2.21,1.12,3.31,1.67,2.19,1.14,3.32,1.63c22.95,9.73,48.89,9.8,69.7-4a73.66,73.66,0,0,0,21.25-21.68,72.31,72.31,0,0,0,6.53-13.41,69.29,69.29,0,0,0,2.25-7.32c.27-1.27.63-2.52.83-3.81s.49-2.57.64-3.89c2-14.67-.75-29.11-6.84-42.23a84.41,84.41,0,0,0-5.16-9.5c-.95-1.51-1.95-3-2.94-4.32-.49-.66-1-1.33-1.26-1.6L359,228.72a68.91,68.91,0,0,0-17-12.93c-3.47-1.84-6.77-3.54-7.05-4.14s2.59.06,6.25,1.83a69.61,69.61,0,0,1,19.06,13.38c.69.67,1.33,1.4,2,2.09a9,9,0,0,1,.73.81c.26.32.54.67.82,1,1.14,1.48,2.27,3.12,3.34,4.78a86.23,86.23,0,0,1,5.73,10.53,80.65,80.65,0,0,1,6.65,22.83,72.05,72.05,0,0,1-.72,23.57l-.28,1.46-.35,1.46c-.24,1-.42,1.94-.73,2.9l-.84,2.88-1,2.79c-.6,1.89-1.5,3.67-2.25,5.51-.4.9-.9,1.77-1.33,2.66s-.87,1.79-1.41,2.63a72.87,72.87,0,0,1-15.1,18.58,71.81,71.81,0,0,1-20.42,12.76c-.92.38-1.88.69-2.82,1l-1.42.52c-.48.17-1,.28-1.45.43l-2.89.84-3,.66c-.5.1-1,.23-1.49.32l-1.51.23c-1,.14-2,.34-3,.45-2,.17-4.06.44-6.13.44a80,80,0,0,1-21-2.06c.07.11.14.22.12.31-.07.36-.79.53-2,.54a89.59,89.59,0,0,0,12,2.21c2,.16,4,.43,6.08.44,1,0,2,.12,3.05.09l3.05-.05a73.74,73.74,0,0,0,31.76-10.42,81,81,0,0,0,25.16-23.95c.56-.87,1.11-1.73,1.65-2.59.28-.43.57-.85.82-1.29l.74-1.33,1.48-2.64c.43-.9.86-1.8,1.3-2.69l.65-1.34c.21-.45.38-.92.57-1.37.37-.92.75-1.83,1.12-2.73s.66-1.87,1-2.8l.49-1.4.41-1.41a73.17,73.17,0,0,0,2.55-11.42,74.56,74.56,0,0,0,.78-11.69,82.7,82.7,0,0,0-7.53-29,88.79,88.79,0,0,0-7.45-13.14c-.71-1-1.44-2-2.17-3-.35-.45-.78-1-1-1.21l-1.26-1.33a70.65,70.65,0,0,0-5.38-5.14,8.28,8.28,0,0,1-1.39-1.32c-.17-.25.22-.05.86.45a70.12,70.12,0,0,1,7.65,7l.33.36.39.45.79,1c.54.68,1.07,1.38,1.59,2.09,1.05,1.42,2,2.91,3,4.43a88.1,88.1,0,0,1,9.29,19.72c-.37-2.3-.42-3.76.06-3.73s1.5,1.61,2.56,4.23a93.14,93.14,0,0,0-3.31-9.7c-.8-2-1.33-3.55-1.11-3.59s1.13,1.4,1.9,3.28a83.6,83.6,0,0,1,6,41.11,81.69,81.69,0,0,1-6,24.26,82.85,82.85,0,0,1-5.73,11.17A83.94,83.94,0,0,1,367.77,332a23,23,0,0,1,4.13-3h0c1.68-2.06,3.09-4.3,4.56-6.48a86,86,0,0,0,11.3-34.2,84.89,84.89,0,0,0-4-35.89,94.93,94.93,0,0,0-7.42-16.73,90.92,90.92,0,0,0-4.89-7.74c-.88-1.24-1.8-2.47-2.72-3.57l-.31-.36-.39-.42-.78-.83c-.53-.54-1-1.12-1.58-1.64a80.23,80.23,0,0,0-31.05-19,4.91,4.91,0,0,1-1.65-.72,4.09,4.09,0,0,1,1.58.34,84.11,84.11,0,0,1,20,9.82,73.25,73.25,0,0,1,8.73,6.84c.71.59,1.35,1.26,2,1.9l1,1,.95,1,.94,1,.48.5.39.47c.56.67,1.13,1.39,1.67,2.12l0,0c-.3-.51-.28-.67.17-.19a12.36,12.36,0,0,1,1.36,1.88c.32.61.19.62-.17.19a93.9,93.9,0,0,1,15.49,38,84.43,84.43,0,0,1-3.43,40.52,85.92,85.92,0,0,0,4.43-18.49,85,85,0,0,0,.13-19,92.91,92.91,0,0,0-11.94-36c-1.52-2.33-3.13-4.59-4.87-6.79a11,11,0,0,1-1.12-1.72c-.07-.22.36.15.84.76s1,1.22,1.45,1.84c-1.37-2-2.57-3.76-3.43-4.93s-1.37-2.07-1.16-2.22,1.23.55,2.54,1.7a32.23,32.23,0,0,1,4.2,5.12,93.7,93.7,0,0,1,15.42,37.81c.28,1.46.48,2.93.71,4.4s.49,3,.64,4.45a91,91,0,0,0-7.19-31.17,97.18,97.18,0,0,0-7.43-14.23,73.88,73.88,0,0,0-4.65-6.58,79.48,79.48,0,0,0-5.56-5.87c-1.37-1.23-2.47-2.37-2.37-2.54s1.32.7,2.72,1.93l2.63,2.43,2.52,2.55a62.26,62.26,0,0,1,4.54,5.7,97.09,97.09,0,0,1,7.45,12.29,95.14,95.14,0,0,1,9.14,27.42A89.09,89.09,0,0,1,395,280.21a88.17,88.17,0,0,1-1.28,14.67A84.91,84.91,0,0,1,390,309.19c-.72,2.37-1.77,4.62-2.69,6.93-.5,1.14-1.07,2.24-1.61,3.36s-1.08,2.24-1.72,3.3a92.26,92.26,0,0,1-24.4,31.65l2.14-1.52,2.06-1.65A87.51,87.51,0,0,0,394.91,298a92.23,92.23,0,0,0,.28-29.84,102.14,102.14,0,0,0-9.12-28.81,6.72,6.72,0,0,1-.73-1.9c0-.14.43.45.88,1.4a102.24,102.24,0,0,1,9.28,28,89.39,89.39,0,0,1,.18,29.84,90.89,90.89,0,0,1-2.9,12.35c-.32,1-.63,2-.94,3s-.74,2-1.1,2.94-.74,2-1.14,2.92l-1.28,2.84a98.32,98.32,0,0,1-13,20.84A90.07,90.07,0,0,0,388.85,321a92.64,92.64,0,0,0,7.43-23,91.69,91.69,0,0,0,1.38-11.9c.16-2,.11-4,.14-6s-.11-4-.3-6a96.25,96.25,0,0,0-4.81-23.32,35,35,0,0,1-1.09-3.51,2.28,2.28,0,0,1-.4-.69c-1.64-3.63-3.55-7.5-5.71-11.32a12.38,12.38,0,0,1-1-2.11C384.34,232.81,384.67,233.21,385.17,234ZM277.76,207.86l.19.14-.54-.16-1.09-1.06S277,207.3,277.76,207.86Zm6-7.32h0l.57.67ZM235.83,309A46.49,46.49,0,0,1,230.16,292a50.29,50.29,0,0,1,1.2-18.08,56.14,56.14,0,0,0-.72,8.88c-.12,1.14-.1,2.26-.15,3.39s0,2.26.09,3.36a47.89,47.89,0,0,0,.81,6.58A53,53,0,0,0,235.83,309Zm48.43-97.83a14.52,14.52,0,0,1-2.38-1.92,3,3,0,0,1-1.26.58,32.91,32.91,0,0,1-3.67.81c.34.4,0,.45-.07.55l-.38.27c1.34-.13,2.69-.24,4-.32A20.08,20.08,0,0,1,284.26,211.21Zm8.08-3.78.14.16-.1.76Zm.14-1.3-.2-.07C292.3,205.78,292.38,205.87,292.48,206.13Zm-1.85-.64a1.67,1.67,0,0,0,.31.35Zm-5.91-21v3.82l.11-3.69Z"/></g></g></svg>