<svg xmlns="http://www.w3.org/2000/svg" viewBox="0 0 476.31 492.69"><g id="Layer_2" data-name="Layer 2"><g id="Layer_1-2" data-name="Layer 1"><path d="M170,175.05l.51.29a1.37,1.37,0,0,1-1.13.36,11,11,0,0,0,7.75,0,18.77,18.77,0,0,0,6.63-4.07,2.56,2.56,0,0,0,2.64-2.31,2.41,2.41,0,0,0-2.72-2.14,4.13,4.13,0,0,1-1-.34,20.53,20.53,0,0,0-8.31-3.13l1.89.83a7.69,7.69,0,0,0-2.71-.24l.44.61a7.66,7.66,0,0,0-4.87,0,6.18,6.18,0,0,0-3.55,2.88c-1.43,2.7,0,5.71,3.08,6.76Z"/><path d="M176.38,181.18c-1.71-.51-3.38-1.1-5.09-1.69l-.38-.35.49,1.84v-.13c1.09-1.82,3.33-2.88,5.44-3.69l.74-.38a1.53,1.53,0,0,0,.54-1.1,1.72,1.72,0,0,0-1.87-1.67c-.41,0-.81,0-1.22,0a10.62,10.62,0,0,0-5.16.33,5,5,0,0,0-3.44,3.42,5.1,5.1,0,0,0,.62,2.49,2.45,2.45,0,0,0,2.88,1.89,2.5,2.5,0,0,0,2.25-2.62l.78.13-.48.55c.18-1.15,1.42-1.62,2.28-2.36l1.4-.56-1.35-2.74-.7.52a2.38,2.38,0,0,1,.22.29,29.46,29.46,0,0,1-4,2.87l-1.72,1.45a1.29,1.29,0,0,0,.51,1.84l1,.44-.46-.28c2.1.21,4.28.24,6.35.58a.68.68,0,0,0,.8-.42A.56.56,0,0,0,176.38,181.18Z"/><path d="M169.5,182.89a1.58,1.58,0,0,0-1.17-.17l-.14.27.73.36C169.44,183.61,169.61,183.29,169.5,182.89Z"/><path d="M168.19,183l-.31-.15.24.23,0,0Z"/><path d="M277.67,368.82c.38.15.78.26,1.17.39.23.05.35.1.65.17l1,.24c.35.06.67.14,1,.19l1.14.15,1.14.16,1.17.05a36.39,36.39,0,0,0,9.61-.74,46.08,46.08,0,0,0,18.77-8.89,49.69,49.69,0,0,0,7.73-7.48,58.38,58.38,0,0,0,6.32-9.29,73.85,73.85,0,0,0,7.74-22.28,4.43,4.43,0,0,0,.12-2.06c-.11-.07-.31.76-.51,1.74a73.24,73.24,0,0,1-7.64,22.16,58.73,58.73,0,0,1-6.23,9.23,49,49,0,0,1-7.61,7.43,45.77,45.77,0,0,1-18.51,8.88,36.79,36.79,0,0,1-9.48.81,19.12,19.12,0,0,1-2.28-.2c-.73-.11-1.53-.16-2.16-.32a20.91,20.91,0,0,1-2.82-.77c-.4-.12-.76-.17-.88-.07S277.28,368.67,277.67,368.82Z"/><path d="M409,184.17c-1,.13-.9.24.08.26s2.34-.08,3.27-.1.77-.18-.07-.26A15.25,15.25,0,0,0,409,184.17Z"/><path d="M401.93,193.06a50.64,50.64,0,0,0-12.84,4.74c-.69.36-1.48.71-2.09.95.17,0,.06.16-.29.39a18.78,18.78,0,0,1-1.65,1.09c-1.88,1.06-3.62,2.36-5.4,3.59s-3.43,2.66-5,4.19-3.07,3.07-4.56,4.64l-2.06,2.53c-.72.81-1.27,1.76-1.91,2.62a51.55,51.55,0,0,0-6,11.38A56.88,56.88,0,0,0,357,241.76a89.31,89.31,0,0,0-.51,13.56c.17,4.64.67,9.4,1.26,14.23s1.35,9.78,2,14.83,1.38,10.22,1.81,15.55a6.34,6.34,0,0,1,.57,1.78,44.82,44.82,0,0,1,.74,6.45,66.81,66.81,0,0,1-.18,9.07c-.16,1.61-.32,3.22-.57,4.82a105.07,105.07,0,0,1-7.67,28.55A85,85,0,0,1,338,375.89a61.46,61.46,0,0,1-10.43,9.94c-1.72,1.43-3.57,2.7-5.41,4s-3.8,2.46-5.82,3.51-4.07,2.08-6.16,3c-1.06.46-2.15.87-3.23,1.29s-2.18.81-3.3,1.16c-2.21.77-4.52,1.31-6.83,1.87a69.86,69.86,0,0,1-7.12,1.11,71.23,71.23,0,0,1-7.33.39c-2.48-.1-4.93-.16-7.54-.52,1.27.35,2,.63,2,.83-.23.21-1.57.3-3.56.07l-.8-.09a5.26,5.26,0,0,1-.94-.12c-.65-.12-1.34-.25-2.05-.41a43.71,43.71,0,0,1-4.51-1.31,50.51,50.51,0,0,1-9-4.13A52.61,52.61,0,0,0,269,402.13c1.15.3,2.34.63,3.47.82s2.06.42,3.1.56l1.54.22,1.5.15,3,.27c1.15.08,2.21.07,3.18.12a70.41,70.41,0,0,0,25.43-4.84,80,80,0,0,0,23.47-14.23,78.3,78.3,0,0,0,9.41-9.69c1.47-1.72,2.72-3.52,4-5.3s2.46-3.63,3.51-5.52a95.72,95.72,0,0,0,9.79-23.4,113.7,113.7,0,0,0,2.55-12,117.33,117.33,0,0,0,1.18-12,115.1,115.1,0,0,0,0-11.9l-.17-2.91c-.07-1-.17-1.9-.25-2.86l-.26-2.83-.33-2.79c-.88-7.39-2.06-14.43-3.06-21.22-2-13.53-3.11-26.26-.28-37.81a10.44,10.44,0,0,1,.86-2.51c.23-.39.32-.27.1.55l-.36,1.31c-.12.44-.17.91-.26,1.36-.17.91-.33,1.81-.5,2.71l-.3,2.75-.15,1.37-.05,1.39c0,.92-.07,1.84-.11,2.76s0,1.87,0,2.8.05,1.87.12,2.81.12,1.88.2,2.83c.72,7.61,2.19,15.34,3.83,23.69.81,4.14,1.63,8.51,2.39,13s1.4,9.29,1.76,14.38a113.64,113.64,0,0,1-2.22,32.75A98.13,98.13,0,0,1,347,378.24a87.93,87.93,0,0,1-16.44,16.09,85.55,85.55,0,0,1-20.61,11.32,76.22,76.22,0,0,1-24.19,5l-3.2.08c-1.07,0-2.15-.06-3.23-.09s-2.15-.1-3.25-.19-2.26-.22-3.39-.41l-1.73-.26a17.73,17.73,0,0,1-2-.36c-1.34-.27-2.66-.62-4-1s-2.62-.8-3.91-1.24-2.57-1-3.82-1.5c-10.05-4.32-18.88-11.67-24.13-21.36a49.85,49.85,0,0,1-5.34-15.62,56.84,56.84,0,0,1-.75-8.36c0-1.41,0-2.82.07-4.23l0-.53a2.44,2.44,0,0,1,0-.54l.09-1.08c.05-.62.08-1.22.15-1.79.29-2.44.7-4.75,1.16-7,.24-1.09.48-2.21.76-3.27l.41-1.58.42-1.45c.58-1.93,1.15-3.9,1.77-5.77s1.31-3.65,2-5.46c2.73-7.06,5.72-13.44,8.59-19.35s5.6-11.25,7.93-16.32c1.21-2.55,2.18-4.92,3.17-7.29l1.27-3.4c.42-1.12.67-2.15,1-3.23A42.83,42.83,0,0,0,257.74,267c-.05-.79-.08-1.56-.08-2.34s-.22-1.4-.27-2.11-.34-1.39-.45-2.08a6,6,0,0,0-.32-1c-.11-.35-.22-.7-.32-1.05-1.93-5.6-6.18-11.61-12.08-16.37a44.82,44.82,0,0,0-6.3-4.24c-1.06-.68-2.23-1.11-3.3-1.69l-1.68-.68-.83-.35c-.29-.11-.62-.21-.93-.31l-1.87-.66-1.94-.55-1-.28-1-.23-2-.46c-1.38-.21-2.7-.54-4.13-.68-.7-.08-1.39-.2-2.1-.28L215,231.4c-.71-.08-1.45-.1-2.19-.13l-1.1-.05h-.21l-.65,0-1.31.12c-.88.09-1.73.09-2.62.21-3.49.26-7.07.66-10.74,1.16-2.69.81-5.58-1.28-6.5-4.9a7.54,7.54,0,0,1,.93-6l-.76.07-1.26-.26a5.22,5.22,0,0,1-3.15-2.1l-1.13-1.38c-1.65-2.72-4.05-4.73-5.68-7.59V209.4l-.31-.29a6.17,6.17,0,0,1-2.18-2.78l-.21-1.4a13.29,13.29,0,0,1,.32-4.76,5,5,0,0,1-.12-1.76,6.89,6.89,0,0,1-1.33-4.48.94.94,0,0,1-.15-1.39,1,1,0,0,1,.47-.31h0a9.74,9.74,0,0,0-.72-.77c-.39,0-.62-.1-.62-.1l-1.91-.09a5,5,0,0,1-1.44-.92c-1.38-2.3-1.39-2.3-1.51-3.4l.09-.34c-.74-.21-.79-.23-1-.3a2.36,2.36,0,0,1-.41-.35c-.17-.56-.17-.56-.33-.75a2.3,2.3,0,0,1-.13-.42c.22-.72.22-.72.19-.91a1.67,1.67,0,0,1,.14-.35l.62-.45,1.28,1.29.09-.56.38.64-.27-.6.56.28-.66-.43a4.7,4.7,0,0,0,1.62-.13,2,2,0,0,0,.9-.28,2.05,2.05,0,0,1-.11-.33c1.26,0,1.27,0,2.5.07a4.13,4.13,0,0,1,.36.37.57.57,0,0,1,.53-.33h.64l.12-.11v0l.47-.38.1-.1h0c.67-.57,1.37-1.1,2.07-1.64a7.69,7.69,0,0,1,1.1.14l-.36-.24c-.23-.17-.13-.75-.25-.78a20.21,20.21,0,0,0-4.36-.69c-1.47-.08-3-.14-4.46-.14a1,1,0,0,1-1.22-.49.87.87,0,0,1,.63-1.1c5.18-4.13,12.82-4.8,19.24-2.92l5,.43-.26-.27,1.31.37h.14l-1-1-.69-.27a32.89,32.89,0,0,1-5.68-.87c-1.88-.41-3.75-.84-5.69-1.14s-3.92-1-6-1.46a.81.81,0,0,1-.91-.72.85.85,0,0,1,.88-.77c6.23-1.71,13.9-1.68,19.27,1.59a5.93,5.93,0,0,1,3.28.81h.06l-.76-.82c.89.17,1.39.88,2.2,1.17-.11-.36-.23-.78-.33-1.15,2.2.36,4.46.42,6.71.75a29.93,29.93,0,0,1,3.3.58A16.32,16.32,0,0,1,213,173a3.5,3.5,0,0,1,.46.14,20,20,0,0,1,2.75-.87l.73-.13c.08,0,.07,0,.23,0l1.24.11,2.5.22a105,105,0,0,1,10.44,1.68l-3.62-.86-3.6-.7c-1.2-.23-2.41-.48-3.61-.63l-3.39-.51h.26l.49,0,1,.07,2,.15c1.31.09,2.64.3,3.95.46,2.64.29,5.3.8,8,1.32A97.2,97.2,0,0,1,249,178.35a94.55,94.55,0,0,1,21.75,12.06A91.86,91.86,0,0,1,288,207.23a80.23,80.23,0,0,1,11,18.33c.67,1.45,1.19,2.94,1.69,4.37s1,2.76,1.32,4.12a56.25,56.25,0,0,1,1.54,7.36,75.59,75.59,0,0,1,3.37,24.08A86.23,86.23,0,0,1,303,288.41c-.58,1.74-1.1,3.56-1.75,5.22l-1.94,5c-1.38,3.15-2.77,6.33-4.25,9.24-2.92,5.92-6,11.41-8.84,16.55s-5.6,10.12-7.88,14.84a102,102,0,0,0-5.53,13.67,36.6,36.6,0,0,0-1.28,5.65c0,.24,0,.33,0,.45s0,.25,0,.38,0,.51,0,.76a9.4,9.4,0,0,0,.14,1.5,8.49,8.49,0,0,0,1,2.81,7.87,7.87,0,0,0,2,2.2c.65.49,1.17,1,1.14,1.3s-.74.22-1.5-.29a8.41,8.41,0,0,1-3.17-3.51,10.64,10.64,0,0,1-1-4.78c0-.21,0-.43,0-.62s0-.23,0-.4a4.36,4.36,0,0,1,.06-.49c.08-.66.2-1.35.33-2.05s.32-1.45.5-2.19l.31-1.14.4-1.23.78-2.46c.24-.82.63-1.68.93-2.51l1-2.53,1.14-2.58c3.05-6.91,7-14.07,11.22-21.85a201,201,0,0,0,12.14-25.77,173.46,173.46,0,0,1-10.69,21.62c-3.74,6.59-7.46,12.73-10.69,18.69a108.71,108.71,0,0,0-7.88,17.44,39.53,39.53,0,0,0-1.17,4c-.15.64-.3,1.28-.4,1.89s-.21,1.28-.25,1.61a14.47,14.47,0,0,0,.33,5.16,10.37,10.37,0,0,0,2.68,4.53,16.8,16.8,0,0,0,4.21,3,17.75,17.75,0,0,0,3.16,1.05c.44.11,1.31.31,2,.43s1.61.2,2.42.3a38.4,38.4,0,0,0,10.13-.37,45.25,45.25,0,0,0,10.14-3,51.91,51.91,0,0,0,9.49-5.32,53.41,53.41,0,0,0,15-16.32A71.85,71.85,0,0,0,336,326a83,83,0,0,0,1.52-10.45,88.38,88.38,0,0,0,.3-10.43c-.14-7-.93-14.35-1.8-22s-1.82-15.66-2.06-24.33c-.05-2.17-.11-4.35,0-6.61,0-1.12,0-2.23.1-3.38s.16-2.29.24-3.45.21-2.32.36-3.5.29-2.35.47-3.54l.69-3.59.36-1.81.47-1.81A74.83,74.83,0,0,1,339.93,221c.73-1.61,1.42-3.24,2.21-4.81l2.52-4.59a78.27,78.27,0,0,1,12.8-16A80.39,80.39,0,0,1,391.88,176a77.6,77.6,0,0,1,19.86-2.75,78.84,78.84,0,0,1,19.7,2.39,87.26,87.26,0,0,1,18.5,6.89,85.82,85.82,0,0,1,16.59,11c5.51,4.54,9.62,9.8,9.78,10.75.1.48-.74-.21-2.22-1.64s-3.66-3.52-6.33-5.8a86.51,86.51,0,0,0-36-18.87,79.17,79.17,0,0,0-20.57-2.35A74.38,74.38,0,0,0,390.52,179a79.15,79.15,0,0,0-34.73,22,73.55,73.55,0,0,0-11.88,17.34c-.73,1.62-1.49,3.22-2.17,4.87s-1.21,3.37-1.78,5.05l-1.37,5.08c-.37,1.7-.68,3.4-1,5.1a106,106,0,0,0-1.22,20c.17,6.48.76,12.74,1.39,18.82,1.27,12.12,2.76,23.62,2.21,34.35a93.16,93.16,0,0,1-2.18,16,79.6,79.6,0,0,1-5.15,15.06,63.32,63.32,0,0,1-8.19,13.22c-.78,1-1.66,1.93-2.49,2.88s-1.78,1.8-2.68,2.69a54.31,54.31,0,0,1-5.94,4.76,49.15,49.15,0,0,1-23.42,8.86c.12.07.22.15.23.24.05.37-.68.84-2,1.15,9.36-.31,19-4,27.31-9.87,11-8.68,18.54-21.71,22.23-36.31a97.18,97.18,0,0,0,2.93-22.82c.06-7.92-.66-16.28-1.46-25.2-1-12.21-2.1-24.65-.5-37.36a77.26,77.26,0,0,1,4.7-18.73A69.24,69.24,0,0,1,353,209.41a75.57,75.57,0,0,1,17.24-16.91,73.6,73.6,0,0,1,21.66-10.6,72.1,72.1,0,0,1,24.12-3,78.63,78.63,0,0,1,23.67,4.93,14.06,14.06,0,0,1,2.83,1.24c.38.29-.27.05-1.49-.38a81,81,0,0,0-16.13-4.19c-1.4-.17-2.77-.43-4.18-.53l-4.22-.3a77.86,77.86,0,0,0-8.5.19,69.42,69.42,0,0,0-16.75,3.34,77.66,77.66,0,0,0-15.48,7.16c3.29-1.49,5.38-2,5.32-1.51,0,.27-.58.82-1.57,1.58-.5.38-1.11.8-1.8,1.28s-1.44,1.07-2.28,1.67c2.1-1.37,4.35-2.47,6.56-3.64,2.29-1,4.54-2.1,6.92-2.88a24.15,24.15,0,0,1,3.75-1.11c1-.2,1.56-.26,1.55-.14,0,.3-2.32,1-5,2.07a73.26,73.26,0,0,0-7,2.92c-2.22,1.18-4.47,2.31-6.58,3.7l-1.6,1c-.53.34-1,.73-1.55,1.09-1,.74-2.06,1.45-3,2.23L366.54,201c-1,.8-1.84,1.72-2.77,2.58a65.23,65.23,0,0,0-9.62,11.7A60.55,60.55,0,0,0,347.46,229a74.57,74.57,0,0,0-3.39,17.77,122.88,122.88,0,0,0,.12,17.7c.86,11.64,2.67,22.94,3.44,34.17a31.11,31.11,0,0,1,.81-6.64h0c-.33-3.51-.72-7-1.11-10.52-1-8-2.12-16.17-2.38-24.5a100.06,100.06,0,0,1,.32-12.58c.25-2.1.43-4.21.87-6.31.21-1.05.35-2.1.61-3.14l.8-3.12a28.28,28.28,0,0,1,1-3.09c.36-1,.68-2.05,1.08-3.06l1.3-3c.22-.49.42-1,.67-1.48l.77-1.43c.51-1,1-1.91,1.55-2.85l1.75-2.73.88-1.36,1-1.3,2-2.59,2.14-2.44,1.07-1.22,1.16-1.14,2.31-2.28,2.47-2.12,1.23-1.05c.42-.34.87-.65,1.3-1l2.62-1.94c.89-.61,1.82-1.17,2.73-1.76a31.63,31.63,0,0,1,2.79-1.67l2.87-1.56c1-.49,2-.91,3-1.37,1.95-1,4-1.64,6.07-2.42a66.9,66.9,0,0,1,12.77-3A69.68,69.68,0,0,1,430,185.65,78,78,0,0,1,472.86,214a9.18,9.18,0,0,1,1.38,2.11,7.32,7.32,0,0,1-1.49-1.7A76.94,76.94,0,0,0,419.5,184.2h.09c.84.14,1,.27.05.26a30.27,30.27,0,0,1-3.27-.28c-1-.13-.88-.23-.08-.26a72.06,72.06,0,0,0-14.67.82,71.29,71.29,0,0,0-14.08,4,73.45,73.45,0,0,0-12.86,6.87A71.56,71.56,0,0,0,363.55,205c-.88.83-1.62,1.79-2.44,2.69L359.92,209c-.4.46-.74,1-1.12,1.44-.72,1-1.47,1.92-2.16,2.91l-2,3.06a36.12,36.12,0,0,0-1.78,3.16,30.59,30.59,0,0,0-1.62,3.24l-1.45,3.33-1.18,3.43a68.17,68.17,0,0,0-2.86,14,96.4,96.4,0,0,0-.38,14.09,103.71,103.71,0,0,1,.46-13.05c.29-2.17.5-4.35,1-6.5.24-1.08.38-2.17.68-3.23l.87-3.19a58.77,58.77,0,0,1,5.15-12.21,65,65,0,0,1,3.49-5.62c.62-.91,1.33-1.75,2-2.64s1.34-1.75,2.1-2.55l2.2-2.46c.77-.79,1.58-1.54,2.36-2.31l1.19-1.14c.4-.37.84-.71,1.25-1.07l2.53-2.12,2.67-1.94,1.33-1,1.4-.88,2.79-1.74,2.91-1.54c.49-.25,1-.52,1.46-.76l1.5-.67c1-.44,2-.91,3-1.32,2.07-.72,4.1-1.58,6.23-2.11a64.58,64.58,0,0,1,12.93-2.38,66,66,0,0,1,11.52-.33,13.39,13.39,0,0,1,2.85.41c.28.13-.5.1-1.58.05l-3.21-.19c6.64.42,11.49,2.19,11.25,2.64-.47.45-6-.48-12.64-.73a67.7,67.7,0,0,0-13.34.94,69.48,69.48,0,0,0-12.82,3.73,68,68,0,0,0-22.15,14.56c-1.4,1.33-2.6,2.83-3.86,4.28A28,28,0,0,0,361.2,213c-.54.79-1.11,1.57-1.63,2.38a66.79,66.79,0,0,1,32.59-23.91c12.92-4.51,27.14-4.16,40-.15.56.16,1.09.32,1.58.48s.91.37,1.27.53c.73.32,1.17.58,1.16.67s-.46,0-1.18-.17c-.37-.1-.8-.23-1.27-.38l-1.57-.43a63.14,63.14,0,0,0-64.4,17.56,59.57,59.57,0,0,0-9.92,14.22,57.06,57.06,0,0,0-5.17,16.47c-1.85,11.54-.72,23.56.74,35.7,1.38,7.94,2.94,16,3.91,24.41a120.52,120.52,0,0,1,.89,12.89,108.91,108.91,0,0,1-.58,13.22c.17-1.11.38-2.22.52-3.34s.26-2.24.4-3.37a117.65,117.65,0,0,0,.09-21c-.52-6.74-1.42-13.17-2.29-19.41C354.61,267,353,255.17,354,243.78a58.08,58.08,0,0,1,3.77-16.42,55.42,55.42,0,0,1,8.69-14.67A61.74,61.74,0,0,1,395.7,193a8.71,8.71,0,0,1,2.36-.53c.15.05-.63.39-1.82.74a61.48,61.48,0,0,0-28.48,18.73A56.69,56.69,0,0,0,358.91,226l-.78,1.93a18.84,18.84,0,0,0-.73,1.94c-.39,1.33-.87,2.62-1.2,4s-.66,2.73-.91,4.13-.47,2.81-.63,4.24a86.23,86.23,0,0,0-.35,14.38c.23,4.81.78,9.63,1.44,14.48,1.29,9.68,3.08,19.44,4,29.59-.65-10.4-2.27-20.18-3.41-29.63-.59-4.73-1.06-9.36-1.27-13.92-.15-2.29-.12-4.53-.15-6.79s.14-4.46.41-6.63A56,56,0,0,1,358,231a50.92,50.92,0,0,1,5.59-11.65,58,58,0,0,1,8.34-10.22,65.49,65.49,0,0,1,10.57-8.25,31.68,31.68,0,0,1,3.69-1.91,2,2,0,0,1,.73-.52,53.71,53.71,0,0,1,13.44-5.38,11.09,11.09,0,0,1,2.66-.45C403.53,192.64,403,192.75,401.93,193.06ZM189.2,186.27l-.17-.19c.17.1.37.19.58.3l.9,1.32S189.85,187,189.2,186.27Zm-8.64,6.3h0l-.55-.71ZM284,320.42c2.55-4.59,5.21-9.29,7.76-14.36,1.3-2.47,2.51-5.14,3.73-7.78.61-1.31,1.15-2.75,1.72-4.12s1.15-2.76,1.63-4.25l1.49-4.39c.43-1.52.84-3.07,1.24-4.6.2-.78.42-1.53.59-2.32l.45-2.41c.28-1.61.63-3.2.82-4.84a76.67,76.67,0,0,0-.13-20.24,74.14,74.14,0,0,1,.87,19.81c-.09,1.28-.37,2.49-.57,3.72l-.68,3.68c-.53,2.4-1.22,4.71-1.85,7.06s-1.53,4.47-2.34,6.66-1.74,4.23-2.67,6.27A236.07,236.07,0,0,1,284,320.42ZM182.05,181.81a11.47,11.47,0,0,1,2.57,2.24,5.51,5.51,0,0,1,1.76-.4,34.45,34.45,0,0,1,4.88.08c-.25-.47.13-.44.32-.51l.59-.17c-1.72-.19-3.47-.49-5.24-.68C185.34,182.19,183.61,182.14,182.05,181.81Zm-11.3,3.87-.18-.15.15-.79Zm-.21,1.33.26.05C170.77,187.35,170.68,187.27,170.54,187Zm2.33.46a1.46,1.46,0,0,0-.38-.33Zm5.79,21.06,0-3.78-.12,3.65Z"/><path d="M253,253.5V254c-.3,0-.52-.17-.69-.5.49,4.7,5.16,6.23,9,5.63a1.74,1.74,0,0,0,2.65-.34,2.35,2.35,0,0,0,0-3,3.29,3.29,0,0,1-.23-.78,20.32,20.32,0,0,0-1.27-6.66c0,.53.09,1.08.13,1.61a4.4,4.4,0,0,0-.81-1.65c-.08.21-.17.45-.26.67a3.74,3.74,0,0,0-1.63-2.78,3.41,3.41,0,0,0-3.13-.24,6.16,6.16,0,0,0-3.87,6.29Z"/><path d="M251.47,261.59a36.59,36.59,0,0,1-1.14-4.38l.1-.49-1.13,1.52.09-.08a7.47,7.47,0,0,1,5.06,1l.61.18a1.43,1.43,0,0,0,1-.44,1.79,1.79,0,0,0,.28-2.26l-.54-.72c-1-2.23-3.18-4.6-6.14-3a6.69,6.69,0,0,0-1.64,2,2.3,2.3,0,0,0-.22,3.13,1.92,1.92,0,0,0,2.88-.18c.08.2.16.4.25.59-.21,0-.4,0-.6.05.89-.63,1.81-.18,2.71-.14l1,.5,1.29-2.7-.65-.08c0,.13-.1.33-.11.33a13.1,13.1,0,0,1-3.72-.59l-1.77-.22a1.56,1.56,0,0,0-1.15,1.51l.09,1v-.5c.37.79.79,1.55,1.22,2.31s.9,1.48,1.29,2.26a.47.47,0,0,0,.68.24A.62.62,0,0,0,251.47,261.59Z"/><path d="M247.06,258.16c-.05-.34-.07-.69-.37-.9l-.27.07,0,.73C246.5,258.58,246.81,258.49,247.06,258.16Z"/><path d="M246.42,257.33l0-.3-.07.3s0,0,0,0Z"/><path d="M327.23,289.88a111.32,111.32,0,0,0,24.19,1.41c.27,0,.49-.12.48-.24s-.22-.2-.47-.17a112.17,112.17,0,0,1-24.08-1.47c-.26,0-.49,0-.53.16S327,289.84,327.23,289.88Z"/><path d="M390.87,292.37c-.16.15-.11.24.12.22a1.26,1.26,0,0,0,.66-.29c.14-.13.08-.24-.11-.22A1.32,1.32,0,0,0,390.87,292.37Z"/><path d="M392.1,300.36a30.19,30.19,0,0,0-3.13,2,1.52,1.52,0,0,1-.57.23c.13.13,0,.37-.46.6-8.13,4.77-17.68,8.41-27.36,11.36a1,1,0,0,1-.34.53,6.41,6.41,0,0,1-3.39,1.32l-1.1.1c-4.42.55-8.84.94-13.26,1.09a13.07,13.07,0,0,1-3.07.71,106.3,106.3,0,0,1-11.68,2.32c.25.15.39.32.39.51-.09.46-1,.81-2.12.81l-1.65,0,4.72.31a4,4,0,0,1,.62.05q2.6-.1,5.25-.3a116.93,116.93,0,0,0,22.12-4.34A144.79,144.79,0,0,0,377.16,310a1.4,1.4,0,0,1,.76-.2c.15,0,.17.17-.06.3-2,1.11-3.86,2.27-5.77,3.41s-3.84,2.23-5.83,3.31-4.05,2.12-6.25,3.09c-1.1.48-2.23.95-3.4,1.41s-2.38.91-3.64,1.29l-4.51,1.42-4.58,1.25c-1.53.43-3.08.78-4.63,1.13s-3.12.73-4.7,1a156.12,156.12,0,0,1-19.5,2.53c-6.95-.22-13.66-.56-20.48-1.08a204.91,204.91,0,0,1-20.87-2.79,148.71,148.71,0,0,1-15.59-3.93,134.17,134.17,0,0,1-24.47-9.77,9.59,9.59,0,0,1-4.75-4,5.72,5.72,0,0,1-.25-5.19,6.41,6.41,0,0,1,5.32-3.33l-.87-.6L231.91,298a5.87,5.87,0,0,1-1.68-4.09l0-1.88c.48-3.19,0-6.51,1-9.63l.93-.74v-.43a5.49,5.49,0,0,1,.62-3.53l1-1a14,14,0,0,1,3.89-2.69,4.63,4.63,0,0,1,1.26-1.2,7,7,0,0,1,2.59-3.85,1,1,0,0,1,.95-1,.89.89,0,0,1,.5.15h0c.09-.41.11-.53.18-1-.17-.31-.26-.51-.26-.51-.51-.78-.51-.78-.93-1.47a4.52,4.52,0,0,1,0-1.61c1.1-2.41,1.11-2.41,1.89-3.17a2.2,2.2,0,0,1,.31-.15c-.18-.65-.19-.7-.23-.89a2.5,2.5,0,0,1,.08-.5c.37-.46.37-.46.43-.68a2.92,2.92,0,0,1,.28-.36c.65-.29.65-.29.78-.42a1.6,1.6,0,0,1,.34-.13l.61.14-.42,1.69.46-.29-.31.66.33-.56,0,.57,0-.74c.53.81.53.81.82,1a1.23,1.23,0,0,0,.61.44,2.44,2.44,0,0,1,.19-.28l1.13,1.7c0,.17-.05.32-.08.47a.4.4,0,0,1,.49.13l.32.42h.14l0,0,.5,0h.11l2.17.19a8,8,0,0,1,.47.77,2.22,2.22,0,0,1,0-.37c0-.27.43-.61.4-.71a18.71,18.71,0,0,0-1.62-3.19c-.31-.5-.63-1-1-1.46l-.91-1.5a.83.83,0,0,1-.13-1.12.76.76,0,0,1,1-.29,10.72,10.72,0,0,1,1.82.42,11.32,11.32,0,0,1,1.71.64,13.31,13.31,0,0,1,3,2,20.5,20.5,0,0,1,4.54,6,35.35,35.35,0,0,0,2.53,2.79v-.33l.56.89.08.07-.09-1.23-.26-.52a14.74,14.74,0,0,1-2.57-3.47l-1.07-1.91c-.34-.65-.68-1.31-1-1.93a26.9,26.9,0,0,1-1.67-4.36.82.82,0,0,1,.12-1,.55.55,0,0,1,.86,0,19.08,19.08,0,0,1,8.22,10.93A3.86,3.86,0,0,1,269.3,266l0,0v-1c.39.54.35,1.28.69,1.84.11-.35.23-.71.35-1.06a47,47,0,0,0,3.61,3.12,14,14,0,0,1,3.33,3.49,1.43,1.43,0,0,1,.25.24,7.78,7.78,0,0,1,4.85.94c-.65-.47-1.3-1-1.91-1.44a21.45,21.45,0,0,1,4.83,1.79c.54.29,1.08.61,1.61,1s1.09.65,1.62,1a37,37,0,0,1,3,2.31,18.53,18.53,0,0,1,4.45,5,129.93,129.93,0,0,0,14.25,3.9,118.05,118.05,0,0,0,14.6,2.12c.51,0,1,.25,1,.51s-.31.47-.83.45a97.18,97.18,0,0,1-21.43-2.54,91.33,91.33,0,0,0,18,4.82l2.41.22a17.59,17.59,0,0,1,2.38.38,98.76,98.76,0,0,0,24.11-.09,127.48,127.48,0,0,0,19.88-4.5c4.73-1.5,9.19-3.08,13.56-4.83s8.71-3.55,13.22-5.48c1.17-.58,2.43-.78,2.79-.45s-.31,1.08-1.49,1.69a151.33,151.33,0,0,1-14,6.62c-2.37,1-4.82,1.87-7.24,2.79s-4.91,1.68-7.43,2.34a109.66,109.66,0,0,1-15.39,3.32,94.6,94.6,0,0,1-16,1l-3.47-.09-3.43-.23a.8.8,0,0,1,.05.26,1.14,1.14,0,0,1-.59.91l3.93.34,4,.26c7.35-.75,14.59-1.92,22.42-2.8l4-.45c1.3-.13,2.59-.25,3.86-.43l3.8-.43,3.78-.58A166.45,166.45,0,0,0,394.6,285a.93.93,0,0,1,.61-.15c.13.05,0,.18-.18.32-1.91,1.18-3.94,2.18-6,3.27s-4.14,2-6.29,2.91c.81.08,1.37.33,1.47.76s-.29,1-1,1.56l1.53-.48,1.51-.55c.63-.21,1.18-.23,1.24,0s-.35.59-.94.8c-1,.4-2.07.76-3.11,1.08l-3.13,1c-2.1.65-4.21,1.22-6.32,1.81a149.27,149.27,0,0,1-15.25,4,3.32,3.32,0,0,1,1.73.95h0l2.41-.48A243.53,243.53,0,0,0,405.25,285c.26-.14.52-.19.58-.11s-.12.25-.37.37c-4.15,2.11-8.3,4.19-12.55,6h0c.2,0,.28.07.12.22a1.61,1.61,0,0,1-.67.29c-.22,0-.25-.1-.12-.22a243.16,243.16,0,0,1-24,9.1,203.89,203.89,0,0,0,22.58-7.13l2.23-1.37a1.05,1.05,0,0,1,.64-.14c.1,0,0,.22-.24.34l-.62.37c1.39-.55,2.62-.63,2.82-.15s-.88,1.42-2.33,2c-3.82,1.79-7.74,3.33-11.7,4.73-.42.19-.84.37-1.26.53l-1.23.67a162.13,162.13,0,0,0,18.54-6.5c.5-.26,1-.34,1.09-.18s-.26.51-.76.76a142,142,0,0,1-32.69,13.26l-5.51,2.64c-1.87.86-3.78,1.67-5.72,2.52l1.53-.25a79.77,79.77,0,0,0,17.89-5.62c5.57-2.34,10.89-5,16.56-7.62a.74.74,0,0,1,.63-.09c.06.08-.09.25-.39.37-2.74,1.38-5.41,2.61-8,4s-5.34,2.58-8.22,3.71c-4.74,2-9.37,3.57-13.93,5.3,9.56-2.29,18.24-6.08,26.95-10a2.64,2.64,0,0,1,1.07-.3c0-.06.06-.13.17-.21a37,37,0,0,1,3.29-2.07,1,1,0,0,1,.69-.18C392.44,300.05,392.34,300.2,392.1,300.36ZM255.44,273v-.24l.2.55-.18,1.49Zm-9.59-.88h0l.15-.86C246,271.59,245.9,271.87,245.85,272.1Zm63.32,18.44a51.38,51.38,0,0,1-12.37-4.63c1,.27,2,.61,3.05.83,1.53.63,3,1.32,4.61,1.95Zm-55.19-25a13.19,13.19,0,0,1,0,3.14,3.63,3.63,0,0,1,1.28.76,34,34,0,0,1,3,2.76c.12-.49.34-.26.5-.22l.46.19c-1-1.09-1.89-2.21-2.81-3.37A23.93,23.93,0,0,1,254,265.53Zm-8.45-4.74,0-.22.66-.39Zm-1.1.68.08.22C244.28,261.85,244.3,261.73,244.43,261.47Zm.78,1.95a1.54,1.54,0,0,0,0-.48ZM232.8,281.14l2.93-2.38-2.9,2.22Z"/><path d="M25.72,17v.51c-.3,0-.54-.16-.74-.49a6.24,6.24,0,0,0,3.44,4.83,10.71,10.71,0,0,0,6,.78,1.83,1.83,0,0,0,2.74-.31,2.36,2.36,0,0,0,.05-3,2.56,2.56,0,0,1-.26-.78,16.85,16.85,0,0,0-1.52-6.62c.07.52.15,1.06.22,1.58a5,5,0,0,0-.93-1.63l-.26.68a3.64,3.64,0,0,0-5.11-3,5.9,5.9,0,0,0-3.81,6.29Z"/><path d="M24.21,25.18c-.48-1.47-.86-2.95-1.2-4.43l.08-.48L22,21.79l.09-.08c1.86-.48,3.64.25,5.2,1l.64.16a1.64,1.64,0,0,0,1-.47,1.67,1.67,0,0,0,.23-2.23c-.2-.23-.38-.49-.57-.73-1-2.32-3.42-4.6-6.43-2.95a6.46,6.46,0,0,0-1.64,2,2.23,2.23,0,0,0-.14,3.11,2,2,0,0,0,3-.21l.27.58L23,22c.92-.64,1.84-.16,2.77-.12l1,.52,1.31-2.73-.67-.08a2.93,2.93,0,0,1-.11.33,16.52,16.52,0,0,1-3.84-.59l-1.85-.19a1.52,1.52,0,0,0-1.15,1.51l.12.94v-.49c.79,1.56,1.84,3,2.63,4.59a.47.47,0,0,0,.69.24A.62.62,0,0,0,24.21,25.18Z"/><path d="M19.64,21.74a1.11,1.11,0,0,0-.41-.89l-.27.07.07.72C19.07,22.16,19.4,22.07,19.64,21.74Z"/><path d="M19,20.92l0-.3-.07.31h0Z"/><path d="M146.18,62.9c1,0,1.92.11,2.89.12h8.72l5.83-.27,2.92-.14,2.92-.26,5.85-.53,5.83-.77,2.93-.4c1-.14,1.93-.33,2.91-.49l5.82-1c.53-.09.93-.28.93-.41s-.43-.12-.91,0l-5.82,1-2.9.5-2.91.38-5.82.77-5.82.52-2.91.25-2.91.14-5.8.26c-1.94,0-3.87,0-5.8,0s-3.86,0-5.77-.12c-.52,0-.94.08-1,.21S145.7,62.87,146.18,62.9Z"/><path d="M264.17,43.18c-.31.26-.24.35.15.21a4.17,4.17,0,0,0,1.2-.66c.26-.21.19-.31-.15-.2A4.55,4.55,0,0,0,264.17,43.18Z"/><path d="M264.89,51.89,262,53.83c-.94.61-1.83,1.21-2.66,1.81a4.51,4.51,0,0,1-1,.52c.2.09-.13.43-.86.9-14.32,9.32-31.12,17.16-48.29,23.6a1.57,1.57,0,0,1-.62.65,19.52,19.52,0,0,1-6,2.49l-1.95.46c-2,.5-3.94.89-5.9,1.35s-3.93.92-5.92,1.27L182.84,88l-3,.53-3,.4a47.59,47.59,0,0,1-5.49,1.43c-3.4.89-6.85,1.61-10.32,2.42s-7,1.28-10.63,1.89c.47.11.75.27.75.47s-.49.5-1.17.7a13.06,13.06,0,0,1-2.58.37l-3,.2c2.86-.06,5.73,0,8.56-.24a11.28,11.28,0,0,1,1.14,0c3.11-.31,6.26-.56,9.42-1.11A213.52,213.52,0,0,0,203,85.09a263.27,263.27,0,0,0,35.42-15.57,4.39,4.39,0,0,1,1.31-.56c.26,0,.27.11-.13.36-1.71,1.08-3.42,2.08-5.12,3.07l-5.06,3c-3.39,1.94-6.78,3.84-10.27,5.74a170.88,170.88,0,0,1-23.35,10.37,242.36,242.36,0,0,1-67,13.81,333.06,333.06,0,0,1-36.45-1.87,238.76,238.76,0,0,1-36.92-6.7c-2.15-.5-4.24-1.2-6.35-1.81L42.73,93l-6.19-2.23c-2.06-.76-4.14-1.46-6.14-2.35l-1.52-.64-.75-.32-.29-.1-1-.39-2.06-.78c-1.36-.53-2.73-1-4.05-1.66-2.66-1.21-5.29-2.47-7.92-3.76S7.62,78,5,76.51a8.39,8.39,0,0,1-4.4-4.2A6,6,0,0,1,.6,67a6.47,6.47,0,0,1,5.34-3.31l-.83-.62L4,61.83a6.07,6.07,0,0,1-1.5-4.15V55.81c.54-3.19.21-6.62,1.22-9.75l.94-.74v-.44a5.49,5.49,0,0,1,.65-3.52l1-1a14.47,14.47,0,0,1,3.91-2.72,5,5,0,0,1,1.28-1.2,7,7,0,0,1,2.6-3.86,1,1,0,0,1,1-1,1,1,0,0,1,.51.14h0c.09-.41.11-.53.18-1-.18-.31-.27-.51-.27-.51-.53-.77-.53-.77-1-1.45a4.61,4.61,0,0,1-.06-1.6c1.08-2.42,1.09-2.41,1.88-3.18l.3-.15a8.33,8.33,0,0,1-.25-.88,2.13,2.13,0,0,1,.07-.5c.36-.46.36-.46.43-.69a2.66,2.66,0,0,1,.27-.35c.66-.29.66-.29.79-.43a1.6,1.6,0,0,1,.34-.13l.64.14-.39,1.68.47-.29-.31.66.33-.57L19,23v-.72c.56.79.57.79.87,1a1.37,1.37,0,0,0,.64.43l.18-.29c.61.85.61.85,1.19,1.71a3.41,3.41,0,0,1-.09.48.41.41,0,0,1,.5.14l.33.42h.13l0,0,.52.05h.11c.35,0,.85.1,2.24.16a5.84,5.84,0,0,1,.5.76,2.43,2.43,0,0,1,0-.38c0-.26.44-.61.4-.71a15.21,15.21,0,0,0-.82-1.61c-.27-.54-.58-1.06-.89-1.56-.63-1-1.31-2-2-3a.85.85,0,0,1,.91-1.41c5.23.72,9.1,4.4,11.53,9.17.84.95,1.72,1.87,2.61,2.79v-.33l.56.91.08.08c0-.42-.05-.84-.07-1.26-.08-.18-.16-.36-.25-.54a17,17,0,0,1-2.68-3.46c-.76-1.27-1.4-2.65-2.17-3.9a33.55,33.55,0,0,1-1.83-4.34.75.75,0,0,1,.08-1,.63.63,0,0,1,.92-.05A18.59,18.59,0,0,1,37.9,21a15.35,15.35,0,0,1,3.37,6.45,3.88,3.88,0,0,1,1.42,2.14l0,0v-1c.4.56.35,1.29.69,1.86l.4-1.08c1.13,1.15,2.46,2.12,3.7,3.17a19,19,0,0,1,1.79,1.69,11.68,11.68,0,0,1,1.56,1.92c.09.08.17.17.25.25a17.41,17.41,0,0,1,2.17,0l.53.08.14,0,.35.16.71.32c1,.43,1.89,1,2.92,1.43-.66-.39-1.28-.82-1.9-1.25L54.2,36c.66.24,1.48.59,2.2.91s1.49.64,2.26,1A48.24,48.24,0,0,1,63.22,40c8.36,4.32,17.78,9.72,22,13.8A202.45,202.45,0,0,0,113,60.24a199.22,199.22,0,0,0,28.55,2.19,3.13,3.13,0,0,1,2,.44c.11.27-.54.51-1.53.54s-1.72.1-2.58.12h-7.78c-1.73,0-3.47-.15-5.2-.22s-3.48-.15-5.22-.31a191.66,191.66,0,0,1-20.74-2.94A168,168,0,0,0,135.78,66c1.55,0,3.1.12,4.66.1s3.07.06,4.6.18a187.72,187.72,0,0,0,46.12-5.14A240.28,240.28,0,0,0,228.57,48.7c8.86-3.8,17.13-7.86,25.29-12.12s16.07-8.91,24.29-13.85c2.13-1.4,4.32-2.38,4.84-2.17s-.82,1.53-3,3q-12.52,8.37-25.67,15.57A287.24,287.24,0,0,1,227.21,51.9a223.21,223.21,0,0,1-28.71,9.57A195.93,195.93,0,0,1,168.23,67c-2.23.26-4.45.35-6.64.53l-3.29.24c-1.09,0-2.18.07-3.27.1a.67.67,0,0,1,.13.27c0,.35-.37.7-1,1l3.75-.08,3.76-.21,3.77-.21,1.9-.09,1.89-.17c13.89-2.36,27.54-5.78,42.11-9.7,10-2.76,19.08-5.4,28.24-8.63A309.14,309.14,0,0,0,272,32.57a3.14,3.14,0,0,1,1.08-.52c.2,0,0,.2-.39.49-1.77,1.2-3.58,2.36-5.39,3.54l-2.73,1.77-2.79,1.69-5.65,3.37-5.8,3.19c1.4-.32,2.33-.33,2.44.12s-.67,1.32-2,2.33l5.45-2.67c1.13-.53,2.09-.84,2.16-.63s-.7.86-1.78,1.38c-3.71,1.84-7.4,3.72-11.18,5.38-1.89.83-3.75,1.74-5.66,2.52L234,56.89a265.29,265.29,0,0,1-27.8,10.42,6.79,6.79,0,0,1,3.12.39h0l4.41-1.39a373,373,0,0,0,76-39.68c.47-.32.9-.52,1-.44s-.25.38-.68.66c-3.67,2.41-7.27,4.9-11,7.17-1.87,1.15-3.67,2.38-5.57,3.46l-5.61,3.35,0,0c.33-.12.45-.06.15.2a4.78,4.78,0,0,1-1.17.7c-.39.14-.41,0-.16-.2a387.63,387.63,0,0,1-43.25,21.41,336.53,336.53,0,0,0,40.41-18.42c1.35-.9,2.72-1.74,4.07-2.69a3.3,3.3,0,0,1,1.1-.51c.15,0-.08.27-.46.52l-1.12.78c2.43-1.39,4.52-2.13,4.75-1.66s-1.73,2.15-4.26,3.62c-6.8,3.94-13.66,7.73-20.76,11.06L245,56.81l-2.2,1.35a302.12,302.12,0,0,0,32.56-16.51c.88-.55,1.72-.88,1.84-.73s-.52.71-1.42,1.26a276.24,276.24,0,0,1-27.9,16.43,267.59,267.59,0,0,1-30,13.23c-3.25,1.63-6.57,3.17-9.9,4.79s-6.78,3-10.27,4.47c.92-.2,1.84-.45,2.75-.72a177.91,177.91,0,0,0,31.89-12.52c9.89-4.89,19.36-10.21,29.36-15.93a2.2,2.2,0,0,1,1.06-.43c.1.06-.19.34-.7.63C252.27,57.8,243.35,63.06,233.19,68l-6.26,3-6.23,2.74-3.08,1.37-3.09,1.27L208.41,79c2.12-.72,4.22-1.48,6.3-2.23l3.11-1.14,3.06-1.25L227,71.8l5.94-2.74,3-1.37,2.91-1.47,5.82-2.93,5.76-3.09,2.88-1.54c1-.51,1.9-1.07,2.86-1.61a8.53,8.53,0,0,1,1.83-.86,1,1,0,0,1,.32-.32c1.8-1.28,3.84-2.53,5.85-3.91a3.5,3.5,0,0,1,1.18-.56C265.51,51.36,265.31,51.58,264.89,51.89ZM28.21,36.67v-.24c.06.17.12.35.2.55l-.21,1.5Zm-9.72-.94h0c.09-.49.16-.85.16-.85C18.58,35.23,18.53,35.5,18.49,35.73Zm93.09,28-6.24-1.22c-1-.19-2.06-.46-3.08-.73L99.21,61A113.15,113.15,0,0,1,87.3,57l5.89,1.45,2.25.78,2.27.67,4.58,1.38c1.52.49,3.07.87,4.62,1.26ZM26.83,29.1a13.45,13.45,0,0,1,0,3.17,3.84,3.84,0,0,1,1.31.76c1,.95,2,1.86,3,2.82.13-.5.36-.27.52-.23l.48.19a43.05,43.05,0,0,1-2.85-3.4A27.72,27.72,0,0,1,26.83,29.1Zm-8.7-4.73,0-.22.67-.4ZM17,25.06l.09.22C16.87,25.44,16.88,25.32,17,25.06ZM17.84,27a1.54,1.54,0,0,0,.05-.48ZM5.34,44.77,8.27,42.4l-2.9,2.21Z"/><path d="M126.31,24.87l.26,0c0,.16-.16.27-.36.35,2.46,0,3.94-2.31,4.34-4.49a1.1,1.1,0,0,0-1.18-1.85,1.72,1.72,0,0,1-.44.06,8.48,8.48,0,0,0-3.68.26h.86a2.85,2.85,0,0,0-1,.4l.31.18a2.53,2.53,0,0,0,.26,5.06Z"/><path d="M130.15,26.32c-.79.11-1.57.18-2.36.24l-.23-.08.6.71,0-.06a4.46,4.46,0,0,1,1.24-2.62l.18-.32a.75.75,0,0,0-.06-.57.8.8,0,0,0-1.09-.34l-.45.24c-1.31.34-2.86,1.51-2.44,3.17.1.39.49.67.78,1a1.11,1.11,0,1,0,1.85-1.24l.33-.09-.06.32c-.19-.53.18-1,.33-1.45l.41-.5L128,23.79l-.14.35a.76.76,0,0,0,.15.08,9.72,9.72,0,0,1-.86,2l-.35.94a.67.67,0,0,0,.6.7l.49,0-.25,0c.89-.28,1.74-.7,2.63-1a.28.28,0,1,0-.12-.54Z"/><path d="M127.83,28.36a.68.68,0,0,0-.51.14v.14l.37,0C128,28.69,128,28.52,127.83,28.36Z"/><path d="M127.33,28.64h-.16l.15.06v-.05Z"/><path d="M149.2,8.35a37.86,37.86,0,0,0,3.7-2s0-.1,0-.17-.12-.1-.15-.08a41.26,41.26,0,0,1-3.7,2s0,.1,0,.17S149.16,8.36,149.2,8.35Z"/><path d="M162.82,9a.22.22,0,0,0,.14.17c.06,0,.1,0,.09-.07a.34.34,0,0,0-.14-.17C162.84,8.88,162.81,8.92,162.82,9Z"/><path d="M166.85,14.67a1.89,1.89,0,0,0-.11.74c0,.05,0,.06-.07.05a.42.42,0,0,1,.12.32,15.21,15.21,0,0,1-2,4.47,1.77,1.77,0,0,1,.15.31c.14.34.1.61-.11.69l-.18,0c-.63.23-1.24.49-1.88.7a.85.85,0,0,1-.17.52,12.93,12.93,0,0,1-.59,2,.83.83,0,0,1,.26.24c.18.25.22.51.09.59l-.17.16.67-.22h.1a4.18,4.18,0,0,0,.57-.47,15.25,15.25,0,0,0,3.23-6c0-.06,0-.08.11,0a.27.27,0,0,1,.12.18c-.06,2,.31,4.3-.21,6a30.3,30.3,0,0,1-2.26,5.57c-1.46,1.13-2.35,2.77-3.5,4.35-.39.54-.79,1-1.21,1.52-.07.07-.07.09-.2.21l-.34.31-.67.61c-.45.41-.91.81-1.36,1.2-1.82,1.58-3.68,3.09-5.58,4.61A3.32,3.32,0,0,1,146,40.36l-.37.26-.69.26a2.9,2.9,0,0,1-2.05,0l-.86-.3c-1.41-.75-3-1.06-4.35-1.93l-.26-.52-.2-.06a2.85,2.85,0,0,1-1.58-.73l-.39-.58a6.67,6.67,0,0,1-.87-2.15,2.56,2.56,0,0,1-.43-.75,3.42,3.42,0,0,1-1.55-1.67.49.49,0,0,1-.37-.58.48.48,0,0,1,.13-.23h0l-.47-.19-.28.09-.82.33a2.21,2.21,0,0,1-.79-.12c-1.06-.75-1.06-.75-1.34-1.21a.94.94,0,0,1,0-.16l-.47.05a1.26,1.26,0,0,1-.24-.07c-.18-.22-.18-.22-.29-.27a1.27,1.27,0,0,1-.14-.17c-.06-.35-.06-.35-.12-.43a.94.94,0,0,1,0-.18l.16-.31.79.33-.09-.26.29.21-.24-.21.29,0-.36-.07a1.91,1.91,0,0,0,.62-.35.78.78,0,0,0,.3-.29l-.11-.12,1-.46.22.09a.23.23,0,0,1,.14-.24l.25-.13,0-.07,0,0,.1-.26,0-.06h0l.41-1.13a3.16,3.16,0,0,1,.46-.16l-.2,0c-.13,0-.23-.29-.28-.29a17.44,17.44,0,0,0-3.59,1.35.43.43,0,0,1-.59,0,.42.42,0,0,1,0-.59,9,9,0,0,1,6.43-5.1c.62-.31,1.24-.63,1.85-1l-.16-.05.55-.16.06,0-.63-.15-.31,0A26.82,26.82,0,0,1,130,21.21a21.77,21.77,0,0,1-2.52.55.36.36,0,0,1-.5-.13.37.37,0,0,1,.13-.5c1.85-1.87,4.4-3.44,7.11-3.37a2.14,2.14,0,0,1,1.32-.44h0l-.49-.15c.35-.14.71,0,1.06-.07l-.45-.37c1.61-.8,3-2.09,4.8-2.44l.18-.07a9.71,9.71,0,0,1,.94-1.79l-.45.12a1.42,1.42,0,0,1,.51-.89,3.11,3.11,0,0,1,3.36.48,50,50,0,0,0,3.69-3.73c.05-.08.19,0,.31.09s.16.3.11.37a16.78,16.78,0,0,1-2.26,3.23,15.53,15.53,0,0,0,2.91-1.46l.28-.31a.71.71,0,0,1,.38-.18,13,13,0,0,0,3-2.76,28.87,28.87,0,0,0,1.94-3.13A12.4,12.4,0,0,1,158.36.08c.14-.18.5,0,.78.27s.41.74.26.92c-1.91,3.18-3.6,6.55-6.59,8.6l-1,.64.11.14a1.74,1.74,0,0,1,.31.56,9.63,9.63,0,0,1,1.21-.58A6.59,6.59,0,0,1,156,7.75a9.18,9.18,0,0,1,2.71-.63c.66-.85,1.28-1.76,2-2.59,0,0,.08,0,.14,0s.1.14.08.19a12.79,12.79,0,0,1-1,2.4,2.38,2.38,0,0,1,.76.68,2.29,2.29,0,0,1,.43.94l.42-.29c.09-.05.25,0,.37.18s.16.34.07.4l-1.7,1.21c-.52.68-1.06,1.34-1.62,2a3.36,3.36,0,0,1,.77.61h0l.29-.26A13.86,13.86,0,0,1,164.49,7s.11,0,.17.07.08.16,0,.18A10.79,10.79,0,0,0,163,8.58h0a.3.3,0,0,1,.14.17c0,.07,0,.1-.09.08a.25.25,0,0,1-.14-.18A15.06,15.06,0,0,0,160.36,12a17.43,17.43,0,0,1,2.95-2.25l.12-.52s.09,0,.15,0,.09.15.07.19l0,.13c.21-.11.59.08.87.46s.36.81.16.94c-.46.47-.94.91-1.44,1.33l-.12.19,0,.31c.91-.47,1.85-.9,2.79-1.32.06-.06.2,0,.31.13s.14.29.07.35a28.22,28.22,0,0,1-3.34,4.41c0,.94,0,1.89-.07,2.82a1.06,1.06,0,0,0,.2-.12c1.54-1.19,1.58-3.85,2.81-5.34,0-.05.1,0,.15,0s.09.15.05.18a15.63,15.63,0,0,0-1.2,2.82,14.68,14.68,0,0,0-.91,2.4c1-1,1.56-2.6,2.44-3.79,0-.07.1-.07.19,0a.34.34,0,0,1-.05-.11,2.61,2.61,0,0,1,.12-.78c0-.05.07-.05.14,0A.21.21,0,0,1,166.85,14.67Zm-30.48,11-.12,0h.3l.69.33Zm-1.87,4.64h0l-.39-.18Zm13.72-18.2a4.63,4.63,0,0,1-2.15.9l.36-.42A16.16,16.16,0,0,1,148.22,12.14ZM132.49,25.42a5.91,5.91,0,0,1,1.54.39,2.17,2.17,0,0,1,.57-.56,19.71,19.71,0,0,1,1.86-1.1c-.22-.14-.07-.22,0-.29l.17-.21c-.69.32-1.4.63-2.13.94A16.4,16.4,0,0,1,132.49,25.42Zm-3.55,3.93-.11,0-.11-.37Zm.2.61.11,0C129.31,30.07,129.25,30.05,129.14,30Zm1.05-.24a.65.65,0,0,0-.23-.06Zm7.07,8L136.45,36l.74,1.63Z"/><path d="M163.89,115.21l-.57-.28c.12-.18.48-.2,1-.11a10.3,10.3,0,0,0-7.08-.49,9.44,9.44,0,0,0-2.45,1.16,7.19,7.19,0,0,0-1.62,1.49c-1.15.11-1.56.73-1.14,1.3a2.45,2.45,0,0,0,1.11.73,4.33,4.33,0,0,0,1.62.29,5.81,5.81,0,0,1,.89.2c.6.24,1.18.47,1.8.69l1.94.65,2,.67c.69.22,1.4.43,2.12.67-.64-.29-1.29-.57-1.91-.82A19.86,19.86,0,0,0,164,122l-.58-.48c3.13,1.3,6.4,1.69,7.06.21s-1.78-4.52-5.11-5.89Z"/><path d="M156.15,110.65a25.36,25.36,0,0,1,2.57.46c.86.19,1.73.4,2.61.67l.47.28-1-1.41,0,.09c-.41,1.37-2.21,2.05-3.77,2.64l-.53.27a.64.64,0,0,0-.11.73,2.57,2.57,0,0,0,2.16,1.06l1.07,0a23,23,0,0,0,2.36.3,12.26,12.26,0,0,0,2.28,0c1.41-.18,2.46-.7,2.33-2-.06-.61-.85-1.41-1.38-2.13a3.84,3.84,0,0,0-3.39-1.78c-1.31.1-1.86,1-1.33,1.92l-.75-.1.26-.4c.2.85-.8,1.17-1.36,1.68l-1.06.38,2.06,1.87.46-.32-.29-.21a15.17,15.17,0,0,1,2.78-1.82l1.25-.94c.19-.47-.29-1.15-1.07-1.51l-1.1-.41.54.25a53.68,53.68,0,0,0-6.1-.32c-.32,0-.58.14-.57.37S155.83,110.62,156.15,110.65Z"/><path d="M162,109.23a2.13,2.13,0,0,0,1.19.2l0-.21-.82-.33C161.85,108.65,161.79,108.91,162,109.23Z"/><path d="M163.26,109.22l.35.15-.3-.21,0,0Z"/><path d="M172.35,258.94c-1,24.83-2.15,49.81-3.7,74.78-.05.83,0,1.54.22,1.58s.33-.6.37-1.38c1.6-25,2.78-49.83,3.78-74.66a2.79,2.79,0,0,0-.31-1.64C172.52,257.57,172.37,258.16,172.35,258.94Z"/><path d="M149.69,445.17c-.06-.59-.16-.57-.26,0a10.75,10.75,0,0,0-.07,2.06c0,.5.17.48.26,0A10.31,10.31,0,0,0,149.69,445.17Z"/><path d="M141.47,439.74c-.28-3.5-.59-6.82-1-9.78a9.21,9.21,0,0,1-.05-1.64c-.18.2-.38-.46-.51-1.73-2.62-24.84-4.51-51.56-6.25-77.88a2.48,2.48,0,0,1-.65-1.12,29.45,29.45,0,0,1-1.12-9.27l.11-2.86c.18-11.55.39-23.07.8-34.56a70.65,70.65,0,0,1-.62-8c-.91-10-1.72-19.93-2.25-30.14-.21.64-.46,1-.73,1-.63-.2-1.09-2.57-1-5.33,0-1.39.07-2.77.16-4.16-.46,4-.54,8-.8,12a14.75,14.75,0,0,1-.12,1.59c-.09,4.37-.09,8.79,0,13.28.42,39.22,4,76.09,7.74,112.67a7.61,7.61,0,0,1,0,2.07c-.1.36-.27.29-.36-.38-3.5-23.07-8.23-43.05-11-69.14-1.63-15.52-3-30.95-4-46.49-.26-3.88-.52-7.77-.71-11.67l-.3-5.86c-.1-2-.23-3.92-.21-5.88a57.34,57.34,0,0,1,5.28-23.64c4-8.29,9-16.37,12.8-24.51,1-2.08,1.82-4,2.71-6.34l.63-1.67c.24-.65.48-1.17.68-1.63.42-.92.82-1.69,1.13-2.48a15.64,15.64,0,0,0,1.21-9.44,13.09,13.09,0,0,0-1.75-4.35c-.44-.69-.94-1.4-1.61-2.36a18.53,18.53,0,0,1-2.19-4,16.15,16.15,0,0,1-1.06-5.25,17.24,17.24,0,0,1,.56-5.16,23.57,23.57,0,0,1,4-7.76,12.14,12.14,0,0,0,1-1.58l0-.06h0s0,0,.09.06l.35.18a6,6,0,0,0,.73.32l.39.13a.88.88,0,0,1,.2.08,2.79,2.79,0,0,0,.66.17l0,0a.72.72,0,0,0-.22,0l-.29,0-.21.05.1,0c.06,0,0,0-.4.18l-.3.17-.36.24a5.15,5.15,0,0,0-.45.32l-.11.09h0a.68.68,0,0,0-.19-.3,1.72,1.72,0,0,0-.23-.26,14.83,14.83,0,0,0-1.14-1c-.79-.6-1.58-1.2-2.29-1.82a21.63,21.63,0,0,1-3.72-3.68,9.73,9.73,0,0,1-1.76-4.14,3.78,3.78,0,0,1-.13-1.21,10.21,10.21,0,0,1,0-1.24,10.38,10.38,0,0,1,.52-2.26,6.41,6.41,0,0,1,.64-1.38,7.41,7.41,0,0,1,.85-1.27c.16-.2.27-.42.46-.62l.61-.58a16.47,16.47,0,0,1,1.41-1.11c.25-.18.51-.36.8-.53a6,6,0,0,1,.87-.49c.66-.28,1.32-.56,2-.87,1.32-.56,2.83-.95,4.2-1.42l2.08-.69c.42-.15.63-.25.93-.38a8.21,8.21,0,0,0,1.34-.68,1.64,1.64,0,0,0,.28-.24h0l.08.1c.19.24.46.52.59.7a5.27,5.27,0,0,0,.51.56l.28.26.2.2a3.13,3.13,0,0,0,.44.36c.17.12.21.17.34.25s.28.14.31.17l.2.09c.13,0,.19,0,.11.05a1.2,1.2,0,0,0-.34.11,2.16,2.16,0,0,0-.6.33,4.87,4.87,0,0,0-.86.63l-.19.18-.28.24a6.51,6.51,0,0,0-.54.51c-.17.18-.33.36-.49.55a2.28,2.28,0,0,1-.28.31c-.08.09,0,0-.06.05l-.09,0-.38-.07c-.65-.16-1.64-.4-2.72-.58-.56-.1-1.08-.2-1.75-.28l-2-.07c-.67,0-1.37-.2-2.06-.3a76.82,76.82,0,0,1-8.85-2l-1.67-1a3.48,3.48,0,0,0-.43-.25l-.55-.2-1.09-.39a7.92,7.92,0,0,1-1-.42l-.74-.56c-.49-.38-1-.75-1.44-1.13s-.93-.76-1.36-1.15l-.43-.4-.59-.51c-.79-.69-.48-1.59-1.35-2.26l-.5-.53a2.13,2.13,0,0,1-.43-.54l-.67-1.12-.54-1.15c-.18-.38-.49-.79-.73-1.19-.64-.8.09-1.59-.74-2.49l-.37-.66a3.58,3.58,0,0,1,0-.65l.06-.65c0-.11,0-.23-.08-.35l-.16-.37c-.18-.49-.56-1-.31-1.44l.16-.68.09-.34a1.4,1.4,0,0,0-.07-.39c-.12-.53-.26-1.06-.36-1.58l.56-1.36.14-.34a1.67,1.67,0,0,0,0-.39l0-.8c0-.53-.05-1.06,0-1.6l.1-1.61,0-.41c0-.14.13-.21.19-.32l.49-.61,1-1.22a9.8,9.8,0,0,0,.56-1.46l.52-1.48,0-.1,0,0a.53.53,0,0,0-.06-.1l-.26-.42-.13-.2c0-.06,0-.08,0-.11l.09-.21.34-.8.35-.81.27-.7.54-1.32c.35-.85.73-1.73,1.11-2.56s.6-1.36.92-2a17.62,17.62,0,0,1,1-1.81,12.47,12.47,0,0,1,2.07-2.62c1.34-1.28,2.7-1.68,3.68-1,1.19.89,1.55,3.11,1.13,5.54l.64-1c.4-.45.81-.93,1.2-1.35,1.15-1.18,2.36-1.94,3.46-1.87h1.43c2.32.53,5.11.33,7.47,1.74l.38,1,.37,0a3.72,3.72,0,0,1,2.85,1.17l.65,1.14a12.06,12.06,0,0,1,1.21,4.22,3.87,3.87,0,0,1,.66,1.41,5.63,5.63,0,0,1,2.63,3.22.79.79,0,0,1,.58,1.07.92.92,0,0,1-.34.37h0c.35.19.46.24.89.44.38,0,.61,0,.61,0a17.1,17.1,0,0,1,1.83-.24,5.89,5.89,0,0,1,1.66.59c2,1.84,2.06,1.88,2.51,2.8,0,.1,0,.2,0,.29.78.17.85.2,1.07.26a3.51,3.51,0,0,1,.51.31c.34.49.34.49.56.66a4.24,4.24,0,0,1,.26.37c0,.6,0,.6.09.76a1.19,1.19,0,0,1,0,.29l-.47.33L161.66,108l.09.45-.56-.52.44.49-.63-.24.78.37a4.24,4.24,0,0,0-1.54.07,1.62,1.62,0,0,0-.77.22l.21.25-2.33.07-.44-.24c0,.15-.16.26-.39.28l-.59.05-.06.09,0,0-.29.32,0,.07h0c-.21.21-.5.53-1.29,1.33-.34,0-.69,0-1,0l.37.1c.26.08.36.46.48.47,1.36.09,2.7.15,4,.17s2.75.08,4.18.22a1.57,1.57,0,0,1,1.34.5c.3.37.17.7-.28.76a10.35,10.35,0,0,1-3.23,1.44,23.55,23.55,0,0,1-3.84.73c-2.7.32-5.47.43-8,.51-.56.08-1.14.21-1.68.33l-1.52.36.23.06c-.24,0-.61,0-.55.15v0h.2l.4.08h.46a17.84,17.84,0,0,1,3.9-.46c.75,0,1.45,0,2.23,0l2.38.11a15.83,15.83,0,0,1,2.68.37l2.76.61a1.37,1.37,0,0,1,1,.54c.14.26-.1.44-.53.4-1.25.14-2.45.16-3.76.24-.64,0-1.24,0-1.89,0l-1,0h-.89c-1.26,0-2.38-.08-3.51-.13l-1.58-.15a3.49,3.49,0,0,1-.37-.07c-.09,0-.28-.06-.31,0l-.1.06a1.6,1.6,0,0,1-.85.31h0l.49.08c-.17.11-.6,0-.81.14l.62.2a1.53,1.53,0,0,0-.47,1.3c0,.46.22.84.25,1.2a.18.18,0,0,1,0,.08c.35.12.69.21,1,.3l.22.06,0,0,.18.09.34.16c.46.21.92.39,1.39.59a15.1,15.1,0,0,1-1.67-.91c.64.3,1.35.56,2,.78a1.7,1.7,0,0,0,.24.09l.12,0,.06,0,.12.08,2,1.29c.69.46,1.38.91,2.14,1.47a22,22,0,0,1,2.48,2l.47.44c.16.16.34.36.5.55a9.79,9.79,0,0,1,1,1.36,6.6,6.6,0,0,1,.5.93,5.38,5.38,0,0,1,.42,1.1,8.84,8.84,0,0,1,.28,1.26,10.14,10.14,0,0,1,0,1.35,7.57,7.57,0,0,1-1.79,4.33,10.36,10.36,0,0,1-2.31,2,23.93,23.93,0,0,1-3.64,1.78c-.51.21-1.22.47-1.15.46-.13,0-.24.07-.36.1a11.51,11.51,0,0,0-1.47.55,1.7,1.7,0,0,0-.62.51,1.62,1.62,0,0,1-.1.18,1.15,1.15,0,0,1,0,.19.88.88,0,0,0,.1.36,5.1,5.1,0,0,0,1,1l.28.24.14.13.07.06v0l0,0s0,0,0,0l.17.14A15.24,15.24,0,0,1,153,149.6a12.07,12.07,0,0,1,2,3.71,11.59,11.59,0,0,1,.48,2c.06.7.1,1.39.09,2.06a10.92,10.92,0,0,1-.86,3.71,13.54,13.54,0,0,1-.71,1.38c-.23.38-.48.75-.71,1.08a28.21,28.21,0,0,1-2.1,2.76c-.59.72-1.1,1.31-1.48,1.83a6.29,6.29,0,0,0-1.29,2.82,4.53,4.53,0,0,0,0,1.36,5.24,5.24,0,0,0,.63,1.7c.79,1.5,2,3.54,3,5.58a56,56,0,0,1,4.12,12.94c.43,2.23.7,4.55.94,6.72l.19,1.56a12.34,12.34,0,0,0,.26,1.32c.19.9.43,1.79.65,2.67.51,1.91,1.05,3.85,1.67,5.77s1.29,3.89,2,5.84c1.39,3.88,3,7.81,4.42,11.7a98.86,98.86,0,0,1,6.27,23.36c.21,1.6,0,3-.29,3.31s-.71-.9-.89-2.5a98.86,98.86,0,0,0-3.91-16.79c-1.81-5.63-4-11.26-6-16.92-1-2.81-1.9-5.65-2.73-8.46-.4-1.39-.78-2.79-1.12-4.19l-.26-1.05-.22-1c-.15-.65-.29-1.31-.41-2-.26-1.15-.34-2.8-.52-4.39s-.37-3.23-.66-4.84a53.32,53.32,0,0,0-2.55-9.41,50.71,50.71,0,0,1,2.15,7.84,66.23,66.23,0,0,1,1,8.05c0,.66.09,1.28.15,1.86s.16,1.06.26,1.62c.2,1.12.39,2.15.66,3.37.5,2.37,1,4.71,1.7,7.11,2.51,9.54,5.88,19.2,7.53,28.89q.74,3.72,1.18,7.46a45.07,45.07,0,0,1,.24,7.33c-.1,12.38-.44,24.44-.7,36.58s-.52,24.33-.66,37c-.25,21.6-.68,40.49-1.65,62-1.42,30.2-4,57.7-9.73,87.51A44.11,44.11,0,0,1,153,488c-.35.48,0-2.4.64-6.38,2.48-15.54,4.13-31,5.39-46.52s2.1-31,2.73-46.59c1.27-31.18,1.81-62.73,2.85-95.24.21-7,.42-13.92.62-20.78a.66.66,0,0,1-.36.17c-.49,0-.93-.67-1.29-1.77q-.37,11.69-1.05,23.53c.5,21.93.65,43.9-1,67.27-1.16,16.05-2.9,30.58-4.53,45.42-.78,18.82-1.8,37.58-3.6,56.58a8.16,8.16,0,0,1-.28,1.82c-.1.27-.14-.13-.09-.9.86-13.07,1.38-26.47,1.76-40-.5,2.13-1,3.4-1.54,3.22s-.9-1.83-1.14-4.36l-.46,9.19c-.11,1.9-.38,3.39-.62,3.33s-.39-1.55-.31-3.35q.75-18.76,1.49-37.47c.14-15,.2-29.92.24-44.93a10.74,10.74,0,0,1-1.85,4.32h0c0,2.32-.05,4.64-.08,6.95q.9,31.82.27,64.3t-2.9,65.28a8.24,8.24,0,0,1-.18,1.58,6.16,6.16,0,0,1,0-1.42q1.23-19.8,2-39.51v.06c-.08.53-.2.62-.24,0a11,11,0,0,1,.07-2.06c.09-.6.2-.55.25-.05.86-24.47,1.07-48.77.6-72.75q-.43,33.42-1.66,66.8c.05,2.43.1,4.85.16,7.32a7.58,7.58,0,0,1-.19,1.81c-.08.19-.17-.3-.17-1l0-2c-.17,4.21-.65,7.45-1.12,7.38-.48-.24-.83-3.86-.78-8.24q0-17.58.08-35.07l-.1-3.79c-.1-1.28-.21-2.54-.31-3.81-.39,18.15-.74,36.28-.87,54.3a7.81,7.81,0,0,1-.27,2.89,7,7,0,0,1-.33-2.77c-1.09-31.76-2.38-63.92-3.13-96.21-1.38-10.62-2.86-21.26-4.34-32.11,0,1.36,0,2.75,0,4.13.17,17.55,1.45,33.79,2.69,49.88s2.48,32,3.07,49a4.09,4.09,0,0,1-.13,1.67c-.1.09-.22-.49-.25-1.35-.72-16.59-2.11-31.74-3.3-48.21-1-13.64-1.91-26.61-3.15-39.29.83,25.91,3,50.77,4.4,76.43a16,16,0,0,1,0,3,1.52,1.52,0,0,1,.18.63c.41,3.21.74,6.71,1,10.29a6.68,6.68,0,0,1-.05,1.9C141.68,440.92,141.56,440.5,141.47,439.74Zm2.5-329.2.2,0-.54.07-1.11-.27S143.21,110.42,144,110.54Zm4.87-6.89h0l.71.31Zm7.39,99.63c-.14-.8-.27-1.6-.36-2.36l-.2-2.7c-.14-1.89-.33-3.83-.65-5.73a48.83,48.83,0,0,0-3.1-11.05,46.32,46.32,0,0,0-2.48-5.1,13.31,13.31,0,0,1-1.74-3.74,4.31,4.31,0,0,1,0-1.35,6.67,6.67,0,0,1,.33-1.45,9.33,9.33,0,0,1,1.73-2.74,9.36,9.36,0,0,0-1.62,2.7,5.68,5.68,0,0,0-.27,2.67c0,1.12,1.68,3.53,2.95,6.15a49.18,49.18,0,0,1,3.09,8.12,52.17,52.17,0,0,1,1.62,8.6c.16,1.45.24,2.91.33,4.29,0,.67.07,1.38.14,1.91S156.13,202.69,156.23,203.28ZM151.08,111a22.68,22.68,0,0,1-2.82-.73,5.08,5.08,0,0,1-1.26.7c-1.2.53-2.44,1-3.54,1.53.34.12.07.24,0,.34a3,3,0,0,0-.33.28c.61-.26,1.24-.5,1.88-.71s1.37-.42,2.05-.6,1.32-.34,2-.49A11.5,11.5,0,0,1,151.08,111Zm8.87-4,.22.12.09.63Zm-.21-1.08-.26,0C159.41,105.62,159.53,105.68,159.74,105.89Zm-2.37-.21a3,3,0,0,0,.46.22ZM145.45,90.44l1.18,3.19-1-3.13Z"/></g></g></svg>