<svg xmlns="http://www.w3.org/2000/svg" viewBox="0 0 505.5 522.08"><g id="Layer_2" data-name="Layer 2"><g id="Layer_1-2" data-name="Layer 1"><path d="M202.18,133.93l.59,0c-.08.35-.4.6-.85.8a10.59,10.59,0,0,0,6.83-3.4,16.36,16.36,0,0,0,3.93-6.42,2.45,2.45,0,0,0,1.2-3.17,2.39,2.39,0,0,0-3.33-.65,4.31,4.31,0,0,1-1,.14,22.14,22.14,0,0,0-8.7.79l2.05-.06a7,7,0,0,0-2.49.94l.67.34c-3.28.38-6.12,3.17-6.17,6.13s2.63,5,5.84,4.65Z"/><path d="M210.56,136.5c-1.73.32-3.47.56-5.24.79l-.5-.14,1.27,1.41-.05-.12c.13-2.08,1.61-4,3.09-5.68l.48-.65a1.49,1.49,0,0,0,0-1.19,1.76,1.76,0,0,0-2.41-.66c-.36.18-.71.38-1.06.58-3,.87-6.74,3.62-5.93,7,.2.78,1.06,1.31,1.69,1.93a2.51,2.51,0,0,0,3.44.43,2.38,2.38,0,0,0,.82-3.29l.75-.23-.17.69c-.37-1.09.51-2.06.92-3.1l1-1.11-2.44-1.81-.37.77.32.15a26.6,26.6,0,0,1-2.18,4.29l-.9,2a1.31,1.31,0,0,0,1.3,1.4l1.09,0-.55-.05c2-.7,3.92-1.67,5.9-2.3a.67.67,0,0,0,.5-.73A.55.55,0,0,0,210.56,136.5Z"/><path d="M205.25,141.06a1.62,1.62,0,0,0-1.13.35v.3h.82C205.53,141.72,205.53,141.36,205.25,141.06Z"/><path d="M204.12,141.71h-.35l.32.11,0,0Z"/><path d="M356,91.88c1.13.11,2.26.18,3.38.32l3.35.42,6.68.86,6.65,1.11,3.31.55,3.29.67,6.58,1.34,6.5,1.57,3.25.79c1.08.27,2.14.59,3.22.89l6.41,1.8c.58.16,1.08.23,1.14.11s-.36-.35-.9-.48L402.48,100l-3.22-.9-3.24-.8-6.51-1.58L383,95.38l-3.29-.68-3.31-.56L369.71,93c-2.22-.32-4.46-.58-6.69-.88s-4.47-.59-6.73-.76a2,2,0,0,0-1.2.15C355.06,91.68,355.48,91.83,356,91.88Z"/><path d="M475.74,142c-.39-.13-.42,0-.1.24a4.64,4.64,0,0,0,1.22.68c.32.11.37,0,.09-.23A4.51,4.51,0,0,0,475.74,142Z"/><path d="M468.75,147.22c-1.06-.47-2.08-.94-3.08-1.35s-2-.75-2.92-1.06a4.62,4.62,0,0,1-1-.48c.05.21-.42.15-1.19-.15a320.37,320.37,0,0,0-48.42-15.07,1.82,1.82,0,0,1-.82.26,17,17,0,0,1-6-.76l-1.75-.55c-1.78-.5-3.59-.88-5.38-1.33s-3.58-.91-5.39-1.25l-5.42-1.1-2.7-.55-2.72-.45a39.09,39.09,0,0,1-5.16-.19c-3.19,0-6.39.12-9.57.14l-9.61.46c.39.16.63.36.61.55s-.48.42-1.09.57a9.78,9.78,0,0,1-2.26.24l-2.6.06c2.48.11,5,.13,7.44.39.35,0,.68.07,1,.12,2.73.12,5.49.12,8.3.34a288.43,288.43,0,0,1,70.74,12.05,4.14,4.14,0,0,1,1.23.54c.17.17.09.27-.34.16-14.65-3.64-27.75-4.7-44.05-6.31a221,221,0,0,0-57.2,1.86,147.44,147.44,0,0,0-28.27,5.77,166.3,166.3,0,0,0-26.58,10.66c-1.5.67-2.91,1.52-4.35,2.27L276,155.34l-4.12,2.45c-1.37.81-2.76,1.56-4.05,2.46l-1,.65-.49.32-.18.13-.63.47-1.27.92c-.83.62-1.71,1.18-2.51,1.83q-2.43,1.91-4.92,3.67c-1.64,1.21-3.19,2.53-4.81,3.77a5,5,0,0,1-4,1.46,6.48,6.48,0,0,1-4.22-2.21,7.43,7.43,0,0,1-1.92-5.79l-.65.46-1.25.43a5.07,5.07,0,0,1-3.8-.3l-1.65-.67c-2.72-1.59-5.74-2.2-8.48-3.95l-.55-1.06-.4-.1a5.92,5.92,0,0,1-3.2-1.46l-.84-1.14a13.57,13.57,0,0,1-1.88-4.36,4.84,4.84,0,0,1-.9-1.51,6.8,6.8,0,0,1-3.23-3.35,1,1,0,0,1-.77-1.16,1.16,1.16,0,0,1,.27-.5h0a9.92,9.92,0,0,0-1-.35c-.37.13-.6.19-.6.19-.93.42-.93.42-1.76.76a5.07,5.07,0,0,1-1.7-.18c-2.29-1.43-2.3-1.43-2.9-2.34,0-.12,0-.23-.07-.34-.77.13-.82.14-1,.16a2.58,2.58,0,0,1-.53-.12c-.41-.43-.41-.43-.64-.52a3.09,3.09,0,0,1-.31-.32c-.12-.74-.12-.74-.24-.88a1.67,1.67,0,0,1,0-.38l.35-.66,1.74.58-.17-.53.62.4-.51-.41h.64l-.8-.1A4.5,4.5,0,0,0,207,141a1.93,1.93,0,0,0,.68-.64,3.24,3.24,0,0,1-.25-.24c1.13-.55,1.13-.55,2.24-1.06a3,3,0,0,1,.48.16.57.57,0,0,1,.32-.53l.56-.29.06-.15,0,0c.1-.22.17-.37.24-.55l0-.12h0c.17-.39.39-1,1.08-2.36a9.09,9.09,0,0,1,1-.35l-.42-.05c-.29,0-.47-.6-.59-.58-.72.14-1.43.32-2.13.53s-1.36.51-2,.79c-1.33.58-2.66,1.23-4,1.85a1,1,0,0,1-1.31.1.82.82,0,0,1,.06-1.23c2.7-6,9.14-9.76,15.48-11,1.51-.58,3-1.19,4.47-1.81l-.34-.12,1.28-.28.12,0-1.33-.35c-.24,0-.47,0-.71.09a29.17,29.17,0,0,1-5.29,1.71c-1.8.47-3.61.94-5.41,1.54s-3.91.8-5.9,1.26a.82.82,0,0,1-1.13-.23.79.79,0,0,1,.43-1.05,35.83,35.83,0,0,1,8.14-5.23A20.91,20.91,0,0,1,222,118.9a5.68,5.68,0,0,1,3.13-.8l.05,0-1-.35c.82-.26,1.58.14,2.39,0l-.83-.83c2-.66,3.93-1.58,5.88-2.37a28.1,28.1,0,0,1,3-1,14.46,14.46,0,0,1,3.06-.49,3.12,3.12,0,0,1,.44-.09,21.85,21.85,0,0,1,1.75-2c.16-.15.32-.3.5-.45a.94.94,0,0,1,.14-.12l.43-.24.87-.49a37.29,37.29,0,0,1,3.74-1.88c-.94.3-1.84.66-2.74,1l-2.65,1s.17-.12.27-.18l.34-.2.67-.41,1.36-.79c.91-.54,1.85-1,2.81-1.48,1.91-.92,3.89-1.8,6-2.61,11.38-4.37,24.9-6.54,31.66-5.37a243.6,243.6,0,0,1,33.54-6.19,268.94,268.94,0,0,1,33.9-1.43,4.25,4.25,0,0,1,2.41.57c.12.26-.66.47-1.82.44a264.89,264.89,0,0,0-48.55,4.62,287.18,287.18,0,0,1,41.23-2c1.76,0,3.54-.07,5.33,0s3.51.23,5.24.43c17.69,1,34.16,4,51.53,8l2.77.63,2.7.72L416.8,106c1.76.44,3.47,1,5.18,1.51l5.13,1.56c3.39,1.08,6.74,2.29,10.16,3.44s6.81,2.58,10.34,3.93a284.82,284.82,0,0,1,27.92,13.11,245.93,245.93,0,0,1,25.84,16.34c2.25,1.62,4.13,3.43,4.13,4s-1.83-.29-4.09-1.89a311.29,311.29,0,0,0-27.75-16.68,317.55,317.55,0,0,0-29.49-13.57A301.15,301.15,0,0,0,413,107.23,312.64,312.64,0,0,0,380,99.84c-2.44-.44-4.88-.73-7.29-1.09l-3.62-.52c-1.21-.16-2.42-.26-3.62-.4a.68.68,0,0,1,.1.28c0,.36-.52.65-1.3.86l4.09.45c1.36.19,2.72.42,4.09.63l4.08.66,2.05.33,2,.42a190.39,190.39,0,0,1,45.67,10.7,236,236,0,0,1,28.52,13.49A281.6,281.6,0,0,1,489.25,144a3.19,3.19,0,0,1,1,.79c.11.18-.18.1-.63-.17l-5.95-3.27-3-1.64-3.05-1.58-6.14-3.16c-2.09-1-4.17-2-6.27-3,1.15,1,1.73,1.76,1.42,2.1s-1.51.2-3.16-.33l5.52,3c1.14.6,1.94,1.26,1.79,1.45s-1.11-.14-2.2-.71c-3.75-2-7.47-4-11.31-5.84-1.91-.92-3.79-1.9-5.73-2.76l-5.8-2.61a292.62,292.62,0,0,0-28.89-9.88,7,7,0,0,1,2.44,2.12h0l4.49,1.38c27.69,7.64,54.5,21.06,78.43,38.55.47.33.82.67.78.75s-.46-.11-.89-.41c-3.64-2.59-7.25-5.22-11-7.62-1.88-1.2-3.71-2.48-5.63-3.61L479.73,144l0,0c.28.24.28.38-.09.24a5.28,5.28,0,0,1-1.2-.73c-.32-.27-.23-.35.09-.23a244.18,244.18,0,0,0-44.88-20.11,257.22,257.22,0,0,1,40.77,19.23c1.48.7,3,1.35,4.47,2.12a3.32,3.32,0,0,1,1,.75c.07.14-.27.06-.68-.16l-1.22-.64c2.41,1.51,4.07,3,3.76,3.43s-2.71-.51-5.22-2c-6.9-3.75-13.81-7.43-20.92-10.69l-2.34-1-2.42-.83A290.69,290.69,0,0,1,482.57,151c.89.53,1.57,1.1,1.49,1.27s-.87-.12-1.77-.64a295.3,295.3,0,0,0-28.58-14,288,288,0,0,0-30-11c-3.48-.62-7-1.1-10.47-1.63-3.53-.37-7-.81-10.6-1.1.87.19,1.74.41,2.61.64,11.11,2.61,21.43,5.17,31.57,8.25A197.57,197.57,0,0,1,467,144.51a2,2,0,0,1,.9.66c0,.11-.38,0-.88-.25a222,222,0,0,0-29.7-11.39L431,131.59l-6.27-1.65-3.09-.79-3.1-.66c-2.06-.43-4.09-.85-6.12-1.23l6.07,1.6,3,.78,3,.86,6,1.71,5.92,1.89,3,.94,2.94,1,5.86,2.12c1.94.76,3.87,1.55,5.81,2.34l2.92,1.2c1,.41,1.92.87,2.88,1.3a8.08,8.08,0,0,1,1.7,1,.76.76,0,0,1,.43.06,66,66,0,0,1,6.33,2.52,3.18,3.18,0,0,1,1.06.69C469.5,147.45,469.22,147.41,468.75,147.22Zm-244.61-12-.24-.08h.65l1.4.73Zm-4.67,9.44h0l-.82-.37Zm96.62-48.19-7.27.82c-1.21.11-2.41.28-3.62.46l-3.62.49c-4.84.55-9.62,1.45-14.49,2.07L294,98.59l2.74-.44,2.75-.32,5.52-.61c1.83-.24,3.68-.35,5.53-.46ZM215.86,134.57a12.1,12.1,0,0,1,3.28.79,5.13,5.13,0,0,1,1.34-1.15,27,27,0,0,1,4.27-2.13c-.44-.3-.09-.45,0-.59l.43-.41c-1.58.61-3.25,1.1-4.86,1.76A40.91,40.91,0,0,1,215.86,134.57ZM207.64,143l-.22,0-.23-.76Zm.42,1.26.25-.06C208.42,144.44,208.29,144.41,208.06,144.24Zm2.3-.61a1.79,1.79,0,0,0-.49-.12Zm14.73,16-1.71-3.36,1.57,3.29Z"/><path d="M377.18,144.6l-.57-.28c.12-.18.48-.2,1-.12a10.41,10.41,0,0,0-7.08-.49,9.79,9.79,0,0,0-2.45,1.17,7.17,7.17,0,0,0-1.62,1.48c-1.15.11-1.56.74-1.14,1.31a2.45,2.45,0,0,0,1.11.73,4.54,4.54,0,0,0,1.62.29,5.81,5.81,0,0,1,.89.2c.6.23,1.18.47,1.8.69l1.94.65,2,.67,2.12.67c-.64-.3-1.29-.57-1.91-.82a21.84,21.84,0,0,0,2.44.62l-.58-.48c3.13,1.3,6.4,1.69,7.06.21s-1.79-4.53-5.11-5.9Z"/><path d="M369.44,140c.82.11,1.7.27,2.57.46s1.73.41,2.61.67l.47.29-1-1.42,0,.1c-.42,1.36-2.21,2-3.77,2.63l-.53.28a.64.64,0,0,0-.11.73,2.56,2.56,0,0,0,2.16,1l1.07,0a23,23,0,0,0,2.36.3,13.06,13.06,0,0,0,2.27,0c1.42-.18,2.47-.7,2.33-2.05-.05-.61-.84-1.41-1.37-2.13a3.82,3.82,0,0,0-3.39-1.78c-1.31.1-1.86,1-1.33,1.92L373,141l.27-.41c.2.86-.8,1.17-1.36,1.68l-1.06.39,2.06,1.86.46-.32c-.11-.08-.29-.19-.29-.2a14.67,14.67,0,0,1,2.78-1.82l1.25-.94c.19-.47-.29-1.16-1.07-1.51l-1.1-.41.54.25a53.73,53.73,0,0,0-6.11-.32c-.31,0-.57.14-.56.37S369.12,140,369.44,140Z"/><path d="M375.31,138.62a2.13,2.13,0,0,0,1.19.2l.05-.21-.82-.34C375.14,138,375.08,138.29,375.31,138.62Z"/><path d="M376.55,138.61l.35.14-.3-.21,0,0Z"/><path d="M385.64,288.32c-1,24.84-2.15,49.82-3.7,74.78-.05.84,0,1.55.22,1.59s.33-.61.37-1.38c1.6-25,2.78-49.83,3.78-74.66A2.83,2.83,0,0,0,386,287C385.81,287,385.66,287.54,385.64,288.32Z"/><path d="M363,474.56c-.06-.6-.16-.57-.26,0a10.75,10.75,0,0,0-.07,2.06c.05.5.17.48.26-.05A10.31,10.31,0,0,0,363,474.56Z"/><path d="M354.76,469.13c-.28-3.5-.59-6.82-1-9.78a9.23,9.23,0,0,1-.05-1.64c-.18.2-.38-.47-.51-1.73-2.62-24.84-4.51-51.56-6.26-77.88a2.65,2.65,0,0,1-.64-1.12,29.49,29.49,0,0,1-1.12-9.27l.11-2.86c.18-11.55.39-23.08.8-34.56a71,71,0,0,1-.62-8.05c-.91-9.95-1.72-19.93-2.25-30.14-.21.64-.46,1-.73,1-.63-.21-1.09-2.57-1-5.33,0-1.39.07-2.78.16-4.17-.46,4-.54,8-.8,12a15.16,15.16,0,0,1-.12,1.59c-.09,4.37-.09,8.79,0,13.28.42,39.22,4,76.08,7.74,112.67a7.61,7.61,0,0,1,0,2.07c-.1.35-.27.29-.36-.38-3.5-23.07-8.23-43.05-11-69.14-1.62-15.53-3-31-4-46.49-.26-3.88-.52-7.77-.71-11.67l-.3-5.86c-.1-2-.23-3.92-.22-5.88a57.56,57.56,0,0,1,5.29-23.65c4-8.28,9-16.37,12.8-24.51,1-2.08,1.81-4,2.71-6.33l.63-1.67c.24-.65.48-1.17.68-1.63.42-.92.82-1.7,1.13-2.49a15.62,15.62,0,0,0,1.21-9.43,13.22,13.22,0,0,0-1.75-4.36c-.44-.68-.94-1.4-1.61-2.35a19,19,0,0,1-2.2-4,16.45,16.45,0,0,1-1.05-5.26,17.21,17.21,0,0,1,.56-5.15,23.57,23.57,0,0,1,4-7.76,12.67,12.67,0,0,0,1-1.59l0-.05v0s0,0,.09.06l.35.19c.23.12.48.22.73.32l.39.13a.88.88,0,0,1,.2.08,2.79,2.79,0,0,0,.66.17h0c.07,0-.14,0-.22,0l-.29,0-.21.05.1,0c.06,0,0,0-.4.18l-.3.17c-.13.07-.21.14-.36.23l-.46.33-.1.09h0a.81.81,0,0,0-.19-.31A2.4,2.4,0,0,0,355,187c-.4-.36-.73-.7-1.14-1-.8-.6-1.58-1.19-2.3-1.81a21.55,21.55,0,0,1-3.71-3.68,9.77,9.77,0,0,1-1.76-4.15,3.72,3.72,0,0,1-.13-1.21,9.18,9.18,0,0,1,.56-3.49,6.19,6.19,0,0,1,.64-1.38,6.87,6.87,0,0,1,.85-1.27,5.52,5.52,0,0,1,.46-.62l.61-.59a16.41,16.41,0,0,1,1.41-1.1,7.92,7.92,0,0,1,.8-.53,6,6,0,0,1,.87-.5c.66-.27,1.32-.56,2-.86,1.32-.57,2.83-.95,4.2-1.42l2.08-.69c.42-.16.63-.25.93-.38a9.09,9.09,0,0,0,1.34-.68,2.29,2.29,0,0,0,.28-.24h0l.08.1c.18.24.46.52.59.69a4.53,4.53,0,0,0,.51.57l.28.26.2.2a3.13,3.13,0,0,0,.44.36c.17.11.21.17.34.25s.28.14.31.17a.93.93,0,0,0,.2.08c.13.05.19,0,.11.05a1.16,1.16,0,0,0-.34.12,2.16,2.16,0,0,0-.6.33,4.42,4.42,0,0,0-.86.63l-.19.18-.28.24a6.51,6.51,0,0,0-.54.51c-.17.17-.33.35-.49.54a2.25,2.25,0,0,1-.28.32c-.08.09,0,0-.06,0l-.09,0-.38-.08c-.65-.16-1.64-.39-2.72-.58-.56-.09-1.08-.19-1.75-.27l-2-.08c-.67,0-1.37-.2-2.06-.29a81.27,81.27,0,0,1-8.85-1.95l-1.67-1a3.48,3.48,0,0,0-.43-.25l-.55-.2-1.09-.4a7.93,7.93,0,0,1-1.05-.41l-.74-.56c-.49-.38-1-.75-1.44-1.14s-.93-.76-1.36-1.15l-.44-.39-.58-.52c-.79-.68-.48-1.58-1.35-2.25l-.5-.53a2.32,2.32,0,0,1-.43-.54l-.67-1.12-.54-1.16c-.18-.38-.49-.79-.73-1.18-.65-.8.08-1.59-.74-2.49l-.37-.66a3.54,3.54,0,0,1,0-.65l.06-.66c0-.1,0-.22-.09-.35l-.15-.37c-.18-.48-.56-1-.31-1.43l.16-.69.09-.34a1.33,1.33,0,0,0-.07-.38c-.12-.53-.26-1.06-.36-1.58l.56-1.37.14-.34a1.26,1.26,0,0,0,0-.39v-.79c0-.53-.05-1.06,0-1.6l.1-1.62,0-.4c0-.15.13-.22.19-.33l.49-.6,1-1.22a10.72,10.72,0,0,0,.56-1.46l.52-1.49,0-.09,0,0-.06-.1-.26-.41-.13-.21c0-.05,0-.07,0-.11l.09-.2.34-.8.35-.81.27-.71.54-1.32c.35-.84.73-1.72,1.11-2.55s.6-1.37.92-2a17.41,17.41,0,0,1,1-1.8,12.55,12.55,0,0,1,2.07-2.63c1.33-1.27,2.7-1.68,3.68-1,1.19.9,1.55,3.11,1.13,5.55.22-.33.43-.66.64-1,.4-.45.81-.93,1.2-1.35,1.15-1.18,2.36-1.94,3.46-1.87l1.43,0c2.32.54,5.1.34,7.47,1.75l.38,1,.37,0a3.72,3.72,0,0,1,2.85,1.17l.65,1.13a12.11,12.11,0,0,1,1.21,4.23,3.87,3.87,0,0,1,.66,1.41,5.64,5.64,0,0,1,2.63,3.21.8.8,0,0,1,.58,1.08.84.84,0,0,1-.34.36h0a9.16,9.16,0,0,0,.89.45l.6,0c1-.15,1-.15,1.84-.23a5.89,5.89,0,0,1,1.66.59c2,1.84,2.06,1.88,2.51,2.8,0,.1,0,.19,0,.28a8.64,8.64,0,0,1,1.07.27,4,4,0,0,1,.51.3c.34.5.34.5.55.66a3,3,0,0,1,.27.38c0,.6,0,.59.09.75a1.12,1.12,0,0,1,0,.29l-.47.33L375,137.43l.08.45-.55-.52.44.49-.63-.24.78.37a4.65,4.65,0,0,0-1.54.06,1.57,1.57,0,0,0-.77.23,3,3,0,0,1,.21.25l-2.33.07-.44-.24c0,.14-.16.26-.39.27l-.59.06-.06.09,0,0-.29.32-.06.08h0c-.21.22-.5.54-1.29,1.33a8.63,8.63,0,0,1-1,0l.37.11c.25.08.36.46.47.47,1.37.08,2.71.15,4.06.17s2.75.08,4.18.22a1.54,1.54,0,0,1,1.34.5c.3.37.17.69-.28.76a10.07,10.07,0,0,1-3.24,1.43,24.2,24.2,0,0,1-3.84.74c-2.69.31-5.46.43-8,.51-.56.08-1.14.21-1.68.33l-1.52.36.23.05c-.24,0-.61,0-.56.16v0h.2a3.8,3.8,0,0,1,.4.07h.46A17.22,17.22,0,0,1,363,146c.76,0,1.46,0,2.24,0l2.38.12a16.87,16.87,0,0,1,2.68.36l2.76.62a1.34,1.34,0,0,1,1,.54c.14.26-.1.43-.53.39-1.25.14-2.45.17-3.77.24-.63,0-1.23,0-1.88.05l-1,0h-.89c-1.26,0-2.39-.07-3.51-.12l-1.58-.16a3.58,3.58,0,0,1-.37-.06,1.6,1.6,0,0,0-.31-.05l-.11.06a1.53,1.53,0,0,1-.84.3h0l.49.08c-.18.11-.6,0-.81.14l.62.19a1.55,1.55,0,0,0-.47,1.31c.05.46.22.84.25,1.2a.14.14,0,0,1,.05.08c.35.12.69.21,1,.3l.22.06.05,0,.17.08.35.16c.46.21.92.4,1.39.59a12.39,12.39,0,0,1-1.67-.91c.64.31,1.34.56,2,.79l.23.09.13,0,.06,0,.12.08,1.95,1.29c.68.46,1.38.91,2.14,1.46a24.59,24.59,0,0,1,2.48,2l.46.44c.17.17.35.37.51.55a12.26,12.26,0,0,1,1,1.36,6.76,6.76,0,0,1,.5.94,5.51,5.51,0,0,1,.42,1.09,9.29,9.29,0,0,1,.28,1.27,10.11,10.11,0,0,1,0,1.35,7.57,7.57,0,0,1-1.79,4.33,10,10,0,0,1-2.31,2,22.18,22.18,0,0,1-3.64,1.78l-1.15.46-.36.11a10.18,10.18,0,0,0-1.47.55,1.7,1.7,0,0,0-.62.51,1.62,1.62,0,0,1-.1.18,1.21,1.21,0,0,1,0,.19.68.68,0,0,0,.1.35,4.9,4.9,0,0,0,1,1l.28.24.14.13.07.06v0l0,0c-.05,0,0,0,0,0l.17.13a16,16,0,0,1,2.66,2.62,12.53,12.53,0,0,1,2,3.71,11.91,11.91,0,0,1,.48,2.05c.06.7.1,1.39.09,2.06a13.8,13.8,0,0,1-.3,2,12.38,12.38,0,0,1-.57,1.72,13.63,13.63,0,0,1-.7,1.38c-.24.38-.48.75-.71,1.08a28.21,28.21,0,0,1-2.1,2.76c-.59.71-1.1,1.3-1.48,1.83a6.25,6.25,0,0,0-1.29,2.81,4.54,4.54,0,0,0,0,1.36,5.36,5.36,0,0,0,.63,1.71c.78,1.5,2,3.54,3,5.58A55.54,55.54,0,0,1,369.38,222c.44,2.24.71,4.56.95,6.73l.18,1.56c.08.53.16.83.27,1.32.19.9.43,1.79.65,2.67.51,1.91,1.05,3.85,1.67,5.76s1.29,3.9,2,5.85c1.39,3.88,3,7.8,4.42,11.69a99.48,99.48,0,0,1,6.27,23.36c.21,1.61,0,3-.29,3.32s-.71-.9-.89-2.51a99.08,99.08,0,0,0-3.91-16.79c-1.81-5.62-4-11.26-6-16.91-1-2.81-1.9-5.65-2.73-8.46-.4-1.4-.78-2.8-1.12-4.2l-.26-1.05-.22-1c-.15-.65-.29-1.3-.41-2-.26-1.16-.34-2.81-.52-4.39s-.37-3.23-.66-4.85a53.45,53.45,0,0,0-2.55-9.4,50.71,50.71,0,0,1,2.15,7.84,66,66,0,0,1,1,8.05c0,.65.09,1.28.15,1.86s.16,1.05.26,1.62c.2,1.11.39,2.15.65,3.37.51,2.37,1,4.7,1.71,7.11,2.51,9.53,5.88,19.19,7.53,28.89.49,2.48.88,5,1.18,7.46a45,45,0,0,1,.24,7.33c-.1,12.38-.44,24.44-.7,36.57s-.52,24.33-.67,37c-.24,21.59-.67,40.49-1.64,62-1.42,30.19-3.95,57.69-9.73,87.5a44.06,44.06,0,0,1-2.06,8.1c-.35.47,0-2.4.64-6.38,2.48-15.55,4.13-31,5.39-46.52s2.1-31,2.73-46.59c1.27-31.19,1.81-62.73,2.85-95.25.21-7,.42-13.91.62-20.77a.71.71,0,0,1-.37.16c-.48,0-.92-.66-1.28-1.77q-.39,11.7-1.05,23.53c.5,21.94.65,43.91-1,67.28-1.16,16.05-2.9,30.57-4.54,45.42-.77,18.82-1.79,37.58-3.59,56.58a8.8,8.8,0,0,1-.28,1.82c-.1.27-.14-.14-.09-.91.85-13.06,1.38-26.46,1.76-40-.5,2.13-1,3.39-1.54,3.22s-.9-1.83-1.14-4.36l-.46,9.19c-.11,1.89-.38,3.38-.62,3.33S364,463.84,364,462q.73-18.75,1.49-37.46c.14-15,.2-29.92.24-44.93a10.74,10.74,0,0,1-1.85,4.32h0c0,2.33-.05,4.65-.08,7q.9,31.82.27,64.29t-2.9,65.29a8.38,8.38,0,0,1-.18,1.58,6.19,6.19,0,0,1,0-1.42q1.23-19.81,1.94-39.51v.05c-.08.53-.2.63-.24.05a11,11,0,0,1,.07-2.06c.09-.61.2-.55.25-.05.86-24.47,1.06-48.77.6-72.75q-.43,33.42-1.66,66.8c0,2.43.1,4.85.16,7.31a7.74,7.74,0,0,1-.19,1.82c-.09.19-.17-.3-.17-1l0-2.05c-.17,4.22-.65,7.46-1.12,7.39-.48-.24-.83-3.86-.78-8.24q0-17.58.08-35.08l-.1-3.79c-.1-1.27-.21-2.54-.31-3.81-.39,18.16-.74,36.29-.87,54.3a7.84,7.84,0,0,1-.27,2.9,7,7,0,0,1-.33-2.77c-1.09-31.76-2.38-63.92-3.13-96.22-1.38-10.61-2.86-21.26-4.35-32.1V366c.17,17.56,1.45,33.79,2.69,49.89s2.47,32,3.07,49a4.29,4.29,0,0,1-.13,1.67c-.1.09-.22-.49-.25-1.35-.72-16.6-2.11-31.74-3.3-48.21-1-13.64-1.92-26.61-3.15-39.3.83,25.92,3.05,50.77,4.4,76.44a15.84,15.84,0,0,1,0,3,1.59,1.59,0,0,1,.18.64c.41,3.21.74,6.71,1,10.28a7.13,7.13,0,0,1,0,1.91C355,470.31,354.85,469.89,354.76,469.13Zm2.5-329.21.2,0-.54.07-1.11-.28S356.5,139.8,357.26,139.92Zm4.86-6.88h0l.71.31Zm7.4,99.63c-.14-.8-.28-1.6-.36-2.36l-.2-2.71c-.14-1.88-.33-3.82-.65-5.73a49.27,49.27,0,0,0-3.1-11,47.26,47.26,0,0,0-2.48-5.1A13.43,13.43,0,0,1,361,202a4.36,4.36,0,0,1,0-1.36,6.58,6.58,0,0,1,.33-1.44,9.33,9.33,0,0,1,1.73-2.74,9.33,9.33,0,0,0-1.62,2.69,5.74,5.74,0,0,0-.27,2.68c0,1.12,1.68,3.53,2.95,6.14a49.28,49.28,0,0,1,3.09,8.13,52,52,0,0,1,1.62,8.6c.16,1.45.24,2.91.32,4.29,0,.67.07,1.38.15,1.9S369.42,232.08,369.52,232.67Zm-5.15-92.29a19.64,19.64,0,0,1-2.82-.73,4.78,4.78,0,0,1-1.26.7c-1.2.54-2.44,1-3.54,1.53.34.13.07.25,0,.35s-.24.18-.33.27c.61-.25,1.24-.5,1.88-.71s1.36-.41,2.05-.6,1.32-.34,2-.49A13.62,13.62,0,0,1,364.37,140.38Zm8.87-4,.21.11.1.64Zm-.21-1.09-.26,0C372.7,135,372.82,135.07,373,135.27Zm-2.37-.21a1.82,1.82,0,0,0,.46.22Zm-11.92-15.23,1.18,3.19-1.05-3.14Z"/><path d="M25.72,17v.51c-.3,0-.54-.16-.74-.49a6.24,6.24,0,0,0,3.44,4.83,10.71,10.71,0,0,0,6,.78,1.83,1.83,0,0,0,2.74-.31,2.36,2.36,0,0,0,.05-3,2.56,2.56,0,0,1-.26-.78,16.85,16.85,0,0,0-1.52-6.62c.07.52.15,1.06.22,1.58a5,5,0,0,0-.93-1.63l-.25.68a3.65,3.65,0,0,0-5.12-3,5.9,5.9,0,0,0-3.81,6.29Z"/><path d="M24.21,25.18c-.48-1.47-.86-2.95-1.2-4.43l.08-.48L22,21.79l.09-.08c1.86-.48,3.64.25,5.2,1l.64.16a1.64,1.64,0,0,0,1-.47,1.67,1.67,0,0,0,.23-2.23c-.2-.23-.38-.49-.57-.73-1-2.32-3.42-4.6-6.43-2.95a6.46,6.46,0,0,0-1.64,2,2.23,2.23,0,0,0-.14,3.11,2,2,0,0,0,3-.21l.27.58L23,22c.92-.64,1.84-.16,2.77-.12l1,.52,1.31-2.73-.67-.08a2.93,2.93,0,0,1-.11.33,16.52,16.52,0,0,1-3.84-.59l-1.85-.19a1.52,1.52,0,0,0-1.15,1.51l.12.94v-.49c.79,1.56,1.84,3,2.63,4.59a.47.47,0,0,0,.69.24A.62.62,0,0,0,24.21,25.18Z"/><path d="M19.64,21.74a1.11,1.11,0,0,0-.41-.89l-.27.07c0,.2,0,.46.07.72C19.07,22.16,19.4,22.07,19.64,21.74Z"/><path d="M19,20.92l0-.3c0,.11-.05.21-.07.31h0Z"/><path d="M146.18,62.9c1,0,1.92.11,2.89.12h8.72l5.83-.27,2.92-.14,2.92-.26,5.85-.53,5.83-.77,2.93-.4c1-.14,1.93-.33,2.91-.49l5.82-1c.53-.09.94-.28.93-.41s-.43-.12-.91,0l-5.82,1-2.9.5-2.91.38-5.82.77-5.82.52-2.91.25-2.91.14-5.8.26c-1.94,0-3.87,0-5.8,0s-3.86,0-5.77-.12c-.52,0-.94.08-1,.21S145.7,62.87,146.18,62.9Z"/><path d="M264.17,43.18c-.31.26-.24.35.15.21a4.17,4.17,0,0,0,1.2-.66c.26-.21.19-.31-.15-.2A4.55,4.55,0,0,0,264.17,43.18Z"/><path d="M264.89,51.89,262,53.83c-.94.61-1.83,1.21-2.66,1.81a4.51,4.51,0,0,1-1,.52c.2.09-.13.43-.86.9-14.32,9.32-31.12,17.16-48.29,23.6a1.57,1.57,0,0,1-.62.65,19.52,19.52,0,0,1-6,2.49l-1.95.46c-2,.5-3.94.89-5.9,1.35s-3.93.92-5.92,1.27L182.84,88l-3,.53-3,.4a47.59,47.59,0,0,1-5.49,1.43c-3.4.89-6.85,1.61-10.32,2.42s-7,1.28-10.63,1.89c.47.11.75.27.76.47s-.5.5-1.18.7a13.06,13.06,0,0,1-2.58.37l-3,.2c2.86-.06,5.73,0,8.56-.24a11.28,11.28,0,0,1,1.14,0c3.11-.31,6.26-.56,9.42-1.11A213.52,213.52,0,0,0,203,85.09a263.27,263.27,0,0,0,35.42-15.57,4.39,4.39,0,0,1,1.31-.56c.26,0,.27.11-.13.36-1.71,1.08-3.42,2.08-5.12,3.07l-5.06,3c-3.39,1.94-6.78,3.84-10.27,5.74a170.88,170.88,0,0,1-23.35,10.37,242.36,242.36,0,0,1-67,13.81,333.06,333.06,0,0,1-36.45-1.87,238.76,238.76,0,0,1-36.92-6.7c-2.15-.5-4.24-1.2-6.35-1.81L42.73,93l-6.19-2.23c-2.06-.76-4.14-1.46-6.14-2.35l-1.52-.64-.75-.32-.29-.1-1-.39-2.06-.78c-1.36-.53-2.73-1-4.05-1.66-2.66-1.21-5.29-2.47-7.92-3.76S7.62,78,5,76.51a8.39,8.39,0,0,1-4.4-4.2A6,6,0,0,1,.6,67a6.47,6.47,0,0,1,5.34-3.31l-.83-.62L4,61.83a6.07,6.07,0,0,1-1.5-4.15V55.81c.54-3.19.21-6.62,1.22-9.75l.94-.74v-.44a5.49,5.49,0,0,1,.65-3.52l1-1a14.47,14.47,0,0,1,3.91-2.72,5,5,0,0,1,1.28-1.2,7,7,0,0,1,2.6-3.86,1,1,0,0,1,1-1,1,1,0,0,1,.51.14h0c.09-.41.11-.53.18-1-.18-.31-.27-.51-.27-.51-.53-.77-.53-.77-1-1.45a4.61,4.61,0,0,1-.06-1.6c1.08-2.42,1.09-2.41,1.88-3.18l.3-.15a8.33,8.33,0,0,1-.25-.88,2.13,2.13,0,0,1,.07-.5c.36-.46.36-.46.43-.69a2.66,2.66,0,0,1,.27-.35c.66-.29.66-.29.79-.43a1.6,1.6,0,0,1,.34-.13l.64.14-.39,1.68.47-.29-.31.66.33-.57L19,23v-.72c.56.79.57.79.87,1a1.37,1.37,0,0,0,.64.43l.18-.29c.61.85.61.85,1.19,1.71a3.41,3.41,0,0,1-.09.48.41.41,0,0,1,.5.14l.33.42h.13l0,0,.52.05h.11c.35,0,.85.1,2.24.16a5.84,5.84,0,0,1,.5.76,2.43,2.43,0,0,1,0-.38c0-.26.44-.61.4-.71a15.21,15.21,0,0,0-.82-1.61c-.27-.54-.58-1.06-.89-1.56-.63-1-1.31-2-2-3a.85.85,0,0,1,.91-1.41c5.23.72,9.1,4.4,11.53,9.17.84.95,1.72,1.87,2.61,2.79v-.33l.56.91.08.08c0-.42-.05-.84-.07-1.26-.08-.18-.16-.36-.25-.54a17,17,0,0,1-2.68-3.46c-.76-1.27-1.4-2.65-2.17-3.9a33.55,33.55,0,0,1-1.83-4.34.75.75,0,0,1,.08-1,.63.63,0,0,1,.92-.05A18.59,18.59,0,0,1,37.9,21a15.35,15.35,0,0,1,3.37,6.45,3.88,3.88,0,0,1,1.42,2.14l0,0v-1c.4.56.35,1.29.69,1.86l.4-1.08c1.13,1.15,2.46,2.12,3.7,3.17a19,19,0,0,1,1.79,1.69,11.68,11.68,0,0,1,1.56,1.92c.09.08.17.17.25.25a17.41,17.41,0,0,1,2.17,0l.53.08.14,0,.35.16.71.32c1,.43,1.89,1,2.92,1.43-.66-.39-1.28-.82-1.9-1.25L54.2,36c.66.24,1.48.59,2.2.91s1.49.64,2.26,1A48.24,48.24,0,0,1,63.22,40c8.36,4.32,17.78,9.72,22,13.8A202.45,202.45,0,0,0,113,60.24a199.22,199.22,0,0,0,28.55,2.19,3.13,3.13,0,0,1,2,.44c.11.27-.54.51-1.53.54s-1.72.1-2.58.12h-7.78c-1.73,0-3.47-.15-5.2-.22s-3.48-.15-5.22-.31a191.66,191.66,0,0,1-20.74-2.94A168,168,0,0,0,135.78,66c1.55,0,3.1.12,4.66.1s3.07.06,4.6.18a187.72,187.72,0,0,0,46.12-5.14A240.28,240.28,0,0,0,228.57,48.7c8.86-3.8,17.13-7.86,25.29-12.12s16.07-8.91,24.29-13.85c2.13-1.4,4.32-2.38,4.84-2.17s-.82,1.53-3,3q-12.52,8.37-25.67,15.57A287.24,287.24,0,0,1,227.21,51.9a223.21,223.21,0,0,1-28.71,9.57A195.93,195.93,0,0,1,168.23,67c-2.23.26-4.45.35-6.64.53l-3.29.24c-1.09,0-2.18.07-3.27.1a.67.67,0,0,1,.13.27c0,.35-.37.7-1,1l3.75-.08,3.76-.21,3.77-.21,1.9-.09,1.89-.17c13.89-2.36,27.54-5.78,42.11-9.7,10-2.76,19.08-5.4,28.24-8.63A309.14,309.14,0,0,0,272,32.57a3.14,3.14,0,0,1,1.08-.52c.2,0,0,.2-.39.49-1.77,1.2-3.58,2.36-5.39,3.54l-2.73,1.77-2.79,1.69-5.65,3.37-5.8,3.19c1.4-.32,2.33-.33,2.44.12s-.67,1.32-2,2.33l5.45-2.67c1.13-.53,2.09-.84,2.16-.63s-.7.86-1.78,1.38c-3.71,1.84-7.4,3.72-11.18,5.38-1.89.83-3.75,1.74-5.66,2.52L234,56.89a265.29,265.29,0,0,1-27.8,10.42,6.79,6.79,0,0,1,3.12.39h0l4.41-1.39a373,373,0,0,0,76-39.68c.47-.32.9-.52,1-.44s-.25.38-.68.66c-3.67,2.41-7.27,4.9-11,7.17-1.87,1.15-3.67,2.38-5.57,3.46l-5.61,3.35,0,0c.33-.12.45-.06.15.2a4.78,4.78,0,0,1-1.17.7c-.39.14-.41,0-.16-.2a387.63,387.63,0,0,1-43.25,21.41,336.53,336.53,0,0,0,40.41-18.42c1.35-.9,2.72-1.74,4.07-2.69a3.3,3.3,0,0,1,1.1-.51c.15,0-.08.27-.46.52l-1.12.78c2.43-1.39,4.52-2.13,4.75-1.66s-1.73,2.15-4.26,3.62c-6.8,3.94-13.66,7.73-20.76,11.06L245,56.81l-2.2,1.35a302.12,302.12,0,0,0,32.56-16.51c.89-.55,1.72-.88,1.84-.73s-.52.71-1.42,1.26a276.24,276.24,0,0,1-27.9,16.43,267.59,267.59,0,0,1-30,13.23c-3.25,1.63-6.57,3.17-9.9,4.79s-6.78,3-10.27,4.47c.92-.2,1.84-.45,2.75-.72a177.91,177.91,0,0,0,31.89-12.52c9.89-4.89,19.36-10.21,29.36-15.93a2.2,2.2,0,0,1,1.06-.43c.1.06-.19.34-.7.63C252.27,57.8,243.35,63.06,233.19,68l-6.26,3-6.23,2.74-3.08,1.37-3.09,1.27L208.41,79c2.12-.72,4.22-1.48,6.3-2.23l3.11-1.14,3.06-1.25L227,71.8l5.94-2.74,3-1.37,2.91-1.47,5.82-2.93,5.76-3.09,2.88-1.54c1-.51,1.9-1.07,2.86-1.61a8.53,8.53,0,0,1,1.83-.86,1,1,0,0,1,.32-.32c1.8-1.28,3.84-2.53,5.85-3.91a3.5,3.5,0,0,1,1.18-.56C265.51,51.36,265.31,51.58,264.89,51.89ZM28.21,36.67v-.24l.2.55-.21,1.5Zm-9.72-.94h0c.09-.49.16-.85.16-.85C18.58,35.23,18.53,35.5,18.49,35.73Zm93.09,28-6.24-1.22c-1-.19-2.06-.46-3.08-.73L99.21,61A113.15,113.15,0,0,1,87.3,57l5.89,1.45,2.25.78,2.27.67,4.58,1.38c1.52.49,3.07.87,4.62,1.26ZM26.83,29.1a13.45,13.45,0,0,1,0,3.17,3.84,3.84,0,0,1,1.31.76c1,.95,2,1.86,3,2.82.13-.5.36-.27.52-.23l.48.19a43.05,43.05,0,0,1-2.85-3.4A27.72,27.72,0,0,1,26.83,29.1Zm-8.7-4.73,0-.22.67-.4ZM17,25.06l.09.22C16.87,25.44,16.88,25.32,17,25.06ZM17.84,27a1.54,1.54,0,0,0,.05-.48ZM5.34,44.77,8.27,42.4l-2.9,2.21Z"/><path d="M126.31,24.87l.26,0c0,.16-.16.27-.36.35,2.46,0,3.94-2.31,4.34-4.49a1.1,1.1,0,0,0-1.18-1.85,1.72,1.72,0,0,1-.44.06,8.48,8.48,0,0,0-3.68.26h.86a2.85,2.85,0,0,0-1,.4l.31.18a2.53,2.53,0,0,0,.26,5.06Z"/><path d="M130.15,26.32c-.79.11-1.57.18-2.36.24l-.23-.08.6.71,0-.06a4.46,4.46,0,0,1,1.24-2.62l.18-.32a.75.75,0,0,0-.06-.57.8.8,0,0,0-1.09-.34l-.45.24c-1.31.34-2.86,1.51-2.44,3.17.1.39.49.67.78,1a1.11,1.11,0,1,0,1.85-1.24l.33-.09-.06.32c-.19-.53.18-1,.33-1.45l.41-.5L128,23.79l-.14.35a.76.76,0,0,0,.15.08,10.31,10.31,0,0,1-.86,2l-.35.94a.67.67,0,0,0,.6.7l.49,0-.25,0c.89-.28,1.74-.7,2.63-1a.28.28,0,1,0-.12-.54Z"/><path d="M127.83,28.36a.68.68,0,0,0-.51.14v.14l.37,0C128,28.69,128,28.52,127.83,28.36Z"/><path d="M127.33,28.64h-.16l.15.06v-.05Z"/><path d="M149.2,8.35a37.86,37.86,0,0,0,3.7-2s0-.1,0-.17-.12-.1-.15-.08a41.26,41.26,0,0,1-3.7,2s0,.1,0,.17S149.16,8.36,149.2,8.35Z"/><path d="M162.82,9a.22.22,0,0,0,.14.17c.06,0,.1,0,.09-.07a.34.34,0,0,0-.14-.17C162.84,8.88,162.81,8.92,162.82,9Z"/><path d="M166.85,14.67a1.89,1.89,0,0,0-.11.74c0,.05,0,.06-.07.05a.42.42,0,0,1,.12.32,15.21,15.21,0,0,1-2,4.47,1.77,1.77,0,0,1,.15.31c.14.34.1.61-.11.69l-.18,0c-.63.23-1.24.49-1.88.7a.85.85,0,0,1-.17.52,12.93,12.93,0,0,1-.59,2,.83.83,0,0,1,.26.24c.18.25.22.51.09.59l-.17.16.67-.22h.1a4.18,4.18,0,0,0,.57-.47,15.25,15.25,0,0,0,3.23-6c0-.06,0-.08.11,0a.27.27,0,0,1,.12.18c-.06,2,.31,4.3-.21,6a30.3,30.3,0,0,1-2.26,5.57c-1.46,1.13-2.35,2.77-3.5,4.35-.39.54-.79,1-1.21,1.52-.07.07-.07.09-.2.21l-.34.31-.67.61c-.45.41-.91.81-1.36,1.2-1.82,1.58-3.68,3.09-5.58,4.61A3.32,3.32,0,0,1,146,40.36l-.37.26-.69.26a2.9,2.9,0,0,1-2.05,0l-.86-.3c-1.41-.75-3-1.06-4.35-1.93l-.26-.52-.2-.06a2.85,2.85,0,0,1-1.58-.73l-.39-.58a6.67,6.67,0,0,1-.87-2.15,2.56,2.56,0,0,1-.43-.75,3.42,3.42,0,0,1-1.55-1.67.49.49,0,0,1-.37-.58.48.48,0,0,1,.13-.23h0l-.47-.19-.28.09-.82.33a2.21,2.21,0,0,1-.79-.12c-1.06-.75-1.06-.75-1.34-1.21a.94.94,0,0,1,0-.16l-.47.05a1.26,1.26,0,0,1-.24-.07c-.18-.22-.18-.22-.29-.27a1.27,1.27,0,0,1-.14-.17c-.06-.35-.06-.35-.12-.43a.94.94,0,0,1,0-.18l.16-.31.79.33-.09-.26.29.21-.24-.21.29,0-.36-.07a1.91,1.91,0,0,0,.62-.35.78.78,0,0,0,.3-.29l-.11-.12,1-.46.22.09a.23.23,0,0,1,.14-.24l.25-.13,0-.07,0,0,.1-.26,0-.06h0c.07-.18.16-.44.41-1.13a3.16,3.16,0,0,1,.46-.16l-.2,0c-.13,0-.23-.29-.28-.29a17.44,17.44,0,0,0-3.59,1.35.43.43,0,0,1-.59,0,.42.42,0,0,1,0-.59,9,9,0,0,1,6.43-5.1c.62-.31,1.24-.63,1.85-1l-.16-.05.55-.16.06,0-.63-.15-.31,0A26.82,26.82,0,0,1,130,21.21a21.77,21.77,0,0,1-2.52.55.36.36,0,0,1-.5-.13.37.37,0,0,1,.13-.5c1.85-1.87,4.4-3.44,7.11-3.37a2.14,2.14,0,0,1,1.32-.44h0l-.49-.15c.35-.14.71,0,1.06-.07l-.45-.37c1.61-.8,3-2.09,4.8-2.44l.18-.07a9.71,9.71,0,0,1,.94-1.79l-.45.12a1.42,1.42,0,0,1,.51-.89,3.11,3.11,0,0,1,3.36.48,50,50,0,0,0,3.69-3.73c.05-.08.19,0,.31.09s.16.3.11.37a16.78,16.78,0,0,1-2.26,3.23,15.53,15.53,0,0,0,2.91-1.46l.28-.31a.71.71,0,0,1,.38-.18,13,13,0,0,0,3-2.76,28.87,28.87,0,0,0,1.94-3.13A12.4,12.4,0,0,1,158.36.08c.14-.18.5,0,.78.27s.41.74.26.92c-1.91,3.18-3.6,6.55-6.59,8.6l-1,.64.11.14a1.74,1.74,0,0,1,.31.56,9.63,9.63,0,0,1,1.21-.58A6.59,6.59,0,0,1,156,7.75a9.18,9.18,0,0,1,2.71-.63c.66-.85,1.28-1.76,2-2.59,0,0,.08,0,.14,0s.1.14.08.19a12.79,12.79,0,0,1-1,2.4,2.38,2.38,0,0,1,.76.68,2.29,2.29,0,0,1,.43.94l.42-.29c.09-.05.25,0,.37.18s.16.34.07.4l-1.7,1.21c-.52.68-1.06,1.34-1.62,2a3.36,3.36,0,0,1,.77.61h0l.29-.26A13.86,13.86,0,0,1,164.49,7s.11,0,.17.07.08.16,0,.18A10.79,10.79,0,0,0,163,8.58h0a.3.3,0,0,1,.14.17c0,.07,0,.1-.09.08a.25.25,0,0,1-.14-.18A15.06,15.06,0,0,0,160.36,12a17.43,17.43,0,0,1,2.95-2.25l.12-.52s.09,0,.15,0,.09.15.07.19l0,.13c.21-.11.59.08.87.46s.36.81.16.94c-.46.47-.94.91-1.44,1.33l-.12.19,0,.31c.91-.47,1.85-.9,2.79-1.32.06-.06.2,0,.31.13s.14.29.07.35a28.22,28.22,0,0,1-3.34,4.41c0,.94,0,1.89-.07,2.82a1.06,1.06,0,0,0,.2-.12c1.54-1.19,1.58-3.85,2.81-5.34,0-.05.1,0,.15,0s.09.15.05.18a15.63,15.63,0,0,0-1.2,2.82,14.68,14.68,0,0,0-.91,2.4c1-1,1.56-2.6,2.44-3.79,0-.07.1-.07.19,0a.34.34,0,0,1-.05-.11,2.61,2.61,0,0,1,.12-.78c0-.05.07-.05.14,0A.21.21,0,0,1,166.85,14.67Zm-30.48,11-.12,0h.3l.69.33Zm-1.87,4.64h0l-.39-.18Zm13.72-18.2a4.63,4.63,0,0,1-2.15.9l.36-.42A16.16,16.16,0,0,1,148.22,12.14ZM132.49,25.42a5.91,5.91,0,0,1,1.54.39,2.17,2.17,0,0,1,.57-.56,19.71,19.71,0,0,1,1.86-1.1c-.22-.14-.07-.22,0-.29l.17-.21c-.69.32-1.4.63-2.13.94A16.4,16.4,0,0,1,132.49,25.42Zm-3.55,3.93-.11,0-.11-.37Zm.2.61.11,0C129.31,30.07,129.25,30.05,129.14,30Zm1.05-.24a.65.65,0,0,0-.23-.06Zm7.07,8L136.45,36l.74,1.63Z"/><path d="M163.89,115.21l-.57-.28c.12-.18.48-.2,1-.11a10.3,10.3,0,0,0-7.08-.49,9.44,9.44,0,0,0-2.45,1.16,7.19,7.19,0,0,0-1.62,1.49c-1.15.11-1.56.73-1.14,1.3a2.45,2.45,0,0,0,1.11.73,4.33,4.33,0,0,0,1.62.29,5.81,5.81,0,0,1,.89.2c.6.24,1.18.47,1.8.69l1.94.65,2,.67c.69.22,1.4.43,2.12.67-.64-.29-1.29-.57-1.91-.82A19.86,19.86,0,0,0,164,122l-.58-.48c3.13,1.3,6.4,1.69,7.06.21s-1.78-4.52-5.11-5.89Z"/><path d="M156.15,110.65a25.36,25.36,0,0,1,2.57.46c.86.19,1.73.4,2.61.67l.47.28-1-1.41,0,.09c-.41,1.37-2.21,2.05-3.77,2.64l-.53.27a.64.64,0,0,0-.11.73,2.57,2.57,0,0,0,2.16,1.06l1.07,0a23,23,0,0,0,2.36.3,12.26,12.26,0,0,0,2.28,0c1.41-.18,2.46-.7,2.33-2-.06-.61-.85-1.41-1.38-2.13a3.84,3.84,0,0,0-3.39-1.78c-1.31.1-1.86,1-1.33,1.92l-.75-.1.26-.4c.2.85-.8,1.17-1.36,1.68l-1.06.38,2.06,1.87.46-.32-.29-.21a15.17,15.17,0,0,1,2.78-1.82l1.25-.94c.19-.47-.29-1.15-1.07-1.51l-1.1-.41.54.25a53.68,53.68,0,0,0-6.1-.32c-.32,0-.58.14-.57.37S155.83,110.62,156.15,110.65Z"/><path d="M162,109.23a2.13,2.13,0,0,0,1.19.2l0-.21-.82-.33C161.85,108.65,161.79,108.91,162,109.23Z"/><path d="M163.26,109.22l.35.15-.3-.21,0,0Z"/><path d="M172.35,258.94c-1,24.83-2.15,49.81-3.7,74.78-.05.83,0,1.54.22,1.58s.33-.6.37-1.38c1.6-25,2.78-49.83,3.78-74.66a2.79,2.79,0,0,0-.31-1.64C172.52,257.57,172.37,258.16,172.35,258.94Z"/><path d="M149.69,445.17c-.06-.59-.16-.57-.26,0a10.75,10.75,0,0,0-.07,2.06c0,.5.17.48.26,0A10.31,10.31,0,0,0,149.69,445.17Z"/><path d="M141.47,439.74c-.28-3.5-.59-6.82-1-9.78a9.21,9.21,0,0,1-.05-1.64c-.18.2-.38-.46-.51-1.73-2.62-24.84-4.51-51.56-6.25-77.88a2.48,2.48,0,0,1-.65-1.12,29.45,29.45,0,0,1-1.12-9.27l.11-2.86c.18-11.55.39-23.07.8-34.56a70.65,70.65,0,0,1-.62-8c-.91-10-1.72-19.93-2.25-30.14-.21.64-.46,1-.73,1-.63-.2-1.09-2.57-1-5.33,0-1.39.07-2.77.16-4.16-.46,4-.54,8-.8,12a14.75,14.75,0,0,1-.12,1.59c-.09,4.37-.09,8.79,0,13.28.42,39.22,4,76.09,7.74,112.67a7.61,7.61,0,0,1,0,2.07c-.1.36-.27.29-.36-.38-3.5-23.07-8.23-43.05-11-69.14-1.63-15.52-3-30.95-4-46.49-.26-3.88-.52-7.77-.71-11.67l-.3-5.86c-.1-2-.23-3.92-.21-5.88a57.34,57.34,0,0,1,5.28-23.64c4-8.29,9-16.37,12.8-24.51,1-2.08,1.82-4,2.71-6.34l.63-1.67c.24-.65.48-1.17.68-1.63.42-.92.82-1.69,1.13-2.48a15.64,15.64,0,0,0,1.21-9.44,13.09,13.09,0,0,0-1.75-4.35c-.44-.69-.94-1.4-1.61-2.36a18.53,18.53,0,0,1-2.19-4,16.15,16.15,0,0,1-1.06-5.25,17.24,17.24,0,0,1,.56-5.16,23.57,23.57,0,0,1,4-7.76,12.14,12.14,0,0,0,1-1.58l0-.06h0s0,0,.09.06l.35.18a6,6,0,0,0,.73.32l.39.13a.88.88,0,0,1,.2.08,2.79,2.79,0,0,0,.66.17l0,0a.72.72,0,0,0-.22,0l-.29,0-.21.05.1,0c.06,0,0,0-.4.18l-.3.17-.36.24a5.15,5.15,0,0,0-.45.32l-.11.09h0a.68.68,0,0,0-.19-.3,1.72,1.72,0,0,0-.23-.26,14.83,14.83,0,0,0-1.14-1c-.79-.6-1.58-1.2-2.29-1.82a21.63,21.63,0,0,1-3.72-3.68,9.73,9.73,0,0,1-1.76-4.14,3.78,3.78,0,0,1-.13-1.21,10.21,10.21,0,0,1,0-1.24,10.38,10.38,0,0,1,.52-2.26,6.41,6.41,0,0,1,.64-1.38,7.41,7.41,0,0,1,.85-1.27c.16-.2.27-.42.46-.62l.61-.58a16.47,16.47,0,0,1,1.41-1.11c.25-.18.51-.36.8-.53a6,6,0,0,1,.87-.49c.66-.28,1.32-.56,2-.87,1.32-.56,2.83-.95,4.2-1.42l2.08-.69c.42-.15.63-.25.93-.38a8.21,8.21,0,0,0,1.34-.68,1.64,1.64,0,0,0,.28-.24h0l.08.1c.19.24.46.52.59.7a5.27,5.27,0,0,0,.51.56l.28.26.2.2a3.13,3.13,0,0,0,.44.36c.17.12.21.17.34.25s.28.14.31.17l.2.09c.13,0,.19,0,.11.05a1.2,1.2,0,0,0-.34.11,2.16,2.16,0,0,0-.6.33,4.87,4.87,0,0,0-.86.63l-.19.18-.28.24a6.51,6.51,0,0,0-.54.51c-.17.18-.33.36-.49.55a2.28,2.28,0,0,1-.28.31c-.08.09,0,0-.06.05l-.09,0-.38-.07c-.65-.16-1.64-.4-2.72-.58-.56-.1-1.08-.2-1.75-.28l-2-.07c-.67,0-1.37-.2-2.05-.3a76.52,76.52,0,0,1-8.86-2l-1.67-1a3.48,3.48,0,0,0-.43-.25l-.55-.2-1.09-.39a7.92,7.92,0,0,1-1-.42l-.74-.56c-.49-.38-1-.75-1.44-1.13s-.93-.76-1.36-1.15l-.43-.4-.59-.51c-.79-.69-.48-1.59-1.35-2.26l-.5-.53a2.13,2.13,0,0,1-.43-.54l-.67-1.12-.54-1.15c-.18-.38-.49-.79-.73-1.19-.64-.8.09-1.59-.74-2.49l-.37-.66a3.58,3.58,0,0,1,0-.65l.06-.65c0-.11,0-.23-.08-.35l-.16-.37c-.18-.49-.56-1-.31-1.44l.16-.68.09-.34a1.4,1.4,0,0,0-.07-.39c-.12-.53-.26-1.06-.36-1.58l.56-1.36.14-.34a1.67,1.67,0,0,0,0-.39l0-.8c0-.53-.05-1.06,0-1.6l.1-1.61,0-.41c0-.14.13-.21.19-.32l.49-.61,1-1.22a9.8,9.8,0,0,0,.56-1.46l.52-1.48,0-.1,0,0a.53.53,0,0,0-.06-.1l-.26-.42-.13-.2c0-.06,0-.08,0-.11l.09-.21.34-.8.35-.81.27-.7.54-1.32c.35-.85.73-1.73,1.11-2.56s.6-1.36.92-2a17.62,17.62,0,0,1,1-1.81,12.47,12.47,0,0,1,2.07-2.62c1.34-1.28,2.7-1.68,3.68-1,1.19.89,1.55,3.11,1.13,5.54.22-.33.43-.66.64-1,.4-.45.81-.93,1.2-1.35,1.15-1.18,2.36-1.94,3.46-1.87h1.43c2.32.53,5.11.33,7.47,1.74l.38,1,.37,0a3.72,3.72,0,0,1,2.85,1.17l.65,1.14a12.06,12.06,0,0,1,1.21,4.22,3.87,3.87,0,0,1,.66,1.41,5.63,5.63,0,0,1,2.63,3.22.79.79,0,0,1,.58,1.07.92.92,0,0,1-.34.37h0c.35.19.46.24.89.44.38,0,.61,0,.61,0a16.94,16.94,0,0,1,1.84-.24,5.91,5.91,0,0,1,1.65.59c2,1.84,2.06,1.88,2.51,2.8,0,.1,0,.2,0,.29.78.17.85.2,1.07.26a3.51,3.51,0,0,1,.51.31c.34.49.34.49.56.66a4.24,4.24,0,0,1,.26.37c0,.6,0,.6.09.76a1.19,1.19,0,0,1,0,.29l-.47.33L161.66,108l.09.45-.56-.52.44.49-.63-.24.78.37a4.24,4.24,0,0,0-1.54.07,1.62,1.62,0,0,0-.77.22l.21.25-2.33.07-.44-.24c0,.15-.16.26-.39.28l-.59.05-.06.09,0,0-.29.32,0,.07h0c-.21.21-.5.53-1.29,1.33-.34,0-.69,0-1,0l.37.1c.26.08.36.46.48.47,1.36.09,2.7.15,4,.17s2.75.08,4.18.22a1.57,1.57,0,0,1,1.34.5c.3.37.17.7-.28.76a10.35,10.35,0,0,1-3.23,1.44,23.55,23.55,0,0,1-3.84.73c-2.7.32-5.47.43-8,.51-.56.08-1.14.21-1.68.33l-1.52.36.23.06c-.24,0-.61,0-.55.15v0h.2l.4.08h.46a17.84,17.84,0,0,1,3.9-.46c.75,0,1.45,0,2.23,0l2.38.11a15.83,15.83,0,0,1,2.68.37l2.76.61a1.37,1.37,0,0,1,1,.54c.14.26-.1.44-.53.4-1.25.14-2.45.16-3.76.24-.64,0-1.24,0-1.89,0l-1,0h-.89c-1.26,0-2.38-.08-3.51-.13l-1.58-.15a3.49,3.49,0,0,1-.37-.07c-.09,0-.28-.06-.31,0l-.1.06a1.6,1.6,0,0,1-.85.31h0l.49.08c-.17.11-.6,0-.81.14l.62.2a1.53,1.53,0,0,0-.47,1.3c0,.46.22.84.25,1.2a.18.18,0,0,1,0,.08c.35.12.69.21,1,.3l.22.06,0,0,.18.09.34.16c.46.21.92.39,1.39.59a15.1,15.1,0,0,1-1.67-.91c.64.3,1.35.56,2,.78a1.7,1.7,0,0,0,.24.09l.12,0,.06,0,.12.08,2,1.29c.69.46,1.38.91,2.14,1.47a22,22,0,0,1,2.48,2l.47.44c.16.16.34.36.5.55a10.63,10.63,0,0,1,1,1.36,6.6,6.6,0,0,1,.5.93,5.38,5.38,0,0,1,.42,1.1,8.84,8.84,0,0,1,.28,1.26,10.14,10.14,0,0,1,0,1.35,7.57,7.57,0,0,1-1.79,4.33,10.36,10.36,0,0,1-2.31,2,23.93,23.93,0,0,1-3.64,1.78c-.51.21-1.22.47-1.15.46-.13,0-.24.07-.36.1a11.51,11.51,0,0,0-1.47.55,1.7,1.7,0,0,0-.62.51,1.62,1.62,0,0,1-.1.18,1.15,1.15,0,0,1,0,.19.88.88,0,0,0,.1.36,5.1,5.1,0,0,0,1,1l.28.24.14.13.07.06v0l0,0s0,0,0,0l.17.14A15.24,15.24,0,0,1,153,149.6a12.07,12.07,0,0,1,2,3.71,11.59,11.59,0,0,1,.48,2c.06.7.1,1.39.09,2.06a10.92,10.92,0,0,1-.86,3.71,13.54,13.54,0,0,1-.71,1.38c-.23.38-.48.75-.71,1.08a26.71,26.71,0,0,1-2.1,2.76c-.59.72-1.1,1.31-1.48,1.83a6.29,6.29,0,0,0-1.29,2.82,4.53,4.53,0,0,0,0,1.36,5.24,5.24,0,0,0,.63,1.7c.79,1.5,2,3.54,3,5.58a56,56,0,0,1,4.12,12.94c.43,2.23.7,4.55.94,6.72l.19,1.56a12.34,12.34,0,0,0,.26,1.32c.19.9.43,1.79.65,2.67.51,1.91,1.05,3.85,1.67,5.77s1.29,3.89,2,5.84c1.39,3.88,3,7.81,4.42,11.7a98.86,98.86,0,0,1,6.27,23.36c.21,1.6,0,3-.29,3.31s-.71-.9-.89-2.5a98.86,98.86,0,0,0-3.91-16.79c-1.81-5.63-4-11.26-6-16.92-1-2.81-1.9-5.65-2.73-8.46-.4-1.39-.78-2.79-1.12-4.19l-.26-1.05-.22-1c-.15-.65-.29-1.31-.41-2-.26-1.15-.34-2.8-.52-4.39s-.37-3.23-.66-4.84a53.32,53.32,0,0,0-2.55-9.41,50.71,50.71,0,0,1,2.15,7.84,66.23,66.23,0,0,1,1,8.05c0,.66.09,1.28.15,1.86s.16,1.06.26,1.62c.2,1.12.39,2.15.66,3.37.5,2.37,1,4.71,1.7,7.11,2.51,9.54,5.88,19.2,7.53,28.89q.74,3.72,1.18,7.46a45.07,45.07,0,0,1,.24,7.33c-.1,12.38-.44,24.44-.7,36.58s-.52,24.33-.66,37c-.25,21.6-.68,40.49-1.65,62-1.42,30.2-4,57.7-9.73,87.51A44.11,44.11,0,0,1,153,488c-.35.48,0-2.4.64-6.38,2.48-15.54,4.13-31,5.39-46.52s2.1-31,2.73-46.59c1.27-31.18,1.81-62.73,2.85-95.24.21-7,.42-13.92.62-20.78a.66.66,0,0,1-.36.17c-.49,0-.93-.67-1.29-1.77q-.37,11.69-1.05,23.53c.5,21.93.65,43.9-1,67.27-1.16,16.05-2.9,30.58-4.53,45.42-.78,18.82-1.8,37.58-3.6,56.58a8.16,8.16,0,0,1-.28,1.82c-.1.27-.14-.13-.09-.9.86-13.07,1.38-26.47,1.76-40-.5,2.13-1,3.4-1.54,3.22s-.9-1.83-1.14-4.36l-.46,9.19c-.11,1.9-.38,3.39-.62,3.33s-.39-1.55-.31-3.35q.75-18.76,1.49-37.47c.14-15,.2-29.92.24-44.93a10.74,10.74,0,0,1-1.85,4.32h0c0,2.32-.05,4.64-.08,6.95q.9,31.82.27,64.3t-2.9,65.28a8.24,8.24,0,0,1-.18,1.58,6.16,6.16,0,0,1,0-1.42q1.23-19.8,2-39.51v.06c-.08.53-.2.62-.24,0a11,11,0,0,1,.07-2.06c.09-.6.2-.55.25-.05.86-24.47,1.07-48.77.6-72.75q-.43,33.42-1.66,66.8c.05,2.43.1,4.85.16,7.32a7.58,7.58,0,0,1-.19,1.81c-.08.19-.17-.3-.17-1l0-2c-.17,4.21-.65,7.45-1.12,7.38-.48-.24-.83-3.86-.78-8.24q0-17.58.08-35.07l-.1-3.79c-.1-1.28-.21-2.54-.31-3.81-.39,18.15-.74,36.28-.87,54.3a7.81,7.81,0,0,1-.27,2.89,7,7,0,0,1-.33-2.77c-1.09-31.76-2.38-63.92-3.13-96.21-1.38-10.62-2.86-21.26-4.34-32.11,0,1.36,0,2.75,0,4.13.17,17.55,1.45,33.79,2.69,49.88s2.48,32,3.07,49a4.09,4.09,0,0,1-.13,1.67c-.1.09-.22-.49-.25-1.35-.72-16.59-2.11-31.74-3.3-48.21-1-13.64-1.91-26.61-3.15-39.29.83,25.91,3,50.77,4.4,76.43a16,16,0,0,1,0,3,1.52,1.52,0,0,1,.18.63c.41,3.21.74,6.71,1,10.29a6.68,6.68,0,0,1-.05,1.9C141.68,440.92,141.56,440.5,141.47,439.74Zm2.5-329.2.2,0-.54.07-1.11-.27S143.21,110.42,144,110.54Zm4.87-6.89h0l.71.31Zm7.39,99.63c-.14-.8-.27-1.6-.36-2.36l-.2-2.7c-.14-1.89-.33-3.83-.65-5.73a48.83,48.83,0,0,0-3.1-11.05,46.32,46.32,0,0,0-2.48-5.1,13.31,13.31,0,0,1-1.74-3.74,4.31,4.31,0,0,1,0-1.35,6.67,6.67,0,0,1,.33-1.45,9.33,9.33,0,0,1,1.73-2.74,9.36,9.36,0,0,0-1.62,2.7,5.68,5.68,0,0,0-.27,2.67c0,1.12,1.68,3.53,2.95,6.15a49.18,49.18,0,0,1,3.09,8.12,52.17,52.17,0,0,1,1.62,8.6c.16,1.45.24,2.91.33,4.29,0,.67.07,1.38.14,1.91S156.13,202.69,156.23,203.28ZM151.08,111a22.68,22.68,0,0,1-2.82-.73,5.08,5.08,0,0,1-1.26.7c-1.2.53-2.44,1-3.54,1.53.34.12.07.24,0,.34a3,3,0,0,0-.33.28c.61-.26,1.24-.5,1.88-.71s1.37-.42,2.05-.6,1.32-.34,2-.49A11.5,11.5,0,0,1,151.08,111Zm8.87-4,.22.12.09.63Zm-.21-1.08-.26,0C159.41,105.62,159.53,105.68,159.74,105.89Zm-2.37-.21a3,3,0,0,0,.46.22ZM145.45,90.44l1.18,3.19-1-3.13Z"/></g></g></svg>