<svg xmlns="http://www.w3.org/2000/svg" viewBox="0 0 382.43 492.69"><g id="Layer_2" data-name="Layer 2"><g id="Layer_1-2" data-name="Layer 1"><path d="M185.09,179.51l.63-.07c0,.37-.36.68-.81,1a12.82,12.82,0,0,0,6.9-4.51,20.78,20.78,0,0,0,3.72-7c1.29-.86,1.83-2.32,1.19-3.3s-2.27-1.08-3.65-.2a5.14,5.14,0,0,1-1.1.29,24.54,24.54,0,0,0-9.32,2.19l2.18-.42a9.71,9.71,0,0,0-2.61,1.36l.75.24c-3.54.86-6.37,4.17-6.09,7.21s3.37,4.61,6.69,3.66Z"/><path d="M194.18,180.75c-1.8.57-3.59,1.08-5.42,1.62l-.54-.06,1.49,1.2-.07-.1c-.11-2.13,1.26-4.31,2.7-6.17l.43-.74a1.43,1.43,0,0,0-.13-1.19,1.84,1.84,0,0,0-2.59-.26l-1.08.73c-3.12,1.3-6.81,4.76-5.49,8.1.31.77,1.28,1.15,2,1.66a2.68,2.68,0,0,0,3.63-.18,2.46,2.46,0,0,0,.47-3.46l.75-.35-.11.72c-.5-1,.32-2.16.67-3.25l.93-1.25-2.75-1.43-.33.82a2.36,2.36,0,0,1,.36.1,35.13,35.13,0,0,1-1.87,4.66l-.69,2.2a1.27,1.27,0,0,0,1.52,1.19l1.13-.24-.58.05c2-1.07,3.87-2.35,5.89-3.28a.71.71,0,0,0,.46-.8A.56.56,0,0,0,194.18,180.75Z"/><path d="M189.14,186.19a1.68,1.68,0,0,0-1.11.56l0,.3.85-.14C189.52,186.8,189.48,186.44,189.14,186.19Z"/><path d="M188.06,187.05l-.35.06.34,0,0,0Z"/><path d="M372.14,310.67a105.2,105.2,0,0,1,7,21.55,122,122,0,0,1,2.63,21.69,110.67,110.67,0,0,1-1.43,22.25,86.11,86.11,0,0,1-7.21,22.9l-.67,1.42-.8,1.43L370,404.75l-.83,1.4-.91,1.34c-.62.88-1.21,1.78-1.86,2.64a69.85,69.85,0,0,1-8.89,9.75,63.28,63.28,0,0,1-23.12,13.26,66,66,0,0,1-13,2.73c-1.09.1-2.19.2-3.28.27l-3.29.1c-2.13,0-4.22-.07-6.27-.25a94.13,94.13,0,0,1-22.49-4.83,12.92,12.92,0,0,0-3.49-.9c-.13.11,1.19.75,2.87,1.31a96.74,96.74,0,0,0,22.54,5c1,.08,2.07.16,3.11.22l3.17.07c2.19,0,4.42-.09,6.62-.32A67.16,67.16,0,0,0,334,433.9a64,64,0,0,0,23.42-13.14,66.4,66.4,0,0,0,9.05-9.73c.7-.86,1.29-1.76,1.91-2.65s1.26-1.76,1.79-2.72l1.65-2.85c.52-.95,1.13-1.91,1.54-2.87a84.7,84.7,0,0,0,7.44-23,112.53,112.53,0,0,0,1.58-22.34,122.78,122.78,0,0,0-2.51-21.77,106.32,106.32,0,0,0-6.84-21.64,18.46,18.46,0,0,0-2.15-3.76C370.7,307.39,371.27,308.83,372.14,310.67Z"/><path d="M89.64,355.92c1.06-.34,1-.46-.16-.3a20.08,20.08,0,0,0-3.77.88c-.88.33-.8.48.17.28C87,356.55,88.74,356.22,89.64,355.92Z"/><path d="M98,343.85l2.59-.53,2.59-.38,5.06-.75,4.91-.47,2.37-.24,2.32-.11c1.14-.05,2.42,0,3.38,0-.41-.2,1-.48,3.59-.36l4.85.17,4.87.45c1.63.11,3.24.41,4.87.63l2.44.37c.85.15,1.78.37,2.66.57,3.44.81,6.39,1.68,9.44,2.58s6,1.83,9,2.77c12,3.79,23.87,7.9,35.83,12.15s23.94,8.67,35.9,13.21,23.92,9.18,35.8,13.94a6.83,6.83,0,0,1,2.23.29,63.18,63.18,0,0,1,7.27,2.32c2.87,1.07,6,2.36,9.15,3.65,1.55.67,3.09,1.31,4.61,1.9,2.31.87,4.58,1.66,6.81,2.33s4.39,1.17,6.51,1.56a42.23,42.23,0,0,0,6.16.69c1,.06,1.93,0,2.86,0s1.86-.13,2.78-.28a28.94,28.94,0,0,0,18.77-10.78c.45-.64.81-1.41,1.26-2.14s.74-1.57,1.16-2.35a23.32,23.32,0,0,0,1.15-2.6l.59-1.38c.16-.5.33-1,.49-1.51,4.05-13.9,2.68-31.87-2.62-46.72.15,1,.09,1.63-.15,1.7s-.85-.92-1.47-2.23c-.31-.65-.62-1.44-1-2.23s-.72-1.73-1.12-2.57-.78-1.7-1.22-2.48-.83-1.59-1.31-2.3c.34.5.58,1.13.89,1.68a15.77,15.77,0,0,1,.84,1.75l.81,1.82.74,2,.37,1c.12.34.22.71.33,1.06l.64,2.13c.38,1.46.75,2.93,1.07,4.42.18.87.32,1.68.43,2.42a87.59,87.59,0,0,1,1.67,20.54c-.35,7.44-1.73,14.56-4.21,19.89a14.18,14.18,0,0,1-1,1.91,16.34,16.34,0,0,1-1,1.82l-.58.9c-.19.3-.41.56-.61.84s-.4.57-.62.83l-.66.77a26.56,26.56,0,0,1-2.79,2.82,26.91,26.91,0,0,1-6.61,4.07c-.62.21-1.21.51-1.86.68l-.95.31-1,.24a28.58,28.58,0,0,1-8.42.75,53.51,53.51,0,0,1-10.05-1.57c-3.57-.9-7.29-2.08-11.16-3.48s-7.78-3-12.09-4.68-8.42-3.34-12.63-5c-8.4-3.29-16.82-6.42-25.22-9.52s-16.79-6.13-25.18-9.1-16.82-5.85-25.24-8.7a25.58,25.58,0,0,1-3.76-1.46c-.6-.36-.42-.48.83-.09l31.4,9.63c10.26,3.22,20.44,6.42,30.76,9.78s20.77,7,31.64,10.87c2.77,1,5.3,1.92,7.85,2.8s5,1.67,7.43,2.37a66.9,66.9,0,0,0,13.42,2.77c.6.06,1.18.09,1.75.1s1.12,0,1.66,0,1.06-.05,1.58-.07.92-.12,1.38-.15a19.79,19.79,0,0,0,5-1.4,19.48,19.48,0,0,0,7.63-5.89c.24-.36.52-.66.75-1s.49-.73.73-1.1.44-.79.68-1.18.34-.8.54-1.19a22,22,0,0,0,1.07-2.59,9.39,9.39,0,0,0,.47-1.47c.15-.52.31-1,.47-1.53a59.64,59.64,0,0,0,1.55-14.94,77.73,77.73,0,0,0-2-16.37,67.84,67.84,0,0,0-2.28-7.61l-.66-1.77-.73-1.63-.35-.82-.37-.69-.72-1.37c-.52-.79-.95-1.68-1.49-2.35A25.38,25.38,0,0,0,324,325a10.32,10.32,0,0,1-.79-1c-.28-.31-.59-.59-.86-.91s-.64-.61-.94-.94a9.72,9.72,0,0,0-1-.95c-.18-.15-.36-.32-.53-.49s-.42-.33-.62-.49c-.43-.33-.8-.68-1.32-1s-.91-.71-1.46-1.06l-1.63-1.1c-2.29-1.5-5.09-3.09-8.22-4.84l-1.22-.72-1.29-.73-1.28-.75-1.05-.63-2-1.25-2.06-1.2c-2.78-1.53-5.62-3-8.59-4.34a103.23,103.23,0,0,0-19.43-6.46c-1.79-.42-3.61-.82-5.53-1.21l-6-1.14c-2.08-.4-4.35-.86-6.84-1.41-.66-.16-1.24-.28-1.94-.47l-1.06-.28-.61-.16-.16,0c-.05,0-.08-.14-.13-.2a.36.36,0,0,0-.07-.1l-.08,0-.16-.05c-.86-.28-1.73-.52-2.58-.82s-1.66-.67-2.46-1.05-1.54-.88-2.35-1.25l-1.21-.55a2.93,2.93,0,0,1-.58-.31l-.5-.44-1-.88c-.32-.3-.6-.64-.91-1a18.94,18.94,0,0,1-1.68-2c-.52-.72-1.09-1.33-1.64-2l-.21-.25c-.05-.09-.09-.2-.14-.3l-.27-.59-.56-1.19c-.33-.81-.59-1.65-.89-2.47a11.18,11.18,0,0,1-.4-1.24l-.18-.63c0-.21-.05-.45-.08-.68-.11-.91-.21-1.82-.28-2.72l-.12-1.35A7.77,7.77,0,0,1,229,268l.13-2.78a4,4,0,0,1,.28-1.39l.41-1.39c.59-1.88,1-3.64,1.48-5.45,0-.24.4-.39.43-.59l.23-.59.21-.49.18-.43c.24-.58.49-1.14.76-1.68a58.21,58.21,0,0,1,7.65-12c.72-.93,1.57-1.82,2.37-2.71s1.71-1.75,2.7-2.61a32,32,0,0,1,3.14-2.46,26.88,26.88,0,0,1,3.59-2.16l.93-.5,1-.42,2-.79c.67-.27,1.38-.39,2.06-.6s1.4-.4,2.06-.49c1.34-.21,2.73-.47,3.95-.54.62-.06,1.3-.14,1.87-.17l1.74-.1,1.62-.11,1.53-.12a26,26,0,0,0,2.59-.39,7.52,7.52,0,0,0,1.09-.28l.89-.35a2.45,2.45,0,0,0,.7-.42c.19-.16.45-.25.56-.44a3.49,3.49,0,0,0,.63-1l.2-.48.17-.58c.11-.27.24-.84.37-1.25s.26-.95.4-1.46a57,57,0,0,0,1.46-7.27,21.48,21.48,0,0,0-.08-7.14,10,10,0,0,0-.9-2.62,8.05,8.05,0,0,0-1.29-1.72,13.69,13.69,0,0,0-2.28-1.79,25.85,25.85,0,0,0-3.18-1.74,40.75,40.75,0,0,0-9.14-2.94,23.36,23.36,0,0,0-4.78-.56,14.4,14.4,0,0,0-3.08.57,21.85,21.85,0,0,0-2.79,1.19c-1,.53-1.89,1.06-2.92,1.77-.24.15-.52.37-.77.55a7.54,7.54,0,0,0-.79.58l-.81.61-.13.13-.36.37c-.24.25-.48.47-.73.75l-.74.76-.75.81c-1,1.07-2.06,2.17-3.12,3.38s-2.14,2.44-3.22,3.79c-1.32,2.32-4.45,2.43-7.17.1a7.88,7.88,0,0,1-2.73-5.41l-.52.52-1.06.57a4.61,4.61,0,0,1-3.54.23l-1.64-.43c-2.81-1.17-5.86-1.39-8.81-2.7l-.71-1-.41,0a6,6,0,0,1-3.37-1l-1-1a13.3,13.3,0,0,1-2.55-4.05,4.85,4.85,0,0,1-1.12-1.36,6.74,6.74,0,0,1-3.73-2.84.94.94,0,0,1-.94-1,1.11,1.11,0,0,1,.22-.54h0a10.41,10.41,0,0,0-1.05-.2,6.07,6.07,0,0,1-.58.29l-1.68,1.07a5.61,5.61,0,0,1-1.76.12c-2.54-1-2.55-1-3.3-1.86a2.19,2.19,0,0,1-.12-.33c-.77.27-.82.29-1,.35a2.47,2.47,0,0,1-.55,0c-.48-.36-.48-.36-.73-.41a2.21,2.21,0,0,1-.37-.27c-.24-.72-.24-.72-.37-.85a1.39,1.39,0,0,1-.1-.37l.27-.74,1.88.28-.25-.51.69.3-.58-.34.65-.1-.83,0a5.37,5.37,0,0,0,1.34-1.07,2.05,2.05,0,0,0,.63-.75,2.07,2.07,0,0,1-.28-.2c1.1-.75,1.1-.74,2.2-1.43a3.79,3.79,0,0,1,.52.08.59.59,0,0,1,.28-.57l.56-.38,0-.16,0,0c.08-.23.13-.4.2-.58l0-.13h0c.14-.4.33-1,.89-2.53a11.2,11.2,0,0,1,1-.52,3.23,3.23,0,0,1-.44,0c-.3,0-.54-.52-.66-.48a39,39,0,0,0-8.23,4.48,1.09,1.09,0,0,1-1.36.33.82.82,0,0,1-.08-1.26c2.2-6.44,8.75-11.3,15.56-13.37,1.59-.8,3.16-1.61,4.77-2.4l-.37-.07,1.38-.43.13-.06-1.43-.2-.78.18c-3.65,2-7.6,3-11.4,4.72-2,.92-4.11,1.4-6.18,2.21a.89.89,0,0,1-1.22-.05.85.85,0,0,1,.37-1.13,34.54,34.54,0,0,1,8.5-6.45,24.42,24.42,0,0,1,10-3,7.65,7.65,0,0,1,3.51-1.11l.06,0L208,160.2c.93-.33,1.76,0,2.66-.25l-.88-.72c1.12-.46,2.24-.95,3.38-1.45s2.28-1,3.45-1.45a24.49,24.49,0,0,1,7.17-1.78,4.82,4.82,0,0,1,.52-.11,19.91,19.91,0,0,1,2.46-1.92c.22-.15.45-.29.68-.43l.09-.05,0,0h0l.09,0c.54-.2,1.12-.37,1.67-.56,1.13-.36,2.25-.74,3.45-1A66.76,66.76,0,0,1,248.12,148,68.79,68.79,0,0,0,237.26,149c-1.78.29-3.48.69-5.2,1.09-.87.2-1.68.45-2.53.68l-1.27.36-.62.19-.26.08h0l0,0,.29-.11c.21-.08.44-.15.66-.22l1.34-.44c.9-.29,1.77-.59,2.71-.83l2.76-.75,2.85-.62a64.59,64.59,0,0,1,11.94-1.28,58,58,0,0,1,12.46,1.11,60.58,60.58,0,0,1,6.18,1.53c2,.68,4.08,1.38,5.83,2.16a78.74,78.74,0,0,1,13.54,7.58,68.06,68.06,0,0,1,12.19,10.77,50.89,50.89,0,0,1,9.24,14.77A42.93,42.93,0,0,1,312.44,202a47,47,0,0,1-2.64,14.39,48,48,0,0,1-5.49,11.24A41.52,41.52,0,0,1,297,236c-.64.58-1.39,1.11-2.05,1.63s-1.46,1-2.16,1.43a22.45,22.45,0,0,1-2.12,1.23c-.75.36-1.48.69-2.18,1l-.93.45-1,.35c-.67.23-1.34.44-2,.65a34.93,34.93,0,0,1-4.06.69,27,27,0,0,1-3.8,0c-.59,0-1.21-.06-1.77-.11l-1.63-.2c-.56-.06-1.06-.13-1.55-.22l-1.47-.22c-.88-.13-1.85-.29-2.65-.36l-1.23-.12c-.41,0-.76,0-1.14,0a14.33,14.33,0,0,0-2.12.12c-2.65.3-4.66,1.75-6.64,3.84a30.69,30.69,0,0,0-5,7.91c-.36.72-.63,1.48-.93,2.22s-.53,1.51-.74,2.26a21,21,0,0,0-.56,2.24c0,.09,0,.2-.06.26l0,.16c-.05.12,0,.18-.07.27l-.12.49a6.62,6.62,0,0,0,.14,4,3,3,0,0,0,1.38,1.42,4,4,0,0,0,.94.36,2.7,2.7,0,0,0,.49.12,3.4,3.4,0,0,0,.6.07c1.29,0,2.83-.13,4.54-.32l5.35-.61a182.06,182.06,0,0,1,24.25-1.76,119.59,119.59,0,0,1,12.89.76c2.17.24,4.33.55,6.49.91s4.31.8,6.44,1.32,4.26,1.07,6.39,1.66c1.87.52,3.68,1,5.63,1.63a122.65,122.65,0,0,1,12.16,4.38,75.45,75.45,0,0,1,13,7.09,68.67,68.67,0,0,1,12.08,10.57,49.65,49.65,0,0,1,3.66,4.76,13.88,13.88,0,0,1,1.5,2.85c0,.27-.47-.15-1.26-1.08-.39-.47-.86-1.05-1.4-1.74L362.2,296a65.76,65.76,0,0,0-8.11-8.07c-1.47-1.18-3-2.33-4.49-3.4s-3.06-2.07-4.61-2.92l-2.32-1.33-2.31-1.17c-1.56-.81-3.06-1.42-4.59-2.12-3-1.24-6-2.34-8.8-3.24l-2.13-.68-2.06-.61c-1.39-.42-2.68-.78-4-1.16l-4.49-1.23L309.67,269a116.89,116.89,0,0,0-18.51-2.36,142,142,0,0,0-18.05.35c-5.82.45-11.48,1.22-16.44,1.67-.62.06-1.22.11-1.79.14s-1.13.05-1.67.07c-.28,0-.53,0-.76,0s-.44,0-.6,0a8.45,8.45,0,0,1-.84-.19,3.94,3.94,0,0,1-2.71-2,4.23,4.23,0,0,1-.44-1.69,3.07,3.07,0,0,1-.07-.86,6.55,6.55,0,0,1,0-.88,10.3,10.3,0,0,1,.31-1.73c.07-.32.12-.48.26-1a14.41,14.41,0,0,1,.42-1.66,14.1,14.1,0,0,0-.37,1.38c-.1.53-.24.8-.27,1a14.11,14.11,0,0,0-.35,1.46,10.59,10.59,0,0,0-.15,1.49v.38l.06.36c0,.12,0,.26,0,.39a2.5,2.5,0,0,0,.06.38,3.88,3.88,0,0,0,1.51,2.54,5.4,5.4,0,0,0,.65.4c.24.08.46.22.7.28a6.25,6.25,0,0,0,.74.21l.37.1c.15,0,.26,0,.48,0,1.66,0,3.7-.07,5.84-.24l6.74-.58c4.66-.43,9.59-.78,14.6-.86a116.76,116.76,0,0,1,30.8,3.41c1.27.34,2.57.64,3.83,1l3.77,1.15c2.24.7,4.52,1.45,6.89,2.26a103.32,103.32,0,0,1,14.87,6.37,66.73,66.73,0,0,1,15.29,10.89,58.2,58.2,0,0,1,11.3,15.22c1,1.71,1.74,3.45,2.59,5.18s1.43,3.4,2.14,5.11,1.19,3.39,1.78,5.09,1,3.4,1.49,5.1a116.61,116.61,0,0,1,3.52,20.47c1.09,13.7.21,27.78-4.91,42.15-.33.89-.61,1.79-1,2.68l-1.19,2.68c-.4.89-.79,1.78-1.22,2.67l-1.47,2.65-1.51,2.62-1.67,2.5c-.55.83-1.16,1.64-1.78,2.44s-1.22,1.61-1.9,2.38a64,64,0,0,1-8.85,8.63A60.49,60.49,0,0,1,341.64,427a62.31,62.31,0,0,1-24.18,6.46c-1,0-2.1.1-3.14.12l-3,0c-2-.08-4-.2-5.94-.43a90.64,90.64,0,0,1-11.29-2,131.82,131.82,0,0,1-17-5.46c-5.17-2-10.05-4.18-14.47-6.06-9-3.9-18-7.58-26.93-11.33s-17.93-7.4-27.07-11.05-18.41-7.42-28-11.15l-20-7.72-9.78-3.67-4.82-1.76-4.69-1.64-2.19-.72c-.68-.21-1.57-.53-1.95-.62l-.73-.21a4.91,4.91,0,0,0-.83-.23l-2.13-.45-2.14-.46-2.14-.34c-1.43-.22-2.86-.49-4.3-.59s-2.88-.34-4.33-.41l-4.35-.19c-1.45,0-2.92,0-4.38,0l-2.19,0-2.2.16a119.07,119.07,0,0,0-17.74,2.56L85.32,371c-1.49.38-3,.7-4.46,1.22l-4.47,1.4c-.74.24-1.5.44-2.24.72l-2.22.84c-3,1.13-6,2.13-8.93,3.5s-6,2.49-8.9,4c-6,2.77-11.83,6.05-17.79,9.39-3.1,1.9-6.15,3.66-8.58,4.93a25.12,25.12,0,0,1-4.61,2.3c-.51.06.29-.73,2-2.07.43-.33.9-.71,1.43-1.09L28.29,395c1.27-.83,2.71-1.76,4.27-2.74A225.77,225.77,0,0,1,70.15,373a145.78,145.78,0,0,1,19.45-6.12,122.85,122.85,0,0,1,19.6-2.9,104.14,104.14,0,0,1,19.36.8c1.59.27,3.19.43,4.77.81l2.37.49c.38.08.82.16,1.15.24l.88.26.88.25,1.18.38,2.38.77,5,1.75c6.83,2.45,13.77,5.09,20.69,7.76s13.89,5.39,20.84,8.16c13.89,5.56,27.82,11.19,41.73,17l20.87,8.82L261.77,416l10.63,4.63a139.73,139.73,0,0,0,24.37,8.34,80.33,80.33,0,0,0,14.2,2c1.24,0,2.48.06,3.74.06s2.58-.06,3.87-.18a60.14,60.14,0,0,0,22.51-6.29,57.82,57.82,0,0,0,13-9,61.1,61.1,0,0,0,10-11.9c.71-1.07,1.32-2.22,2-3.34a37.37,37.37,0,0,0,1.81-3.41,66.18,66.18,0,0,0,2.9-6.93,89.24,89.24,0,0,0,4.9-23.82,114.24,114.24,0,0,0-.72-23.06c-.08.21-.16.41-.28.42-.46.06-1-1.33-1.74-3.65a109.66,109.66,0,0,1,1.1,25.77,86.83,86.83,0,0,1-6,26.31l-2,4.57c-.7,1.52-1.58,3-2.38,4.51s-1.79,2.88-2.7,4.31-2,2.78-3.12,4.09a59.72,59.72,0,0,1-7.34,7.41,56.72,56.72,0,0,1-28.68,12.74,63.94,63.94,0,0,1-10.46.58,78.67,78.67,0,0,1-10-1c-12.94-2.19-24-7-34.19-11.55L236.86,404l-40.68-18.21c-13.16-5.87-26.1-11.58-39.17-17.08-4.2-1.57-8.4-3.09-12.53-4.49-1-.38-2-.66-3-1l-1.5-.48-1.24-.35c-.43-.11-.78-.24-1.27-.35l-1.51-.3-3-.61a101.33,101.33,0,0,0-24.5-1.29c-2.06.2-4.13.33-6.19.56l-6.19.94c-4.1.84-8.23,1.65-12.3,2.87l-3.08.83c-1,.3-2,.68-3,1-2,.7-4.06,1.34-6.08,2.09-4,1.66-8.06,3.09-12,5a19.8,19.8,0,0,1-3.11,1.27c-.5.11.13-.3,1.4-.92a154.06,154.06,0,0,1,33.78-12.39c1.47-.31,2.92-.72,4.39-1l4.43-.74c.74-.12,1.47-.26,2.21-.36l2.23-.22,4.46-.46a114.65,114.65,0,0,1,17.87.27c-3.7-.79-5.93-1.59-5.6-2.13.17-.32,1-.52,2.37-.66.69-.07,1.51-.11,2.45-.14.47,0,1,0,1.49,0l1.65.1c-.69-.1-1.38-.24-2.07-.31l-2.09-.2c-1.39-.11-2.78-.31-4.18-.36-2.79-.08-5.59-.29-8.4-.15-1.73.05-3.29,0-4.4,0s-1.79-.08-1.75-.23.72-.37,1.84-.57a41.86,41.86,0,0,1,4.31-.29c2.89-.16,5.78.06,8.66.13,1.44.08,2.87.26,4.31.38l2.15.2,2.13.32c1.42.24,2.86.39,4.27.69l4.22.88c.71.14,1.3.36,2,.53l1,.27,1,.34c1.38.46,2.75.87,4.15,1.39,11.2,3.93,22.42,8.36,33.58,12.8q40.44,15.48,80.32,32.38c-3.48-2-6-3.76-7-4.94h0l-12.35-5.23q-28.54-11.26-57.56-22.24c-9.67-3.63-19.37-7.26-29.11-10.68L151,359.61l-3.65-1.22c-1.22-.42-2.43-.8-3.63-1.17l-1.8-.56-1.71-.45c-1.08-.33-2.36-.53-3.58-.77s-2.44-.52-3.68-.67c-2.48-.32-4.94-.74-7.44-.88a113.26,113.26,0,0,0-30,1.54,148.09,148.09,0,0,0-29.19,8.75l-3.56,1.47-1.78.74-1.74.83-7,3.33c-2.29,1.18-4.55,2.46-6.83,3.67L42,376.07l-3.33,2-6.66,4-6.5,4.33c-4.39,2.81-8.52,6-12.77,9.07a14.81,14.81,0,0,1-2.54,1.66,10.2,10.2,0,0,1,2.08-1.74l7.64-5.61c1.25-1,2.6-1.79,3.9-2.68l3.92-2.63,3.92-2.64,4-2.44,4-2.45,2-1.22,2.07-1.12a183.51,183.51,0,0,1,34-15.21l-.1,0c-1,.26-1.19.18-.18-.27a21.15,21.15,0,0,1,3.71-1.1c1.13-.23,1.07-.06.2.27A126,126,0,0,1,115.09,353,107.35,107.35,0,0,1,132,354.14c.69.1,1.4.17,2.09.3l2.08.4,2.08.4c.35.07.71.12,1,.2l1,.26c.65.18,1.27.31,1.95.53l2,.63c1.35.4,2.72.87,4.1,1.33,11,3.68,21.93,7.78,32.82,11.83s21.72,8.23,32.52,12.4c-19.92-8.08-39.91-16.05-60-23.41-2.51-.93-5-1.77-7.54-2.65l-3.76-1.21c-.62-.19-1.21-.34-1.82-.51a17.24,17.24,0,0,0-1.85-.46l-3.85-.78c-1.28-.28-2.58-.41-3.87-.62-2.58-.45-5.19-.62-7.8-.86a114.56,114.56,0,0,0-31.32,2.16l-3.34.87c-1.11.3-2.23.54-3.32.93L78.57,358a28.7,28.7,0,0,1-3.31,1c-.37,0,.46-.42,1.69-.88s2.45-.82,3.68-1.24C73,359.1,67,361,66.89,360.34c.08-.39,1.66-1.43,4.29-2.54,1.31-.58,2.86-1.23,4.59-1.91l1.32-.52,1.41-.44,3-.89a125.86,125.86,0,0,1,33.4-5.43c1.41-.07,2.83,0,4.24,0s2.83,0,4.24.15l4.23.33c1.41.08,2.8.35,4.2.52,2.82.32,5.58.94,8.36,1.46,2.76.69,5.45,1.55,8.13,2.43,2.33.75,4.66,1.48,7,2.28s4.71,1.42,7.05,2.15q-3.08-1.17-6.17-2.3c-2.06-.76-4.12-1.51-6.2-2.23s-4.17-1.42-6.27-2.1c-1.06-.32-2.15-.6-3.23-.91l-3.25-.67a109.21,109.21,0,0,0-26.39-2,131.06,131.06,0,0,0-26.14,3.95l-6.35,1.82-1.59.46-1.55.55L72,355.61c-4.19,1.36-8.2,3.18-12.25,4.86-1.4.57-2.64,1.21-3.59,1.59s-1.59.6-1.66.51,1.92-1.48,4.68-2.75l5.31-2.4,2.67-1.2c.89-.38,1.81-.71,2.72-1.07l5.47-2.1c1.83-.69,3.72-1.21,5.59-1.83,3.71-1.29,7.55-2.13,11.37-3.11,1.93-.43,3.88-.74,5.82-1.12,1-.17,1.94-.37,2.92-.52l3-.36c3.93-.57,7.91-.76,11.89-.95l6,0c2,.06,4,.23,6,.34a119.57,119.57,0,0,1,11.91,1.63c1,.15,2,.41,3,.67.51.13,1,.25,1.53.39l1.43.43,2.87.85,2.8.9c14.89,4.87,29.47,10.24,44.07,15.74s29.12,11.2,43.61,17c9.75,3.3,19.47,6.7,29.25,10.16,4.88,1.74,9.84,3.56,14.56,5.19a145.08,145.08,0,0,0,14,4.11c-2.25-.72-4.56-1.54-6.89-2.4-3.71-1.39-7.43-2.94-11.18-4.54l-11.46-4.82q-11.42-4.69-22.61-9c-14.95-5.76-29.64-11.17-44.36-16.34S171.15,355.24,156,350.44c-3.79-1.2-7.61-2.37-11.61-3.46l-3.24-.76-3.08-.51c-1-.17-2.05-.36-3.08-.5l-3.12-.35a121.14,121.14,0,0,0-25.26-.08,13.66,13.66,0,0,1-3.35.17c-.19-.11,1-.37,2.67-.56a121.86,121.86,0,0,1,24.66-.27l3,.33c1,.1,2,.21,3,.39l3,.48,1.5.24c.51.09,1.06.23,1.58.35,4.25,1,7.8,2.12,11.58,3.25,14.8,4.61,29.29,9.53,44.33,14.89,12.46,4.42,24.56,8.87,36.44,13.29s23.51,8.8,35,13.2c-11.6-4.89-23.14-9.51-34.68-14s-23-8.77-34.59-12.94-23.09-8.29-34.82-12.22c-5.86-2-11.73-3.9-17.88-5.72-1.57-.45-3-.91-4.89-1.32l-1.32-.31c-.45-.11-.83-.15-1.24-.23l-2.44-.41-2.44-.41-2.46-.29c-1.64-.17-3.27-.42-4.92-.52-2.31-.09-4.63-.34-6.09-.55a4.58,4.58,0,0,1-1.31.17l-5,.2c-1.71.1-3.44.3-5.2.45l-2.64.23-2.65.39c-1.77.27-3.56.51-5.35.8a22.17,22.17,0,0,1-3.83.54C95.63,344.46,96.44,344.19,98,343.85ZM208.17,177.46l-.26-.05.67-.09,1.47.53Zm-4,10h0l-.87-.25Zm55.06,82c-1.55.12-3.1.26-4.5.3a14,14,0,0,1-3.5-.12,6.33,6.33,0,0,1-2.18-.86,4,4,0,0,1-1.47-1.81,8.2,8.2,0,0,1-.21-4.63,11.1,11.1,0,0,1,.27-1.14,5.19,5.19,0,0,1,.17-.6c.08-.27.16-.65.23-1,.18-.66.41-1.33.6-2l.74-2a37.29,37.29,0,0,1,4.1-7.5A18.23,18.23,0,0,1,259,242.8a12.08,12.08,0,0,1,7.1-1.45c2.79.14,6,.93,10,1.2-3.9-.23-7-1-9.79-1.08a12,12,0,0,0-6.91,1.31,13.1,13.1,0,0,0-2.19,1.59l-1.05.93-1,1.1a32.79,32.79,0,0,0-3.56,5.24,36.36,36.36,0,0,0-2.62,5.89,28.41,28.41,0,0,0-.87,3c-.14.42-.18.63-.26.91a8.41,8.41,0,0,0-.21.83,9.63,9.63,0,0,0-.18,3.43,4.25,4.25,0,0,0,1.69,2.94,5.08,5.08,0,0,0,1.57.76,6.14,6.14,0,0,0,.84.23,3,3,0,0,0,.48.08l.68,0C254.62,269.8,256.89,269.67,259.26,269.5ZM199.5,178a12.14,12.14,0,0,1,3.47.31,5.34,5.34,0,0,1,1.32-1.32,39.3,39.3,0,0,1,4.33-2.69c-.47-.23-.11-.42,0-.59l.44-.45-5,2.4C202.57,176.38,201.06,177.35,199.5,178Zm-7.63,9.72h-.24l-.33-.73Zm.59,1.21.25-.11C192.86,189,192.73,189,192.46,188.91Zm2.29-1a1.77,1.77,0,0,0-.53,0Zm17.09,13.61-2.21-3.08,2.05,3Z"/><path d="M25.72,17v.51c-.3,0-.54-.16-.74-.49a6.24,6.24,0,0,0,3.44,4.83,10.71,10.71,0,0,0,6,.78,1.83,1.83,0,0,0,2.74-.31,2.36,2.36,0,0,0,.05-3,2.56,2.56,0,0,1-.26-.78,16.85,16.85,0,0,0-1.52-6.62l.22,1.58a5,5,0,0,0-.93-1.63l-.26.68a3.64,3.64,0,0,0-5.11-3,5.9,5.9,0,0,0-3.81,6.29Z"/><path d="M24.21,25.18c-.48-1.47-.86-2.95-1.2-4.43l.08-.48L22,21.79l.09-.08c1.86-.48,3.64.25,5.2,1l.64.16a1.64,1.64,0,0,0,1-.47,1.67,1.67,0,0,0,.23-2.23c-.2-.23-.38-.49-.57-.73-1-2.32-3.42-4.6-6.43-2.95a6.46,6.46,0,0,0-1.64,2,2.23,2.23,0,0,0-.14,3.11,2,2,0,0,0,3-.21l.27.58L23,22c.92-.64,1.84-.16,2.77-.12l1,.52,1.31-2.73-.67-.08a2.93,2.93,0,0,1-.11.33,16.52,16.52,0,0,1-3.84-.59l-1.85-.19a1.52,1.52,0,0,0-1.15,1.51l.12.94v-.49c.79,1.56,1.84,3,2.63,4.59a.47.47,0,0,0,.69.24A.62.62,0,0,0,24.21,25.18Z"/><path d="M19.64,21.74a1.11,1.11,0,0,0-.41-.89l-.27.07.07.72C19.07,22.16,19.4,22.07,19.64,21.74Z"/><path d="M19,20.92l0-.3-.07.31h0Z"/><path d="M146.18,62.9c1,0,1.92.11,2.89.12h8.72l5.83-.27,2.92-.14,2.92-.26,5.85-.53,5.83-.77,2.93-.4c1-.14,1.93-.33,2.91-.49l5.82-1c.53-.09.93-.28.93-.41s-.43-.12-.91,0l-5.82,1-2.9.5-2.91.38-5.82.77-5.82.52-2.91.25-2.91.14-5.8.26c-1.94,0-3.87,0-5.8,0s-3.86,0-5.77-.12c-.52,0-.94.08-1,.21S145.7,62.87,146.18,62.9Z"/><path d="M264.17,43.18c-.31.26-.24.35.15.21a4.17,4.17,0,0,0,1.2-.66c.26-.21.19-.31-.15-.2A4.55,4.55,0,0,0,264.17,43.18Z"/><path d="M264.89,51.89,262,53.83c-.94.61-1.83,1.21-2.66,1.81a4.51,4.51,0,0,1-1,.52c.2.09-.13.43-.86.9-14.32,9.32-31.12,17.16-48.29,23.6a1.57,1.57,0,0,1-.62.65,19.52,19.52,0,0,1-6,2.49l-1.95.46c-2,.5-3.94.89-5.9,1.35s-3.93.92-5.92,1.27L182.84,88l-3,.53-3,.4a47.59,47.59,0,0,1-5.49,1.43c-3.4.89-6.85,1.61-10.32,2.42s-7,1.28-10.63,1.89c.47.11.75.27.75.47s-.49.5-1.17.7a13.06,13.06,0,0,1-2.58.37l-3,.2c2.86-.06,5.73,0,8.56-.24a11.28,11.28,0,0,1,1.14,0c3.11-.31,6.26-.56,9.42-1.11A213.52,213.52,0,0,0,203,85.09a263.27,263.27,0,0,0,35.42-15.57,4.39,4.39,0,0,1,1.31-.56c.26,0,.27.11-.13.36-1.71,1.08-3.42,2.08-5.12,3.07l-5.06,3c-3.39,1.94-6.78,3.84-10.27,5.74a170.88,170.88,0,0,1-23.35,10.37,242.36,242.36,0,0,1-67,13.81,333.06,333.06,0,0,1-36.45-1.87,238.76,238.76,0,0,1-36.92-6.7c-2.15-.5-4.24-1.2-6.35-1.81L42.73,93l-6.19-2.23c-2.06-.76-4.14-1.46-6.14-2.35l-1.52-.64-.75-.32-.29-.1-1-.39-2.06-.78c-1.36-.53-2.73-1-4.05-1.66-2.66-1.21-5.29-2.47-7.92-3.76S7.62,78,5,76.51a8.39,8.39,0,0,1-4.4-4.2A6,6,0,0,1,.6,67a6.47,6.47,0,0,1,5.34-3.31l-.83-.62L4,61.83a6.07,6.07,0,0,1-1.5-4.15V55.81c.54-3.19.21-6.62,1.22-9.75l.94-.74v-.44a5.49,5.49,0,0,1,.65-3.52l1-1a14.47,14.47,0,0,1,3.91-2.72,5,5,0,0,1,1.28-1.2,7,7,0,0,1,2.6-3.86,1,1,0,0,1,1-1,1,1,0,0,1,.51.14h0c.09-.41.11-.53.18-1-.18-.31-.27-.51-.27-.51-.53-.77-.53-.77-1-1.45a4.61,4.61,0,0,1-.06-1.6c1.08-2.42,1.09-2.41,1.88-3.18l.3-.15a8.33,8.33,0,0,1-.25-.88,2.13,2.13,0,0,1,.07-.5c.36-.46.36-.46.43-.69a2.66,2.66,0,0,1,.27-.35c.66-.29.66-.29.79-.43a1.6,1.6,0,0,1,.34-.13l.64.14-.39,1.68.47-.29-.31.66.33-.57L19,23v-.72c.56.79.57.79.87,1a1.37,1.37,0,0,0,.64.43l.18-.29c.61.85.61.85,1.19,1.71a3.41,3.41,0,0,1-.09.48.41.41,0,0,1,.5.14l.33.42h.13l0,0,.52.05h.11c.35,0,.85.1,2.24.16a5.84,5.84,0,0,1,.5.76,2.43,2.43,0,0,1,0-.38c0-.26.44-.61.4-.71a15.21,15.21,0,0,0-.82-1.61c-.27-.54-.58-1.06-.89-1.56-.63-1-1.31-2-2-3a.85.85,0,0,1,.91-1.41c5.23.72,9.1,4.4,11.53,9.17.84.95,1.72,1.87,2.61,2.79v-.33l.56.91.08.08-.07-1.26c-.08-.18-.16-.36-.25-.54a17,17,0,0,1-2.68-3.46c-.76-1.27-1.4-2.65-2.17-3.9a33.55,33.55,0,0,1-1.83-4.34.75.75,0,0,1,.08-1,.63.63,0,0,1,.92-.05A18.59,18.59,0,0,1,37.9,21a15.35,15.35,0,0,1,3.37,6.45,3.88,3.88,0,0,1,1.42,2.14l0,0v-1c.4.56.35,1.29.69,1.86l.4-1.08c1.13,1.15,2.46,2.12,3.7,3.17a19,19,0,0,1,1.79,1.69,11.68,11.68,0,0,1,1.56,1.92c.09.08.17.17.25.25a17.41,17.41,0,0,1,2.17,0l.53.08.14,0,.35.16.71.32c1,.43,1.89,1,2.92,1.43-.66-.39-1.28-.82-1.9-1.25L54.2,36c.66.24,1.48.59,2.2.91s1.49.64,2.26,1A48.24,48.24,0,0,1,63.22,40c8.36,4.32,17.78,9.72,22,13.8A202.45,202.45,0,0,0,113,60.24a199.22,199.22,0,0,0,28.55,2.19,3.13,3.13,0,0,1,2,.44c.11.27-.54.51-1.53.54s-1.72.1-2.58.12h-7.78c-1.73,0-3.47-.15-5.2-.22s-3.48-.15-5.22-.31a191.66,191.66,0,0,1-20.74-2.94A168,168,0,0,0,135.78,66c1.55,0,3.1.12,4.66.1s3.07.06,4.6.18a187.72,187.72,0,0,0,46.12-5.14A240.28,240.28,0,0,0,228.57,48.7c8.86-3.8,17.13-7.86,25.29-12.12s16.07-8.91,24.29-13.85c2.13-1.4,4.32-2.38,4.84-2.17s-.82,1.53-3,3q-12.52,8.37-25.67,15.57A287.24,287.24,0,0,1,227.21,51.9a223.21,223.21,0,0,1-28.71,9.57A195.93,195.93,0,0,1,168.23,67c-2.23.26-4.45.35-6.64.53l-3.29.24c-1.09,0-2.18.07-3.27.1a.67.67,0,0,1,.13.27c0,.35-.37.7-1,1l3.75-.08,3.76-.21,3.77-.21,1.9-.09,1.89-.17c13.89-2.36,27.54-5.78,42.11-9.7,10-2.76,19.08-5.4,28.24-8.63A309.14,309.14,0,0,0,272,32.57a3.14,3.14,0,0,1,1.08-.52c.2,0,0,.2-.39.49-1.77,1.2-3.58,2.36-5.39,3.54l-2.73,1.77-2.79,1.69-5.65,3.37-5.8,3.19c1.4-.32,2.33-.33,2.44.12s-.67,1.32-2,2.33l5.45-2.67c1.13-.53,2.09-.84,2.16-.63s-.7.86-1.78,1.38c-3.71,1.84-7.4,3.72-11.18,5.38-1.89.83-3.75,1.74-5.66,2.52L234,56.89a265.29,265.29,0,0,1-27.8,10.42,6.79,6.79,0,0,1,3.12.39h0l4.41-1.39a373,373,0,0,0,76-39.68c.47-.32.9-.52,1-.44s-.25.38-.68.66c-3.67,2.41-7.27,4.9-11,7.17-1.87,1.15-3.67,2.38-5.57,3.46l-5.62,3.35,0,0c.33-.12.45-.06.15.2a4.78,4.78,0,0,1-1.17.7c-.39.14-.41,0-.16-.2a387.63,387.63,0,0,1-43.25,21.41,336.53,336.53,0,0,0,40.41-18.42c1.35-.9,2.72-1.74,4.07-2.69a3.3,3.3,0,0,1,1.1-.51c.15,0-.08.27-.46.52l-1.12.78c2.43-1.39,4.52-2.13,4.75-1.66s-1.73,2.15-4.26,3.62c-6.8,3.94-13.66,7.73-20.76,11.06L245,56.81l-2.2,1.35a302.12,302.12,0,0,0,32.56-16.51c.88-.55,1.72-.88,1.84-.73s-.52.71-1.42,1.26a276.24,276.24,0,0,1-27.9,16.43,267.59,267.59,0,0,1-30,13.23c-3.25,1.63-6.57,3.17-9.9,4.79s-6.78,3-10.27,4.47c.92-.2,1.84-.45,2.75-.72a177.91,177.91,0,0,0,31.89-12.52c9.89-4.89,19.36-10.21,29.36-15.93a2.2,2.2,0,0,1,1.06-.43c.1.06-.19.34-.7.63C252.27,57.8,243.35,63.06,233.19,68l-6.26,3-6.23,2.74-3.08,1.37-3.09,1.27L208.41,79c2.12-.72,4.22-1.48,6.3-2.23l3.11-1.14,3.06-1.25L227,71.8l5.94-2.74,3-1.37,2.91-1.47,5.82-2.93,5.76-3.09,2.88-1.54c1-.51,1.9-1.07,2.86-1.61a8.53,8.53,0,0,1,1.83-.86,1,1,0,0,1,.32-.32c1.8-1.28,3.84-2.53,5.85-3.91a3.5,3.5,0,0,1,1.18-.56C265.51,51.36,265.31,51.58,264.89,51.89ZM28.21,36.67v-.24c.06.17.12.35.2.55l-.21,1.5Zm-9.72-.94h0c.09-.49.16-.85.16-.85Zm93.09,28-6.24-1.22c-1-.19-2.06-.46-3.08-.73L99.21,61A113.15,113.15,0,0,1,87.3,57l5.89,1.45,2.25.78,2.27.67,4.58,1.38c1.52.49,3.07.87,4.62,1.26ZM26.83,29.1a13.45,13.45,0,0,1,0,3.17,3.84,3.84,0,0,1,1.31.76c1,.95,2,1.86,3,2.82.13-.5.36-.27.52-.23l.48.19a43.05,43.05,0,0,1-2.85-3.4A27.72,27.72,0,0,1,26.83,29.1Zm-8.7-4.73,0-.22.67-.4ZM17,25.06l.09.22C16.87,25.44,16.88,25.32,17,25.06ZM17.84,27a1.54,1.54,0,0,0,.05-.48ZM5.34,44.77,8.27,42.4l-2.9,2.21Z"/><path d="M126.31,24.87l.26,0c0,.16-.16.27-.36.35,2.46,0,3.94-2.31,4.34-4.49a1.1,1.1,0,0,0-1.18-1.85,1.72,1.72,0,0,1-.44.06,8.48,8.48,0,0,0-3.68.26h.86a2.85,2.85,0,0,0-1,.4l.31.18a2.53,2.53,0,0,0,.26,5.06Z"/><path d="M130.15,26.32c-.79.11-1.57.18-2.36.24l-.23-.08.6.71,0-.06a4.46,4.46,0,0,1,1.24-2.62l.18-.32a.75.75,0,0,0-.06-.57.8.8,0,0,0-1.09-.34l-.45.24c-1.31.34-2.86,1.51-2.44,3.17.1.39.49.67.78,1a1.11,1.11,0,1,0,1.85-1.24l.33-.09-.06.32c-.19-.53.18-1,.33-1.45l.41-.5L128,23.79l-.14.35a.76.76,0,0,0,.15.08,10.31,10.31,0,0,1-.86,2l-.35.94a.67.67,0,0,0,.6.7l.49,0-.25,0c.89-.28,1.74-.7,2.63-1a.28.28,0,1,0-.12-.54Z"/><path d="M127.83,28.36a.68.68,0,0,0-.51.14v.14l.37,0C128,28.69,128,28.52,127.83,28.36Z"/><path d="M127.33,28.64h-.16l.15.06v-.05Z"/><path d="M149.2,8.35a37.86,37.86,0,0,0,3.7-2s0-.1,0-.17-.12-.1-.15-.08a41.26,41.26,0,0,1-3.7,2s0,.1,0,.17S149.16,8.36,149.2,8.35Z"/><path d="M162.82,9a.22.22,0,0,0,.14.17c.06,0,.1,0,.09-.07a.34.34,0,0,0-.14-.17C162.84,8.88,162.81,8.92,162.82,9Z"/><path d="M166.85,14.67a1.89,1.89,0,0,0-.11.74c0,.05,0,.06-.07.05a.42.42,0,0,1,.12.32,15.21,15.21,0,0,1-2,4.47,1.77,1.77,0,0,1,.15.31c.14.34.1.61-.11.69l-.18,0c-.63.23-1.24.49-1.88.7a.85.85,0,0,1-.17.52,12.93,12.93,0,0,1-.59,2,.83.83,0,0,1,.26.24c.18.25.22.51.09.59l-.17.16.67-.22h.1a4.18,4.18,0,0,0,.57-.47,15.25,15.25,0,0,0,3.23-6c0-.06,0-.08.11,0a.27.27,0,0,1,.12.18c-.06,2,.31,4.3-.21,6a30.3,30.3,0,0,1-2.26,5.57c-1.46,1.13-2.35,2.77-3.5,4.35-.39.54-.79,1-1.21,1.52-.07.07-.07.09-.2.21l-.34.31-.67.61c-.45.41-.91.81-1.36,1.2-1.82,1.58-3.68,3.09-5.58,4.61A3.32,3.32,0,0,1,146,40.36l-.37.26-.69.26a2.9,2.9,0,0,1-2.05,0l-.86-.3c-1.41-.75-3-1.06-4.35-1.93l-.26-.52-.2-.06a2.85,2.85,0,0,1-1.58-.73l-.39-.58a6.67,6.67,0,0,1-.87-2.15,2.56,2.56,0,0,1-.43-.75,3.42,3.42,0,0,1-1.55-1.67.49.49,0,0,1-.37-.58.48.48,0,0,1,.13-.23h0l-.47-.19-.28.09-.82.33a2.21,2.21,0,0,1-.79-.12c-1.06-.75-1.06-.75-1.34-1.21a.94.94,0,0,1,0-.16l-.47.05a1.26,1.26,0,0,1-.24-.07c-.18-.22-.18-.22-.29-.27a1.27,1.27,0,0,1-.14-.17c-.06-.35-.06-.35-.12-.43a.94.94,0,0,1,0-.18l.16-.31.79.33-.09-.26.29.21-.24-.21.29,0-.36-.07a1.91,1.91,0,0,0,.62-.35.78.78,0,0,0,.3-.29l-.11-.12,1-.46.22.09a.23.23,0,0,1,.14-.24l.25-.13,0-.07,0,0,.1-.26,0-.06h0l.41-1.13a3.16,3.16,0,0,1,.46-.16l-.2,0c-.13,0-.23-.29-.28-.29a17.44,17.44,0,0,0-3.59,1.35.43.43,0,0,1-.59,0,.42.42,0,0,1,0-.59,9,9,0,0,1,6.43-5.1c.62-.31,1.24-.63,1.85-1l-.16-.05.55-.16.06,0-.63-.15-.31,0A26.82,26.82,0,0,1,130,21.21a21.77,21.77,0,0,1-2.52.55.36.36,0,0,1-.5-.13.37.37,0,0,1,.13-.5c1.85-1.87,4.4-3.44,7.11-3.37a2.14,2.14,0,0,1,1.32-.44h0l-.49-.15c.35-.14.71,0,1.06-.07l-.45-.37c1.61-.8,3-2.09,4.8-2.44l.18-.07a9.71,9.71,0,0,1,.94-1.79l-.45.12a1.42,1.42,0,0,1,.51-.89,3.11,3.11,0,0,1,3.36.48,50,50,0,0,0,3.69-3.73c.05-.08.19,0,.31.09s.16.3.11.37a16.78,16.78,0,0,1-2.26,3.23,15.53,15.53,0,0,0,2.91-1.46l.28-.31a.71.71,0,0,1,.38-.18,13,13,0,0,0,3-2.76,28.87,28.87,0,0,0,1.94-3.13A12.4,12.4,0,0,1,158.36.08c.14-.18.5,0,.78.27s.41.74.26.92c-1.91,3.18-3.6,6.55-6.59,8.6l-1,.64.11.14a1.74,1.74,0,0,1,.31.56,9.63,9.63,0,0,1,1.21-.58A6.59,6.59,0,0,1,156,7.75a9.18,9.18,0,0,1,2.71-.63c.66-.85,1.28-1.76,2-2.59,0,0,.08,0,.14,0s.1.14.08.19a12.79,12.79,0,0,1-1,2.4,2.38,2.38,0,0,1,.76.68,2.29,2.29,0,0,1,.43.94l.42-.29c.09-.05.25,0,.37.18s.16.34.07.4l-1.7,1.21c-.52.68-1.06,1.34-1.62,2a3.36,3.36,0,0,1,.77.61h0l.29-.26A13.86,13.86,0,0,1,164.49,7s.11,0,.17.07.08.16,0,.18A10.79,10.79,0,0,0,163,8.58h0a.3.3,0,0,1,.14.17c0,.07,0,.1-.09.08a.25.25,0,0,1-.14-.18A15.06,15.06,0,0,0,160.36,12a17.43,17.43,0,0,1,2.95-2.25l.12-.52s.09,0,.15,0,.09.15.07.19l0,.13c.21-.11.59.08.87.46s.36.81.16.94c-.46.47-.94.91-1.44,1.33l-.12.19,0,.31c.91-.47,1.85-.9,2.79-1.32.06-.06.2,0,.31.13s.14.29.07.35a28.22,28.22,0,0,1-3.34,4.41l-.07,2.82a1.06,1.06,0,0,0,.2-.12c1.54-1.19,1.58-3.85,2.81-5.34,0-.05.1,0,.15,0s.09.15.05.18a15.63,15.63,0,0,0-1.2,2.82,14.68,14.68,0,0,0-.91,2.4c1-1,1.56-2.6,2.44-3.79,0-.07.1-.07.19,0a.34.34,0,0,1-.05-.11,2.61,2.61,0,0,1,.12-.78c0-.05.07-.05.14,0A.21.21,0,0,1,166.85,14.67Zm-30.48,11-.12,0h.3l.69.33Zm-1.87,4.64h0l-.39-.18Zm13.72-18.2a4.63,4.63,0,0,1-2.15.9l.36-.42A16.16,16.16,0,0,1,148.22,12.14ZM132.49,25.42a5.91,5.91,0,0,1,1.54.39,2.17,2.17,0,0,1,.57-.56,19.71,19.71,0,0,1,1.86-1.1c-.22-.14-.07-.22,0-.29l.17-.21c-.69.32-1.4.63-2.13.94A16.4,16.4,0,0,1,132.49,25.42Zm-3.55,3.93-.11,0-.11-.37Zm.2.61.11,0C129.31,30.07,129.25,30.05,129.14,30Zm1.05-.24a.65.65,0,0,0-.23-.06Zm7.07,8L136.45,36l.74,1.63Z"/><path d="M163.89,115.21l-.57-.28c.12-.18.48-.2,1-.11a10.3,10.3,0,0,0-7.08-.49,9.44,9.44,0,0,0-2.45,1.16,7.19,7.19,0,0,0-1.62,1.49c-1.15.11-1.56.73-1.14,1.3a2.45,2.45,0,0,0,1.11.73,4.33,4.33,0,0,0,1.62.29,5.81,5.81,0,0,1,.89.2c.6.24,1.18.47,1.8.69l1.94.65,2,.67c.69.22,1.4.43,2.12.67-.64-.29-1.29-.57-1.91-.82A19.86,19.86,0,0,0,164,122l-.58-.48c3.13,1.3,6.4,1.69,7.06.21s-1.78-4.52-5.11-5.89Z"/><path d="M156.15,110.65a25.36,25.36,0,0,1,2.57.46c.86.19,1.73.4,2.61.67l.47.28-1-1.41,0,.09c-.41,1.37-2.21,2.05-3.77,2.64l-.53.27a.64.64,0,0,0-.11.73,2.57,2.57,0,0,0,2.16,1.06l1.07,0a23,23,0,0,0,2.36.3,12.26,12.26,0,0,0,2.28,0c1.41-.18,2.46-.7,2.33-2-.06-.61-.85-1.41-1.38-2.13a3.84,3.84,0,0,0-3.39-1.78c-1.31.1-1.86,1-1.33,1.92l-.75-.1.26-.4c.2.85-.8,1.17-1.36,1.68l-1.06.38,2.06,1.87.46-.32-.29-.21a15.17,15.17,0,0,1,2.78-1.82l1.25-.94c.19-.47-.29-1.15-1.07-1.51l-1.1-.41.54.25a53.68,53.68,0,0,0-6.1-.32c-.32,0-.58.14-.57.37S155.83,110.62,156.15,110.65Z"/><path d="M162,109.23a2.13,2.13,0,0,0,1.19.2l0-.21-.82-.33C161.85,108.65,161.79,108.91,162,109.23Z"/><path d="M163.26,109.22l.35.15-.3-.21,0,0Z"/><path d="M172.35,258.94c-1,24.83-2.15,49.81-3.7,74.78-.05.83,0,1.54.22,1.58s.33-.6.37-1.38c1.6-25,2.78-49.83,3.78-74.66a2.79,2.79,0,0,0-.31-1.64C172.52,257.57,172.37,258.16,172.35,258.94Z"/><path d="M149.69,445.17c-.06-.59-.16-.57-.26,0a10.75,10.75,0,0,0-.07,2.06c0,.5.17.48.26,0A10.31,10.31,0,0,0,149.69,445.17Z"/><path d="M141.47,439.74c-.28-3.5-.59-6.82-1-9.78a9.21,9.21,0,0,1-.05-1.64c-.18.2-.38-.46-.51-1.73-2.62-24.84-4.51-51.56-6.25-77.88a2.48,2.48,0,0,1-.65-1.12,29.45,29.45,0,0,1-1.12-9.27l.11-2.86c.18-11.55.39-23.07.8-34.56a70.65,70.65,0,0,1-.62-8c-.91-10-1.72-19.93-2.25-30.14-.21.64-.46,1-.73,1-.63-.2-1.09-2.57-1-5.33,0-1.39.07-2.77.16-4.16-.46,4-.54,8-.8,12a14.75,14.75,0,0,1-.12,1.59c-.09,4.37-.09,8.79,0,13.28.42,39.22,4,76.09,7.74,112.67a7.61,7.61,0,0,1,0,2.07c-.1.36-.27.29-.36-.38-3.5-23.07-8.23-43.05-11-69.14-1.63-15.52-3-30.95-4-46.49-.26-3.88-.52-7.77-.71-11.67l-.3-5.86c-.1-2-.23-3.92-.21-5.88a57.34,57.34,0,0,1,5.28-23.64c4-8.29,9-16.37,12.8-24.51,1-2.08,1.82-4,2.71-6.34l.63-1.67c.24-.65.48-1.17.68-1.63.42-.92.82-1.69,1.13-2.48a15.64,15.64,0,0,0,1.21-9.44,13.09,13.09,0,0,0-1.75-4.35c-.44-.69-.94-1.4-1.61-2.36a18.53,18.53,0,0,1-2.19-4,16.15,16.15,0,0,1-1.06-5.25,17.24,17.24,0,0,1,.56-5.16,23.57,23.57,0,0,1,4-7.76,12.14,12.14,0,0,0,1-1.58l0-.06h0s0,0,.09.06l.35.18a6,6,0,0,0,.73.32l.39.13a.88.88,0,0,1,.2.08,2.79,2.79,0,0,0,.66.17l0,0a.72.72,0,0,0-.22,0l-.29,0-.21.05.1,0c.06,0,0,0-.4.18l-.3.17-.36.24a5.15,5.15,0,0,0-.45.32l-.11.09h0a.68.68,0,0,0-.19-.3,1.72,1.72,0,0,0-.23-.26,14.83,14.83,0,0,0-1.14-1c-.79-.6-1.58-1.2-2.29-1.82a21.63,21.63,0,0,1-3.72-3.68,9.73,9.73,0,0,1-1.76-4.14,3.78,3.78,0,0,1-.13-1.21,10.21,10.21,0,0,1,0-1.24,10.38,10.38,0,0,1,.52-2.26,6.41,6.41,0,0,1,.64-1.38,7.41,7.41,0,0,1,.85-1.27c.16-.2.27-.42.46-.62l.61-.58a16.47,16.47,0,0,1,1.41-1.11c.25-.18.51-.36.8-.53a6,6,0,0,1,.87-.49c.66-.28,1.32-.56,2-.87,1.32-.56,2.83-.95,4.2-1.42l2.08-.69c.42-.15.63-.25.93-.38a8.21,8.21,0,0,0,1.34-.68,1.64,1.64,0,0,0,.28-.24h0l.08.1c.19.24.46.52.59.7a5.27,5.27,0,0,0,.51.56l.28.26.2.2a3.13,3.13,0,0,0,.44.36c.17.12.21.17.34.25s.28.14.31.17l.2.09c.13,0,.19,0,.11.05a1.2,1.2,0,0,0-.34.11,2.16,2.16,0,0,0-.6.33,4.87,4.87,0,0,0-.86.63l-.19.18-.28.24a6.51,6.51,0,0,0-.54.51c-.17.18-.33.36-.49.55a2.28,2.28,0,0,1-.28.31c-.08.09,0,0-.06.05l-.09,0-.38-.07c-.65-.16-1.64-.4-2.72-.58-.56-.1-1.08-.2-1.75-.28l-2-.07c-.67,0-1.37-.2-2.06-.3a76.82,76.82,0,0,1-8.85-2l-1.67-1a3.48,3.48,0,0,0-.43-.25l-.55-.2-1.09-.39a7.92,7.92,0,0,1-1-.42l-.74-.56c-.49-.38-1-.75-1.44-1.13s-.93-.76-1.36-1.15l-.43-.4-.59-.51c-.79-.69-.48-1.59-1.35-2.26l-.5-.53a2.13,2.13,0,0,1-.43-.54l-.67-1.12-.54-1.15c-.18-.38-.49-.79-.73-1.19-.64-.8.09-1.59-.74-2.49l-.37-.66a3.58,3.58,0,0,1,0-.65l.06-.65c0-.11,0-.23-.08-.35l-.16-.37c-.18-.49-.56-1-.31-1.44l.16-.68.09-.34a1.4,1.4,0,0,0-.07-.39c-.12-.53-.26-1.06-.36-1.58l.56-1.36.14-.34a1.67,1.67,0,0,0,0-.39l0-.8c0-.53-.05-1.06,0-1.6l.1-1.61,0-.41c0-.14.13-.21.19-.32l.49-.61,1-1.22a9.8,9.8,0,0,0,.56-1.46l.52-1.48,0-.1,0,0a.53.53,0,0,0-.06-.1l-.26-.42-.13-.2c0-.06,0-.08,0-.11l.09-.21.34-.8.35-.81.27-.7.54-1.32c.35-.85.73-1.73,1.11-2.56s.6-1.36.92-2a17.62,17.62,0,0,1,1-1.81,12.47,12.47,0,0,1,2.07-2.62c1.34-1.28,2.7-1.68,3.68-1,1.19.89,1.55,3.11,1.13,5.54.22-.33.43-.66.64-1,.4-.45.81-.93,1.2-1.35,1.15-1.18,2.36-1.94,3.46-1.87h1.43c2.32.53,5.11.33,7.47,1.74l.38,1,.37,0a3.72,3.72,0,0,1,2.85,1.17l.65,1.14a12.06,12.06,0,0,1,1.21,4.22,3.87,3.87,0,0,1,.66,1.41,5.63,5.63,0,0,1,2.63,3.22.79.79,0,0,1,.58,1.07.92.92,0,0,1-.34.37h0c.35.19.46.24.89.44.38,0,.61,0,.61,0a17.1,17.1,0,0,1,1.83-.24,5.89,5.89,0,0,1,1.66.59c2,1.84,2.06,1.88,2.51,2.8,0,.1,0,.2,0,.29.78.17.85.2,1.07.26a3.51,3.51,0,0,1,.51.31c.34.49.34.49.56.66a4.24,4.24,0,0,1,.26.37c0,.6,0,.6.09.76a1.19,1.19,0,0,1,0,.29l-.47.33L161.66,108l.09.45-.56-.52.44.49-.63-.24.78.37a4.24,4.24,0,0,0-1.54.07,1.62,1.62,0,0,0-.77.22l.21.25-2.33.07-.44-.24c0,.15-.16.26-.39.28l-.59.05-.06.09,0,0-.29.32,0,.07h0c-.21.21-.5.53-1.29,1.33-.34,0-.69,0-1,0l.37.1c.26.08.36.46.48.47,1.36.09,2.7.15,4,.17s2.75.08,4.18.22a1.57,1.57,0,0,1,1.34.5c.3.37.17.7-.28.76a10.35,10.35,0,0,1-3.23,1.44,23.55,23.55,0,0,1-3.84.73c-2.7.32-5.47.43-8,.51-.56.08-1.14.21-1.68.33l-1.52.36.23.06c-.24,0-.61,0-.55.15v0h.2l.4.08h.46a17.84,17.84,0,0,1,3.9-.46c.75,0,1.45,0,2.23,0l2.38.11a15.83,15.83,0,0,1,2.68.37l2.76.61a1.37,1.37,0,0,1,1,.54c.14.26-.1.44-.53.4-1.25.14-2.45.16-3.76.24-.64,0-1.24,0-1.89,0l-1,0h-.89c-1.26,0-2.38-.08-3.51-.13l-1.58-.15a3.49,3.49,0,0,1-.37-.07c-.09,0-.28-.06-.31,0l-.1.06a1.6,1.6,0,0,1-.85.31h0l.49.08c-.17.11-.6,0-.81.14l.62.2a1.53,1.53,0,0,0-.47,1.3c0,.46.22.84.25,1.2a.18.18,0,0,1,0,.08c.35.12.69.21,1,.3l.22.06,0,0,.18.09.34.16c.46.21.92.39,1.39.59a15.1,15.1,0,0,1-1.67-.91c.64.3,1.35.56,2,.78a1.7,1.7,0,0,0,.24.09l.12,0,.06,0,.12.08,2,1.29c.69.46,1.38.91,2.14,1.47a22,22,0,0,1,2.48,2l.47.44c.16.16.34.36.5.55a9.79,9.79,0,0,1,1,1.36,6.6,6.6,0,0,1,.5.93,5.38,5.38,0,0,1,.42,1.1,8.84,8.84,0,0,1,.28,1.26,10.14,10.14,0,0,1,0,1.35,7.57,7.57,0,0,1-1.79,4.33,10.36,10.36,0,0,1-2.31,2,23.93,23.93,0,0,1-3.64,1.78c-.51.21-1.22.47-1.15.46-.13,0-.24.07-.36.1a11.51,11.51,0,0,0-1.47.55,1.7,1.7,0,0,0-.62.51,1.62,1.62,0,0,1-.1.18,1.15,1.15,0,0,1,0,.19.88.88,0,0,0,.1.36,5.1,5.1,0,0,0,1,1l.28.24.14.13.07.06v0l0,0s0,0,0,0l.17.14A15.24,15.24,0,0,1,153,149.6a12.07,12.07,0,0,1,2,3.71,11.59,11.59,0,0,1,.48,2c.06.7.1,1.39.09,2.06a10.92,10.92,0,0,1-.86,3.71,13.54,13.54,0,0,1-.71,1.38c-.23.38-.48.75-.71,1.08a28.21,28.21,0,0,1-2.1,2.76c-.59.72-1.1,1.31-1.48,1.83a6.29,6.29,0,0,0-1.29,2.82,4.53,4.53,0,0,0,0,1.36,5.24,5.24,0,0,0,.63,1.7c.79,1.5,2,3.54,3,5.58a56,56,0,0,1,4.12,12.94c.43,2.23.7,4.55.94,6.72l.19,1.56a12.34,12.34,0,0,0,.26,1.32c.19.9.43,1.79.65,2.67.51,1.91,1.05,3.85,1.67,5.77s1.29,3.89,2,5.84c1.39,3.88,3,7.81,4.42,11.7a98.86,98.86,0,0,1,6.27,23.36c.21,1.6,0,3-.29,3.31s-.71-.9-.89-2.5a98.86,98.86,0,0,0-3.91-16.79c-1.81-5.63-4-11.26-6-16.92-1-2.81-1.9-5.65-2.73-8.46-.4-1.39-.78-2.79-1.12-4.19l-.26-1.05-.22-1c-.15-.65-.29-1.31-.41-2-.26-1.15-.34-2.8-.52-4.39s-.37-3.23-.66-4.84a53.32,53.32,0,0,0-2.55-9.41,50.71,50.71,0,0,1,2.15,7.84,66.23,66.23,0,0,1,1,8.05c0,.66.09,1.28.15,1.86s.16,1.06.26,1.62c.2,1.12.39,2.15.66,3.37.5,2.37,1,4.71,1.7,7.11,2.51,9.54,5.88,19.2,7.53,28.89q.74,3.72,1.18,7.46a45.07,45.07,0,0,1,.24,7.33c-.1,12.38-.44,24.44-.7,36.58s-.52,24.33-.66,37c-.25,21.6-.68,40.49-1.65,62-1.42,30.2-4,57.7-9.73,87.51A44.11,44.11,0,0,1,153,488c-.35.48,0-2.4.64-6.38,2.48-15.54,4.13-31,5.39-46.52s2.1-31,2.73-46.59c1.27-31.18,1.81-62.73,2.85-95.24.21-7,.42-13.92.62-20.78a.66.66,0,0,1-.36.17c-.49,0-.93-.67-1.29-1.77q-.37,11.69-1.05,23.53c.5,21.93.65,43.9-1,67.27-1.16,16.05-2.9,30.58-4.53,45.42-.78,18.82-1.8,37.58-3.6,56.58a8.16,8.16,0,0,1-.28,1.82c-.1.27-.14-.13-.09-.9.86-13.07,1.38-26.47,1.76-40-.5,2.13-1,3.4-1.54,3.22s-.9-1.83-1.14-4.36l-.46,9.19c-.11,1.9-.38,3.39-.62,3.33s-.39-1.55-.31-3.35q.75-18.76,1.49-37.47c.14-15,.2-29.92.24-44.93a10.74,10.74,0,0,1-1.85,4.32h0c0,2.32-.05,4.64-.08,6.95q.9,31.82.27,64.3t-2.9,65.28a8.24,8.24,0,0,1-.18,1.58,6.16,6.16,0,0,1,0-1.42q1.23-19.8,2-39.51v.06c-.08.53-.2.62-.24,0a11,11,0,0,1,.07-2.06c.09-.6.2-.55.25-.05.86-24.47,1.07-48.77.6-72.75q-.43,33.42-1.66,66.8c.05,2.43.1,4.85.16,7.32a7.58,7.58,0,0,1-.19,1.81c-.08.19-.17-.3-.17-1l0-2c-.17,4.21-.65,7.45-1.12,7.38-.48-.24-.83-3.86-.78-8.24q0-17.58.08-35.07l-.1-3.79c-.1-1.28-.21-2.54-.31-3.81-.39,18.15-.74,36.28-.87,54.3a7.81,7.81,0,0,1-.27,2.89,7,7,0,0,1-.33-2.77c-1.09-31.76-2.38-63.92-3.13-96.21-1.38-10.62-2.86-21.26-4.34-32.11v4.13c.17,17.55,1.45,33.79,2.69,49.88s2.48,32,3.07,49a4.09,4.09,0,0,1-.13,1.67c-.1.09-.22-.49-.25-1.35-.72-16.59-2.11-31.74-3.3-48.21-1-13.64-1.91-26.61-3.15-39.29.83,25.91,3,50.77,4.4,76.43a16,16,0,0,1,0,3,1.52,1.52,0,0,1,.18.63c.41,3.21.74,6.71,1,10.29a6.68,6.68,0,0,1-.05,1.9C141.68,440.92,141.56,440.5,141.47,439.74Zm2.5-329.2.2,0-.54.07-1.11-.27S143.21,110.42,144,110.54Zm4.87-6.89h0l.71.31Zm7.39,99.63c-.14-.8-.27-1.6-.36-2.36l-.2-2.7c-.14-1.89-.33-3.83-.65-5.73a48.83,48.83,0,0,0-3.1-11.05,46.32,46.32,0,0,0-2.48-5.1,13.31,13.31,0,0,1-1.74-3.74,4.31,4.31,0,0,1,0-1.35,6.67,6.67,0,0,1,.33-1.45,9.33,9.33,0,0,1,1.73-2.74,9.36,9.36,0,0,0-1.62,2.7,5.68,5.68,0,0,0-.27,2.67c0,1.12,1.68,3.53,2.95,6.15a49.18,49.18,0,0,1,3.09,8.12,52.17,52.17,0,0,1,1.62,8.6c.16,1.45.24,2.91.33,4.29,0,.67.07,1.38.14,1.91S156.13,202.69,156.23,203.28ZM151.08,111a22.68,22.68,0,0,1-2.82-.73,5.08,5.08,0,0,1-1.26.7c-1.2.53-2.44,1-3.54,1.53.34.12.07.24,0,.34a3,3,0,0,0-.33.28c.61-.26,1.24-.5,1.88-.71s1.37-.42,2.05-.6,1.32-.34,2-.49A11.5,11.5,0,0,1,151.08,111Zm8.87-4,.22.12.09.63Zm-.21-1.08-.26,0C159.41,105.62,159.53,105.68,159.74,105.89Zm-2.37-.21a3,3,0,0,0,.46.22ZM145.45,90.44l1.18,3.19-1-3.13Z"/></g></g></svg>