<svg xmlns="http://www.w3.org/2000/svg" viewBox="0 0 432.86 330.03"><g id="Layer_2" data-name="Layer 2"><g id="Layer_1-2" data-name="Layer 1"><path d="M5,11.56l.51.29a1.26,1.26,0,0,1-1.11.37,9.48,9.48,0,0,0,3.84.67A11.17,11.17,0,0,0,12,12.14a16.17,16.17,0,0,0,3.42-1.85,17.8,17.8,0,0,0,2.89-2.48,2.5,2.5,0,0,0,2.46-2.44A2.41,2.41,0,0,0,18,3.28,4,4,0,0,1,17,3,17.2,17.2,0,0,0,13.18,1,25.37,25.37,0,0,0,8.91,0l1.83.79A7.59,7.59,0,0,0,8.13.61l.45.62a6.56,6.56,0,0,0-8.08,3C-.84,6.92.63,10,3.63,11Z"/><path d="M11.33,17.71c-1.71-.53-3.37-1.1-5-1.65l-.39-.35.52,1.86v-.12a6.71,6.71,0,0,1,2.24-2.32,17.74,17.74,0,0,1,3-1.51l.71-.41a1.62,1.62,0,0,0,.49-1.14A1.72,1.72,0,0,0,11,10.43l-1.2.05a10.6,10.6,0,0,0-2.49-.15,9.45,9.45,0,0,0-2.53.55,5,5,0,0,0-3.32,3.48,5.33,5.33,0,0,0,.64,2.52A2.46,2.46,0,0,0,5,18.8a2.47,2.47,0,0,0,2.18-2.68l.76.11-.46.56c.15-1.17,1.36-1.68,2.19-2.43L11,13.8,9.61,11l-.67.53a2.93,2.93,0,0,1,.23.29,32.14,32.14,0,0,1-3.82,3L3.67,16.3a1.34,1.34,0,0,0,.54,1.86l1,.45-.47-.29c2.1.24,4.21.15,6.28.52a.66.66,0,0,0,.78-.43A.57.57,0,0,0,11.33,17.71Z"/><path d="M4.57,19.52a1.5,1.5,0,0,0-1.16-.17c-.08.15-.11.23-.13.27L4,20C4.53,20.25,4.69,19.92,4.57,19.52Z"/><path d="M3.28,19.62,3,19.47l.24.23,0,0Z"/><path d="M147.05,283.6a33.33,33.33,0,0,0,12.33,4.91c.6.1,1.18.23,1.79.31l1.92.21,1.91.23,1.94.07,1.95.08,2-.07,2-.06c.66,0,1.32-.15,2-.21a68.4,68.4,0,0,0,30.75-11.59,77,77,0,0,0,13.06-11.07,87,87,0,0,0,10.56-13.93,110.49,110.49,0,0,0,13.33-33.76,10.88,10.88,0,0,0,.44-3.12,9.16,9.16,0,0,0-.79,2.64A110.69,110.69,0,0,1,229,251.9c-.81,1.24-1.57,2.5-2.38,3.71l-2.54,3.57-2.7,3.41-2.83,3.19a77.82,77.82,0,0,1-12.89,11,68.08,68.08,0,0,1-30.41,11.69l-2,.22c-.65.08-1.3,0-2,.08l-1.94.08c-.65.05-1.29,0-1.93-.05a32.24,32.24,0,0,1-3.82-.26c-1.25-.16-2.56-.24-3.7-.49a33.45,33.45,0,0,1-12.26-4.72c-.46-.26-.79-.54-1.11-.69a2.16,2.16,0,0,0-.61-.25C145.8,282.53,146.3,283,147.05,283.6Z"/><path d="M338.83,15.15c-.68.07-1,.15-1,.2a5.39,5.39,0,0,0,1.11.05c1.21,0,3.37-.12,4.71-.27,1.14-.13,1.09-.25-.12-.25C342.14,14.88,340,15,338.83,15.15Z"/><path d="M328.46,25a80.74,80.74,0,0,0-19,7.55c-1,.56-2.13,1.21-3,1.64.46,0-.71.74-2.93,2.12a96.22,96.22,0,0,0-15.08,12.29l-3.36,3.55L282,55.91c-1.09,1.22-1.94,2.62-2.91,3.94l-1.42,2c-.45.68-.85,1.39-1.28,2.09L275.13,66a20.34,20.34,0,0,0-1.2,2.13l-2.21,4.38a84,84,0,0,0-3.46,9.14,87.68,87.68,0,0,0-3.74,19.52,152,152,0,0,0-.16,20.6c.44,7,1.2,14.08,2.09,21.25s1.9,14.48,2.78,21.89,1.62,15,1.92,22.68a12.15,12.15,0,0,1,.54,2.6,96.8,96.8,0,0,1-.46,22.08c-.27,2.27-.68,4.52-1.06,6.78a143.61,143.61,0,0,1-12.75,39.75,123.62,123.62,0,0,1-11.06,18.1c-1.09,1.41-2.11,2.85-3.28,4.22l-3.5,4.09-3.72,3.88c-1.27,1.27-2.61,2.46-3.92,3.68a92.51,92.51,0,0,1-15.72,12.55,108,108,0,0,1-16.68,8.87A95.78,95.78,0,0,1,181,319.79l-4.86.82-4.94.48c-1.65.2-3.33.15-5,.21l-2.51,0c-.84,0-1.68-.08-2.52-.11-1.69-.11-3.35-.15-5.08-.35-.86-.11-1.73-.2-2.59-.32l-2.59-.42a72.48,72.48,0,0,1-10.33-2.7c1.66.78,2.66,1.26,2.57,1.47-.65.28-7.33-1.22-14.57-5.69A53.45,53.45,0,0,1,118.26,305a52.64,52.64,0,0,0,7.23,6.3c1.28.87,2.55,1.8,3.86,2.56l2,1.16,2,1.05a69.24,69.24,0,0,0,16.33,5.85c1.6.35,3.07.65,4.42.89l2.3.32c.76.1,1.5.14,2.25.21l4.51.34c1.5,0,3,0,4.51,0h2.26l2.24-.16c1.5-.11,3-.2,4.5-.36l4.45-.64c1.49-.19,2.95-.53,4.41-.85s2.95-.6,4.38-1A103.42,103.42,0,0,0,208,313.9a109.76,109.76,0,0,0,16.17-9.77,115.65,115.65,0,0,0,14.05-12.23,120.39,120.39,0,0,0,11.63-14.26,132.45,132.45,0,0,0,9-15.52,135,135,0,0,0,6.68-16.29,144.66,144.66,0,0,0,4.52-16.69c.64-2.79,1.05-5.61,1.54-8.41s.81-5.62,1-8.43a160.73,160.73,0,0,0,.82-16.81l0-4.18-.18-4.13c-.07-1.37-.11-2.75-.21-4.11l-.32-4c-.89-10.77-2.41-21.13-3.79-31.2s-2.62-19.89-3.08-29.51a117,117,0,0,1,1.61-28,38.09,38.09,0,0,1,1.06-4c.26-.67.36-.5.08.8-2.48,11.21-2.38,22.66-1.38,34.16s3.18,23.22,5.21,35.57c1,6.16,2,12.55,2.8,19.15.17,1.67.35,3.34.53,5,.08.84.17,1.69.26,2.53l.18,2.6c.12,1.74.25,3.47.34,5.24s.12,3.57.17,5.38a158.32,158.32,0,0,1-5.85,45.5c-5.35,18.84-14.6,37.16-28.85,52.58a113.86,113.86,0,0,1-24.25,19.79A111.77,111.77,0,0,1,203.56,322c-1.24.52-2.51,1-3.77,1.48s-2.51,1-3.82,1.39c-2.61.79-5.18,1.7-7.89,2.29l-4,.95c-1.36.26-2.74.48-4.11.71-2.74.52-5.55.74-8.36,1-1.4.16-2.82.17-4.24.2l-4.27.06-4.3-.22c-1.44-.1-2.84-.15-4.35-.35a78.87,78.87,0,0,1-17.81-4.14,70.78,70.78,0,0,1-8.88-3.88A65.23,65.23,0,0,1,119,316a59.29,59.29,0,0,1-8.12-7.29c-1.25-1.42-2.51-2.81-3.64-4.38-.57-.77-1.15-1.54-1.69-2.34L104,299.48c-.52-.82-1-1.66-1.43-2.52s-.89-1.71-1.3-2.58c-.76-1.73-1.56-3.5-2.14-5.26a61.82,61.82,0,0,1-2.74-10.54,74.57,74.57,0,0,1-1-10.1,83.89,83.89,0,0,1,.3-9.46,107.47,107.47,0,0,1,3-17.19A202.53,202.53,0,0,1,109.61,212c4.09-9.11,8.37-17.54,12.33-25.51s7.62-15.53,10.6-22.76A109.79,109.79,0,0,0,139,143.27a66,66,0,0,0,1.12-9.29l.07-2.23,0-2.21c-.1-1.42-.27-2.79-.35-4.19a53.75,53.75,0,0,0-5-16.61,71.79,71.79,0,0,0-25.25-28.36c-1.91-1.13-3.73-2.4-5.7-3.35l-1.44-.78-.71-.39-.75-.33L98,74.2c-1-.46-2.11-.82-3.14-1.24l-1.59-.62c-.52-.21-1.09-.35-1.63-.53l-3.26-1.07L85,69.87c-.56-.14-1.1-.32-1.67-.44l-1.72-.35c-1.14-.22-2.26-.52-3.42-.7-2.33-.35-4.63-.78-7-1S66.43,67,64,66.8c-1.2-.06-2.43,0-3.64-.09l-1.82,0c-.62,0-1.23,0-1.85,0L53,66.75l-1.86.11H50.9l-.75.12-1.51.21c-1,.11-2,.32-3,.46s-2,.29-3,.42l-3,.48-3,.46-3.07.54a4.8,4.8,0,0,1-2.25.17A5.31,5.31,0,0,1,29.1,69a7.25,7.25,0,0,1-2.94-4.09A7.44,7.44,0,0,1,27,58.71l-.81.1-1.36-.22a5.68,5.68,0,0,1-3.4-2.05l-1.21-1.37c-1.79-2.69-4.33-4.79-6-7.61l0-1.22-.32-.28a6.08,6.08,0,0,1-2.27-2.78l-.24-1.43A14.27,14.27,0,0,1,11.61,37a5.17,5.17,0,0,1-.14-1.79,7.08,7.08,0,0,1-1.42-4.53,1,1,0,0,1-.17-1.42,1.12,1.12,0,0,1,.47-.33h0a8.26,8.26,0,0,0-.72-.77A6.21,6.21,0,0,1,9,28.08c-1,0-1,0-1.92-.08a5.31,5.31,0,0,1-1.46-.92c-1.4-2.34-1.4-2.34-1.53-3.45a3.38,3.38,0,0,1,.08-.34l-1-.31a2.36,2.36,0,0,1-.41-.35c-.17-.58-.17-.58-.34-.76a2.53,2.53,0,0,1-.13-.43c.21-.73.21-.73.17-.92a1.92,1.92,0,0,1,.14-.36l.61-.46C4.49,21,4.5,21,4.5,21l.08-.57.38.65-.27-.61.56.28-.67-.44a4.63,4.63,0,0,0,1.61-.13,2,2,0,0,0,.89-.28A1.63,1.63,0,0,1,7,19.57c1.25,0,1.25,0,2.47,0,.13.12.25.25.36.37a.54.54,0,0,1,.52-.33H11l.11-.12v-.05l.46-.39L11.6,19h0l2-1.71a7.59,7.59,0,0,1,1.09.11l-.36-.23c-.23-.17-.16-.76-.27-.8a35.08,35.08,0,0,0-8.69-.69,1,1,0,0,1-1.21-.5A.86.86,0,0,1,4.76,14c5-4.28,12.38-5.06,18.69-3.46,1.63.11,3.24.18,4.86.23l-.26-.26,1.28.29h.14l-1.06-.92-.68-.23a28.91,28.91,0,0,1-5.56-.65c-1.83-.32-3.67-.71-5.55-1-2-.28-3.86-.94-5.83-1.33a.8.8,0,0,1-.9-.71.84.84,0,0,1,.83-.81,30.81,30.81,0,0,1,9.56-1.38,19.8,19.8,0,0,1,9.09,2.27,5.49,5.49,0,0,1,3.22.66h0L31.86,6c.87.15,1.39.81,2.18,1l-.39-1.14c2.12.19,4.29.1,6.46.25a19.28,19.28,0,0,1,6.25,1.16,3.27,3.27,0,0,1,.45.1,25,25,0,0,1,2.53-1.14L50,6.07l.09,0,0,0h0s0,0,.09,0l1.68,0c1.13-.06,2.27,0,3.42,0,4.6,0,9.37.24,14.32.68-1.68-.24-3.33-.34-5-.51s-3.32-.35-5-.41l-5-.26c-.83,0-1.66-.09-2.49-.09L51,5.34h-.57l.66,0,1.34,0c.89,0,1.79,0,2.68,0l5.39,0c1.8,0,3.61.16,5.43.25l2.73.14,2.75.27A142.14,142.14,0,0,1,94,9.74a137.92,137.92,0,0,1,30.89,12,122.86,122.86,0,0,1,26.55,19.2c1.84,1.84,3.68,3.6,5.38,5.44s3.27,3.72,4.82,5.53,2.88,3.76,4.24,5.58l1,1.36.91,1.4,1.77,2.74,1.69,2.67c.52.89,1,1.8,1.47,2.67,1,1.76,1.85,3.44,2.66,5.07s1.44,3.29,2.08,4.81a46,46,0,0,1,1.65,4.36,107.88,107.88,0,0,1,9.67,30.63c.33,2.71.65,5.42.92,8.13q.15,4.11.23,8.22a112.44,112.44,0,0,1-1.43,16,137.88,137.88,0,0,1-8.45,29.24,275.54,275.54,0,0,1-12,25.32c-8.37,15.84-16.73,30.27-22.25,44.46-1.36,3.53-2.56,7.08-3.54,10.5a57.26,57.26,0,0,0-1.92,9.53,31.81,31.81,0,0,0,0,8,15.1,15.1,0,0,0,1.78,5.39,4.78,4.78,0,0,1,.23.45c.09.14.19.28.27.42s.29.56.45.79a3.56,3.56,0,0,1,.32.66,1,1,0,0,1,.15.43c-.07.32-1.08-.29-1.92-1.56a14.18,14.18,0,0,1-1.78-3.64,21.14,21.14,0,0,1-.94-5,45.08,45.08,0,0,1,1.26-13.16c.28-1.21.59-2.41.94-3.66s.73-2.56,1.17-3.85.84-2.58,1.33-3.88l.7-1.94.77-2c2-5.2,4.44-10.46,7.08-15.79,5.27-10.68,11.44-21.59,17.35-33.44,2.94-5.92,5.83-12.06,8.42-18.56a149.72,149.72,0,0,0,6.59-20.53,167.31,167.31,0,0,1-12.79,33c-5,10.09-10.45,19.46-15.49,28.61a262.08,262.08,0,0,0-13.4,27c-.92,2.23-1.78,4.46-2.55,6.7s-1.49,4.5-2.07,6.61a53.92,53.92,0,0,0-2,12.31,24.81,24.81,0,0,0,1.62,10,21.6,21.6,0,0,0,2,3.69,23.21,23.21,0,0,0,3.06,3.39,32.6,32.6,0,0,0,12.48,6.1,41.17,41.17,0,0,0,7.64,1.3c.67.05,1.33.16,2,.19l2,0,2,.06,2-.11a68.68,68.68,0,0,0,31.59-9.93,80.17,80.17,0,0,0,13.71-10.41,82.7,82.7,0,0,0,11.33-13.29,105.5,105.5,0,0,0,14.91-33.42A137.11,137.11,0,0,0,246.83,194c.13-5.21-.12-10.54-.42-15.88s-.87-10.78-1.47-16.31c-1.14-11-2.58-22.39-3.24-34.47-.08-1.51-.16-3-.23-4.54s-.07-3.08-.1-4.63c-.11-3.08,0-6.27.09-9.44A130.62,130.62,0,0,1,243.67,89l.67-3.52.9-3.49.92-3.48c.28-1.16.76-2.31,1.13-3.46.82-2.28,1.52-4.62,2.56-6.8L251.31,65l.73-1.65c.27-.53.56-1.06.84-1.59a101.81,101.81,0,0,1,16.17-23.19A109.65,109.65,0,0,1,315.21,8.89a98.51,98.51,0,0,1,27.33-4.83A107.2,107.2,0,0,1,370,6.7a115.83,115.83,0,0,1,49,24.57l1.44,1.17,1.34,1.23,2.56,2.41a58.16,58.16,0,0,1,4.3,4.52,26.54,26.54,0,0,1,4.15,5.46c.2.61-.89-.42-2.9-2.46-1.05-1-2.33-2.22-3.77-3.64l-1.11-1.11-1.23-1.11-2.63-2.38A116.47,116.47,0,0,0,370.65,9.1a104.58,104.58,0,0,0-28.86-2.63,99,99,0,0,0-28.58,5.74,106.76,106.76,0,0,0-46.77,33.25,98.74,98.74,0,0,0-14.85,25.2,107.44,107.44,0,0,0-6.87,28.22,171,171,0,0,0-.57,27.92c.48,9.11,1.41,18,2.33,26.69,1.84,17.42,3.67,34.16,2.09,50.3a122.64,122.64,0,0,1-13.22,46.42c-1,1.74-1.88,3.53-3,5.2L230.81,258l-1.7,2.45c-1.08,1.67-2.36,3.18-3.55,4.76-.59.8-1.27,1.49-1.9,2.24s-1.25,1.5-1.94,2.21a84.21,84.21,0,0,1-18.26,14.72c-11.65,6.86-24.71,10.5-37.2,10,.16.1.31.19.31.29s-.3.36-.86.52a10.28,10.28,0,0,1-1,.23c-.4,0-.86.07-1.37.09a62.76,62.76,0,0,0,21.92-2,77.41,77.41,0,0,0,10.77-3.7,84.71,84.71,0,0,0,10.23-5.39,80.74,80.74,0,0,0,12.58-10.16,89.44,89.44,0,0,0,10.47-12.43,109.71,109.71,0,0,0,14.41-30.09,141.3,141.3,0,0,0,5.87-34.15c.58-11.73-.25-24-1.42-36.84-1.54-17.61-3.43-35.17-2.21-53a116.8,116.8,0,0,1,4.78-26.47,94.9,94.9,0,0,1,11.64-24.5,101.63,101.63,0,0,1,22.76-25.31A105.29,105.29,0,0,1,314.89,15a94.44,94.44,0,0,1,33.84-5.43,104.15,104.15,0,0,1,17.09,1.76c1.41.27,2.8.62,4.19.94l2.09.48a21.21,21.21,0,0,1,2.08.55l4.1,1.24c.68.21,1.38.4,2.05.64l2,.75a38.67,38.67,0,0,1,4.05,1.66c.58.32-.37.06-2.1-.57l-2.77-1c-.92-.34-1.84-.67-2.8-.92L373,13.49l-5.8-1.26a28.78,28.78,0,0,0-2.92-.52l-2.95-.44a103.61,103.61,0,0,0-23.95-.43,100.26,100.26,0,0,0-44.93,16.81A54.45,54.45,0,0,1,297.78,25c1.28-.47,2-.58,1.89-.29s-.92,1-2.3,2.08q-1,.84-2.49,1.92l-1.53,1.14c-.55.39-1.12.81-1.68,1.29a105.71,105.71,0,0,1,18.75-10.35c4.13-1.59,7.46-2.6,7.42-2.32s-3.24,1.62-7.12,3.13a103.52,103.52,0,0,0-18.91,10.54l-4.35,3.23-4.13,3.51c-1.41,1.13-2.64,2.47-3.95,3.72l-1.93,1.9c-.64.64-1.21,1.35-1.82,2A89.86,89.86,0,0,0,263,64.15l-1.31,2.39c-.21.4-.44.79-.64,1.2L260.51,69l-2.23,5a101.72,101.72,0,0,0-3.37,10.36,117.58,117.58,0,0,0-3.46,25.6,210.26,210.26,0,0,0,.93,25.41c1.48,16.76,4,33.2,4.62,49.62a70.74,70.74,0,0,1,.82-9.61h0c-.37-5.13-.86-10.23-1.4-15.34-1.39-11.68-3-23.46-3.66-35.46a137.93,137.93,0,0,1,2.13-36.3,92.56,92.56,0,0,1,9.86-26c.76-1.35,1.64-2.63,2.46-4a44.3,44.3,0,0,1,2.6-3.87l2.79-3.74c1-1.22,2-2.36,3-3.55l1.52-1.76c.51-.59,1.09-1.11,1.63-1.67l3.3-3.31c1.14-1,2.33-2,3.5-3.08l1.77-1.53c.59-.5,1.23-1,1.85-1.42l3.73-2.81c1.3-.88,2.61-1.71,3.92-2.56l2-1.27,2.05-1.15,4.1-2.26,4.25-2,2.14-1,2.19-.84c1.47-.54,2.93-1.12,4.4-1.64l4.51-1.34c.76-.21,1.5-.47,2.27-.64l2.3-.5c1.54-.32,3.07-.71,4.62-1a92.45,92.45,0,0,1,9.38-1l2.35-.14a20.67,20.67,0,0,1,2.36-.07l4.72.07a96,96,0,0,1,18.64,2.57c3.08.61,6.05,1.65,9.06,2.53,1.49.5,3,1.09,4.42,1.63l2.2.82c.73.3,1.44.64,2.15,1l4.29,1.93,4.16,2.2,2.08,1.11,2,1.22c1.34.83,2.68,1.63,4,2.48a109.16,109.16,0,0,1,27.23,25.76,18.51,18.51,0,0,1,2,3A15,15,0,0,1,430.63,58,107.67,107.67,0,0,0,376.2,19.18l-2.71-.82c-.91-.28-1.81-.55-2.74-.74l-5.52-1.27-5.6-.89c-.93-.17-1.87-.25-2.82-.33L354,14.89h.12c1.21.17,1.43.31.09.26-.58,0-1.46-.08-2.34-.15s-1.78-.06-2.38-.11c-1.4-.09-1.27-.21-.13-.25-1.76,0-3.52-.11-5.28,0l-5.28.31c-1.76.12-3.5.44-5.25.66-.88.12-1.76.22-2.62.38l-2.59.55-2.58.56-1.29.29-1.26.37-5.06,1.5c-1.66.58-3.29,1.23-4.94,1.84s-3.23,1.35-4.83,2.09c-3.22,1.38-6.24,3.18-9.3,4.87-2.93,1.91-5.93,3.73-8.66,5.91-1.39,1-2.81,2.08-4.1,3.26s-2.64,2.28-3.93,3.46l-3.7,3.7-.92.93-.86,1-1.71,2-1.7,2c-.57.66-1.06,1.38-1.59,2.07-1,1.41-2.11,2.78-3.09,4.22L266,61c-.23.37-.47.73-.69,1.11l-.61,1.15-1.23,2.31-1.22,2.3c-.39.78-.7,1.59-1.06,2.38-.67,1.61-1.42,3.18-2,4.8l-1.68,4.94c-.13.41-.28.82-.41,1.23l-.32,1.26-.64,2.51-.64,2.51c-.21.84-.33,1.69-.49,2.54-.3,1.69-.64,3.38-.9,5.08-.4,3.41-.86,6.81-1,10.21s-.21,6.81-.26,10.2c.1,3.38.15,6.77.4,10.13A140.19,140.19,0,0,1,255.75,88L257,83.37c.21-.77.4-1.54.62-2.3l.79-2.26c.54-1.5,1-3,1.61-4.5L261.92,70a42.46,42.46,0,0,1,2.15-4.26l1.13-2.1a22.13,22.13,0,0,1,1.2-2.06l2.58-4,.65-1,.72-1,1.43-1.9c1.84-2.59,4-4.91,6.1-7.31,1.06-1.17,2.24-2.25,3.35-3.38l1.69-1.67c.58-.55,1.2-1,1.79-1.56l3.62-3.1,3.81-2.83c.64-.47,1.26-1,1.92-1.4l2-1.28c1.35-.84,2.65-1.74,4-2.53,2.79-1.5,5.52-3.11,8.45-4.34l2.16-1,1.08-.49,1.11-.42,4.46-1.65a22,22,0,0,1,2.26-.73l2.28-.66a45.66,45.66,0,0,1,4.6-1.19l4.65-1c1.56-.25,3.14-.43,4.71-.64l2-.32c.68-.09,1.37-.12,2.06-.18l4.14-.34c1.39-.12,2.78,0,4.17-.08s2.8-.07,4.2,0a36.82,36.82,0,0,1,4.12.5c.42.12-.71.13-2.27,0L352,16c-.77-.05-1.54,0-2.32,0l1.77,0c.58,0,1.14.11,1.7.16l3.19.35a43,43,0,0,1,5.27.92c1.47.33,2.64.61,3.41.87s1.16.52,1.1.64a5.21,5.21,0,0,1-1.76,0c-1,0-2.36-.16-4-.33-.83-.07-1.71-.22-2.67-.28l-3-.18L351.32,18l-3.56,0-2.44,0c-.81,0-1.63.09-2.44.12-1.62.12-3.25.19-4.87.33A94.62,94.62,0,0,0,328.39,20c-3.2.59-6.28,1.66-9.4,2.56-3,1.18-6.12,2.19-9,3.65l-2.21,1-1.1.52-1.07.58-4.26,2.36c-1.4.81-2.73,1.74-4.1,2.61l-2,1.32L293.25,36a92.13,92.13,0,0,0-14.38,13l-2.73,3.2c-.89,1.08-1.67,2.25-2.51,3.37a80.33,80.33,0,0,0-4.5,7.12,93.2,93.2,0,0,1,19.7-22.52L290.25,39l1.51-1.11,3-2.23c1-.78,2.08-1.38,3.12-2.07l3.16-2,3.29-1.8c1.11-.57,2.17-1.23,3.32-1.74l3.4-1.54,1.7-.78c.58-.25,1.17-.44,1.75-.66a88.08,88.08,0,0,1,29.06-6,91.51,91.51,0,0,1,29.34,3.88c1.63.49,3.13,1,4.21,1.37a6.12,6.12,0,0,1,1.73.89c0,.1-.64-.05-1.69-.37s-2.55-.66-4.17-1.15a93.27,93.27,0,0,0-25.61-3.48A85,85,0,0,0,322,24.25a92.23,92.23,0,0,0-42.33,28.54,85.31,85.31,0,0,0-13.36,21.9,90.22,90.22,0,0,0-6.18,24.94,153.27,153.27,0,0,0-.35,26.17c.55,8.8,1.58,17.64,2.63,26.56.9,5.82,1.79,11.71,2.6,17.63.34,3,.78,6,1,9l.45,4.53c.13,1.52.21,3.05.32,4.58A162.27,162.27,0,0,1,265,225.44c.31-1.57.62-3.14.93-4.73s.52-3.18.78-4.78c.21-1.26.38-2.53.51-3.8s.29-2.54.44-3.8c.17-2.53.45-5,.51-7.56l.15-3.75,0-3.75c.05-2.49-.09-4.94-.16-7.39-.4-9.78-1.49-19.19-2.65-28.36-2.32-18.29-5-35.77-4.1-52.9a95.51,95.51,0,0,1,4.42-24.94,81.42,81.42,0,0,1,11.68-22.56,89.7,89.7,0,0,1,41.9-31.22,15.39,15.39,0,0,1,3.45-.91c.22,0-.93.48-2.69,1a89.29,89.29,0,0,0-41,29.68,82.05,82.05,0,0,0-12,21.74,92.42,92.42,0,0,0-5.09,24.8c-1,14.4.5,28.74,2.39,43,.93,7.15,2,14.29,2.83,21.51s1.65,14.46,1.95,21.84c-.15-7.55-.82-14.9-1.59-22.11s-1.72-14.3-2.57-21.27-1.64-13.87-2.08-20.68a153.18,153.18,0,0,1-.2-20.19c0-1.68.24-3.31.41-5s.3-3.3.63-4.9.52-3.25.84-4.85l1.15-4.77a83.31,83.31,0,0,1,7.32-18.07,90.88,90.88,0,0,1,11.66-16l3.48-3.58c1.2-1.15,2.48-2.23,3.72-3.35a49.36,49.36,0,0,1,3.9-3.16l2-1.54c.66-.52,1.39-1,2.08-1.42,1-.66,2-1.31,2.87-1.88a20.46,20.46,0,0,1,2.47-1.31,6,6,0,0,1,1.09-.76,81.12,81.12,0,0,1,19.73-8.7,27.48,27.48,0,0,1,4-.78C330.84,24.28,330,24.57,328.46,25ZM24.18,22.51,24,22.32l.59.28.95,1.3ZM15.79,29.2h0l-.57-.7ZM166.26,195c3.63-7,7.2-14.21,10.36-21.9,1.59-3.82,3-7.81,4.35-11.87s2.42-8.29,3.36-12.58a117.26,117.26,0,0,0,2-13.22c.13-1.11.15-2.25.22-3.37s.16-2.25.12-3.4l-.08-6.88a107.3,107.3,0,0,0-5-26.75,104.25,104.25,0,0,1,5.71,26,108.35,108.35,0,0,1-5.65,40.07C177.51,173.47,171.93,184.55,166.26,195ZM16.94,18.2a12.69,12.69,0,0,1,2.62,2.22A5,5,0,0,1,21.28,20a31.14,31.14,0,0,1,4.82-.12c-.27-.47.11-.46.29-.54l.57-.19-5.19-.48A40.88,40.88,0,0,1,16.94,18.2ZM5.86,22.34l-.18-.14.13-.8S5.83,21.81,5.86,22.34Zm-.19,1.35.25,0C5.9,24,5.8,24,5.67,23.69ZM8,24.15a1.88,1.88,0,0,0-.39-.33Zm6.16,21.31,0-3.85-.06,3.72Z"/><path d="M114.67,121v.52c-.31,0-.55-.18-.74-.53.58,4.88,5.5,6.57,9.54,6.18a2,2,0,0,0,2.87-.24,2.31,2.31,0,0,0,0-3.06,2.62,2.62,0,0,1-.25-.81,18.3,18.3,0,0,0-1.42-7c.06.54.13,1.11.19,1.65A4.69,4.69,0,0,0,124,116c-.09.22-.18.47-.27.69a3.91,3.91,0,0,0-5.24-3.33,5.91,5.91,0,0,0-4,6.35Z"/><path d="M113,129.24a46.91,46.91,0,0,1-1.18-4.56l.1-.49-1.18,1.52.1-.08c1.91-.44,3.68.41,5.32,1.18l.65.2a1.52,1.52,0,0,0,1-.43,1.72,1.72,0,0,0,.29-2.29l-.6-.75c-1-2.38-3.44-4.87-6.54-3.28a6.49,6.49,0,0,0-1.69,2,2.33,2.33,0,0,0-.19,3.2,2.08,2.08,0,0,0,3-.11c.08.2.17.41.26.61l-.63,0c1-.63,1.88-.1,2.82,0,.35.19.72.35,1.08.53l1.35-2.72-.69-.1c-.05.12-.1.33-.11.33a16.79,16.79,0,0,1-3.92-.76L110.5,123a1.53,1.53,0,0,0-1.2,1.52l.11,1V125c.78,1.64,1.82,3.14,2.61,4.8a.52.52,0,0,0,.72.25A.62.62,0,0,0,113,129.24Z"/><path d="M108.41,125.58a1.18,1.18,0,0,0-.4-.93l-.28.07c0,.2,0,.47.06.74C107.83,126,108.16,125.91,108.41,125.58Z"/><path d="M107.73,124.72c0-.19,0-.32,0-.32s0,.22-.08.32h.1Z"/><path d="M216.66,172.19l4.67.79c1.56.29,3.13.41,4.71.62s3.15.42,4.74.54l4.76.36c1.59.15,3.19.19,4.79.24l4.8.14,4.81,0,2.41,0c.8,0,1.6-.08,2.41-.11.43,0,.78-.14.78-.27s-.33-.19-.73-.16a170.06,170.06,0,0,1-37.95-2.55c-.42-.06-.77,0-.84.12S216.27,172.12,216.66,172.19Z"/><path d="M314.76,171.46c-.27.19-.22.28.12.22a3.18,3.18,0,0,0,1-.41c.23-.16.17-.28-.12-.23A3.15,3.15,0,0,0,314.76,171.46Z"/><path d="M315,179.93c-1.77.91-3.42,1.84-4.9,2.67a3.75,3.75,0,0,1-.87.33c.16.11-.14.39-.78.72a166.45,166.45,0,0,1-20.29,8.55L282.81,194l-2.71.87-2.75.76-5.51,1.54-5.57,1.35a1.43,1.43,0,0,1-.57.56,8.31,8.31,0,0,1-2.15.95,20.14,20.14,0,0,1-3.08.57l-1.66.12c-6.68.73-13.39,1.07-20.07,1.15a27.88,27.88,0,0,1-4.68.61l-4.37.61c-1.46.18-2.93.3-4.4.45l-4.46.4c-1.49.09-3,.14-4.51.2.37.17.58.36.57.56-.16.47-1.59.76-3.22.67-.83,0-1.66,0-2.48-.09l7.08.69a7.82,7.82,0,0,1,.93.12c2.6.12,5.23.05,7.9,0a176.44,176.44,0,0,0,33.58-4.2,209.94,209.94,0,0,0,30.87-9.46,3.09,3.09,0,0,1,1.15-.31c.22,0,.22.16-.13.32-1.53.71-3,1.49-4.53,2.16l-4.49,2c-3,1.43-6,2.62-9.06,3.93-1.54.67-3.12,1.24-4.73,1.82l-4.92,1.76c-1.69.55-3.43,1-5.22,1.55s-3.63,1.05-5.55,1.43l-6.86,1.49-6.93,1.22c-2.32.45-4.65.7-7,1s-4.7.62-7.06.81a202.7,202.7,0,0,1-29.05.8c-10.23-1.1-20.11-2.43-30-4.38a264.74,264.74,0,0,1-30.05-7.55l-5.63-1.92-2.8-1L126,196.58l-5.49-2.17c-1.8-.76-3.59-1.56-5.37-2.36-4-1.52-7.81-3.4-11.63-5.26-1.89-.95-3.73-2-5.6-3s-3.75-2.07-5.57-3.22c-4.07-2-6-6.26-4.15-9.54a6.62,6.62,0,0,1,5.47-3.24c-.28-.2-.56-.4-.83-.62l-1.06-1.31a6.07,6.07,0,0,1-1.39-4.22l.06-1.89a46.37,46.37,0,0,0,.53-4.88,20.7,20.7,0,0,1,.9-4.88l1-.74v-.44a5.6,5.6,0,0,1,.72-3.55l1-1a14.44,14.44,0,0,1,4-2.68,5.09,5.09,0,0,1,1.31-1.19,7.16,7.16,0,0,1,2.71-3.87,1,1,0,0,1,1-1,1,1,0,0,1,.51.16h0a8,8,0,0,0,.2-1c-.18-.32-.27-.53-.27-.53-.52-.79-.52-.79-.95-1.5a4.89,4.89,0,0,1,0-1.65c1.14-2.44,1.14-2.43,2-3.2l.31-.14c-.19-.67-.2-.72-.24-.91a2.52,2.52,0,0,1,.08-.51c.37-.47.37-.47.44-.7a3.33,3.33,0,0,1,.28-.35c.68-.29.68-.29.81-.42a1.8,1.8,0,0,1,.35-.13l.64.17-.41,1.71.48-.28-.32.67.34-.57,0,.58,0-.75c.56.83.57.83.87,1.08a1.45,1.45,0,0,0,.64.46,2.84,2.84,0,0,1,.2-.29c.6.9.6.9,1.18,1.79a3.26,3.26,0,0,1-.1.49.41.41,0,0,1,.51.16l.32.44h.15l0,0,.53.06h.12l2.29.23a5.22,5.22,0,0,1,.48.81c0-.13,0-.26,0-.39s.46-.61.42-.71a20.52,20.52,0,0,0-1.72-3.29c-.62-1.07-1.3-2.09-2-3.13a.84.84,0,0,1-.15-1.15.78.78,0,0,1,1.1-.27,11.88,11.88,0,0,1,3.73,1.24,14.17,14.17,0,0,1,3.2,2.16,17,17,0,0,1,2.61,3,20.28,20.28,0,0,1,2.1,3.47c.83,1,1.68,2.05,2.57,3v-.33l.56.94a.6.6,0,0,1,.08.08c0-.43,0-.85,0-1.27-.09-.19-.17-.37-.26-.55-2.07-2.23-3.28-5.13-4.79-7.78a38,38,0,0,1-1.77-4.58.79.79,0,0,1,.11-1,.63.63,0,0,1,.94,0c3.88,2.61,7.5,6.55,8.63,11.7a4,4,0,0,1,1.43,2.21l0,0,0-1c.41.57.31,1.34.64,1.95l.44-1.08a23.11,23.11,0,0,0,1.76,1.81l1.91,1.65a14.79,14.79,0,0,1,3.28,3.87l.25.27a16.31,16.31,0,0,1,2.21.16,4.51,4.51,0,0,1,.53.1l.14,0,.3.14.59.28c.78.39,1.57.82,2.38,1.31l-3-2.32c1.19.48,2.47,1.07,3.67,1.69a38.25,38.25,0,0,1,3.71,2c.84.51,1.69,1,2.52,1.62s1.71,1.08,2.54,1.65c1.69,1.11,3.28,2.4,4.82,3.53a44.37,44.37,0,0,1,4.15,3.51,24.91,24.91,0,0,1,3,3.28c3.6,1.53,7.3,2.81,11,4.15,3.74,1.18,7.46,2.43,11.25,3.4a164.88,164.88,0,0,0,23,4.62c.8.1,1.5.41,1.61.7s-.5.44-1.3.34a160.6,160.6,0,0,1-33.6-6.49,148.83,148.83,0,0,0,28.13,8.45l3.79.5c1.25.15,2.48.47,3.71.72a159.88,159.88,0,0,0,37.92,1,188.33,188.33,0,0,0,31.5-6,283.64,283.64,0,0,0,42.33-16c1.83-1,3.71-1.49,4.15-1.21s-.71,1.31-2.55,2.28a220.61,220.61,0,0,1-22.06,10.27,217.33,217.33,0,0,1-23.18,7.61,168.54,168.54,0,0,1-49.38,5.5c-1.83-.11-3.65-.11-5.45-.3l-5.36-.47a.61.61,0,0,1,.07.28c0,.36-.37.66-1,.9l6.13.61c2.05.24,4.11.31,6.19.49,5.76-.17,11.5-.68,17.33-1.19,2.92-.27,5.85-.65,8.83-.9,3-.41,6-.68,9-1.07,2.1-.28,4.16-.52,6.19-.74l6-.84c2-.23,3.92-.59,5.87-.92s3.91-.61,5.84-1.06a221.76,221.76,0,0,0,28-11,2.11,2.11,0,0,1,.93-.31c.17,0,0,.19-.34.4a173.9,173.9,0,0,1-19.34,9c1.19-.06,2,.1,2,.56s-.63,1.14-1.82,1.87l4.72-1.59c1-.33,1.78-.47,1.84-.25s-.63.72-1.55,1l-4.82,1.66-2.41.82-2.44.73-4.87,1.46c-1.63.46-3.28.85-4.92,1.28l-2.92.87c-1,.29-2,.52-2.95.78-2,.49-3.93,1-5.91,1.48l-6,1.28c-2,.45-4,.72-6,1.09a5.21,5.21,0,0,1,2.54.91h0c1.26-.2,2.51-.38,3.75-.65a274.45,274.45,0,0,0,65.77-25c.41-.23.79-.34.84-.26s-.22.31-.59.51c-3.21,1.65-6.34,3.41-9.59,4.93-1.62.77-3.21,1.6-4.84,2.34l-4.9,2.2h0c.29-.06.39,0,.13.22a3.53,3.53,0,0,1-1,.46c-.33.06-.35,0-.13-.22a283.05,283.05,0,0,1-37.4,13.16,253.6,253.6,0,0,0,34.9-10.77c1.19-.61,2.36-1.22,3.54-1.89a2.24,2.24,0,0,1,1-.28c.13,0-.07.23-.41.41l-1,.54c2.12-.9,3.93-1.24,4.11-.75s-1.54,1.74-3.76,2.73c-3,1.29-5.94,2.57-8.95,3.76l-4.54,1.69-2.28.84-2.3.75-2,.73-1.93.91a208.77,208.77,0,0,0,28.37-10.2c.78-.36,1.5-.54,1.6-.39s-.46.61-1.25,1a201.56,201.56,0,0,1-24.46,11c-2.13.75-4.22,1.61-6.38,2.27l-6.47,2.07-6.56,1.81c-1.09.32-2.19.59-3.3.84l-3.33.77c-2.82,1.13-5.71,2.07-8.62,3.08s-5.89,1.87-8.91,2.82l2.35-.29a137.44,137.44,0,0,0,27.56-7c8.63-3.1,16.93-6.63,25.7-10.4a1.44,1.44,0,0,1,.92-.22c.08.07-.18.29-.63.48-8.53,3.77-16.37,7.33-25.23,10.45-3.69,1.19-7.29,2.48-10.89,3.49l-5.35,1.59-5.31,1.48c14.63-2.83,28.11-7.66,41.52-13.29a5.75,5.75,0,0,1,1.6-.5.68.68,0,0,1,.29-.26c.8-.45,1.65-.89,2.52-1.34s1.75-.95,2.64-1.42a2.25,2.25,0,0,1,1-.33C315.59,179.53,315.41,179.71,315,179.93ZM116.9,141.07c0-.1,0-.18,0-.25,0,.18.12.37.18.58l-.26,1.52S116.87,142,116.9,141.07ZM107,139.8h0c.11-.5.18-.87.18-.87C107.14,139.29,107.08,139.56,107,139.8ZM188.3,170c-3.37-.91-6.64-2.15-9.88-3.37-1.61-.63-3.18-1.38-4.75-2.1s-3.13-1.46-4.63-2.33c1.55.61,3.13,1.13,4.72,1.65l3.57,1.64c1.19.56,2.41,1,3.62,1.54l3.64,1.54C185.82,169.08,187.06,169.53,188.3,170Zm-72.68-36.65a14.1,14.1,0,0,1-.08,3.24,4.94,4.94,0,0,1,1.33.81,40,40,0,0,1,3,3c.14-.5.37-.26.53-.2l.48.22c-1-1.17-1.89-2.37-2.81-3.6A21.3,21.3,0,0,1,115.62,133.36Zm-8.78-5.13,0-.22.69-.39Zm-1.15.68.09.22C105.54,129.29,105.56,129.17,105.69,128.91Zm.81,2a1.41,1.41,0,0,0,.06-.49Zm-13,17.78,3-2.34-3,2.18Z"/></g></g></svg>