<svg xmlns="http://www.w3.org/2000/svg" viewBox="0 0 426.47 253.53"><g id="Layer_2" data-name="Layer 2"><g id="Layer_1-2" data-name="Layer 1"><path d="M5,11.33l.51.29A1.37,1.37,0,0,1,4.37,12a11,11,0,0,0,7.75,0,18.77,18.77,0,0,0,6.63-4.07,2.56,2.56,0,0,0,2.64-2.31,2.41,2.41,0,0,0-2.72-2.14,4.28,4.28,0,0,1-1-.34A20.53,20.53,0,0,0,9.35,0l1.89.83A7.69,7.69,0,0,0,8.53.59c.14.19.31.42.44.62a7.59,7.59,0,0,0-4.87,0A6.18,6.18,0,0,0,.55,4.05c-1.43,2.7,0,5.71,3.08,6.76Z"/><path d="M11.33,17.46C9.62,17,8,16.36,6.24,15.77l-.38-.35.49,1.84v-.13c1.08-1.82,3.32-2.88,5.43-3.69l.74-.38a1.53,1.53,0,0,0,.54-1.1,1.72,1.72,0,0,0-1.87-1.67c-.41,0-.81,0-1.22,0a10.62,10.62,0,0,0-5.16.33,5,5,0,0,0-3.44,3.42c-.18.8.35,1.66.62,2.49a2.45,2.45,0,0,0,2.88,1.89,2.49,2.49,0,0,0,2.25-2.62l.78.13-.48.55c.18-1.15,1.42-1.62,2.28-2.36l1.4-.56L9.76,10.86l-.7.52a1.62,1.62,0,0,1,.22.29,29.46,29.46,0,0,1-4,2.87L3.59,16a1.28,1.28,0,0,0,.51,1.83l1,.45L4.63,18c2.1.22,4.28.24,6.35.58a.67.67,0,0,0,.8-.42A.56.56,0,0,0,11.33,17.46Z"/><path d="M4.45,19.17A1.58,1.58,0,0,0,3.28,19l-.14.27.73.36C4.4,19.89,4.56,19.57,4.45,19.17Z"/><path d="M3.14,19.27l-.31-.15.24.23,0,0Z"/><path d="M112.62,205.1c.38.16.78.26,1.17.39.23,0,.35.1.65.18s.66.16,1,.23.66.14,1,.2l1.14.14,1.14.16,1.17,0a36.39,36.39,0,0,0,9.61-.74,46.08,46.08,0,0,0,18.77-8.89,49.63,49.63,0,0,0,7.73-7.47,58.93,58.93,0,0,0,6.32-9.3,73.76,73.76,0,0,0,7.74-22.28,4.43,4.43,0,0,0,.12-2.06c-.11-.07-.31.76-.51,1.74a73,73,0,0,1-7.64,22.16,58.6,58.6,0,0,1-6.23,9.24,49.4,49.4,0,0,1-7.61,7.42,45.77,45.77,0,0,1-18.51,8.88,36.79,36.79,0,0,1-9.48.81,18.77,18.77,0,0,1-2.27-.2c-.74-.11-1.54-.16-2.17-.32a20.91,20.91,0,0,1-2.82-.77c-.4-.12-.76-.17-.88-.07S112.23,205,112.62,205.1Z"/><path d="M243.92,20.45c-.95.13-.9.24.08.26s2.34-.08,3.27-.1.77-.18-.07-.26A15.92,15.92,0,0,0,243.92,20.45Z"/><path d="M236.88,29.35A50.25,50.25,0,0,0,224,34.08,17.83,17.83,0,0,1,222,35c.17,0,.06.16-.29.39A18.78,18.78,0,0,1,220,36.51c-1.88,1.06-3.62,2.36-5.4,3.59s-3.43,2.66-5,4.19a64.56,64.56,0,0,0-4.56,4.65L203,51.46c-.71.82-1.27,1.76-1.91,2.62a51.62,51.62,0,0,0-6,11.39A57.22,57.22,0,0,0,192,78a89.31,89.31,0,0,0-.51,13.56c.17,4.64.67,9.4,1.26,14.23s1.35,9.78,2,14.83,1.38,10.22,1.81,15.55a6.34,6.34,0,0,1,.57,1.78,44.82,44.82,0,0,1,.74,6.45,66.81,66.81,0,0,1-.18,9.07c-.15,1.61-.32,3.22-.56,4.82a105.45,105.45,0,0,1-7.68,28.55,84.9,84.9,0,0,1-16.56,25.29,61.09,61.09,0,0,1-10.43,9.94c-1.72,1.43-3.57,2.7-5.41,4s-3.8,2.46-5.82,3.51-4.07,2.08-6.16,3c-1.06.46-2.15.87-3.22,1.29s-2.19.81-3.31,1.16c-2.21.77-4.52,1.31-6.83,1.87a69.43,69.43,0,0,1-7.12,1.11,71.23,71.23,0,0,1-7.33.39c-2.48-.1-4.93-.16-7.54-.52,1.27.35,2,.63,2,.83-.23.21-1.57.3-3.56.07l-.8-.09a5.26,5.26,0,0,1-.94-.12c-.65-.12-1.34-.25-2.05-.41a43.71,43.71,0,0,1-4.51-1.31,51.18,51.18,0,0,1-9-4.12,53,53,0,0,0,13.12,5.6c1.15.3,2.34.63,3.47.82s2.06.42,3.1.56l1.54.23,1.5.14,3,.27c1.15.08,2.21.07,3.18.13a70.63,70.63,0,0,0,25.43-4.85,79.82,79.82,0,0,0,23.47-14.23,78.3,78.3,0,0,0,9.41-9.69c1.48-1.72,2.72-3.52,4-5.3s2.46-3.63,3.51-5.52a95.33,95.33,0,0,0,9.79-23.4,113.7,113.7,0,0,0,2.55-12,117.06,117.06,0,0,0,1.18-12,115.1,115.1,0,0,0,0-11.9l-.17-2.91c-.07-1-.17-1.9-.25-2.85l-.26-2.84-.33-2.78c-.88-7.4-2.06-14.44-3.06-21.23-2-13.53-3.11-26.26-.28-37.81a10.44,10.44,0,0,1,.86-2.51c.23-.39.32-.27.1.55l-.36,1.31c-.12.44-.17.91-.26,1.36-.17.91-.33,1.81-.5,2.71l-.3,2.76-.15,1.36L194,80.1c0,.92-.07,1.84-.11,2.76s0,1.87,0,2.8.05,1.87.12,2.82.12,1.87.2,2.82c.72,7.61,2.19,15.34,3.83,23.69.81,4.14,1.63,8.51,2.39,13s1.4,9.28,1.76,14.37a113.62,113.62,0,0,1-2.22,32.75,98.13,98.13,0,0,1-18.14,39.4,87.62,87.62,0,0,1-16.44,16.09,85.55,85.55,0,0,1-20.61,11.32,75.94,75.94,0,0,1-24.19,5l-3.2.09c-1.07,0-2.15-.07-3.23-.1s-2.14-.1-3.25-.19-2.26-.22-3.39-.41l-1.73-.26a17.73,17.73,0,0,1-2-.36c-1.34-.27-2.66-.62-4-1s-2.62-.8-3.91-1.24-2.57-.95-3.82-1.5c-10-4.32-18.88-11.67-24.13-21.36A49.85,49.85,0,0,1,62.71,205a56.84,56.84,0,0,1-.75-8.36c0-1.41,0-2.82.07-4.23l0-.53a2.44,2.44,0,0,1,0-.54l.09-1.08c0-.62.08-1.21.15-1.79.29-2.44.7-4.75,1.16-7,.24-1.09.48-2.21.76-3.27l.41-1.58.43-1.45c.57-1.93,1.14-3.9,1.76-5.77l2-5.46c2.73-7.06,5.72-13.44,8.59-19.35S83,133.37,85.3,128.3c1.21-2.55,2.18-4.92,3.17-7.29l1.27-3.4c.42-1.12.68-2.15,1-3.22a43,43,0,0,0,1.92-11.12c0-.79-.08-1.56-.08-2.34s-.22-1.4-.27-2.1-.34-1.39-.45-2.09a5.26,5.26,0,0,0-.32-1c-.11-.35-.22-.7-.32-1C89.32,89,85.07,83,79.17,78.27A44.82,44.82,0,0,0,72.87,74c-1.06-.68-2.23-1.11-3.3-1.69l-1.68-.67-.82-.36c-.3-.11-.63-.21-.94-.31l-1.87-.66-1.94-.55-1-.28-1-.23-2-.46c-1.38-.21-2.7-.54-4.13-.68-.7-.08-1.39-.2-2.1-.28L50,67.68c-.71-.08-1.45-.09-2.19-.13l-1.1,0h-.21l-.65,0-1.31.12c-.88.09-1.73.09-2.62.21-3.49.26-7.07.66-10.74,1.16-2.69.82-5.58-1.28-6.5-4.9a7.51,7.51,0,0,1,.93-6l-.76.06-1.26-.26a5.22,5.22,0,0,1-3.15-2.1l-1.13-1.38c-1.65-2.71-4-4.73-5.68-7.59V45.68l-.31-.29a6.08,6.08,0,0,1-2.17-2.78l-.22-1.4a13.29,13.29,0,0,1,.32-4.76,4.72,4.72,0,0,1-.11-1.75,6.89,6.89,0,0,1-1.34-4.49.94.94,0,0,1-.15-1.39,1,1,0,0,1,.47-.31h0a9.74,9.74,0,0,0-.72-.77c-.39-.05-.62-.1-.62-.1l-1.91-.09a5,5,0,0,1-1.44-.92C4,24.32,4,24.32,3.91,23.22A1.78,1.78,0,0,1,4,22.89c-.75-.22-.8-.24-1-.31a2.58,2.58,0,0,1-.41-.34c-.17-.57-.17-.57-.33-.76a2.3,2.3,0,0,1-.13-.42c.22-.72.22-.72.19-.91a1.67,1.67,0,0,1,.14-.35l.62-.45,1.28,1.29.09-.56.38.64-.27-.6.56.28L4.45,20a4.7,4.7,0,0,0,1.62-.13,2,2,0,0,0,.9-.28,2.05,2.05,0,0,1-.11-.33c1.26,0,1.27,0,2.51.08a3,3,0,0,1,.35.36.57.57,0,0,1,.53-.33h.65l.11-.11v-.05l.47-.38.1-.09h0c.67-.57,1.37-1.1,2.07-1.64a7.51,7.51,0,0,1,1.1.14A2.71,2.71,0,0,1,14.4,17c-.23-.17-.14-.75-.26-.78a20.21,20.21,0,0,0-4.36-.69c-1.47-.08-3-.14-4.46-.14a1,1,0,0,1-1.22-.49.87.87,0,0,1,.63-1.1C9.91,9.64,17.56,9,24,10.85l5,.43L28.69,11l1.31.37.14,0-1-1-.7-.27a32.89,32.89,0,0,1-5.68-.87c-1.88-.41-3.75-.84-5.68-1.14-2.08-.31-3.93-1-6-1.46A.81.81,0,0,1,10.18,6a.85.85,0,0,1,.89-.77C17.29,3.49,25,3.52,30.33,6.79a5.93,5.93,0,0,1,3.28.81h.06l-.76-.82c.89.17,1.39.89,2.2,1.17-.11-.36-.23-.78-.33-1.15,2.2.36,4.46.42,6.71.75a29.93,29.93,0,0,1,3.3.58A16.07,16.07,0,0,1,47.9,9.28a3.5,3.5,0,0,1,.46.14,19.68,19.68,0,0,1,2.76-.87l.72-.13a1.23,1.23,0,0,1,.23,0l1.24.1,2.5.22a104.48,104.48,0,0,1,10.44,1.68l-3.62-.86L59,8.85c-1.2-.23-2.41-.48-3.6-.63L52,7.72h.25l.49,0,1,.07,2,.16c1.31.08,2.64.29,4,.45,2.64.29,5.3.8,8,1.32a97.2,97.2,0,0,1,16.28,4.87,94.55,94.55,0,0,1,21.75,12.06A91.87,91.87,0,0,1,123,43.51a80.23,80.23,0,0,1,11,18.33c.67,1.45,1.19,2.94,1.69,4.37s1,2.76,1.32,4.12a54.65,54.65,0,0,1,1.54,7.36,75.59,75.59,0,0,1,3.37,24.08,86.23,86.23,0,0,1-3.94,22.92c-.58,1.74-1.1,3.56-1.74,5.22l-1.95,5c-1.37,3.15-2.77,6.33-4.25,9.24-2.92,5.92-6,11.41-8.84,16.55s-5.6,10.12-7.88,14.84a102,102,0,0,0-5.53,13.67,36.86,36.86,0,0,0-1.28,5.65c0,.24,0,.33,0,.45s0,.25,0,.38,0,.51,0,.76a8.92,8.92,0,0,0,1.12,4.31,7.87,7.87,0,0,0,2,2.2c.65.49,1.17,1,1.14,1.3s-.74.22-1.5-.29a8.35,8.35,0,0,1-3.17-3.51,10.64,10.64,0,0,1-1-4.78c0-.21,0-.43,0-.62a2.31,2.31,0,0,1,0-.4,4.66,4.66,0,0,1,.06-.49c.08-.66.2-1.35.33-2s.32-1.45.5-2.19l.31-1.13.4-1.24.78-2.46c.24-.82.63-1.68.93-2.51l1-2.53,1.13-2.58c3-6.91,7-14.07,11.22-21.85a201,201,0,0,0,12.14-25.77,173.46,173.46,0,0,1-10.69,21.62c-3.74,6.59-7.46,12.73-10.69,18.69a107.75,107.75,0,0,0-7.87,17.44,36.72,36.72,0,0,0-1.18,4c-.15.63-.3,1.27-.4,1.88s-.21,1.28-.25,1.61a14.47,14.47,0,0,0,.33,5.16,10.37,10.37,0,0,0,2.68,4.53,17.09,17.09,0,0,0,4.21,3.05,18.55,18.55,0,0,0,3.16,1c.44.11,1.32.31,2,.43s1.61.2,2.42.3a38.4,38.4,0,0,0,10.13-.37,45.25,45.25,0,0,0,10.14-3,51.91,51.91,0,0,0,9.49-5.32,53.41,53.41,0,0,0,15-16.32,71.6,71.6,0,0,0,8.56-22.33,83,83,0,0,0,1.52-10.45,88.38,88.38,0,0,0,.3-10.43c-.14-7-.93-14.35-1.8-22s-1.82-15.66-2.06-24.33c0-2.17-.11-4.35,0-6.6,0-1.13,0-2.24.1-3.39s.16-2.29.24-3.45.21-2.32.36-3.5.29-2.35.47-3.54l.69-3.59.36-1.81.48-1.81a73.39,73.39,0,0,1,3.33-10.08c.73-1.61,1.42-3.24,2.21-4.81l2.52-4.59a78,78,0,0,1,12.81-16,80.29,80.29,0,0,1,34.41-19.63,77.16,77.16,0,0,1,19.86-2.74,78.37,78.37,0,0,1,19.7,2.38,86.75,86.75,0,0,1,18.5,6.9,85.32,85.32,0,0,1,16.59,11c5.51,4.54,9.62,9.8,9.78,10.75.1.48-.74-.21-2.21-1.64s-3.67-3.52-6.34-5.8a86.51,86.51,0,0,0-36-18.87,79.17,79.17,0,0,0-20.57-2.35,74.44,74.44,0,0,0-20.64,3.36,79.15,79.15,0,0,0-34.73,22,73.55,73.55,0,0,0-11.88,17.34c-.73,1.62-1.49,3.23-2.17,4.87s-1.21,3.37-1.78,5.05l-1.37,5.08c-.37,1.7-.68,3.4-1,5.1a105.16,105.16,0,0,0-1.21,20c.17,6.48.75,12.74,1.38,18.82,1.27,12.12,2.76,23.62,2.21,34.35a93.16,93.16,0,0,1-2.18,16A78.9,78.9,0,0,1,167.58,179a63.06,63.06,0,0,1-8.19,13.22c-.78,1.05-1.66,1.93-2.49,2.88s-1.78,1.8-2.68,2.69a53.37,53.37,0,0,1-5.94,4.76,49.15,49.15,0,0,1-23.42,8.86c.12.08.22.15.24.24,0,.37-.69.84-2,1.15,9.36-.31,19-4,27.31-9.87,11-8.68,18.54-21.71,22.23-36.31a97.18,97.18,0,0,0,2.93-22.82c.06-7.92-.66-16.28-1.46-25.2-1-12.2-2.1-24.65-.5-37.36a77.26,77.26,0,0,1,4.7-18.73A69.43,69.43,0,0,1,188,45.69a75.57,75.57,0,0,1,17.24-16.91,73.6,73.6,0,0,1,21.66-10.6,72.1,72.1,0,0,1,24.12-3,78.63,78.63,0,0,1,23.67,4.93,13.4,13.4,0,0,1,2.83,1.25c.38.28-.27,0-1.49-.39a81,81,0,0,0-16.13-4.19c-1.39-.17-2.77-.43-4.18-.53l-4.22-.3a80.51,80.51,0,0,0-8.5.19,69.51,69.51,0,0,0-16.75,3.34,77.66,77.66,0,0,0-15.48,7.16c3.29-1.49,5.38-2,5.32-1.51,0,.27-.58.82-1.57,1.58-.5.38-1.1.81-1.8,1.28s-1.43,1.07-2.27,1.67c2.09-1.37,4.34-2.47,6.55-3.64,2.29-1,4.54-2.1,6.92-2.88A24.15,24.15,0,0,1,227.62,22c1-.2,1.56-.26,1.55-.13,0,.29-2.32,1-5,2.06a73.26,73.26,0,0,0-7,2.92c-2.22,1.18-4.47,2.31-6.58,3.7l-1.6,1c-.53.34-1,.73-1.55,1.09-1,.74-2.05,1.45-3,2.23l-2.91,2.42c-1,.8-1.84,1.73-2.77,2.58a65.23,65.23,0,0,0-9.62,11.7,61,61,0,0,0-6.69,13.69A75.07,75.07,0,0,0,179,83.05a122.88,122.88,0,0,0,.12,17.7c.86,11.64,2.67,22.94,3.44,34.17a30.9,30.9,0,0,1,.81-6.63h0c-.33-3.51-.72-7-1.11-10.52-1-8-2.12-16.17-2.38-24.5a99.86,99.86,0,0,1,.32-12.57c.25-2.11.43-4.22.87-6.32.21-1,.35-2.1.61-3.14l.8-3.12a29,29,0,0,1,1-3.09c.36-1,.68-2,1.08-3.06l1.3-3c.22-.49.42-1,.67-1.48l.77-1.43c.51-.95,1-1.91,1.55-2.85l1.75-2.73.89-1.36,1-1.3,2-2.59,2.14-2.44,1.08-1.22,1.15-1.14,2.31-2.28,2.47-2.12,1.23-1c.42-.34.87-.65,1.3-1l2.62-1.93c.89-.61,1.82-1.18,2.73-1.77a31.63,31.63,0,0,1,2.79-1.67l2.87-1.56c1-.49,2-.91,3-1.37,1.95-1,4-1.64,6.07-2.42a66.9,66.9,0,0,1,12.77-3,69.89,69.89,0,0,1,26,1.59A78,78,0,0,1,307.81,50.3a8.9,8.9,0,0,1,1.38,2.12,7.79,7.79,0,0,1-1.49-1.71,76.94,76.94,0,0,0-53.24-30.23h.08c.84.14,1,.27.05.26a30.27,30.27,0,0,1-3.27-.28c-1-.13-.88-.23-.08-.26a72.1,72.1,0,0,0-14.67.82,71.29,71.29,0,0,0-14.08,4,73.45,73.45,0,0,0-12.86,6.87,72,72,0,0,0-11.13,9.34c-.88.83-1.62,1.79-2.44,2.69l-1.19,1.36c-.4.46-.74,1-1.11,1.44-.73,1-1.48,1.92-2.17,2.91l-2,3.06c-.69,1-1.19,2.11-1.78,3.16a30.59,30.59,0,0,0-1.62,3.24l-1.45,3.33-1.18,3.43a68.84,68.84,0,0,0-2.86,14A96.4,96.4,0,0,0,180.35,94a103.71,103.71,0,0,1,.46-13c.29-2.17.5-4.35,1-6.5.23-1.08.37-2.17.68-3.23l.86-3.19a58.46,58.46,0,0,1,5.15-12.2A63.64,63.64,0,0,1,192,50.2c.62-.91,1.33-1.75,2-2.64A31.81,31.81,0,0,1,196.07,45l2.2-2.46c.77-.79,1.58-1.54,2.36-2.31l1.19-1.14c.4-.37.84-.71,1.26-1.07l2.52-2.12L208.27,34l1.33-1,1.4-.88,2.79-1.74,2.91-1.54c.49-.25,1-.52,1.46-.76l1.5-.67c1-.44,2-.91,3-1.32,2.07-.72,4.1-1.58,6.23-2.11a64.58,64.58,0,0,1,12.93-2.38,66,66,0,0,1,11.52-.33,14.08,14.08,0,0,1,2.85.41c.28.13-.5.1-1.58,0l-3.21-.19c6.64.42,11.49,2.19,11.26,2.64-.48.45-6-.48-12.65-.73a67.7,67.7,0,0,0-13.34.94,69.48,69.48,0,0,0-12.82,3.73,68,68,0,0,0-22.15,14.56c-1.4,1.33-2.6,2.83-3.86,4.28a28,28,0,0,0-1.71,2.34c-.54.79-1.11,1.57-1.63,2.38a66.84,66.84,0,0,1,32.59-23.91c12.92-4.51,27.15-4.16,40-.15.56.16,1.09.32,1.58.48s.91.37,1.27.53c.73.33,1.17.58,1.16.67s-.46,0-1.18-.17c-.37-.1-.8-.23-1.27-.38l-1.57-.43a63.14,63.14,0,0,0-64.4,17.56,59.43,59.43,0,0,0-9.92,14.23,57,57,0,0,0-5.17,16.46c-1.85,11.54-.71,23.56.74,35.7,1.38,7.94,2.94,16,3.91,24.41a120.88,120.88,0,0,1,.89,12.89,108.91,108.91,0,0,1-.58,13.22c.17-1.11.38-2.22.52-3.34s.26-2.24.4-3.37a117.65,117.65,0,0,0,.09-21c-.52-6.73-1.42-13.17-2.29-19.41-1.75-12.45-3.41-24.26-2.39-35.65a58.08,58.08,0,0,1,3.77-16.42A55.42,55.42,0,0,1,201.38,49a61.78,61.78,0,0,1,29.27-19.71,9.15,9.15,0,0,1,2.36-.53c.15.05-.63.39-1.81.74A61.45,61.45,0,0,0,202.71,48.2a56.57,56.57,0,0,0-8.85,14.08l-.78,1.92a18.84,18.84,0,0,0-.73,1.94c-.39,1.33-.87,2.62-1.2,4s-.66,2.73-.91,4.13-.47,2.81-.63,4.24a86.23,86.23,0,0,0-.35,14.38c.23,4.81.78,9.63,1.44,14.48,1.29,9.68,3.08,19.44,4,29.59-.65-10.4-2.27-20.18-3.41-29.63-.59-4.73-1.06-9.36-1.27-13.92-.15-2.29-.12-4.53-.15-6.79s.14-4.46.41-6.63A56,56,0,0,1,193,67.27a50.92,50.92,0,0,1,5.59-11.65,58.81,58.81,0,0,1,8.34-10.22,65.49,65.49,0,0,1,10.57-8.25,31.68,31.68,0,0,1,3.69-1.91,2,2,0,0,1,.73-.52,53.86,53.86,0,0,1,13.44-5.38,11.09,11.09,0,0,1,2.66-.45C238.48,28.92,237.91,29,236.88,29.35ZM24.15,22.55,24,22.36l.58.31.9,1.31S24.8,23.27,24.15,22.55Zm-8.63,6.3h0L15,28.14C15.19,28.44,15.37,28.66,15.52,28.85ZM118.93,156.7c2.55-4.59,5.21-9.29,7.76-14.36,1.3-2.47,2.51-5.14,3.73-7.78.61-1.31,1.15-2.75,1.72-4.12s1.15-2.76,1.63-4.25l1.49-4.39c.44-1.52.84-3.06,1.25-4.6.19-.77.41-1.53.59-2.32l.44-2.41c.28-1.61.63-3.2.82-4.84a76.67,76.67,0,0,0-.13-20.24,74.14,74.14,0,0,1,.87,19.81,37.44,37.44,0,0,1-.57,3.72l-.68,3.68c-.53,2.4-1.22,4.71-1.85,7.06s-1.53,4.47-2.34,6.66-1.74,4.24-2.67,6.27A231.54,231.54,0,0,1,118.93,156.7ZM17,18.09a11.47,11.47,0,0,1,2.57,2.24,5.24,5.24,0,0,1,1.76-.39,33,33,0,0,1,4.88.07c-.25-.47.13-.44.32-.51l.59-.17c-1.72-.19-3.47-.49-5.23-.68C20.29,18.47,18.56,18.42,17,18.09ZM5.7,22l-.18-.15L5.67,21S5.69,21.43,5.7,22Zm-.21,1.33.26.05C5.72,23.63,5.63,23.55,5.49,23.29Zm2.33.46a1.46,1.46,0,0,0-.38-.33Zm5.79,21.06,0-3.77-.12,3.64Z"/><path d="M88,89.78c0,.17,0,.35,0,.52-.3,0-.52-.17-.69-.5.49,4.7,5.17,6.23,9,5.63a1.74,1.74,0,0,0,2.65-.34,2.35,2.35,0,0,0,0-3,3.16,3.16,0,0,1-.23-.78,20.37,20.37,0,0,0-1.27-6.66c0,.53.09,1.08.13,1.61a4.4,4.4,0,0,0-.81-1.65l-.25.67a3.78,3.78,0,0,0-1.64-2.78,3.41,3.41,0,0,0-3.13-.23,6.14,6.14,0,0,0-3.87,6.28Z"/><path d="M86.42,97.87a36.1,36.1,0,0,1-1.14-4.38l.1-.49-1.13,1.52.09-.08a7.42,7.42,0,0,1,5.06,1l.61.17a1.43,1.43,0,0,0,1-.44,1.8,1.8,0,0,0,.27-2.26l-.54-.72c-1-2.23-3.18-4.6-6.14-3a6.69,6.69,0,0,0-1.64,2,2.31,2.31,0,0,0-.22,3.13,1.92,1.92,0,0,0,2.88-.18c.08.2.16.4.25.59-.21,0-.4,0-.6,0,.9-.63,1.81-.18,2.71-.14l1,.5,1.29-2.7-.65-.08c-.05.13-.1.33-.11.33a13.1,13.1,0,0,1-3.72-.59L84,91.86a1.54,1.54,0,0,0-1.15,1.5l.09,1v-.5c.37.79.79,1.55,1.22,2.31s.9,1.48,1.29,2.27a.47.47,0,0,0,.68.23A.62.62,0,0,0,86.42,97.87Z"/><path d="M82,94.44c-.05-.34-.07-.69-.37-.9l-.27.07,0,.73C81.45,94.86,81.76,94.77,82,94.44Z"/><path d="M81.37,93.61l0-.3c0,.11,0,.21-.07.31h0Z"/><path d="M162.18,126.17a112,112,0,0,0,24.19,1.4c.27,0,.49-.12.49-.24s-.23-.2-.48-.17a111.53,111.53,0,0,1-24.08-1.47c-.26,0-.49,0-.53.16S161.94,126.12,162.18,126.17Z"/><path d="M225.82,128.65c-.16.15-.11.24.12.22a1.26,1.26,0,0,0,.66-.29c.14-.13.08-.24-.11-.22A1.32,1.32,0,0,0,225.82,128.65Z"/><path d="M227.05,136.64a30.19,30.19,0,0,0-3.13,2,1.46,1.46,0,0,1-.57.23c.13.13,0,.37-.46.6-8.13,4.77-17.68,8.41-27.36,11.36a1,1,0,0,1-.34.53,6.33,6.33,0,0,1-3.39,1.32l-1.1.1c-4.42.55-8.84.94-13.26,1.09a13.07,13.07,0,0,1-3.07.71,106.3,106.3,0,0,1-11.68,2.32c.25.15.39.32.39.52-.09.45-1,.81-2.12.8l-1.65,0,4.72.31a4,4,0,0,1,.62,0c1.73-.07,3.48-.16,5.25-.3A116.15,116.15,0,0,0,192,154a144.31,144.31,0,0,0,20.09-7.65,1.4,1.4,0,0,1,.76-.2c.15,0,.17.17-.06.3-2,1.11-3.86,2.27-5.77,3.41s-3.84,2.23-5.83,3.31-4.05,2.12-6.25,3.09c-1.1.48-2.23.95-3.4,1.41s-2.37.91-3.64,1.29l-4.51,1.42-4.58,1.25c-1.53.43-3.07.78-4.63,1.13s-3.12.73-4.7,1a156.12,156.12,0,0,1-19.5,2.53c-6.94-.22-13.66-.56-20.48-1.08a204.91,204.91,0,0,1-20.87-2.79,148.71,148.71,0,0,1-15.59-3.93,134.17,134.17,0,0,1-24.47-9.77,9.59,9.59,0,0,1-4.75-4,5.72,5.72,0,0,1-.25-5.19,6.41,6.41,0,0,1,5.32-3.33l-.87-.59-1.18-1.24a5.86,5.86,0,0,1-1.67-4.1l0-1.88c.48-3.19,0-6.51,1-9.63l.93-.74v-.43a5.51,5.51,0,0,1,.62-3.53l1-1a14.2,14.2,0,0,1,3.89-2.69,4.94,4.94,0,0,1,1.26-1.2,7,7,0,0,1,2.59-3.85,1,1,0,0,1,1-1,.94.94,0,0,1,.49.15h0c.09-.41.11-.53.18-1-.17-.31-.26-.51-.26-.51-.51-.78-.51-.78-.93-1.47a4.53,4.53,0,0,1,0-1.61c1.1-2.41,1.11-2.41,1.89-3.17.1-.06.21-.1.31-.15-.18-.65-.19-.7-.23-.89a2.5,2.5,0,0,1,.08-.5c.37-.46.37-.46.44-.68a2.4,2.4,0,0,1,.27-.36c.65-.29.65-.29.78-.42a1.6,1.6,0,0,1,.34-.13l.61.15-.42,1.68.46-.28-.31.65.33-.56,0,.57,0-.74c.53.81.53.81.82,1a1.23,1.23,0,0,0,.61.44,2.44,2.44,0,0,1,.19-.28l1.13,1.7a3.29,3.29,0,0,1-.08.47.42.42,0,0,1,.5.13l.31.42H85l0,0,.51,0h.11l2.16.19a7,7,0,0,1,.47.78,2.43,2.43,0,0,1,0-.38c0-.27.43-.61.4-.71a18.71,18.71,0,0,0-1.62-3.19c-.31-.5-.63-1-1-1.46l-.91-1.5a.83.83,0,0,1-.13-1.12.76.76,0,0,1,1.05-.29,10.72,10.72,0,0,1,1.82.42,11.36,11.36,0,0,1,1.71.65,12.94,12.94,0,0,1,3,2,20.41,20.41,0,0,1,4.54,6c.81,1,1.64,1.91,2.53,2.78v-.33l.56.89.08.07-.09-1.23L100,102a14.74,14.74,0,0,1-2.57-3.47l-1.07-1.91c-.34-.65-.67-1.3-1-1.93a26.9,26.9,0,0,1-1.67-4.36.82.82,0,0,1,.12-1,.55.55,0,0,1,.86,0,19.08,19.08,0,0,1,8.22,10.93,3.86,3.86,0,0,1,1.41,2.09l0,0c0-.33,0-.65,0-1,.39.54.35,1.29.69,1.84.11-.35.23-.71.35-1.06a44.87,44.87,0,0,0,3.61,3.12,14.2,14.2,0,0,1,3.33,3.49,2,2,0,0,1,.26.24,7.76,7.76,0,0,1,4.84.94c-.65-.47-1.3-1-1.91-1.44a21.45,21.45,0,0,1,4.83,1.79c.54.29,1.08.61,1.61,1s1.09.65,1.62,1a37,37,0,0,1,3.05,2.31,18.53,18.53,0,0,1,4.45,5,129.93,129.93,0,0,0,14.25,3.9,118.05,118.05,0,0,0,14.6,2.12c.51,0,1,.25,1,.52s-.31.46-.83.44a96.58,96.58,0,0,1-21.43-2.54,91.33,91.33,0,0,0,18,4.82L159,129a17.59,17.59,0,0,1,2.38.38,98.76,98.76,0,0,0,24.11-.09,126.35,126.35,0,0,0,19.88-4.5c4.73-1.49,9.19-3.08,13.56-4.83s8.71-3.55,13.22-5.48c1.17-.58,2.43-.78,2.79-.45s-.31,1.08-1.49,1.69a150.12,150.12,0,0,1-14,6.62c-2.37,1-4.82,1.87-7.24,2.79s-4.91,1.68-7.43,2.34a109.66,109.66,0,0,1-15.39,3.32,94.54,94.54,0,0,1-16,1l-3.48-.09-3.43-.23a.82.82,0,0,1,.06.26,1.17,1.17,0,0,1-.6.91l3.93.34,4,.26c7.35-.74,14.59-1.91,22.42-2.8l4-.45c1.3-.13,2.59-.25,3.86-.43l3.81-.43,3.78-.58a169.17,169.17,0,0,0,17.85-7.23.9.9,0,0,1,.61-.16c.13,0,0,.19-.18.32-1.91,1.18-3.94,2.18-6,3.27s-4.14,2-6.29,2.92c.81.07,1.37.32,1.47.75s-.29,1-1,1.56l1.53-.48,1.51-.55c.63-.21,1.18-.23,1.24,0s-.35.59-.94.8c-1,.4-2.07.76-3.11,1.08l-3.13,1c-2.1.65-4.21,1.22-6.32,1.81a149.27,149.27,0,0,1-15.25,4,3.32,3.32,0,0,1,1.73,1h0l2.41-.48a243.53,243.53,0,0,0,42.35-16.91c.27-.14.52-.19.58-.11s-.12.26-.37.37c-4.15,2.11-8.3,4.19-12.55,6h0c.2,0,.28.07.12.22a1.61,1.61,0,0,1-.67.29c-.22,0-.25-.1-.12-.22a243.16,243.16,0,0,1-24,9.1,203.89,203.89,0,0,0,22.58-7.13L228,128.4a1,1,0,0,1,.64-.13c.1,0,0,.21-.23.33l-.63.37c1.39-.55,2.62-.63,2.82-.15s-.88,1.42-2.33,2c-3.82,1.79-7.73,3.33-11.7,4.73-.42.19-.84.37-1.26.53l-1.23.67a162.13,162.13,0,0,0,18.54-6.5c.5-.26,1-.34,1.09-.18s-.25.51-.76.77a155.45,155.45,0,0,1-15.81,7.6,153.32,153.32,0,0,1-16.88,5.65l-5.51,2.64c-1.87.86-3.78,1.67-5.72,2.52l1.53-.25a79.77,79.77,0,0,0,17.89-5.62c5.57-2.34,10.89-5,16.56-7.62.28-.14.56-.16.63-.09s-.09.25-.39.37c-2.74,1.38-5.4,2.61-8,4s-5.34,2.58-8.22,3.71c-4.74,2-9.37,3.57-13.93,5.3,9.56-2.29,18.24-6.08,27-10a2.64,2.64,0,0,1,1.07-.3c0-.06.07-.13.17-.21a37,37,0,0,1,3.29-2.07,1,1,0,0,1,.69-.18C227.39,136.33,227.29,136.48,227.05,136.64ZM90.39,109.26V109l.2.55-.18,1.49Zm-9.58-.88h0l.15-.86Zm63.31,18.44a51.38,51.38,0,0,1-12.37-4.63c1,.27,2,.61,3.05.83,1.53.63,3,1.32,4.61,2Zm-55.19-25a13.19,13.19,0,0,1,0,3.14,3.54,3.54,0,0,1,1.28.76,34,34,0,0,1,3,2.76c.12-.49.34-.26.5-.22l.46.2c-1-1.1-1.89-2.22-2.81-3.38A23.93,23.93,0,0,1,88.93,101.81Zm-8.45-4.74,0-.22.66-.39Zm-1.1.69c0,.06.05.13.08.21C79.23,98.13,79.25,98,79.38,97.76Zm.78,1.94a1.54,1.54,0,0,0,0-.48ZM67.75,117.42,70.68,115l-2.9,2.22Z"/><path d="M319,87.16l-.34-.34c.12-.25.37-.29.69-.22a4.29,4.29,0,0,0-5-.41,4.9,4.9,0,0,0-1.05.72,8.08,8.08,0,0,0-.91,1,9.26,9.26,0,0,0-1.33,2.43c-.88.11-1.29,1.25-.93,2.4a2.3,2.3,0,0,0,2.13,1.84,2.18,2.18,0,0,1,.64.29,16,16,0,0,0,2.54,1.81c.42.25.83.43,1.24.65s.83.41,1.24.58L316.87,97a2.79,2.79,0,0,0,1.42.37l-.32-.62a2.33,2.33,0,0,0,2.47.38A3.16,3.16,0,0,0,322,94.83c.59-2.47-.18-5.64-2.13-7Z"/><path d="M314.19,80.85a24.1,24.1,0,0,1,3.71,1.83l.29.39-.45-1.85v.12a7.2,7.2,0,0,1-3.35,3.43l-.43.38a1.64,1.64,0,0,0-.17,1.07,1.81,1.81,0,0,0,1.45,1.64H316c2,.58,4.66.36,5.17-3a7.75,7.75,0,0,0-.42-2.53,2.16,2.16,0,0,0-2-2.15,1.87,1.87,0,0,0-1.45,2.37c-.18-.06-.37-.13-.54-.17.09-.19.19-.34.28-.51,0,1.09-.83,1.56-1.33,2.26l-.86.51,1.24,2.72.38-.48c-.07-.12-.18-.28-.18-.29.36-.49.7-1,1.08-1.45A7.17,7.17,0,0,1,318.61,84l1.09-1.25a1.71,1.71,0,0,0-.4-1.86l-.71-.53.34.32c-.75-.21-1.52-.36-2.29-.51s-1.54-.2-2.33-.39a.42.42,0,0,0-.53.41A.65.65,0,0,0,314.19,80.85Z"/><path d="M319,79.51c.27.19.53.39.84.28.06-.14.08-.22.1-.25l-.53-.43C319.06,78.81,318.94,79.11,319,79.51Z"/><path d="M320,79.54l.22.18-.17-.26,0,0Z"/><path d="M304.53,209.15a77.74,77.74,0,0,0,35.07,6.48,66.39,66.39,0,0,0,17.28-3.29,68,68,0,0,0,16-7.89c.69-.43,1.18-.9,1.13-1s-.6.19-1.23.58a66.89,66.89,0,0,1-15.85,7.85,65.46,65.46,0,0,1-17.11,3.29A73.88,73.88,0,0,1,322.13,214,81.69,81.69,0,0,1,305,208.79a3.24,3.24,0,0,0-1.55-.4C303.36,208.51,303.84,208.84,304.53,209.15Z"/><path d="M400.8,101.67c.4.54.48.46.19-.18a11.78,11.78,0,0,0-1.25-2c-.36-.44-.45-.35-.18.18A13.92,13.92,0,0,0,400.8,101.67Z"/><path d="M410.88,103.23c2.18,3.71,4,7.38,5.63,10.69a13.71,13.71,0,0,1,.71,1.91c.06-.29.53.42,1.1,1.89a91.56,91.56,0,0,1,5.92,23.07,90.08,90.08,0,0,1-.49,24.79c-.27,2.09-.77,4.12-1.16,6.2l-.77,3.06c-.25,1-.51,2-.85,3-.67,2-1.21,4.1-2,6.07s-1.51,4-2.46,5.93a96.89,96.89,0,0,1-13.71,21.77,4.29,4.29,0,0,1-.62,1.41,37.56,37.56,0,0,1-3.17,4.1c-.69.81-1.54,1.59-2.4,2.43s-1.76,1.7-2.75,2.48l-3,2.32A96.07,96.07,0,0,1,371,236.05a90.6,90.6,0,0,1-22,6.44c-.76.2-1.54.43-2.37.6l-2.56.47-2.72.45c-.94.11-1.9.19-2.88.27a106.06,106.06,0,0,1-39.76-2.72c.77.4,1.21.73,1.14.92-.37.37-3.55-.14-7-1.39-1.75-.65-3.53-1.23-5.25-1.94a122.71,122.71,0,0,0,15.19,5.36c.75.2,1.44.41,2.06.61a109.66,109.66,0,0,0,17.83,2.72,99.56,99.56,0,0,0,39.22-5.11,95.32,95.32,0,0,0,32.94-19.66,104.54,104.54,0,0,0,12.54-13.86,103.37,103.37,0,0,0,9.52-15.78,98.65,98.65,0,0,0,6.24-17.09A96.15,96.15,0,0,0,426,158.69a17.5,17.5,0,0,1,.27-2.68c.12-.45.25-.36.23.52a100.83,100.83,0,0,1-2.74,22,93.79,93.79,0,0,1-7.58,21,96.54,96.54,0,0,1-13,19.58,95.4,95.4,0,0,1-19.34,17.25c-1.11.81-2.31,1.48-3.48,2.21s-2.33,1.47-3.56,2.11c-2.44,1.29-4.87,2.64-7.44,3.73a100.61,100.61,0,0,1-15.8,5.61,110,110,0,0,1-33.14,3.35,121.37,121.37,0,0,1-16.57-1.94l-4.09-.87-2-.44-2-.54-4-1.09-4-1.28c-2.69-.82-5.27-1.9-7.91-2.89-1.31-.53-2.59-1.11-3.88-1.67s-2.59-1.12-3.85-1.77l-3.8-1.9c-1.27-.64-2.49-1.37-3.74-2.06-2.48-1.37-4.94-2.88-7.37-4.47a121.9,121.9,0,0,1-26.68-25.17A102.15,102.15,0,0,1,220.13,191a93.48,93.48,0,0,1-7.06-18.8,102.91,102.91,0,0,1-2-39.31,126.77,126.77,0,0,1,25.06-59.4A128.12,128.12,0,0,1,254.2,54.32c.81-.75,1.69-1.41,2.55-2.11l1.29-1,.29-.25,1-.84c.63-.55,1.27-1.11,1.92-1.65,1.34-1,2.68-2,4-3l2.05-1.49c.69-.49,1.41-.93,2.12-1.39q2.15-1.36,4.32-2.7c1.46-.88,3-1.64,4.5-2.46s3-1.64,4.63-2.32a11.63,11.63,0,0,1,6.94-1.53,6.27,6.27,0,0,1,4.8,3,6.2,6.2,0,0,1-.72,6.39l1.11-.35,1.88-.19a6.59,6.59,0,0,1,4.66,1.2l1.62,1.17c2.39,2.41,5.45,4.13,7.31,6.9l0,1.2.35.27a5.53,5.53,0,0,1,2.41,2.77l.18,1.41A14.36,14.36,0,0,1,313,62a5,5,0,0,1,.13,1.75,7.18,7.18,0,0,1,1.35,4.48,1,1,0,0,1,.18,1.38.84.84,0,0,1-.41.29h0a10,10,0,0,0,.65.79c.34.07.53.13.53.13.89.1.89.1,1.65.21a4.51,4.51,0,0,1,1.19,1c1.09,2.39,1.07,2.4,1.15,3.49a2.72,2.72,0,0,1-.07.33c.57.28.6.3.76.39a2.41,2.41,0,0,1,.3.38c.11.58.11.58.23.77a2.9,2.9,0,0,1,.08.44c-.17.69-.17.69-.15.88a2.86,2.86,0,0,1-.1.34l-.45.39-.94-1.39-.06.54-.28-.66.2.62-.42-.33.5.49c-.86-.1-.87-.1-1.19,0a1.11,1.11,0,0,0-.66.19,2.69,2.69,0,0,1,.1.33c-.93-.1-.93-.13-1.84-.18q-.17-.18-.3-.36a.36.36,0,0,1-.36.32h-.48l-.07.11v0l-.3.38-.06.09h0l-1.28,1.62a5.4,5.4,0,0,1-.82-.12,3.15,3.15,0,0,1,.29.22c.2.17.23.73.32.77a15.29,15.29,0,0,0,3.14.69c.51.06,1,.1,1.52.14l1.53.24c.32-.11.7.17.84.61a.82.82,0,0,1-.36,1A9.55,9.55,0,0,1,317.8,86a10.8,10.8,0,0,1-1.3,1,9.25,9.25,0,0,1-2.88,1.13,15.44,15.44,0,0,1-6.54.08,21.4,21.4,0,0,0-3.27.44l.26.19-.94,0H303l1,.66a4.71,4.71,0,0,0,.52.09,10.77,10.77,0,0,1,3.76-.06c.64.08,1.26.15,1.89.27s1.26.25,1.87.34a15.88,15.88,0,0,1,3.82,1.32c.28,0,.56.31.64.72s-.1.72-.37.72a13.74,13.74,0,0,1-11.43.19,2.9,2.9,0,0,1-2.2-.06h0l.79.58c-.58,0-1.16-.49-1.73-.51.23.3.47.63.7.92-1.32.3-2.59.82-3.9,1.26a10,10,0,0,1-4.13.89,2.84,2.84,0,0,1-.31.06A15.67,15.67,0,0,1,293.2,98c-.08.14-.15.28-.23.41a.59.59,0,0,1-.08.11l-.45.36-.9.71c-1.21,1-2.39,2.06-3.7,3.07l2.75-1.91A14.45,14.45,0,0,1,292,99.8l1.35-.8s-.17.15-.26.23l-.34.28-.69.57c-.48.36-.89.79-1.34,1.19-.86.83-1.79,1.58-2.66,2.41s-1.74,1.69-2.66,2.52-1.74,1.79-2.67,2.67a110.49,110.49,0,0,0-13.37,16.32c-3.91,5.55-6.7,10.88-9,14.28a56.36,56.36,0,0,0-1.28,20,42.93,42.93,0,0,0,2.22,9.19,50,50,0,0,0,4.25,8.88,67.46,67.46,0,0,0,13.81,16.11,78,78,0,0,0,8.94,6.66,88.45,88.45,0,0,0,9.81,5.54,7,7,0,0,1,2.73,1.78c0,.32-1,.11-2.42-.53a89.4,89.4,0,0,1-14.33-8,78.77,78.77,0,0,1-12.33-10.47c-7.33-7.74-12.49-16.76-14.42-26.05a52.11,52.11,0,0,0,10,23.08,78.35,78.35,0,0,0,20.84,19.07l3.25,1.88c1.08.63,2.22,1.15,3.33,1.74s2.21,1.12,3.31,1.66,2.19,1.15,3.32,1.64c22.95,9.73,48.89,9.8,69.7-4a73.66,73.66,0,0,0,21.25-21.68,72.31,72.31,0,0,0,6.53-13.41,69.29,69.29,0,0,0,2.25-7.32c.27-1.27.63-2.52.83-3.81s.49-2.57.64-3.89c2-14.67-.75-29.11-6.84-42.23a84.41,84.41,0,0,0-5.16-9.5c-.95-1.51-1.95-3-2.94-4.32-.49-.66-1-1.33-1.26-1.6l-1.76-1.92a68.78,68.78,0,0,0-17-12.93c-3.46-1.84-6.76-3.54-7-4.14s2.59.06,6.25,1.83a69.61,69.61,0,0,1,19.06,13.38c.69.67,1.33,1.4,2,2.09a9,9,0,0,1,.73.81c.26.32.54.67.82,1,1.14,1.48,2.27,3.12,3.34,4.78a86.23,86.23,0,0,1,5.73,10.53,80.65,80.65,0,0,1,6.65,22.83,72.33,72.33,0,0,1-.72,23.57l-.28,1.46-.35,1.46c-.24,1-.42,1.94-.73,2.9l-.85,2.88-1,2.79c-.6,1.89-1.5,3.67-2.25,5.51-.4.9-.9,1.77-1.33,2.66s-.87,1.79-1.41,2.63a72.87,72.87,0,0,1-15.1,18.58,71.56,71.56,0,0,1-20.42,12.75c-.93.39-1.88.7-2.82,1.05l-1.42.52c-.48.17-1,.28-1.45.43l-2.89.84-3,.66c-.5.1-1,.23-1.49.32l-1.51.23c-1,.14-2,.33-3,.45-2,.17-4.06.44-6.13.44a80,80,0,0,1-21-2.06c.07.11.14.22.12.31-.07.36-.79.53-2,.54a89.59,89.59,0,0,0,12,2.21c2,.16,4.05.43,6.08.44,1,0,2,.12,3.05.09l3.05,0a73.74,73.74,0,0,0,31.76-10.42,81,81,0,0,0,25.16-23.95c.56-.87,1.11-1.73,1.65-2.59.27-.43.57-.85.82-1.29l.74-1.33,1.48-2.64,1.29-2.69.66-1.34c.21-.45.38-.92.57-1.37.37-.92.75-1.83,1.12-2.73s.66-1.87,1-2.8l.49-1.4.41-1.41a73.17,73.17,0,0,0,2.55-11.42,74.56,74.56,0,0,0,.78-11.69,82.7,82.7,0,0,0-7.53-28.95,88.79,88.79,0,0,0-7.45-13.14c-.71-1-1.44-2-2.17-3-.35-.45-.78-1-1-1.21l-1.25-1.33A68.75,68.75,0,0,0,384.08,90a8.89,8.89,0,0,1-1.4-1.32c-.16-.25.23-.05.87.45A71.06,71.06,0,0,1,391.2,96l.33.37.39.45.79,1c.54.68,1.07,1.37,1.59,2.09,1.05,1.42,2,2.91,3,4.43a87.63,87.63,0,0,1,9.28,19.72c-.36-2.3-.41-3.76.07-3.73s1.5,1.61,2.56,4.23a92.35,92.35,0,0,0-3.31-9.7c-.8-2-1.34-3.55-1.11-3.59s1.13,1.4,1.9,3.28a83.6,83.6,0,0,1,6,41.11,81.69,81.69,0,0,1-6.05,24.26A82.85,82.85,0,0,1,401,191.1a83.94,83.94,0,0,1-7.48,10.15,22.44,22.44,0,0,1,4.13-3h0c1.68-2.06,3.09-4.3,4.56-6.48a86,86,0,0,0,11.3-34.2,84.89,84.89,0,0,0-4-35.89A94.93,94.93,0,0,0,402.08,105a89.37,89.37,0,0,0-4.89-7.74c-.88-1.24-1.8-2.47-2.72-3.57l-.31-.37-.39-.41-.78-.83c-.53-.54-1-1.12-1.58-1.64a80.23,80.23,0,0,0-31.05-19,4.91,4.91,0,0,1-1.65-.72,3.88,3.88,0,0,1,1.58.34,84.11,84.11,0,0,1,20,9.82A73.25,73.25,0,0,1,389,87.67c.71.59,1.35,1.26,2,1.9l1,1,1,1,.94,1,.48.5.39.47c.56.67,1.13,1.39,1.67,2.12l0,0c-.3-.51-.28-.67.17-.19A12.36,12.36,0,0,1,398,97.27c.32.61.19.62-.17.19a93.74,93.74,0,0,1,15.48,38A84.3,84.3,0,0,1,409.85,176a85.92,85.92,0,0,0,4.43-18.49,85,85,0,0,0,.13-19,92.91,92.91,0,0,0-11.94-36c-1.52-2.33-3.13-4.59-4.87-6.79A11,11,0,0,1,396.48,94c-.07-.22.36.15.84.76s1,1.22,1.45,1.84c-1.37-2-2.57-3.76-3.43-4.93s-1.37-2.07-1.16-2.22,1.23.55,2.54,1.7a32.79,32.79,0,0,1,4.2,5.12A93.7,93.7,0,0,1,416.34,134c.28,1.46.48,2.93.71,4.4s.49,3,.64,4.45a91,91,0,0,0-7.19-31.17,96.68,96.68,0,0,0-7.43-14.23,72.45,72.45,0,0,0-4.65-6.58A79.48,79.48,0,0,0,392.86,85c-1.37-1.23-2.47-2.37-2.37-2.54s1.32.7,2.72,1.93l2.63,2.43,2.52,2.55a62.26,62.26,0,0,1,4.54,5.7,97.09,97.09,0,0,1,7.45,12.29,95.14,95.14,0,0,1,9.14,27.42,89.09,89.09,0,0,1,1.21,14.61,88.17,88.17,0,0,1-1.28,14.67,84.91,84.91,0,0,1-3.67,14.31c-.72,2.37-1.77,4.62-2.69,6.93-.5,1.13-1.07,2.24-1.61,3.36s-1.08,2.24-1.72,3.3a92.26,92.26,0,0,1-24.4,31.65l2.14-1.52,2.06-1.65a87.51,87.51,0,0,0,31.09-53.28,92.23,92.23,0,0,0,.28-29.84,102.14,102.14,0,0,0-9.12-28.81,6.72,6.72,0,0,1-.73-1.9c0-.14.43.45.88,1.4a102.24,102.24,0,0,1,9.28,28,89.39,89.39,0,0,1,.18,29.84,90.89,90.89,0,0,1-2.9,12.35c-.32,1-.63,2-.94,3s-.74,2-1.1,2.94-.74,2-1.14,2.92-.86,1.89-1.28,2.84a98.32,98.32,0,0,1-13,20.84,90.29,90.29,0,0,0,13.54-20.54,92.64,92.64,0,0,0,7.43-23,91.69,91.69,0,0,0,1.38-11.9c.16-2,.11-4,.14-6s-.11-4-.3-6a96.25,96.25,0,0,0-4.81-23.32,35,35,0,0,1-1.09-3.51,2.28,2.28,0,0,1-.4-.69c-1.64-3.63-3.55-7.5-5.71-11.32a12.38,12.38,0,0,1-1-2.11C410.05,102,410.38,102.43,410.88,103.23ZM303.47,77.08l.19.14-.54-.16L302,76S302.75,76.52,303.47,77.08Zm6-7.32h0l.57.67Zm-47.9,108.5a46.49,46.49,0,0,1-5.67-17.08,50.29,50.29,0,0,1,1.2-18.08,56.14,56.14,0,0,0-.72,8.88c-.12,1.14-.1,2.26-.15,3.39s0,2.26.09,3.36a47.89,47.89,0,0,0,.81,6.58A53,53,0,0,0,261.54,178.26ZM310,80.43a14.52,14.52,0,0,1-2.38-1.92,3.29,3.29,0,0,1-1.26.58,32.91,32.91,0,0,1-3.67.81c.34.4,0,.45-.07.55l-.38.27c1.34-.14,2.69-.24,4-.32A20.08,20.08,0,0,1,310,80.43Zm8.08-3.78.14.16-.1.76Zm.14-1.3-.2-.07C318,75,318.09,75.09,318.19,75.35Zm-1.85-.64a1.67,1.67,0,0,0,.31.35Zm-5.91-21v3.82l.11-3.69Z"/></g></g></svg>