<svg xmlns="http://www.w3.org/2000/svg" viewBox="0 0 311.26 267.76"><g id="Layer_2" data-name="Layer 2"><g id="Layer_1-2" data-name="Layer 1"><path d="M5,32.05l.51.29a1.31,1.31,0,0,1-1.13.36,11,11,0,0,0,7.75,0,18.93,18.93,0,0,0,6.63-4.08,2.56,2.56,0,0,0,2.64-2.3,2.4,2.4,0,0,0-2.72-2.14,4.29,4.29,0,0,1-1-.35,20.83,20.83,0,0,0-8.31-3.13l1.89.83a7.94,7.94,0,0,0-2.71-.24l.44.62a7.59,7.59,0,0,0-4.87,0A6.18,6.18,0,0,0,.55,24.77c-1.43,2.7,0,5.71,3.08,6.76Z"/><path d="M11.33,38.19C9.62,37.67,8,37.09,6.25,36.5l-.39-.36L6.35,38v-.12C7.44,36,9.68,35,11.79,34.17l.74-.39a1.53,1.53,0,0,0,.54-1.1A1.71,1.71,0,0,0,11.2,31c-.41,0-.81,0-1.22,0a10.62,10.62,0,0,0-5.16.33A5.05,5.05,0,0,0,1.38,34.8c-.18.8.35,1.66.62,2.49a2.46,2.46,0,0,0,2.88,1.9,2.49,2.49,0,0,0,2.25-2.62l.78.13-.48.54c.18-1.14,1.42-1.62,2.28-2.36l1.4-.55L9.76,31.59l-.7.51a2.11,2.11,0,0,1,.22.29,29.53,29.53,0,0,1-4,2.88L3.59,36.72a1.29,1.29,0,0,0,.51,1.84l1,.44-.46-.29c2.1.22,4.28.25,6.35.59a.69.69,0,0,0,.8-.42A.56.56,0,0,0,11.33,38.19Z"/><path d="M4.45,39.9a1.53,1.53,0,0,0-1.17-.18L3.14,40l.73.36C4.4,40.61,4.56,40.29,4.45,39.9Z"/><path d="M3.14,40l-.31-.15.24.23,0,0Z"/><path d="M112.62,225.83c.38.15.78.26,1.17.38.23,0,.35.11.65.18s.66.17,1,.23.66.15,1,.2l1.14.14,1.14.16,1.17.06a36.83,36.83,0,0,0,9.61-.75,45.83,45.83,0,0,0,18.77-8.89,49.18,49.18,0,0,0,7.73-7.47,58.84,58.84,0,0,0,6.32-9.29,73.82,73.82,0,0,0,7.74-22.29,4.38,4.38,0,0,0,.12-2.05c-.11-.07-.31.76-.51,1.73a73.12,73.12,0,0,1-7.64,22.17,58.51,58.51,0,0,1-6.23,9.23,49.93,49.93,0,0,1-7.61,7.43,45.75,45.75,0,0,1-18.51,8.87,35.93,35.93,0,0,1-9.48.81,18.78,18.78,0,0,1-2.27-.19c-.74-.12-1.54-.17-2.17-.33a19.81,19.81,0,0,1-2.82-.76c-.4-.13-.76-.18-.88-.07S112.23,225.67,112.62,225.83Z"/><path d="M243.92,41.18c-.95.13-.9.23.08.25s2.34-.08,3.27-.1.77-.18-.07-.25A14.63,14.63,0,0,0,243.92,41.18Z"/><path d="M236.88,50.07A49.89,49.89,0,0,0,224,54.81a20.4,20.4,0,0,1-2.09.94c.17,0,.06.16-.29.4s-.9.63-1.65,1.09c-1.88,1-3.62,2.35-5.4,3.58s-3.43,2.66-5,4.19-3.07,3.07-4.56,4.65L203,72.18c-.71.82-1.27,1.76-1.91,2.63a51.33,51.33,0,0,0-6,11.38A57.17,57.17,0,0,0,192,98.77a89.13,89.13,0,0,0-.51,13.55c.17,4.64.67,9.4,1.26,14.23s1.35,9.79,2,14.84,1.38,10.22,1.81,15.55a6.1,6.1,0,0,1,.57,1.78,44.47,44.47,0,0,1,.74,6.44,67,67,0,0,1-.18,9.08c-.15,1.6-.32,3.21-.56,4.81a105.45,105.45,0,0,1-7.68,28.55,84.77,84.77,0,0,1-16.56,25.29,61.09,61.09,0,0,1-10.43,9.94c-1.72,1.44-3.57,2.7-5.41,4s-3.8,2.46-5.82,3.51-4.07,2.08-6.16,3c-1.06.45-2.15.86-3.22,1.29s-2.19.8-3.31,1.16c-2.21.76-4.52,1.3-6.83,1.86a69.44,69.44,0,0,1-7.12,1.12,71.23,71.23,0,0,1-7.33.39c-2.48-.11-4.93-.16-7.54-.52,1.27.34,2,.62,2,.83-.23.2-1.57.29-3.56.07l-.8-.09a6.42,6.42,0,0,1-.94-.13c-.65-.12-1.34-.25-2.05-.41a41.35,41.35,0,0,1-4.51-1.31,51.18,51.18,0,0,1-9-4.12,52.59,52.59,0,0,0,13.12,5.6c1.15.3,2.34.63,3.47.82s2.06.42,3.1.56l1.54.23,1.5.15,3,.26c1.15.09,2.21.07,3.18.13a70.62,70.62,0,0,0,25.43-4.84,80.06,80.06,0,0,0,23.47-14.24,77.61,77.61,0,0,0,9.41-9.69c1.48-1.72,2.72-3.52,4-5.29s2.46-3.63,3.52-5.53a95.52,95.52,0,0,0,9.78-23.4,113.7,113.7,0,0,0,2.55-12,117.14,117.14,0,0,0,1.18-12,115.08,115.08,0,0,0,0-11.9l-.17-2.92c-.07-1-.17-1.9-.25-2.85l-.26-2.84-.33-2.78c-.88-7.4-2.06-14.43-3.06-21.23-2-13.53-3.11-26.26-.28-37.81a10.37,10.37,0,0,1,.86-2.5c.23-.4.32-.28.1.54l-.36,1.32c-.12.43-.17.91-.26,1.36-.17.9-.33,1.81-.5,2.71l-.3,2.75-.15,1.36-.05,1.39c0,.93-.07,1.85-.11,2.77s0,1.87,0,2.8.05,1.86.12,2.81.12,1.87.2,2.82c.72,7.61,2.19,15.34,3.83,23.7.81,4.13,1.63,8.5,2.39,13s1.4,9.29,1.76,14.38a113.66,113.66,0,0,1-2.22,32.75,98.2,98.2,0,0,1-18.14,39.4,87.87,87.87,0,0,1-16.44,16.08,85.55,85.55,0,0,1-20.61,11.32,76,76,0,0,1-24.19,5l-3.2.08c-1.07,0-2.15-.06-3.23-.1s-2.14-.09-3.25-.19-2.26-.22-3.39-.4l-1.73-.27a15.72,15.72,0,0,1-2-.36c-1.34-.27-2.66-.62-4-1s-2.62-.8-3.91-1.23-2.57-1-3.82-1.51c-10-4.32-18.88-11.66-24.13-21.36a49.76,49.76,0,0,1-5.34-15.62,56.72,56.72,0,0,1-.75-8.36c0-1.41,0-2.82.07-4.23l0-.53a2.44,2.44,0,0,1,0-.54l.09-1.07c0-.63.08-1.22.15-1.8.29-2.44.7-4.75,1.16-7,.24-1.09.48-2.21.76-3.26l.41-1.58.43-1.46c.58-1.92,1.14-3.89,1.76-5.77l2-5.46c2.73-7.06,5.72-13.43,8.59-19.34S83,154.09,85.3,149c1.21-2.55,2.18-4.92,3.17-7.28l1.27-3.4c.42-1.13.68-2.16,1-3.23A43,43,0,0,0,92.69,124c0-.79-.08-1.57-.08-2.34s-.22-1.41-.27-2.11-.34-1.39-.45-2.09a5.38,5.38,0,0,0-.32-1c-.11-.35-.22-.71-.32-1.06-1.93-5.6-6.18-11.61-12.08-16.37a45.63,45.63,0,0,0-6.3-4.23c-1.06-.68-2.23-1.11-3.3-1.7l-1.68-.67L67.07,92l-.94-.32-1.87-.66-1.94-.55-1-.28-1-.22-2-.47c-1.38-.21-2.7-.54-4.13-.68-.7-.08-1.39-.2-2.1-.27L50,88.41c-.71-.09-1.45-.1-2.19-.13l-1.1,0a1.38,1.38,0,0,0-.21,0l-.65,0-1.31.13c-.88.08-1.73.09-2.62.2-3.49.26-7.07.67-10.74,1.17-2.69.81-5.58-1.29-6.5-4.9a7.53,7.53,0,0,1,.93-6l-.76.06-1.26-.26a5.18,5.18,0,0,1-3.15-2.1l-1.13-1.38c-1.65-2.71-4-4.73-5.68-7.59V66.4l-.31-.28a6.08,6.08,0,0,1-2.17-2.78l-.22-1.41a13.31,13.31,0,0,1,.32-4.76,4.71,4.71,0,0,1-.11-1.75,6.87,6.87,0,0,1-1.34-4.49.94.94,0,0,1-.15-1.39,1.08,1.08,0,0,1,.47-.31h0a9.75,9.75,0,0,0-.72-.78c-.39-.05-.62-.1-.62-.1l-1.91-.09a4.87,4.87,0,0,1-1.44-.91C4,45,4,45,3.91,44A1.89,1.89,0,0,1,4,43.61c-.75-.22-.8-.23-1-.31A2.58,2.58,0,0,1,2.58,43c-.17-.57-.17-.57-.33-.75a2.53,2.53,0,0,1-.13-.43c.22-.72.22-.72.19-.9a1.92,1.92,0,0,1,.14-.36l.62-.45,1.28,1.29.09-.55.38.64-.27-.61.56.29-.66-.44a4.7,4.7,0,0,0,1.62-.13,1.86,1.86,0,0,0,.9-.28A1.81,1.81,0,0,1,6.86,40c1.26,0,1.27,0,2.51.07a3.91,3.91,0,0,1,.35.36.55.55,0,0,1,.53-.32h.65L11,40v-.05l.47-.39.1-.09h0c.67-.57,1.37-1.11,2.07-1.65a6.34,6.34,0,0,1,1.1.15l-.35-.24c-.23-.18-.14-.75-.26-.79a19.6,19.6,0,0,0-4.36-.68c-1.47-.09-3-.14-4.46-.15a1,1,0,0,1-1.22-.49.86.86,0,0,1,.63-1.09C9.91,30.36,17.56,29.69,24,31.57L29,32l-.26-.27,1.31.38h.14l-1-1-.7-.27A32,32,0,0,1,22.73,30C20.85,29.6,19,29.18,17,28.87s-3.92-1-5.95-1.45a.82.82,0,0,1-.91-.72.84.84,0,0,1,.89-.77c6.22-1.71,13.89-1.68,19.26,1.59a5.93,5.93,0,0,1,3.28.8l.06,0-.76-.83c.89.18,1.39.89,2.2,1.17-.11-.36-.23-.78-.33-1.14,2.2.35,4.46.41,6.71.74,1.12.15,2.22.33,3.3.58A16.76,16.76,0,0,1,47.9,30l.46.14a21.06,21.06,0,0,1,2.76-.86c.23-.05.47-.1.72-.13a1,1,0,0,1,.23,0l1.24.1,2.5.22a101.78,101.78,0,0,1,10.44,1.69l-3.62-.87-3.6-.7c-1.2-.22-2.41-.47-3.6-.63L52,28.44h0l.22,0,.49,0,1,.07,2,.16c1.31.08,2.64.3,4,.45,2.63.3,5.29.81,8,1.32a98.15,98.15,0,0,1,16.28,4.87,94.6,94.6,0,0,1,21.75,12.07A91.26,91.26,0,0,1,123,64.24a80,80,0,0,1,11,18.32c.67,1.45,1.19,3,1.69,4.37s1,2.76,1.32,4.13a54.86,54.86,0,0,1,1.54,7.35,75.59,75.59,0,0,1,3.37,24.08,86.24,86.24,0,0,1-3.94,22.93c-.58,1.73-1.1,3.56-1.74,5.21l-1.95,5c-1.37,3.16-2.77,6.34-4.25,9.24-2.92,5.92-6,11.41-8.84,16.56s-5.6,10.11-7.88,14.83a103.11,103.11,0,0,0-5.53,13.67,36.86,36.86,0,0,0-1.28,5.65c0,.24,0,.34,0,.45s0,.26,0,.38,0,.51,0,.76a8.28,8.28,0,0,0,.13,1.5,8.47,8.47,0,0,0,1,2.82,8,8,0,0,0,2,2.2c.65.49,1.17,1,1.14,1.3s-.74.22-1.5-.29a8.38,8.38,0,0,1-3.17-3.52,10.61,10.61,0,0,1-1-4.78c0-.2,0-.42,0-.62a2.15,2.15,0,0,1,0-.39,4.1,4.1,0,0,1,.06-.49c.08-.66.2-1.35.33-2.06s.32-1.44.5-2.19l.31-1.13.4-1.23.78-2.47c.24-.82.63-1.67.93-2.51l1-2.53,1.13-2.57c3-6.92,7-14.07,11.22-21.85a200.54,200.54,0,0,0,12.14-25.78,172.77,172.77,0,0,1-10.69,21.62c-3.74,6.59-7.46,12.73-10.69,18.7a107.37,107.37,0,0,0-7.87,17.44,37.24,37.24,0,0,0-1.18,4c-.15.64-.3,1.27-.4,1.88s-.21,1.28-.25,1.62a14.49,14.49,0,0,0,.33,5.16,10.39,10.39,0,0,0,2.68,4.52,16.84,16.84,0,0,0,4.21,3.05,17.71,17.71,0,0,0,3.16,1c.44.12,1.32.31,2,.44s1.61.2,2.42.3a38.84,38.84,0,0,0,10.13-.38,44.7,44.7,0,0,0,10.14-3,52,52,0,0,0,9.49-5.33,53.37,53.37,0,0,0,15-16.31A71.76,71.76,0,0,0,170.92,183a82.86,82.86,0,0,0,1.52-10.44,88.55,88.55,0,0,0,.3-10.44c-.14-7-.93-14.34-1.8-22s-1.82-15.66-2.06-24.34c0-2.17-.11-4.34,0-6.6,0-1.13,0-2.23.1-3.38l.24-3.45c.05-1.15.21-2.33.36-3.5s.29-2.36.47-3.55l.69-3.59.36-1.8.47-1.81A74.37,74.37,0,0,1,174.88,78c.73-1.61,1.42-3.25,2.21-4.81l2.52-4.6a78.25,78.25,0,0,1,12.81-16A80.17,80.17,0,0,1,226.83,33a77.17,77.17,0,0,1,19.86-2.75,78.83,78.83,0,0,1,19.7,2.38,87.3,87.3,0,0,1,18.5,6.9,85.36,85.36,0,0,1,16.59,11c5.51,4.54,9.62,9.8,9.78,10.74.1.48-.74-.21-2.22-1.64s-3.66-3.52-6.33-5.8a86.63,86.63,0,0,0-36-18.87,79.6,79.6,0,0,0-20.57-2.35A74.44,74.44,0,0,0,225.47,36a79.08,79.08,0,0,0-34.73,22,73.49,73.49,0,0,0-11.88,17.33c-.73,1.62-1.49,3.23-2.17,4.88s-1.21,3.36-1.78,5.05l-1.37,5.07c-.37,1.7-.68,3.4-1,5.11a105.05,105.05,0,0,0-1.21,20c.16,6.49.75,12.75,1.38,18.82,1.27,12.13,2.76,23.62,2.21,34.36a93.43,93.43,0,0,1-2.18,16,79.38,79.38,0,0,1-5.15,15.06,63.32,63.32,0,0,1-8.19,13.22c-.78,1-1.66,1.92-2.49,2.88s-1.78,1.79-2.68,2.69a55.77,55.77,0,0,1-5.94,4.76,49.24,49.24,0,0,1-23.42,8.85c.12.08.23.16.24.25,0,.36-.69.83-2,1.14,9.36-.31,19-4,27.31-9.87,11-8.68,18.54-21.71,22.23-36.31a97,97,0,0,0,2.93-22.82c.06-7.91-.66-16.28-1.46-25.19-1-12.21-2.1-24.66-.5-37.37a77.26,77.26,0,0,1,4.7-18.73A69.18,69.18,0,0,1,188,66.42a75.57,75.57,0,0,1,17.24-16.91A73.38,73.38,0,0,1,226.85,38.9a72.39,72.39,0,0,1,24.12-3,78.64,78.64,0,0,1,23.67,4.94,13,13,0,0,1,2.83,1.24c.38.29-.27,0-1.49-.39a81,81,0,0,0-16.13-4.18c-1.39-.18-2.77-.44-4.18-.53l-4.22-.3a77.67,77.67,0,0,0-8.49.18,70,70,0,0,0-16.76,3.34,77.66,77.66,0,0,0-15.48,7.16c3.29-1.48,5.38-2,5.32-1.51,0,.28-.58.83-1.57,1.58-.5.38-1.1.81-1.8,1.28s-1.44,1.08-2.27,1.68c2.09-1.38,4.34-2.47,6.55-3.65,2.29-1,4.54-2.1,6.92-2.87a24.35,24.35,0,0,1,3.75-1.12c1-.19,1.56-.25,1.55-.13,0,.29-2.32,1-5,2.06-2.4.79-4.67,1.9-7,2.92-2.22,1.18-4.47,2.32-6.58,3.71l-1.6,1c-.53.34-1,.73-1.55,1.09-1,.75-2.05,1.46-3,2.24L201.49,58c-1,.79-1.84,1.72-2.77,2.58a65.23,65.23,0,0,0-9.62,11.7A60.76,60.76,0,0,0,182.41,86,74.88,74.88,0,0,0,179,103.78a122.89,122.89,0,0,0,.12,17.7c.86,11.63,2.67,22.94,3.44,34.16a30.9,30.9,0,0,1,.81-6.63h0c-.33-3.51-.72-7-1.11-10.52-1-8-2.12-16.17-2.38-24.49a100,100,0,0,1,.32-12.58c.25-2.11.43-4.22.87-6.31.21-1,.35-2.11.61-3.15l.8-3.12a28.81,28.81,0,0,1,1-3.08c.36-1,.68-2.06,1.08-3.06l1.3-3c.22-.5.42-1,.67-1.48l.77-1.43c.51-1,1-1.91,1.55-2.86l1.75-2.73.89-1.36,1-1.29,2-2.59,2.14-2.44,1.08-1.22,1.15-1.15,2.31-2.28,2.47-2.11,1.23-1.06c.42-.34.87-.65,1.3-1l2.62-1.93c.89-.61,1.82-1.18,2.73-1.77s1.83-1.17,2.79-1.67l2.87-1.55c1-.5,2-.92,3-1.38,1.95-1,4-1.64,6.07-2.42a66.88,66.88,0,0,1,12.77-3,69.48,69.48,0,0,1,26,1.59A77.89,77.89,0,0,1,307.81,71a9,9,0,0,1,1.38,2.11,7.51,7.51,0,0,1-1.49-1.71A77,77,0,0,0,254.46,41.2l.08,0c.84.13,1,.26.05.25a27.93,27.93,0,0,1-3.27-.28c-1-.13-.88-.23-.08-.26a65.94,65.94,0,0,0-28.75,4.85,74.12,74.12,0,0,0-12.86,6.87A72.59,72.59,0,0,0,198.5,62c-.88.83-1.62,1.8-2.44,2.69l-1.19,1.37c-.4.46-.74,1-1.11,1.43-.73,1-1.48,1.93-2.17,2.92l-2,3c-.69,1-1.19,2.11-1.78,3.16a30.74,30.74,0,0,0-1.62,3.25l-1.45,3.32-1.18,3.43a68.8,68.8,0,0,0-2.86,14,96.23,96.23,0,0,0-.38,14.08,103.55,103.55,0,0,1,.46-13c.29-2.18.5-4.36,1-6.51.24-1.07.38-2.17.69-3.23l.86-3.19a58.69,58.69,0,0,1,5.15-12.2A65,65,0,0,1,192,70.93c.62-.92,1.33-1.76,2-2.64a30.28,30.28,0,0,1,2.09-2.56l2.2-2.46c.77-.79,1.58-1.53,2.36-2.3l1.19-1.15c.4-.37.84-.71,1.26-1.07l2.52-2.11,2.67-1.94,1.33-1,1.4-.87,2.79-1.74,2.91-1.55c.49-.25,1-.52,1.46-.76l1.5-.67c1-.44,2-.9,3-1.32,2.07-.72,4.1-1.58,6.23-2.1a63.9,63.9,0,0,1,12.93-2.39A67,67,0,0,1,253.36,42a14.08,14.08,0,0,1,2.85.41c.28.13-.5.1-1.58.05l-3.21-.18c6.64.41,11.49,2.18,11.26,2.63-.48.45-6-.47-12.65-.73a68.47,68.47,0,0,0-13.34.94,71.07,71.07,0,0,0-12.82,3.73,68.07,68.07,0,0,0-22.15,14.57c-1.4,1.32-2.6,2.82-3.86,4.27-.64.73-1.15,1.56-1.71,2.34s-1.11,1.57-1.63,2.38A66.9,66.9,0,0,1,227.11,48.5c12.92-4.51,27.15-4.15,40-.15.56.16,1.09.33,1.58.48s.91.37,1.27.53c.73.33,1.17.58,1.16.67s-.46,0-1.18-.17c-.37-.1-.79-.22-1.27-.38l-1.57-.42a63.14,63.14,0,0,0-64.4,17.56,59.38,59.38,0,0,0-9.92,14.22,57.06,57.06,0,0,0-5.17,16.47c-1.85,11.53-.71,23.55.74,35.69,1.38,7.94,2.94,16,3.91,24.41a120.88,120.88,0,0,1,.89,12.89,108.82,108.82,0,0,1-.58,13.22c.17-1.1.38-2.21.52-3.33s.27-2.25.4-3.37a117.76,117.76,0,0,0,.09-21c-.52-6.73-1.42-13.17-2.29-19.4-1.75-12.45-3.41-24.27-2.39-35.66a58.16,58.16,0,0,1,3.77-16.42,55.37,55.37,0,0,1,8.69-14.66A61.73,61.73,0,0,1,230.65,50a9.15,9.15,0,0,1,2.36-.53c.15.06-.62.39-1.81.74a61.45,61.45,0,0,0-28.49,18.73A56.75,56.75,0,0,0,193.86,83l-.78,1.92a19,19,0,0,0-.73,2c-.39,1.33-.87,2.61-1.2,4s-.66,2.73-.91,4.13-.47,2.81-.63,4.25a86.08,86.08,0,0,0-.35,14.37c.23,4.81.78,9.64,1.44,14.48,1.29,9.69,3.08,19.44,4,29.6-.65-10.4-2.27-20.19-3.41-29.63-.59-4.73-1.06-9.37-1.27-13.93-.15-2.29-.12-4.53-.14-6.78s.13-4.46.4-6.64A55.89,55.89,0,0,1,193,88a50.79,50.79,0,0,1,5.59-11.66,58.74,58.74,0,0,1,8.34-10.21,64.93,64.93,0,0,1,10.57-8.25A32,32,0,0,1,221.14,56a2.12,2.12,0,0,1,.73-.52,54.25,54.25,0,0,1,13.44-5.38,11.09,11.09,0,0,1,2.66-.45C238.48,49.64,237.91,49.76,236.88,50.07ZM24.15,43.28,24,43.09l.58.3.9,1.32Zm-8.63,6.3h0L15,48.87ZM118.93,177.42c2.55-4.59,5.21-9.29,7.76-14.36,1.3-2.47,2.51-5.14,3.73-7.78.61-1.31,1.15-2.75,1.72-4.12s1.15-2.76,1.63-4.25l1.49-4.39c.44-1.51.84-3.06,1.25-4.6.19-.77.41-1.53.59-2.32l.44-2.4c.28-1.62.63-3.2.82-4.85a76.67,76.67,0,0,0-.13-20.24,74.22,74.22,0,0,1,.87,19.82c-.08,1.28-.37,2.48-.57,3.72l-.68,3.67c-.53,2.41-1.22,4.72-1.85,7.06s-1.53,4.47-2.34,6.66-1.74,4.24-2.67,6.27A231.54,231.54,0,0,1,118.93,177.42ZM17,38.81a11.47,11.47,0,0,1,2.57,2.24,5.24,5.24,0,0,1,1.76-.39,33,33,0,0,1,4.88.08c-.25-.47.13-.45.32-.52l.59-.17c-1.72-.19-3.47-.49-5.23-.68C20.29,39.19,18.56,39.14,17,38.81ZM5.7,42.68l-.18-.14.15-.79S5.69,42.15,5.7,42.68ZM5.49,44l.26.06C5.72,44.35,5.63,44.27,5.49,44Zm2.33.46a1.6,1.6,0,0,0-.38-.32Zm5.79,21.06,0-3.77-.12,3.64Z"/><path d="M88,110.5c0,.18,0,.35,0,.52-.29,0-.52-.17-.69-.5.49,4.71,5.17,6.23,9,5.63a1.74,1.74,0,0,0,2.65-.34,2.35,2.35,0,0,0,0-3,3.16,3.16,0,0,1-.23-.78,20.26,20.26,0,0,0-1.27-6.65c0,.53.09,1.08.13,1.61a4.44,4.44,0,0,0-.81-1.66l-.25.68a3.74,3.74,0,0,0-1.64-2.78,3.38,3.38,0,0,0-3.13-.24,6.15,6.15,0,0,0-3.87,6.28Z"/><path d="M86.42,118.59a35.63,35.63,0,0,1-1.14-4.38l.1-.48-1.13,1.51.09-.08a7.48,7.48,0,0,1,5.06,1l.61.18a1.48,1.48,0,0,0,1-.45,1.8,1.8,0,0,0,.27-2.26l-.54-.71c-1-2.24-3.18-4.61-6.14-3a6.69,6.69,0,0,0-1.64,2,2.31,2.31,0,0,0-.22,3.13,1.92,1.92,0,0,0,2.88-.17c.08.19.16.39.25.58-.21,0-.4,0-.6,0,.9-.62,1.81-.17,2.71-.13l1,.49,1.29-2.7-.65-.08c-.05.13-.1.33-.11.33a12.75,12.75,0,0,1-3.72-.58L84,112.58a1.55,1.55,0,0,0-1.15,1.51l.09,1c0-.17,0-.33,0-.5.37.79.79,1.55,1.22,2.31s.9,1.48,1.29,2.27a.47.47,0,0,0,.68.23A.61.61,0,0,0,86.42,118.59Z"/><path d="M82,115.17c-.05-.35-.07-.7-.37-.91l-.27.08c0,.19,0,.46,0,.72C81.45,115.58,81.76,115.5,82,115.17Z"/><path d="M81.37,114.34c0-.19,0-.31,0-.31s-.06.21-.08.31h.09Z"/><path d="M162.18,146.89a112.59,112.59,0,0,0,24.19,1.41c.27,0,.49-.13.49-.25s-.23-.19-.48-.17a112.17,112.17,0,0,1-24.08-1.46c-.26,0-.49,0-.53.15S161.94,146.84,162.18,146.89Z"/><path d="M225.82,149.37c-.16.15-.11.25.12.23a1.35,1.35,0,0,0,.66-.29c.14-.13.08-.24-.11-.23A1.32,1.32,0,0,0,225.82,149.37Z"/><path d="M227.05,157.37a28.58,28.58,0,0,0-3.13,2,1.69,1.69,0,0,1-.56.24c.12.12-.05.36-.47.59-8.13,4.77-17.68,8.42-27.36,11.37a1.12,1.12,0,0,1-.34.53,6.41,6.41,0,0,1-3.39,1.32l-1.1.09c-4.42.56-8.84.94-13.26,1.09a12.59,12.59,0,0,1-3.07.71,106.3,106.3,0,0,1-11.68,2.33.63.63,0,0,1,.39.51c-.09.46-1,.81-2.12.8l-1.65.05,4.72.3a4,4,0,0,1,.62,0c1.73-.07,3.48-.16,5.25-.3A116.15,116.15,0,0,0,192,174.68,143.06,143.06,0,0,0,212.11,167a1.49,1.49,0,0,1,.76-.2c.15,0,.17.17-.06.3-2,1.11-3.86,2.28-5.77,3.42s-3.84,2.22-5.83,3.3-4.05,2.12-6.25,3.09c-1.1.48-2.23.95-3.4,1.41a38,38,0,0,1-3.64,1.3l-4.51,1.42-4.58,1.24c-1.53.44-3.07.78-4.63,1.13s-3.12.74-4.7,1A154.27,154.27,0,0,1,150,187c-6.94-.21-13.66-.55-20.48-1.08a204.91,204.91,0,0,1-20.87-2.79,146.26,146.26,0,0,1-15.59-3.93,133.42,133.42,0,0,1-24.47-9.76,9.6,9.6,0,0,1-4.75-4,5.72,5.72,0,0,1-.25-5.19,6.37,6.37,0,0,1,5.32-3.32l-.87-.6L66.86,155a5.86,5.86,0,0,1-1.67-4.1l0-1.87c.48-3.2,0-6.52,1-9.63l.93-.74v-.44a5.48,5.48,0,0,1,.62-3.52l1-1A14.2,14.2,0,0,1,72.53,131a5.12,5.12,0,0,1,1.26-1.2A7,7,0,0,1,76.38,126a1,1,0,0,1,1-1,.93.93,0,0,1,.49.14h0a9.86,9.86,0,0,0,.18-1c-.17-.31-.26-.51-.26-.51-.51-.78-.51-.78-.93-1.46a4.58,4.58,0,0,1,0-1.62c1.1-2.41,1.11-2.41,1.89-3.17l.31-.14c-.18-.66-.19-.7-.23-.89a2.35,2.35,0,0,1,.08-.5c.37-.46.37-.46.43-.69a3.33,3.33,0,0,1,.28-.35c.65-.29.65-.29.78-.43a2.69,2.69,0,0,1,.34-.13l.61.15c-.42,1.68-.42,1.69-.42,1.69l.46-.29-.31.66.33-.56,0,.56,0-.73c.53.8.53.8.82,1a1.3,1.3,0,0,0,.61.44,2.15,2.15,0,0,1,.19-.29l1.13,1.7a3.43,3.43,0,0,1-.08.48.39.39,0,0,1,.5.13l.31.41H85l0,0,.51,0h.11l2.16.18a8.07,8.07,0,0,1,.47.78,2.43,2.43,0,0,1,0-.38c0-.26.43-.61.4-.71a19.48,19.48,0,0,0-1.62-3.19c-.31-.49-.63-1-1-1.46l-.91-1.5a.83.83,0,0,1-.13-1.12.76.76,0,0,1,1.05-.29,10.72,10.72,0,0,1,1.82.42A11.61,11.61,0,0,1,92.63,115a20.24,20.24,0,0,1,4.54,6c.81,1,1.64,1.91,2.53,2.78v-.33l.56.89.08.08-.09-1.24-.26-.52a14.35,14.35,0,0,1-2.57-3.47l-1.07-1.9c-.34-.66-.67-1.31-1-1.94A26,26,0,0,1,93.65,111a.8.8,0,0,1,.11-1,.55.55,0,0,1,.86,0,19,19,0,0,1,8.22,10.93,3.86,3.86,0,0,1,1.41,2.09l0,0c0-.34,0-.66,0-1,.39.54.35,1.28.69,1.83.11-.35.23-.7.35-1a46.84,46.84,0,0,0,3.61,3.11,14.2,14.2,0,0,1,3.33,3.49,2,2,0,0,1,.26.24,7.76,7.76,0,0,1,4.84.94c-.65-.47-1.3-1-1.91-1.44a22,22,0,0,1,4.83,1.79c.54.29,1.08.61,1.61.95s1.09.65,1.62,1c1.07.7,2.08,1.53,3.05,2.31a18.71,18.71,0,0,1,4.45,5,132.15,132.15,0,0,0,14.25,3.89,116.19,116.19,0,0,0,14.6,2.12c.51,0,1,.26,1,.52s-.31.46-.83.45a96.6,96.6,0,0,1-21.43-2.55,90.67,90.67,0,0,0,18,4.83l2.41.22a16.15,16.15,0,0,1,2.38.38,99.27,99.27,0,0,0,24.11-.1,127.45,127.45,0,0,0,19.88-4.49c4.73-1.5,9.19-3.08,13.56-4.84s8.71-3.55,13.22-5.47c1.17-.58,2.43-.79,2.79-.46s-.31,1.09-1.49,1.69a147.62,147.62,0,0,1-14,6.62c-2.37,1-4.82,1.87-7.24,2.8s-4.91,1.67-7.43,2.34a112.57,112.57,0,0,1-15.39,3.32,96.66,96.66,0,0,1-16,1l-3.48-.09-3.43-.24a.88.88,0,0,1,.06.26,1.17,1.17,0,0,1-.6.91l3.93.35,4,.25c7.35-.74,14.59-1.91,22.42-2.8l4-.45c1.3-.12,2.59-.25,3.86-.42l3.81-.44,3.78-.57A169.25,169.25,0,0,0,229.55,142a.89.89,0,0,1,.62-.15c.12,0,0,.18-.19.31-1.91,1.19-3.94,2.18-6,3.28s-4.14,2-6.29,2.91c.81.07,1.37.32,1.47.75s-.29,1-1,1.57l1.53-.49,1.51-.54c.63-.22,1.18-.24,1.24,0s-.35.58-.94.8c-1,.39-2.07.75-3.11,1.08l-3.13,1c-2.1.64-4.21,1.21-6.32,1.8a146.72,146.72,0,0,1-15.25,4,3.32,3.32,0,0,1,1.73,1h0l2.41-.48A243.53,243.53,0,0,0,240.2,142c.27-.14.52-.19.58-.11s-.12.26-.37.38c-4.15,2.1-8.3,4.18-12.55,6h0c.2,0,.28.07.12.22a1.49,1.49,0,0,1-.67.29c-.22,0-.25-.09-.12-.22a243.24,243.24,0,0,1-24,9.11,203.94,203.94,0,0,0,22.58-7.14l2.23-1.37a1,1,0,0,1,.64-.13c.1,0,0,.21-.23.33l-.63.37c1.39-.55,2.62-.63,2.82-.15s-.88,1.42-2.33,2c-3.82,1.79-7.73,3.33-11.7,4.73-.42.19-.84.37-1.26.53l-1.23.68A162.19,162.19,0,0,0,232.63,151c.5-.25,1-.33,1.09-.17s-.25.5-.76.76a155.45,155.45,0,0,1-15.81,7.6,153.32,153.32,0,0,1-16.88,5.65l-5.51,2.65c-1.87.85-3.78,1.66-5.72,2.51l1.53-.24a79.27,79.27,0,0,0,17.89-5.63c5.57-2.34,10.89-5,16.56-7.61.28-.15.56-.17.63-.1s-.09.25-.39.38c-2.74,1.37-5.4,2.6-8,4s-5.34,2.59-8.22,3.71c-4.74,2-9.37,3.57-13.93,5.31,9.56-2.3,18.24-6.09,27-10a2.46,2.46,0,0,1,1.07-.29c0-.06.07-.14.17-.22,1-.72,2.13-1.4,3.29-2.07a1.08,1.08,0,0,1,.69-.18C227.39,157.06,227.29,157.21,227.05,157.37ZM90.39,130v-.24l.2.55-.18,1.5Zm-9.58-.88h0c.09-.5.15-.86.15-.86C80.9,128.6,80.85,128.87,80.81,129.1Zm63.31,18.44a51.36,51.36,0,0,1-12.37-4.62c1,.27,2,.6,3.05.82,1.53.63,3.06,1.32,4.61,1.95Zm-55.19-25a13.19,13.19,0,0,1,0,3.14,3.83,3.83,0,0,1,1.29.76,35.5,35.5,0,0,1,3,2.77c.12-.5.34-.27.5-.22l.47.19q-1.44-1.65-2.82-3.37A24.66,24.66,0,0,1,88.93,122.53Zm-8.45-4.74,0-.21.66-.4Zm-1.1.69.08.21C79.23,118.86,79.25,118.74,79.38,118.48Zm.78,2a1.59,1.59,0,0,0,0-.48ZM67.75,138.14l2.93-2.38L67.78,138Z"/><path d="M127.43,24.87l.27,0c0,.17-.17.28-.36.36,2.45,0,3.94-2.31,4.34-4.49a1.11,1.11,0,0,0,.33-1.51,1.08,1.08,0,0,0-1.51-.34,1.72,1.72,0,0,1-.44.06,8.48,8.48,0,0,0-3.68.26h.86a2.78,2.78,0,0,0-1,.4l.3.18a2.53,2.53,0,1,0,.27,5.06Z"/><path d="M131.28,26.32c-.79.11-1.57.18-2.36.24l-.23-.08.6.71,0-.06a4.54,4.54,0,0,1,1.25-2.62l.18-.32a.75.75,0,0,0-.07-.57.8.8,0,0,0-1.09-.34l-.45.24c-1.3.34-2.85,1.51-2.43,3.17.1.39.49.67.77,1a1.12,1.12,0,1,0,1.86-1.24l.32-.09-.06.32c-.19-.53.18-1,.34-1.45l.41-.5-1.16-.92-.15.35.15.08a10.28,10.28,0,0,1-.85,2l-.36.94a.68.68,0,0,0,.61.7l.49,0-.25,0c.89-.28,1.74-.7,2.63-1a.28.28,0,1,0-.12-.54Z"/><path d="M129,28.36a.64.64,0,0,0-.5.14v.14l.37,0C129.09,28.69,129.09,28.52,129,28.36Z"/><path d="M128.45,28.64h-.15l.14.06v-.05Z"/><path d="M150.33,8.35a37.7,37.7,0,0,0,3.69-2s0-.1,0-.17-.12-.1-.16-.08a39.93,39.93,0,0,1-3.7,2s0,.1,0,.17A.21.21,0,0,0,150.33,8.35Z"/><path d="M164,9a.23.23,0,0,0,.13.17c.06,0,.11,0,.09-.07a.26.26,0,0,0-.14-.17C164,8.88,163.93,8.92,164,9Z"/><path d="M168,14.67a1.89,1.89,0,0,0-.11.74c0,.05,0,.06-.08.05a.4.4,0,0,1,.13.32,15,15,0,0,1-2,4.47,1.3,1.3,0,0,1,.16.31c.14.34.09.61-.11.69l-.18,0c-.64.23-1.24.49-1.89.7a.79.79,0,0,1-.16.52,15.67,15.67,0,0,1-.59,2,.93.93,0,0,1,.25.24c.18.25.22.51.09.59l-.17.16.67-.22h.11a4.18,4.18,0,0,0,.57-.47,15.25,15.25,0,0,0,3.23-6c0-.06,0-.09.11,0a.22.22,0,0,1,.11.18c-.06,2,.31,4.3-.21,6a30.28,30.28,0,0,1-2.25,5.57c-1.46,1.13-2.36,2.77-3.51,4.35a18.34,18.34,0,0,1-1.21,1.52,1.65,1.65,0,0,1-.2.21l-.33.31-.67.61-1.36,1.2c-1.82,1.58-3.68,3.09-5.59,4.61a3.32,3.32,0,0,1-4.7,0,3.37,3.37,0,0,1-.94-2.89l-.36.26-.69.26a2.9,2.9,0,0,1-2.05,0l-.86-.3c-1.41-.75-3-1.06-4.35-1.93l-.26-.52-.2-.06a2.82,2.82,0,0,1-1.58-.73l-.4-.58a7.15,7.15,0,0,1-.87-2.15,2.81,2.81,0,0,1-.43-.75,3.4,3.4,0,0,1-1.54-1.67.48.48,0,0,1-.37-.58.41.41,0,0,1,.13-.23h0l-.46-.19-.28.09-.83.33a2.26,2.26,0,0,1-.79-.12c-1.06-.75-1.06-.75-1.34-1.21l0-.16-.47.05a1,1,0,0,1-.24-.07c-.19-.22-.19-.22-.29-.27a2.09,2.09,0,0,1-.15-.17c-.06-.35-.06-.35-.11-.43a.94.94,0,0,1,0-.18,2.94,2.94,0,0,0,.15-.31l.79.33-.08-.26.29.21-.24-.21.29,0-.36-.07a1.91,1.91,0,0,0,.62-.35.78.78,0,0,0,.3-.29l-.12-.12,1-.46.23.09a.23.23,0,0,1,.13-.24l.26-.13,0-.07,0,0,.1-.26V26.8h0c.06-.18.16-.44.41-1.13a2.69,2.69,0,0,1,.45-.16l-.19,0c-.13,0-.23-.29-.29-.29a17.66,17.66,0,0,0-3.59,1.35.42.42,0,0,1-.58,0,.41.41,0,0,1,0-.59,8.91,8.91,0,0,1,6.42-5.1q.94-.47,1.86-1l-.16-.05.55-.16,0,0-.63-.15-.31,0a26.51,26.51,0,0,1-4.53,1.63,21.6,21.6,0,0,1-2.51.55.36.36,0,0,1-.5-.13.37.37,0,0,1,.13-.5c1.85-1.87,4.4-3.44,7.1-3.37a2.17,2.17,0,0,1,1.33-.44h0l-.49-.15c.34-.14.7,0,1-.07l-.44-.37c1.6-.8,3-2.09,4.8-2.44l.18-.07a8.61,8.61,0,0,1,.94-1.79l-.46.12a1.47,1.47,0,0,1,.52-.89,3.11,3.11,0,0,1,3.36.48,49.84,49.84,0,0,0,3.68-3.73c.06-.08.2,0,.31.09s.17.3.11.37A16.74,16.74,0,0,1,148,12.09a15.84,15.84,0,0,0,2.91-1.46l.28-.31a.68.68,0,0,1,.38-.18,13.21,13.21,0,0,0,3-2.76,32.37,32.37,0,0,0,1.94-3.13A12.4,12.4,0,0,1,159.49.08c.14-.18.49,0,.78.27s.4.74.26.92c-1.91,3.18-3.61,6.55-6.6,8.6l-1,.64.12.14a2,2,0,0,1,.31.56,9,9,0,0,1,1.21-.58,6.63,6.63,0,0,1,2.5-2.88,9.25,9.25,0,0,1,2.71-.63c.67-.85,1.28-1.76,2-2.59,0,0,.07,0,.14,0a.24.24,0,0,1,.08.19,14.3,14.3,0,0,1-1,2.4,2.38,2.38,0,0,1,.76.68,2.14,2.14,0,0,1,.42.94l.43-.29c.09-.05.25,0,.37.18s.15.34.07.4l-1.7,1.21c-.52.68-1.07,1.34-1.63,2a3.08,3.08,0,0,1,.78.6h0l.29-.26A13.86,13.86,0,0,1,165.62,7s.11,0,.17.07.07.16,0,.18a10.72,10.72,0,0,0-1.72,1.36h0a.24.24,0,0,1,.14.17c0,.07,0,.1-.09.08a.27.27,0,0,1-.13-.18A14.77,14.77,0,0,0,161.49,12a17,17,0,0,1,2.95-2.25c0-.17.08-.35.11-.52s.09,0,.16,0a.28.28,0,0,1,.07.19l0,.13c.21-.11.58.08.87.46s.36.81.15.94a18.14,18.14,0,0,1-1.44,1.33l-.11.19,0,.31c.91-.47,1.85-.9,2.79-1.32.07-.06.21,0,.32.13s.13.29.07.35A27.67,27.67,0,0,1,164,16.37c0,.94,0,1.89-.06,2.82a1,1,0,0,0,.19-.12c1.54-1.19,1.58-3.85,2.81-5.34,0-.05.1,0,.16,0s.08.15,0,.18A16.4,16.4,0,0,0,166,16.78a15.62,15.62,0,0,0-.9,2.4c1-1,1.56-2.6,2.44-3.79,0-.07.1-.07.18,0a.3.3,0,0,1,0-.11,2.61,2.61,0,0,1,.12-.78c0-.05.07-.05.14,0A.23.23,0,0,1,168,14.67Zm-30.49,11-.12,0h.31l.69.33Zm-1.86,4.64h0l-.39-.18Zm13.72-18.2a4.62,4.62,0,0,1-2.16.9l.37-.42A16.16,16.16,0,0,1,149.35,12.14ZM133.61,25.42a6.08,6.08,0,0,1,1.55.39,2,2,0,0,1,.57-.56,18.52,18.52,0,0,1,1.86-1.1c-.23-.14-.07-.22,0-.29l.18-.21c-.7.32-1.41.63-2.13.94A16.54,16.54,0,0,1,133.61,25.42Zm-3.55,3.93-.1,0-.11-.38Zm.2.61.12,0C130.43,30.07,130.37,30.05,130.26,30Zm1.06-.24a.7.7,0,0,0-.23-.06Zm7.07,8L137.58,36l.73,1.63Z"/></g></g></svg>