<svg xmlns="http://www.w3.org/2000/svg" viewBox="0 0 373.33 317.94"><g id="Layer_2" data-name="Layer 2"><g id="Layer_1-2" data-name="Layer 1"><path d="M5,32.06c.17.08.34.19.51.28a1.31,1.31,0,0,1-1.13.36,11,11,0,0,0,7.75,0,18.93,18.93,0,0,0,6.63-4.08,2.56,2.56,0,0,0,2.64-2.3,2.4,2.4,0,0,0-2.72-2.14,4.29,4.29,0,0,1-1-.35,20.83,20.83,0,0,0-8.31-3.13l1.89.83a7.94,7.94,0,0,0-2.71-.24l.44.62a7.59,7.59,0,0,0-4.87,0A6.18,6.18,0,0,0,.55,24.77c-1.43,2.7,0,5.71,3.08,6.76Z"/><path d="M11.33,38.19C9.62,37.67,8,37.08,6.24,36.5l-.38-.36L6.35,38v-.12C7.44,36,9.68,35,11.79,34.17l.74-.39a1.53,1.53,0,0,0,.54-1.1A1.71,1.71,0,0,0,11.2,31c-.41,0-.81,0-1.22,0a10.75,10.75,0,0,0-5.16.33A5.05,5.05,0,0,0,1.38,34.8c-.18.8.35,1.66.62,2.49a2.46,2.46,0,0,0,2.88,1.9,2.49,2.49,0,0,0,2.25-2.62l.78.13-.48.54c.18-1.14,1.42-1.62,2.28-2.36l1.4-.55L9.76,31.59l-.7.51a2.11,2.11,0,0,1,.22.29,29.53,29.53,0,0,1-4,2.88L3.59,36.72a1.29,1.29,0,0,0,.51,1.84l1,.44-.46-.29c2.1.22,4.28.25,6.35.59a.69.69,0,0,0,.8-.42A.56.56,0,0,0,11.33,38.19Z"/><path d="M4.45,39.9a1.53,1.53,0,0,0-1.17-.18L3.14,40l.73.36C4.4,40.61,4.56,40.29,4.45,39.9Z"/><path d="M3.14,40l-.31-.15.24.23,0,0Z"/><path d="M112.62,225.83c.38.15.78.26,1.17.38.23,0,.35.11.65.18s.66.17,1,.23.66.15,1,.2l1.14.14,1.14.16,1.17.06a36.41,36.41,0,0,0,9.61-.75,45.83,45.83,0,0,0,18.77-8.89,49.18,49.18,0,0,0,7.73-7.47,58.84,58.84,0,0,0,6.32-9.29,73.82,73.82,0,0,0,7.74-22.29,4.38,4.38,0,0,0,.12-2.05c-.11-.07-.31.76-.51,1.73a73.12,73.12,0,0,1-7.64,22.17,58.51,58.51,0,0,1-6.23,9.23,49.93,49.93,0,0,1-7.61,7.43,45.75,45.75,0,0,1-18.51,8.87,35.93,35.93,0,0,1-9.48.81,18.78,18.78,0,0,1-2.27-.19c-.74-.12-1.54-.17-2.17-.33a19.81,19.81,0,0,1-2.82-.76c-.4-.13-.76-.18-.88-.07S112.24,225.67,112.62,225.83Z"/><path d="M243.92,41.18c-.95.13-.9.23.08.25s2.34-.08,3.27-.1.77-.18-.07-.25A14.63,14.63,0,0,0,243.92,41.18Z"/><path d="M236.88,50.07A49.89,49.89,0,0,0,224,54.81a19.47,19.47,0,0,1-2.09.94c.17,0,.06.16-.29.4s-.9.63-1.65,1.09c-1.88,1-3.62,2.35-5.4,3.58s-3.43,2.66-5,4.19-3.07,3.07-4.56,4.65L203,72.18c-.71.82-1.27,1.76-1.91,2.63a51.33,51.33,0,0,0-6,11.38A57.17,57.17,0,0,0,192,98.77a89.21,89.21,0,0,0-.51,13.56c.17,4.63.67,9.39,1.26,14.23s1.35,9.78,2,14.83,1.38,10.22,1.81,15.55a6.1,6.1,0,0,1,.57,1.78,44.47,44.47,0,0,1,.74,6.44,67,67,0,0,1-.18,9.08c-.15,1.6-.32,3.21-.56,4.81a105.45,105.45,0,0,1-7.68,28.55,84.77,84.77,0,0,1-16.56,25.29,60.7,60.7,0,0,1-10.43,9.94c-1.72,1.44-3.57,2.7-5.41,4s-3.8,2.46-5.82,3.51-4.07,2.08-6.16,3c-1.06.46-2.15.86-3.23,1.29s-2.18.8-3.3,1.15c-2.21.77-4.52,1.31-6.83,1.87a69.44,69.44,0,0,1-7.12,1.12,71.23,71.23,0,0,1-7.33.39c-2.48-.11-4.93-.16-7.54-.52,1.27.34,2,.62,2,.83-.23.2-1.57.29-3.56.07l-.8-.09a6.42,6.42,0,0,1-.94-.13c-.65-.12-1.34-.25-2.05-.41a41.35,41.35,0,0,1-4.51-1.31,51.18,51.18,0,0,1-9-4.12,53,53,0,0,0,13.12,5.6c1.15.3,2.34.63,3.47.82s2.06.42,3.1.56l1.54.23,1.5.15,3,.26c1.15.09,2.21.07,3.18.13a70.62,70.62,0,0,0,25.43-4.84,80.06,80.06,0,0,0,23.47-14.24,77.61,77.61,0,0,0,9.41-9.69c1.48-1.72,2.72-3.52,4-5.29s2.46-3.63,3.51-5.53a95.17,95.17,0,0,0,9.79-23.4,113.7,113.7,0,0,0,2.55-12,117.14,117.14,0,0,0,1.18-12,115.08,115.08,0,0,0,0-11.9l-.17-2.92c-.07-1-.17-1.9-.25-2.85l-.26-2.84-.33-2.78c-.88-7.4-2.06-14.43-3.06-21.23-2-13.53-3.11-26.26-.28-37.81a10.37,10.37,0,0,1,.86-2.5c.23-.4.32-.28.1.54l-.36,1.32c-.12.43-.17.91-.26,1.36-.17.9-.33,1.81-.5,2.71l-.3,2.75-.15,1.36-.05,1.39c0,.93-.07,1.85-.11,2.77s0,1.87,0,2.8.05,1.86.12,2.81.12,1.87.2,2.82c.72,7.61,2.19,15.34,3.83,23.7.81,4.13,1.63,8.5,2.39,13s1.4,9.29,1.76,14.38a113.64,113.64,0,0,1-2.22,32.75,98.2,98.2,0,0,1-18.14,39.4,87.87,87.87,0,0,1-16.44,16.08,85.55,85.55,0,0,1-20.61,11.32,76,76,0,0,1-24.19,5l-3.2.08c-1.07,0-2.15-.06-3.23-.1s-2.14-.09-3.25-.19-2.26-.22-3.39-.4l-1.72-.27a15.56,15.56,0,0,1-2-.36c-1.34-.27-2.66-.62-4-1s-2.62-.8-3.91-1.23-2.57-1-3.82-1.51c-10-4.32-18.88-11.66-24.13-21.36a49.76,49.76,0,0,1-5.34-15.62,56.72,56.72,0,0,1-.75-8.36c0-1.41,0-2.82.07-4.23l0-.53a2.44,2.44,0,0,1,0-.54l.09-1.07c0-.63.08-1.22.15-1.8.29-2.44.7-4.75,1.16-7,.24-1.09.48-2.21.76-3.26l.41-1.59.43-1.45c.57-1.92,1.14-3.89,1.76-5.77l2-5.46c2.73-7.06,5.72-13.43,8.59-19.34S83,154.1,85.3,149c1.21-2.55,2.18-4.92,3.17-7.28l1.27-3.4c.42-1.13.68-2.16,1-3.23A43,43,0,0,0,92.69,124c0-.79-.08-1.57-.08-2.34s-.22-1.41-.27-2.11-.34-1.39-.45-2.09a5.38,5.38,0,0,0-.32-1c-.11-.35-.22-.71-.32-1.06-1.93-5.6-6.18-11.61-12.08-16.37a45.63,45.63,0,0,0-6.3-4.23c-1.06-.68-2.23-1.11-3.3-1.7l-1.68-.67L67.07,92l-.94-.32-1.87-.66-1.94-.55-1-.28-1-.22-2-.47c-1.38-.21-2.7-.54-4.13-.68-.7-.08-1.39-.2-2.1-.27L50,88.41c-.71-.09-1.45-.1-2.19-.13l-1.09,0a1.5,1.5,0,0,0-.22,0l-.65,0-1.31.13c-.88.08-1.73.09-2.62.2-3.49.26-7.07.67-10.74,1.17-2.69.81-5.58-1.29-6.5-4.9a7.53,7.53,0,0,1,.93-6l-.76.07-1.26-.27a5.18,5.18,0,0,1-3.15-2.1l-1.13-1.38c-1.65-2.71-4-4.73-5.68-7.59V66.4l-.31-.28a6.08,6.08,0,0,1-2.17-2.78l-.22-1.41a13.24,13.24,0,0,1,.32-4.75,5,5,0,0,1-.12-1.76,6.92,6.92,0,0,1-1.33-4.49.94.94,0,0,1-.15-1.39,1.08,1.08,0,0,1,.47-.31h0c-.28-.33-.36-.42-.71-.78-.4-.05-.63-.1-.63-.1l-1.91-.09a4.87,4.87,0,0,1-1.44-.91C4,45,4,45,3.91,44A1.89,1.89,0,0,1,4,43.61c-.75-.22-.8-.23-1-.31A2.58,2.58,0,0,1,2.58,43c-.17-.57-.17-.57-.33-.75a2.53,2.53,0,0,1-.13-.43c.22-.72.22-.72.19-.9a1.92,1.92,0,0,1,.14-.36l.62-.45,1.28,1.3.09-.56.38.64-.27-.61.56.29-.66-.44a4.7,4.7,0,0,0,1.62-.13,1.86,1.86,0,0,0,.9-.28A1.81,1.81,0,0,1,6.86,40c1.26,0,1.27,0,2.5.07a3.05,3.05,0,0,1,.36.36.55.55,0,0,1,.53-.32h.65L11,40v-.05l.47-.39.1-.09h0c.67-.57,1.37-1.11,2.07-1.65a6.48,6.48,0,0,1,1.1.15l-.35-.24c-.23-.18-.14-.75-.26-.79a20.2,20.2,0,0,0-4.36-.68c-1.47-.09-3-.14-4.46-.15a1,1,0,0,1-1.22-.49.86.86,0,0,1,.63-1.09C9.91,30.36,17.56,29.69,24,31.57L29,32l-.26-.27L30,32.1l.14,0-1-1-.7-.27A32,32,0,0,1,22.73,30c-1.88-.41-3.75-.83-5.68-1.14-2.08-.3-3.93-1-6-1.45a.82.82,0,0,1-.91-.72.84.84,0,0,1,.89-.77c6.22-1.71,13.89-1.68,19.26,1.59a5.93,5.93,0,0,1,3.28.8l.06,0-.76-.83c.89.18,1.39.89,2.2,1.17-.11-.36-.23-.78-.33-1.14,2.2.35,4.46.41,6.71.74,1.12.15,2.22.33,3.3.58A16.76,16.76,0,0,1,47.9,30l.46.14a21.4,21.4,0,0,1,2.75-.86c.24-.05.48-.1.73-.13a1,1,0,0,1,.23,0l1.24.1,2.5.22a101.78,101.78,0,0,1,10.44,1.69l-3.62-.87-3.6-.7c-1.2-.22-2.41-.47-3.6-.63l-3.4-.5h0l.22,0,.49,0,1,.08,2,.15c1.31.08,2.64.3,4,.45,2.64.3,5.3.81,8,1.32a98.15,98.15,0,0,1,16.28,4.87,94.6,94.6,0,0,1,21.75,12.07A91.26,91.26,0,0,1,123,64.24a80,80,0,0,1,11,18.32c.67,1.45,1.19,3,1.69,4.37s1,2.77,1.32,4.13a54.86,54.86,0,0,1,1.54,7.35,75.59,75.59,0,0,1,3.37,24.08,86.24,86.24,0,0,1-3.94,22.93c-.58,1.73-1.1,3.56-1.74,5.21l-1.95,5c-1.37,3.16-2.77,6.34-4.25,9.24-2.92,5.92-6,11.41-8.84,16.56s-5.6,10.11-7.87,14.83a101.88,101.88,0,0,0-5.54,13.67,36.86,36.86,0,0,0-1.28,5.65c0,.24,0,.34,0,.45s0,.26,0,.38,0,.51,0,.76a8.28,8.28,0,0,0,.13,1.5,8.47,8.47,0,0,0,1,2.82,8,8,0,0,0,2,2.2c.65.49,1.17,1,1.14,1.3s-.74.22-1.5-.29a8.38,8.38,0,0,1-3.17-3.52,10.61,10.61,0,0,1-1-4.78c0-.2,0-.42,0-.62s0-.23,0-.4a4.19,4.19,0,0,1,.06-.48c.08-.66.2-1.35.33-2.06s.32-1.44.5-2.19l.31-1.13.4-1.23.78-2.47c.24-.82.63-1.67.93-2.51l1-2.53,1.13-2.57c3-6.92,7-14.08,11.22-21.85a200.54,200.54,0,0,0,12.14-25.78,172.77,172.77,0,0,1-10.69,21.62c-3.74,6.59-7.46,12.73-10.69,18.7a107.37,107.37,0,0,0-7.87,17.44,37.24,37.24,0,0,0-1.18,4c-.15.64-.3,1.27-.4,1.88s-.21,1.28-.25,1.62a14.42,14.42,0,0,0,.33,5.15,10.31,10.31,0,0,0,2.68,4.53,13.86,13.86,0,0,0,7.37,4.09c.44.12,1.32.31,2,.44s1.61.2,2.42.3a38.84,38.84,0,0,0,10.13-.38,44.7,44.7,0,0,0,10.14-3,52,52,0,0,0,9.49-5.33,53.37,53.37,0,0,0,15-16.31A71.76,71.76,0,0,0,170.92,183a82.86,82.86,0,0,0,1.52-10.44,88.55,88.55,0,0,0,.3-10.44c-.14-7-.93-14.34-1.8-22s-1.82-15.66-2.06-24.34c0-2.17-.11-4.34,0-6.6,0-1.13,0-2.23.1-3.38l.24-3.45c.05-1.15.21-2.33.36-3.5s.29-2.36.47-3.55l.69-3.59.36-1.8.48-1.81A73,73,0,0,1,174.88,78c.73-1.61,1.42-3.25,2.21-4.81l2.52-4.6a78,78,0,0,1,12.81-16A80.17,80.17,0,0,1,226.83,33a77.17,77.17,0,0,1,19.86-2.75,78.83,78.83,0,0,1,19.7,2.38,87.09,87.09,0,0,1,18.5,6.9,85.36,85.36,0,0,1,16.59,11c5.51,4.54,9.62,9.8,9.78,10.74.1.48-.74-.21-2.21-1.64s-3.67-3.52-6.34-5.8a86.63,86.63,0,0,0-36-18.87,79.6,79.6,0,0,0-20.57-2.35A74.44,74.44,0,0,0,225.47,36a79.08,79.08,0,0,0-34.73,22,73.29,73.29,0,0,0-11.88,17.33c-.73,1.62-1.49,3.23-2.17,4.88s-1.21,3.36-1.78,5.05l-1.37,5.07c-.37,1.7-.68,3.4-1,5.11a105.05,105.05,0,0,0-1.21,20c.17,6.49.75,12.75,1.38,18.82,1.27,12.13,2.76,23.62,2.21,34.36a93.43,93.43,0,0,1-2.18,16,79.38,79.38,0,0,1-5.15,15.06,63.32,63.32,0,0,1-8.19,13.22c-.78,1-1.66,1.92-2.49,2.88s-1.78,1.79-2.68,2.69a55.77,55.77,0,0,1-5.94,4.76,49.24,49.24,0,0,1-23.42,8.85c.12.08.22.16.24.25,0,.36-.69.83-2,1.14,9.36-.31,19-4,27.31-9.87,11-8.68,18.54-21.71,22.24-36.31a97.57,97.57,0,0,0,2.92-22.82c.06-7.91-.66-16.28-1.46-25.19-1-12.21-2.1-24.66-.5-37.37a77.26,77.26,0,0,1,4.7-18.73A69.18,69.18,0,0,1,188,66.42a75.57,75.57,0,0,1,17.24-16.91A73.38,73.38,0,0,1,226.85,38.9a72.36,72.36,0,0,1,24.12-3,78.64,78.64,0,0,1,23.67,4.94,13,13,0,0,1,2.83,1.24c.38.29-.27,0-1.49-.39a81,81,0,0,0-16.13-4.18c-1.4-.18-2.77-.44-4.18-.53l-4.22-.3a77.9,77.9,0,0,0-8.5.18,70,70,0,0,0-16.75,3.34,77.66,77.66,0,0,0-15.48,7.16c3.29-1.48,5.38-2,5.32-1.51,0,.28-.58.83-1.57,1.58-.5.38-1.11.81-1.8,1.28s-1.43,1.08-2.27,1.68c2.09-1.38,4.34-2.47,6.55-3.65,2.29-1,4.54-2.1,6.92-2.87a24.35,24.35,0,0,1,3.75-1.12c1-.19,1.56-.25,1.55-.13,0,.29-2.32,1-5,2.06-2.4.79-4.67,1.9-7,2.92-2.22,1.18-4.47,2.32-6.58,3.71l-1.6,1c-.53.34-1,.73-1.55,1.09-1,.75-2.05,1.46-3,2.24L201.49,58c-1,.79-1.84,1.72-2.77,2.58a64.88,64.88,0,0,0-9.62,11.7A60.76,60.76,0,0,0,182.41,86,74.88,74.88,0,0,0,179,103.78a122.89,122.89,0,0,0,.12,17.7c.86,11.63,2.67,22.94,3.44,34.16a30.9,30.9,0,0,1,.81-6.63h0c-.33-3.51-.72-7-1.11-10.52-1-8-2.12-16.17-2.38-24.49a100,100,0,0,1,.32-12.58c.25-2.11.43-4.22.87-6.31.21-1,.35-2.11.61-3.15l.8-3.12a28.81,28.81,0,0,1,1-3.08c.36-1,.68-2.06,1.08-3.06l1.3-3c.22-.5.42-1,.67-1.48l.77-1.43c.51-1,1-1.91,1.55-2.86l1.75-2.73.88-1.36,1-1.29,2-2.59,2.14-2.44,1.08-1.22,1.15-1.15,2.31-2.28,2.47-2.11,1.23-1.06c.42-.34.87-.65,1.3-1l2.62-1.93c.89-.61,1.82-1.18,2.73-1.77s1.83-1.17,2.79-1.67l2.87-1.55c1-.5,2-.92,3-1.38,1.95-1,4-1.64,6.07-2.42a66.88,66.88,0,0,1,12.77-3,69.48,69.48,0,0,1,26,1.59A77.89,77.89,0,0,1,307.81,71a9.62,9.62,0,0,1,1.39,2.11,7.15,7.15,0,0,1-1.5-1.71A77,77,0,0,0,254.45,41.2l.09,0c.84.13,1,.26.05.25a27.93,27.93,0,0,1-3.27-.28c-1-.13-.88-.23-.08-.26a65.94,65.94,0,0,0-28.75,4.85,74.12,74.12,0,0,0-12.86,6.87A72.59,72.59,0,0,0,198.5,62c-.88.83-1.62,1.8-2.44,2.69l-1.19,1.37c-.4.46-.74,1-1.11,1.44-.73,1-1.48,1.92-2.17,2.91l-2,3c-.69,1-1.19,2.11-1.78,3.16a30.74,30.74,0,0,0-1.62,3.25l-1.45,3.32-1.18,3.43a68.8,68.8,0,0,0-2.86,14,96.23,96.23,0,0,0-.38,14.08,103.55,103.55,0,0,1,.46-13c.29-2.17.5-4.36,1-6.51.23-1.07.37-2.17.68-3.23l.86-3.19a58.46,58.46,0,0,1,5.15-12.2A65,65,0,0,1,192,70.93c.62-.92,1.33-1.76,2-2.64a30.28,30.28,0,0,1,2.09-2.56l2.2-2.46c.77-.79,1.58-1.53,2.36-2.3l1.19-1.15c.4-.37.84-.71,1.25-1.07l2.53-2.11,2.67-1.94,1.33-1,1.4-.87,2.79-1.74,2.91-1.55c.49-.25,1-.52,1.46-.76l1.5-.67c1-.44,2-.9,3-1.32,2.07-.72,4.1-1.58,6.23-2.1a63.9,63.9,0,0,1,12.93-2.39A67,67,0,0,1,253.36,42a14.08,14.08,0,0,1,2.85.41c.28.13-.5.1-1.58.05l-3.21-.18c6.64.41,11.49,2.18,11.26,2.63-.48.45-6-.47-12.65-.73a68.47,68.47,0,0,0-13.34.94,71.07,71.07,0,0,0-12.82,3.73,68.07,68.07,0,0,0-22.15,14.57c-1.4,1.32-2.6,2.82-3.86,4.27-.64.73-1.15,1.56-1.71,2.34s-1.11,1.57-1.63,2.38A66.9,66.9,0,0,1,227.11,48.5c12.92-4.51,27.15-4.15,40-.15.56.16,1.09.33,1.58.48s.91.37,1.27.53c.73.33,1.17.58,1.16.67s-.46,0-1.18-.17c-.37-.1-.8-.22-1.27-.38l-1.57-.42a63.14,63.14,0,0,0-64.4,17.56,59.38,59.38,0,0,0-9.92,14.22,57.06,57.06,0,0,0-5.17,16.47c-1.85,11.53-.71,23.56.74,35.69,1.38,7.94,2.94,16,3.91,24.41a120.89,120.89,0,0,1,.89,12.9,108.75,108.75,0,0,1-.58,13.21c.17-1.1.38-2.21.52-3.33s.27-2.25.4-3.37a117.76,117.76,0,0,0,.09-21c-.52-6.73-1.42-13.16-2.29-19.4-1.75-12.45-3.41-24.27-2.39-35.66a58.16,58.16,0,0,1,3.77-16.42,55.37,55.37,0,0,1,8.69-14.66A61.73,61.73,0,0,1,230.65,50a9.15,9.15,0,0,1,2.36-.53c.15.06-.62.39-1.81.74a61.4,61.4,0,0,0-28.49,18.74A56.51,56.51,0,0,0,193.86,83l-.78,1.92a19,19,0,0,0-.73,2c-.39,1.33-.87,2.61-1.2,4s-.66,2.73-.91,4.13-.47,2.81-.63,4.25a86.08,86.08,0,0,0-.35,14.37c.23,4.81.78,9.64,1.44,14.48,1.29,9.69,3.08,19.44,4,29.6-.65-10.4-2.27-20.19-3.41-29.63-.59-4.73-1.06-9.37-1.27-13.93-.15-2.29-.12-4.53-.15-6.78s.14-4.46.41-6.64A55.89,55.89,0,0,1,193,88a50.79,50.79,0,0,1,5.59-11.66,58.74,58.74,0,0,1,8.34-10.21,64.93,64.93,0,0,1,10.57-8.25A32,32,0,0,1,221.14,56a2.12,2.12,0,0,1,.73-.52,54.09,54.09,0,0,1,13.44-5.38,11.09,11.09,0,0,1,2.66-.45C238.48,49.64,237.91,49.76,236.88,50.07ZM24.15,43.28,24,43.09l.58.3.9,1.32Zm-8.63,6.3h0L15,48.87ZM118.93,177.42c2.55-4.59,5.21-9.29,7.76-14.36,1.3-2.47,2.51-5.14,3.73-7.78.61-1.31,1.15-2.75,1.72-4.12s1.15-2.76,1.63-4.25l1.49-4.39c.44-1.51.84-3.06,1.25-4.6.19-.77.41-1.53.59-2.32l.44-2.4c.28-1.62.63-3.2.82-4.85a76.6,76.6,0,0,0-.13-20.23,74.12,74.12,0,0,1,.87,19.81c-.08,1.28-.37,2.48-.57,3.72l-.68,3.67c-.53,2.41-1.22,4.72-1.85,7.06s-1.53,4.47-2.34,6.66-1.74,4.24-2.67,6.27A231.54,231.54,0,0,1,118.93,177.42ZM17,38.81a11.47,11.47,0,0,1,2.57,2.24,5.24,5.24,0,0,1,1.76-.39,33,33,0,0,1,4.88.08c-.25-.47.13-.45.32-.52l.59-.17c-1.72-.19-3.47-.49-5.23-.68C20.29,39.19,18.56,39.14,17,38.81ZM5.7,42.68l-.18-.14.15-.79S5.69,42.15,5.7,42.68ZM5.49,44l.26.05C5.72,44.35,5.63,44.27,5.49,44Zm2.33.46a1.39,1.39,0,0,0-.38-.32Zm5.79,21.06,0-3.77-.12,3.64Z"/><path d="M88,110.51c0,.17,0,.34,0,.51-.3,0-.52-.17-.69-.5.49,4.71,5.17,6.24,9,5.63a1.74,1.74,0,0,0,2.65-.34,2.35,2.35,0,0,0,0-3,3.16,3.16,0,0,1-.23-.78,20.26,20.26,0,0,0-1.27-6.65c0,.53.09,1.08.13,1.61a4.44,4.44,0,0,0-.81-1.66l-.25.68a3.74,3.74,0,0,0-1.64-2.78,3.38,3.38,0,0,0-3.13-.24,6.15,6.15,0,0,0-3.87,6.28Z"/><path d="M86.42,118.59a35.63,35.63,0,0,1-1.14-4.38l.1-.48-1.13,1.51.09-.08a7.48,7.48,0,0,1,5.06,1l.61.18a1.44,1.44,0,0,0,1-.45,1.78,1.78,0,0,0,.28-2.26l-.54-.71c-1-2.24-3.18-4.61-6.14-3a6.69,6.69,0,0,0-1.64,2,2.31,2.31,0,0,0-.22,3.13,1.92,1.92,0,0,0,2.88-.17c.08.19.16.4.25.58-.21,0-.4,0-.6,0,.9-.62,1.81-.17,2.71-.13l1,.49,1.29-2.7-.65-.08c-.05.13-.1.33-.11.33a12.75,12.75,0,0,1-3.72-.58L84,112.58a1.55,1.55,0,0,0-1.16,1.51l.09,1c0-.17,0-.33,0-.5.37.79.79,1.55,1.22,2.31s.9,1.48,1.29,2.27a.47.47,0,0,0,.68.23A.61.61,0,0,0,86.42,118.59Z"/><path d="M82,115.17c-.05-.35-.07-.7-.37-.91l-.27.08c0,.19,0,.46,0,.72C81.45,115.58,81.76,115.5,82,115.17Z"/><path d="M81.37,114.34c0-.19,0-.31,0-.31s0,.21-.07.31h.09Z"/><path d="M162.18,146.89a112.59,112.59,0,0,0,24.19,1.41c.27,0,.49-.13.49-.25s-.23-.19-.48-.17a112.17,112.17,0,0,1-24.08-1.46c-.26,0-.49,0-.53.16S161.94,146.84,162.18,146.89Z"/><path d="M225.82,149.37c-.16.15-.11.25.12.23a1.35,1.35,0,0,0,.66-.29c.14-.13.08-.24-.11-.23A1.32,1.32,0,0,0,225.82,149.37Z"/><path d="M227.05,157.37a28.58,28.58,0,0,0-3.13,2,1.66,1.66,0,0,1-.57.24c.13.12,0,.36-.46.59-8.13,4.78-17.67,8.42-27.36,11.37a1.12,1.12,0,0,1-.34.53,6.41,6.41,0,0,1-3.39,1.32l-1.1.09c-4.42.56-8.84.94-13.26,1.09a12.59,12.59,0,0,1-3.07.71,108.69,108.69,0,0,1-11.68,2.33.63.63,0,0,1,.39.51c-.09.46-1,.81-2.12.8l-1.65.05,4.72.3a4,4,0,0,1,.62,0q2.59-.09,5.25-.3A116.15,116.15,0,0,0,192,174.68,143.06,143.06,0,0,0,212.11,167a1.49,1.49,0,0,1,.76-.2c.15,0,.17.17-.06.3-2,1.11-3.86,2.28-5.77,3.42s-3.84,2.22-5.83,3.3-4.05,2.12-6.25,3.09c-1.1.48-2.23.95-3.4,1.41s-2.37.92-3.64,1.3l-4.51,1.42-4.58,1.24c-1.53.44-3.07.78-4.63,1.13s-3.12.74-4.7,1A154.27,154.27,0,0,1,150,187c-6.94-.21-13.66-.55-20.48-1.08a204.91,204.91,0,0,1-20.87-2.79,146.26,146.26,0,0,1-15.59-3.93,133.42,133.42,0,0,1-24.47-9.76,9.6,9.6,0,0,1-4.75-4,5.72,5.72,0,0,1-.25-5.19,6.37,6.37,0,0,1,5.32-3.32l-.87-.6L66.86,155a5.86,5.86,0,0,1-1.67-4.1l0-1.87c.48-3.2,0-6.52,1-9.63l.93-.74v-.44a5.48,5.48,0,0,1,.62-3.52l1-1A14.2,14.2,0,0,1,72.53,131a5.12,5.12,0,0,1,1.26-1.2A7,7,0,0,1,76.38,126a1,1,0,0,1,1-1,.93.93,0,0,1,.49.14h0a9.86,9.86,0,0,0,.18-1c-.17-.31-.26-.51-.26-.51-.51-.78-.51-.78-.93-1.46a4.58,4.58,0,0,1,0-1.62c1.1-2.41,1.11-2.41,1.89-3.17l.31-.14c-.18-.66-.19-.7-.23-.89a2.35,2.35,0,0,1,.08-.5c.37-.46.37-.46.44-.69a2.66,2.66,0,0,1,.27-.35c.65-.29.65-.29.78-.43a2.69,2.69,0,0,1,.34-.13l.61.15c-.42,1.68-.42,1.69-.42,1.69l.46-.29-.31.66.33-.56,0,.56,0-.73c.53.8.53.8.82,1a1.3,1.3,0,0,0,.61.44,2.15,2.15,0,0,1,.19-.29l1.13,1.7a3.43,3.43,0,0,1-.08.48.38.38,0,0,1,.49.13l.32.41H85l0,0,.51,0h.11l2.16.18a8.07,8.07,0,0,1,.47.78,2.43,2.43,0,0,1,0-.38c0-.26.43-.61.4-.71a19.48,19.48,0,0,0-1.62-3.19c-.31-.49-.63-1-1-1.46l-.91-1.5a.83.83,0,0,1-.13-1.12.76.76,0,0,1,1.05-.29,10.72,10.72,0,0,1,1.82.42A11.61,11.61,0,0,1,92.63,115a20.24,20.24,0,0,1,4.54,6c.81,1,1.64,1.91,2.53,2.78v-.33l.56.89.08.08-.09-1.24-.26-.52a14.35,14.35,0,0,1-2.57-3.47l-1.07-1.9c-.34-.66-.67-1.31-1-1.94A26.9,26.9,0,0,1,93.64,111a.82.82,0,0,1,.12-1,.55.55,0,0,1,.86,0,19,19,0,0,1,8.22,10.93,3.86,3.86,0,0,1,1.41,2.09l0,0c0-.34,0-.66,0-1,.39.54.35,1.28.69,1.83.11-.35.23-.7.35-1a46.84,46.84,0,0,0,3.61,3.11,14.2,14.2,0,0,1,3.33,3.49,3.08,3.08,0,0,1,.26.24,7.76,7.76,0,0,1,4.84.94c-.65-.47-1.3-1-1.91-1.43a21.41,21.41,0,0,1,4.83,1.78c.54.29,1.08.61,1.61.95s1.09.65,1.62,1c1.07.7,2.08,1.53,3.05,2.31a18.71,18.71,0,0,1,4.45,5,132.15,132.15,0,0,0,14.25,3.89,116.19,116.19,0,0,0,14.6,2.12c.51,0,1,.26,1,.52s-.31.46-.83.45a96.6,96.6,0,0,1-21.43-2.55,90.67,90.67,0,0,0,18,4.83l2.41.22a16.15,16.15,0,0,1,2.38.38,99.27,99.27,0,0,0,24.11-.1,127.45,127.45,0,0,0,19.88-4.49c4.73-1.5,9.19-3.08,13.56-4.84s8.71-3.55,13.22-5.47c1.17-.58,2.43-.79,2.79-.46s-.31,1.09-1.49,1.69a147.62,147.62,0,0,1-14,6.62c-2.37,1-4.82,1.87-7.24,2.8s-4.91,1.67-7.43,2.34a111.07,111.07,0,0,1-15.39,3.31,95.59,95.59,0,0,1-16,1l-3.48-.09-3.43-.24a.63.63,0,0,1,.05.26,1.14,1.14,0,0,1-.59.91l3.93.35,4,.25c7.35-.74,14.59-1.91,22.42-2.8l4-.45c1.3-.12,2.59-.25,3.86-.42l3.81-.44,3.78-.57A169.25,169.25,0,0,0,229.55,142a.88.88,0,0,1,.61-.15c.13,0,0,.18-.18.31-1.91,1.19-3.94,2.18-6,3.28s-4.14,2-6.29,2.91c.81.07,1.37.32,1.47.75s-.29,1-1,1.57l1.53-.49,1.51-.54c.63-.22,1.18-.24,1.24,0s-.35.58-.94.8c-1,.39-2.07.75-3.11,1.08l-3.13,1c-2.1.64-4.21,1.21-6.32,1.8a146.72,146.72,0,0,1-15.25,4,3.32,3.32,0,0,1,1.73,1h0l2.41-.48A243.53,243.53,0,0,0,240.2,142c.27-.14.52-.19.58-.11s-.12.26-.37.38c-4.15,2.1-8.3,4.18-12.55,6h0c.2,0,.28.07.12.22a1.49,1.49,0,0,1-.67.29c-.22,0-.25-.09-.12-.22a243.24,243.24,0,0,1-24,9.11,203.94,203.94,0,0,0,22.58-7.14l2.23-1.37a1,1,0,0,1,.64-.13c.1,0,0,.21-.24.33l-.62.37c1.39-.55,2.62-.63,2.82-.15s-.88,1.42-2.33,2c-3.82,1.79-7.73,3.33-11.7,4.73q-.63.28-1.26.54l-1.23.67A162.19,162.19,0,0,0,232.63,151c.5-.25,1-.33,1.09-.17s-.25.5-.76.76a155.45,155.45,0,0,1-15.81,7.6,153.32,153.32,0,0,1-16.88,5.65l-5.51,2.65c-1.87.85-3.78,1.66-5.72,2.51l1.53-.24a79.27,79.27,0,0,0,17.89-5.63c5.57-2.34,10.89-5,16.56-7.61.28-.15.56-.17.63-.1s-.09.25-.39.38c-2.74,1.37-5.4,2.6-8,4s-5.34,2.59-8.22,3.71c-4.74,2-9.37,3.57-13.93,5.31,9.56-2.3,18.24-6.09,27-10a2.46,2.46,0,0,1,1.07-.29c0-.06.07-.14.17-.22,1-.72,2.13-1.4,3.29-2.07a1.08,1.08,0,0,1,.69-.18C227.39,157.06,227.29,157.2,227.05,157.37ZM90.39,130v-.24l.2.55-.18,1.5Zm-9.59-.88h0c.09-.5.15-.86.15-.86C80.9,128.6,80.85,128.87,80.8,129.1Zm63.32,18.44a51.36,51.36,0,0,1-12.37-4.62c1,.27,2,.6,3.05.82,1.53.63,3,1.32,4.61,1.95Zm-55.19-25a13.19,13.19,0,0,1,0,3.14,3.78,3.78,0,0,1,1.28.76,34.14,34.14,0,0,1,3,2.77c.12-.5.34-.27.5-.22l.46.19q-1.43-1.65-2.81-3.37A24.66,24.66,0,0,1,88.93,122.53Zm-8.45-4.74,0-.21.66-.4Zm-1.1.69.08.21C79.23,118.86,79.25,118.74,79.38,118.48Zm.78,2a1.59,1.59,0,0,0,0-.48ZM67.75,138.14l2.93-2.38L67.78,138Z"/><path d="M127.43,24.87l.27,0c0,.16-.17.27-.36.35,2.45,0,3.94-2.31,4.34-4.49a1.11,1.11,0,0,0,.33-1.51,1.08,1.08,0,0,0-1.51-.34,1.72,1.72,0,0,1-.44.06,8.47,8.47,0,0,0-3.68.26h.86a2.61,2.61,0,0,0-1,.4l.3.18a2.53,2.53,0,1,0,.27,5.06Z"/><path d="M131.28,26.32c-.79.11-1.57.18-2.36.24l-.23-.08.6.71,0-.06a4.54,4.54,0,0,1,1.25-2.62l.18-.31a.77.77,0,0,0-.07-.58.8.8,0,0,0-1.09-.34l-.45.24c-1.3.34-2.85,1.51-2.43,3.17.1.39.49.67.77,1a1.12,1.12,0,1,0,1.86-1.24l.32-.09-.06.32c-.19-.53.18-1,.34-1.45l.4-.5-1.15-.92-.15.35.15.08a10.28,10.28,0,0,1-.85,2l-.36.94a.69.69,0,0,0,.61.7l.49,0-.25,0c.89-.28,1.74-.7,2.63-1a.28.28,0,1,0-.12-.54Z"/><path d="M129,28.36a.64.64,0,0,0-.5.14v.14l.37,0C129.09,28.69,129.09,28.52,129,28.36Z"/><path d="M128.45,28.64h-.15l.14.06v-.05Z"/><path d="M150.33,8.35a37.7,37.7,0,0,0,3.69-2s0-.1,0-.17-.12-.1-.16-.08a41.26,41.26,0,0,1-3.7,2s0,.1,0,.17A.21.21,0,0,0,150.33,8.35Z"/><path d="M164,9a.23.23,0,0,0,.13.17c.06,0,.11,0,.09-.07a.26.26,0,0,0-.14-.17C164,8.88,163.93,8.92,164,9Z"/><path d="M168,14.67a1.89,1.89,0,0,0-.11.74c0,.05,0,.06-.08.05a.4.4,0,0,1,.13.32,15,15,0,0,1-2,4.47,1.82,1.82,0,0,1,.16.31c.14.34.09.61-.11.69l-.18,0c-.64.23-1.24.49-1.89.7a.79.79,0,0,1-.16.52,15.67,15.67,0,0,1-.59,2,.93.93,0,0,1,.25.24c.18.25.22.51.09.59l-.17.16.67-.22h.11a4.18,4.18,0,0,0,.57-.47,15.25,15.25,0,0,0,3.23-6c0-.06,0-.08.11,0a.22.22,0,0,1,.11.18c-.06,2,.32,4.3-.21,6a31,31,0,0,1-2.25,5.57c-1.46,1.13-2.36,2.77-3.51,4.35a18.34,18.34,0,0,1-1.21,1.52,1.65,1.65,0,0,1-.2.21l-.33.31-.67.61-1.36,1.2c-1.82,1.58-3.68,3.09-5.59,4.61a3.32,3.32,0,0,1-4.7,0,3.4,3.4,0,0,1-.94-2.89l-.36.26-.69.26a2.9,2.9,0,0,1-2.05,0l-.86-.3c-1.41-.75-3-1.06-4.36-1.93l-.25-.52-.2-.06a2.82,2.82,0,0,1-1.58-.73l-.4-.58a7.15,7.15,0,0,1-.87-2.15,2.81,2.81,0,0,1-.43-.75,3.38,3.38,0,0,1-1.54-1.68.48.48,0,0,1-.25-.8h0l-.46-.19-.28.09-.82.33a2.29,2.29,0,0,1-.8-.12c-1.06-.75-1.06-.75-1.34-1.21l0-.16-.47.05a1,1,0,0,1-.24-.07c-.19-.22-.19-.22-.29-.27a2.09,2.09,0,0,1-.15-.17c-.06-.35-.06-.35-.11-.43a.94.94,0,0,1,0-.18,2.94,2.94,0,0,0,.15-.31l.79.33-.08-.26.29.21-.24-.21.29,0-.36-.07a1.91,1.91,0,0,0,.62-.35.78.78,0,0,0,.3-.29l-.12-.12,1-.46.23.09a.23.23,0,0,1,.13-.24l.26-.13,0-.07,0,0,.1-.26V26.8h0c.06-.18.16-.44.41-1.13a2.69,2.69,0,0,1,.45-.16l-.19,0c-.13,0-.24-.29-.29-.29a17.66,17.66,0,0,0-3.59,1.35.42.42,0,0,1-.58,0,.41.41,0,0,1,0-.59,8.91,8.91,0,0,1,6.42-5.1q.94-.47,1.86-1l-.16-.05.55-.16,0,0-.63-.15-.31,0a26.51,26.51,0,0,1-4.53,1.63,21.6,21.6,0,0,1-2.51.55.36.36,0,0,1-.5-.13.37.37,0,0,1,.13-.5c1.85-1.87,4.4-3.44,7.1-3.37a2.17,2.17,0,0,1,1.33-.44h0l-.49-.15c.34-.14.7,0,1-.07l-.44-.37c1.6-.8,3-2.09,4.8-2.44l.18-.07a8.61,8.61,0,0,1,.94-1.79l-.46.12a1.47,1.47,0,0,1,.52-.89,3.11,3.11,0,0,1,3.36.48,49.84,49.84,0,0,0,3.68-3.73c.06-.08.2,0,.31.09s.17.3.11.37A16.74,16.74,0,0,1,148,12.09a15.84,15.84,0,0,0,2.91-1.46l.28-.31a.68.68,0,0,1,.38-.18,13.21,13.21,0,0,0,3-2.76,32.37,32.37,0,0,0,1.94-3.13A12.4,12.4,0,0,1,159.49.08c.14-.18.49,0,.78.27s.4.74.26.92c-1.91,3.18-3.61,6.55-6.6,8.6l-1,.64.12.14a2,2,0,0,1,.31.56,9,9,0,0,1,1.21-.58,6.63,6.63,0,0,1,2.5-2.88,9.25,9.25,0,0,1,2.71-.63c.67-.85,1.28-1.76,2-2.59,0,0,.07,0,.14,0a.24.24,0,0,1,.08.19,14.3,14.3,0,0,1-1,2.4,2.38,2.38,0,0,1,.76.68,2.26,2.26,0,0,1,.42.94l.42-.29c.1-.05.26,0,.37.18s.16.34.08.4l-1.7,1.21c-.52.68-1.07,1.34-1.63,2a3.16,3.16,0,0,1,.77.61h0l.29-.26A13.86,13.86,0,0,1,165.62,7s.11,0,.17.07.07.16,0,.18a10.72,10.72,0,0,0-1.72,1.36h0a.24.24,0,0,1,.14.17c0,.07,0,.1-.09.08a.27.27,0,0,1-.13-.18A14.77,14.77,0,0,0,161.49,12a17,17,0,0,1,2.95-2.25c0-.17.08-.35.11-.52s.09,0,.15,0a.25.25,0,0,1,.08.19l0,.13c.21-.11.58.08.87.46s.36.81.15.94a18.14,18.14,0,0,1-1.44,1.33l-.11.19,0,.31c.91-.47,1.85-.91,2.79-1.32.07-.06.21,0,.32.14s.13.28.07.34A27.67,27.67,0,0,1,164,16.37c0,.94,0,1.89-.06,2.82a1,1,0,0,0,.19-.12c1.54-1.19,1.58-3.85,2.81-5.34,0-.05.1,0,.16,0s.08.15,0,.18A16.4,16.4,0,0,0,166,16.78a15.62,15.62,0,0,0-.9,2.4c1-1,1.56-2.6,2.44-3.79,0-.07.1-.07.18,0a.3.3,0,0,1,0-.11,2.61,2.61,0,0,1,.12-.78c0-.05.07-.05.14,0A.23.23,0,0,1,168,14.67Zm-30.49,11-.12,0h.31l.69.33Zm-1.86,4.64h0l-.39-.18Zm13.72-18.2a4.62,4.62,0,0,1-2.16.9l.37-.42A16.16,16.16,0,0,1,149.35,12.14ZM133.61,25.42a6.08,6.08,0,0,1,1.55.39,2,2,0,0,1,.57-.56,19.56,19.56,0,0,1,1.85-1.1c-.22-.14-.07-.22,0-.29l.18-.21c-.7.32-1.41.63-2.13.94A16.54,16.54,0,0,1,133.61,25.42Zm-3.55,3.93-.1,0-.11-.37Zm.2.61.12,0C130.43,30.07,130.37,30.05,130.26,30Zm1.06-.24a.7.7,0,0,0-.23-.06Zm7.07,8L137.58,36l.73,1.63Z"/><path d="M171.9,269.72l.43.36a1.34,1.34,0,0,1-1.1,0,11.14,11.14,0,0,0,7.13,1.76,15.83,15.83,0,0,0,6.47-1.74c1.31.25,2.47-.3,2.59-1.22s-.85-1.89-2.18-2.18a4.86,4.86,0,0,1-.85-.48,26.34,26.34,0,0,0-6.94-4.42c.53.37,1.06.73,1.57,1.12a8.21,8.21,0,0,0-2.37-.86c.09.18.21.41.31.59-2.67-1.69-6.31-1.8-8-.06s-.87,4.68,1.78,6.35Z"/><path d="M176.88,276c-1.52-.75-3-1.56-4.49-2.42l-.31-.37.18,1.6,0-.1c1.3-1.24,3.53-1.6,5.59-1.81l.73-.17a1.08,1.08,0,0,0,.64-.75c.16-.71-.5-1.48-1.48-1.69l-1.13-.24c-2.76-1.13-7.15-1.71-8.51.92-.3.61,0,1.46.17,2.21a2.55,2.55,0,0,0,2.4,2.27c1.35.15,2.47-.57,2.51-1.61l.7.27-.52.34c.34-.89,1.57-1,2.47-1.42l1.37-.14-.87-2.47-.71.26c.06.1.17.27.16.27a23.22,23.22,0,0,1-4.09,1.41l-1.84.75a1.06,1.06,0,0,0,.19,1.64l.86.6-.39-.35c1.94.69,4,1.15,5.87,1.82a.67.67,0,0,0,.8-.19C177.33,276.44,177.19,276.15,176.88,276Z"/><path d="M170.17,276a1.76,1.76,0,0,0-1.07-.42l-.18.19.63.47C170,276.54,170.21,276.31,170.17,276Z"/><path d="M168.92,275.73l-.26-.2.18.25,0,0Z"/><path d="M282.14,267.64c-1-.54-2-1.07-2.89-1.62-.46-.27-1-.54-1.38-.82l-.89-.83-.44-.41-.64-.43-1.29-.84c-.33-.28-.56-.57-.85-.85l-.41-.42a5.78,5.78,0,0,0-.56-.44l-1.19-.88a8,8,0,0,1-.81-.88,13.92,13.92,0,0,0-2-1.84,22.19,22.19,0,0,1-1.39-1.88c-.23-.32-.4-.63-.69-1l-1-1.05a2.91,2.91,0,0,1-.24-.27l-.14-.26-.29-.53c-.2-.34-.38-.7-.56-1.08a8.31,8.31,0,0,0-.62-1.15,9.9,9.9,0,0,1-.79-1.24l-.42-1.26-.36-1.35-.29-1.46c-.16-.55-.38-1.1-.49-1.65s0-1.1,0-1.69a12.42,12.42,0,0,0,0-1.85c0-.33,0-.66,0-1l.26-.94a18.51,18.51,0,0,1,.63-1.86c.23-.61.34-1.27.52-1.9a1,1,0,0,1,.2-.45l.25-.41.51-.84c.32-.56.54-1.13.81-1.7a3.29,3.29,0,0,1,.21-.42l.32-.35.63-.71c.94-.92,1.39-2,2.27-2.86a34.52,34.52,0,0,0,2.84-2.41l1.29-1.23c.45-.4.93-.77,1.39-1.16s.92-.77,1.4-1.14l1.55-1a68.67,68.67,0,0,1,6.23-3.62l3.06-1.53,1.46-.74.72-.37.37-.18c.14,0,.31,0,.47-.07l1.9-.22.95-.11.47-.05.36-.16,1.41-.65.71-.32c.13,0,.21-.13.37-.14h2.49a5.29,5.29,0,0,0,1.87-.18l1.63-.48.82-.24c.11-.07.34,0,.52,0l.56,0,2.24.17c.38,0,.75.07,1.12.08l1-.13,2.07-.27c.36,0,.66-.11,1.06-.12l1.19-.06a48.61,48.61,0,0,1,4.9-.09l2.62.07a26,26,0,0,0,2.64-.1,12.58,12.58,0,0,0,3.48-.48c0-.19-1.51-.27-3.27-.14-.89,0-1.79.11-2.67.13l-2.65-.07c-.87,0-1.81-.07-2.62,0l-2.38.11-1.19.06a9.13,9.13,0,0,0-1.13.1l-2.08.29a15.85,15.85,0,0,1-4.4,0l-1.13-.08a.84.84,0,0,0-.47.06l-.41.13-1.64.5-.82.25c-.31,0-.66,0-1,0l-2,0a7.68,7.68,0,0,0-1,0l-.7.34-1.41.67a3.57,3.57,0,0,1-.74.3l-.95.11-1.91.23a3.6,3.6,0,0,0-.91.16l-.73.38-1.45.76-3,1.56c-1,.49-2.07,1.14-3.11,1.71s-2.07,1.23-3.1,1.91a22.17,22.17,0,0,0-3,2.13l-1.39,1.17c-.46.39-.86.82-1.3,1.23s-.83.84-1.32,1.24l-1.47,1.19-.37.3-.18.15-.13.18-.52.74a13.17,13.17,0,0,1-1.09,1.46l-1.27,1.43-.77,1.72c-.29.56-.67,1.11-1,1.68a1,1,0,0,0-.18.45l-.12.48-.23,1a12.47,12.47,0,0,0-1,3.76l.05,1c0,.33,0,.6-.05.9a14.47,14.47,0,0,0-.05,1.72c.53,2.34.82,4.16,1.39,5.82a3.73,3.73,0,0,0,.67,1.25l.41.63c.1.19.18.37.26.55.34.76.72,1.45,1.09,2.16a28.24,28.24,0,0,1,3,3.94,2.09,2.09,0,0,0,.47.47l.55.47a6.48,6.48,0,0,1,.95.92l.73.89a2.8,2.8,0,0,0,.53.44l.59.45a10.14,10.14,0,0,1,1.85,1.73c.62.57,1.75,1.14,2.37,1.7.87,1.12,3.05,2.24,5,3.31a12.65,12.65,0,0,0,2.54,1.11C283.77,268.57,283.14,268.17,282.14,267.64Z"/><path d="M301.49,95.89c-.19.9,0,.9.35,0a13.79,13.79,0,0,0,.55-1.42,15.57,15.57,0,0,0,.5-1.51c.19-.73,0-.77-.35,0a12.75,12.75,0,0,0-.64,1.5A14.93,14.93,0,0,0,301.49,95.89Z"/><path d="M310.8,105.37A35.52,35.52,0,0,0,312.18,117a9.94,9.94,0,0,1,.35,2c.18-.28.58.47,1.07,1.93,2.37,7.21,6.17,14.37,10.61,21.64.54.91,1.11,1.83,1.69,2.74l1.74,2.76,1.78,2.78.91,1.4.89,1.34c1.11,1.68,2.37,3.48,3.66,5.3s2.61,3.71,3.93,5.57a272.61,272.61,0,0,1,15.66,24.36,98.18,98.18,0,0,1,6.76,14.69,50.43,50.43,0,0,1,2.39,9.31,31.16,31.16,0,0,1-.43,12.79,10.69,10.69,0,0,1-.62,3.8,15.27,15.27,0,0,1-1,2.63,17.77,17.77,0,0,1-1.75,3,26.11,26.11,0,0,1-2.58,3.16,35,35,0,0,1-3.31,2.84c-1.14.76-2.38,1.51-3.68,2.2l-.25.12-.17.08-.32.14-.65.27-1.32.55c-.9.35-1.82.7-2.76,1s-1.74.42-2.62.63l-1.32.28-.66.13-.29.06h-.14l-1.08.06a23.17,23.17,0,0,1-6.65-.6c-2.23-.47-4.46-1.09-6.76-1.51a24.37,24.37,0,0,0-7-.35,26.83,26.83,0,0,0-6.9,1.9c-.28.29-.59.57-.89.9s-.65.63-1,1a13.11,13.11,0,0,0-2,2.46,5.15,5.15,0,0,0-.22,2.9,6.76,6.76,0,0,0,1.46,2.82,18.93,18.93,0,0,0,5,4,50.2,50.2,0,0,0,11.14,4.61c-.19-.13-.15-.21.17-.2a31.58,31.58,0,0,1,4.35.93l2.49.6a41.5,41.5,0,0,1-6.33-2,4.67,4.67,0,0,1-.73-.34,25.69,25.69,0,0,1-6.75-3.87,6.86,6.86,0,0,1-2.49-3.61,4.28,4.28,0,0,1,1.48-3.82,13.9,13.9,0,0,1,3.37-2.38c.6-.35,1.24-.58,1.87-.88.31-.13.65-.21,1-.32a7.23,7.23,0,0,1,1-.26c2.7-.61,5.45-.2,8.22.2a26.13,26.13,0,0,0,4.28.32,15.29,15.29,0,0,0,2.22-.21l1.12-.25.28-.06.79-.22,1.65-.44,1.64-.45a8.41,8.41,0,0,0,.84-.24l.9-.34c1.21-.47,2.4-1,3.59-1.46l.89-.38c.44-.22.93-.48,1.39-.74.93-.51,1.84-1.06,2.73-1.63a34.27,34.27,0,0,0,2.74-2.17c.45-.38.88-.77,1.31-1.17s.83-.89,1.23-1.35a32.38,32.38,0,0,0,2.24-2.89c.64-1,1.23-2.05,1.78-3.11a30.33,30.33,0,0,0,2.22-6.18c.2-1,.38-1.93.54-2.89.09-.51.11-.93.15-1.35l.08-1.29.06-1.3,0-.64,0-.57c0-.76-.08-1.52-.13-2.28,0-.37,0-.78-.09-1.12l-.14-1-.31-2c-.24-1.28-.53-2.44-.82-3.66s-.64-2.2-1-3.3l-1.09-3.05a96.61,96.61,0,0,0-4.94-10.63,189,189,0,0,0-11.09-17.84c-3.8-5.53-7.73-10.82-11.39-15.84a10.33,10.33,0,0,1-1.44-2.35c-.12-.46.09-.49.63.2,4.8,6,10,12.26,15,18.78,2.52,3.26,5,6.64,7.42,10.23a111.87,111.87,0,0,1,7.08,11.8,70,70,0,0,1,3.24,7.18c.26.62.49,1.38.74,2.06s.48,1.38.7,2.16a46.76,46.76,0,0,1,1.17,4.94l.24,1.35a13.33,13.33,0,0,1,.2,1.43c.11,1,.19,2.07.26,3.11,0,.49,0,1.14,0,1.73l-.06,1.8c0,.62,0,1.16-.13,1.85s-.19,1.37-.31,2.06-.25,1.37-.39,2.06-.4,1.49-.63,2.23-.5,1.51-.78,2.26c-.14.38-.28.74-.44,1.12l-.57,1.17a34.71,34.71,0,0,1-2.66,4.54,40.45,40.45,0,0,1-3.47,4.14,45.68,45.68,0,0,1-4,3.38,38.94,38.94,0,0,1-4,2.52l-1,.56-.39.2-.31.14-1.24.56-2.52,1.07a35,35,0,0,1-4.75,1.6l-2.17.63-.48.19a10.2,10.2,0,0,1-3.73.65,18.63,18.63,0,0,0-3.81.17,5.76,5.76,0,0,0-3,1.65,4.52,4.52,0,0,0-1.56,3,2.94,2.94,0,0,0,.89,2,7.93,7.93,0,0,0,1.85,1.42,23.61,23.61,0,0,0,7.42,2.56c1.08.2,2.05.4,2.91.63.42.11.82.23,1.2.35l.27.09.14.05.9.53c1.21.73,2.35,1.36,3.72,2.26a86.08,86.08,0,0,1,15.58,12.64,49,49,0,0,1,3.48,4.12l.42.55a3.84,3.84,0,0,1,.23.34l.26.41,1,1.62a27.35,27.35,0,0,1,1.89,3.41,19,19,0,0,1,1.22,14.4c-.22.56-.42,1.13-.68,1.67s-.58,1.05-.88,1.57a16.49,16.49,0,0,1-2.32,2.74,8.85,8.85,0,0,1-1.35,1.18l-1.46,1.06c-.53.3-1.07.58-1.62.86l-.82.41-.88.31c-.58.21-1.18.4-1.78.59s-1.24.28-1.86.41-1.27.22-1.91.31-1.3.11-1.95.14-1.31.05-2,.05l-1.63-.05-1.61-.06h-.41l-.28,0-.53-.05-17-1.39c-11.33-.91-22.65-1.86-34.11-2.53-5.74-.36-11.48-.71-17.3-.94s-11.66-.49-17.57-.55a420.3,420.3,0,0,0-46.83,1.45l-2.85.25-1.42.14-.29,0-.9.15-1.79.31-3.57.56c-2.36.35-4.72.75-7,1.18s-4.66.84-7,1.28c-3.47,1.06-6.61-.22-7.11-3.08a5.54,5.54,0,0,1,1.92-4.88l-.87.09-1.37-.14a4.68,4.68,0,0,1-3.14-1.66l-1-1.12c-1.33-2.18-3.49-3.95-4.67-6.42l.19-1-.26-.25a4.46,4.46,0,0,1-1.73-2.52l0-1.2a10.24,10.24,0,0,1,1.11-3.94,3.48,3.48,0,0,1,.17-1.47,5,5,0,0,1-.59-3.88.72.72,0,0,1,.08-1.17,1.08,1.08,0,0,1,.5-.18h0a9.06,9.06,0,0,0-.56-.75c-.37-.1-.59-.18-.59-.18-1-.22-1-.22-1.83-.43a5.18,5.18,0,0,1-1.23-1c-.93-2.2-.94-2.22-.87-3.15a2.2,2.2,0,0,1,.15-.26c-.68-.34-.72-.37-.91-.48a2.83,2.83,0,0,1-.33-.38c-.06-.51-.06-.51-.19-.7a3.08,3.08,0,0,1-.05-.39c.33-.55.33-.55.33-.71a1.66,1.66,0,0,1,.19-.26l.66-.22,1,1.36.18-.43.25.61-.16-.56.49.36-.56-.51a5.22,5.22,0,0,0,1.55.27,2.13,2.13,0,0,0,.9,0,1.61,1.61,0,0,1-.06-.29c1.19.27,1.19.28,2.34.56.11.13.2.25.29.37a.53.53,0,0,1,.54-.17l.61.13.12-.07v0l.5-.22.1-.06h0c.71-.31,1.44-.64,2.16-.93a8.83,8.83,0,0,1,1,.33l-.29-.25c-.19-.19,0-.62-.13-.67a52,52,0,0,0-8.08-2.5,1.05,1.05,0,0,1-1.06-.69c-.08-.41.25-.73.75-.74a19,19,0,0,1,8.94-.91,34.49,34.49,0,0,1,9,2.53c1.48.36,2.93.78,4.4,1.14l-.2-.24,1.13.47.13,0-.86-.86-.59-.3a88.26,88.26,0,0,1-9.94-3.55c-1.82-.66-3.39-1.66-5.15-2.47-.46-.1-.78-.43-.74-.77s.46-.5.91-.41a41,41,0,0,1,8.92,1.4,23.54,23.54,0,0,1,7.91,3.64A6.72,6.72,0,0,1,198,272.4h0c-.21-.24-.41-.46-.61-.7.76.26,1.15.82,1.84,1.13L199,272c1.88.52,3.84.88,5.73,1.37a26.29,26.29,0,0,1,5.46,1.8,2.55,2.55,0,0,1,.39.13,21.81,21.81,0,0,1,2.31-.38l.6,0a1.11,1.11,0,0,1,.19,0l.94.14,1.91.29q3.84.57,7.93,1.26l-5.5-1.08-2.74-.54-2.6-.53,5.81.82,6,.92c4,.71,8.06,1.41,12.26,2.24,5.65,1.22,11.49,2.32,17.17,3.68s11.27,2.57,16.51,3.85c10.47,2.5,19.55,4.88,25.34,6.56,10.77,2.07,21.52,4.07,32.27,5.93,5.37.89,10.75,1.82,16.12,2.61l4,.61,2,.29c.42,0,.84.06,1.26.12a1.87,1.87,0,0,0,.45,0h.36c.24,0,.49,0,.73-.06a4.4,4.4,0,0,0,1.38-.41,2.4,2.4,0,0,0,1.41-2.33,5.16,5.16,0,0,0-1-2.68l-.24-.33a2.94,2.94,0,0,0-.35-.43L354,294.6l-1.21-1.18c-.4-.39-.86-.76-1.3-1.13a43.07,43.07,0,0,0-5.87-4.08,58.17,58.17,0,0,0-6.59-3.35,13.07,13.07,0,0,0-1.87-.69l-2-.64-6.54-2.1c-.3-.09-.56-.19-.89-.27l-1.1-.17-2.21-.35-4.43-.69c-1.41-.2-3.12-.56-4.71-.85l-4.84-.93-2.43-.46-2.12-.62-4.26-1.23-2.13-.62-1.07-.31c-.35-.1-.6-.21-.91-.31l-3.53-1.24-2.75-1-1.21-.46a5.49,5.49,0,0,1-.71-.38c-.8-.47-1.28-.82-1.3-.95s.61.06,1.44.38c.42.16.91.36,1.45.6.21.11.69.26,1.12.41l1.39.47,5,1.71,1.26.43,1.5.42,3,.86,3,.85a26.08,26.08,0,0,0,3.11.79l6.74,1.29c2.32.47,4.31.76,6.37,1.09l3.07.5,1.53.25a3.41,3.41,0,0,1,.68.16l.6.2,8,2.59,1.41.47,1.24.56c.81.38,1.66.73,2.45,1.15s1.6.82,2.38,1.26l2.3,1.34a37.27,37.27,0,0,1,7.91,6.43l.78.87.4.55a8.54,8.54,0,0,1,.64,1.06,5,5,0,0,1,.63,2.36,2.79,2.79,0,0,1-1.08,2.13,4.59,4.59,0,0,1-2.29.87,8.65,8.65,0,0,1-1.25.08c-.12,0-.18,0-.35,0l-.48-.06-1-.07-5.86-.85c-3.91-.55-7.82-1.16-11.74-1.8,3.27.56,6.54,1.14,9.81,1.64l4.9.78,2.46.37c.47.08.68.08,1,.11l.83.1.34,0h.84a8.19,8.19,0,0,0,1.11-.12,4.5,4.5,0,0,0,2.07-.85,2.93,2.93,0,0,0,1.12-1.9,4.49,4.49,0,0,0-.27-2.23,8.53,8.53,0,0,0-1.09-2.06c-.13-.18-.22-.33-.38-.54l-.69-.78a17.43,17.43,0,0,0-1.45-1.55,42.62,42.62,0,0,0-7-5.5,60.38,60.38,0,0,0-8.29-4.38c-1.71-.61-2.78-1-5.83-2.05l-1.95-.66-1-.34a5.82,5.82,0,0,0-1.05-.29l-4.88-.9-2.5-.45c-.84-.15-1.79-.36-2.68-.54l-5.45-1.12-1.37-.28c-.45-.1-.82-.23-1.23-.35l-2.44-.71-4.88-1.43c-1.47-.47-2.74-.93-4.1-1.4l-4-1.4-5.28-2.52c-2.12-.94-4.17-1.89-6.07-2.89a11.56,11.56,0,0,1-2.34-1.51c-.7-.5-1.79-1-2.54-1.55l-1-.78c-.17-.14-.3-.26-.5-.4l-.62-.41-1.25-.82-.88-.83-.44-.41-.58-.44-1.16-.88c-.55-.6-1.11-1.16-1.63-1.78-.28-.31-.5-.6-.82-.93l-1-1-.26-.25-.18-.25-.35-.51a12.32,12.32,0,0,1-.69-1c-.25-.37-.41-.69-.72-1.09l-.89-1.19-.55-1.21c-.18-.41-.33-.86-.5-1.29s-.27-.92-.41-1.38-.36-1-.53-1.54a2.21,2.21,0,0,1-.14-.8l-.06-.8v-1.71L264,240l0-.47a2.39,2.39,0,0,1,.09-.45,14.16,14.16,0,0,1,.5-1.77,16.65,16.65,0,0,0,.56-1.78c.09-.3.16-.6.26-.9l.48-.79.48-.78.41-.8a4.8,4.8,0,0,1,.94-1.5c.4-.44.83-.89,1.21-1.34l1-1.35a5.47,5.47,0,0,1,1.29-1.19c.46-.37.95-.74,1.39-1.12.87-.74,1.67-1.54,2.58-2.25l1.36-1.06a10.39,10.39,0,0,1,1.42-1l3-1.84,3-1.6c1-.53,2-.94,3-1.42l2.91-1.32.72-.33a4.9,4.9,0,0,1,.89-.12l1.81-.2.92-.1a3.81,3.81,0,0,0,.72-.25l1.41-.56.7-.27a7.05,7.05,0,0,1,.93,0h2.85l.8-.21,1.6-.42.4-.1a.92.92,0,0,1,.45,0l1.07.07,2.14.15a8.14,8.14,0,0,0,2.05-.12l2-.25a7,7,0,0,1,1.08-.09l1.13-.07,2.28-.12c1.38,0,2.84,0,4.26,0a17.18,17.18,0,0,0,2.14-.09l2.15-.17c1.4-.16,2.92-.1,4.4-.12H331c.25,0,.22-.05.3-.09l.18-.13.36-.25,1.32-1a7.77,7.77,0,0,1,.91-.54l.12-.05.06,0h0c1.35,2.89-3-6.48,3,6.48v0l0,.09c.1.25.21.49.33.74a7.85,7.85,0,0,0,.44.73c.16.24.38.51.4.58a3.19,3.19,0,0,0,.57.7l.09.08h0a.23.23,0,0,0,.05.05l0,0,0,0-.07-.05a1.1,1.1,0,0,0-.28-.18l-.26-.12-.06,0-.16-.08-.32-.16c-.21-.09-.42-.16-.63-.23l-.32-.08a1.42,1.42,0,0,1-.38-.1,10,10,0,0,0-2-.44l-.49-.05-.7-.11c-.46-.07-.93-.12-1.39-.15-.95-.08-1.69,0-3-.08h-1s-.05-.18-.06-.25a30.93,30.93,0,0,0-1.72-5.33c-.95-2.36-2.22-5-3.62-7.68s-3-5.5-4.66-8.35c-3.36-5.74-7.12-11.64-11.19-18.21-1.44-2.34-2.89-4.71-4.44-7.41l-.57-1-.49-.9-1-1.78-1.95-3.64c-2.59-4.91-5.14-10.07-7.41-15.6a107,107,0,0,1-5.7-17.83,74.73,74.73,0,0,1-1.71-20.39c.16-1.79.34-3.57.56-5.34s.63-3.55,1-5.31a63.31,63.31,0,0,1,3.34-10.19,69.85,69.85,0,0,1,10.56-17.1,82.76,82.76,0,0,1,13.62-12.93,111.72,111.72,0,0,1,14.87-9.43c5.33-2.9,10.41-4.77,11.25-4.71S336.23,46.16,331,49c-2.55,1.4-5.1,2.89-7.62,4.52s-5.05,3.36-7.5,5.26A87.71,87.71,0,0,0,308.66,65,83.47,83.47,0,0,0,302,72.17,68,68,0,0,0,291.4,89.93a57.8,57.8,0,0,0-3.08,10.53,53.73,53.73,0,0,0-.82,5.44l-.25,2.73c-.09.92-.05,1.81-.08,2.71a75.32,75.32,0,0,0,2.67,20.58,115.56,115.56,0,0,0,6.51,17.86c2.51,5.53,5.23,10.72,7.94,15.66l1,1.86,1.16,2,2.27,3.81c1.48,2.45,2.93,4.8,4.37,7.11,2.86,4.62,5.64,9.1,8.21,13.55s4.95,8.85,6.88,13a61,61,0,0,1,2.39,5.94,21,21,0,0,1,1.09,4.3,3.2,3.2,0,0,0,.05.43s0,0,0,0H332a16,16,0,0,1,2.15.26,12.7,12.7,0,0,1,1.59.22,7,7,0,0,1,.79.2l.4.12a2.75,2.75,0,0,0,.27.07,5.59,5.59,0,0,1,1,.32l.47.23a.77.77,0,0,1,.19.08,1.83,1.83,0,0,1,.43.26h0l0,0-.05,0v0l0,0-.14-.13a4.17,4.17,0,0,1-.44-.54,2.66,2.66,0,0,0-.19-.3,6,6,0,0,1-.38-.55,7.18,7.18,0,0,1-.59-1.13l-.11-.28c-3.28-7-.92-2-1.66-3.52l0,0-.06,0-.23.1-.45.21c-.31.16-.59.3-.91.5l-1.24.71-.61.36-.16.09a1.63,1.63,0,0,1-.35,0h-.78l-3.15,0c-2.08,0-4.08.3-6.11.3s-4.08-.12-5.85,0l-1.38,0c-.47,0-.93,0-1.33.06l-2.48.2a12.13,12.13,0,0,1-2.6-.12l-1.32-.12-.66-.06a2.21,2.21,0,0,0-.54.07,15.14,15.14,0,0,1-4.38.44l-1.2,0a2.53,2.53,0,0,0-1.1.09l-1.87.56a8.6,8.6,0,0,1-2.18.31l-1.17.09-.59,0-.29,0-.24.09c-1.3.5-2.53.93-3.89,1.49l-2,.81c-.67.29-1.35.63-2,.94s-1.35.62-2,1l-2,1.14a30.29,30.29,0,0,0-3.78,2.52c-1.21.91-2.24,1.9-3.55,2.84s-2.14,2.13-3.25,3.26a6.93,6.93,0,0,0-1.46,1.83l-.57,1-.65,1a6.08,6.08,0,0,0-.78,1.94c-.2.67-.47,1.33-.67,2-.5,1.3-.17,2.83-.22,4.06a13.81,13.81,0,0,0,.19,1.84c.21.58.47,1.22.64,1.74a18.18,18.18,0,0,0,1.21,3,16.82,16.82,0,0,0,1.83,2.64,24.68,24.68,0,0,0,1.76,2.31l1.22,1.11c.37.36.66.68,1,1s.66.66,1,1a7.33,7.33,0,0,0,1.11,1,.14.14,0,0,1,.18-.09,4.36,4.36,0,0,1,1.16.4l.9.44c.34.17.71.36,1,.55a27.52,27.52,0,0,1-2.81-2.14c-.4-.36-.79-.73-1.17-1.12s-.75-.75-1.25-1.18a14.11,14.11,0,0,1-2.34-2.55c-.34-.45-.64-.88-1.08-1.39l-.61-.75a6,6,0,0,1-.45-.76,18.25,18.25,0,0,1-1.48-3.35l-.37-1a2.85,2.85,0,0,1-.29-1l-.14-1,0-1.08-.05-1.14a3.16,3.16,0,0,1,.06-1.15l.26-1.13.39-1.1c.29-.72.45-1.5.8-2.18s.87-1.31,1.24-1.95l.38-.67a2.37,2.37,0,0,1,.43-.65l1.07-1.15c.72-.76,1.26-1.57,2-2.26s1.69-1.27,2.44-1.91,1.5-1.31,2.34-1.88l1.22-.89a9.86,9.86,0,0,1,1.26-.84l2.65-1.54c.89-.52,1.8-.88,2.7-1.33.45-.22.9-.45,1.35-.64l1.35-.55c.9-.36,1.82-.74,2.67-1l1.31-.49a3.74,3.74,0,0,1,1.4-.35c1-.1,2.14-.15,3.12-.3l2.55-.74c1,0,2.16,0,3.24,0h.41l.36-.06.71-.12,1.42-.25a3.31,3.31,0,0,1,.74-.1l.9.08,1.8.16.91.07a8.12,8.12,0,0,0,.86,0l1.71-.13c1.08-.12,2.4-.13,3.67-.17.64,0,1.24,0,1.93,0l2.09,0,2.08,0,2.12-.14c1.4-.1,2.81-.2,4.29-.2l2.2,0h1l.06,0,.45-.25,1.77-1c.45-.25.9-.46,1.36-.66l.17-.07.09,0c2.62,5.6.73,1.57,1.32,2.82v0l0,.05,0,.1a5.9,5.9,0,0,0,.38.81c.27.53.78,1.16.84,1.3a3.52,3.52,0,0,0,.31.39c.1.11.32.3.26.26s.06.08.09.09a2.49,2.49,0,0,0-.6-.34,1.36,1.36,0,0,1-.28-.13l-.36-.16a5,5,0,0,0-.71-.24l-.35-.08-.57-.18c-.39-.1-.77-.19-1.14-.25l-.57-.07-.28,0h-.14l-.19,0-.79-.13-.64-.07c0,.09,0-.24,0-.46s-.05-.39-.06-.59,0-.19,0-.31l-.07-.4-.13-.81-.22-.93-.1-.47-.15-.52-.29-1-.72-2.22a126.35,126.35,0,0,0-5.7-13.26c-2.2-4.51-4.56-9-7-13.58s-4.92-9.1-7.46-14l-1-1.88-1-2-1.7-3.62c-1.13-2.44-2.27-4.91-3.37-7.45-1.56-3.14-3.12-6.32-4.52-9.67-.74-1.63-1.38-3.38-2.06-5.07s-1.28-3.47-1.81-5.3a83.28,83.28,0,0,1-2.75-11.2l-.41-3-.19-1.48-.12-1.51-.19-3v-3.07A56.09,56.09,0,0,1,297.43,87,70.4,70.4,0,0,1,311.1,68.16a13.34,13.34,0,0,1,2.19-1.9c.4-.21,0,.3-.85,1.16a75.6,75.6,0,0,0-9.89,12.33,61.79,61.79,0,0,0-7,15.08,57.08,57.08,0,0,0-2.31,17,68.18,68.18,0,0,0,2.39,16.44,18.56,18.56,0,0,1,0-4.07c.13-1,.36-1.44.71-1.37.75.13,1.72,2.6,3.15,6.21A66.23,66.23,0,0,1,297.17,115a20.16,20.16,0,0,1,.11-3.79c.11-1,.26-1.51.43-1.47s.32.64.43,1.59.13,2.22.25,3.6c.53,9.68,3.43,18.77,7,27.18,1.78,4.22,3.75,8.3,5.81,12.28q1.53,3,3.12,5.91l.78,1.46.84,1.51,1.7,2.95c5.66,9.09,11.4,17.68,16.38,26.61a120.49,120.49,0,0,1,6.61,13.47,51.56,51.56,0,0,1,2.17,6.7,18.64,18.64,0,0,1,.59,6c.14-.48.38-.9.51-1.38s.28-.92.43-1.34a8.54,8.54,0,0,1,.81-2.11h0a47.68,47.68,0,0,0-2.54-8.68,151.24,151.24,0,0,0-10.38-19.15c-3.88-6.28-8-12.46-12.13-18.84-2.06-3.17-4.11-6.61-6-9.88s-3.73-6.7-5.49-10.17-3.38-7.06-4.86-10.74a95.08,95.08,0,0,1-3.66-11.5,66.43,66.43,0,0,1-1.7-12.26,52.79,52.79,0,0,1,1.09-12.57,50.24,50.24,0,0,1,4.17-11.87A60.7,60.7,0,0,1,310.21,78a85.1,85.1,0,0,1,17.38-16.62,204.53,204.53,0,0,1,19.75-12.53,8.86,8.86,0,0,1,2-1A6.73,6.73,0,0,1,347.7,49c-8,4.66-16.12,9.53-23.58,15.56a74,74,0,0,0-18.95,22l.05-.06c.46-.67.66-.72.33.09s-1,2.08-1.42,2.76-.6.65-.35-.06a50.6,50.6,0,0,0-4.57,27.38,82.56,82.56,0,0,0,7.7,25.82c1.85,4,3.86,7.86,5.95,11.63,1.06,1.87,2.12,3.75,3.19,5.59.53.92,1.09,1.86,1.66,2.81l1.71,2.76c4.61,7.24,9.32,14.15,13.68,21.24-3.87-6.69-8.05-13.24-12.17-19.95-1-1.69-2.05-3.38-3.05-5.14S316,158,315,156.26c-1.89-3.46-3.71-7-5.42-10.59a118.34,118.34,0,0,1-4.67-11.11c-.71-1.89-1.29-3.84-1.88-5.78s-1.06-3.93-1.42-6a52.38,52.38,0,0,1,.65-24.57A49.38,49.38,0,0,1,305.77,88a10.41,10.41,0,0,1,1.45-2.27c.24-.18,0,.5-.47,1.41s-.86,1.81-1.25,2.73c2.74-5.6,6.14-9,6.57-8.56.4.69-2.22,5.11-4.67,10.73a44.66,44.66,0,0,0-3.27,11.82,47.24,47.24,0,0,0-.13,12.23,69,69,0,0,0,2.54,12,104.17,104.17,0,0,0,4.37,11.45c.75,1.6,1.56,3.17,2.38,4.74s1.84,3.05,2.78,4.56a136.61,136.61,0,0,1-7.52-17.39,67.6,67.6,0,0,1-3.66-18.29A45.94,45.94,0,0,1,307.8,95a58,58,0,0,1,9.36-15.85c1.32-1.66,2.67-2.89,2.87-2.77s-.79,1.52-2.09,3.17c-6.46,8.58-10.82,18.72-10.7,29.08A51.35,51.35,0,0,0,309.59,124a94.77,94.77,0,0,0,6,14.9c2.41,4.87,5.13,9.65,8,14.45,1.45,2.45,2.81,4.7,4.33,7l4.61,7c3.11,4.73,6.24,9.53,9.24,14.48a160.71,160.71,0,0,1,8.41,15.53,70.38,70.38,0,0,1,5.25,11.29,37.89,37.89,0,0,1,1.72,6.85,24.17,24.17,0,0,1-.28,8.61,18.72,18.72,0,0,1-5.32,9.28,19.78,19.78,0,0,1-2.09,1.75c-.7.47-1.43.94-2.17,1.38-.42.25-.64.34-.92.48l-.83.4-1.67.8c-.55.25-1.13.54-1.68.74l-1.61.55-1.63.55-.41.13-.2.07-.12,0-.48.13c-.64.17-1.26.4-1.89.52l-1.88.33,2,0c.67,0,1.33-.16,2-.24a23.23,23.23,0,0,0,2.34-.53c.92-.25,1.8-.42,2.75-.73l2.86-1.1,1.41-.57.19-.08.24-.12.49-.26,1-.54a18,18,0,0,0,1.9-1.19c.63-.49,1.25-1,1.85-1.51a13.37,13.37,0,0,0,1.69-1.75,18.53,18.53,0,0,0,3.66-6.15c.26-.7.52-1.43.71-2.12s.29-1.35.41-2l.18-1c0-.33.06-.62.08-.94l.12-1.85c0-1.21-.07-2.28-.12-3.42s-.27-2.06-.42-3.09l-.62-2.83a63,63,0,0,0-3.47-9.82c-1.32-3-2.76-5.8-4.25-8.49s-3.05-5.28-4.63-7.8c-3.17-5-6.47-9.79-9.77-14.45s-6.65-9.22-9.54-13.61c-3.05-4.7-6-9.37-8.65-14.16a98.28,98.28,0,0,1-6.85-14.78,54,54,0,0,1-3.14-15.76,5.18,5.18,0,0,1,0-1.4,1.56,1.56,0,0,1,.2-.7c.15-.1.23.62.24,1.7a51.83,51.83,0,0,0,3,15.14,89,89,0,0,0,6.53,14.25c2.57,4.64,5.43,9.19,8.43,13.84l1.12,1.72,1.1,1.64c.78,1.11,1.55,2.23,2.33,3.36l4.93,7a284,284,0,0,1,15.81,24.49,95,95,0,0,1,6.5,14.1c.25.63.44,1.35.66,2s.43,1.35.59,2.1l.53,2.21.4,2.4a28,28,0,0,1-.69,11.66,28.35,28.35,0,0,0,1-11.85,46.82,46.82,0,0,0-2-8.88A90.17,90.17,0,0,0,353,191a250.82,250.82,0,0,0-14.79-23.64c-2.54-3.69-5.11-7.33-7.46-10.83L329,154l-1.75-2.77c-1.14-1.85-2.28-3.69-3.37-5.53-4.36-7.35-8.29-14.77-10.67-22.43a10.5,10.5,0,0,1-.54-2,12.36,12.36,0,0,1-.24-1.63,1.66,1.66,0,0,1-.38-.72,39,39,0,0,1-1.88-12.34,7.32,7.32,0,0,1,.39-2.26C310.73,103.93,310.82,104.46,310.8,105.37ZM188.26,282.09l-.14-.16.52.29.72,1.09Zm-9,3.69h0l-.44-.64ZM355.31,303.1a8.92,8.92,0,0,1-1.71.24h-.86c-.3,0-.79-.09-1.17-.12l-.63-.05-.88-.13-1.76-.26-3.51-.53c-4.68-.69-9.35-1.49-14-2.28-9.31-1.63-18.6-3.37-27.87-5.28l13.61,2.42q10.56,2,21.13,3.83c3.53.62,7.06,1.15,10.6,1.73l2.65.41,1.82.21A10.25,10.25,0,0,0,355.31,303.1ZM182.08,277.59a12.35,12.35,0,0,1,2.12,2.16,5.6,5.6,0,0,1,1.69,0c1.55.19,3.06.41,4.54.71-.19-.39.17-.31.35-.34l.55,0-4.79-1.22A44.47,44.47,0,0,1,182.08,277.59Zm-11.17.94-.15-.16.27-.61Zm-.42,1.05.24.1C170.66,279.91,170.58,279.82,170.49,279.58Zm2.15.86a1.33,1.33,0,0,0-.32-.34Zm2.28,18.18.64-3.14-.72,3Z"/></g></g></svg>