<svg xmlns="http://www.w3.org/2000/svg" viewBox="0 0 432.86 368.01"><g id="Layer_2" data-name="Layer 2"><g id="Layer_1-2" data-name="Layer 1"><path d="M5,49.54l.51.29a1.29,1.29,0,0,1-1.11.37,9.3,9.3,0,0,0,3.84.66A10.93,10.93,0,0,0,12,50.11a15.69,15.69,0,0,0,3.42-1.84,17.8,17.8,0,0,0,2.89-2.48,2.51,2.51,0,0,0,2.46-2.44A2.41,2.41,0,0,0,18,41.26,4,4,0,0,1,17,41,17.2,17.2,0,0,0,13.18,39a25.37,25.37,0,0,0-4.27-1l1.83.79a7.59,7.59,0,0,0-2.61-.19l.45.63A6.57,6.57,0,0,0,.5,42.16C-.84,44.9.63,48,3.63,49Z"/><path d="M11.33,55.69c-1.71-.53-3.37-1.1-5-1.65l-.39-.35.52,1.86v-.13a6.77,6.77,0,0,1,2.24-2.31,17.74,17.74,0,0,1,3-1.51l.71-.42A1.58,1.58,0,0,0,12.88,50,1.7,1.7,0,0,0,11,48.41l-1.2,0a10.61,10.61,0,0,0-2.49-.14,9.45,9.45,0,0,0-2.53.55,4.94,4.94,0,0,0-3.32,3.47,5.34,5.34,0,0,0,.64,2.53A2.47,2.47,0,0,0,5,56.78a2.48,2.48,0,0,0,2.18-2.69l.76.11-.46.57c.15-1.18,1.36-1.69,2.19-2.43L11,51.77,9.61,49l-.67.52c.09.12.23.28.23.29a31.22,31.22,0,0,1-3.82,3L3.67,54.28a1.34,1.34,0,0,0,.54,1.86l1,.44-.47-.29c2.1.25,4.21.16,6.28.52a.66.66,0,0,0,.78-.43A.57.57,0,0,0,11.33,55.69Z"/><path d="M4.57,57.5a1.51,1.51,0,0,0-1.16-.18c-.08.16-.11.24-.13.28L4,58C4.53,58.23,4.69,57.9,4.57,57.5Z"/><path d="M3.28,57.6,3,57.44l.24.24,0,0Z"/><path d="M147.05,321.57a33.17,33.17,0,0,0,12.33,4.92c.6.1,1.18.22,1.79.31l1.92.21,1.91.23,1.94.07,1.95.08,2-.07,2-.07c.66,0,1.32-.14,2-.21a68.38,68.38,0,0,0,30.75-11.58,77.54,77.54,0,0,0,13.06-11.08,86.14,86.14,0,0,0,10.56-13.93,110.29,110.29,0,0,0,13.33-33.76,10.8,10.8,0,0,0,.44-3.11,9,9,0,0,0-.79,2.64A110.69,110.69,0,0,1,229,289.88c-.81,1.23-1.57,2.49-2.38,3.71l-2.54,3.57-2.7,3.41-2.83,3.18a77.88,77.88,0,0,1-12.89,11,68.19,68.19,0,0,1-30.41,11.69l-2,.22c-.65.07-1.3.05-2,.08l-1.94.08c-.65.05-1.29-.05-1.93-.05a34.51,34.51,0,0,1-3.82-.26c-1.25-.17-2.56-.24-3.7-.49a33.46,33.46,0,0,1-12.26-4.73c-.46-.26-.79-.53-1.11-.69a2,2,0,0,0-.61-.24C145.8,320.5,146.3,321,147.05,321.57Z"/><path d="M338.83,53.13c-.68.07-1,.14-1,.19a4.28,4.28,0,0,0,1.11.06c1.21,0,3.37-.12,4.71-.27,1.14-.13,1.09-.26-.12-.25C342.14,52.86,340,53,338.83,53.13Z"/><path d="M328.46,63a80.74,80.74,0,0,0-19,7.55c-1,.56-2.13,1.21-3,1.64.46,0-.71.73-2.93,2.12a95.66,95.66,0,0,0-15.08,12.29l-3.36,3.55L282,93.88c-1.09,1.23-1.94,2.63-2.91,3.94l-1.42,2c-.45.69-.85,1.4-1.28,2.1l-1.26,2.1a19.37,19.37,0,0,0-1.2,2.13l-2.21,4.38a83.26,83.26,0,0,0-3.46,9.14,87.57,87.57,0,0,0-3.74,19.52,151.81,151.81,0,0,0-.16,20.59c.44,7,1.2,14.08,2.09,21.26s1.9,14.48,2.78,21.89,1.62,15,1.92,22.67a12.46,12.46,0,0,1,.54,2.61,96.8,96.8,0,0,1-.46,22.08c-.27,2.26-.68,4.52-1.06,6.77a143.68,143.68,0,0,1-12.75,39.76,123,123,0,0,1-11.06,18.09c-1.09,1.41-2.11,2.86-3.28,4.23l-3.5,4.09-3.72,3.88c-1.27,1.27-2.61,2.46-3.92,3.68a92.51,92.51,0,0,1-15.72,12.55,108.89,108.89,0,0,1-16.68,8.87A95.78,95.78,0,0,1,181,357.77l-4.86.81-4.94.48c-1.65.2-3.33.16-5,.21l-2.51,0c-.84,0-1.68-.07-2.52-.11-1.69-.11-3.35-.15-5.08-.34-.86-.11-1.73-.2-2.59-.32l-2.59-.43a71.12,71.12,0,0,1-10.33-2.69c1.66.77,2.66,1.26,2.57,1.46-.65.28-7.33-1.21-14.57-5.68A53.83,53.83,0,0,1,118.26,343a53.32,53.32,0,0,0,7.23,6.3c1.28.87,2.55,1.8,3.86,2.55l2,1.17,2,1.05a69.24,69.24,0,0,0,16.33,5.85c1.6.34,3.07.64,4.42.89l2.3.32c.76.1,1.5.14,2.25.21l4.51.34c1.5,0,3,0,4.51,0h2.26l2.24-.16c1.5-.11,3-.21,4.5-.36l4.45-.65c1.49-.19,2.95-.52,4.41-.84s2.95-.61,4.38-1A102.6,102.6,0,0,0,208,351.88a109.76,109.76,0,0,0,16.17-9.77,116.52,116.52,0,0,0,14.05-12.23,121.21,121.21,0,0,0,11.63-14.26,132.45,132.45,0,0,0,9-15.52,135,135,0,0,0,6.68-16.29,144.82,144.82,0,0,0,4.52-16.7c.64-2.79,1.05-5.61,1.54-8.41s.81-5.61,1-8.42a160.86,160.86,0,0,0,.82-16.81l0-4.19-.18-4.12c-.07-1.37-.11-2.76-.21-4.11l-.32-4.05c-.89-10.77-2.41-21.13-3.79-31.2s-2.62-19.89-3.08-29.51a117.09,117.09,0,0,1,1.61-28,37.89,37.89,0,0,1,1.06-4c.26-.67.36-.51.08.8-2.48,11.21-2.38,22.65-1.38,34.16s3.18,23.21,5.21,35.57c1,6.16,2,12.55,2.8,19.14.17,1.67.35,3.35.53,5,.08.85.17,1.69.26,2.54l.18,2.6c.12,1.73.25,3.47.34,5.23s.12,3.58.17,5.38a158.39,158.39,0,0,1-5.85,45.51c-5.35,18.84-14.6,37.16-28.85,52.58a113.86,113.86,0,0,1-24.25,19.79,111.77,111.77,0,0,1-14.19,7.33c-1.24.52-2.51,1-3.77,1.48s-2.51,1-3.82,1.39c-2.61.79-5.18,1.7-7.89,2.28l-4,1c-1.36.27-2.74.48-4.11.72-2.74.52-5.55.73-8.36,1-1.4.15-2.82.17-4.24.2l-4.27.06-4.3-.23c-1.44-.09-2.84-.14-4.35-.35a78.84,78.84,0,0,1-17.81-4.13,73.83,73.83,0,0,1-8.88-3.88,65.23,65.23,0,0,1-8.7-5.48,59.29,59.29,0,0,1-8.12-7.29c-1.25-1.42-2.51-2.81-3.64-4.38-.57-.78-1.15-1.54-1.69-2.34L104,337.46c-.52-.82-1-1.66-1.43-2.52s-.89-1.72-1.3-2.58c-.76-1.74-1.56-3.5-2.14-5.26a62.07,62.07,0,0,1-2.74-10.54,74.72,74.72,0,0,1-1-10.1,83.81,83.81,0,0,1,.3-9.46,107.27,107.27,0,0,1,3-17.19A202.11,202.11,0,0,1,109.61,250c4.09-9.11,8.37-17.54,12.33-25.51s7.62-15.53,10.6-22.76A109.79,109.79,0,0,0,139,181.25a66,66,0,0,0,1.12-9.29l.07-2.24,0-2.2c-.1-1.42-.27-2.8-.35-4.19a53.81,53.81,0,0,0-5-16.62,71.77,71.77,0,0,0-25.25-28.35c-1.91-1.13-3.73-2.4-5.7-3.36l-1.44-.77-.71-.4-.75-.32L98,112.18c-1-.46-2.11-.82-3.14-1.24l-1.59-.62c-.52-.21-1.09-.36-1.63-.54l-3.26-1.06L85,107.84c-.56-.14-1.1-.31-1.67-.43l-1.72-.35c-1.14-.22-2.26-.52-3.42-.7-2.33-.36-4.63-.78-7-1s-4.78-.4-7.17-.59c-1.2-.06-2.43-.06-3.64-.1l-1.82-.05c-.62,0-1.23,0-1.85,0l-3.69.06-1.86.11H51l-.1,0-.75.11-1.51.22c-1,.11-2,.31-3,.46s-2,.29-3,.42l-3,.48-3,.45-3.07.55a4.8,4.8,0,0,1-2.25.16,5.16,5.16,0,0,1-2.13-.79,7.19,7.19,0,0,1-2.94-4.08A7.44,7.44,0,0,1,27,96.69l-.81.09-1.36-.22a5.66,5.66,0,0,1-3.4-2l-1.21-1.37c-1.79-2.69-4.33-4.79-6-7.61l0-1.22L13.85,84a6.06,6.06,0,0,1-2.27-2.79l-.24-1.42A14.34,14.34,0,0,1,11.61,75a5.11,5.11,0,0,1-.14-1.78,7.09,7.09,0,0,1-1.42-4.54,1,1,0,0,1-.17-1.41,1,1,0,0,1,.47-.33h0a9.73,9.73,0,0,0-.72-.76A6.21,6.21,0,0,1,9,66.06C8,66,8,66,7.08,66a5.06,5.06,0,0,1-1.46-.92c-1.4-2.33-1.4-2.33-1.53-3.44a3.59,3.59,0,0,1,.08-.35c-.74-.21-.8-.23-1-.3a3,3,0,0,1-.41-.35c-.17-.58-.17-.58-.34-.76a2.5,2.5,0,0,1-.13-.44c.21-.73.21-.73.17-.91a1.62,1.62,0,0,1,.14-.36l.61-.46L4.5,59l.08-.57.38.65-.27-.61.56.28-.67-.44a4.63,4.63,0,0,0,1.61-.13,1.86,1.86,0,0,0,.89-.29A1.68,1.68,0,0,1,7,57.55c1.25,0,1.25,0,2.47,0,.13.12.25.25.36.37a.53.53,0,0,1,.52-.33H11l.11-.11v0l.46-.39.09-.1h0l2-1.71a6.39,6.39,0,0,1,1.09.11c-.12-.08-.24-.15-.36-.24s-.16-.76-.27-.79a35.57,35.57,0,0,0-8.69-.7,1,1,0,0,1-1.21-.49A.86.86,0,0,1,4.76,52c5-4.28,12.38-5.06,18.69-3.46,1.63.11,3.24.17,4.86.23l-.26-.26,1.28.29h.14l-1.06-.92-.68-.22A28.91,28.91,0,0,1,22.17,47c-1.83-.32-3.67-.72-5.55-1-2-.28-3.86-.94-5.83-1.34a.79.79,0,0,1-.9-.7.84.84,0,0,1,.83-.81,30.81,30.81,0,0,1,9.56-1.38,19.92,19.92,0,0,1,9.09,2.26,5.58,5.58,0,0,1,3.22.67h0l-.78-.8c.87.14,1.39.81,2.18,1l-.39-1.15c2.12.2,4.29.11,6.46.26a18.77,18.77,0,0,1,6.25,1.16,3.27,3.27,0,0,1,.45.1,23,23,0,0,1,2.53-1.14c.22-.08.45-.16.67-.22l.09,0h.15l1.68-.06c1.13,0,2.27,0,3.42,0,4.6,0,9.37.23,14.32.68-1.68-.24-3.33-.34-5-.51s-3.32-.35-5-.41l-5-.26c-.83,0-1.66-.1-2.49-.09l-1.24,0h-.87l.3,0,.66,0,1.34,0c.89-.05,1.79,0,2.68,0l5.39,0c1.8.05,3.61.16,5.43.24l2.73.15,2.75.26A142.18,142.18,0,0,1,94,47.72a137.44,137.44,0,0,1,30.89,12,122.86,122.86,0,0,1,26.55,19.2c1.84,1.84,3.68,3.6,5.38,5.43s3.27,3.72,4.82,5.54,2.88,3.76,4.24,5.58l1,1.35.91,1.4,1.77,2.75c.57.9,1.13,1.79,1.69,2.66s1,1.8,1.47,2.68c1,1.76,1.85,3.44,2.66,5.07s1.44,3.29,2.08,4.81a46,46,0,0,1,1.65,4.36,107.82,107.82,0,0,1,9.67,30.62c.33,2.71.65,5.42.92,8.14q.15,4.11.23,8.21a112.18,112.18,0,0,1-1.43,16,137.71,137.71,0,0,1-8.45,29.24,275.75,275.75,0,0,1-12,25.33c-8.37,15.83-16.73,30.26-22.25,44.46-1.36,3.52-2.56,7.08-3.54,10.5a57.26,57.26,0,0,0-1.92,9.53,31.81,31.81,0,0,0,0,7.95,15.1,15.1,0,0,0,1.78,5.39,4.78,4.78,0,0,1,.23.45c.09.14.19.28.27.42s.29.56.45.79a3.56,3.56,0,0,1,.32.66,1,1,0,0,1,.15.43c-.07.32-1.08-.29-1.92-1.56a14.25,14.25,0,0,1-1.78-3.65,21,21,0,0,1-.94-4.95,45.08,45.08,0,0,1,1.26-13.16c.28-1.21.59-2.41.94-3.66s.73-2.57,1.17-3.86.84-2.57,1.33-3.87l.7-1.94.77-1.95c2-5.21,4.44-10.46,7.08-15.79,5.27-10.68,11.44-21.6,17.35-33.44,2.94-5.92,5.83-12.06,8.42-18.57a149.28,149.28,0,0,0,6.59-20.53,167.07,167.07,0,0,1-12.79,33c-5,10.1-10.45,19.47-15.49,28.61a264.1,264.1,0,0,0-13.4,27c-.92,2.24-1.78,4.47-2.55,6.71s-1.49,4.5-2.07,6.61a53.93,53.93,0,0,0-2,12.3,24.84,24.84,0,0,0,1.62,10,21.6,21.6,0,0,0,2,3.69,22.65,22.65,0,0,0,3.06,3.38A32.61,32.61,0,0,0,155.42,329a41.17,41.17,0,0,0,7.64,1.29c.67.06,1.33.17,2,.19l2,.05,2,.05,2-.1a68.68,68.68,0,0,0,31.59-9.93,79.72,79.72,0,0,0,13.71-10.42,82.27,82.27,0,0,0,11.33-13.29,105.34,105.34,0,0,0,14.91-33.41,137.25,137.25,0,0,0,4.17-31.52c.13-5.21-.12-10.54-.42-15.88s-.87-10.78-1.47-16.32c-1.14-11-2.58-22.38-3.24-34.46-.08-1.51-.16-3-.23-4.54s-.07-3.09-.1-4.63c-.11-3.08,0-6.27.09-9.44A130.48,130.48,0,0,1,243.67,127l.67-3.52.9-3.49.92-3.48c.28-1.16.76-2.31,1.13-3.46a72,72,0,0,1,2.56-6.8l1.46-3.31.73-1.65c.27-.54.56-1.06.84-1.59a101.6,101.6,0,0,1,16.17-23.19,109.58,109.58,0,0,1,46.16-29.65A98.13,98.13,0,0,1,342.54,42,107.2,107.2,0,0,1,370,44.67a115.94,115.94,0,0,1,49,24.57q.72.6,1.44,1.17l1.34,1.24,2.56,2.41a60,60,0,0,1,4.3,4.51A26.48,26.48,0,0,1,432.84,84c.2.61-.89-.43-2.9-2.46-1.05-1-2.33-2.22-3.77-3.65l-1.11-1.1-1.23-1.11-2.63-2.38a116.36,116.36,0,0,0-50.55-26.26,104.58,104.58,0,0,0-28.86-2.63,99,99,0,0,0-28.58,5.74,106.76,106.76,0,0,0-46.77,33.25,98.74,98.74,0,0,0-14.85,25.2,107.44,107.44,0,0,0-6.87,28.22,171,171,0,0,0-.57,27.92c.48,9.11,1.41,18,2.33,26.69,1.84,17.42,3.67,34.15,2.09,50.3a122.64,122.64,0,0,1-13.22,46.42c-1,1.74-1.88,3.53-3,5.19l-1.57,2.55-1.7,2.44c-1.08,1.67-2.36,3.18-3.55,4.77-.59.8-1.27,1.49-1.9,2.24s-1.25,1.5-1.94,2.2a84,84,0,0,1-18.26,14.73c-11.65,6.86-24.71,10.5-37.2,10,.16.09.31.19.31.28s-.3.37-.86.53c-.28.08-.63.15-1,.23s-.86.07-1.37.09a63,63,0,0,0,21.92-2A78.74,78.74,0,0,0,196,327.8a84.78,84.78,0,0,0,10.23-5.4,80.17,80.17,0,0,0,12.58-10.16,88.87,88.87,0,0,0,10.47-12.43,109.65,109.65,0,0,0,14.41-30.08,141.38,141.38,0,0,0,5.87-34.15c.58-11.73-.25-24-1.42-36.84-1.54-17.61-3.43-35.17-2.21-53a116.62,116.62,0,0,1,4.78-26.46,94.9,94.9,0,0,1,11.64-24.5,101.63,101.63,0,0,1,22.76-25.31A105,105,0,0,1,314.89,53a94.23,94.23,0,0,1,33.84-5.43,104.15,104.15,0,0,1,17.09,1.76c1.41.27,2.8.62,4.19.93l2.09.49a21.21,21.21,0,0,1,2.08.55l4.1,1.24c.68.21,1.38.4,2.05.64l2,.75a36.55,36.55,0,0,1,4.05,1.66c.58.32-.37,0-2.1-.57l-2.77-1c-.92-.34-1.84-.66-2.8-.92L373,51.47l-5.8-1.27c-1-.23-1.94-.37-2.92-.51l-2.95-.44a103.06,103.06,0,0,0-23.95-.43,99.95,99.95,0,0,0-44.93,16.81A54.45,54.45,0,0,1,297.78,63c1.28-.47,2-.59,1.89-.29s-.92,1-2.3,2.07c-.69.56-1.52,1.21-2.49,1.93l-1.53,1.14a18.43,18.43,0,0,0-1.68,1.29,105.08,105.08,0,0,1,18.75-10.35c4.13-1.59,7.46-2.61,7.42-2.32s-3.24,1.61-7.12,3.13A103.52,103.52,0,0,0,291.81,70.1l-4.35,3.22-4.13,3.52c-1.41,1.13-2.64,2.47-3.95,3.72l-1.93,1.9c-.64.63-1.21,1.34-1.82,2A89.86,89.86,0,0,0,263,102.12l-1.31,2.4c-.21.4-.44.79-.64,1.2l-.56,1.24-2.23,5a101.9,101.9,0,0,0-3.37,10.37,117.49,117.49,0,0,0-3.46,25.6,210.26,210.26,0,0,0,.93,25.41c1.48,16.76,4,33.2,4.62,49.62a70.57,70.57,0,0,1,.82-9.61h0c-.37-5.12-.86-10.23-1.4-15.33-1.39-11.68-3-23.46-3.66-35.46a138,138,0,0,1,2.13-36.31,92.63,92.63,0,0,1,9.86-26c.76-1.36,1.64-2.64,2.46-4a45.7,45.7,0,0,1,2.6-3.86l2.79-3.74c1-1.22,2-2.37,3-3.55l1.52-1.76c.51-.6,1.09-1.12,1.63-1.68l3.3-3.3c1.14-1.06,2.33-2,3.5-3.08l1.77-1.53c.59-.5,1.23-1,1.85-1.43l3.73-2.81c1.3-.87,2.61-1.7,3.92-2.56l2-1.27,2.05-1.14,4.1-2.26,4.25-2,2.14-1,2.19-.83c1.47-.55,2.93-1.12,4.4-1.64l4.51-1.35c.76-.21,1.5-.47,2.27-.63l2.3-.51c1.54-.31,3.07-.7,4.62-.95a92.45,92.45,0,0,1,9.38-1l2.35-.14a20.67,20.67,0,0,1,2.36-.07l4.72.07a96,96,0,0,1,18.64,2.56c3.08.62,6.05,1.66,9.06,2.54,1.49.5,3,1.08,4.42,1.62l2.2.83c.73.3,1.44.64,2.15,1l4.29,1.94,4.16,2.19L397.45,66l2,1.23c1.34.83,2.68,1.63,4,2.48a108.94,108.94,0,0,1,27.23,25.75,19.54,19.54,0,0,1,2,3A14.66,14.66,0,0,1,430.63,96,107.67,107.67,0,0,0,376.2,57.16l-2.71-.82c-.91-.28-1.81-.55-2.74-.74l-5.52-1.27-5.6-.89c-.93-.17-1.87-.25-2.82-.33L354,52.86l.12,0c1.21.17,1.43.31.09.26-.58,0-1.46-.08-2.34-.16s-1.78,0-2.38-.1c-1.4-.1-1.27-.21-.13-.25-1.76,0-3.52-.11-5.28,0l-5.28.31c-1.76.11-3.5.44-5.25.65-.88.13-1.76.23-2.62.38l-2.59.56-2.58.56-1.29.28-1.26.37-5.06,1.51c-1.66.57-3.29,1.23-4.94,1.84s-3.23,1.35-4.83,2.09c-3.22,1.38-6.24,3.18-9.3,4.86-2.93,1.92-5.93,3.73-8.66,5.92-1.39,1-2.81,2.08-4.1,3.26s-2.64,2.28-3.93,3.45l-3.7,3.71-.92.92-.86,1-1.71,2-1.7,2c-.57.65-1.06,1.38-1.59,2.07-1,1.41-2.11,2.78-3.09,4.22L266,98.93c-.23.37-.47.73-.69,1.1l-.61,1.16-1.23,2.3-1.22,2.31c-.39.77-.7,1.59-1.06,2.38-.67,1.6-1.42,3.17-2,4.8l-1.68,4.94c-.13.41-.28.82-.41,1.23l-.32,1.26-.64,2.51-.64,2.51c-.21.84-.33,1.69-.49,2.53-.3,1.7-.64,3.39-.9,5.09-.4,3.4-.86,6.8-1,10.21s-.21,6.81-.26,10.2c.1,3.38.15,6.77.4,10.12a140.22,140.22,0,0,1,2.5-37.63l1.22-4.6c.21-.77.4-1.54.62-2.3l.79-2.26c.54-1.5,1-3,1.61-4.5l1.93-4.37a43.56,43.56,0,0,1,2.15-4.26l1.13-2.09a23.69,23.69,0,0,1,1.2-2.07l2.58-4,.65-1,.72-.95,1.43-1.9a94.83,94.83,0,0,1,6.1-7.31c1.06-1.18,2.24-2.25,3.35-3.38l1.69-1.67c.58-.55,1.2-1,1.79-1.56l3.62-3.1,3.81-2.84c.64-.46,1.26-1,1.92-1.4l2-1.28c1.35-.84,2.65-1.74,4-2.52,2.79-1.5,5.52-3.11,8.45-4.34l2.16-1,1.08-.49,1.11-.41,4.46-1.66c.73-.29,1.5-.5,2.26-.72l2.28-.66a43.13,43.13,0,0,1,4.6-1.19l4.65-1c1.56-.24,3.14-.42,4.71-.63l2-.32c.68-.09,1.37-.12,2.06-.19l4.14-.33c1.39-.12,2.78-.05,4.17-.08s2.8-.07,4.2,0a36.82,36.82,0,0,1,4.12.5c.42.12-.71.12-2.27,0L352,54c-.77,0-1.54,0-2.32,0l1.77,0c.58,0,1.14.1,1.7.16l3.19.35a43,43,0,0,1,5.27.92c1.47.33,2.64.61,3.41.87s1.16.51,1.1.63a5.08,5.08,0,0,1-1.76,0c-1-.05-2.36-.16-4-.33-.83-.08-1.71-.22-2.67-.28l-3-.18L351.32,56l-3.56,0-2.44,0c-.81,0-1.63.08-2.44.12-1.62.11-3.25.18-4.87.33a94.62,94.62,0,0,0-9.62,1.61c-3.2.59-6.28,1.66-9.4,2.56-3,1.18-6.12,2.18-9,3.65l-2.21,1-1.1.51-1.07.59-4.26,2.35c-1.4.82-2.73,1.75-4.1,2.61l-2,1.33L293.25,74a91.64,91.64,0,0,0-14.38,13l-2.73,3.2c-.89,1.08-1.67,2.24-2.51,3.36a80.49,80.49,0,0,0-4.5,7.13,93,93,0,0,1,19.7-22.52L290.25,77l1.51-1.12,3-2.23c1-.77,2.08-1.38,3.12-2.07l3.16-2,3.29-1.79c1.11-.57,2.17-1.24,3.32-1.74l3.4-1.55,1.7-.77c.58-.25,1.17-.44,1.75-.66a88.08,88.08,0,0,1,29.06-6,91.23,91.23,0,0,1,29.34,3.88c1.63.48,3.13.95,4.21,1.36a6,6,0,0,1,1.73.9c0,.1-.64,0-1.69-.37s-2.55-.66-4.17-1.16a93.26,93.26,0,0,0-25.61-3.47,84.73,84.73,0,0,0-25.43,4,92.29,92.29,0,0,0-42.33,28.53,85.54,85.54,0,0,0-13.36,21.91,90.22,90.22,0,0,0-6.18,24.94,153.27,153.27,0,0,0-.35,26.17c.55,8.8,1.58,17.64,2.63,26.56.9,5.82,1.79,11.7,2.6,17.63.34,3,.78,5.95,1,9l.45,4.53c.13,1.52.21,3.05.32,4.58A162.29,162.29,0,0,1,265,263.42l.93-4.73c.32-1.58.52-3.19.78-4.78q.31-1.91.51-3.81c.15-1.26.29-2.53.44-3.79.17-2.53.45-5.05.51-7.56l.15-3.76,0-3.74c.05-2.5-.09-4.94-.16-7.39-.4-9.78-1.49-19.2-2.65-28.36-2.32-18.29-5-35.78-4.1-52.9a95.51,95.51,0,0,1,4.42-24.94A81.42,81.42,0,0,1,277.51,95.1a89.72,89.72,0,0,1,41.9-31.23,16.7,16.7,0,0,1,3.45-.91c.22,0-.93.49-2.69,1a89.22,89.22,0,0,0-41,29.68,81.9,81.9,0,0,0-12,21.74,92.27,92.27,0,0,0-5.09,24.79c-1,14.4.5,28.75,2.39,43,.93,7.14,2,14.29,2.83,21.51s1.65,14.46,1.95,21.83c-.15-7.54-.82-14.89-1.59-22.1s-1.72-14.3-2.57-21.28-1.64-13.87-2.08-20.67a153.31,153.31,0,0,1-.2-20.2c0-1.67.24-3.3.41-4.95s.3-3.3.63-4.9.52-3.25.84-4.86l1.15-4.76a83.31,83.31,0,0,1,7.32-18.07,90.88,90.88,0,0,1,11.66-16l3.48-3.58c1.2-1.16,2.48-2.23,3.72-3.36s2.58-2.12,3.9-3.16l2-1.54c.66-.52,1.39-.94,2.08-1.42,1-.66,2-1.3,2.87-1.87a19.12,19.12,0,0,1,2.47-1.31,5.81,5.81,0,0,1,1.09-.77,81.49,81.49,0,0,1,19.73-8.69,27.48,27.48,0,0,1,4-.78C330.84,62.26,330,62.55,328.46,63ZM24.18,60.48c-.07-.07-.13-.12-.18-.18l.59.27.95,1.31Zm-8.39,6.7h0l-.57-.7ZM166.26,232.93c3.63-7,7.2-14.21,10.36-21.89,1.59-3.82,3-7.81,4.35-11.87s2.42-8.29,3.36-12.58a117.26,117.26,0,0,0,2-13.22c.13-1.11.15-2.25.22-3.37s.16-2.25.12-3.4l-.08-6.88a107.22,107.22,0,0,0-5-26.75,104.25,104.25,0,0,1,5.71,26,108.41,108.41,0,0,1-5.65,40.07C177.51,211.45,171.93,222.53,166.26,232.93ZM16.94,56.18a12.39,12.39,0,0,1,2.62,2.22,5.05,5.05,0,0,1,1.72-.47,32.44,32.44,0,0,1,4.82-.12c-.27-.47.11-.45.29-.54l.57-.19-5.19-.47A40.88,40.88,0,0,1,16.94,56.18ZM5.86,60.32l-.18-.15.13-.8S5.83,59.78,5.86,60.32Zm-.19,1.35.25,0C5.9,62,5.8,61.93,5.67,61.67ZM8,62.13a1.88,1.88,0,0,0-.39-.33Zm6.16,21.3,0-3.85-.06,3.72Z"/><path d="M114.67,158.93v.53c-.31,0-.55-.18-.74-.53.58,4.88,5.5,6.57,9.54,6.18a2,2,0,0,0,2.87-.24,2.32,2.32,0,0,0,0-3.07,2.65,2.65,0,0,1-.25-.8,18.3,18.3,0,0,0-1.42-6.95c.06.54.13,1.11.19,1.65A4.62,4.62,0,0,0,124,154c-.09.22-.18.47-.27.68a3.92,3.92,0,0,0-5.24-3.33,5.93,5.93,0,0,0-4,6.35Z"/><path d="M113,167.22c-.49-1.48-.84-3-1.18-4.56l.1-.5-1.18,1.53.1-.08c1.91-.45,3.68.41,5.32,1.18l.65.2a1.56,1.56,0,0,0,1-.43,1.73,1.73,0,0,0,.29-2.3l-.6-.74c-1-2.39-3.44-4.88-6.54-3.28a6.49,6.49,0,0,0-1.69,2,2.32,2.32,0,0,0-.19,3.19,2.06,2.06,0,0,0,3-.11c.08.2.17.41.26.61l-.63,0c1-.62,1.88-.09,2.82,0,.35.19.72.36,1.08.54l1.35-2.72-.69-.11c-.05.13-.1.34-.11.34a17.32,17.32,0,0,1-3.92-.76L110.5,161a1.52,1.52,0,0,0-1.2,1.51l.11,1v-.51c.78,1.63,1.82,3.14,2.61,4.79a.51.51,0,0,0,.72.25A.61.61,0,0,0,113,167.22Z"/><path d="M108.41,163.56a1.2,1.2,0,0,0-.4-.94l-.28.07c0,.2,0,.48.06.75C107.83,164,108.16,163.89,108.41,163.56Z"/><path d="M107.73,162.69c0-.18,0-.31,0-.31s0,.21-.08.31l.05,0Z"/><path d="M216.66,210.17l4.67.79c1.56.29,3.13.41,4.71.62s3.15.42,4.74.54l4.76.36c1.59.15,3.19.19,4.79.23l4.8.15,4.81-.05,2.41,0c.8,0,1.6-.08,2.41-.12.43,0,.78-.13.78-.26s-.33-.19-.73-.17a170.06,170.06,0,0,1-37.95-2.54c-.42-.06-.77,0-.84.12S216.27,210.1,216.66,210.17Z"/><path d="M314.76,209.43c-.27.19-.22.29.12.23a3,3,0,0,0,1-.42c.23-.16.17-.27-.12-.22A3.14,3.14,0,0,0,314.76,209.43Z"/><path d="M315,217.91c-1.77.91-3.42,1.83-4.9,2.67a3.3,3.3,0,0,1-.87.32c.16.12-.14.4-.78.72a166.47,166.47,0,0,1-20.29,8.56l-5.39,1.75-2.71.86-2.75.77-5.51,1.54-5.57,1.34a1.38,1.38,0,0,1-.57.57,8,8,0,0,1-2.15.94,19,19,0,0,1-3.08.57l-1.66.13c-6.68.73-13.39,1.07-20.07,1.14a27.83,27.83,0,0,1-4.68.62l-4.37.61c-1.46.18-2.93.3-4.4.45l-4.46.4c-1.49.09-3,.14-4.51.2.37.17.58.36.57.56-.16.47-1.59.76-3.22.67-.83,0-1.66,0-2.48-.1l7.08.7a6.19,6.19,0,0,1,.93.12c2.6.12,5.23,0,7.9,0a176.44,176.44,0,0,0,33.58-4.19,209.94,209.94,0,0,0,30.87-9.46,3.09,3.09,0,0,1,1.15-.31c.22,0,.22.16-.13.32-1.53.71-3,1.49-4.53,2.15l-4.49,2.05c-3,1.43-6,2.62-9.06,3.93-1.54.67-3.12,1.24-4.73,1.82l-4.92,1.75c-1.69.56-3.43,1-5.22,1.56s-3.63,1.05-5.55,1.43l-6.86,1.49-6.93,1.22c-2.32.44-4.65.7-7,1s-4.7.63-7.06.81a201.24,201.24,0,0,1-29.05.81c-10.23-1.11-20.11-2.43-30-4.38a264.74,264.74,0,0,1-30.05-7.55l-5.63-1.92-2.8-1L126,234.55l-5.49-2.16c-1.8-.76-3.59-1.57-5.37-2.36-4-1.52-7.81-3.4-11.63-5.26-1.89-1-3.73-2-5.6-3s-3.75-2.06-5.57-3.22c-4.07-2-6-6.25-4.15-9.53a6.62,6.62,0,0,1,5.47-3.24c-.28-.21-.56-.4-.83-.62l-1.06-1.31a6.07,6.07,0,0,1-1.39-4.22l.06-1.89a46.27,46.27,0,0,0,.53-4.89,20.61,20.61,0,0,1,.9-4.87l1-.74v-.44a5.63,5.63,0,0,1,.72-3.56l1-1a14,14,0,0,1,4-2.68,5.32,5.32,0,0,1,1.31-1.2,7.18,7.18,0,0,1,2.71-3.86,1,1,0,0,1,1-1,.91.91,0,0,1,.51.16h0a8,8,0,0,0,.2-1c-.18-.33-.27-.53-.27-.53-.52-.8-.52-.8-.95-1.51a4.84,4.84,0,0,1,0-1.64c1.14-2.44,1.14-2.44,2-3.2l.31-.14c-.19-.67-.2-.72-.24-.92a2.5,2.5,0,0,1,.08-.5c.37-.47.37-.47.44-.7a2.92,2.92,0,0,1,.28-.36c.68-.28.68-.28.81-.42a2.23,2.23,0,0,1,.35-.12l.64.16-.41,1.72.48-.28-.32.66.34-.56,0,.57,0-.74c.56.83.57.83.87,1.07a1.42,1.42,0,0,0,.64.47,2.84,2.84,0,0,1,.2-.29c.6.89.6.89,1.18,1.79a3.86,3.86,0,0,1-.1.49.42.42,0,0,1,.51.15l.32.45h.15l0,0,.53.05h.12l2.29.23a5.14,5.14,0,0,1,.48.8c0-.13,0-.25,0-.39s.46-.61.42-.71a21,21,0,0,0-1.72-3.29c-.62-1.06-1.3-2.08-2-3.12a.84.84,0,0,1-.15-1.15.78.78,0,0,1,1.1-.27,11.88,11.88,0,0,1,3.73,1.24,13.85,13.85,0,0,1,3.2,2.16,17,17,0,0,1,2.61,3,19.54,19.54,0,0,1,2.1,3.47c.83,1,1.68,2,2.57,3v-.34l.56.94a.6.6,0,0,0,.08.08c0-.42,0-.85,0-1.27-.09-.18-.17-.37-.26-.55-2.07-2.22-3.28-5.12-4.79-7.77a38,38,0,0,1-1.77-4.58.79.79,0,0,1,.11-1,.62.62,0,0,1,.94,0c3.88,2.61,7.5,6.55,8.63,11.7a3.92,3.92,0,0,1,1.43,2.21l0,0,0-1c.41.56.31,1.34.64,1.94.14-.35.29-.72.44-1.07a23,23,0,0,0,1.76,1.8l1.91,1.66a14.79,14.79,0,0,1,3.28,3.87,3.2,3.2,0,0,1,.25.27,18.09,18.09,0,0,1,2.21.15l.53.1.14,0,.3.14.59.28c.78.39,1.57.82,2.38,1.3l-3-2.31c1.19.48,2.47,1.07,3.67,1.69a38.25,38.25,0,0,1,3.71,2c.84.51,1.69,1.05,2.52,1.62s1.71,1.08,2.54,1.65c1.69,1.11,3.28,2.39,4.82,3.52a46,46,0,0,1,4.15,3.52,25.53,25.53,0,0,1,3,3.27c3.6,1.54,7.3,2.81,11,4.16,3.74,1.18,7.46,2.43,11.25,3.4a164.88,164.88,0,0,0,23,4.62c.8.1,1.5.41,1.61.7s-.5.43-1.3.33a160.6,160.6,0,0,1-33.6-6.49,148.85,148.85,0,0,0,28.13,8.46l3.79.49c1.25.16,2.48.47,3.71.73a159.88,159.88,0,0,0,37.92,1,187.35,187.35,0,0,0,31.5-6,282.55,282.55,0,0,0,42.33-16c1.83-.94,3.71-1.48,4.15-1.2s-.71,1.31-2.55,2.28a218.33,218.33,0,0,1-22.06,10.26,215.15,215.15,0,0,1-23.18,7.62,168.54,168.54,0,0,1-49.38,5.5c-1.83-.11-3.65-.12-5.45-.3l-5.36-.47a.54.54,0,0,1,.07.27c0,.36-.37.67-1,.91l6.13.61c2.05.24,4.11.31,6.19.49,5.76-.18,11.5-.68,17.33-1.19,2.92-.27,5.85-.65,8.83-.9,3-.41,6-.68,9-1.07,2.1-.28,4.16-.52,6.19-.75l6-.83c2-.23,3.92-.6,5.87-.92s3.91-.61,5.84-1.06a221.76,221.76,0,0,0,28-11,2.11,2.11,0,0,1,.93-.31c.17,0,0,.19-.34.39a170.38,170.38,0,0,1-19.34,9c1.19-.06,2,.11,2,.56s-.63,1.15-1.82,1.87l4.72-1.58c1-.33,1.78-.48,1.84-.25s-.63.71-1.55,1l-4.82,1.65-2.41.83-2.44.73-4.87,1.45c-1.63.46-3.28.86-4.92,1.29l-2.92.87c-1,.29-2,.51-2.95.77-2,.5-3.93,1-5.91,1.49l-6,1.27c-2,.45-4,.72-6,1.09a5.3,5.3,0,0,1,2.54.92h0c1.26-.2,2.51-.39,3.75-.65a274.48,274.48,0,0,0,65.77-25c.41-.22.79-.34.84-.26s-.22.32-.59.51c-3.21,1.66-6.34,3.42-9.59,4.93-1.62.78-3.21,1.6-4.84,2.35l-4.9,2.19h0c.29-.06.39,0,.13.22a3.51,3.51,0,0,1-1,.45c-.33.07-.35,0-.13-.21a281.57,281.57,0,0,1-37.4,13.15,252.19,252.19,0,0,0,34.9-10.76c1.19-.61,2.36-1.22,3.54-1.89a2.44,2.44,0,0,1,1-.29c.13,0-.07.24-.41.42l-1,.54c2.12-.9,3.93-1.24,4.11-.75s-1.54,1.74-3.76,2.72c-3,1.3-5.94,2.57-8.95,3.76l-4.54,1.69-2.28.84-2.3.75-2,.74-1.93.91a207.47,207.47,0,0,0,28.37-10.21c.78-.35,1.5-.53,1.6-.38s-.46.61-1.25,1a203.11,203.11,0,0,1-24.46,11c-2.13.75-4.22,1.6-6.38,2.27l-6.47,2.07-6.56,1.81c-1.09.32-2.19.59-3.3.84l-3.33.77c-2.82,1.13-5.71,2.07-8.62,3.08s-5.89,1.87-8.91,2.81l2.35-.29a137.43,137.43,0,0,0,27.56-7c8.63-3.11,16.93-6.63,25.7-10.41a1.51,1.51,0,0,1,.92-.22c.08.07-.18.29-.63.48-8.53,3.78-16.37,7.33-25.23,10.46-3.69,1.19-7.29,2.48-10.89,3.48l-5.35,1.6-5.31,1.48c14.63-2.84,28.11-7.66,41.52-13.29a5.75,5.75,0,0,1,1.6-.5c0-.07.12-.16.29-.26.8-.45,1.65-.89,2.52-1.35l2.64-1.42a2.35,2.35,0,0,1,1-.32C315.59,217.51,315.41,217.69,315,217.91ZM116.9,179.05c0-.1,0-.18,0-.25,0,.18.12.36.18.57l-.26,1.53S116.87,180,116.9,179.05ZM107,177.77h0c.11-.51.18-.87.18-.87C107.14,177.26,107.08,177.54,107,177.77ZM188.3,208c-3.37-.91-6.64-2.15-9.88-3.37-1.61-.64-3.18-1.38-4.75-2.1s-3.13-1.46-4.63-2.33c1.55.61,3.13,1.13,4.72,1.65l3.57,1.64c1.19.55,2.41,1,3.62,1.54l3.64,1.54C185.82,207.06,187.06,207.5,188.3,208Zm-72.68-36.65a14.1,14.1,0,0,1-.08,3.24,4.7,4.7,0,0,1,1.33.81,38.22,38.22,0,0,1,3,3c.14-.51.37-.26.53-.2l.48.21c-1-1.17-1.89-2.36-2.81-3.6A21.22,21.22,0,0,1,115.62,171.34Zm-8.78-5.13,0-.22.69-.39Zm-1.15.68.09.22C105.54,167.27,105.56,167.14,105.69,166.89Zm.81,2a1.41,1.41,0,0,0,.06-.49Zm-13,17.78,3-2.35-3,2.19Z"/><path d="M179.86,28l.25.07a.49.49,0,0,1-.4.3c2.43.31,4.22-1.74,4.92-3.85a1.09,1.09,0,0,0-.91-2,1.62,1.62,0,0,1-.44,0,8.49,8.49,0,0,0-3.68-.26l.85.13a2.69,2.69,0,0,0-1,.24l.27.23a2.53,2.53,0,1,0-.44,5.05Z"/><path d="M183.46,30q-1.19,0-2.37-.09l-.21-.12.49.79v-.06A4.49,4.49,0,0,1,183,28.05l.23-.28a.78.78,0,0,0,0-.58.8.8,0,0,0-1-.49l-.48.18c-1.34.15-3,1.1-2.85,2.8,0,.39.39.72.63,1.07a1.12,1.12,0,0,0,1.49.53,1.14,1.14,0,0,0,.52-1.5l.33,0c0,.11-.07.21-.1.31-.12-.55.31-.93.53-1.39l.47-.44-1-1.07-.19.33.13.1a10.39,10.39,0,0,1-1.12,1.84l-.48.88a.67.67,0,0,0,.49.78l.49.08-.24-.07c.92-.15,1.82-.45,2.74-.58a.28.28,0,1,0,0-.55Z"/><path d="M180.88,31.66a.63.63,0,0,0-.52.06c0,.08,0,.12,0,.14l.36.08C181,32,181,31.83,180.88,31.66Z"/><path d="M180.34,31.86l-.15,0,.13.08,0,0Z"/><path d="M210.55,11.55c2.25-.93,4.45-2,6.62-3a.14.14,0,0,0,.06-.2.15.15,0,0,0-.2-.07c-2.18,1.06-4.37,2.07-6.61,3a.17.17,0,0,0-.07.21A.17.17,0,0,0,210.55,11.55Z"/><path d="M230.61,10.27a.15.15,0,0,0,.11.19.12.12,0,0,0,.17-.1.19.19,0,0,0-.11-.19A.13.13,0,0,0,230.61,10.27Z"/><path d="M233.62,16.58a3.23,3.23,0,0,0-.57.92.13.13,0,0,1-.14.07.3.3,0,0,1,0,.37,35.29,35.29,0,0,1-5.39,5.73,1.05,1.05,0,0,1,.08.35.84.84,0,0,1-.54.86l-.29.06c-1.07.37-2.12.78-3.19,1.14a1.73,1.73,0,0,1-.52.65,27.92,27.92,0,0,1-1.94,2.48.57.57,0,0,1,.26.25.52.52,0,0,1-.18.71l-.34.22L222,30a.23.23,0,0,1,.16,0c.37-.2.74-.42,1.1-.66a38.35,38.35,0,0,0,8.06-7.83.14.14,0,0,1,.19-.07.19.19,0,0,1,.08.21c-1.17,2.45-1.83,5.17-3.51,7.3a68.41,68.41,0,0,1-6.34,7.1c-2.79,1.6-5,3.72-7.57,5.82-.95.78-1.91,1.51-2.87,2.21-2.9,2-5.86,3.81-8.9,5.61a3.32,3.32,0,0,1-5.19-3.61l-.4.2-.72.16a2.87,2.87,0,0,1-2-.33l-.81-.42c-1.29-.93-2.82-1.46-4-2.51l-.18-.55-.19-.09a2.88,2.88,0,0,1-1.47-.95l-.3-.62a6.65,6.65,0,0,1-.56-2.25,2.42,2.42,0,0,1-.33-.8A3.38,3.38,0,0,1,184.9,36a.48.48,0,0,1-.29-.62.42.42,0,0,1,.16-.21h0l-.44-.25L184,35l-.86.22a2.25,2.25,0,0,1-.76-.23c-.95-.89-.95-.89-1.16-1.38a1,1,0,0,1,0-.17h-.48a1,1,0,0,1-.22-.11c-.16-.25-.16-.25-.25-.31a1.59,1.59,0,0,1-.12-.18c0-.36,0-.36-.06-.44s0-.19,0-.19l.19-.28.74.44-.05-.27.26.24-.2-.24.28.06L181,32a2.09,2.09,0,0,0,.67-.26.79.79,0,0,0,.33-.24l-.1-.14,1.06-.31.21.12a.22.22,0,0,1,.17-.22l.26-.09,0-.07v0l.13-.25,0-.05h0l.56-1a2.94,2.94,0,0,1,.48-.1l-.19-.06c-.12,0-.19-.32-.24-.32a17.83,17.83,0,0,0-3.75.83.42.42,0,0,1-.58-.07.41.41,0,0,1,.08-.58A8.93,8.93,0,0,1,187.22,25c.66-.21,1.32-.45,2-.69l-.15-.07.57-.08,0,0-.6-.23h-.31a26.36,26.36,0,0,1-4.72,1,22,22,0,0,1-2.56.19.36.36,0,0,1-.48-.2.36.36,0,0,1,.2-.47c2.09-1.6,4.84-2.8,7.5-2.35a2.11,2.11,0,0,1,1.37-.25h0l-.47-.22c.36-.08.7.12,1.06.09l-.39-.44c1.7-.56,3.27-1.65,5.09-1.74l.19-.05A5.56,5.56,0,0,1,197,17.64l-.74.21h0a3.52,3.52,0,0,1,1.23-1.14,5,5,0,0,1,4.78.07c2.53-1.65,5.07-3.28,7.5-5.08a.28.28,0,0,1,.41.07.31.31,0,0,1,0,.42,44.7,44.7,0,0,1-5.09,4.26,43.5,43.5,0,0,0,5.13-2.2l.59-.42a1.69,1.69,0,0,1,.66-.28,39,39,0,0,0,6-3.81c1.63-1.36,3-2.6,4.57-4.09A34.13,34.13,0,0,1,228.67.13a.74.74,0,0,1,1,.21.8.8,0,0,1-.1,1.08c-4.56,4.15-8.89,8.49-14.46,11.43l-1.78.94.1.14a1.25,1.25,0,0,1,.17.64c.68-.33,1.39-.62,2.11-.89A18.85,18.85,0,0,1,221,9.81a21.59,21.59,0,0,1,4.39-1.17c1.45-1.14,2.86-2.34,4.34-3.45a.13.13,0,0,1,.2,0,.17.17,0,0,1,0,.22,29.21,29.21,0,0,1-2.71,3,1.54,1.54,0,0,1,.77.72,1.49,1.49,0,0,1,.14,1.08l.78-.41a.35.35,0,0,1,.46.15.33.33,0,0,1-.1.48l-3.19,1.72q-1.73,1.37-3.49,2.65a2.27,2.27,0,0,1,.84.62h0l.57-.36a40.06,40.06,0,0,1,10.13-7.53.17.17,0,0,1,.22.07c0,.08,0,.18,0,.21a30.92,30.92,0,0,0-3.31,1.91h0a.17.17,0,0,1,.12.19.14.14,0,0,1-.17.11.19.19,0,0,1-.12-.19,40.78,40.78,0,0,0-5.56,4.43,52.66,52.66,0,0,1,5.62-3.18l.45-.64c0-.06.14-.05.21,0a.17.17,0,0,1,0,.21l-.13.17a.84.84,0,0,1,1.06.42.83.83,0,0,1-.27,1.13c-.94.64-1.9,1.24-2.86,1.82l-.28.26-.21.38c1.62-.71,3.26-1.38,4.89-2a.29.29,0,0,1,.39.12.3.3,0,0,1-.07.41,79.88,79.88,0,0,1-7.36,5.87c-.53,1.13-1.07,2.28-1.6,3.43a2.31,2.31,0,0,0,.35-.18c2.95-1.68,4.42-4.91,7.06-6.91a.14.14,0,0,1,.21,0,.14.14,0,0,1,0,.21,39.48,39.48,0,0,0-3.31,3.61,34.07,34.07,0,0,0-2.62,3.05c2.07-1.42,3.71-3.39,5.66-5a.24.24,0,0,1,.3-.06.23.23,0,0,1,0-.14,4.7,4.7,0,0,1,.6-1,.13.13,0,0,1,.2,0A.17.17,0,0,1,233.62,16.58ZM189.7,30.21l-.11-.05.3,0,.64.43Zm-2.49,4.33h0l-.36-.24ZM207.06,16.3a12.74,12.74,0,0,1-3.7,1.42l.77-.57C205.09,16.84,206.07,16.56,207.06,16.3ZM185.9,29.39a6.3,6.3,0,0,1,1.48.6,2.12,2.12,0,0,1,.64-.47,20,20,0,0,1,2-.83c-.2-.17,0-.22,0-.29l.2-.18c-.73.22-1.48.42-2.24.62A15.7,15.7,0,0,1,185.9,29.39Zm-4.06,3.39-.1,0-.06-.38Zm.11.64h.12C182.1,33.55,182.05,33.52,182,33.42Zm1.08-.09a1,1,0,0,0-.22-.1Zm5.88,8.89-.56-1.76.5,1.71Z"/></g></g></svg>