<svg xmlns="http://www.w3.org/2000/svg" viewBox="0 0 516.95 267.77"><g id="Layer_2" data-name="Layer 2"><g id="Layer_1-2" data-name="Layer 1"><path d="M213.63,188.1l.59,0c-.08.35-.4.6-.85.8a10.61,10.61,0,0,0,6.83-3.4,16.36,16.36,0,0,0,3.93-6.42,2.46,2.46,0,0,0,1.2-3.17,2.39,2.39,0,0,0-3.33-.65,4.31,4.31,0,0,1-1,.14,22.14,22.14,0,0,0-8.7.79l2-.06a7,7,0,0,0-2.48.94l.66.34c-3.27.38-6.11,3.17-6.16,6.13s2.63,5,5.84,4.65Z"/><path d="M222,190.67c-1.73.32-3.47.56-5.24.79l-.51-.14,1.28,1.41,0-.12c.13-2.08,1.61-4,3.09-5.68l.48-.65a1.49,1.49,0,0,0,0-1.19,1.75,1.75,0,0,0-2.41-.66c-.36.18-.71.38-1.06.58-3,.87-6.74,3.62-5.93,7.05.2.78,1.06,1.31,1.69,1.93a2.51,2.51,0,0,0,3.44.43,2.38,2.38,0,0,0,.82-3.29l.74-.23c0,.23-.11.46-.17.69-.36-1.09.52-2.06.93-3.1l1-1.11-2.44-1.81-.37.77a2.63,2.63,0,0,1,.32.15,26.6,26.6,0,0,1-2.18,4.29l-.9,2a1.3,1.3,0,0,0,1.3,1.4l1.09,0-.55,0c2-.7,3.92-1.67,5.9-2.3a.67.67,0,0,0,.5-.73A.55.55,0,0,0,222,190.67Z"/><path d="M216.7,195.23a1.62,1.62,0,0,0-1.13.35v.3h.82C217,195.89,217,195.54,216.7,195.23Z"/><path d="M215.57,195.88h-.35l.32.11,0-.05Z"/><path d="M367.49,146.05c1.13.11,2.26.18,3.37.32l3.36.42,6.68.86,6.65,1.11,3.31.55,3.29.67,6.57,1.34,6.51,1.57,3.25.79c1.08.27,2.14.59,3.22.89l6.41,1.8c.58.16,1.08.23,1.14.11s-.36-.35-.9-.48l-6.42-1.82-3.22-.9-3.24-.8L401,150.9l-6.56-1.35-3.29-.68-3.31-.56-6.64-1.11c-2.22-.32-4.46-.58-6.69-.88s-4.47-.59-6.73-.76a2,2,0,0,0-1.2.15C366.51,145.85,366.93,146,367.49,146.05Z"/><path d="M487.19,196.17c-.39-.13-.42,0-.1.24a4.64,4.64,0,0,0,1.22.68c.32.11.37,0,.09-.23A4.51,4.51,0,0,0,487.19,196.17Z"/><path d="M480.2,201.39c-1.06-.48-2.08-.94-3.08-1.35s-2-.75-2.93-1.06a4.78,4.78,0,0,1-1-.48c0,.21-.42.15-1.19-.15a320.37,320.37,0,0,0-48.42-15.07,1.82,1.82,0,0,1-.82.26,17,17,0,0,1-6-.76l-1.75-.55c-1.78-.5-3.59-.88-5.38-1.33s-3.58-.91-5.39-1.26l-5.42-1.09-2.7-.55-2.72-.45a39.09,39.09,0,0,1-5.16-.19c-3.19,0-6.39.12-9.58.14l-9.6.46c.39.16.63.36.61.55s-.48.42-1.09.57a9.85,9.85,0,0,1-2.26.24l-2.6.06c2.48.11,5,.13,7.44.39a9.06,9.06,0,0,1,1,.12c2.73.12,5.49.12,8.3.34a288.43,288.43,0,0,1,70.74,12.05,4.14,4.14,0,0,1,1.23.54c.17.17.09.27-.34.16-14.65-3.64-27.75-4.7-44-6.31a221.13,221.13,0,0,0-57.21,1.86,147.49,147.49,0,0,0-28.26,5.77A166.3,166.3,0,0,0,296.05,205c-1.5.67-2.91,1.52-4.35,2.27l-4.28,2.28L283.3,212c-1.37.81-2.76,1.56-4.05,2.46l-1,.65-.49.32-.18.13L277,216l-1.27.92c-.84.62-1.71,1.18-2.51,1.83q-2.43,1.9-4.92,3.67c-1.64,1.21-3.19,2.53-4.81,3.77a5.06,5.06,0,0,1-4,1.46,6.48,6.48,0,0,1-4.22-2.21,7.43,7.43,0,0,1-1.92-5.79l-.65.46-1.25.43a5.07,5.07,0,0,1-3.8-.3l-1.65-.67c-2.72-1.59-5.74-2.2-8.48-3.95l-.55-1.06-.4-.1a6,6,0,0,1-3.21-1.46l-.83-1.14a13.57,13.57,0,0,1-1.88-4.36,4.66,4.66,0,0,1-.9-1.51,6.8,6.8,0,0,1-3.23-3.35,1,1,0,0,1-.77-1.16,1.06,1.06,0,0,1,.27-.5h0a9.92,9.92,0,0,0-1-.35c-.37.13-.6.19-.6.19-.93.42-.93.42-1.76.76a5.15,5.15,0,0,1-1.71-.18c-2.28-1.43-2.29-1.43-2.89-2.34,0-.12-.05-.23-.07-.34-.77.13-.82.14-1,.16a2.58,2.58,0,0,1-.53-.12c-.41-.43-.41-.43-.64-.52a3.09,3.09,0,0,1-.31-.32c-.13-.74-.12-.74-.24-.88a2.1,2.1,0,0,1,0-.38l.36-.66,1.74.58-.17-.53.62.4-.51-.41h.64l-.8-.1a4.64,4.64,0,0,0,1.4-.81,1.93,1.93,0,0,0,.68-.64,3.24,3.24,0,0,1-.25-.24c1.13-.55,1.13-.55,2.24-1.06a3,3,0,0,1,.48.16.57.57,0,0,1,.32-.53l.56-.29.06-.15,0,0,.24-.55,0-.12h0c.16-.39.39-.95,1.08-2.36a9.09,9.09,0,0,1,1-.35l-.43,0c-.28-.05-.46-.6-.58-.58-.72.14-1.43.32-2.13.53s-1.36.51-2,.79c-1.33.58-2.66,1.23-4,1.85a1,1,0,0,1-1.31.1.82.82,0,0,1,.06-1.23c2.7-6,9.14-9.76,15.48-11,1.51-.58,3-1.19,4.47-1.81l-.34-.12,1.28-.28.12,0-1.33-.35c-.24,0-.47.05-.71.09a29.17,29.17,0,0,1-5.29,1.71c-1.8.47-3.61.94-5.41,1.54s-3.91.8-5.9,1.26a.82.82,0,0,1-1.13-.23.79.79,0,0,1,.42-1,36.12,36.12,0,0,1,8.15-5.23,20.91,20.91,0,0,1,9.17-1.75,5.68,5.68,0,0,1,3.13-.8l0,0-1-.35c.82-.26,1.58.14,2.39,0l-.83-.83c2-.66,3.93-1.58,5.88-2.37a28.1,28.1,0,0,1,2.95-1.05,14.46,14.46,0,0,1,3.06-.49,3.29,3.29,0,0,1,.43-.09,23.62,23.62,0,0,1,1.76-2l.49-.45.15-.12.43-.24.87-.5a40.54,40.54,0,0,1,3.73-1.87c-.93.3-1.83.66-2.73,1l-2.65,1s.17-.12.27-.18l.33-.2.68-.41,1.36-.79c.91-.54,1.85-1,2.81-1.48,1.91-.92,3.89-1.8,6-2.61,11.38-4.37,24.9-6.54,31.66-5.38a244.8,244.8,0,0,1,33.54-6.18,268.86,268.86,0,0,1,33.9-1.43,4.25,4.25,0,0,1,2.41.57c.11.26-.66.47-1.82.44A264.89,264.89,0,0,0,314.14,151a287.11,287.11,0,0,1,41.22-2c1.77,0,3.55-.07,5.34,0s3.51.23,5.24.43c17.69,1,34.16,4,51.53,8l2.77.63,2.7.72,5.31,1.42c1.76.44,3.47,1,5.18,1.51l5.13,1.56c3.39,1.07,6.74,2.29,10.16,3.44s6.81,2.57,10.34,3.93A282.53,282.53,0,0,1,487,183.72a245.93,245.93,0,0,1,25.84,16.34c2.25,1.62,4.13,3.43,4.13,4s-1.84-.29-4.09-1.89a311.29,311.29,0,0,0-27.75-16.68,317.55,317.55,0,0,0-29.49-13.57,301.15,301.15,0,0,0-31.18-10.51,312.27,312.27,0,0,0-33-7.39c-2.43-.45-4.87-.73-7.28-1.09l-3.62-.52c-1.21-.16-2.42-.26-3.63-.4a.58.58,0,0,1,.11.28c0,.36-.52.65-1.3.86l4.09.45c1.36.19,2.72.42,4.09.63l4.08.66,2.05.33,2,.42a190.39,190.39,0,0,1,45.67,10.7,236,236,0,0,1,28.52,13.49,281.6,281.6,0,0,1,34.41,18.3,3.19,3.19,0,0,1,1,.79c.11.18-.18.1-.63-.17l-5.95-3.27-3-1.64-3.05-1.58-6.14-3.16c-2.09-1-4.17-2-6.27-3,1.15,1,1.72,1.76,1.42,2.1s-1.51.2-3.16-.33l5.52,3c1.14.6,1.94,1.26,1.79,1.45s-1.11-.14-2.2-.71c-3.75-2-7.47-4-11.31-5.84-1.91-.92-3.79-1.9-5.73-2.76l-5.8-2.61a292.62,292.62,0,0,0-28.89-9.88,7,7,0,0,1,2.44,2.12h0l4.49,1.38c27.69,7.64,54.5,21.06,78.43,38.55.47.33.82.67.78.75s-.46-.11-.89-.41c-3.64-2.59-7.25-5.22-11-7.62-1.88-1.2-3.71-2.48-5.63-3.61l-5.72-3.44,0,0c.28.24.28.38-.09.24a5.28,5.28,0,0,1-1.2-.73c-.32-.27-.23-.35.09-.23a244.48,244.48,0,0,0-44.88-20.11,257.22,257.22,0,0,1,40.77,19.23c1.48.7,3,1.35,4.47,2.12a3.16,3.16,0,0,1,1,.75c.07.14-.27.06-.68-.16l-1.22-.64c2.41,1.51,4.07,3,3.76,3.43s-2.71-.52-5.22-2c-6.9-3.75-13.81-7.43-20.92-10.69l-2.34-1-2.42-.84A292.45,292.45,0,0,1,494,205.16c.89.53,1.57,1.1,1.49,1.27s-.87-.12-1.77-.64a295.3,295.3,0,0,0-28.58-14,288.87,288.87,0,0,0-30-11c-3.48-.62-7-1.1-10.47-1.63-3.53-.37-7-.81-10.6-1.1.87.19,1.74.41,2.61.64,11.11,2.61,21.43,5.17,31.57,8.25a197.57,197.57,0,0,1,30.21,11.7,2.05,2.05,0,0,1,.9.66c0,.11-.38,0-.88-.25a222,222,0,0,0-29.7-11.39l-6.34-1.94-6.27-1.65-3.1-.79-3.09-.66c-2.06-.43-4.09-.85-6.12-1.23L430,183l3,.78,3,.86,6,1.71,5.92,1.89,3,.94,2.93,1,5.87,2.12c1.94.76,3.87,1.55,5.81,2.34l2.92,1.2c1,.41,1.92.87,2.88,1.3a8.08,8.08,0,0,1,1.7,1,.76.76,0,0,1,.43.06,66,66,0,0,1,6.33,2.52,3.18,3.18,0,0,1,1.06.69C481,201.62,480.67,201.58,480.2,201.39Zm-244.61-12-.24-.08H236l1.39.73Zm-4.67,9.44h0l-.82-.38Zm96.62-48.19-7.27.82c-1.21.11-2.42.28-3.62.46l-3.62.49c-4.84.55-9.62,1.45-14.49,2.07l6.92-1.68,2.74-.44L311,152l5.52-.61c1.83-.24,3.68-.35,5.53-.46ZM227.31,188.74a12.1,12.1,0,0,1,3.28.79,5.13,5.13,0,0,1,1.34-1.15,27.93,27.93,0,0,1,4.27-2.14c-.44-.29-.09-.44,0-.58l.43-.41c-1.58.61-3.25,1.1-4.86,1.76A40.91,40.91,0,0,1,227.31,188.74Zm-8.22,8.41-.22-.05-.23-.76Zm.42,1.26.25-.06C219.87,198.61,219.74,198.58,219.51,198.41Zm2.3-.61a1.87,1.87,0,0,0-.49-.12Zm14.73,16-1.71-3.36,1.57,3.29Z"/><path d="M5,32.06c.17.08.34.19.51.28a1.31,1.31,0,0,1-1.13.36,11,11,0,0,0,7.75,0,18.93,18.93,0,0,0,6.63-4.08,2.56,2.56,0,0,0,2.64-2.3,2.4,2.4,0,0,0-2.72-2.14,4.29,4.29,0,0,1-1-.35,20.83,20.83,0,0,0-8.31-3.13l1.89.83a7.94,7.94,0,0,0-2.71-.24l.44.62a7.59,7.59,0,0,0-4.87,0A6.18,6.18,0,0,0,.55,24.77c-1.43,2.7,0,5.71,3.08,6.77Z"/><path d="M11.33,38.19C9.62,37.67,8,37.08,6.24,36.5l-.38-.36L6.35,38v-.12C7.44,36,9.68,35,11.79,34.17l.74-.39a1.52,1.52,0,0,0,.54-1.1A1.71,1.71,0,0,0,11.2,31c-.41,0-.81,0-1.22,0a10.75,10.75,0,0,0-5.16.33A5.05,5.05,0,0,0,1.38,34.8,5.07,5.07,0,0,0,2,37.29a2.46,2.46,0,0,0,2.88,1.9,2.49,2.49,0,0,0,2.25-2.62l.78.13-.48.54c.18-1.14,1.42-1.62,2.28-2.36l1.4-.55L9.76,31.59l-.7.51a3.62,3.62,0,0,1,.22.29,29.53,29.53,0,0,1-4,2.88L3.59,36.72a1.29,1.29,0,0,0,.51,1.84l1,.44-.46-.29c2.1.22,4.28.25,6.35.59a.69.69,0,0,0,.8-.42A.56.56,0,0,0,11.33,38.19Z"/><path d="M4.45,39.9a1.53,1.53,0,0,0-1.17-.18L3.14,40l.73.36C4.4,40.61,4.56,40.29,4.45,39.9Z"/><path d="M3.14,40l-.31-.15.24.23,0,0Z"/><path d="M112.62,225.83c.38.15.78.26,1.17.38.23,0,.35.11.65.18s.66.17,1,.23.66.15,1,.2l1.14.14,1.14.16,1.17.06a36.41,36.41,0,0,0,9.61-.75,45.83,45.83,0,0,0,18.77-8.89,49.18,49.18,0,0,0,7.73-7.47,58.84,58.84,0,0,0,6.32-9.29,73.82,73.82,0,0,0,7.74-22.29,4.38,4.38,0,0,0,.12-2.05c-.11-.07-.31.76-.51,1.73a73.39,73.39,0,0,1-7.64,22.17,58.51,58.51,0,0,1-6.23,9.23,49.93,49.93,0,0,1-7.61,7.43,45.75,45.75,0,0,1-18.51,8.87,35.93,35.93,0,0,1-9.48.81,18.78,18.78,0,0,1-2.27-.19c-.74-.12-1.54-.17-2.17-.33a19.81,19.81,0,0,1-2.82-.76c-.4-.13-.76-.18-.88-.07S112.23,225.67,112.62,225.83Z"/><path d="M243.92,41.18c-.95.13-.9.23.08.25s2.34-.08,3.27-.1.77-.18-.07-.25A14.63,14.63,0,0,0,243.92,41.18Z"/><path d="M236.88,50.07A49.89,49.89,0,0,0,224,54.81a20.4,20.4,0,0,1-2.09.94c.17,0,.06.16-.29.4s-.9.63-1.65,1.09c-1.88,1-3.62,2.35-5.4,3.58s-3.43,2.66-5,4.19-3.07,3.07-4.56,4.65L203,72.18c-.71.82-1.27,1.76-1.91,2.63a51.33,51.33,0,0,0-6,11.38A57.17,57.17,0,0,0,192,98.77a89.21,89.21,0,0,0-.51,13.56c.17,4.63.67,9.39,1.26,14.23s1.35,9.78,2,14.83,1.38,10.22,1.81,15.55a6.1,6.1,0,0,1,.57,1.78,44.47,44.47,0,0,1,.74,6.44,67,67,0,0,1-.18,9.08c-.15,1.6-.32,3.21-.56,4.81a105.45,105.45,0,0,1-7.68,28.55,84.77,84.77,0,0,1-16.56,25.29,60.7,60.7,0,0,1-10.43,9.94c-1.72,1.44-3.57,2.7-5.41,4s-3.8,2.46-5.82,3.51-4.07,2.08-6.16,3c-1.06.46-2.15.86-3.22,1.29s-2.19.8-3.31,1.16c-2.21.76-4.52,1.3-6.83,1.86a69.44,69.44,0,0,1-7.12,1.12,71.23,71.23,0,0,1-7.33.39c-2.48-.11-4.93-.16-7.54-.52,1.27.34,2,.62,2,.83-.23.2-1.57.29-3.56.07l-.8-.09a6.42,6.42,0,0,1-.94-.13c-.65-.12-1.34-.25-2.05-.41a41.35,41.35,0,0,1-4.51-1.31,51.18,51.18,0,0,1-9-4.12,52.59,52.59,0,0,0,13.12,5.6c1.15.3,2.34.63,3.47.82s2.06.42,3.1.56l1.54.23,1.5.15,3,.26c1.15.09,2.21.07,3.18.13a70.62,70.62,0,0,0,25.43-4.84,80.06,80.06,0,0,0,23.47-14.24,77.61,77.61,0,0,0,9.41-9.69c1.48-1.72,2.72-3.52,4-5.29s2.46-3.63,3.51-5.53a95.17,95.17,0,0,0,9.79-23.4,113.7,113.7,0,0,0,2.55-12,117.14,117.14,0,0,0,1.18-12,115.08,115.08,0,0,0,0-11.9l-.17-2.92c-.07-1-.17-1.9-.25-2.85l-.26-2.84-.33-2.78c-.88-7.4-2.06-14.43-3.06-21.23-2-13.53-3.11-26.26-.28-37.81a10.37,10.37,0,0,1,.86-2.5c.23-.4.32-.28.1.54l-.36,1.32c-.12.43-.17.91-.26,1.36-.17.9-.33,1.81-.5,2.71l-.3,2.75-.15,1.36-.05,1.39c0,.93-.07,1.85-.11,2.77s0,1.87,0,2.8.05,1.86.12,2.81.12,1.87.2,2.82c.72,7.61,2.19,15.34,3.83,23.7.81,4.13,1.63,8.5,2.39,13s1.4,9.29,1.76,14.38a113.64,113.64,0,0,1-2.22,32.75,98.2,98.2,0,0,1-18.14,39.4,87.87,87.87,0,0,1-16.44,16.08,85.55,85.55,0,0,1-20.61,11.32,76,76,0,0,1-24.19,5l-3.2.08c-1.07,0-2.15-.06-3.23-.1s-2.14-.09-3.25-.19-2.26-.22-3.39-.4l-1.73-.27a15.72,15.72,0,0,1-2-.36c-1.34-.27-2.66-.62-4-1s-2.62-.8-3.91-1.23-2.57-1-3.82-1.51c-10-4.32-18.88-11.66-24.13-21.36a49.76,49.76,0,0,1-5.34-15.62,56.72,56.72,0,0,1-.75-8.36c0-1.41,0-2.82.07-4.23l0-.53a2.44,2.44,0,0,1,0-.54l.09-1.07c0-.63.08-1.22.15-1.8.29-2.44.7-4.75,1.16-7,.24-1.09.48-2.21.76-3.26l.41-1.58.43-1.46c.57-1.92,1.14-3.89,1.76-5.77l2-5.46c2.73-7.06,5.72-13.43,8.59-19.34S83,154.1,85.3,149c1.21-2.55,2.18-4.92,3.17-7.28l1.27-3.4c.42-1.13.68-2.16,1-3.23A43,43,0,0,0,92.69,124c0-.79-.08-1.57-.08-2.34s-.22-1.41-.27-2.11-.34-1.39-.45-2.08a6,6,0,0,0-.32-1c-.11-.35-.22-.71-.32-1.06-1.93-5.6-6.18-11.61-12.08-16.37a45.63,45.63,0,0,0-6.3-4.23c-1.06-.68-2.23-1.11-3.3-1.7l-1.68-.67L67.07,92l-.94-.32-1.87-.66-1.94-.55-1-.28-1-.22-2-.47c-1.38-.21-2.7-.54-4.13-.68-.7-.08-1.39-.2-2.1-.27L50,88.41c-.71-.09-1.45-.1-2.19-.13l-1.1,0a1.38,1.38,0,0,0-.21,0l-.65,0-1.31.13c-.88.08-1.73.09-2.62.2-3.49.26-7.07.67-10.74,1.17-2.69.81-5.58-1.29-6.5-4.9a7.53,7.53,0,0,1,.93-6l-.76.07-1.26-.27a5.18,5.18,0,0,1-3.15-2.1l-1.13-1.38c-1.65-2.71-4-4.73-5.68-7.59V66.4l-.31-.28a6.08,6.08,0,0,1-2.17-2.78l-.22-1.41a13.24,13.24,0,0,1,.32-4.75,4.77,4.77,0,0,1-.11-1.76,6.87,6.87,0,0,1-1.34-4.49.94.94,0,0,1-.15-1.39,1.08,1.08,0,0,1,.47-.31h0a9.75,9.75,0,0,0-.72-.78c-.39-.05-.62-.1-.62-.1l-1.91-.09a4.87,4.87,0,0,1-1.44-.91C4,45,4,45,3.91,44A1.89,1.89,0,0,1,4,43.61c-.75-.22-.8-.23-1-.31A2.58,2.58,0,0,1,2.58,43c-.17-.57-.17-.57-.33-.75a2.53,2.53,0,0,1-.13-.43c.22-.72.22-.72.19-.9a1.92,1.92,0,0,1,.14-.36l.62-.45,1.28,1.3.09-.56.38.64-.27-.61.56.29-.66-.44a4.7,4.7,0,0,0,1.62-.13,1.86,1.86,0,0,0,.9-.28A1.81,1.81,0,0,1,6.86,40c1.26,0,1.27,0,2.51.07a3.91,3.91,0,0,1,.35.36.55.55,0,0,1,.53-.32h.65L11,40v-.05l.47-.39.1-.09h0c.67-.57,1.37-1.11,2.07-1.65a6.34,6.34,0,0,1,1.1.15l-.35-.24c-.23-.18-.14-.75-.26-.79a20.2,20.2,0,0,0-4.36-.68c-1.47-.09-3-.14-4.46-.15a1,1,0,0,1-1.22-.49.86.86,0,0,1,.63-1.09C9.91,30.36,17.56,29.69,24,31.57L29,32l-.26-.27L30,32.1l.14,0-1-1-.69-.27A32,32,0,0,1,22.73,30C20.85,29.6,19,29.18,17,28.87s-3.92-1-5.95-1.45a.82.82,0,0,1-.91-.72.84.84,0,0,1,.89-.77c6.22-1.71,13.89-1.68,19.26,1.59a5.93,5.93,0,0,1,3.28.8l.06,0-.76-.83c.89.18,1.39.89,2.2,1.17-.11-.36-.23-.78-.33-1.14,2.2.35,4.46.41,6.71.74,1.12.15,2.22.33,3.3.58A16.76,16.76,0,0,1,47.9,30l.46.14a21.06,21.06,0,0,1,2.76-.86c.23-.05.47-.1.72-.13a1,1,0,0,1,.23,0l1.24.1,2.5.22a101.78,101.78,0,0,1,10.44,1.69l-3.62-.87-3.6-.7c-1.2-.22-2.41-.47-3.6-.63L52,28.44h0l.22,0,.49,0,1,.08,2,.15c1.31.08,2.64.3,4,.45,2.64.3,5.3.81,8,1.32a98.15,98.15,0,0,1,16.28,4.87,94.6,94.6,0,0,1,21.75,12.07A91.26,91.26,0,0,1,123,64.24a80,80,0,0,1,11,18.32c.67,1.45,1.19,3,1.69,4.37s1,2.77,1.32,4.13a54.86,54.86,0,0,1,1.54,7.35,75.59,75.59,0,0,1,3.37,24.08,86.24,86.24,0,0,1-3.94,22.93c-.58,1.73-1.1,3.56-1.75,5.21l-1.94,5c-1.37,3.16-2.77,6.34-4.25,9.24-2.92,5.92-6,11.41-8.84,16.56s-5.6,10.11-7.88,14.83a103.11,103.11,0,0,0-5.53,13.67,36.86,36.86,0,0,0-1.28,5.65c0,.24,0,.34,0,.45s0,.26,0,.38,0,.51,0,.76a9.3,9.3,0,0,0,.14,1.5,8.47,8.47,0,0,0,1,2.82,8,8,0,0,0,2,2.2c.65.49,1.17,1,1.14,1.3s-.74.22-1.5-.29a8.38,8.38,0,0,1-3.17-3.52,10.61,10.61,0,0,1-1-4.78c0-.2,0-.42,0-.62s0-.23,0-.4a4.19,4.19,0,0,1,.06-.48c.08-.66.2-1.35.33-2.06s.32-1.44.5-2.19l.31-1.13.4-1.23.78-2.47c.24-.82.63-1.67.93-2.51l1-2.53,1.13-2.57c3-6.92,7-14.08,11.22-21.85a200.54,200.54,0,0,0,12.14-25.78,172.77,172.77,0,0,1-10.69,21.62c-3.74,6.59-7.46,12.73-10.69,18.7a107.37,107.37,0,0,0-7.87,17.44,37.24,37.24,0,0,0-1.18,4c-.15.64-.3,1.27-.4,1.88s-.21,1.28-.25,1.62a14.49,14.49,0,0,0,.33,5.16,10.33,10.33,0,0,0,2.68,4.52,13.86,13.86,0,0,0,7.37,4.09c.44.12,1.32.31,2,.44s1.61.2,2.42.3a38.84,38.84,0,0,0,10.13-.38,44.7,44.7,0,0,0,10.14-3,52,52,0,0,0,9.49-5.33,53.37,53.37,0,0,0,15-16.31A71.76,71.76,0,0,0,170.92,183a82.86,82.86,0,0,0,1.52-10.44,88.55,88.55,0,0,0,.3-10.44c-.14-7-.93-14.34-1.8-22s-1.82-15.66-2.06-24.34c0-2.17-.11-4.34,0-6.6,0-1.13,0-2.23.1-3.38l.24-3.45c.05-1.15.21-2.33.36-3.5s.29-2.36.47-3.55l.69-3.59.36-1.8.48-1.81A73,73,0,0,1,174.88,78c.73-1.61,1.42-3.25,2.21-4.81l2.52-4.6a78.25,78.25,0,0,1,12.81-16A80.17,80.17,0,0,1,226.83,33a77.17,77.17,0,0,1,19.86-2.75,78.83,78.83,0,0,1,19.7,2.38,87.3,87.3,0,0,1,18.5,6.9,85.36,85.36,0,0,1,16.59,11c5.51,4.54,9.62,9.8,9.78,10.74.1.48-.74-.21-2.22-1.64s-3.66-3.52-6.33-5.8a86.63,86.63,0,0,0-36-18.87,79.6,79.6,0,0,0-20.57-2.35A74.44,74.44,0,0,0,225.47,36a79.08,79.08,0,0,0-34.73,22,73.29,73.29,0,0,0-11.88,17.33c-.73,1.62-1.49,3.23-2.17,4.88s-1.21,3.36-1.78,5.05l-1.37,5.07c-.37,1.7-.68,3.41-1,5.11a105.05,105.05,0,0,0-1.21,20c.17,6.49.75,12.75,1.38,18.82,1.27,12.13,2.76,23.62,2.21,34.36a93.43,93.43,0,0,1-2.18,16,79.38,79.38,0,0,1-5.15,15.06,63.32,63.32,0,0,1-8.19,13.22c-.78,1-1.66,1.92-2.49,2.88s-1.78,1.79-2.68,2.69a56.79,56.79,0,0,1-5.94,4.76,49.24,49.24,0,0,1-23.42,8.85c.12.08.22.16.24.25,0,.36-.69.83-2,1.14,9.36-.31,19-4,27.31-9.87,11-8.68,18.54-21.71,22.23-36.31a97,97,0,0,0,2.93-22.82c.06-7.91-.66-16.28-1.46-25.19-1-12.21-2.1-24.66-.5-37.37a77.26,77.26,0,0,1,4.7-18.73A69.18,69.18,0,0,1,188,66.42a75.57,75.57,0,0,1,17.24-16.91A73.38,73.38,0,0,1,226.85,38.9a72.36,72.36,0,0,1,24.12-3,78.64,78.64,0,0,1,23.67,4.94,13,13,0,0,1,2.83,1.24c.38.29-.27,0-1.49-.39a81,81,0,0,0-16.13-4.18c-1.4-.18-2.77-.44-4.18-.53l-4.22-.3a77.9,77.9,0,0,0-8.5.18,70,70,0,0,0-16.75,3.34,77.66,77.66,0,0,0-15.48,7.16c3.29-1.48,5.38-2,5.32-1.51,0,.28-.58.83-1.57,1.58-.5.38-1.1.81-1.8,1.28s-1.43,1.08-2.27,1.68c2.09-1.38,4.34-2.47,6.55-3.65,2.29-1,4.54-2.1,6.92-2.87a24.35,24.35,0,0,1,3.75-1.12c1-.19,1.56-.25,1.55-.13,0,.29-2.32,1-5,2.06-2.4.79-4.67,1.9-7,2.92-2.22,1.18-4.47,2.32-6.58,3.71l-1.6,1c-.53.34-1,.73-1.55,1.09-1,.75-2.05,1.46-3,2.24L201.49,58c-1,.79-1.84,1.72-2.77,2.58a65.23,65.23,0,0,0-9.62,11.7A60.76,60.76,0,0,0,182.41,86,74.88,74.88,0,0,0,179,103.78a122.89,122.89,0,0,0,.12,17.7c.86,11.63,2.67,22.94,3.44,34.16a30.9,30.9,0,0,1,.81-6.63h0c-.33-3.51-.72-7-1.11-10.52-1-8-2.12-16.17-2.38-24.49a100,100,0,0,1,.32-12.58c.25-2.11.43-4.22.87-6.31.21-1,.35-2.11.61-3.15l.8-3.12a28.81,28.81,0,0,1,1-3.08c.36-1,.68-2.06,1.08-3.06l1.3-3c.22-.5.42-1,.67-1.48l.77-1.43c.51-1,1-1.91,1.55-2.86l1.75-2.73.88-1.36,1-1.29,2-2.59,2.14-2.44,1.07-1.22,1.16-1.15,2.31-2.28,2.47-2.11,1.23-1.06c.42-.34.87-.65,1.3-1l2.62-1.93c.89-.61,1.82-1.18,2.73-1.77s1.83-1.17,2.79-1.67l2.87-1.55c1-.5,2-.92,3-1.38,1.95-1,4-1.64,6.07-2.42a66.88,66.88,0,0,1,12.77-3,69.48,69.48,0,0,1,26,1.59A77.89,77.89,0,0,1,307.81,71a9,9,0,0,1,1.38,2.11,7.51,7.51,0,0,1-1.49-1.71A77,77,0,0,0,254.45,41.2l.09,0c.84.13,1,.26.05.25a27.93,27.93,0,0,1-3.27-.28c-1-.13-.88-.23-.08-.26a65.94,65.94,0,0,0-28.75,4.85,74.12,74.12,0,0,0-12.86,6.87A72.59,72.59,0,0,0,198.5,62c-.88.83-1.62,1.8-2.44,2.69l-1.19,1.37c-.4.46-.74,1-1.11,1.44-.73,1-1.48,1.92-2.17,2.91l-2,3c-.69,1-1.19,2.11-1.78,3.16a30.74,30.74,0,0,0-1.62,3.25l-1.45,3.32-1.18,3.43a68.8,68.8,0,0,0-2.86,14,96.23,96.23,0,0,0-.38,14.08,103.55,103.55,0,0,1,.46-13c.29-2.17.5-4.36,1-6.51.24-1.07.38-2.17.69-3.23l.86-3.19a58.46,58.46,0,0,1,5.15-12.2A65,65,0,0,1,192,70.93c.62-.92,1.33-1.76,2-2.64a30.28,30.28,0,0,1,2.09-2.56l2.2-2.46c.77-.79,1.58-1.53,2.36-2.3l1.19-1.15c.4-.37.84-.71,1.26-1.07l2.52-2.11,2.67-1.94,1.33-1,1.4-.87,2.79-1.74,2.91-1.55c.49-.25,1-.52,1.46-.76l1.5-.67c1-.44,2-.9,3-1.32,2.07-.72,4.1-1.58,6.23-2.1a63.9,63.9,0,0,1,12.93-2.39A67,67,0,0,1,253.36,42a14.08,14.08,0,0,1,2.85.41c.28.13-.5.1-1.58.05l-3.21-.18c6.64.41,11.49,2.18,11.26,2.63-.48.45-6-.47-12.65-.73a68.47,68.47,0,0,0-13.34.94,71.07,71.07,0,0,0-12.82,3.73,68.07,68.07,0,0,0-22.15,14.57c-1.4,1.32-2.6,2.82-3.86,4.27-.64.73-1.15,1.56-1.71,2.34s-1.11,1.57-1.63,2.38A66.9,66.9,0,0,1,227.11,48.5c12.92-4.51,27.15-4.15,40-.15.56.16,1.09.33,1.58.48s.91.37,1.27.53c.73.33,1.17.58,1.16.67s-.46,0-1.18-.17c-.37-.1-.8-.22-1.27-.38l-1.57-.42a63.14,63.14,0,0,0-64.4,17.56,59.38,59.38,0,0,0-9.92,14.22,57.06,57.06,0,0,0-5.17,16.47c-1.85,11.53-.71,23.56.74,35.69,1.38,7.94,2.94,16,3.91,24.41a120.89,120.89,0,0,1,.89,12.9,108.75,108.75,0,0,1-.58,13.21c.17-1.1.38-2.21.52-3.33s.26-2.25.4-3.37a117.76,117.76,0,0,0,.09-21c-.52-6.73-1.42-13.16-2.29-19.4-1.75-12.45-3.41-24.27-2.39-35.66a58.16,58.16,0,0,1,3.77-16.42,55.37,55.37,0,0,1,8.69-14.66A61.73,61.73,0,0,1,230.65,50a9.15,9.15,0,0,1,2.36-.53c.15.06-.62.39-1.81.74a61.4,61.4,0,0,0-28.49,18.74A56.51,56.51,0,0,0,193.86,83l-.78,1.92a19,19,0,0,0-.73,2c-.39,1.33-.87,2.61-1.2,4s-.66,2.73-.91,4.13-.47,2.81-.63,4.25a86.08,86.08,0,0,0-.35,14.37c.23,4.81.78,9.64,1.44,14.48,1.29,9.69,3.08,19.44,4,29.6-.65-10.4-2.27-20.19-3.41-29.63-.59-4.73-1.06-9.37-1.27-13.93-.15-2.29-.12-4.53-.15-6.78s.14-4.46.41-6.64A55.89,55.89,0,0,1,193,88a50.79,50.79,0,0,1,5.59-11.66,58.74,58.74,0,0,1,8.34-10.21,64.93,64.93,0,0,1,10.57-8.25A32,32,0,0,1,221.14,56a2.12,2.12,0,0,1,.73-.52,54.25,54.25,0,0,1,13.44-5.38,11.09,11.09,0,0,1,2.66-.45C238.48,49.64,237.91,49.76,236.88,50.07ZM24.15,43.28,24,43.09l.58.3.9,1.32Zm-8.63,6.3h0L15,48.87ZM118.93,177.42c2.55-4.59,5.21-9.29,7.76-14.36,1.3-2.47,2.51-5.14,3.73-7.78.61-1.31,1.15-2.75,1.72-4.12s1.15-2.76,1.63-4.25l1.49-4.39c.44-1.51.84-3.06,1.25-4.6.19-.77.41-1.53.59-2.32l.44-2.4c.28-1.62.63-3.2.82-4.85a76.6,76.6,0,0,0-.13-20.23,74.12,74.12,0,0,1,.87,19.81c-.08,1.28-.37,2.48-.57,3.72l-.68,3.67c-.53,2.41-1.22,4.72-1.85,7.06s-1.53,4.47-2.34,6.66-1.74,4.24-2.67,6.27A233.78,233.78,0,0,1,118.93,177.42ZM17,38.81a11.47,11.47,0,0,1,2.57,2.24,5.24,5.24,0,0,1,1.76-.39,33,33,0,0,1,4.88.08c-.25-.47.13-.45.32-.52l.59-.17c-1.72-.19-3.47-.49-5.23-.68C20.29,39.19,18.56,39.14,17,38.81ZM5.7,42.68l-.18-.14.15-.79S5.69,42.15,5.7,42.68ZM5.49,44l.26.05C5.72,44.35,5.63,44.27,5.49,44Zm2.33.46a1.39,1.39,0,0,0-.38-.32Zm5.79,21.06,0-3.77-.12,3.64Z"/><path d="M88,110.51c0,.17,0,.34,0,.51-.3,0-.52-.17-.69-.5.49,4.71,5.17,6.24,9,5.63a1.74,1.74,0,0,0,2.65-.34,2.35,2.35,0,0,0,0-3,3.16,3.16,0,0,1-.23-.78,20.26,20.26,0,0,0-1.27-6.65c0,.53.09,1.08.13,1.61a4.44,4.44,0,0,0-.81-1.66l-.25.68a3.74,3.74,0,0,0-1.64-2.78,3.38,3.38,0,0,0-3.13-.24,6.15,6.15,0,0,0-3.87,6.28Z"/><path d="M86.42,118.59a35.63,35.63,0,0,1-1.14-4.38l.1-.48-1.13,1.51.09-.08a7.48,7.48,0,0,1,5.06,1l.61.18a1.44,1.44,0,0,0,1-.45,1.78,1.78,0,0,0,.28-2.26l-.54-.71c-1-2.24-3.17-4.61-6.14-3a6.69,6.69,0,0,0-1.64,2,2.31,2.31,0,0,0-.22,3.13,1.92,1.92,0,0,0,2.88-.17c.08.2.16.4.25.58-.21,0-.4,0-.6,0,.9-.62,1.81-.17,2.71-.13l1,.49,1.29-2.7-.65-.08c-.05.13-.1.33-.11.33a12.75,12.75,0,0,1-3.72-.58L84,112.58a1.55,1.55,0,0,0-1.15,1.51l.09,1c0-.17,0-.33,0-.5.37.79.79,1.55,1.22,2.31s.9,1.48,1.29,2.27a.47.47,0,0,0,.68.23A.61.61,0,0,0,86.42,118.59Z"/><path d="M82,115.17c-.05-.35-.07-.7-.37-.91l-.27.08c0,.19,0,.46,0,.72C81.45,115.58,81.76,115.5,82,115.17Z"/><path d="M81.37,114.34c0-.19,0-.31,0-.31s0,.21-.07.31h.09Z"/><path d="M162.18,146.89a112.59,112.59,0,0,0,24.19,1.41c.27,0,.49-.13.48-.25s-.22-.19-.47-.17a112.17,112.17,0,0,1-24.08-1.46c-.26,0-.49,0-.53.16S161.94,146.84,162.18,146.89Z"/><path d="M225.82,149.37c-.16.15-.11.25.12.23a1.35,1.35,0,0,0,.66-.29c.14-.13.08-.24-.11-.23A1.32,1.32,0,0,0,225.82,149.37Z"/><path d="M227.05,157.37a28.58,28.58,0,0,0-3.13,2,1.66,1.66,0,0,1-.57.24c.13.12,0,.36-.46.59-8.13,4.78-17.68,8.42-27.36,11.37a1.12,1.12,0,0,1-.34.53,6.41,6.41,0,0,1-3.39,1.32l-1.1.09c-4.42.56-8.84.94-13.26,1.09a12.59,12.59,0,0,1-3.07.71,108.69,108.69,0,0,1-11.68,2.33.63.63,0,0,1,.39.51c-.09.46-1,.81-2.12.8l-1.65.05,4.72.3a4,4,0,0,1,.62,0q2.59-.09,5.25-.3A116.15,116.15,0,0,0,192,174.68,143.06,143.06,0,0,0,212.11,167a1.49,1.49,0,0,1,.76-.2c.15,0,.17.17-.06.3-2,1.11-3.86,2.28-5.77,3.42s-3.84,2.22-5.83,3.3S197.16,176,195,177c-1.1.47-2.23.94-3.4,1.4s-2.37.92-3.64,1.3l-4.51,1.42-4.58,1.24c-1.53.44-3.07.78-4.63,1.13s-3.12.74-4.7,1A154.27,154.27,0,0,1,150,187c-6.94-.21-13.66-.55-20.48-1.08a204.91,204.91,0,0,1-20.87-2.79,146.26,146.26,0,0,1-15.59-3.93,133.42,133.42,0,0,1-24.47-9.76,9.6,9.6,0,0,1-4.75-4,5.72,5.72,0,0,1-.25-5.19,6.37,6.37,0,0,1,5.32-3.32l-.87-.6L66.86,155a5.91,5.91,0,0,1-1.68-4.1l0-1.87c.48-3.2,0-6.52,1-9.63l.93-.74v-.44a5.48,5.48,0,0,1,.62-3.52l1-1A14.2,14.2,0,0,1,72.53,131a5.12,5.12,0,0,1,1.26-1.2A7,7,0,0,1,76.38,126a1,1,0,0,1,1-1,1,1,0,0,1,.5.14h0a9.86,9.86,0,0,0,.18-1c-.17-.31-.26-.51-.26-.51-.51-.78-.51-.78-.93-1.46a4.58,4.58,0,0,1,0-1.62c1.1-2.41,1.11-2.41,1.89-3.17l.31-.14c-.18-.66-.19-.7-.23-.89a2.35,2.35,0,0,1,.08-.5c.37-.46.37-.46.43-.69a3.33,3.33,0,0,1,.28-.35c.65-.29.65-.29.78-.43a2.69,2.69,0,0,1,.34-.13l.61.15c-.42,1.68-.42,1.69-.42,1.69l.46-.29-.31.66.33-.56,0,.56,0-.73c.53.8.53.8.82,1a1.3,1.3,0,0,0,.61.44,2.15,2.15,0,0,1,.19-.29l1.13,1.7a3.43,3.43,0,0,1-.08.48.39.39,0,0,1,.5.13l.31.41H85l0,0,.51,0h.11l2.16.18a8.07,8.07,0,0,1,.47.78,2.43,2.43,0,0,1,0-.38c0-.26.43-.61.4-.71a19.48,19.48,0,0,0-1.62-3.19c-.31-.49-.63-1-1-1.46l-.91-1.5a.83.83,0,0,1-.13-1.12.76.76,0,0,1,1.05-.29,10.72,10.72,0,0,1,1.82.42A11.61,11.61,0,0,1,92.63,115a20.24,20.24,0,0,1,4.54,6c.81,1,1.64,1.91,2.53,2.78v-.33l.56.89.08.08-.09-1.24-.26-.52a14.35,14.35,0,0,1-2.57-3.47l-1.07-1.9c-.34-.66-.67-1.31-1-1.94A26.9,26.9,0,0,1,93.64,111a.82.82,0,0,1,.12-1,.55.55,0,0,1,.86,0,19,19,0,0,1,8.22,10.93,3.86,3.86,0,0,1,1.41,2.09l0,0c0-.34,0-.66,0-1,.39.54.35,1.28.69,1.83.11-.35.23-.7.35-1a46.84,46.84,0,0,0,3.61,3.11,14.2,14.2,0,0,1,3.33,3.49,1.93,1.93,0,0,1,.25.24,7.78,7.78,0,0,1,4.85.94c-.65-.47-1.3-1-1.91-1.43a21.41,21.41,0,0,1,4.83,1.78c.54.29,1.08.61,1.61.95s1.09.65,1.62,1c1.07.7,2.08,1.53,3.05,2.31a18.71,18.71,0,0,1,4.45,5,132.15,132.15,0,0,0,14.25,3.89,116.19,116.19,0,0,0,14.6,2.12c.51,0,1,.26,1,.52s-.31.46-.82.45a96.61,96.61,0,0,1-21.44-2.55,90.67,90.67,0,0,0,18,4.83l2.41.22a16.15,16.15,0,0,1,2.38.38,99.27,99.27,0,0,0,24.11-.1,127.45,127.45,0,0,0,19.88-4.49c4.73-1.5,9.19-3.08,13.56-4.84s8.71-3.55,13.22-5.47c1.17-.58,2.43-.79,2.79-.46s-.31,1.09-1.49,1.69a147.62,147.62,0,0,1-14,6.62c-2.37,1-4.82,1.87-7.24,2.8s-4.91,1.67-7.43,2.34a111.07,111.07,0,0,1-15.39,3.31,95.59,95.59,0,0,1-16,1l-3.48-.09-3.43-.24a.88.88,0,0,1,.06.26,1.17,1.17,0,0,1-.6.91l3.93.35,4,.25c7.35-.74,14.59-1.91,22.42-2.8l4-.45c1.3-.12,2.59-.25,3.86-.42l3.81-.44,3.78-.57A169.25,169.25,0,0,0,229.55,142a.88.88,0,0,1,.61-.15c.13,0,0,.18-.18.31-1.91,1.19-3.94,2.18-6,3.28s-4.14,2-6.29,2.91c.81.07,1.37.32,1.47.75s-.29,1-1,1.57l1.53-.49,1.51-.54c.63-.22,1.18-.24,1.24,0s-.35.58-.94.8c-1,.39-2.07.75-3.11,1.08l-3.13,1c-2.1.64-4.21,1.21-6.32,1.8a146.72,146.72,0,0,1-15.25,4,3.32,3.32,0,0,1,1.73,1h0l2.41-.48A243.53,243.53,0,0,0,240.2,142c.27-.14.52-.19.58-.11s-.12.26-.37.38c-4.15,2.1-8.3,4.18-12.55,6h0c.2,0,.28.07.12.22a1.49,1.49,0,0,1-.67.29c-.22,0-.25-.09-.12-.22a243.24,243.24,0,0,1-24,9.11,203.94,203.94,0,0,0,22.58-7.14l2.23-1.37a1,1,0,0,1,.64-.13c.1,0,0,.21-.24.33l-.62.37c1.39-.55,2.62-.63,2.82-.15s-.88,1.42-2.33,2c-3.82,1.79-7.73,3.33-11.7,4.73q-.63.28-1.26.54l-1.23.67A162.19,162.19,0,0,0,232.63,151c.5-.25,1-.33,1.09-.17s-.25.5-.76.76a155.45,155.45,0,0,1-15.81,7.6,153.32,153.32,0,0,1-16.88,5.65l-5.51,2.65c-1.87.85-3.78,1.66-5.72,2.51l1.53-.24a79.27,79.27,0,0,0,17.89-5.63c5.57-2.34,10.89-5,16.56-7.61.28-.15.56-.17.63-.1s-.09.25-.39.38c-2.74,1.37-5.4,2.6-8,4s-5.34,2.59-8.22,3.71c-4.74,2-9.37,3.57-13.93,5.31,9.56-2.3,18.24-6.09,27-10a2.46,2.46,0,0,1,1.07-.29c0-.06.07-.14.17-.22,1-.72,2.13-1.4,3.29-2.07a1.08,1.08,0,0,1,.69-.18C227.39,157.06,227.29,157.21,227.05,157.37ZM90.39,130v-.24l.2.55-.18,1.5Zm-9.58-.88h0c.09-.5.15-.86.15-.86C80.9,128.6,80.85,128.87,80.81,129.1Zm63.31,18.44a51.36,51.36,0,0,1-12.37-4.62c1,.27,2,.6,3.05.82,1.53.63,3,1.32,4.61,1.95Zm-55.19-25a13.19,13.19,0,0,1,0,3.14,3.69,3.69,0,0,1,1.28.76,34.14,34.14,0,0,1,3,2.77c.12-.5.34-.27.5-.22l.46.19c-1-1.1-1.89-2.22-2.81-3.37A24.66,24.66,0,0,1,88.93,122.53Zm-8.45-4.74,0-.21.66-.4Zm-1.1.69.08.21C79.23,118.86,79.25,118.74,79.38,118.48Zm.78,2a1.59,1.59,0,0,0,0-.48ZM67.75,138.14l2.93-2.38L67.78,138Z"/><path d="M127.43,24.87l.27,0c0,.16-.17.27-.36.35,2.45,0,3.94-2.31,4.34-4.49a1.11,1.11,0,0,0,.33-1.51,1.08,1.08,0,0,0-1.51-.34,1.72,1.72,0,0,1-.44.06,8.47,8.47,0,0,0-3.68.26h.86a2.61,2.61,0,0,0-1,.4l.3.18a2.53,2.53,0,1,0,.27,5.06Z"/><path d="M131.28,26.32c-.79.11-1.57.18-2.36.24l-.23-.08.6.71,0-.06a4.54,4.54,0,0,1,1.25-2.62l.18-.31a.77.77,0,0,0-.07-.58.8.8,0,0,0-1.09-.34l-.45.24c-1.3.34-2.85,1.51-2.43,3.17.1.39.49.67.77,1a1.12,1.12,0,1,0,1.86-1.24l.32-.09-.06.32c-.19-.53.18-1,.34-1.45l.41-.5-1.16-.92-.15.35.15.08a10.28,10.28,0,0,1-.85,2l-.36.94a.69.69,0,0,0,.61.7l.49,0-.25,0c.89-.28,1.74-.7,2.63-1a.28.28,0,1,0-.12-.54Z"/><path d="M129,28.36a.64.64,0,0,0-.5.14v.14l.37,0C129.09,28.69,129.09,28.52,129,28.36Z"/><path d="M128.45,28.64h-.15l.14.06v-.05Z"/><path d="M150.33,8.35a37.7,37.7,0,0,0,3.69-2s0-.1,0-.17-.12-.1-.16-.08a41.26,41.26,0,0,1-3.7,2s0,.1,0,.17A.21.21,0,0,0,150.33,8.35Z"/><path d="M164,9a.23.23,0,0,0,.13.17c.06,0,.11,0,.09-.07a.26.26,0,0,0-.14-.17C164,8.88,163.93,8.92,164,9Z"/><path d="M168,14.67a1.89,1.89,0,0,0-.11.74c0,.05,0,.06-.08.05a.4.4,0,0,1,.13.32,15,15,0,0,1-2,4.47,1.82,1.82,0,0,1,.16.31c.14.34.09.61-.11.69l-.18,0c-.64.23-1.24.49-1.89.7a.79.79,0,0,1-.16.52,15.67,15.67,0,0,1-.59,2,.93.93,0,0,1,.25.24c.18.25.22.51.09.59l-.17.16.67-.22h.11a4.18,4.18,0,0,0,.57-.47,15.25,15.25,0,0,0,3.23-6c0-.06,0-.08.11,0a.22.22,0,0,1,.11.18c-.06,2,.32,4.3-.21,6a30.47,30.47,0,0,1-2.25,5.56c-1.46,1.13-2.36,2.77-3.51,4.35a18.34,18.34,0,0,1-1.21,1.52,1.65,1.65,0,0,1-.2.21l-.33.31-.67.61-1.36,1.2c-1.82,1.58-3.68,3.09-5.59,4.61a3.32,3.32,0,0,1-4.7,0,3.4,3.4,0,0,1-.94-2.89l-.36.26-.69.26a2.9,2.9,0,0,1-2.05,0l-.86-.3c-1.41-.75-3-1.06-4.35-1.93l-.26-.52-.2-.06a2.82,2.82,0,0,1-1.58-.73l-.4-.58a7.15,7.15,0,0,1-.87-2.15,2.56,2.56,0,0,1-.43-.75,3.38,3.38,0,0,1-1.54-1.68.47.47,0,0,1-.37-.57.41.41,0,0,1,.13-.23h0l-.46-.19-.28.09-.83.33a2.26,2.26,0,0,1-.79-.12c-1.06-.75-1.06-.75-1.34-1.21l0-.16-.47.05a1,1,0,0,1-.24-.07c-.19-.22-.19-.22-.29-.27a2.09,2.09,0,0,1-.15-.17c-.06-.35-.06-.35-.11-.43a.94.94,0,0,1,0-.18,2.94,2.94,0,0,0,.15-.31l.79.33-.08-.26.29.21-.24-.21.29,0-.37-.07a1.89,1.89,0,0,0,.63-.35.78.78,0,0,0,.3-.29,1.06,1.06,0,0,1-.12-.12l1-.46.23.09a.23.23,0,0,1,.13-.24l.26-.13,0-.07,0,0,.1-.26V26.8h0c.06-.18.16-.44.41-1.13a2.69,2.69,0,0,1,.45-.16l-.19,0c-.13,0-.24-.29-.29-.29a17.66,17.66,0,0,0-3.59,1.35.42.42,0,0,1-.58,0,.41.41,0,0,1,0-.59,8.91,8.91,0,0,1,6.42-5.1q.94-.47,1.86-1l-.16-.05.55-.16,0,0-.63-.15-.31,0a26.51,26.51,0,0,1-4.53,1.63,21.6,21.6,0,0,1-2.51.55.36.36,0,0,1-.5-.13.36.36,0,0,1,.13-.5c1.85-1.87,4.4-3.44,7.1-3.37a2.17,2.17,0,0,1,1.33-.44h0l-.49-.15c.34-.14.7,0,1-.07l-.44-.37c1.6-.8,3-2.09,4.8-2.44l.18-.07a8.61,8.61,0,0,1,.94-1.79l-.46.12a1.47,1.47,0,0,1,.52-.89,3.11,3.11,0,0,1,3.36.48,52,52,0,0,0,3.69-3.73c.05-.08.19,0,.3.09s.17.3.11.37A16.74,16.74,0,0,1,148,12.09a15.84,15.84,0,0,0,2.91-1.46l.28-.31a.68.68,0,0,1,.38-.18,13.21,13.21,0,0,0,3-2.76,32.37,32.37,0,0,0,1.94-3.13A12.4,12.4,0,0,1,159.49.08c.14-.18.49,0,.78.27s.4.74.26.92c-1.91,3.18-3.61,6.55-6.6,8.6l-1,.64.12.14a2,2,0,0,1,.31.56,9,9,0,0,1,1.21-.58,6.63,6.63,0,0,1,2.5-2.88,9.25,9.25,0,0,1,2.71-.63c.67-.85,1.28-1.76,2-2.59,0,0,.07,0,.14,0a.24.24,0,0,1,.08.19,14.3,14.3,0,0,1-1,2.4,2.38,2.38,0,0,1,.76.68,2.14,2.14,0,0,1,.42.94l.42-.29c.1-.05.26,0,.38.18s.15.34.07.4l-1.7,1.21c-.52.68-1.07,1.34-1.63,2a3.4,3.4,0,0,1,.78.61h0l.29-.26A13.86,13.86,0,0,1,165.62,7s.11,0,.17.07.07.16,0,.18a10.72,10.72,0,0,0-1.72,1.36h0a.24.24,0,0,1,.14.17c0,.07,0,.1-.09.08a.27.27,0,0,1-.13-.18A14.77,14.77,0,0,0,161.49,12a17,17,0,0,1,2.95-2.25c0-.17.08-.35.11-.52s.09,0,.15,0a.25.25,0,0,1,.08.19l0,.13c.21-.11.58.08.87.46s.36.81.15.94a18.14,18.14,0,0,1-1.44,1.33l-.11.19,0,.31c.91-.47,1.85-.91,2.79-1.32.07-.06.21,0,.32.14s.13.28.07.34A27.67,27.67,0,0,1,164,16.37c0,.94,0,1.89-.06,2.82a1,1,0,0,0,.19-.12c1.54-1.19,1.58-3.85,2.81-5.34,0-.05.1,0,.16,0s.08.15,0,.18A16.4,16.4,0,0,0,166,16.78a15.62,15.62,0,0,0-.9,2.4c1-1,1.56-2.6,2.44-3.79,0-.07.1-.07.18,0a.3.3,0,0,1,0-.11,2.61,2.61,0,0,1,.12-.78c0-.05.07-.05.14,0A.23.23,0,0,1,168,14.67Zm-30.49,11-.12,0h.31l.69.33Zm-1.86,4.64h0l-.39-.18Zm13.72-18.2a4.62,4.62,0,0,1-2.16.9l.37-.42A16.16,16.16,0,0,1,149.35,12.14ZM133.61,25.42a6.08,6.08,0,0,1,1.55.39,2,2,0,0,1,.57-.56,19.56,19.56,0,0,1,1.85-1.1c-.22-.14-.07-.22,0-.29l.18-.21c-.7.32-1.41.63-2.13.94A16.54,16.54,0,0,1,133.61,25.42Zm-3.55,3.93-.1,0-.11-.37Zm.2.61.12,0C130.43,30.07,130.37,30.05,130.26,30Zm1.06-.24a.7.7,0,0,0-.23-.06Zm7.07,8L137.58,36l.73,1.63Z"/></g></g></svg>