<svg xmlns="http://www.w3.org/2000/svg" viewBox="0 0 486.67 430.98"><g id="Layer_2" data-name="Layer 2"><g id="Layer_1-2" data-name="Layer 1"><path d="M183.35,42.83l.59,0a1.29,1.29,0,0,1-.85.8,10.52,10.52,0,0,0,6.83-3.4,16.32,16.32,0,0,0,3.93-6.41,2.47,2.47,0,0,0,1.2-3.18,2.39,2.39,0,0,0-3.33-.65,4.34,4.34,0,0,1-1,.15A22,22,0,0,0,182,31l2-.07a7.19,7.19,0,0,0-2.48.94l.67.35c-3.28.37-6.12,3.16-6.17,6.12s2.63,5,5.84,4.65Z"/><path d="M191.73,45.41c-1.73.31-3.47.55-5.24.79l-.51-.15,1.28,1.41,0-.11c.13-2.09,1.61-4,3.09-5.68l.47-.66a1.45,1.45,0,0,0,0-1.19,1.77,1.77,0,0,0-2.41-.66c-.36.18-.71.39-1.06.58-3,.87-6.74,3.62-5.93,7,.2.79,1.06,1.32,1.69,1.93a2.51,2.51,0,0,0,3.44.44,2.38,2.38,0,0,0,.82-3.29l.74-.24-.17.7c-.36-1.1.52-2.07.93-3.11l1-1.11-2.44-1.8-.37.76.32.15a26.6,26.6,0,0,1-2.18,4.29l-.9,2a1.3,1.3,0,0,0,1.3,1.39l1.09,0-.55,0c2-.7,3.92-1.67,5.9-2.31a.66.66,0,0,0,.5-.73A.54.54,0,0,0,191.73,45.41Z"/><path d="M186.42,50a1.58,1.58,0,0,0-1.13.35v.3h.82C186.7,50.62,186.7,50.27,186.42,50Z"/><path d="M185.29,50.62h-.35l.32.11,0,0Z"/><path d="M337.21.78c1.13.11,2.26.18,3.37.32l3.36.43,6.68.86,6.65,1.1,3.31.55,3.29.67,6.57,1.34L377,7.63l3.25.78c1.08.28,2.14.6,3.22.89l6.41,1.81c.58.15,1.08.22,1.14.11s-.36-.35-.9-.49l-6.42-1.82L380.43,8l-3.24-.79-6.51-1.59-6.56-1.35-3.29-.68L357.52,3l-6.64-1.11c-2.22-.32-4.46-.58-6.69-.87s-4.47-.6-6.73-.76a1.87,1.87,0,0,0-1.2.15C336.23.59,336.65.73,337.21.78Z"/><path d="M456.91,50.91c-.39-.13-.42,0-.1.23a4.64,4.64,0,0,0,1.22.68c.32.11.37,0,.09-.23A4.47,4.47,0,0,0,456.91,50.91Z"/><path d="M449.92,56.12c-1.06-.47-2.08-.94-3.08-1.35s-2-.75-2.93-1.06a4.78,4.78,0,0,1-1-.48c.05.21-.42.15-1.19-.15A321.52,321.52,0,0,0,393.34,38a1.6,1.6,0,0,1-.82.26,17,17,0,0,1-6-.76L384.81,37c-1.78-.5-3.59-.88-5.38-1.33s-3.58-.9-5.39-1.25l-5.42-1.09-2.7-.55-2.72-.46A40.76,40.76,0,0,1,358,32.1c-3.19,0-6.39.11-9.58.14l-9.6.45c.39.17.63.36.61.56s-.48.42-1.09.56a10.39,10.39,0,0,1-2.26.25l-2.6,0c2.48.11,5,.13,7.44.4a9.16,9.16,0,0,1,1,.11c2.73.12,5.49.12,8.3.34A288,288,0,0,1,421,47a3.9,3.9,0,0,1,1.23.54c.17.17.09.27-.34.15-14.65-3.64-27.75-4.7-44.05-6.31a221.13,221.13,0,0,0-57.21,1.86A147.49,147.49,0,0,0,292.35,49,166.35,166.35,0,0,0,265.77,59.7c-1.5.67-2.91,1.52-4.35,2.26l-4.28,2.28L253,66.69c-1.37.81-2.76,1.56-4.05,2.46l-1,.65-.49.32-.18.13-.63.47-1.27.93c-.84.61-1.71,1.17-2.51,1.83-1.63,1.26-3.26,2.48-4.92,3.67s-3.19,2.52-4.81,3.76a5,5,0,0,1-4,1.47A6.57,6.57,0,0,1,225,80.17,7.44,7.44,0,0,1,223,74.38l-.65.46-1.25.43a5.16,5.16,0,0,1-3.8-.3l-1.65-.68c-2.72-1.59-5.74-2.19-8.48-4l-.55-1-.4-.11a6,6,0,0,1-3.21-1.45l-.83-1.15a13.48,13.48,0,0,1-1.88-4.36,4.72,4.72,0,0,1-.9-1.5,6.82,6.82,0,0,1-3.23-3.36,1,1,0,0,1-.77-1.16,1,1,0,0,1,.27-.49h0a7.83,7.83,0,0,0-1-.36c-.37.13-.6.19-.6.19-.93.42-.93.42-1.76.76a5,5,0,0,1-1.71-.17c-2.28-1.44-2.29-1.43-2.89-2.35,0-.11-.05-.23-.07-.34l-1,.17a3,3,0,0,1-.53-.13c-.41-.43-.41-.43-.64-.52a2.25,2.25,0,0,1-.31-.32c-.13-.73-.12-.73-.24-.88a2.1,2.1,0,0,1,0-.38l.36-.66,1.74.58-.17-.53.62.4-.51-.41h.64l-.8-.09a4.81,4.81,0,0,0,1.4-.82,1.94,1.94,0,0,0,.68-.63,3.24,3.24,0,0,1-.25-.24c1.13-.56,1.13-.56,2.24-1.07l.48.16a.55.55,0,0,1,.32-.52l.56-.29.06-.16,0,0,.24-.56,0-.12h0c.16-.38.39-1,1.08-2.35a6.36,6.36,0,0,1,1-.35l-.43-.06c-.28-.05-.46-.59-.58-.58-.72.14-1.43.32-2.13.53s-1.36.51-2,.8c-1.33.58-2.66,1.23-4,1.85a1,1,0,0,1-1.31.09.82.82,0,0,1,.06-1.23c2.7-6,9.14-9.76,15.48-11,1.51-.58,3-1.19,4.47-1.81l-.34-.11,1.28-.28.12-.05-1.33-.36c-.24,0-.47.05-.71.09a29.17,29.17,0,0,1-5.29,1.71c-1.8.47-3.61,1-5.41,1.54s-3.91.8-5.9,1.27a.84.84,0,0,1-1.13-.24.8.8,0,0,1,.42-1A35.74,35.74,0,0,1,194,29.56a20.78,20.78,0,0,1,9.17-1.76,5.68,5.68,0,0,1,3.13-.8h0l-1-.36c.82-.26,1.58.14,2.39,0l-.83-.83c2-.66,3.93-1.57,5.88-2.37a30.57,30.57,0,0,1,2.95-1.05,13.74,13.74,0,0,1,3.06-.48,3.34,3.34,0,0,1,.43-.1,23.49,23.49,0,0,1,1.76-2l.49-.46.15-.11.43-.25.87-.49a40.58,40.58,0,0,1,3.73-1.88c-.93.3-1.83.66-2.73,1l-2.65,1s.17-.12.27-.18l.33-.2.68-.4,1.36-.8c.91-.54,1.85-1,2.81-1.48,1.91-.92,3.89-1.79,6-2.61,11.38-4.37,24.9-6.54,31.66-5.37a244.83,244.83,0,0,1,33.54-6.19A270.74,270.74,0,0,1,331.82.06a4.19,4.19,0,0,1,2.41.56c.11.27-.66.48-1.82.44a264.89,264.89,0,0,0-48.55,4.62,288.56,288.56,0,0,1,41.22-2c1.77,0,3.55-.07,5.34,0s3.51.22,5.24.42c17.69,1,34.15,4,51.53,8l2.77.64,2.7.71L398,14.9c1.76.45,3.47,1,5.18,1.51L408.28,18c3.39,1.07,6.74,2.28,10.16,3.44s6.81,2.57,10.34,3.93A280.28,280.28,0,0,1,456.7,38.46a245.82,245.82,0,0,1,25.84,16.33c2.25,1.62,4.13,3.43,4.13,4s-1.84-.29-4.09-1.88a311.39,311.39,0,0,0-27.75-16.69,317.47,317.47,0,0,0-29.49-13.56,298.84,298.84,0,0,0-31.18-10.52,314.77,314.77,0,0,0-33-7.38c-2.43-.45-4.87-.73-7.28-1.1l-3.62-.52c-1.21-.15-2.42-.26-3.63-.39a.46.46,0,0,1,.1.28c0,.35-.51.64-1.29.85l4.09.45c1.36.19,2.72.42,4.09.63l4.08.66,2.05.34,2,.42a189.45,189.45,0,0,1,45.67,10.7A234.45,234.45,0,0,1,436,34.55a283,283,0,0,1,34.41,18.3,3.34,3.34,0,0,1,1,.79c.11.18-.18.1-.63-.16l-5.95-3.27-3-1.65-3-1.57-6.14-3.16-6.27-3c1.15,1,1.72,1.75,1.42,2.09s-1.51.21-3.16-.33l5.52,3c1.14.61,1.94,1.26,1.79,1.45s-1.11-.14-2.2-.71c-3.75-2-7.47-4-11.31-5.84-1.91-.91-3.79-1.9-5.73-2.76l-5.8-2.61A295.24,295.24,0,0,0,398,25.2a7.06,7.06,0,0,1,2.44,2.12h0L405,28.71c27.69,7.64,54.5,21.06,78.43,38.55.47.34.82.67.78.76s-.46-.11-.89-.42c-3.64-2.59-7.25-5.22-11-7.62-1.88-1.2-3.71-2.48-5.63-3.61l-5.72-3.44,0,0c.28.24.28.37-.09.23a5.24,5.24,0,0,1-1.2-.72c-.32-.28-.23-.35.09-.24a245.16,245.16,0,0,0-44.88-20.11,257.22,257.22,0,0,1,40.77,19.23c1.48.71,3,1.35,4.47,2.12a3.49,3.49,0,0,1,1,.75c.07.14-.27.06-.68-.16l-1.22-.63c2.41,1.51,4.07,3,3.76,3.43s-2.71-.52-5.22-2c-6.9-3.75-13.81-7.43-20.92-10.69l-2.34-1L432,42.32A290.76,290.76,0,0,1,463.74,59.9c.89.52,1.57,1.1,1.49,1.26s-.87-.12-1.77-.64a295.22,295.22,0,0,0-28.58-14,286.65,286.65,0,0,0-30-11c-3.48-.62-7-1.09-10.47-1.63-3.53-.37-7-.81-10.6-1.1.87.19,1.74.42,2.61.64,11.11,2.62,21.43,5.17,31.57,8.25a197.57,197.57,0,0,1,30.21,11.7,2.06,2.06,0,0,1,.9.66c0,.12-.38,0-.88-.25a223.32,223.32,0,0,0-29.7-11.39l-6.34-1.94-6.27-1.65-3.1-.79-3.09-.66c-2.06-.43-4.09-.85-6.12-1.23l6.07,1.61,3,.77,3,.87,6,1.7L417.62,43l3,1,2.93,1,5.87,2.11c1.94.76,3.87,1.56,5.81,2.35l2.92,1.2c1,.41,1.91.86,2.88,1.3a7.68,7.68,0,0,1,1.7.95.76.76,0,0,1,.43.06,63.67,63.67,0,0,1,6.33,2.53,3.18,3.18,0,0,1,1.06.68C450.67,56.36,450.39,56.31,449.92,56.12Zm-244.61-12-.24-.09h.65l1.39.73Zm-4.67,9.44h0l-.82-.37Zm96.62-48.2L290,6.15c-1.21.11-2.42.29-3.62.46l-3.62.5c-4.84.55-9.62,1.44-14.49,2.06l6.92-1.67,2.74-.44,2.76-.33,5.52-.61c1.83-.23,3.68-.34,5.53-.45ZM197,43.47a12.59,12.59,0,0,1,3.28.8,5,5,0,0,1,1.34-1.16A27,27,0,0,1,205.92,41c-.44-.3-.09-.44,0-.59l.43-.4c-1.58.6-3.25,1.09-4.86,1.75A40.91,40.91,0,0,1,197,43.47Zm-8.22,8.41-.23-.05-.22-.76Zm.42,1.27.25-.07C189.59,53.35,189.46,53.31,189.23,53.15Zm2.3-.61a1.54,1.54,0,0,0-.49-.12Zm14.73,16-1.71-3.36,1.57,3.29Z"/><path d="M358.35,53.5l-.57-.28c.12-.18.48-.2,1-.11a10.3,10.3,0,0,0-7.08-.49,9.29,9.29,0,0,0-2.45,1.16,7.19,7.19,0,0,0-1.62,1.49c-1.15.11-1.56.73-1.14,1.3a2.45,2.45,0,0,0,1.11.73,4.33,4.33,0,0,0,1.62.29,6.09,6.09,0,0,1,.89.2c.6.24,1.18.47,1.8.69l1.94.65,2,.67,2.12.67c-.64-.29-1.29-.57-1.91-.82a19.86,19.86,0,0,0,2.44.62l-.59-.48c3.14,1.3,6.41,1.69,7.07.21s-1.79-4.52-5.11-5.89Z"/><path d="M350.61,48.94a24.7,24.7,0,0,1,2.56.46c.87.19,1.73.4,2.62.66l.47.29-1-1.41,0,.09c-.42,1.37-2.21,2-3.77,2.64l-.53.27a.64.64,0,0,0-.11.73A2.57,2.57,0,0,0,353,53.73l1.07,0a23,23,0,0,0,2.36.3,12.16,12.16,0,0,0,2.27,0c1.42-.18,2.46-.7,2.33-2.05-.05-.61-.84-1.41-1.37-2.13a3.85,3.85,0,0,0-3.39-1.78c-1.31.1-1.86,1-1.33,1.92l-.76-.1.27-.4c.2.85-.8,1.17-1.36,1.68l-1.06.38,2.06,1.87.46-.32-.29-.21a15.17,15.17,0,0,1,2.78-1.82l1.25-.94c.19-.47-.29-1.15-1.07-1.51l-1.1-.41.54.25a53.73,53.73,0,0,0-6.11-.32c-.32,0-.57.14-.57.37A.65.65,0,0,0,350.61,48.94Z"/><path d="M356.48,47.52a2.24,2.24,0,0,0,1.19.21l.05-.22-.82-.34C356.31,46.94,356.25,47.2,356.48,47.52Z"/><path d="M357.72,47.51l.35.15-.3-.21,0,0Z"/><path d="M366.81,197.23c-1,24.83-2.15,49.81-3.7,74.78-.05.83,0,1.54.21,1.58s.34-.6.38-1.38c1.6-25,2.78-49.83,3.77-74.66a2.73,2.73,0,0,0-.3-1.64C367,195.86,366.83,196.45,366.81,197.23Z"/><path d="M344.15,383.46c-.06-.59-.17-.57-.26,0a10.75,10.75,0,0,0-.07,2.06c.05.5.17.48.26-.05A10.31,10.31,0,0,0,344.15,383.46Z"/><path d="M335.93,378c-.28-3.5-.59-6.82-1-9.78a9.21,9.21,0,0,1-.05-1.64c-.18.2-.38-.46-.51-1.73-2.63-24.84-4.51-51.56-6.26-77.88a2.68,2.68,0,0,1-.65-1.12,29.5,29.5,0,0,1-1.11-9.27l.11-2.86c.18-11.55.39-23.07.8-34.56a70.65,70.65,0,0,1-.62-8.05c-.91-9.95-1.72-19.93-2.25-30.14-.21.64-.46,1-.73,1-.63-.2-1.09-2.57-1-5.33,0-1.39.07-2.77.16-4.16-.46,4-.54,8-.8,11.95a15,15,0,0,1-.12,1.59c-.09,4.37-.09,8.79,0,13.28.42,39.22,4,76.09,7.74,112.67a7.61,7.61,0,0,1,0,2.07c-.1.36-.27.29-.36-.38-3.5-23.07-8.23-43.05-11-69.14-1.62-15.52-3-30.95-4-46.49-.26-3.88-.52-7.77-.71-11.67l-.3-5.86c-.1-2-.23-3.92-.22-5.88A57.48,57.48,0,0,1,318.27,171c4-8.29,9-16.37,12.8-24.51,1-2.08,1.81-4,2.71-6.34l.63-1.67c.24-.64.48-1.17.68-1.63.42-.91.82-1.69,1.13-2.48a15.64,15.64,0,0,0,1.21-9.44,13.09,13.09,0,0,0-1.75-4.35c-.44-.69-.94-1.4-1.61-2.35a19.33,19.33,0,0,1-2.2-4,16.69,16.69,0,0,1-1.06-5.25,17.59,17.59,0,0,1,.57-5.16,23.57,23.57,0,0,1,4-7.76,13.46,13.46,0,0,0,1-1.58l0-.06h0s0,0,.09.06l.35.18a6,6,0,0,0,.73.32l.39.13a.88.88,0,0,1,.2.08,2.79,2.79,0,0,0,.66.17l0,0c.08,0-.13,0-.21,0l-.29,0-.21,0,.1,0c.06,0,0,0-.4.18l-.3.17-.36.24c-.16.1-.31.21-.46.32l-.1.09h0a.81.81,0,0,0-.19-.3,1.72,1.72,0,0,0-.23-.26c-.41-.36-.74-.7-1.14-1-.8-.6-1.58-1.2-2.3-1.82a21.55,21.55,0,0,1-3.71-3.68,9.73,9.73,0,0,1-1.76-4.14,4.09,4.09,0,0,1-.14-1.21,10.2,10.2,0,0,1,0-1.24,10.38,10.38,0,0,1,.52-2.26,6.41,6.41,0,0,1,.64-1.38,6.87,6.87,0,0,1,.85-1.27c.16-.2.27-.42.46-.62l.61-.58a16.47,16.47,0,0,1,1.41-1.11c.25-.18.51-.36.8-.53a6,6,0,0,1,.87-.49c.66-.28,1.32-.56,1.95-.87,1.33-.56,2.84-1,4.21-1.42l2.08-.69c.42-.15.63-.25.93-.38a8.64,8.64,0,0,0,1.34-.68,1.64,1.64,0,0,0,.28-.24h0l.08.1c.18.24.46.52.59.7a6.47,6.47,0,0,0,.5.56l.29.26.19.2a3.94,3.94,0,0,0,.45.36c.17.12.21.17.34.25s.28.14.31.17l.2.09c.13,0,.19,0,.11,0a1.11,1.11,0,0,0-.34.11,2.16,2.16,0,0,0-.6.33,4.87,4.87,0,0,0-.86.63l-.19.18-.28.24a6.51,6.51,0,0,0-.54.51c-.17.18-.33.36-.49.55a2.28,2.28,0,0,1-.28.31c-.08.09,0,0-.06,0l-.09,0-.38-.07c-.65-.16-1.64-.4-2.72-.58-.56-.1-1.08-.2-1.75-.28l-2-.07c-.67-.05-1.37-.2-2.06-.3a76.82,76.82,0,0,1-8.85-1.95l-1.67-1a4.41,4.41,0,0,0-.43-.25l-.55-.2L322,70.8a7.92,7.92,0,0,1-1-.42l-.74-.56c-.49-.38-1-.75-1.44-1.13s-.93-.76-1.36-1.15l-.44-.4-.58-.51c-.79-.69-.48-1.59-1.35-2.26l-.5-.53a2.13,2.13,0,0,1-.43-.54l-.67-1.12L312.85,61a13,13,0,0,0-.72-1.19c-.65-.8.08-1.59-.74-2.49l-.37-.66a3.58,3.58,0,0,1,0-.65l.06-.65c0-.11,0-.23-.09-.35l-.15-.37c-.18-.49-.57-1-.31-1.44l.16-.68.09-.34a1.4,1.4,0,0,0-.07-.39c-.12-.53-.26-1.06-.36-1.58l.56-1.36.14-.34a1.27,1.27,0,0,0,0-.39v-.8c0-.53-.05-1.06,0-1.6l.1-1.61,0-.41c0-.14.13-.21.19-.32l.49-.61,1-1.22a9.8,9.8,0,0,0,.56-1.46l.52-1.48,0-.1,0,0a.53.53,0,0,0-.06-.1l-.26-.42-.13-.2c0-.06,0-.08,0-.11l.08-.21.35-.8.35-.8.27-.71.54-1.32c.35-.85.73-1.73,1.11-2.56s.6-1.36.91-2,.66-1.29,1-1.8a12.47,12.47,0,0,1,2.07-2.62c1.33-1.28,2.7-1.68,3.68-.95,1.19.89,1.55,3.11,1.13,5.54.22-.33.43-.66.64-1,.4-.45.81-.93,1.2-1.35,1.15-1.18,2.36-1.94,3.46-1.87h1.43c2.32.53,5.1.33,7.47,1.74l.38,1L340,28a3.72,3.72,0,0,1,2.85,1.17l.65,1.14a12.06,12.06,0,0,1,1.21,4.22,3.87,3.87,0,0,1,.66,1.41A5.67,5.67,0,0,1,348,39.19a.79.79,0,0,1,.58,1.07.92.92,0,0,1-.34.37h0c.35.19.45.24.89.44.38,0,.6,0,.6,0,1-.16,1-.15,1.84-.24a5.89,5.89,0,0,1,1.66.59c2,1.84,2.05,1.88,2.51,2.8,0,.1,0,.2,0,.29.78.17.85.2,1.07.26a3.51,3.51,0,0,1,.51.31c.34.49.34.49.55.66a3.39,3.39,0,0,1,.27.37c0,.6,0,.6.09.76a1,1,0,0,1,0,.29l-.46.33c-1.65-1.11-1.65-1.12-1.65-1.12l.08.45-.55-.52.44.49-.63-.24.78.37a4.24,4.24,0,0,0-1.54.07,1.57,1.57,0,0,0-.77.22l.21.25-2.33.07-.44-.24c0,.15-.16.26-.39.28l-.59,0-.06.09,0,0c-.12.13-.2.21-.29.32l-.06.07h0c-.21.21-.5.53-1.29,1.33-.34,0-.69,0-1,0l.37.1c.25.08.36.46.47.47,1.36.09,2.71.15,4.06.17s2.75.08,4.18.22a1.54,1.54,0,0,1,1.33.5c.31.37.17.7-.27.76a10.31,10.31,0,0,1-3.24,1.44,23.14,23.14,0,0,1-3.84.73c-2.69.32-5.46.43-8,.51-.57.08-1.14.21-1.69.33l-1.51.36.23.06c-.25,0-.61,0-.56.15v0h.2l.39.08h.47a17.82,17.82,0,0,1,3.89-.46c.76,0,1.46,0,2.24,0l2.38.11a15.83,15.83,0,0,1,2.68.37l2.76.61a1.37,1.37,0,0,1,1,.54c.14.26-.1.44-.53.4-1.25.14-2.45.16-3.77.24-.63,0-1.23,0-1.88,0l-1,0h-.89c-1.26,0-2.39-.08-3.51-.13L342.17,57a3.49,3.49,0,0,1-.37-.07c-.09,0-.28-.06-.31,0l-.11.06a1.53,1.53,0,0,1-.84.31h0l.49.08c-.18.11-.6,0-.81.14l.62.2a1.53,1.53,0,0,0-.47,1.3c.05.46.22.84.25,1.2a.18.18,0,0,1,.05.08c.35.12.68.21,1,.3l.22.06.05,0,.17.09.35.16c.46.21.92.39,1.39.59a16.27,16.27,0,0,1-1.68-.91c.65.3,1.35.56,2,.79l.24.08.13,0,.06,0,.12.08,1.95,1.29c.68.46,1.38.91,2.14,1.47a24,24,0,0,1,2.48,2l.46.44a6.77,6.77,0,0,1,.51.55,10.63,10.63,0,0,1,1,1.36,6.6,6.6,0,0,1,.5.93,5.38,5.38,0,0,1,.42,1.1,8.84,8.84,0,0,1,.28,1.26,10.18,10.18,0,0,1,0,1.35,7.57,7.57,0,0,1-1.79,4.33,10.36,10.36,0,0,1-2.31,2,23.93,23.93,0,0,1-3.64,1.78c-.51.21-1.22.47-1.15.46a2.15,2.15,0,0,0-.36.11,9.69,9.69,0,0,0-1.47.54,1.7,1.7,0,0,0-.62.51,1.62,1.62,0,0,1-.1.18,1.15,1.15,0,0,1,0,.19.75.75,0,0,0,.1.36,4.86,4.86,0,0,0,1,1l.28.24.14.13.07.06v0l0,0c-.05,0,0,0,0,0l.17.14a15.24,15.24,0,0,1,2.66,2.62,12.28,12.28,0,0,1,2,3.71,11.59,11.59,0,0,1,.48,2A18,18,0,0,1,350,95.7a12.38,12.38,0,0,1-.29,2,12,12,0,0,1-.57,1.72,11.8,11.8,0,0,1-.7,1.38c-.24.38-.48.75-.71,1.08a28.21,28.21,0,0,1-2.1,2.76c-.59.72-1.1,1.31-1.48,1.83a6.29,6.29,0,0,0-1.29,2.82,4.53,4.53,0,0,0,0,1.36,5.24,5.24,0,0,0,.63,1.7c.78,1.5,2,3.54,3,5.58a55.47,55.47,0,0,1,4.11,12.94c.44,2.23.71,4.55.95,6.72l.18,1.56c.08.53.16.84.26,1.32.2.9.44,1.79.66,2.67.51,1.91,1,3.85,1.67,5.77s1.29,3.89,2,5.84c1.39,3.88,3,7.81,4.42,11.7A99.35,99.35,0,0,1,367,189.8c.21,1.6,0,3-.29,3.31s-.71-.9-.89-2.5a98.86,98.86,0,0,0-3.91-16.79c-1.81-5.63-4-11.26-6-16.92-1-2.81-1.9-5.65-2.73-8.46-.4-1.39-.78-2.79-1.12-4.19l-.26-1.05-.22-1c-.15-.65-.29-1.31-.42-2-.25-1.15-.33-2.8-.51-4.39s-.37-3.23-.67-4.84a52.45,52.45,0,0,0-2.54-9.41,50.71,50.71,0,0,1,2.15,7.84,66.23,66.23,0,0,1,1,8c.05.66.08,1.28.15,1.86s.16,1.06.26,1.62c.2,1.12.39,2.15.65,3.37.51,2.37,1.05,4.71,1.71,7.11,2.51,9.54,5.88,19.2,7.53,28.89q.74,3.72,1.18,7.46a45.07,45.07,0,0,1,.24,7.33c-.1,12.38-.44,24.44-.7,36.58s-.52,24.33-.67,37c-.24,21.59-.67,40.49-1.64,62-1.42,30.2-4,57.7-9.73,87.51a44.11,44.11,0,0,1-2.06,8.09c-.35.48,0-2.4.64-6.38,2.48-15.54,4.13-31,5.39-46.52s2.1-31,2.73-46.59c1.27-31.18,1.81-62.73,2.85-95.24.21-7,.41-13.92.62-20.78a.66.66,0,0,1-.37.17c-.48,0-.92-.67-1.28-1.77q-.39,11.69-1.05,23.53c.5,21.93.65,43.9-1,67.27-1.16,16-2.9,30.58-4.54,45.42-.77,18.82-1.79,37.58-3.59,56.58a8.8,8.8,0,0,1-.28,1.82c-.1.27-.14-.13-.09-.9.85-13.07,1.38-26.46,1.76-40-.5,2.13-1,3.4-1.54,3.22s-.9-1.83-1.14-4.36l-.46,9.19c-.11,1.9-.38,3.39-.62,3.33s-.39-1.55-.31-3.35q.74-18.76,1.49-37.47c.14-15,.2-29.92.24-44.93a10.89,10.89,0,0,1-1.85,4.32h0c0,2.32-.05,4.64-.08,6.95q.9,31.82.27,64.3t-2.9,65.28a8.24,8.24,0,0,1-.18,1.58,5.55,5.55,0,0,1,0-1.42q1.23-19.8,1.94-39.51v.06c-.08.53-.2.62-.25,0a11.91,11.91,0,0,1,.08-2.06c.09-.61.2-.55.25,0,.86-24.47,1.06-48.77.6-72.75q-.45,33.42-1.66,66.8c.05,2.43.1,4.85.15,7.32a7.18,7.18,0,0,1-.18,1.81c-.09.19-.17-.3-.17-1s0-1.36,0-2c-.16,4.21-.64,7.45-1.11,7.38-.48-.24-.83-3.86-.78-8.24q0-17.58.08-35.07l-.1-3.79-.32-3.81c-.38,18.15-.73,36.28-.86,54.3a7.81,7.81,0,0,1-.27,2.89,7,7,0,0,1-.33-2.77c-1.1-31.76-2.38-63.92-3.13-96.21-1.38-10.62-2.86-21.26-4.35-32.11v4.13c.17,17.55,1.45,33.79,2.69,49.88s2.47,32.05,3.07,49a4.29,4.29,0,0,1-.13,1.67c-.11.09-.22-.49-.25-1.35-.72-16.59-2.11-31.74-3.3-48.21-1-13.64-1.92-26.61-3.15-39.29.83,25.91,3.05,50.77,4.4,76.43a16,16,0,0,1,0,3,1.52,1.52,0,0,1,.18.63c.41,3.21.74,6.71,1,10.29a6.74,6.74,0,0,1,0,1.9C336.13,379.21,336,378.79,335.93,378Zm2.5-329.2.2,0-.54.07L337,48.65S337.67,48.71,338.43,48.83Zm4.86-6.89h0l.71.31Zm7.4,99.63c-.14-.8-.28-1.6-.36-2.36l-.21-2.7c-.13-1.89-.32-3.83-.64-5.73a49.36,49.36,0,0,0-3.1-11,48.19,48.19,0,0,0-2.48-5.1,13.31,13.31,0,0,1-1.74-3.74,4.31,4.31,0,0,1,0-1.35,6.67,6.67,0,0,1,.33-1.45,9.33,9.33,0,0,1,1.73-2.74,9.5,9.5,0,0,0-1.62,2.7,5.68,5.68,0,0,0-.27,2.67c0,1.12,1.68,3.53,2.95,6.15a49.18,49.18,0,0,1,3.09,8.12,52.17,52.17,0,0,1,1.62,8.6c.16,1.45.24,2.91.32,4.29,0,.67.07,1.38.15,1.91S350.59,141,350.69,141.57Zm-5.15-92.28a22.68,22.68,0,0,1-2.82-.73,5.08,5.08,0,0,1-1.26.7c-1.2.53-2.44,1-3.54,1.53.34.12.07.24,0,.34a3,3,0,0,0-.33.28c.61-.26,1.24-.5,1.88-.71s1.36-.42,2.05-.6,1.32-.34,2-.49A11.5,11.5,0,0,1,345.54,49.29Zm8.87-4,.21.12.1.63Zm-.21-1.08-.26,0C353.87,43.91,354,44,354.2,44.18ZM351.83,44a2.59,2.59,0,0,0,.46.22ZM339.91,28.73l1.18,3.19-1-3.13Z"/><path d="M5,113.34l.51.29a1.37,1.37,0,0,1-1.13.36,11,11,0,0,0,7.75,0,18.77,18.77,0,0,0,6.63-4.07,2.56,2.56,0,0,0,2.64-2.31,2.41,2.41,0,0,0-2.72-2.14,4.79,4.79,0,0,1-1-.34A20.53,20.53,0,0,0,9.35,102l1.89.83a7.69,7.69,0,0,0-2.71-.24l.44.61a7.66,7.66,0,0,0-4.87,0,6.18,6.18,0,0,0-3.55,2.88c-1.43,2.7,0,5.71,3.08,6.76Z"/><path d="M11.33,119.47c-1.71-.51-3.38-1.1-5.09-1.69l-.38-.35.49,1.84v-.13c1.08-1.82,3.32-2.88,5.43-3.69l.74-.38a1.54,1.54,0,0,0,.54-1.11,1.72,1.72,0,0,0-1.87-1.66c-.41,0-.81,0-1.22,0a10.62,10.62,0,0,0-5.16.33,5,5,0,0,0-3.44,3.42c-.18.8.35,1.66.62,2.49a2.45,2.45,0,0,0,2.88,1.89,2.49,2.49,0,0,0,2.25-2.62l.78.13-.48.55c.18-1.15,1.42-1.62,2.28-2.36l1.4-.56-1.35-2.74-.7.52a1.62,1.62,0,0,1,.22.29,29.46,29.46,0,0,1-4,2.87L3.59,118a1.29,1.29,0,0,0,.51,1.84l1,.44L4.63,120c2.1.21,4.28.24,6.35.58a.68.68,0,0,0,.8-.42A.56.56,0,0,0,11.33,119.47Z"/><path d="M4.45,121.18A1.58,1.58,0,0,0,3.28,121l-.14.27.73.36C4.4,121.9,4.56,121.58,4.45,121.18Z"/><path d="M3.14,121.28l-.31-.15.24.23,0,0Z"/><path d="M112.62,307.11c.38.15.78.26,1.17.39.23.05.35.1.65.17s.66.17,1,.24.66.14,1,.19l1.14.15,1.14.16,1.17,0a36.39,36.39,0,0,0,9.61-.74,46.08,46.08,0,0,0,18.77-8.89,49.69,49.69,0,0,0,7.73-7.48,58.38,58.38,0,0,0,6.32-9.29,73.76,73.76,0,0,0,7.74-22.28,4.43,4.43,0,0,0,.12-2.06c-.11-.07-.31.76-.51,1.74a73,73,0,0,1-7.64,22.16,58.6,58.6,0,0,1-6.23,9.24,49.4,49.4,0,0,1-7.61,7.42,45.77,45.77,0,0,1-18.51,8.88,36.79,36.79,0,0,1-9.48.81,18.77,18.77,0,0,1-2.27-.2c-.74-.11-1.54-.16-2.17-.32a20.91,20.91,0,0,1-2.82-.77c-.4-.12-.76-.17-.88-.07S112.23,307,112.62,307.11Z"/><path d="M243.92,122.46c-.95.13-.9.24.08.26s2.34-.08,3.27-.1.77-.18-.07-.26A15.25,15.25,0,0,0,243.92,122.46Z"/><path d="M236.88,131.36A50.25,50.25,0,0,0,224,136.09,21.87,21.87,0,0,1,222,137c.17,0,.06.16-.29.39a18.78,18.78,0,0,1-1.65,1.09c-1.88,1.06-3.62,2.36-5.4,3.59s-3.43,2.66-5,4.19-3.07,3.07-4.56,4.64L203,153.47c-.71.81-1.27,1.76-1.91,2.62a51.55,51.55,0,0,0-6,11.38A57.44,57.44,0,0,0,192,180.05a89.31,89.31,0,0,0-.51,13.56c.17,4.64.67,9.4,1.26,14.23s1.35,9.78,2,14.83,1.38,10.22,1.81,15.55a6.34,6.34,0,0,1,.57,1.78,44.83,44.83,0,0,1,.74,6.44,66.93,66.93,0,0,1-.18,9.08c-.15,1.61-.32,3.22-.56,4.82a105.45,105.45,0,0,1-7.68,28.55,85,85,0,0,1-16.56,25.29,61.09,61.09,0,0,1-10.43,9.94c-1.72,1.43-3.57,2.7-5.41,4s-3.8,2.46-5.82,3.51-4.07,2.08-6.16,3c-1.06.46-2.15.87-3.22,1.29s-2.19.81-3.31,1.16c-2.21.77-4.52,1.31-6.83,1.87a69.43,69.43,0,0,1-7.12,1.11,71.23,71.23,0,0,1-7.33.39c-2.48-.1-4.93-.16-7.54-.52,1.27.35,2,.63,2,.83-.23.2-1.57.3-3.56.07l-.8-.09a5.26,5.26,0,0,1-.94-.12c-.65-.12-1.34-.25-2.05-.41a43.71,43.71,0,0,1-4.51-1.31,50.51,50.51,0,0,1-9-4.13A52.61,52.61,0,0,0,104,340.42c1.15.3,2.34.63,3.47.82s2.06.42,3.1.56l1.54.22,1.5.15,3,.27c1.15.08,2.21.07,3.18.12a70.41,70.41,0,0,0,25.43-4.84,79.82,79.82,0,0,0,23.47-14.23,78.3,78.3,0,0,0,9.41-9.69c1.48-1.72,2.72-3.52,4-5.3s2.46-3.63,3.51-5.52a95.33,95.33,0,0,0,9.79-23.4,113.7,113.7,0,0,0,2.55-12,117.33,117.33,0,0,0,1.18-12,115.1,115.1,0,0,0,0-11.9l-.17-2.91c-.07-1-.17-1.9-.25-2.86l-.26-2.83-.33-2.79c-.88-7.39-2.06-14.43-3.06-21.22-2-13.53-3.11-26.26-.28-37.81a10.44,10.44,0,0,1,.86-2.51c.23-.39.32-.27.1.55l-.36,1.31c-.12.44-.17.91-.26,1.36-.17.91-.33,1.81-.5,2.71l-.3,2.75-.15,1.37-.05,1.39c0,.92-.07,1.84-.11,2.76s0,1.87,0,2.8.05,1.87.12,2.81.12,1.88.2,2.83c.72,7.61,2.19,15.34,3.83,23.69.81,4.14,1.63,8.51,2.39,13s1.4,9.29,1.76,14.38a113.64,113.64,0,0,1-2.22,32.75,98.13,98.13,0,0,1-18.14,39.4,87.93,87.93,0,0,1-16.44,16.09,85.55,85.55,0,0,1-20.61,11.32,76.22,76.22,0,0,1-24.19,5l-3.2.08c-1.07,0-2.15-.06-3.23-.09s-2.14-.1-3.25-.19-2.26-.22-3.39-.41l-1.73-.26a17.73,17.73,0,0,1-2-.36c-1.34-.27-2.66-.62-4-1s-2.62-.8-3.91-1.24-2.57-.95-3.82-1.5c-10-4.32-18.88-11.67-24.13-21.36A49.85,49.85,0,0,1,62.71,307a56.84,56.84,0,0,1-.75-8.36c0-1.41,0-2.82.07-4.23l0-.53a2.44,2.44,0,0,1,0-.54l.09-1.08c0-.62.08-1.22.15-1.79.29-2.44.7-4.75,1.16-7,.24-1.09.48-2.21.76-3.27l.41-1.58.43-1.45c.57-1.93,1.14-3.9,1.76-5.77s1.31-3.65,2-5.46c2.73-7.06,5.72-13.44,8.59-19.35s5.6-11.25,7.93-16.32c1.21-2.55,2.18-4.92,3.17-7.29l1.27-3.4c.42-1.12.68-2.15,1-3.23a42.83,42.83,0,0,0,1.92-11.11c0-.79-.08-1.56-.08-2.34s-.22-1.4-.27-2.11-.34-1.39-.45-2.08a5.26,5.26,0,0,0-.32-1.05c-.11-.35-.22-.7-.32-1-1.93-5.6-6.18-11.61-12.08-16.37a44.82,44.82,0,0,0-6.3-4.24c-1.06-.68-2.23-1.11-3.3-1.69l-1.68-.68-.82-.35c-.3-.11-.63-.21-.94-.31l-1.87-.66-1.94-.55-1-.28-1-.23-2-.46c-1.38-.21-2.7-.54-4.13-.68-.7-.09-1.39-.2-2.1-.28L50,169.69c-.71-.08-1.45-.1-2.19-.13l-1.1-.05h-.21l-.65,0-1.31.12c-.88.09-1.73.09-2.62.21-3.49.26-7.07.66-10.74,1.16-2.69.81-5.58-1.28-6.5-4.9a7.54,7.54,0,0,1,.93-6l-.76.07L23.57,160a5.22,5.22,0,0,1-3.15-2.1l-1.13-1.38c-1.65-2.72-4-4.73-5.68-7.59v-1.19l-.31-.29a6.08,6.08,0,0,1-2.17-2.78l-.22-1.4a13.29,13.29,0,0,1,.32-4.76,4.72,4.72,0,0,1-.11-1.75,6.89,6.89,0,0,1-1.34-4.49.94.94,0,0,1-.15-1.39,1,1,0,0,1,.47-.31h0a9.74,9.74,0,0,0-.72-.77c-.39-.05-.62-.1-.62-.1l-1.91-.09a5,5,0,0,1-1.44-.92c-1.38-2.3-1.39-2.3-1.5-3.4A1.78,1.78,0,0,1,4,124.9c-.75-.22-.8-.24-1-.31a2.36,2.36,0,0,1-.41-.35c-.17-.56-.17-.56-.33-.75a2.3,2.3,0,0,1-.13-.42c.22-.72.22-.72.19-.91a1.67,1.67,0,0,1,.14-.35l.62-.45,1.28,1.29.09-.56.38.64-.27-.6.56.28L4.45,122a4.7,4.7,0,0,0,1.62-.13,2,2,0,0,0,.9-.28,2.05,2.05,0,0,1-.11-.33c1.26,0,1.27,0,2.51.07a4,4,0,0,1,.35.37.57.57,0,0,1,.53-.33h.65a1.14,1.14,0,0,0,.11-.11v0l.47-.38c.1-.09.1-.1.1-.1h0c.67-.57,1.37-1.1,2.07-1.64a7.51,7.51,0,0,1,1.1.14c-.12-.08-.24-.15-.35-.24s-.14-.75-.26-.78a20.21,20.21,0,0,0-4.36-.69c-1.47-.08-3-.14-4.46-.14a1,1,0,0,1-1.22-.49.87.87,0,0,1,.63-1.1c5.18-4.13,12.83-4.8,19.24-2.92l5,.43-.26-.27,1.31.37h.14l-1-1-.7-.27a32.89,32.89,0,0,1-5.68-.87c-1.88-.41-3.75-.84-5.68-1.14-2.08-.31-3.93-1-6-1.46a.81.81,0,0,1-.91-.72.85.85,0,0,1,.89-.77c6.22-1.71,13.89-1.68,19.26,1.59a5.93,5.93,0,0,1,3.28.81h.06l-.76-.82c.89.17,1.39.89,2.2,1.17-.11-.36-.23-.78-.33-1.15,2.2.36,4.46.42,6.71.75a29.93,29.93,0,0,1,3.3.58,16.07,16.07,0,0,1,3.11,1.14,3.5,3.5,0,0,1,.46.14,19.68,19.68,0,0,1,2.76-.87l.72-.13c.08,0,.07,0,.23,0l1.24.11,2.5.22a104.48,104.48,0,0,1,10.44,1.68l-3.62-.86-3.6-.7c-1.2-.23-2.41-.48-3.6-.63L52,109.72h.25l.49,0,1,.07,2,.15c1.31.09,2.64.3,4,.46,2.64.29,5.3.8,8,1.32a97.2,97.2,0,0,1,16.28,4.87,94.55,94.55,0,0,1,21.75,12.06A91.56,91.56,0,0,1,123,145.52a80.23,80.23,0,0,1,11,18.33c.67,1.45,1.19,2.94,1.69,4.37s1,2.76,1.32,4.12a54.65,54.65,0,0,1,1.54,7.36,75.59,75.59,0,0,1,3.37,24.08,86.23,86.23,0,0,1-3.94,22.92c-.58,1.74-1.1,3.56-1.74,5.22l-1.95,5c-1.37,3.15-2.77,6.33-4.25,9.24-2.92,5.92-6,11.41-8.84,16.55s-5.6,10.12-7.88,14.84a102,102,0,0,0-5.53,13.67,36.6,36.6,0,0,0-1.28,5.65c0,.24,0,.33,0,.45s0,.25,0,.38,0,.5,0,.76a8.92,8.92,0,0,0,1.12,4.31,7.87,7.87,0,0,0,2,2.2c.65.49,1.17,1,1.14,1.3s-.74.22-1.5-.29a8.41,8.41,0,0,1-3.17-3.51,10.64,10.64,0,0,1-1-4.78c0-.21,0-.43,0-.62a2.25,2.25,0,0,1,0-.4,4.36,4.36,0,0,1,.06-.49c.08-.66.2-1.35.33-2s.32-1.45.5-2.19l.31-1.14.4-1.23.78-2.46c.24-.82.63-1.68.93-2.51l1-2.53,1.13-2.58c3-6.91,7-14.07,11.22-21.85a201,201,0,0,0,12.14-25.77,173.46,173.46,0,0,1-10.69,21.62c-3.74,6.59-7.46,12.73-10.69,18.69a107.75,107.75,0,0,0-7.87,17.44,37.24,37.24,0,0,0-1.18,4c-.15.64-.3,1.28-.4,1.89s-.21,1.28-.25,1.61a14.47,14.47,0,0,0,.33,5.16,10.42,10.42,0,0,0,2.68,4.53,16.8,16.8,0,0,0,4.21,3,17.75,17.75,0,0,0,3.16,1.05c.44.11,1.32.31,2,.43s1.61.2,2.42.3a38.4,38.4,0,0,0,10.13-.37,45.25,45.25,0,0,0,10.14-3,51.91,51.91,0,0,0,9.49-5.32,53.41,53.41,0,0,0,15-16.32,71.6,71.6,0,0,0,8.56-22.33,83,83,0,0,0,1.52-10.45,88.38,88.38,0,0,0,.3-10.43c-.14-7-.93-14.35-1.8-22s-1.82-15.66-2.06-24.33c0-2.17-.11-4.35,0-6.61,0-1.12,0-2.23.1-3.38s.16-2.29.24-3.45.21-2.32.36-3.5.29-2.35.47-3.54l.69-3.59.36-1.81.48-1.81a73.39,73.39,0,0,1,3.33-10.08c.73-1.61,1.42-3.24,2.21-4.81l2.52-4.59a78,78,0,0,1,12.81-16,80.29,80.29,0,0,1,34.41-19.63,77.6,77.6,0,0,1,19.86-2.75,78.84,78.84,0,0,1,19.7,2.39,87.26,87.26,0,0,1,18.5,6.89,85.82,85.82,0,0,1,16.59,11c5.51,4.54,9.62,9.8,9.78,10.75.1.48-.74-.21-2.21-1.64s-3.67-3.52-6.34-5.8a86.51,86.51,0,0,0-36-18.87,78.74,78.74,0,0,0-20.57-2.35,74.44,74.44,0,0,0-20.64,3.36,79.15,79.15,0,0,0-34.73,22,73.55,73.55,0,0,0-11.88,17.34c-.73,1.62-1.49,3.22-2.17,4.87s-1.21,3.37-1.78,5l-1.37,5.08c-.37,1.7-.68,3.4-1,5.1a105.16,105.16,0,0,0-1.21,20c.17,6.48.75,12.74,1.38,18.82,1.27,12.12,2.76,23.62,2.21,34.35a93.16,93.16,0,0,1-2.18,16A78.9,78.9,0,0,1,167.58,281a63.32,63.32,0,0,1-8.19,13.22c-.78,1.05-1.66,1.93-2.49,2.88s-1.78,1.8-2.68,2.69a53.37,53.37,0,0,1-5.94,4.76,49.15,49.15,0,0,1-23.42,8.86c.12.07.22.15.24.24,0,.37-.69.84-2,1.15,9.36-.31,19-4,27.31-9.87,11-8.68,18.54-21.72,22.23-36.31a97.18,97.18,0,0,0,2.93-22.82c.06-7.92-.66-16.28-1.46-25.2-1-12.2-2.1-24.65-.5-37.36a77.26,77.26,0,0,1,4.7-18.73A69.24,69.24,0,0,1,188,147.7a75.57,75.57,0,0,1,17.24-16.91,73.6,73.6,0,0,1,21.66-10.6,72.1,72.1,0,0,1,24.12-3,78.63,78.63,0,0,1,23.67,4.93,14.06,14.06,0,0,1,2.83,1.24c.38.29-.27.05-1.49-.38a81,81,0,0,0-16.13-4.19c-1.39-.17-2.77-.43-4.18-.53l-4.22-.3a77.92,77.92,0,0,0-8.5.19,69.51,69.51,0,0,0-16.75,3.34,77.66,77.66,0,0,0-15.48,7.16c3.29-1.49,5.38-2,5.32-1.51,0,.27-.58.82-1.57,1.58-.5.38-1.1.8-1.8,1.28s-1.43,1.07-2.27,1.67c2.09-1.37,4.34-2.47,6.55-3.64,2.29-1,4.54-2.1,6.92-2.88a24.15,24.15,0,0,1,3.75-1.11c1-.2,1.56-.26,1.55-.13,0,.29-2.32,1-5,2.06a73.26,73.26,0,0,0-7,2.92c-2.22,1.18-4.47,2.31-6.58,3.7l-1.6,1c-.53.34-1,.73-1.55,1.09-1,.74-2.05,1.45-3,2.23l-2.91,2.42c-1,.8-1.84,1.72-2.77,2.58a65.23,65.23,0,0,0-9.62,11.7,61,61,0,0,0-6.69,13.69A75.07,75.07,0,0,0,179,185.06a122.88,122.88,0,0,0,.12,17.7c.86,11.64,2.67,22.94,3.44,34.17a31,31,0,0,1,.81-6.64h0c-.33-3.51-.72-7-1.11-10.52-1-8-2.12-16.17-2.38-24.5a100.06,100.06,0,0,1,.32-12.58c.25-2.1.43-4.21.87-6.31.21-1,.35-2.1.61-3.14l.8-3.12a28.28,28.28,0,0,1,1-3.09c.36-1,.68-2.05,1.08-3.06l1.3-3c.22-.49.42-1,.67-1.48l.77-1.43c.51-1,1-1.91,1.55-2.85l1.75-2.73.89-1.36,1-1.3,2-2.59,2.14-2.44,1.08-1.22,1.15-1.14,2.31-2.28,2.47-2.12,1.23-1.05c.42-.34.87-.65,1.3-1l2.62-1.93c.89-.62,1.82-1.18,2.73-1.77a31.63,31.63,0,0,1,2.79-1.67l2.87-1.56c1-.49,2-.91,3-1.37,1.95-1,4-1.64,6.07-2.42a66.9,66.9,0,0,1,12.77-3,69.68,69.68,0,0,1,26,1.59,78,78,0,0,1,42.86,28.37,9.18,9.18,0,0,1,1.38,2.11,7.32,7.32,0,0,1-1.49-1.7,76.94,76.94,0,0,0-53.24-30.23h.08c.84.14,1,.27.05.26a30.27,30.27,0,0,1-3.27-.28c-1-.13-.88-.23-.08-.26a72.1,72.1,0,0,0-14.67.82,71.29,71.29,0,0,0-14.08,4,73.45,73.45,0,0,0-12.86,6.87,72,72,0,0,0-11.13,9.34c-.88.83-1.62,1.79-2.44,2.69l-1.19,1.36c-.4.46-.74,1-1.11,1.44-.73,1-1.48,1.92-2.17,2.91l-2,3.06a36.12,36.12,0,0,0-1.78,3.16,30.59,30.59,0,0,0-1.62,3.24l-1.45,3.33-1.18,3.43a68.84,68.84,0,0,0-2.86,14,96.4,96.4,0,0,0-.38,14.09,103.71,103.71,0,0,1,.46-13c.29-2.17.5-4.35,1-6.5.23-1.08.37-2.17.68-3.23l.86-3.19a58.77,58.77,0,0,1,5.15-12.21,65,65,0,0,1,3.49-5.62c.62-.91,1.33-1.75,2-2.64a31.81,31.81,0,0,1,2.09-2.55l2.2-2.46c.77-.79,1.58-1.54,2.36-2.31l1.19-1.14c.4-.37.84-.71,1.26-1.07l2.52-2.12,2.67-1.94,1.33-1,1.4-.88,2.79-1.74,2.91-1.54c.49-.25,1-.52,1.46-.76l1.5-.67c1-.44,2-.91,3-1.32,2.07-.72,4.1-1.58,6.23-2.11a64.58,64.58,0,0,1,12.93-2.38,66,66,0,0,1,11.52-.33,13.39,13.39,0,0,1,2.85.41c.28.13-.5.1-1.58,0l-3.21-.19c6.64.42,11.49,2.19,11.26,2.64-.48.45-6-.48-12.65-.73a67.7,67.7,0,0,0-13.34.94,69.48,69.48,0,0,0-12.82,3.73,68,68,0,0,0-22.15,14.56c-1.4,1.33-2.6,2.83-3.86,4.28a28,28,0,0,0-1.71,2.34c-.54.79-1.11,1.57-1.63,2.38a66.84,66.84,0,0,1,32.59-23.91c12.92-4.51,27.15-4.16,40-.15.56.16,1.09.32,1.58.48s.91.37,1.27.53c.73.32,1.17.58,1.16.67s-.46,0-1.18-.17c-.37-.1-.79-.23-1.27-.38l-1.57-.43a63.14,63.14,0,0,0-64.4,17.56,59.57,59.57,0,0,0-9.92,14.22,57.06,57.06,0,0,0-5.17,16.47c-1.85,11.54-.71,23.56.74,35.7,1.38,7.94,2.94,16,3.91,24.41a120.52,120.52,0,0,1,.89,12.89,108.91,108.91,0,0,1-.58,13.22c.17-1.11.38-2.22.52-3.34s.26-2.24.4-3.37a117.65,117.65,0,0,0,.09-21c-.52-6.73-1.42-13.17-2.29-19.41-1.75-12.45-3.41-24.26-2.39-35.65a58.08,58.08,0,0,1,3.77-16.42A55.42,55.42,0,0,1,201.38,151a61.78,61.78,0,0,1,29.27-19.71,9.15,9.15,0,0,1,2.36-.53c.15,0-.62.39-1.81.74a61.45,61.45,0,0,0-28.49,18.73,56.69,56.69,0,0,0-8.85,14.07l-.78,1.93a18.84,18.84,0,0,0-.73,1.94c-.39,1.33-.87,2.62-1.2,4s-.66,2.73-.91,4.13-.47,2.81-.63,4.24a86.23,86.23,0,0,0-.35,14.38c.23,4.81.78,9.63,1.44,14.48,1.29,9.68,3.08,19.44,4,29.59-.65-10.4-2.27-20.18-3.41-29.63-.59-4.73-1.06-9.36-1.27-13.92-.15-2.29-.12-4.53-.15-6.79s.14-4.46.41-6.63A56,56,0,0,1,193,169.28a50.92,50.92,0,0,1,5.59-11.65,58.44,58.44,0,0,1,8.34-10.22,65.49,65.49,0,0,1,10.57-8.25,31.68,31.68,0,0,1,3.69-1.91,2,2,0,0,1,.73-.52,53.86,53.86,0,0,1,13.44-5.38,11.09,11.09,0,0,1,2.66-.45C238.48,130.93,237.91,131,236.88,131.36Zm-212.73-6.8-.17-.19.58.3.9,1.32S24.8,125.28,24.15,124.56Zm-8.63,6.3h0l-.55-.71ZM118.93,258.71c2.55-4.59,5.21-9.29,7.76-14.36,1.3-2.47,2.51-5.14,3.73-7.78.61-1.31,1.15-2.75,1.72-4.12s1.15-2.76,1.63-4.25l1.49-4.39c.44-1.52.84-3.06,1.25-4.6.19-.78.41-1.53.59-2.32l.44-2.41c.28-1.61.63-3.2.82-4.84a76.67,76.67,0,0,0-.13-20.24,74.14,74.14,0,0,1,.87,19.81,37.44,37.44,0,0,1-.57,3.72l-.68,3.68c-.53,2.4-1.22,4.71-1.85,7.06s-1.53,4.47-2.34,6.66-1.74,4.23-2.67,6.27A231.54,231.54,0,0,1,118.93,258.71ZM17,120.1a11.47,11.47,0,0,1,2.57,2.24,5.51,5.51,0,0,1,1.76-.4,33,33,0,0,1,4.88.08c-.25-.47.13-.44.32-.52l.59-.16c-1.72-.19-3.47-.49-5.23-.68C20.29,120.48,18.56,120.43,17,120.1ZM5.7,124l-.18-.15.15-.79S5.69,123.44,5.7,124Zm-.21,1.33.26,0C5.72,125.64,5.63,125.56,5.49,125.3Zm2.33.46a1.46,1.46,0,0,0-.38-.33Zm5.79,21.06,0-3.78-.12,3.65Z"/><path d="M88,191.79c0,.17,0,.35,0,.52-.3,0-.52-.17-.69-.5.49,4.7,5.17,6.23,9,5.63a1.74,1.74,0,0,0,2.65-.34,2.35,2.35,0,0,0,0-3,3.16,3.16,0,0,1-.23-.78,20.32,20.32,0,0,0-1.27-6.66c0,.53.09,1.08.13,1.61a4.4,4.4,0,0,0-.81-1.65l-.25.67a3.78,3.78,0,0,0-1.64-2.78,3.41,3.41,0,0,0-3.13-.24,6.16,6.16,0,0,0-3.87,6.29Z"/><path d="M86.42,199.88a36.59,36.59,0,0,1-1.14-4.38l.1-.49-1.13,1.52.09-.08a7.47,7.47,0,0,1,5.06,1l.61.18a1.47,1.47,0,0,0,1-.44,1.8,1.8,0,0,0,.27-2.26l-.54-.72c-1-2.23-3.18-4.6-6.14-3a6.69,6.69,0,0,0-1.64,2,2.31,2.31,0,0,0-.22,3.13,1.92,1.92,0,0,0,2.88-.18c.08.2.16.4.25.59-.21,0-.4,0-.6,0,.9-.63,1.81-.18,2.71-.14l1,.5,1.29-2.7-.65-.08c-.05.13-.1.33-.11.33a13.1,13.1,0,0,1-3.72-.59L84,193.86a1.56,1.56,0,0,0-1.15,1.51l.09,1v-.5c.37.79.79,1.55,1.22,2.31s.9,1.48,1.29,2.26a.47.47,0,0,0,.68.24A.62.62,0,0,0,86.42,199.88Z"/><path d="M82,196.45c-.05-.34-.07-.69-.37-.9l-.27.07,0,.73C81.45,196.87,81.76,196.78,82,196.45Z"/><path d="M81.37,195.62l0-.3c0,.11,0,.21-.07.3h.09Z"/><path d="M162.18,228.17a111.32,111.32,0,0,0,24.19,1.41c.27,0,.49-.12.49-.24s-.23-.2-.48-.17a112.17,112.17,0,0,1-24.08-1.47c-.26,0-.49,0-.53.16S161.94,228.13,162.18,228.17Z"/><path d="M225.82,230.66c-.16.15-.11.24.12.22a1.26,1.26,0,0,0,.66-.29c.14-.13.08-.24-.11-.22A1.32,1.32,0,0,0,225.82,230.66Z"/><path d="M227.05,238.65a30.19,30.19,0,0,0-3.13,2,1.46,1.46,0,0,1-.57.23c.13.13,0,.37-.46.6-8.13,4.77-17.68,8.41-27.36,11.36a1,1,0,0,1-.34.53,6.41,6.41,0,0,1-3.39,1.32l-1.1.1c-4.42.55-8.84.94-13.26,1.09a13.07,13.07,0,0,1-3.07.71,106.3,106.3,0,0,1-11.68,2.32c.25.15.39.32.39.51-.09.46-1,.81-2.12.81l-1.65,0,4.72.31a4,4,0,0,1,.62.05q2.59-.11,5.25-.3A116.93,116.93,0,0,0,192,256a144.31,144.31,0,0,0,20.09-7.65,1.4,1.4,0,0,1,.76-.2c.15,0,.17.17-.06.3-2,1.11-3.86,2.27-5.77,3.41s-3.84,2.23-5.83,3.31-4.05,2.12-6.25,3.09c-1.1.48-2.23.95-3.4,1.41s-2.37.91-3.64,1.29l-4.51,1.42-4.58,1.25c-1.53.43-3.07.78-4.63,1.13s-3.12.73-4.7,1a156.12,156.12,0,0,1-19.5,2.53c-6.94-.22-13.66-.56-20.48-1.08a204.91,204.91,0,0,1-20.87-2.79,148.71,148.71,0,0,1-15.59-3.93,134.17,134.17,0,0,1-24.47-9.77,9.59,9.59,0,0,1-4.75-4,5.72,5.72,0,0,1-.25-5.19,6.41,6.41,0,0,1,5.32-3.33l-.87-.59-1.18-1.25a5.82,5.82,0,0,1-1.67-4.09l0-1.88c.48-3.19,0-6.51,1-9.63l.93-.74v-.43a5.49,5.49,0,0,1,.62-3.53l1-1a14,14,0,0,1,3.89-2.69,4.77,4.77,0,0,1,1.26-1.2,7,7,0,0,1,2.59-3.85,1,1,0,0,1,1-1,.86.86,0,0,1,.49.15h0c.09-.41.11-.53.18-1-.17-.31-.26-.51-.26-.51-.51-.78-.51-.78-.93-1.47a4.52,4.52,0,0,1,0-1.61c1.1-2.41,1.11-2.41,1.89-3.17a2.2,2.2,0,0,1,.31-.15c-.18-.65-.19-.7-.23-.89a2.5,2.5,0,0,1,.08-.5c.37-.46.37-.46.44-.68a2.4,2.4,0,0,1,.27-.36c.65-.29.65-.29.78-.42a1.6,1.6,0,0,1,.34-.13l.61.14-.42,1.69.46-.29-.31.66.33-.56,0,.57,0-.74c.53.81.53.81.82,1a1.23,1.23,0,0,0,.61.44,2.44,2.44,0,0,1,.19-.28l1.13,1.7a3.29,3.29,0,0,1-.08.47.42.42,0,0,1,.5.13l.31.42H85l0,0,.51,0h.11l2.16.19a8,8,0,0,1,.47.77,2.22,2.22,0,0,1,0-.37c0-.27.43-.61.4-.71a18.71,18.71,0,0,0-1.62-3.19c-.31-.5-.63-1-1-1.46l-.91-1.5a.83.83,0,0,1-.13-1.12.76.76,0,0,1,1.05-.29,10.72,10.72,0,0,1,1.82.42,11.32,11.32,0,0,1,1.71.64,13.31,13.31,0,0,1,3,2,20.5,20.5,0,0,1,4.54,6,37.42,37.42,0,0,0,2.53,2.79v-.33l.56.89.08.07-.09-1.23L100,204a14.74,14.74,0,0,1-2.57-3.47l-1.07-1.91c-.34-.65-.67-1.31-1-1.93a26.9,26.9,0,0,1-1.67-4.36.82.82,0,0,1,.12-1,.55.55,0,0,1,.86,0,19.08,19.08,0,0,1,8.22,10.93,3.86,3.86,0,0,1,1.41,2.09l0,0c0-.33,0-.65,0-1,.39.54.35,1.28.69,1.84.11-.35.23-.71.35-1.06a47,47,0,0,0,3.61,3.12,13.86,13.86,0,0,1,3.33,3.49,2,2,0,0,1,.26.24,7.76,7.76,0,0,1,4.84.94c-.65-.47-1.3-1-1.91-1.44a21.45,21.45,0,0,1,4.83,1.79c.54.29,1.08.61,1.61.95s1.09.65,1.62,1a37,37,0,0,1,3.05,2.31,18.53,18.53,0,0,1,4.45,5,129.93,129.93,0,0,0,14.25,3.9,118.05,118.05,0,0,0,14.6,2.12c.51,0,1,.25,1,.51s-.31.47-.83.45A97.18,97.18,0,0,1,138.62,226a91.33,91.33,0,0,0,18,4.82L159,231a17.59,17.59,0,0,1,2.38.38,98.76,98.76,0,0,0,24.11-.09,127.48,127.48,0,0,0,19.88-4.5c4.73-1.49,9.19-3.08,13.56-4.83s8.71-3.55,13.22-5.48c1.17-.58,2.43-.78,2.79-.45s-.31,1.08-1.49,1.69a150.12,150.12,0,0,1-14,6.62c-2.37,1-4.82,1.87-7.24,2.79s-4.91,1.68-7.43,2.34a109.66,109.66,0,0,1-15.39,3.32,94.54,94.54,0,0,1-16,1l-3.48-.09-3.43-.23a.82.82,0,0,1,.06.26,1.17,1.17,0,0,1-.6.91l3.93.34,4,.26c7.35-.75,14.59-1.92,22.42-2.8l4-.45c1.3-.13,2.59-.25,3.86-.43l3.81-.43,3.78-.58a167.13,167.13,0,0,0,17.85-7.24.93.93,0,0,1,.61-.15c.13.05,0,.18-.18.32-1.91,1.18-3.94,2.18-6,3.27s-4.14,2-6.29,2.91c.81.08,1.37.33,1.47.76s-.29,1-1,1.56l1.53-.48,1.51-.55c.63-.21,1.18-.23,1.24,0s-.35.59-.94.8c-1,.4-2.07.76-3.11,1.08l-3.13,1c-2.1.65-4.21,1.22-6.32,1.81a149.27,149.27,0,0,1-15.25,4,3.32,3.32,0,0,1,1.73,1h0l2.41-.48a243.53,243.53,0,0,0,42.35-16.91c.27-.14.52-.19.58-.11s-.12.25-.37.37c-4.15,2.11-8.3,4.19-12.55,6h0c.2,0,.28.07.12.22a1.61,1.61,0,0,1-.67.29c-.22,0-.25-.1-.12-.22a243.16,243.16,0,0,1-24,9.1,203.89,203.89,0,0,0,22.58-7.13l2.23-1.37a1.05,1.05,0,0,1,.64-.14c.1,0,0,.22-.23.34l-.63.37c1.39-.55,2.62-.63,2.82-.15s-.88,1.42-2.33,2c-3.82,1.79-7.73,3.33-11.7,4.73-.42.19-.84.37-1.26.53l-1.23.67a162.13,162.13,0,0,0,18.54-6.5c.5-.26,1-.34,1.09-.18s-.25.51-.76.76a142,142,0,0,1-32.69,13.26l-5.51,2.64c-1.87.86-3.78,1.67-5.72,2.52l1.53-.25a79.77,79.77,0,0,0,17.89-5.62c5.57-2.34,10.89-5,16.56-7.62.28-.14.56-.16.63-.09s-.09.25-.39.37c-2.74,1.38-5.4,2.61-8,4s-5.34,2.58-8.22,3.71c-4.74,2-9.37,3.57-13.93,5.3,9.56-2.29,18.24-6.08,27-10a2.64,2.64,0,0,1,1.07-.3c0-.06.07-.13.17-.22,1-.71,2.13-1.4,3.29-2.06a1,1,0,0,1,.69-.18C227.39,238.34,227.29,238.49,227.05,238.65ZM90.39,211.27V211l.2.55-.18,1.49Zm-9.58-.88h0l.15-.86Zm63.31,18.44a51.38,51.38,0,0,1-12.37-4.63c1,.27,2,.61,3.05.83,1.53.63,3,1.32,4.61,1.95Zm-55.19-25a13.19,13.19,0,0,1,0,3.14,3.54,3.54,0,0,1,1.28.76,34,34,0,0,1,3,2.76c.12-.49.34-.26.5-.22l.46.19q-1.43-1.63-2.81-3.37A23.93,23.93,0,0,1,88.93,203.82Zm-8.45-4.74,0-.22.66-.39Zm-1.1.69c0,.06.05.13.08.21C79.23,200.14,79.25,200,79.38,199.77Zm.78,1.94a1.54,1.54,0,0,0,0-.48ZM67.75,219.43l2.93-2.38-2.9,2.22Z"/><path d="M127.43,106.16l.27,0a.51.51,0,0,1-.36.35c2.45,0,3.94-2.3,4.34-4.49a1.1,1.1,0,0,0-1.18-1.85,1.39,1.39,0,0,1-.44.07,8.32,8.32,0,0,0-3.68.26h.86a2.76,2.76,0,0,0-1,.39l.3.19a2.53,2.53,0,1,0,.27,5.06Z"/><path d="M131.28,107.6c-.79.11-1.57.19-2.36.25l-.23-.08.6.7,0,0a4.56,4.56,0,0,1,1.25-2.63l.18-.31a.79.79,0,0,0-.07-.58.8.8,0,0,0-1.09-.34l-.45.25c-1.3.33-2.85,1.51-2.43,3.17.1.38.49.66.77,1a1.12,1.12,0,0,0,1.86-1.25l.32-.09c0,.12,0,.22-.06.33-.19-.53.18-1,.34-1.45l.41-.5-1.16-.92-.15.35a.84.84,0,0,1,.15.08,10.55,10.55,0,0,1-.85,2l-.36.93a.69.69,0,0,0,.61.71H129l-.25,0c.89-.28,1.74-.69,2.63-.95a.29.29,0,0,0,.22-.34A.29.29,0,0,0,131.28,107.6Z"/><path d="M129,109.65a.61.61,0,0,0-.5.14v.14l.37,0C129.09,110,129.09,109.8,129,109.65Z"/><path d="M128.45,109.93h-.15l.14.06v0Z"/><path d="M150.33,89.63a39.84,39.84,0,0,0,3.69-2s0-.1,0-.17-.12-.11-.16-.08a41.17,41.17,0,0,1-3.7,2s0,.1,0,.18S150.29,89.65,150.33,89.63Z"/><path d="M164,90.26a.25.25,0,0,0,.13.18c.06,0,.11,0,.09-.07a.28.28,0,0,0-.14-.18C164,90.16,163.93,90.2,164,90.26Z"/><path d="M168,96a1.89,1.89,0,0,0-.11.74s0,.06-.08,0a.39.39,0,0,1,.13.32,15.09,15.09,0,0,1-2,4.47,2.19,2.19,0,0,1,.16.3c.14.35.09.62-.11.7l-.18,0c-.64.23-1.24.5-1.89.71a.79.79,0,0,1-.16.52,15,15,0,0,1-.59,2,1.39,1.39,0,0,1,.25.24c.18.25.22.51.09.6l-.17.16c.22-.08.45-.16.67-.22a.14.14,0,0,1,.11,0,5.08,5.08,0,0,0,.57-.47,15.25,15.25,0,0,0,3.23-6c0-.06,0-.09.11-.05s.12.13.11.19c-.06,2,.32,4.29-.21,6a30.57,30.57,0,0,1-2.25,5.57c-1.46,1.13-2.36,2.76-3.51,4.35a18.34,18.34,0,0,1-1.21,1.52,1.79,1.79,0,0,1-.2.2l-.33.31-.67.62-1.36,1.2c-1.82,1.58-3.68,3.09-5.59,4.61a3.33,3.33,0,0,1-4.7,0,3.4,3.4,0,0,1-.94-2.89l-.36.25-.69.26a2.84,2.84,0,0,1-2.05,0l-.86-.3c-1.41-.74-3-1-4.35-1.92l-.26-.53-.2-.05a2.9,2.9,0,0,1-1.58-.74l-.4-.57a7.21,7.21,0,0,1-.87-2.16,2.61,2.61,0,0,1-.43-.74,3.42,3.42,0,0,1-1.54-1.68.48.48,0,0,1-.37-.58.45.45,0,0,1,.13-.23h0c-.18-.08-.24-.11-.46-.19l-.28.08-.83.34a2.42,2.42,0,0,1-.79-.13c-1.06-.74-1.06-.74-1.34-1.2l0-.17-.47.06a1.43,1.43,0,0,1-.24-.08c-.19-.22-.19-.22-.29-.27l-.15-.16c-.06-.36-.06-.36-.11-.43a.94.94,0,0,1,0-.18l.15-.31.79.33-.08-.26.29.21-.24-.22.29,0-.37-.06c.48-.22.48-.22.63-.36a.78.78,0,0,0,.3-.29,1.14,1.14,0,0,1-.12-.12l1-.45a.92.92,0,0,1,.23.09.26.26,0,0,1,.13-.25l.26-.12,0-.08h0l.1-.26v-.06h0c.06-.18.16-.44.41-1.12a2.75,2.75,0,0,1,.45-.17l-.19,0c-.13,0-.24-.29-.29-.28a17.08,17.08,0,0,0-3.59,1.35.41.41,0,0,1-.58,0,.4.4,0,0,1,0-.58,8.92,8.92,0,0,1,6.42-5.11c.63-.3,1.25-.62,1.86-1l-.16,0,.55-.16,0,0-.63-.15-.31.06a26.51,26.51,0,0,1-4.53,1.63,23.89,23.89,0,0,1-2.51.55.37.37,0,0,1-.37-.63c1.85-1.88,4.4-3.45,7.1-3.37a2.12,2.12,0,0,1,1.33-.45h0l-.49-.15c.34-.13.7,0,1-.06l-.44-.38c1.6-.79,3-2.09,4.8-2.43l.18-.08a8.47,8.47,0,0,1,.94-1.78l-.46.12a1.41,1.41,0,0,1,.52-.89,3.11,3.11,0,0,1,3.36.47,48,48,0,0,0,3.68-3.73c.06-.07.2,0,.31.1s.17.29.11.37A16.67,16.67,0,0,1,148,93.37a15.2,15.2,0,0,0,2.91-1.45l.28-.31a.57.57,0,0,1,.38-.18,13.26,13.26,0,0,0,3-2.77,31,31,0,0,0,1.94-3.12,12.4,12.4,0,0,1,2.93-4.17c.14-.18.49-.06.78.27s.4.74.26.92c-1.91,3.18-3.61,6.54-6.6,8.59l-1,.65.12.13a2,2,0,0,1,.31.57,9,9,0,0,1,1.21-.59,6.55,6.55,0,0,1,2.5-2.87,9,9,0,0,1,2.71-.63c.67-.85,1.28-1.77,2-2.6,0,0,.07,0,.14,0A.24.24,0,0,1,162,86a14.19,14.19,0,0,1-1,2.39,2.42,2.42,0,0,1,.76.69,2.09,2.09,0,0,1,.42.94l.42-.29c.1,0,.26,0,.38.17s.15.35.07.41l-1.7,1.2c-.52.69-1.07,1.34-1.63,2a3.63,3.63,0,0,1,.78.6h0l.29-.26a14,14,0,0,1,4.77-5.61s.11,0,.17.08.07.15,0,.17a12,12,0,0,0-1.72,1.36h0a.28.28,0,0,1,.14.18c0,.06,0,.1-.09.07a.27.27,0,0,1-.13-.17,14.33,14.33,0,0,0-2.53,3.34A16.56,16.56,0,0,1,164.44,91l.11-.52s.09,0,.15,0a.22.22,0,0,1,.08.18l0,.14c.21-.11.58.08.87.45s.36.81.15,1a16.32,16.32,0,0,1-1.44,1.32l-.11.2,0,.31c.91-.47,1.85-.91,2.79-1.33.07-.05.21,0,.32.14s.13.29.07.34A27.31,27.31,0,0,1,164,97.66l-.06,2.82.19-.12c1.54-1.2,1.58-3.85,2.81-5.34,0,0,.1,0,.16,0s.08.15,0,.18A16.29,16.29,0,0,0,166,98.06a16.44,16.44,0,0,0-.9,2.4c1-1,1.56-2.59,2.44-3.78,0-.07.1-.08.18,0a.28.28,0,0,1,0-.12,2.59,2.59,0,0,1,.12-.77c0-.06.07-.06.14,0A.27.27,0,0,1,168,96Zm-30.49,11-.12,0,.31,0,.69.33Zm-1.86,4.64h0l-.39-.18Zm13.72-18.2a4.53,4.53,0,0,1-2.16.91l.37-.43C148.13,93.72,148.73,93.56,149.35,93.42Zm-15.74,13.29a5.69,5.69,0,0,1,1.55.39,2.06,2.06,0,0,1,.57-.57,19.45,19.45,0,0,1,1.85-1.09c-.22-.14-.07-.22,0-.29l.18-.21q-1.05.48-2.13.93A16.6,16.6,0,0,1,133.61,106.71Zm-3.55,3.92-.1,0-.11-.37Zm.2.62.12,0C130.43,111.35,130.37,111.34,130.26,111.25Zm1.06-.24a.79.79,0,0,0-.23-.07Zm7.07,8-.81-1.67.73,1.63Z"/></g></g></svg>