<svg xmlns="http://www.w3.org/2000/svg" viewBox="0 0 493.84 283.41"><g id="Layer_2" data-name="Layer 2"><g id="Layer_1-2" data-name="Layer 1"><path d="M5,32.06c.17.08.34.19.51.28a1.31,1.31,0,0,1-1.13.36,11,11,0,0,0,7.75,0,18.93,18.93,0,0,0,6.63-4.08,2.56,2.56,0,0,0,2.64-2.3,2.4,2.4,0,0,0-2.72-2.14,4.29,4.29,0,0,1-1-.35,20.83,20.83,0,0,0-8.31-3.13l1.89.83a7.94,7.94,0,0,0-2.71-.24l.44.62a7.59,7.59,0,0,0-4.87,0A6.18,6.18,0,0,0,.55,24.77c-1.43,2.7,0,5.71,3.08,6.76Z"/><path d="M11.33,38.19C9.62,37.67,8,37.08,6.24,36.5l-.38-.36L6.35,38v-.12C7.44,36,9.68,35,11.79,34.17l.74-.39a1.53,1.53,0,0,0,.54-1.1A1.71,1.71,0,0,0,11.2,31c-.41,0-.81,0-1.22,0a10.75,10.75,0,0,0-5.16.33A5.05,5.05,0,0,0,1.38,34.8c-.18.8.35,1.66.62,2.49a2.46,2.46,0,0,0,2.88,1.9,2.49,2.49,0,0,0,2.25-2.62l.78.13-.48.54c.18-1.14,1.42-1.62,2.28-2.36l1.4-.55L9.76,31.59l-.7.51a2.11,2.11,0,0,1,.22.29,28.61,28.61,0,0,1-4,2.87L3.59,36.72a1.29,1.29,0,0,0,.51,1.84l1,.44-.46-.29c2.1.22,4.28.25,6.35.59a.69.69,0,0,0,.8-.42A.56.56,0,0,0,11.33,38.19Z"/><path d="M4.45,39.9a1.53,1.53,0,0,0-1.17-.18L3.14,40l.73.36C4.4,40.61,4.56,40.29,4.45,39.9Z"/><path d="M3.14,40l-.31-.15.24.23,0,0Z"/><path d="M112.62,225.83c.38.15.78.26,1.17.38.23,0,.35.11.65.18s.66.17,1,.23.66.15,1,.2l1.14.14,1.14.16,1.17.06a36.41,36.41,0,0,0,9.61-.75,45.83,45.83,0,0,0,18.77-8.89,49.18,49.18,0,0,0,7.73-7.47,58.84,58.84,0,0,0,6.32-9.29,73.82,73.82,0,0,0,7.74-22.29,4.38,4.38,0,0,0,.12-2.05c-.11-.07-.31.76-.51,1.73a73.12,73.12,0,0,1-7.64,22.17,58.51,58.51,0,0,1-6.23,9.23,49.93,49.93,0,0,1-7.61,7.43,45.75,45.75,0,0,1-18.51,8.87,35.93,35.93,0,0,1-9.48.81,18.78,18.78,0,0,1-2.27-.19c-.74-.12-1.54-.17-2.17-.33a19.81,19.81,0,0,1-2.82-.76c-.4-.13-.76-.18-.88-.07S112.23,225.67,112.62,225.83Z"/><path d="M243.92,41.18c-.95.13-.9.23.08.25s2.34-.08,3.27-.1.77-.18-.07-.25A14.63,14.63,0,0,0,243.92,41.18Z"/><path d="M236.88,50.07A49.89,49.89,0,0,0,224,54.81a19.47,19.47,0,0,1-2.09.94c.17,0,.06.16-.29.4s-.9.63-1.65,1.09c-1.88,1-3.62,2.35-5.4,3.58s-3.43,2.66-5,4.19-3.07,3.07-4.56,4.65L203,72.18c-.71.82-1.27,1.76-1.91,2.63a51.33,51.33,0,0,0-6,11.38A57.17,57.17,0,0,0,192,98.77a89.21,89.21,0,0,0-.51,13.56c.17,4.63.67,9.39,1.26,14.23s1.35,9.78,2,14.83,1.38,10.22,1.81,15.55a6.1,6.1,0,0,1,.57,1.78,44.47,44.47,0,0,1,.74,6.44,67,67,0,0,1-.18,9.08c-.15,1.6-.32,3.21-.56,4.81a105.45,105.45,0,0,1-7.68,28.55,84.77,84.77,0,0,1-16.56,25.29,60.7,60.7,0,0,1-10.43,9.94c-1.72,1.44-3.57,2.7-5.41,4s-3.8,2.46-5.82,3.51-4.07,2.08-6.16,3c-1.06.45-2.15.86-3.22,1.29s-2.19.8-3.31,1.15c-2.21.77-4.52,1.31-6.83,1.87a69.44,69.44,0,0,1-7.12,1.12,68.53,68.53,0,0,1-7.33.38c-2.48-.1-4.93-.15-7.54-.51,1.27.34,2,.62,2,.82-.23.21-1.57.3-3.56.08l-.8-.09a6.42,6.42,0,0,1-.94-.13c-.65-.12-1.34-.25-2.05-.41a41.35,41.35,0,0,1-4.51-1.31,51.18,51.18,0,0,1-9-4.12,53,53,0,0,0,13.12,5.6c1.15.3,2.34.63,3.47.82s2.06.42,3.1.56l1.54.23,1.5.15,3,.26c1.15.09,2.21.07,3.18.13a70.62,70.62,0,0,0,25.43-4.84,80.06,80.06,0,0,0,23.47-14.24,77.61,77.61,0,0,0,9.41-9.69c1.48-1.72,2.72-3.52,4-5.29s2.46-3.63,3.51-5.53a95.17,95.17,0,0,0,9.79-23.4,113.7,113.7,0,0,0,2.55-12,117.14,117.14,0,0,0,1.18-12,115.08,115.08,0,0,0,0-11.9l-.17-2.92c-.07-1-.17-1.9-.25-2.85l-.26-2.84-.33-2.78c-.88-7.4-2.06-14.43-3.06-21.23-2-13.53-3.11-26.26-.28-37.81a10.37,10.37,0,0,1,.86-2.5c.23-.4.32-.28.1.54l-.36,1.32c-.12.43-.17.91-.26,1.36-.17.9-.33,1.81-.5,2.71l-.3,2.75-.15,1.36-.05,1.39c0,.93-.07,1.85-.11,2.77s0,1.87,0,2.8.05,1.86.12,2.81.12,1.87.2,2.82c.72,7.61,2.19,15.34,3.83,23.7.81,4.13,1.63,8.5,2.39,13s1.4,9.29,1.76,14.38a113.66,113.66,0,0,1-2.22,32.75,98.2,98.2,0,0,1-18.14,39.4,87.87,87.87,0,0,1-16.44,16.08,85.55,85.55,0,0,1-20.61,11.32,76,76,0,0,1-24.19,5l-3.2.08c-1.07,0-2.15-.06-3.23-.1s-2.14-.09-3.25-.19-2.26-.22-3.39-.4l-1.73-.27a15.72,15.72,0,0,1-2-.36c-1.34-.27-2.66-.62-4-1s-2.62-.8-3.91-1.23-2.57-1-3.82-1.51c-10-4.32-18.88-11.66-24.13-21.36a49.76,49.76,0,0,1-5.34-15.62,56.72,56.72,0,0,1-.75-8.36c0-1.41,0-2.82.07-4.23l0-.53a2.44,2.44,0,0,1,0-.54l.09-1.07c0-.63.08-1.22.15-1.8.29-2.44.7-4.75,1.16-7,.24-1.09.48-2.21.76-3.26l.41-1.59.43-1.45c.57-1.92,1.14-3.89,1.76-5.77l2-5.46c2.73-7.06,5.72-13.43,8.59-19.34S83,154.1,85.3,149c1.21-2.55,2.18-4.92,3.17-7.28l1.27-3.4c.42-1.13.68-2.16,1-3.23A43,43,0,0,0,92.69,124c0-.79-.08-1.57-.08-2.34s-.22-1.41-.27-2.11-.34-1.39-.45-2.09a5.38,5.38,0,0,0-.32-1c-.11-.35-.22-.71-.32-1.06-1.93-5.6-6.18-11.61-12.08-16.37a45.63,45.63,0,0,0-6.3-4.23c-1.06-.68-2.23-1.11-3.3-1.7l-1.68-.67L67.07,92l-.94-.32-1.87-.66-1.94-.55-1-.28-1-.22-2-.47c-1.38-.21-2.7-.54-4.13-.68-.7-.08-1.39-.2-2.1-.27L50,88.41c-.71-.09-1.45-.1-2.19-.13l-1.1,0a1.38,1.38,0,0,0-.21,0l-.65,0-1.31.13c-.88.08-1.73.09-2.62.2-3.49.26-7.07.67-10.74,1.17-2.69.81-5.58-1.29-6.5-4.9a7.53,7.53,0,0,1,.93-6l-.76.07-1.26-.27a5.18,5.18,0,0,1-3.15-2.1l-1.13-1.38c-1.65-2.71-4-4.73-5.68-7.59V66.4l-.31-.28a6.08,6.08,0,0,1-2.17-2.78l-.22-1.41a13.24,13.24,0,0,1,.32-4.75,4.77,4.77,0,0,1-.11-1.76,6.87,6.87,0,0,1-1.34-4.49.94.94,0,0,1-.15-1.39,1.08,1.08,0,0,1,.47-.31h0a9.75,9.75,0,0,0-.72-.78c-.39-.05-.62-.1-.62-.1l-1.91-.09a4.87,4.87,0,0,1-1.44-.91C4,45,4,45,3.91,44A1.89,1.89,0,0,1,4,43.61c-.75-.22-.8-.23-1-.31A2.58,2.58,0,0,1,2.58,43c-.17-.57-.17-.57-.33-.75a2.53,2.53,0,0,1-.13-.43c.22-.72.22-.72.19-.9a1.92,1.92,0,0,1,.14-.36l.62-.45,1.28,1.3.09-.56.38.64-.27-.61.56.29-.66-.44a4.7,4.7,0,0,0,1.62-.13,1.86,1.86,0,0,0,.9-.28A1.81,1.81,0,0,1,6.86,40c1.26,0,1.27,0,2.51.07a3.91,3.91,0,0,1,.35.36.55.55,0,0,1,.53-.32h.65L11,40v-.05l.47-.39.1-.09h0c.67-.56,1.37-1.1,2.07-1.64a6.34,6.34,0,0,1,1.1.15l-.35-.24c-.23-.18-.14-.75-.26-.79a19.6,19.6,0,0,0-4.36-.68c-1.47-.09-3-.14-4.46-.15a1,1,0,0,1-1.22-.49.86.86,0,0,1,.63-1.09C9.91,30.36,17.56,29.69,24,31.57L29,32l-.26-.27L30,32.1l.14,0-1-1-.7-.27A32,32,0,0,1,22.73,30C20.85,29.6,19,29.18,17,28.87s-3.92-1-5.95-1.45a.82.82,0,0,1-.91-.72.84.84,0,0,1,.89-.77c6.22-1.71,13.89-1.68,19.26,1.59a5.93,5.93,0,0,1,3.28.8l.06,0-.76-.83c.89.18,1.39.89,2.2,1.17-.11-.36-.23-.78-.33-1.14,2.2.35,4.46.41,6.71.74a32.49,32.49,0,0,1,3.3.58A16.76,16.76,0,0,1,47.9,30l.46.14a21.06,21.06,0,0,1,2.76-.86c.23-.05.47-.1.72-.13a1,1,0,0,1,.23,0l1.24.1,2.5.22a101.78,101.78,0,0,1,10.44,1.69l-3.62-.87-3.6-.7c-1.2-.22-2.41-.47-3.6-.63L52,28.44h0l.22,0,.49,0,1,.07,2,.16c1.31.08,2.64.3,4,.45,2.64.3,5.3.81,8,1.32a98.15,98.15,0,0,1,16.28,4.87,94.6,94.6,0,0,1,21.75,12.07A91.26,91.26,0,0,1,123,64.24a80,80,0,0,1,11,18.32c.67,1.45,1.19,3,1.69,4.37s1,2.77,1.32,4.13a54.86,54.86,0,0,1,1.54,7.35,75.59,75.59,0,0,1,3.37,24.08,86.24,86.24,0,0,1-3.94,22.93c-.58,1.73-1.1,3.56-1.74,5.21l-1.95,5c-1.37,3.16-2.77,6.34-4.25,9.24-2.92,5.92-6,11.41-8.84,16.56s-5.6,10.11-7.87,14.83a101.88,101.88,0,0,0-5.54,13.67,36.86,36.86,0,0,0-1.28,5.65c0,.24,0,.34,0,.45s0,.26,0,.38,0,.51,0,.76a9.3,9.3,0,0,0,.14,1.5,8.47,8.47,0,0,0,1,2.82,8,8,0,0,0,2,2.2c.65.49,1.17,1,1.14,1.3s-.74.22-1.5-.29a8.38,8.38,0,0,1-3.17-3.52,10.61,10.61,0,0,1-1-4.78c0-.2,0-.42,0-.62a2.31,2.31,0,0,1,0-.4,4.19,4.19,0,0,1,.06-.48c.08-.66.2-1.35.33-2.06s.32-1.44.5-2.19l.31-1.13.4-1.23.78-2.47c.24-.82.63-1.67.93-2.51l1-2.53,1.13-2.57c3-6.92,7-14.08,11.22-21.85a200.54,200.54,0,0,0,12.14-25.78,172.77,172.77,0,0,1-10.69,21.62c-3.74,6.59-7.46,12.73-10.69,18.7a107.37,107.37,0,0,0-7.87,17.44,37.24,37.24,0,0,0-1.18,4c-.15.64-.3,1.27-.4,1.88s-.21,1.28-.25,1.62a14.42,14.42,0,0,0,.33,5.15,10.37,10.37,0,0,0,2.68,4.53,16.84,16.84,0,0,0,4.21,3.05,17.71,17.71,0,0,0,3.16,1c.44.12,1.32.31,2,.44s1.61.2,2.42.3a38.84,38.84,0,0,0,10.13-.38,44.22,44.22,0,0,0,10.14-3,51.32,51.32,0,0,0,9.49-5.32,53.37,53.37,0,0,0,15-16.31A71.76,71.76,0,0,0,170.92,183a82.86,82.86,0,0,0,1.52-10.44,88.55,88.55,0,0,0,.3-10.44c-.14-7-.93-14.34-1.8-22s-1.82-15.66-2.06-24.34c0-2.17-.11-4.34,0-6.6,0-1.13,0-2.23.1-3.38l.24-3.45c.05-1.15.21-2.33.36-3.5s.29-2.36.47-3.55l.69-3.59.36-1.8.48-1.81A73,73,0,0,1,174.88,78c.73-1.61,1.42-3.25,2.21-4.81l2.52-4.6a78,78,0,0,1,12.81-16A80.17,80.17,0,0,1,226.83,33a77.17,77.17,0,0,1,19.86-2.75,78.83,78.83,0,0,1,19.7,2.38,87.09,87.09,0,0,1,18.5,6.9,85.36,85.36,0,0,1,16.59,11c5.51,4.54,9.62,9.8,9.78,10.74.1.48-.74-.21-2.21-1.64s-3.67-3.52-6.34-5.8a86.63,86.63,0,0,0-36-18.87,79.6,79.6,0,0,0-20.57-2.35A74.44,74.44,0,0,0,225.47,36a79.08,79.08,0,0,0-34.73,22,73.29,73.29,0,0,0-11.88,17.33c-.73,1.62-1.49,3.23-2.17,4.88s-1.21,3.36-1.78,5.05l-1.37,5.07c-.37,1.7-.68,3.4-1,5.11a105.05,105.05,0,0,0-1.21,20c.17,6.49.75,12.75,1.38,18.82,1.27,12.13,2.76,23.62,2.21,34.36a93.43,93.43,0,0,1-2.18,16,79.38,79.38,0,0,1-5.15,15.06,63.32,63.32,0,0,1-8.19,13.22c-.78,1-1.66,1.92-2.49,2.88s-1.78,1.79-2.68,2.69a55.77,55.77,0,0,1-5.94,4.76,49.24,49.24,0,0,1-23.42,8.85c.12.08.22.16.24.25,0,.36-.69.83-2,1.14,9.36-.31,19-4,27.31-9.87,11-8.68,18.54-21.71,22.23-36.31a97,97,0,0,0,2.93-22.82c.06-7.91-.66-16.28-1.46-25.19-1-12.21-2.1-24.66-.5-37.37a77.26,77.26,0,0,1,4.7-18.73A69.18,69.18,0,0,1,188,66.42a75.57,75.57,0,0,1,17.24-16.91A73.38,73.38,0,0,1,226.85,38.9a72.36,72.36,0,0,1,24.12-3,78.64,78.64,0,0,1,23.67,4.94,13,13,0,0,1,2.83,1.24c.38.29-.27,0-1.49-.39a81,81,0,0,0-16.13-4.18c-1.39-.18-2.77-.44-4.18-.53l-4.22-.31a80.51,80.51,0,0,0-8.5.19,70,70,0,0,0-16.75,3.34,77.66,77.66,0,0,0-15.48,7.16c3.29-1.48,5.38-2,5.32-1.51,0,.28-.58.83-1.57,1.58-.5.38-1.1.81-1.8,1.28s-1.43,1.08-2.27,1.68c2.09-1.38,4.34-2.47,6.55-3.65,2.29-1,4.54-2.1,6.92-2.87a24.35,24.35,0,0,1,3.75-1.12c1-.19,1.56-.25,1.55-.13,0,.29-2.32,1-5,2.06-2.4.79-4.67,1.9-7,2.92-2.22,1.18-4.47,2.32-6.58,3.71l-1.6,1c-.53.34-1,.73-1.55,1.09-1,.75-2.05,1.46-3,2.24L201.49,58c-1,.79-1.84,1.72-2.77,2.58a64.88,64.88,0,0,0-9.62,11.7A60.76,60.76,0,0,0,182.41,86,74.88,74.88,0,0,0,179,103.78a122.89,122.89,0,0,0,.12,17.7c.86,11.63,2.67,22.94,3.44,34.16a30.9,30.9,0,0,1,.81-6.63h0c-.33-3.51-.72-7-1.11-10.52-1-8-2.12-16.17-2.38-24.49a100,100,0,0,1,.32-12.58c.25-2.11.43-4.22.87-6.31.21-1,.35-2.11.61-3.15l.8-3.12a28.81,28.81,0,0,1,1-3.08c.36-1,.68-2.06,1.08-3.06l1.3-3c.22-.5.42-1,.67-1.48l.77-1.43c.51-1,1-1.91,1.55-2.86l1.75-2.73.89-1.36,1-1.29,2-2.59,2.14-2.44,1.07-1.22,1.16-1.15,2.31-2.28,2.47-2.11,1.23-1.06c.42-.34.87-.65,1.3-1l2.62-1.93c.89-.61,1.82-1.18,2.73-1.77s1.83-1.17,2.79-1.67l2.87-1.55c1-.5,2-.92,3-1.38,1.95-1,4-1.64,6.07-2.42a66.88,66.88,0,0,1,12.77-3,69.48,69.48,0,0,1,26,1.59A77.89,77.89,0,0,1,307.81,71a9,9,0,0,1,1.38,2.11,7.51,7.51,0,0,1-1.49-1.71A77,77,0,0,0,254.46,41.2l.08,0c.84.13,1,.26.05.25a27.93,27.93,0,0,1-3.27-.28c-1-.13-.88-.23-.08-.26a65.94,65.94,0,0,0-28.75,4.85,74.12,74.12,0,0,0-12.86,6.87A72.59,72.59,0,0,0,198.5,62c-.88.83-1.62,1.8-2.44,2.69l-1.19,1.37c-.4.46-.74,1-1.11,1.44-.73,1-1.48,1.92-2.17,2.91l-2,3c-.69,1-1.19,2.11-1.78,3.16a30.74,30.74,0,0,0-1.62,3.25l-1.45,3.32-1.18,3.43a68.8,68.8,0,0,0-2.86,14,96.23,96.23,0,0,0-.38,14.08,103.55,103.55,0,0,1,.46-13c.29-2.17.5-4.36,1-6.51.23-1.07.37-2.17.68-3.23l.86-3.19a58.46,58.46,0,0,1,5.15-12.2A65,65,0,0,1,192,70.93c.62-.92,1.33-1.76,2-2.64a30.28,30.28,0,0,1,2.09-2.56l2.2-2.46c.77-.79,1.58-1.53,2.36-2.3l1.19-1.15c.4-.37.84-.71,1.26-1.07l2.52-2.11,2.67-1.94,1.33-1,1.4-.87,2.79-1.74,2.91-1.55c.49-.25,1-.52,1.46-.76l1.5-.67c1-.44,2-.9,3-1.32,2.07-.72,4.1-1.58,6.23-2.1a63.9,63.9,0,0,1,12.93-2.39A67,67,0,0,1,253.36,42a14.08,14.08,0,0,1,2.85.41c.28.13-.5.1-1.58.05l-3.21-.18c6.64.41,11.49,2.18,11.26,2.63-.48.45-6-.47-12.65-.73a68.47,68.47,0,0,0-13.34.94,71.07,71.07,0,0,0-12.82,3.73,68.07,68.07,0,0,0-22.15,14.57c-1.4,1.32-2.6,2.82-3.86,4.27-.64.73-1.15,1.56-1.71,2.34s-1.11,1.57-1.63,2.38A66.9,66.9,0,0,1,227.11,48.5c12.92-4.51,27.15-4.15,40-.15.56.16,1.09.33,1.58.48s.91.37,1.27.53c.73.33,1.17.58,1.16.67s-.46,0-1.18-.17c-.37-.1-.8-.22-1.27-.38l-1.57-.42a63.14,63.14,0,0,0-64.4,17.56,59.38,59.38,0,0,0-9.92,14.22,57.06,57.06,0,0,0-5.17,16.47c-1.85,11.53-.71,23.56.74,35.69,1.38,7.94,2.94,16,3.91,24.41a120.88,120.88,0,0,1,.89,12.89,108.82,108.82,0,0,1-.58,13.22c.17-1.1.38-2.21.52-3.33s.26-2.25.4-3.37a117.76,117.76,0,0,0,.09-21c-.52-6.73-1.42-13.16-2.29-19.4-1.75-12.45-3.41-24.27-2.39-35.66a58.16,58.16,0,0,1,3.77-16.42,55.37,55.37,0,0,1,8.69-14.66A61.73,61.73,0,0,1,230.65,50a9.15,9.15,0,0,1,2.36-.53c.15.06-.62.39-1.81.74a61.45,61.45,0,0,0-28.49,18.73A56.75,56.75,0,0,0,193.86,83l-.78,1.92a19,19,0,0,0-.73,2c-.39,1.33-.87,2.61-1.2,4s-.66,2.73-.91,4.13-.47,2.81-.63,4.25a86.08,86.08,0,0,0-.35,14.37c.23,4.81.78,9.64,1.44,14.48,1.29,9.69,3.08,19.44,4,29.6-.65-10.4-2.27-20.19-3.41-29.63-.59-4.73-1.06-9.37-1.27-13.93-.15-2.29-.12-4.53-.15-6.78s.14-4.46.41-6.64A55.89,55.89,0,0,1,193,88a50.79,50.79,0,0,1,5.59-11.66,58.74,58.74,0,0,1,8.34-10.21,64.93,64.93,0,0,1,10.57-8.25A32,32,0,0,1,221.14,56a2.12,2.12,0,0,1,.73-.52,54.25,54.25,0,0,1,13.44-5.38,11.09,11.09,0,0,1,2.66-.45C238.48,49.64,237.91,49.76,236.88,50.07ZM24.15,43.28,24,43.09l.58.3.9,1.32Zm-8.63,6.3h0L15,48.87ZM118.93,177.42c2.55-4.59,5.21-9.29,7.76-14.36,1.3-2.47,2.51-5.14,3.73-7.78.61-1.31,1.15-2.75,1.72-4.12s1.15-2.76,1.63-4.25l1.49-4.39c.44-1.51.84-3.06,1.25-4.6.19-.77.41-1.53.59-2.32l.44-2.4c.28-1.62.63-3.2.82-4.85a76.6,76.6,0,0,0-.13-20.23,74.12,74.12,0,0,1,.87,19.81c-.08,1.28-.37,2.48-.57,3.72l-.68,3.67c-.53,2.41-1.22,4.72-1.85,7.06s-1.53,4.47-2.34,6.66-1.74,4.24-2.67,6.27A231.54,231.54,0,0,1,118.93,177.42ZM17,38.81a11.47,11.47,0,0,1,2.57,2.24,5.24,5.24,0,0,1,1.76-.39,33,33,0,0,1,4.88.08c-.25-.47.13-.45.32-.52l.59-.17c-1.72-.19-3.47-.49-5.23-.68C20.29,39.19,18.56,39.14,17,38.81ZM5.7,42.68l-.18-.14.15-.79S5.69,42.15,5.7,42.68ZM5.49,44l.26.05C5.72,44.35,5.63,44.27,5.49,44Zm2.33.46a1.39,1.39,0,0,0-.38-.32Zm5.79,21.06,0-3.77-.12,3.64Z"/><path d="M88,110.51c0,.17,0,.34,0,.51-.3,0-.52-.17-.69-.5.49,4.71,5.17,6.24,9,5.63a1.74,1.74,0,0,0,2.65-.34,2.35,2.35,0,0,0,0-3,3.16,3.16,0,0,1-.23-.78,20.26,20.26,0,0,0-1.27-6.65c0,.53.09,1.08.13,1.61a4.44,4.44,0,0,0-.81-1.66l-.25.68a3.74,3.74,0,0,0-1.64-2.78,3.38,3.38,0,0,0-3.13-.24,6.15,6.15,0,0,0-3.87,6.28Z"/><path d="M86.42,118.59a36.1,36.1,0,0,1-1.14-4.38l.1-.48-1.13,1.51.09-.08a7.48,7.48,0,0,1,5.06,1l.61.18a1.48,1.48,0,0,0,1-.45,1.8,1.8,0,0,0,.27-2.26l-.54-.71c-1-2.24-3.18-4.61-6.14-3a6.69,6.69,0,0,0-1.64,2,2.31,2.31,0,0,0-.22,3.13,1.92,1.92,0,0,0,2.88-.17c.08.19.16.39.25.58-.21,0-.4,0-.6,0,.9-.62,1.81-.17,2.71-.13l1,.49,1.29-2.7-.65-.08c-.05.13-.1.33-.11.33a12.75,12.75,0,0,1-3.72-.58L84,112.58a1.55,1.55,0,0,0-1.15,1.51l.09,1c0-.17,0-.33,0-.5.37.79.79,1.55,1.22,2.31s.9,1.48,1.29,2.27a.47.47,0,0,0,.68.23A.61.61,0,0,0,86.42,118.59Z"/><path d="M82,115.17c-.05-.35-.07-.7-.37-.91l-.27.08c0,.19,0,.46,0,.72C81.45,115.58,81.76,115.5,82,115.17Z"/><path d="M81.37,114.34l0-.31c0,.11,0,.21-.07.31h.09Z"/><path d="M162.18,146.89a112,112,0,0,0,24.19,1.4c.27,0,.49-.12.49-.24s-.23-.19-.48-.17a112.17,112.17,0,0,1-24.08-1.46c-.26,0-.49,0-.53.16S161.94,146.84,162.18,146.89Z"/><path d="M225.82,149.37c-.16.15-.11.25.12.23a1.35,1.35,0,0,0,.66-.29c.14-.13.08-.24-.11-.23A1.32,1.32,0,0,0,225.82,149.37Z"/><path d="M227.05,157.37a28.58,28.58,0,0,0-3.13,2,1.66,1.66,0,0,1-.57.24c.13.12,0,.36-.46.59-8.13,4.77-17.68,8.42-27.36,11.37a1.12,1.12,0,0,1-.34.53,6.41,6.41,0,0,1-3.39,1.32l-1.1.09c-4.42.56-8.84.94-13.26,1.09a12.59,12.59,0,0,1-3.07.71,108.69,108.69,0,0,1-11.68,2.33.63.63,0,0,1,.39.51c-.09.46-1,.81-2.12.8l-1.65.05,4.72.3a4,4,0,0,1,.62,0c1.73-.07,3.48-.16,5.25-.3A116.15,116.15,0,0,0,192,174.68,143.06,143.06,0,0,0,212.11,167a1.49,1.49,0,0,1,.76-.2c.15,0,.17.17-.06.3-2,1.11-3.86,2.28-5.77,3.42s-3.84,2.22-5.83,3.3-4.05,2.12-6.25,3.09c-1.1.48-2.23.95-3.4,1.41a38,38,0,0,1-3.64,1.3l-4.51,1.42-4.58,1.24c-1.53.43-3.07.78-4.63,1.13s-3.12.74-4.7,1A154.27,154.27,0,0,1,150,187c-6.94-.22-13.66-.55-20.48-1.08a204.91,204.91,0,0,1-20.87-2.79,146.26,146.26,0,0,1-15.59-3.93,133.42,133.42,0,0,1-24.47-9.76,9.6,9.6,0,0,1-4.75-4,5.72,5.72,0,0,1-.25-5.19,6.37,6.37,0,0,1,5.32-3.32l-.87-.6L66.86,155a5.86,5.86,0,0,1-1.67-4.1l0-1.87c.48-3.2,0-6.52,1-9.63l.93-.74v-.44a5.48,5.48,0,0,1,.62-3.52l1-1A14.2,14.2,0,0,1,72.53,131a5.12,5.12,0,0,1,1.26-1.2A7,7,0,0,1,76.38,126a1,1,0,0,1,1-1,.94.94,0,0,1,.5.14h0a9.86,9.86,0,0,0,.18-1c-.17-.31-.26-.51-.26-.51-.51-.78-.51-.78-.93-1.46a4.58,4.58,0,0,1,0-1.62c1.1-2.41,1.11-2.41,1.89-3.17l.31-.14c-.18-.66-.19-.71-.23-.89a2.35,2.35,0,0,1,.08-.5c.37-.46.37-.46.43-.69a3.33,3.33,0,0,1,.28-.35c.65-.29.65-.29.78-.43a2.69,2.69,0,0,1,.34-.13l.61.15c-.42,1.68-.42,1.69-.42,1.69l.46-.29-.31.66.33-.56,0,.56,0-.73c.53.8.53.8.82,1a1.3,1.3,0,0,0,.61.44,2.15,2.15,0,0,1,.19-.29l1.13,1.7a3.43,3.43,0,0,1-.08.48.4.4,0,0,1,.5.12l.31.42H85l0,0,.51,0h.11l2.16.18a8.07,8.07,0,0,1,.47.78,2.43,2.43,0,0,1,0-.38c0-.26.43-.61.4-.71a19.48,19.48,0,0,0-1.62-3.19c-.31-.49-.63-1-1-1.46l-.91-1.5a.83.83,0,0,1-.13-1.12.76.76,0,0,1,1.05-.29,10.72,10.72,0,0,1,1.82.42A11.61,11.61,0,0,1,92.63,115a20.24,20.24,0,0,1,4.54,6c.81,1,1.64,1.91,2.53,2.78v-.33l.56.89.08.08-.09-1.24-.26-.52a14.35,14.35,0,0,1-2.57-3.47l-1.07-1.9c-.34-.66-.67-1.31-1-1.94A26.9,26.9,0,0,1,93.64,111a.82.82,0,0,1,.12-1,.55.55,0,0,1,.86,0,19,19,0,0,1,8.22,10.93,3.86,3.86,0,0,1,1.41,2.09l0,0c0-.34,0-.66,0-1,.39.54.35,1.28.69,1.83.11-.35.23-.7.35-1a46.84,46.84,0,0,0,3.61,3.11,14.2,14.2,0,0,1,3.33,3.49,3.08,3.08,0,0,1,.26.24,7.76,7.76,0,0,1,4.84.94c-.65-.47-1.3-1-1.91-1.44a22,22,0,0,1,4.83,1.79c.54.29,1.08.61,1.61.95s1.09.65,1.62,1c1.07.7,2.08,1.53,3.05,2.31a18.71,18.71,0,0,1,4.45,5,132.15,132.15,0,0,0,14.25,3.89,116.19,116.19,0,0,0,14.6,2.12c.51,0,1,.26,1,.52s-.31.46-.83.45a96.6,96.6,0,0,1-21.43-2.55,90.67,90.67,0,0,0,18,4.83l2.41.22a16.15,16.15,0,0,1,2.38.38,99.27,99.27,0,0,0,24.11-.1,127.45,127.45,0,0,0,19.88-4.49c4.73-1.5,9.19-3.08,13.56-4.84s8.71-3.55,13.22-5.47c1.17-.58,2.43-.79,2.79-.46s-.31,1.09-1.49,1.69a147.62,147.62,0,0,1-14,6.62c-2.37,1-4.82,1.87-7.24,2.8s-4.91,1.67-7.43,2.34a111.07,111.07,0,0,1-15.39,3.31,95.59,95.59,0,0,1-16,1l-3.48-.09-3.43-.24a.63.63,0,0,1,.05.26,1.14,1.14,0,0,1-.59.91l3.93.35,4,.25c7.35-.74,14.59-1.91,22.42-2.8l4-.45c1.3-.13,2.59-.25,3.86-.42l3.81-.44,3.78-.57A169.25,169.25,0,0,0,229.55,142a.88.88,0,0,1,.61-.15c.13,0,0,.18-.18.31-1.91,1.19-3.94,2.18-6,3.28s-4.14,2-6.29,2.91c.81.07,1.37.32,1.47.75s-.29,1-1,1.57l1.53-.49,1.51-.54c.63-.22,1.18-.24,1.24,0s-.35.58-.94.8c-1,.39-2.07.75-3.11,1.08l-3.13,1c-2.1.64-4.21,1.21-6.32,1.8a146.72,146.72,0,0,1-15.25,4,3.32,3.32,0,0,1,1.73,1h0l2.41-.48A243.53,243.53,0,0,0,240.2,142c.27-.14.52-.19.58-.11s-.12.26-.37.38c-4.15,2.1-8.3,4.18-12.55,6h0c.2,0,.28.07.12.22a1.49,1.49,0,0,1-.67.29c-.22,0-.25-.09-.12-.22a243.24,243.24,0,0,1-24,9.11,203.94,203.94,0,0,0,22.58-7.14l2.23-1.37a1,1,0,0,1,.64-.13c.1,0,0,.21-.23.33l-.63.37c1.39-.55,2.62-.63,2.82-.15s-.88,1.42-2.33,2c-3.82,1.79-7.73,3.33-11.7,4.73q-.63.28-1.26.54l-1.23.67A162.19,162.19,0,0,0,232.63,151c.5-.25,1-.33,1.09-.17s-.25.5-.76.76a155.45,155.45,0,0,1-15.81,7.6,153.32,153.32,0,0,1-16.88,5.65l-5.51,2.65c-1.87.85-3.78,1.66-5.72,2.51l1.53-.24a79.27,79.27,0,0,0,17.89-5.63c5.57-2.34,10.89-5,16.56-7.61.28-.15.56-.17.63-.1s-.09.25-.39.38c-2.74,1.37-5.4,2.6-8,4s-5.34,2.59-8.22,3.71c-4.74,2-9.37,3.57-13.93,5.31,9.56-2.3,18.24-6.09,27-10a2.46,2.46,0,0,1,1.07-.29c0-.06.07-.14.17-.22,1-.72,2.13-1.4,3.29-2.07a1.08,1.08,0,0,1,.69-.18C227.39,157.06,227.29,157.2,227.05,157.37ZM90.39,130v-.24l.2.55-.18,1.5Zm-9.58-.88h0c.09-.5.15-.87.15-.87C80.9,128.6,80.85,128.87,80.81,129.1Zm63.31,18.44a51.36,51.36,0,0,1-12.37-4.62c1,.27,2,.6,3.05.82,1.53.63,3,1.32,4.61,1.95Zm-55.19-25a13.19,13.19,0,0,1,0,3.14,3.69,3.69,0,0,1,1.28.76,34.14,34.14,0,0,1,3,2.77c.12-.5.34-.27.5-.22l.46.19q-1.43-1.65-2.81-3.37A24.66,24.66,0,0,1,88.93,122.53Zm-8.45-4.74,0-.21.66-.4Zm-1.1.69.08.21C79.23,118.86,79.25,118.74,79.38,118.48Zm.78,2a1.59,1.59,0,0,0,0-.48ZM67.75,138.14l2.93-2.38L67.78,138Z"/><path d="M127.43,24.87l.27,0c0,.17-.17.28-.36.36,2.45,0,3.94-2.31,4.34-4.49a1.11,1.11,0,0,0,.33-1.51,1.08,1.08,0,0,0-1.51-.34,1.72,1.72,0,0,1-.44.06,8.47,8.47,0,0,0-3.68.26h.86a2.61,2.61,0,0,0-1,.4l.3.18a2.53,2.53,0,1,0,.27,5.06Z"/><path d="M131.28,26.32c-.79.11-1.57.18-2.36.24l-.23-.08.6.71,0-.06a4.54,4.54,0,0,1,1.25-2.62l.18-.32a.75.75,0,0,0-.07-.57.8.8,0,0,0-1.09-.34l-.45.24c-1.3.34-2.85,1.51-2.43,3.17.1.39.49.67.77,1a1.12,1.12,0,1,0,1.86-1.24l.32-.09-.06.32c-.19-.53.18-1,.34-1.45l.41-.5-1.16-.92-.15.35.15.08a10.28,10.28,0,0,1-.85,2l-.36.94a.69.69,0,0,0,.61.7l.49,0-.25,0c.89-.28,1.74-.7,2.63-1a.28.28,0,1,0-.12-.54Z"/><path d="M129,28.36a.64.64,0,0,0-.5.14v.14l.37,0C129.09,28.69,129.09,28.52,129,28.36Z"/><path d="M128.45,28.64h-.15l.14.06v-.05Z"/><path d="M150.33,8.35a37.7,37.7,0,0,0,3.69-2s0-.1,0-.17-.12-.1-.16-.08a41.26,41.26,0,0,1-3.7,2s0,.1,0,.17A.21.21,0,0,0,150.33,8.35Z"/><path d="M164,9a.23.23,0,0,0,.13.17c.06,0,.11,0,.09-.07a.26.26,0,0,0-.14-.17C164,8.88,163.93,8.92,164,9Z"/><path d="M168,14.67a1.89,1.89,0,0,0-.11.74c0,.05,0,.06-.08.05a.4.4,0,0,1,.13.32,15,15,0,0,1-2,4.47,1.82,1.82,0,0,1,.16.31c.14.34.09.61-.11.69l-.18,0c-.64.23-1.24.49-1.89.7a.79.79,0,0,1-.16.52,15.67,15.67,0,0,1-.59,2,1,1,0,0,1,.25.23c.18.26.22.52.09.6l-.17.16.67-.22h.11a4.18,4.18,0,0,0,.57-.47,15.25,15.25,0,0,0,3.23-6c0-.06,0-.08.11,0a.22.22,0,0,1,.11.18c-.06,2,.32,4.3-.21,6a30.28,30.28,0,0,1-2.25,5.57c-1.46,1.13-2.36,2.77-3.51,4.35a18.34,18.34,0,0,1-1.21,1.52,1.65,1.65,0,0,1-.2.21l-.33.31-.67.61-1.36,1.2c-1.82,1.58-3.68,3.09-5.59,4.61a3.32,3.32,0,0,1-4.7,0,3.4,3.4,0,0,1-.94-2.89l-.36.26-.69.26a2.9,2.9,0,0,1-2.05,0l-.86-.3c-1.41-.75-3-1.06-4.35-1.93l-.26-.52-.2-.06a2.82,2.82,0,0,1-1.58-.73l-.4-.58a7.15,7.15,0,0,1-.87-2.15,2.81,2.81,0,0,1-.43-.75,3.38,3.38,0,0,1-1.54-1.68.47.47,0,0,1-.37-.57.41.41,0,0,1,.13-.23h0c-.18-.08-.24-.11-.46-.19l-.28.09-.83.33a2.26,2.26,0,0,1-.79-.12c-1.06-.75-1.06-.75-1.34-1.21l0-.16-.47.05a1,1,0,0,1-.24-.07c-.19-.22-.19-.22-.29-.27a2.09,2.09,0,0,1-.15-.17c-.06-.35-.06-.35-.11-.43a.94.94,0,0,1,0-.18,2.94,2.94,0,0,0,.15-.31l.79.33-.08-.26.29.21-.24-.21.29,0-.37-.07a1.89,1.89,0,0,0,.63-.35.78.78,0,0,0,.3-.29l-.12-.12,1-.46.23.09a.23.23,0,0,1,.13-.24l.26-.13,0-.07,0,0,.1-.26V26.8h0c.06-.18.16-.44.41-1.13a2.69,2.69,0,0,1,.45-.16l-.19,0c-.13,0-.24-.29-.29-.29a17.66,17.66,0,0,0-3.59,1.35.42.42,0,0,1-.58,0,.41.41,0,0,1,0-.59,8.91,8.91,0,0,1,6.42-5.1q.94-.47,1.86-1l-.16-.05.55-.16,0,0-.63-.15-.31,0a26.51,26.51,0,0,1-4.53,1.63,21.6,21.6,0,0,1-2.51.55.36.36,0,0,1-.5-.13.37.37,0,0,1,.13-.5c1.85-1.87,4.4-3.44,7.1-3.37a2.17,2.17,0,0,1,1.33-.44h0l-.49-.15c.34-.14.7,0,1-.07l-.44-.37c1.6-.8,3-2.09,4.8-2.44l.18-.07a8.61,8.61,0,0,1,.94-1.79l-.46.12a1.47,1.47,0,0,1,.52-.89,3.13,3.13,0,0,1,3.36.47,47.87,47.87,0,0,0,3.68-3.72c.06-.08.2,0,.31.09s.17.3.11.37A16.74,16.74,0,0,1,148,12.09a15.84,15.84,0,0,0,2.91-1.46l.28-.31a.68.68,0,0,1,.38-.18,13.21,13.21,0,0,0,3-2.76,32.37,32.37,0,0,0,1.94-3.13A12.4,12.4,0,0,1,159.49.08c.14-.18.49,0,.78.27s.4.74.26.92c-1.91,3.18-3.61,6.55-6.6,8.6l-1,.64.12.14a2,2,0,0,1,.31.56,9,9,0,0,1,1.21-.58,6.63,6.63,0,0,1,2.5-2.88,9.25,9.25,0,0,1,2.71-.63c.67-.85,1.28-1.76,2-2.59,0,0,.07,0,.14,0a.24.24,0,0,1,.08.19,14.3,14.3,0,0,1-1,2.4,2.38,2.38,0,0,1,.76.68,2.14,2.14,0,0,1,.42.94l.42-.29c.1-.05.26,0,.38.18s.15.34.07.4l-1.7,1.21c-.52.68-1.07,1.34-1.63,2a3.16,3.16,0,0,1,.77.61h0l.29-.26A13.86,13.86,0,0,1,165.62,7s.11,0,.17.07.07.16,0,.18a10.72,10.72,0,0,0-1.72,1.36h0a.24.24,0,0,1,.14.17c0,.07,0,.1-.09.08a.27.27,0,0,1-.13-.18A14.77,14.77,0,0,0,161.49,12a17,17,0,0,1,2.95-2.25c0-.17.08-.35.11-.52s.09,0,.15,0a.25.25,0,0,1,.08.19l0,.13c.21-.11.58.08.87.46s.36.81.15.94a18.14,18.14,0,0,1-1.44,1.33l-.11.19,0,.31c.91-.47,1.85-.91,2.79-1.32.07-.06.21,0,.32.13s.13.29.07.35A27.67,27.67,0,0,1,164,16.37c0,.94,0,1.89-.06,2.82a1,1,0,0,0,.19-.12c1.54-1.19,1.58-3.85,2.81-5.34,0-.05.1,0,.16,0s.08.15,0,.18A16.4,16.4,0,0,0,166,16.78a15.62,15.62,0,0,0-.9,2.4c1-1,1.56-2.6,2.44-3.79,0-.07.1-.07.18,0a.3.3,0,0,1,0-.11,2.61,2.61,0,0,1,.12-.78c0-.05.07-.05.14,0A.23.23,0,0,1,168,14.67Zm-30.49,11-.12,0h.31l.69.33Zm-1.86,4.64h0l-.39-.18Zm13.72-18.2a4.62,4.62,0,0,1-2.16.9l.37-.42A16.16,16.16,0,0,1,149.35,12.14ZM133.61,25.42a6.08,6.08,0,0,1,1.55.39,2,2,0,0,1,.57-.56,19.56,19.56,0,0,1,1.85-1.1c-.22-.14-.06-.22,0-.29l.18-.21c-.7.32-1.41.63-2.13.94A16.54,16.54,0,0,1,133.61,25.42Zm-3.55,3.93-.1,0-.11-.37Zm.2.61.12,0C130.43,30.07,130.37,30.05,130.26,30Zm1.06-.24a.7.7,0,0,0-.23-.06Zm7.07,8L137.58,36l.73,1.63Z"/><path d="M205.18,106.24c.21,0,.43,0,.64,0a1.75,1.75,0,0,1-.94,1,15.67,15.67,0,0,0,7.72-4.37,39.34,39.34,0,0,0,3-3.46,25.55,25.55,0,0,0,2.31-3.78c1.51-.82,2.54-2.27,2.09-3.44s-2.19-1.47-3.87-.66a5.38,5.38,0,0,1-1.23.23,20.7,20.7,0,0,0-5,.28c-.86.15-1.77.34-2.64.58s-1.71.56-2.57.9L207,93.1A11.35,11.35,0,0,0,204,94.47l.73.31a10.16,10.16,0,0,0-5.14,2.86,8,8,0,0,0-2.23,4.78c-.15,3.28,2.78,5,6.24,4.15Z"/><path d="M214.21,108.19c-1.9.44-3.89.79-5.73,1.28l-.54-.09,1.34,1.35-.06-.11c.1-2.29,1.93-4.43,3.69-6.31l.57-.77a1.65,1.65,0,0,0,.06-1.3c-.36-.87-1.51-1.08-2.59-.47l-1.23.72c-3.54,1.12-7.58,4.76-6.74,8.3.21.81,1.14,1.25,1.8,1.83a2.64,2.64,0,0,0,3.66,0,2.75,2.75,0,0,0,.9-3.62c.27-.11.53-.23.8-.33-.07.25-.13.5-.2.76-.4-1.15.67-2.23,1.2-3.37l1.16-1.25-2.57-1.74-.48.85c.13.06.35.12.35.14-.44.83-.84,1.64-1.28,2.43a23.61,23.61,0,0,1-1.32,2.4l-1,2.28a1.2,1.2,0,0,0,1.37,1.33l1.16-.17H208c1.06-.5,2.1-1,3.13-1.6a30,30,0,0,1,3.25-1.39.81.81,0,0,0,.6-.8A.54.54,0,0,0,214.21,108.19Z"/><path d="M208.38,113.51a1.86,1.86,0,0,0-1.2.5v.32l.87-.1C208.67,114.17,208.68,113.79,208.38,113.51Z"/><path d="M207.18,114.33l-.36,0,.33.07,0,0Z"/><path d="M336.36,230c9.44-8.39,16.22-22.23,20.11-37.16a139.27,139.27,0,0,0,3.87-23.29,204.26,204.26,0,0,0,.25-24.57,5.43,5.43,0,0,0-.33-2.15,4.4,4.4,0,0,0-.12,1.91,203.17,203.17,0,0,1-.24,24.51,137.6,137.6,0,0,1-3.83,23.18c-3.83,14.85-10.56,28.61-19.83,37-.63.55-1.07,1.09-1.06,1.27S335.76,230.48,336.36,230Z"/><path d="M432.82,14.19c-.9.09-.86.19.06.26.4,0,.95,0,1.51,0s1.13.08,1.57.07c.75,0,.73-.13,0-.26a14.24,14.24,0,0,0-1.61-.17C433.74,14.14,433.19,14.16,432.82,14.19Z"/><path d="M426.15,22.77l-3.14.81c-1,.31-2,.73-3,1.08-.47.18-.95.34-1.41.55l-1.34.68c-.87.46-1.73.86-2.53,1.35a18.53,18.53,0,0,1-1.81,1c.31,0-.37.54-1.69,1.41a56.93,56.93,0,0,0-4.65,3.62c-.74.66-1.53,1.25-2.22,2l-2.12,2.12a66.75,66.75,0,0,0-7.53,9.53c-1.19,1.67-2.14,3.51-3.2,5.27-.48.91-.92,1.84-1.39,2.75l-.7,1.38-.61,1.43a69.66,69.66,0,0,0-4,11.65l-.68,3c-.19,1-.34,2.08-.51,3.11-.4,2.07-.56,4.2-.81,6.31-.14,1-.16,2.14-.24,3.21s-.14,2.14-.18,3.22l-.05,3.25,0,1.63,0,1.65a261.1,261.1,0,0,0,2,26.79A4.79,4.79,0,0,1,385,123a77,77,0,0,1,1.91,13l.24,4.09c.57,8.29,1,16.78.77,25.45a169.53,169.53,0,0,1-2.61,25.88c-.19,1.78-.37,3.7-.73,5.73-.18,1-.36,2.06-.54,3.13s-.48,2.15-.72,3.26a122.52,122.52,0,0,1-6.62,22.42,103.88,103.88,0,0,1-5.21,11l-1.59,2.72-.81,1.37-.88,1.32L366.44,245l-1.94,2.59c.8-.75,1.36-1.14,1.51-1,.09.29-.43,1.28-1.35,2.66-.45.69-1.08,1.44-1.75,2.26a32.4,32.4,0,0,1-2.29,2.54L358,256.66c-.89.84-1.83,1.64-2.76,2.46A85.14,85.14,0,0,0,369.52,244c.56-.81,1.15-1.52,1.61-2.19a103.07,103.07,0,0,0,10-19.54c5.75-14.8,8.3-29.75,9.18-44.35a179.4,179.4,0,0,0-.08-21.64c-.44-7-1.17-13.85-2-20.49-1.62-13.27-3.44-25.83-4-38a120,120,0,0,1,.39-17.84l.21-2.19.33-2.14c.21-1.43.4-2.89.72-4.22l.43-2c.14-.69.37-1.35.55-2l.57-2c.18-.68.45-1.34.68-2a13.45,13.45,0,0,1,1-2.38c.28-.36.33-.25.08.54s-.53,1.7-.79,2.55c-.13.42-.28.84-.39,1.26l-.3,1.27c-.21.85-.41,1.69-.61,2.52s-.29,1.68-.43,2.52c-.33,1.62-.45,3.43-.65,5.14l-.14,1.29-.07,1.32-.13,2.61a139.09,139.09,0,0,0,1.11,21.39c.87,7.33,2.15,14.92,3.49,23.1S393,143.29,394,153.08c.15,1.44.26,2.91.36,4.4s.23,3,.3,4.45l.19,4.53.07,4.53a181.1,181.1,0,0,1-.85,18.27,145.24,145.24,0,0,1-8.32,37c-1.17,3.09-2.46,6.18-3.92,9.24a98.67,98.67,0,0,1-4.93,9.16A92.35,92.35,0,0,1,363.41,262a76.31,76.31,0,0,1-19.15,14.15l-2.86,1.41c-.95.47-2,.85-3,1.27s-2,.83-3.07,1.18l-3.23,1-1.62.48c-.56.14-1.13.26-1.69.39-1.13.24-2.26.48-3.4.7s-2.33.33-3.5.48l-3.85.39a61.83,61.83,0,0,1-16.24-1.73,55.4,55.4,0,0,1-14.94-6.15,53,53,0,0,1-12.4-10.16A54.81,54.81,0,0,1,265.72,252a47.07,47.07,0,0,1-2.86-7c-.45-1.33-.78-2.58-1.12-3.87s-.61-2.51-.8-3.69A76.08,76.08,0,0,1,259.7,224a99.77,99.77,0,0,1,.67-11.87c.24-1.84.45-3.76.77-5.53l.45-2.69c.16-.92.31-1.63.46-2.45.59-3.18,1.32-6.43,2.08-9.65s1.62-6.35,2.36-9.12a85.24,85.24,0,0,0,2.72-13.35c.12-1.09.25-2.17.35-3.34s.19-2.33.28-3.54l.06-.91c0-.29,0-.43,0-.66v-1.23c0-.4,0-.74-.06-1.12a6.66,6.66,0,0,0-.08-1c0-.31-.08-.63-.11-.94s-.13-.55-.18-.82a3.43,3.43,0,0,0-.19-.72,2.92,2.92,0,0,0-.21-.65,8.62,8.62,0,0,0-1.08-2.09,31.62,31.62,0,0,0-2.88-3.77c-.73-.83-1.55-1.74-2.52-2.76l-.74-.76-.18-.2-.09-.09h0l-.13-.06a1.44,1.44,0,0,1-.46-.29c-.64-.18-1-.41-1.4-.28l-.12,0a1.42,1.42,0,0,0-.16,0,.36.36,0,0,1-.27,0,.74.74,0,0,1-.34.11c-.06,0-.09,0-.16,0l-.22.09a2.55,2.55,0,0,1-.41.05,1.72,1.72,0,0,1-.26.1.11.11,0,0,0-.05,0l-.17.1c-.11.08-.19.06-.33.18a2.62,2.62,0,0,1-.75.43c-1.09.65-2.46,1.3-4.1,2.26-.51.66-1.36.58-2.41,0a10.26,10.26,0,0,1-3.4-3,9.31,9.31,0,0,1-2-5.67c-.16.11-.33.21-.5.31l-1,.15a5.27,5.27,0,0,1-3.26-.91l-1.48-.8c-2.5-1.74-5.43-2.65-8.16-4.39l-.6-1-.38-.11a6.27,6.27,0,0,1-3.17-1.39L225,129.4a13.41,13.41,0,0,1-2.07-4.31,5,5,0,0,1-.95-1.49,6.7,6.7,0,0,1-3.33-3.27.94.94,0,0,1-.81-1.15,1.17,1.17,0,0,1,.27-.53h0a8.24,8.24,0,0,0-1-.3c-.37.17-.6.25-.6.25l-1.79.93a5.32,5.32,0,0,1-1.76,0c-2.4-1.26-2.42-1.25-3.06-2.14a2,2,0,0,1-.09-.35c-.8.23-.86.25-1.08.3a2.42,2.42,0,0,1-.56-.07c-.44-.4-.44-.4-.68-.47a2.81,2.81,0,0,1-.34-.3c-.14-.75-.14-.75-.26-.89a1.81,1.81,0,0,1-.05-.39l.37-.75,1.85.41-.19-.54.66.35-.54-.38.67-.07h-.84a5.53,5.53,0,0,0,1.47-1,2.37,2.37,0,0,0,.72-.75,2,2,0,0,1-.26-.23,22.63,22.63,0,0,1,2.41-1.33c.19,0,.36.09.52.14a.64.64,0,0,1,.37-.57l.63-.34.06-.16,0,0,.29-.6.06-.13h0l1.3-2.59a6,6,0,0,1,1.14-.46l-.46,0c-.3,0-.46-.6-.59-.58a29.63,29.63,0,0,0-4.6,1.74c-.76.36-1.52.73-2.26,1.13l-2.15,1.25a1.09,1.09,0,0,1-1.4.27.9.9,0,0,1,.08-1.33,21.44,21.44,0,0,1,1.32-2.45,19.45,19.45,0,0,1,1.78-2.22,25.32,25.32,0,0,1,4.4-3.83,33.86,33.86,0,0,1,5.35-2.76,21.3,21.3,0,0,1,2.87-.91c1-.24,2-.45,2.9-.6s1.84-.65,2.8-.93l2.9-.81-.37-.15,1.59-.18.16,0-1.47-.49c-.29,0-.58,0-.87,0-1.11.36-2.27.61-3.36.89s-2.18.56-3.29.81l-3.35.75c-1.11.28-2.16.63-3.25,1-2.3.82-4.69,1.08-6.89,1.87-.5.3-1,.25-1.25-.12s.09-.92.58-1.22c5.84-5,14.55-9,22-8a8.09,8.09,0,0,1,2.07-.53,7.59,7.59,0,0,1,2.08.06h.06l-1.14-.52c1.13-.14,1.91.35,3,.34-.23-.31-.48-.67-.7-1,1.38-.21,2.71-.54,4.13-.76s2.87-.42,4.29-.59c.71-.08,1.42-.15,2.12-.2s1.45,0,2.16,0a23.2,23.2,0,0,1,4.14.52l.6,0a23.48,23.48,0,0,1,3.47-1.13l.92-.2a2.78,2.78,0,0,1,.3,0l1.5,0c.5,0,1,0,1.51,0l1.55.12c2.07.2,4.17.34,6.3.74s4.31.91,6.49,1.51c-1.46-.46-2.94-.82-4.41-1.21a37.23,37.23,0,0,0-4.43-.94c-1.48-.23-3-.43-4.46-.62L261,84.69l-1.11,0-1.94-.08h.92l1.19,0a21.84,21.84,0,0,1,2.42.09c1.63.12,3.26.27,4.89.44a22.92,22.92,0,0,1,2.44.39l2.46.51a37,37,0,0,1,4.89,1.27q2.43.8,4.85,1.7c1.59.67,3.15,1.44,4.72,2.22.78.4,1.57.79,2.33,1.22l2.23,1.41c1.47,1,3,1.93,4.39,3,1.84,1.52,3.73,3.08,5.45,4.74s3.31,3.52,4.79,5.25a108.48,108.48,0,0,1,6.53,9.09,76.38,76.38,0,0,1,5.87,11.05,62.61,62.61,0,0,1,3.85,12.33c.45,2.07.7,4.11.93,6.1.12,1,.15,2,.21,2.92s.11,1.92.09,2.82c0,1.83,0,3.63-.2,5.28-.07.84-.14,1.66-.21,2.47s-.23,1.54-.34,2.3-.24,1.48-.35,2.21-.3,1.37-.44,2-.31,1.31-.45,1.94-.31,1.1-.47,1.63c-.31,1-.62,2-.92,2.91s-.65,1.81-1,2.63c-.23,1.52-.58,3.12-.87,4.68s-.66,3.17-1.07,4.77c-.77,3.18-1.7,6.38-2.63,9.26-1.89,5.81-3.45,10.22-4.73,14.92-.31,1.18-.65,2.34-.93,3.54l-.45,1.79c-.16.61-.24,1.09-.37,1.64l-.36,1.6-.28,1.56c-.21,1-.32,2-.47,3a44.2,44.2,0,0,0-.35,5.52,21.81,21.81,0,0,0,.4,4.14,8.84,8.84,0,0,0,.34,1.25l.26.64.14.34,0,0s-.08-.21-.06-.14v0l0,0,.08.16a5.54,5.54,0,0,0,.33.64,9.81,9.81,0,0,0,1.78,2.27,10,10,0,0,0,5.08,2.48c.46.09.94.1,1.41.15a13.27,13.27,0,0,1,1.41,0,5.69,5.69,0,0,1,.82-.09h.49c.17,0,.34-.07.5-.09a13.4,13.4,0,0,0,2.06-.41,27.83,27.83,0,0,0,8.82-4.08,11.11,11.11,0,0,1,1.73-1.1,3.26,3.26,0,0,1,1.1-.43c.15,0,.06.29-.21.65a8.05,8.05,0,0,1-1.4,1.23,32.39,32.39,0,0,1-6.53,3.89,23.7,23.7,0,0,1-6.36,1.74l-.37,0-.31,0a2.11,2.11,0,0,1-.6.06,11.46,11.46,0,0,0-1.17.06,14.39,14.39,0,0,1-2.35-.23,11.24,11.24,0,0,1-4.39-1.87,11,11,0,0,1-3.27-3.6c-.1-.18-.18-.37-.28-.55L306,234l0-.07,0,0h0s.07.17.05.13l0-.07-.3-.72a7.67,7.67,0,0,1-.4-1.11,16.48,16.48,0,0,1-.55-2.8,37.71,37.71,0,0,1,.09-8.05L305,219l.39-2.34c.33-1.61.62-3.11,1.07-5-.19.71-.43,1.51-.58,2.15l-.5,2c-.19.67-.29,1.31-.44,2s-.29,1.31-.38,1.94a45.32,45.32,0,0,0-.78,7.24,23.71,23.71,0,0,0,.44,5.52c.08.35.15.61.28,1l.14.4.14.36.05.12,0,.05c0,.1-.07-.2,0-.11l0,.07.23.52c.12.37.34.68.49,1s.36.67.6,1a12.71,12.71,0,0,0,7.52,5.16,20.2,20.2,0,0,0,2.33.38c.4,0,.8,0,1.19,0,.2,0,.4,0,.6,0l.62-.06a12.59,12.59,0,0,0,1.47-.09c.5-.08,1-.15,1.51-.2s1-.25,1.54-.35l.78-.18.78-.27a29.91,29.91,0,0,0,6.41-3.06c.53-.34,1.06-.66,1.59-1s1-.73,1.56-1.09a16.66,16.66,0,0,0,1.56-1.13c.51-.4,1-.77,1.56-1.18a54.93,54.93,0,0,0,7-7.44c.51-.7,1.07-1.36,1.56-2.08l1.47-2.16c.93-1.52,1.92-3,2.75-4.64s1.68-3.24,2.49-4.88,1.53-3.36,2.18-5.13a99,99,0,0,0,3.56-10.76,132.13,132.13,0,0,0,4.05-23c.32-4,.53-8,.56-12,0-2,0-4.1-.07-6.17s-.14-4.18-.27-6.33c-.8-14.58-2.59-28.89-3.08-44A173.93,173.93,0,0,1,360.06,82c.16-2,.49-4,.78-6.08s.7-4.09,1.11-6.16,1-4.2,1.53-6.35c.27-1.09.62-2.14,1-3.19s.71-2.11,1.06-3.17a92.61,92.61,0,0,1,19.17-31.29c1.08-1.11,2.08-2.26,3.24-3.3l3.45-3.12A76.61,76.61,0,0,1,399,13.71a62.82,62.82,0,0,1,17.51-8.06,42.64,42.64,0,0,1,4.81-1.15L423.69,4c.82-.13,1.66-.19,2.49-.29a43.89,43.89,0,0,1,5-.34h3.76l1.24.1A58.71,58.71,0,0,1,455.33,8a71.13,71.13,0,0,1,16.35,9.75c1.19,1,2.45,1.95,3.59,3l3.38,3.2a90.76,90.76,0,0,1,6.12,6.91l1.52,1.87c.47.63.89,1.27,1.32,1.88.83,1.23,1.59,2.38,2.21,3.4a17.25,17.25,0,0,1,1.88,4c0,.91-2.61-2.86-6.47-7.95A87.14,87.14,0,0,0,472,20.55a69,69,0,0,0-16.74-10.2,58.07,58.07,0,0,0-19.79-4.56c-1.72-.09-3.45,0-5.18,0s-3.43.31-5.15.48a59.3,59.3,0,0,0-9.93,2.35,65.85,65.85,0,0,0-17.66,9.07,80,80,0,0,0-14,13.12A87.41,87.41,0,0,0,373,46.38a92.18,92.18,0,0,0-7.1,17.44c-.4,1.53-.85,3.08-1.2,4.6l-.92,4.52c-.34,1.51-.49,3-.73,4.52s-.46,3-.58,4.52a155.8,155.8,0,0,0-.84,17.83c.06,11.74,1.08,23.1,1.92,34.18.43,5.54.8,11,1.05,16.42s.28,10.72.06,16A136.15,136.15,0,0,1,360,197.45a109.56,109.56,0,0,1-4.3,12.51,84.39,84.39,0,0,1-5.74,11.31.54.54,0,0,1,.34,0c.32.19.2,1-.24,2.34a99.17,99.17,0,0,0,11.82-27.21,141.84,141.84,0,0,0,3.2-21.31,181.52,181.52,0,0,0,.28-22.05c-.58-15.07-2.53-31-2.69-48.24a174.72,174.72,0,0,1,.77-17.62c.12-1.45.35-2.91.52-4.35l.29-2.16c.1-.72.25-1.45.37-2.16.27-1.44.51-2.87.79-4.29l1-4.25a88.31,88.31,0,0,1,6-16.52,93.26,93.26,0,0,1,9.1-14.73,79.5,79.5,0,0,1,15.07-16.22,62.34,62.34,0,0,1,20-10.93,52.89,52.89,0,0,1,23.34-2.11,59,59,0,0,1,21.81,7.9,10.81,10.81,0,0,1,2.4,1.67c.31.33-.28,0-1.3-.64a64.93,64.93,0,0,0-14.56-6.41,51.32,51.32,0,0,0-16.17-2.11l-2.07.05c-.68,0-1.36.14-2.05.22l-2.05.24-1,.13-1,.22-4,.89c-1.32.36-2.6.83-3.9,1.25a58,58,0,0,0-14.34,7.39,26.45,26.45,0,0,1,3.59-1.63c.89-.25,1.37-.26,1.37,0s-.55.76-1.41,1.55-2.11,1.81-3.62,3l2.94-1.91,1.47-.94,1.55-.83c1-.55,2.07-1.11,3.12-1.63l3.25-1.37a18.2,18.2,0,0,1,3.52-1.1c.91-.21,1.46-.27,1.46-.15s-.53.41-1.39.75-2,.74-3.29,1.31L411,18.64l-3.12,1.66c-.52.28-1,.54-1.55.84l-1.48,1c-1,.64-2,1.25-2.94,1.93-1.84,1.44-3.76,2.79-5.44,4.4-.86.78-1.77,1.52-2.57,2.36l-2.43,2.49a79.44,79.44,0,0,0-8.5,10.95,82.67,82.67,0,0,0-6.58,12.18,77.43,77.43,0,0,0-4.82,15.89,113.29,113.29,0,0,0-2,16.24l-.19,4.06,0,4c0,1.35,0,2.7,0,4s0,2.69.09,4c.21,5.36.56,10.69,1,16a22.75,22.75,0,0,1,.89-6.24h0c-.1-1.65-.19-3.3-.29-4.94s-.13-3.29-.2-4.93a153.22,153.22,0,0,1,.37-22.85c.2-1.91.48-3.82.72-5.74s.7-3.81,1-5.72.91-3.82,1.46-5.7l.9-2.8.46-1.4.54-1.37A83.57,83.57,0,0,1,387.72,38.4a70.14,70.14,0,0,1,17.46-16.31l1.27-.84c.43-.26.89-.49,1.33-.74l2.68-1.46c.88-.5,1.86-.84,2.78-1.26s1.86-.85,2.84-1.18l2.93-.94,1.47-.47,1.51-.32,3-.64c1-.2,2.06-.25,3.08-.38a47.63,47.63,0,0,1,6.21-.25c1,0,2.06.15,3.09.23l1.55.14c.51.06,1,.17,1.53.26l3,.56,3,.82L448,16l1.45.54,2.88,1.09a65.48,65.48,0,0,1,19.95,13.81,87.56,87.56,0,0,1,14.27,19.28,8.43,8.43,0,0,1,1,2.09,5.87,5.87,0,0,1-1.16-1.72L484.6,48l-1.94-3-1-1.52L480.62,42l-2.13-2.91a82.86,82.86,0,0,0-9.94-10.58,67,67,0,0,0-12-8.37A55.38,55.38,0,0,0,442.71,15l.08,0c.77.2.89.34,0,.25a25,25,0,0,1-3.05-.55c-.89-.24-.79-.34,0-.27a49.29,49.29,0,0,0-13.83,0c-1.14.17-2.26.45-3.39.68l-1.69.36c-.56.13-1.1.34-1.65.5l-3.27,1.06c-1.06.43-2.1.89-3.15,1.34l-1.57.69-1.5.81-3,1.64-2.83,1.88c-.47.31-1,.62-1.4.95l-1.33,1c-.88.7-1.78,1.39-2.64,2.1L396,29.79c-.41.39-.83.76-1.23,1.15l-1.15,1.22-2.29,2.44-2.12,2.57-1,1.29-1,1.35-1.94,2.7-1.76,2.81c-1.23,1.85-2.18,3.84-3.26,5.76-.5,1-.94,2-1.41,3s-.95,2-1.33,3l-1.2,3.07c-.39,1-.69,2.09-1,3.13-.73,2.07-1.19,4.23-1.74,6.35s-.83,4.27-1.19,6.41-.62,4.29-.77,6.44c.17-2,.54-4,.81-6s.77-4,1.15-5.92c.19-1,.5-2,.75-2.94s.49-2,.83-2.92c.67-1.91,1.23-3.86,2.05-5.71l1.15-2.81,1.3-2.73c.83-1.84,1.87-3.58,2.85-5.35.47-.89,1-1.73,1.58-2.58L385.66,43l1.79-2.44c.61-.81,1.17-1.65,1.85-2.41a68.6,68.6,0,0,1,18.21-16,50.9,50.9,0,0,1,23.3-7,43.91,43.91,0,0,1,5.38-.07l2.71.15,2.7.39c.49.08,1,.2,1.53.31a7,7,0,0,1,1.06.4c.24.17-.47,0-1.47-.14s-2-.3-3-.45l2.21.43a13,13,0,0,1,2,.52c1.25.4,2.36.79,3.26,1.13,1.77.84,2.75,1.47,2.61,1.7-.53.43-5.4-1.29-11.54-2a48.39,48.39,0,0,0-12.32.25l-3,.65-1.51.32-1.47.47-2.93.95c-.95.39-1.89.81-2.83,1.21-7.56,3.28-14.09,8.53-19.67,14.51-.62.64-1.17,1.34-1.72,2L391.17,40c-1.05,1.46-2,3-3,4.45A71.09,71.09,0,0,1,401,30.5,55,55,0,0,1,417.19,21l4.48-1.38,4.59-.91c1.55-.13,3.09-.36,4.65-.4h3.49l1.16.11a47.17,47.17,0,0,1,17.75,5.1,16,16,0,0,1,2.4,1.39c.6.42,1,.72.93.81s-.43,0-1.06-.33c-.31-.14-.68-.32-1.08-.53l-.63-.34-.71-.31a46,46,0,0,0-15.36-4.42A42.39,42.39,0,0,0,422,21.23c-10.25,3-19.22,9.6-26.23,17.78a77.12,77.12,0,0,0-15.13,28.44l-1,3.91-.75,4c-.29,1.33-.42,2.7-.61,4.05s-.38,2.71-.46,4.08a140.36,140.36,0,0,0-.5,16.56c1.18,14.61,4.08,29.19,6.23,44.63-.11-2-.28-3.91-.43-5.88-.54-6.24-1.17-12.27-1.76-18.17S380.31,109,380,103.39s-.41-11.15-.21-16.6a102.59,102.59,0,0,1,1.87-16,68.67,68.67,0,0,1,4.92-15A74.16,74.16,0,0,1,394.72,42a59.75,59.75,0,0,1,11.34-11.63,48.08,48.08,0,0,1,14.47-7.79,5.68,5.68,0,0,1,2.12-.49c.07,0-.07.11-.36.23a12.77,12.77,0,0,1-1.26.47,46.78,46.78,0,0,0-14,7.39,62.3,62.3,0,0,0-11,11.08,73.43,73.43,0,0,0-13.49,28.25,93.64,93.64,0,0,0-2,13.14c-.28,4.44-.45,8.83-.29,13.25a245.81,245.81,0,0,0,2.36,26.35c-.89-9-1.64-17.75-1.74-26.32a109,109,0,0,1,2.18-25l.69-3,.87-2.91c.27-1,.64-1.94,1-2.9s.68-1.93,1.09-2.86c.84-1.87,1.61-3.78,2.61-5.58s2-3.61,3-5.38a66.71,66.71,0,0,1,7.48-9.83c1.33-1.59,2.9-2.91,4.37-4.36l2.38-2c.4-.32.79-.67,1.2-1l1.26-.87a15.52,15.52,0,0,1,3.25-1.92,2.36,2.36,0,0,1,.63-.51l1.3-.83.67-.42.7-.36,2.89-1.45a42,42,0,0,1,6.33-2.13,8.4,8.4,0,0,1,2.38-.38C427.59,22.41,427.07,22.47,426.15,22.77Zm-197,83.89-.25-.1.7,0,1.38.84Zm-5.86,9.63h0l-.82-.36ZM303,230.7a26.39,26.39,0,0,1-.22-4.59c0-.81.1-1.72.13-2.58s.18-1.8.32-2.73a87.17,87.17,0,0,1,2.7-11.78c.61-2.08,1.24-4.11,1.95-6.16s1.46-4.11,2.29-6.35a158.18,158.18,0,0,0,5-15.13,153.13,153.13,0,0,1-4.19,15c-1.26,3.4-2.37,6.41-3.37,9.5-.52,1.53-1,3.09-1.45,4.66l-.69,2.37-.58,2.19a66.81,66.81,0,0,0-1.64,8.38A36.74,36.74,0,0,0,303,230.7ZM220.12,105.83a12,12,0,0,1,3.49.81,5.5,5.5,0,0,1,1.6-1.21,53.69,53.69,0,0,1,5.07-2c-.42-.33,0-.47.15-.63s.37-.26.56-.39c-1.87.51-3.73,1.09-5.69,1.64a23.53,23.53,0,0,0-2.59.94A21.37,21.37,0,0,1,220.12,105.83Zm-9.22,9.43-.24,0-.24-.78Zm.45,1.28.26-.09C211.73,116.71,211.6,116.69,211.35,116.54Zm2.39-.87a2.05,2.05,0,0,0-.52-.08ZM229,131.26c-.62-1.09-1.22-2.18-1.8-3.29q.81,1.62,1.65,3.21Z"/><path d="M362.22,140.19l.64.12a1.74,1.74,0,0,1-1.13.67,14.64,14.64,0,0,0,8.34-2.19,27.91,27.91,0,0,0,3.43-2.5,23,23,0,0,0,2.79-2.91c1.58-.36,2.67-1.53,2.43-2.66s-1.76-1.75-3.44-1.4a5.48,5.48,0,0,1-1.19-.11,25,25,0,0,0-9.94-.84l2.3.27a11.31,11.31,0,0,0-3.08.49l.64.46c-3.82-.26-7.86,2.11-8.65,5.13s1.7,5.37,5.25,5.39C361.15,140.14,361.68,140.15,362.22,140.19Z"/><path d="M370.59,144.09l-5.8-.11-.51-.22,1,1.59,0-.12c.65-2,2.71-3.74,4.8-5l.69-.56a1.46,1.46,0,0,0,.31-1.17c-.18-.87-1.25-1.33-2.41-1l-1.32.36a12.92,12.92,0,0,0-5.49,1.79,5.16,5.16,0,0,0-2.72,4.31c0,.82.85,1.46,1.39,2.15a2.7,2.7,0,0,0,3.57.87c1.39-.66,2.15-2,1.64-3.14l.86-.11-.36.65c-.12-1.13,1.07-1.94,1.78-2.89.45-.31.91-.59,1.36-.88l-2.14-2.2c-.21.22-.42.44-.62.67l.31.2a33.51,33.51,0,0,1-3.48,3.87L362,145a1.21,1.21,0,0,0,1.07,1.57l1.16.11-.57-.13,3.41-.73c1.14-.24,2.26-.49,3.39-.62a.76.76,0,0,0,.74-.6A.55.55,0,0,0,370.59,144.09Z"/><path d="M363.86,147.74a1.8,1.8,0,0,0-1.27.21l-.07.3.87.1C364,148.43,364.09,148.08,363.86,147.74Z"/><path d="M362.52,148.25l-.36-.05.31.15,0,0Z"/><path d="M452.75,143.06a134.21,134.21,0,0,1,15.31,11.25c.16.13.34.18.42.08s0-.26-.15-.38A132.82,132.82,0,0,0,453,142.68c-.19-.11-.38-.11-.45,0S452.58,143,452.75,143.06Z"/><path d="M480.36,179.76c-.15,0-.22,0-.18.18a.53.53,0,0,0,.3.34.14.14,0,0,0,.18-.18A.57.57,0,0,0,480.36,179.76Z"/><path d="M473.87,184.2a9.12,9.12,0,0,0-1.85-1,.45.45,0,0,1-.24-.23c-.09.14-.3.15-.54,0-4.66-2.49-9.25-5.32-14.05-7.43a1.15,1.15,0,0,1-.44.23,2.15,2.15,0,0,1-1.89-.42l-.4-.38c-1.77-1.33-3.59-2.59-5.41-3.8a4.82,4.82,0,0,1-1.59-.31l-3-.34-3-.29a.7.7,0,0,1,0,.51,1,1,0,0,1-1.22.35c-.24-.08-.48-.14-.72-.2.65.29,1.26.67,1.89,1a.66.66,0,0,1,.23.17l2.26.81a175.69,175.69,0,0,1,20.46,7.76.41.41,0,0,1,.29.28.17.17,0,0,1-.23.15c-4.83-1.41-9.58-1.45-14.49-2.44a73.47,73.47,0,0,0-16.79-1.42c-.64-.11-1.28-.21-1.92-.29s-1.28-.08-1.91-.1a27.4,27.4,0,0,0-3.74.18,42.77,42.77,0,0,0-7.27,1.68c-1.77.55-3.44,1.15-5.05,1.75-2.22.87-4.31,1.69-6.33,2.7-1,.44-2,1-3,1.5s-1.94,1.06-2.88,1.7a2.74,2.74,0,0,1-1.46.69,2.8,2.8,0,0,1-1.59-.22,6.58,6.58,0,0,1-3-3,8.29,8.29,0,0,1-.8-5.87l-.6.27-1.08.16a4.38,4.38,0,0,1-3.15-1l-1.31-.94a26.83,26.83,0,0,0-3.51-2.67A27,27,0,0,1,381,171l-.36-1.12-.36-.17a6.07,6.07,0,0,1-2.83-2l-.64-1.26a12.89,12.89,0,0,1-1.12-4.55,4.65,4.65,0,0,1-.62-1.62,6.61,6.61,0,0,1-2.6-3.8.9.9,0,0,1-.54-1.26,1.08,1.08,0,0,1,.38-.44h0a7.78,7.78,0,0,0-.93-.51c-.4.07-.65.09-.65.09-1,.24-1,.27-1.94.5a5.49,5.49,0,0,1-1.72-.4c-2.08-1.74-2.1-1.73-2.55-2.73,0-.11,0-.23,0-.35-.83,0-.89,0-1.12,0a2.8,2.8,0,0,1-.53-.19c-.35-.49-.35-.49-.57-.61a2.21,2.21,0,0,1-.27-.36c0-.75,0-.75-.08-.91a2,2,0,0,1,0-.38l.51-.62,1.72.8-.07-.55.57.48-.45-.48.67.08-.82-.19a5.74,5.74,0,0,0,1.64-.64,2.7,2.7,0,0,0,.87-.53,1.7,1.7,0,0,1-.21-.27c1.33-.36,1.33-.36,2.63-.68a3.94,3.94,0,0,1,.46.23.61.61,0,0,1,.47-.46l.66-.19.09-.14,0,0,.4-.48.07-.11h0l1.76-2.09a8.74,8.74,0,0,1,1.19-.17l-.43-.13c-.28-.1-.33-.66-.46-.66a27,27,0,0,0-4.78.55c-1.57.35-3.16.77-4.76,1.18a1.12,1.12,0,0,1-1.42-.07.84.84,0,0,1,.35-1.23,18.74,18.74,0,0,1,3.94-3.58,25.1,25.1,0,0,1,4.94-2.48,29.89,29.89,0,0,1,5.49-1.33,31.51,31.51,0,0,1,5.55-.22c1.83-.15,3.6-.4,5.42-.52l-.33-.2,1.47.12h.15l-1.28-.7-.79-.13a50.59,50.59,0,0,1-6.28.28c-2.08.05-4.25,0-6.39.2-2.31.22-4.53,0-6.82.14a.92.92,0,0,1-1.18-.42c-.11-.37.26-.81.79-1a32.77,32.77,0,0,1,5.17-2.06,31,31,0,0,1,5.55-1.25,26.43,26.43,0,0,1,5.53-.22,20,20,0,0,1,5.1.95,7.16,7.16,0,0,1,3.69.25h.06l-.95-.64c1,.05,1.63.6,2.55.75l-.54-1c2.4,0,4.87-.11,7.28-.11,1.21,0,2.42.12,3.59.26.58.08,1.16.17,1.73.28s1.13.3,1.68.48l.5.1a16.9,16.9,0,0,1,3.69-1,10.9,10.9,0,0,1,2.09-.14l-2.11-.45h0a13.94,13.94,0,0,1,4.71-.27,19.82,19.82,0,0,1,6.59,2,11.66,11.66,0,0,1,4.58,3.78,103.74,103.74,0,0,1,23.4,7.37c.39.15.65.49.62.74s-.39.33-.77.18a154.58,154.58,0,0,0-16.74-4.87c4.63,1.86,9,4,13.42,6.13l1.73.73a8.55,8.55,0,0,1,1.6.93c5.49,2.89,10.3,6.12,15.5,9.43a143.32,143.32,0,0,1,12.23,8.82,68.63,68.63,0,0,1,14.44,15.35c.57.76.8,1.7.51,2.07s-1,.05-1.57-.69a114.93,114.93,0,0,0-15.65-15.54,211.25,211.25,0,0,0-18.44-13.43c-1.45-.9-2.85-1.84-4.3-2.68a.85.85,0,0,1-.08.24,1.21,1.21,0,0,1-.76.61c1.63.95,3.16,2.09,4.71,3.19A46.24,46.24,0,0,1,471,161.8a56.76,56.76,0,0,1,6.79,8.41,97.14,97.14,0,0,1,9.18,9.3.46.46,0,0,1,.17.4c0,.11-.15.09-.29,0-2.25-2-4.55-4.09-6.93-6.08a1.34,1.34,0,0,1-.32,1.34,1.51,1.51,0,0,1-1.48.09c.45.52.94,1,1.38,1.53.27.33.36.71.19.85s-.53,0-.79-.28c-.93-1-1.9-2-2.84-3.06s-2-2-2.95-3c-1.29-1.07-2.65-2-4-3.07s-2.71-2-4.09-2.9a2.53,2.53,0,0,1,0,1.56h0l1.22.92a65.66,65.66,0,0,1,20.89,19.48c.11.15.15.32.07.38s-.22,0-.32-.15c-.85-1.18-1.72-2.36-2.6-3.51s-1.87-2.24-2.82-3.34h0c0,.13,0,.23-.18.18a.66.66,0,0,1-.3-.34c0-.15.05-.22.17-.18A63.46,63.46,0,0,0,469,169.93a71.53,71.53,0,0,1,10.44,10.29l1.36.94a.48.48,0,0,1,.16.39c0,.09-.18.07-.3,0l-.36-.27c.58.72.71,1.55.31,1.87s-1.23,0-1.86-.73l-2.66-2.68-2.71-2.61-.65-.5-.79-.36a99.67,99.67,0,0,1,7.52,8.85c.22.24.3.55.16.67s-.42,0-.64-.22A129.73,129.73,0,0,0,463,173.11c-1.18-.28-2.31-.59-3.5-.8l-3.53-.62c.22.16.44.32.67.47,1.48.94,3,1.72,4.5,2.51l4.55,2.26c1.52.75,3,1.6,4.46,2.48a35,35,0,0,1,4.2,3.11c.14.11.19.27.13.35s-.21.06-.33-.06a34.4,34.4,0,0,0-4.16-2.92c-1.46-.84-2.92-1.65-4.42-2.46a45.45,45.45,0,0,0-7.43-3.34c4.44,2.6,9.1,4.89,13.28,8.18a.85.85,0,0,1,.37.49.21.21,0,0,1,.19,0,10,10,0,0,1,1.95,1.06.36.36,0,0,1,.2.35C474.15,184.27,474,184.27,473.87,184.2Zm-88.81-38.61-.22-.13.65.13,1.19,1Zm-7.29,8h0l-.72-.5Zm60.72-12.93c-1.65-.54-3.28-1.14-4.91-1.77s-3.28-1.29-4.94-2c.85.1,1.69.26,2.52.42A71.39,71.39,0,0,1,438.49,140.62Zm-61.8,2.56a12.31,12.31,0,0,1,3.17,1.42,5.26,5.26,0,0,1,1.74-.77,32.61,32.61,0,0,1,5.07-1c-.35-.38.06-.43.24-.54l.58-.26-2.77.2-2.81.28c-.86.09-1.75.21-2.62.35A23.27,23.27,0,0,1,376.69,143.18ZM366,150l-.23-.09-.08-.79Zm.17,1.32.28,0C366.48,151.53,366.35,151.48,366.14,151.29Zm2.52-.29a1.85,1.85,0,0,0-.49-.2Zm11.7,18-1.09-3.55,1,3.46Z"/></g></g></svg>