<svg xmlns="http://www.w3.org/2000/svg" viewBox="0 0 508.07 313.98"><g id="Layer_2" data-name="Layer 2"><g id="Layer_1-2" data-name="Layer 1"><path d="M201.8,11.33l.51.29a1.34,1.34,0,0,1-1.13.36,11,11,0,0,0,7.74,0,18.75,18.75,0,0,0,6.63-4.08,2.57,2.57,0,0,0,2.65-2.3,2.41,2.41,0,0,0-2.72-2.15,4,4,0,0,1-1-.34A20.53,20.53,0,0,0,206.16,0l1.89.83a7.69,7.69,0,0,0-2.71-.24l.44.62a7.59,7.59,0,0,0-4.87,0,6.15,6.15,0,0,0-3.55,2.88c-1.43,2.7,0,5.71,3.08,6.76Z"/><path d="M208.14,17.47c-1.71-.52-3.39-1.11-5.09-1.7l-.38-.35.49,1.84v-.13c1.09-1.82,3.33-2.88,5.44-3.69l.74-.38a1.53,1.53,0,0,0,.54-1.1A1.72,1.72,0,0,0,208,10.29c-.41,0-.82,0-1.22,0a10.62,10.62,0,0,0-5.16.33,5,5,0,0,0-3.44,3.42c-.19.8.34,1.66.62,2.49a2.44,2.44,0,0,0,2.87,1.89,2.5,2.5,0,0,0,2.26-2.62l.77.13-.47.55c.18-1.15,1.42-1.62,2.28-2.36l1.4-.56-1.35-2.73-.7.51a2.38,2.38,0,0,1,.22.29,30.1,30.1,0,0,1-4,2.87L200.39,16a1.29,1.29,0,0,0,.52,1.83l1,.45-.46-.29c2.1.22,4.27.24,6.35.58a.66.66,0,0,0,.79-.42A.54.54,0,0,0,208.14,17.47Z"/><path d="M201.25,19.17a1.54,1.54,0,0,0-1.16-.17l-.14.27.73.36C201.2,19.89,201.37,19.57,201.25,19.17Z"/><path d="M200,19.27l-.31-.15c.08.08.16.15.23.23l0,0Z"/><path d="M309.43,205.1c.38.16.78.27,1.17.39.22,0,.34.1.65.18s.66.16,1,.23.67.14,1,.2l1.14.14,1.14.16,1.17,0a36.39,36.39,0,0,0,9.61-.74,46.14,46.14,0,0,0,18.77-8.89,49.61,49.61,0,0,0,7.73-7.47,59.61,59.61,0,0,0,6.32-9.3,73.47,73.47,0,0,0,7.73-22.28,4.35,4.35,0,0,0,.13-2.06c-.11-.07-.31.76-.51,1.74a73.24,73.24,0,0,1-7.64,22.16,59.29,59.29,0,0,1-6.23,9.24,49.4,49.4,0,0,1-7.61,7.42,45.77,45.77,0,0,1-18.51,8.88A36.79,36.79,0,0,1,317,206a17.1,17.1,0,0,1-2.28-.2c-.73-.11-1.53-.16-2.16-.32a23.85,23.85,0,0,1-2.83-.76c-.39-.13-.75-.18-.87-.08S309,205,309.43,205.1Z"/><path d="M440.72,20.45c-.94.13-.89.24.09.26s2.34-.08,3.27-.1.77-.18-.07-.26A16,16,0,0,0,440.72,20.45Z"/><path d="M433.68,29.35a50.32,50.32,0,0,0-12.83,4.73,18.61,18.61,0,0,1-2.09,1c.17,0,.06.16-.29.39a18.78,18.78,0,0,1-1.65,1.09c-1.88,1.06-3.62,2.36-5.4,3.59s-3.43,2.66-5,4.19a64.7,64.7,0,0,0-4.57,4.65l-2.05,2.52c-.72.82-1.27,1.76-1.91,2.62a51.62,51.62,0,0,0-6,11.39A56.66,56.66,0,0,0,388.79,78a88,88,0,0,0-.51,13.56c.17,4.64.67,9.4,1.26,14.23s1.34,9.78,2,14.83,1.38,10.22,1.81,15.55A6.34,6.34,0,0,1,394,138a44.82,44.82,0,0,1,.74,6.45,68.48,68.48,0,0,1-.18,9.07c-.16,1.61-.32,3.22-.57,4.82a105.07,105.07,0,0,1-7.67,28.55,85.09,85.09,0,0,1-16.56,25.29,61.46,61.46,0,0,1-10.43,9.94c-1.72,1.43-3.57,2.7-5.42,4s-3.79,2.46-5.81,3.51-4.07,2.08-6.16,3c-1.06.46-2.15.87-3.23,1.3s-2.18.8-3.3,1.15c-2.21.77-4.52,1.31-6.83,1.87a69.62,69.62,0,0,1-7.13,1.11,70.93,70.93,0,0,1-7.33.39c-2.48-.1-4.92-.16-7.53-.52,1.26.35,2,.63,2,.83-.24.21-1.57.3-3.57.07l-.79-.08a6.42,6.42,0,0,1-.94-.13c-.65-.12-1.34-.25-2.06-.41a44.44,44.44,0,0,1-4.51-1.31,51.42,51.42,0,0,1-9-4.12,53,53,0,0,0,13.12,5.6c1.14.3,2.34.63,3.47.82s2.06.42,3.1.56l1.54.23,1.5.14,3,.27c1.15.08,2.21.07,3.18.13A70.33,70.33,0,0,0,342,235.71a79.69,79.69,0,0,0,23.47-14.23,77.67,77.67,0,0,0,9.42-9.69c1.47-1.72,2.72-3.52,4-5.3s2.46-3.63,3.51-5.52a96.11,96.11,0,0,0,9.79-23.4,113.7,113.7,0,0,0,2.55-12,117.06,117.06,0,0,0,1.18-12,112.35,112.35,0,0,0-.06-11.9l-.16-2.91c-.07-1-.17-1.9-.25-2.85l-.26-2.84-.33-2.78c-.88-7.4-2.06-14.44-3.06-21.23-2-13.53-3.11-26.26-.28-37.81a10.59,10.59,0,0,1,.85-2.51c.24-.39.33-.27.11.55l-.36,1.31c-.12.44-.17.92-.26,1.36-.17.91-.34,1.81-.5,2.71l-.3,2.76-.15,1.36,0,1.39c0,.92-.08,1.84-.11,2.76s0,1.87.05,2.8,0,1.87.12,2.82.11,1.87.2,2.82c.72,7.61,2.19,15.34,3.83,23.69.81,4.14,1.63,8.51,2.38,13s1.41,9.28,1.77,14.37a113.62,113.62,0,0,1-2.22,32.75,98.13,98.13,0,0,1-18.14,39.4,87.92,87.92,0,0,1-16.44,16.09,85.74,85.74,0,0,1-20.61,11.32,76.22,76.22,0,0,1-24.19,5l-3.2.08c-1.07,0-2.15-.06-3.23-.1s-2.15-.1-3.25-.19-2.26-.22-3.4-.41l-1.72-.26a17.73,17.73,0,0,1-2-.36c-1.34-.27-2.66-.62-4-1s-2.62-.8-3.92-1.24-2.57-.95-3.81-1.5c-10.05-4.32-18.88-11.67-24.13-21.36A49.85,49.85,0,0,1,259.52,205a56.84,56.84,0,0,1-.75-8.36c0-1.41,0-2.82.07-4.23l0-.53a3.25,3.25,0,0,1,0-.54l.08-1.08c.06-.62.09-1.21.16-1.79.29-2.44.7-4.75,1.16-7,.24-1.09.48-2.21.76-3.26l.4-1.59.43-1.45c.58-1.93,1.15-3.9,1.77-5.77s1.31-3.64,2-5.46c2.73-7.06,5.73-13.44,8.6-19.35s5.6-11.25,7.93-16.32c1.2-2.55,2.18-4.92,3.17-7.29l1.26-3.4c.42-1.12.68-2.15,1-3.22a43.4,43.4,0,0,0,1.92-11.12c-.06-.79-.08-1.56-.08-2.34s-.22-1.4-.27-2.1-.34-1.39-.45-2.09a6.28,6.28,0,0,0-.32-1c-.11-.35-.22-.7-.32-1C286.13,89,281.88,83,276,78.27A44.34,44.34,0,0,0,269.67,74c-1.05-.68-2.22-1.11-3.29-1.69l-1.68-.67-.83-.36c-.29-.11-.62-.21-.93-.31l-1.87-.66-1.94-.55-1-.28-1-.23-2-.46c-1.38-.21-2.7-.54-4.13-.68-.7-.08-1.39-.2-2.1-.27l-2.16-.19c-.7-.08-1.45-.09-2.18-.13l-1.1,0h-.21l-.65,0-1.32.12c-.88.09-1.72.09-2.61.21-3.5.26-7.07.66-10.75,1.16-2.68.82-5.57-1.28-6.49-4.9a7.51,7.51,0,0,1,.93-6l-.76.06-1.26-.26a5.22,5.22,0,0,1-3.15-2.1l-1.13-1.38c-1.65-2.71-4-4.73-5.68-7.59V45.68l-.31-.29a6.17,6.17,0,0,1-2.18-2.78l-.21-1.4a13.29,13.29,0,0,1,.32-4.76,4.73,4.73,0,0,1-.12-1.75,6.94,6.94,0,0,1-1.33-4.49.94.94,0,0,1-.15-1.39,1,1,0,0,1,.47-.31h0a8,8,0,0,0-.71-.77c-.39-.05-.62-.1-.62-.1l-1.92-.09a5.05,5.05,0,0,1-1.43-.92c-1.38-2.3-1.39-2.3-1.51-3.4,0-.11.06-.23.09-.33l-1-.31a2.58,2.58,0,0,1-.41-.34c-.17-.57-.17-.57-.33-.76a2.94,2.94,0,0,1-.14-.42c.23-.72.23-.72.2-.9a1.37,1.37,0,0,1,.13-.36l.62-.45,1.29,1.29.09-.56.37.64-.26-.6.56.28-.67-.43a4.78,4.78,0,0,0,1.63-.13,2.1,2.1,0,0,0,.9-.28,2.05,2.05,0,0,1-.11-.33c1.26,0,1.27,0,2.5.08a3.06,3.06,0,0,1,.36.36.57.57,0,0,1,.53-.33h.64l.12-.11v-.05l.47-.38.1-.09h0c.68-.57,1.38-1.1,2.08-1.64a7.69,7.69,0,0,1,1.1.14,2.82,2.82,0,0,1-.36-.24c-.23-.17-.14-.75-.25-.78a20.21,20.21,0,0,0-4.36-.69c-1.47-.08-3-.14-4.46-.14a1,1,0,0,1-1.22-.49.87.87,0,0,1,.62-1.1c5.19-4.13,12.83-4.8,19.25-2.92l5,.43L225.5,11l1.31.37.14,0-1-1q-.34-.15-.69-.27a33.15,33.15,0,0,1-5.69-.87c-1.87-.41-3.74-.84-5.68-1.14s-3.92-1-5.95-1.46A.83.83,0,0,1,207,6a.86.86,0,0,1,.89-.77c6.23-1.71,13.9-1.68,19.26,1.59a6,6,0,0,1,3.29.81h.06l-.76-.82c.89.17,1.39.89,2.2,1.17-.11-.36-.23-.78-.33-1.15,2.2.36,4.46.42,6.71.75a29.35,29.35,0,0,1,3.29.58,16.16,16.16,0,0,1,3.12,1.14,3.5,3.5,0,0,1,.46.14,19.55,19.55,0,0,1,2.75-.87c.24-.05.48-.09.73-.12a.62.62,0,0,1,.23,0l1.23.1,2.5.22a104,104,0,0,1,10.44,1.68l-3.61-.86-3.6-.7c-1.2-.23-2.41-.48-3.61-.63l-3.39-.5h.26l.49,0,1,.07,2,.16c1.31.08,2.63.29,4,.45,2.64.29,5.3.8,8,1.32a97,97,0,0,1,16.29,4.87A94.76,94.76,0,0,1,302.5,26.69a92.17,92.17,0,0,1,17.29,16.82,79.81,79.81,0,0,1,10.94,18.33,45.68,45.68,0,0,1,1.7,4.37c.47,1.43,1,2.76,1.32,4.12a54.51,54.51,0,0,1,1.53,7.36,75.31,75.31,0,0,1,3.38,24.08,86.23,86.23,0,0,1-3.94,22.92c-.58,1.74-1.1,3.56-1.75,5.22l-1.94,5c-1.38,3.15-2.77,6.33-4.25,9.24-2.92,5.92-6,11.41-8.84,16.55s-5.61,10.12-7.88,14.84a103.49,103.49,0,0,0-5.54,13.67,38,38,0,0,0-1.27,5.65c0,.24,0,.34,0,.45s0,.25,0,.38,0,.51,0,.76a9.4,9.4,0,0,0,.14,1.5,8.34,8.34,0,0,0,1,2.81,7.71,7.71,0,0,0,2,2.2c.65.49,1.16,1,1.14,1.3s-.75.23-1.5-.29a8.29,8.29,0,0,1-3.17-3.51,10.64,10.64,0,0,1-1-4.78c0-.2,0-.43,0-.62s0-.23,0-.4,0-.32.06-.49c.09-.66.21-1.35.34-2s.31-1.45.5-2.19l.31-1.13.4-1.23.78-2.47c.23-.82.63-1.68.93-2.51l1-2.53,1.14-2.58c3.05-6.91,7-14.07,11.22-21.85a202.37,202.37,0,0,0,12.14-25.77,173.46,173.46,0,0,1-10.69,21.62c-3.74,6.59-7.47,12.73-10.7,18.69a109.51,109.51,0,0,0-7.87,17.44,38.93,38.93,0,0,0-1.17,4c-.15.63-.3,1.27-.4,1.88s-.21,1.28-.25,1.61a14.25,14.25,0,0,0,.33,5.16,10.27,10.27,0,0,0,2.68,4.53,17.09,17.09,0,0,0,4.21,3.05,18.55,18.55,0,0,0,3.16,1c.44.11,1.31.31,2.05.43s1.6.2,2.42.3a38.4,38.4,0,0,0,10.13-.37,45.25,45.25,0,0,0,10.14-3,51.83,51.83,0,0,0,9.48-5.32,53.12,53.12,0,0,0,15-16.31,71.51,71.51,0,0,0,8.56-22.34,79.61,79.61,0,0,0,1.52-10.44,86.51,86.51,0,0,0,.31-10.44c-.14-7-.93-14.35-1.8-22s-1.82-15.66-2.06-24.33c-.05-2.17-.11-4.34,0-6.6,0-1.13,0-2.24.11-3.39s.15-2.29.23-3.45.22-2.32.37-3.5.29-2.35.47-3.54l.69-3.59.36-1.81.47-1.81a73.45,73.45,0,0,1,3.34-10.08c.73-1.61,1.42-3.24,2.21-4.81l2.52-4.59a78.27,78.27,0,0,1,12.8-16,80.39,80.39,0,0,1,34.42-19.63A77.1,77.1,0,0,1,443.5,9.55a78.88,78.88,0,0,1,19.7,2.38,86.75,86.75,0,0,1,18.5,6.9,85,85,0,0,1,16.58,11c5.52,4.55,9.62,9.8,9.78,10.75.11.48-.74-.21-2.21-1.64s-3.66-3.52-6.33-5.8a86.69,86.69,0,0,0-36-18.87,79.17,79.17,0,0,0-20.57-2.35,74.38,74.38,0,0,0-20.64,3.36,79.24,79.24,0,0,0-34.74,22,73.81,73.81,0,0,0-11.87,17.34c-.73,1.62-1.49,3.23-2.17,4.87s-1.21,3.37-1.78,5.05l-1.37,5.08c-.37,1.7-.68,3.4-1,5.1a106,106,0,0,0-1.22,20c.17,6.48.75,12.75,1.39,18.82,1.26,12.12,2.76,23.62,2.21,34.35a93.16,93.16,0,0,1-2.18,16A79.6,79.6,0,0,1,364.39,179a62.69,62.69,0,0,1-8.2,13.22c-.77,1.05-1.65,1.93-2.48,2.88s-1.78,1.8-2.68,2.69a54.31,54.31,0,0,1-5.94,4.76,49.15,49.15,0,0,1-23.42,8.86c.12.08.22.15.23.25.05.36-.68.83-2,1.14,9.36-.31,19.05-4,27.31-9.87,11-8.68,18.53-21.71,22.23-36.31a97.64,97.64,0,0,0,2.93-22.82c.06-7.91-.66-16.28-1.46-25.2-1-12.2-2.1-24.65-.51-37.36a77.28,77.28,0,0,1,4.71-18.73,69.1,69.1,0,0,1,9.63-16.79A75.73,75.73,0,0,1,402,28.78a73.84,73.84,0,0,1,21.66-10.6,72.16,72.16,0,0,1,24.13-3,78.63,78.63,0,0,1,23.67,4.93,13.4,13.4,0,0,1,2.83,1.25c.38.29-.27,0-1.49-.39a81,81,0,0,0-16.14-4.19c-1.39-.17-2.77-.43-4.17-.53l-4.22-.3a80.45,80.45,0,0,0-8.5.19A69.32,69.32,0,0,0,423,19.47a78,78,0,0,0-15.49,7.16c3.3-1.49,5.39-2,5.33-1.51,0,.27-.58.82-1.58,1.58-.49.38-1.1.81-1.79,1.28s-1.44,1.07-2.28,1.67c2.09-1.37,4.35-2.47,6.55-3.64,2.3-1,4.55-2.1,6.93-2.88A24.15,24.15,0,0,1,424.43,22c1-.2,1.56-.26,1.55-.13,0,.29-2.33,1-5,2.06-2.4.79-4.67,1.9-7,2.92-2.22,1.18-4.48,2.31-6.58,3.7l-1.6,1c-.54.34-1,.73-1.55,1.09-1,.74-2.06,1.45-3,2.23l-2.91,2.42c-1,.8-1.84,1.73-2.77,2.58a65.23,65.23,0,0,0-9.62,11.7,60.75,60.75,0,0,0-6.69,13.69,74.57,74.57,0,0,0-3.39,17.77,122.88,122.88,0,0,0,.12,17.7c.86,11.64,2.67,22.94,3.44,34.17a30.9,30.9,0,0,1,.81-6.63h0c-.33-3.51-.72-7-1.11-10.52-1.05-8-2.12-16.17-2.38-24.5A99.86,99.86,0,0,1,377,80.69c.25-2.11.43-4.22.87-6.32.21-1,.35-2.1.61-3.14l.8-3.12a29,29,0,0,1,1-3.09c.36-1,.68-2,1.07-3.06l1.31-3c.22-.49.42-1,.67-1.48l.76-1.43c.52-.95,1-1.91,1.55-2.85l1.76-2.73.88-1.36,1-1.3,2-2.59,2.14-2.44,1.07-1.22,1.16-1.14,2.31-2.28,2.46-2.12,1.24-1c.42-.34.87-.65,1.3-1l2.61-1.93c.9-.61,1.83-1.18,2.74-1.77s1.82-1.17,2.79-1.67l2.87-1.56c1-.49,2-.91,3-1.37,1.95-1,4-1.64,6.07-2.42a67,67,0,0,1,12.76-3,69.93,69.93,0,0,1,26.06,1.59A77.93,77.93,0,0,1,504.61,50.3,8.76,8.76,0,0,1,506,52.42a8,8,0,0,1-1.5-1.71,76.91,76.91,0,0,0-53.24-30.23h.09c.84.14,1,.27,0,.26a30.67,30.67,0,0,1-3.28-.28c-1-.13-.87-.23-.07-.26a66,66,0,0,0-28.76,4.85,73.72,73.72,0,0,0-12.85,6.87,71.56,71.56,0,0,0-11.13,9.34c-.88.83-1.62,1.79-2.44,2.69l-1.2,1.36c-.39.46-.74,1-1.11,1.44-.72,1-1.47,1.92-2.17,2.91l-2,3.06c-.69,1-1.19,2.11-1.78,3.16A30.59,30.59,0,0,0,383,59.13l-1.45,3.33-1.18,3.43a68.17,68.17,0,0,0-2.86,14A95,95,0,0,0,377.16,94a103.71,103.71,0,0,1,.46-13c.29-2.17.5-4.35,1-6.5.23-1.08.38-2.17.68-3.23l.87-3.19a58.46,58.46,0,0,1,5.15-12.2,63.64,63.64,0,0,1,3.49-5.63c.62-.91,1.33-1.75,2-2.64s1.34-1.75,2.1-2.55l2.2-2.46c.76-.79,1.57-1.54,2.36-2.31l1.19-1.14c.4-.37.84-.71,1.25-1.07l2.53-2.12L405.07,34l1.34-1,1.39-.88,2.8-1.73,2.91-1.55c.49-.25,1-.52,1.46-.76l1.5-.67c1-.44,2-.91,3-1.32,2.07-.72,4.09-1.58,6.23-2.11a64.62,64.62,0,0,1,12.92-2.38,66.12,66.12,0,0,1,11.53-.33,13.84,13.84,0,0,1,2.84.41c.28.13-.49.1-1.58,0l-3.2-.19c6.64.42,11.49,2.19,11.25,2.64-.47.45-6-.48-12.64-.73a67.7,67.7,0,0,0-13.34.94,69.48,69.48,0,0,0-12.82,3.73,68,68,0,0,0-22.15,14.56c-1.4,1.33-2.61,2.83-3.87,4.28-.63.73-1.14,1.55-1.7,2.34s-1.11,1.57-1.63,2.38a66.79,66.79,0,0,1,32.59-23.91c12.92-4.51,27.14-4.16,40-.15.56.16,1.09.32,1.58.48s.91.37,1.27.53c.72.33,1.17.58,1.16.67s-.46,0-1.19-.17l-1.26-.38-1.57-.43a63.19,63.19,0,0,0-64.4,17.56,59.43,59.43,0,0,0-9.92,14.23,56.66,56.66,0,0,0-5.17,16.47c-1.86,11.53-.72,23.55.74,35.69,1.38,7.94,2.94,16,3.91,24.41a123.57,123.57,0,0,1,.88,12.89,105,105,0,0,1-.58,13.22c.18-1.11.38-2.22.52-3.34s.27-2.24.41-3.37a117.65,117.65,0,0,0,.09-21c-.53-6.73-1.43-13.17-2.3-19.41-1.74-12.45-3.4-24.26-2.38-35.65a58.41,58.41,0,0,1,3.76-16.42A55.73,55.73,0,0,1,398.19,49a61.74,61.74,0,0,1,29.27-19.71,9.07,9.07,0,0,1,2.36-.53c.15.05-.63.39-1.82.74A61.48,61.48,0,0,0,399.52,48.2a56.28,56.28,0,0,0-8.85,14.08l-.78,1.92a16.78,16.78,0,0,0-.73,1.94c-.39,1.34-.87,2.62-1.2,4s-.67,2.73-.91,4.13-.48,2.81-.63,4.24a86.23,86.23,0,0,0-.35,14.38c.23,4.81.77,9.63,1.44,14.48,1.29,9.68,3.08,19.44,4,29.6-.65-10.41-2.27-20.19-3.41-29.64-.59-4.73-1.07-9.36-1.27-13.92-.15-2.29-.12-4.53-.15-6.79s.14-4.46.41-6.63a55.78,55.78,0,0,1,2.65-12.7,50.39,50.39,0,0,1,5.59-11.66,58.35,58.35,0,0,1,8.34-10.22,65.85,65.85,0,0,1,10.56-8.25,32.53,32.53,0,0,1,3.7-1.91,2,2,0,0,1,.73-.52,53.71,53.71,0,0,1,13.44-5.38,11,11,0,0,1,2.66-.45C435.29,28.92,434.72,29,433.68,29.35ZM221,22.55l-.18-.19.59.31.9,1.31S221.61,23.27,221,22.55Zm-8.64,6.3h0l-.55-.71C212,28.44,212.18,28.66,212.32,28.85ZM315.74,156.7c2.55-4.59,5.21-9.29,7.76-14.36,1.3-2.47,2.51-5.14,3.73-7.78.61-1.31,1.15-2.75,1.72-4.12s1.15-2.76,1.62-4.25l1.5-4.39c.43-1.52.83-3.06,1.24-4.6.2-.77.42-1.53.59-2.32l.45-2.41c.28-1.61.63-3.2.82-4.84A76.67,76.67,0,0,0,335,87.39a73.73,73.73,0,0,1,.86,19.81,37.43,37.43,0,0,1-.56,3.72l-.68,3.68c-.54,2.4-1.22,4.71-1.86,7.06s-1.52,4.47-2.33,6.66-1.75,4.24-2.67,6.27A236.07,236.07,0,0,1,315.74,156.7ZM213.81,18.09a11.7,11.7,0,0,1,2.57,2.24,5.24,5.24,0,0,1,1.76-.39A33.05,33.05,0,0,1,223,20c-.25-.47.13-.44.32-.51l.58-.17c-1.71-.19-3.46-.49-5.23-.68C217.1,18.47,215.37,18.42,213.81,18.09ZM202.51,22l-.18-.15.15-.78Zm-.21,1.33.26.05C202.53,23.63,202.43,23.55,202.3,23.29Zm2.33.46a1.64,1.64,0,0,0-.38-.33Zm5.79,21.06,0-3.77-.12,3.64Z"/><path d="M284.8,89.78l0,.52c-.29,0-.51-.17-.68-.5.49,4.7,5.16,6.23,9,5.63a1.75,1.75,0,0,0,2.66-.34,2.36,2.36,0,0,0,0-3,3.16,3.16,0,0,1-.23-.78,20.37,20.37,0,0,0-1.27-6.66c0,.53.09,1.08.13,1.61a4.4,4.4,0,0,0-.81-1.65c-.08.21-.17.45-.26.67a3.74,3.74,0,0,0-1.63-2.78,3.41,3.41,0,0,0-3.13-.23,6.14,6.14,0,0,0-3.87,6.28Z"/><path d="M283.23,97.87a36.1,36.1,0,0,1-1.14-4.38l.1-.49-1.14,1.52.1-.08a7.42,7.42,0,0,1,5.06,1l.61.17a1.39,1.39,0,0,0,1-.44,1.79,1.79,0,0,0,.28-2.26l-.54-.72c-1-2.23-3.18-4.6-6.14-3a6.69,6.69,0,0,0-1.64,2,2.32,2.32,0,0,0-.23,3.13,1.93,1.93,0,0,0,2.89-.18c.08.2.16.4.25.59-.21,0-.4,0-.61,0,.9-.63,1.81-.18,2.72-.14l1,.5,1.29-2.7-.65-.08c-.05.13-.1.33-.11.33a13.1,13.1,0,0,1-3.72-.59l-1.77-.21a1.56,1.56,0,0,0-1.16,1.5l.1,1v-.5c.36.79.79,1.55,1.22,2.31s.9,1.48,1.29,2.27a.47.47,0,0,0,.68.23A.62.62,0,0,0,283.23,97.87Z"/><path d="M278.82,94.44c-.05-.34-.07-.69-.38-.9l-.26.07,0,.73C278.25,94.86,278.57,94.77,278.82,94.44Z"/><path d="M278.18,93.61l0-.3-.07.31h0Z"/><path d="M359,126.17a112,112,0,0,0,24.19,1.4c.27,0,.49-.12.48-.24s-.22-.2-.48-.17a111.44,111.44,0,0,1-24.07-1.47c-.27,0-.49,0-.53.16S358.74,126.12,359,126.17Z"/><path d="M422.63,128.65c-.16.15-.11.24.12.22a1.26,1.26,0,0,0,.66-.29c.14-.12.08-.24-.11-.22A1.32,1.32,0,0,0,422.63,128.65Z"/><path d="M423.85,136.65a28.41,28.41,0,0,0-3.12,2,1.52,1.52,0,0,1-.57.23c.13.13,0,.37-.46.6-8.13,4.77-17.68,8.41-27.36,11.36a1,1,0,0,1-.34.53,6.36,6.36,0,0,1-3.39,1.32l-1.1.1c-4.42.55-8.84.94-13.26,1.09a13.19,13.19,0,0,1-3.07.71,106.76,106.76,0,0,1-11.68,2.32c.24.15.39.32.38.52-.08.45-1,.81-2.12.8l-1.65.05,4.72.3a4,4,0,0,1,.63,0c1.73-.07,3.48-.16,5.25-.3A116.3,116.3,0,0,0,388.83,154a144.79,144.79,0,0,0,20.09-7.65,1.4,1.4,0,0,1,.76-.2c.15,0,.17.17-.06.3-2,1.11-3.87,2.27-5.77,3.41s-3.84,2.23-5.83,3.31-4.06,2.12-6.25,3.09c-1.1.48-2.23.95-3.4,1.41s-2.38.91-3.64,1.3l-4.51,1.41-4.58,1.25c-1.53.43-3.08.78-4.63,1.13s-3.12.73-4.7,1a156.36,156.36,0,0,1-19.5,2.53c-6.95-.22-13.66-.56-20.48-1.08a204.54,204.54,0,0,1-20.87-2.79,148.08,148.08,0,0,1-15.59-3.93,134.17,134.17,0,0,1-24.47-9.77,9.54,9.54,0,0,1-4.75-4,5.72,5.72,0,0,1-.25-5.19,6.41,6.41,0,0,1,5.32-3.33l-.88-.59-1.17-1.24a5.91,5.91,0,0,1-1.68-4.1l0-1.88c.48-3.19,0-6.51,1-9.63l.93-.74v-.43a5.51,5.51,0,0,1,.62-3.53l1-1a14.2,14.2,0,0,1,3.89-2.69,5,5,0,0,1,1.26-1.2,7,7,0,0,1,2.59-3.85,1,1,0,0,1,.95-1,1,1,0,0,1,.5.15h0c.09-.41.11-.53.18-1-.17-.31-.26-.51-.26-.51-.51-.78-.51-.78-.93-1.47a4.53,4.53,0,0,1,0-1.61c1.09-2.41,1.11-2.41,1.89-3.17.1-.06.2-.1.3-.15a6.72,6.72,0,0,1-.22-.89,2.33,2.33,0,0,1,.08-.49c.36-.47.36-.47.43-.69a2.92,2.92,0,0,1,.28-.36c.65-.29.65-.29.78-.42a1.64,1.64,0,0,1,.33-.13l.62.15-.42,1.68.46-.28-.31.65.33-.56,0,.57,0-.74c.53.81.53.81.82,1a1.23,1.23,0,0,0,.61.44,2.44,2.44,0,0,1,.19-.28l1.13,1.7c0,.17-.05.32-.08.47a.4.4,0,0,1,.49.13l.32.42h.14l0,0,.5,0h.11l2.17.19a6.92,6.92,0,0,1,.46.78c0-.13,0-.25,0-.38s.43-.61.4-.71a18.71,18.71,0,0,0-1.62-3.19c-.31-.5-.63-1-.95-1.46L282,92.6a.82.82,0,0,1-.13-1.12.76.76,0,0,1,1.05-.29,10.72,10.72,0,0,1,1.82.42,10.85,10.85,0,0,1,1.7.65,12.79,12.79,0,0,1,3,2,20.41,20.41,0,0,1,4.54,6,35,35,0,0,0,2.53,2.78v-.33l.56.89.08.07-.09-1.23-.26-.52a14.74,14.74,0,0,1-2.57-3.47l-1.07-1.91c-.34-.65-.68-1.3-1-1.93a25.17,25.17,0,0,1-1.67-4.36.83.83,0,0,1,.11-1,.56.56,0,0,1,.87,0,19.08,19.08,0,0,1,8.22,10.93,3.92,3.92,0,0,1,1.41,2.09l0,0c0-.33,0-.65,0-1,.39.54.35,1.29.68,1.84l.36-1.06a43.2,43.2,0,0,0,3.61,3.12,14.39,14.39,0,0,1,3.33,3.49,2.83,2.83,0,0,1,.25.24,7.78,7.78,0,0,1,4.85.94c-.65-.47-1.3-1-1.91-1.44a21.38,21.38,0,0,1,4.82,1.79c.55.29,1.08.61,1.62,1s1.09.65,1.62,1a37,37,0,0,1,3.05,2.31,18.68,18.68,0,0,1,4.45,5A129.76,129.76,0,0,0,342,123.4a116.34,116.34,0,0,0,14.61,2.12c.51,0,1,.25,1,.52s-.3.46-.82.44a96.58,96.58,0,0,1-21.43-2.54,91.33,91.33,0,0,0,18,4.82l2.41.22a17.59,17.59,0,0,1,2.38.38,98.76,98.76,0,0,0,24.11-.09,126.35,126.35,0,0,0,19.88-4.5c4.73-1.49,9.19-3.08,13.56-4.83s8.7-3.55,13.22-5.47c1.17-.58,2.43-.79,2.79-.46s-.32,1.08-1.49,1.69a151.33,151.33,0,0,1-14,6.62c-2.37,1-4.82,1.87-7.24,2.79s-4.91,1.68-7.43,2.34a110,110,0,0,1-15.39,3.32,94.6,94.6,0,0,1-16,1l-3.47-.09-3.43-.23a.8.8,0,0,1,.05.26,1.14,1.14,0,0,1-.59.91l3.93.34,4,.26c7.35-.74,14.58-1.91,22.42-2.8l4-.45c1.3-.13,2.59-.25,3.86-.43l3.8-.43,3.78-.58a168.47,168.47,0,0,0,17.86-7.23.9.9,0,0,1,.61-.16c.13,0,0,.19-.19.32-1.9,1.18-3.94,2.18-5.95,3.27s-4.14,2-6.29,2.92c.81.07,1.37.32,1.47.75s-.3,1-1,1.56l1.53-.48L418,129c.62-.21,1.18-.23,1.24,0s-.35.59-.95.8c-1,.4-2.06.76-3.11,1.09l-3.12,1c-2.1.65-4.21,1.22-6.32,1.81a150,150,0,0,1-15.25,4,3.32,3.32,0,0,1,1.73,1h0l2.42-.48A243.85,243.85,0,0,0,437,121.23c.26-.14.52-.19.57-.11s-.11.26-.36.37c-4.16,2.11-8.3,4.19-12.55,6h0c.2,0,.27.07.12.22a1.49,1.49,0,0,1-.67.29c-.23,0-.25-.09-.12-.22a242.39,242.39,0,0,1-24,9.1,202.56,202.56,0,0,0,22.58-7.13l2.24-1.37a1,1,0,0,1,.64-.13c.1,0,0,.21-.24.33l-.63.37c1.39-.55,2.63-.63,2.82-.15s-.87,1.42-2.32,2c-3.82,1.79-7.74,3.33-11.7,4.73-.42.19-.84.37-1.26.53l-1.23.67a162.81,162.81,0,0,0,18.54-6.5c.5-.26,1-.34,1.08-.18s-.25.51-.75.77a155.45,155.45,0,0,1-15.81,7.6,153.32,153.32,0,0,1-16.88,5.65l-5.51,2.64c-1.87.86-3.78,1.67-5.72,2.52l1.53-.25a79.77,79.77,0,0,0,17.89-5.62c5.57-2.34,10.89-5,16.56-7.62a.74.74,0,0,1,.63-.09c.06.08-.1.25-.39.37-2.74,1.38-5.41,2.61-8,4s-5.35,2.58-8.22,3.71c-4.74,2-9.37,3.57-13.93,5.3,9.56-2.29,18.24-6.08,26.95-10a2.6,2.6,0,0,1,1.07-.3c0-.06.06-.13.17-.21a37,37,0,0,1,3.29-2.07,1,1,0,0,1,.69-.18C424.2,136.33,424.09,136.48,423.85,136.65ZM287.2,109.26V109l.2.55-.18,1.5Zm-9.59-.88h0c.09-.5.15-.86.15-.86C277.71,107.87,277.66,108.15,277.61,108.38Zm63.32,18.44a51.38,51.38,0,0,1-12.37-4.63c1,.28,2,.61,3.05.83,1.53.63,3.05,1.32,4.61,2Zm-55.19-25a13.73,13.73,0,0,1,0,3.14,3.72,3.72,0,0,1,1.28.76,35.53,35.53,0,0,1,3,2.76c.11-.49.34-.26.5-.22l.46.2c-1-1.1-1.89-2.22-2.81-3.38A23.93,23.93,0,0,1,285.74,101.81Zm-8.45-4.74,0-.22.66-.39Zm-1.1.69c0,.07.05.13.08.21C276,98.13,276.06,98,276.19,97.76ZM277,99.7a1.62,1.62,0,0,0,.06-.48Zm-12.4,17.72,2.93-2.38-2.9,2.22Z"/><path d="M5,22.69,5.5,23a1.37,1.37,0,0,1-1.13.36,11,11,0,0,0,7.75,0,18.77,18.77,0,0,0,6.63-4.07A2.56,2.56,0,0,0,21.39,17a2.41,2.41,0,0,0-2.72-2.14,4.28,4.28,0,0,1-1-.34,20.53,20.53,0,0,0-8.31-3.13l1.89.83A7.69,7.69,0,0,0,8.53,12l.44.61a7.66,7.66,0,0,0-4.87,0A6.18,6.18,0,0,0,.55,15.41c-1.43,2.7,0,5.71,3.08,6.76Z"/><path d="M11.33,28.82c-1.71-.51-3.38-1.1-5.09-1.69l-.38-.35.49,1.84v-.13c1.08-1.82,3.32-2.88,5.43-3.69l.74-.38a1.54,1.54,0,0,0,.54-1.11,1.72,1.72,0,0,0-1.87-1.66c-.41,0-.81,0-1.22,0A10.62,10.62,0,0,0,4.82,22a5,5,0,0,0-3.44,3.42c-.18.8.35,1.65.62,2.49a2.45,2.45,0,0,0,2.88,1.89A2.49,2.49,0,0,0,7.13,27.2l.78.13-.48.55c.18-1.15,1.42-1.62,2.28-2.36l1.4-.56L9.76,22.22l-.7.52a2.29,2.29,0,0,1,.22.28,28.68,28.68,0,0,1-4,2.88L3.59,27.35a1.29,1.29,0,0,0,.51,1.84l1,.44-.46-.28c2.1.21,4.28.24,6.35.58a.68.68,0,0,0,.8-.42A.56.56,0,0,0,11.33,28.82Z"/><path d="M4.45,30.53a1.58,1.58,0,0,0-1.17-.17l-.14.27.73.36C4.4,31.25,4.56,30.93,4.45,30.53Z"/><path d="M3.14,30.63l-.31-.16.24.24,0,0Z"/><path d="M112.62,216.46c.38.15.78.26,1.17.39.23.05.35.1.65.17s.66.17,1,.24.66.14,1,.19l1.14.15,1.14.16,1.17.05a36.39,36.39,0,0,0,9.61-.74,46.08,46.08,0,0,0,18.77-8.89A49.69,49.69,0,0,0,156,200.7a58.38,58.38,0,0,0,6.32-9.29,73.85,73.85,0,0,0,7.74-22.28,4.43,4.43,0,0,0,.12-2.06c-.11-.07-.31.76-.51,1.74A73,73,0,0,1,162.06,191a58.05,58.05,0,0,1-6.23,9.23,49,49,0,0,1-7.61,7.43,45.77,45.77,0,0,1-18.51,8.88,36.79,36.79,0,0,1-9.48.81,18.77,18.77,0,0,1-2.27-.2c-.74-.12-1.54-.16-2.17-.32A20.91,20.91,0,0,1,113,216c-.4-.12-.76-.17-.88-.07S112.24,216.31,112.62,216.46Z"/><path d="M243.92,31.81c-.95.13-.9.24.08.26s2.34-.08,3.27-.1.77-.18-.07-.26A15.25,15.25,0,0,0,243.92,31.81Z"/><path d="M236.88,40.7A50.64,50.64,0,0,0,224,45.44a21.87,21.87,0,0,1-2.09,1c.17,0,.06.16-.29.39A18.78,18.78,0,0,1,220,47.87c-1.88,1.06-3.62,2.36-5.4,3.59s-3.43,2.66-5,4.19-3.07,3.07-4.56,4.64L203,62.82c-.71.81-1.27,1.76-1.91,2.62a51.55,51.55,0,0,0-6,11.38A57.44,57.44,0,0,0,192,89.4a89.31,89.31,0,0,0-.51,13.56c.17,4.64.67,9.4,1.26,14.23s1.35,9.78,2,14.83,1.38,10.22,1.81,15.55a6.34,6.34,0,0,1,.57,1.78,44.83,44.83,0,0,1,.74,6.44,66.93,66.93,0,0,1-.18,9.08c-.15,1.61-.32,3.22-.56,4.82a105.45,105.45,0,0,1-7.68,28.55,84.86,84.86,0,0,1-16.56,25.28,60.73,60.73,0,0,1-10.43,9.95c-1.72,1.43-3.57,2.7-5.41,4s-3.8,2.46-5.82,3.51-4.07,2.08-6.16,3c-1.06.46-2.15.86-3.22,1.29s-2.19.81-3.31,1.16c-2.21.77-4.52,1.31-6.83,1.87a69.43,69.43,0,0,1-7.12,1.11,71.23,71.23,0,0,1-7.33.39c-2.48-.11-4.93-.16-7.54-.52,1.27.35,2,.63,2,.83-.23.2-1.57.29-3.56.07l-.8-.09a5.26,5.26,0,0,1-.94-.12c-.65-.12-1.34-.25-2.05-.41a43.71,43.71,0,0,1-4.51-1.31,50.51,50.51,0,0,1-9-4.13,52.22,52.22,0,0,0,13.12,5.6c1.15.31,2.34.64,3.47.83s2.06.42,3.1.56l1.54.22,1.5.15,3,.27c1.15.08,2.21.07,3.18.12a70.41,70.41,0,0,0,25.43-4.84,79.82,79.82,0,0,0,23.47-14.23,79,79,0,0,0,9.41-9.69c1.48-1.72,2.72-3.52,4-5.3s2.46-3.63,3.51-5.52a95.33,95.33,0,0,0,9.79-23.4,113.7,113.7,0,0,0,2.55-12,117.33,117.33,0,0,0,1.18-12,115.1,115.1,0,0,0,0-11.9l-.17-2.91c-.07-1-.17-1.9-.25-2.86l-.26-2.83-.33-2.79c-.88-7.39-2.06-14.43-3.06-21.22-2-13.53-3.11-26.26-.28-37.81a10.44,10.44,0,0,1,.86-2.51c.23-.39.32-.27.1.55l-.36,1.31c-.12.44-.17.91-.26,1.36l-.5,2.71-.3,2.75-.15,1.37L194,91.46c0,.92-.07,1.84-.11,2.76s0,1.87,0,2.8.05,1.87.12,2.81.12,1.88.2,2.83c.72,7.61,2.19,15.34,3.83,23.69.81,4.14,1.63,8.51,2.39,13s1.4,9.29,1.76,14.38a113.64,113.64,0,0,1-2.22,32.75,98.13,98.13,0,0,1-18.14,39.4A87.93,87.93,0,0,1,165.48,242a85.55,85.55,0,0,1-20.61,11.32,76.22,76.22,0,0,1-24.19,5l-3.2.08c-1.07,0-2.15-.06-3.23-.09s-2.14-.1-3.25-.19-2.26-.22-3.39-.41l-1.73-.26a17.73,17.73,0,0,1-2-.36c-1.34-.28-2.66-.62-4-1s-2.62-.8-3.91-1.24-2.57-1-3.82-1.51C82.14,249,73.3,241.69,68.05,232a49.85,49.85,0,0,1-5.34-15.62A56.84,56.84,0,0,1,62,208c0-1.41,0-2.82.07-4.23l0-.53a2.44,2.44,0,0,1,0-.54l.09-1.08c0-.62.08-1.22.15-1.79.29-2.44.7-4.75,1.16-7,.24-1.09.48-2.21.76-3.27l.41-1.58.43-1.45c.57-1.93,1.14-3.9,1.76-5.77s1.31-3.65,2-5.46c2.73-7.06,5.72-13.44,8.59-19.35s5.6-11.25,7.93-16.32c1.21-2.55,2.18-4.92,3.17-7.29l1.27-3.4c.42-1.12.68-2.15,1-3.23a42.9,42.9,0,0,0,1.92-11.11c0-.79-.08-1.56-.08-2.34s-.22-1.4-.27-2.11-.34-1.39-.45-2.08a5.26,5.26,0,0,0-.32-1c-.11-.35-.22-.7-.32-1-1.93-5.6-6.18-11.61-12.08-16.37a44.82,44.82,0,0,0-6.3-4.24c-1.06-.68-2.23-1.11-3.3-1.69L67.89,83l-.82-.35c-.3-.11-.63-.21-.94-.31l-1.87-.66-1.94-.55-1-.28-1-.23-2-.46c-1.38-.21-2.7-.54-4.13-.68-.7-.09-1.39-.21-2.1-.28L50,79c-.71-.09-1.45-.1-2.19-.13l-1.1,0h-.21l-.65,0L44.52,79c-.88.09-1.73.09-2.62.21-3.49.26-7.07.66-10.74,1.16-2.69.81-5.58-1.28-6.5-4.9a7.53,7.53,0,0,1,.93-6l-.76.07-1.26-.26a5.22,5.22,0,0,1-3.15-2.1l-1.13-1.38c-1.65-2.72-4-4.73-5.68-7.59V57l-.31-.29A6.08,6.08,0,0,1,11.13,54l-.22-1.4a13.29,13.29,0,0,1,.32-4.76,4.77,4.77,0,0,1-.11-1.76,6.84,6.84,0,0,1-1.34-4.48,1,1,0,0,1-.15-1.39,1,1,0,0,1,.47-.31h0a9.74,9.74,0,0,0-.72-.77C9,39,8.76,39,8.76,39L6.85,38.9A5,5,0,0,1,5.41,38C4,35.68,4,35.68,3.91,34.58A2.14,2.14,0,0,1,4,34.24c-.75-.21-.8-.23-1-.3a2.36,2.36,0,0,1-.41-.35c-.17-.56-.17-.56-.33-.75a2.3,2.3,0,0,1-.13-.42c.22-.72.22-.72.19-.91a1.67,1.67,0,0,1,.14-.35l.62-.45L4.35,32l.09-.56.38.64-.27-.6.56.28-.66-.43a4.7,4.7,0,0,0,1.62-.13,2,2,0,0,0,.9-.28,2.05,2.05,0,0,1-.11-.33c1.26,0,1.27,0,2.51.07a4,4,0,0,1,.35.37.57.57,0,0,1,.53-.33h.65l.11-.11v-.05l.47-.39c.1-.08.1-.09.1-.09h0c.67-.57,1.37-1.1,2.07-1.64a7.51,7.51,0,0,1,1.1.14c-.12-.08-.24-.15-.35-.24s-.14-.75-.26-.79a20.83,20.83,0,0,0-4.36-.68c-1.47-.08-3-.14-4.46-.15a1,1,0,0,1-1.22-.48.87.87,0,0,1,.63-1.1C9.91,21,17.56,20.33,24,22.21l5,.43-.26-.27,1.31.37h.14l-1-1-.7-.26a32.89,32.89,0,0,1-5.68-.87c-1.88-.42-3.75-.84-5.69-1.14s-3.92-1-5.95-1.46a.81.81,0,0,1-.91-.72.85.85,0,0,1,.89-.77c6.22-1.71,13.89-1.68,19.26,1.59a5.93,5.93,0,0,1,3.28.81h.06l-.76-.82c.89.17,1.39.88,2.2,1.17-.11-.37-.23-.78-.33-1.15,2.2.36,4.46.42,6.71.75a29.93,29.93,0,0,1,3.3.58,16.07,16.07,0,0,1,3.11,1.14,3.5,3.5,0,0,1,.46.14,19.68,19.68,0,0,1,2.76-.87l.72-.13c.08,0,.07,0,.23,0l1.24.11,2.5.22a104.48,104.48,0,0,1,10.44,1.68l-3.62-.86-3.6-.7c-1.2-.23-2.41-.48-3.6-.63L52,19.07h.25l.49,0,1,.07,2,.15c1.31.09,2.64.3,4,.45,2.64.3,5.3.81,8,1.33A97.2,97.2,0,0,1,83.94,26a94.55,94.55,0,0,1,21.75,12.06A91.26,91.26,0,0,1,123,54.87a80.23,80.23,0,0,1,11,18.33c.67,1.45,1.19,2.94,1.69,4.37s1,2.76,1.32,4.12a54.65,54.65,0,0,1,1.54,7.36,75.59,75.59,0,0,1,3.37,24.08,86.23,86.23,0,0,1-3.94,22.92c-.58,1.74-1.1,3.56-1.74,5.21l-1.95,5c-1.37,3.15-2.77,6.33-4.25,9.24-2.92,5.92-6,11.41-8.84,16.55s-5.6,10.12-7.88,14.84a102,102,0,0,0-5.53,13.67,36.6,36.6,0,0,0-1.28,5.65c0,.24,0,.33,0,.45s0,.25,0,.38,0,.5,0,.76a8.36,8.36,0,0,0,.13,1.5,8.49,8.49,0,0,0,1,2.81,7.87,7.87,0,0,0,2,2.2c.65.49,1.17,1,1.14,1.3s-.74.22-1.5-.29a8.41,8.41,0,0,1-3.17-3.51,10.64,10.64,0,0,1-1-4.78c0-.21,0-.43,0-.62a2.25,2.25,0,0,1,0-.4,4.36,4.36,0,0,1,.06-.49c.08-.66.2-1.35.33-2.05s.32-1.45.5-2.19l.31-1.14.4-1.23.78-2.46c.24-.82.63-1.68.93-2.51l1-2.53,1.13-2.58c3-6.91,7-14.07,11.22-21.85a201,201,0,0,0,12.14-25.77,173.46,173.46,0,0,1-10.69,21.62c-3.74,6.59-7.46,12.73-10.69,18.69a107.75,107.75,0,0,0-7.87,17.44,37.24,37.24,0,0,0-1.18,4c-.15.64-.3,1.28-.4,1.88s-.21,1.29-.25,1.62a14.47,14.47,0,0,0,.33,5.16,10.42,10.42,0,0,0,2.68,4.53,16.8,16.8,0,0,0,4.21,3,17.75,17.75,0,0,0,3.16,1.05c.44.11,1.32.31,2,.43s1.61.2,2.42.3a38.4,38.4,0,0,0,10.13-.37,45.25,45.25,0,0,0,10.14-3,51.91,51.91,0,0,0,9.49-5.32,53.41,53.41,0,0,0,15-16.32,71.6,71.6,0,0,0,8.56-22.33,83.28,83.28,0,0,0,1.52-10.45,88.38,88.38,0,0,0,.3-10.43c-.14-7-.93-14.35-1.8-22s-1.82-15.66-2.06-24.33c0-2.17-.11-4.35,0-6.61,0-1.12,0-2.23.1-3.38s.16-2.29.24-3.45.21-2.32.36-3.5.29-2.35.47-3.54l.69-3.59.36-1.81.48-1.81a73.39,73.39,0,0,1,3.33-10.08c.73-1.61,1.42-3.24,2.21-4.81l2.52-4.59a78,78,0,0,1,12.81-16,80.29,80.29,0,0,1,34.41-19.63,77.6,77.6,0,0,1,19.86-2.75,78.84,78.84,0,0,1,19.7,2.39,86.72,86.72,0,0,1,18.5,6.89,85.82,85.82,0,0,1,16.59,11c5.51,4.54,9.62,9.8,9.78,10.75.1.48-.74-.21-2.21-1.64s-3.67-3.52-6.34-5.8a86.51,86.51,0,0,0-36-18.87,78.74,78.74,0,0,0-20.57-2.35,74.44,74.44,0,0,0-20.64,3.36,79.15,79.15,0,0,0-34.73,22A73.55,73.55,0,0,0,178.86,66c-.73,1.62-1.49,3.22-2.17,4.87s-1.21,3.37-1.78,5L173.54,81c-.37,1.7-.68,3.4-1,5.1a105.16,105.16,0,0,0-1.21,20c.17,6.48.75,12.74,1.38,18.82,1.27,12.12,2.76,23.62,2.21,34.35a93.16,93.16,0,0,1-2.18,16,78.9,78.9,0,0,1-5.15,15.06,63.32,63.32,0,0,1-8.19,13.22c-.78,1-1.66,1.93-2.49,2.88s-1.78,1.8-2.68,2.69a54.54,54.54,0,0,1-5.94,4.76,49,49,0,0,1-23.42,8.85c.12.08.22.16.24.25,0,.37-.69.84-2,1.15,9.36-.31,19-4,27.31-9.87,11-8.68,18.54-21.72,22.23-36.31a97.18,97.18,0,0,0,2.93-22.82c.06-7.92-.66-16.28-1.46-25.2-1-12.21-2.1-24.65-.5-37.36a77.26,77.26,0,0,1,4.7-18.73A69.24,69.24,0,0,1,188,57.05a75.57,75.57,0,0,1,17.24-16.91,73.88,73.88,0,0,1,21.66-10.61,72.35,72.35,0,0,1,24.12-3,78.63,78.63,0,0,1,23.67,4.93,14.06,14.06,0,0,1,2.83,1.24c.38.29-.27,0-1.49-.38a81,81,0,0,0-16.13-4.19c-1.39-.17-2.77-.43-4.18-.53l-4.22-.3a77.92,77.92,0,0,0-8.5.19,69.51,69.51,0,0,0-16.75,3.34A77.66,77.66,0,0,0,210.72,38c3.29-1.49,5.38-2,5.32-1.51,0,.27-.58.82-1.57,1.58-.5.38-1.1.8-1.8,1.28s-1.43,1.07-2.27,1.67c2.09-1.37,4.34-2.47,6.55-3.64,2.29-1,4.54-2.1,6.92-2.88a24.15,24.15,0,0,1,3.75-1.11c1-.2,1.56-.26,1.55-.14,0,.29-2.32,1-5,2.07a73.26,73.26,0,0,0-7,2.92c-2.22,1.18-4.47,2.31-6.58,3.7l-1.6,1c-.53.34-1,.73-1.55,1.09-1,.74-2.05,1.45-3,2.23l-2.91,2.42c-1,.8-1.84,1.72-2.77,2.58A65.23,65.23,0,0,0,189.1,63a61,61,0,0,0-6.69,13.69A75,75,0,0,0,179,94.41a122.88,122.88,0,0,0,.12,17.7c.86,11.64,2.67,22.94,3.44,34.17a31,31,0,0,1,.81-6.64h0c-.33-3.51-.72-7-1.11-10.53-1-8-2.12-16.16-2.38-24.49A100.06,100.06,0,0,1,180.23,92c.25-2.1.43-4.21.87-6.31.21-1,.35-2.11.61-3.14l.8-3.12a28.28,28.28,0,0,1,1-3.09c.36-1,.68-2,1.08-3.06l1.3-3c.22-.49.42-1,.67-1.48l.77-1.43c.51-1,1-1.91,1.55-2.85l1.75-2.73.89-1.36,1-1.3,2-2.59,2.14-2.44L197.63,53l1.15-1.14,2.31-2.28,2.47-2.12,1.23-1c.42-.34.87-.65,1.3-1l2.62-1.94c.89-.61,1.82-1.17,2.73-1.76A31.63,31.63,0,0,1,214.23,40l2.87-1.56c1-.49,2-.91,3-1.38,1.95-1,4-1.63,6.07-2.41a66.9,66.9,0,0,1,12.77-3,69.68,69.68,0,0,1,26,1.59,78,78,0,0,1,42.86,28.37,9.18,9.18,0,0,1,1.38,2.11,7.32,7.32,0,0,1-1.49-1.7,76.94,76.94,0,0,0-53.24-30.23h.08c.84.14,1,.27.05.26a28,28,0,0,1-3.27-.29c-1-.12-.88-.22-.08-.25a72.1,72.1,0,0,0-14.67.82,71.29,71.29,0,0,0-14.08,4,73.45,73.45,0,0,0-12.86,6.87,72.53,72.53,0,0,0-11.13,9.33c-.88.84-1.62,1.8-2.44,2.7l-1.19,1.36c-.4.46-.74,1-1.11,1.44-.73,1-1.48,1.92-2.17,2.91l-2,3.06a36.12,36.12,0,0,0-1.78,3.16,30.59,30.59,0,0,0-1.62,3.24l-1.45,3.33-1.18,3.43a68.84,68.84,0,0,0-2.86,14,96.4,96.4,0,0,0-.38,14.09,103.71,103.71,0,0,1,.46-13c.29-2.17.5-4.35,1-6.5.23-1.08.37-2.17.68-3.23l.86-3.19a58.77,58.77,0,0,1,5.15-12.21A65,65,0,0,1,192,61.56c.62-.91,1.33-1.76,2-2.64a31.81,31.81,0,0,1,2.09-2.55l2.2-2.46c.77-.79,1.58-1.54,2.36-2.31l1.19-1.14c.4-.37.84-.71,1.26-1.07l2.52-2.12,2.67-1.94,1.33-1,1.4-.88,2.79-1.74,2.91-1.54c.49-.25,1-.52,1.46-.76l1.5-.67c1-.44,2-.91,3-1.32,2.07-.72,4.1-1.58,6.23-2.11A65.32,65.32,0,0,1,241.84,33a67,67,0,0,1,11.52-.32,13.39,13.39,0,0,1,2.85.41c.28.13-.5.1-1.58.05l-3.21-.19c6.64.41,11.49,2.19,11.26,2.64-.48.45-6-.48-12.65-.73a67.7,67.7,0,0,0-13.34.94,69.48,69.48,0,0,0-12.82,3.73,67.89,67.89,0,0,0-22.15,14.56c-1.4,1.33-2.6,2.83-3.86,4.28a28,28,0,0,0-1.71,2.34c-.54.79-1.11,1.57-1.63,2.38a66.84,66.84,0,0,1,32.59-23.91c12.92-4.51,27.15-4.16,40-.15.56.16,1.09.32,1.58.48s.91.37,1.27.53c.73.32,1.17.57,1.16.67s-.46,0-1.18-.17c-.37-.1-.8-.23-1.27-.38l-1.57-.43a63.14,63.14,0,0,0-64.4,17.56,59.57,59.57,0,0,0-9.92,14.22,57.06,57.06,0,0,0-5.17,16.47c-1.85,11.54-.71,23.56.74,35.7,1.38,7.94,2.94,16,3.91,24.41a120.52,120.52,0,0,1,.89,12.89,108.91,108.91,0,0,1-.58,13.22c.17-1.11.38-2.22.52-3.34s.27-2.24.4-3.37a117.65,117.65,0,0,0,.09-21c-.52-6.74-1.42-13.17-2.29-19.41-1.75-12.45-3.41-24.26-2.39-35.65A58.08,58.08,0,0,1,192.69,75a55.42,55.42,0,0,1,8.69-14.67,61.78,61.78,0,0,1,29.27-19.71,9.38,9.38,0,0,1,2.36-.54c.15.06-.62.4-1.81.75a61.45,61.45,0,0,0-28.49,18.73,56.69,56.69,0,0,0-8.85,14.07l-.78,1.93a18.84,18.84,0,0,0-.73,1.94c-.39,1.33-.87,2.62-1.2,4s-.66,2.73-.91,4.13-.47,2.81-.63,4.24a86.23,86.23,0,0,0-.35,14.38c.23,4.81.78,9.63,1.44,14.48,1.29,9.68,3.08,19.44,4,29.59-.65-10.4-2.27-20.19-3.41-29.63-.59-4.73-1.06-9.36-1.27-13.92-.15-2.29-.12-4.53-.15-6.79s.14-4.46.41-6.63A56,56,0,0,1,193,78.63,50.92,50.92,0,0,1,198.54,67a58.44,58.44,0,0,1,8.34-10.22,65.49,65.49,0,0,1,10.57-8.25,31.68,31.68,0,0,1,3.69-1.91,2,2,0,0,1,.73-.52,53.71,53.71,0,0,1,13.44-5.38,11.09,11.09,0,0,1,2.66-.45C238.48,40.28,237.91,40.39,236.88,40.7ZM24.15,33.91,24,33.72l.58.3.9,1.32S24.8,34.63,24.15,33.91Zm-8.63,6.3h0L15,39.5ZM118.93,168.06c2.55-4.59,5.21-9.29,7.76-14.36,1.3-2.47,2.51-5.14,3.73-7.78.61-1.31,1.15-2.75,1.72-4.12s1.15-2.76,1.63-4.25l1.49-4.39c.44-1.52.84-3.07,1.25-4.6.19-.78.41-1.53.59-2.32l.44-2.41c.28-1.61.63-3.2.82-4.84a76.67,76.67,0,0,0-.13-20.24,74.14,74.14,0,0,1,.87,19.81,37.44,37.44,0,0,1-.57,3.72l-.68,3.68c-.53,2.4-1.22,4.71-1.85,7.06s-1.53,4.47-2.34,6.66-1.74,4.23-2.67,6.27A231.54,231.54,0,0,1,118.93,168.06ZM17,29.45a11.47,11.47,0,0,1,2.57,2.24,5.51,5.51,0,0,1,1.76-.4,34.45,34.45,0,0,1,4.88.08c-.25-.47.13-.44.32-.52l.59-.16c-1.72-.19-3.47-.49-5.23-.68C20.29,29.83,18.56,29.78,17,29.45ZM5.7,33.32l-.18-.15.15-.79Zm-.21,1.33.26.05C5.72,35,5.63,34.9,5.49,34.65Zm2.33.46a1.46,1.46,0,0,0-.38-.33Zm5.79,21.06,0-3.78L13.51,56Z"/><path d="M88,101.14v.52c-.3,0-.52-.17-.69-.5.49,4.7,5.17,6.23,9,5.63a1.74,1.74,0,0,0,2.65-.34,2.35,2.35,0,0,0,0-3,3.29,3.29,0,0,1-.23-.78A20.32,20.32,0,0,0,97.43,96c0,.53.09,1.08.13,1.61A4.4,4.4,0,0,0,96.75,96l-.25.67a3.78,3.78,0,0,0-1.64-2.78,3.41,3.41,0,0,0-3.13-.24,6.16,6.16,0,0,0-3.87,6.29Z"/><path d="M86.42,109.23a36.59,36.59,0,0,1-1.14-4.38l.1-.49-1.13,1.52.09-.08a7.47,7.47,0,0,1,5.06,1L90,107a1.47,1.47,0,0,0,1-.44,1.8,1.8,0,0,0,.27-2.26l-.54-.72c-1-2.23-3.18-4.6-6.14-3a6.69,6.69,0,0,0-1.64,2,2.31,2.31,0,0,0-.22,3.13,1.92,1.92,0,0,0,2.88-.18c.08.2.16.4.25.59l-.6,0c.9-.63,1.81-.18,2.71-.14l1,.49,1.29-2.69-.65-.08c-.05.13-.1.32-.11.33a13.1,13.1,0,0,1-3.72-.59L84,103.21a1.56,1.56,0,0,0-1.15,1.51l.09,1v-.49c.37.79.79,1.55,1.22,2.31s.9,1.48,1.29,2.26a.47.47,0,0,0,.68.24A.62.62,0,0,0,86.42,109.23Z"/><path d="M82,105.8c-.05-.34-.07-.7-.37-.9l-.27.07c0,.2,0,.46,0,.73C81.45,106.22,81.76,106.13,82,105.8Z"/><path d="M81.37,105l0-.3c0,.1,0,.21-.07.3h.09Z"/><path d="M162.18,137.52a111.32,111.32,0,0,0,24.19,1.41c.27,0,.49-.12.49-.24s-.23-.2-.48-.17a112.17,112.17,0,0,1-24.08-1.47c-.26,0-.49,0-.53.16S161.94,137.48,162.18,137.52Z"/><path d="M225.82,140c-.16.15-.11.24.12.22a1.26,1.26,0,0,0,.66-.29c.14-.13.08-.24-.11-.22A1.32,1.32,0,0,0,225.82,140Z"/><path d="M227.05,148a30.19,30.19,0,0,0-3.13,2,1.46,1.46,0,0,1-.57.23c.13.13,0,.37-.46.6-8.13,4.77-17.68,8.41-27.36,11.36a1,1,0,0,1-.34.53A6.41,6.41,0,0,1,191.8,164l-1.1.1c-4.42.55-8.84.94-13.26,1.09a13.07,13.07,0,0,1-3.07.71,106.3,106.3,0,0,1-11.68,2.32c.25.15.39.32.39.51-.09.46-1,.81-2.12.81l-1.65,0,4.72.31a3.05,3.05,0,0,1,.62.05q2.59-.11,5.25-.3A116.93,116.93,0,0,0,192,165.32a144.31,144.31,0,0,0,20.09-7.65,1.4,1.4,0,0,1,.76-.2c.15,0,.17.17-.06.3-2,1.11-3.86,2.27-5.77,3.41s-3.84,2.23-5.83,3.31-4.05,2.12-6.25,3.09c-1.1.48-2.23.95-3.4,1.41s-2.37.91-3.64,1.29l-4.51,1.42L178.83,173c-1.53.43-3.07.78-4.63,1.13s-3.12.73-4.7,1a154.28,154.28,0,0,1-19.5,2.52c-6.94-.21-13.66-.55-20.48-1.07a204.91,204.91,0,0,1-20.87-2.79,148.71,148.71,0,0,1-15.59-3.93,134.17,134.17,0,0,1-24.47-9.77,9.59,9.59,0,0,1-4.75-4,5.72,5.72,0,0,1-.25-5.19,6.41,6.41,0,0,1,5.32-3.33l-.87-.6-1.18-1.24a5.82,5.82,0,0,1-1.67-4.09l0-1.88c.48-3.19,0-6.51,1-9.63l.93-.74v-.43a5.49,5.49,0,0,1,.62-3.53l1-1a14.24,14.24,0,0,1,3.89-2.7,4.9,4.9,0,0,1,1.26-1.19,7,7,0,0,1,2.59-3.85,1,1,0,0,1,1-1,.86.86,0,0,1,.49.15h0c.09-.41.11-.53.18-1-.17-.31-.26-.51-.26-.51-.51-.78-.51-.78-.93-1.47a4.52,4.52,0,0,1,0-1.61c1.1-2.42,1.11-2.41,1.89-3.17a2.2,2.2,0,0,1,.31-.15c-.18-.65-.19-.7-.23-.89a2.5,2.5,0,0,1,.08-.5c.37-.46.37-.46.43-.68a2.92,2.92,0,0,1,.28-.36c.65-.29.65-.29.78-.42a1.6,1.6,0,0,1,.34-.13l.61.14-.42,1.69.46-.29L81,107l.33-.56,0,.57,0-.74c.53.81.53.81.82,1a1.23,1.23,0,0,0,.61.44,2.44,2.44,0,0,1,.19-.28l1.13,1.7a3.29,3.29,0,0,1-.08.47.42.42,0,0,1,.5.13l.31.42H85l0,0,.51,0h.11l2.16.19a8,8,0,0,1,.47.77,2.25,2.25,0,0,1,0-.38c0-.26.43-.6.4-.7a18.71,18.71,0,0,0-1.62-3.19c-.31-.5-.63-1-1-1.46L85.2,104a.83.83,0,0,1-.13-1.12.76.76,0,0,1,1.05-.29,10.72,10.72,0,0,1,1.82.42,11.32,11.32,0,0,1,1.71.64,13.31,13.31,0,0,1,3,2,20.5,20.5,0,0,1,4.54,6,37.42,37.42,0,0,0,2.53,2.79v-.33l.56.89.08.07-.09-1.23-.26-.52a14.74,14.74,0,0,1-2.57-3.47L96.35,108c-.34-.65-.67-1.31-1-1.93a26.9,26.9,0,0,1-1.67-4.36.82.82,0,0,1,.12-1,.55.55,0,0,1,.86,0,19.08,19.08,0,0,1,8.22,10.93,3.86,3.86,0,0,1,1.41,2.09l0,0v-1c.39.54.35,1.28.69,1.84.11-.35.23-.71.35-1.06a47,47,0,0,0,3.61,3.12,13.86,13.86,0,0,1,3.33,3.49,2,2,0,0,1,.26.24,7.69,7.69,0,0,1,4.84.94c-.65-.47-1.3-1-1.91-1.44a21,21,0,0,1,4.83,1.79c.54.29,1.08.61,1.61,1s1.09.65,1.62,1a37,37,0,0,1,3.05,2.31,18.53,18.53,0,0,1,4.45,5,129.93,129.93,0,0,0,14.25,3.9,120,120,0,0,0,14.6,2.12c.51,0,1,.25,1,.51s-.31.47-.83.45a97.18,97.18,0,0,1-21.43-2.54,91.33,91.33,0,0,0,18,4.82l2.41.22a16.15,16.15,0,0,1,2.38.38,98.76,98.76,0,0,0,24.11-.09,127.48,127.48,0,0,0,19.88-4.5c4.73-1.5,9.19-3.08,13.56-4.83s8.71-3.55,13.22-5.48c1.17-.58,2.43-.78,2.79-.45s-.31,1.08-1.49,1.69a150.12,150.12,0,0,1-14,6.62c-2.37,1-4.82,1.87-7.24,2.79s-4.91,1.68-7.43,2.34a111.1,111.1,0,0,1-15.39,3.32,94.54,94.54,0,0,1-16,1l-3.48-.09-3.43-.23a.6.6,0,0,1,.05.26,1.14,1.14,0,0,1-.59.91l3.93.34,4,.26c7.35-.75,14.59-1.92,22.42-2.8l4-.46c1.3-.12,2.59-.24,3.86-.42l3.81-.43,3.78-.58a167.13,167.13,0,0,0,17.85-7.24.93.93,0,0,1,.61-.15c.13,0,0,.18-.18.32-1.91,1.18-3.94,2.18-6,3.27s-4.14,2-6.29,2.91c.81.08,1.37.33,1.47.76s-.29,1-1,1.56l1.53-.48,1.51-.55c.63-.21,1.18-.23,1.24,0s-.35.59-.94.8c-1,.4-2.07.76-3.11,1.08l-3.13,1c-2.1.65-4.21,1.22-6.32,1.81a149.27,149.27,0,0,1-15.25,4,3.32,3.32,0,0,1,1.73.95h0l2.41-.48a243.53,243.53,0,0,0,42.35-16.91c.27-.14.52-.19.58-.11s-.12.25-.37.37c-4.15,2.11-8.3,4.19-12.55,6h0c.2,0,.28.08.12.22a1.51,1.51,0,0,1-.67.3c-.22,0-.25-.1-.12-.22a243.16,243.16,0,0,1-24,9.1,203.89,203.89,0,0,0,22.58-7.13l2.23-1.37a1.05,1.05,0,0,1,.64-.14c.1,0,0,.22-.23.34l-.63.37c1.39-.56,2.62-.63,2.82-.15s-.88,1.42-2.33,2c-3.82,1.79-7.73,3.33-11.7,4.73-.42.19-.84.37-1.26.53l-1.23.67a162.13,162.13,0,0,0,18.54-6.5c.5-.26,1-.34,1.09-.18s-.25.51-.76.76a151.33,151.33,0,0,1-15.81,7.6,151.29,151.29,0,0,1-16.88,5.66l-5.51,2.64c-1.87.86-3.78,1.67-5.72,2.52l1.53-.25a79.77,79.77,0,0,0,17.89-5.62c5.57-2.34,10.89-5,16.56-7.62.28-.14.56-.16.63-.09s-.09.25-.39.37c-2.74,1.38-5.4,2.61-8,4s-5.34,2.58-8.22,3.71c-4.74,2-9.37,3.57-13.93,5.3,9.56-2.3,18.24-6.08,27-10a2.64,2.64,0,0,1,1.07-.3c0-.06.07-.13.17-.21a37,37,0,0,1,3.29-2.07,1,1,0,0,1,.69-.18C227.39,147.69,227.29,147.84,227.05,148ZM90.39,120.62v-.24l.2.55-.18,1.49Zm-9.58-.88h0l.15-.86Zm63.31,18.44a51.38,51.38,0,0,1-12.37-4.63c1,.27,2,.61,3.05.83,1.53.63,3,1.32,4.61,2Zm-55.19-25a13.19,13.19,0,0,1,0,3.14,3.54,3.54,0,0,1,1.28.76,34,34,0,0,1,3,2.76c.12-.49.34-.26.5-.22l.46.19q-1.43-1.64-2.81-3.37A23.93,23.93,0,0,1,88.93,113.17Zm-8.45-4.74,0-.22.66-.39Zm-1.1.68c0,.07.05.14.08.22C79.23,109.49,79.25,109.37,79.38,109.11Zm.78,2a1.54,1.54,0,0,0,0-.48ZM67.75,128.78l2.93-2.38-2.9,2.22Z"/><path d="M125.58,274.79l0,.26c-.16,0-.3-.09-.43-.26.64,2.37,3.21,3.24,5.43,3.09a1.1,1.1,0,0,0,1.5-1.61,1.43,1.43,0,0,1-.17-.41,8.55,8.55,0,0,0-1.17-3.5l.21.84a2.63,2.63,0,0,0-.63-.88l-.1.34a2.54,2.54,0,0,0-4.84,1.51Z"/><path d="M125.14,278.87c-.31-.73-.57-1.47-.83-2.22l0-.25-.53.76,0,0a4.55,4.55,0,0,1,2.85.55l.35.1a.77.77,0,0,0,.54-.2.82.82,0,0,0,.06-1.15l-.35-.37c-.65-1.18-2.17-2.39-3.68-1.57-.35.19-.52.64-.75,1a1.12,1.12,0,1,0,1.66,1.49l.17.3-.33,0c.47-.32,1-.07,1.49,0l.59.27.6-1.35-.38-.05c0,.06,0,.16,0,.16a10.86,10.86,0,0,1-2.13-.33l-1-.11a.69.69,0,0,0-.54.76l.11.47,0-.25c.49.8,1.11,1.51,1.58,2.32a.29.29,0,0,0,.38.12A.29.29,0,0,0,125.14,278.87Z"/><path d="M122.58,277.13a.67.67,0,0,0-.26-.45l-.14,0,.07.37C122.3,277.34,122.46,277.3,122.58,277.13Z"/><path d="M122.18,276.71l0-.15,0,.16h.05Z"/><path d="M147.29,292.84a38.38,38.38,0,0,0,2.89,3.08s.1,0,.16-.07.07-.14,0-.17a42,42,0,0,1-2.87-3.08s-.1,0-.16.06S147.26,292.81,147.29,292.84Z"/><path d="M150.07,306.19a.25.25,0,0,0-.14.18c0,.06,0,.1.1.06a.28.28,0,0,0,.13-.17C150.17,306.18,150.12,306.16,150.07,306.19Z"/><path d="M145.56,311.51a2,2,0,0,0-.74.08s-.07,0-.07-.06a.39.39,0,0,1-.28.2,14.91,14.91,0,0,1-4.83-.83,1.38,1.38,0,0,1-.26.23c-.3.22-.57.24-.7.06l-.07-.16c-.38-.56-.78-1.08-1.15-1.65a.82.82,0,0,1-.54,0,13.64,13.64,0,0,1-2-.09,1.19,1.19,0,0,1-.17.31c-.2.24-.44.34-.56.24l-.19-.13c.13.2.26.39.38.6a.14.14,0,0,1,0,.09,4.41,4.41,0,0,0,.6.44,15.05,15.05,0,0,0,6.66,1.62s.09,0,.07.1a.3.3,0,0,1-.15.16c-2,.44-4.09,1.37-5.85,1.28a30.2,30.2,0,0,1-5.95-.79c-1.46-1.14-3.27-1.59-5.09-2.31a17.91,17.91,0,0,1-1.77-.8,2.56,2.56,0,0,1-.26-.14l-.38-.24-.76-.5-1.5-1c-2-1.37-3.91-2.8-5.85-4.26a3.32,3.32,0,0,1,1.36-6.17l-.34-.29-.42-.61a2.88,2.88,0,0,1-.48-2l.08-.9c.37-1.55.28-3.17.78-4.7l.45-.37v-.21a2.85,2.85,0,0,1,.32-1.72l.45-.52a7,7,0,0,1,1.88-1.38,2.32,2.32,0,0,1,.61-.6,3.45,3.45,0,0,1,1.24-1.92.48.48,0,0,1,.46-.5.53.53,0,0,1,.26.06h0a3.35,3.35,0,0,0,.07-.5,2.6,2.6,0,0,1-.15-.25l-.53-.71a2.33,2.33,0,0,1-.08-.8c.47-1.21.47-1.21.84-1.59l.15-.08c-.13-.33-.14-.35-.17-.44a1.17,1.17,0,0,1,0-.25c.17-.24.17-.24.19-.35l.12-.18c.33-.15.33-.15.39-.22l.17-.06.34.07-.12.84.23-.14-.13.33.15-.28,0,.28,0-.37c.33.4.33.4.5.52a.83.83,0,0,0,.36.22,1.11,1.11,0,0,1,.08-.15c.36.43.36.43.69.86a.93.93,0,0,1,0,.24.23.23,0,0,1,.27.07l.19.21h.09l.27,0h.06l1.19.12a2.63,2.63,0,0,1,.28.4l0-.2c0-.13.22-.3.2-.35a17.54,17.54,0,0,0-2.2-3.14.41.41,0,0,1,.41-.71,9,9,0,0,1,6.55,4.95c.45.53.91,1.05,1.39,1.56v-.17l.3.5,0,0v-.64c0-.1-.09-.2-.13-.29a27.06,27.06,0,0,1-2.71-4,22.42,22.42,0,0,1-1.15-2.3.36.36,0,0,1,0-.52.36.36,0,0,1,.51,0c2.28,1.32,4.44,3.4,5,6a2.11,2.11,0,0,1,.76,1.17h0l0-.51c.21.3.15.69.32,1l.26-.53c1.17,1.36,2.77,2.4,3.55,4.05l.12.16a8.7,8.7,0,0,1,2,.46l-.23-.41a1.38,1.38,0,0,1,1,.28,3.12,3.12,0,0,1,.38,3.37,49.57,49.57,0,0,0,4.53,2.64c.08,0,.07.18,0,.32s-.24.23-.33.2a16.84,16.84,0,0,1-3.68-1.38,15.17,15.17,0,0,0,2.13,2.45l.37.2a.58.58,0,0,1,.27.32,13.43,13.43,0,0,0,3.43,2.26,30,30,0,0,0,3.52,1.09,12.62,12.62,0,0,1,4.76,1.8c.21.1.18.47-.07.83s-.61.57-.82.48c-3.56-1.06-7.24-1.86-10-4.25l-.86-.77-.1.15a1.91,1.91,0,0,1-.47.44,8.69,8.69,0,0,1,.86,1,6.52,6.52,0,0,1,3.41,1.71,8.92,8.92,0,0,1,1.29,2.47c1,.43,2,.79,3,1.26,0,0,.06.06,0,.14s-.11.13-.16.12a13.18,13.18,0,0,1-2.56-.33,2.41,2.41,0,0,1-.47.91,2.12,2.12,0,0,1-.81.64l.39.34c.07.08,0,.25-.08.4s-.29.24-.37.18l-1.59-1.35c-.8-.34-1.57-.7-2.32-1.08a3.11,3.11,0,0,1-.4.89h0l.32.21a13.92,13.92,0,0,1,6.62,3.23s0,.11,0,.18-.13.11-.16.08a10.76,10.76,0,0,0-1.75-1.33h0a.26.26,0,0,1-.13.18c-.06,0-.1,0-.09-.07a.25.25,0,0,1,.13-.17,14.65,14.65,0,0,0-3.87-1.62,16.62,16.62,0,0,1,2.92,2.3l.53,0s.05.08,0,.15-.12.13-.16.12h-.14c.16.17.07.58-.22.95s-.7.55-.88.39c-.57-.33-1.11-.69-1.64-1.07l-.22-.06-.31.05c.69.77,1.34,1.57,2,2.37.07.05,0,.21-.05.34s-.25.21-.32.16a28.23,28.23,0,0,1-5.11-2.14l-2.75.64c.06.05.11.11.17.15,1.54,1.2,4.12.58,5.88,1.4.05,0,0,.09,0,.16s-.13.12-.17.09a15.88,15.88,0,0,0-3-.46,15.19,15.19,0,0,0-2.55-.28c1.26.73,2.91.86,4.28,1.42.07,0,.1.08.07.17a.46.46,0,0,1,.1-.07,2.47,2.47,0,0,1,.79-.08c.05,0,.07.05,0,.14A.2.2,0,0,1,145.56,311.51Zm-18.28-26.78v-.12l.09.29-.15.75S127.26,285.2,127.28,284.73Zm-5-.65h0c0-.25.08-.43.08-.43C122.38,283.83,122.35,284,122.33,284.08Zm21,8.76A4.6,4.6,0,0,1,142,291l.5.24A15.78,15.78,0,0,1,143.37,292.84Zm-16.78-11.93a6,6,0,0,1,0,1.59,1.93,1.93,0,0,1,.68.42,18.3,18.3,0,0,1,1.53,1.52c.07-.25.19-.12.27-.09l.25.11c-.49-.59-1-1.2-1.44-1.83A15.51,15.51,0,0,1,126.59,280.91Zm-4.69-2.46v-.11l.33-.2Zm-.55.35.06.1C121.29,279,121.3,278.93,121.35,278.8Zm.5,1a1.05,1.05,0,0,0,0-.24Zm-6,8.83,1.41-1.19-1.39,1.11Z"/></g></g></svg>