<svg xmlns="http://www.w3.org/2000/svg" viewBox="0 0 454.49 302.62"><g id="Layer_2" data-name="Layer 2"><g id="Layer_1-2" data-name="Layer 1"><path d="M5,11.33l.51.29A1.34,1.34,0,0,1,4.37,12a11,11,0,0,0,7.75,0,18.93,18.93,0,0,0,6.63-4.08,2.56,2.56,0,0,0,2.64-2.31,2.41,2.41,0,0,0-2.72-2.14,4.28,4.28,0,0,1-1-.34A20.53,20.53,0,0,0,9.35,0l1.89.83A7.69,7.69,0,0,0,8.53.59L9,1.21a7.59,7.59,0,0,0-4.87,0A6.18,6.18,0,0,0,.55,4.05c-1.43,2.7,0,5.71,3.08,6.76Z"/><path d="M11.33,17.46C9.62,17,8,16.36,6.24,15.77l-.38-.35.49,1.84v-.13c1.08-1.82,3.32-2.88,5.43-3.69l.74-.38a1.53,1.53,0,0,0,.54-1.1,1.72,1.72,0,0,0-1.87-1.67c-.41,0-.81,0-1.22,0a10.62,10.62,0,0,0-5.16.33,5,5,0,0,0-3.44,3.42c-.18.8.35,1.66.62,2.49a2.45,2.45,0,0,0,2.88,1.89,2.49,2.49,0,0,0,2.25-2.62l.78.13-.48.55c.18-1.15,1.42-1.62,2.28-2.36l1.4-.56L9.76,10.87l-.7.51a1.62,1.62,0,0,1,.22.29,29.46,29.46,0,0,1-4,2.87L3.59,16a1.28,1.28,0,0,0,.51,1.83l1,.45L4.63,18c2.1.22,4.28.24,6.35.58a.67.67,0,0,0,.8-.42A.56.56,0,0,0,11.33,17.46Z"/><path d="M4.45,19.17A1.58,1.58,0,0,0,3.28,19l-.14.27.73.36C4.4,19.89,4.56,19.57,4.45,19.17Z"/><path d="M3.14,19.27l-.31-.15.24.23,0,0Z"/><path d="M112.62,205.1c.38.16.78.26,1.17.39.23,0,.35.1.65.18s.66.16,1,.23.66.14,1,.2l1.14.14,1.14.16,1.17,0a36.39,36.39,0,0,0,9.61-.74,46.08,46.08,0,0,0,18.77-8.89,49.63,49.63,0,0,0,7.73-7.47,58.93,58.93,0,0,0,6.32-9.3,73.76,73.76,0,0,0,7.74-22.28,4.43,4.43,0,0,0,.12-2.06c-.11-.07-.31.76-.51,1.74a73,73,0,0,1-7.64,22.16,58.6,58.6,0,0,1-6.23,9.24,49.4,49.4,0,0,1-7.61,7.42,45.77,45.77,0,0,1-18.51,8.88,36.79,36.79,0,0,1-9.48.81,18.77,18.77,0,0,1-2.27-.2c-.74-.11-1.54-.16-2.17-.32a20.91,20.91,0,0,1-2.82-.77c-.4-.12-.76-.17-.88-.07S112.23,205,112.62,205.1Z"/><path d="M243.92,20.45c-.95.13-.9.24.08.26s2.34-.08,3.27-.1.77-.18-.07-.26A15.92,15.92,0,0,0,243.92,20.45Z"/><path d="M236.88,29.35A50.25,50.25,0,0,0,224,34.08,17.83,17.83,0,0,1,222,35c.17,0,.06.16-.29.39A18.78,18.78,0,0,1,220,36.51c-1.88,1.06-3.62,2.36-5.4,3.59s-3.43,2.66-5,4.19a64.56,64.56,0,0,0-4.56,4.65L203,51.46c-.71.82-1.27,1.76-1.91,2.62a51.62,51.62,0,0,0-6,11.39A57.22,57.22,0,0,0,192,78a89.31,89.31,0,0,0-.51,13.56c.17,4.64.67,9.4,1.26,14.23s1.35,9.78,2,14.83,1.38,10.22,1.81,15.55a6.34,6.34,0,0,1,.57,1.78,44.82,44.82,0,0,1,.74,6.45,66.81,66.81,0,0,1-.18,9.07c-.15,1.61-.32,3.22-.56,4.82a105.45,105.45,0,0,1-7.68,28.55,84.9,84.9,0,0,1-16.56,25.29,61.09,61.09,0,0,1-10.43,9.94c-1.72,1.43-3.57,2.7-5.41,4s-3.8,2.46-5.82,3.51-4.07,2.08-6.16,3c-1.06.46-2.15.87-3.22,1.29s-2.19.81-3.31,1.16c-2.21.77-4.52,1.31-6.83,1.87a69.43,69.43,0,0,1-7.12,1.11,71.23,71.23,0,0,1-7.33.39c-2.48-.1-4.93-.16-7.54-.52,1.27.35,2,.63,2,.83-.23.21-1.57.3-3.56.07l-.8-.09a5.26,5.26,0,0,1-.94-.12c-.65-.12-1.34-.25-2.05-.41a43.71,43.71,0,0,1-4.51-1.31,51.18,51.18,0,0,1-9-4.12,53,53,0,0,0,13.12,5.6c1.15.3,2.34.63,3.47.82s2.06.42,3.1.56l1.54.23,1.5.14,3,.27c1.15.08,2.21.07,3.18.13a70.63,70.63,0,0,0,25.43-4.85,79.82,79.82,0,0,0,23.47-14.23,78.3,78.3,0,0,0,9.41-9.69c1.48-1.72,2.72-3.52,4-5.3s2.46-3.63,3.51-5.52a95.33,95.33,0,0,0,9.79-23.4,113.7,113.7,0,0,0,2.55-12,117.06,117.06,0,0,0,1.18-12,115.1,115.1,0,0,0,0-11.9l-.17-2.91c-.07-1-.17-1.9-.25-2.85l-.26-2.84-.33-2.78c-.88-7.4-2.06-14.44-3.06-21.23-2-13.53-3.11-26.26-.28-37.81a10.6,10.6,0,0,1,.86-2.51c.23-.39.32-.27.1.55l-.36,1.31c-.12.44-.17.92-.26,1.36-.17.91-.33,1.81-.5,2.71l-.3,2.76-.15,1.36L194,80.1c0,.92-.07,1.84-.11,2.76l0,2.8c0,.92.05,1.87.12,2.82s.12,1.87.2,2.82c.72,7.61,2.19,15.34,3.83,23.69.81,4.14,1.63,8.51,2.39,13s1.4,9.28,1.76,14.37a113.62,113.62,0,0,1-2.22,32.75,98.13,98.13,0,0,1-18.14,39.4,87.62,87.62,0,0,1-16.44,16.09,85.55,85.55,0,0,1-20.61,11.32,75.94,75.94,0,0,1-24.19,5l-3.2.09c-1.07,0-2.15-.07-3.23-.1s-2.14-.1-3.25-.19-2.26-.22-3.39-.41l-1.73-.26a17.73,17.73,0,0,1-2-.36c-1.34-.27-2.66-.62-4-1s-2.62-.8-3.91-1.24-2.57-.95-3.82-1.5c-10-4.32-18.88-11.67-24.13-21.36A49.85,49.85,0,0,1,62.71,205a56.84,56.84,0,0,1-.75-8.36c0-1.41,0-2.82.07-4.23l0-.53a2.44,2.44,0,0,1,0-.54l.09-1.08c0-.62.08-1.21.15-1.79.29-2.44.7-4.75,1.16-7,.24-1.09.48-2.21.76-3.27l.41-1.58.43-1.45c.57-1.93,1.14-3.9,1.76-5.77l2-5.46c2.73-7.06,5.72-13.44,8.59-19.35S83,133.37,85.3,128.3c1.21-2.55,2.18-4.92,3.17-7.29l1.27-3.4c.42-1.12.68-2.15,1-3.22a43,43,0,0,0,1.92-11.12c0-.79-.08-1.56-.08-2.34s-.22-1.4-.27-2.1-.34-1.39-.45-2.09a5.26,5.26,0,0,0-.32-1c-.11-.35-.22-.7-.32-1C89.32,89,85.07,83,79.17,78.27A44.82,44.82,0,0,0,72.87,74c-1.06-.68-2.23-1.11-3.3-1.69l-1.68-.67-.82-.36c-.3-.11-.63-.21-.94-.31l-1.87-.66-1.94-.55-1-.28-1-.23-2-.46c-1.38-.21-2.7-.54-4.13-.68-.7-.08-1.39-.2-2.1-.27L50,67.68c-.71-.08-1.45-.09-2.19-.13l-1.1,0h-.21l-.65,0-1.31.12c-.88.09-1.73.09-2.62.21-3.49.26-7.07.66-10.74,1.16-2.69.82-5.58-1.28-6.5-4.9a7.51,7.51,0,0,1,.93-6l-.76.06-1.26-.26a5.22,5.22,0,0,1-3.15-2.1l-1.13-1.38c-1.65-2.71-4-4.73-5.68-7.59V45.68l-.31-.29a6.08,6.08,0,0,1-2.17-2.78l-.22-1.4a13.29,13.29,0,0,1,.32-4.76,4.72,4.72,0,0,1-.11-1.75,6.89,6.89,0,0,1-1.34-4.49.94.94,0,0,1-.15-1.39,1,1,0,0,1,.47-.31h0a9.74,9.74,0,0,0-.72-.77c-.39-.05-.62-.1-.62-.1l-1.91-.09a5,5,0,0,1-1.44-.92C4,24.32,4,24.32,3.91,23.22A1.78,1.78,0,0,1,4,22.89c-.75-.22-.8-.24-1-.31a2.58,2.58,0,0,1-.41-.34c-.17-.57-.17-.57-.33-.76a2.3,2.3,0,0,1-.13-.42c.22-.72.22-.72.19-.91a1.67,1.67,0,0,1,.14-.35l.62-.45,1.28,1.29.09-.56.38.64-.27-.6.56.28L4.45,20a4.7,4.7,0,0,0,1.62-.13,2,2,0,0,0,.9-.28,2.05,2.05,0,0,1-.11-.33c1.26,0,1.27,0,2.51.08a3,3,0,0,1,.35.36.57.57,0,0,1,.53-.33h.65l.11-.11v-.05l.47-.38.1-.09h0c.67-.57,1.37-1.1,2.07-1.64a7.51,7.51,0,0,1,1.1.14A2.71,2.71,0,0,1,14.4,17c-.23-.17-.14-.75-.26-.78a20.21,20.21,0,0,0-4.36-.69c-1.47-.08-3-.14-4.46-.14a1,1,0,0,1-1.22-.49.87.87,0,0,1,.63-1.1C9.91,9.64,17.56,9,24,10.85l5,.43L28.69,11l1.31.37.14,0-1-1-.7-.27a32.89,32.89,0,0,1-5.68-.87C20.85,8.88,19,8.45,17,8.15s-3.92-1-5.95-1.46A.81.81,0,0,1,10.18,6a.85.85,0,0,1,.89-.77C17.29,3.49,25,3.52,30.33,6.79a5.93,5.93,0,0,1,3.28.81h.06l-.76-.82c.89.17,1.39.89,2.2,1.17-.11-.36-.23-.78-.33-1.15,2.2.36,4.46.42,6.71.75a29.93,29.93,0,0,1,3.3.58A16.07,16.07,0,0,1,47.9,9.28a3.5,3.5,0,0,1,.46.14,19.68,19.68,0,0,1,2.76-.87l.72-.13a1.23,1.23,0,0,1,.23,0l1.24.1,2.5.22a104.48,104.48,0,0,1,10.44,1.68l-3.62-.86L59,8.85c-1.2-.23-2.41-.48-3.6-.63L52,7.72h.25l.49,0,1,.07,2,.16c1.31.08,2.64.29,4,.45,2.64.29,5.3.8,8,1.32a97.2,97.2,0,0,1,16.28,4.87,94.55,94.55,0,0,1,21.75,12.06A91.87,91.87,0,0,1,123,43.51a80.23,80.23,0,0,1,11,18.33c.67,1.45,1.19,2.94,1.69,4.37s1,2.76,1.32,4.12a54.65,54.65,0,0,1,1.54,7.36,75.59,75.59,0,0,1,3.37,24.08,86.23,86.23,0,0,1-3.94,22.92c-.58,1.74-1.1,3.56-1.74,5.22l-1.95,5c-1.37,3.15-2.77,6.33-4.25,9.24-2.92,5.92-6,11.41-8.84,16.55s-5.6,10.12-7.88,14.84a102,102,0,0,0-5.53,13.67,36.86,36.86,0,0,0-1.28,5.65c0,.24,0,.34,0,.45s0,.25,0,.38,0,.51,0,.76a8.92,8.92,0,0,0,1.12,4.31,7.87,7.87,0,0,0,2,2.2c.65.49,1.17,1,1.14,1.3s-.74.23-1.5-.29a8.35,8.35,0,0,1-3.17-3.51,10.64,10.64,0,0,1-1-4.78c0-.21,0-.43,0-.62a2.31,2.31,0,0,1,0-.4,4.66,4.66,0,0,1,.06-.49c.08-.66.2-1.35.33-2s.32-1.45.5-2.19l.31-1.13.4-1.24.78-2.46c.24-.82.63-1.68.93-2.51l1-2.53,1.13-2.58c3-6.91,7-14.07,11.22-21.85a201,201,0,0,0,12.14-25.77,173.46,173.46,0,0,1-10.69,21.62c-3.74,6.59-7.46,12.73-10.69,18.69a107.75,107.75,0,0,0-7.87,17.44,36.72,36.72,0,0,0-1.18,4c-.15.63-.3,1.27-.4,1.88s-.21,1.28-.25,1.61a14.47,14.47,0,0,0,.33,5.16,10.37,10.37,0,0,0,2.68,4.53,17.09,17.09,0,0,0,4.21,3.05,18.55,18.55,0,0,0,3.16,1c.44.11,1.32.31,2,.43s1.61.2,2.42.3a38.4,38.4,0,0,0,10.13-.37,45.25,45.25,0,0,0,10.14-3,51.91,51.91,0,0,0,9.49-5.32,53.41,53.41,0,0,0,15-16.32,71.6,71.6,0,0,0,8.56-22.33,83.13,83.13,0,0,0,1.52-10.44,88.61,88.61,0,0,0,.3-10.44c-.14-7-.93-14.35-1.8-22s-1.82-15.66-2.06-24.33c0-2.17-.11-4.34,0-6.6,0-1.13,0-2.24.1-3.39s.16-2.29.24-3.45.21-2.32.36-3.5.29-2.35.47-3.54l.69-3.59.36-1.81.48-1.81a73.39,73.39,0,0,1,3.33-10.08c.73-1.61,1.42-3.24,2.21-4.81l2.52-4.59a78,78,0,0,1,12.81-16,80.29,80.29,0,0,1,34.41-19.63,77.16,77.16,0,0,1,19.86-2.74,78.37,78.37,0,0,1,19.7,2.38,86.75,86.75,0,0,1,18.5,6.9,85.32,85.32,0,0,1,16.59,11c5.51,4.55,9.62,9.8,9.78,10.75.1.48-.74-.21-2.22-1.64s-3.66-3.52-6.33-5.8a86.63,86.63,0,0,0-36-18.87,79.17,79.17,0,0,0-20.57-2.35,74.44,74.44,0,0,0-20.64,3.36,79.15,79.15,0,0,0-34.73,22,73.55,73.55,0,0,0-11.88,17.34c-.73,1.62-1.49,3.23-2.17,4.87s-1.21,3.37-1.78,5.05l-1.37,5.08c-.37,1.7-.68,3.4-1,5.1a105.16,105.16,0,0,0-1.21,20c.17,6.48.75,12.74,1.38,18.82,1.27,12.12,2.76,23.62,2.21,34.35a93.16,93.16,0,0,1-2.18,16A78.9,78.9,0,0,1,167.58,179a63.06,63.06,0,0,1-8.19,13.22c-.78,1.05-1.66,1.93-2.49,2.88s-1.78,1.8-2.68,2.69a53.37,53.37,0,0,1-5.94,4.76,49.15,49.15,0,0,1-23.42,8.86c.12.08.22.15.24.24,0,.37-.69.84-2,1.15,9.36-.31,19-4,27.31-9.87,11-8.68,18.54-21.71,22.23-36.31a97.18,97.18,0,0,0,2.93-22.82c.06-7.91-.66-16.28-1.46-25.2-1-12.2-2.1-24.65-.5-37.36a77.26,77.26,0,0,1,4.7-18.73A69.43,69.43,0,0,1,188,45.69a75.57,75.57,0,0,1,17.24-16.91,73.6,73.6,0,0,1,21.66-10.6,72.1,72.1,0,0,1,24.12-3,78.63,78.63,0,0,1,23.67,4.93,13.4,13.4,0,0,1,2.83,1.25c.38.28-.27,0-1.49-.39a81,81,0,0,0-16.13-4.19c-1.39-.17-2.77-.43-4.18-.53l-4.22-.3a80.51,80.51,0,0,0-8.5.19,69.51,69.51,0,0,0-16.75,3.34,77.66,77.66,0,0,0-15.48,7.16c3.29-1.49,5.38-2,5.32-1.51,0,.27-.58.82-1.57,1.58-.5.38-1.1.81-1.8,1.28s-1.43,1.07-2.27,1.67c2.09-1.37,4.34-2.47,6.55-3.64,2.29-1,4.54-2.1,6.92-2.88A24.15,24.15,0,0,1,227.62,22c1-.2,1.56-.26,1.55-.13,0,.29-2.32,1-5,2.06-2.4.79-4.67,1.9-7,2.92-2.22,1.18-4.47,2.31-6.58,3.7l-1.6,1c-.53.34-1,.73-1.55,1.09-1,.74-2.05,1.45-3,2.23l-2.91,2.42c-1,.8-1.84,1.73-2.77,2.58a65.23,65.23,0,0,0-9.62,11.7,61,61,0,0,0-6.69,13.69A75.07,75.07,0,0,0,179,83.05a122.88,122.88,0,0,0,.12,17.7c.86,11.64,2.67,22.94,3.44,34.17a30.9,30.9,0,0,1,.81-6.63h0c-.33-3.51-.72-7-1.11-10.52-1-8-2.12-16.17-2.38-24.5a99.86,99.86,0,0,1,.32-12.57c.25-2.11.43-4.22.87-6.32.21-1,.35-2.1.61-3.14l.8-3.12a29,29,0,0,1,1-3.09c.36-1,.68-2,1.08-3.06l1.3-3c.22-.49.42-1,.67-1.48l.77-1.43c.51-.95,1-1.91,1.55-2.85l1.75-2.73.89-1.36,1-1.3,2-2.59,2.14-2.44,1.08-1.22,1.15-1.14,2.31-2.28,2.47-2.12,1.23-1c.42-.34.87-.65,1.3-1l2.62-1.93c.89-.61,1.82-1.18,2.73-1.77s1.83-1.17,2.79-1.67l2.87-1.56c1-.49,2-.91,3-1.37,1.95-1,4-1.64,6.07-2.42a66.9,66.9,0,0,1,12.77-3,69.89,69.89,0,0,1,26,1.59A78,78,0,0,1,307.81,50.3a8.9,8.9,0,0,1,1.38,2.12,7.79,7.79,0,0,1-1.49-1.71,76.94,76.94,0,0,0-53.24-30.23h.08c.84.14,1,.27.05.26a30.27,30.27,0,0,1-3.27-.28c-1-.13-.88-.23-.08-.26a65.94,65.94,0,0,0-28.75,4.85,73.45,73.45,0,0,0-12.86,6.87,72,72,0,0,0-11.13,9.34c-.88.83-1.62,1.79-2.44,2.69l-1.19,1.36c-.4.46-.74,1-1.11,1.44-.73,1-1.48,1.92-2.17,2.91l-2,3.06c-.69,1-1.19,2.11-1.78,3.16a30.59,30.59,0,0,0-1.62,3.24l-1.45,3.33-1.18,3.43a68.84,68.84,0,0,0-2.86,14A96.4,96.4,0,0,0,180.35,94a103.71,103.71,0,0,1,.46-13c.29-2.17.5-4.35,1-6.5.23-1.08.37-2.17.68-3.23l.86-3.19a58.46,58.46,0,0,1,5.15-12.2A63.64,63.64,0,0,1,192,50.2c.62-.91,1.33-1.75,2-2.64A31.81,31.81,0,0,1,196.07,45l2.2-2.46c.77-.79,1.58-1.54,2.36-2.31l1.19-1.14c.4-.37.84-.71,1.26-1.07l2.52-2.12L208.27,34l1.33-1,1.4-.88,2.79-1.73,2.91-1.55c.49-.25,1-.52,1.46-.76l1.5-.67c1-.44,2-.91,3-1.32,2.07-.72,4.1-1.58,6.23-2.11a64.58,64.58,0,0,1,12.93-2.38,66,66,0,0,1,11.52-.33,14.08,14.08,0,0,1,2.85.41c.28.13-.5.1-1.58,0l-3.21-.19c6.64.42,11.49,2.19,11.26,2.64-.48.45-6-.48-12.65-.73a67.7,67.7,0,0,0-13.34.94,69.48,69.48,0,0,0-12.82,3.73,68,68,0,0,0-22.15,14.56c-1.4,1.33-2.6,2.83-3.86,4.28a28,28,0,0,0-1.71,2.34c-.54.79-1.11,1.57-1.63,2.38a66.84,66.84,0,0,1,32.59-23.91c12.92-4.51,27.15-4.16,40-.15.56.16,1.09.32,1.58.48s.91.37,1.27.53c.73.33,1.17.58,1.16.67s-.46,0-1.18-.17c-.37-.1-.8-.23-1.27-.38l-1.57-.43a63.14,63.14,0,0,0-64.4,17.56,59.43,59.43,0,0,0-9.92,14.23,57,57,0,0,0-5.17,16.46c-1.85,11.54-.71,23.56.74,35.7,1.38,7.94,2.94,16,3.91,24.41a120.88,120.88,0,0,1,.89,12.89,108.91,108.91,0,0,1-.58,13.22c.17-1.11.38-2.22.52-3.34s.27-2.24.4-3.37a117.65,117.65,0,0,0,.09-21c-.52-6.73-1.42-13.17-2.29-19.41-1.75-12.45-3.41-24.26-2.39-35.65a58.08,58.08,0,0,1,3.77-16.42A55.42,55.42,0,0,1,201.38,49a61.78,61.78,0,0,1,29.27-19.71,9.15,9.15,0,0,1,2.36-.53c.15.05-.62.39-1.81.74A61.45,61.45,0,0,0,202.71,48.2a56.57,56.57,0,0,0-8.85,14.08l-.78,1.92a18.84,18.84,0,0,0-.73,1.94c-.39,1.34-.87,2.62-1.2,4s-.66,2.73-.91,4.13-.47,2.81-.63,4.24a86.23,86.23,0,0,0-.35,14.38c.23,4.81.78,9.63,1.44,14.48,1.29,9.68,3.08,19.44,4,29.59-.65-10.4-2.27-20.18-3.41-29.63-.59-4.73-1.06-9.36-1.27-13.92-.15-2.29-.12-4.53-.15-6.79s.14-4.46.41-6.63A56,56,0,0,1,193,67.27a50.92,50.92,0,0,1,5.59-11.65,58.81,58.81,0,0,1,8.34-10.22,65.49,65.49,0,0,1,10.57-8.25,31.68,31.68,0,0,1,3.69-1.91,2,2,0,0,1,.73-.52,53.71,53.71,0,0,1,13.44-5.38,11.09,11.09,0,0,1,2.66-.45C238.48,28.92,237.91,29,236.88,29.35ZM24.15,22.55,24,22.36l.58.31.9,1.31S24.8,23.27,24.15,22.55Zm-8.63,6.3h0L15,28.14C15.19,28.44,15.37,28.66,15.52,28.85ZM118.93,156.7c2.55-4.59,5.21-9.29,7.76-14.36,1.3-2.47,2.51-5.14,3.73-7.78.61-1.31,1.15-2.75,1.72-4.12s1.15-2.76,1.63-4.25l1.49-4.39c.44-1.52.84-3.06,1.25-4.6.19-.77.41-1.53.59-2.32l.44-2.41c.28-1.61.63-3.2.82-4.84a76.67,76.67,0,0,0-.13-20.24,74.14,74.14,0,0,1,.87,19.81,37.44,37.44,0,0,1-.57,3.72l-.68,3.68c-.53,2.4-1.22,4.71-1.85,7.06s-1.53,4.47-2.34,6.66-1.74,4.24-2.67,6.27A231.54,231.54,0,0,1,118.93,156.7ZM17,18.09a11.47,11.47,0,0,1,2.57,2.24,5.24,5.24,0,0,1,1.76-.39,33,33,0,0,1,4.88.07c-.25-.47.13-.44.32-.51l.59-.17c-1.72-.19-3.47-.49-5.23-.68C20.29,18.47,18.56,18.42,17,18.09ZM5.7,22l-.18-.15L5.67,21Zm-.21,1.33.26.05C5.72,23.63,5.63,23.55,5.49,23.29Zm2.33.46a1.46,1.46,0,0,0-.38-.33Zm5.79,21.06,0-3.77-.12,3.64Z"/><path d="M88,89.78v.52c-.3,0-.52-.17-.69-.5.49,4.7,5.17,6.23,9,5.63a1.74,1.74,0,0,0,2.65-.34,2.35,2.35,0,0,0,0-3,3.16,3.16,0,0,1-.23-.78,20.37,20.37,0,0,0-1.27-6.66l.13,1.61a4.4,4.4,0,0,0-.81-1.65l-.25.67a3.78,3.78,0,0,0-1.64-2.78,3.41,3.41,0,0,0-3.13-.23,6.14,6.14,0,0,0-3.87,6.28Z"/><path d="M86.42,97.87a36.1,36.1,0,0,1-1.14-4.38l.1-.49-1.13,1.52.09-.08a7.42,7.42,0,0,1,5.06,1l.61.17a1.43,1.43,0,0,0,1-.44,1.8,1.8,0,0,0,.27-2.26l-.54-.72c-1-2.23-3.18-4.6-6.14-3a6.69,6.69,0,0,0-1.64,2,2.31,2.31,0,0,0-.22,3.13,1.92,1.92,0,0,0,2.88-.18c.08.2.16.4.25.59-.21,0-.4,0-.6,0,.9-.63,1.81-.18,2.71-.14l1,.5,1.29-2.7-.65-.08c-.05.13-.1.33-.11.33a13.1,13.1,0,0,1-3.72-.59L84,91.86a1.54,1.54,0,0,0-1.15,1.5l.09,1v-.5c.37.79.79,1.55,1.22,2.31s.9,1.48,1.29,2.27a.47.47,0,0,0,.68.23A.62.62,0,0,0,86.42,97.87Z"/><path d="M82,94.44c-.05-.34-.07-.69-.37-.9l-.27.07,0,.73C81.45,94.86,81.76,94.77,82,94.44Z"/><path d="M81.37,93.61l0-.3-.07.31h0Z"/><path d="M162.18,126.17a112,112,0,0,0,24.19,1.4c.27,0,.49-.12.49-.24s-.23-.2-.48-.17a111.53,111.53,0,0,1-24.08-1.47c-.26,0-.49,0-.53.16S161.94,126.12,162.18,126.17Z"/><path d="M225.82,128.65c-.16.15-.11.24.12.22a1.26,1.26,0,0,0,.66-.29c.14-.13.08-.24-.11-.22A1.32,1.32,0,0,0,225.82,128.65Z"/><path d="M227.05,136.64a30.19,30.19,0,0,0-3.13,2,1.46,1.46,0,0,1-.57.23c.13.13,0,.37-.46.6-8.13,4.77-17.68,8.41-27.36,11.36a1,1,0,0,1-.34.53,6.33,6.33,0,0,1-3.39,1.32l-1.1.1c-4.42.55-8.84.94-13.26,1.09a13.07,13.07,0,0,1-3.07.71,106.3,106.3,0,0,1-11.68,2.32c.25.15.39.32.39.52-.09.45-1,.81-2.12.8l-1.65.05,4.72.3a4,4,0,0,1,.62,0c1.73-.07,3.48-.16,5.25-.3A116.15,116.15,0,0,0,192,154a144.31,144.31,0,0,0,20.09-7.65,1.4,1.4,0,0,1,.76-.2c.15,0,.17.17-.06.3-2,1.11-3.86,2.27-5.77,3.41s-3.84,2.23-5.83,3.31-4.05,2.12-6.25,3.09c-1.1.48-2.23.95-3.4,1.41s-2.37.91-3.64,1.29l-4.51,1.42-4.58,1.25c-1.53.43-3.07.78-4.63,1.13s-3.12.73-4.7,1a156.12,156.12,0,0,1-19.5,2.53c-6.94-.22-13.66-.56-20.48-1.08a204.91,204.91,0,0,1-20.87-2.79,148.71,148.71,0,0,1-15.59-3.93,134.17,134.17,0,0,1-24.47-9.77,9.59,9.59,0,0,1-4.75-4,5.72,5.72,0,0,1-.25-5.19,6.41,6.41,0,0,1,5.32-3.33l-.87-.59-1.18-1.24a5.86,5.86,0,0,1-1.67-4.1l0-1.88c.48-3.19,0-6.51,1-9.63l.93-.74v-.43a5.51,5.51,0,0,1,.62-3.53l1-1a14.2,14.2,0,0,1,3.89-2.69,4.94,4.94,0,0,1,1.26-1.2,7,7,0,0,1,2.59-3.85,1,1,0,0,1,1-1,.94.94,0,0,1,.49.15h0c.09-.41.11-.53.18-1-.17-.31-.26-.51-.26-.51-.51-.78-.51-.78-.93-1.47a4.53,4.53,0,0,1,0-1.61c1.1-2.41,1.11-2.41,1.89-3.17.1-.06.21-.1.31-.15-.18-.65-.19-.7-.23-.89a2.33,2.33,0,0,1,.08-.49c.37-.47.37-.47.43-.69a2.92,2.92,0,0,1,.28-.36c.65-.29.65-.29.78-.42a1.6,1.6,0,0,1,.34-.13l.61.15-.42,1.68.46-.28-.31.65.33-.56,0,.57,0-.74c.53.81.53.81.82,1a1.23,1.23,0,0,0,.61.44,2.44,2.44,0,0,1,.19-.28l1.13,1.7a3.29,3.29,0,0,1-.08.47.42.42,0,0,1,.5.13l.31.42H85l0,0,.51,0h.11l2.16.19a7,7,0,0,1,.47.78,2.43,2.43,0,0,1,0-.38c0-.27.43-.61.4-.71a18.71,18.71,0,0,0-1.62-3.19c-.31-.5-.63-1-1-1.46l-.91-1.5a.83.83,0,0,1-.13-1.12.76.76,0,0,1,1.05-.29,10.72,10.72,0,0,1,1.82.42,11.36,11.36,0,0,1,1.71.65,12.94,12.94,0,0,1,3,2,20.41,20.41,0,0,1,4.54,6c.81,1,1.64,1.91,2.53,2.78v-.33l.56.89.08.07-.09-1.23L100,102a14.74,14.74,0,0,1-2.57-3.47l-1.07-1.91c-.34-.65-.67-1.3-1-1.93a26.9,26.9,0,0,1-1.67-4.36.82.82,0,0,1,.12-1,.55.55,0,0,1,.86,0,19.08,19.08,0,0,1,8.22,10.93,3.86,3.86,0,0,1,1.41,2.09l0,0v-1c.39.54.35,1.29.69,1.84.11-.35.23-.71.35-1.06a44.87,44.87,0,0,0,3.61,3.12,14.2,14.2,0,0,1,3.33,3.49,2,2,0,0,1,.26.24,7.76,7.76,0,0,1,4.84.94c-.65-.47-1.3-1-1.91-1.44a21.45,21.45,0,0,1,4.83,1.79c.54.29,1.08.61,1.61,1s1.09.65,1.62,1a37,37,0,0,1,3.05,2.31,18.53,18.53,0,0,1,4.45,5,129.93,129.93,0,0,0,14.25,3.9,118.05,118.05,0,0,0,14.6,2.12c.51,0,1,.25,1,.52s-.31.46-.83.44a96.58,96.58,0,0,1-21.43-2.54,91.33,91.33,0,0,0,18,4.82L159,129a17.59,17.59,0,0,1,2.38.38,98.76,98.76,0,0,0,24.11-.09,126.35,126.35,0,0,0,19.88-4.5c4.73-1.49,9.19-3.08,13.56-4.83s8.71-3.55,13.22-5.48c1.17-.57,2.43-.78,2.79-.45s-.31,1.08-1.49,1.69a150.12,150.12,0,0,1-14,6.62c-2.37,1-4.82,1.87-7.24,2.79s-4.91,1.68-7.43,2.34a109.66,109.66,0,0,1-15.39,3.32,94.54,94.54,0,0,1-16,1l-3.48-.09-3.43-.23a.6.6,0,0,1,.05.26,1.14,1.14,0,0,1-.59.91l3.93.34,4,.26c7.35-.74,14.59-1.91,22.42-2.8l4-.45c1.3-.13,2.59-.25,3.86-.43l3.81-.43,3.78-.58a169.17,169.17,0,0,0,17.85-7.23.9.9,0,0,1,.61-.16c.13,0,0,.19-.18.32-1.91,1.18-3.94,2.18-6,3.27s-4.14,2-6.29,2.92c.81.07,1.37.32,1.47.75s-.29,1-1,1.56l1.53-.48,1.51-.55c.63-.21,1.18-.23,1.24,0s-.35.59-.94.8c-1,.4-2.07.76-3.11,1.09l-3.13,1c-2.1.65-4.21,1.22-6.32,1.81a149.27,149.27,0,0,1-15.25,4,3.32,3.32,0,0,1,1.73,1h0l2.41-.48a243.53,243.53,0,0,0,42.35-16.91c.27-.14.52-.19.58-.11s-.12.26-.37.37c-4.15,2.11-8.3,4.19-12.55,6h0c.2,0,.28.07.12.22a1.61,1.61,0,0,1-.67.29c-.22,0-.25-.09-.12-.22a243.16,243.16,0,0,1-24,9.1,203.89,203.89,0,0,0,22.58-7.13L228,128.4a1,1,0,0,1,.64-.13c.1,0,0,.21-.23.33l-.63.37c1.39-.55,2.62-.63,2.82-.15s-.88,1.42-2.33,2c-3.82,1.79-7.73,3.33-11.7,4.73-.42.19-.84.37-1.26.53l-1.23.67a162.13,162.13,0,0,0,18.54-6.5c.5-.26,1-.34,1.09-.18s-.25.51-.76.77a155.45,155.45,0,0,1-15.81,7.6,153.32,153.32,0,0,1-16.88,5.65l-5.51,2.64c-1.87.86-3.78,1.67-5.72,2.52l1.53-.25a79.77,79.77,0,0,0,17.89-5.62c5.57-2.34,10.89-5,16.56-7.62.28-.14.56-.16.63-.09s-.09.25-.39.37c-2.74,1.38-5.4,2.61-8,4s-5.34,2.58-8.22,3.71c-4.74,2-9.37,3.57-13.93,5.3,9.56-2.29,18.24-6.08,27-10a2.64,2.64,0,0,1,1.07-.3c0-.06.07-.13.17-.21a37,37,0,0,1,3.29-2.07,1,1,0,0,1,.69-.18C227.39,136.33,227.29,136.48,227.05,136.64ZM90.39,109.26V109l.2.55-.18,1.5Zm-9.58-.88h0c.09-.5.15-.86.15-.86Zm63.31,18.44a51.38,51.38,0,0,1-12.37-4.63c1,.28,2,.61,3.05.83,1.53.63,3,1.32,4.61,2Zm-55.19-25a13.19,13.19,0,0,1,0,3.14,3.54,3.54,0,0,1,1.28.76,34,34,0,0,1,3,2.76c.12-.49.34-.26.5-.22l.46.2c-1-1.1-1.89-2.22-2.81-3.38A23.93,23.93,0,0,1,88.93,101.81Zm-8.45-4.74,0-.22.66-.39Zm-1.1.69.08.21C79.23,98.13,79.25,98,79.38,97.76Zm.78,1.94a1.54,1.54,0,0,0,0-.48ZM67.75,117.42,70.68,115l-2.9,2.22Z"/><path d="M125.58,263.43l0,.26c-.16,0-.3-.09-.43-.25.64,2.36,3.21,3.23,5.43,3.08a1.1,1.1,0,0,0,1.5-1.61,1.43,1.43,0,0,1-.17-.41,8.55,8.55,0,0,0-1.17-3.5l.21.84a2.63,2.63,0,0,0-.63-.88l-.1.34a2.54,2.54,0,1,0-4.84,1.52Z"/><path d="M125.14,267.51c-.31-.73-.57-1.47-.83-2.22l0-.25-.53.76,0,0a4.48,4.48,0,0,1,2.85.54l.35.1a.77.77,0,0,0,.54-.2.82.82,0,0,0,.06-1.15l-.35-.37c-.65-1.18-2.17-2.39-3.68-1.57-.35.19-.52.64-.75,1a1.1,1.1,0,0,0,.08,1.57,1.12,1.12,0,0,0,1.58-.09l.17.3-.33,0c.47-.32,1-.07,1.49,0l.59.27.6-1.35-.38-.05c0,.06,0,.16,0,.17a11.68,11.68,0,0,1-2.13-.34l-1-.11a.69.69,0,0,0-.54.76l.11.47,0-.25c.49.8,1.11,1.51,1.58,2.32a.29.29,0,0,0,.38.12A.29.29,0,0,0,125.14,267.51Z"/><path d="M122.58,265.77a.67.67,0,0,0-.26-.45l-.14,0c0,.09,0,.23.07.36S122.46,265.94,122.58,265.77Z"/><path d="M122.18,265.36l0-.16,0,.16h.05Z"/><path d="M147.29,281.48a38.38,38.38,0,0,0,2.89,3.08s.1,0,.16-.07.07-.14,0-.17a42,42,0,0,1-2.87-3.08s-.1,0-.16.06S147.26,281.45,147.29,281.48Z"/><path d="M150.07,294.83a.25.25,0,0,0-.14.18c0,.06,0,.1.1.07a.34.34,0,0,0,.13-.18C150.17,294.83,150.12,294.8,150.07,294.83Z"/><path d="M145.56,300.16a1.76,1.76,0,0,0-.74.07s-.07,0-.07-.06a.45.45,0,0,1-.28.21,15.18,15.18,0,0,1-4.83-.84,1.13,1.13,0,0,1-.26.23c-.3.22-.57.25-.7.06l-.07-.16c-.38-.56-.78-1.08-1.15-1.65a.82.82,0,0,1-.54,0,13.68,13.68,0,0,1-2-.08,1.33,1.33,0,0,1-.17.3c-.2.24-.44.34-.56.24l-.19-.13c.13.2.26.4.38.6a.15.15,0,0,1,0,.1,5.39,5.39,0,0,0,.6.43,15.19,15.19,0,0,0,6.66,1.63s.09,0,.07.09a.3.3,0,0,1-.15.16c-2,.44-4.09,1.37-5.85,1.28a30.2,30.2,0,0,1-5.95-.79c-1.46-1.13-3.27-1.59-5.09-2.31a17.91,17.91,0,0,1-1.77-.8,2.56,2.56,0,0,1-.26-.14l-.38-.24-.76-.5-1.5-1c-2-1.37-3.91-2.79-5.85-4.26a3.32,3.32,0,0,1,1.36-6.17l-.34-.29-.42-.61a2.86,2.86,0,0,1-.48-2l.08-.91c.37-1.55.28-3.17.78-4.7l.45-.37v-.21a2.85,2.85,0,0,1,.32-1.72l.45-.52a7,7,0,0,1,1.88-1.38,2.32,2.32,0,0,1,.61-.6,3.45,3.45,0,0,1,1.24-1.92.48.48,0,0,1,.46-.5.44.44,0,0,1,.26.07h0a3.35,3.35,0,0,0,.07-.5,2.6,2.6,0,0,1-.15-.25l-.53-.71a2.33,2.33,0,0,1-.08-.8c.47-1.21.47-1.21.84-1.59l.15-.08c-.13-.32-.14-.35-.17-.44a1.17,1.17,0,0,1,0-.25c.17-.24.17-.24.19-.35l.12-.18c.33-.15.33-.15.39-.22l.17-.06.34.07-.12.85.23-.15-.13.33.15-.28,0,.28,0-.37c.33.4.33.4.5.52a.83.83,0,0,0,.36.22,1.11,1.11,0,0,1,.08-.15c.36.43.36.43.69.86a.88.88,0,0,1,0,.24.24.24,0,0,1,.27.07l.19.21h.07l0,0,.27,0h.06l1.19.12a2.63,2.63,0,0,1,.28.4l0-.2c0-.13.22-.3.2-.35a17.54,17.54,0,0,0-2.2-3.14.41.41,0,0,1,.41-.71,9,9,0,0,1,6.55,4.95c.45.53.91,1.05,1.39,1.57v-.17l.3.49,0,0v-.64c0-.1-.09-.2-.13-.29a27.06,27.06,0,0,1-2.71-4,22.42,22.42,0,0,1-1.15-2.3.36.36,0,0,1,0-.52.36.36,0,0,1,.51,0c2.28,1.32,4.44,3.4,5,6a2.11,2.11,0,0,1,.76,1.17v0l0-.52c.21.3.15.69.32,1l.26-.53c1.17,1.36,2.77,2.4,3.55,4l.12.16a8.7,8.7,0,0,1,2,.46l-.23-.41a1.38,1.38,0,0,1,1,.28,3.12,3.12,0,0,1,.38,3.37,49.57,49.57,0,0,0,4.53,2.64c.08,0,.07.18,0,.32s-.24.23-.33.2a16.84,16.84,0,0,1-3.68-1.38,15.24,15.24,0,0,0,2.13,2.46l.37.19a.65.65,0,0,1,.27.32,13.17,13.17,0,0,0,3.43,2.26,32.09,32.09,0,0,0,3.52,1.1,12.3,12.3,0,0,1,4.76,1.8c.21.09.18.46-.07.82s-.61.58-.82.48c-3.56-1.06-7.24-1.86-10-4.24l-.86-.78-.1.15a1.91,1.91,0,0,1-.47.44,9.58,9.58,0,0,1,.86,1,6.52,6.52,0,0,1,3.41,1.71,8.92,8.92,0,0,1,1.29,2.47c1,.43,2,.79,3,1.26,0,0,.06.06,0,.14a.22.22,0,0,1-.16.13,13.17,13.17,0,0,1-2.56-.34,2.41,2.41,0,0,1-.47.91,2.26,2.26,0,0,1-.81.65l.39.33c.07.08,0,.25-.08.4s-.29.24-.37.18l-1.59-1.35c-.8-.34-1.57-.7-2.32-1.08a3.16,3.16,0,0,1-.4.9h0l.32.21a13.92,13.92,0,0,1,6.62,3.23s0,.11,0,.18-.13.11-.16.08a11.37,11.37,0,0,0-1.75-1.33h0a.26.26,0,0,1-.13.18c-.06,0-.1,0-.09-.06a.25.25,0,0,1,.13-.18,14.65,14.65,0,0,0-3.87-1.62,17.1,17.1,0,0,1,2.92,2.3l.53,0s.05.08,0,.15-.12.13-.16.12h-.14c.16.17.07.58-.22.95s-.7.55-.88.39c-.57-.33-1.11-.69-1.64-1.07l-.22-.06-.31.05c.69.77,1.34,1.57,2,2.38.07,0,0,.2-.05.33s-.25.21-.32.16a28.23,28.23,0,0,1-5.11-2.14l-2.75.64c.06.05.11.11.17.15,1.54,1.2,4.12.58,5.88,1.4.05,0,0,.09,0,.16s-.13.12-.17.09a16.71,16.71,0,0,0-3-.46,15.19,15.19,0,0,0-2.55-.28c1.26.73,2.91.86,4.28,1.42.07,0,.1.08.07.17a.46.46,0,0,1,.1-.07,2.79,2.79,0,0,1,.79-.08c.05,0,.07.05,0,.14A.23.23,0,0,1,145.56,300.16Zm-18.28-26.78v-.13l.09.29-.15.75Zm-5-.65h0c0-.25.08-.43.08-.43Zm21,8.75a4.6,4.6,0,0,1-1.41-1.86l.5.24A15.78,15.78,0,0,1,143.37,281.48Zm-16.78-11.93a6,6,0,0,1,0,1.59,2.27,2.27,0,0,1,.68.42,18.3,18.3,0,0,1,1.53,1.52c.07-.25.19-.12.27-.09l.25.11c-.49-.59-1-1.2-1.44-1.83A15.51,15.51,0,0,1,126.59,269.55Zm-4.69-2.46V267l.33-.2Zm-.55.35.06.1C121.29,267.63,121.3,267.57,121.35,267.44Zm.5,1a1.05,1.05,0,0,0,0-.24Zm-6,8.83,1.41-1.19-1.39,1.11Z"/><path d="M257.15,34.9l.62-.07c0,.37-.36.68-.81,1a12.82,12.82,0,0,0,6.9-4.51,20.61,20.61,0,0,0,3.72-7c1.29-.86,1.84-2.32,1.19-3.3s-2.26-1.07-3.65-.2a4.9,4.9,0,0,1-1.1.3,24.33,24.33,0,0,0-9.32,2.18l2.18-.41a9.47,9.47,0,0,0-2.6,1.35l.74.25c-3.54.86-6.37,4.17-6.08,7.21s3.36,4.61,6.68,3.65Z"/><path d="M266.23,36.14c-1.79.57-3.59,1.08-5.42,1.62l-.54-.06,1.49,1.2-.07-.1c-.11-2.13,1.26-4.31,2.7-6.16l.43-.75a1.43,1.43,0,0,0-.13-1.19,1.84,1.84,0,0,0-2.59-.26l-1.08.73c-3.12,1.3-6.81,4.76-5.49,8.11.31.76,1.28,1.14,2,1.65a2.67,2.67,0,0,0,3.63-.18,2.46,2.46,0,0,0,.47-3.46l.75-.35c0,.24-.07.48-.1.72-.51-1,.31-2.15.66-3.25l.93-1.25-2.75-1.43-.33.82.36.1a35.13,35.13,0,0,1-1.87,4.66l-.69,2.2a1.27,1.27,0,0,0,1.52,1.19l1.13-.23-.58,0c2-1.06,3.87-2.35,5.89-3.28a.72.72,0,0,0,.47-.79A.57.57,0,0,0,266.23,36.14Z"/><path d="M261.2,41.58a1.7,1.7,0,0,0-1.12.56l0,.3.84-.14C261.57,42.19,261.53,41.83,261.2,41.58Z"/><path d="M260.12,42.44l-.36.06.34,0,0,0Z"/><path d="M444.19,166.06a105.74,105.74,0,0,1,7,21.56,123.83,123.83,0,0,1,2.63,21.68,111.43,111.43,0,0,1-1.44,22.25,86.11,86.11,0,0,1-7.21,22.9l-.67,1.43-.8,1.42-1.63,2.84-.83,1.4-.91,1.34c-.62.89-1.21,1.78-1.86,2.65a69.17,69.17,0,0,1-8.89,9.74,63.28,63.28,0,0,1-23.12,13.26,66,66,0,0,1-13,2.73c-1.09.1-2.19.2-3.28.28l-3.29.09c-2.13,0-4.22-.07-6.27-.24a94.61,94.61,0,0,1-22.49-4.83,12.15,12.15,0,0,0-3.48-.9c-.14.1,1.18.74,2.87,1.3a96.54,96.54,0,0,0,22.53,5c1,.08,2.07.16,3.11.22l3.17.08c2.19,0,4.42-.09,6.62-.32a67.18,67.18,0,0,0,13.09-2.62,63.8,63.8,0,0,0,23.42-13.13,66,66,0,0,0,9.05-9.74c.7-.86,1.29-1.75,1.91-2.64s1.26-1.77,1.79-2.73l1.65-2.85c.53-.95,1.13-1.91,1.55-2.87a85.06,85.06,0,0,0,7.43-23A111.93,111.93,0,0,0,454.45,210,123.71,123.71,0,0,0,452,188.2a106.56,106.56,0,0,0-6.85-21.64A18.27,18.27,0,0,0,443,162.8C442.75,162.78,443.32,164.22,444.19,166.06Z"/><path d="M161.69,211.31c1.06-.33,1-.46-.16-.3a20.89,20.89,0,0,0-3.77.88c-.88.34-.8.48.17.28C159.06,211.94,160.8,211.61,161.69,211.31Z"/><path d="M170,199.24l2.59-.53,2.59-.38,5.06-.75,4.91-.47,2.37-.23,2.32-.12a31,31,0,0,1,3.38.05c-.41-.21,1-.49,3.59-.37l4.85.18,4.87.44c1.63.11,3.24.41,4.87.64l2.44.36c.85.15,1.78.38,2.66.57,3.44.81,6.39,1.68,9.45,2.58s6,1.83,9,2.77c11.95,3.8,23.87,7.9,35.83,12.16s23.94,8.66,35.9,13.21,23.93,9.17,35.8,13.94a6.68,6.68,0,0,1,2.23.28,63.18,63.18,0,0,1,7.27,2.32c2.88,1.08,6,2.36,9.15,3.65,1.56.67,3.09,1.31,4.61,1.91,2.31.87,4.59,1.66,6.81,2.32s4.4,1.17,6.51,1.57a42.33,42.33,0,0,0,6.16.68c1,.06,1.93,0,2.87,0s1.85-.12,2.77-.27A29,29,0,0,0,409.64,245c.45-.64.82-1.41,1.26-2.14s.74-1.56,1.17-2.35a22.54,22.54,0,0,0,1.14-2.6l.59-1.37c.16-.5.33-1,.5-1.52,4-13.89,2.68-31.86-2.63-46.71.15,1,.1,1.62-.15,1.69-.29-.08-.85-.92-1.47-2.23-.31-.65-.62-1.44-1-2.22s-.72-1.74-1.12-2.57-.78-1.71-1.22-2.49-.83-1.59-1.31-2.3c.35.5.58,1.13.89,1.68a19,19,0,0,1,.85,1.75l.8,1.82.74,2,.37,1c.12.35.22.71.33,1.06l.64,2.13c.38,1.46.75,2.93,1.08,4.42.17.87.31,1.69.42,2.42A87.63,87.63,0,0,1,413.18,217c-.35,7.43-1.73,14.55-4.21,19.89a13.49,13.49,0,0,1-1,1.9,17.43,17.43,0,0,1-1,1.83l-.58.89c-.19.3-.41.56-.61.84s-.4.57-.62.83l-.65.78a29.83,29.83,0,0,1-2.8,2.82,26.23,26.23,0,0,1-3.15,2.27,26.93,26.93,0,0,1-3.46,1.79c-.62.21-1.21.51-1.86.68l-.94.31-1,.24a28.24,28.24,0,0,1-8.42.75,53.51,53.51,0,0,1-10.05-1.57c-3.56-.9-7.29-2.07-11.16-3.47s-7.78-3-12.09-4.69-8.42-3.34-12.63-5c-8.4-3.3-16.82-6.43-25.21-9.53s-16.79-6.13-25.19-9.1-16.82-5.85-25.24-8.7a26.48,26.48,0,0,1-3.76-1.46c-.6-.35-.42-.47.83-.09l31.4,9.63c10.26,3.23,20.44,6.42,30.76,9.79s20.78,6.94,31.64,10.87c2.78,1,5.3,1.91,7.85,2.79s5,1.67,7.43,2.37a66.9,66.9,0,0,0,13.42,2.77c.61.07,1.18.09,1.75.1s1.12,0,1.67,0,1.05-.06,1.57-.08.92-.12,1.39-.15a19.83,19.83,0,0,0,5-1.4,19.41,19.41,0,0,0,7.63-5.89c.24-.35.52-.65.76-1s.48-.73.72-1.1.44-.79.68-1.17.34-.81.54-1.2A22.57,22.57,0,0,0,403.7,233a11.17,11.17,0,0,0,.48-1.48c.14-.52.3-1,.47-1.53a60.11,60.11,0,0,0,1.55-14.94,78.4,78.4,0,0,0-2-16.37,67.84,67.84,0,0,0-2.28-7.61l-.66-1.77-.73-1.63-.35-.82-.37-.68-.71-1.38c-.53-.79-1-1.68-1.5-2.35a25.38,25.38,0,0,0-1.5-2.06,12.05,12.05,0,0,1-.79-.95c-.28-.31-.59-.6-.86-.92s-.63-.61-.93-.94a12.05,12.05,0,0,0-1-.94c-.19-.16-.37-.33-.54-.5s-.42-.32-.62-.49c-.43-.33-.8-.68-1.31-1s-.91-.71-1.46-1.07l-1.64-1.1c-2.29-1.5-5.09-3.08-8.22-4.84l-1.22-.71-1.29-.74-1.28-.75-1-.63-2-1.25-2.06-1.2c-2.78-1.53-5.62-3-8.59-4.34a103,103,0,0,0-19.43-6.46c-1.79-.42-3.61-.82-5.53-1.21l-6-1.14c-2.08-.39-4.35-.85-6.84-1.41-.66-.15-1.24-.28-1.94-.47l-1.06-.28-.61-.16-.15,0s-.09-.13-.14-.19a.54.54,0,0,0-.06-.11l-.08,0-.17-.05c-.86-.27-1.73-.52-2.58-.81s-1.66-.68-2.46-1.06-1.54-.88-2.35-1.25l-1.2-.55a3,3,0,0,1-.59-.3l-.5-.44-1-.89c-.33-.3-.61-.64-.92-.95a17.82,17.82,0,0,1-1.67-2c-.52-.72-1.1-1.33-1.65-2L304,136a1.55,1.55,0,0,1-.14-.29l-.28-.6-.55-1.19c-.33-.81-.6-1.64-.9-2.46a12.06,12.06,0,0,1-.4-1.25l-.18-.63c0-.21-.05-.45-.08-.67-.11-.92-.21-1.83-.28-2.73l-.12-1.35a8.74,8.74,0,0,1-.06-1.36l.13-2.79a4.05,4.05,0,0,1,.28-1.39l.42-1.39c.59-1.87,1-3.64,1.48-5.45,0-.24.39-.38.42-.59l.24-.59.2-.49.18-.43c.25-.58.49-1.14.76-1.68a58.63,58.63,0,0,1,7.65-12c.72-.92,1.57-1.81,2.37-2.71s1.71-1.75,2.7-2.61A31,31,0,0,1,321,88.87a26.14,26.14,0,0,1,3.58-2.16l.94-.5,1-.41,2-.8c.68-.27,1.38-.39,2.06-.59a21.09,21.09,0,0,1,2.06-.49,39.93,39.93,0,0,1,4-.55c.61-.05,1.29-.14,1.86-.16l1.74-.11,1.62-.1c.5,0,1.08-.08,1.53-.13a23.41,23.41,0,0,0,2.59-.39,7.19,7.19,0,0,0,1.09-.28l.9-.34a2.82,2.82,0,0,0,.69-.43c.19-.16.45-.24.56-.43a3.53,3.53,0,0,0,.63-1l.2-.47.17-.59c.11-.27.24-.84.37-1.25s.26-1,.41-1.46A58.41,58.41,0,0,0,352.44,69a21.49,21.49,0,0,0-.08-7.14,10.27,10.27,0,0,0-.9-2.62,8.31,8.31,0,0,0-1.29-1.72,13.69,13.69,0,0,0-2.28-1.79,25.85,25.85,0,0,0-3.18-1.74A40.82,40.82,0,0,0,335.58,51a22.77,22.77,0,0,0-4.79-.55,14.41,14.41,0,0,0-3.08.56,21.92,21.92,0,0,0-2.79,1.2A31.79,31.79,0,0,0,322,54c-.25.15-.52.38-.78.55a9.31,9.31,0,0,0-.79.58l-.8.61a.7.7,0,0,0-.13.13l-.37.37c-.24.25-.48.48-.73.75l-.74.76-.75.81c-1,1.08-2.05,2.17-3.12,3.38s-2.14,2.44-3.22,3.79c-1.31,2.32-4.45,2.44-7.17.11a7.91,7.91,0,0,1-2.73-5.42l-.52.52-1.06.57a4.57,4.57,0,0,1-3.54.23l-1.64-.43c-2.8-1.17-5.86-1.39-8.81-2.7l-.71-1-.41,0a6,6,0,0,1-3.37-1l-1-1a13.5,13.5,0,0,1-2.55-4,4.85,4.85,0,0,1-1.12-1.36,6.74,6.74,0,0,1-3.73-2.84.94.94,0,0,1-.94-1,1,1,0,0,1,.22-.53h0a8.37,8.37,0,0,0-1-.2c-.36.19-.59.29-.59.29l-1.68,1.06a5.61,5.61,0,0,1-1.76.12c-2.53-1.05-2.55-1-3.3-1.86,0-.11-.09-.22-.12-.33l-1,.36a2.93,2.93,0,0,1-.56,0c-.48-.36-.48-.36-.73-.41a2.21,2.21,0,0,1-.37-.27c-.24-.72-.23-.72-.37-.85a2,2,0,0,1-.1-.37l.27-.74,1.88.28-.25-.51.69.3-.58-.33.66-.11-.84,0A5.56,5.56,0,0,0,263,41.16a2.09,2.09,0,0,0,.62-.76,1.85,1.85,0,0,1-.28-.2c1.1-.74,1.11-.74,2.21-1.43l.52.08a.57.57,0,0,1,.27-.57l.56-.37,0-.16,0,0c.08-.23.14-.39.2-.58l0-.13h0c.14-.4.33-1,.89-2.52a9.29,9.29,0,0,1,1-.53l-.44,0c-.3,0-.54-.53-.66-.49A38.58,38.58,0,0,0,259.75,38a1.1,1.1,0,0,1-1.36.32.82.82,0,0,1-.08-1.26c2.2-6.44,8.75-11.3,15.56-13.37,1.59-.79,3.16-1.61,4.77-2.39l-.37-.08,1.38-.42.14-.07-1.44-.19-.78.17c-3.65,1.95-7.6,3-11.4,4.72-2,.93-4.11,1.4-6.18,2.21a.89.89,0,0,1-1.22-.05.86.86,0,0,1,.37-1.13,34.78,34.78,0,0,1,8.5-6.45,24.25,24.25,0,0,1,10-3,7.55,7.55,0,0,1,3.51-1.12l.06,0-1.13-.25c.93-.33,1.76,0,2.66-.25l-.88-.72c1.12-.45,2.24-.95,3.39-1.44s2.27-1,3.44-1.45a24.2,24.2,0,0,1,7.17-1.79c.18,0,.35-.08.52-.11a20.69,20.69,0,0,1,2.46-1.92c.22-.15.45-.29.68-.43l.09-.05,0,0h0l.08,0c.54-.2,1.12-.37,1.68-.56,1.13-.36,2.24-.73,3.44-1a66.31,66.31,0,0,1,15.32-2.38,67.65,67.65,0,0,0-10.87,1.06c-1.78.29-3.48.69-5.2,1.1-.87.19-1.68.45-2.53.68l-1.27.35-.62.19-.26.08h0l0,0,.29-.11c.21-.09.44-.15.66-.23L301.72,6c.9-.29,1.78-.59,2.71-.83l2.77-.75,2.85-.61A64.47,64.47,0,0,1,322,2.56a58.64,58.64,0,0,1,12.46,1.11,63.34,63.34,0,0,1,6.18,1.53c2,.69,4.09,1.38,5.83,2.16A78.12,78.12,0,0,1,360,15a68,68,0,0,1,12.2,10.76,51.21,51.21,0,0,1,9.23,14.77,42.94,42.94,0,0,1,3.07,16.9,46.85,46.85,0,0,1-2.64,14.39A48.09,48.09,0,0,1,376.36,83,41.52,41.52,0,0,1,369,91.34c-.64.59-1.38,1.12-2,1.63s-1.47,1-2.17,1.43a21.43,21.43,0,0,1-2.11,1.23c-.76.36-1.48.69-2.18,1l-.94.45-1,.35c-.68.23-1.35.45-2,.65a20.69,20.69,0,0,1-2.05.42c-.67.09-1.36.25-2,.28a28.58,28.58,0,0,1-3.8,0c-.59,0-1.21,0-1.77-.11l-1.63-.2c-.56-.06-1.06-.13-1.54-.21l-1.48-.23c-.88-.13-1.85-.29-2.65-.36l-1.23-.12c-.41,0-.76,0-1.14,0a14.11,14.11,0,0,0-2.11.12c-2.66.3-4.67,1.76-6.65,3.84a30.69,30.69,0,0,0-5,7.91c-.36.72-.62,1.49-.93,2.22s-.53,1.51-.74,2.26a21.56,21.56,0,0,0-.56,2.24c0,.09,0,.21-.06.27l-.05.15a2,2,0,0,0-.06.27l-.13.49a6.62,6.62,0,0,0,.14,4,3,3,0,0,0,1.38,1.42,3.58,3.58,0,0,0,.94.36,2.92,2.92,0,0,0,.49.12,2.18,2.18,0,0,0,.6.07c1.29,0,2.84-.13,4.54-.32l5.35-.61a182.18,182.18,0,0,1,24.25-1.76,119.44,119.44,0,0,1,12.89.76c2.17.24,4.33.56,6.49.91s4.31.81,6.44,1.32,4.26,1.07,6.39,1.66c1.88.52,3.68,1,5.63,1.63a122.65,122.65,0,0,1,12.16,4.38,76.14,76.14,0,0,1,13,7.09,68.67,68.67,0,0,1,12.08,10.57,49.65,49.65,0,0,1,3.66,4.76,13.88,13.88,0,0,1,1.5,2.85c0,.28-.47-.15-1.25-1.08q-.6-.7-1.41-1.74l-1.93-2.29a66.47,66.47,0,0,0-8.11-8.07c-1.47-1.18-3-2.33-4.48-3.39s-3.06-2.08-4.61-2.93l-2.32-1.33-2.32-1.17c-1.55-.81-3.06-1.42-4.58-2.11-3-1.24-6-2.35-8.81-3.24l-2.12-.69-2.07-.61c-1.39-.42-2.68-.78-4-1.16l-4.49-1.23-4.59-1a115.78,115.78,0,0,0-18.5-2.37,142.13,142.13,0,0,0-18.06.35c-5.82.46-11.48,1.23-16.43,1.67-.63.06-1.23.11-1.8.14s-1.13.06-1.66.08h-.77a3.4,3.4,0,0,1-.6,0,8.45,8.45,0,0,1-.84-.19,3.91,3.91,0,0,1-2.71-2,4.06,4.06,0,0,1-.43-1.69,3.07,3.07,0,0,1-.08-.86,6.33,6.33,0,0,1,0-.87,10.23,10.23,0,0,1,.31-1.74c.07-.32.12-.48.26-1a16.81,16.81,0,0,1,.42-1.66,14.1,14.1,0,0,0-.37,1.38c-.1.53-.24.8-.27,1a11.91,11.91,0,0,0-.34,1.46,9.3,9.3,0,0,0-.16,1.49V120l.06.37c0,.11,0,.25,0,.38a2.5,2.5,0,0,0,.06.38,3.88,3.88,0,0,0,1.51,2.54,4.37,4.37,0,0,0,.65.4c.24.08.46.22.71.29a4.64,4.64,0,0,0,.73.2l.37.1c.15,0,.26,0,.48,0,1.66,0,3.7-.07,5.84-.24l6.74-.58c4.66-.43,9.59-.77,14.6-.86a117.18,117.18,0,0,1,30.8,3.41c1.28.34,2.57.64,3.83,1l3.77,1.15c2.24.7,4.52,1.45,6.89,2.26a102.31,102.31,0,0,1,14.87,6.38,66.43,66.43,0,0,1,15.29,10.89,57.81,57.81,0,0,1,11.3,15.22c1,1.71,1.74,3.44,2.6,5.17s1.43,3.4,2.13,5.11,1.2,3.4,1.78,5.1,1,3.39,1.49,5.09a116.77,116.77,0,0,1,3.52,20.47c1.09,13.71.21,27.78-4.9,42.15-.33.9-.62,1.79-1,2.68l-1.19,2.68c-.4.9-.79,1.79-1.22,2.67L440,257.07l-1.51,2.63-1.67,2.49c-.55.83-1.15,1.64-1.78,2.44s-1.22,1.61-1.89,2.38a64.12,64.12,0,0,1-8.86,8.64,60.44,60.44,0,0,1-10.57,6.76,62.23,62.23,0,0,1-24.18,6.47l-3.13.12-3,0c-2-.08-4-.2-5.94-.42a92.86,92.86,0,0,1-11.29-2,131.84,131.84,0,0,1-17-5.45c-5.17-2-10.05-4.18-14.47-6.07-9-3.9-18-7.57-26.93-11.32s-17.92-7.4-27.07-11.06-18.4-7.41-28-11.15l-19.95-7.72c-3.28-1.22-6.53-2.45-9.78-3.67l-4.82-1.76-4.69-1.64-2.19-.71c-.68-.22-1.57-.54-2-.62l-.73-.22a4.91,4.91,0,0,0-.83-.23l-2.13-.45-2.13-.46-2.15-.34c-1.43-.21-2.86-.49-4.3-.59s-2.88-.34-4.33-.41l-4.35-.18c-1.45,0-2.91,0-4.37,0l-2.2,0-2.2.17a117.78,117.78,0,0,0-17.74,2.56l-4.46,1.12c-1.48.38-3,.71-4.46,1.22l-4.47,1.4c-.74.25-1.5.44-2.24.72l-2.22.84c-3,1.13-6,2.13-8.93,3.5s-6,2.49-8.9,4c-6,2.76-11.83,6-17.79,9.39-3.1,1.89-6.15,3.65-8.58,4.92a24.42,24.42,0,0,1-4.61,2.3c-.51.06.29-.73,2-2.07.42-.33.89-.71,1.43-1.09l1.76-1.18c1.27-.84,2.71-1.77,4.27-2.75a225.34,225.34,0,0,1,37.59-19.22,144.39,144.39,0,0,1,19.45-6.13,122.85,122.85,0,0,1,19.6-2.9,103.25,103.25,0,0,1,19.36.81c1.59.26,3.2.42,4.77.8l2.37.49c.38.08.82.16,1.15.24l.88.27.88.24,1.18.38,2.38.77,5,1.75c6.83,2.45,13.77,5.09,20.69,7.76s13.89,5.39,20.84,8.16c13.89,5.57,27.82,11.2,41.73,17l20.87,8.81,10.43,4.49L344.45,276a141.24,141.24,0,0,0,24.38,8.34,81,81,0,0,0,14.19,2c1.24,0,2.48.06,3.74.06s2.59-.06,3.87-.18a59.58,59.58,0,0,0,22.51-6.29,58.1,58.1,0,0,0,12.95-9,61.45,61.45,0,0,0,10-11.91c.71-1.07,1.32-2.22,2-3.34a37.37,37.37,0,0,0,1.81-3.41,64.43,64.43,0,0,0,2.9-6.93,89.24,89.24,0,0,0,4.9-23.82,114.12,114.12,0,0,0-.72-23c-.08.21-.16.4-.27.42-.47.06-1-1.33-1.75-3.65a109.58,109.58,0,0,1,1.1,25.76,86.83,86.83,0,0,1-6,26.31l-2,4.57c-.69,1.52-1.57,3-2.38,4.51s-1.79,2.89-2.7,4.32-2,2.77-3.12,4.08a59.79,59.79,0,0,1-7.34,7.42,56.86,56.86,0,0,1-28.68,12.73,63.94,63.94,0,0,1-10.46.58,78.67,78.67,0,0,1-10-1c-12.94-2.19-24-7-34.19-11.55q-15-6.64-30.32-13.49l-40.68-18.2c-13.16-5.88-26.1-11.59-39.17-17.09-4.2-1.57-8.4-3.08-12.53-4.49-1.05-.38-2-.66-3-1l-1.49-.48-1.25-.35c-.43-.11-.78-.24-1.27-.34l-1.51-.31-3-.61a101.82,101.82,0,0,0-24.5-1.29c-2.06.2-4.13.34-6.19.57l-6.19.93c-4.1.84-8.23,1.65-12.3,2.87l-3.08.84c-1,.29-2,.67-3,1-2,.7-4.06,1.34-6.08,2.08-4,1.66-8.06,3.09-12,5a20.19,20.19,0,0,1-3.1,1.27c-.51.11.13-.3,1.4-.92a153.34,153.34,0,0,1,33.78-12.38c1.46-.32,2.91-.73,4.38-1l4.43-.74c.74-.11,1.47-.26,2.21-.36l2.23-.22,4.46-.46a115.89,115.89,0,0,1,17.87.27c-3.7-.79-5.93-1.59-5.6-2.13.17-.32,1-.51,2.37-.66.69-.06,1.51-.11,2.45-.14.47,0,1,0,1.49,0l1.65.1c-.69-.1-1.38-.24-2.07-.3l-2.09-.21c-1.39-.11-2.78-.31-4.18-.36-2.79-.08-5.59-.29-8.4-.15-1.73.05-3.29,0-4.4,0s-1.78-.07-1.75-.23.73-.36,1.84-.56a36.87,36.87,0,0,1,4.31-.29c2.89-.16,5.78,0,8.66.12,1.44.08,2.87.26,4.31.38l2.15.2,2.14.33c1.42.23,2.85.39,4.26.68l4.22.88c.71.15,1.31.36,2,.53l1,.27,1,.34c1.38.46,2.75.87,4.16,1.39,11.19,3.93,22.41,8.37,33.57,12.8q40.44,15.48,80.33,32.39c-3.49-2.05-6-3.77-7-4.95,0,0,0,0,0,0l-12.36-5.23Q284.78,237.94,255.76,227c-9.67-3.62-19.37-7.25-29.11-10.68L223,215l-3.65-1.22c-1.22-.42-2.43-.8-3.63-1.16l-1.8-.57-1.7-.45c-1.09-.33-2.37-.53-3.59-.77s-2.44-.52-3.68-.67c-2.48-.32-4.94-.74-7.44-.88a113.26,113.26,0,0,0-30,1.54,148.12,148.12,0,0,0-29.19,8.76L134.76,221l-1.78.74-1.74.84-7,3.33c-2.29,1.18-4.54,2.45-6.83,3.67L114,231.46l-3.33,2-6.66,4-6.5,4.34c-4.39,2.8-8.52,6-12.77,9.06a14.13,14.13,0,0,1-2.54,1.66,10.2,10.2,0,0,1,2.08-1.74L92,245.22c1.26-1,2.6-1.79,3.9-2.68l3.92-2.63,3.92-2.63,4-2.45,4-2.44,2-1.23,2.06-1.12a183.8,183.8,0,0,1,34-15.21l-.1,0c-1,.25-1.18.18-.18-.27a20.22,20.22,0,0,1,3.72-1.11c1.13-.23,1.06-.06.19.27a126.37,126.37,0,0,1,33.69-5.36,108.55,108.55,0,0,1,16.91,1.14c.7.1,1.4.17,2.09.3l2.08.4,2.08.4c.35.07.71.12,1,.2l1,.26c.65.18,1.27.32,1.95.53l2,.63c1.35.41,2.72.87,4.1,1.33,11,3.68,21.93,7.78,32.82,11.84s21.73,8.23,32.52,12.39c-19.91-8.08-39.91-16.05-60-23.4-2.51-.93-5-1.78-7.54-2.66l-3.76-1.21c-.62-.19-1.21-.33-1.82-.51s-1.2-.34-1.85-.46l-3.85-.78c-1.27-.28-2.58-.4-3.87-.62-2.58-.44-5.19-.62-7.8-.86a115.35,115.35,0,0,0-31.32,2.16l-3.34.87c-1.11.3-2.23.54-3.32.93l-6.62,2.14a27.67,27.67,0,0,1-3.31,1c-.37,0,.47-.41,1.69-.88s2.45-.82,3.68-1.24c-7.67,2.26-13.63,4.11-13.74,3.5.08-.4,1.66-1.43,4.29-2.55,1.31-.58,2.86-1.23,4.59-1.91l1.32-.51,1.41-.45,3-.88a125.47,125.47,0,0,1,33.4-5.44c1.41-.07,2.83,0,4.24,0s2.83,0,4.24.15l4.23.33c1.41.08,2.8.36,4.21.52,2.81.32,5.57.95,8.35,1.46,2.76.69,5.45,1.55,8.13,2.44,2.33.74,4.66,1.48,7,2.27s4.71,1.42,7.05,2.16c-2.05-.79-4.1-1.56-6.17-2.31s-4.12-1.51-6.2-2.23-4.17-1.42-6.27-2.1c-1.06-.32-2.15-.6-3.23-.9l-3.25-.67a109.22,109.22,0,0,0-26.39-2,131.06,131.06,0,0,0-26.14,3.95l-6.35,1.83-1.59.45-1.55.55-3.11,1.1c-4.19,1.36-8.19,3.18-12.25,4.86-1.4.57-2.63,1.21-3.59,1.59s-1.58.6-1.66.51,1.92-1.48,4.68-2.74l5.31-2.41,2.67-1.2c.9-.38,1.81-.71,2.72-1.06l5.47-2.11c1.83-.69,3.73-1.21,5.59-1.83,3.71-1.29,7.56-2.13,11.38-3.1,1.92-.44,3.87-.75,5.81-1.12,1-.18,1.95-.38,2.92-.53l3-.36c3.92-.57,7.9-.76,11.88-.95l6,0c2,.06,4,.23,6,.35a114,114,0,0,1,11.91,1.63c1,.14,2,.41,3,.66l1.53.39,1.43.43,2.87.85,2.8.9C238.42,210.65,253,216,267.6,221.52s29.12,11.2,43.61,17q14.63,5,29.25,10.17c4.88,1.73,9.85,3.55,14.56,5.18A142.48,142.48,0,0,0,369.08,258c-2.26-.72-4.57-1.54-6.9-2.4-3.71-1.39-7.43-2.93-11.18-4.53l-11.46-4.83c-7.61-3.13-15.13-6.16-22.61-9-14.95-5.77-29.64-11.18-44.36-16.35s-29.37-10.24-44.48-15c-3.78-1.2-7.6-2.36-11.61-3.46l-3.24-.76-3.08-.51c-1-.16-2-.36-3.08-.5l-3.12-.35a121.14,121.14,0,0,0-25.26-.07,13.9,13.9,0,0,1-3.34.16c-.2-.11.94-.36,2.66-.56a122.59,122.59,0,0,1,24.66-.27l3,.33c1,.1,2,.21,3,.39l3,.48,1.5.24c.51.09,1.06.24,1.58.35,4.25,1,7.8,2.13,11.58,3.25,14.8,4.61,29.29,9.53,44.33,14.89,12.46,4.43,24.57,8.87,36.44,13.29s23.51,8.81,35,13.2c-11.59-4.89-23.14-9.51-34.68-14s-23-8.77-34.58-12.94-23.1-8.29-34.83-12.21c-5.86-2-11.73-3.9-17.88-5.73-1.56-.45-3.05-.9-4.89-1.32l-1.32-.31c-.44-.11-.82-.15-1.24-.23l-2.44-.41-2.44-.41-2.46-.29c-1.64-.17-3.27-.42-4.92-.51-2.31-.1-4.62-.35-6.09-.56a4.58,4.58,0,0,1-1.31.17l-5,.2c-1.71.11-3.44.3-5.2.45l-2.64.24-2.65.39c-1.77.27-3.56.5-5.35.79a22,22,0,0,1-3.83.54C167.68,199.85,168.49,199.58,170,199.24ZM280.22,32.85,280,32.8l.67-.09,1.47.53Zm-4,10h0l-.87-.24Zm55.06,82c-1.55.12-3.1.25-4.5.29a14.57,14.57,0,0,1-3.5-.11,6.65,6.65,0,0,1-2.18-.87,4,4,0,0,1-1.47-1.8,8.24,8.24,0,0,1-.21-4.64,10.92,10.92,0,0,1,.27-1.13c.06-.19.08-.37.17-.61s.16-.64.24-1c.17-.67.4-1.34.6-2l.73-2a37.21,37.21,0,0,1,4.1-7.49,18.27,18.27,0,0,1,5.49-5.38,12.08,12.08,0,0,1,7.1-1.45c2.79.14,6,.93,10,1.2-3.9-.22-7.05-.94-9.79-1.08a12.14,12.14,0,0,0-6.91,1.31,13,13,0,0,0-2.19,1.6l-1.05.93-1,1.09a33.25,33.25,0,0,0-3.56,5.24,36.36,36.36,0,0,0-2.62,5.89c-.32,1-.66,2-.87,3-.13.42-.18.63-.26.92a7.58,7.58,0,0,0-.21.82,9.41,9.41,0,0,0-.17,3.43,4.24,4.24,0,0,0,1.68,3,5.29,5.29,0,0,0,1.57.75,7.59,7.59,0,0,0,.85.24,4,4,0,0,0,.48.08l.67,0C326.67,125.19,328.94,125.06,331.31,124.9ZM271.55,33.37a12.11,12.11,0,0,1,3.47.32,5.38,5.38,0,0,1,1.32-1.33,40.88,40.88,0,0,1,4.33-2.69c-.47-.23-.11-.42,0-.59l.44-.45-5,2.4C274.62,31.77,273.11,32.75,271.55,33.37Zm-7.63,9.72h-.24l-.33-.73Zm.59,1.21.25-.11C264.91,44.44,264.78,44.43,264.51,44.3Zm2.29-1a1.73,1.73,0,0,0-.52,0Zm17.09,13.62-2.21-3.08,2.06,3Z"/></g></g></svg>