<svg xmlns="http://www.w3.org/2000/svg" viewBox="0 0 323.35 430.98"><g id="Layer_2" data-name="Layer 2"><g id="Layer_1-2" data-name="Layer 1"><path d="M7.3,42.83l.59,0a1.28,1.28,0,0,1-.86.8,10.52,10.52,0,0,0,6.84-3.4,16.18,16.18,0,0,0,3.92-6.41A2.47,2.47,0,0,0,19,30.67,2.39,2.39,0,0,0,15.67,30a3.86,3.86,0,0,1-1,.14,22.13,22.13,0,0,0-8.7.8l2-.07a7.19,7.19,0,0,0-2.48.94l.66.35C2.89,32.55.05,35.34,0,38.3s2.63,5,5.84,4.65Z"/><path d="M15.68,45.41c-1.73.31-3.47.55-5.24.79l-.51-.15,1.28,1.41-.05-.11c.13-2.09,1.61-4,3.09-5.68l.47-.66a1.45,1.45,0,0,0,0-1.19,1.77,1.77,0,0,0-2.41-.66c-.36.18-.71.39-1.06.58-3,.87-6.74,3.62-5.93,7,.2.79,1.06,1.32,1.69,1.93a2.51,2.51,0,0,0,3.44.44,2.38,2.38,0,0,0,.82-3.29l.74-.24c-.05.23-.11.46-.17.7-.36-1.1.52-2.07.93-3.11l1-1.11-2.44-1.8-.37.76.32.15a26.6,26.6,0,0,1-2.18,4.29l-.9,2a1.3,1.3,0,0,0,1.3,1.39l1.09,0-.55,0c2-.71,3.92-1.67,5.9-2.31a.67.67,0,0,0,.5-.73A.54.54,0,0,0,15.68,45.41Z"/><path d="M10.37,50a1.58,1.58,0,0,0-1.13.35v.3h.82C10.65,50.62,10.65,50.27,10.37,50Z"/><path d="M9.24,50.62H8.89l.32.11s0,0,0,0Z"/><path d="M161.16.78c1.13.11,2.26.18,3.37.32l3.35.43,6.69.86,6.65,1.1,3.31.55,3.29.67,6.57,1.34,6.51,1.58,3.25.78c1.08.28,2.14.6,3.22.89l6.41,1.81c.58.15,1.08.22,1.13.11s-.35-.35-.89-.49L207.6,8.91,204.38,8l-3.24-.79-6.51-1.59-6.56-1.35-3.29-.68L181.47,3l-6.64-1.11c-2.23-.32-4.46-.58-6.69-.87s-4.47-.6-6.73-.76a1.87,1.87,0,0,0-1.2.15C160.18.59,160.6.73,161.16.78Z"/><path d="M280.86,50.91c-.39-.13-.43,0-.1.23a4.74,4.74,0,0,0,1.21.68c.33.11.38,0,.1-.23A4.47,4.47,0,0,0,280.86,50.91Z"/><path d="M273.87,56.12c-1.06-.47-2.08-.94-3.08-1.35s-2-.75-2.93-1.06a4.78,4.78,0,0,1-1-.48c0,.21-.42.15-1.19-.15A321.52,321.52,0,0,0,217.29,38a1.6,1.6,0,0,1-.82.26,17,17,0,0,1-6-.76L208.76,37c-1.78-.5-3.59-.88-5.38-1.33s-3.58-.9-5.39-1.25l-5.42-1.09-2.7-.55-2.72-.46A40.76,40.76,0,0,1,182,32.1c-3.19,0-6.39.11-9.58.14l-9.6.45c.39.17.62.36.61.56s-.49.42-1.09.56a10.39,10.39,0,0,1-2.26.25l-2.6,0c2.48.11,5,.13,7.43.4a9.07,9.07,0,0,1,1,.11c2.73.12,5.49.12,8.3.34A288,288,0,0,1,244.93,47a3.75,3.75,0,0,1,1.22.54c.18.17.09.27-.33.15-14.65-3.64-27.75-4.7-44-6.31a221.13,221.13,0,0,0-57.21,1.86A147.75,147.75,0,0,0,116.29,49,167.19,167.19,0,0,0,89.72,59.7c-1.5.67-2.91,1.52-4.35,2.26l-4.28,2.28L77,66.69c-1.36.82-2.75,1.56-4,2.46l-1,.65-.49.32-.18.13-.63.47-1.27.93c-.84.61-1.71,1.17-2.51,1.83-1.63,1.26-3.26,2.48-4.92,3.67s-3.19,2.52-4.81,3.76a5,5,0,0,1-4,1.47,6.57,6.57,0,0,1-4.22-2.21A7.45,7.45,0,0,1,47,74.38l-.65.46-1.25.43a5.16,5.16,0,0,1-3.8-.3l-1.65-.68c-2.72-1.59-5.74-2.19-8.48-4l-.55-1-.4-.11A6,6,0,0,1,27,67.73l-.83-1.15a13.48,13.48,0,0,1-1.88-4.36,4.72,4.72,0,0,1-.9-1.5,6.82,6.82,0,0,1-3.23-3.36.94.94,0,0,1-.77-1.16,1,1,0,0,1,.27-.49h0a7.83,7.83,0,0,0-1-.36c-.37.13-.6.19-.6.19-.93.42-.93.42-1.76.76a5,5,0,0,1-1.71-.17c-2.28-1.44-2.29-1.43-2.89-2.35a2.05,2.05,0,0,1-.07-.34l-1,.17a3,3,0,0,1-.53-.13c-.41-.43-.41-.43-.64-.52a2.25,2.25,0,0,1-.31-.32c-.13-.73-.12-.73-.24-.88a2.1,2.1,0,0,1,0-.38l.36-.66L11,51.3l-.17-.53.62.4-.51-.41h.63l-.79-.09a4.81,4.81,0,0,0,1.4-.82,1.94,1.94,0,0,0,.68-.63,1.89,1.89,0,0,1-.25-.24c1.13-.56,1.13-.56,2.24-1.07l.48.16a.55.55,0,0,1,.32-.52l.56-.29a1.42,1.42,0,0,0,.05-.16l0,0,.24-.56,0-.12h0c.16-.38.39-1,1.08-2.35a6.26,6.26,0,0,1,1-.35l-.42-.06c-.28-.05-.46-.59-.58-.58-.72.14-1.43.32-2.13.53s-1.36.51-2,.8c-1.34.58-2.66,1.23-4,1.85a1,1,0,0,1-1.31.09.82.82,0,0,1,.06-1.23c2.7-6,9.14-9.76,15.48-11,1.51-.58,3-1.19,4.47-1.81l-.34-.11,1.28-.28.12-.05-1.33-.36c-.24,0-.47.05-.71.09a29.17,29.17,0,0,1-5.29,1.71c-1.8.47-3.61,1-5.41,1.54s-3.91.8-5.9,1.27a.85.85,0,0,1-1.14-.24.81.81,0,0,1,.43-1A36.12,36.12,0,0,1,18,29.55a20.91,20.91,0,0,1,9.17-1.75,5.66,5.66,0,0,1,3.13-.8h0l-1-.36c.82-.26,1.58.14,2.39,0-.27-.27-.56-.55-.83-.83,2-.66,3.93-1.57,5.88-2.37a30.57,30.57,0,0,1,3-1.05,13.65,13.65,0,0,1,3.06-.48,3.34,3.34,0,0,1,.43-.1,23.49,23.49,0,0,1,1.76-2l.49-.46.15-.11L46,19l.87-.49a40.58,40.58,0,0,1,3.73-1.88c-.93.3-1.83.66-2.73,1l-2.65,1s.17-.12.27-.18l.33-.2.68-.4,1.36-.8c.91-.54,1.85-1,2.81-1.48,1.91-.92,3.89-1.79,6-2.61C68.05,8.67,81.57,6.5,88.32,7.67a245.25,245.25,0,0,1,33.55-6.19A270.74,270.74,0,0,1,155.77.06a4.19,4.19,0,0,1,2.41.56c.11.27-.66.48-1.82.45a264,264,0,0,0-48.55,4.61,288.56,288.56,0,0,1,41.22-2c1.77,0,3.55-.07,5.34,0s3.5.22,5.24.42c17.69,1,34.15,4,51.53,8l2.77.64,2.7.71,5.31,1.42c1.76.45,3.47,1,5.18,1.51L232.22,18c3.4,1.07,6.75,2.28,10.17,3.44s6.81,2.57,10.34,3.93a280.28,280.28,0,0,1,27.92,13.11,245.82,245.82,0,0,1,25.84,16.33c2.25,1.62,4.13,3.43,4.13,4s-1.84-.29-4.09-1.89a313.68,313.68,0,0,0-27.75-16.68,320.17,320.17,0,0,0-29.49-13.57,301.15,301.15,0,0,0-31.18-10.51,317.34,317.34,0,0,0-33-7.39c-2.43-.44-4.87-.72-7.28-1.09l-3.62-.52c-1.21-.15-2.42-.26-3.63-.39a.46.46,0,0,1,.1.28c0,.35-.51.64-1.3.85l4.1.45c1.36.19,2.72.42,4.08.63l4.09.66,2,.34,2,.42a189.56,189.56,0,0,1,45.67,10.7A234.45,234.45,0,0,1,260,34.55a283,283,0,0,1,34.41,18.3,3.34,3.34,0,0,1,1,.79c.11.18-.18.1-.63-.16l-6-3.27-3-1.65L282.73,47l-6.13-3.16-6.27-3c1.15,1,1.72,1.75,1.41,2.09s-1.5.21-3.15-.33l5.52,3c1.13.61,1.94,1.26,1.79,1.45s-1.12-.14-2.2-.71c-3.75-2-7.47-4-11.31-5.84-1.91-.91-3.79-1.9-5.73-2.76l-5.8-2.61A297.06,297.06,0,0,0,222,25.2a7.06,7.06,0,0,1,2.44,2.12h0l4.49,1.38c27.69,7.64,54.5,21.06,78.43,38.55.47.34.82.67.77.76s-.45-.11-.88-.42C303.58,65,300,62.38,296.2,60c-1.88-1.2-3.71-2.48-5.63-3.61l-5.73-3.44,0,0c.28.24.28.37-.1.23a5.4,5.4,0,0,1-1.19-.72c-.32-.28-.23-.35.09-.24a245.16,245.16,0,0,0-44.88-20.11,257.22,257.22,0,0,1,40.77,19.23c1.48.7,3,1.35,4.47,2.12a3.49,3.49,0,0,1,1,.75c.07.14-.27.06-.68-.16l-1.22-.63c2.41,1.51,4.06,3,3.75,3.43s-2.7-.52-5.21-2c-6.9-3.75-13.81-7.43-20.92-10.69l-2.34-1L256,42.32A290.76,290.76,0,0,1,287.69,59.9c.89.52,1.57,1.1,1.49,1.26s-.87-.12-1.77-.64a295.22,295.22,0,0,0-28.58-14,286.65,286.65,0,0,0-30-11c-3.48-.62-7-1.09-10.47-1.63-3.53-.37-7-.81-10.6-1.1.87.19,1.74.42,2.61.64,11.11,2.62,21.43,5.17,31.57,8.26a196.48,196.48,0,0,1,30.21,11.69,2.13,2.13,0,0,1,.9.66c0,.12-.38,0-.88-.25a223.32,223.32,0,0,0-29.7-11.39l-6.34-1.94-6.28-1.65-3.09-.79-3.09-.66c-2.06-.43-4.1-.85-6.13-1.23l6.08,1.61,3,.77,3,.87,6,1.7L241.57,43l3,1,2.93,1,5.87,2.11c1.94.76,3.87,1.56,5.81,2.35l2.92,1.2c1,.41,1.91.86,2.88,1.3a7.68,7.68,0,0,1,1.7.95.76.76,0,0,1,.43.06,64.65,64.65,0,0,1,6.33,2.53,3.18,3.18,0,0,1,1.06.68C274.62,56.36,274.33,56.31,273.87,56.12Zm-244.61-12L29,44h.65l1.39.73Zm-4.67,9.44h0l-.82-.37Zm96.62-48.2-7.27.82c-1.21.11-2.42.29-3.62.46l-3.62.5c-4.84.55-9.62,1.44-14.5,2.06l6.93-1.68,2.74-.43,2.76-.33,5.52-.61c1.83-.23,3.68-.34,5.53-.45ZM21,43.47a12.59,12.59,0,0,1,3.28.8,5,5,0,0,1,1.34-1.16A27,27,0,0,1,29.87,41c-.44-.3-.09-.44,0-.59l.43-.4c-1.58.6-3.25,1.09-4.86,1.75A40.91,40.91,0,0,1,21,43.47Zm-8.22,8.41-.23-.05-.22-.76Zm.42,1.27.25-.07C13.54,53.34,13.41,53.31,13.18,53.15Zm2.3-.61a1.54,1.54,0,0,0-.49-.12Zm14.73,16L28.5,65.15l1.57,3.29Z"/><path d="M182.3,53.5l-.57-.28c.12-.18.48-.2,1-.11a10.3,10.3,0,0,0-7.08-.49,9.29,9.29,0,0,0-2.45,1.16,7.19,7.19,0,0,0-1.62,1.49c-1.15.11-1.56.73-1.14,1.3a2.45,2.45,0,0,0,1.11.73,4.32,4.32,0,0,0,1.61.29,5.94,5.94,0,0,1,.9.2c.6.24,1.18.47,1.8.69l1.94.65,2,.67c.7.22,1.4.43,2.13.67-.64-.29-1.29-.57-1.91-.82a19.86,19.86,0,0,0,2.44.62l-.59-.48c3.14,1.3,6.41,1.69,7.07.21s-1.79-4.53-5.11-5.89Z"/><path d="M174.56,48.94a24.7,24.7,0,0,1,2.56.46c.87.19,1.73.4,2.62.67l.47.28-1-1.41,0,.09c-.42,1.37-2.21,2-3.78,2.64l-.52.27a.64.64,0,0,0-.11.73A2.57,2.57,0,0,0,177,53.73l1.07,0a23,23,0,0,0,2.36.3,12.16,12.16,0,0,0,2.27,0c1.42-.18,2.46-.7,2.33-2.05-.06-.61-.84-1.41-1.37-2.13a3.85,3.85,0,0,0-3.39-1.78c-1.31.1-1.86,1-1.33,1.92l-.76-.1.27-.4c.2.85-.8,1.17-1.36,1.68l-1.06.38,2.06,1.87.46-.32a2.86,2.86,0,0,1-.29-.21A15.17,15.17,0,0,1,181,51.06l1.25-.94c.19-.47-.29-1.15-1.07-1.51l-1.1-.41.54.25a53.73,53.73,0,0,0-6.11-.32c-.32,0-.57.14-.57.37S174.23,48.91,174.56,48.94Z"/><path d="M180.43,47.52a2.13,2.13,0,0,0,1.19.2c0-.12,0-.18,0-.21l-.82-.33C180.26,46.94,180.2,47.2,180.43,47.52Z"/><path d="M181.67,47.51l.35.15-.3-.21,0,0Z"/><path d="M190.76,197.23c-1,24.83-2.15,49.81-3.7,74.78-.05.83,0,1.54.21,1.58s.34-.6.37-1.38c1.61-25,2.79-49.83,3.78-74.66a2.73,2.73,0,0,0-.3-1.64C190.93,195.86,190.78,196.45,190.76,197.23Z"/><path d="M168.1,383.46c-.06-.59-.17-.57-.26,0a10.75,10.75,0,0,0-.07,2.06c0,.5.17.48.25-.05A10.35,10.35,0,0,0,168.1,383.46Z"/><path d="M159.88,378c-.28-3.5-.59-6.82-1-9.78a9.21,9.21,0,0,1-.05-1.64c-.18.2-.38-.46-.51-1.73-2.63-24.84-4.51-51.56-6.26-77.88a2.58,2.58,0,0,1-.65-1.12,29.21,29.21,0,0,1-1.11-9.27l.11-2.86c.18-11.55.39-23.07.8-34.56a70.65,70.65,0,0,1-.62-8.05c-.91-9.95-1.72-19.93-2.26-30.14-.2.64-.45,1-.72,1-.63-.2-1.09-2.57-1-5.33,0-1.39.08-2.77.17-4.16-.46,4-.54,8-.8,11.95,0,.57-.06,1.11-.12,1.59-.09,4.37-.09,8.79,0,13.28.42,39.22,4,76.09,7.74,112.67a7.61,7.61,0,0,1,0,2.07c-.1.36-.27.29-.37-.38-3.49-23.07-8.22-43.05-11-69.14-1.62-15.52-3-30.95-4-46.49-.26-3.88-.52-7.77-.71-11.67l-.3-5.86c-.1-2-.23-3.92-.22-5.88A57.48,57.48,0,0,1,142.22,171c4-8.29,9-16.37,12.8-24.51,1-2.08,1.81-4,2.71-6.34l.63-1.67c.24-.64.48-1.17.68-1.63.42-.92.82-1.69,1.13-2.48a15.64,15.64,0,0,0,1.21-9.44,13.3,13.3,0,0,0-1.75-4.35c-.44-.69-.94-1.4-1.61-2.36a19,19,0,0,1-2.2-4,16.69,16.69,0,0,1-1.06-5.25,17.59,17.59,0,0,1,.57-5.16,23.57,23.57,0,0,1,4-7.76,13.46,13.46,0,0,0,1-1.58l0-.06h0s0,0,.09.06l.35.18a6,6,0,0,0,.73.32l.39.13a1.14,1.14,0,0,1,.2.08,2.79,2.79,0,0,0,.66.17l0,0c.08,0-.13,0-.21,0l-.29,0-.21,0,.1,0c.06,0,0,0-.4.18l-.3.17-.36.24c-.16.1-.31.21-.46.32l-.1.09h0a.81.81,0,0,0-.19-.3,1.72,1.72,0,0,0-.23-.26c-.41-.36-.74-.7-1.14-1-.8-.6-1.58-1.2-2.3-1.82A22,22,0,0,1,153,89.38a9.84,9.84,0,0,1-1.75-4.14,4.09,4.09,0,0,1-.14-1.21,10.2,10.2,0,0,1,0-1.24,10.38,10.38,0,0,1,.52-2.26,9.81,9.81,0,0,1,1.49-2.65c.16-.2.27-.42.46-.62l.61-.58a16.47,16.47,0,0,1,1.41-1.11,8.54,8.54,0,0,1,.8-.53,6,6,0,0,1,.87-.49c.66-.28,1.32-.56,2-.87,1.33-.56,2.84-1,4.21-1.42l2.08-.69c.42-.16.63-.25.93-.38a8.64,8.64,0,0,0,1.34-.68,1.64,1.64,0,0,0,.28-.24h0l.08.1c.18.24.46.52.58.7s.33.38.51.56l.29.26.19.2a3.94,3.94,0,0,0,.45.36c.17.12.21.17.34.25s.28.14.31.17l.2.09c.13,0,.19,0,.1,0a1.31,1.31,0,0,0-.34.11,2.25,2.25,0,0,0-.59.33,5.35,5.35,0,0,0-.87.63l-.18.18-.28.24a6.51,6.51,0,0,0-.54.51c-.17.18-.34.36-.49.55a2.28,2.28,0,0,1-.28.31c-.09.09,0,0-.06,0l-.09,0-.38-.07c-.65-.16-1.64-.4-2.72-.58-.56-.1-1.08-.2-1.75-.28l-2-.07c-.67-.05-1.37-.2-2.06-.3a76.82,76.82,0,0,1-8.85-1.95l-1.67-1a4.41,4.41,0,0,0-.43-.25l-.55-.2-1.09-.39a8.67,8.67,0,0,1-1.06-.42l-.73-.56c-.49-.38-1-.75-1.44-1.13s-.93-.76-1.36-1.15l-.44-.4-.58-.51c-.79-.69-.48-1.59-1.35-2.26l-.5-.53a2.13,2.13,0,0,1-.43-.54l-.67-1.12L136.8,61a13,13,0,0,0-.72-1.19c-.65-.8.08-1.59-.74-2.49l-.37-.66a3.58,3.58,0,0,1,0-.65l.06-.65c0-.11,0-.23-.09-.35l-.16-.37c-.17-.49-.56-1-.3-1.44l.16-.68.09-.34a1.4,1.4,0,0,0-.07-.39c-.12-.53-.26-1.06-.36-1.58l.56-1.36.14-.34a1.27,1.27,0,0,0,0-.39v-.8c0-.53-.05-1.06,0-1.6l.1-1.61,0-.41c0-.14.14-.21.2-.32l.49-.61,1-1.22a9.8,9.8,0,0,0,.56-1.46l.52-1.48,0-.1,0,0-.06-.1-.26-.42-.13-.2c0-.06,0-.08,0-.11l.08-.21.35-.8.35-.81.27-.7.54-1.32c.35-.85.73-1.73,1.11-2.56s.6-1.36.91-2a19.74,19.74,0,0,1,1-1.81,12.47,12.47,0,0,1,2.07-2.62c1.33-1.28,2.7-1.68,3.68-.95,1.19.89,1.55,3.11,1.13,5.54.22-.33.43-.66.64-1,.4-.45.81-.93,1.2-1.35,1.14-1.18,2.36-1.94,3.46-1.87h1.43c2.32.53,5.1.33,7.47,1.74l.38,1L164,28a3.72,3.72,0,0,1,2.85,1.17l.65,1.14a12.06,12.06,0,0,1,1.21,4.22,4,4,0,0,1,.66,1.41A5.67,5.67,0,0,1,172,39.19a.79.79,0,0,1,.58,1.07,1,1,0,0,1-.34.37h0c.35.19.45.24.89.44.38,0,.6,0,.6,0a17.6,17.6,0,0,1,1.84-.24,5.89,5.89,0,0,1,1.66.59c2,1.84,2.05,1.88,2.51,2.8,0,.1,0,.2,0,.29.78.17.84.2,1.07.26a3.51,3.51,0,0,1,.51.31c.34.49.34.49.55.66a3.39,3.39,0,0,1,.27.37c0,.6,0,.6.09.76a1,1,0,0,1,0,.29l-.46.33c-1.65-1.11-1.65-1.12-1.65-1.12l.08.45-.55-.52.44.49-.63-.24.78.37a4.24,4.24,0,0,0-1.54.07,1.57,1.57,0,0,0-.77.22l.21.25-2.33.07-.44-.24c0,.15-.16.26-.39.28l-.59,0-.06.09,0,0L174,48l-.06.07h0c-.2.21-.49.53-1.28,1.33-.34,0-.69,0-1,0l.38.1c.25.08.36.46.47.47,1.36.09,2.71.15,4.05.17s2.76.08,4.19.22a1.54,1.54,0,0,1,1.33.5c.31.37.17.7-.27.76a10.31,10.31,0,0,1-3.24,1.44,23.34,23.34,0,0,1-3.84.73c-2.7.32-5.46.43-8,.51-.57.08-1.14.21-1.69.33l-1.51.36.23.06c-.25,0-.61,0-.56.15v0h.2l.39.08h.47a17.82,17.82,0,0,1,3.89-.46c.76,0,1.46,0,2.24,0l2.38.11a15.58,15.58,0,0,1,2.67.37l2.77.61a1.37,1.37,0,0,1,1,.54c.14.26-.1.44-.53.4-1.25.14-2.45.16-3.77.24-.63,0-1.23,0-1.88,0l-1,0h-.88c-1.26,0-2.39-.08-3.51-.13L166.12,57a3.49,3.49,0,0,1-.37-.07c-.09,0-.28-.06-.31,0l-.11.06a1.53,1.53,0,0,1-.84.31h0l.49.08c-.18.11-.6,0-.81.14l.62.2a1.5,1.5,0,0,0-.47,1.3c0,.46.22.84.25,1.2a.35.35,0,0,1,.05.08c.35.12.68.21,1,.3l.22.06.05,0,.17.09.35.16c.46.21.92.39,1.39.59a15.29,15.29,0,0,1-1.68-.91c.65.3,1.35.56,2,.79l.24.08.13,0,.06,0,.12.08,1.95,1.29c.68.46,1.38.91,2.14,1.47a24,24,0,0,1,2.48,2l.46.44c.17.16.34.36.51.55a10.63,10.63,0,0,1,1,1.36,7.83,7.83,0,0,1,.5.93,5.38,5.38,0,0,1,.42,1.1,8.84,8.84,0,0,1,.28,1.26,8.69,8.69,0,0,1,0,1.35,7.44,7.44,0,0,1-1.79,4.33,10.13,10.13,0,0,1-2.3,2,24.39,24.39,0,0,1-3.64,1.78c-.52.21-1.22.47-1.16.46-.12,0-.23.07-.35.1a11,11,0,0,0-1.47.55,1.7,1.7,0,0,0-.62.51,1.62,1.62,0,0,1-.1.18,1.15,1.15,0,0,1,0,.19.75.75,0,0,0,.1.36,4.86,4.86,0,0,0,1,1l.28.24.14.13.07.06v0l0,0s0,0,0,0l.17.14a15.24,15.24,0,0,1,2.66,2.62,12.28,12.28,0,0,1,2,3.71,11.59,11.59,0,0,1,.48,2A18,18,0,0,1,174,95.7a12.38,12.38,0,0,1-.29,2,12,12,0,0,1-.57,1.72,11.8,11.8,0,0,1-.7,1.38c-.24.38-.48.75-.71,1.08a26.63,26.63,0,0,1-2.11,2.76c-.58.72-1.1,1.31-1.47,1.83a6.18,6.18,0,0,0-1.29,2.82,4.53,4.53,0,0,0,0,1.36,5.24,5.24,0,0,0,.63,1.7c.78,1.5,2,3.54,3,5.58a55.47,55.47,0,0,1,4.11,12.94c.44,2.23.71,4.55.95,6.72l.18,1.56c.08.53.16.84.26,1.32.2.9.44,1.79.66,2.67.5,1.91,1,3.85,1.67,5.77s1.29,3.89,2,5.84c1.39,3.88,3,7.81,4.42,11.7a99.35,99.35,0,0,1,6.27,23.36c.21,1.6,0,3-.29,3.31s-.71-.9-.89-2.5a98.86,98.86,0,0,0-3.91-16.79c-1.81-5.63-4-11.26-6-16.92-1-2.81-1.9-5.65-2.73-8.46-.4-1.39-.78-2.79-1.12-4.19l-.26-1.05-.22-1c-.15-.65-.29-1.31-.42-2-.26-1.15-.33-2.8-.51-4.39s-.37-3.23-.67-4.84a52.45,52.45,0,0,0-2.54-9.41,50.71,50.71,0,0,1,2.15,7.84,66.23,66.23,0,0,1,1,8c.05.66.08,1.28.15,1.86s.16,1.06.25,1.62c.21,1.12.4,2.15.66,3.37.51,2.37,1,4.71,1.71,7.11,2.51,9.54,5.88,19.2,7.52,28.89.5,2.48.89,5,1.19,7.46a46.22,46.22,0,0,1,.24,7.33c-.1,12.38-.44,24.44-.7,36.58s-.52,24.33-.67,37c-.25,21.6-.67,40.49-1.64,62-1.42,30.2-4,57.7-9.73,87.51a45,45,0,0,1-2.06,8.09c-.35.48,0-2.4.64-6.38,2.48-15.54,4.13-31,5.39-46.52s2.1-31,2.73-46.59c1.27-31.18,1.81-62.73,2.85-95.25.21-7,.41-13.91.62-20.77a.66.66,0,0,1-.37.17c-.48,0-.92-.67-1.28-1.77q-.39,11.69-1.06,23.53c.51,21.93.66,43.9-1,67.27-1.16,16-2.9,30.58-4.54,45.42-.77,18.82-1.79,37.58-3.59,56.58a8.8,8.8,0,0,1-.28,1.82c-.11.27-.14-.13-.09-.9.85-13.07,1.38-26.47,1.76-40-.5,2.13-1,3.4-1.54,3.22s-.9-1.83-1.14-4.36l-.46,9.19c-.11,1.9-.38,3.39-.62,3.33s-.39-1.55-.31-3.35q.74-18.76,1.49-37.47c.14-15,.2-29.92.24-44.93a10.89,10.89,0,0,1-1.85,4.32h0c0,2.32-.05,4.64-.08,6.95q.9,31.82.27,64.3t-2.9,65.28a8.24,8.24,0,0,1-.18,1.58,5.55,5.55,0,0,1,0-1.42q1.23-19.8,1.94-39.51v.06c-.09.53-.2.62-.25,0a11.91,11.91,0,0,1,.08-2.06c.09-.6.2-.55.25,0,.86-24.47,1.06-48.77.6-72.75q-.45,33.42-1.66,66.8c.05,2.43.1,4.85.15,7.32a7.69,7.69,0,0,1-.18,1.81c-.09.19-.17-.3-.17-1s0-1.36,0-2c-.16,4.21-.64,7.45-1.11,7.38-.48-.24-.83-3.86-.78-8.24q0-17.58.08-35.07l-.1-3.79c-.11-1.28-.21-2.54-.32-3.81-.38,18.15-.73,36.28-.86,54.3a7.81,7.81,0,0,1-.27,2.89,7,7,0,0,1-.33-2.77c-1.1-31.76-2.38-63.92-3.13-96.21-1.38-10.62-2.86-21.26-4.35-32.11,0,1.36,0,2.75,0,4.13.18,17.55,1.46,33.79,2.7,49.88s2.47,32.05,3.07,49a4.29,4.29,0,0,1-.13,1.67c-.11.09-.22-.49-.25-1.35-.72-16.59-2.11-31.74-3.3-48.21-1-13.64-1.92-26.61-3.15-39.29.83,25.91,3,50.77,4.4,76.43a16.89,16.89,0,0,1,0,3,1.52,1.52,0,0,1,.18.63c.41,3.21.74,6.71,1,10.29a6.74,6.74,0,0,1,0,1.9C160.08,379.21,160,378.79,159.88,378Zm2.5-329.21.2,0-.54.07-1.11-.27S161.62,48.71,162.38,48.82Zm4.86-6.88h0l.71.31Zm7.4,99.63c-.14-.8-.28-1.6-.36-2.36l-.21-2.7c-.13-1.89-.32-3.83-.64-5.73a49.36,49.36,0,0,0-3.1-11,48.19,48.19,0,0,0-2.48-5.1,13.31,13.31,0,0,1-1.74-3.74,4.31,4.31,0,0,1,0-1.35,6.13,6.13,0,0,1,.33-1.45,9.33,9.33,0,0,1,1.73-2.74,9.5,9.5,0,0,0-1.62,2.7,5.83,5.83,0,0,0-.28,2.67c0,1.12,1.69,3.53,3,6.15a49.18,49.18,0,0,1,3.09,8.12,52.17,52.17,0,0,1,1.62,8.6c.16,1.45.24,2.91.32,4.29,0,.67.07,1.38.15,1.91S174.54,141,174.64,141.57Zm-5.15-92.28a22.68,22.68,0,0,1-2.82-.73,5.26,5.26,0,0,1-1.26.7c-1.2.53-2.44,1-3.55,1.53.35.12.08.24,0,.34s-.24.18-.34.28c.62-.26,1.25-.5,1.88-.71s1.37-.42,2.06-.6,1.32-.34,2-.49A11.36,11.36,0,0,1,169.49,49.29Zm8.86-4,.22.12.1.63Zm-.2-1.08-.26,0C177.82,43.91,177.94,44,178.15,44.18ZM175.78,44a2.59,2.59,0,0,0,.46.22ZM163.86,28.73,165,31.92l-1-3.13Z"/><path d="M121.93,292.49l.43.36a1.36,1.36,0,0,1-1.11,0,11.17,11.17,0,0,0,7.14,1.77,15.92,15.92,0,0,0,6.47-1.75c1.3.25,2.46-.29,2.59-1.22s-.85-1.88-2.19-2.18a4.57,4.57,0,0,1-.85-.47,26.19,26.19,0,0,0-6.93-4.42c.52.37,1,.72,1.56,1.11a8.21,8.21,0,0,0-2.37-.86c.1.18.22.41.31.6-2.66-1.7-6.3-1.81-8-.07s-.87,4.69,1.78,6.35Z"/><path d="M126.91,298.8c-1.53-.74-3-1.55-4.5-2.41l-.3-.38.17,1.61,0-.1c1.29-1.25,3.53-1.61,5.59-1.82l.73-.16a1.14,1.14,0,0,0,.64-.75c.15-.71-.51-1.49-1.49-1.7l-1.13-.24c-2.76-1.13-7.14-1.7-8.5.93-.31.61,0,1.45.17,2.21a2.51,2.51,0,0,0,2.39,2.26c1.35.16,2.47-.56,2.52-1.61l.7.27-.53.34c.34-.89,1.57-1,2.47-1.41l1.37-.15-.86-2.46-.71.25a2.86,2.86,0,0,1,.16.28,23.85,23.85,0,0,1-4.1,1.4l-1.84.76a1.05,1.05,0,0,0,.19,1.63l.86.6-.39-.34c2,.69,4,1.14,5.87,1.81a.67.67,0,0,0,.81-.18A.47.47,0,0,0,126.91,298.8Z"/><path d="M120.19,298.73a1.76,1.76,0,0,0-1.07-.42l-.17.19.63.47C120,299.31,120.24,299.09,120.19,298.73Z"/><path d="M119,298.5l-.27-.2c.06.09.13.17.19.25s0,0,0,0Z"/><path d="M232.16,290.41c-1-.53-2-1.06-2.89-1.61-.45-.28-1-.55-1.37-.82l-.89-.83-.45-.42-.64-.42-1.28-.85c-.34-.28-.57-.56-.86-.84l-.41-.43a5.56,5.56,0,0,0-.55-.44l-1.2-.88a7.08,7.08,0,0,1-.8-.88,14.49,14.49,0,0,0-2-1.84,20.09,20.09,0,0,1-1.39-1.87c-.24-.33-.41-.63-.69-1l-1-1.05a2.68,2.68,0,0,1-.23-.26l-.15-.27-.29-.52c-.19-.35-.38-.71-.56-1.09a6.88,6.88,0,0,0-.62-1.14,12.32,12.32,0,0,1-.79-1.25l-.42-1.26-.36-1.35-.29-1.45c-.15-.55-.38-1.1-.48-1.66s0-1.09,0-1.69a11.2,11.2,0,0,0,0-1.85c0-.32,0-.65,0-1l.25-.94a18.33,18.33,0,0,1,.63-1.85,18,18,0,0,0,.52-1.91,1.11,1.11,0,0,1,.2-.44l.25-.42.51-.83c.32-.57.54-1.14.82-1.7A3.29,3.29,0,0,1,215,253l.31-.36.64-.71c.93-.92,1.38-2,2.27-2.86a34.27,34.27,0,0,0,2.83-2.4l1.3-1.24c.45-.39.92-.77,1.39-1.16s.92-.77,1.4-1.14l1.55-1a69.92,69.92,0,0,1,6.22-3.62L236,237l1.46-.74.73-.36.36-.19a3.78,3.78,0,0,1,.47-.06l1.9-.22,1-.11.48-.06.35-.16,1.42-.64.7-.33c.13,0,.22-.13.38-.13h2.48a5,5,0,0,0,1.87-.18l1.64-.48L252,233c.11-.07.34,0,.51,0l.56,0,2.25.17c.37,0,.75.06,1.12.07l1-.13,2.07-.27c.36,0,.66-.11,1.07-.12l1.18,0a45.82,45.82,0,0,1,4.9-.1l2.63.08c.87.05,1.76-.08,2.64-.1a12.37,12.37,0,0,0,3.48-.49c0-.19-1.52-.26-3.28-.14-.89,0-1.78.12-2.67.14l-2.65-.07c-.87,0-1.8-.08-2.61-.05l-2.39.12-1.19.06a9.08,9.08,0,0,0-1.12.09l-2.09.29a16.15,16.15,0,0,1-4.39,0l-1.13-.08a.9.9,0,0,0-.48.05l-.41.13-1.63.51-.82.25c-.32,0-.66,0-1,0l-2,0a7.79,7.79,0,0,0-1,0l-.7.33-1.4.67a2.87,2.87,0,0,1-.74.3l-1,.12-1.9.22a4.2,4.2,0,0,0-.92.16l-.72.38-1.45.76-3,1.56c-1,.5-2.07,1.14-3.1,1.72a35,35,0,0,0-3.1,1.91,21.41,21.41,0,0,0-3,2.13l-1.39,1.16c-.45.39-.86.82-1.29,1.23s-.83.84-1.32,1.24l-1.47,1.2-.37.3-.19.15-.13.18-.52.73a13.27,13.27,0,0,1-1.09,1.47l-1.26,1.43-.78,1.71c-.29.57-.66,1.12-1,1.68a1,1,0,0,0-.18.45l-.12.48-.24,1a12.69,12.69,0,0,0-1,3.76l.05,1a8.76,8.76,0,0,1-.05.91,14.35,14.35,0,0,0,0,1.72c.53,2.34.82,4.15,1.39,5.82a4,4,0,0,0,.67,1.25l.41.62c.1.19.18.37.27.56.34.76.71,1.45,1.08,2.15a29.23,29.23,0,0,1,3,4,2.31,2.31,0,0,0,.47.47l.54.47a5.7,5.7,0,0,1,1,.92l.72.88c.08.15.36.3.53.45l.6.44a10.87,10.87,0,0,1,1.85,1.73c.62.57,1.75,1.14,2.36,1.71.87,1.12,3.06,2.23,5,3.31a11.86,11.86,0,0,0,2.53,1.1C233.79,291.35,233.16,290.94,232.16,290.41Z"/><path d="M251.51,118.67c-.18.89,0,.9.36,0a15.05,15.05,0,0,0,.55-1.43c.2-.53.38-1.07.5-1.51.19-.73,0-.77-.35,0a11.83,11.83,0,0,0-.65,1.5A14.26,14.26,0,0,0,251.51,118.67Z"/><path d="M260.82,128.14a35.58,35.58,0,0,0,1.39,11.6,10.52,10.52,0,0,1,.34,1.95c.18-.29.59.46,1.07,1.92,2.38,7.21,6.17,14.38,10.61,21.65.54.91,1.12,1.82,1.69,2.73l1.74,2.76,1.79,2.78.91,1.4.88,1.35c1.12,1.67,2.38,3.47,3.66,5.29l3.93,5.58a267.6,267.6,0,0,1,15.66,24.36,97.71,97.71,0,0,1,6.76,14.69,50.29,50.29,0,0,1,2.4,9.3,31.56,31.56,0,0,1-.43,12.8,10.9,10.9,0,0,1-.62,3.79,16.27,16.27,0,0,1-1.05,2.63,18.13,18.13,0,0,1-1.74,3,27,27,0,0,1-2.58,3.15,36.31,36.31,0,0,1-3.31,2.84,40.85,40.85,0,0,1-3.69,2.2l-.24.13-.17.07-.32.14-.65.28-1.33.54c-.9.35-1.82.71-2.76,1s-1.73.43-2.61.64l-1.33.27-.66.14a1.45,1.45,0,0,1-.29.05h-.13l-1.09.07a23.56,23.56,0,0,1-6.65-.6c-2.23-.48-4.46-1.1-6.75-1.51a24.39,24.39,0,0,0-7-.36,26.72,26.72,0,0,0-6.9,1.9c-.28.29-.59.57-.9.9s-.64.63-1,1a13.24,13.24,0,0,0-2,2.47,5.2,5.2,0,0,0-.23,2.89,6.81,6.81,0,0,0,1.46,2.82,18.62,18.62,0,0,0,5.05,4,50.13,50.13,0,0,0,11.13,4.61c-.19-.13-.14-.2.17-.2a31.87,31.87,0,0,1,4.35.94l2.49.6a43,43,0,0,1-6.33-2,5.86,5.86,0,0,1-.73-.33,26,26,0,0,1-6.74-3.87,6.88,6.88,0,0,1-2.49-3.61,4.27,4.27,0,0,1,1.47-3.83,14.6,14.6,0,0,1,3.37-2.38c.6-.35,1.25-.58,1.87-.87.32-.14.65-.21,1-.32a5.57,5.57,0,0,1,1-.27c2.69-.61,5.45-.2,8.21.2a25.08,25.08,0,0,0,4.28.32,17,17,0,0,0,2.23-.2l1.11-.25.28-.07.8-.21,1.64-.45,1.64-.44c.29-.09.54-.13.84-.25l.91-.34c1.2-.47,2.4-1,3.59-1.46l.88-.38c.44-.22.94-.48,1.39-.73.93-.52,1.85-1.07,2.74-1.64s1.85-1.41,2.74-2.16c.44-.38.88-.78,1.3-1.17s.83-.9,1.23-1.36a33.88,33.88,0,0,0,2.25-2.88c.63-1,1.23-2.06,1.77-3.11a21.44,21.44,0,0,0,1.31-3.12,22.23,22.23,0,0,0,.91-3.07c.21-1,.39-1.92.54-2.89a11.84,11.84,0,0,0,.15-1.35l.08-1.29.06-1.29,0-.65,0-.57q0-1.14-.12-2.28c0-.37-.05-.78-.1-1.11l-.14-1-.31-2c-.24-1.28-.53-2.45-.81-3.66s-.64-2.21-1-3.31l-1.08-3a95.75,95.75,0,0,0-4.95-10.63,189.9,189.9,0,0,0-11.08-17.85c-3.81-5.52-7.73-10.81-11.4-15.84a10.65,10.65,0,0,1-1.43-2.35c-.12-.46.09-.49.62.2,4.8,6.05,10,12.27,15,18.78,2.51,3.27,5,6.64,7.42,10.24a115.37,115.37,0,0,1,7.08,11.8,71,71,0,0,1,3.23,7.17c.27.62.5,1.38.74,2.07s.48,1.38.7,2.15a50,50,0,0,1,1.18,4.94l.24,1.35c.07.46.15.89.2,1.43.1,1,.18,2.07.25,3.12,0,.48,0,1.13,0,1.72l-.06,1.8c0,.62-.05,1.17-.14,1.85s-.19,1.38-.31,2.06-.24,1.38-.39,2.06a23.17,23.17,0,0,1-.62,2.24c-.24.75-.51,1.51-.79,2.25-.14.38-.27.74-.44,1.12l-.56,1.18a34,34,0,0,1-2.67,4.53A39.31,39.31,0,0,1,312,265.6a49.3,49.3,0,0,1-3.95,3.39,42.83,42.83,0,0,1-4,2.52l-1,.56a3.14,3.14,0,0,1-.39.19l-.31.14-1.24.56L298.54,274a34.36,34.36,0,0,1-4.75,1.59l-2.17.64-.49.19a10.16,10.16,0,0,1-3.72.64,19.37,19.37,0,0,0-3.81.17,5.68,5.68,0,0,0-3,1.65,4.55,4.55,0,0,0-1.56,3,2.94,2.94,0,0,0,.89,2,8,8,0,0,0,1.84,1.41,23.65,23.65,0,0,0,7.42,2.57c1.08.19,2.05.39,2.91.62q.64.17,1.2.36l.28.09.14.05.89.53c1.22.72,2.35,1.35,3.73,2.26a85.19,85.19,0,0,1,15.57,12.63,48.91,48.91,0,0,1,3.48,4.13l.42.54a4,4,0,0,1,.24.35l.26.4,1,1.62a27,27,0,0,1,1.9,3.42,19,19,0,0,1,1.21,14.4c-.21.56-.41,1.13-.67,1.67s-.58,1.05-.89,1.57a16.42,16.42,0,0,1-2.32,2.74,8.46,8.46,0,0,1-1.35,1.18l-1.46,1.06c-.53.29-1.07.58-1.61.85l-.82.41-.88.32c-.59.2-1.18.4-1.78.58s-1.24.28-1.87.41-1.26.22-1.9.31-1.3.11-2,.14-1.31.06-2,.06l-1.62-.06-1.62,0-.4,0-.28,0-.54-.05-17-1.38c-11.33-.91-22.66-1.87-34.12-2.53-5.74-.37-11.48-.72-17.3-1s-11.65-.49-17.56-.55a425.17,425.17,0,0,0-46.83,1.45l-2.85.25-1.43.15-.28,0-.9.16-1.8.3-3.56.57c-2.37.35-4.73.74-7.05,1.18s-4.65.83-7,1.28c-3.47,1.06-6.6-.22-7.11-3.08a5.52,5.52,0,0,1,1.92-4.88l-.86.09-1.37-.15a4.63,4.63,0,0,1-3.14-1.66l-1-1.11c-1.34-2.19-3.49-3.95-4.68-6.43l.2-1-.27-.26a4.46,4.46,0,0,1-1.73-2.52l0-1.2a10.2,10.2,0,0,1,1.11-3.93,3.46,3.46,0,0,1,.17-1.47,5,5,0,0,1-.58-3.89.72.72,0,0,1,.07-1.17,1.11,1.11,0,0,1,.51-.18h0a7.25,7.25,0,0,0-.56-.75c-.37-.11-.58-.19-.58-.19-1-.22-1-.22-1.83-.43a4.94,4.94,0,0,1-1.23-1c-.93-2.2-.94-2.21-.87-3.15,0-.09.09-.17.14-.26l-.9-.47a2.34,2.34,0,0,1-.34-.39c-.06-.51-.06-.51-.18-.7a1.81,1.81,0,0,1,0-.39c.33-.54.33-.54.33-.7a1.09,1.09,0,0,1,.19-.27l.66-.22,1,1.37.17-.44.25.61-.15-.55.48.36-.56-.52a5,5,0,0,0,1.56.27,2.08,2.08,0,0,0,.89,0,1.14,1.14,0,0,1-.05-.29l2.34.57a2.93,2.93,0,0,1,.28.36.54.54,0,0,1,.55-.16l.6.12.13-.07v0l.5-.22.1-.05h0c.72-.31,1.44-.63,2.16-.93a8.36,8.36,0,0,1,1,.34l-.29-.26c-.19-.18,0-.62-.14-.67a52.69,52.69,0,0,0-8.08-2.49,1.05,1.05,0,0,1-1-.7c-.09-.4.24-.73.75-.73a18.77,18.77,0,0,1,8.93-.91,34.36,34.36,0,0,1,9,2.52c1.48.36,2.94.79,4.41,1.14l-.21-.23,1.14.47.12,0-.85-.87-.6-.3a86.33,86.33,0,0,1-9.94-3.55c-1.82-.65-3.39-1.65-5.15-2.47-.45-.1-.77-.43-.73-.77s.46-.5.9-.41a41.06,41.06,0,0,1,8.93,1.41,23.76,23.76,0,0,1,7.9,3.63,6.8,6.8,0,0,1,2.82,1.08l.05,0-.62-.71c.76.27,1.16.83,1.85,1.13-.08-.27-.16-.58-.24-.86,1.89.52,3.84.88,5.74,1.37a26.4,26.4,0,0,1,5.45,1.8l.4.13c.75-.15,1.51-.3,2.3-.38l.6,0h.19l.94.14,1.91.29c2.57.38,5.2.8,7.93,1.26L169,298.24l-2.75-.54-2.59-.54,5.8.83,6,.91c4,.72,8.07,1.41,12.27,2.24,5.65,1.22,11.49,2.33,17.16,3.68s11.28,2.57,16.51,3.85c10.47,2.51,19.55,4.89,25.35,6.56,10.76,2.07,21.52,4.07,32.27,5.93,5.37.89,10.74,1.83,16.11,2.61l4,.62,2,.29c.42,0,.84.06,1.25.11a2.9,2.9,0,0,0,.45,0h.37a5.83,5.83,0,0,0,.72-.06,4.46,4.46,0,0,0,1.39-.41,2.41,2.41,0,0,0,1.41-2.33,5.23,5.23,0,0,0-1-2.67l-.24-.34a2.79,2.79,0,0,0-.35-.43l-1.08-1.2-1.2-1.17c-.41-.4-.87-.77-1.31-1.14a41.87,41.87,0,0,0-5.87-4.08,58.17,58.17,0,0,0-6.59-3.35,13.88,13.88,0,0,0-1.87-.69l-2-.64-6.54-2.09a9.15,9.15,0,0,0-.88-.27l-1.11-.17-2.21-.35-4.42-.7c-1.42-.2-3.12-.56-4.72-.85l-4.84-.92-2.42-.47-2.13-.61-4.26-1.24-2.13-.62-1.06-.31c-.36-.1-.61-.2-.92-.31l-3.52-1.23-2.76-1-1.21-.46a6,6,0,0,1-.7-.38c-.8-.48-1.29-.83-1.3-1s.61.07,1.44.39l1.44.59a10.1,10.1,0,0,0,1.13.41l1.38.47,5,1.71,1.26.43,1.5.43,3,.85,3,.86a26.63,26.63,0,0,0,3.11.78l6.75,1.29c2.32.47,4.3.76,6.36,1.1l3.07.49,1.54.25a2.61,2.61,0,0,1,.67.17l.61.19,8,2.59c.47.16.95.31,1.41.48l1.23.56c.82.38,1.67.73,2.45,1.15s1.61.81,2.38,1.25l2.3,1.35a36.48,36.48,0,0,1,7.91,6.43l.78.87.4.54a8,8,0,0,1,.65,1.07,4.94,4.94,0,0,1,.62,2.35,2.79,2.79,0,0,1-1.07,2.14,4.82,4.82,0,0,1-2.3.87,7.43,7.43,0,0,1-1.25.07,1.34,1.34,0,0,1-.34,0l-.49-.05-1-.08-5.87-.84c-3.91-.56-7.82-1.17-11.73-1.8,3.26.56,6.53,1.14,9.8,1.64l4.91.77,2.46.38c.47.08.67.07,1,.11l.83.09a1.6,1.6,0,0,0,.34,0h.84a10.64,10.64,0,0,0,1.12-.12,4.61,4.61,0,0,0,2.07-.85,3,3,0,0,0,1.12-1.9,4.63,4.63,0,0,0-.27-2.24,9,9,0,0,0-1.1-2.06c-.13-.18-.21-.32-.38-.54l-.68-.78c-.43-.53-.95-1-1.45-1.54a42.75,42.75,0,0,0-7.05-5.51,59.76,59.76,0,0,0-8.29-4.37c-1.71-.62-2.78-1-5.82-2.06l-1.95-.66-1-.33a5.18,5.18,0,0,0-1.06-.3l-4.87-.9-2.5-.45c-.85-.15-1.79-.36-2.69-.54l-5.45-1.12L262,299.2c-.45-.1-.83-.23-1.24-.34l-2.43-.72-4.88-1.43c-1.48-.46-2.74-.93-4.11-1.4l-4-1.4-5.28-2.52c-2.11-.94-4.16-1.88-6.06-2.88a11.82,11.82,0,0,1-2.35-1.51c-.69-.51-1.78-1-2.54-1.55l-1-.79c-.17-.13-.3-.26-.5-.4l-.63-.41-1.24-.82-.89-.83-.44-.41-.58-.44-1.16-.88c-.54-.59-1.11-1.16-1.63-1.78-.27-.31-.49-.6-.82-.93l-1-1-.25-.25-.18-.25-.36-.5c-.24-.34-.47-.67-.69-1s-.41-.69-.72-1.09l-.89-1.18-.55-1.22c-.18-.41-.33-.86-.49-1.28s-.28-.93-.42-1.38-.35-1-.53-1.54a2.44,2.44,0,0,1-.13-.8l-.07-.81v-1.7l-.06-.94,0-.46a1.71,1.71,0,0,1,.09-.45,13.84,13.84,0,0,1,.5-1.78,17.53,17.53,0,0,0,.56-1.78c.08-.29.16-.6.25-.89l.49-.79.48-.79.4-.79a4.83,4.83,0,0,1,.95-1.5c.4-.45.82-.89,1.2-1.34l1-1.35a5.49,5.49,0,0,1,1.29-1.2c.46-.37.95-.74,1.4-1.11.86-.75,1.66-1.55,2.57-2.26l1.36-1.06a10.33,10.33,0,0,1,1.42-1l3-1.84,3-1.6c1-.54,2-.95,3-1.43l2.91-1.32.72-.33a6.16,6.16,0,0,1,.89-.12l1.82-.2.91-.1A3.91,3.91,0,0,0,245,237l1.4-.55.7-.28c.28,0,.62,0,.93,0h1.91c.31,0,.64,0,.94,0l.81-.21,1.6-.41.4-.11a1,1,0,0,1,.45-.05l1.07.07,2.14.15a8,8,0,0,0,2-.12l2-.25c.32-.05.7-.07,1.08-.09l1.14-.06,2.27-.13c1.38,0,2.85,0,4.26,0a17.28,17.28,0,0,0,2.15-.1l2.14-.16a42.75,42.75,0,0,1,4.41-.12h2.22c.24,0,.21,0,.29-.08l.18-.13.36-.26,1.33-.95a6.51,6.51,0,0,1,.91-.53l.11-.06.06,0h0c1.35,2.89-3-6.48,3,6.48v0l0,.09a5.4,5.4,0,0,0,.33.74,7.74,7.74,0,0,0,.43.73c.16.24.39.52.4.58a3.25,3.25,0,0,0,.57.7l.09.09h0l0,.05,0,0,0,0-.06,0-.28-.18a2,2,0,0,0-.27-.12l-.06,0-.15-.08-.32-.15a6.21,6.21,0,0,0-.64-.23l-.31-.08a3.15,3.15,0,0,1-.38-.1,10,10,0,0,0-2-.45l-.5,0-.69-.12c-.47-.07-.93-.12-1.39-.15-1-.08-1.7,0-3-.07h-1s-.06-.17-.07-.25a31.49,31.49,0,0,0-1.72-5.33c-1-2.36-2.21-5-3.62-7.68s-3-5.49-4.66-8.35c-3.35-5.74-7.12-11.64-11.19-18.2-1.44-2.35-2.89-4.71-4.43-7.41l-.58-1-.49-.9-1-1.78-2-3.64c-2.59-4.91-5.14-10.06-7.41-15.59a106.32,106.32,0,0,1-5.69-17.83,74.8,74.8,0,0,1-1.72-20.4c.17-1.78.34-3.56.57-5.34s.63-3.55,1-5.31A63,63,0,0,1,238.66,111a70.26,70.26,0,0,1,10.57-17.1A83.21,83.21,0,0,1,262.85,81a110.53,110.53,0,0,1,14.86-9.42c5.34-2.9,10.42-4.78,11.26-4.72s-2.72,2.08-7.94,4.92c-2.55,1.4-5.1,2.9-7.62,4.53s-5,3.35-7.5,5.26a85.81,85.81,0,0,0-7.23,6.18A82,82,0,0,0,252,95a68,68,0,0,0-10.59,17.75,59.43,59.43,0,0,0-3.08,10.53c-.3,1.81-.69,3.63-.82,5.45l-.24,2.73c-.09.91-.06,1.8-.08,2.71a75,75,0,0,0,2.67,20.58,114.41,114.41,0,0,0,6.51,17.85c2.51,5.54,5.23,10.72,7.93,15.67l1,1.85,1.17,2.05,2.26,3.81c1.48,2.45,2.94,4.8,4.38,7.11,2.85,4.62,5.64,9.11,8.2,13.56s4.95,8.84,6.88,13a61,61,0,0,1,2.39,5.94,21.45,21.45,0,0,1,1.1,4.31c0,.23,0,.27,0,.42s0,.05,0,0h0l.26,0a17.87,17.87,0,0,1,2.16.25,15.24,15.24,0,0,1,1.59.22c.26.06.52.12.79.2l.39.13a1.52,1.52,0,0,0,.27.06,5.59,5.59,0,0,1,1,.32l.47.23.2.08a2.59,2.59,0,0,1,.43.26h0l0,0,0,0,0,0s0,0,0,0l-.14-.13a2.94,2.94,0,0,1-.44-.53c-.08-.11-.07-.14-.2-.31s-.26-.36-.38-.55a6.65,6.65,0,0,1-.58-1.12l-.11-.29c-3.29-7-.93-1.94-1.67-3.51h0l-.06,0-.23.1-.45.21a10.31,10.31,0,0,0-.91.49l-1.23.72-.62.35-.15.09s-.24,0-.35,0h-.79l-3.15,0c-2.08,0-4.07.3-6.1.31s-4.09-.13-5.86,0l-1.38,0c-.46,0-.93,0-1.32.06l-2.49.2A12.69,12.69,0,0,1,258,238l-1.32-.12-.66-.06a2.32,2.32,0,0,0-.55.06,14.72,14.72,0,0,1-4.38.45l-1.2,0a2.58,2.58,0,0,0-1.1.08l-1.87.56a7.79,7.79,0,0,1-2.18.31l-1.17.1-.58,0-.29,0-.25.08c-1.29.5-2.53.93-3.89,1.5l-2,.8c-.67.29-1.34.63-2,.95s-1.35.61-2,1l-2,1.14a29.57,29.57,0,0,0-3.78,2.52c-1.22.92-2.24,1.91-3.56,2.85s-2.13,2.12-3.24,3.25a7.09,7.09,0,0,0-1.47,1.83l-.57,1-.64,1a6,6,0,0,0-.79,1.94c-.19.67-.47,1.32-.66,2-.51,1.3-.18,2.83-.23,4.06a13.63,13.63,0,0,0,.2,1.84c.2.58.47,1.23.63,1.74a17.84,17.84,0,0,0,1.22,3,16.31,16.31,0,0,0,1.82,2.64,24.78,24.78,0,0,0,1.77,2.31l1.21,1.11c.38.36.66.69,1,1s.65.67,1,1a6.92,6.92,0,0,0,1.12,1s.05-.1.17-.09a4.41,4.41,0,0,1,1.17.41l.9.43c.33.17.7.36,1,.56a26.19,26.19,0,0,1-2.81-2.15c-.4-.36-.8-.73-1.18-1.12s-.75-.75-1.25-1.18a14,14,0,0,1-2.33-2.54c-.35-.46-.64-.88-1.08-1.4l-.61-.74a5.59,5.59,0,0,1-.46-.77,18.85,18.85,0,0,1-1.48-3.34l-.37-1a3.33,3.33,0,0,1-.29-1l-.13-1,0-1.08,0-1.14a3.17,3.17,0,0,1,0-1.15l.27-1.12.39-1.1a22.81,22.81,0,0,1,.8-2.19c.41-.65.87-1.31,1.24-1.94l.38-.68a2.32,2.32,0,0,1,.43-.64l1.07-1.16c.72-.75,1.26-1.56,2-2.25s1.69-1.28,2.44-1.92,1.5-1.31,2.34-1.88l1.22-.89a12,12,0,0,1,1.26-.84l2.66-1.53c.88-.52,1.8-.89,2.7-1.34.45-.21.9-.44,1.35-.64l1.35-.54c.9-.36,1.81-.75,2.67-1.05l1.3-.48a3.66,3.66,0,0,1,1.41-.36c1-.1,2.14-.15,3.11-.3l2.56-.74c1,0,2.15,0,3.23,0h.41l.36-.06.71-.13,1.42-.25a3.33,3.33,0,0,1,.74-.09l.9.08,1.81.15.9.08a6,6,0,0,0,.86,0l1.71-.13c1.09-.11,2.41-.12,3.67-.16.65,0,1.25-.05,1.94,0l2.08,0,2.09,0,2.11-.15c1.4-.1,2.81-.2,4.29-.2l2.2,0h1l.06,0,.45-.26,1.77-1a14.1,14.1,0,0,1,1.36-.65l.17-.07.09,0c2.61,5.61.73,1.57,1.31,2.83v0l0,0,0,.11a7.37,7.37,0,0,0,.38.81c.27.52.79,1.15.85,1.3a3.1,3.1,0,0,0,.3.38c.1.12.32.31.26.26s.07.08.1.1a2.12,2.12,0,0,0-.61-.34s-.15-.08-.27-.14l-.36-.16a5.31,5.31,0,0,0-.71-.23l-.36-.08q-.28-.1-.57-.18a9.31,9.31,0,0,0-1.14-.25,5.39,5.39,0,0,0-.56-.08l-.28,0h-.14l-.2,0-.78-.12-.64-.07c0,.08,0-.25,0-.46a5.79,5.79,0,0,1-.07-.6c0-.1,0-.19,0-.31l-.07-.4-.13-.8-.22-.94-.1-.47-.15-.51-.29-1-.72-2.22a128.48,128.48,0,0,0-5.69-13.27c-2.2-4.51-4.57-9-7-13.57s-4.93-9.1-7.47-14l-1-1.88-1-1.94-1.7-3.62c-1.14-2.45-2.28-4.92-3.38-7.46-1.56-3.14-3.11-6.31-4.52-9.66-.73-1.64-1.37-3.39-2.05-5.08s-1.29-3.47-1.82-5.29a86.58,86.58,0,0,1-2.75-11.21l-.41-2.95-.19-1.47-.11-1.51-.2-3v-3.06a56.09,56.09,0,0,1,5.7-23.86,70.61,70.61,0,0,1,13.67-18.83A12.67,12.67,0,0,1,263.31,89c.41-.21,0,.29-.85,1.16a75.65,75.65,0,0,0-9.88,12.33,60.89,60.89,0,0,0-7,15.08,56.38,56.38,0,0,0-2.31,17,68.33,68.33,0,0,0,2.38,16.45,17.93,17.93,0,0,1,0-4.08c.12-.95.35-1.43.7-1.36.75.12,1.72,2.6,3.15,6.2a67.52,67.52,0,0,1-2.26-14.07,20.08,20.08,0,0,1,.12-3.79c.11-.95.26-1.51.42-1.46s.33.64.43,1.58.13,2.23.26,3.61c.52,9.67,3.43,18.76,7,27.17,1.78,4.22,3.75,8.31,5.8,12.28,1,2,2.07,4,3.12,5.91l.79,1.46.84,1.52,1.69,2.94c5.66,9.09,11.41,17.69,16.39,26.62a119.55,119.55,0,0,1,6.6,13.47,52.7,52.7,0,0,1,2.18,6.7,18.59,18.59,0,0,1,.58,6c.15-.48.38-.9.51-1.38s.28-.93.44-1.35a8.25,8.25,0,0,1,.8-2.1,0,0,0,0,1,0,0,45.83,45.83,0,0,0-2.54-8.67,149.34,149.34,0,0,0-10.37-19.16c-3.89-6.28-8-12.45-12.14-18.84-2.06-3.16-4.1-6.61-5.95-9.87s-3.73-6.71-5.5-10.17-3.37-7.06-4.85-10.75a92.8,92.8,0,0,1-3.66-11.5,64.66,64.66,0,0,1-1.7-12.26,52.7,52.7,0,0,1,1.08-12.56,50.53,50.53,0,0,1,4.17-11.87,60.79,60.79,0,0,1,6.55-10.47,85.37,85.37,0,0,1,17.38-16.62,203.85,203.85,0,0,1,19.76-12.52,8.5,8.5,0,0,1,2-1,6.2,6.2,0,0,1-1.64,1.13c-8,4.65-16.12,9.53-23.58,15.55a74.17,74.17,0,0,0-18.95,22l0-.07c.46-.66.66-.72.33.09a26.69,26.69,0,0,1-1.42,2.76c-.49.79-.59.65-.34-.06a50.54,50.54,0,0,0-4.58,27.38,82.75,82.75,0,0,0,7.7,25.82c1.85,4,3.87,7.86,6,11.63,1.05,1.88,2.11,3.75,3.19,5.59.52.92,1.08,1.87,1.65,2.81l1.72,2.76c4.6,7.24,9.31,14.15,13.67,21.24-3.87-6.69-8.05-13.23-12.16-19.95-1-1.68-2.06-3.37-3-5.13S266,180.78,265,179c-1.89-3.46-3.71-7-5.43-10.6a118.15,118.15,0,0,1-4.67-11.1c-.7-1.89-1.28-3.84-1.88-5.78s-1.06-3.94-1.41-6a52.55,52.55,0,0,1,.64-24.58,50.69,50.69,0,0,1,3.5-10.28,10.66,10.66,0,0,1,1.45-2.28c.24-.18,0,.5-.46,1.41s-.86,1.81-1.25,2.74c2.74-5.61,6.13-9,6.57-8.57.39.7-2.22,5.11-4.67,10.73a44.51,44.51,0,0,0-3.28,11.82,46.8,46.8,0,0,0-.12,12.23,68,68,0,0,0,2.54,12,102.72,102.72,0,0,0,4.36,11.44c.76,1.6,1.56,3.18,2.38,4.74s1.84,3.05,2.78,4.57a137.17,137.17,0,0,1-7.51-17.39,67.31,67.31,0,0,1-3.67-18.29,46,46,0,0,1,2.92-18.1,57.72,57.72,0,0,1,9.36-15.85c1.32-1.66,2.67-2.89,2.86-2.77s-.79,1.52-2.09,3.18c-6.46,8.57-10.81,18.71-10.7,29.07a51.74,51.74,0,0,0,2.35,15.43,95.64,95.64,0,0,0,6,14.89c2.41,4.87,5.13,9.66,8,14.45,1.45,2.45,2.81,4.7,4.33,7l4.61,7c3.12,4.73,6.24,9.53,9.24,14.49a159.54,159.54,0,0,1,8.41,15.53,68.74,68.74,0,0,1,5.25,11.29,37.47,37.47,0,0,1,1.72,6.85,24.34,24.34,0,0,1-.27,8.6,18.84,18.84,0,0,1-5.33,9.29,19.57,19.57,0,0,1-2.08,1.74c-.71.48-1.43.94-2.18,1.38a8.8,8.8,0,0,1-.92.49l-.82.4-1.67.79c-.56.25-1.14.55-1.68.74l-1.62.55-1.63.55-.4.14-.2.07-.12,0-.48.14c-.64.17-1.27.39-1.9.52l-1.87.33,2,0c.67,0,1.33-.17,2-.25a21.16,21.16,0,0,0,2.33-.53c.92-.25,1.81-.42,2.75-.73s1.91-.72,2.86-1.1l1.42-.57.18-.07.25-.13.49-.26,1-.54a16.15,16.15,0,0,0,1.9-1.19c.63-.48,1.25-1,1.85-1.51a12.83,12.83,0,0,0,1.7-1.75,22.85,22.85,0,0,0,1.51-1.93,21.43,21.43,0,0,0,2.14-4.21c.26-.71.52-1.43.71-2.13s.29-1.34.42-2l.17-1c.05-.32.06-.62.09-.93l.11-1.86c0-1.21-.06-2.28-.12-3.41s-.27-2.07-.42-3.09l-.62-2.84a61.51,61.51,0,0,0-3.47-9.81c-1.31-3-2.75-5.81-4.25-8.5s-3-5.27-4.63-7.79c-3.17-5-6.46-9.8-9.76-14.45s-6.66-9.23-9.55-13.61c-3-4.7-6-9.37-8.64-14.16a98.39,98.39,0,0,1-6.85-14.79,53.91,53.91,0,0,1-3.15-15.76,5.18,5.18,0,0,1,.05-1.4,1.65,1.65,0,0,1,.2-.69c.16-.11.24.62.25,1.69a52,52,0,0,0,3,15.15,91.14,91.14,0,0,0,6.53,14.24c2.57,4.64,5.44,9.2,8.44,13.84l1.12,1.73,1.1,1.63,2.33,3.36,4.92,7a280.15,280.15,0,0,1,15.81,24.49,93.14,93.14,0,0,1,6.51,14.1c.24.63.43,1.35.65,2s.43,1.35.6,2.11l.53,2.2.4,2.4a27.8,27.8,0,0,1-.7,11.66,28.17,28.17,0,0,0,1-11.85,46,46,0,0,0-2-8.87A87.56,87.56,0,0,0,303,213.81a244.32,244.32,0,0,0-14.79-23.64c-2.53-3.69-5.11-7.34-7.46-10.83l-1.7-2.58L277.29,174c-1.15-1.84-2.29-3.69-3.37-5.53-4.37-7.35-8.3-14.77-10.68-22.43a11.09,11.09,0,0,1-.54-2,13.74,13.74,0,0,1-.23-1.63,1.37,1.37,0,0,1-.38-.72,38.7,38.7,0,0,1-1.88-12.33,7.21,7.21,0,0,1,.39-2.26C260.76,126.71,260.84,127.23,260.82,128.14ZM138.29,304.87l-.15-.17.52.29.72,1.09Zm-9,3.68h0l-.43-.64C129,308.18,129.16,308.38,129.27,308.55Zm176.07,17.32a9,9,0,0,1-1.71.25h-.86c-.31,0-.79-.09-1.18-.11L301,326l-.88-.13-1.76-.26-3.51-.54c-4.68-.68-9.35-1.49-14-2.28-9.32-1.62-18.6-3.36-27.87-5.28l13.61,2.43q10.54,2,21.13,3.82c3.53.62,7.05,1.16,10.59,1.73l2.65.42,1.83.2A9.44,9.44,0,0,0,305.34,325.87ZM132.1,300.36a12.34,12.34,0,0,1,2.12,2.16,6,6,0,0,1,1.69,0c1.56.18,3.07.41,4.55.7-.19-.39.16-.31.34-.34l.56,0-4.79-1.22A42.13,42.13,0,0,1,132.1,300.36Zm-11.17.95-.14-.16.26-.62S121,300.87,120.93,301.31Zm-.41,1,.23.1C120.68,302.68,120.6,302.6,120.52,302.35Zm2.14.87a1.63,1.63,0,0,0-.31-.35Zm2.28,18.18.64-3.14-.71,3Z"/></g></g></svg>