<svg xmlns="http://www.w3.org/2000/svg" viewBox="0 0 497.63 494.09"><g id="Layer_2" data-name="Layer 2"><g id="Layer_1-2" data-name="Layer 1"><path d="M238.27,116.08c0,.19-.09.4-.12.59a1.33,1.33,0,0,1-.68-1,10.78,10.78,0,0,0,2.38,7.39,16.6,16.6,0,0,0,5.84,4.93,2.49,2.49,0,0,0,3,1.69,2.42,2.42,0,0,0,1.15-3.24,4.66,4.66,0,0,1,0-1.06,22.55,22.55,0,0,0,.52-8.87c-.08.68-.17,1.38-.25,2.06a7.29,7.29,0,0,0-.55-2.64l-.45.61c.11-3.35-2.26-6.63-5.22-7.13s-5.44,1.88-5.55,5.17Z"/><path d="M234.42,124.12c0-1.79,0-3.57,0-5.39l.22-.49-1.6,1.07.12,0c2.07.45,3.81,2.23,5.23,4l.59.58a1.5,1.5,0,0,0,1.2.15,1.79,1.79,0,0,0,1-2.32c-.12-.4-.27-.77-.41-1.16-.43-3.13-2.63-7.32-6.19-7-.82.08-1.48.87-2.19,1.4a2.57,2.57,0,0,0-1,3.4,2.44,2.44,0,0,0,3.18,1.33c0,.25.09.52.13.78l-.67-.28c1.15-.2,2,.83,3,1.4l1,1.15,2.18-2.18-.71-.49c-.08.11-.19.3-.2.3a26.18,26.18,0,0,1-4-2.85l-1.9-1.2a1.31,1.31,0,0,0-1.6,1.09l-.12,1.1.13-.54c.4,2.12,1.09,4.19,1.43,6.27a.68.68,0,0,0,.66.62A.56.56,0,0,0,234.42,124.12Z"/><path d="M230.64,118.08a1.59,1.59,0,0,0-.18-1.18l-.3-.05c0,.22-.08.52-.13.82C229.94,118.27,230.3,118.33,230.64,118.08Z"/><path d="M230.16,116.85l.05-.35-.15.31,0,0Z"/><path d="M256.74,275c-.5,2.21-1.14,4.36-1.75,6.52s-1.21,4.32-1.87,6.46L251,294.4c-.35,1.06-.67,2.13-1,3.19l-1.15,3.14L246.53,307,244,313.19l-1.26,3.09-1.36,3-2.74,6.06c-.24.54-.39,1-.28,1.1s.39-.31.62-.81l2.75-6.06,1.37-3,1.27-3.09,2.54-6.17,2.32-6.27,1.16-3.15c.39-1,.7-2.11,1.06-3.17l2.09-6.39c.67-2.13,1.24-4.3,1.87-6.46s1.28-4.31,1.78-6.52c.13-.59.14-1.1,0-1.2S256.88,274.49,256.74,275Z"/><path d="M189.43,385.62c.18-.36.09-.41-.22-.13a4.74,4.74,0,0,0-.85,1.1c-.16.3-.05.37.22.12A4.89,4.89,0,0,0,189.43,385.62Z"/><path d="M185.38,378c.62-1,1.23-1.91,1.79-2.83s1-1.86,1.47-2.74a5.12,5.12,0,0,1,.62-.87c-.21,0-.08-.44.33-1.16a317.27,317.27,0,0,0,22-45.56,1.78,1.78,0,0,1-.13-.85,16.9,16.9,0,0,1,1.63-5.77l.79-1.64c.77-1.68,1.4-3.42,2.11-5.12s1.4-3.4,2-5.13l1.87-5.18,1-2.59.85-2.61a40.29,40.29,0,0,1,.93-5.07c.29-1.56.44-3.16.66-4.73s.4-3.16.61-4.74c.37-3.16.6-6.36,1-9.55-.22.37-.44.57-.64.53-.43-.22-.52-1.74-.3-3.43.11-.86.22-1.72.32-2.57-.45,2.43-.86,4.87-1.48,7.27a9.42,9.42,0,0,1-.26,1c-.5,2.67-.94,5.39-1.56,8.13a287.17,287.17,0,0,1-22.28,68,4,4,0,0,1-.71,1.13c-.2.15-.28.05-.11-.35,5.75-13.92,8.74-26.69,12.7-42.55a220.91,220.91,0,0,0,6.53-56.73,149.7,149.7,0,0,0-1.56-28.72l-.55-3.5-.28-1.75-.37-1.74c-.5-2.31-1-4.63-1.49-6.94s-1.21-4.59-1.82-6.92-1.43-4.59-2.13-6.91c-.45-1.58-1-3.11-1.59-4.63s-1.09-3-1.63-4.54-1.22-3-1.8-4.42-1.14-2.95-1.83-4.36l-.49-1.06-.25-.53-.1-.2-.38-.7L200,174c-.5-.93-.93-1.88-1.44-2.8-1-1.81-2-3.63-3-5.46-.45-.93-1-1.82-1.51-2.71l-1.54-2.68c-1.87-2.52-1.12-6,2-8.1a7.6,7.6,0,0,1,6.11-1.06l-.37-.72-.25-1.31a5.2,5.2,0,0,1,.87-3.76l.92-1.55c2-2.49,3.07-5.42,5.24-7.92l1.15-.39.16-.39a6.09,6.09,0,0,1,1.94-3l1.28-.66a13.72,13.72,0,0,1,4.66-1.24,5.1,5.1,0,0,1,1.64-.68,7,7,0,0,1,3.85-2.74,1,1,0,0,1,1.29-.59,1.1,1.1,0,0,1,.45.35h0a8.65,8.65,0,0,0,.51-.93c-.08-.39-.11-.63-.11-.63-.27-1-.27-1-.5-1.88a5.4,5.4,0,0,1,.44-1.69c1.78-2.08,1.78-2.09,2.79-2.55a2.11,2.11,0,0,1,.35,0c0-.79,0-.85,0-1.07a2.25,2.25,0,0,1,.21-.52c.49-.34.49-.34.62-.56a1.85,1.85,0,0,1,.36-.26c.76,0,.76,0,.92-.11a1.44,1.44,0,0,1,.39,0l.61.46c-.85,1.65-.85,1.66-.85,1.66l.56-.09-.5.56.5-.45-.1.64.21-.79a4.61,4.61,0,0,0,.61,1.53,2,2,0,0,0,.54.79,2.37,2.37,0,0,1,.27-.22c.39,1.22.39,1.22.73,2.41a2.82,2.82,0,0,1-.23.46.57.57,0,0,1,.48.4l.21.61.15.08,0,0,.52.32.12.06h0c.37.22.89.54,2.2,1.44a7.69,7.69,0,0,1,.19,1.1l.12-.41c.1-.28.67-.38.67-.5a20.35,20.35,0,0,0-.21-2.22c-.12-.73-.3-1.45-.49-2.17-.38-1.43-.83-2.86-1.25-4.3a1,1,0,0,1,.1-1.34.85.85,0,0,1,1.23.25c5.58,3.62,8.41,10.68,8.71,17.25.35,1.61.74,3.19,1.13,4.78l.17-.33.09,1.32,0,.14c.19-.43.37-.86.56-1.28,0-.25,0-.49,0-.73a28.27,28.27,0,0,1-.92-5.58c-.18-1.89-.4-3.77-.72-5.68s-.22-4.06-.38-6.13a.85.85,0,0,1,.41-1.1.81.81,0,0,1,1,.59,37,37,0,0,1,4,9,21.57,21.57,0,0,1,.36,9.49,5.45,5.45,0,0,1,.31,3.28v0l.53-1c.1.88-.39,1.57-.4,2.41l.95-.71c.37,2.11,1,4.19,1.5,6.28a26,26,0,0,1,.59,3.12,15.79,15.79,0,0,1,0,3.15,3.67,3.67,0,0,1,0,.46,22.61,22.61,0,0,1,1.72,2.06l.38.57c0,.06.06.08.1.16l.18.46c.11.32.23.63.35.94.23.64.46,1.28.69,1.94s.39,1.34.57,2c-.17-1-.32-1.92-.55-2.86l-.63-2.77a2.34,2.34,0,0,1,.13.29l.15.36.3.73.59,1.47c.4,1,.68,2,1,3,.62,2,1.19,4.12,1.68,6.3,2.58,11.9,2.6,25.58.43,32.07a246.63,246.63,0,0,1,1,34,266.56,266.56,0,0,1-3.72,33.66,4.23,4.23,0,0,1-.91,2.29c-.29.07-.38-.72-.18-1.86l.46-3,.35-3c.23-2,.47-4,.7-6s.35-4,.53-6.05l.48-6.07c.08-2,.16-4.07.25-6.1s.2-4.07.17-6.11c0-4.08.09-8.16-.16-12.25a289.88,289.88,0,0,1-4.27,41c-.27,1.74-.44,3.51-.79,5.26s-.74,3.42-1.2,5.11C250,290.3,244.6,306.08,238,322.61c-.35.88-.7,1.76-1,2.63l-1.12,2.56-2.18,5c-1.46,3.32-3.07,6.49-4.58,9.7s-3.26,6.31-4.91,9.51-3.55,6.33-5.43,9.61a281.12,281.12,0,0,1-17.1,25.55,244.77,244.77,0,0,1-20,23c-1.93,2-4,3.56-4.54,3.49s.57-1.76,2.48-3.75a306.91,306.91,0,0,0,20.59-24.85,319.11,319.11,0,0,0,17.79-27,299.13,299.13,0,0,0,15-29.18,311.36,311.36,0,0,0,12.22-31.38c.41-1.17.77-2.34,1.12-3.52l1-3.5c.71-2.34,1.42-4.66,2-7a.52.52,0,0,1-.29.06c-.35-.08-.56-.6-.65-1.41-.35,1.32-.71,2.64-1.06,4s-.82,2.62-1.24,3.93c-.85,2.62-1.61,5.26-2.62,7.84a189.77,189.77,0,0,1-17.37,43.43,235.3,235.3,0,0,1-17.56,26.12,280.46,280.46,0,0,1-23.16,31.2,3.38,3.38,0,0,1-.92.86c-.2.08-.08-.19.25-.6l4.11-5.37,2.08-2.71,2-2.77,4-5.58,3.89-5.73c-1.13,1-2,1.44-2.27,1.09s0-1.51.81-3.06l-3.74,5c-.77,1-1.53,1.73-1.69,1.56s.31-1.07,1-2.06c2.51-3.41,5.07-6.78,7.43-10.29,1.19-1.75,2.43-3.46,3.58-5.24l3.43-5.34a290.41,290.41,0,0,0,14-27,7,7,0,0,1-2.45,2.09h0q-1,2.12-2,4.22c-11.65,26.17-28.85,50.62-49.65,71.64-.39.42-.78.71-.85.65s.18-.43.54-.8c3.09-3.22,6.22-6.39,9.14-9.75,1.47-1.67,3-3.29,4.4-5l4.24-5.13,0,0c-.28.24-.41.22-.21-.13a5.28,5.28,0,0,1,.88-1.07c.32-.27.39-.17.22.12a244.38,244.38,0,0,0,26.5-41.28,259,259,0,0,1-25,37.37c-.91,1.35-1.77,2.75-2.76,4.09a3.44,3.44,0,0,1-.88.86c-.15,0,0-.27.26-.64l.81-1.12c-1.85,2.15-3.57,3.57-3.93,3.21s.92-2.59,2.77-4.84c4.73-6.26,9.37-12.53,13.64-19.06l1.32-2.16,1.18-2.27a290.45,290.45,0,0,1-22,28.71c-.65.8-1.31,1.39-1.47,1.29s.26-.84.9-1.65a295.44,295.44,0,0,0,18-26.13,286.27,286.27,0,0,0,15.23-28c1.14-3.34,2.12-6.73,3.16-10.09s1.83-6.84,2.66-10.29c-.31.83-.68,1.64-1,2.47-4.21,10.58-8.24,20.39-12.79,29.94a196.53,196.53,0,0,1-16,28.07c-.31.47-.66.79-.78.79s0-.37.38-.83a222.39,222.39,0,0,0,15.62-27.61q1.44-3,2.84-6c.89-2,1.72-4,2.56-5.94.41-1,.83-2,1.24-2.94s.73-2,1.1-2.95l2.12-5.86q-1.25,2.88-2.48,5.76c-.4,1-.81,1.91-1.21,2.87l-1.3,2.83c-.85,1.89-1.71,3.78-2.56,5.66s-1.83,3.71-2.74,5.56l-1.36,2.79-1.47,2.74-2.94,5.48q-1.59,2.69-3.17,5.39l-1.61,2.69c-.56.9-1.14,1.77-1.71,2.65a7.94,7.94,0,0,1-1.2,1.54.78.78,0,0,1-.12.42,63.94,63.94,0,0,1-3.43,5.87,2.92,2.92,0,0,1-.83.94C185,378.71,185.12,378.43,185.38,378Zm48.3-240,.13-.23c0,.2-.07.41-.1.65l-1,1.29Zm-8.76-6.13h0l.5-.77ZM258.26,235c.15-4.87.43-9.73.43-14.58.18-4.87.07-9.72.16-14.62.21,2.37.42,4.72.62,7.09,0,1.84,0,3.69-.09,5.54s-.15,3.69-.22,5.53-.26,3.69-.4,5.53S258.43,233.11,258.26,235Zm-22.7-105.21a12.57,12.57,0,0,1-1.29,3.17,5.12,5.12,0,0,1,.95,1.53,28.12,28.12,0,0,1,1.49,4.61c.36-.39.46,0,.59.13l.33.5c-.36-1.68-.61-3.43-1-5.16A41.19,41.19,0,0,1,235.56,129.74Zm-7.2-9.54c0-.07,0-.14.08-.22l.8-.11Zm-1.33.23c0,.08,0,.17,0,.26C226.77,120.76,226.82,120.64,227,120.43Zm.26,2.4a1.66,1.66,0,0,0,.2-.47ZM209,135.22l3.64-1.21-3.54,1.08Z"/><path d="M238.93,235.34l.87-.49a5.13,5.13,0,0,1-1.54,1.56,22,22,0,0,0,5.73-4.68c1.69-1.82,3.1-4,4.82-6.16.85-1.08,1.76-2.15,2.74-3.21a35.51,35.51,0,0,1,10.66-7.93c1-.26,1.86-.54,2.77-.75s1.73-.44,2.49-.61c1.46-.38,2.63-.61,2.8-1,.46-.62-3.36-1.44-7.64-.37-.95.16-2.07.42-2.75.55a29.59,29.59,0,0,0-9.77,3.4,28.16,28.16,0,0,0-2.49,1.55l-1.23.88-1.07.78a46.57,46.57,0,0,0-4.06,3.46l1.67-1.32c.57-.44,1.17-.88,1.75-1.3a32.24,32.24,0,0,0-4.52,4.38l.85-.35c-2.54,2.32-5,5-7.41,7.31l-3.24,3.08a23.79,23.79,0,0,0-2.27,2.29c-1,1.26-.48,1.81,1.29,2a14.23,14.23,0,0,0,7.2-1.77c.43-.21.81-.42,1.2-.64S238.57,235.57,238.93,235.34Z"/><path d="M249.53,230.1a59,59,0,0,1-6.92,6l-.67.3,1.48.36,0-.07a20.43,20.43,0,0,1,2-4.3c1-1.66,2.09-3.58,3.41-5.44l.94-1.36a2.47,2.47,0,0,0,.54-1.51c-.14-.65-1.71.13-3.26,1.81-.56.64-1.15,1.3-1.67,1.93-2.15,2.25-4.64,5.06-6.92,7.35-1.15,1.16-2.18,2.18-3,3.08a4.34,4.34,0,0,0-1.37,2.2c0,.54,1.48.52,2.4.68a4,4,0,0,0,2.48-.17,8.7,8.7,0,0,0,3.08-1.82c1.83-1.7,2.52-3.65,1.8-4.13.35-.31.7-.64,1-.95-.11.31-.24.61-.36.92-.27-.84,1.09-2.78,1.88-4.48l1.56-2.41-2.69.39-.72,1.35c.15,0,.39-.18.39-.16a42,42,0,0,1-4.1,6.93c-.62.95-1.25,1.84-1.92,2.7-.35.74.47.92,1.69.38.57-.29,1.12-.57,1.65-.89-.28.14-.52.27-.8.39,3.15-2.26,5.56-5.16,8.11-7.94a2.77,2.77,0,0,0,.79-1.4C250.32,229.54,250,229.64,249.53,230.1Z"/><path d="M241.74,240a10.42,10.42,0,0,0-1.85,1.14l-.08.28c.36-.14.86-.35,1.33-.57C242.05,240.44,242.11,240.08,241.74,240Z"/><path d="M239.81,241.43l-.59.22.52-.11.06-.06Z"/><path d="M403.63,350.46a64.33,64.33,0,0,0,11.76-6.77A60.42,60.42,0,0,0,425,335a50.19,50.19,0,0,0,6.67-9.8,33.44,33.44,0,0,0,3.86-14.5c0-.39,0-.76,0-1.14l0-1.14v-.56l0-.64c0-.43,0-.85-.05-1.28-.08-1.72-.29-3.48-.55-5.26s-.59-3.59-1-5.46a102.23,102.23,0,0,0-3.41-11.63c-.34-1-.72-2-1.1-3s-.87-2.28-1.29-3.42c-.85-2.27-1.77-4.5-2.66-6.7-.47-1.2-1.1-2.09-1.37-2.06s-.06,1,.4,2.08l1.35,3.3,1.32,3.36c.42,1.13.84,2.27,1.28,3.4s.78,2,1.12,3A107.42,107.42,0,0,1,433,295c.43,1.84.79,3.62,1.06,5.38a47,47,0,0,1,.59,5.15c0,.43.07.85.08,1.26s.06.87.05,1.21c0,.72.07,1.48,0,2.21v1.13l-.11,1.13c0,.77-.21,1.51-.28,2.31a36.25,36.25,0,0,1-3.1,9.65,48.49,48.49,0,0,1-6.39,9.74,59.73,59.73,0,0,1-9.33,8.77A64.52,64.52,0,0,1,404,349.84a9.29,9.29,0,0,0-2.16,1.18C401.76,351.16,402.58,350.9,403.63,350.46Z"/><path d="M433.05,65.64c-.42,1-.2,1.11.5.19a24.21,24.21,0,0,0,2-3.25c.39-.85.15-.95-.49-.19A13.84,13.84,0,0,0,433.05,65.64Z"/><path d="M443.37,81.88Q442.65,84,441.93,86l-.69,2c-.2.67-.37,1.34-.54,2-.36,1.33-.69,2.63-1,3.89a32.56,32.56,0,0,0-.77,3.73,12.86,12.86,0,0,1-.74,2.58c.45-.2.47,1,.08,3a142.84,142.84,0,0,0-2,30.5,176.15,176.15,0,0,0,4.21,31A200.42,200.42,0,0,0,450,195c1,2.45,2,4.87,3.09,7.24s2.23,4.7,3.31,6.75l1.88,3.43,2.12,3.77c1.45,2.57,2.91,5.25,4.41,8a4.67,4.67,0,0,1,1.84,1.48c2.48,2.68,6.06,9.16,8.54,16.48.56,1.85,1.16,3.7,1.66,5.56,1.7,5.59,3.15,11.21,4.34,16.8.61,2.87,1.23,5.94,1.68,9s.86,6.15,1.09,9.31a105.66,105.66,0,0,1-.2,19.3,91.53,91.53,0,0,1-1.58,9.77c-.16.81-.38,1.62-.58,2.42s-.39,1.6-.65,2.45c-.51,1.65-.94,3.31-1.57,4.92a56.84,56.84,0,0,1-2.95,8.51c-.65,1.46-1.33,2.95-2.15,4.41l-1.23,2.22L471.69,339a74.15,74.15,0,0,1-10.44,13.54,80.75,80.75,0,0,1-12.73,10.68,90,90,0,0,1-29.48,13c1.36-.16,2.23-.18,2.28,0-.24.52-5.05,2.07-10.89,2.66-2.94.3-5.86.54-8.8.58a98.16,98.16,0,0,0,12.68-.9,108.58,108.58,0,0,0,12.6-2.55c1.19-.35,2.31-.66,3.33-.93a93.4,93.4,0,0,0,26.42-13.38,85.56,85.56,0,0,0,12.83-11.64,79.6,79.6,0,0,0,10.36-14.71,75.52,75.52,0,0,0,6.8-17.16,89,89,0,0,0,2.82-17.3,111.85,111.85,0,0,0-2.83-32.37c-.28-1.27-.6-2.5-.91-3.74s-.6-2.31-.93-3.47c-.62-2.28-1.34-4.56-2-6.84-1.48-4.54-3.08-9.07-4.91-13.51a213,213,0,0,0-12.28-24.8l-3.06-5.33-1.43-2.51-.6-1-.56-1c-1.54-2.87-3.15-6.1-4.6-9.36A195,195,0,0,1,442,155.6a9.84,9.84,0,0,1-.28-3.25c.15-.57.46-.49.71.54a155.53,155.53,0,0,0,8.55,25.2c1.75,4,3.57,7.89,5.56,11.68s4,7.52,6.21,11c1.08,1.7,2.17,3.45,3.12,4.69l4,6c.69,1,1.44,2.18,2.14,3.29s1.47,2.35,2.21,3.53c1.5,2.42,3,5,4.45,7.66a157.37,157.37,0,0,1,8.19,17.21,165.54,165.54,0,0,1,6.31,18.9,126.61,126.61,0,0,1,4.36,27.14,100.59,100.59,0,0,1-3,29.88A85.77,85.77,0,0,1,489,334.38,86.83,86.83,0,0,1,480.79,348a81.75,81.75,0,0,1-10.17,11.45,86.5,86.5,0,0,1-11.48,9.18A97.49,97.49,0,0,1,434,380.69a108.48,108.48,0,0,1-13.11,3.22,101,101,0,0,1-13.3,1.41A90.37,90.37,0,0,1,381,382.61a60.65,60.65,0,0,1-13.15-5.08c-.52-.26-1-.51-1.54-.78l-1.48-.88c-1-.59-2-1.16-2.91-1.79-1.83-1.32-3.69-2.56-5.36-4a70.33,70.33,0,0,1-9.44-9.56,79,79,0,0,1-7.28-10.47,88.63,88.63,0,0,1-5.47-11l-1.1-2.82c-.38-.93-.7-1.88-1-2.83s-.64-1.88-.92-2.86l-.81-3c-.12-.5-.28-1-.38-1.5l-.3-1.5-.59-3c-.22-2-.63-4-.75-5.94l-.28-2.95c0-1-.09-1.94-.17-2.91-.2-2-.09-3.86-.23-5.79-.14-7.66,0-15.17,0-22.56l0-10.88c0-1.78,0-3.56-.07-5.3s0-3.46-.1-5.17c0-.42,0-.85,0-1.27l-.06-1.19c0-.79-.07-1.58-.14-2.36-.09-1.57-.22-3.13-.41-4.65a68.09,68.09,0,0,0-1.48-8.71c-.19-.65-.36-1.33-.55-2s-.38-1.27-.6-1.85a32.85,32.85,0,0,0-1.42-3.23,12,12,0,0,0-.8-1.33,8.16,8.16,0,0,0-.81-1.16c-.14-.18-.28-.36-.41-.55l-.46-.44c-.16-.14-.28-.34-.44-.47l-.49-.4a6.06,6.06,0,0,0-.83-.67,7.21,7.21,0,0,0-.68-.41,2,2,0,0,1-.42-.26.31.31,0,0,1-.09-.11,1.1,1.1,0,0,1-.06-.18c0-.08,0-.07,0-.06s-.08,0-.15-.05-.11,0-.2,0a1.49,1.49,0,0,1-.28.11,4.48,4.48,0,0,0-1.46,1.86,16.46,16.46,0,0,0-1.47,5.14,23.41,23.41,0,0,0-.22,3.05c0,.52,0,1,0,1.57l.09,1.84c.19,2.5.39,5.19.53,8.11a45.38,45.38,0,0,1-.52,9.53c-.18.87-.36,1.73-.62,2.61l-.39,1.33-.49,1.33a24.32,24.32,0,0,1-1.2,2.61,32.42,32.42,0,0,1-1.78,2.71,20.89,20.89,0,0,1-10.61,7.25c-.51.14-1,.31-1.54.42l-1.57.27a21.06,21.06,0,0,1-3.17.25,28.71,28.71,0,0,1-3.2-.17,30.57,30.57,0,0,1-3.2-.62,27,27,0,0,1-3.15-1.14c-.51-.24-1-.5-1.54-.77l-.76-.41-.73-.49a18.25,18.25,0,0,1-2.8-2.21c-.44-.41-.87-.84-1.3-1.27s-.77-.94-1.15-1.43a15.68,15.68,0,0,1-1.08-1.49c-.31-.52-.61-1.05-.91-1.59a22.85,22.85,0,0,1-1.4-3.06l-.51-1.46-.43-1.41-.17-.63c-.18-.68-.35-1.35-.48-2-.28-1.32-.48-2.54-.67-3.75-.34-2.38-.54-4.55-.76-6.56s-.43-3.82-.72-5.38a10.86,10.86,0,0,0-1.16-3.62.94.94,0,0,0-.72-.55s-.08,0,0,0l.4-.09.79-.2.68-.19c.21-.05.41-.11.62-.18l1.09-.38a8.76,8.76,0,0,0,.89-.37,5.89,5.89,0,0,0,1.45-.83l-.26.27-.11.14,0,.07h0l1.1-1.41h0l0,0a.7.7,0,0,0,.12-.18c.17-.3-.12.17-.16,1.08a9.15,9.15,0,0,0,.37,2.93,10.69,10.69,0,0,0,.76,1.89,6.48,6.48,0,0,0,.35.6l-.14-.23a8.82,8.82,0,0,1-.76-1.64c.12.37.28.7.4,1s.05.15.06.26-.07.12-.22.07-.12-.08-.26-.08a2,2,0,0,1-.49,0,6.79,6.79,0,0,0-1,.08,6,6,0,0,0-2.93.68,19.06,19.06,0,0,1-3.13,1.35l-.73-.63-.28.24a3.28,3.28,0,0,1-2.56,1.37l-1-.48a6.64,6.64,0,0,1-2.72-3,1.9,1.9,0,0,1-1-.8c-1.32.43-2.63.44-3.44-.67-.56.39-.95.15-.85-.56a2.9,2.9,0,0,1,.27-.78h0a10.85,10.85,0,0,0-1.05.51c-.38.48-.64.75-.64.75-1,1.28-1,1.28-2,2.36a8.23,8.23,0,0,1-2.11,1.22,18.53,18.53,0,0,1-2.84.21,2.1,2.1,0,0,1-1.13-.35,1.31,1.31,0,0,1-.06-.27,18.74,18.74,0,0,1-1.68.85,6.61,6.61,0,0,1-.88.2,2,2,0,0,0-1-.09,2.17,2.17,0,0,1-.48-.1c0-.55,0-.56-.16-.62a.65.65,0,0,1,0-.3c.5-.52.7-.73.79-.81,1.38-.3,2-.5,2.32-.59l.32-.09-.17-.38.85-.09h-.68l.92-.49-1.15.53c.84-.67,1.21-1,1.48-1.25a6.19,6.19,0,0,0,.64-.7,6.55,6.55,0,0,0,1-1.25,1.11,1.11,0,0,1-.29,0c1.56-1.61,1.53-1.62,3-3.25a4.32,4.32,0,0,1,.56-.29,1.91,1.91,0,0,1,.46-.92l.74-.91.09-.23h0l.4-.9.08-.19h0a30.06,30.06,0,0,1,2.16-4A21.41,21.41,0,0,1,254.1,225l-.59.33c-.4.21-.4-.27-.58-.13a40.33,40.33,0,0,0-6,6,54.86,54.86,0,0,1-5.78,5.83,3.3,3.3,0,0,1-2,1.15c-.48,0-.24-.59.44-1.27,1.47-2.06,3.06-4.39,4.83-7,.89-1.3,1.82-2.74,2.93-4.13.56-.69,1.15-1.39,1.8-2.07.31-.34.66-.68,1-1s.66-.63,1.1-1a27.12,27.12,0,0,1,11.36-6.14,24.91,24.91,0,0,1,6.7-.88,21.68,21.68,0,0,1,7.09,1.2,19.67,19.67,0,0,1,9.27,6.15,20.88,20.88,0,0,1,2,2.78l-.24-.62a18.87,18.87,0,0,1,1.47,3.09l.13.33a19.44,19.44,0,0,0-.72-2.54c-.27-.55-.58-1.1-.9-1.65a23.94,23.94,0,0,0-2.55-3.09,16,16,0,0,0-1.58-1.44,15.06,15.06,0,0,0-1.81-1.33,21.9,21.9,0,0,0-8.23-3.2,26,26,0,0,0-8-.12,29.71,29.71,0,0,0-7.2,1.9,39,39,0,0,0-6.73,3.52c-.52.35-1,.71-1.55,1.09l-1.35,1c-.88.67-1.74,1.38-2.54,2.12s-1.44,1.26-1.59,1,.38-1.13,1.15-1.92,1.25-1.4,2-2.09l1.06-1,1.3-1.15a31,31,0,0,1,5.73-3.84,30.11,30.11,0,0,1,6.59-2.53,31.76,31.76,0,0,1,3.62-.73,31.19,31.19,0,0,1,3.9-.23,28.16,28.16,0,0,1,4.05.35,24.89,24.89,0,0,1,4.11,1.08,21.38,21.38,0,0,1,7.18,4.21,20.22,20.22,0,0,1,2.47,2.61,22.54,22.54,0,0,1,1.86,2.75,19.77,19.77,0,0,1,2.13,5.44,17.07,17.07,0,0,1,.92,7.34v.1c.12-.48.2-1,.29-1.51a12,12,0,0,1,0,1.23c0,.35-.08.67-.13,1-.09.65-.23,1.2-.31,1.92l.51-.56a46.41,46.41,0,0,1-.74,5.3c-.3,1.6-.63,3.09-1,4.46-.66,2.75-1.31,5.14-1.83,7.13l-.09.46c0,.84.11,1.61.19,2.35,0,.18.05.35.07.53v.16c0,.23,0,.48.05.69a5.87,5.87,0,0,0,.07.62,3.17,3.17,0,0,0,.1.48,2.87,2.87,0,0,0,.55,1.39,4.9,4.9,0,0,0,1.55,1.22,3.73,3.73,0,0,1-1.8-1.76,1.73,1.73,0,0,0-.14-.5,1.62,1.62,0,0,0-.06-.51c0-.27-.07-.54-.08-.86,0-.15,0-.31,0-.48s0-.42,0-.39v.15l0,.27c0,.19,0,.35,0,.51s0,.32.07.46a2.45,2.45,0,0,0,.07.37,2.65,2.65,0,0,0,.31,1,4.15,4.15,0,0,0,2.13,1.7,5.67,5.67,0,0,0,3.48.15,4.78,4.78,0,0,0,2.79-1.81,13.13,13.13,0,0,0,1.92-7.29,47.25,47.25,0,0,0-.21-4.93c-.18-1.73-.38-3.53-.61-5.42-.12-.91-.24-2-.31-3s-.11-2.11-.15-3.17a44.81,44.81,0,0,1,.38-6.49,28.67,28.67,0,0,1,1.74-6.76,20.55,20.55,0,0,1,4.22-6.67c.5-.5,1-1,1.58-1.45s1.15-.85,1.74-1.26a17.22,17.22,0,0,1,4-1.89,18.81,18.81,0,0,1,8.08-.73,22.44,22.44,0,0,1,6.8,2,28.32,28.32,0,0,1,5.23,3.24,28.61,28.61,0,0,1,7,8,17.84,17.84,0,0,1,1.09,2c.33.65.65,1.28.93,1.9.47,1.25,1,2.43,1.3,3.53a57.64,57.64,0,0,1,3.3,23.58c-.05,1-.12,1.93-.22,2.88s-.19,1.92-.32,2.82c-.27,1.82-.52,3.65-.85,5.43-.66,3.59-1.43,7.08-2.2,10.55-1.59,6.92-3.29,13.66-4.22,20.42s-1.16,13.54.27,19.9a37.78,37.78,0,0,0,3.17,9l1.2,2.16c.38.73.79,1.44,1.24,2.13l1.3,2.08,1.42,2,.71,1,.76,1,1.52,1.89c1.1,1.19,2.1,2.44,3.28,3.51a53.73,53.73,0,0,0,7.21,6,39.94,39.94,0,0,0,16.11,6.67,20.17,20.17,0,0,0,2.05.27l2,.12a16.83,16.83,0,0,0,2,0c.68,0,1.28,0,2-.08s1.41-.11,2.12-.19l2.11-.29c1.42-.27,2.81-.54,4.2-.91a29.82,29.82,0,0,1,4.76-1.05c.26.14-1.2.86-3.52,1.49a53,53,0,0,1-6.1,1.31l-1.55.21-1.54.13c-1.07.11-2,.1-3,.13-.49,0-1,.05-1.48,0l-1.48-.11c-.49,0-1,0-1.5-.11l-1.49-.24c-.5-.1-1-.16-1.51-.27l-1.5-.39-1.51-.4-1.49-.53c-8-2.83-15.54-8.6-21.45-15.93a64,64,0,0,1-7.65-12,38.8,38.8,0,0,1-3.67-13.61,65.47,65.47,0,0,1-.2-7.29c0-1.22.15-2.45.23-3.68s.24-2.46.4-3.69c.63-4.93,1.64-9.86,2.74-14.84-1,4.15-1.81,8.28-2.5,12.41a82.27,82.27,0,0,0-1,12.37,50.74,50.74,0,0,0,1.44,12,46.38,46.38,0,0,0,4.73,11,63.35,63.35,0,0,0,7,9.89,55.75,55.75,0,0,0,8.61,8.17,48.1,48.1,0,0,0,9.87,5.81,36.27,36.27,0,0,0,10.55,2.8l1.34.15,1.36,0c.91,0,1.75.08,2.73,0s1.89-.07,2.84-.18l1.42-.13,1.42-.22a75.31,75.31,0,0,0,10.94-2.55,65.14,65.14,0,0,0,23.44-14.22,48.36,48.36,0,0,0,13.07-20A35.47,35.47,0,0,0,439.63,310l0-1.25c0-.42,0-.91,0-1.36s0-.93-.06-1.39,0-.92-.08-1.39a57.21,57.21,0,0,0-.71-5.68,84.09,84.09,0,0,0-3-11.89q-1-3.06-2.28-6.21c-.45-1.11-.91-2.23-1.37-3.34s-.93-2.33-1.44-3.47a222.31,222.31,0,0,0-10.88-22c-2-3.57-4.11-7.19-6.42-11.21l-1.74-3.08-1.8-3.24c-.54-1-1.39-2.58-2-3.82s-1.28-2.54-1.86-3.8c-2.33-5-4.37-9.87-6.27-14.86s-3.53-10-5-15.19-2.79-10.44-3.94-15.84-2-10.94-2.71-16.63a172.35,172.35,0,0,1,.85-48A150.93,150.93,0,0,1,394.57,93c1.33-3.77,2.8-7.46,4.23-11.16,1.63-3.58,3.3-7.14,5.05-10.63a158.48,158.48,0,0,1,26.8-36.81,170.79,170.79,0,0,1,16.52-14.9c2.94-2.24,5.84-4.51,8.93-6.54s6.12-4.11,9.3-6a86.72,86.72,0,0,1,9.4-5A21.05,21.05,0,0,1,480,0c1.16,0-3.59,2.77-10.15,6.87-3.23,2-6.34,4.13-9.43,6.35l-4.59,3.41c-1.53,1.14-3,2.39-4.47,3.59l-2.21,1.83c-.74.62-1.44,1.27-2.16,1.91l-4.29,3.88-4.13,4.08L436.52,34c-.67.7-1.32,1.43-2,2.15q-2,2.16-3.93,4.36c-1.28,1.48-2.49,3-3.75,4.56-2.51,3-4.8,6.29-7.11,9.53-1.17,1.61-2.21,3.33-3.29,5s-2.13,3.41-3.18,5.12l-2.9,5.34c-.95,1.8-2,3.56-2.77,5.44l-2.55,5.59c-.41.94-.87,1.86-1.23,2.82l-1.08,2.9-2.14,5.82c-.72,1.94-1.24,4-1.86,5.94a154.21,154.21,0,0,0-4.94,24.32,176.77,176.77,0,0,0,1.09,48.67,206.64,206.64,0,0,0,13,46.19c1.55,3.76,3.15,7.46,5.12,11.37l.78,1.54.71,1.34,1.35,2.52,2.63,4.8c1.72,3.1,3.35,6,4.87,8.86s3,5.65,4.38,8.46c2.79,5.62,5.25,11.38,7.6,17.38l1.7,4.53c.52,1.4,1,2.8,1.46,4.2.94,2.78,1.71,5.55,2.37,8.28a67.8,67.8,0,0,1,2,16l0,1.95-.12,1.8c0,.6-.12,1.19-.18,1.8a16.14,16.14,0,0,1-.27,1.81,37.21,37.21,0,0,1-2,7.27c-3.12,8.34-9.24,16.49-17.38,22.85.15,0,.3,0,.35.1.21.35-.36,1.3-1.6,2.55,9.86-6.89,17.45-16.16,21.19-25.86a41.41,41.41,0,0,0,1.82-10.44c.12-1.66.06-3.61,0-5.42s-.29-3.71-.54-5.58a83.78,83.78,0,0,0-2.49-11.41c-.55-1.93-1.15-3.87-1.85-5.82-.32-1-.69-2-1-2.95l-1.18-3.05a265.8,265.8,0,0,0-10.92-24.79c-2.06-4.1-4.26-8.28-6.65-12.83-1.18-2.29-2.4-4.67-3.66-7.2l-1-2-1.05-2.24c-.66-1.46-1.27-2.85-1.85-4.27a173.67,173.67,0,0,1-7.5-22.75,184.77,184.77,0,0,1-4.36-22.5,180.87,180.87,0,0,1-.28-45,152.35,152.35,0,0,1,4.23-28.38c.3-1.17.56-2.34.89-3.5l1-3.47c.63-2.33,1.51-4.56,2.3-6.83L410,87.59l.61-1.69.71-1.65,2.88-6.55A158.58,158.58,0,0,1,428.5,53.34a175.16,175.16,0,0,1,18-21.21,13.26,13.26,0,0,1,2.69-2.3c.51-.26.05.38-1,1.44a170,170,0,0,0-23.33,30.67A153.46,153.46,0,0,0,409,98.74a19.33,19.33,0,0,1,2.77-4.36c.81-.92,1.45-1.28,1.88-1,.9.64.57,3.92-.09,8.82L414.87,98l1.51-4.19,1.52-4.18c.47-1.4,1.15-2.72,1.72-4.08,1.5-3.33,3-5.81,3.41-5.5s-.33,3.06-1.69,6.21c-1.25,2.7-2.2,5.53-3.2,8.34-.49,1.41-1,2.81-1.48,4.23l-1.27,4.3a151.71,151.71,0,0,0-3.76,17.52,161.77,161.77,0,0,0-1.31,35.62,194.39,194.39,0,0,0,8.75,41.45,196.39,196.39,0,0,0,7.64,19.76c.73,1.62,1.51,3.23,2.33,4.88l1.24,2.37L431.5,227l4.82,8.91c-1-3.64-1.39-6.56-1-8.24l0,0L432.4,222c-1-2-1.91-3.94-2.77-5.92A186.33,186.33,0,0,1,419,188.42a183.24,183.24,0,0,1-6.2-29.29,149.58,149.58,0,0,1,4.4-60.61,154.72,154.72,0,0,1,29.11-53.66,193.88,193.88,0,0,1,21-21.83A209.22,209.22,0,0,1,491.19,4.62a12.88,12.88,0,0,1,2.51-1.47,9.94,9.94,0,0,1-2.06,1.58c-20,13.51-38.09,30.29-52.24,50.36l.07-.08c.68-.73,1-.75.46.21a27.25,27.25,0,0,1-2.19,3.14c-.74.88-.88.67-.48-.17a149.15,149.15,0,0,0-15.85,30.5,156.62,156.62,0,0,0-5.1,16.51,144.82,144.82,0,0,0-3,17,154.85,154.85,0,0,0,.06,34A181.36,181.36,0,0,0,420.17,189c-5.32-19.89-7.71-40.79-5.71-61.51a137.18,137.18,0,0,1,6.39-30.46,140.87,140.87,0,0,1,12.81-28.18l1.48-3,1.63-2.94L438.43,60c.56-1,1.11-2,1.74-2.93a12.86,12.86,0,0,1,2.17-2.6c.33-.18,0,.67-.72,1.73s-1.38,2.09-2,3.2a68.37,68.37,0,0,1,6.1-7.63c1.77-1.73,3-2.61,3.36-2.27s-.43,2.12-1.73,4.48c-.62,1.19-1.4,2.57-2.3,4-.45.74-.93,1.51-1.43,2.29s-1,1.63-1.5,2.47c-11.06,18-18.64,38.05-21.16,58.89-.21,2.26-.36,4.53-.48,6.79.06,2.3.07,4.56.25,6.84a143.49,143.49,0,0,1,3.25-24c.91-3.93,1.9-7.84,3.18-11.66l1.94-5.71c.29-1,.69-1.89,1.07-2.82l1.15-2.79c1.43-3.76,3.3-7.34,5-11,.9-1.79,1.92-3.52,2.87-5.29l1.45-2.64c.5-.87,1.05-1.71,1.58-2.57l3.17-5.12,3.4-5c1.1-1.68,2.35-3.25,3.55-4.86s2.37-3.24,3.66-4.77c1.7-2.17,3.36-3.85,3.64-3.68s-.86,2.09-2.53,4.27c-1.07,1.4-2.05,2.85-3,4.32l-2.93,4.37-2.74,4.49-1.37,2.23-1.25,2.31L443.32,70c-.8,1.55-1.52,3.14-2.29,4.71-1.58,3.1-2.83,6.35-4.17,9.54-.71,1.59-1.23,3.24-1.8,4.88L433.37,94,432,99c-.43,1.67-1,3.3-1.3,5a135.88,135.88,0,0,0-3.09,20.35c-2.06,27.4,3.52,55.33,13.9,80.87,1.08,2,2.2,4,3.35,5.87s2.26,3.58,3.59,5.59c2.58,3.89,5.33,7.91,8,12.15A184.27,184.27,0,0,1,471,256.24c-.74-2.53-1.59-5.09-2.48-7.63a177.2,177.2,0,0,0-10.11-22.81c-1.83-3.53-3.69-6.88-5.44-10.06-.87-1.58-1.78-3.24-2.45-4.51s-1.47-2.93-2.2-4.44a209.83,209.83,0,0,1-13.73-38.23,156.36,156.36,0,0,1-4.95-40.28,124.77,124.77,0,0,1,2.06-20.63c.36-1.71.67-3.44,1.08-5.15s.91-3.43,1.37-5.15l.7-2.59.86-2.55c.59-1.7,1.17-3.42,1.76-5.13a5.66,5.66,0,0,1,1.43-2.5c.25-.06.05.94-.53,2.28q-.84,2.52-1.66,5c-.55,1.65-1.12,3.29-1.51,5-.84,3.34-1.74,6.62-2.3,10a123,123,0,0,0-2,19.88,162.27,162.27,0,0,0,4.47,39.79A187.47,187.47,0,0,0,445.77,198c1.06,2.48,2.17,4.91,3.33,7.26s2.38,4.69,3.55,6.65c1.35,2.34,2.79,4.74,4.27,7.2s3,5,4.49,7.65q-2.07-4.12-4.14-8l-3.94-7.4c-.5-.95-1.05-2.08-1.59-3.2s-1.08-2.29-1.61-3.46c-1.05-2.34-2.06-4.74-3-7.16a204.56,204.56,0,0,1-9.41-29.87,161.3,161.3,0,0,1-4.19-30.9c0-1.3-.11-2.61-.1-3.91l0-3.9c.11-2.6.18-5.22.41-7.81a119.26,119.26,0,0,1,2.24-15.56,16.21,16.21,0,0,1,1.49-4.64,2.11,2.11,0,0,1,0-1.1c.22-1.32.45-2.67.71-4s.71-2.73,1.08-4.13.74-2.82,1.18-4.24,1-2.82,1.5-4.24a9.51,9.51,0,0,1,1.44-2.87C443.85,79.9,443.76,80.64,443.37,81.88ZM272.93,221.38l-.35-.13a10.66,10.66,0,0,1,1.24.34l.21.12a11.38,11.38,0,0,1,1.37,1l-.74-.45C274.21,222,273.59,221.68,272.93,221.38Zm-14.6,9.75h0l-.86.27Zm79.14,83.74a64.73,64.73,0,0,1,.2-17.63c.78-5.91,2.1-11.81,3.42-17.77s2.66-12,3.51-18.31a68.57,68.57,0,0,0,0-19.82,67.14,67.14,0,0,1,.36,19.38c-1.29,9.54-3.71,18.54-5.57,27.48a109.07,109.07,0,0,0-2.08,13.39A57.18,57.18,0,0,0,337.47,314.87Zm-79.2-92.3a14.85,14.85,0,0,1,5.07-1.06,14.59,14.59,0,0,1,3.72-1.3,17.91,17.91,0,0,1,5.73-.27,15.82,15.82,0,0,1,5.76,1.85c-.36-.48.49,0,.94.25a11.3,11.3,0,0,1,1.29.82,15.65,15.65,0,0,0-5.9-3,19.11,19.11,0,0,0-6.38-.54A26.06,26.06,0,0,0,258.27,222.57ZM244.87,240l-.29.13a2.54,2.54,0,0,1-.23-.58Zm.45.94c.11-.09.22-.18.35-.27C245.79,240.87,245.63,240.94,245.32,241Zm3-2.59a2.87,2.87,0,0,0-.59.31ZM264,242.2c-.75-.67-1.44-1.34-2.11-2,.63.71,1.28,1.39,2,2.08Z"/><path d="M7.3,105.93c.19,0,.4,0,.59,0-.08.35-.4.6-.86.8a10.61,10.61,0,0,0,6.84-3.4A16.22,16.22,0,0,0,17.79,97,2.46,2.46,0,0,0,19,93.78a2.39,2.39,0,0,0-3.33-.66,3.89,3.89,0,0,1-1,.15,22.12,22.12,0,0,0-8.7.79L8,94a7,7,0,0,0-2.48.93l.66.35C2.89,95.66.05,98.45,0,101.41s2.63,5,5.84,4.65Z"/><path d="M15.68,108.51c-1.73.31-3.47.56-5.24.79l-.51-.14,1.28,1.4-.05-.11c.13-2.08,1.61-4,3.09-5.68l.47-.65a1.47,1.47,0,0,0,0-1.2,1.76,1.76,0,0,0-2.41-.65c-.37.18-.71.38-1.06.57-3,.88-6.74,3.63-5.93,7,.2.79,1.06,1.32,1.68,1.94a2.52,2.52,0,0,0,3.45.43,2.38,2.38,0,0,0,.82-3.29l.74-.23c-.05.23-.11.46-.17.69-.36-1.09.52-2.06.93-3.1l1-1.11-2.44-1.81-.37.76c.12.07.32.14.32.16a26.6,26.6,0,0,1-2.18,4.29l-.9,2a1.31,1.31,0,0,0,1.3,1.4l1.09,0L10,112c2-.7,3.92-1.67,5.9-2.31a.66.66,0,0,0,.5-.73A.55.55,0,0,0,15.68,108.51Z"/><path d="M10.37,113.07a1.62,1.62,0,0,0-1.13.35v.3h.82C10.65,113.73,10.65,113.37,10.37,113.07Z"/><path d="M9.24,113.72H8.89l.32.1s0,0,0,0Z"/><path d="M161.16,63.89c1.13.11,2.26.18,3.37.31l3.35.43,6.69.86,6.65,1.11,3.31.54,3.29.68,6.57,1.34,6.51,1.57,3.25.79c1.08.27,2.14.59,3.22.89l6.41,1.8c.58.16,1.08.22,1.13.11s-.35-.35-.89-.48L207.6,72l-3.22-.9-3.24-.8-6.51-1.59-6.56-1.35-3.29-.67-3.31-.56L174.83,65c-2.23-.32-4.46-.58-6.69-.88s-4.47-.59-6.73-.76a2,2,0,0,0-1.2.15C160.18,63.69,160.6,63.84,161.16,63.89Z"/><path d="M280.86,114c-.39-.13-.43,0-.1.24a4.74,4.74,0,0,0,1.21.68c.33.11.38,0,.1-.24A4.75,4.75,0,0,0,280.86,114Z"/><path d="M273.86,119.23c-1.05-.48-2.07-1-3.07-1.36s-2-.75-2.93-1.05a4.78,4.78,0,0,1-1-.48c0,.2-.42.15-1.19-.16a321.49,321.49,0,0,0-48.42-15.06,1.82,1.82,0,0,1-.82.26,16.8,16.8,0,0,1-6-.77l-1.75-.54c-1.78-.5-3.59-.89-5.38-1.33s-3.58-.91-5.39-1.26l-5.42-1.09-2.7-.55-2.72-.45A40.89,40.89,0,0,1,182,95.2c-3.19,0-6.39.11-9.58.14l-9.6.46c.39.16.62.35.61.55s-.49.42-1.09.56a9.28,9.28,0,0,1-2.26.25l-2.6.06c2.48.1,5,.13,7.43.39a7.06,7.06,0,0,1,1,.12c2.73.12,5.49.12,8.3.34a288,288,0,0,1,70.74,12.05,4,4,0,0,1,1.22.54c.18.17.09.27-.33.16-14.65-3.64-27.75-4.7-44-6.31a221.58,221.58,0,0,0-57.21,1.85,147.76,147.76,0,0,0-28.27,5.78A166.19,166.19,0,0,0,89.72,122.8c-1.5.67-2.91,1.52-4.36,2.27l-4.27,2.28L77,129.8c-1.36.81-2.75,1.56-4,2.46l-1,.64-.49.32-.18.13-.63.48-1.27.92c-.84.62-1.71,1.18-2.51,1.83-1.63,1.27-3.26,2.48-4.92,3.67s-3.19,2.53-4.81,3.77a5.06,5.06,0,0,1-4,1.46,6.48,6.48,0,0,1-4.22-2.21A7.43,7.43,0,0,1,47,137.48l-.65.46-1.25.43a5.12,5.12,0,0,1-3.8-.3l-1.65-.67c-2.72-1.59-5.74-2.2-8.48-4l-.55-1.06-.4-.11A6,6,0,0,1,27,130.83l-.83-1.14a13.67,13.67,0,0,1-1.88-4.36,4.66,4.66,0,0,1-.9-1.51,6.8,6.8,0,0,1-3.23-3.35,1,1,0,0,1-.77-1.16,1.06,1.06,0,0,1,.27-.5h0a9.81,9.81,0,0,0-1-.36c-.37.14-.6.2-.6.2-.93.42-.93.42-1.76.76a5.15,5.15,0,0,1-1.71-.18c-2.28-1.43-2.29-1.43-2.89-2.35a1.94,1.94,0,0,1-.07-.33c-.77.13-.83.14-1,.16a2.58,2.58,0,0,1-.53-.12c-.41-.44-.41-.44-.64-.53a2.25,2.25,0,0,1-.31-.32C9,115,9,115,8.89,114.86a2,2,0,0,1,0-.37l.36-.67,1.74.59-.17-.53.62.4-.51-.42h.63l-.79-.1a4.64,4.64,0,0,0,1.4-.81,1.93,1.93,0,0,0,.68-.64,1.89,1.89,0,0,1-.25-.24c1.13-.55,1.13-.55,2.24-1.06a3,3,0,0,1,.48.16.55.55,0,0,1,.32-.53l.56-.29.05-.15,0,0c.1-.22.16-.38.24-.55l0-.13h0c.16-.39.39-1,1.08-2.36a7.37,7.37,0,0,1,1-.35l-.42-.05c-.28-.06-.46-.6-.58-.58a17.44,17.44,0,0,0-2.13.53c-.68.23-1.36.5-2,.79-1.34.58-2.66,1.23-4,1.85a1,1,0,0,1-1.31.09.82.82,0,0,1,.06-1.23c2.7-6,9.14-9.75,15.48-11,1.51-.57,3-1.18,4.47-1.8l-.34-.12L29.06,95l.12,0-1.33-.36-.71.09a28.44,28.44,0,0,1-5.29,1.72c-1.8.47-3.61.94-5.41,1.54s-3.91.8-5.9,1.26a.85.85,0,0,1-1.14-.24.79.79,0,0,1,.43-1A35.77,35.77,0,0,1,18,92.66a20.91,20.91,0,0,1,9.17-1.75,5.58,5.58,0,0,1,3.13-.8l0,0-1-.35c.82-.27,1.58.14,2.39,0l-.83-.83c2-.66,3.93-1.58,5.88-2.37a30.66,30.66,0,0,1,3-1.06A14.9,14.9,0,0,1,42.76,85a3.29,3.29,0,0,1,.43-.09,22.15,22.15,0,0,1,1.76-2l.49-.45.15-.12.43-.24.87-.5a38.17,38.17,0,0,1,3.73-1.87c-.93.3-1.83.66-2.73,1l-2.65,1a1.92,1.92,0,0,1,.27-.17l.33-.2.68-.41,1.36-.8c.91-.54,1.85-1,2.81-1.47,1.91-.92,3.89-1.8,6-2.62,11.38-4.37,24.9-6.53,31.65-5.37a245.22,245.22,0,0,1,33.55-6.18,268.86,268.86,0,0,1,33.9-1.43,4.27,4.27,0,0,1,2.41.56c.11.27-.66.48-1.82.45a264.88,264.88,0,0,0-48.55,4.61,288.56,288.56,0,0,1,41.22-2c1.77,0,3.55-.07,5.34,0s3.5.22,5.24.43c17.69,1,34.15,4,51.53,8l2.77.63,2.7.72L221.92,78c1.76.44,3.47,1,5.18,1.51l5.12,1.56c3.4,1.07,6.74,2.29,10.17,3.44s6.81,2.57,10.34,3.93a282.53,282.53,0,0,1,27.92,13.11,245.93,245.93,0,0,1,25.84,16.34c2.25,1.62,4.12,3.42,4.13,4s-1.84-.29-4.09-1.89a311.39,311.39,0,0,0-27.75-16.69,320.1,320.1,0,0,0-29.49-13.56,296.48,296.48,0,0,0-31.18-10.51,312.27,312.27,0,0,0-33-7.39c-2.43-.45-4.87-.73-7.28-1.1l-3.62-.52c-1.21-.15-2.42-.26-3.63-.39a.48.48,0,0,1,.1.28c0,.36-.51.65-1.3.85l4.1.46c1.36.19,2.72.42,4.08.63l4.09.66,2,.33,2,.42a190,190,0,0,1,45.67,10.7A234.47,234.47,0,0,1,260,97.66,281.6,281.6,0,0,1,294.37,116a3.19,3.19,0,0,1,1,.79c.1.18-.18.1-.63-.17l-6-3.27-3-1.65-3.06-1.57-6.13-3.16-6.27-3c1.15,1,1.72,1.75,1.41,2.1s-1.5.2-3.15-.34l5.52,3c1.13.61,1.94,1.27,1.79,1.45s-1.12-.14-2.2-.7c-3.75-2-7.47-4-11.31-5.84-1.91-.92-3.79-1.9-5.73-2.77l-5.8-2.61A297,297,0,0,0,222,88.31a7.06,7.06,0,0,1,2.44,2.11h0l4.49,1.39c27.69,7.64,54.5,21.05,78.43,38.55.47.33.82.67.77.75s-.45-.11-.88-.41c-3.64-2.59-7.26-5.23-11-7.62-1.88-1.2-3.71-2.48-5.63-3.61L284.84,116l0,0c.28.24.28.37-.1.23a5,5,0,0,1-1.19-.72c-.32-.27-.23-.35.09-.23a245.2,245.2,0,0,0-44.88-20.12,257.26,257.26,0,0,1,40.77,19.24c1.48.7,3,1.34,4.47,2.12a3.16,3.16,0,0,1,1,.75c.07.14-.27,0-.68-.17l-1.22-.63c2.41,1.51,4.06,3,3.75,3.43s-2.7-.52-5.21-2c-6.9-3.76-13.81-7.43-20.92-10.69l-2.34-1-2.42-.84A290.76,290.76,0,0,1,287.69,123c.89.52,1.57,1.1,1.49,1.27s-.87-.12-1.77-.65a297.55,297.55,0,0,0-28.58-14,288.87,288.87,0,0,0-30-11c-3.48-.62-7-1.1-10.47-1.63-3.53-.37-7-.81-10.6-1.1.87.18,1.74.41,2.61.64,11.11,2.61,21.43,5.16,31.57,8.25a197.51,197.51,0,0,1,30.21,11.69c.5.25.88.55.89.67s-.37,0-.87-.25a222,222,0,0,0-29.7-11.39l-6.34-1.94-6.28-1.66-3.09-.78-3.09-.66c-2.06-.43-4.1-.85-6.13-1.23l6.08,1.6,3,.78,3,.86,6,1.71,5.92,1.89,3,.94,2.93,1,5.87,2.12c1.94.75,3.87,1.55,5.81,2.34l2.92,1.2c1,.41,1.91.87,2.88,1.3a8.08,8.08,0,0,1,1.7,1,.76.76,0,0,1,.43.06,67.09,67.09,0,0,1,6.33,2.52,3.18,3.18,0,0,1,1.06.69C274.62,119.46,274.33,119.42,273.86,119.23Zm-244.6-12-.24-.08h.65l1.39.73Zm-4.67,9.44h0l-.81-.38Zm96.62-48.2-7.27.83c-1.21.1-2.42.28-3.62.46l-3.62.49c-4.84.55-9.62,1.45-14.5,2.07l6.93-1.68,2.74-.44,2.76-.32,5.52-.62c1.83-.23,3.68-.34,5.53-.45ZM21,106.58a12.19,12.19,0,0,1,3.28.79,5.13,5.13,0,0,1,1.34-1.15,27.93,27.93,0,0,1,4.27-2.14c-.44-.29-.09-.44,0-.59l.43-.4c-1.58.61-3.25,1.1-4.86,1.76A43,43,0,0,1,21,106.58ZM12.76,115l-.23,0-.22-.76Zm.41,1.26.26-.06C13.54,116.45,13.41,116.42,13.17,116.25Zm2.31-.61a1.87,1.87,0,0,0-.49-.12Zm14.73,16-1.71-3.36,1.57,3.29Z"/><path d="M182.3,116.6c-.2-.09-.39-.18-.57-.28.12-.18.48-.19,1-.11a10.35,10.35,0,0,0-7.08-.49,9.46,9.46,0,0,0-2.45,1.17,7,7,0,0,0-1.62,1.48c-1.15.11-1.56.73-1.14,1.31a2.62,2.62,0,0,0,1.11.73,4.32,4.32,0,0,0,1.61.28,7.43,7.43,0,0,1,.9.21c.6.23,1.18.46,1.8.68l1.94.66,2,.67c.7.21,1.4.43,2.13.67-.64-.3-1.29-.58-1.91-.82a19.77,19.77,0,0,0,2.44.61l-.59-.47c3.14,1.3,6.41,1.69,7.07.2s-1.79-4.52-5.11-5.89Z"/><path d="M174.56,112c.82.11,1.7.27,2.56.46s1.73.41,2.62.67l.47.29-1-1.42,0,.1c-.42,1.36-2.21,2-3.78,2.63l-.52.27a.64.64,0,0,0-.11.73,2.57,2.57,0,0,0,2.16,1.06l1.07,0a23,23,0,0,0,2.36.3,13.08,13.08,0,0,0,2.27,0c1.42-.18,2.46-.7,2.33-2-.06-.62-.84-1.41-1.37-2.13a3.81,3.81,0,0,0-3.39-1.78c-1.31.1-1.86,1-1.33,1.91l-.76-.1.27-.4c.2.86-.8,1.17-1.36,1.68l-1.06.39,2.06,1.86.46-.32-.29-.2a14.67,14.67,0,0,1,2.78-1.82l1.25-.94c.19-.48-.29-1.16-1.07-1.51l-1.1-.42.54.26a51.52,51.52,0,0,0-6.11-.32c-.32,0-.57.14-.57.36S174.23,112,174.56,112Z"/><path d="M180.43,110.63a2.33,2.33,0,0,0,1.19.2l0-.21-.82-.34C180.26,110.05,180.2,110.3,180.43,110.63Z"/><path d="M181.67,110.62l.35.14-.3-.21s0,0,0,0Z"/><path d="M190.76,260.33c-1,24.84-2.15,49.82-3.7,74.78-.05.84,0,1.54.21,1.59s.34-.61.37-1.38c1.61-25,2.79-49.83,3.78-74.66a2.77,2.77,0,0,0-.3-1.65C190.93,259,190.78,259.55,190.76,260.33Z"/><path d="M168.1,446.57c-.06-.6-.17-.58-.26,0a10.65,10.65,0,0,0-.07,2.05c0,.5.17.49.25,0A10.35,10.35,0,0,0,168.1,446.57Z"/><path d="M159.88,441.13c-.28-3.49-.59-6.81-1-9.77a9.26,9.26,0,0,1-.05-1.64c-.18.2-.38-.47-.51-1.73-2.63-24.85-4.51-51.57-6.26-77.88a2.64,2.64,0,0,1-.65-1.12,29.32,29.32,0,0,1-1.11-9.28l.11-2.86c.18-11.55.39-23.07.8-34.55a71,71,0,0,1-.62-8.06c-.91-9.95-1.72-19.93-2.26-30.13-.2.63-.45,1-.72,1-.63-.21-1.09-2.58-1-5.33,0-1.39.08-2.78.17-4.17-.46,4-.54,8-.8,12,0,.57-.06,1.1-.12,1.58-.09,4.38-.09,8.79,0,13.29.42,39.22,4,76.08,7.74,112.67a7.6,7.6,0,0,1,0,2.07c-.1.35-.27.29-.37-.39-3.49-23.06-8.22-43-11-69.13-1.62-15.53-3-30.95-4-46.49-.26-3.89-.52-7.77-.71-11.68l-.3-5.86c-.1-1.95-.23-3.91-.22-5.87a57.56,57.56,0,0,1,5.29-23.65c4-8.28,9-16.37,12.8-24.51,1-2.08,1.81-4,2.71-6.34l.63-1.66c.23-.65.48-1.17.68-1.63.42-.92.82-1.7,1.13-2.49a15.64,15.64,0,0,0,1.21-9.44,13.48,13.48,0,0,0-1.75-4.35c-.44-.69-.94-1.4-1.61-2.35a19.21,19.21,0,0,1-2.2-4,16.75,16.75,0,0,1-1.06-5.26,17.48,17.48,0,0,1,.57-5.15,23.74,23.74,0,0,1,4-7.77,13.46,13.46,0,0,0,1-1.58l0,0v0s0,0,.09.06l.35.19c.23.12.48.22.73.32l.39.13.2.07a2.41,2.41,0,0,0,.66.18s0,0,0,0h-.21a2.58,2.58,0,0,0-.29,0l-.21,0h.1c.06,0,0,0-.4.18l-.3.17c-.13.07-.21.14-.36.23s-.31.21-.46.33l-.1.08h0s0-.16-.18-.31-.14-.16-.23-.26c-.41-.36-.74-.69-1.14-1-.8-.6-1.58-1.19-2.3-1.82a21.6,21.6,0,0,1-3.72-3.67,9.88,9.88,0,0,1-1.75-4.15,4,4,0,0,1-.14-1.21,10,10,0,0,1,0-1.23,10.34,10.34,0,0,1,.52-2.27,6.33,6.33,0,0,1,.64-1.37,6.4,6.4,0,0,1,.85-1.27,6.74,6.74,0,0,1,.46-.63l.61-.58a14.64,14.64,0,0,1,1.41-1.1,6.94,6.94,0,0,1,.8-.53,5.21,5.21,0,0,1,.87-.5c.66-.27,1.32-.56,2-.86,1.33-.57,2.84-.95,4.21-1.42l2.08-.7c.42-.15.63-.24.93-.37a9.53,9.53,0,0,0,1.34-.69,1.75,1.75,0,0,0,.28-.23h0s0,0,0,0l.08.09c.18.25.46.53.58.7a5.47,5.47,0,0,0,.51.56l.29.27.19.2a3.94,3.94,0,0,0,.45.36c.17.11.21.17.34.25s.28.14.31.16a.61.61,0,0,0,.2.09c.13,0,.19,0,.1,0a1.4,1.4,0,0,0-.34.12,1.88,1.88,0,0,0-.59.33,5.29,5.29,0,0,0-.87.62l-.18.19-.28.23-.54.51c-.17.18-.34.36-.49.55a2.25,2.25,0,0,1-.28.32c-.09.09,0,0-.06.05l-.09,0-.38-.08c-.65-.16-1.64-.4-2.72-.58-.56-.1-1.08-.2-1.75-.27l-2-.08c-.68,0-1.37-.2-2.06-.29a81.27,81.27,0,0,1-8.85-2l-1.67-1a4.45,4.45,0,0,0-.43-.26l-.55-.19-1.09-.4a8.68,8.68,0,0,1-1.06-.41l-.73-.57c-.49-.37-1-.75-1.44-1.13s-.93-.76-1.36-1.15l-.44-.39-.58-.52c-.79-.69-.48-1.58-1.35-2.25l-.5-.53a2.68,2.68,0,0,1-.44-.54l-.66-1.13-.55-1.15a11.68,11.68,0,0,0-.72-1.18c-.65-.8.08-1.59-.74-2.49l-.37-.66a3.5,3.5,0,0,1,0-.65l.06-.66c0-.1,0-.23-.09-.35l-.16-.37c-.17-.48-.56-1-.3-1.43l.16-.69.09-.34a1.46,1.46,0,0,0-.07-.39c-.12-.52-.26-1-.37-1.57l.57-1.37.14-.34a1.26,1.26,0,0,0,0-.39v-.79c0-.54-.05-1.06,0-1.6l.1-1.62,0-.4c0-.15.14-.22.2-.33l.49-.61,1-1.21a10.72,10.72,0,0,0,.56-1.46l.52-1.49,0-.09,0-.05-.06-.1-.26-.41-.13-.21s0-.07,0-.11l.08-.2.35-.81.35-.8.27-.71.54-1.32c.35-.84.73-1.72,1.11-2.55s.6-1.37.91-2a19.49,19.49,0,0,1,1-1.8,12.55,12.55,0,0,1,2.07-2.63c1.33-1.28,2.7-1.68,3.68-1,1.19.9,1.55,3.11,1.13,5.55.21-.34.43-.66.64-1,.4-.46.8-.94,1.2-1.36a5,5,0,0,1,3.46-1.87h1.43c2.32.54,5.1.33,7.47,1.75l.38,1,.37,0a3.72,3.72,0,0,1,2.85,1.17l.65,1.13a12.11,12.11,0,0,1,1.21,4.23,4.09,4.09,0,0,1,.66,1.4,5.73,5.73,0,0,1,2.63,3.22.8.8,0,0,1,.58,1.08,1,1,0,0,1-.34.36h0c.35.19.45.25.89.45l.6-.05c1-.15,1-.15,1.84-.23a5.56,5.56,0,0,1,1.66.59c2,1.84,2.05,1.88,2.51,2.79,0,.1,0,.2,0,.29.78.17.84.2,1.07.26a4.93,4.93,0,0,1,.51.31c.34.5.34.5.55.66a3,3,0,0,1,.27.38c0,.6,0,.59.09.75a.9.9,0,0,1,0,.29l-.46.33-1.65-1.11.08.45-.55-.53.44.5-.63-.24.78.37a4.65,4.65,0,0,0-1.54.06,1.52,1.52,0,0,0-.77.23,3,3,0,0,1,.21.25l-2.33.06a3.61,3.61,0,0,1-.44-.23c0,.14-.16.26-.39.27l-.59.06-.06.09,0,0-.29.32-.06.07h0c-.2.22-.49.53-1.29,1.33-.33,0-.68,0-1,0l.38.11c.25.08.36.46.47.47,1.36.08,2.71.14,4.05.16s2.76.09,4.19.23a1.51,1.51,0,0,1,1.33.5c.31.37.17.69-.27.76a10.07,10.07,0,0,1-3.24,1.43,24.42,24.42,0,0,1-3.84.74c-2.7.31-5.46.42-8,.51-.57.07-1.14.21-1.69.33l-1.51.35.23.06c-.25,0-.61,0-.56.15v0h.2a3.32,3.32,0,0,1,.39.07,3.76,3.76,0,0,0,.47,0,17.26,17.26,0,0,1,3.89-.45c.76,0,1.46,0,2.24,0l2.38.12a16.6,16.6,0,0,1,2.67.36l2.77.61a1.35,1.35,0,0,1,1,.55c.14.26-.1.43-.53.39-1.25.14-2.45.17-3.77.24-.63,0-1.23,0-1.88.05h-1.85c-1.26,0-2.39-.08-3.51-.12l-1.58-.16a3.58,3.58,0,0,1-.37-.06,1.6,1.6,0,0,0-.31-.05.23.23,0,0,1-.11.05,1.53,1.53,0,0,1-.84.31h0l.49.08c-.18.11-.6,0-.81.13l.62.2a1.51,1.51,0,0,0-.47,1.3c0,.47.22.85.25,1.21a.22.22,0,0,1,.05.08l1,.29.21.07.06,0,.17.08.35.16c.46.21.92.4,1.38.59a14.39,14.39,0,0,1-1.67-.91c.65.31,1.35.56,2,.79l.24.09.13,0,.06,0,.12.07,1.95,1.3c.68.46,1.38.91,2.14,1.46a27.06,27.06,0,0,1,2.48,2l.46.44c.17.17.34.37.51.55a12.26,12.26,0,0,1,1,1.36,8.7,8.7,0,0,1,.5.93,5.87,5.87,0,0,1,.42,1.1,11.07,11.07,0,0,1,.28,1.27,8.68,8.68,0,0,1,0,1.35,7.41,7.41,0,0,1-1.79,4.32,9.63,9.63,0,0,1-2.3,2,23.45,23.45,0,0,1-3.64,1.78l-1.16.46-.35.11a9.75,9.75,0,0,0-1.47.55,1.61,1.61,0,0,0-.62.51l-.1.18a1.21,1.21,0,0,1,0,.19.68.68,0,0,0,.1.35,4.9,4.9,0,0,0,1,1l.28.24.14.12.07.07v0l0,0h0l.17.13a16,16,0,0,1,2.66,2.62,12.53,12.53,0,0,1,2,3.71,11.91,11.91,0,0,1,.48,2.05,17.91,17.91,0,0,1,.08,2.06,13.81,13.81,0,0,1-.29,2,12.84,12.84,0,0,1-.57,1.72,13.63,13.63,0,0,1-.7,1.38c-.24.37-.48.75-.71,1.07a26.89,26.89,0,0,1-2.11,2.77c-.58.71-1.1,1.3-1.47,1.82a6.18,6.18,0,0,0-1.29,2.82,4.23,4.23,0,0,0,0,1.36,5.24,5.24,0,0,0,.63,1.7c.78,1.5,2,3.55,3,5.59A55.39,55.39,0,0,1,174.5,194c.44,2.24.71,4.55.95,6.73l.18,1.55c.08.53.16.84.26,1.33.2.9.44,1.79.66,2.67.5,1.9,1,3.85,1.66,5.76s1.3,3.9,2,5.84c1.39,3.89,3,7.81,4.42,11.7a99.35,99.35,0,0,1,6.27,23.36c.21,1.61,0,3-.29,3.32s-.71-.9-.89-2.51a98.17,98.17,0,0,0-3.92-16.79c-1.8-5.63-4-11.26-6-16.92-1-2.81-1.9-5.64-2.73-8.45-.4-1.4-.78-2.8-1.12-4.2l-.26-1-.22-1c-.15-.65-.29-1.3-.42-2-.26-1.16-.34-2.81-.51-4.39s-.37-3.24-.67-4.85a53.19,53.19,0,0,0-2.54-9.4,50.59,50.59,0,0,1,2.15,7.83,66.39,66.39,0,0,1,1,8.06c.05.65.08,1.28.15,1.85s.16,1.06.25,1.62c.21,1.12.4,2.16.66,3.38.51,2.36,1,4.7,1.71,7.11,2.51,9.53,5.88,19.19,7.52,28.89.5,2.47.89,5,1.19,7.46a46.18,46.18,0,0,1,.24,7.33c-.1,12.37-.44,24.44-.7,36.57s-.52,24.33-.67,37c-.25,21.6-.67,40.49-1.64,62-1.42,30.19-4,57.69-9.73,87.5a45.5,45.5,0,0,1-2.06,8.1c-.35.47,0-2.4.64-6.38,2.48-15.55,4.13-31,5.39-46.52s2.1-31,2.73-46.59c1.27-31.19,1.81-62.73,2.85-95.25.21-7,.41-13.91.62-20.78a.69.69,0,0,1-.37.17c-.48,0-.92-.67-1.28-1.77q-.39,11.7-1.06,23.53c.51,21.94.66,43.9-1,67.28-1.16,16.05-2.9,30.57-4.54,45.42-.77,18.81-1.79,37.58-3.59,56.58a8.8,8.8,0,0,1-.28,1.82c-.11.27-.14-.14-.09-.91.85-13.07,1.38-26.46,1.76-40-.5,2.13-1,3.39-1.54,3.22s-.9-1.83-1.14-4.36l-.46,9.19c-.11,1.89-.38,3.38-.62,3.33s-.39-1.56-.31-3.36q.74-18.75,1.49-37.46c.14-15,.2-29.92.24-44.94A10.88,10.88,0,0,1,169,356h0c0,2.33-.05,4.64-.08,6.95q.9,31.83.27,64.3t-2.9,65.29a8.38,8.38,0,0,1-.18,1.58,5.61,5.61,0,0,1,0-1.42q1.23-19.82,1.94-39.51v0c-.09.53-.2.63-.25.05a11.87,11.87,0,0,1,.08-2.06c.09-.61.2-.55.25-.06.86-24.46,1.06-48.76.6-72.74q-.45,33.42-1.67,66.8c.06,2.43.11,4.85.16,7.31a7.85,7.85,0,0,1-.18,1.82c-.09.19-.17-.31-.17-1s0-1.36,0-2c-.16,4.21-.64,7.46-1.11,7.38-.48-.23-.83-3.86-.78-8.23q0-17.58.08-35.08l-.1-3.79c-.11-1.27-.21-2.54-.32-3.81-.38,18.16-.73,36.28-.86,54.3a7.84,7.84,0,0,1-.27,2.9,7.08,7.08,0,0,1-.33-2.77c-1.1-31.77-2.38-63.92-3.13-96.22-1.38-10.61-2.86-21.26-4.35-32.1,0,1.36,0,2.74,0,4.12.18,17.56,1.46,33.79,2.7,49.89s2.47,32,3.07,49a4.29,4.29,0,0,1-.13,1.67c-.11.09-.23-.49-.25-1.35-.72-16.6-2.11-31.75-3.3-48.21-1-13.64-1.92-26.62-3.15-39.3.83,25.91,3,50.77,4.4,76.44a16.76,16.76,0,0,1,0,3,1.53,1.53,0,0,1,.18.64c.41,3.2.74,6.71,1,10.28a6.81,6.81,0,0,1,0,1.91C160.08,442.31,160,441.9,159.88,441.13Zm2.5-329.2.2,0L162,112l-1.11-.28S161.62,111.81,162.38,111.93Zm4.86-6.89h0l.71.3Zm7.4,99.63c-.14-.79-.28-1.59-.36-2.35l-.21-2.71c-.13-1.89-.32-3.82-.64-5.73a48,48,0,0,0-5.58-16.15,13.41,13.41,0,0,1-1.74-3.73,4.09,4.09,0,0,1,0-1.36,5.94,5.94,0,0,1,.33-1.44,9.2,9.2,0,0,1,1.73-2.74,9.33,9.33,0,0,0-1.62,2.69,5.85,5.85,0,0,0-.28,2.67c0,1.12,1.69,3.54,3,6.15a49.18,49.18,0,0,1,3.09,8.12,52.28,52.28,0,0,1,1.62,8.61c.16,1.45.24,2.9.32,4.29,0,.67.07,1.37.15,1.9S174.54,204.08,174.64,204.67Zm-5.15-92.28a21.05,21.05,0,0,1-2.82-.73,5.26,5.26,0,0,1-1.26.7c-1.2.53-2.44,1-3.55,1.53.35.12.08.25,0,.35s-.24.18-.34.27c.62-.25,1.25-.5,1.88-.71s1.37-.41,2.06-.6,1.32-.34,2-.49A13.75,13.75,0,0,1,169.49,112.39Zm8.86-4,.22.11.1.64S178.54,108.8,178.35,108.37Zm-.2-1.09-.26,0C177.82,107,177.94,107.08,178.15,107.28Zm-2.37-.21a1.67,1.67,0,0,0,.46.22ZM163.86,91.84,165,95,164,91.89Z"/></g></g></svg>