<svg xmlns="http://www.w3.org/2000/svg" viewBox="0 0 526.14 413.71"><g id="Layer_2" data-name="Layer 2"><g id="Layer_1-2" data-name="Layer 1"><path d="M69.76,116.1c0,.19-.08.39-.12.58a1.26,1.26,0,0,1-.67-1,10.86,10.86,0,0,0,2.37,7.39A16.74,16.74,0,0,0,77.19,128a2.49,2.49,0,0,0,3,1.69,2.44,2.44,0,0,0,1.16-3.25,3.67,3.67,0,0,1,0-1,22.55,22.55,0,0,0,.51-8.87c-.08.67-.16,1.38-.24,2.06a7.57,7.57,0,0,0-.56-2.65l-.45.62c.12-3.36-2.25-6.64-5.22-7.14s-5.43,1.89-5.54,5.17Z"/><path d="M65.91,124.14c0-1.79,0-3.58,0-5.39l.22-.49-1.6,1.07.12,0c2.07.45,3.81,2.23,5.23,4l.58.58a1.47,1.47,0,0,0,1.2.16,1.79,1.79,0,0,0,1-2.33c-.11-.39-.27-.77-.41-1.15-.43-3.13-2.62-7.33-6.18-7-.82.08-1.48.87-2.2,1.4a2.57,2.57,0,0,0-1,3.4,2.42,2.42,0,0,0,3.18,1.32l.12.78-.67-.27c1.15-.21,2,.83,3,1.4l1,1.14,2.18-2.17L71,120c-.09.12-.19.31-.21.31a27.43,27.43,0,0,1-4-2.85l-1.89-1.21a1.32,1.32,0,0,0-1.6,1.1l-.13,1.1.14-.55c.4,2.13,1.08,4.19,1.43,6.28a.68.68,0,0,0,.65.62A.55.55,0,0,0,65.91,124.14Z"/><path d="M62.13,118.1a1.57,1.57,0,0,0-.18-1.19l-.3,0c0,.23-.08.53-.12.83C61.43,118.28,61.79,118.34,62.13,118.1Z"/><path d="M61.65,116.86c0-.2.06-.34.06-.34l-.16.3.05,0Z"/><path d="M88.23,275.05c-.49,2.2-1.14,4.36-1.75,6.52s-1.2,4.32-1.86,6.46l-2.08,6.39c-.35,1.06-.68,2.13-1.05,3.18l-1.16,3.15L78,307l-2.53,6.18-1.26,3.08-1.37,3-2.74,6.06c-.24.54-.39,1-.28,1.09s.39-.3.62-.8l2.75-6.06,1.38-3,1.27-3.08,2.53-6.18,2.33-6.27,1.15-3.14c.39-1.05.71-2.12,1.07-3.18L85,288.35c.68-2.14,1.25-4.31,1.88-6.46s1.27-4.32,1.77-6.52a2,2,0,0,0,0-1.21C88.57,274.11,88.37,274.5,88.23,275.05Z"/><path d="M20.92,385.64c.19-.37.1-.42-.21-.13a4.71,4.71,0,0,0-.86,1.09c-.15.31-.05.37.22.13A4.89,4.89,0,0,0,20.92,385.64Z"/><path d="M16.87,378c.63-1,1.24-1.91,1.8-2.84s1-1.85,1.47-2.73a4.58,4.58,0,0,1,.62-.88c-.21,0-.09-.43.32-1.15a317.9,317.9,0,0,0,22-45.57A1.74,1.74,0,0,1,43,324a16.55,16.55,0,0,1,1.62-5.77l.8-1.65c.77-1.68,1.4-3.41,2.1-5.11s1.41-3.41,2-5.13l1.87-5.19.94-2.58.85-2.62a41,41,0,0,1,.93-5.07c.3-1.56.45-3.15.66-4.73s.41-3.15.61-4.73c.38-3.17.61-6.36,1-9.55-.23.37-.45.57-.64.52-.44-.21-.52-1.73-.3-3.43.11-.85.21-1.71.32-2.57-.45,2.44-.87,4.88-1.49,7.28a9.51,9.51,0,0,1-.25,1c-.51,2.67-.94,5.39-1.56,8.13a286.89,286.89,0,0,1-22.29,68,3.94,3.94,0,0,1-.71,1.13c-.19.15-.28.05-.1-.35C35.07,337.67,38.05,324.9,42,309a221.26,221.26,0,0,0,6.53-56.73A148.9,148.9,0,0,0,47,223.58l-.55-3.5-.28-1.74-.36-1.74c-.5-2.31-1-4.63-1.49-6.94s-1.22-4.6-1.83-6.92-1.43-4.6-2.13-6.92c-.45-1.57-1-3.1-1.59-4.62s-1.08-3-1.63-4.55-1.21-3-1.8-4.42-1.13-2.94-1.82-4.35l-.5-1.07-.24-.53-.11-.19-.38-.71-.74-1.4c-.5-.93-.94-1.89-1.45-2.8-1-1.82-2-3.64-3-5.47-.46-.93-1-1.81-1.51-2.7l-1.55-2.68c-1.86-2.52-1.11-6,2-8.1a7.54,7.54,0,0,1,6.1-1.06l-.37-.72-.24-1.31a5.21,5.21,0,0,1,.86-3.77l.93-1.54c2-2.5,3.06-5.43,5.24-7.92l1.14-.39.17-.39a6,6,0,0,1,1.94-3l1.27-.67a14,14,0,0,1,4.66-1.23,4.85,4.85,0,0,1,1.65-.68,7,7,0,0,1,3.85-2.74,1,1,0,0,1,1.28-.59,1.05,1.05,0,0,1,.46.35h0a9.79,9.79,0,0,0,.5-.93,5.94,5.94,0,0,1-.1-.63c-.28-1-.28-1-.5-1.88a5.14,5.14,0,0,1,.43-1.69c1.79-2.08,1.78-2.09,2.79-2.56l.35,0c0-.79,0-.85,0-1.07a3,3,0,0,1,.21-.51c.49-.34.49-.34.62-.56a2.56,2.56,0,0,1,.37-.27c.75,0,.75,0,.92-.1a1.66,1.66,0,0,1,.38,0l.61.46-.84,1.67.55-.1-.49.57.49-.45-.1.63.22-.78a5,5,0,0,0,.6,1.53,2,2,0,0,0,.54.78,1.51,1.51,0,0,1,.28-.21c.38,1.21.38,1.21.73,2.41a3.94,3.94,0,0,1-.23.46.54.54,0,0,1,.48.4l.21.61.14.07,0,0,.52.32.12.06h0c.36.22.88.54,2.19,1.44a7.52,7.52,0,0,1,.2,1.1,3.31,3.31,0,0,1,.12-.42c.09-.27.66-.38.66-.5a18.52,18.52,0,0,0-.21-2.22c-.12-.73-.3-1.44-.48-2.16-.38-1.43-.84-2.86-1.26-4.31a1,1,0,0,1,.11-1.33.83.83,0,0,1,1.22.25c5.58,3.62,8.42,10.68,8.71,17.25.35,1.6.74,3.19,1.14,4.77l.16-.32.09,1.32,0,.13c.18-.42.37-.85.55-1.28,0-.24,0-.48,0-.73a29.71,29.71,0,0,1-.92-5.57c-.17-1.9-.4-3.78-.71-5.68-.36-2-.22-4.06-.39-6.13a.86.86,0,0,1,.42-1.11.82.82,0,0,1,1,.6,36.07,36.07,0,0,1,4,9,21.72,21.72,0,0,1,.37,9.49,5.58,5.58,0,0,1,.31,3.27v.06c.18-.34.35-.65.54-1,.09.88-.39,1.57-.41,2.4l1-.7c.36,2.11,1,4.19,1.49,6.27a28.75,28.75,0,0,1,.6,3.13,16.58,16.58,0,0,1,0,3.15,2.27,2.27,0,0,1,0,.45,21.55,21.55,0,0,1,1.73,2.07c.13.19.26.37.38.57l.09.16.18.46.36.94c.22.63.45,1.28.69,1.93s.38,1.35.57,2c-.18-1-.33-1.92-.56-2.86s-.42-1.84-.63-2.78a2.29,2.29,0,0,1,.14.3l.15.36.3.73.58,1.46c.4,1,.68,2,1,3,.63,2,1.19,4.11,1.69,6.3,2.57,11.89,2.6,25.58.43,32.07a249.76,249.76,0,0,1,1,34,268.26,268.26,0,0,1-3.72,33.65,4.22,4.22,0,0,1-.92,2.29c-.28.08-.37-.72-.17-1.86l.46-3,.35-3q.34-3,.7-6c.27-2,.34-4,.53-6s.31-4,.47-6.07.17-4.06.25-6.09.21-4.07.17-6.11c0-4.08.09-8.17-.15-12.25a291.08,291.08,0,0,1-4.28,41c-.26,1.75-.44,3.51-.79,5.26s-.74,3.43-1.2,5.11c-3.65,17.3-9.08,33.08-15.67,49.61-.35.88-.69,1.76-1,2.63l-1.11,2.56-2.19,5c-1.46,3.31-3.06,6.48-4.57,9.7s-3.27,6.31-4.92,9.51-3.55,6.33-5.43,9.6a277.69,277.69,0,0,1-17.1,25.55,245,245,0,0,1-20,23c-1.93,2-4,3.56-4.54,3.48S9.21,412,11.13,410a311.13,311.13,0,0,0,20.59-24.85A320,320,0,0,0,49.5,358.07a299,299,0,0,0,15-29.17,308.22,308.22,0,0,0,12.21-31.39c.42-1.16.78-2.33,1.12-3.51l1.06-3.51c.71-2.33,1.42-4.65,2-7a.51.51,0,0,1-.29.05c-.35-.08-.57-.6-.65-1.41-.36,1.32-.71,2.65-1.07,4L77.67,290c-.86,2.61-1.62,5.26-2.62,7.83a189.88,189.88,0,0,1-17.38,43.44,236.2,236.2,0,0,1-17.55,26.12A281.81,281.81,0,0,1,17,398.63a3.3,3.3,0,0,1-.92.85c-.2.08-.07-.18.26-.59l4.11-5.38,2.07-2.7,2-2.77,4-5.58,3.89-5.74c-1.13,1-2,1.45-2.27,1.09s0-1.5.8-3.05l-3.73,5c-.77,1-1.54,1.72-1.7,1.56s.31-1.08,1-2.06C29,375.85,31.61,372.48,34,369c1.19-1.75,2.44-3.47,3.58-5.24L41,358.39a291.67,291.67,0,0,0,14-27,7.14,7.14,0,0,1-2.44,2.09h0l-2,4.23C38.86,363.85,21.66,388.3.87,409.31c-.4.42-.78.72-.86.66s.18-.43.55-.8c3.09-3.22,6.22-6.39,9.14-9.75,1.46-1.68,3-3.3,4.39-5l4.24-5.14,0,0c-.27.23-.4.21-.21-.13a5.33,5.33,0,0,1,.89-1.07c.32-.27.38-.18.22.12a245.12,245.12,0,0,0,26.49-41.28,256.74,256.74,0,0,1-25,37.36c-.91,1.36-1.77,2.76-2.75,4.1a3.45,3.45,0,0,1-.89.86c-.14,0,0-.28.27-.65l.8-1.11c-1.84,2.15-3.56,3.57-3.93,3.2s.92-2.58,2.78-4.84c4.72-6.25,9.37-12.52,13.64-19.05l1.32-2.17c.39-.75.78-1.51,1.18-2.26a290.55,290.55,0,0,1-22,28.71c-.64.8-1.31,1.39-1.46,1.29s.25-.85.9-1.65a296.82,296.82,0,0,0,18-26.13,285.39,285.39,0,0,0,15.24-28c1.14-3.34,2.11-6.74,3.15-10.1s1.83-6.83,2.66-10.29c-.31.83-.68,1.65-1,2.48-4.22,10.58-8.24,20.38-12.79,29.93a198,198,0,0,1-16,28.08c-.32.46-.67.79-.79.79s0-.37.38-.83A221.24,221.24,0,0,0,35,349.06l2.85-6c.88-2,1.72-4,2.56-5.95l1.23-2.93,1.11-3q1.06-2.94,2.11-5.86l-2.47,5.76L41.17,334l-1.29,2.83-2.57,5.66-2.73,5.56-1.37,2.79-1.46,2.73-2.95,5.49-3.17,5.38L24,367.17c-.55.89-1.14,1.77-1.71,2.65a7.86,7.86,0,0,1-1.19,1.54.85.85,0,0,1-.13.42,66.54,66.54,0,0,1-3.42,5.87,3.46,3.46,0,0,1-.83.94C16.53,378.73,16.62,378.45,16.87,378ZM65.18,138l.12-.24-.1.66-.94,1.29Zm-8.76-6.13h0l.5-.76ZM89.76,235c.14-4.87.43-9.72.43-14.58.17-4.86.06-9.71.16-14.61q.3,3.54.62,7.08c0,1.85,0,3.7-.1,5.55l-.21,5.53c0,1.84-.26,3.68-.41,5.52S89.92,233.13,89.76,235ZM67.05,129.76a12.21,12.21,0,0,1-1.29,3.17,5.22,5.22,0,0,1,1,1.52,29.22,29.22,0,0,1,1.49,4.62c.36-.39.45,0,.58.13l.34.5c-.37-1.68-.62-3.43-1-5.16A41.19,41.19,0,0,1,67.05,129.76Zm-7.2-9.54.09-.22.79-.11Zm-1.33.22,0,.27C58.27,120.78,58.32,120.66,58.52,120.44Zm.27,2.41a1.94,1.94,0,0,0,.19-.48ZM40.54,135.24,44.17,134l-3.54,1.08Z"/><path d="M70.42,235.34l.87-.49a5,5,0,0,1-1.54,1.56,22,22,0,0,0,5.73-4.68c1.69-1.82,3.1-4,4.82-6.16.86-1.08,1.77-2.15,2.74-3.21a37,37,0,0,1,3.42-3.25,35.6,35.6,0,0,1,7.24-4.68c1-.26,1.87-.54,2.78-.75s1.73-.44,2.48-.61c1.47-.38,2.63-.61,2.81-1,.46-.62-3.36-1.44-7.65-.37-.94.16-2.07.42-2.74.55a29.51,29.51,0,0,0-9.77,3.4,26.77,26.77,0,0,0-2.49,1.55l-1.24.88-1.07.78a49.73,49.73,0,0,0-4.06,3.46L74.42,221c.58-.44,1.17-.88,1.75-1.3a32.8,32.8,0,0,0-4.52,4.38l.86-.35c-2.55,2.32-5,5-7.41,7.31l-3.24,3.08a21.63,21.63,0,0,0-2.27,2.29c-1,1.26-.49,1.81,1.29,2a14.25,14.25,0,0,0,7.2-1.77c.42-.21.8-.42,1.19-.64S70.07,235.57,70.42,235.34Z"/><path d="M81,230.1a59.72,59.72,0,0,1-6.91,6l-.68.3,1.48.36,0-.07a21.08,21.08,0,0,1,2-4.3c1-1.66,2.08-3.58,3.41-5.44l.93-1.36a2.41,2.41,0,0,0,.54-1.51c-.13-.65-1.71.13-3.25,1.81-.57.64-1.15,1.3-1.67,1.93-2.16,2.25-4.65,5.06-6.93,7.35-1.15,1.16-2.18,2.18-3,3.08s-1.36,1.6-1.37,2.2,1.48.52,2.39.68a4,4,0,0,0,2.49-.17,8.75,8.75,0,0,0,3.07-1.82c1.83-1.7,2.52-3.65,1.81-4.13.34-.31.7-.64,1-.95-.1.31-.24.61-.35.92-.27-.84,1.09-2.78,1.87-4.48l1.57-2.42-2.7.4L76,229.85c.14,0,.39-.18.38-.16a41.33,41.33,0,0,1-4.1,6.93c-.62.95-1.25,1.84-1.92,2.7-.35.74.48.92,1.7.38.57-.29,1.12-.57,1.64-.89-.27.14-.52.27-.79.39,3.15-2.26,5.56-5.16,8.11-7.94a2.81,2.81,0,0,0,.78-1.4C81.81,229.54,81.45,229.64,81,230.1Z"/><path d="M73.23,240a11.18,11.18,0,0,0-1.85,1.14l-.07.28c.36-.14.86-.35,1.32-.57C73.54,240.44,73.6,240.08,73.23,240Z"/><path d="M71.31,241.43l-.6.22.52-.11.06-.06Z"/><path d="M235.12,350.46a63.67,63.67,0,0,0,11.76-6.77,60,60,0,0,0,9.57-8.73,49.75,49.75,0,0,0,6.67-9.8,38.3,38.3,0,0,0,3.37-9.82,36.7,36.7,0,0,0,.5-4.68c0-.39,0-.76,0-1.14l0-1.14v-.56l0-.64c0-.43,0-.85-.06-1.28a48.42,48.42,0,0,0-.55-5.26c-.24-1.78-.59-3.59-1-5.46a102.11,102.11,0,0,0-3.4-11.63c-.35-1-.73-2-1.11-3s-.87-2.28-1.28-3.42c-.86-2.27-1.78-4.5-2.67-6.7-.46-1.2-1.1-2.09-1.37-2.06s-.06,1,.41,2.08l1.34,3.3,1.32,3.36c.42,1.13.84,2.27,1.29,3.4s.77,2,1.12,3a107.42,107.42,0,0,1,3.45,11.5c.42,1.84.79,3.62,1.05,5.38a47.05,47.05,0,0,1,.6,5.15c0,.43.06.85.08,1.26s.05.87,0,1.21c0,.72.07,1.48,0,2.21l0,1.13-.1,1.13c0,.77-.21,1.51-.28,2.31a36.61,36.61,0,0,1-3.1,9.65,48.49,48.49,0,0,1-6.39,9.74A59.37,59.37,0,0,1,247,343a64.44,64.44,0,0,1-11.56,6.89,9.46,9.46,0,0,0-2.17,1.18C233.25,351.16,234.07,350.9,235.12,350.46Z"/><path d="M264.55,65.64c-.42,1-.21,1.11.49.18a21.71,21.71,0,0,0,2-3.24c.39-.85.16-.95-.49-.19A14.12,14.12,0,0,0,264.55,65.64Z"/><path d="M274.87,81.88,273.43,86l-.69,2c-.2.67-.37,1.34-.55,2-.35,1.33-.68,2.63-1,3.89a30.48,30.48,0,0,0-.76,3.73,12.85,12.85,0,0,1-.75,2.58c.45-.2.48,1,.08,3a142.19,142.19,0,0,0-2,30.5,177.07,177.07,0,0,0,4.2,31A200.42,200.42,0,0,0,281.5,195c1,2.45,2,4.87,3.1,7.24s2.22,4.7,3.3,6.75l1.89,3.43,2.11,3.77q2.18,3.86,4.41,8a4.67,4.67,0,0,1,1.84,1.48c2.49,2.68,6.06,9.16,8.54,16.48.57,1.85,1.16,3.7,1.66,5.56,1.7,5.59,3.16,11.21,4.34,16.8.61,2.87,1.23,5.94,1.69,9s.85,6.15,1.09,9.31a106.56,106.56,0,0,1-.2,19.3,94.17,94.17,0,0,1-1.59,9.77c-.16.81-.38,1.62-.57,2.42s-.4,1.6-.66,2.45c-.51,1.65-.94,3.31-1.57,4.92a57.9,57.9,0,0,1-2.94,8.51c-.66,1.46-1.33,2.95-2.16,4.41l-1.22,2.22c-.46.72-.91,1.45-1.38,2.18a73.71,73.71,0,0,1-10.44,13.54A80.38,80.38,0,0,1,280,363.25a89.87,89.87,0,0,1-29.47,13c1.36-.16,2.22-.18,2.28,0-.25.52-5,2.07-10.89,2.66-3,.3-5.87.54-8.81.58a98.44,98.44,0,0,0,12.69-.9A108,108,0,0,0,258.4,376c1.2-.35,2.31-.66,3.34-.93a93.53,93.53,0,0,0,26.42-13.38A85.5,85.5,0,0,0,301,350.05a78.66,78.66,0,0,0,10.36-14.71,75.55,75.55,0,0,0,6.81-17.16,89,89,0,0,0,2.82-17.3,112.2,112.2,0,0,0-2.83-32.37c-.28-1.27-.6-2.5-.91-3.74s-.61-2.31-.93-3.47c-.62-2.28-1.34-4.56-2-6.84-1.48-4.54-3.09-9.07-4.91-13.51a214.58,214.58,0,0,0-12.28-24.8L294,210.82l-1.43-2.51-.6-1-.56-1c-1.54-2.87-3.15-6.1-4.6-9.36a195,195,0,0,1-13.35-41.29,9.84,9.84,0,0,1-.28-3.25c.15-.57.47-.49.71.54a155.55,155.55,0,0,0,8.56,25.2c1.74,4,3.56,7.89,5.56,11.68s4,7.52,6.2,11c1.08,1.7,2.17,3.45,3.12,4.69q2,3,4,6c.69,1,1.45,2.18,2.15,3.29l2.21,3.53c1.49,2.42,3,5,4.45,7.66a157.35,157.35,0,0,1,8.18,17.21,163.6,163.6,0,0,1,6.31,18.9A125.38,125.38,0,0,1,329,289.16a100.9,100.9,0,0,1-3,29.88,85,85,0,0,1-5.55,15.34A86.08,86.08,0,0,1,312.28,348a81.12,81.12,0,0,1-10.17,11.45,85.78,85.78,0,0,1-11.47,9.18,97.81,97.81,0,0,1-25.11,12.05,109.41,109.41,0,0,1-13.11,3.22,101.19,101.19,0,0,1-13.3,1.41,90.44,90.44,0,0,1-26.6-2.71,60.85,60.85,0,0,1-13.15-5.08c-.52-.26-1-.51-1.54-.78l-1.48-.88c-1-.59-2-1.16-2.9-1.79-1.83-1.32-3.7-2.56-5.37-4a70.83,70.83,0,0,1-9.43-9.56,79.1,79.1,0,0,1-7.29-10.47,91.51,91.51,0,0,1-5.47-11l-1.09-2.82c-.38-.93-.71-1.88-1-2.83s-.63-1.88-.91-2.86l-.81-3c-.13-.5-.28-1-.39-1.5l-.3-1.5-.59-3c-.22-2-.63-4-.75-5.94l-.28-2.95c0-1-.09-1.94-.16-2.91-.2-2-.1-3.86-.23-5.79-.15-7.66,0-15.17,0-22.56,0-3.62,0-7.25,0-10.88,0-1.78,0-3.56-.07-5.3s0-3.46-.09-5.17c0-.42,0-.85,0-1.27l-.05-1.19c0-.79-.07-1.58-.15-2.36-.09-1.57-.21-3.13-.41-4.65a66.38,66.38,0,0,0-1.48-8.71c-.19-.65-.35-1.33-.55-2s-.37-1.27-.6-1.85a32.85,32.85,0,0,0-1.42-3.23,12,12,0,0,0-.79-1.33,8.19,8.19,0,0,0-.82-1.16c-.14-.18-.28-.36-.41-.55l-.46-.44c-.15-.14-.27-.34-.44-.47l-.49-.4a5.51,5.51,0,0,0-.83-.67,7.21,7.21,0,0,0-.68-.41,1.83,1.83,0,0,1-.41-.26.31.31,0,0,1-.09-.11s0-.05-.07-.18,0-.07,0-.06-.07,0-.14-.05-.12,0-.21,0a1.26,1.26,0,0,1-.28.11,4.64,4.64,0,0,0-1.46,1.86,16.47,16.47,0,0,0-1.46,5.14,23.4,23.4,0,0,0-.23,3.05c0,.52,0,1,0,1.57l.09,1.84c.19,2.5.39,5.19.54,8.11a45.43,45.43,0,0,1-.53,9.53c-.18.87-.35,1.73-.62,2.61l-.38,1.33-.49,1.33c-.32.88-.78,1.74-1.2,2.61-.57.92-1.14,1.85-1.78,2.71a20.89,20.89,0,0,1-10.61,7.25c-.52.14-1,.31-1.55.42l-1.57.27a20.93,20.93,0,0,1-3.16.25,28.59,28.59,0,0,1-3.2-.17,29.61,29.61,0,0,1-3.2-.62,26.4,26.4,0,0,1-3.15-1.14c-.52-.24-1-.5-1.54-.77l-.76-.41-.73-.49a17.85,17.85,0,0,1-2.81-2.21c-.44-.41-.87-.84-1.29-1.27s-.78-.94-1.16-1.43-.76-1-1.08-1.49-.61-1.05-.9-1.59a22.85,22.85,0,0,1-1.4-3.06l-.52-1.46-.42-1.41-.18-.63c-.18-.68-.35-1.35-.48-2-.28-1.32-.48-2.54-.67-3.75-.34-2.38-.53-4.55-.76-6.56s-.42-3.82-.71-5.38a11.1,11.1,0,0,0-1.16-3.62c-.24-.39-.51-.55-.72-.55,0,0-.09,0,0,0l.4-.09.79-.2c.29-.09.48-.13.69-.19s.41-.11.61-.18l1.09-.38a7.9,7.9,0,0,0,.89-.37,5.84,5.84,0,0,0,1.46-.83l-.27.27-.11.14,0,.07h0l1.09-1.41h0v0a.93.93,0,0,0,.13-.18c.16-.3-.13.17-.16,1.08a8.87,8.87,0,0,0,.37,2.93,10,10,0,0,0,.76,1.89,5.3,5.3,0,0,0,.34.6l-.14-.23a9.57,9.57,0,0,1-.76-1.64c.12.37.29.7.41,1s0,.15.06.25-.08.13-.22.08-.12-.08-.26-.08a2.09,2.09,0,0,1-.5,0,6.79,6.79,0,0,0-1,.08,6.09,6.09,0,0,0-2.93.68,19.06,19.06,0,0,1-3.13,1.35l-.73-.63-.28.24a3.26,3.26,0,0,1-2.55,1.37l-1-.48a6.57,6.57,0,0,1-2.71-3,1.87,1.87,0,0,1-1-.8c-1.33.43-2.64.44-3.44-.67-.57.39-1,.15-.86-.56a3,3,0,0,1,.28-.78h0c-.41.18-.53.24-1,.51-.39.48-.64.75-.64.75-1,1.28-1,1.28-2,2.35a8.24,8.24,0,0,1-2.12,1.23,18.46,18.46,0,0,1-2.84.21,2.09,2.09,0,0,1-1.12-.35,1.31,1.31,0,0,1-.06-.27,18.16,18.16,0,0,1-1.69.85,6.61,6.61,0,0,1-.88.2,2,2,0,0,0-1-.09,2.37,2.37,0,0,1-.48-.1c0-.55,0-.56-.16-.62a.65.65,0,0,1,0-.3l.79-.81c1.38-.3,2-.5,2.32-.59l.32-.09-.16-.38.85-.09h-.68l.92-.49-1.15.53c.83-.67,1.21-1,1.47-1.25a7.36,7.36,0,0,0,.65-.7,5.88,5.88,0,0,0,1-1.25,1.21,1.21,0,0,1-.29,0c1.56-1.61,1.53-1.62,3-3.25a5.08,5.08,0,0,1,.56-.29,2,2,0,0,1,.47-.92l.73-.91.09-.23h0c.17-.36.28-.62.41-.9l.08-.19h0a29.38,29.38,0,0,1,2.15-4A21.11,21.11,0,0,1,85.59,225l-.59.33c-.39.21-.39-.27-.58-.13a40.68,40.68,0,0,0-6,6A55,55,0,0,1,72.65,237a3.32,3.32,0,0,1-2,1.15c-.47,0-.24-.59.45-1.27,1.47-2.06,3.06-4.39,4.83-7,.88-1.3,1.81-2.74,2.92-4.13.56-.69,1.16-1.39,1.81-2.07.31-.34.65-.68,1-1s.65-.63,1.09-1a27.24,27.24,0,0,1,11.36-6.14,25,25,0,0,1,6.71-.88,21.68,21.68,0,0,1,7.09,1.2,19.85,19.85,0,0,1,9.27,6.15,21.84,21.84,0,0,1,2,2.78c-.08-.21-.17-.42-.25-.62a18.93,18.93,0,0,1,1.48,3.09l.13.33a19.51,19.51,0,0,0-.73-2.54c-.27-.55-.58-1.1-.9-1.65a24.72,24.72,0,0,0-2.54-3.09,15.13,15.13,0,0,0-1.59-1.44,14.94,14.94,0,0,0-1.8-1.33,22,22,0,0,0-8.23-3.2,26,26,0,0,0-8-.12,29.59,29.59,0,0,0-7.2,1.9,39.08,39.08,0,0,0-6.74,3.52c-.52.35-1,.71-1.55,1.09l-1.35,1c-.87.67-1.73,1.38-2.53,2.12s-1.45,1.26-1.59,1,.38-1.13,1.15-1.92c.62-.71,1.24-1.4,1.95-2.09l1.07-1,1.3-1.15a30.68,30.68,0,0,1,5.73-3.84,30,30,0,0,1,6.58-2.53,32.38,32.38,0,0,1,3.63-.73,30.92,30.92,0,0,1,3.89-.23,28.3,28.3,0,0,1,4.06.35,25.15,25.15,0,0,1,4.11,1.08,21.57,21.57,0,0,1,7.18,4.21,20.27,20.27,0,0,1,2.47,2.61,22.44,22.44,0,0,1,1.85,2.75,19.51,19.51,0,0,1,2.14,5.44,17,17,0,0,1,.91,7.34v.1c.12-.48.19-1,.28-1.51,0,.45,0,.86,0,1.23s-.08.67-.13,1c-.09.65-.24,1.2-.32,1.92l.51-.56a44.28,44.28,0,0,1-.74,5.3c-.3,1.6-.63,3.09-1,4.46-.65,2.75-1.31,5.14-1.82,7.13l-.1.46c0,.84.12,1.61.2,2.35l.06.53,0,.16c0,.23,0,.48,0,.69a5.82,5.82,0,0,0,.08.62,2.27,2.27,0,0,0,.1.48,2.69,2.69,0,0,0,.55,1.39A4.85,4.85,0,0,0,123,262a3.78,3.78,0,0,1-1.8-1.76,1.73,1.73,0,0,0-.14-.5,1.64,1.64,0,0,0,0-.51c0-.27-.08-.54-.09-.86a3.76,3.76,0,0,1,0-.48c0-.15,0-.42,0-.39V258a3.91,3.91,0,0,0,0,.51,3,3,0,0,0,.06.46,2.18,2.18,0,0,0,.08.37,2.64,2.64,0,0,0,.3,1,4.18,4.18,0,0,0,2.14,1.7,5.64,5.64,0,0,0,3.47.15,4.75,4.75,0,0,0,2.79-1.81c1.21-1.66,1.85-4.2,1.92-7.29a44.65,44.65,0,0,0-.21-4.93c-.17-1.73-.38-3.53-.61-5.42-.12-.91-.23-2-.31-3s-.11-2.11-.14-3.17a42.14,42.14,0,0,1,.38-6.49,28.63,28.63,0,0,1,1.73-6.76,20.75,20.75,0,0,1,4.23-6.67c.5-.5,1-1,1.57-1.45s1.16-.85,1.75-1.26a17.22,17.22,0,0,1,4-1.89,18.79,18.79,0,0,1,8.08-.73,22.38,22.38,0,0,1,6.79,2,28,28,0,0,1,12.19,11.21,19.79,19.79,0,0,1,1.1,2c.32.65.65,1.28.92,1.9.48,1.25,1,2.43,1.3,3.53a57.65,57.65,0,0,1,3.31,23.58c-.05,1-.12,1.93-.23,2.88s-.18,1.92-.31,2.82c-.28,1.82-.53,3.65-.86,5.43-.65,3.59-1.43,7.08-2.2,10.55-1.58,6.92-3.29,13.66-4.22,20.42s-1.15,13.54.28,19.9a37.35,37.35,0,0,0,3.17,9l1.19,2.16c.39.73.8,1.44,1.25,2.12l1.3,2.09,1.41,2,.71,1,.77,1,1.51,1.89c1.1,1.19,2.11,2.44,3.29,3.51a52.51,52.51,0,0,0,7.21,6,39.94,39.94,0,0,0,16.11,6.67,20.35,20.35,0,0,0,2,.27l2,.12a16.85,16.85,0,0,0,2,0c.68,0,1.27,0,2-.08s1.42-.11,2.12-.19l2.12-.29c1.41-.27,2.81-.54,4.2-.91a29.56,29.56,0,0,1,4.75-1.05c.26.14-1.2.86-3.52,1.49a52.53,52.53,0,0,1-6.1,1.31l-1.54.2c-.52.06-1,.09-1.55.14-1.07.11-2,.1-3,.13-.48,0-1,.05-1.47,0l-1.48-.11c-.5,0-1,0-1.5-.11l-1.5-.24c-.5-.1-1-.16-1.51-.27l-1.49-.39-1.51-.4-1.49-.53c-8-2.83-15.55-8.6-21.45-15.93a63,63,0,0,1-7.65-12A39,39,0,0,1,169,312.35a63.15,63.15,0,0,1-.19-7.29c0-1.22.14-2.45.23-3.68s.23-2.46.4-3.69c.63-4.93,1.63-9.86,2.74-14.84-1,4.15-1.82,8.28-2.5,12.41a82.29,82.29,0,0,0-1.05,12.37,50.23,50.23,0,0,0,1.45,12,45.94,45.94,0,0,0,4.72,11,63.41,63.41,0,0,0,7,9.89,54.34,54.34,0,0,0,8.61,8.16,47.71,47.71,0,0,0,9.87,5.82,36.21,36.21,0,0,0,10.54,2.8l1.35.15,1.35,0c.91,0,1.76.08,2.73,0s1.89-.07,2.85-.18l1.41-.13L222,357a75.92,75.92,0,0,0,10.94-2.55,65.14,65.14,0,0,0,23.44-14.22,48.43,48.43,0,0,0,13.06-20A35.5,35.5,0,0,0,271.13,310l0-1.25c0-.42,0-.91,0-1.36s0-.93-.05-1.39,0-.92-.08-1.39c-.12-1.86-.4-3.76-.71-5.68a85.56,85.56,0,0,0-3-11.89q-1-3.06-2.28-6.21l-1.36-3.34c-.47-1.17-.94-2.33-1.44-3.47a226.81,226.81,0,0,0-10.88-22c-2-3.57-4.12-7.19-6.42-11.21l-1.75-3.08-1.8-3.24c-.54-1-1.39-2.58-2-3.82s-1.28-2.54-1.86-3.8c-2.33-5-4.36-9.87-6.26-14.86s-3.53-10-5.05-15.19-2.79-10.44-3.94-15.84-2-10.94-2.7-16.63a172.35,172.35,0,0,1,.85-48A148.68,148.68,0,0,1,226.07,93c1.32-3.77,2.8-7.46,4.22-11.16,1.64-3.58,3.31-7.14,5.05-10.63a158.8,158.8,0,0,1,26.81-36.81,169.51,169.51,0,0,1,16.51-14.9c2.95-2.24,5.84-4.51,8.94-6.54s6.12-4.11,9.29-6a88.62,88.62,0,0,1,9.4-5A21.2,21.2,0,0,1,311.49,0c1.16,0-3.59,2.77-10.14,6.87-3.24,2-6.35,4.13-9.44,6.35l-4.59,3.41c-1.52,1.14-3,2.39-4.46,3.59l-2.22,1.83c-.73.62-1.44,1.27-2.16,1.91l-4.28,3.88-4.14,4.08L268,34c-.67.7-1.32,1.43-2,2.15-1.32,1.44-2.62,2.89-3.92,4.36s-2.5,3-3.75,4.56c-2.52,3-4.8,6.29-7.11,9.53-1.18,1.61-2.22,3.33-3.29,5s-2.14,3.41-3.19,5.12l-2.9,5.34c-1,1.8-2,3.56-2.77,5.44l-2.54,5.59c-.41.94-.87,1.86-1.23,2.82l-1.08,2.9-2.15,5.82c-.71,1.94-1.24,4-1.86,5.94a155.32,155.32,0,0,0-4.93,24.32,176,176,0,0,0,1.09,48.67,206.62,206.62,0,0,0,13,46.19c1.55,3.76,3.16,7.46,5.12,11.37l.79,1.54L246,232l1.35,2.52,2.62,4.8c1.73,3.1,3.35,6,4.87,8.86s3,5.65,4.38,8.46c2.79,5.62,5.25,11.38,7.61,17.38l1.69,4.53q.78,2.1,1.47,4.2c.93,2.78,1.71,5.55,2.37,8.28a67.78,67.78,0,0,1,2,16l0,1.95-.11,1.8c0,.6-.13,1.19-.19,1.8a16.1,16.1,0,0,1-.26,1.81,37.92,37.92,0,0,1-2,7.27c-3.12,8.34-9.24,16.49-17.39,22.85.16,0,.31,0,.36.1.21.35-.37,1.3-1.6,2.55,9.86-6.89,17.45-16.16,21.19-25.86a41.86,41.86,0,0,0,1.82-10.44c.11-1.66.06-3.61,0-5.42s-.3-3.71-.55-5.58a82.24,82.24,0,0,0-2.48-11.41c-.56-1.93-1.16-3.87-1.85-5.82-.32-1-.7-2-1-2.95l-1.17-3.05a265.88,265.88,0,0,0-10.93-24.79c-2.05-4.1-4.26-8.28-6.64-12.83-1.18-2.29-2.41-4.67-3.66-7.2l-1-2-1-2.24c-.66-1.46-1.27-2.86-1.85-4.27a175.26,175.26,0,0,1-7.51-22.75,186.7,186.7,0,0,1-4.36-22.5,180.39,180.39,0,0,1-.27-45A152.33,152.33,0,0,1,236,104.77c.3-1.17.57-2.34.89-3.5l1-3.47c.62-2.33,1.51-4.56,2.29-6.83l1.22-3.38.61-1.69.71-1.65,2.89-6.55A158.53,158.53,0,0,1,260,53.34a176.07,176.07,0,0,1,18-21.21,14,14,0,0,1,2.7-2.31c.5-.25,0,.39-1,1.45a170,170,0,0,0-23.32,30.67,153.09,153.09,0,0,0-15.83,36.8,19.33,19.33,0,0,1,2.77-4.36c.81-.92,1.46-1.28,1.88-1,.9.64.57,3.92-.08,8.82L246.36,98l1.51-4.19,1.52-4.18c.47-1.4,1.15-2.72,1.72-4.08,1.5-3.33,3-5.81,3.41-5.5s-.32,3.06-1.69,6.21c-1.25,2.7-2.19,5.53-3.2,8.34-.49,1.41-1,2.81-1.48,4.23l-1.26,4.3a147.63,147.63,0,0,0-3.76,17.52,163.75,163.75,0,0,0-1.64,17.8,168.07,168.07,0,0,0,.33,17.82,198.3,198.3,0,0,0,16.38,61.21c.74,1.62,1.51,3.23,2.34,4.88l1.23,2.37L263,227l4.83,8.91c-1-3.64-1.4-6.56-1-8.24a0,0,0,0,1,0,0L263.9,222c-1-2-1.92-3.94-2.78-5.92a187.44,187.44,0,0,1-10.63-27.65,183.22,183.22,0,0,1-6.19-29.29,149.57,149.57,0,0,1,4.39-60.61A155,155,0,0,1,277.8,44.86a194.76,194.76,0,0,1,21-21.83A210.11,210.11,0,0,1,322.68,4.62a12.88,12.88,0,0,1,2.51-1.47,10,10,0,0,1-2.05,1.58C303.16,18.24,285,35,270.9,55.09L271,55c.69-.73,1-.75.47.21a27.35,27.35,0,0,1-2.2,3.14c-.74.88-.87.67-.47-.17a148.7,148.7,0,0,0-15.86,30.5,156.62,156.62,0,0,0-5.1,16.51,146.93,146.93,0,0,0-3,17,155.47,155.47,0,0,0,.07,34A179.67,179.67,0,0,0,251.67,189c-5.33-19.89-7.72-40.79-5.72-61.51a137.74,137.74,0,0,1,6.39-30.46,140.87,140.87,0,0,1,12.81-28.18l1.48-3,1.64-2.94c.55-1,1.1-2,1.66-2.95S271,58,271.67,57a12.88,12.88,0,0,1,2.16-2.6c.34-.18,0,.67-.72,1.73s-1.38,2.09-2,3.2a67.17,67.17,0,0,1,6.11-7.63c1.76-1.73,3-2.61,3.36-2.27s-.44,2.12-1.74,4.48c-.62,1.19-1.4,2.57-2.29,4-.45.74-.93,1.51-1.44,2.29s-1,1.63-1.5,2.47c-11.06,18-18.64,38.05-21.16,58.89-.21,2.26-.35,4.53-.48,6.79.06,2.3.08,4.56.26,6.84a143.47,143.47,0,0,1,3.24-24c.91-3.93,1.9-7.84,3.18-11.66l1.94-5.71c.3-1,.69-1.89,1.08-2.82l1.14-2.79c1.43-3.76,3.3-7.34,5-11,.89-1.79,1.92-3.52,2.87-5.29l1.45-2.64c.5-.87,1.05-1.71,1.57-2.57l3.18-5.12,3.4-5c1.1-1.68,2.35-3.25,3.54-4.86s2.37-3.24,3.67-4.77c1.7-2.17,3.35-3.85,3.63-3.68s-.85,2.09-2.52,4.27c-1.07,1.39-2.05,2.85-3,4.32l-2.93,4.37L280,60.83l-1.37,2.23-1.26,2.31L274.81,70c-.8,1.55-1.52,3.14-2.28,4.71-1.59,3.1-2.84,6.35-4.17,9.54-.71,1.59-1.23,3.24-1.8,4.88L264.86,94l-1.38,5c-.44,1.67-1,3.3-1.31,5a135.88,135.88,0,0,0-3.09,20.35c-2.05,27.4,3.53,55.33,13.9,80.87,1.09,2,2.2,4,3.35,5.87s2.26,3.58,3.59,5.59c2.59,3.89,5.33,7.91,8,12.15a184.31,184.31,0,0,1,14.59,27.46c-.75-2.54-1.59-5.09-2.48-7.63a177.2,177.2,0,0,0-10.11-22.81c-1.84-3.53-3.69-6.88-5.45-10.06-.86-1.58-1.78-3.24-2.44-4.51s-1.48-2.93-2.2-4.44a210.62,210.62,0,0,1-13.74-38.23,155.92,155.92,0,0,1-4.94-40.28,124.75,124.75,0,0,1,2.05-20.63c.36-1.71.68-3.44,1.09-5.15s.91-3.43,1.36-5.15l.7-2.59.86-2.55L269,87.08a5.58,5.58,0,0,1,1.42-2.5c.26-.06.06.94-.53,2.28-.55,1.68-1.11,3.35-1.66,5s-1.12,3.29-1.5,5c-.84,3.34-1.75,6.62-2.31,10a125.27,125.27,0,0,0-2,19.88,161.8,161.8,0,0,0,4.48,39.79A186.56,186.56,0,0,0,277.26,198c1.07,2.48,2.18,4.91,3.34,7.26S283,210,284.14,212c1.36,2.34,2.8,4.74,4.28,7.2s3,5,4.49,7.65q-2.09-4.12-4.14-8l-3.94-7.4c-.5-.95-1.06-2.08-1.59-3.2s-1.08-2.29-1.61-3.46c-1.06-2.34-2.06-4.74-3-7.16a205.78,205.78,0,0,1-9.41-29.87,162.1,162.1,0,0,1-4.19-30.9c0-1.3-.11-2.61-.09-3.91V129c.11-2.6.18-5.22.42-7.81a117.58,117.58,0,0,1,2.24-15.56,16.23,16.23,0,0,1,1.48-4.64,2,2,0,0,1,0-1.1c.22-1.32.45-2.67.71-4s.71-2.73,1.07-4.13.75-2.82,1.18-4.24,1-2.82,1.5-4.24A9.74,9.74,0,0,1,275,80.38C275.34,79.9,275.25,80.64,274.87,81.88ZM104.42,221.38l-.35-.13a11.36,11.36,0,0,1,1.25.34l.21.12a11.38,11.38,0,0,1,1.37,1l-.75-.45C105.7,222,105.08,221.68,104.42,221.38Zm-14.6,9.75h0l-.86.27ZM169,314.87a65.13,65.13,0,0,1,.2-17.63c.78-5.91,2.1-11.81,3.42-17.77s2.66-12,3.51-18.31a68.57,68.57,0,0,0,0-19.82,67.49,67.49,0,0,1,.35,19.38c-1.29,9.54-3.7,18.54-5.57,27.48a111,111,0,0,0-2.08,13.39A57.18,57.18,0,0,0,169,314.87Zm-79.19-92.3a14.8,14.8,0,0,1,5.07-1.06,14.45,14.45,0,0,1,3.72-1.3,17.88,17.88,0,0,1,5.73-.27,15.88,15.88,0,0,1,5.76,1.85c-.37-.48.49,0,.93.25a11.43,11.43,0,0,1,1.3.82,15.8,15.8,0,0,0-5.9-3,19.11,19.11,0,0,0-6.38-.54A26,26,0,0,0,89.77,222.57ZM76.37,240l-.3.13a4.26,4.26,0,0,1-.22-.58Zm.44.94.35-.27C77.29,240.87,77.12,240.94,76.81,241Zm3-2.59a2.76,2.76,0,0,0-.58.31Zm15.74,3.83c-.74-.67-1.44-1.34-2.1-2,.62.71,1.28,1.39,2,2.08Z"/><path d="M418.69,137.26l-.34-.33c.12-.26.38-.3.69-.23a4.32,4.32,0,0,0-5-.41A4.9,4.9,0,0,0,413,137a8.08,8.08,0,0,0-.91,1,10.13,10.13,0,0,0-1.33,2.44c-.88.1-1.28,1.24-.92,2.4A2.3,2.3,0,0,0,412,144.7a2.5,2.5,0,0,1,.64.3,17.2,17.2,0,0,0,2.54,1.81c.42.24.83.43,1.24.64s.83.41,1.24.59c-.36-.3-.74-.6-1.11-.89a2.79,2.79,0,0,0,1.42.37l-.32-.63a2.35,2.35,0,0,0,2.48.39,3.23,3.23,0,0,0,1.58-2.35c.59-2.47-.19-5.63-2.13-7Z"/><path d="M413.86,131a25.21,25.21,0,0,1,3.72,1.84l.28.38-.44-1.85v.12a7.21,7.21,0,0,1-3.34,3.44l-.44.37a1.65,1.65,0,0,0-.17,1.07,1.79,1.79,0,0,0,1.46,1.64h.76c2,.57,4.66.36,5.17-3a7.74,7.74,0,0,0-.42-2.52,2.15,2.15,0,0,0-2-2.15,1.87,1.87,0,0,0-1.45,2.37c-.18-.06-.36-.14-.54-.18.09-.19.19-.34.29-.51,0,1.09-.84,1.57-1.33,2.26l-.87.51,1.25,2.72.37-.48c-.06-.11-.18-.28-.17-.29.35-.49.7-1,1.07-1.44a7.14,7.14,0,0,1,1.25-1.15l1.1-1.25A1.75,1.75,0,0,0,419,131l-.72-.53.34.33c-.75-.22-1.51-.37-2.29-.52s-1.54-.2-2.32-.38c-.26-.09-.49.09-.54.4A.66.66,0,0,0,413.86,131Z"/><path d="M418.71,129.62c.26.18.52.38.83.28l.1-.26-.53-.42C418.73,128.91,418.61,129.21,418.71,129.62Z"/><path d="M419.64,129.64l.22.18-.17-.25,0,0Z"/><path d="M404.2,259.26a77.92,77.92,0,0,0,35.07,6.47,65.82,65.82,0,0,0,17.28-3.29,67.07,67.07,0,0,0,16-7.89c.69-.42,1.18-.9,1.13-1s-.59.18-1.22.58A67.46,67.46,0,0,1,456.58,262a65.62,65.62,0,0,1-17.12,3.29,73.92,73.92,0,0,1-17.66-1.13,82.25,82.25,0,0,1-17.14-5.21,3.11,3.11,0,0,0-1.54-.4C403,258.61,403.51,259,404.2,259.26Z"/><path d="M500.47,151.78c.41.54.49.46.19-.18a11.78,11.78,0,0,0-1.24-2c-.37-.43-.46-.35-.19.19A14.52,14.52,0,0,0,500.47,151.78Z"/><path d="M510.56,153.33c2.17,3.72,4,7.38,5.63,10.7a15.59,15.59,0,0,1,.71,1.9c.06-.29.53.42,1.1,1.89a91.51,91.51,0,0,1,5.91,23.08,90,90,0,0,1-.49,24.78c-.26,2.09-.77,4.13-1.16,6.2l-.77,3.06c-.25,1-.51,2.05-.85,3.06-.67,2-1.21,4.1-2,6.07s-1.51,4-2.45,5.93a96.86,96.86,0,0,1-13.72,21.76,4.23,4.23,0,0,1-.62,1.42,36.37,36.37,0,0,1-3.16,4.09c-.7.82-1.55,1.6-2.41,2.44s-1.76,1.7-2.75,2.48l-3,2.31a95.7,95.7,0,0,1-19.79,11.65,90.5,90.5,0,0,1-22,6.45c-.75.19-1.54.42-2.36.6s-1.69.3-2.56.47l-2.73.44c-.94.11-1.9.19-2.88.28a106,106,0,0,1-39.75-2.73c.77.4,1.21.73,1.14.93-.38.36-3.56-.15-7-1.4-1.76-.64-3.54-1.22-5.26-1.94a122.76,122.76,0,0,0,15.19,5.37c.75.2,1.44.41,2.07.61A111.59,111.59,0,0,0,422.29,298a99.82,99.82,0,0,0,39.23-5.11,95.43,95.43,0,0,0,32.93-19.66A103.78,103.78,0,0,0,507,259.32a101.79,101.79,0,0,0,9.52-15.78,97.93,97.93,0,0,0,6.24-17.1,95.2,95.2,0,0,0,2.89-17.64,18.7,18.7,0,0,1,.27-2.68c.13-.46.25-.36.23.51a100.75,100.75,0,0,1-2.73,22,94.14,94.14,0,0,1-7.59,21,96.6,96.6,0,0,1-13,19.59,95.6,95.6,0,0,1-19.33,17.24c-1.11.81-2.32,1.48-3.48,2.21s-2.34,1.48-3.56,2.11c-2.45,1.3-4.88,2.64-7.45,3.73a99.18,99.18,0,0,1-15.79,5.62,109.75,109.75,0,0,1-33.15,3.34,121.72,121.72,0,0,1-16.57-1.93l-4.09-.87-2-.45-2-.53-4.05-1.1-4-1.28c-2.69-.81-5.27-1.9-7.91-2.88-1.3-.53-2.58-1.11-3.88-1.67S373,291.64,371.7,291l-3.8-1.9c-1.27-.63-2.48-1.36-3.73-2-2.49-1.37-4.95-2.89-7.37-4.48a121.49,121.49,0,0,1-26.69-25.17,101.22,101.22,0,0,1-10.3-16.28,93,93,0,0,1-7.07-18.79,103,103,0,0,1-2-39.32A122,122,0,0,1,322,146.08,124.12,124.12,0,0,1,335.8,123.6a127.6,127.6,0,0,1,18.08-19.17c.8-.76,1.69-1.42,2.54-2.12l1.29-1,.3-.26.95-.83c.64-.56,1.27-1.12,1.92-1.65,1.34-1,2.69-2.05,4-3.05L367,94c.69-.48,1.42-.92,2.13-1.38,1.42-.92,2.86-1.81,4.32-2.7s3-1.65,4.5-2.46,3-1.65,4.63-2.33a11.59,11.59,0,0,1,6.93-1.52,6.25,6.25,0,0,1,4.8,3,6.18,6.18,0,0,1-.72,6.39l1.12-.34,1.87-.19a6.52,6.52,0,0,1,4.66,1.2l1.63,1.16c2.38,2.42,5.44,4.14,7.3,6.91l0,1.19.36.28a5.54,5.54,0,0,1,2.4,2.76l.19,1.41a15,15,0,0,1-.4,4.74,5.41,5.41,0,0,1,.13,1.74,7.28,7.28,0,0,1,1.35,4.49,1,1,0,0,1,.17,1.38.86.86,0,0,1-.4.29h0a10,10,0,0,0,.65.8,5.25,5.25,0,0,1,.54.12l1.64.22a4.33,4.33,0,0,1,1.2,1c1.08,2.4,1.06,2.4,1.15,3.5,0,.11-.05.22-.08.33a7.52,7.52,0,0,1,.76.38,2.41,2.41,0,0,1,.3.38c.11.58.11.58.23.78a4,4,0,0,1,.09.43c-.18.7-.18.7-.16.89a2.86,2.86,0,0,1-.1.34l-.45.39c-.94-1.39-.94-1.4-.94-1.4l-.06.55-.28-.67.2.62-.42-.33.5.49a2.81,2.81,0,0,0-1.19,0,1,1,0,0,0-.65.2c.06.19.09.33.09.33-.92-.1-.93-.13-1.84-.19a3.26,3.26,0,0,1-.29-.36.38.38,0,0,1-.37.32H414l-.08.11,0,0-.31.38-.06.09h0l-1.28,1.62a6.86,6.86,0,0,1-.81-.12l.29.22c.19.16.22.73.31.76a14.79,14.79,0,0,0,3.14.69l1.53.15,1.52.24c.33-.12.71.16.84.6a.79.79,0,0,1-.36,1,10.29,10.29,0,0,1-1.23,1.17,11.64,11.64,0,0,1-1.31,1,9.27,9.27,0,0,1-2.88,1.14,15.44,15.44,0,0,1-6.54.07,23.86,23.86,0,0,0-3.26.44l.25.2-.93,0-.1,0,1,.66.52.09a10.59,10.59,0,0,1,3.77-.06c.63.08,1.25.14,1.88.26s1.26.26,1.87.34a16.63,16.63,0,0,1,3.82,1.32c.29,0,.57.32.64.73s-.1.71-.37.72a13.75,13.75,0,0,1-11.43.18,2.86,2.86,0,0,1-2.2-.06h0l.78.57c-.58,0-1.16-.49-1.72-.51l.69.93a38.43,38.43,0,0,0-3.9,1.26,9.87,9.87,0,0,1-4.12.88,1.73,1.73,0,0,1-.31.07,14.1,14.1,0,0,1-.73,1.82c-.07.14-.15.28-.23.41a.48.48,0,0,1-.08.11l-.44.36-.91.7c-1.2,1-2.38,2.06-3.7,3.07l2.76-1.9a14.45,14.45,0,0,1,1.39-.91l1.34-.81s-.17.16-.26.23l-.34.29-.69.57c-.47.35-.89.79-1.33,1.19-.87.82-1.8,1.57-2.67,2.41s-1.74,1.69-2.66,2.52-1.73,1.78-2.67,2.67A110.41,110.41,0,0,0,369,175.29c-3.91,5.56-6.7,10.88-9,14.29a55.88,55.88,0,0,0-1.28,20,42.23,42.23,0,0,0,2.21,9.18,49.76,49.76,0,0,0,4.25,8.89A67.61,67.61,0,0,0,379,243.71a77,77,0,0,0,8.95,6.66,87.42,87.42,0,0,0,9.8,5.54,7,7,0,0,1,2.74,1.79c0,.31-1,.1-2.43-.54a88.82,88.82,0,0,1-14.32-8,78.37,78.37,0,0,1-12.34-10.48C364.11,231,359,222,357,212.66a52,52,0,0,0,10.05,23.09,78.79,78.79,0,0,0,20.83,19.07l3.25,1.87c1.08.63,2.22,1.16,3.33,1.75s2.21,1.11,3.32,1.66,2.18,1.14,3.31,1.63c23,9.74,48.89,9.8,69.71-4a70.71,70.71,0,0,0,27.78-35.08,69.45,69.45,0,0,0,2.24-7.33c.28-1.26.64-2.52.83-3.81s.5-2.57.64-3.88c2-14.68-.75-29.11-6.84-42.24a86.88,86.88,0,0,0-5.15-9.5c-.95-1.5-2-3-2.95-4.32-.49-.66-1-1.32-1.25-1.59L484.37,148a69.4,69.4,0,0,0-17-12.93c-3.47-1.83-6.77-3.53-7.05-4.14s2.6.07,6.25,1.83a69.87,69.87,0,0,1,19.07,13.38c.69.68,1.33,1.4,2,2.1a10.49,10.49,0,0,1,.72.8c.27.33.54.68.83,1,1.13,1.47,2.26,3.11,3.33,4.77a87,87,0,0,1,5.73,10.53,80.42,80.42,0,0,1,6.65,22.83,72.11,72.11,0,0,1-.71,23.58l-.28,1.46-.35,1.45c-.25,1-.43,1.95-.74,2.9l-.84,2.89-1,2.79c-.6,1.89-1.5,3.66-2.25,5.5-.4.91-.89,1.77-1.33,2.66s-.87,1.79-1.41,2.63a72.52,72.52,0,0,1-15.1,18.58,71.68,71.68,0,0,1-20.41,12.76c-.93.39-1.89.69-2.83,1.05l-1.42.52c-.47.16-1,.28-1.44.42l-2.89.85-3,.65c-.49.11-1,.23-1.48.32l-1.51.23c-1,.15-2,.34-3,.46-2,.17-4.07.43-6.14.44a79.83,79.83,0,0,1-21-2.07.47.47,0,0,1,.11.31c-.07.36-.79.53-2,.55a91.06,91.06,0,0,0,12,2.21c2,.16,4.05.42,6.08.44,1,0,2,.11,3.05.09l3.05-.06a73.69,73.69,0,0,0,31.75-10.41A81.1,81.1,0,0,0,495,237.51l1.66-2.6c.27-.43.56-.85.82-1.29l.73-1.33,1.48-2.63L501,227l.65-1.34c.21-.45.38-.91.57-1.37.38-.91.75-1.82,1.12-2.73s.66-1.87,1-2.79l.49-1.4.42-1.42a77.41,77.41,0,0,0,3.33-23.1A83.13,83.13,0,0,0,501,163.86a88.06,88.06,0,0,0-7.46-13.15c-.71-1-1.44-2-2.17-3-.34-.44-.77-1-1-1.21l-1.26-1.33a68.83,68.83,0,0,0-5.38-5.14,7.93,7.93,0,0,1-1.39-1.31c-.16-.26.22,0,.86.44a73.32,73.32,0,0,1,7.66,7l.32.36.39.45.8,1c.53.67,1.06,1.37,1.58,2.08,1,1.42,2,2.92,3,4.43a88.17,88.17,0,0,1,9.29,19.73c-.37-2.3-.42-3.76.06-3.73s1.51,1.6,2.56,4.22a88.52,88.52,0,0,0-3.31-9.69c-.79-2-1.33-3.55-1.1-3.6s1.12,1.41,1.9,3.29a83.67,83.67,0,0,1,6,41.1,82.16,82.16,0,0,1-11.79,35.44,83.06,83.06,0,0,1-7.48,10.14,22.57,22.57,0,0,1,4.14-3h0c1.67-2.06,3.08-4.3,4.55-6.48a85.8,85.8,0,0,0,11.3-34.19,84.86,84.86,0,0,0-4-35.89,94.61,94.61,0,0,0-7.42-16.73,89.54,89.54,0,0,0-4.89-7.75c-.87-1.23-1.8-2.46-2.71-3.56l-.32-.37-.39-.41-.78-.83c-.53-.55-1-1.13-1.58-1.64a80.37,80.37,0,0,0-31.05-19,5,5,0,0,1-1.65-.71,3.7,3.7,0,0,1,1.58.34,84.11,84.11,0,0,1,20,9.82,73.28,73.28,0,0,1,8.74,6.83c.7.6,1.34,1.27,2,1.9l1,1,.95,1,1,1,.47.5.4.46c.55.67,1.12,1.4,1.67,2.13l0-.05c-.3-.51-.27-.67.17-.2a12.18,12.18,0,0,1,1.36,1.88c.33.61.2.62-.17.2a93.78,93.78,0,0,1,15.49,38,84.52,84.52,0,0,1-3.42,40.51,83.61,83.61,0,0,0,4.55-37.49,92.92,92.92,0,0,0-11.94-36c-1.51-2.34-3.13-4.59-4.86-6.79a10.12,10.12,0,0,1-1.13-1.73c-.07-.21.36.16.85.77s1,1.21,1.44,1.83c-1.37-2-2.57-3.75-3.43-4.93s-1.37-2.06-1.15-2.22,1.22.56,2.53,1.71a31.78,31.78,0,0,1,4.21,5.12A93.63,93.63,0,0,1,516,184.15c.29,1.45.49,2.93.71,4.39s.5,3,.64,4.45a90.73,90.73,0,0,0-7.19-31.16,97.08,97.08,0,0,0-7.42-14.23A78.38,78.38,0,0,0,498.1,141a79.6,79.6,0,0,0-5.57-5.87c-1.37-1.22-2.46-2.36-2.37-2.53s1.32.7,2.72,1.93l2.64,2.43,2.52,2.55a62.12,62.12,0,0,1,4.53,5.7A97,97,0,0,1,510,157.5a94.9,94.9,0,0,1,9.14,27.43,86.65,86.65,0,0,1-.07,29.27,85,85,0,0,1-3.67,14.32c-.72,2.37-1.77,4.62-2.69,6.92-.5,1.14-1.07,2.24-1.61,3.36s-1.07,2.24-1.71,3.31A92.23,92.23,0,0,1,485,273.75l2.14-1.51,2.06-1.66a87.48,87.48,0,0,0,31.09-53.28,92.17,92.17,0,0,0,.28-29.83,102.2,102.2,0,0,0-9.12-28.82,6.71,6.71,0,0,1-.73-1.89c0-.15.44.44.89,1.39a101.94,101.94,0,0,1,9.27,28,89.13,89.13,0,0,1,.18,29.84,90.75,90.75,0,0,1-2.9,12.34c-.31,1-.63,2-.94,3s-.73,2-1.1,2.94-.73,2-1.13,2.92L513.7,240a98,98,0,0,1-13,20.85,90.73,90.73,0,0,0,13.55-20.55,91.68,91.68,0,0,0,8.81-34.88c.15-2,.1-4,.13-6s-.1-4-.29-6a97,97,0,0,0-4.81-23.32,32.31,32.31,0,0,1-1.1-3.52,2.58,2.58,0,0,1-.4-.68c-1.64-3.63-3.54-7.5-5.71-11.32a12.07,12.07,0,0,1-1-2.12C509.73,152.13,510.06,152.53,510.56,153.33ZM403.14,127.18l.2.14-.54-.16-1.1-1.06S402.43,126.63,403.14,127.18Zm6-7.31h0l.57.66C409.45,120.26,409.27,120,409.11,119.87ZM361.22,228.36a46.71,46.71,0,0,1-5.68-17.07,50.5,50.5,0,0,1,1.2-18.08,57.25,57.25,0,0,0-.72,8.88c-.11,1.14-.09,2.26-.15,3.39s0,2.25.1,3.35a48.21,48.21,0,0,0,.8,6.59A53.12,53.12,0,0,0,361.22,228.36Zm48.42-97.82a14.59,14.59,0,0,1-2.38-1.93,3.05,3.05,0,0,1-1.25.58,31.3,31.3,0,0,1-3.67.82c.33.39,0,.44-.08.55l-.38.27c1.35-.14,2.69-.24,4-.32A19.25,19.25,0,0,1,409.64,130.54Zm8.08-3.79.14.16-.1.77Zm.15-1.29-.2-.07C417.68,125.1,417.76,125.19,417.87,125.46Zm-1.86-.64a1.64,1.64,0,0,0,.32.35Zm-5.9-21v3.82l.11-3.7Z"/></g></g></svg>