<svg xmlns="http://www.w3.org/2000/svg" viewBox="0 0 626.09 413.7"><g id="Layer_2" data-name="Layer 2"><g id="Layer_1-2" data-name="Layer 1"><path d="M382.9,131.24c.2,0,.41.11.61.16a1.55,1.55,0,0,1-1.11.61c5.9.77,11-3,14.06-6.83,1.47-.34,2.48-1.47,2.25-2.61s-1.66-1.87-3.21-1.53a5.37,5.37,0,0,1-1.11-.13,19.44,19.44,0,0,0-4.44-1.16,31.18,31.18,0,0,0-4.88-.21l2.16.41a9.94,9.94,0,0,0-2.91.3l.6.5c-3.6-.45-7.52,1.62-8.42,4.59s1.4,5.47,4.85,5.73Z"/><path d="M390.84,135.65c-1.86-.11-3.71-.28-5.61-.45l-.49-.25.93,1.64,0-.12c.71-2,2.79-3.54,4.81-4.72l.67-.52a1.42,1.42,0,0,0,.33-1.16,1.81,1.81,0,0,0-2.28-1.18l-1.28.28a12.45,12.45,0,0,0-5.32,1.47,5.08,5.08,0,0,0-2.84,4.13c0,.81.76,1.5,1.25,2.23a2.64,2.64,0,0,0,3.44,1.11,2.5,2.5,0,0,0,1.73-3L387,135c-.12.21-.24.42-.37.63-.07-1.13,1.11-1.87,1.84-2.77.44-.28.87-.57,1.32-.83l-2-2.31-.61.64.29.22a31.75,31.75,0,0,1-3.5,3.65l-1.46,1.82a1.24,1.24,0,0,0,1,1.64l1.13.17-.55-.16c2.23-.33,4.48-.76,6.67-.93a.73.73,0,0,0,.72-.57A.55.55,0,0,0,390.84,135.65Z"/><path d="M384.15,138.9a1.77,1.77,0,0,0-1.25.12,2.54,2.54,0,0,1-.08.3l.85.16C384.27,139.6,384.37,139.25,384.15,138.9Z"/><path d="M382.82,139.32l-.35-.07.3.16,0,0Z"/><path d="M481.05,127.49q11.43,3.57,22.27,8.16c.24.1.47.11.52,0s-.11-.27-.34-.36c-7.23-3.09-14.63-5.82-22.26-8.24-.26-.07-.5,0-.55.09S480.81,127.41,481.05,127.49Z"/><path d="M529.92,159.33c-.19,0-.23.08-.11.23a.93.93,0,0,0,.53.29c.16,0,.21-.1.1-.23A.91.91,0,0,0,529.92,159.33Z"/><path d="M524.88,165.5a15.83,15.83,0,0,0-2.74-.64.88.88,0,0,1-.41-.2c0,.17-.26.22-.61.14-6.89-1.65-14-3.66-21.16-4.9a1.21,1.21,0,0,1-.44.33,3.65,3.65,0,0,1-2.62-.06l-.71-.32c-2.94-1-5.92-2-8.88-2.9a9.34,9.34,0,0,1-2.24,0l-8.31.42a.63.63,0,0,1,.17.54c-.13.43-.81.67-1.53.58l-1.09-.08c1,.2,2,.44,3.05.7a2.09,2.09,0,0,1,.4.13l3.47.44c5.15.54,10.22,1.11,15.28,1.73,2.54.29,5,.69,7.57,1s5,.82,7.52,1.35a.74.74,0,0,1,.52.23c0,.12,0,.23-.2.21-6.65-.49-12.68.42-19.74.3A169.22,169.22,0,0,0,467.65,166c-8.22-.19-15.76,1.61-23.48,4-2.85.91-5.6,1.81-8.23,2.79-5.42,2.12-10.44,4.19-15.2,6.6a3.69,3.69,0,0,1-3.67.49,6.27,6.27,0,0,1-3.18-3.11,7.8,7.8,0,0,1-.47-6c-.22.1-.45.2-.68.28l-1.2.11a4.65,4.65,0,0,1-3.31-1.15l-1.33-1c-2.15-2.18-4.8-3.47-7-5.79l-.3-1.14-.36-.2a6,6,0,0,1-2.73-2.12l-.56-1.29a13,13,0,0,1-.86-4.64,4.91,4.91,0,0,1-.53-1.65,6.73,6.73,0,0,1-2.37-4,.91.91,0,0,1-.48-1.29,1.08,1.08,0,0,1,.4-.42h0c-.35-.24-.45-.31-.89-.57a5.81,5.81,0,0,1-.65.05l-1.94.39a5.17,5.17,0,0,1-1.66-.52c-2-1.87-2-1.86-2.36-2.89a1.93,1.93,0,0,1,0-.34l-1.11,0a3.09,3.09,0,0,1-.51-.23c-.31-.51-.31-.51-.52-.64a1.87,1.87,0,0,1-.24-.38c.05-.74.05-.74,0-.91a1.35,1.35,0,0,1,.06-.38l.53-.59,1.64.92,0-.56.53.52-.41-.51.64.13-.79-.25a5.12,5.12,0,0,0,1.64-.53,2.44,2.44,0,0,0,.87-.48,2.07,2.07,0,0,1-.2-.29c1.31-.27,1.31-.27,2.59-.51a3.35,3.35,0,0,1,.45.27.55.55,0,0,1,.46-.44l.66-.15.09-.13,0,0,.4-.48.07-.11h0l1.77-2a7.83,7.83,0,0,1,1.15-.11,2.86,2.86,0,0,1-.41-.15c-.27-.11-.3-.68-.43-.68a37,37,0,0,0-9.27,1.17,1.1,1.1,0,0,1-1.39-.17.83.83,0,0,1,.4-1.2,19.3,19.3,0,0,1,8.72-5.54A26.23,26.23,0,0,1,402.34,127c1.69-.18,3.38-.32,5.06-.45l-.31-.21,1.37.11h.14l-1.21-.71-.74-.12a45.89,45.89,0,0,1-5.87.17c-2-.08-4-.13-6,0-2.2.07-4.27-.2-6.47-.21a.88.88,0,0,1-1.11-.49c-.1-.38.26-.79.77-.91,6.2-2.86,14-4.11,20-1.94a6.25,6.25,0,0,1,3.41.24h.05l-.9-.63c.91,0,1.53.58,2.37.71l-.54-1c4.41-.11,9-.9,13.09.2l.46.05a13.13,13.13,0,0,1,5.73-1.84c-.88-.08-1.75-.11-2.62-.18a18.67,18.67,0,0,1,5.65-.89,24.25,24.25,0,0,1,4.14.3,29.8,29.8,0,0,1,4,.87,16.09,16.09,0,0,1,6.14,3.19,191.09,191.09,0,0,1,29.89,3.35c.51.08.93.37,1,.63s-.36.42-.86.34c-7.05-.8-14.22-1.53-21.45-1.84,6,1.1,11.92,2.44,17.88,3.76l2.3.41a12.48,12.48,0,0,1,2.22.64c7.56,1.83,14.51,4.08,22,6.3,6.41,1.94,12,3.85,18.16,6.3,8.71,3.45,16.48,7.23,24,12.73,1,.69,1.77,1.65,1.65,2.11s-1.07.29-2.09-.38A172.34,172.34,0,0,0,518,144.84c-8.86-3.6-18-6.64-27.56-9.68-2.08-.61-4.11-1.29-6.16-1.83a1.13,1.13,0,0,1,0,.26,1.17,1.17,0,0,1-.71.77c2.31.63,4.59,1.47,6.87,2.28a75.88,75.88,0,0,1,19.61,6c2.23,1,4.24,2.27,6.22,3.43s3.85,2.45,5.71,3.75a144.15,144.15,0,0,1,15.25,7.69.71.71,0,0,1,.41.39c0,.12-.13.13-.34,0-3.6-1.65-7.29-3.28-11-4.85.43.59.58,1.13.33,1.5s-.86.52-1.65.43l2.38,1.32c.49.28.79.64.68.83s-.6.16-1.06-.1c-1.62-.87-3.23-1.77-4.88-2.58s-3.28-1.67-4.95-2.44c-4.11-1.64-8.28-3-12.47-4.42a2.94,2.94,0,0,1,.78,1.61h0l1.92.68a106.51,106.51,0,0,1,34.39,15.94c.21.13.34.31.29.39s-.25,0-.43-.09a114.5,114.5,0,0,0-9.86-6.12h0c.11.13.08.24-.11.22a.91.91,0,0,1-.52-.29c-.13-.15-.06-.24.1-.22a104.67,104.67,0,0,0-19.65-8.24A123.21,123.21,0,0,1,529.09,160l2,.71c.19.08.38.25.4.37s-.16.12-.35,0l-.57-.2c1.06.64,1.68,1.46,1.4,1.9s-1.44.28-2.53-.34c-1.51-.77-3-1.54-4.53-2.25s-3-1.49-4.56-2.17l-1-.37-1.1-.22c4.67,2.34,9.16,5,13.53,7.72.38.22.64.54.55.7s-.47.12-.86-.1A211.38,211.38,0,0,0,506,156.14l-4.72-.1-4.74.09c.35.13.72.24,1.08.35,4.68,1.29,9.14,2.16,13.63,3.09a71.17,71.17,0,0,1,13.31,4c.23.08.37.24.35.34s-.21.11-.43,0a88.18,88.18,0,0,0-13.12-3.83c-1.87-.46-3.71-.82-5.51-1.19s-3.6-.57-5.38-.76c6.9,1.81,13.78,3.22,20.52,5.81a1.51,1.51,0,0,1,.7.44.25.25,0,0,1,.22,0,21.85,21.85,0,0,1,2.89.68.65.65,0,0,1,.43.33C525.25,165.52,525.1,165.55,524.88,165.5ZM404.81,137.8l-.21-.14.64.16,1.14,1Zm-7.27,7.73h0l-.7-.55Zm65.66-17.79c-2.13-.28-4.25-.64-6.39-1-1.06-.17-2.13-.37-3.19-.59s-2.14-.4-3.22-.64h3.15c1.62.31,3.24.65,4.85,1S461.61,127.33,463.2,127.74ZM396.75,135a12.2,12.2,0,0,1,3,1.59,5.83,5.83,0,0,1,1.69-.74,44.43,44.43,0,0,1,4.87-.86c-.34-.39,0-.44.22-.55l.55-.26c-1.75.13-3.52.26-5.35.36A49.8,49.8,0,0,1,396.75,135Zm-10.64,6.22-.22-.1,0-.79Zm.1,1.33.27,0C386.53,142.86,386.41,142.8,386.21,142.59Zm2.48-.14a1.55,1.55,0,0,0-.47-.22Zm10.68,18.75-.9-3.62.78,3.52Z"/><path d="M322.77,225.88l.59,0a1.29,1.29,0,0,1-.85.8,10.49,10.49,0,0,0,6.83-3.4,16.32,16.32,0,0,0,3.93-6.41,2.46,2.46,0,0,0,1.2-3.18,2.39,2.39,0,0,0-3.33-.65,4.34,4.34,0,0,1-1,.15,21.89,21.89,0,0,0-8.69.79l2-.07a7.24,7.24,0,0,0-2.49.94l.67.35c-3.28.38-6.12,3.16-6.17,6.13s2.63,5,5.84,4.64Z"/><path d="M331.16,228.46c-1.74.31-3.48.55-5.25.79l-.5-.15,1.27,1.41-.05-.11c.13-2.09,1.61-4,3.09-5.68l.48-.66a1.45,1.45,0,0,0,0-1.19,1.76,1.76,0,0,0-2.41-.65c-.36.18-.71.38-1.06.57-3,.88-6.73,3.62-5.92,7.05.19.79,1.06,1.32,1.68,1.93a2.52,2.52,0,0,0,3.45.44,2.39,2.39,0,0,0,.82-3.29l.74-.24c-.06.23-.12.46-.17.7-.37-1.09.51-2.07.92-3.11l1-1.11-2.43-1.8-.38.76c.12.06.33.14.32.15a25.81,25.81,0,0,1-2.18,4.29l-.89,2a1.29,1.29,0,0,0,1.29,1.39l1.1,0-.55,0c2-.7,3.91-1.67,5.89-2.31a.68.68,0,0,0,.51-.73A.55.55,0,0,0,331.16,228.46Z"/><path d="M325.84,233a1.58,1.58,0,0,0-1.13.35v.3h.82C326.12,233.67,326.13,233.32,325.84,233Z"/><path d="M324.71,233.67h-.35l.32.11,0-.05Z"/><path d="M476.64,183.83c1.12.11,2.25.18,3.37.32l3.35.43,6.69.86,6.64,1.1,3.32.55,3.29.67,6.57,1.34,6.5,1.58,3.25.78c1.08.28,2.15.6,3.22.89l6.42,1.81c.57.15,1.07.22,1.13.11s-.36-.35-.89-.49L523.07,192l-3.21-.9-3.25-.79-6.5-1.59-6.57-1.35-3.29-.68-3.31-.56L490.3,185c-2.22-.32-4.45-.58-6.69-.87s-4.47-.6-6.73-.76c-.6,0-1.11,0-1.19.15S476.07,183.78,476.64,183.83Z"/><path d="M596.33,234c-.38-.13-.42,0-.09.23a4.58,4.58,0,0,0,1.21.68c.32.11.38,0,.1-.23A4.67,4.67,0,0,0,596.33,234Z"/><path d="M589.34,239.17c-1.05-.47-2.07-.94-3.08-1.35s-2-.75-2.92-1.06a4.3,4.3,0,0,1-1-.48c0,.21-.42.15-1.2-.15a321.16,321.16,0,0,0-48.42-15.07,1.56,1.56,0,0,1-.82.26,16.78,16.78,0,0,1-6-.76l-1.75-.55c-1.78-.5-3.59-.88-5.38-1.33s-3.58-.9-5.39-1.25l-5.41-1.09-2.71-.55-2.72-.46a40.82,40.82,0,0,1-5.16-.18c-3.19,0-6.39.11-9.57.14l-9.61.45c.39.17.63.36.61.56s-.48.42-1.09.56a9.67,9.67,0,0,1-2.26.25l-2.59,0c2.47.11,4.95.13,7.43.4a8.6,8.6,0,0,1,1,.11c2.73.12,5.49.12,8.3.34a288,288,0,0,1,70.74,12.06,3.9,3.9,0,0,1,1.23.54c.18.17.09.27-.33.15-14.65-3.64-27.75-4.7-44.06-6.31a221.51,221.51,0,0,0-57.2,1.86,147.59,147.59,0,0,0-28.27,5.77,167.29,167.29,0,0,0-26.58,10.67c-1.5.67-2.91,1.52-4.35,2.26l-4.28,2.28-4.12,2.45c-1.37.82-2.76,1.56-4.05,2.46l-1,.65-.49.32-.17.13-.64.47-1.26.93c-.84.62-1.71,1.17-2.51,1.83q-2.44,1.89-4.92,3.67c-1.65,1.2-3.19,2.53-4.82,3.76a5,5,0,0,1-4,1.47,6.57,6.57,0,0,1-4.23-2.21,7.48,7.48,0,0,1-1.92-5.79l-.65.46-1.24.43a5.19,5.19,0,0,1-3.81-.3l-1.65-.68c-2.72-1.59-5.73-2.19-8.48-3.95l-.55-1-.4-.11a5.94,5.94,0,0,1-3.2-1.45l-.84-1.15a13.7,13.7,0,0,1-1.88-4.36,4.91,4.91,0,0,1-.9-1.5,6.82,6.82,0,0,1-3.23-3.36,1,1,0,0,1-.77-1.16,1.09,1.09,0,0,1,.28-.49h0a9.81,9.81,0,0,0-1-.36c-.37.13-.6.19-.6.19-.93.42-.93.42-1.76.76a5,5,0,0,1-1.7-.17c-2.29-1.44-2.29-1.43-2.9-2.35,0-.11-.05-.23-.07-.34-.77.14-.82.14-1,.17a3,3,0,0,1-.53-.13c-.4-.43-.4-.43-.63-.52a2.74,2.74,0,0,1-.32-.32c-.12-.73-.12-.73-.23-.88a1.4,1.4,0,0,1,0-.38l.35-.66,1.75.58-.18-.53.63.4-.51-.41H327l-.8-.09a4.5,4.5,0,0,0,1.4-.82,2,2,0,0,0,.69-.63A1.89,1.89,0,0,1,328,232c1.12-.55,1.12-.55,2.24-1.07.17,0,.33.1.48.16a.54.54,0,0,1,.31-.52l.57-.29.05-.16,0,0,.23-.56.05-.12h0c.17-.38.39-.95,1.08-2.35a7.48,7.48,0,0,1,1-.35l-.42-.06c-.29-.05-.47-.59-.59-.58-.72.14-1.43.32-2.13.53s-1.35.51-2,.8c-1.34.58-2.66,1.23-4,1.85a1,1,0,0,1-1.31.09.83.83,0,0,1,.06-1.23c2.7-6,9.14-9.76,15.48-11,1.51-.58,3-1.19,4.48-1.81l-.35-.11,1.28-.28.12,0-1.33-.36-.71.09a29.17,29.17,0,0,1-5.29,1.71c-1.8.47-3.6.95-5.41,1.54s-3.91.8-5.9,1.27a.84.84,0,0,1-1.13-.24.81.81,0,0,1,.43-1,35.67,35.67,0,0,1,8.14-5.22,20.92,20.92,0,0,1,9.17-1.76,5.68,5.68,0,0,1,3.13-.8h.05l-1-.36c.82-.26,1.58.14,2.39,0l-.83-.82c2-.67,3.93-1.58,5.89-2.38a29.47,29.47,0,0,1,2.94-1.05,13.84,13.84,0,0,1,3.06-.48,3.48,3.48,0,0,1,.44-.1,21.74,21.74,0,0,1,1.75-2c.16-.16.33-.31.5-.46l.14-.11.43-.25.88-.49a36,36,0,0,1,3.73-1.87c-.94.3-1.84.65-2.74,1l-2.65,1a1.64,1.64,0,0,1,.27-.17l.34-.21.67-.4,1.37-.8a31.09,31.09,0,0,1,2.8-1.48c1.91-.92,3.89-1.79,6-2.61,11.38-4.37,24.9-6.54,31.66-5.37a245,245,0,0,1,33.55-6.19,270.66,270.66,0,0,1,33.9-1.42,4.17,4.17,0,0,1,2.4.56c.12.27-.65.48-1.82.45a264.17,264.17,0,0,0-48.55,4.61,288.63,288.63,0,0,1,41.23-2c1.77,0,3.55-.07,5.33,0s3.51.22,5.24.42c17.7,1,34.16,4,51.53,8l2.77.64,2.7.72,5.31,1.41c1.76.45,3.47,1,5.19,1.51L547.7,201c3.39,1.07,6.74,2.28,10.17,3.44s6.81,2.57,10.34,3.93a281.15,281.15,0,0,1,27.91,13.11A244.79,244.79,0,0,1,622,237.84c2.26,1.62,4.13,3.43,4.13,4s-1.83-.29-4.09-1.88a310,310,0,0,0-27.75-16.69,317.47,317.47,0,0,0-29.49-13.56,297.27,297.27,0,0,0-31.18-10.52,314.58,314.58,0,0,0-33-7.38c-2.43-.45-4.87-.73-7.29-1.1l-3.62-.52c-1.21-.15-2.42-.26-3.62-.39a.63.63,0,0,1,.1.28c0,.35-.51.64-1.3.85l4.09.46c1.37.18,2.73.41,4.09.62l4.08.66,2,.34,2,.42a189.81,189.81,0,0,1,45.67,10.7,235.4,235.4,0,0,1,28.53,13.48,284.47,284.47,0,0,1,34.41,18.3,3.4,3.4,0,0,1,1,.79c.11.18-.17.1-.63-.16l-6-3.27-3-1.65-3-1.57-6.14-3.16-6.27-3c1.15,1,1.73,1.75,1.42,2.1s-1.5.2-3.16-.34l5.52,3c1.14.61,1.94,1.26,1.8,1.45s-1.12-.14-2.21-.71c-3.75-2-7.47-4-11.3-5.84-1.92-.91-3.8-1.9-5.73-2.76l-5.81-2.61a295.24,295.24,0,0,0-28.89-9.88,7.06,7.06,0,0,1,2.44,2.12h0l4.49,1.38c27.69,7.64,54.5,21.06,78.43,38.55.48.34.83.67.78.76s-.46-.11-.88-.42c-3.65-2.59-7.26-5.22-11-7.61-1.88-1.21-3.71-2.49-5.63-3.61L600.32,236l0,0c.27.24.27.37-.1.23a5.46,5.46,0,0,1-1.2-.72c-.31-.28-.22-.35.1-.24a245.62,245.62,0,0,0-44.89-20.11A256.8,256.8,0,0,1,595,234.4c1.48.71,3,1.35,4.47,2.12a3.73,3.73,0,0,1,1,.75c.06.14-.27.06-.68-.16l-1.23-.63c2.41,1.51,4.07,3,3.76,3.43s-2.7-.52-5.22-2c-6.9-3.75-13.81-7.43-20.92-10.69l-2.34-1-2.42-.83A291.84,291.84,0,0,1,603.17,243c.89.52,1.56,1.1,1.49,1.26s-.88-.12-1.77-.64a299.87,299.87,0,0,0-28.58-14,286.82,286.82,0,0,0-30-11c-3.47-.62-7-1.09-10.47-1.63-3.53-.37-7-.81-10.59-1.1.86.19,1.73.42,2.6.64,11.11,2.62,21.43,5.17,31.57,8.26a196.48,196.48,0,0,1,30.21,11.69,2.06,2.06,0,0,1,.9.66c0,.12-.38,0-.88-.25A221.77,221.77,0,0,0,558,225.49l-6.35-2-6.27-1.65-3.09-.79-3.1-.66c-2-.42-4.09-.85-6.12-1.23l6.07,1.61,3,.77,3,.87,6,1.7,5.92,1.89,3,.95,2.93,1,5.87,2.11c1.94.76,3.87,1.56,5.81,2.35l2.91,1.2c1,.41,1.92.86,2.88,1.3a7.45,7.45,0,0,1,1.7.95.79.79,0,0,1,.44.06,64.51,64.51,0,0,1,6.32,2.53,3.18,3.18,0,0,1,1.06.68C590.1,239.41,589.81,239.36,589.34,239.17Zm-244.61-12-.24-.09h.65l1.4.73Zm-4.67,9.44h0l-.82-.37Zm96.63-48.2-7.27.82c-1.22.11-2.42.29-3.63.46l-3.61.5c-4.85.55-9.63,1.44-14.5,2.06l6.93-1.67,2.74-.44,2.76-.33,5.51-.61c1.83-.23,3.68-.34,5.53-.45ZM336.46,226.52a12.52,12.52,0,0,1,3.27.8,5.15,5.15,0,0,1,1.34-1.16,27,27,0,0,1,4.27-2.13c-.44-.3-.09-.44,0-.59l.43-.4c-1.58.6-3.24,1.09-4.86,1.75A40.75,40.75,0,0,1,336.46,226.52Zm-8.22,8.41-.23-.05-.23-.76Zm.41,1.27.25-.07C329,236.4,328.89,236.36,328.65,236.2Zm2.3-.61a1.48,1.48,0,0,0-.49-.12Zm14.73,16L344,248.2l1.57,3.29Z"/><path d="M69.76,116.08c0,.19-.08.4-.12.59a1.3,1.3,0,0,1-.67-1,10.83,10.83,0,0,0,2.37,7.39A16.63,16.63,0,0,0,77.19,128a2.49,2.49,0,0,0,3,1.69,2.43,2.43,0,0,0,1.16-3.24,3.74,3.74,0,0,1,0-1.06,22.55,22.55,0,0,0,.51-8.87l-.24,2.06a7.62,7.62,0,0,0-.56-2.65l-.45.62c.12-3.35-2.25-6.63-5.22-7.13s-5.43,1.88-5.54,5.17Z"/><path d="M65.91,124.12c0-1.79,0-3.57,0-5.39l.22-.49-1.6,1.07.12,0c2.07.45,3.81,2.23,5.23,4l.58.58a1.5,1.5,0,0,0,1.2.15,1.78,1.78,0,0,0,1-2.32c-.11-.4-.27-.77-.41-1.16-.43-3.13-2.62-7.33-6.18-7-.82.08-1.48.87-2.2,1.4a2.57,2.57,0,0,0-1,3.4,2.43,2.43,0,0,0,3.18,1.33l.12.78-.67-.28c1.15-.2,2,.83,3,1.4l1,1.15,2.18-2.18L71,120c-.09.11-.19.3-.21.3a26.69,26.69,0,0,1-4-2.85l-1.89-1.2a1.31,1.31,0,0,0-1.6,1.09l-.13,1.1.14-.54c.4,2.12,1.08,4.18,1.43,6.27a.68.68,0,0,0,.65.62A.55.55,0,0,0,65.91,124.12Z"/><path d="M62.13,118.08A1.55,1.55,0,0,0,62,116.9l-.3-.05c0,.22-.08.52-.12.82C61.43,118.27,61.79,118.33,62.13,118.08Z"/><path d="M61.65,116.85c0-.21.06-.35.06-.35l-.16.31.05,0Z"/><path d="M88.23,275c-.49,2.21-1.14,4.36-1.75,6.52s-1.2,4.32-1.86,6.46l-2.08,6.39c-.35,1.06-.68,2.13-1.05,3.19l-1.16,3.14L78,307l-2.53,6.18-1.26,3.09-1.37,3-2.74,6.06c-.24.54-.39,1-.28,1.1s.39-.31.62-.81l2.75-6.06,1.38-3,1.27-3.09,2.53-6.17L80.73,301l1.15-3.15c.39-1,.71-2.11,1.07-3.17L85,288.33c.68-2.13,1.25-4.3,1.88-6.46s1.27-4.31,1.77-6.52a2,2,0,0,0,0-1.2C88.57,274.09,88.37,274.49,88.23,275Z"/><path d="M20.92,385.62c.19-.36.1-.41-.21-.13a4.93,4.93,0,0,0-.86,1.09c-.15.31-.05.38.22.13A4.89,4.89,0,0,0,20.92,385.62Z"/><path d="M16.87,378c.63-1,1.24-1.91,1.8-2.83s1-1.86,1.47-2.74a4.21,4.21,0,0,1,.62-.87c-.21,0-.09-.44.32-1.16a317.78,317.78,0,0,0,22-45.56A1.81,1.81,0,0,1,43,324a16.61,16.61,0,0,1,1.62-5.77l.8-1.64c.77-1.68,1.4-3.42,2.1-5.12s1.41-3.4,2-5.13l1.87-5.18.94-2.59.85-2.61a40.29,40.29,0,0,1,.93-5.07c.3-1.56.45-3.16.66-4.73s.41-3.16.61-4.74c.38-3.16.61-6.36,1-9.55-.23.37-.45.57-.64.53-.44-.22-.52-1.74-.3-3.43.11-.86.21-1.72.32-2.57-.45,2.43-.87,4.87-1.49,7.27a9.51,9.51,0,0,1-.25,1c-.51,2.67-.94,5.39-1.56,8.13a286.74,286.74,0,0,1-22.29,68,3.94,3.94,0,0,1-.71,1.13c-.19.15-.28.05-.1-.35C35.07,337.65,38.05,324.88,42,309a221.36,221.36,0,0,0,6.53-56.73A149.7,149.7,0,0,0,47,223.57l-.56-3.5-.28-1.75-.36-1.74c-.5-2.31-1-4.63-1.49-6.94s-1.22-4.59-1.83-6.92-1.43-4.59-2.13-6.91c-.45-1.58-1-3.11-1.59-4.63s-1.08-3-1.63-4.54-1.21-3-1.8-4.42-1.13-2.95-1.82-4.36L33,176.8l-.24-.53-.11-.2-.38-.7L31.53,174c-.5-.93-.94-1.88-1.45-2.8-1-1.81-2-3.63-3-5.47-.46-.92-1-1.81-1.51-2.7l-1.55-2.68c-1.86-2.52-1.11-6,2-8.1a7.58,7.58,0,0,1,6.1-1.06l-.37-.72-.24-1.31a5.19,5.19,0,0,1,.86-3.76l.93-1.55c2-2.49,3.06-5.42,5.24-7.92l1.14-.39.17-.39a6.09,6.09,0,0,1,1.94-3l1.27-.66a13.78,13.78,0,0,1,4.66-1.24,5.06,5.06,0,0,1,1.65-.68,7,7,0,0,1,3.85-2.74,1,1,0,0,1,1.28-.59,1.13,1.13,0,0,1,.46.35h0a8.7,8.7,0,0,0,.5-.93,5.94,5.94,0,0,1-.1-.63c-.28-1-.28-1-.5-1.88a5.23,5.23,0,0,1,.43-1.69c1.79-2.08,1.78-2.09,2.79-2.55a2.11,2.11,0,0,1,.35,0c0-.79,0-.85,0-1.07a2.91,2.91,0,0,1,.21-.52c.49-.34.49-.34.62-.56a2.1,2.1,0,0,1,.37-.26c.75,0,.75,0,.92-.11a1.4,1.4,0,0,1,.38,0l.61.46c-.84,1.65-.84,1.66-.84,1.66l.55-.09-.49.56.49-.45-.1.64.22-.79a5,5,0,0,0,.6,1.53,2,2,0,0,0,.54.79,2,2,0,0,1,.28-.22c.38,1.22.38,1.22.73,2.41a3.94,3.94,0,0,1-.23.46.57.57,0,0,1,.48.4l.21.61.14.08,0,0,.52.32.12.06h0c.36.22.88.54,2.19,1.44a7.77,7.77,0,0,1,.2,1.1,2.77,2.77,0,0,1,.12-.41c.09-.28.66-.38.66-.51a18.52,18.52,0,0,0-.21-2.22c-.12-.72-.3-1.44-.48-2.16-.38-1.43-.84-2.86-1.26-4.3a1,1,0,0,1,.11-1.34.84.84,0,0,1,1.22.25c5.58,3.62,8.42,10.68,8.71,17.25.35,1.61.74,3.19,1.14,4.78l.17-.33.08,1.32,0,.14c.18-.43.37-.86.55-1.28,0-.25,0-.49,0-.73a29.82,29.82,0,0,1-.92-5.58c-.17-1.89-.4-3.77-.71-5.68s-.22-4.06-.39-6.13a.84.84,0,0,1,.42-1.1.81.81,0,0,1,1,.59,36.23,36.23,0,0,1,4,9,21.72,21.72,0,0,1,.37,9.49,5.61,5.61,0,0,1,.31,3.28v0l.54-1c.09.88-.39,1.57-.41,2.41l1-.71c.36,2.11,1,4.19,1.49,6.28a28.13,28.13,0,0,1,.6,3.12,16.58,16.58,0,0,1,0,3.15,2.42,2.42,0,0,1,0,.46,22.72,22.72,0,0,1,1.73,2.06c.13.19.26.38.38.57l.09.16.18.46.36.94c.22.64.45,1.28.69,1.94s.38,1.34.57,2c-.18-1-.33-1.92-.56-2.86l-.63-2.77a2,2,0,0,1,.14.29l.15.36.3.73.58,1.47c.4,1,.68,2,1,3,.63,2,1.19,4.12,1.69,6.3,2.57,11.9,2.6,25.58.43,32.07a249.81,249.81,0,0,1,1,34,268.41,268.41,0,0,1-3.72,33.66,4.3,4.3,0,0,1-.92,2.29c-.28.07-.37-.72-.17-1.86l.46-3,.35-3c.23-2,.46-4,.7-6s.34-4,.53-6.05.31-4,.47-6.07.17-4.07.25-6.1.21-4.07.17-6.11c0-4.08.09-8.16-.15-12.25a291.38,291.38,0,0,1-4.28,41c-.26,1.74-.44,3.51-.79,5.26s-.74,3.42-1.2,5.11c-3.65,17.29-9.08,33.07-15.67,49.6-.35.88-.69,1.76-1,2.63l-1.11,2.56-2.19,5c-1.46,3.32-3.06,6.49-4.57,9.7s-3.27,6.31-4.92,9.51-3.55,6.33-5.43,9.61a279.05,279.05,0,0,1-17.1,25.55,246.12,246.12,0,0,1-20,23c-1.93,2-4,3.56-4.54,3.48s.56-1.75,2.48-3.74A311.13,311.13,0,0,0,31.72,385.1a319,319,0,0,0,17.78-27,299.19,299.19,0,0,0,15-29.18A309,309,0,0,0,76.74,297.5c.42-1.17.78-2.34,1.12-3.52s.71-2.34,1.06-3.5c.71-2.34,1.42-4.66,2-7a.52.52,0,0,1-.29.06c-.35-.08-.57-.6-.65-1.41-.36,1.32-.71,2.64-1.07,4L77.67,290c-.86,2.62-1.62,5.26-2.62,7.84a189.81,189.81,0,0,1-17.38,43.43,235.26,235.26,0,0,1-17.55,26.12A281.81,281.81,0,0,1,17,398.61a3.38,3.38,0,0,1-.92.86c-.2.08-.07-.19.26-.6l4.11-5.37,2.07-2.71,2-2.77,4-5.58,3.89-5.73c-1.13,1-2,1.44-2.27,1.09s0-1.51.8-3.06l-3.73,5c-.77,1-1.54,1.73-1.7,1.56s.31-1.07,1-2.06C29,375.83,31.61,372.46,34,369c1.19-1.75,2.44-3.46,3.58-5.24L41,358.37a290.41,290.41,0,0,0,14-27,7,7,0,0,1-2.44,2.09h0l-2,4.22C38.86,363.83,21.66,388.28.87,409.3c-.4.42-.78.71-.86.65s.18-.43.55-.8c3.09-3.22,6.22-6.39,9.14-9.75,1.46-1.67,3-3.29,4.39-5l4.24-5.13,0,0c-.27.24-.4.22-.21-.13a5.33,5.33,0,0,1,.89-1.07c.32-.27.38-.17.22.12a244.32,244.32,0,0,0,26.49-41.28,257.37,257.37,0,0,1-25,37.37c-.91,1.35-1.77,2.75-2.75,4.09a3.45,3.45,0,0,1-.89.86c-.14,0,0-.27.27-.64l.8-1.12c-1.84,2.15-3.56,3.57-3.93,3.21s.92-2.59,2.78-4.84c4.72-6.26,9.37-12.53,13.64-19.06l1.32-2.16,1.18-2.27a290.55,290.55,0,0,1-22,28.71c-.64.8-1.31,1.39-1.46,1.29s.25-.84.9-1.65a295.34,295.34,0,0,0,18-26.13,284.24,284.24,0,0,0,15.24-28c1.14-3.34,2.11-6.73,3.15-10.09s1.83-6.84,2.66-10.29c-.31.83-.68,1.64-1,2.47-4.22,10.58-8.24,20.39-12.79,29.94a198.47,198.47,0,0,1-16,28.07c-.32.47-.67.79-.79.79s0-.37.38-.83A221.12,221.12,0,0,0,35,349.05l2.85-6c.88-2,1.72-4,2.56-5.94l1.23-2.94,1.11-2.95,2.11-5.86q-1.24,2.88-2.47,5.76L41.17,334l-1.29,2.83c-.86,1.89-1.71,3.78-2.57,5.66l-2.73,5.56-1.37,2.79-1.46,2.74-2.95,5.48-3.17,5.39L24,367.15c-.55.9-1.14,1.77-1.71,2.65a7.57,7.57,0,0,1-1.19,1.54.82.82,0,0,1-.13.42,63.78,63.78,0,0,1-3.42,5.87,3.18,3.18,0,0,1-.83.94C16.53,378.71,16.62,378.43,16.87,378ZM65.18,138l.12-.23c0,.2-.06.41-.1.65l-.94,1.29Zm-8.76-6.13h0l.5-.77ZM89.76,235c.14-4.87.43-9.73.43-14.58.17-4.87.06-9.72.16-14.62.2,2.37.41,4.72.62,7.09,0,1.84,0,3.69-.1,5.54l-.21,5.53c0,1.85-.26,3.69-.41,5.53S89.92,233.11,89.76,235ZM67.05,129.74a12.21,12.21,0,0,1-1.29,3.17,5.14,5.14,0,0,1,1,1.53,29.11,29.11,0,0,1,1.49,4.61c.36-.39.45,0,.58.13l.34.5c-.37-1.68-.62-3.43-1-5.16A41.19,41.19,0,0,1,67.05,129.74Zm-7.2-9.54.09-.22.79-.11Zm-1.33.23,0,.26C58.27,120.76,58.32,120.64,58.52,120.43Zm.27,2.4a1.9,1.9,0,0,0,.19-.47ZM40.54,135.22,44.17,134l-3.54,1.08Z"/><path d="M70.42,235.34l.87-.49a5,5,0,0,1-1.54,1.56,22,22,0,0,0,5.73-4.68c1.69-1.82,3.1-4,4.82-6.16.86-1.08,1.77-2.15,2.74-3.21a37,37,0,0,1,3.42-3.25,35.6,35.6,0,0,1,7.24-4.68c1-.26,1.87-.54,2.78-.75s1.73-.44,2.48-.61c1.47-.38,2.63-.61,2.81-1,.46-.62-3.36-1.44-7.65-.37-.94.16-2.07.42-2.74.55a29.51,29.51,0,0,0-9.77,3.4,26.77,26.77,0,0,0-2.49,1.55l-1.24.88-1.07.78a49.73,49.73,0,0,0-4.06,3.46L74.42,221c.58-.44,1.17-.88,1.76-1.3a32.32,32.32,0,0,0-4.53,4.38l.86-.35c-2.55,2.32-5,5-7.41,7.31l-3.24,3.08a21.63,21.63,0,0,0-2.27,2.29c-1,1.26-.49,1.81,1.29,2a14.25,14.25,0,0,0,7.2-1.77c.42-.21.8-.42,1.19-.64S70.07,235.57,70.42,235.34Z"/><path d="M81,230.1a59.72,59.72,0,0,1-6.91,6l-.68.3,1.48.36,0-.07a21.08,21.08,0,0,1,2-4.3c1-1.66,2.08-3.58,3.41-5.44l.93-1.36a2.41,2.41,0,0,0,.54-1.51c-.13-.65-1.71.13-3.25,1.81-.57.64-1.15,1.3-1.67,1.93-2.16,2.25-4.65,5.06-6.93,7.35-1.15,1.16-2.17,2.18-3,3.08s-1.36,1.6-1.37,2.2,1.48.52,2.39.68a4,4,0,0,0,2.49-.17,8.75,8.75,0,0,0,3.07-1.82c1.83-1.7,2.52-3.65,1.81-4.13.34-.31.7-.64,1-.95-.1.31-.24.61-.35.92-.27-.84,1.09-2.78,1.87-4.48l1.57-2.42-2.69.4L76,229.85c.14,0,.39-.18.38-.16a41.33,41.33,0,0,1-4.1,6.93c-.62.95-1.25,1.84-1.92,2.7-.35.74.48.92,1.7.38.57-.29,1.12-.57,1.64-.89-.27.14-.52.27-.79.39,3.15-2.26,5.56-5.16,8.11-7.94a2.81,2.81,0,0,0,.78-1.4C81.81,229.54,81.45,229.64,81,230.1Z"/><path d="M73.23,240a11.18,11.18,0,0,0-1.85,1.14l-.07.28c.36-.14.86-.35,1.32-.57C73.54,240.44,73.6,240.08,73.23,240Z"/><path d="M71.31,241.43l-.6.22.52-.11.06-.06Z"/><path d="M235.12,350.46a63.67,63.67,0,0,0,11.76-6.77,60,60,0,0,0,9.57-8.73,49.75,49.75,0,0,0,6.67-9.8,38.3,38.3,0,0,0,3.37-9.82,36.7,36.7,0,0,0,.5-4.68c0-.39,0-.76,0-1.14l0-1.14v-.56l0-.64c0-.43,0-.85-.06-1.28a48.42,48.42,0,0,0-.55-5.26c-.24-1.78-.59-3.59-1-5.46a102.11,102.11,0,0,0-3.4-11.63c-.35-1-.73-2-1.11-3s-.87-2.28-1.28-3.42c-.86-2.27-1.78-4.5-2.66-6.7-.47-1.2-1.11-2.09-1.38-2.06s-.06,1,.41,2.08l1.34,3.3,1.32,3.36c.42,1.13.84,2.27,1.29,3.4s.77,2,1.12,3a107.42,107.42,0,0,1,3.45,11.5c.43,1.84.79,3.62,1.05,5.38a47.05,47.05,0,0,1,.6,5.15c0,.43.06.85.08,1.26s.05.87,0,1.21c0,.72.07,1.48,0,2.21l0,1.13-.1,1.13c0,.77-.21,1.51-.28,2.31a36.61,36.61,0,0,1-3.1,9.65,48.49,48.49,0,0,1-6.39,9.74A59.37,59.37,0,0,1,247,343a64.44,64.44,0,0,1-11.56,6.89,9.46,9.46,0,0,0-2.17,1.18C233.25,351.16,234.07,350.9,235.12,350.46Z"/><path d="M264.55,65.64c-.42,1-.21,1.11.49.18a21.71,21.71,0,0,0,2-3.24c.39-.85.16-.95-.49-.19A14.12,14.12,0,0,0,264.55,65.64Z"/><path d="M274.87,81.88,273.43,86l-.69,2c-.2.67-.37,1.34-.55,2-.35,1.33-.68,2.63-1,3.89a30.48,30.48,0,0,0-.76,3.73,12.85,12.85,0,0,1-.75,2.58c.45-.2.48,1,.08,3a142.19,142.19,0,0,0-2,30.5,177.07,177.07,0,0,0,4.2,31A200.42,200.42,0,0,0,281.5,195c1,2.45,2,4.87,3.1,7.24s2.22,4.7,3.3,6.75l1.89,3.43,2.11,3.77q2.18,3.86,4.41,8a4.6,4.6,0,0,1,1.84,1.48c2.49,2.68,6.06,9.16,8.54,16.48.57,1.85,1.16,3.7,1.66,5.56,1.7,5.59,3.16,11.21,4.34,16.8.61,2.87,1.23,5.94,1.69,9s.85,6.15,1.09,9.31a106.56,106.56,0,0,1-.2,19.3,94.17,94.17,0,0,1-1.59,9.77c-.16.81-.38,1.62-.57,2.42s-.4,1.6-.66,2.45c-.51,1.65-.94,3.31-1.57,4.92a57.9,57.9,0,0,1-2.94,8.51c-.66,1.46-1.33,2.95-2.16,4.41l-1.22,2.22c-.46.72-.91,1.45-1.38,2.18a73.71,73.71,0,0,1-10.44,13.54A80.38,80.38,0,0,1,280,363.25a89.87,89.87,0,0,1-29.47,13c1.36-.16,2.22-.18,2.28,0-.25.52-5,2.07-10.89,2.66-3,.3-5.87.54-8.81.58a98.44,98.44,0,0,0,12.69-.9A108,108,0,0,0,258.4,376c1.2-.35,2.31-.66,3.34-.93a93.53,93.53,0,0,0,26.42-13.38A85.5,85.5,0,0,0,301,350.05a78.66,78.66,0,0,0,10.36-14.71,75.55,75.55,0,0,0,6.81-17.16,89,89,0,0,0,2.82-17.3,112.2,112.2,0,0,0-2.83-32.37c-.28-1.27-.6-2.5-.91-3.74s-.61-2.31-.93-3.47c-.62-2.28-1.34-4.56-2-6.84-1.48-4.54-3.09-9.07-4.91-13.51a214.58,214.58,0,0,0-12.28-24.8L294,210.82l-1.43-2.51-.6-1-.56-1c-1.53-2.87-3.15-6.1-4.6-9.36a195.6,195.6,0,0,1-13.35-41.29,9.84,9.84,0,0,1-.28-3.25c.15-.57.47-.49.71.54a155.55,155.55,0,0,0,8.56,25.2c1.74,4,3.56,7.89,5.56,11.68s4,7.52,6.2,11c1.08,1.7,2.17,3.45,3.12,4.69q2,3,4,6c.69,1,1.45,2.18,2.15,3.29l2.21,3.53c1.49,2.42,3,5,4.45,7.66a157.35,157.35,0,0,1,8.18,17.21,163.6,163.6,0,0,1,6.31,18.9A125.38,125.38,0,0,1,329,289.16a100.9,100.9,0,0,1-3,29.88,85,85,0,0,1-5.55,15.34A86.08,86.08,0,0,1,312.28,348a81.12,81.12,0,0,1-10.17,11.45,85.78,85.78,0,0,1-11.47,9.18,97.81,97.81,0,0,1-25.11,12.05,109.41,109.41,0,0,1-13.11,3.22,101.19,101.19,0,0,1-13.3,1.41,90.44,90.44,0,0,1-26.6-2.71,60.85,60.85,0,0,1-13.15-5.08c-.52-.26-1-.51-1.54-.78l-1.48-.88c-1-.59-2-1.16-2.9-1.79-1.83-1.32-3.7-2.56-5.37-4a70.83,70.83,0,0,1-9.43-9.56,79.1,79.1,0,0,1-7.29-10.47,91.51,91.51,0,0,1-5.47-11l-1.09-2.82c-.38-.93-.71-1.88-1-2.83s-.63-1.88-.91-2.86l-.81-3c-.13-.5-.28-1-.39-1.5l-.3-1.5-.59-3c-.22-2-.63-4-.75-5.94l-.28-2.95c0-1-.09-1.94-.16-2.91-.2-2-.1-3.86-.23-5.79-.15-7.66,0-15.18,0-22.56,0-3.62,0-7.25,0-10.88,0-1.78,0-3.56-.07-5.3s0-3.46-.09-5.17c0-.42,0-.85,0-1.27l-.05-1.19c0-.79-.07-1.58-.15-2.36-.09-1.57-.21-3.13-.41-4.65a66.38,66.38,0,0,0-1.48-8.71c-.19-.65-.35-1.33-.55-2s-.37-1.27-.6-1.85a32.85,32.85,0,0,0-1.42-3.23,12,12,0,0,0-.79-1.33,8.19,8.19,0,0,0-.82-1.16c-.14-.18-.28-.36-.41-.55l-.46-.44c-.15-.14-.27-.34-.44-.47l-.49-.4a5.51,5.51,0,0,0-.83-.67,7.21,7.21,0,0,0-.68-.41,1.83,1.83,0,0,1-.41-.26.31.31,0,0,1-.09-.11s0-.05-.07-.18,0-.07,0-.06-.07,0-.14-.05-.12,0-.21,0a1.38,1.38,0,0,1-.27.11,4.56,4.56,0,0,0-1.47,1.86,16.47,16.47,0,0,0-1.46,5.14,23.4,23.4,0,0,0-.23,3.05c0,.52,0,1,0,1.57l.09,1.84c.19,2.5.39,5.19.54,8.11a45.43,45.43,0,0,1-.53,9.53c-.18.87-.35,1.73-.62,2.61l-.38,1.33-.49,1.33c-.32.88-.78,1.74-1.2,2.61-.57.92-1.14,1.85-1.78,2.71a20.89,20.89,0,0,1-10.61,7.25c-.52.14-1,.31-1.55.42l-1.57.27a20.93,20.93,0,0,1-3.16.25,28.59,28.59,0,0,1-3.2-.17,29.61,29.61,0,0,1-3.2-.62,26.4,26.4,0,0,1-3.15-1.14c-.52-.24-1-.5-1.54-.77l-.76-.41-.73-.49a17.85,17.85,0,0,1-2.81-2.21c-.44-.41-.87-.84-1.29-1.27s-.78-.94-1.16-1.43-.76-1-1.08-1.49-.61-1.05-.9-1.59a22.85,22.85,0,0,1-1.4-3.06l-.52-1.46-.42-1.41-.18-.63c-.18-.68-.35-1.35-.48-2-.28-1.32-.48-2.54-.67-3.75-.34-2.38-.53-4.55-.76-6.56s-.42-3.82-.71-5.38a11.1,11.1,0,0,0-1.16-3.62c-.24-.39-.51-.55-.72-.55,0,0-.09,0,0,0l.4-.09.79-.2c.29-.09.48-.13.69-.19s.41-.11.61-.18l1.09-.38a7.9,7.9,0,0,0,.89-.37,5.84,5.84,0,0,0,1.46-.83l-.27.27-.11.14,0,.07h0l1.09-1.41h0v0a.93.93,0,0,0,.13-.18c.16-.3-.13.17-.16,1.08a8.87,8.87,0,0,0,.37,2.93,10,10,0,0,0,.76,1.89,5.3,5.3,0,0,0,.34.6l-.14-.23a9.57,9.57,0,0,1-.76-1.64c.12.37.29.7.41,1s0,.15.06.25-.08.13-.22.08-.12-.08-.26-.08a2.09,2.09,0,0,1-.5,0,6.79,6.79,0,0,0-1,.08,6.09,6.09,0,0,0-2.93.68,19.06,19.06,0,0,1-3.13,1.35l-.73-.63-.28.24a3.26,3.26,0,0,1-2.55,1.37l-1-.48a6.57,6.57,0,0,1-2.71-3,1.87,1.87,0,0,1-1-.8c-1.33.43-2.64.44-3.44-.67-.57.39-1,.15-.86-.56a3,3,0,0,1,.28-.78h0c-.41.18-.53.24-1,.51-.39.48-.64.75-.64.75-1,1.28-1,1.28-2,2.35a8.61,8.61,0,0,1-2.12,1.23,18.46,18.46,0,0,1-2.84.21,2.09,2.09,0,0,1-1.12-.35,1.31,1.31,0,0,1-.06-.27,18.16,18.16,0,0,1-1.69.85,6.61,6.61,0,0,1-.88.2,2,2,0,0,0-1-.09,2.37,2.37,0,0,1-.48-.1c0-.55,0-.56-.16-.62a.65.65,0,0,1,0-.3l.79-.81c1.38-.3,2-.5,2.32-.59l.32-.09-.16-.38.85-.09h-.68l.92-.49-1.15.53c.83-.67,1.21-1,1.47-1.25a7.36,7.36,0,0,0,.65-.7,5.88,5.88,0,0,0,1-1.25,1.21,1.21,0,0,1-.29,0c1.56-1.61,1.53-1.62,3-3.25a5.08,5.08,0,0,1,.56-.29,2,2,0,0,1,.47-.92l.73-.91a2.18,2.18,0,0,0,.09-.23h0c.17-.36.28-.62.41-.9s.08-.19.08-.19h0a29.38,29.38,0,0,1,2.15-4A21.11,21.11,0,0,1,85.59,225l-.59.33c-.39.21-.39-.27-.58-.13a40.68,40.68,0,0,0-6,6A55,55,0,0,1,72.65,237a3.32,3.32,0,0,1-2,1.15c-.47,0-.24-.59.45-1.27,1.47-2.06,3.06-4.39,4.83-7,.88-1.3,1.81-2.74,2.92-4.13.56-.69,1.16-1.39,1.81-2.07.31-.34.65-.68,1-1s.65-.63,1.09-1a27.24,27.24,0,0,1,11.36-6.14,25,25,0,0,1,6.71-.88,21.68,21.68,0,0,1,7.09,1.2,19.85,19.85,0,0,1,9.27,6.15,21.84,21.84,0,0,1,2,2.78c-.08-.21-.17-.42-.25-.62a18.93,18.93,0,0,1,1.48,3.09l.13.33a19.51,19.51,0,0,0-.73-2.54c-.27-.55-.58-1.1-.9-1.65a24.72,24.72,0,0,0-2.54-3.09,15.13,15.13,0,0,0-1.59-1.44,14.94,14.94,0,0,0-1.8-1.33,22,22,0,0,0-8.23-3.2,26,26,0,0,0-8-.12,29.59,29.59,0,0,0-7.2,1.9,39.08,39.08,0,0,0-6.74,3.52c-.52.35-1,.71-1.55,1.09l-1.35,1c-.87.67-1.73,1.38-2.53,2.12s-1.45,1.26-1.59,1,.38-1.13,1.15-1.93c.62-.7,1.24-1.39,1.95-2.08l1.07-1,1.3-1.15a30.68,30.68,0,0,1,5.73-3.84,30,30,0,0,1,6.58-2.53,32.38,32.38,0,0,1,3.63-.73,30.92,30.92,0,0,1,3.89-.23,28.3,28.3,0,0,1,4.06.35,25.15,25.15,0,0,1,4.11,1.08,21.57,21.57,0,0,1,7.18,4.21,20.27,20.27,0,0,1,2.47,2.61,23.74,23.74,0,0,1,1.86,2.75,19.77,19.77,0,0,1,2.13,5.44,17,17,0,0,1,.91,7.34v.1c.12-.48.19-1,.28-1.51,0,.45,0,.86,0,1.23s-.08.67-.13,1c-.09.65-.23,1.2-.32,1.92l.51-.56a44.28,44.28,0,0,1-.74,5.3c-.3,1.6-.63,3.09-1,4.46-.65,2.75-1.31,5.14-1.82,7.13,0,.16-.07.31-.1.46,0,.84.12,1.61.2,2.35l.06.53,0,.16c0,.23,0,.48,0,.69a5.82,5.82,0,0,0,.08.62,2.27,2.27,0,0,0,.1.48,2.69,2.69,0,0,0,.55,1.39A4.85,4.85,0,0,0,123,262a3.78,3.78,0,0,1-1.8-1.76,1.73,1.73,0,0,0-.14-.5,1.64,1.64,0,0,0,0-.51c0-.27-.08-.54-.09-.86a3.76,3.76,0,0,1,0-.48c0-.15,0-.42,0-.39V258a3.91,3.91,0,0,0,0,.51,3,3,0,0,0,.06.46,2.18,2.18,0,0,0,.08.37,2.64,2.64,0,0,0,.3,1,4.18,4.18,0,0,0,2.14,1.7,5.64,5.64,0,0,0,3.47.15,4.75,4.75,0,0,0,2.79-1.81c1.21-1.66,1.85-4.2,1.92-7.29a44.65,44.65,0,0,0-.21-4.93c-.17-1.73-.38-3.53-.61-5.42-.12-.91-.23-2-.31-3s-.11-2.11-.14-3.17a42.14,42.14,0,0,1,.38-6.49,28.63,28.63,0,0,1,1.73-6.76,20.75,20.75,0,0,1,4.23-6.67c.5-.5,1-1,1.57-1.45s1.16-.85,1.75-1.26a17.22,17.22,0,0,1,4-1.89,18.79,18.79,0,0,1,8.08-.73,22.38,22.38,0,0,1,6.79,2,28,28,0,0,1,12.19,11.21,19.79,19.79,0,0,1,1.1,2c.32.65.65,1.28.92,1.9.48,1.25,1,2.43,1.3,3.53a57.65,57.65,0,0,1,3.31,23.58c-.05,1-.12,1.93-.23,2.88s-.18,1.92-.31,2.82c-.27,1.82-.53,3.65-.86,5.43-.65,3.59-1.43,7.08-2.2,10.55-1.58,6.92-3.29,13.66-4.22,20.42s-1.15,13.54.28,19.9a37.35,37.35,0,0,0,3.17,9l1.19,2.16c.39.73.8,1.44,1.25,2.12l1.3,2.09,1.41,2,.71,1,.77,1,1.51,1.89c1.1,1.19,2.11,2.44,3.29,3.51a52.51,52.51,0,0,0,7.21,6,39.94,39.94,0,0,0,16.11,6.67,20.35,20.35,0,0,0,2,.27l2,.12a16.85,16.85,0,0,0,2,0c.68,0,1.27,0,2-.08s1.42-.11,2.12-.19l2.12-.29c1.41-.27,2.81-.54,4.2-.91a29.56,29.56,0,0,1,4.75-1.05c.26.14-1.2.86-3.52,1.49a52.53,52.53,0,0,1-6.1,1.31l-1.54.2c-.52.06-1,.09-1.55.14-1.07.11-2,.1-3,.13-.48,0-1,.05-1.47,0l-1.48-.11c-.5,0-1,0-1.5-.11l-1.5-.24c-.5-.1-1-.16-1.51-.27l-1.49-.4c-.5-.13-1-.25-1.51-.39l-1.49-.53c-8-2.83-15.55-8.6-21.45-15.93a63,63,0,0,1-7.65-12A39,39,0,0,1,169,312.35a63.15,63.15,0,0,1-.19-7.29c0-1.22.14-2.45.23-3.68s.23-2.46.4-3.69c.63-4.93,1.63-9.86,2.74-14.84-1,4.15-1.82,8.28-2.5,12.41a82.29,82.29,0,0,0-1.05,12.37,50.23,50.23,0,0,0,1.45,12,45.94,45.94,0,0,0,4.72,11,63.41,63.41,0,0,0,7,9.89,54.34,54.34,0,0,0,8.61,8.16,47.71,47.71,0,0,0,9.87,5.82,36.21,36.21,0,0,0,10.54,2.8l1.35.15,1.35,0c.92,0,1.76.08,2.73,0s1.89-.07,2.85-.18l1.41-.13L222,357a75.92,75.92,0,0,0,10.94-2.55,65.14,65.14,0,0,0,23.44-14.22,48.43,48.43,0,0,0,13.06-20A35.5,35.5,0,0,0,271.13,310l0-1.25c0-.42,0-.91,0-1.36s0-.93-.05-1.39,0-.92-.08-1.39c-.12-1.86-.4-3.76-.71-5.68a85.56,85.56,0,0,0-3-11.89q-1-3.06-2.28-6.21l-1.36-3.34c-.47-1.17-.94-2.33-1.44-3.47a226.81,226.81,0,0,0-10.88-22c-2-3.57-4.12-7.19-6.42-11.21l-1.75-3.08-1.8-3.24c-.54-1-1.39-2.58-2-3.82s-1.28-2.54-1.86-3.8c-2.33-5-4.36-9.87-6.26-14.86s-3.53-10-5.05-15.19-2.79-10.44-3.94-15.84-2-10.94-2.7-16.63a172.35,172.35,0,0,1,.85-48A148.68,148.68,0,0,1,226.07,93c1.32-3.77,2.8-7.46,4.22-11.16,1.64-3.58,3.31-7.14,5.05-10.63a158.8,158.8,0,0,1,26.81-36.81,169.51,169.51,0,0,1,16.51-14.9c2.95-2.24,5.84-4.51,8.94-6.54s6.12-4.11,9.29-6a88.62,88.62,0,0,1,9.4-5A21.2,21.2,0,0,1,311.49,0c1.16,0-3.59,2.77-10.14,6.87-3.24,2-6.35,4.13-9.43,6.35l-4.6,3.41c-1.52,1.14-3,2.39-4.46,3.59l-2.22,1.83c-.73.62-1.44,1.27-2.16,1.91l-4.28,3.88-4.14,4.08L268,34c-.67.7-1.32,1.43-2,2.15q-2,2.16-3.92,4.36c-1.28,1.48-2.5,3-3.75,4.56-2.52,3-4.8,6.29-7.11,9.53-1.18,1.61-2.22,3.33-3.29,5s-2.14,3.41-3.19,5.12l-2.9,5.34c-1,1.8-2,3.56-2.77,5.44l-2.54,5.59c-.41.94-.87,1.86-1.23,2.82l-1.08,2.9-2.15,5.82c-.71,1.94-1.24,4-1.86,5.94a155.32,155.32,0,0,0-4.93,24.32,176,176,0,0,0,1.09,48.67,206.62,206.62,0,0,0,13,46.19c1.55,3.76,3.16,7.46,5.12,11.37l.79,1.54L246,232l1.35,2.52,2.62,4.8c1.73,3.1,3.35,6,4.87,8.86s3,5.65,4.38,8.46c2.79,5.62,5.25,11.38,7.61,17.38l1.69,4.53q.78,2.1,1.47,4.2c.93,2.78,1.71,5.55,2.37,8.28a67.78,67.78,0,0,1,2,16l0,1.95-.11,1.8c0,.6-.13,1.19-.19,1.8a16.1,16.1,0,0,1-.26,1.81,37.92,37.92,0,0,1-2,7.27c-3.12,8.34-9.24,16.49-17.39,22.85.16,0,.31,0,.36.1.21.35-.37,1.3-1.6,2.55,9.86-6.89,17.45-16.16,21.19-25.86a41.86,41.86,0,0,0,1.82-10.44c.11-1.66.06-3.61,0-5.42s-.3-3.71-.55-5.58a82.24,82.24,0,0,0-2.48-11.41c-.56-1.93-1.16-3.87-1.85-5.82-.32-1-.7-2-1-2.95l-1.17-3.05a265.88,265.88,0,0,0-10.93-24.79c-2.05-4.1-4.26-8.28-6.64-12.83-1.18-2.29-2.41-4.67-3.66-7.2l-1-2-1-2.24c-.66-1.46-1.27-2.86-1.85-4.27a175.26,175.26,0,0,1-7.51-22.75,186.7,186.7,0,0,1-4.36-22.5,180.39,180.39,0,0,1-.27-45A152.33,152.33,0,0,1,236,104.77c.3-1.17.57-2.34.89-3.5l1-3.47c.62-2.33,1.51-4.56,2.29-6.83l1.22-3.38.61-1.69.71-1.65,2.89-6.55A158.53,158.53,0,0,1,260,53.34a176.07,176.07,0,0,1,18-21.21,14,14,0,0,1,2.7-2.31c.5-.25,0,.39-1,1.45a170,170,0,0,0-23.32,30.67,153.09,153.09,0,0,0-15.83,36.8,19.33,19.33,0,0,1,2.77-4.36c.81-.92,1.46-1.28,1.88-1,.9.64.57,3.92-.08,8.82L246.36,98l1.51-4.19,1.52-4.18c.47-1.4,1.15-2.72,1.72-4.08,1.5-3.33,3-5.81,3.41-5.5s-.32,3.06-1.69,6.21c-1.25,2.7-2.19,5.53-3.2,8.34-.49,1.41-1,2.81-1.48,4.23l-1.26,4.3a147.63,147.63,0,0,0-3.76,17.52,163.75,163.75,0,0,0-1.64,17.8,168.07,168.07,0,0,0,.33,17.82,198.3,198.3,0,0,0,16.38,61.21c.74,1.62,1.51,3.23,2.34,4.88l1.23,2.37L263,227l4.83,8.91c-1-3.64-1.4-6.56-1-8.24a0,0,0,0,1,0,0L263.9,222c-1-2-1.92-3.94-2.78-5.92a187.44,187.44,0,0,1-10.63-27.65,183.22,183.22,0,0,1-6.19-29.29,149.57,149.57,0,0,1,4.39-60.61A155,155,0,0,1,277.8,44.86a194.76,194.76,0,0,1,21-21.83A210.11,210.11,0,0,1,322.68,4.62a12.88,12.88,0,0,1,2.51-1.47,10,10,0,0,1-2.05,1.58C303.16,18.24,285,35,270.9,55.09L271,55c.69-.73,1-.75.47.21a28.55,28.55,0,0,1-2.19,3.14c-.75.88-.88.67-.48-.17a148.7,148.7,0,0,0-15.86,30.5,156.62,156.62,0,0,0-5.1,16.51,146.93,146.93,0,0,0-3,17,155.47,155.47,0,0,0,.07,34A179.67,179.67,0,0,0,251.67,189c-5.33-19.89-7.72-40.79-5.72-61.51a137.74,137.74,0,0,1,6.39-30.46,140.87,140.87,0,0,1,12.81-28.18l1.48-3,1.64-2.94c.55-1,1.1-2,1.66-2.95S271,58,271.67,57a12.88,12.88,0,0,1,2.16-2.6c.34-.18,0,.67-.72,1.73s-1.38,2.09-2,3.2a67.17,67.17,0,0,1,6.11-7.63c1.76-1.73,3-2.61,3.36-2.27s-.44,2.12-1.74,4.48c-.62,1.19-1.4,2.57-2.29,4-.45.74-.93,1.51-1.44,2.29s-1,1.63-1.5,2.47c-11.06,18-18.64,38.05-21.16,58.89-.21,2.26-.35,4.53-.48,6.79.06,2.3.08,4.56.26,6.84a143.47,143.47,0,0,1,3.24-24c.91-3.93,1.9-7.84,3.18-11.66l1.94-5.71c.3-1,.69-1.89,1.08-2.82l1.14-2.79c1.43-3.76,3.3-7.34,5-11,.89-1.79,1.92-3.52,2.87-5.29l1.45-2.64c.5-.87,1.05-1.71,1.57-2.57l3.18-5.12,3.4-5c1.1-1.68,2.35-3.25,3.54-4.86s2.37-3.24,3.67-4.77c1.7-2.17,3.35-3.85,3.63-3.68s-.85,2.09-2.52,4.27c-1.07,1.39-2.05,2.85-3,4.32l-2.93,4.37L280,60.83l-1.37,2.23-1.26,2.31L274.81,70c-.8,1.55-1.52,3.14-2.28,4.71-1.59,3.1-2.84,6.35-4.17,9.54-.71,1.59-1.23,3.24-1.8,4.88L264.86,94l-1.38,5c-.44,1.67-1,3.3-1.31,5a135.88,135.88,0,0,0-3.09,20.35c-2.05,27.4,3.53,55.33,13.9,80.87,1.09,2,2.2,4,3.35,5.87s2.26,3.58,3.59,5.59c2.59,3.89,5.33,7.91,8,12.15a184.31,184.31,0,0,1,14.59,27.46c-.75-2.54-1.59-5.09-2.48-7.63a177.2,177.2,0,0,0-10.11-22.81c-1.84-3.53-3.69-6.88-5.45-10.06-.86-1.58-1.78-3.24-2.44-4.51s-1.48-2.93-2.2-4.44a210.62,210.62,0,0,1-13.74-38.23,155.92,155.92,0,0,1-4.94-40.28,124.75,124.75,0,0,1,2.05-20.63c.36-1.71.68-3.44,1.09-5.15s.91-3.43,1.37-5.15l.69-2.59.86-2.55L269,87.08a5.58,5.58,0,0,1,1.42-2.5c.26-.06.06.94-.53,2.28-.55,1.68-1.11,3.35-1.66,5s-1.12,3.29-1.5,5c-.84,3.34-1.75,6.62-2.31,10a125.27,125.27,0,0,0-2,19.88,161.8,161.8,0,0,0,4.48,39.79A186.56,186.56,0,0,0,277.26,198c1.07,2.48,2.18,4.91,3.34,7.26S283,210,284.14,212c1.36,2.34,2.8,4.74,4.28,7.2s3,5,4.49,7.65q-2.09-4.12-4.14-8l-3.94-7.4c-.5-.95-1.06-2.08-1.59-3.2s-1.08-2.29-1.61-3.46c-1.06-2.34-2.06-4.74-3-7.16a205.78,205.78,0,0,1-9.41-29.87,162.1,162.1,0,0,1-4.19-30.9c0-1.3-.1-2.61-.09-3.91V129c.11-2.6.18-5.22.42-7.81a119.26,119.26,0,0,1,2.24-15.56,16.23,16.23,0,0,1,1.48-4.64,2,2,0,0,1,0-1.1c.22-1.32.45-2.67.71-4s.71-2.73,1.07-4.13.75-2.82,1.18-4.24,1-2.82,1.5-4.24A9.74,9.74,0,0,1,275,80.38C275.34,79.9,275.25,80.64,274.87,81.88ZM104.42,221.38l-.35-.13a11.36,11.36,0,0,1,1.25.34l.21.12a11.38,11.38,0,0,1,1.37,1l-.75-.45C105.7,222,105.08,221.68,104.42,221.38Zm-14.6,9.75h0l-.86.27ZM169,314.87a65.13,65.13,0,0,1,.2-17.63c.78-5.91,2.1-11.81,3.42-17.77s2.66-12,3.51-18.31a68.57,68.57,0,0,0,0-19.82,67.49,67.49,0,0,1,.35,19.38c-1.29,9.54-3.7,18.54-5.57,27.48a111,111,0,0,0-2.08,13.39A57.18,57.18,0,0,0,169,314.87Zm-79.19-92.3a14.8,14.8,0,0,1,5.07-1.06,14.45,14.45,0,0,1,3.72-1.3,17.88,17.88,0,0,1,5.73-.27,15.88,15.88,0,0,1,5.76,1.85c-.37-.48.49,0,.93.25a11.43,11.43,0,0,1,1.3.82,15.8,15.8,0,0,0-5.9-3,19.11,19.11,0,0,0-6.38-.54A26,26,0,0,0,89.77,222.57ZM76.37,240l-.3.13a4.26,4.26,0,0,1-.22-.58Zm.44.94.35-.27C77.29,240.87,77.12,240.94,76.81,241Zm3-2.59a2.76,2.76,0,0,0-.58.31Zm15.74,3.83c-.74-.67-1.44-1.34-2.1-2,.62.71,1.28,1.39,2,2.08Z"/></g></g></svg>