<svg xmlns="http://www.w3.org/2000/svg" viewBox="0 0 432.63 412.72"><g id="Layer_2" data-name="Layer 2"><g id="Layer_1-2" data-name="Layer 1"><path d="M196,356a2.33,2.33,0,0,0,.07.25.48.48,0,0,1-.46-.2c.92,2.27,3.59,2.81,5.77,2.38a1.1,1.1,0,1,0,1.28-1.78,1.69,1.69,0,0,1-.22-.39,8.27,8.27,0,0,0-1.6-3.32l.32.8a2.54,2.54,0,0,0-.74-.79l-.06.35a2.53,2.53,0,1,0-4.61,2.11Z"/><path d="M196,360.11c-.39-.69-.75-1.39-1.1-2.1v-.25l-.43.82,0,0a4.52,4.52,0,0,1,2.9.19l.36,0a.78.78,0,0,0,.51-.27.8.8,0,0,0-.08-1.14l-.4-.33C197,356,195.38,355,194,356a2.73,2.73,0,0,0-.63,1.08,1.12,1.12,0,0,0,1.84,1.26l.21.27-.33.07c.42-.37,1-.19,1.48-.22l.61.19.43-1.42h-.38c0,.06,0,.17,0,.17a10.25,10.25,0,0,1-2.15-.07h-1a.69.69,0,0,0-.43.83l.17.46-.06-.25c.59.73,1.29,1.36,1.86,2.1a.28.28,0,1,0,.46-.32Z"/><path d="M193.28,358.7a.61.61,0,0,0-.31-.41l-.13,0,.11.36C193,359,193.19,358.88,193.28,358.7Z"/><path d="M192.84,358.34l-.05-.15v.16h.05Z"/><path d="M224.93,374.25c1.84,1.44,3.74,2.8,5.66,4.11a.16.16,0,0,0,.18-.26c-1.92-1.32-3.81-2.68-5.65-4.12a.15.15,0,0,0-.2,0A.18.18,0,0,0,224.93,374.25Z"/><path d="M235.37,390.69a.17.17,0,0,0-.11.2.12.12,0,0,0,.17.09.2.2,0,0,0,.11-.2A.13.13,0,0,0,235.37,390.69Z"/><path d="M231.39,396.44a2.79,2.79,0,0,0-1,0,.12.12,0,0,1-.13-.08.3.3,0,0,1-.31.2,33.71,33.71,0,0,1-7.4-1.7,1,1,0,0,1-.26.24.78.78,0,0,1-1,0l-.18-.21c-.82-.72-1.66-1.41-2.47-2.15a1.58,1.58,0,0,1-.8-.11,26.91,26.91,0,0,1-3-.4.69.69,0,0,1-.1.35.51.51,0,0,1-.69.2l-.34-.18.83.77a.23.23,0,0,1,.1.12c.35.22.7.42,1.08.61A35.58,35.58,0,0,0,226.12,397a.12.12,0,0,1,.14.13.15.15,0,0,1-.14.16c-2.63.25-5.26,1.06-7.86.7a65,65,0,0,1-9-1.82c-2.66-1.57-5.5-2.39-8.49-3.52-1.11-.41-2.18-.86-3.22-1.33-3.2-1.51-6.21-3.2-9.28-5A3.31,3.31,0,0,1,186.5,382a3.36,3.36,0,0,1,2.33-1.93l-.37-.25-.49-.55a2.79,2.79,0,0,1-.72-1.92l0-.91c.17-1.58-.12-3.17.19-4.75l.39-.43,0-.21a2.8,2.8,0,0,1,.1-1.74l.38-.58a6.94,6.94,0,0,1,1.69-1.6,2.35,2.35,0,0,1,.53-.67,3.47,3.47,0,0,1,1-2.06.49.49,0,0,1,.4-.56.51.51,0,0,1,.27,0h0a2.7,2.7,0,0,0,0-.5,2.69,2.69,0,0,1-.18-.23l-.61-.64a2.29,2.29,0,0,1-.18-.78c.3-1.26.3-1.26.63-1.69a.42.42,0,0,1,.14-.09l-.23-.42a1.86,1.86,0,0,1,0-.25c.14-.26.14-.26.15-.37a1.06,1.06,0,0,1,.1-.2c.3-.19.3-.19.35-.26l.17-.09.34,0v.86L193,359l-.09.35.11-.3.09.27L193,359c.37.36.37.36.55.45a.78.78,0,0,0,.38.17l.07-.15c.41.38.41.38.79.77a1,1,0,0,1,0,.24.24.24,0,0,1,.28,0l.21.19h.08v0h.33l1.2,0a3.45,3.45,0,0,1,.32.36l0-.19c0-.13.18-.32.15-.37a17.32,17.32,0,0,0-2.57-2.84.41.41,0,1,1,.32-.76,9,9,0,0,1,7.11,4.09c.52.47,1,.93,1.58,1.38l0-.17.35.45.05,0-.09-.64-.17-.26a26.91,26.91,0,0,1-3.19-3.61A23.44,23.44,0,0,1,199.3,356a.37.37,0,0,1-.07-.51.36.36,0,0,1,.51-.06c2.43,1,4.83,2.82,5.76,5.36a2.13,2.13,0,0,1,.9,1.06v0l0-.51c.26.27.25.66.45.95l.19-.55c1.33,1.2,3.05,2,4,3.57a1.85,1.85,0,0,1,.14.14,5.69,5.69,0,0,1,2.25.36l-.52-.52a3.17,3.17,0,0,1,1.55.47,4.81,4.81,0,0,1,2.17,4.11c2.59,1.32,5.16,2.67,7.84,3.83a.28.28,0,0,1,.13.38.33.33,0,0,1-.38.19,42.63,42.63,0,0,1-6-2.19,41.14,41.14,0,0,0,4.27,3.26l.64.29a1.68,1.68,0,0,1,.54.42,35.72,35.72,0,0,0,6.06,3.21c1.92.71,3.63,1.27,5.62,1.83a31.94,31.94,0,0,1,7.78,2.86.71.71,0,0,1,.29,1,.79.79,0,0,1-1,.46c-5.67-1.79-11.39-3.29-16.49-6.55l-1.63-1.06a.77.77,0,0,1-.07.16,1.32,1.32,0,0,1-.47.47c.6.42,1.18.87,1.75,1.35a17.89,17.89,0,0,1,5.76,2.55,21.16,21.16,0,0,1,3,3.16c1.64.66,3.32,1.25,5,1.95a.14.14,0,0,1,.1.18.17.17,0,0,1-.18.12,27.47,27.47,0,0,1-3.86-.77,1.6,1.6,0,0,1-.26,1,1.49,1.49,0,0,1-.86.66l.72.46a.35.35,0,0,1,.09.47.34.34,0,0,1-.46.16l-2.95-1.85c-1.32-.52-2.61-1.07-3.89-1.64a2.31,2.31,0,0,1-.14,1h0l.57.3a37.2,37.2,0,0,1,11.15,4.84.14.14,0,0,1,0,.21c0,.08-.14.12-.19.07a33.72,33.72,0,0,0-3.18-1.85h0a.17.17,0,0,1-.11.19.12.12,0,0,1-.16-.09.18.18,0,0,1,.11-.2,38,38,0,0,0-6.38-2.5,46.35,46.35,0,0,1,5.33,3.19l.76,0a.14.14,0,0,1,.08.19.16.16,0,0,1-.17.11l-.21,0a.83.83,0,0,1,.14,1.12.81.81,0,0,1-1.09.33c-1-.47-1.94-1-2.89-1.52l-.34-.1h-.42c1.35,1,2.69,2.08,4,3.14a.29.29,0,0,1,.07.4.29.29,0,0,1-.38.14,74.43,74.43,0,0,1-8.43-3.31l-3.68.36a3.62,3.62,0,0,0,.32.22c2.81,1.66,6.25,1.29,9.18,2.53.08,0,.1.11.07.19a.15.15,0,0,1-.2.08,35.88,35.88,0,0,0-4.61-1,30.25,30.25,0,0,0-3.83-.7c2.18,1.05,4.62,1.45,6.88,2.32a.23.23,0,0,1,.19.22.19.19,0,0,1,.11-.07,4,4,0,0,1,1.1,0c.07,0,.12.07.11.17A.19.19,0,0,1,231.39,396.44Zm-32.48-30.78a.57.57,0,0,1,0-.12l.12.27-.05.77Zm-5,0h0c0-.25,0-.44,0-.44C193.93,365.38,193.92,365.52,193.91,365.64Zm25.34,8a12,12,0,0,1-2.94-2.44l.85.37C217.87,372.26,218.57,373,219.25,373.67ZM197.74,362a6,6,0,0,1,.2,1.58,2.05,2.05,0,0,1,.74.33,18.36,18.36,0,0,1,1.7,1.32c.05-.26.18-.15.26-.13l.26.08c-.55-.52-1.1-1.07-1.65-1.63A15.76,15.76,0,0,1,197.74,362Zm-5-1.85V360l.3-.24Zm-.5.41.07.1C192.24,360.71,192.24,360.65,192.28,360.51Zm.61.9a.72.72,0,0,0,0-.24Zm-4.81,9.5,1.25-1.36-1.24,1.29Z"/><path d="M84,110.63c0,.2,0,.4,0,.6a1.32,1.32,0,0,1-.8-.88,10.54,10.54,0,0,0,3.37,7,16.82,16.82,0,0,0,6.45,4.18,2.51,2.51,0,0,0,3.21,1.32,2.45,2.45,0,0,0,.72-3.39,4.51,4.51,0,0,1-.13-1.06,21.84,21.84,0,0,0-.68-8.92c0,.67.06,1.38.06,2.07a6.76,6.76,0,0,0-1-2.53l-.36.67c-.33-3.35-3.12-6.3-6.13-6.4s-5.14,2.58-4.82,5.85Z"/><path d="M81.21,119.12c-.29-1.77-.51-3.55-.72-5.36l.16-.51-1.45,1.27.11,0c2.12.17,4.06,1.72,5.73,3.25.23.16.47.31.68.49a1.5,1.5,0,0,0,1.21,0,1.74,1.74,0,0,0,.68-2.43L87,114.69c-.84-3-3.57-6.93-7.07-6.17-.8.19-1.35,1.06-2,1.68a2.56,2.56,0,0,0-.49,3.5,2.42,2.42,0,0,0,3.32.9c.08.25.16.51.23.76l-.7-.19c1.11-.35,2.09.56,3.13,1l1.12,1,1.87-2.44-.77-.4a2.56,2.56,0,0,1-.16.33,27.53,27.53,0,0,1-4.32-2.31l-2-1a1.32,1.32,0,0,0-1.44,1.3l0,1.11.06-.56c.68,2.06,1.63,4,2.24,6a.69.69,0,0,0,.74.53A.56.56,0,0,0,81.21,119.12Z"/><path d="M76.66,113.62a1.56,1.56,0,0,0-.33-1.15H76c0,.22,0,.53,0,.83C76,113.89,76.35,113.9,76.66,113.62Z"/><path d="M76,112.46c0-.21,0-.36,0-.36l-.11.33,0,0Z"/><path d="M111.09,277a233.54,233.54,0,0,1-24.94,51.9c-.35.54-.55,1-.46,1.12s.43-.28.74-.78A232,232,0,0,0,111.5,277.4c.21-.63.29-1.17.18-1.29S111.3,276.45,111.09,277Z"/><path d="M25.75,385.51c.25-.35.17-.41-.2-.15a5.94,5.94,0,0,0-1.08,1c-.22.29-.13.37.2.16A4.57,4.57,0,0,0,25.75,385.51Z"/><path d="M23,377.19c1.61-1.85,3.14-3.61,4.37-5.3a6.39,6.39,0,0,1,.78-.84c-.21,0,0-.46.54-1.15,10.79-13.66,21.8-28.62,30.3-44.52a1.64,1.64,0,0,1,0-.89,22.23,22.23,0,0,1,2.6-5.78l1-1.65,3-5.05,2.73-5.16c1.91-3.41,3.44-7,5.16-10.44.45-1.53.87-3.34,1.54-5.21.43-1.62.87-3.24,1.3-4.86s.7-3.27,1.07-4.91.74-3.26,1-4.91.57-3.3.86-5c-.25.36-.49.56-.68.5-.43-.26-.4-1.85.06-3.58.24-.88.35-1.77.53-2.65l-.45,1.88-.57,1.86-1.14,3.71c-.1.36-.21.69-.32,1-.18.69-.36,1.39-.53,2.08s-.43,1.37-.64,2.06c-.41,1.39-.83,2.79-1.25,4.2a249.16,249.16,0,0,1-32.89,68.15,4.73,4.73,0,0,1-.91,1.1c-.22.13-.29,0-.05-.38l3-5.09c1-1.67,1.82-3.42,2.71-5.1l2.59-5.08L51.17,331c3.22-6.9,6.06-14.17,9.32-22.15A193.86,193.86,0,0,0,69.26,280l.76-3.63.39-1.81.28-1.83c.36-2.44.78-4.86,1.12-7.28s.48-4.83.73-7.26.23-4.86.37-7.28a115.23,115.23,0,0,0-1-29.26A127.35,127.35,0,0,0,64,193.82c-.65-1.54-1.36-3-2-4.55s-1.26-3-2.06-4.45c-1.52-2.89-2.85-5.8-4.56-8.53l-.61-1-.3-.52-.12-.18-.42-.63-.84-1.28c-.56-.84-1.2-1.65-1.78-2.47-1.19-1.64-2.25-3.32-3.42-4.95s-2.42-3.21-3.6-4.83a5,5,0,0,1-1.38-4,6.79,6.79,0,0,1,2.36-4.22,7.55,7.55,0,0,1,5.9-1.84l-.45-.67-.39-1.26a5.23,5.23,0,0,1,.41-3.85l.72-1.65c1.61-2.69,2.32-5.77,4.14-8.52l1.09-.54.11-.41a6.08,6.08,0,0,1,1.53-3.22l1.18-.83A13.53,13.53,0,0,1,64,127.56a4.59,4.59,0,0,1,1.54-.89A7,7,0,0,1,69,123.44a1,1,0,0,1,1.19-.76,1.2,1.2,0,0,1,.5.29h0a9,9,0,0,0,.38-1c-.13-.37-.19-.61-.19-.61-.4-1-.4-1-.74-1.8a5.08,5.08,0,0,1,.21-1.73c1.5-2.3,1.49-2.31,2.43-2.9a2.17,2.17,0,0,1,.35-.07A10.55,10.55,0,0,1,73,113.8a2.43,2.43,0,0,1,.13-.54c.45-.4.45-.4.54-.64a2.66,2.66,0,0,1,.33-.31c.75-.11.75-.11.9-.23a1.67,1.67,0,0,1,.38,0l.67.38-.62,1.76.54-.17-.42.63.43-.51v.64L76,114a4.62,4.62,0,0,0,.8,1.45,2.08,2.08,0,0,0,.64.7,1.89,1.89,0,0,1,.24-.25c.55,1.16.55,1.16,1.05,2.3a4.65,4.65,0,0,1-.17.49A.56.56,0,0,1,79,119l.28.58.15.05,0,0,.56.25.13,0h0c.38.18,1,.4,2.41,1.12a7.69,7.69,0,0,1,.33,1.07c0-.14,0-.28.07-.43s.61-.46.6-.58a18.63,18.63,0,0,0-1.31-4.24c-.56-1.38-1.2-2.74-1.81-4.11a1,1,0,0,1-.07-1.34.82.82,0,0,1,1.24.08,17.77,17.77,0,0,1,4.09,2.8A16.55,16.55,0,0,1,89,118.1a28,28,0,0,1,3.69,9.38q.82,2.36,1.73,4.66l.12-.35.25,1.32,0,.13c.13-.45.27-.9.4-1.35,0-.25,0-.49-.08-.74a39,39,0,0,1-1.65-5.46c-.48-1.84-.9-3.71-1.48-5.57s-.74-4-1.19-6.07a.82.82,0,0,1,.23-1.14.87.87,0,0,1,1.1.44,37,37,0,0,1,5.16,8.49,22.19,22.19,0,0,1,.86,2.31,23,23,0,0,1,.54,2.4,19,19,0,0,1,.24,4.74,6,6,0,0,1,.74,3.25v.05c.13-.36.26-.69.39-1,.23.86-.15,1.6,0,2.43l.85-.82c1.3,4.13,3.52,8.16,3.72,12.39a3.69,3.69,0,0,1,.08.46,20.56,20.56,0,0,1,1.93,1.92c.15.17.3.35.44.54a1.11,1.11,0,0,1,.12.15l.24.48.48,1c.63,1.32,1.26,2.7,1.86,4.14l-2-5.93a3.44,3.44,0,0,1,.17.3l.2.38.39.76.78,1.53c.51,1,1,2.05,1.5,3.1.93,2.12,1.7,4.36,2.46,6.69.51,1.57,1,3.18,1.47,4.8s.74,3.31,1.07,5,.64,3.29.91,4.91c.07.4.14.8.2,1.2s.09.81.13,1.21l.21,2.38a75.29,75.29,0,0,1,.32,8.64,42.89,42.89,0,0,1-.85,6.69A188.61,188.61,0,0,1,118.54,235a192.66,192.66,0,0,1-5.49,36.5,4.76,4.76,0,0,1-1.09,2.43c-.28.06-.32-.8,0-2,.45-2.14.91-4.28,1.36-6.43l1-6.51.52-3.26c.19-1.09.26-2.19.39-3.29l.72-6.59c.14-1.1.2-2.21.26-3.32l.18-3.32.19-3.32c.06-1.11.13-2.22.11-3.33v-6.68c0-1.11,0-2.23,0-3.34l-.19-3.34a209.72,209.72,0,0,1-5.41,44.42c-.3,1.9-.84,3.75-1.26,5.64s-1,3.66-1.59,5.46c-.65,2.29-1.43,4.53-2.14,6.77-.37,1.12-.73,2.24-1.09,3.35s-.82,2.19-1.22,3.29l-2.49,6.51c-.86,2.15-1.83,4.25-2.73,6.37-1.76,4.28-3.91,8.37-5.9,12.59-1,2.1-2.18,4.12-3.26,6.21S87.24,324,86,326c-1,1.76-2,3.49-3,5.2-.5.86-1,1.72-1.49,2.55l-1.56,2.46c-2.08,3.26-4.06,6.51-6.27,9.59l-3.24,4.68c-1.06,1.58-2.26,3.06-3.4,4.61l-3.49,4.64c-1.18,1.56-2.46,3.07-3.71,4.64-3.49,4.44-7.17,8.52-10.75,12.61-1.84,2-3.71,3.93-5.56,5.88l-2.79,2.9-2.87,2.8a259,259,0,0,1-24.43,21.12c-2.31,1.8-4.69,3.17-5.24,3s.89-1.72,3.18-3.53a323.82,323.82,0,0,0,48.37-48.57A315.77,315.77,0,0,0,80,332.05a275.51,275.51,0,0,0,16.92-31.87c.54-1.22,1.08-2.42,1.61-3.63l.8-1.8.71-1.84,2.83-7.32a.47.47,0,0,1-.3,0c-.36-.11-.47-.67-.49-1.54-1,2.76-2.15,5.49-3.24,8.24-.28.68-.55,1.37-.84,2.05l-.93,2-1.89,4-1.1,2.88c-.36,1-.81,1.88-1.21,2.83l-2.5,5.65c-.8,1.9-1.8,3.71-2.72,5.56s-1.9,3.68-2.85,5.54l-3.16,5.41c-1.08,1.79-2.11,3.64-3.32,5.38-2.37,3.5-4.69,7.11-7.39,10.5l-2.71,3.49-1.34,1.71L65.49,351,60,357.35c-1.88,2-3.79,4-5.67,6s-3.81,3.88-5.77,5.78a309.53,309.53,0,0,1-29.2,29.2,3.93,3.93,0,0,1-1.09.76c-.22.06-.05-.2.36-.58,1.77-1.59,3.45-3.31,5.17-5s3.46-3.36,5.17-5.09c3.34-3.54,6.84-7,10.09-10.67-1.32.89-2.26,1.26-2.49.86s.29-1.55,1.35-3.06c-1.57,1.56-3.07,3.2-4.69,4.7-1,.93-1.9,1.55-2,1.37s.5-1.08,1.44-2c1.65-1.54,3.17-3.21,4.76-4.8s3.17-3.2,4.69-4.86l4.55-5c.75-.84,1.52-1.66,2.26-2.51l2.19-2.58a264.34,264.34,0,0,0,18.88-26.37,7.53,7.53,0,0,1-2.77,1.93h0c-.88,1.42-1.88,2.75-2.81,4.12C48.05,365.41,26,388.31,1,407.36c-.48.38-.92.64-1,.57s.26-.42.7-.76l5.58-4.39c.93-.74,1.87-1.46,2.78-2.22l2.71-2.29,5.41-4.6,5.23-4.78,0,0c-.32.21-.45.17-.19-.16a6.47,6.47,0,0,1,1.09-1c.38-.24.42-.13.2.16a249.93,249.93,0,0,0,34.36-39.32,269.8,269.8,0,0,1-32.1,35.51c-1.14,1.33-2.36,2.55-3.58,3.84a4,4,0,0,1-1.05.78c-.16,0,0-.28.38-.63l1-1.06c-2.26,2-4.26,3.26-4.57,2.85s1.39-2.55,3.69-4.65c1.54-1.41,3-2.91,4.47-4.38l4.41-4.42c2.86-3,5.72-6,8.52-9.1l1.71-2.09L42.33,363a319.65,319.65,0,0,1-27.61,26.89c-.81.75-1.62,1.24-1.76,1.12s.44-.81,1.25-1.55c8.07-7.84,15.81-16.08,23.14-24.69a284.51,284.51,0,0,0,20.39-27.12l2.53-5c.81-1.69,1.56-3.42,2.34-5.12s1.55-3.41,2.27-5.14,1.37-3.5,2.07-5.26c-.47.81-.94,1.64-1.41,2.47-6,10.52-11.7,20.22-18,29.59a210.2,210.2,0,0,1-21.39,27,2.43,2.43,0,0,1-.94.73c-.12,0,.1-.38.53-.82,1-1.07,2-2.1,2.94-3.18l2.76-3.25c1.8-2.17,3.64-4.27,5.29-6.51l5-6.66,4.89-6.95a191.94,191.94,0,0,0,14-23.4c-4.45,7.72-9.26,15.08-14.24,22.34l-3.88,5.36c-.65.89-1.28,1.8-2,2.67l-2,2.6-4.14,5.22L30,369.42a8.58,8.58,0,0,1-1.48,1.45.85.85,0,0,1-.2.42c-1.31,1.86-3,3.69-4.59,5.6a3.67,3.67,0,0,1-1,.88C22.52,377.89,22.66,377.61,23,377.19ZM82.32,133c0-.09.06-.17.09-.24,0,.2,0,.41,0,.65l-.75,1.39S82,133.87,82.32,133Zm-9.48-5h0l.4-.82C73.07,127.52,72.94,127.78,72.84,128Zm42,105.61c.51-10.6.41-21.13,0-31.78.3,2.57.6,5.13.91,7.7l.12,3,0,3c0,2-.07,4-.11,6l0,1.5-.12,1.51-.23,3C115.19,229.61,115,231.61,114.86,233.61ZM83.1,124.55a12,12,0,0,1-.87,3.32,5.35,5.35,0,0,1,1.14,1.4,29.1,29.1,0,0,1,2.13,4.39c.31-.44.45-.08.6.05l.39.46c-.27-.83-.54-1.66-.82-2.5l-.9-2.48A43.55,43.55,0,0,1,83.1,124.55ZM74.68,116c0-.07,0-.14.06-.23l.77-.21Zm-1.29.4.06.26C73.18,116.78,73.22,116.66,73.39,116.42Zm.58,2.35a1.53,1.53,0,0,0,.13-.5ZM57.5,133.46l3.44-1.68-3.37,1.54Z"/><path d="M104.07,235.89l.58-.26a2.79,2.79,0,0,1-1,.93,19.58,19.58,0,0,0,6.81-6c1.89-2.41,3.5-5.09,5-7.25,1.44-1.2,2.53-2.42,2.42-3-.07-.26-.56-.24-1.15,0a7.59,7.59,0,0,0-2.17,1.25c-.38.23-.82.53-1.12.68a54.69,54.69,0,0,0-8.68,5.93c.66-.41,1.35-.86,2-1.28-.89.7-1.76,1.37-2.64,2.18l.59-.11a44.38,44.38,0,0,0-4.85,3.71,13.19,13.19,0,0,0-3,3.27c-.44.85.11,1.38,1.2,1.54a8.37,8.37,0,0,0,4.45-.86C103.09,236.39,103.58,236.13,104.07,235.89Z"/><path d="M111.45,233.35a49.34,49.34,0,0,1-4.71,3.34l-.47.15,1.08.35,0-.05c.27-1.5,1.81-3.66,3.34-5.74l.5-.77c.21-.4.26-.72.16-.89-.2-.41-1.12,0-2,.91l-1.06,1c-1.45,1.15-3.14,2.7-4.54,4.07a16.24,16.24,0,0,0-1.71,1.92,2,2,0,0,0-.52,1.55c.1.41,1,.45,1.62.62.69.38,2.31,0,3.45-1.12s1.54-2.3,1-2.66c.24-.17.47-.37.69-.55-.06.19-.13.39-.2.58-.25-.58.64-1.73,1.13-2.71l1-1.35-1.93,0-.46.76.28-.06a34.71,34.71,0,0,1-2.54,4.13c-.35.61-.7,1.17-1.07,1.75-.13.51.42.68,1.18.37l1.06-.51-.52.21a57.39,57.39,0,0,0,5.39-4.64,1.26,1.26,0,0,0,.49-.82C112,233.06,111.74,233.1,111.45,233.35Z"/><path d="M106.41,239.3a4.33,4.33,0,0,0-1.13.71c0,.11,0,.17,0,.2l.82-.34C106.66,239.63,106.66,239.38,106.41,239.3Z"/><path d="M105.26,240.21l-.35.13.32-.05,0,0Z"/><path d="M294.78,356.16a116.14,116.14,0,0,0,34-8.75A96.84,96.84,0,0,0,357,329.72a54.7,54.7,0,0,0,9.37-11.21,34.78,34.78,0,0,0,2.85-5.74c.43-.93.61-1.9.95-2.81.12-.47.21-.93.32-1.39l.18-.68c0-.23.06-.46.1-.69,1.34-7.62,0-16.44-3.55-25.83a5.83,5.83,0,0,0-1.22-2.29c-.16,0,.06,1,.53,2.18,3.54,9.34,5,18,3.73,25.54a31,31,0,0,1-4.13,11.11,55,55,0,0,1-9.1,11.15,96.21,96.21,0,0,1-27.78,17.78,119.91,119.91,0,0,1-16.49,5.75,108,108,0,0,1-17.33,3.25c-1.57.16-2.88.36-3.1.42A9.22,9.22,0,0,0,294.78,356.16Z"/><path d="M355.74,62.39c-.7,1-.54,1.09.35.15a34.7,34.7,0,0,0,2.72-3.35c.6-.85.44-.93-.35-.15A30.58,30.58,0,0,0,355.74,62.39Z"/><path d="M358.86,78a98.54,98.54,0,0,0-8,17,30.42,30.42,0,0,1-1.21,2.86c.37-.26.15,1-.59,3.27a107.61,107.61,0,0,0-4.72,34.72,128.5,128.5,0,0,0,6.23,35.43,156.31,156.31,0,0,0,15.13,33.42c.78,1.29,1.59,2.54,2.37,3.7l2.66,3.82,5.86,8.24c4,5.66,8,11.76,11.66,18.11a7.32,7.32,0,0,1,1.77,1.86c2.55,3.23,6.52,10.52,9.37,18.49l1,3c.33,1,.66,2,1,3.11a101,101,0,0,1,4.44,20.42,75,75,0,0,1-.78,21.92l-.57,2.74-.7,2.71c-.22.89-.57,1.83-.86,2.74s-.58,1.84-.95,2.73c-.75,1.75-1.41,3.55-2.31,5.21l-1.31,2.5L397,328.43a68.5,68.5,0,0,1-14,16.1,76.16,76.16,0,0,1-15.06,11.18,118.42,118.42,0,0,1-30.83,12.76,138.23,138.23,0,0,1-32.75,4.41,7.26,7.26,0,0,1,2.26.29c-.4.3-5.58.56-11.6.08-1.52-.11-3-.23-4.54-.42s-3-.34-4.53-.58c2.17.37,4.33.58,6.51.85s4.36.42,6.54.51,4.37.16,6.57.21,4.38,0,6.56-.1c1.26-.06,2.44-.07,3.5-.14a141.24,141.24,0,0,0,29.08-5,114.38,114.38,0,0,0,30.82-13.65,87.87,87.87,0,0,0,13.91-11.15,70.81,70.81,0,0,0,11.54-15,60.74,60.74,0,0,0,4.22-9c.63-1.55,1.07-3.18,1.58-4.78.27-.82.44-1.59.63-2.38s.4-1.57.54-2.36a75.08,75.08,0,0,0,1.32-9.5,81.48,81.48,0,0,0,.06-9.37,89,89,0,0,0-2.81-17.69c-.7-2.82-1.57-5.53-2.47-8.2s-1.88-5.07-2.84-7.53a174.21,174.21,0,0,0-14.43-28c-2.79-4.36-5.67-8.54-8.52-12.46l-4.16-5.73-3.75-5.24c-1.09-1.57-2.2-3.33-3.27-5.09s-2.11-3.59-3.11-5.44c-2-3.69-3.91-7.48-5.62-11.34A145,145,0,0,1,350,160.94a17.52,17.52,0,0,1-.65-3.72c0-.66.26-.58.55.6a135.23,135.23,0,0,0,11.3,28.56c2.35,4.45,4.92,8.76,7.62,12.84,1.35,2,2.77,4.05,4.13,5.78l4.83,6.1c3.49,4.37,7.29,9.15,11,14.43a162.62,162.62,0,0,1,19.25,36,106.12,106.12,0,0,1,3.64,11.3,93.63,93.63,0,0,1,2.4,12.57,82,82,0,0,1,.39,16.25c-.12,1.39-.23,2.77-.44,4.17s-.4,2.77-.68,4.16a61.69,61.69,0,0,1-2.13,8.35,66.43,66.43,0,0,1-7.36,15.69,78.87,78.87,0,0,1-10.2,12.67,94,94,0,0,1-24.15,17.19,124.2,124.2,0,0,1-25.86,9.5,146.42,146.42,0,0,1-26.38,4c-2.2.16-4.42.17-6.62.24s-4.41,0-6.62-.07a122.07,122.07,0,0,1-13.21-1.08l-3.29-.45-3.28-.57c-2.19-.4-4.45-1-6.65-1.45a97.16,97.16,0,0,1-12.83-4.44c-1-.46-2.07-.89-3.09-1.37l-3-1.52-1.5-.76-1.45-.85-2.88-1.7a89,89,0,0,1-10.73-7.89c-1.79-1.47-3.4-3.12-5.05-4.7-.8-.82-1.57-1.67-2.35-2.49l-1.16-1.25-1.09-1.31a82.28,82.28,0,0,1-7.85-10.94l-1.68-2.89-1.52-3a33.86,33.86,0,0,1-1.41-3.1,27.79,27.79,0,0,1-1.26-3.19,56.54,56.54,0,0,1-2.86-13.17,104.43,104.43,0,0,1-.34-13.08c.18-4.3.49-8.55.87-12.73.73-8.36,1.77-16.51,2.08-24.29l.12-2.91c0-.91,0-1.81,0-2.72-.06-1.81-.16-3.6-.35-5.36-.13-.87-.18-1.76-.37-2.61s-.25-1.72-.47-2.54-.37-1.68-.63-2.46c-.12-.4-.24-.8-.35-1.2s-.28-.77-.41-1.16c-2.27-6.16-6-10.72-11.78-13.28a15.9,15.9,0,0,0-8.26-1.48,8.77,8.77,0,0,0-1.75.4c-.27.11-.57.2-.83.32s-.52.25-.77.39a7.61,7.61,0,0,0-2.55,2.51,13.5,13.5,0,0,0-1.68,4.11,21.58,21.58,0,0,0-.52,5.1c0,1.67.28,3.84.52,6s.47,4.54.53,7.05a29.47,29.47,0,0,1-.33,5.3,21.14,21.14,0,0,1-1.53,5.54,22.2,22.2,0,0,1-1.36,2.66,22.76,22.76,0,0,1-1.77,2.48,19.19,19.19,0,0,1-4.65,4,26,26,0,0,1-10.62,3.64,30.27,30.27,0,0,1-5.47.17,28,28,0,0,1-5.54-.84,21.57,21.57,0,0,1-10.79-6.29,17.32,17.32,0,0,1-2.14-2.94,24.55,24.55,0,0,1-1.45-3,27,27,0,0,1-1.5-5.94,77,77,0,0,1-.52-10,28,28,0,0,0-.64-7.13c-.24-.79-.55-1.28-.81-1.36h-.17a2.89,2.89,0,0,0,.5-.26l.05,0,.08-.05-.07.05-.25.23a1.8,1.8,0,0,0-.19.2l-.09.11-.16.17a4.38,4.38,0,0,0-.28.34s0,0,0,.06l-.16.09h0l.28-.48v0l-.06.09-.1.18-.07.18L139,237c-.13.46-.62.79-1.3,1.34-.32.25-.69.6-1,.93a7.15,7.15,0,0,0-.84,1.15,3.73,3.73,0,0,1-.18.43,1,1,0,0,1-.15.29c0,.08-.07.1-.15.15a.92.92,0,0,1-.35.19,2.1,2.1,0,0,1-1.87-.24,3.07,3.07,0,0,1-1.37-2.73c-.1.15-.2.28-.29.44s-.39.39-.57.63a4.36,4.36,0,0,1-1.78,1.32l-.84.34c-1.49.26-3,1.6-4.73,1.91l-.53-.49-.23.16a2.52,2.52,0,0,1-2,.82l-.73-.41a5.31,5.31,0,0,1-1.93-2.27,1.52,1.52,0,0,1-.78-.62,2.31,2.31,0,0,1-2.55-.69c-.41.23-.7,0-.63-.44a1.56,1.56,0,0,1,.18-.51h0c-.29.1-.38.13-.75.28l-.45.46c-.71.8-.71.81-1.35,1.48a5.57,5.57,0,0,1-1.44.72c-2.06.05-2.11,0-2.67-.33a1.59,1.59,0,0,1-.07-.2,8.76,8.76,0,0,1-1,.53,3,3,0,0,1-.53.12c-.4-.13-.4-.13-.64-.1a2,2,0,0,1-.32-.1c-.07-.42-.08-.42-.19-.48a.75.75,0,0,1,0-.23c.28-.35.36-.49.41-.55l1.69-.34-.15-.28h.57l-.46,0,.59-.29-.75.3a8.46,8.46,0,0,0,1.34-1.21,4.86,4.86,0,0,0,.64-.78.71.71,0,0,1-.21,0c1-1,1-1,2-1.93a2.66,2.66,0,0,1,.39-.14,1,1,0,0,1,.31-.56l.49-.52.06-.14h0c.1-.22.16-.37.24-.54l.05-.11h0c.17-.38.41-.91,1.15-2.37a12,12,0,0,1,.91-.86l-.35.2c-.23.12-.31-.18-.42-.1-2.51,2.08-4.88,4.6-7.54,6.69a1.79,1.79,0,0,1-1.3.65c-.31-.06-.24-.42.2-.84a68.76,68.76,0,0,1,6.85-8.72,38.28,38.28,0,0,1,4.63-4.35,28,28,0,0,1,2.62-1.77,24.84,24.84,0,0,1,2.9-1.48,31.61,31.61,0,0,1,5.86-2.24h-.32c.53-.13,1.06-.21,1.58-.3l.17,0-1.3,0-.85.16a40.71,40.71,0,0,0-6.78,2.66c-.55.3-1.13.61-1.67.92l-1.52.92-1.49,1-1.43,1.09c-2,1.64-3.8,3-5.72,4.52-.44.42-.88.64-1,.48s.16-.62.59-1c1.31-1.48,2.74-3.06,4.29-4.6a30.6,30.6,0,0,1,5.21-4.16,23.38,23.38,0,0,1,11.65-3.75,19.08,19.08,0,0,1,2.16-.36,16.6,16.6,0,0,1,2,0h.07l-1-.2a21.15,21.15,0,0,1,2.82.2l-.43-.4a27.63,27.63,0,0,1,8.9,1.26,20.59,20.59,0,0,1,4.33,2,15.43,15.43,0,0,1,1.88,1.37l.82.72c.27.26.52.54.77.8l.48.48c.49.4,1,.85,1.45,1.3s.9,1,1.33,1.55c.2.28.4.58.6.88l.07.11,0,.06.08.14a18.43,18.43,0,0,1,1,2.17,19.8,19.8,0,0,1,1.07,4.29,29.32,29.32,0,0,1,0,7.34c-.26,2.18-.65,4.18-1,6.08a71.48,71.48,0,0,0,1.28-8.65,24.68,24.68,0,0,0-.24-5.53,13.28,13.28,0,0,0-.31-1.55,13,13,0,0,0-.46-1.6,13.74,13.74,0,0,0-.64-1.63c-.12-.27-.24-.54-.38-.81l-.2-.37,0,0,.21.38.41.87a14,14,0,0,1,.69,1.74,18.72,18.72,0,0,1,.8,3.38,25.72,25.72,0,0,1,.18,5.87c-.26,3.51-.91,6.43-1.36,9.14a30.79,30.79,0,0,0-.65,7.15,9.76,9.76,0,0,0,.5,2.66A4.9,4.9,0,0,0,157.4,259c1.64,1.7,4.87,3,8.16,3.27a15.74,15.74,0,0,0,9.29-1.9,10,10,0,0,0,4.41-7.3,24.48,24.48,0,0,0,.13-5.17c-.14-1.81-.39-3.68-.66-5.6-.14-1-.27-2-.41-2.92s-.23-2.13-.27-3.18a32.64,32.64,0,0,1,.28-6.33,25.09,25.09,0,0,1,1.64-6.15,20.56,20.56,0,0,1,3.38-5.45,19.1,19.1,0,0,1,4.78-3.91,20.2,20.2,0,0,1,5.23-2.07,23.68,23.68,0,0,1,9.14-.29,27.76,27.76,0,0,1,6.95,1.73c1.08.46,2.18.85,3.23,1.41s2.1,1.12,3.09,1.78a31.82,31.82,0,0,1,9.77,10.3,40.62,40.62,0,0,1,4.82,12.81,52.63,52.63,0,0,1,.92,13.14c0,1.09-.14,2.17-.25,3.25s-.26,2.11-.41,3.14-.3,2.06-.48,3.07l-.58,3c-.82,4-1.73,8-2.68,11.84-1.9,7.76-3.79,15.4-4.37,23.08a48.91,48.91,0,0,0,.38,11.36l.21,1.4c.09.46.22.9.33,1.36.24.9.43,1.81.69,2.71a37,37,0,0,0,2.15,5.11c.45.81.81,1.63,1.33,2.43l1.55,2.4c.5.8,1.13,1.53,1.68,2.3s1.13,1.53,1.76,2.24a67.73,67.73,0,0,0,27,19.72,66.68,66.68,0,0,0,21.24,4.73c1.49,0,2.89.09,4,.16s1.93.05,2.19.12-1.74.32-4.69.18a67,67,0,0,1-15.51-2.29,68.44,68.44,0,0,1-38.66-28.21c-.37-.58-.76-1.16-1.11-1.75l-.93-1.79c-.3-.6-.63-1.19-.91-1.8l-.72-1.9c-.22-.63-.49-1.25-.69-1.9l-.49-2c-.15-.67-.37-1.31-.47-2l-.31-2a59.39,59.39,0,0,1,.4-16.66c1.68-11.2,5.25-22.27,7-34.16-1.55,9.94-4.31,19.29-6.21,28.69A85,85,0,0,0,222,303.18,43.3,43.3,0,0,0,223.53,317a41.33,41.33,0,0,0,6.32,12.33,65.94,65.94,0,0,0,9.39,10.56,74.52,74.52,0,0,0,11.27,8.43,72.73,72.73,0,0,0,12.67,5.95l3.38,1.11,3.45.88c1.13.33,2.32.49,3.47.72a32.39,32.39,0,0,0,3.51.55l3.46.39,3.47.18c1.13.09,2.33.06,3.49.08s2.34,0,3.52,0a116.13,116.13,0,0,0,34.46-7A104.25,104.25,0,0,0,354.81,335c8.39-6.66,14.93-14.81,17.46-22.88a29.79,29.79,0,0,0,1.32-6,35.64,35.64,0,0,0,.23-6.55,54.14,54.14,0,0,0-2.68-13.9c-.63-2-1.44-4.09-2.27-6.15-.41-1-.87-2.05-1.32-3.07l-1.53-3.3q-3.09-6.54-6.54-12.57c-2.31-4-4.77-7.92-7.4-11.83s-5.46-7.8-8.51-12c-1.52-2.12-3.08-4.27-4.69-6.58l-.6-.86-.69-1-1.3-2c-.84-1.32-1.63-2.61-2.4-3.91a166.62,166.62,0,0,1-8.29-15.82,170.59,170.59,0,0,1-6.72-16.78,160.81,160.81,0,0,1-5.06-18A140,140,0,0,1,312,118.53a127.26,127.26,0,0,1,19-48.77,153.13,153.13,0,0,1,15.32-19.84A180.91,180.91,0,0,1,364,33.07a198,198,0,0,1,19.4-14.26,228.19,228.19,0,0,1,20.81-12C411.81,2.89,419.2.1,420.29,0s-4.36,2.53-11.88,6.45a222.69,222.69,0,0,0-41.66,28,166.08,166.08,0,0,0-34,39.48A129,129,0,0,0,321.09,98.6a124.34,124.34,0,0,0-6,27l-.35,3.43c-.1,1.15-.15,2.29-.22,3.44-.16,2.3-.19,4.59-.2,6.88s.08,4.57.12,6.85.29,4.55.49,6.81a155.15,155.15,0,0,0,4.95,26.56A173.11,173.11,0,0,0,329,204.65c1.83,4,3.8,8,6,12,1.07,2,2.21,3.92,3.4,5.89.6,1,1.21,2,1.86,3l1,1.56.91,1.32c4.87,7,9.44,13.21,13.47,19.41a172.48,172.48,0,0,1,10.88,19.09q1.22,2.49,2.36,5c.73,1.69,1.55,3.45,2.17,5a78.46,78.46,0,0,1,3.29,9.56,50.26,50.26,0,0,1,1.84,18.5c-.1.73-.18,1.5-.3,2.21s-.27,1.38-.39,2.08l-.56,2.08c-.17.7-.48,1.37-.7,2.08a40.64,40.64,0,0,1-4.23,8.26,63.63,63.63,0,0,1-14.45,14.95c-1.22,1-2.58,1.87-3.86,2.81s-2.66,1.8-4.06,2.61l-2.08,1.25-2.13,1.19c-1.41.81-2.88,1.51-4.34,2.26a121.13,121.13,0,0,1-18.35,7.2c.17,0,.34,0,.35.08.06.25-1.1.85-3.12,1.57,14.59-3.87,28.66-10.27,40.09-19.07,7.75-6.33,13.87-14,16.9-21.86,2.88-7.67,3-16.35,1-25.25a83,83,0,0,0-4.48-13.56c-.23-.56-.49-1.16-.77-1.77l-.8-1.82c-.51-1.23-1.09-2.42-1.64-3.62s-1.13-2.39-1.72-3.58-1.17-2.37-1.78-3.54c-2.45-4.69-5.07-9.28-8-13.88s-6-9.24-9.39-14.25c-1.17-1.76-2.34-3.51-3.49-5.25s-2.52-3.91-3.62-5.85c-2.28-4-4.26-7.85-6.1-11.79s-3.46-7.9-5-11.88-2.79-8-4-12.06a158.87,158.87,0,0,1-5-24.63,140.92,140.92,0,0,1-.74-25.17,121.36,121.36,0,0,1,1.37-16c.35-2.66.92-5.29,1.45-7.93.26-1.32.64-2.62.95-3.92s.62-2.62,1.05-3.9c.8-2.57,1.55-5.16,2.54-7.66.47-1.26.92-2.53,1.41-3.77l1.58-3.69a133,133,0,0,1,7.35-14.13c10.9-18.13,25.43-33.13,41.34-45.72a23.86,23.86,0,0,1,3.17-2.27c.54-.26-.1.33-1.36,1.37a191.44,191.44,0,0,0-30.1,30.19A136.1,136.1,0,0,0,328.54,98.2c2.13-4.35,4-6.62,4.42-6,.26.31.18,1.36-.17,3s-.84,3.89-1.58,6.54a123.05,123.05,0,0,1,8.09-18.24c2-3.59,3.88-6.19,4.12-5.91s-1.16,3.15-3,6.54a123.15,123.15,0,0,0-8,18.45,115.13,115.13,0,0,0-4.72,19.64,128.4,128.4,0,0,0,.46,40.15,163.56,163.56,0,0,0,15.53,45.09c1.83,3.54,3.78,7,5.91,10.43.54.86,1.08,1.71,1.67,2.58l1.66,2.43,3.32,4.76c4.42,6.28,8.71,12.41,12.52,18.83-1.61-3.85-2.7-6.79-2.85-8.45h0c-2.55-3.94-5.23-7.8-7.92-11.7-1.6-2.2-3.2-4.43-4.78-6.69s-3.11-4.72-4.53-7.13a160.18,160.18,0,0,1-18.4-47,130.78,130.78,0,0,1-2.79-34.14,120.17,120.17,0,0,1,2.24-17.19,115.68,115.68,0,0,1,4.85-16.71,129.22,129.22,0,0,1,16.57-30.34A177.47,177.47,0,0,1,374,41.59a236.46,236.46,0,0,1,26.65-21.2A287,287,0,0,1,429.68,2.88a22.44,22.44,0,0,1,2.95-1.41,17.75,17.75,0,0,1-2.53,1.45,287.89,287.89,0,0,0-34.72,21.65A219.32,219.32,0,0,0,364.52,51.7l.09-.08c.83-.74,1.08-.79.32.16A39.39,39.39,0,0,1,362,55c-.94.88-1,.69-.35-.14A146.52,146.52,0,0,0,339.87,86.7a114.4,114.4,0,0,0-7.15,18.11,108.83,108.83,0,0,0-4,19,126.1,126.1,0,0,0,1.51,38.37,155.69,155.69,0,0,0,11.69,36,158.42,158.42,0,0,1-10.54-33.36,129.49,129.49,0,0,1-2.11-35.05,113.54,113.54,0,0,1,8.21-34.17,132,132,0,0,1,17.67-30.11c2.92-4.13,6-8.15,9.35-12a20.24,20.24,0,0,1,2.71-2.64c.36-.21-.24.63-1.2,1.69s-1.83,2.16-2.75,3.24c5.87-6.52,11.17-10.73,11.53-10.15.14.83-4.79,6.39-10.6,13.21a146.19,146.19,0,0,0-19.69,29.93,111.9,111.9,0,0,0-10.4,34.08c-.36,2.56-.47,5.14-.67,7.7,0,2.61,0,5.18.18,7.76a112.09,112.09,0,0,1,13.88-52.78c8.78-16.13,20.87-30.25,34.26-42.71,2.29-2.15,4.4-3.82,4.61-3.68s-.29.55-1,1.29-1.7,1.76-2.84,2.84C371.12,54.55,360.8,67.05,353,80.91a111.47,111.47,0,0,0-14.42,44.63,127.13,127.13,0,0,0,4.7,46.73q1.65,5.7,3.69,11.29c1.4,3.72,2.9,7.39,4.55,11A137.21,137.21,0,0,0,363,215.19c3.25,4.2,6.71,8.45,10.08,12.9s6.7,9.09,9.77,14a169,169,0,0,1,8.52,15.11l1.89,3.93,1.79,4c1.18,2.71,2.34,5.57,3.32,8.48-.79-3-1.79-6-2.82-8.84-1.62-4.46-3.45-8.82-5.41-13.08s-4.14-8.4-6.43-12.39A251,251,0,0,0,369,217.08l-3.57-5-.82-1.17-.78-1.16c-.52-.78-1-1.59-1.54-2.41-2.05-3.27-4-6.69-5.76-10.15a161.53,161.53,0,0,1-9.27-21.43c-5.08-14.65-8-30.08-7.37-45.75a104,104,0,0,1,3.58-23.41,109.84,109.84,0,0,1,9.2-22.71,11.49,11.49,0,0,1,1.85-2.73c.21-.08-.23,1-1.07,2.45a109.3,109.3,0,0,0-9,21.94,101.13,101.13,0,0,0-3.65,22.56c-.76,15.14,1.68,30.29,6.57,45.29a154.26,154.26,0,0,0,7.15,18,147.72,147.72,0,0,0,9.07,16.48l1.24,1.88.62.89.66.92,2.82,3.91,5.89,8.05c3.95,5.49,7.88,11.23,11.4,17.23a201,201,0,0,0-11-17.74q-2.85-4.06-5.67-8.11l-2.7-3.89-.62-.9-.58-.87-1.17-1.84a154.71,154.71,0,0,1-8.52-15.84,164.9,164.9,0,0,1-6.7-16.79,130.16,130.16,0,0,1-6.74-35.17,107.25,107.25,0,0,1,.67-17.91A101.78,101.78,0,0,1,347,104.05a30.68,30.68,0,0,1,1-2.94c.37-.9.74-1.69,1.06-2.29a3.55,3.55,0,0,1,.22-1.21,99.55,99.55,0,0,1,8.07-18.11,16.14,16.14,0,0,1,2.09-3.08C359.92,75.91,359.56,76.65,358.86,78ZM123.47,225.35l-.21,0c.19-.08.4-.17.63-.25H125S124.23,225.23,123.47,225.35Zm-5.57,9h0l-.59.18Zm104.3,63c1.59-13.57,6.32-26.66,7.94-41.08A50.57,50.57,0,0,0,227.79,234a35.39,35.39,0,0,0-5.71-10.34c-.66-.76-1.29-1.55-2-2.26l-2.22-2.07c-.81-.61-1.62-1.21-2.44-1.8s-1.73-1-2.6-1.55c.85.5,1.74.93,2.55,1.49l2.41,1.74c.74.64,1.47,1.32,2.2,2a29.37,29.37,0,0,1,2,2.17,35.47,35.47,0,0,1,5.81,10,44.91,44.91,0,0,1,2.22,8.46,54.38,54.38,0,0,1,.63,8.52c0,1.41-.11,2.82-.16,4.22s-.24,2.83-.47,4.15-.39,2.69-.63,4l-.76,4C226.48,277.18,223.42,287.19,222.2,297.4ZM116.14,228.87a11.5,11.5,0,0,1,2.67-1.16,11,11,0,0,1,1.49-1.49l1.15-.88,1.24-.84a20.44,20.44,0,0,1,2.56-1.36c-.32-.06.09-.25.28-.38s.41-.24.62-.35a26.92,26.92,0,0,0-2.82,1.27c-.47.23-.93.49-1.4.78s-.93.57-1.35.86A47.61,47.61,0,0,0,116.14,228.87Zm-7.57,10.65-.2.07-.19-.42Zm.36.68.23-.16C109.26,240.17,109.15,240.21,108.93,240.2Zm2-1.57a1.94,1.94,0,0,0-.41.16Zm11.68,3.66q-.81-.78-1.56-1.56.7.79,1.47,1.59Z"/></g></g></svg>