<svg xmlns="http://www.w3.org/2000/svg" viewBox="0 0 629.18 422.91"><g id="Layer_2" data-name="Layer 2"><g id="Layer_1-2" data-name="Layer 1"><path d="M369.82,116.08l-.13.59a1.32,1.32,0,0,1-.67-1,10.83,10.83,0,0,0,2.37,7.39,16.72,16.72,0,0,0,5.85,4.93,2.49,2.49,0,0,0,3,1.69,2.41,2.41,0,0,0,1.16-3.24,4.66,4.66,0,0,1,0-1.06,22.37,22.37,0,0,0,.51-8.87l-.24,2.06a7.3,7.3,0,0,0-.56-2.64c-.14.19-.3.42-.45.61.12-3.35-2.25-6.63-5.22-7.13s-5.43,1.88-5.54,5.17Z"/><path d="M366,124.12c-.06-1.79,0-3.57,0-5.39l.22-.49-1.6,1.07.12,0c2.07.45,3.81,2.23,5.23,4l.58.58a1.51,1.51,0,0,0,1.2.15,1.78,1.78,0,0,0,1-2.32c-.11-.4-.27-.77-.41-1.16-.43-3.13-2.62-7.33-6.18-7-.82.08-1.48.87-2.19,1.4a2.57,2.57,0,0,0-1,3.4,2.43,2.43,0,0,0,3.18,1.33l.12.78-.67-.28c1.15-.2,2,.83,3,1.4l1,1.15,2.18-2.18L371,120a3,3,0,0,1-.21.3,26.09,26.09,0,0,1-4-2.85l-1.9-1.2a1.31,1.31,0,0,0-1.6,1.09l-.12,1.1.13-.54c.4,2.12,1.09,4.19,1.43,6.27a.68.68,0,0,0,.66.62A.56.56,0,0,0,366,124.12Z"/><path d="M362.19,118.08a1.64,1.64,0,0,0-.18-1.18l-.3-.05c0,.22-.09.52-.13.82C361.49,118.27,361.84,118.33,362.19,118.08Z"/><path d="M361.71,116.85l.05-.35-.15.31,0,0Z"/><path d="M388.29,275c-.5,2.21-1.15,4.36-1.76,6.52s-1.2,4.32-1.86,6.46l-2.08,6.39c-.35,1.06-.68,2.13-1,3.19l-1.15,3.14L378.08,307l-2.53,6.18-1.26,3.09-1.37,3-2.73,6.06c-.25.54-.39,1-.29,1.1s.4-.31.62-.81l2.75-6.06,1.38-3,1.27-3.09,2.54-6.17,2.32-6.27,1.16-3.15c.38-1,.7-2.11,1.06-3.17l2.08-6.39c.68-2.13,1.25-4.3,1.88-6.46s1.28-4.31,1.77-6.52a1.88,1.88,0,0,0,0-1.2C388.63,274.09,388.42,274.49,388.29,275Z"/><path d="M321,385.62c.19-.36.1-.41-.21-.13a4.48,4.48,0,0,0-.85,1.1c-.16.3-.05.37.21.12A4.62,4.62,0,0,0,321,385.62Z"/><path d="M316.92,378c.63-1,1.24-1.91,1.8-2.83s1-1.86,1.47-2.74a4.21,4.21,0,0,1,.62-.87c-.21,0-.08-.44.33-1.16a319.92,319.92,0,0,0,22-45.56A1.67,1.67,0,0,1,343,324a17.07,17.07,0,0,1,1.62-5.77l.8-1.64c.77-1.68,1.4-3.42,2.1-5.12s1.41-3.4,2-5.13l1.87-5.18.94-2.59.85-2.61a40.44,40.44,0,0,1,.94-5.07c.29-1.56.44-3.16.65-4.73s.41-3.16.62-4.74c.37-3.16.6-6.36,1-9.55-.22.37-.45.57-.64.53-.44-.22-.52-1.74-.3-3.43.11-.86.21-1.72.32-2.57-.45,2.43-.87,4.87-1.49,7.27a9.51,9.51,0,0,1-.25,1c-.5,2.67-.94,5.39-1.56,8.13a286.74,286.74,0,0,1-22.29,68,3.62,3.62,0,0,1-.71,1.13c-.19.15-.27.05-.1-.35,5.75-13.92,8.73-26.69,12.7-42.55a221.36,221.36,0,0,0,6.53-56.73A149.7,149.7,0,0,0,347,223.57l-.56-3.5-.28-1.75-.36-1.74c-.5-2.31-1-4.63-1.49-6.94s-1.21-4.59-1.83-6.92-1.43-4.59-2.13-6.91c-.45-1.58-1-3.11-1.58-4.63s-1.09-3-1.63-4.54-1.22-3-1.81-4.42-1.13-2.95-1.82-4.36l-.49-1.06-.25-.53-.11-.2-.38-.7-.74-1.41c-.5-.93-.94-1.88-1.45-2.8-1-1.81-2-3.63-3-5.47-.45-.92-1-1.81-1.51-2.7s-1-1.78-1.54-2.68c-1.87-2.52-1.12-6,2-8.1a7.58,7.58,0,0,1,6.1-1.06l-.36-.72-.25-1.31a5.15,5.15,0,0,1,.87-3.76l.92-1.55c2-2.49,3.06-5.42,5.24-7.92l1.14-.39.17-.39a6.09,6.09,0,0,1,1.94-3l1.27-.66a13.84,13.84,0,0,1,4.66-1.24,5.15,5.15,0,0,1,1.65-.68,7,7,0,0,1,3.85-2.74,1,1,0,0,1,1.28-.59,1.07,1.07,0,0,1,.46.35h0a8.65,8.65,0,0,0,.51-.93c-.08-.39-.11-.63-.11-.63-.28-1-.28-1-.5-1.88a5.23,5.23,0,0,1,.43-1.69c1.79-2.08,1.79-2.09,2.8-2.55a2,2,0,0,1,.35,0c0-.79,0-.85,0-1.07a2.51,2.51,0,0,1,.2-.52c.5-.34.5-.34.62-.56a2.1,2.1,0,0,1,.37-.26c.75,0,.75,0,.92-.11a1.35,1.35,0,0,1,.38,0l.62.46c-.85,1.65-.85,1.66-.85,1.66l.56-.09-.5.56.49-.45-.1.64.22-.79a4.61,4.61,0,0,0,.61,1.53,2.06,2.06,0,0,0,.53.79,3,3,0,0,1,.28-.22c.39,1.22.39,1.22.73,2.41a3.94,3.94,0,0,1-.23.46.57.57,0,0,1,.48.4l.21.61.14.08.05,0,.52.32.11.06h0c.37.22.88.54,2.19,1.44a7.77,7.77,0,0,1,.2,1.1c0-.14.07-.28.12-.41.09-.28.67-.38.67-.5,0-.75-.11-1.49-.21-2.22s-.31-1.45-.49-2.17c-.38-1.43-.83-2.86-1.26-4.3a1,1,0,0,1,.11-1.34.84.84,0,0,1,1.22.25c5.59,3.62,8.42,10.68,8.71,17.25.35,1.61.74,3.19,1.14,4.78l.17-.33.09,1.32,0,.14c.19-.43.37-.86.56-1.28,0-.25,0-.49,0-.73a29.82,29.82,0,0,1-.92-5.58c-.17-1.89-.39-3.77-.71-5.68s-.22-4.06-.38-6.13a.84.84,0,0,1,.41-1.1.8.8,0,0,1,1,.59,36.63,36.63,0,0,1,4,9,21.57,21.57,0,0,1,.36,9.49,5.53,5.53,0,0,1,.31,3.28v0l.53-1c.1.88-.39,1.57-.4,2.41l.95-.71c.36,2.11,1,4.19,1.49,6.28a24.17,24.17,0,0,1,.6,3.12,16.58,16.58,0,0,1,0,3.15c0,.16,0,.31,0,.46a24.37,24.37,0,0,1,1.72,2.06l.38.57a1.14,1.14,0,0,1,.09.16l.18.46.36.94c.23.64.46,1.28.69,1.94s.39,1.34.57,2c-.18-1-.32-1.92-.56-2.86s-.41-1.84-.62-2.77c0,0,.08.19.13.29l.15.36.3.73.58,1.47c.4,1,.69,2,1,3,.63,2,1.2,4.12,1.69,6.3,2.58,11.9,2.6,25.58.43,32.07a249.81,249.81,0,0,1,1,34,268.41,268.41,0,0,1-3.72,33.66,4.22,4.22,0,0,1-.92,2.29c-.28.07-.37-.72-.17-1.86l.46-3,.35-3c.23-2,.47-4,.7-6s.34-4,.53-6.05l.48-6.07.24-6.1c.08-2,.21-4.07.17-6.11,0-4.08.09-8.16-.15-12.25a289.9,289.9,0,0,1-4.28,41c-.26,1.74-.44,3.51-.78,5.26s-.75,3.42-1.2,5.11c-3.66,17.29-9.09,33.07-15.67,49.6-.35.88-.7,1.76-1,2.63l-1.12,2.56c-.74,1.69-1.46,3.36-2.19,5-1.45,3.32-3.06,6.49-4.57,9.7s-3.26,6.31-4.91,9.51-3.55,6.33-5.43,9.61a279.12,279.12,0,0,1-17.11,25.55,246.12,246.12,0,0,1-20,23c-1.93,2-4,3.56-4.54,3.48s.57-1.75,2.48-3.74a306.91,306.91,0,0,0,20.59-24.85,319,319,0,0,0,17.78-27,299.19,299.19,0,0,0,15-29.18,309,309,0,0,0,12.21-31.38c.42-1.17.78-2.34,1.13-3.52l1.05-3.5c.71-2.34,1.42-4.66,2-7a.52.52,0,0,1-.29.06c-.35-.08-.56-.6-.65-1.41-.35,1.32-.71,2.64-1.06,4s-.83,2.62-1.24,3.93c-.85,2.62-1.62,5.26-2.62,7.84a189.35,189.35,0,0,1-17.38,43.43,233.88,233.88,0,0,1-17.55,26.12A283,283,0,0,1,317,398.61a3.38,3.38,0,0,1-.93.86c-.19.08-.07-.19.26-.6l4.11-5.37,2.07-2.71,2-2.77,4-5.58,3.89-5.73c-1.13,1-2,1.44-2.27,1.09s0-1.51.8-3.06l-3.73,5c-.77,1-1.53,1.73-1.7,1.56s.32-1.07,1-2.06c2.51-3.41,5.08-6.78,7.44-10.29,1.18-1.75,2.43-3.46,3.57-5.24l3.44-5.34a295.33,295.33,0,0,0,14-27,7.12,7.12,0,0,1-2.45,2.09h0c-.68,1.41-1.35,2.82-2,4.22-11.66,26.17-28.86,50.62-49.65,71.64-.4.42-.78.71-.85.65s.17-.43.54-.8c3.09-3.22,6.22-6.39,9.14-9.75,1.46-1.67,3-3.29,4.39-5l4.24-5.13,0,0c-.28.24-.41.22-.22-.13a5.33,5.33,0,0,1,.89-1.07c.32-.27.38-.17.22.12a245,245,0,0,0,26.5-41.28,259,259,0,0,1-25,37.37c-.92,1.35-1.77,2.75-2.76,4.09a3.45,3.45,0,0,1-.89.86c-.14,0,0-.27.27-.64l.8-1.12c-1.84,2.15-3.56,3.57-3.92,3.21s.91-2.59,2.77-4.84c4.72-6.26,9.37-12.53,13.64-19.06l1.32-2.16,1.18-2.27a290.45,290.45,0,0,1-22,28.71c-.65.8-1.32,1.39-1.47,1.29s.26-.84.9-1.65a295.34,295.34,0,0,0,18-26.13,284.24,284.24,0,0,0,15.24-28c1.14-3.34,2.12-6.73,3.16-10.09s1.83-6.84,2.66-10.29c-.31.83-.69,1.64-1,2.47-4.22,10.58-8.24,20.39-12.79,29.94a197.5,197.5,0,0,1-16,28.07c-.32.47-.66.79-.78.79s0-.37.37-.83a221.12,221.12,0,0,0,15.62-27.61l2.85-6c.89-2,1.72-4,2.56-5.94l1.23-2.94,1.11-2.95,2.12-5.86q-1.25,2.88-2.48,5.76c-.41,1-.81,1.91-1.21,2.87l-1.3,2.83q-1.29,2.84-2.56,5.66l-2.74,5.56-1.37,2.79-1.46,2.74-2.95,5.48-3.17,5.39-1.61,2.69c-.55.9-1.13,1.77-1.71,2.65a7.57,7.57,0,0,1-1.19,1.54.73.73,0,0,1-.13.42,61.57,61.57,0,0,1-3.42,5.87,3,3,0,0,1-.83.94C316.58,378.71,316.67,378.43,316.92,378Zm48.31-240c0-.09.09-.16.12-.23,0,.2-.06.41-.09.65l-.95,1.29Zm-8.76-6.13h0l.5-.77C356.77,131.39,356.61,131.64,356.47,131.84ZM389.81,235c.14-4.87.43-9.73.43-14.58.18-4.87.06-9.72.16-14.62.21,2.37.41,4.72.62,7.09.05,1.84,0,3.69-.09,5.54s-.15,3.69-.22,5.53-.26,3.69-.4,5.53S390,233.11,389.81,235Zm-22.7-105.21a13,13,0,0,1-1.29,3.17,5.12,5.12,0,0,1,.95,1.53,29.11,29.11,0,0,1,1.49,4.61c.36-.39.45,0,.58.13l.34.5c-.36-1.68-.62-3.43-1-5.16A41.19,41.19,0,0,1,367.11,129.74Zm-7.21-9.54L360,120l.8-.11Zm-1.33.23,0,.26C358.32,120.76,358.37,120.64,358.57,120.43Zm.27,2.4a1.57,1.57,0,0,0,.19-.47Zm-18.25,12.39,3.63-1.21-3.54,1.08Z"/><path d="M370.48,235.34l.87-.49a5.19,5.19,0,0,1-1.55,1.56,22.23,22.23,0,0,0,5.74-4.68c1.69-1.82,3.1-4,4.81-6.16.86-1.08,1.77-2.15,2.74-3.21a37,37,0,0,1,3.42-3.25,35.87,35.87,0,0,1,7.24-4.68c1-.26,1.87-.54,2.78-.75s1.73-.44,2.49-.61c1.46-.38,2.63-.61,2.8-1,.46-.62-3.36-1.44-7.64-.37-.95.16-2.08.42-2.75.55a29.59,29.59,0,0,0-9.77,3.4,26.77,26.77,0,0,0-2.49,1.55l-1.24.88-1.06.78a48.24,48.24,0,0,0-4.07,3.46l1.68-1.32c.57-.44,1.17-.88,1.75-1.3a32.87,32.87,0,0,0-4.53,4.38l.86-.35c-2.54,2.32-5,5-7.41,7.31l-3.24,3.08a23.79,23.79,0,0,0-2.27,2.29c-1,1.26-.48,1.81,1.29,2a14.25,14.25,0,0,0,7.2-1.77c.42-.21.8-.42,1.19-.64S370.12,235.57,370.48,235.34Z"/><path d="M381.08,230.1a59,59,0,0,1-6.92,6l-.67.3,1.48.36-.05-.07a20.43,20.43,0,0,1,2-4.3c1-1.66,2.08-3.58,3.41-5.44l.93-1.36a2.44,2.44,0,0,0,.55-1.51c-.14-.65-1.72.13-3.26,1.81-.57.64-1.15,1.3-1.67,1.93-2.15,2.25-4.64,5.06-6.92,7.35-1.15,1.16-2.18,2.18-3,3.08a4.34,4.34,0,0,0-1.37,2.2c0,.54,1.48.52,2.39.68a4,4,0,0,0,2.49-.17,8.75,8.75,0,0,0,3.07-1.82c1.83-1.7,2.52-3.65,1.81-4.13.35-.31.7-.64,1-.95-.1.31-.24.61-.35.92-.27-.84,1.09-2.78,1.87-4.48l1.57-2.42-2.69.4-.72,1.35c.14,0,.39-.18.38-.16a41.33,41.33,0,0,1-4.1,6.93c-.61.95-1.25,1.84-1.92,2.7-.34.74.48.92,1.7.38.57-.29,1.12-.57,1.64-.89-.27.14-.52.27-.79.39,3.15-2.26,5.56-5.16,8.11-7.94a2.93,2.93,0,0,0,.79-1.4C381.86,229.54,381.5,229.64,381.08,230.1Z"/><path d="M373.29,240a10.42,10.42,0,0,0-1.85,1.14l-.08.28c.36-.14.86-.35,1.33-.57C373.6,240.44,373.66,240.08,373.29,240Z"/><path d="M371.36,241.43l-.59.22.52-.11,0-.06Z"/><path d="M535.18,350.46a63.92,63.92,0,0,0,11.75-6.77,60.5,60.5,0,0,0,9.58-8.73,50.19,50.19,0,0,0,6.67-9.8,38.65,38.65,0,0,0,3.36-9.82,36.7,36.7,0,0,0,.5-4.68c0-.39,0-.76,0-1.14l0-1.14v-.56l0-.64c0-.43,0-.85-.06-1.28a51,51,0,0,0-.54-5.26c-.25-1.78-.59-3.59-1-5.46A104.32,104.32,0,0,0,562,283.55c-.34-1-.72-2-1.1-3s-.87-2.28-1.29-3.42c-.85-2.27-1.77-4.5-2.66-6.7-.47-1.2-1.11-2.09-1.38-2.06s-.05,1,.41,2.08l1.34,3.3,1.32,3.36c.42,1.13.84,2.27,1.29,3.4s.77,2,1.12,3A107.42,107.42,0,0,1,564.5,295c.43,1.84.79,3.62,1.06,5.38a47,47,0,0,1,.59,5.15c.05.43.06.85.08,1.26s0,.87,0,1.21c0,.72.06,1.48,0,2.21v1.13l-.11,1.13c0,.77-.21,1.51-.28,2.31a36.25,36.25,0,0,1-3.1,9.65,48.49,48.49,0,0,1-6.39,9.74,59.73,59.73,0,0,1-9.33,8.77,64.87,64.87,0,0,1-11.57,6.89,9.29,9.29,0,0,0-2.16,1.18C533.3,351.16,534.12,350.9,535.18,350.46Z"/><path d="M564.6,65.64c-.42,1-.21,1.11.5.18a23.47,23.47,0,0,0,2-3.24c.39-.85.15-.95-.49-.19A13.84,13.84,0,0,0,564.6,65.64Z"/><path d="M574.92,81.88,573.48,86l-.69,2c-.2.67-.37,1.34-.55,2-.35,1.33-.68,2.63-1,3.89a34.77,34.77,0,0,0-.76,3.73,12.86,12.86,0,0,1-.74,2.58c.44-.2.47,1,.08,3a141.56,141.56,0,0,0-2,30.5,177.07,177.07,0,0,0,4.2,31,199.33,199.33,0,0,0,9.5,30.34c1,2.45,2,4.87,3.09,7.24s2.22,4.7,3.3,6.75l1.89,3.43L592,216.2q2.17,3.86,4.41,8a4.68,4.68,0,0,1,1.85,1.48c2.48,2.68,6.06,9.16,8.53,16.48.57,1.85,1.16,3.7,1.67,5.56,1.7,5.59,3.15,11.21,4.34,16.8.61,2.87,1.22,5.94,1.68,9s.85,6.15,1.09,9.31a105.66,105.66,0,0,1-.2,19.3,96.88,96.88,0,0,1-1.58,9.77c-.16.81-.38,1.62-.58,2.42s-.39,1.6-.65,2.45c-.51,1.65-.94,3.31-1.57,4.92a56.84,56.84,0,0,1-3,8.51c-.65,1.46-1.33,2.95-2.15,4.41q-.62,1.1-1.23,2.22L603.24,339a74.15,74.15,0,0,1-10.44,13.54,81.29,81.29,0,0,1-12.73,10.68,90,90,0,0,1-29.48,13c1.36-.16,2.23-.18,2.28,0-.24.52-5,2.07-10.89,2.66-2.94.3-5.86.54-8.81.58a98.31,98.31,0,0,0,12.69-.9A108,108,0,0,0,558.45,376c1.2-.35,2.31-.66,3.34-.93a93.4,93.4,0,0,0,26.42-13.38A85.5,85.5,0,0,0,601,350.05a79.18,79.18,0,0,0,10.37-14.71,75.52,75.52,0,0,0,6.8-17.16,89,89,0,0,0,2.82-17.3,112.2,112.2,0,0,0-2.83-32.37c-.28-1.27-.6-2.5-.91-3.74s-.61-2.31-.93-3.47c-.62-2.28-1.34-4.56-2-6.84-1.48-4.54-3.09-9.07-4.91-13.51a213,213,0,0,0-12.28-24.8l-3.06-5.33-1.43-2.51-.61-1-.55-1c-1.54-2.87-3.15-6.1-4.6-9.36a194.46,194.46,0,0,1-13.35-41.29,9.58,9.58,0,0,1-.28-3.25c.15-.57.46-.49.7.54a155.55,155.55,0,0,0,8.56,25.2c1.74,4,3.56,7.89,5.56,11.68s4,7.52,6.21,11c1.08,1.7,2.16,3.45,3.12,4.69l4,6c.7,1,1.45,2.18,2.15,3.29l2.21,3.53c1.49,2.42,3,5,4.45,7.66a159.24,159.24,0,0,1,8.19,17.21,167.52,167.52,0,0,1,6.31,18.9,126.61,126.61,0,0,1,4.36,27.14,101.25,101.25,0,0,1-3,29.88,82.55,82.55,0,0,1-13.77,29,81.06,81.06,0,0,1-10.16,11.45,86.5,86.5,0,0,1-11.48,9.18,97.65,97.65,0,0,1-25.11,12.05,108.94,108.94,0,0,1-13.11,3.22,101,101,0,0,1-13.3,1.41,90.34,90.34,0,0,1-26.59-2.71,60.93,60.93,0,0,1-13.16-5.08c-.51-.26-1-.51-1.54-.78l-1.48-.88c-1-.59-2-1.16-2.9-1.79-1.83-1.32-3.7-2.56-5.36-4a70.33,70.33,0,0,1-9.44-9.56,80,80,0,0,1-7.29-10.47,91.51,91.51,0,0,1-5.47-11l-1.09-2.82c-.38-.93-.71-1.88-1-2.83s-.63-1.88-.91-2.86l-.81-3c-.12-.5-.28-1-.39-1.5l-.29-1.5-.59-3c-.23-2-.64-4-.75-5.94l-.29-2.95c0-1-.08-1.94-.16-2.91-.2-2-.09-3.86-.23-5.79-.15-7.66,0-15.17,0-22.56l0-10.88c0-1.78,0-3.56-.07-5.3s0-3.46-.1-5.17c0-.42,0-.85,0-1.27l-.06-1.19c0-.79-.07-1.58-.14-2.36-.09-1.57-.22-3.13-.41-4.65a68.09,68.09,0,0,0-1.48-8.71c-.19-.65-.36-1.33-.55-2s-.38-1.27-.6-1.85c-.46-1.17-.93-2.26-1.42-3.23a12,12,0,0,0-.8-1.33,9.06,9.06,0,0,0-.81-1.16c-.15-.18-.28-.36-.42-.55l-.46-.44c-.15-.14-.27-.34-.43-.47l-.5-.4a5.51,5.51,0,0,0-.83-.67,6.13,6.13,0,0,0-.68-.41,1.83,1.83,0,0,1-.41-.26.31.31,0,0,1-.09-.11s0-.05-.07-.18,0-.07,0-.06-.08,0-.15-.05a1.44,1.44,0,0,1-.21,0,1.38,1.38,0,0,1-.27.11,4.56,4.56,0,0,0-1.47,1.86,16.47,16.47,0,0,0-1.46,5.14,21.79,21.79,0,0,0-.22,3.05c0,.52,0,1,0,1.57l.09,1.84c.19,2.5.38,5.19.53,8.11a45.38,45.38,0,0,1-.52,9.53c-.19.87-.36,1.73-.62,2.61l-.39,1.33-.49,1.33a26.44,26.44,0,0,1-1.2,2.61,32.42,32.42,0,0,1-1.78,2.71,20.89,20.89,0,0,1-10.61,7.25c-.51.14-1,.31-1.55.42l-1.56.27a21.06,21.06,0,0,1-3.17.25,28.71,28.71,0,0,1-3.2-.17,30.08,30.08,0,0,1-3.2-.62,27,27,0,0,1-3.15-1.14c-.52-.24-1-.5-1.54-.77l-.76-.41-.73-.49a17.78,17.78,0,0,1-2.8-2.21c-.44-.41-.88-.84-1.3-1.27s-.78-.94-1.15-1.43a17.77,17.77,0,0,1-1.09-1.49q-.47-.78-.9-1.59a22.85,22.85,0,0,1-1.4-3.06l-.51-1.46-.43-1.41-.17-.63c-.18-.68-.35-1.35-.48-2-.28-1.32-.48-2.54-.68-3.75-.33-2.38-.53-4.55-.75-6.56s-.43-3.82-.72-5.38a10.86,10.86,0,0,0-1.16-3.62.94.94,0,0,0-.72-.55s-.09,0,0,0l.39-.09.8-.2c.28-.09.48-.13.68-.19s.41-.11.61-.18l1.1-.38a8.76,8.76,0,0,0,.89-.37,5.89,5.89,0,0,0,1.45-.83,2.25,2.25,0,0,0-.26.27l-.11.14-.05.07h0l1.09-1.41h0l0,0a.7.7,0,0,0,.12-.18c.17-.3-.13.17-.16,1.08a9.15,9.15,0,0,0,.37,2.93,10.69,10.69,0,0,0,.76,1.89c.18.36.31.54.34.6s0,0-.14-.23a9.87,9.87,0,0,1-.75-1.64c.12.37.28.7.4,1s.05.15.06.25-.08.13-.22.08-.12-.08-.26-.08a2.08,2.08,0,0,1-.5,0,6.54,6.54,0,0,0-1,.08,6.1,6.1,0,0,0-2.94.68,19.33,19.33,0,0,1-3.12,1.35l-.74-.63-.28.24a3.26,3.26,0,0,1-2.55,1.37l-1-.48a6.68,6.68,0,0,1-2.71-3,1.9,1.9,0,0,1-1-.8c-1.33.43-2.64.44-3.44-.67-.56.39-1,.15-.85-.56a2.9,2.9,0,0,1,.27-.78h0c-.41.18-.53.24-1,.51-.38.48-.64.75-.64.75-1,1.28-1,1.28-2,2.35a8.06,8.06,0,0,1-2.12,1.23,18.39,18.39,0,0,1-2.84.21,2.09,2.09,0,0,1-1.12-.35,1.31,1.31,0,0,1-.06-.27c-1.23.65-1.31.69-1.68.85a7,7,0,0,1-.88.2,2,2,0,0,0-1-.09,2.37,2.37,0,0,1-.49-.1c0-.55,0-.56-.16-.62a.75.75,0,0,1,.06-.3c.5-.52.7-.73.79-.81,1.37-.3,2-.5,2.31-.59l.32-.09-.16-.38.85-.09h-.68l.92-.49-1.15.53c.83-.67,1.21-1,1.47-1.25a6.26,6.26,0,0,0,.65-.7,5.88,5.88,0,0,0,1-1.25,1.21,1.21,0,0,1-.29,0c1.56-1.61,1.54-1.62,3-3.25a3.76,3.76,0,0,1,.56-.29,1.91,1.91,0,0,1,.46-.92l.74-.91.09-.23h0l.4-.9.08-.19h0a30.06,30.06,0,0,1,2.16-4,21.31,21.31,0,0,1,1.66-1.44l-.59.33c-.39.21-.39-.27-.58-.13a40.74,40.74,0,0,0-6,6A54.86,54.86,0,0,1,372.7,237a3.32,3.32,0,0,1-2,1.15c-.47,0-.24-.59.45-1.27,1.47-2.06,3.06-4.39,4.83-7,.88-1.3,1.82-2.74,2.93-4.13.55-.69,1.15-1.39,1.8-2.07.31-.34.66-.68,1-1s.65-.63,1.1-1a27.15,27.15,0,0,1,11.35-6.14,25,25,0,0,1,6.71-.88,21.68,21.68,0,0,1,7.09,1.2,19.33,19.33,0,0,1,6.79,3.68,20,20,0,0,1,2.48,2.47,20.88,20.88,0,0,1,2,2.78l-.24-.62a18.87,18.87,0,0,1,1.47,3.09l.13.33a21.14,21.14,0,0,0-.72-2.54c-.28-.55-.58-1.1-.91-1.65a23.08,23.08,0,0,0-2.54-3.09,16,16,0,0,0-1.58-1.44,15.06,15.06,0,0,0-1.81-1.33,22,22,0,0,0-8.23-3.2,26,26,0,0,0-8-.12,29.71,29.71,0,0,0-7.2,1.9,39,39,0,0,0-6.73,3.52c-.52.35-1,.71-1.56,1.09l-1.34,1c-.88.67-1.74,1.38-2.54,2.12s-1.44,1.26-1.59,1,.38-1.13,1.15-1.92c.62-.71,1.25-1.4,1.95-2.09l1.07-1,1.3-1.15a30.68,30.68,0,0,1,5.73-3.84,30.11,30.11,0,0,1,6.59-2.53,31.76,31.76,0,0,1,3.62-.73,31.08,31.08,0,0,1,3.9-.23,28.16,28.16,0,0,1,4.05.35,24.89,24.89,0,0,1,4.11,1.08,21.57,21.57,0,0,1,7.18,4.21,20.94,20.94,0,0,1,2.47,2.61,22.54,22.54,0,0,1,1.86,2.75,19.77,19.77,0,0,1,2.13,5.44,17.22,17.22,0,0,1,.92,7.34v.1c.12-.48.2-1,.29-1.51,0,.45,0,.86,0,1.23s-.08.67-.13,1c-.09.65-.23,1.2-.31,1.92l.5-.56a44.37,44.37,0,0,1-.73,5.3c-.31,1.6-.63,3.09-1,4.46-.66,2.75-1.31,5.14-1.83,7.13l-.09.46c0,.84.11,1.61.19,2.35,0,.18,0,.35.07.53v.16c0,.23,0,.48,0,.69s0,.44.08.62a2.27,2.27,0,0,0,.1.48,2.87,2.87,0,0,0,.55,1.39,4.79,4.79,0,0,0,1.55,1.22,3.76,3.76,0,0,1-1.81-1.76,1.74,1.74,0,0,0-.13-.5,1.62,1.62,0,0,0-.06-.51c0-.27-.08-.54-.08-.86a3.7,3.7,0,0,1,0-.48c0-.15,0-.42,0-.39V258c0,.19,0,.35,0,.51s0,.32.07.46a1.61,1.61,0,0,0,.07.37,2.65,2.65,0,0,0,.31,1,4.1,4.1,0,0,0,2.13,1.7,5.67,5.67,0,0,0,3.48.15,4.78,4.78,0,0,0,2.79-1.81c1.2-1.66,1.84-4.2,1.92-7.29a47.25,47.25,0,0,0-.21-4.93c-.18-1.73-.39-3.53-.62-5.42-.11-.91-.23-2-.31-3s-.11-2.11-.14-3.17a44.81,44.81,0,0,1,.38-6.49,28.67,28.67,0,0,1,1.74-6.76,20.55,20.55,0,0,1,4.22-6.67c.5-.5,1-1,1.57-1.45s1.16-.85,1.75-1.26a17.22,17.22,0,0,1,4-1.89,18.81,18.81,0,0,1,8.08-.73,22.52,22.52,0,0,1,6.8,2,28.32,28.32,0,0,1,5.23,3.24,28.61,28.61,0,0,1,7,8,17.84,17.84,0,0,1,1.09,2c.33.65.65,1.28.93,1.9.47,1.25,1,2.43,1.3,3.53a57.64,57.64,0,0,1,3.3,23.58c-.05,1-.12,1.93-.23,2.88s-.18,1.92-.31,2.82c-.27,1.82-.52,3.65-.85,5.43-.66,3.59-1.43,7.08-2.2,10.55C472.67,284,471,290.74,470,297.5s-1.15,13.54.28,19.9a37.78,37.78,0,0,0,3.17,9l1.19,2.16c.39.73.8,1.44,1.25,2.13l1.3,2.08,1.42,2,.71,1,.76,1,1.52,1.89c1.09,1.19,2.1,2.44,3.28,3.51a53.73,53.73,0,0,0,7.21,6,39.94,39.94,0,0,0,16.11,6.67,20.35,20.35,0,0,0,2,.27l2,.12a16.85,16.85,0,0,0,2,0c.68,0,1.27,0,2-.08s1.41-.11,2.11-.19l2.12-.29c1.42-.27,2.81-.54,4.2-.91a29.56,29.56,0,0,1,4.75-1.05c.26.14-1.2.86-3.51,1.49a53.43,53.43,0,0,1-6.1,1.31l-1.55.2c-.52.06-1,.09-1.54.14-1.07.11-2,.1-3,.13-.49,0-1,.05-1.48,0l-1.48-.11c-.49,0-1,0-1.5-.11l-1.5-.24c-.49-.1-1-.16-1.5-.27l-1.5-.39-1.51-.4-1.49-.53c-8-2.83-15.54-8.6-21.45-15.93a64,64,0,0,1-7.65-12,39,39,0,0,1-3.68-13.61,63.15,63.15,0,0,1-.19-7.29c0-1.22.14-2.45.23-3.68s.23-2.46.4-3.69c.63-4.93,1.63-9.86,2.74-14.84-1,4.15-1.81,8.28-2.5,12.41a82.29,82.29,0,0,0-1,12.37,51.27,51.27,0,0,0,1.45,12,46,46,0,0,0,4.73,11,62.69,62.69,0,0,0,7,9.89,54.34,54.34,0,0,0,8.61,8.16,47.71,47.71,0,0,0,9.87,5.82,36.29,36.29,0,0,0,10.54,2.8l1.35.15,1.36,0c.91,0,1.75.08,2.73,0s1.89-.07,2.84-.18l1.42-.13L522,357A75.92,75.92,0,0,0,533,354.43a65.14,65.14,0,0,0,23.44-14.22c6.36-6,10.9-13.11,13.07-20A35.82,35.82,0,0,0,571.18,310l0-1.25c0-.42,0-.91,0-1.36s0-.93,0-1.39,0-.92-.08-1.39c-.12-1.86-.4-3.76-.71-5.68a82.83,82.83,0,0,0-3-11.89q-1-3.06-2.27-6.21c-.46-1.11-.91-2.23-1.37-3.34s-.94-2.33-1.44-3.47a226.81,226.81,0,0,0-10.88-22c-2-3.57-4.12-7.19-6.42-11.21l-1.74-3.08-1.8-3.24c-.55-1-1.4-2.58-2-3.82s-1.27-2.54-1.85-3.8c-2.34-5-4.37-9.87-6.27-14.86s-3.53-10-5-15.19-2.79-10.44-3.93-15.84-2-10.94-2.71-16.63a172.35,172.35,0,0,1,.85-48A149.79,149.79,0,0,1,526.12,93c1.32-3.77,2.8-7.46,4.23-11.16,1.63-3.58,3.3-7.14,5-10.63A158.8,158.8,0,0,1,562.2,34.36a170.68,170.68,0,0,1,16.51-14.9c2.95-2.24,5.85-4.51,8.94-6.54s6.12-4.11,9.3-6a87.6,87.6,0,0,1,9.39-5A21.06,21.06,0,0,1,611.55,0C612.7,0,608,2.77,601.4,6.87c-3.24,2-6.35,4.13-9.43,6.35l-4.59,3.41c-1.53,1.14-3,2.39-4.47,3.59l-2.22,1.83c-.73.62-1.43,1.27-2.15,1.91l-4.29,3.88-4.13,4.08-2,2.07c-.68.7-1.32,1.43-2,2.15q-2,2.16-3.93,4.36c-1.28,1.48-2.5,3-3.75,4.56-2.52,3-4.8,6.29-7.11,9.53-1.18,1.61-2.21,3.33-3.29,5s-2.14,3.41-3.18,5.12l-2.91,5.34c-.95,1.8-2,3.56-2.77,5.44l-2.54,5.59c-.41.94-.87,1.86-1.23,2.82l-1.08,2.9-2.14,5.82c-.72,1.94-1.25,4-1.86,5.94a154.21,154.21,0,0,0-4.94,24.32,176.77,176.77,0,0,0,1.09,48.67,206.11,206.11,0,0,0,13,46.19c1.55,3.76,3.15,7.46,5.12,11.37l.78,1.54L546,232l1.35,2.52,2.63,4.8c1.72,3.1,3.35,6,4.87,8.86s3,5.65,4.38,8.46c2.79,5.62,5.25,11.38,7.6,17.38l1.7,4.53c.51,1.4,1,2.8,1.46,4.2.93,2.78,1.71,5.55,2.37,8.28a68.33,68.33,0,0,1,2,16l0,1.95-.12,1.8c0,.6-.12,1.19-.19,1.8a16.1,16.1,0,0,1-.26,1.81,37.92,37.92,0,0,1-2,7.27c-3.12,8.34-9.24,16.49-17.38,22.85.15,0,.3,0,.35.1.21.35-.36,1.3-1.6,2.55,9.86-6.89,17.45-16.16,21.19-25.86a41.86,41.86,0,0,0,1.82-10.44c.11-1.66.06-3.61,0-5.42s-.3-3.71-.54-5.58a83.78,83.78,0,0,0-2.49-11.41c-.55-1.93-1.16-3.87-1.85-5.82-.32-1-.69-2-1.05-2.95l-1.17-3.05a265.88,265.88,0,0,0-10.93-24.79c-2-4.1-4.25-8.28-6.64-12.83-1.18-2.29-2.41-4.67-3.66-7.2l-1-2-1-2.24c-.66-1.46-1.27-2.86-1.85-4.27a175.26,175.26,0,0,1-7.51-22.75,184.72,184.72,0,0,1-4.35-22.5,179.92,179.92,0,0,1-.28-45,152.35,152.35,0,0,1,4.23-28.38c.29-1.17.56-2.34.89-3.5l1-3.47c.62-2.33,1.51-4.56,2.3-6.83l1.22-3.38.61-1.69.71-1.65,2.88-6.55A159.35,159.35,0,0,1,560,53.34a175.24,175.24,0,0,1,18-21.21,13.26,13.26,0,0,1,2.69-2.3c.51-.26,0,.38-1,1.44a170.46,170.46,0,0,0-23.32,30.67,153.07,153.07,0,0,0-15.82,36.8,19,19,0,0,1,2.76-4.36c.82-.92,1.46-1.28,1.88-1,.91.64.57,3.92-.08,8.82L546.42,98l1.5-4.19,1.52-4.18c.48-1.4,1.15-2.72,1.73-4.08,1.49-3.33,3-5.81,3.41-5.5s-.33,3.06-1.7,6.21c-1.25,2.7-2.19,5.53-3.19,8.34-.5,1.41-1,2.81-1.48,4.23l-1.27,4.3a149.64,149.64,0,0,0-3.76,17.52,163.75,163.75,0,0,0-1.64,17.8,168.07,168.07,0,0,0,.33,17.82,197.77,197.77,0,0,0,16.39,61.21c.73,1.62,1.5,3.23,2.33,4.88l1.24,2.37,1.22,2.29q2.4,4.46,4.82,8.91c-1-3.64-1.4-6.56-1-8.24a0,0,0,0,1,0,0q-1.47-2.82-2.93-5.64c-1-2-1.91-3.94-2.78-5.92a188.56,188.56,0,0,1-10.63-27.65,183.22,183.22,0,0,1-6.19-29.29,149.58,149.58,0,0,1,4.4-60.61,154.86,154.86,0,0,1,29.1-53.66,194.76,194.76,0,0,1,21-21.83A210.11,210.11,0,0,1,622.73,4.62a13.21,13.21,0,0,1,2.51-1.47,10,10,0,0,1-2,1.58C603.21,18.24,585.1,35,571,55.09L571,55c.68-.73,1-.75.46.21a28.55,28.55,0,0,1-2.19,3.14c-.74.88-.88.67-.48-.17A148.17,148.17,0,0,0,553,88.69a154.31,154.31,0,0,0-5.1,16.51,144.85,144.85,0,0,0-3,17,155.47,155.47,0,0,0,.07,34A179.67,179.67,0,0,0,551.72,189c-5.33-19.89-7.71-40.79-5.71-61.51a136.61,136.61,0,0,1,6.39-30.46,140.27,140.27,0,0,1,12.8-28.18l1.48-3,1.64-2.94L570,60c.56-1,1.11-2,1.74-2.93a13.23,13.23,0,0,1,2.16-2.6c.34-.18,0,.67-.71,1.73s-1.38,2.09-2,3.2a67.24,67.24,0,0,1,6.1-7.63c1.77-1.73,3-2.61,3.36-2.27s-.44,2.12-1.74,4.48c-.62,1.19-1.39,2.57-2.29,4-.45.74-.93,1.51-1.44,2.29s-1,1.63-1.5,2.47c-11.06,18-18.64,38.05-21.16,58.89-.21,2.26-.35,4.53-.48,6.79.06,2.3.08,4.56.26,6.84a142.46,142.46,0,0,1,3.25-24c.9-3.93,1.89-7.84,3.17-11.66l1.94-5.71c.3-1,.69-1.89,1.08-2.82l1.15-2.79c1.43-3.76,3.29-7.34,5-11,.89-1.79,1.92-3.52,2.87-5.29l1.45-2.64c.5-.87,1-1.71,1.57-2.57L577,61.66l3.4-5c1.1-1.68,2.35-3.25,3.54-4.86s2.37-3.24,3.67-4.77c1.7-2.17,3.35-3.85,3.64-3.68s-.86,2.09-2.53,4.27c-1.07,1.4-2.05,2.85-3,4.32l-2.93,4.37L580,60.83l-1.37,2.23-1.25,2.31L574.87,70c-.8,1.55-1.52,3.14-2.29,4.71-1.58,3.1-2.84,6.35-4.17,9.54-.71,1.59-1.23,3.24-1.8,4.88L564.91,94l-1.38,5c-.44,1.67-1,3.3-1.3,5a135.9,135.9,0,0,0-3.1,20.35c-2,27.4,3.53,55.33,13.91,80.87,1.08,2,2.19,4,3.34,5.87s2.27,3.58,3.6,5.59c2.58,3.89,5.32,7.91,8,12.15a185.2,185.2,0,0,1,14.58,27.46c-.75-2.53-1.59-5.09-2.48-7.63A177.2,177.2,0,0,0,590,225.8c-1.83-3.53-3.69-6.88-5.45-10.06-.86-1.58-1.77-3.24-2.44-4.51s-1.48-2.93-2.2-4.44a210.62,210.62,0,0,1-13.74-38.23,155.92,155.92,0,0,1-4.94-40.28,125.84,125.84,0,0,1,2-20.63c.37-1.71.68-3.44,1.09-5.15s.91-3.43,1.37-5.15l.69-2.59.87-2.55,1.76-5.13a5.66,5.66,0,0,1,1.43-2.5c.25-.06,0,.94-.54,2.28-.55,1.68-1.11,3.35-1.66,5s-1.12,3.29-1.5,5c-.84,3.34-1.75,6.62-2.31,10a124.09,124.09,0,0,0-2,19.88A161.31,161.31,0,0,0,567,166.46,186.58,186.58,0,0,0,577.32,198c1.06,2.48,2.17,4.91,3.33,7.26S583,210,584.19,212c1.36,2.34,2.8,4.74,4.28,7.2s3,5,4.49,7.65c-1.39-2.75-2.76-5.41-4.14-8l-3.94-7.4c-.5-.95-1.06-2.08-1.59-3.2s-1.08-2.29-1.61-3.46c-1-2.34-2.06-4.74-3-7.16a204.52,204.52,0,0,1-9.4-29.87,160.52,160.52,0,0,1-4.19-30.9c0-1.3-.11-2.61-.1-3.91l0-3.9c.1-2.6.17-5.22.41-7.81a119.26,119.26,0,0,1,2.24-15.56,16.55,16.55,0,0,1,1.48-4.64,2.15,2.15,0,0,1,0-1.1c.22-1.32.45-2.67.71-4s.71-2.73,1.07-4.13.75-2.82,1.19-4.24l1.49-4.24A9.74,9.74,0,0,1,575,80.38C575.39,79.9,575.3,80.64,574.92,81.88ZM404.48,221.38l-.35-.13a11.86,11.86,0,0,1,1.24.34l.21.12a11.38,11.38,0,0,1,1.37,1l-.74-.45C405.76,222,405.13,221.68,404.48,221.38Zm-14.6,9.75h0l-.85.27ZM469,314.87a64.33,64.33,0,0,1,.2-17.63c.77-5.91,2.09-11.81,3.42-17.77s2.65-12,3.51-18.31a68.57,68.57,0,0,0,0-19.82,67.5,67.5,0,0,1,.36,19.38c-1.29,9.54-3.71,18.54-5.57,27.48a111.05,111.05,0,0,0-2.09,13.39A57.74,57.74,0,0,0,469,314.87Zm-79.2-92.3a14.8,14.8,0,0,1,5.07-1.06,14.59,14.59,0,0,1,3.72-1.3,17.89,17.89,0,0,1,5.73-.27,15.82,15.82,0,0,1,5.76,1.85c-.37-.48.49,0,.93.25a10.61,10.61,0,0,1,1.3.82,15.8,15.8,0,0,0-5.9-3,19.11,19.11,0,0,0-6.38-.54A26,26,0,0,0,389.82,222.57ZM376.42,240l-.3.13a4.26,4.26,0,0,1-.22-.58Zm.45.94.34-.27C377.34,240.87,377.18,240.94,376.87,241Zm2.95-2.59a3,3,0,0,0-.58.31Zm15.74,3.83c-.74-.67-1.43-1.34-2.1-2,.63.71,1.28,1.39,2,2.08Z"/><path d="M69.76,125.3c0,.19-.08.39-.12.58a1.28,1.28,0,0,1-.67-1,10.87,10.87,0,0,0,2.37,7.4,16.6,16.6,0,0,0,5.85,4.92,2.49,2.49,0,0,0,3,1.7,2.44,2.44,0,0,0,1.16-3.25,3.67,3.67,0,0,1,0-1,22.6,22.6,0,0,0,.51-8.88l-.24,2.07a7.57,7.57,0,0,0-.56-2.65l-.45.62c.12-3.36-2.25-6.64-5.22-7.14s-5.43,1.89-5.54,5.17Z"/><path d="M65.91,133.34c0-1.8,0-3.58,0-5.4l.22-.48-1.6,1.07.12,0c2.07.45,3.81,2.23,5.23,4l.58.58a1.47,1.47,0,0,0,1.2.16,1.79,1.79,0,0,0,1-2.33c-.11-.39-.27-.77-.41-1.15-.43-3.13-2.62-7.33-6.18-7-.82.08-1.48.86-2.2,1.4a2.57,2.57,0,0,0-1,3.4,2.42,2.42,0,0,0,3.18,1.32l.12.78-.67-.27c1.15-.21,2,.82,3,1.4l1,1.14,2.18-2.17-.7-.5c-.09.12-.19.31-.21.31a28.21,28.21,0,0,1-4-2.85l-1.89-1.21a1.32,1.32,0,0,0-1.6,1.09l-.13,1.11.14-.55c.4,2.13,1.08,4.19,1.43,6.28a.69.69,0,0,0,.65.62A.56.56,0,0,0,65.91,133.34Z"/><path d="M62.13,127.3a1.57,1.57,0,0,0-.18-1.19l-.3,0c0,.23-.08.53-.12.83C61.43,127.48,61.79,127.54,62.13,127.3Z"/><path d="M61.65,126.06l.06-.34c-.06.1-.11.2-.16.3l.05,0Z"/><path d="M88.23,284.25c-.49,2.2-1.14,4.35-1.75,6.51s-1.2,4.33-1.86,6.47l-2.08,6.39c-.35,1.06-.68,2.13-1.05,3.18L80.33,310,78,316.23l-2.53,6.18-1.26,3.08-1.37,3-2.74,6.06c-.24.54-.39,1-.28,1.09s.39-.3.62-.8l2.75-6.06,1.38-3,1.27-3.08,2.53-6.18,2.33-6.27,1.15-3.14c.39-1.05.71-2.12,1.07-3.18L85,297.55c.68-2.14,1.25-4.31,1.88-6.46s1.27-4.32,1.77-6.52a2,2,0,0,0,0-1.21C88.57,283.31,88.37,283.7,88.23,284.25Z"/><path d="M20.92,394.83c.19-.36.1-.41-.21-.13a5,5,0,0,0-.86,1.1c-.15.3-.05.37.22.13A4.72,4.72,0,0,0,20.92,394.83Z"/><path d="M16.87,387.21c.63-1,1.24-1.9,1.8-2.83s1-1.85,1.47-2.73a4.58,4.58,0,0,1,.62-.88c-.21,0-.09-.43.32-1.15a317.9,317.9,0,0,0,22-45.57,1.76,1.76,0,0,1-.12-.84,16.55,16.55,0,0,1,1.62-5.77l.8-1.65c.77-1.68,1.4-3.41,2.1-5.11s1.41-3.41,2-5.13l1.87-5.19.94-2.58.85-2.62a41,41,0,0,1,.93-5.07c.3-1.56.45-3.15.66-4.73s.41-3.15.61-4.73c.38-3.17.61-6.36,1-9.55-.23.36-.45.57-.64.52-.44-.21-.52-1.73-.3-3.43.11-.86.21-1.71.32-2.57-.45,2.44-.87,4.87-1.49,7.28a8.64,8.64,0,0,1-.25.95c-.51,2.68-.94,5.4-1.56,8.14a286.66,286.66,0,0,1-22.29,68,3.86,3.86,0,0,1-.71,1.14c-.19.15-.28.05-.1-.35,5.75-13.92,8.73-26.69,12.7-42.56a221.26,221.26,0,0,0,6.53-56.73A148.9,148.9,0,0,0,47,232.78l-.55-3.5-.28-1.74-.36-1.74c-.5-2.31-1-4.63-1.49-7s-1.22-4.59-1.83-6.91S41,207.34,40.34,205c-.45-1.57-1-3.1-1.59-4.62s-1.08-3-1.63-4.55-1.21-2.95-1.8-4.42-1.13-2.94-1.82-4.35L33,186l-.24-.53-.11-.19-.38-.71-.74-1.4c-.5-.93-.94-1.89-1.45-2.8-1-1.82-2-3.64-3-5.47-.46-.93-1-1.81-1.51-2.7l-1.55-2.68c-1.86-2.53-1.11-6,2-8.1a7.54,7.54,0,0,1,6.1-1.06l-.37-.72-.24-1.31a5.21,5.21,0,0,1,.86-3.77l.93-1.54c2-2.5,3.06-5.43,5.24-7.92l1.14-.39.17-.39a6,6,0,0,1,1.94-3l1.27-.67a13.53,13.53,0,0,1,4.66-1.23,4.85,4.85,0,0,1,1.65-.68A6.9,6.9,0,0,1,53.24,136a1,1,0,0,1,1.28-.6,1.23,1.23,0,0,1,.46.35h0a9.79,9.79,0,0,0,.5-.93,5.94,5.94,0,0,1-.1-.63c-.28-1-.28-1-.5-1.88a5.14,5.14,0,0,1,.43-1.69c1.79-2.08,1.78-2.09,2.79-2.56l.35,0c0-.79,0-.85,0-1.07a3,3,0,0,1,.21-.51c.49-.35.49-.35.62-.56a2.56,2.56,0,0,1,.37-.27c.75,0,.75,0,.92-.11a2.09,2.09,0,0,1,.38,0l.61.46-.84,1.67.55-.1-.49.57.49-.45-.1.63.22-.78a5.08,5.08,0,0,0,.6,1.53,2.05,2.05,0,0,0,.54.78,1.51,1.51,0,0,1,.28-.21c.38,1.21.38,1.21.73,2.41a3.94,3.94,0,0,1-.23.46.54.54,0,0,1,.48.4l.21.61.14.07,0,0,.52.32.12.06h0c.36.22.88.54,2.19,1.44a7.52,7.52,0,0,1,.2,1.1,3.31,3.31,0,0,1,.12-.42c.09-.27.66-.38.66-.5a18.52,18.52,0,0,0-.21-2.22c-.12-.73-.3-1.44-.48-2.16-.38-1.43-.84-2.86-1.26-4.31a1,1,0,0,1,.11-1.33.82.82,0,0,1,1.22.25c5.58,3.62,8.42,10.68,8.71,17.25.35,1.6.74,3.19,1.14,4.77l.16-.33.09,1.33,0,.13c.18-.43.37-.85.55-1.28,0-.24,0-.48,0-.73a29.71,29.71,0,0,1-.92-5.57c-.17-1.9-.4-3.78-.71-5.69s-.22-4.05-.39-6.12a.86.86,0,0,1,.42-1.11.82.82,0,0,1,1,.6,36.07,36.07,0,0,1,4,9,21.72,21.72,0,0,1,.37,9.49,5.58,5.58,0,0,1,.31,3.27v.06c.18-.34.35-.65.54-1,.09.87-.39,1.57-.41,2.4l1-.7c.36,2.11,1,4.19,1.49,6.27a28.3,28.3,0,0,1,.6,3.13,16.58,16.58,0,0,1,0,3.15,2.27,2.27,0,0,1,0,.45,21.55,21.55,0,0,1,1.73,2.07c.13.18.26.37.38.57l.09.16.18.46.36.94c.22.63.45,1.28.69,1.93s.38,1.35.57,2c-.18-1-.33-1.92-.56-2.86s-.42-1.84-.63-2.78a2.29,2.29,0,0,1,.14.3l.15.36.3.73.58,1.46c.4,1,.68,2,1,3,.63,2,1.19,4.11,1.69,6.3,2.57,11.89,2.6,25.58.43,32.07a249.72,249.72,0,0,1,1,34A268.46,268.46,0,0,1,89.76,279a4.22,4.22,0,0,1-.92,2.29c-.28.07-.37-.72-.17-1.86l.46-3,.35-3q.34-3,.7-6c.27-2,.34-4,.53-6s.31-4,.47-6.07.17-4.06.25-6.09.21-4.07.17-6.11c0-4.08.09-8.17-.16-12.25a289.74,289.74,0,0,1-4.27,41c-.26,1.75-.44,3.51-.79,5.26s-.74,3.43-1.2,5.11c-3.65,17.3-9.08,33.08-15.67,49.61-.35.88-.69,1.76-1,2.63s-.74,1.71-1.11,2.55l-2.19,5c-1.46,3.31-3.06,6.48-4.57,9.7s-3.27,6.3-4.92,9.51-3.55,6.33-5.43,9.6a279.05,279.05,0,0,1-17.1,25.55,243.59,243.59,0,0,1-20,23c-1.93,2-4,3.57-4.54,3.49s.56-1.75,2.48-3.74a312.92,312.92,0,0,0,20.59-24.85A321.62,321.62,0,0,0,49.5,367.27a301.25,301.25,0,0,0,15-29.17,308.22,308.22,0,0,0,12.21-31.39c.42-1.16.78-2.34,1.12-3.51s.71-2.34,1.06-3.51c.71-2.33,1.42-4.65,2-7a.51.51,0,0,1-.29.05c-.35-.08-.57-.6-.65-1.41-.36,1.32-.71,2.65-1.07,4l-1.23,3.94c-.86,2.61-1.62,5.26-2.62,7.83a189.88,189.88,0,0,1-17.38,43.44,236.2,236.2,0,0,1-17.55,26.12A281.81,281.81,0,0,1,17,407.83a3.3,3.3,0,0,1-.92.85c-.2.08-.07-.18.26-.59l4.11-5.38,2.07-2.7,2-2.78,4-5.58,3.89-5.73c-1.14,1-2,1.45-2.27,1.09s0-1.5.8-3.05l-3.73,5c-.77,1-1.54,1.72-1.7,1.56s.31-1.08,1-2.07c2.51-3.4,5.08-6.77,7.43-10.28,1.19-1.75,2.44-3.47,3.58-5.25L41,367.58a289.16,289.16,0,0,0,14-27,7.08,7.08,0,0,1-2.44,2.1h0l-2,4.23C38.86,373.05,21.66,397.5.87,418.51c-.4.42-.78.72-.86.66s.18-.43.55-.81c3.09-3.21,6.22-6.38,9.14-9.74,1.46-1.68,3-3.3,4.39-5l4.24-5.14,0,0c-.27.23-.4.21-.21-.13a5.33,5.33,0,0,1,.89-1.07c.32-.28.38-.18.22.12a245.12,245.12,0,0,0,26.49-41.28,257.28,257.28,0,0,1-25,37.36c-.91,1.36-1.77,2.76-2.75,4.1a3.63,3.63,0,0,1-.89.86c-.14,0,0-.28.27-.65l.8-1.12c-1.84,2.16-3.56,3.58-3.93,3.21s.92-2.58,2.78-4.84c4.72-6.25,9.37-12.52,13.64-19.06l1.32-2.16c.39-.75.78-1.51,1.18-2.26a290.55,290.55,0,0,1-22,28.71c-.64.8-1.31,1.39-1.46,1.28s.25-.84.9-1.64a298.32,298.32,0,0,0,18-26.13,284.4,284.4,0,0,0,15.24-28c1.14-3.33,2.11-6.73,3.15-10.09s1.83-6.83,2.66-10.29c-.31.83-.68,1.65-1,2.48-4.22,10.57-8.24,20.38-12.79,29.93a198,198,0,0,1-16,28.08c-.32.46-.67.79-.79.79s0-.37.38-.83A221.24,221.24,0,0,0,35,358.26l2.85-6c.88-2,1.72-4,2.55-6,.42-1,.83-2,1.24-2.93l1.11-3c.71-2,1.41-3.92,2.11-5.86l-2.47,5.76-1.22,2.88-1.29,2.83-2.57,5.66-2.73,5.56-1.37,2.79-1.46,2.73-2.95,5.48c-1.05,1.8-2.11,3.59-3.17,5.39L24,376.37c-.55.89-1.14,1.76-1.71,2.65a7.86,7.86,0,0,1-1.19,1.54A.85.85,0,0,1,21,381a65,65,0,0,1-3.42,5.86,3.38,3.38,0,0,1-.83,1C16.53,387.93,16.62,387.65,16.87,387.21Zm48.31-240,.12-.23c0,.2-.06.42-.1.66l-.94,1.29Zm-8.76-6.12h0l.5-.76C56.71,140.61,56.55,140.85,56.42,141.06Zm33.34,103.1c.14-4.87.43-9.72.43-14.58.17-4.86.06-9.72.16-14.61q.3,3.54.62,7.08c0,1.85,0,3.7-.1,5.54l-.21,5.54c0,1.84-.26,3.68-.41,5.52S89.92,242.32,89.76,244.16ZM67.05,139a12.21,12.21,0,0,1-1.29,3.17,5.09,5.09,0,0,1,1,1.52,29.22,29.22,0,0,1,1.49,4.62c.36-.39.45,0,.58.13l.34.49c-.37-1.68-.62-3.42-1-5.15A41.19,41.19,0,0,1,67.05,139Zm-7.2-9.54.09-.22.79-.11Zm-1.33.22,0,.27C58.27,130,58.32,129.86,58.52,129.64Zm.27,2.41a2.1,2.1,0,0,0,.19-.48ZM40.54,144.43l3.63-1.21-3.54,1.08Z"/><path d="M70.42,244.55l.87-.48a5,5,0,0,1-1.54,1.56A22.43,22.43,0,0,0,75.48,241c1.69-1.83,3.1-4,4.82-6.16.86-1.09,1.77-2.16,2.74-3.22a38.22,38.22,0,0,1,3.42-3.24,35.18,35.18,0,0,1,7.24-4.68c1-.27,1.87-.54,2.78-.76s1.73-.43,2.48-.61c1.47-.37,2.63-.61,2.81-.95.46-.62-3.36-1.44-7.65-.38-.94.17-2.07.43-2.74.55a29.54,29.54,0,0,0-9.77,3.41,24.81,24.81,0,0,0-2.49,1.55l-1.24.87-1.07.79a47.82,47.82,0,0,0-4.06,3.46l1.67-1.33c.58-.44,1.17-.87,1.75-1.29a32.15,32.15,0,0,0-4.52,4.37l.86-.35c-2.55,2.33-5,5-7.41,7.32l-3.24,3.07a22.63,22.63,0,0,0-2.27,2.29c-1,1.27-.49,1.82,1.29,2a14.33,14.33,0,0,0,7.2-1.76c.42-.21.8-.42,1.19-.64S70.07,244.78,70.42,244.55Z"/><path d="M81,239.31a58.87,58.87,0,0,1-6.91,6l-.68.29,1.48.36,0-.07a20.8,20.8,0,0,1,2-4.29c1-1.66,2.08-3.59,3.41-5.45l.93-1.35a2.43,2.43,0,0,0,.54-1.51c-.13-.65-1.71.12-3.25,1.81-.57.63-1.15,1.3-1.67,1.93-2.16,2.24-4.65,5.05-6.93,7.34-1.15,1.17-2.18,2.19-3,3.09s-1.36,1.6-1.37,2.2,1.48.52,2.39.67a4,4,0,0,0,2.49-.17,8.87,8.87,0,0,0,3.07-1.81c1.83-1.71,2.52-3.66,1.81-4.13.34-.32.7-.64,1-1-.1.31-.24.62-.35.93-.27-.84,1.09-2.79,1.87-4.49l1.57-2.41-2.7.4L76,239.07a4,4,0,0,1,.39-.16,41.24,41.24,0,0,1-4.1,6.92c-.62,1-1.25,1.85-1.92,2.71-.35.74.48.92,1.7.38.57-.3,1.12-.58,1.64-.89l-.79.38c3.15-2.25,5.56-5.16,8.11-7.94a2.78,2.78,0,0,0,.78-1.4C81.81,238.76,81.45,238.86,81,239.31Z"/><path d="M73.23,249.22a11.28,11.28,0,0,0-1.85,1.15l-.07.27c.36-.14.86-.34,1.32-.56C73.54,249.66,73.6,249.3,73.23,249.22Z"/><path d="M71.31,250.64l-.6.22.52-.11.06-.06Z"/><path d="M235.12,359.67a63.11,63.11,0,0,0,11.76-6.77,59.06,59.06,0,0,0,9.57-8.73,49.4,49.4,0,0,0,6.67-9.79,38.56,38.56,0,0,0,3.37-9.82,36.66,36.66,0,0,0,.5-4.69c0-.38,0-.75,0-1.14l0-1.13V317l0-.64c0-.44,0-.85-.06-1.29a48.5,48.5,0,0,0-.55-5.25c-.24-1.78-.59-3.6-1-5.46a101.52,101.52,0,0,0-3.4-11.63c-.35-1-.73-2-1.11-3s-.87-2.27-1.28-3.41c-.86-2.27-1.78-4.5-2.67-6.71-.46-1.19-1.1-2.09-1.37-2.05s-.06,1,.4,2.07l1.35,3.31,1.32,3.35c.42,1.14.84,2.28,1.29,3.41s.77,2,1.12,3a108,108,0,0,1,3.45,11.49c.42,1.84.79,3.62,1.05,5.38a47.51,47.51,0,0,1,.6,5.16c0,.42.06.84.08,1.26s.05.87,0,1.2c0,.73.07,1.48,0,2.22l0,1.13-.1,1.12c0,.78-.21,1.52-.28,2.31a36.5,36.5,0,0,1-3.1,9.65,48.21,48.21,0,0,1-6.39,9.74,59.42,59.42,0,0,1-9.34,8.78,64.39,64.39,0,0,1-11.56,6.88,9.89,9.89,0,0,0-2.17,1.18C233.25,360.38,234.07,360.12,235.12,359.67Z"/><path d="M264.55,74.85c-.42,1-.21,1.11.49.19a21.32,21.32,0,0,0,2-3.25c.39-.85.16-1-.49-.19A14.33,14.33,0,0,0,264.55,74.85Z"/><path d="M274.87,91.09l-1.44,4.11c-.23.68-.46,1.34-.69,2s-.37,1.35-.55,2c-.35,1.32-.68,2.62-1,3.89a30,30,0,0,0-.76,3.72,12.76,12.76,0,0,1-.75,2.59c.45-.21.48,1,.08,3a142.24,142.24,0,0,0-2,30.51,177.09,177.09,0,0,0,4.2,31,200.06,200.06,0,0,0,9.49,30.34c1,2.46,2,4.88,3.1,7.24s2.22,4.71,3.3,6.75l1.89,3.43,2.11,3.78q2.18,3.86,4.41,8a4.67,4.67,0,0,1,1.84,1.48c2.49,2.68,6.06,9.16,8.54,16.47.57,1.86,1.16,3.7,1.66,5.57,1.7,5.59,3.16,11.21,4.34,16.8.61,2.86,1.23,5.93,1.69,9s.85,6.16,1.09,9.32a105.69,105.69,0,0,1-.21,19.3,90.94,90.94,0,0,1-1.58,9.76c-.16.81-.38,1.62-.57,2.43s-.4,1.6-.66,2.44c-.51,1.66-.94,3.32-1.57,4.92a58,58,0,0,1-2.94,8.52c-.66,1.45-1.33,2.95-2.16,4.41l-1.22,2.22c-.46.71-.91,1.44-1.38,2.18a73.71,73.71,0,0,1-10.44,13.54A80.92,80.92,0,0,1,280,372.47a90.08,90.08,0,0,1-29.47,13c1.36-.17,2.22-.19,2.28,0-.25.52-5,2.07-10.89,2.65-3,.31-5.87.55-8.81.59a98.45,98.45,0,0,0,12.69-.91,108,108,0,0,0,12.59-2.54c1.2-.35,2.31-.66,3.34-.93a93.53,93.53,0,0,0,26.42-13.38A86,86,0,0,0,301,359.27a79.32,79.32,0,0,0,10.36-14.71,75.63,75.63,0,0,0,6.81-17.17,88.73,88.73,0,0,0,2.82-17.3,112.26,112.26,0,0,0-2.83-32.37c-.28-1.26-.6-2.49-.91-3.73s-.61-2.32-.93-3.47c-.62-2.28-1.34-4.56-2-6.84-1.48-4.54-3.09-9.07-4.91-13.51a215.55,215.55,0,0,0-12.28-24.81L294,220l-1.43-2.51-.6-1.05-.56-1c-1.54-2.87-3.15-6.1-4.6-9.36a195.12,195.12,0,0,1-13.35-41.3,9.79,9.79,0,0,1-.28-3.24c.15-.57.47-.49.71.54a156.84,156.84,0,0,0,8.55,25.2c1.75,4,3.57,7.89,5.57,11.67s4,7.53,6.2,11c1.08,1.71,2.17,3.45,3.12,4.7l4,6c.69,1,1.45,2.19,2.15,3.29s1.47,2.36,2.21,3.54c1.49,2.41,3,5,4.45,7.65a158.4,158.4,0,0,1,8.18,17.22,163,163,0,0,1,6.31,18.9A125.39,125.39,0,0,1,329,298.37a100.87,100.87,0,0,1-3,29.88,84.48,84.48,0,0,1-5.55,15.34,86.08,86.08,0,0,1-8.22,13.63,80.66,80.66,0,0,1-10.17,11.46,85.7,85.7,0,0,1-11.47,9.17,97.52,97.52,0,0,1-25.11,12.06,111.35,111.35,0,0,1-13.11,3.22,102.92,102.92,0,0,1-13.3,1.41,90.44,90.44,0,0,1-26.6-2.71,61.9,61.9,0,0,1-13.15-5.08c-.52-.26-1-.51-1.54-.78l-1.48-.88c-1-.6-2-1.17-2.9-1.79-1.83-1.32-3.7-2.56-5.37-4a69.61,69.61,0,0,1-9.43-9.55,79.76,79.76,0,0,1-7.29-10.47,91.63,91.63,0,0,1-5.47-11l-1.09-2.82c-.38-.93-.71-1.87-1-2.83s-.63-1.87-.91-2.86l-.81-3c-.13-.51-.28-1-.39-1.5l-.3-1.51-.59-3c-.22-2-.63-4-.75-5.95l-.28-2.94c0-1-.09-2-.16-2.92-.2-1.95-.1-3.85-.23-5.79-.15-7.65,0-15.17,0-22.55,0-3.63,0-7.25,0-10.89,0-1.78,0-3.56-.07-5.29s0-3.47-.09-5.17c0-.43,0-.86,0-1.28l-.05-1.19c0-.79-.07-1.58-.15-2.36-.09-1.57-.21-3.12-.41-4.64a66.1,66.1,0,0,0-1.48-8.71c-.19-.65-.35-1.34-.55-2s-.37-1.27-.6-1.85a31.83,31.83,0,0,0-1.42-3.23,12.14,12.14,0,0,0-.79-1.34,9.52,9.52,0,0,0-.82-1.16c-.14-.17-.28-.35-.41-.54l-.46-.44c-.15-.14-.27-.35-.44-.48s-.33-.25-.49-.39a6.43,6.43,0,0,0-.83-.68c-.25-.17-.49-.3-.68-.41a1.87,1.87,0,0,1-.41-.25.34.34,0,0,1-.09-.12A1.26,1.26,0,0,1,149,238l0-.05s-.07,0-.14-.05-.12,0-.21,0a1.28,1.28,0,0,1-.28.1,4.72,4.72,0,0,0-1.46,1.86,16.53,16.53,0,0,0-1.46,5.15,23.4,23.4,0,0,0-.23,3.05c0,.52,0,1,0,1.57l.09,1.84c.19,2.49.39,5.18.54,8.1a45.39,45.39,0,0,1-.53,9.53c-.18.87-.35,1.73-.62,2.62l-.38,1.32-.49,1.33a27.91,27.91,0,0,1-1.2,2.62c-.57.92-1.14,1.84-1.78,2.71A20.8,20.8,0,0,1,130.25,287c-.51.15-1,.31-1.54.42l-1.57.27a19.7,19.7,0,0,1-3.16.25,26.38,26.38,0,0,1-3.2-.16,32.25,32.25,0,0,1-3.2-.62,30.42,30.42,0,0,1-3.15-1.14l-1.54-.77-.76-.41-.73-.49a18.45,18.45,0,0,1-2.81-2.21c-.44-.42-.87-.84-1.29-1.28s-.78-.94-1.16-1.42-.76-1-1.08-1.49-.61-1.05-.9-1.59a22.93,22.93,0,0,1-1.4-3.07l-.52-1.45-.42-1.42-.18-.63c-.18-.67-.35-1.35-.48-2-.28-1.32-.48-2.54-.67-3.75-.34-2.37-.53-4.55-.76-6.55s-.42-3.82-.71-5.39a11,11,0,0,0-1.16-3.61c-.24-.4-.51-.55-.72-.55,0,0-.09,0,0,0l.4-.09c.26-.06.53-.13.79-.21s.48-.13.69-.18l.61-.18,1.09-.38c.3-.11.62-.25.89-.38a6,6,0,0,0,1.46-.82c-.1.08,0,0-.27.27l-.11.13,0,.07h0l1.09-1.41h0v0a1.4,1.4,0,0,0,.13-.18c.16-.3-.13.17-.16,1.07a8.84,8.84,0,0,0,.37,2.93,10.12,10.12,0,0,0,.76,1.9,4.72,4.72,0,0,0,.34.59c0,.06,0,0-.14-.22a10.28,10.28,0,0,1-.76-1.65c.12.37.29.7.41,1s0,.14.06.25-.08.12-.22.07-.13-.07-.26-.08a1.4,1.4,0,0,1-.5,0,6.79,6.79,0,0,0-1,.08,6.21,6.21,0,0,0-2.93.68,19.09,19.09,0,0,1-3.13,1.36l-.73-.63-.28.24a3.29,3.29,0,0,1-2.55,1.37l-1-.48a6.64,6.64,0,0,1-2.71-3,1.81,1.81,0,0,1-1-.79c-1.33.43-2.64.43-3.44-.68-.57.4-1,.15-.86-.55a2.79,2.79,0,0,1,.28-.79h0c-.41.18-.53.24-1,.51-.39.48-.64.75-.64.75-1,1.28-1,1.28-2,2.35A8.37,8.37,0,0,1,78.63,252a20.49,20.49,0,0,1-2.84.22,2.1,2.1,0,0,1-1.12-.36,1.1,1.1,0,0,1-.06-.26,14.51,14.51,0,0,1-1.69.84,7.82,7.82,0,0,1-.88.21,2,2,0,0,0-1-.09,2.37,2.37,0,0,1-.48-.1c0-.56,0-.56-.16-.62a.65.65,0,0,1,0-.3l.79-.82c1.38-.3,2-.5,2.32-.58l.32-.09-.16-.38.85-.09h-.68l.92-.49-1.15.53c.83-.67,1.21-1,1.47-1.26a7.21,7.21,0,0,0,.65-.69,5.56,5.56,0,0,0,1-1.26.79.79,0,0,1-.29,0c1.56-1.6,1.53-1.61,3-3.25.21-.12.39-.21.56-.29a2.1,2.1,0,0,1,.47-.92l.73-.9.09-.23h0l.41-.91a1.35,1.35,0,0,1,.08-.19h0a29.57,29.57,0,0,1,2.15-4,21.31,21.31,0,0,1,1.67-1.45l-.59.34c-.39.21-.39-.28-.58-.14a40.74,40.74,0,0,0-6,6,53.94,53.94,0,0,1-5.78,5.83,3.39,3.39,0,0,1-2,1.16c-.47,0-.24-.6.45-1.27,1.47-2.06,3.06-4.39,4.83-7,.88-1.31,1.81-2.74,2.92-4.13.56-.7,1.16-1.39,1.81-2.07.31-.34.65-.68,1-1s.65-.63,1.09-1a27.47,27.47,0,0,1,11.36-6.14,25.39,25.39,0,0,1,6.71-.87,21.42,21.42,0,0,1,7.09,1.2,19.42,19.42,0,0,1,6.78,3.67,18.83,18.83,0,0,1,2.49,2.48,21.05,21.05,0,0,1,2,2.77c-.08-.2-.17-.41-.25-.62a20.69,20.69,0,0,1,1.48,3.09l.13.33a19.84,19.84,0,0,0-.73-2.53c-.27-.55-.58-1.1-.9-1.66a24.62,24.62,0,0,0-2.54-3.08,16.36,16.36,0,0,0-1.59-1.45,16,16,0,0,0-1.8-1.32,22.22,22.22,0,0,0-8.23-3.21,26.36,26.36,0,0,0-8-.12,30.06,30.06,0,0,0-7.2,1.91,38.36,38.36,0,0,0-6.74,3.51c-.52.35-1,.72-1.55,1.09l-1.35,1c-.87.67-1.73,1.38-2.53,2.11s-1.45,1.26-1.59,1,.38-1.13,1.15-1.93c.62-.7,1.24-1.39,1.95-2.09l1.07-1c.42-.39.86-.78,1.3-1.15a31.67,31.67,0,0,1,15.94-7.1,27.57,27.57,0,0,1,3.89-.23,25.69,25.69,0,0,1,4.06.35,24.14,24.14,0,0,1,4.11,1.07,21.77,21.77,0,0,1,7.18,4.22,20.27,20.27,0,0,1,2.47,2.61,22.34,22.34,0,0,1,1.85,2.74,19.63,19.63,0,0,1,2.14,5.44,17.23,17.23,0,0,1,.91,7.35v.1c.12-.48.19-1,.28-1.52,0,.46,0,.86,0,1.23s-.08.68-.13,1c-.09.65-.24,1.2-.32,1.92l.51-.56a44.39,44.39,0,0,1-.74,5.29c-.3,1.61-.63,3.1-1,4.47-.65,2.74-1.31,5.14-1.83,7.12l-.09.46c0,.84.12,1.61.2,2.36l.06.53,0,.16c0,.22,0,.47,0,.68a5.21,5.21,0,0,0,.08.62,2.4,2.4,0,0,0,.1.49,2.76,2.76,0,0,0,.55,1.39,4.85,4.85,0,0,0,1.54,1.22,3.79,3.79,0,0,1-1.8-1.77,2.83,2.83,0,0,1-.19-1c0-.26-.08-.53-.09-.85a3.88,3.88,0,0,1,0-.49c0-.14,0-.41,0-.38v.41a3.91,3.91,0,0,0,0,.51,3.16,3.16,0,0,0,.06.47,2.44,2.44,0,0,0,.08.37,2.7,2.7,0,0,0,.3,1,4.17,4.17,0,0,0,2.14,1.69,5.57,5.57,0,0,0,3.47.15,4.73,4.73,0,0,0,2.79-1.8c1.21-1.66,1.85-4.2,1.92-7.3a44.48,44.48,0,0,0-.21-4.92c-.17-1.73-.38-3.54-.61-5.43-.12-.91-.23-2-.31-3s-.11-2.11-.14-3.17a42.09,42.09,0,0,1,.38-6.48,28.51,28.51,0,0,1,1.73-6.76,20.75,20.75,0,0,1,4.23-6.67c.5-.5,1-1,1.57-1.45a21.52,21.52,0,0,1,1.75-1.26,16.82,16.82,0,0,1,4-1.89,18.79,18.79,0,0,1,8.08-.73,22.38,22.38,0,0,1,6.79,2,27.85,27.85,0,0,1,12.19,11.21,18.74,18.74,0,0,1,1.1,2c.32.64.65,1.28.92,1.9.48,1.25,1,2.42,1.3,3.53a57.65,57.65,0,0,1,3.31,23.58c-.05,1-.12,1.92-.23,2.88s-.18,1.92-.31,2.81c-.28,1.82-.53,3.65-.86,5.43-.65,3.6-1.43,7.09-2.2,10.55-1.58,6.92-3.29,13.66-4.22,20.42s-1.15,13.55.28,19.91a37.5,37.5,0,0,0,3.17,9l1.19,2.16c.39.72.8,1.43,1.25,2.12l1.3,2.08,1.41,2,.71,1,.77.95,1.51,1.89c1.1,1.18,2.11,2.43,3.29,3.51a52.43,52.43,0,0,0,7.21,6,40.11,40.11,0,0,0,16.11,6.68,20.31,20.31,0,0,0,2,.26l2,.12a19.25,19.25,0,0,0,2,0c.68,0,1.27,0,2-.09s1.42-.11,2.12-.19l2.12-.29c1.41-.27,2.81-.53,4.2-.91a30.26,30.26,0,0,1,4.75-1c.26.13-1.2.85-3.52,1.49a50.5,50.5,0,0,1-6.1,1.3l-1.54.21c-.52.06-1,.09-1.55.13-1.07.12-2,.1-3,.13a14.42,14.42,0,0,1-1.47,0l-1.48-.1c-.5,0-1-.05-1.5-.12l-1.5-.24c-.5-.09-1-.15-1.51-.27l-1.49-.39c-.5-.13-1-.25-1.51-.4l-1.49-.52c-8-2.84-15.55-8.61-21.45-15.94a62.88,62.88,0,0,1-7.65-12A39,39,0,0,1,169,321.56a63,63,0,0,1-.19-7.29c0-1.21.14-2.45.23-3.68s.23-2.45.4-3.69c.63-4.93,1.63-9.86,2.74-14.83-1,4.15-1.82,8.28-2.5,12.41a82.06,82.06,0,0,0-1.05,12.37,50.36,50.36,0,0,0,1.45,12,45.87,45.87,0,0,0,4.72,11,62.94,62.94,0,0,0,7,9.89,54.86,54.86,0,0,0,8.61,8.17,48.61,48.61,0,0,0,9.87,5.82,35.87,35.87,0,0,0,10.54,2.79l1.35.15,1.35,0c.91,0,1.76.07,2.73,0s1.89-.07,2.85-.18l1.41-.12,1.43-.22a74.64,74.64,0,0,0,10.94-2.56,65.12,65.12,0,0,0,23.44-14.21,48.53,48.53,0,0,0,13.06-20,35.38,35.38,0,0,0,1.72-10.23l0-1.25c0-.41,0-.91,0-1.36s0-.92-.05-1.38,0-.92-.08-1.4c-.12-1.86-.4-3.75-.71-5.67a85.2,85.2,0,0,0-3-11.89q-1-3.08-2.28-6.22c-.45-1.11-.91-2.22-1.36-3.34s-.94-2.32-1.44-3.46a227,227,0,0,0-10.88-22c-2-3.56-4.12-7.19-6.42-11.21l-1.75-3.08-1.8-3.23c-.54-1-1.39-2.58-2-3.82s-1.28-2.55-1.86-3.8c-2.33-5-4.36-9.88-6.26-14.86s-3.53-10-5.05-15.2-2.79-10.44-3.94-15.83-2-10.95-2.7-16.63a172.42,172.42,0,0,1,.85-48,148.83,148.83,0,0,1,5.72-23.36c1.32-3.78,2.8-7.47,4.22-11.16,1.64-3.59,3.31-7.15,5.05-10.64a159,159,0,0,1,26.81-36.8,169.62,169.62,0,0,1,16.51-14.91c2.95-2.23,5.84-4.51,8.94-6.54s6.12-4.11,9.29-6a88.87,88.87,0,0,1,9.4-5,21,21,0,0,1,5.2-1.92c1.16,0-3.59,2.76-10.14,6.87-3.24,2-6.35,4.13-9.44,6.35l-4.59,3.4c-1.52,1.15-3,2.4-4.46,3.6l-2.22,1.83c-.73.62-1.44,1.27-2.16,1.91l-4.28,3.88-4.14,4.08L268,43.21c-.67.7-1.32,1.43-2,2.15-1.32,1.44-2.62,2.89-3.92,4.36s-2.5,3-3.75,4.55c-2.52,3-4.8,6.29-7.11,9.54-1.18,1.6-2.22,3.32-3.29,5s-2.14,3.4-3.19,5.12l-2.9,5.34c-1,1.79-2,3.55-2.77,5.44l-2.54,5.59c-.41.94-.87,1.85-1.23,2.82L234.25,96l-2.15,5.82c-.71,1.94-1.24,4-1.86,5.94a155.32,155.32,0,0,0-4.93,24.32,176,176,0,0,0,1.09,48.67,206.39,206.39,0,0,0,13,46.18c1.55,3.77,3.16,7.46,5.12,11.38l.79,1.54.71,1.34,1.35,2.51,2.62,4.8c1.73,3.1,3.35,6,4.87,8.86s3,5.65,4.38,8.47c2.79,5.62,5.25,11.38,7.61,17.38l1.69,4.52c.52,1.4,1,2.81,1.47,4.2.93,2.79,1.71,5.56,2.37,8.29a67.65,67.65,0,0,1,2,16l0,1.94-.11,1.8c0,.61-.13,1.2-.19,1.8a15.46,15.46,0,0,1-.26,1.81,37.73,37.73,0,0,1-2,7.27c-3.12,8.35-9.24,16.5-17.39,22.86.16,0,.3,0,.36.09.21.36-.37,1.31-1.6,2.55,9.86-6.89,17.45-16.15,21.19-25.86a42.32,42.32,0,0,0,1.82-10.43c.11-1.66.06-3.61,0-5.42s-.3-3.72-.55-5.59a81.8,81.8,0,0,0-2.48-11.4c-.56-1.94-1.16-3.87-1.85-5.83-.32-1-.7-2-1-2.94l-1.17-3.05a264.9,264.9,0,0,0-10.93-24.8c-2.05-4.09-4.26-8.28-6.64-12.83-1.18-2.29-2.41-4.66-3.66-7.2l-1-2-1-2.24c-.66-1.45-1.27-2.85-1.85-4.27a175.63,175.63,0,0,1-7.51-22.74,186.48,186.48,0,0,1-4.36-22.51,180.31,180.31,0,0,1-.27-44.95A152.33,152.33,0,0,1,236,114c.3-1.17.57-2.34.89-3.5l1-3.47c.62-2.33,1.51-4.57,2.29-6.83l1.22-3.39.61-1.69.71-1.64,2.89-6.55A157.59,157.59,0,0,1,260,62.56a174.54,174.54,0,0,1,18-21.21,13.66,13.66,0,0,1,2.7-2.31c.5-.25,0,.38-1,1.44a170.35,170.35,0,0,0-23.32,30.67A153.09,153.09,0,0,0,240.51,108a19.22,19.22,0,0,1,2.77-4.35c.81-.92,1.46-1.28,1.88-1,.9.64.57,3.92-.08,8.81l1.28-4.27,1.51-4.19,1.52-4.17c.47-1.41,1.15-2.72,1.72-4.08,1.5-3.34,3-5.81,3.41-5.51s-.32,3.07-1.69,6.21c-1.25,2.7-2.19,5.53-3.2,8.34-.49,1.41-1,2.81-1.48,4.23l-1.26,4.3a148.22,148.22,0,0,0-3.76,17.53,163.52,163.52,0,0,0-1.64,17.8,168.07,168.07,0,0,0,.33,17.82,198.33,198.33,0,0,0,16.38,61.2c.74,1.63,1.51,3.24,2.34,4.88l1.23,2.38,1.22,2.28,4.83,8.91c-1-3.63-1.4-6.56-1-8.24a0,0,0,0,1,0,0c-1-1.89-1.95-3.77-2.92-5.64s-1.92-4-2.78-5.92a187.56,187.56,0,0,1-10.63-27.66,183.22,183.22,0,0,1-6.19-29.29,149.58,149.58,0,0,1,4.39-60.61A155.09,155.09,0,0,1,277.8,54.08a194.85,194.85,0,0,1,21-21.84,211.26,211.26,0,0,1,23.84-18.41,12.52,12.52,0,0,1,2.51-1.46,9.81,9.81,0,0,1-2.05,1.57c-20,13.52-38.1,30.29-52.24,50.37l.06-.08c.69-.73,1-.76.47.2a27.45,27.45,0,0,1-2.2,3.15c-.74.88-.87.67-.47-.18A149,149,0,0,0,252.9,97.91a155.9,155.9,0,0,0-5.1,16.51,146.76,146.76,0,0,0-3,17,155.47,155.47,0,0,0,.07,34,179.77,179.77,0,0,0,6.76,32.83c-5.33-19.9-7.72-40.79-5.72-61.51a137.83,137.83,0,0,1,6.39-30.47,140.78,140.78,0,0,1,12.81-28.17l1.48-3,1.64-3,1.66-3c.55-1,1.11-2,1.74-2.93a12.77,12.77,0,0,1,2.16-2.59c.34-.19,0,.66-.72,1.72s-1.38,2.1-2,3.21a65.41,65.41,0,0,1,6.11-7.63c1.76-1.74,3-2.62,3.36-2.27s-.44,2.11-1.74,4.47c-.62,1.2-1.4,2.57-2.29,4-.45.74-.93,1.51-1.44,2.29s-1,1.63-1.5,2.46c-11.06,18-18.64,38.06-21.16,58.9-.21,2.26-.35,4.52-.48,6.78.06,2.3.08,4.57.26,6.84a143.36,143.36,0,0,1,3.24-24c.91-3.93,1.9-7.84,3.18-11.66l1.94-5.72c.3-1,.69-1.89,1.08-2.82l1.14-2.79c1.43-3.76,3.3-7.33,5-11,.89-1.8,1.92-3.53,2.87-5.3l1.45-2.64c.5-.87,1.05-1.71,1.57-2.57l3.18-5.11,3.4-5c1.1-1.68,2.35-3.25,3.54-4.87s2.37-3.23,3.67-4.77c1.7-2.16,3.35-3.84,3.63-3.68s-.85,2.09-2.52,4.27c-1.07,1.4-2.05,2.86-3,4.32l-2.93,4.37L280,70l-1.37,2.24-1.26,2.3-2.51,4.6c-.8,1.55-1.52,3.14-2.28,4.7-1.59,3.1-2.84,6.35-4.17,9.55-.71,1.58-1.23,3.24-1.8,4.87l-1.7,4.9-1.38,5c-.44,1.67-1,3.3-1.31,5a135.75,135.75,0,0,0-3.09,20.34c-2.05,27.4,3.53,55.33,13.9,80.87,1.09,2,2.2,4,3.35,5.88s2.26,3.58,3.59,5.59c2.59,3.88,5.33,7.91,8,12.15a184.69,184.69,0,0,1,14.59,27.45c-.75-2.53-1.59-5.09-2.48-7.63A178.43,178.43,0,0,0,289.94,235c-1.84-3.52-3.69-6.87-5.45-10.06-.86-1.58-1.78-3.23-2.44-4.5s-1.48-2.93-2.2-4.44a210.72,210.72,0,0,1-13.74-38.24,155.86,155.86,0,0,1-4.94-40.28,124.63,124.63,0,0,1,2.05-20.62c.36-1.71.68-3.44,1.09-5.16s.91-3.42,1.36-5.14l.7-2.59.86-2.55L269,96.29a5.72,5.72,0,0,1,1.42-2.5c.26-.05.06.94-.53,2.29-.55,1.68-1.11,3.34-1.66,5s-1.12,3.29-1.5,5c-.84,3.34-1.75,6.62-2.31,9.94a125.27,125.27,0,0,0-2,19.88,161.88,161.88,0,0,0,4.48,39.8,186.56,186.56,0,0,0,10.34,31.58c1.07,2.47,2.18,4.9,3.34,7.26s2.38,4.68,3.54,6.64c1.36,2.34,2.8,4.75,4.28,7.21s3,5,4.49,7.65q-2.09-4.14-4.14-8l-3.94-7.4c-.5-.95-1.06-2.08-1.59-3.2s-1.08-2.29-1.61-3.46c-1.06-2.35-2.06-4.75-3-7.17a205.66,205.66,0,0,1-9.41-29.86A162.2,162.2,0,0,1,265,146c0-1.29-.11-2.6-.09-3.9v-3.91c.11-2.6.18-5.21.42-7.81a117.58,117.58,0,0,1,2.24-15.56,16.26,16.26,0,0,1,1.48-4.63,2,2,0,0,1,0-1.1c.21-1.32.45-2.67.71-4.05l1.07-4.12c.38-1.4.75-2.82,1.18-4.24s1-2.82,1.5-4.25A9.74,9.74,0,0,1,275,89.59C275.34,89.12,275.25,89.86,274.87,91.09ZM104.42,230.6l-.35-.13c.38.07.8.2,1.25.33l.21.13a12.08,12.08,0,0,1,1.37,1l-.75-.45C105.7,231.19,105.08,230.89,104.42,230.6Zm-14.6,9.75h0l-.86.27ZM169,324.08a65.05,65.05,0,0,1,.2-17.62c.78-5.92,2.1-11.81,3.42-17.78s2.66-12,3.51-18.3a68.57,68.57,0,0,0,0-19.82,67.43,67.43,0,0,1,.35,19.37c-1.29,9.55-3.7,18.55-5.57,27.48a110.87,110.87,0,0,0-2.08,13.4A57.09,57.09,0,0,0,169,324.08ZM89.77,231.79a15.08,15.08,0,0,1,5.07-1.07,14.44,14.44,0,0,1,3.72-1.29,17.6,17.6,0,0,1,5.73-.27,15.51,15.51,0,0,1,5.76,1.85c-.37-.48.49,0,.93.25a10.12,10.12,0,0,1,1.3.81,15.93,15.93,0,0,0-5.9-3,18.61,18.61,0,0,0-6.38-.54A26,26,0,0,0,89.77,231.79Zm-13.4,17.45-.3.13a6.27,6.27,0,0,1-.22-.59Zm.44.93.35-.26C77.29,250.08,77.12,250.15,76.81,250.17Zm3-2.59a4.16,4.16,0,0,0-.58.31Zm15.74,3.83c-.74-.66-1.44-1.34-2.1-2,.62.7,1.28,1.39,2,2.07Z"/><path d="M149.87,368.63l0,.26a.5.5,0,0,1-.43-.25c.63,2.36,3.21,3.24,5.43,3.08a1.1,1.1,0,0,0,1.54-.06,1.08,1.08,0,0,0-.05-1.55,1.39,1.39,0,0,1-.16-.41,8.55,8.55,0,0,0-1.17-3.5l.21.84a2.78,2.78,0,0,0-.63-.88l-.11.34A2.53,2.53,0,1,0,149.7,368Z"/><path d="M149.42,372.71c-.3-.73-.56-1.47-.82-2.22l0-.24-.53.75,0,0a4.47,4.47,0,0,1,2.85.54l.35.1a.8.8,0,0,0,.55-.2.81.81,0,0,0,.05-1.15l-.35-.37c-.65-1.18-2.17-2.39-3.67-1.57-.35.19-.52.64-.76,1a1.11,1.11,0,0,0,.09,1.57,1.12,1.12,0,0,0,1.58-.09l.17.3-.33,0c.46-.32,1-.07,1.49,0l.58.27.6-1.35L151,370a1.2,1.2,0,0,0,0,.17,10,10,0,0,1-2.13-.34l-1-.11a.67.67,0,0,0-.53.76l.11.48,0-.25c.49.79,1.1,1.51,1.58,2.31a.28.28,0,1,0,.49-.26Z"/><path d="M146.86,371a.63.63,0,0,0-.25-.45l-.14,0c0,.09,0,.23.07.36S146.75,371.14,146.86,371Z"/><path d="M146.47,370.56l0-.16a1,1,0,0,0,0,.16h.05Z"/><path d="M171.58,386.69a39.88,39.88,0,0,0,2.88,3.07s.11,0,.16-.07.08-.14,0-.17a42,42,0,0,1-2.87-3.08s-.11,0-.16.06S171.55,386.65,171.58,386.69Z"/><path d="M174.35,400a.27.27,0,0,0-.13.18c0,.06,0,.1.09.07a.31.31,0,0,0,.14-.18C174.46,400,174.41,400,174.35,400Z"/><path d="M169.85,405.36a1.82,1.82,0,0,0-.75.07.06.06,0,0,1-.07-.06.4.4,0,0,1-.28.21,15.12,15.12,0,0,1-4.82-.84,1.38,1.38,0,0,1-.26.23c-.3.22-.57.25-.7.07l-.07-.17c-.38-.56-.79-1.08-1.15-1.65a.81.81,0,0,1-.54,0,13.87,13.87,0,0,1-2.06-.08.88.88,0,0,1-.16.3c-.2.24-.45.34-.56.24l-.19-.13.37.6a.15.15,0,0,1,0,.1,3.82,3.82,0,0,0,.6.43,15.15,15.15,0,0,0,6.65,1.63c.06,0,.1,0,.07.09s-.09.15-.15.16c-2,.44-4.08,1.37-5.85,1.29A31.17,31.17,0,0,1,154,407c-1.45-1.13-3.26-1.59-5.09-2.31-.61-.24-1.2-.51-1.77-.79-.09-.06-.09,0-.25-.15l-.38-.24-.76-.5-1.51-1c-2-1.37-3.9-2.79-5.85-4.26a3.32,3.32,0,0,1-1.2-4.54,3.35,3.35,0,0,1,2.56-1.63l-.33-.29-.43-.61a2.91,2.91,0,0,1-.47-2l.08-.91c.37-1.55.27-3.16.78-4.7l.44-.37v-.21a2.85,2.85,0,0,1,.31-1.72l.46-.52a7,7,0,0,1,1.87-1.38,2.36,2.36,0,0,1,.62-.6,3.4,3.4,0,0,1,1.24-1.92.47.47,0,0,1,.46-.5.48.48,0,0,1,.26.07h0a3.4,3.4,0,0,0,.07-.49c-.1-.16-.15-.26-.15-.26l-.53-.71a2.33,2.33,0,0,1-.08-.8c.46-1.21.46-1.21.84-1.59l.15-.08c-.13-.32-.14-.35-.17-.44a1.17,1.17,0,0,1,0-.25c.17-.24.17-.24.19-.35a1,1,0,0,1,.12-.18c.33-.15.33-.15.39-.22a.85.85,0,0,1,.17-.06l.34.07-.12.85.23-.15-.13.33.14-.28.06.28,0-.37c.33.41.33.41.5.52a.82.82,0,0,0,.35.22,1.1,1.1,0,0,1,.09-.14c.35.42.35.42.69.85a1.57,1.57,0,0,1,0,.24.25.25,0,0,1,.27.07l.19.22h.07v0l.28,0h.06l1.19.12a3.51,3.51,0,0,1,.27.4,1.23,1.23,0,0,0,0-.19c0-.14.23-.31.2-.35A16.74,16.74,0,0,0,148.5,370a.4.4,0,0,1-.15-.56.41.41,0,0,1,.56-.15,9,9,0,0,1,6.55,4.95c.45.54.91,1.05,1.38,1.57a1,1,0,0,0,0-.17l.29.49,0,0v-.64l-.13-.29a26.3,26.3,0,0,1-2.71-4,21.52,21.52,0,0,1-1.16-2.3.36.36,0,1,1,.52-.51c2.28,1.32,4.43,3.4,5,6a2.1,2.1,0,0,1,.75,1.17l0,0,0-.52c.22.31.16.69.33,1l.25-.53c1.17,1.36,2.78,2.4,3.56,4.05a.91.91,0,0,1,.11.16,8.82,8.82,0,0,1,2,.46l-.23-.41a1.39,1.39,0,0,1,1,.28,3.12,3.12,0,0,1,.38,3.37,49.4,49.4,0,0,0,4.52,2.64c.09,0,.08.18,0,.32s-.24.23-.33.2a16.43,16.43,0,0,1-3.69-1.38,15.3,15.3,0,0,0,2.14,2.46l.37.19a.77.77,0,0,1,.27.32,13,13,0,0,0,3.43,2.26,31.25,31.25,0,0,0,3.51,1.1,12.29,12.29,0,0,1,4.77,1.8c.21.09.18.46-.07.82s-.61.58-.82.48c-3.56-1.06-7.24-1.86-10-4.24l-.87-.77-.1.14a1.72,1.72,0,0,1-.46.44,10.91,10.91,0,0,1,.86,1,6.52,6.52,0,0,1,3.41,1.71,8.9,8.9,0,0,1,1.28,2.47c1,.43,2,.79,3,1.26.05,0,.06.07,0,.14a.22.22,0,0,1-.16.13,13.88,13.88,0,0,1-2.56-.33,2.5,2.5,0,0,1-1.28,1.55l.38.33c.08.08.05.25-.07.4s-.3.24-.37.18l-1.6-1.35c-.79-.34-1.56-.7-2.32-1.08a3.41,3.41,0,0,1-.39.9h0l.32.22a13.82,13.82,0,0,1,6.62,3.22s0,.11,0,.18-.13.11-.16.08a11.87,11.87,0,0,0-1.75-1.33h0a.29.29,0,0,1-.13.18c-.06,0-.11,0-.1-.06a.26.26,0,0,1,.14-.18,14.65,14.65,0,0,0-3.87-1.62,17.1,17.1,0,0,1,2.92,2.3l.53,0s0,.08,0,.16-.12.12-.16.11H174c.16.17.07.58-.23,1s-.69.54-.87.38a18.48,18.48,0,0,1-1.64-1.07l-.22-.06-.31,0c.68.77,1.34,1.57,2,2.38.07.05.05.2-.06.33s-.24.21-.31.16a28.23,28.23,0,0,1-5.11-2.14l-2.75.64.17.16c1.54,1.19,4.12.57,5.87,1.39.05,0,0,.09,0,.16s-.12.12-.16.09a16.71,16.71,0,0,0-3-.46,15.31,15.31,0,0,0-2.55-.28c1.26.73,2.9.86,4.28,1.42.07,0,.09.08.07.17a.3.3,0,0,1,.1-.07,2.72,2.72,0,0,1,.78-.08c.06,0,.07.06,0,.14A.27.27,0,0,1,169.85,405.36Zm-18.28-26.78v-.13c0,.09,0,.19.09.29l-.15.75Zm-4.95-.65h0l.08-.43C146.66,377.67,146.64,377.81,146.62,377.93Zm21,8.75a4.52,4.52,0,0,1-1.41-1.86l.5.25C167.07,385.57,167.37,386.11,167.66,386.68Zm-16.79-11.93a6,6,0,0,1,0,1.59,2.32,2.32,0,0,1,.69.42,18.17,18.17,0,0,1,1.52,1.52c.08-.25.2-.12.28-.09l.24.11c-.48-.59-1-1.2-1.43-1.83A15.6,15.6,0,0,1,150.87,374.75Zm-4.68-2.46v-.11l.33-.2Zm-.55.35.05.11C145.58,372.83,145.58,372.77,145.64,372.64Zm.5,1a.63.63,0,0,0,0-.24Zm-6,8.83,1.41-1.19-1.39,1.11Z"/></g></g></svg>