<svg xmlns="http://www.w3.org/2000/svg" viewBox="0 0 425.09 492.69"><g id="Layer_2" data-name="Layer 2"><g id="Layer_1-2" data-name="Layer 1"><path d="M7.3,104.54l.59,0a1.28,1.28,0,0,1-.86.8,10.52,10.52,0,0,0,6.84-3.4,16.18,16.18,0,0,0,3.92-6.41A2.47,2.47,0,0,0,19,92.38a2.39,2.39,0,0,0-3.33-.65,3.86,3.86,0,0,1-1,.14,22.13,22.13,0,0,0-8.7.8l2-.07a7.19,7.19,0,0,0-2.48.94l.66.35C2.89,94.26.05,97.05,0,100s2.63,5,5.84,4.65Z"/><path d="M15.68,107.12c-1.73.31-3.47.55-5.24.79l-.51-.15,1.28,1.41-.05-.11c.13-2.09,1.61-4,3.09-5.68l.47-.66a1.45,1.45,0,0,0,0-1.19,1.77,1.77,0,0,0-2.41-.66c-.36.18-.71.39-1.06.58-3,.87-6.74,3.62-5.93,7,.2.79,1.06,1.32,1.69,1.93a2.51,2.51,0,0,0,3.44.44,2.38,2.38,0,0,0,.82-3.29l.74-.24c-.05.23-.11.46-.17.7-.36-1.1.52-2.07.93-3.11l1-1.11L11.28,102l-.37.76c.12.06.32.14.32.15a26.6,26.6,0,0,1-2.18,4.29l-.9,2a1.3,1.3,0,0,0,1.3,1.39l1.09,0-.55,0c2-.71,3.92-1.67,5.9-2.31a.67.67,0,0,0,.5-.73A.54.54,0,0,0,15.68,107.12Z"/><path d="M10.37,111.68a1.58,1.58,0,0,0-1.13.35v.3h.82C10.65,112.33,10.65,112,10.37,111.68Z"/><path d="M9.24,112.33H8.89l.32.11c0-.05,0-.05,0-.05Z"/><path d="M161.16,62.49c1.13.11,2.26.18,3.37.32l3.35.43,6.69.86,6.65,1.1,3.31.55,3.29.67,6.57,1.34,6.51,1.58,3.25.78c1.08.28,2.14.6,3.22.89l6.41,1.81c.58.15,1.08.22,1.13.11s-.35-.35-.89-.49l-6.42-1.82-3.22-.9-3.24-.79-6.51-1.59L188.07,66l-3.29-.68-3.31-.56-6.64-1.11c-2.23-.32-4.46-.58-6.69-.87s-4.47-.6-6.73-.76a1.87,1.87,0,0,0-1.2.15C160.18,62.3,160.6,62.44,161.16,62.49Z"/><path d="M280.86,112.62c-.39-.13-.43,0-.1.23a4.74,4.74,0,0,0,1.21.68c.33.11.38,0,.1-.23A4.47,4.47,0,0,0,280.86,112.62Z"/><path d="M273.87,117.83c-1.06-.47-2.08-.94-3.08-1.35s-2-.75-2.93-1.06a4.78,4.78,0,0,1-1-.48c0,.21-.42.15-1.19-.15a321.52,321.52,0,0,0-48.42-15.07,1.6,1.6,0,0,1-.82.26,17,17,0,0,1-6-.76l-1.75-.55c-1.78-.5-3.59-.88-5.38-1.33s-3.58-.9-5.39-1.25L192.57,95l-2.7-.55L187.15,94a40.76,40.76,0,0,1-5.16-.18c-3.19,0-6.39.11-9.58.14l-9.6.45c.39.17.63.36.61.56s-.48.42-1.09.56a10.39,10.39,0,0,1-2.26.25l-2.6,0c2.48.11,5,.13,7.43.4a9.07,9.07,0,0,1,1,.11c2.73.12,5.49.12,8.3.34a288,288,0,0,1,70.74,12.06,3.75,3.75,0,0,1,1.22.54c.18.17.09.27-.33.15-14.65-3.64-27.75-4.7-44-6.31A221.13,221.13,0,0,0,144.56,105a147.75,147.75,0,0,0-28.27,5.77,167.19,167.19,0,0,0-26.57,10.67c-1.5.67-2.91,1.52-4.36,2.26L81.09,126,77,128.4c-1.36.82-2.75,1.56-4,2.46l-1,.65-.49.32-.18.13-.63.47-1.27.93c-.84.61-1.71,1.17-2.51,1.83-1.63,1.26-3.26,2.48-4.92,3.67s-3.19,2.52-4.81,3.76a5,5,0,0,1-4,1.47,6.57,6.57,0,0,1-4.22-2.21A7.45,7.45,0,0,1,47,136.09l-.65.46-1.25.43a5.16,5.16,0,0,1-3.8-.3L39.64,136c-2.72-1.59-5.74-2.19-8.48-3.95L30.61,131l-.4-.11A6,6,0,0,1,27,129.44l-.83-1.15a13.48,13.48,0,0,1-1.88-4.36,4.72,4.72,0,0,1-.9-1.5,6.82,6.82,0,0,1-3.23-3.36.94.94,0,0,1-.77-1.16,1,1,0,0,1,.27-.49h0a7.83,7.83,0,0,0-1-.36c-.37.13-.6.19-.6.19-.93.42-.93.42-1.76.76a5,5,0,0,1-1.71-.17c-2.28-1.44-2.29-1.43-2.89-2.35a2.05,2.05,0,0,1-.07-.34l-1,.17a3,3,0,0,1-.53-.13c-.41-.43-.41-.43-.64-.52a2.25,2.25,0,0,1-.31-.32c-.13-.73-.12-.73-.24-.88a2.1,2.1,0,0,1,0-.38l.36-.66L11,113l-.17-.53.62.4-.51-.41h.63l-.79-.09a4.81,4.81,0,0,0,1.4-.82,1.94,1.94,0,0,0,.68-.63,1.89,1.89,0,0,1-.25-.24c1.13-.56,1.13-.56,2.24-1.07a4.49,4.49,0,0,1,.48.16.55.55,0,0,1,.32-.52l.56-.29.05-.16,0,0,.24-.56,0-.12h0c.16-.38.39-.95,1.08-2.35a6.26,6.26,0,0,1,1-.35c-.14,0-.28,0-.42-.06s-.46-.59-.58-.58c-.72.14-1.43.32-2.13.53s-1.36.51-2,.8c-1.34.58-2.66,1.23-4,1.85a1,1,0,0,1-1.31.09.82.82,0,0,1,.06-1.23c2.7-6,9.14-9.76,15.48-11,1.51-.58,3-1.19,4.47-1.81l-.34-.11,1.28-.28.12,0-1.33-.36c-.24,0-.47,0-.71.09A29.17,29.17,0,0,1,21.85,95c-1.8.47-3.61,1-5.41,1.54s-3.91.8-5.9,1.27a.85.85,0,0,1-1.14-.24.81.81,0,0,1,.43-1.05A36.12,36.12,0,0,1,18,91.26a20.91,20.91,0,0,1,9.17-1.75,5.66,5.66,0,0,1,3.13-.8h0l-1-.36c.82-.26,1.58.14,2.39,0l-.83-.83c2-.66,3.93-1.57,5.88-2.37a30.57,30.57,0,0,1,3-1,13.65,13.65,0,0,1,3.06-.48,3.34,3.34,0,0,1,.43-.1,23.49,23.49,0,0,1,1.76-2l.49-.46.15-.11.43-.25.87-.49a40.58,40.58,0,0,1,3.73-1.88c-.93.3-1.83.66-2.73,1l-2.65,1s.17-.12.27-.18l.33-.2.68-.4,1.36-.8c.91-.54,1.85-1,2.81-1.48,1.91-.92,3.89-1.79,6-2.61,11.38-4.37,24.9-6.54,31.65-5.37a245.25,245.25,0,0,1,33.55-6.19,270.74,270.74,0,0,1,33.9-1.42,4.19,4.19,0,0,1,2.41.56c.11.27-.66.48-1.82.45a264,264,0,0,0-48.55,4.61,288.56,288.56,0,0,1,41.22-2c1.77,0,3.55-.07,5.34,0s3.5.22,5.24.42c17.69,1,34.15,4,51.53,8l2.77.64,2.7.71,5.31,1.42c1.76.45,3.47,1,5.18,1.51l5.12,1.57c3.4,1.07,6.75,2.28,10.17,3.44s6.81,2.57,10.34,3.93a280.28,280.28,0,0,1,27.92,13.11,245.82,245.82,0,0,1,25.84,16.33c2.25,1.62,4.13,3.43,4.13,4s-1.84-.29-4.09-1.89a313.68,313.68,0,0,0-27.75-16.68,320.17,320.17,0,0,0-29.49-13.57,301.15,301.15,0,0,0-31.18-10.51,317.34,317.34,0,0,0-33-7.39c-2.43-.44-4.87-.72-7.28-1.09l-3.62-.52c-1.21-.15-2.42-.26-3.63-.39a.46.46,0,0,1,.1.28c0,.35-.51.64-1.3.85l4.1.45c1.36.19,2.72.42,4.08.63l4.09.66,2,.34,2,.42a189.56,189.56,0,0,1,45.67,10.7A234.45,234.45,0,0,1,260,96.26a283,283,0,0,1,34.41,18.3,3.34,3.34,0,0,1,1,.79c.1.18-.18.1-.63-.16l-6-3.27-3-1.65-3.06-1.57-6.13-3.16-6.27-3c1.15,1,1.72,1.75,1.41,2.09s-1.5.21-3.15-.33l5.52,3c1.13.61,1.94,1.26,1.79,1.45s-1.12-.14-2.2-.71c-3.75-2-7.47-4-11.31-5.84-1.91-.91-3.79-1.9-5.73-2.76l-5.8-2.61A297.06,297.06,0,0,0,222,86.91,7.06,7.06,0,0,1,224.41,89h0l4.49,1.38c27.69,7.64,54.5,21.06,78.43,38.55.47.34.82.67.77.76s-.45-.11-.88-.42c-3.64-2.59-7.26-5.22-11-7.62-1.88-1.2-3.71-2.48-5.63-3.61l-5.73-3.44,0,0c.28.24.28.37-.1.23a5.4,5.4,0,0,1-1.19-.72c-.32-.28-.23-.35.09-.24a245.16,245.16,0,0,0-44.88-20.11,257.22,257.22,0,0,1,40.77,19.23c1.48.7,3,1.35,4.47,2.12a3.49,3.49,0,0,1,1,.75c.07.14-.27.06-.68-.16l-1.22-.63c2.41,1.51,4.06,3,3.75,3.43s-2.7-.52-5.21-2c-6.9-3.75-13.81-7.43-20.92-10.69l-2.34-1L256,104a290.76,290.76,0,0,1,31.72,17.58c.89.52,1.57,1.1,1.49,1.26s-.87-.12-1.77-.64a295.22,295.22,0,0,0-28.58-14,286.65,286.65,0,0,0-30-11c-3.48-.62-7-1.09-10.47-1.63-3.53-.37-7-.81-10.6-1.1.87.19,1.74.42,2.61.64,11.11,2.62,21.43,5.17,31.57,8.26a196.48,196.48,0,0,1,30.21,11.69,2.13,2.13,0,0,1,.9.66c0,.12-.38,0-.88-.25a223.32,223.32,0,0,0-29.7-11.39l-6.34-1.94-6.28-1.65-3.09-.79-3.09-.66c-2.06-.43-4.1-.85-6.13-1.23l6.08,1.61,3,.77,3,.87,6,1.7,5.92,1.89,3,1,2.93,1,5.87,2.11c1.94.76,3.87,1.56,5.81,2.35l2.92,1.2c1,.41,1.91.86,2.88,1.3a7.68,7.68,0,0,1,1.7,1,.76.76,0,0,1,.43.06,64.65,64.65,0,0,1,6.33,2.53,3.18,3.18,0,0,1,1.06.68C274.62,118.07,274.33,118,273.87,117.83Zm-244.61-12-.24-.09h.65l1.39.73Zm-4.67,9.44h0l-.82-.37ZM121.21,67l-7.27.82c-1.21.11-2.42.29-3.62.46l-3.62.5c-4.84.55-9.62,1.44-14.5,2.06l6.93-1.68,2.74-.43,2.76-.33,5.52-.61c1.83-.23,3.68-.34,5.53-.45ZM21,105.18a12.59,12.59,0,0,1,3.28.8,5,5,0,0,1,1.34-1.16,27,27,0,0,1,4.27-2.13c-.44-.3-.09-.44,0-.59l.43-.4c-1.58.6-3.25,1.09-4.86,1.75A40.91,40.91,0,0,1,21,105.18Zm-8.22,8.41-.23,0-.22-.76Zm.41,1.27.26-.07C13.54,115.06,13.41,115,13.17,114.86Zm2.31-.61a1.54,1.54,0,0,0-.49-.12Zm14.73,16-1.71-3.36,1.57,3.29Z"/><path d="M144.72,24.87l.26,0c0,.17-.16.28-.36.36,2.45,0,3.94-2.31,4.34-4.49a1.11,1.11,0,0,0,.33-1.51,1.08,1.08,0,0,0-1.51-.34,1.72,1.72,0,0,1-.44.06,8.48,8.48,0,0,0-3.68.26h.86a2.85,2.85,0,0,0-1,.4l.31.18a2.53,2.53,0,1,0,.26,5.06Z"/><path d="M148.56,26.32c-.79.11-1.57.18-2.36.24l-.23-.08.6.71,0-.06a4.46,4.46,0,0,1,1.24-2.62l.18-.32a.75.75,0,0,0-.06-.57.81.81,0,0,0-1.1-.34l-.45.24c-1.3.34-2.85,1.51-2.43,3.17.1.39.49.67.77,1a1.12,1.12,0,0,0,1.86-1.24l.33-.09-.06.32c-.19-.53.18-1,.33-1.45l.41-.5-1.16-.92-.14.35a.76.76,0,0,0,.15.08,10.31,10.31,0,0,1-.86,2l-.36.94a.68.68,0,0,0,.61.7l.49,0-.25,0c.89-.28,1.74-.7,2.63-1a.28.28,0,1,0-.12-.54Z"/><path d="M146.23,28.36a.67.67,0,0,0-.5.14v.14l.37,0C146.37,28.69,146.37,28.52,146.23,28.36Z"/><path d="M145.73,28.64h-.15l.14.06v-.05Z"/><path d="M167.61,8.35a37.86,37.86,0,0,0,3.7-2s0-.1,0-.17-.12-.1-.15-.08a41.26,41.26,0,0,1-3.7,2s0,.1,0,.17S167.57,8.36,167.61,8.35Z"/><path d="M181.23,9a.22.22,0,0,0,.14.17s.1,0,.08-.07a.28.28,0,0,0-.13-.17C181.25,8.88,181.21,8.92,181.23,9Z"/><path d="M185.26,14.67a1.89,1.89,0,0,0-.11.74c0,.05,0,.06-.08.05a.4.4,0,0,1,.13.32,15,15,0,0,1-2,4.47,1.3,1.3,0,0,1,.16.31c.14.34.09.61-.11.69l-.18,0c-.64.23-1.24.49-1.89.7a.79.79,0,0,1-.16.52,12.93,12.93,0,0,1-.59,2,.83.83,0,0,1,.26.24c.18.25.21.51.09.59l-.18.16.68-.22h.1a4.18,4.18,0,0,0,.57-.47,15.25,15.25,0,0,0,3.23-6c0-.06,0-.08.11,0a.27.27,0,0,1,.12.18c-.07,2,.31,4.3-.22,6a29.6,29.6,0,0,1-2.25,5.57c-1.46,1.13-2.35,2.77-3.5,4.35-.39.54-.8,1-1.21,1.52-.08.07-.07.09-.2.21l-.34.31-.67.61-1.36,1.2c-1.82,1.58-3.68,3.09-5.58,4.61a3.32,3.32,0,0,1-5.64-2.86l-.37.26-.69.26a2.9,2.9,0,0,1-2.05,0l-.86-.3c-1.41-.75-3-1.06-4.35-1.93l-.26-.52-.2-.06a2.82,2.82,0,0,1-1.58-.73l-.39-.58a6.67,6.67,0,0,1-.87-2.15,2.36,2.36,0,0,1-.43-.75,3.35,3.35,0,0,1-1.55-1.68.47.47,0,0,1-.24-.8h0l-.46-.19-.28.09-.82.33a2.29,2.29,0,0,1-.8-.12c-1.05-.75-1.05-.75-1.33-1.21a.94.94,0,0,1,0-.16l-.47.05a1,1,0,0,1-.24-.07c-.19-.22-.19-.22-.29-.27a1.27,1.27,0,0,1-.14-.17c-.07-.35-.07-.35-.12-.43a.94.94,0,0,1,0-.18l.15-.31.8.33-.09-.26.29.21-.24-.21.29,0-.36-.07a1.91,1.91,0,0,0,.62-.35.78.78,0,0,0,.3-.29l-.12-.12,1-.46.22.09a.23.23,0,0,1,.13-.24l.26-.13,0-.07,0,0,.1-.26V26.8h0c.06-.18.16-.44.41-1.13a2.69,2.69,0,0,1,.45-.16l-.19,0c-.13,0-.23-.29-.29-.29a17.88,17.88,0,0,0-3.59,1.35.41.41,0,1,1-.58-.58,8.91,8.91,0,0,1,6.42-5.1q.94-.47,1.86-1l-.16-.05.55-.16,0,0-.62-.15-.32,0a26.21,26.21,0,0,1-4.53,1.63,21.6,21.6,0,0,1-2.51.55.36.36,0,0,1-.5-.13.37.37,0,0,1,.13-.5c1.85-1.87,4.4-3.44,7.1-3.37a2.19,2.19,0,0,1,1.33-.44h0l-.49-.15c.34-.14.71,0,1-.07l-.44-.37c1.61-.8,3-2.09,4.8-2.44l.18-.07a8.61,8.61,0,0,1,.94-1.79l-.45.12a1.42,1.42,0,0,1,.51-.89,3.11,3.11,0,0,1,3.36.48,52,52,0,0,0,3.69-3.73c.05-.08.19,0,.31.09s.16.3.1.37a16.31,16.31,0,0,1-2.25,3.23,15.84,15.84,0,0,0,2.91-1.46l.28-.31a.71.71,0,0,1,.38-.18,13,13,0,0,0,3-2.76,30.52,30.52,0,0,0,1.94-3.13A12.4,12.4,0,0,1,176.77.08c.14-.18.49,0,.78.27s.4.74.26.92c-1.91,3.18-3.6,6.55-6.59,8.6l-1,.64.12.14a2,2,0,0,1,.31.56,9,9,0,0,1,1.21-.58,6.63,6.63,0,0,1,2.5-2.88,9.24,9.24,0,0,1,2.72-.63c.66-.85,1.27-1.76,2-2.59,0,0,.08,0,.14,0s.1.14.08.19a14.3,14.3,0,0,1-1,2.4,2.38,2.38,0,0,1,.76.68,2.29,2.29,0,0,1,.43.94l.42-.29c.09-.05.25,0,.37.18s.15.34.07.4l-1.7,1.21c-.52.68-1.06,1.34-1.63,2a3.2,3.2,0,0,1,.78.61h0l.29-.26A13.86,13.86,0,0,1,182.9,7s.11,0,.17.07.07.16,0,.18a10.37,10.37,0,0,0-1.73,1.36h0a.24.24,0,0,1,.14.17c0,.07,0,.1-.08.08a.25.25,0,0,1-.14-.18A14.77,14.77,0,0,0,178.77,12a17.43,17.43,0,0,1,2.95-2.25l.12-.52s.08,0,.15,0,.09.15.07.19l0,.13c.21-.11.59.08.87.46s.36.81.16.94c-.46.47-1,.91-1.44,1.33l-.12.19,0,.31c.92-.47,1.85-.91,2.8-1.32.06-.06.2,0,.31.13s.13.29.07.35a28.22,28.22,0,0,1-3.34,4.41c0,.94-.05,1.89-.07,2.82a.76.76,0,0,0,.19-.12c1.54-1.19,1.58-3.85,2.82-5.34,0-.05.1,0,.15,0s.08.15.05.18a16.4,16.4,0,0,0-1.21,2.82,15.62,15.62,0,0,0-.9,2.4c1-1,1.56-2.6,2.44-3.79,0-.07.1-.07.19,0a.21.21,0,0,1-.05-.11,2.61,2.61,0,0,1,.12-.78c0-.05.07-.05.14,0A.21.21,0,0,1,185.26,14.67Zm-30.49,11-.11,0h.3l.69.33Zm-1.86,4.64h0l-.39-.18Zm13.72-18.2a4.63,4.63,0,0,1-2.15.9l.36-.42A16.16,16.16,0,0,1,166.63,12.14ZM150.9,25.42a6.11,6.11,0,0,1,1.54.39,2.17,2.17,0,0,1,.57-.56,19.71,19.71,0,0,1,1.86-1.1c-.22-.14-.07-.22,0-.29l.17-.21c-.7.32-1.4.63-2.13.94A17.09,17.09,0,0,1,150.9,25.42Zm-3.55,3.93-.11,0-.11-.37Zm.2.61.11,0C147.71,30.07,147.66,30.05,147.55,30Zm1-.24a.65.65,0,0,0-.23-.06Zm7.07,8L154.86,36l.74,1.63Z"/><path d="M182.3,115.21l-.57-.28c.12-.18.48-.2,1-.11a10.3,10.3,0,0,0-7.08-.49,9.29,9.29,0,0,0-2.45,1.16,7.19,7.19,0,0,0-1.62,1.49c-1.15.11-1.56.73-1.14,1.3a2.45,2.45,0,0,0,1.11.73,4.32,4.32,0,0,0,1.61.29,5.94,5.94,0,0,1,.9.2c.6.24,1.18.47,1.8.69l1.94.65,2,.67c.7.22,1.4.43,2.13.67-.64-.29-1.29-.57-1.91-.82a19.86,19.86,0,0,0,2.44.62l-.59-.48c3.14,1.3,6.41,1.69,7.07.21s-1.79-4.53-5.11-5.89Z"/><path d="M174.56,110.65a24.7,24.7,0,0,1,2.56.46c.87.19,1.73.4,2.62.67l.47.28-1-1.41,0,.09c-.42,1.37-2.21,2.05-3.77,2.64l-.53.27a.64.64,0,0,0-.11.73,2.57,2.57,0,0,0,2.16,1.06l1.07,0a23,23,0,0,0,2.36.3,12.16,12.16,0,0,0,2.27,0c1.42-.18,2.46-.7,2.33-2-.06-.61-.84-1.41-1.37-2.13a3.85,3.85,0,0,0-3.39-1.78c-1.31.1-1.86,1-1.33,1.92l-.76-.1.27-.4c.2.85-.8,1.17-1.36,1.68l-1.06.38,2.06,1.87.46-.32a2.86,2.86,0,0,1-.29-.21,15.17,15.17,0,0,1,2.78-1.82l1.25-.94c.19-.47-.29-1.15-1.07-1.51l-1.1-.41.54.25a53.73,53.73,0,0,0-6.11-.32c-.32,0-.57.14-.57.37S174.23,110.62,174.56,110.65Z"/><path d="M180.43,109.23a2.13,2.13,0,0,0,1.19.2l0-.21-.82-.33C180.26,108.65,180.2,108.91,180.43,109.23Z"/><path d="M181.67,109.22l.35.15-.3-.21,0,0Z"/><path d="M190.76,258.94c-1,24.83-2.15,49.81-3.7,74.78-.05.83,0,1.54.21,1.58s.34-.6.38-1.38c1.6-25,2.78-49.83,3.77-74.66a2.73,2.73,0,0,0-.3-1.64C190.93,257.57,190.78,258.16,190.76,258.94Z"/><path d="M168.1,445.17c-.06-.59-.17-.57-.26,0a10.75,10.75,0,0,0-.07,2.06c0,.5.17.48.25,0A10.35,10.35,0,0,0,168.1,445.17Z"/><path d="M159.88,439.74c-.28-3.5-.59-6.82-1-9.78a9.21,9.21,0,0,1-.05-1.64c-.18.2-.38-.46-.51-1.73-2.63-24.84-4.51-51.56-6.26-77.88a2.58,2.58,0,0,1-.65-1.12,29.21,29.21,0,0,1-1.11-9.27l.11-2.86c.18-11.55.39-23.07.8-34.56a70.65,70.65,0,0,1-.62-8c-.91-10-1.72-19.93-2.26-30.14-.2.64-.45,1-.72,1-.63-.2-1.09-2.57-1-5.33,0-1.39.08-2.77.17-4.16-.46,4-.54,8-.8,12q0,.87-.12,1.59c-.09,4.37-.09,8.79,0,13.28.42,39.22,4,76.09,7.74,112.67a7.61,7.61,0,0,1,0,2.07c-.1.36-.27.29-.37-.38-3.49-23.07-8.22-43.05-11-69.14-1.62-15.52-3-30.95-4-46.49-.26-3.88-.52-7.77-.71-11.67l-.3-5.86c-.1-2-.23-3.92-.22-5.88a57.48,57.48,0,0,1,5.29-23.64c4-8.29,9-16.37,12.8-24.51,1-2.08,1.81-4,2.71-6.34l.63-1.67c.24-.64.48-1.17.68-1.63.42-.92.82-1.69,1.13-2.48a15.64,15.64,0,0,0,1.21-9.44,13.3,13.3,0,0,0-1.75-4.35c-.44-.69-.94-1.4-1.61-2.36a19,19,0,0,1-2.2-4,16.69,16.69,0,0,1-1.06-5.25,17.59,17.59,0,0,1,.57-5.16,23.57,23.57,0,0,1,4-7.76,13.46,13.46,0,0,0,1-1.58l0-.06h0s0,0,.09.06l.35.18a6,6,0,0,0,.73.32l.39.13a1.14,1.14,0,0,1,.2.08,2.79,2.79,0,0,0,.66.17l0,0h-.21l-.29,0-.21.05.1,0c.06,0,0,0-.4.18l-.3.17-.36.24c-.16.1-.31.21-.46.32l-.1.09h0s0-.15-.18-.3a1.72,1.72,0,0,0-.23-.26c-.41-.36-.74-.7-1.14-1-.8-.6-1.58-1.2-2.3-1.82a22,22,0,0,1-3.72-3.68,9.84,9.84,0,0,1-1.75-4.14,4.09,4.09,0,0,1-.14-1.21,10.2,10.2,0,0,1,0-1.24,10.38,10.38,0,0,1,.52-2.26,9.81,9.81,0,0,1,1.49-2.65c.16-.2.27-.42.46-.62l.61-.58a16.47,16.47,0,0,1,1.41-1.11,8.54,8.54,0,0,1,.8-.53,6,6,0,0,1,.87-.49c.66-.28,1.32-.56,2-.87,1.33-.56,2.84-.95,4.21-1.42l2.08-.69c.42-.16.63-.25.93-.38a8.64,8.64,0,0,0,1.34-.68,1.64,1.64,0,0,0,.28-.24h0l.08.1c.18.24.46.52.58.7s.33.38.51.56l.29.26.19.2a3.94,3.94,0,0,0,.45.36c.17.12.21.17.34.25s.28.14.31.17l.2.09c.13,0,.19,0,.1.05a1.31,1.31,0,0,0-.34.11,2.25,2.25,0,0,0-.59.33,5.35,5.35,0,0,0-.87.63l-.18.18-.28.24a6.51,6.51,0,0,0-.54.51c-.17.18-.34.36-.49.55a2.28,2.28,0,0,1-.28.31c-.08.09,0,0-.06.05l-.09,0-.38-.07c-.65-.16-1.64-.4-2.72-.58-.56-.1-1.08-.2-1.75-.28l-2-.07c-.68,0-1.37-.2-2.06-.3a76.82,76.82,0,0,1-8.85-2l-1.67-1a4.41,4.41,0,0,0-.43-.25l-.55-.2-1.09-.39a8.67,8.67,0,0,1-1.06-.42l-.73-.56c-.49-.38-1-.75-1.44-1.13s-.93-.76-1.36-1.15l-.44-.4-.58-.51c-.79-.69-.48-1.59-1.35-2.26l-.5-.53A2.43,2.43,0,0,1,138,125l-.66-1.12-.55-1.15a13,13,0,0,0-.72-1.19c-.65-.8.08-1.59-.74-2.49l-.37-.66a3.58,3.58,0,0,1,0-.65l.06-.65c0-.11,0-.23-.09-.35l-.16-.37c-.17-.49-.56-1-.3-1.44l.16-.68.09-.34a1.4,1.4,0,0,0-.07-.39c-.12-.53-.26-1.06-.37-1.58l.57-1.36.14-.34a1.27,1.27,0,0,0,0-.39v-.8c0-.53-.05-1.06,0-1.6l.1-1.61,0-.41c0-.14.14-.21.2-.32l.49-.61,1-1.22a9.8,9.8,0,0,0,.56-1.46l.52-1.48,0-.1,0,0-.06-.1-.26-.42-.13-.2c0-.06,0-.08,0-.11l.08-.21.35-.8.35-.81.27-.7.54-1.32c.35-.85.73-1.73,1.11-2.56s.6-1.36.91-2a19.74,19.74,0,0,1,1-1.81,12.47,12.47,0,0,1,2.07-2.62c1.33-1.28,2.7-1.68,3.68-1,1.19.89,1.55,3.11,1.13,5.54.22-.33.43-.66.64-1,.4-.45.81-.93,1.2-1.35,1.14-1.18,2.36-1.94,3.46-1.87h1.43c2.32.53,5.1.33,7.47,1.74l.38,1,.37,0a3.72,3.72,0,0,1,2.85,1.17l.65,1.14a12.06,12.06,0,0,1,1.21,4.22,4,4,0,0,1,.66,1.41A5.67,5.67,0,0,1,172,100.9a.79.79,0,0,1,.58,1.07,1,1,0,0,1-.34.37h0c.35.19.45.24.89.44.37,0,.6,0,.6,0a17.6,17.6,0,0,1,1.84-.24,5.89,5.89,0,0,1,1.66.59c2,1.84,2.05,1.88,2.51,2.8,0,.1,0,.2,0,.29.78.17.84.2,1.07.26a3.51,3.51,0,0,1,.51.31c.34.49.34.49.55.66a3.39,3.39,0,0,1,.27.37c0,.6,0,.6.09.76a1,1,0,0,1,0,.29l-.46.33L180.07,108l.08.45-.55-.52.44.49-.63-.24.78.37a4.24,4.24,0,0,0-1.54.07,1.57,1.57,0,0,0-.77.22l.21.25-2.33.07-.44-.24c0,.15-.16.26-.39.28l-.59.05-.06.09,0,0-.29.32-.06.07h0c-.2.21-.49.53-1.28,1.33-.34,0-.69,0-1,0l.38.1c.25.08.36.46.47.47,1.36.09,2.71.15,4.05.17s2.76.08,4.19.22a1.54,1.54,0,0,1,1.33.5c.31.37.17.7-.27.76a10.31,10.31,0,0,1-3.24,1.44,23.34,23.34,0,0,1-3.84.73c-2.7.32-5.46.43-8,.51-.57.08-1.14.21-1.69.33l-1.51.36.23.06c-.25,0-.61,0-.56.15v0h.2l.39.08h.47a17.82,17.82,0,0,1,3.89-.46c.76,0,1.46,0,2.24,0l2.38.11a15.58,15.58,0,0,1,2.67.37l2.77.61a1.37,1.37,0,0,1,1,.54c.14.26-.1.44-.53.4-1.25.14-2.45.16-3.77.24-.63,0-1.23,0-1.88,0l-1,0h-.88c-1.26,0-2.39-.08-3.51-.13l-1.58-.15a3.49,3.49,0,0,1-.37-.07c-.09,0-.28-.06-.31,0l-.11.06a1.53,1.53,0,0,1-.84.31h0l.49.08c-.18.11-.6,0-.81.14l.62.2a1.5,1.5,0,0,0-.47,1.3c0,.46.22.84.25,1.2a.35.35,0,0,1,.05.08c.35.12.68.21,1,.3l.21.06.06,0,.17.09.35.16c.46.21.92.39,1.38.59a16.07,16.07,0,0,1-1.67-.91c.65.3,1.35.56,2,.79l.24.08.13,0,.06,0,.12.08,1.95,1.29c.68.46,1.38.91,2.14,1.47a24,24,0,0,1,2.48,2l.46.44c.17.16.34.36.51.55a10.63,10.63,0,0,1,1,1.36,7.83,7.83,0,0,1,.5.93,5.38,5.38,0,0,1,.42,1.1,10.46,10.46,0,0,1,.28,1.26,8.69,8.69,0,0,1,0,1.35,7.44,7.44,0,0,1-1.79,4.33,10.13,10.13,0,0,1-2.3,2,24.39,24.39,0,0,1-3.64,1.78c-.52.21-1.22.47-1.16.46-.12,0-.23.07-.35.1a11,11,0,0,0-1.47.55,1.7,1.7,0,0,0-.62.51,1.62,1.62,0,0,1-.1.18,1.15,1.15,0,0,1,0,.19.75.75,0,0,0,.1.36,4.86,4.86,0,0,0,1,1l.28.24.14.13.07.06v0l0,0s0,0,0,0l.17.14a15.24,15.24,0,0,1,2.66,2.62,12.28,12.28,0,0,1,2,3.71,11.59,11.59,0,0,1,.48,2,18,18,0,0,1,.08,2.06,12.38,12.38,0,0,1-.29,2,12,12,0,0,1-.57,1.72,11.8,11.8,0,0,1-.7,1.38c-.24.38-.48.75-.71,1.08a25.59,25.59,0,0,1-2.11,2.76c-.58.72-1.1,1.31-1.47,1.83a6.18,6.18,0,0,0-1.29,2.82,4.53,4.53,0,0,0,0,1.36,5.24,5.24,0,0,0,.63,1.7c.78,1.5,2,3.54,3,5.58a55.47,55.47,0,0,1,4.11,12.94c.44,2.23.71,4.55.95,6.72l.18,1.56c.08.53.16.84.26,1.32.2.9.44,1.79.66,2.67.5,1.91,1,3.85,1.67,5.77s1.29,3.89,2,5.84c1.39,3.88,3,7.81,4.42,11.7a99.22,99.22,0,0,1,6.27,23.36c.21,1.6,0,3-.29,3.31s-.71-.9-.89-2.5a98,98,0,0,0-3.92-16.79c-1.8-5.63-4-11.26-6-16.92-1-2.81-1.9-5.65-2.73-8.46-.4-1.39-.78-2.79-1.12-4.19l-.26-1.05-.22-1c-.15-.65-.29-1.31-.42-2-.26-1.15-.33-2.8-.51-4.39s-.37-3.23-.67-4.84a53.3,53.3,0,0,0-2.54-9.41,50.71,50.71,0,0,1,2.15,7.84,66.23,66.23,0,0,1,1,8.05c.05.66.08,1.28.15,1.86s.16,1.06.25,1.62c.21,1.12.4,2.15.66,3.37.51,2.37,1,4.71,1.71,7.11,2.51,9.54,5.88,19.2,7.52,28.89.5,2.48.89,5,1.19,7.46a46.22,46.22,0,0,1,.24,7.33c-.1,12.38-.44,24.44-.7,36.58s-.52,24.33-.67,37c-.25,21.6-.67,40.49-1.64,62-1.42,30.2-4,57.7-9.73,87.51a45,45,0,0,1-2.06,8.09c-.35.48,0-2.4.64-6.38,2.48-15.54,4.13-31,5.39-46.52s2.1-31,2.73-46.59c1.27-31.18,1.81-62.73,2.85-95.24.21-7,.41-13.92.62-20.78a.69.69,0,0,1-.37.17c-.48,0-.92-.67-1.28-1.77q-.39,11.69-1.06,23.53c.51,21.93.66,43.9-1,67.27-1.16,16.05-2.9,30.58-4.54,45.42-.77,18.82-1.79,37.58-3.59,56.58a8.8,8.8,0,0,1-.28,1.82c-.11.27-.14-.13-.09-.9.85-13.07,1.38-26.47,1.76-40-.5,2.13-1,3.4-1.54,3.22s-.9-1.83-1.14-4.36l-.46,9.19c-.11,1.9-.38,3.39-.62,3.33s-.39-1.55-.31-3.35q.74-18.76,1.49-37.47c.14-15,.2-29.92.24-44.93a10.89,10.89,0,0,1-1.85,4.32h0c0,2.32-.05,4.64-.08,6.95q.9,31.82.27,64.3t-2.9,65.28a8.24,8.24,0,0,1-.18,1.58,5.55,5.55,0,0,1,0-1.42q1.23-19.8,1.94-39.51v.06c-.09.53-.2.62-.25,0a11.91,11.91,0,0,1,.08-2.06c.09-.6.2-.55.25-.05.86-24.47,1.06-48.77.6-72.75q-.45,33.42-1.67,66.8c.06,2.43.11,4.85.16,7.32a7.69,7.69,0,0,1-.18,1.81c-.09.19-.17-.3-.17-1s0-1.36,0-2c-.16,4.21-.64,7.45-1.11,7.38-.48-.24-.83-3.86-.78-8.24q0-17.58.08-35.07l-.1-3.79c-.11-1.28-.21-2.54-.32-3.81-.38,18.15-.73,36.28-.86,54.3a7.81,7.81,0,0,1-.27,2.89,7,7,0,0,1-.33-2.77c-1.1-31.76-2.38-63.92-3.13-96.21-1.38-10.62-2.86-21.26-4.35-32.11,0,1.36,0,2.75,0,4.13.18,17.55,1.46,33.79,2.7,49.88s2.47,32,3.07,49a4.29,4.29,0,0,1-.13,1.67c-.11.09-.23-.49-.25-1.35-.72-16.59-2.11-31.74-3.3-48.21-1-13.64-1.92-26.61-3.15-39.29.83,25.91,3,50.77,4.4,76.43a16.89,16.89,0,0,1,0,3,1.52,1.52,0,0,1,.18.63c.41,3.21.74,6.71,1,10.29a6.74,6.74,0,0,1,0,1.9C160.08,440.92,160,440.5,159.88,439.74Zm2.5-329.21.2,0-.54.07-1.11-.27S161.62,110.42,162.38,110.53Zm4.86-6.88h0l.71.31Zm7.4,99.63c-.14-.8-.28-1.6-.36-2.36l-.21-2.7c-.13-1.89-.32-3.83-.64-5.73a49.36,49.36,0,0,0-3.1-11.05,48.19,48.19,0,0,0-2.48-5.1,13.31,13.31,0,0,1-1.74-3.74,4,4,0,0,1,0-1.35,6.13,6.13,0,0,1,.33-1.45,9.33,9.33,0,0,1,1.73-2.74,9.5,9.5,0,0,0-1.62,2.7,5.83,5.83,0,0,0-.28,2.67c0,1.12,1.69,3.53,3,6.15a49.18,49.18,0,0,1,3.09,8.12,52.17,52.17,0,0,1,1.62,8.6c.16,1.45.24,2.91.32,4.29,0,.67.07,1.38.15,1.91S174.54,202.69,174.64,203.28ZM169.49,111a22.68,22.68,0,0,1-2.82-.73,5.26,5.26,0,0,1-1.26.7c-1.2.53-2.44,1-3.55,1.53.35.12.08.24,0,.34s-.24.18-.34.28c.62-.26,1.25-.5,1.88-.71s1.37-.42,2.06-.6,1.32-.34,2-.49A11.61,11.61,0,0,1,169.49,111Zm8.86-4,.22.12.1.63S178.54,107.4,178.35,107Zm-.2-1.08-.26,0C177.82,105.62,177.94,105.68,178.15,105.89Zm-2.37-.21a2.59,2.59,0,0,0,.46.22ZM163.86,90.44,165,93.63l-1-3.13Z"/><path d="M192,178.66l.64,0c-.08.35-.43.63-.92.87a13.77,13.77,0,0,0,7.42-3.88,20.67,20.67,0,0,0,4.43-6.37c1.37-.73,2.06-2.06,1.54-3s-2.14-1.13-3.59-.39a5.47,5.47,0,0,1-1.14.2,27.8,27.8,0,0,0-9.6,1.45l2.26-.25a11,11,0,0,0-2.8,1.09l.73.28c-3.68.58-7,3.49-7.09,6.43s3,4.61,6.52,3.87Z"/><path d="M201.06,180.34c-1.85.44-3.68.85-5.59,1.25l-.55-.08,1.4,1.23-.06-.11c.1-2,1.67-4,3.29-5.71l.51-.67a1.3,1.3,0,0,0,0-1.14,1.88,1.88,0,0,0-2.56-.38l-1.17.62c-3.25,1.05-7.42,4.1-6.42,7.43.24.76,1.2,1.17,1.9,1.7a2.88,2.88,0,0,0,3.74,0c1.21-.91,1.57-2.35.8-3.29l.79-.3c-.06.23-.12.46-.17.69-.41-1,.52-2,1-3.06l1-1.13-2.61-1.51-.42.75c.14.05.36.11.35.12a32,32,0,0,1-2.35,4.33c-.32.68-.62,1.38-.92,2.08a1.22,1.22,0,0,0,1.45,1.22l1.17-.17h-.59c2.13-.92,4.13-2,6.22-2.82a.71.71,0,0,0,.53-.74A.54.54,0,0,0,201.06,180.34Z"/><path d="M195.5,185.28a2,2,0,0,0-1.19.49v.3l.88-.1C195.83,185.89,195.82,185.54,195.5,185.28Z"/><path d="M194.32,186.07l-.37,0,.34.06,0,0Z"/><path d="M250.84,322.5l-.32.91a3.85,3.85,0,0,1-.25.5l-.46.9c-.33.6-.53,1.22-.81,1.83a29.23,29.23,0,0,0-1.32,3.86,17.83,17.83,0,0,0-.61,4.12,8.55,8.55,0,0,0,.91,4.07,6.45,6.45,0,0,0,3.1,2.71,12.45,12.45,0,0,0,4.09.9,32.07,32.07,0,0,0,4.27-.05l2.15-.19,4.91-.58c.85-.11,1.54-.33,1.55-.52s-.66-.23-1.44-.13l-5,.59-2.06.18a30.45,30.45,0,0,1-4.05,0,12.24,12.24,0,0,1-3.89-.83,6.24,6.24,0,0,1-3-2.54,7.66,7.66,0,0,1-.9-3.84,15.44,15.44,0,0,1,.55-3.91,27.62,27.62,0,0,1,1.24-3.66c.26-.59.47-1.17.77-1.74l.44-.85.22-.43a2.47,2.47,0,0,0,.14-.37l.16-.45a2.62,2.62,0,0,0,.18-1.42C251.32,321.49,251.06,321.89,250.84,322.5Z"/><path d="M396.32,343.51c-.53-.56-.62-.45-.24.25a14.37,14.37,0,0,0,1.48,2.2c.41.49.54.38.25-.24A11.67,11.67,0,0,0,396.32,343.51Z"/><path d="M384,345.57a26.8,26.8,0,0,0-8.35-5.05,6.88,6.88,0,0,1-1.33-.67c.06.29-.59.24-1.65-.07-5.25-1.41-10.69-.66-16.9,1.43-.77.25-1.55.54-2.35.84L351,343l-2.44,1-2.44,1.09c-3.26,1.48-6.49,3.15-9.76,4.93-6.52,3.56-13.09,7.65-20.13,11.81l-2.69,1.57c-1,.54-1.89,1.08-2.87,1.61-1.92,1.06-3.91,2.06-5.91,3.05a131,131,0,0,1-12.42,5.26,3.6,3.6,0,0,1-1.26,1.1c-2.18,1.44-7,3.21-12.11,4.12-1.29.22-2.58.39-3.87.57-1.93.29-4,.56-5.65.77l-2.84.33c-1.25.17-2.53.31-3.79.43a103.21,103.21,0,0,1-15.06.6,55.67,55.67,0,0,1-14.24-2.35,35.53,35.53,0,0,1-12.4-6.57,19.33,19.33,0,0,1-2.42-1.84,19.69,19.69,0,0,1-2.33-2.25l-1.1-1.29c-.36-.45-.67-.93-1-1.41s-.68-1-1-1.47l-.85-1.59a36.87,36.87,0,0,1-4.07-11.41c-.18-1-.35-2-.48-3.06a21.42,21.42,0,0,1-.32-3.12,49.87,49.87,0,0,1,.06-6.46A66,66,0,0,1,210,325.05c.62-2.28,1.57-4.43,2.4-6.66l1.28-3.34c.12-.28.21-.57.34-.84l.42-.77.85-1.55c-.77,1-1.36,1.53-1.58,1.44-.18-.25.21-1.37,1-3,.39-.83.89-1.78,1.45-2.8l.44-.79c.15-.27.31-.56.44-.75l.9-1.3,1.85-2.66.94-1.31,1-1.24a42.37,42.37,0,0,0-2.88,3.65L217.49,305l-.7,1c-.23.32-.5.79-.75,1.18-2,3.31-4.3,6.45-5.75,10.18-.46,1.05-.91,2-1.34,2.88a46.79,46.79,0,0,0-2.31,6.11c-.65,2.08-1.17,4.18-1.62,6.28a60.59,60.59,0,0,0-1.3,12.55,41.94,41.94,0,0,0,.58,6.59,44.18,44.18,0,0,0,1.34,6.33c.35,1,.68,2,1.05,3L208,364l1.55,2.81c.58.9,1.22,1.77,1.82,2.66s1.34,1.69,2,2.53,1.52,1.52,2.29,2.27a28.61,28.61,0,0,0,2.47,2.08,23.84,23.84,0,0,0,2.63,1.84,43.84,43.84,0,0,0,11.68,5c8.23,2.17,17.18,2.2,26,1.17,2.2-.27,4.38-.59,6.56-.91.54-.07,1.08-.18,1.62-.27L268,383l2.18-.41,4.59-.93c1.58-.36,3.16-.7,4.74-1.11A127,127,0,0,0,298,374.36a134.16,134.16,0,0,0,17-8.67c10-6.07,18.71-12,27.65-16.66a6.91,6.91,0,0,1,2.09-.86c.41,0,.41.18-.23.53a183.13,183.13,0,0,0-15.91,10.6l-8.08,5.91-4.26,3.05c-1.57,1.08-3.17,2.15-4.83,3.19a121.54,121.54,0,0,1-22,11,124.18,124.18,0,0,1-12.47,4c-1.07.29-2.15.54-3.24.8l-3,.72-1.48.34-.76.16-.48.1-.6.11c-1.62.35-3.27.56-4.93.84-2,.32-4,.57-6,.85s-4,.39-6,.46l-3,.14c-1,.05-2,0-3,0s-2,0-2.95-.1l-2.92-.25c-1-.07-1.92-.23-2.88-.37s-1.91-.29-2.84-.49a56.62,56.62,0,0,1-5.52-1.45,47.07,47.07,0,0,1-10.35-4.63l-2.39-1.55-2.25-1.76a26,26,0,0,1-2.16-1.9l-1.05-1-.26-.25-.06-.06c-.1.05-.06,0-.1,0l-.12-.14-.47-.53a45.31,45.31,0,0,1-6.56-9.27,44.58,44.58,0,0,1-4-10.59c-.42-1.87-.77-3.77-1.11-5.68a17.4,17.4,0,0,1-.32-2.93c-.05-1-.18-2-.14-3a64.19,64.19,0,0,1,1-12.44,60.58,60.58,0,0,1,3.58-12.63l2.56-6.16.64-1.55.32-.78c.11-.26.28-.47.41-.71l1.7-2.82,1.7-2.82.85-1.42.43-.71c.14-.23.3-.49.41-.64q1.44-2.08,2.91-4.13c.5-.67,1-1.37,1.5-2l1.63-1.91,1.64-1.89c.55-.63,1.1-1.26,1.68-1.81q1.72-1.72,3.47-3.39c1.16-1.09,2.34-2,3.51-3a148.61,148.61,0,0,1,13.33-9.56c4.35-2.72,8.31-5.15,11.79-7.81,1.82-1.3,3.42-2.7,5.07-4.11.84-.68,1.56-1.46,2.33-2.2s1.54-1.49,2.28-2.26c1.4-1.61,2.82-3.21,4.16-4.89s2.6-3.49,3.78-5.21a51.86,51.86,0,0,0,5.46-10.49,41.15,41.15,0,0,0,2.63-11.09,34.79,34.79,0,0,0-.59-10.86l-.29-1.31c-.1-.43-.25-.83-.36-1.25-.22-.83-.55-1.65-.83-2.46a31.31,31.31,0,0,0-2.19-4.69,30.07,30.07,0,0,0-6-7.63,12.47,12.47,0,0,0-4.16-2.62,2.55,2.55,0,0,0-.78-.18l-.17,0-.1,0a.88.88,0,0,0-.2.09c-.25.12-.5.27-.82.41a5.75,5.75,0,0,1-1.58.44c-.35.08-1.83,0-1.86.19a8.16,8.16,0,0,0-1,.31,22.46,22.46,0,0,0-4.07,2c-.34.19-.7.48-1.05.7-.17.11-.35.24-.53.38l-.12.1-.38.33c-.25.21-.52.48-.77.7s-.51.48-.77.73-.51.48-.77.76c-1,1-2.09,2.12-3.14,3.31s-2.09,2.46-3.13,3.82c-1.28,2.37-4.06,2.58-6.48.3a7.71,7.71,0,0,1-2.3-5.36l-.5.52-1,.57a3.94,3.94,0,0,1-3.27.23l-1.51-.43c-2.58-1.18-5.43-1.43-8.19-2.81l-.65-1-.39-.05a5.56,5.56,0,0,1-3.19-1l-.94-1a12.94,12.94,0,0,1-2.28-4,4.63,4.63,0,0,1-1-1.37,6.45,6.45,0,0,1-3.48-2.9.87.87,0,0,1-.85-1,1,1,0,0,1,.25-.51h0a7.33,7.33,0,0,0-1-.24c-.37.17-.6.25-.6.25l-1.76.95a5.61,5.61,0,0,1-1.77,0c-2.47-1.12-2.49-1.12-3.18-2,0-.11-.07-.22-.1-.32l-1.09.3a2.93,2.93,0,0,1-.56-.06c-.46-.38-.46-.38-.72-.44a2,2,0,0,1-.35-.27c-.18-.71-.18-.71-.31-.85a1.29,1.29,0,0,1-.06-.36c.22-.45.31-.63.34-.71l1.89.36L196,186l.69.32-.57-.34.68-.08h-.86a5.81,5.81,0,0,0,1.46-1,2.19,2.19,0,0,0,.7-.69,1.79,1.79,0,0,1-.27-.21c1.19-.64,1.18-.65,2.35-1.25a2.71,2.71,0,0,1,.51.11.58.58,0,0,1,.32-.54l.6-.33,0-.14,0,0c.09-.22.16-.37.24-.55l0-.12h0c.17-.38.41-.92,1.11-2.35a8.88,8.88,0,0,1,1.09-.44h-.44c-.3,0-.49-.52-.61-.49a42.6,42.6,0,0,0-8.68,3.81A1.2,1.2,0,0,1,193,182a.76.76,0,0,1,0-1.21c2.89-6,10-10.14,16.87-11.72l4.93-2-.35-.09,1.4-.31.14-.06-1.39-.25-.78.11c-3.78,1.62-7.78,2.37-11.74,3.77-2.12.75-4.24,1.07-6.4,1.7a1,1,0,0,1-1.23-.12c-.2-.31,0-.79.49-1,5.28-4.31,12.77-7.77,19.36-7.69a8.06,8.06,0,0,1,3.56-.83l.06,0-1.07-.28a19.34,19.34,0,0,1,2.62-.09l-.77-.7c2.29-.71,4.64-1.53,7-2.23a26.07,26.07,0,0,1,7.21-1.14l.53-.06a20.35,20.35,0,0,1,2.63-1.53l.73-.33a1.2,1.2,0,0,1,.23-.09l1.06-.26,2.21-.45a58.88,58.88,0,0,1,9.51-1.05c-1.14,0-2.27,0-3.38.1s-2.24.13-3.33.26-2.2.24-3.27.41l-1.64.25-1.41.25h0l.19,0,.42-.11c.28-.07.56-.15.85-.2l1.74-.37c1.15-.25,2.35-.42,3.53-.61a60.5,60.5,0,0,1,7.34-.64c1.25,0,2.52,0,3.79,0s2.56.17,3.85.29l1.94.27,1,.14.49.08.24,0,.13,0,3.32.69A46.23,46.23,0,0,1,277.11,159a44,44,0,0,1,5.43,3.36c.79.6,1.57,1.22,2.34,1.84s1.43,1.27,2.13,1.91a54.46,54.46,0,0,1,11.54,16.29,61.49,61.49,0,0,1,4.89,15.35,52.8,52.8,0,0,1,.91,11.9,77.47,77.47,0,0,1-.34,16.83,93.18,93.18,0,0,1-3.61,16.05,107.84,107.84,0,0,1-6.14,14.93c-.62,1.18-1.2,2.39-1.86,3.55l-1,1.75-1,1.64-2,3.31c-.65,1.11-1.31,2.21-2,3.28-2.79,4.33-5.74,8.64-8.89,12.78l-2.35,3.12-2.42,3-1.2,1.53-1.21,1.46-2.41,2.95c-3.15,3.83-6.23,7.55-8.76,11a56.34,56.34,0,0,0-5.79,9.93c-.54,1.31-1.1,2.34-1.45,2.41s-.17-1,.33-2.34c.47-1.16,1.06-2.32,1.59-3.52s1.33-2.39,2-3.62,1.61-2.48,2.53-3.76,1.88-2.54,2.94-3.88c4.15-5.25,9-10.9,13.54-16.79a201.73,201.73,0,0,0,12.68-18.44l2.83-4.76c.94-1.66,1.85-3.36,2.71-5.08a101.77,101.77,0,0,0,4.59-10.6,92.89,92.89,0,0,1-3.94,8.82c-.71,1.44-1.48,2.85-2.25,4.26l-1.21,2.08-1.23,2c-1.64,2.62-3.24,5.27-5.06,7.81-.91,1.27-1.73,2.61-2.68,3.85L278.55,279c-3.82,5-7.89,9.85-12,14.4s-8,8.92-11.2,13.12l-1.19,1.62c-.36.54-.69,1.07-1,1.61l-1,1.59c-.34.53-.58,1.06-.88,1.59-.56,1-1.18,2-1.63,3.06l-.76,1.5-.38.73-.33.77-.74,2-.36.91-.28.61c-.36.81-.78,1.6-1.06,2.43a49.66,49.66,0,0,0-1.62,5,26.4,26.4,0,0,0-.84,5.13,12.41,12.41,0,0,0,.7,5.1,7.5,7.5,0,0,0,3.29,3.88,12.19,12.19,0,0,0,5,1.44,27.09,27.09,0,0,0,5.25-.12c.87-.1,1.74-.22,2.6-.37l1.29-.23c.47-.08.67-.14,1.76-.3,3.31-.52,5.81-.94,8.5-1.51s5.18-1.21,7.66-1.93a99.84,99.84,0,0,0,14.34-5.47c2.38-1.12,4.57-2.24,7.3-3.68l8.19-4.34c5.67-3,11.77-6.07,18.56-8.95a130.89,130.89,0,0,1,14.83-5.35,78.54,78.54,0,0,1,17.55-3.3,52.27,52.27,0,0,1,20.78,3,49.09,49.09,0,0,1,9.46,4.7,60.83,60.83,0,0,1,7.65,5.8,63.48,63.48,0,0,1,6.51,6.86,67.59,67.59,0,0,1,5.05,7.27,99.1,99.1,0,0,1,6.83,13.9l1.3,3.28c.45,1.14.93,2.36,1.36,3.56.87,2.4,1.63,4.85,2.33,7.3a111.19,111.19,0,0,1,3.17,15,59.33,59.33,0,0,1,.6,7.35,12,12,0,0,1-.37,3.82c-.44.71-1-3.09-1.74-8.4a110,110,0,0,0-3.43-15.43c-.75-2.54-1.6-5.06-2.53-7.56-.47-1.24-1-2.48-1.48-3.71l-1.47-3.45a103,103,0,0,0-7.42-14.39,58.55,58.55,0,0,0-12.38-14.14c-1.25-1-2.58-2-3.91-2.93l-2-1.33c-.66-.43-1.49-.88-2.24-1.3a46.62,46.62,0,0,0-9.94-4,50.46,50.46,0,0,0-20.4-1.14,75.59,75.59,0,0,0-8.85,1.79c-1.37.37-2.64.74-4,1.11s-2.6.8-3.87,1.23a157.81,157.81,0,0,0-14.67,5.85c-4.69,2.14-9.16,4.39-13.47,6.63l-6.35,3.31-3.09,1.61L298.55,337a101.52,101.52,0,0,1-23.21,8.36c-2,.48-4.09.85-6.16,1.22L266,347l-3.42.49a61.5,61.5,0,0,1-7.81.8,26.11,26.11,0,0,1-4-.17,15.57,15.57,0,0,1-3.85-.93,9,9,0,0,1-3.31-2.14,8.48,8.48,0,0,1-1.26-1.54,11,11,0,0,1-.84-1.81,15.45,15.45,0,0,1-.6-6.78,34.7,34.7,0,0,1,1.44-6.59,1,1,0,0,1-.36.1c-.45,0-.73-.42-.84-1.18a43.37,43.37,0,0,0-2,8.15,24.41,24.41,0,0,0-.18,4.28,15,15,0,0,0,.89,4.23,9.76,9.76,0,0,0,4.21,4,15.61,15.61,0,0,0,5.72,1.47,47.75,47.75,0,0,0,11.56-.88l1.43-.24,2.43-.37,2.37-.37c.75-.12,1.5-.23,2.23-.37,3-.51,5.9-1.13,8.8-1.84a121.69,121.69,0,0,0,17.26-5.68l3-1.25,3-1.36,6.36-2.9c4.27-1.94,8.62-3.89,13.08-5.71s9-3.53,13.74-5c2.36-.74,4.74-1.43,7.16-2,1.21-.31,2.43-.61,3.66-.87l1.84-.4,1.93-.38a64.88,64.88,0,0,1,10.37-1.7,45.3,45.3,0,0,1,11.38.55,41.69,41.69,0,0,1,11.19,3.65c.89.41,1.71.91,2.57,1.38s1.55,1,2.34,1.46a47.48,47.48,0,0,1,4.39,3.26,52.61,52.61,0,0,1,7.59,7.71,66.85,66.85,0,0,1,5.7,8.47c1.63,2.84,3,5.66,4.31,8.43.63,1.38,1.25,2.76,1.84,4.12s1.23,2.87,1.81,4.32a9.11,9.11,0,0,1,.7,2.32c0,.38-.26-.09-.65-1s-.85-2-1.29-3l-1.35-2.87c-.87-1.86-1.81-3.75-2.78-5.66a88.17,88.17,0,0,0-7.08-11.61A58.68,58.68,0,0,0,396,334a51.19,51.19,0,0,0-5.65-5c-1-.79-2.06-1.49-3.1-2.2s-2.08-1.34-3.3-2a38.8,38.8,0,0,0-7.47-3.14c3.13,1.54,4.6,3,4.1,3.47s-3-.16-6.67-.75a36.36,36.36,0,0,1,6.3,2.44c1,.47,2,1.07,2.94,1.61s1.8,1.14,2.66,1.78c2.16,1.54,3.54,3.14,3.3,3.3s-2-.94-4-2.35c-.87-.61-1.77-1.17-2.67-1.75s-1.89-1.11-2.91-1.56a34.08,34.08,0,0,0-6.23-2.34,38.85,38.85,0,0,0-13-1.17A62,62,0,0,0,348,326.55c-3.85,1.05-7.62,2.3-11.31,3.71a264.11,264.11,0,0,0-24.95,12.3l-6,3.2c-2,1-3.89,2-5.87,2.95a110.39,110.39,0,0,1-12.06,4.91,14.8,14.8,0,0,1,5.42.13h0c2.56-1,5.07-2.05,7.55-3.19,5.55-2.83,11.09-6.16,16.79-9.3s11.53-6.26,17.67-8.95c3.06-1.36,6.21-2.59,9.41-3.7,1.6-.57,3.24-1.06,4.87-1.56s3.35-.92,5.09-1.28a45.76,45.76,0,0,1,10.86-1,35.4,35.4,0,0,1,11.13,2.12l1.34.51,1.3.58c.88.38,1.7.84,2.53,1.29a46.56,46.56,0,0,1,4.64,3,45,45,0,0,1,8,7.56c4.65,5.62,7.88,11.85,10.74,17.92,1.41,3,2.84,6.2,4,9.4s2.28,6.49,3.18,9.8a112.18,112.18,0,0,1,3.6,20.19,5.59,5.59,0,0,1,0,2,4.64,4.64,0,0,1-.32-1.74,113.31,113.31,0,0,0-4.82-24.2,107.22,107.22,0,0,0-4.4-11.58c-1.69-3.72-3.39-7.37-5.41-11l0,.06c.25.63.18.81-.26.22a16.31,16.31,0,0,1-1.28-2.28c-.31-.72-.15-.73.24-.23a56.32,56.32,0,0,0-7-9.69,47.86,47.86,0,0,0-4.4-4.26,45.94,45.94,0,0,0-5-3.6,36.44,36.44,0,0,0-5.55-2.9,35.51,35.51,0,0,0-6.05-1.85,38.52,38.52,0,0,0-12.37-.46,61,61,0,0,0-11.48,2.6c-3.64,1.14-7.2,2.47-10.66,3.94a201.47,201.47,0,0,0-19.87,10c6-3.14,12.16-6.2,18.56-8.83,3.19-1.32,6.45-2.52,9.77-3.56A78.27,78.27,0,0,1,356,327.1a43,43,0,0,1,10.9-.57,34,34,0,0,1,10.76,2.73,40.73,40.73,0,0,1,9.22,5.84,44.22,44.22,0,0,1,7.35,7.83,65.35,65.35,0,0,1,5.45,7.49,8.47,8.47,0,0,1,.93,2.08c0,.26-.38-.22-.83-.95s-.89-1.45-1.36-2.16c2.6,4.59,3.75,8.45,3.14,8.66-.75.06-3.12-3.67-5.87-8.2A45.53,45.53,0,0,0,381,334.76a30.94,30.94,0,0,0-9.68-4,33.71,33.71,0,0,0-10.46-.62c-1.51.17-3,.44-4.49.76s-2.93.88-4.36,1.41a42.25,42.25,0,0,1,16-1.3,29.16,29.16,0,0,1,7.63,2.08,34.85,34.85,0,0,1,6.84,4,44,44,0,0,1,10.75,11.66A123.21,123.21,0,0,1,400.84,363c.82,1.66,1.29,3.17,1.1,3.3s-1-1.15-1.8-2.79A135.38,135.38,0,0,0,393,351.26a45.78,45.78,0,0,0-9-10.07,35.52,35.52,0,0,0-5.48-3.69,28.33,28.33,0,0,0-5.86-2.45,29.31,29.31,0,0,0-12.6-.59,49.65,49.65,0,0,0-6.49,1.48c-2.17.64-4.4,1.41-6.57,2.21a138.2,138.2,0,0,0-12.9,5.65c-4.25,2.08-8.46,4.38-12.7,6.72s-8.46,4.75-13,7.14a126.22,126.22,0,0,1-18.17,9.78,133.73,133.73,0,0,1-20.05,6.83c1.74-.25,3.54-.52,5.32-.86a110.6,110.6,0,0,0,31.66-11c4.84-2.56,9.06-5.2,13.26-7.73s8.26-5,12.35-7.35,8.19-4.49,12.4-6.35a79,79,0,0,1,12.73-4.6,29.9,29.9,0,0,1,12.48-.65,24.64,24.64,0,0,1,6,1.91c1,.43,2,1,2.94,1.57l1.43.91c.47.32.92.67,1.38,1a3.41,3.41,0,0,1,1.24,1.3c0,.17-.57-.14-1.27-.71a33.76,33.76,0,0,0-5.54-3.35,22.91,22.91,0,0,0-5.65-1.89,28.29,28.29,0,0,0-11.81.42,50.45,50.45,0,0,0-6.08,1.82c-2.09.76-4.19,1.58-6.26,2.5-4.15,1.81-8.27,3.89-12.45,6.18-6.94,3.82-13.63,8.05-20.57,12.22A143.42,143.42,0,0,1,291,370.9a122.27,122.27,0,0,0,23.17-10.53c6.86-3.94,13.27-7.88,19.69-11.38a127,127,0,0,1,19.49-8.87c6.46-2.23,12.52-3.19,18.14-1.73a7,7,0,0,1,2.47,1,1.15,1.15,0,0,1,.62,0c.36.11.71.25,1.08.38a9,9,0,0,1,1.12.45l1.17.54c.38.19.76.41,1.14.61.79.4,1.51.91,2.28,1.38s1.48,1.05,2.17,1.65a4.62,4.62,0,0,1,1.31,1.48C385,346.3,384.64,346.08,384,345.57ZM215.12,177.9l-.24-.06.65-.06,1.39.56Zm-4.75,9.32h0l-.82-.26Zm75.32,80.64c1.16-1.88,2.31-3.76,3.47-5.63s2.27-3.93,3.32-5.93A103.79,103.79,0,0,0,298,243.75a86.57,86.57,0,0,0,5.27-27.42,78.93,78.93,0,0,1-1.11,13.78,83.66,83.66,0,0,1-2.63,10.25,91.63,91.63,0,0,1-3.74,9.75c-1.41,3.16-3,6.23-4.7,9.23l-1.32,2.22-1.34,2.1ZM206.59,178a12.89,12.89,0,0,1,3.38.46,5.84,5.84,0,0,1,1.42-1.18,39.94,39.94,0,0,1,4.5-2.32c-.43-.24-.07-.4.07-.55l.47-.4-5.11,2C209.77,176.64,208.18,177.48,206.59,178Zm-8.46,8.89-.25,0-.27-.72Zm.5,1.19.26-.1C199,188.22,198.89,188.2,198.63,188.07Zm2.37-.87a2.27,2.27,0,0,0-.51-.06Zm15.91,13.89-2-3.08,1.83,3Z"/><path d="M284.32,216.5l.37,0a.78.78,0,0,1-.56.47c3.49-.1,6-3,7.23-5.78a1.39,1.39,0,1,0-1.15-2.45,3.26,3.26,0,0,1-.68.05,13.73,13.73,0,0,0-5.57.27h1.29a5.25,5.25,0,0,0-1.61.53l.41.24a4.28,4.28,0,0,0-4.14,3.6,3,3,0,0,0,3.49,3.07Z"/><path d="M289.52,218.39c-1.13.11-2.21.22-3.34.31l-.32-.11.76.92,0-.07a6.15,6.15,0,0,1,2.18-3.42l.32-.4a.94.94,0,0,0,0-.75,1.08,1.08,0,0,0-1.49-.46l-.7.31c-1.95.42-4.39,2-4,4.21.1.5.62.85,1,1.25a1.56,1.56,0,0,0,2.13.36,1.49,1.49,0,0,0,.63-2l.48-.12-.14.42c-.18-.69.4-1.27.71-1.89l.67-.65-1.48-1.2-.27.45.2.11a17.39,17.39,0,0,1-1.55,2.59l-.62,1.24a.81.81,0,0,0,.77.91h.68l-.34,0c1.27-.39,2.51-.93,3.79-1.25a.41.41,0,0,0,.35-.43A.33.33,0,0,0,289.52,218.39Z"/><path d="M286,221.05a1,1,0,0,0-.71.19v.19l.51,0C286.16,221.47,286.18,221.25,286,221.05Z"/><path d="M285.29,221.43h-.22l.2.07v-.06Z"/><path d="M369.85,210.39a12.17,12.17,0,0,0,6.78.45,17.9,17.9,0,0,0,7.32-4.1c.16-.15.26-.31.21-.37s-.21,0-.36.15a17.92,17.92,0,0,1-7.22,4,11.86,11.86,0,0,1-6.61-.47c-.16,0-.36,0-.39,0S369.68,210.34,369.85,210.39Z"/><path d="M406.47,180c0,.2,0,.22.15,0a1.74,1.74,0,0,0,.23-.65c0-.16-.06-.18-.15,0A1.91,1.91,0,0,0,406.47,180Z"/><path d="M410.5,183.35c-.3,1.16-.52,2.28-.73,3.29a2,2,0,0,1-.2.52c.12,0,.13.22,0,.64a83.79,83.79,0,0,1-10.84,25.39,1,1,0,0,1,0,.51,8.15,8.15,0,0,1-1.92,3l-.8.79a36.83,36.83,0,0,1-11.4,8.2c-.43.28-.9.57-1.41.86a13.52,13.52,0,0,1-1.71.73,20.28,20.28,0,0,1-3.12,1.24,21.26,21.26,0,0,1-3.34.86,24.12,24.12,0,0,1-3.45.44,25.87,25.87,0,0,1-3.4,0c.26.13.42.26.4.38-.12.28-1.19.38-2.4.22-.59-.08-1.14-.19-1.72-.29a44.57,44.57,0,0,0,5.14.9l.75.07,1.55,0a12.08,12.08,0,0,0,1.58-.05c1.07-.11,2.15-.18,3.23-.37s2.33-.52,3.46-.83,2.15-.79,3.21-1.21,2-1,3-1.49,1.86-1.11,2.7-1.73a38.18,38.18,0,0,0,8.4-8.27,56.07,56.07,0,0,0,5.55-9L404.1,206l1-2.29c.32-.77.66-1.52.95-2.29l.84-2.3a1.9,1.9,0,0,1,.33-.65c.11-.09.17,0,.09.19-.28,1-.56,2-.84,3s-.63,2-.93,2.92c-.59,2-1.37,3.88-2.13,5.87a44.31,44.31,0,0,1-7.56,12.37,38.06,38.06,0,0,1-8.16,7c-.8.52-1.66,1-2.5,1.44s-1.8.84-2.72,1.25l-1.4.58c-.47.19-1,.31-1.48.47-1,.29-2,.59-3.05.82a40.83,40.83,0,0,1-12,.48l-2.67-.31-2.42-.39c-.84-.13-1.53-.27-2.27-.4l-2.14-.4-2-.52-1.87-.44-.92-.2-.86-.17-1.7-.31a36,36,0,0,0-6.14-.45,39.11,39.11,0,0,0-11.41,1.92,51.5,51.5,0,0,0-8.06,3.4c-2.79,1.71-5.5,3.43-8.25,5.42-1.27,1.24-3.4.89-4.83-.86a4.71,4.71,0,0,1-1-3.64l-.41.24-.76.22a3.15,3.15,0,0,1-2.3-.32l-1-.46c-1.62-1.07-3.5-1.59-5.14-2.75l-.31-.67-.24-.08a3.75,3.75,0,0,1-1.95-1l-.48-.74a8.06,8.06,0,0,1-1-2.76,3.12,3.12,0,0,1-.51-1,4.27,4.27,0,0,1-1.91-2.18.59.59,0,0,1-.44-.75.6.6,0,0,1,.19-.3h0a6.35,6.35,0,0,0-.61-.25l-.38.1-1.12.42a3,3,0,0,1-1-.15c-1.38-1-1.38-1-1.73-1.55a1.55,1.55,0,0,1,0-.21l-.65.08a1.45,1.45,0,0,1-.32-.1c-.24-.28-.24-.28-.38-.34a1.57,1.57,0,0,1-.19-.21c-.06-.46-.05-.46-.12-.56a1,1,0,0,1,0-.23c.15-.26.21-.37.24-.41l1.06.41-.09-.34.38.27-.31-.27.39,0-.49-.08a3.08,3.08,0,0,0,.9-.48,1.37,1.37,0,0,0,.45-.37l-.15-.16,1.45-.59.29.12a.35.35,0,0,1,.22-.32l.37-.16,0-.09,0,0,.18-.33,0-.08h0l.76-1.44a3.62,3.62,0,0,1,.67-.2l-.27,0c-.17,0-.27-.38-.34-.37a23.86,23.86,0,0,0-5.27,1.71.61.61,0,0,1-.82,0,.52.52,0,0,1,.08-.77c1.91-3.6,6.16-5.83,10.31-6.37,1-.32,2-.65,3-1l-.21-.08.85-.12.08,0-.84-.28-.46,0c-2.26.85-4.67,1-7,1.68-1.26.35-2.54.38-3.79.64a.47.47,0,1,1-.4-.83c3.17-2.45,7.59-4.3,11.48-3.81a4,4,0,0,1,2.1-.35h0l-.64-.26c.56-.12,1,.13,1.55.1l-.47-.55c2.68-.68,5.36-1.94,8.12-1.81.1,0,.2,0,.3,0a13.5,13.5,0,0,1,1.36-1.12c.12-.09.25-.17.38-.25l.1-.06.25-.1.51-.19c.69-.25,1.41-.49,2.16-.71l-3.09.63c1-.42,2.1-.85,3.19-1.23s2.27-.64,3.47-.9a42.74,42.74,0,0,1,5.08-.65,38,38,0,0,1,5,0,21.83,21.83,0,0,1,7.68,1.75,70.32,70.32,0,0,1,18.51,2.77c5.82,1.62,10.94,3.74,14.84,4.82.37.08.68.29.71.47s-.28.24-.66.16c-2.8-.56-6.31-1.76-10.2-2.95a88,88,0,0,0-12.62-3,77.68,77.68,0,0,1,10.48,3.17c3.3,1.2,6.4,2.52,9.15,3.52.73.23,1.38.4,2.07.61s1.24.37,1.86.63a8.94,8.94,0,0,0,1.1.25l1.05.23,1,.1a5,5,0,0,0,.93.07,9,9,0,0,0,1.8-.09c.3,0,.59-.06.9-.11l.91-.25a12.79,12.79,0,0,0,3.74-1.62l.93-.58.92-.7A19.76,19.76,0,0,0,384,208a43.09,43.09,0,0,0,5.43-6.66,73.53,73.53,0,0,0,4.52-8.11c1-2.06,1.9-4.21,2.8-6.29.44-1,.83-2.13,1.26-3.19s.85-2.1,1.21-3.2c.76-2.16,1.6-4.28,2.33-6.5s1.56-4.42,2.3-6.73c.37-1.23.95-2.31,1.26-2.38s.27.88-.1,2.12c-2.74,9.73-5.85,19.25-10.23,27.93a57.11,57.11,0,0,1-7.75,11.75,28.46,28.46,0,0,1-4.83,4.31,16.54,16.54,0,0,1-5.28,2.47,13,13,0,0,1-4.48.43.51.51,0,0,1,0,.17c0,.22-.15.4-.42.55a7,7,0,0,0,1.36.08,6.67,6.67,0,0,0,1.34,0q.66-.08,1.35-.12c.45-.1.91-.21,1.38-.3,5-1.94,9.28-6.43,13.62-12a102.21,102.21,0,0,0,7.92-11.88,164,164,0,0,0,6.26-17.25,1.28,1.28,0,0,1,.26-.54c.08-.07.09.07,0,.32-.54,2.07-1,4.19-1.7,6.26s-1.27,4.19-2,6.25c.45-.57.84-.86,1.08-.71s.28.75.13,1.58l1.17-2.79c.23-.58.5-1,.62-.94s.07.57-.13,1.13c-.8,1.9-1.55,3.83-2.38,5.7s-1.67,3.76-2.65,5.55a68.6,68.6,0,0,1-7.27,12.6,3.33,3.33,0,0,1,1.46-.66h0l1.31-1.86A123.46,123.46,0,0,0,404,186c2.47-6.7,4.65-13.59,6.68-20.58.08-.27.19-.48.25-.47s0,.23,0,.47c-.62,2.11-1.25,4.21-1.87,6.31s-1.32,4.17-2,6.24h0c.09-.16.16-.17.15,0a1.93,1.93,0,0,1-.22.65c-.11.17-.17.13-.16,0a161.65,161.65,0,0,1-9,22.26,140.35,140.35,0,0,0,9-20.16l.6-2.36a1.28,1.28,0,0,1,.26-.55c.07,0,.08.13,0,.35s-.1.44-.16.66c.47-1.32,1-2.27,1.34-2.15s.19,1.41-.3,2.8c-.62,1.86-1.22,3.72-1.87,5.57s-1.38,3.67-2.12,5.48l-.46,1.18-.36,1.24c1.34-2.74,2.47-5.57,3.63-8.39s2.18-5.68,3.1-8.57c.15-.5.37-.89.48-.87s.08.45-.07.95a152.56,152.56,0,0,1-4.79,15.49,90.83,90.83,0,0,1-7.07,15,54.89,54.89,0,0,1-5.6,10.23l1-1.12c4.39-4.86,6.92-10.14,9.07-15.3s3.68-10.44,5.48-15.91a.92.92,0,0,1,.27-.51c.07,0,.06.2,0,.48-1.72,5.37-3.06,10.4-5.28,15.71a93,93,0,0,1-6.33,12.53,65.17,65.17,0,0,0,6.65-12c.82-2.06,1.72-4.08,2.42-6.16l1.12-3.09c.35-1,.69-2.09,1-3.13a3.12,3.12,0,0,1,.41-.93.34.34,0,0,1,0-.23c.24-1.09.5-2.26.78-3.45a1.35,1.35,0,0,1,.27-.59C410.53,182.94,410.55,183.09,410.5,183.35ZM298.14,218,298,218h.4l.84.5Zm-3.34,5.7h0l-.49-.25Zm57.39-16.83a107.51,107.51,0,0,0-15.52-3.25c1.31,0,2.6,0,3.91.18A62.67,62.67,0,0,1,352.19,206.88Zm-59.26,10.45a7.25,7.25,0,0,1,2,.59,3.22,3.22,0,0,1,.92-.66,23.44,23.44,0,0,1,2.8-1.18c-.26-.2,0-.28.06-.36l.29-.24-3.16.93C294.89,216.69,293.91,217.12,292.93,217.33Zm-5.49,5-.14,0-.12-.48Zm.22.8.16,0C287.88,223.25,287.8,223.22,287.66,223.11Zm1.46-.31a.83.83,0,0,0-.31-.09Zm8.67,10.39-1-2.14.87,2.1Z"/></g></g></svg>