<svg xmlns="http://www.w3.org/2000/svg" viewBox="0 0 400.84 492.69"><g id="Layer_2" data-name="Layer 2"><g id="Layer_1-2" data-name="Layer 1"><path d="M203.5,179.51l.63-.07a1.49,1.49,0,0,1-.82,1,12.81,12.81,0,0,0,6.91-4.51,20.58,20.58,0,0,0,3.71-7c1.3-.86,1.84-2.32,1.2-3.3s-2.27-1.08-3.65-.2a5.71,5.71,0,0,1-1.11.29,24.53,24.53,0,0,0-9.31,2.19l2.18-.42a9.56,9.56,0,0,0-2.61,1.36l.75.24c-3.55.86-6.37,4.17-6.09,7.21s3.36,4.61,6.69,3.66Z"/><path d="M212.59,180.75c-1.8.57-3.6,1.08-5.42,1.62l-.54-.06,1.49,1.2-.07-.1c-.11-2.13,1.25-4.31,2.69-6.17l.44-.74a1.4,1.4,0,0,0-.14-1.19,1.83,1.83,0,0,0-2.58-.26l-1.08.73c-3.12,1.3-6.81,4.76-5.49,8.1.31.77,1.27,1.15,2,1.66a2.68,2.68,0,0,0,3.63-.18,2.46,2.46,0,0,0,.46-3.46l.76-.35-.11.72c-.5-1,.32-2.16.66-3.25l.94-1.25-2.75-1.43-.33.82a2.79,2.79,0,0,1,.36.1,33.88,33.88,0,0,1-1.88,4.66l-.69,2.2a1.28,1.28,0,0,0,1.53,1.19l1.13-.24-.58.05c2-1.07,3.87-2.35,5.89-3.28a.71.71,0,0,0,.46-.8A.56.56,0,0,0,212.59,180.75Z"/><path d="M207.55,186.19a1.66,1.66,0,0,0-1.11.56l0,.3.85-.15C207.93,186.8,207.89,186.44,207.55,186.19Z"/><path d="M206.47,187.05l-.35.06.34,0,0,0Z"/><path d="M390.54,310.67a104.63,104.63,0,0,1,7,21.55,122,122,0,0,1,2.63,21.69,110.67,110.67,0,0,1-1.43,22.25,86.11,86.11,0,0,1-7.21,22.9l-.67,1.42-.8,1.43-1.63,2.84-.84,1.4-.9,1.34c-.62.88-1.21,1.78-1.87,2.64a69.16,69.16,0,0,1-8.88,9.75,63.36,63.36,0,0,1-23.12,13.26,66,66,0,0,1-13,2.73c-1.09.1-2.19.2-3.29.27l-3.28.1c-2.13,0-4.22-.07-6.27-.25a93.91,93.91,0,0,1-22.49-4.83,12.92,12.92,0,0,0-3.49-.9c-.13.11,1.18.75,2.87,1.31a96.77,96.77,0,0,0,22.53,5c1,.08,2.07.16,3.12.22l3.17.07c2.19,0,4.41-.09,6.62-.32a67.16,67.16,0,0,0,13.09-2.61,64.12,64.12,0,0,0,23.42-13.14,66.4,66.4,0,0,0,9-9.73c.7-.86,1.29-1.76,1.91-2.65s1.26-1.76,1.79-2.72l1.65-2.85c.52-.95,1.13-1.91,1.54-2.87a84.67,84.67,0,0,0,7.43-23,111,111,0,0,0,1.58-22.34,122.77,122.77,0,0,0-2.5-21.77,106.94,106.94,0,0,0-6.84-21.64,19,19,0,0,0-2.15-3.76C389.11,307.39,389.67,308.83,390.54,310.67Z"/><path d="M108,355.92c1.07-.34,1-.46-.15-.3a19.9,19.9,0,0,0-3.77.88c-.88.33-.81.48.17.28S107.15,356.22,108,355.92Z"/><path d="M116.36,343.85l2.59-.53,2.59-.38,5.06-.75,4.91-.47,2.37-.24,2.32-.11c1.14-.05,2.42,0,3.38,0-.41-.2,1-.48,3.59-.36l4.85.17,4.87.45c1.63.11,3.24.41,4.86.63l2.45.37c.85.15,1.77.37,2.66.57,3.44.81,6.39,1.68,9.44,2.58s6,1.83,9,2.77c12,3.79,23.86,7.9,35.82,12.15s24,8.67,35.91,13.21,23.92,9.18,35.8,13.94a6.83,6.83,0,0,1,2.23.29,62.52,62.52,0,0,1,7.26,2.32c2.88,1.07,6,2.36,9.16,3.65,1.55.67,3.09,1.31,4.61,1.9,2.31.87,4.58,1.66,6.81,2.33s4.39,1.17,6.51,1.56a42.23,42.23,0,0,0,6.16.69c1,.06,1.93,0,2.86,0s1.86-.13,2.77-.28A28.94,28.94,0,0,0,356,389.57c.45-.64.81-1.41,1.25-2.14s.74-1.57,1.17-2.35a25.32,25.32,0,0,0,1.15-2.6c.19-.45.39-.91.58-1.38s.33-1,.5-1.51c4.05-13.9,2.68-31.87-2.63-46.72.16,1,.1,1.63-.14,1.7s-.85-.92-1.47-2.23c-.31-.65-.62-1.44-1-2.23s-.72-1.73-1.12-2.57-.78-1.7-1.22-2.48-.83-1.59-1.31-2.3c.34.5.58,1.13.88,1.68a14.2,14.2,0,0,1,.85,1.75l.81,1.82.73,2,.38,1c.12.34.21.71.32,1.06l.65,2.13c.38,1.46.75,2.93,1.07,4.42.18.87.32,1.68.43,2.42a87.06,87.06,0,0,1,1.66,20.54c-.34,7.44-1.72,14.56-4.21,19.89a13.09,13.09,0,0,1-1,1.91,13.68,13.68,0,0,1-1,1.82l-.57.9c-.19.3-.41.56-.62.84s-.39.57-.61.83l-.66.77a26.56,26.56,0,0,1-2.79,2.82,26.91,26.91,0,0,1-6.61,4.07c-.63.21-1.22.51-1.86.68l-.95.31-1,.24a28.61,28.61,0,0,1-8.43.75,53.76,53.76,0,0,1-10.05-1.57c-3.56-.9-7.28-2.08-11.15-3.48s-7.79-3-12.09-4.68-8.43-3.34-12.63-5c-8.4-3.29-16.82-6.42-25.22-9.52s-16.79-6.13-25.19-9.1-16.81-5.85-25.24-8.7a25.89,25.89,0,0,1-3.75-1.46c-.6-.36-.42-.48.83-.09l31.4,9.63c10.26,3.22,20.43,6.42,30.76,9.78s20.77,7,31.63,10.87c2.78,1,5.31,1.92,7.86,2.8s5,1.67,7.43,2.37a67,67,0,0,0,13.41,2.77c.61.06,1.19.09,1.76.1s1.12,0,1.66,0,1.06-.05,1.58-.07.92-.12,1.38-.15a19.71,19.71,0,0,0,5-1.4,19.34,19.34,0,0,0,7.63-5.89c.24-.36.53-.66.76-1s.48-.73.72-1.1.45-.79.68-1.18.35-.8.55-1.19a22,22,0,0,0,1.07-2.59,9.39,9.39,0,0,0,.47-1.47c.15-.52.31-1,.47-1.53a59.64,59.64,0,0,0,1.55-14.94,77.73,77.73,0,0,0-2-16.37,65.81,65.81,0,0,0-2.29-7.61l-.65-1.77-.73-1.63-.35-.82-.38-.69-.71-1.37c-.52-.79-.95-1.68-1.49-2.35s-1-1.38-1.5-2.06a10.32,10.32,0,0,1-.79-1c-.28-.31-.59-.59-.87-.91s-.63-.61-.93-.94a9.72,9.72,0,0,0-1-.95c-.18-.15-.36-.32-.54-.49s-.41-.33-.62-.49c-.43-.33-.79-.68-1.31-1s-.91-.71-1.46-1.06l-1.63-1.1c-2.29-1.5-5.09-3.09-8.22-4.84l-1.22-.72-1.29-.73-1.28-.75-1.05-.63-2-1.25L316.1,307c-2.78-1.53-5.63-3-8.59-4.34a103.23,103.23,0,0,0-19.43-6.46c-1.79-.42-3.61-.82-5.53-1.21l-6-1.14c-2.08-.4-4.36-.86-6.85-1.41-.65-.16-1.23-.28-1.93-.47l-1.06-.28-.61-.16-.16,0c-.05,0-.09-.14-.13-.2a.36.36,0,0,0-.07-.1l-.08,0-.16-.05c-.86-.28-1.73-.52-2.58-.82s-1.66-.67-2.46-1.05-1.55-.88-2.35-1.25l-1.21-.55a2.93,2.93,0,0,1-.58-.31l-.51-.44-1-.88c-.32-.3-.61-.64-.91-1a17.81,17.81,0,0,1-1.68-2c-.52-.72-1.09-1.33-1.64-2l-.21-.25c-.05-.09-.09-.2-.14-.3l-.27-.59-.56-1.19c-.33-.81-.59-1.65-.89-2.47a11.24,11.24,0,0,1-.41-1.24l-.17-.63c-.05-.21-.06-.45-.09-.68-.1-.91-.2-1.82-.27-2.72l-.12-1.35a6.92,6.92,0,0,1-.06-1.37l.13-2.78a4,4,0,0,1,.28-1.39l.41-1.39c.59-1.88,1-3.64,1.48-5.45,0-.24.4-.39.43-.59l.23-.59.2-.49.19-.43c.24-.58.49-1.14.76-1.68a58.59,58.59,0,0,1,7.64-12c.73-.93,1.57-1.82,2.37-2.71s1.71-1.75,2.71-2.61a30.81,30.81,0,0,1,3.14-2.46,26.26,26.26,0,0,1,3.59-2.16l.93-.5,1-.42,2-.79c.67-.27,1.37-.39,2.06-.6s1.4-.4,2.06-.49c1.34-.21,2.73-.47,4-.54.62-.06,1.3-.14,1.87-.17l1.74-.1,1.62-.11,1.53-.12a26,26,0,0,0,2.59-.39,7.52,7.52,0,0,0,1.09-.28l.89-.35a2.45,2.45,0,0,0,.7-.42c.19-.16.45-.24.56-.44a3.49,3.49,0,0,0,.63-1l.2-.48.17-.58c.1-.27.24-.84.36-1.25s.27-.95.41-1.46a57,57,0,0,0,1.46-7.27,21.75,21.75,0,0,0-.08-7.14,10.36,10.36,0,0,0-.91-2.62,8.05,8.05,0,0,0-1.29-1.72,13.6,13.6,0,0,0-2.27-1.79,25.85,25.85,0,0,0-3.18-1.74,40.75,40.75,0,0,0-9.14-2.94,23.36,23.36,0,0,0-4.78-.56,14.28,14.28,0,0,0-3.08.57,21.85,21.85,0,0,0-2.79,1.19,33,33,0,0,0-2.92,1.77c-.24.15-.52.37-.77.55a7.54,7.54,0,0,0-.79.58l-.81.61a.73.73,0,0,0-.13.13l-.36.37c-.24.25-.48.47-.73.75l-.74.76-.75.81c-1,1.07-2.06,2.17-3.12,3.38s-2.14,2.44-3.22,3.79c-1.32,2.32-4.46,2.43-7.18.1A7.91,7.91,0,0,1,247,205l-.52.52-1.07.57a4.59,4.59,0,0,1-3.53.23l-1.64-.43c-2.81-1.17-5.86-1.39-8.81-2.7l-.71-1-.41,0a6,6,0,0,1-3.38-1l-1-1a13.27,13.27,0,0,1-2.54-4.05,4.88,4.88,0,0,1-1.13-1.36,6.76,6.76,0,0,1-3.72-2.84.94.94,0,0,1-.94-1,1.11,1.11,0,0,1,.22-.54h0a10.41,10.41,0,0,0-1.05-.2,6.07,6.07,0,0,1-.58.29l-1.69,1.07a5.61,5.61,0,0,1-1.76.12c-2.53-1-2.54-1-3.29-1.86a2.19,2.19,0,0,1-.12-.33c-.77.27-.82.29-1,.35a2.52,2.52,0,0,1-.56,0c-.48-.36-.48-.36-.72-.41a2.21,2.21,0,0,1-.37-.27c-.24-.72-.24-.72-.38-.85a1.63,1.63,0,0,1-.09-.37l.27-.74,1.87.28-.25-.51.7.3-.58-.34.65-.1-.83,0a5.37,5.37,0,0,0,1.34-1.07A2.32,2.32,0,0,0,210,185a2.84,2.84,0,0,1-.29-.2c1.11-.75,1.11-.74,2.21-1.43a3.79,3.79,0,0,1,.52.08.56.56,0,0,1,.28-.57l.56-.38,0-.16,0,0,.19-.58,0-.13h0c.14-.4.32-1,.89-2.53a10.08,10.08,0,0,1,1-.52,3.23,3.23,0,0,1-.44,0c-.3,0-.54-.52-.66-.48a39,39,0,0,0-8.23,4.48,1.09,1.09,0,0,1-1.36.33.82.82,0,0,1-.08-1.26c2.19-6.44,8.74-11.3,15.56-13.37,1.58-.8,3.15-1.61,4.77-2.4l-.38-.07,1.39-.43.13-.06-1.44-.2-.77.18c-3.65,2-7.61,3-11.4,4.72-2,.92-4.12,1.4-6.18,2.21a.89.89,0,0,1-1.22-.05.84.84,0,0,1,.37-1.13,34.67,34.67,0,0,1,8.49-6.45,24.51,24.51,0,0,1,10-3,7.61,7.61,0,0,1,3.51-1.11l.06,0-1.13-.25c.93-.33,1.75,0,2.66-.25l-.88-.72c1.12-.46,2.24-.95,3.38-1.45s2.28-1,3.44-1.45a24.57,24.57,0,0,1,7.17-1.78c.18-.05.36-.08.53-.11a20.57,20.57,0,0,1,2.45-1.92l.69-.43L246,152l0,0h0l.09,0c.54-.2,1.11-.37,1.67-.56,1.13-.36,2.25-.74,3.44-1A66.84,66.84,0,0,1,266.53,148,68.79,68.79,0,0,0,255.67,149c-1.78.29-3.48.69-5.2,1.09-.87.2-1.69.45-2.53.68l-1.27.36-.63.19-.25.08h0l0,0,.29-.11c.21-.08.44-.15.66-.22l1.34-.44c.89-.29,1.77-.59,2.71-.83l2.76-.75,2.85-.62a64.49,64.49,0,0,1,11.94-1.28,58,58,0,0,1,12.46,1.11,60.58,60.58,0,0,1,6.18,1.53c2,.68,4.08,1.38,5.82,2.16a79.2,79.2,0,0,1,13.55,7.58,68.41,68.41,0,0,1,12.19,10.77,50.65,50.65,0,0,1,9.23,14.77A42.76,42.76,0,0,1,330.85,202a47,47,0,0,1-2.64,14.39,48,48,0,0,1-5.49,11.24,41.56,41.56,0,0,1-7.35,8.34c-.64.58-1.38,1.11-2,1.63s-1.46,1-2.16,1.43a23.78,23.78,0,0,1-2.12,1.23c-.75.36-1.48.69-2.18,1l-.93.45-1,.35c-.67.23-1.35.44-2,.65a17.54,17.54,0,0,1-2,.41,18.46,18.46,0,0,1-2,.28,26.88,26.88,0,0,1-3.79,0c-.6,0-1.21-.06-1.78-.11l-1.62-.2c-.56-.06-1.07-.13-1.55-.22l-1.47-.22c-.88-.13-1.85-.29-2.65-.36l-1.23-.12c-.41,0-.76,0-1.14,0a14.33,14.33,0,0,0-2.12.12c-2.65.3-4.66,1.75-6.64,3.84a30.42,30.42,0,0,0-5,7.91c-.36.72-.63,1.48-.93,2.22s-.53,1.51-.74,2.26a21,21,0,0,0-.56,2.24c0,.09,0,.2-.06.26l-.06.16c0,.12,0,.18-.06.27l-.12.49a6.55,6.55,0,0,0,.14,4,3,3,0,0,0,1.38,1.42,3.81,3.81,0,0,0,.94.36,2.51,2.51,0,0,0,.49.12,2.58,2.58,0,0,0,.6.07c1.29,0,2.83-.13,4.54-.32l5.34-.61A182.33,182.33,0,0,1,305,265.19a119.59,119.59,0,0,1,12.89.76c2.16.24,4.32.55,6.49.91s4.31.8,6.44,1.32,4.26,1.07,6.38,1.66c1.88.52,3.69,1,5.63,1.63A121.88,121.88,0,0,1,355,275.85a75.45,75.45,0,0,1,13,7.09A68.67,68.67,0,0,1,380,293.51a47.82,47.82,0,0,1,3.65,4.76,13.6,13.6,0,0,1,1.51,2.85c0,.27-.47-.15-1.26-1.08-.39-.47-.86-1.05-1.4-1.74L380.61,296a65.15,65.15,0,0,0-8.12-8.07c-1.46-1.18-3-2.33-4.48-3.4s-3.06-2.07-4.61-2.92l-2.32-1.33-2.31-1.17c-1.56-.81-3.06-1.42-4.59-2.12-3-1.24-6-2.34-8.81-3.24l-2.12-.68-2.06-.61c-1.4-.42-2.68-.78-4-1.16l-4.49-1.23L328.08,269a117,117,0,0,0-18.51-2.36,142,142,0,0,0-18.05.35c-5.82.45-11.48,1.22-16.44,1.67-.62.06-1.22.11-1.79.14s-1.13.05-1.67.07c-.28,0-.53,0-.76,0s-.44,0-.6,0a8,8,0,0,1-.85-.19,3.94,3.94,0,0,1-2.7-2,4.07,4.07,0,0,1-.44-1.69,3.49,3.49,0,0,1-.08-.86,6.58,6.58,0,0,1,.05-.88,10.3,10.3,0,0,1,.31-1.73c.07-.32.12-.48.26-1a14.41,14.41,0,0,1,.42-1.66,11.82,11.82,0,0,0-.38,1.38c-.09.53-.23.8-.26,1a14.11,14.11,0,0,0-.35,1.46,9.29,9.29,0,0,0-.15,1.49v.38l.05.36a1.68,1.68,0,0,1,0,.39c0,.13.05.25.07.38a3.84,3.84,0,0,0,1.51,2.54,6.18,6.18,0,0,0,.64.4c.25.08.46.22.71.28a6.25,6.25,0,0,0,.74.21l.37.1c.15,0,.26,0,.48,0,1.66,0,3.7-.07,5.83-.24l6.75-.58c4.66-.43,9.58-.78,14.6-.86a116.8,116.8,0,0,1,30.8,3.41c1.27.34,2.56.64,3.83,1l3.77,1.15c2.24.7,4.52,1.45,6.89,2.26A103.32,103.32,0,0,1,358,281.79a67,67,0,0,1,15.29,10.89,58.2,58.2,0,0,1,11.3,15.22c1,1.71,1.74,3.45,2.59,5.18s1.43,3.4,2.13,5.11,1.2,3.39,1.79,5.09,1,3.4,1.49,5.1a115.67,115.67,0,0,1,3.51,20.47c1.09,13.7.22,27.78-4.9,42.15-.33.89-.61,1.79-1,2.68L389,396.36c-.4.89-.8,1.78-1.23,2.67l-1.46,2.65-1.51,2.62-1.67,2.5c-.55.83-1.16,1.64-1.78,2.44s-1.22,1.61-1.9,2.38a64,64,0,0,1-8.85,8.63A60.2,60.2,0,0,1,360,427a62.21,62.21,0,0,1-24.17,6.46c-1,0-2.1.1-3.14.12l-3,0c-2-.08-4-.2-5.94-.43a90.32,90.32,0,0,1-11.29-2,131.32,131.32,0,0,1-17-5.46c-5.17-2-10.05-4.18-14.47-6.06-9-3.9-18-7.58-26.94-11.33s-17.92-7.4-27.06-11.05-18.41-7.42-28-11.15l-20-7.72-9.77-3.67-4.82-1.76-4.7-1.64-2.18-.72c-.69-.21-1.57-.53-1.95-.62l-.73-.21a4.91,4.91,0,0,0-.83-.23l-2.14-.45-2.13-.46-2.14-.34c-1.44-.22-2.86-.49-4.31-.59s-2.87-.34-4.32-.41l-4.35-.19c-1.46,0-2.92,0-4.38,0l-2.19,0-2.2.16a119.07,119.07,0,0,0-17.74,2.56L103.73,371c-1.49.38-3,.7-4.47,1.22l-4.46,1.4c-.75.24-1.5.44-2.24.72l-2.22.84c-3,1.13-6,2.13-8.93,3.5s-6,2.49-8.9,4c-6,2.77-11.84,6.05-17.79,9.39-3.1,1.9-6.15,3.66-8.58,4.93a25.12,25.12,0,0,1-4.61,2.3c-.51.06.29-.73,2-2.07.43-.33.9-.71,1.43-1.09L46.7,395c1.27-.83,2.71-1.76,4.27-2.74A225.38,225.38,0,0,1,88.56,373,146.11,146.11,0,0,1,108,366.87a123,123,0,0,1,19.61-2.9,104.14,104.14,0,0,1,19.36.8c1.59.27,3.19.43,4.76.81l2.37.49c.38.08.83.15,1.15.24l.89.26.88.25,1.17.38,2.39.77,5,1.75c6.83,2.45,13.76,5.09,20.69,7.76s13.89,5.39,20.83,8.16c13.89,5.56,27.83,11.19,41.74,17l20.87,8.82L280.18,416l10.62,4.63a140.14,140.14,0,0,0,24.38,8.34,80.35,80.35,0,0,0,14.19,2c1.25,0,2.49.06,3.75.06s2.58-.06,3.87-.18a60.14,60.14,0,0,0,22.51-6.29,57.82,57.82,0,0,0,12.95-9,60.7,60.7,0,0,0,10-11.9c.72-1.07,1.33-2.22,2-3.34s1.32-2.26,1.81-3.41a68.39,68.39,0,0,0,2.9-6.93A89.22,89.22,0,0,0,394,366.06a115,115,0,0,0-.71-23.06c-.08.21-.17.41-.28.42-.46.06-1-1.33-1.74-3.65a109.13,109.13,0,0,1,1.09,25.77,86.51,86.51,0,0,1-6,26.31l-2,4.57c-.7,1.52-1.58,3-2.38,4.51s-1.79,2.88-2.71,4.32-2,2.77-3.11,4.08a59.72,59.72,0,0,1-7.34,7.41,58.66,58.66,0,0,1-8.69,6,57.8,57.8,0,0,1-20,6.73,63.82,63.82,0,0,1-10.45.58,79,79,0,0,1-10-1c-12.93-2.19-24-7-34.19-11.55L255.26,404l-40.67-18.21c-13.16-5.87-26.1-11.58-39.18-17.08-4.2-1.57-8.4-3.09-12.52-4.49-1.06-.38-2-.66-3-1l-1.5-.48-1.25-.35c-.42-.11-.77-.24-1.27-.35l-1.5-.3-3-.61a101.39,101.39,0,0,0-24.51-1.29c-2.06.2-4.12.33-6.18.56l-6.19.94c-4.1.84-8.23,1.65-12.31,2.87l-3.07.83c-1,.3-2,.68-3,1-2,.7-4.06,1.34-6.08,2.09-4,1.66-8.06,3.09-12,5a19.8,19.8,0,0,1-3.11,1.27c-.5.11.13-.3,1.4-.92a153.87,153.87,0,0,1,33.78-12.39c1.46-.31,2.92-.72,4.39-1l4.42-.74c.74-.12,1.48-.26,2.22-.36l2.23-.22,4.45-.46a114.78,114.78,0,0,1,17.88.27c-3.7-.79-5.94-1.59-5.6-2.13.16-.32,1-.52,2.37-.66.68-.07,1.5-.11,2.44-.14.47,0,1,0,1.5,0l1.65.1c-.69-.1-1.38-.24-2.08-.31l-2.08-.2c-1.39-.11-2.78-.31-4.18-.36-2.8-.08-5.59-.29-8.4-.15-1.74.05-3.29,0-4.4,0s-1.79-.08-1.75-.23.72-.37,1.84-.57a41.86,41.86,0,0,1,4.31-.29c2.89-.16,5.78.06,8.66.13,1.44.08,2.87.26,4.31.38l2.15.2,2.13.32c1.42.24,2.85.39,4.26.69l4.23.88c.71.14,1.3.36,2,.53l1,.27,1,.34c1.39.46,2.76.87,4.16,1.39,11.2,3.93,22.42,8.36,33.57,12.8Q239.13,387.09,279,404c-3.48-2-6-3.76-7-4.94h0l-12.35-5.23q-28.55-11.26-57.56-22.24c-9.67-3.63-19.37-7.26-29.11-10.68l-3.66-1.28-3.64-1.22c-1.23-.43-2.43-.8-3.63-1.17l-1.81-.56-1.7-.45c-1.08-.33-2.37-.53-3.58-.77s-2.44-.52-3.68-.67c-2.48-.32-4.94-.74-7.44-.88a113.26,113.26,0,0,0-30,1.54,148.38,148.38,0,0,0-29.2,8.75l-3.55,1.47-1.78.74-1.74.83-7,3.33c-2.3,1.18-4.55,2.46-6.83,3.67l-3.42,1.85-3.32,2-6.67,4-6.49,4.33c-4.39,2.81-8.53,6-12.77,9.07a14.27,14.27,0,0,1-2.55,1.66,10.45,10.45,0,0,1,2.09-1.74l7.64-5.61c1.25-1,2.59-1.79,3.89-2.68l3.93-2.63L50,381.88l4-2.44,4-2.45,2-1.22,2.07-1.12a183.21,183.21,0,0,1,34-15.21l-.1,0c-1,.26-1.19.18-.18-.27a20.9,20.9,0,0,1,3.71-1.1c1.13-.23,1.07-.06.2.27A126,126,0,0,1,133.5,353a107.22,107.22,0,0,1,16.9,1.14c.7.1,1.41.17,2.1.3l2.08.4,2.08.4c.34.07.7.12,1,.2l1,.26c.65.18,1.26.31,1.94.53l2,.63c1.36.4,2.73.87,4.1,1.33,11,3.68,21.93,7.78,32.82,11.83s21.73,8.23,32.53,12.4c-19.92-8.08-39.91-16.05-60-23.41-2.51-.93-5-1.77-7.55-2.65l-3.75-1.21c-.62-.19-1.22-.34-1.82-.51a17.43,17.43,0,0,0-1.86-.46l-3.84-.78c-1.28-.28-2.58-.41-3.87-.62-2.58-.45-5.2-.62-7.8-.86a114.66,114.66,0,0,0-31.33,2.16l-3.33.87c-1.11.3-2.23.54-3.32.93L97,358a28.17,28.17,0,0,1-3.32,1c-.37,0,.47-.42,1.7-.88s2.45-.82,3.68-1.24c-7.68,2.25-13.63,4.1-13.74,3.49.08-.39,1.66-1.43,4.29-2.54,1.31-.58,2.86-1.23,4.58-1.91l1.33-.52,1.41-.44,3-.89a125.79,125.79,0,0,1,33.4-5.43c1.41-.07,2.82,0,4.24,0s2.83,0,4.24.15l4.22.33c1.42.08,2.81.35,4.21.52,2.82.32,5.58.94,8.36,1.46,2.76.69,5.45,1.55,8.13,2.43,2.33.75,4.66,1.48,7,2.28s4.7,1.42,7.05,2.15q-3.08-1.17-6.17-2.3c-2.06-.76-4.13-1.51-6.2-2.23s-4.17-1.42-6.27-2.1c-1.06-.32-2.16-.6-3.23-.91l-3.25-.67a109.21,109.21,0,0,0-26.39-2A131,131,0,0,0,103,351.68l-6.35,1.82L95.1,354l-1.56.55-3.11,1.1c-4.19,1.36-8.19,3.18-12.24,4.86-1.4.57-2.64,1.21-3.6,1.59s-1.58.6-1.65.51,1.91-1.48,4.68-2.75l5.31-2.4,2.66-1.2c.9-.38,1.82-.71,2.73-1.07l5.47-2.1c1.83-.69,3.72-1.21,5.58-1.83,3.71-1.29,7.56-2.13,11.38-3.11,1.92-.43,3.88-.74,5.82-1.12,1-.17,1.94-.37,2.92-.52l3-.36c3.93-.57,7.91-.76,11.89-.95l6,0c2,.06,4,.23,6,.34,4,.35,8,.88,11.91,1.63,1,.15,2,.41,3,.67.51.13,1,.25,1.53.39l1.43.42,2.87.86,2.8.9c14.89,4.87,29.47,10.24,44.07,15.74s29.11,11.2,43.61,17q14.61,4.95,29.25,10.16c4.87,1.74,9.84,3.56,14.56,5.19a144.26,144.26,0,0,0,14.05,4.11c-2.26-.72-4.56-1.54-6.89-2.4-3.71-1.39-7.43-2.94-11.18-4.54l-11.46-4.82c-7.62-3.13-15.13-6.16-22.61-9-15-5.76-29.65-11.17-44.36-16.34s-29.37-10.25-44.48-15.05c-3.79-1.2-7.61-2.37-11.61-3.46l-3.24-.76-3.08-.51c-1-.17-2.05-.36-3.09-.5l-3.11-.35a121.14,121.14,0,0,0-25.26-.08,13.66,13.66,0,0,1-3.35.17c-.2-.11.94-.37,2.67-.56a121.85,121.85,0,0,1,24.66-.27l3,.33c1,.1,2,.21,3,.39l3,.48,1.5.24c.51.09,1.05.23,1.58.35,4.25,1,7.8,2.12,11.58,3.25,14.79,4.61,29.28,9.53,44.33,14.89,12.46,4.42,24.56,8.87,36.43,13.29s23.52,8.8,35,13.2c-11.6-4.89-23.15-9.51-34.68-14s-23-8.77-34.59-12.94-23.1-8.29-34.82-12.22c-5.86-2-11.74-3.9-17.88-5.72-1.57-.45-3.06-.91-4.9-1.32l-1.31-.31c-.45-.11-.83-.15-1.24-.23l-2.44-.41-2.44-.41-2.46-.29c-1.64-.17-3.28-.42-4.93-.52-2.31-.09-4.62-.34-6.08-.55a4.58,4.58,0,0,1-1.31.17l-5.05.2c-1.7.1-3.44.3-5.19.45l-2.64.23-2.65.39c-1.77.27-3.57.51-5.35.8a22.17,22.17,0,0,1-3.83.54C114,344.46,114.84,344.19,116.36,343.85ZM226.57,177.46l-.25-.05.67-.09,1.47.53Zm-4,10h0l-.86-.25Zm55.06,82c-1.55.12-3.11.26-4.5.3a13.93,13.93,0,0,1-3.5-.12,6.26,6.26,0,0,1-2.18-.86A4,4,0,0,1,266,267a8.2,8.2,0,0,1-.22-4.63c.07-.39.18-.76.28-1.14a3.75,3.75,0,0,1,.17-.6c.07-.27.15-.65.23-1,.18-.66.41-1.33.6-2l.74-2a36.8,36.8,0,0,1,4.1-7.5,18.23,18.23,0,0,1,5.49-5.37,12.08,12.08,0,0,1,7.1-1.45c2.79.14,6,.93,10,1.2-3.89-.23-7-1-9.78-1.08a12,12,0,0,0-6.92,1.31,13.45,13.45,0,0,0-2.18,1.59l-1.05.93-1,1.1a32.15,32.15,0,0,0-3.56,5.24,37.29,37.29,0,0,0-2.63,5.89,30.9,30.9,0,0,0-.86,3c-.14.42-.18.63-.27.91s-.15.55-.2.83a9.63,9.63,0,0,0-.18,3.43,4.21,4.21,0,0,0,1.69,2.94,5,5,0,0,0,1.56.76,6.7,6.7,0,0,0,.85.23,3,3,0,0,0,.48.08l.68,0C273,269.8,275.3,269.67,277.67,269.5ZM217.91,178a12.51,12.51,0,0,1,3.47.32A5.34,5.34,0,0,1,222.7,177a39.3,39.3,0,0,1,4.33-2.69c-.47-.23-.11-.42,0-.59l.43-.45-5,2.4C221,176.38,219.47,177.36,217.91,178Zm-7.64,9.73H210l-.33-.73Zm.6,1.21.25-.11C211.27,189,211.14,189,210.87,188.91Zm2.28-1a1.71,1.71,0,0,0-.52,0Zm17.09,13.61-2.2-3.08,2.05,3Z"/><path d="M7.3,104.54l.59,0a1.28,1.28,0,0,1-.86.8,10.52,10.52,0,0,0,6.84-3.4,16.18,16.18,0,0,0,3.92-6.41A2.47,2.47,0,0,0,19,92.38a2.39,2.39,0,0,0-3.33-.65,3.86,3.86,0,0,1-1,.14,22.13,22.13,0,0,0-8.7.8l2-.07a7.19,7.19,0,0,0-2.48.94l.66.35C2.89,94.26.05,97.05,0,100s2.63,5,5.84,4.65Z"/><path d="M15.68,107.12c-1.73.31-3.47.55-5.24.79l-.51-.15,1.28,1.41-.05-.11c.13-2.09,1.61-4,3.09-5.68l.47-.66a1.45,1.45,0,0,0,0-1.19,1.77,1.77,0,0,0-2.41-.66c-.36.18-.71.39-1.06.58-3,.87-6.74,3.62-5.93,7,.2.79,1.06,1.32,1.69,1.93a2.51,2.51,0,0,0,3.44.44,2.38,2.38,0,0,0,.82-3.29l.74-.24-.17.7c-.36-1.1.52-2.07.93-3.11l1-1.11L11.28,102l-.37.76c.12.06.32.14.32.15a26.6,26.6,0,0,1-2.18,4.29l-.9,2a1.3,1.3,0,0,0,1.3,1.39l1.09,0-.55,0c2-.71,3.92-1.67,5.9-2.31a.67.67,0,0,0,.5-.73A.54.54,0,0,0,15.68,107.12Z"/><path d="M10.37,111.68a1.58,1.58,0,0,0-1.13.35v.3h.82C10.65,112.33,10.65,112,10.37,111.68Z"/><path d="M9.24,112.33H8.89l.32.11c0-.05,0-.05,0-.05Z"/><path d="M161.16,62.49c1.13.11,2.26.18,3.37.32l3.35.43,6.69.86,6.65,1.1,3.31.55,3.29.67,6.57,1.34,6.51,1.58,3.25.78c1.08.28,2.14.6,3.22.89l6.41,1.81c.58.15,1.08.22,1.13.11s-.35-.35-.89-.49l-6.42-1.82-3.22-.9-3.24-.79-6.51-1.59L188.07,66l-3.29-.68-3.31-.56-6.64-1.11c-2.23-.32-4.46-.58-6.69-.87s-4.47-.6-6.73-.76a1.87,1.87,0,0,0-1.2.15C160.18,62.3,160.6,62.44,161.16,62.49Z"/><path d="M280.86,112.62c-.39-.13-.43,0-.1.23a4.74,4.74,0,0,0,1.21.68c.33.11.38,0,.1-.23A4.47,4.47,0,0,0,280.86,112.62Z"/><path d="M273.86,117.83c-1.05-.47-2.07-.94-3.07-1.35s-2-.75-2.93-1.06a4.78,4.78,0,0,1-1-.48c0,.21-.42.15-1.19-.15a321.52,321.52,0,0,0-48.42-15.07,1.6,1.6,0,0,1-.82.26,17,17,0,0,1-6-.76l-1.75-.55c-1.78-.5-3.59-.88-5.38-1.33s-3.58-.9-5.39-1.25L192.57,95l-2.7-.55L187.15,94a40.76,40.76,0,0,1-5.16-.18c-3.19,0-6.39.11-9.58.14l-9.6.45c.39.17.62.36.61.56s-.48.42-1.09.56a10.39,10.39,0,0,1-2.26.25l-2.6,0c2.48.11,5,.13,7.43.4a9.07,9.07,0,0,1,1,.11c2.73.12,5.49.12,8.3.34a288,288,0,0,1,70.74,12.06,3.75,3.75,0,0,1,1.22.54c.18.17.09.27-.33.15-14.65-3.64-27.75-4.7-44-6.31A221.13,221.13,0,0,0,144.56,105a147.75,147.75,0,0,0-28.27,5.77,167.19,167.19,0,0,0-26.57,10.67c-1.5.67-2.91,1.52-4.36,2.26L81.09,126,77,128.4c-1.36.82-2.75,1.56-4,2.46l-1,.65-.49.32-.18.13-.63.47-1.27.93c-.84.61-1.71,1.17-2.51,1.83-1.63,1.26-3.26,2.48-4.92,3.67s-3.19,2.52-4.81,3.76a5,5,0,0,1-4,1.47,6.57,6.57,0,0,1-4.22-2.21A7.45,7.45,0,0,1,47,136.09l-.65.46-1.25.43a5.16,5.16,0,0,1-3.8-.3L39.64,136c-2.72-1.59-5.74-2.19-8.48-3.95L30.61,131l-.4-.11A6,6,0,0,1,27,129.44l-.83-1.15a13.48,13.48,0,0,1-1.88-4.36,4.72,4.72,0,0,1-.9-1.5,6.82,6.82,0,0,1-3.23-3.36.94.94,0,0,1-.77-1.16,1,1,0,0,1,.27-.49h0a7.83,7.83,0,0,0-1-.36c-.37.13-.6.19-.6.19-.93.42-.93.42-1.76.76a5,5,0,0,1-1.71-.17c-2.28-1.44-2.29-1.43-2.89-2.35a2.05,2.05,0,0,1-.07-.34l-1,.17a3,3,0,0,1-.53-.13c-.41-.43-.41-.43-.64-.52a2.25,2.25,0,0,1-.31-.32c-.13-.73-.13-.73-.24-.88a2.1,2.1,0,0,1,0-.38l.36-.66L11,113l-.17-.53.62.4-.51-.41h.63l-.79-.09a4.81,4.81,0,0,0,1.4-.82,1.94,1.94,0,0,0,.68-.63,1.89,1.89,0,0,1-.25-.24c1.13-.56,1.13-.56,2.24-1.07a4.49,4.49,0,0,1,.48.16.55.55,0,0,1,.32-.52l.56-.29.05-.16,0,0,.24-.56,0-.12h0c.16-.38.39-.95,1.08-2.35a6.26,6.26,0,0,1,1-.35c-.14,0-.28,0-.42-.06s-.46-.59-.58-.58c-.72.14-1.43.32-2.13.53s-1.36.51-2,.8c-1.34.58-2.66,1.23-4,1.85a1,1,0,0,1-1.31.09.82.82,0,0,1,.06-1.23c2.7-6,9.14-9.76,15.48-11,1.51-.58,3-1.19,4.47-1.81l-.34-.11,1.28-.28.12,0-1.33-.36c-.24,0-.47,0-.71.09A29.17,29.17,0,0,1,21.85,95c-1.8.47-3.61,1-5.41,1.54s-3.91.8-5.9,1.27a.85.85,0,0,1-1.14-.24.81.81,0,0,1,.43-1.05A36.12,36.12,0,0,1,18,91.26a20.91,20.91,0,0,1,9.17-1.75,5.66,5.66,0,0,1,3.13-.8h0l-1-.36c.82-.26,1.58.14,2.39,0l-.83-.83c2-.66,3.93-1.57,5.88-2.37a30.57,30.57,0,0,1,3-1,13.65,13.65,0,0,1,3.06-.48,3.34,3.34,0,0,1,.43-.1,23.49,23.49,0,0,1,1.76-2l.49-.46.15-.11.43-.25.87-.49a40.58,40.58,0,0,1,3.73-1.88c-.93.3-1.83.66-2.73,1l-2.65,1s.17-.12.27-.18l.33-.2.68-.4,1.36-.8c.91-.54,1.85-1,2.81-1.48,1.91-.92,3.89-1.79,6-2.61,11.38-4.37,24.9-6.54,31.65-5.37a245.25,245.25,0,0,1,33.55-6.19,270.74,270.74,0,0,1,33.9-1.42,4.19,4.19,0,0,1,2.41.56c.11.27-.66.48-1.82.45a264,264,0,0,0-48.55,4.61,288.56,288.56,0,0,1,41.22-2c1.77,0,3.55-.07,5.34,0s3.5.22,5.24.42c17.69,1,34.15,4,51.53,8l2.77.64,2.7.71,5.31,1.42c1.76.45,3.47,1,5.18,1.51l5.12,1.57c3.4,1.07,6.75,2.28,10.17,3.44s6.81,2.57,10.34,3.93a280.28,280.28,0,0,1,27.92,13.11,245.82,245.82,0,0,1,25.84,16.33c2.25,1.62,4.12,3.43,4.13,4s-1.84-.29-4.09-1.89a313.68,313.68,0,0,0-27.75-16.68,320.17,320.17,0,0,0-29.49-13.57,301.15,301.15,0,0,0-31.18-10.51,317.34,317.34,0,0,0-33-7.39c-2.43-.44-4.87-.72-7.28-1.09l-3.62-.52c-1.21-.15-2.42-.26-3.63-.39a.46.46,0,0,1,.1.28c0,.35-.51.64-1.3.85l4.1.45c1.36.19,2.72.42,4.08.63l4.09.66,2,.34,2,.42a189.52,189.52,0,0,1,45.68,10.7A234.45,234.45,0,0,1,260,96.26a283,283,0,0,1,34.41,18.3,3.34,3.34,0,0,1,1,.79c.1.18-.18.1-.63-.16l-6-3.27-3-1.65-3.06-1.57-6.13-3.16-6.27-3c1.15,1,1.72,1.75,1.41,2.09s-1.5.21-3.15-.33l5.52,3c1.13.61,1.93,1.26,1.79,1.45s-1.12-.14-2.2-.71c-3.75-2-7.47-4-11.31-5.84-1.91-.91-3.79-1.9-5.73-2.76l-5.8-2.61A297.06,297.06,0,0,0,222,86.91,7.06,7.06,0,0,1,224.41,89h0l4.49,1.38c27.69,7.64,54.5,21.06,78.43,38.55.47.34.82.67.77.76s-.45-.11-.88-.42c-3.64-2.59-7.26-5.22-11-7.62-1.88-1.2-3.71-2.48-5.63-3.61l-5.73-3.44,0,0c.28.24.28.37-.1.23a5.4,5.4,0,0,1-1.19-.72c-.32-.28-.23-.35.09-.24a245.16,245.16,0,0,0-44.88-20.11,257.22,257.22,0,0,1,40.77,19.23c1.48.7,3,1.35,4.47,2.12a3.49,3.49,0,0,1,1,.75c.07.14-.27.06-.68-.16l-1.22-.63c2.41,1.51,4.06,3,3.75,3.43s-2.7-.52-5.21-2c-6.9-3.75-13.81-7.43-20.92-10.69l-2.34-1L256,104a290.76,290.76,0,0,1,31.72,17.58c.89.52,1.57,1.1,1.49,1.26s-.87-.12-1.77-.64a295.22,295.22,0,0,0-28.58-14,286.65,286.65,0,0,0-30-11c-3.48-.62-7-1.09-10.47-1.63-3.53-.37-7-.81-10.6-1.1.87.19,1.74.42,2.61.64,11.11,2.62,21.43,5.17,31.57,8.26a196.48,196.48,0,0,1,30.21,11.69c.5.25.88.54.89.66s-.37,0-.87-.25a223.32,223.32,0,0,0-29.7-11.39l-6.34-1.94-6.28-1.65-3.09-.79-3.09-.66c-2.06-.43-4.1-.85-6.13-1.23l6.08,1.61,3,.77,3,.87,6,1.7,5.92,1.89,3,1,2.93,1,5.87,2.11c1.94.76,3.87,1.56,5.81,2.35l2.92,1.2c1,.41,1.91.86,2.88,1.3a7.68,7.68,0,0,1,1.7,1,.76.76,0,0,1,.43.06,64.65,64.65,0,0,1,6.33,2.53,3.18,3.18,0,0,1,1.06.68C274.62,118.07,274.33,118,273.86,117.83Zm-244.6-12-.24-.09h.65l1.39.73Zm-4.67,9.44h0l-.81-.37ZM121.21,67l-7.27.82c-1.21.11-2.42.29-3.62.46l-3.62.5c-4.84.55-9.62,1.44-14.5,2.06l6.93-1.68,2.74-.43,2.76-.33,5.52-.61c1.83-.23,3.68-.34,5.53-.45ZM21,105.18a12.59,12.59,0,0,1,3.28.8,5,5,0,0,1,1.34-1.16,27,27,0,0,1,4.27-2.13c-.44-.3-.09-.44,0-.59l.43-.4c-1.58.6-3.25,1.09-4.86,1.75A40.91,40.91,0,0,1,21,105.18Zm-8.22,8.41-.23,0-.22-.76Zm.41,1.27.26-.07C13.54,115.06,13.41,115,13.17,114.86Zm2.31-.61a1.54,1.54,0,0,0-.49-.12Zm14.73,16-1.71-3.36,1.57,3.29Z"/><path d="M144.72,24.87l.26,0c0,.17-.16.28-.36.36,2.45,0,3.94-2.31,4.34-4.49a1.11,1.11,0,0,0,.33-1.51,1.08,1.08,0,0,0-1.51-.34,1.72,1.72,0,0,1-.44.06,8.48,8.48,0,0,0-3.68.26h.86a2.78,2.78,0,0,0-1,.4l.31.18a2.53,2.53,0,1,0,.26,5.06Z"/><path d="M148.56,26.32c-.79.11-1.57.18-2.36.24l-.23-.08.6.71,0-.06a4.46,4.46,0,0,1,1.24-2.62l.18-.32a.75.75,0,0,0-.06-.57.81.81,0,0,0-1.1-.34l-.45.24c-1.3.34-2.85,1.51-2.43,3.17.1.39.49.67.77,1a1.12,1.12,0,0,0,1.86-1.24l.33-.09-.06.32c-.19-.53.18-1,.33-1.45l.41-.5-1.16-.92-.14.35a.76.76,0,0,0,.15.08,10.31,10.31,0,0,1-.86,2l-.36.94a.68.68,0,0,0,.61.7l.49,0-.25,0c.89-.28,1.74-.7,2.63-1a.28.28,0,1,0-.12-.54Z"/><path d="M146.23,28.36a.67.67,0,0,0-.5.14v.14l.37,0C146.37,28.69,146.37,28.52,146.23,28.36Z"/><path d="M145.73,28.64h-.15l.14.06v-.05Z"/><path d="M167.61,8.35a37.86,37.86,0,0,0,3.7-2s0-.1,0-.17-.12-.1-.15-.08a41.26,41.26,0,0,1-3.7,2s0,.1,0,.17S167.57,8.36,167.61,8.35Z"/><path d="M181.23,9a.22.22,0,0,0,.14.17s.1,0,.08-.07a.26.26,0,0,0-.14-.17C181.25,8.88,181.21,8.92,181.23,9Z"/><path d="M185.26,14.67a1.89,1.89,0,0,0-.11.74c0,.05,0,.06-.08.05a.4.4,0,0,1,.13.32,15,15,0,0,1-2,4.47,1.3,1.3,0,0,1,.16.31c.14.34.09.61-.11.69l-.18,0c-.64.23-1.24.49-1.89.7a.79.79,0,0,1-.16.52,12.93,12.93,0,0,1-.59,2,.83.83,0,0,1,.26.24c.18.25.21.51.09.59l-.18.16.68-.22h.1a4.18,4.18,0,0,0,.57-.47,15.25,15.25,0,0,0,3.23-6c0-.06,0-.08.11,0a.27.27,0,0,1,.12.18c-.07,2,.31,4.3-.22,6a29.6,29.6,0,0,1-2.25,5.57c-1.46,1.13-2.35,2.77-3.5,4.35-.39.54-.8,1-1.21,1.52-.08.07-.07.09-.2.21l-.34.31-.67.61-1.36,1.2c-1.82,1.58-3.68,3.09-5.58,4.61a3.32,3.32,0,0,1-5.64-2.86l-.37.26-.69.26a2.9,2.9,0,0,1-2.05,0l-.86-.3c-1.41-.75-3-1.06-4.35-1.93l-.26-.52-.2-.06a2.82,2.82,0,0,1-1.58-.73l-.39-.58a6.67,6.67,0,0,1-.87-2.15,2.36,2.36,0,0,1-.43-.75,3.35,3.35,0,0,1-1.55-1.68.47.47,0,0,1-.24-.8h0l-.46-.19-.28.09-.82.33a2.29,2.29,0,0,1-.8-.12c-1.05-.75-1.05-.75-1.33-1.21a.94.94,0,0,1,0-.16l-.47.05a1,1,0,0,1-.24-.07c-.19-.22-.19-.22-.29-.27a1.27,1.27,0,0,1-.14-.17c-.07-.35-.07-.35-.12-.43a.94.94,0,0,1,0-.18l.15-.31.8.33-.09-.26.29.21-.24-.21.29,0-.36-.07a1.91,1.91,0,0,0,.62-.35.78.78,0,0,0,.3-.29l-.12-.12,1-.46.22.09a.23.23,0,0,1,.13-.24l.26-.13,0-.07,0,0,.1-.26V26.8h0l.41-1.13a2.69,2.69,0,0,1,.45-.16l-.19,0c-.13,0-.23-.29-.29-.29a17.88,17.88,0,0,0-3.59,1.35.41.41,0,1,1-.58-.58,8.91,8.91,0,0,1,6.42-5.1q.94-.47,1.86-1l-.16-.05.55-.16,0,0-.62-.15-.32,0a26.21,26.21,0,0,1-4.53,1.63,21.6,21.6,0,0,1-2.51.55.36.36,0,0,1-.5-.13.37.37,0,0,1,.13-.5c1.85-1.87,4.4-3.44,7.1-3.37a2.19,2.19,0,0,1,1.33-.44h0l-.49-.15c.34-.14.71,0,1-.07l-.44-.37c1.61-.8,3-2.09,4.8-2.44l.18-.07a8.61,8.61,0,0,1,.94-1.79l-.45.12a1.42,1.42,0,0,1,.51-.89,3.11,3.11,0,0,1,3.36.48,52,52,0,0,0,3.69-3.73c.05-.08.19,0,.31.09s.16.3.1.37a16.74,16.74,0,0,1-2.25,3.23,15.84,15.84,0,0,0,2.91-1.46l.28-.31a.68.68,0,0,1,.38-.18,13,13,0,0,0,3-2.76,30.52,30.52,0,0,0,1.94-3.13A12.4,12.4,0,0,1,176.77.08c.14-.18.49,0,.78.27s.4.74.26.92c-1.91,3.18-3.6,6.55-6.59,8.6l-1,.64.12.14a2,2,0,0,1,.31.56,9,9,0,0,1,1.21-.58,6.63,6.63,0,0,1,2.5-2.88,9.24,9.24,0,0,1,2.72-.63c.66-.85,1.27-1.76,2-2.59,0,0,.07,0,.14,0s.1.14.08.19a14.3,14.3,0,0,1-1,2.4,2.38,2.38,0,0,1,.76.68,2.14,2.14,0,0,1,.42.94l.43-.29c.09-.05.25,0,.37.18s.15.34.07.4l-1.7,1.21c-.52.68-1.06,1.34-1.63,2a3.2,3.2,0,0,1,.78.61h0l.29-.26A13.86,13.86,0,0,1,182.9,7s.11,0,.17.07.07.16,0,.18a10.37,10.37,0,0,0-1.73,1.36h0a.24.24,0,0,1,.14.17c0,.07,0,.1-.08.08a.25.25,0,0,1-.14-.18A14.77,14.77,0,0,0,178.77,12a17.43,17.43,0,0,1,2.95-2.25l.11-.52s.09,0,.16,0,.09.15.07.19l0,.13c.21-.11.59.08.87.46s.36.81.16.94c-.46.47-1,.91-1.44,1.33l-.12.19,0,.31c.92-.47,1.85-.91,2.8-1.32.06-.06.2,0,.31.13s.13.29.07.35a28.22,28.22,0,0,1-3.34,4.41l-.07,2.82a.76.76,0,0,0,.19-.12c1.54-1.19,1.58-3.85,2.82-5.34,0-.05.1,0,.15,0s.08.15.05.18a16.4,16.4,0,0,0-1.21,2.82,15.62,15.62,0,0,0-.9,2.4c1-1,1.56-2.6,2.44-3.79,0-.07.1-.07.19,0a.21.21,0,0,1-.05-.11,2.61,2.61,0,0,1,.12-.78c0-.05.07-.05.14,0A.21.21,0,0,1,185.26,14.67Zm-30.49,11-.11,0h.3l.69.33Zm-1.86,4.64h0l-.39-.18Zm13.72-18.2a4.63,4.63,0,0,1-2.15.9l.36-.42A16.16,16.16,0,0,1,166.63,12.14ZM150.9,25.42a6.11,6.11,0,0,1,1.54.39,2,2,0,0,1,.57-.56,19.71,19.71,0,0,1,1.86-1.1c-.22-.14-.07-.22,0-.29l.17-.21c-.7.32-1.4.63-2.13.94A17.09,17.09,0,0,1,150.9,25.42Zm-3.55,3.93-.11,0-.11-.37Zm.2.61.11,0C147.71,30.07,147.66,30.05,147.55,30Zm1-.24a.65.65,0,0,0-.23-.06Zm7.07,8L154.86,36l.74,1.63Z"/><path d="M182.3,115.21l-.57-.28c.12-.18.48-.2,1-.11a10.3,10.3,0,0,0-7.08-.49,9.14,9.14,0,0,0-2.45,1.16,7.19,7.19,0,0,0-1.62,1.49c-1.15.11-1.56.73-1.14,1.3a2.45,2.45,0,0,0,1.11.73,4.32,4.32,0,0,0,1.61.29,5.94,5.94,0,0,1,.9.2c.6.24,1.18.47,1.8.69l1.94.65,2,.67c.7.22,1.4.43,2.13.67-.64-.29-1.29-.57-1.91-.82a19.86,19.86,0,0,0,2.44.62l-.59-.48c3.14,1.3,6.41,1.69,7.07.21s-1.79-4.53-5.11-5.89Z"/><path d="M174.56,110.65a24.7,24.7,0,0,1,2.56.46c.87.19,1.73.4,2.62.67l.47.28-1-1.41,0,.09c-.42,1.37-2.21,2.05-3.78,2.64l-.52.27a.64.64,0,0,0-.11.73,2.57,2.57,0,0,0,2.16,1.06l1.07,0a23,23,0,0,0,2.36.3,12.16,12.16,0,0,0,2.27,0c1.42-.18,2.46-.7,2.33-2-.06-.61-.84-1.41-1.37-2.13a3.85,3.85,0,0,0-3.39-1.78c-1.31.1-1.86,1-1.33,1.92l-.76-.1.27-.4c.2.85-.8,1.17-1.36,1.68l-1.06.38,2.06,1.87.46-.32a2.86,2.86,0,0,1-.29-.21,15.17,15.17,0,0,1,2.78-1.82l1.25-.94c.19-.47-.29-1.15-1.07-1.51l-1.1-.41.54.25a53.73,53.73,0,0,0-6.11-.32c-.32,0-.57.14-.57.37S174.23,110.62,174.56,110.65Z"/><path d="M180.43,109.23a2.13,2.13,0,0,0,1.19.2l0-.21-.82-.33C180.26,108.65,180.2,108.91,180.43,109.23Z"/><path d="M181.67,109.22l.35.15-.3-.21,0,0Z"/><path d="M190.76,258.94c-1,24.83-2.15,49.81-3.7,74.78-.05.83,0,1.54.21,1.58s.34-.6.37-1.38c1.61-25,2.79-49.83,3.78-74.66a2.73,2.73,0,0,0-.3-1.64C190.93,257.57,190.78,258.16,190.76,258.94Z"/><path d="M168.1,445.17c-.06-.59-.17-.57-.26,0a10.75,10.75,0,0,0-.07,2.06c0,.5.17.48.25,0A10.35,10.35,0,0,0,168.1,445.17Z"/><path d="M159.88,439.74c-.28-3.5-.59-6.82-1-9.78a9.21,9.21,0,0,1-.05-1.64c-.18.2-.38-.46-.51-1.73-2.63-24.84-4.51-51.56-6.26-77.88a2.58,2.58,0,0,1-.65-1.12,29.21,29.21,0,0,1-1.11-9.27l.11-2.86c.18-11.55.39-23.07.8-34.56a70.65,70.65,0,0,1-.62-8c-.91-10-1.72-19.93-2.26-30.14-.2.64-.45,1-.72,1-.63-.2-1.09-2.57-1-5.33,0-1.39.08-2.77.17-4.16-.46,4-.54,8-.8,12q0,.87-.12,1.59c-.09,4.37-.09,8.79,0,13.28.42,39.22,4,76.09,7.74,112.67a7.61,7.61,0,0,1,0,2.07c-.1.36-.27.29-.37-.38-3.49-23.07-8.22-43.05-11-69.14-1.62-15.52-3-30.95-4-46.49-.26-3.88-.52-7.77-.71-11.67l-.3-5.86c-.1-2-.23-3.92-.22-5.88a57.48,57.48,0,0,1,5.29-23.64c4-8.29,9-16.37,12.8-24.51,1-2.08,1.81-4,2.71-6.34l.63-1.67c.23-.64.48-1.17.68-1.63.42-.92.82-1.69,1.13-2.48a15.64,15.64,0,0,0,1.21-9.44,13.3,13.3,0,0,0-1.75-4.35c-.44-.69-.94-1.4-1.61-2.36a19,19,0,0,1-2.2-4,16.69,16.69,0,0,1-1.06-5.25,17.59,17.59,0,0,1,.57-5.16,23.57,23.57,0,0,1,4-7.76,13.46,13.46,0,0,0,1-1.58l0-.06h0s0,0,.09.06l.35.18a6,6,0,0,0,.73.32l.39.13a1.14,1.14,0,0,1,.2.08,2.79,2.79,0,0,0,.66.17l0,0h-.21l-.29,0-.21.05.1,0c.06,0,0,0-.4.18l-.3.17-.36.24c-.16.1-.31.21-.46.32l-.1.09h0s0-.15-.18-.3a1.72,1.72,0,0,0-.23-.26c-.41-.36-.74-.7-1.14-1-.8-.6-1.58-1.2-2.3-1.82a22,22,0,0,1-3.72-3.68,9.84,9.84,0,0,1-1.75-4.14,4.09,4.09,0,0,1-.14-1.21,10.2,10.2,0,0,1,0-1.24,10.38,10.38,0,0,1,.52-2.26,9.81,9.81,0,0,1,1.49-2.65c.16-.2.27-.42.46-.62l.61-.58a16.47,16.47,0,0,1,1.41-1.11,8.54,8.54,0,0,1,.8-.53,6,6,0,0,1,.87-.49c.66-.28,1.32-.56,2-.87,1.33-.56,2.84-.95,4.21-1.42l2.08-.69c.42-.16.63-.25.93-.38a8.64,8.64,0,0,0,1.34-.68,1.64,1.64,0,0,0,.28-.24h0l.08.1c.18.24.46.52.58.7s.33.38.51.56l.29.26.19.2a3.94,3.94,0,0,0,.45.36c.17.12.21.17.34.25s.28.14.31.17l.2.09c.13,0,.19,0,.1.05a1.31,1.31,0,0,0-.34.11,2.1,2.1,0,0,0-.59.33,5.35,5.35,0,0,0-.87.63l-.18.18-.28.24a6.51,6.51,0,0,0-.54.51c-.17.18-.34.36-.49.55a2.28,2.28,0,0,1-.28.31c-.08.09,0,0-.06.05l-.09,0-.38-.07c-.65-.16-1.64-.4-2.72-.58-.56-.1-1.08-.2-1.75-.28l-2-.07c-.68,0-1.37-.2-2.06-.3a76.82,76.82,0,0,1-8.85-2l-1.67-1a4.41,4.41,0,0,0-.43-.25l-.55-.2-1.09-.39a8.67,8.67,0,0,1-1.06-.42l-.73-.56c-.49-.38-1-.75-1.44-1.13s-.93-.76-1.36-1.15l-.44-.4-.58-.51c-.79-.69-.48-1.59-1.35-2.26l-.5-.53A2.43,2.43,0,0,1,138,125l-.66-1.12-.55-1.15a13,13,0,0,0-.72-1.19c-.65-.8.08-1.59-.74-2.49l-.37-.66a3.58,3.58,0,0,1,0-.65l.06-.65c0-.11,0-.23-.09-.35l-.16-.37c-.17-.49-.56-1-.3-1.44l.16-.68.09-.34a1.4,1.4,0,0,0-.07-.39c-.12-.53-.26-1.06-.37-1.58l.57-1.36.14-.34a1.27,1.27,0,0,0,0-.39v-.8c0-.53-.05-1.06,0-1.6l.1-1.61,0-.41c0-.14.14-.21.2-.32l.49-.61,1-1.22a9.8,9.8,0,0,0,.56-1.46l.52-1.48,0-.1,0,0-.06-.1-.26-.42-.13-.2c0-.06,0-.08,0-.11l.08-.21.35-.8.35-.81.27-.7.54-1.32c.35-.85.73-1.73,1.11-2.56s.6-1.36.91-2a19.74,19.74,0,0,1,1-1.81,12.47,12.47,0,0,1,2.07-2.62c1.33-1.28,2.7-1.68,3.68-1,1.19.89,1.55,3.11,1.13,5.54l.64-1c.4-.45.81-.93,1.2-1.35,1.14-1.18,2.36-1.94,3.46-1.87h1.43c2.32.53,5.1.33,7.47,1.74l.38,1,.37,0a3.72,3.72,0,0,1,2.85,1.17l.65,1.14a12.06,12.06,0,0,1,1.21,4.22,4.23,4.23,0,0,1,.66,1.41A5.67,5.67,0,0,1,172,100.9a.78.78,0,0,1,.57,1.07.9.9,0,0,1-.33.37h0c.35.19.45.24.89.44.37,0,.6,0,.6,0a17.6,17.6,0,0,1,1.84-.24,5.89,5.89,0,0,1,1.66.59c2,1.84,2.05,1.88,2.51,2.8,0,.1,0,.2,0,.29.78.17.84.2,1.07.26a3.51,3.51,0,0,1,.51.31c.34.49.34.49.55.66a3.39,3.39,0,0,1,.27.37c0,.6,0,.6.09.76a1,1,0,0,1,0,.29l-.46.33L180.07,108l.08.45-.55-.52.44.49-.63-.24.78.37a4.24,4.24,0,0,0-1.54.07,1.57,1.57,0,0,0-.77.22l.21.25-2.33.07-.44-.24c0,.15-.16.26-.39.28l-.59.05-.06.09,0,0-.29.32-.06.07h0c-.2.21-.49.53-1.29,1.33-.33,0-.68,0-1,0l.38.1c.25.08.36.46.47.47,1.36.09,2.71.15,4.05.17s2.76.08,4.19.22a1.54,1.54,0,0,1,1.33.5c.3.37.17.7-.27.76a10.31,10.31,0,0,1-3.24,1.44,23.34,23.34,0,0,1-3.84.73c-2.7.32-5.46.43-8,.51-.57.08-1.14.21-1.69.33l-1.51.36.23.06c-.25,0-.61,0-.56.15v0h.2l.39.08h.47a17.82,17.82,0,0,1,3.89-.46c.76,0,1.46,0,2.24,0l2.38.11a15.58,15.58,0,0,1,2.67.37l2.77.61a1.37,1.37,0,0,1,1,.54c.14.26-.1.44-.53.4-1.25.14-2.45.16-3.77.24-.64,0-1.23,0-1.88,0l-1,0h-.88c-1.26,0-2.39-.08-3.51-.13l-1.58-.15a3.49,3.49,0,0,1-.37-.07c-.09,0-.28-.06-.31,0l-.11.06a1.53,1.53,0,0,1-.84.31h0l.49.08c-.18.11-.6,0-.81.14l.62.2a1.5,1.5,0,0,0-.47,1.3c0,.46.22.84.25,1.2a.35.35,0,0,1,.05.08c.35.12.68.21,1,.3l.21.06.06,0,.17.09.35.16c.46.21.92.39,1.38.59a16.07,16.07,0,0,1-1.67-.91c.65.3,1.35.56,2,.79l.24.08.13,0,.06,0,.12.08,1.95,1.29c.68.46,1.38.91,2.14,1.47a24,24,0,0,1,2.48,2l.46.44c.17.16.34.36.51.55a10.63,10.63,0,0,1,1,1.36,7.83,7.83,0,0,1,.5.93,5.38,5.38,0,0,1,.42,1.1,10.46,10.46,0,0,1,.28,1.26,8.69,8.69,0,0,1,0,1.35,7.44,7.44,0,0,1-1.79,4.33,10.13,10.13,0,0,1-2.3,2,24.39,24.39,0,0,1-3.64,1.78c-.52.21-1.22.47-1.16.46-.12,0-.23.07-.35.1a11,11,0,0,0-1.47.55,1.7,1.7,0,0,0-.62.51,1.62,1.62,0,0,1-.1.18,1.15,1.15,0,0,1,0,.19.75.75,0,0,0,.1.36,4.86,4.86,0,0,0,1,1l.28.24.14.13.07.06v0l0,0s0,0,0,0l.17.14a15.24,15.24,0,0,1,2.66,2.62,12.28,12.28,0,0,1,2,3.71,11.59,11.59,0,0,1,.48,2,18,18,0,0,1,.08,2.06,13.61,13.61,0,0,1-.29,2,12,12,0,0,1-.57,1.72,11.8,11.8,0,0,1-.7,1.38c-.24.38-.48.75-.71,1.08a25.59,25.59,0,0,1-2.11,2.76c-.58.72-1.1,1.31-1.47,1.83a6.18,6.18,0,0,0-1.29,2.82,4.53,4.53,0,0,0,0,1.36,5.24,5.24,0,0,0,.63,1.7c.78,1.5,2,3.54,3,5.58a55.47,55.47,0,0,1,4.11,12.94c.44,2.23.71,4.55.95,6.72l.18,1.56c.08.53.16.84.26,1.32.2.9.44,1.79.66,2.67.5,1.91,1,3.85,1.66,5.77s1.3,3.89,2,5.84c1.39,3.88,3,7.81,4.42,11.7a99.22,99.22,0,0,1,6.27,23.36c.21,1.6,0,3-.29,3.31s-.71-.9-.89-2.5a98,98,0,0,0-3.92-16.79c-1.8-5.63-4-11.26-6-16.92-1-2.81-1.9-5.65-2.73-8.46-.4-1.39-.78-2.79-1.12-4.19l-.26-1.05-.22-1c-.15-.65-.29-1.31-.42-2-.26-1.15-.34-2.8-.51-4.39s-.37-3.23-.67-4.84a53.3,53.3,0,0,0-2.54-9.41,50.71,50.71,0,0,1,2.15,7.84,66.23,66.23,0,0,1,1,8.05c.05.66.08,1.28.15,1.86s.16,1.06.25,1.62c.21,1.12.4,2.15.66,3.37.51,2.37,1,4.71,1.71,7.11,2.5,9.54,5.88,19.2,7.52,28.89.5,2.48.89,5,1.19,7.46a46.22,46.22,0,0,1,.24,7.33c-.1,12.38-.44,24.44-.7,36.58s-.52,24.33-.67,37c-.25,21.6-.67,40.49-1.64,62-1.42,30.2-4,57.7-9.73,87.51a45,45,0,0,1-2.06,8.09c-.35.48,0-2.4.64-6.38,2.48-15.54,4.13-31,5.39-46.52s2.1-31,2.73-46.59c1.27-31.18,1.81-62.73,2.85-95.24.21-7,.41-13.92.62-20.78a.69.69,0,0,1-.37.17c-.48,0-.92-.67-1.28-1.77q-.39,11.69-1.06,23.53c.51,21.93.66,43.9-1,67.27-1.16,16.05-2.9,30.58-4.54,45.42-.77,18.82-1.79,37.58-3.59,56.58a8.8,8.8,0,0,1-.28,1.82c-.11.27-.14-.13-.09-.9.85-13.07,1.38-26.47,1.76-40-.5,2.13-1,3.4-1.54,3.22s-.9-1.83-1.14-4.36l-.46,9.19c-.11,1.9-.38,3.39-.62,3.33s-.39-1.55-.31-3.35q.74-18.76,1.49-37.47c.14-15,.2-29.92.24-44.93a10.89,10.89,0,0,1-1.85,4.32h0c0,2.32-.05,4.64-.08,6.95q.9,31.82.27,64.3t-2.9,65.28a8.24,8.24,0,0,1-.18,1.58,5.55,5.55,0,0,1,0-1.42q1.23-19.8,1.94-39.51v.06c-.09.53-.2.62-.25,0a11.91,11.91,0,0,1,.08-2.06c.09-.6.2-.55.25-.05.86-24.47,1.06-48.77.6-72.75q-.45,33.42-1.67,66.8c.06,2.43.11,4.85.16,7.32a7.69,7.69,0,0,1-.18,1.81c-.09.19-.17-.3-.17-1l0-2c-.16,4.21-.64,7.45-1.11,7.38-.48-.24-.83-3.86-.78-8.24q0-17.58.08-35.07l-.1-3.79-.32-3.81c-.38,18.15-.73,36.28-.86,54.3a7.81,7.81,0,0,1-.27,2.89,7,7,0,0,1-.33-2.77c-1.1-31.76-2.38-63.92-3.13-96.21-1.38-10.62-2.86-21.26-4.35-32.11v4.13c.18,17.55,1.46,33.79,2.7,49.88s2.47,32,3.07,49a4.29,4.29,0,0,1-.13,1.67c-.11.09-.23-.49-.25-1.35-.72-16.59-2.11-31.74-3.3-48.21-1-13.64-1.92-26.61-3.15-39.29.83,25.91,3,50.77,4.4,76.43a16.89,16.89,0,0,1,0,3,1.52,1.52,0,0,1,.18.63c.41,3.21.74,6.71,1,10.29a6.74,6.74,0,0,1,0,1.9C160.08,440.92,160,440.5,159.88,439.74Zm2.5-329.21.2,0-.54.07-1.11-.27S161.62,110.42,162.38,110.53Zm4.86-6.88h0l.71.31Zm7.4,99.63c-.14-.8-.28-1.6-.36-2.36l-.21-2.7c-.13-1.89-.32-3.83-.64-5.73a49.36,49.36,0,0,0-3.1-11.05,48.19,48.19,0,0,0-2.48-5.1,13.31,13.31,0,0,1-1.74-3.74,4,4,0,0,1,0-1.35,6.13,6.13,0,0,1,.33-1.45,9.33,9.33,0,0,1,1.73-2.74,9.27,9.27,0,0,0-1.62,2.7,5.83,5.83,0,0,0-.28,2.67c0,1.12,1.69,3.53,3,6.15a49.18,49.18,0,0,1,3.09,8.12,52.17,52.17,0,0,1,1.62,8.6c.16,1.45.24,2.91.32,4.29,0,.67.07,1.38.15,1.91S174.54,202.69,174.64,203.28ZM169.49,111a22.68,22.68,0,0,1-2.82-.73,5.26,5.26,0,0,1-1.26.7c-1.2.53-2.44,1-3.55,1.53.35.12.08.24,0,.34s-.24.18-.34.28c.62-.26,1.25-.5,1.88-.71s1.37-.42,2.06-.6,1.32-.34,2-.49A11.61,11.61,0,0,1,169.49,111Zm8.86-4,.22.12.1.63Zm-.2-1.08-.26,0C177.82,105.62,177.94,105.68,178.15,105.89Zm-2.37-.21a2.59,2.59,0,0,0,.46.22ZM163.86,90.44,165,93.63l-1-3.13Z"/></g></g></svg>