<svg xmlns="http://www.w3.org/2000/svg" viewBox="0 0 484.64 289.93"><g id="Layer_2" data-name="Layer 2"><g id="Layer_1-2" data-name="Layer 1"><path d="M7.82,102.85l.63,0a1.69,1.69,0,0,1-.93,1,15.75,15.75,0,0,0,7.72-4.37,39.58,39.58,0,0,0,3-3.46,25.46,25.46,0,0,0,2.31-3.77c1.51-.82,2.54-2.27,2.09-3.44s-2.19-1.48-3.88-.66a5.84,5.84,0,0,1-1.22.22,21.18,21.18,0,0,0-5,.28,25,25,0,0,0-2.64.59c-.85.26-1.71.55-2.58.89l2.33-.36a11.23,11.23,0,0,0-2.94,1.38l.72.3a10.15,10.15,0,0,0-5.13,2.87A7.87,7.87,0,0,0,0,99c-.16,3.28,2.77,5,6.24,4.16Z"/><path d="M16.85,104.8c-1.91.45-3.9.79-5.74,1.28l-.53-.09,1.33,1.36-.05-.12c.09-2.28,1.93-4.42,3.69-6.31l.56-.76a1.63,1.63,0,0,0,.06-1.31c-.35-.86-1.5-1.07-2.58-.46l-1.24.71c-3.53,1.13-7.58,4.76-6.73,8.3.2.82,1.13,1.26,1.8,1.83a2.63,2.63,0,0,0,3.66,0,2.76,2.76,0,0,0,.9-3.62c.27-.1.52-.23.8-.33-.07.25-.14.51-.2.76-.4-1.15.67-2.22,1.19-3.36l1.16-1.26-2.56-1.73-.49.84a2.32,2.32,0,0,1,.35.14c-.43.83-.84,1.64-1.27,2.43a22.58,22.58,0,0,1-1.32,2.4l-1,2.29A1.21,1.21,0,0,0,10,109.13L11.2,109h-.59c1.07-.49,2.1-1,3.13-1.59A28.31,28.31,0,0,1,17,106a.8.8,0,0,0,.59-.79A.52.52,0,0,0,16.85,104.8Z"/><path d="M11,110.12a1.84,1.84,0,0,0-1.19.51v.31l.87-.09C11.31,110.78,11.31,110.4,11,110.12Z"/><path d="M9.82,110.94l-.37,0,.34.07,0-.06Z"/><path d="M139,226.58c9.43-8.39,16.22-22.24,20.1-37.17A137.08,137.08,0,0,0,163,166.12a204,204,0,0,0,.26-24.56,5.77,5.77,0,0,0-.33-2.15,4.19,4.19,0,0,0-.12,1.9,205.39,205.39,0,0,1-.25,24.52A137.65,137.65,0,0,1,158.7,189c-3.82,14.85-10.56,28.61-19.83,37a3.4,3.4,0,0,0-1.06,1.27C137.88,227.4,138.4,227.09,139,226.58Z"/><path d="M235.45,10.81c-.89.08-.85.19.07.25.39,0,.94,0,1.51,0s1.13.07,1.57.07c.74,0,.73-.13-.06-.26a10.76,10.76,0,0,0-1.6-.17C236.37,10.75,235.83,10.77,235.45,10.81Z"/><path d="M228.79,19.39l-3.15.8c-1,.31-2,.73-2.95,1.08-.48.19-1,.35-1.42.55l-1.33.68c-.87.47-1.74.87-2.53,1.35a16.63,16.63,0,0,1-1.81,1c.31,0-.37.55-1.69,1.41a55.26,55.26,0,0,0-4.65,3.62c-.74.67-1.53,1.25-2.23,2L204.91,34a66.19,66.19,0,0,0-7.53,9.53c-1.19,1.66-2.13,3.5-3.19,5.26-.48.91-.93,1.84-1.4,2.76l-.69,1.38-.61,1.42a68.77,68.77,0,0,0-4,11.65l-.68,3c-.19,1-.34,2.07-.52,3.11-.39,2.06-.56,4.2-.8,6.31-.15,1-.16,2.13-.24,3.2s-.15,2.14-.18,3.22L185,88.06l0,1.63,0,1.64a261.08,261.08,0,0,0,2,26.8,4.87,4.87,0,0,1,.61,1.51,77.27,77.27,0,0,1,1.9,13l.24,4.1c.57,8.28,1,16.77.78,25.45A170.8,170.8,0,0,1,188,188c-.19,1.78-.37,3.7-.74,5.73-.17,1-.35,2.06-.54,3.13l-.71,3.26a122.29,122.29,0,0,1-6.62,22.42,103.88,103.88,0,0,1-5.21,11l-1.6,2.73-.8,1.36-.88,1.33-1.78,2.66-1.93,2.58c.8-.74,1.35-1.14,1.51-1s-.43,1.27-1.35,2.65a27.31,27.31,0,0,1-1.76,2.26,32.05,32.05,0,0,1-2.28,2.55l-2.59,2.58c-.89.84-1.84,1.64-2.76,2.46a84.74,84.74,0,0,0,14.24-15.15c.57-.8,1.15-1.51,1.62-2.19a104,104,0,0,0,10-19.54c5.75-14.8,8.29-29.75,9.17-44.34a177.35,177.35,0,0,0-.08-21.64c-.43-7-1.17-13.86-2-20.49-1.61-13.28-3.44-25.84-4-38a121.34,121.34,0,0,1,.4-17.84l.21-2.18.32-2.15c.22-1.43.4-2.89.73-4.22l.43-2c.13-.68.37-1.35.54-2l.57-2c.19-.68.46-1.34.68-2a13.47,13.47,0,0,1,1-2.38c.28-.36.33-.24.07.55s-.53,1.7-.79,2.54c-.13.42-.27.84-.38,1.26l-.31,1.28c-.2.84-.4,1.68-.61,2.52s-.28,1.68-.43,2.51c-.33,1.62-.44,3.43-.64,5.14l-.14,1.3-.07,1.31-.13,2.62a137.78,137.78,0,0,0,1.11,21.38c.87,7.33,2.15,14.92,3.48,23.1s2.74,16.94,3.66,26.73c.16,1.44.27,2.92.37,4.4s.22,2.95.29,4.46l.19,4.52.07,4.53q0,9.09-.84,18.27a145.83,145.83,0,0,1-8.32,37c-1.17,3.09-2.46,6.17-3.93,9.23a100.1,100.1,0,0,1-4.93,9.17A91.88,91.88,0,0,1,166,258.56a76,76,0,0,1-19.14,14.15L144,274.12c-.95.48-2,.86-3,1.28s-2,.82-3.08,1.18l-3.22,1-1.63.48c-.55.14-1.12.25-1.68.38-1.13.25-2.27.48-3.41.71s-2.33.32-3.5.47l-3.84.4a61.8,61.8,0,0,1-16.24-1.74,54.7,54.7,0,0,1-15-6.15A53.24,53.24,0,0,1,77.09,262a54.91,54.91,0,0,1-8.74-13.38,48.18,48.18,0,0,1-2.86-7c-.44-1.32-.77-2.58-1.12-3.87s-.6-2.51-.8-3.69a75.06,75.06,0,0,1-1.23-13.43A100,100,0,0,1,63,208.73c.25-1.84.45-3.76.77-5.52l.46-2.7c.15-.91.3-1.63.46-2.45.59-3.18,1.31-6.43,2.07-9.64s1.62-6.36,2.36-9.13a84.25,84.25,0,0,0,2.73-13.35c.12-1.09.25-2.17.34-3.34s.2-2.33.28-3.54l.07-.9c0-.3,0-.44,0-.66l0-1.24c0-.4,0-.74-.06-1.11a8,8,0,0,0-.08-1c0-.32-.09-.64-.11-1s-.13-.54-.18-.81a4.29,4.29,0,0,0-.19-.73,3.81,3.81,0,0,0-.21-.65,9.19,9.19,0,0,0-1.08-2.09,32,32,0,0,0-2.88-3.76c-.73-.84-1.55-1.75-2.52-2.76l-.74-.77-.19-.19-.08-.09,0,0-.14,0a1.9,1.9,0,0,1-.46-.29c-.64-.19-1-.42-1.39-.29a.21.21,0,0,1-.12,0c-.05,0-.11.05-.16.06a.49.49,0,0,1-.27,0,.85.85,0,0,1-.35.1c-.05,0-.09,0-.16,0l-.21.08a2.9,2.9,0,0,1-.41.06l-.27.1,0,0-.16.1c-.11.08-.19.06-.33.19a3.1,3.1,0,0,1-.76.43c-1.09.64-2.46,1.3-4.09,2.25-.52.66-1.36.59-2.42,0a10.4,10.4,0,0,1-3.4-3,9.27,9.27,0,0,1-2-5.66l-.5.3-1,.16a5.25,5.25,0,0,1-3.26-.92l-1.48-.79c-2.51-1.74-5.43-2.66-8.16-4.4l-.6-1-.39-.1a6.26,6.26,0,0,1-3.16-1.4L27.59,126a13.2,13.2,0,0,1-2.07-4.31,5,5,0,0,1-1-1.49A6.76,6.76,0,0,1,21.23,117a.93.93,0,0,1-.8-1.15,1.2,1.2,0,0,1,.27-.54h0a8.61,8.61,0,0,0-1-.3c-.38.17-.61.25-.61.25-.94.51-.95.51-1.79.93a5.17,5.17,0,0,1-1.76,0c-2.4-1.27-2.41-1.25-3.06-2.15,0-.11-.06-.23-.08-.34-.8.22-.86.24-1.09.29a2.53,2.53,0,0,1-.56-.07c-.43-.4-.43-.4-.68-.47a2,2,0,0,1-.33-.29c-.15-.76-.14-.76-.27-.9a2.17,2.17,0,0,1,0-.39c.24-.47.33-.66.37-.74l1.84.4-.18-.54.66.35-.54-.38.66-.06h-.84a5.79,5.79,0,0,0,1.48-1,2.51,2.51,0,0,0,.72-.75,1.69,1.69,0,0,1-.26-.22,18.75,18.75,0,0,1,2.4-1.33,3.59,3.59,0,0,1,.52.13.63.63,0,0,1,.38-.57l.62-.33.07-.16,0,0c.11-.24.2-.41.29-.6l.05-.13h0l1.3-2.59a6,6,0,0,1,1.14-.45l-.45,0c-.3,0-.46-.61-.59-.58a27.51,27.51,0,0,0-4.61,1.74c-.75.36-1.52.73-2.26,1.12L10,106.24a1.1,1.1,0,0,1-1.41.27.9.9,0,0,1,.09-1.33A19.86,19.86,0,0,1,10,102.74a17.76,17.76,0,0,1,1.77-2.22,25,25,0,0,1,4.41-3.84,33.81,33.81,0,0,1,5.35-2.75A19.2,19.2,0,0,1,24.43,93c1-.25,1.94-.45,2.9-.61s1.83-.65,2.8-.92l2.9-.81-.37-.15,1.59-.19.16,0-1.47-.5-.88,0c-1.11.36-2.27.61-3.36.9s-2.18.55-3.28.8l-3.36.76c-1.1.28-2.16.62-3.24,1-2.3.82-4.7,1.09-6.9,1.88-.5.3-1,.25-1.24-.13s.08-.92.58-1.22c5.84-5,14.55-9,22-8a8.4,8.4,0,0,1,2.07-.53,7.5,7.5,0,0,1,2.07.07h.07l-1.15-.53c1.14-.13,1.92.35,3,.34-.22-.31-.47-.67-.7-1,1.38-.21,2.71-.55,4.14-.76S45.54,83,47,82.84c.72-.08,1.42-.16,2.13-.21s1.44,0,2.15,0a22.21,22.21,0,0,1,4.14.53,6,6,0,0,1,.61,0,21.23,21.23,0,0,1,3.46-1.13q.46-.12.93-.21a2.2,2.2,0,0,1,.29,0l1.5,0c.51,0,1,0,1.51,0l1.55.12c2.07.2,4.17.34,6.31.74s4.3.91,6.48,1.52c-1.46-.46-2.93-.83-4.41-1.21a36.46,36.46,0,0,0-4.43-1c-1.47-.22-3-.43-4.45-.62l-1.13-.13-1.1-.06-1.94-.08h.91l1.2,0a22,22,0,0,1,2.42.09c1.62.12,3.25.27,4.88.44a23.57,23.57,0,0,1,2.45.4l2.46.5a37.83,37.83,0,0,1,4.89,1.27q2.43.8,4.85,1.7c1.59.67,3.15,1.45,4.71,2.22.78.4,1.57.79,2.34,1.22l2.23,1.41c1.47,1,3,1.93,4.38,3,1.85,1.53,3.73,3.08,5.46,4.75s3.3,3.52,4.79,5.24c2.17,2.75,4.39,5.76,6.53,9.09a76.35,76.35,0,0,1,5.86,11.05,62.07,62.07,0,0,1,3.86,12.34c.45,2.07.7,4.1.93,6.09.11,1,.15,2,.21,2.92s.11,1.92.09,2.83c0,1.83,0,3.62-.2,5.28-.07.83-.15,1.65-.22,2.46s-.22,1.55-.33,2.3-.24,1.49-.36,2.21-.29,1.37-.44,2-.3,1.31-.45,2-.31,1.09-.46,1.63q-.47,1.53-.93,2.91c-.32.93-.64,1.81-1,2.62-.24,1.53-.58,3.13-.87,4.69s-.67,3.17-1.08,4.76c-.76,3.18-1.7,6.39-2.63,9.26-1.89,5.82-3.44,10.22-4.73,14.92-.31,1.18-.64,2.34-.93,3.54l-.45,1.79c-.15.62-.24,1.09-.37,1.64l-.35,1.6-.28,1.56c-.22,1.06-.32,2-.47,3.05a44.35,44.35,0,0,0-.35,5.53,21.72,21.72,0,0,0,.39,4.13,8.76,8.76,0,0,0,.35,1.25l.25.65.14.34,0,0s-.08-.21,0-.15v0l0,0,.09.16a5,5,0,0,0,.33.65,9.6,9.6,0,0,0,6.85,4.74c.47.09.94.1,1.41.15s.94-.05,1.41,0a7.81,7.81,0,0,1,.83-.09h.49a4.8,4.8,0,0,0,.5-.09,14.24,14.24,0,0,0,2-.4,27.67,27.67,0,0,0,8.82-4.09,10.72,10.72,0,0,1,1.73-1.09,3.3,3.3,0,0,1,1.11-.44c.14.05.06.29-.22.65a7.92,7.92,0,0,1-1.39,1.23,32.18,32.18,0,0,1-6.54,3.89,23.63,23.63,0,0,1-6.35,1.74l-.38,0-.31,0a1.79,1.79,0,0,1-.6.05,9.41,9.41,0,0,0-1.17.07,14.29,14.29,0,0,1-2.34-.24,11.27,11.27,0,0,1-4.4-1.86,11,11,0,0,1-3.26-3.61c-.11-.18-.18-.37-.28-.55l-.08-.14,0-.07v0h0l0,.12,0-.07-.3-.72a9.66,9.66,0,0,1-.4-1.1,16.72,16.72,0,0,1-.54-2.81,36.45,36.45,0,0,1,.09-8l.29-2.27.39-2.35c.33-1.61.61-3.11,1.07-4.95-.19.71-.43,1.51-.58,2.15l-.51,2c-.18.67-.28,1.31-.43,2s-.29,1.3-.38,1.93a45.51,45.51,0,0,0-.79,7.25,24,24,0,0,0,.45,5.51,8.08,8.08,0,0,0,.27,1l.15.4.14.36.05.12,0,.06c0,.09-.08-.2,0-.11l0,.06.22.53c.12.36.35.68.49,1s.37.68.61,1a12.71,12.71,0,0,0,7.52,5.16,18.25,18.25,0,0,0,2.33.38c.39,0,.79,0,1.19,0,.19,0,.39,0,.59,0l.63-.05a12.42,12.42,0,0,0,1.46-.09c.5-.08,1-.15,1.51-.21s1-.25,1.54-.35l.78-.18.79-.26a30.42,30.42,0,0,0,6.41-3.07c.52-.34,1-.66,1.58-1l1.57-1.09c.53-.33,1-.73,1.56-1.13s1-.76,1.55-1.17a55.61,55.61,0,0,0,7-7.45c.52-.7,1.08-1.35,1.57-2.08l1.47-2.16c.93-1.52,1.91-3,2.75-4.63s1.67-3.24,2.49-4.89,1.53-3.36,2.17-5.12a99.85,99.85,0,0,0,3.56-10.77,132.14,132.14,0,0,0,4.06-23c.32-4,.53-8,.55-12,0-2,0-4.1-.07-6.17s-.13-4.18-.27-6.32c-.79-14.59-2.59-28.89-3.08-44a172.37,172.37,0,0,1,.67-23.34c.15-2,.49-4,.77-6.08s.7-4.09,1.11-6.16,1-4.2,1.54-6.35c.27-1.08.62-2.13,1-3.18l1.07-3.18a92.74,92.74,0,0,1,19.16-31.29c1.08-1.1,2.09-2.26,3.24-3.29L194,15.91a78,78,0,0,1,7.58-5.59A63.26,63.26,0,0,1,219.1,2.26a40.39,40.39,0,0,1,4.8-1.14l2.43-.48c.82-.13,1.66-.2,2.49-.29a39.71,39.71,0,0,1,5-.34h3.76l1.25.1A58.4,58.4,0,0,1,258,4.65a70.32,70.32,0,0,1,16.35,9.74c1.2,1,2.46,1.95,3.59,3l3.39,3.19c2.11,2.24,4.25,4.49,6.12,6.91l1.51,1.88c.48.63.9,1.27,1.32,1.88.83,1.22,1.6,2.37,2.22,3.4a17.09,17.09,0,0,1,1.87,4c0,.9-2.6-2.87-6.46-8a87.65,87.65,0,0,0-13.25-13.59A69.49,69.49,0,0,0,257.88,7a58.36,58.36,0,0,0-19.8-4.56c-1.72-.08-3.45,0-5.17,0s-3.44.31-5.15.49a58.11,58.11,0,0,0-9.93,2.35,65.6,65.6,0,0,0-17.67,9.06,79.91,79.91,0,0,0-14,13.12A86.79,86.79,0,0,0,175.68,43a92.78,92.78,0,0,0-7.11,17.43c-.4,1.54-.85,3.09-1.2,4.61l-.92,4.52c-.34,1.5-.48,3-.73,4.52s-.45,3-.57,4.51a158.32,158.32,0,0,0-.85,17.84c.07,11.74,1.08,23.09,1.93,34.18.43,5.53.8,11,1.05,16.41s.28,10.72.06,16a137.44,137.44,0,0,1-4.75,31.08,114.14,114.14,0,0,1-4.3,12.5,86.38,86.38,0,0,1-5.75,11.32c.14,0,.27-.09.35,0,.32.18.2,1-.25,2.34A99.3,99.3,0,0,0,164.46,193a143.34,143.34,0,0,0,3.21-21.31,181.54,181.54,0,0,0,.28-22c-.59-15.08-2.54-31-2.69-48.24A174.47,174.47,0,0,1,166,83.76c.12-1.45.35-2.91.53-4.36l.28-2.16c.11-.72.25-1.44.38-2.16.26-1.44.5-2.87.79-4.29s.68-2.84,1-4.25a88,88,0,0,1,6-16.51,94.1,94.1,0,0,1,9.1-14.74,79.19,79.19,0,0,1,15.07-16.21,62.28,62.28,0,0,1,20-10.94A53.07,53.07,0,0,1,242.58,6a58.94,58.94,0,0,1,21.8,7.91,10.6,10.6,0,0,1,2.41,1.67c.3.32-.28,0-1.31-.64a64.63,64.63,0,0,0-14.55-6.42,52,52,0,0,0-16.18-2.11l-2.06,0c-.69,0-1.37.15-2.05.22L228.58,7l-1,.12-1,.22-4,.89c-1.31.36-2.59.83-3.89,1.25a58.12,58.12,0,0,0-14.34,7.39,26.6,26.6,0,0,1,3.59-1.63c.88-.25,1.37-.26,1.36,0s-.54.76-1.4,1.56-2.11,1.8-3.63,3l2.94-1.91,1.47-.94,1.56-.83c1-.54,2.06-1.1,3.11-1.63l3.26-1.36A18.33,18.33,0,0,1,220.09,12c.9-.2,1.46-.27,1.45-.15s-.53.41-1.38.76-2.06.73-3.3,1.3l-3.27,1.38-3.12,1.65c-.51.28-1.05.54-1.55.85l-1.48.95c-1,.65-2,1.25-2.93,1.94A69.73,69.73,0,0,0,199.06,25c-.85.79-1.77,1.52-2.57,2.36l-2.42,2.5a78.66,78.66,0,0,0-8.51,10.94A82.61,82.61,0,0,0,179,53a77.54,77.54,0,0,0-4.83,15.9,111.9,111.9,0,0,0-2,16.23L172,89.21l-.05,4.05c0,1.35,0,2.69,0,4s0,2.69.1,4c.2,5.36.56,10.69,1,16a23.23,23.23,0,0,1,.89-6.24h0c-.09-1.65-.19-3.29-.28-4.94s-.14-3.29-.2-4.93a153.05,153.05,0,0,1,.36-22.84c.2-1.92.48-3.83.72-5.74s.7-3.82,1.05-5.73.91-3.81,1.46-5.7l.9-2.8.46-1.4.54-1.37A83.75,83.75,0,0,1,190.36,35,70.33,70.33,0,0,1,207.82,18.7l1.26-.83c.44-.26.89-.5,1.33-.74l2.68-1.46c.89-.5,1.86-.85,2.79-1.27s1.86-.85,2.83-1.17l2.93-1,1.47-.46,1.51-.33,3-.63c1-.21,2-.26,3.08-.39a49.3,49.3,0,0,1,6.2-.25c1,0,2.06.16,3.1.24l1.54.13c.52.07,1,.18,1.53.26l3.05.56,3,.82,1.49.42,1.44.54,2.88,1.1a65.49,65.49,0,0,1,20,13.8,87,87,0,0,1,14.26,19.29,7.51,7.51,0,0,1,1,2.09A6.56,6.56,0,0,1,289,47.75l-1.76-3.15-1.94-3-1-1.52-1.07-1.46-2.13-2.92a82.11,82.11,0,0,0-9.94-10.58,67.7,67.7,0,0,0-12-8.36,55.72,55.72,0,0,0-13.85-5.09l.08,0c.78.21.89.35,0,.26a27,27,0,0,1-3-.56c-.89-.23-.79-.33-.05-.26a49.29,49.29,0,0,0-13.83,0c-1.14.18-2.26.46-3.39.68l-1.68.36c-.56.13-1.1.34-1.65.5l-3.28,1.06c-1.06.43-2.1.9-3.15,1.35l-1.57.68-1.5.81-3,1.65L206.49,20c-.47.32-1,.62-1.41.95l-1.33,1c-.88.7-1.77,1.39-2.64,2.1l-2.47,2.28c-.41.38-.83.75-1.23,1.14l-1.15,1.22L194,31.21l-2.12,2.58-1.06,1.29-1,1.35-1.93,2.7-1.77,2.81c-1.22,1.84-2.18,3.83-3.25,5.76-.51,1-1,2-1.42,3s-.94,2-1.32,3l-1.2,3.07c-.4,1-.69,2.08-1,3.12-.73,2.08-1.19,4.24-1.74,6.36s-.84,4.27-1.2,6.41-.61,4.28-.77,6.43c.17-2,.55-4,.81-6s.77-3.94,1.15-5.92c.2-1,.51-2,.76-2.94s.48-2,.82-2.92c.67-1.91,1.24-3.86,2.05-5.71l1.15-2.8,1.31-2.74c.83-1.84,1.86-3.58,2.84-5.34.47-.9,1-1.74,1.58-2.59l1.64-2.55,1.8-2.44c.6-.81,1.17-1.65,1.84-2.41a68.64,68.64,0,0,1,18.22-16,50.82,50.82,0,0,1,23.3-6.95,42,42,0,0,1,5.38-.08l2.7.15,2.7.4c.49.08,1.05.19,1.54.31a6.2,6.2,0,0,1,1.06.39c.24.18-.47,0-1.47-.14l-3-.45,2.2.44a14.39,14.39,0,0,1,2,.51c1.25.41,2.35.79,3.26,1.14,1.76.83,2.74,1.47,2.6,1.69-.53.43-5.4-1.29-11.53-2a47.92,47.92,0,0,0-12.32.24l-3,.65-1.51.32-1.46.48-2.94.94c-1,.39-1.88.81-2.83,1.21a60,60,0,0,0-19.66,14.52,25.47,25.47,0,0,0-1.72,2l-1.67,2.08c-1.05,1.45-2,3-3,4.45a70.56,70.56,0,0,1,12.77-14,55.26,55.26,0,0,1,16.21-9.48l4.48-1.38,4.58-.91c1.56-.12,3.1-.36,4.65-.39H237l1.16.12a47.11,47.11,0,0,1,17.75,5.1,14,14,0,0,1,2.4,1.39c.6.41,1,.71.94.8s-.43,0-1.06-.32c-.31-.14-.68-.33-1.09-.54l-.63-.33-.7-.32a46.38,46.38,0,0,0-15.37-4.41,42.4,42.4,0,0,0-15.77,1.41c-10.25,3-19.21,9.61-26.23,17.78A77.23,77.23,0,0,0,183.3,64.07l-1,3.91-.75,4c-.28,1.33-.42,2.69-.6,4s-.38,2.7-.47,4.08A142.41,142.41,0,0,0,180,96.69c1.17,14.61,4.07,29.19,6.23,44.63-.12-2-.29-3.92-.44-5.89-.53-6.23-1.16-12.27-1.76-18.16s-1.1-11.62-1.44-17.26-.41-11.16-.22-16.6a103.94,103.94,0,0,1,1.88-16,68.64,68.64,0,0,1,4.91-15,74.81,74.81,0,0,1,8.18-13.81A60.38,60.38,0,0,1,208.7,27a48.12,48.12,0,0,1,14.46-7.78,5.47,5.47,0,0,1,2.13-.49c.07,0-.08.11-.37.22s-.72.3-1.26.48a46.75,46.75,0,0,0-14,7.38A62.64,62.64,0,0,0,198.6,37.84,73.41,73.41,0,0,0,185.11,66.1a93.64,93.64,0,0,0-2,13.14,130.08,130.08,0,0,0-.28,13.24,246,246,0,0,0,2.35,26.36c-.88-9-1.64-17.76-1.74-26.33a110,110,0,0,1,2.18-25l.69-3,.88-2.92a29.84,29.84,0,0,1,1-2.89c.37-1,.68-1.93,1.09-2.87.83-1.87,1.61-3.78,2.6-5.58s2-3.6,3-5.38a68.13,68.13,0,0,1,7.48-9.83c1.34-1.58,2.91-2.9,4.38-4.36l2.37-1.95c.41-.32.79-.66,1.2-1l1.27-.86a14.43,14.43,0,0,1,3.24-1.92,2.34,2.34,0,0,1,.63-.51l1.31-.84.66-.42.71-.35,2.89-1.45a40.83,40.83,0,0,1,6.32-2.14,8.4,8.4,0,0,1,2.38-.38C230.22,19,229.71,19.09,228.79,19.39Zm-197,83.89-.25-.1.7,0,1.37.85Zm-5.87,9.63h0l-.82-.36Zm79.72,114.41a27.39,27.39,0,0,1-.23-4.59c0-.82.1-1.73.14-2.59s.17-1.79.32-2.72a85.46,85.46,0,0,1,2.7-11.79c.61-2.07,1.24-4.11,2-6.16s1.45-4.11,2.28-6.35c1.65-4.38,3.57-9.79,5-15.12a150.09,150.09,0,0,1-4.2,15c-1.25,3.4-2.36,6.41-3.37,9.5-.51,1.54-1,3.09-1.45,4.66l-.68,2.37-.58,2.19a67.61,67.61,0,0,0-1.65,8.38A36.76,36.76,0,0,0,105.59,227.32ZM22.76,102.45a11.64,11.64,0,0,1,3.48.8,5.51,5.51,0,0,1,1.61-1.2,52.08,52.08,0,0,1,5.06-2c-.42-.33,0-.47.16-.62a4.31,4.31,0,0,1,.56-.39c-1.88.5-3.73,1.08-5.69,1.63a23,23,0,0,0-2.6.94A23.17,23.17,0,0,1,22.76,102.45Zm-9.22,9.42-.24,0-.24-.78Zm.44,1.28.26-.09C14.36,113.33,14.23,113.31,14,113.15Zm2.39-.86a1.37,1.37,0,0,0-.51-.08Zm15.22,15.58c-.61-1.08-1.21-2.18-1.8-3.28.54,1.08,1.09,2.14,1.66,3.21Z"/><path d="M164.86,136.8l.63.12a1.66,1.66,0,0,1-1.12.67,14.62,14.62,0,0,0,8.33-2.19,27,27,0,0,0,3.44-2.5,24.47,24.47,0,0,0,2.79-2.91c1.58-.36,2.66-1.53,2.43-2.65s-1.77-1.76-3.44-1.41a6.33,6.33,0,0,1-1.2-.1,25,25,0,0,0-9.93-.84l2.3.26a11.44,11.44,0,0,0-3.09.49l.65.46c-3.82-.25-7.87,2.11-8.65,5.13s1.69,5.37,5.25,5.4C163.79,136.75,164.31,136.76,164.86,136.8Z"/><path d="M173.22,140.7l-5.8-.1-.51-.22,1,1.58,0-.12c.65-2,2.71-3.74,4.8-5l.69-.57a1.38,1.38,0,0,0,.31-1.17c-.18-.87-1.25-1.33-2.4-1l-1.33.35a13,13,0,0,0-5.48,1.8,5.14,5.14,0,0,0-2.73,4.31c0,.81.86,1.45,1.39,2.15a2.72,2.72,0,0,0,3.57.87c1.39-.66,2.15-2,1.65-3.15l.85-.11-.35.66c-.13-1.13,1.06-1.95,1.78-2.89.44-.31.91-.59,1.36-.89l-2.14-2.2c-.22.22-.43.44-.63.67.12.09.32.19.31.21a33.42,33.42,0,0,1-3.48,3.86l-1.41,1.92a1.21,1.21,0,0,0,1.07,1.57l1.17.1-.57-.12,3.41-.74c1.14-.24,2.26-.49,3.39-.62a.74.74,0,0,0,.73-.6C173.89,140.92,173.6,140.68,173.22,140.7Z"/><path d="M166.49,144.35a1.83,1.83,0,0,0-1.26.21l-.07.3.87.11C166.65,145,166.73,144.69,166.49,144.35Z"/><path d="M165.16,144.86l-.37-.05.32.15,0-.05Z"/><path d="M255.39,139.68a133.83,133.83,0,0,1,15.31,11.24c.15.14.34.18.41.09s0-.27-.15-.39a131.47,131.47,0,0,0-15.31-11.32c-.19-.12-.38-.12-.46,0S255.22,139.56,255.39,139.68Z"/><path d="M283,176.38c-.14,0-.21,0-.18.17a.58.58,0,0,0,.31.34c.12,0,.21,0,.18-.18A.56.56,0,0,0,283,176.38Z"/><path d="M276.5,180.81a8.86,8.86,0,0,0-1.85-1,.49.49,0,0,1-.24-.23c-.08.14-.29.15-.53,0-4.66-2.5-9.25-5.33-14.06-7.44a1.16,1.16,0,0,1-.44.24,2.16,2.16,0,0,1-1.88-.43l-.41-.38c-1.76-1.33-3.58-2.58-5.41-3.8a4.81,4.81,0,0,1-1.58-.31l-3-.33-3-.3a.69.69,0,0,1,0,.51,1,1,0,0,1-1.21.36c-.24-.08-.48-.14-.72-.21.64.29,1.26.68,1.88,1a.67.67,0,0,1,.24.16l2.25.82A177.42,177.42,0,0,1,267,177.26a.39.39,0,0,1,.29.28.16.16,0,0,1-.23.15c-4.82-1.41-9.58-1.45-14.48-2.44a73,73,0,0,0-16.79-1.41c-.65-.12-1.29-.21-1.92-.3s-1.28-.07-1.91-.1a28.92,28.92,0,0,0-3.74.18A42.55,42.55,0,0,0,221,175.3c-1.77.55-3.45,1.15-5.06,1.76-2.21.86-4.31,1.69-6.32,2.7-1,.43-2,1-3,1.49s-1.94,1.06-2.87,1.7a2.77,2.77,0,0,1-1.47.69,2.68,2.68,0,0,1-1.58-.21,6.63,6.63,0,0,1-3-3,8.19,8.19,0,0,1-.8-5.87l-.61.27-1.08.15a4.36,4.36,0,0,1-3.14-1l-1.32-.95a27.64,27.64,0,0,0-3.5-2.67,25.83,25.83,0,0,1-3.62-2.73l-.37-1.12-.36-.17a6.12,6.12,0,0,1-2.83-2l-.63-1.26a12.63,12.63,0,0,1-1.12-4.55,4.6,4.6,0,0,1-.62-1.61,6.62,6.62,0,0,1-2.6-3.81.91.91,0,0,1-.55-1.26,1.24,1.24,0,0,1,.38-.44h0c-.37-.22-.48-.28-.93-.51-.41.07-.65.09-.65.09-1.06.25-1,.28-1.95.5a5.38,5.38,0,0,1-1.71-.4c-2.09-1.73-2.11-1.73-2.55-2.72a2.08,2.08,0,0,1,0-.35L166,148a3.16,3.16,0,0,1-.53-.19c-.34-.48-.34-.48-.57-.6a2.27,2.27,0,0,1-.26-.36c0-.75,0-.75-.08-.92a1.42,1.42,0,0,1,0-.38c.32-.4.45-.55.51-.62l1.72.81-.07-.56.57.48-.45-.48.66.09-.82-.2a5.39,5.39,0,0,0,1.65-.64,2.86,2.86,0,0,0,.86-.52c-.13-.16-.21-.28-.21-.28,1.33-.36,1.33-.36,2.63-.68a3.45,3.45,0,0,1,.47.24.61.61,0,0,1,.46-.47l.66-.19.1-.13,0-.05.4-.48.08-.11h0l1.76-2.1a8.6,8.6,0,0,1,1.18-.17l-.42-.12c-.29-.1-.33-.66-.46-.67a27,27,0,0,0-4.78.56c-1.58.34-3.17.76-4.76,1.18a1.14,1.14,0,0,1-1.43-.08.84.84,0,0,1,.36-1.23,18.5,18.5,0,0,1,3.94-3.58,24.82,24.82,0,0,1,4.94-2.48,31.28,31.28,0,0,1,5.48-1.33,30.67,30.67,0,0,1,5.56-.21c1.82-.15,3.6-.4,5.41-.52l-.32-.2,1.46.11h.15l-1.27-.7-.8-.12a50.34,50.34,0,0,1-6.27.27c-2.08.06-4.26,0-6.39.21-2.31.21-4.53,0-6.83.13-.54.15-1.05,0-1.17-.42s.25-.8.78-.95a32,32,0,0,1,5.18-2.07,32.88,32.88,0,0,1,5.54-1.25,27.11,27.11,0,0,1,5.53-.21,19.35,19.35,0,0,1,5.11,1A7.06,7.06,0,0,1,195,127H195l-1-.64a21.09,21.09,0,0,1,2.55.75l-.53-1c2.4,0,4.87-.11,7.28-.12a35,35,0,0,1,3.58.27c.59.07,1.17.16,1.74.28a16.12,16.12,0,0,1,1.68.48c.17,0,.33.06.5.09a16.75,16.75,0,0,1,3.69-1.05,11.73,11.73,0,0,1,2.09-.13l-2.11-.45h0a13.88,13.88,0,0,1,4.7-.27,20.14,20.14,0,0,1,6.59,2,11.78,11.78,0,0,1,4.59,3.78,103.9,103.9,0,0,1,23.4,7.37c.39.16.65.49.62.75s-.4.33-.78.17a151.06,151.06,0,0,0-16.74-4.86c4.63,1.86,9,4,13.43,6.13l1.72.72a8.6,8.6,0,0,1,1.6.94c5.5,2.88,10.31,6.12,15.51,9.43a142.71,142.71,0,0,1,12.23,8.82,68.58,68.58,0,0,1,14.44,15.34c.57.77.79,1.71.5,2.07s-1,.06-1.57-.69a114.93,114.93,0,0,0-15.65-15.54A215.3,215.3,0,0,0,260.7,148.3c-1.45-.89-2.85-1.83-4.31-2.67a1.09,1.09,0,0,1-.07.24,1.18,1.18,0,0,1-.77.6c1.64.95,3.17,2.1,4.72,3.19a46.07,46.07,0,0,1,13.36,8.76,56.29,56.29,0,0,1,6.78,8.41,94.73,94.73,0,0,1,9.18,9.29.46.46,0,0,1,.18.4c0,.11-.16.1-.29,0-2.26-2-4.55-4.09-6.93-6.09a1.32,1.32,0,0,1-.32,1.34,1.53,1.53,0,0,1-1.49.1c.46.51.94,1,1.38,1.53.27.33.36.7.2.84s-.53,0-.79-.28c-.94-1-1.9-2-2.85-3.05s-2-2-2.95-3c-1.28-1.07-2.65-2.05-4-3.08s-2.72-1.94-4.09-2.89a2.57,2.57,0,0,1,0,1.55h0l1.22.93a65.62,65.62,0,0,1,20.88,19.48c.12.15.15.32.08.38s-.23,0-.32-.15c-.86-1.19-1.72-2.36-2.61-3.52s-1.87-2.24-2.82-3.33h0c0,.13,0,.22-.17.17a.65.65,0,0,1-.31-.34c0-.15.06-.21.18-.17a63.06,63.06,0,0,0-12.23-10.43,71,71,0,0,1,10.44,10.29l1.35.94a.43.43,0,0,1,.16.39c0,.08-.18.07-.29,0l-.37-.28c.58.73.71,1.56.32,1.88s-1.23,0-1.86-.73c-.89-.9-1.78-1.79-2.66-2.69L276,173.71l-.65-.5-.78-.35a99.79,99.79,0,0,1,7.52,8.84c.22.25.29.55.16.68s-.43,0-.65-.22a127.38,127.38,0,0,0-15.93-12.44c-1.17-.28-2.31-.58-3.49-.8l-3.54-.62.68.47c1.48.94,3,1.72,4.5,2.51l4.54,2.26c1.52.75,3,1.61,4.47,2.48a37,37,0,0,1,4.2,3.11.31.31,0,0,1,.13.36c-.06.08-.21.06-.34-.07a34.74,34.74,0,0,0-4.16-2.92c-1.46-.83-2.91-1.64-4.42-2.46a45.07,45.07,0,0,0-7.43-3.34c4.44,2.6,9.11,4.9,13.28,8.19a.77.77,0,0,1,.37.48.27.27,0,0,1,.2,0,10.69,10.69,0,0,1,1.95,1.07.37.37,0,0,1,.2.35C276.78,180.88,276.65,180.89,276.5,180.81Zm-88.81-38.6a1.79,1.79,0,0,0-.22-.13l.66.13,1.18,1Zm-7.29,7.95h0l-.73-.51Zm60.72-12.92c-1.64-.55-3.27-1.15-4.91-1.77s-3.27-1.3-4.93-2c.85.1,1.68.26,2.52.42A70.14,70.14,0,0,1,241.12,137.24Zm-61.8,2.55a12.5,12.5,0,0,1,3.17,1.42,5.31,5.31,0,0,1,1.75-.77,34.87,34.87,0,0,1,5.07-1c-.35-.38.05-.43.23-.53l.58-.27-2.77.21-2.81.27c-.85.1-1.74.21-2.61.35A21.52,21.52,0,0,1,179.32,139.79Zm-10.72,6.79-.22-.08-.08-.79S168.43,146.07,168.6,146.58Zm.18,1.32.27,0C169.11,148.15,169,148.1,168.78,147.9Zm2.51-.29a1.65,1.65,0,0,0-.49-.19Zm11.71,18-1.1-3.56,1,3.46Z"/><path d="M251.57,69.5l.65,0c-.08.35-.44.63-.93.86a13.79,13.79,0,0,0,7.43-3.87,20.64,20.64,0,0,0,4.42-6.37c1.38-.73,2.06-2.07,1.55-3s-2.14-1.13-3.59-.39a6.52,6.52,0,0,1-1.14.2,27.83,27.83,0,0,0-9.61,1.44l2.26-.24a11.14,11.14,0,0,0-2.8,1.09l.73.28c-3.68.58-7,3.49-7.09,6.43s3,4.61,6.52,3.87Z"/><path d="M260.61,71.18c-1.85.44-3.68.85-5.59,1.25l-.55-.08,1.4,1.22-.06-.1c.1-2,1.67-4,3.3-5.71l.5-.67a1.3,1.3,0,0,0,0-1.14,1.89,1.89,0,0,0-2.56-.39l-1.16.63c-3.25,1-7.43,4.09-6.43,7.43.24.75,1.21,1.17,1.91,1.7a2.88,2.88,0,0,0,3.73,0c1.21-.91,1.57-2.36.8-3.29l.79-.3c-.06.23-.11.46-.17.69-.41-1,.52-2,1-3.06l1.06-1.13-2.61-1.51-.42.75c.13,0,.35.11.35.12a33.23,33.23,0,0,1-2.36,4.33c-.31.68-.62,1.38-.92,2.08A1.21,1.21,0,0,0,254,75.21l1.17-.16h-.59c2.13-.92,4.13-2,6.22-2.83a.7.7,0,0,0,.53-.73A.54.54,0,0,0,260.61,71.18Z"/><path d="M255.05,76.12a1.9,1.9,0,0,0-1.19.49v.3l.88-.11C255.38,76.73,255.37,76.38,255.05,76.12Z"/><path d="M253.87,76.91l-.37,0,.35.06,0-.05Z"/><path d="M310.39,213.34l-.32.91c-.1.25-.16.32-.24.5l-.46.9a20,20,0,0,0-.82,1.83,30.76,30.76,0,0,0-1.32,3.86,17.23,17.23,0,0,0-.6,4.12,8.45,8.45,0,0,0,.9,4.07,6.42,6.42,0,0,0,3.11,2.71,12.33,12.33,0,0,0,4.09.89,30.32,30.32,0,0,0,4.26,0l2.15-.19,4.91-.58c.85-.11,1.54-.33,1.55-.52s-.66-.24-1.44-.13l-5,.58-2.05.18a29,29,0,0,1-4.06,0,12.24,12.24,0,0,1-3.89-.83,6.29,6.29,0,0,1-3-2.54,7.69,7.69,0,0,1-.9-3.85,15.43,15.43,0,0,1,.55-3.9,27.17,27.17,0,0,1,1.25-3.66c.26-.59.46-1.17.76-1.74l.44-.85.22-.43a3,3,0,0,0,.14-.37l.16-.45a2.77,2.77,0,0,0,.19-1.42C310.87,212.32,310.61,212.73,310.39,213.34Z"/><path d="M455.88,234.35c-.54-.57-.63-.46-.25.25a15.42,15.42,0,0,0,1.48,2.2c.41.49.54.38.25-.24A12.14,12.14,0,0,0,455.88,234.35Z"/><path d="M443.59,236.41a26.43,26.43,0,0,0-8.35-5,6.88,6.88,0,0,1-1.33-.67c.06.29-.58.24-1.64-.07-5.26-1.41-10.7-.66-16.91,1.43-.77.25-1.55.54-2.35.84l-2.45,1-2.45,1L405.67,236c-3.25,1.49-6.49,3.16-9.75,4.94-6.53,3.56-13.1,7.64-20.14,11.81l-2.69,1.57c-.95.54-1.89,1.08-2.86,1.6-1.93,1.07-3.91,2.07-5.91,3.06a130,130,0,0,1-12.43,5.25,3.41,3.41,0,0,1-1.26,1.1c-2.18,1.45-7,3.21-12.11,4.13-1.29.22-2.58.38-3.87.57-1.93.29-4,.56-5.65.76l-2.83.34c-1.26.17-2.53.3-3.8.43a104.49,104.49,0,0,1-15.05.6,55.67,55.67,0,0,1-14.25-2.35,35.39,35.39,0,0,1-12.4-6.58,17.61,17.61,0,0,1-2.41-1.83,19,19,0,0,1-2.34-2.25l-1.1-1.3c-.36-.44-.67-.93-1-1.4s-.67-1-1-1.47-.56-1.06-.84-1.59a36.85,36.85,0,0,1-4.08-11.42c-.18-1-.35-2-.48-3.05a24.6,24.6,0,0,1-.32-3.12,51.74,51.74,0,0,1,.07-6.46,65.85,65.85,0,0,1,2.4-13.41c.63-2.28,1.57-4.44,2.4-6.67l1.29-3.34c.11-.27.21-.56.33-.83l.42-.77.86-1.55c-.78,1-1.36,1.52-1.59,1.44-.18-.25.21-1.37,1-3,.39-.82.88-1.77,1.44-2.8.15-.25.29-.52.44-.78a7.8,7.8,0,0,1,.45-.75l.89-1.3,1.86-2.66.93-1.31,1-1.25a42.37,42.37,0,0,0-2.88,3.65L277,195.84l-.69.95c-.23.32-.51.8-.76,1.19-2,3.31-4.3,6.45-5.75,10.18-.46,1-.91,2-1.34,2.88a45.35,45.35,0,0,0-2.3,6.11,63.62,63.62,0,0,0-1.62,6.28A59.94,59.94,0,0,0,263.27,236a54.39,54.39,0,0,0,1.92,12.92c.35,1,.68,2,1.06,3l1.26,3,1.55,2.81c.58.9,1.22,1.77,1.82,2.65s1.34,1.7,2,2.53,1.53,1.53,2.3,2.28a28.76,28.76,0,0,0,2.46,2.08,23.84,23.84,0,0,0,2.63,1.84A43.42,43.42,0,0,0,292,274c8.22,2.18,17.17,2.21,25.95,1.17,2.2-.26,4.38-.58,6.56-.9.54-.07,1.09-.19,1.62-.27l1.39-.25,2.18-.41,4.59-.93c1.58-.36,3.16-.7,4.74-1.11a128.23,128.23,0,0,0,18.54-6.14,136.85,136.85,0,0,0,17-8.67c10-6.07,18.71-12,27.65-16.66a6.71,6.71,0,0,1,2.1-.86c.4,0,.4.18-.24.53a180.87,180.87,0,0,0-15.91,10.6l-8.08,5.91-4.26,3.05c-1.57,1.07-3.17,2.15-4.82,3.19a121.65,121.65,0,0,1-34.52,15c-1.07.3-2.15.55-3.23.81l-3,.72-1.48.33-.76.17-.48.1-.6.11c-1.61.34-3.27.56-4.93.84-2,.31-4,.57-6,.85s-4,.39-6,.46l-3,.13c-1,.06-2,0-3,0s-2,0-2.95-.1l-2.91-.25c-1-.07-1.93-.23-2.88-.38s-1.91-.29-2.85-.48a56.66,56.66,0,0,1-5.52-1.46,47,47,0,0,1-10.35-4.62l-2.39-1.55L272,271.14a24.14,24.14,0,0,1-2.16-1.89l-1-1-.26-.25-.07-.06c-.09.05-.06,0-.09,0l-.12-.14-.47-.54a45.09,45.09,0,0,1-6.57-9.27,43.89,43.89,0,0,1-4-10.58c-.43-1.87-.78-3.77-1.12-5.68a17.52,17.52,0,0,1-.32-2.93c-.05-1-.18-2-.14-3a63.34,63.34,0,0,1,1.06-12.43,60,60,0,0,1,3.58-12.63l2.55-6.17.64-1.55.33-.77a6.3,6.3,0,0,1,.4-.72l1.7-2.81,1.7-2.83.86-1.41.43-.71c.14-.23.29-.5.4-.64q1.44-2.09,2.91-4.13c.5-.67,1-1.37,1.5-2l1.63-1.92,1.64-1.89c.55-.63,1.1-1.25,1.68-1.81q1.73-1.71,3.47-3.39c1.17-1.08,2.34-2,3.52-3A145.2,145.2,0,0,1,299,165.39c4.35-2.72,8.31-5.15,11.79-7.81,1.82-1.3,3.42-2.7,5.07-4.11.85-.68,1.56-1.46,2.34-2.2s1.53-1.49,2.27-2.27c1.41-1.6,2.82-3.2,4.16-4.88s2.6-3.49,3.78-5.22a51.53,51.53,0,0,0,5.46-10.48,41.71,41.71,0,0,0,2.64-11.1,35.11,35.11,0,0,0-.6-10.86l-.28-1.3c-.11-.43-.25-.84-.37-1.25-.22-.84-.55-1.65-.83-2.47a31.66,31.66,0,0,0-2.19-4.68,29.89,29.89,0,0,0-6-7.63,12.76,12.76,0,0,0-4.15-2.63,3,3,0,0,0-.79-.18l-.17,0a.29.29,0,0,0-.1,0l-.2.08c-.25.12-.49.28-.82.42a5.62,5.62,0,0,1-1.58.43c-.34.09-1.82,0-1.85.2a7.79,7.79,0,0,0-1,.31,21.82,21.82,0,0,0-4.07,2c-.33.19-.7.48-1.05.7a5.31,5.31,0,0,0-.53.38l-.12.1-.38.33c-.25.21-.52.48-.77.7s-.51.47-.77.73-.51.48-.77.75c-1,1-2.09,2.13-3.14,3.32s-2.09,2.46-3.13,3.82c-1.27,2.37-4.06,2.58-6.47.29a7.63,7.63,0,0,1-2.3-5.35l-.51.52-1,.57a4,4,0,0,1-3.27.23l-1.51-.43c-2.57-1.18-5.42-1.44-8.19-2.81l-.65-1-.38-.06a5.48,5.48,0,0,1-3.2-1l-.94-1a12.65,12.65,0,0,1-2.27-4.06,4.5,4.5,0,0,1-1-1.36,6.45,6.45,0,0,1-3.48-2.9.88.88,0,0,1-.85-1,1.16,1.16,0,0,1,.25-.51h0a8.75,8.75,0,0,0-1-.23l-.6.25-1.75.95a5.6,5.6,0,0,1-1.77,0c-2.48-1.13-2.5-1.12-3.19-2,0-.11-.07-.22-.1-.33a11.24,11.24,0,0,1-1.09.3,2.52,2.52,0,0,1-.56,0c-.46-.38-.46-.38-.71-.44a2.12,2.12,0,0,1-.36-.28c-.18-.7-.18-.71-.31-.84a2,2,0,0,1-.06-.37l.35-.7,1.89.35-.21-.5.68.32-.56-.35.67-.07h-.85a5.66,5.66,0,0,0,1.45-1,2.28,2.28,0,0,0,.71-.69,1.79,1.79,0,0,1-.27-.21c1.18-.65,1.17-.65,2.34-1.25a3.54,3.54,0,0,1,.51.1.56.56,0,0,1,.33-.53l.59-.33.05-.15,0,0c.1-.22.17-.37.24-.55l.05-.12h0c.17-.38.42-.92,1.12-2.35a10.54,10.54,0,0,1,1.08-.43h-.44c-.29,0-.48-.52-.61-.5a42.88,42.88,0,0,0-8.68,3.82,1.2,1.2,0,0,1-1.42.24.76.76,0,0,1,0-1.21c2.9-6,10-10.14,16.87-11.72l4.94-2-.36-.09,1.41-.32.14,0-1.39-.26-.78.12c-3.79,1.62-7.79,2.36-11.74,3.76-2.12.75-4.25,1.08-6.41,1.71a1,1,0,0,1-1.23-.13c-.2-.31,0-.78.5-1,5.27-4.31,12.77-7.77,19.35-7.7a8.34,8.34,0,0,1,3.56-.83h.06l-1.07-.28a19.34,19.34,0,0,1,2.62-.09l-.77-.71c2.29-.7,4.65-1.52,7-2.22a26.14,26.14,0,0,1,7.22-1.14l.53-.06A21.48,21.48,0,0,1,295.62,47l.73-.32a1.57,1.57,0,0,1,.23-.09l1.06-.26,2.21-.45a58.88,58.88,0,0,1,9.51-1.05c-1.14,0-2.27,0-3.38.1s-2.23.13-3.32.26-2.21.23-3.28.41l-1.63.25-1.42.25,0,0,.19,0L297,46c.28-.08.57-.15.86-.21l1.73-.36c1.15-.26,2.35-.42,3.54-.62a60.35,60.35,0,0,1,7.33-.63c1.25,0,2.53,0,3.79,0s2.56.17,3.85.28l1.94.27,1,.15.49.08.24,0,.13,0,3.32.69a45.89,45.89,0,0,1,11.5,4.07,43.42,43.42,0,0,1,5.42,3.36c.8.6,1.58,1.22,2.35,1.83s1.42,1.28,2.12,1.92A54.46,54.46,0,0,1,358.1,73.2,61.15,61.15,0,0,1,363,88.54a53.6,53.6,0,0,1,.92,11.91,76.85,76.85,0,0,1-.35,16.83A93.18,93.18,0,0,1,360,133.33a109,109,0,0,1-6.13,14.93c-.62,1.18-1.21,2.39-1.87,3.55l-1,1.74-1,1.65-2,3.31c-.65,1.1-1.32,2.2-2,3.27-2.79,4.34-5.74,8.65-8.89,12.79l-2.35,3.12-2.41,3-1.21,1.53-1.21,1.46-2.41,2.95c-3.15,3.82-6.23,7.55-8.76,11a56,56,0,0,0-5.79,9.93c-.54,1.31-1.09,2.34-1.44,2.41s-.17-1,.33-2.35c.46-1.16,1.05-2.31,1.58-3.51s1.34-2.39,2.06-3.62,1.61-2.48,2.53-3.76,1.87-2.54,2.93-3.88c4.15-5.25,9-10.9,13.55-16.79a201.62,201.62,0,0,0,12.67-18.44l2.83-4.76c.94-1.66,1.85-3.36,2.71-5.08a101.84,101.84,0,0,0,4.6-10.6c-1.16,3-2.5,5.95-3.94,8.82-.72,1.44-1.49,2.84-2.26,4.25l-1.21,2.09-1.23,2c-1.63,2.62-3.24,5.27-5.06,7.81-.9,1.27-1.73,2.6-2.67,3.85l-2.82,3.77c-3.81,5-7.89,9.86-12,14.41s-8,8.92-11.2,13.11L313.74,199c-.37.54-.7,1.07-1,1.6l-1,1.59c-.33.53-.58,1.07-.88,1.6-.56,1-1.18,2-1.63,3.06l-.75,1.5L308,209l-.32.76-.75,2c-.12.3-.26.7-.36.92l-.28.61a25.81,25.81,0,0,0-1.05,2.43,46.54,46.54,0,0,0-1.63,5,26.28,26.28,0,0,0-.84,5.13,12.45,12.45,0,0,0,.7,5.1,7.5,7.5,0,0,0,3.29,3.88,12,12,0,0,0,5,1.43,25.71,25.71,0,0,0,5.26-.12c.87-.09,1.73-.22,2.6-.36l1.28-.23c.47-.08.68-.14,1.76-.31,3.31-.51,5.82-.93,8.5-1.51s5.19-1.2,7.66-1.92a101,101,0,0,0,14.34-5.47c2.38-1.12,4.57-2.24,7.3-3.69l8.2-4.33c5.66-3,11.76-6.08,18.55-9A130.85,130.85,0,0,1,402.05,204a78.53,78.53,0,0,1,17.56-3.3,52.22,52.22,0,0,1,20.77,3,49.18,49.18,0,0,1,9.47,4.7,60.74,60.74,0,0,1,7.64,5.8,62.57,62.57,0,0,1,6.51,6.86,67.59,67.59,0,0,1,5.05,7.27,99.1,99.1,0,0,1,6.83,13.9l1.31,3.27c.45,1.15.92,2.37,1.35,3.56.87,2.41,1.63,4.85,2.34,7.31a112.72,112.72,0,0,1,3.16,15,55.56,55.56,0,0,1,.6,7.35,12,12,0,0,1-.36,3.81c-.44.72-1-3.08-1.75-8.4a110.3,110.3,0,0,0-3.43-15.43c-.75-2.54-1.6-5.06-2.53-7.55-.47-1.24-1-2.48-1.48-3.71L473.63,244a103.68,103.68,0,0,0-7.43-14.39,58.34,58.34,0,0,0-12.38-14.14c-1.25-1.06-2.58-2-3.9-2.94l-2-1.32c-.66-.44-1.5-.88-2.25-1.3a46.2,46.2,0,0,0-9.94-4,50.46,50.46,0,0,0-20.4-1.14,76.44,76.44,0,0,0-8.85,1.79c-1.37.36-2.64.74-4,1.11s-2.59.8-3.87,1.23A156.16,156.16,0,0,0,384,214.75c-4.69,2.13-9.15,4.39-13.47,6.62l-6.35,3.32-3.09,1.6-2.94,1.5a101.36,101.36,0,0,1-23.21,8.36c-2,.47-4.08.85-6.16,1.22l-3.2.49-3.43.48a59.56,59.56,0,0,1-7.81.81,26.12,26.12,0,0,1-4-.18,15,15,0,0,1-3.84-.93,9.05,9.05,0,0,1-3.32-2.13,8.92,8.92,0,0,1-1.26-1.54,11,11,0,0,1-.84-1.81,15.61,15.61,0,0,1-.6-6.78,34.7,34.7,0,0,1,1.44-6.59,1,1,0,0,1-.36.1c-.44,0-.73-.42-.83-1.18a43.2,43.2,0,0,0-2,8.15,24.41,24.41,0,0,0-.18,4.28,15.42,15.42,0,0,0,.89,4.23,9.85,9.85,0,0,0,4.22,4,15.7,15.7,0,0,0,5.71,1.47,47.67,47.67,0,0,0,11.56-.88l1.43-.24,2.43-.37,2.38-.37c.74-.13,1.49-.23,2.23-.37,3-.51,5.89-1.14,8.79-1.85a119.2,119.2,0,0,0,17.26-5.68l3-1.25,3-1.35,6.35-2.9c4.28-1.94,8.62-3.9,13.09-5.71s9-3.53,13.73-5c2.36-.74,4.74-1.44,7.17-2,1.21-.31,2.42-.61,3.65-.87l1.85-.4,1.92-.38a65.07,65.07,0,0,1,10.37-1.7,45.3,45.3,0,0,1,11.38.55,41.58,41.58,0,0,1,11.19,3.65c.89.41,1.72.91,2.57,1.38s1.56,1,2.34,1.46a50.88,50.88,0,0,1,4.4,3.25,53.69,53.69,0,0,1,7.59,7.72,67.1,67.1,0,0,1,5.69,8.47c1.63,2.84,3,5.65,4.32,8.43.62,1.38,1.24,2.76,1.83,4.12s1.23,2.87,1.81,4.32a9.12,9.12,0,0,1,.71,2.32c0,.38-.26-.09-.66-1s-.85-2-1.29-3l-1.34-2.88c-.88-1.85-1.82-3.75-2.79-5.65a88.17,88.17,0,0,0-7.08-11.61,56.21,56.21,0,0,0-4.73-5.63,52.15,52.15,0,0,0-5.65-5c-1-.79-2.05-1.49-3.1-2.21s-2.07-1.34-3.3-2a39.59,39.59,0,0,0-7.46-3.13c3.12,1.54,4.59,3,4.09,3.47s-3-.16-6.66-.75a36.57,36.57,0,0,1,6.29,2.44c1,.46,2,1.06,2.94,1.6s1.8,1.15,2.66,1.78c2.16,1.54,3.55,3.15,3.3,3.31s-2-.94-4-2.35c-.87-.62-1.77-1.17-2.66-1.75s-1.9-1.11-2.91-1.56a35.15,35.15,0,0,0-6.23-2.35,39.43,39.43,0,0,0-13.05-1.17,61.73,61.73,0,0,0-12.23,2.26c-3.85,1.05-7.63,2.3-11.32,3.71a264.11,264.11,0,0,0-25,12.3l-6,3.2c-2,1-3.89,2-5.86,3a112.41,112.41,0,0,1-12.06,4.91,14.32,14.32,0,0,1,5.41.13h0c2.56-1,5.08-2,7.55-3.19,5.55-2.83,11.09-6.16,16.79-9.3s11.54-6.26,17.67-9c3.06-1.36,6.21-2.59,9.42-3.69,1.6-.57,3.23-1.06,4.86-1.56s3.35-.92,5.09-1.28a45.79,45.79,0,0,1,10.87-1,35.34,35.34,0,0,1,11.12,2.12l1.34.5,1.3.59c.88.37,1.7.84,2.54,1.29a46.41,46.41,0,0,1,4.63,3,45.43,45.43,0,0,1,8,7.56c4.65,5.61,7.87,11.84,10.73,17.91,1.41,3,2.84,6.21,4,9.41s2.27,6.49,3.17,9.8a111.92,111.92,0,0,1,3.6,20.18,6.09,6.09,0,0,1,0,2,4.37,4.37,0,0,1-.33-1.74,113.17,113.17,0,0,0-4.81-24.2A107.44,107.44,0,0,0,466,252.4c-1.69-3.71-3.39-7.36-5.41-11l0,.06c.25.63.18.81-.26.21a16.64,16.64,0,0,1-1.28-2.27c-.31-.72-.15-.74.24-.23a56.8,56.8,0,0,0-7-9.69,43.47,43.47,0,0,0-9.38-7.86,37.4,37.4,0,0,0-5.55-2.9,35.93,35.93,0,0,0-6.06-1.86A38.45,38.45,0,0,0,419,216.4a60.9,60.9,0,0,0-11.49,2.6c-3.64,1.14-7.19,2.46-10.66,3.93a202.65,202.65,0,0,0-19.87,10c6-3.14,12.16-6.2,18.56-8.83,3.19-1.32,6.45-2.52,9.77-3.56a78.27,78.27,0,0,1,10.24-2.6,43,43,0,0,1,10.9-.57,34,34,0,0,1,10.76,2.73,40.73,40.73,0,0,1,9.22,5.84,43.87,43.87,0,0,1,7.35,7.83,64.49,64.49,0,0,1,5.45,7.49,8.21,8.21,0,0,1,.94,2.08c0,.26-.39-.22-.84-1s-.88-1.44-1.36-2.15c2.6,4.59,3.76,8.45,3.14,8.66s-3.11-3.68-5.87-8.2a45.53,45.53,0,0,0-14.64-15.09,30.61,30.61,0,0,0-9.68-4,33.68,33.68,0,0,0-10.46-.63c-1.51.18-3,.45-4.48.77s-2.93.88-4.37,1.41a42.25,42.25,0,0,1,16-1.3,29.16,29.16,0,0,1,7.63,2.08,34.44,34.44,0,0,1,6.85,4,43.92,43.92,0,0,1,10.74,11.66,122.4,122.4,0,0,1,7.64,14.27c.82,1.66,1.3,3.17,1.11,3.29s-1-1.14-1.81-2.78a134,134,0,0,0-7.13-12.23,45.78,45.78,0,0,0-9-10.07,35,35,0,0,0-5.48-3.69,27.58,27.58,0,0,0-5.86-2.45,29.16,29.16,0,0,0-12.6-.59,51.66,51.66,0,0,0-6.49,1.47c-2.17.65-4.4,1.42-6.57,2.22a138.11,138.11,0,0,0-12.9,5.64c-4.25,2.09-8.45,4.39-12.69,6.73s-8.47,4.75-13,7.14a126.22,126.22,0,0,1-18.17,9.78,133.73,133.73,0,0,1-20,6.83c1.74-.25,3.55-.52,5.33-.86a110.82,110.82,0,0,0,31.66-11c4.84-2.57,9.05-5.2,13.25-7.74s8.26-5,12.35-7.35,8.19-4.48,12.4-6.34a79.83,79.83,0,0,1,12.74-4.61,29.88,29.88,0,0,1,12.48-.64,24.27,24.27,0,0,1,6,1.91c1,.43,2,1,2.94,1.57l1.43.91c.47.32.92.66,1.39,1a3.43,3.43,0,0,1,1.24,1.3c0,.16-.57-.14-1.28-.71a33.76,33.76,0,0,0-5.54-3.35,22.94,22.94,0,0,0-5.65-1.9,28.47,28.47,0,0,0-11.81.43,50.91,50.91,0,0,0-6.08,1.81c-2.09.77-4.19,1.59-6.26,2.5-4.15,1.82-8.27,3.9-12.45,6.19-6.94,3.81-13.63,8-20.56,12.22a143.91,143.91,0,0,1-22.78,11.33,122,122,0,0,0,23.17-10.52c6.86-3.94,13.27-7.88,19.69-11.39A128.33,128.33,0,0,1,412.91,231c6.46-2.23,12.53-3.19,18.14-1.73a7,7,0,0,1,2.47,1,1.05,1.05,0,0,1,.62,0c.36.11.71.25,1.08.38a9,9,0,0,1,1.12.45l1.17.54c.39.19.76.4,1.15.61.78.4,1.5.91,2.27,1.38s1.48,1,2.18,1.65a4.64,4.64,0,0,1,1.31,1.48C444.59,237.14,444.19,236.92,443.59,236.41ZM274.67,68.74l-.24-.06.66-.06,1.38.56Zm-4.75,9.32h0l-.83-.27Zm75.33,80.64,3.46-5.63c1.17-1.88,2.27-3.93,3.32-5.93a102.91,102.91,0,0,0,5.48-12.55,86.57,86.57,0,0,0,5.27-27.42,78.82,78.82,0,0,1-1.11,13.77A81.45,81.45,0,0,1,359,131.19a88,88,0,0,1-3.74,9.75,102.53,102.53,0,0,1-4.7,9.23l-1.31,2.23-1.35,2.1Zm-79.1-89.87a12.81,12.81,0,0,1,3.37.46A5.71,5.71,0,0,1,271,68.11a37.45,37.45,0,0,1,4.49-2.32c-.43-.24-.07-.4.07-.55l.47-.41-5.1,2C269.32,67.48,267.74,68.31,266.15,68.83Zm-8.47,8.88-.24,0-.28-.72Zm.5,1.2.26-.1C258.57,79.06,258.44,79,258.18,78.91Zm2.38-.87A2.4,2.4,0,0,0,260,78Zm15.9,13.89-2-3.08,1.84,3Z"/><path d="M343.88,107.34l.37,0a.84.84,0,0,1-.57.47c3.49-.1,6-3,7.23-5.78a1.39,1.39,0,1,0-1.15-2.45,3.21,3.21,0,0,1-.67,0,13.54,13.54,0,0,0-5.57.27h1.29a5.22,5.22,0,0,0-1.62.53l.41.24a4.29,4.29,0,0,0-4.14,3.6,3,3,0,0,0,3.5,3.06Z"/><path d="M349.07,109.23c-1.13.11-2.21.22-3.34.31l-.31-.11.75.91,0-.07a6.21,6.21,0,0,1,2.18-3.41l.32-.4a.9.9,0,0,0,0-.75,1.07,1.07,0,0,0-1.48-.46l-.7.31c-1.95.42-4.4,2-4,4.2.09.5.62.86,1,1.26a1.57,1.57,0,0,0,2.14.36,1.49,1.49,0,0,0,.62-2l.48-.13-.13.43c-.19-.69.39-1.27.7-1.89l.67-.65-1.48-1.21-.27.46a1.31,1.31,0,0,1,.2.11,18.23,18.23,0,0,1-1.54,2.59l-.62,1.24a.8.8,0,0,0,.76.91h.68l-.34,0c1.27-.38,2.51-.92,3.79-1.24a.42.42,0,0,0,.36-.43A.35.35,0,0,0,349.07,109.23Z"/><path d="M345.56,111.89a.92.92,0,0,0-.71.19v.18l.51,0C345.72,112.31,345.73,112.08,345.56,111.89Z"/><path d="M344.84,112.26h-.22l.2.08,0,0Z"/><path d="M429.4,101.23a12.2,12.2,0,0,0,6.79.45,18.11,18.11,0,0,0,7.31-4.1c.16-.15.26-.31.21-.38s-.21,0-.36.16a17.89,17.89,0,0,1-7.22,4,11.85,11.85,0,0,1-6.61-.46c-.16,0-.35,0-.39,0S429.23,101.17,429.4,101.23Z"/><path d="M466,70.88c0,.2,0,.21.15,0a1.8,1.8,0,0,0,.23-.65c0-.17,0-.18-.15,0A1.83,1.83,0,0,0,466,70.88Z"/><path d="M470.05,74.19c-.3,1.16-.52,2.28-.73,3.28a2,2,0,0,1-.2.53c.12,0,.13.22,0,.64A83.9,83.9,0,0,1,458.3,104a.86.86,0,0,1,0,.51,8.1,8.1,0,0,1-1.91,3l-.8.78a36.9,36.9,0,0,1-11.41,8.21c-.42.28-.89.57-1.4.85a13.68,13.68,0,0,1-1.72.74,19.88,19.88,0,0,1-3.12,1.24,23.72,23.72,0,0,1-3.34.86,24.12,24.12,0,0,1-3.45.44,27.73,27.73,0,0,1-3.4,0c.26.12.42.25.4.37-.12.29-1.19.39-2.4.23-.59-.09-1.14-.2-1.71-.3a42.14,42.14,0,0,0,5.14.91c.27,0,.52,0,.74.07l1.55,0a12,12,0,0,0,1.58,0c1.08-.11,2.16-.18,3.23-.37s2.33-.52,3.46-.83,2.16-.79,3.21-1.21,2-1,3-1.49,1.86-1.11,2.7-1.74A38.19,38.19,0,0,0,457,108.1a56.79,56.79,0,0,0,5.55-9l1.12-2.28,1-2.3c.32-.76.66-1.52.95-2.28l.85-2.3a1.84,1.84,0,0,1,.32-.66c.11-.09.17,0,.1.2-.29,1-.57,2-.85,3s-.63,1.94-.93,2.92c-.58,2-1.36,3.88-2.13,5.87a44.07,44.07,0,0,1-7.56,12.37,37.82,37.82,0,0,1-8.16,7c-.79.51-1.65,1-2.5,1.44s-1.8.84-2.72,1.24l-1.4.59c-.47.19-1,.31-1.48.47-1,.28-2,.59-3,.81a40.93,40.93,0,0,1-12,.49l-2.66-.32-2.42-.38-2.28-.4-2.14-.4-2-.52-1.87-.44-.92-.21-.86-.16-1.7-.31A37.08,37.08,0,0,0,401,122,39.51,39.51,0,0,0,389.6,124a51.39,51.39,0,0,0-8.05,3.4c-2.79,1.71-5.51,3.43-8.26,5.41-1.27,1.25-3.4.89-4.83-.86a4.73,4.73,0,0,1-1-3.64l-.41.25-.76.22a3.12,3.12,0,0,1-2.29-.32l-1-.46c-1.62-1.07-3.49-1.59-5.14-2.75l-.31-.68-.24-.07a3.75,3.75,0,0,1-1.95-1l-.48-.74a8.46,8.46,0,0,1-1-2.77,3,3,0,0,1-.51-1,4.25,4.25,0,0,1-1.91-2.19A.59.59,0,0,1,351,116a.77.77,0,0,1,.19-.3h0a4.94,4.94,0,0,0-.6-.25l-.38.1-1.13.42a3.24,3.24,0,0,1-1.05-.15c-1.37-1-1.38-1-1.73-1.55a1.52,1.52,0,0,1,0-.21l-.66.07a1.18,1.18,0,0,1-.32-.09c-.24-.28-.24-.28-.38-.34a1.57,1.57,0,0,1-.19-.21c0-.46,0-.46-.12-.56a1,1,0,0,1,0-.23c.15-.26.21-.37.24-.41l1.07.41-.1-.34.38.27-.31-.27.4,0-.49-.09a2.68,2.68,0,0,0,.89-.47,1.26,1.26,0,0,0,.45-.37l-.15-.16c.73-.31.73-.31,1.45-.59a2.68,2.68,0,0,1,.3.12.34.34,0,0,1,.22-.32l.37-.16,0-.09v0l.17-.33,0-.08h0l.77-1.44a4.1,4.1,0,0,1,.66-.19l-.26,0c-.18,0-.27-.38-.35-.38a24.34,24.34,0,0,0-5.26,1.72.62.62,0,0,1-.83,0,.52.52,0,0,1,.08-.77c1.91-3.59,6.16-5.82,10.31-6.37,1-.31,2-.64,3-1l-.22-.08.85-.12.08,0-.84-.28-.46,0c-2.26.85-4.67,1-7,1.68-1.26.34-2.54.38-3.79.64a.53.53,0,0,1-.71-.18.52.52,0,0,1,.31-.65c3.17-2.46,7.59-4.3,11.49-3.81a3.82,3.82,0,0,1,2.09-.35h0l-.63-.27c.55-.11,1,.14,1.54.11l-.47-.55c2.68-.68,5.37-1.94,8.13-1.81a1.43,1.43,0,0,1,.29,0,16.17,16.17,0,0,1,1.36-1.12,4.13,4.13,0,0,1,.38-.25l.1-.06.26-.1.51-.19c.68-.25,1.4-.49,2.15-.71l-3.08.63c1-.42,2.1-.86,3.18-1.23a35.36,35.36,0,0,1,3.48-.9,42.31,42.31,0,0,1,5.07-.65,38,38,0,0,1,5,0,21.89,21.89,0,0,1,7.69,1.75,70.65,70.65,0,0,1,18.5,2.76c5.82,1.63,10.94,3.75,14.84,4.82.38.09.68.3.72.47s-.28.25-.67.17c-2.8-.56-6.31-1.77-10.2-3a86.37,86.37,0,0,0-12.62-3,78.26,78.26,0,0,1,10.49,3.17c3.3,1.2,6.39,2.52,9.14,3.51.73.24,1.38.41,2.08.62s1.24.37,1.85.62a9.08,9.08,0,0,0,1.1.26l1.06.23,1,.1a4.36,4.36,0,0,0,.94.06,8.21,8.21,0,0,0,1.79-.08c.3,0,.6-.06.9-.11l.92-.25a13.13,13.13,0,0,0,3.73-1.62l.94-.58.91-.7a19.76,19.76,0,0,0,1.81-1.56A43,43,0,0,0,449,92.22a72.77,72.77,0,0,0,4.51-8.12c1-2,1.9-4.2,2.81-6.28.43-1.06.83-2.14,1.25-3.19s.85-2.11,1.22-3.2c.76-2.16,1.6-4.28,2.32-6.51s1.56-4.41,2.3-6.72a4.72,4.72,0,0,1,1.26-2.39c.32-.07.27.89-.1,2.13-2.74,9.73-5.85,19.25-10.23,27.92a56.51,56.51,0,0,1-7.75,11.76,28.84,28.84,0,0,1-4.82,4.31,16.69,16.69,0,0,1-5.29,2.47,13,13,0,0,1-4.48.43.47.47,0,0,1,0,.17.7.7,0,0,1-.42.55,6.94,6.94,0,0,0,1.35.08,7.5,7.5,0,0,0,1.34,0c.45-.05.89-.09,1.35-.12l1.38-.31c5-1.93,9.29-6.42,13.63-12a102.44,102.44,0,0,0,7.91-11.87,167.13,167.13,0,0,0,6.27-17.25,1.35,1.35,0,0,1,.25-.55c.09-.06.1.08,0,.32-.53,2.07-1,4.2-1.7,6.27s-1.26,4.19-2,6.25c.45-.57.85-.86,1.08-.71s.28.75.14,1.58l1.16-2.79c.23-.58.5-1,.63-.94s.07.57-.14,1.13c-.79,1.9-1.55,3.82-2.38,5.7s-1.66,3.76-2.65,5.54A67.79,67.79,0,0,1,452,98.52a3.11,3.11,0,0,1,1.46-.66h0L454.79,96a124.94,124.94,0,0,0,8.77-19.22c2.46-6.7,4.64-13.58,6.68-20.57.07-.27.18-.49.24-.48s0,.24,0,.48l-1.86,6.31-2,6.24h0c.09-.16.16-.17.15,0a1.73,1.73,0,0,1-.22.65c-.11.17-.17.13-.15,0a163.47,163.47,0,0,1-9,22.26,140.39,140.39,0,0,0,9-20.16c.19-.79.39-1.57.59-2.37a1.57,1.57,0,0,1,.26-.55c.07,0,.08.14,0,.36s-.11.44-.17.66c.48-1.32,1-2.28,1.34-2.16s.2,1.42-.29,2.8c-.62,1.86-1.23,3.73-1.88,5.58s-1.37,3.66-2.12,5.47l-.46,1.19-.35,1.24c1.33-2.75,2.46-5.58,3.63-8.39s2.17-5.69,3.09-8.57c.15-.5.37-.9.48-.87s.08.45-.07.95a152.56,152.56,0,0,1-4.79,15.49,90.36,90.36,0,0,1-7.07,15,55,55,0,0,1-5.6,10.24l1.05-1.12c4.38-4.86,6.92-10.14,9.06-15.31s3.68-10.43,5.48-15.91a.92.92,0,0,1,.27-.5c.07,0,.06.2,0,.48-1.71,5.37-3.06,10.4-5.28,15.71a93.64,93.64,0,0,1-6.33,12.53,64.59,64.59,0,0,0,6.65-12c.82-2.06,1.72-4.08,2.42-6.16l1.13-3.09c.34-1,.68-2.09,1-3.13a3.26,3.26,0,0,1,.41-.93.42.42,0,0,1,0-.23c.24-1.09.5-2.26.79-3.45a1.34,1.34,0,0,1,.26-.6C470.09,73.77,470.1,73.93,470.05,74.19ZM357.69,108.85l-.15-.06H358l.84.5Zm-3.34,5.7h0l-.49-.25Zm57.39-16.83a106.18,106.18,0,0,0-15.52-3.25c1.31,0,2.61,0,3.91.18A61.14,61.14,0,0,1,411.74,97.72Zm-59.26,10.44a7.8,7.8,0,0,1,2,.6,3.17,3.17,0,0,1,.91-.66,23.57,23.57,0,0,1,2.81-1.18c-.26-.2,0-.28,0-.37l.3-.23-3.17.93C354.44,107.53,353.46,108,352.48,108.16Zm-5.49,5-.14,0-.11-.48S346.84,112.85,347,113.15Zm.22.8.16,0C347.43,114.08,347.36,114.06,347.21,114Zm1.46-.31a1.08,1.08,0,0,0-.31-.1ZM357.34,124l-1-2.14.87,2.09Z"/></g></g></svg>