<svg xmlns="http://www.w3.org/2000/svg" viewBox="0 0 541.12 280.02"><g id="Layer_2" data-name="Layer 2"><g id="Layer_1-2" data-name="Layer 1"><path d="M297.93,115.22l.6.17a1.58,1.58,0,0,1-1.11.6c5.91.77,11-3,14.06-6.83,1.48-.34,2.49-1.47,2.26-2.61s-1.67-1.86-3.21-1.53a4.28,4.28,0,0,1-1.11-.13,20.62,20.62,0,0,0-4.45-1.16,32.31,32.31,0,0,0-4.87-.21l2.16.41a10,10,0,0,0-2.92.3l.6.5c-3.59-.44-7.51,1.62-8.41,4.6s1.39,5.47,4.84,5.73Z"/><path d="M305.86,119.63c-1.85-.1-3.71-.27-5.61-.45l-.48-.25.93,1.64,0-.12c.71-2,2.79-3.54,4.81-4.72l.68-.52a1.44,1.44,0,0,0,.32-1.15,1.8,1.8,0,0,0-2.28-1.18l-1.27.27a12.63,12.63,0,0,0-5.33,1.47,5.08,5.08,0,0,0-2.83,4.13c0,.82.76,1.51,1.24,2.24a2.65,2.65,0,0,0,3.44,1.1,2.5,2.5,0,0,0,1.73-3L302,119c-.13.21-.25.42-.37.63-.08-1.13,1.11-1.87,1.83-2.77.44-.27.88-.57,1.33-.83l-2-2.31-.62.64c.11.09.3.21.29.23a32.4,32.4,0,0,1-3.49,3.64L297.53,120a1.24,1.24,0,0,0,1,1.64l1.13.18-.55-.16c2.24-.33,4.48-.77,6.67-.94a.72.72,0,0,0,.72-.57A.54.54,0,0,0,305.86,119.63Z"/><path d="M299.18,122.88a1.76,1.76,0,0,0-1.25.12c-.05.17-.07.25-.08.3l.84.16C299.3,123.58,299.39,123.23,299.18,122.88Z"/><path d="M297.85,123.3l-.36-.07.3.16,0,0Z"/><path d="M396.08,111.47q11.43,3.59,22.26,8.16c.25.11.48.11.52,0s-.11-.27-.33-.36q-10.84-4.65-22.27-8.24c-.26-.07-.49,0-.55.08S395.84,111.39,396.08,111.47Z"/><path d="M444.94,143.31c-.18,0-.23.08-.1.23a.9.9,0,0,0,.52.29c.16,0,.21-.09.11-.22A1,1,0,0,0,444.94,143.31Z"/><path d="M439.91,149.49a14.93,14.93,0,0,0-2.75-.65.93.93,0,0,1-.41-.2c0,.17-.25.23-.6.14-6.9-1.64-14-3.66-21.17-4.9a1,1,0,0,1-.43.33,3.63,3.63,0,0,1-2.63-.06l-.71-.31c-2.94-1.06-5.91-2-8.88-2.9a9.28,9.28,0,0,1-2.23,0l-8.31.43a.61.61,0,0,1,.17.53c-.14.44-.82.68-1.53.58l-1.1-.07c1,.19,2.05.44,3.06.7a1.69,1.69,0,0,1,.4.12l3.46.44c5.16.54,10.23,1.11,15.29,1.74,2.53.29,5,.68,7.57,1s5,.82,7.52,1.35a.69.69,0,0,1,.51.24c.06.11,0,.22-.2.2-6.65-.48-12.68.42-19.73.3A170.78,170.78,0,0,0,382.67,150c-8.21-.18-15.76,1.61-23.47,4-2.86.91-5.6,1.81-8.24,2.8-5.42,2.11-10.43,4.18-15.2,6.59a3.66,3.66,0,0,1-3.67.49,6.19,6.19,0,0,1-3.18-3.11,7.77,7.77,0,0,1-.47-6l-.67.28-1.2.1a4.62,4.62,0,0,1-3.31-1.15l-1.34-1c-2.15-2.18-4.79-3.46-7-5.79l-.3-1.14-.35-.19a6.09,6.09,0,0,1-2.74-2.13l-.56-1.29a13,13,0,0,1-.85-4.64,4.69,4.69,0,0,1-.53-1.65,6.63,6.63,0,0,1-2.38-4,.92.92,0,0,1-.48-1.29,1.21,1.21,0,0,1,.4-.41h0c-.35-.24-.46-.31-.89-.56-.41,0-.65,0-.65,0l-1.94.39a5.3,5.3,0,0,1-1.67-.51c-2-1.87-2-1.87-2.36-2.89,0-.12,0-.24,0-.35-.81,0-.87,0-1.1,0a2.68,2.68,0,0,1-.51-.23c-.31-.5-.31-.5-.53-.64a2.6,2.6,0,0,1-.24-.38c0-.74.06-.74,0-.91a1.6,1.6,0,0,1,.05-.38c.34-.37.48-.52.53-.59l1.64.92,0-.55.54.51-.42-.51.65.13-.79-.25a5.53,5.53,0,0,0,1.64-.52,2.46,2.46,0,0,0,.86-.49,1.53,1.53,0,0,1-.19-.29c1.3-.27,1.3-.27,2.58-.51.17.09.31.18.45.27a.57.57,0,0,1,.47-.43l.65-.15.1-.14,0,0,.39-.48.08-.11h0l1.76-2a7.78,7.78,0,0,1,1.15-.1l-.41-.15c-.27-.12-.3-.68-.42-.69a37.59,37.59,0,0,0-9.28,1.17,1.07,1.07,0,0,1-1.38-.17.83.83,0,0,1,.4-1.2,19.35,19.35,0,0,1,8.71-5.54A26.61,26.61,0,0,1,317.36,111c1.69-.17,3.38-.32,5.06-.45l-.3-.2,1.36.1h.15l-1.21-.7q-.37-.07-.75-.12a45.78,45.78,0,0,1-5.86.16c-2-.08-4-.12-6,0-2.19.07-4.26-.19-6.46-.21a.88.88,0,0,1-1.11-.49c-.1-.38.26-.79.76-.91,6.21-2.86,14-4.11,19.95-1.94a6.25,6.25,0,0,1,3.41.25h.06l-.91-.64c.92,0,1.53.59,2.38.72l-.54-1c4.4-.1,9-.9,13.08.21a3.57,3.57,0,0,1,.47,0,13.22,13.22,0,0,1,5.73-1.84c-.88-.08-1.76-.11-2.63-.18a18.77,18.77,0,0,1,5.65-.89,24.37,24.37,0,0,1,4.15.3,29.65,29.65,0,0,1,4,.87,16.14,16.14,0,0,1,6.15,3.19,192.43,192.43,0,0,1,29.89,3.35c.5.09.92.37,1,.64s-.37.41-.87.33c-7.05-.79-14.21-1.53-21.45-1.84,6,1.1,11.93,2.44,17.88,3.77l2.3.4a13.49,13.49,0,0,1,2.23.64c7.55,1.83,14.51,4.08,22,6.31,6.4,1.93,11.94,3.85,18.16,6.29,8.7,3.46,16.47,7.24,24,12.74,1,.69,1.77,1.64,1.64,2.11s-1.06.29-2.09-.39A172.18,172.18,0,0,0,433,128.83c-8.86-3.6-18-6.65-27.57-9.69-2.08-.61-4.1-1.29-6.16-1.83a.76.76,0,0,1,0,.26,1.13,1.13,0,0,1-.71.77c2.32.63,4.59,1.48,6.88,2.28a76.38,76.38,0,0,1,19.61,6c2.22,1,4.24,2.27,6.22,3.43s3.84,2.45,5.71,3.75a148.08,148.08,0,0,1,15.25,7.69.72.72,0,0,1,.4.39c0,.12-.12.14-.33,0-3.6-1.66-7.3-3.28-11-4.86.42.59.57,1.14.33,1.51s-.87.51-1.65.42l2.38,1.32c.48.28.79.64.67.83s-.59.16-1.06-.09c-1.62-.88-3.23-1.78-4.88-2.59s-3.28-1.67-4.95-2.43c-4.1-1.65-8.27-3.05-12.47-4.43a3,3,0,0,1,.78,1.61h0l1.91.68a106.42,106.42,0,0,1,34.39,15.94c.21.13.35.31.3.4s-.26,0-.44-.09a109.31,109.31,0,0,0-9.86-6.13h0c.1.13.07.25-.11.23a1,1,0,0,1-.53-.3c-.12-.15-.05-.24.1-.22a104.35,104.35,0,0,0-19.65-8.23A122.2,122.2,0,0,1,444.12,144l2,.71c.18.08.38.26.4.38s-.17.12-.36,0l-.56-.21c1.05.64,1.67,1.46,1.4,1.9s-1.44.29-2.54-.33c-1.5-.77-3-1.54-4.52-2.26s-3-1.48-4.56-2.16l-1-.38-1.11-.22c4.67,2.35,9.16,5,13.53,7.73.39.21.64.53.56.69s-.47.12-.86-.09A208.22,208.22,0,0,0,421,140.13l-4.71-.11-4.75.1c.36.12.72.24,1.09.34,4.67,1.3,9.14,2.16,13.62,3.1a71.65,71.65,0,0,1,13.31,4c.23.08.37.24.36.34s-.21.11-.43,0a89.75,89.75,0,0,0-13.12-3.83c-1.87-.46-3.72-.82-5.51-1.19s-3.61-.57-5.39-.76c6.9,1.81,13.79,3.22,20.52,5.81a1.4,1.4,0,0,1,.7.45.28.28,0,0,1,.22,0,21.49,21.49,0,0,1,2.89.68.66.66,0,0,1,.43.33C440.27,149.5,440.12,149.53,439.91,149.49ZM319.84,121.78l-.21-.14.63.16,1.15,1Zm-7.28,7.74h0l-.7-.54Zm65.67-17.8c-2.14-.28-4.26-.64-6.39-1-1.07-.17-2.13-.37-3.2-.59s-2.14-.4-3.22-.64h3.15c1.63.31,3.24.64,4.85,1S376.63,111.31,378.23,111.72ZM311.77,119a13.17,13.17,0,0,1,3.05,1.59,5.39,5.39,0,0,1,1.68-.73,43,43,0,0,1,4.87-.87c-.33-.39.05-.44.22-.54l.55-.27c-1.74.14-3.51.27-5.34.37A49.72,49.72,0,0,1,311.77,119Zm-10.64,6.22-.22-.09,0-.8S301,124.73,301.13,125.24Zm.1,1.33h.28C301.55,126.84,301.43,126.78,301.23,126.57Zm2.48-.13a1.52,1.52,0,0,0-.47-.23Zm10.68,18.75-.89-3.63.77,3.53Z"/><path d="M237.8,209.86l.58,0c-.07.35-.4.61-.85.8a10.55,10.55,0,0,0,6.84-3.39,16.29,16.29,0,0,0,3.92-6.42,2.46,2.46,0,0,0,1.21-3.17,2.39,2.39,0,0,0-3.33-.66,4.34,4.34,0,0,1-1,.15,22.11,22.11,0,0,0-8.7.79l2-.06a7,7,0,0,0-2.48.93l.66.35c-3.28.38-6.11,3.16-6.16,6.13s2.63,5,5.84,4.64Z"/><path d="M246.18,212.44c-1.73.31-3.47.55-5.24.79l-.51-.14,1.28,1.4-.06-.11c.13-2.09,1.61-4,3.09-5.68l.48-.65a1.51,1.51,0,0,0,0-1.2,1.77,1.77,0,0,0-2.42-.65c-.36.18-.7.38-1.06.57-3,.88-6.73,3.63-5.92,7,.2.79,1.06,1.32,1.68,1.94a2.53,2.53,0,0,0,3.45.43,2.38,2.38,0,0,0,.82-3.29l.74-.23c-.05.23-.11.46-.17.69-.36-1.09.51-2.07.93-3.1l1-1.11-2.44-1.81-.38.76a2,2,0,0,1,.33.16,26.25,26.25,0,0,1-2.19,4.29l-.89,2A1.3,1.3,0,0,0,240,216l1.09,0-.55-.05c2-.7,3.91-1.67,5.89-2.31a.67.67,0,0,0,.51-.73A.55.55,0,0,0,246.18,212.44Z"/><path d="M240.87,217a1.58,1.58,0,0,0-1.13.35v.3h.83C241.15,217.66,241.15,217.3,240.87,217Z"/><path d="M239.73,217.65h-.34l.32.1a.16.16,0,0,0,0-.05Z"/><path d="M391.66,167.82c1.13.1,2.25.18,3.37.31l3.35.43,6.69.86,6.64,1.1,3.32.55,3.29.68,6.57,1.34,6.51,1.57,3.25.79c1.08.27,2.14.59,3.21.89l6.42,1.8c.58.16,1.07.22,1.13.11s-.35-.35-.89-.48L438.1,176l-3.22-.91-3.25-.79-6.5-1.59-6.56-1.35-3.29-.67-3.31-.56L405.33,169c-2.23-.32-4.46-.59-6.69-.88s-4.47-.6-6.73-.76a2,2,0,0,0-1.2.15C390.68,167.62,391.1,167.76,391.66,167.82Z"/><path d="M511.36,217.94c-.39-.13-.43,0-.1.24a4.74,4.74,0,0,0,1.21.68c.33.11.38,0,.1-.24A4.62,4.62,0,0,0,511.36,217.94Z"/><path d="M504.36,223.16c-1.05-.48-2.07-.95-3.07-1.36s-2-.75-2.93-1.05a4.8,4.8,0,0,1-1-.49c0,.21-.42.15-1.19-.15a320.12,320.12,0,0,0-48.43-15.06,1.77,1.77,0,0,1-.82.26,16.78,16.78,0,0,1-5.95-.77l-1.75-.55c-1.78-.49-3.59-.88-5.38-1.32s-3.59-.91-5.39-1.26l-5.42-1.09-2.7-.55-2.72-.45a40.89,40.89,0,0,1-5.16-.19c-3.2,0-6.39.11-9.58.14l-9.61.45c.4.17.63.36.62.56s-.49.42-1.09.56a9.83,9.83,0,0,1-2.27.25l-2.59.06c2.48.1,5,.12,7.43.39a9.07,9.07,0,0,1,1,.11c2.73.13,5.49.13,8.3.34a287.89,287.89,0,0,1,70.73,12.06,3.93,3.93,0,0,1,1.23.54c.18.17.09.27-.33.16-14.65-3.65-27.75-4.7-44.05-6.31a221.58,221.58,0,0,0-57.21,1.85,148.52,148.52,0,0,0-28.27,5.77,167.67,167.67,0,0,0-26.58,10.67c-1.5.67-2.91,1.52-4.35,2.27l-4.27,2.28-4.13,2.44c-1.36.82-2.75,1.57-4,2.47l-1,.64-.49.32-.18.13-.63.47-1.27.93c-.84.62-1.71,1.17-2.51,1.83-1.63,1.27-3.27,2.48-4.92,3.67s-3.19,2.53-4.81,3.76a5,5,0,0,1-4,1.47,6.5,6.5,0,0,1-4.22-2.21,7.43,7.43,0,0,1-1.92-5.79l-.65.46-1.25.43a5.19,5.19,0,0,1-3.81-.3l-1.64-.68c-2.72-1.58-5.74-2.19-8.49-3.94l-.54-1.06-.41-.11a6,6,0,0,1-3.2-1.45l-.83-1.14a13.67,13.67,0,0,1-1.88-4.36,5,5,0,0,1-.91-1.51,6.78,6.78,0,0,1-3.22-3.35,1,1,0,0,1-.77-1.17,1.08,1.08,0,0,1,.27-.49h0a9.57,9.57,0,0,0-1-.36c-.37.14-.6.2-.6.2l-1.76.76a5.15,5.15,0,0,1-1.71-.18c-2.28-1.44-2.29-1.43-2.89-2.35a1.86,1.86,0,0,1-.07-.34c-.77.14-.83.15-1,.17a2.26,2.26,0,0,1-.53-.13c-.41-.43-.41-.43-.64-.52a2.25,2.25,0,0,1-.31-.32c-.13-.73-.13-.73-.24-.88a2,2,0,0,1,0-.37l.36-.67,1.74.59-.17-.53.62.4-.51-.42H242l-.79-.1a5.15,5.15,0,0,0,1.4-.81,2,2,0,0,0,.68-.64,1.89,1.89,0,0,1-.25-.24c1.13-.55,1.13-.55,2.24-1.06a3.38,3.38,0,0,1,.48.16.54.54,0,0,1,.32-.53l.56-.29.05-.15,0,0c.1-.22.16-.38.24-.55l0-.13h0c.16-.38.39-.94,1.07-2.35a8,8,0,0,1,1-.35l-.42-.06c-.28,0-.47-.59-.58-.57a19.45,19.45,0,0,0-2.13.52c-.69.24-1.36.51-2,.8-1.34.58-2.66,1.23-4,1.85a1,1,0,0,1-1.32.09.82.82,0,0,1,.07-1.23c2.69-6,9.14-9.75,15.48-11,1.51-.57,3-1.18,4.47-1.8l-.34-.12,1.27-.28.13-.05-1.33-.36-.71.09a27.69,27.69,0,0,1-5.29,1.71c-1.8.48-3.61,1-5.41,1.54s-3.91.81-5.9,1.27a.85.85,0,0,1-1.14-.24.81.81,0,0,1,.43-1.05,36.08,36.08,0,0,1,8.15-5.22,20.92,20.92,0,0,1,9.17-1.76,5.72,5.72,0,0,1,3.13-.8h.05l-1-.36c.82-.26,1.58.14,2.4,0l-.83-.82c2-.67,3.93-1.58,5.88-2.38,1-.39,2-.76,2.95-1a14.91,14.91,0,0,1,3.05-.48l.44-.1a21.86,21.86,0,0,1,1.76-2c.16-.15.32-.31.49-.45s.07-.07.14-.12l.44-.25.87-.49a38.17,38.17,0,0,1,3.73-1.87c-.93.3-1.83.65-2.73,1l-2.66,1s.18-.11.27-.17l.34-.21.68-.4,1.36-.8c.91-.54,1.84-1,2.8-1.47,1.92-.93,3.9-1.8,6-2.62,11.37-4.37,24.9-6.54,31.65-5.37a244.94,244.94,0,0,1,33.55-6.18,268.86,268.86,0,0,1,33.9-1.43,4.27,4.27,0,0,1,2.41.56c.11.27-.66.48-1.82.45a264.88,264.88,0,0,0-48.55,4.61,290,290,0,0,1,41.22-2c1.77,0,3.55-.06,5.33,0s3.51.22,5.25.43c17.69,1,34.15,4,51.53,8l2.76.63,2.71.72,5.31,1.42c1.76.44,3.47,1,5.18,1.51l5.12,1.56c3.4,1.07,6.74,2.28,10.17,3.44s6.81,2.57,10.34,3.93a282.4,282.4,0,0,1,27.92,13.11A245.8,245.8,0,0,1,537,221.83c2.26,1.61,4.13,3.42,4.14,4s-1.84-.29-4.1-1.89a311.22,311.22,0,0,0-27.74-16.69,320.1,320.1,0,0,0-29.49-13.56,295.88,295.88,0,0,0-31.19-10.51,311.52,311.52,0,0,0-33-7.39c-2.43-.45-4.87-.73-7.28-1.1l-3.62-.52c-1.21-.15-2.42-.26-3.63-.39a.48.48,0,0,1,.1.28c0,.36-.51.64-1.3.85l4.1.46c1.36.18,2.72.41,4.08.62l4.09.66,2,.34,2,.42a189.81,189.81,0,0,1,45.67,10.7,233.92,233.92,0,0,1,28.53,13.49,280.23,280.23,0,0,1,34.41,18.3,3.19,3.19,0,0,1,1,.78c.1.19-.18.11-.63-.16l-6-3.27-3-1.65L513.23,214l-6.14-3.16-6.26-3c1.14,1,1.72,1.75,1.41,2.1s-1.5.2-3.15-.34l5.52,3c1.13.61,1.93,1.26,1.79,1.45s-1.12-.14-2.2-.71c-3.75-2-7.47-4-11.31-5.83-1.91-.92-3.79-1.91-5.73-2.77l-5.81-2.61a295.9,295.9,0,0,0-28.88-9.87,7.06,7.06,0,0,1,2.44,2.11h0l4.5,1.39c27.69,7.64,54.49,21.05,78.42,38.55.48.33.83.67.78.75s-.46-.11-.88-.42c-3.64-2.58-7.26-5.22-11-7.61-1.88-1.21-3.71-2.48-5.63-3.61L515.34,220l0,0c.28.24.28.37-.1.23a5,5,0,0,1-1.19-.72c-.32-.27-.23-.35.09-.23a245.2,245.2,0,0,0-44.88-20.12,257.26,257.26,0,0,1,40.77,19.24c1.48.7,3,1.34,4.47,2.12a3.28,3.28,0,0,1,1,.75c.07.14-.27.05-.68-.17l-1.23-.63c2.42,1.51,4.07,3,3.76,3.43s-2.7-.52-5.21-2c-6.9-3.76-13.81-7.43-20.92-10.7l-2.34-1-2.42-.84a291.69,291.69,0,0,1,31.72,17.58c.89.52,1.57,1.1,1.49,1.27s-.88-.13-1.77-.65a297.55,297.55,0,0,0-28.58-14,288.87,288.87,0,0,0-30-11c-3.48-.62-7-1.1-10.47-1.63-3.53-.37-7-.82-10.6-1.11.87.19,1.73.42,2.6.65,11.12,2.61,21.43,5.16,31.58,8.25a197.91,197.91,0,0,1,30.21,11.69,2.06,2.06,0,0,1,.89.67c0,.11-.37,0-.88-.25A220,220,0,0,0,473,209.47l-6.35-1.94-6.27-1.66-3.09-.79-3.09-.65c-2.06-.43-4.1-.85-6.13-1.24l6.08,1.61,3,.77,3,.87,6,1.71,5.92,1.89,3,.94,2.93,1,5.87,2.12c1.94.75,3.87,1.55,5.81,2.34l2.91,1.2c1,.41,1.92.86,2.88,1.3a7.23,7.23,0,0,1,1.7,1,.79.79,0,0,1,.44.06,64.49,64.49,0,0,1,6.33,2.52,3.13,3.13,0,0,1,1.06.69C505.12,223.39,504.83,223.35,504.36,223.16Zm-244.6-12-.25-.09h.65l1.4.74Zm-4.67,9.44h0l-.81-.38Zm96.62-48.2-7.27.82c-1.21.11-2.42.29-3.62.47l-3.62.49c-4.85.55-9.63,1.44-14.5,2.06l6.93-1.67,2.74-.44,2.76-.32,5.52-.62c1.83-.23,3.68-.34,5.53-.45ZM251.48,210.5a12.42,12.42,0,0,1,3.27.8,5.15,5.15,0,0,1,1.35-1.15,27,27,0,0,1,4.27-2.14c-.44-.29-.09-.44,0-.59l.43-.4c-1.58.6-3.25,1.1-4.86,1.76A43,43,0,0,1,251.48,210.5Zm-8.22,8.42-.23-.06-.22-.76Zm.41,1.26.26-.07C244,220.38,243.91,220.35,243.67,220.18Zm2.31-.61a1.93,1.93,0,0,0-.5-.12Zm14.73,16L259,232.18l1.56,3.29Z"/><path d="M7.82,102.85l.63,0a1.69,1.69,0,0,1-.93,1,15.75,15.75,0,0,0,7.72-4.37,39.58,39.58,0,0,0,3-3.46,25.46,25.46,0,0,0,2.31-3.77c1.51-.82,2.54-2.27,2.09-3.44s-2.19-1.48-3.88-.66a5.84,5.84,0,0,1-1.22.22,21.18,21.18,0,0,0-5,.28,25,25,0,0,0-2.64.59c-.85.26-1.71.55-2.58.89l2.33-.36a11.23,11.23,0,0,0-2.94,1.38l.72.3a10.15,10.15,0,0,0-5.13,2.87A7.87,7.87,0,0,0,0,99c-.16,3.28,2.77,5,6.24,4.16Z"/><path d="M16.85,104.8c-1.91.45-3.9.79-5.74,1.28l-.53-.09,1.33,1.36-.05-.12c.09-2.28,1.93-4.42,3.69-6.31l.56-.76a1.63,1.63,0,0,0,.06-1.31c-.35-.86-1.5-1.07-2.58-.46l-1.24.71c-3.53,1.13-7.58,4.76-6.73,8.3.2.82,1.13,1.26,1.8,1.83a2.63,2.63,0,0,0,3.66,0,2.76,2.76,0,0,0,.9-3.62c.27-.1.52-.23.8-.33-.07.25-.14.51-.2.76-.4-1.15.67-2.22,1.19-3.36l1.16-1.26L12.37,99.7l-.49.85a2.32,2.32,0,0,1,.35.14c-.43.83-.84,1.64-1.27,2.43a22.58,22.58,0,0,1-1.32,2.4l-1,2.29A1.21,1.21,0,0,0,10,109.13L11.2,109h-.59c1.07-.49,2.1-1,3.13-1.59A28.31,28.31,0,0,1,17,106a.8.8,0,0,0,.59-.79A.52.52,0,0,0,16.85,104.8Z"/><path d="M11,110.12a1.84,1.84,0,0,0-1.19.51v.31l.87-.09C11.31,110.78,11.31,110.4,11,110.12Z"/><path d="M9.82,110.94l-.37,0,.34.07,0-.06Z"/><path d="M139,226.58c9.43-8.39,16.22-22.24,20.1-37.17A137.08,137.08,0,0,0,163,166.12a204,204,0,0,0,.26-24.56,5.77,5.77,0,0,0-.33-2.15,4.19,4.19,0,0,0-.12,1.9,205.39,205.39,0,0,1-.25,24.52A137.65,137.65,0,0,1,158.7,189c-3.82,14.85-10.56,28.61-19.83,37a3.4,3.4,0,0,0-1.06,1.27C137.88,227.4,138.4,227.09,139,226.58Z"/><path d="M235.45,10.81c-.89.08-.85.19.07.25.39,0,.94,0,1.51,0s1.13.07,1.57.07c.74,0,.73-.13-.06-.26a10.76,10.76,0,0,0-1.6-.17C236.37,10.75,235.83,10.77,235.45,10.81Z"/><path d="M228.79,19.39l-3.15.8c-1,.31-2,.73-2.95,1.08-.48.19-1,.35-1.42.55l-1.33.68c-.87.47-1.74.87-2.53,1.35a16.63,16.63,0,0,1-1.81,1c.31,0-.37.55-1.69,1.41a55.26,55.26,0,0,0-4.65,3.62c-.74.67-1.53,1.25-2.23,2L204.91,34a66.19,66.19,0,0,0-7.53,9.53c-1.19,1.66-2.13,3.5-3.19,5.26-.48.91-.93,1.84-1.4,2.76l-.69,1.38-.61,1.42a68.77,68.77,0,0,0-4,11.65l-.68,3c-.19,1-.34,2.07-.52,3.11-.39,2.06-.56,4.2-.8,6.31-.15,1-.16,2.13-.24,3.2s-.15,2.14-.18,3.22L185,88.06l0,1.62,0,1.65a261.08,261.08,0,0,0,2,26.8,4.87,4.87,0,0,1,.61,1.51,77.27,77.27,0,0,1,1.9,13l.24,4.1c.57,8.28,1,16.77.78,25.45A170.8,170.8,0,0,1,188,188c-.19,1.78-.37,3.7-.74,5.73-.17,1-.35,2.06-.54,3.13l-.71,3.26a122.29,122.29,0,0,1-6.62,22.42,103.88,103.88,0,0,1-5.21,11l-1.6,2.73-.8,1.36-.88,1.33-1.78,2.66-1.93,2.58c.8-.74,1.35-1.14,1.51-1s-.43,1.27-1.35,2.65a27.31,27.31,0,0,1-1.76,2.26,32.05,32.05,0,0,1-2.28,2.55l-2.59,2.58c-.89.84-1.84,1.64-2.76,2.46a84.74,84.74,0,0,0,14.24-15.15c.57-.8,1.15-1.51,1.62-2.19a104,104,0,0,0,10-19.54c5.74-14.8,8.29-29.75,9.17-44.34a177.35,177.35,0,0,0-.08-21.64c-.43-7-1.17-13.86-2-20.49-1.62-13.28-3.45-25.84-4-38a121.34,121.34,0,0,1,.4-17.84l.21-2.18.32-2.15c.22-1.43.4-2.89.73-4.22l.43-2c.13-.68.37-1.35.54-2l.57-2c.19-.68.46-1.34.68-2a13.47,13.47,0,0,1,1-2.38c.28-.36.33-.24.07.55s-.53,1.7-.79,2.54c-.13.42-.27.84-.38,1.26l-.31,1.28c-.2.84-.4,1.68-.61,2.52s-.28,1.68-.43,2.51c-.33,1.62-.44,3.43-.64,5.14l-.14,1.3-.07,1.31-.13,2.62a137.78,137.78,0,0,0,1.11,21.38c.87,7.33,2.15,14.92,3.48,23.1s2.74,16.94,3.66,26.73c.16,1.44.27,2.92.37,4.4s.22,2.95.29,4.46l.19,4.52.07,4.53q0,9.09-.84,18.27a145.83,145.83,0,0,1-8.32,37c-1.17,3.09-2.46,6.17-3.93,9.23a100.1,100.1,0,0,1-4.93,9.17A91.88,91.88,0,0,1,166,258.56a76,76,0,0,1-19.14,14.15L144,274.12c-.95.48-2,.86-3,1.28s-2,.82-3.08,1.18l-3.22,1-1.63.48c-.55.14-1.12.25-1.68.38-1.13.25-2.27.48-3.41.71s-2.33.32-3.5.47l-3.84.4a61.8,61.8,0,0,1-16.24-1.74,54.7,54.7,0,0,1-15-6.15A53.24,53.24,0,0,1,77.09,262a54.91,54.91,0,0,1-8.74-13.38,48.18,48.18,0,0,1-2.86-7c-.44-1.33-.77-2.58-1.12-3.87s-.6-2.51-.8-3.69a75.06,75.06,0,0,1-1.23-13.43A100,100,0,0,1,63,208.73c.25-1.84.45-3.76.77-5.52l.46-2.7c.15-.91.3-1.63.46-2.45.59-3.18,1.31-6.43,2.07-9.64s1.62-6.36,2.36-9.13a84.25,84.25,0,0,0,2.73-13.35c.12-1.09.25-2.17.34-3.34s.2-2.33.28-3.54l.07-.9c0-.3,0-.44,0-.66l0-1.24c0-.4,0-.74-.06-1.11a8,8,0,0,0-.08-1c0-.32-.09-.64-.11-1s-.13-.54-.18-.81a4.29,4.29,0,0,0-.19-.73,3.81,3.81,0,0,0-.21-.65,9.19,9.19,0,0,0-1.08-2.09,32,32,0,0,0-2.88-3.76c-.73-.84-1.55-1.75-2.52-2.76l-.74-.77-.19-.19-.08-.09,0,0-.14,0a1.9,1.9,0,0,1-.46-.29c-.64-.19-1-.42-1.39-.29a.21.21,0,0,1-.12,0c-.05,0-.11.05-.16.06a.49.49,0,0,1-.27,0,.85.85,0,0,1-.35.1c-.05,0-.09,0-.16,0l-.21.08a2.9,2.9,0,0,1-.41.06l-.27.1,0,0-.16.1c-.11.08-.19.06-.33.19a3.1,3.1,0,0,1-.76.43c-1.09.64-2.46,1.3-4.09,2.25-.52.66-1.36.59-2.42,0a10.4,10.4,0,0,1-3.4-3,9.27,9.27,0,0,1-2-5.66l-.5.3-1,.16a5.25,5.25,0,0,1-3.26-.92l-1.48-.79c-2.51-1.75-5.43-2.66-8.16-4.4l-.6-1-.39-.1a6.26,6.26,0,0,1-3.16-1.4L27.59,126a13.2,13.2,0,0,1-2.07-4.31,5,5,0,0,1-1-1.49A6.76,6.76,0,0,1,21.23,117a.93.93,0,0,1-.8-1.15,1.2,1.2,0,0,1,.27-.54h0a8.61,8.61,0,0,0-1-.3c-.38.17-.61.25-.61.25-.94.51-.95.51-1.79.93a5.17,5.17,0,0,1-1.76,0c-2.4-1.27-2.41-1.25-3.06-2.15,0-.11-.06-.23-.08-.34-.8.22-.86.24-1.09.29a2.53,2.53,0,0,1-.56-.07c-.43-.4-.43-.4-.68-.47a2,2,0,0,1-.33-.29c-.15-.76-.14-.76-.27-.9a2.17,2.17,0,0,1,0-.39c.24-.47.33-.66.37-.74l1.84.4-.18-.54.66.35-.54-.38.66-.06h-.84a5.79,5.79,0,0,0,1.48-1,2.51,2.51,0,0,0,.72-.75,1.69,1.69,0,0,1-.26-.22,18.75,18.75,0,0,1,2.4-1.33,3.59,3.59,0,0,1,.52.13.63.63,0,0,1,.38-.57l.62-.33.07-.16,0,0c.11-.24.2-.41.29-.6l.05-.13h0l1.3-2.59a6,6,0,0,1,1.14-.45l-.45,0c-.3,0-.46-.61-.59-.58a27.51,27.51,0,0,0-4.61,1.74c-.75.35-1.52.72-2.26,1.12L10,106.24a1.1,1.1,0,0,1-1.41.27.9.9,0,0,1,.09-1.33A19.86,19.86,0,0,1,10,102.74a17.76,17.76,0,0,1,1.77-2.22,25,25,0,0,1,4.41-3.84,33.81,33.81,0,0,1,5.35-2.75A18.11,18.11,0,0,1,24.43,93c1-.25,1.94-.45,2.9-.61s1.83-.65,2.8-.92l2.9-.81-.37-.15,1.59-.19.16,0-1.47-.5-.88,0c-1.11.36-2.27.61-3.36.9s-2.18.55-3.28.8l-3.36.76c-1.1.28-2.16.62-3.24,1-2.3.82-4.7,1.09-6.9,1.88-.5.3-1,.25-1.24-.13s.08-.92.58-1.22c5.84-5,14.55-9,22-8a8,8,0,0,1,2.07-.53,7.5,7.5,0,0,1,2.07.07h.07l-1.15-.53c1.14-.13,1.92.35,3,.34-.22-.31-.47-.67-.7-1,1.38-.21,2.71-.55,4.14-.76S45.54,83,47,82.84c.72-.08,1.42-.16,2.13-.21s1.44,0,2.15,0a22.21,22.21,0,0,1,4.14.53,6,6,0,0,1,.61,0,21.23,21.23,0,0,1,3.46-1.13q.46-.12.93-.21a2.2,2.2,0,0,1,.29,0l1.5,0c.51,0,1,0,1.51,0l1.55.12c2.07.2,4.17.34,6.31.74s4.3.91,6.48,1.52c-1.46-.46-2.93-.83-4.41-1.21a36.46,36.46,0,0,0-4.43-1c-1.47-.22-3-.43-4.45-.62l-1.13-.13-1.1-.06-1.94-.08h.91l1.2,0a22,22,0,0,1,2.42.09c1.62.12,3.25.27,4.88.44a23.57,23.57,0,0,1,2.45.4l2.46.5a37.83,37.83,0,0,1,4.89,1.27q2.43.8,4.85,1.7c1.59.67,3.15,1.45,4.71,2.22.78.4,1.57.79,2.34,1.22l2.23,1.41c1.47,1,3,1.93,4.38,3,1.85,1.53,3.73,3.08,5.46,4.75s3.3,3.51,4.79,5.24c2.17,2.75,4.39,5.76,6.53,9.09a76.35,76.35,0,0,1,5.86,11.05,62.07,62.07,0,0,1,3.86,12.34c.45,2.07.7,4.1.93,6.09.11,1,.15,2,.21,2.92s.11,1.92.09,2.83c0,1.83,0,3.62-.2,5.28-.07.83-.15,1.65-.22,2.46s-.22,1.55-.33,2.3-.24,1.49-.36,2.21-.29,1.37-.44,2-.3,1.31-.45,2-.31,1.09-.46,1.63q-.47,1.53-.93,2.91c-.32.93-.64,1.81-1,2.62-.24,1.53-.58,3.13-.87,4.69s-.67,3.17-1.08,4.76c-.76,3.18-1.7,6.39-2.63,9.26-1.89,5.82-3.44,10.22-4.73,14.92-.31,1.18-.64,2.34-.93,3.54l-.45,1.79c-.15.62-.24,1.09-.37,1.64l-.35,1.6-.28,1.56c-.22,1.06-.32,2-.47,3.05a44.35,44.35,0,0,0-.35,5.53,21.72,21.72,0,0,0,.39,4.13,8.76,8.76,0,0,0,.35,1.25l.25.65.14.34,0,0s-.08-.21,0-.15v0l0,0,.09.16a5,5,0,0,0,.33.65,9.6,9.6,0,0,0,6.85,4.74c.47.09.94.1,1.41.15s.94-.05,1.41,0a7.81,7.81,0,0,1,.83-.09h.49a4.8,4.8,0,0,0,.5-.09,14.24,14.24,0,0,0,2-.4,27.67,27.67,0,0,0,8.82-4.09,10.72,10.72,0,0,1,1.73-1.09,3.3,3.3,0,0,1,1.11-.44c.14.05.06.29-.22.65a7.92,7.92,0,0,1-1.39,1.23,32.18,32.18,0,0,1-6.54,3.89,23.63,23.63,0,0,1-6.35,1.74l-.38,0-.31,0a1.79,1.79,0,0,1-.6.05,9.41,9.41,0,0,0-1.17.07,14.29,14.29,0,0,1-2.34-.24,11.42,11.42,0,0,1-4.4-1.86,11,11,0,0,1-3.26-3.61c-.11-.18-.18-.37-.28-.55l-.08-.14,0-.07v0h0l0,.12,0-.07-.3-.72a9.66,9.66,0,0,1-.4-1.1,16.72,16.72,0,0,1-.54-2.81,36.45,36.45,0,0,1,.09-8l.29-2.27.39-2.35c.33-1.61.61-3.11,1.07-4.95-.19.71-.43,1.51-.58,2.15l-.51,2c-.18.67-.28,1.31-.43,2s-.29,1.3-.38,1.93a45.51,45.51,0,0,0-.79,7.25,24,24,0,0,0,.45,5.51,8.08,8.08,0,0,0,.27,1l.15.4.14.36.05.12,0,.06c0,.09-.08-.2,0-.11l0,.06.22.53c.12.36.35.68.49,1s.37.68.61,1a12.71,12.71,0,0,0,7.52,5.16,18.25,18.25,0,0,0,2.33.38c.39,0,.79,0,1.19,0,.19,0,.39,0,.59,0l.63-.05a12.42,12.42,0,0,0,1.46-.09c.5-.08,1-.15,1.51-.21s1-.25,1.54-.35l.78-.18.79-.26a30.42,30.42,0,0,0,6.41-3.07c.52-.34,1-.66,1.58-1l1.57-1.09c.53-.33,1-.73,1.56-1.13s1-.76,1.55-1.17a55.61,55.61,0,0,0,7-7.45c.52-.7,1.08-1.35,1.57-2.08l1.47-2.16c.93-1.52,1.91-3,2.75-4.63s1.67-3.24,2.49-4.89,1.53-3.36,2.17-5.12a99.85,99.85,0,0,0,3.56-10.77,132.14,132.14,0,0,0,4.06-23c.32-4,.53-8,.55-12,0-2,0-4.1-.07-6.17s-.13-4.18-.27-6.32c-.79-14.59-2.59-28.89-3.08-44a172.37,172.37,0,0,1,.67-23.34c.15-2,.49-4,.77-6.08s.7-4.09,1.11-6.16,1-4.2,1.54-6.35c.27-1.08.62-2.13,1-3.18l1.07-3.18a92.74,92.74,0,0,1,19.16-31.29c1.08-1.1,2.09-2.26,3.24-3.29L194,15.91a78,78,0,0,1,7.58-5.59A63.26,63.26,0,0,1,219.1,2.26a40.39,40.39,0,0,1,4.8-1.14l2.43-.48c.82-.13,1.66-.2,2.49-.29a39.71,39.71,0,0,1,5-.34h3.76l1.25.1A58.4,58.4,0,0,1,258,4.65a70.32,70.32,0,0,1,16.35,9.74c1.2,1,2.46,1.95,3.59,3l3.39,3.19c2.11,2.24,4.25,4.49,6.12,6.91l1.51,1.88c.48.63.9,1.27,1.32,1.88.83,1.22,1.6,2.37,2.22,3.4a17.09,17.09,0,0,1,1.87,4c0,.9-2.6-2.87-6.46-8a87.65,87.65,0,0,0-13.25-13.59A69.49,69.49,0,0,0,257.88,7a58.36,58.36,0,0,0-19.8-4.56c-1.72-.08-3.45,0-5.17,0s-3.44.31-5.15.49a58.11,58.11,0,0,0-9.93,2.35,65.6,65.6,0,0,0-17.67,9.06,79.91,79.91,0,0,0-14,13.12A86.43,86.43,0,0,0,175.68,43a92.78,92.78,0,0,0-7.11,17.43c-.4,1.54-.85,3.09-1.2,4.61l-.92,4.52c-.34,1.5-.48,3-.73,4.52s-.45,3-.57,4.51a158.32,158.32,0,0,0-.85,17.84c.07,11.74,1.08,23.09,1.93,34.18.43,5.53.8,11,1.05,16.41s.28,10.72.06,16a137.44,137.44,0,0,1-4.75,31.08,114.14,114.14,0,0,1-4.3,12.5,86.38,86.38,0,0,1-5.75,11.32c.14,0,.27-.09.35,0,.32.18.2,1-.25,2.34A99.24,99.24,0,0,0,164.46,193a143,143,0,0,0,3.21-21.3,181.54,181.54,0,0,0,.28-22c-.59-15.08-2.54-31-2.69-48.24A174.47,174.47,0,0,1,166,83.76c.12-1.45.35-2.91.53-4.36l.28-2.16c.11-.72.25-1.44.38-2.16.26-1.44.5-2.87.79-4.29s.68-2.84,1-4.25a88,88,0,0,1,6-16.51,94.1,94.1,0,0,1,9.1-14.74,79.19,79.19,0,0,1,15.07-16.21,62.28,62.28,0,0,1,20-10.94A53.07,53.07,0,0,1,242.58,6a58.94,58.94,0,0,1,21.8,7.91,10.6,10.6,0,0,1,2.41,1.67c.3.32-.28,0-1.31-.64a64.63,64.63,0,0,0-14.55-6.42,52,52,0,0,0-16.18-2.11l-2.06,0c-.69,0-1.37.15-2.05.22L228.58,7l-1,.12-1,.22-4,.89c-1.31.36-2.59.83-3.89,1.25a58.12,58.12,0,0,0-14.34,7.39,26.6,26.6,0,0,1,3.59-1.63c.88-.25,1.37-.26,1.36,0s-.54.76-1.4,1.56-2.11,1.8-3.63,3l2.94-1.91,1.47-.94,1.56-.83c1-.54,2.06-1.1,3.11-1.63l3.26-1.36A18.33,18.33,0,0,1,220.09,12c.9-.2,1.46-.27,1.45-.15s-.53.41-1.38.76-2.06.73-3.3,1.3l-3.27,1.38-3.12,1.65c-.51.28-1.05.54-1.55.85l-1.48.95c-1,.65-2,1.25-2.93,1.94A69.73,69.73,0,0,0,199.06,25c-.85.79-1.77,1.52-2.57,2.36l-2.42,2.5a78.66,78.66,0,0,0-8.51,10.94A82.61,82.61,0,0,0,179,53a77.54,77.54,0,0,0-4.83,15.9,111.9,111.9,0,0,0-2,16.23L172,89.21l-.05,4.05c0,1.35,0,2.69,0,4s0,2.69.1,4c.2,5.36.56,10.69,1,16a23.23,23.23,0,0,1,.89-6.24h0c-.09-1.65-.19-3.29-.28-4.94s-.14-3.29-.2-4.93a153.05,153.05,0,0,1,.36-22.84c.2-1.92.48-3.83.72-5.74s.7-3.82,1.05-5.73.91-3.81,1.46-5.7l.9-2.8.46-1.4.54-1.37A83.75,83.75,0,0,1,190.36,35,70.33,70.33,0,0,1,207.82,18.7l1.26-.83c.44-.26.89-.5,1.33-.74l2.68-1.46c.89-.5,1.86-.85,2.79-1.27s1.86-.85,2.83-1.17l2.93-1,1.47-.46,1.51-.33,3-.63c1-.21,2-.26,3.08-.39a49.3,49.3,0,0,1,6.2-.25c1,0,2.06.16,3.1.24l1.54.13c.52.07,1,.18,1.53.26l3.05.56,3,.82,1.49.42,1.44.54,2.88,1.1a65.49,65.49,0,0,1,20,13.8,87.34,87.34,0,0,1,14.26,19.29,7.51,7.51,0,0,1,1,2.09A6.56,6.56,0,0,1,289,47.75l-1.76-3.15-1.94-3-1-1.52-1.07-1.46-2.13-2.92a82.11,82.11,0,0,0-9.94-10.58,67.7,67.7,0,0,0-12-8.36,55.72,55.72,0,0,0-13.85-5.09l.08,0c.78.21.89.35,0,.26a27,27,0,0,1-3-.56c-.89-.23-.79-.33-.05-.26a49.29,49.29,0,0,0-13.83,0c-1.14.18-2.26.46-3.39.68l-1.68.36c-.56.13-1.1.34-1.65.5l-3.28,1.06c-1.06.43-2.1.9-3.15,1.35l-1.57.68-1.5.81-3,1.65L206.49,20c-.47.32-1,.62-1.41.95l-1.33,1c-.88.7-1.77,1.39-2.64,2.1l-2.47,2.28c-.41.38-.83.75-1.23,1.14l-1.15,1.22L194,31.21l-2.12,2.58-1.06,1.29-1,1.35-1.93,2.7-1.77,2.81c-1.22,1.84-2.18,3.83-3.25,5.76-.51,1-1,2-1.42,3s-.94,2-1.32,3l-1.2,3.07c-.4,1-.69,2.08-1,3.12-.73,2.08-1.19,4.24-1.74,6.36s-.84,4.27-1.2,6.41-.61,4.28-.77,6.43c.17-2,.55-4,.81-6s.77-3.94,1.15-5.92c.2-1,.51-2,.76-2.94s.48-2,.82-2.92c.67-1.91,1.24-3.86,2.05-5.71l1.15-2.8,1.31-2.74c.83-1.84,1.86-3.58,2.84-5.34.47-.9,1-1.74,1.58-2.59l1.64-2.55,1.8-2.44c.6-.81,1.17-1.65,1.84-2.41a68.49,68.49,0,0,1,18.22-16,50.82,50.82,0,0,1,23.3-6.95,42,42,0,0,1,5.38-.08l2.7.15,2.7.4c.49.08,1.05.19,1.54.31a6.2,6.2,0,0,1,1.06.39c.24.18-.47,0-1.47-.14l-3-.45,2.2.44a14.39,14.39,0,0,1,2,.51c1.25.41,2.35.79,3.26,1.14,1.76.83,2.74,1.47,2.6,1.69-.53.43-5.4-1.29-11.53-2a47.92,47.92,0,0,0-12.32.24l-3,.65-1.51.32-1.46.47-2.94.95c-1,.39-1.88.81-2.83,1.21a60,60,0,0,0-19.66,14.52,25.47,25.47,0,0,0-1.72,2l-1.67,2.08c-1.05,1.45-2,3-3,4.45a70.56,70.56,0,0,1,12.77-14,55.26,55.26,0,0,1,16.21-9.48l4.48-1.38,4.58-.91c1.56-.12,3.1-.36,4.65-.39H237l1.16.12a47.11,47.11,0,0,1,17.75,5.1,14,14,0,0,1,2.4,1.39c.6.41,1,.71.94.8s-.43,0-1.06-.32l-1.09-.54-.63-.33-.7-.32a46.38,46.38,0,0,0-15.37-4.41,42.4,42.4,0,0,0-15.77,1.41c-10.25,3-19.21,9.61-26.23,17.78A77.23,77.23,0,0,0,183.3,64.07l-1,3.91-.75,4c-.28,1.34-.42,2.7-.6,4.06s-.38,2.7-.47,4.08A142.41,142.41,0,0,0,180,96.69c1.17,14.61,4.07,29.19,6.23,44.63-.12-2-.29-3.92-.44-5.89-.53-6.23-1.16-12.27-1.76-18.16s-1.1-11.62-1.44-17.26-.41-11.16-.22-16.6a103.94,103.94,0,0,1,1.88-16,68.64,68.64,0,0,1,4.91-15,74.81,74.81,0,0,1,8.18-13.81A60.38,60.38,0,0,1,208.7,27a48.12,48.12,0,0,1,14.46-7.78,5.47,5.47,0,0,1,2.13-.49c.07,0-.08.11-.37.22s-.72.3-1.26.48a46.75,46.75,0,0,0-14,7.38A62.64,62.64,0,0,0,198.6,37.84,73.41,73.41,0,0,0,185.11,66.1a93.64,93.64,0,0,0-2,13.14,130.08,130.08,0,0,0-.28,13.24,246,246,0,0,0,2.35,26.36c-.88-9-1.64-17.76-1.74-26.33a110,110,0,0,1,2.18-25l.69-3,.88-2.92a29.84,29.84,0,0,1,1-2.89c.37-1,.68-1.93,1.09-2.87.83-1.87,1.61-3.78,2.6-5.58s2-3.6,3-5.38a68.13,68.13,0,0,1,7.48-9.83c1.34-1.58,2.91-2.9,4.38-4.36l2.37-1.95c.41-.32.79-.66,1.2-1l1.27-.86a14.43,14.43,0,0,1,3.24-1.92,2.34,2.34,0,0,1,.63-.51l1.31-.84.66-.42.71-.35,2.89-1.45a40.83,40.83,0,0,1,6.32-2.14,8.4,8.4,0,0,1,2.38-.38C230.22,19,229.71,19.09,228.79,19.39Zm-197,83.89-.25-.1.7,0,1.37.85Zm-5.87,9.63h0l-.82-.36Zm79.72,114.41a27.39,27.39,0,0,1-.23-4.59c0-.82.1-1.73.14-2.59s.17-1.79.32-2.72a85.46,85.46,0,0,1,2.7-11.79c.61-2.07,1.24-4.11,2-6.16s1.45-4.11,2.28-6.35c1.65-4.38,3.57-9.79,5-15.12a150.09,150.09,0,0,1-4.2,15c-1.25,3.4-2.36,6.41-3.37,9.5-.51,1.54-1,3.09-1.45,4.66l-.68,2.37-.58,2.19a67.61,67.61,0,0,0-1.65,8.38A36.76,36.76,0,0,0,105.59,227.32ZM22.76,102.45a11.64,11.64,0,0,1,3.48.8,5.51,5.51,0,0,1,1.61-1.2,52.08,52.08,0,0,1,5.06-2c-.42-.33,0-.47.16-.62a4.31,4.31,0,0,1,.56-.39c-1.88.5-3.73,1.08-5.69,1.63a23,23,0,0,0-2.6.94A23.17,23.17,0,0,1,22.76,102.45Zm-9.22,9.42-.24,0-.24-.78Zm.44,1.28.26-.09C14.36,113.32,14.23,113.31,14,113.15Zm2.39-.86a1.37,1.37,0,0,0-.51-.08Zm15.22,15.58c-.61-1.08-1.21-2.18-1.8-3.28.54,1.08,1.09,2.14,1.66,3.21Z"/><path d="M164.86,136.8l.63.12a1.66,1.66,0,0,1-1.12.67,14.62,14.62,0,0,0,8.33-2.19,27,27,0,0,0,3.44-2.5,24.47,24.47,0,0,0,2.79-2.91c1.58-.36,2.66-1.53,2.43-2.65s-1.77-1.76-3.44-1.41a6.33,6.33,0,0,1-1.2-.1,25,25,0,0,0-9.93-.84l2.3.26a11.44,11.44,0,0,0-3.09.49l.65.46c-3.82-.25-7.87,2.11-8.65,5.13s1.69,5.37,5.25,5.4C163.79,136.75,164.31,136.76,164.86,136.8Z"/><path d="M173.22,140.7l-5.8-.1-.51-.22,1,1.58,0-.12c.65-2,2.71-3.74,4.8-5l.69-.57a1.38,1.38,0,0,0,.31-1.17c-.18-.87-1.25-1.33-2.4-1l-1.33.35a12.85,12.85,0,0,0-5.48,1.8,5.14,5.14,0,0,0-2.73,4.31c0,.81.86,1.45,1.39,2.15a2.72,2.72,0,0,0,3.57.87c1.39-.66,2.15-2,1.65-3.15l.85-.11-.35.66c-.13-1.13,1.06-1.95,1.78-2.89.44-.31.91-.59,1.36-.89l-2.14-2.2c-.22.22-.43.44-.63.67.12.09.32.19.31.21a33.42,33.42,0,0,1-3.48,3.86l-1.41,1.92a1.21,1.21,0,0,0,1.07,1.57l1.17.1-.57-.12,3.41-.74c1.14-.24,2.26-.49,3.39-.62a.74.74,0,0,0,.73-.6C173.89,140.92,173.6,140.68,173.22,140.7Z"/><path d="M166.49,144.35a1.83,1.83,0,0,0-1.26.21l-.07.3.87.11C166.65,145,166.73,144.69,166.49,144.35Z"/><path d="M165.16,144.86l-.37-.05.32.15,0-.05Z"/><path d="M255.39,139.68a133.83,133.83,0,0,1,15.31,11.24c.15.14.34.18.41.09s0-.27-.15-.39a131.47,131.47,0,0,0-15.31-11.32c-.19-.12-.38-.12-.46,0S255.22,139.56,255.39,139.68Z"/><path d="M283,176.38c-.14,0-.22,0-.18.17a.58.58,0,0,0,.31.34c.12,0,.21,0,.18-.18A.56.56,0,0,0,283,176.38Z"/><path d="M276.5,180.81a8.86,8.86,0,0,0-1.85-1,.49.49,0,0,1-.24-.23c-.08.14-.29.15-.53,0-4.66-2.5-9.25-5.33-14.06-7.44a1.16,1.16,0,0,1-.44.24,2.16,2.16,0,0,1-1.88-.43l-.41-.38c-1.76-1.33-3.58-2.58-5.41-3.8a4.81,4.81,0,0,1-1.58-.31l-3-.33-3-.3a.69.69,0,0,1,0,.51,1,1,0,0,1-1.21.36c-.24-.08-.48-.14-.72-.21.64.29,1.26.68,1.88,1a.67.67,0,0,1,.24.16l2.25.82A177.42,177.42,0,0,1,267,177.26a.39.39,0,0,1,.29.28.16.16,0,0,1-.23.15c-4.82-1.41-9.58-1.45-14.48-2.44a73,73,0,0,0-16.79-1.41c-.65-.12-1.29-.21-1.92-.3s-1.28-.07-1.91-.1a28.92,28.92,0,0,0-3.74.18A42.55,42.55,0,0,0,221,175.3c-1.77.55-3.45,1.15-5.06,1.76-2.21.86-4.31,1.69-6.32,2.7-1,.43-2,1-3,1.49s-1.94,1.06-2.87,1.7a2.77,2.77,0,0,1-1.47.69,2.68,2.68,0,0,1-1.58-.21,6.63,6.63,0,0,1-3-3,8.19,8.19,0,0,1-.8-5.87l-.61.27-1.08.15a4.36,4.36,0,0,1-3.14-1l-1.32-.95a27.64,27.64,0,0,0-3.5-2.67,25.83,25.83,0,0,1-3.62-2.73l-.37-1.12-.36-.17a6.12,6.12,0,0,1-2.83-2l-.63-1.26a12.63,12.63,0,0,1-1.12-4.55,4.6,4.6,0,0,1-.62-1.61,6.62,6.62,0,0,1-2.6-3.81.91.91,0,0,1-.55-1.26,1.24,1.24,0,0,1,.38-.44h0c-.37-.22-.48-.28-.93-.51-.41.07-.65.09-.65.09-1.06.25-1,.28-1.95.5a5.38,5.38,0,0,1-1.71-.4c-2.09-1.73-2.11-1.73-2.55-2.72a2.08,2.08,0,0,1,0-.35L166,148a3.16,3.16,0,0,1-.53-.19c-.34-.48-.34-.48-.57-.6a2.27,2.27,0,0,1-.26-.36c0-.75,0-.75-.08-.92a1.42,1.42,0,0,1,0-.38c.32-.4.45-.55.51-.62l1.72.81-.07-.56.57.48-.45-.48.66.09-.82-.2a5.39,5.39,0,0,0,1.65-.64,2.86,2.86,0,0,0,.86-.52c-.13-.16-.21-.28-.21-.28,1.33-.36,1.33-.36,2.63-.68a5.14,5.14,0,0,1,.47.23.61.61,0,0,1,.46-.46l.66-.19.1-.13,0-.05.4-.48.08-.11h0l1.76-2.09a8.6,8.6,0,0,1,1.18-.17l-.42-.12c-.29-.1-.33-.66-.46-.67a27,27,0,0,0-4.78.56c-1.58.34-3.17.76-4.76,1.18a1.14,1.14,0,0,1-1.43-.08.84.84,0,0,1,.36-1.23,18.5,18.5,0,0,1,3.94-3.58,24.82,24.82,0,0,1,4.94-2.48,31.28,31.28,0,0,1,5.48-1.33,30.64,30.64,0,0,1,5.56-.21c1.82-.15,3.6-.4,5.41-.52l-.32-.2,1.46.11h.15l-1.27-.7-.8-.12a50.34,50.34,0,0,1-6.27.27c-2.08.06-4.26,0-6.39.21-2.31.21-4.53,0-6.83.13-.54.15-1.05,0-1.17-.42s.25-.8.78-.95a32,32,0,0,1,5.18-2.07,32.88,32.88,0,0,1,5.54-1.25,27.11,27.11,0,0,1,5.53-.21,19.35,19.35,0,0,1,5.11,1A7.06,7.06,0,0,1,195,127H195l-1-.64a21.09,21.09,0,0,1,2.55.75l-.53-1c2.4,0,4.87-.11,7.28-.12a35,35,0,0,1,3.58.27c.59.07,1.17.16,1.74.28a16.12,16.12,0,0,1,1.68.48c.17,0,.33.06.5.09a16.75,16.75,0,0,1,3.69-1.05,11.73,11.73,0,0,1,2.09-.13l-2.11-.45h0a13.88,13.88,0,0,1,4.7-.27,20.14,20.14,0,0,1,6.59,2,11.78,11.78,0,0,1,4.59,3.78,103.9,103.9,0,0,1,23.4,7.37c.39.16.65.49.62.75s-.4.33-.78.17a151.06,151.06,0,0,0-16.74-4.86c4.63,1.86,9,4,13.43,6.13l1.72.72a8.6,8.6,0,0,1,1.6.94c5.5,2.88,10.31,6.12,15.51,9.43a142.71,142.71,0,0,1,12.23,8.82,68.58,68.58,0,0,1,14.44,15.34c.57.77.79,1.71.5,2.07s-1,.06-1.57-.69a114.93,114.93,0,0,0-15.65-15.54A215.3,215.3,0,0,0,260.7,148.3c-1.45-.89-2.85-1.83-4.31-2.67a1.09,1.09,0,0,1-.07.24,1.18,1.18,0,0,1-.77.6c1.64.95,3.17,2.1,4.72,3.19a46.07,46.07,0,0,1,13.36,8.76,56.29,56.29,0,0,1,6.78,8.41,94.73,94.73,0,0,1,9.18,9.29.46.46,0,0,1,.18.4c0,.11-.16.1-.29,0-2.26-2-4.55-4.09-6.93-6.09a1.32,1.32,0,0,1-.32,1.34,1.53,1.53,0,0,1-1.49.1c.46.51.94,1,1.38,1.53.27.33.36.7.2.84s-.53,0-.8-.28c-.93-1-1.89-2-2.84-3.05s-2-2-2.95-3c-1.28-1.07-2.65-2.05-4-3.08s-2.72-1.94-4.09-2.89a2.57,2.57,0,0,1,0,1.55h0l1.22.93a65.7,65.7,0,0,1,20.88,19.47c.12.16.15.33.08.39s-.23,0-.32-.15c-.86-1.19-1.72-2.36-2.61-3.52s-1.87-2.24-2.82-3.33h0c0,.13,0,.22-.17.17a.65.65,0,0,1-.31-.34c0-.15.06-.21.18-.17a63.06,63.06,0,0,0-12.23-10.43,71,71,0,0,1,10.44,10.29l1.35.94a.43.43,0,0,1,.16.39c0,.08-.18.07-.29,0l-.37-.28c.58.73.71,1.56.32,1.88s-1.23,0-1.86-.73c-.89-.9-1.78-1.79-2.66-2.69L276,173.71l-.65-.5-.78-.35a99.79,99.79,0,0,1,7.52,8.84c.22.25.29.55.16.68s-.43,0-.65-.22a127.38,127.38,0,0,0-15.93-12.44c-1.17-.28-2.31-.58-3.49-.8l-3.54-.62.68.47c1.48.94,3,1.72,4.5,2.51l4.54,2.26c1.52.75,3,1.61,4.47,2.48a37,37,0,0,1,4.2,3.11.31.31,0,0,1,.13.36c-.06.08-.21.06-.34-.07a34.74,34.74,0,0,0-4.16-2.92c-1.46-.83-2.91-1.64-4.42-2.46a45.07,45.07,0,0,0-7.43-3.34c4.44,2.6,9.11,4.9,13.28,8.19a.77.77,0,0,1,.37.48.27.27,0,0,1,.2,0,10.69,10.69,0,0,1,1.95,1.07.37.37,0,0,1,.2.35C276.78,180.88,276.65,180.89,276.5,180.81Zm-88.81-38.6a1,1,0,0,0-.22-.13l.66.13,1.18,1Zm-7.29,7.95h0l-.73-.51Zm60.72-12.92c-1.64-.55-3.27-1.15-4.91-1.77s-3.27-1.3-4.93-2c.85.1,1.68.26,2.52.42A70.14,70.14,0,0,1,241.12,137.24Zm-61.8,2.55a12.5,12.5,0,0,1,3.17,1.42,5.31,5.31,0,0,1,1.75-.77,34.87,34.87,0,0,1,5.07-1c-.35-.38.05-.43.23-.53l.58-.27-2.77.21-2.81.27c-.85.1-1.74.21-2.61.35A21.52,21.52,0,0,1,179.32,139.79Zm-10.72,6.79-.22-.08-.08-.79S168.43,146.07,168.6,146.58Zm.18,1.32.27,0C169.11,148.15,169,148.1,168.78,147.9Zm2.51-.29a1.65,1.65,0,0,0-.49-.19Zm11.71,18-1.1-3.56,1,3.46Z"/><path d="M108.92,43.68l.26,0c0,.16-.16.27-.36.35,2.46,0,3.94-2.3,4.34-4.49a1.09,1.09,0,0,0,.33-1.51,1.1,1.1,0,0,0-1.51-.34,1.37,1.37,0,0,1-.44.06,8.48,8.48,0,0,0-3.68.26h.86a2.83,2.83,0,0,0-1,.39l.31.18a2.54,2.54,0,0,0,.26,5.07Z"/><path d="M112.76,45.13c-.79.11-1.57.18-2.36.25l-.23-.09.6.71,0-.06A4.46,4.46,0,0,1,112,43.32l.18-.31a.78.78,0,0,0-.06-.58.8.8,0,0,0-1.09-.34l-.46.25c-1.3.33-2.85,1.5-2.43,3.17.1.38.49.66.78,1a1.1,1.1,0,0,0,1.54.31,1.11,1.11,0,0,0,.31-1.55l.33-.09c0,.11,0,.21-.06.33-.19-.53.18-1,.33-1.46l.41-.5-1.16-.91-.14.35.15.08a10.22,10.22,0,0,1-.86,2l-.35.94a.69.69,0,0,0,.6.71h.49l-.25,0c.89-.28,1.74-.7,2.63-1a.29.29,0,0,0,.22-.34A.28.28,0,0,0,112.76,45.13Z"/><path d="M110.44,47.18a.67.67,0,0,0-.51.13,1.06,1.06,0,0,1,0,.15l.37,0C110.57,47.5,110.57,47.33,110.44,47.18Z"/><path d="M109.94,47.46h-.16l.15.06v0Z"/><path d="M131.81,27.16a40,40,0,0,0,3.7-2s0-.1,0-.18-.12-.1-.15-.07c-1.2.72-2.42,1.4-3.7,2,0,0,0,.1,0,.17S131.77,27.18,131.81,27.16Z"/><path d="M145.43,27.79a.24.24,0,0,0,.14.18c.06,0,.1,0,.09-.08a.34.34,0,0,0-.14-.17C145.45,27.69,145.42,27.73,145.43,27.79Z"/><path d="M149.46,33.48a1.89,1.89,0,0,0-.11.74c0,.05,0,.06-.08.05a.42.42,0,0,1,.13.33,15.45,15.45,0,0,1-2,4.47,1.68,1.68,0,0,1,.15.3c.14.34.1.62-.11.69l-.18,0c-.64.23-1.24.49-1.88.71a.8.8,0,0,1-.17.51,12.6,12.6,0,0,1-.59,2,1,1,0,0,1,.26.24c.18.25.21.51.09.6l-.17.15c.22-.07.44-.15.67-.21a.16.16,0,0,1,.1,0,4.18,4.18,0,0,0,.57-.47,15.25,15.25,0,0,0,3.23-6c0-.06,0-.08.11,0a.29.29,0,0,1,.12.18c-.06,2,.31,4.3-.21,6a30.48,30.48,0,0,1-2.26,5.56c-1.46,1.13-2.35,2.77-3.5,4.36a18.59,18.59,0,0,1-1.21,1.51,1.71,1.71,0,0,1-.2.21l-.34.31-.67.62-1.36,1.2C138,59,136.17,60.51,134.27,62a3.32,3.32,0,0,1-5.64-2.85l-.37.25-.69.26a2.84,2.84,0,0,1-2,0l-.86-.3c-1.41-.75-3-1.06-4.35-1.93l-.26-.52-.2-.06a2.82,2.82,0,0,1-1.58-.73l-.39-.57a6.72,6.72,0,0,1-.87-2.16,2.36,2.36,0,0,1-.43-.75A3.37,3.37,0,0,1,115,51a.48.48,0,0,1-.37-.58.48.48,0,0,1,.13-.23h0a4.17,4.17,0,0,0-.47-.19A2,2,0,0,1,114,50l-.82.33a2.21,2.21,0,0,1-.79-.12c-1.06-.75-1.06-.75-1.34-1.2a1.36,1.36,0,0,1,0-.17,4.69,4.69,0,0,1-.47,0,1.26,1.26,0,0,1-.24-.07c-.18-.22-.18-.22-.29-.27a1.69,1.69,0,0,1-.14-.16c-.06-.36-.06-.36-.12-.43a1.09,1.09,0,0,1,0-.19l.16-.3.79.32-.09-.26.29.21-.24-.21.29,0-.36-.07a1.91,1.91,0,0,0,.62-.35.78.78,0,0,0,.3-.29l-.11-.12c.5-.24.5-.24,1-.45l.22.08a.24.24,0,0,1,.14-.24L113,46l0-.07,0,0,.1-.26,0-.05h0c.07-.18.16-.44.41-1.12a2.14,2.14,0,0,1,.46-.17l-.2,0c-.13,0-.23-.29-.28-.28a17.14,17.14,0,0,0-3.6,1.34.4.4,0,0,1-.58,0,.42.42,0,0,1,0-.59,9,9,0,0,1,6.42-5.1c.63-.3,1.25-.63,1.86-1l-.16,0,.55-.16,0,0-.62-.15-.31.06A26.82,26.82,0,0,1,112.62,40a24.07,24.07,0,0,1-2.52.55.37.37,0,0,1-.5-.14.36.36,0,0,1,.13-.49c1.85-1.88,4.4-3.45,7.11-3.38a2.14,2.14,0,0,1,1.32-.44h0l-.49-.15c.35-.14.71,0,1-.06l-.44-.38c1.61-.8,3-2.09,4.8-2.43a.71.71,0,0,1,.18-.08,9.44,9.44,0,0,1,.94-1.79l-.45.12a1.36,1.36,0,0,1,.51-.88,3.11,3.11,0,0,1,3.36.47,50,50,0,0,0,3.69-3.73c0-.07.19,0,.31.1s.16.29.11.36a16.48,16.48,0,0,1-2.26,3.23,14.67,14.67,0,0,0,2.91-1.46l.28-.31a.71.71,0,0,1,.38-.18,12.8,12.8,0,0,0,3-2.76A27.93,27.93,0,0,0,138,23.06,12.5,12.5,0,0,1,141,18.89c.14-.17.5-.05.78.28s.41.73.26.91c-1.91,3.18-3.6,6.55-6.59,8.6-.33.22-.65.43-1,.65l.11.13a1.86,1.86,0,0,1,.31.56,9.63,9.63,0,0,1,1.21-.58,6.59,6.59,0,0,1,2.51-2.88,8.87,8.87,0,0,1,2.71-.62c.66-.86,1.27-1.77,2-2.6,0-.05.08,0,.14,0s.1.14.08.18a12.52,12.52,0,0,1-1,2.4,2.38,2.38,0,0,1,.76.68,2.27,2.27,0,0,1,.43.95l.42-.29c.09-.06.25,0,.37.17s.16.35.07.4l-1.7,1.21q-.78,1-1.62,2a3.3,3.3,0,0,1,.77.6h0l.29-.26a13.89,13.89,0,0,1,4.77-5.61s.11,0,.17.07.08.16,0,.18a11.39,11.39,0,0,0-1.73,1.36h0a.28.28,0,0,1,.13.18c0,.06,0,.1-.08.07a.26.26,0,0,1-.14-.17A14.62,14.62,0,0,0,143,30.81a17,17,0,0,1,2.95-2.26L146,28s.09,0,.15,0,.09.14.07.18l0,.14c.21-.12.59.07.87.45s.36.81.16.94a18,18,0,0,1-1.44,1.33l-.12.2,0,.3c.92-.47,1.85-.9,2.8-1.32.06-.06.2,0,.31.14s.14.28.07.34a27.85,27.85,0,0,1-3.34,4.42c0,.93-.05,1.88-.07,2.82l.19-.13c1.55-1.19,1.59-3.84,2.82-5.34,0,0,.1,0,.15.05s.09.15,0,.18a15.63,15.63,0,0,0-1.2,2.82,15,15,0,0,0-.91,2.4c1-1,1.56-2.59,2.44-3.79,0-.06.1-.07.19,0a.24.24,0,0,1,0-.12,2.71,2.71,0,0,1,.12-.78c0-.05.07-.05.14,0A.23.23,0,0,1,149.46,33.48ZM119,44.51l-.12,0h.3l.69.33Zm-1.87,4.64h0l-.39-.19ZM130.83,31a4.53,4.53,0,0,1-2.15.9l.36-.42A16.16,16.16,0,0,1,130.83,31ZM115.1,44.23a6.33,6.33,0,0,1,1.54.39,2.17,2.17,0,0,1,.57-.56,19.71,19.71,0,0,1,1.86-1.1c-.22-.13-.07-.21,0-.29l.17-.21c-.69.33-1.4.63-2.13.94A14.94,14.94,0,0,1,115.1,44.23Zm-3.55,3.93-.11,0-.11-.37Zm.2.62.11,0C111.92,48.88,111.86,48.86,111.75,48.78Zm1-.24a.71.71,0,0,0-.23-.07Zm7.07,8-.81-1.66.74,1.63Z"/></g></g></svg>