<svg xmlns="http://www.w3.org/2000/svg" viewBox="0 0 421.67 385.68"><g id="Layer_2" data-name="Layer 2"><g id="Layer_1-2" data-name="Layer 1"><path d="M228.13,240.46l.45.67a2.83,2.83,0,0,1-1.52-.77,25.28,25.28,0,0,0,4.26,4.08,39.4,39.4,0,0,0,4.88,3,36.94,36.94,0,0,0,5,2.16,42.08,42.08,0,0,0,4.63,1.52c1.7,1.29,3.49,2,4,1.35s-.4-2.44-2.12-3.91a11.77,11.77,0,0,1-1-1.19,46.54,46.54,0,0,0-3.5-5c-1.33-1.63-2.81-3.39-4.43-5.15l1.74,2.44a22.56,22.56,0,0,0-3-2.91c.06.26.14.57.2.83a22.6,22.6,0,0,0-5.51-5,8.93,8.93,0,0,0-5.52-1.62c-3.06.47-3,4.31,0,7.92Z"/><path d="M232.55,250.29c-1.8-1.75-3.52-3.61-5.26-5.53l-.27-.58-.38,1.75.07-.09a8.79,8.79,0,0,1,4,.47,29.7,29.7,0,0,1,4.44,1.73l1.07.41a1.19,1.19,0,0,0,1.17-.2c.49-.55-.13-1.78-1.39-2.78-.48-.39-1-.75-1.45-1.11a33.69,33.69,0,0,0-2.9-2.41,20.69,20.69,0,0,0-3.33-2.12c-2.24-1.08-4.42-1.61-5.88-.67-.66.43-.5,1.58-.63,2.46-.46,1.13.64,2.92,2.44,4s3.64,1,4.11,0l.86.77-.85,0c.81-.65,2.55.13,3.95.37l1.93.84-.22-3-1.08-.28a2.93,2.93,0,0,1,.11.39c-2.07-.44-4-.91-6.19-1.57l-2.84-.45c-.84.12-1,.95-.37,1.83l1,1.18-.41-.61c1.22,1,2.48,1.87,3.73,2.86s2.5,1.92,3.67,2.88a1.31,1.31,0,0,0,1.18.37C233,251,232.93,250.62,232.55,250.29Z"/><path d="M223.31,245.74a3.51,3.51,0,0,0-1.32-1.13l-.32.09.7.9C222.86,246.24,223.24,246.14,223.31,245.74Z"/><path d="M221.67,244.7l-.29-.38c.06.13.11.26.16.38h.13Z"/><path d="M353.69,293.39c-.8-2.83-1.7-5.73-2.74-8.74-.27-.75-.52-1.51-.81-2.27l-.91-2.44c-.63-1.72-1.29-3.41-2-5.08-2.72-6.7-5.73-12.9-9-19.34l-5.2-10.23-1.42-2.8-1.45-3-1.5-3.09-.79-1.66-.91-2c-1.11-2.5-2.1-4.87-3-7.23s-1.79-4.71-2.61-7.05c-1.65-4.69-3.13-9.38-4.46-14.12-.35-1.27-.84-2.28-1.12-2.26s-.19,1,.15,2.23q2,7.13,4.44,14.17c1.65,4.73,3.42,9.35,5.61,14.33l.88,2,.84,1.76,1.5,3.11,1.45,3c.47,1,.95,1.9,1.42,2.81l5.18,10.2c3.25,6.4,6.25,12.53,9,19.17,1.34,3.24,2.7,6.93,3.71,9.73,1,3,2,5.86,2.79,8.65.25.75.6,1.34.85,1.42S353.91,294.11,353.69,293.39Z"/><path d="M366.52,48.52c-.41.73-.24.81.4.22a11.36,11.36,0,0,0,1.77-2.24c.34-.61.15-.73-.4-.22A11.35,11.35,0,0,0,366.52,48.52Z"/><path d="M374.15,62.75A86.12,86.12,0,0,0,369,74.22a9,9,0,0,1-.89,1.87c.39-.07.29.83-.25,2.33-1.44,3.65-2.49,7.46-3.68,11.18-.5,1.9-.93,3.81-1.43,5.7-.23,1-.5,1.89-.7,2.84l-.54,2.88c-.34,1.92-.76,3.81-1,5.74s-.59,3.82-.74,5.77l-.3,2.89c-.09,1-.13,2-.2,2.91-.16,1.94-.2,3.89-.26,5.83a166.74,166.74,0,0,0,5.74,46.59,2.89,2.89,0,0,1,1.24,1.11c1.5,1.92,2.95,6,4,10.37l.68,3.33A164.48,164.48,0,0,0,376.7,205c.59,1.53,1.21,3.06,1.78,4.4l.47,1,.56,1.22,1.16,2.51c1.59,3.39,3.26,7,4.92,10.83a66.11,66.11,0,0,1,5.66,10.45,171.41,171.41,0,0,1,8.94,20.77c.61,1.78,1.24,3.56,1.82,5.35l.84,2.69c.28.89.56,1.77.84,2.77a111.75,111.75,0,0,1,2.79,12c.13-1.11.35-1.81.69-1.87.87.15,2,4,2.19,8.71.13,2.39.19,4.8.13,7.23a116.23,116.23,0,0,0-.84-20.47c-.13-.95-.23-1.84-.31-2.64-.32-1.78-.68-3.55-1-5.3s-.75-3.27-1.13-4.91l-1.26-4.94-1.41-5a166.77,166.77,0,0,0-7.94-21.17c-3.07-6.71-6.47-12.91-9.49-18.14L384,206.94c-.53-.91-1.14-2.05-1.73-3.19-1.18-2.29-2.34-4.72-3.45-7.18-2.23-4.93-4.23-10-6-15.18A200.84,200.84,0,0,1,364.52,150a151.28,151.28,0,0,1-2.34-31.92,5.09,5.09,0,0,1,.4-2.36c.25-.37.51-.24.49.54a107.6,107.6,0,0,0,2.21,19.61,166.24,166.24,0,0,0,4.93,18.5c1,3,2.1,6.07,3.2,9.12s2.36,6.1,3.63,9.19q3.82,9.25,8.56,18.95c.94,1.91,1.93,3.79,2.92,5.59s2,3.56,3,5c.24.36.47.7.65.93.27.39.61.95.9,1.41l1.93,3c1.37,2.14,2.7,4.38,4.15,6.84s2.82,5,4.24,7.69,2.72,5.49,4,8.35A176.7,176.7,0,0,1,414,248.18c1,3,1.82,6,2.64,8.94l1.18,4.46c.4,1.61.81,3.28,1.17,5a110.93,110.93,0,0,1,2.64,21.36,109.54,109.54,0,0,1-1.92,23.18c-.39,2-.81,3.94-1.32,5.91-.27,1-.5,1.94-.8,3l-1,3.1a93.24,93.24,0,0,1-4.78,11.88A91.62,91.62,0,0,1,397,355.49a97.46,97.46,0,0,1-18.1,14.63,104.44,104.44,0,0,1-39.94,14.65,80.36,80.36,0,0,1-20.79.42,71.66,71.66,0,0,1-10.32-1.88c-1.7-.47-3.38-.93-5.05-1.53l-1.24-.43-.63-.22-.77-.29c-1-.39-2-.78-3-1.21s-1.91-1-2.83-1.49-1.76-1.14-2.63-1.7a26.21,26.21,0,0,1-2.44-1.82l-1.15-1c-.37-.32-.71-.67-1.06-1a44.91,44.91,0,0,1-6.94-8.61,70.63,70.63,0,0,1-7.93-18.22c-.61-2.06-1.12-4.23-1.56-6.22s-.87-4-1.3-6c-.86-4-1.7-8.05-2.62-12a74.64,74.64,0,0,0-3.26-11,34.37,34.37,0,0,0-4.83-8c-.49-.48-.9-1-1.4-1.41l-.95-.82c-.22-.2-.52-.37-.76-.56a15.16,15.16,0,0,0-1.57-1,33.07,33.07,0,0,0-3.35-1.72l-1.78-.71c-.61-.22-1.27-.42-1.88-.62s-1.26-.38-1.92-.54-1.27-.33-2-.47c-1.42-.25-2.66-.56-4.16-.7l-2.14-.25-2.24-.16a14.05,14.05,0,0,1-1.63-.09c-.54-.05-1.07-.11-1.56-.2a9.17,9.17,0,0,1-2.5-.82c-1.46-.67-2.22-1.79-2-3.11.31-1.61,2-3.07,4.44-3.78l-1.17-.18-1.73-.54a8.47,8.47,0,0,1-1.14-.47,6.89,6.89,0,0,1-1-.54,4.3,4.3,0,0,1-1.38-1.41l-.9-1.36a23.71,23.71,0,0,0-2.06-3.8,14.18,14.18,0,0,1-1.85-4.15l.66-.94-.27-.37a4.56,4.56,0,0,1-1.42-3.25l.5-1.25a9.19,9.19,0,0,1,3.05-3.55,2.88,2.88,0,0,1,.81-1.41,4.24,4.24,0,0,1,.69-4.26c-.39-.57-.14-1.08.55-1.14a1.92,1.92,0,0,1,.77.11h0c-.18-.43-.23-.56-.49-1.08l-.73-.53c-1.27-.75-1.28-.75-2.37-1.44a7.35,7.35,0,0,1-1.31-1.78c-.44-2.86-.45-2.89,0-3.84a2.49,2.49,0,0,1,.3-.19c-.8-.77-.85-.84-1.07-1.06a3.36,3.36,0,0,1-.31-.62c.11-.59.11-.59,0-.87a1.72,1.72,0,0,1,.08-.45c.67-.38.67-.38.73-.55a1.4,1.4,0,0,1,.37-.16l1,.19.86,2.08.42-.35.1.79v-.67l.53.68-.58-.89a9.83,9.83,0,0,0,2.05,1.25,4.37,4.37,0,0,0,1.25.53,1.62,1.62,0,0,1,0-.33c1.54,1.05,1.54,1.08,3,2.14.1.2.18.38.25.55a1,1,0,0,1,.81.21l.79.52h.19l0,0,.77.12.16,0h0c.53.07,1.3.21,3.33.67.45.34.87.68,1.25,1-.11-.15-.21-.29-.31-.45s.2-.59.08-.71c-.76-.74-1.55-1.47-2.37-2.18s-1.66-1.35-2.52-2c-1.73-1.29-3.51-2.74-5.27-4a1.87,1.87,0,0,1-1.2-1.43c0-.47.63-.58,1.32-.25a27.84,27.84,0,0,1,6.36,2.17,39.55,39.55,0,0,1,6.33,3.65,65.85,65.85,0,0,1,11.32,9.84c.92.8,1.83,1.71,2.74,2.54s1.81,1.65,2.69,2.57l-.17-.39,1.29,1.53.15.15-.75-1.52-.66-.85c-1.05-1-2.07-2-3.07-3l-1.49-1.54c-.5-.49-1-1-1.48-1.48-1-1-2-2-2.95-3.07s-2-2-3.06-3-2.15-2.18-3.15-3.22-2-2.19-3-3.31c-.58-.47-.9-1.06-.71-1.34s.83-.09,1.4.38a74.39,74.39,0,0,1,11.81,9.15c.92.87,1.82,1.74,2.68,2.61s1.68,1.85,2.45,2.76,1.51,1.8,2.18,2.73,1.29,1.87,1.85,2.77a24.38,24.38,0,0,1,1.77,1.92,18.89,18.89,0,0,1,1.39,2l0,.06-.47-1.2c.85,1.08,1.11,1.91,1.84,2.92,0-.27.05-.57.08-.84,1,1.32,2.11,2.67,3.18,4s2.06,2.83,3,4.26a42,42,0,0,1,4.55,9.05c.1.24.18.46.27.68a30,30,0,0,1,2,3.59,9.66,9.66,0,0,1,.43,1l.11.3.35,1.09a22.73,22.73,0,0,1,.64,2.22c.18.75.37,1.51.53,2.25s.25,1.46.38,2.2.2,1.49.3,2.24.17,1.51.2,2.28a54.1,54.1,0,0,0-.69-6.21c-.13-1-.42-2.14-.65-3.23-.11-.55-.27-1.08-.43-1.63l-.42-1.44.5,1.54a15,15,0,0,1,.5,1.74c.29,1.18.59,2.36.76,3.46s.38,2.22.5,3.36.22,2.25.29,3.37a116.2,116.2,0,0,1-.4,12.75,50.6,50.6,0,0,0,1.3,15.72c.33,1.26.65,2.53,1.07,3.76l.6,1.85.66,1.73a49.07,49.07,0,0,0,3.1,6.43,35.17,35.17,0,0,0,7.68,9.31,24,24,0,0,0,6.82,4l.66.15c.22,0,.45,0,.66.07.44,0,.86.12,1.29.1s.85,0,1.25,0l1.62-.07a46.65,46.65,0,0,0,6.56-.81c1.09-.24,2.15-.42,3.22-.74l1.59-.42,1.58-.51c1-.3,2.08-.72,3.1-1.08s2-.82,3-1.25a61.79,61.79,0,0,0,11.25-6.52A54.49,54.49,0,0,0,346.1,339a48.9,48.9,0,0,0,6.63-9.8,41.16,41.16,0,0,0,3.54-10.07,31.25,31.25,0,0,0,.49-9.36l-.11-1.1-.15-1.23c-.12-.82-.23-1.63-.39-2.46-.3-1.64-.72-3.3-1.17-5a8.66,8.66,0,0,1-.34-1.87,1.43,1.43,0,0,1,.24-1.06c.39-.18,1.06.74,1.48,2.17a55.46,55.46,0,0,1,1.78,7.39,42,42,0,0,1,.59,7,37.4,37.4,0,0,1-3.55,14.84c-4.68,10.1-14.07,19.81-25.73,25.48a60.78,60.78,0,0,0,24.14-19.7A47,47,0,0,0,360,321.58a36.82,36.82,0,0,0,1.51-6.42c.2-1.05.23-2.13.34-3.17l0-1.57,0-.78v-.86a55.8,55.8,0,0,0-.81-7c-.41-2.38-.82-4.74-1.23-7.1-.76-3-1.64-6.11-2.67-9.22-.54-1.55-1-3.12-1.65-4.69s-1.28-3.38-1.91-5.06q-2-5.09-4.26-9.92c-1.51-3.23-3.07-6.39-4.72-9.56-3.27-6.36-6.94-12.71-11.11-20.69l-.79-1.51-.86-1.67c-.62-1.25-1.18-2.42-1.71-3.57-1.07-2.31-2.07-4.56-3-6.82-1.91-4.52-3.67-9.06-5.31-13.68q-2.08-5.93-3.83-11.77c-1.12-3.92-2.19-7.81-3.09-11.72s-1.7-7.82-2.41-11.75c-.34-2-.64-3.94-.95-5.91s-.51-4-.73-6c-.4-4-.73-8-.91-12s-.19-8.14,0-12.28a155.48,155.48,0,0,1,7.53-43.17c1-2.85,2.09-5.67,3.15-8.47l.8-2.1.91-2,1.83-4a157.08,157.08,0,0,1,18-29.32A171.3,171.3,0,0,1,391.83,4.93c2.53-1.46,5.07-2.7,7.06-3.6a14.4,14.4,0,0,1,4-1.33c.91.07-2.53,2.28-7.47,5.25A176.81,176.81,0,0,0,344.92,51.6l-2.56,3.64c-.83,1.22-1.72,2.41-2.49,3.69-1.57,2.54-3.16,5.07-4.69,7.65l-4.24,8c-1.35,2.72-2.56,5.52-3.8,8.31l-.91,2.1-.8,2.16-1.6,4.33c-.51,1.45-1.1,2.87-1.53,4.36L321,100.28c-.46,1.48-.8,3-1.2,4.49s-.76,3-1.06,4.51l-.94,4.54-.76,4.56A163.36,163.36,0,0,0,315.5,155q.63,9.11,2.12,18.06c1,6,2.24,11.87,3.73,17.71s3.22,11.63,5.17,17.37,4.12,11.41,6.65,17.2c.63,1.45,1.29,2.9,2,4.44l.58,1.19.51,1,1,2c1.31,2.55,2.58,5.05,3.83,7.38,2.48,4.73,4.78,9.08,6.94,13.47a207.72,207.72,0,0,1,9.78,23,.83.83,0,0,1,.4-.33c.62-.21,1.51.44,2.41,1.49-1.49-4.49-3.13-9.09-4.88-13.49s-3.64-8.77-5.61-13.17c-3.32-5.85-7-11.67-10.8-18.51l-1.45-2.61-.37-.66-.41-.78-.8-1.55c-1-2-1.93-3.95-2.82-5.9-1.76-3.89-3.37-7.79-4.84-11.75A170.68,170.68,0,0,1,317.83,160a143.47,143.47,0,0,1,.17-18.1c.19-3,.54-5.89.89-8.8.19-1.45.44-2.89.66-4.33s.47-2.87.76-4.29a144.29,144.29,0,0,1,10.42-32.63,156.23,156.23,0,0,1,19.46-37.39,174.14,174.14,0,0,1,27.6-30.57,9.19,9.19,0,0,1,2.1-1.58c.39-.16.05.32-.75,1.07a179.47,179.47,0,0,0-19.23,21A168.54,168.54,0,0,0,343.81,69c2.21-2.38,3.87-3.56,4.51-2.93s.15,3.08-1.14,6.47l3.37-5.65c.57-.93,1.1-1.89,1.7-2.8l1.83-2.72c1.52-2.22,3-3.8,3.3-3.5s-.53,2.25-1.93,4.36L353.63,65c-.59.93-1.13,1.89-1.69,2.84-1.11,1.91-2.27,3.8-3.34,5.74-2,4-4.14,7.85-5.82,12A141.89,141.89,0,0,0,334.27,111c-4.17,21.16-3.42,42.8.69,63.52.28-3,.88-5.29,1.82-6.45a0,0,0,0,1,0,0c-.48-3.2-.88-6.39-1.2-9.59a146.54,146.54,0,0,1,.21-44.78,135.52,135.52,0,0,1,14.95-43l2.78-5,3-4.84c1-1.62,2-3.23,3.16-4.76l3.3-4.65A184.92,184.92,0,0,1,377.78,34,210.92,210.92,0,0,1,412.47,5.1,7.32,7.32,0,0,1,414.37,4a5.68,5.68,0,0,1-1.51,1.22,207.75,207.75,0,0,0-40.82,36l.06-.06c.57-.48.8-.46.37.22a12.35,12.35,0,0,1-1.87,2.17c-.65.56-.75.38-.39-.21C359.31,56.39,350.09,71.07,344,87.07c-1.67,3.94-2.79,8.08-4.11,12.14-.6,2.05-1.06,4.14-1.6,6.2s-.87,4.17-1.27,6.26a140.09,140.09,0,0,0-2.11,25.2,141.12,141.12,0,0,1,9-45.67,153,153,0,0,1,10.05-21c1.85-3.39,4-6.59,6.11-9.82,1-1.63,2.23-3.14,3.34-4.71s2.22-3.14,3.45-4.62c1.87-2.77,3.7-5.58,5.8-8.25a8.4,8.4,0,0,1,1.8-1.76c.28-.11,0,.52-.61,1.26l-1.69,2.25a44.22,44.22,0,0,1,5.15-5.19c1.45-1.16,2.47-1.71,2.76-1.39s-.36,1.64-1.47,3.33a61.53,61.53,0,0,1-4.52,6.22c-9.56,12.62-17.8,26.24-23.51,40.93l-1.67,4.83q-.51,2.53-1,5A153.88,153.88,0,0,1,363.6,65.61,201.5,201.5,0,0,1,385.71,36.9c1.39-1.53,2.75-2.68,3-2.52S388,36,386.62,37.5C373.13,53.82,362.17,72.29,355.71,92c-6.67,19.65-8.18,40.52-6.1,61a184.11,184.11,0,0,0,14.15,38.39c-.46-1.63-.93-3.28-1.39-4.93a279.18,279.18,0,0,1-7-30.82,177.94,177.94,0,0,1-2.52-30.16,131.47,131.47,0,0,1,1-15.07c.12-1.26.37-2.5.55-3.75s.38-2.52.68-3.76c.55-2.49,1.05-5,1.68-7.52a125.35,125.35,0,0,1,12.11-29.62,3.67,3.67,0,0,1,1.36-1.71c.22,0-.06.72-.6,1.7a122.09,122.09,0,0,0-11.48,28.75l-.51,1.81-.38,1.84-.76,3.66c-.56,2.42-.9,4.89-1.27,7.35-.62,5-1.06,9.93-1.19,15A147.15,147.15,0,0,0,360.8,172c-3.44-15.49-5.42-30.9-5-46.34.06-1.93.17-3.85.28-5.78s.28-3.86.54-5.77.44-3.86.81-5.76l.48-2.87c.19-1,.42-1.91.63-2.86.44-1.91.87-3.83,1.31-5.75l1.71-5.69c.52-1.92,1.26-3.78,2-5.67l1.05-2.83.54-1.41.62-1.39a14.44,14.44,0,0,1,1.79-3.29,1.54,1.54,0,0,1,.11-.85,57.08,57.08,0,0,1,2.36-6l1.37-3.09c.48-1,1-2,1.57-3.07a6.47,6.47,0,0,1,1.44-2C374.7,61.3,374.57,61.86,374.15,62.75ZM245.69,264c-.05-.09-.1-.17-.13-.24l.57.64.52,1.42ZM232,261.16h0c-.2-.5-.34-.87-.34-.87Zm115,82a60.44,60.44,0,0,1-19.34,12.54,56.58,56.58,0,0,1-22.79,4.38,48.77,48.77,0,0,0,11.3-1.34A66.47,66.47,0,0,0,347,343.18ZM239.1,255.44a20.1,20.1,0,0,1,2.05,3.51,14.59,14.59,0,0,1,2.31,1.21l3,2.11c1,.7,1.91,1.39,2.82,2.17-.09-.47.35-.11.6,0l.75.45c-1.9-1.73-3.89-3.27-5.89-5C242.89,258.41,240.82,257,239.1,255.44Zm-15.76-6.55-.14-.26.61-.47Zm-1,.84a3.7,3.7,0,0,0,.29.24C222.46,250.17,222.39,250,222.36,249.73Zm2.64,2.15a2.42,2.42,0,0,0-.3-.53Zm-3.88,19.65c.69-1,1.39-1.95,2.09-2.9-.72.9-1.44,1.81-2.15,2.75Z"/><path d="M7.82,150.78l.63,0a1.69,1.69,0,0,1-.93,1,15.68,15.68,0,0,0,7.72-4.37,39.58,39.58,0,0,0,3-3.46,25.46,25.46,0,0,0,2.31-3.77c1.51-.82,2.54-2.27,2.08-3.44s-2.18-1.48-3.87-.66a5.84,5.84,0,0,1-1.22.22,20.69,20.69,0,0,0-5,.29,25,25,0,0,0-2.64.58c-.85.26-1.71.56-2.58.89l2.33-.36A11.44,11.44,0,0,0,6.64,139l.73.3a10.15,10.15,0,0,0-5.13,2.87A7.89,7.89,0,0,0,0,147c-.16,3.29,2.77,5,6.24,4.16Z"/><path d="M16.85,152.73c-1.91.45-3.9.79-5.74,1.29l-.53-.1,1.33,1.36-.05-.11c.09-2.29,1.93-4.43,3.69-6.32l.56-.76a1.63,1.63,0,0,0,.06-1.31c-.35-.86-1.5-1.07-2.58-.46l-1.24.71c-3.53,1.13-7.58,4.77-6.73,8.31.2.81,1.13,1.25,1.8,1.82a2.63,2.63,0,0,0,3.66,0,2.75,2.75,0,0,0,.9-3.61c.27-.11.52-.24.8-.34-.07.25-.14.51-.2.76-.4-1.15.67-2.22,1.19-3.36l1.16-1.26-2.56-1.73-.49.85a2.85,2.85,0,0,1,.35.13c-.43.83-.84,1.64-1.27,2.43a24.52,24.52,0,0,1-1.32,2.4l-1,2.29A1.21,1.21,0,0,0,10,157.06l1.16-.17h-.59c1.07-.49,2.1-1.05,3.13-1.59a28.31,28.31,0,0,1,3.26-1.4.8.8,0,0,0,.59-.79A.53.53,0,0,0,16.85,152.73Z"/><path d="M11,158.05a1.84,1.84,0,0,0-1.19.51v.32l.87-.1C11.31,158.71,11.31,158.33,11,158.05Z"/><path d="M9.82,158.88l-.37,0,.34.07,0-.06Z"/><path d="M139,274.51c9.43-8.39,16.22-22.24,20.1-37.17A137.08,137.08,0,0,0,163,214.05a204,204,0,0,0,.26-24.56,5.82,5.82,0,0,0-.33-2.15,4.19,4.19,0,0,0-.12,1.9,205.39,205.39,0,0,1-.25,24.52,137.65,137.65,0,0,1-3.83,23.17c-3.82,14.85-10.56,28.61-19.83,37a3.48,3.48,0,0,0-1.06,1.27C137.88,275.34,138.4,275,139,274.51Z"/><path d="M235.45,58.74c-.89.08-.85.19.07.25.39,0,.94,0,1.51,0s1.13.07,1.57.07c.74,0,.73-.13-.06-.26a10.76,10.76,0,0,0-1.6-.17C236.37,58.68,235.83,58.7,235.45,58.74Z"/><path d="M228.79,67.32l-3.15.8c-1,.31-2,.73-2.95,1.08-.48.19-1,.35-1.42.55l-1.33.69c-.87.46-1.74.86-2.53,1.34a14.44,14.44,0,0,1-1.82,1c.32,0-.36.55-1.68,1.41a57.42,57.42,0,0,0-4.65,3.62c-.74.67-1.53,1.25-2.23,2l-2.12,2.12a66.75,66.75,0,0,0-7.53,9.53c-1.19,1.66-2.13,3.5-3.19,5.26-.48.91-.93,1.84-1.4,2.76l-.69,1.38-.61,1.42a68.87,68.87,0,0,0-4,11.66l-.68,3c-.19,1-.34,2.07-.52,3.11-.39,2.06-.56,4.2-.8,6.31-.15,1-.16,2.13-.24,3.2s-.15,2.14-.18,3.22L185,136l0,1.63,0,1.64a261.08,261.08,0,0,0,2,26.8,4.87,4.87,0,0,1,.61,1.51,77.27,77.27,0,0,1,1.9,13l.24,4.1c.57,8.29,1,16.78.78,25.45A170.8,170.8,0,0,1,188,235.94c-.19,1.78-.37,3.71-.74,5.73-.17,1-.35,2.06-.54,3.13l-.71,3.26a122.29,122.29,0,0,1-6.62,22.42,103.88,103.88,0,0,1-5.21,11l-1.6,2.73-.8,1.36-.88,1.33-1.78,2.66-1.93,2.59c.8-.75,1.35-1.15,1.5-1s-.42,1.27-1.34,2.65a27.31,27.31,0,0,1-1.76,2.26,32.05,32.05,0,0,1-2.28,2.55l-2.59,2.58c-.89.84-1.84,1.65-2.76,2.46a84.74,84.74,0,0,0,14.24-15.15c.57-.8,1.15-1.51,1.62-2.19a104,104,0,0,0,10-19.54C189.52,252,192.07,237,193,222.44a177.36,177.36,0,0,0-.08-21.64c-.43-7-1.17-13.86-2-20.49-1.61-13.28-3.44-25.84-4-38a121.34,121.34,0,0,1,.4-17.84l.21-2.18.32-2.15c.22-1.43.4-2.89.73-4.22l.43-2c.13-.69.37-1.36.54-2l.57-2c.19-.68.46-1.34.68-2a13.79,13.79,0,0,1,1-2.38c.28-.35.33-.24.07.55s-.53,1.7-.79,2.54c-.13.43-.27.84-.38,1.26l-.31,1.28c-.2.84-.4,1.68-.61,2.52s-.28,1.68-.43,2.51c-.33,1.62-.44,3.44-.64,5.15l-.14,1.29-.07,1.31-.13,2.62a137.71,137.71,0,0,0,1.11,21.38c.87,7.33,2.15,14.93,3.48,23.1s2.74,16.94,3.66,26.73c.15,1.45.27,2.92.37,4.4s.22,2.95.29,4.46l.19,4.52.07,4.54q0,9.08-.84,18.26a145.73,145.73,0,0,1-8.32,37c-1.17,3.09-2.46,6.17-3.93,9.24a101.28,101.28,0,0,1-4.93,9.16A91.88,91.88,0,0,1,166,306.49a76,76,0,0,1-19.14,14.15L144,322.06c-.95.47-2,.85-3,1.27s-2,.82-3.08,1.18l-3.22,1-1.63.48c-.55.14-1.12.26-1.68.38-1.13.25-2.27.48-3.41.71s-2.33.33-3.5.48l-3.84.39a61.38,61.38,0,0,1-16.24-1.74,54.7,54.7,0,0,1-15-6.15,53.24,53.24,0,0,1-12.4-10.16,54.91,54.91,0,0,1-8.74-13.38,47.71,47.71,0,0,1-2.86-7c-.44-1.32-.77-2.58-1.12-3.87s-.6-2.51-.8-3.68a75.17,75.17,0,0,1-1.23-13.44A100.12,100.12,0,0,1,63,256.66c.25-1.84.45-3.75.77-5.52l.46-2.7c.15-.91.3-1.62.46-2.45.59-3.18,1.31-6.43,2.07-9.64s1.62-6.35,2.36-9.13a83.8,83.8,0,0,0,2.73-13.35c.12-1.09.25-2.16.34-3.34s.2-2.33.28-3.54l.07-.9c0-.3,0-.44,0-.66l0-1.24c0-.4,0-.74-.06-1.11a8,8,0,0,0-.08-1c0-.32-.09-.63-.11-.95s-.13-.54-.18-.81a4.29,4.29,0,0,0-.19-.73,3.43,3.43,0,0,0-.21-.64,9.06,9.06,0,0,0-1.08-2.1,34.1,34.1,0,0,0-2.88-3.76c-.73-.83-1.55-1.75-2.53-2.76l-.73-.77-.19-.19-.08-.09,0,0-.14-.05a1.64,1.64,0,0,1-.46-.29c-.64-.19-1-.42-1.39-.28a.34.34,0,0,1-.12,0c-.05,0-.12.05-.16.06a.49.49,0,0,1-.27,0,.72.72,0,0,1-.35.1c-.05,0-.09,0-.16,0l-.21.08a2.9,2.9,0,0,1-.41.06l-.27.1,0,0-.16.1c-.11.09-.19.07-.33.19a3.1,3.1,0,0,1-.76.43c-1.09.64-2.46,1.3-4.09,2.25-.52.66-1.36.59-2.42,0a10.4,10.4,0,0,1-3.4-3,9.25,9.25,0,0,1-2-5.66c-.17.11-.33.21-.5.3l-1,.16a5.25,5.25,0,0,1-3.26-.92L40.78,182c-2.51-1.74-5.44-2.66-8.16-4.4l-.6-1-.39-.1a6.26,6.26,0,0,1-3.16-1.4l-.88-1.12a13.11,13.11,0,0,1-2.07-4.31,5,5,0,0,1-1-1.49,6.76,6.76,0,0,1-3.33-3.26.93.93,0,0,1-.8-1.15,1.25,1.25,0,0,1,.27-.54h0a8.61,8.61,0,0,0-1-.3c-.38.17-.61.25-.61.25-.94.51-.95.51-1.79.94a5.32,5.32,0,0,1-1.76,0c-2.4-1.27-2.41-1.25-3.06-2.15,0-.11-.06-.23-.08-.34-.8.23-.86.24-1.09.29a2.53,2.53,0,0,1-.56-.07c-.43-.4-.43-.4-.68-.47a2,2,0,0,1-.33-.29c-.15-.75-.14-.76-.27-.9a2.17,2.17,0,0,1,0-.39l.37-.74,1.84.4-.18-.54.66.36-.54-.39.66-.06h-.84a6.17,6.17,0,0,0,1.48-1,2.62,2.62,0,0,0,.72-.76,1.69,1.69,0,0,1-.26-.22,20.05,20.05,0,0,1,2.4-1.33,3.59,3.59,0,0,1,.52.13.63.63,0,0,1,.37-.56l.63-.34.07-.16,0,0c.11-.24.2-.41.29-.59l.05-.14h0l1.3-2.6a6.74,6.74,0,0,1,1.14-.45l-.45,0c-.3,0-.46-.61-.59-.58a27.51,27.51,0,0,0-4.61,1.74c-.75.36-1.52.73-2.26,1.12L10,154.18a1.11,1.11,0,0,1-1.41.26.9.9,0,0,1,.09-1.33A19.86,19.86,0,0,1,10,150.67a17.76,17.76,0,0,1,1.77-2.22,25,25,0,0,1,4.41-3.84,33.81,33.81,0,0,1,5.35-2.75,19.2,19.2,0,0,1,2.87-.91c1-.25,1.94-.45,2.9-.61s1.83-.65,2.8-.92l2.9-.81-.37-.15,1.59-.19.16,0-1.47-.5-.88,0c-1.11.36-2.27.61-3.36.9s-2.18.55-3.28.8l-3.36.76c-1.1.28-2.16.63-3.24,1-2.3.81-4.7,1.08-6.9,1.87-.5.3-1,.25-1.24-.13s.08-.91.58-1.22c5.84-5,14.55-9,22-8a8.4,8.4,0,0,1,2.07-.53,7.5,7.5,0,0,1,2.07.07h.07l-1.15-.53c1.14-.13,1.92.35,3,.35-.22-.32-.47-.68-.7-1,1.38-.21,2.71-.55,4.14-.76s2.86-.42,4.28-.59l2.13-.21c.71,0,1.44,0,2.15,0a24,24,0,0,1,4.14.53,6,6,0,0,1,.61,0A22.24,22.24,0,0,1,59.45,130c.31-.08.62-.14.93-.21a2.2,2.2,0,0,1,.29,0h1.5c.51,0,1,0,1.51,0l1.55.12c2.07.2,4.17.35,6.3.74s4.31.91,6.49,1.52c-1.46-.46-2.93-.83-4.41-1.21a38.45,38.45,0,0,0-4.43-.95c-1.48-.22-3-.43-4.45-.61l-1.13-.14-1.1-.06-1.94-.08h.91l1.2,0a19.83,19.83,0,0,1,2.42.1c1.62.11,3.25.26,4.88.44a21.13,21.13,0,0,1,2.45.39l2.46.5a37.83,37.83,0,0,1,4.89,1.27c1.62.54,3.23,1.1,4.85,1.7s3.15,1.45,4.71,2.23c.78.39,1.57.78,2.34,1.21l2.23,1.41c1.47,1,3,1.93,4.38,3,1.85,1.53,3.73,3.08,5.46,4.75s3.3,3.52,4.79,5.24c2.17,2.75,4.39,5.76,6.53,9.09a76,76,0,0,1,5.86,11.06,61.78,61.78,0,0,1,3.86,12.33c.45,2.07.7,4.1.93,6.09.11,1,.15,2,.21,2.92s.11,1.92.09,2.83c0,1.83,0,3.63-.2,5.28-.07.83-.15,1.65-.22,2.46s-.22,1.55-.33,2.3-.24,1.49-.36,2.21-.29,1.37-.44,2-.3,1.31-.45,1.95-.31,1.09-.46,1.63q-.47,1.53-.93,2.91c-.32.93-.65,1.81-1,2.62-.24,1.53-.58,3.13-.87,4.69s-.67,3.17-1.08,4.77c-.76,3.17-1.7,6.38-2.63,9.25-1.89,5.82-3.44,10.22-4.73,14.92-.31,1.18-.64,2.34-.93,3.54L111,258c-.15.61-.24,1.08-.37,1.64l-.35,1.6-.28,1.55c-.22,1.06-.32,2-.47,3.05a44.35,44.35,0,0,0-.35,5.53,21.72,21.72,0,0,0,.39,4.13,8.92,8.92,0,0,0,.35,1.26l.25.64.14.34,0,.05s-.08-.21,0-.15v0l0,0,.09.16a5,5,0,0,0,.33.65,9.5,9.5,0,0,0,1.78,2.26,9.78,9.78,0,0,0,5.07,2.48,13.49,13.49,0,0,0,1.41.15,13.28,13.28,0,0,1,1.41,0,4.68,4.68,0,0,1,.83-.09l.49,0a4.8,4.8,0,0,0,.5-.09,14.24,14.24,0,0,0,2-.4,27.67,27.67,0,0,0,8.82-4.09,10.72,10.72,0,0,1,1.73-1.09,3.3,3.3,0,0,1,1.11-.44c.14.05.06.3-.22.66a8.37,8.37,0,0,1-1.39,1.22,32.18,32.18,0,0,1-6.54,3.89,23.27,23.27,0,0,1-6.35,1.74l-.38,0-.31,0a1.79,1.79,0,0,1-.6.05,9.41,9.41,0,0,0-1.17.07,13.27,13.27,0,0,1-2.34-.24,11.12,11.12,0,0,1-4.4-1.86,11,11,0,0,1-3.26-3.61c-.11-.18-.18-.37-.28-.55l-.08-.14,0-.06v0h0l0,.12,0-.07-.3-.71a9.73,9.73,0,0,1-.4-1.11,16.52,16.52,0,0,1-.54-2.81,36.36,36.36,0,0,1,.09-8l.29-2.28.39-2.35c.33-1.6.61-3.11,1.07-4.94-.19.7-.43,1.5-.59,2.14l-.5,2c-.18.67-.28,1.31-.43,2s-.29,1.31-.38,1.93a45.51,45.51,0,0,0-.79,7.25,24,24,0,0,0,.45,5.51,8.08,8.08,0,0,0,.27,1l.15.4.14.37.05.11,0,.06c0,.09-.08-.2,0-.11l0,.06.22.53c.12.37.35.68.49,1s.37.67.61,1a12.67,12.67,0,0,0,7.52,5.16,18.25,18.25,0,0,0,2.33.38c.39,0,.79,0,1.19,0,.19,0,.39,0,.59,0l.63-.05a12.42,12.42,0,0,0,1.46-.09c.5-.08,1-.15,1.51-.21s1-.24,1.54-.35l.78-.17.79-.27a30.42,30.42,0,0,0,6.41-3.07c.52-.34,1-.65,1.58-1s1-.73,1.57-1.08,1-.74,1.56-1.14,1-.76,1.55-1.17a55,55,0,0,0,7-7.45c.52-.7,1.08-1.35,1.56-2.08l1.48-2.16c.93-1.51,1.91-3,2.75-4.63s1.67-3.24,2.49-4.88,1.53-3.37,2.17-5.13a99.13,99.13,0,0,0,3.56-10.77,132.14,132.14,0,0,0,4.06-23c.32-4,.53-8,.55-12,0-2,0-4.1-.07-6.17s-.13-4.18-.27-6.32c-.79-14.59-2.59-28.89-3.08-44a172.37,172.37,0,0,1,.67-23.34c.15-2,.49-4,.77-6.07s.7-4.1,1.11-6.16,1-4.21,1.54-6.36c.27-1.08.62-2.13,1-3.18l1.07-3.18a92.74,92.74,0,0,1,19.16-31.29c1.08-1.1,2.09-2.26,3.24-3.29L194,63.85a78,78,0,0,1,7.58-5.6,63.26,63.26,0,0,1,17.51-8.06,40.39,40.39,0,0,1,4.8-1.14l2.43-.48c.82-.13,1.66-.2,2.49-.29a39.71,39.71,0,0,1,5-.34h3.76l1.25.1A58.4,58.4,0,0,1,258,52.58a70.32,70.32,0,0,1,16.35,9.74c1.2,1,2.46,1.95,3.59,3l3.39,3.2c2.11,2.23,4.25,4.48,6.12,6.9l1.51,1.88c.48.63.9,1.27,1.32,1.88.83,1.23,1.6,2.37,2.22,3.4a17.28,17.28,0,0,1,1.87,4c0,.9-2.6-2.86-6.46-7.95a87.65,87.65,0,0,0-13.25-13.59,69.49,69.49,0,0,0-16.74-10.2,58.35,58.35,0,0,0-19.8-4.55c-1.72-.09-3.45,0-5.17,0s-3.44.31-5.15.49a58.11,58.11,0,0,0-9.93,2.35,65.6,65.6,0,0,0-17.67,9.06,79.91,79.91,0,0,0-14,13.12,86.79,86.79,0,0,0-10.52,15.58,92.6,92.6,0,0,0-7.11,17.44c-.4,1.53-.85,3.08-1.2,4.6l-.92,4.52c-.34,1.51-.48,3-.73,4.52s-.45,3-.57,4.51a158.32,158.32,0,0,0-.85,17.84c.07,11.74,1.08,23.09,1.93,34.18.43,5.53.8,11,1.05,16.41s.28,10.72.06,16A137.44,137.44,0,0,1,162.59,242a115,115,0,0,1-4.3,12.51,86.88,86.88,0,0,1-5.75,11.31c.14-.05.27-.09.35,0,.32.18.2,1-.25,2.34a99.3,99.3,0,0,0,11.82-27.21,143.34,143.34,0,0,0,3.21-21.31,181.54,181.54,0,0,0,.28-22c-.59-15.07-2.54-31-2.69-48.24a174.47,174.47,0,0,1,.76-17.62c.12-1.45.35-2.91.53-4.36l.28-2.16c.11-.72.25-1.44.38-2.16.26-1.44.5-2.86.79-4.29s.68-2.83,1-4.25a88,88,0,0,1,6-16.51,94.1,94.1,0,0,1,9.1-14.74A79.19,79.19,0,0,1,199.22,67a62.47,62.47,0,0,1,20-10.94A53.07,53.07,0,0,1,242.58,54a58.94,58.94,0,0,1,21.8,7.91,10.93,10.93,0,0,1,2.41,1.67c.3.32-.28,0-1.31-.64a65.54,65.54,0,0,0-14.55-6.42,52,52,0,0,0-16.18-2.11l-2.06.06c-.69,0-1.37.14-2.05.21l-2.06.25-1,.13-1,.21-4,.9c-1.31.35-2.59.82-3.89,1.24a58.12,58.12,0,0,0-14.34,7.39,26.6,26.6,0,0,1,3.59-1.63c.88-.25,1.37-.26,1.36,0s-.54.76-1.4,1.56-2.11,1.81-3.63,3l2.94-1.9,1.47-1L210.2,64c1-.54,2.06-1.1,3.11-1.63L216.57,61a18.12,18.12,0,0,1,3.52-1.11c.9-.2,1.46-.27,1.45-.15s-.53.41-1.38.76-2.06.73-3.3,1.3l-3.27,1.38-3.12,1.65c-.51.29-1.05.54-1.55.85l-1.48,1c-1,.65-2,1.25-2.93,1.94-1.84,1.43-3.76,2.79-5.45,4.39-.85.79-1.77,1.52-2.57,2.36l-2.42,2.5a78.16,78.16,0,0,0-8.51,11A82,82,0,0,0,179,101a77.54,77.54,0,0,0-4.83,15.9,111.9,111.9,0,0,0-2,16.23l-.19,4.06-.05,4.05c0,1.35,0,2.69,0,4s0,2.69.1,4c.2,5.36.56,10.69,1,16a23.06,23.06,0,0,1,.89-6.23h0c-.09-1.65-.19-3.29-.28-4.93s-.14-3.3-.2-4.94a153.05,153.05,0,0,1,.36-22.84c.2-1.91.48-3.83.72-5.74s.7-3.81,1.05-5.72.91-3.82,1.46-5.7l.9-2.81.46-1.4.54-1.37a83.93,83.93,0,0,1,11.41-20.62,70.1,70.1,0,0,1,17.46-16.3l1.26-.84c.44-.26.89-.5,1.33-.74l2.68-1.46c.89-.5,1.86-.84,2.79-1.27s1.86-.85,2.83-1.17l2.93-.94,1.47-.47,1.51-.33,3-.63c1-.21,2-.26,3.08-.39a49.3,49.3,0,0,1,6.2-.25c1,0,2.06.16,3.1.24l1.54.13c.52.07,1,.18,1.53.26l3.05.56,3,.82,1.48.43,1.45.53,2.88,1.1a65.49,65.49,0,0,1,20,13.8,87.34,87.34,0,0,1,14.26,19.29,7.51,7.51,0,0,1,1,2.09A6.56,6.56,0,0,1,289,95.68l-1.76-3.14-1.94-3.05-1-1.52-1.07-1.46-2.13-2.92A82.11,82.11,0,0,0,271.18,73a67.7,67.7,0,0,0-12-8.36,55.72,55.72,0,0,0-13.85-5.09l.08,0c.78.21.89.35,0,.26a27,27,0,0,1-3-.56c-.89-.23-.79-.33-.05-.26a49.29,49.29,0,0,0-13.83,0c-1.14.18-2.26.46-3.39.68l-1.68.36c-.56.13-1.1.34-1.65.51l-3.28,1c-1.06.43-2.1.9-3.15,1.35l-1.57.68-1.5.81-3,1.65L206.49,68c-.47.32-1,.62-1.41,1l-1.33,1c-.88.69-1.77,1.38-2.64,2.09l-2.47,2.28c-.41.38-.84.75-1.23,1.14l-1.15,1.22L194,79.14l-2.12,2.58L190.79,83l-1,1.35-1.93,2.7-1.77,2.81c-1.22,1.84-2.18,3.84-3.25,5.76-.51,1-1,2-1.42,3s-.94,2-1.32,3l-1.2,3.07c-.4,1-.69,2.09-1,3.13-.73,2.07-1.19,4.23-1.74,6.35s-.84,4.27-1.2,6.41-.61,4.28-.77,6.43c.17-2,.55-4,.81-6s.77-3.94,1.15-5.91c.2-1,.51-2,.76-2.94s.48-2,.82-2.93c.67-1.91,1.24-3.86,2.05-5.71l1.15-2.8L182.23,98c.83-1.84,1.86-3.58,2.84-5.34.47-.9,1-1.73,1.58-2.59l1.64-2.54,1.8-2.45c.6-.81,1.17-1.65,1.84-2.4a68.35,68.35,0,0,1,18.22-16,50.82,50.82,0,0,1,23.3-6.95,45.79,45.79,0,0,1,5.37-.08l2.71.15,2.7.4c.49.08,1.05.19,1.54.31a5.31,5.31,0,0,1,1.06.4c.24.17-.47,0-1.47-.15l-3-.45,2.2.44a14.39,14.39,0,0,1,2,.51c1.25.41,2.35.79,3.26,1.14,1.76.83,2.74,1.47,2.6,1.69-.53.43-5.4-1.28-11.53-2a47.92,47.92,0,0,0-12.32.24l-3,.65-1.51.32-1.46.48-2.94.94c-1,.39-1.88.81-2.83,1.22-7.55,3.27-14.09,8.53-19.66,14.51a23.94,23.94,0,0,0-1.72,2l-1.67,2.07c-1.05,1.45-2,3-3,4.45a70.84,70.84,0,0,1,12.77-14,55,55,0,0,1,16.21-9.47l4.48-1.39,4.58-.91c1.56-.12,3.1-.35,4.65-.39H237l1.16.11a47.11,47.11,0,0,1,17.75,5.1,14,14,0,0,1,2.4,1.39c.6.41,1,.71.93.8s-.42,0-1-.32c-.31-.14-.68-.32-1.09-.53l-.63-.34-.7-.32a46.38,46.38,0,0,0-15.37-4.41,42.61,42.61,0,0,0-15.77,1.41c-10.25,3-19.21,9.61-26.23,17.78A77.31,77.31,0,0,0,183.3,112l-1,3.91-.75,4c-.28,1.33-.42,2.69-.6,4s-.38,2.7-.47,4.08a142.48,142.48,0,0,0-.49,16.56c1.17,14.61,4.07,29.19,6.23,44.63-.12-2-.29-3.92-.44-5.89-.53-6.23-1.16-12.27-1.76-18.16s-1.1-11.62-1.44-17.26-.41-11.16-.22-16.6a103.94,103.94,0,0,1,1.88-16,68.64,68.64,0,0,1,4.91-15,74.81,74.81,0,0,1,8.18-13.81A60.09,60.09,0,0,1,208.7,74.88a48.34,48.34,0,0,1,14.46-7.78,5.47,5.47,0,0,1,2.13-.49c.07,0-.08.11-.37.22a11.53,11.53,0,0,1-1.26.48,46.75,46.75,0,0,0-14,7.38A62.64,62.64,0,0,0,198.6,85.77,73.41,73.41,0,0,0,185.11,114a93.64,93.64,0,0,0-2,13.14,130.28,130.28,0,0,0-.28,13.25,246,246,0,0,0,2.35,26.35c-.88-9-1.64-17.76-1.74-26.32a110.07,110.07,0,0,1,2.18-25l.69-2.95.88-2.92c.26-1,.63-1.93,1-2.89s.68-1.93,1.09-2.87c.83-1.87,1.61-3.78,2.6-5.58s2-3.6,3-5.38a67.49,67.49,0,0,1,7.48-9.82c1.34-1.59,2.91-2.91,4.38-4.37l2.37-2c.41-.32.79-.66,1.2-1l1.27-.87A14.83,14.83,0,0,1,214.86,73a2.34,2.34,0,0,1,.63-.51l1.31-.84.66-.42.71-.35,2.89-1.45a41.92,41.92,0,0,1,6.32-2.14,8.4,8.4,0,0,1,2.38-.38C230.22,67,229.71,67,228.79,67.32Zm-197,83.89-.25-.1.7,0,1.37.84Zm-5.87,9.63h0l-.82-.37Zm79.72,114.41a27.39,27.39,0,0,1-.23-4.59c0-.82.1-1.73.14-2.59s.17-1.79.32-2.72a85,85,0,0,1,2.7-11.78c.6-2.08,1.24-4.12,2-6.17s1.45-4.11,2.28-6.35c1.65-4.38,3.57-9.79,5-15.12a150.09,150.09,0,0,1-4.2,15c-1.25,3.4-2.36,6.41-3.37,9.5-.51,1.54-1,3.09-1.45,4.66l-.68,2.38-.58,2.18A67.39,67.39,0,0,0,105.8,268,36.64,36.64,0,0,0,105.59,275.25ZM22.76,150.38a11.64,11.64,0,0,1,3.48.8,5.51,5.51,0,0,1,1.61-1.2,49.56,49.56,0,0,1,5.06-2c-.42-.34,0-.48.16-.63a4.31,4.31,0,0,1,.56-.39c-1.88.51-3.73,1.08-5.69,1.64a19.65,19.65,0,0,0-2.6.94A23.09,23.09,0,0,1,22.76,150.38Zm-9.22,9.42-.24,0-.24-.78S13.26,159.34,13.54,159.8Zm.44,1.29.26-.1C14.36,161.26,14.23,161.24,14,161.09Zm2.39-.87a1.62,1.62,0,0,0-.51-.08ZM31.59,175.8c-.61-1.08-1.21-2.18-1.8-3.28.54,1.08,1.09,2.15,1.66,3.21Z"/><path d="M164.86,184.73l.63.12a1.66,1.66,0,0,1-1.12.67,14.62,14.62,0,0,0,8.33-2.19,26.07,26.07,0,0,0,3.44-2.5,23.73,23.73,0,0,0,2.79-2.91c1.58-.35,2.66-1.53,2.42-2.65s-1.76-1.76-3.43-1.41a6.33,6.33,0,0,1-1.2-.1,25,25,0,0,0-9.93-.84l2.3.26a11.08,11.08,0,0,0-3.09.5l.65.45c-3.82-.25-7.87,2.11-8.65,5.13s1.69,5.37,5.25,5.4C163.79,184.68,164.31,184.69,164.86,184.73Z"/><path d="M173.22,188.63l-5.8-.1-.51-.22,1,1.58,0-.12c.65-2,2.71-3.74,4.8-5l.69-.56a1.41,1.41,0,0,0,.31-1.18c-.18-.87-1.25-1.33-2.4-1l-1.33.35a13,13,0,0,0-5.48,1.8,5.15,5.15,0,0,0-2.73,4.31c0,.81.86,1.45,1.39,2.15a2.72,2.72,0,0,0,3.57.87c1.39-.66,2.15-2,1.65-3.15l.85-.11-.35.66c-.13-1.13,1.06-1.95,1.78-2.89.44-.31.9-.59,1.36-.89l-2.14-2.2c-.22.22-.43.44-.63.68a3.55,3.55,0,0,1,.31.2,32.61,32.61,0,0,1-3.48,3.86l-1.41,1.92a1.21,1.21,0,0,0,1.07,1.57l1.17.1-.57-.12,3.41-.74c1.14-.24,2.26-.48,3.39-.62a.74.74,0,0,0,.73-.59A.55.55,0,0,0,173.22,188.63Z"/><path d="M166.49,192.28a1.88,1.88,0,0,0-1.26.21l-.07.3.87.11C166.65,193,166.73,192.62,166.49,192.28Z"/><path d="M165.16,192.79l-.37,0,.32.15,0,0Z"/><path d="M255.39,187.61a136.26,136.26,0,0,1,15.31,11.24c.15.14.34.18.41.09s0-.27-.15-.39a133.5,133.5,0,0,0-15.31-11.32c-.19-.11-.39-.12-.46,0S255.22,187.5,255.39,187.61Z"/><path d="M283,224.31c-.14-.05-.22,0-.18.18a.59.59,0,0,0,.31.33.13.13,0,0,0,.18-.17A.55.55,0,0,0,283,224.31Z"/><path d="M276.5,228.74a9.35,9.35,0,0,0-1.85-1,.45.45,0,0,1-.24-.23c-.09.14-.29.15-.53,0-4.66-2.5-9.25-5.33-14.06-7.44a1.16,1.16,0,0,1-.44.24,2.13,2.13,0,0,1-1.88-.43l-.41-.38c-1.76-1.33-3.58-2.58-5.41-3.8a5.06,5.06,0,0,1-1.58-.3l-3-.34-3-.3a.69.69,0,0,1,0,.51,1,1,0,0,1-1.21.36c-.24-.08-.48-.14-.72-.21.64.3,1.26.68,1.88,1a.84.84,0,0,1,.24.16l2.25.82A177.42,177.42,0,0,1,267,225.19a.39.39,0,0,1,.29.29c0,.11-.09.19-.23.14-4.82-1.41-9.58-1.45-14.48-2.44a73.53,73.53,0,0,0-16.79-1.41l-1.92-.3c-.64-.05-1.28-.07-1.91-.09a27.25,27.25,0,0,0-3.74.17,42.55,42.55,0,0,0-7.27,1.68c-1.77.55-3.45,1.15-5.06,1.76-2.21.87-4.31,1.69-6.32,2.7-1,.43-2,1-3,1.49s-1.94,1.06-2.87,1.7a2.8,2.8,0,0,1-1.47.69,2.68,2.68,0,0,1-1.58-.21,6.63,6.63,0,0,1-3-3,8.18,8.18,0,0,1-.8-5.87l-.61.27-1.08.16a4.37,4.37,0,0,1-3.14-1.05l-1.32-.95a26.66,26.66,0,0,0-3.5-2.66,25.92,25.92,0,0,1-3.62-2.74l-.37-1.11-.36-.18a6.12,6.12,0,0,1-2.83-2l-.63-1.25a12.73,12.73,0,0,1-1.12-4.56,4.6,4.6,0,0,1-.62-1.61,6.62,6.62,0,0,1-2.6-3.81.9.9,0,0,1-.55-1.26,1.21,1.21,0,0,1,.38-.43h0c-.37-.22-.48-.28-.93-.51-.41.07-.65.09-.65.09-1.06.25-1,.28-1.95.5a5.08,5.08,0,0,1-1.71-.4c-2.09-1.73-2.11-1.73-2.55-2.72a2.08,2.08,0,0,1,0-.35c-.83,0-.89,0-1.13,0a2.39,2.39,0,0,1-.53-.19c-.34-.48-.34-.48-.57-.6a2.27,2.27,0,0,1-.26-.36c0-.75,0-.75-.08-.92a1.42,1.42,0,0,1,0-.38c.32-.4.45-.55.51-.62l1.72.81-.07-.56.57.49-.45-.49.66.09-.82-.2a5.8,5.8,0,0,0,1.65-.63,3,3,0,0,0,.86-.53c-.13-.16-.21-.28-.21-.28,1.33-.36,1.33-.36,2.63-.68a3.45,3.45,0,0,1,.47.24.61.61,0,0,1,.46-.47l.66-.19a1.13,1.13,0,0,0,.1-.13l0,0,.4-.49.08-.11h0l1.76-2.1a10.48,10.48,0,0,1,1.18-.17l-.42-.12c-.29-.1-.33-.66-.46-.66a26,26,0,0,0-4.78.55c-1.58.34-3.17.76-4.76,1.18a1.14,1.14,0,0,1-1.43-.08.84.84,0,0,1,.36-1.23,19.24,19.24,0,0,1,3.93-3.58,25.18,25.18,0,0,1,4.95-2.48,28,28,0,0,1,11-1.54c1.82-.15,3.6-.4,5.41-.52l-.32-.2,1.46.11h.15l-1.27-.7-.8-.12a50.34,50.34,0,0,1-6.27.27c-2.08.06-4.26,0-6.39.21-2.31.21-4.53,0-6.83.13-.54.15-1.05,0-1.17-.42s.25-.8.78-.95a34.2,34.2,0,0,1,5.17-2.07,32.23,32.23,0,0,1,5.55-1.24,26.43,26.43,0,0,1,5.53-.22,19.35,19.35,0,0,1,5.11.95A7.16,7.16,0,0,1,195,175H195l-1-.64c1,.06,1.64.61,2.55.75l-.53-1c2.4,0,4.87-.11,7.28-.12a35,35,0,0,1,3.58.27c.59.07,1.17.16,1.74.28s1.13.29,1.68.48c.17,0,.33.06.49.09a18.19,18.19,0,0,1,3.7-1.05,11.73,11.73,0,0,1,2.09-.13l-2.11-.45h0a13.88,13.88,0,0,1,4.7-.27,20.14,20.14,0,0,1,6.59,2,11.87,11.87,0,0,1,4.59,3.78,103.9,103.9,0,0,1,23.4,7.37c.39.16.65.49.62.75s-.4.33-.78.17a153.25,153.25,0,0,0-16.74-4.86c4.63,1.86,9,4,13.43,6.13l1.72.72a8.6,8.6,0,0,1,1.6.94c5.5,2.88,10.31,6.12,15.51,9.43a144.92,144.92,0,0,1,12.23,8.82,68.58,68.58,0,0,1,14.44,15.34c.57.77.79,1.71.5,2.08s-1,0-1.57-.7a114.93,114.93,0,0,0-15.65-15.54,213.1,213.1,0,0,0-18.43-13.42c-1.45-.9-2.85-1.84-4.31-2.68a1.09,1.09,0,0,1-.07.24,1.23,1.23,0,0,1-.77.61c1.64.94,3.17,2.09,4.71,3.19a45.74,45.74,0,0,1,13.37,8.75,56.8,56.8,0,0,1,6.78,8.41,94.73,94.73,0,0,1,9.18,9.29.46.46,0,0,1,.18.4c0,.11-.16.1-.29,0-2.26-2-4.55-4.09-6.93-6.09a1.35,1.35,0,0,1-.32,1.35,1.53,1.53,0,0,1-1.49.09c.46.51.94,1,1.38,1.53.27.33.36.7.2.84s-.53,0-.8-.27c-.93-1-1.89-2-2.84-3.06s-2-2-2.95-3c-1.28-1.07-2.65-2.05-4-3.07s-2.72-1.95-4.09-2.9a2.6,2.6,0,0,1,0,1.56h0l1.22.93a65.62,65.62,0,0,1,20.88,19.48c.12.15.15.32.08.38s-.23,0-.32-.15c-.86-1.18-1.72-2.36-2.61-3.52s-1.87-2.24-2.82-3.33h0c0,.13,0,.22-.17.17a.65.65,0,0,1-.31-.34c0-.15.06-.21.18-.17a63.41,63.41,0,0,0-12.23-10.43,71,71,0,0,1,10.44,10.29l1.35.94a.43.43,0,0,1,.16.39c0,.08-.18.07-.29,0s-.25-.18-.37-.27c.58.72.71,1.55.32,1.87s-1.23,0-1.86-.73c-.89-.9-1.78-1.79-2.66-2.69L276,221.64l-.65-.5-.78-.35a101.25,101.25,0,0,1,7.52,8.84c.22.25.29.55.16.68s-.43,0-.65-.22a126.37,126.37,0,0,0-15.93-12.43c-1.17-.29-2.31-.59-3.49-.8l-3.54-.63c.22.17.45.32.68.47,1.48,1,3,1.72,4.5,2.51l4.54,2.26c1.52.75,3,1.61,4.47,2.48a37,37,0,0,1,4.2,3.11.32.32,0,0,1,.13.36c-.06.08-.21.06-.34-.07a34.74,34.74,0,0,0-4.16-2.92c-1.46-.83-2.91-1.64-4.42-2.46a44.19,44.19,0,0,0-7.43-3.33c4.44,2.59,9.11,4.89,13.28,8.18a.77.77,0,0,1,.37.48.27.27,0,0,1,.2,0,11.33,11.33,0,0,1,1.95,1.07.37.37,0,0,1,.2.35C276.78,228.82,276.65,228.82,276.5,228.74Zm-88.81-38.6-.22-.13.66.13,1.18,1Zm-7.29,8h0l-.73-.51Zm60.72-12.92c-1.64-.54-3.27-1.15-4.91-1.77s-3.27-1.3-4.93-2c.85.11,1.68.27,2.52.43A68.07,68.07,0,0,1,241.12,185.17Zm-61.8,2.55a12.5,12.5,0,0,1,3.17,1.42,5.52,5.52,0,0,1,1.75-.77,34.87,34.87,0,0,1,5.07-1c-.35-.38.05-.43.23-.53l.58-.27-2.77.21-2.81.28c-.85.09-1.74.2-2.61.34A19.7,19.7,0,0,1,179.32,187.72Zm-10.72,6.79-.22-.08-.08-.79Zm.18,1.32.27,0C169.11,196.08,169,196,168.78,195.83Zm2.51-.29a1.65,1.65,0,0,0-.49-.19Zm11.71,18L181.9,210l1,3.46Z"/><path d="M108.92,91.62l.26,0c0,.16-.16.27-.36.35,2.46,0,3.94-2.3,4.34-4.49A1.1,1.1,0,0,0,112,85.66a1.37,1.37,0,0,1-.44.06,8.33,8.33,0,0,0-3.68.27h.86a2.83,2.83,0,0,0-1,.39l.31.18a2.54,2.54,0,0,0,.26,5.07Z"/><path d="M112.76,93.06c-.79.11-1.57.18-2.36.25l-.23-.08.6.7,0-.05A4.46,4.46,0,0,1,112,91.25l.18-.31a.78.78,0,0,0-.06-.58A.81.81,0,0,0,111,90l-.45.25c-1.3.33-2.85,1.51-2.43,3.17.1.38.49.66.78,1a1.09,1.09,0,0,0,1.54.31,1.11,1.11,0,0,0,.31-1.55l.33-.09-.06.33c-.19-.53.18-1,.33-1.45l.41-.51-1.16-.91-.14.35a1.55,1.55,0,0,1,.15.08,10.22,10.22,0,0,1-.86,2l-.35.94a.68.68,0,0,0,.6.71h.49l-.25,0c.89-.28,1.74-.69,2.63-1a.29.29,0,0,0,.22-.34A.29.29,0,0,0,112.76,93.06Z"/><path d="M110.44,95.11a.67.67,0,0,0-.51.13,1.42,1.42,0,0,0,0,.15l.37,0C110.57,95.43,110.57,95.26,110.44,95.11Z"/><path d="M109.94,95.39h-.16l.15.06v0Z"/><path d="M131.81,75.09a40,40,0,0,0,3.7-2s0-.1,0-.17-.12-.11-.15-.08a41.17,41.17,0,0,1-3.7,2s0,.1,0,.17S131.77,75.11,131.81,75.09Z"/><path d="M145.43,75.72a.24.24,0,0,0,.14.18c.05,0,.1,0,.09-.08a.39.39,0,0,0-.14-.17C145.45,75.62,145.42,75.66,145.43,75.72Z"/><path d="M149.46,81.41a1.94,1.94,0,0,0-.11.75s0,.06-.08,0a.42.42,0,0,1,.13.33,15.33,15.33,0,0,1-2,4.47,1.68,1.68,0,0,1,.15.3c.14.35.1.62-.11.69l-.18,0c-.64.23-1.24.5-1.88.71a.8.8,0,0,1-.17.51,12.6,12.6,0,0,1-.59,2,1.16,1.16,0,0,1,.26.24c.18.25.21.51.09.6l-.17.15c.22-.07.44-.15.67-.21a.16.16,0,0,1,.1,0,4.1,4.1,0,0,0,.57-.46,15.23,15.23,0,0,0,3.23-6.05s0-.08.11,0a.32.32,0,0,1,.12.18c-.06,2,.31,4.3-.21,6a30.2,30.2,0,0,1-2.26,5.56c-1.46,1.13-2.35,2.77-3.5,4.36a18.59,18.59,0,0,1-1.21,1.51,1.71,1.71,0,0,1-.2.21l-.34.31-.67.62-1.36,1.2c-1.82,1.58-3.68,3.08-5.58,4.6a3.32,3.32,0,0,1-5.64-2.85l-.37.25-.69.26a2.84,2.84,0,0,1-2,0l-.86-.3c-1.41-.74-3-1-4.35-1.93l-.26-.52-.2,0a2.9,2.9,0,0,1-1.58-.74l-.39-.57a6.72,6.72,0,0,1-.87-2.16,2.31,2.31,0,0,1-.43-.74A3.39,3.39,0,0,1,115,98.89a.48.48,0,0,1-.37-.58.48.48,0,0,1,.13-.23h0a4.17,4.17,0,0,0-.47-.19A2,2,0,0,1,114,98l-.82.33a2.21,2.21,0,0,1-.79-.12c-1.06-.75-1.06-.75-1.34-1.2a1,1,0,0,1,0-.17,2.69,2.69,0,0,1-.47,0,1.26,1.26,0,0,1-.24-.07c-.18-.22-.18-.22-.29-.27a1.69,1.69,0,0,1-.14-.16c-.06-.36-.06-.36-.12-.43a1,1,0,0,1,0-.18l.16-.31.79.32-.09-.25.29.21-.24-.22.29,0-.36-.07a1.91,1.91,0,0,0,.62-.35.78.78,0,0,0,.3-.29.66.66,0,0,1-.11-.12l1-.45.22.08a.24.24,0,0,1,.14-.24L113,94l0-.07,0,0,.1-.25,0-.06h0c.07-.18.16-.44.41-1.12a2.85,2.85,0,0,1,.46-.17l-.2,0c-.13,0-.23-.29-.28-.28a17.71,17.71,0,0,0-3.6,1.34.4.4,0,0,1-.58,0,.41.41,0,0,1,0-.58,9,9,0,0,1,6.42-5.11c.63-.3,1.25-.62,1.86-1l-.16,0,.55-.16,0,0-.62-.15-.31.06A26.82,26.82,0,0,1,112.62,88a24.07,24.07,0,0,1-2.52.55.37.37,0,0,1-.5-.14.36.36,0,0,1,.13-.49c1.85-1.88,4.4-3.45,7.11-3.37a2.09,2.09,0,0,1,1.32-.45h0l-.49-.15c.35-.13.71,0,1-.06l-.44-.38c1.61-.79,3-2.09,4.8-2.43l.18-.08a9.44,9.44,0,0,1,.94-1.79l-.45.13a1.36,1.36,0,0,1,.51-.89,3.11,3.11,0,0,1,3.36.47,48.13,48.13,0,0,0,3.69-3.73c0-.07.19,0,.31.1s.16.29.1.36a16,16,0,0,1-2.25,3.23,15.2,15.2,0,0,0,2.91-1.45l.28-.32a.64.64,0,0,1,.38-.17,13.06,13.06,0,0,0,3-2.77A27.93,27.93,0,0,0,138,71,12.5,12.5,0,0,1,141,66.82c.14-.17.5,0,.78.28s.41.74.26.91c-1.91,3.19-3.6,6.55-6.59,8.6l-1,.65.12.13a1.86,1.86,0,0,1,.31.56,11.26,11.26,0,0,1,1.21-.58,6.51,6.51,0,0,1,2.51-2.87,8.59,8.59,0,0,1,2.71-.63c.66-.86,1.27-1.77,2-2.6,0,0,.08,0,.14,0s.1.14.08.19a12.69,12.69,0,0,1-1,2.39,2.42,2.42,0,0,1,.76.69,2.24,2.24,0,0,1,.43.94l.42-.29c.09-.06.25,0,.37.17s.16.35.07.4L142.89,77c-.52.69-1.06,1.34-1.63,2a3.4,3.4,0,0,1,.78.6h0l.29-.26a13.89,13.89,0,0,1,4.77-5.61s.11,0,.17.08.07.15,0,.17a11.39,11.39,0,0,0-1.73,1.36h0a.3.3,0,0,1,.13.18c0,.06,0,.1-.08.07a.26.26,0,0,1-.14-.17A14.62,14.62,0,0,0,143,78.74a16.92,16.92,0,0,1,2.95-2.25L146,76s.08,0,.15,0,.09.14.07.18l0,.14c.21-.12.59.08.87.45s.36.81.16,1c-.46.47-.94.9-1.44,1.32l-.12.2,0,.31c.92-.47,1.85-.91,2.8-1.33.06-.06.2,0,.31.14s.14.29.07.34a27.85,27.85,0,0,1-3.34,4.42c0,.93-.05,1.88-.07,2.82l.19-.12c1.55-1.2,1.59-3.85,2.82-5.35,0,0,.1,0,.15,0s.09.15,0,.18a16.4,16.4,0,0,0-1.21,2.82,16.44,16.44,0,0,0-.9,2.4c1-1,1.56-2.59,2.44-3.78,0-.07.1-.08.19,0a.21.21,0,0,1,0-.12,2.59,2.59,0,0,1,.12-.77c0-.06.07-.06.14,0A.23.23,0,0,1,149.46,81.41ZM119,92.44l-.12,0,.3,0,.69.33Zm-1.87,4.64h0l-.39-.18Zm13.72-18.2a4.53,4.53,0,0,1-2.15.9l.36-.42C129.61,79.17,130.21,79,130.83,78.88ZM115.1,92.17a5.89,5.89,0,0,1,1.54.38,2.17,2.17,0,0,1,.57-.56c.61-.4,1.23-.77,1.86-1.1-.22-.13-.07-.21,0-.29l.17-.2q-1,.48-2.13.93A16.46,16.46,0,0,1,115.1,92.17Zm-3.55,3.92-.11,0-.11-.37Zm.2.62.11,0C111.92,96.81,111.86,96.79,111.75,96.71Zm1-.24a.71.71,0,0,0-.23-.07Zm7.07,8-.81-1.67.74,1.63Z"/></g></g></svg>