<svg xmlns="http://www.w3.org/2000/svg" viewBox="0 0 457.5 331.64"><g id="Layer_2" data-name="Layer 2"><g id="Layer_1-2" data-name="Layer 1"><path d="M260.16,56.63l.63-.07a1.45,1.45,0,0,1-.81.95,12.8,12.8,0,0,0,6.9-4.5,20.7,20.7,0,0,0,3.72-7c1.29-.86,1.83-2.33,1.19-3.31s-2.27-1.07-3.65-.19a5.81,5.81,0,0,1-1.1.29A24.35,24.35,0,0,0,257.72,45l2.18-.42a10,10,0,0,0-2.61,1.35l.75.25c-3.54.86-6.37,4.17-6.09,7.21S255.32,58,258.64,57Z"/><path d="M269.25,57.86c-1.8.57-3.59,1.09-5.42,1.62l-.54,0,1.49,1.2-.07-.11c-.11-2.12,1.26-4.31,2.7-6.16l.43-.74a1.46,1.46,0,0,0-.13-1.2,1.84,1.84,0,0,0-2.59-.25L264,52.9c-3.12,1.3-6.81,4.75-5.49,8.1.31.76,1.28,1.14,2,1.66a2.68,2.68,0,0,0,3.63-.19,2.45,2.45,0,0,0,.47-3.45l.75-.36c0,.24-.07.48-.11.72-.5-1,.32-2.15.67-3.24l.93-1.25-2.75-1.44-.33.82a3.56,3.56,0,0,1,.36.11A34.47,34.47,0,0,1,262.3,59l-.69,2.21a1.27,1.27,0,0,0,1.52,1.18l1.13-.23-.58.05c2-1.07,3.87-2.35,5.89-3.28a.71.71,0,0,0,.46-.8A.56.56,0,0,0,269.25,57.86Z"/><path d="M264.21,63.3a1.78,1.78,0,0,0-1.11.56l0,.31L264,64C264.59,63.92,264.55,63.56,264.21,63.3Z"/><path d="M263.13,64.17l-.35.06.34,0a.25.25,0,0,0,0-.06Z"/><path d="M447.21,187.79a105,105,0,0,1,7,21.55A122,122,0,0,1,456.83,231a110.58,110.58,0,0,1-1.43,22.25,85.88,85.88,0,0,1-7.21,22.9l-.67,1.43-.8,1.43-1.63,2.83-.83,1.41-.91,1.33c-.62.89-1.21,1.78-1.86,2.65A70.42,70.42,0,0,1,432.6,297a63.42,63.42,0,0,1-23.12,13.26,66,66,0,0,1-13,2.73c-1.09.1-2.19.19-3.28.27l-3.29.1c-2.13,0-4.22-.07-6.27-.25a94.61,94.61,0,0,1-22.49-4.83,12.92,12.92,0,0,0-3.49-.9,8.15,8.15,0,0,0,2.87,1.31,96.74,96.74,0,0,0,22.54,5c1,.07,2.07.16,3.11.21l3.17.08c2.19,0,4.42-.09,6.62-.32A67.16,67.16,0,0,0,409.09,311a64,64,0,0,0,23.42-13.14,66.4,66.4,0,0,0,9.05-9.73c.7-.86,1.29-1.76,1.91-2.65s1.26-1.76,1.79-2.73l1.65-2.84c.52-1,1.13-1.92,1.54-2.87a84.92,84.92,0,0,0,7.44-23,112.53,112.53,0,0,0,1.58-22.34A122.68,122.68,0,0,0,455,209.93a106.12,106.12,0,0,0-6.84-21.64,19,19,0,0,0-2.15-3.77C445.77,184.51,446.34,185.94,447.21,187.79Z"/><path d="M164.71,233c1.06-.33,1-.45-.16-.29a20.84,20.84,0,0,0-3.77.87c-.88.34-.8.48.17.29C162.08,233.67,163.81,233.33,164.71,233Z"/><path d="M173,221l2.59-.52,2.59-.38,5.06-.75,4.91-.47,2.37-.24,2.32-.12c1.14,0,2.42,0,3.38.05-.41-.2,1-.48,3.59-.36l4.85.17,4.87.44c1.63.12,3.24.42,4.87.64l2.44.36c.85.16,1.78.38,2.66.57,3.44.82,6.39,1.68,9.44,2.58s6,1.84,9,2.78c12,3.79,23.87,7.89,35.83,12.15s23.94,8.66,35.9,13.21,23.92,9.17,35.8,13.94a6.56,6.56,0,0,1,2.23.29,60.87,60.87,0,0,1,7.27,2.31c2.88,1.08,6,2.37,9.15,3.66q2.32,1,4.61,1.9c2.31.87,4.58,1.66,6.81,2.32a65.21,65.21,0,0,0,6.51,1.57,43.66,43.66,0,0,0,6.16.69c1,.06,1.93,0,2.86,0s1.86-.13,2.78-.28a29,29,0,0,0,18.77-10.78c.45-.65.81-1.42,1.26-2.15s.74-1.56,1.16-2.34a24.17,24.17,0,0,0,1.15-2.6c.19-.46.39-.92.59-1.38s.33-1,.5-1.52c4-13.89,2.67-31.86-2.63-46.71.15,1,.09,1.63-.15,1.69s-.85-.92-1.47-2.22c-.31-.66-.62-1.45-1-2.23s-.72-1.73-1.12-2.57-.78-1.71-1.22-2.48-.83-1.6-1.31-2.3c.34.49.58,1.12.89,1.67a16.85,16.85,0,0,1,.84,1.76l.81,1.82.74,2,.37,1c.12.35.22.71.33,1.07l.64,2.13c.38,1.46.75,2.93,1.07,4.42.18.87.32,1.68.43,2.42a87.55,87.55,0,0,1,1.67,20.54c-.35,7.44-1.73,14.56-4.21,19.89a14.18,14.18,0,0,1-1,1.91,18.36,18.36,0,0,1-1,1.82l-.58.9c-.19.29-.41.55-.61.84s-.4.56-.62.83l-.66.77a27.54,27.54,0,0,1-2.79,2.82,26.91,26.91,0,0,1-6.61,4.07c-.62.21-1.21.51-1.86.68l-.95.31-1,.24a28.92,28.92,0,0,1-8.42.75A52.76,52.76,0,0,1,375.88,273a114.4,114.4,0,0,1-11.16-3.47c-3.9-1.4-7.78-3-12.09-4.68s-8.42-3.35-12.63-5c-8.4-3.29-16.82-6.43-25.22-9.53s-16.79-6.13-25.18-9.1-16.82-5.85-25.24-8.69a28,28,0,0,1-3.76-1.46c-.6-.36-.42-.48.83-.09l31.4,9.63c10.26,3.22,20.44,6.42,30.76,9.78s20.77,6.94,31.64,10.87c2.77,1,5.3,1.92,7.85,2.79s5,1.67,7.43,2.38a67.61,67.61,0,0,0,13.42,2.77c.6.06,1.18.08,1.75.1s1.12,0,1.66,0,1.06-.06,1.58-.07.92-.12,1.38-.15a19.8,19.8,0,0,0,5-1.41A19.39,19.39,0,0,0,403,261.8c.24-.35.52-.65.75-1s.49-.72.73-1.09.44-.8.68-1.18.34-.81.54-1.19a22.76,22.76,0,0,0,1.07-2.59,9.19,9.19,0,0,0,.47-1.48c.15-.51.31-1,.48-1.52a60.59,60.59,0,0,0,1.55-14.94,78.24,78.24,0,0,0-2-16.37,68,68,0,0,0-2.28-7.62l-.66-1.77-.73-1.63-.35-.82-.37-.68-.72-1.37c-.52-.79-.95-1.68-1.49-2.35a23.93,23.93,0,0,0-1.5-2.07,9,9,0,0,1-.79-1c-.28-.31-.59-.6-.86-.92s-.64-.61-.94-.93a9.72,9.72,0,0,0-1-.95c-.18-.15-.36-.33-.53-.49s-.42-.33-.62-.5c-.43-.33-.8-.68-1.32-1s-.91-.71-1.46-1.07l-1.63-1.09c-2.29-1.5-5.09-3.09-8.22-4.84l-1.22-.72-1.29-.74-1.28-.75-1-.63-2-1.24-2.06-1.21c-2.78-1.53-5.62-3-8.59-4.33a103.23,103.23,0,0,0-19.43-6.47c-1.79-.42-3.61-.82-5.53-1.2l-6-1.15c-2.08-.39-4.35-.85-6.84-1.4-.66-.16-1.24-.28-1.94-.47l-1.06-.29-.61-.16-.16,0c-.05,0-.08-.13-.13-.19a.88.88,0,0,0-.06-.1l-.09,0-.16-.05c-.86-.27-1.73-.52-2.58-.81s-1.66-.67-2.46-1.06-1.54-.87-2.35-1.24l-1.21-.56a2.45,2.45,0,0,1-.58-.3l-.5-.44-1-.88c-.32-.31-.6-.64-.91-1a18.1,18.1,0,0,1-1.68-2c-.52-.71-1.09-1.32-1.64-2l-.21-.24-.14-.3-.27-.59-.56-1.2c-.33-.8-.59-1.64-.89-2.46a11.18,11.18,0,0,1-.4-1.24l-.18-.63c0-.22,0-.46-.08-.68-.11-.92-.21-1.82-.28-2.72l-.12-1.35a7.82,7.82,0,0,1-.06-1.37l.13-2.79a4.1,4.1,0,0,1,.28-1.39l.41-1.38c.59-1.88,1-3.64,1.48-5.45,0-.24.4-.39.43-.6l.23-.59.21-.49.18-.43c.24-.57.49-1.14.76-1.68a58.41,58.41,0,0,1,7.65-12c.72-.93,1.57-1.82,2.37-2.71s1.71-1.75,2.7-2.61a32,32,0,0,1,3.14-2.47,28,28,0,0,1,3.59-2.16l.93-.5,1-.41,2-.79c.67-.27,1.38-.39,2.06-.6a21.09,21.09,0,0,1,2.06-.49c1.34-.22,2.73-.47,3.95-.55.62,0,1.3-.14,1.87-.16l1.74-.11,1.62-.1,1.53-.12a26,26,0,0,0,2.59-.39,7.49,7.49,0,0,0,1.09-.29l.89-.34a2.46,2.46,0,0,0,.7-.43c.19-.16.45-.24.56-.43a3.53,3.53,0,0,0,.63-1l.2-.47.17-.59c.11-.27.24-.84.37-1.25s.26-1,.4-1.45a57,57,0,0,0,1.46-7.27,21.54,21.54,0,0,0-.08-7.15,10,10,0,0,0-.9-2.61,8.38,8.38,0,0,0-1.29-1.73,13.65,13.65,0,0,0-2.28-1.78,24.54,24.54,0,0,0-3.18-1.75,40.75,40.75,0,0,0-9.14-2.94,24,24,0,0,0-4.78-.55,14.41,14.41,0,0,0-3.08.56,23.45,23.45,0,0,0-2.79,1.2c-.95.53-1.89,1.06-2.92,1.76-.24.15-.51.38-.77.55s-.52.36-.79.58l-.81.62-.13.12-.36.38c-.24.25-.48.47-.73.75l-.74.76-.75.8c-1,1.08-2.06,2.17-3.12,3.38s-2.14,2.45-3.22,3.8c-1.32,2.31-4.45,2.43-7.17.1a7.91,7.91,0,0,1-2.73-5.42l-.52.53-1.06.56a4.53,4.53,0,0,1-3.54.23L296.94,83c-2.81-1.17-5.86-1.39-8.81-2.71l-.71-1-.41,0a6,6,0,0,1-3.37-.94l-1-1a13.18,13.18,0,0,1-2.55-4A4.85,4.85,0,0,1,279,71.92a6.77,6.77,0,0,1-3.73-2.83.94.94,0,0,1-.94-1,1.07,1.07,0,0,1,.22-.54h0a8.2,8.2,0,0,0-1.05-.2l-.58.29-1.68,1.06a5.28,5.28,0,0,1-1.76.12c-2.54-1-2.55-1-3.3-1.86a3.21,3.21,0,0,1-.12-.33,10.89,10.89,0,0,1-1,.36,2.47,2.47,0,0,1-.55,0c-.48-.36-.48-.36-.73-.41a3.12,3.12,0,0,1-.37-.27c-.24-.72-.24-.72-.37-.85a1.51,1.51,0,0,1-.1-.38l.27-.73,1.88.27-.25-.5.69.29-.58-.33.65-.1-.83,0A5.37,5.37,0,0,0,266,62.88a2,2,0,0,0,.63-.76,1.66,1.66,0,0,1-.28-.19c1.1-.75,1.11-.74,2.2-1.44a3.74,3.74,0,0,1,.52.09.61.61,0,0,1,.28-.58l.56-.37,0-.16,0,0c.08-.24.13-.4.2-.59l0-.13h0c.14-.4.33-1,.89-2.53a7.76,7.76,0,0,1,1-.52h-.44c-.3,0-.54-.52-.66-.48a38.1,38.1,0,0,0-8.23,4.48,1.09,1.09,0,0,1-1.36.32.81.81,0,0,1-.08-1.25c2.2-6.45,8.75-11.3,15.56-13.37,1.59-.8,3.16-1.62,4.77-2.4l-.37-.07,1.38-.43.13-.07-1.43-.19-.78.17c-3.65,2-7.6,3-11.4,4.72-2,.93-4.11,1.41-6.18,2.21a.9.9,0,0,1-1.22,0,.87.87,0,0,1,.37-1.14,34.78,34.78,0,0,1,8.5-6.45,24.41,24.41,0,0,1,10-3,7.55,7.55,0,0,1,3.51-1.12l.06,0-1.13-.24c.93-.33,1.76,0,2.66-.25l-.88-.73c1.12-.45,2.24-1,3.38-1.44s2.28-1,3.45-1.45a24.18,24.18,0,0,1,7.17-1.78,4.82,4.82,0,0,1,.52-.11,19,19,0,0,1,2.46-1.92l.68-.44.09-.05,0,0,0,0,.09,0c.54-.21,1.12-.38,1.67-.56,1.13-.36,2.25-.74,3.45-1a66.21,66.21,0,0,1,15.31-2.39,67.63,67.63,0,0,0-10.86,1.07c-1.78.28-3.48.68-5.2,1.09-.87.2-1.68.45-2.53.68l-1.27.36-.62.18-.26.08h0l0,0,.29-.11.66-.23,1.34-.44c.9-.29,1.77-.58,2.71-.83l2.76-.74,2.85-.62A64.59,64.59,0,0,1,325,24.29a58.62,58.62,0,0,1,12.46,1.1,63.34,63.34,0,0,1,6.18,1.53c2,.69,4.08,1.38,5.83,2.16A78.12,78.12,0,0,1,363,36.67,68,68,0,0,1,375.2,47.43a50.94,50.94,0,0,1,9.24,14.78,42.87,42.87,0,0,1,3.07,16.89,47.09,47.09,0,0,1-2.64,14.39,47.71,47.71,0,0,1-5.49,11.23,41.59,41.59,0,0,1-7.34,8.35c-.64.58-1.39,1.11-2.05,1.63s-1.46,1-2.16,1.42a20.56,20.56,0,0,1-2.12,1.24c-.75.36-1.48.68-2.18,1l-.93.44-1,.36c-.68.23-1.35.44-2,.65a34.93,34.93,0,0,1-4.06.69,30.45,30.45,0,0,1-3.8.05c-.59,0-1.21-.06-1.77-.11l-1.63-.21c-.56,0-1.06-.13-1.54-.21l-1.48-.23c-.88-.13-1.85-.28-2.65-.36l-1.23-.12c-.41,0-.76,0-1.14,0a12,12,0,0,0-2.12.12c-2.65.3-4.66,1.75-6.64,3.84a30.69,30.69,0,0,0-5,7.91c-.36.72-.63,1.48-.93,2.22s-.53,1.5-.74,2.26a20.37,20.37,0,0,0-.56,2.24c0,.08,0,.2-.06.26l-.05.16a1.85,1.85,0,0,0-.06.26l-.13.5a6.59,6.59,0,0,0,.14,4,3,3,0,0,0,1.38,1.43,4.45,4.45,0,0,0,.94.36,2.68,2.68,0,0,0,.49.11,2.18,2.18,0,0,0,.6.07c1.29,0,2.83-.12,4.54-.32l5.35-.61a182.11,182.11,0,0,1,24.25-1.75,117.08,117.08,0,0,1,12.89.76c2.17.23,4.33.55,6.49.9s4.31.81,6.44,1.33,4.26,1.06,6.39,1.66c1.87.51,3.68,1,5.63,1.63A120,120,0,0,1,411.65,153a75.52,75.52,0,0,1,13,7.1,67.86,67.86,0,0,1,12.08,10.57,48.44,48.44,0,0,1,3.66,4.76,13.38,13.38,0,0,1,1.5,2.85c0,.27-.47-.16-1.26-1.09-.39-.46-.86-1.05-1.4-1.74l-1.93-2.29a66.47,66.47,0,0,0-8.11-8.07c-1.47-1.18-3-2.33-4.49-3.39s-3.06-2.08-4.61-2.93l-2.32-1.32-2.31-1.18c-1.56-.8-3.06-1.42-4.59-2.11-3-1.24-6-2.34-8.8-3.24l-2.13-.68-2.06-.62c-1.39-.42-2.68-.78-4-1.15l-4.49-1.23-4.59-1.06a116.89,116.89,0,0,0-18.51-2.36,140.19,140.19,0,0,0-18.05.35c-5.82.45-11.48,1.22-16.44,1.66-.62.06-1.22.11-1.79.14s-1.13.06-1.67.08l-.76,0c-.27,0-.44,0-.6,0s-.57-.09-.84-.19a4,4,0,0,1-2.71-2,4.23,4.23,0,0,1-.44-1.69,3.57,3.57,0,0,1-.07-.86,6.41,6.41,0,0,1,0-.88,10.59,10.59,0,0,1,.31-1.74c.07-.31.12-.47.26-1a14.57,14.57,0,0,1,.42-1.67c-.14.47-.28.93-.37,1.39s-.24.79-.27,1a13.93,13.93,0,0,0-.35,1.45,10.59,10.59,0,0,0-.15,1.5v.38l.06.36c0,.12,0,.26,0,.39a2.2,2.2,0,0,0,.06.37,3.83,3.83,0,0,0,1.51,2.54,5.47,5.47,0,0,0,.65.41c.24.08.46.22.7.28a6.25,6.25,0,0,0,.74.21l.37.09c.15,0,.26,0,.48,0,1.66,0,3.7-.06,5.84-.23l6.74-.58c4.66-.44,9.59-.78,14.6-.86a116.76,116.76,0,0,1,30.8,3.41c1.27.33,2.57.64,3.83,1l3.77,1.15c2.24.7,4.52,1.45,6.89,2.27a103.32,103.32,0,0,1,14.87,6.37A66.43,66.43,0,0,1,430,169.8,58.2,58.2,0,0,1,441.25,185c1,1.71,1.74,3.44,2.59,5.17s1.43,3.41,2.14,5.11,1.19,3.4,1.78,5.1,1,3.4,1.49,5.1A116.61,116.61,0,0,1,452.77,226c1.09,13.7.21,27.77-4.91,42.15-.33.89-.61,1.78-1,2.68l-1.19,2.68c-.4.89-.79,1.78-1.22,2.67L443,278.79l-1.51,2.63-1.67,2.49c-.55.84-1.16,1.65-1.78,2.44s-1.22,1.62-1.9,2.39a64.55,64.55,0,0,1-8.85,8.63,60.49,60.49,0,0,1-10.57,6.77,62.48,62.48,0,0,1-24.18,6.46c-1,0-2.1.1-3.14.12l-3,0c-2-.08-4-.21-5.94-.43a90.64,90.64,0,0,1-11.29-2,131.82,131.82,0,0,1-17-5.46c-5.17-2-10-4.18-14.47-6.06-9-3.9-18-7.58-26.93-11.33s-17.92-7.4-27.07-11.05-18.4-7.42-28-11.15l-19.95-7.72q-4.92-1.85-9.78-3.68l-4.82-1.75-4.69-1.65-2.19-.71c-.68-.22-1.57-.53-1.95-.62l-.73-.22a8,8,0,0,0-.83-.23l-2.13-.45-2.14-.46-2.14-.33c-1.43-.22-2.86-.5-4.3-.6s-2.88-.33-4.33-.4l-4.35-.19c-1.45,0-2.92,0-4.38,0l-2.19,0-2.2.17A117.78,117.78,0,0,0,164.85,247l-4.46,1.13c-1.49.37-3,.7-4.46,1.22l-4.47,1.4c-.74.24-1.5.44-2.24.72l-2.22.84c-3,1.13-6,2.12-8.93,3.49s-6,2.49-8.9,4c-6,2.77-11.83,6-17.79,9.39-3.1,1.9-6.15,3.66-8.58,4.92a25.49,25.49,0,0,1-4.61,2.31c-.51.06.29-.74,2-2.08.43-.33.9-.7,1.43-1.09l1.77-1.18c1.27-.84,2.71-1.77,4.27-2.74a225,225,0,0,1,37.59-19.23A147.31,147.31,0,0,1,164.67,244a124,124,0,0,1,19.6-2.9,104.14,104.14,0,0,1,19.36.81c1.59.27,3.19.42,4.77.8l2.37.49c.38.09.82.16,1.15.25l.88.26.88.25,1.18.38,2.38.77,5,1.75c6.83,2.45,13.77,5.09,20.69,7.76s13.89,5.38,20.84,8.16c13.89,5.56,27.82,11.19,41.73,17l20.87,8.81,10.43,4.5,10.63,4.63A139.56,139.56,0,0,0,371.85,306,80.09,80.09,0,0,0,386,308c1.24,0,2.48.06,3.74.05s2.58-.06,3.87-.17a61.16,61.16,0,0,0,7.71-1.1,59.5,59.5,0,0,0,14.8-5.19,58.48,58.48,0,0,0,12.95-9,61.69,61.69,0,0,0,10-11.9c.71-1.07,1.32-2.23,2-3.35a36.1,36.1,0,0,0,1.81-3.41,65.14,65.14,0,0,0,2.9-6.92,89.31,89.31,0,0,0,4.9-23.83,114.16,114.16,0,0,0-.72-23c-.08.21-.16.41-.28.42-.46.06-1-1.33-1.74-3.65a109.64,109.64,0,0,1,1.1,25.77,86.83,86.83,0,0,1-6,26.3l-2,4.58c-.69,1.52-1.58,3-2.38,4.51s-1.79,2.88-2.7,4.31-2,2.77-3.12,4.09a60.41,60.41,0,0,1-7.34,7.41,58.9,58.9,0,0,1-8.69,6,57.82,57.82,0,0,1-20,6.73,63.92,63.92,0,0,1-10.46.57,76.89,76.89,0,0,1-10-1c-12.94-2.2-24-7-34.19-11.55l-30.32-13.49-40.68-18.21c-13.16-5.88-26.1-11.58-39.17-17.09-4.2-1.56-8.4-3.08-12.53-4.49-1.05-.38-2-.65-3-1l-1.5-.49-1.24-.34c-.43-.12-.78-.25-1.27-.35l-1.51-.3-3-.62a102.36,102.36,0,0,0-24.5-1.29c-2.06.2-4.13.34-6.19.57l-6.19.93c-4.1.85-8.23,1.65-12.3,2.87l-3.08.84c-1,.3-2,.68-3,1-2,.7-4.06,1.34-6.08,2.08-4,1.67-8.06,3.09-12,5a19.87,19.87,0,0,1-3.1,1.26c-.51.11.12-.29,1.39-.91a154.06,154.06,0,0,1,33.78-12.39c1.47-.32,2.92-.72,4.39-1l4.43-.73c.74-.12,1.47-.26,2.21-.36L180,236l4.46-.45a115.89,115.89,0,0,1,17.87.26c-3.7-.79-5.93-1.58-5.6-2.13.17-.32,1-.51,2.37-.65.69-.07,1.51-.12,2.45-.15.47,0,1,0,1.49,0l1.65.09c-.69-.1-1.38-.23-2.07-.3l-2.09-.2c-1.39-.12-2.78-.31-4.18-.37-2.79-.08-5.59-.29-8.4-.14-1.73.05-3.29,0-4.4,0s-1.79-.07-1.75-.22.72-.37,1.84-.57a36.87,36.87,0,0,1,4.31-.29c2.89-.16,5.78.06,8.66.13,1.44.08,2.87.25,4.31.37l2.15.2,2.13.33c1.43.24,2.86.39,4.27.69l4.22.88c.71.14,1.3.35,2,.52l1,.27,1,.34c1.38.47,2.75.88,4.15,1.39,11.2,3.94,22.42,8.37,33.58,12.8q40.44,15.48,80.32,32.39c-3.48-2-6-3.77-7-4.94a0,0,0,0,1,0,0l-12.35-5.22q-28.54-11.28-57.56-22.25c-9.67-3.62-19.37-7.25-29.11-10.68L226,236.72l-3.65-1.22c-1.22-.42-2.43-.79-3.63-1.16l-1.8-.56-1.71-.46c-1.08-.33-2.36-.52-3.58-.77s-2.44-.51-3.68-.66c-2.48-.33-4.94-.75-7.44-.88a113.25,113.25,0,0,0-30,1.53,148.12,148.12,0,0,0-29.19,8.76l-3.56,1.47-1.78.74-1.74.83-7,3.33c-2.29,1.18-4.55,2.45-6.83,3.67l-3.41,1.84-3.33,2-6.66,4-6.5,4.34c-4.39,2.81-8.52,6-12.77,9.07a13.74,13.74,0,0,1-2.54,1.65,10.58,10.58,0,0,1,2.08-1.74L95,267c1.25-1,2.6-1.8,3.9-2.68l3.92-2.64,3.92-2.63,4-2.44,4-2.45,2-1.22,2.06-1.13a184.17,184.17,0,0,1,34-15.21l-.1,0c-1,.25-1.19.18-.18-.27a21.9,21.9,0,0,1,3.72-1.11c1.12-.22,1.06-.06.19.27a126.37,126.37,0,0,1,33.69-5.36,108.55,108.55,0,0,1,16.91,1.14c.69.11,1.4.18,2.09.31l2.08.4,2.08.39c.35.07.71.13,1,.21l1,.26c.65.18,1.27.31,2,.52l2,.64c1.35.4,2.72.86,4.1,1.32,11,3.69,21.93,7.79,32.82,11.84s21.73,8.23,32.52,12.39c-19.92-8.07-39.91-16-60-23.4-2.51-.93-5-1.78-7.54-2.65l-3.76-1.21c-.62-.19-1.21-.34-1.82-.51a17.24,17.24,0,0,0-1.85-.46l-3.85-.78c-1.28-.29-2.58-.41-3.87-.62-2.58-.45-5.19-.62-7.8-.87a115,115,0,0,0-31.32,2.17l-3.34.87c-1.11.3-2.23.54-3.32.92l-6.62,2.14a28.21,28.21,0,0,1-3.31,1c-.37,0,.46-.41,1.69-.87s2.45-.82,3.68-1.24c-7.67,2.25-13.63,4.1-13.74,3.49.08-.39,1.66-1.43,4.29-2.55,1.31-.58,2.86-1.22,4.59-1.9l1.32-.52,1.41-.44,3-.89a126.28,126.28,0,0,1,33.4-5.44c1.41-.06,2.83,0,4.24,0s2.83,0,4.24.14l4.23.34c1.41.08,2.8.35,4.2.52,2.82.32,5.58.94,8.36,1.46,2.76.68,5.45,1.54,8.13,2.43,2.33.75,4.66,1.48,7,2.27s4.71,1.42,7,2.16q-3.07-1.17-6.17-2.3c-2.06-.77-4.12-1.52-6.2-2.23s-4.17-1.42-6.27-2.1c-1.06-.33-2.15-.61-3.23-.91l-3.25-.67a109.22,109.22,0,0,0-26.39-2,131.79,131.79,0,0,0-26.14,3.95l-6.35,1.83-1.59.46-1.55.54-3.11,1.1c-4.19,1.37-8.2,3.18-12.25,4.87-1.4.57-2.64,1.21-3.59,1.59a4.38,4.38,0,0,1-1.66.51c-.15-.14,1.92-1.49,4.68-2.75l5.31-2.41,2.67-1.2c.9-.37,1.81-.7,2.72-1.06l5.47-2.1c1.83-.7,3.72-1.22,5.59-1.83,3.71-1.29,7.56-2.13,11.37-3.11,1.93-.44,3.88-.74,5.82-1.12,1-.17,1.94-.38,2.92-.53l2.95-.36c3.93-.57,7.91-.75,11.89-.94l6,0c2,.06,4,.23,6,.34a119.57,119.57,0,0,1,11.91,1.63,31,31,0,0,1,3,.67c.51.13,1,.25,1.53.39l1.43.42,2.87.85,2.8.91c14.89,4.86,29.47,10.24,44.07,15.74s29.12,11.19,43.61,17c9.75,3.29,19.47,6.69,29.25,10.16,4.88,1.73,9.84,3.56,14.56,5.18a142.31,142.31,0,0,0,14,4.11c-2.25-.72-4.56-1.53-6.89-2.39-3.71-1.39-7.43-2.94-11.18-4.54L342.56,268q-11.42-4.71-22.61-9c-14.95-5.76-29.64-11.17-44.36-16.35s-29.37-10.24-44.48-15c-3.79-1.2-7.61-2.37-11.61-3.46l-3.24-.77-3.08-.51c-1-.16-2.05-.35-3.08-.49L207,222a121.14,121.14,0,0,0-25.26-.08,13.42,13.42,0,0,1-3.35.16c-.19-.1.95-.36,2.67-.55a121.86,121.86,0,0,1,24.66-.27l3,.32c1,.11,2,.21,3,.39l3,.48,1.5.25c.51.09,1.06.23,1.58.35,4.25,1,7.8,2.12,11.58,3.24,14.8,4.61,29.29,9.53,44.33,14.89,12.46,4.43,24.56,8.87,36.44,13.29s23.51,8.81,35,13.21c-11.6-4.89-23.14-9.51-34.68-14s-23-8.76-34.58-12.94-23.1-8.28-34.83-12.21c-5.86-2-11.73-3.9-17.88-5.73-1.57-.44-3.05-.9-4.89-1.31l-1.32-.32c-.45-.1-.83-.15-1.24-.22l-2.44-.41-2.44-.41-2.46-.29c-1.64-.17-3.27-.43-4.92-.52-2.31-.1-4.63-.34-6.09-.55a5,5,0,0,1-1.31.17l-5,.19c-1.71.11-3.44.31-5.2.45l-2.64.24-2.65.39c-1.77.27-3.56.5-5.35.8a24.34,24.34,0,0,1-3.83.54C170.7,221.58,171.51,221.31,173,221ZM283.24,54.58l-.26,0,.67-.1,1.47.54Zm-4,10h0l-.87-.25Zm55.06,82c-1.55.12-3.1.25-4.5.3a14,14,0,0,1-3.5-.12,6.56,6.56,0,0,1-2.18-.87,3.93,3.93,0,0,1-1.47-1.8,8.2,8.2,0,0,1-.21-4.63,11.1,11.1,0,0,1,.27-1.14,4.69,4.69,0,0,1,.17-.6c.08-.27.16-.65.23-1,.18-.67.41-1.33.6-2l.74-2a37.29,37.29,0,0,1,4.1-7.5,18.39,18.39,0,0,1,5.49-5.38,12.15,12.15,0,0,1,7.1-1.45c2.79.15,6,.93,10,1.2-3.9-.22-7.05-.94-9.79-1.08a12.14,12.14,0,0,0-6.91,1.31,14.23,14.23,0,0,0-2.19,1.6l-1,.93-1,1.1a32.35,32.35,0,0,0-3.56,5.24,36.25,36.25,0,0,0-2.62,5.88,28.57,28.57,0,0,0-.87,3c-.14.41-.18.62-.26.91a7.75,7.75,0,0,0-.21.83,9.63,9.63,0,0,0-.18,3.43,4.27,4.27,0,0,0,1.69,2.94,5.31,5.31,0,0,0,1.57.76,8,8,0,0,0,.84.23,4.79,4.79,0,0,0,.48.08l.68,0C329.69,146.91,332,146.79,334.33,146.62ZM274.57,55.09a12.51,12.51,0,0,1,3.47.32,5.34,5.34,0,0,1,1.32-1.32,37.85,37.85,0,0,1,4.33-2.69c-.47-.24-.11-.43,0-.59l.44-.46-5,2.4C277.64,53.5,276.13,54.47,274.57,55.09Zm-7.63,9.73h-.24l-.33-.73Zm.59,1.2.25-.11C267.93,66.16,267.8,66.15,267.53,66Zm2.29-1a1.65,1.65,0,0,0-.52,0Zm17.09,13.62-2.21-3.08,2.05,3Z"/><path d="M7.82,102.85l.63,0a1.69,1.69,0,0,1-.93,1,15.75,15.75,0,0,0,7.72-4.37,39.58,39.58,0,0,0,3-3.46,25.46,25.46,0,0,0,2.31-3.77c1.51-.82,2.54-2.27,2.09-3.44s-2.19-1.48-3.88-.66a5.84,5.84,0,0,1-1.22.22,21.18,21.18,0,0,0-5,.28,25,25,0,0,0-2.64.59c-.85.26-1.71.55-2.58.89l2.33-.36a11.23,11.23,0,0,0-2.94,1.38l.72.3a10.15,10.15,0,0,0-5.13,2.87A7.87,7.87,0,0,0,0,99c-.16,3.28,2.77,5,6.24,4.16Z"/><path d="M16.85,104.8c-1.91.45-3.9.79-5.74,1.28l-.53-.09,1.33,1.36-.05-.12c.09-2.28,1.93-4.42,3.69-6.31l.56-.76a1.63,1.63,0,0,0,.06-1.31c-.35-.86-1.5-1.07-2.58-.46l-1.24.71c-3.53,1.13-7.58,4.76-6.73,8.3.21.82,1.13,1.26,1.8,1.83a2.63,2.63,0,0,0,3.66,0,2.76,2.76,0,0,0,.9-3.62c.27-.1.52-.23.8-.33-.07.25-.14.51-.2.76-.4-1.15.67-2.22,1.19-3.36l1.16-1.26L12.37,99.7l-.49.85a2.32,2.32,0,0,1,.35.14c-.43.83-.84,1.64-1.27,2.43a22.58,22.58,0,0,1-1.32,2.4l-1,2.29A1.21,1.21,0,0,0,10,109.13L11.2,109h-.59c1.07-.49,2.1-1,3.13-1.59A28.31,28.31,0,0,1,17,106a.8.8,0,0,0,.59-.79A.52.52,0,0,0,16.85,104.8Z"/><path d="M11,110.12a1.84,1.84,0,0,0-1.19.51v.31l.87-.09C11.31,110.78,11.31,110.4,11,110.12Z"/><path d="M9.82,110.94l-.37,0,.34.08,0-.06Z"/><path d="M139,226.58c9.43-8.39,16.22-22.24,20.1-37.17A137.08,137.08,0,0,0,163,166.12a204,204,0,0,0,.26-24.56,5.77,5.77,0,0,0-.33-2.15,4.17,4.17,0,0,0-.12,1.9,205.39,205.39,0,0,1-.25,24.52A137.65,137.65,0,0,1,158.7,189c-3.82,14.85-10.56,28.61-19.83,37a3.4,3.4,0,0,0-1.06,1.27C137.88,227.4,138.4,227.09,139,226.58Z"/><path d="M235.45,10.81c-.89.08-.85.19.07.25.39,0,.94,0,1.51,0s1.13.07,1.57.07c.74,0,.73-.13-.06-.26a10.76,10.76,0,0,0-1.6-.17C236.37,10.75,235.83,10.77,235.45,10.81Z"/><path d="M228.79,19.38l-3.15.81c-1,.31-2,.73-2.95,1.08-.48.19-1,.34-1.42.55l-1.33.68c-.87.47-1.74.87-2.53,1.35a16.63,16.63,0,0,1-1.81,1c.31,0-.37.55-1.69,1.41a55.26,55.26,0,0,0-4.65,3.62c-.74.67-1.53,1.25-2.23,2L204.91,34a66.19,66.19,0,0,0-7.53,9.53c-1.19,1.66-2.13,3.5-3.19,5.26-.48.91-.93,1.84-1.4,2.76l-.69,1.38-.61,1.42a68.77,68.77,0,0,0-4,11.65l-.68,3c-.19,1-.34,2.08-.52,3.12-.39,2.06-.56,4.2-.8,6.31-.15,1-.16,2.13-.24,3.2s-.15,2.14-.18,3.22L185,88.06l0,1.62,0,1.65a261.08,261.08,0,0,0,2,26.8,4.87,4.87,0,0,1,.61,1.51,77.27,77.27,0,0,1,1.9,13l.24,4.1c.57,8.28,1,16.77.78,25.45A170.8,170.8,0,0,1,188,188c-.19,1.78-.37,3.7-.74,5.73-.17,1-.35,2.06-.54,3.13l-.71,3.26a122.29,122.29,0,0,1-6.62,22.42,103.88,103.88,0,0,1-5.21,11l-1.6,2.73-.8,1.36-.88,1.33-1.78,2.66-1.93,2.58c.8-.74,1.35-1.14,1.51-1s-.43,1.27-1.35,2.65a27.31,27.31,0,0,1-1.76,2.26,32.05,32.05,0,0,1-2.28,2.55l-2.59,2.58c-.89.84-1.84,1.64-2.76,2.46a84.74,84.74,0,0,0,14.24-15.15c.57-.8,1.15-1.51,1.62-2.19a104,104,0,0,0,10-19.54c5.75-14.8,8.29-29.75,9.17-44.34a177.35,177.35,0,0,0-.08-21.64c-.43-7-1.17-13.86-2-20.49-1.61-13.28-3.44-25.84-4-38a121.31,121.31,0,0,1,.4-17.84l.21-2.18.32-2.15c.22-1.43.4-2.89.73-4.22l.43-2c.13-.68.37-1.35.54-2l.57-2c.19-.68.46-1.34.68-2a13.47,13.47,0,0,1,1-2.38c.28-.36.33-.24.07.55s-.53,1.7-.79,2.54c-.13.42-.27.84-.38,1.26l-.31,1.28c-.2.84-.4,1.68-.61,2.52s-.28,1.68-.43,2.51c-.33,1.62-.44,3.43-.64,5.14l-.14,1.3-.07,1.31-.13,2.62a137.78,137.78,0,0,0,1.11,21.38c.87,7.33,2.15,14.92,3.48,23.1s2.74,16.94,3.66,26.73c.16,1.44.27,2.92.37,4.4s.22,2.95.29,4.46l.19,4.52.07,4.53q0,9.09-.84,18.27a145.83,145.83,0,0,1-8.32,37c-1.17,3.08-2.46,6.17-3.93,9.23a100.1,100.1,0,0,1-4.93,9.17A91.88,91.88,0,0,1,166,258.56a76.26,76.26,0,0,1-19.14,14.15L144,274.12c-.95.48-2,.86-3,1.28s-2,.82-3.08,1.18l-3.22,1-1.63.48c-.55.14-1.12.25-1.68.38-1.13.25-2.27.48-3.41.71s-2.33.32-3.5.47l-3.84.4a61.8,61.8,0,0,1-16.24-1.74,54.7,54.7,0,0,1-15-6.15A53.24,53.24,0,0,1,77.09,262a54.91,54.91,0,0,1-8.74-13.38,48.18,48.18,0,0,1-2.86-7c-.44-1.33-.77-2.58-1.12-3.87s-.6-2.51-.8-3.69a75.06,75.06,0,0,1-1.23-13.43A100,100,0,0,1,63,208.73c.25-1.84.45-3.76.77-5.52l.46-2.7c.15-.92.3-1.63.46-2.45.59-3.18,1.31-6.43,2.07-9.64s1.62-6.36,2.36-9.13a84.25,84.25,0,0,0,2.73-13.35c.12-1.09.25-2.17.34-3.34s.2-2.33.28-3.54l.07-.9c0-.3,0-.44,0-.67l0-1.23c0-.4,0-.74-.06-1.11a8,8,0,0,0-.08-1c0-.32-.09-.64-.11-1s-.13-.54-.18-.81a4.29,4.29,0,0,0-.19-.73,3.81,3.81,0,0,0-.21-.65,9.19,9.19,0,0,0-1.08-2.09,32,32,0,0,0-2.88-3.76c-.73-.84-1.55-1.75-2.52-2.76l-.74-.77-.19-.19-.08-.09,0,0-.14,0a1.9,1.9,0,0,1-.46-.29c-.64-.19-1-.42-1.39-.29a.21.21,0,0,1-.12,0c-.05,0-.11.05-.16.06a.49.49,0,0,1-.27,0,.85.85,0,0,1-.35.1c-.05,0-.09,0-.16,0l-.21.08a2.9,2.9,0,0,1-.41.06l-.27.1,0,0-.16.1c-.11.08-.19.06-.33.19a3.1,3.1,0,0,1-.76.43c-1.09.64-2.46,1.3-4.09,2.25-.52.66-1.36.59-2.42,0a10.4,10.4,0,0,1-3.4-3,9.27,9.27,0,0,1-2-5.66l-.5.3-1,.16a5.25,5.25,0,0,1-3.26-.92l-1.48-.79c-2.51-1.75-5.43-2.66-8.16-4.4l-.6-1-.39-.1a6.26,6.26,0,0,1-3.16-1.4L27.59,126a13.2,13.2,0,0,1-2.07-4.31,5.14,5.14,0,0,1-1-1.49A6.76,6.76,0,0,1,21.23,117a.93.93,0,0,1-.8-1.16,1.22,1.22,0,0,1,.27-.53h0a8.61,8.61,0,0,0-1-.3c-.38.17-.61.25-.61.25-.94.51-.95.51-1.79.93a5.17,5.17,0,0,1-1.76,0c-2.4-1.27-2.41-1.25-3.06-2.15,0-.11-.06-.23-.08-.34-.8.22-.86.24-1.09.29a2.53,2.53,0,0,1-.56-.07c-.43-.4-.43-.4-.68-.47a2,2,0,0,1-.33-.29c-.15-.76-.14-.76-.27-.9a2.17,2.17,0,0,1,0-.39c.24-.47.33-.66.37-.74l1.84.4-.18-.54.66.35-.54-.38.66-.06h-.84a5.79,5.79,0,0,0,1.48-1,2.51,2.51,0,0,0,.72-.75,1.69,1.69,0,0,1-.26-.22,18.75,18.75,0,0,1,2.4-1.33,3.59,3.59,0,0,1,.52.13.63.63,0,0,1,.38-.57l.62-.33.07-.16,0,0c.11-.24.2-.41.29-.6l.05-.13h0l1.3-2.59a6,6,0,0,1,1.14-.45l-.45,0c-.3,0-.46-.61-.59-.58a27.51,27.51,0,0,0-4.61,1.74c-.75.35-1.52.72-2.26,1.12L10,106.24a1.1,1.1,0,0,1-1.41.27.9.9,0,0,1,.09-1.33A19.86,19.86,0,0,1,10,102.74a17.76,17.76,0,0,1,1.77-2.22,25,25,0,0,1,4.41-3.84,33.81,33.81,0,0,1,5.35-2.75A18.11,18.11,0,0,1,24.43,93c1-.25,1.94-.45,2.9-.61s1.83-.65,2.8-.92l2.9-.81-.37-.15,1.59-.19.16,0-1.47-.5-.88,0c-1.11.36-2.27.61-3.36.9s-2.17.55-3.28.8l-3.36.76c-1.1.28-2.16.62-3.24,1-2.3.82-4.7,1.09-6.9,1.88-.5.3-1,.25-1.24-.13s.08-.92.58-1.22c5.84-5,14.55-9,22-8a8,8,0,0,1,2.07-.53,7.5,7.5,0,0,1,2.07.07h.07l-1.15-.53c1.14-.13,1.92.35,3,.34-.22-.31-.47-.67-.7-1,1.38-.21,2.71-.55,4.14-.76S45.54,83,47,82.84c.72-.08,1.42-.16,2.13-.21s1.44,0,2.15,0a22.21,22.21,0,0,1,4.14.53,6,6,0,0,1,.61,0,22.26,22.26,0,0,1,3.46-1.14l.93-.2a2.2,2.2,0,0,1,.29,0l1.5,0c.51,0,1,0,1.51,0l1.55.12c2.07.2,4.17.34,6.31.74s4.3.91,6.48,1.52c-1.46-.46-2.93-.83-4.41-1.21a36.46,36.46,0,0,0-4.43-1c-1.47-.22-3-.43-4.45-.62l-1.13-.13-1.1-.06-1.94-.08h.91l1.2,0a22,22,0,0,1,2.42.09c1.62.12,3.25.27,4.88.44a23.57,23.57,0,0,1,2.45.4l2.46.5a37.83,37.83,0,0,1,4.89,1.27q2.43.8,4.85,1.7c1.59.67,3.15,1.45,4.71,2.22.78.4,1.57.79,2.34,1.22l2.23,1.41c1.47,1,3,1.93,4.38,3,1.85,1.53,3.73,3.08,5.46,4.75s3.3,3.51,4.79,5.24c2.17,2.74,4.39,5.76,6.53,9.09a76.35,76.35,0,0,1,5.86,11.05,62.07,62.07,0,0,1,3.86,12.34c.45,2.07.7,4.1.93,6.09.11,1,.15,2,.21,2.92s.11,1.92.09,2.83c0,1.83,0,3.62-.2,5.28-.07.83-.15,1.65-.22,2.46s-.22,1.55-.33,2.3-.24,1.49-.36,2.21-.29,1.37-.44,2-.3,1.31-.45,2-.31,1.09-.46,1.63q-.47,1.53-.93,2.91c-.32.93-.64,1.81-1,2.62-.24,1.53-.58,3.13-.87,4.69s-.67,3.17-1.08,4.76c-.76,3.18-1.7,6.39-2.63,9.26-1.89,5.82-3.44,10.22-4.73,14.92-.31,1.18-.64,2.34-.93,3.54l-.45,1.79c-.15.62-.24,1.09-.37,1.64l-.35,1.6-.28,1.56c-.22,1.06-.32,2-.47,3.05a44.35,44.35,0,0,0-.35,5.53,21.81,21.81,0,0,0,.39,4.13,8.76,8.76,0,0,0,.35,1.25l.25.65.14.34,0,0s-.08-.21,0-.15v0l0,0,.09.16a5,5,0,0,0,.33.65,9.5,9.5,0,0,0,1.78,2.26,9.78,9.78,0,0,0,5.07,2.48c.47.09.94.1,1.41.15s.94-.05,1.41,0a7.81,7.81,0,0,1,.83-.09h.49a4.8,4.8,0,0,0,.5-.09,14.24,14.24,0,0,0,2-.4,27.67,27.67,0,0,0,8.82-4.09,10.72,10.72,0,0,1,1.73-1.09,3.3,3.3,0,0,1,1.11-.44c.14.05.06.29-.22.65a7.92,7.92,0,0,1-1.39,1.23,32.18,32.18,0,0,1-6.54,3.89,23.63,23.63,0,0,1-6.35,1.74l-.38,0-.31,0a1.79,1.79,0,0,1-.6.05,9.41,9.41,0,0,0-1.17.07,14.29,14.29,0,0,1-2.34-.24,11.42,11.42,0,0,1-4.4-1.86,11,11,0,0,1-3.26-3.61c-.11-.18-.18-.37-.28-.55l-.08-.14,0-.07v0h0l0,.12,0-.07-.3-.72a9.66,9.66,0,0,1-.4-1.1,16.72,16.72,0,0,1-.54-2.81,36.45,36.45,0,0,1,.09-8l.29-2.27.39-2.35c.33-1.61.61-3.11,1.07-4.95-.19.71-.43,1.51-.58,2.15l-.51,2c-.18.67-.28,1.31-.43,2s-.29,1.3-.38,1.93a45.51,45.51,0,0,0-.79,7.25,24,24,0,0,0,.45,5.51,8.08,8.08,0,0,0,.27,1l.15.4.14.36.05.12,0,.06c0,.09-.08-.2,0-.11l0,.06.22.53c.12.36.35.68.49,1s.37.68.61,1a12.71,12.71,0,0,0,7.52,5.16,18.25,18.25,0,0,0,2.33.38c.39,0,.79,0,1.19,0,.19,0,.39,0,.59,0l.63-.05a12.42,12.42,0,0,0,1.46-.09c.5-.08,1-.15,1.51-.21s1-.25,1.54-.35l.78-.18.79-.26a30.42,30.42,0,0,0,6.41-3.07c.52-.34,1-.66,1.58-1l1.57-1.09c.53-.33,1-.73,1.56-1.13s1-.76,1.55-1.17a55.61,55.61,0,0,0,7-7.45c.52-.7,1.08-1.35,1.57-2.08l1.47-2.16c.93-1.52,1.91-3,2.75-4.63s1.67-3.24,2.49-4.89,1.53-3.36,2.17-5.12a99.85,99.85,0,0,0,3.56-10.77,132.14,132.14,0,0,0,4.06-23c.32-4,.53-8,.55-12,0-2,0-4.1-.07-6.17s-.13-4.18-.27-6.32c-.79-14.59-2.59-28.89-3.08-44a172.37,172.37,0,0,1,.67-23.34c.15-2,.49-4,.77-6.08s.7-4.09,1.11-6.16,1-4.2,1.54-6.35c.27-1.08.62-2.13,1-3.19s.71-2.11,1.07-3.17a92.74,92.74,0,0,1,19.16-31.29c1.08-1.1,2.09-2.26,3.24-3.29L194,15.91a78,78,0,0,1,7.58-5.59A63.26,63.26,0,0,1,219.1,2.26a40.39,40.39,0,0,1,4.8-1.14l2.43-.48c.82-.13,1.66-.2,2.49-.29a39.71,39.71,0,0,1,5-.34h3.76l1.25.1A58.15,58.15,0,0,1,258,4.65a70.32,70.32,0,0,1,16.35,9.74c1.2,1,2.46,1.95,3.59,3l3.39,3.19c2.11,2.24,4.25,4.49,6.12,6.91l1.51,1.88c.48.63.9,1.27,1.32,1.88.83,1.22,1.6,2.37,2.22,3.4a17.09,17.09,0,0,1,1.87,4c0,.9-2.6-2.87-6.46-8a87.65,87.65,0,0,0-13.25-13.59A69.49,69.49,0,0,0,257.88,7a58.36,58.36,0,0,0-19.8-4.56c-1.72-.09-3.45,0-5.17,0s-3.44.31-5.15.49a58.11,58.11,0,0,0-9.93,2.35,65.6,65.6,0,0,0-17.67,9.06,79.91,79.91,0,0,0-14,13.12A86.08,86.08,0,0,0,175.68,43a92.78,92.78,0,0,0-7.11,17.43c-.4,1.54-.85,3.09-1.2,4.61l-.92,4.52c-.34,1.5-.48,3-.73,4.52s-.45,3-.57,4.51a158.32,158.32,0,0,0-.85,17.84c.07,11.74,1.08,23.09,1.93,34.18.43,5.53.8,11,1.05,16.41s.28,10.72.06,16a137.44,137.44,0,0,1-4.75,31.08,114.14,114.14,0,0,1-4.3,12.5,86.38,86.38,0,0,1-5.75,11.32c.14,0,.27-.09.35,0,.32.18.2,1-.25,2.34A98.93,98.93,0,0,0,164.46,193a143,143,0,0,0,3.21-21.3,181.54,181.54,0,0,0,.28-22c-.59-15.08-2.54-31-2.69-48.24A174.47,174.47,0,0,1,166,83.76c.12-1.45.35-2.91.53-4.36l.28-2.16c.11-.72.25-1.44.38-2.16.26-1.44.5-2.87.79-4.29s.68-2.84,1-4.25a88,88,0,0,1,6-16.51,94.1,94.1,0,0,1,9.1-14.74,79.19,79.19,0,0,1,15.07-16.21,62.28,62.28,0,0,1,20-10.94A53.07,53.07,0,0,1,242.58,6a58.94,58.94,0,0,1,21.8,7.91,10.6,10.6,0,0,1,2.41,1.67c.3.32-.28,0-1.31-.64a64.63,64.63,0,0,0-14.55-6.42,52,52,0,0,0-16.18-2.11l-2.06,0c-.69,0-1.37.15-2.05.22L228.58,7l-1,.12-1,.22-4,.89c-1.31.36-2.59.83-3.89,1.25a58.12,58.12,0,0,0-14.34,7.39,26.6,26.6,0,0,1,3.59-1.63c.88-.25,1.37-.26,1.36,0s-.54.76-1.4,1.56-2.11,1.8-3.63,3l2.94-1.91,1.47-.94,1.56-.83c1-.54,2.06-1.1,3.11-1.63l3.26-1.36A18.33,18.33,0,0,1,220.09,12c.9-.2,1.46-.27,1.45-.15s-.53.41-1.38.76-2.06.73-3.3,1.3l-3.27,1.38-3.12,1.65c-.51.28-1.05.54-1.55.85l-1.48.95c-1,.65-2,1.25-2.93,1.94A69.73,69.73,0,0,0,199.06,25c-.85.79-1.77,1.52-2.57,2.36l-2.42,2.5a78.66,78.66,0,0,0-8.51,10.94A82.61,82.61,0,0,0,179,53a77.54,77.54,0,0,0-4.83,15.9,111.9,111.9,0,0,0-2,16.23L172,89.21l-.05,4.05c0,1.35,0,2.69,0,4s0,2.69.1,4c.2,5.36.56,10.69,1,16a23.23,23.23,0,0,1,.89-6.24h0c-.09-1.65-.19-3.29-.28-4.94l-.2-4.93a153.05,153.05,0,0,1,.36-22.84c.2-1.92.48-3.83.72-5.74s.7-3.82,1.05-5.73.91-3.81,1.46-5.7l.9-2.8.46-1.4.54-1.37A83.75,83.75,0,0,1,190.36,35,70.33,70.33,0,0,1,207.82,18.7l1.26-.83c.44-.26.89-.5,1.33-.74l2.68-1.46c.89-.5,1.86-.85,2.79-1.27s1.86-.85,2.83-1.17l2.93-1,1.47-.46,1.51-.33,3-.63c1-.21,2-.26,3.08-.39a49.3,49.3,0,0,1,6.2-.25c1,0,2.06.16,3.1.24l1.54.13c.52.07,1,.18,1.53.26l3.05.56,3,.82,1.49.42,1.44.54,2.88,1.1a65.49,65.49,0,0,1,20,13.8,87,87,0,0,1,14.26,19.29,7.51,7.51,0,0,1,1,2.09A6.56,6.56,0,0,1,289,47.75l-1.76-3.15-1.94-3-1-1.52-1.07-1.46-2.13-2.92a82.11,82.11,0,0,0-9.94-10.58,67.7,67.7,0,0,0-12-8.36,55.8,55.8,0,0,0-13.84-5.09l.07,0c.78.21.89.35,0,.26a27,27,0,0,1-3-.56c-.89-.23-.79-.33-.05-.26a49.29,49.29,0,0,0-13.83,0c-1.14.18-2.26.46-3.39.68l-1.68.36c-.56.13-1.1.34-1.65.5l-3.28,1.06c-1.06.43-2.1.9-3.15,1.35l-1.57.68-1.5.81-3,1.65L206.49,20c-.47.32-1,.62-1.41.95l-1.33,1c-.88.7-1.77,1.39-2.64,2.1l-2.47,2.28c-.41.38-.83.75-1.23,1.14l-1.15,1.22L194,31.21l-2.12,2.58-1.06,1.29-1,1.35-1.93,2.7-1.77,2.81c-1.22,1.84-2.18,3.83-3.25,5.76-.51,1-1,2-1.42,3s-.94,2-1.32,3l-1.2,3.07c-.4,1-.69,2.08-1,3.12-.73,2.08-1.19,4.24-1.74,6.36s-.84,4.27-1.2,6.41-.61,4.28-.77,6.43c.17-2,.55-4,.81-6s.77-3.94,1.15-5.92c.2-1,.51-2,.76-2.94s.48-2,.82-2.92c.67-1.91,1.24-3.86,2.05-5.71l1.15-2.8,1.31-2.74c.83-1.84,1.86-3.58,2.84-5.34.47-.9,1-1.74,1.58-2.59l1.64-2.55,1.8-2.44c.6-.81,1.17-1.65,1.84-2.41a68.64,68.64,0,0,1,18.22-16,50.7,50.7,0,0,1,23.3-6.95,42,42,0,0,1,5.38-.08l2.7.15,2.7.4c.49.08,1.05.19,1.54.31a6.2,6.2,0,0,1,1.06.39c.24.18-.47,0-1.47-.14l-3-.45,2.2.44a14.39,14.39,0,0,1,2,.51c1.25.41,2.35.79,3.26,1.14,1.76.83,2.74,1.47,2.6,1.69-.53.43-5.4-1.29-11.53-2a47.92,47.92,0,0,0-12.32.24l-3,.65-1.51.32-1.46.47-2.94.95c-1,.39-1.88.81-2.83,1.21a60,60,0,0,0-19.66,14.52,25.47,25.47,0,0,0-1.72,2l-1.67,2.08c-1.05,1.45-2,3-3,4.45a70.56,70.56,0,0,1,12.77-14,55.26,55.26,0,0,1,16.21-9.48l4.48-1.38,4.58-.91c1.56-.12,3.1-.36,4.65-.39H237l1.16.12a47.11,47.11,0,0,1,17.75,5.1,14,14,0,0,1,2.4,1.39c.6.41,1,.71.94.8s-.43,0-1.06-.32l-1.09-.54-.63-.33-.7-.32a46.38,46.38,0,0,0-15.37-4.41,42.4,42.4,0,0,0-15.77,1.41c-10.25,3-19.21,9.61-26.23,17.78A77.23,77.23,0,0,0,183.3,64.07l-1,3.91-.75,4c-.28,1.34-.42,2.7-.6,4.06s-.38,2.7-.47,4.08A142.41,142.41,0,0,0,180,96.69c1.17,14.61,4.07,29.19,6.23,44.63-.12-2-.29-3.92-.44-5.89-.53-6.23-1.16-12.27-1.76-18.16s-1.1-11.62-1.44-17.26-.41-11.16-.22-16.61a104,104,0,0,1,1.88-16,68.64,68.64,0,0,1,4.91-15,74.81,74.81,0,0,1,8.18-13.81A60.38,60.38,0,0,1,208.7,27a48.12,48.12,0,0,1,14.46-7.78,5.47,5.47,0,0,1,2.13-.49c.07,0-.08.11-.37.22s-.72.3-1.26.48a46.75,46.75,0,0,0-14,7.38A62.64,62.64,0,0,0,198.6,37.84,73.41,73.41,0,0,0,185.11,66.1a93.64,93.64,0,0,0-2,13.14,130.08,130.08,0,0,0-.28,13.24,246,246,0,0,0,2.35,26.36c-.88-9-1.64-17.76-1.74-26.33a110,110,0,0,1,2.18-25l.69-3,.88-2.92a29.84,29.84,0,0,1,1-2.89c.37-1,.68-1.93,1.09-2.87.83-1.87,1.61-3.78,2.6-5.58s2-3.6,3-5.38a68.13,68.13,0,0,1,7.48-9.83c1.34-1.58,2.91-2.9,4.38-4.36l2.37-1.95c.41-.32.79-.66,1.2-1l1.27-.86a14.43,14.43,0,0,1,3.24-1.92,2.34,2.34,0,0,1,.63-.51l1.31-.84.66-.42.71-.35,2.89-1.45a40.83,40.83,0,0,1,6.32-2.14,8.4,8.4,0,0,1,2.38-.38C230.22,19,229.71,19.09,228.79,19.38Zm-197,83.9-.25-.1.7,0,1.37.85Zm-5.87,9.63h0l-.82-.36Zm79.72,114.41a27.46,27.46,0,0,1-.23-4.6c0-.81.1-1.72.14-2.58s.17-1.79.32-2.72a85.46,85.46,0,0,1,2.7-11.79c.6-2.08,1.24-4.11,2-6.16s1.45-4.11,2.28-6.35c1.65-4.38,3.57-9.79,5-15.12a150.09,150.09,0,0,1-4.2,15c-1.25,3.4-2.36,6.41-3.37,9.5-.51,1.54-1,3.09-1.45,4.66l-.68,2.37-.58,2.19a67.61,67.61,0,0,0-1.65,8.38A36.76,36.76,0,0,0,105.59,227.32ZM22.76,102.45a11.64,11.64,0,0,1,3.48.8,5.51,5.51,0,0,1,1.61-1.2,52.08,52.08,0,0,1,5.06-2c-.42-.33,0-.47.16-.62a4.31,4.31,0,0,1,.56-.39c-1.88.5-3.73,1.08-5.69,1.63a23,23,0,0,0-2.6.94A23.17,23.17,0,0,1,22.76,102.45Zm-9.22,9.42-.24,0-.24-.78Zm.44,1.28.26-.09C14.36,113.32,14.23,113.31,14,113.15Zm2.39-.86a1.37,1.37,0,0,0-.51-.08Zm15.22,15.58c-.61-1.08-1.21-2.18-1.8-3.28.54,1.08,1.09,2.14,1.66,3.21Z"/><path d="M164.86,136.8l.63.12a1.66,1.66,0,0,1-1.12.67,14.62,14.62,0,0,0,8.33-2.19,26.21,26.21,0,0,0,3.43-2.5,23.8,23.8,0,0,0,2.8-2.91c1.58-.36,2.66-1.53,2.43-2.65s-1.77-1.76-3.44-1.41a6.33,6.33,0,0,1-1.2-.1,25,25,0,0,0-9.93-.84l2.3.26a11.31,11.31,0,0,0-3.08.49l.64.46c-3.82-.25-7.87,2.11-8.65,5.13s1.69,5.37,5.25,5.4C163.79,136.75,164.31,136.76,164.86,136.8Z"/><path d="M173.22,140.7l-5.8-.1-.51-.22,1,1.58,0-.12c.65-2,2.71-3.74,4.8-5l.69-.57a1.38,1.38,0,0,0,.31-1.17c-.18-.87-1.25-1.33-2.4-1l-1.33.35a12.85,12.85,0,0,0-5.48,1.8,5.14,5.14,0,0,0-2.73,4.31c0,.81.86,1.45,1.39,2.15a2.73,2.73,0,0,0,3.57.87c1.39-.66,2.15-2,1.65-3.15l.85-.11-.35.65c-.13-1.12,1.06-1.94,1.78-2.88.44-.31.91-.59,1.36-.89l-2.14-2.2c-.22.22-.43.44-.63.67.12.09.32.19.31.21a33.42,33.42,0,0,1-3.48,3.86l-1.41,1.92a1.21,1.21,0,0,0,1.07,1.57l1.17.1-.57-.12,3.41-.74c1.14-.24,2.26-.49,3.39-.62a.74.74,0,0,0,.73-.6C173.89,140.92,173.6,140.68,173.22,140.7Z"/><path d="M166.49,144.35a1.83,1.83,0,0,0-1.26.21l-.07.3.87.11C166.65,145,166.73,144.69,166.49,144.35Z"/><path d="M165.16,144.86l-.37-.05.32.15,0-.05Z"/><path d="M255.39,139.68a133.83,133.83,0,0,1,15.31,11.24c.15.14.34.18.41.09s0-.27-.15-.39a131.47,131.47,0,0,0-15.31-11.32c-.19-.12-.38-.12-.46,0S255.22,139.56,255.39,139.68Z"/><path d="M283,176.38c-.14,0-.21,0-.18.17a.58.58,0,0,0,.31.34c.12,0,.21,0,.18-.18A.56.56,0,0,0,283,176.38Z"/><path d="M276.5,180.81a8.86,8.86,0,0,0-1.85-1,.49.49,0,0,1-.24-.23c-.08.14-.29.15-.53,0-4.66-2.5-9.25-5.33-14.06-7.44a1.16,1.16,0,0,1-.44.24,2.16,2.16,0,0,1-1.88-.43l-.41-.38c-1.76-1.33-3.58-2.58-5.41-3.8a4.81,4.81,0,0,1-1.58-.31l-3-.33-3-.3a.69.69,0,0,1,0,.51,1,1,0,0,1-1.21.36c-.24-.08-.48-.14-.72-.21.64.29,1.26.67,1.88,1a.67.67,0,0,1,.24.16l2.25.82A177.42,177.42,0,0,1,267,177.26a.39.39,0,0,1,.29.28.16.16,0,0,1-.23.15c-4.82-1.41-9.58-1.45-14.48-2.44a73,73,0,0,0-16.79-1.41c-.65-.12-1.29-.21-1.92-.3s-1.28-.07-1.91-.1a28.92,28.92,0,0,0-3.74.18A42.55,42.55,0,0,0,221,175.3c-1.77.55-3.45,1.15-5.06,1.76-2.21.86-4.31,1.68-6.32,2.7-1,.43-2,1-3,1.49s-1.94,1.06-2.87,1.7a2.77,2.77,0,0,1-1.47.69,2.68,2.68,0,0,1-1.58-.21,6.63,6.63,0,0,1-3-3,8.19,8.19,0,0,1-.8-5.87l-.61.27-1.08.15a4.36,4.36,0,0,1-3.14-1l-1.32-.95a27.64,27.64,0,0,0-3.5-2.67,25.83,25.83,0,0,1-3.62-2.73l-.37-1.12-.36-.17a6.12,6.12,0,0,1-2.83-2l-.63-1.26a12.63,12.63,0,0,1-1.12-4.55,4.6,4.6,0,0,1-.62-1.61,6.62,6.62,0,0,1-2.6-3.81.91.91,0,0,1-.55-1.26,1.16,1.16,0,0,1,.38-.44h0a9.73,9.73,0,0,0-.93-.51c-.41.07-.65.09-.65.09-1.06.25-1,.28-1.95.5a5.38,5.38,0,0,1-1.71-.4c-2.09-1.73-2.11-1.73-2.55-2.73a1.93,1.93,0,0,1,0-.34L166,148a3.16,3.16,0,0,1-.53-.19c-.34-.48-.34-.48-.57-.6a2.27,2.27,0,0,1-.26-.36c0-.75,0-.75-.08-.92a1.42,1.42,0,0,1,0-.38c.32-.4.45-.55.51-.62l1.72.8-.07-.55.57.48-.45-.48.66.09-.82-.2a5.39,5.39,0,0,0,1.65-.64,2.86,2.86,0,0,0,.86-.52c-.13-.16-.21-.28-.21-.28,1.33-.36,1.33-.36,2.63-.68a5.14,5.14,0,0,1,.47.23.61.61,0,0,1,.46-.46l.66-.19.1-.13,0-.05.4-.48.08-.11h0l1.76-2.09a8.6,8.6,0,0,1,1.18-.17l-.42-.12c-.29-.1-.33-.66-.46-.67a27.91,27.91,0,0,0-4.78.55c-1.58.35-3.17.77-4.76,1.19a1.14,1.14,0,0,1-1.43-.08.84.84,0,0,1,.36-1.23,18.5,18.5,0,0,1,3.94-3.58,24.82,24.82,0,0,1,4.94-2.48,28.26,28.26,0,0,1,11-1.55c1.82-.14,3.6-.39,5.41-.51l-.32-.2,1.46.11h.15l-1.27-.7-.8-.12a50.34,50.34,0,0,1-6.27.27c-2.08.06-4.26,0-6.39.21-2.31.21-4.53,0-6.83.13-.54.15-1.05,0-1.17-.42s.25-.8.78-.95a32,32,0,0,1,5.18-2.07,32.88,32.88,0,0,1,5.54-1.25,27.11,27.11,0,0,1,5.53-.21,19.35,19.35,0,0,1,5.11,1A7.06,7.06,0,0,1,195,127H195l-1-.64a21.09,21.09,0,0,1,2.55.75l-.53-1c2.4,0,4.87-.1,7.28-.11a35,35,0,0,1,3.58.27c.59.07,1.17.16,1.74.28a16.12,16.12,0,0,1,1.68.48c.17,0,.33.06.5.09a16.75,16.75,0,0,1,3.69-1.05,11.73,11.73,0,0,1,2.09-.13l-2.11-.45h0a13.88,13.88,0,0,1,4.7-.27,20.14,20.14,0,0,1,6.59,2,11.78,11.78,0,0,1,4.59,3.78,103.9,103.9,0,0,1,23.4,7.37c.39.16.65.49.62.75s-.4.33-.78.17a151.06,151.06,0,0,0-16.74-4.86c4.63,1.86,9,4,13.43,6.13l1.72.72a8.6,8.6,0,0,1,1.6.94c5.5,2.88,10.31,6.12,15.51,9.43a142.71,142.71,0,0,1,12.23,8.82,68.58,68.58,0,0,1,14.44,15.34c.57.77.79,1.71.5,2.07s-1,.06-1.57-.69a114.93,114.93,0,0,0-15.65-15.54A215.3,215.3,0,0,0,260.7,148.3c-1.45-.89-2.85-1.83-4.31-2.67a1.09,1.09,0,0,1-.07.24,1.18,1.18,0,0,1-.77.6c1.64.95,3.17,2.1,4.72,3.19a46.07,46.07,0,0,1,13.36,8.76,56.29,56.29,0,0,1,6.78,8.41,94.73,94.73,0,0,1,9.18,9.29.46.46,0,0,1,.18.4c0,.11-.16.1-.29,0-2.26-2-4.55-4.09-6.93-6.09a1.32,1.32,0,0,1-.32,1.34,1.53,1.53,0,0,1-1.49.1c.46.51.94,1,1.38,1.53.27.33.36.7.2.84s-.53,0-.79-.28c-.94-1-1.9-2-2.85-3.05s-2-2-2.95-3c-1.28-1.07-2.65-2.05-4-3.08s-2.72-1.94-4.09-2.89a2.57,2.57,0,0,1,0,1.55h0l1.22.93a65.7,65.7,0,0,1,20.88,19.47c.12.16.15.33.08.39s-.23,0-.32-.15c-.86-1.19-1.72-2.36-2.61-3.52s-1.87-2.24-2.82-3.34v0c0,.13,0,.22-.17.17a.65.65,0,0,1-.31-.34c0-.15.06-.21.18-.17a63.06,63.06,0,0,0-12.23-10.43,71.46,71.46,0,0,1,10.44,10.28l1.35.95a.43.43,0,0,1,.16.39c0,.08-.18.07-.29,0l-.37-.28c.58.73.71,1.56.32,1.88s-1.23,0-1.86-.73c-.89-.9-1.78-1.79-2.66-2.69L276,173.71l-.65-.5-.78-.35a99.79,99.79,0,0,1,7.52,8.84c.22.25.29.55.16.68s-.43,0-.65-.22a127.38,127.38,0,0,0-15.93-12.44c-1.17-.28-2.31-.58-3.49-.8l-3.54-.62.68.47c1.48.94,3,1.72,4.5,2.51l4.54,2.26c1.52.75,3,1.61,4.47,2.48a37,37,0,0,1,4.2,3.11.31.31,0,0,1,.13.36c-.06.08-.21.06-.34-.07a34.74,34.74,0,0,0-4.16-2.92c-1.46-.83-2.91-1.64-4.42-2.46a45.07,45.07,0,0,0-7.43-3.34c4.44,2.6,9.11,4.9,13.28,8.18a.81.81,0,0,1,.37.49.27.27,0,0,1,.2,0,10.69,10.69,0,0,1,1.95,1.07.37.37,0,0,1,.2.35C276.78,180.88,276.65,180.89,276.5,180.81Zm-88.81-38.6-.22-.14.66.14,1.18,1Zm-7.29,7.95h0l-.73-.51Zm60.72-12.92c-1.64-.55-3.27-1.15-4.91-1.77s-3.27-1.3-4.93-2c.85.1,1.68.26,2.52.42A70.14,70.14,0,0,1,241.12,137.24Zm-61.8,2.55a12.5,12.5,0,0,1,3.17,1.42,5.31,5.31,0,0,1,1.75-.77,34.87,34.87,0,0,1,5.07-1c-.35-.38.05-.43.23-.53l.58-.27-2.77.21-2.81.27c-.85.1-1.74.21-2.61.35A21.52,21.52,0,0,1,179.32,139.79Zm-10.72,6.79-.22-.08-.08-.79S168.43,146.07,168.6,146.58Zm.18,1.32.27,0C169.11,148.15,169,148.1,168.78,147.9Zm2.51-.29a2.09,2.09,0,0,0-.49-.2Zm11.71,18-1.1-3.56,1,3.46Z"/><path d="M132.76,292.45l0,.26a.49.49,0,0,1-.43-.25c.63,2.37,3.21,3.24,5.43,3.08a1.1,1.1,0,0,0,1.49-1.61,1.62,1.62,0,0,1-.17-.41A8.26,8.26,0,0,0,138,290l.22.84a2.81,2.81,0,0,0-.64-.88l-.1.34a2.54,2.54,0,1,0-4.84,1.52Z"/><path d="M132.32,296.53c-.3-.73-.57-1.47-.82-2.22l0-.24-.54.76.05,0a4.47,4.47,0,0,1,2.85.54l.35.11a.82.82,0,0,0,.6-1.36l-.35-.37c-.65-1.18-2.17-2.39-3.68-1.57-.34.19-.51.64-.75,1a1.11,1.11,0,0,0,.09,1.57,1.12,1.12,0,0,0,1.58-.09l.17.3-.33,0c.46-.32,1-.07,1.48,0l.59.26.6-1.35-.37-.05c0,.06,0,.16-.05.17a10,10,0,0,1-2.12-.34l-1-.11a.68.68,0,0,0-.53.76l.11.48,0-.25c.49.79,1.1,1.51,1.57,2.31a.28.28,0,1,0,.5-.26Z"/><path d="M129.76,294.79a.61.61,0,0,0-.26-.45l-.13,0,.06.36C129.48,295,129.65,295,129.76,294.79Z"/><path d="M129.37,294.38l0-.16,0,.16h.05Z"/><path d="M154.47,310.51a38.24,38.24,0,0,0,2.89,3.07s.11,0,.16-.07.07-.14,0-.17a39.9,39.9,0,0,1-2.87-3.08s-.11,0-.17.06A.22.22,0,0,0,154.47,310.51Z"/><path d="M157.25,323.85a.24.24,0,0,0-.13.18c0,.06,0,.1.09.07a.29.29,0,0,0,.13-.18C157.36,323.85,157.31,323.82,157.25,323.85Z"/><path d="M152.75,329.18a1.8,1.8,0,0,0-.75.07c-.05,0-.07,0-.07-.06a.42.42,0,0,1-.28.21,15.23,15.23,0,0,1-4.83-.84,1.09,1.09,0,0,1-.25.23c-.3.22-.58.25-.7.07l-.07-.17c-.38-.56-.79-1.08-1.16-1.65a.82.82,0,0,1-.54,0,13.73,13.73,0,0,1-2-.08.92.92,0,0,1-.17.3c-.19.24-.44.34-.55.24l-.2-.13c.13.2.26.4.38.6a.3.3,0,0,1,0,.1,4.25,4.25,0,0,0,.59.43,15.23,15.23,0,0,0,6.66,1.63c.06,0,.09,0,.07.09s-.09.15-.15.16c-2,.44-4.08,1.37-5.85,1.29a31.17,31.17,0,0,1-6-.8c-1.46-1.13-3.26-1.59-5.09-2.31-.62-.24-1.2-.51-1.77-.79a1.32,1.32,0,0,1-.25-.15l-.38-.24-.77-.5-1.5-1c-2-1.37-3.9-2.79-5.85-4.26a3.32,3.32,0,0,1,1.36-6.17l-.34-.29-.42-.61a2.86,2.86,0,0,1-.47-2l.08-.91c.37-1.55.27-3.16.78-4.69l.44-.38v-.21a2.93,2.93,0,0,1,.32-1.72l.46-.52a7,7,0,0,1,1.87-1.38,2.48,2.48,0,0,1,.61-.6,3.45,3.45,0,0,1,1.24-1.92.48.48,0,0,1,.73-.43h0c0-.2,0-.26.07-.49l-.15-.25-.53-.72a2.33,2.33,0,0,1-.08-.8c.46-1.21.46-1.21.83-1.59l.15-.08a4,4,0,0,1-.16-.44,1.17,1.17,0,0,1,0-.25c.16-.24.16-.24.19-.35a1,1,0,0,1,.12-.18c.33-.15.33-.15.39-.22a.85.85,0,0,1,.17-.06l.34.07c-.12.84-.13.85-.13.85l.23-.15-.13.33.15-.28.05.28,0-.37c.33.41.33.41.5.52a.82.82,0,0,0,.35.22,1.1,1.1,0,0,1,.09-.14c.35.42.35.42.69.85q0,.13,0,.24a.25.25,0,0,1,.27.07l.18.22h.08v0l.28,0H132l1.19.12a3.51,3.51,0,0,1,.27.4l0-.19c0-.14.22-.3.2-.35a16.33,16.33,0,0,0-2.2-3.15.42.42,0,0,1-.15-.56.42.42,0,0,1,.57-.15,9,9,0,0,1,6.54,5c.45.54.92,1,1.39,1.57v-.17l.29.49,0,0v-.64c0-.1-.09-.19-.13-.29a25.59,25.59,0,0,1-2.71-4,22.35,22.35,0,0,1-1.16-2.29.39.39,0,0,1,0-.53.37.37,0,0,1,.52,0c2.28,1.32,4.43,3.4,5,6a2.11,2.11,0,0,1,.76,1.17l0,0,0-.52c.22.31.16.69.32,1l.26-.53c1.17,1.36,2.77,2.4,3.55,4.05a1,1,0,0,1,.12.16,9,9,0,0,1,2,.46c-.08-.14-.16-.27-.23-.41a1.35,1.35,0,0,1,1,.28,3.09,3.09,0,0,1,.38,3.37,49.57,49.57,0,0,0,4.53,2.64c.09,0,.08.18,0,.32s-.25.23-.33.2a16.43,16.43,0,0,1-3.69-1.38,14.82,14.82,0,0,0,2.14,2.46l.37.19a.77.77,0,0,1,.27.32,13,13,0,0,0,3.43,2.26,31.25,31.25,0,0,0,3.51,1.1,12.35,12.35,0,0,1,4.77,1.8c.21.09.18.46-.07.82s-.61.58-.82.48c-3.56-1.06-7.24-1.86-10-4.24l-.87-.77-.1.14a1.75,1.75,0,0,1-.47.44,9.66,9.66,0,0,1,.87,1,6.52,6.52,0,0,1,3.41,1.71A8.9,8.9,0,0,1,158,319.4c1,.43,2,.79,3,1.26.05,0,.06.07,0,.14a.21.21,0,0,1-.17.13,13.77,13.77,0,0,1-2.55-.33,2.59,2.59,0,0,1-1.28,1.55l.38.33c.08.08,0,.25-.07.4s-.3.24-.37.18l-1.6-1.35c-.79-.34-1.56-.7-2.32-1.08a3.41,3.41,0,0,1-.39.9h0l.32.22a13.86,13.86,0,0,1,6.62,3.22s0,.11,0,.18-.13.11-.16.08a11.87,11.87,0,0,0-1.75-1.33h0a.28.28,0,0,1-.14.18.06.06,0,0,1-.09-.06.28.28,0,0,1,.13-.18,14.58,14.58,0,0,0-3.86-1.62,17.1,17.1,0,0,1,2.92,2.3l.53,0s.05.08,0,.16-.12.12-.16.11h-.15c.17.17.08.58-.22,1s-.69.54-.87.38a18.65,18.65,0,0,1-1.65-1.07l-.21-.06-.31,0c.68.77,1.34,1.57,2,2.38.07,0,0,.2-.06.33s-.24.21-.31.16a27.94,27.94,0,0,1-5.11-2.14l-2.75.64.17.16c1.54,1.19,4.12.57,5.87,1.39,0,0,0,.09,0,.16s-.12.12-.16.09a17,17,0,0,0-3-.46,15.43,15.43,0,0,0-2.55-.28c1.26.73,2.9.86,4.27,1.42.08,0,.1.08.08.17a.3.3,0,0,1,.1-.07,2.39,2.39,0,0,1,.78-.07c.05,0,.07,0,0,.13A.27.27,0,0,1,152.75,329.18ZM134.47,302.4v-.13c0,.09.05.19.08.29l-.14.76Zm-5-.65h0l.08-.43Zm21.05,8.75a4.52,4.52,0,0,1-1.41-1.86l.5.25C150,309.4,150.27,309.93,150.56,310.5Zm-16.79-11.93a6,6,0,0,1,0,1.59,2.46,2.46,0,0,1,.69.42A18.17,18.17,0,0,1,136,302.1c.08-.25.19-.12.28-.09l.24.11c-.48-.59-1-1.2-1.43-1.83A15.6,15.6,0,0,1,133.77,298.57Zm-4.68-2.46V296l.33-.2Zm-.55.35.05.11C128.48,296.65,128.48,296.59,128.54,296.46Zm.49,1a.68.68,0,0,0,0-.24Zm-6,8.83,1.41-1.19-1.4,1.12Z"/></g></g></svg>