<svg xmlns="http://www.w3.org/2000/svg" viewBox="0 0 372.26 368.29"><g id="Layer_2" data-name="Layer 2"><g id="Layer_1-2" data-name="Layer 1"><path d="M174.92,111l.63-.07a1.5,1.5,0,0,1-.81,1,12.82,12.82,0,0,0,6.9-4.51,20.58,20.58,0,0,0,3.71-7c1.3-.86,1.84-2.32,1.2-3.3s-2.27-1.08-3.65-.2a5.81,5.81,0,0,1-1.1.29,24.54,24.54,0,0,0-9.32,2.19l2.18-.42a9.56,9.56,0,0,0-2.61,1.36l.75.24c-3.54.86-6.37,4.17-6.09,7.21s3.37,4.61,6.69,3.66Z"/><path d="M184,112.2c-1.8.57-3.59,1.08-5.42,1.62l-.54-.06,1.49,1.2-.07-.1c-.11-2.13,1.25-4.31,2.69-6.17l.44-.74a1.43,1.43,0,0,0-.13-1.19,1.84,1.84,0,0,0-2.59-.26l-1.08.73c-3.12,1.3-6.81,4.76-5.49,8.1.31.77,1.27,1.15,2,1.66a2.68,2.68,0,0,0,3.63-.18,2.47,2.47,0,0,0,.47-3.46l.75-.35c0,.23-.07.48-.11.72-.5-1,.32-2.16.67-3.25l.93-1.25-2.75-1.43-.33.82a2.36,2.36,0,0,1,.36.1,35.13,35.13,0,0,1-1.87,4.66l-.69,2.2a1.27,1.27,0,0,0,1.52,1.19l1.13-.24-.58,0c2-1.07,3.87-2.35,5.89-3.28a.71.71,0,0,0,.46-.8A.56.56,0,0,0,184,112.2Z"/><path d="M179,117.64a1.66,1.66,0,0,0-1.11.56c0,.17,0,.26,0,.3l.85-.15C179.35,118.25,179.31,117.89,179,117.64Z"/><path d="M177.89,118.5l-.35.06.34,0,0,0Z"/><path d="M362,242.12a105.2,105.2,0,0,1,7,21.55,122,122,0,0,1,2.63,21.69,110.67,110.67,0,0,1-1.43,22.25,86.11,86.11,0,0,1-7.21,22.9l-.67,1.42-.8,1.43-1.63,2.84-.83,1.4-.91,1.34c-.62.88-1.21,1.78-1.86,2.64a69.85,69.85,0,0,1-8.89,9.75,63.28,63.28,0,0,1-23.12,13.26,66,66,0,0,1-13,2.73c-1.09.1-2.19.2-3.28.27l-3.29.1c-2.13,0-4.22-.07-6.27-.25a94.13,94.13,0,0,1-22.49-4.83,12.92,12.92,0,0,0-3.49-.9c-.13.11,1.19.75,2.87,1.31a96.74,96.74,0,0,0,22.54,5c1,.08,2.07.16,3.11.22l3.17.08c2.19,0,4.42-.1,6.62-.33a67.16,67.16,0,0,0,13.09-2.61,64,64,0,0,0,23.42-13.14,66.4,66.4,0,0,0,9.05-9.73c.7-.86,1.29-1.76,1.91-2.65s1.26-1.76,1.79-2.72l1.65-2.85c.52-.95,1.13-1.91,1.54-2.87a84.67,84.67,0,0,0,7.43-23A111,111,0,0,0,372.22,286a122.77,122.77,0,0,0-2.5-21.77,106.94,106.94,0,0,0-6.84-21.64,18.46,18.46,0,0,0-2.15-3.76C360.53,238.84,361.1,240.28,362,242.12Z"/><path d="M79.46,287.37c1.07-.34,1-.46-.15-.3a19.9,19.9,0,0,0-3.77.88c-.88.33-.8.48.17.28C76.84,288,78.57,287.67,79.46,287.37Z"/><path d="M87.78,275.3l2.59-.53,2.59-.38,5.06-.75,4.91-.47,2.37-.24,2.32-.11c1.14-.05,2.42,0,3.38,0-.41-.2,1-.48,3.59-.36l4.85.17,4.87.45c1.63.11,3.24.41,4.87.63l2.44.37c.85.15,1.77.37,2.66.57,3.44.81,6.39,1.68,9.44,2.58s6,1.83,9,2.77c11.95,3.79,23.86,7.9,35.83,12.15s23.94,8.67,35.9,13.21,23.92,9.18,35.8,13.94a6.83,6.83,0,0,1,2.23.29,62.52,62.52,0,0,1,7.26,2.32c2.88,1.07,6,2.36,9.16,3.65,1.55.67,3.09,1.31,4.61,1.9,2.31.87,4.58,1.66,6.81,2.33s4.39,1.17,6.51,1.56a42.23,42.23,0,0,0,6.16.69c1,.06,1.93,0,2.86,0s1.86-.13,2.78-.28A28.94,28.94,0,0,0,327.42,321c.45-.64.81-1.41,1.26-2.14s.74-1.57,1.16-2.35a23.32,23.32,0,0,0,1.15-2.6c.19-.45.39-.91.58-1.38s.34-1,.5-1.51c4.05-13.9,2.68-31.87-2.63-46.72.16,1,.1,1.63-.14,1.7s-.85-.92-1.47-2.23c-.31-.65-.62-1.44-1-2.23s-.72-1.73-1.12-2.57-.78-1.7-1.22-2.48-.83-1.59-1.31-2.3c.34.5.58,1.13.89,1.68a15.77,15.77,0,0,1,.84,1.75l.81,1.82.74,2,.37,1c.12.34.22.71.32,1.06l.65,2.13c.38,1.46.75,2.93,1.07,4.42.18.87.32,1.68.43,2.42A87.59,87.59,0,0,1,331,293.06c-.35,7.44-1.73,14.56-4.22,19.89a13.08,13.08,0,0,1-.95,1.91,15,15,0,0,1-1,1.82l-.57.9c-.19.3-.41.56-.61.84s-.4.57-.62.83l-.66.77a26.56,26.56,0,0,1-2.79,2.82,26.91,26.91,0,0,1-6.61,4.07c-.63.21-1.21.51-1.86.68l-.95.31-1,.24a28.58,28.58,0,0,1-8.42.75,53.73,53.73,0,0,1-10.06-1.57c-3.56-.9-7.28-2.08-11.15-3.48s-7.78-3-12.09-4.68-8.43-3.34-12.63-5c-8.4-3.29-16.82-6.42-25.22-9.52s-16.79-6.13-25.19-9.1-16.81-5.85-25.24-8.7a25.89,25.89,0,0,1-3.75-1.46c-.6-.36-.42-.48.83-.09l31.4,9.63c10.26,3.22,20.44,6.42,30.76,9.78s20.77,6.95,31.64,10.87c2.77,1,5.3,1.92,7.85,2.8s5,1.67,7.43,2.37a66.9,66.9,0,0,0,13.42,2.77c.6.06,1.18.09,1.75.1s1.12,0,1.66,0,1.06,0,1.58-.07.92-.12,1.38-.15a19.79,19.79,0,0,0,5-1.4,19.48,19.48,0,0,0,7.63-5.89c.24-.36.52-.66.75-1s.48-.73.73-1.1.44-.79.67-1.18.35-.8.55-1.19a22,22,0,0,0,1.07-2.59,9.39,9.39,0,0,0,.47-1.47c.15-.52.31-1,.47-1.53A59.64,59.64,0,0,0,324,291.12a77.73,77.73,0,0,0-2-16.37,67.84,67.84,0,0,0-2.28-7.61l-.66-1.77-.73-1.63-.35-.82-.37-.69-.72-1.37c-.52-.79-1-1.68-1.49-2.35a25.38,25.38,0,0,0-1.5-2.06,10.32,10.32,0,0,1-.79-1c-.28-.31-.59-.59-.86-.91s-.64-.61-.94-.94a9.72,9.72,0,0,0-1-.95c-.18-.15-.36-.32-.54-.49s-.41-.33-.61-.49c-.43-.33-.8-.68-1.32-1s-.91-.71-1.46-1.06l-1.63-1.1c-2.29-1.5-5.09-3.09-8.22-4.84l-1.22-.72-1.29-.73-1.28-.75-1.05-.63-2-1.25-2.06-1.2c-2.78-1.53-5.62-3-8.59-4.34a103.23,103.23,0,0,0-19.43-6.46c-1.79-.42-3.61-.82-5.53-1.21l-6-1.14c-2.08-.4-4.35-.86-6.84-1.41-.66-.16-1.24-.28-1.94-.47l-1.06-.28-.61-.16-.16,0c-.05,0-.08-.14-.13-.2a.36.36,0,0,0-.07-.1l-.08,0-.16-.05c-.86-.28-1.73-.52-2.58-.82s-1.66-.67-2.46-1.05-1.54-.88-2.35-1.25l-1.21-.55a2.93,2.93,0,0,1-.58-.31l-.5-.44-1-.88c-.32-.3-.6-.64-.91-1a18.94,18.94,0,0,1-1.68-2c-.52-.72-1.09-1.33-1.64-2l-.21-.25c0-.09-.09-.2-.14-.3l-.27-.59-.56-1.19c-.33-.81-.59-1.65-.89-2.47-.15-.41-.3-.82-.41-1.24l-.17-.63c0-.21,0-.45-.09-.68-.1-.91-.2-1.82-.27-2.72l-.12-1.35a6.92,6.92,0,0,1-.06-1.37l.13-2.78a4,4,0,0,1,.28-1.39l.41-1.39c.59-1.88,1-3.64,1.48-5.45,0-.24.4-.39.43-.59l.23-.59.21-.49.18-.43c.24-.58.49-1.14.76-1.68a58.21,58.21,0,0,1,7.65-12c.72-.93,1.57-1.82,2.37-2.71s1.7-1.75,2.7-2.61a32,32,0,0,1,3.14-2.46,26.88,26.88,0,0,1,3.59-2.16l.93-.5,1-.42,2-.79c.67-.27,1.38-.39,2.06-.6s1.4-.4,2.06-.49c1.34-.21,2.73-.47,4-.54.62-.06,1.3-.14,1.87-.17l1.74-.1,1.62-.11,1.53-.12a26,26,0,0,0,2.59-.39,7.52,7.52,0,0,0,1.09-.28l.89-.35a2.45,2.45,0,0,0,.7-.42c.19-.16.45-.24.56-.44a3.49,3.49,0,0,0,.63-1l.2-.48L268,155c.11-.27.24-.84.36-1.25s.27-1,.41-1.46a57,57,0,0,0,1.46-7.27,21.48,21.48,0,0,0-.08-7.14,10,10,0,0,0-.91-2.62,7.73,7.73,0,0,0-1.29-1.72,13.6,13.6,0,0,0-2.27-1.79,25.85,25.85,0,0,0-3.18-1.74,40.75,40.75,0,0,0-9.14-2.94,23.36,23.36,0,0,0-4.78-.56,14.4,14.4,0,0,0-3.08.57,21.85,21.85,0,0,0-2.79,1.19c-.95.53-1.89,1.06-2.92,1.77-.24.15-.52.37-.77.55a7.54,7.54,0,0,0-.79.58l-.81.61-.13.13-.36.37c-.24.25-.48.47-.73.75l-.74.76-.75.81c-1,1.07-2.06,2.17-3.12,3.38s-2.14,2.44-3.22,3.79c-1.32,2.32-4.46,2.43-7.17.1a7.88,7.88,0,0,1-2.73-5.41l-.52.52-1.06.57a4.61,4.61,0,0,1-3.54.23l-1.64-.43c-2.81-1.17-5.86-1.39-8.81-2.7l-.71-1-.41,0a6,6,0,0,1-3.37-.95l-1-1a13.47,13.47,0,0,1-2.54-4,4.85,4.85,0,0,1-1.12-1.36,6.74,6.74,0,0,1-3.73-2.84.94.94,0,0,1-.94-1,1.11,1.11,0,0,1,.22-.54h0a10.41,10.41,0,0,0-1-.2,6.07,6.07,0,0,1-.58.29L185.94,123a5.55,5.55,0,0,1-1.75.12c-2.54-1.05-2.55-1-3.3-1.86a2.19,2.19,0,0,1-.12-.33c-.77.27-.82.29-1,.35a2.47,2.47,0,0,1-.55,0c-.48-.36-.48-.36-.73-.41a2.21,2.21,0,0,1-.37-.27c-.24-.72-.24-.72-.37-.85a1.39,1.39,0,0,1-.1-.37l.27-.74,1.87.28-.25-.51.7.3-.58-.34.65-.1-.83,0a5.37,5.37,0,0,0,1.34-1.07,2.05,2.05,0,0,0,.63-.75,2.07,2.07,0,0,1-.28-.2c1.1-.75,1.1-.74,2.2-1.43a3.79,3.79,0,0,1,.52.08.56.56,0,0,1,.28-.57l.56-.38s0-.11,0-.16l0,0c.08-.23.13-.4.19-.58l0-.13h0c.14-.4.32-1,.89-2.53a11.2,11.2,0,0,1,1-.52,3.23,3.23,0,0,1-.44,0c-.3,0-.54-.52-.66-.48a39,39,0,0,0-8.23,4.48,1.09,1.09,0,0,1-1.36.33.82.82,0,0,1-.08-1.26c2.2-6.44,8.74-11.3,15.56-13.37,1.58-.8,3.15-1.61,4.77-2.4l-.37-.07,1.38-.43.13-.06-1.44-.2-.77.18c-3.65,2-7.61,3-11.4,4.72-2,.92-4.11,1.4-6.18,2.21a.89.89,0,0,1-1.22,0,.86.86,0,0,1,.37-1.13A34.67,34.67,0,0,1,185.41,96a24.51,24.51,0,0,1,10-3,7.65,7.65,0,0,1,3.51-1.11l.06,0-1.13-.25c.93-.33,1.76,0,2.66-.25l-.88-.72c1.12-.46,2.24-1,3.38-1.45s2.28-1,3.45-1.45A24.49,24.49,0,0,1,213.62,86a4.82,4.82,0,0,1,.52-.11A20.57,20.57,0,0,1,216.59,84l.69-.43.09-.05,0,0h0s0,0,.09,0c.54-.2,1.11-.37,1.67-.56,1.13-.36,2.25-.74,3.45-1A66.67,66.67,0,0,1,238,79.42a68.79,68.79,0,0,0-10.86,1.07c-1.78.29-3.48.69-5.2,1.09-.87.2-1.68.45-2.53.68l-1.27.36-.63.19-.25.08h0l0,0,.29-.11.66-.22,1.34-.44c.89-.29,1.77-.59,2.71-.83l2.76-.75,2.85-.62a64.49,64.49,0,0,1,11.94-1.28,58,58,0,0,1,12.46,1.11,60.58,60.58,0,0,1,6.18,1.53c2,.68,4.08,1.38,5.82,2.16A78.82,78.82,0,0,1,277.77,91,68.41,68.41,0,0,1,290,101.77a50.65,50.65,0,0,1,9.23,14.77,42.76,42.76,0,0,1,3.08,16.89,47,47,0,0,1-2.64,14.39,48,48,0,0,1-5.49,11.24,41.84,41.84,0,0,1-7.34,8.34c-.64.58-1.39,1.11-2.05,1.63s-1.46,1-2.16,1.43a22.45,22.45,0,0,1-2.12,1.23c-.75.36-1.48.69-2.18,1l-.93.45-1,.35c-.67.23-1.34.44-2,.65a17.54,17.54,0,0,1-2,.41,18.13,18.13,0,0,1-2,.28,26.88,26.88,0,0,1-3.79.05c-.59,0-1.21-.06-1.77-.11l-1.63-.2c-.56-.06-1.06-.13-1.55-.22l-1.47-.22c-.88-.13-1.85-.29-2.65-.36l-1.23-.12c-.41,0-.76,0-1.14,0a14.33,14.33,0,0,0-2.12.12c-2.65.3-4.66,1.75-6.64,3.84a30.42,30.42,0,0,0-5,7.91c-.36.72-.63,1.48-.93,2.22s-.53,1.51-.74,2.26a21,21,0,0,0-.56,2.24c0,.09,0,.2-.06.26l-.06.16c0,.11,0,.18-.06.27l-.12.49a6.62,6.62,0,0,0,.14,4,3,3,0,0,0,1.38,1.42,4,4,0,0,0,.94.36,2.7,2.7,0,0,0,.49.12,2.65,2.65,0,0,0,.6.07c1.29,0,2.83-.13,4.54-.32l5.34-.61a182.33,182.33,0,0,1,24.26-1.76,119.59,119.59,0,0,1,12.89.76c2.17.24,4.33.55,6.49.91s4.31.8,6.44,1.32,4.26,1.07,6.39,1.66c1.87.52,3.68,1,5.63,1.63a122.65,122.65,0,0,1,12.16,4.38,75.45,75.45,0,0,1,13,7.09A68.67,68.67,0,0,1,351.46,225a47.82,47.82,0,0,1,3.65,4.76,13.6,13.6,0,0,1,1.51,2.85c0,.27-.47-.15-1.26-1.08-.39-.47-.86-1.05-1.4-1.74L352,227.46a65.76,65.76,0,0,0-8.11-8.07c-1.47-1.18-3-2.33-4.49-3.4s-3.06-2.07-4.61-2.92l-2.32-1.33-2.31-1.17c-1.56-.81-3.06-1.42-4.59-2.12-3-1.24-6-2.34-8.81-3.24l-2.12-.68-2.06-.61c-1.39-.42-2.68-.78-4-1.16l-4.49-1.23-4.59-1.06A116.89,116.89,0,0,0,281,198.11a142,142,0,0,0-18.05.35c-5.82.45-11.48,1.22-16.44,1.67-.62.06-1.22.11-1.79.14s-1.13,0-1.67.07c-.28,0-.53,0-.76,0s-.44,0-.6,0a7.86,7.86,0,0,1-.84-.19,3.94,3.94,0,0,1-2.71-2,4.07,4.07,0,0,1-.44-1.69,3.07,3.07,0,0,1-.07-.86,6.55,6.55,0,0,1,0-.88A10.3,10.3,0,0,1,238,193c.07-.32.12-.48.26-1a14.41,14.41,0,0,1,.42-1.66,11.75,11.75,0,0,0-.37,1.38c-.1.53-.24.8-.27,1a14.11,14.11,0,0,0-.35,1.46,9.29,9.29,0,0,0-.15,1.49V196l.05.36a1.68,1.68,0,0,1,0,.39c0,.13.05.25.07.38a3.88,3.88,0,0,0,1.51,2.54,5.4,5.4,0,0,0,.65.4c.24.08.45.22.7.28a6.25,6.25,0,0,0,.74.21l.37.1c.15,0,.26,0,.48,0,1.66,0,3.7-.07,5.84-.24l6.74-.58c4.66-.43,9.59-.78,14.6-.86a116.76,116.76,0,0,1,30.8,3.41c1.27.34,2.57.64,3.83,1l3.77,1.15c2.24.7,4.52,1.45,6.89,2.26a103.32,103.32,0,0,1,14.87,6.37,66.73,66.73,0,0,1,15.29,10.89A58.2,58.2,0,0,1,356,239.35c1,1.71,1.74,3.45,2.59,5.18s1.43,3.4,2.14,5.11,1.19,3.39,1.78,5.09,1,3.4,1.49,5.1a116.61,116.61,0,0,1,3.52,20.47c1.09,13.7.21,27.78-4.91,42.15-.33.89-.61,1.79-1,2.68l-1.19,2.68c-.4.89-.79,1.78-1.22,2.67l-1.47,2.65-1.51,2.62-1.67,2.5c-.55.83-1.16,1.64-1.78,2.44s-1.22,1.61-1.9,2.38A64,64,0,0,1,342,351.7a60.2,60.2,0,0,1-10.58,6.77,62.21,62.21,0,0,1-24.17,6.46c-1,.05-2.1.1-3.14.12l-3,0c-2-.08-4-.2-5.94-.43a90.32,90.32,0,0,1-11.29-2,131.82,131.82,0,0,1-17-5.46c-5.17-2-10.05-4.18-14.47-6.06-9-3.9-18-7.58-26.93-11.33s-17.93-7.4-27.07-11.05-18.41-7.42-28-11.15l-20-7.72-9.77-3.67-4.82-1.76-4.7-1.64L129,302c-.69-.21-1.57-.53-2-.62l-.73-.21a4.91,4.91,0,0,0-.83-.23l-2.13-.45-2.14-.46-2.14-.34c-1.44-.22-2.86-.49-4.31-.59s-2.87-.34-4.32-.41l-4.35-.19c-1.45,0-2.92,0-4.38,0l-2.19,0-2.2.16a119.07,119.07,0,0,0-17.74,2.56l-4.46,1.13c-1.49.38-3,.7-4.47,1.22l-4.46,1.4c-.74.24-1.5.44-2.24.72l-2.22.84c-3,1.13-6,2.13-8.93,3.5s-6,2.49-8.9,4c-6,2.77-11.84,6.05-17.79,9.39-3.1,1.9-6.15,3.66-8.58,4.93a25.12,25.12,0,0,1-4.61,2.3c-.51.06.29-.73,2-2.07.43-.33.9-.71,1.43-1.09l1.77-1.19c1.27-.83,2.71-1.76,4.27-2.74A225.77,225.77,0,0,1,60,304.44a145.78,145.78,0,0,1,19.45-6.12,122.85,122.85,0,0,1,19.6-2.9,104.14,104.14,0,0,1,19.36.8c1.59.27,3.19.43,4.77.81l2.37.49c.37.08.82.15,1.15.24l.88.26.88.25,1.17.38,2.39.77,5,1.75c6.83,2.45,13.76,5.09,20.69,7.76s13.89,5.39,20.84,8.16c13.89,5.56,27.82,11.19,41.73,17l20.87,8.82,10.43,4.49L262.23,352a139.73,139.73,0,0,0,24.37,8.34,80.33,80.33,0,0,0,14.2,2c1.24,0,2.48.06,3.74.06s2.58-.06,3.87-.18a60.14,60.14,0,0,0,22.51-6.29,57.82,57.82,0,0,0,12.95-9,61.1,61.1,0,0,0,10-11.9c.71-1.07,1.32-2.22,2-3.34s1.32-2.26,1.81-3.41a68.39,68.39,0,0,0,2.9-6.93,89.24,89.24,0,0,0,4.9-23.82,114.24,114.24,0,0,0-.72-23.06c-.08.21-.17.41-.28.42-.46.06-1-1.33-1.74-3.65a109.66,109.66,0,0,1,1.1,25.77,86.83,86.83,0,0,1-6,26.31l-2,4.57c-.7,1.52-1.58,3-2.38,4.51s-1.79,2.88-2.7,4.31-2,2.78-3.12,4.09a59.72,59.72,0,0,1-7.34,7.41,58.66,58.66,0,0,1-8.69,6,57.82,57.82,0,0,1-20,6.73,63.94,63.94,0,0,1-10.46.58,78.67,78.67,0,0,1-10-1c-12.94-2.19-24-7-34.2-11.55l-30.31-13.49L186,317.27c-13.16-5.88-26.1-11.59-39.17-17.09-4.21-1.57-8.41-3.09-12.53-4.49-1.06-.38-2-.66-3-1l-1.5-.48-1.24-.35c-.43-.11-.78-.24-1.27-.35l-1.51-.3-3-.61a101.33,101.33,0,0,0-24.5-1.29c-2.06.2-4.13.33-6.19.56l-6.19.94c-4.1.84-8.23,1.65-12.31,2.87l-3.07.83c-1,.3-2,.68-3,1-2,.7-4.06,1.34-6.08,2.09-4,1.66-8.06,3.09-12,5a19.8,19.8,0,0,1-3.11,1.27c-.5.11.13-.3,1.4-.92a154.06,154.06,0,0,1,33.78-12.39c1.47-.31,2.92-.72,4.39-1l4.43-.74c.73-.12,1.47-.26,2.21-.36l2.23-.22,4.46-.46a114.67,114.67,0,0,1,17.87.27c-3.7-.79-5.94-1.59-5.6-2.13.17-.32,1-.52,2.37-.66.69-.07,1.51-.11,2.45-.14.46,0,1,0,1.49,0l1.65.1c-.69-.1-1.38-.24-2.07-.31l-2.09-.2c-1.39-.11-2.78-.31-4.18-.36-2.8-.08-5.59-.29-8.4-.15-1.73.05-3.29,0-4.4,0s-1.79-.08-1.75-.23.72-.37,1.84-.57a41.86,41.86,0,0,1,4.31-.29c2.89-.16,5.78.06,8.66.13,1.44.08,2.87.26,4.31.38l2.15.2,2.13.32c1.42.24,2.86.39,4.27.69l4.22.88c.71.14,1.3.36,2,.53l1,.27,1,.34c1.38.46,2.75.87,4.15,1.39,11.2,3.93,22.42,8.36,33.58,12.8q40.44,15.48,80.32,32.38c-3.48-2-6-3.76-7-4.94h0l-12.35-5.23Q202.56,314,173.54,303c-9.67-3.63-19.37-7.26-29.11-10.68l-3.66-1.28-3.64-1.22c-1.22-.43-2.43-.8-3.63-1.17l-1.8-.56-1.71-.45c-1.08-.33-2.36-.53-3.58-.77s-2.44-.52-3.68-.67c-2.48-.32-4.94-.74-7.44-.88a113.26,113.26,0,0,0-30,1.54,148.38,148.38,0,0,0-29.2,8.75l-3.55,1.47-1.78.74-1.74.83-7,3.33c-2.3,1.18-4.55,2.46-6.83,3.67l-3.41,1.85-3.33,2-6.66,4-6.5,4.33c-4.39,2.81-8.52,6-12.77,9.07A14.27,14.27,0,0,1,0,328.63a10.82,10.82,0,0,1,2.09-1.74l7.64-5.61c1.25-1,2.59-1.79,3.9-2.68L17.55,316l3.92-2.64,4-2.44,4-2.45,2-1.22,2.07-1.12a183.51,183.51,0,0,1,34-15.21l-.1,0c-1,.26-1.19.18-.18-.27a21.15,21.15,0,0,1,3.71-1.1c1.13-.23,1.07-.06.2.27a126,126,0,0,1,33.69-5.36,107.35,107.35,0,0,1,16.91,1.14c.69.1,1.4.17,2.09.3l2.08.4,2.08.4c.34.07.7.12,1,.2l1,.26c.65.18,1.26.31,1.95.53l2,.63c1.36.4,2.73.87,4.1,1.33,11,3.68,21.93,7.78,32.83,11.83s21.72,8.23,32.52,12.4c-19.92-8.08-39.91-16.05-60-23.41-2.51-.93-5-1.77-7.55-2.65l-3.75-1.21c-.62-.19-1.21-.34-1.82-.51a17.24,17.24,0,0,0-1.85-.46l-3.85-.78c-1.28-.28-2.58-.41-3.87-.62-2.58-.45-5.19-.62-7.8-.86a114.56,114.56,0,0,0-31.32,2.16l-3.34.87c-1.11.3-2.23.54-3.32.93l-6.62,2.13a28.7,28.7,0,0,1-3.31,1c-.37,0,.46-.42,1.69-.88s2.45-.82,3.68-1.24c-7.68,2.25-13.63,4.1-13.74,3.49.08-.39,1.66-1.43,4.29-2.54,1.31-.58,2.86-1.23,4.59-1.91l1.32-.52,1.41-.44,3-.89a125.79,125.79,0,0,1,33.4-5.43c1.41-.07,2.83,0,4.24,0s2.83,0,4.24.15l4.23.33c1.41.08,2.8.35,4.2.52,2.82.32,5.58.94,8.36,1.46,2.76.69,5.45,1.55,8.13,2.43,2.33.75,4.66,1.48,7,2.28s4.71,1.42,7.05,2.15q-3.08-1.17-6.17-2.3c-2.06-.76-4.12-1.51-6.2-2.23s-4.17-1.42-6.27-2.1c-1.06-.32-2.15-.6-3.23-.91L127,281.2a109.21,109.21,0,0,0-26.39-2,131,131,0,0,0-26.14,3.95L68.11,285l-1.59.46L65,286l-3.11,1.1c-4.18,1.36-8.19,3.18-12.24,4.86-1.4.57-2.64,1.21-3.59,1.59s-1.59.6-1.66.51,1.92-1.48,4.68-2.75l5.31-2.4,2.67-1.2c.89-.38,1.81-.71,2.72-1.07l5.47-2.1c1.83-.69,3.72-1.21,5.59-1.83,3.7-1.29,7.55-2.13,11.37-3.11,1.93-.43,3.88-.74,5.82-1.12,1-.17,1.94-.37,2.92-.52l3-.36c3.93-.57,7.91-.76,11.89-.95l6,0c2,.06,4,.23,6,.34a119.57,119.57,0,0,1,11.91,1.63c1,.15,2,.41,3,.67.51.13,1,.25,1.53.39l1.43.42,2.87.86,2.8.9c14.89,4.87,29.47,10.24,44.07,15.74s29.12,11.2,43.61,17c9.75,3.3,19.47,6.7,29.25,10.16,4.88,1.74,9.84,3.56,14.56,5.18a142.42,142.42,0,0,0,14.05,4.12c-2.26-.72-4.56-1.54-6.89-2.4-3.71-1.39-7.43-2.94-11.18-4.54l-11.46-4.82q-11.41-4.69-22.61-9c-15-5.76-29.64-11.17-44.36-16.34S161,286.69,145.87,281.89c-3.79-1.2-7.61-2.37-11.61-3.46l-3.24-.76-3.08-.51c-1-.17-2-.36-3.08-.5l-3.12-.35a121.14,121.14,0,0,0-25.26-.08,13.66,13.66,0,0,1-3.35.17c-.19-.11,1-.37,2.67-.56a121.86,121.86,0,0,1,24.66-.27l3,.33c1,.1,2,.21,3,.39l3,.48,1.5.24c.51.09,1,.23,1.58.35,4.25,1,7.8,2.12,11.58,3.25,14.79,4.61,29.29,9.53,44.33,14.89,12.46,4.42,24.56,8.87,36.43,13.29s23.52,8.8,35,13.2c-11.6-4.89-23.15-9.51-34.68-14s-23-8.77-34.59-12.94-23.1-8.29-34.82-12.22c-5.86-2-11.74-3.9-17.88-5.72-1.57-.45-3.06-.91-4.9-1.32l-1.31-.31c-.45-.11-.83-.15-1.24-.23l-2.44-.41-2.44-.41-2.46-.29c-1.64-.17-3.27-.42-4.93-.52-2.3-.09-4.62-.34-6.08-.55a4.58,4.58,0,0,1-1.31.17l-5,.2c-1.71.1-3.44.3-5.2.45l-2.64.23-2.65.39c-1.77.27-3.57.51-5.35.8a22.17,22.17,0,0,1-3.83.54C85.46,275.91,86.26,275.64,87.78,275.3ZM198,108.91l-.26,0,.67-.09,1.47.53Zm-4,10h0l-.86-.25Zm55.06,82c-1.55.12-3.11.26-4.5.3a14,14,0,0,1-3.5-.12,6.33,6.33,0,0,1-2.18-.86,4,4,0,0,1-1.47-1.81,8.2,8.2,0,0,1-.21-4.63,11.1,11.1,0,0,1,.27-1.14,5.19,5.19,0,0,1,.17-.6c.08-.27.16-.65.23-1,.18-.66.41-1.33.6-2l.74-2a36.8,36.8,0,0,1,4.1-7.5,18.23,18.23,0,0,1,5.49-5.37,12.08,12.08,0,0,1,7.1-1.45c2.79.14,6,.93,10,1.2-3.89-.23-7-.95-9.78-1.08a12,12,0,0,0-6.92,1.31,13.45,13.45,0,0,0-2.18,1.59l-1.05.93-1,1.1a32.79,32.79,0,0,0-3.56,5.24,36.36,36.36,0,0,0-2.62,5.89,28.41,28.41,0,0,0-.87,3c-.14.42-.18.63-.26.91a8.41,8.41,0,0,0-.21.83,9.63,9.63,0,0,0-.18,3.43A4.25,4.25,0,0,0,239,200.1a5.08,5.08,0,0,0,1.57.76,6.14,6.14,0,0,0,.84.23,3,3,0,0,0,.48.08l.68,0C244.45,201.25,246.72,201.12,249.09,201Zm-59.76-91.53a12.51,12.51,0,0,1,3.47.32,5.34,5.34,0,0,1,1.32-1.32,39.3,39.3,0,0,1,4.33-2.69c-.47-.23-.11-.42,0-.59l.43-.45-5,2.4C192.4,107.83,190.89,108.81,189.33,109.42Zm-7.63,9.73h-.24l-.34-.73Zm.59,1.21.25-.11C182.69,120.49,182.56,120.48,182.29,120.36Zm2.29-1a1.77,1.77,0,0,0-.53,0ZM201.66,133l-2.2-3.08,2,3Z"/><path d="M232.69,20.13l.26.07a.5.5,0,0,1-.4.3c2.43.32,4.22-1.73,4.92-3.84a1.1,1.1,0,0,0-.91-2,1.36,1.36,0,0,1-.45,0,8.49,8.49,0,0,0-3.68-.25l.85.12a2.74,2.74,0,0,0-1.05.25l.28.22a2.54,2.54,0,0,0-.45,5.05Z"/><path d="M236.3,22.1c-.8,0-1.58,0-2.37-.09l-.22-.11.5.78,0-.06a4.48,4.48,0,0,1,1.6-2.42l.22-.29a.78.78,0,0,0,0-.58.82.82,0,0,0-1-.49l-.48.19c-1.33.14-3,1.09-2.85,2.79a2.79,2.79,0,0,0,.63,1.08,1.12,1.12,0,0,0,2-1l.34-.05-.11.32c-.11-.55.32-.94.54-1.39l.47-.44-1-1.07-.19.32c0,.05.14.1.14.11a10,10,0,0,1-1.13,1.83l-.48.88a.69.69,0,0,0,.5.79l.48.08-.24-.08c.92-.15,1.82-.44,2.74-.57a.28.28,0,0,0,.26-.31A.27.27,0,0,0,236.3,22.1Z"/><path d="M233.71,23.8a.64.64,0,0,0-.52.07.71.71,0,0,1,0,.14l.37.07C233.8,24.14,233.82,24,233.71,23.8Z"/><path d="M233.17,24,233,24l.14.07v0Z"/><path d="M257.67,7a38,38,0,0,0,3.94-1.49c.05,0,.05-.1,0-.18s-.1-.12-.14-.1a41.38,41.38,0,0,1-3.94,1.48s0,.1,0,.17S257.63,7,257.67,7Z"/><path d="M271.07,9.49a.22.22,0,0,0,.11.19c.05,0,.1,0,.1-.06a.3.3,0,0,0-.12-.19C271.1,9.39,271.06,9.43,271.07,9.49Z"/><path d="M274.27,15.69a1.91,1.91,0,0,0-.22.72s0,.05-.08,0a.41.41,0,0,1,.08.33,15.19,15.19,0,0,1-2.61,4.15,1.21,1.21,0,0,1,.11.32c.09.36,0,.62-.21.67h-.18c-.66.14-1.3.32-2,.44a.76.76,0,0,1-.24.49,13.28,13.28,0,0,1-.86,1.86.91.91,0,0,1,.22.28c.15.27.15.53,0,.6l-.19.13.69-.12a.2.2,0,0,1,.11,0,5.27,5.27,0,0,0,.63-.38,15.21,15.21,0,0,0,4-5.53c0-.06.05-.08.12,0a.28.28,0,0,1,.09.2c-.35,2-.3,4.3-1.05,5.89a30.78,30.78,0,0,1-3,5.2c-1.6.91-2.72,2.41-4.08,3.82a19.38,19.38,0,0,1-1.41,1.33,1.23,1.23,0,0,1-.22.18l-.38.26-.75.52-1.51,1c-2,1.31-4.08,2.54-6.18,3.78a3.32,3.32,0,0,1-4.66-.63,3.37,3.37,0,0,1-.52-3l-.4.2-.72.16a2.83,2.83,0,0,1-2-.32l-.81-.42c-1.29-.93-2.81-1.46-4-2.52l-.17-.55-.2-.08a2.87,2.87,0,0,1-1.46-.95l-.31-.62a6.88,6.88,0,0,1-.56-2.26,2.4,2.4,0,0,1-.32-.8,3.42,3.42,0,0,1-1.3-1.87.48.48,0,0,1-.28-.63.45.45,0,0,1,.15-.21h0a4.09,4.09,0,0,0-.43-.25l-.29,0-.86.21a2.26,2.26,0,0,1-.77-.23c-.94-.89-.94-.89-1.16-1.38,0-.06,0-.11,0-.17h-.47a1.2,1.2,0,0,1-.23-.11c-.15-.24-.15-.24-.25-.31A1,1,0,0,1,233,25c0-.36,0-.36,0-.44a.93.93,0,0,1,0-.18l.2-.29.74.44-.05-.27.25.25-.2-.25.28.06-.35-.11a2,2,0,0,0,.67-.27.84.84,0,0,0,.34-.24.56.56,0,0,1-.1-.13c.53-.17.53-.17,1-.31a1,1,0,0,1,.21.11.23.23,0,0,1,.17-.22l.27-.09,0-.07v0a2.6,2.6,0,0,1,.13-.24l0-.06h0l.57-1.06a2.83,2.83,0,0,1,.47-.1l-.18-.05c-.13-.05-.2-.33-.25-.33a17,17,0,0,0-3.74.84.41.41,0,0,1-.5-.66,9,9,0,0,1,7.07-4.16c.67-.21,1.32-.44,2-.68l-.16-.07.57-.08.06,0-.6-.24h-.32a26.43,26.43,0,0,1-4.71,1,22.24,22.24,0,0,1-2.57.2.37.37,0,0,1-.48-.2.38.38,0,0,1,.2-.48c2.09-1.6,4.84-2.8,7.51-2.35a2.16,2.16,0,0,1,1.37-.25h0l-.46-.21c.36-.09.69.12,1,.08l-.39-.44c1.71-.56,3.28-1.64,5.1-1.73a.59.59,0,0,1,.19-.05,8.23,8.23,0,0,1,1.18-1.64l-.47.05a1.41,1.41,0,0,1,.63-.8,3.12,3.12,0,0,1,3.27.93A48.57,48.57,0,0,0,257.18,7c.07-.07.2,0,.3.14s.12.31,0,.37a16.05,16.05,0,0,1-2.68,2.88,15,15,0,0,0,3.09-1l.32-.27a.66.66,0,0,1,.4-.13,12.9,12.9,0,0,0,3.39-2.31,29.83,29.83,0,0,0,2.36-2.82A12.36,12.36,0,0,1,267.89.06c.17-.16.5,0,.74.38s.3.78.13.94c-2.34,2.88-4.48,6-7.73,7.59l-1,.51.09.15a1.72,1.72,0,0,1,.23.6,9.1,9.1,0,0,1,1.28-.41,6.61,6.61,0,0,1,2.88-2.5,9.07,9.07,0,0,1,2.77-.24c.78-.75,1.51-1.57,2.32-2.3,0,0,.08,0,.14,0a.23.23,0,0,1,.05.2,13.37,13.37,0,0,1-1.28,2.23,2.38,2.38,0,0,1,.65.79,2.16,2.16,0,0,1,.29,1l.46-.23c.1,0,.25,0,.34.23s.11.36,0,.4l-1.85,1c-.62.61-1.24,1.18-1.89,1.73a3.1,3.1,0,0,1,.68.71h0l.33-.21A13.9,13.9,0,0,1,273,7.73s.11,0,.16.1,0,.16,0,.18a11.59,11.59,0,0,0-1.9,1.1h0a.27.27,0,0,1,.11.19c0,.06,0,.09-.1.06a.31.31,0,0,1-.11-.19,14.81,14.81,0,0,0-3,3,17.47,17.47,0,0,1,3.24-1.82l.18-.49s.09,0,.15,0a.21.21,0,0,1,.05.19l-.06.13c.22-.08.57.16.8.57s.24.85,0,1A19.2,19.2,0,0,1,271,12.83l-.14.18-.07.3c1-.34,2-.64,3-.92.07-.05.2,0,.29.18s.09.3,0,.35a27.84,27.84,0,0,1-3.93,3.9c-.15.93-.31,1.86-.46,2.79l.21-.1c1.69-1,2.1-3.59,3.53-4.9,0,0,.1,0,.15.08s.06.16,0,.18A17.21,17.21,0,0,0,272,17.49a16.22,16.22,0,0,0-1.22,2.25c1.15-.88,1.9-2.35,2.94-3.4,0-.07.11-.07.19,0a.27.27,0,0,1,0-.12,2.36,2.36,0,0,1,.23-.75c0-.05.07,0,.13,0A.22.22,0,0,1,274.27,15.69Zm-31.73,6.66-.11-.05.3,0,.64.42ZM240,26.68h0l-.37-.23Zm16.13-16.1a4.55,4.55,0,0,1-2.26.59l.42-.37C254.92,10.7,255.54,10.63,256.17,10.58Zm-17.43,11a5.83,5.83,0,0,1,1.47.6,2.07,2.07,0,0,1,.65-.48,18.17,18.17,0,0,1,2-.83c-.2-.16,0-.22,0-.29l.2-.18c-.74.22-1.48.43-2.24.63A17.4,17.4,0,0,1,238.74,21.54Zm-4.07,3.39-.1-.05-.06-.38Zm.11.64h.12C234.94,25.69,234.88,25.67,234.78,25.57Zm1.08-.09a.73.73,0,0,0-.21-.1Zm5.89,8.88-.57-1.76.5,1.72Z"/></g></g></svg>