<svg xmlns="http://www.w3.org/2000/svg" viewBox="0 0 592.17 443.76"><g id="Layer_2" data-name="Layer 2"><g id="Layer_1-2" data-name="Layer 1"><path d="M288.85,55.61l.59,0a1.29,1.29,0,0,1-.85.8,10.52,10.52,0,0,0,6.83-3.4,16.32,16.32,0,0,0,3.93-6.41,2.47,2.47,0,0,0,1.2-3.18,2.4,2.4,0,0,0-3.33-.65,4.34,4.34,0,0,1-1,.15,22,22,0,0,0-8.7.79l2-.07a7.19,7.19,0,0,0-2.48.94l.67.35c-3.28.38-6.12,3.16-6.17,6.13s2.63,5,5.84,4.64Z"/><path d="M297.23,58.19c-1.73.31-3.47.55-5.24.79l-.5-.15,1.27,1.41-.05-.11c.13-2.09,1.61-4,3.09-5.68l.48-.66a1.49,1.49,0,0,0,0-1.19,1.76,1.76,0,0,0-2.41-.65c-.36.18-.71.38-1.06.57-3,.88-6.74,3.62-5.93,7,.2.79,1.06,1.32,1.69,1.93a2.51,2.51,0,0,0,3.44.44,2.38,2.38,0,0,0,.82-3.29l.75-.24c-.06.23-.12.47-.17.7-.37-1.09.51-2.07.92-3.1l1-1.12-2.44-1.8-.37.76.32.15a26.6,26.6,0,0,1-2.18,4.29l-.9,2a1.32,1.32,0,0,0,1.3,1.4l1.09,0-.55,0c2-.7,3.92-1.67,5.9-2.31a.66.66,0,0,0,.5-.73A.54.54,0,0,0,297.23,58.19Z"/><path d="M291.92,62.75a1.58,1.58,0,0,0-1.13.35v.3h.82C292.2,63.4,292.2,63.05,291.92,62.75Z"/><path d="M290.79,63.4h-.35l.32.1,0,0Z"/><path d="M442.71,13.56c1.13.11,2.26.18,3.38.32l3.35.43,6.68.86,6.65,1.1,3.31.55,3.29.67L476,18.83l6.5,1.58,3.25.78c1.08.28,2.14.6,3.22.89l6.41,1.81c.58.15,1.08.22,1.14.11s-.36-.35-.9-.49l-6.42-1.82-3.22-.9L482.69,20l-6.51-1.59-6.56-1.35-3.29-.68L463,15.82l-6.64-1.11c-2.22-.32-4.46-.58-6.69-.87s-4.47-.6-6.73-.76a1.87,1.87,0,0,0-1.2.15C441.73,13.37,442.15,13.51,442.71,13.56Z"/><path d="M562.41,63.69c-.39-.13-.42,0-.1.23a4.66,4.66,0,0,0,1.22.69c.32.1.37,0,.09-.24A4.47,4.47,0,0,0,562.41,63.69Z"/><path d="M555.42,68.91c-1.06-.48-2.08-1-3.08-1.36s-2-.75-2.93-1a5.38,5.38,0,0,1-1-.49c0,.21-.42.15-1.19-.15a321.52,321.52,0,0,0-48.42-15.07,1.69,1.69,0,0,1-.82.27,16.8,16.8,0,0,1-6-.77l-1.75-.55c-1.78-.49-3.59-.88-5.38-1.33s-3.58-.9-5.39-1.25l-5.42-1.09-2.7-.55-2.72-.46a40.76,40.76,0,0,1-5.16-.18c-3.19,0-6.39.11-9.57.14l-9.61.45c.39.17.63.36.61.56s-.48.42-1.09.56a9.8,9.8,0,0,1-2.26.25l-2.6,0c2.48.11,5,.13,7.44.4a9.16,9.16,0,0,1,1,.11c2.73.12,5.49.12,8.3.34A288,288,0,0,1,526.48,59.8a3.9,3.9,0,0,1,1.23.54c.17.17.09.27-.34.15-14.65-3.64-27.75-4.69-44.05-6.31A221.58,221.58,0,0,0,426.11,56a147.49,147.49,0,0,0-28.26,5.77,167.29,167.29,0,0,0-26.58,10.67c-1.5.67-2.91,1.52-4.35,2.26L362.64,77l-4.12,2.45c-1.37.82-2.76,1.56-4,2.46l-1,.65-.49.32-.18.13-.63.47-1.27.93c-.83.62-1.71,1.17-2.51,1.83q-2.43,1.89-4.92,3.67c-1.64,1.2-3.19,2.53-4.81,3.76a5,5,0,0,1-4,1.47A6.53,6.53,0,0,1,330.46,93a7.43,7.43,0,0,1-1.92-5.79l-.65.46-1.25.43a5.16,5.16,0,0,1-3.8-.3l-1.65-.68c-2.72-1.58-5.74-2.19-8.48-3.95l-.55-1.05-.4-.11a5.91,5.91,0,0,1-3.2-1.45l-.84-1.15A13.48,13.48,0,0,1,305.84,75a4.91,4.91,0,0,1-.9-1.5,6.84,6.84,0,0,1-3.23-3.35,1,1,0,0,1-.77-1.17,1.08,1.08,0,0,1,.27-.49h0a9.81,9.81,0,0,0-1-.36c-.37.13-.6.19-.6.19-.93.42-.93.42-1.76.77a5.07,5.07,0,0,1-1.7-.18c-2.29-1.44-2.3-1.43-2.9-2.35,0-.11,0-.23-.07-.34-.77.14-.82.14-1,.17a2.26,2.26,0,0,1-.53-.13c-.41-.43-.41-.43-.64-.52a2.25,2.25,0,0,1-.31-.32c-.12-.73-.12-.73-.24-.88a2.1,2.1,0,0,1,0-.38l.36-.66,1.74.58-.17-.53L293,64l-.51-.42h.64l-.8-.09a4.81,4.81,0,0,0,1.4-.82,1.94,1.94,0,0,0,.68-.63,3.24,3.24,0,0,1-.25-.24c1.13-.55,1.13-.55,2.24-1.06a4.56,4.56,0,0,1,.48.15.55.55,0,0,1,.32-.52l.56-.29.06-.15,0,0c.1-.23.17-.38.24-.56l0-.12h0c.17-.38.39-1,1.08-2.35a7.48,7.48,0,0,1,1-.35l-.42-.06c-.29,0-.47-.59-.59-.58-.72.14-1.43.32-2.13.53s-1.36.51-2,.8c-1.33.58-2.66,1.23-4,1.85a1,1,0,0,1-1.31.09.82.82,0,0,1,.06-1.23c2.7-6,9.14-9.76,15.48-11,1.51-.58,3-1.19,4.47-1.81l-.34-.11,1.28-.28.12,0-1.33-.36-.71.09A29.17,29.17,0,0,1,303.4,46c-1.8.47-3.61,1-5.41,1.54s-3.91.8-5.9,1.27a.84.84,0,0,1-1.13-.24.8.8,0,0,1,.42-1,35.74,35.74,0,0,1,8.15-5.22,20.92,20.92,0,0,1,9.17-1.76,5.68,5.68,0,0,1,3.13-.8h.05l-1-.36c.82-.26,1.58.14,2.39,0l-.83-.82c2-.67,3.93-1.58,5.88-2.38,1-.39,2-.76,2.95-1a14.45,14.45,0,0,1,3.06-.48,3.13,3.13,0,0,1,.44-.1,21.74,21.74,0,0,1,1.75-2l.49-.46.15-.11.43-.25.87-.49a37.25,37.25,0,0,1,3.74-1.87c-.94.3-1.84.65-2.74,1l-2.65,1a1.28,1.28,0,0,1,.27-.17l.33-.21.68-.4,1.36-.8c.91-.54,1.85-1,2.81-1.48,1.91-.92,3.89-1.79,6-2.61,11.38-4.37,24.9-6.54,31.66-5.37a245.11,245.11,0,0,1,33.54-6.19,270.82,270.82,0,0,1,33.9-1.42,4.19,4.19,0,0,1,2.41.56c.12.27-.66.48-1.82.45a264.88,264.88,0,0,0-48.55,4.61,290,290,0,0,1,41.22-2c1.77,0,3.55-.07,5.34,0s3.51.22,5.24.42c17.69,1,34.16,4,51.53,8.05l2.77.63,2.7.72,5.31,1.41c1.76.45,3.47,1,5.18,1.52l5.13,1.56c3.39,1.07,6.74,2.28,10.16,3.44s6.81,2.57,10.34,3.93A280.28,280.28,0,0,1,562.2,51.24,245.82,245.82,0,0,1,588,67.57c2.25,1.62,4.13,3.43,4.13,4s-1.84-.28-4.09-1.88A311.39,311.39,0,0,0,560.33,53a317.47,317.47,0,0,0-29.49-13.56,298.84,298.84,0,0,0-31.18-10.52,315.15,315.15,0,0,0-33-7.38c-2.44-.45-4.88-.73-7.29-1.1l-3.62-.52c-1.21-.15-2.42-.26-3.62-.39a.63.63,0,0,1,.1.28c0,.36-.52.64-1.3.85l4.09.46c1.36.18,2.72.41,4.09.62l4.08.66,2.05.34,2,.42A189.92,189.92,0,0,1,513,33.85a236,236,0,0,1,28.52,13.48,283,283,0,0,1,34.41,18.3,3.34,3.34,0,0,1,1,.79c.11.19-.18.11-.63-.16L570.33,63l-3-1.65-3.05-1.57-6.14-3.16-6.27-3c1.15,1,1.72,1.75,1.42,2.1s-1.51.2-3.16-.34l5.52,3c1.14.61,1.94,1.26,1.79,1.45s-1.11-.14-2.2-.71c-3.75-2-7.47-4-11.31-5.83-1.91-.92-3.79-1.91-5.73-2.77l-5.8-2.61A295.24,295.24,0,0,0,503.52,38,7.17,7.17,0,0,1,506,40.1h0l4.49,1.38C538.14,49.14,565,62.55,588.88,80c.47.34.82.67.78.76s-.46-.11-.89-.42c-3.64-2.59-7.25-5.22-11-7.61-1.88-1.21-3.71-2.48-5.63-3.61l-5.72-3.45,0,0c.28.24.28.37-.09.23a5.24,5.24,0,0,1-1.2-.72c-.32-.28-.23-.35.09-.24A245.53,245.53,0,0,0,520.34,44.9a257.22,257.22,0,0,1,40.77,19.23c1.48.71,3,1.35,4.47,2.12a3.49,3.49,0,0,1,1,.75c.07.14-.27.06-.68-.16l-1.22-.63c2.41,1.51,4.07,3,3.76,3.43s-2.71-.52-5.22-2c-6.9-3.75-13.81-7.43-20.92-10.69l-2.34-1-2.42-.83a290.76,290.76,0,0,1,31.72,17.58c.89.52,1.57,1.1,1.49,1.26s-.87-.12-1.77-.64a297.55,297.55,0,0,0-28.58-14,285.83,285.83,0,0,0-30-11c-3.48-.62-7-1.09-10.47-1.63-3.53-.37-7-.81-10.6-1.1.87.19,1.74.42,2.61.64,11.11,2.62,21.43,5.17,31.57,8.26a196.48,196.48,0,0,1,30.21,11.69,2.06,2.06,0,0,1,.9.66c0,.12-.38,0-.88-.25A221.89,221.89,0,0,0,524,55.22l-6.34-1.95-6.27-1.65-3.09-.79-3.1-.66c-2.06-.42-4.09-.85-6.12-1.23l6.07,1.61,3,.77,3,.87,6,1.71,5.92,1.88,3,.95,2.93,1,5.87,2.11c1.94.76,3.87,1.56,5.81,2.35l2.92,1.2c1,.41,1.92.86,2.88,1.3a7.68,7.68,0,0,1,1.7,1,.71.71,0,0,1,.43.07A61.19,61.19,0,0,1,555,68.27,3.18,3.18,0,0,1,556,69C556.17,69.14,555.89,69.09,555.42,68.91Zm-244.61-12-.24-.09h.65l1.4.73Zm-4.67,9.44h0l-.82-.38Zm96.62-48.2-7.27.82c-1.21.11-2.41.29-3.62.46l-3.62.5c-4.84.55-9.62,1.44-14.49,2.06l6.93-1.67,2.74-.44,2.75-.33,5.52-.61c1.83-.23,3.68-.34,5.53-.45ZM302.53,56.25a12.5,12.5,0,0,1,3.28.8,5,5,0,0,1,1.34-1.16,27,27,0,0,1,4.27-2.13c-.44-.29-.09-.44,0-.59l.43-.4c-1.58.6-3.25,1.09-4.86,1.75A40.91,40.91,0,0,1,302.53,56.25Zm-8.22,8.41-.22,0-.23-.76Zm.42,1.27.25-.07C295.09,66.13,295,66.1,294.73,65.93Zm2.3-.61a1.48,1.48,0,0,0-.49-.12Zm14.73,16-1.71-3.36,1.57,3.29Z"/><path d="M463.85,66.28l-.57-.28c.12-.18.48-.2,1-.11a10.3,10.3,0,0,0-7.08-.49,9.29,9.29,0,0,0-2.45,1.16,7.19,7.19,0,0,0-1.62,1.49c-1.15.11-1.56.73-1.14,1.3a2.45,2.45,0,0,0,1.11.73,4.33,4.33,0,0,0,1.62.29,5.81,5.81,0,0,1,.89.2c.6.24,1.18.47,1.8.69l1.94.66,2,.66,2.12.67c-.64-.29-1.29-.57-1.91-.82a19.86,19.86,0,0,0,2.44.62l-.58-.48c3.13,1.3,6.4,1.69,7.06.21s-1.79-4.52-5.11-5.89Z"/><path d="M456.11,61.72a25.36,25.36,0,0,1,2.57.46c.86.19,1.73.4,2.61.67l.47.28-1-1.41,0,.09c-.42,1.37-2.21,2-3.77,2.64l-.53.27a.64.64,0,0,0-.11.73,2.57,2.57,0,0,0,2.16,1.06l1.07,0c.71.12,1.55.23,2.36.3a12.1,12.1,0,0,0,2.27,0c1.42-.18,2.46-.7,2.33-2-.05-.61-.84-1.41-1.37-2.12a3.83,3.83,0,0,0-3.39-1.79c-1.31.1-1.86,1-1.33,1.92l-.76-.1.27-.4c.2.85-.8,1.17-1.36,1.68l-1.06.39,2.06,1.86.46-.32c-.11-.08-.29-.2-.29-.21a15.17,15.17,0,0,1,2.78-1.82l1.25-.94c.19-.47-.29-1.15-1.07-1.51l-1.1-.41.54.25a53.66,53.66,0,0,0-6.11-.31c-.31,0-.57.13-.56.36S455.79,61.69,456.11,61.72Z"/><path d="M462,60.3a2.24,2.24,0,0,0,1.19.21l.05-.22L462.4,60C461.81,59.72,461.75,60,462,60.3Z"/><path d="M463.22,60.29l.35.15-.3-.21,0,0Z"/><path d="M472.31,210c-1,24.83-2.15,49.81-3.7,74.78-.05.83,0,1.54.22,1.58s.33-.6.37-1.38c1.6-25,2.78-49.83,3.78-74.66a2.81,2.81,0,0,0-.31-1.64C472.48,208.64,472.33,209.23,472.31,210Z"/><path d="M449.65,396.24c-.06-.59-.16-.57-.26.05a10.62,10.62,0,0,0-.07,2c.05.5.17.48.26,0A10.43,10.43,0,0,0,449.65,396.24Z"/><path d="M441.43,390.81c-.28-3.5-.59-6.82-1-9.78a9.21,9.21,0,0,1-.05-1.64c-.18.21-.38-.46-.51-1.72-2.62-24.85-4.51-51.57-6.26-77.89a2.6,2.6,0,0,1-.64-1.11,29.56,29.56,0,0,1-1.12-9.28l.11-2.86c.18-11.55.39-23.07.8-34.56a70.65,70.65,0,0,1-.62-8.05c-.91-9.95-1.72-19.93-2.25-30.14-.21.64-.46,1-.73,1-.63-.2-1.09-2.57-1-5.33,0-1.39.07-2.77.16-4.16-.46,4-.54,8-.8,11.95a14.75,14.75,0,0,1-.12,1.59c-.09,4.37-.09,8.79,0,13.28.42,39.22,4,76.09,7.74,112.67a7.61,7.61,0,0,1,0,2.07c-.1.36-.27.29-.36-.38-3.5-23.07-8.23-43.05-11-69.14-1.62-15.52-3-30.95-4-46.48-.26-3.89-.52-7.78-.71-11.68l-.3-5.86c-.1-2-.23-3.92-.22-5.88a57.55,57.55,0,0,1,5.29-23.64c4-8.29,9-16.37,12.8-24.51,1-2.08,1.81-4,2.71-6.34l.63-1.67c.24-.64.48-1.17.68-1.62.42-.92.82-1.7,1.13-2.49a15.64,15.64,0,0,0,1.21-9.44,13.17,13.17,0,0,0-1.75-4.35c-.44-.69-.94-1.4-1.61-2.35a19.48,19.48,0,0,1-2.2-4,16.51,16.51,0,0,1-1.05-5.26,17.24,17.24,0,0,1,.56-5.16,23.67,23.67,0,0,1,4-7.76,12.14,12.14,0,0,0,1-1.58l0-.06h0s0,0,.09.06l.35.18a6,6,0,0,0,.73.32l.39.13.2.08a2.79,2.79,0,0,0,.66.17s0,0,0,0h-.22l-.29,0-.21.05.1,0c.06,0,0,0-.4.18l-.3.17-.36.24a4.84,4.84,0,0,0-.46.33l-.1.08h0a.81.81,0,0,0-.19-.3,1.72,1.72,0,0,0-.23-.26,14.83,14.83,0,0,0-1.14-1c-.8-.6-1.58-1.2-2.3-1.82a21.52,21.52,0,0,1-3.71-3.67A9.83,9.83,0,0,1,432.8,98a3.78,3.78,0,0,1-.13-1.21,8.52,8.52,0,0,1,0-1.24,10.38,10.38,0,0,1,.52-2.26,6.41,6.41,0,0,1,.64-1.38,7.22,7.22,0,0,1,.85-1.27c.16-.2.27-.42.46-.62l.61-.58a16.47,16.47,0,0,1,1.41-1.11c.25-.18.51-.36.8-.53a6,6,0,0,1,.87-.49c.66-.28,1.32-.56,2-.87,1.32-.56,2.83-.95,4.2-1.41l2.08-.7c.42-.15.63-.25.93-.37a9,9,0,0,0,1.34-.69,1.64,1.64,0,0,0,.28-.24h0s0,0,0,0l.08.09c.18.24.46.52.59.7a5.27,5.27,0,0,0,.51.56l.28.26.2.2a4.09,4.09,0,0,0,.44.37c.17.11.21.17.34.24s.28.14.31.17l.2.09c.13,0,.19,0,.11,0a1.11,1.11,0,0,0-.34.11,2.18,2.18,0,0,0-.6.34,4.37,4.37,0,0,0-.86.62l-.19.18-.28.24a6.51,6.51,0,0,0-.54.51c-.17.18-.33.36-.49.55a2.28,2.28,0,0,1-.28.31c-.08.09,0,0-.06.06H449c-.11,0-.22,0-.38-.07-.65-.16-1.64-.4-2.72-.58-.56-.1-1.08-.2-1.75-.28l-2-.07c-.67,0-1.37-.2-2.06-.3a76.82,76.82,0,0,1-8.85-2l-1.67-1a3.48,3.48,0,0,0-.43-.25l-.55-.2-1.09-.39a7.92,7.92,0,0,1-1-.42l-.74-.56c-.49-.38-1-.75-1.44-1.13s-.93-.76-1.36-1.15l-.44-.39-.58-.52c-.79-.69-.48-1.59-1.35-2.25l-.5-.54a2.13,2.13,0,0,1-.43-.54L418.9,75l-.54-1.15c-.18-.38-.49-.79-.73-1.19-.65-.8.08-1.58-.74-2.49l-.37-.65a3.65,3.65,0,0,1,0-.66l.06-.65c0-.1,0-.23-.09-.35l-.15-.37c-.18-.49-.56-1-.31-1.44l.16-.68.09-.34a1.4,1.4,0,0,0-.07-.39c-.12-.52-.26-1-.36-1.58l.56-1.36.14-.34a1.27,1.27,0,0,0,0-.39v-.8c0-.53-.05-1.06,0-1.6l.1-1.61,0-.41c0-.14.13-.21.19-.32l.49-.61,1-1.22a9.8,9.8,0,0,0,.56-1.46l.52-1.48,0-.1,0,0a.53.53,0,0,0-.06-.1l-.26-.42-.13-.2c0-.06,0-.08,0-.11l.08-.2.35-.81.35-.8.27-.71.54-1.32c.35-.85.73-1.72,1.11-2.56.28-.69.6-1.36.92-2a17.62,17.62,0,0,1,1-1.81,12.73,12.73,0,0,1,2.07-2.62c1.33-1.28,2.7-1.68,3.68-1,1.19.9,1.55,3.11,1.13,5.54.22-.33.43-.66.64-1,.4-.45.81-.93,1.2-1.35,1.15-1.18,2.36-1.94,3.46-1.87h1.43c2.32.53,5.1.33,7.47,1.74l.38,1,.37.05A3.76,3.76,0,0,1,448.35,42l.65,1.14a12.06,12.06,0,0,1,1.21,4.22,3.87,3.87,0,0,1,.66,1.41A5.63,5.63,0,0,1,453.5,52a.8.8,0,0,1,.58,1.08.9.9,0,0,1-.34.36h0c.35.19.46.24.89.45a5.12,5.12,0,0,1,.6,0c1-.16,1-.15,1.84-.24a5.89,5.89,0,0,1,1.66.59c2,1.84,2.06,1.88,2.51,2.8,0,.1,0,.2,0,.29.78.17.85.2,1.07.26a3.51,3.51,0,0,1,.51.31c.34.49.34.49.55.66a3.39,3.39,0,0,1,.27.37c0,.6,0,.6.09.76a1,1,0,0,1,0,.29l-.46.33-1.65-1.12.08.46-.55-.53.44.49-.63-.24.78.37a4.51,4.51,0,0,0-1.54.07,1.7,1.7,0,0,0-.77.22l.21.25-2.33.07-.44-.24c0,.15-.16.26-.39.28l-.59,0-.06.1,0,0-.29.32-.06.07h0c-.21.21-.5.53-1.29,1.33-.34,0-.69,0-1,0l.37.1c.25.08.36.46.47.47,1.37.09,2.71.15,4.06.17s2.75.09,4.18.22a1.6,1.6,0,0,1,1.34.5c.3.37.17.7-.28.76a10.31,10.31,0,0,1-3.24,1.44,24.2,24.2,0,0,1-3.84.74c-2.69.31-5.46.42-8,.5-.57.08-1.14.21-1.68.33l-1.52.36.23.06c-.24,0-.61,0-.56.15v0h.2l.4.08h.46a17.26,17.26,0,0,1,3.89-.45c.76,0,1.46,0,2.24,0l2.38.12a15.79,15.79,0,0,1,2.68.36l2.76.61a1.37,1.37,0,0,1,1,.54c.14.26-.1.44-.53.4-1.25.14-2.45.16-3.77.24-.63,0-1.23,0-1.88,0h-1.85c-1.26,0-2.39-.08-3.51-.12l-1.58-.16a3.49,3.49,0,0,1-.37-.07l-.31,0-.11.06A1.53,1.53,0,0,1,446,70h0l.49.08c-.18.11-.6,0-.81.14l.62.2a1.53,1.53,0,0,0-.47,1.3c.05.47.22.84.25,1.2a.25.25,0,0,1,.05.08c.35.12.69.21,1,.3l.22.06.05,0,.17.09.35.16c.46.21.92.39,1.39.59a13.61,13.61,0,0,1-1.67-.91c.64.3,1.34.56,2,.79l.23.08.13,0,.06,0,.12.08,1.95,1.3c.68.46,1.38.9,2.14,1.46a22,22,0,0,1,2.48,2l.46.44a6.77,6.77,0,0,1,.51.55,10.63,10.63,0,0,1,1,1.36,6.6,6.6,0,0,1,.5.93,5.38,5.38,0,0,1,.42,1.1,9.15,9.15,0,0,1,.28,1.26,10.29,10.29,0,0,1,0,1.36,7.57,7.57,0,0,1-1.79,4.32,9.85,9.85,0,0,1-2.31,2,23.93,23.93,0,0,1-3.64,1.78c-.51.21-1.22.47-1.15.46a2.15,2.15,0,0,0-.36.11,10.1,10.1,0,0,0-1.47.54,1.7,1.7,0,0,0-.62.51,1.62,1.62,0,0,1-.1.18,1.15,1.15,0,0,1,0,.19.75.75,0,0,0,.1.36,4.86,4.86,0,0,0,1,1l.28.24.14.13.07.07h0l0,0c-.05,0,0,0,0,0l.17.14a15.24,15.24,0,0,1,2.66,2.62,12.28,12.28,0,0,1,2,3.71,11.8,11.8,0,0,1,.48,2c.06.7.1,1.39.09,2.06a13.39,13.39,0,0,1-.3,2,12,12,0,0,1-.57,1.72,11.8,11.8,0,0,1-.7,1.38c-.24.38-.48.75-.71,1.08a28.49,28.49,0,0,1-2.1,2.77c-.59.71-1.1,1.3-1.48,1.82a6.29,6.29,0,0,0-1.29,2.82,4.53,4.53,0,0,0,0,1.36,5.24,5.24,0,0,0,.63,1.7c.78,1.5,2,3.54,3,5.59a55.39,55.39,0,0,1,4.11,12.93c.44,2.24.71,4.55.95,6.72l.18,1.56c.08.53.16.84.26,1.32.2.9.44,1.79.66,2.67.51,1.91,1,3.85,1.67,5.77s1.29,3.9,2,5.84c1.39,3.88,3,7.81,4.42,11.7a99.35,99.35,0,0,1,6.27,23.36c.21,1.6,0,3-.29,3.31s-.71-.9-.89-2.5a98.86,98.86,0,0,0-3.91-16.79c-1.81-5.63-4-11.26-6-16.92-1-2.81-1.9-5.65-2.73-8.46-.4-1.39-.78-2.79-1.12-4.19L457.3,156l-.22-1c-.15-.65-.29-1.31-.42-2-.25-1.15-.33-2.8-.51-4.38s-.37-3.24-.66-4.85a53.32,53.32,0,0,0-2.55-9.41,50.71,50.71,0,0,1,2.15,7.84,66.23,66.23,0,0,1,1,8c.05.66.09,1.28.15,1.86s.16,1.06.26,1.62c.2,1.12.39,2.15.65,3.38.51,2.36,1.05,4.7,1.71,7.1,2.51,9.54,5.88,19.2,7.53,28.89q.74,3.72,1.18,7.46a45.07,45.07,0,0,1,.24,7.33c-.1,12.38-.44,24.45-.7,36.58s-.52,24.33-.67,37c-.24,21.6-.67,40.49-1.64,62-1.42,30.2-4,57.7-9.73,87.51a44.11,44.11,0,0,1-2.06,8.09c-.35.48,0-2.4.64-6.38,2.48-15.54,4.13-31,5.39-46.52s2.1-31,2.73-46.59c1.27-31.18,1.81-62.73,2.85-95.24.21-7,.42-13.92.62-20.78a.66.66,0,0,1-.37.17c-.48,0-.92-.67-1.28-1.77q-.39,11.68-1.05,23.53c.5,21.93.65,43.9-1,67.27-1.16,16.06-2.9,30.58-4.54,45.42-.77,18.82-1.79,37.58-3.59,56.59a8.8,8.8,0,0,1-.28,1.81c-.1.28-.14-.13-.09-.9.85-13.07,1.38-26.46,1.76-40-.5,2.12-1,3.39-1.54,3.21s-.9-1.83-1.14-4.36l-.46,9.2c-.11,1.89-.38,3.38-.62,3.32s-.39-1.55-.31-3.35q.74-18.77,1.49-37.47c.14-15,.2-29.92.24-44.93a10.82,10.82,0,0,1-1.85,4.32h0c0,2.32-.05,4.64-.08,7q.9,31.81.27,64.3t-2.9,65.29a8.2,8.2,0,0,1-.18,1.57,6.09,6.09,0,0,1,0-1.41q1.23-19.82,1.94-39.52v.06c-.08.53-.2.62-.24,0a11,11,0,0,1,.07-2.06c.09-.6.2-.55.25-.05.86-24.47,1.06-48.77.6-72.75q-.44,33.42-1.66,66.81c.05,2.42.1,4.84.16,7.31a7.74,7.74,0,0,1-.19,1.82c-.09.18-.17-.31-.17-1l0-2c-.17,4.21-.65,7.45-1.12,7.38-.48-.24-.83-3.86-.78-8.24,0-11.72.05-23.39.08-35.07l-.1-3.79c-.1-1.28-.21-2.54-.32-3.81-.38,18.16-.73,36.28-.86,54.3a7.81,7.81,0,0,1-.27,2.89,7,7,0,0,1-.33-2.77c-1.09-31.76-2.38-63.92-3.13-96.21-1.38-10.62-2.86-21.26-4.35-32.11v4.13c.17,17.55,1.45,33.79,2.69,49.88s2.47,32.05,3.07,49a4.26,4.26,0,0,1-.13,1.67c-.1.09-.22-.49-.25-1.35-.72-16.59-2.11-31.74-3.3-48.21-1-13.64-1.92-26.61-3.15-39.29.83,25.91,3.05,50.77,4.4,76.43a15.94,15.94,0,0,1,0,3,1.52,1.52,0,0,1,.18.63c.41,3.21.74,6.71,1,10.29a7.17,7.17,0,0,1-.05,1.91C441.63,392,441.52,391.57,441.43,390.81Zm2.5-329.2.2,0-.54.07-1.11-.28S443.17,61.49,443.93,61.61Zm4.86-6.89h0l.71.31Zm7.4,99.63c-.14-.8-.28-1.59-.36-2.35l-.2-2.71c-.14-1.89-.33-3.83-.65-5.73a48,48,0,0,0-5.58-16.15,13.31,13.31,0,0,1-1.74-3.74,4.31,4.31,0,0,1,0-1.35,6.67,6.67,0,0,1,.33-1.45,9.17,9.17,0,0,1,1.73-2.73,9.33,9.33,0,0,0-1.62,2.69,5.7,5.7,0,0,0-.27,2.67c0,1.12,1.68,3.53,2.95,6.15a49.18,49.18,0,0,1,3.09,8.12,52.09,52.09,0,0,1,1.62,8.61c.16,1.44.24,2.9.32,4.29,0,.66.07,1.37.15,1.9S456.09,153.76,456.19,154.35ZM451,62.07a22.68,22.68,0,0,1-2.82-.73A5.08,5.08,0,0,1,447,62c-1.2.53-2.44,1-3.54,1.53.34.12.07.24,0,.34s-.24.19-.33.28c.61-.26,1.24-.5,1.88-.71s1.36-.42,2.05-.6,1.32-.34,2-.49A11.5,11.5,0,0,1,451,62.07Zm8.87-4,.21.12.1.63ZM459.7,57l-.26,0C459.37,56.69,459.49,56.75,459.7,57Zm-2.37-.21a3,3,0,0,0,.46.22ZM445.41,41.51l1.18,3.19-1-3.13Z"/><path d="M174.92,111l.63-.07a1.5,1.5,0,0,1-.81,1,12.82,12.82,0,0,0,6.9-4.51,20.58,20.58,0,0,0,3.71-7c1.3-.86,1.84-2.32,1.2-3.3s-2.27-1.08-3.65-.2a5.14,5.14,0,0,1-1.1.29,24.54,24.54,0,0,0-9.32,2.19l2.18-.42a9.56,9.56,0,0,0-2.61,1.36l.75.24c-3.54.86-6.37,4.17-6.09,7.21s3.37,4.61,6.69,3.66Z"/><path d="M184,112.2c-1.8.57-3.59,1.08-5.42,1.62l-.54-.06,1.49,1.2-.07-.1c-.11-2.13,1.25-4.31,2.69-6.17l.44-.74a1.43,1.43,0,0,0-.13-1.19,1.84,1.84,0,0,0-2.59-.26l-1.08.73c-3.12,1.3-6.81,4.76-5.49,8.1.31.77,1.27,1.15,2,1.66a2.68,2.68,0,0,0,3.63-.18,2.47,2.47,0,0,0,.47-3.46l.75-.35c0,.23-.07.48-.11.72-.5-1,.32-2.16.67-3.25l.93-1.25-2.75-1.43-.33.82a2.36,2.36,0,0,1,.36.1,35.13,35.13,0,0,1-1.87,4.66l-.69,2.2a1.27,1.27,0,0,0,1.52,1.19l1.13-.24-.58,0c2-1.07,3.87-2.35,5.89-3.28a.71.71,0,0,0,.46-.8A.56.56,0,0,0,184,112.2Z"/><path d="M179,117.64a1.66,1.66,0,0,0-1.11.56l0,.3.85-.14C179.35,118.25,179.31,117.89,179,117.64Z"/><path d="M177.89,118.5l-.35.06.34,0,0,0Z"/><path d="M362,242.12a105.2,105.2,0,0,1,7,21.55,122,122,0,0,1,2.63,21.69,110.67,110.67,0,0,1-1.43,22.25,86.11,86.11,0,0,1-7.21,22.9l-.67,1.42-.8,1.43-1.63,2.84-.83,1.4-.91,1.34c-.62.88-1.21,1.78-1.86,2.64a69.85,69.85,0,0,1-8.89,9.75,63.28,63.28,0,0,1-23.12,13.26,66,66,0,0,1-13,2.73c-1.09.1-2.19.2-3.28.27l-3.29.1c-2.13,0-4.22-.07-6.27-.25a94.13,94.13,0,0,1-22.49-4.83,12.92,12.92,0,0,0-3.49-.9c-.13.11,1.19.75,2.87,1.31a96.74,96.74,0,0,0,22.54,5c1,.08,2.07.16,3.11.22l3.17.07c2.19,0,4.42-.09,6.62-.32a67.16,67.16,0,0,0,13.09-2.61,64,64,0,0,0,23.42-13.14,66.4,66.4,0,0,0,9.05-9.73c.7-.86,1.29-1.76,1.91-2.65s1.26-1.76,1.79-2.72l1.65-2.85c.52-.95,1.13-1.91,1.54-2.87a84.67,84.67,0,0,0,7.43-23A111,111,0,0,0,372.22,286a122.77,122.77,0,0,0-2.5-21.77,106.32,106.32,0,0,0-6.84-21.64,18.46,18.46,0,0,0-2.15-3.76C360.53,238.84,361.1,240.28,362,242.12Z"/><path d="M79.47,287.37c1.06-.34,1-.46-.16-.3a20.08,20.08,0,0,0-3.77.88c-.88.33-.8.48.17.28C76.84,288,78.57,287.67,79.47,287.37Z"/><path d="M87.78,275.3l2.59-.53,2.59-.38,5.06-.75,4.91-.47,2.37-.24,2.32-.11c1.14-.05,2.42,0,3.38,0-.41-.2,1-.48,3.59-.36l4.85.17,4.87.45c1.63.11,3.24.41,4.87.63l2.44.37c.85.15,1.77.37,2.66.57,3.44.81,6.39,1.68,9.44,2.58s6,1.83,9,2.77c11.95,3.79,23.86,7.9,35.83,12.16s23.94,8.66,35.9,13.2,23.92,9.18,35.8,13.94a6.83,6.83,0,0,1,2.23.29,62.52,62.52,0,0,1,7.26,2.32c2.88,1.07,6,2.36,9.16,3.65,1.55.67,3.09,1.31,4.61,1.9,2.31.87,4.58,1.66,6.81,2.33s4.39,1.17,6.51,1.56a42.23,42.23,0,0,0,6.16.69c1,.06,1.93,0,2.86,0s1.86-.13,2.78-.28A28.94,28.94,0,0,0,327.42,321c.45-.64.81-1.41,1.26-2.14s.74-1.57,1.16-2.35a23.32,23.32,0,0,0,1.15-2.6c.19-.45.39-.91.58-1.38s.34-1,.5-1.51c4.05-13.9,2.68-31.87-2.62-46.72.15,1,.09,1.63-.15,1.7s-.85-.92-1.47-2.23c-.31-.65-.62-1.44-1-2.23s-.72-1.73-1.12-2.57-.78-1.7-1.22-2.48-.83-1.59-1.31-2.3c.34.5.58,1.13.89,1.68a15.77,15.77,0,0,1,.84,1.75l.81,1.82.74,2,.37,1c.12.34.22.71.32,1.06l.65,2.13c.38,1.46.75,2.93,1.07,4.42.18.87.32,1.68.43,2.42A87.59,87.59,0,0,1,331,293.06c-.35,7.44-1.73,14.56-4.22,19.89a13.08,13.08,0,0,1-.95,1.91,15,15,0,0,1-1,1.82l-.57.9c-.19.3-.41.56-.61.84s-.4.57-.62.83l-.66.77a26.56,26.56,0,0,1-2.79,2.82,26.91,26.91,0,0,1-6.61,4.07c-.63.21-1.21.51-1.86.68l-.95.31-1,.24a28.58,28.58,0,0,1-8.42.75,53.73,53.73,0,0,1-10.06-1.57c-3.56-.9-7.28-2.08-11.15-3.48s-7.78-3-12.09-4.68-8.42-3.34-12.63-5c-8.4-3.29-16.82-6.42-25.22-9.52s-16.79-6.13-25.19-9.1-16.81-5.85-25.23-8.7a25.58,25.58,0,0,1-3.76-1.46c-.6-.36-.42-.48.83-.09l31.4,9.63c10.26,3.22,20.44,6.42,30.76,9.78s20.77,6.95,31.64,10.87c2.77,1,5.3,1.92,7.85,2.8s5,1.67,7.43,2.37a66.9,66.9,0,0,0,13.42,2.77c.6.06,1.18.09,1.75.1s1.12,0,1.66,0,1.06,0,1.58-.07.92-.12,1.38-.15a19.79,19.79,0,0,0,5-1.4,19.48,19.48,0,0,0,7.63-5.89c.24-.36.52-.66.75-1s.48-.73.73-1.1.44-.79.68-1.18.34-.8.54-1.19a22,22,0,0,0,1.07-2.59,9.39,9.39,0,0,0,.47-1.47c.15-.52.31-1,.47-1.53A59.64,59.64,0,0,0,324,291.12a77.73,77.73,0,0,0-2-16.37,67.84,67.84,0,0,0-2.28-7.61l-.66-1.77-.73-1.63-.35-.82-.37-.69-.72-1.37c-.52-.79-1-1.68-1.49-2.35a25.38,25.38,0,0,0-1.5-2.06,10.32,10.32,0,0,1-.79-1c-.28-.31-.59-.59-.86-.91s-.64-.61-.94-.94a9.72,9.72,0,0,0-1-.95c-.18-.15-.36-.32-.54-.49s-.41-.33-.61-.49c-.43-.33-.8-.68-1.32-1s-.91-.71-1.46-1.06l-1.63-1.1c-2.29-1.5-5.09-3.09-8.22-4.84l-1.22-.72-1.29-.73-1.28-.75-1.05-.63-2-1.25-2.06-1.2c-2.78-1.53-5.62-3-8.59-4.34a103.23,103.23,0,0,0-19.43-6.46c-1.79-.42-3.61-.82-5.53-1.21l-6-1.14c-2.08-.4-4.35-.86-6.84-1.41-.66-.16-1.24-.28-1.94-.47l-1.06-.28-.61-.16-.16,0c-.05,0-.08-.14-.13-.2a.36.36,0,0,0-.07-.1l-.08,0-.16-.05c-.86-.28-1.73-.52-2.58-.82s-1.66-.67-2.46-1.05-1.54-.88-2.35-1.25l-1.21-.55a2.93,2.93,0,0,1-.58-.31l-.5-.44-1-.88c-.32-.3-.6-.64-.91-1a18.94,18.94,0,0,1-1.68-2c-.52-.72-1.09-1.33-1.64-2l-.21-.25c0-.09-.09-.2-.14-.3l-.27-.59-.56-1.19c-.33-.81-.59-1.65-.89-2.47-.15-.41-.3-.82-.41-1.24l-.17-.63c0-.21,0-.45-.09-.68-.1-.91-.2-1.82-.27-2.72l-.12-1.35a6.92,6.92,0,0,1-.06-1.37l.13-2.78a4,4,0,0,1,.28-1.39l.41-1.39c.59-1.88,1-3.64,1.48-5.45,0-.24.4-.39.43-.59l.23-.59.21-.49.18-.43c.24-.58.49-1.14.76-1.68a58.21,58.21,0,0,1,7.65-12c.72-.93,1.57-1.82,2.37-2.71s1.7-1.75,2.7-2.61a32,32,0,0,1,3.14-2.46,26.88,26.88,0,0,1,3.59-2.16l.93-.5,1-.42,2-.79c.67-.27,1.38-.39,2.06-.6s1.4-.4,2.06-.49c1.34-.21,2.73-.47,4-.54.62-.06,1.3-.14,1.87-.17l1.74-.1,1.62-.11,1.53-.12a26,26,0,0,0,2.59-.39,7.52,7.52,0,0,0,1.09-.28l.89-.35a2.45,2.45,0,0,0,.7-.42c.19-.16.45-.24.56-.44a3.49,3.49,0,0,0,.63-1l.2-.48L268,155c.11-.27.24-.84.36-1.25s.27-1,.41-1.46a57,57,0,0,0,1.46-7.27,21.48,21.48,0,0,0-.08-7.14,10.38,10.38,0,0,0-.9-2.62,8.4,8.4,0,0,0-1.29-1.72,14.11,14.11,0,0,0-2.28-1.79,25.85,25.85,0,0,0-3.18-1.74,40.75,40.75,0,0,0-9.14-2.94,23.36,23.36,0,0,0-4.78-.56,14.4,14.4,0,0,0-3.08.57,21.85,21.85,0,0,0-2.79,1.19c-.95.53-1.89,1.06-2.92,1.77-.24.15-.52.37-.77.55a7.54,7.54,0,0,0-.79.58l-.81.61-.13.13-.36.37c-.24.25-.48.47-.73.75l-.74.76-.75.81c-1,1.07-2.06,2.17-3.12,3.38s-2.14,2.44-3.22,3.79c-1.32,2.32-4.46,2.43-7.17.1a7.88,7.88,0,0,1-2.73-5.41l-.52.52-1.06.57a4.61,4.61,0,0,1-3.54.23l-1.64-.43c-2.81-1.17-5.86-1.39-8.81-2.7l-.71-1-.41,0a6,6,0,0,1-3.37-.95l-1-1a13.47,13.47,0,0,1-2.54-4,4.85,4.85,0,0,1-1.12-1.36,6.74,6.74,0,0,1-3.73-2.84.94.94,0,0,1-.94-1,1.11,1.11,0,0,1,.22-.54h0a10.41,10.41,0,0,0-1-.2l-.58.29L185.94,123a5.55,5.55,0,0,1-1.75.12c-2.54-1.05-2.55-1-3.3-1.86a2.19,2.19,0,0,1-.12-.33c-.77.27-.82.29-1,.35a2.47,2.47,0,0,1-.55,0c-.48-.36-.48-.36-.73-.41a2.21,2.21,0,0,1-.37-.27c-.24-.72-.24-.72-.37-.85a1.39,1.39,0,0,1-.1-.37l.27-.74,1.87.28-.25-.51.7.3-.58-.34.65-.1-.83,0a5.37,5.37,0,0,0,1.34-1.07,2.05,2.05,0,0,0,.63-.75,2.07,2.07,0,0,1-.28-.2c1.1-.75,1.1-.74,2.2-1.43a3.79,3.79,0,0,1,.52.08.56.56,0,0,1,.28-.57l.56-.38,0-.16,0,0,.2-.58,0-.13h0c.14-.4.32-1,.89-2.53a11.2,11.2,0,0,1,1-.52,3.23,3.23,0,0,1-.44,0c-.3,0-.54-.52-.66-.48a39,39,0,0,0-8.23,4.48,1.09,1.09,0,0,1-1.36.33.82.82,0,0,1-.08-1.26c2.2-6.44,8.74-11.3,15.56-13.37,1.58-.8,3.15-1.61,4.77-2.4l-.37-.07,1.38-.43.13-.06-1.44-.2-.77.18c-3.65,2-7.61,3-11.4,4.72-2,.92-4.11,1.4-6.18,2.21a.89.89,0,0,1-1.22,0,.86.86,0,0,1,.37-1.13A34.67,34.67,0,0,1,185.41,96a24.51,24.51,0,0,1,10-3,7.65,7.65,0,0,1,3.51-1.11l.06,0-1.13-.25c.93-.33,1.76,0,2.66-.25l-.88-.72c1.12-.46,2.24-1,3.38-1.45s2.28-1,3.45-1.45A24.49,24.49,0,0,1,213.62,86a4.82,4.82,0,0,1,.52-.11A19.91,19.91,0,0,1,216.6,84c.22-.15.45-.29.68-.43l.09-.05,0,0h0s0,0,.09,0c.54-.2,1.11-.37,1.67-.56,1.13-.36,2.25-.74,3.45-1A66.67,66.67,0,0,1,238,79.42a68.79,68.79,0,0,0-10.86,1.07c-1.78.29-3.48.69-5.2,1.09-.87.2-1.68.45-2.53.68l-1.27.36-.63.19-.25.08h0l0,0,.29-.11.66-.22,1.34-.44c.89-.29,1.77-.59,2.71-.83l2.76-.75,2.85-.62a64.49,64.49,0,0,1,11.94-1.28,58,58,0,0,1,12.46,1.11,60.58,60.58,0,0,1,6.18,1.53c2,.68,4.08,1.38,5.82,2.16A78.82,78.82,0,0,1,277.77,91,68.41,68.41,0,0,1,290,101.77a50.65,50.65,0,0,1,9.23,14.77,42.76,42.76,0,0,1,3.08,16.89,47,47,0,0,1-2.64,14.39,48,48,0,0,1-5.49,11.24,41.84,41.84,0,0,1-7.34,8.34c-.64.58-1.39,1.11-2.05,1.63s-1.46,1-2.16,1.43a22.45,22.45,0,0,1-2.12,1.23c-.75.36-1.48.69-2.18,1l-.93.45-1,.35c-.67.23-1.34.44-2,.65a34.62,34.62,0,0,1-4.07.69,26.88,26.88,0,0,1-3.79.05c-.59,0-1.21-.06-1.77-.11l-1.63-.2c-.56-.06-1.06-.13-1.55-.22l-1.47-.22c-.88-.13-1.85-.29-2.65-.36l-1.23-.12c-.41,0-.76,0-1.14,0a14.33,14.33,0,0,0-2.12.12c-2.65.3-4.66,1.75-6.64,3.84a30.42,30.42,0,0,0-5,7.91c-.36.72-.63,1.48-.93,2.22s-.53,1.51-.74,2.26a21,21,0,0,0-.56,2.24c0,.09,0,.2-.06.26l-.06.16c0,.12,0,.18-.06.27l-.12.49a6.62,6.62,0,0,0,.14,4,3,3,0,0,0,1.38,1.42,4,4,0,0,0,.94.36,2.7,2.7,0,0,0,.49.12,2.65,2.65,0,0,0,.6.07c1.29,0,2.83-.13,4.54-.32l5.34-.61a182.33,182.33,0,0,1,24.26-1.76,119.59,119.59,0,0,1,12.89.76c2.17.24,4.33.55,6.49.91s4.31.8,6.44,1.32,4.26,1.07,6.39,1.66c1.87.52,3.68,1,5.63,1.63a122.65,122.65,0,0,1,12.16,4.38,75.45,75.45,0,0,1,13,7.09A68.67,68.67,0,0,1,351.46,225a47.82,47.82,0,0,1,3.65,4.76,13.6,13.6,0,0,1,1.51,2.85c0,.27-.47-.15-1.26-1.08-.39-.47-.86-1.05-1.4-1.74L352,227.46a65.76,65.76,0,0,0-8.11-8.07c-1.47-1.18-3-2.33-4.49-3.4s-3.06-2.07-4.61-2.92l-2.32-1.33-2.31-1.17c-1.56-.81-3.06-1.42-4.59-2.12-3-1.24-6-2.34-8.81-3.24l-2.12-.68-2.06-.61c-1.39-.42-2.68-.78-4-1.16l-4.49-1.23-4.59-1.06A116.89,116.89,0,0,0,281,198.11a142,142,0,0,0-18.05.35c-5.82.45-11.48,1.22-16.44,1.67-.62.06-1.22.11-1.79.14s-1.13,0-1.67.07c-.28,0-.53,0-.76,0s-.44,0-.6,0a8.64,8.64,0,0,1-.85-.19,3.94,3.94,0,0,1-2.7-2,4.07,4.07,0,0,1-.44-1.69,3.07,3.07,0,0,1-.07-.86,6.55,6.55,0,0,1,0-.88A10.3,10.3,0,0,1,238,193c.07-.32.12-.48.26-1a14.41,14.41,0,0,1,.42-1.66c-.14.46-.28.92-.38,1.38s-.23.8-.26,1a14.11,14.11,0,0,0-.35,1.46,9.29,9.29,0,0,0-.15,1.49V196l.05.36a1.68,1.68,0,0,1,0,.39c0,.13.05.25.07.38a3.88,3.88,0,0,0,1.51,2.54,5.4,5.4,0,0,0,.65.4c.24.08.45.22.7.28a6.25,6.25,0,0,0,.74.21l.37.1c.15,0,.26,0,.48,0,1.66,0,3.7-.07,5.84-.24l6.74-.58c4.66-.43,9.59-.78,14.6-.86a116.76,116.76,0,0,1,30.8,3.41c1.27.34,2.57.64,3.83,1l3.77,1.15c2.24.7,4.52,1.45,6.89,2.26a103.32,103.32,0,0,1,14.87,6.37,66.73,66.73,0,0,1,15.29,10.89A58.2,58.2,0,0,1,356,239.35c1,1.71,1.74,3.45,2.59,5.18s1.43,3.4,2.14,5.11,1.19,3.39,1.78,5.09,1,3.4,1.49,5.1a116.61,116.61,0,0,1,3.52,20.47c1.09,13.7.21,27.78-4.91,42.15-.33.89-.61,1.79-1,2.68l-1.19,2.68c-.4.89-.79,1.78-1.22,2.67l-1.47,2.65-1.51,2.62-1.67,2.5c-.55.83-1.16,1.64-1.78,2.44s-1.22,1.61-1.9,2.38A64,64,0,0,1,342,351.7a60.2,60.2,0,0,1-10.58,6.77,62.21,62.21,0,0,1-24.17,6.46c-1,.05-2.1.1-3.14.12l-3,0c-2-.08-4-.2-5.94-.43a90.64,90.64,0,0,1-11.29-2,131.82,131.82,0,0,1-17-5.46c-5.17-2-10.05-4.18-14.47-6.06-9-3.9-18-7.58-26.93-11.33s-17.93-7.4-27.07-11.05-18.41-7.42-28-11.15l-20-7.72-9.77-3.67-4.82-1.76-4.7-1.64L129,302c-.69-.21-1.57-.53-2-.62l-.73-.21a4.91,4.91,0,0,0-.83-.23l-2.13-.45-2.14-.46-2.14-.34c-1.44-.22-2.86-.49-4.31-.59s-2.87-.34-4.32-.41l-4.35-.19c-1.45,0-2.92,0-4.38,0l-2.19,0-2.2.16a119.07,119.07,0,0,0-17.74,2.56l-4.46,1.13c-1.49.38-3,.7-4.47,1.22l-4.46,1.4c-.74.24-1.5.44-2.24.72l-2.22.84c-3,1.13-6,2.13-8.93,3.5s-6,2.49-8.9,4c-6,2.77-11.83,6.05-17.79,9.39-3.1,1.9-6.15,3.66-8.58,4.93a25.12,25.12,0,0,1-4.61,2.3c-.51.06.29-.73,2-2.07.43-.33.9-.71,1.43-1.09l1.77-1.19c1.27-.83,2.71-1.76,4.27-2.74A225.77,225.77,0,0,1,60,304.44a145.78,145.78,0,0,1,19.45-6.12,122.85,122.85,0,0,1,19.6-2.9,104.14,104.14,0,0,1,19.36.8c1.59.27,3.19.43,4.77.81l2.36.49c.38.08.83.16,1.16.24l.88.26.88.25,1.17.38,2.39.77,5,1.75c6.83,2.45,13.76,5.09,20.69,7.76s13.89,5.39,20.84,8.16c13.89,5.56,27.82,11.19,41.73,17l20.87,8.82,10.43,4.49L262.23,352a139.73,139.73,0,0,0,24.37,8.34,80.33,80.33,0,0,0,14.2,2c1.24,0,2.48.06,3.74.06s2.58-.06,3.87-.18a60.14,60.14,0,0,0,22.51-6.29,57.82,57.82,0,0,0,12.95-9,61.1,61.1,0,0,0,10-11.9c.71-1.07,1.32-2.22,2-3.34s1.32-2.26,1.81-3.41a68.39,68.39,0,0,0,2.9-6.93,89.24,89.24,0,0,0,4.9-23.82,114.24,114.24,0,0,0-.72-23.06c-.08.21-.17.41-.28.42-.46.06-1-1.33-1.74-3.65a109.66,109.66,0,0,1,1.1,25.77,86.83,86.83,0,0,1-6,26.31l-2,4.57c-.7,1.52-1.58,3-2.38,4.51s-1.79,2.88-2.7,4.32-2,2.77-3.12,4.08a59.72,59.72,0,0,1-7.34,7.41,58.66,58.66,0,0,1-8.69,6,57.82,57.82,0,0,1-20,6.73,63.94,63.94,0,0,1-10.46.58,78.67,78.67,0,0,1-10-1c-12.94-2.19-24-7-34.2-11.55l-30.31-13.49L186,317.26c-13.16-5.87-26.1-11.58-39.17-17.08-4.21-1.57-8.41-3.09-12.53-4.49-1.06-.38-2-.66-3-1l-1.5-.48-1.24-.35c-.43-.11-.78-.24-1.28-.35l-1.5-.3-3-.61a101.33,101.33,0,0,0-24.5-1.29c-2.06.2-4.13.33-6.19.56l-6.19.94c-4.1.84-8.23,1.65-12.31,2.87l-3.07.83c-1,.3-2,.68-3,1-2,.7-4.06,1.34-6.08,2.09-4,1.66-8.06,3.09-12,5a19.8,19.8,0,0,1-3.11,1.27c-.5.11.13-.3,1.4-.92a154.06,154.06,0,0,1,33.78-12.39c1.47-.31,2.92-.72,4.39-1l4.43-.74c.73-.12,1.47-.26,2.21-.36l2.23-.22,4.46-.46a114.67,114.67,0,0,1,17.87.27c-3.7-.79-5.94-1.59-5.6-2.13.17-.32,1-.52,2.37-.66.68-.07,1.51-.11,2.45-.14.46,0,1,0,1.49,0l1.65.1c-.69-.1-1.38-.24-2.07-.31l-2.09-.2c-1.39-.11-2.78-.31-4.18-.36-2.8-.08-5.59-.29-8.4-.15-1.73.05-3.29,0-4.4,0s-1.79-.08-1.75-.23.72-.37,1.84-.56a38.9,38.9,0,0,1,4.31-.3c2.89-.16,5.78.06,8.66.13,1.44.08,2.87.26,4.31.38l2.15.2,2.13.32c1.42.24,2.86.39,4.27.69l4.22.88c.71.14,1.3.36,2,.53l1,.27,1,.34c1.38.46,2.75.87,4.15,1.39,11.2,3.93,22.42,8.36,33.58,12.8q40.44,15.48,80.32,32.38c-3.48-2-6-3.76-7-4.94h0l-12.35-5.23Q202.56,314,173.54,303c-9.67-3.63-19.37-7.26-29.11-10.68l-3.66-1.28-3.64-1.22c-1.22-.42-2.43-.8-3.63-1.17l-1.8-.56-1.71-.45c-1.08-.33-2.36-.53-3.58-.77s-2.44-.52-3.68-.67c-2.48-.32-4.94-.74-7.44-.88a113.26,113.26,0,0,0-30,1.54,148.38,148.38,0,0,0-29.2,8.75l-3.55,1.47-1.78.74-1.74.83-7,3.33c-2.3,1.18-4.55,2.46-6.83,3.67l-3.41,1.85-3.33,2-6.66,4-6.5,4.33c-4.39,2.81-8.52,6-12.77,9.07A14.27,14.27,0,0,1,0,328.63a10.82,10.82,0,0,1,2.09-1.74l7.64-5.61c1.25-1,2.59-1.79,3.9-2.68L17.55,316l3.92-2.64,4-2.44,4-2.45,2-1.22,2.07-1.12a183.51,183.51,0,0,1,34-15.21l-.1,0c-1,.26-1.19.18-.18-.27a21.15,21.15,0,0,1,3.71-1.1c1.13-.23,1.07-.06.2.27a126,126,0,0,1,33.69-5.36,107.35,107.35,0,0,1,16.91,1.14c.69.1,1.4.17,2.09.3l2.08.4,2.08.4c.35.07.7.12,1,.2l1,.26c.65.18,1.26.31,1.95.53l2,.63c1.36.4,2.73.87,4.1,1.33,11,3.68,21.94,7.78,32.83,11.83s21.72,8.23,32.52,12.4c-19.92-8.08-39.91-16.05-60-23.41-2.51-.93-5-1.77-7.55-2.65l-3.75-1.21c-.62-.19-1.21-.34-1.82-.51a17.24,17.24,0,0,0-1.85-.46l-3.85-.78c-1.28-.28-2.58-.41-3.87-.62-2.58-.45-5.19-.62-7.8-.86a114.56,114.56,0,0,0-31.32,2.16l-3.34.87c-1.11.3-2.23.54-3.32.93l-6.62,2.13a28.7,28.7,0,0,1-3.31,1c-.37,0,.46-.42,1.69-.88s2.45-.82,3.68-1.24c-7.68,2.25-13.63,4.1-13.74,3.49.08-.39,1.66-1.43,4.29-2.54,1.31-.58,2.86-1.23,4.59-1.91l1.32-.52,1.41-.44,3-.89a125.79,125.79,0,0,1,33.4-5.43c1.41-.07,2.83,0,4.24,0s2.83,0,4.24.15l4.23.33c1.41.08,2.8.35,4.2.52,2.82.32,5.58.94,8.36,1.46,2.76.69,5.45,1.55,8.13,2.43,2.33.75,4.66,1.48,7,2.28s4.71,1.42,7.05,2.15q-3.08-1.17-6.17-2.3c-2.06-.76-4.12-1.51-6.2-2.23s-4.17-1.42-6.27-2.1c-1.06-.32-2.15-.6-3.23-.91L127,281.2a109.21,109.21,0,0,0-26.39-2,131,131,0,0,0-26.14,3.95L68.11,285l-1.59.46L65,286l-3.12,1.1c-4.18,1.36-8.19,3.18-12.24,4.86-1.4.57-2.64,1.21-3.59,1.59s-1.59.6-1.66.51,1.91-1.48,4.68-2.75l5.31-2.4,2.67-1.2c.89-.38,1.81-.71,2.72-1.07l5.47-2.1c1.83-.69,3.72-1.21,5.58-1.83,3.71-1.29,7.56-2.13,11.38-3.11,1.93-.43,3.88-.74,5.82-1.12,1-.17,1.94-.37,2.92-.52l3-.36c3.93-.57,7.91-.76,11.89-.95l6,0c2,.06,4,.23,6,.34a119.57,119.57,0,0,1,11.91,1.63c1,.15,2,.41,3,.67.51.13,1,.25,1.53.39l1.43.42,2.87.86,2.8.9c14.89,4.87,29.47,10.24,44.07,15.74s29.12,11.2,43.61,17c9.75,3.3,19.47,6.7,29.25,10.16,4.88,1.74,9.84,3.56,14.56,5.19a145.08,145.08,0,0,0,14.05,4.11c-2.26-.72-4.56-1.54-6.89-2.4-3.71-1.39-7.43-2.94-11.18-4.54l-11.46-4.82q-11.41-4.69-22.61-9c-15-5.76-29.64-11.17-44.36-16.34S161,286.69,145.87,281.89c-3.79-1.2-7.61-2.37-11.61-3.46l-3.24-.76-3.08-.51c-1-.17-2-.36-3.08-.5l-3.12-.35a121.14,121.14,0,0,0-25.26-.08,13.66,13.66,0,0,1-3.35.17c-.19-.11,1-.37,2.67-.56a121.86,121.86,0,0,1,24.66-.27l3,.33c1,.1,2,.21,3,.39l3,.48,1.5.24c.51.09,1,.23,1.58.35,4.25,1,7.8,2.12,11.58,3.25,14.79,4.61,29.29,9.53,44.33,14.89,12.46,4.42,24.56,8.87,36.43,13.29s23.52,8.8,35,13.2c-11.6-4.89-23.15-9.51-34.68-14s-23-8.77-34.59-12.94-23.1-8.29-34.82-12.22c-5.86-2-11.74-3.9-17.88-5.72-1.57-.45-3.06-.91-4.9-1.32l-1.31-.31c-.45-.11-.83-.15-1.24-.23l-2.44-.41-2.44-.41-2.46-.29c-1.64-.17-3.27-.42-4.93-.52-2.3-.09-4.62-.34-6.08-.55a4.58,4.58,0,0,1-1.31.17l-5,.2c-1.71.1-3.44.3-5.2.45l-2.64.23-2.65.39c-1.77.27-3.57.51-5.35.8a22.17,22.17,0,0,1-3.83.54C85.46,275.91,86.26,275.64,87.78,275.3ZM198,108.91l-.26,0,.67-.09,1.47.53Zm-4,10h0l-.86-.25Zm55.06,82c-1.55.12-3.11.26-4.5.3a14,14,0,0,1-3.5-.12,6.33,6.33,0,0,1-2.18-.86,4,4,0,0,1-1.47-1.81,8.2,8.2,0,0,1-.21-4.63,11.1,11.1,0,0,1,.27-1.14,5.19,5.19,0,0,1,.17-.6c.08-.27.16-.65.23-1,.18-.66.41-1.33.6-2l.74-2a36.8,36.8,0,0,1,4.1-7.5,18.23,18.23,0,0,1,5.49-5.37,12.08,12.08,0,0,1,7.1-1.45c2.79.14,6,.93,10,1.2-3.89-.23-7-.95-9.78-1.08a12,12,0,0,0-6.92,1.31,13.45,13.45,0,0,0-2.18,1.59l-1.05.93-1,1.1a32.79,32.79,0,0,0-3.56,5.24,36.36,36.36,0,0,0-2.62,5.89,28.41,28.41,0,0,0-.87,3c-.14.42-.18.63-.26.91a8.41,8.41,0,0,0-.21.83,9.63,9.63,0,0,0-.18,3.43A4.25,4.25,0,0,0,239,200.1a5.08,5.08,0,0,0,1.57.76,6.14,6.14,0,0,0,.84.23,3,3,0,0,0,.48.08l.68,0C244.45,201.25,246.72,201.12,249.09,201Zm-59.76-91.52a12.14,12.14,0,0,1,3.47.31,5.34,5.34,0,0,1,1.32-1.32,39.3,39.3,0,0,1,4.33-2.69c-.47-.23-.11-.42,0-.59l.43-.45-5,2.4C192.4,107.83,190.89,108.81,189.33,109.43Zm-7.63,9.72h-.24l-.34-.73Zm.59,1.21.25-.11C182.69,120.49,182.56,120.48,182.29,120.36Zm2.29-1a1.77,1.77,0,0,0-.53,0ZM201.66,133l-2.2-3.07,2,3Z"/><path d="M232.69,20.13l.26.07a.5.5,0,0,1-.4.3c2.43.32,4.22-1.73,4.92-3.84a1.1,1.1,0,0,0-.91-2,1.36,1.36,0,0,1-.45,0,8.48,8.48,0,0,0-3.68-.25l.85.12a2.74,2.74,0,0,0-1.05.25l.28.22a2.54,2.54,0,0,0-.45,5.05Z"/><path d="M236.3,22.1c-.8,0-1.58,0-2.37-.09l-.22-.11.5.78,0-.06a4.48,4.48,0,0,1,1.6-2.42l.22-.29a.78.78,0,0,0,0-.58.82.82,0,0,0-1-.49l-.48.18c-1.33.15-3,1.1-2.85,2.8a2.79,2.79,0,0,0,.63,1.08,1.12,1.12,0,0,0,2-1l.34-.05-.11.32c-.11-.55.32-.94.54-1.39l.47-.44-1-1.07-.19.33s.14.09.14.1a10,10,0,0,1-1.13,1.83l-.48.88a.69.69,0,0,0,.5.79l.48.08-.24-.08c.92-.15,1.82-.44,2.74-.57a.28.28,0,0,0,.26-.31A.27.27,0,0,0,236.3,22.1Z"/><path d="M233.71,23.8a.64.64,0,0,0-.52.07V24l.36.07C233.8,24.14,233.82,24,233.71,23.8Z"/><path d="M233.18,24,233,24l.14.07v0Z"/><path d="M257.67,7a38,38,0,0,0,3.94-1.49c.05,0,.05-.1,0-.18s-.1-.12-.14-.1a41.38,41.38,0,0,1-3.94,1.48s0,.1,0,.17S257.63,7,257.67,7Z"/><path d="M271.07,9.49a.22.22,0,0,0,.11.19c.05,0,.1,0,.1-.06a.3.3,0,0,0-.12-.19C271.1,9.39,271.06,9.43,271.07,9.49Z"/><path d="M274.27,15.69a1.91,1.91,0,0,0-.22.72s0,.05-.08,0a.41.41,0,0,1,.08.33,15.19,15.19,0,0,1-2.61,4.15,1.21,1.21,0,0,1,.11.32c.09.36,0,.63-.21.67h-.18c-.66.13-1.3.31-2,.43a.76.76,0,0,1-.24.49,13.28,13.28,0,0,1-.86,1.86.91.91,0,0,1,.22.28c.15.27.15.53,0,.6l-.19.13.69-.12a.2.2,0,0,1,.11,0,5.27,5.27,0,0,0,.63-.38,15.21,15.21,0,0,0,4-5.53c0-.06.05-.08.12,0a.28.28,0,0,1,.09.2c-.35,2-.3,4.3-1.05,5.89a30.78,30.78,0,0,1-3,5.2c-1.6.91-2.72,2.41-4.08,3.82a19.38,19.38,0,0,1-1.41,1.33,1.23,1.23,0,0,1-.22.18l-.38.26-.75.52-1.51,1c-2,1.31-4.08,2.54-6.18,3.78a3.32,3.32,0,0,1-4.66-.63,3.37,3.37,0,0,1-.52-3l-.4.2-.72.16a2.83,2.83,0,0,1-2-.32l-.81-.42c-1.29-.93-2.81-1.46-4-2.52l-.17-.55-.2-.08a2.87,2.87,0,0,1-1.46-.95l-.31-.62a6.88,6.88,0,0,1-.56-2.26,2.4,2.4,0,0,1-.32-.8,3.42,3.42,0,0,1-1.3-1.87.48.48,0,0,1-.28-.63.45.45,0,0,1,.15-.21h0a4.09,4.09,0,0,0-.43-.25l-.29,0-.86.21a2.26,2.26,0,0,1-.77-.23c-.94-.89-.94-.89-1.16-1.38,0,0,0-.11,0-.17h-.47a1.2,1.2,0,0,1-.23-.11c-.15-.24-.15-.24-.25-.3A1.3,1.3,0,0,1,233,25c0-.36,0-.36,0-.44a.93.93,0,0,1,0-.18l.2-.29.74.44-.05-.27.25.25-.2-.25.28.06-.35-.11a2,2,0,0,0,.67-.27.84.84,0,0,0,.34-.24.56.56,0,0,1-.1-.13c.53-.17.53-.17,1-.31a1,1,0,0,1,.21.11.23.23,0,0,1,.17-.22l.27-.09,0-.07v0a2.6,2.6,0,0,1,.13-.24l0-.06h0l.57-1.06a2.83,2.83,0,0,1,.47-.1l-.18-.05c-.13-.05-.2-.33-.25-.33a17,17,0,0,0-3.74.84.41.41,0,0,1-.5-.66,9,9,0,0,1,7.07-4.16c.67-.21,1.32-.44,2-.68l-.16-.07.57-.08.06,0-.6-.24h-.32a26.43,26.43,0,0,1-4.71,1,22.24,22.24,0,0,1-2.57.2.37.37,0,0,1-.48-.2.38.38,0,0,1,.2-.48c2.09-1.6,4.84-2.8,7.51-2.35a2.16,2.16,0,0,1,1.37-.25h0l-.46-.21c.36-.09.69.12,1,.08l-.39-.44c1.71-.56,3.28-1.64,5.1-1.73a.59.59,0,0,1,.19-.05,8.23,8.23,0,0,1,1.18-1.64l-.47.05a1.41,1.41,0,0,1,.63-.8,3.12,3.12,0,0,1,3.27.93A48.57,48.57,0,0,0,257.18,7c.07-.07.2,0,.3.14s.12.31,0,.37a16.05,16.05,0,0,1-2.68,2.88,15,15,0,0,0,3.09-1l.32-.27a.68.68,0,0,1,.4-.13,12.9,12.9,0,0,0,3.39-2.31,29.83,29.83,0,0,0,2.36-2.82A12.36,12.36,0,0,1,267.89.06c.17-.16.5,0,.74.38s.3.78.13.94c-2.34,2.88-4.48,6-7.73,7.59l-1,.51.09.15a1.94,1.94,0,0,1,.23.6,8.7,8.7,0,0,1,1.28-.41,6.61,6.61,0,0,1,2.88-2.5,9.07,9.07,0,0,1,2.77-.24c.78-.75,1.52-1.57,2.32-2.3,0,0,.08,0,.14,0a.23.23,0,0,1,.05.2,13.37,13.37,0,0,1-1.28,2.23,2.38,2.38,0,0,1,.65.79,2.16,2.16,0,0,1,.29,1l.46-.23c.1,0,.25,0,.34.23s.11.36,0,.4l-1.85,1c-.62.61-1.24,1.18-1.89,1.73a3.1,3.1,0,0,1,.68.71h0l.33-.21A13.9,13.9,0,0,1,273,7.73s.11,0,.16.1,0,.16,0,.18a11.59,11.59,0,0,0-1.9,1.1h0a.27.27,0,0,1,.11.19c0,.06,0,.09-.1.06a.31.31,0,0,1-.11-.19,14.81,14.81,0,0,0-3,3,17.47,17.47,0,0,1,3.24-1.82l.18-.49s.09,0,.15,0a.21.21,0,0,1,.05.19l-.06.13c.22-.08.57.16.8.57s.24.85,0,1A19.2,19.2,0,0,1,271,12.83l-.14.18-.07.3c1-.34,2-.64,3-.92.07-.05.2,0,.29.18s.09.3,0,.35a27.84,27.84,0,0,1-3.93,3.9c-.15.93-.31,1.86-.46,2.79l.21-.1c1.69-1,2.1-3.59,3.53-4.9,0,0,.1,0,.15.08s.06.16,0,.18A17.21,17.21,0,0,0,272,17.49a16.22,16.22,0,0,0-1.22,2.25c1.15-.88,1.9-2.35,2.94-3.4,0-.07.11-.07.19,0a.27.27,0,0,1,0-.12,2.36,2.36,0,0,1,.23-.75c0-.05.07,0,.13,0A.22.22,0,0,1,274.27,15.69Zm-31.73,6.66-.11-.05.3,0,.64.42ZM240,26.68h0l-.37-.23Zm16.13-16.1a4.55,4.55,0,0,1-2.26.59l.42-.37C254.92,10.7,255.54,10.63,256.17,10.58Zm-17.43,11a5.83,5.83,0,0,1,1.47.6,2.15,2.15,0,0,1,.64-.48,19.18,19.18,0,0,1,2-.83c-.2-.16,0-.22,0-.29l.2-.18c-.74.22-1.48.43-2.24.63A17.4,17.4,0,0,1,238.74,21.54Zm-4.07,3.39-.1-.05-.06-.38Zm.11.64h.12C234.94,25.69,234.88,25.67,234.78,25.57Zm1.08-.09a.73.73,0,0,0-.21-.1Zm5.89,8.88-.57-1.76.5,1.72Z"/></g></g></svg>