<svg xmlns="http://www.w3.org/2000/svg" viewBox="0 0 372.26 322.79"><g id="Layer_2" data-name="Layer 2"><g id="Layer_1-2" data-name="Layer 1"><path d="M174.92,32.35l.63-.07a1.48,1.48,0,0,1-.81.95,12.8,12.8,0,0,0,6.9-4.5,20.67,20.67,0,0,0,3.71-7c1.3-.86,1.84-2.33,1.2-3.31s-2.27-1.07-3.65-.19a5.81,5.81,0,0,1-1.1.29,24.35,24.35,0,0,0-9.32,2.19l2.18-.42a9.81,9.81,0,0,0-2.61,1.35l.75.25c-3.54.86-6.37,4.17-6.09,7.21s3.37,4.61,6.69,3.65Z"/><path d="M184,33.58c-1.8.57-3.59,1.09-5.42,1.62l-.54-.05,1.49,1.2-.07-.11c-.11-2.13,1.25-4.31,2.69-6.16l.44-.74a1.46,1.46,0,0,0-.13-1.2,1.84,1.84,0,0,0-2.59-.25l-1.08.73c-3.12,1.3-6.81,4.75-5.49,8.1.31.76,1.27,1.14,2,1.65a2.67,2.67,0,0,0,3.63-.18,2.46,2.46,0,0,0,.47-3.45l.75-.36c0,.24-.07.48-.11.72-.5-1,.32-2.15.67-3.24l.93-1.25-2.75-1.44-.33.82a2,2,0,0,1,.36.11,35,35,0,0,1-1.87,4.65L176.37,37a1.27,1.27,0,0,0,1.52,1.18l1.13-.23-.58.05c2-1.07,3.87-2.35,5.89-3.28a.71.71,0,0,0,.46-.8A.56.56,0,0,0,184,33.58Z"/><path d="M179,39a1.75,1.75,0,0,0-1.11.56c0,.17,0,.26,0,.31l.85-.15C179.35,39.64,179.31,39.28,179,39Z"/><path d="M177.89,39.89l-.35.06.34,0,0-.06Z"/><path d="M362,163.51a105,105,0,0,1,7,21.55,122,122,0,0,1,2.63,21.68A110.58,110.58,0,0,1,370.16,229a85.88,85.88,0,0,1-7.21,22.9l-.67,1.43-.8,1.43-1.63,2.83L359,259l-.91,1.33c-.62.89-1.21,1.78-1.86,2.65a70.42,70.42,0,0,1-8.89,9.75A63.57,63.57,0,0,1,324.24,286a66.69,66.69,0,0,1-13,2.73c-1.09.1-2.19.19-3.28.27l-3.29.09c-2.13,0-4.22-.06-6.27-.24A94.61,94.61,0,0,1,275.94,284a12.5,12.5,0,0,0-3.49-.9,8.15,8.15,0,0,0,2.87,1.31,96.74,96.74,0,0,0,22.54,5c1,.07,2.07.16,3.11.21l3.17.08c2.19,0,4.42-.09,6.62-.32a67.16,67.16,0,0,0,13.09-2.61,64,64,0,0,0,23.42-13.14,66.4,66.4,0,0,0,9.05-9.73c.7-.86,1.29-1.76,1.91-2.65s1.26-1.76,1.79-2.73l1.65-2.84c.52-1,1.13-1.92,1.54-2.87a84.89,84.89,0,0,0,7.43-23,111,111,0,0,0,1.58-22.34,122.78,122.78,0,0,0-2.5-21.78A106.86,106.86,0,0,0,362.88,164a18.68,18.68,0,0,0-2.15-3.77C360.53,160.23,361.1,161.66,362,163.51Z"/><path d="M79.46,208.75c1.07-.33,1-.45-.15-.29a20.65,20.65,0,0,0-3.77.87c-.88.34-.8.48.17.29C76.84,209.39,78.57,209.05,79.46,208.75Z"/><path d="M87.78,196.68l2.59-.53,2.59-.37L98,195l4.91-.47,2.37-.24,2.32-.12c1.14,0,2.42,0,3.38.05-.41-.2,1-.49,3.59-.36l4.85.17,4.87.44c1.63.12,3.24.42,4.87.64l2.44.36c.85.16,1.77.38,2.66.57,3.44.82,6.39,1.68,9.44,2.58s6,1.84,9,2.78c11.95,3.79,23.86,7.89,35.83,12.15s23.94,8.66,35.9,13.21,23.92,9.17,35.8,13.94a6.56,6.56,0,0,1,2.23.29,60.25,60.25,0,0,1,7.26,2.31c2.88,1.08,6,2.37,9.16,3.66q2.32,1,4.61,1.9c2.31.87,4.58,1.66,6.81,2.32a65.21,65.21,0,0,0,6.51,1.57,43.66,43.66,0,0,0,6.16.69c1,.06,1.93,0,2.86,0s1.86-.13,2.78-.28a29,29,0,0,0,18.77-10.79c.45-.64.81-1.41,1.26-2.14s.74-1.56,1.16-2.35a23.14,23.14,0,0,0,1.15-2.59l.58-1.38c.17-.5.34-1,.5-1.52,4.05-13.89,2.68-31.86-2.63-46.71.16,1,.1,1.63-.14,1.69s-.85-.92-1.47-2.22c-.31-.66-.62-1.45-1-2.23s-.72-1.73-1.12-2.57-.78-1.71-1.22-2.49-.83-1.59-1.31-2.29c.34.49.58,1.12.89,1.67a17.69,17.69,0,0,1,.84,1.75l.81,1.83.74,2,.37,1c.12.35.22.71.32,1.07l.65,2.12c.38,1.46.75,2.94,1.07,4.43.18.87.32,1.68.43,2.42A87.51,87.51,0,0,1,331,214.45c-.35,7.44-1.73,14.56-4.22,19.89a13.08,13.08,0,0,1-.95,1.91,16.65,16.65,0,0,1-1,1.82l-.57.9c-.19.29-.41.55-.61.84s-.4.56-.62.83l-.66.77a27.54,27.54,0,0,1-2.79,2.82,26.91,26.91,0,0,1-6.61,4.07c-.63.21-1.21.51-1.86.68l-.95.31-1,.24a28.92,28.92,0,0,1-8.42.75,53,53,0,0,1-10.06-1.58,115.1,115.1,0,0,1-11.15-3.47c-3.9-1.4-7.78-3-12.09-4.68s-8.43-3.35-12.63-5c-8.4-3.29-16.82-6.43-25.22-9.53s-16.79-6.13-25.19-9.1-16.81-5.85-25.24-8.69a28.42,28.42,0,0,1-3.75-1.46c-.6-.36-.42-.48.83-.09l31.4,9.63c10.26,3.22,20.44,6.42,30.76,9.78S259.12,233.06,270,237c2.77,1,5.3,1.92,7.85,2.79s5,1.67,7.43,2.38a67.61,67.61,0,0,0,13.42,2.77c.6.06,1.18.08,1.75.1s1.12,0,1.66,0,1.06-.06,1.58-.07.92-.12,1.38-.16a19.42,19.42,0,0,0,12.65-7.29c.24-.35.52-.65.75-1s.48-.72.73-1.09.44-.8.67-1.18.35-.81.55-1.19a22.76,22.76,0,0,0,1.07-2.59A9.19,9.19,0,0,0,322,229c.15-.51.31-1,.47-1.53A59.56,59.56,0,0,0,324,212.51a77.74,77.74,0,0,0-2-16.38,68.47,68.47,0,0,0-2.28-7.61l-.66-1.77-.73-1.63-.35-.82-.37-.68-.72-1.37c-.52-.79-1-1.68-1.49-2.35a23.93,23.93,0,0,0-1.5-2.07,9,9,0,0,1-.79-1c-.28-.31-.59-.6-.86-.92s-.64-.61-.94-.93a8.77,8.77,0,0,0-1-.95l-.54-.49c-.18-.17-.41-.33-.61-.5-.43-.33-.8-.68-1.32-1s-.91-.71-1.46-1.07l-1.63-1.09c-2.29-1.51-5.09-3.09-8.22-4.84l-1.22-.72-1.29-.74-1.28-.75-1.05-.63-2-1.24-2.06-1.21c-2.78-1.53-5.62-3-8.59-4.33A103.23,103.23,0,0,0,259.5,149c-1.79-.42-3.61-.82-5.53-1.2l-6-1.15c-2.08-.39-4.35-.85-6.84-1.4-.66-.16-1.24-.28-1.94-.47l-1.06-.29-.61-.16-.16,0c-.05,0-.08-.13-.13-.19a.36.36,0,0,0-.07-.1l-.08,0-.16-.05c-.86-.27-1.73-.52-2.58-.81s-1.66-.67-2.46-1.06-1.54-.87-2.35-1.24l-1.21-.56a2.45,2.45,0,0,1-.58-.3l-.5-.44-1-.88c-.32-.31-.6-.64-.91-1a18.1,18.1,0,0,1-1.68-2c-.52-.71-1.09-1.32-1.64-2l-.21-.24-.14-.3-.27-.59-.56-1.2c-.33-.81-.59-1.64-.89-2.46-.15-.41-.3-.82-.41-1.24l-.17-.63c0-.22,0-.46-.09-.68-.1-.92-.2-1.83-.27-2.72l-.12-1.35a7,7,0,0,1-.06-1.37l.13-2.79a4.1,4.1,0,0,1,.28-1.39l.41-1.38c.59-1.88,1-3.64,1.48-5.45,0-.24.4-.39.43-.6l.23-.59.21-.49.18-.43c.24-.57.49-1.14.76-1.68a58.14,58.14,0,0,1,7.65-12c.72-.93,1.57-1.82,2.37-2.71s1.7-1.75,2.7-2.61a32,32,0,0,1,3.14-2.47,28,28,0,0,1,3.59-2.16l.93-.5,1-.41,2-.79c.67-.27,1.38-.39,2.06-.6a20.43,20.43,0,0,1,2.06-.49c1.34-.22,2.73-.47,4-.55.62,0,1.3-.14,1.87-.16l1.74-.11,1.62-.1,1.53-.12a26,26,0,0,0,2.59-.39,7.49,7.49,0,0,0,1.09-.29l.89-.34a2.46,2.46,0,0,0,.7-.43c.19-.16.45-.24.56-.43a3.53,3.53,0,0,0,.63-1l.2-.47.17-.59c.11-.27.24-.84.36-1.25s.27-1,.41-1.45a57.12,57.12,0,0,0,1.46-7.28,21.49,21.49,0,0,0-.08-7.14,10,10,0,0,0-.91-2.61,7.8,7.8,0,0,0-1.29-1.73,13.56,13.56,0,0,0-2.27-1.78,24.54,24.54,0,0,0-3.18-1.75,40.75,40.75,0,0,0-9.14-2.94,24,24,0,0,0-4.78-.55,14.41,14.41,0,0,0-3.08.56,23.45,23.45,0,0,0-2.79,1.2c-.95.52-1.89,1.06-2.92,1.76-.24.15-.52.38-.77.55s-.52.36-.79.58l-.81.62-.13.12-.36.38c-.24.24-.48.47-.73.75l-.74.76-.75.8c-1,1.08-2.06,2.17-3.12,3.38s-2.14,2.45-3.22,3.8c-1.32,2.31-4.46,2.43-7.17.1a7.91,7.91,0,0,1-2.73-5.42l-.52.53-1.06.56a4.57,4.57,0,0,1-3.54.23l-1.64-.42c-2.81-1.17-5.86-1.39-8.81-2.71l-.71-1-.41-.05a6,6,0,0,1-3.37-.95l-1-1a13.34,13.34,0,0,1-2.54-4,4.85,4.85,0,0,1-1.12-1.36A6.74,6.74,0,0,1,190,44.8a.93.93,0,0,1-.94-1,1.07,1.07,0,0,1,.22-.54h0a8.2,8.2,0,0,0-1-.2l-.58.29-1.69,1.06a5.22,5.22,0,0,1-1.75.12c-2.54-1-2.55-1-3.3-1.86a2.19,2.19,0,0,1-.12-.33c-.77.28-.82.3-1,.36a2.47,2.47,0,0,1-.55,0c-.48-.36-.48-.36-.73-.41a3.12,3.12,0,0,1-.37-.27c-.24-.72-.24-.72-.37-.85a1.51,1.51,0,0,1-.1-.38c.17-.47.24-.65.27-.73l1.87.27-.25-.5.7.29-.58-.33.65-.11-.83.05a5.37,5.37,0,0,0,1.34-1.07,2,2,0,0,0,.63-.76,1.37,1.37,0,0,1-.28-.2c1.1-.74,1.1-.73,2.2-1.43a3.74,3.74,0,0,1,.52.09.58.58,0,0,1,.28-.58l.56-.37c0-.06,0-.11,0-.16l0,0,.19-.59,0-.13h0c.14-.41.32-1,.89-2.53a7.76,7.76,0,0,1,1-.52h-.44c-.3,0-.54-.52-.66-.49a38.58,38.58,0,0,0-8.23,4.49,1.09,1.09,0,0,1-1.36.32.81.81,0,0,1-.08-1.25c2.2-6.45,8.74-11.31,15.56-13.37,1.58-.8,3.15-1.62,4.77-2.4l-.37-.07,1.38-.43.13-.07L196.12,18l-.77.17c-3.65,2-7.61,3-11.4,4.72-2,.93-4.11,1.41-6.18,2.21a.88.88,0,0,1-1.22-.05.86.86,0,0,1,.37-1.13,34.92,34.92,0,0,1,8.49-6.45,24.49,24.49,0,0,1,10-3,7.55,7.55,0,0,1,3.51-1.12l.06,0L197.84,13c.93-.33,1.76,0,2.66-.25l-.88-.73c1.12-.45,2.24-1,3.38-1.44s2.28-1,3.45-1.45a24.18,24.18,0,0,1,7.17-1.78,4.82,4.82,0,0,1,.52-.11,19.59,19.59,0,0,1,2.45-1.92l.69-.44.09,0,0,0h0l.09,0c.54-.21,1.11-.38,1.67-.56,1.13-.37,2.25-.74,3.45-1A66.13,66.13,0,0,1,238,.81a68.79,68.79,0,0,0-10.86,1.06c-1.78.29-3.48.69-5.2,1.1-.87.2-1.68.45-2.53.68L218.09,4l-.63.18-.25.08h0l0,0,.29-.11.66-.23,1.34-.44c.89-.29,1.77-.58,2.71-.83L225,1.91l2.85-.62A65.35,65.35,0,0,1,239.76,0a59.3,59.3,0,0,1,12.46,1.11,63.34,63.34,0,0,1,6.18,1.53c2,.69,4.08,1.38,5.82,2.16a78.21,78.21,0,0,1,13.55,7.59A68.34,68.34,0,0,1,290,23.15a50.79,50.79,0,0,1,9.23,14.77,42.78,42.78,0,0,1,3.08,16.9,47.09,47.09,0,0,1-2.64,14.39,47.71,47.71,0,0,1-5.49,11.23,41.9,41.9,0,0,1-7.34,8.35c-.64.58-1.39,1.11-2.05,1.63s-1.46,1-2.16,1.42a20.56,20.56,0,0,1-2.12,1.24l-2.18,1-.93.44-1,.36c-.67.22-1.34.44-2,.64a15.7,15.7,0,0,1-2,.42,18.13,18.13,0,0,1-2,.28,30.27,30.27,0,0,1-3.79.05c-.59,0-1.21-.06-1.77-.11l-1.63-.21c-.56,0-1.06-.13-1.55-.21l-1.47-.23c-.88-.13-1.85-.28-2.65-.36L256.17,95c-.41,0-.76,0-1.14,0a12,12,0,0,0-2.12.12c-2.65.29-4.66,1.75-6.64,3.84a30.53,30.53,0,0,0-5,7.9c-.36.73-.63,1.49-.93,2.23s-.53,1.5-.74,2.25a21.12,21.12,0,0,0-.56,2.25c0,.08,0,.2-.06.26l-.06.16c0,.11,0,.18-.06.26l-.12.5a6.59,6.59,0,0,0,.14,4,3,3,0,0,0,1.38,1.43,4.45,4.45,0,0,0,.94.36,2.68,2.68,0,0,0,.49.11,2.18,2.18,0,0,0,.6.07c1.29,0,2.83-.12,4.54-.32l5.34-.61A182.39,182.39,0,0,1,276.41,118a117.08,117.08,0,0,1,12.89.76c2.17.23,4.33.55,6.49.9s4.31.81,6.44,1.33,4.26,1.06,6.39,1.65c1.87.52,3.68,1,5.63,1.64a120,120,0,0,1,12.16,4.37,75.52,75.52,0,0,1,13,7.1,67.86,67.86,0,0,1,12.08,10.57,46.69,46.69,0,0,1,3.65,4.76,13.11,13.11,0,0,1,1.51,2.85c0,.27-.47-.16-1.26-1.09-.39-.46-.86-1.05-1.4-1.74L352,148.84a66.47,66.47,0,0,0-8.11-8.07c-1.47-1.18-3-2.33-4.49-3.39s-3.06-2.08-4.61-2.93l-2.32-1.33L330.19,132c-1.56-.81-3.06-1.42-4.59-2.11-3-1.24-6-2.34-8.81-3.24l-2.12-.68-2.06-.62c-1.39-.42-2.68-.78-4-1.15l-4.49-1.23-4.59-1.06A116.89,116.89,0,0,0,281,119.5a138.41,138.41,0,0,0-18.05.35c-5.82.45-11.48,1.22-16.44,1.66-.62.06-1.22.11-1.79.14s-1.13.06-1.67.08c-.28,0-.53,0-.76,0a5,5,0,0,1-.6,0c-.28-.08-.57-.09-.84-.19a4,4,0,0,1-2.71-2,4.11,4.11,0,0,1-.44-1.69,3.13,3.13,0,0,1-.07-.86,6.41,6.41,0,0,1,0-.88,10.41,10.41,0,0,1,.31-1.74c.07-.31.12-.48.26-1a14.57,14.57,0,0,1,.42-1.67,11.9,11.9,0,0,0-.37,1.39c-.1.52-.24.79-.27,1a14.76,14.76,0,0,0-.35,1.46,9.3,9.3,0,0,0-.15,1.5v.37l.05.37a1.68,1.68,0,0,1,0,.39c0,.13.05.25.07.37a3.83,3.83,0,0,0,1.51,2.54,5.47,5.47,0,0,0,.65.41c.24.08.45.22.7.28a6.25,6.25,0,0,0,.74.21l.37.09c.15,0,.26,0,.48,0a56.72,56.72,0,0,0,5.84-.24l6.74-.57c4.66-.44,9.59-.78,14.6-.86a116.76,116.76,0,0,1,30.8,3.41c1.27.33,2.57.64,3.83,1l3.77,1.15c2.24.7,4.52,1.45,6.89,2.27a103.32,103.32,0,0,1,14.87,6.37,66.43,66.43,0,0,1,15.29,10.89A58.2,58.2,0,0,1,356,160.74c1,1.71,1.74,3.44,2.59,5.17s1.43,3.41,2.14,5.11,1.19,3.4,1.78,5.1,1,3.4,1.49,5.1a116.61,116.61,0,0,1,3.52,20.47c1.09,13.7.21,27.77-4.91,42.14-.33.9-.61,1.79-1,2.69l-1.19,2.68c-.4.89-.79,1.78-1.22,2.67l-1.47,2.64-1.51,2.63-1.67,2.49c-.55.84-1.16,1.64-1.78,2.44s-1.22,1.62-1.9,2.39a64.55,64.55,0,0,1-8.85,8.63,59.58,59.58,0,0,1-10.58,6.76,62.23,62.23,0,0,1-24.17,6.47c-1,0-2.1.1-3.14.12l-3,0c-2-.08-4-.21-5.94-.43a90.32,90.32,0,0,1-11.29-2,131.82,131.82,0,0,1-17-5.46c-5.17-2-10.05-4.18-14.47-6.06-9-3.9-18-7.58-26.93-11.33s-17.93-7.4-27.07-11-18.41-7.42-28-11.15l-20-7.72-9.77-3.68-4.82-1.75-4.7-1.65-2.18-.71c-.69-.22-1.57-.53-2-.62l-.73-.22a6.08,6.08,0,0,0-.83-.23l-2.13-.45-2.14-.46-2.14-.33c-1.44-.22-2.86-.5-4.31-.6s-2.87-.33-4.32-.4l-4.35-.19c-1.45,0-2.92,0-4.38,0l-2.19,0-2.2.17a117.78,117.78,0,0,0-17.74,2.56l-4.46,1.13c-1.49.37-3,.7-4.47,1.21l-4.46,1.41c-.74.24-1.5.44-2.24.71l-2.22.85c-3,1.13-6,2.12-8.93,3.49s-6,2.49-8.9,4c-6,2.77-11.84,6-17.79,9.39-3.1,1.9-6.15,3.66-8.58,4.92A25.49,25.49,0,0,1,13,252.15c-.51.06.29-.74,2-2.08.43-.33.9-.71,1.43-1.09l1.77-1.18c1.27-.84,2.71-1.77,4.27-2.74A225,225,0,0,1,60,225.83a147.31,147.31,0,0,1,19.45-6.13A124,124,0,0,1,99,216.8a104.14,104.14,0,0,1,19.36.81c1.59.27,3.19.42,4.77.8l2.37.49c.37.09.82.16,1.15.25l.88.26.88.25,1.17.38,2.39.77,5,1.75c6.83,2.44,13.76,5.08,20.69,7.76s13.89,5.38,20.84,8.16c13.89,5.56,27.82,11.19,41.73,17l20.87,8.81,10.43,4.5,10.63,4.63a139.73,139.73,0,0,0,24.37,8.34,80.33,80.33,0,0,0,14.2,2c1.24,0,2.48.06,3.74,0s2.58-.06,3.87-.17a61.16,61.16,0,0,0,7.71-1.1,59.5,59.5,0,0,0,14.8-5.19,58.48,58.48,0,0,0,12.95-9,61.69,61.69,0,0,0,10-11.9c.71-1.07,1.32-2.23,2-3.35a38.57,38.57,0,0,0,1.81-3.41,67.29,67.29,0,0,0,2.9-6.92,89.31,89.31,0,0,0,4.9-23.83,114.16,114.16,0,0,0-.72-23c-.08.21-.17.41-.28.42-.46.06-1-1.33-1.74-3.65a109.64,109.64,0,0,1,1.1,25.77,86.83,86.83,0,0,1-6,26.3l-2,4.58c-.7,1.52-1.58,3-2.38,4.51s-1.79,2.88-2.7,4.31-2,2.77-3.12,4.09a60.41,60.41,0,0,1-7.34,7.41,59.43,59.43,0,0,1-8.69,6,58,58,0,0,1-20,6.73,63.92,63.92,0,0,1-10.46.57,78.68,78.68,0,0,1-10-1c-12.94-2.2-24-7-34.2-11.55l-30.31-13.49L186,238.65c-13.16-5.88-26.1-11.58-39.17-17.09-4.21-1.56-8.41-3.08-12.53-4.49-1.06-.38-2-.65-3-1l-1.5-.48-1.24-.35c-.43-.11-.78-.24-1.27-.34l-1.51-.3-3-.62a102.36,102.36,0,0,0-24.5-1.29c-2.06.2-4.13.34-6.19.57l-6.19.93c-4.1.85-8.23,1.65-12.31,2.87l-3.07.84c-1,.3-2,.68-3,1-2,.7-4.06,1.34-6.08,2.08-4,1.67-8.06,3.09-12,5a19.49,19.49,0,0,1-3.11,1.26c-.5.11.13-.3,1.4-.91A153.55,153.55,0,0,1,81.48,214c1.47-.32,2.92-.72,4.39-1l4.43-.73c.73-.12,1.47-.26,2.21-.36l2.23-.23,4.46-.45a115.91,115.91,0,0,1,17.87.26c-3.7-.79-5.94-1.58-5.6-2.13.17-.32,1-.51,2.37-.65.69-.07,1.51-.12,2.45-.15.46,0,1,0,1.49,0l1.65.09c-.69-.1-1.38-.23-2.07-.3l-2.09-.2c-1.39-.12-2.78-.31-4.18-.37-2.8-.08-5.59-.29-8.4-.14-1.73.05-3.29,0-4.4,0s-1.79-.07-1.75-.22.72-.37,1.84-.57a36.87,36.87,0,0,1,4.31-.29c2.89-.16,5.78.06,8.66.13,1.44.08,2.87.25,4.31.37l2.15.2,2.13.33c1.42.23,2.86.39,4.27.69l4.22.87c.71.15,1.3.36,2,.53l1,.27,1,.34c1.38.47,2.75.88,4.15,1.39,11.2,3.94,22.42,8.37,33.58,12.8q40.44,15.48,80.32,32.39c-3.48-2-6-3.77-7-4.94v0l-12.35-5.23q-28.54-11.26-57.56-22.24c-9.67-3.62-19.37-7.25-29.11-10.68l-3.66-1.28-3.64-1.22c-1.22-.42-2.43-.79-3.63-1.16l-1.8-.56L130,209c-1.08-.33-2.36-.52-3.58-.77s-2.44-.52-3.68-.66c-2.48-.33-4.94-.75-7.44-.88a113.25,113.25,0,0,0-30,1.53A148.41,148.41,0,0,0,56.09,217l-3.55,1.47-1.78.74-1.74.83-7,3.33c-2.3,1.18-4.55,2.45-6.83,3.67l-3.41,1.84-3.33,2-6.66,4-6.5,4.34c-4.39,2.81-8.52,6-12.77,9.07A13.28,13.28,0,0,1,0,250a11.25,11.25,0,0,1,2.09-1.74l7.64-5.6c1.25-1,2.59-1.8,3.9-2.69l3.92-2.63,3.92-2.63,4-2.44,4-2.45,2-1.22,2.07-1.13a184.17,184.17,0,0,1,34-15.21l-.1,0c-1,.25-1.19.18-.18-.27A22.06,22.06,0,0,1,71,210.92c1.13-.22,1.07-.06.2.27a126.37,126.37,0,0,1,33.69-5.36A108.55,108.55,0,0,1,121.83,207c.69.11,1.4.18,2.09.31l2.08.4,2.08.39c.34.07.7.13,1,.21l1,.25c.65.19,1.26.32,1.95.53l2,.63c1.36.41,2.73.87,4.1,1.33,11,3.69,21.93,7.79,32.83,11.84s21.72,8.23,32.52,12.39c-19.92-8.07-39.91-16.05-60-23.4-2.51-.93-5-1.78-7.55-2.65L132.19,208c-.62-.19-1.21-.34-1.82-.51a17.24,17.24,0,0,0-1.85-.46l-3.85-.78c-1.28-.29-2.58-.41-3.87-.62-2.58-.45-5.19-.62-7.8-.87a115,115,0,0,0-31.32,2.17l-3.34.87c-1.11.3-2.23.53-3.32.92l-6.62,2.14a28.21,28.21,0,0,1-3.31,1c-.37,0,.46-.41,1.69-.87s2.45-.82,3.68-1.24c-7.68,2.25-13.63,4.1-13.74,3.49.08-.39,1.66-1.43,4.29-2.55,1.31-.58,2.86-1.23,4.59-1.9l1.32-.52,1.41-.44,3-.89a126.21,126.21,0,0,1,33.4-5.44c1.41-.06,2.83,0,4.24,0s2.83,0,4.24.14l4.23.34c1.41.08,2.8.35,4.2.52,2.82.31,5.58.94,8.36,1.46,2.76.68,5.45,1.54,8.13,2.43,2.33.75,4.66,1.48,7,2.27s4.71,1.42,7.05,2.16q-3.08-1.17-6.17-2.3c-2.06-.77-4.12-1.52-6.2-2.23s-4.17-1.42-6.27-2.1c-1.06-.33-2.15-.61-3.23-.91l-3.25-.67a109.22,109.22,0,0,0-26.39-2,131.68,131.68,0,0,0-26.14,3.95l-6.35,1.83-1.59.46-1.56.54-3.11,1.1c-4.18,1.37-8.19,3.18-12.24,4.87-1.4.57-2.64,1.21-3.59,1.58a4.3,4.3,0,0,1-1.66.52c-.15-.14,1.92-1.49,4.68-2.75l5.31-2.41,2.67-1.2c.89-.37,1.81-.71,2.72-1.06l5.47-2.1c1.83-.7,3.72-1.22,5.59-1.83,3.7-1.29,7.55-2.13,11.37-3.11,1.93-.44,3.88-.74,5.82-1.12,1-.17,1.94-.38,2.92-.53l3-.36c3.93-.57,7.91-.75,11.89-.94l6,0c2,.06,4,.23,6,.34A119.57,119.57,0,0,1,129.64,200a31,31,0,0,1,3,.67c.51.13,1,.25,1.53.39l1.43.42,2.87.85,2.8.9c14.89,4.87,29.47,10.25,44.07,15.75S214.5,230.16,229,236c9.75,3.29,19.47,6.69,29.25,10.16,4.88,1.73,9.84,3.55,14.56,5.18a142.31,142.31,0,0,0,14.05,4.11c-2.26-.72-4.56-1.53-6.89-2.39-3.71-1.39-7.43-2.94-11.18-4.54l-11.46-4.82q-11.41-4.71-22.61-9c-15-5.77-29.64-11.17-44.36-16.35s-29.37-10.24-44.48-15c-3.79-1.2-7.61-2.37-11.61-3.46l-3.24-.77-3.08-.51c-1-.16-2-.35-3.08-.49l-3.12-.35a121.14,121.14,0,0,0-25.26-.08,13.42,13.42,0,0,1-3.35.16c-.19-.1,1-.36,2.67-.55a121.86,121.86,0,0,1,24.66-.27l3,.32c1,.1,2,.21,3,.39l3,.48,1.5.25c.51.09,1,.23,1.58.35,4.25,1,7.8,2.12,11.58,3.24,14.79,4.61,29.29,9.53,44.33,14.89,12.46,4.43,24.56,8.87,36.43,13.29s23.52,8.81,35,13.21c-11.6-4.89-23.15-9.51-34.68-14s-23-8.76-34.59-12.94-23.1-8.28-34.82-12.21c-5.86-2-11.74-3.9-17.88-5.73-1.57-.44-3.06-.9-4.9-1.31l-1.31-.32c-.45-.11-.83-.15-1.24-.22l-2.44-.41-2.44-.41-2.46-.29c-1.64-.17-3.27-.43-4.93-.52-2.3-.1-4.62-.34-6.08-.55a5,5,0,0,1-1.31.17l-5,.19c-1.71.11-3.44.31-5.2.45l-2.64.24-2.65.39c-1.77.27-3.57.5-5.35.8a24.34,24.34,0,0,1-3.83.54C85.46,197.3,86.26,197,87.78,196.68ZM198,30.3l-.26-.05.67-.1,1.47.54Zm-4,10h0l-.86-.25Zm55.06,82c-1.55.12-3.11.25-4.5.3a14.46,14.46,0,0,1-3.5-.12,6.56,6.56,0,0,1-2.18-.87,3.93,3.93,0,0,1-1.47-1.8,8.2,8.2,0,0,1-.21-4.63,11.1,11.1,0,0,1,.27-1.14,4.69,4.69,0,0,1,.17-.6c.08-.27.16-.65.23-1,.18-.67.41-1.33.6-2l.74-2a36.8,36.8,0,0,1,4.1-7.5,18.39,18.39,0,0,1,5.49-5.38,12.15,12.15,0,0,1,7.1-1.45c2.79.14,6,.93,10,1.2-3.89-.22-7-.94-9.78-1.08a12.18,12.18,0,0,0-6.92,1.31,14.16,14.16,0,0,0-2.18,1.6l-1.05.93-1,1.1a32.35,32.35,0,0,0-3.56,5.24,36.25,36.25,0,0,0-2.62,5.88,28.57,28.57,0,0,0-.87,3c-.14.41-.18.62-.26.91a7.75,7.75,0,0,0-.21.83,9.58,9.58,0,0,0-.18,3.42,4.27,4.27,0,0,0,1.69,2.95,5.57,5.57,0,0,0,1.57.76,8,8,0,0,0,.84.23,4.79,4.79,0,0,0,.48.08l.68,0C244.45,122.63,246.72,122.51,249.09,122.34ZM189.33,30.81a12.51,12.51,0,0,1,3.47.32,5.18,5.18,0,0,1,1.32-1.32,37.85,37.85,0,0,1,4.33-2.69c-.47-.24-.11-.43,0-.59l.43-.46-5,2.4C192.4,29.22,190.89,30.19,189.33,30.81Zm-7.63,9.73h-.24l-.34-.73Zm.59,1.2.25-.11C182.69,41.88,182.56,41.87,182.29,41.74Zm2.29-1a1.71,1.71,0,0,0-.53,0Zm17.08,13.62-2.2-3.08,2,3Z"/><path d="M205.11,285.23a2.33,2.33,0,0,0,.07.25.51.51,0,0,1-.47-.19c1,2.26,3.64,2.76,5.81,2.29a1.09,1.09,0,0,0,1.26-1.79,1.74,1.74,0,0,1-.23-.39,8.54,8.54,0,0,0-1.64-3.3l.32.8a2.82,2.82,0,0,0-.75-.79l0,.36a2.53,2.53,0,0,0-4.58,2.17Z"/><path d="M205.24,289.33c-.41-.68-.77-1.38-1.13-2.08V287l-.42.83,0-.05a4.52,4.52,0,0,1,2.9.15l.36.05a.81.81,0,0,0,.5-.28.8.8,0,0,0-.1-1.14l-.4-.32c-.81-1.08-2.48-2.06-3.86-1a2.8,2.8,0,0,0-.6,1.09,1.11,1.11,0,0,0,1.85,1.24l.21.26-.32.07c.41-.38,1-.2,1.47-.24l.61.18.41-1.42h-.38a1.09,1.09,0,0,1,0,.17,11,11,0,0,1-2.15,0l-1,0a.68.68,0,0,0-.42.83l.17.46c0-.09,0-.16-.06-.24.6.71,1.31,1.34,1.89,2.06a.28.28,0,1,0,.46-.32Z"/><path d="M202.46,288a.65.65,0,0,0-.32-.42l-.13.06c0,.09.08.22.12.35S202.37,288.15,202.46,288Z"/><path d="M202,287.61l0-.15v.16h0Z"/><path d="M229.12,300.08a39.19,39.19,0,0,0,3.29,2.64s.11,0,.15-.09.05-.16,0-.18c-1.12-.83-2.22-1.7-3.27-2.65,0,0-.1,0-.15.08A.19.19,0,0,0,229.12,300.08Z"/><path d="M233.74,312.9a.29.29,0,0,0-.11.2c0,.06,0,.09.1,0a.31.31,0,0,0,.11-.19C233.84,312.88,233.79,312.87,233.74,312.9Z"/><path d="M230,318.8a2.11,2.11,0,0,0-.73.18s-.07,0-.07-.05a.39.39,0,0,1-.25.24,15.32,15.32,0,0,1-4.9-.14,2.75,2.75,0,0,1-.22.26c-.27.26-.53.32-.69.16l-.09-.16c-.45-.5-.93-1-1.37-1.47a.74.74,0,0,1-.54,0,12.29,12.29,0,0,1-2,.21,1,1,0,0,1-.13.33c-.16.26-.39.4-.51.31l-.21-.1.45.54a.13.13,0,0,1,.05.09,5.07,5.07,0,0,0,.65.35,15.31,15.31,0,0,0,6.82.68s.1,0,.09.08a.28.28,0,0,1-.13.18c-1.88.71-3.85,1.93-5.61,2.09a30.25,30.25,0,0,1-6,0c-1.6-.92-3.45-1.12-5.36-1.58-.65-.15-1.26-.33-1.86-.53a1.9,1.9,0,0,1-.27-.11l-.42-.19-.82-.39-1.63-.79c-2.16-1.08-4.26-2.23-6.39-3.41a3.31,3.31,0,0,1-1.82-4.33,3.35,3.35,0,0,1,2.31-2l-.38-.24-.5-.54a2.91,2.91,0,0,1-.75-1.91l-.05-.91c.15-1.59-.17-3.17.12-4.76l.39-.43,0-.21a2.8,2.8,0,0,1,.08-1.74l.37-.58a6.8,6.8,0,0,1,1.67-1.63,2.32,2.32,0,0,1,.52-.68,3.4,3.4,0,0,1,1-2.08.48.48,0,0,1,.39-.56.63.63,0,0,1,.27,0h0a4.16,4.16,0,0,0,0-.5,2.69,2.69,0,0,1-.18-.23l-.62-.63a2.18,2.18,0,0,1-.19-.78c.29-1.26.29-1.26.6-1.7a1.1,1.1,0,0,1,.14-.09c-.17-.31-.19-.33-.23-.42a.9.9,0,0,1,0-.25c.13-.26.13-.26.14-.37a1.56,1.56,0,0,1,.09-.2c.31-.19.31-.19.36-.27a.7.7,0,0,1,.16-.08l.34,0v.86l.21-.18-.09.34.11-.29.09.27-.07-.36c.38.35.38.35.56.44a.85.85,0,0,0,.38.17.65.65,0,0,1,.07-.16l.8.75a2.09,2.09,0,0,1,0,.24.23.23,0,0,1,.27,0l.22.18h.07v0h.34l1.19-.05a2.82,2.82,0,0,1,.33.36c0-.07,0-.13-.05-.19s.18-.33.15-.38a17.3,17.3,0,0,0-2.61-2.8.42.42,0,0,1-.23-.54.41.41,0,0,1,.54-.22,8.94,8.94,0,0,1,7.17,4q.78.69,1.59,1.35c0-.06,0-.11,0-.17l.35.45,0,0-.1-.64c-.06-.09-.12-.18-.17-.27a26.21,26.21,0,0,1-3.24-3.56c-.58-.65-1-1.42-1.47-2.11a.38.38,0,0,1-.07-.52.37.37,0,0,1,.51-.07c2.44,1,4.87,2.75,5.83,5.28a2.19,2.19,0,0,1,.92,1.05v0l0-.51c.25.27.25.66.46.95l.18-.56c1.35,1.19,3.08,2,4.08,3.52l.14.13a8.92,8.92,0,0,1,2,.19l-.29-.38a1.42,1.42,0,0,1,1,.14,3.12,3.12,0,0,1,.85,3.29,50.25,50.25,0,0,0,4.85,2c.09,0,.1.17,0,.32s-.21.26-.3.24a16.51,16.51,0,0,1-3.84-.85,14.58,14.58,0,0,0,2.46,2.13l.39.15a.6.6,0,0,1,.31.28,13.18,13.18,0,0,0,3.71,1.75,30.37,30.37,0,0,0,3.64.6,12.51,12.51,0,0,1,5,1.11c.22.07.24.44.05.83s-.53.66-.75.59c-3.67-.55-7.43-.83-10.47-2.81l-1-.64-.08.15a2.16,2.16,0,0,1-.4.51,9.23,9.23,0,0,1,1,.89,6.6,6.6,0,0,1,3.61,1.22,8.73,8.73,0,0,1,1.62,2.27c1,.28,2.12.5,3.15.83.05,0,.07,0,0,.13a.23.23,0,0,1-.14.15,13.14,13.14,0,0,1-2.58,0,2.53,2.53,0,0,1-.34,1,2.24,2.24,0,0,1-.71.75l.43.28c.08.07.08.24,0,.41s-.26.28-.35.22L231.6,311c-.83-.22-1.65-.47-2.45-.75a3.49,3.49,0,0,1-.26.95h0l.35.16a14,14,0,0,1,7,2.27s0,.1,0,.18-.11.13-.15.11a10.9,10.9,0,0,0-1.91-1.08h0a.27.27,0,0,1-.11.2c-.05,0-.1,0-.1,0a.27.27,0,0,1,.11-.2,15,15,0,0,0-4.06-1.06,17.14,17.14,0,0,1,3.21,1.87l.53-.09s.05.07,0,.15-.09.14-.14.14h-.14c.19.15.15.57-.08,1s-.62.64-.82.5a17.81,17.81,0,0,1-1.77-.82l-.23,0-.29.09c.78.66,1.54,1.36,2.29,2.07.07,0,.07.2,0,.35s-.22.23-.29.19a27.76,27.76,0,0,1-5.36-1.4l-2.63,1,.19.13c1.69,1,4.16,0,6,.56.05,0,.05.09,0,.16s-.11.14-.15.11a16.37,16.37,0,0,0-3.06,0,14.79,14.79,0,0,0-2.57.08c1.35.54,3,.45,4.43.81.08,0,.11.06.1.16l.09-.09a2.52,2.52,0,0,1,.77-.18s.07,0,0,.13A.23.23,0,0,1,230,318.8Zm-21.84-24a.41.41,0,0,0,0-.12l.13.27,0,.77Zm-5,.05h0c0-.25,0-.43,0-.43C203.2,294.63,203.19,294.77,203.19,294.89Zm22.05,5.73a4.5,4.5,0,0,1-1.65-1.65l.53.18A15.74,15.74,0,0,1,225.24,300.62ZM207,291.15a5.9,5.9,0,0,1,.23,1.57,2.31,2.31,0,0,1,.74.32,20.29,20.29,0,0,1,1.72,1.29c0-.25.17-.14.26-.13l.26.08c-.56-.52-1.12-1-1.68-1.61A16.89,16.89,0,0,1,207,291.15Zm-5-1.78,0-.11.3-.25Zm-.5.42.07.1C201.45,290,201.44,289.92,201.48,289.79Zm.63.88a1.19,1.19,0,0,0,0-.24Zm-4.68,9.58,1.23-1.38-1.22,1.3Z"/></g></g></svg>