<svg xmlns="http://www.w3.org/2000/svg" viewBox="0 0 603.64 322.79"><g id="Layer_2" data-name="Layer 2"><g id="Layer_1-2" data-name="Layer 1"><path d="M174.92,32.35l.63-.07a1.48,1.48,0,0,1-.81.95,12.8,12.8,0,0,0,6.9-4.5,20.67,20.67,0,0,0,3.71-7c1.3-.86,1.84-2.33,1.2-3.31s-2.27-1.07-3.65-.19a5.81,5.81,0,0,1-1.1.29,24.35,24.35,0,0,0-9.32,2.19l2.18-.42a9.81,9.81,0,0,0-2.61,1.35l.75.25c-3.54.86-6.37,4.17-6.09,7.21s3.37,4.61,6.69,3.65Z"/><path d="M184,33.58c-1.8.57-3.59,1.09-5.42,1.62l-.54-.05,1.49,1.2-.07-.11c-.11-2.13,1.25-4.31,2.69-6.16l.44-.74a1.46,1.46,0,0,0-.13-1.2,1.84,1.84,0,0,0-2.59-.25l-1.08.73c-3.12,1.3-6.81,4.75-5.49,8.1.31.76,1.27,1.14,2,1.65a2.67,2.67,0,0,0,3.63-.18,2.46,2.46,0,0,0,.47-3.45l.75-.36c0,.24-.07.48-.11.72-.5-1,.32-2.15.67-3.24l.93-1.25-2.75-1.44-.33.82a2,2,0,0,1,.36.11,35,35,0,0,1-1.87,4.65L176.37,37a1.27,1.27,0,0,0,1.52,1.18l1.13-.23-.58.05c2-1.07,3.87-2.35,5.89-3.28a.71.71,0,0,0,.46-.8A.56.56,0,0,0,184,33.58Z"/><path d="M179,39a1.75,1.75,0,0,0-1.11.56c0,.17,0,.26,0,.31l.85-.15C179.35,39.64,179.31,39.28,179,39Z"/><path d="M177.89,39.89l-.35.06.34,0,0-.06Z"/><path d="M362,163.51a105,105,0,0,1,7,21.55,122,122,0,0,1,2.63,21.68A110.58,110.58,0,0,1,370.16,229a85.88,85.88,0,0,1-7.21,22.9l-.67,1.43-.8,1.43-1.63,2.83L359,259l-.91,1.33c-.62.89-1.21,1.78-1.86,2.65a70.42,70.42,0,0,1-8.89,9.75A63.4,63.4,0,0,1,324.24,286a66.72,66.72,0,0,1-13,2.74c-1.09.1-2.19.19-3.28.27l-3.29.09c-2.13,0-4.22-.06-6.27-.24A94.61,94.61,0,0,1,275.94,284a12.5,12.5,0,0,0-3.49-.9,8.15,8.15,0,0,0,2.87,1.31,96.74,96.74,0,0,0,22.54,5c1,.07,2.07.16,3.11.21l3.17.08c2.19,0,4.42-.09,6.62-.32a66.45,66.45,0,0,0,13.09-2.62,63.88,63.88,0,0,0,23.42-13.13,66.4,66.4,0,0,0,9.05-9.73c.7-.86,1.29-1.76,1.91-2.65s1.26-1.76,1.79-2.73l1.65-2.84c.52-1,1.13-1.92,1.54-2.87a84.89,84.89,0,0,0,7.43-23,111,111,0,0,0,1.58-22.34,122.78,122.78,0,0,0-2.5-21.78A106.86,106.86,0,0,0,362.88,164a18.68,18.68,0,0,0-2.15-3.77C360.53,160.23,361.1,161.66,362,163.51Z"/><path d="M79.46,208.75c1.07-.33,1-.45-.15-.29a20.65,20.65,0,0,0-3.77.87c-.88.34-.8.48.17.29C76.84,209.39,78.57,209.05,79.46,208.75Z"/><path d="M87.78,196.68l2.59-.53,2.59-.37L98,195l4.91-.47,2.37-.24,2.32-.12c1.14,0,2.42,0,3.38.05-.41-.2,1-.49,3.59-.36l4.85.17,4.87.44c1.63.12,3.24.42,4.87.64l2.44.36c.85.16,1.77.38,2.66.57,3.44.82,6.39,1.68,9.44,2.58s6,1.84,9,2.78c11.95,3.79,23.86,7.89,35.83,12.15s23.94,8.66,35.9,13.21,23.92,9.17,35.8,13.94a6.56,6.56,0,0,1,2.23.29,60.25,60.25,0,0,1,7.26,2.31c2.88,1.08,6,2.37,9.16,3.65,1.55.68,3.09,1.31,4.61,1.91,2.31.87,4.58,1.66,6.81,2.32a65.21,65.21,0,0,0,6.51,1.57,43.66,43.66,0,0,0,6.16.69c1,.06,1.93,0,2.86,0s1.86-.13,2.78-.28a29,29,0,0,0,18.77-10.79c.45-.64.81-1.41,1.26-2.14s.74-1.56,1.16-2.35a23.14,23.14,0,0,0,1.15-2.59l.58-1.38c.17-.5.34-1,.5-1.52,4.05-13.89,2.68-31.86-2.62-46.71.15,1,.09,1.63-.15,1.69s-.85-.92-1.47-2.22c-.31-.66-.62-1.45-1-2.23s-.72-1.73-1.12-2.57-.78-1.71-1.22-2.49-.83-1.59-1.31-2.29c.34.49.58,1.12.89,1.67a17.69,17.69,0,0,1,.84,1.75l.81,1.83.74,2,.37,1c.12.35.22.71.32,1.07l.65,2.12c.38,1.46.75,2.94,1.07,4.43.18.87.32,1.68.43,2.42A87.51,87.51,0,0,1,331,214.45c-.35,7.44-1.73,14.56-4.22,19.89a13.08,13.08,0,0,1-.95,1.91,16.65,16.65,0,0,1-1,1.82l-.57.9c-.19.29-.41.55-.61.84s-.4.56-.62.83l-.66.77a27.54,27.54,0,0,1-2.79,2.82,26.91,26.91,0,0,1-6.61,4.07c-.63.21-1.21.51-1.86.68l-.95.31-1,.24a28.92,28.92,0,0,1-8.42.75,53,53,0,0,1-10.06-1.58,115.1,115.1,0,0,1-11.15-3.47c-3.9-1.4-7.78-3-12.09-4.68s-8.43-3.35-12.63-5c-8.4-3.29-16.82-6.43-25.22-9.53s-16.79-6.13-25.19-9.1-16.81-5.85-25.24-8.69a28.42,28.42,0,0,1-3.75-1.46c-.6-.36-.42-.48.83-.09l31.4,9.63c10.26,3.22,20.44,6.42,30.76,9.78S259.12,233.06,270,237c2.77,1,5.3,1.92,7.85,2.79s5,1.67,7.43,2.38a67.61,67.61,0,0,0,13.42,2.77c.6.06,1.18.08,1.75.1s1.12,0,1.66,0,1.06-.06,1.58-.07.92-.12,1.38-.16a19.42,19.42,0,0,0,12.65-7.29c.24-.35.52-.65.75-1s.48-.72.73-1.09.44-.8.67-1.18.35-.81.55-1.19a22.76,22.76,0,0,0,1.07-2.59A9.19,9.19,0,0,0,322,229c.15-.51.31-1,.47-1.53A59.56,59.56,0,0,0,324,212.51a77.74,77.74,0,0,0-2-16.38,68.47,68.47,0,0,0-2.28-7.61l-.66-1.77-.73-1.63-.35-.82-.37-.68-.72-1.37c-.52-.79-1-1.68-1.49-2.35a23.93,23.93,0,0,0-1.5-2.07,9,9,0,0,1-.79-1c-.28-.31-.59-.6-.86-.92s-.64-.61-.94-.93a8.77,8.77,0,0,0-1-.95l-.54-.49c-.18-.17-.41-.33-.61-.5-.43-.33-.8-.68-1.32-1s-.91-.71-1.46-1.07l-1.63-1.09c-2.29-1.51-5.09-3.09-8.22-4.84l-1.22-.72-1.29-.74-1.28-.75-1.05-.63-2-1.24-2.06-1.21c-2.78-1.53-5.62-3-8.59-4.33A103.23,103.23,0,0,0,259.5,149c-1.79-.42-3.61-.82-5.53-1.2l-6-1.15c-2.08-.39-4.35-.85-6.84-1.4-.66-.16-1.24-.28-1.94-.47l-1.06-.29-.61-.16-.16,0c-.05,0-.08-.13-.13-.19a.36.36,0,0,0-.07-.1l-.08,0-.16-.05c-.86-.27-1.73-.52-2.58-.81s-1.66-.67-2.46-1.06-1.54-.87-2.35-1.24l-1.21-.56a2.45,2.45,0,0,1-.58-.3l-.5-.44-1-.88c-.32-.31-.6-.64-.91-1a18.1,18.1,0,0,1-1.68-2c-.52-.71-1.09-1.32-1.64-2l-.21-.24-.14-.3-.27-.59-.56-1.2c-.33-.81-.59-1.64-.89-2.46-.15-.41-.3-.82-.41-1.24l-.17-.63c0-.22,0-.46-.09-.68-.1-.92-.2-1.83-.27-2.72l-.12-1.35a7,7,0,0,1-.06-1.37l.13-2.79a4.1,4.1,0,0,1,.28-1.39l.41-1.38c.59-1.88,1-3.64,1.48-5.45,0-.24.4-.39.43-.6l.23-.59.21-.49.18-.43c.24-.57.49-1.14.76-1.68a58.14,58.14,0,0,1,7.65-12c.72-.93,1.57-1.82,2.37-2.71s1.7-1.75,2.7-2.61a32,32,0,0,1,3.14-2.47,28,28,0,0,1,3.59-2.16l.93-.5,1-.41,2-.79c.67-.27,1.38-.39,2.06-.6a20.43,20.43,0,0,1,2.06-.49c1.34-.22,2.73-.47,4-.55.62,0,1.3-.14,1.87-.16l1.74-.11,1.62-.1,1.53-.12a26,26,0,0,0,2.59-.39,7.49,7.49,0,0,0,1.09-.29l.89-.34a2.46,2.46,0,0,0,.7-.43c.19-.16.45-.24.56-.43a3.53,3.53,0,0,0,.63-1l.2-.47.17-.59c.11-.27.24-.84.36-1.25s.27-1,.41-1.45a57.12,57.12,0,0,0,1.46-7.28,21.49,21.49,0,0,0-.08-7.14,10,10,0,0,0-.91-2.61,7.8,7.8,0,0,0-1.29-1.73,13.56,13.56,0,0,0-2.27-1.78,24.54,24.54,0,0,0-3.18-1.75,40.75,40.75,0,0,0-9.14-2.94,24,24,0,0,0-4.78-.55,14.41,14.41,0,0,0-3.08.56,23.45,23.45,0,0,0-2.79,1.2c-.95.52-1.89,1.06-2.92,1.76-.24.15-.52.38-.77.55s-.52.36-.79.58l-.81.62-.13.12-.36.38c-.24.24-.48.47-.73.75l-.74.76-.75.8c-1,1.08-2.06,2.17-3.12,3.38s-2.14,2.45-3.22,3.8c-1.32,2.31-4.46,2.43-7.17.1a7.91,7.91,0,0,1-2.73-5.42l-.52.53-1.06.56a4.57,4.57,0,0,1-3.54.23l-1.64-.42c-2.81-1.17-5.86-1.39-8.81-2.71l-.71-1-.41-.05a6,6,0,0,1-3.38-.95l-1-1a13.34,13.34,0,0,1-2.54-4,4.85,4.85,0,0,1-1.12-1.36A6.74,6.74,0,0,1,190,44.8a.93.93,0,0,1-.94-1,1.07,1.07,0,0,1,.22-.54h0a8.2,8.2,0,0,0-1-.2l-.58.29-1.69,1.06a5.22,5.22,0,0,1-1.75.12c-2.54-1-2.55-1-3.3-1.86a2.19,2.19,0,0,1-.12-.33c-.77.28-.82.3-1,.36a2.47,2.47,0,0,1-.55,0c-.48-.36-.48-.36-.73-.41a3.12,3.12,0,0,1-.37-.27c-.24-.72-.24-.72-.37-.85a1.51,1.51,0,0,1-.1-.38c.17-.47.24-.65.27-.73l1.87.27-.25-.5.7.29-.58-.33.65-.11-.83.05a5.37,5.37,0,0,0,1.34-1.07,2,2,0,0,0,.63-.76,1.37,1.37,0,0,1-.28-.2c1.1-.74,1.1-.73,2.2-1.43a3.74,3.74,0,0,1,.52.09.58.58,0,0,1,.28-.58l.56-.37c0-.06,0-.11,0-.16l0,0,.19-.59,0-.13h0c.14-.41.32-1,.89-2.53a7.76,7.76,0,0,1,1-.52h-.44c-.3,0-.54-.52-.66-.49a38.58,38.58,0,0,0-8.23,4.49,1.09,1.09,0,0,1-1.36.32.81.81,0,0,1-.08-1.25c2.2-6.45,8.74-11.31,15.56-13.37,1.58-.8,3.15-1.62,4.77-2.4l-.37-.07,1.38-.43.13-.07L196.12,18l-.77.17c-3.65,2-7.61,3-11.4,4.72-2,.93-4.11,1.41-6.18,2.21a.88.88,0,0,1-1.22-.05.86.86,0,0,1,.37-1.13,34.92,34.92,0,0,1,8.49-6.45,24.49,24.49,0,0,1,10-3,7.55,7.55,0,0,1,3.51-1.12l.06,0L197.84,13c.93-.33,1.76,0,2.66-.25l-.88-.73c1.12-.45,2.24-1,3.38-1.44s2.28-1,3.45-1.45a24.18,24.18,0,0,1,7.17-1.78,4.82,4.82,0,0,1,.52-.11,19.59,19.59,0,0,1,2.45-1.92l.69-.44.09,0,0,0h0l.09,0c.54-.21,1.11-.38,1.67-.56,1.13-.37,2.25-.74,3.45-1A66.13,66.13,0,0,1,238,.81a68.79,68.79,0,0,0-10.86,1.06c-1.78.29-3.48.69-5.2,1.1-.87.2-1.68.45-2.53.68L218.09,4l-.63.18-.25.08h0l0,0,.29-.11.66-.23,1.34-.44c.89-.29,1.77-.58,2.71-.83L225,1.91l2.85-.62A65.35,65.35,0,0,1,239.76,0a59.3,59.3,0,0,1,12.46,1.11,63.34,63.34,0,0,1,6.18,1.53c2,.69,4.08,1.38,5.82,2.16a78.21,78.21,0,0,1,13.55,7.59A68.34,68.34,0,0,1,290,23.15a50.79,50.79,0,0,1,9.23,14.77,42.78,42.78,0,0,1,3.08,16.9,47.09,47.09,0,0,1-2.64,14.39,47.71,47.71,0,0,1-5.49,11.23,41.9,41.9,0,0,1-7.34,8.35c-.64.58-1.39,1.11-2.05,1.63s-1.46,1-2.16,1.42a20.56,20.56,0,0,1-2.12,1.24l-2.18,1-.93.44-1,.36c-.67.22-1.34.44-2,.64a16.2,16.2,0,0,1-2.05.42,18.13,18.13,0,0,1-2,.28,30.27,30.27,0,0,1-3.79.05c-.59,0-1.21-.06-1.77-.11l-1.63-.21c-.56,0-1.06-.13-1.55-.21l-1.47-.23c-.88-.13-1.85-.28-2.65-.36L256.17,95c-.41,0-.76,0-1.14,0a12,12,0,0,0-2.12.12c-2.65.29-4.66,1.75-6.64,3.84a30.53,30.53,0,0,0-5,7.9c-.36.73-.63,1.49-.93,2.23s-.53,1.5-.74,2.25a21.12,21.12,0,0,0-.56,2.25c0,.08,0,.2-.06.26l-.06.16c0,.11,0,.18-.06.26l-.12.5a6.59,6.59,0,0,0,.14,4,3,3,0,0,0,1.38,1.43,4.45,4.45,0,0,0,.94.36,2.68,2.68,0,0,0,.49.11,2.18,2.18,0,0,0,.6.07c1.29,0,2.83-.12,4.54-.32l5.34-.61A182.39,182.39,0,0,1,276.41,118a117.08,117.08,0,0,1,12.89.76c2.17.23,4.33.55,6.49.9s4.31.81,6.44,1.33,4.26,1.06,6.39,1.65c1.87.52,3.68,1,5.63,1.64a120,120,0,0,1,12.16,4.37,75.52,75.52,0,0,1,13,7.1,67.86,67.86,0,0,1,12.08,10.57,46.69,46.69,0,0,1,3.65,4.76,13.11,13.11,0,0,1,1.51,2.85c0,.27-.47-.16-1.26-1.09-.39-.46-.86-1.05-1.4-1.74L352,148.84a66.47,66.47,0,0,0-8.11-8.07c-1.47-1.18-3-2.33-4.49-3.39s-3.06-2.08-4.61-2.93l-2.32-1.33L330.19,132c-1.56-.81-3.06-1.42-4.59-2.11-3-1.24-6-2.34-8.81-3.24l-2.12-.68-2.06-.62c-1.39-.42-2.68-.78-4-1.15l-4.49-1.23-4.59-1.06A116.89,116.89,0,0,0,281,119.5a138.41,138.41,0,0,0-18.05.35c-5.82.45-11.48,1.22-16.44,1.66-.62.06-1.22.11-1.79.14s-1.13.06-1.67.08c-.28,0-.53,0-.76,0a5,5,0,0,1-.6,0c-.28-.09-.57-.09-.85-.19a4,4,0,0,1-2.7-2,4.11,4.11,0,0,1-.44-1.69,3.13,3.13,0,0,1-.07-.86,6.41,6.41,0,0,1,0-.88,10.41,10.41,0,0,1,.31-1.74c.07-.31.12-.48.26-1a14.57,14.57,0,0,1,.42-1.67,14.36,14.36,0,0,0-.38,1.39c-.09.52-.23.79-.26,1a14.76,14.76,0,0,0-.35,1.46,9.3,9.3,0,0,0-.15,1.5v.37l.05.37a1.68,1.68,0,0,1,0,.39c0,.13.05.25.07.37a3.83,3.83,0,0,0,1.51,2.54,5.47,5.47,0,0,0,.65.41c.24.08.45.22.7.28a6.25,6.25,0,0,0,.74.21l.37.09c.15,0,.26,0,.48,0a56.72,56.72,0,0,0,5.84-.24l6.74-.57c4.66-.44,9.59-.78,14.6-.86a116.76,116.76,0,0,1,30.8,3.41c1.27.33,2.57.64,3.83,1l3.77,1.15c2.24.7,4.52,1.45,6.89,2.27a103.32,103.32,0,0,1,14.87,6.37,66.43,66.43,0,0,1,15.29,10.89A58.2,58.2,0,0,1,356,160.74c1,1.71,1.74,3.44,2.59,5.17s1.43,3.41,2.14,5.11,1.19,3.4,1.78,5.1,1,3.4,1.49,5.1a116.61,116.61,0,0,1,3.52,20.47c1.09,13.7.21,27.77-4.91,42.14-.33.9-.61,1.79-1,2.69l-1.19,2.68c-.4.89-.79,1.78-1.22,2.67l-1.47,2.64-1.51,2.63-1.67,2.49c-.55.84-1.16,1.64-1.78,2.44s-1.22,1.62-1.9,2.39a64.55,64.55,0,0,1-8.85,8.63,59.58,59.58,0,0,1-10.58,6.76,62.23,62.23,0,0,1-24.17,6.47c-1,0-2.1.1-3.14.12l-3,0c-2-.08-4-.21-5.94-.43a90.64,90.64,0,0,1-11.29-2,131.82,131.82,0,0,1-17-5.46c-5.17-2-10.05-4.18-14.47-6.06-9-3.9-18-7.58-26.93-11.33s-17.93-7.4-27.07-11-18.41-7.42-28-11.15l-20-7.72-9.77-3.68-4.82-1.75-4.7-1.65-2.18-.71c-.69-.22-1.57-.53-2-.62l-.73-.22a6.08,6.08,0,0,0-.83-.23l-2.13-.45-2.14-.46-2.14-.33c-1.44-.22-2.86-.5-4.31-.6s-2.87-.33-4.32-.4l-4.35-.19c-1.45,0-2.92,0-4.38,0l-2.19,0-2.2.17a117.78,117.78,0,0,0-17.74,2.56l-4.46,1.13c-1.49.37-3,.7-4.47,1.21l-4.46,1.41c-.74.24-1.5.44-2.24.71l-2.22.85c-3,1.13-6,2.12-8.93,3.49s-6,2.49-8.9,4c-6,2.77-11.83,6-17.79,9.39-3.1,1.9-6.15,3.66-8.58,4.92A25.49,25.49,0,0,1,13,252.15c-.51.06.29-.74,2-2.08.43-.33.9-.71,1.43-1.09l1.77-1.18c1.27-.84,2.71-1.77,4.27-2.74A225,225,0,0,1,60,225.83a147.31,147.31,0,0,1,19.45-6.13A124,124,0,0,1,99,216.8a104.14,104.14,0,0,1,19.36.81c1.59.27,3.19.42,4.77.8l2.36.49c.38.09.83.16,1.16.25l.88.26.88.25,1.17.38,2.39.77,5,1.75c6.83,2.44,13.76,5.08,20.69,7.76s13.89,5.38,20.84,8.16c13.89,5.56,27.82,11.19,41.73,17l20.87,8.81,10.43,4.5,10.63,4.63a139.73,139.73,0,0,0,24.37,8.34,80.35,80.35,0,0,0,14.19,2c1.25,0,2.49.06,3.75,0s2.58-.06,3.87-.17a61.16,61.16,0,0,0,7.71-1.1,59.5,59.5,0,0,0,14.8-5.19,58.48,58.48,0,0,0,12.95-9,61.69,61.69,0,0,0,10-11.9c.71-1.07,1.32-2.23,2-3.35a38.57,38.57,0,0,0,1.81-3.41,66.53,66.53,0,0,0,2.9-6.93,89.17,89.17,0,0,0,4.9-23.82,114.16,114.16,0,0,0-.72-23c-.08.21-.17.41-.28.42-.46.06-1-1.33-1.74-3.65a109.64,109.64,0,0,1,1.1,25.77,86.83,86.83,0,0,1-6,26.3l-2,4.58c-.7,1.52-1.58,3-2.38,4.51s-1.79,2.88-2.7,4.31-2,2.77-3.12,4.09a61.13,61.13,0,0,1-7.34,7.41,59.43,59.43,0,0,1-8.69,6,58,58,0,0,1-20,6.73,63.92,63.92,0,0,1-10.46.57,78.68,78.68,0,0,1-10-1c-12.94-2.2-24-7-34.2-11.55l-30.31-13.49L186,238.65c-13.16-5.88-26.1-11.58-39.18-17.09-4.2-1.56-8.4-3.08-12.52-4.49-1.06-.38-2-.65-3-1l-1.5-.48-1.24-.35c-.43-.11-.78-.24-1.28-.34l-1.5-.3-3-.62a102.36,102.36,0,0,0-24.5-1.29c-2.06.2-4.13.34-6.19.57l-6.19.93c-4.1.85-8.23,1.65-12.31,2.87l-3.07.84c-1,.3-2,.68-3,1-2,.7-4.06,1.34-6.08,2.08-4,1.66-8.06,3.09-12,5a19.49,19.49,0,0,1-3.11,1.26c-.5.11.13-.3,1.4-.91A153.55,153.55,0,0,1,81.48,214c1.47-.32,2.92-.72,4.39-1l4.43-.73c.73-.12,1.47-.26,2.21-.36l2.23-.23,4.46-.45a115.91,115.91,0,0,1,17.87.26c-3.7-.79-5.94-1.58-5.6-2.13.17-.32,1-.51,2.37-.65.68-.07,1.51-.12,2.45-.15.46,0,1,0,1.49,0l1.65.09c-.69-.1-1.38-.23-2.07-.3l-2.09-.2c-1.39-.12-2.78-.31-4.18-.37-2.8-.08-5.59-.29-8.4-.14-1.73.05-3.29,0-4.4,0s-1.79-.07-1.75-.22.72-.37,1.84-.57a36.87,36.87,0,0,1,4.31-.29c2.89-.16,5.78.06,8.66.12,1.44.09,2.87.26,4.31.38l2.15.2,2.13.33c1.42.23,2.86.39,4.27.69l4.22.87c.71.15,1.3.36,2,.53l1,.27,1,.34c1.38.46,2.75.88,4.15,1.39,11.2,3.94,22.42,8.37,33.58,12.8q40.44,15.48,80.32,32.39c-3.48-2-6-3.77-7-4.94v0l-12.35-5.23q-28.54-11.26-57.56-22.24c-9.67-3.62-19.37-7.25-29.11-10.68l-3.66-1.28-3.64-1.22c-1.22-.42-2.43-.79-3.63-1.16l-1.8-.56L130,209c-1.08-.33-2.36-.52-3.58-.77s-2.44-.52-3.68-.66c-2.48-.33-4.94-.75-7.44-.88a113.25,113.25,0,0,0-30,1.53A148.41,148.41,0,0,0,56.09,217l-3.55,1.47-1.78.74-1.74.83-7,3.33c-2.3,1.18-4.55,2.45-6.83,3.67l-3.41,1.84-3.33,2-6.66,4-6.5,4.34c-4.39,2.81-8.52,6-12.77,9.07A13.28,13.28,0,0,1,0,250a11.25,11.25,0,0,1,2.09-1.74l7.64-5.6c1.25-1,2.59-1.8,3.9-2.69l3.92-2.63,3.92-2.63,4-2.44,4-2.45,2-1.22,2.07-1.13a184.17,184.17,0,0,1,34-15.21l-.1,0c-1,.25-1.19.18-.18-.27A22.06,22.06,0,0,1,71,210.92c1.13-.22,1.07-.06.2.27a126.37,126.37,0,0,1,33.69-5.36A108.55,108.55,0,0,1,121.83,207c.69.11,1.4.18,2.09.31l2.08.4,2.08.39c.34.07.7.13,1,.21l1,.25c.65.19,1.26.32,1.95.53l2,.63c1.36.41,2.73.87,4.1,1.33,11,3.69,21.93,7.79,32.83,11.84s21.72,8.23,32.52,12.39c-19.92-8.07-39.91-16.05-60-23.4-2.51-.93-5-1.78-7.55-2.65L132.19,208c-.62-.19-1.21-.34-1.82-.51a17.24,17.24,0,0,0-1.85-.46l-3.85-.78c-1.28-.29-2.58-.41-3.87-.62-2.58-.45-5.19-.62-7.8-.87a115,115,0,0,0-31.32,2.17l-3.34.87c-1.11.3-2.23.53-3.32.92l-6.62,2.14a28.21,28.21,0,0,1-3.31,1c-.37,0,.46-.41,1.69-.87s2.45-.82,3.68-1.24c-7.68,2.25-13.63,4.1-13.74,3.49.08-.39,1.66-1.43,4.29-2.55,1.31-.58,2.86-1.23,4.59-1.9l1.32-.52,1.41-.44,3-.89a126.21,126.21,0,0,1,33.4-5.44c1.41-.06,2.83,0,4.24,0s2.83,0,4.24.14l4.23.34c1.41.08,2.8.35,4.2.52,2.82.31,5.58.94,8.36,1.46,2.76.68,5.45,1.54,8.13,2.43,2.33.75,4.66,1.48,7,2.27s4.71,1.42,7.05,2.16q-3.08-1.17-6.17-2.3c-2.06-.77-4.12-1.52-6.2-2.23s-4.17-1.42-6.27-2.1c-1.06-.33-2.15-.61-3.23-.91l-3.25-.67a109.22,109.22,0,0,0-26.39-2,131.68,131.68,0,0,0-26.14,3.95l-6.35,1.83-1.59.46-1.56.54-3.11,1.1c-4.18,1.37-8.19,3.18-12.24,4.87-1.4.57-2.64,1.21-3.59,1.58a4.3,4.3,0,0,1-1.66.52c-.15-.14,1.91-1.49,4.68-2.75l5.31-2.41,2.67-1.2c.89-.37,1.81-.71,2.72-1.06l5.47-2.1c1.83-.7,3.72-1.22,5.58-1.83,3.71-1.29,7.56-2.13,11.38-3.11,1.93-.44,3.88-.74,5.82-1.12,1-.17,1.94-.38,2.92-.53l3-.36c3.93-.57,7.91-.75,11.89-.94l6,0c2,.06,4,.23,6,.34A119.57,119.57,0,0,1,129.64,200a31,31,0,0,1,3,.67c.51.13,1,.25,1.53.39l1.43.42,2.87.85,2.8.9c14.89,4.87,29.47,10.25,44.07,15.75S214.5,230.16,229,236c9.75,3.29,19.47,6.69,29.25,10.16,4.88,1.73,9.84,3.55,14.56,5.18a142.31,142.31,0,0,0,14.05,4.11c-2.26-.72-4.56-1.53-6.89-2.39-3.71-1.39-7.43-2.94-11.18-4.54l-11.46-4.82q-11.41-4.71-22.61-9c-15-5.77-29.64-11.17-44.36-16.35s-29.37-10.24-44.48-15c-3.79-1.2-7.61-2.37-11.61-3.46l-3.24-.77-3.08-.51c-1-.16-2-.35-3.08-.49l-3.12-.35a121.14,121.14,0,0,0-25.26-.08,13.42,13.42,0,0,1-3.35.16c-.19-.1,1-.36,2.67-.55a121.86,121.86,0,0,1,24.66-.27l3,.32c1,.1,2,.21,3,.39l3,.48,1.5.25c.51.09,1,.23,1.58.35,4.25,1,7.8,2.12,11.58,3.24,14.79,4.61,29.29,9.53,44.33,14.89,12.46,4.43,24.56,8.87,36.43,13.29s23.52,8.81,35,13.21c-11.6-4.89-23.15-9.51-34.68-14s-23-8.76-34.59-12.94-23.1-8.28-34.82-12.21c-5.86-2-11.74-3.9-17.88-5.73-1.57-.44-3.06-.9-4.9-1.31l-1.31-.32c-.45-.11-.83-.15-1.24-.22l-2.44-.41-2.44-.41-2.46-.29c-1.64-.17-3.27-.43-4.93-.52-2.3-.1-4.62-.34-6.08-.55a5,5,0,0,1-1.31.17l-5,.19c-1.71.11-3.44.31-5.2.45l-2.64.24-2.65.39c-1.77.27-3.57.5-5.35.8a24.34,24.34,0,0,1-3.83.54C85.46,197.3,86.26,197,87.78,196.68ZM198,30.3l-.26-.05.67-.1,1.47.54Zm-4,10h0l-.86-.25Zm55.06,82c-1.55.12-3.11.25-4.5.3a14.46,14.46,0,0,1-3.5-.12,6.56,6.56,0,0,1-2.18-.87,3.93,3.93,0,0,1-1.47-1.8,8.3,8.3,0,0,1-.22-4.63c.07-.39.18-.76.28-1.14a4.69,4.69,0,0,1,.17-.6c.08-.27.16-.65.23-1,.18-.67.41-1.33.6-2l.74-2a36.8,36.8,0,0,1,4.1-7.5,18.39,18.39,0,0,1,5.49-5.38,12.15,12.15,0,0,1,7.1-1.45c2.79.14,6,.93,10,1.2-3.89-.22-7-.94-9.78-1.08a12.18,12.18,0,0,0-6.92,1.31,14.16,14.16,0,0,0-2.18,1.6l-1.05.93-1,1.1a32.35,32.35,0,0,0-3.56,5.24,36.25,36.25,0,0,0-2.62,5.88,28.57,28.57,0,0,0-.87,3c-.14.41-.18.62-.26.91a7.75,7.75,0,0,0-.21.83,9.58,9.58,0,0,0-.18,3.42,4.27,4.27,0,0,0,1.69,2.95,5.57,5.57,0,0,0,1.57.76,8,8,0,0,0,.84.23,4.79,4.79,0,0,0,.48.08l.68,0C244.45,122.63,246.72,122.51,249.09,122.34ZM189.33,30.81a12.51,12.51,0,0,1,3.47.32,5.18,5.18,0,0,1,1.32-1.32,37.85,37.85,0,0,1,4.33-2.69c-.47-.24-.11-.43,0-.59l.43-.46-5,2.4C192.4,29.22,190.89,30.19,189.33,30.81Zm-7.63,9.73h-.25l-.33-.73Zm.59,1.2.25-.11C182.69,41.88,182.56,41.87,182.29,41.74Zm2.29-1a1.71,1.71,0,0,0-.53,0Zm17.08,13.62-2.2-3.08,2,3Z"/><path d="M205.11,285.23a2.33,2.33,0,0,0,.07.25.51.51,0,0,1-.47-.19c1,2.26,3.64,2.76,5.81,2.29a1.09,1.09,0,0,0,1.26-1.79,1.74,1.74,0,0,1-.23-.39,8.4,8.4,0,0,0-1.64-3.3l.32.8a2.69,2.69,0,0,0-.75-.79l0,.36a2.53,2.53,0,0,0-4.58,2.17Z"/><path d="M205.24,289.33c-.41-.68-.77-1.38-1.13-2.08V287l-.42.83,0-.05a4.52,4.52,0,0,1,2.9.15l.36.05a.81.81,0,0,0,.5-.28.8.8,0,0,0-.1-1.14l-.4-.32c-.81-1.08-2.48-2.06-3.86-1a2.8,2.8,0,0,0-.6,1.09,1.11,1.11,0,1,0,1.85,1.23l.21.27-.32.07c.41-.38,1-.2,1.47-.24l.61.18.41-1.42h-.38a1.09,1.09,0,0,1,0,.17,11,11,0,0,1-2.15,0l-1,0a.68.68,0,0,0-.42.83l.17.46-.06-.24c.6.71,1.31,1.34,1.89,2.06a.28.28,0,1,0,.46-.32Z"/><path d="M202.46,288a.65.65,0,0,0-.32-.42l-.13.06c0,.09.07.22.12.35S202.37,288.15,202.46,288Z"/><path d="M202,287.61l0-.15v.16h0Z"/><path d="M229.12,300.08a37.15,37.15,0,0,0,3.29,2.63s.11,0,.15-.08.05-.16,0-.18c-1.12-.83-2.22-1.7-3.27-2.65,0,0-.1,0-.15.08A.19.19,0,0,0,229.12,300.08Z"/><path d="M233.74,312.9a.29.29,0,0,0-.11.2c0,.06,0,.09.1,0a.31.31,0,0,0,.11-.19C233.84,312.88,233.79,312.87,233.74,312.9Z"/><path d="M230,318.8a2.11,2.11,0,0,0-.73.18s-.07,0-.07-.05a.39.39,0,0,1-.25.24,15.32,15.32,0,0,1-4.9-.14,2.75,2.75,0,0,1-.22.26c-.27.26-.53.32-.69.16l-.09-.16c-.45-.5-.93-1-1.37-1.47a.74.74,0,0,1-.54,0,12.29,12.29,0,0,1-2,.21,1,1,0,0,1-.13.33c-.16.26-.39.4-.51.31l-.21-.1.45.54a.13.13,0,0,1,.05.09,5.07,5.07,0,0,0,.65.35,15.31,15.31,0,0,0,6.82.68s.1,0,.09.08a.28.28,0,0,1-.13.18c-1.88.71-3.85,1.93-5.61,2.09a30.25,30.25,0,0,1-6,0c-1.6-.92-3.45-1.12-5.36-1.58-.65-.15-1.26-.33-1.86-.53a1.9,1.9,0,0,1-.27-.11l-.42-.19-.82-.39-1.63-.79c-2.16-1.08-4.26-2.23-6.39-3.41a3.31,3.31,0,0,1-1.82-4.33,3.35,3.35,0,0,1,2.31-2l-.38-.24-.5-.54a2.91,2.91,0,0,1-.75-1.91l-.05-.91c.15-1.59-.17-3.17.12-4.76l.39-.43,0-.21a2.8,2.8,0,0,1,.08-1.74l.37-.58a6.8,6.8,0,0,1,1.67-1.63,2.32,2.32,0,0,1,.52-.68,3.4,3.4,0,0,1,1-2.08.48.48,0,0,1,.39-.56.63.63,0,0,1,.27,0h0a4.16,4.16,0,0,0,0-.5,2.69,2.69,0,0,1-.18-.23l-.62-.63a2.18,2.18,0,0,1-.19-.78c.29-1.26.29-1.26.6-1.7a1.1,1.1,0,0,1,.14-.09c-.17-.31-.19-.33-.23-.42a.9.9,0,0,1,0-.25c.13-.26.13-.26.14-.37a1.56,1.56,0,0,1,.09-.2c.31-.19.31-.19.36-.27a.7.7,0,0,1,.16-.08l.34,0v.86l.21-.18-.09.34.11-.29.09.27-.07-.36c.38.35.38.35.56.44a.85.85,0,0,0,.38.17.65.65,0,0,1,.07-.16l.8.75a2.09,2.09,0,0,1,0,.24.23.23,0,0,1,.27,0l.22.18h.07v0h.34l1.19-.05a2.82,2.82,0,0,1,.33.36c0-.07,0-.13-.05-.19s.18-.33.15-.38a17.3,17.3,0,0,0-2.61-2.8.42.42,0,0,1-.23-.54.41.41,0,0,1,.54-.22,8.94,8.94,0,0,1,7.17,4q.78.69,1.59,1.35v-.17l.35.45,0,0-.1-.64c-.06-.09-.12-.18-.17-.27a26.21,26.21,0,0,1-3.24-3.56,24.92,24.92,0,0,1-1.47-2.11.38.38,0,0,1-.07-.52.37.37,0,0,1,.51-.07c2.44,1,4.87,2.75,5.83,5.28a2.19,2.19,0,0,1,.92,1.05v0l0-.51c.25.27.25.66.46.95l.18-.56c1.35,1.19,3.08,2,4.08,3.52l.14.13a8.92,8.92,0,0,1,2,.19l-.29-.38a1.42,1.42,0,0,1,1,.14,3.12,3.12,0,0,1,.85,3.29,50.25,50.25,0,0,0,4.85,2c.09,0,.1.17,0,.32s-.21.26-.3.24a16.51,16.51,0,0,1-3.84-.85,14.58,14.58,0,0,0,2.46,2.13l.39.15a.6.6,0,0,1,.31.28,13.18,13.18,0,0,0,3.71,1.75,30.37,30.37,0,0,0,3.64.6,12.51,12.51,0,0,1,5,1.11c.22.07.24.44.05.83s-.53.66-.75.59c-3.67-.55-7.43-.83-10.47-2.81l-1-.64-.08.15a2.16,2.16,0,0,1-.4.51,9.23,9.23,0,0,1,1,.89,6.6,6.6,0,0,1,3.61,1.22,8.73,8.73,0,0,1,1.62,2.27c1,.28,2.12.5,3.15.83.05,0,.07,0,0,.13a.23.23,0,0,1-.14.15,13.14,13.14,0,0,1-2.58,0,2.53,2.53,0,0,1-.34,1,2.24,2.24,0,0,1-.71.75l.43.28c.08.07.08.24,0,.41s-.26.28-.35.22L231.6,311c-.83-.22-1.65-.47-2.45-.75a3.49,3.49,0,0,1-.26.95h0l.35.16a14,14,0,0,1,7,2.27s0,.1,0,.18-.11.13-.15.11a10.9,10.9,0,0,0-1.91-1.08h0a.27.27,0,0,1-.11.2c-.05,0-.1,0-.1,0a.27.27,0,0,1,.11-.2,15,15,0,0,0-4.06-1.06,17.14,17.14,0,0,1,3.21,1.87l.53-.09s.05.07,0,.15-.09.14-.14.14h-.14c.19.15.15.57-.08,1s-.62.64-.82.5a17.81,17.81,0,0,1-1.77-.82l-.23,0-.29.09c.78.66,1.54,1.36,2.29,2.07.07,0,.07.2,0,.35s-.22.23-.29.19a27.76,27.76,0,0,1-5.36-1.4l-2.63,1,.19.13c1.69,1,4.16,0,6,.56.05,0,.05.09,0,.16s-.11.14-.15.11a16.37,16.37,0,0,0-3.06,0,14.79,14.79,0,0,0-2.57.08c1.35.54,3,.45,4.43.81.08,0,.11.06.1.16l.09-.09a2.52,2.52,0,0,1,.77-.18s.07,0,0,.13A.23.23,0,0,1,230,318.8Zm-21.84-24v-.12l.13.27,0,.77Zm-5,.05h0l0-.43C203.2,294.63,203.19,294.77,203.19,294.89Zm22.05,5.73a4.5,4.5,0,0,1-1.65-1.65l.53.18A15.74,15.74,0,0,1,225.24,300.62ZM207,291.15a5.9,5.9,0,0,1,.23,1.57,2.31,2.31,0,0,1,.74.32,20.29,20.29,0,0,1,1.72,1.29c0-.25.17-.14.26-.13l.26.08c-.56-.52-1.12-1-1.68-1.61A16.89,16.89,0,0,1,207,291.15Zm-5-1.78,0-.11.3-.25Zm-.5.42.07.1C201.45,290,201.44,289.92,201.48,289.79Zm.63.88a1.19,1.19,0,0,0,0-.24Zm-4.68,9.58,1.23-1.38-1.22,1.3Z"/><path d="M370.58,56.86l.64,0c-.08.35-.43.63-.93.87a13.76,13.76,0,0,0,7.43-3.88,20.85,20.85,0,0,0,4.43-6.37c1.37-.73,2.06-2.06,1.54-3s-2.14-1.13-3.59-.39a5.71,5.71,0,0,1-1.14.2,27.8,27.8,0,0,0-9.6,1.45l2.25-.25a10.93,10.93,0,0,0-2.79,1.09l.73.28c-3.68.58-7,3.49-7.09,6.43s3,4.61,6.52,3.87Z"/><path d="M379.62,58.54c-1.85.44-3.69.85-5.6,1.25l-.54-.08,1.4,1.23-.06-.11c.09-2,1.67-4,3.29-5.71l.51-.67a1.31,1.31,0,0,0,0-1.13,1.87,1.87,0,0,0-2.56-.39l-1.17.62c-3.25,1.05-7.42,4.1-6.42,7.43.23.76,1.2,1.17,1.9,1.7a2.87,2.87,0,0,0,3.73,0c1.22-.91,1.58-2.35.81-3.28l.79-.31c-.06.23-.12.46-.17.69-.42-1,.52-2,1-3.06l1.05-1.13-2.61-1.51-.42.76c.13,0,.35.1.35.11a32,32,0,0,1-2.35,4.33c-.32.68-.62,1.38-.92,2.08A1.22,1.22,0,0,0,373,62.58l1.17-.17h-.59c2.13-.92,4.13-2,6.23-2.82a.72.72,0,0,0,.53-.74A.54.54,0,0,0,379.62,58.54Z"/><path d="M374.06,63.48a1.91,1.91,0,0,0-1.19.49v.3l.88-.1C374.39,64.09,374.37,63.74,374.06,63.48Z"/><path d="M372.88,64.27l-.37,0,.34.06s0-.05,0-.05Z"/><path d="M429.4,200.7l-.33.91a4.83,4.83,0,0,1-.24.5l-.46.9c-.33.6-.54,1.22-.81,1.83a29.23,29.23,0,0,0-1.32,3.86,17.31,17.31,0,0,0-.61,4.12,8.55,8.55,0,0,0,.91,4.07,6.45,6.45,0,0,0,3.1,2.71,12.4,12.4,0,0,0,4.09.9,32.07,32.07,0,0,0,4.27-.05l2.15-.19,4.91-.58c.85-.11,1.54-.33,1.55-.52s-.67-.23-1.44-.13l-5,.59-2.06.18a30.46,30.46,0,0,1-4.05,0,12.18,12.18,0,0,1-3.89-.83,6.26,6.26,0,0,1-3-2.54,7.87,7.87,0,0,1-.9-3.84,16,16,0,0,1,.56-3.91,27.62,27.62,0,0,1,1.24-3.66c.26-.59.47-1.17.77-1.74l.44-.85.21-.42a3,3,0,0,0,.15-.38l.15-.45a2.56,2.56,0,0,0,.19-1.42C429.88,199.69,429.62,200.1,429.4,200.7Z"/><path d="M574.88,221.71c-.53-.56-.63-.45-.24.25a14.37,14.37,0,0,0,1.48,2.2c.41.49.54.38.24-.24A11.2,11.2,0,0,0,574.88,221.71Z"/><path d="M562.59,223.77a26.76,26.76,0,0,0-8.34-5.05,7,7,0,0,1-1.34-.67c.07.29-.58.24-1.64-.06-5.25-1.42-10.7-.67-16.9,1.42-.77.25-1.55.55-2.36.84l-2.45,1-2.44,1-2.44,1.09c-3.26,1.48-6.5,3.15-9.76,4.93-6.53,3.56-13.09,7.65-20.13,11.81l-2.69,1.57c-1,.54-1.9,1.08-2.87,1.61-1.92,1.06-3.91,2.06-5.91,3.05a131,131,0,0,1-12.42,5.26,3.6,3.6,0,0,1-1.26,1.1c-2.18,1.44-7,3.21-12.11,4.12-1.3.22-2.59.39-3.88.57-1.92.29-4,.56-5.65.77l-2.83.34c-1.25.16-2.53.3-3.79.42a103.21,103.21,0,0,1-15.06.6,55.75,55.75,0,0,1-14.25-2.35,35.57,35.57,0,0,1-12.39-6.57,18.63,18.63,0,0,1-2.42-1.84,19,19,0,0,1-2.33-2.25l-1.1-1.29c-.37-.45-.67-.93-1-1.41s-.68-1-1-1.47l-.85-1.59a36.87,36.87,0,0,1-4.07-11.41c-.18-1-.36-2-.49-3.06a24.6,24.6,0,0,1-.32-3.12,51.74,51.74,0,0,1,.07-6.46,66.66,66.66,0,0,1,2.4-13.41c.63-2.27,1.57-4.43,2.4-6.66l1.29-3.34c.11-.28.21-.57.33-.84l.43-.77.85-1.55c-.78,1-1.36,1.53-1.58,1.44-.18-.25.2-1.37,1-3,.39-.82.88-1.77,1.45-2.8l.44-.79c.15-.27.31-.56.44-.75l.89-1.3,1.86-2.66.94-1.31,1-1.24a42.48,42.48,0,0,0-2.89,3.65l-1.38,1.89-.7.95c-.23.32-.5.79-.75,1.18-2,3.31-4.31,6.45-5.75,10.18q-.69,1.57-1.35,2.88a46.74,46.74,0,0,0-2.3,6.11c-.66,2.08-1.17,4.18-1.62,6.28a60.59,60.59,0,0,0-1.3,12.55,41.94,41.94,0,0,0,.58,6.59,44.61,44.61,0,0,0,1.34,6.34c.35,1,.68,2,1.05,3l1.27,2.94,1.55,2.81c.58.9,1.21,1.77,1.82,2.66s1.34,1.69,2,2.53,1.52,1.52,2.29,2.28a30.4,30.4,0,0,0,2.47,2.07,22.94,22.94,0,0,0,2.63,1.84,43.52,43.52,0,0,0,11.68,5c8.23,2.17,17.18,2.2,26,1.17,2.19-.27,4.38-.58,6.56-.91.54-.07,1.08-.18,1.62-.27l1.39-.24,2.17-.42,4.59-.93c1.59-.35,3.17-.69,4.74-1.1a128.81,128.81,0,0,0,18.55-6.15,134.16,134.16,0,0,0,17-8.67c10-6.07,18.7-12,27.65-16.66a6.91,6.91,0,0,1,2.09-.86c.4,0,.41.18-.23.53a183.13,183.13,0,0,0-15.91,10.6l-8.08,5.91-4.26,3.05c-1.57,1.08-3.17,2.15-4.83,3.19a121.54,121.54,0,0,1-22,11,124.18,124.18,0,0,1-12.47,4c-1.08.29-2.15.55-3.24.81l-3,.71-1.47.34-.77.16-.47.1-.61.11c-1.61.35-3.27.56-4.93.84-2,.32-4,.57-6,.85s-4,.39-6,.46l-3,.14c-1,.06-2,0-3,0s-2,0-3-.1l-2.91-.25c-1-.07-1.92-.23-2.88-.37s-1.91-.29-2.84-.49a56.62,56.62,0,0,1-5.52-1.45,47.29,47.29,0,0,1-10.35-4.62l-2.39-1.56L391,258.51c-.77-.57-1.44-1.25-2.15-1.89l-1.05-1-.26-.25-.06-.06c-.1.05-.06,0-.1,0l-.12-.13-.47-.54a44.93,44.93,0,0,1-6.56-9.27,44.15,44.15,0,0,1-4-10.59c-.42-1.87-.77-3.77-1.11-5.68a17.4,17.4,0,0,1-.32-2.93c0-1-.18-2-.14-3a63.41,63.41,0,0,1,1.05-12.44,60.58,60.58,0,0,1,3.58-12.63l2.56-6.16.64-1.55.32-.78a6.23,6.23,0,0,1,.41-.71l1.69-2.82,1.71-2.82.85-1.42.43-.71c.14-.23.29-.49.4-.64,1-1.39,1.94-2.77,2.92-4.13.5-.67.95-1.37,1.5-2l1.63-1.91,1.64-1.89a22.34,22.34,0,0,1,1.68-1.81c1.14-1.15,2.31-2.28,3.47-3.39s2.34-2,3.51-3A148.61,148.61,0,0,1,418,152.75c4.35-2.72,8.31-5.15,11.79-7.81,1.82-1.3,3.42-2.7,5.06-4.11.85-.68,1.57-1.46,2.34-2.2s1.53-1.49,2.27-2.26c1.41-1.61,2.83-3.21,4.17-4.89s2.6-3.49,3.77-5.21a52.42,52.42,0,0,0,5.47-10.49,41.53,41.53,0,0,0,2.63-11.09,34.79,34.79,0,0,0-.59-10.86l-.29-1.31c-.11-.43-.25-.83-.37-1.25-.21-.83-.54-1.65-.82-2.46a32.33,32.33,0,0,0-2.19-4.69,30.29,30.29,0,0,0-6-7.63,12.47,12.47,0,0,0-4.16-2.62,2.55,2.55,0,0,0-.78-.18l-.17,0a.45.45,0,0,1-.11,0l-.19.09c-.26.12-.5.27-.82.41a5.75,5.75,0,0,1-1.58.44c-.35.08-1.83,0-1.86.19a6.55,6.55,0,0,0-1,.32,22.63,22.63,0,0,0-4.06,2c-.34.19-.71.48-1.05.7-.17.11-.36.24-.54.38l-.12.1-.38.33c-.25.21-.51.48-.76.7s-.52.48-.77.73-.51.48-.78.76c-1,1-2.09,2.12-3.13,3.31s-2.1,2.46-3.13,3.82c-1.28,2.37-4.07,2.58-6.48.3a7.71,7.71,0,0,1-2.3-5.35l-.5.51-1,.57a4,4,0,0,1-3.28.23l-1.5-.43c-2.58-1.18-5.43-1.43-8.2-2.81l-.64-1-.39,0a5.56,5.56,0,0,1-3.19-1l-.94-1a12.94,12.94,0,0,1-2.28-4.05,4.67,4.67,0,0,1-1-1.37,6.39,6.39,0,0,1-3.47-2.9.88.88,0,0,1-.86-1A1.08,1.08,0,0,1,384,68h0a7.69,7.69,0,0,0-1-.24c-.37.17-.6.25-.6.25l-1.76.95a5.79,5.79,0,0,1-1.77.05c-2.47-1.13-2.49-1.13-3.18-2a2.33,2.33,0,0,1-.1-.32l-1.09.3a3.1,3.1,0,0,1-.57-.06c-.46-.37-.46-.37-.71-.43a2.41,2.41,0,0,1-.35-.28c-.18-.71-.18-.71-.31-.84a1.38,1.38,0,0,1-.06-.37c.22-.45.31-.63.34-.71l1.89.36-.21-.5.68.31-.56-.34.67-.07h-.85a6,6,0,0,0,1.46-1,2.32,2.32,0,0,0,.7-.69,1.79,1.79,0,0,1-.27-.21c1.19-.64,1.18-.65,2.35-1.25a3.82,3.82,0,0,1,.51.11.54.54,0,0,1,.32-.54l.59-.33.06-.14,0,0,.25-.54,0-.13h0c.17-.38.42-.92,1.12-2.35a8.88,8.88,0,0,1,1.09-.44h-.44c-.3,0-.49-.52-.61-.49a42.6,42.6,0,0,0-8.68,3.81,1.21,1.21,0,0,1-1.43.24.76.76,0,0,1,.05-1.21c2.89-6,10-10.14,16.87-11.72l4.93-2-.36-.09,1.41-.31.14-.06-1.39-.25-.78.12c-3.78,1.61-7.79,2.36-11.74,3.76-2.12.75-4.24,1.07-6.41,1.7A1,1,0,0,1,373,50c-.21-.31,0-.79.49-1,5.27-4.31,12.77-7.77,19.36-7.69a8,8,0,0,1,3.56-.83l0,0-1.06-.28a19.34,19.34,0,0,1,2.62-.09l-.77-.7c2.29-.71,4.64-1.53,7-2.23A26.2,26.2,0,0,1,411.47,36l.53-.06a20.35,20.35,0,0,1,2.63-1.53l.73-.33.22-.09,1.07-.26,2.21-.45a58.75,58.75,0,0,1,9.51-1.05c-1.14,0-2.28,0-3.38.1s-2.24.13-3.33.27-2.2.23-3.28.4l-1.63.25-1.41.25h0l.19-.05.43-.11.85-.2,1.74-.37c1.15-.25,2.35-.42,3.53-.61a58.57,58.57,0,0,1,7.34-.63c1.24,0,2.52,0,3.78,0s2.57.18,3.85.29l1.94.27,1,.14.48.08.24,0,.13,0,3.33.69a46.23,46.23,0,0,1,11.49,4.07,44,44,0,0,1,5.43,3.36c.79.61,1.57,1.22,2.34,1.84s1.43,1.27,2.13,1.91A54.24,54.24,0,0,1,477.1,60.56,60.68,60.68,0,0,1,482,75.91a52.88,52.88,0,0,1,.92,11.9,77.47,77.47,0,0,1-.34,16.83,94.12,94.12,0,0,1-3.61,16,107.84,107.84,0,0,1-6.14,14.93c-.62,1.18-1.2,2.39-1.87,3.55l-1,1.75-1,1.64-2,3.31c-.65,1.11-1.31,2.21-2,3.28-2.79,4.33-5.74,8.65-8.89,12.78l-2.35,3.12-2.42,3-1.2,1.53-1.21,1.46-2.41,3c-3.16,3.83-6.23,7.56-8.77,11A56.24,56.24,0,0,0,432,195c-.54,1.32-1.1,2.35-1.45,2.41s-.17-1,.33-2.34c.47-1.16,1.06-2.32,1.58-3.52s1.34-2.39,2.06-3.62,1.61-2.47,2.53-3.76,1.87-2.54,2.93-3.88c4.16-5.25,9-10.9,13.55-16.79a199.64,199.64,0,0,0,12.67-18.44l2.83-4.76c.95-1.66,1.86-3.36,2.71-5.08a99.75,99.75,0,0,0,4.6-10.6c-1.16,3-2.5,6-3.94,8.82-.72,1.44-1.49,2.85-2.26,4.26l-1.2,2.08-1.23,2c-1.64,2.62-3.24,5.27-5.07,7.81-.9,1.27-1.72,2.61-2.67,3.85l-2.81,3.78c-3.82,5-7.89,9.85-12,14.4s-8,8.92-11.19,13.12l-1.19,1.62c-.36.54-.69,1.07-1,1.61l-1,1.59c-.34.53-.59,1.06-.88,1.59-.56,1-1.19,2-1.63,3.06l-.76,1.5-.39.73-.32.77-.74,2c-.12.3-.27.69-.37.91l-.28.61c-.35.81-.78,1.6-1.05,2.43a47.22,47.22,0,0,0-1.62,5,26.4,26.4,0,0,0-.84,5.13,12.08,12.08,0,0,0,.7,5.1,7.48,7.48,0,0,0,3.28,3.88,12.28,12.28,0,0,0,5,1.44,27.11,27.11,0,0,0,5.25-.12c.87-.1,1.74-.22,2.6-.37l1.29-.23c.47-.07.67-.14,1.76-.3,3.31-.52,5.81-.94,8.5-1.51s5.18-1.2,7.66-1.93a99.72,99.72,0,0,0,14.33-5.47c2.39-1.12,4.58-2.24,7.3-3.68l8.2-4.34c5.67-3,11.76-6.07,18.55-8.95a131.05,131.05,0,0,1,14.84-5.35,78.54,78.54,0,0,1,17.55-3.3,52.4,52.4,0,0,1,20.77,3,48.89,48.89,0,0,1,9.47,4.7,60,60,0,0,1,7.64,5.8,62.52,62.52,0,0,1,6.51,6.86,67.71,67.71,0,0,1,5.06,7.27,99.1,99.1,0,0,1,6.83,13.9l1.3,3.28c.45,1.14.92,2.36,1.35,3.56.88,2.4,1.63,4.85,2.34,7.3a111.17,111.17,0,0,1,3.16,15,55.69,55.69,0,0,1,.6,7.35,11.8,11.8,0,0,1-.36,3.82c-.44.71-1-3.09-1.74-8.4a111.42,111.42,0,0,0-3.43-15.43c-.75-2.54-1.6-5.06-2.53-7.56-.47-1.24-1-2.48-1.48-3.7l-1.47-3.46A102.08,102.08,0,0,0,585.2,217a58.07,58.07,0,0,0-12.37-14.13c-1.25-1.06-2.58-2-3.91-2.94l-2-1.33c-.66-.43-1.49-.88-2.24-1.3a46.49,46.49,0,0,0-9.95-4,50.42,50.42,0,0,0-20.39-1.14,75.59,75.59,0,0,0-8.85,1.79c-1.37.37-2.64.74-4,1.12s-2.59.79-3.86,1.22c-5.1,1.73-10,3.72-14.68,5.85s-9.15,4.39-13.46,6.63l-6.36,3.31L480,213.66l-2.93,1.49a101.43,101.43,0,0,1-23.22,8.36c-2,.48-4.08.85-6.16,1.22l-3.2.49-3.42.49a61.5,61.5,0,0,1-7.81.8,26.06,26.06,0,0,1-3.95-.17,15.14,15.14,0,0,1-3.85-.93,9.08,9.08,0,0,1-3.32-2.14,8.86,8.86,0,0,1-1.25-1.54,10.24,10.24,0,0,1-.84-1.81,15.45,15.45,0,0,1-.61-6.78,34.72,34.72,0,0,1,1.45-6.59,1.09,1.09,0,0,1-.36.1c-.45,0-.73-.42-.84-1.18a44.17,44.17,0,0,0-2,8.15,24.41,24.41,0,0,0-.17,4.28,15,15,0,0,0,.89,4.23,9.71,9.71,0,0,0,4.21,4,15.61,15.61,0,0,0,5.72,1.47,47.63,47.63,0,0,0,11.55-.88l1.44-.24,2.43-.37,2.37-.37c.74-.12,1.5-.23,2.23-.37,3-.51,5.89-1.13,8.8-1.84a121.69,121.69,0,0,0,17.26-5.68l3-1.25,3-1.36,6.35-2.9c4.28-1.94,8.63-3.89,13.09-5.71s9-3.53,13.74-5c2.36-.73,4.73-1.43,7.16-2,1.21-.31,2.42-.61,3.66-.87l1.84-.4,1.93-.38a64.69,64.69,0,0,1,10.37-1.7,45.2,45.2,0,0,1,11.37.55,41.46,41.46,0,0,1,11.19,3.65c.9.41,1.72.91,2.57,1.38s1.56,1,2.34,1.46a46.3,46.3,0,0,1,4.4,3.26,52.61,52.61,0,0,1,7.59,7.71,66.85,66.85,0,0,1,5.7,8.47c1.62,2.84,3,5.66,4.31,8.43.63,1.38,1.25,2.76,1.84,4.12s1.23,2.87,1.8,4.32a9.24,9.24,0,0,1,.71,2.32c0,.38-.26-.09-.65-1s-.85-2-1.29-3l-1.35-2.87q-1.32-2.79-2.78-5.66a89.36,89.36,0,0,0-7.09-11.61,58.55,58.55,0,0,0-4.72-5.62,52.34,52.34,0,0,0-5.66-5c-1-.79-2.05-1.49-3.09-2.2s-2.08-1.34-3.3-2a39.07,39.07,0,0,0-7.47-3.14c3.13,1.54,4.6,3,4.1,3.47s-3-.16-6.67-.75a36.67,36.67,0,0,1,6.3,2.44c1,.47,2,1.07,2.93,1.61s1.8,1.14,2.67,1.78c2.16,1.54,3.54,3.14,3.3,3.3s-2-.94-4-2.34c-.87-.62-1.77-1.18-2.67-1.76s-1.89-1.11-2.91-1.56a34.08,34.08,0,0,0-6.23-2.34,38.9,38.9,0,0,0-13.05-1.17,62,62,0,0,0-12.23,2.25c-3.85,1.05-7.63,2.3-11.31,3.71a261.76,261.76,0,0,0-24.95,12.31l-6,3.19c-2,1-3.88,2-5.86,2.95a110.39,110.39,0,0,1-12.06,4.91,14.8,14.8,0,0,1,5.42.13h0c2.56-1,5.07-2.05,7.55-3.19,5.54-2.83,11.09-6.16,16.78-9.3s11.54-6.26,17.68-8.95q4.59-2,9.41-3.7c1.6-.57,3.23-1.06,4.86-1.56s3.36-.92,5.1-1.28a45.66,45.66,0,0,1,10.86-1,35.28,35.28,0,0,1,11.12,2.12l1.34.51,1.3.58c.88.38,1.71.84,2.54,1.29a46.56,46.56,0,0,1,4.64,3,45.37,45.37,0,0,1,8,7.56c4.65,5.62,7.88,11.85,10.73,17.92,1.42,3,2.85,6.2,4,9.41s2.28,6.48,3.18,9.79a112.18,112.18,0,0,1,3.6,20.19,6.2,6.2,0,0,1,0,2,4.64,4.64,0,0,1-.32-1.74,113.44,113.44,0,0,0-4.82-24.2,109.35,109.35,0,0,0-4.4-11.58c-1.69-3.72-3.39-7.37-5.41-11l0,.06c.25.63.18.81-.25.22a16.81,16.81,0,0,1-1.29-2.28c-.31-.71-.14-.73.25-.23a56.71,56.71,0,0,0-7-9.69,46.74,46.74,0,0,0-4.41-4.26,45.82,45.82,0,0,0-5-3.6,36.44,36.44,0,0,0-5.55-2.9,35.9,35.9,0,0,0-6.06-1.85,38.45,38.45,0,0,0-12.36-.46,61.76,61.76,0,0,0-11.48,2.6c-3.64,1.14-7.2,2.47-10.66,3.94a202.76,202.76,0,0,0-19.88,10c6-3.14,12.17-6.2,18.57-8.83,3.19-1.32,6.45-2.52,9.77-3.56a77.87,77.87,0,0,1,10.24-2.6,42.55,42.55,0,0,1,10.9-.56,33.82,33.82,0,0,1,10.76,2.72,40.89,40.89,0,0,1,9.21,5.84,44.65,44.65,0,0,1,7.36,7.83,65.27,65.27,0,0,1,5.44,7.49,8.21,8.21,0,0,1,.94,2.08c0,.26-.38-.22-.83-.95s-.89-1.45-1.37-2.16c2.61,4.59,3.76,8.45,3.15,8.66-.75.06-3.12-3.67-5.87-8.2A45.56,45.56,0,0,0,559.55,213a30.79,30.79,0,0,0-9.67-4,33.71,33.71,0,0,0-10.46-.62,45.24,45.24,0,0,0-4.49.76c-1.48.42-2.93.88-4.36,1.41a42.23,42.23,0,0,1,16-1.3,29.16,29.16,0,0,1,7.63,2.08,34.85,34.85,0,0,1,6.84,4,43.76,43.76,0,0,1,10.74,11.66,122.57,122.57,0,0,1,7.65,14.27c.81,1.66,1.29,3.17,1.1,3.3s-1-1.15-1.81-2.79a133,133,0,0,0-7.12-12.23,46,46,0,0,0-9-10.07,35.52,35.52,0,0,0-5.48-3.69,28.33,28.33,0,0,0-5.86-2.45,29.31,29.31,0,0,0-12.6-.59,49.65,49.65,0,0,0-6.49,1.48c-2.17.64-4.41,1.41-6.58,2.21A139.2,139.2,0,0,0,512.69,222c-4.25,2.08-8.46,4.38-12.7,6.72s-8.47,4.76-13,7.14a125.88,125.88,0,0,1-18.18,9.78,133.6,133.6,0,0,1-20,6.83c1.74-.25,3.54-.52,5.32-.86a110.71,110.71,0,0,0,31.66-11c4.84-2.56,9.06-5.2,13.26-7.73s8.26-5,12.35-7.35,8.19-4.49,12.39-6.35a79.49,79.49,0,0,1,12.74-4.6,29.9,29.9,0,0,1,12.48-.65,24.64,24.64,0,0,1,6,1.91c1,.43,1.95,1,2.94,1.57l1.43.91c.47.32.92.67,1.38,1a3.43,3.43,0,0,1,1.24,1.29c0,.17-.57-.14-1.28-.71a33.68,33.68,0,0,0-5.53-3.35,23,23,0,0,0-5.66-1.89,28.25,28.25,0,0,0-11.8.42,51.14,51.14,0,0,0-6.09,1.82c-2.08.76-4.18,1.58-6.25,2.5-4.16,1.81-8.27,3.89-12.46,6.19-6.93,3.81-13.62,8-20.56,12.21a143.85,143.85,0,0,1-22.77,11.34,122.27,122.27,0,0,0,23.17-10.53c6.86-3.94,13.26-7.88,19.69-11.38a127,127,0,0,1,19.49-8.87c6.46-2.23,12.52-3.19,18.13-1.73a6.93,6.93,0,0,1,2.48,1,1.15,1.15,0,0,1,.62,0c.35.11.71.25,1.07.38a8.56,8.56,0,0,1,1.13.45l1.17.54c.38.19.75.41,1.14.61.79.4,1.51.91,2.27,1.39s1.48,1,2.18,1.64a4.62,4.62,0,0,1,1.31,1.48C563.59,224.5,563.19,224.28,562.59,223.77ZM393.68,56.1l-.24-.06.65-.06,1.38.56Zm-4.75,9.32h0l-.82-.26Zm75.32,80.64,3.46-5.63c1.17-1.88,2.28-3.93,3.33-5.93A105.39,105.39,0,0,0,476.52,122a86.56,86.56,0,0,0,5.26-27.42,78,78,0,0,1-1.1,13.78A83.69,83.69,0,0,1,478,118.56a90.76,90.76,0,0,1-3.73,9.75c-1.41,3.16-3,6.23-4.7,9.23l-1.32,2.22-1.34,2.1Zm-79.1-89.87a13,13,0,0,1,3.38.46A5.84,5.84,0,0,1,390,55.47a40.67,40.67,0,0,1,4.49-2.32c-.43-.24-.06-.4.08-.55l.47-.4-5.11,2C388.33,54.84,386.74,55.68,385.15,56.19Zm-8.47,8.89-.24,0-.27-.72Zm.5,1.19.27-.1C377.58,66.42,377.44,66.41,377.18,66.27Zm2.38-.86a2,2,0,0,0-.52-.07Zm15.9,13.88-2-3.08,1.83,3Z"/><path d="M462.88,94.7l.37,0a.8.8,0,0,1-.57.47c3.5-.1,6-3,7.24-5.78a1.55,1.55,0,0,0,1-1.92,1.57,1.57,0,0,0-2.12-.53,3.16,3.16,0,0,1-.67,0,13.55,13.55,0,0,0-5.57.28h1.29a5.25,5.25,0,0,0-1.61.53l.41.24a4.28,4.28,0,0,0-4.14,3.6A3,3,0,0,0,462,94.74Z"/><path d="M468.08,96.59c-1.13.11-2.22.22-3.35.31l-.31-.11.75.92,0-.07a6.11,6.11,0,0,1,2.19-3.41l.32-.41a.94.94,0,0,0,0-.75,1.08,1.08,0,0,0-1.49-.46l-.7.31c-1.95.42-4.39,2-4,4.21.1.5.62.85,1,1.25a1.56,1.56,0,0,0,2.13.36,1.49,1.49,0,0,0,.63-2l.47-.12-.13.42c-.19-.69.4-1.27.7-1.89l.67-.65-1.47-1.2-.28.45a1.65,1.65,0,0,1,.21.11,17.39,17.39,0,0,1-1.55,2.59l-.62,1.24a.81.81,0,0,0,.77.91h.68l-.34,0c1.27-.39,2.51-.93,3.79-1.25a.4.4,0,0,0,.35-.42A.34.34,0,0,0,468.08,96.59Z"/><path d="M464.57,99.25a1,1,0,0,0-.71.19l0,.19.52,0C464.72,99.67,464.73,99.45,464.57,99.25Z"/><path d="M463.84,99.63h-.21l.19.07,0,0Z"/><path d="M548.41,88.59a12.18,12.18,0,0,0,6.78.46,18.05,18.05,0,0,0,7.32-4.11c.16-.15.25-.31.2-.37s-.21,0-.35.15a17.89,17.89,0,0,1-7.23,4,11.82,11.82,0,0,1-6.6-.47c-.16,0-.36,0-.39,0S548.24,88.54,548.41,88.59Z"/><path d="M585,58.24c0,.2,0,.22.15,0a1.75,1.75,0,0,0,.23-.64c0-.17-.06-.19-.15,0A1.71,1.71,0,0,0,585,58.24Z"/><path d="M589.05,61.55c-.29,1.16-.51,2.28-.72,3.29a2,2,0,0,1-.2.52c.12,0,.13.22,0,.64a83.79,83.79,0,0,1-10.84,25.39,1.06,1.06,0,0,1,0,.51,8.15,8.15,0,0,1-1.92,3l-.8.79a36.75,36.75,0,0,1-11.41,8.2c-.42.29-.89.57-1.4.86a16,16,0,0,1-1.71.74,27.44,27.44,0,0,1-6.47,2.09,23.81,23.81,0,0,1-3.44.44,26,26,0,0,1-3.41,0c.27.13.42.26.41.38-.12.28-1.19.38-2.41.22-.59-.08-1.14-.19-1.71-.29a44.57,44.57,0,0,0,5.14.9l.75.07,1.55,0a12.13,12.13,0,0,0,1.58,0c1.07-.1,2.15-.18,3.23-.37s2.33-.52,3.45-.83,2.16-.79,3.22-1.21,2-1,3-1.49,1.86-1.11,2.7-1.73a38.4,38.4,0,0,0,8.4-8.27,55.64,55.64,0,0,0,5.55-9l1.12-2.28,1-2.29c.31-.77.66-1.52,1-2.29l.84-2.3a1.9,1.9,0,0,1,.33-.65c.1-.09.16,0,.09.19-.28,1-.56,2-.84,3s-.63,2-.94,2.92c-.58,2-1.36,3.88-2.12,5.87a44.31,44.31,0,0,1-7.56,12.37,38.06,38.06,0,0,1-8.16,7c-.8.52-1.66,1-2.5,1.44s-1.8.84-2.72,1.25l-1.4.58c-.47.19-1,.32-1.48.47-1,.29-2,.59-3,.82a40.83,40.83,0,0,1-12,.48l-2.67-.31-2.42-.39c-.84-.13-1.53-.27-2.27-.4l-2.14-.4-2-.52-1.87-.43-.93-.21-.85-.17-1.71-.31a35.83,35.83,0,0,0-6.14-.45,38.78,38.78,0,0,0-11.4,1.93,49.66,49.66,0,0,0-8.06,3.4c-2.79,1.7-5.5,3.42-8.26,5.41-1.27,1.25-3.39.89-4.82-.86a4.71,4.71,0,0,1-1-3.64l-.41.24-.76.22a3.15,3.15,0,0,1-2.3-.32l-1-.46c-1.61-1.07-3.49-1.59-5.13-2.75l-.31-.67-.25-.08a3.76,3.76,0,0,1-1.94-1l-.49-.73a8.38,8.38,0,0,1-1-2.77,3.12,3.12,0,0,1-.51-1,4.23,4.23,0,0,1-1.91-2.18.59.59,0,0,1-.44-.75.64.64,0,0,1,.19-.3h0c-.24-.11-.31-.14-.6-.25l-.38.1-1.12.42a3,3,0,0,1-1.05-.15c-1.38-1-1.39-1-1.73-1.55a1.55,1.55,0,0,1,0-.21l-.65.08a1.83,1.83,0,0,1-.32-.09c-.25-.29-.25-.29-.39-.35a2,2,0,0,1-.18-.21c-.06-.46-.06-.46-.12-.56a1.49,1.49,0,0,1,0-.23,4.3,4.3,0,0,0,.24-.41l1.07.41-.09-.33.37.26-.3-.27.39,0-.49-.08a3.08,3.08,0,0,0,.9-.48,1.37,1.37,0,0,0,.45-.37,1.11,1.11,0,0,1-.15-.16l1.45-.58.29.11a.35.35,0,0,1,.22-.32l.37-.15,0-.1,0,0,.18-.33,0-.08h0l.77-1.44a3.53,3.53,0,0,1,.66-.2l-.26,0c-.17,0-.27-.38-.34-.37a23.86,23.86,0,0,0-5.27,1.71.61.61,0,0,1-.82,0,.51.51,0,0,1,.08-.77c1.91-3.6,6.15-5.83,10.31-6.37,1-.32,2-.65,3-1l-.21-.08.84-.12.09,0-.84-.29-.46,0c-2.26.85-4.67,1-7,1.68-1.26.35-2.54.38-3.8.64a.51.51,0,0,1-.7-.18.53.53,0,0,1,.31-.65c3.16-2.45,7.59-4.3,11.48-3.81a4.07,4.07,0,0,1,2.1-.35h0l-.64-.26c.56-.12,1,.13,1.55.1l-.48-.55c2.69-.68,5.37-1.94,8.13-1.81.1,0,.2,0,.3,0A13.5,13.5,0,0,1,488.65,82l.37-.25.11-.06.25-.09.51-.2c.69-.25,1.41-.49,2.16-.71l-3.09.63c1-.42,2.1-.85,3.18-1.23s2.27-.64,3.48-.9a42.48,42.48,0,0,1,5.08-.65,36.31,36.31,0,0,1,5,0,21.4,21.4,0,0,1,7.68,1.75A69.9,69.9,0,0,1,531.9,83c5.81,1.62,10.94,3.75,14.84,4.82.37.08.68.29.71.47s-.28.24-.66.16c-2.8-.55-6.32-1.76-10.21-3a87.68,87.68,0,0,0-12.62-3,79.29,79.29,0,0,1,10.49,3.17c3.3,1.2,6.4,2.52,9.15,3.52.73.23,1.38.4,2.07.61s1.24.37,1.86.63a8.94,8.94,0,0,0,1.1.25l1,.23,1,.1a5.21,5.21,0,0,0,.94.07,9,9,0,0,0,1.8-.09l.89-.1.92-.26a12.91,12.91,0,0,0,3.74-1.62l.93-.58.92-.69a23.32,23.32,0,0,0,1.81-1.57A43.09,43.09,0,0,0,568,79.58a73.53,73.53,0,0,0,4.52-8.11c1-2.06,1.89-4.21,2.8-6.29.44-1.05.83-2.13,1.25-3.19s.85-2.1,1.22-3.19c.76-2.17,1.6-4.29,2.32-6.51s1.56-4.42,2.3-6.73c.38-1.23,1-2.31,1.27-2.38s.27.88-.1,2.12c-2.75,9.73-5.86,19.25-10.24,27.93A56.4,56.4,0,0,1,565.62,85a28.46,28.46,0,0,1-4.83,4.31,16.64,16.64,0,0,1-5.28,2.47,13,13,0,0,1-4.49.43.53.53,0,0,1,0,.17.65.65,0,0,1-.42.55A7,7,0,0,0,552,93a6.67,6.67,0,0,0,1.34,0q.66-.08,1.35-.12c.45-.1.91-.21,1.38-.3,5-1.94,9.28-6.43,13.62-12a103.5,103.5,0,0,0,7.92-11.88,164,164,0,0,0,6.26-17.25,1.28,1.28,0,0,1,.26-.54c.08-.07.09.07,0,.32-.54,2.07-1,4.19-1.7,6.26s-1.27,4.19-2,6.25c.45-.56.85-.86,1.09-.71s.28.75.13,1.58l1.17-2.78c.22-.59.5-1,.62-1s.07.57-.14,1.13c-.79,1.91-1.54,3.83-2.37,5.7s-1.67,3.76-2.65,5.55A68.08,68.08,0,0,1,571,85.88a3.31,3.31,0,0,1,1.47-.66h0l1.32-1.86a123.46,123.46,0,0,0,8.77-19.21c2.47-6.7,4.65-13.59,6.68-20.58.08-.27.19-.48.25-.47s0,.23,0,.47q-.94,3.16-1.87,6.31l-2,6.25v0c.09-.16.17-.17.15,0a1.67,1.67,0,0,1-.22.65c-.11.18-.17.14-.15,0a161.68,161.68,0,0,1-9,22.26,140.39,140.39,0,0,0,9-20.16l.6-2.36a1.28,1.28,0,0,1,.26-.55c.07-.05.08.13,0,.35s-.1.44-.16.66c.47-1.32,1-2.27,1.34-2.15s.19,1.41-.3,2.8c-.62,1.86-1.22,3.72-1.88,5.57s-1.37,3.67-2.12,5.48l-.45,1.18-.36,1.24c1.34-2.74,2.47-5.57,3.63-8.39s2.17-5.68,3.1-8.57c.15-.5.36-.89.48-.87s.08.45-.07,1a150.14,150.14,0,0,1-4.8,15.49,89.24,89.24,0,0,1-7.07,15,54.32,54.32,0,0,1-5.6,10.23l1-1.12c4.39-4.86,6.92-10.14,9.07-15.3s3.68-10.43,5.48-15.91a.86.86,0,0,1,.27-.51c.06,0,.06.2,0,.48-1.72,5.37-3.06,10.4-5.28,15.71a93,93,0,0,1-6.33,12.53,65.17,65.17,0,0,0,6.65-12c.81-2.06,1.72-4.08,2.42-6.16l1.12-3.09c.34-1,.69-2.08,1-3.13a3.38,3.38,0,0,1,.42-.93s0-.11,0-.23c.24-1.09.51-2.26.79-3.45a1.35,1.35,0,0,1,.26-.59C589.09,61.14,589.1,61.29,589.05,61.55ZM476.69,96.21l-.14-.06h.4l.84.5Zm-3.33,5.7h0l-.49-.25Zm57.38-16.83a107.37,107.37,0,0,0-15.51-3.25c1.3,0,2.6,0,3.9.18A62.46,62.46,0,0,1,530.74,85.08ZM471.49,95.53a7.25,7.25,0,0,1,2,.59,3.32,3.32,0,0,1,.91-.66,23.57,23.57,0,0,1,2.81-1.18c-.26-.19,0-.27.06-.36l.29-.24-3.16.93C473.45,94.89,472.46,95.32,471.49,95.53Zm-5.49,5-.14,0-.12-.48Zm.22.8.16,0C466.44,101.45,466.36,101.43,466.22,101.31Zm1.45-.31a1,1,0,0,0-.3-.09Zm8.68,10.39-1-2.14.87,2.1Z"/></g></g></svg>