<svg xmlns="http://www.w3.org/2000/svg" viewBox="0 0 473.02 248.58"><g id="Layer_2" data-name="Layer 2"><g id="Layer_1-2" data-name="Layer 1"><path d="M229.83,25.57c.2,0,.41.11.61.16a1.62,1.62,0,0,1-1.12.61c5.91.76,11-3,14.07-6.84,1.47-.34,2.48-1.47,2.25-2.6S244,15,242.43,15.37a4.74,4.74,0,0,1-1.11-.14,20.53,20.53,0,0,0-4.44-1.16,32.47,32.47,0,0,0-4.88-.2l2.16.4a10.29,10.29,0,0,0-2.91.3l.59.5c-3.59-.44-7.51,1.62-8.41,4.6s1.39,5.47,4.84,5.73Z"/><path d="M237.77,30c-1.86-.1-3.72-.27-5.62-.45l-.48-.25.93,1.65,0-.12c.71-2,2.78-3.55,4.8-4.73l.68-.52a1.4,1.4,0,0,0,.32-1.15,1.8,1.8,0,0,0-2.28-1.18l-1.27.27A12.63,12.63,0,0,0,229.5,25a5.08,5.08,0,0,0-2.83,4.13c0,.82.76,1.51,1.24,2.24a2.65,2.65,0,0,0,3.44,1.1,2.5,2.5,0,0,0,1.74-3l.83-.05-.37.62c-.08-1.13,1.11-1.87,1.83-2.77.44-.27.88-.57,1.33-.82l-2-2.32-.62.65a2.43,2.43,0,0,1,.29.22,32.4,32.4,0,0,1-3.49,3.64l-1.47,1.82a1.24,1.24,0,0,0,1,1.64l1.14.18L231,32c2.23-.33,4.47-.77,6.66-.94a.72.72,0,0,0,.73-.57A.56.56,0,0,0,237.77,30Z"/><path d="M231.08,33.22a1.82,1.82,0,0,0-1.25.12c-.05.17-.07.26-.08.3l.84.16C231.2,33.92,231.29,33.57,231.08,33.22Z"/><path d="M229.75,33.64l-.36-.07.31.17s0-.05,0-.05Z"/><path d="M328,21.81Q339.41,25.4,350.25,30c.24.11.47.11.52,0s-.12-.27-.34-.36Q339.59,25,328.16,21.37c-.26-.07-.49,0-.55.08S327.74,21.74,328,21.81Z"/><path d="M376.84,53.66c-.18,0-.23.07-.1.22a.85.85,0,0,0,.52.29c.16,0,.22-.09.11-.22A.88.88,0,0,0,376.84,53.66Z"/><path d="M371.81,59.83a15,15,0,0,0-2.74-.65.88.88,0,0,1-.41-.2c0,.17-.26.23-.61.14-6.89-1.64-14-3.66-21.17-4.9a1,1,0,0,1-.43.33,3.63,3.63,0,0,1-2.63-.06l-.71-.31c-2.94-1-5.91-2-8.88-2.9a8.8,8.8,0,0,1-2.23,0l-8.31.43a.61.61,0,0,1,.17.53c-.14.44-.82.68-1.53.58l-1.09-.07c1,.19,2,.44,3.05.7a1.57,1.57,0,0,1,.4.13l3.46.43c5.16.55,10.23,1.11,15.29,1.74,2.53.29,5,.68,7.57,1s5,.81,7.52,1.34a.73.73,0,0,1,.51.24c.06.11,0,.22-.2.2-6.65-.48-12.68.42-19.73.3a172.24,172.24,0,0,0-24.54,1.44c-8.21-.18-15.76,1.61-23.47,4-2.86.92-5.6,1.82-8.24,2.8-5.42,2.12-10.43,4.18-15.19,6.59a3.68,3.68,0,0,1-3.68.49,6.18,6.18,0,0,1-3.17-3.11,7.68,7.68,0,0,1-.47-6l-.68.28-1.2.1a4.62,4.62,0,0,1-3.31-1.15l-1.34-1c-2.14-2.17-4.79-3.46-7-5.79l-.3-1.14-.35-.19a6.24,6.24,0,0,1-2.74-2.12l-.56-1.3a13.15,13.15,0,0,1-.85-4.63,4.81,4.81,0,0,1-.53-1.66,6.73,6.73,0,0,1-2.38-4,.91.91,0,0,1-.47-1.29,1.1,1.1,0,0,1,.39-.41h0a8.62,8.62,0,0,0-.89-.57l-.65.05-1.94.38a5.42,5.42,0,0,1-1.67-.51c-2-1.87-2-1.87-2.36-2.89,0-.12,0-.24,0-.35-.81,0-.87,0-1.1,0a2.68,2.68,0,0,1-.51-.23c-.31-.5-.31-.5-.53-.64a2.83,2.83,0,0,1-.24-.37c.06-.75.06-.75,0-.92a1.71,1.71,0,0,1,0-.38l.54-.58,1.63.91,0-.55.54.52-.42-.52.65.14-.79-.26a5.53,5.53,0,0,0,1.64-.52,2.46,2.46,0,0,0,.86-.49,3.25,3.25,0,0,1-.19-.28c1.31-.28,1.31-.28,2.58-.51a3.81,3.81,0,0,1,.45.26.58.58,0,0,1,.47-.43l.65-.15.1-.14,0,0c.16-.19.27-.32.39-.48l.08-.11h0l1.76-2a9.41,9.41,0,0,1,1.15-.1l-.41-.15c-.27-.12-.3-.68-.42-.69a37.59,37.59,0,0,0-9.28,1.17,1.07,1.07,0,0,1-1.38-.17.83.83,0,0,1,.4-1.2,19.35,19.35,0,0,1,8.71-5.54,26.61,26.61,0,0,1,10.44-1.14c1.7-.17,3.38-.32,5.06-.45l-.3-.2,1.37.11.14,0-1.21-.7-.74-.12a46,46,0,0,1-5.87.16c-2-.08-4-.12-6,0-2.19.07-4.26-.19-6.46-.2a.89.89,0,0,1-1.11-.5c-.1-.37.26-.79.77-.9,6.2-2.87,14-4.11,19.94-2a6.25,6.25,0,0,1,3.41.25h.06l-.91-.64c.92,0,1.53.59,2.38.72l-.54-1c4.4-.1,9-.9,13.09.21a3.42,3.42,0,0,1,.46,0,13.22,13.22,0,0,1,5.73-1.84c-.88-.08-1.76-.11-2.62-.17a18.35,18.35,0,0,1,5.64-.9,24.3,24.3,0,0,1,4.15.3,30.14,30.14,0,0,1,4,.87,16.09,16.09,0,0,1,6.14,3.19,192.43,192.43,0,0,1,29.89,3.35c.5.09.92.37,1,.64s-.36.41-.87.33c-7.05-.79-14.21-1.53-21.44-1.84,6,1.1,11.92,2.44,17.87,3.77l2.3.4a13.53,13.53,0,0,1,2.23.65c7.55,1.82,14.51,4.07,22,6.3,6.41,1.93,11.94,3.85,18.16,6.29,8.7,3.46,16.47,7.24,24,12.74,1,.69,1.77,1.65,1.64,2.11s-1.06.29-2.08-.39a172.77,172.77,0,0,0-25.6-12.71c-8.86-3.6-18-6.64-27.57-9.69-2.07-.61-4.1-1.29-6.16-1.83a.76.76,0,0,1,0,.26,1.16,1.16,0,0,1-.71.78c2.32.62,4.6,1.47,6.88,2.27A76.78,76.78,0,0,1,357,37c2.22,1,4.24,2.28,6.22,3.43s3.84,2.46,5.71,3.75a148.08,148.08,0,0,1,15.25,7.69.78.78,0,0,1,.41.39c0,.13-.13.14-.34,0-3.6-1.66-7.3-3.28-11-4.85.42.59.57,1.13.33,1.5s-.87.51-1.65.42l2.38,1.32c.48.28.79.64.67.83s-.59.16-1.06-.09c-1.62-.88-3.23-1.77-4.88-2.59s-3.27-1.67-5-2.43c-4.1-1.65-8.27-3-12.47-4.42a2.94,2.94,0,0,1,.78,1.61h0l1.91.69a106.39,106.39,0,0,1,34.39,15.93c.22.14.35.31.3.4s-.25,0-.44-.09a110.57,110.57,0,0,0-9.85-6.13h0c.1.13.07.25-.11.23a1,1,0,0,1-.53-.3c-.12-.15,0-.23.11-.22a104.71,104.71,0,0,0-19.66-8.23A121.69,121.69,0,0,1,376,54.35c.68.24,1.35.48,2,.71.18.08.38.26.4.38s-.17.12-.35,0l-.57-.21c1,.64,1.67,1.46,1.4,1.91s-1.44.28-2.54-.34c-1.5-.77-3-1.54-4.52-2.26s-3-1.48-4.56-2.16l-1-.38-1.11-.21c4.67,2.34,9.16,5,13.53,7.72.39.22.64.53.56.69s-.47.12-.86-.09a209.86,209.86,0,0,0-25.52-9.68l-4.71-.1-4.75.09,1.09.35c4.67,1.29,9.14,2.15,13.62,3.09a72,72,0,0,1,13.32,4c.22.09.37.25.35.34s-.21.11-.43,0a89.39,89.39,0,0,0-13.12-3.83c-1.87-.46-3.72-.82-5.51-1.18s-3.61-.58-5.39-.77c6.9,1.81,13.79,3.23,20.52,5.81a1.42,1.42,0,0,1,.7.45.29.29,0,0,1,.23,0,21.72,21.72,0,0,1,2.88.68.64.64,0,0,1,.43.34C372.17,59.84,372,59.87,371.81,59.83ZM251.74,32.12l-.21-.14.63.16,1.15,1Zm-7.28,7.74h0l-.7-.55Zm65.67-17.8c-2.14-.27-4.26-.63-6.39-1-1.07-.17-2.13-.37-3.2-.59s-2.14-.4-3.21-.64h3.14c1.63.31,3.24.64,4.86,1S308.53,21.65,310.13,22.06Zm-66.46,7.3A13.17,13.17,0,0,1,246.72,31a5.75,5.75,0,0,1,1.68-.73,42.77,42.77,0,0,1,4.88-.87c-.34-.39,0-.44.22-.54l.55-.26c-1.75.13-3.52.26-5.35.36A49.72,49.72,0,0,1,243.67,29.36ZM233,35.58l-.22-.09,0-.8S232.89,35.07,233,35.58Zm.11,1.33h.27C233.45,37.18,233.33,37.13,233.14,36.91Zm2.47-.13a1.61,1.61,0,0,0-.46-.23Zm10.68,18.75-.89-3.62.77,3.52Z"/><path d="M169.7,120.2c.19,0,.4,0,.59,0-.08.35-.4.6-.86.8a10.61,10.61,0,0,0,6.84-3.4,16.22,16.22,0,0,0,3.92-6.42,2.46,2.46,0,0,0,1.21-3.17,2.39,2.39,0,0,0-3.33-.66,3.89,3.89,0,0,1-1,.15,22.12,22.12,0,0,0-8.7.79l2-.06a7,7,0,0,0-2.48.93l.66.35c-3.28.38-6.11,3.17-6.16,6.13s2.63,5,5.84,4.64Z"/><path d="M178.08,122.78c-1.73.31-3.47.55-5.24.79l-.51-.14,1.28,1.4-.05-.11c.13-2.09,1.61-4,3.09-5.68l.47-.65a1.47,1.47,0,0,0,0-1.2,1.76,1.76,0,0,0-2.41-.65c-.37.18-.71.38-1.06.57-3,.88-6.74,3.63-5.93,7,.2.79,1.06,1.32,1.68,1.94a2.52,2.52,0,0,0,3.45.43,2.38,2.38,0,0,0,.82-3.29l.74-.23c0,.23-.11.46-.17.69-.36-1.09.52-2.06.93-3.1l1-1.11-2.44-1.81-.37.76c.12.07.32.14.32.16a26.6,26.6,0,0,1-2.18,4.29l-.9,2a1.31,1.31,0,0,0,1.3,1.4l1.09,0-.55,0c2-.7,3.92-1.67,5.9-2.31a.66.66,0,0,0,.5-.73A.55.55,0,0,0,178.08,122.78Z"/><path d="M172.77,127.34a1.62,1.62,0,0,0-1.13.35v.3h.82C173.05,128,173.05,127.64,172.77,127.34Z"/><path d="M171.64,128h-.35l.32.1s0,0,0,0Z"/><path d="M323.56,78.16c1.13.11,2.26.18,3.37.31l3.35.43,6.69.86,6.65,1.1,3.31.55,3.29.68,6.57,1.34L363.3,85l3.25.79c1.08.27,2.14.59,3.22.89l6.41,1.8c.58.16,1.08.22,1.13.11s-.35-.35-.89-.48L370,86.29l-3.22-.9-3.25-.8L357,83l-6.56-1.35L347.18,81l-3.31-.56-6.64-1.11c-2.23-.32-4.46-.58-6.69-.88s-4.47-.59-6.73-.76a2,2,0,0,0-1.2.15C322.58,78,323,78.11,323.56,78.16Z"/><path d="M443.26,128.28c-.39-.13-.43,0-.1.24a4.74,4.74,0,0,0,1.21.68c.33.11.38,0,.1-.24A4.75,4.75,0,0,0,443.26,128.28Z"/><path d="M436.26,133.5c-1.05-.48-2.07-.95-3.07-1.36s-2-.75-2.93-1a4.32,4.32,0,0,1-1-.49c0,.21-.42.16-1.19-.15a321.49,321.49,0,0,0-48.42-15.06,1.82,1.82,0,0,1-.82.26,16.8,16.8,0,0,1-6-.77l-1.75-.54c-1.78-.5-3.59-.89-5.38-1.33s-3.58-.91-5.39-1.26L355,110.66l-2.7-.55-2.72-.45a40.89,40.89,0,0,1-5.16-.19c-3.19,0-6.39.11-9.58.14l-9.61.46c.4.16.63.35.62.55s-.49.42-1.09.56a9.28,9.28,0,0,1-2.26.25l-2.6.06c2.48.1,5,.13,7.43.39a9.07,9.07,0,0,1,1,.11c2.73.13,5.49.13,8.3.35a288,288,0,0,1,70.74,12,4,4,0,0,1,1.22.54c.18.17.09.27-.33.16-14.65-3.64-27.75-4.7-44.05-6.31A221.58,221.58,0,0,0,307,120.63a147.76,147.76,0,0,0-28.27,5.78,166.19,166.19,0,0,0-26.57,10.66c-1.51.67-2.91,1.52-4.36,2.27l-4.27,2.28-4.13,2.44c-1.36.82-2.75,1.57-4.05,2.47l-1,.64-.49.32-.18.13-.63.48-1.27.92c-.84.62-1.71,1.17-2.51,1.83-1.63,1.27-3.26,2.48-4.92,3.67s-3.19,2.53-4.81,3.77a5.06,5.06,0,0,1-4,1.46,6.48,6.48,0,0,1-4.22-2.21,7.43,7.43,0,0,1-1.92-5.79l-.65.46-1.25.43a5.12,5.12,0,0,1-3.8-.3l-1.65-.67c-2.72-1.59-5.74-2.2-8.48-3.95l-.55-1.06-.4-.11a6,6,0,0,1-3.21-1.45l-.83-1.14a13.67,13.67,0,0,1-1.88-4.36,4.66,4.66,0,0,1-.9-1.51,6.8,6.8,0,0,1-3.23-3.35,1,1,0,0,1-.77-1.16,1.06,1.06,0,0,1,.27-.5h0a9.81,9.81,0,0,0-1-.36c-.37.14-.6.2-.6.2l-1.76.76a5.15,5.15,0,0,1-1.71-.18c-2.28-1.43-2.29-1.43-2.89-2.35a1.94,1.94,0,0,1-.07-.33c-.77.13-.83.14-1,.16a2.58,2.58,0,0,1-.53-.12c-.41-.44-.41-.44-.64-.53a2.25,2.25,0,0,1-.31-.32c-.13-.73-.13-.73-.24-.88a2,2,0,0,1,0-.37l.36-.67,1.74.59-.17-.53.62.4-.51-.42h.63l-.79-.1a4.64,4.64,0,0,0,1.4-.81,1.93,1.93,0,0,0,.68-.64,1.89,1.89,0,0,1-.25-.24c1.13-.55,1.13-.55,2.24-1.06a3,3,0,0,1,.48.16.55.55,0,0,1,.32-.53l.56-.29.05-.15,0,0c.1-.22.16-.38.24-.55l0-.13h0c.16-.39.39-1,1.08-2.36a7.37,7.37,0,0,1,1-.35l-.42,0c-.28-.06-.46-.6-.58-.58a17.44,17.44,0,0,0-2.13.53c-.68.23-1.36.5-2,.79-1.34.58-2.66,1.23-4,1.85a1,1,0,0,1-1.32.09.82.82,0,0,1,.07-1.23c2.7-6,9.14-9.75,15.48-11,1.51-.57,3-1.18,4.47-1.8l-.34-.12,1.28-.28.12,0-1.33-.36-.71.09a28.44,28.44,0,0,1-5.29,1.72c-1.8.47-3.61.94-5.41,1.54s-3.91.8-5.9,1.26a.85.85,0,0,1-1.14-.24.79.79,0,0,1,.43-1,35.77,35.77,0,0,1,8.15-5.23,20.91,20.91,0,0,1,9.17-1.75,5.58,5.58,0,0,1,3.13-.8l0,0-1-.35c.82-.27,1.58.14,2.39,0l-.83-.83c2-.66,3.93-1.58,5.88-2.37a30.66,30.66,0,0,1,2.95-1.06,14.9,14.9,0,0,1,3.06-.48,3.29,3.29,0,0,1,.43-.09,22.15,22.15,0,0,1,1.76-2l.49-.45.15-.12.43-.25.87-.49A38.17,38.17,0,0,1,213,94c-.93.3-1.83.66-2.73,1l-2.65,1a1.92,1.92,0,0,1,.27-.17l.33-.2.68-.41,1.36-.8c.91-.54,1.85-1,2.81-1.47,1.91-.92,3.89-1.8,6-2.62C230.45,86,244,83.88,250.72,85a245.22,245.22,0,0,1,33.55-6.18,268.86,268.86,0,0,1,33.9-1.43,4.27,4.27,0,0,1,2.41.56c.11.27-.66.48-1.82.45a264.88,264.88,0,0,0-48.55,4.61,288.56,288.56,0,0,1,41.22-2c1.77,0,3.55-.07,5.33,0s3.51.22,5.25.43c17.69,1,34.15,4,51.53,8l2.77.63,2.7.72,5.31,1.42c1.76.44,3.47,1,5.18,1.51l5.12,1.56c3.4,1.07,6.74,2.29,10.17,3.44s6.81,2.57,10.34,3.93a282.53,282.53,0,0,1,27.92,13.11,245.93,245.93,0,0,1,25.84,16.34c2.25,1.62,4.12,3.42,4.13,4s-1.84-.29-4.1-1.89a309.8,309.8,0,0,0-27.74-16.69A320.1,320.1,0,0,0,411.69,104,295.88,295.88,0,0,0,380.5,93.51a311.52,311.52,0,0,0-32.95-7.39c-2.43-.45-4.87-.73-7.28-1.1l-3.62-.52c-1.21-.15-2.42-.26-3.63-.39a.48.48,0,0,1,.1.28c0,.36-.51.65-1.3.85l4.1.46c1.36.19,2.72.42,4.08.63l4.09.66,2,.33,2,.42a190,190,0,0,1,45.68,10.7,234.47,234.47,0,0,1,28.52,13.49,281.6,281.6,0,0,1,34.41,18.3,3.19,3.19,0,0,1,1,.79c.1.18-.18.1-.63-.17l-5.95-3.27-3-1.65-3.06-1.57L439,121.2l-6.27-3c1.15,1,1.72,1.75,1.41,2.1s-1.5.2-3.15-.34l5.52,3c1.13.61,1.93,1.27,1.79,1.45s-1.12-.14-2.2-.7c-3.75-2-7.47-4-11.31-5.84-1.91-.92-3.79-1.9-5.73-2.77l-5.8-2.61a297,297,0,0,0-28.89-9.87,7.06,7.06,0,0,1,2.44,2.11h0l4.49,1.39c27.69,7.64,54.5,21,78.43,38.55.47.33.82.67.77.75s-.45-.11-.88-.41c-3.64-2.59-7.26-5.23-11-7.62-1.88-1.2-3.71-2.48-5.63-3.61l-5.73-3.44,0,0c.28.24.28.37-.1.23a5,5,0,0,1-1.19-.72c-.32-.27-.23-.35.09-.23a245.2,245.2,0,0,0-44.88-20.12A257.26,257.26,0,0,1,442,128.73c1.48.7,3,1.34,4.47,2.12a3.16,3.16,0,0,1,1,.75c.07.14-.27.05-.68-.17l-1.22-.63c2.41,1.51,4.06,3,3.75,3.43s-2.7-.52-5.21-2c-6.9-3.76-13.81-7.43-20.92-10.69l-2.34-1-2.42-.84a290.76,290.76,0,0,1,31.72,17.58c.89.52,1.57,1.1,1.49,1.27s-.87-.12-1.77-.65a297.55,297.55,0,0,0-28.58-14,288.87,288.87,0,0,0-30-11c-3.48-.62-7-1.1-10.47-1.63-3.53-.37-7-.81-10.6-1.1.87.18,1.74.41,2.61.64,11.11,2.61,21.43,5.16,31.57,8.25a197.91,197.91,0,0,1,30.21,11.69c.5.25.88.55.89.67s-.37,0-.87-.25a220.6,220.6,0,0,0-29.7-11.39l-6.34-1.94-6.28-1.66-3.09-.78-3.09-.66c-2.06-.43-4.1-.85-6.13-1.23l6.08,1.6,3,.78,3,.86,6,1.71,5.92,1.89,3,.94,2.93,1,5.87,2.12c1.94.75,3.87,1.55,5.81,2.34l2.92,1.2c1,.41,1.91.86,2.88,1.3a8.08,8.08,0,0,1,1.7,1,.76.76,0,0,1,.43.06,67.09,67.09,0,0,1,6.33,2.52,3.18,3.18,0,0,1,1.06.69C437,133.73,436.73,133.69,436.26,133.5Zm-244.6-12-.24-.08h.65l1.39.74ZM187,130.9h0l-.81-.38Zm96.62-48.2-7.27.82c-1.21.11-2.42.29-3.62.47l-3.62.49c-4.84.55-9.63,1.44-14.5,2.07l6.93-1.68,2.74-.44,2.76-.32,5.52-.62c1.83-.23,3.68-.34,5.53-.45ZM183.38,120.85a12.19,12.19,0,0,1,3.28.79,5.13,5.13,0,0,1,1.34-1.15,27.93,27.93,0,0,1,4.27-2.14c-.44-.29-.09-.44,0-.59l.43-.4c-1.58.61-3.25,1.1-4.86,1.76A43,43,0,0,1,183.38,120.85Zm-8.22,8.41-.23,0-.22-.76Zm.41,1.26.26-.06C175.94,130.72,175.81,130.69,175.57,130.52Zm2.31-.61a1.87,1.87,0,0,0-.49-.12Zm14.73,16-1.71-3.36,1.57,3.29Z"/><path d="M25.47,40.87c.2-.07.41-.12.61-.18a1.71,1.71,0,0,1-.69,1.15,15,15,0,0,0,6.41-5.93A26.14,26.14,0,0,0,35,27.83c1.23-1.1,1.71-2.73,1-3.73s-2.44-.93-3.75.23a5.11,5.11,0,0,1-1.11.47,18.31,18.31,0,0,0-4.68,1.35,27,27,0,0,0-4.59,2.54L24,27.85a10.65,10.65,0,0,0-2.5,1.94l.78.13c-3.49,1.59-6,5.8-5.28,9s3.88,4.24,7,2.6Z"/><path d="M34.64,40.71c-1.71.87-3.49,1.66-5.21,2.55l-.55,0,1.62,1-.08-.1c-.37-2.22.77-4.74,2-6.93l.37-.85a1.61,1.61,0,0,0-.25-1.26c-.55-.75-1.72-.7-2.62.11l-1,.95c-3,1.9-6.24,6.3-4.51,9.59.4.74,1.39.95,2.17,1.36a2.59,2.59,0,0,0,3.53-.85,2.7,2.7,0,0,0,.07-3.69c.23-.17.46-.35.7-.5,0,.25,0,.52,0,.78-.63-1,.1-2.31.32-3.53.26-.5.52-1,.8-1.48l-2.89-1.1-.25.93a3.45,3.45,0,0,1,.37.06A47.55,47.55,0,0,1,27.86,43c-.15.82-.31,1.62-.42,2.44a1.2,1.2,0,0,0,1.64,1c.36-.15.71-.3,1.08-.44l-.56.15c.92-.72,1.81-1.49,2.7-2.25s1.83-1.46,2.77-2.09a.81.81,0,0,0,.38-.91A.53.53,0,0,0,34.64,40.71Z"/><path d="M30.25,47.19a1.82,1.82,0,0,0-1,.77,2,2,0,0,0,.08.31l.81-.3C30.7,47.76,30.61,47.39,30.25,47.19Z"/><path d="M29.31,48.27,29,48.4h.35v-.12Z"/><path d="M62.53,184.47,60,186.36c-.84.64-1.63,1.3-2.44,1.95-1.61,1.32-3.31,2.59-4.78,4l-2.28,2a29.44,29.44,0,0,0-2.22,2.08l-.51.52-.16.18-.33.36c-.21.25-.61.55-.87.86a23.38,23.38,0,0,0-3.1,4.07,6.17,6.17,0,0,0-.77,2.45,3.83,3.83,0,0,0,.64,2.44,11.65,11.65,0,0,0,4,3.13A27.14,27.14,0,0,0,52,212.49a3.21,3.21,0,0,0,.36.11l.49.14,1.35.42c.91.27,1.85.48,2.77.73,1.87.43,3.76.84,5.7,1.12a83.91,83.91,0,0,0,11.84,1,5,5,0,0,0,2-.23,3.76,3.76,0,0,0-1.79-.21,83.21,83.21,0,0,1-11.79-1c-1.92-.28-3.8-.68-5.66-1.1l-2.76-.71c-.83-.26-2-.63-2.3-.7a27,27,0,0,1-4.58-2,11.77,11.77,0,0,1-3.86-2.93,3.54,3.54,0,0,1-.68-2.29,5.55,5.55,0,0,1,.68-2.34,20.53,20.53,0,0,1,2.91-3.87,9.5,9.5,0,0,1,.85-.83l.3-.34.16-.17.07-.08.23-.24,1-1.06,1.14-1,2.27-2c.77-.67,1.47-1.37,2.3-2L57.52,189,59.94,187l2.56-1.88a6.33,6.33,0,0,0,1.65-1.54C64.11,183.45,63.39,183.84,62.53,184.47Z"/><path d="M233.35,177.38c-1,0-.93.1.05.26s2.35.37,3.3.46.81,0,0-.26A15.27,15.27,0,0,0,233.35,177.38Z"/><path d="M225.48,185.39a61,61,0,0,0-13.21,3.43c-.75.28-1.6.52-2.26.7.34.07-.54.52-2.25,1.17-16.91,6.44-33.59,15.6-51.13,24.73-8.78,4.56-17.82,9.08-27.26,13.13a192.91,192.91,0,0,1-29.6,10.16,5.74,5.74,0,0,1-1.66.83A42.2,42.2,0,0,1,92,241.28c-1.31.26-2.73.51-4.2.75s-3,.37-4.6.52-3.16.18-4.74.23A116.33,116.33,0,0,1,64,242.46a98,98,0,0,1-14.45-2.27l-1.8-.42L46,239.28l-2-.56a18.31,18.31,0,0,1-2.22-.69c-1.47-.53-3-1-4.4-1.58L33,234.69a67.13,67.13,0,0,1-15.12-9.43A28.28,28.28,0,0,1,12.65,220a19.35,19.35,0,0,1-3.52-7.64,21.84,21.84,0,0,1-.43-7.42,30.58,30.58,0,0,1,1.7-7.19,32.91,32.91,0,0,1,3.3-6.89l4.45-6.7c.74-1.12,1.48-2.26,2.35-3.34.42-.55.82-1.11,1.27-1.66l1.42-1.66,2.56-3c.67-.83,1.38-1.58,2.1-2.33l4.33-4.55c1.47-1.48,3-2.87,4.5-4.31-.88.58-1.48.86-1.61.7-.07-.55,2.56-3.54,6-6.27,1.75-1.42,3.47-2.9,5.24-4.2-1.29.91-2.56,1.9-3.83,2.91l-3.82,3c-2.53,2-5,4.23-7.5,6.35-.7.67-1.35,1.27-2,1.81l-3.92,3.86c-.66.64-1.26,1.38-1.9,2.06l-2.66,3c-.45.51-.94,1-1.35,1.53l-1.21,1.53c-.83,1-1.55,2.07-2.28,3.12L11.56,189l-1.2,1.74c-.35.59-.65,1.19-1,1.78a31,31,0,0,0-1.66,3.63c-.49,1.22-.88,2.45-1.28,3.69s-.61,2.51-.82,3.78a29.15,29.15,0,0,0-.36,3.86,25.61,25.61,0,0,0,.24,3.9,21.11,21.11,0,0,0,.87,3.82c.18.62.41,1.23.64,1.83s.54,1.17.83,1.74a27.58,27.58,0,0,0,4.36,6.16,34.36,34.36,0,0,0,2.73,2.66c1,.83,2.09,1.6,3.13,2.41a68.13,68.13,0,0,0,14.37,7.86l3.91,1.5,4,1.3c.66.21,1.32.45,2,.64s1.3.32,2,.47l3.08.74a105.91,105.91,0,0,0,12.21,1.83,115.78,115.78,0,0,0,23.87-.41c15.62-1.93,30-6.6,43.33-12.28s25.76-12.34,37.86-18.83a22.15,22.15,0,0,1,2.8-1.34c.52-.15.49,0-.39.5-15,8.55-29.27,17.13-45.69,24.27a159.66,159.66,0,0,1-26.68,9.05,115.79,115.79,0,0,1-31.95,3.21c-.86,0-1.72-.06-2.59-.12l-2.59-.21c-1.73-.12-3.47-.37-5.21-.59s-3.48-.56-5.22-.85c-.87-.14-1.74-.35-2.61-.54l-3.06-.71a11.4,11.4,0,0,1-1.82-.5l-1.79-.57-3.6-1.16-3.53-1.32-1.78-.66a12.63,12.63,0,0,1-1.73-.73l-3.33-1.65c-1.12-.56-2.25-1.1-3.28-1.74l-3.18-1.85c-.52-.32-1.09-.6-1.56-.95l-1.39-1.08A48.88,48.88,0,0,1,9.1,228.8a35.55,35.55,0,0,1-4.19-5.16L4,222.23c-.27-.48-.54-1-.8-1.47a26.1,26.1,0,0,1-1.38-3.1c-.37-1.08-.73-2.18-1-3.29S.35,212.11.21,211a34.31,34.31,0,0,1,1.21-13.49A37,37,0,0,1,3.86,191l.77-1.61c.32-.53.67-1.05,1-1.57l2-3.14,4.08-6.31a56.31,56.31,0,0,1,4.83-6.26l2.54-2.93c.56-.65,1.1-1.34,1.68-2l3.5-3.7c2.32-2.53,4.75-4.77,7.18-7.08l1.82-1.73L35.15,153l3.71-3.23C48.79,141.33,58.94,134,68.55,127c10.24-7.05,19.63-13.73,27.67-20.64,1.06-.84,2-1.72,2.94-2.6l2.84-2.61c1-.86,1.75-1.77,2.64-2.65l2.58-2.65a63.27,63.27,0,0,0,7.71-10.27c.54-.84.91-1.67,1.38-2.48s.81-1.62,1.07-2.39a23,23,0,0,0,1.37-4.31,15.17,15.17,0,0,0,.36-3.48,11.72,11.72,0,0,0-.39-2.6A15.24,15.24,0,0,0,116,65.41a16.63,16.63,0,0,0-5-4.21,20.06,20.06,0,0,0-8.88-2.05,25.47,25.47,0,0,0-5.38.49,26.16,26.16,0,0,0-5.21,1.65c-.4.19-.8.34-1.22.58l-.64.31a.43.43,0,0,0-.11.08l-.35.28c-.23.18-.46.35-.7.51-.45.4-.92.71-1.37,1.1a58.3,58.3,0,0,0-5.5,4.91,2.56,2.56,0,0,1-2.77,1,9.14,9.14,0,0,1-4.22-2,8.55,8.55,0,0,1-3.26-5,6.17,6.17,0,0,1-.46.43l-1,.43a5,5,0,0,1-3.46.05l-1.66-.42c-2.92-1.12-5.93-1.22-9-2.29L55,60.34h-.41a6.4,6.4,0,0,1-3.43-.64l-1.12-.88a13.13,13.13,0,0,1-3-3.7,5,5,0,0,1-1.27-1.23,6.78,6.78,0,0,1-4-2.4.93.93,0,0,1-1-.93A1.18,1.18,0,0,1,40.9,50h0a8.16,8.16,0,0,0-1-.06c-.33.24-.54.37-.54.37-.81.7-.81.7-1.54,1.31a5.42,5.42,0,0,1-1.71.39c-2.61-.67-2.62-.65-3.46-1.37-.06-.11-.11-.21-.16-.32-.72.41-.77.44-1,.54a2.56,2.56,0,0,1-.55.07c-.52-.29-.52-.29-.77-.3a2.75,2.75,0,0,1-.39-.21c-.32-.7-.32-.7-.47-.81a2.19,2.19,0,0,1-.14-.37c.11-.53.16-.73.18-.82l1.87,0-.31-.48.72.18L31,47.81l.62-.22-.81.19A6.79,6.79,0,0,0,32,46.44a2.43,2.43,0,0,0,.53-.88,1.63,1.63,0,0,1-.3-.16c1-.95,1-1,2-1.83a4.42,4.42,0,0,1,.52,0,.64.64,0,0,1,.22-.64l.51-.47,0-.17,0,0c0-.26.08-.44.12-.65l0-.14h0l.66-2.77a8.84,8.84,0,0,1,1-.69l-.44.07c-.3,0-.6-.48-.71-.42a35,35,0,0,0-7.74,6,1.12,1.12,0,0,1-1.31.58.88.88,0,0,1-.22-1.31,20.89,20.89,0,0,1,5.19-9.86,27.2,27.2,0,0,1,9.29-6.56c1.6-1,3.14-2,4.76-3l-.39-.06,1.4-.55.13-.08-1.49-.12L45,23c-3.63,2.39-7.64,3.89-11.36,6.27-2,1.28-4.07,2.08-6.06,3.3-.41.4-.95.47-1.23.15s-.14-.89.27-1.29C30.84,25.26,38,19.75,44.82,18.92a7.32,7.32,0,0,1,3.56-1.44l.06,0-1.17-.2c.94-.42,1.78-.17,2.71-.43L49,16.07c4.51-2.21,9.13-5.2,14.09-5.65a5,5,0,0,1,.52-.14A31.39,31.39,0,0,1,66,8.07l.66-.51c.08,0,.07,0,.23-.13l1.29-.54c.87-.35,1.73-.72,2.63-1A78,78,0,0,1,82.31,2.59c-1.37.26-2.73.51-4.09.79s-2.69.64-4,1-2.67.78-4,1.2L66.54,6.84l0,0,.23-.1.51-.21,1-.44c.69-.28,1.37-.58,2.07-.85,1.41-.51,2.83-1,4.27-1.51A79.74,79.74,0,0,1,83.5,1.43a75.8,75.8,0,0,1,45.21,5,72.52,72.52,0,0,1,12.11,6.89,67,67,0,0,1,17.6,18.56,62.16,62.16,0,0,1,5.14,10,53.35,53.35,0,0,1,4,17.51c.22,1.07.42,2.14.55,3.25s.29,2.18.38,3.29l.19,3.33c.07,1.12,0,2.18,0,3.28a63,63,0,0,1-.48,6.46c-.12,1.07-.33,2.1-.5,3.15s-.37,2.1-.63,3.1l-.75,3-.92,2.94c-.29,1-.64,1.94-1,2.87s-.72,1.88-1.1,2.8a85.5,85.5,0,0,1-5.27,10.33A104.23,104.23,0,0,1,145,124.39c-2.37,2.54-4.85,5-7.29,7.2L134,134.94c-1.22,1.13-2.49,2.1-3.74,3.16a317.32,317.32,0,0,1-30.42,21.79c-10,6.5-19.79,12.55-28.7,18.86a14.09,14.09,0,0,1-4.06,2.33c-.35-.08.71-1.14,2.52-2.47,12.6-9.35,27-18.11,41.59-28.31a254.8,254.8,0,0,0,21.68-17l5.23-4.86c1.74-1.67,3.48-3.47,5.16-5.3a109.92,109.92,0,0,0,9.52-11.93,101.86,101.86,0,0,1-8.14,9.88c-.71.77-1.43,1.53-2.16,2.26s-1.45,1.5-2.2,2.2L138,127.68l-2.24,2-4.5,3.93-4.6,3.66-2.3,1.82-2.34,1.7-4.67,3.41c-12.52,8.74-25.26,16.24-37.24,23.9l-4.53,3-4.44,3-4.32,3c-1.41,1-2.9,1.92-4.27,2.92L57.45,184l-4.85,4c-1.59,1.36-3,2.79-4.57,4.18l-1.13,1c-.37.35-.7.73-1,1.09l-.46.49-.24.26-.46.53c-.3.36-.75.75-1.08,1.15l-1,1.26a28.46,28.46,0,0,0-2,2.57,12,12,0,0,0-1.43,2.87A5.8,5.8,0,0,0,39,206.6a5.45,5.45,0,0,0,1.64,2.72,13.48,13.48,0,0,0,2.62,1.88,31.84,31.84,0,0,0,5.86,2.73c.5.19,1,.33,1.54.49l.77.24.46.11.63.17,1.4.4,1.43.33c.95.21,1.9.45,2.88.61a74.82,74.82,0,0,0,12,1.31,95.58,95.58,0,0,0,10.45-.25c3.47-.3,6.84-.71,10.27-1.35a141.91,141.91,0,0,0,20.22-5.35c13.41-4.54,26.65-10.77,41.13-17.82,10.19-4.95,20.39-9.93,31-14.38,5.29-2.22,10.68-4.31,16.19-6.17a124.05,124.05,0,0,1,17.64-4.79,59.83,59.83,0,0,1,21-.37,44.28,44.28,0,0,1,21,9.81,55.54,55.54,0,0,1,13.38,17,76.48,76.48,0,0,1,6.66,18.92c1.51,6.65,1.83,12.48,1.5,13.26s-1.24-3.57-2.54-10a81.59,81.59,0,0,0-6.38-19.3,54.75,54.75,0,0,0-13.32-17.5,43.36,43.36,0,0,0-9.91-6.45A42.75,42.75,0,0,0,237,169.33a60.14,60.14,0,0,0-21.48,1c-3.28.69-6.42,1.54-9.45,2.47s-5.9,1.9-8.81,2.93c-5.79,2.08-11.43,4.37-17,6.78-11.06,4.82-21.66,10.09-32.14,15.11s-20.85,9.76-31.38,13.6a142.62,142.62,0,0,1-31.88,8,87.91,87.91,0,0,1-31.51-1.88l-1.86-.54c-.51-.14-.9-.23-1.28-.36-.77-.27-1.56-.48-2.32-.79s-1.53-.58-2.27-.93-1.49-.69-2.22-1.07-1.43-.8-2.14-1.22a17.47,17.47,0,0,1-2-1.39,6.81,6.81,0,0,1-2.7-4,7.24,7.24,0,0,1,.55-4.16,17.23,17.23,0,0,1,2.14-3.64c.87-1.11,1.76-2.18,2.64-3.26.42-.53,1-1,1.4-1.49s.68-.78,1.64-1.78c-.15,0-.29,0-.35,0-.26-.25.06-1.16,1-2.38-.49.46-1,.9-1.45,1.39L43,192.89c-.53.57-1.06,1.15-1.7,1.77-1.15,1.29-2.23,2.65-3.36,4a18.64,18.64,0,0,0-2.69,4.53,7.33,7.33,0,0,0-.29,5.19,8.1,8.1,0,0,0,2.33,2.87,19.58,19.58,0,0,0,3.13,2,40.37,40.37,0,0,0,6.67,3c1.13.42,2.29.73,3.43,1.06l.47.11.54.14,1.3.35c.87.24,1.77.39,2.65.6A79.46,79.46,0,0,0,66.34,220a100.72,100.72,0,0,0,11.28.2q5.7-.27,11.47-1.1a155.08,155.08,0,0,0,23.53-5.56,334.58,334.58,0,0,0,31.52-12c10.24-4.37,20.37-8.94,30.88-13.28,6.56-3,13.23-5.86,20.09-8.44,3.43-1.28,6.91-2.5,10.44-3.62a110.18,110.18,0,0,1,11.09-2.95,63.84,63.84,0,0,1,12.1-1.37,43.5,43.5,0,0,1,12.94,1.69c1.09.28,2.15.71,3.22,1.08s2.11.86,3.11,1.4a39.66,39.66,0,0,1,5.74,3.51,45.92,45.92,0,0,1,9.22,9.14,15.79,15.79,0,0,1,1.79,2.7c.19.46-.27-.1-1.08-1.19a45.56,45.56,0,0,0-13.12-12,38.12,38.12,0,0,0-8.55-3.74,40.53,40.53,0,0,0-9-1.56,59.42,59.42,0,0,0-17.09,1.61c-2.69.61-5.31,1.34-7.87,2.14-1.29.39-2.53.81-3.78,1.23s-2.49.86-3.73,1.3c3.25-.77,5.28-.9,5.16-.41s-2.43,1.68-6,3.23c4.46-1.52,8.94-3,13.65-4.12,2.9-.7,5.29-.95,5.24-.7s-2.33.86-5.06,1.53a203.78,203.78,0,0,0-27.17,9.36c-8.78,3.63-17.34,7.64-25.84,11.65-10.12,5-20.14,9.93-30.36,14.28a192.4,192.4,0,0,1-31.36,10.63,31.49,31.49,0,0,1,6.53-.27h0c3.31-.94,6.61-1.92,9.85-3,14.83-5.37,29.09-12.5,43.51-19.68s29.1-14.42,44.78-19.78c7.79-2.65,16-5.07,24.86-5.3a38.71,38.71,0,0,1,13.29,1.88,34.46,34.46,0,0,1,11.76,6.79c6.8,5.93,11.37,13.84,14.11,22s4,16.6,5,24.78a8.62,8.62,0,0,1,.14,2.38,6.48,6.48,0,0,1-.44-2.09c-1.27-9.86-2.75-20.08-6.91-29.73a49.79,49.79,0,0,0-8.41-13.37,36.76,36.76,0,0,0-13-9.53l.08.05c.78.41.88.57,0,.26s-2.39-.86-3.19-1.2-.82-.43,0-.27A40.78,40.78,0,0,0,226,177.11a72.47,72.47,0,0,0-14.14,2.59,212.29,212.29,0,0,0-26.12,9.6c-16.88,7.37-32.81,16.1-49.08,23.61,15.23-6.73,30.09-14.51,45.52-21.26a245.34,245.34,0,0,1,23.65-9.07,106.55,106.55,0,0,1,12.37-3.27,54.93,54.93,0,0,1,13-1.05,35.72,35.72,0,0,1,11.51,1.92,12.48,12.48,0,0,1,2.63,1.33c.22.22-.51-.09-1.54-.49a31.35,31.35,0,0,0-3.09-1.07,25.24,25.24,0,0,1,7.46,3.89c1.67,1.3,2.46,2.29,2.26,2.45-.62.23-5.14-3.11-11.52-4.82a38.11,38.11,0,0,0-13.07-1,70.93,70.93,0,0,0-12.92,2.43,213.25,213.25,0,0,0-24.73,8.93c-1.74.75-3.46,1.56-5.19,2.35s-3.41,1.71-5.09,2.6c6.21-2.79,12.49-5.44,18.85-7.82,3.19-1.19,6.39-2.31,9.62-3.33s6.48-2,9.76-2.73c6.54-1.5,13.32-2.2,19.8-1a29.84,29.84,0,0,1,9.15,3.34,33.2,33.2,0,0,1,7.63,6.09,10.2,10.2,0,0,1,2.5,3.39c-.12.15-1.32-1.2-2.86-2.79A29.72,29.72,0,0,0,238,183.6a39.89,39.89,0,0,0-16.82,0,106.72,106.72,0,0,0-16.85,4.9c-5.57,2-11.07,4.3-16.52,6.73-21.79,9.74-42.8,22.07-66,30.88a178.58,178.58,0,0,1-23.23,8.47A123.39,123.39,0,0,1,73.37,239c1.1,0,2.2,0,3.31-.06s2.22-.06,3.32-.16c14.15-1,27.12-4.57,39.14-9.06A313.69,313.69,0,0,0,153,214.07c10.79-5.62,21.31-11.38,32.2-16.58,5.44-2.59,11-5.05,16.68-7.26a119.33,119.33,0,0,1,17.48-5.52,8.39,8.39,0,0,1,2.37-.27c.14.06-.65.31-1.85.53A112.54,112.54,0,0,0,203,190.3c-5.52,2.12-10.87,4.51-16.17,7-10.6,5-21,10.7-32,16.43C145.68,218.5,136.58,223,127.3,227a199,199,0,0,1-28.55,10,176.79,176.79,0,0,0,28.75-9.37c9.12-3.81,17.84-8.08,26.38-12.44,17.05-8.7,33.5-17.79,51.14-24.27a30.3,30.3,0,0,1,4.13-1.29,3.34,3.34,0,0,1,.83-.42,70.14,70.14,0,0,1,14-4,10.58,10.58,0,0,1,2.61-.16C227.06,185.12,226.5,185.24,225.48,185.39ZM48.48,35.82l-.26,0,.67-.15,1.53.48ZM45.34,46.49h0l-.89-.17Zm84.45,87c2.15-1.78,4.22-3.75,6.33-5.62s4.2-4,6.22-6.12a106.8,106.8,0,0,0,11.32-14.13,77.72,77.72,0,0,0,8.78-17.26,64,64,0,0,0,3.77-20.64,62.8,62.8,0,0,1-3,20.37,81.45,81.45,0,0,1-14.49,25.1,117.3,117.3,0,0,1-9.22,9.86c-.81.74-1.62,1.54-2.43,2.23l-2.43,2.1C133.06,130.75,131.46,132.21,129.79,133.49Zm-90-96.37a11,11,0,0,1,3.53,0,6.13,6.13,0,0,1,1.23-1.51,34.11,34.11,0,0,1,4.23-3.15c-.5-.22-.15-.45,0-.63l.41-.51-2.45,1.41L44.2,34.19C42.72,35.12,41.24,36.28,39.74,37.12ZM33.11,48.3l-.24,0-.41-.7Zm.74,1.15.23-.16C34.25,49.53,34.12,49.54,33.85,49.45ZM36,48.07a1.31,1.31,0,0,0-.52,0ZM54.44,59.71l-2.53-2.79c.78.93,1.57,1.84,2.37,2.75Z"/></g></g></svg>