<svg xmlns="http://www.w3.org/2000/svg" viewBox="0 0 453.06 297.9"><g id="Layer_2" data-name="Layer 2"><g id="Layer_1-2" data-name="Layer 1"><path d="M255.72,32.35l.63-.07a1.47,1.47,0,0,1-.82.95,12.79,12.79,0,0,0,6.91-4.5,20.67,20.67,0,0,0,3.71-7c1.3-.86,1.84-2.33,1.2-3.31s-2.27-1.07-3.65-.19a5.71,5.71,0,0,1-1.11.29,24.35,24.35,0,0,0-9.31,2.19l2.18-.42a9.81,9.81,0,0,0-2.61,1.35l.75.25c-3.55.86-6.37,4.17-6.09,7.21s3.36,4.61,6.69,3.65Z"/><path d="M264.81,33.58c-1.8.57-3.6,1.09-5.42,1.62l-.54-.05,1.49,1.2-.07-.11c-.11-2.13,1.25-4.31,2.69-6.16l.44-.74a1.42,1.42,0,0,0-.14-1.2,1.83,1.83,0,0,0-2.58-.25l-1.08.73c-3.12,1.3-6.81,4.75-5.49,8.1.31.76,1.27,1.14,2,1.65a2.67,2.67,0,0,0,3.63-.18,2.44,2.44,0,0,0,.46-3.45l.76-.36-.11.72c-.5-1,.32-2.15.67-3.24l.93-1.25-2.75-1.44-.33.82a2.34,2.34,0,0,1,.36.11,33.76,33.76,0,0,1-1.88,4.65L257.16,37a1.28,1.28,0,0,0,1.53,1.18l1.13-.23-.58,0c2-1.06,3.87-2.34,5.89-3.27a.71.71,0,0,0,.46-.8A.56.56,0,0,0,264.81,33.58Z"/><path d="M259.77,39a1.75,1.75,0,0,0-1.11.56l0,.31.85-.15C260.15,39.64,260.11,39.28,259.77,39Z"/><path d="M258.69,39.89l-.35.06.34,0,0-.06Z"/><path d="M442.77,163.51a105,105,0,0,1,7,21.55,122,122,0,0,1,2.63,21.68A110.58,110.58,0,0,1,451,229a85.88,85.88,0,0,1-7.21,22.9l-.67,1.43-.8,1.43-1.63,2.83-.83,1.41-.91,1.33c-.62.89-1.21,1.78-1.87,2.65a69.72,69.72,0,0,1-8.88,9.75A63.48,63.48,0,0,1,405,286a66.72,66.72,0,0,1-13,2.74c-1.09.1-2.19.19-3.28.27l-3.29.09c-2.13,0-4.22-.06-6.27-.24A94.51,94.51,0,0,1,356.74,284a12.5,12.5,0,0,0-3.49-.9,8,8,0,0,0,2.87,1.31,96.74,96.74,0,0,0,22.54,5c1,.07,2.06.16,3.11.21l3.17.08c2.19,0,4.42-.09,6.62-.32a66.45,66.45,0,0,0,13.09-2.62,63.88,63.88,0,0,0,23.42-13.13,66.4,66.4,0,0,0,9.05-9.73c.7-.86,1.29-1.76,1.91-2.65s1.26-1.76,1.79-2.73l1.65-2.84c.52-1,1.13-1.92,1.54-2.87a84.89,84.89,0,0,0,7.43-23A111,111,0,0,0,453,207.42a122.78,122.78,0,0,0-2.5-21.78A106.86,106.86,0,0,0,443.68,164a19.22,19.22,0,0,0-2.15-3.77C441.33,160.23,441.89,161.66,442.77,163.51Z"/><path d="M160.26,208.75c1.07-.33,1-.45-.15-.3a21.56,21.56,0,0,0-3.77.88c-.88.34-.8.48.17.29C157.64,209.39,159.37,209.05,160.26,208.75Z"/><path d="M168.58,196.68l2.59-.53,2.59-.37,5.06-.75,4.91-.47,2.37-.24,2.32-.12c1.14,0,2.42,0,3.38.05-.41-.2,1-.49,3.59-.36l4.85.17,4.87.44c1.63.12,3.24.42,4.87.64l2.44.36c.85.16,1.77.38,2.66.57,3.44.82,6.39,1.68,9.44,2.58s6,1.84,9,2.78c12,3.79,23.86,7.89,35.82,12.15s23.95,8.66,35.91,13.21,23.92,9.17,35.8,13.94a6.56,6.56,0,0,1,2.23.29,60.25,60.25,0,0,1,7.26,2.31c2.88,1.08,6,2.37,9.16,3.65,1.55.68,3.09,1.31,4.61,1.91,2.31.87,4.58,1.66,6.81,2.32a65.21,65.21,0,0,0,6.51,1.57,43.66,43.66,0,0,0,6.16.69c1,.06,1.93,0,2.86,0s1.86-.13,2.77-.28a29,29,0,0,0,18.78-10.79c.45-.64.81-1.41,1.25-2.14s.74-1.56,1.17-2.35a23.14,23.14,0,0,0,1.15-2.59l.58-1.38.5-1.52c4.05-13.89,2.68-31.86-2.63-46.71.16,1,.1,1.63-.14,1.69s-.85-.92-1.47-2.22c-.31-.66-.62-1.45-1-2.23s-.72-1.73-1.12-2.57-.78-1.71-1.22-2.49-.83-1.59-1.31-2.29a18.76,18.76,0,0,1,.88,1.67,15.75,15.75,0,0,1,.85,1.75l.81,1.83.74,2,.37,1c.12.35.21.71.32,1.07l.65,2.12c.38,1.46.75,2.94,1.07,4.43.18.87.32,1.68.43,2.42a87,87,0,0,1,1.66,20.54c-.34,7.44-1.72,14.56-4.21,19.89a13.09,13.09,0,0,1-1,1.91,15.06,15.06,0,0,1-1,1.82l-.57.9c-.19.29-.41.55-.62.84s-.39.56-.61.83l-.66.77a27.54,27.54,0,0,1-2.79,2.82,26.91,26.91,0,0,1-6.61,4.07c-.63.2-1.22.51-1.86.68l-.95.31-1,.24a28.92,28.92,0,0,1-8.42.75,53,53,0,0,1-10.06-1.58,115.1,115.1,0,0,1-11.15-3.47c-3.9-1.4-7.79-3-12.09-4.68s-8.43-3.35-12.63-5c-8.4-3.29-16.82-6.43-25.22-9.53s-16.79-6.13-25.19-9.1-16.81-5.85-25.24-8.69a28.42,28.42,0,0,1-3.75-1.46c-.6-.36-.42-.48.83-.09l31.4,9.63c10.26,3.22,20.44,6.42,30.76,9.78s20.77,6.94,31.63,10.87c2.78,1,5.31,1.92,7.86,2.79s5,1.67,7.43,2.38a67.61,67.61,0,0,0,13.42,2.77c.6.06,1.18.08,1.75.1s1.12,0,1.66,0,1.06-.06,1.58-.07.92-.12,1.38-.16a19.43,19.43,0,0,0,12.64-7.29c.24-.35.53-.65.76-1s.48-.72.72-1.09.45-.8.68-1.18.35-.81.55-1.19a22.76,22.76,0,0,0,1.07-2.59,9.53,9.53,0,0,0,.47-1.48c.15-.51.31-1,.47-1.53a59.56,59.56,0,0,0,1.55-14.93,77.74,77.74,0,0,0-2-16.38,68.47,68.47,0,0,0-2.28-7.61l-.66-1.77-.73-1.63-.35-.82-.37-.68-.72-1.37c-.52-.79-.95-1.68-1.49-2.35s-1-1.39-1.5-2.07a9,9,0,0,1-.79-1c-.28-.31-.59-.6-.87-.92s-.63-.61-.93-.93a8.77,8.77,0,0,0-1-.95l-.54-.49c-.19-.17-.41-.33-.62-.5-.43-.33-.79-.68-1.31-1s-.91-.71-1.46-1.07l-1.63-1.09c-2.29-1.51-5.09-3.09-8.22-4.84l-1.22-.72-1.29-.74-1.28-.75-1-.63-2-1.24-2.06-1.21c-2.78-1.53-5.62-3-8.59-4.33A103.23,103.23,0,0,0,340.3,149c-1.79-.42-3.61-.82-5.53-1.21l-6-1.14c-2.08-.39-4.36-.85-6.85-1.4-.65-.16-1.23-.28-1.93-.47l-1.06-.29-.61-.16-.16,0c-.05,0-.09-.13-.13-.19a.36.36,0,0,0-.07-.1l-.08,0-.16-.05c-.86-.27-1.73-.52-2.58-.81s-1.66-.67-2.46-1.06-1.55-.87-2.35-1.24l-1.21-.56a2.45,2.45,0,0,1-.58-.3l-.51-.44-1-.88c-.32-.31-.61-.64-.91-1a18.1,18.1,0,0,1-1.68-2c-.52-.71-1.09-1.32-1.64-2l-.21-.24-.14-.3-.27-.6-.56-1.19c-.33-.81-.59-1.64-.89-2.46-.15-.41-.3-.82-.41-1.24l-.17-.63c0-.22-.06-.46-.09-.68-.1-.92-.2-1.83-.27-2.72l-.12-1.35a7,7,0,0,1-.06-1.37l.13-2.79a4.1,4.1,0,0,1,.28-1.39l.41-1.38c.59-1.88,1-3.64,1.48-5.45,0-.24.4-.39.43-.6l.23-.59.2-.49.19-.43c.24-.57.49-1.14.76-1.68a58.14,58.14,0,0,1,7.65-12c.72-.93,1.57-1.82,2.37-2.71s1.7-1.75,2.7-2.61a30.86,30.86,0,0,1,3.14-2.47,27.31,27.31,0,0,1,3.59-2.16l.93-.5,1-.41,2-.79c.67-.27,1.37-.39,2.06-.6a20.43,20.43,0,0,1,2.06-.49c1.34-.22,2.73-.47,3.95-.55.62,0,1.3-.14,1.87-.16l1.74-.11,1.62-.1,1.53-.12a26,26,0,0,0,2.59-.39,7.49,7.49,0,0,0,1.09-.29l.89-.34a2.46,2.46,0,0,0,.7-.43c.19-.16.45-.24.56-.43a3.53,3.53,0,0,0,.63-1l.2-.47.17-.59c.11-.27.24-.84.36-1.25s.27-1,.41-1.45A57.12,57.12,0,0,0,351,66.39a21.76,21.76,0,0,0-.08-7.14,10.42,10.42,0,0,0-.91-2.61,7.8,7.8,0,0,0-1.29-1.73,13.56,13.56,0,0,0-2.27-1.78,24.54,24.54,0,0,0-3.18-1.75,40.75,40.75,0,0,0-9.14-2.94,24,24,0,0,0-4.78-.55,14.29,14.29,0,0,0-3.08.56,23.45,23.45,0,0,0-2.79,1.2c-.95.52-1.89,1.06-2.92,1.76-.24.15-.52.38-.77.55s-.52.36-.79.58l-.81.62c-.11.09-.08.08-.13.12l-.36.38c-.24.24-.48.47-.73.75l-.74.76-.75.8c-1,1.08-2.06,2.17-3.12,3.38s-2.14,2.45-3.22,3.8c-1.32,2.31-4.46,2.43-7.17.1a7.91,7.91,0,0,1-2.73-5.42l-.52.53-1.07.56a4.54,4.54,0,0,1-3.53.23l-1.64-.42c-2.81-1.17-5.86-1.39-8.81-2.71l-.71-1-.41-.05a6,6,0,0,1-3.38-.95l-1-1a13.15,13.15,0,0,1-2.54-4,4.88,4.88,0,0,1-1.13-1.36,6.76,6.76,0,0,1-3.72-2.84.93.93,0,0,1-.94-1,1.07,1.07,0,0,1,.22-.54h0A8.2,8.2,0,0,0,269,43l-.58.29-1.69,1.06a5.28,5.28,0,0,1-1.76.12c-2.53-1-2.54-1-3.29-1.86a2.19,2.19,0,0,1-.12-.33c-.77.28-.82.3-1,.36a2.59,2.59,0,0,1-.56,0c-.48-.36-.48-.36-.72-.41a3.12,3.12,0,0,1-.37-.27c-.24-.72-.24-.72-.38-.85a1.78,1.78,0,0,1-.09-.38c.17-.47.24-.65.27-.73l1.87.27-.25-.5.7.29-.58-.33.65-.11-.83.05a5.37,5.37,0,0,0,1.34-1.07,2.21,2.21,0,0,0,.63-.76,1.69,1.69,0,0,1-.29-.2c1.11-.74,1.11-.73,2.21-1.43a3.74,3.74,0,0,1,.52.09.58.58,0,0,1,.28-.58l.56-.37,0-.16,0,0,.19-.59,0-.13h0c.14-.4.32-1,.89-2.52a7.21,7.21,0,0,1,1-.52h-.44c-.3,0-.54-.52-.66-.49a38.58,38.58,0,0,0-8.23,4.49,1.09,1.09,0,0,1-1.36.32.81.81,0,0,1-.08-1.25c2.19-6.45,8.74-11.31,15.56-13.37,1.58-.8,3.15-1.62,4.77-2.4l-.38-.07,1.39-.43.13-.07L276.92,18l-.77.17c-3.65,2-7.61,3-11.4,4.72-2,.93-4.12,1.41-6.18,2.21a.88.88,0,0,1-1.22-.05.86.86,0,0,1,.37-1.13,34.92,34.92,0,0,1,8.49-6.45,24.49,24.49,0,0,1,10-3,7.51,7.51,0,0,1,3.51-1.12l.06,0L278.64,13c.93-.33,1.75,0,2.66-.25l-.88-.73c1.12-.45,2.24-1,3.38-1.44s2.28-1,3.44-1.45a24.25,24.25,0,0,1,7.17-1.78c.18,0,.36-.08.53-.11a19.59,19.59,0,0,1,2.45-1.92c.23-.15.45-.3.69-.44l.09,0,0,0h0l.09,0c.54-.21,1.11-.38,1.67-.56,1.13-.37,2.25-.74,3.44-1A66.3,66.3,0,0,1,318.75.81a68.79,68.79,0,0,0-10.86,1.06c-1.78.29-3.48.69-5.2,1.1-.87.2-1.69.45-2.53.68L298.89,4l-.63.18-.25.08h0l0,0,.29-.11.66-.23,1.34-.44c.89-.29,1.77-.58,2.71-.83l2.76-.74,2.85-.62A65.35,65.35,0,0,1,320.56,0,59.3,59.3,0,0,1,333,1.11a63.34,63.34,0,0,1,6.18,1.53c2,.69,4.08,1.38,5.82,2.16a78.58,78.58,0,0,1,13.55,7.59,68.34,68.34,0,0,1,12.19,10.76A50.79,50.79,0,0,1,380,37.92a42.78,42.78,0,0,1,3.08,16.9,47.09,47.09,0,0,1-2.64,14.39,47.71,47.71,0,0,1-5.49,11.23,41.9,41.9,0,0,1-7.34,8.35c-.64.58-1.39,1.11-2.05,1.63s-1.46,1-2.16,1.42a21.68,21.68,0,0,1-2.12,1.24l-2.18,1-.93.44-1,.36c-.67.22-1.35.44-2,.64a15.7,15.7,0,0,1-2,.42,18.46,18.46,0,0,1-2,.28,30.27,30.27,0,0,1-3.79.05c-.6,0-1.21-.06-1.77-.11l-1.63-.21c-.56,0-1.07-.13-1.55-.21l-1.47-.23c-.88-.13-1.85-.28-2.65-.36L337,95c-.41,0-.76,0-1.14,0a12,12,0,0,0-2.12.12c-2.65.29-4.66,1.75-6.64,3.84a30.53,30.53,0,0,0-5,7.9c-.36.73-.63,1.49-.93,2.23s-.53,1.5-.74,2.25a21.12,21.12,0,0,0-.56,2.25c0,.08,0,.2-.06.26l-.06.16c0,.11,0,.18-.06.26l-.12.5a6.59,6.59,0,0,0,.14,4,3,3,0,0,0,1.38,1.43,4.25,4.25,0,0,0,.94.36,2.5,2.5,0,0,0,.49.11,2.12,2.12,0,0,0,.6.07c1.29,0,2.83-.12,4.54-.32l5.34-.61A182.39,182.39,0,0,1,357.21,118a117.08,117.08,0,0,1,12.89.76c2.16.23,4.32.55,6.49.9s4.31.81,6.44,1.33,4.26,1.06,6.38,1.65c1.88.52,3.69,1,5.63,1.64a119.25,119.25,0,0,1,12.17,4.37,75.52,75.52,0,0,1,13,7.1,67.86,67.86,0,0,1,12.08,10.57,46.69,46.69,0,0,1,3.65,4.76,13.11,13.11,0,0,1,1.51,2.85c0,.27-.47-.16-1.26-1.09-.39-.46-.86-1.05-1.4-1.74l-1.93-2.29a65.85,65.85,0,0,0-8.12-8.07c-1.46-1.18-3-2.33-4.48-3.39s-3.06-2.08-4.61-2.93l-2.32-1.33L411,132c-1.56-.81-3.06-1.42-4.59-2.11-3-1.24-6-2.34-8.81-3.24l-2.12-.68-2.06-.62c-1.4-.42-2.68-.78-4-1.15l-4.49-1.23-4.59-1.06a117,117,0,0,0-18.51-2.36,138.37,138.37,0,0,0-18.05.35c-5.82.45-11.48,1.22-16.44,1.66-.62.06-1.22.11-1.79.14s-1.13.06-1.67.08c-.28,0-.53,0-.76,0a5,5,0,0,1-.6,0c-.28-.09-.58-.09-.85-.19a4,4,0,0,1-2.7-2,4,4,0,0,1-.44-1.68,3.58,3.58,0,0,1-.08-.86,6.4,6.4,0,0,1,0-.88,10.41,10.41,0,0,1,.31-1.74c.07-.31.12-.48.26-1a14.57,14.57,0,0,1,.42-1.67,12,12,0,0,0-.38,1.39c-.09.52-.23.79-.26,1a14.76,14.76,0,0,0-.35,1.46,9.3,9.3,0,0,0-.15,1.5v.37l.05.37a1.68,1.68,0,0,1,0,.39c0,.13.05.25.07.37a3.79,3.79,0,0,0,1.51,2.54,6.29,6.29,0,0,0,.64.41c.25.08.46.22.71.28a6.25,6.25,0,0,0,.74.21l.37.09c.15,0,.26,0,.48,0a56.72,56.72,0,0,0,5.84-.24l6.74-.57c4.66-.44,9.58-.78,14.6-.86a116.8,116.8,0,0,1,30.8,3.41c1.27.33,2.56.64,3.83,1l3.77,1.15c2.24.7,4.52,1.45,6.89,2.27a103.32,103.32,0,0,1,14.87,6.37,66.43,66.43,0,0,1,15.29,10.89,58.2,58.2,0,0,1,11.3,15.22c1,1.71,1.74,3.44,2.59,5.17s1.43,3.41,2.13,5.11,1.2,3.4,1.79,5.1,1,3.4,1.49,5.1a116.61,116.61,0,0,1,3.52,20.47c1.09,13.7.21,27.77-4.91,42.14-.33.9-.61,1.79-1,2.69l-1.19,2.68c-.4.89-.8,1.78-1.23,2.67l-1.46,2.64L437,257.14l-1.67,2.49c-.55.84-1.16,1.64-1.78,2.44s-1.22,1.62-1.9,2.39a64.55,64.55,0,0,1-8.85,8.63,59.58,59.58,0,0,1-10.58,6.76,62.23,62.23,0,0,1-24.17,6.47c-1,0-2.1.1-3.14.12l-3,0c-2-.08-4-.21-5.94-.43a90.32,90.32,0,0,1-11.29-2,131.82,131.82,0,0,1-17-5.46c-5.17-2-10-4.18-14.47-6.06-9-3.9-18-7.58-26.94-11.33s-17.92-7.4-27.06-11-18.41-7.42-28-11.15l-20-7.72-9.77-3.68-4.82-1.75-4.7-1.65-2.18-.71c-.69-.22-1.57-.53-1.95-.62l-.73-.22a6.08,6.08,0,0,0-.83-.23l-2.14-.45-2.13-.46-2.14-.33c-1.44-.22-2.86-.5-4.31-.6s-2.87-.33-4.32-.4l-4.35-.19c-1.45,0-2.92,0-4.38,0l-2.19,0-2.2.17a117.78,117.78,0,0,0-17.74,2.56L156,223.83c-1.49.37-3,.7-4.47,1.21L147,226.45c-.75.24-1.5.44-2.24.71l-2.22.85c-3,1.13-6,2.12-8.93,3.49s-6,2.49-8.9,4c-6,2.77-11.84,6-17.79,9.39-3.1,1.9-6.15,3.66-8.58,4.92a25.49,25.49,0,0,1-4.61,2.31c-.51.06.29-.74,2-2.08.43-.33.9-.71,1.43-1.09l1.77-1.18c1.27-.84,2.71-1.77,4.27-2.74a224.63,224.63,0,0,1,37.59-19.23,147.65,147.65,0,0,1,19.44-6.13,124.11,124.11,0,0,1,19.61-2.9,103.29,103.29,0,0,1,19.36.81c1.59.27,3.19.42,4.77.8l2.36.49c.38.09.83.16,1.15.25l.89.26.88.25,1.17.38,2.39.77,5,1.75c6.83,2.44,13.76,5.08,20.69,7.76s13.89,5.38,20.83,8.16c13.89,5.56,27.83,11.19,41.74,17L322,264.29l10.43,4.5L343,273.42a140.14,140.14,0,0,0,24.38,8.34,80.35,80.35,0,0,0,14.19,2c1.25,0,2.49.06,3.75,0s2.58-.06,3.87-.17a61.16,61.16,0,0,0,7.71-1.1,59.64,59.64,0,0,0,14.8-5.19,58.48,58.48,0,0,0,12.95-9,61.28,61.28,0,0,0,10-11.9c.72-1.07,1.33-2.23,2-3.35a38.57,38.57,0,0,0,1.81-3.41,66.53,66.53,0,0,0,2.9-6.93,88.75,88.75,0,0,0,4.89-23.82,114.17,114.17,0,0,0-.71-23c-.08.21-.17.41-.28.42-.46.06-1-1.33-1.74-3.65a109.11,109.11,0,0,1,1.09,25.77,86.52,86.52,0,0,1-6,26.3l-2,4.58c-.7,1.52-1.58,3-2.38,4.51s-1.79,2.88-2.71,4.31-2,2.77-3.11,4.09a61.13,61.13,0,0,1-7.34,7.41,59.43,59.43,0,0,1-8.69,6,58,58,0,0,1-20,6.73,64,64,0,0,1-10.46.57,78.68,78.68,0,0,1-10-1c-12.94-2.2-24.05-7-34.2-11.55l-30.32-13.49-40.67-18.21c-13.16-5.88-26.1-11.58-39.18-17.09-4.2-1.56-8.4-3.08-12.52-4.49-1.06-.38-2-.65-3-1l-1.5-.48-1.24-.35c-.43-.11-.78-.24-1.28-.34l-1.5-.3-3-.62a102.41,102.41,0,0,0-24.51-1.29c-2.06.2-4.12.34-6.18.57l-6.19.93c-4.1.85-8.23,1.65-12.31,2.87l-3.07.84c-1,.3-2,.68-3,1-2,.7-4.06,1.34-6.08,2.08-4,1.66-8.06,3.09-12,5a19.49,19.49,0,0,1-3.11,1.26c-.5.11.13-.3,1.4-.91A153.55,153.55,0,0,1,162.28,214c1.46-.32,2.92-.72,4.39-1l4.43-.73c.73-.12,1.47-.26,2.21-.36l2.23-.23,4.46-.45a115.91,115.91,0,0,1,17.87.26c-3.7-.79-5.94-1.58-5.6-2.13.16-.32,1-.51,2.37-.65.68-.07,1.5-.12,2.44-.15.47,0,1,0,1.5,0l1.65.09c-.69-.1-1.38-.23-2.08-.3l-2.08-.2c-1.39-.12-2.78-.31-4.18-.37-2.8-.08-5.59-.29-8.4-.14-1.74,0-3.29,0-4.4,0s-1.79-.07-1.75-.22.72-.37,1.84-.57a36.87,36.87,0,0,1,4.31-.29c2.89-.16,5.78.06,8.66.12,1.44.09,2.87.26,4.31.38l2.15.2,2.13.33c1.42.23,2.86.39,4.26.69l4.23.87c.71.15,1.3.36,2,.53l1,.27,1,.34c1.39.46,2.76.88,4.16,1.39,11.2,3.94,22.42,8.37,33.58,12.8q40.43,15.48,80.32,32.39c-3.48-2-6-3.77-7-4.94v0l-12.35-5.23q-28.54-11.26-57.56-22.24c-9.67-3.62-19.37-7.25-29.11-10.68l-3.66-1.28-3.64-1.22c-1.23-.42-2.43-.79-3.63-1.16l-1.81-.56-1.7-.46c-1.08-.33-2.37-.52-3.58-.77s-2.44-.52-3.68-.66c-2.48-.33-4.94-.75-7.44-.88a113.25,113.25,0,0,0-30,1.53,148.41,148.41,0,0,0-29.2,8.76l-3.55,1.47-1.78.74-1.74.83-7,3.33c-2.3,1.18-4.55,2.45-6.83,3.67l-3.41,1.84-3.33,2-6.66,4-6.5,4.34c-4.39,2.81-8.52,6-12.77,9.07A13.28,13.28,0,0,1,80.8,250a10.85,10.85,0,0,1,2.09-1.74l7.64-5.6c1.25-1,2.59-1.8,3.89-2.69l3.93-2.63,3.91-2.63,4-2.44,4-2.45,2-1.22,2.07-1.13a183.87,183.87,0,0,1,34-15.21l-.1,0c-1,.25-1.19.18-.18-.27a21.79,21.79,0,0,1,3.71-1.11c1.13-.22,1.07-.06.2.27a126.37,126.37,0,0,1,33.69-5.36,108.34,108.34,0,0,1,16.9,1.14c.7.11,1.41.18,2.1.31l2.08.4,2.08.39c.34.07.7.13,1,.21l1,.25c.65.19,1.26.32,1.94.53l2,.63c1.36.41,2.73.87,4.1,1.33,11,3.69,21.93,7.79,32.82,11.84s21.73,8.23,32.53,12.39c-19.92-8.07-39.91-16.05-60-23.4-2.51-.93-5-1.78-7.55-2.65L213,208c-.62-.19-1.22-.34-1.82-.51a17.43,17.43,0,0,0-1.86-.46l-3.84-.78c-1.28-.29-2.58-.41-3.87-.62-2.58-.45-5.2-.62-7.8-.87a115,115,0,0,0-31.32,2.17l-3.34.87c-1.11.3-2.23.53-3.32.92l-6.62,2.14a27.71,27.71,0,0,1-3.32,1c-.36,0,.47-.41,1.7-.87s2.45-.82,3.68-1.24c-7.68,2.25-13.63,4.1-13.74,3.49.08-.39,1.66-1.43,4.29-2.55,1.31-.58,2.86-1.23,4.58-1.9l1.33-.52,1.41-.44,3-.89a126.21,126.21,0,0,1,33.4-5.44c1.41-.06,2.82,0,4.24,0s2.83,0,4.24.14l4.22.34c1.42.08,2.81.35,4.21.52,2.82.31,5.58.94,8.36,1.46,2.76.68,5.45,1.54,8.13,2.43,2.33.75,4.66,1.48,7,2.27s4.7,1.42,7,2.16q-3.07-1.17-6.17-2.3c-2.06-.77-4.12-1.52-6.2-2.23s-4.17-1.42-6.27-2.1c-1.06-.33-2.16-.61-3.23-.91l-3.25-.67a109.22,109.22,0,0,0-26.39-2,131.68,131.68,0,0,0-26.14,3.95l-6.35,1.83-1.59.46-1.56.54-3.11,1.1c-4.19,1.37-8.19,3.18-12.24,4.87-1.4.57-2.64,1.21-3.59,1.58a4.3,4.3,0,0,1-1.66.52c-.16-.14,1.91-1.49,4.68-2.75l5.31-2.41,2.66-1.2c.9-.37,1.82-.71,2.73-1.06l5.47-2.1c1.83-.7,3.72-1.22,5.58-1.83,3.71-1.29,7.56-2.13,11.38-3.11,1.93-.44,3.88-.74,5.82-1.12,1-.17,1.94-.38,2.92-.53l2.95-.36c3.93-.57,7.91-.75,11.89-.94l6,0c2,.06,4,.23,6,.34,4,.35,8,.88,11.91,1.63a31,31,0,0,1,3,.67c.51.13,1,.25,1.53.39l1.43.42,2.87.85,2.8.9c14.89,4.87,29.47,10.25,44.07,15.75s29.12,11.19,43.61,17q14.61,4.94,29.25,10.16c4.87,1.73,9.84,3.55,14.56,5.18a141.52,141.52,0,0,0,14,4.11c-2.26-.72-4.56-1.53-6.89-2.39-3.71-1.39-7.43-2.94-11.18-4.54l-11.46-4.82c-7.62-3.14-15.13-6.16-22.61-9-14.95-5.77-29.65-11.17-44.36-16.35s-29.37-10.24-44.48-15c-3.79-1.2-7.61-2.37-11.61-3.46l-3.24-.77-3.08-.51c-1-.16-2.05-.35-3.09-.49l-3.11-.35a121.14,121.14,0,0,0-25.26-.08,13.42,13.42,0,0,1-3.35.16c-.19-.1.94-.36,2.67-.55a121.85,121.85,0,0,1,24.66-.27l3,.32c1,.1,2,.21,3,.39l3,.48,1.5.25c.51.09,1.05.23,1.58.35,4.25,1,7.8,2.12,11.58,3.24,14.79,4.61,29.28,9.53,44.33,14.89,12.46,4.43,24.56,8.87,36.43,13.29s23.52,8.81,35,13.21c-11.6-4.89-23.15-9.51-34.68-14s-23-8.76-34.59-12.94-23.1-8.28-34.82-12.21c-5.86-2-11.74-3.9-17.88-5.73-1.57-.44-3.06-.9-4.9-1.31l-1.31-.32c-.45-.11-.83-.15-1.24-.22l-2.44-.41-2.44-.41-2.46-.29c-1.64-.17-3.28-.43-4.93-.52-2.31-.1-4.62-.34-6.08-.55a5,5,0,0,1-1.31.17l-5,.19c-1.71.11-3.45.31-5.2.45l-2.64.24-2.65.39c-1.77.27-3.57.5-5.35.8a24.34,24.34,0,0,1-3.83.54C166.25,197.3,167.06,197,168.58,196.68ZM278.79,30.3l-.25-.05.67-.1,1.47.54Zm-4,10h0l-.86-.25Zm55.06,82c-1.55.12-3.11.25-4.5.3a14.43,14.43,0,0,1-3.5-.12,6.48,6.48,0,0,1-2.18-.87,3.93,3.93,0,0,1-1.47-1.8,8.21,8.21,0,0,1-.22-4.63c.07-.39.18-.77.28-1.14a4.69,4.69,0,0,1,.17-.6c.07-.27.16-.65.23-1,.18-.67.41-1.33.6-2l.74-2a36.8,36.8,0,0,1,4.1-7.5,18.39,18.39,0,0,1,5.49-5.38,12.15,12.15,0,0,1,7.1-1.45c2.79.14,6,.93,10,1.2-3.89-.22-7-.94-9.78-1.08A12.18,12.18,0,0,0,330,95.61a14.16,14.16,0,0,0-2.18,1.6l-1.05.93-1,1.1a31.72,31.72,0,0,0-3.56,5.24,37.19,37.19,0,0,0-2.63,5.88,31.08,31.08,0,0,0-.86,3c-.14.41-.18.62-.27.91s-.15.55-.2.83a9.58,9.58,0,0,0-.18,3.42,4.27,4.27,0,0,0,1.69,2.95,5.57,5.57,0,0,0,1.57.76,8,8,0,0,0,.84.23,4.79,4.79,0,0,0,.48.08l.68,0C325.25,122.63,327.52,122.51,329.89,122.34ZM270.13,30.81a12.51,12.51,0,0,1,3.47.32,5.18,5.18,0,0,1,1.32-1.32,37.85,37.85,0,0,1,4.33-2.69c-.47-.24-.11-.43,0-.59l.43-.46-5,2.4C273.2,29.22,271.69,30.19,270.13,30.81Zm-7.63,9.73h-.25l-.33-.73Zm.59,1.2.25-.11C263.49,41.88,263.36,41.87,263.09,41.74Zm2.28-1a1.64,1.64,0,0,0-.52,0Zm17.09,13.62-2.2-3.08,2.05,3Z"/><path d="M25.47,90.18c.2-.07.41-.12.61-.18a1.75,1.75,0,0,1-.69,1.16,15.08,15.08,0,0,0,6.41-5.94A26,26,0,0,0,35,77.14c1.23-1.1,1.71-2.73,1-3.73s-2.44-.93-3.75.23a5.11,5.11,0,0,1-1.11.47,17.94,17.94,0,0,0-4.68,1.36A26.29,26.29,0,0,0,21.83,78L24,77.16a11.21,11.21,0,0,0-2.5,1.94l.78.14c-3.49,1.58-6,5.79-5.28,9s3.88,4.24,7,2.6Z"/><path d="M34.64,90c-1.71.87-3.49,1.66-5.21,2.55l-.55,0,1.62,1-.08-.1c-.37-2.22.77-4.74,2-6.93l.37-.85a1.62,1.62,0,0,0-.25-1.26c-.55-.75-1.72-.7-2.62.11l-1,1c-3,1.9-6.24,6.3-4.51,9.59.4.74,1.39,1,2.17,1.36a2.58,2.58,0,0,0,3.53-.85,2.7,2.7,0,0,0,.07-3.69c.23-.17.46-.34.7-.5l0,.78c-.63-1,.1-2.31.32-3.53.26-.49.52-1,.8-1.47l-2.89-1.1-.25.93a2.29,2.29,0,0,1,.37,0,48.3,48.3,0,0,1-1.35,5.26c-.15.81-.31,1.61-.42,2.43a1.2,1.2,0,0,0,1.64,1c.36-.14.71-.3,1.08-.43l-.56.14c.92-.72,1.81-1.49,2.7-2.24a33.64,33.64,0,0,1,2.77-2.1.81.81,0,0,0,.38-.91A.53.53,0,0,0,34.64,90Z"/><path d="M30.25,96.5a1.8,1.8,0,0,0-1,.78l.08.31.81-.31C30.7,97.07,30.61,96.7,30.25,96.5Z"/><path d="M29.31,97.59l-.35.12h.35v-.11Z"/><path d="M62.53,233.78,60,235.67c-.84.64-1.63,1.31-2.44,2-1.61,1.31-3.31,2.58-4.78,4l-2.28,2c-.77.68-1.55,1.36-2.22,2.08l-.51.52-.16.18-.33.37c-.21.24-.61.55-.87.85a23.38,23.38,0,0,0-3.1,4.07,6.22,6.22,0,0,0-.77,2.45,3.83,3.83,0,0,0,.64,2.44,11.65,11.65,0,0,0,4,3.13A27.93,27.93,0,0,0,52,261.81l.35.1.5.15,1.35.42c.91.26,1.85.47,2.77.72,1.87.43,3.76.84,5.7,1.12a84,84,0,0,0,11.84,1,5,5,0,0,0,2-.23c0-.11-.79-.22-1.79-.2a86.27,86.27,0,0,1-11.79-1c-1.92-.28-3.8-.69-5.66-1.11l-2.76-.7c-.83-.27-2-.63-2.3-.71a27,27,0,0,1-4.58-1.95,11.94,11.94,0,0,1-3.86-2.94,3.52,3.52,0,0,1-.68-2.29,5.55,5.55,0,0,1,.68-2.34A20.53,20.53,0,0,1,46.71,248a9.5,9.5,0,0,1,.85-.83l.3-.34.16-.16.07-.09.23-.24,1-1.06,1.14-1,2.27-2c.77-.67,1.47-1.38,2.3-2l2.44-1.95,2.42-1.95,2.56-1.88a6.33,6.33,0,0,0,1.65-1.54C64.11,232.76,63.39,233.15,62.53,233.78Z"/><path d="M233.35,226.69c-1,0-.93.1.05.26s2.35.37,3.3.46.81,0,0-.26A15.91,15.91,0,0,0,233.35,226.69Z"/><path d="M225.48,234.71a60.39,60.39,0,0,0-13.21,3.42c-.75.28-1.6.53-2.26.7.34.07-.54.52-2.25,1.17-16.91,6.44-33.59,15.6-51.13,24.73-8.78,4.56-17.82,9.08-27.26,13.13A192.94,192.94,0,0,1,99.77,288a6.09,6.09,0,0,1-1.66.82A42,42,0,0,1,92,290.6c-1.31.25-2.73.5-4.2.74s-3,.38-4.6.52-3.16.18-4.74.23A116.33,116.33,0,0,1,64,291.77a96.67,96.67,0,0,1-14.45-2.27l-1.8-.41-1.78-.5L44,288a20.35,20.35,0,0,1-2.22-.7c-1.47-.53-3-1-4.4-1.58L33,284a67.13,67.13,0,0,1-15.12-9.43,28,28,0,0,1-5.26-5.28,19.35,19.35,0,0,1-3.52-7.64,21.8,21.8,0,0,1-.43-7.41,30.54,30.54,0,0,1,1.7-7.2,32.91,32.91,0,0,1,3.3-6.89q2.22-3.35,4.45-6.69c.74-1.13,1.48-2.26,2.35-3.35.42-.55.82-1.1,1.27-1.66l1.42-1.66,2.56-3c.67-.82,1.38-1.58,2.1-2.33l4.33-4.55c1.47-1.48,3-2.86,4.5-4.3-.88.57-1.48.85-1.61.69-.07-.55,2.56-3.53,6-6.26,1.75-1.42,3.47-2.9,5.24-4.21-1.29.92-2.56,1.91-3.83,2.91l-3.82,3c-2.53,2-5,4.23-7.5,6.35-.7.67-1.35,1.27-2,1.81l-3.92,3.87c-.66.63-1.26,1.37-1.9,2.05l-2.66,3c-.45.51-.94,1-1.35,1.53l-1.21,1.54c-.83,1-1.55,2.06-2.28,3.12l-4.37,6.33L10.36,240c-.35.59-.65,1.19-1,1.78a31.82,31.82,0,0,0-1.66,3.63c-.49,1.22-.88,2.46-1.28,3.69s-.61,2.51-.82,3.78a29.15,29.15,0,0,0-.36,3.86,25.61,25.61,0,0,0,.24,3.9,20.92,20.92,0,0,0,.87,3.82c.18.62.41,1.23.64,1.83s.54,1.17.83,1.75a27.52,27.52,0,0,0,4.36,6.15,34.36,34.36,0,0,0,2.73,2.66c1,.83,2.09,1.61,3.13,2.41a67.68,67.68,0,0,0,14.37,7.86l3.91,1.5,4,1.3c.66.21,1.32.45,2,.64s1.3.32,2,.47l3.08.74a105.91,105.91,0,0,0,12.21,1.83,115.79,115.79,0,0,0,23.87-.4c15.62-1.94,30-6.61,43.33-12.28s25.76-12.35,37.86-18.83a22.26,22.26,0,0,1,2.8-1.35c.52-.15.49,0-.39.5-15,8.55-29.27,17.13-45.69,24.28a161.5,161.5,0,0,1-26.68,9.05,116.19,116.19,0,0,1-31.95,3.2c-.86,0-1.72-.06-2.59-.12l-2.59-.21c-1.73-.12-3.47-.36-5.21-.59s-3.48-.56-5.22-.85c-.87-.14-1.74-.34-2.61-.54l-3.06-.71a10.44,10.44,0,0,1-1.82-.5l-1.79-.57-3.6-1.15-3.53-1.33-1.78-.66a12.63,12.63,0,0,1-1.73-.73l-3.33-1.65c-1.12-.55-2.25-1.09-3.28-1.73l-3.18-1.86c-.52-.31-1.09-.6-1.56-1l-1.39-1.07a51.26,51.26,0,0,1-5.34-4.46A36.17,36.17,0,0,1,4.91,273L4,271.55c-.27-.49-.54-1-.8-1.48A24.73,24.73,0,0,1,1.84,267c-.37-1.07-.73-2.17-1-3.29s-.48-2.26-.62-3.4a34.31,34.31,0,0,1,1.21-13.49,37,37,0,0,1,2.44-6.53l.77-1.61c.32-.53.67-1,1-1.57l2-3.14,4.08-6.31a56.31,56.31,0,0,1,4.83-6.26l2.54-2.93c.56-.65,1.1-1.34,1.68-2l3.5-3.7c2.32-2.53,4.75-4.77,7.18-7.08L33.3,204l1.85-1.62,3.71-3.24c9.93-8.48,20.08-15.77,29.69-22.8,10.24-7,19.63-13.72,27.67-20.63,1.06-.85,2-1.73,2.94-2.61l2.84-2.61c1-.86,1.75-1.77,2.64-2.65l2.58-2.64a63.33,63.33,0,0,0,7.71-10.28c.54-.84.91-1.67,1.38-2.48s.81-1.62,1.07-2.39a22.78,22.78,0,0,0,1.37-4.31,15.17,15.17,0,0,0,.36-3.48,11.53,11.53,0,0,0-.39-2.59,15,15,0,0,0-2.69-4.92,16.52,16.52,0,0,0-5-4.22,20.06,20.06,0,0,0-8.88-2.05,25.22,25.22,0,0,0-10.59,2.14c-.4.19-.8.34-1.22.58l-.64.31a.43.43,0,0,0-.11.08l-.35.28-.7.52c-.45.39-.92.7-1.37,1.09a58.3,58.3,0,0,0-5.5,4.91,2.54,2.54,0,0,1-2.77,1,9.14,9.14,0,0,1-4.22-2,8.55,8.55,0,0,1-3.26-5l-.46.43-1,.43a5,5,0,0,1-3.46,0l-1.66-.42c-2.92-1.12-5.93-1.21-9-2.28l-.81-.87-.41,0a6.31,6.31,0,0,1-3.43-.64l-1.12-.88a13.13,13.13,0,0,1-3-3.7,4.8,4.8,0,0,1-1.27-1.23,6.74,6.74,0,0,1-4-2.4.93.93,0,0,1-1-.93,1.18,1.18,0,0,1,.14-.58h0a10.47,10.47,0,0,0-1-.06c-.33.24-.54.37-.54.37-.81.71-.81.71-1.54,1.31a5.11,5.11,0,0,1-1.71.39c-2.61-.67-2.62-.65-3.46-1.37a3.18,3.18,0,0,1-.16-.32c-.72.41-.77.44-1,.54a2.56,2.56,0,0,1-.55.07c-.52-.29-.52-.29-.77-.3a2.75,2.75,0,0,1-.39-.21c-.32-.7-.32-.7-.47-.81a2.19,2.19,0,0,1-.14-.37l.18-.82,1.87,0-.31-.48.72.19L31,97.12l.62-.22-.81.19A6.87,6.87,0,0,0,32,95.76a2.44,2.44,0,0,0,.53-.89,1.63,1.63,0,0,1-.3-.16c1-.95,1-1,2-1.83a4.42,4.42,0,0,1,.52,0,.65.65,0,0,1,.22-.64l.51-.47,0-.17,0,0,.12-.64,0-.14h0L36.3,88a8.84,8.84,0,0,1,1-.69l-.44.07c-.3,0-.6-.48-.71-.42a35,35,0,0,0-7.74,6,1.12,1.12,0,0,1-1.31.57c-.44-.2-.53-.78-.22-1.31a20.86,20.86,0,0,1,5.19-9.85,27.06,27.06,0,0,1,9.29-6.56c1.6-1,3.14-2,4.76-3l-.39,0,1.4-.56.13-.08L45.76,72l-.78.25c-3.63,2.39-7.64,3.89-11.36,6.27-2,1.28-4.07,2.08-6.06,3.31-.41.39-.95.46-1.23.14a1,1,0,0,1,.27-1.28C30.84,74.57,38,69.06,44.82,68.23a7.42,7.42,0,0,1,3.56-1.44l.06,0-1.17-.2c.94-.42,1.78-.16,2.71-.42L49,65.38c4.51-2.21,9.13-5.2,14.09-5.65a3.3,3.3,0,0,1,.52-.13A27.76,27.76,0,0,1,66,57.39q.33-.27.66-.51a1.43,1.43,0,0,1,.23-.14l1.29-.54c.87-.35,1.73-.72,2.63-1.05a78,78,0,0,1,11.48-3.24c-1.37.25-2.73.5-4.08.79s-2.7.63-4,1-2.67.77-4,1.19l-3.66,1.27,0,0,.23-.1.51-.22,1-.44c.69-.28,1.37-.57,2.07-.84,1.41-.52,2.83-1.05,4.27-1.52a79.74,79.74,0,0,1,8.82-2.27,75.8,75.8,0,0,1,45.21,4.95,73.23,73.23,0,0,1,12.11,6.89,70.05,70.05,0,0,1,10,8.8,68.91,68.91,0,0,1,7.56,9.76,62.58,62.58,0,0,1,5.14,10,53.41,53.41,0,0,1,4,17.51c.22,1.07.42,2.15.55,3.25s.29,2.18.38,3.29l.19,3.33c.07,1.12,0,2.19,0,3.28a62.74,62.74,0,0,1-.48,6.46c-.12,1.07-.33,2.11-.5,3.16s-.37,2.09-.63,3.1l-.75,3-.92,2.93c-.29,1-.64,1.94-1,2.87s-.72,1.89-1.1,2.81a86.1,86.1,0,0,1-5.27,10.32A104.74,104.74,0,0,1,145,173.71c-2.37,2.54-4.85,5-7.29,7.2L134,184.26c-1.22,1.12-2.49,2.1-3.74,3.15A315.58,315.58,0,0,1,99.84,209.2c-10,6.5-19.79,12.55-28.7,18.87a14.35,14.35,0,0,1-4.06,2.33c-.35-.08.71-1.15,2.52-2.48,12.6-9.35,27-18.1,41.59-28.31a252.8,252.8,0,0,0,21.68-17l5.23-4.86c1.74-1.67,3.48-3.47,5.16-5.3a108,108,0,0,0,9.52-11.93,101.86,101.86,0,0,1-8.14,9.88c-.71.78-1.43,1.53-2.16,2.27s-1.45,1.49-2.2,2.19L138,177l-2.24,2-4.5,3.93-4.6,3.66-2.3,1.82-2.34,1.71-4.67,3.4c-12.52,8.74-25.26,16.25-37.24,23.91l-4.53,3-4.44,3-4.32,3c-1.41,1-2.9,1.92-4.27,2.92l-5.14,3.92-4.85,4c-1.59,1.36-3,2.8-4.57,4.18l-1.13,1c-.37.35-.7.73-1,1.09l-.46.49-.24.27-.46.52c-.3.36-.75.75-1.08,1.16l-1,1.25a30,30,0,0,0-2,2.57,12,12,0,0,0-1.43,2.87,5.8,5.8,0,0,0-.22,3.17,5.4,5.4,0,0,0,1.64,2.72,13.48,13.48,0,0,0,2.62,1.88,31.2,31.2,0,0,0,5.86,2.73c.5.2,1,.33,1.54.5l.77.23.46.11.63.17,1.4.4,1.43.33c.95.21,1.9.46,2.88.61a76,76,0,0,0,12,1.32,95.58,95.58,0,0,0,10.45-.26c3.47-.3,6.84-.71,10.27-1.35A141.91,141.91,0,0,0,111.18,260c13.41-4.54,26.65-10.77,41.13-17.82,10.19-4.94,20.39-9.93,31-14.38,5.29-2.22,10.68-4.3,16.19-6.17a124.05,124.05,0,0,1,17.64-4.79,59.61,59.61,0,0,1,21-.36,44,44,0,0,1,21,9.81,55.39,55.39,0,0,1,13.38,16.94,76.48,76.48,0,0,1,6.66,18.92c1.51,6.65,1.83,12.48,1.5,13.26s-1.24-3.56-2.54-10A81.59,81.59,0,0,0,271.7,246a54.75,54.75,0,0,0-13.32-17.5,43.7,43.7,0,0,0-9.91-6.45A42.75,42.75,0,0,0,237,218.64a59.9,59.9,0,0,0-21.48,1c-3.28.68-6.42,1.54-9.45,2.46s-5.9,1.9-8.81,2.93c-5.79,2.08-11.43,4.37-17,6.78-11.06,4.82-21.66,10.09-32.14,15.11s-20.85,9.76-31.38,13.61a142.62,142.62,0,0,1-31.88,8,87.68,87.68,0,0,1-31.51-1.89L51.57,266c-.51-.14-.9-.22-1.28-.36-.77-.27-1.56-.48-2.32-.79s-1.53-.58-2.27-.93-1.49-.68-2.22-1.07-1.43-.8-2.14-1.22a17.47,17.47,0,0,1-2-1.39,6.81,6.81,0,0,1-2.7-4,7.25,7.25,0,0,1,.55-4.16,17.48,17.48,0,0,1,2.14-3.64c.87-1.1,1.76-2.18,2.64-3.26.42-.53,1-1,1.4-1.49S44,243,45,242c-.15,0-.29,0-.35,0-.26-.25.06-1.15,1-2.37-.49.45-1,.89-1.45,1.38L43,242.2c-.53.57-1.06,1.15-1.7,1.78-1.15,1.28-2.23,2.64-3.36,4a18.83,18.83,0,0,0-2.69,4.53,7.33,7.33,0,0,0-.29,5.19,8,8,0,0,0,2.33,2.87,20.36,20.36,0,0,0,3.13,2,41.17,41.17,0,0,0,6.67,3c1.13.42,2.29.73,3.43,1.06l.47.12.54.13,1.3.35c.87.24,1.77.4,2.65.6a79.46,79.46,0,0,0,10.9,1.55,100.72,100.72,0,0,0,11.28.2,115.2,115.2,0,0,0,11.47-1.1,155,155,0,0,0,23.53-5.55,334.62,334.62,0,0,0,31.52-12c10.24-4.37,20.37-8.94,30.88-13.28,6.56-3,13.23-5.86,20.09-8.44q5.14-1.92,10.44-3.61a105.09,105.09,0,0,1,11.09-2.95,63,63,0,0,1,12.1-1.38A43.83,43.83,0,0,1,241.68,223c1.09.28,2.15.71,3.22,1.08s2.11.86,3.11,1.4a39.66,39.66,0,0,1,5.74,3.51,46.18,46.18,0,0,1,9.22,9.14,16.2,16.2,0,0,1,1.79,2.7c.19.46-.27-.1-1.08-1.19a45.56,45.56,0,0,0-13.12-12,38.12,38.12,0,0,0-8.55-3.74,41.12,41.12,0,0,0-9-1.56,59.77,59.77,0,0,0-17.09,1.61c-2.69.61-5.31,1.34-7.87,2.14-1.29.39-2.53.82-3.78,1.24s-2.49.85-3.72,1.3c3.24-.77,5.27-.91,5.15-.42s-2.43,1.68-6,3.24c4.46-1.53,8.94-3,13.65-4.13,2.9-.7,5.29-.94,5.24-.7s-2.33.87-5.06,1.54a202.33,202.33,0,0,0-27.17,9.35c-8.78,3.63-17.34,7.64-25.83,11.66-10.13,5-20.15,9.92-30.37,14.27A191.45,191.45,0,0,1,98.79,274a31.49,31.49,0,0,1,6.53-.27h0c3.31-.94,6.61-1.92,9.85-3,14.83-5.37,29.09-12.49,43.51-19.67s29.1-14.42,44.78-19.79c7.79-2.65,16-5.07,24.86-5.3a38.71,38.71,0,0,1,13.29,1.88,34.48,34.48,0,0,1,11.76,6.8c6.8,5.93,11.37,13.83,14.11,22s4,16.6,5,24.78a8.69,8.69,0,0,1,.14,2.39,6.68,6.68,0,0,1-.44-2.1c-1.27-9.86-2.75-20.08-6.91-29.73a49.79,49.79,0,0,0-8.41-13.37,36.73,36.73,0,0,0-13-9.52l.08,0c.78.41.88.58,0,.26s-2.39-.85-3.19-1.2-.82-.43,0-.27A40.78,40.78,0,0,0,226,226.42a72.48,72.48,0,0,0-14.14,2.6,209.08,209.08,0,0,0-26.12,9.6c-16.88,7.36-32.81,16.09-49.08,23.6,15.23-6.73,30.09-14.51,45.52-21.26a242.68,242.68,0,0,1,23.65-9.06,104.61,104.61,0,0,1,12.37-3.28,54.93,54.93,0,0,1,13-1.05,35.47,35.47,0,0,1,11.51,1.93,12.07,12.07,0,0,1,2.63,1.32c.22.22-.51-.09-1.54-.48a31.42,31.42,0,0,0-3.09-1.08,25.48,25.48,0,0,1,7.46,3.89c1.67,1.3,2.46,2.29,2.26,2.45-.62.24-5.14-3.11-11.52-4.81a38.11,38.11,0,0,0-13.07-1,70.93,70.93,0,0,0-12.92,2.43,213.25,213.25,0,0,0-24.73,8.93c-1.74.76-3.46,1.56-5.19,2.35s-3.41,1.72-5.1,2.61c6.22-2.8,12.5-5.44,18.86-7.82q4.79-1.78,9.62-3.34c3.23-1,6.48-2,9.76-2.72,6.54-1.5,13.32-2.21,19.8-1a29.84,29.84,0,0,1,9.15,3.34,33.2,33.2,0,0,1,7.63,6.09c1.58,1.61,2.62,3.25,2.5,3.39s-1.32-1.2-2.86-2.79A29.8,29.8,0,0,0,238,232.91a39.89,39.89,0,0,0-16.82,0,107.79,107.79,0,0,0-16.85,4.9c-5.57,2-11.07,4.3-16.52,6.73-21.79,9.75-42.8,22.07-66,30.88a178.58,178.58,0,0,1-23.23,8.47,124.08,124.08,0,0,1-25.25,4.48c1.1,0,2.2,0,3.31-.07s2.22-.06,3.32-.16c14.15-.95,27.12-4.56,39.14-9.06A315.58,315.58,0,0,0,153,263.39c10.79-5.62,21.31-11.39,32.2-16.58,5.44-2.6,11-5.06,16.68-7.27A119.33,119.33,0,0,1,219.4,234a8.39,8.39,0,0,1,2.37-.27c.14.07-.65.32-1.85.54A112.5,112.5,0,0,0,203,239.61c-5.52,2.12-10.87,4.51-16.17,7-10.6,5-21,10.7-32,16.43-9.15,4.75-18.25,9.28-27.53,13.28a199,199,0,0,1-28.55,9.95,175.83,175.83,0,0,0,28.75-9.37c9.12-3.8,17.84-8.08,26.38-12.44,17.05-8.7,33.5-17.79,51.14-24.26a29.16,29.16,0,0,1,4.13-1.3,3.34,3.34,0,0,1,.83-.42,70.81,70.81,0,0,1,14-4,10.49,10.49,0,0,1,2.61-.15C227.06,234.43,226.5,234.55,225.48,234.71ZM48.48,85.14l-.26,0,.67-.14,1.53.47ZM45.34,95.8h0l-.89-.17Zm84.45,87c2.15-1.78,4.22-3.75,6.33-5.62s4.2-4,6.22-6.12a106.16,106.16,0,0,0,11.32-14.13,77.72,77.72,0,0,0,8.78-17.26A64,64,0,0,0,166.21,119a62.8,62.8,0,0,1-3,20.37,81.33,81.33,0,0,1-14.49,25.1,117.3,117.3,0,0,1-9.22,9.86c-.81.74-1.62,1.54-2.43,2.24l-2.43,2.09C133.06,180.06,131.46,181.53,129.79,182.8Zm-90-96.37a11,11,0,0,1,3.53,0A6.13,6.13,0,0,1,44.5,84.9a34.11,34.11,0,0,1,4.23-3.15c-.5-.22-.15-.44,0-.63l.41-.51L46.66,82,44.2,83.51C42.72,84.44,41.24,85.59,39.74,86.43ZM33.11,97.61l-.24,0-.41-.7Zm.74,1.15.23-.15C34.25,98.84,34.12,98.85,33.85,98.76ZM36,97.38a1.53,1.53,0,0,0-.52,0ZM54.44,109l-2.53-2.79c.78.93,1.57,1.85,2.37,2.75Z"/></g></g></svg>