<svg xmlns="http://www.w3.org/2000/svg" viewBox="0 0 376.9 385.68"><g id="Layer_2" data-name="Layer 2"><g id="Layer_1-2" data-name="Layer 1"><path d="M183.36,240.46l.45.67a2.83,2.83,0,0,1-1.52-.77,25.67,25.67,0,0,0,4.26,4.08,38.79,38.79,0,0,0,4.89,3,36.3,36.3,0,0,0,5,2.16,41.52,41.52,0,0,0,4.64,1.52c1.69,1.29,3.48,2,4,1.35s-.4-2.44-2.12-3.91a11.77,11.77,0,0,1-1-1.19,47.85,47.85,0,0,0-3.49-5c-1.34-1.63-2.81-3.39-4.44-5.15.58.8,1.17,1.64,1.74,2.44a22.56,22.56,0,0,0-2.95-2.91c.06.26.14.57.2.83a22.6,22.6,0,0,0-5.51-5,8.91,8.91,0,0,0-5.52-1.62c-3.06.47-3,4.31,0,7.92Z"/><path d="M187.78,250.29c-1.8-1.75-3.52-3.61-5.25-5.53l-.28-.59-.38,1.76.07-.09a8.77,8.77,0,0,1,4,.47,29.7,29.7,0,0,1,4.44,1.73l1.07.41a1.22,1.22,0,0,0,1.18-.2c.48-.55-.13-1.78-1.4-2.78-.48-.39-1-.75-1.45-1.11a33.69,33.69,0,0,0-2.9-2.41,20.69,20.69,0,0,0-3.33-2.12c-2.24-1.08-4.42-1.61-5.88-.67-.66.43-.5,1.58-.62,2.46-.47,1.13.63,2.92,2.44,4s3.63,1,4.1,0l.87.77-.86,0c.82-.65,2.55.13,3.95.37l1.94.84-.23-3-1.08-.28c0,.15.13.39.12.39-2.07-.44-4-.91-6.2-1.57l-2.84-.45c-.84.12-1,.95-.37,1.83l1,1.18-.41-.61c1.22,1,2.48,1.87,3.73,2.86s2.5,1.92,3.67,2.88a1.32,1.32,0,0,0,1.18.37C188.24,251,188.16,250.62,187.78,250.29Z"/><path d="M178.54,245.74a3.51,3.51,0,0,0-1.32-1.13l-.32.09.7.9C178.09,246.24,178.47,246.14,178.54,245.74Z"/><path d="M176.9,244.7l-.28-.38.15.38c.07,0,.08,0,.08,0Z"/><path d="M308.93,293.39c-.8-2.83-1.7-5.73-2.75-8.74-.27-.75-.52-1.51-.81-2.27l-.91-2.44c-.62-1.72-1.29-3.41-2-5.08-2.72-6.7-5.73-12.9-9-19.34l-5.2-10.23-1.42-2.8-1.44-3-1.5-3.09-.8-1.66-.91-2c-1.11-2.5-2.09-4.87-3-7.23s-1.79-4.71-2.61-7.05c-1.65-4.69-3.12-9.38-4.46-14.12-.35-1.27-.84-2.28-1.12-2.26s-.19,1,.16,2.23q2,7.13,4.43,14.17c1.65,4.73,3.42,9.35,5.61,14.33l.89,2,.83,1.76,1.5,3.11,1.45,3c.47,1,1,1.9,1.42,2.81l5.18,10.2c3.25,6.4,6.25,12.53,9,19.17,1.33,3.24,2.69,6.93,3.71,9.73q1.57,4.47,2.78,8.65c.25.75.6,1.34.85,1.42S309.14,294.11,308.93,293.39Z"/><path d="M321.75,48.52c-.41.73-.23.81.4.22a11,11,0,0,0,1.77-2.24c.34-.61.15-.73-.39-.22A11.06,11.06,0,0,0,321.75,48.52Z"/><path d="M329.38,62.75a84.73,84.73,0,0,0-5.14,11.47,9,9,0,0,1-.9,1.87c.39-.07.29.83-.25,2.33-1.44,3.65-2.48,7.45-3.67,11.18-.51,1.89-.94,3.81-1.43,5.7-.24,1-.5,1.89-.71,2.84l-.54,2.88c-.33,1.92-.76,3.81-1,5.74s-.59,3.82-.74,5.77l-.29,2.89c-.1,1-.14,2-.21,2.91-.15,1.94-.2,3.89-.26,5.83A167.12,167.12,0,0,0,320,170.75a2.93,2.93,0,0,1,1.23,1.11c1.51,1.91,2.95,6,4,10.37l.67,3.33A164.48,164.48,0,0,0,331.93,205c.59,1.53,1.21,3.06,1.78,4.4l.47,1,.56,1.22,1.16,2.51c1.6,3.39,3.26,7,4.92,10.83a65.31,65.31,0,0,1,5.66,10.45,169.85,169.85,0,0,1,8.94,20.77c.61,1.78,1.24,3.56,1.82,5.35l.84,2.69c.28.89.57,1.77.84,2.77a111.75,111.75,0,0,1,2.79,12c.13-1.11.36-1.81.7-1.87.86.15,2,4,2.18,8.71.13,2.39.19,4.8.14,7.23a118.19,118.19,0,0,0-.84-20.47c-.14-.95-.24-1.84-.32-2.64q-.48-2.67-1.05-5.3c-.37-1.63-.75-3.27-1.12-4.91s-.85-3.29-1.27-4.94l-1.41-5a165.26,165.26,0,0,0-7.94-21.17c-3.07-6.71-6.47-12.91-9.49-18.14-.69-1.23-1.39-2.45-2.09-3.67-.53-.91-1.14-2.05-1.72-3.19-1.19-2.29-2.35-4.72-3.46-7.18-2.23-4.93-4.23-10-6-15.18A200.8,200.8,0,0,1,319.76,150a150.63,150.63,0,0,1-2.35-31.92,5.2,5.2,0,0,1,.4-2.36c.26-.37.51-.24.5.54a107.61,107.61,0,0,0,2.2,19.61,164.69,164.69,0,0,0,4.94,18.5c1,3,2.09,6.07,3.19,9.12s2.36,6.1,3.64,9.19q3.81,9.25,8.56,18.95c.94,1.91,1.92,3.79,2.91,5.59s2,3.56,3,5c.23.36.46.7.64.93.27.39.61.94.9,1.41l1.93,3c1.38,2.14,2.71,4.38,4.15,6.84s2.82,5,4.24,7.69,2.72,5.49,4,8.35a176.7,176.7,0,0,1,6.64,17.64c1,3,1.82,6,2.65,8.94l1.18,4.46c.39,1.61.8,3.28,1.16,5a111.72,111.72,0,0,1,2.65,21.36A109.57,109.57,0,0,1,375,311.08c-.39,2-.81,3.94-1.32,5.91-.26,1-.5,1.94-.8,3l-.95,3.09a78.44,78.44,0,0,1-19.68,32.45,97.13,97.13,0,0,1-18.1,14.63,104.32,104.32,0,0,1-39.93,14.65,80.43,80.43,0,0,1-20.8.42,72.67,72.67,0,0,1-10.31-1.88c-1.71-.47-3.39-.93-5.06-1.54l-1.24-.42-.63-.22-.77-.29c-1-.39-2-.78-3-1.21s-1.9-1-2.83-1.49-1.76-1.14-2.63-1.7a24.8,24.8,0,0,1-2.43-1.82l-1.16-1c-.37-.32-.71-.67-1.06-1A44.91,44.91,0,0,1,235.3,364a71,71,0,0,1-7.93-18.22c-.61-2.06-1.12-4.23-1.55-6.22s-.88-4-1.31-6c-.86-4-1.69-8.05-2.62-12a75.92,75.92,0,0,0-3.25-11,34.39,34.39,0,0,0-4.84-8c-.49-.48-.9-1-1.4-1.41l-.94-.81c-.23-.21-.52-.38-.77-.57a13.29,13.29,0,0,0-1.57-1,33.07,33.07,0,0,0-3.35-1.72l-1.78-.71c-.61-.22-1.27-.42-1.88-.62s-1.25-.38-1.92-.54-1.27-.33-2-.47c-1.42-.25-2.66-.56-4.16-.7l-2.13-.25-2.25-.16a14.05,14.05,0,0,1-1.63-.09c-.54-.05-1.07-.11-1.56-.2a9.29,9.29,0,0,1-2.5-.82c-1.46-.67-2.22-1.79-2-3.11.3-1.61,2-3.07,4.43-3.78l-1.17-.18-1.73-.54a8.47,8.47,0,0,1-1.14-.47,6.77,6.77,0,0,1-1-.54,4.33,4.33,0,0,1-1.39-1.41l-.9-1.36a23,23,0,0,0-2.06-3.8,14.45,14.45,0,0,1-1.85-4.15l.66-.94-.27-.37a4.56,4.56,0,0,1-1.42-3.25l.5-1.25a9.27,9.27,0,0,1,3-3.55,3,3,0,0,1,.81-1.41,4.24,4.24,0,0,1,.69-4.26c-.39-.57-.14-1.08.56-1.14a1.9,1.9,0,0,1,.76.11h0c-.18-.43-.23-.56-.49-1.08l-.73-.53c-1.27-.75-1.27-.75-2.37-1.44a7.14,7.14,0,0,1-1.3-1.78c-.45-2.86-.45-2.89,0-3.84a1.81,1.81,0,0,1,.29-.19c-.8-.77-.85-.84-1.06-1.06a3.08,3.08,0,0,1-.32-.62c.11-.59.11-.59,0-.87a1.72,1.72,0,0,1,.08-.45c.67-.38.67-.37.74-.55a1.27,1.27,0,0,1,.36-.16l1,.19c.86,2.07.87,2.08.87,2.08l.41-.35.11.79v-.67l.53.68-.57-.89a9.88,9.88,0,0,0,2,1.25,4.49,4.49,0,0,0,1.25.53,1.23,1.23,0,0,1,0-.33c1.53,1.05,1.53,1.08,3,2.14a5.06,5.06,0,0,1,.25.55,1,1,0,0,1,.81.21l.79.52h.2v0l.77.12.16,0h0c.52.07,1.29.21,3.32.67.45.34.87.68,1.25,1-.11-.15-.21-.29-.31-.45s.2-.59.08-.71c-.76-.74-1.55-1.47-2.37-2.18s-1.66-1.35-2.52-2c-1.72-1.29-3.51-2.74-5.27-4-.68-.31-1.22-.95-1.2-1.43s.63-.58,1.33-.25a27.77,27.77,0,0,1,6.35,2.17,39.55,39.55,0,0,1,6.33,3.65,66.3,66.3,0,0,1,11.33,9.84c.91.8,1.82,1.71,2.73,2.54s1.81,1.65,2.69,2.57l-.17-.39,1.29,1.53.15.15-.75-1.52-.66-.85c-1.05-1-2.07-2-3.07-3l-1.49-1.53c-.49-.49-1-1-1.48-1.48-1-1-2-2-3-3.07s-2-2-3-3-2.16-2.18-3.15-3.22-2-2.19-3.05-3.31c-.58-.47-.9-1.06-.71-1.34s.83-.09,1.4.38a74.39,74.39,0,0,1,11.81,9.15c.93.87,1.82,1.74,2.68,2.61s1.68,1.85,2.46,2.76,1.5,1.8,2.17,2.73,1.29,1.87,1.85,2.77a22.6,22.6,0,0,1,1.77,1.92,18.08,18.08,0,0,1,1.4,2l0,.06c-.17-.41-.32-.79-.48-1.2.86,1.08,1.11,1.91,1.84,2.92,0-.27.06-.57.08-.84,1.05,1.32,2.11,2.67,3.18,4s2.06,2.83,3,4.26a42,42,0,0,1,4.55,9.05l.28.68a31.39,31.39,0,0,1,2,3.59,9.66,9.66,0,0,1,.43,1l.11.3L233,291c.24.72.46,1.46.63,2.21s.38,1.52.53,2.26.25,1.46.38,2.2.2,1.49.3,2.24.17,1.51.21,2.28a59,59,0,0,0-.69-6.21c-.14-1-.43-2.14-.66-3.23-.11-.55-.27-1.08-.43-1.63l-.42-1.44.51,1.54a17.25,17.25,0,0,1,.49,1.74c.29,1.18.59,2.36.76,3.46s.38,2.22.5,3.36.22,2.25.29,3.37a113.76,113.76,0,0,1-.4,12.75,50.9,50.9,0,0,0,1.3,15.72c.33,1.26.65,2.53,1.07,3.76l.6,1.85.66,1.73a47.86,47.86,0,0,0,3.11,6.43,35.15,35.15,0,0,0,7.67,9.31,24.17,24.17,0,0,0,6.83,4l.65.15c.22,0,.45,0,.66.07.45,0,.86.12,1.29.1s.85,0,1.26,0l1.61-.07a46.65,46.65,0,0,0,6.56-.81c1.09-.24,2.15-.42,3.22-.74l1.59-.42,1.58-.51c1-.3,2.08-.72,3.11-1.08s2-.82,3-1.25a61.45,61.45,0,0,0,11.25-6.52,54.49,54.49,0,0,0,9.24-8.59,48.9,48.9,0,0,0,6.63-9.8,41.16,41.16,0,0,0,3.54-10.07,31.25,31.25,0,0,0,.49-9.36l-.11-1.1-.15-1.23c-.11-.82-.22-1.63-.39-2.46-.29-1.64-.72-3.3-1.17-5a9.32,9.32,0,0,1-.34-1.87,1.43,1.43,0,0,1,.24-1.06c.39-.18,1.07.74,1.48,2.17a55.46,55.46,0,0,1,1.78,7.39,42,42,0,0,1,.6,7,37.42,37.42,0,0,1-3.56,14.84c-4.67,10.1-14.06,19.81-25.72,25.48a60.81,60.81,0,0,0,24.13-19.7,47,47,0,0,0,6.46-12.69,36.82,36.82,0,0,0,1.51-6.42c.2-1.05.23-2.13.34-3.17l0-1.57,0-.78v-.86a52.35,52.35,0,0,0-.81-7c-.41-2.38-.82-4.74-1.22-7.1-.77-3-1.65-6.11-2.68-9.22-.54-1.55-1-3.12-1.64-4.69l-1.92-5.06q-2-5.09-4.26-9.92c-1.51-3.23-3.07-6.39-4.71-9.56-3.28-6.36-6.95-12.71-11.12-20.69L288,234l-.86-1.67c-.61-1.25-1.18-2.42-1.71-3.57-1.07-2.31-2.07-4.56-3-6.82-1.91-4.52-3.66-9.06-5.3-13.68q-2.1-5.93-3.83-11.77c-1.13-3.92-2.2-7.81-3.1-11.72s-1.7-7.82-2.41-11.75c-.34-2-.63-3.94-.95-5.91s-.5-4-.72-6c-.41-4-.74-8-.92-12s-.19-8.14,0-12.28a155.48,155.48,0,0,1,7.53-43.17c1-2.85,2.09-5.67,3.15-8.47l.8-2.1.91-2c.61-1.35,1.22-2.7,1.84-4a156,156,0,0,1,18-29.32A171.13,171.13,0,0,1,347.06,4.93c2.53-1.46,5.08-2.7,7.07-3.6a14.27,14.27,0,0,1,4-1.33c.92.07-2.53,2.28-7.47,5.25A176.81,176.81,0,0,0,300.15,51.6l-2.56,3.64c-.83,1.22-1.72,2.41-2.48,3.69-1.57,2.54-3.17,5.07-4.7,7.65l-4.24,8c-1.35,2.72-2.56,5.52-3.79,8.31l-.92,2.1-.8,2.16-1.6,4.33c-.51,1.45-1.1,2.87-1.53,4.36l-1.34,4.44c-.46,1.48-.79,3-1.19,4.49s-.77,3-1.07,4.51l-.94,4.54-.76,4.56a163.36,163.36,0,0,0-1.5,36.66q.63,9.11,2.12,18.06c1,6,2.24,11.87,3.73,17.71s3.22,11.63,5.18,17.36,4.11,11.42,6.64,17.2c.63,1.46,1.29,2.91,2,4.45L291,231l.52,1,1,2c1.31,2.55,2.58,5.05,3.83,7.38,2.48,4.73,4.78,9.08,6.94,13.47a207.72,207.72,0,0,1,9.78,23,.83.83,0,0,1,.4-.33c.62-.21,1.52.44,2.41,1.49-1.49-4.49-3.13-9.09-4.88-13.49s-3.63-8.77-5.61-13.17c-3.32-5.85-6.95-11.67-10.8-18.51l-1.45-2.61-.36-.66-.42-.78-.79-1.55c-1-2-1.94-3.95-2.82-5.9-1.77-3.89-3.38-7.79-4.85-11.75A170.68,170.68,0,0,1,273.06,160a145.35,145.35,0,0,1,.18-18.1c.18-3,.54-5.89.88-8.8.19-1.45.44-2.89.66-4.33s.47-2.87.76-4.29A144.29,144.29,0,0,1,286,91.86a155.9,155.9,0,0,1,19.47-37.39A173.7,173.7,0,0,1,333,23.9a10.13,10.13,0,0,1,2.1-1.59c.4-.15.05.33-.75,1.08a180.35,180.35,0,0,0-19.23,21A168.54,168.54,0,0,0,299,69c2.21-2.38,3.87-3.56,4.51-2.93s.15,3.08-1.14,6.47l3.37-5.65c.57-.93,1.1-1.89,1.71-2.8l1.82-2.72c1.53-2.22,3-3.8,3.3-3.5s-.53,2.25-1.93,4.36L308.86,65c-.59.93-1.13,1.89-1.69,2.84-1.11,1.91-2.26,3.8-3.34,5.74-2,4-4.14,7.85-5.82,12A141.89,141.89,0,0,0,289.5,111c-4.16,21.16-3.42,42.8.69,63.52.28-3,.89-5.29,1.82-6.45,0,0,0,0,0,0-.48-3.2-.89-6.39-1.21-9.59a146.54,146.54,0,0,1,.21-44.78,135.77,135.77,0,0,1,15-43l2.78-5,3-4.84c1-1.62,2-3.23,3.16-4.76l3.31-4.65A184.82,184.82,0,0,1,333,34,210.92,210.92,0,0,1,367.7,5.1,7.49,7.49,0,0,1,369.6,4a5.68,5.68,0,0,1-1.51,1.22,208,208,0,0,0-40.82,36s0,0,.06-.06c.57-.48.81-.46.37.22a12.35,12.35,0,0,1-1.87,2.17c-.65.56-.75.38-.39-.21-10.89,13.06-20.12,27.74-26.25,43.74-1.67,3.94-2.79,8.08-4.1,12.14-.61,2.05-1.07,4.14-1.6,6.2s-.88,4.17-1.28,6.26a141,141,0,0,0-2.11,25.2,141.12,141.12,0,0,1,9-45.67,151.89,151.89,0,0,1,10.06-21c1.85-3.39,4-6.59,6.11-9.82,1-1.63,2.22-3.14,3.33-4.71s2.22-3.14,3.45-4.62c1.88-2.77,3.7-5.58,5.8-8.25a8.18,8.18,0,0,1,1.81-1.76c.27-.11,0,.52-.62,1.26s-1.12,1.5-1.69,2.25a44.22,44.22,0,0,1,5.15-5.19C334,38.23,335,37.68,335.28,38s-.36,1.64-1.47,3.33a60,60,0,0,1-4.52,6.22c-9.56,12.62-17.8,26.24-23.51,40.93l-1.67,4.83-1,5a153.84,153.84,0,0,1,15.74-32.75A201.5,201.5,0,0,1,340.94,36.9c1.39-1.53,2.75-2.68,3-2.52s-.71,1.57-2.08,3.12C328.36,53.82,317.41,72.29,310.94,92c-6.67,19.65-8.18,40.52-6.1,61A184.11,184.11,0,0,0,319,191.45c-.46-1.63-.92-3.28-1.39-4.93a279.09,279.09,0,0,1-7-30.82,176.93,176.93,0,0,1-2.53-30.16,131.49,131.49,0,0,1,1-15.07c.11-1.26.36-2.5.54-3.75s.38-2.52.68-3.76c.55-2.49,1.06-5,1.68-7.52a125.35,125.35,0,0,1,12.11-29.62,3.67,3.67,0,0,1,1.36-1.71c.23,0-.05.72-.6,1.7a122.09,122.09,0,0,0-11.48,28.75l-.51,1.81-.38,1.84-.76,3.66c-.56,2.42-.9,4.89-1.27,7.35-.62,5-1.05,9.93-1.19,15A147.15,147.15,0,0,0,316,172c-3.44-15.49-5.41-30.9-5-46.34.06-1.93.18-3.85.28-5.78s.28-3.86.54-5.77.45-3.86.81-5.76l.48-2.87c.19-1,.42-1.91.63-2.86q.66-2.87,1.31-5.75l1.71-5.69c.52-1.92,1.26-3.78,2-5.67l1.06-2.83.53-1.41.62-1.39a14.84,14.84,0,0,1,1.79-3.29,1.54,1.54,0,0,1,.11-.85,57.08,57.08,0,0,1,2.36-6l1.37-3.09c.49-1,1-2,1.57-3.07a6.64,6.64,0,0,1,1.44-2C329.93,61.3,329.8,61.86,329.38,62.75ZM200.92,264l-.13-.24.57.63.52,1.43Zm-13.67-2.86h0l-.35-.87Zm115,82a60.33,60.33,0,0,1-19.34,12.54,56.58,56.58,0,0,1-22.79,4.38,48.71,48.71,0,0,0,11.3-1.34A66.38,66.38,0,0,0,302.25,343.18ZM194.33,255.44a20.19,20.19,0,0,1,2.06,3.51,15.51,15.51,0,0,1,2.31,1.21c1,.72,2,1.42,3,2.11s1.91,1.39,2.82,2.17c-.09-.47.35-.11.6,0l.75.45c-1.9-1.73-3.88-3.27-5.89-5C198.12,258.41,196.05,257,194.33,255.44Zm-15.76-6.55c0-.09-.09-.16-.14-.26l.61-.47Zm-1,.84.29.24C177.69,250.17,177.62,250,177.59,249.73Zm2.64,2.15a2.42,2.42,0,0,0-.3-.53Zm-3.88,19.65c.69-1,1.39-1.95,2.09-2.9-.72.9-1.44,1.81-2.15,2.75Z"/><path d="M25.47,177.25c.2-.07.41-.12.61-.18a1.73,1.73,0,0,1-.69,1.16,15.08,15.08,0,0,0,6.41-5.94A26,26,0,0,0,35,164.21c1.23-1.1,1.71-2.73,1-3.73s-2.44-.93-3.75.23a5.73,5.73,0,0,1-1.11.48,17.54,17.54,0,0,0-4.68,1.35,26.29,26.29,0,0,0-4.59,2.53l2.15-.84a11.21,11.21,0,0,0-2.5,1.94l.78.14c-3.49,1.58-6,5.79-5.28,9s3.88,4.24,7,2.6Z"/><path d="M34.64,177.09c-1.71.87-3.49,1.66-5.21,2.55l-.55,0,1.62,1-.08-.1c-.37-2.22.77-4.74,2-6.92l.37-.86a1.58,1.58,0,0,0-.25-1.26c-.55-.75-1.72-.7-2.62.12l-1,1c-3,1.89-6.24,6.29-4.51,9.58.4.75,1.39,1,2.17,1.36a2.58,2.58,0,0,0,3.53-.85,2.7,2.7,0,0,0,.07-3.69c.23-.16.46-.34.7-.5,0,.26,0,.52,0,.78-.63-1,.1-2.31.32-3.53.26-.49.52-1,.8-1.47l-2.89-1.1-.25.93a2.29,2.29,0,0,1,.37,0,48.3,48.3,0,0,1-1.35,5.26c-.15.81-.31,1.62-.42,2.44a1.2,1.2,0,0,0,1.64,1c.36-.15.71-.3,1.08-.44l-.56.14c.92-.72,1.81-1.49,2.7-2.24s1.83-1.46,2.77-2.1a.81.81,0,0,0,.38-.91A.54.54,0,0,0,34.64,177.09Z"/><path d="M30.25,183.57a1.8,1.8,0,0,0-1,.78,3,3,0,0,0,.08.31l.81-.3C30.7,184.14,30.61,183.78,30.25,183.57Z"/><path d="M29.31,184.66l-.35.12h.35v-.11Z"/><path d="M62.53,320.85,60,322.74c-.84.64-1.63,1.31-2.44,2-1.61,1.31-3.31,2.58-4.78,4l-2.28,2a29.54,29.54,0,0,0-2.22,2.09l-.51.51-.16.18-.33.37c-.21.24-.61.55-.87.85a23.38,23.38,0,0,0-3.1,4.07,6.27,6.27,0,0,0-.77,2.45,3.81,3.81,0,0,0,.64,2.44,11.79,11.79,0,0,0,4,3.14A28.69,28.69,0,0,0,52,348.88l.35.1.5.15,1.35.42c.91.26,1.85.47,2.77.72,1.87.43,3.76.84,5.7,1.12a85.42,85.42,0,0,0,11.84,1,5.13,5.13,0,0,0,2-.24c0-.11-.79-.21-1.79-.2A86.27,86.27,0,0,1,63,351c-1.92-.28-3.8-.69-5.66-1.1l-2.75-.71c-.84-.26-2-.63-2.31-.7a27.81,27.81,0,0,1-4.58-2,11.8,11.8,0,0,1-3.86-2.94,3.52,3.52,0,0,1-.68-2.29A5.55,5.55,0,0,1,43.8,339a20.14,20.14,0,0,1,2.91-3.86,7.37,7.37,0,0,1,.85-.83l.3-.34.16-.17.07-.09.23-.23,1-1.07,1.14-1,2.27-2c.77-.67,1.47-1.38,2.3-2l2.44-1.95,2.42-2,2.56-1.88A6.33,6.33,0,0,0,64.15,320C64.11,319.83,63.39,320.22,62.53,320.85Z"/><path d="M233.35,313.76c-1,0-.93.1.05.26s2.35.37,3.3.47.81,0,0-.27A15.91,15.91,0,0,0,233.35,313.76Z"/><path d="M225.48,321.78a61,61,0,0,0-13.21,3.42,21.19,21.19,0,0,1-2.26.7c.34.07-.54.53-2.25,1.17-16.91,6.44-33.59,15.6-51.13,24.73-8.78,4.56-17.82,9.08-27.26,13.13a192.94,192.94,0,0,1-29.6,10.17,6.09,6.09,0,0,1-1.66.82A42,42,0,0,1,92,377.67c-1.31.25-2.73.5-4.2.74s-3,.38-4.6.52-3.16.18-4.74.23A116.33,116.33,0,0,1,64,378.84a95.4,95.4,0,0,1-14.45-2.27l-1.8-.41-1.78-.5-2-.55a20.35,20.35,0,0,1-2.22-.7c-1.47-.53-3-1-4.4-1.57L33,371.07a67.45,67.45,0,0,1-15.12-9.42,28.34,28.34,0,0,1-5.26-5.29,19.28,19.28,0,0,1-3.52-7.64,21.8,21.8,0,0,1-.43-7.41,30.54,30.54,0,0,1,1.7-7.2,33.15,33.15,0,0,1,3.3-6.89q2.22-3.35,4.45-6.69c.75-1.13,1.48-2.26,2.35-3.35.42-.55.82-1.1,1.27-1.66l1.42-1.65,2.56-3c.67-.82,1.38-1.58,2.1-2.33L32.18,304c1.47-1.48,3-2.86,4.5-4.3-.88.57-1.48.85-1.61.69-.07-.55,2.56-3.53,6.06-6.26,1.74-1.42,3.46-2.9,5.23-4.21-1.29.92-2.56,1.91-3.83,2.91l-3.82,3c-2.53,2.05-5,4.23-7.5,6.35-.7.67-1.35,1.27-2,1.81l-3.92,3.87c-.66.63-1.26,1.37-1.9,2.05l-2.66,3c-.45.51-.94,1-1.35,1.53l-1.21,1.54c-.83,1-1.55,2.06-2.27,3.12q-2.19,3.15-4.38,6.34l-1.2,1.73c-.35.59-.65,1.19-1,1.79a31.68,31.68,0,0,0-1.66,3.62c-.49,1.22-.88,2.46-1.28,3.7s-.61,2.5-.82,3.78a29,29,0,0,0-.36,3.85,25.53,25.53,0,0,0,.24,3.9,20.73,20.73,0,0,0,.87,3.82c.18.62.41,1.23.64,1.83s.54,1.18.83,1.75a27.3,27.3,0,0,0,4.36,6.15A34.36,34.36,0,0,0,14.94,364c1,.83,2.09,1.61,3.13,2.41a67.68,67.68,0,0,0,14.37,7.86l3.91,1.5,4,1.31c.66.21,1.32.44,2,.63s1.3.32,2,.47l3.08.74a105.91,105.91,0,0,0,12.21,1.83,115.79,115.79,0,0,0,23.87-.4c15.62-1.94,30-6.61,43.33-12.28s25.76-12.35,37.86-18.83a22.26,22.26,0,0,1,2.8-1.35c.52-.15.49,0-.39.5-15,8.55-29.27,17.13-45.69,24.28a160.57,160.57,0,0,1-26.68,9.05,116.19,116.19,0,0,1-31.95,3.2c-.86,0-1.72-.06-2.59-.12l-2.59-.21c-1.73-.12-3.47-.36-5.21-.59s-3.48-.56-5.22-.85c-.87-.14-1.74-.34-2.61-.54l-3.06-.71a11.37,11.37,0,0,1-1.82-.49l-1.79-.58-3.6-1.15-3.53-1.33-1.78-.66a12.63,12.63,0,0,1-1.73-.73l-3.33-1.65c-1.12-.55-2.25-1.09-3.28-1.73l-3.18-1.86c-.52-.31-1.09-.59-1.56-.94l-1.39-1.08a51.26,51.26,0,0,1-5.34-4.46A35.63,35.63,0,0,1,4.91,360L4,358.62c-.27-.49-.54-1-.8-1.48A24.73,24.73,0,0,1,1.84,354c-.37-1.07-.73-2.17-1-3.29s-.48-2.26-.62-3.4a34.31,34.31,0,0,1,1.21-13.49,37,37,0,0,1,2.44-6.53l.77-1.61c.32-.52.67-1,1-1.57l2-3.14,4.08-6.31a56.23,56.23,0,0,1,4.83-6.25l2.54-2.94c.56-.65,1.1-1.34,1.68-1.95l3.5-3.7c2.32-2.54,4.75-4.78,7.18-7.09l1.82-1.72,1.85-1.62,3.71-3.23c9.93-8.48,20.08-15.78,29.69-22.81,10.24-7.05,19.63-13.72,27.67-20.63,1.06-.85,2-1.73,2.94-2.6l2.84-2.61c1-.87,1.75-1.78,2.64-2.66l2.58-2.64A63.27,63.27,0,0,0,114.93,222c.54-.84.91-1.67,1.38-2.49s.81-1.62,1.07-2.39a22.56,22.56,0,0,0,1.37-4.31,15.14,15.14,0,0,0,.36-3.47,11.54,11.54,0,0,0-.39-2.6A15,15,0,0,0,116,201.8a16.66,16.66,0,0,0-5-4.22,20.06,20.06,0,0,0-8.88-2.05,26.86,26.86,0,0,0-5.38.49,26.18,26.18,0,0,0-5.21,1.66c-.4.19-.8.33-1.22.57l-.64.31-.11.08-.35.28-.7.52c-.45.4-.92.7-1.37,1.1a56.79,56.79,0,0,0-5.5,4.9,2.54,2.54,0,0,1-2.77,1,9,9,0,0,1-4.22-2,8.55,8.55,0,0,1-3.26-5l-.46.43-1,.43a5,5,0,0,1-3.46,0l-1.66-.41c-2.92-1.13-5.93-1.22-9-2.29l-.81-.87-.41,0a6.31,6.31,0,0,1-3.43-.64l-1.12-.88a13.13,13.13,0,0,1-3-3.7,4.92,4.92,0,0,1-1.27-1.22,6.8,6.8,0,0,1-4-2.41.92.92,0,0,1-1-.93,1.18,1.18,0,0,1,.14-.58h0a8,8,0,0,0-1-.07,5.63,5.63,0,0,1-.54.37c-.81.71-.81.71-1.54,1.31a5.11,5.11,0,0,1-1.71.39c-2.61-.67-2.62-.65-3.46-1.37a3.18,3.18,0,0,1-.16-.32l-1,.55a3,3,0,0,1-.55.06c-.52-.29-.52-.29-.77-.3a1.93,1.93,0,0,1-.39-.21c-.32-.7-.32-.7-.47-.81a1.5,1.5,0,0,1-.14-.37c.11-.52.16-.73.18-.82l1.87,0-.31-.48.72.19-.61-.25.62-.22-.81.19a6.87,6.87,0,0,0,1.2-1.33,2.44,2.44,0,0,0,.53-.89,1.63,1.63,0,0,1-.3-.16c1-.95,1-1,2-1.83a4.42,4.42,0,0,1,.52,0,.65.65,0,0,1,.22-.64l.51-.47,0-.17,0,0c0-.26.08-.44.12-.64l0-.14h0l.66-2.77a6.81,6.81,0,0,1,1-.69l-.44.06c-.3,0-.6-.48-.71-.42a35,35,0,0,0-7.74,6,1.11,1.11,0,0,1-1.31.57c-.44-.2-.53-.78-.22-1.31a20.86,20.86,0,0,1,5.19-9.85,27.06,27.06,0,0,1,9.29-6.56c1.6-1,3.14-2,4.76-3l-.39,0,1.4-.56.13-.08-1.49-.12-.78.25c-3.63,2.39-7.64,3.89-11.36,6.27-2,1.28-4.07,2.09-6.06,3.31-.41.39-.95.46-1.23.14a1,1,0,0,1,.27-1.28c4.24-6.16,11.36-11.67,18.22-12.49a7.34,7.34,0,0,1,3.56-1.45l.06,0-1.17-.2c.94-.42,1.78-.16,2.71-.42l-.94-.76c4.51-2.21,9.13-5.2,14.09-5.65a3.3,3.3,0,0,1,.52-.13A27.76,27.76,0,0,1,66,144.46l.66-.51a1.43,1.43,0,0,1,.23-.14l1.29-.53c.87-.36,1.73-.72,2.63-1.05A76.77,76.77,0,0,1,82.31,139c-1.37.25-2.73.5-4.08.79s-2.7.64-4,1-2.67.78-4,1.19l-3.66,1.27,0,0,.23-.1.51-.22,1-.43c.69-.29,1.37-.58,2.07-.85,1.41-.52,2.83-1,4.27-1.52a82,82,0,0,1,8.82-2.27,75.8,75.8,0,0,1,45.21,4.95,73.28,73.28,0,0,1,12.11,6.9,67.15,67.15,0,0,1,17.6,18.55,62.58,62.58,0,0,1,5.14,10,53.41,53.41,0,0,1,4,17.51c.22,1.07.42,2.15.55,3.25s.29,2.18.38,3.29l.19,3.33c.07,1.12,0,2.19,0,3.28a63.14,63.14,0,0,1-.48,6.47c-.12,1.06-.33,2.1-.5,3.15s-.37,2.09-.63,3.1l-.75,3-.92,2.94c-.29,1-.64,1.93-1,2.87s-.72,1.88-1.1,2.8a85.36,85.36,0,0,1-5.27,10.32A104.74,104.74,0,0,1,145,260.78c-2.37,2.54-4.85,5-7.29,7.2L134,271.33c-1.22,1.12-2.49,2.1-3.74,3.15a315.58,315.58,0,0,1-30.42,21.79c-10,6.5-19.79,12.55-28.7,18.87a14.09,14.09,0,0,1-4.06,2.33c-.35-.08.71-1.15,2.52-2.48,12.6-9.35,27-18.1,41.59-28.31a252.8,252.8,0,0,0,21.68-17l5.23-4.85c1.74-1.68,3.48-3.48,5.16-5.3a109.09,109.09,0,0,0,9.52-11.94,101.86,101.86,0,0,1-8.14,9.88c-.71.78-1.43,1.54-2.16,2.27s-1.45,1.49-2.2,2.19L138,264.06l-2.24,2L131.3,270l-4.6,3.66-2.3,1.82-2.34,1.71-4.67,3.4c-12.52,8.74-25.26,16.25-37.24,23.91l-4.53,3-4.44,3-4.32,3c-1.41,1-2.9,1.93-4.27,2.92l-5.14,3.92-4.85,4c-1.59,1.35-3,2.79-4.57,4.17l-1.13,1c-.37.36-.7.73-1,1.09l-.46.49-.24.27-.46.52c-.3.36-.75.75-1.08,1.16l-1,1.25a30,30,0,0,0-2,2.57,12,12,0,0,0-1.43,2.87A5.81,5.81,0,0,0,39,343a5.4,5.4,0,0,0,1.64,2.72,13.48,13.48,0,0,0,2.62,1.88,31.2,31.2,0,0,0,5.86,2.73c.51.2,1,.33,1.54.5l.77.23.46.11.63.18,1.4.39,1.43.33c.95.22,1.9.46,2.88.61a76,76,0,0,0,12,1.32,98.15,98.15,0,0,0,10.45-.25c3.47-.31,6.84-.72,10.27-1.36A143.2,143.2,0,0,0,111.18,347c13.41-4.54,26.65-10.78,41.13-17.83,10.19-4.94,20.39-9.93,31-14.37,5.29-2.23,10.68-4.31,16.19-6.18a122.75,122.75,0,0,1,17.64-4.78,59.36,59.36,0,0,1,21-.37,44.12,44.12,0,0,1,21,9.81,55.5,55.5,0,0,1,13.37,16.94,76.55,76.55,0,0,1,6.66,18.93c1.51,6.65,1.83,12.47,1.5,13.25s-1.24-3.56-2.54-10a81.29,81.29,0,0,0-6.38-19.3,54.68,54.68,0,0,0-13.32-17.51,43.66,43.66,0,0,0-9.91-6.44A43.14,43.14,0,0,0,237,305.71a59.9,59.9,0,0,0-21.48,1c-3.28.69-6.42,1.54-9.45,2.46s-5.9,1.9-8.81,2.93c-5.79,2.08-11.43,4.38-17,6.78C169.28,323.67,158.68,329,148.2,334s-20.85,9.77-31.38,13.61a142.62,142.62,0,0,1-31.88,8,87.68,87.68,0,0,1-31.51-1.89l-1.86-.54c-.51-.14-.9-.22-1.28-.36-.77-.26-1.56-.48-2.32-.79s-1.53-.58-2.27-.93-1.49-.68-2.22-1.07-1.43-.8-2.14-1.22a18.71,18.71,0,0,1-2-1.38,6.83,6.83,0,0,1-2.7-4,7.26,7.26,0,0,1,.55-4.16,17.48,17.48,0,0,1,2.14-3.64c.87-1.1,1.76-2.18,2.64-3.26.42-.53,1-1,1.4-1.49S44,330,45,329c-.15,0-.29,0-.35,0-.26-.25.06-1.15,1-2.37-.49.46-1,.89-1.45,1.38L43,329.27c-.53.58-1.06,1.15-1.7,1.78-1.15,1.28-2.23,2.64-3.36,4a18.83,18.83,0,0,0-2.69,4.53,7.33,7.33,0,0,0-.29,5.19,8,8,0,0,0,2.33,2.88,20.3,20.3,0,0,0,3.13,2,41.17,41.17,0,0,0,6.67,3c1.13.42,2.29.73,3.43,1.07l.47.11.54.13,1.3.35c.87.24,1.77.4,2.65.6a81,81,0,0,0,10.9,1.56,103.18,103.18,0,0,0,11.28.19,115.2,115.2,0,0,0,11.47-1.1A155,155,0,0,0,112.62,350a331.89,331.89,0,0,0,31.52-12c10.24-4.37,20.37-8.94,30.88-13.27,6.56-3,13.23-5.87,20.09-8.44q5.14-1.94,10.44-3.62a105.09,105.09,0,0,1,11.09-2.95,63.83,63.83,0,0,1,12.1-1.38A43.83,43.83,0,0,1,241.68,310c1.09.29,2.15.71,3.22,1.08s2.11.86,3.11,1.4a38.85,38.85,0,0,1,5.74,3.52,46.19,46.19,0,0,1,9.23,9.13,16.63,16.63,0,0,1,1.78,2.7c.19.46-.27-.1-1.08-1.19a45.71,45.71,0,0,0-13.12-12A38.38,38.38,0,0,0,242,310.9a41.12,41.12,0,0,0-9-1.56A59.77,59.77,0,0,0,215.91,311c-2.69.62-5.31,1.35-7.87,2.14-1.29.39-2.53.82-3.78,1.24s-2.49.85-3.72,1.3c3.24-.77,5.27-.91,5.15-.41s-2.43,1.67-6,3.23c4.46-1.53,8.94-3,13.65-4.13,2.9-.7,5.29-.94,5.24-.7s-2.33.87-5.06,1.54a202.33,202.33,0,0,0-27.17,9.35c-8.78,3.64-17.34,7.64-25.83,11.66-10.13,5-20.15,9.92-30.37,14.28a192.36,192.36,0,0,1-31.36,10.62,30.58,30.58,0,0,1,6.53-.26h0c3.31-.94,6.61-1.92,9.85-3,14.83-5.37,29.09-12.49,43.51-19.67s29.1-14.42,44.78-19.79c7.79-2.65,16-5.07,24.86-5.29a38.46,38.46,0,0,1,13.29,1.87,34.48,34.48,0,0,1,11.76,6.8c6.8,5.93,11.37,13.83,14.11,22s4,16.6,5,24.78a8.69,8.69,0,0,1,.14,2.39,6.68,6.68,0,0,1-.44-2.1c-1.27-9.85-2.75-20.08-6.91-29.72a49.84,49.84,0,0,0-8.41-13.38,36.85,36.85,0,0,0-13-9.52l.08,0c.78.41.88.58,0,.26s-2.39-.85-3.19-1.2-.82-.42,0-.26a40.78,40.78,0,0,0-14.82-1.5,72.48,72.48,0,0,0-14.14,2.6,210.67,210.67,0,0,0-26.12,9.6c-16.88,7.37-32.81,16.09-49.08,23.6,15.23-6.73,30.09-14.51,45.52-21.26A243.67,243.67,0,0,1,205.78,319a104.58,104.58,0,0,1,12.37-3.27,54.41,54.41,0,0,1,13-1.06,35.47,35.47,0,0,1,11.51,1.93,12.07,12.07,0,0,1,2.63,1.32c.22.23-.51-.09-1.54-.48a31.42,31.42,0,0,0-3.09-1.08,25.48,25.48,0,0,1,7.46,3.89c1.67,1.3,2.46,2.29,2.26,2.45-.62.24-5.14-3.11-11.52-4.81a38.11,38.11,0,0,0-13.07-1,70.93,70.93,0,0,0-12.92,2.43,213.25,213.25,0,0,0-24.73,8.93c-1.74.76-3.46,1.56-5.19,2.35s-3.41,1.72-5.09,2.61c6.21-2.8,12.49-5.44,18.85-7.82q4.79-1.78,9.62-3.34c3.23-1,6.48-2,9.76-2.72,6.54-1.5,13.32-2.21,19.8-1a29.84,29.84,0,0,1,9.15,3.34,33.2,33.2,0,0,1,7.63,6.09c1.58,1.61,2.62,3.25,2.5,3.39s-1.32-1.2-2.86-2.78A29.72,29.72,0,0,0,238,320a40.06,40.06,0,0,0-16.82,0,108.89,108.89,0,0,0-16.85,4.9c-5.57,2-11.07,4.3-16.52,6.73-21.79,9.75-42.8,22.07-66,30.88a178.58,178.58,0,0,1-23.23,8.47,122.72,122.72,0,0,1-25.25,4.48c1.1,0,2.2,0,3.31-.06s2.22-.07,3.32-.17c14.15-.95,27.12-4.56,39.14-9.05A317.57,317.57,0,0,0,153,350.46c10.79-5.62,21.31-11.39,32.2-16.58,5.44-2.6,11-5.05,16.68-7.27a119.29,119.29,0,0,1,17.48-5.51,8.18,8.18,0,0,1,2.37-.28c.14.07-.65.32-1.85.54A113.66,113.66,0,0,0,203,326.68c-5.52,2.12-10.87,4.51-16.17,7-10.6,5.05-21,10.7-32,16.43-9.15,4.75-18.25,9.28-27.53,13.28a196.54,196.54,0,0,1-28.55,9.95A175.83,175.83,0,0,0,127.5,364c9.12-3.8,17.84-8.08,26.38-12.44,17.05-8.7,33.5-17.79,51.14-24.26a29.16,29.16,0,0,1,4.13-1.3,3.34,3.34,0,0,1,.83-.42,70.81,70.81,0,0,1,14-4,10.49,10.49,0,0,1,2.61-.15C227.06,321.5,226.5,321.62,225.48,321.78Zm-177-149.57-.26,0,.67-.14,1.53.47Zm-3.14,10.66h0l-.89-.17Zm84.45,87c2.15-1.78,4.22-3.75,6.33-5.62s4.2-4,6.22-6.12A106.16,106.16,0,0,0,153.66,244a77.72,77.72,0,0,0,8.78-17.26,64,64,0,0,0,3.77-20.64,62.8,62.8,0,0,1-3,20.37,81.33,81.33,0,0,1-14.49,25.1,115.78,115.78,0,0,1-9.22,9.86c-.81.74-1.62,1.54-2.43,2.24l-2.43,2.09C133.06,267.13,131.46,268.6,129.79,269.87Zm-90-96.37a11.3,11.3,0,0,1,3.53,0A6.13,6.13,0,0,1,44.5,172a34.11,34.11,0,0,1,4.23-3.15c-.5-.22-.15-.44,0-.63l.41-.51-2.45,1.41-2.46,1.49C42.72,171.51,41.24,172.66,39.74,173.5Zm-6.63,11.18-.24,0-.41-.7Zm.74,1.15.23-.15C34.25,185.91,34.12,185.92,33.85,185.83ZM36,184.45a1.84,1.84,0,0,0-.52,0Zm18.46,11.64-2.53-2.79c.78.93,1.57,1.85,2.37,2.75Z"/></g></g></svg>