<svg xmlns="http://www.w3.org/2000/svg" viewBox="0 0 392.22 316.25"><g id="Layer_2" data-name="Layer 2"><g id="Layer_1-2" data-name="Layer 1"><path d="M25.47,99.07c.2-.07.41-.12.61-.18a1.71,1.71,0,0,1-.69,1.15,15,15,0,0,0,6.41-5.93A26.14,26.14,0,0,0,35,86c1.23-1.1,1.71-2.73,1-3.73s-2.44-.93-3.75.23A5.11,5.11,0,0,1,31.1,83a18.31,18.31,0,0,0-4.68,1.35,27,27,0,0,0-4.59,2.54L24,86.05A10.65,10.65,0,0,0,21.48,88l.78.13c-3.49,1.59-6,5.8-5.28,9s3.88,4.24,7,2.6Z"/><path d="M34.64,98.91c-1.71.87-3.49,1.66-5.21,2.55l-.55,0,1.62,1-.08-.1c-.37-2.22.77-4.74,2-6.93l.37-.85a1.61,1.61,0,0,0-.25-1.26c-.55-.75-1.72-.7-2.62.11l-1,1c-3,1.9-6.25,6.3-4.52,9.59.4.74,1.39.95,2.17,1.36a2.58,2.58,0,0,0,3.53-.85,2.7,2.7,0,0,0,.07-3.69c.23-.17.46-.35.7-.5,0,.25,0,.52,0,.78-.63-1,.1-2.31.32-3.53.26-.5.52-1,.8-1.48L29.09,95l-.25.93a3.45,3.45,0,0,1,.37.06,47.55,47.55,0,0,1-1.35,5.25c-.15.82-.31,1.62-.42,2.44a1.2,1.2,0,0,0,1.64,1c.36-.15.71-.3,1.08-.44l-.56.15c.92-.72,1.81-1.49,2.7-2.25s1.83-1.46,2.77-2.09a.81.81,0,0,0,.38-.91A.53.53,0,0,0,34.64,98.91Z"/><path d="M30.25,105.39a1.82,1.82,0,0,0-1,.77,2,2,0,0,0,.08.31l.81-.3C30.7,106,30.61,105.59,30.25,105.39Z"/><path d="M29.31,106.47l-.35.13h.35v-.12Z"/><path d="M62.53,242.67,60,244.56c-.84.64-1.63,1.3-2.44,1.95-1.61,1.32-3.31,2.59-4.78,4l-2.28,2a29.44,29.44,0,0,0-2.22,2.08l-.51.52-.16.18-.33.36c-.21.25-.61.55-.87.86a23.38,23.38,0,0,0-3.1,4.07,6.17,6.17,0,0,0-.77,2.45,3.83,3.83,0,0,0,.64,2.44,11.74,11.74,0,0,0,4,3.13A27.14,27.14,0,0,0,52,270.69a3.21,3.21,0,0,0,.36.11l.49.14,1.35.42c.91.27,1.85.48,2.77.73,1.87.43,3.76.84,5.7,1.12a84,84,0,0,0,11.84,1,5,5,0,0,0,2-.23,3.76,3.76,0,0,0-1.79-.21,83.21,83.21,0,0,1-11.79-1c-1.92-.28-3.8-.68-5.66-1.1L54.54,271c-.83-.26-2-.63-2.3-.7a27,27,0,0,1-4.58-2,11.77,11.77,0,0,1-3.86-2.93,3.54,3.54,0,0,1-.68-2.29,5.55,5.55,0,0,1,.68-2.34,20.53,20.53,0,0,1,2.91-3.87,9.5,9.5,0,0,1,.85-.83l.3-.34.16-.17.07-.08.23-.24,1-1.06,1.14-1,2.27-2c.77-.66,1.47-1.37,2.3-2l2.44-2,2.42-1.95,2.56-1.88a6.33,6.33,0,0,0,1.65-1.54C64.11,241.65,63.39,242,62.53,242.67Z"/><path d="M233.35,235.58c-1,0-.93.1.05.26s2.35.37,3.3.46.81,0,0-.26A15.27,15.27,0,0,0,233.35,235.58Z"/><path d="M225.48,243.59A61,61,0,0,0,212.27,247c-.75.28-1.6.52-2.26.7.34.07-.54.52-2.25,1.17-16.91,6.44-33.59,15.6-51.13,24.73-8.78,4.56-17.82,9.08-27.26,13.13a192.91,192.91,0,0,1-29.6,10.16,5.74,5.74,0,0,1-1.66.83A42.2,42.2,0,0,1,92,299.48c-1.31.26-2.73.51-4.2.75s-3,.37-4.6.52-3.16.18-4.74.23A116.33,116.33,0,0,1,64,300.66a98,98,0,0,1-14.45-2.27l-1.8-.42L46,297.48l-2-.56a18.31,18.31,0,0,1-2.22-.69c-1.47-.53-3-1-4.4-1.58L33,292.89a67.13,67.13,0,0,1-15.12-9.43,28,28,0,0,1-5.26-5.28,19.35,19.35,0,0,1-3.52-7.64,21.84,21.84,0,0,1-.43-7.42,30.58,30.58,0,0,1,1.7-7.19A32.91,32.91,0,0,1,13.7,249l4.45-6.7c.74-1.12,1.48-2.26,2.35-3.34.42-.55.82-1.11,1.27-1.66l1.42-1.66,2.56-3c.67-.83,1.38-1.58,2.1-2.33l4.33-4.55c1.47-1.48,3-2.87,4.5-4.31-.88.58-1.48.86-1.61.7-.07-.55,2.56-3.54,6-6.27,1.75-1.42,3.47-2.9,5.24-4.2-1.29.91-2.56,1.9-3.83,2.91l-3.82,3c-2.53,2-5,4.23-7.5,6.35-.7.67-1.35,1.27-2,1.81l-3.92,3.86c-.66.64-1.26,1.38-1.9,2.06l-2.66,3c-.45.51-.94,1-1.35,1.53l-1.21,1.53c-.83,1-1.55,2.07-2.28,3.12l-4.37,6.34-1.2,1.74c-.35.59-.65,1.19-1,1.78a31,31,0,0,0-1.66,3.63c-.49,1.22-.88,2.45-1.28,3.69s-.61,2.51-.82,3.78a29.15,29.15,0,0,0-.36,3.86,25.61,25.61,0,0,0,.24,3.9,21.11,21.11,0,0,0,.87,3.82c.18.62.41,1.23.64,1.83s.54,1.17.83,1.74a27.58,27.58,0,0,0,4.36,6.16,34.36,34.36,0,0,0,2.73,2.66c1,.83,2.09,1.6,3.13,2.41A68.13,68.13,0,0,0,32.44,296l3.91,1.5,4,1.3c.66.21,1.32.45,2,.64s1.3.32,2,.47l3.08.74a105.91,105.91,0,0,0,12.21,1.83,115.78,115.78,0,0,0,23.87-.41c15.62-1.93,30-6.6,43.33-12.28s25.76-12.34,37.86-18.83a22.15,22.15,0,0,1,2.8-1.34c.52-.15.49,0-.39.5-15,8.55-29.27,17.13-45.69,24.27a159.66,159.66,0,0,1-26.68,9.05,115.79,115.79,0,0,1-31.95,3.21c-.86,0-1.72-.06-2.59-.12l-2.59-.21c-1.73-.12-3.47-.37-5.21-.59s-3.48-.56-5.22-.85c-.87-.14-1.74-.35-2.61-.54l-3.06-.71a11.4,11.4,0,0,1-1.82-.5l-1.79-.57-3.6-1.16-3.53-1.32-1.78-.66a12.63,12.63,0,0,1-1.73-.73l-3.33-1.65c-1.12-.56-2.25-1.1-3.28-1.74l-3.18-1.85c-.52-.32-1.09-.6-1.56-.95l-1.39-1.08A48.88,48.88,0,0,1,9.1,287a35.55,35.55,0,0,1-4.19-5.16L4,280.43c-.27-.48-.54-1-.8-1.47a25.4,25.4,0,0,1-1.38-3.1c-.37-1.08-.73-2.18-1-3.29s-.48-2.26-.62-3.4a34.31,34.31,0,0,1,1.21-13.49,37,37,0,0,1,2.44-6.53l.78-1.61c.31-.53.66-1,1-1.57l2-3.14,4.08-6.31a56.31,56.31,0,0,1,4.83-6.26l2.54-2.93c.56-.65,1.1-1.34,1.68-2l3.5-3.7c2.32-2.53,4.75-4.77,7.18-7.08l1.82-1.72,1.85-1.63L38.86,208c9.93-8.48,20.08-15.77,29.69-22.8,10.24-7.05,19.63-13.73,27.67-20.64,1.06-.84,2-1.72,2.94-2.6l2.84-2.61c1-.86,1.75-1.77,2.64-2.65l2.58-2.65a63.27,63.27,0,0,0,7.71-10.27c.54-.84.91-1.67,1.38-2.48s.81-1.62,1.08-2.39a23.68,23.68,0,0,0,1.36-4.31,15.17,15.17,0,0,0,.36-3.48,11.72,11.72,0,0,0-.39-2.6,15.24,15.24,0,0,0-2.69-4.92,16.63,16.63,0,0,0-5-4.21,20.06,20.06,0,0,0-8.88-2.05,25.47,25.47,0,0,0-5.38.49,26.16,26.16,0,0,0-5.21,1.65c-.4.19-.8.34-1.22.58l-.64.31a.43.43,0,0,0-.11.08l-.35.28c-.23.18-.46.35-.7.51-.45.4-.92.71-1.37,1.1a58.3,58.3,0,0,0-5.5,4.91,2.56,2.56,0,0,1-2.77,1,9.14,9.14,0,0,1-4.22-2,8.55,8.55,0,0,1-3.26-5,6.17,6.17,0,0,1-.46.43l-1,.43a5,5,0,0,1-3.46.05l-1.66-.42c-2.92-1.12-5.93-1.22-9-2.29l-.81-.87h-.41a6.4,6.4,0,0,1-3.43-.64L50.07,117a13.13,13.13,0,0,1-3-3.7,5,5,0,0,1-1.27-1.23,6.78,6.78,0,0,1-4-2.4.93.93,0,0,1-1-.93,1.18,1.18,0,0,1,.14-.58h0a8.16,8.16,0,0,0-1-.06c-.33.24-.54.37-.54.37-.81.7-.81.7-1.54,1.31a5.42,5.42,0,0,1-1.71.39c-2.61-.67-2.62-.65-3.46-1.37-.06-.11-.11-.21-.16-.32-.72.41-.77.44-1,.54a2.56,2.56,0,0,1-.55.07c-.52-.29-.52-.29-.77-.3a2.75,2.75,0,0,1-.39-.21c-.32-.7-.32-.7-.47-.81a2.19,2.19,0,0,1-.14-.37c.11-.53.16-.73.18-.82l1.87,0-.31-.48.72.18L31,106l.62-.22-.81.19a7.2,7.2,0,0,0,1.2-1.33,2.52,2.52,0,0,0,.53-.89,1.63,1.63,0,0,1-.3-.16c1-.95,1-1,2-1.83a4.42,4.42,0,0,1,.52,0,.64.64,0,0,1,.22-.64l.51-.47,0-.17,0,0c0-.26.08-.44.12-.65l0-.14h0l.66-2.77a8.84,8.84,0,0,1,1-.69l-.44.07c-.3,0-.6-.48-.71-.42a35,35,0,0,0-7.74,6,1.12,1.12,0,0,1-1.31.58.89.89,0,0,1-.22-1.31,20.89,20.89,0,0,1,5.19-9.86,27.2,27.2,0,0,1,9.29-6.56c1.6-1,3.14-2,4.76-3l-.39-.06,1.4-.55.13-.08-1.49-.12-.78.25c-3.63,2.39-7.64,3.89-11.36,6.27-2,1.28-4.07,2.08-6.06,3.3-.41.4-.95.47-1.23.15s-.14-.89.27-1.29C30.85,83.46,38,78,44.82,77.12a7.32,7.32,0,0,1,3.56-1.44l.06,0-1.17-.2c.94-.42,1.78-.17,2.71-.43L49,74.27c4.51-2.21,9.13-5.2,14.09-5.65a5,5,0,0,1,.52-.14A31.39,31.39,0,0,1,66,66.27l.66-.51c.08,0,.07-.05.23-.13l1.29-.54c.87-.35,1.73-.72,2.63-1a78,78,0,0,1,11.48-3.25c-1.37.26-2.73.51-4.09.79s-2.69.64-4,1-2.67.78-4,1.2L66.54,65l0,0,.22-.1.52-.21,1-.44c.69-.28,1.37-.58,2.07-.85,1.41-.51,2.83-1,4.27-1.51a79.74,79.74,0,0,1,8.82-2.27,75.8,75.8,0,0,1,45.21,4.95,72.52,72.52,0,0,1,12.11,6.89A67,67,0,0,1,158.42,90a62.16,62.16,0,0,1,5.14,10,53.1,53.1,0,0,1,4,17.51c.22,1.07.42,2.14.55,3.25s.29,2.18.38,3.29l.19,3.33c.07,1.12,0,2.18,0,3.28a62.74,62.74,0,0,1-.48,6.46c-.12,1.07-.33,2.1-.5,3.15s-.37,2.1-.63,3.1l-.75,3-.92,2.94c-.29,1-.64,1.94-1,2.87s-.72,1.88-1.1,2.8a85.5,85.5,0,0,1-5.27,10.33A104.23,104.23,0,0,1,145,182.59c-2.37,2.54-4.85,5-7.29,7.2L134,193.14c-1.22,1.13-2.49,2.1-3.74,3.16a317.32,317.32,0,0,1-30.42,21.79c-10,6.5-19.79,12.55-28.7,18.86a14.48,14.48,0,0,1-4.06,2.34c-.35-.09.71-1.15,2.52-2.48,12.6-9.35,27-18.11,41.59-28.31a254.8,254.8,0,0,0,21.68-17l5.23-4.86c1.74-1.67,3.48-3.47,5.16-5.3a109.92,109.92,0,0,0,9.52-11.93,101.86,101.86,0,0,1-8.14,9.88c-.71.77-1.43,1.53-2.16,2.26s-1.45,1.5-2.2,2.2L138,185.88l-2.24,2-4.5,3.93-4.6,3.66-2.3,1.82-2.34,1.7-4.67,3.41c-12.52,8.74-25.26,16.24-37.24,23.9l-4.53,3-4.44,3.05-4.32,3c-1.41,1-2.9,1.92-4.27,2.92l-5.14,3.91-4.85,4c-1.59,1.36-3,2.79-4.57,4.18l-1.13,1c-.37.35-.7.73-1,1.09l-.46.49-.23.26-.47.53c-.3.36-.75.75-1.08,1.15l-1,1.26a28.46,28.46,0,0,0-2,2.57,12,12,0,0,0-1.43,2.87A5.8,5.8,0,0,0,39,264.8a5.4,5.4,0,0,0,1.64,2.72,13.48,13.48,0,0,0,2.62,1.88,31.84,31.84,0,0,0,5.86,2.73c.5.19,1,.33,1.54.49l.77.24.46.11.63.17,1.4.4,1.43.33c.95.21,1.9.45,2.88.61a74.82,74.82,0,0,0,12,1.31,95.58,95.58,0,0,0,10.45-.25c3.47-.3,6.84-.71,10.27-1.35a141.91,141.91,0,0,0,20.22-5.35c13.41-4.54,26.65-10.77,41.13-17.82,10.19-5,20.39-9.93,31-14.38,5.29-2.22,10.68-4.31,16.19-6.17a124.05,124.05,0,0,1,17.64-4.79,59.83,59.83,0,0,1,21-.37,44.28,44.28,0,0,1,21,9.81,55.54,55.54,0,0,1,13.38,16.95A76.48,76.48,0,0,1,279.12,271c1.51,6.65,1.83,12.48,1.5,13.26s-1.24-3.56-2.54-10a81.59,81.59,0,0,0-6.38-19.3,54.75,54.75,0,0,0-13.32-17.5,43.36,43.36,0,0,0-9.91-6.45A42.75,42.75,0,0,0,237,227.53a60.14,60.14,0,0,0-21.48,1c-3.28.69-6.42,1.54-9.45,2.47s-5.9,1.9-8.81,2.93c-5.79,2.08-11.43,4.37-17,6.78-11.06,4.82-21.66,10.09-32.14,15.11s-20.85,9.76-31.38,13.6a142.62,142.62,0,0,1-31.88,8,87.91,87.91,0,0,1-31.51-1.88l-1.86-.54c-.51-.14-.9-.23-1.28-.36-.77-.27-1.56-.48-2.32-.79s-1.53-.58-2.27-.93-1.49-.69-2.22-1.07-1.43-.8-2.14-1.22a17.47,17.47,0,0,1-2-1.39,6.81,6.81,0,0,1-2.7-4,7.24,7.24,0,0,1,.55-4.16,17.23,17.23,0,0,1,2.14-3.64c.87-1.11,1.76-2.18,2.64-3.26.42-.53,1-1,1.4-1.49s.68-.78,1.64-1.78c-.15,0-.29,0-.35,0-.26-.25.06-1.16,1-2.38-.49.46-1,.9-1.45,1.39L43,251.09c-.53.57-1.06,1.15-1.7,1.77-1.15,1.29-2.23,2.65-3.36,4a18.64,18.64,0,0,0-2.69,4.53,7.33,7.33,0,0,0-.29,5.19,8,8,0,0,0,2.33,2.87,19.58,19.58,0,0,0,3.13,2,40.37,40.37,0,0,0,6.67,3c1.13.42,2.29.73,3.43,1.06l.47.11.54.14,1.3.35c.87.24,1.77.39,2.65.6a79.46,79.46,0,0,0,10.9,1.55,100.72,100.72,0,0,0,11.28.2q5.7-.27,11.47-1.1a155.08,155.08,0,0,0,23.53-5.56,334.58,334.58,0,0,0,31.52-12c10.24-4.37,20.37-8.94,30.88-13.28,6.56-3,13.23-5.86,20.09-8.44,3.43-1.28,6.91-2.5,10.44-3.62a110.18,110.18,0,0,1,11.09-2.95,63.84,63.84,0,0,1,12.1-1.37,43.5,43.5,0,0,1,12.94,1.69c1.09.28,2.15.71,3.22,1.08s2.11.86,3.11,1.4a39.66,39.66,0,0,1,5.74,3.51A45.92,45.92,0,0,1,263,247a15.79,15.79,0,0,1,1.79,2.7c.19.46-.27-.1-1.08-1.19a45.56,45.56,0,0,0-13.12-12,38.12,38.12,0,0,0-8.55-3.74,40.53,40.53,0,0,0-9-1.56,59.42,59.42,0,0,0-17.09,1.61c-2.69.61-5.31,1.34-7.87,2.14-1.29.39-2.53.81-3.78,1.23s-2.49.86-3.73,1.3c3.25-.77,5.28-.9,5.16-.41s-2.43,1.68-6,3.23c4.46-1.52,8.94-3,13.65-4.12,2.9-.7,5.29-.95,5.24-.7s-2.33.86-5.06,1.53a203.78,203.78,0,0,0-27.17,9.36C177.57,250,169,254,160.51,258c-10.12,5-20.14,9.93-30.36,14.28a192.4,192.4,0,0,1-31.36,10.63,31.49,31.49,0,0,1,6.53-.27h0c3.31-.94,6.61-1.92,9.85-3,14.83-5.37,29.09-12.5,43.51-19.68s29.1-14.42,44.78-19.78c7.79-2.65,16-5.07,24.86-5.3a38.71,38.71,0,0,1,13.29,1.88,34.46,34.46,0,0,1,11.76,6.79c6.8,5.93,11.37,13.84,14.11,22s4,16.6,5,24.78a8.62,8.62,0,0,1,.14,2.38,6.48,6.48,0,0,1-.44-2.09c-1.27-9.86-2.75-20.08-6.91-29.73a49.79,49.79,0,0,0-8.41-13.37,36.76,36.76,0,0,0-13-9.53l.08,0c.78.41.88.57,0,.26s-2.39-.86-3.19-1.2-.82-.43,0-.27A40.78,40.78,0,0,0,226,235.31a72.47,72.47,0,0,0-14.14,2.59,212.29,212.29,0,0,0-26.12,9.6c-16.88,7.37-32.81,16.1-49.08,23.61,15.23-6.73,30.09-14.51,45.52-21.26a245.34,245.34,0,0,1,23.65-9.07,106.55,106.55,0,0,1,12.37-3.27,54.93,54.93,0,0,1,13-1,35.72,35.72,0,0,1,11.51,1.92,12.48,12.48,0,0,1,2.63,1.33c.22.22-.51-.09-1.54-.49a31.35,31.35,0,0,0-3.09-1.07,25.24,25.24,0,0,1,7.46,3.89c1.67,1.3,2.46,2.29,2.26,2.45-.62.24-5.14-3.11-11.52-4.82a38.11,38.11,0,0,0-13.07-1,70.93,70.93,0,0,0-12.92,2.43A213.25,213.25,0,0,0,188.1,250c-1.74.75-3.46,1.56-5.19,2.35s-3.41,1.71-5.09,2.6c6.21-2.79,12.49-5.44,18.85-7.82,3.19-1.19,6.39-2.31,9.62-3.33s6.48-2,9.76-2.73c6.54-1.5,13.32-2.2,19.8-1a29.84,29.84,0,0,1,9.15,3.34,33.2,33.2,0,0,1,7.63,6.09,10.2,10.2,0,0,1,2.5,3.39c-.12.15-1.32-1.2-2.86-2.79A29.72,29.72,0,0,0,238,241.8a39.89,39.89,0,0,0-16.82,0,106.72,106.72,0,0,0-16.85,4.9c-5.57,2-11.07,4.3-16.52,6.73-21.79,9.74-42.8,22.07-66,30.88a178.58,178.58,0,0,1-23.23,8.47,123.39,123.39,0,0,1-25.25,4.47c1.1,0,2.2,0,3.31-.06S78.9,297.1,80,297c14.15-.95,27.12-4.57,39.14-9.06A313.69,313.69,0,0,0,153,272.27c10.79-5.62,21.31-11.38,32.2-16.58,5.44-2.59,11-5.05,16.68-7.26a119.33,119.33,0,0,1,17.48-5.52,8.39,8.39,0,0,1,2.37-.27c.14.06-.65.31-1.85.53A112.54,112.54,0,0,0,203,248.5c-5.51,2.12-10.87,4.51-16.17,7-10.6,5-21,10.7-32,16.43-9.15,4.74-18.25,9.28-27.53,13.28a199,199,0,0,1-28.55,9.95,176.79,176.79,0,0,0,28.75-9.37c9.12-3.81,17.84-8.08,26.38-12.44,17.05-8.7,33.5-17.79,51.14-24.27a30.3,30.3,0,0,1,4.13-1.29,3.34,3.34,0,0,1,.83-.42,70.14,70.14,0,0,1,14-4,10.58,10.58,0,0,1,2.61-.16C227.06,243.32,226.5,243.44,225.48,243.59ZM48.48,94l-.26,0,.67-.15,1.53.48Zm-3.14,10.67h0l-.89-.17Zm84.45,87c2.15-1.78,4.22-3.75,6.33-5.62s4.2-4,6.22-6.12a106.8,106.8,0,0,0,11.32-14.13,77.72,77.72,0,0,0,8.78-17.26,64,64,0,0,0,3.77-20.64,62.8,62.8,0,0,1-3,20.37,81.45,81.45,0,0,1-14.49,25.1,117.3,117.3,0,0,1-9.22,9.86c-.81.74-1.62,1.54-2.43,2.23l-2.43,2.1C133.06,189,131.46,190.41,129.79,191.69Zm-90-96.37a11,11,0,0,1,3.53,0,6.13,6.13,0,0,1,1.23-1.51,34.11,34.11,0,0,1,4.23-3.15c-.5-.22-.15-.45,0-.63l.41-.51-2.45,1.41L44.2,92.39C42.72,93.32,41.24,94.48,39.74,95.32ZM33.11,106.5l-.24,0-.41-.7Zm.74,1.15.23-.16C34.25,107.73,34.12,107.74,33.85,107.65ZM36,106.27a1.53,1.53,0,0,0-.52,0Zm18.46,11.64-2.53-2.79c.78.93,1.57,1.84,2.37,2.75Z"/><path d="M73.08,24.87l.26,0c0,.17-.16.28-.35.36,2.45,0,3.93-2.31,4.33-4.49a1.1,1.1,0,0,0-1.18-1.85,1.72,1.72,0,0,1-.44.06,8.48,8.48,0,0,0-3.68.26h.86a2.93,2.93,0,0,0-1,.4l.31.18a2.53,2.53,0,1,0,.26,5.06Z"/><path d="M76.93,26.32c-.79.11-1.58.18-2.37.24l-.23-.08.61.71,0-.06a4.52,4.52,0,0,1,1.24-2.62l.19-.32a.81.81,0,0,0-1.16-.91l-.45.24c-1.3.34-2.85,1.51-2.44,3.17.1.39.49.67.78,1a1.11,1.11,0,1,0,1.85-1.24l.33-.09-.06.32c-.19-.53.18-1,.34-1.45l.4-.5-1.16-.92-.14.35.15.08a9.72,9.72,0,0,1-.86,2l-.35.94a.67.67,0,0,0,.6.7l.49,0-.25,0c.9-.28,1.74-.7,2.64-1a.28.28,0,0,0,.21-.33A.27.27,0,0,0,76.93,26.32Z"/><path d="M74.6,28.36a.64.64,0,0,0-.5.14v.14l.37,0C74.73,28.69,74.73,28.52,74.6,28.36Z"/><path d="M74.1,28.64h-.16l.15.06v-.05Z"/><path d="M96,8.35a36.73,36.73,0,0,0,3.7-2s0-.1,0-.17-.13-.1-.16-.08a41.26,41.26,0,0,1-3.7,2s0,.1,0,.17S95.93,8.36,96,8.35Z"/><path d="M109.59,9a.24.24,0,0,0,.14.17c.06,0,.1,0,.09-.07a.3.3,0,0,0-.14-.17C109.61,8.88,109.58,8.92,109.59,9Z"/><path d="M113.63,14.67a1.89,1.89,0,0,0-.12.74c0,.05,0,.06-.07.05a.48.48,0,0,1,.13.32,15.23,15.23,0,0,1-2,4.47,1.82,1.82,0,0,1,.16.31c.13.34.09.61-.12.69l-.18,0c-.63.23-1.24.49-1.88.7a.79.79,0,0,1-.17.52,12.93,12.93,0,0,1-.59,2,.83.83,0,0,1,.26.24c.18.25.22.51.09.59l-.17.16.67-.22h.1a4.18,4.18,0,0,0,.57-.47,15,15,0,0,0,3.23-6c0-.06,0-.08.12,0a.22.22,0,0,1,.11.18c-.06,2,.31,4.3-.21,6a31,31,0,0,1-2.25,5.57c-1.47,1.13-2.36,2.77-3.51,4.35-.39.54-.79,1-1.21,1.52a1.65,1.65,0,0,1-.2.21l-.33.31-.68.61q-.68.62-1.35,1.2c-1.82,1.58-3.69,3.09-5.59,4.61a3.32,3.32,0,0,1-4.7,0,3.37,3.37,0,0,1-.94-2.89l-.37.26-.69.26a2.9,2.9,0,0,1-2,0l-.86-.3c-1.41-.75-3-1.06-4.35-1.93l-.25-.52L84,38a2.89,2.89,0,0,1-1.58-.73L82,36.72a6.67,6.67,0,0,1-.87-2.15,2.56,2.56,0,0,1-.43-.75,3.4,3.4,0,0,1-1.55-1.68.47.47,0,0,1-.24-.8h0l-.47-.19-.28.09-.82.33a2.21,2.21,0,0,1-.79-.12c-1.06-.75-1.06-.75-1.34-1.21a.9.9,0,0,1,0-.16l-.48.05a1.26,1.26,0,0,1-.24-.07c-.18-.22-.18-.22-.29-.27a1.27,1.27,0,0,1-.14-.17c-.06-.35-.06-.35-.11-.43a.94.94,0,0,1,0-.18c.09-.2.13-.27.15-.31l.79.33-.08-.26.28.21-.23-.21.28,0-.36-.07a2.17,2.17,0,0,0,.63-.35.87.87,0,0,0,.3-.29L75.58,28l1-.46.22.09a.23.23,0,0,1,.14-.24l.25-.13,0-.07v0c0-.1.06-.18.09-.26l0-.06h0c.07-.18.16-.44.41-1.13a3.16,3.16,0,0,1,.46-.16l-.19,0c-.13,0-.24-.29-.29-.29a17.44,17.44,0,0,0-3.59,1.35.43.43,0,0,1-.59,0,.42.42,0,0,1,0-.59A9,9,0,0,1,80,20.87l1.86-1-.17-.05.56-.16,0,0-.63-.15-.31,0a26.82,26.82,0,0,1-4.53,1.63,22.07,22.07,0,0,1-2.51.55.37.37,0,1,1-.38-.63c1.85-1.87,4.41-3.44,7.11-3.37a2.14,2.14,0,0,1,1.32-.44h0l-.49-.15c.35-.14.71,0,1.06-.07l-.45-.37c1.61-.8,3-2.09,4.81-2.44l.18-.07a8.61,8.61,0,0,1,.94-1.79l-.46.12a1.47,1.47,0,0,1,.52-.89,3.11,3.11,0,0,1,3.36.48A49.84,49.84,0,0,0,95.49,8.4c.06-.08.19,0,.31.09s.16.3.11.37a16.35,16.35,0,0,1-2.26,3.23,15.53,15.53,0,0,0,2.91-1.46l.29-.31a.68.68,0,0,1,.37-.18,13,13,0,0,0,3-2.76,28.87,28.87,0,0,0,1.94-3.13A12.4,12.4,0,0,1,105.13.08c.15-.18.5,0,.79.27s.4.74.26.92c-1.92,3.18-3.61,6.55-6.6,8.6l-1,.64.11.14a2,2,0,0,1,.32.56,9.5,9.5,0,0,1,1.2-.58,6.59,6.59,0,0,1,2.51-2.88,9.25,9.25,0,0,1,2.71-.63c.66-.85,1.28-1.76,2-2.59,0,0,.08,0,.14,0a.19.19,0,0,1,.08.19,13.48,13.48,0,0,1-1,2.4,2.26,2.26,0,0,1,.75.68,2.17,2.17,0,0,1,.43.94l.42-.29c.09-.05.25,0,.37.18s.16.34.08.4l-1.7,1.21c-.53.68-1.07,1.34-1.63,2a2.88,2.88,0,0,1,.77.6h0l.28-.26A14,14,0,0,1,111.26,7s.12,0,.17.07.08.16,0,.18a11.25,11.25,0,0,0-1.73,1.36h0a.27.27,0,0,1,.14.17c0,.07,0,.1-.09.08a.28.28,0,0,1-.14-.18A15.37,15.37,0,0,0,107.13,12a17.11,17.11,0,0,1,3-2.25c0-.17.07-.35.11-.52s.09,0,.15,0a.21.21,0,0,1,.07.19l0,.13c.2-.11.58.08.87.46s.35.81.15.94c-.46.47-.94.91-1.44,1.33l-.11.19,0,.31c.91-.47,1.85-.91,2.79-1.32.07-.06.21,0,.31.13s.14.29.07.35a28.22,28.22,0,0,1-3.34,4.41c0,.94,0,1.89-.07,2.82a.82.82,0,0,0,.2-.12c1.54-1.19,1.58-3.85,2.81-5.34,0-.05.1,0,.16,0s.08.15,0,.18a17.2,17.2,0,0,0-1.2,2.82,14.65,14.65,0,0,0-.9,2.4c1-1,1.55-2.6,2.43-3.79,0-.07.1-.07.19,0a.19.19,0,0,1,0-.11,2.32,2.32,0,0,1,.12-.78c0-.05.06-.05.14,0A.23.23,0,0,1,113.63,14.67Zm-30.49,11-.12,0h.3L84,26Zm-1.87,4.64h0l-.4-.18ZM95,12.14a4.59,4.59,0,0,1-2.15.9l.36-.42A16.77,16.77,0,0,1,95,12.14ZM79.26,25.42a5.91,5.91,0,0,1,1.54.39,2.21,2.21,0,0,1,.58-.56,18.38,18.38,0,0,1,1.85-1.1c-.22-.14-.07-.22,0-.29l.17-.21c-.69.32-1.4.63-2.13.94A16.4,16.4,0,0,1,79.26,25.42Zm-3.55,3.93-.1,0-.12-.37Zm.2.61.12,0C76.08,30.07,76,30.05,75.91,30ZM77,29.72a.7.7,0,0,0-.23-.06Zm7.06,8L83.23,36,84,37.67Z"/><path d="M190.79,268l.43.36a1.34,1.34,0,0,1-1.1,0,11.21,11.21,0,0,0,7.13,1.77,15.87,15.87,0,0,0,6.47-1.75c1.31.25,2.46-.3,2.59-1.22s-.85-1.88-2.18-2.18a4.38,4.38,0,0,1-.86-.48,26,26,0,0,0-6.93-4.41c.53.37,1,.72,1.57,1.11a8.38,8.38,0,0,0-2.38-.86l.32.59c-2.67-1.69-6.31-1.8-8-.06s-.87,4.69,1.78,6.35Z"/><path d="M195.77,274.34c-1.52-.74-3-1.56-4.49-2.42l-.31-.37.18,1.6,0-.1c1.29-1.24,3.53-1.6,5.59-1.81l.73-.17a1.11,1.11,0,0,0,.64-.74c.15-.71-.5-1.49-1.49-1.7l-1.12-.24c-2.77-1.13-7.15-1.7-8.51.93-.3.61.05,1.45.17,2.21a2.53,2.53,0,0,0,2.39,2.26c1.35.16,2.47-.56,2.52-1.61l.7.27-.52.34c.34-.89,1.56-1,2.46-1.41l1.37-.15-.86-2.46-.71.25a2.86,2.86,0,0,1,.16.28,24,24,0,0,1-4.09,1.4l-1.84.76a1,1,0,0,0,.19,1.63l.86.6-.4-.35c2,.69,4,1.15,5.87,1.82a.67.67,0,0,0,.81-.18A.47.47,0,0,0,195.77,274.34Z"/><path d="M189.05,274.27a1.76,1.76,0,0,0-1.07-.42l-.17.19.63.47C188.89,274.85,189.1,274.62,189.05,274.27Z"/><path d="M187.81,274l-.27-.2c.07.08.13.17.19.25l.05,0Z"/><path d="M301,266c-1-.54-2-1.06-2.9-1.62-.45-.27-1-.54-1.37-.81l-.89-.84-.45-.41-.64-.42L293.5,261a9.74,9.74,0,0,1-.85-.85l-.41-.42a5.78,5.78,0,0,0-.56-.44l-1.2-.88a7.87,7.87,0,0,1-.8-.88,14.49,14.49,0,0,0-2-1.84c-.52-.63-.95-1.22-1.39-1.87-.24-.33-.4-.64-.69-1l-1-1.05c-.07-.09-.17-.18-.23-.26l-.14-.27-.29-.52c-.2-.35-.39-.71-.56-1.09a7.48,7.48,0,0,0-.63-1.15,11.09,11.09,0,0,1-.78-1.24l-.43-1.26-.36-1.35-.29-1.46c-.15-.54-.37-1.09-.48-1.65s0-1.1,0-1.69a11.15,11.15,0,0,0,.05-1.85c0-.33,0-.66,0-1l.26-.94a19.4,19.4,0,0,1,.63-1.86c.23-.61.34-1.27.52-1.9a1,1,0,0,1,.19-.44l.26-.42.51-.84c.31-.56.54-1.13.81-1.7a3.17,3.17,0,0,1,.21-.41l.32-.36.63-.71c.94-.92,1.39-2,2.27-2.86a36.27,36.27,0,0,0,2.84-2.41l1.29-1.23c.45-.4.93-.77,1.39-1.16s.92-.77,1.4-1.14l1.55-1a69.78,69.78,0,0,1,6.22-3.61l3.06-1.54,1.46-.74.73-.37.37-.18a3.4,3.4,0,0,1,.46-.06l1.91-.22.95-.11.47-.06.36-.16,1.41-.64.71-.33c.12,0,.21-.13.37-.13h2.49a5.21,5.21,0,0,0,1.86-.18l1.64-.48.82-.24c.11-.07.34,0,.52,0l.56.05,2.24.16c.37,0,.75.07,1.12.08l1-.13,2.08-.27c.36,0,.66-.11,1.06-.12l1.18-.06a48.87,48.87,0,0,1,4.91-.09l2.62.07a26,26,0,0,0,2.64-.1,12.58,12.58,0,0,0,3.48-.48c0-.19-1.51-.26-3.27-.14-.89,0-1.79.12-2.68.14l-2.65-.08c-.86,0-1.8-.07-2.61,0l-2.38.12-1.19.06a7.61,7.61,0,0,0-1.13.09l-2.08.29a16.23,16.23,0,0,1-4.4,0l-1.13-.09a.94.94,0,0,0-.47.06l-.41.13-1.64.5-.82.26c-.31,0-.66,0-1,0l-2,0c-.32,0-.68,0-1,0l-.71.34-1.4.67a2.73,2.73,0,0,1-.74.3l-1,.11-1.91.23a3.68,3.68,0,0,0-.92.16l-.72.38-1.45.76-3,1.56c-1,.5-2.07,1.14-3.11,1.71s-2.07,1.24-3.1,1.92a20.52,20.52,0,0,0-3,2.13l-1.39,1.16c-.46.39-.87.82-1.3,1.23s-.83.84-1.32,1.24l-1.47,1.2-.37.29-.18.15-.13.19-.52.73a13.29,13.29,0,0,1-1.1,1.46l-1.26,1.44-.78,1.71c-.28.56-.66,1.12-1,1.68a1,1,0,0,0-.18.45l-.12.48-.23,1a12.47,12.47,0,0,0-1,3.76l0,1a8.92,8.92,0,0,1-.05.91A16.79,16.79,0,0,0,280,241c.53,2.33.82,4.15,1.39,5.81a4.17,4.17,0,0,0,.67,1.26l.42.62c.1.19.17.37.26.56.34.75.72,1.45,1.09,2.15a29.92,29.92,0,0,1,3,3.95,2.31,2.31,0,0,0,.47.47l.54.47a5.7,5.7,0,0,1,1,.92l.72.88a2.5,2.5,0,0,0,.54.44l.59.45a10.14,10.14,0,0,1,1.85,1.73c.62.57,1.75,1.14,2.36,1.7.87,1.12,3.06,2.24,5,3.32a13,13,0,0,0,2.53,1.1C302.66,266.88,302,266.48,301,266Z"/><path d="M320.38,94.21c-.19.89,0,.89.35,0a15.05,15.05,0,0,0,.55-1.43,15.57,15.57,0,0,0,.5-1.51c.19-.73,0-.77-.35,0a15.63,15.63,0,0,0-.65,1.5A11.79,11.79,0,0,0,320.38,94.21Z"/><path d="M329.69,103.68a35.58,35.58,0,0,0,1.38,11.6,10.43,10.43,0,0,1,.34,1.94c.19-.28.59.47,1.07,1.93,2.38,7.21,6.17,14.38,10.61,21.65.55.9,1.12,1.82,1.7,2.73l1.74,2.76,1.78,2.78.91,1.4.89,1.34c1.11,1.68,2.37,3.48,3.66,5.3s2.61,3.71,3.92,5.57a269.19,269.19,0,0,1,15.66,24.37,96.61,96.61,0,0,1,6.77,14.68,50.43,50.43,0,0,1,2.39,9.31,31.33,31.33,0,0,1-.43,12.79,10.92,10.92,0,0,1-.62,3.8,15.4,15.4,0,0,1-1,2.63,18.13,18.13,0,0,1-1.74,3,26.84,26.84,0,0,1-2.58,3.15,36.31,36.31,0,0,1-3.31,2.84,41.81,41.81,0,0,1-3.69,2.2l-.24.13-.17.07-.32.14-.65.28-1.33.54c-.89.35-1.81.71-2.75,1s-1.74.43-2.62.63l-1.32.28-.67.14c-.09,0-.26.06-.28.05h-.14l-1.08.07a23.64,23.64,0,0,1-6.66-.61c-2.22-.47-4.45-1.09-6.75-1.5a24.39,24.39,0,0,0-7-.36,26.72,26.72,0,0,0-6.9,1.9c-.28.29-.59.57-.89.9s-.65.63-1,1a13.24,13.24,0,0,0-2,2.47,5.1,5.1,0,0,0-.22,2.89,6.79,6.79,0,0,0,1.45,2.82,18.78,18.78,0,0,0,5.05,4A50.2,50.2,0,0,0,343.76,263c-.19-.13-.15-.21.16-.2a31.58,31.58,0,0,1,4.35.93l2.49.6a42.22,42.22,0,0,1-6.33-2,6.5,6.5,0,0,1-.72-.33,25.69,25.69,0,0,1-6.75-3.88,6.88,6.88,0,0,1-2.49-3.6,4.27,4.27,0,0,1,1.48-3.83,13.9,13.9,0,0,1,3.37-2.38c.59-.35,1.24-.58,1.86-.87a8.62,8.62,0,0,1,1-.32,5.81,5.81,0,0,1,1-.27c2.7-.61,5.45-.2,8.21.2a26.26,26.26,0,0,0,4.29.32,17,17,0,0,0,2.22-.2l1.12-.26.28-.06.79-.21,1.65-.45,1.64-.44c.28-.09.53-.13.83-.25l.91-.34c1.2-.47,2.4-1,3.59-1.46l.89-.38,1.39-.73c.93-.52,1.84-1.07,2.73-1.64s1.86-1.41,2.74-2.16c.44-.39.88-.78,1.3-1.18s.83-.89,1.23-1.35a32.5,32.5,0,0,0,2.25-2.89c.63-1,1.23-2.05,1.78-3.11a22,22,0,0,0,1.31-3.11,25.94,25.94,0,0,0,.91-3.07c.2-1,.38-1.92.53-2.89a11.84,11.84,0,0,0,.15-1.35l.09-1.29.06-1.29v-.65l0-.57q0-1.14-.12-2.28c0-.37-.05-.78-.09-1.11l-.15-1-.31-2c-.23-1.28-.52-2.44-.81-3.65s-.64-2.21-1-3.31l-1.08-3A95.75,95.75,0,0,0,377.55,189a187.87,187.87,0,0,0-11.09-17.85c-3.81-5.52-7.73-10.82-11.39-15.84a10.33,10.33,0,0,1-1.44-2.35c-.12-.46.09-.49.62.2,4.8,6.05,10,12.26,15,18.78,2.51,3.26,5,6.64,7.42,10.23A115.56,115.56,0,0,1,383.75,194a73.29,73.29,0,0,1,3.24,7.17c.26.62.49,1.38.73,2.06s.48,1.39.7,2.16a47.28,47.28,0,0,1,1.18,4.94l.24,1.35c.07.45.15.89.2,1.43.1,1,.19,2.07.25,3.11a16.3,16.3,0,0,1,0,1.73l-.06,1.8c0,.62,0,1.17-.13,1.85s-.2,1.37-.31,2.06-.25,1.38-.39,2.06-.41,1.5-.63,2.23-.5,1.51-.78,2.26c-.15.38-.28.74-.44,1.12l-.57,1.17a33.51,33.51,0,0,1-2.67,4.54,39.31,39.31,0,0,1-3.46,4.14,45.68,45.68,0,0,1-3.95,3.38,42.05,42.05,0,0,1-4,2.53l-1,.56-.39.19-.31.14-1.24.56-2.52,1.08a35.76,35.76,0,0,1-4.75,1.59l-2.17.63L360,252a10.18,10.18,0,0,1-3.72.65,19.37,19.37,0,0,0-3.81.17,5.72,5.72,0,0,0-3,1.65,4.53,4.53,0,0,0-1.56,3,2.9,2.9,0,0,0,.89,1.95,8.09,8.09,0,0,0,1.84,1.42,23.74,23.74,0,0,0,7.42,2.57c1.09.19,2.06.39,2.91.62.43.11.83.23,1.2.35l.28.1.14.05.9.53c1.21.72,2.34,1.35,3.72,2.25A86.08,86.08,0,0,1,382.78,280a52.8,52.8,0,0,1,3.48,4.12l.41.55a2.57,2.57,0,0,1,.24.35l.26.4,1,1.62a26.85,26.85,0,0,1,1.9,3.41,19,19,0,0,1,1.22,14.4c-.22.56-.42,1.13-.68,1.67s-.58,1.06-.89,1.58a15.89,15.89,0,0,1-2.32,2.73,8,8,0,0,1-1.35,1.19L384.62,313c-.53.29-1.06.58-1.61.85l-.82.41-.88.31c-.59.21-1.18.41-1.78.59s-1.24.28-1.87.41-1.26.22-1.9.31-1.3.11-1.95.14-1.32.05-2,.06l-1.63-.06L368.6,316l-.41,0-.28,0-.53-.05-17-1.39c-11.33-.91-22.66-1.86-34.12-2.52-5.73-.37-11.47-.72-17.29-.95s-11.66-.49-17.57-.55A425.17,425.17,0,0,0,234.55,312l-2.85.25-1.42.15-.29,0-.9.16-1.8.3-3.56.57c-2.37.34-4.73.74-7,1.18s-4.66.83-7,1.27c-3.47,1.06-6.6-.21-7.11-3.08a5.59,5.59,0,0,1,1.92-4.88l-.86.1-1.37-.15a4.65,4.65,0,0,1-3.14-1.66l-1-1.11c-1.33-2.19-3.49-4-4.67-6.43l.19-1-.26-.26a4.41,4.41,0,0,1-1.73-2.52l0-1.2a10.31,10.31,0,0,1,1.1-3.93,3.63,3.63,0,0,1,.18-1.47,5,5,0,0,1-.59-3.89.72.72,0,0,1,.08-1.17,1.08,1.08,0,0,1,.5-.18h0a7.81,7.81,0,0,0-.57-.74c-.37-.11-.58-.19-.58-.19-1-.22-1-.22-1.83-.43a5.18,5.18,0,0,1-1.23-1c-.93-2.2-.94-2.21-.87-3.15a2.15,2.15,0,0,1,.14-.26c-.67-.34-.72-.37-.9-.48a2.27,2.27,0,0,1-.33-.38c-.06-.51-.06-.51-.19-.7a1.81,1.81,0,0,1,0-.39c.33-.54.33-.54.33-.71a1.66,1.66,0,0,1,.19-.26l.66-.22,1,1.37.18-.44.24.61-.15-.56.49.36-.56-.51a5.22,5.22,0,0,0,1.55.27,2.06,2.06,0,0,0,.89,0,2.2,2.2,0,0,1-.05-.29l2.34.57a2.93,2.93,0,0,1,.28.36.52.52,0,0,1,.55-.16l.6.12.13-.07v0l.49-.22.11-.05h0c.72-.31,1.44-.64,2.16-.93.36.1.69.21,1,.33a3.47,3.47,0,0,1-.29-.25c-.19-.18,0-.62-.14-.67a53.72,53.72,0,0,0-8.07-2.5,1.05,1.05,0,0,1-1.06-.69c-.09-.4.25-.73.75-.74a19.08,19.08,0,0,1,8.94-.91,34.49,34.49,0,0,1,9,2.53c1.48.36,2.93.79,4.4,1.14l-.21-.23,1.14.46.12,0-.85-.86-.59-.3a88.26,88.26,0,0,1-9.94-3.55c-1.83-.66-3.4-1.66-5.16-2.47-.45-.1-.77-.43-.73-.77s.46-.5.9-.41a40.46,40.46,0,0,1,8.93,1.41,23.52,23.52,0,0,1,7.91,3.63,6.76,6.76,0,0,1,2.81,1.08h0l-.62-.7c.76.26,1.16.82,1.85,1.13-.07-.27-.16-.58-.23-.86,1.88.52,3.84.88,5.73,1.37a26.4,26.4,0,0,1,5.45,1.8,2.67,2.67,0,0,1,.4.13,21.21,21.21,0,0,1,2.3-.38l.6,0h.19l.95.14,1.91.3c2.56.38,5.2.79,7.93,1.26l-5.5-1.08-2.75-.54-2.59-.54,5.8.83,6,.91c4,.72,8.06,1.41,12.26,2.24,5.65,1.22,11.49,2.33,17.16,3.68s11.28,2.57,16.52,3.85c10.47,2.5,19.54,4.89,25.34,6.56,10.77,2.07,21.52,4.07,32.27,5.93,5.37.89,10.75,1.82,16.12,2.61l4,.61,2,.29,1.26.12a1.79,1.79,0,0,0,.44,0h.37a5.83,5.83,0,0,0,.72-.06,4.46,4.46,0,0,0,1.39-.41,2.4,2.4,0,0,0,1.41-2.33,5.2,5.2,0,0,0-1-2.68l-.24-.33a3.86,3.86,0,0,0-.35-.43l-1.09-1.2-1.2-1.18c-.4-.39-.87-.76-1.3-1.13a43.07,43.07,0,0,0-5.87-4.08,59,59,0,0,0-6.59-3.35,13.07,13.07,0,0,0-1.87-.69l-2-.64-6.53-2.09c-.3-.09-.56-.2-.89-.27l-1.1-.18-2.21-.34-4.43-.7c-1.42-.2-3.12-.56-4.71-.85l-4.85-.93L327,276l-2.13-.62-4.25-1.23-2.13-.62-1.07-.31c-.36-.1-.61-.2-.91-.31l-3.53-1.24-2.75-1-1.22-.45a5.88,5.88,0,0,1-.7-.39c-.8-.47-1.28-.82-1.3-.95s.61.07,1.44.39c.42.15.91.36,1.45.59a11.19,11.19,0,0,0,1.12.41l1.38.47,5,1.71,1.26.43,1.5.43,3,.85,3,.85a26.08,26.08,0,0,0,3.11.79l6.74,1.29c2.32.47,4.3.76,6.36,1.1l3.08.49,1.53.25a3.14,3.14,0,0,1,.67.16l.61.2,8,2.59c.47.16,1,.31,1.41.48l1.23.56c.82.38,1.67.72,2.45,1.15s1.61.81,2.38,1.25L366,286.7a37,37,0,0,1,7.91,6.43l.77.86.4.55a7.56,7.56,0,0,1,.65,1.06,4.86,4.86,0,0,1,.62,2.36,2.77,2.77,0,0,1-1.07,2.14A4.71,4.71,0,0,1,373,301a8.75,8.75,0,0,1-1.25.08,1.42,1.42,0,0,1-.35,0l-.49,0c-.32,0-.64-.06-1-.08l-5.86-.84c-3.91-.56-7.83-1.17-11.74-1.8,3.26.55,6.53,1.14,9.8,1.63l4.91.78,2.46.38c.47.07.67.07,1,.1l.83.1a1.68,1.68,0,0,0,.35,0h.83a10.67,10.67,0,0,0,1.12-.13,4.59,4.59,0,0,0,2.07-.84,3,3,0,0,0,1.12-1.9,4.63,4.63,0,0,0-.27-2.24,8.9,8.9,0,0,0-1.09-2.06c-.13-.18-.22-.33-.39-.54l-.68-.78c-.43-.53-.95-1-1.45-1.55a42.82,42.82,0,0,0-7.05-5.5,59.14,59.14,0,0,0-8.28-4.37c-1.71-.62-2.78-1-5.83-2.06l-1.95-.66-1-.33a5.07,5.07,0,0,0-1.05-.3l-4.88-.9-2.5-.45c-.84-.15-1.79-.36-2.68-.54L332.26,275l-1.37-.28c-.45-.1-.82-.23-1.24-.35l-2.43-.71-4.88-1.43c-1.48-.47-2.74-.93-4.11-1.4l-4-1.4L309,266.93c-2.12-.94-4.17-1.88-6.07-2.89a11.82,11.82,0,0,1-2.35-1.5c-.69-.51-1.78-1-2.53-1.56l-1-.78c-.17-.13-.3-.26-.5-.4l-.62-.41-1.25-.82-.88-.83-.45-.41-.57-.44-1.17-.88c-.54-.59-1.11-1.16-1.62-1.78-.28-.31-.5-.6-.83-.93l-1-1-.26-.25-.18-.25-.35-.5c-.24-.34-.48-.68-.7-1s-.4-.69-.71-1.09l-.9-1.19-.55-1.21c-.18-.41-.32-.86-.49-1.29s-.27-.92-.42-1.38-.35-1-.52-1.53a2.25,2.25,0,0,1-.14-.8l-.06-.81v-1.71l-.05-.93,0-.47a2.39,2.39,0,0,1,.09-.45,14.16,14.16,0,0,1,.5-1.77,15.33,15.33,0,0,0,.56-1.78c.09-.3.16-.6.26-.89l.48-.79.48-.79.41-.79a4.69,4.69,0,0,1,.94-1.5c.4-.45.82-.9,1.2-1.34l1-1.35a5.49,5.49,0,0,1,1.29-1.2c.47-.37,1-.74,1.4-1.11.86-.75,1.67-1.55,2.58-2.26l1.36-1.06a10,10,0,0,1,1.41-1l3-1.84,3-1.6c1-.54,2-1,3-1.43l2.91-1.32.73-.33a5.84,5.84,0,0,1,.88-.12l1.82-.2.91-.1a3.91,3.91,0,0,0,.73-.25l1.4-.55.71-.28c.28,0,.62,0,.93,0h2.85l.8-.21,1.6-.41.4-.11a1,1,0,0,1,.45,0l1.07.07,2.14.15a8.14,8.14,0,0,0,2.05-.12l2-.25a10.73,10.73,0,0,1,1.07-.09l1.14-.06,2.27-.13c1.38,0,2.85,0,4.26,0a19.45,19.45,0,0,0,2.15-.1l2.15-.17c1.4-.15,2.92-.1,4.4-.11h2.22c.24,0,.21,0,.3-.09l.18-.12.35-.26,1.33-.95a7.77,7.77,0,0,1,.91-.54l.12-.05,0,0h0c1.35,2.89-3-6.47,3,6.48v0l0,.09a5.4,5.4,0,0,0,.33.74,6.15,6.15,0,0,0,.44.73c.15.24.38.52.4.58a3.44,3.44,0,0,0,.56.7l.09.08h0l0,.05,0,0,0,0-.07,0-.28-.18-.26-.12-.06,0-.16-.08L357,217a4.1,4.1,0,0,0-.64-.23l-.31-.09a1.42,1.42,0,0,1-.38-.1,10,10,0,0,0-2-.44l-.49,0-.7-.12c-.47-.07-.93-.12-1.39-.15-1-.08-1.69,0-3-.07h-1s-.05-.17-.06-.25a31.52,31.52,0,0,0-1.73-5.33c-.94-2.36-2.21-5-3.62-7.68s-3-5.5-4.66-8.35c-3.35-5.74-7.12-11.64-11.19-18.21-1.43-2.34-2.88-4.7-4.43-7.4l-.58-1-.49-.9-1-1.78-1.95-3.64c-2.59-4.91-5.14-10.07-7.42-15.6a105.91,105.91,0,0,1-5.69-17.82,74.8,74.8,0,0,1-1.71-20.4c.16-1.79.33-3.57.56-5.34s.63-3.55,1-5.31a63.62,63.62,0,0,1,3.33-10.19,70.07,70.07,0,0,1,10.57-17.1,83.61,83.61,0,0,1,13.62-12.93,111.08,111.08,0,0,1,14.87-9.43c5.33-2.9,10.41-4.77,11.25-4.71s-2.71,2.08-7.94,4.92c-2.54,1.4-5.09,2.9-7.61,4.53s-5,3.35-7.5,5.26a89.36,89.36,0,0,0-7.24,6.17,85.08,85.08,0,0,0-6.67,7.21,68.26,68.26,0,0,0-10.59,17.76,59.43,59.43,0,0,0-3.08,10.53c-.3,1.81-.69,3.63-.81,5.44l-.25,2.74c-.09.91-.05,1.8-.08,2.71a75.42,75.42,0,0,0,2.67,20.58,114.41,114.41,0,0,0,6.51,17.85c2.51,5.53,5.23,10.72,7.93,15.66l1,1.86,1.16,2,2.26,3.81c1.49,2.45,2.94,4.8,4.38,7.11,2.85,4.62,5.64,9.11,8.21,13.55s4.94,8.85,6.88,13a63.58,63.58,0,0,1,2.39,5.94,21.1,21.1,0,0,1,1.09,4.31c0,.23,0,.27,0,.42s0,0,0,0h0l.27,0a15.92,15.92,0,0,1,2.15.25,15.24,15.24,0,0,1,1.59.22c.26.06.53.12.79.2l.39.13c.15.05.18,0,.27.06a5.59,5.59,0,0,1,1,.32l.47.23.2.08a2.24,2.24,0,0,1,.43.26c.06,0,0,0,0,0l0,0,0,0,0,0s0,0,0,0l-.14-.13a3.48,3.48,0,0,1-.44-.54c-.08-.1-.07-.14-.19-.3s-.27-.37-.39-.55a7.11,7.11,0,0,1-.58-1.13l-.11-.28c-3.29-7-.93-1.94-1.67-3.51h0l-.05,0-.23.1-.46.22c-.3.15-.58.29-.91.49l-1.23.71L351,213l-.15.09a1.68,1.68,0,0,1-.35,0h-.79l-3.15,0c-2.07,0-4.07.3-6.1.3s-4.09-.12-5.85,0l-1.39,0c-.46,0-.93,0-1.32.06l-2.48.2a12.76,12.76,0,0,1-2.6-.11l-1.32-.12-.66-.06a1.89,1.89,0,0,0-.55.06,14.7,14.7,0,0,1-4.37.44l-1.21,0a2.73,2.73,0,0,0-1.1.09l-1.86.56a8.23,8.23,0,0,1-2.18.31l-1.17.1-.59,0-.29,0-.24.09c-1.3.5-2.53.93-3.89,1.49l-2,.81c-.67.29-1.34.63-2,1s-1.36.61-2,1l-2,1.14a30.29,30.29,0,0,0-3.78,2.52c-1.22.92-2.24,1.91-3.55,2.85s-2.14,2.12-3.25,3.25a7.31,7.31,0,0,0-1.47,1.83l-.56,1-.65,1a5.72,5.72,0,0,0-.78,1.93c-.2.68-.47,1.33-.67,2-.5,1.3-.17,2.83-.23,4.06a15.69,15.69,0,0,0,.2,1.84c.21.58.47,1.23.64,1.74a18.18,18.18,0,0,0,1.21,3,17,17,0,0,0,1.82,2.64,24.78,24.78,0,0,0,1.77,2.31l1.21,1.11c.38.36.66.69,1,1s.65.67,1,1a6.82,6.82,0,0,0,1.11,1,.14.14,0,0,1,.17-.09,4.06,4.06,0,0,1,1.17.41c.27.12.57.26.9.43s.7.36,1,.55a27.52,27.52,0,0,1-2.81-2.14c-.4-.36-.79-.73-1.18-1.12s-.74-.75-1.24-1.18a13.78,13.78,0,0,1-2.34-2.55c-.34-.45-.64-.87-1.08-1.39l-.61-.75a5.49,5.49,0,0,1-.46-.76,18.23,18.23,0,0,1-1.47-3.35l-.38-1a3,3,0,0,1-.28-1l-.14-1,0-1.08,0-1.14a3.16,3.16,0,0,1,.05-1.15l.27-1.12.39-1.11c.29-.72.45-1.49.8-2.18s.87-1.31,1.24-1.94l.38-.68a2.53,2.53,0,0,1,.43-.65l1.07-1.15c.72-.75,1.26-1.56,2-2.25s1.7-1.28,2.44-1.92,1.51-1.31,2.34-1.88l1.23-.89a10.22,10.22,0,0,1,1.26-.84l2.65-1.53c.89-.52,1.8-.89,2.7-1.34.45-.21.9-.44,1.35-.64l1.35-.55c.9-.35,1.81-.74,2.67-1l1.3-.49a3.85,3.85,0,0,1,1.41-.35c1-.1,2.14-.15,3.11-.3l2.56-.74c1,0,2.16,0,3.24,0h.41l.35-.06.71-.13,1.42-.25a2.89,2.89,0,0,1,.74-.09l.91.07,1.8.16.91.08a8.27,8.27,0,0,0,.86-.05l1.7-.13c1.09-.11,2.41-.13,3.67-.16.65,0,1.25-.05,1.94,0l2.08,0,2.09,0,2.11-.14c1.41-.1,2.82-.2,4.3-.2l2.2,0h1s0,0,.06,0l.45-.25,1.77-1a14.1,14.1,0,0,1,1.36-.65l.17-.08.09,0c2.61,5.61.73,1.57,1.32,2.83v0l0,0,0,.1a7.49,7.49,0,0,0,.38.81c.28.53.79,1.16.85,1.3a3.4,3.4,0,0,0,.3.39l.26.26a.3.3,0,0,0,.1.09,2.54,2.54,0,0,0-.61-.34,1.75,1.75,0,0,1-.27-.13l-.36-.16a5.31,5.31,0,0,0-.71-.23l-.35-.08c-.19-.07-.39-.13-.58-.18a9.36,9.36,0,0,0-1.14-.26l-.56-.07-.28,0h-.14l-.2,0-.78-.12-.64-.08c0,.09,0-.24,0-.45s-.05-.4-.06-.6,0-.19,0-.31l-.08-.4-.13-.8-.22-.94-.1-.47-.15-.51-.29-1-.71-2.23a129.44,129.44,0,0,0-5.7-13.26c-2.2-4.51-4.57-9-7-13.58s-4.93-9.09-7.46-14l-1-1.88-1-2-1.7-3.62c-1.14-2.44-2.27-4.91-3.37-7.45-1.56-3.14-3.12-6.31-4.53-9.66-.73-1.64-1.37-3.39-2.05-5.08s-1.28-3.47-1.82-5.3a84.43,84.43,0,0,1-2.74-11.2l-.41-3-.2-1.48-.11-1.5-.19-3v-3.07a56.09,56.09,0,0,1,5.71-23.85A70.58,70.58,0,0,1,330,66.47a13.3,13.3,0,0,1,2.2-1.9c.4-.21,0,.3-.85,1.17a75.52,75.52,0,0,0-9.89,12.32,61.42,61.42,0,0,0-7,15.08,56.49,56.49,0,0,0-2.31,17,68.34,68.34,0,0,0,2.39,16.45,17.47,17.47,0,0,1,0-4.08c.12-1,.36-1.44.71-1.37.74.13,1.72,2.6,3.14,6.21a66.86,66.86,0,0,1-2.25-14.07,20.19,20.19,0,0,1,.11-3.79c.11-.95.26-1.51.42-1.47s.33.65.43,1.59.14,2.23.26,3.61c.52,9.67,3.43,18.76,7,27.17,1.78,4.22,3.75,8.31,5.8,12.28q1.54,3,3.12,5.91L334,160l.84,1.51,1.69,2.95c5.66,9.09,11.41,17.68,16.39,26.61a120.39,120.39,0,0,1,6.6,13.47,53.35,53.35,0,0,1,2.18,6.71,18.62,18.62,0,0,1,.59,6c.14-.48.37-.91.51-1.38s.28-.93.43-1.35a8.1,8.1,0,0,1,.8-2.1h0a46.85,46.85,0,0,0-2.53-8.68,151.24,151.24,0,0,0-10.38-19.15c-3.88-6.28-8-12.46-12.14-18.84-2.06-3.16-4.1-6.61-5.95-9.88s-3.73-6.7-5.49-10.16-3.38-7.07-4.86-10.75a92.8,92.8,0,0,1-3.66-11.5,64.66,64.66,0,0,1-1.7-12.26,52.65,52.65,0,0,1,1.08-12.56,50.53,50.53,0,0,1,4.17-11.87,61.64,61.64,0,0,1,6.55-10.47,85.16,85.16,0,0,1,17.39-16.62,202.51,202.51,0,0,1,19.75-12.52,8.46,8.46,0,0,1,2-1,6.73,6.73,0,0,1-1.65,1.12c-8,4.66-16.12,9.53-23.58,15.56a73.93,73.93,0,0,0-18.95,22l0-.07c.46-.67.67-.72.33.09A28.71,28.71,0,0,1,323,87.68c-.5.79-.6.65-.35-.06A50.64,50.64,0,0,0,318.09,115a82.49,82.49,0,0,0,7.71,25.82c1.85,4,3.86,7.86,5.95,11.63,1.06,1.88,2.11,3.75,3.19,5.59.52.92,1.09,1.86,1.65,2.81l1.72,2.76c4.61,7.24,9.32,14.15,13.68,21.24-3.87-6.69-8.05-13.23-12.17-19.95-1-1.69-2.05-3.38-3.05-5.13s-1.92-3.45-2.87-5.19c-1.89-3.46-3.71-7-5.43-10.6a119.84,119.84,0,0,1-4.66-11.11c-.71-1.88-1.29-3.84-1.89-5.78s-1.05-3.93-1.41-6a52.38,52.38,0,0,1,.65-24.57,50.14,50.14,0,0,1,3.49-10.29A10.37,10.37,0,0,1,326.11,84c.24-.18,0,.5-.47,1.41s-.86,1.81-1.25,2.74c2.74-5.61,6.14-9,6.57-8.57.4.7-2.22,5.11-4.67,10.73A44.77,44.77,0,0,0,323,102.13a47.24,47.24,0,0,0-.13,12.23,68.61,68.61,0,0,0,2.54,12,104.11,104.11,0,0,0,4.36,11.45c.76,1.6,1.56,3.17,2.39,4.74s1.84,3.05,2.78,4.56a136.61,136.61,0,0,1-7.52-17.39,66.77,66.77,0,0,1-3.66-18.29,45.76,45.76,0,0,1,2.91-18.09,57.72,57.72,0,0,1,9.36-15.85c1.32-1.66,2.67-2.89,2.86-2.77s-.79,1.52-2.08,3.17c-6.46,8.58-10.82,18.72-10.71,29.08a51.37,51.37,0,0,0,2.36,15.42,93.82,93.82,0,0,0,6,14.9c2.4,4.87,5.13,9.66,8,14.45,1.44,2.45,2.81,4.7,4.32,7l4.62,7c3.11,4.73,6.24,9.53,9.23,14.49a161.77,161.77,0,0,1,8.42,15.53,68.73,68.73,0,0,1,5.24,11.29,36.76,36.76,0,0,1,1.72,6.84,24.39,24.39,0,0,1-.27,8.61,19.38,19.38,0,0,1-7.41,11c-.71.48-1.43.94-2.17,1.38-.42.25-.64.34-.92.49l-.83.4-1.67.79c-.56.25-1.13.55-1.68.74l-1.62.55-1.62.55-.41.14-.2.06-.12,0-.48.14c-.64.17-1.27.39-1.9.51l-1.87.34,2-.05c.66,0,1.32-.16,2-.24a21.21,21.21,0,0,0,2.34-.53c.92-.25,1.8-.42,2.74-.73l2.86-1.1,1.42-.57.18-.08.25-.12.49-.26,1-.54a16.91,16.91,0,0,0,1.89-1.19c.64-.49,1.26-1,1.86-1.51a12.77,12.77,0,0,0,1.69-1.75,21,21,0,0,0,1.51-1.93,21.49,21.49,0,0,0,2.15-4.21c.25-.71.51-1.44.71-2.13s.29-1.34.41-2l.18-1c0-.32.05-.62.08-.93l.11-1.86c0-1.21-.06-2.28-.12-3.41s-.27-2.07-.42-3.09l-.61-2.84a63,63,0,0,0-3.47-9.82c-1.32-3-2.76-5.8-4.25-8.49s-3.05-5.27-4.63-7.79c-3.17-5-6.47-9.8-9.77-14.46s-6.65-9.22-9.54-13.6c-3.05-4.7-6-9.37-8.65-14.16a98.85,98.85,0,0,1-6.85-14.79,53.89,53.89,0,0,1-3.14-15.76,5.22,5.22,0,0,1,0-1.4,1.6,1.6,0,0,1,.21-.69c.15-.11.23.62.24,1.69a52.28,52.28,0,0,0,3,15.15,90.29,90.29,0,0,0,6.54,14.24c2.56,4.64,5.43,9.19,8.43,13.84l1.12,1.73,1.1,1.63,2.33,3.36q2.44,3.47,4.93,7A283.09,283.09,0,0,1,371,189.73a93.72,93.72,0,0,1,6.51,14.11c.24.63.44,1.35.65,2s.43,1.35.6,2.1l.53,2.21.4,2.4a27.94,27.94,0,0,1-.69,11.66,28.32,28.32,0,0,0,1-11.85,45.49,45.49,0,0,0-2-8.88,88.34,88.34,0,0,0-6.15-14.16,245.36,245.36,0,0,0-14.79-23.63c-2.53-3.69-5.11-7.34-7.46-10.84l-1.69-2.57-1.75-2.78c-1.14-1.84-2.28-3.69-3.37-5.53-4.37-7.35-8.3-14.77-10.68-22.43a11.09,11.09,0,0,1-.54-2,14,14,0,0,1-.23-1.63,1.53,1.53,0,0,1-.38-.72,39,39,0,0,1-1.88-12.34,7.32,7.32,0,0,1,.39-2.26C329.62,102.25,329.7,102.77,329.69,103.68ZM207.15,280.4l-.15-.16.52.29.72,1.09Zm-9,3.69h0l-.43-.64ZM374.2,301.41a8.92,8.92,0,0,1-1.71.24h-.86c-.3,0-.79-.09-1.17-.11l-.63-.06-.88-.12-1.76-.26-3.51-.54c-4.68-.68-9.35-1.49-14-2.28-9.32-1.62-18.6-3.36-27.87-5.28l13.61,2.42q10.54,2,21.13,3.83c3.53.62,7.06,1.15,10.59,1.73l2.66.42,1.82.2A9.84,9.84,0,0,0,374.2,301.41ZM201,275.9a12.41,12.41,0,0,1,2.13,2.16,6,6,0,0,1,1.69,0c1.55.18,3.06.4,4.54.7-.19-.39.16-.31.35-.34l.55,0-4.79-1.22A42.8,42.8,0,0,1,201,275.9Zm-11.17,1a1.07,1.07,0,0,0-.14-.16l.27-.62S189.86,276.4,189.79,276.85Zm-.41,1,.23.1C189.54,278.22,189.47,278.13,189.38,277.89Zm2.15.87a1.93,1.93,0,0,0-.32-.35A4.61,4.61,0,0,0,191.53,278.76Zm2.28,18.18.63-3.15-.71,3Z"/></g></g></svg>