<svg xmlns="http://www.w3.org/2000/svg" viewBox="0 0 420.21 306.78"><g id="Layer_2" data-name="Layer 2"><g id="Layer_1-2" data-name="Layer 1"><path d="M25.47,99.07c.2-.07.41-.12.61-.18a1.71,1.71,0,0,1-.69,1.15,15,15,0,0,0,6.41-5.93A26.14,26.14,0,0,0,35,86c1.23-1.1,1.71-2.73,1-3.73s-2.44-.93-3.75.23A5.11,5.11,0,0,1,31.1,83a18.31,18.31,0,0,0-4.68,1.35,27,27,0,0,0-4.59,2.54L24,86.05A10.65,10.65,0,0,0,21.48,88l.78.13c-3.49,1.59-6,5.8-5.28,9s3.88,4.24,7,2.6Z"/><path d="M34.64,98.91c-1.71.87-3.49,1.66-5.21,2.55l-.55,0,1.62,1-.08-.1c-.37-2.22.77-4.74,2-6.93l.37-.85a1.61,1.61,0,0,0-.25-1.26c-.55-.75-1.72-.7-2.62.11l-1,1c-3,1.9-6.24,6.3-4.51,9.59.4.74,1.39.95,2.17,1.36a2.58,2.58,0,0,0,3.53-.85,2.7,2.7,0,0,0,.07-3.69c.23-.17.46-.35.7-.5,0,.25,0,.52,0,.78-.63-1,.1-2.31.32-3.53.26-.5.52-1,.8-1.48L29.09,95l-.25.93a3.45,3.45,0,0,1,.37.06,47.55,47.55,0,0,1-1.35,5.25c-.15.82-.31,1.62-.42,2.44a1.2,1.2,0,0,0,1.64,1c.36-.15.71-.3,1.08-.44l-.56.15c.92-.72,1.81-1.49,2.7-2.25s1.83-1.46,2.77-2.09a.81.81,0,0,0,.38-.91A.53.53,0,0,0,34.64,98.91Z"/><path d="M30.25,105.39a1.82,1.82,0,0,0-1,.77,2,2,0,0,0,.08.31l.81-.3C30.7,106,30.61,105.59,30.25,105.39Z"/><path d="M29.31,106.47l-.35.13h.35v-.12Z"/><path d="M62.53,242.67,60,244.56c-.84.64-1.63,1.3-2.44,1.95-1.61,1.32-3.31,2.59-4.78,4l-2.28,2a29.44,29.44,0,0,0-2.22,2.08l-.51.52-.16.18-.33.36c-.21.25-.61.55-.87.86a23.38,23.38,0,0,0-3.1,4.07,6.17,6.17,0,0,0-.77,2.45,3.83,3.83,0,0,0,.64,2.44,11.65,11.65,0,0,0,4,3.13A27.14,27.14,0,0,0,52,270.69c.09,0,.22.07.35.11l.5.14,1.35.42c.91.27,1.85.48,2.77.73,1.87.43,3.76.84,5.7,1.12a83.91,83.91,0,0,0,11.84,1,5,5,0,0,0,2-.23,3.76,3.76,0,0,0-1.79-.21,83.21,83.21,0,0,1-11.79-1c-1.92-.28-3.8-.68-5.66-1.1L54.54,271c-.83-.26-2-.63-2.3-.7a27,27,0,0,1-4.58-2,11.77,11.77,0,0,1-3.86-2.93,3.54,3.54,0,0,1-.68-2.29,5.55,5.55,0,0,1,.68-2.34,20.53,20.53,0,0,1,2.91-3.87,9.5,9.5,0,0,1,.85-.83l.3-.34.16-.17.07-.08.23-.24,1-1.06,1.14-1,2.27-2c.77-.66,1.47-1.37,2.3-2l2.44-2,2.42-1.95,2.56-1.88a6.33,6.33,0,0,0,1.65-1.54C64.11,241.65,63.39,242,62.53,242.67Z"/><path d="M233.35,235.58c-1,0-.93.1.05.26s2.35.37,3.3.46.81,0,0-.26A15.27,15.27,0,0,0,233.35,235.58Z"/><path d="M225.48,243.59A61,61,0,0,0,212.27,247c-.75.28-1.6.52-2.26.7.34.07-.54.52-2.25,1.17-16.91,6.44-33.59,15.6-51.13,24.73-8.78,4.56-17.82,9.08-27.26,13.13a192.91,192.91,0,0,1-29.6,10.16,5.74,5.74,0,0,1-1.66.83A42.2,42.2,0,0,1,92,299.48c-1.31.26-2.73.51-4.2.75s-3,.37-4.6.52-3.16.18-4.74.23A116.33,116.33,0,0,1,64,300.66a98,98,0,0,1-14.45-2.27l-1.8-.42L46,297.48l-2-.56a18.31,18.31,0,0,1-2.22-.69c-1.47-.53-3-1-4.4-1.58L33,292.89a67.13,67.13,0,0,1-15.12-9.43,28.28,28.28,0,0,1-5.26-5.28,19.35,19.35,0,0,1-3.52-7.64,21.84,21.84,0,0,1-.43-7.42,30.58,30.58,0,0,1,1.7-7.19A32.91,32.91,0,0,1,13.7,249l4.45-6.7c.75-1.12,1.48-2.26,2.35-3.34.42-.55.82-1.11,1.27-1.66l1.42-1.66,2.56-3c.67-.83,1.38-1.58,2.1-2.33l4.33-4.55c1.47-1.48,3-2.87,4.5-4.31-.88.58-1.48.86-1.61.7-.07-.55,2.56-3.54,6.06-6.27,1.74-1.42,3.46-2.9,5.23-4.2-1.29.91-2.56,1.9-3.83,2.91l-3.82,3c-2.53,2-5,4.23-7.5,6.35-.7.67-1.35,1.27-2,1.81l-3.92,3.86c-.66.64-1.26,1.38-1.9,2.06l-2.66,3c-.45.51-.94,1-1.35,1.53l-1.21,1.53c-.83,1-1.55,2.07-2.27,3.12l-4.38,6.34-1.2,1.74c-.35.59-.65,1.19-1,1.78a31,31,0,0,0-1.66,3.63c-.49,1.22-.88,2.45-1.28,3.69s-.61,2.51-.82,3.78a29.15,29.15,0,0,0-.36,3.86,25.61,25.61,0,0,0,.24,3.9,21.11,21.11,0,0,0,.87,3.82c.18.62.41,1.23.64,1.83s.54,1.17.83,1.74a27.58,27.58,0,0,0,4.36,6.16,34.36,34.36,0,0,0,2.73,2.66c1,.83,2.09,1.6,3.13,2.41A68.13,68.13,0,0,0,32.44,296l3.91,1.5,4,1.3c.66.21,1.32.45,2,.64s1.3.32,2,.47l3.08.74a105.91,105.91,0,0,0,12.21,1.83,115.78,115.78,0,0,0,23.87-.41c15.62-1.93,30-6.6,43.33-12.28s25.76-12.34,37.86-18.83a22.15,22.15,0,0,1,2.8-1.34c.52-.15.49,0-.39.5-15,8.55-29.27,17.13-45.69,24.27a159.66,159.66,0,0,1-26.68,9.05,115.79,115.79,0,0,1-31.95,3.21c-.86,0-1.72-.06-2.59-.12l-2.59-.21c-1.73-.12-3.47-.37-5.21-.59s-3.48-.56-5.22-.85c-.87-.14-1.74-.35-2.61-.54l-3.06-.71a11.4,11.4,0,0,1-1.82-.5l-1.79-.57-3.6-1.16-3.53-1.32-1.78-.66a12.63,12.63,0,0,1-1.73-.73l-3.33-1.65c-1.12-.56-2.25-1.1-3.28-1.74l-3.18-1.85c-.52-.32-1.09-.6-1.56-.95l-1.39-1.08A48.88,48.88,0,0,1,9.1,287a35.55,35.55,0,0,1-4.19-5.16L4,280.43c-.27-.48-.54-1-.8-1.47a25.4,25.4,0,0,1-1.38-3.1c-.37-1.08-.73-2.18-1-3.29s-.48-2.26-.62-3.4a34.31,34.31,0,0,1,1.21-13.49,37,37,0,0,1,2.44-6.53l.77-1.61c.32-.53.67-1,1-1.57l2-3.14,4.08-6.31a56.31,56.31,0,0,1,4.83-6.26l2.54-2.93c.56-.65,1.1-1.34,1.68-2l3.5-3.7c2.32-2.53,4.75-4.77,7.18-7.08l1.82-1.72,1.85-1.63L38.86,208c9.93-8.48,20.08-15.77,29.69-22.8,10.24-7.05,19.63-13.73,27.67-20.64,1.06-.84,2-1.72,2.94-2.6l2.84-2.61c1-.86,1.75-1.77,2.64-2.65l2.58-2.65a63.27,63.27,0,0,0,7.71-10.27c.54-.84.91-1.67,1.38-2.48s.81-1.62,1.07-2.39a23,23,0,0,0,1.37-4.31,15.17,15.17,0,0,0,.36-3.48,11.72,11.72,0,0,0-.39-2.6,15.24,15.24,0,0,0-2.69-4.92,16.63,16.63,0,0,0-5-4.21,20.06,20.06,0,0,0-8.88-2.05,25.47,25.47,0,0,0-5.38.49,26.16,26.16,0,0,0-5.21,1.65c-.4.19-.8.34-1.22.58l-.64.31a.43.43,0,0,0-.11.08l-.35.28c-.23.18-.46.35-.7.51-.45.4-.92.71-1.37,1.1a58.3,58.3,0,0,0-5.5,4.91,2.56,2.56,0,0,1-2.77,1,9.14,9.14,0,0,1-4.22-2,8.55,8.55,0,0,1-3.26-5,6.17,6.17,0,0,1-.46.43l-1,.43a5,5,0,0,1-3.46.05l-1.66-.42c-2.92-1.12-5.93-1.22-9-2.29l-.81-.87h-.41a6.4,6.4,0,0,1-3.43-.64L50.07,117a13.13,13.13,0,0,1-3-3.7,5,5,0,0,1-1.27-1.23,6.78,6.78,0,0,1-4-2.4.93.93,0,0,1-1-.93,1.18,1.18,0,0,1,.14-.58h0a8.16,8.16,0,0,0-1-.06c-.33.24-.54.37-.54.37-.81.7-.81.7-1.54,1.31a5.42,5.42,0,0,1-1.71.39c-2.61-.67-2.62-.65-3.46-1.37-.06-.11-.11-.21-.16-.32-.72.41-.77.44-1,.54a2.56,2.56,0,0,1-.55.07c-.52-.29-.52-.29-.77-.3a2.75,2.75,0,0,1-.39-.21c-.32-.7-.32-.7-.47-.81a1.5,1.5,0,0,1-.14-.37c.11-.53.16-.73.18-.82l1.87,0-.31-.48.72.18L31,106l.62-.22-.81.19a7.64,7.64,0,0,0,1.2-1.33,2.52,2.52,0,0,0,.53-.89,2,2,0,0,1-.31-.16c1-.95,1-1,2-1.83a4.42,4.42,0,0,1,.52,0,.64.64,0,0,1,.22-.64l.51-.47,0-.17,0,0c0-.26.08-.44.12-.65l0-.14h0l.66-2.77a8.84,8.84,0,0,1,1-.69l-.44.07c-.3,0-.6-.48-.71-.42a35,35,0,0,0-7.74,6,1.12,1.12,0,0,1-1.31.58c-.44-.2-.53-.78-.22-1.31a20.89,20.89,0,0,1,5.19-9.86,27.2,27.2,0,0,1,9.29-6.56c1.6-1,3.14-2,4.76-3l-.39-.06,1.4-.55.13-.08-1.49-.12-.78.25c-3.63,2.39-7.64,3.89-11.36,6.27-2,1.28-4.07,2.08-6.06,3.3-.41.4-.95.47-1.23.15s-.14-.89.27-1.29C30.84,83.46,38,78,44.82,77.12a7.32,7.32,0,0,1,3.56-1.44l.06,0-1.17-.2c.94-.42,1.78-.17,2.71-.43L49,74.27c4.51-2.21,9.13-5.2,14.09-5.65a5,5,0,0,1,.52-.14A31.39,31.39,0,0,1,66,66.27l.66-.51c.08,0,.07-.05.23-.13l1.29-.54c.87-.35,1.73-.72,2.63-1a78,78,0,0,1,11.48-3.25c-1.37.26-2.73.51-4.08.79s-2.7.64-4,1-2.67.78-4,1.2L66.54,65l0,0,.23-.1.51-.21,1-.44c.69-.28,1.37-.58,2.07-.85,1.41-.51,2.83-1,4.27-1.51a79.74,79.74,0,0,1,8.82-2.27,75.8,75.8,0,0,1,45.21,4.95,72.52,72.52,0,0,1,12.11,6.89A67,67,0,0,1,158.42,90a62.16,62.16,0,0,1,5.14,10,53.06,53.06,0,0,1,4,17.51c.23,1.07.43,2.14.56,3.25s.29,2.18.38,3.29l.19,3.33c.07,1.12,0,2.18,0,3.28a62.74,62.74,0,0,1-.48,6.46c-.12,1.07-.33,2.1-.5,3.15s-.37,2.1-.63,3.1l-.75,3-.92,2.94c-.29,1-.64,1.94-1,2.87s-.72,1.88-1.1,2.8a85.5,85.5,0,0,1-5.27,10.33A104.23,104.23,0,0,1,145,182.59c-2.37,2.54-4.85,5-7.29,7.2L134,193.14c-1.22,1.13-2.49,2.1-3.74,3.16a317.32,317.32,0,0,1-30.42,21.79c-10,6.5-19.79,12.55-28.7,18.86a14.48,14.48,0,0,1-4.06,2.34c-.35-.09.71-1.15,2.52-2.48,12.6-9.35,27-18.11,41.59-28.31a254.8,254.8,0,0,0,21.68-17l5.23-4.86c1.74-1.67,3.48-3.47,5.16-5.3a109.92,109.92,0,0,0,9.52-11.93,101.86,101.86,0,0,1-8.14,9.88c-.71.77-1.43,1.53-2.16,2.26s-1.45,1.5-2.2,2.2L138,185.88l-2.24,2-4.5,3.93-4.6,3.66-2.3,1.82-2.34,1.7-4.67,3.41c-12.52,8.74-25.26,16.24-37.24,23.9l-4.53,3-4.44,3.05-4.32,3c-1.41,1-2.9,1.92-4.27,2.92l-5.14,3.91-4.85,4c-1.59,1.36-3,2.79-4.57,4.18l-1.13,1c-.37.35-.7.73-1,1.09l-.46.49-.24.26-.46.53c-.3.36-.75.75-1.08,1.15l-1,1.26a28.46,28.46,0,0,0-2,2.57,12,12,0,0,0-1.43,2.87A5.8,5.8,0,0,0,39,264.8a5.4,5.4,0,0,0,1.64,2.72,13.48,13.48,0,0,0,2.62,1.88,31.84,31.84,0,0,0,5.86,2.73c.5.19,1,.33,1.54.49l.77.24.46.11.63.17,1.4.4,1.43.33c.95.21,1.9.45,2.88.61a74.82,74.82,0,0,0,12,1.31,95.58,95.58,0,0,0,10.45-.25c3.47-.3,6.84-.71,10.27-1.35a141.91,141.91,0,0,0,20.22-5.35c13.41-4.54,26.65-10.77,41.13-17.82,10.19-5,20.39-9.93,31-14.38,5.29-2.22,10.68-4.31,16.19-6.17a124.05,124.05,0,0,1,17.64-4.79,59.83,59.83,0,0,1,21-.37,44.28,44.28,0,0,1,21,9.81,55.54,55.54,0,0,1,13.38,16.95A76.48,76.48,0,0,1,279.12,271c1.51,6.65,1.83,12.48,1.5,13.26s-1.24-3.56-2.54-10a81.59,81.59,0,0,0-6.38-19.3,54.75,54.75,0,0,0-13.32-17.5,43.36,43.36,0,0,0-9.91-6.45A42.75,42.75,0,0,0,237,227.53a60.14,60.14,0,0,0-21.48,1c-3.28.69-6.42,1.54-9.45,2.47s-5.9,1.9-8.81,2.93c-5.79,2.08-11.43,4.37-17,6.78-11.06,4.82-21.66,10.09-32.14,15.11s-20.85,9.76-31.38,13.6a142.62,142.62,0,0,1-31.88,8,87.91,87.91,0,0,1-31.51-1.88l-1.86-.54c-.51-.14-.9-.23-1.28-.36-.77-.27-1.56-.48-2.32-.79s-1.53-.58-2.27-.93-1.49-.69-2.22-1.07-1.43-.8-2.14-1.22a17.47,17.47,0,0,1-2-1.39,6.81,6.81,0,0,1-2.7-4,7.24,7.24,0,0,1,.55-4.16,17.23,17.23,0,0,1,2.14-3.64c.87-1.11,1.76-2.18,2.64-3.26.42-.53,1-1,1.4-1.49s.68-.78,1.64-1.78c-.15,0-.29,0-.35,0-.26-.25.06-1.16,1-2.38-.49.46-1,.9-1.46,1.39L43,251.09c-.53.57-1.06,1.15-1.7,1.77-1.15,1.29-2.23,2.65-3.36,4a18.64,18.64,0,0,0-2.69,4.53,7.33,7.33,0,0,0-.29,5.19,8,8,0,0,0,2.33,2.87,19.58,19.58,0,0,0,3.13,2,40.37,40.37,0,0,0,6.67,3c1.13.42,2.29.73,3.43,1.06l.47.11.54.14,1.3.35c.87.24,1.77.39,2.65.6a79.46,79.46,0,0,0,10.9,1.55,100.72,100.72,0,0,0,11.28.2q5.7-.27,11.47-1.1a155.08,155.08,0,0,0,23.53-5.56,334.58,334.58,0,0,0,31.52-12c10.24-4.37,20.37-8.94,30.88-13.28,6.56-3,13.23-5.86,20.09-8.44,3.43-1.28,6.91-2.5,10.44-3.62a110.18,110.18,0,0,1,11.09-2.95,63.84,63.84,0,0,1,12.1-1.37,43.5,43.5,0,0,1,12.94,1.69c1.09.28,2.15.71,3.22,1.08s2.11.86,3.11,1.4a39.66,39.66,0,0,1,5.74,3.51A45.92,45.92,0,0,1,263,247a15.79,15.79,0,0,1,1.79,2.7c.19.46-.27-.1-1.08-1.19a45.56,45.56,0,0,0-13.12-12,38.12,38.12,0,0,0-8.55-3.74,40.53,40.53,0,0,0-9-1.56,59.42,59.42,0,0,0-17.09,1.61c-2.69.61-5.31,1.34-7.87,2.14-1.29.39-2.53.81-3.78,1.23s-2.49.86-3.72,1.3c3.24-.77,5.27-.9,5.15-.41s-2.43,1.68-6,3.23c4.46-1.52,8.94-3,13.65-4.12,2.9-.7,5.29-.95,5.24-.7s-2.33.86-5.06,1.53a203.78,203.78,0,0,0-27.17,9.36C177.57,250,169,254,160.52,258c-10.13,5-20.15,9.93-30.37,14.28a192.4,192.4,0,0,1-31.36,10.63,31.49,31.49,0,0,1,6.53-.27h0c3.31-.94,6.61-1.92,9.85-3,14.83-5.37,29.09-12.5,43.51-19.68s29.1-14.42,44.78-19.78c7.79-2.65,16-5.07,24.86-5.3a38.71,38.71,0,0,1,13.29,1.88,34.46,34.46,0,0,1,11.76,6.79c6.8,5.93,11.37,13.84,14.11,22s4,16.6,5,24.78a8.62,8.62,0,0,1,.14,2.38,6.48,6.48,0,0,1-.44-2.09c-1.27-9.86-2.75-20.08-6.91-29.73a49.79,49.79,0,0,0-8.41-13.37,36.76,36.76,0,0,0-13-9.53l.08,0c.78.41.88.57,0,.26s-2.39-.86-3.19-1.2-.82-.43,0-.27A40.78,40.78,0,0,0,226,235.31a72.47,72.47,0,0,0-14.14,2.59,212.29,212.29,0,0,0-26.12,9.6c-16.88,7.37-32.81,16.1-49.08,23.61,15.23-6.73,30.09-14.51,45.52-21.26a245.34,245.34,0,0,1,23.65-9.07,106.55,106.55,0,0,1,12.37-3.27,54.93,54.93,0,0,1,13-1,35.62,35.62,0,0,1,11.5,1.92,12.35,12.35,0,0,1,2.64,1.33c.22.22-.51-.09-1.54-.49a31.35,31.35,0,0,0-3.09-1.07,25.24,25.24,0,0,1,7.46,3.89c1.67,1.3,2.46,2.29,2.26,2.45-.62.24-5.14-3.11-11.52-4.82a38.11,38.11,0,0,0-13.07-1,70.93,70.93,0,0,0-12.92,2.43A213.25,213.25,0,0,0,188.1,250c-1.74.75-3.46,1.56-5.19,2.35s-3.41,1.71-5.09,2.6c6.21-2.79,12.49-5.44,18.85-7.82,3.19-1.19,6.39-2.31,9.62-3.33s6.48-2,9.76-2.73c6.54-1.5,13.32-2.2,19.8-1a29.84,29.84,0,0,1,9.15,3.34,33.2,33.2,0,0,1,7.63,6.09c1.58,1.6,2.62,3.24,2.5,3.39s-1.32-1.2-2.86-2.79A29.72,29.72,0,0,0,238,241.8a39.89,39.89,0,0,0-16.82,0,106.72,106.72,0,0,0-16.85,4.9c-5.57,2-11.07,4.3-16.52,6.73-21.79,9.74-42.8,22.07-66,30.88a178.58,178.58,0,0,1-23.23,8.47,123.39,123.39,0,0,1-25.25,4.47c1.1,0,2.2,0,3.31-.06S78.9,297.1,80,297c14.15-.95,27.12-4.57,39.14-9.06A313.69,313.69,0,0,0,153,272.27c10.79-5.62,21.31-11.38,32.2-16.58,5.44-2.59,11-5.05,16.68-7.26a119.33,119.33,0,0,1,17.48-5.52,8.39,8.39,0,0,1,2.37-.27c.14.06-.65.31-1.85.53A112.54,112.54,0,0,0,203,248.5c-5.52,2.12-10.87,4.51-16.17,7-10.6,5-21,10.7-32,16.43-9.15,4.74-18.25,9.28-27.53,13.28a199,199,0,0,1-28.55,9.95,176.79,176.79,0,0,0,28.75-9.37c9.12-3.81,17.84-8.08,26.38-12.44,17.05-8.7,33.5-17.79,51.14-24.27a30.3,30.3,0,0,1,4.13-1.29,3.34,3.34,0,0,1,.83-.42,70.14,70.14,0,0,1,14-4,10.58,10.58,0,0,1,2.61-.16C227.06,243.32,226.5,243.44,225.48,243.59ZM48.48,94l-.26,0,.67-.15,1.53.48Zm-3.14,10.67h0l-.89-.17Zm84.45,87c2.15-1.78,4.22-3.75,6.33-5.62s4.2-4,6.22-6.12a106.8,106.8,0,0,0,11.32-14.13,77.72,77.72,0,0,0,8.78-17.26,64,64,0,0,0,3.77-20.64,62.8,62.8,0,0,1-3,20.37,81.45,81.45,0,0,1-14.49,25.1,117.3,117.3,0,0,1-9.22,9.86c-.81.74-1.62,1.54-2.43,2.23l-2.43,2.1C133.06,189,131.46,190.41,129.79,191.69Zm-90-96.37a11,11,0,0,1,3.53,0,6.13,6.13,0,0,1,1.23-1.51,34.11,34.11,0,0,1,4.23-3.15c-.5-.22-.15-.45,0-.63l.41-.51-2.45,1.41L44.2,92.39C42.72,93.32,41.24,94.48,39.74,95.32ZM33.11,106.5l-.24,0-.41-.7Zm.74,1.15.23-.16C34.25,107.73,34.12,107.74,33.85,107.65ZM36,106.27a1.53,1.53,0,0,0-.52,0Zm18.46,11.64-2.53-2.79c.78.93,1.57,1.84,2.37,2.75Z"/><path d="M73.08,24.87l.26,0c0,.17-.16.28-.35.36,2.45,0,3.93-2.31,4.33-4.49a1.1,1.1,0,0,0-1.18-1.85,1.72,1.72,0,0,1-.44.06,8.48,8.48,0,0,0-3.68.26h.86a2.85,2.85,0,0,0-1,.4l.31.18a2.53,2.53,0,1,0,.26,5.06Z"/><path d="M76.92,26.32c-.78.11-1.57.18-2.36.24l-.23-.08.61.71,0-.06a4.52,4.52,0,0,1,1.24-2.62l.19-.32a.81.81,0,0,0-1.16-.91l-.45.24c-1.3.34-2.85,1.51-2.44,3.17.1.39.49.67.78,1a1.11,1.11,0,1,0,1.85-1.24l.33-.09-.06.32c-.19-.53.18-1,.34-1.45l.4-.5-1.16-.92-.14.35.15.08a9.72,9.72,0,0,1-.86,2l-.35.94a.67.67,0,0,0,.6.7l.49,0-.25,0c.9-.28,1.74-.7,2.64-1a.28.28,0,1,0-.13-.54Z"/><path d="M74.6,28.36a.64.64,0,0,0-.5.14v.14l.37,0C74.73,28.69,74.73,28.52,74.6,28.36Z"/><path d="M74.1,28.64h-.16l.15.06v-.05Z"/><path d="M96,8.35a36.73,36.73,0,0,0,3.7-2s0-.1,0-.17-.13-.1-.16-.08a41.26,41.26,0,0,1-3.7,2s0,.1,0,.17S95.93,8.36,96,8.35Z"/><path d="M109.59,9a.24.24,0,0,0,.14.17c.06,0,.1,0,.09-.07a.3.3,0,0,0-.14-.17C109.61,8.88,109.58,8.92,109.59,9Z"/><path d="M113.63,14.67a1.89,1.89,0,0,0-.12.74c0,.05,0,.06-.07.05a.43.43,0,0,1,.13.32,15.23,15.23,0,0,1-2,4.47,1.27,1.27,0,0,1,.15.31c.15.34.1.61-.11.69l-.18,0c-.63.23-1.24.49-1.88.7a.79.79,0,0,1-.17.52,12.93,12.93,0,0,1-.59,2,.83.83,0,0,1,.26.24c.18.25.22.51.09.59l-.17.16.67-.22h.1a4.18,4.18,0,0,0,.57-.47,15,15,0,0,0,3.23-6c0-.06,0-.08.12,0a.22.22,0,0,1,.11.18c-.06,2,.31,4.3-.21,6a31,31,0,0,1-2.25,5.57c-1.47,1.13-2.36,2.77-3.51,4.35-.39.54-.79,1-1.21,1.52a1.65,1.65,0,0,1-.2.21l-.33.31-.68.61q-.68.62-1.35,1.2c-1.82,1.58-3.69,3.09-5.59,4.61a3.32,3.32,0,0,1-4.7,0,3.37,3.37,0,0,1-.94-2.89l-.37.26-.69.26a2.9,2.9,0,0,1-2,0l-.86-.3c-1.41-.75-3-1.06-4.35-1.93l-.25-.52L84,38a2.89,2.89,0,0,1-1.58-.73L82,36.72a6.67,6.67,0,0,1-.87-2.15,2.56,2.56,0,0,1-.43-.75,3.44,3.44,0,0,1-1.55-1.68.47.47,0,0,1-.24-.8h0l-.47-.19-.28.09-.82.33a2.21,2.21,0,0,1-.79-.12c-1.06-.75-1.06-.75-1.34-1.21a.9.9,0,0,1,0-.16l-.48.05a1.26,1.26,0,0,1-.24-.07c-.18-.22-.18-.22-.29-.27a1.27,1.27,0,0,1-.14-.17c-.06-.35-.06-.35-.11-.43a.94.94,0,0,1,0-.18c.09-.2.13-.27.15-.31l.79.33-.08-.26.28.21-.23-.21.28,0-.36-.07a2.17,2.17,0,0,0,.63-.35.87.87,0,0,0,.3-.29L75.58,28l1-.46.22.09a.23.23,0,0,1,.14-.24l.25-.13,0-.07v0c0-.1.06-.18.09-.26l0-.06h0c.07-.18.16-.44.41-1.13a3.16,3.16,0,0,1,.46-.16l-.19,0c-.13,0-.24-.29-.29-.29a17.44,17.44,0,0,0-3.59,1.35.43.43,0,0,1-.59,0,.42.42,0,0,1,0-.59A9,9,0,0,1,80,20.87l1.86-1-.17-.05.56-.16,0,0-.63-.15-.31,0a26.82,26.82,0,0,1-4.53,1.63,22.07,22.07,0,0,1-2.51.55.37.37,0,1,1-.38-.63c1.85-1.87,4.41-3.44,7.11-3.37a2.14,2.14,0,0,1,1.32-.44h0l-.49-.15c.35-.14.71,0,1.06-.07l-.45-.37c1.61-.8,3-2.09,4.81-2.44l.18-.07a8.61,8.61,0,0,1,.94-1.79l-.46.12a1.47,1.47,0,0,1,.52-.89,3.11,3.11,0,0,1,3.36.48A49.84,49.84,0,0,0,95.49,8.4c.06-.08.19,0,.31.09s.16.3.11.37a16.35,16.35,0,0,1-2.26,3.23,15.53,15.53,0,0,0,2.91-1.46l.29-.31a.68.68,0,0,1,.38-.18,13.17,13.17,0,0,0,3-2.76,28.87,28.87,0,0,0,1.94-3.13A12.4,12.4,0,0,1,105.13.08c.15-.18.5,0,.79.27s.4.74.26.92c-1.92,3.18-3.61,6.55-6.6,8.6l-1,.64.11.14a2,2,0,0,1,.32.56,9.5,9.5,0,0,1,1.2-.58,6.59,6.59,0,0,1,2.51-2.88,9.25,9.25,0,0,1,2.71-.63c.66-.85,1.28-1.76,2-2.59,0,0,.08,0,.14,0a.19.19,0,0,1,.08.19,13.48,13.48,0,0,1-1,2.4,2.26,2.26,0,0,1,.75.68,2.17,2.17,0,0,1,.43.94l.42-.29c.09-.05.25,0,.37.18s.16.34.08.4l-1.7,1.21c-.53.68-1.07,1.34-1.63,2a2.88,2.88,0,0,1,.77.6h0l.28-.26A14,14,0,0,1,111.26,7s.12,0,.17.07.08.16,0,.18a10.79,10.79,0,0,0-1.73,1.36h0a.27.27,0,0,1,.14.17c0,.07,0,.1-.09.08a.28.28,0,0,1-.14-.18A15.06,15.06,0,0,0,107.13,12a17.5,17.5,0,0,1,3-2.25c0-.17.07-.35.11-.52s.09,0,.15,0a.21.21,0,0,1,.07.19l0,.13c.2-.11.58.08.87.46s.35.81.15.94c-.46.47-.94.91-1.44,1.33l-.11.19,0,.31c.91-.47,1.85-.9,2.79-1.32.07-.06.21,0,.31.13s.14.29.07.35a28.22,28.22,0,0,1-3.34,4.41c0,.94,0,1.89-.07,2.82a.82.82,0,0,0,.2-.12c1.54-1.19,1.58-3.85,2.81-5.34,0-.05.1,0,.16,0s.08.15,0,.18a17.2,17.2,0,0,0-1.2,2.82,14.65,14.65,0,0,0-.9,2.4c1-1,1.55-2.6,2.43-3.79,0-.07.1-.07.19,0a.19.19,0,0,1,0-.11,2.32,2.32,0,0,1,.12-.78c0-.05.06-.05.14,0A.23.23,0,0,1,113.63,14.67Zm-30.49,11-.12,0h.3L84,26Zm-1.87,4.64h0l-.39-.18ZM95,12.14a4.59,4.59,0,0,1-2.15.9l.36-.42A16.77,16.77,0,0,1,95,12.14ZM79.26,25.42a5.91,5.91,0,0,1,1.54.39,2.21,2.21,0,0,1,.58-.56,18.38,18.38,0,0,1,1.85-1.1c-.22-.14-.07-.22,0-.29l.17-.21c-.69.32-1.4.63-2.13.94A16.4,16.4,0,0,1,79.26,25.42Zm-3.55,3.93-.1,0-.12-.37S75.59,29.11,75.71,29.35Zm.2.61.12,0C76.08,30.07,76,30.05,75.91,30ZM77,29.72a.7.7,0,0,0-.23-.06Zm7.06,8L83.23,36,84,37.67Z"/><path d="M276.08,41.65l-.41.31a.74.74,0,0,1-.05-.87,6.1,6.1,0,0,0-1.83,5.6,10.53,10.53,0,0,0,2.94,5.24,1.82,1.82,0,0,0,1.89,2,2.36,2.36,0,0,0,2.45-1.78,2.94,2.94,0,0,1,.48-.66A17,17,0,0,0,286,46.37l-1.13,1.1a4.55,4.55,0,0,0,.73-1.7l-.7.2a3.59,3.59,0,0,0-.61-5.85,5.92,5.92,0,0,0-7.32.68Z"/><path d="M268.63,45.28c.9-1.25,1.86-2.43,2.85-3.59l.43-.22H270l.12,0c1.5,1.2,1.94,3,2.29,4.75l.26.61a1.55,1.55,0,0,0,1,.54,1.67,1.67,0,0,0,1.94-1.14c.06-.3.14-.59.22-.88,1.3-2.15,1.68-5.45-1.44-6.89a6.69,6.69,0,0,0-2.55-.14,2.24,2.24,0,0,0-2.59,1.73,2,2,0,0,0,1.94,2.26l-.31.56-.41-.46c1.06.36,1.22,1.38,1.73,2.14l.2,1.13,3-.57-.33-.58c-.13,0-.32.12-.33.11a17,17,0,0,1-1.81-3.42L272,39.66a1.53,1.53,0,0,0-1.9,0l-.69.66.4-.29c-.79,1.56-1.31,3.24-2.13,4.82a.48.48,0,0,0,.22.7A.62.62,0,0,0,268.63,45.28Z"/><path d="M268.68,39.59c.24-.25.5-.48.48-.86l-.22-.17-.55.48C268,39.38,268.27,39.59,268.68,39.59Z"/><path d="M268.94,38.56l.22-.2-.28.13s0,0,0,0Z"/><path d="M309.78,161.37c1,1.55,2.14,3,3.22,4.49s2.16,3,3.33,4.45c2.35,2.87,4.62,5.83,7.15,8.58,1.25,1.39,2.46,2.81,3.74,4.18l3.91,4.05c.66.67,1.3,1.36,2,2l2,2,4.1,3.89c.38.34.76.55.86.46s-.14-.4-.5-.71a211.71,211.71,0,0,1-15.68-16.05c-2.52-2.74-4.78-5.69-7.11-8.55-1.18-1.42-2.21-3-3.32-4.43l-1.63-2.23c-.56-.73-1.09-1.48-1.58-2.25-.28-.41-.59-.68-.73-.65S309.53,161,309.78,161.37Z"/><path d="M392,241.08c-.38-.08-.41,0-.08.25a3.91,3.91,0,0,0,1.19.54c.31.08.35,0,.07-.24A4.31,4.31,0,0,0,392,241.08Z"/><path d="M385.53,246.9c-1.08-.39-2.13-.76-3.15-1.1s-2-.71-2.92-1a4.6,4.6,0,0,1-1-.46c.05.21-.41.15-1.19-.13-3.86-1.38-7.68-3.06-11.57-4.73-2-.82-3.84-1.8-5.78-2.71s-3.9-1.84-5.79-2.88l-5.76-3.07c-1.93-1-3.79-2.17-5.7-3.26-3.83-2.14-7.5-4.57-11.24-6.88a1.83,1.83,0,0,1-.89-.07,18.11,18.11,0,0,1-5.37-3.19l-1.46-1.25c-1.53-1.18-2.95-2.51-4.43-3.76s-2.93-2.52-4.38-3.81l-4.23-4c-1.4-1.32-2.81-2.64-4.14-4a44.61,44.61,0,0,1-4.24-3.41c-1.35-1-2.64-2.11-3.93-3.21l-3.89-3.3c-1.32-1.1-2.55-2.29-3.81-3.47l-3.78-3.58c.18.42.21.73.06.86-.45.19-1.84-.74-3-2.23l-1.86-2.18,2.5,3.27c.85,1.08,1.74,2.11,2.6,3.17a9.42,9.42,0,0,1,.68.86l3,3.34c1,1.11,2.14,2.17,3.23,3.25A204.55,204.55,0,0,0,324.4,218.5a254,254,0,0,0,32.32,18.22,4.11,4.11,0,0,1,1.19.7c.16.19.06.28-.36.11-14.32-5.81-27.27-10.83-42.33-20.76a233.64,233.64,0,0,1-25.78-19.61,226.52,226.52,0,0,1-23.54-23.81,336.09,336.09,0,0,1-19.66-29.06c-1.46-2.53-3-5-4.41-7.62l-4.2-7.87c-1.33-2.68-2.61-5.42-3.94-8.19-.32-.69-.66-1.38-1-2.08s-.61-1.42-.91-2.14q-.9-2.15-1.81-4.31l-1.23-2.94c-.39-1-.73-2-1.1-3l-2.14-6-.53-1.5-.47-1.51-.92-3c-.6-2-1.22-4-1.79-6.06l-.38-1.54-.19-.76-.09-.3-.31-1.06-.6-2.12c-.38-1.42-.77-2.84-1.15-4.25a163.39,163.39,0,0,1-3-17.45,8.61,8.61,0,0,1,.7-6.07A6,6,0,0,1,221,51.36a6.46,6.46,0,0,1,5.84,2.3c0-.34,0-.69,0-1L227.2,51a6.07,6.07,0,0,1,2.44-3.7l1.5-1.12c2.84-1.48,5.43-3.79,8.53-4.85l1.15.31.35-.27a5.57,5.57,0,0,1,3.21-1.58l1.41.15a14.22,14.22,0,0,1,4.51,1.52,5,5,0,0,1,1.73.31,7,7,0,0,1,4.65-.21,1,1,0,0,1,1.38.17,1,1,0,0,1,.19.49h0c.38-.18.49-.23.92-.46a5.18,5.18,0,0,1,.25-.52c.3-.88.3-.88.58-1.64a4.72,4.72,0,0,1,1.26-1c2.58-.57,2.58-.56,3.67-.38l.3.16a8.17,8.17,0,0,1,.56-.73,2,2,0,0,1,.44-.24c.59,0,.59,0,.81-.06a2.74,2.74,0,0,1,.44,0c.64.36.64.36.82.38a2.33,2.33,0,0,1,.31.2l.27.59-1.59.69.52.2-.72.14.65-.07-.42.38.6-.42a3,3,0,0,0-.31,1.3,1.32,1.32,0,0,0,0,.76,2.34,2.34,0,0,1,.35,0c-.33,1-.33,1-.67,1.95a3.61,3.61,0,0,1-.44.22.41.41,0,0,1,.19.48l-.15.51a.83.83,0,0,0,.08.12h.05l.26.44.06.09h0c.17.3.46.75,1.22,1.89a5.74,5.74,0,0,1-.32.85l.29-.25c.21-.15.76,0,.81-.09a45.61,45.61,0,0,0,2.75-6.58A.85.85,0,0,1,273.8,41a13.39,13.39,0,0,1,1.59,7.25,15.72,15.72,0,0,1-.66,3.74,18.4,18.4,0,0,1-.66,1.84c-.22.61-.47,1.22-.75,1.81-.27,1.24-.49,2.49-.69,3.75l.27-.2-.4,1a.43.43,0,0,0,0,.11l1-.81a5.21,5.21,0,0,0,.28-.52,17.65,17.65,0,0,1,1.19-4.2c.51-1.36,1.29-2.7,1.82-4a33.2,33.2,0,0,1,2.4-4,.77.77,0,0,1,.86-.54.63.63,0,0,1,.6.71,18.82,18.82,0,0,1-.49,6.89A14.77,14.77,0,0,1,277,60.26a4.2,4.2,0,0,1-.83,2.41v0l.79-.6c-.17.65-.82,1-1.06,1.66l1.09-.33c-.48,3.19-.05,6.52-1.2,9.67a2.11,2.11,0,0,1-.05.35,15.88,15.88,0,0,1,1.25,1.74c.09.15.18.31.26.47l.06.13.08.35.15.73c.18,1,.46,2,.65,3L278,77.75c0-.7-.05-1.4-.07-2.11.4,1.48.79,3,1.19,4.45a45,45,0,0,1,.92,4.73c.83,4.41,1.35,9.22,1.82,13.59.09,1.09.16,2.17.2,3.21s.14,2,.16,3a27.32,27.32,0,0,1-.28,5,201,201,0,0,0,11,24.89,184.16,184.16,0,0,0,14.65,23.07,2.87,2.87,0,0,1,.81,1.84c-.15.24-.71-.11-1.29-.85-2.15-2.49-4-5.2-6-7.85-1-1.31-1.9-2.71-2.82-4.09l-2.75-4.16c-.89-1.41-1.71-2.86-2.57-4.29s-1.74-2.85-2.5-4.33l-2.34-4.43-1.17-2.21-1.07-2.27a160.27,160.27,0,0,0,15.54,30.35c.85,1.2,1.68,2.44,2.61,3.6a43.94,43.94,0,0,1,2.47,3.64c.54.76,1.09,1.5,1.63,2.25s1.15,1.45,1.72,2.17l3.42,4.33c1.17,1.4,2.39,2.77,3.58,4.16s2.38,2.79,3.67,4.1l3.8,4c1.26,1.35,2.65,2.58,4,3.88s2.68,2.6,4.12,3.82l4.34,3.71c1.24,1.08,2.52,2.06,3.78,3l3.73,2.92c2.48,1.89,5,3.64,7.5,5.46s5.12,3.42,7.72,5.15,5.36,3.32,8.18,5c7.95,4.64,15.8,8.65,23.71,12.48s16,7.28,24.46,10.79c2.29.84,4.29,2,4.41,2.52s-1.66.27-4-.56c-9.05-3.24-17.91-6.83-26.59-10.84a278.16,278.16,0,0,1-25.32-13.51A216.09,216.09,0,0,1,340.6,200.8a183.13,183.13,0,0,1-21.49-20.08c-1.49-1.54-2.81-3.2-4.2-4.79s-2.76-3.16-4-4.83a.49.49,0,0,1-.13.26c-.27.24-.77.14-1.4-.19.74.93,1.44,1.9,2.21,2.82l2.3,2.76c1.54,1.85,3,3.75,4.68,5.53,9.75,9.29,20.18,17.8,31.48,26.76,7.81,6.1,15,11.6,22.7,16.82a299.29,299.29,0,0,0,31.94,15,2.75,2.75,0,0,1,1,.53c.13.15-.14.14-.6,0-1.93-.66-3.86-1.4-5.8-2.11l-2.92-1.08c-1-.37-1.92-.78-2.89-1.18l-5.82-2.41L381.89,232c1,.9,1.57,1.64,1.28,2s-1.42.27-3-.19l5.16,2.67c1.05.58,1.83,1.13,1.7,1.32s-1.07,0-2.08-.56c-3.52-1.82-7.08-3.56-10.51-5.54-1.72-1-3.46-1.89-5.16-2.9l-5.08-3a249,249,0,0,1-23.89-15.39,6.35,6.35,0,0,1,1.45,2.67h0l3.58,2.61a365.48,365.48,0,0,0,73.89,35.71c.52.18.92.41.9.5s-.44,0-.9-.14c-3.95-1.45-7.91-2.8-11.79-4.38-1.94-.78-3.92-1.47-5.83-2.3l-5.78-2.42,0,0c.29.19.3.32-.07.24a4.21,4.21,0,0,1-1.2-.51c-.33-.21-.25-.3.06-.24a380.44,380.44,0,0,1-41.16-21,330.32,330.32,0,0,0,37.22,20.55c1.47.51,2.9,1.09,4.4,1.57a3.09,3.09,0,0,1,1,.57c.07.12-.26.1-.67-.05l-1.24-.42c2.46,1.08,4.21,2.28,4,2.74s-2.65-.06-5.23-1.17c-6.91-3-13.74-6.09-20.36-9.64l-2.19-1-2.29-.92a284.86,284.86,0,0,0,31.26,15.64c.93.38,1.66.84,1.61,1s-.85,0-1.78-.36a263.28,263.28,0,0,1-28.59-12,250.55,250.55,0,0,1-27.35-15.48c-3.15-1.53-6.22-3.21-9.39-4.82s-6.22-3.47-9.37-5.27c.69.59,1.42,1.13,2.14,1.69,2.32,1.74,4.58,3.48,6.91,5s4.65,3,7,4.5,4.69,2.72,7,4,4.71,2.49,7.05,3.72c9.43,4.77,18.95,9,29.07,13.39a2.1,2.1,0,0,1,.93.58c0,.12-.38.05-.89-.17-9.93-4.23-19.08-8.05-28.72-13l-5.89-3.11c-1.93-1-3.8-2.14-5.69-3.2l-2.82-1.57c-.93-.53-1.83-1.1-2.75-1.64L332.36,219l5.32,3.56c.89.58,1.76,1.18,2.67,1.73l2.71,1.64c1.81,1.08,3.61,2.16,5.42,3.2l5.52,3,2.75,1.48,2.79,1.4,5.59,2.79,5.67,2.65,2.84,1.33,2.88,1.27a7.31,7.31,0,0,1,1.7.93c.06,0,.22,0,.44,0,2,.65,4.14,1.48,6.36,2.24a3.19,3.19,0,0,1,1.1.59C386.3,247.07,386,247.05,385.53,246.9ZM261.83,55.33l.2-.15-.32.49-1.34.73ZM256.77,47h0l.78-.38Zm32.44,88.49c-1.73-3.67-3.57-7.27-4.94-11.06-.7-1.88-1.46-3.73-2-5.65s-1.15-3.83-1.67-5.76q1.11,2.68,2.23,5.35c.93,2.88,2,5.7,3,8.59S288.08,132.61,289.21,135.48ZM267.05,49.71a13.7,13.7,0,0,1-2.54,1.88,3.79,3.79,0,0,1,.15,1.5c-.16,1.38-.21,2.74-.44,4.08.48-.2.43.12.49.28l.14.49c.3-1.43.58-2.86,1-4.3A28.4,28.4,0,0,1,267.05,49.71Zm-1.38-9.77.19-.11.72.3Zm-1.22-.48-.12.2C264.06,39.57,264.16,39.51,264.45,39.46Zm-1.06,1.81a1.4,1.4,0,0,0,.41-.25Zm-21.72.56,3.65.94-3.51-1Z"/><path d="M277.15,188.38l-.49-.26a1,1,0,0,1,.93-.38c-4.81-1.88-9.21,1.33-11.39,5a2,2,0,0,0-1.61,2.5,2.42,2.42,0,0,0,2.73,1.69,3.6,3.6,0,0,1,.9.22,20.53,20.53,0,0,0,7.34,2.37l-1.68-.69a6,6,0,0,0,2.22.1l-.47-.58a4.75,4.75,0,0,0,6.4-2.87,5.58,5.58,0,0,0-3.62-6.62Z"/><path d="M270.57,182.79c1.62.37,3.2.81,4.79,1.29l.4.33-.72-1.79,0,.12c-.69,1.87-2.47,3-4.16,4l-.56.44a1.53,1.53,0,0,0-.25,1.12,1.79,1.79,0,0,0,1.92,1.44l1-.12c2.77.37,6.55-.55,6.84-4a6,6,0,0,0-.87-2.45,2.45,2.45,0,0,0-2.83-1.78,2.13,2.13,0,0,0-1.62,2.69l-.7-.07.33-.57c0,1.14-1,1.68-1.61,2.46l-1.12.64,1.67,2.56.51-.54a3.09,3.09,0,0,1-.24-.26,19.29,19.29,0,0,1,3-3l1.32-1.49A1.45,1.45,0,0,0,277,182l-1-.4.46.26c-1.93-.15-3.86,0-5.79-.15a.55.55,0,0,0-.64.48A.59.59,0,0,0,270.57,182.79Z"/><path d="M276.48,180.65a1.37,1.37,0,0,0,1.08.13l.09-.28-.71-.33C276.43,179.94,276.32,180.27,276.48,180.65Z"/><path d="M277.65,180.5l.3.14-.25-.22,0,0Z"/><path d="M183.77,219.85c-8.67,3.42-17.23,7.23-25.67,11.31-.28.14-.47.33-.42.44s.31.08.57-.06c8.44-4,17-7.82,25.64-11.22.29-.12.48-.31.46-.44S184.05,219.74,183.77,219.85Z"/><path d="M116.47,244.13c.15-.18.09-.26-.15-.19a1.75,1.75,0,0,0-.65.44c-.12.16,0,.25.15.19A1.56,1.56,0,0,0,116.47,244.13Z"/><path d="M113.9,236.74a31.79,31.79,0,0,0,2.74-2.66,1.58,1.58,0,0,1,.52-.36c-.15-.09,0-.36.33-.69,7.05-6.67,15.22-13.06,23.3-19.4a1,1,0,0,1,.13-.61,6.84,6.84,0,0,1,2.68-2.51l1-.52c3.88-2.23,7.76-4.46,11.7-6.55a16,16,0,0,1,2.43-2c3-2.57,6-5.16,9.16-7.63-.28,0-.49-.07-.58-.24-.15-.44.48-1.22,1.4-1.77l1.38-.87L165.93,193a4.65,4.65,0,0,1-.57.26c-1.46.87-2.93,1.79-4.39,2.77-6.39,4.24-12.35,8.75-18.06,13.36s-11.17,9.3-16.52,14.06a1.55,1.55,0,0,1-.68.43c-.16,0-.2-.11,0-.3,6.31-6.68,11.32-13.35,19.06-20.3,9.23-8.25,18.59-16.24,28.73-24,11.18-7,21.19-14.29,32.64-21.81,4.24-2.78,8.47-5.43,12.73-8,6.63-4.21,13.34-7.84,20.32-11.4,3.45-2.26,7.69-1.44,9.41,1.77a6.86,6.86,0,0,1-.07,6.28l.9-.35,1.55-.21A5.58,5.58,0,0,1,255,146.7l1.51,1.05c2.3,2.22,5.25,3.73,7.35,6.27l.15,1.2.36.23a5.63,5.63,0,0,1,2.65,2.43l.39,1.38a14.2,14.2,0,0,1,.26,4.81,5,5,0,0,1,.35,1.74A7,7,0,0,1,270,170.1a1,1,0,0,1-.06,1.73h0a8.12,8.12,0,0,0,.79.69l.61,0,1.84-.06a5.06,5.06,0,0,1,1.48.81c1.58,2.21,1.58,2.21,1.82,3.3,0,.12,0,.23,0,.34l1,.25a2.56,2.56,0,0,1,.42.33c.22.56.22.56.39.73a2.51,2.51,0,0,1,.17.42c-.11.73-.11.73-.06.92a1.78,1.78,0,0,1-.08.36l-.51.47-1.33-1.23v.56l-.42-.61.32.58-.55-.25.67.4a3.78,3.78,0,0,0-1.46.2,1.61,1.61,0,0,0-.78.32,2.72,2.72,0,0,1,.15.31c-1.14.08-1.14.08-2.27.13a4.09,4.09,0,0,1-.38-.33.45.45,0,0,1-.43.37l-.57,0a.62.62,0,0,1-.09.12l0,.05-.36.42-.07.1h0l-1.54,1.81a5.54,5.54,0,0,1-1,0l.36.19c.24.14.27.71.38.73a41.14,41.14,0,0,0,7.92.13.91.91,0,0,1,1.14.44A.79.79,0,0,1,277,186c-3.91,4.23-10,5.42-15.88,4.76-1.42.14-2.84.32-4.25.51l.29.2-1.18-.07-.12,0,1.13.67.65.1c3.23-.57,6.57,0,9.9.15a42.73,42.73,0,0,1,5.26.87.82.82,0,0,1,.9.63.67.67,0,0,1-.58.8c-4.82,2-10.79,2.91-16,1a4.82,4.82,0,0,1-2.86-.06h-.05l.86.58c-.76,0-1.37-.48-2.1-.55l.64.95c-3.65.4-7.19,1.84-10.91,1.45l-.39,0a19.63,19.63,0,0,1-1.67,1.62c-.15.13-.31.25-.46.36l-.13.09-.21.11-.44.23c-.59.29-1.21.56-1.87.81l2.81-.58a26.36,26.36,0,0,1-5.65,2.62c-5.66,1.8-12.54,2.63-16.55,1.47-10.69,4.42-21.31,9.09-31.63,14.27a1.42,1.42,0,0,1-1.32.15c-.18-.19.07-.57.6-.84,7.17-4.2,14.69-8,22.32-11.59-6.74,2.24-13.46,4.69-20.12,7.61l-2.48,1.26a18.37,18.37,0,0,1-2.57,1,260.36,260.36,0,0,0-24.54,12.55c-6.94,4.14-12.93,7.92-19.65,12.36-9.43,6.25-17.9,12.08-27.48,17.91-1.24.82-2.6,1.3-3,1s.29-1.14,1.52-2c9.55-6.75,19-13.39,28.91-19.73a299.78,299.78,0,0,1,31.07-17.76c2.38-1.14,4.72-2.27,7.06-3.35a.68.68,0,0,1-.18-.2,1.14,1.14,0,0,1,.15-1.1c-2.68,1.2-5.38,2.43-8.12,3.6-7,4.37-14,8.76-21.88,12.75-5.4,2.75-10.49,4.94-15.6,7.38-5.93,3.92-11.75,8-17.67,12a1,1,0,0,1-.63.29c-.14,0-.06-.17.16-.35,3.85-3.12,7.87-6.2,12-9.23-.85.18-1.48.11-1.66-.28s.11-1.07.77-1.82l-3,1.85c-.61.38-1.18.55-1.28.36s.26-.66.84-1q6-3.84,12.09-7.53,7-4.82,14.25-9.39a3.53,3.53,0,0,1-2.05-.2h0l-2.26,1.39c-13.09,9.53-26.63,18.89-40.41,28.23-.26.19-.53.28-.59.21s.11-.27.36-.43l12.39-8.5h0c-.2.06-.29,0-.15-.18a1.85,1.85,0,0,1,.65-.45c.23-.07.27,0,.15.19,7.65-5.3,15.22-10.6,22.63-15.95L116.35,243l-2.1,1.86a1.19,1.19,0,0,1-.65.28c-.1,0,0-.21.2-.38l.59-.51c-1.35.87-2.6,1.24-2.86.82s.69-1.58,2.08-2.52q5.44-3.93,11-7.65l1.16-.87,1.07-1c-5.92,3.63-11.8,7.31-17.56,11.1-.49.34-1,.52-1.09.38s.19-.54.68-.88c9.49-7.65,19.39-15.05,29.62-22.1l8.95-9.06c-.45.28-.9.56-1.36.83A144.1,144.1,0,0,0,130.71,225c-4.77,4-9.43,8.09-14.64,12-.25.21-.52.3-.61.25s.05-.27.32-.46c5-3.91,9.38-7.91,14.32-12,4.08-3.37,8-6.52,11.73-9.81-8.24,5.71-15.58,12-23.4,18.08a2.82,2.82,0,0,1-1,.58.39.39,0,0,1-.13.25c-.87.92-1.85,1.86-2.89,2.78a1.17,1.17,0,0,1-.65.35C113.62,237.12,113.69,237,113.9,236.74ZM258,179.81l.21.14-.6-.16-1.15-1Zm6.7-7.6h0l.66.61Zm-63.54,36a90,90,0,0,1,14.43-4.87l-3.33,1.53C208.54,205.94,204.85,207.06,201.13,208.18Zm64.28-25.34a13.89,13.89,0,0,1-2.78-1.76,4.5,4.5,0,0,1-1.49.68c-1.45.37-2.9.64-4.35.87.35.38,0,.44-.14.55l-.48.28c1.57-.18,3.16-.3,4.79-.39A30.09,30.09,0,0,1,265.41,182.84ZM275,178l.18.14,0,.79S275.05,178.49,275,178Zm0-1.32-.24,0C274.72,176.3,274.82,176.38,275,176.63Zm-2.23-.32a1.58,1.58,0,0,0,.41.3Zm-8.6-20.21.47,3.78-.36-3.67Z"/></g></g></svg>