<svg xmlns="http://www.w3.org/2000/svg" viewBox="0 0 442.58 306.78"><g id="Layer_2" data-name="Layer 2"><g id="Layer_1-2" data-name="Layer 1"><path d="M25.47,99.07c.2-.07.41-.12.61-.18a1.71,1.71,0,0,1-.69,1.15,15,15,0,0,0,6.41-5.93A26.14,26.14,0,0,0,35,86c1.23-1.1,1.71-2.73,1-3.73s-2.44-.93-3.75.23A5.11,5.11,0,0,1,31.1,83a18.31,18.31,0,0,0-4.68,1.35,27,27,0,0,0-4.59,2.54L24,86.05A10.65,10.65,0,0,0,21.48,88l.78.13c-3.49,1.59-6,5.8-5.28,9s3.88,4.24,7,2.6Z"/><path d="M34.64,98.91c-1.71.87-3.49,1.66-5.21,2.55l-.55,0,1.62,1-.08-.1c-.37-2.22.77-4.74,2-6.93l.37-.85a1.61,1.61,0,0,0-.25-1.26c-.55-.75-1.72-.7-2.62.11l-1,1c-3,1.9-6.24,6.3-4.51,9.59.4.74,1.39.95,2.17,1.36a2.58,2.58,0,0,0,3.53-.85,2.7,2.7,0,0,0,.07-3.69c.23-.17.46-.35.7-.5,0,.25,0,.52,0,.78-.63-1,.1-2.31.32-3.53.26-.5.52-1,.8-1.48L29.09,95l-.25.93a3.45,3.45,0,0,1,.37.06,47.55,47.55,0,0,1-1.35,5.25c-.15.82-.31,1.62-.42,2.44a1.2,1.2,0,0,0,1.64,1c.36-.15.71-.3,1.08-.44l-.56.15c.92-.72,1.81-1.49,2.7-2.25s1.83-1.46,2.77-2.09a.81.81,0,0,0,.38-.91A.53.53,0,0,0,34.64,98.91Z"/><path d="M30.25,105.39a1.82,1.82,0,0,0-1,.77,2,2,0,0,0,.08.31l.81-.3C30.7,106,30.61,105.59,30.25,105.39Z"/><path d="M29.31,106.47l-.35.13h.35v-.12Z"/><path d="M62.53,242.67,60,244.56c-.84.64-1.63,1.3-2.44,1.95-1.61,1.32-3.31,2.59-4.78,4l-2.28,2a29.44,29.44,0,0,0-2.22,2.08l-.51.52-.16.18-.33.36c-.21.25-.61.55-.87.86a23.38,23.38,0,0,0-3.1,4.07,6.17,6.17,0,0,0-.77,2.45,3.83,3.83,0,0,0,.64,2.44,11.65,11.65,0,0,0,4,3.13A27.14,27.14,0,0,0,52,270.69c.09,0,.22.07.35.11l.5.14,1.35.42c.91.27,1.85.48,2.77.73,1.87.43,3.76.84,5.7,1.12a84,84,0,0,0,11.84,1,5,5,0,0,0,2-.23,3.76,3.76,0,0,0-1.79-.21,83.21,83.21,0,0,1-11.79-1c-1.92-.28-3.8-.68-5.66-1.1L54.54,271c-.83-.26-2-.63-2.3-.7a27,27,0,0,1-4.58-2,11.77,11.77,0,0,1-3.86-2.93,3.54,3.54,0,0,1-.68-2.29,5.55,5.55,0,0,1,.68-2.34,20.53,20.53,0,0,1,2.91-3.87,9.5,9.5,0,0,1,.85-.83l.3-.34.16-.17.07-.08.23-.24,1-1.06,1.14-1,2.27-2c.77-.66,1.47-1.37,2.3-2l2.44-2,2.42-1.95,2.56-1.88a6.33,6.33,0,0,0,1.65-1.54C64.11,241.65,63.39,242,62.53,242.67Z"/><path d="M233.35,235.58c-1,0-.93.1.05.26s2.35.37,3.3.46.81,0,0-.26A15.27,15.27,0,0,0,233.35,235.58Z"/><path d="M225.48,243.59A61,61,0,0,0,212.27,247c-.75.28-1.6.52-2.26.7.34.07-.54.52-2.25,1.17-16.91,6.44-33.59,15.6-51.13,24.73-8.78,4.56-17.82,9.08-27.26,13.13a192.91,192.91,0,0,1-29.6,10.16,5.74,5.74,0,0,1-1.66.83A42.2,42.2,0,0,1,92,299.48c-1.31.26-2.73.51-4.2.75s-3,.37-4.6.52-3.16.18-4.74.23A116.33,116.33,0,0,1,64,300.66a98,98,0,0,1-14.45-2.27l-1.8-.42L46,297.48l-2-.56a18.31,18.31,0,0,1-2.22-.69c-1.47-.53-3-1-4.4-1.58L33,292.89a67.13,67.13,0,0,1-15.12-9.43,28.28,28.28,0,0,1-5.26-5.28,19.35,19.35,0,0,1-3.52-7.64,21.84,21.84,0,0,1-.43-7.42,30.58,30.58,0,0,1,1.7-7.19A32.91,32.91,0,0,1,13.7,249l4.45-6.7c.74-1.12,1.48-2.26,2.35-3.34.42-.55.82-1.11,1.27-1.66l1.42-1.66,2.56-3c.67-.83,1.38-1.58,2.1-2.33l4.33-4.55c1.47-1.48,3-2.87,4.5-4.31-.88.58-1.48.86-1.61.7-.07-.55,2.56-3.54,6-6.27,1.75-1.42,3.47-2.9,5.24-4.2-1.29.91-2.56,1.9-3.83,2.91l-3.82,3c-2.53,2-5,4.23-7.5,6.35-.7.67-1.35,1.27-2,1.81l-3.92,3.86c-.66.64-1.26,1.38-1.9,2.06l-2.66,3c-.45.51-.94,1-1.35,1.53l-1.21,1.53c-.83,1-1.55,2.07-2.27,3.12l-4.38,6.34-1.2,1.74c-.35.59-.65,1.19-1,1.78a31,31,0,0,0-1.66,3.63c-.49,1.22-.88,2.45-1.28,3.69s-.61,2.51-.82,3.78a29.15,29.15,0,0,0-.36,3.86,25.61,25.61,0,0,0,.24,3.9,21.11,21.11,0,0,0,.87,3.82c.18.62.41,1.23.64,1.83s.54,1.17.83,1.74a27.58,27.58,0,0,0,4.36,6.16,34.36,34.36,0,0,0,2.73,2.66c1,.83,2.09,1.6,3.13,2.41A68.13,68.13,0,0,0,32.44,296l3.91,1.5,4,1.3c.66.21,1.32.45,2,.64s1.3.32,2,.47l3.08.74a105.91,105.91,0,0,0,12.21,1.83,115.78,115.78,0,0,0,23.87-.41c15.62-1.93,30-6.6,43.33-12.28s25.76-12.34,37.86-18.83a22.15,22.15,0,0,1,2.8-1.34c.52-.15.49,0-.39.5-15,8.55-29.27,17.13-45.69,24.27a159.66,159.66,0,0,1-26.68,9.05,115.79,115.79,0,0,1-31.95,3.21c-.86,0-1.72-.06-2.59-.12l-2.59-.21c-1.73-.12-3.47-.37-5.21-.59s-3.48-.56-5.22-.85c-.87-.14-1.74-.35-2.61-.54l-3.06-.71a11.4,11.4,0,0,1-1.82-.5l-1.79-.57-3.6-1.16-3.53-1.32-1.78-.66a12.63,12.63,0,0,1-1.73-.73l-3.33-1.65c-1.12-.56-2.25-1.1-3.28-1.74l-3.18-1.85c-.52-.32-1.09-.6-1.56-.95l-1.39-1.08A48.88,48.88,0,0,1,9.1,287a35.55,35.55,0,0,1-4.19-5.16L4,280.43c-.27-.48-.54-1-.8-1.47a25.4,25.4,0,0,1-1.38-3.1c-.37-1.08-.73-2.18-1-3.29s-.48-2.26-.62-3.4a34.31,34.31,0,0,1,1.21-13.49,37,37,0,0,1,2.44-6.53l.77-1.61c.32-.53.67-1,1-1.57l2-3.14,4.08-6.31a56.31,56.31,0,0,1,4.83-6.26l2.54-2.93c.56-.65,1.1-1.34,1.68-2l3.5-3.7c2.32-2.53,4.75-4.77,7.18-7.08l1.82-1.72,1.85-1.63L38.86,208c9.93-8.48,20.08-15.77,29.69-22.8,10.24-7.05,19.63-13.73,27.67-20.64,1.06-.84,2-1.72,2.94-2.6l2.84-2.61c1-.86,1.75-1.77,2.64-2.65l2.58-2.65a63.27,63.27,0,0,0,7.71-10.27c.54-.84.91-1.67,1.38-2.48s.81-1.62,1.07-2.39a23,23,0,0,0,1.37-4.31,15.17,15.17,0,0,0,.36-3.48,11.72,11.72,0,0,0-.39-2.6,15.24,15.24,0,0,0-2.69-4.92,16.63,16.63,0,0,0-5-4.21,20.06,20.06,0,0,0-8.88-2.05,25.47,25.47,0,0,0-5.38.49,26.16,26.16,0,0,0-5.21,1.65c-.4.19-.8.34-1.22.58l-.64.31a.43.43,0,0,0-.11.08l-.35.28c-.23.18-.46.35-.7.51-.45.4-.92.71-1.37,1.1a58.3,58.3,0,0,0-5.5,4.91,2.56,2.56,0,0,1-2.77,1,9.14,9.14,0,0,1-4.22-2,8.55,8.55,0,0,1-3.26-5,6.17,6.17,0,0,1-.46.43l-1,.43a5,5,0,0,1-3.46.05l-1.66-.42c-2.92-1.12-5.93-1.22-9-2.29l-.81-.87h-.41a6.4,6.4,0,0,1-3.43-.64L50.07,117a13.13,13.13,0,0,1-3-3.7,5,5,0,0,1-1.27-1.23,6.78,6.78,0,0,1-4-2.4.93.93,0,0,1-1-.93,1.18,1.18,0,0,1,.14-.58h0a8.16,8.16,0,0,0-1-.06c-.33.24-.54.37-.54.37-.81.7-.81.7-1.54,1.31a5.42,5.42,0,0,1-1.71.39c-2.61-.67-2.62-.65-3.46-1.37-.06-.11-.11-.21-.16-.32-.72.41-.77.44-1,.54a2.56,2.56,0,0,1-.55.07c-.52-.29-.52-.29-.77-.3a2.75,2.75,0,0,1-.39-.21c-.32-.7-.32-.7-.47-.81a1.5,1.5,0,0,1-.14-.37c.11-.53.16-.73.18-.82l1.87,0-.31-.48.72.18L31,106l.62-.22-.81.19a7.2,7.2,0,0,0,1.2-1.33,2.52,2.52,0,0,0,.53-.89,1.63,1.63,0,0,1-.3-.16c1-.95,1-1,2-1.83a4.42,4.42,0,0,1,.52,0,.64.64,0,0,1,.22-.64l.51-.47,0-.17,0,0c0-.26.08-.44.12-.65l0-.14h0l.66-2.77a8.84,8.84,0,0,1,1-.69l-.44.07c-.3,0-.6-.48-.71-.42a35,35,0,0,0-7.74,6,1.12,1.12,0,0,1-1.31.58c-.44-.2-.53-.78-.22-1.31a20.89,20.89,0,0,1,5.19-9.86,27.2,27.2,0,0,1,9.29-6.56c1.6-1,3.14-2,4.76-3l-.39-.06,1.4-.55.13-.08-1.49-.12-.78.25c-3.63,2.39-7.64,3.89-11.36,6.27-2,1.28-4.07,2.08-6.06,3.3-.41.4-.95.47-1.23.15s-.14-.89.27-1.29C30.84,83.46,38,78,44.82,77.12a7.32,7.32,0,0,1,3.56-1.44l.06,0-1.17-.2c.94-.42,1.78-.17,2.71-.43L49,74.27c4.51-2.21,9.13-5.2,14.09-5.65a5,5,0,0,1,.52-.14A31.39,31.39,0,0,1,66,66.27l.66-.51c.08,0,.07-.05.23-.13l1.29-.54c.87-.35,1.73-.72,2.63-1a78,78,0,0,1,11.48-3.25c-1.37.26-2.73.51-4.08.79s-2.7.64-4,1-2.67.78-4,1.2L66.54,65l0,0,.23-.1.51-.21,1-.44c.69-.28,1.37-.58,2.07-.85,1.41-.51,2.83-1,4.27-1.51a79.74,79.74,0,0,1,8.82-2.27,75.8,75.8,0,0,1,45.21,4.95,72.52,72.52,0,0,1,12.11,6.89A67,67,0,0,1,158.42,90a62.16,62.16,0,0,1,5.14,10,53.35,53.35,0,0,1,4,17.51c.22,1.07.42,2.14.55,3.25s.29,2.18.38,3.29l.19,3.33c.07,1.12,0,2.18,0,3.28a62.74,62.74,0,0,1-.48,6.46c-.12,1.07-.33,2.1-.5,3.15s-.37,2.1-.63,3.1l-.75,3-.92,2.94c-.29,1-.64,1.94-1,2.87s-.72,1.88-1.1,2.8a85.5,85.5,0,0,1-5.27,10.33A104.23,104.23,0,0,1,145,182.59c-2.37,2.54-4.85,5-7.29,7.2L134,193.14c-1.22,1.13-2.49,2.1-3.74,3.16a317.32,317.32,0,0,1-30.42,21.79c-10,6.5-19.79,12.55-28.7,18.86a14.48,14.48,0,0,1-4.06,2.34c-.35-.09.71-1.15,2.52-2.48,12.6-9.35,27-18.11,41.59-28.31a254.8,254.8,0,0,0,21.68-17l5.23-4.86c1.74-1.67,3.48-3.47,5.16-5.3a109.92,109.92,0,0,0,9.52-11.93,101.86,101.86,0,0,1-8.14,9.88c-.71.77-1.43,1.53-2.16,2.26s-1.45,1.5-2.2,2.2L138,185.88l-2.24,2-4.5,3.93-4.6,3.66-2.3,1.82-2.34,1.7-4.67,3.41c-12.52,8.74-25.26,16.24-37.24,23.9l-4.53,3-4.44,3.05-4.32,3c-1.41,1-2.9,1.92-4.27,2.92l-5.14,3.91-4.85,4c-1.59,1.36-3,2.79-4.57,4.18l-1.13,1c-.37.35-.7.73-1,1.09l-.46.49-.24.26-.46.53c-.3.36-.75.75-1.08,1.15l-1,1.26a28.46,28.46,0,0,0-2,2.57,12,12,0,0,0-1.43,2.87A5.8,5.8,0,0,0,39,264.8a5.4,5.4,0,0,0,1.64,2.72,13.48,13.48,0,0,0,2.62,1.88,31.84,31.84,0,0,0,5.86,2.73c.5.19,1,.33,1.54.49l.77.24.46.11.63.17,1.4.4,1.43.33c.95.21,1.9.45,2.88.61a74.82,74.82,0,0,0,12,1.31,95.58,95.58,0,0,0,10.45-.25c3.47-.3,6.84-.71,10.27-1.35a141.91,141.91,0,0,0,20.22-5.35c13.41-4.54,26.65-10.77,41.13-17.82,10.19-5,20.39-9.93,31-14.38,5.29-2.22,10.68-4.31,16.19-6.17a124.05,124.05,0,0,1,17.64-4.79,59.83,59.83,0,0,1,21-.37,44.28,44.28,0,0,1,21,9.81,55.54,55.54,0,0,1,13.38,16.95A76.48,76.48,0,0,1,279.12,271c1.51,6.65,1.83,12.48,1.5,13.26s-1.24-3.56-2.54-10a81.59,81.59,0,0,0-6.38-19.3,54.75,54.75,0,0,0-13.32-17.5,43.36,43.36,0,0,0-9.91-6.45A42.75,42.75,0,0,0,237,227.53a60.14,60.14,0,0,0-21.48,1c-3.28.69-6.42,1.54-9.45,2.47s-5.9,1.9-8.81,2.93c-5.79,2.08-11.43,4.37-17,6.78-11.06,4.82-21.66,10.09-32.14,15.11s-20.85,9.76-31.38,13.6a142.62,142.62,0,0,1-31.88,8,87.91,87.91,0,0,1-31.51-1.88l-1.86-.54c-.51-.14-.9-.23-1.28-.36-.77-.27-1.56-.48-2.32-.79s-1.53-.58-2.27-.93-1.49-.69-2.22-1.07-1.43-.8-2.14-1.22a17.47,17.47,0,0,1-2-1.39,6.81,6.81,0,0,1-2.7-4,7.24,7.24,0,0,1,.55-4.16,17.23,17.23,0,0,1,2.14-3.64c.87-1.11,1.76-2.18,2.64-3.26.42-.53,1-1,1.4-1.49s.68-.78,1.64-1.78c-.15,0-.29,0-.35,0-.26-.25.06-1.16,1-2.38-.49.46-1,.9-1.45,1.39L43,251.09c-.53.57-1.06,1.15-1.7,1.77-1.15,1.29-2.23,2.65-3.36,4a18.64,18.64,0,0,0-2.69,4.53,7.33,7.33,0,0,0-.29,5.19,8,8,0,0,0,2.33,2.87,19.58,19.58,0,0,0,3.13,2,40.37,40.37,0,0,0,6.67,3c1.13.42,2.29.73,3.43,1.06l.47.11.54.14,1.3.35c.87.24,1.77.39,2.65.6a79.46,79.46,0,0,0,10.9,1.55,100.72,100.72,0,0,0,11.28.2q5.7-.27,11.47-1.1a155.08,155.08,0,0,0,23.53-5.56,334.58,334.58,0,0,0,31.52-12c10.24-4.37,20.37-8.94,30.88-13.28,6.56-3,13.23-5.86,20.09-8.44,3.43-1.28,6.91-2.5,10.44-3.62a110.18,110.18,0,0,1,11.09-2.95,63.84,63.84,0,0,1,12.1-1.37,43.5,43.5,0,0,1,12.94,1.69c1.09.28,2.15.71,3.22,1.08s2.11.86,3.11,1.4a39.66,39.66,0,0,1,5.74,3.51A45.92,45.92,0,0,1,263,247a15.79,15.79,0,0,1,1.79,2.7c.19.46-.27-.1-1.08-1.19a45.56,45.56,0,0,0-13.12-12,38.12,38.12,0,0,0-8.55-3.74,40.53,40.53,0,0,0-9-1.56,59.42,59.42,0,0,0-17.09,1.61c-2.69.61-5.31,1.34-7.87,2.14-1.29.39-2.53.81-3.78,1.23s-2.49.86-3.72,1.3c3.24-.77,5.27-.9,5.15-.41s-2.43,1.68-6,3.23c4.46-1.52,8.94-3,13.65-4.12,2.9-.7,5.29-.95,5.24-.7s-2.33.86-5.06,1.53a203.78,203.78,0,0,0-27.17,9.36C177.57,250,169,254,160.52,258c-10.13,5-20.15,9.93-30.37,14.28a192.4,192.4,0,0,1-31.36,10.63,31.49,31.49,0,0,1,6.53-.27h0c3.31-.94,6.61-1.92,9.85-3,14.83-5.37,29.09-12.5,43.51-19.68s29.1-14.42,44.78-19.78c7.79-2.65,16-5.07,24.86-5.3a38.71,38.71,0,0,1,13.29,1.88,34.46,34.46,0,0,1,11.76,6.79c6.8,5.93,11.37,13.84,14.11,22s4,16.6,5,24.78a8.62,8.62,0,0,1,.14,2.38,6.48,6.48,0,0,1-.44-2.09c-1.27-9.86-2.75-20.08-6.91-29.73a49.79,49.79,0,0,0-8.41-13.37,36.76,36.76,0,0,0-13-9.53l.08,0c.78.41.88.57,0,.26s-2.39-.86-3.19-1.2-.82-.43,0-.27A40.78,40.78,0,0,0,226,235.31a72.47,72.47,0,0,0-14.14,2.59,212.29,212.29,0,0,0-26.12,9.6c-16.88,7.37-32.81,16.1-49.08,23.61,15.23-6.73,30.09-14.51,45.52-21.26a245.34,245.34,0,0,1,23.65-9.07,106.55,106.55,0,0,1,12.37-3.27,54.93,54.93,0,0,1,13-1,35.72,35.72,0,0,1,11.51,1.92,12.48,12.48,0,0,1,2.63,1.33c.22.22-.51-.09-1.54-.49a31.35,31.35,0,0,0-3.09-1.07,25.24,25.24,0,0,1,7.46,3.89c1.67,1.3,2.46,2.29,2.26,2.45-.62.24-5.14-3.11-11.52-4.82a38.11,38.11,0,0,0-13.07-1,70.93,70.93,0,0,0-12.92,2.43A213.25,213.25,0,0,0,188.1,250c-1.74.75-3.46,1.56-5.19,2.35s-3.41,1.71-5.09,2.6c6.21-2.79,12.49-5.44,18.85-7.82,3.19-1.19,6.39-2.31,9.62-3.33s6.48-2,9.76-2.73c6.54-1.5,13.32-2.2,19.8-1a29.84,29.84,0,0,1,9.15,3.34,33.2,33.2,0,0,1,7.63,6.09c1.58,1.6,2.62,3.24,2.5,3.39s-1.32-1.2-2.86-2.79A29.72,29.72,0,0,0,238,241.8a39.89,39.89,0,0,0-16.82,0,106.72,106.72,0,0,0-16.85,4.9c-5.57,2-11.07,4.3-16.52,6.73-21.79,9.74-42.8,22.07-66,30.88a178.58,178.58,0,0,1-23.23,8.47,123.39,123.39,0,0,1-25.25,4.47c1.1,0,2.2,0,3.31-.06S78.9,297.1,80,297c14.15-.95,27.12-4.57,39.14-9.06A313.69,313.69,0,0,0,153,272.27c10.79-5.62,21.31-11.38,32.2-16.58,5.44-2.59,11-5.05,16.68-7.26a119.33,119.33,0,0,1,17.48-5.52,8.39,8.39,0,0,1,2.37-.27c.14.06-.65.31-1.85.53A112.54,112.54,0,0,0,203,248.5c-5.52,2.12-10.87,4.51-16.17,7-10.6,5-21,10.7-32,16.43-9.15,4.74-18.25,9.28-27.53,13.28a199,199,0,0,1-28.55,9.95,176.79,176.79,0,0,0,28.75-9.37c9.12-3.81,17.84-8.08,26.38-12.44,17.05-8.7,33.5-17.79,51.14-24.27a30.3,30.3,0,0,1,4.13-1.29,3.34,3.34,0,0,1,.83-.42,70.14,70.14,0,0,1,14-4,10.58,10.58,0,0,1,2.61-.16C227.06,243.32,226.5,243.44,225.48,243.59ZM48.48,94l-.26,0,.67-.15,1.53.48Zm-3.14,10.67h0l-.89-.17Zm84.45,87c2.15-1.78,4.22-3.75,6.33-5.62s4.2-4,6.22-6.12a106.8,106.8,0,0,0,11.32-14.13,77.72,77.72,0,0,0,8.78-17.26,64,64,0,0,0,3.77-20.64,62.8,62.8,0,0,1-3,20.37,81.45,81.45,0,0,1-14.49,25.1,117.3,117.3,0,0,1-9.22,9.86c-.81.74-1.62,1.54-2.43,2.23l-2.43,2.1C133.06,189,131.46,190.41,129.79,191.69Zm-90-96.37a11,11,0,0,1,3.53,0,6.13,6.13,0,0,1,1.23-1.51,34.11,34.11,0,0,1,4.23-3.15c-.5-.22-.15-.45,0-.63l.41-.51-2.45,1.41L44.2,92.39C42.72,93.32,41.24,94.48,39.74,95.32ZM33.11,106.5l-.24,0-.41-.7Zm.74,1.15.23-.16C34.25,107.73,34.12,107.74,33.85,107.65ZM36,106.27a1.53,1.53,0,0,0-.52,0Zm18.46,11.64-2.53-2.79c.78.93,1.57,1.84,2.37,2.75Z"/><path d="M73.08,24.87l.26,0c0,.17-.16.28-.35.36,2.45,0,3.93-2.31,4.33-4.49a1.1,1.1,0,0,0-1.18-1.85,1.72,1.72,0,0,1-.44.06,8.48,8.48,0,0,0-3.68.26h.86a2.85,2.85,0,0,0-1,.4l.31.18a2.53,2.53,0,1,0,.26,5.06Z"/><path d="M76.93,26.32c-.79.11-1.58.18-2.37.24l-.23-.08.61.71,0-.06a4.52,4.52,0,0,1,1.24-2.62l.19-.32a.81.81,0,0,0-1.16-.91l-.45.24c-1.3.34-2.85,1.51-2.44,3.17.1.39.49.67.78,1a1.11,1.11,0,1,0,1.85-1.24l.33-.09-.06.32c-.19-.53.18-1,.34-1.45l.4-.5-1.16-.92-.14.35.15.08a9.72,9.72,0,0,1-.86,2l-.35.94a.67.67,0,0,0,.6.7l.49,0-.25,0c.9-.28,1.74-.7,2.64-1a.28.28,0,0,0,.21-.33A.27.27,0,0,0,76.93,26.32Z"/><path d="M74.6,28.36a.64.64,0,0,0-.5.14v.14l.37,0C74.73,28.69,74.73,28.52,74.6,28.36Z"/><path d="M74.1,28.64h-.16l.15.06v-.05Z"/><path d="M96,8.35a36.73,36.73,0,0,0,3.7-2s0-.1,0-.17-.13-.1-.16-.08a41.26,41.26,0,0,1-3.7,2s0,.1,0,.17S95.93,8.36,96,8.35Z"/><path d="M109.59,9a.24.24,0,0,0,.14.17c.06,0,.1,0,.09-.07a.26.26,0,0,0-.14-.17C109.61,8.88,109.58,8.92,109.59,9Z"/><path d="M113.63,14.67a1.89,1.89,0,0,0-.12.74c0,.05,0,.06-.07.05a.48.48,0,0,1,.13.32,15.23,15.23,0,0,1-2,4.47,1.82,1.82,0,0,1,.16.31c.13.34.09.61-.12.69l-.18,0c-.63.23-1.24.49-1.88.7a.79.79,0,0,1-.17.52,12.93,12.93,0,0,1-.59,2,.83.83,0,0,1,.26.24c.18.25.22.51.09.59l-.17.16.67-.22h.1a4.18,4.18,0,0,0,.57-.47,15,15,0,0,0,3.23-6c0-.06,0-.08.12,0a.22.22,0,0,1,.11.18c-.06,2,.31,4.3-.21,6a31,31,0,0,1-2.25,5.57c-1.47,1.13-2.36,2.77-3.51,4.35-.39.54-.79,1-1.21,1.52a1.65,1.65,0,0,1-.2.21l-.33.31-.68.61q-.68.62-1.35,1.2c-1.82,1.58-3.69,3.09-5.59,4.61a3.32,3.32,0,0,1-4.7,0,3.37,3.37,0,0,1-.94-2.89l-.37.26-.69.26a2.9,2.9,0,0,1-2,0l-.86-.3c-1.41-.75-3-1.06-4.35-1.93l-.25-.52L84,38a2.89,2.89,0,0,1-1.58-.73L82,36.72a6.67,6.67,0,0,1-.87-2.15,2.56,2.56,0,0,1-.43-.75,3.44,3.44,0,0,1-1.55-1.68.47.47,0,0,1-.24-.8h0l-.47-.19-.28.09-.82.33a2.21,2.21,0,0,1-.79-.12c-1.06-.75-1.06-.75-1.34-1.21a.9.9,0,0,1,0-.16l-.48.05a1.26,1.26,0,0,1-.24-.07c-.18-.22-.18-.22-.29-.27a1.27,1.27,0,0,1-.14-.17c-.06-.35-.06-.35-.11-.43a.94.94,0,0,1,0-.18c.09-.2.13-.27.15-.31l.79.33-.08-.26.28.21-.23-.21.28,0-.36-.07a2.17,2.17,0,0,0,.63-.35.87.87,0,0,0,.3-.29L75.58,28l1-.46.22.09a.23.23,0,0,1,.14-.24l.25-.13,0-.07v0c0-.1.06-.18.09-.26l0-.06h0c.07-.18.16-.44.41-1.13a3.16,3.16,0,0,1,.46-.16l-.19,0c-.13,0-.24-.29-.29-.29a17.44,17.44,0,0,0-3.59,1.35.43.43,0,0,1-.59,0,.42.42,0,0,1,0-.59A9,9,0,0,1,80,20.87l1.86-1-.17-.05.56-.16,0,0-.63-.15-.31,0a26.82,26.82,0,0,1-4.53,1.63,22.07,22.07,0,0,1-2.51.55.37.37,0,1,1-.38-.63c1.85-1.87,4.41-3.44,7.11-3.37a2.14,2.14,0,0,1,1.32-.44h0l-.49-.15c.35-.14.71,0,1.06-.07l-.45-.37c1.61-.8,3-2.09,4.81-2.44l.18-.07a8.61,8.61,0,0,1,.94-1.79l-.46.12a1.47,1.47,0,0,1,.52-.89,3.11,3.11,0,0,1,3.36.48A49.84,49.84,0,0,0,95.49,8.4c.06-.08.19,0,.31.09s.16.3.11.37a16.35,16.35,0,0,1-2.26,3.23,15.53,15.53,0,0,0,2.91-1.46l.29-.31a.68.68,0,0,1,.38-.18,13.17,13.17,0,0,0,3-2.76,28.87,28.87,0,0,0,1.94-3.13A12.4,12.4,0,0,1,105.13.08c.15-.18.5,0,.79.27s.4.74.26.92c-1.92,3.18-3.61,6.55-6.6,8.6l-1,.64.11.14a2,2,0,0,1,.32.56,9.5,9.5,0,0,1,1.2-.58,6.59,6.59,0,0,1,2.51-2.88,9.25,9.25,0,0,1,2.71-.63c.66-.85,1.28-1.76,2-2.59,0,0,.08,0,.14,0a.19.19,0,0,1,.08.19,13.48,13.48,0,0,1-1,2.4,2.26,2.26,0,0,1,.75.68,2.17,2.17,0,0,1,.43.94l.42-.29c.09-.05.25,0,.37.18s.16.34.08.4l-1.7,1.21c-.53.68-1.07,1.34-1.63,2a2.88,2.88,0,0,1,.77.6h0l.28-.26A14,14,0,0,1,111.26,7s.12,0,.17.07.08.16,0,.18a11.25,11.25,0,0,0-1.73,1.36h0a.27.27,0,0,1,.14.17c0,.07,0,.1-.09.08a.28.28,0,0,1-.14-.18A15.37,15.37,0,0,0,107.13,12a17.5,17.5,0,0,1,3-2.25c0-.17.07-.35.11-.52s.09,0,.15,0a.21.21,0,0,1,.07.19l0,.13c.2-.11.58.08.87.46s.35.81.15.94c-.46.47-.94.91-1.44,1.33l-.11.19,0,.31c.91-.47,1.85-.9,2.79-1.32.07-.06.21,0,.31.13s.14.29.07.35a28.22,28.22,0,0,1-3.34,4.41c0,.94,0,1.89-.07,2.82a.82.82,0,0,0,.2-.12c1.54-1.19,1.58-3.85,2.81-5.34,0-.05.1,0,.16,0s.08.15,0,.18a17.2,17.2,0,0,0-1.2,2.82,14.65,14.65,0,0,0-.9,2.4c1-1,1.55-2.6,2.43-3.79,0-.07.1-.07.19,0a.19.19,0,0,1,0-.11,2.32,2.32,0,0,1,.12-.78c0-.05.06-.05.14,0A.23.23,0,0,1,113.63,14.67Zm-30.49,11-.12,0h.3L84,26Zm-1.87,4.64h0l-.4-.18ZM95,12.14a4.59,4.59,0,0,1-2.15.9l.36-.42A16.77,16.77,0,0,1,95,12.14ZM79.26,25.42a5.91,5.91,0,0,1,1.54.39,2.21,2.21,0,0,1,.58-.56,18.38,18.38,0,0,1,1.85-1.1c-.22-.14-.07-.22,0-.29l.17-.21c-.69.32-1.4.63-2.13.94A16.4,16.4,0,0,1,79.26,25.42Zm-3.55,3.93-.1,0-.12-.37Zm.2.61.12,0C76.08,30.07,76,30.05,75.91,30ZM77,29.72a.7.7,0,0,0-.23-.06Zm7.06,8L83.23,36,84,37.67Z"/><path d="M209.52,61.68l.64,0c-.08.35-.43.63-.93.86a13.75,13.75,0,0,0,7.43-3.87,20.85,20.85,0,0,0,4.43-6.37c1.37-.73,2.06-2.06,1.54-3s-2.14-1.13-3.59-.39a5.71,5.71,0,0,1-1.14.2,28,28,0,0,0-9.6,1.44l2.25-.24a10.93,10.93,0,0,0-2.79,1.09l.73.28c-3.68.58-7,3.49-7.09,6.43s3,4.61,6.52,3.87Z"/><path d="M218.56,63.36c-1.85.44-3.69.85-5.6,1.25l-.54-.08,1.4,1.22-.06-.1c.09-2,1.67-4,3.29-5.71l.51-.67a1.3,1.3,0,0,0,0-1.14,1.89,1.89,0,0,0-2.56-.39l-1.16.63c-3.25,1-7.42,4.1-6.43,7.43.24.75,1.21,1.17,1.91,1.7a2.88,2.88,0,0,0,3.73,0c1.22-.91,1.58-2.36.81-3.29l.78-.3c-.05.23-.11.46-.17.69-.41-1,.53-2,1-3.06l1.06-1.13-2.61-1.51-.42.75c.13.05.35.11.35.12a32,32,0,0,1-2.35,4.33c-.32.68-.62,1.38-.92,2.08A1.21,1.21,0,0,0,212,67.39l1.17-.16h-.59c2.13-.92,4.13-2,6.22-2.82a.72.72,0,0,0,.54-.74A.54.54,0,0,0,218.56,63.36Z"/><path d="M213,68.3a1.9,1.9,0,0,0-1.19.49v.3l.88-.11C213.32,68.91,213.31,68.56,213,68.3Z"/><path d="M211.81,69.09l-.37,0,.35.06,0,0Z"/><path d="M268.34,205.52l-.33.91c-.1.25-.16.33-.24.5l-.46.9c-.33.6-.54,1.22-.81,1.83a27.85,27.85,0,0,0-1.32,3.86,17.24,17.24,0,0,0-.61,4.12,8.34,8.34,0,0,0,.91,4.07,6.45,6.45,0,0,0,3.1,2.71,12.14,12.14,0,0,0,4.09.89,30.32,30.32,0,0,0,4.26,0l2.16-.19,4.91-.58c.85-.11,1.54-.33,1.55-.52s-.67-.24-1.44-.13l-5,.59-2.05.17a29,29,0,0,1-4.06,0,12.18,12.18,0,0,1-3.88-.83,6.31,6.31,0,0,1-3-2.54,7.88,7.88,0,0,1-.9-3.85,15.9,15.9,0,0,1,.56-3.9,27.14,27.14,0,0,1,1.24-3.66c.26-.59.47-1.17.77-1.74l.43-.85.22-.43a2.24,2.24,0,0,0,.15-.37l.15-.45a2.56,2.56,0,0,0,.19-1.42C268.81,204.51,268.56,204.91,268.34,205.52Z"/><path d="M413.82,226.53c-.54-.56-.63-.46-.24.25a14.62,14.62,0,0,0,1.48,2.2c.41.49.53.38.24-.24A11.2,11.2,0,0,0,413.82,226.53Z"/><path d="M401.53,228.59a26.57,26.57,0,0,0-8.34-5.05,7,7,0,0,1-1.34-.67c.07.29-.58.24-1.64-.07-5.25-1.41-10.7-.66-16.9,1.43-.77.25-1.56.54-2.36.84l-2.45,1-2.45,1-2.44,1.1c-3.25,1.48-6.49,3.15-9.75,4.93-6.53,3.56-13.1,7.64-20.14,11.81L331,246.46c-1,.54-1.9,1.08-2.87,1.6-1.92,1.07-3.91,2.07-5.91,3.06a128.35,128.35,0,0,1-12.42,5.25,3.38,3.38,0,0,1-1.27,1.1c-2.17,1.45-7,3.22-12.11,4.13-1.29.22-2.58.39-3.87.57-1.92.29-4,.56-5.65.76l-2.83.34c-1.25.17-2.53.3-3.79.43a104.62,104.62,0,0,1-15.06.6A55.75,55.75,0,0,1,251,262a35.35,35.35,0,0,1-12.39-6.58,17.69,17.69,0,0,1-2.42-1.83,19,19,0,0,1-2.33-2.25l-1.1-1.3c-.37-.44-.67-.93-1-1.4s-.68-1-1-1.47-.57-1.05-.85-1.59a36.58,36.58,0,0,1-4.07-11.42c-.18-1-.36-2-.49-3.05a24.6,24.6,0,0,1-.32-3.12,51.74,51.74,0,0,1,.07-6.46,65.85,65.85,0,0,1,2.4-13.41c.63-2.28,1.57-4.44,2.4-6.67l1.29-3.33c.11-.28.21-.57.33-.84l.43-.77.85-1.55c-.78,1-1.36,1.52-1.58,1.44-.18-.25.2-1.37,1-3,.39-.82.88-1.77,1.45-2.8l.44-.78c.15-.27.31-.56.44-.75l.89-1.3,1.86-2.66.94-1.31,1-1.25a42.48,42.48,0,0,0-2.89,3.65L235,188l-.69.95c-.23.33-.51.8-.76,1.19-2,3.31-4.3,6.45-5.74,10.18-.46,1-.92,2-1.35,2.88a46.74,46.74,0,0,0-2.3,6.11c-.66,2.08-1.17,4.18-1.62,6.28a59.92,59.92,0,0,0-1.3,12.55,42,42,0,0,0,.58,6.59,44.16,44.16,0,0,0,1.33,6.33c.36,1,.69,2,1.06,3l1.26,3,1.55,2.81c.59.9,1.22,1.77,1.83,2.65s1.34,1.7,2,2.53,1.53,1.53,2.3,2.28a30.53,30.53,0,0,0,2.47,2.08,23.72,23.72,0,0,0,2.62,1.84,44,44,0,0,0,11.69,5c8.23,2.17,17.17,2.2,26,1.16,2.2-.26,4.39-.58,6.56-.9.55-.07,1.09-.19,1.63-.27l1.39-.25,2.17-.41,4.59-.93c1.59-.36,3.16-.7,4.74-1.11a128.76,128.76,0,0,0,18.55-6.14,136.71,136.71,0,0,0,17-8.67c10-6.07,18.71-12,27.65-16.66a7.06,7.06,0,0,1,2.1-.86c.4,0,.41.18-.23.53a180.87,180.87,0,0,0-15.91,10.6L338,248.23l-4.27,3.05c-1.56,1.08-3.17,2.15-4.82,3.19a121.81,121.81,0,0,1-34.51,15c-1.08.3-2.15.55-3.24.81l-3,.72-1.47.33-.77.17-.48.1-.6.11c-1.61.34-3.27.56-4.93.84-2,.31-4,.57-6,.85s-4,.39-6,.46l-3,.13c-1,.06-2,0-3,0s-2,0-2.95-.1l-2.91-.25c-1-.07-1.93-.23-2.88-.38s-1.91-.28-2.84-.48a53.27,53.27,0,0,1-5.52-1.46,46.17,46.17,0,0,1-10.35-4.62l-2.4-1.55-2.25-1.77a24,24,0,0,1-2.15-1.89l-1.05-1-.26-.25-.06-.06c-.1.05-.06,0-.1,0l-.12-.14-.47-.54a44.87,44.87,0,0,1-6.56-9.26,43.73,43.73,0,0,1-4-10.59c-.42-1.87-.78-3.77-1.11-5.68a18.5,18.5,0,0,1-.33-2.93c0-1-.17-2-.13-3a63.31,63.31,0,0,1,1-12.43,60.58,60.58,0,0,1,3.58-12.63l2.55-6.17.65-1.54.32-.78a6.23,6.23,0,0,1,.41-.71l1.69-2.82,1.71-2.83.85-1.41.43-.71c.14-.23.29-.5.4-.64q1.44-2.09,2.91-4.13c.51-.67,1-1.37,1.51-2l1.62-1.92,1.65-1.89a22.19,22.19,0,0,1,1.68-1.8c1.14-1.15,2.31-2.28,3.47-3.4s2.34-2,3.51-3a147.19,147.19,0,0,1,13.33-9.56c4.34-2.72,8.31-5.15,11.78-7.81,1.83-1.3,3.42-2.7,5.07-4.11.85-.68,1.57-1.46,2.34-2.2s1.53-1.49,2.27-2.26c1.41-1.61,2.83-3.21,4.17-4.89s2.59-3.49,3.77-5.21a52.42,52.42,0,0,0,5.47-10.49,42,42,0,0,0,2.63-11.1,35.11,35.11,0,0,0-.6-10.86l-.28-1.3c-.11-.43-.25-.84-.37-1.25-.21-.84-.55-1.65-.82-2.46a31.35,31.35,0,0,0-2.2-4.69,29.85,29.85,0,0,0-6-7.63A12.34,12.34,0,0,0,280,78.69a2.59,2.59,0,0,0-.78-.19l-.17,0a.45.45,0,0,0-.11,0l-.19.08c-.26.12-.5.28-.82.42a6.13,6.13,0,0,1-1.59.44c-.34.08-1.82,0-1.85.19a7.79,7.79,0,0,0-1,.31,22.05,22.05,0,0,0-4.06,2c-.34.19-.71.48-1.05.7a5.93,5.93,0,0,0-.54.38l-.12.1-.38.33c-.25.21-.51.48-.77.7s-.51.48-.77.73-.51.48-.77.75c-1,1-2.09,2.13-3.13,3.32s-2.1,2.46-3.13,3.82c-1.28,2.37-4.07,2.58-6.48.29a7.63,7.63,0,0,1-2.3-5.35l-.5.52-1,.57a4,4,0,0,1-3.28.23l-1.5-.43c-2.58-1.18-5.43-1.44-8.2-2.81l-.64-1-.39,0a5.61,5.61,0,0,1-3.2-1l-.93-1a12.68,12.68,0,0,1-2.28-4.06,4.5,4.5,0,0,1-1-1.36,6.43,6.43,0,0,1-3.47-2.9.89.89,0,0,1-.86-1.05,1.18,1.18,0,0,1,.25-.5h0a9.8,9.8,0,0,0-1-.23c-.37.17-.6.25-.6.25l-1.76,1a5.6,5.6,0,0,1-1.77,0c-2.47-1.12-2.49-1.12-3.19-1.95a2,2,0,0,1-.09-.33c-.81.24-.87.25-1.09.3a2.57,2.57,0,0,1-.57-.05c-.46-.38-.46-.38-.71-.44a2,2,0,0,1-.35-.27c-.18-.71-.18-.71-.31-.85a1.56,1.56,0,0,1-.07-.36c.23-.45.31-.63.35-.71l1.89.36-.21-.51.68.32-.56-.35.67-.07h-.85a6,6,0,0,0,1.46-1,2.32,2.32,0,0,0,.7-.69,1.79,1.79,0,0,1-.27-.21c1.18-.64,1.18-.65,2.34-1.25a3.29,3.29,0,0,1,.51.1.56.56,0,0,1,.33-.53l.59-.33.06-.15,0,0,.25-.55,0-.12h0c.17-.37.42-.91,1.12-2.35a11.53,11.53,0,0,1,1.08-.43h-.43c-.3,0-.49-.52-.61-.5a43,43,0,0,0-8.69,3.82,1.2,1.2,0,0,1-1.42.24c-.39-.27-.37-.81.05-1.21,2.89-6,10-10.14,16.87-11.72l4.93-2-.36-.09,1.41-.32.14,0-1.39-.26-.78.12c-3.78,1.62-7.79,2.36-11.74,3.76-2.12.75-4.24,1.08-6.41,1.71a1,1,0,0,1-1.22-.12c-.21-.32,0-.79.49-1,5.27-4.31,12.77-7.77,19.36-7.7a8.28,8.28,0,0,1,3.56-.83h.05L234.33,45a19.43,19.43,0,0,1,2.63-.09l-.77-.7c2.28-.71,4.64-1.53,7-2.23a26.2,26.2,0,0,1,7.22-1.14l.53-.06a21.62,21.62,0,0,1,2.63-1.54l.73-.32a1,1,0,0,1,.22-.09l1.07-.26,2.21-.45a58.75,58.75,0,0,1,9.51-1.05c-1.15,0-2.28,0-3.39.1s-2.23.13-3.32.26-2.2.23-3.28.41l-1.63.25-1.41.25h0l.19-.05.43-.11c.28-.07.56-.15.85-.21l1.74-.36c1.14-.26,2.35-.42,3.53-.62a62.61,62.61,0,0,1,7.33-.63c1.25,0,2.53,0,3.79,0s2.57.17,3.85.28l1.94.28,1,.14.48.08.24,0,.13,0,3.33.69A45.83,45.83,0,0,1,294.61,42,44,44,0,0,1,300,45.34c.79.6,1.57,1.22,2.34,1.83s1.43,1.28,2.12,1.92A54.1,54.1,0,0,1,316,65.38a61.08,61.08,0,0,1,4.89,15.35,52.88,52.88,0,0,1,.92,11.9,76.85,76.85,0,0,1-.35,16.83,93.16,93.16,0,0,1-3.6,16.05,107.84,107.84,0,0,1-6.14,14.93c-.62,1.18-1.2,2.39-1.87,3.55l-1,1.75-1,1.64-2,3.31c-.65,1.1-1.32,2.2-2,3.27-2.8,4.34-5.74,8.65-8.89,12.79l-2.36,3.12-2.41,3-1.2,1.53-1.21,1.46-2.41,3c-3.16,3.82-6.24,7.55-8.77,11a55.89,55.89,0,0,0-5.78,9.93c-.54,1.31-1.1,2.34-1.45,2.41s-.17-1,.33-2.35c.46-1.16,1.05-2.31,1.58-3.51s1.34-2.39,2.06-3.62,1.61-2.48,2.53-3.76,1.87-2.54,2.93-3.88c4.16-5.25,9-10.9,13.55-16.79a199.64,199.64,0,0,0,12.67-18.44l2.83-4.76c.95-1.66,1.86-3.36,2.71-5.08a101.84,101.84,0,0,0,4.6-10.6c-1.16,3-2.5,5.95-3.94,8.82-.72,1.44-1.49,2.85-2.26,4.25l-1.2,2.09-1.23,2c-1.64,2.62-3.24,5.27-5.07,7.81-.9,1.27-1.72,2.6-2.67,3.85L296.05,162c-3.82,5-7.89,9.86-12,14.41s-8,8.92-11.19,13.11l-1.19,1.63c-.37.54-.69,1.07-1,1.6l-1,1.6c-.34.52-.59,1.06-.88,1.59-.56,1-1.19,2-1.64,3.06l-.75,1.5-.39.73-.32.77-.75,2c-.11.31-.26.7-.36.92l-.28.61c-.35.81-.78,1.6-1.05,2.43a44.33,44.33,0,0,0-1.62,5,25.67,25.67,0,0,0-.84,5.13,12.13,12.13,0,0,0,.7,5.1,7.48,7.48,0,0,0,3.28,3.88,12.07,12.07,0,0,0,5,1.43,26.33,26.33,0,0,0,5.25-.11c.87-.1,1.74-.23,2.6-.37l1.29-.23c.46-.08.67-.14,1.76-.3,3.31-.52,5.81-.94,8.5-1.51s5.18-1.21,7.66-1.93a99.72,99.72,0,0,0,14.33-5.47c2.39-1.12,4.58-2.24,7.3-3.69l8.2-4.33c5.66-3,11.76-6.08,18.55-9A133,133,0,0,1,360,196.18a78.43,78.43,0,0,1,17.55-3.3,52.22,52.22,0,0,1,20.77,3,49.18,49.18,0,0,1,9.47,4.7,60,60,0,0,1,7.64,5.8,62.52,62.52,0,0,1,6.51,6.86,67.71,67.71,0,0,1,5.06,7.27,97.89,97.89,0,0,1,6.82,13.9l1.31,3.27c.45,1.15.92,2.37,1.35,3.57.88,2.4,1.63,4.84,2.34,7.3a111.17,111.17,0,0,1,3.16,15,55.56,55.56,0,0,1,.6,7.35,12.12,12.12,0,0,1-.36,3.82c-.44.71-1-3.09-1.74-8.4a111.56,111.56,0,0,0-3.43-15.44c-.75-2.54-1.6-5.06-2.53-7.55-.47-1.24-1-2.48-1.48-3.71l-1.47-3.45a102.6,102.6,0,0,0-7.43-14.39,58.13,58.13,0,0,0-12.38-14.14c-1.24-1.06-2.58-2-3.9-2.93l-2-1.33c-.66-.43-1.49-.88-2.24-1.3a46.49,46.49,0,0,0-9.95-4A50.42,50.42,0,0,0,373.25,197a75.59,75.59,0,0,0-8.85,1.79c-1.37.36-2.64.74-4,1.11s-2.59.8-3.86,1.23c-5.1,1.73-10,3.72-14.68,5.85s-9.15,4.39-13.46,6.63l-6.36,3.31L319,218.48,316,220a101.19,101.19,0,0,1-23.21,8.36c-2,.47-4.08.85-6.16,1.22l-3.2.49-3.42.49a61.5,61.5,0,0,1-7.81.8,24.83,24.83,0,0,1-3.95-.18,15.34,15.34,0,0,1-3.85-.92,9.21,9.21,0,0,1-3.32-2.14,9.4,9.4,0,0,1-1.26-1.54,11.9,11.9,0,0,1-.84-1.81,15.6,15.6,0,0,1-.6-6.78,34.72,34.72,0,0,1,1.45-6.59,1.09,1.09,0,0,1-.36.1c-.45,0-.74-.42-.84-1.18a44,44,0,0,0-2,8.15,25.42,25.42,0,0,0-.18,4.28,15.35,15.35,0,0,0,.89,4.23,9.79,9.79,0,0,0,4.22,4,15.81,15.81,0,0,0,5.72,1.47,47.63,47.63,0,0,0,11.55-.88l1.43-.24,2.44-.37,2.37-.37c.74-.13,1.49-.23,2.23-.37,3-.51,5.89-1.13,8.79-1.84a120.2,120.2,0,0,0,17.27-5.69l3-1.25,3-1.35,6.35-2.9c4.28-1.94,8.63-3.9,13.09-5.71s9-3.53,13.74-5c2.35-.74,4.73-1.43,7.16-2,1.21-.31,2.42-.61,3.66-.87l1.84-.4,1.93-.38a64.69,64.69,0,0,1,10.37-1.7,45.22,45.22,0,0,1,11.37.55,41.46,41.46,0,0,1,11.19,3.65c.9.41,1.72.91,2.57,1.38s1.56,1,2.34,1.46a47.61,47.61,0,0,1,4.4,3.26,52.61,52.61,0,0,1,7.59,7.71,67.2,67.2,0,0,1,5.7,8.47c1.62,2.84,3,5.65,4.31,8.43.63,1.38,1.25,2.76,1.83,4.12s1.24,2.87,1.81,4.32a9.12,9.12,0,0,1,.71,2.32c0,.38-.26-.09-.65-1s-.86-2-1.3-3L428,239.87c-.88-1.85-1.81-3.74-2.79-5.65a88.17,88.17,0,0,0-7.08-11.61,55,55,0,0,0-4.73-5.62,50.3,50.3,0,0,0-5.65-5c-1-.79-2.05-1.49-3.09-2.21s-2.08-1.34-3.3-2a39.69,39.69,0,0,0-7.47-3.13c3.13,1.54,4.6,3,4.1,3.47s-3-.16-6.67-.75a37,37,0,0,1,6.3,2.44c1,.47,2,1.06,2.93,1.61s1.8,1.14,2.67,1.77c2.16,1.55,3.54,3.15,3.3,3.31s-2-.94-4-2.35c-.87-.62-1.77-1.17-2.67-1.75s-1.9-1.11-2.91-1.56a34.36,34.36,0,0,0-6.23-2.34,39.17,39.17,0,0,0-13-1.18,61.86,61.86,0,0,0-12.23,2.26c-3.85,1.05-7.63,2.3-11.31,3.71a262.92,262.92,0,0,0-24.95,12.3l-6,3.2c-2,1-3.88,2-5.86,2.95a110.39,110.39,0,0,1-12.06,4.91,14.39,14.39,0,0,1,5.42.13h0c2.56-1,5.07-2.05,7.55-3.19,5.54-2.83,11.09-6.16,16.78-9.3s11.54-6.26,17.68-9c3.06-1.35,6.2-2.59,9.41-3.69,1.6-.57,3.23-1.06,4.86-1.56s3.36-.92,5.1-1.28a45.66,45.66,0,0,1,10.86-1,35.34,35.34,0,0,1,11.12,2.12l1.34.51,1.3.58c.88.37,1.71.84,2.54,1.29a46.56,46.56,0,0,1,4.64,3,45.37,45.37,0,0,1,8,7.56c4.65,5.61,7.88,11.84,10.73,17.91,1.42,3,2.85,6.21,4,9.41s2.27,6.49,3.18,9.8a113.65,113.65,0,0,1,3.6,20.19,6.2,6.2,0,0,1,0,2,4.41,4.41,0,0,1-.32-1.74,113.19,113.19,0,0,0-4.82-24.2,109.52,109.52,0,0,0-4.4-11.59c-1.69-3.71-3.4-7.36-5.41-11l0,.06c.25.63.18.81-.25.21a16.69,16.69,0,0,1-1.29-2.27c-.31-.72-.14-.73.25-.23a56.32,56.32,0,0,0-7-9.69,43.47,43.47,0,0,0-9.38-7.86,36.92,36.92,0,0,0-5.55-2.9,35.93,35.93,0,0,0-6.06-1.86,38.45,38.45,0,0,0-12.36-.45,60.9,60.9,0,0,0-11.49,2.6c-3.64,1.14-7.19,2.47-10.66,3.94a201.49,201.49,0,0,0-19.87,10c6-3.14,12.17-6.2,18.56-8.83,3.2-1.32,6.46-2.52,9.78-3.56a77.87,77.87,0,0,1,10.24-2.6,43,43,0,0,1,10.9-.57,34.1,34.1,0,0,1,10.76,2.73,40.89,40.89,0,0,1,9.21,5.84,44.3,44.3,0,0,1,7.36,7.83,64.41,64.41,0,0,1,5.44,7.49,8.21,8.21,0,0,1,.94,2.08c0,.26-.38-.22-.83-1s-.89-1.44-1.37-2.15c2.61,4.59,3.76,8.45,3.15,8.66s-3.12-3.68-5.87-8.2a45.56,45.56,0,0,0-14.65-15.09,30.79,30.79,0,0,0-9.67-4,33.41,33.41,0,0,0-10.46-.62,45.24,45.24,0,0,0-4.49.76c-1.48.41-2.93.88-4.36,1.41a42.23,42.23,0,0,1,16-1.3,29,29,0,0,1,7.62,2.08,34.16,34.16,0,0,1,6.85,4,43.92,43.92,0,0,1,10.74,11.66A121.7,121.7,0,0,1,418.33,246c.82,1.66,1.3,3.17,1.11,3.29s-1-1.14-1.81-2.78a134,134,0,0,0-7.12-12.23,46.08,46.08,0,0,0-9-10.07,35.43,35.43,0,0,0-5.47-3.69,28.33,28.33,0,0,0-5.86-2.45,29.16,29.16,0,0,0-12.6-.59A50.88,50.88,0,0,0,371.1,219c-2.17.65-4.41,1.42-6.58,2.22a140.63,140.63,0,0,0-12.89,5.64c-4.25,2.09-8.46,4.39-12.7,6.73s-8.47,4.75-13,7.14a126.22,126.22,0,0,1-18.17,9.78,134,134,0,0,1-20,6.83c1.74-.25,3.54-.52,5.32-.86a110.82,110.82,0,0,0,31.66-11c4.84-2.57,9.06-5.2,13.25-7.74s8.27-5,12.36-7.35,8.19-4.48,12.39-6.34a80.54,80.54,0,0,1,12.74-4.61,29.89,29.89,0,0,1,12.48-.64,24.21,24.21,0,0,1,6,1.91c1,.43,1.95,1,2.93,1.57l1.43.91c.48.32.92.66,1.39,1a3.43,3.43,0,0,1,1.24,1.3c0,.16-.57-.14-1.28-.71a33.68,33.68,0,0,0-5.53-3.35,23.44,23.44,0,0,0-5.66-1.9,28.42,28.42,0,0,0-11.8.43,53,53,0,0,0-6.09,1.81c-2.08.77-4.18,1.59-6.25,2.5-4.16,1.82-8.27,3.9-12.46,6.19-6.93,3.81-13.63,8-20.56,12.22a143.8,143.8,0,0,1-22.77,11.33,121.9,121.9,0,0,0,23.17-10.52c6.85-3.94,13.26-7.88,19.69-11.39a127.45,127.45,0,0,1,19.49-8.86c6.46-2.23,12.52-3.19,18.13-1.73a6.93,6.93,0,0,1,2.48,1,1,1,0,0,1,.61,0c.36.11.72.25,1.08.38a9.14,9.14,0,0,1,1.13.45l1.16.54c.39.19.76.4,1.15.61.79.4,1.5.91,2.27,1.38s1.48,1,2.18,1.65a4.62,4.62,0,0,1,1.31,1.48C402.53,229.32,402.13,229.1,401.53,228.59ZM232.62,60.92l-.24-.06.65-.06,1.38.56Zm-4.75,9.32h0l-.82-.27Zm75.32,80.64,3.46-5.63c1.17-1.88,2.27-3.93,3.33-5.93a105.39,105.39,0,0,0,5.48-12.55,86.56,86.56,0,0,0,5.26-27.42,78,78,0,0,1-1.1,13.78A83.08,83.08,0,0,1,317,123.37a88,88,0,0,1-3.74,9.75c-1.41,3.17-3,6.24-4.69,9.23l-1.32,2.23-1.35,2.1ZM224.09,61a12.81,12.81,0,0,1,3.37.46,5.71,5.71,0,0,1,1.43-1.18A38.22,38.22,0,0,1,233.38,58c-.43-.24-.07-.4.08-.55l.47-.41-5.11,2C227.27,59.66,225.68,60.49,224.09,61Zm-8.47,8.88-.24,0-.27-.72Zm.5,1.2.27-.1C216.51,71.24,216.38,71.22,216.12,71.09Zm2.38-.87a2.34,2.34,0,0,0-.52-.06Zm15.9,13.89-2-3.08,1.84,3Z"/><path d="M301.82,99.52l.37,0c-.06.22-.28.36-.57.47,3.49-.1,6-3,7.24-5.78a1.39,1.39,0,1,0-1.16-2.45,3.16,3.16,0,0,1-.67,0,13.54,13.54,0,0,0-5.57.27h1.29a5.31,5.31,0,0,0-1.62.53l.42.24a4.3,4.3,0,0,0-4.15,3.6,3,3,0,0,0,3.5,3.07Z"/><path d="M307,101.41c-1.13.11-2.22.22-3.35.31l-.31-.11.75.92,0-.08A6.21,6.21,0,0,1,306.26,99l.33-.4a1,1,0,0,0,0-.75,1.08,1.08,0,0,0-1.49-.46l-.7.31c-1.95.42-4.39,2-4,4.2.1.5.62.86,1,1.26a1.56,1.56,0,0,0,2.13.36,1.5,1.5,0,0,0,.63-2l.47-.12-.13.42c-.19-.69.4-1.27.7-1.89l.67-.65-1.47-1.21-.28.46.2.11a16.53,16.53,0,0,1-1.54,2.59l-.62,1.24a.81.81,0,0,0,.77.91h.68l-.34,0c1.27-.39,2.51-.93,3.78-1.25a.41.41,0,0,0,.36-.43A.34.34,0,0,0,307,101.41Z"/><path d="M303.5,104.07a1,1,0,0,0-.71.19v.19l.51,0C303.66,104.49,303.67,104.26,303.5,104.07Z"/><path d="M302.78,104.45h-.21l.19.07,0,0Z"/><path d="M387.35,93.41a12.17,12.17,0,0,0,6.78.45,18.08,18.08,0,0,0,7.32-4.1c.16-.15.25-.31.2-.37s-.21,0-.35.15a17.74,17.74,0,0,1-7.23,4,11.81,11.81,0,0,1-6.6-.46c-.16,0-.36-.05-.39,0S387.18,93.35,387.35,93.41Z"/><path d="M424,63.06c0,.2,0,.21.15,0a2.28,2.28,0,0,0,.23-.65c0-.16-.06-.18-.16,0A1.69,1.69,0,0,0,424,63.06Z"/><path d="M428,66.37c-.29,1.16-.52,2.28-.72,3.28a2.94,2.94,0,0,1-.2.53c.12,0,.13.22,0,.64a84.15,84.15,0,0,1-10.84,25.39,1.06,1.06,0,0,1,0,.51,8.28,8.28,0,0,1-1.92,3l-.8.79a36.92,36.92,0,0,1-11.41,8.2c-.42.28-.89.57-1.4.85a13.68,13.68,0,0,1-1.72.74,19.88,19.88,0,0,1-3.12,1.24,22.11,22.11,0,0,1-3.34.86,24,24,0,0,1-3.44.44,26,26,0,0,1-3.41,0c.27.12.42.25.4.38s-1.18.38-2.4.22c-.59-.09-1.14-.2-1.71-.3a42.48,42.48,0,0,0,5.14.91c.27,0,.52,0,.75.07l1.55,0a12.13,12.13,0,0,0,1.58,0c1.07-.11,2.15-.18,3.22-.37s2.34-.52,3.46-.83,2.16-.79,3.21-1.21,2-1,3-1.49,1.87-1.11,2.71-1.74a38.14,38.14,0,0,0,8.4-8.26,56.07,56.07,0,0,0,5.55-9L421.59,89l1-2.3c.32-.76.67-1.52,1-2.28l.84-2.3a1.74,1.74,0,0,1,.33-.65c.1-.09.16,0,.09.19-.28,1-.57,2-.85,3s-.62,1.94-.93,2.92c-.58,2-1.36,3.88-2.12,5.87a44.31,44.31,0,0,1-7.56,12.37,38.06,38.06,0,0,1-8.16,7c-.8.51-1.66,1-2.5,1.44s-1.81.84-2.72,1.24l-1.4.59c-.47.19-1,.31-1.48.47-1,.29-2,.59-3.05.81a40.57,40.57,0,0,1-12,.49l-2.66-.32-2.42-.38c-.84-.13-1.53-.27-2.27-.4l-2.14-.4-2.05-.52-1.87-.44-.92-.2-.85-.17-1.71-.31a36.92,36.92,0,0,0-6.14-.46,39.57,39.57,0,0,0-11.41,1.93,51.79,51.79,0,0,0-8.05,3.4c-2.79,1.71-5.5,3.43-8.26,5.42-1.27,1.24-3.39.89-4.82-.86a4.72,4.72,0,0,1-1-3.65l-.41.25-.76.22a3.15,3.15,0,0,1-2.3-.32l-1-.46c-1.61-1.07-3.49-1.59-5.13-2.75l-.31-.67-.25-.08a3.69,3.69,0,0,1-1.94-1l-.49-.74a8.25,8.25,0,0,1-1-2.76,3.14,3.14,0,0,1-.52-1,4.19,4.19,0,0,1-1.9-2.19.58.58,0,0,1-.44-.74.6.6,0,0,1,.19-.3h0a4.94,4.94,0,0,0-.6-.25l-.38.1-1.12.42A3.33,3.33,0,0,1,306,108c-1.37-1-1.38-1-1.73-1.55l0-.21-.65.08a1.66,1.66,0,0,1-.33-.1c-.24-.28-.24-.28-.38-.34a2,2,0,0,1-.18-.21c-.06-.46-.06-.46-.12-.56a.77.77,0,0,1,0-.23l.24-.41,1.07.41-.09-.34.37.27-.3-.27.39,0-.49-.08a2.83,2.83,0,0,0,.89-.48,1.34,1.34,0,0,0,.46-.37,1.11,1.11,0,0,1-.15-.16c.73-.31.73-.31,1.44-.59l.3.12a.35.35,0,0,1,.22-.32l.37-.16,0-.09,0,0,.17-.33,0-.08h0l.77-1.43a3.53,3.53,0,0,1,.66-.2l-.26,0c-.17,0-.27-.38-.35-.37A24,24,0,0,0,303,101.7a.6.6,0,0,1-.82,0,.51.51,0,0,1,.07-.76c1.92-3.6,6.16-5.83,10.31-6.38,1-.31,2-.64,3-1l-.21-.08.84-.12.09,0-.84-.28c-.16,0-.31,0-.46,0-2.26.85-4.68,1-7,1.68-1.25.34-2.53.38-3.79.64a.47.47,0,1,1-.39-.83c3.16-2.46,7.59-4.3,11.48-3.81a4,4,0,0,1,2.09-.35h0l-.64-.27c.55-.11,1,.14,1.55.11l-.48-.55c2.69-.68,5.37-1.94,8.13-1.81.1,0,.2,0,.3,0a13.5,13.5,0,0,1,1.36-1.12,3,3,0,0,1,.37-.25l.11-.06.25-.1.51-.19c.69-.25,1.41-.49,2.16-.71l-3.09.63c1-.42,2.1-.85,3.18-1.23a35.36,35.36,0,0,1,3.48-.9,42.22,42.22,0,0,1,5.08-.65,38,38,0,0,1,5,0,21.83,21.83,0,0,1,7.68,1.75,70.59,70.59,0,0,1,18.5,2.76c5.82,1.63,10.95,3.75,14.85,4.82.37.09.68.3.71.48s-.28.24-.66.16c-2.8-.56-6.32-1.76-10.21-3a87.68,87.68,0,0,0-12.62-3,77.82,77.82,0,0,1,10.49,3.17c3.3,1.2,6.39,2.52,9.15,3.51.73.24,1.37.41,2.07.62s1.24.37,1.86.63a10.63,10.63,0,0,0,1.1.25l1.05.23,1,.1a4.36,4.36,0,0,0,.94.06,8.21,8.21,0,0,0,1.79-.08c.3,0,.6-.06.9-.11l.92-.25a13.18,13.18,0,0,0,3.74-1.62l.93-.58.91-.7a19.85,19.85,0,0,0,1.82-1.56A43.57,43.57,0,0,0,407,84.4a73.51,73.51,0,0,0,4.51-8.11c1-2.06,1.9-4.21,2.81-6.29.44-1,.83-2.14,1.25-3.19s.85-2.11,1.22-3.2c.76-2.16,1.6-4.28,2.32-6.51s1.56-4.41,2.3-6.72c.38-1.23.95-2.31,1.27-2.38s.27.88-.1,2.12c-2.75,9.73-5.86,19.25-10.24,27.92a56.48,56.48,0,0,1-7.74,11.76,28.9,28.9,0,0,1-4.83,4.31,16.74,16.74,0,0,1-5.28,2.47A13.07,13.07,0,0,1,390,97a.53.53,0,0,1,0,.17c0,.22-.15.4-.42.55a6.94,6.94,0,0,0,1.35.08,7.6,7.6,0,0,0,1.35,0q.66-.08,1.35-.12l1.38-.31c5-1.93,9.28-6.42,13.62-12a102.44,102.44,0,0,0,7.91-11.87,164.83,164.83,0,0,0,6.27-17.25,1.12,1.12,0,0,1,.26-.54c.08-.07.09.07,0,.31-.54,2.07-1,4.2-1.7,6.27s-1.27,4.19-2,6.25c.45-.57.85-.86,1.09-.71s.28.75.13,1.58l1.17-2.79c.22-.58.49-1,.62-.94s.07.57-.14,1.13c-.79,1.9-1.55,3.82-2.37,5.7s-1.67,3.76-2.65,5.54a68.4,68.4,0,0,1-7.28,12.61,3.2,3.2,0,0,1,1.47-.66h0l1.32-1.85A124,124,0,0,0,421.5,69c2.47-6.7,4.64-13.58,6.68-20.57.08-.27.19-.49.25-.48s0,.24,0,.48l-1.86,6.31q-1,3.13-2,6.24h0c.09-.16.17-.17.15,0a1.73,1.73,0,0,1-.22.65c-.11.17-.17.13-.15,0a163.47,163.47,0,0,1-9,22.26,140.39,140.39,0,0,0,9-20.16l.6-2.37a1.28,1.28,0,0,1,.26-.55c.06,0,.08.14,0,.36s-.1.44-.16.66c.47-1.32,1-2.28,1.34-2.16s.19,1.42-.3,2.8c-.62,1.86-1.23,3.73-1.88,5.58s-1.37,3.67-2.12,5.47l-.45,1.19-.36,1.24c1.33-2.75,2.47-5.58,3.63-8.39s2.17-5.69,3.1-8.57c.15-.5.36-.9.47-.87s.09.45-.06,1a155.2,155.2,0,0,1-4.8,15.49,89.56,89.56,0,0,1-7.07,15A55,55,0,0,1,411,99.74l1.05-1.12c4.39-4.86,6.92-10.14,9.07-15.3s3.68-10.44,5.47-15.92a.91.91,0,0,1,.28-.5c.06,0,.06.2,0,.48-1.71,5.37-3.06,10.4-5.27,15.71a93.64,93.64,0,0,1-6.33,12.53,65.17,65.17,0,0,0,6.65-12c.81-2.06,1.71-4.08,2.41-6.16l1.13-3.09,1-3.13a3.38,3.38,0,0,1,.42-.93s0-.12,0-.23c.24-1.09.5-2.26.79-3.45a1.46,1.46,0,0,1,.26-.6C428,66,428,66.11,428,66.37ZM315.63,101l-.14-.06h.4l.84.5Zm-3.34,5.7h0l-.49-.25ZM369.68,89.9a107.37,107.37,0,0,0-15.51-3.25c1.3,0,2.6,0,3.9.18A61.89,61.89,0,0,1,369.68,89.9Zm-59.26,10.44a7.68,7.68,0,0,1,2,.6,3.32,3.32,0,0,1,.91-.66,23.57,23.57,0,0,1,2.81-1.18c-.26-.2,0-.28.06-.36l.29-.24-3.16.93C312.38,99.71,311.4,100.14,310.42,100.34Zm-5.48,5-.14,0-.12-.48Zm.22.8.16,0C305.38,106.27,305.3,106.24,305.16,106.13Zm1.45-.31a.79.79,0,0,0-.3-.09Zm8.67,10.39-.95-2.14.87,2.09Z"/></g></g></svg>