<svg xmlns="http://www.w3.org/2000/svg" viewBox="0 0 453.9 483.43"><g id="Layer_2" data-name="Layer 2"><g id="Layer_1-2" data-name="Layer 1"><path d="M188.88,7.78v.51c-.31,0-.55-.16-.74-.49a6.23,6.23,0,0,0,3.43,4.83,10.72,10.72,0,0,0,6,.78,1.84,1.84,0,0,0,2.75-.31,2.36,2.36,0,0,0,0-3,2.84,2.84,0,0,1-.25-.78,16.85,16.85,0,0,0-1.53-6.62c.08.52.15,1.06.22,1.58a5.05,5.05,0,0,0-.93-1.63l-.25.68a3.65,3.65,0,0,0-5.12-3,5.91,5.91,0,0,0-3.81,6.29Z"/><path d="M187.37,15.92c-.47-1.47-.85-2.95-1.2-4.43l.08-.48-1.13,1.52.1-.08c1.86-.48,3.63.25,5.19,1l.65.16a1.58,1.58,0,0,0,1-.47,1.66,1.66,0,0,0,.23-2.23c-.2-.23-.38-.49-.57-.73-1-2.32-3.42-4.6-6.43-2.95a6.46,6.46,0,0,0-1.64,2,2.24,2.24,0,0,0-.14,3.11,2,2,0,0,0,3-.21c.09.19.19.39.27.58l-.62.06c.93-.64,1.85-.16,2.77-.11l1,.51,1.31-2.72-.67-.09c0,.13-.09.33-.1.33a16.52,16.52,0,0,1-3.85-.59l-1.84-.19a1.52,1.52,0,0,0-1.16,1.51l.12.95v-.5c.8,1.57,1.84,3,2.63,4.59a.49.49,0,0,0,.7.25A.63.63,0,0,0,187.37,15.92Z"/><path d="M182.81,12.48a1.17,1.17,0,0,0-.41-.89l-.27.07.06.72C182.24,12.9,182.56,12.81,182.81,12.48Z"/><path d="M182.13,11.66l0-.3-.07.31h.05Z"/><path d="M309.35,53.64c1,0,1.92.11,2.88.12H321l5.83-.27,2.92-.13,2.92-.27,5.85-.53,5.83-.77,2.93-.4c1-.14,1.94-.33,2.91-.49l5.83-1c.52-.09.93-.28.92-.41s-.42-.11-.9,0l-5.82,1-2.9.5-2.92.39-5.82.76-5.82.52-2.91.26-2.91.13-5.8.26c-1.94,0-3.87,0-5.8,0s-3.85,0-5.77-.12c-.51,0-.93.08-1,.21S308.86,53.61,309.35,53.64Z"/><path d="M427.34,33.93c-.31.25-.25.34.15.2a4.49,4.49,0,0,0,1.19-.65c.26-.22.19-.32-.15-.21A4.37,4.37,0,0,0,427.34,33.93Z"/><path d="M428.05,42.63l-2.89,1.94c-.94.61-1.83,1.21-2.66,1.81a4.51,4.51,0,0,1-1,.52c.2.09-.13.44-.86.91C406.33,57.12,389.53,65,372.36,71.4a1.67,1.67,0,0,1-.61.66,19.51,19.51,0,0,1-6,2.48l-2,.46c-1.95.5-3.93.9-5.9,1.35s-3.93.92-5.92,1.27L346,78.71l-3,.52-3,.41a48.45,48.45,0,0,1-5.5,1.42c-3.4.89-6.84,1.62-10.32,2.42s-7,1.29-10.62,1.9c.46.1.74.26.75.46s-.5.5-1.18.7a13.06,13.06,0,0,1-2.57.37l-3,.2c2.85-.06,5.72,0,8.56-.24a11.08,11.08,0,0,1,1.13,0c3.11-.31,6.26-.56,9.43-1.11a213.72,213.72,0,0,0,39.38-9.9,263.13,263.13,0,0,0,35.41-15.57,4.45,4.45,0,0,1,1.32-.56c.26,0,.27.12-.14.36-1.7,1.08-3.42,2.08-5.12,3.07l-5.06,3c-3.38,1.94-6.78,3.84-10.27,5.74a170.88,170.88,0,0,1-23.35,10.37,242.28,242.28,0,0,1-67,13.81,335.84,335.84,0,0,1-36.45-1.86,239.89,239.89,0,0,1-36.91-6.71c-2.16-.49-4.25-1.2-6.36-1.81l-6.31-1.94-6.19-2.23c-2.06-.76-4.13-1.46-6.14-2.35l-1.51-.64-.76-.32-.29-.1-1-.39-2.05-.78c-1.36-.53-2.74-1-4.06-1.66q-4-1.81-7.92-3.75c-2.62-1.31-5.16-2.82-7.76-4.27a8.31,8.31,0,0,1-4.4-4.2,6,6,0,0,1,0-5.28,6.46,6.46,0,0,1,5.33-3.31l-.83-.62-1.1-1.27a6,6,0,0,1-1.51-4.15V46.55c.54-3.19.22-6.62,1.23-9.75l.93-.74v-.44a5.55,5.55,0,0,1,.64-3.52l1-1a14.52,14.52,0,0,1,3.92-2.72,5,5,0,0,1,1.27-1.2,7,7,0,0,1,2.6-3.86,1,1,0,0,1,1-1,.94.94,0,0,1,.5.14h0a8.38,8.38,0,0,0,.18-1c-.18-.31-.27-.51-.27-.51-.53-.77-.53-.77-1-1.45a4.61,4.61,0,0,1-.06-1.6c1.08-2.42,1.09-2.41,1.88-3.18l.31-.15c-.2-.64-.21-.69-.26-.88a3,3,0,0,1,.07-.5c.37-.46.37-.46.43-.69a4.21,4.21,0,0,1,.27-.35c.67-.29.67-.29.8-.43a1.6,1.6,0,0,1,.34-.13l.63.14-.38,1.68.46-.29-.31.66.34-.56.05.56V13c.57.79.57.79.87,1a1.29,1.29,0,0,0,.64.43,2.44,2.44,0,0,1,.19-.28c.6.85.6.85,1.18,1.7a3.41,3.41,0,0,1-.09.48.42.42,0,0,1,.51.14l.32.43H186l0,0,.51.05h.11c.35,0,.86.1,2.24.16a5,5,0,0,1,.5.76l0-.38c0-.26.45-.61.41-.7a16.37,16.37,0,0,0-.82-1.62q-.42-.81-.9-1.56c-.62-1-1.3-2-1.95-3a.8.8,0,0,1-.17-1.11A.79.79,0,0,1,187,9.2c5.23.72,9.11,4.4,11.53,9.17.85.95,1.72,1.87,2.62,2.79v-.33l.57.91a.27.27,0,0,0,.07.08l-.06-1.26c-.08-.18-.17-.36-.26-.54a17.63,17.63,0,0,1-2.68-3.45c-.76-1.28-1.4-2.66-2.17-3.91a34.38,34.38,0,0,1-1.83-4.34.76.76,0,0,1,.08-1,.64.64,0,0,1,.93,0,18.85,18.85,0,0,1,5.29,4.51,15.37,15.37,0,0,1,3.38,6.45,3.93,3.93,0,0,1,1.42,2.15l0,0c0-.35,0-.67,0-1,.39.56.35,1.29.68,1.86l.4-1.07c1.14,1.14,2.46,2.11,3.71,3.16A20.35,20.35,0,0,1,212.47,25,12.17,12.17,0,0,1,214,27a2,2,0,0,1,.25.26,14.26,14.26,0,0,1,2.17,0,4.81,4.81,0,0,1,.53.07l.14,0,.35.15.71.32c1,.43,1.9,1,2.92,1.43-.66-.39-1.28-.82-1.9-1.25l-1.82-1.26c.65.24,1.47.6,2.19.91s1.49.65,2.26.95c1.52.64,3,1.34,4.57,2.17,8.35,4.32,17.77,9.72,22,13.8A204.44,204.44,0,0,0,276.21,51a200.41,200.41,0,0,0,28.54,2.18,3.07,3.07,0,0,1,2.06.45c.11.26-.54.5-1.53.53s-1.72.1-2.59.12h-7.78c-1.73,0-3.46-.15-5.2-.22s-3.48-.15-5.21-.31a189,189,0,0,1-20.75-2.94A167.43,167.43,0,0,0,299,56.74c1.54,0,3.1.12,4.66.1s3.07.06,4.6.18a187.64,187.64,0,0,0,46.11-5.14,240.74,240.74,0,0,0,37.42-12.44c8.86-3.79,17.13-7.86,25.28-12.12s16.08-8.9,24.3-13.85c2.13-1.39,4.32-2.38,4.83-2.17s-.82,1.54-3,3q-12.54,8.37-25.68,15.58a286,286,0,0,1-27.14,12.8,223.21,223.21,0,0,1-28.71,9.57,193.58,193.58,0,0,1-30.27,5.49c-2.22.26-4.44.35-6.64.53l-3.28.24c-1.1.06-2.19.07-3.28.11a.58.58,0,0,1,.13.26c0,.36-.36.7-1.05,1l3.75-.08,3.76-.21,3.77-.2,1.9-.1,1.89-.17c13.89-2.36,27.55-5.78,42.11-9.7,10-2.75,19.08-5.4,28.25-8.62a312.1,312.1,0,0,0,32.49-17.46,3,3,0,0,1,1.07-.52c.2,0,0,.2-.39.49-1.77,1.2-3.57,2.36-5.38,3.54l-2.73,1.78L425,30.28l-5.65,3.37-5.8,3.19c1.4-.32,2.33-.32,2.44.13s-.67,1.31-2,2.32l5.45-2.67c1.13-.53,2.09-.83,2.16-.62s-.7.85-1.78,1.37c-3.71,1.84-7.39,3.72-11.18,5.38-1.89.83-3.75,1.74-5.66,2.52l-5.72,2.36a267.6,267.6,0,0,1-27.8,10.43,6.78,6.78,0,0,1,3.12.38h0l4.41-1.39a372.66,372.66,0,0,0,76-39.68c.47-.32.9-.52,1-.44s-.26.38-.69.66c-3.66,2.41-7.27,4.9-11,7.17-1.86,1.15-3.67,2.38-5.56,3.46L431,31.58l0,0c.34-.12.45-.06.16.2a4.84,4.84,0,0,1-1.18.7c-.39.14-.41,0-.16-.2a385.06,385.06,0,0,1-43.25,21.41,338.9,338.9,0,0,0,40.42-18.41c1.34-.91,2.72-1.75,4.06-2.7a3.18,3.18,0,0,1,1.11-.5c.15,0-.08.26-.47.51l-1.12.78c2.44-1.39,4.52-2.13,4.75-1.66s-1.72,2.15-4.26,3.62c-6.8,3.94-13.66,7.73-20.75,11.06l-2.26,1.18-2.19,1.35a300.16,300.16,0,0,0,32.55-16.51c.89-.54,1.73-.88,1.84-.73s-.52.71-1.41,1.26A274.53,274.53,0,0,1,411,49.35a267.43,267.43,0,0,1-30,13.23c-3.26,1.63-6.58,3.17-9.91,4.79-3.38,1.47-6.78,3-10.27,4.47.92-.2,1.84-.45,2.75-.72A177.62,177.62,0,0,0,395.44,58.6c9.89-4.89,19.37-10.21,29.36-15.93a2,2,0,0,1,1.06-.42c.1,0-.19.33-.7.62-9.73,5.68-18.65,10.93-28.8,15.89l-6.27,3-6.23,2.74-3.08,1.37-3.09,1.27-6.11,2.56c2.11-.72,4.21-1.48,6.29-2.23L381,66.32l3.06-1.25,6.06-2.53,5.94-2.74,3-1.37L401.93,57,407.75,54,413.5,51l2.89-1.54c1-.52,1.9-1.08,2.85-1.62a8.57,8.57,0,0,1,1.84-.86c0-.06.12-.18.31-.32,1.81-1.28,3.84-2.53,5.86-3.91a3.39,3.39,0,0,1,1.17-.56C428.68,42.1,428.48,42.32,428.05,42.63ZM191.38,27.41v-.24l.2.55-.21,1.5S191.37,28.32,191.38,27.41Zm-9.73-.94h0c.09-.49.15-.85.15-.85Zm93.09,28-6.24-1.22c-1-.19-2.06-.46-3.08-.73l-3.05-.82a113.15,113.15,0,0,1-11.91-4l5.9,1.45,2.24.78,2.28.68L265.45,52c1.52.49,3.07.87,4.62,1.26ZM190,19.84A13.44,13.44,0,0,1,190,23a3.59,3.59,0,0,1,1.3.77c1,.94,2,1.85,3,2.81.12-.5.35-.27.52-.23l.47.19a43.4,43.4,0,0,1-2.85-3.4A30.09,30.09,0,0,1,190,19.84Zm-8.7-4.73,0-.22.67-.39Zm-1.11.7.09.21C180,16.18,180.05,16.06,180.18,15.81Zm.83,1.93a2,2,0,0,0,.05-.48ZM168.5,35.51l2.93-2.37-2.9,2.21Z"/><path d="M327.05,106l-.57-.28c.13-.18.48-.2,1-.11a10.35,10.35,0,0,0-7.08-.49,9.44,9.44,0,0,0-2.45,1.16,7.13,7.13,0,0,0-1.61,1.49c-1.16.11-1.57.73-1.15,1.3a2.45,2.45,0,0,0,1.11.73,4.33,4.33,0,0,0,1.62.29,5.55,5.55,0,0,1,.89.2c.6.24,1.19.47,1.81.69l1.93.66,2,.67c.7.21,1.4.42,2.12.66-.63-.29-1.28-.57-1.9-.82a19.72,19.72,0,0,0,2.43.62l-.58-.48c3.13,1.3,6.41,1.69,7.07.21s-1.79-4.52-5.12-5.89Z"/><path d="M319.32,101.39a25.18,25.18,0,0,1,2.56.46c.87.19,1.73.4,2.61.67l.48.28-1-1.41,0,.09c-.42,1.37-2.22,2-3.78,2.64l-.52.27a.64.64,0,0,0-.12.73,2.57,2.57,0,0,0,2.16,1.06l1.07,0c.71.12,1.56.23,2.36.3a12.21,12.21,0,0,0,2.28,0c1.42-.18,2.46-.7,2.33-2-.06-.61-.85-1.41-1.37-2.12a3.84,3.84,0,0,0-3.39-1.79c-1.32.1-1.87,1-1.34,1.92l-.75-.1.27-.4c.19.85-.81,1.17-1.37,1.68l-1.06.39,2.06,1.86.46-.32c-.11-.08-.29-.2-.29-.21a14.93,14.93,0,0,1,2.79-1.82l1.24-.94c.2-.47-.28-1.15-1.07-1.51l-1.1-.41.54.25a53.38,53.38,0,0,0-6.1-.31c-.32,0-.57.14-.57.36S319,101.36,319.32,101.39Z"/><path d="M325.19,100a2.21,2.21,0,0,0,1.19.21l.05-.22-.82-.33C325,99.39,325,99.65,325.19,100Z"/><path d="M326.43,100l.34.15-.3-.21,0,0Z"/><path d="M335.52,249.68c-1,24.83-2.15,49.81-3.7,74.78-.05.83,0,1.54.21,1.58s.33-.6.37-1.38c1.61-25,2.78-49.83,3.78-74.66a2.81,2.81,0,0,0-.31-1.64C335.68,248.31,335.54,248.9,335.52,249.68Z"/><path d="M312.85,435.91c-.05-.59-.16-.57-.26,0a9.9,9.9,0,0,0-.06,2.05c0,.5.17.48.25,0A9.72,9.72,0,0,0,312.85,435.91Z"/><path d="M304.64,430.48c-.28-3.5-.59-6.82-1-9.78a9.21,9.21,0,0,1-.05-1.64c-.19.21-.38-.46-.52-1.72-2.62-24.85-4.51-51.57-6.25-77.89a2.49,2.49,0,0,1-.65-1.11,29.56,29.56,0,0,1-1.12-9.28l.12-2.86c.17-11.55.38-23.07.8-34.56a68.29,68.29,0,0,1-.63-8.05c-.9-9.95-1.71-19.93-2.25-30.14-.21.64-.46,1-.72,1-.63-.2-1.09-2.57-1-5.33,0-1.39.07-2.77.16-4.16-.45,4-.54,8-.79,12,0,.58-.07,1.11-.13,1.59-.09,4.37-.09,8.79,0,13.28.43,39.22,4,76.09,7.74,112.67a6.88,6.88,0,0,1,0,2.07c-.1.36-.26.29-.36-.38-3.5-23.07-8.22-43-11-69.14-1.63-15.52-3-30.95-4-46.48-.27-3.89-.52-7.78-.71-11.68q-.16-2.93-.31-5.86c-.09-2-.23-3.91-.21-5.87A57.71,57.71,0,0,1,287,223.47c4-8.29,9-16.37,12.8-24.51,1-2.08,1.82-4,2.72-6.34l.63-1.67c.23-.64.48-1.17.68-1.62.41-.92.81-1.7,1.12-2.49a15.64,15.64,0,0,0,1.21-9.44,13,13,0,0,0-1.75-4.35c-.43-.69-.93-1.4-1.61-2.35a19,19,0,0,1-2.19-4,16.26,16.26,0,0,1-1.06-5.26,17.57,17.57,0,0,1,.56-5.16,23.67,23.67,0,0,1,4-7.76,12.76,12.76,0,0,0,1-1.58l0-.06h0l.09.06.35.18a6.11,6.11,0,0,0,.74.32l.39.13.19.08a2.75,2.75,0,0,0,.67.17s0,0,0,0h-.21l-.3,0-.21.05.11,0c.05,0,0,0-.4.18l-.3.17-.36.24a3.83,3.83,0,0,0-.46.33l-.1.08h0s-.05-.15-.18-.3a2.73,2.73,0,0,0-.24-.26c-.4-.36-.73-.7-1.13-1-.8-.6-1.58-1.2-2.3-1.82a22,22,0,0,1-3.72-3.67,9.81,9.81,0,0,1-1.75-4.15,3.79,3.79,0,0,1-.14-1.21c0-.42,0-.83,0-1.24a11.69,11.69,0,0,1,.52-2.26,7,7,0,0,1,.65-1.38,6.71,6.71,0,0,1,.85-1.27,6.19,6.19,0,0,1,.46-.62l.6-.58c.45-.38.9-.75,1.42-1.11.24-.18.51-.36.79-.53a6.56,6.56,0,0,1,.87-.49c.67-.28,1.32-.56,2-.87,1.32-.56,2.83-.95,4.2-1.41l2.08-.7c.42-.15.63-.25.93-.37a9,9,0,0,0,1.34-.69,1.3,1.3,0,0,0,.28-.24h0l.07.09c.19.24.47.52.59.7s.33.38.51.56l.28.26.2.2a5.37,5.37,0,0,0,.44.37c.18.11.22.17.34.24s.28.14.32.17l.19.09c.13,0,.19,0,.11,0a1.2,1.2,0,0,0-.34.11,2.18,2.18,0,0,0-.6.34,4.37,4.37,0,0,0-.86.62l-.19.18-.28.24c-.19.16-.36.33-.54.51s-.33.36-.48.55l-.28.32c-.09.09,0,0-.07.05h-.08c-.11,0-.23,0-.38-.07-.65-.16-1.65-.4-2.73-.58-.56-.1-1.07-.2-1.74-.28l-2-.07c-.68,0-1.38-.2-2.06-.3a75.92,75.92,0,0,1-8.85-2l-1.67-1a4.6,4.6,0,0,0-.44-.25l-.54-.2-1.1-.39c-.34-.14-.76-.25-1.05-.41l-.74-.57c-.49-.38-1-.75-1.44-1.13s-.93-.76-1.36-1.15l-.43-.39-.58-.52c-.79-.69-.49-1.59-1.36-2.25l-.5-.54a2.13,2.13,0,0,1-.43-.54l-.66-1.12-.55-1.15c-.17-.38-.49-.79-.72-1.19-.65-.8.08-1.58-.75-2.49l-.37-.65a4.87,4.87,0,0,1,0-.66l.06-.65c0-.1,0-.23-.09-.35l-.16-.37c-.18-.49-.56-1-.31-1.44l.17-.68.08-.34c0-.12-.05-.26-.07-.39-.12-.52-.26-1-.36-1.58l.56-1.36.15-.34a1.68,1.68,0,0,0,0-.39l0-.8a14.25,14.25,0,0,1,0-1.6l.1-1.61,0-.41c0-.14.14-.21.19-.32l.49-.61,1-1.22a12.63,12.63,0,0,0,.56-1.46l.51-1.48,0-.1v0a.53.53,0,0,0-.06-.1l-.26-.42-.13-.2c0-.06,0-.07,0-.11l.09-.2.35-.81.34-.8.28-.71.54-1.32c.35-.85.73-1.72,1.1-2.56.28-.69.6-1.36.92-2s.66-1.3,1-1.81a12.73,12.73,0,0,1,2.07-2.62c1.34-1.28,2.7-1.68,3.69-1,1.19.9,1.54,3.11,1.12,5.54l.65-1c.39-.45.8-.93,1.2-1.35,1.14-1.18,2.36-1.94,3.46-1.87h1.43c2.32.53,5.1.33,7.47,1.74l.38,1,.37,0a3.76,3.76,0,0,1,2.85,1.17l.64,1.14A11.91,11.91,0,0,1,313.41,87a3.87,3.87,0,0,1,.66,1.41,5.68,5.68,0,0,1,2.64,3.22.8.8,0,0,1,.57,1.08,1,1,0,0,1-.33.36h0l.9.45a5,5,0,0,1,.6,0c1-.16,1-.15,1.84-.24a5.89,5.89,0,0,1,1.66.59c2,1.84,2.05,1.88,2.5,2.8a1.46,1.46,0,0,1,0,.29c.79.17.85.2,1.07.26a3.51,3.51,0,0,1,.51.31c.34.49.34.49.56.66a4.24,4.24,0,0,1,.26.37c0,.6,0,.6.09.76a.77.77,0,0,1,0,.29l-.47.33-1.65-1.12.09.46-.56-.53.44.49-.63-.24.78.37a4.54,4.54,0,0,0-1.54.07,1.63,1.63,0,0,0-.76.22c.13.15.2.25.2.25l-2.33.07-.44-.24c0,.15-.16.26-.38.28l-.59,0-.07.1,0,0-.3.32-.05.07h0c-.2.22-.5.53-1.29,1.33-.34,0-.68,0-1,.05l.37.1c.26.08.37.47.48.48,1.36.08,2.7.14,4.05.16s2.76.09,4.18.22a1.58,1.58,0,0,1,1.34.5c.3.37.17.7-.28.77a10.47,10.47,0,0,1-3.23,1.43,24.65,24.65,0,0,1-3.84.74c-2.7.31-5.46.42-8,.5-.57.08-1.14.21-1.69.33l-1.51.36.23.06c-.25,0-.62,0-.56.15v0h.19l.4.08H309a17.26,17.26,0,0,1,3.89-.45c.76,0,1.45,0,2.23,0l2.39.12a16.75,16.75,0,0,1,2.67.36l2.77.61a1.37,1.37,0,0,1,1,.54c.14.26-.11.44-.53.4-1.25.14-2.46.16-3.77.24-.64,0-1.23,0-1.88,0H316c-1.25,0-2.38-.08-3.51-.12l-1.58-.16a3.29,3.29,0,0,1-.36-.07l-.31,0-.11.06a1.53,1.53,0,0,1-.84.31h0l.49.08c-.18.11-.61,0-.81.14l.61.2a1.5,1.5,0,0,0-.46,1.3c0,.47.21.84.25,1.2a.56.56,0,0,0,.05.08c.35.12.68.21,1,.3l.22.06.06,0,.17.09.34.16c.46.21.92.39,1.39.59a14.39,14.39,0,0,1-1.67-.91c.65.3,1.35.56,2,.79l.24.08.12,0,.06,0,.12.08,2,1.3c.68.46,1.38.91,2.14,1.46a24.28,24.28,0,0,1,2.47,2l.47.44c.16.16.34.36.5.55a9.07,9.07,0,0,1,1,1.36,7.78,7.78,0,0,1,.51.93,6.86,6.86,0,0,1,.42,1.1,10.87,10.87,0,0,1,.27,1.26,10.29,10.29,0,0,1,0,1.36,7.5,7.5,0,0,1-1.79,4.32,9.65,9.65,0,0,1-2.31,2,24.34,24.34,0,0,1-3.63,1.78c-.52.21-1.22.47-1.16.46a2.47,2.47,0,0,0-.36.11,9.58,9.58,0,0,0-1.46.54,1.55,1.55,0,0,0-.62.51c0,.06-.06.12-.1.18s0,.13,0,.2a.74.74,0,0,0,.1.35,4.86,4.86,0,0,0,1,1l.28.24.13.13.07.07h0l-.05,0s0,0,0,0l.17.14a15.28,15.28,0,0,1,2.67,2.62,12.28,12.28,0,0,1,2,3.71,11.76,11.76,0,0,1,.47,2,18,18,0,0,1,.09,2.06,13.41,13.41,0,0,1-.29,2,14,14,0,0,1-.57,1.73,12.46,12.46,0,0,1-.7,1.37c-.24.38-.48.75-.71,1.08a28.39,28.39,0,0,1-2.11,2.77c-.58.71-1.1,1.3-1.47,1.82a6.31,6.31,0,0,0-1.3,2.82,4.5,4.5,0,0,0,0,1.36,5.41,5.41,0,0,0,.62,1.7c.79,1.5,2,3.54,3,5.59a55.41,55.41,0,0,1,4.12,12.93c.43,2.24.71,4.55.95,6.72l.18,1.56a12.34,12.34,0,0,0,.26,1.32c.19.9.43,1.79.65,2.67.51,1.91,1.05,3.86,1.67,5.77s1.29,3.9,2,5.84c1.4,3.88,3,7.81,4.42,11.7a98.39,98.39,0,0,1,6.27,23.36c.22,1.6.05,3-.29,3.32s-.71-.91-.89-2.51a97.91,97.91,0,0,0-3.91-16.79c-1.81-5.63-4-11.26-6-16.92-1-2.81-1.9-5.65-2.73-8.46-.4-1.39-.77-2.79-1.12-4.19l-.25-1-.22-1c-.15-.65-.29-1.31-.42-2-.26-1.15-.34-2.8-.52-4.38s-.36-3.24-.66-4.85a53.32,53.32,0,0,0-2.55-9.41,51.89,51.89,0,0,1,2.16,7.84,66.19,66.19,0,0,1,1,8.05c.06.66.09,1.28.16,1.86s.16,1.06.25,1.62c.21,1.12.39,2.15.66,3.38.5,2.36,1,4.7,1.71,7.1,2.5,9.54,5.88,19.2,7.52,28.89.5,2.48.88,5,1.19,7.46a46.21,46.21,0,0,1,.23,7.33c-.09,12.38-.44,24.45-.7,36.58s-.52,24.33-.66,37c-.25,21.6-.67,40.49-1.64,62-1.43,30.2-3.95,57.7-9.74,87.51a43.24,43.24,0,0,1-2.06,8.09c-.35.48,0-2.4.65-6.38,2.47-15.54,4.13-31,5.38-46.52s2.1-31,2.74-46.58c1.26-31.19,1.81-62.74,2.85-95.25.21-7,.41-13.92.61-20.78a.66.66,0,0,1-.36.17c-.49,0-.93-.67-1.28-1.77q-.39,11.69-1.06,23.53c.51,21.93.65,43.9-1,67.27-1.15,16.06-2.9,30.58-4.53,45.42-.78,18.82-1.79,37.58-3.59,56.59a9.56,9.56,0,0,1-.28,1.81c-.11.28-.14-.13-.09-.9.85-13.07,1.37-26.46,1.76-40-.51,2.12-1.05,3.39-1.55,3.21s-.9-1.83-1.13-4.36l-.47,9.2c-.11,1.89-.37,3.38-.61,3.32s-.4-1.55-.32-3.35q.75-18.76,1.49-37.47c.14-15,.2-29.91.24-44.93a10.54,10.54,0,0,1-1.85,4.32h0c0,2.32,0,4.64-.07,6.95.59,21.21.72,42.67.27,64.3s-1.44,43.41-2.9,65.29a7.75,7.75,0,0,1-.19,1.57,5.8,5.8,0,0,1,0-1.41q1.22-19.81,1.94-39.52v.06c-.08.53-.19.62-.24,0a13,13,0,0,1,.07-2.06c.1-.6.21-.55.25-.05.87-24.47,1.07-48.77.6-72.75q-.43,33.42-1.66,66.81c0,2.42.11,4.84.16,7.31a7.74,7.74,0,0,1-.19,1.82c-.08.18-.16-.31-.17-1l0-2c-.17,4.21-.65,7.45-1.12,7.38-.48-.24-.82-3.86-.77-8.24,0-11.72,0-23.39.07-35.07l-.09-3.79c-.11-1.28-.22-2.54-.32-3.81-.38,18.16-.73,36.28-.87,54.3a8.19,8.19,0,0,1-.26,2.89c-.16,0-.31-1.21-.33-2.77-1.1-31.76-2.38-63.92-3.14-96.21-1.38-10.62-2.86-21.26-4.34-32.11,0,1.37,0,2.75,0,4.13.17,17.55,1.45,33.79,2.7,49.88s2.47,32,3.06,49a4.06,4.06,0,0,1-.13,1.67c-.1.09-.22-.48-.24-1.35-.72-16.59-2.12-31.74-3.31-48.21-1-13.64-1.91-26.61-3.14-39.29.83,25.91,3,50.77,4.39,76.43a15.12,15.12,0,0,1,0,3,1.37,1.37,0,0,1,.18.63c.42,3.21.74,6.71,1,10.29a6.77,6.77,0,0,1,0,1.91C304.84,431.66,304.72,431.24,304.64,430.48Zm2.49-329.2.2,0-.54.07-1.11-.28S306.38,101.16,307.13,101.28ZM312,94.39h0l.71.31ZM319.4,194c-.14-.8-.28-1.59-.37-2.35l-.2-2.71c-.13-1.89-.32-3.82-.64-5.73a49.38,49.38,0,0,0-3.11-11,47.22,47.22,0,0,0-2.48-5.1,13.92,13.92,0,0,1-1.74-3.74,4.63,4.63,0,0,1,0-1.35,6.68,6.68,0,0,1,.34-1.45,8.78,8.78,0,0,1,1.73-2.73,8.9,8.9,0,0,0-1.62,2.69,5.71,5.71,0,0,0-.28,2.67c0,1.12,1.68,3.53,2.95,6.15a48.34,48.34,0,0,1,3.1,8.12,53.13,53.13,0,0,1,1.61,8.61c.16,1.44.24,2.9.33,4.29,0,.66.07,1.37.15,1.9S319.3,193.43,319.4,194Zm-5.15-92.28a22.85,22.85,0,0,1-2.83-.73,4.9,4.9,0,0,1-1.26.7c-1.2.53-2.43,1-3.54,1.53.34.12.07.24,0,.34l-.33.28c.61-.26,1.25-.5,1.88-.71s1.37-.42,2.05-.6,1.33-.34,2-.49A12.43,12.43,0,0,1,314.25,101.74Zm8.86-4,.22.12.1.63Zm-.21-1.08-.26,0C322.58,96.36,322.7,96.42,322.9,96.63Zm-2.37-.21a2.53,2.53,0,0,0,.46.22ZM308.61,81.18l1.18,3.19-1.05-3.13Z"/><path d="M25.47,199.32l.61-.19a1.7,1.7,0,0,1-.69,1.16,15,15,0,0,0,6.41-5.94A26.09,26.09,0,0,0,35,186.28c1.23-1.11,1.71-2.74,1-3.73s-2.44-.93-3.75.23a5.65,5.65,0,0,1-1.11.47,17.91,17.91,0,0,0-4.68,1.35,26.35,26.35,0,0,0-4.59,2.54l2.15-.85a11,11,0,0,0-2.5,2l.78.13c-3.49,1.59-6,5.8-5.28,9s3.88,4.24,7,2.6Z"/><path d="M34.64,199.16c-1.71.87-3.49,1.66-5.21,2.54l-.55,0,1.62,1-.08-.1c-.37-2.22.77-4.74,2-6.93l.37-.85a1.61,1.61,0,0,0-.25-1.26c-.55-.75-1.72-.71-2.62.11l-1,.95c-3,1.9-6.24,6.3-4.51,9.58.4.75,1.39,1,2.17,1.36a2.58,2.58,0,0,0,3.53-.84,2.71,2.71,0,0,0,.07-3.7c.23-.16.46-.34.7-.49l0,.77c-.63-1,.1-2.3.32-3.53.26-.49.52-1,.8-1.47l-2.89-1.1-.25.93a3.45,3.45,0,0,1,.37.06,48.13,48.13,0,0,1-1.35,5.25c-.15.82-.31,1.62-.42,2.44a1.2,1.2,0,0,0,1.64,1c.36-.15.71-.3,1.08-.44l-.56.15c.92-.72,1.81-1.49,2.7-2.25s1.83-1.46,2.77-2.1a.79.79,0,0,0,.38-.9A.53.53,0,0,0,34.64,199.16Z"/><path d="M30.25,205.63a1.84,1.84,0,0,0-1,.78l.08.31.81-.3C30.7,206.21,30.61,205.84,30.25,205.63Z"/><path d="M29.31,206.72l-.35.13h.35v-.12Z"/><path d="M62.53,342.92,60,344.81c-.84.64-1.63,1.3-2.44,1.95-1.61,1.32-3.31,2.59-4.78,4l-2.28,2a29.44,29.44,0,0,0-2.22,2.08l-.51.51-.16.19-.33.36c-.21.25-.61.55-.87.86a23.69,23.69,0,0,0-3.1,4.06,6.27,6.27,0,0,0-.77,2.45,3.86,3.86,0,0,0,.64,2.45,11.76,11.76,0,0,0,4,3.13A27.14,27.14,0,0,0,52,370.94c.09,0,.22.07.35.11l.5.14,1.35.42c.91.27,1.85.48,2.77.73,1.87.43,3.76.84,5.7,1.12a84,84,0,0,0,11.84,1,5,5,0,0,0,2-.23,3.76,3.76,0,0,0-1.79-.21,83.21,83.21,0,0,1-11.79-1c-1.92-.28-3.8-.68-5.66-1.1l-2.76-.71c-.83-.26-2-.63-2.3-.7a27.81,27.81,0,0,1-4.58-2,11.77,11.77,0,0,1-3.86-2.93,3.56,3.56,0,0,1-.68-2.29A5.55,5.55,0,0,1,43.8,361a20.53,20.53,0,0,1,2.91-3.87,9.5,9.5,0,0,1,.85-.83l.3-.34.16-.17.07-.08.23-.24,1-1.06,1.14-1,2.27-2c.77-.67,1.47-1.37,2.3-2l2.44-1.95,2.42-1.95,2.56-1.89a6.19,6.19,0,0,0,1.65-1.53C64.11,341.9,63.39,342.29,62.53,342.92Z"/><path d="M233.35,335.83c-1,0-.93.1.05.26s2.35.36,3.3.46.81,0,0-.27A15.86,15.86,0,0,0,233.35,335.83Z"/><path d="M225.48,343.84a60.39,60.39,0,0,0-13.21,3.43c-.75.28-1.6.52-2.26.7.34.07-.54.52-2.25,1.17-16.91,6.44-33.59,15.6-51.13,24.73-8.78,4.55-17.82,9.08-27.26,13.12a191.87,191.87,0,0,1-29.6,10.17,5.74,5.74,0,0,1-1.66.83A42.2,42.2,0,0,1,92,399.73c-1.31.26-2.73.51-4.2.75s-3,.37-4.6.52-3.16.18-4.74.23A116.33,116.33,0,0,1,64,400.91a98,98,0,0,1-14.45-2.27l-1.8-.42L46,397.73l-2-.56a16.76,16.76,0,0,1-2.22-.7c-1.47-.52-3-1-4.4-1.57L33,393.14a67.13,67.13,0,0,1-15.12-9.43,28.28,28.28,0,0,1-5.26-5.28,19.41,19.41,0,0,1-3.52-7.64,21.84,21.84,0,0,1-.43-7.42,30.46,30.46,0,0,1,1.7-7.19,32.91,32.91,0,0,1,3.3-6.89l4.45-6.7c.74-1.12,1.48-2.26,2.35-3.35.42-.55.82-1.1,1.27-1.65l1.42-1.66,2.56-3c.67-.83,1.38-1.58,2.1-2.33l4.33-4.55c1.47-1.48,3-2.87,4.5-4.31-.88.58-1.48.86-1.61.7-.07-.55,2.56-3.54,6-6.27,1.75-1.42,3.47-2.9,5.24-4.2-1.29.91-2.56,1.9-3.83,2.91l-3.82,3c-2.53,2.05-5,4.24-7.5,6.36-.7.67-1.35,1.27-2,1.8l-3.92,3.87c-.66.64-1.26,1.37-1.9,2.06l-2.66,3c-.45.51-.94,1-1.35,1.53L18.21,338c-.83,1-1.55,2.07-2.28,3.12l-4.37,6.34-1.2,1.74c-.35.59-.65,1.18-1,1.78a31,31,0,0,0-1.66,3.63c-.49,1.21-.88,2.45-1.28,3.69s-.61,2.51-.82,3.78a29.15,29.15,0,0,0-.36,3.86,25.4,25.4,0,0,0,.24,3.89,21,21,0,0,0,.87,3.83c.18.62.41,1.23.64,1.83s.54,1.17.83,1.74a27.58,27.58,0,0,0,4.36,6.16A34.36,34.36,0,0,0,14.94,386c1,.83,2.09,1.6,3.13,2.41a68.13,68.13,0,0,0,14.37,7.86l3.91,1.49,4,1.31c.66.21,1.32.45,2,.64s1.3.31,2,.47l3.08.73a101.73,101.73,0,0,0,12.21,1.83,115.09,115.09,0,0,0,23.87-.4c15.62-1.93,30-6.6,43.33-12.28s25.76-12.35,37.86-18.83a22.15,22.15,0,0,1,2.8-1.34c.52-.15.49,0-.39.5-15,8.55-29.27,17.13-45.69,24.27a159.66,159.66,0,0,1-26.68,9.05,116.18,116.18,0,0,1-31.95,3.21c-.86,0-1.72-.06-2.59-.12l-2.59-.22c-1.73-.11-3.47-.36-5.21-.58s-3.48-.56-5.22-.85c-.87-.14-1.74-.35-2.61-.54l-3.06-.71a11.4,11.4,0,0,1-1.82-.5l-1.79-.57-3.6-1.16-3.53-1.32-1.78-.66a14,14,0,0,1-1.73-.73l-3.33-1.66c-1.12-.55-2.25-1.09-3.28-1.73l-3.18-1.85c-.52-.32-1.09-.6-1.56-.95l-1.39-1.08a48.88,48.88,0,0,1-5.34-4.46,35.55,35.55,0,0,1-4.19-5.16L4,380.68c-.27-.48-.54-1-.8-1.47a26.1,26.1,0,0,1-1.38-3.1c-.37-1.08-.73-2.18-1-3.29s-.48-2.26-.62-3.4a34.31,34.31,0,0,1,1.21-13.49,36.4,36.4,0,0,1,2.44-6.53l.77-1.61c.32-.53.67-1.05,1-1.57l2-3.14,4.08-6.31a56.31,56.31,0,0,1,4.83-6.26l2.54-2.93c.56-.65,1.1-1.34,1.68-2l3.5-3.7c2.32-2.53,4.75-4.77,7.18-7.08l1.82-1.73,1.85-1.62,3.71-3.23c9.93-8.48,20.08-15.78,29.69-22.8,10.24-7,19.63-13.73,27.67-20.64,1.06-.85,2-1.72,2.94-2.6l2.84-2.61c1-.86,1.75-1.78,2.64-2.66l2.58-2.64A63.27,63.27,0,0,0,114.93,244c.54-.84.91-1.67,1.38-2.49s.81-1.61,1.07-2.38a23,23,0,0,0,1.37-4.31,15.17,15.17,0,0,0,.36-3.48,11.72,11.72,0,0,0-.39-2.6,15.14,15.14,0,0,0-2.69-4.92,16.49,16.49,0,0,0-5-4.21,20.06,20.06,0,0,0-8.88-2.05,25.47,25.47,0,0,0-5.38.49,26.16,26.16,0,0,0-5.21,1.65c-.4.19-.8.34-1.22.58l-.64.31a.21.21,0,0,0-.11.08l-.35.27a8.44,8.44,0,0,1-.7.52c-.45.4-.92.71-1.37,1.1a58.3,58.3,0,0,0-5.5,4.91,2.56,2.56,0,0,1-2.77,1,9.14,9.14,0,0,1-4.22-2,8.55,8.55,0,0,1-3.26-5l-.46.43-1,.43a5,5,0,0,1-3.46.05L64.85,222c-2.92-1.12-5.93-1.22-9-2.29l-.81-.87h-.41a6.4,6.4,0,0,1-3.43-.64l-1.12-.88a13.42,13.42,0,0,1-3-3.7,5,5,0,0,1-1.27-1.23,6.78,6.78,0,0,1-4-2.4.93.93,0,0,1-1-.94,1.15,1.15,0,0,1,.14-.57h0a6.68,6.68,0,0,0-1-.06c-.33.24-.54.37-.54.37-.81.7-.81.7-1.54,1.3a5.27,5.27,0,0,1-1.71.4c-2.61-.67-2.62-.65-3.46-1.37l-.16-.32c-.72.41-.77.44-1,.54a2.56,2.56,0,0,1-.55.07c-.52-.29-.52-.29-.77-.3a2.75,2.75,0,0,1-.39-.21c-.32-.7-.32-.71-.47-.81a2.13,2.13,0,0,1-.14-.38c.11-.52.16-.72.18-.81l1.87,0-.31-.48.72.18-.61-.24.62-.22-.81.19a7.11,7.11,0,0,0,1.2-1.34,2.43,2.43,0,0,0,.53-.88,1.63,1.63,0,0,1-.3-.16c1-.95,1-1,2-1.83a2.24,2.24,0,0,1,.52,0,.64.64,0,0,1,.22-.64l.51-.47,0-.18,0,0,.12-.65,0-.14h0l.66-2.77a7.7,7.7,0,0,1,1-.69l-.44.07c-.3,0-.6-.48-.71-.43a35,35,0,0,0-7.74,6,1.12,1.12,0,0,1-1.31.58.88.88,0,0,1-.22-1.31,20.89,20.89,0,0,1,5.19-9.86A27.2,27.2,0,0,1,41.35,185c1.6-1,3.14-2,4.76-3l-.39-.06,1.4-.55.13-.08-1.49-.12-.78.24c-3.63,2.4-7.64,3.9-11.36,6.28-2,1.28-4.07,2.08-6.06,3.3-.41.4-.95.47-1.23.15s-.14-.89.27-1.29c4.24-6.15,11.36-11.66,18.22-12.49a7.44,7.44,0,0,1,3.56-1.45l.06,0-1.17-.2c.94-.42,1.78-.17,2.71-.43l-.94-.75c4.51-2.22,9.13-5.2,14.09-5.65a3.34,3.34,0,0,1,.52-.14A29.46,29.46,0,0,1,66,166.52l.66-.51a1.66,1.66,0,0,1,.23-.13l1.29-.54c.87-.35,1.73-.72,2.63-1.05A78,78,0,0,1,82.31,161c-1.37.26-2.73.5-4.08.79s-2.7.64-4,1-2.67.78-4,1.2l-3.66,1.27,0,0,.23-.1.51-.22,1-.43c.69-.28,1.37-.58,2.07-.85,1.41-.51,2.83-1,4.27-1.51a79.74,79.74,0,0,1,8.82-2.27,76,76,0,0,1,45.21,4.94,73.28,73.28,0,0,1,12.11,6.9,69.44,69.44,0,0,1,10,8.8,68.35,68.35,0,0,1,7.56,9.76,62.16,62.16,0,0,1,5.14,10,53.35,53.35,0,0,1,4,17.51c.22,1.07.42,2.14.55,3.24s.29,2.19.38,3.3l.19,3.33c.07,1.12,0,2.18,0,3.28a63,63,0,0,1-.48,6.46c-.12,1.07-.33,2.1-.5,3.15s-.37,2.1-.63,3.1l-.75,3-.92,2.94c-.29,1-.64,1.94-1,2.87s-.72,1.88-1.1,2.8a84.62,84.62,0,0,1-5.27,10.32A103.9,103.9,0,0,1,145,282.84c-2.37,2.54-4.85,5-7.29,7.2L134,293.39c-1.22,1.13-2.49,2.1-3.74,3.16a317.32,317.32,0,0,1-30.42,21.79c-10,6.5-19.79,12.54-28.7,18.86a14.09,14.09,0,0,1-4.06,2.33c-.35-.08.71-1.14,2.52-2.47,12.6-9.35,27-18.11,41.59-28.31a254.8,254.8,0,0,0,21.68-17l5.23-4.86c1.74-1.67,3.48-3.47,5.16-5.3a109.09,109.09,0,0,0,9.52-11.94,100.8,100.8,0,0,1-8.14,9.89c-.71.77-1.43,1.53-2.16,2.26s-1.45,1.5-2.2,2.2L138,286.13l-2.24,2L131.3,292l-4.6,3.66-2.3,1.81-2.34,1.71-4.67,3.41c-12.52,8.74-25.26,16.24-37.24,23.9l-4.53,3-4.44,3.05-4.32,3c-1.41,1-2.9,1.92-4.27,2.92l-5.14,3.91-4.85,4c-1.59,1.36-3,2.79-4.57,4.17l-1.13,1.05c-.37.35-.7.73-1,1.09l-.46.49-.24.26-.46.53c-.3.36-.75.75-1.08,1.15l-1,1.26a28.46,28.46,0,0,0-2,2.57,12,12,0,0,0-1.43,2.87,5.8,5.8,0,0,0-.22,3.17,5.45,5.45,0,0,0,1.64,2.72,13.48,13.48,0,0,0,2.62,1.88,31.84,31.84,0,0,0,5.86,2.73c.5.19,1,.33,1.54.49l.77.24.46.1.63.18,1.4.4,1.43.32c.95.22,1.9.46,2.88.62a76,76,0,0,0,12,1.31,95.58,95.58,0,0,0,10.45-.25c3.47-.31,6.84-.71,10.27-1.35a141.91,141.91,0,0,0,20.22-5.35c13.41-4.54,26.65-10.77,41.13-17.82,10.19-4.95,20.39-9.93,31-14.38,5.29-2.22,10.68-4.31,16.19-6.17a122.74,122.74,0,0,1,17.64-4.79,59.83,59.83,0,0,1,21-.37,44.28,44.28,0,0,1,21,9.81,55.63,55.63,0,0,1,13.38,16.94,76.69,76.69,0,0,1,6.66,18.93c1.51,6.65,1.83,12.48,1.5,13.26s-1.24-3.57-2.54-10a81.59,81.59,0,0,0-6.38-19.3,54.75,54.75,0,0,0-13.32-17.5,43.36,43.36,0,0,0-9.91-6.45A42.75,42.75,0,0,0,237,327.78a60.14,60.14,0,0,0-21.48,1c-3.28.69-6.42,1.54-9.45,2.47s-5.9,1.9-8.81,2.93c-5.79,2.07-11.43,4.37-17,6.78C169.28,345.74,158.68,351,148.2,356s-20.85,9.77-31.38,13.61a142.62,142.62,0,0,1-31.88,8,87.91,87.91,0,0,1-31.51-1.88l-1.86-.54c-.51-.14-.9-.23-1.28-.37-.77-.26-1.56-.47-2.32-.78s-1.53-.58-2.27-.93-1.49-.69-2.22-1.08-1.43-.8-2.14-1.21a17.47,17.47,0,0,1-2-1.39,6.81,6.81,0,0,1-2.7-4,7.24,7.24,0,0,1,.55-4.16,17.23,17.23,0,0,1,2.14-3.64c.87-1.11,1.76-2.18,2.64-3.26.42-.54,1-1,1.4-1.5s.68-.77,1.64-1.77c-.15,0-.29,0-.35,0-.26-.25.06-1.16,1-2.38-.49.46-1,.9-1.45,1.39L43,351.34c-.53.57-1.06,1.15-1.7,1.77-1.15,1.29-2.23,2.65-3.36,4a18.64,18.64,0,0,0-2.69,4.53,7.33,7.33,0,0,0-.29,5.19,8.1,8.1,0,0,0,2.33,2.87,19.58,19.58,0,0,0,3.13,2,40.37,40.37,0,0,0,6.67,3c1.13.42,2.29.73,3.43,1.06l.47.11.54.14,1.3.35c.87.24,1.77.39,2.65.6a81,81,0,0,0,10.9,1.55,100.72,100.72,0,0,0,11.28.2q5.7-.27,11.47-1.1A155.08,155.08,0,0,0,112.62,372a334.58,334.58,0,0,0,31.52-12c10.24-4.37,20.37-8.94,30.88-13.28,6.56-3,13.23-5.86,20.09-8.44q5.14-1.94,10.44-3.62a107.58,107.58,0,0,1,11.09-3,63.84,63.84,0,0,1,12.1-1.37,43.82,43.82,0,0,1,12.94,1.68c1.09.29,2.15.72,3.22,1.09s2.11.86,3.11,1.4a39.66,39.66,0,0,1,5.74,3.51,45.66,45.66,0,0,1,9.22,9.14,15.41,15.41,0,0,1,1.79,2.7c.19.45-.27-.1-1.08-1.19a45.56,45.56,0,0,0-13.12-12A37.67,37.67,0,0,0,242,333a40.53,40.53,0,0,0-9-1.56A59.07,59.07,0,0,0,215.91,333c-2.69.61-5.31,1.34-7.87,2.14-1.29.39-2.53.81-3.78,1.23s-2.49.85-3.72,1.3c3.24-.77,5.27-.9,5.15-.41s-2.43,1.68-6,3.23c4.46-1.52,8.94-3,13.65-4.12,2.9-.7,5.29-.95,5.24-.7s-2.33.86-5.06,1.53a205.18,205.18,0,0,0-27.17,9.35c-8.78,3.64-17.34,7.65-25.83,11.66-10.13,5-20.15,9.93-30.37,14.28a192.4,192.4,0,0,1-31.36,10.63,30.78,30.78,0,0,1,6.53-.27h0c3.31-.94,6.61-1.92,9.85-3.05,14.83-5.36,29.09-12.49,43.51-19.67s29.1-14.42,44.78-19.79c7.79-2.64,16-5.06,24.86-5.29A38.71,38.71,0,0,1,241.62,337a34.46,34.46,0,0,1,11.76,6.79c6.8,5.93,11.37,13.84,14.11,22s4,16.59,5,24.78a8.62,8.62,0,0,1,.14,2.38,6.48,6.48,0,0,1-.44-2.09c-1.27-9.86-2.75-20.08-6.91-29.73a49.79,49.79,0,0,0-8.41-13.37,36.76,36.76,0,0,0-13-9.53l.08,0c.78.41.88.58,0,.27s-2.39-.86-3.19-1.2-.82-.43,0-.27A40.78,40.78,0,0,0,226,335.56a72.47,72.47,0,0,0-14.14,2.59,212.29,212.29,0,0,0-26.12,9.6c-16.88,7.37-32.81,16.1-49.08,23.61,15.23-6.73,30.09-14.51,45.52-21.27A245.27,245.27,0,0,1,205.78,341a106.55,106.55,0,0,1,12.37-3.27,54.93,54.93,0,0,1,13-1.05,35.19,35.19,0,0,1,11.51,1.92,12,12,0,0,1,2.63,1.33c.22.22-.51-.09-1.54-.49a31.35,31.35,0,0,0-3.09-1.07,25.49,25.49,0,0,1,7.46,3.88c1.67,1.31,2.46,2.3,2.26,2.46-.62.23-5.14-3.12-11.52-4.82a38.36,38.36,0,0,0-13.07-1,71.82,71.82,0,0,0-12.92,2.44,213.19,213.19,0,0,0-24.73,8.92c-1.74.76-3.46,1.57-5.19,2.35s-3.41,1.72-5.1,2.61c6.22-2.79,12.5-5.44,18.86-7.82,3.19-1.19,6.39-2.31,9.62-3.33s6.48-2,9.76-2.73c6.54-1.5,13.32-2.2,19.8-1A29.84,29.84,0,0,1,245,343.7a33.16,33.16,0,0,1,7.63,6.08c1.58,1.61,2.62,3.25,2.5,3.4s-1.32-1.2-2.86-2.79A29.72,29.72,0,0,0,238,342.05a39.89,39.89,0,0,0-16.82,0,106.72,106.72,0,0,0-16.85,4.9c-5.57,2-11.07,4.3-16.52,6.73-21.79,9.74-42.8,22.07-66,30.87A178.58,178.58,0,0,1,98.62,393a122.72,122.72,0,0,1-25.25,4.48c1.1,0,2.2,0,3.31-.06s2.22-.06,3.32-.16c14.15-.95,27.12-4.57,39.14-9.06A313.69,313.69,0,0,0,153,372.52c10.79-5.62,21.31-11.38,32.2-16.58,5.44-2.59,11-5.05,16.68-7.26a119.33,119.33,0,0,1,17.48-5.52,7.65,7.65,0,0,1,2.37-.27c.14.06-.65.31-1.85.53A113.66,113.66,0,0,0,203,348.74c-5.52,2.13-10.87,4.51-16.17,7-10.6,5.05-21,10.71-32,16.44-9.15,4.74-18.25,9.28-27.53,13.28a199,199,0,0,1-28.55,9.95,177.77,177.77,0,0,0,28.75-9.37c9.12-3.81,17.84-8.08,26.38-12.44,17.05-8.7,33.5-17.79,51.14-24.27a30.3,30.3,0,0,1,4.13-1.29,3,3,0,0,1,.83-.42,70.14,70.14,0,0,1,14-4,10.58,10.58,0,0,1,2.61-.16C227.06,343.57,226.5,343.69,225.48,343.84Zm-177-149.57-.26,0,.67-.15,1.53.48Zm-3.14,10.67h0l-.89-.17Zm84.45,87c2.15-1.79,4.22-3.76,6.33-5.62s4.2-4,6.22-6.12a106.8,106.8,0,0,0,11.32-14.13,77.72,77.72,0,0,0,8.78-17.26,64,64,0,0,0,3.77-20.64,62.8,62.8,0,0,1-3,20.37,81.45,81.45,0,0,1-14.49,25.1,117.3,117.3,0,0,1-9.22,9.86c-.81.74-1.62,1.53-2.43,2.23l-2.43,2.1C133.06,289.2,131.46,290.66,129.79,291.94Zm-90-96.37a11,11,0,0,1,3.53,0A6.37,6.37,0,0,1,44.5,194a35.06,35.06,0,0,1,4.23-3.14c-.5-.22-.15-.45,0-.63l.41-.51-2.45,1.41-2.46,1.48C42.72,193.57,41.24,194.73,39.74,195.57Zm-6.63,11.18-.24,0-.41-.69Zm.74,1.15.23-.16C34.25,208,34.12,208,33.85,207.9ZM36,206.52a1.58,1.58,0,0,0-.52,0Zm18.46,11.64-2.53-2.79c.78.92,1.57,1.84,2.37,2.75Z"/><path d="M73.08,125.12l.26,0c0,.17-.16.28-.35.36,2.45,0,3.93-2.31,4.33-4.5a1.09,1.09,0,0,0-1.18-1.84,1.72,1.72,0,0,1-.44.06,8.48,8.48,0,0,0-3.68.26h.86a2.68,2.68,0,0,0-1,.4l.31.18a2.53,2.53,0,1,0,.26,5.06Z"/><path d="M76.93,126.57c-.79.11-1.58.18-2.37.24l-.23-.08.61.71,0-.06a4.52,4.52,0,0,1,1.24-2.62l.19-.32a.81.81,0,0,0-1.16-.91l-.45.24c-1.3.34-2.85,1.51-2.44,3.17.1.38.49.66.78,1a1.11,1.11,0,1,0,1.85-1.24l.33-.09-.06.32c-.19-.53.18-1,.34-1.45l.4-.5L74.77,124l-.14.35.15.08a10,10,0,0,1-.86,2l-.35.94a.68.68,0,0,0,.6.7h.49l-.25,0c.9-.28,1.74-.7,2.64-1a.28.28,0,0,0,.21-.33A.27.27,0,0,0,76.93,126.57Z"/><path d="M74.6,128.61a.61.61,0,0,0-.5.14v.14l.37,0C74.73,128.93,74.73,128.76,74.6,128.61Z"/><path d="M74.1,128.89h-.16l.15.06v-.05Z"/><path d="M96,108.59a34.78,34.78,0,0,0,3.7-2s0-.1,0-.17-.13-.1-.16-.08a41.26,41.26,0,0,1-3.7,2s0,.1,0,.17S95.93,108.61,96,108.59Z"/><path d="M109.59,109.23a.26.26,0,0,0,.14.17c.06,0,.1,0,.09-.07a.31.31,0,0,0-.14-.18C109.61,109.12,109.58,109.17,109.59,109.23Z"/><path d="M113.63,114.92a1.89,1.89,0,0,0-.12.74s0,.06-.07,0a.48.48,0,0,1,.13.32,15.34,15.34,0,0,1-2,4.47,2.19,2.19,0,0,1,.16.3c.13.35.09.62-.12.7l-.18,0c-.63.23-1.24.49-1.88.7a.79.79,0,0,1-.17.52,12.93,12.93,0,0,1-.59,2,.92.92,0,0,1,.26.23c.18.26.22.52.09.6l-.17.16.67-.22a.16.16,0,0,1,.1,0,4.18,4.18,0,0,0,.57-.47,15,15,0,0,0,3.23-6c0-.06,0-.09.12,0s.12.13.11.19c-.06,2,.31,4.3-.21,6a31,31,0,0,1-2.25,5.57c-1.47,1.13-2.36,2.76-3.51,4.35-.39.54-.79,1-1.21,1.52a2.84,2.84,0,0,1-.2.21l-.33.31-.68.61-1.35,1.2c-1.82,1.58-3.69,3.09-5.59,4.61a3.32,3.32,0,0,1-4.7,0,3.37,3.37,0,0,1-.94-2.89l-.37.26-.69.26a3,3,0,0,1-2,0l-.86-.31c-1.41-.74-3-1.05-4.35-1.92l-.25-.53-.21-.05a2.89,2.89,0,0,1-1.58-.73L82,137a6.67,6.67,0,0,1-.87-2.15,2.56,2.56,0,0,1-.43-.75,3.44,3.44,0,0,1-1.55-1.68.48.48,0,0,1-.37-.57.56.56,0,0,1,.13-.24h0c-.19-.08-.24-.11-.47-.19l-.28.09-.82.33a2.5,2.5,0,0,1-.79-.12c-1.06-.75-1.06-.75-1.34-1.21a.9.9,0,0,1,0-.16l-.48.05a1,1,0,0,1-.24-.08c-.18-.21-.18-.21-.29-.27a.92.92,0,0,1-.14-.16c-.06-.35-.06-.35-.11-.43a.94.94,0,0,1,0-.18l.15-.31.79.33L74.8,129l.28.21-.23-.21.28,0-.36-.07a2.17,2.17,0,0,0,.63-.35.87.87,0,0,0,.3-.29l-.12-.12c.5-.24.5-.24,1-.46l.22.09a.23.23,0,0,1,.14-.24l.25-.13,0-.07v0l.09-.26,0-.06h0l.41-1.12a3.16,3.16,0,0,1,.46-.16l-.19,0c-.13,0-.24-.29-.29-.29a16.88,16.88,0,0,0-3.59,1.35.42.42,0,0,1-.59,0,.41.41,0,0,1,0-.58,9,9,0,0,1,6.43-5.1l1.86-1-.17,0,.56-.16,0,0-.63-.15-.31,0a26.82,26.82,0,0,1-4.53,1.63,22.07,22.07,0,0,1-2.51.55.37.37,0,1,1-.38-.63c1.85-1.87,4.41-3.44,7.11-3.37a2.08,2.08,0,0,1,1.32-.44h0l-.49-.15c.35-.14.71,0,1.06-.07l-.45-.37c1.61-.8,3-2.09,4.81-2.44l.18-.07a8.35,8.35,0,0,1,.94-1.79l-.46.12a1.47,1.47,0,0,1,.52-.89,3.13,3.13,0,0,1,3.36.47,49.7,49.7,0,0,0,3.68-3.72c.06-.08.19,0,.31.09s.16.3.11.37a16.28,16.28,0,0,1-2.26,3.22,14.91,14.91,0,0,0,2.91-1.45l.29-.31a.62.62,0,0,1,.38-.18,13.4,13.4,0,0,0,3-2.76,28.87,28.87,0,0,0,1.94-3.13,12.4,12.4,0,0,1,2.93-4.17c.15-.18.5,0,.79.27s.4.74.26.92c-1.92,3.18-3.61,6.55-6.6,8.6l-1,.64.11.14a2,2,0,0,1,.32.56,9.5,9.5,0,0,1,1.2-.58,6.59,6.59,0,0,1,2.51-2.88,9.25,9.25,0,0,1,2.71-.63c.66-.85,1.28-1.76,2-2.59,0,0,.08,0,.14,0a.19.19,0,0,1,.08.19,13.48,13.48,0,0,1-1,2.4,2.26,2.26,0,0,1,.75.68,2.17,2.17,0,0,1,.43.94l.42-.29c.09,0,.25,0,.37.18s.16.34.08.4l-1.7,1.21c-.53.68-1.07,1.34-1.63,2a3.16,3.16,0,0,1,.77.61h0l.28-.26a14.11,14.11,0,0,1,4.77-5.61s.12,0,.17.08.08.15,0,.18a11.25,11.25,0,0,0-1.73,1.36h0a.27.27,0,0,1,.14.17c0,.07,0,.1-.09.08a.28.28,0,0,1-.14-.18,15.37,15.37,0,0,0-2.53,3.34,17.5,17.5,0,0,1,3-2.25c0-.17.07-.35.11-.52s.09,0,.15,0a.21.21,0,0,1,.07.19l0,.13c.2-.11.58.08.87.46s.35.81.15.94a17.86,17.86,0,0,1-1.44,1.32l-.11.2,0,.31c.91-.47,1.85-.91,2.79-1.33.07,0,.21,0,.31.14s.14.29.07.35a28.22,28.22,0,0,1-3.34,4.41c0,.94,0,1.88-.07,2.82a.82.82,0,0,0,.2-.12c1.54-1.2,1.58-3.85,2.81-5.34,0,0,.1,0,.16,0s.08.15,0,.18a17.2,17.2,0,0,0-1.2,2.82,14.65,14.65,0,0,0-.9,2.4c1-1,1.55-2.6,2.43-3.79,0-.07.1-.07.19,0a.19.19,0,0,1,0-.11,2.32,2.32,0,0,1,.12-.78s.06,0,.14,0A.23.23,0,0,1,113.63,114.92ZM83.14,126l-.12,0h.3l.69.33Zm-1.87,4.63h0l-.4-.18ZM95,112.39a4.59,4.59,0,0,1-2.15.9l.36-.43C93.78,112.68,94.37,112.52,95,112.39ZM79.26,125.67a5.91,5.91,0,0,1,1.54.39,2.21,2.21,0,0,1,.58-.56,18.38,18.38,0,0,1,1.85-1.1c-.22-.14-.07-.22,0-.29l.17-.21q-1,.48-2.13.93A16.46,16.46,0,0,1,79.26,125.67Zm-3.55,3.92-.1,0-.12-.37Zm.2.62.12,0C76.08,130.32,76,130.3,75.91,130.21ZM77,130l-.23-.07ZM84,138l-.8-1.66.73,1.63Z"/></g></g></svg>