<svg xmlns="http://www.w3.org/2000/svg" viewBox="0 0 280.74 276.35"><g id="Layer_2" data-name="Layer 2"><g id="Layer_1-2" data-name="Layer 1"><path d="M25.47,40.87c.2-.07.41-.12.61-.18a1.71,1.71,0,0,1-.69,1.15,15,15,0,0,0,6.41-5.93A26.14,26.14,0,0,0,35,27.83c1.23-1.1,1.71-2.73,1-3.73s-2.44-.93-3.75.23a5.11,5.11,0,0,1-1.11.47,18.31,18.31,0,0,0-4.68,1.35,27,27,0,0,0-4.59,2.54L24,27.85a10.65,10.65,0,0,0-2.5,1.94l.78.13c-3.49,1.59-6,5.8-5.28,9s3.88,4.24,7,2.6Z"/><path d="M34.64,40.71c-1.71.87-3.49,1.66-5.21,2.55l-.55,0,1.62,1-.08-.1c-.37-2.22.77-4.74,2-6.93l.37-.85a1.57,1.57,0,0,0-.25-1.26c-.55-.75-1.72-.7-2.62.11l-1,.95c-3,1.9-6.24,6.3-4.51,9.59.4.74,1.39.95,2.17,1.36a2.59,2.59,0,0,0,3.53-.85,2.7,2.7,0,0,0,.07-3.69c.23-.17.46-.35.7-.5,0,.25,0,.52,0,.78-.63-1,.1-2.31.32-3.53.26-.5.52-1,.8-1.48l-2.89-1.1-.25.93a3.45,3.45,0,0,1,.37.06A47.55,47.55,0,0,1,27.86,43c-.15.82-.31,1.62-.42,2.44a1.2,1.2,0,0,0,1.64,1c.36-.15.71-.3,1.08-.44l-.56.15c.92-.72,1.81-1.49,2.7-2.25s1.83-1.46,2.77-2.09a.81.81,0,0,0,.38-.91A.53.53,0,0,0,34.64,40.71Z"/><path d="M30.25,47.19a1.82,1.82,0,0,0-1,.77,2,2,0,0,0,.08.31l.81-.3C30.7,47.76,30.61,47.39,30.25,47.19Z"/><path d="M29.31,48.27,29,48.4h.35v-.12Z"/><path d="M62.53,184.47,60,186.36c-.84.64-1.63,1.3-2.44,1.95-1.61,1.32-3.31,2.59-4.78,4l-2.28,2a29.44,29.44,0,0,0-2.22,2.08l-.51.52-.16.18-.33.36c-.21.25-.61.55-.87.86a23.38,23.38,0,0,0-3.1,4.07,6.17,6.17,0,0,0-.77,2.45,3.83,3.83,0,0,0,.64,2.44,11.76,11.76,0,0,0,4,3.13A27.14,27.14,0,0,0,52,212.49c.09,0,.22.07.35.11l.5.14,1.35.42c.91.27,1.85.48,2.77.73,1.87.43,3.76.84,5.7,1.12a83.91,83.91,0,0,0,11.84,1,5,5,0,0,0,2-.23c0-.11-.79-.22-1.79-.21a83.21,83.21,0,0,1-11.79-1c-1.92-.28-3.8-.68-5.66-1.1l-2.75-.71c-.84-.26-2-.63-2.31-.7a27,27,0,0,1-4.58-2,11.77,11.77,0,0,1-3.86-2.93,3.54,3.54,0,0,1-.68-2.29,5.55,5.55,0,0,1,.68-2.34,20.53,20.53,0,0,1,2.91-3.87,9.5,9.5,0,0,1,.85-.83l.3-.34.16-.17.07-.08.23-.24,1-1.06,1.14-1,2.27-2c.77-.67,1.47-1.37,2.3-2L57.52,189,59.94,187l2.56-1.88a6.33,6.33,0,0,0,1.65-1.54C64.11,183.45,63.39,183.84,62.53,184.47Z"/><path d="M233.35,177.38c-1,0-.93.1.05.26s2.35.37,3.3.46.81,0,0-.26A15.27,15.27,0,0,0,233.35,177.38Z"/><path d="M225.48,185.39a61,61,0,0,0-13.21,3.43c-.75.28-1.6.52-2.26.7.34.07-.54.52-2.25,1.17-16.91,6.44-33.59,15.6-51.13,24.73-8.78,4.56-17.82,9.08-27.26,13.13a192.91,192.91,0,0,1-29.6,10.16,5.74,5.74,0,0,1-1.66.83A42.2,42.2,0,0,1,92,241.28c-1.31.26-2.73.51-4.2.75s-3,.37-4.6.52-3.16.18-4.74.23A116.33,116.33,0,0,1,64,242.46a98,98,0,0,1-14.45-2.27l-1.8-.42L46,239.28l-2-.56a18.31,18.31,0,0,1-2.22-.69c-1.47-.53-3-1-4.4-1.58L33,234.69a67.13,67.13,0,0,1-15.12-9.43A28.28,28.28,0,0,1,12.65,220a19.35,19.35,0,0,1-3.52-7.64,21.84,21.84,0,0,1-.43-7.42,30.58,30.58,0,0,1,1.7-7.19,32.91,32.91,0,0,1,3.3-6.89l4.45-6.7c.75-1.12,1.48-2.26,2.35-3.34.42-.55.82-1.11,1.27-1.66l1.42-1.66,2.56-3c.67-.83,1.38-1.58,2.1-2.33l4.33-4.55c1.47-1.48,3-2.87,4.5-4.31-.88.58-1.48.86-1.61.7-.07-.55,2.56-3.54,6.06-6.27,1.74-1.42,3.46-2.9,5.23-4.2-1.29.91-2.56,1.9-3.83,2.91l-3.82,3c-2.53,2-5,4.23-7.5,6.35-.7.67-1.35,1.27-2,1.8l-3.92,3.87c-.66.64-1.26,1.38-1.9,2.06l-2.66,3c-.45.51-.94,1-1.35,1.53l-1.21,1.53c-.83,1-1.55,2.07-2.27,3.12L11.56,189l-1.2,1.74c-.35.59-.65,1.19-1,1.78a31,31,0,0,0-1.66,3.63c-.49,1.22-.88,2.45-1.28,3.69s-.61,2.51-.82,3.78a29.15,29.15,0,0,0-.36,3.86,25.61,25.61,0,0,0,.24,3.9,21.11,21.11,0,0,0,.87,3.82c.18.62.41,1.23.64,1.83s.54,1.17.83,1.74a27.58,27.58,0,0,0,4.36,6.16,34.36,34.36,0,0,0,2.73,2.66c1,.83,2.09,1.6,3.13,2.41a68.13,68.13,0,0,0,14.37,7.86l3.91,1.5,4,1.3c.66.21,1.32.45,2,.64s1.3.32,2,.47l3.08.74a105.91,105.91,0,0,0,12.21,1.83,115.78,115.78,0,0,0,23.87-.41c15.62-1.93,30-6.6,43.33-12.28s25.76-12.34,37.86-18.83a22.15,22.15,0,0,1,2.8-1.34c.52-.15.49,0-.39.5-15,8.55-29.27,17.13-45.69,24.27a159.66,159.66,0,0,1-26.68,9.05,115.79,115.79,0,0,1-31.95,3.21c-.86,0-1.72-.06-2.59-.12l-2.59-.21c-1.73-.12-3.47-.37-5.21-.59s-3.48-.56-5.22-.85c-.87-.14-1.74-.35-2.61-.54l-3.06-.71a11.4,11.4,0,0,1-1.82-.5l-1.79-.57-3.6-1.16-3.53-1.32-1.78-.66a12.63,12.63,0,0,1-1.73-.73l-3.33-1.65c-1.12-.56-2.25-1.1-3.28-1.74l-3.18-1.85c-.52-.32-1.09-.6-1.56-.95l-1.39-1.08A48.88,48.88,0,0,1,9.1,228.8a35.55,35.55,0,0,1-4.19-5.16L4,222.23c-.27-.48-.54-1-.8-1.47a26.1,26.1,0,0,1-1.38-3.1c-.37-1.08-.73-2.18-1-3.29S.35,212.11.21,211a34.31,34.31,0,0,1,1.21-13.49A37,37,0,0,1,3.86,191l.77-1.61c.32-.53.67-1.05,1-1.57l2-3.14,4.08-6.31a56.31,56.31,0,0,1,4.83-6.26l2.54-2.93c.56-.65,1.1-1.34,1.68-2l3.5-3.7c2.32-2.53,4.75-4.77,7.18-7.08l1.82-1.73L35.15,153l3.71-3.23C48.79,141.33,58.94,134,68.55,127c10.24-7.05,19.63-13.73,27.67-20.64,1.06-.84,2-1.72,2.94-2.6l2.84-2.61c1-.86,1.75-1.77,2.64-2.65l2.58-2.65a63.27,63.27,0,0,0,7.71-10.27c.54-.84.91-1.67,1.38-2.48s.81-1.62,1.07-2.39a23,23,0,0,0,1.37-4.31,15.17,15.17,0,0,0,.36-3.48,11.72,11.72,0,0,0-.39-2.6A15.14,15.14,0,0,0,116,65.41a16.63,16.63,0,0,0-5-4.21,20.06,20.06,0,0,0-8.88-2.05,25.47,25.47,0,0,0-5.38.49,26.16,26.16,0,0,0-5.21,1.65c-.4.19-.8.34-1.22.58l-.64.31a.43.43,0,0,0-.11.08l-.35.28c-.23.18-.46.35-.7.51-.45.4-.92.71-1.37,1.1a58.3,58.3,0,0,0-5.5,4.91,2.56,2.56,0,0,1-2.77,1,9.14,9.14,0,0,1-4.22-2,8.55,8.55,0,0,1-3.26-5,6.17,6.17,0,0,1-.46.43l-1,.43a5,5,0,0,1-3.46.05l-1.66-.42c-2.92-1.12-5.93-1.22-9-2.29L55,60.34h-.41a6.4,6.4,0,0,1-3.43-.64l-1.12-.88a13.13,13.13,0,0,1-3-3.7,5,5,0,0,1-1.27-1.23,6.78,6.78,0,0,1-4-2.4.93.93,0,0,1-1-.93A1.18,1.18,0,0,1,40.9,50h0a8.16,8.16,0,0,0-1-.06c-.33.24-.54.37-.54.37-.81.7-.81.7-1.54,1.31a5.42,5.42,0,0,1-1.71.39c-2.61-.67-2.62-.65-3.46-1.37-.06-.11-.11-.21-.16-.32-.72.41-.77.44-1,.54a2.56,2.56,0,0,1-.55.07c-.52-.29-.52-.29-.77-.3a2.75,2.75,0,0,1-.39-.21c-.32-.7-.32-.7-.47-.81a1.5,1.5,0,0,1-.14-.37c.11-.53.16-.73.18-.82l1.87,0-.31-.48.72.18L31,47.81l.62-.22-.81.19A7.18,7.18,0,0,0,32,46.44a2.43,2.43,0,0,0,.53-.88,1.63,1.63,0,0,1-.3-.16c1-.95,1-1,2-1.83a4.42,4.42,0,0,1,.52,0,.64.64,0,0,1,.22-.64l.51-.47,0-.17,0,0c0-.26.08-.44.12-.65l0-.14h0l.66-2.77a8.84,8.84,0,0,1,1-.69l-.44.07c-.3,0-.6-.48-.71-.42a35,35,0,0,0-7.74,6,1.12,1.12,0,0,1-1.31.58c-.44-.2-.53-.78-.22-1.31a20.89,20.89,0,0,1,5.19-9.86,27.2,27.2,0,0,1,9.29-6.56c1.6-1,3.14-2,4.76-3l-.39-.06,1.4-.55.13-.08-1.49-.12L45,23c-3.63,2.39-7.64,3.89-11.36,6.27-2,1.28-4.07,2.08-6.06,3.3-.41.4-.95.47-1.23.15s-.14-.89.27-1.29C30.84,25.26,38,19.75,44.82,18.92a7.32,7.32,0,0,1,3.56-1.44l.06,0-1.17-.2c.94-.42,1.78-.17,2.71-.43L49,16.07c4.51-2.21,9.13-5.2,14.09-5.65a5,5,0,0,1,.52-.14A31.39,31.39,0,0,1,66,8.07l.66-.51c.08,0,.07,0,.23-.13l1.29-.54c.87-.35,1.73-.72,2.63-1A78,78,0,0,1,82.31,2.59c-1.37.26-2.73.51-4.08.79s-2.7.64-4,1-2.67.78-4,1.2L66.54,6.84l0,0,.23-.1.51-.21,1-.44c.69-.28,1.37-.58,2.07-.85,1.41-.51,2.83-1,4.27-1.51A79.74,79.74,0,0,1,83.5,1.43a75.8,75.8,0,0,1,45.21,5,72.52,72.52,0,0,1,12.11,6.89,67,67,0,0,1,17.6,18.56,62.16,62.16,0,0,1,5.14,10,53.06,53.06,0,0,1,4,17.51c.23,1.07.43,2.14.56,3.25s.29,2.18.38,3.29l.19,3.33c.07,1.12,0,2.18,0,3.28a63,63,0,0,1-.48,6.46c-.12,1.07-.33,2.1-.5,3.15s-.37,2.1-.63,3.1l-.75,3-.92,2.94c-.29,1-.64,1.94-1,2.87s-.72,1.88-1.1,2.8a85.5,85.5,0,0,1-5.27,10.33A104.23,104.23,0,0,1,145,124.39c-2.37,2.54-4.85,5-7.29,7.2L134,134.94c-1.22,1.13-2.49,2.1-3.74,3.16a317.32,317.32,0,0,1-30.42,21.79c-10,6.5-19.79,12.55-28.7,18.86a14.09,14.09,0,0,1-4.06,2.33c-.35-.08.71-1.14,2.52-2.47,12.6-9.35,27-18.11,41.59-28.31a254.8,254.8,0,0,0,21.68-17l5.23-4.86c1.74-1.67,3.48-3.47,5.16-5.3a109.92,109.92,0,0,0,9.52-11.93,101.86,101.86,0,0,1-8.14,9.88c-.71.77-1.43,1.53-2.16,2.26s-1.45,1.5-2.2,2.2L138,127.68l-2.24,2-4.5,3.93-4.6,3.66-2.3,1.82-2.34,1.7-4.67,3.41c-12.52,8.74-25.26,16.24-37.24,23.9l-4.53,3-4.44,3-4.32,3c-1.41,1-2.9,1.92-4.27,2.92L57.45,184l-4.85,4c-1.59,1.36-3,2.79-4.57,4.18l-1.13,1c-.37.35-.7.73-1,1.09l-.46.49-.24.26-.46.53c-.3.36-.75.75-1.08,1.15l-1,1.26a28.46,28.46,0,0,0-2,2.57,12,12,0,0,0-1.43,2.87A5.8,5.8,0,0,0,39,206.6a5.45,5.45,0,0,0,1.64,2.72,13.48,13.48,0,0,0,2.62,1.88,31.84,31.84,0,0,0,5.86,2.73c.5.19,1,.33,1.54.49l.77.24.46.11.63.17,1.4.4,1.43.33c.95.21,1.9.45,2.88.61a74.82,74.82,0,0,0,12,1.31,95.58,95.58,0,0,0,10.45-.25c3.47-.3,6.84-.71,10.27-1.35a141.91,141.91,0,0,0,20.22-5.35c13.41-4.54,26.65-10.77,41.13-17.82,10.19-4.95,20.39-9.93,31-14.38,5.29-2.22,10.68-4.31,16.19-6.17a124.05,124.05,0,0,1,17.64-4.79,59.83,59.83,0,0,1,21-.37,44.37,44.37,0,0,1,21,9.81,55.66,55.66,0,0,1,13.37,17,76.48,76.48,0,0,1,6.66,18.92c1.51,6.65,1.83,12.48,1.5,13.26s-1.24-3.57-2.54-10a81.59,81.59,0,0,0-6.38-19.3,54.75,54.75,0,0,0-13.32-17.5,43.36,43.36,0,0,0-9.91-6.45A42.75,42.75,0,0,0,237,169.33a60.14,60.14,0,0,0-21.48,1c-3.28.69-6.42,1.54-9.45,2.47s-5.9,1.9-8.81,2.93c-5.79,2.08-11.43,4.37-17,6.78-11.06,4.82-21.66,10.09-32.14,15.11s-20.85,9.76-31.38,13.6a142.62,142.62,0,0,1-31.88,8,87.91,87.91,0,0,1-31.51-1.88l-1.86-.54c-.51-.14-.9-.23-1.28-.36-.77-.27-1.56-.48-2.32-.79s-1.53-.58-2.27-.93-1.49-.69-2.22-1.07-1.43-.8-2.14-1.22a17.47,17.47,0,0,1-2-1.39,6.81,6.81,0,0,1-2.7-4,7.24,7.24,0,0,1,.55-4.16,17.23,17.23,0,0,1,2.14-3.64c.87-1.11,1.76-2.18,2.64-3.26.42-.53,1-1,1.4-1.49s.68-.78,1.64-1.78c-.15,0-.29,0-.35,0-.26-.25.06-1.16,1-2.38-.49.46-1,.9-1.46,1.39L43,192.89c-.53.57-1.06,1.15-1.7,1.77-1.15,1.29-2.23,2.65-3.36,4a18.64,18.64,0,0,0-2.69,4.53,7.33,7.33,0,0,0-.29,5.19,8.1,8.1,0,0,0,2.33,2.87,19.58,19.58,0,0,0,3.13,2,40.37,40.37,0,0,0,6.67,3c1.13.42,2.29.73,3.43,1.06l.47.11.54.14,1.3.35c.87.24,1.77.39,2.65.6A79.46,79.46,0,0,0,66.34,220a100.72,100.72,0,0,0,11.28.2q5.7-.27,11.47-1.1a155.08,155.08,0,0,0,23.53-5.56,334.58,334.58,0,0,0,31.52-12c10.24-4.37,20.37-8.94,30.88-13.28,6.56-3,13.23-5.86,20.09-8.44,3.43-1.28,6.91-2.5,10.44-3.62a110.18,110.18,0,0,1,11.09-2.95,63.84,63.84,0,0,1,12.1-1.37,43.5,43.5,0,0,1,12.94,1.69c1.09.28,2.15.71,3.22,1.08s2.11.86,3.11,1.4a39.66,39.66,0,0,1,5.74,3.51,45.92,45.92,0,0,1,9.22,9.14,15.79,15.79,0,0,1,1.79,2.7c.19.46-.27-.1-1.08-1.19a45.56,45.56,0,0,0-13.12-12,37.92,37.92,0,0,0-8.55-3.74,40.53,40.53,0,0,0-9-1.56,59.42,59.42,0,0,0-17.09,1.61c-2.69.61-5.31,1.34-7.87,2.14-1.29.39-2.53.81-3.78,1.23s-2.49.86-3.72,1.3c3.24-.77,5.27-.9,5.15-.41s-2.43,1.68-6,3.23c4.46-1.52,8.94-3,13.65-4.12,2.9-.7,5.29-.95,5.24-.7s-2.33.86-5.06,1.53a203.78,203.78,0,0,0-27.17,9.36c-8.78,3.63-17.34,7.64-25.83,11.65-10.13,5-20.15,9.93-30.37,14.28a192.4,192.4,0,0,1-31.36,10.63,31.49,31.49,0,0,1,6.53-.27h0c3.31-.94,6.61-1.92,9.85-3,14.83-5.37,29.09-12.5,43.51-19.68s29.1-14.42,44.78-19.78c7.79-2.65,16-5.07,24.86-5.3a38.71,38.71,0,0,1,13.29,1.88,34.46,34.46,0,0,1,11.76,6.79c6.8,5.93,11.37,13.84,14.11,22s4,16.6,5,24.78a8.62,8.62,0,0,1,.14,2.38,6.48,6.48,0,0,1-.44-2.09c-1.27-9.86-2.75-20.08-6.91-29.73a49.79,49.79,0,0,0-8.41-13.37,36.76,36.76,0,0,0-13-9.53l.08.05c.78.41.88.57,0,.26s-2.39-.86-3.19-1.2-.82-.43,0-.27A40.78,40.78,0,0,0,226,177.11a72.47,72.47,0,0,0-14.14,2.59,212.29,212.29,0,0,0-26.12,9.6c-16.88,7.37-32.81,16.1-49.08,23.61,15.23-6.73,30.09-14.51,45.52-21.26a245.34,245.34,0,0,1,23.65-9.07,106.55,106.55,0,0,1,12.37-3.27,54.93,54.93,0,0,1,13-1.05,35.72,35.72,0,0,1,11.51,1.92,12,12,0,0,1,2.63,1.33c.22.22-.51-.09-1.54-.49a31.35,31.35,0,0,0-3.09-1.07,25.24,25.24,0,0,1,7.46,3.89c1.67,1.3,2.46,2.29,2.26,2.45-.62.24-5.14-3.11-11.52-4.82a38.11,38.11,0,0,0-13.07-1,70.93,70.93,0,0,0-12.92,2.43,213.25,213.25,0,0,0-24.73,8.93c-1.74.75-3.46,1.56-5.19,2.35s-3.41,1.71-5.09,2.6c6.21-2.79,12.49-5.44,18.85-7.82,3.19-1.19,6.39-2.31,9.62-3.33s6.48-2,9.76-2.73c6.54-1.5,13.32-2.2,19.8-1a29.84,29.84,0,0,1,9.15,3.34,33.2,33.2,0,0,1,7.63,6.09c1.58,1.6,2.62,3.24,2.5,3.39s-1.32-1.2-2.86-2.79A29.72,29.72,0,0,0,238,183.6a39.89,39.89,0,0,0-16.82,0,106.72,106.72,0,0,0-16.85,4.9c-5.57,2-11.07,4.3-16.52,6.73-21.79,9.74-42.8,22.07-66,30.88a178.58,178.58,0,0,1-23.23,8.47A123.39,123.39,0,0,1,73.37,239c1.1,0,2.2,0,3.31-.06s2.22-.06,3.32-.16c14.15-1,27.12-4.57,39.14-9.06A313.69,313.69,0,0,0,153,214.07c10.79-5.62,21.31-11.38,32.2-16.58,5.44-2.59,11-5.05,16.68-7.26a119.33,119.33,0,0,1,17.48-5.52,8.39,8.39,0,0,1,2.37-.27c.14.06-.65.31-1.85.53A112.54,112.54,0,0,0,203,190.3c-5.52,2.12-10.87,4.51-16.17,7-10.6,5-21,10.7-32,16.43C145.68,218.5,136.58,223,127.3,227a199,199,0,0,1-28.55,10,176.79,176.79,0,0,0,28.75-9.37c9.12-3.81,17.84-8.08,26.38-12.44,17.05-8.7,33.5-17.79,51.14-24.27a30.3,30.3,0,0,1,4.13-1.29,3.34,3.34,0,0,1,.83-.42,70.14,70.14,0,0,1,14-4,10.58,10.58,0,0,1,2.61-.16C227.06,185.12,226.5,185.24,225.48,185.39ZM48.48,35.82l-.26,0,.67-.15,1.53.48ZM45.34,46.49h0l-.89-.17Zm84.45,87c2.15-1.78,4.22-3.75,6.33-5.62s4.2-4,6.22-6.12a106.8,106.8,0,0,0,11.32-14.13,77.72,77.72,0,0,0,8.78-17.26,64,64,0,0,0,3.77-20.64,62.8,62.8,0,0,1-3,20.37,81.45,81.45,0,0,1-14.49,25.1,117.3,117.3,0,0,1-9.22,9.86c-.81.74-1.62,1.54-2.43,2.23l-2.43,2.1C133.06,130.75,131.46,132.21,129.79,133.49Zm-90-96.37a11,11,0,0,1,3.53,0,6.13,6.13,0,0,1,1.23-1.51,34.11,34.11,0,0,1,4.23-3.15c-.5-.22-.15-.45,0-.63l.41-.51-2.45,1.41L44.2,34.19C42.72,35.12,41.24,36.28,39.74,37.12ZM33.11,48.3l-.24,0-.41-.7Zm.74,1.15.23-.16C34.25,49.53,34.12,49.54,33.85,49.45ZM36,48.07a1.31,1.31,0,0,0-.52,0ZM54.44,59.71l-2.53-2.79c.78.93,1.57,1.84,2.37,2.75Z"/><path d="M154.41,237.16l0,.26a.47.47,0,0,1-.43-.25c.63,2.37,3.21,3.24,5.43,3.08a1.09,1.09,0,0,0,1.54-.06,1.07,1.07,0,0,0,0-1.54,1.51,1.51,0,0,1-.16-.41,8.45,8.45,0,0,0-1.17-3.5l.21.83a3.08,3.08,0,0,0-.63-.88l-.11.34a2.54,2.54,0,0,0-4.84,1.52Z"/><path d="M154,241.25c-.3-.74-.56-1.48-.82-2.23l0-.24-.53.76,0,0a4.47,4.47,0,0,1,2.85.55l.35.1a.86.86,0,0,0,.55-.21.81.81,0,0,0,.05-1.14l-.35-.38c-.65-1.18-2.17-2.38-3.67-1.57-.35.2-.52.64-.76,1a1.12,1.12,0,0,0,1.67,1.48l.17.3-.33,0c.46-.31,1-.06,1.49,0l.58.26.6-1.35-.37-.05c0,.07,0,.17,0,.17a10,10,0,0,1-2.13-.34l-1-.11a.68.68,0,0,0-.53.76l.11.48a2.11,2.11,0,0,1,0-.25c.49.79,1.1,1.51,1.58,2.31a.28.28,0,1,0,.49-.25Z"/><path d="M151.4,239.5a.61.61,0,0,0-.26-.45l-.13,0c0,.1,0,.23.06.36S151.29,239.67,151.4,239.5Z"/><path d="M151,239.09l0-.15a.77.77,0,0,0,0,.15h0Z"/><path d="M176.11,255.22a40.12,40.12,0,0,0,2.89,3.07s.11,0,.16-.06.07-.15,0-.18a39.9,39.9,0,0,1-2.87-3.08s-.11,0-.16.06A.2.2,0,0,0,176.11,255.22Z"/><path d="M178.89,268.56a.29.29,0,0,0-.13.18c0,.06,0,.1.09.07a.31.31,0,0,0,.14-.18C179,268.56,179,268.54,178.89,268.56Z"/><path d="M174.39,273.89a1.82,1.82,0,0,0-.75.08s-.07,0-.07-.07a.42.42,0,0,1-.28.21,15.52,15.52,0,0,1-4.83-.83,1.31,1.31,0,0,1-.25.22c-.3.23-.57.25-.7.07l-.07-.17c-.38-.56-.79-1.08-1.15-1.65a.79.79,0,0,1-.55,0,13.79,13.79,0,0,1-2.05-.08.92.92,0,0,1-.16.31c-.2.24-.45.34-.56.23l-.2-.12c.13.19.26.39.38.59a.18.18,0,0,1,0,.1,3.82,3.82,0,0,0,.6.43,15.15,15.15,0,0,0,6.65,1.63c.06,0,.09,0,.07.1a.25.25,0,0,1-.15.15c-2,.44-4.08,1.37-5.85,1.29a31.17,31.17,0,0,1-5.95-.8c-1.45-1.13-3.26-1.59-5.09-2.31a19,19,0,0,1-1.77-.79,1.84,1.84,0,0,1-.25-.14l-.38-.25-.77-.5-1.5-1c-2-1.37-3.9-2.8-5.85-4.26a3.32,3.32,0,0,1,1.36-6.18l-.34-.29-.42-.61a2.85,2.85,0,0,1-.47-2l.08-.91c.37-1.55.27-3.16.78-4.69l.44-.38V251a2.89,2.89,0,0,1,.32-1.71l.46-.53a7,7,0,0,1,1.87-1.38,2.36,2.36,0,0,1,.62-.6,3.38,3.38,0,0,1,1.23-1.92.49.49,0,0,1,.47-.5.59.59,0,0,1,.26.07h0c0-.21,0-.26.07-.5l-.15-.25L149,243a2.28,2.28,0,0,1-.08-.79c.46-1.21.46-1.21.83-1.6l.16-.07c-.13-.33-.14-.35-.17-.45a1.17,1.17,0,0,1,0-.25c.17-.23.17-.23.19-.35a1,1,0,0,1,.12-.18c.33-.15.33-.15.39-.21a.62.62,0,0,1,.17-.07l.34.07-.12.85.23-.15-.14.33.15-.28.06.28,0-.36c.33.4.33.4.5.51a.82.82,0,0,0,.35.22,1.1,1.1,0,0,1,.09-.14l.69.86,0,.23a.25.25,0,0,1,.27.07l.19.22h.07v0l.28,0h.06l1.19.12a4.68,4.68,0,0,1,.27.4c0-.06,0-.12,0-.19s.22-.3.2-.35a16.67,16.67,0,0,0-2.19-3.14.42.42,0,0,1-.16-.57.41.41,0,0,1,.57-.14,8.91,8.91,0,0,1,6.54,4.95c.45.53.92,1.05,1.39,1.56v-.17l.29.49,0,.05v-.65c-.05-.1-.09-.19-.13-.29a26.3,26.3,0,0,1-2.71-4,22.35,22.35,0,0,1-1.16-2.29.37.37,0,0,1,.52-.52c2.28,1.32,4.43,3.4,5,6a2.15,2.15,0,0,1,.75,1.17l0,0,0-.51c.22.3.16.69.33,1l.25-.52c1.17,1.36,2.77,2.39,3.55,4a1.67,1.67,0,0,1,.12.16,8.82,8.82,0,0,1,2,.46c-.08-.13-.15-.27-.23-.41a1.49,1.49,0,0,1,1,.28,3.12,3.12,0,0,1,.38,3.37,48.09,48.09,0,0,0,4.52,2.64c.09,0,.08.18,0,.33s-.25.23-.33.19a16.43,16.43,0,0,1-3.69-1.38,15.3,15.3,0,0,0,2.14,2.46l.37.19a.74.74,0,0,1,.27.33,13.23,13.23,0,0,0,3.43,2.25,29.32,29.32,0,0,0,3.51,1.1,12.29,12.29,0,0,1,4.77,1.8c.21.09.18.47-.07.82s-.61.58-.82.49c-3.56-1.07-7.24-1.87-10-4.25l-.87-.77-.1.14a2,2,0,0,1-.46.45,9.64,9.64,0,0,1,.86,1,6.6,6.6,0,0,1,3.41,1.71,8.9,8.9,0,0,1,1.28,2.47c1,.43,2,.8,3,1.26.05,0,.06.07,0,.14a.22.22,0,0,1-.16.13,13.88,13.88,0,0,1-2.56-.33,2.27,2.27,0,0,1-.48.9,2.21,2.21,0,0,1-.8.65l.38.34c.08.07.05.24-.07.4s-.3.24-.37.17l-1.6-1.35c-.79-.33-1.56-.69-2.32-1.08a3.27,3.27,0,0,1-.39.9h0l.32.22a13.91,13.91,0,0,1,6.62,3.22s0,.11,0,.18-.13.12-.16.08a11.87,11.87,0,0,0-1.75-1.33h0a.27.27,0,0,1-.13.17c-.06,0-.11,0-.1-.06a.28.28,0,0,1,.14-.18,15,15,0,0,0-3.87-1.62,17.1,17.1,0,0,1,2.92,2.3l.53,0s.05.08,0,.16-.12.12-.16.11h-.15c.17.17.08.59-.22,1s-.69.55-.87.38a17.79,17.79,0,0,1-1.65-1.06l-.21-.07-.31.05c.68.77,1.34,1.57,2,2.38.07.05,0,.2-.06.34s-.24.2-.31.15a27.94,27.94,0,0,1-5.11-2.14l-2.75.64a1.29,1.29,0,0,0,.17.16c1.54,1.19,4.12.57,5.87,1.39.05,0,0,.09,0,.16s-.12.12-.16.09a16.71,16.71,0,0,0-3-.46,14.32,14.32,0,0,0-2.55-.27c1.26.72,2.9.86,4.28,1.41.07,0,.09.08.07.18a.24.24,0,0,1,.1-.08,2.7,2.7,0,0,1,.78-.07c.06,0,.07.05,0,.13A.24.24,0,0,1,174.39,273.89Zm-18.28-26.78c0-.05,0-.09,0-.12l.09.28-.15.76S156.08,247.58,156.11,247.11Zm-5-.65h0c0-.25.08-.43.08-.43C151.2,246.21,151.18,246.35,151.15,246.46Zm21,8.75a4.45,4.45,0,0,1-1.41-1.86l.5.25C171.61,254.11,171.91,254.65,172.2,255.21Zm-16.79-11.92a6,6,0,0,1,0,1.59,2.21,2.21,0,0,1,.69.41,19.82,19.82,0,0,1,1.52,1.52c.08-.24.19-.12.28-.09l.24.12c-.48-.6-1-1.2-1.43-1.83A17.75,17.75,0,0,1,155.41,243.29Zm-4.68-2.47v-.1l.33-.2Zm-.55.35,0,.11C150.12,241.36,150.12,241.3,150.18,241.17Zm.49,1a.46.46,0,0,0,0-.23Zm-6,8.84,1.41-1.2-1.39,1.12Z"/></g></g></svg>