<svg xmlns="http://www.w3.org/2000/svg" viewBox="0 0 377.54 483.43"><g id="Layer_2" data-name="Layer 2"><g id="Layer_1-2" data-name="Layer 1"><path d="M9.18,310l.45.66a2.8,2.8,0,0,1-1.52-.76A25.6,25.6,0,0,0,12.37,314a38.33,38.33,0,0,0,4.89,3,34,34,0,0,0,5,2.16,41.52,41.52,0,0,0,4.64,1.52c1.69,1.29,3.48,2,4,1.36s-.4-2.44-2.12-3.92a11.73,11.73,0,0,1-1-1.18,45.87,45.87,0,0,0-3.49-5c-1.34-1.64-2.81-3.4-4.44-5.16.58.8,1.17,1.64,1.74,2.45a22.63,22.63,0,0,0-2.95-2.92l.2.83a23,23,0,0,0-5.51-5,8.91,8.91,0,0,0-5.52-1.62c-3.06.47-3,4.31,0,7.92Z"/><path d="M13.6,319.86c-1.8-1.74-3.52-3.6-5.25-5.53l-.28-.58-.38,1.75.07-.09a8.79,8.79,0,0,1,4,.48,29.63,29.63,0,0,1,4.44,1.72l1.07.42a1.24,1.24,0,0,0,1.18-.21c.49-.54-.13-1.78-1.39-2.78-.49-.39-1-.75-1.46-1.1a30.67,30.67,0,0,0-2.9-2.42,20.69,20.69,0,0,0-3.33-2.12c-2.24-1.08-4.42-1.61-5.88-.67-.66.43-.5,1.58-.62,2.46-.47,1.13.63,2.92,2.44,4s3.63,1,4.1,0l.87.77-.86,0c.82-.65,2.55.13,3.95.36l1.94.84-.23-3L14,313.81c0,.15.13.39.12.39-2.07-.43-4-.91-6.2-1.56L5,312.18c-.84.13-1,.95-.37,1.83l1,1.18-.41-.61c1.22,1,2.48,1.87,3.73,2.87s2.5,1.91,3.67,2.87a1.32,1.32,0,0,0,1.18.37C14.06,320.56,14,320.19,13.6,319.86Z"/><path d="M4.36,315.31A3.6,3.6,0,0,0,3,314.18l-.31.09.69.9C3.91,315.82,4.29,315.71,4.36,315.31Z"/><path d="M2.73,314.27l-.29-.38.15.38.08,0Z"/><path d="M134.75,363c-.8-2.83-1.7-5.74-2.75-8.75-.27-.75-.52-1.5-.81-2.27l-.91-2.44c-.62-1.72-1.29-3.4-2-5.07-2.72-6.7-5.73-12.91-9-19.35l-5.2-10.22-1.42-2.8-1.44-2.95-1.5-3.1-.8-1.65-.91-2c-1.11-2.51-2.09-4.88-3-7.24s-1.79-4.71-2.61-7c-1.65-4.69-3.12-9.38-4.46-14.11-.35-1.27-.84-2.28-1.12-2.27s-.19,1.06.16,2.23c1.32,4.76,2.79,9.47,4.43,14.18s3.42,9.35,5.61,14.32l.89,2,.83,1.75,1.5,3.11,1.45,3c.47,1,1,1.9,1.42,2.81l5.18,10.2c3.25,6.4,6.25,12.54,9,19.17,1.33,3.24,2.69,6.93,3.71,9.73q1.58,4.47,2.78,8.65c.25.75.6,1.34.85,1.42S135,363.68,134.75,363Z"/><path d="M147.57,118.09c-.41.73-.23.82.4.22a10.74,10.74,0,0,0,1.77-2.24c.34-.61.15-.72-.39-.22A11.06,11.06,0,0,0,147.57,118.09Z"/><path d="M155.2,132.33a84.73,84.73,0,0,0-5.14,11.47,8.94,8.94,0,0,1-.9,1.86c.39-.07.29.84-.25,2.33-1.44,3.66-2.48,7.46-3.67,11.18-.51,1.9-.94,3.82-1.43,5.7-.24.95-.5,1.89-.71,2.84l-.54,2.88c-.33,1.92-.76,3.82-1,5.74s-.59,3.82-.74,5.77l-.29,2.9c-.1,1-.14,1.94-.21,2.91-.15,1.93-.2,3.88-.26,5.83a167.17,167.17,0,0,0,5.75,46.59,2.9,2.9,0,0,1,1.23,1.1c1.51,1.92,2.95,6,4,10.37l.67,3.33a163.33,163.33,0,0,0,6.09,19.47c.59,1.53,1.21,3.07,1.78,4.4l.47,1.05.56,1.23,1.16,2.51c1.6,3.39,3.26,7,4.92,10.82a65.45,65.45,0,0,1,5.66,10.46,169.71,169.71,0,0,1,8.94,20.76c.61,1.78,1.24,3.56,1.82,5.35l.84,2.69c.28.9.57,1.78.84,2.77a112.31,112.31,0,0,1,2.79,12c.13-1.11.36-1.81.7-1.86.86.14,2,4,2.18,8.71.13,2.38.19,4.79.14,7.22a118.19,118.19,0,0,0-.84-20.47c-.14-.95-.24-1.84-.32-2.63-.31-1.79-.67-3.56-1-5.31s-.75-3.26-1.12-4.9-.85-3.29-1.27-4.95l-1.41-5a165.4,165.4,0,0,0-7.94-21.18c-3.07-6.7-6.47-12.9-9.49-18.14-.69-1.23-1.39-2.45-2.09-3.67-.53-.91-1.14-2.05-1.72-3.18-1.19-2.29-2.35-4.72-3.46-7.19-2.23-4.93-4.23-10-6-15.18a200.8,200.8,0,0,1-8.22-31.35,150.63,150.63,0,0,1-2.35-31.92,5.23,5.23,0,0,1,.4-2.36c.26-.37.51-.24.5.55a107.6,107.6,0,0,0,2.2,19.6,164.12,164.12,0,0,0,4.94,18.5c1,3,2.09,6.07,3.19,9.12s2.37,6.1,3.64,9.19q3.81,9.27,8.56,19c.94,1.91,1.92,3.79,2.92,5.59s2,3.56,3,5c.23.36.46.71.64.94s.61.94.9,1.4l1.93,3c1.38,2.14,2.71,4.38,4.15,6.84s2.82,5,4.24,7.69,2.72,5.49,4,8.35a177.64,177.64,0,0,1,6.64,17.64c1,3,1.82,6,2.65,8.94l1.18,4.46c.39,1.61.8,3.28,1.16,5a111.61,111.61,0,0,1,2.65,21.35,109.51,109.51,0,0,1-1.93,23.18c-.39,2-.81,3.94-1.32,5.91-.26,1-.5,1.94-.8,3l-1,3.09a92.65,92.65,0,0,1-4.78,11.88A91.39,91.39,0,0,1,178,425.06a97.2,97.2,0,0,1-18.1,14.64A104.76,104.76,0,0,1,120,454.35a81.33,81.33,0,0,1-20.8.42,71.31,71.31,0,0,1-10.31-1.89c-1.71-.47-3.39-.93-5.06-1.53l-1.24-.43-.63-.21-.77-.29c-1-.4-2-.79-3-1.22s-1.9-1-2.83-1.49-1.76-1.13-2.63-1.69a24.88,24.88,0,0,1-2.43-1.83l-1.16-.95c-.37-.33-.71-.68-1.06-1a45,45,0,0,1-6.94-8.62,70.83,70.83,0,0,1-7.93-18.22c-.61-2.06-1.12-4.23-1.55-6.22s-.87-4-1.31-6c-.85-4-1.69-8-2.62-12a76.68,76.68,0,0,0-3.25-11,34.6,34.6,0,0,0-4.84-8c-.49-.48-.9-1-1.4-1.4l-.94-.82c-.23-.21-.52-.38-.77-.57a13.29,13.29,0,0,0-1.57-1,33.07,33.07,0,0,0-3.35-1.72l-1.78-.71c-.61-.22-1.27-.41-1.88-.61s-1.25-.38-1.91-.55-1.28-.33-2-.47c-1.42-.24-2.66-.56-4.16-.7l-2.13-.24-2.25-.16c-.57,0-1.12,0-1.63-.1a12.12,12.12,0,0,1-1.55-.2,8.91,8.91,0,0,1-2.51-.82c-1.46-.66-2.22-1.78-2-3.11.3-1.61,2-3.06,4.43-3.78L11.1,355l-1.73-.55A7.34,7.34,0,0,1,8.23,354a6.77,6.77,0,0,1-1-.54A4.41,4.41,0,0,1,5.84,352l-.9-1.36a22.63,22.63,0,0,0-2.06-3.81A14.45,14.45,0,0,1,1,342.72l.66-.94-.27-.37A4.54,4.54,0,0,1,0,338.16l.5-1.24a9.3,9.3,0,0,1,3.05-3.56,2.88,2.88,0,0,1,.81-1.4,4.26,4.26,0,0,1,.69-4.27c-.39-.56-.14-1.08.56-1.14a2.29,2.29,0,0,1,.76.11h0a11.81,11.81,0,0,0-.49-1.09L5.15,325c-1.27-.75-1.27-.75-2.37-1.44a6.94,6.94,0,0,1-1.3-1.78C1,319,1,318.93,1.49,318a2.9,2.9,0,0,1,.29-.19C1,317,.93,317,.72,316.73a3.08,3.08,0,0,1-.32-.62c.11-.59.11-.59,0-.87a1.72,1.72,0,0,1,.08-.45c.67-.37.67-.37.74-.55a1.44,1.44,0,0,1,.36-.15l1,.18c.86,2.08.87,2.08.87,2.08l.41-.35.11.8v-.68l.53.68-.57-.88a10.72,10.72,0,0,0,2,1.25,4.31,4.31,0,0,0,1.25.52,1.11,1.11,0,0,1,0-.32c1.53,1.05,1.53,1.07,3,2.14a4.23,4.23,0,0,1,.25.54,1.07,1.07,0,0,1,.82.21l.78.52.2,0v0l.77.11.16,0h0c.52.08,1.29.21,3.32.67.45.35.87.69,1.25,1l-.31-.45c-.19-.31.2-.6.08-.72-.76-.74-1.55-1.46-2.37-2.18s-1.66-1.35-2.52-2c-1.72-1.29-3.51-2.74-5.27-4-.68-.3-1.22-1-1.2-1.42s.63-.59,1.33-.25a27.73,27.73,0,0,1,6.35,2.16,39.62,39.62,0,0,1,6.33,3.66,65.81,65.81,0,0,1,11.33,9.83c.91.8,1.82,1.71,2.73,2.55s1.81,1.64,2.69,2.57l-.17-.39,1.29,1.52.15.15-.75-1.52-.66-.85c-1.05-1-2.07-2-3.07-3l-1.49-1.53-1.48-1.48c-1-1-2-2-2.95-3.08s-2-2-3.05-3S22.69,317,21.69,316s-2-2.19-3.05-3.3c-.58-.47-.9-1.06-.71-1.35s.83-.08,1.4.39a73.74,73.74,0,0,1,11.81,9.14c.93.87,1.82,1.74,2.68,2.62s1.68,1.84,2.46,2.75,1.5,1.8,2.17,2.73,1.29,1.88,1.85,2.77a21.28,21.28,0,0,1,1.77,1.93,18,18,0,0,1,1.4,2l.05.06c-.17-.41-.32-.79-.48-1.19.86,1.07,1.11,1.91,1.84,2.91,0-.27.06-.57.08-.84l3.18,4c1,1.4,2.06,2.83,3,4.26a42,42,0,0,1,4.55,9.05l.28.68a32.26,32.26,0,0,1,2,3.59,8.94,8.94,0,0,1,.43,1l.11.29.36,1.09c.24.73.46,1.46.63,2.22s.38,1.51.53,2.26.25,1.45.38,2.19.2,1.49.3,2.24.17,1.51.21,2.28a58.48,58.48,0,0,0-.69-6.2c-.14-1-.43-2.15-.66-3.23-.11-.56-.27-1.09-.43-1.63l-.42-1.45.51,1.55a17.25,17.25,0,0,1,.49,1.74c.29,1.17.59,2.36.76,3.45s.38,2.23.5,3.36.22,2.25.29,3.38a113.84,113.84,0,0,1-.4,12.75,50.86,50.86,0,0,0,1.3,15.71c.33,1.27.65,2.53,1.07,3.77l.6,1.85.66,1.73A47.73,47.73,0,0,0,67.6,415a35.15,35.15,0,0,0,7.67,9.31,24,24,0,0,0,6.83,4l.65.14a5.11,5.11,0,0,0,.66.07c.45,0,.86.12,1.29.1l1.26,0,1.61-.07a45.22,45.22,0,0,0,6.56-.81c1.09-.24,2.15-.42,3.22-.74l1.59-.42,1.58-.51c1-.3,2.08-.72,3.11-1.07s2-.83,3-1.25a62.07,62.07,0,0,0,11.25-6.53,54.49,54.49,0,0,0,9.24-8.59,48.34,48.34,0,0,0,6.63-9.8,41.09,41.09,0,0,0,3.54-10.06,31.27,31.27,0,0,0,.49-9.36l-.11-1.11-.15-1.23c-.11-.82-.22-1.63-.39-2.46-.29-1.63-.72-3.3-1.17-5a9.2,9.2,0,0,1-.34-1.87,1.44,1.44,0,0,1,.24-1.06c.39-.17,1.07.74,1.48,2.17a55.46,55.46,0,0,1,1.78,7.39,42,42,0,0,1,.6,7,37.38,37.38,0,0,1-3.56,14.84c-4.67,10.11-14.06,19.82-25.72,25.49a61,61,0,0,0,24.13-19.7,47.29,47.29,0,0,0,6.46-12.69,36.92,36.92,0,0,0,1.51-6.43c.2-1.05.23-2.12.34-3.16l0-1.58,0-.78v-.85a52.31,52.31,0,0,0-.81-7.06c-.41-2.38-.82-4.74-1.22-7.1-.77-3-1.65-6.1-2.68-9.21-.54-1.56-1-3.12-1.64-4.7l-1.92-5.06q-2-5.07-4.26-9.92c-1.51-3.22-3.07-6.38-4.71-9.56-3.28-6.35-7-12.71-11.12-20.69l-.79-1.51-.86-1.67c-.61-1.25-1.18-2.42-1.71-3.57-1.07-2.3-2.07-4.56-3-6.82-1.91-4.52-3.66-9.05-5.3-13.68-1.4-3.95-2.67-7.86-3.83-11.77s-2.2-7.81-3.1-11.72-1.69-7.82-2.41-11.74c-.34-2-.63-3.94-1-5.91s-.5-4-.72-6c-.41-4-.74-8-.92-12s-.19-8.14,0-12.28A157.71,157.71,0,0,1,93.84,181a155.47,155.47,0,0,1,4.64-17.8c1-2.86,2.09-5.68,3.15-8.48l.8-2.1.91-2c.61-1.35,1.22-2.7,1.84-4a156.64,156.64,0,0,1,18-29.33A171.29,171.29,0,0,1,172.88,74.5C175.41,73,178,71.81,180,70.9a13.75,13.75,0,0,1,4-1.32c.92.06-2.53,2.27-7.47,5.25A176.43,176.43,0,0,0,126,121.18l-2.56,3.63c-.83,1.23-1.72,2.41-2.48,3.7-1.57,2.54-3.17,5.07-4.7,7.65l-4.24,8c-1.35,2.71-2.56,5.52-3.79,8.3l-.92,2.1-.8,2.16-1.6,4.33c-.51,1.45-1.09,2.88-1.53,4.36L102,169.86c-.46,1.48-.79,3-1.19,4.48s-.77,3-1.07,4.51l-.94,4.54L98.05,188a163.29,163.29,0,0,0-1.5,36.65q.63,9.1,2.12,18.06c1,6,2.24,11.87,3.73,17.72s3.22,11.62,5.18,17.36,4.11,11.42,6.64,17.2c.63,1.45,1.29,2.91,2,4.44l.57,1.19.52,1,1,2c1.31,2.55,2.58,5.05,3.84,7.39,2.48,4.72,4.77,9.07,6.93,13.46a207.07,207.07,0,0,1,9.78,23,.92.92,0,0,1,.4-.34c.62-.21,1.52.44,2.41,1.49-1.49-4.48-3.13-9.08-4.88-13.48s-3.63-8.78-5.61-13.18c-3.32-5.85-6.95-11.66-10.8-18.51L119,300.78l-.36-.66-.42-.78-.79-1.54c-1-2-1.94-3.95-2.82-5.9-1.77-3.9-3.37-7.8-4.85-11.76a170.61,170.61,0,0,1-10.83-50.55,145.33,145.33,0,0,1,.18-18.1c.18-3,.54-5.9.88-8.8.19-1.45.44-2.9.66-4.34s.47-2.86.76-4.29a144.45,144.45,0,0,1,10.42-32.63,155.83,155.83,0,0,1,19.47-37.38,173.7,173.7,0,0,1,27.59-30.57,9.78,9.78,0,0,1,2.1-1.59c.4-.16.05.32-.75,1.07A179.64,179.64,0,0,0,141,114a167.47,167.47,0,0,0-16.1,24.59c2.21-2.39,3.87-3.57,4.51-2.93s.15,3.07-1.14,6.47l3.37-5.66c.57-.93,1.1-1.89,1.71-2.8l1.82-2.71c1.53-2.23,3-3.8,3.3-3.51s-.53,2.25-1.93,4.37l-1.82,2.76c-.59.93-1.13,1.9-1.69,2.84-1.11,1.91-2.26,3.8-3.34,5.74-2,4-4.14,7.85-5.82,12a142.16,142.16,0,0,0-8.51,25.42c-4.16,21.16-3.42,42.81.69,63.53.28-3,.89-5.3,1.82-6.46h0c-.48-3.19-.89-6.39-1.21-9.59a146.86,146.86,0,0,1,.21-44.78,135.77,135.77,0,0,1,15-43.05l2.78-5,3-4.84c1-1.61,2-3.22,3.16-4.75l3.31-4.65a183.55,183.55,0,0,1,14.74-17.32,211,211,0,0,1,34.69-28.93,7.49,7.49,0,0,1,1.9-1.08,5.6,5.6,0,0,1-1.51,1.23,208,208,0,0,0-40.82,36l.06,0c.57-.49.81-.47.37.22a12.29,12.29,0,0,1-1.87,2.16c-.65.56-.75.38-.39-.21C140.37,126,131.14,140.64,125,156.64c-1.67,3.94-2.79,8.09-4.1,12.15-.61,2-1.07,4.13-1.6,6.19s-.88,4.18-1.28,6.26a141.12,141.12,0,0,0-2.11,25.21,141.18,141.18,0,0,1,9-45.68,151.22,151.22,0,0,1,10.06-21c1.85-3.4,4-6.6,6.11-9.83,1-1.62,2.22-3.14,3.33-4.71s2.22-3.14,3.45-4.61c1.88-2.77,3.7-5.58,5.8-8.26a8.18,8.18,0,0,1,1.81-1.76c.27-.11,0,.52-.62,1.27l-1.69,2.24a45,45,0,0,1,5.15-5.19c1.45-1.15,2.47-1.7,2.76-1.39s-.36,1.64-1.47,3.33a60,60,0,0,1-4.52,6.22c-9.56,12.62-17.8,26.25-23.51,40.94l-1.67,4.82c-.34,1.7-.68,3.37-1,5.06a153.61,153.61,0,0,1,15.74-32.75,201.58,201.58,0,0,1,22.11-28.72c1.39-1.53,2.75-2.68,3-2.52s-.71,1.57-2.08,3.12c-13.49,16.33-24.44,34.79-30.91,54.52-6.67,19.65-8.18,40.52-6.1,61A184,184,0,0,0,144.81,261c-.46-1.62-.92-3.27-1.39-4.93a279.44,279.44,0,0,1-7-30.81,177,177,0,0,1-2.53-30.17,131.32,131.32,0,0,1,1-15.06c.11-1.27.36-2.5.54-3.76s.38-2.52.68-3.76c.55-2.48,1.06-5,1.68-7.52a125.77,125.77,0,0,1,12.11-29.62,3.56,3.56,0,0,1,1.36-1.7c.23,0-.05.72-.6,1.7a122,122,0,0,0-11.48,28.74l-.5,1.81-.39,1.84-.76,3.66c-.56,2.43-.9,4.9-1.27,7.35-.62,5-1.05,9.93-1.19,15a147.15,147.15,0,0,0,6.77,47.76c-3.44-15.49-5.41-30.9-5-46.34.06-1.92.18-3.85.28-5.78s.28-3.86.54-5.77.45-3.85.81-5.75l.48-2.88c.19-1,.42-1.9.63-2.86q.66-2.87,1.31-5.74l1.71-5.69c.52-1.93,1.26-3.79,2-5.67l1.06-2.83.53-1.42.62-1.39a14.51,14.51,0,0,1,1.79-3.28,1.57,1.57,0,0,1,.11-.86,58,58,0,0,1,2.36-6l1.37-3.09c.49-1,1-2,1.57-3.06a6.57,6.57,0,0,1,1.44-2C155.75,130.87,155.62,131.43,155.2,132.33ZM26.74,333.6l-.13-.25.57.64.52,1.43Zm-13.67-2.87h0c-.2-.51-.35-.87-.35-.87Zm115,82a60.33,60.33,0,0,1-19.34,12.54,56.42,56.42,0,0,1-22.79,4.39,49.25,49.25,0,0,0,11.3-1.34A66.49,66.49,0,0,0,128.07,412.75ZM20.15,325a20.5,20.5,0,0,1,2.06,3.5,14.7,14.7,0,0,1,2.31,1.22l2.95,2.11c1,.7,1.91,1.38,2.82,2.16-.09-.47.35-.1.6,0l.75.45c-1.9-1.73-3.88-3.27-5.89-5C23.94,328,21.87,326.6,20.15,325ZM4.39,318.46l-.14-.26.61-.47Zm-1,.84.29.24C3.51,319.74,3.44,319.61,3.41,319.3Zm2.64,2.16a2.53,2.53,0,0,0-.3-.54ZM2.17,341.1c.69-1,1.39-2,2.09-2.89-.72.89-1.44,1.81-2.15,2.74Z"/><path d="M112.52,7.78v.51c-.3,0-.54-.16-.73-.49a6.23,6.23,0,0,0,3.43,4.83,10.72,10.72,0,0,0,6,.78A1.84,1.84,0,0,0,124,13.1a2.36,2.36,0,0,0,0-3,2.84,2.84,0,0,1-.25-.78,16.85,16.85,0,0,0-1.53-6.62c.08.52.15,1.06.22,1.58a5.05,5.05,0,0,0-.93-1.63l-.25.68a3.65,3.65,0,0,0-5.12-3,5.91,5.91,0,0,0-3.81,6.29Z"/><path d="M111,15.92c-.47-1.47-.85-2.95-1.2-4.43l.08-.48-1.13,1.52.09-.08a7.57,7.57,0,0,1,5.2,1l.65.16a1.58,1.58,0,0,0,1-.47,1.66,1.66,0,0,0,.23-2.23c-.2-.23-.38-.49-.57-.73-1-2.32-3.42-4.6-6.43-2.95a6.46,6.46,0,0,0-1.64,2,2.24,2.24,0,0,0-.14,3.11,2,2,0,0,0,3-.21c.09.19.19.39.27.58l-.62.06c.93-.64,1.84-.16,2.77-.11l1,.51,1.31-2.72-.67-.09c0,.13-.09.33-.1.33a16.52,16.52,0,0,1-3.85-.59l-1.84-.19a1.52,1.52,0,0,0-1.16,1.51l.12.95v-.5c.8,1.57,1.84,3,2.63,4.59a.48.48,0,0,0,.69.25A.63.63,0,0,0,111,15.92Z"/><path d="M106.45,12.48a1.17,1.17,0,0,0-.41-.89l-.28.07.07.72C105.88,12.9,106.2,12.81,106.45,12.48Z"/><path d="M105.76,11.66l0-.3c0,.11,0,.21-.07.31h0Z"/><path d="M233,53.64c1,0,1.92.11,2.88.12h8.72l5.83-.27,2.92-.13,2.92-.27,5.85-.53,5.83-.77,2.93-.4c1-.14,1.94-.33,2.91-.49l5.82-1c.53-.09.94-.28.93-.41s-.42-.11-.9,0l-5.82,1-2.91.5-2.91.39-5.82.76-5.82.52-2.91.26-2.91.13-5.8.26c-1.94,0-3.87,0-5.8,0s-3.85,0-5.77-.12c-.51,0-.93.08-1,.21S232.5,53.61,233,53.64Z"/><path d="M351,33.93c-.31.25-.25.34.15.2a4.49,4.49,0,0,0,1.19-.65c.26-.22.19-.32-.15-.21A4.23,4.23,0,0,0,351,33.93Z"/><path d="M351.69,42.63l-2.89,1.94c-.94.61-1.83,1.21-2.66,1.81a4.51,4.51,0,0,1-1,.52c.2.09-.13.44-.86.91C330,57.12,313.17,65,296,71.4a1.67,1.67,0,0,1-.61.66,19.76,19.76,0,0,1-6,2.48l-1.95.46c-2,.5-3.94.9-5.9,1.35s-3.93.92-5.92,1.27l-5.95,1.09-3,.52-3,.41a48.45,48.45,0,0,1-5.5,1.42c-3.4.89-6.85,1.61-10.32,2.42s-7,1.29-10.62,1.9c.46.1.74.26.75.46s-.5.5-1.18.7a13.06,13.06,0,0,1-2.57.37l-3,.2c2.86-.06,5.73,0,8.57-.24a11,11,0,0,1,1.13,0c3.11-.31,6.26-.56,9.42-1.11a213.63,213.63,0,0,0,39.39-9.9,263.69,263.69,0,0,0,35.41-15.57,4.45,4.45,0,0,1,1.32-.56c.26,0,.27.12-.14.36-1.7,1.08-3.42,2.08-5.12,3.07l-5.06,3c-3.38,1.94-6.78,3.84-10.27,5.74a170.88,170.88,0,0,1-23.35,10.37,242.28,242.28,0,0,1-67,13.81,335.84,335.84,0,0,1-36.45-1.86,239.89,239.89,0,0,1-36.91-6.71c-2.16-.49-4.25-1.2-6.36-1.81l-6.31-1.94-6.19-2.23c-2.06-.76-4.13-1.46-6.14-2.35l-1.51-.64-.76-.32-.29-.1-1-.39-2-.78c-1.36-.53-2.74-1-4.06-1.66q-4-1.81-7.92-3.75c-2.62-1.31-5.16-2.82-7.76-4.27a8.31,8.31,0,0,1-4.4-4.2,6,6,0,0,1,0-5.28,6.46,6.46,0,0,1,5.33-3.31l-.83-.62-1.1-1.27a6,6,0,0,1-1.51-4.15V46.55c.54-3.19.22-6.62,1.23-9.75l.93-.74v-.44a5.55,5.55,0,0,1,.64-3.52l1-1A14.47,14.47,0,0,1,97,28.34a5,5,0,0,1,1.28-1.2,7,7,0,0,1,2.6-3.86,1,1,0,0,1,1-1,.94.94,0,0,1,.5.14h0a8.38,8.38,0,0,0,.18-1c-.18-.31-.27-.51-.27-.51-.53-.77-.53-.77-1-1.45a4.61,4.61,0,0,1-.06-1.6c1.08-2.42,1.09-2.41,1.88-3.18l.31-.15c-.2-.64-.21-.69-.26-.88a3,3,0,0,1,.07-.5c.37-.46.37-.46.43-.69a4.21,4.21,0,0,1,.27-.35c.67-.29.67-.29.79-.43a1.8,1.8,0,0,1,.35-.13l.63.14c-.38,1.68-.39,1.68-.39,1.68l.47-.29-.31.66.34-.56,0,.56V13c.57.79.57.79.87,1a1.29,1.29,0,0,0,.64.43,2.44,2.44,0,0,1,.19-.28c.6.85.6.85,1.18,1.7a3.41,3.41,0,0,1-.09.48.42.42,0,0,1,.51.14l.32.42h.14l0,0,.51.05h.11c.35,0,.85.1,2.24.16a5,5,0,0,1,.5.76l0-.38c0-.26.44-.61.41-.7a16.37,16.37,0,0,0-.82-1.62q-.42-.81-.9-1.56c-.62-1-1.3-2-2-3a.8.8,0,0,1-.17-1.11.79.79,0,0,1,1.08-.3c5.23.72,9.11,4.4,11.53,9.17.84.95,1.72,1.87,2.62,2.79v-.33l.57.91a.27.27,0,0,0,.07.08l-.06-1.26-.26-.54a17.63,17.63,0,0,1-2.68-3.45c-.76-1.28-1.4-2.66-2.17-3.91a34.38,34.38,0,0,1-1.83-4.34.76.76,0,0,1,.08-1,.64.64,0,0,1,.93,0,18.85,18.85,0,0,1,5.29,4.51,15.37,15.37,0,0,1,3.38,6.45,3.93,3.93,0,0,1,1.42,2.15l0,0c0-.35,0-.67,0-1,.39.56.35,1.29.68,1.86l.4-1.07c1.13,1.14,2.46,2.11,3.71,3.16A18.93,18.93,0,0,1,136.1,25,11.68,11.68,0,0,1,137.66,27a2,2,0,0,1,.25.26,15.69,15.69,0,0,1,2.17,0l.53.08.14,0,.35.15.71.32c1,.43,1.9,1,2.92,1.43-.66-.39-1.28-.82-1.9-1.25L141,26.73c.65.24,1.47.6,2.19.91s1.49.65,2.26.95c1.52.64,3,1.34,4.57,2.17,8.35,4.32,17.77,9.72,22,13.8A203.75,203.75,0,0,0,199.85,51a200.41,200.41,0,0,0,28.54,2.18,3.09,3.09,0,0,1,2.06.45c.1.26-.54.5-1.53.53s-1.72.1-2.59.12h-7.78c-1.73,0-3.46-.15-5.2-.22s-3.48-.15-5.21-.31a189,189,0,0,1-20.75-2.94,167.43,167.43,0,0,0,35.2,5.94c1.54,0,3.1.12,4.66.1s3.07.06,4.6.18A187.64,187.64,0,0,0,278,51.88a240.74,240.74,0,0,0,37.42-12.44c8.85-3.79,17.13-7.86,25.28-12.12s16.08-8.9,24.3-13.85c2.13-1.39,4.32-2.38,4.83-2.17s-.82,1.54-3,3q-12.54,8.37-25.68,15.58A288.56,288.56,0,0,1,314,42.65a224.72,224.72,0,0,1-28.71,9.56A193.58,193.58,0,0,1,255,57.7c-2.22.26-4.44.35-6.64.53l-3.28.24c-1.1.06-2.19.07-3.28.11a.58.58,0,0,1,.13.26c0,.36-.37.7-1.05,1l3.75-.08,3.76-.21,3.77-.2,1.9-.1,1.89-.17c13.89-2.36,27.55-5.78,42.11-9.7,10-2.75,19.08-5.4,28.25-8.62a312.1,312.1,0,0,0,32.49-17.46,3,3,0,0,1,1.07-.52c.2,0,0,.2-.39.49-1.77,1.2-3.58,2.36-5.38,3.54L351.4,28.6l-2.8,1.68L343,33.65l-5.8,3.19c1.4-.32,2.33-.32,2.44.13s-.67,1.31-2,2.32L343,36.62c1.13-.53,2.09-.83,2.16-.62s-.7.85-1.78,1.38c-3.71,1.83-7.39,3.71-11.18,5.37-1.89.83-3.75,1.74-5.66,2.52l-5.72,2.36A265.35,265.35,0,0,1,293,58.06a6.78,6.78,0,0,1,3.12.38h0l4.41-1.39a372.66,372.66,0,0,0,76-39.68c.47-.32.9-.52,1-.44s-.26.38-.69.66c-3.67,2.41-7.27,4.9-11,7.17-1.86,1.15-3.67,2.38-5.56,3.46l-5.62,3.35,0,0c.34-.12.45-.06.15.2a4.6,4.6,0,0,1-1.17.7c-.39.14-.41,0-.16-.2a385.06,385.06,0,0,1-43.25,21.41,337.39,337.39,0,0,0,40.42-18.42c1.34-.9,2.72-1.74,4.06-2.69a3.18,3.18,0,0,1,1.11-.5c.15,0-.08.26-.47.51l-1.12.78c2.44-1.39,4.52-2.13,4.75-1.66s-1.72,2.15-4.26,3.62C348,39.25,341.1,43,334,46.37l-2.26,1.18-2.2,1.35a299.39,299.39,0,0,0,32.56-16.51c.89-.54,1.73-.88,1.84-.73s-.52.71-1.41,1.26a275.62,275.62,0,0,1-27.91,16.43,267.43,267.43,0,0,1-30,13.23c-3.26,1.63-6.58,3.17-9.91,4.79-3.38,1.47-6.78,3-10.27,4.47.92-.2,1.84-.45,2.75-.72A177.62,177.62,0,0,0,319.08,58.6c9.89-4.89,19.37-10.21,29.36-15.93a2,2,0,0,1,1.06-.42c.1,0-.19.33-.7.62-9.73,5.68-18.65,10.93-28.8,15.89l-6.27,3-6.23,2.74-3.08,1.37-3.09,1.27-6.11,2.56c2.11-.72,4.21-1.48,6.29-2.23l3.12-1.14,3.06-1.25,6.06-2.53,5.94-2.74,3-1.37L325.57,57,331.39,54,337.14,51,340,49.41c1-.52,1.9-1.08,2.85-1.62a8,8,0,0,1,1.84-.85c0-.07.12-.19.31-.33,1.81-1.28,3.84-2.53,5.86-3.91a3.39,3.39,0,0,1,1.17-.56C352.31,42.1,352.12,42.32,351.69,42.63ZM115,27.41v-.24l.2.55-.21,1.5S115,28.32,115,27.41Zm-9.73-.94h0c.09-.49.15-.85.15-.85C105.39,26,105.34,26.24,105.29,26.47Zm93.09,28-6.24-1.22c-1-.19-2.06-.46-3.08-.73L186,51.74a113.15,113.15,0,0,1-11.91-4l5.9,1.45,2.24.78,2.28.68L189.09,52c1.52.49,3.07.87,4.62,1.26ZM113.63,19.84a13.44,13.44,0,0,1,0,3.17,3.59,3.59,0,0,1,1.3.77c1,.94,2,1.85,3,2.81.12-.5.35-.27.52-.23l.47.19a43.4,43.4,0,0,1-2.85-3.4A28.86,28.86,0,0,1,113.63,19.84Zm-8.7-4.73,0-.22.67-.39Zm-1.11.7.09.21C103.67,16.18,103.69,16.06,103.82,15.81Zm.83,1.93a2,2,0,0,0,0-.48ZM92.14,35.51l2.93-2.37-2.9,2.21Z"/><path d="M250.69,106l-.57-.28c.13-.18.48-.2,1-.11a10.3,10.3,0,0,0-7.08-.49,9.44,9.44,0,0,0-2.45,1.16,7.42,7.42,0,0,0-1.62,1.49c-1.15.11-1.56.73-1.14,1.3a2.45,2.45,0,0,0,1.11.73,4.33,4.33,0,0,0,1.62.29,5.55,5.55,0,0,1,.89.2c.6.24,1.19.47,1.81.69l1.93.66,2,.67c.7.21,1.4.42,2.12.66-.63-.29-1.29-.57-1.9-.82a19.72,19.72,0,0,0,2.43.62l-.58-.48c3.13,1.3,6.41,1.69,7.07.21s-1.79-4.52-5.12-5.89Z"/><path d="M243,101.39a25.36,25.36,0,0,1,2.57.46c.87.19,1.73.4,2.61.67l.47.28-1-1.41,0,.09c-.42,1.37-2.22,2-3.78,2.64l-.52.27a.64.64,0,0,0-.12.73,2.57,2.57,0,0,0,2.16,1.06l1.07,0c.71.12,1.56.23,2.36.3a12.23,12.23,0,0,0,2.28,0c1.42-.18,2.46-.7,2.33-2-.06-.61-.85-1.41-1.37-2.13a3.85,3.85,0,0,0-3.39-1.78c-1.32.1-1.87,1-1.34,1.92l-.75-.1.26-.4c.2.85-.8,1.17-1.36,1.68l-1.06.39,2.06,1.86.46-.32c-.11-.08-.29-.2-.29-.21a14.93,14.93,0,0,1,2.79-1.82l1.24-.94c.2-.47-.28-1.15-1.07-1.51l-1.1-.41.54.25a53.49,53.49,0,0,0-6.1-.31c-.32,0-.57.14-.57.36S242.63,101.36,243,101.39Z"/><path d="M248.83,100a2.21,2.21,0,0,0,1.19.21l0-.22-.83-.33C248.66,99.39,248.59,99.65,248.83,100Z"/><path d="M250.07,100l.34.15a2.73,2.73,0,0,0-.3-.21l0,0Z"/><path d="M259.16,249.68c-1,24.83-2.15,49.81-3.7,74.78-.05.83,0,1.54.21,1.58s.33-.6.37-1.38c1.61-25,2.78-49.83,3.78-74.66a2.81,2.81,0,0,0-.31-1.64C259.32,248.31,259.18,248.9,259.16,249.68Z"/><path d="M236.49,435.91c-.05-.59-.16-.57-.26,0a9.9,9.9,0,0,0-.06,2.05c0,.5.17.48.25,0A9.72,9.72,0,0,0,236.49,435.91Z"/><path d="M228.27,430.48c-.27-3.5-.59-6.82-1-9.78a9.21,9.21,0,0,1-.05-1.64c-.19.21-.38-.46-.52-1.72-2.62-24.85-4.51-51.57-6.25-77.89a2.49,2.49,0,0,1-.65-1.11,29.56,29.56,0,0,1-1.12-9.28l.12-2.86c.17-11.55.38-23.07.8-34.56a68.29,68.29,0,0,1-.63-8.05c-.91-9.95-1.72-19.93-2.25-30.14-.21.64-.46,1-.72,1-.63-.2-1.1-2.57-1-5.33,0-1.39.07-2.77.16-4.16-.45,4-.54,8-.79,12,0,.58-.07,1.11-.13,1.59-.09,4.37-.09,8.79,0,13.28.43,39.22,4,76.09,7.74,112.67a6.88,6.88,0,0,1,0,2.07c-.1.36-.26.29-.36-.38-3.5-23.07-8.22-43-11-69.14-1.63-15.52-3-30.95-4-46.48-.27-3.89-.52-7.78-.71-11.68q-.16-2.93-.31-5.86c-.1-2-.23-3.91-.21-5.87a57.71,57.71,0,0,1,5.28-23.65c4-8.29,9-16.37,12.8-24.51,1-2.08,1.82-4,2.72-6.34l.63-1.67c.23-.64.48-1.17.68-1.62.41-.92.81-1.7,1.12-2.49a15.64,15.64,0,0,0,1.21-9.44,13,13,0,0,0-1.75-4.35c-.43-.69-.93-1.4-1.61-2.35a19,19,0,0,1-2.19-4,16.26,16.26,0,0,1-1.06-5.26,17.57,17.57,0,0,1,.56-5.16,23.67,23.67,0,0,1,4-7.76,12.76,12.76,0,0,0,1-1.58l0-.06h0l.09.06.35.18a6.11,6.11,0,0,0,.74.32l.39.13.19.08a2.75,2.75,0,0,0,.67.17s0,0,0,0H231l-.3,0-.21.05.11,0c.05,0,0,0-.4.18l-.3.17-.36.24a3.83,3.83,0,0,0-.46.33l-.1.08h0a.72.72,0,0,0-.18-.3,2.73,2.73,0,0,0-.24-.26,14.83,14.83,0,0,0-1.14-1c-.79-.6-1.57-1.2-2.29-1.82a22,22,0,0,1-3.72-3.67,9.81,9.81,0,0,1-1.75-4.15,3.52,3.52,0,0,1-.14-1.21c0-.42,0-.83,0-1.24a11,11,0,0,1,.52-2.26,7,7,0,0,1,.65-1.38,6.71,6.71,0,0,1,.85-1.27,6.19,6.19,0,0,1,.46-.62l.6-.58a16.66,16.66,0,0,1,1.42-1.11c.24-.18.51-.36.79-.53a6.56,6.56,0,0,1,.87-.49c.67-.28,1.32-.56,2-.87,1.32-.56,2.83-.95,4.2-1.41L234,124c.42-.15.63-.25.93-.37a9,9,0,0,0,1.34-.69,1.3,1.3,0,0,0,.28-.24h0l.07.09c.19.24.47.52.59.7s.33.38.51.56l.28.26.2.2a5.37,5.37,0,0,0,.44.37c.17.11.21.17.34.24s.28.14.32.17l.19.09c.13,0,.19,0,.11,0a1.2,1.2,0,0,0-.34.11,2.18,2.18,0,0,0-.6.34,4.37,4.37,0,0,0-.86.62l-.19.18-.28.24a6.51,6.51,0,0,0-.54.51c-.17.18-.33.36-.48.55a3.39,3.39,0,0,1-.28.31c-.09.09,0,0-.07.06h-.08c-.11,0-.23,0-.38-.07-.65-.16-1.65-.4-2.73-.58-.56-.1-1.07-.2-1.74-.28l-2-.07c-.68,0-1.38-.2-2.06-.3a75.92,75.92,0,0,1-8.85-2l-1.67-1a4.6,4.6,0,0,0-.44-.25l-.54-.2-1.1-.39c-.34-.14-.76-.25-1.05-.41l-.74-.57c-.49-.38-1-.75-1.44-1.13s-.93-.76-1.36-1.15l-.43-.39-.58-.52c-.79-.69-.49-1.59-1.36-2.25l-.5-.54a2.13,2.13,0,0,1-.43-.54l-.66-1.12-.55-1.15a13.2,13.2,0,0,0-.73-1.19c-.64-.8.09-1.58-.74-2.49l-.37-.65a4.87,4.87,0,0,1,0-.66l.06-.65c0-.1,0-.23-.09-.35l-.16-.37c-.18-.49-.56-1-.31-1.44l.17-.68.08-.34a1.4,1.4,0,0,0-.07-.39c-.12-.52-.26-1-.36-1.58l.56-1.36.14-.34a1.26,1.26,0,0,0,0-.39l0-.8c0-.53,0-1.06,0-1.6l.1-1.61,0-.41c0-.14.13-.21.19-.32l.49-.61,1-1.22a11,11,0,0,0,.55-1.46l.52-1.48,0-.1v0a.53.53,0,0,0-.06-.1l-.26-.42-.13-.2c0-.06,0-.08,0-.11l.09-.2.35-.81.34-.8.28-.71.54-1.32c.35-.85.73-1.72,1.1-2.56.28-.69.6-1.36.92-2a17.62,17.62,0,0,1,1-1.81,12.73,12.73,0,0,1,2.07-2.62c1.34-1.28,2.7-1.68,3.69-1,1.19.9,1.54,3.11,1.12,5.54l.65-1c.39-.45.8-.93,1.2-1.35,1.14-1.18,2.35-1.94,3.45-1.87h1.44c2.32.53,5.1.33,7.46,1.74l.39,1,.36,0a3.77,3.77,0,0,1,2.86,1.17l.64,1.14A11.85,11.85,0,0,1,237.05,87a3.87,3.87,0,0,1,.66,1.41,5.63,5.63,0,0,1,2.63,3.22.8.8,0,0,1,.58,1.08,1,1,0,0,1-.33.36h0c.36.19.46.24.9.45a5,5,0,0,1,.6,0c1-.16,1-.15,1.84-.24a5.89,5.89,0,0,1,1.66.59c2,1.84,2,1.88,2.5,2.8a1.46,1.46,0,0,1,0,.29c.78.17.85.2,1.07.26a3.51,3.51,0,0,1,.51.31c.34.49.34.49.56.66a4.24,4.24,0,0,1,.26.37c0,.6,0,.6.09.76a.77.77,0,0,1,0,.29l-.47.33-1.65-1.12.09.46-.56-.53.44.49L247.8,99l.78.37a4.54,4.54,0,0,0-1.54.07,1.75,1.75,0,0,0-.77.22,2.58,2.58,0,0,1,.21.25l-2.33.07-.44-.24c0,.15-.16.26-.39.28l-.58,0-.07.1,0,0c-.11.13-.19.22-.29.32l-.05.07h0c-.2.22-.5.53-1.29,1.33-.34,0-.68,0-1,.05l.37.1c.26.08.37.47.48.47,1.36.09,2.7.15,4.05.17s2.76.09,4.18.22a1.58,1.58,0,0,1,1.34.5c.3.37.17.7-.28.77a10.47,10.47,0,0,1-3.23,1.43,24.65,24.65,0,0,1-3.84.74c-2.7.31-5.46.42-8,.5-.57.08-1.14.21-1.69.33l-1.52.36.24.06c-.25,0-.62,0-.56.15v0h.19l.4.08h.47a17.26,17.26,0,0,1,3.89-.45c.75,0,1.45,0,2.23,0l2.39.12a16.91,16.91,0,0,1,2.67.36l2.77.61a1.37,1.37,0,0,1,1,.54c.14.26-.11.44-.53.4-1.25.14-2.46.16-3.77.24-.64,0-1.23,0-1.88,0H239.6c-1.25,0-2.38-.08-3.51-.12l-1.58-.16a3.29,3.29,0,0,1-.36-.07l-.31,0-.11.06a1.53,1.53,0,0,1-.84.31h0l.48.08c-.17.11-.6,0-.8.14l.61.2a1.53,1.53,0,0,0-.47,1.3c.05.47.22.84.26,1.2a.56.56,0,0,0,0,.08c.35.12.68.21,1,.3l.22.06.06,0,.17.09.34.16c.46.21.92.39,1.39.59a14.39,14.39,0,0,1-1.67-.91c.65.3,1.35.56,2,.79l.24.08.12,0,.06,0,.12.08,2,1.3c.68.46,1.38.9,2.14,1.46a23,23,0,0,1,2.47,2l.47.44c.16.16.34.36.5.55a9.07,9.07,0,0,1,1,1.36,7.78,7.78,0,0,1,.51.93,6.86,6.86,0,0,1,.42,1.1,10.87,10.87,0,0,1,.27,1.26,10.29,10.29,0,0,1,0,1.36,7.5,7.5,0,0,1-1.79,4.32,9.65,9.65,0,0,1-2.31,2,24.34,24.34,0,0,1-3.63,1.78c-.52.21-1.23.47-1.16.46a2.47,2.47,0,0,0-.36.11,9.58,9.58,0,0,0-1.46.54,1.55,1.55,0,0,0-.62.51,1.74,1.74,0,0,1-.11.18,1.2,1.2,0,0,1,0,.19.75.75,0,0,0,.1.36,4.86,4.86,0,0,0,1,1l.28.24.13.13.07.07h0l0,0s0,0,0,0l.17.13a15.63,15.63,0,0,1,2.67,2.62,12.28,12.28,0,0,1,2,3.71,11.76,11.76,0,0,1,.47,2,18,18,0,0,1,.09,2.06,10.92,10.92,0,0,1-.86,3.71,13.58,13.58,0,0,1-.7,1.38c-.24.38-.48.75-.71,1.08a28.39,28.39,0,0,1-2.11,2.77c-.58.71-1.1,1.3-1.47,1.82a6.31,6.31,0,0,0-1.3,2.82,4.5,4.5,0,0,0,0,1.36,5.41,5.41,0,0,0,.62,1.7c.79,1.5,2,3.54,3,5.59a55.41,55.41,0,0,1,4.12,12.93c.43,2.24.71,4.55.95,6.72l.18,1.56a12.34,12.34,0,0,0,.26,1.32c.19.9.43,1.79.65,2.67.51,1.91,1.05,3.86,1.67,5.77s1.29,3.9,2,5.84c1.4,3.88,3,7.81,4.42,11.7a98.86,98.86,0,0,1,6.27,23.36c.22,1.6,0,3-.29,3.31s-.71-.9-.89-2.5a97.91,97.91,0,0,0-3.91-16.79c-1.81-5.63-4-11.26-6-16.92-1-2.81-1.9-5.64-2.73-8.46-.4-1.39-.78-2.79-1.12-4.19l-.26-1-.21-1c-.15-.65-.3-1.31-.42-2-.26-1.15-.34-2.8-.52-4.38s-.36-3.24-.66-4.85a53.32,53.32,0,0,0-2.55-9.41,51.89,51.89,0,0,1,2.16,7.84,66.19,66.19,0,0,1,1,8.05c.06.66.09,1.28.15,1.86s.17,1.06.26,1.62c.21,1.12.39,2.15.66,3.38.5,2.36,1,4.7,1.71,7.1,2.5,9.54,5.88,19.2,7.52,28.89.49,2.48.88,5,1.19,7.46a46.21,46.21,0,0,1,.23,7.33c-.09,12.38-.44,24.45-.7,36.58s-.52,24.33-.66,37c-.25,21.6-.67,40.49-1.64,62-1.43,30.2-4,57.7-9.74,87.51a43.24,43.24,0,0,1-2.06,8.09c-.35.48,0-2.4.65-6.38,2.47-15.54,4.13-31,5.38-46.52s2.1-31,2.74-46.59c1.26-31.18,1.81-62.73,2.85-95.24.2-7,.41-13.92.61-20.78a.66.66,0,0,1-.36.17c-.49,0-.93-.67-1.28-1.77q-.39,11.69-1.06,23.53c.51,21.93.65,43.9-1,67.28-1.15,16.05-2.9,30.57-4.53,45.41-.78,18.82-1.79,37.58-3.6,56.59a8.15,8.15,0,0,1-.28,1.81c-.1.28-.13-.13-.08-.9.85-13.07,1.37-26.46,1.76-40-.51,2.12-1,3.39-1.55,3.21s-.9-1.83-1.13-4.36l-.47,9.2c-.11,1.89-.37,3.38-.61,3.32s-.4-1.55-.32-3.35q.75-18.76,1.49-37.47c.14-15,.2-29.91.24-44.93a10.54,10.54,0,0,1-1.85,4.32h0c0,2.32,0,4.64-.07,6.95.59,21.21.72,42.67.26,64.3s-1.43,43.41-2.89,65.29a7.75,7.75,0,0,1-.19,1.57,5.8,5.8,0,0,1,0-1.41q1.22-19.81,1.94-39.52v.06c-.08.53-.19.63-.24,0a11.9,11.9,0,0,1,.07-2.06c.1-.6.21-.55.25-.05.86-24.47,1.07-48.77.6-72.75q-.43,33.42-1.66,66.81c0,2.42.11,4.84.16,7.31a7.74,7.74,0,0,1-.19,1.82c-.08.18-.17-.31-.17-1l0-2c-.17,4.21-.65,7.45-1.12,7.38-.48-.24-.83-3.86-.77-8.24,0-11.72,0-23.39.07-35.07l-.09-3.79c-.11-1.28-.22-2.54-.32-3.81-.38,18.16-.73,36.28-.87,54.3a8.19,8.19,0,0,1-.26,2.89c-.16,0-.31-1.21-.33-2.77-1.1-31.76-2.38-63.92-3.14-96.21-1.38-10.62-2.86-21.26-4.34-32.11,0,1.37,0,2.75,0,4.13.17,17.55,1.45,33.79,2.7,49.88s2.47,32,3.06,49a4.06,4.06,0,0,1-.13,1.67c-.1.09-.22-.48-.24-1.35-.72-16.59-2.12-31.74-3.31-48.21-1-13.64-1.91-26.61-3.14-39.29.83,25.91,3,50.77,4.39,76.43a15.12,15.12,0,0,1,0,3,1.37,1.37,0,0,1,.18.63c.41,3.21.74,6.71,1,10.29a6.77,6.77,0,0,1,0,1.91C228.48,431.66,228.36,431.24,228.27,430.48Zm2.5-329.2.2,0-.54.07-1.11-.28S230,101.16,230.77,101.28Zm4.87-6.89h0l.71.31ZM243,194c-.14-.8-.28-1.59-.37-2.35l-.2-2.71c-.13-1.89-.32-3.82-.64-5.73a49.38,49.38,0,0,0-3.11-11,47.22,47.22,0,0,0-2.48-5.1,13.92,13.92,0,0,1-1.74-3.74,4.63,4.63,0,0,1,0-1.35,6.68,6.68,0,0,1,.34-1.45,8.78,8.78,0,0,1,1.73-2.73,8.9,8.9,0,0,0-1.62,2.69,5.58,5.58,0,0,0-.28,2.67c0,1.12,1.68,3.53,3,6.15a47.45,47.45,0,0,1,3.09,8.12,52.09,52.09,0,0,1,1.62,8.61c.16,1.44.24,2.9.33,4.29,0,.66.07,1.37.14,1.9S242.94,193.43,243,194Zm-5.15-92.28a22.85,22.85,0,0,1-2.83-.73,4.9,4.9,0,0,1-1.26.7c-1.2.53-2.44,1-3.54,1.53.34.12.07.24,0,.34s-.24.19-.33.28c.61-.26,1.25-.5,1.88-.71s1.37-.42,2.05-.6,1.33-.34,2-.49A12.43,12.43,0,0,1,237.89,101.74Zm8.86-4,.22.12.1.63Zm-.21-1.08-.26,0C246.22,96.36,246.33,96.42,246.54,96.63Zm-2.37-.21a2.53,2.53,0,0,0,.46.22ZM232.25,81.19l1.18,3.18-1.05-3.13Z"/></g></g></svg>