<svg xmlns="http://www.w3.org/2000/svg" viewBox="0 0 301.18 573.47"><g id="Layer_2" data-name="Layer 2"><g id="Layer_1-2" data-name="Layer 1"><path d="M54.2,324l.26,0c0,.17-.16.28-.36.36,2.45,0,3.94-2.31,4.34-4.5a1.1,1.1,0,0,0,.33-1.51,1.09,1.09,0,0,0-1.51-.33,1.72,1.72,0,0,1-.44.06,8.48,8.48,0,0,0-3.68.26H54a2.76,2.76,0,0,0-1,.39l.3.19a2.53,2.53,0,1,0,.27,5.06Z"/><path d="M58,325.49c-.79.11-1.57.18-2.36.24l-.23-.08.6.71,0-.06a4.46,4.46,0,0,1,1.24-2.62l.18-.32a.8.8,0,0,0-1.16-.91l-.45.24c-1.3.34-2.85,1.51-2.43,3.17.1.38.49.66.77,1A1.12,1.12,0,0,0,56,325.6l.33-.09c0,.11,0,.21-.07.32-.19-.53.19-1,.34-1.45l.41-.5L55.89,323l-.15.35.16.08a11.29,11.29,0,0,1-.86,2l-.36.94a.69.69,0,0,0,.61.7h.49l-.25,0c.89-.28,1.74-.69,2.63-1a.28.28,0,1,0-.12-.54Z"/><path d="M55.71,327.53a.62.62,0,0,0-.5.14v.14l.37,0C55.85,327.85,55.85,327.68,55.71,327.53Z"/><path d="M55.21,327.81h-.15l.14.06v-.05Z"/><path d="M82,303.71c2-1.19,4-2.48,6-3.8a.15.15,0,0,0,0-.21.15.15,0,0,0-.2-.05c-2,1.32-3.94,2.59-6,3.79a.16.16,0,0,0,0,.21A.16.16,0,0,0,82,303.71Z"/><path d="M101.31,299.93a.18.18,0,0,0,.14.17.13.13,0,0,0,.15-.12.21.21,0,0,0-.14-.18A.13.13,0,0,0,101.31,299.93Z"/><path d="M105.18,305.74a3,3,0,0,0-.41,1,.12.12,0,0,1-.13.08.31.31,0,0,1,.08.37,34.7,34.7,0,0,1-4.39,6.31,1,1,0,0,1,.13.33.8.8,0,0,1-.4.91l-.27.1c-1,.5-1.94,1-2.94,1.52a1.55,1.55,0,0,1-.41.71,24,24,0,0,1-1.51,2.68.61.61,0,0,1,.29.22.51.51,0,0,1-.07.72l-.3.25,1-.5.15-.05a11.82,11.82,0,0,0,1-.78,36.7,36.7,0,0,0,6.68-8.71.12.12,0,0,1,.17-.09c.07,0,.13.12.1.19-.76,2.56-1,5.32-2.32,7.62a67.69,67.69,0,0,1-5.1,7.78c-2.48,1.92-4.31,4.28-6.5,6.67-.81.89-1.63,1.73-2.47,2.53-2.59,2.43-5.26,4.6-8,6.81a3.31,3.31,0,0,1-5.64-2.86l-.37.26-.69.26a3,3,0,0,1-2,0l-.86-.31c-1.41-.74-3-1.05-4.35-1.92l-.26-.53-.2-.05a2.77,2.77,0,0,1-1.58-.74l-.4-.57a6.88,6.88,0,0,1-.86-2.15,2.36,2.36,0,0,1-.43-.75,3.39,3.39,0,0,1-1.55-1.68.47.47,0,0,1-.37-.57.47.47,0,0,1,.13-.24h0c-.18-.08-.24-.11-.46-.19l-.28.08-.82.34a2.59,2.59,0,0,1-.8-.12c-1.05-.75-1.05-.75-1.33-1.21a.94.94,0,0,1,0-.16l-.47.05a.83.83,0,0,1-.24-.08c-.19-.22-.19-.22-.29-.27a.92.92,0,0,1-.14-.16c-.07-.35-.07-.35-.12-.43a.94.94,0,0,1,0-.18l.15-.31.79.33-.08-.26.29.21-.24-.21.29,0-.36-.07c.47-.22.47-.22.62-.36a.79.79,0,0,0,.3-.28l-.12-.12,1-.46.22.09a.26.26,0,0,1,.13-.25l.26-.12,0-.07,0,0,.1-.26V326h0c.06-.18.16-.43.41-1.12a4.13,4.13,0,0,1,.45-.17l-.19,0c-.13,0-.23-.3-.29-.29a17.29,17.29,0,0,0-3.59,1.35.41.41,0,0,1-.58-.58,8.91,8.91,0,0,1,6.42-5.1q.94-.46,1.86-1l-.16-.05.55-.16,0,0-.62-.14-.32.05a26.21,26.21,0,0,1-4.53,1.63,21.6,21.6,0,0,1-2.51.55.36.36,0,0,1-.5-.13.37.37,0,0,1,.13-.5c1.85-1.87,4.4-3.45,7.1-3.37a2.13,2.13,0,0,1,1.33-.44h0l-.49-.16c.34-.13.71,0,1-.06l-.44-.38c1.61-.79,3-2.08,4.8-2.43l.18-.07a5.52,5.52,0,0,1,1.17-2l-.69.3a3.4,3.4,0,0,1,1-1.29,4.86,4.86,0,0,1,4.66-.53c2.21-1.95,4.45-3.86,6.54-5.95a.29.29,0,0,1,.41,0,.32.32,0,0,1,0,.43,43.06,43.06,0,0,1-4.32,4.82,42.82,42.82,0,0,0,4.67-2.81l.51-.49a1.56,1.56,0,0,1,.6-.35,38,38,0,0,0,5.29-4.51c1.38-1.54,2.55-2.94,3.83-4.6a33.09,33.09,0,0,1,5.61-6.25.72.72,0,0,1,1,.09.78.78,0,0,1,.07,1.06c-3.82,4.66-7.38,9.47-12.36,13.07l-1.6,1.14a.74.74,0,0,1,.12.13,1.19,1.19,0,0,1,.26.6c.62-.4,1.26-.78,1.93-1.14a18,18,0,0,1,4.56-4.47A22.1,22.1,0,0,1,96,299c1.24-1.3,2.43-2.65,3.71-3.93a.12.12,0,0,1,.19,0,.16.16,0,0,1,.06.21,31.41,31.41,0,0,1-2.18,3.34,1.58,1.58,0,0,1,.85.61,1.52,1.52,0,0,1,.3,1l.7-.5a.34.34,0,0,1,.47.09.33.33,0,0,1,0,.48l-2.84,2.1c-1,1-2,2.05-3,3a2.41,2.41,0,0,1,.91.5h0l.5-.43a37.85,37.85,0,0,1,8.73-8.68.16.16,0,0,1,.22,0,.15.15,0,0,1,0,.21,32.71,32.71,0,0,0-2.94,2.3h0a.17.17,0,0,1,.14.17.12.12,0,0,1-.15.12.17.17,0,0,1-.14-.17,38.68,38.68,0,0,0-4.75,5.07,48.65,48.65,0,0,1,5-3.84l.34-.69a.14.14,0,0,1,.21,0,.16.16,0,0,1,0,.2l-.1.19a.83.83,0,0,1,1.1.28.8.8,0,0,1-.1,1.13c-.82.75-1.66,1.47-2.51,2.16l-.23.29-.15.4c1.47-.9,3-1.77,4.45-2.62a.29.29,0,0,1,.4.07.29.29,0,0,1,0,.41,75.07,75.07,0,0,1-6.28,6.7l-1,3.58a3.62,3.62,0,0,0,.32-.22c2.62-2,3.57-5.39,5.84-7.69a.13.13,0,0,1,.2,0,.16.16,0,0,1,0,.22,36.12,36.12,0,0,0-2.68,4,32.55,32.55,0,0,0-2.1,3.33c1.81-1.66,3.11-3.8,4.77-5.6a.24.24,0,0,1,.28-.1.31.31,0,0,1,0-.13,4.43,4.43,0,0,1,.44-1c0-.07.11-.09.2,0A.17.17,0,0,1,105.18,305.74ZM64.25,324.87l-.11,0h.3l.69.33Zm-1.86,4.63h0l-.39-.18ZM79.3,308.83a12,12,0,0,1-3.39,1.86l.67-.66C77.46,309.61,78.37,309.2,79.3,308.83ZM60.38,324.59a5.72,5.72,0,0,1,1.54.39,2,2,0,0,1,.57-.56,18.52,18.52,0,0,1,1.86-1.1c-.22-.14-.07-.22,0-.29l.17-.21c-.7.32-1.4.63-2.13.93A17.16,17.16,0,0,1,60.38,324.59Zm-3.56,3.92-.1,0-.11-.37Zm.21.62.11,0C57.19,329.24,57.14,329.22,57,329.13Zm1-.24-.23-.07Zm7.07,8-.81-1.66.74,1.62Z"/><path d="M9.09,371.54l.45.62A2.49,2.49,0,0,1,8,371.54a18.35,18.35,0,0,0,4.22,3.53,29.76,29.76,0,0,0,4.85,2.44,31.33,31.33,0,0,0,5,1.41,43.49,43.49,0,0,0,4.61.72c1.71,1.1,3.5,1.32,4,.5s-.45-2.4-2.17-3.59a8.76,8.76,0,0,1-1-1.05,46.78,46.78,0,0,0-7.91-8.88c.57.72,1.16,1.45,1.73,2.14a20.91,20.91,0,0,0-2.92-2.41c.06.25.14.56.2.82a16.07,16.07,0,0,0-2.54-2.4,16,16,0,0,0-2.89-1.69,8.37,8.37,0,0,0-5.45-.83c-3,.87-3,4.54,0,7.8Z"/><path d="M13.5,380.94c-1.79-1.71-3.51-3.3-5.24-5L8,375.36l-.37,1.8.07-.09a9.23,9.23,0,0,1,3.93,0,28.08,28.08,0,0,1,4.4,1.28l1.07.27a1.31,1.31,0,0,0,1.16-.4c.49-.64-.15-1.79-1.4-2.62l-1.44-.95a21.41,21.41,0,0,0-6.17-3.73c-2.21-.87-4.38-1.11-5.82-.08-.66.49-.5,1.6-.62,2.48-.47,1.15.62,2.82,2.41,3.7s3.61.73,4.07-.36l.86.66-.85.08c.81-.75,2.53-.25,3.92-.12l1.93.67-.25-3.07-1.07-.18c0,.15.13.38.12.39a56.81,56.81,0,0,1-6.14-.8L5,374.06c-.83.21-1,1-.37,1.85l1,1.1-.4-.58c2.4,1.82,5,3.26,7.36,5.07a1.19,1.19,0,0,0,1.17.28C14,381.62,13.88,381.24,13.5,380.94Z"/><path d="M4.32,377.23a3.11,3.11,0,0,0-1.32-1l-.31.11.68.84C3.87,377.77,4.24,377.64,4.32,377.23Z"/><path d="M2.69,376.33,2.4,376l.16.37h.07Z"/><path d="M226,455.49A118.12,118.12,0,0,0,223.59,440q-1.71-7.87-4.23-16c-.41-1.35-.86-2.7-1.31-4-.22-.66-.46-1.37-.72-2.11l-.75-2.16c-1-2.91-2.07-5.74-3.11-8.59-2.19-5.65-4.49-11.2-6.95-16.66C201.61,379.48,196.15,369,190,357l-4.65-9.35-1.2-2.44-1.33-2.86c-.83-1.83-1.62-3.62-2.38-5.4-3-7.1-5.61-14.09-8-21.17-.65-1.89-1.36-3.42-1.65-3.43s0,1.54.62,3.29c2.39,7.1,5,14.12,8,21.23.75,1.78,1.53,3.57,2.36,5.41l1.31,2.84,1.23,2.54,2.35,4.76L189,357c6.14,12,11.59,22.47,16.49,33.36,2.46,5.43,4.78,10.92,7,16.53,1,2.83,2.15,5.64,3.13,8.53l1.48,4.28c.45,1.34.92,2.69,1.32,4,1.69,5.35,3.15,10.63,4.29,15.83a118.43,118.43,0,0,1,2.53,15.4,7.24,7.24,0,0,0,.61,2.68C226,457.72,226.11,456.78,226,455.49Z"/><path d="M226.87,73.31c-.68,1.12-.49,1.19.43.19A27.34,27.34,0,0,0,230,69.92c.57-.93.37-1-.43-.19A27.79,27.79,0,0,0,226.87,73.31Z"/><path d="M232.49,91.08a152.81,152.81,0,0,0-8.85,18.22,31.26,31.26,0,0,1-1.5,3c.48-.22.15,1.15-.83,3.54a224.69,224.69,0,0,0-11.21,36.6,215.43,215.43,0,0,0-4.52,38.29,263.75,263.75,0,0,0,9.85,77.47,5.21,5.21,0,0,1,1.49,1.92c1.92,3.25,4.27,10.08,6.37,17.27.49,1.81,1,3.64,1.51,5.44,1.68,5.45,3.55,10.83,5.56,16.08,1,2.62,2.06,5.22,3.13,7.7.54,1.23,1.08,2.45,1.6,3.55l1.9,4c5.2,10.71,11,22.46,15.82,34.8a132.67,132.67,0,0,1,7.48,17c2.17,5.32,4.2,10.7,6,16.12.93,2.71,1.84,5.43,2.68,8.16l1.28,4.11,1.23,4.33a152.07,152.07,0,0,1,5.58,36.83c.28-1.64.57-2.65.9-2.65.79.43,1.42,6.46.74,13.6-.12,1.8-.37,3.61-.56,5.4s-.52,3.6-.8,5.39a149.74,149.74,0,0,0,2.47-30.88c0-1.47-.06-2.82-.09-4.06a163.59,163.59,0,0,0-2-16.46c-.47-2.7-1-5.39-1.6-8.07s-1.23-5.37-1.89-7.84a305.37,305.37,0,0,0-10.24-32.64c-2-5.33-4.24-10.56-6.56-15.67s-4.81-10-7.28-14.77-5-9.24-7.36-13.54l-3.39-6.18c-.93-1.72-1.94-3.71-2.9-5.69a268.66,268.66,0,0,1-10.51-25.07c-3.12-8.59-5.83-17.31-8.14-26.09s-4.22-17.62-5.7-26.51l-1-6.67-.84-6.68-.7-6.69-.49-6.7a224,224,0,0,1,0-26.8,14.21,14.21,0,0,1,.56-4c.3-.65.55-.48.48.82A193.07,193.07,0,0,0,212,209.84a259.08,259.08,0,0,0,6.45,31.38c2.79,10.38,6.14,20.77,10.11,31.36a345.83,345.83,0,0,0,13.94,32.22c.8,1.59,1.61,3.16,2.42,4.67s1.64,3,2.37,4.2q3,5.07,6,10.14l3.14,5.48c1.06,1.91,2.13,3.76,3.19,5.74s2.1,3.94,3.15,6,2.07,4.09,3.07,6.15a259.14,259.14,0,0,1,10.81,25.9c3.15,8.84,5.85,17.77,8.23,26.67a180.45,180.45,0,0,1,5.4,30c.24,2.6.37,5.25.51,7.9s.11,5.33.05,8A144.2,144.2,0,0,1,289.67,462a147.8,147.8,0,0,1-3.09,16.48c-.37,1.41-.78,2.83-1.18,4.24s-.78,2.83-1.29,4.21c-1,2.76-1.89,5.54-3.08,8.2l-1.72,4c-.62,1.31-1.27,2.6-1.91,3.89-1.24,2.62-2.72,5.08-4.14,7.56-.69,1.26-1.5,2.43-2.27,3.63s-1.54,2.38-2.34,3.55l-2.52,3.4-1.27,1.68c-.43.55-.88,1.09-1.33,1.63a131.92,131.92,0,0,1-24.91,22.82A145.12,145.12,0,0,1,225,555.84c-4.68,2.51-9.4,4.81-14.21,6.81a144.57,144.57,0,0,1-14.55,5.25,138.32,138.32,0,0,1-14.9,3.54,117.65,117.65,0,0,1-30.32,1.7,102.5,102.5,0,0,1-15.07-2.28c-2.49-.5-4.95-1.28-7.38-2-1.38-.46-2.81-1-4.19-1.47a16.53,16.53,0,0,1-2-.87l-2-.95a53.87,53.87,0,0,1-13.55-9.86,68.45,68.45,0,0,1-9.57-12.22,104.33,104.33,0,0,1-11.51-26.72l-.91-3.48-.81-3.4c-.57-2.25-1-4.55-1.57-6.83-1-4.59-2-9.23-2.84-13.9-.62-3.15-1.19-6.3-1.83-9.38l-1-4.55c-.3-1.52-.7-2.93-1-4.38a64,64,0,0,0-2.58-8c-.49-1.26-1-2.47-1.58-3.66s-1.13-2.35-1.81-3.48l-1-1.7c-.33-.52-.69-1-1-1.5a35.37,35.37,0,0,0-2.16-2.84L65.1,449l-.62-.65-1.2-1.28A13.47,13.47,0,0,0,62,445.83l-1.31-1.17A50.82,50.82,0,0,0,55,440.44a34,34,0,0,0-3.12-1.82l-1.58-.87c-.52-.28-1.12-.53-1.66-.79-1.14-.52-2.19-1.06-3.34-1.54l-1.75-.69-.35-.12-1.07-.39c-.71-.25-1.4-.52-2.17-.73l-4.46-1.24a134.13,134.13,0,0,0-18.72-3.38,14,14,0,0,1-6.21-1.68,4,4,0,0,1-2.17-3.85c.26-1.84,2-3.39,4.44-4.15l-1.2-.24-1.8-.69a6.64,6.64,0,0,1-3.73-2.8l-1-1.54A32.24,32.24,0,0,0,3,409.7a17.05,17.05,0,0,1-1.93-4.41l.66-1-.27-.38A4.81,4.81,0,0,1,0,400.53l.49-1.28a10.06,10.06,0,0,1,3.05-3.69,3.19,3.19,0,0,1,.81-1.48A4.46,4.46,0,0,1,5,389.69c-.39-.55-.15-1.08.55-1.2a2.26,2.26,0,0,1,.77.05h0a8.66,8.66,0,0,0-.49-1.06c-.47-.29-.74-.48-.74-.48-1.26-.72-1.26-.72-2.36-1.37a7,7,0,0,1-1.3-1.72c-.44-2.83-.44-2.85,0-3.82l.3-.21c-.79-.72-.85-.78-1.06-1a3.31,3.31,0,0,1-.31-.59c.11-.59.11-.59,0-.86A2.17,2.17,0,0,1,.47,377c.67-.41.67-.41.73-.59a2,2,0,0,1,.37-.18l1,.11.85,2,.41-.38.11.78v-.67l.53.63-.57-.84a10.29,10.29,0,0,0,2,1.11,3.82,3.82,0,0,0,1.24.44,1.36,1.36,0,0,1,0-.34l3,1.82a3.5,3.5,0,0,1,.25.52.89.89,0,0,1,.81.13L12,382h.2v0L13,382h.16v0l3.31.29a14.58,14.58,0,0,1,1.26.88l-.31-.42c-.19-.29.19-.65.07-.76-1.53-1.29-3.18-2.54-4.89-3.74s-3.49-2.23-5.24-3.4c-.67-.25-1.2-.85-1.18-1.32s.62-.64,1.31-.37a29,29,0,0,1,6.29,1.37,52.56,52.56,0,0,1,6.3,2.84q1.56.82,3.06,1.74c1,.66,2,1.34,2.95,2,1.91,1.41,3.74,2.87,5.44,4.33q2.81,2.07,5.63,4.07l-.2-.36,1.39,1.2.15.11-.83-1.38-.71-.69c-1.1-.76-2.16-1.56-3.19-2.39l-3.05-2.5c-2-1.63-4-3.41-6.1-5.12-2.26-1.83-4.08-3.69-6.19-5.61-.58-.38-.89-.93-.71-1.25s.82-.22,1.38.16c2,.94,4,2,6,3.14s3.95,2.57,5.82,3.94c.93.68,1.84,1.36,2.72,2.08s1.72,1.5,2.53,2.26a47,47,0,0,1,4.27,4.59,14.87,14.87,0,0,1,3.42,3.15l.06.05-.56-1.12c.93.84,1.25,1.63,2.07,2.44,0-.3,0-.66,0-1,1.18,1,2.4,1.83,3.61,2.85l3.62,3a48.58,48.58,0,0,1,6.46,6.35l.46.46a27,27,0,0,1,3.13,1.93l.79.56.1.07,0,0,0,0,.07.06L65,407.74l1.21,1.1,1.18,1.2a88.53,88.53,0,0,1,9.12,10.58c-.48-.68-.95-1.36-1.44-2l-1.52-1.9c-1-1.24-2-2.58-3.12-3.74s-2.19-2.36-3.28-3.55c-.55-.61-1.12-1.17-1.7-1.71l-1.52-1.46,0,0,.22.2.48.43.95.86c.65.56,1.27,1.18,1.87,1.81l3.65,3.76c1.16,1.32,2.3,2.69,3.43,4l.85,1,.8,1.08,1.59,2.18a73.11,73.11,0,0,1,10.14,19.72A77.29,77.29,0,0,1,91,456.12a116.81,116.81,0,0,1,.51,14.31c-.06,2.28-.07,4.48-.09,6.65,0,1.07,0,2.14,0,3.21s0,2.11.07,3.15a96.84,96.84,0,0,0,1.26,12.06,101.76,101.76,0,0,0,2.6,11.09,94.06,94.06,0,0,0,3.31,9.68,81.39,81.39,0,0,0,7.48,14.13,50.6,50.6,0,0,0,7.66,8.35,33.72,33.72,0,0,0,8.92,5.71l1.15.53,1.19.39a18.5,18.5,0,0,0,2.36.67c.8.15,1.58.35,2.36.47l2.37.22a13.26,13.26,0,0,0,1.33.06l1.39.05c.93,0,1.85.08,2.79,0l2.79-.08c.93,0,1.86-.14,2.78-.2a96.48,96.48,0,0,0,41.67-14.19c1.58-.91,3.06-2,4.59-3s3-2.11,4.38-3.23,2.83-2.24,4.15-3.47l2-1.78,1.91-1.87c1.3-1.2,2.47-2.54,3.69-3.81s2.29-2.66,3.42-4a87.81,87.81,0,0,0,5.93-8.36,73.52,73.52,0,0,0,8.12-17.64,62,62,0,0,0,2.76-17.8c0-2.58.23-4.86.63-5.28.2-.12.4.26.56,1a14,14,0,0,1,.26,3.15l0,1.72-.06,1.61c0,1.08,0,2.18-.16,3.26s-.18,2.19-.34,3.28l-.53,3.3a68.65,68.65,0,0,1-4.07,13.18,76.65,76.65,0,0,1-6.85,12.89,89.4,89.4,0,0,1-9.53,11.92,98.91,98.91,0,0,1-11.73,10.57,104.6,104.6,0,0,1-13.6,8.62,97.91,97.91,0,0,1-30.89,10.37,103.54,103.54,0,0,0,49.63-21.61,95.87,95.87,0,0,0,18.25-19.24,79.08,79.08,0,0,0,11.21-22.57,64.14,64.14,0,0,0,2.28-12.16l.27-3c.06-1,.13-2.09.19-3.13l.13-3.14,0-3.15c-.41-10.72-2.61-21.5-5.71-32.33-.8-2.71-1.6-5.43-2.54-8.14-.43-1.32-1-2.83-1.47-4.23s-1-2.87-1.52-4.27c-2.06-5.67-4.34-11.19-6.71-16.65-4.78-10.94-10.18-21.33-16.26-32.6l-4.68-8.7c-1.61-3-3.19-6-4.91-9.36-1.85-3.7-3.39-7.07-4.93-10.55s-3-6.91-4.36-10.4C176.1,315.93,174,310,172,304.16s-3.76-11.73-5.34-17.6-3-11.73-4.3-17.61c-.59-2.95-1.23-5.89-1.73-8.86l-.78-4.44-.69-4.47c-.48-3-.87-6-1.21-9s-.61-6-.9-9.06-.42-6.08-.63-9.14-.18-6.15-.28-9.24,0-6.22.06-9.35.2-6.29.41-9.46.47-6.37.83-9.58l.57-4.83c.19-1.61.38-3.23.65-4.86q.54-3.42,1.07-6.82c.42-2.26.91-4.5,1.36-6.75l.7-3.35.82-3.33c.56-2.21,1.07-4.43,1.68-6.62A220.72,220.72,0,0,1,173,124.31a233.65,233.65,0,0,1,25.14-45.58c19.74-27.88,44.29-50.88,72.4-69.66,7.48-5,14.84-8.94,16.06-9.06s-4,3.46-11.43,8.48c-28.71,19.82-54.45,44.84-74.61,74.94a235.41,235.41,0,0,0-25,48.82l-1.21,3.27-1.12,3.3-1.11,3.31c-.37,1.1-.66,2.23-1,3.35l-1.93,6.73L167.53,159a220.21,220.21,0,0,0-4.65,27.54,251.12,251.12,0,0,0-1.39,27.8,274.32,274.32,0,0,0,1.7,27.66c1,9.17,2.51,18.27,4.37,27.28s4.15,17.92,6.8,26.75,5.62,17.57,9,26.25c1.7,4.35,3.51,8.67,5.49,13.06l1.53,3.31.81,1.71.84,1.68,3.07,6c4.07,7.91,8,15.2,11.68,22.49s7.07,14.49,10.22,21.93q4,9.65,7.43,19.51c.55,1.65,1.11,3.3,1.66,4.94s1,3.15,1.48,4.73c.94,3.14,1.81,6.27,2.55,9.39.12-.19.24-.37.39-.4.61-.12,1.5,1,2.45,2.91-.79-3.6-1.67-7.22-2.67-10.85-.52-1.82-1-3.64-1.6-5.46-.26-.89-.56-1.84-.87-2.79L227,411.6q-3.68-11.37-8.1-22.35c-4.65-10-9.87-19.57-15.47-29.6-2.8-5-5.72-10.2-8.64-15.69-1.41-2.6-3.11-5.93-4.48-8.89s-2.75-6-4-9A288.91,288.91,0,0,1,173.55,289c-1.68-6.37-3.19-12.84-4.46-19.41s-2.28-13.25-3-20a256.8,256.8,0,0,1-1.48-27.47,245.58,245.58,0,0,1,1.67-26.62l.87-6.53,1.08-6.46c.34-2.15.8-4.29,1.25-6.42s.83-4.26,1.4-6.36l1.61-6.31c.54-2.1,1.21-4.17,1.81-6.25,1.16-4.17,2.68-8.24,4.05-12.35a235,235,0,0,1,27.78-58.68,276.78,276.78,0,0,1,41.13-49,21.31,21.31,0,0,1,3.12-2.64c.56-.31,0,.4-1.25,1.59a295.9,295.9,0,0,0-29.23,33.41A254.54,254.54,0,0,0,196,108.31c2.83-4,5-6.09,5.63-5.35.32.38.2,1.47-.26,3.12a64.33,64.33,0,0,1-2.22,6.54c3.11-6.11,6.48-12.07,10-17.89,2.27-3.55,4.33-6.18,4.65-5.83s-1.13,3.31-3.25,6.69c-3.57,5.92-6.94,12-10,18.18s-5.91,12.57-8.44,19.06a222.08,222.08,0,0,0-11.33,40.24c-1.26,8.29-2.09,16.61-2.54,25s-.3,16.66.13,25a284.6,284.6,0,0,0,7.2,49.17c-.19-4.66.07-8.15.87-9.92h0l-.71-3.75-.63-3.75c-.45-2.5-.81-5-1.16-7.51A235.36,235.36,0,0,1,182.2,177a209.52,209.52,0,0,1,7.67-34.91,216.59,216.59,0,0,1,13.57-33.2,262.23,262.23,0,0,1,41.11-58.47A337.05,337.05,0,0,1,298.26,3.57a18,18,0,0,1,2.91-1.83,13.74,13.74,0,0,1-2.41,1.9,330,330,0,0,0-63.27,58.09l.09-.08c.83-.83,1.12-.87.4.19a37,37,0,0,1-2.85,3.48c-.93,1-1,.75-.43-.17-16.77,20.9-30.61,44.39-39.58,69.72a209.7,209.7,0,0,0-9.64,38.92,229.3,229.3,0,0,0-2.13,39.63,232.5,232.5,0,0,1,2.57-36.6,213.33,213.33,0,0,1,8.61-35.69,236.83,236.83,0,0,1,34.1-64.34c1.44-2.23,3-4.38,4.46-6.57s3.08-4.33,4.72-6.46a21.22,21.22,0,0,1,2.7-2.92c.37-.22-.17.72-1.09,1.9s-1.81,2.35-2.67,3.55c5.78-7.12,11.06-11.88,11.59-11.21.33,1-4.25,7.28-10,14.73-15.15,20.12-27.74,42.13-36.29,65.7-.86,2.57-1.65,5.17-2.45,7.75-.59,2.68-1.28,5.3-1.77,8a226.06,226.06,0,0,1,23.44-53,294.86,294.86,0,0,1,34.56-46.31c2.17-2.49,4.26-4.39,4.51-4.26S257,50,254.84,52.46a288.09,288.09,0,0,0-29.21,41.33,233,233,0,0,0-20.48,45.92c-10.16,31.87-12.1,65.9-7.66,99.09a272.28,272.28,0,0,0,8.95,31.86c1.78,5.22,3.75,10.38,5.84,15.49s4.32,10.18,6.71,15.16c-.91-2.61-1.8-5.28-2.68-7.94a361.61,361.61,0,0,1-12.71-50.24q-2.17-12.42-3.28-24.75a230.89,230.89,0,0,1-1-24.64A215.28,215.28,0,0,1,201,169.17a195.25,195.25,0,0,1,24.41-72.12,10.25,10.25,0,0,1,2-2.85c.25-.06-.21,1.08-1.13,2.63a202.24,202.24,0,0,0-18.92,46.24l-.8,3-.69,3-.7,3c-.22,1-.39,2-.6,3-.38,2-.8,4-1.14,6s-.62,4-.93,6a241.26,241.26,0,0,0-2,24.57,245.7,245.7,0,0,0,11.09,78.46q-2.41-9.51-4.23-19.05t-3-19.08c-.85-6.37-1.35-12.74-1.75-19.11-.14-3.18-.33-6.37-.32-9.55,0-1.59-.07-3.19,0-4.78l.07-4.77c0-1.59.1-3.18.18-4.76l.24-4.77.42-4.76c.13-1.58.26-3.17.47-4.75.39-3.16.74-6.33,1.31-9.47.27-1.57.5-3.16.8-4.72l1-4.7c.6-3.14,1.45-6.24,2.21-9.37s1.72-6.22,2.76-9.3,2.09-6.15,3.18-9.23,2.35-6.11,3.69-9.12a30,30,0,0,1,2.76-5.42,3.4,3.4,0,0,1,.32-1.3,169.78,169.78,0,0,1,9.14-19.28A16.78,16.78,0,0,1,233,89.38C233.54,88.83,233.23,89.67,232.49,91.08ZM26.87,393.52a2.8,2.8,0,0,0-.14-.25l.61.59.57,1.47Zm-13.8-1.22h0l-.35-.88C12.86,391.79,13,392.07,13.07,392.3ZM183.5,536.77a98.92,98.92,0,0,1-37.56,11.46c-1.65.18-3.28.18-4.93.29s-3.28,0-4.92,0l-2.45-.16-1.23-.08c-.41,0-.72-.09-1.09-.14l-2.14-.28-2.1-.52a29.28,29.28,0,0,1-8.22-3.65,17.89,17.89,0,0,1-2-1.29L115,541c-1.18-1.09-2.47-2.07-3.57-3.28,1.09,1.17,2.36,2.11,3.53,3.15.62.48,1.26.91,1.88,1.36l.94.67,1,.57c.65.38,1.29.78,1.94,1.13l2,.94a15.09,15.09,0,0,0,2,.79,19.29,19.29,0,0,0,2,.65l1.6.37a7.85,7.85,0,0,0,1.59.31l1.6.21.8.1.93.06c1.24,0,2.46.17,3.7.19l3.71,0a90.4,90.4,0,0,0,14.76-1.67A105,105,0,0,0,183.5,536.77ZM20.08,385.43a16.91,16.91,0,0,1,2.11,3.4,12.24,12.24,0,0,1,2.33,1c2.05,1.14,4.06,2.15,5.95,3.44-.12-.49.34-.2.6-.11l.78.32c-1-.68-2-1.42-3-2.09s-2-1.34-3.07-2.05C23.9,388.06,21.82,386.76,20.08,385.43ZM4.34,380.37a2.1,2.1,0,0,0-.14-.24l.61-.52Zm-1,.91.28.22C3.47,381.72,3.39,381.58,3.37,381.28Zm2.62,2a1.81,1.81,0,0,0-.3-.53ZM2.21,403.59l2.09-3-2.15,2.89Z"/></g></g></svg>