<svg xmlns="http://www.w3.org/2000/svg" viewBox="0 0 395.59 385.68"><g id="Layer_2" data-name="Layer 2"><g id="Layer_1-2" data-name="Layer 1"><path d="M14.11,154.09l.26,0c0,.16-.16.27-.35.35,2.45,0,3.93-2.3,4.33-4.49a1.1,1.1,0,0,0-1.18-1.85,1.37,1.37,0,0,1-.44.06,8.48,8.48,0,0,0-3.68.26h.86a2.83,2.83,0,0,0-1,.39l.31.18a2.54,2.54,0,0,0,.26,5.07Z"/><path d="M18,155.54c-.78.11-1.57.18-2.36.25l-.23-.09.61.71,0-.06a4.46,4.46,0,0,1,1.24-2.62l.18-.31a.78.78,0,0,0-.06-.58.8.8,0,0,0-1.09-.34l-.45.25c-1.31.33-2.85,1.5-2.44,3.17.1.38.49.66.78,1A1.11,1.11,0,1,0,16,155.65l.33-.09-.06.33c-.19-.53.18-1,.34-1.46l.4-.5L15.8,153l-.14.35.15.08a9.88,9.88,0,0,1-.86,2l-.35.94a.69.69,0,0,0,.6.71h.49l-.25,0c.89-.28,1.74-.7,2.64-.95a.29.29,0,0,0,.21-.34A.28.28,0,0,0,18,155.54Z"/><path d="M15.63,157.59a.64.64,0,0,0-.5.13v.15l.37,0C15.76,157.91,15.76,157.74,15.63,157.59Z"/><path d="M15.13,157.87H15l.15.06v0Z"/><path d="M37,137.57a40,40,0,0,0,3.7-2s0-.1,0-.18-.13-.1-.16-.07c-1.2.72-2.42,1.4-3.7,2,0,0,0,.1,0,.17S37,137.59,37,137.57Z"/><path d="M50.62,138.2a.26.26,0,0,0,.14.18c.06,0,.1,0,.09-.08a.34.34,0,0,0-.14-.17C50.64,138.1,50.61,138.14,50.62,138.2Z"/><path d="M54.66,143.89a1.89,1.89,0,0,0-.12.74c0,.05,0,.06-.07.05a.44.44,0,0,1,.12.33,15.45,15.45,0,0,1-2,4.47,1.68,1.68,0,0,1,.15.3c.14.34.1.62-.11.69l-.18,0c-.63.23-1.24.49-1.88.71a.82.82,0,0,1-.17.51,12.6,12.6,0,0,1-.59,2,1,1,0,0,1,.26.24c.18.25.22.51.09.6l-.17.15c.22-.07.44-.15.67-.21a.16.16,0,0,1,.1,0,4.18,4.18,0,0,0,.57-.47,15.25,15.25,0,0,0,3.23-6c0-.06,0-.08.11,0a.29.29,0,0,1,.12.18c-.06,2,.31,4.3-.21,6a30.48,30.48,0,0,1-2.26,5.56c-1.46,1.13-2.35,2.77-3.5,4.36a18.59,18.59,0,0,1-1.21,1.51,1.71,1.71,0,0,1-.2.21l-.34.31-.67.62L45,167.84c-1.82,1.58-3.68,3.08-5.58,4.6a3.32,3.32,0,0,1-5.64-2.85l-.37.25-.69.26a2.84,2.84,0,0,1-2,0l-.86-.3c-1.41-.75-3-1.06-4.35-1.93l-.25-.52-.21-.06a2.85,2.85,0,0,1-1.58-.73l-.39-.57a6.72,6.72,0,0,1-.87-2.16,2.56,2.56,0,0,1-.43-.75,3.37,3.37,0,0,1-1.55-1.67.5.5,0,0,1-.37-.58.48.48,0,0,1,.13-.23h0a3.53,3.53,0,0,0-.47-.19,2,2,0,0,1-.28.08l-.82.33a2.21,2.21,0,0,1-.79-.12c-1.06-.75-1.06-.75-1.34-1.2a1.36,1.36,0,0,1,0-.17,4.41,4.41,0,0,1-.47.05,1.26,1.26,0,0,1-.24-.07c-.18-.22-.18-.22-.29-.27a1.69,1.69,0,0,1-.14-.16c-.06-.36-.06-.36-.12-.43a1.09,1.09,0,0,1,0-.19l.16-.3.79.32-.09-.26.29.21-.23-.21.28,0-.36-.07a1.91,1.91,0,0,0,.62-.35.78.78,0,0,0,.3-.29l-.11-.12c.5-.24.5-.24,1-.45l.22.08a.23.23,0,0,1,.14-.24l.25-.13,0-.07v0c0-.1.06-.17.09-.26l0-.05h0c.07-.18.16-.44.41-1.12a2.36,2.36,0,0,1,.46-.17l-.19,0c-.13,0-.24-.29-.29-.28a16.85,16.85,0,0,0-3.59,1.34.41.41,0,0,1-.59,0,.42.42,0,0,1,0-.59,9,9,0,0,1,6.43-5.1c.62-.3,1.24-.63,1.86-1l-.17,0,.55-.16.06,0-.63-.15-.31.06a26.82,26.82,0,0,1-4.53,1.63,24.46,24.46,0,0,1-2.51.55.38.38,0,0,1-.51-.14.36.36,0,0,1,.13-.49c1.85-1.88,4.4-3.45,7.11-3.38a2.14,2.14,0,0,1,1.32-.44h0l-.49-.15c.35-.14.71,0,1.06-.06l-.45-.38c1.61-.8,3-2.09,4.81-2.43a.49.49,0,0,1,.18-.08,8.89,8.89,0,0,1,.94-1.79l-.46.12a1.36,1.36,0,0,1,.51-.88,3.12,3.12,0,0,1,3.37.47,51.85,51.85,0,0,0,3.68-3.73c0-.07.19,0,.31.1s.16.29.11.36a16.07,16.07,0,0,1-2.26,3.23,14.41,14.41,0,0,0,2.91-1.46l.29-.31a.65.65,0,0,1,.37-.18,12.8,12.8,0,0,0,3-2.76,28.87,28.87,0,0,0,1.94-3.13,12.5,12.5,0,0,1,2.93-4.17c.14-.17.5-.05.78.28s.41.73.26.91c-1.91,3.18-3.6,6.55-6.59,8.6-.33.22-.65.43-1,.65l.11.13a2.16,2.16,0,0,1,.32.56,8.88,8.88,0,0,1,1.2-.58A6.59,6.59,0,0,1,43.79,137a8.94,8.94,0,0,1,2.71-.62c.66-.86,1.28-1.77,2-2.6,0-.05.08,0,.14,0s.1.14.08.18a13.19,13.19,0,0,1-.95,2.4,2.46,2.46,0,0,1,.75.68,2.15,2.15,0,0,1,.43.95l.42-.29c.09-.06.25,0,.37.17s.16.35.07.4l-1.7,1.21q-.78,1-1.62,2a3.3,3.3,0,0,1,.77.6h0l.29-.26a13.89,13.89,0,0,1,4.77-5.61s.11,0,.17.07.08.16,0,.18a11.39,11.39,0,0,0-1.73,1.36h0a.33.33,0,0,1,.14.18c0,.06,0,.1-.09.07a.26.26,0,0,1-.14-.17,14.62,14.62,0,0,0-2.53,3.34,17,17,0,0,1,3-2.26l.12-.51s.09,0,.15,0,.09.14.07.18l0,.14c.21-.12.59.07.88.45s.35.81.15.94A18,18,0,0,1,51,141.52l-.12.2,0,.3c.91-.47,1.85-.9,2.79-1.32.06-.06.21,0,.31.14s.14.28.07.34a27.85,27.85,0,0,1-3.34,4.42c0,.93,0,1.88-.07,2.82l.2-.13c1.54-1.19,1.58-3.84,2.81-5.34,0,0,.1,0,.15.05s.09.15,0,.18a17.2,17.2,0,0,0-1.2,2.82,15,15,0,0,0-.9,2.4c1-1,1.55-2.59,2.43-3.79,0-.06.1-.07.19,0a.38.38,0,0,1-.05-.12,2.41,2.41,0,0,1,.13-.78c0-.05.06-.05.13,0A.28.28,0,0,1,54.66,143.89Zm-30.49,11-.12,0h.3l.69.33Zm-1.87,4.64h0l-.39-.19ZM36,141.36a4.53,4.53,0,0,1-2.15.9l.36-.42A16.16,16.16,0,0,1,36,141.36ZM20.29,154.64a6.33,6.33,0,0,1,1.54.39,2.33,2.33,0,0,1,.57-.56,19.71,19.71,0,0,1,1.86-1.1c-.22-.13-.07-.21,0-.29l.17-.21c-.69.33-1.4.63-2.13.94A16.4,16.4,0,0,1,20.29,154.64Zm-3.55,3.93-.11,0-.11-.37Zm.2.62.11,0C17.11,159.29,17.05,159.27,16.94,159.19Zm1-.24a.71.71,0,0,0-.23-.07Zm7.07,8-.81-1.66.74,1.63Z"/><path d="M9.18,240.46l.45.67a2.83,2.83,0,0,1-1.52-.77,25.67,25.67,0,0,0,4.26,4.08,39.51,39.51,0,0,0,4.89,3,36.3,36.3,0,0,0,5,2.16,41.52,41.52,0,0,0,4.64,1.52c1.69,1.29,3.48,2,4,1.35s-.4-2.44-2.12-3.91a11.77,11.77,0,0,1-1-1.19,47.85,47.85,0,0,0-3.49-5c-1.34-1.63-2.81-3.39-4.44-5.15.58.8,1.17,1.64,1.74,2.44a22.56,22.56,0,0,0-2.95-2.91c.06.26.14.57.2.83a22.6,22.6,0,0,0-5.51-5,8.91,8.91,0,0,0-5.52-1.62c-3.06.47-3,4.31,0,7.92Z"/><path d="M13.6,250.28c-1.8-1.74-3.52-3.6-5.25-5.52l-.28-.59-.38,1.76.07-.09a8.77,8.77,0,0,1,4,.47A29.7,29.7,0,0,1,16.16,248l1.07.41a1.22,1.22,0,0,0,1.18-.2c.49-.55-.13-1.78-1.4-2.78-.48-.39-1-.75-1.45-1.11a33.69,33.69,0,0,0-2.9-2.41,20.69,20.69,0,0,0-3.33-2.12c-2.24-1.08-4.42-1.61-5.88-.67-.66.43-.5,1.58-.62,2.46-.47,1.13.63,2.92,2.44,3.95s3.63,1,4.1,0l.87.77-.86,0c.82-.65,2.55.13,3.95.37l1.94.84-.23-3L14,244.24c0,.15.13.39.12.39-2.07-.44-4-.91-6.2-1.57L5,242.61c-.84.12-1,.95-.37,1.83l1,1.18L5.22,245c1.22,1,2.48,1.87,3.73,2.86s2.5,1.92,3.67,2.88a1.32,1.32,0,0,0,1.18.37C14.06,251,14,250.62,13.6,250.28Z"/><path d="M4.36,245.74A3.51,3.51,0,0,0,3,244.61l-.32.09.7.9C3.91,246.24,4.29,246.14,4.36,245.74Z"/><path d="M2.72,244.7l-.28-.38.15.38c.07,0,.08,0,.08,0Z"/><path d="M134.75,293.39c-.8-2.83-1.7-5.73-2.75-8.74-.27-.76-.52-1.51-.81-2.27l-.91-2.44c-.62-1.72-1.29-3.41-2-5.08-2.72-6.7-5.73-12.9-9-19.34l-5.2-10.23-1.42-2.8-1.44-3-1.5-3.09-.8-1.66-.91-2c-1.11-2.51-2.09-4.87-3-7.24s-1.79-4.7-2.61-7c-1.65-4.69-3.12-9.38-4.46-14.12-.35-1.27-.84-2.28-1.12-2.26s-.19,1,.16,2.23q2,7.13,4.43,14.17c1.65,4.73,3.42,9.35,5.61,14.33l.89,2,.83,1.76,1.5,3.11,1.45,3c.47,1,1,1.9,1.42,2.81l5.18,10.2c3.25,6.4,6.25,12.53,9,19.17,1.33,3.24,2.69,6.93,3.71,9.73q1.58,4.47,2.78,8.65c.25.75.6,1.34.85,1.42S135,294.11,134.75,293.39Z"/><path d="M147.57,48.52c-.41.73-.23.81.4.22a11,11,0,0,0,1.77-2.24c.34-.61.15-.73-.39-.22A11.06,11.06,0,0,0,147.57,48.52Z"/><path d="M155.2,62.75a84.73,84.73,0,0,0-5.14,11.47,9,9,0,0,1-.9,1.87c.39-.08.29.83-.25,2.33-1.44,3.65-2.48,7.45-3.67,11.18-.51,1.89-.94,3.81-1.43,5.7-.24,1-.5,1.88-.71,2.84l-.54,2.88c-.33,1.92-.76,3.81-1,5.74s-.59,3.82-.74,5.77l-.29,2.89c-.1,1-.14,2-.21,2.91-.15,1.94-.2,3.89-.26,5.83a167.12,167.12,0,0,0,5.75,46.59,2.93,2.93,0,0,1,1.23,1.11c1.51,1.91,2.95,6,4,10.37l.67,3.33A164.48,164.48,0,0,0,157.75,205c.59,1.53,1.21,3.06,1.78,4.4l.47,1,.56,1.22,1.16,2.51c1.6,3.39,3.26,7,4.92,10.83a65.31,65.31,0,0,1,5.66,10.45,169.85,169.85,0,0,1,8.94,20.77c.61,1.77,1.24,3.56,1.82,5.35l.84,2.69c.28.89.57,1.77.84,2.77a111.75,111.75,0,0,1,2.79,12c.13-1.11.35-1.81.7-1.87.86.15,2,4,2.18,8.71.13,2.39.19,4.8.14,7.22a118.11,118.11,0,0,0-.84-20.46c-.14-.95-.24-1.84-.32-2.64q-.48-2.67-1-5.3c-.37-1.63-.75-3.27-1.12-4.91s-.85-3.29-1.27-4.94l-1.41-5a165.26,165.26,0,0,0-7.94-21.17c-3.07-6.71-6.47-12.91-9.49-18.14-.69-1.23-1.39-2.45-2.09-3.68-.53-.9-1.14-2-1.72-3.18-1.19-2.29-2.35-4.72-3.46-7.18-2.23-4.93-4.23-10-6-15.18A200.8,200.8,0,0,1,145.58,150a150.63,150.63,0,0,1-2.35-31.92,5.2,5.2,0,0,1,.4-2.36c.26-.37.51-.24.5.54a107.61,107.61,0,0,0,2.2,19.61,164.69,164.69,0,0,0,4.94,18.5c1,3,2.09,6.07,3.19,9.12s2.37,6.1,3.64,9.19q3.81,9.25,8.56,18.95c.94,1.91,1.92,3.79,2.92,5.59s2,3.56,3,5c.23.36.46.7.64.93.27.39.61.94.9,1.41l1.93,3c1.38,2.14,2.71,4.38,4.15,6.84s2.82,5,4.24,7.69,2.72,5.49,4,8.35a176.7,176.7,0,0,1,6.64,17.64c1,3,1.82,6,2.65,8.94l1.17,4.46c.4,1.61.81,3.28,1.17,5a111.72,111.72,0,0,1,2.65,21.36,109.57,109.57,0,0,1-1.93,23.18c-.39,2-.81,3.94-1.32,5.91-.26,1-.5,1.94-.8,3l-1,3.09a92.07,92.07,0,0,1-4.78,11.88A91.46,91.46,0,0,1,178,355.49a97.13,97.13,0,0,1-18.1,14.63A104.32,104.32,0,0,1,120,384.77a80.43,80.43,0,0,1-20.8.42,72.67,72.67,0,0,1-10.31-1.88c-1.71-.47-3.39-.93-5.06-1.54l-1.24-.42-.63-.22-.77-.29c-1-.39-2-.78-3-1.21s-1.9-1-2.83-1.49-1.76-1.14-2.63-1.7a26.51,26.51,0,0,1-2.43-1.82l-1.16-1c-.37-.32-.71-.67-1.06-1A44.91,44.91,0,0,1,61.12,364a71,71,0,0,1-7.93-18.22c-.61-2.06-1.12-4.23-1.55-6.22s-.88-4-1.31-6c-.86-4-1.69-8.05-2.62-12a75.92,75.92,0,0,0-3.25-11,34.39,34.39,0,0,0-4.84-8c-.49-.48-.9-1-1.4-1.41l-.94-.82c-.23-.2-.52-.37-.77-.56a13.29,13.29,0,0,0-1.57-1,32,32,0,0,0-3.35-1.72l-1.78-.71c-.61-.22-1.27-.42-1.88-.62s-1.25-.38-1.91-.54-1.28-.33-2-.47c-1.42-.25-2.66-.56-4.16-.7l-2.13-.25-2.25-.16a14.05,14.05,0,0,1-1.63-.09c-.54-.05-1.07-.11-1.55-.2a9.25,9.25,0,0,1-2.51-.82c-1.46-.67-2.22-1.79-2-3.11.3-1.61,2-3.07,4.43-3.78l-1.17-.18-1.73-.54a8.47,8.47,0,0,1-1.14-.47,6.77,6.77,0,0,1-1-.54,4.33,4.33,0,0,1-1.39-1.41l-.9-1.36a23,23,0,0,0-2.06-3.8A14.3,14.3,0,0,1,1,273.15l.66-.94-.27-.37A4.56,4.56,0,0,1,0,268.59l.5-1.25a9.27,9.27,0,0,1,3.05-3.55,3,3,0,0,1,.81-1.41,4.24,4.24,0,0,1,.69-4.26c-.39-.57-.14-1.08.56-1.14a1.87,1.87,0,0,1,.76.11h0c-.18-.43-.23-.56-.49-1.08l-.73-.53c-1.27-.75-1.27-.75-2.37-1.44a7.14,7.14,0,0,1-1.3-1.78c-.45-2.86-.45-2.89,0-3.84a1.81,1.81,0,0,1,.29-.19c-.8-.77-.85-.84-1.06-1.06a3.08,3.08,0,0,1-.32-.62c.11-.59.11-.59,0-.87a1.72,1.72,0,0,1,.08-.45c.67-.38.67-.38.74-.55a1.27,1.27,0,0,1,.36-.16l1,.19c.86,2.07.87,2.08.87,2.08l.41-.35.11.79v-.67l.53.68-.57-.89a10.17,10.17,0,0,0,2,1.25,4.49,4.49,0,0,0,1.25.53,1.23,1.23,0,0,1,0-.33c1.53,1.05,1.53,1.08,3,2.14.1.2.18.38.25.55a1,1,0,0,1,.81.21l.79.52h.2v0l.77.12.16,0h0c.52.07,1.29.21,3.32.67.45.34.87.68,1.25,1-.11-.15-.21-.29-.31-.45s.2-.59.08-.71c-.76-.74-1.55-1.47-2.37-2.18s-1.66-1.35-2.52-2c-1.72-1.29-3.51-2.74-5.27-4-.68-.31-1.22-.95-1.2-1.43s.63-.58,1.33-.25a27.77,27.77,0,0,1,6.35,2.17,39.55,39.55,0,0,1,6.33,3.65,65.87,65.87,0,0,1,11.33,9.84c.91.8,1.82,1.71,2.73,2.54s1.81,1.65,2.69,2.57l-.17-.39,1.29,1.53.15.15-.75-1.52-.66-.85c-1.05-1-2.07-2-3.07-3l-1.49-1.53c-.49-.49-1-1-1.48-1.48-1-1-2-2-2.95-3.07s-2-2-3.05-3-2.15-2.18-3.15-3.22-2-2.2-3.05-3.31c-.58-.47-.9-1.06-.71-1.34s.83-.09,1.4.38a74.39,74.39,0,0,1,11.81,9.15c.93.87,1.82,1.74,2.68,2.61s1.68,1.85,2.46,2.76,1.5,1.8,2.17,2.73,1.29,1.87,1.85,2.77a22.6,22.6,0,0,1,1.77,1.92,17.21,17.21,0,0,1,1.4,2l.05.06c-.17-.41-.32-.79-.48-1.2.86,1.08,1.11,1.91,1.84,2.92,0-.27.06-.57.08-.84,1,1.32,2.11,2.67,3.18,4s2.06,2.83,3,4.26a42,42,0,0,1,4.55,9.05L56,285a31.39,31.39,0,0,1,2,3.59,9.66,9.66,0,0,1,.43,1l.11.3.36,1.09a22.5,22.5,0,0,1,.63,2.21c.18.75.38,1.52.53,2.26s.25,1.46.38,2.2.2,1.49.3,2.24.17,1.51.21,2.28a59,59,0,0,0-.69-6.21c-.14-1-.43-2.14-.66-3.23-.11-.55-.27-1.08-.43-1.63l-.42-1.44.51,1.54a17.25,17.25,0,0,1,.49,1.74c.29,1.18.59,2.36.76,3.46s.38,2.22.5,3.36.22,2.25.29,3.37a113.76,113.76,0,0,1-.4,12.75,50.9,50.9,0,0,0,1.3,15.72c.33,1.26.65,2.53,1.07,3.76l.6,1.85.66,1.73a47.86,47.86,0,0,0,3.11,6.43,35.15,35.15,0,0,0,7.67,9.31,24.17,24.17,0,0,0,6.83,4l.65.15c.22,0,.45,0,.66.07.45,0,.86.12,1.29.1s.85,0,1.26,0l1.61-.07a46.65,46.65,0,0,0,6.56-.81c1.09-.24,2.15-.42,3.22-.74l1.59-.42,1.58-.51c1-.3,2.08-.72,3.11-1.08s2-.82,3-1.25a61.45,61.45,0,0,0,11.25-6.52,54.49,54.49,0,0,0,9.24-8.59,48.9,48.9,0,0,0,6.63-9.8,41.16,41.16,0,0,0,3.54-10.07,31.25,31.25,0,0,0,.49-9.36l-.11-1.1-.15-1.23c-.11-.82-.22-1.63-.39-2.46-.29-1.64-.72-3.3-1.17-5a9.32,9.32,0,0,1-.34-1.87,1.43,1.43,0,0,1,.24-1.06c.39-.18,1.07.74,1.48,2.17a55.46,55.46,0,0,1,1.78,7.39,42,42,0,0,1,.6,7,37.42,37.42,0,0,1-3.56,14.84c-4.67,10.1-14.06,19.81-25.72,25.48a60.81,60.81,0,0,0,24.13-19.7,47,47,0,0,0,6.46-12.69,36.82,36.82,0,0,0,1.51-6.42c.2-1.05.23-2.13.34-3.17l0-1.57,0-.78v-.86a52.35,52.35,0,0,0-.81-7c-.41-2.38-.82-4.74-1.22-7.1-.77-3-1.65-6.11-2.68-9.22-.54-1.55-1-3.12-1.64-4.69l-1.92-5.06q-2-5.09-4.26-9.92c-1.51-3.23-3.07-6.39-4.71-9.56-3.28-6.36-7-12.71-11.12-20.69l-.79-1.51-.86-1.67c-.61-1.25-1.18-2.42-1.71-3.57-1.07-2.31-2.07-4.56-3-6.82-1.91-4.52-3.66-9.06-5.3-13.68q-2.08-5.93-3.83-11.77c-1.13-3.92-2.2-7.81-3.1-11.72S94.3,176.93,93.58,173c-.34-2-.63-3.94-1-5.91s-.5-4-.72-6c-.41-4-.74-8-.92-12s-.19-8.14,0-12.28a155.48,155.48,0,0,1,7.53-43.17c1-2.85,2.09-5.67,3.15-8.47l.8-2.1.91-2c.61-1.34,1.22-2.69,1.84-4a156,156,0,0,1,18-29.32A171.13,171.13,0,0,1,172.88,4.93c2.53-1.46,5.08-2.7,7.07-3.6a14.27,14.27,0,0,1,4-1.33c.92.07-2.53,2.28-7.47,5.25A176.81,176.81,0,0,0,126,51.6l-2.56,3.64c-.83,1.22-1.72,2.41-2.48,3.69-1.57,2.54-3.17,5.07-4.7,7.65l-4.24,8c-1.35,2.72-2.56,5.52-3.79,8.31l-.92,2.1-.8,2.16-1.6,4.33c-.51,1.45-1.09,2.87-1.53,4.36L102,100.28c-.46,1.48-.79,3-1.19,4.49s-.77,3-1.07,4.51l-.94,4.54-.76,4.56A163.36,163.36,0,0,0,96.55,155q.63,9.11,2.12,18.06c1,6,2.24,11.87,3.73,17.71s3.22,11.63,5.18,17.36,4.11,11.42,6.64,17.2c.63,1.46,1.29,2.91,2,4.45l.57,1.19.52,1,1,2c1.31,2.55,2.58,5.05,3.84,7.38,2.48,4.73,4.77,9.08,6.93,13.47a207.72,207.72,0,0,1,9.78,23,.83.83,0,0,1,.4-.33c.62-.21,1.52.44,2.41,1.49-1.49-4.49-3.13-9.09-4.88-13.49s-3.63-8.78-5.61-13.17c-3.32-5.86-6.95-11.67-10.8-18.51L119,231.21l-.36-.66-.42-.78-.79-1.55c-1-2-1.94-3.95-2.82-5.9-1.77-3.89-3.38-7.79-4.85-11.75A170.68,170.68,0,0,1,98.88,160a145.35,145.35,0,0,1,.18-18.1c.18-3,.54-5.89.88-8.8.19-1.45.44-2.89.66-4.33s.47-2.87.76-4.29a144.29,144.29,0,0,1,10.42-32.63,155.9,155.9,0,0,1,19.47-37.39A173.7,173.7,0,0,1,158.84,23.9a10.13,10.13,0,0,1,2.1-1.59c.4-.15.05.33-.75,1.08a180.35,180.35,0,0,0-19.23,21A168.54,168.54,0,0,0,124.86,69c2.21-2.38,3.87-3.56,4.51-2.93s.15,3.08-1.14,6.47l3.37-5.65c.57-.93,1.1-1.89,1.71-2.8l1.82-2.72c1.53-2.22,3-3.8,3.3-3.5s-.53,2.25-1.93,4.36L134.68,65c-.59.93-1.13,1.89-1.69,2.84-1.11,1.91-2.26,3.8-3.34,5.74-2,4-4.14,7.85-5.82,12A141.89,141.89,0,0,0,115.32,111c-4.16,21.16-3.42,42.8.69,63.52.28-3,.89-5.29,1.82-6.45,0,0,0,0,0,0-.48-3.2-.89-6.39-1.21-9.59a146.86,146.86,0,0,1,.21-44.78,135.77,135.77,0,0,1,15-43l2.78-5,3-4.84c1-1.62,2-3.23,3.16-4.76l3.31-4.65A184.82,184.82,0,0,1,158.83,34,210.92,210.92,0,0,1,193.52,5.1,7.49,7.49,0,0,1,195.42,4a5.68,5.68,0,0,1-1.51,1.22,208,208,0,0,0-40.82,36l.06-.06c.57-.48.81-.46.37.22a12.35,12.35,0,0,1-1.87,2.17c-.65.56-.75.38-.39-.21C140.36,56.39,131.14,71.07,125,87.07c-1.67,3.94-2.79,8.08-4.1,12.14-.61,2.05-1.07,4.14-1.6,6.2s-.88,4.17-1.28,6.26a141,141,0,0,0-2.11,25.2,141.12,141.12,0,0,1,9-45.67,151.89,151.89,0,0,1,10.06-21c1.85-3.39,4-6.59,6.11-9.82,1-1.63,2.22-3.14,3.33-4.71s2.22-3.14,3.45-4.62c1.88-2.77,3.7-5.58,5.8-8.25a8.18,8.18,0,0,1,1.81-1.76c.27-.11,0,.52-.62,1.26s-1.12,1.5-1.69,2.25a44.22,44.22,0,0,1,5.15-5.19c1.45-1.16,2.47-1.71,2.76-1.39s-.36,1.64-1.47,3.33a61.09,61.09,0,0,1-4.52,6.22c-9.56,12.62-17.8,26.24-23.51,40.93l-1.67,4.83-1,5a153.84,153.84,0,0,1,15.74-32.75A200.93,200.93,0,0,1,166.76,36.9c1.39-1.53,2.75-2.68,3-2.52S169,36,167.67,37.5C154.18,53.82,143.23,72.29,136.76,92c-6.67,19.65-8.18,40.52-6.1,61a184.11,184.11,0,0,0,14.15,38.39c-.46-1.63-.92-3.28-1.39-4.93a279.09,279.09,0,0,1-7-30.82,176.93,176.93,0,0,1-2.53-30.16,131.49,131.49,0,0,1,1-15.07c.11-1.26.36-2.5.55-3.75s.37-2.52.67-3.76c.55-2.49,1.06-5,1.68-7.52a125.35,125.35,0,0,1,12.11-29.62,3.67,3.67,0,0,1,1.36-1.71c.23,0-.05.72-.6,1.7a122.09,122.09,0,0,0-11.48,28.75l-.5,1.81-.39,1.84-.76,3.66c-.56,2.42-.9,4.89-1.27,7.35-.62,5-1.05,9.93-1.19,15A147.05,147.05,0,0,0,141.85,172c-3.44-15.48-5.41-30.89-5-46.33.06-1.93.18-3.85.28-5.78s.28-3.86.54-5.77.45-3.86.81-5.76l.48-2.87c.19-1,.42-1.91.63-2.86q.66-2.87,1.31-5.75l1.71-5.69c.52-1.92,1.26-3.78,2-5.67l1.06-2.83.53-1.41.62-1.39a14.84,14.84,0,0,1,1.79-3.29,1.54,1.54,0,0,1,.11-.85,57.08,57.08,0,0,1,2.36-6l1.37-3.09c.49-1,1-2,1.57-3.07a6.64,6.64,0,0,1,1.44-2C155.75,61.3,155.62,61.86,155.2,62.75ZM26.74,264l-.13-.24.57.63.52,1.43Zm-13.67-2.86h0l-.35-.87Zm115,82a60.33,60.33,0,0,1-19.34,12.54,56.58,56.58,0,0,1-22.79,4.38,48.71,48.71,0,0,0,11.3-1.34A66.38,66.38,0,0,0,128.07,343.18ZM20.15,255.44A20.19,20.19,0,0,1,22.21,259a15.51,15.51,0,0,1,2.31,1.21c1,.72,2,1.42,2.95,2.11s1.91,1.39,2.82,2.17c-.09-.47.35-.11.6,0l.75.45c-1.9-1.73-3.88-3.27-5.89-5C23.94,258.41,21.87,257,20.15,255.44ZM4.39,248.89l-.14-.26.61-.47Zm-1,.84.29.24C3.51,250.17,3.44,250,3.41,249.73Zm2.64,2.15a2.42,2.42,0,0,0-.3-.53ZM2.17,271.52c.69-1,1.39-1.94,2.09-2.89-.72.9-1.44,1.81-2.15,2.75Z"/><path d="M251.46,130.64c-.14.1-.28.2-.41.31a.75.75,0,0,1-.05-.88,6.11,6.11,0,0,0-1.82,5.61,10.52,10.52,0,0,0,2.93,5.24,1.81,1.81,0,0,0,1.89,2,2.36,2.36,0,0,0,2.45-1.77,3,3,0,0,1,.48-.67,17.18,17.18,0,0,0,4.43-5.13l-1.14,1.11a4.59,4.59,0,0,0,.73-1.71l-.69.2a3.59,3.59,0,0,0-.62-5.85,6,6,0,0,0-7.32.68Z"/><path d="M244,134.26c.9-1.25,1.86-2.43,2.85-3.58l.44-.22h-1.9l.12,0c1.51,1.2,1.95,3.05,2.3,4.75l.25.61a1.56,1.56,0,0,0,1,.55,1.68,1.68,0,0,0,1.93-1.14,8.93,8.93,0,0,1,.23-.89c1.29-2.15,1.67-5.45-1.44-6.88a6.55,6.55,0,0,0-2.56-.15,2.25,2.25,0,0,0-2.59,1.74,2,2,0,0,0,1.94,2.26l-.31.56-.41-.47c1.06.36,1.22,1.38,1.73,2.15l.21,1.13,3-.58-.33-.58c-.13,0-.32.12-.33.11a16.21,16.21,0,0,1-1.8-3.42l-.94-1.59a1.55,1.55,0,0,0-1.91,0l-.68.65.39-.29c-.78,1.56-1.31,3.24-2.13,4.83a.48.48,0,0,0,.22.7A.63.63,0,0,0,244,134.26Z"/><path d="M244.06,128.57c.25-.24.51-.48.48-.85l-.22-.18-.54.48C243.39,128.37,243.65,128.57,244.06,128.57Z"/><path d="M244.32,127.54l.23-.19-.29.12s0,0,0,0Z"/><path d="M285.16,250.35c1,1.56,2.15,3,3.22,4.5s2.16,3,3.33,4.45c2.35,2.86,4.62,5.83,7.15,8.57,1.25,1.39,2.47,2.82,3.74,4.19l3.91,4c.66.67,1.3,1.36,2,2l2,1.94,4.09,3.9c.38.33.76.54.86.46s-.14-.41-.5-.71a211.84,211.84,0,0,1-15.68-16.06c-2.52-2.74-4.78-5.68-7.11-8.55-1.18-1.42-2.21-3-3.32-4.43l-1.63-2.22c-.55-.74-1.08-1.49-1.58-2.26-.28-.41-.59-.67-.73-.65S284.91,250,285.16,250.35Z"/><path d="M367.33,330.07c-.37-.09-.4,0-.08.24a4.19,4.19,0,0,0,1.19.55c.31.07.35-.05.07-.25A4,4,0,0,0,367.33,330.07Z"/><path d="M360.91,335.89c-1.08-.39-2.13-.76-3.15-1.1s-2-.71-2.92-1a4.61,4.61,0,0,1-1-.47c.05.21-.41.16-1.19-.13-3.86-1.37-7.67-3.05-11.57-4.73-1.95-.82-3.84-1.79-5.78-2.71s-3.9-1.83-5.79-2.88l-5.76-3.06c-1.93-1-3.79-2.18-5.7-3.26-3.83-2.15-7.5-4.58-11.24-6.89a1.64,1.64,0,0,1-.88-.06,18.21,18.21,0,0,1-5.38-3.2l-1.46-1.24c-1.53-1.19-2.95-2.51-4.43-3.76s-2.93-2.53-4.37-3.81l-4.23-4c-1.41-1.33-2.82-2.64-4.14-4.05a44.43,44.43,0,0,1-4.25-3.4c-1.35-1-2.64-2.11-3.93-3.21l-3.89-3.31c-1.32-1.09-2.55-2.29-3.81-3.46l-3.78-3.59c.18.42.22.74.06.86-.45.2-1.84-.74-3-2.23l-1.86-2.18,2.5,3.27c.85,1.08,1.73,2.11,2.6,3.17.25.3.48.59.67.86l3,3.35c1,1.11,2.15,2.16,3.24,3.25a205.76,205.76,0,0,0,30.26,24.54,255.36,255.36,0,0,0,32.33,18.22,4,4,0,0,1,1.18.69c.16.19.06.28-.36.11-14.32-5.8-27.27-10.82-42.33-20.75a232.69,232.69,0,0,1-25.77-19.62,225.64,225.64,0,0,1-23.55-23.81,336.09,336.09,0,0,1-19.66-29.06c-1.45-2.53-3-5-4.41-7.62s-2.79-5.23-4.19-7.87-2.62-5.42-3.94-8.18c-.33-.7-.67-1.39-1-2.09s-.6-1.42-.91-2.13l-1.81-4.32c-.41-1-.82-2-1.22-2.94s-.74-2-1.11-3l-2.14-6-.53-1.49-.46-1.52-.92-3c-.61-2-1.22-4-1.8-6.07l-.38-1.53-.19-.77-.08-.29-.31-1.06-.61-2.13c-.38-1.42-.76-2.83-1.15-4.25a165.49,165.49,0,0,1-3-17.45,8.56,8.56,0,0,1,.71-6.07,6,6,0,0,1,4.22-3.18,6.44,6.44,0,0,1,5.84,2.31v-1l.36-1.65a6.08,6.08,0,0,1,2.43-3.71l1.5-1.12c2.84-1.47,5.43-3.79,8.53-4.84l1.16.3.34-.26a5.55,5.55,0,0,1,3.22-1.59l1.41.16a14.17,14.17,0,0,1,4.5,1.52,5,5,0,0,1,1.73.3,7,7,0,0,1,4.65-.21,1,1,0,0,1,1.38.18,1,1,0,0,1,.19.48h0a7.79,7.79,0,0,0,.91-.46,5.18,5.18,0,0,1,.25-.52c.3-.88.3-.88.59-1.63a4.52,4.52,0,0,1,1.25-1c2.58-.57,2.59-.56,3.67-.39a2.85,2.85,0,0,1,.3.16c.4-.54.44-.58.56-.73a3.22,3.22,0,0,1,.44-.24c.59,0,.59,0,.81-.06a2.3,2.3,0,0,1,.45,0c.63.36.63.35.81.38a1.82,1.82,0,0,1,.31.19l.27.59-1.58.69.51.2-.71.14.64-.06-.41.37.59-.42a3.45,3.45,0,0,0-.31,1.3,1.45,1.45,0,0,0,0,.77,1.82,1.82,0,0,1,.35,0c-.32,1-.32,1-.67,2a4.39,4.39,0,0,1-.44.21.41.41,0,0,1,.19.49l-.15.51a1,1,0,0,0,.08.11h.05c.1.18.18.3.26.44l.07.09h0c.17.3.46.74,1.22,1.89a4.43,4.43,0,0,1-.32.84l.29-.24c.21-.16.76,0,.81-.1a44.51,44.51,0,0,0,2.75-6.58.81.81,0,0,1,.8-.8.8.8,0,0,1,.88.69,13.44,13.44,0,0,1,1.6,7.26,15.26,15.26,0,0,1-.67,3.73,16.35,16.35,0,0,1-.66,1.85c-.22.61-.47,1.21-.75,1.81-.26,1.24-.48,2.49-.69,3.75l.27-.2-.4,1a.52.52,0,0,0,0,.11l1-.8.28-.53a17.22,17.22,0,0,1,1.18-4.19c.51-1.37,1.29-2.7,1.82-4.06a35.46,35.46,0,0,1,2.41-4,.74.74,0,0,1,.85-.53.62.62,0,0,1,.6.7,18.87,18.87,0,0,1-.49,6.9,14.73,14.73,0,0,1-3.16,6.52,4.17,4.17,0,0,1-.82,2.41v0l.78-.59c-.16.64-.81,1-1.06,1.65l1.1-.32c-.49,3.18,0,6.51-1.2,9.66,0,.12,0,.24-.06.35a16,16,0,0,1,1.25,1.75c.09.15.18.3.26.46a.81.81,0,0,1,.06.13l.08.36c0,.24.1.48.16.72.17,1,.46,2,.64,3l-.18-2.16-.06-2.12c.39,1.48.78,3,1.18,4.45a47.7,47.7,0,0,1,.93,4.73c.82,4.42,1.35,9.22,1.81,13.59.09,1.1.16,2.17.2,3.21s.14,2,.16,3a26.46,26.46,0,0,1-.28,5,201.22,201.22,0,0,0,11,24.9,182.5,182.5,0,0,0,14.65,23.06,2.92,2.92,0,0,1,.8,1.85c-.14.24-.71-.11-1.29-.86-2.15-2.49-4-5.2-6-7.85-1-1.31-1.9-2.71-2.82-4.09l-2.75-4.16c-.88-1.41-1.71-2.86-2.57-4.29s-1.74-2.84-2.5-4.33l-2.34-4.43-1.17-2.21-1.07-2.27a159.74,159.74,0,0,0,15.55,30.35c.85,1.21,1.67,2.45,2.6,3.61a40.83,40.83,0,0,1,2.47,3.64l1.63,2.25c.58.72,1.15,1.45,1.72,2.17q1.72,2.16,3.42,4.32c1.18,1.41,2.39,2.78,3.59,4.17s2.37,2.78,3.66,4.09,2.53,2.66,3.81,4,2.65,2.58,4,3.88,2.68,2.6,4.13,3.82l4.33,3.71c1.24,1.08,2.52,2.06,3.78,3.05l3.73,2.91c2.49,1.9,5,3.65,7.5,5.46s5.12,3.42,7.72,5.16,5.36,3.32,8.18,5c8,4.65,15.81,8.65,23.71,12.49s16,7.27,24.47,10.79c2.28.84,4.28,2,4.4,2.51s-1.66.28-4-.56c-9-3.24-17.91-6.82-26.59-10.84a279.49,279.49,0,0,1-25.32-13.51A216.09,216.09,0,0,1,316,289.78a182.29,182.29,0,0,1-21.49-20.08c-1.49-1.54-2.81-3.2-4.19-4.78s-2.77-3.16-4-4.83a.55.55,0,0,1-.14.25c-.27.24-.77.15-1.4-.19.74.93,1.44,1.9,2.21,2.82l2.3,2.76c1.54,1.85,3,3.75,4.68,5.54,9.75,9.28,20.18,17.79,31.49,26.76,7.81,6.1,15,11.59,22.7,16.81a300.23,300.23,0,0,0,31.93,15,2.75,2.75,0,0,1,1,.53c.13.15-.14.14-.6,0-1.93-.66-3.85-1.39-5.8-2.1l-2.92-1.08c-1-.38-1.92-.79-2.89-1.18L363,323.59,357.27,321c1,.9,1.57,1.63,1.28,2s-1.41.27-3-.19l5.16,2.67c1.05.57,1.83,1.12,1.71,1.31s-1.08,0-2.09-.55c-3.52-1.82-7.07-3.57-10.5-5.54-1.73-1-3.47-1.9-5.17-2.91l-5.08-3.05a250.22,250.22,0,0,1-23.89-15.39,6.35,6.35,0,0,1,1.45,2.67h0l3.58,2.6a365.87,365.87,0,0,0,73.9,35.72c.51.18.91.4.89.5s-.44,0-.9-.15c-3.94-1.45-7.91-2.8-11.79-4.37-1.94-.78-3.91-1.48-5.83-2.31l-5.77-2.41h0c.28.19.29.32-.07.25a4.78,4.78,0,0,1-1.21-.51c-.33-.22-.25-.31.06-.25a377.58,377.58,0,0,1-41.15-21,328.58,328.58,0,0,0,37.22,20.55c1.46.52,2.89,1.09,4.39,1.57a3,3,0,0,1,1,.57c.08.13-.25.1-.67,0l-1.23-.42c2.45,1.09,4.2,2.28,4,2.75s-2.65-.07-5.23-1.17c-6.91-3-13.74-6.09-20.35-9.64l-2.2-1.06-2.29-.91a286.64,286.64,0,0,0,31.26,15.64c.93.37,1.66.83,1.61,1s-.85,0-1.78-.35A265.36,265.36,0,0,1,346,326.53a250.55,250.55,0,0,1-27.35-15.48c-3.15-1.52-6.22-3.21-9.39-4.82s-6.21-3.46-9.36-5.27c.68.59,1.42,1.13,2.14,1.69,2.32,1.74,4.57,3.48,6.9,5s4.65,3.05,6.95,4.5,4.69,2.72,7,4,4.71,2.49,7.05,3.72c9.43,4.78,19,9,29.07,13.4a1.93,1.93,0,0,1,.93.58c0,.11-.37.05-.89-.18-9.92-4.22-19.08-8.05-28.72-13l-5.89-3.1c-1.93-1.05-3.8-2.15-5.69-3.2L316,312.88c-.94-.53-1.84-1.09-2.76-1.63L307.74,308l5.32,3.56c.89.58,1.77,1.18,2.67,1.73l2.71,1.63c1.82,1.08,3.61,2.16,5.43,3.21l5.51,3,2.75,1.48,2.8,1.4,5.58,2.8,5.67,2.64,2.84,1.34,2.88,1.26a7.89,7.89,0,0,1,1.7.93.86.86,0,0,1,.44.05c2,.66,4.15,1.48,6.36,2.24a3.09,3.09,0,0,1,1.1.6C361.68,336.06,361.39,336,360.91,335.89ZM237.22,144.31l.19-.14-.32.49-1.33.73ZM232.16,136h0l.78-.39Zm32.43,88.5c-1.73-3.68-3.57-7.27-4.93-11.06-.7-1.89-1.47-3.73-2.05-5.65s-1.14-3.84-1.67-5.76c.74,1.78,1.49,3.56,2.23,5.35.93,2.87,2,5.69,3,8.58S263.46,221.59,264.59,224.47Zm-22.16-85.78a13,13,0,0,1-2.54,1.88,3.81,3.81,0,0,1,.16,1.5c-.16,1.39-.22,2.74-.44,4.08.47-.19.42.13.49.29l.13.49c.3-1.44.59-2.87,1-4.31A29.26,29.26,0,0,1,242.43,138.69Zm-1.38-9.77.19-.11.72.3Zm-1.22-.48-.12.2C239.44,128.55,239.55,128.49,239.83,128.44Zm-1.06,1.81a1.8,1.8,0,0,0,.42-.24Zm-21.72.56,3.65.94-3.5-1Z"/><path d="M252.53,277.37l-.49-.27a1,1,0,0,1,.93-.38c-4.81-1.87-9.21,1.34-11.39,5a2,2,0,0,0-1.61,2.49,2.43,2.43,0,0,0,2.73,1.7,3.2,3.2,0,0,1,.9.21,20.75,20.75,0,0,0,7.34,2.38l-1.67-.69a6.35,6.35,0,0,0,2.21.1l-.47-.58c2.78,1,5.63-.26,6.4-2.88a5.59,5.59,0,0,0-3.62-6.62Z"/><path d="M246,271.77c1.62.37,3.2.81,4.78,1.29l.4.33-.71-1.79v.13c-.69,1.86-2.47,3-4.15,4l-.57.45a1.47,1.47,0,0,0-.24,1.12,1.77,1.77,0,0,0,1.91,1.43l1-.11c2.77.36,6.56-.55,6.84-4a6,6,0,0,0-.87-2.46,2.44,2.44,0,0,0-2.82-1.77A2.13,2.13,0,0,0,250,273l-.7-.07.33-.57c0,1.14-1,1.69-1.61,2.47l-1.12.63,1.67,2.57.51-.54c-.09-.11-.25-.25-.24-.27a19.35,19.35,0,0,1,3-3l1.31-1.48a1.46,1.46,0,0,0-.71-1.8l-1-.4.46.27c-1.94-.16-3.87,0-5.8-.15a.55.55,0,0,0-.64.47A.6.6,0,0,0,246,271.77Z"/><path d="M251.87,269.64a1.34,1.34,0,0,0,1.07.12l.09-.27-.71-.33C251.82,268.92,251.71,269.25,251.87,269.64Z"/><path d="M253,269.49l.3.14-.24-.23,0,0Z"/><path d="M159.16,308.83c-8.68,3.42-17.24,7.23-25.67,11.31-.29.14-.48.33-.43.44s.31.08.57-.05c8.45-4.06,17-7.82,25.64-11.23.29-.12.48-.31.46-.44S159.43,308.73,159.16,308.83Z"/><path d="M91.86,333.12c.14-.19.08-.26-.16-.19a1.61,1.61,0,0,0-.65.43c-.12.16,0,.25.16.19A1.68,1.68,0,0,0,91.86,333.12Z"/><path d="M89.29,325.72A31.57,31.57,0,0,0,92,323.06a1.74,1.74,0,0,1,.52-.36c-.15-.08,0-.35.34-.69,7-6.67,15.21-13.06,23.29-19.39a1.07,1.07,0,0,1,.13-.61,6.78,6.78,0,0,1,2.68-2.52l1-.51c3.88-2.24,7.76-4.47,11.7-6.56a15.63,15.63,0,0,1,2.44-2c3-2.57,6-5.15,9.16-7.62a.63.63,0,0,1-.59-.25c-.15-.44.48-1.22,1.4-1.77l1.38-.87L141.31,282a3.52,3.52,0,0,1-.57.26c-1.46.88-2.92,1.79-4.38,2.77-6.4,4.25-12.36,8.75-18.06,13.36s-11.17,9.31-16.53,14.06a1.57,1.57,0,0,1-.67.43c-.16,0-.21-.11,0-.3,6.3-6.68,11.31-13.35,19-20.3,9.23-8.25,18.59-16.23,28.73-24,11.18-7,21.19-14.3,32.64-21.82,4.25-2.77,8.48-5.43,12.73-7.94,6.63-4.22,13.35-7.85,20.33-11.41,3.44-2.25,7.68-1.44,9.4,1.77a6.88,6.88,0,0,1-.07,6.29l.9-.35,1.55-.21a5.56,5.56,0,0,1,4.07,1.07l1.5,1c2.3,2.23,5.25,3.73,7.35,6.27l.15,1.2.37.23a5.71,5.71,0,0,1,2.64,2.43l.39,1.38a14.23,14.23,0,0,1,.26,4.81,5,5,0,0,1,.35,1.74,7,7,0,0,1,1.93,4.29,1,1,0,0,1,.35,1.37,1.08,1.08,0,0,1-.41.36h0c.31.29.41.37.79.68.38,0,.61,0,.61,0,1-.05,1-.05,1.84-.06a4.75,4.75,0,0,1,1.48.8c1.58,2.21,1.58,2.22,1.82,3.3a2,2,0,0,1,0,.35,8.05,8.05,0,0,1,1,.25,2.84,2.84,0,0,1,.42.32c.22.56.22.56.39.74a2.51,2.51,0,0,1,.17.42c-.11.73-.11.73-.06.91a1.78,1.78,0,0,1-.08.36l-.5.47-1.34-1.22v.55l-.43-.61.32.58-.55-.25.67.4a3.78,3.78,0,0,0-1.46.2,1.72,1.72,0,0,0-.78.32,2.39,2.39,0,0,1,.15.32c-1.14.07-1.14.08-2.26.12a3.17,3.17,0,0,1-.39-.32.45.45,0,0,1-.42.36l-.58.06-.09.12,0,0c-.15.17-.24.29-.36.42l-.07.1h0L244,272.39a6.68,6.68,0,0,1-1,0l.36.18c.24.15.27.71.38.74a41.13,41.13,0,0,0,7.92.12.93.93,0,0,1,1.15.45.78.78,0,0,1-.39,1.09c-3.91,4.23-10,5.42-15.88,4.76-1.42.14-2.83.32-4.25.52l.29.19-1.18-.07-.12,0,1.13.67c.22,0,.43.08.65.1,3.23-.57,6.57,0,9.9.15a44.72,44.72,0,0,1,5.26.87.83.83,0,0,1,.9.63.66.66,0,0,1-.58.8c-4.82,2-10.79,2.92-16,1a4.66,4.66,0,0,1-2.86-.06h-.05c.3.19.57.38.87.58-.77,0-1.37-.49-2.11-.56l.64.95c-3.65.41-7.19,1.84-10.9,1.46l-.4,0a21.28,21.28,0,0,1-1.67,1.62l-.46.36-.12.08-.22.12-.44.22a18.79,18.79,0,0,1-1.87.81l2.81-.58a26.39,26.39,0,0,1-5.65,2.63c-5.65,1.79-12.54,2.62-16.55,1.46-10.68,4.42-21.3,9.1-31.63,14.28-.53.27-1.11.33-1.32.15s.07-.57.6-.85c7.17-4.19,14.69-8,22.32-11.59-6.74,2.24-13.46,4.7-20.12,7.61l-2.48,1.26a18.25,18.25,0,0,1-2.56,1,259.15,259.15,0,0,0-24.54,12.55c-7,4.15-12.94,7.93-19.66,12.37-9.43,6.24-17.9,12.08-27.48,17.9-1.24.83-2.6,1.3-3,1s.29-1.14,1.53-2c9.54-6.75,19-13.38,28.9-19.73A301.61,301.61,0,0,1,145.13,310c2.39-1.13,4.72-2.27,7.06-3.35a.86.86,0,0,1-.18-.2,1.14,1.14,0,0,1,.15-1.1c-2.68,1.21-5.38,2.43-8.12,3.61-7,4.36-14,8.76-21.87,12.75-5.41,2.74-10.5,4.93-15.61,7.37-5.93,3.92-11.75,8-17.67,12a1.18,1.18,0,0,1-.63.29c-.14,0-.06-.17.17-.36,3.84-3.11,7.87-6.19,12-9.22-.85.17-1.48.1-1.66-.29s.12-1.07.77-1.82l-3,1.85c-.62.38-1.19.55-1.29.36s.27-.66.84-1q6-3.84,12.09-7.53c4.7-3.2,9.44-6.32,14.26-9.39a3.56,3.56,0,0,1-2.06-.19h0l-2.25,1.39c-13.1,9.53-26.64,18.89-40.42,28.23-.26.19-.52.29-.58.22s.1-.28.35-.44l12.4-8.49h0c-.2.07-.3,0-.15-.18a1.67,1.67,0,0,1,.64-.44c.23-.08.28,0,.16.18q11.47-7.93,22.63-15.95L91.73,332l-2.1,1.85a1.19,1.19,0,0,1-.64.28c-.11,0,0-.21.19-.37l.6-.51c-1.35.86-2.61,1.23-2.87.81s.7-1.58,2.08-2.52q5.45-3.93,11-7.64l1.16-.88,1.07-1c-5.92,3.63-11.79,7.32-17.56,11.1-.48.34-1,.52-1.09.39s.2-.54.68-.89c9.49-7.64,19.39-15.05,29.62-22.1l8.95-9-1.36.83A141.6,141.6,0,0,0,106.1,314c-4.78,4-9.43,8.1-14.65,12-.25.21-.52.3-.6.25s0-.26.31-.45c5-3.92,9.38-7.91,14.32-12,4.08-3.37,8-6.52,11.74-9.81-8.25,5.71-15.59,12-23.41,18.09a2.77,2.77,0,0,1-1,.57c0,.06,0,.15-.13.25-.86.92-1.85,1.87-2.88,2.79a1.11,1.11,0,0,1-.65.34C89,326.11,89.08,325.94,89.29,325.72Zm144.06-56.93.21.14-.6-.16-1.15-1Zm6.7-7.6h0l.65.6C240.43,261.55,240.22,261.36,240.05,261.19Zm-63.54,36a91,91,0,0,1,14.43-4.87l-3.33,1.53Zm64.28-25.34a13.45,13.45,0,0,1-2.78-1.76,4.16,4.16,0,0,1-1.48.68c-1.46.37-2.91.65-4.36.87.35.39,0,.44-.14.55l-.47.28c1.57-.17,3.15-.3,4.78-.39A30.17,30.17,0,0,1,240.79,271.82Zm9.55-4.88.19.13,0,.79S250.43,267.47,250.34,266.94Zm0-1.33-.25,0C250.1,265.29,250.2,265.36,250.36,265.61Zm-2.24-.31a1.49,1.49,0,0,0,.41.29Zm-8.6-20.22.47,3.79-.35-3.68Z"/></g></g></svg>