<svg xmlns="http://www.w3.org/2000/svg" viewBox="0 0 434.87 385.68"><g id="Layer_2" data-name="Layer 2"><g id="Layer_1-2" data-name="Layer 1"><path d="M14.11,154.09l.26,0c0,.17-.16.28-.35.36,2.45,0,3.93-2.31,4.33-4.49a1.1,1.1,0,0,0-1.18-1.85,1.72,1.72,0,0,1-.44.06,8.48,8.48,0,0,0-3.68.26h.86a2.68,2.68,0,0,0-1,.4l.31.18a2.53,2.53,0,0,0,.26,5.06Z"/><path d="M18,155.54c-.78.11-1.57.18-2.36.24l-.23-.08.61.71,0-.06a4.46,4.46,0,0,1,1.24-2.62l.18-.32a.75.75,0,0,0-.06-.57.8.8,0,0,0-1.09-.34l-.45.24c-1.31.34-2.85,1.51-2.44,3.17.1.38.49.66.78,1A1.11,1.11,0,1,0,16,155.65l.33-.09-.06.32c-.19-.53.18-1,.34-1.45l.4-.5L15.8,153l-.14.35.15.08a9.72,9.72,0,0,1-.86,2l-.35.94a.68.68,0,0,0,.6.7l.49,0-.25,0c.89-.28,1.74-.7,2.64-1a.28.28,0,0,0,.21-.33A.28.28,0,0,0,18,155.54Z"/><path d="M15.63,157.58a.64.64,0,0,0-.5.14v.14l.37,0C15.76,157.91,15.76,157.74,15.63,157.58Z"/><path d="M15.13,157.86H15l.15.06v0Z"/><path d="M37,137.57a37.86,37.86,0,0,0,3.7-2s0-.1,0-.17-.13-.1-.16-.08a41.26,41.26,0,0,1-3.7,2s0,.1,0,.17S37,137.58,37,137.57Z"/><path d="M50.62,138.2a.26.26,0,0,0,.14.17c.06,0,.1,0,.09-.07a.34.34,0,0,0-.14-.17C50.64,138.1,50.61,138.14,50.62,138.2Z"/><path d="M54.65,143.89a2.1,2.1,0,0,0-.11.74c0,.05,0,.06-.07.05a.48.48,0,0,1,.13.32,15.61,15.61,0,0,1-2,4.47,1.77,1.77,0,0,1,.15.31c.14.34.1.61-.11.69l-.18,0c-.63.23-1.24.49-1.88.7a.85.85,0,0,1-.17.52,12.93,12.93,0,0,1-.59,2,.83.83,0,0,1,.26.24c.18.25.22.51.09.59l-.17.16.67-.22h.1a4.18,4.18,0,0,0,.57-.47,15.25,15.25,0,0,0,3.23-6c0-.06,0-.09.11,0a.27.27,0,0,1,.12.18c-.06,2,.31,4.3-.21,6a30.3,30.3,0,0,1-2.26,5.57c-1.46,1.13-2.35,2.76-3.5,4.35-.39.54-.79,1-1.21,1.52-.07.07-.07.09-.2.21l-.34.31-.67.61c-.45.41-.91.81-1.36,1.2-1.82,1.58-3.68,3.09-5.58,4.61a3.32,3.32,0,0,1-5.64-2.86l-.37.26-.69.26a2.9,2.9,0,0,1-2,0l-.86-.3c-1.41-.75-3-1.06-4.35-1.93l-.25-.53-.21-.05a2.85,2.85,0,0,1-1.58-.73l-.39-.58a6.67,6.67,0,0,1-.87-2.15,2.56,2.56,0,0,1-.43-.75,3.4,3.4,0,0,1-1.55-1.68.48.48,0,0,1-.37-.57.56.56,0,0,1,.13-.24h0l-.47-.19-.28.09-.82.33a2.21,2.21,0,0,1-.79-.12c-1.06-.75-1.06-.75-1.34-1.21a.94.94,0,0,1,0-.16l-.47.05a1,1,0,0,1-.24-.08c-.18-.21-.18-.21-.29-.26a1.27,1.27,0,0,1-.14-.17c-.06-.35-.06-.35-.12-.43a.94.94,0,0,1,0-.18l.16-.31.79.33-.09-.26.29.21-.23-.21.28,0-.36-.07a1.91,1.91,0,0,0,.62-.35.78.78,0,0,0,.3-.29l-.11-.12,1-.46.22.09a.23.23,0,0,1,.14-.24l.25-.13,0-.07v0l.09-.26,0-.06h0c.07-.17.16-.43.41-1.12a3.16,3.16,0,0,1,.46-.16l-.19,0c-.13,0-.24-.29-.29-.29a16.88,16.88,0,0,0-3.59,1.35.43.43,0,0,1-.59,0,.42.42,0,0,1,0-.59,9,9,0,0,1,6.43-5.1q.93-.47,1.86-1l-.17,0,.55-.16.06,0-.63-.15-.31.05a26.82,26.82,0,0,1-4.53,1.63,22.07,22.07,0,0,1-2.51.55.37.37,0,1,1-.38-.63c1.85-1.87,4.4-3.44,7.11-3.37a2.14,2.14,0,0,1,1.32-.44h0l-.49-.15c.35-.14.71,0,1.06-.07l-.45-.37c1.61-.8,3-2.09,4.81-2.44a1,1,0,0,1,.18-.07,8.35,8.35,0,0,1,.94-1.79l-.46.12a1.42,1.42,0,0,1,.51-.89,3.14,3.14,0,0,1,3.37.47,49.72,49.72,0,0,0,3.68-3.72c0-.08.19,0,.31.09s.16.3.11.37a16.35,16.35,0,0,1-2.26,3.23,15.53,15.53,0,0,0,2.91-1.46l.29-.31a.59.59,0,0,1,.37-.18,13,13,0,0,0,3-2.76,28.87,28.87,0,0,0,1.94-3.13,12.4,12.4,0,0,1,2.93-4.17c.14-.18.5-.05.78.27s.41.74.26.92c-1.91,3.18-3.6,6.55-6.59,8.6l-1,.64.11.14a2,2,0,0,1,.32.56,8.88,8.88,0,0,1,1.2-.58A6.59,6.59,0,0,1,43.79,137a9.25,9.25,0,0,1,2.71-.63c.66-.85,1.28-1.76,2-2.59,0-.05.08,0,.14,0s.1.14.08.19a13.48,13.48,0,0,1-.95,2.4,2.36,2.36,0,0,1,.75.68,2.17,2.17,0,0,1,.43.94l.42-.29c.09-.05.25,0,.37.18s.16.34.08.4l-1.71,1.21c-.52.68-1.06,1.34-1.62,2a3.36,3.36,0,0,1,.77.61h0l.29-.26a14,14,0,0,1,4.77-5.61s.11,0,.17.08.08.16,0,.18a10.79,10.79,0,0,0-1.73,1.36h0a.3.3,0,0,1,.14.17c0,.07,0,.1-.09.08a.25.25,0,0,1-.14-.18,15.06,15.06,0,0,0-2.53,3.34,17.11,17.11,0,0,1,3-2.25c0-.17.07-.35.11-.52s.09,0,.15,0,.09.15.07.19l0,.13c.21-.11.59.08.88.46s.35.81.15.94c-.46.47-.94.91-1.44,1.33l-.12.19,0,.31c.91-.47,1.85-.91,2.79-1.32.06-.06.21,0,.31.13s.14.29.07.35a28.22,28.22,0,0,1-3.34,4.41c0,.94,0,1.89-.07,2.82a1.06,1.06,0,0,0,.2-.12c1.54-1.2,1.58-3.85,2.81-5.34,0,0,.1,0,.16.05s.08.15,0,.18a17.2,17.2,0,0,0-1.2,2.82,14.65,14.65,0,0,0-.9,2.4c1-1,1.55-2.6,2.43-3.79,0-.07.1-.07.19,0a.34.34,0,0,1-.05-.11,2.32,2.32,0,0,1,.13-.78c0-.05.06-.05.13,0A.21.21,0,0,1,54.65,143.89Zm-30.48,11-.12,0h.3l.69.33Zm-1.87,4.64h0l-.39-.18ZM36,141.36a4.63,4.63,0,0,1-2.15.9l.36-.42A16.77,16.77,0,0,1,36,141.36ZM20.29,154.64a5.91,5.91,0,0,1,1.54.39,2.33,2.33,0,0,1,.57-.56,19.71,19.71,0,0,1,1.86-1.1c-.22-.14-.07-.22,0-.29l.17-.21c-.69.32-1.4.63-2.13.94A16.4,16.4,0,0,1,20.29,154.64Zm-3.55,3.93-.11,0-.11-.37Zm.2.61.11,0C17.11,159.29,17.05,159.27,16.94,159.18Zm1-.24-.22-.07Zm7.07,8-.81-1.66.74,1.63Z"/><path d="M9.18,240.46l.45.67a2.83,2.83,0,0,1-1.52-.77,25.67,25.67,0,0,0,4.26,4.08,39.51,39.51,0,0,0,4.89,3,36.3,36.3,0,0,0,5,2.16,41.52,41.52,0,0,0,4.64,1.52c1.69,1.29,3.48,2,4,1.35s-.4-2.44-2.12-3.91a11.77,11.77,0,0,1-1-1.19,47.85,47.85,0,0,0-3.49-5c-1.34-1.63-2.81-3.39-4.44-5.15.58.8,1.17,1.64,1.74,2.44a22.56,22.56,0,0,0-2.95-2.91c.06.26.14.57.2.83a22.6,22.6,0,0,0-5.51-5,8.91,8.91,0,0,0-5.52-1.62c-3.06.47-3,4.31,0,7.92Z"/><path d="M13.6,250.28c-1.8-1.74-3.52-3.6-5.25-5.52l-.28-.58-.38,1.75.07-.09a8.77,8.77,0,0,1,4,.47A29.7,29.7,0,0,1,16.16,248l1.07.41a1.22,1.22,0,0,0,1.18-.2c.49-.55-.13-1.78-1.39-2.78-.49-.39-1-.75-1.46-1.11a32.23,32.23,0,0,0-2.9-2.41,20.69,20.69,0,0,0-3.33-2.12c-2.24-1.08-4.42-1.61-5.88-.67-.66.43-.5,1.58-.62,2.46-.47,1.13.63,2.92,2.44,4s3.63,1,4.1,0l.87.77-.86,0c.82-.65,2.55.13,3.95.37l1.94.84-.23-3L14,244.24c0,.15.13.39.12.39-2.07-.44-4-.91-6.2-1.57L5,242.61c-.84.12-1,.95-.37,1.83l1,1.18L5.22,245c1.22,1,2.48,1.87,3.73,2.86s2.5,1.92,3.67,2.88a1.32,1.32,0,0,0,1.18.37C14.06,251,14,250.62,13.6,250.28Z"/><path d="M4.36,245.74A3.51,3.51,0,0,0,3,244.61l-.31.09.69.9C3.91,246.24,4.29,246.14,4.36,245.74Z"/><path d="M2.73,244.7l-.29-.38.15.38c.07,0,.08,0,.08,0Z"/><path d="M134.75,293.39c-.8-2.83-1.7-5.73-2.75-8.74-.27-.75-.52-1.51-.81-2.27l-.91-2.44c-.62-1.72-1.29-3.41-2-5.08-2.72-6.7-5.73-12.9-9-19.34l-5.2-10.23-1.42-2.8-1.44-3-1.5-3.09-.8-1.66-.91-2c-1.11-2.5-2.09-4.87-3-7.23s-1.79-4.71-2.61-7.05c-1.65-4.69-3.12-9.38-4.46-14.12-.35-1.27-.84-2.28-1.12-2.26s-.19,1,.16,2.23q2,7.13,4.43,14.17c1.65,4.73,3.42,9.35,5.61,14.33l.89,2,.83,1.76,1.5,3.11,1.45,3c.48,1,1,1.9,1.42,2.81l5.18,10.2c3.25,6.4,6.25,12.53,9,19.17,1.33,3.24,2.69,6.93,3.71,9.73q1.58,4.47,2.78,8.65c.25.75.6,1.34.85,1.42S135,294.11,134.75,293.39Z"/><path d="M147.57,48.52c-.4.73-.23.81.4.22a11,11,0,0,0,1.77-2.24c.34-.61.15-.73-.39-.22A11.06,11.06,0,0,0,147.57,48.52Z"/><path d="M155.2,62.75a84.73,84.73,0,0,0-5.14,11.47,9,9,0,0,1-.9,1.87c.39-.07.29.83-.25,2.33-1.44,3.65-2.48,7.45-3.67,11.18-.51,1.89-.94,3.81-1.43,5.7-.24,1-.5,1.88-.71,2.84l-.54,2.88c-.33,1.92-.76,3.81-1,5.74s-.59,3.82-.74,5.77l-.29,2.89c-.1,1-.14,2-.21,2.91-.15,1.94-.2,3.89-.26,5.83a167.12,167.12,0,0,0,5.75,46.59,2.93,2.93,0,0,1,1.23,1.11c1.51,1.92,2.95,6,4,10.37l.67,3.33A164.48,164.48,0,0,0,157.75,205c.59,1.53,1.21,3.06,1.78,4.4l.47,1,.56,1.22,1.16,2.51c1.6,3.39,3.26,7,4.92,10.83a65.31,65.31,0,0,1,5.66,10.45,169.85,169.85,0,0,1,8.94,20.77c.61,1.78,1.24,3.56,1.82,5.35l.84,2.69c.28.89.57,1.77.84,2.77a111.75,111.75,0,0,1,2.79,12c.13-1.11.36-1.81.7-1.87.86.15,2,4,2.18,8.71.13,2.39.19,4.8.14,7.23a118.19,118.19,0,0,0-.84-20.47c-.14-.95-.24-1.84-.32-2.64-.31-1.78-.67-3.55-1-5.3s-.75-3.27-1.12-4.91-.84-3.29-1.27-4.94l-1.41-5a165.26,165.26,0,0,0-7.94-21.17c-3.07-6.71-6.47-12.91-9.49-18.14-.69-1.23-1.39-2.45-2.09-3.68-.53-.9-1.14-2-1.72-3.18-1.19-2.29-2.35-4.72-3.46-7.18-2.23-4.93-4.23-10-6-15.18A200.8,200.8,0,0,1,145.58,150a150.63,150.63,0,0,1-2.35-31.92,5.2,5.2,0,0,1,.4-2.36c.26-.37.51-.24.5.54a107.61,107.61,0,0,0,2.2,19.61,164.12,164.12,0,0,0,4.94,18.5c1,3,2.09,6.07,3.19,9.12s2.37,6.1,3.64,9.19q3.81,9.25,8.56,18.95c.94,1.91,1.92,3.79,2.92,5.59s2,3.56,3,5c.23.36.46.7.64.93.27.39.61.94.9,1.41l1.93,3c1.38,2.14,2.71,4.38,4.15,6.84s2.82,5,4.24,7.69,2.72,5.49,4,8.35a176.7,176.7,0,0,1,6.64,17.64c1,3,1.82,6,2.65,8.94l1.18,4.46c.39,1.61.8,3.28,1.16,5a111.72,111.72,0,0,1,2.65,21.36,109.57,109.57,0,0,1-1.93,23.18c-.39,2-.81,3.94-1.32,5.91-.26,1-.5,1.94-.8,3l-1,3.09a92.07,92.07,0,0,1-4.78,11.88A91.46,91.46,0,0,1,178,355.49a97.13,97.13,0,0,1-18.1,14.63A104.32,104.32,0,0,1,120,384.77a80.43,80.43,0,0,1-20.8.42,72.67,72.67,0,0,1-10.31-1.88c-1.71-.47-3.39-.93-5.06-1.53l-1.24-.43-.63-.22-.77-.29c-1-.39-2-.78-3-1.21s-1.9-1-2.83-1.49-1.76-1.14-2.63-1.7a24.8,24.8,0,0,1-2.43-1.82l-1.16-1c-.37-.32-.71-.67-1.06-1A44.91,44.91,0,0,1,61.12,364a71,71,0,0,1-7.93-18.22c-.61-2.06-1.12-4.23-1.55-6.22s-.87-4-1.31-6c-.85-4-1.69-8.05-2.62-12a75.92,75.92,0,0,0-3.25-11,34.39,34.39,0,0,0-4.84-8c-.49-.48-.9-1-1.4-1.41l-.94-.82c-.23-.2-.52-.37-.77-.56a13.29,13.29,0,0,0-1.57-1,32,32,0,0,0-3.35-1.72l-1.78-.71c-.61-.22-1.27-.42-1.88-.62s-1.25-.38-1.91-.54-1.28-.33-2-.47c-1.42-.25-2.66-.56-4.16-.7l-2.13-.25-2.25-.16a14.05,14.05,0,0,1-1.63-.09c-.54-.05-1.07-.11-1.55-.2a9.25,9.25,0,0,1-2.51-.82c-1.46-.67-2.22-1.79-2-3.11.3-1.61,2-3.07,4.43-3.78l-1.17-.18-1.73-.54a8.47,8.47,0,0,1-1.14-.47,6.77,6.77,0,0,1-1-.54,4.33,4.33,0,0,1-1.39-1.41l-.9-1.36a23,23,0,0,0-2.06-3.8A14.57,14.57,0,0,1,1,273.15l.66-.94-.27-.37A4.56,4.56,0,0,1,0,268.59l.5-1.25a9.27,9.27,0,0,1,3.05-3.55,3,3,0,0,1,.81-1.41,4.24,4.24,0,0,1,.69-4.26c-.39-.57-.14-1.08.56-1.14a1.87,1.87,0,0,1,.76.11h0c-.18-.43-.23-.56-.49-1.08l-.73-.53c-1.27-.75-1.27-.75-2.37-1.44a7.14,7.14,0,0,1-1.3-1.78c-.45-2.86-.45-2.89,0-3.84a1.81,1.81,0,0,1,.29-.19c-.8-.77-.85-.84-1.06-1.06a3.08,3.08,0,0,1-.32-.62c.11-.59.11-.59,0-.87a1.72,1.72,0,0,1,.08-.45c.67-.38.67-.38.74-.55a1.27,1.27,0,0,1,.36-.16l1,.19c.86,2.07.87,2.08.87,2.08l.41-.35.11.79v-.67l.53.68-.57-.89a10.17,10.17,0,0,0,2,1.25,4.49,4.49,0,0,0,1.25.53,1.23,1.23,0,0,1,0-.33c1.53,1.05,1.53,1.08,3,2.14a5.06,5.06,0,0,1,.25.55,1,1,0,0,1,.82.21l.78.52h.2v0l.77.12.16,0h0c.52.07,1.29.21,3.32.67.45.34.87.68,1.25,1-.11-.15-.21-.29-.31-.45s.2-.59.08-.71c-.76-.74-1.55-1.47-2.37-2.18s-1.66-1.35-2.52-2c-1.72-1.29-3.51-2.74-5.27-4-.68-.31-1.22-.95-1.2-1.43s.63-.58,1.33-.25a27.77,27.77,0,0,1,6.35,2.17,39.55,39.55,0,0,1,6.33,3.65,66.3,66.3,0,0,1,11.33,9.84c.91.8,1.82,1.71,2.73,2.54s1.81,1.65,2.69,2.57l-.17-.39,1.29,1.53.15.15-.75-1.52-.66-.85c-1.05-1-2.07-2-3.07-3l-1.49-1.54c-.49-.49-1-1-1.48-1.48-1-1-2-2-2.95-3.07s-2-2-3.05-3-2.15-2.18-3.15-3.22-2-2.2-3.05-3.31c-.58-.47-.9-1.06-.71-1.34s.83-.09,1.4.38a74.39,74.39,0,0,1,11.81,9.15c.93.87,1.82,1.74,2.68,2.61s1.68,1.85,2.46,2.76,1.5,1.8,2.17,2.73,1.29,1.87,1.85,2.77a22.6,22.6,0,0,1,1.77,1.92,18.08,18.08,0,0,1,1.4,2l.05.06c-.17-.41-.32-.79-.48-1.2.86,1.08,1.11,1.91,1.84,2.92,0-.27.06-.57.08-.84,1,1.32,2.11,2.67,3.18,4s2.06,2.83,3,4.26a42,42,0,0,1,4.55,9.05L56,285a31.39,31.39,0,0,1,2,3.59,9.66,9.66,0,0,1,.43,1l.11.3.36,1.09a22.7,22.7,0,0,1,.63,2.22c.18.75.38,1.51.53,2.25s.25,1.46.38,2.2.2,1.49.3,2.24.17,1.51.21,2.28a59,59,0,0,0-.69-6.21c-.14-1-.43-2.14-.66-3.23-.11-.55-.27-1.08-.43-1.63l-.42-1.44.51,1.54a17.25,17.25,0,0,1,.49,1.74c.29,1.18.59,2.36.76,3.46s.38,2.22.5,3.36.22,2.25.29,3.37a113.76,113.76,0,0,1-.4,12.75,50.9,50.9,0,0,0,1.3,15.72c.33,1.26.65,2.53,1.07,3.76l.6,1.85.66,1.73a47.86,47.86,0,0,0,3.11,6.43,35.15,35.15,0,0,0,7.67,9.31,24.17,24.17,0,0,0,6.83,4l.65.15c.22,0,.45,0,.67.07.44,0,.85.12,1.28.1s.85,0,1.26,0l1.61-.07a46.65,46.65,0,0,0,6.56-.81c1.09-.24,2.15-.42,3.22-.74l1.59-.42,1.58-.51c1-.3,2.08-.72,3.11-1.08s2-.82,3-1.25a61.45,61.45,0,0,0,11.25-6.52,54.49,54.49,0,0,0,9.24-8.59,48.9,48.9,0,0,0,6.63-9.8,41.16,41.16,0,0,0,3.54-10.07,31.25,31.25,0,0,0,.49-9.36l-.11-1.1-.15-1.23c-.11-.82-.22-1.63-.39-2.46-.29-1.64-.72-3.3-1.17-5a9.32,9.32,0,0,1-.34-1.87,1.43,1.43,0,0,1,.24-1.06c.39-.18,1.07.74,1.48,2.17a55.46,55.46,0,0,1,1.78,7.39,42,42,0,0,1,.6,7,37.42,37.42,0,0,1-3.56,14.84c-4.67,10.1-14.06,19.81-25.72,25.48a60.81,60.81,0,0,0,24.13-19.7,47,47,0,0,0,6.46-12.69,36.82,36.82,0,0,0,1.51-6.42c.2-1.05.23-2.13.34-3.17l0-1.57,0-.78v-.86a52.35,52.35,0,0,0-.81-7c-.41-2.38-.82-4.74-1.22-7.1-.77-3-1.65-6.11-2.68-9.22-.54-1.55-1-3.12-1.64-4.69l-1.92-5.06q-2-5.09-4.26-9.92c-1.51-3.23-3.07-6.39-4.71-9.56-3.28-6.36-7-12.71-11.12-20.69l-.79-1.51-.86-1.67c-.61-1.25-1.18-2.42-1.71-3.57-1.07-2.31-2.07-4.56-3-6.82-1.91-4.52-3.66-9.06-5.3-13.68q-2.08-5.93-3.83-11.77c-1.13-3.92-2.2-7.81-3.1-11.72S94.3,176.93,93.58,173c-.34-2-.63-3.94-1-5.91s-.5-4-.72-6c-.41-4-.74-8-.92-12s-.19-8.14,0-12.28a155.48,155.48,0,0,1,7.53-43.17c1-2.85,2.09-5.67,3.15-8.47l.8-2.1.91-2c.61-1.35,1.22-2.7,1.84-4a156.56,156.56,0,0,1,18-29.32A171.13,171.13,0,0,1,172.88,4.93c2.53-1.46,5.08-2.7,7.07-3.6a14.27,14.27,0,0,1,4-1.33c.92.07-2.53,2.28-7.47,5.25A176.81,176.81,0,0,0,126,51.6l-2.56,3.64c-.83,1.22-1.72,2.41-2.48,3.69-1.57,2.54-3.17,5.07-4.7,7.65l-4.24,8c-1.35,2.72-2.55,5.52-3.79,8.31l-.92,2.1-.8,2.16-1.6,4.33c-.51,1.45-1.09,2.87-1.53,4.36L102,100.28c-.46,1.48-.79,3-1.19,4.49s-.77,3-1.07,4.51l-.94,4.54-.76,4.56A163.36,163.36,0,0,0,96.55,155q.63,9.11,2.12,18.06c1,6,2.24,11.87,3.73,17.71s3.22,11.63,5.18,17.37,4.11,11.41,6.64,17.2c.63,1.45,1.3,2.9,2,4.44l.57,1.19.52,1,1,2c1.31,2.55,2.58,5.05,3.84,7.38,2.48,4.73,4.77,9.08,6.93,13.47a207.72,207.72,0,0,1,9.78,23,.83.83,0,0,1,.4-.33c.62-.21,1.52.44,2.41,1.49-1.49-4.49-3.13-9.09-4.88-13.49s-3.63-8.78-5.61-13.17c-3.32-5.86-6.95-11.67-10.8-18.51L119,231.21l-.36-.66-.42-.78-.79-1.55c-1-2-1.94-3.95-2.82-5.9-1.77-3.89-3.37-7.79-4.85-11.75A170.68,170.68,0,0,1,98.88,160a145.35,145.35,0,0,1,.18-18.1c.18-3,.54-5.89.88-8.8.19-1.45.44-2.89.66-4.33s.47-2.87.76-4.29a144.29,144.29,0,0,1,10.42-32.63,155.9,155.9,0,0,1,19.47-37.39A173.7,173.7,0,0,1,158.84,23.9a10.13,10.13,0,0,1,2.1-1.59c.4-.15.05.33-.75,1.08a180.35,180.35,0,0,0-19.23,21A168.54,168.54,0,0,0,124.86,69c2.21-2.38,3.87-3.56,4.51-2.93s.15,3.08-1.14,6.47l3.37-5.65c.57-.93,1.1-1.89,1.71-2.8l1.82-2.72c1.53-2.22,3-3.8,3.3-3.5s-.53,2.25-1.93,4.36L134.68,65c-.59.93-1.13,1.89-1.69,2.84-1.11,1.91-2.26,3.8-3.34,5.74-2,4-4.14,7.85-5.82,12A141.89,141.89,0,0,0,115.32,111c-4.16,21.16-3.42,42.8.69,63.52.28-3,.89-5.29,1.82-6.45,0,0,0,0,0,0-.48-3.2-.89-6.39-1.21-9.59a146.86,146.86,0,0,1,.21-44.78,135.77,135.77,0,0,1,15-43l2.78-5,3-4.84c1-1.62,2-3.23,3.16-4.76l3.31-4.65A184.82,184.82,0,0,1,158.83,34,210.92,210.92,0,0,1,193.52,5.1,7.68,7.68,0,0,1,195.42,4a5.68,5.68,0,0,1-1.51,1.22,208,208,0,0,0-40.82,36l.06-.06c.57-.48.81-.46.37.22a12.35,12.35,0,0,1-1.87,2.17c-.65.56-.75.38-.39-.21C140.37,56.39,131.14,71.07,125,87.07c-1.67,3.94-2.79,8.08-4.1,12.14-.61,2.05-1.07,4.14-1.6,6.2s-.88,4.17-1.28,6.26a141,141,0,0,0-2.11,25.2,141.12,141.12,0,0,1,9-45.67,151.89,151.89,0,0,1,10.06-21c1.85-3.39,4-6.59,6.11-9.82,1-1.63,2.22-3.14,3.33-4.71s2.22-3.14,3.45-4.62c1.88-2.77,3.7-5.58,5.8-8.25a8.18,8.18,0,0,1,1.81-1.76c.27-.11,0,.52-.62,1.26s-1.12,1.5-1.69,2.25a44.22,44.22,0,0,1,5.15-5.19c1.45-1.16,2.47-1.71,2.76-1.39s-.36,1.64-1.47,3.33a60,60,0,0,1-4.52,6.22c-9.56,12.62-17.8,26.24-23.51,40.93l-1.67,4.83-1,5a153.84,153.84,0,0,1,15.74-32.75A201.5,201.5,0,0,1,166.76,36.9c1.39-1.53,2.75-2.68,3-2.52S169,36,167.67,37.5C154.18,53.82,143.23,72.29,136.76,92c-6.67,19.65-8.18,40.52-6.1,61a184.11,184.11,0,0,0,14.15,38.39c-.46-1.63-.92-3.28-1.39-4.93a279.09,279.09,0,0,1-7-30.82,176.93,176.93,0,0,1-2.53-30.16,131.49,131.49,0,0,1,1-15.07c.11-1.26.36-2.5.55-3.75s.37-2.52.67-3.76c.55-2.49,1.06-5,1.68-7.52a125.77,125.77,0,0,1,12.11-29.62,3.67,3.67,0,0,1,1.36-1.71c.23,0-.05.72-.6,1.7a122.09,122.09,0,0,0-11.48,28.75l-.5,1.81-.39,1.84-.76,3.66c-.56,2.42-.9,4.89-1.27,7.35-.62,5-1.05,9.93-1.19,15A147.05,147.05,0,0,0,141.85,172c-3.44-15.48-5.41-30.89-5-46.33.06-1.93.18-3.85.28-5.78s.28-3.86.54-5.77.45-3.86.81-5.76l.48-2.87c.19-1,.42-1.91.63-2.86q.66-2.87,1.31-5.75l1.71-5.69c.52-1.92,1.26-3.78,2-5.67l1.06-2.83.53-1.41.62-1.39a14.84,14.84,0,0,1,1.79-3.29,1.54,1.54,0,0,1,.11-.85,57.08,57.08,0,0,1,2.36-6l1.37-3.09c.49-1,1-2,1.57-3.07a6.64,6.64,0,0,1,1.44-2C155.75,61.3,155.62,61.86,155.2,62.75ZM26.74,264l-.13-.24.57.63.52,1.43Zm-13.67-2.86h0l-.35-.87Zm115,82a60.33,60.33,0,0,1-19.34,12.54,56.58,56.58,0,0,1-22.79,4.38,48.71,48.71,0,0,0,11.3-1.34A66.38,66.38,0,0,0,128.07,343.18ZM20.15,255.44A20.19,20.19,0,0,1,22.21,259a15.51,15.51,0,0,1,2.31,1.21c1,.72,2,1.42,2.95,2.11s1.91,1.39,2.82,2.17c-.09-.47.35-.11.6,0l.75.45c-1.9-1.73-3.88-3.27-5.89-5C23.94,258.41,21.87,257,20.15,255.44ZM4.39,248.89l-.14-.26.61-.47Zm-1,.84.29.24C3.51,250.17,3.44,250,3.41,249.73Zm2.64,2.15a2.42,2.42,0,0,0-.3-.53ZM2.17,271.53c.69-1,1.39-1.95,2.09-2.9-.72.9-1.44,1.81-2.15,2.75Z"/><path d="M201.8,117.71l.65,0c-.08.35-.44.63-.93.86a13.79,13.79,0,0,0,7.43-3.87,20.85,20.85,0,0,0,4.43-6.37c1.37-.73,2.06-2.06,1.54-3s-2.14-1.13-3.59-.39a5.71,5.71,0,0,1-1.14.2,28,28,0,0,0-9.6,1.44l2.25-.24a11.14,11.14,0,0,0-2.8,1.09l.74.28c-3.68.58-7,3.49-7.1,6.43s3,4.61,6.52,3.87Z"/><path d="M210.84,119.39c-1.85.44-3.68.85-5.59,1.25l-.55-.08,1.4,1.22-.06-.1c.1-2,1.68-4,3.3-5.71l.51-.67a1.3,1.3,0,0,0,0-1.14,1.89,1.89,0,0,0-2.56-.39l-1.16.63c-3.25,1-7.42,4.1-6.43,7.43.24.75,1.21,1.17,1.91,1.7a2.88,2.88,0,0,0,3.73,0c1.22-.91,1.58-2.36.8-3.29l.79-.3c0,.23-.11.46-.17.69-.41-1,.52-2,1-3.06l1.06-1.13-2.61-1.51-.42.75.35.12a34.39,34.39,0,0,1-2.35,4.33c-.32.68-.63,1.38-.93,2.08a1.22,1.22,0,0,0,1.45,1.21l1.17-.16h-.59c2.13-.92,4.13-2,6.22-2.82a.72.72,0,0,0,.54-.74A.55.55,0,0,0,210.84,119.39Z"/><path d="M205.28,124.33a1.9,1.9,0,0,0-1.19.49v.3L205,125C205.61,124.94,205.6,124.59,205.28,124.33Z"/><path d="M204.1,125.12l-.37,0,.35.06s0,0,0,0Z"/><path d="M260.62,261.55l-.32.91c-.1.25-.16.32-.24.5l-.46.9c-.33.6-.54,1.21-.82,1.83a29.2,29.2,0,0,0-1.31,3.86,16.75,16.75,0,0,0-.61,4.12,8.34,8.34,0,0,0,.91,4.07,6.45,6.45,0,0,0,3.1,2.71,12.38,12.38,0,0,0,4.09.89,30.32,30.32,0,0,0,4.26,0l2.16-.19,4.91-.58c.84-.11,1.54-.33,1.55-.52s-.67-.24-1.45-.13l-5,.59-2.05.17a29,29,0,0,1-4.06.05,12.18,12.18,0,0,1-3.88-.83,6.27,6.27,0,0,1-3-2.54,7.78,7.78,0,0,1-.9-3.85,15,15,0,0,1,.56-3.9,27.14,27.14,0,0,1,1.24-3.66c.26-.59.46-1.17.76-1.74l.44-.85.22-.43a2.47,2.47,0,0,0,.14-.37l.16-.45a2.77,2.77,0,0,0,.19-1.42C261.1,260.53,260.84,260.94,260.62,261.55Z"/><path d="M406.11,282.56c-.54-.56-.63-.46-.24.25a15.33,15.33,0,0,0,1.47,2.2c.41.49.54.38.25-.24A11.65,11.65,0,0,0,406.11,282.56Z"/><path d="M393.82,284.62a26.39,26.39,0,0,0-8.34-5.05,6.7,6.7,0,0,1-1.34-.67c.07.29-.58.24-1.64-.07-5.25-1.41-10.7-.66-16.9,1.43-.77.25-1.56.54-2.36.84l-2.45,1-2.45,1-2.44,1.1c-3.25,1.48-6.49,3.15-9.75,4.93-6.53,3.56-13.1,7.64-20.14,11.81l-2.68,1.57c-.95.54-1.9,1.08-2.87,1.6-1.92,1.07-3.91,2.07-5.91,3.06a128.35,128.35,0,0,1-12.42,5.25,3.38,3.38,0,0,1-1.27,1.1c-2.17,1.45-7,3.22-12.11,4.13-1.29.22-2.58.38-3.87.57-1.92.29-4,.56-5.65.76l-2.83.34c-1.26.17-2.53.3-3.79.43a104.68,104.68,0,0,1-15.06.6A55.75,55.75,0,0,1,243.3,318a35.48,35.48,0,0,1-12.4-6.58,18.24,18.24,0,0,1-2.41-1.83,19.76,19.76,0,0,1-2.34-2.25l-1.09-1.3c-.37-.44-.67-.93-1-1.4s-.67-1-1-1.47l-.84-1.59a36.58,36.58,0,0,1-4.07-11.42c-.19-1-.36-2-.49-3.05a24.6,24.6,0,0,1-.32-3.12,51.74,51.74,0,0,1,.07-6.46,65.85,65.85,0,0,1,2.4-13.41c.63-2.28,1.57-4.44,2.4-6.67l1.29-3.34c.11-.27.21-.56.33-.83l.43-.77.85-1.55c-.78,1-1.36,1.52-1.58,1.44-.18-.25.2-1.37,1-3,.39-.82.88-1.77,1.45-2.8l.43-.78a7.8,7.8,0,0,1,.45-.75l.89-1.3,1.86-2.66.93-1.31,1-1.25a42.48,42.48,0,0,0-2.89,3.65l-1.39,1.89-.69.95c-.23.33-.51.8-.76,1.19-2,3.31-4.3,6.45-5.75,10.18-.46,1-.91,2-1.34,2.88a46.74,46.74,0,0,0-2.3,6.11c-.66,2.08-1.17,4.17-1.62,6.28a59.92,59.92,0,0,0-1.3,12.55,43.29,43.29,0,0,0,.57,6.59,44.18,44.18,0,0,0,1.34,6.33c.36,1,.68,2,1.06,3l1.26,2.95,1.55,2.81c.58.9,1.22,1.77,1.82,2.65s1.35,1.7,2,2.53,1.53,1.53,2.3,2.28a28.76,28.76,0,0,0,2.46,2.08,24.83,24.83,0,0,0,2.63,1.84,44,44,0,0,0,11.69,5c8.23,2.17,17.17,2.2,26,1.16,2.2-.26,4.39-.58,6.56-.9.55-.07,1.09-.19,1.63-.27l1.38-.25,2.18-.41,4.59-.93c1.59-.36,3.16-.7,4.74-1.11a128.76,128.76,0,0,0,18.55-6.14,136.71,136.71,0,0,0,17-8.67c10-6.07,18.71-12,27.65-16.66a7,7,0,0,1,2.1-.86c.4,0,.4.18-.23.53a181,181,0,0,0-15.92,10.6l-8.08,5.91c-1.41,1-2.83,2-4.26,3.05s-3.17,2.15-4.82,3.19a121.65,121.65,0,0,1-34.52,15c-1.07.3-2.14.55-3.23.81l-3,.72-1.47.33-.77.17-.48.1-.6.11c-1.61.34-3.27.56-4.93.84-2,.31-4,.57-6,.85s-4,.39-6,.46l-3,.13c-1,.06-2,0-3,0s-2,0-2.95-.1l-2.91-.25c-1-.07-1.93-.23-2.88-.38s-1.91-.28-2.85-.48a54.64,54.64,0,0,1-5.52-1.46,46.57,46.57,0,0,1-10.35-4.62l-2.39-1.55-2.25-1.77a24,24,0,0,1-2.15-1.89l-1-1-.26-.25-.07-.06c-.09.05-.06,0-.09,0l-.12-.14-.47-.54a45.3,45.3,0,0,1-6.57-9.26,44.12,44.12,0,0,1-4-10.59c-.42-1.87-.78-3.77-1.12-5.68A19.75,19.75,0,0,1,206,287c0-1-.18-2-.14-3a64.11,64.11,0,0,1,1.06-12.43,60,60,0,0,1,3.58-12.63l2.55-6.17.65-1.54.32-.78a8.13,8.13,0,0,1,.4-.71l1.7-2.82,1.7-2.83.86-1.41.43-.71c.14-.23.29-.5.4-.64q1.44-2.09,2.91-4.13c.5-.67,1-1.37,1.5-2l1.63-1.92,1.64-1.89c.55-.63,1.1-1.25,1.68-1.8q1.73-1.72,3.47-3.4c1.17-1.08,2.35-2,3.52-3a148.56,148.56,0,0,1,13.32-9.56c4.35-2.72,8.31-5.15,11.79-7.81,1.83-1.3,3.42-2.7,5.07-4.11.85-.68,1.57-1.46,2.34-2.2s1.53-1.49,2.27-2.26c1.41-1.61,2.83-3.21,4.16-4.89s2.6-3.49,3.78-5.22a52.08,52.08,0,0,0,5.47-10.48,42.07,42.07,0,0,0,2.63-11.1,35.11,35.11,0,0,0-.6-10.86l-.28-1.3c-.11-.43-.25-.84-.37-1.25-.22-.84-.55-1.65-.82-2.46a31.35,31.35,0,0,0-2.2-4.69,30.07,30.07,0,0,0-6-7.63,12.44,12.44,0,0,0-4.15-2.62,2.66,2.66,0,0,0-.78-.19l-.17,0a.29.29,0,0,0-.11,0l-.2.08c-.25.12-.49.28-.82.42a5.89,5.89,0,0,1-1.58.44c-.34.08-1.82,0-1.85.19a7.79,7.79,0,0,0-1,.31,21.75,21.75,0,0,0-4.06,2c-.34.19-.71.48-1.06.7a5.31,5.31,0,0,0-.53.38l-.12.1-.38.33c-.25.21-.51.48-.77.7s-.51.48-.77.73-.51.48-.77.75c-1,1-2.09,2.13-3.13,3.32s-2.1,2.46-3.13,3.82c-1.28,2.37-4.07,2.58-6.48.29a7.63,7.63,0,0,1-2.3-5.35l-.5.52-1,.57a4,4,0,0,1-3.27.23l-1.5-.43c-2.58-1.18-5.43-1.44-8.2-2.81l-.64-1-.39,0a5.59,5.59,0,0,1-3.2-1l-.93-1a12.5,12.5,0,0,1-2.28-4.06,4.5,4.5,0,0,1-1-1.36,6.49,6.49,0,0,1-3.48-2.9.88.88,0,0,1-.85-1,1.16,1.16,0,0,1,.25-.51h0a9.8,9.8,0,0,0-1-.23l-.61.25-1.75,1a5.6,5.6,0,0,1-1.77,0c-2.47-1.12-2.5-1.12-3.19-1.95,0-.11-.07-.22-.1-.33-.8.24-.86.25-1.08.3a2.57,2.57,0,0,1-.57-.05c-.46-.38-.46-.38-.71-.44a2,2,0,0,1-.35-.27c-.19-.71-.18-.71-.31-.85a1.56,1.56,0,0,1-.07-.36l.35-.71,1.89.36-.21-.51.68.32-.56-.35.67-.07h-.85a6,6,0,0,0,1.46-1,2.32,2.32,0,0,0,.7-.69,1.79,1.79,0,0,1-.27-.21c1.18-.64,1.17-.65,2.34-1.25a3.54,3.54,0,0,1,.51.1.56.56,0,0,1,.33-.53l.59-.33,0-.15,0,0,.25-.55,0-.12h0c.17-.37.42-.91,1.12-2.34a9.44,9.44,0,0,1,1.08-.44h-.44c-.29,0-.48-.52-.61-.5a42.88,42.88,0,0,0-8.68,3.82,1.2,1.2,0,0,1-1.42.24c-.39-.27-.37-.81.05-1.21,2.89-6,10-10.14,16.86-11.72l4.94-2-.36-.09,1.41-.32.14,0-1.39-.26-.78.12c-3.79,1.62-7.79,2.36-11.74,3.76-2.12.75-4.24,1.08-6.41,1.71a1,1,0,0,1-1.23-.12c-.2-.32,0-.79.5-1,5.27-4.31,12.77-7.77,19.36-7.7a8.27,8.27,0,0,1,3.55-.83h.06l-1.07-.28a19.43,19.43,0,0,1,2.63-.09l-.78-.7c2.29-.71,4.65-1.53,7-2.23a26.2,26.2,0,0,1,7.22-1.14l.53-.06a21.62,21.62,0,0,1,2.63-1.54l.72-.32a1.57,1.57,0,0,1,.23-.09l1.07-.26,2.21-.45a58.75,58.75,0,0,1,9.51-1c-1.15,0-2.28,0-3.39.1s-2.23.13-3.32.26-2.21.23-3.28.41L248,94.1l-1.42.25h0l.19,0,.42-.11c.29-.07.57-.15.86-.21l1.74-.36c1.14-.26,2.35-.42,3.53-.62a62.61,62.61,0,0,1,7.33-.63c1.25,0,2.53,0,3.79,0s2.56.17,3.85.28l1.94.27,1,.15.49.08.24,0,.13,0,3.33.69A45.83,45.83,0,0,1,286.9,98a44.76,44.76,0,0,1,5.43,3.36c.79.6,1.57,1.22,2.34,1.83s1.42,1.28,2.12,1.92a54.28,54.28,0,0,1,11.54,16.29,61.08,61.08,0,0,1,4.89,15.35,53.48,53.48,0,0,1,.92,11.9,76.85,76.85,0,0,1-.35,16.83,92.26,92.26,0,0,1-3.61,16,107.8,107.8,0,0,1-6.13,14.93c-.62,1.18-1.21,2.39-1.87,3.55l-1,1.75-1,1.64-2,3.31c-.65,1.1-1.32,2.2-2,3.27-2.8,4.34-5.75,8.65-8.89,12.79L285,225.9l-2.41,3-1.2,1.53-1.22,1.46-2.41,3c-3.15,3.82-6.23,7.55-8.76,11a56.61,56.61,0,0,0-5.79,9.93c-.53,1.31-1.09,2.34-1.44,2.41s-.17-1,.33-2.35c.46-1.16,1.05-2.31,1.58-3.51s1.34-2.39,2.06-3.62,1.61-2.48,2.53-3.76,1.87-2.54,2.93-3.88c4.16-5.25,9-10.9,13.55-16.79a201.62,201.62,0,0,0,12.67-18.44l2.83-4.76c1-1.66,1.85-3.36,2.71-5.08a101.84,101.84,0,0,0,4.6-10.6c-1.16,3-2.5,5.95-3.94,8.82-.72,1.44-1.49,2.85-2.26,4.25l-1.2,2.09-1.23,2c-1.64,2.62-3.25,5.27-5.07,7.81-.9,1.27-1.73,2.6-2.67,3.85L288.33,218c-3.81,5-7.88,9.86-12,14.41s-8,8.92-11.2,13.11L264,247.17c-.37.54-.69,1.07-1,1.6l-1,1.6c-.33.52-.58,1.06-.88,1.59-.56,1-1.18,2-1.63,3.06l-.75,1.5-.39.73-.32.77-.75,2c-.12.31-.26.7-.36.92l-.28.61a25.81,25.81,0,0,0-1.05,2.43,44.33,44.33,0,0,0-1.62,5A25.67,25.67,0,0,0,253,274a12.13,12.13,0,0,0,.7,5.1A7.43,7.43,0,0,0,257,283a12,12,0,0,0,5,1.43,26.42,26.42,0,0,0,5.26-.11c.87-.1,1.74-.23,2.6-.37l1.29-.23c.46-.08.67-.14,1.76-.3,3.3-.52,5.81-.94,8.49-1.51s5.19-1.21,7.67-1.93a100.17,100.17,0,0,0,14.33-5.47c2.38-1.12,4.58-2.24,7.3-3.69l8.2-4.33c5.66-3,11.76-6.08,18.55-9a133,133,0,0,1,14.84-5.34,78.32,78.32,0,0,1,17.55-3.3,52.22,52.22,0,0,1,20.77,3,49.18,49.18,0,0,1,9.47,4.7,60.74,60.74,0,0,1,7.64,5.8,62.52,62.52,0,0,1,6.51,6.86,69.18,69.18,0,0,1,5.06,7.27,99,99,0,0,1,6.82,13.9l1.31,3.27c.45,1.15.92,2.37,1.35,3.57.88,2.4,1.63,4.84,2.34,7.3a111.17,111.17,0,0,1,3.16,15,55.56,55.56,0,0,1,.6,7.35,12.12,12.12,0,0,1-.36,3.82c-.44.71-1-3.09-1.75-8.4a110.09,110.09,0,0,0-3.42-15.44q-1.14-3.81-2.53-7.55c-.48-1.24-1-2.48-1.48-3.71l-1.47-3.45a102.6,102.6,0,0,0-7.43-14.39,58.34,58.34,0,0,0-12.38-14.14c-1.24-1.06-2.58-2-3.9-2.94l-2-1.32c-.66-.43-1.49-.88-2.24-1.3a46.49,46.49,0,0,0-9.95-4,50.46,50.46,0,0,0-20.4-1.14,76.44,76.44,0,0,0-8.85,1.79c-1.36.36-2.64.74-4,1.11s-2.59.8-3.86,1.23A158,158,0,0,0,334.18,263c-4.69,2.13-9.15,4.39-13.47,6.63l-6.35,3.31-3.09,1.61L308.33,276a101.19,101.19,0,0,1-23.21,8.36c-2,.47-4.08.85-6.16,1.22l-3.2.49-3.42.49a61.69,61.69,0,0,1-7.81.8,24.83,24.83,0,0,1-3.95-.18,15.34,15.34,0,0,1-3.85-.92,9.21,9.21,0,0,1-3.32-2.14,8.92,8.92,0,0,1-1.26-1.54,11,11,0,0,1-.84-1.81,15.6,15.6,0,0,1-.6-6.78,34.72,34.72,0,0,1,1.45-6.59,1.08,1.08,0,0,1-.37.1c-.44,0-.73-.42-.83-1.18a44,44,0,0,0-2,8.15,25.42,25.42,0,0,0-.18,4.28,15.35,15.35,0,0,0,.89,4.23,9.79,9.79,0,0,0,4.22,4,15.75,15.75,0,0,0,5.71,1.47,47.67,47.67,0,0,0,11.56-.88l1.43-.24L275,287l2.38-.37c.74-.13,1.49-.23,2.23-.37,3-.51,5.89-1.13,8.79-1.84a120.61,120.61,0,0,0,17.27-5.69l3-1.25,3-1.35,6.35-2.9c4.28-1.94,8.63-3.9,13.09-5.71s9-3.53,13.74-5c2.35-.74,4.73-1.43,7.16-2,1.21-.31,2.42-.61,3.65-.87l1.85-.4,1.93-.38a64.69,64.69,0,0,1,10.37-1.7,45.22,45.22,0,0,1,11.37.55,41.46,41.46,0,0,1,11.19,3.65c.89.41,1.72.91,2.57,1.38s1.56,1,2.34,1.46a47.61,47.61,0,0,1,4.4,3.26,53.12,53.12,0,0,1,7.59,7.71,67.1,67.1,0,0,1,5.69,8.47c1.63,2.84,3.05,5.65,4.32,8.43.62,1.38,1.25,2.76,1.83,4.12s1.23,2.87,1.81,4.32a9.12,9.12,0,0,1,.71,2.32c0,.38-.26-.09-.65-1s-.86-2-1.3-3l-1.34-2.88c-.88-1.85-1.81-3.74-2.79-5.65a88.17,88.17,0,0,0-7.08-11.61,56.21,56.21,0,0,0-4.73-5.63,51.22,51.22,0,0,0-5.65-5c-1-.79-2.05-1.49-3.09-2.21s-2.08-1.34-3.31-2a39.59,39.59,0,0,0-7.46-3.13c3.12,1.54,4.6,3,4.1,3.47s-3-.16-6.67-.75a37,37,0,0,1,6.3,2.44c1,.47,2,1.06,2.93,1.61s1.8,1.14,2.66,1.77c2.16,1.55,3.55,3.15,3.3,3.31s-2-.94-4-2.35c-.86-.62-1.76-1.17-2.66-1.75s-1.9-1.11-2.91-1.56a34.36,34.36,0,0,0-6.23-2.34A39.17,39.17,0,0,0,370,263.34a61.73,61.73,0,0,0-12.23,2.26c-3.85,1-7.63,2.3-11.32,3.71a265.31,265.31,0,0,0-24.95,12.3l-6,3.2c-2,1-3.89,2-5.86,2.95a110.39,110.39,0,0,1-12.06,4.91,14.39,14.39,0,0,1,5.42.13h0c2.56-1,5.08-2.05,7.55-3.19,5.55-2.83,11.09-6.16,16.79-9.3s11.54-6.26,17.67-9c3.06-1.35,6.21-2.59,9.42-3.69,1.6-.57,3.23-1.06,4.86-1.56s3.36-.92,5.1-1.28a45.66,45.66,0,0,1,10.86-1,35.34,35.34,0,0,1,11.12,2.12l1.34.51,1.3.58c.88.37,1.71.84,2.54,1.29a47.74,47.74,0,0,1,4.64,3,45.37,45.37,0,0,1,8,7.56c4.65,5.61,7.88,11.84,10.73,17.91,1.41,3,2.85,6.21,4,9.41s2.27,6.49,3.18,9.8a112.73,112.73,0,0,1,3.59,20.19,6,6,0,0,1,0,2,4.52,4.52,0,0,1-.33-1.74,112.56,112.56,0,0,0-4.81-24.2,109.52,109.52,0,0,0-4.4-11.59c-1.69-3.71-3.4-7.36-5.42-11l0,.06c.25.63.18.81-.26.21a17.77,17.77,0,0,1-1.28-2.27c-.31-.72-.15-.73.25-.23a56.86,56.86,0,0,0-7-9.69,46.74,46.74,0,0,0-4.41-4.26,45.82,45.82,0,0,0-5-3.6,36.92,36.92,0,0,0-5.55-2.9,35.93,35.93,0,0,0-6.06-1.86,38.45,38.45,0,0,0-12.36-.45,60.9,60.9,0,0,0-11.49,2.6c-3.64,1.14-7.19,2.47-10.66,3.94a200.39,200.39,0,0,0-19.87,10c6-3.14,12.17-6.2,18.56-8.83,3.2-1.32,6.45-2.52,9.77-3.56a78.68,78.68,0,0,1,10.24-2.6,43.05,43.05,0,0,1,10.9-.57,34,34,0,0,1,10.76,2.73,40.73,40.73,0,0,1,9.22,5.84A44.3,44.3,0,0,1,404,282a64.41,64.41,0,0,1,5.44,7.49,8.21,8.21,0,0,1,.94,2.08c0,.26-.38-.22-.83-1s-.89-1.44-1.37-2.15c2.61,4.59,3.76,8.45,3.14,8.66-.74.06-3.11-3.68-5.86-8.2-3.77-6-8.59-11.43-14.65-15.09a30.79,30.79,0,0,0-9.67-4,33.41,33.41,0,0,0-10.46-.62,45.24,45.24,0,0,0-4.49.76c-1.48.41-2.93.88-4.36,1.41a42.2,42.2,0,0,1,16-1.3,29,29,0,0,1,7.63,2.08,34.16,34.16,0,0,1,6.85,4A43.92,43.92,0,0,1,403,287.76,120.91,120.91,0,0,1,410.62,302c.82,1.66,1.3,3.17,1.11,3.29s-1-1.14-1.81-2.78a131.74,131.74,0,0,0-7.13-12.23,45.78,45.78,0,0,0-9-10.07,35.43,35.43,0,0,0-5.47-3.69,28.33,28.33,0,0,0-5.86-2.45,29.16,29.16,0,0,0-12.6-.59,51.42,51.42,0,0,0-6.5,1.47c-2.16.65-4.4,1.42-6.57,2.22-4.37,1.62-8.65,3.56-12.9,5.64s-8.45,4.39-12.69,6.73-8.47,4.75-13,7.14a126.22,126.22,0,0,1-18.17,9.78A133.73,133.73,0,0,1,280,313.32c1.74-.25,3.55-.52,5.33-.86a110.82,110.82,0,0,0,31.66-11c4.84-2.57,9.06-5.2,13.25-7.74s8.27-5,12.35-7.35,8.2-4.48,12.4-6.34a80.54,80.54,0,0,1,12.74-4.61,29.88,29.88,0,0,1,12.48-.64,24.35,24.35,0,0,1,6,1.91c1,.43,2,1,2.93,1.57l1.43.91c.47.32.92.66,1.39,1a3.43,3.43,0,0,1,1.24,1.3c0,.16-.57-.14-1.28-.71a34.1,34.1,0,0,0-5.53-3.35,23.58,23.58,0,0,0-5.66-1.9,28.42,28.42,0,0,0-11.8.43,53,53,0,0,0-6.09,1.81c-2.09.77-4.18,1.59-6.25,2.5-4.16,1.82-8.27,3.9-12.46,6.19-6.94,3.81-13.63,8-20.56,12.22a144.23,144.23,0,0,1-22.77,11.33A121.9,121.9,0,0,0,324,299.42c6.85-3.94,13.26-7.88,19.68-11.39a128.33,128.33,0,0,1,19.49-8.86c6.47-2.23,12.53-3.19,18.14-1.73a7.09,7.09,0,0,1,2.48,1,1,1,0,0,1,.61,0c.36.11.71.25,1.08.38a8.45,8.45,0,0,1,1.12.45l1.17.54c.39.19.76.4,1.15.61.78.4,1.5.91,2.27,1.38s1.48,1,2.18,1.65a4.62,4.62,0,0,1,1.31,1.48C394.82,285.35,394.42,285.13,393.82,284.62ZM224.91,117l-.25-.06.66-.06,1.38.56Zm-4.76,9.32h0l-.83-.27Zm75.33,80.64,3.46-5.63c1.17-1.88,2.27-3.93,3.33-5.93a105.39,105.39,0,0,0,5.48-12.55A86.84,86.84,0,0,0,313,155.38a79,79,0,0,1-1.1,13.78,83.08,83.08,0,0,1-2.64,10.24,88,88,0,0,1-3.74,9.75,102.53,102.53,0,0,1-4.7,9.23l-1.31,2.23-1.35,2.1ZM216.38,117a12.81,12.81,0,0,1,3.37.46,5.71,5.71,0,0,1,1.43-1.18,38.22,38.22,0,0,1,4.49-2.32c-.43-.24-.07-.4.07-.55l.47-.41-5.1,2C219.56,115.69,218,116.52,216.38,117Zm-8.47,8.88-.24,0-.27-.72Zm.5,1.2.26-.1C208.8,127.27,208.67,127.25,208.41,127.12Zm2.38-.87a2.34,2.34,0,0,0-.52-.06Zm15.9,13.89-2-3.08,1.84,3Z"/><path d="M294.11,155.55l.37,0c-.06.22-.28.36-.57.47,3.49-.1,6-3,7.24-5.78a1.39,1.39,0,1,0-1.16-2.45,3.16,3.16,0,0,1-.67,0,13.54,13.54,0,0,0-5.57.27H295a5.31,5.31,0,0,0-1.62.53c.14.07.28.16.41.24a4.29,4.29,0,0,0-4.14,3.6,3,3,0,0,0,3.5,3.07Z"/><path d="M299.3,157.44c-1.12.11-2.21.22-3.34.31l-.31-.11.75.91,0-.07a6.21,6.21,0,0,1,2.18-3.41l.33-.4a.93.93,0,0,0,0-.75,1.07,1.07,0,0,0-1.48-.46l-.7.31c-2,.42-4.4,2-4,4.2.1.5.62.86,1,1.26a1.56,1.56,0,0,0,2.13.36,1.5,1.5,0,0,0,.63-2l.47-.12-.13.42c-.19-.69.39-1.27.7-1.89l.67-.65-1.47-1.21-.28.46.2.11a17.33,17.33,0,0,1-1.54,2.59l-.62,1.24a.81.81,0,0,0,.76.91h.68l-.34,0c1.28-.39,2.51-.93,3.79-1.25a.41.41,0,0,0,.36-.43A.35.35,0,0,0,299.3,157.44Z"/><path d="M295.79,160.1a.94.94,0,0,0-.71.19v.19l.51,0C296,160.52,296,160.29,295.79,160.1Z"/><path d="M295.07,160.48h-.21l.19.07,0,0Z"/><path d="M379.63,149.44a12.2,12.2,0,0,0,6.79.45,18,18,0,0,0,7.31-4.1c.17-.15.26-.31.21-.37s-.21,0-.35.15a17.8,17.8,0,0,1-7.23,4,11.85,11.85,0,0,1-6.61-.46c-.16,0-.35-.05-.39,0S379.47,149.38,379.63,149.44Z"/><path d="M416.25,119.09c0,.2.05.21.16,0a2,2,0,0,0,.22-.65c0-.16-.05-.18-.15,0A1.83,1.83,0,0,0,416.25,119.09Z"/><path d="M420.28,122.4c-.3,1.16-.52,2.28-.73,3.28a2,2,0,0,1-.2.53c.13,0,.13.22,0,.64a83.9,83.9,0,0,1-10.84,25.39.86.86,0,0,1,0,.51,8.1,8.1,0,0,1-1.91,3l-.8.79a36.92,36.92,0,0,1-11.41,8.2c-.42.28-.89.57-1.4.85a13.68,13.68,0,0,1-1.72.74,19.88,19.88,0,0,1-3.12,1.24,22.42,22.42,0,0,1-3.34.86,24.17,24.17,0,0,1-3.44.44,26,26,0,0,1-3.41.05c.27.12.42.25.4.38-.12.28-1.18.38-2.4.22-.59-.09-1.14-.2-1.71-.3a42.48,42.48,0,0,0,5.14.91c.27,0,.52,0,.74.07l1.55,0a12,12,0,0,0,1.58,0c1.08-.11,2.16-.18,3.23-.37s2.33-.52,3.46-.83,2.16-.79,3.21-1.21,2-1,3-1.49,1.87-1.11,2.71-1.74a38.14,38.14,0,0,0,8.4-8.26,56.07,56.07,0,0,0,5.55-9l1.12-2.28,1-2.3c.32-.76.67-1.52.95-2.28l.85-2.3a1.74,1.74,0,0,1,.33-.65c.1-.09.16,0,.09.19l-.85,3c-.28,1-.62,1.94-.93,2.92-.58,2-1.36,3.88-2.13,5.87a44.07,44.07,0,0,1-7.56,12.37,37.82,37.82,0,0,1-8.16,7c-.79.51-1.65,1-2.5,1.44s-1.8.84-2.71,1.24l-1.4.59c-.47.19-1,.31-1.48.47-1,.29-2,.59-3.05.81a40.93,40.93,0,0,1-12,.49l-2.66-.32-2.42-.38-2.27-.4-2.15-.4-2-.52-1.87-.44-.92-.2-.86-.17-1.7-.31a37,37,0,0,0-6.14-.46,39.51,39.51,0,0,0-11.41,1.93,51.79,51.79,0,0,0-8.05,3.4c-2.79,1.71-5.51,3.43-8.26,5.42-1.27,1.24-3.4.88-4.82-.87a4.73,4.73,0,0,1-1-3.64l-.4.25-.77.22a3.13,3.13,0,0,1-2.29-.32l-1-.46c-1.62-1.07-3.49-1.59-5.13-2.75l-.31-.67-.25-.08a3.75,3.75,0,0,1-1.95-1l-.48-.74a8.25,8.25,0,0,1-1-2.76,3,3,0,0,1-.52-1,4.19,4.19,0,0,1-1.9-2.19.58.58,0,0,1-.45-.74.77.77,0,0,1,.19-.3h0a4.94,4.94,0,0,0-.6-.25l-.38.1-1.12.42a3.33,3.33,0,0,1-1.06-.15c-1.37-1-1.38-1-1.73-1.55l0-.21-.65.08a1.66,1.66,0,0,1-.33-.1c-.24-.28-.24-.28-.38-.34a1.17,1.17,0,0,1-.18-.21c-.06-.46-.06-.46-.13-.56a1,1,0,0,1,0-.23l.24-.41,1.07.41-.09-.34.37.27-.3-.27.39,0-.49-.08a2.83,2.83,0,0,0,.89-.48,1.26,1.26,0,0,0,.45-.37,1.42,1.42,0,0,1-.14-.16c.72-.31.72-.31,1.44-.59l.3.12a.35.35,0,0,1,.22-.32l.37-.16,0-.09,0,0,.17-.33,0-.08h0l.77-1.43a3.32,3.32,0,0,1,.66-.2l-.26-.05c-.18,0-.27-.38-.35-.37a23.78,23.78,0,0,0-5.26,1.71.6.6,0,0,1-.82,0,.51.51,0,0,1,.07-.76c1.92-3.6,6.16-5.83,10.31-6.38,1-.31,2-.64,3-1l-.21-.08.84-.12.08,0-.83-.28c-.16,0-.31,0-.47,0-2.26.85-4.67,1-7,1.68-1.25.34-2.53.38-3.79.64a.47.47,0,1,1-.39-.83c3.16-2.46,7.59-4.3,11.48-3.81a3.91,3.91,0,0,1,2.09-.35h0l-.64-.27c.55-.11,1,.14,1.54.11l-.47-.55c2.68-.68,5.37-1.94,8.13-1.81l.29,0a14.85,14.85,0,0,1,1.37-1.12,3,3,0,0,1,.37-.25l.11-.06.25-.1.51-.19c.69-.25,1.4-.49,2.16-.71l-3.09.63c1-.42,2.1-.85,3.18-1.23a35.36,35.36,0,0,1,3.48-.9,42.22,42.22,0,0,1,5.08-.65,38,38,0,0,1,5,0,21.83,21.83,0,0,1,7.68,1.75,70.65,70.65,0,0,1,18.5,2.76c5.82,1.63,10.95,3.75,14.84,4.82.38.09.69.3.72.48s-.28.24-.67.16c-2.8-.56-6.31-1.76-10.2-3a86.37,86.37,0,0,0-12.62-3,77.82,77.82,0,0,1,10.49,3.17c3.3,1.2,6.39,2.52,9.14,3.51.74.24,1.38.41,2.08.62s1.24.37,1.85.63c.41.12.75.18,1.1.25l1.06.23,1,.1a4.36,4.36,0,0,0,.94.06,8.21,8.21,0,0,0,1.79-.08c.3,0,.6-.06.9-.11l.92-.25a13,13,0,0,0,3.73-1.62l.94-.58.91-.7a21.28,21.28,0,0,0,1.82-1.56,43.57,43.57,0,0,0,5.43-6.66,73.51,73.51,0,0,0,4.51-8.11c1-2.06,1.9-4.21,2.81-6.29.44-1,.83-2.14,1.25-3.19s.85-2.11,1.22-3.2c.76-2.16,1.6-4.28,2.32-6.51s1.56-4.41,2.3-6.72c.38-1.23.95-2.31,1.27-2.38s.26.88-.11,2.12c-2.74,9.73-5.85,19.25-10.23,27.92a56.88,56.88,0,0,1-7.74,11.76,29.3,29.3,0,0,1-4.83,4.31,16.69,16.69,0,0,1-5.29,2.47,13,13,0,0,1-4.48.43.53.53,0,0,1,0,.17c0,.22-.16.4-.42.55a6.94,6.94,0,0,0,1.35.08,7.48,7.48,0,0,0,1.34,0q.68-.08,1.35-.12l1.38-.31c5-1.93,9.29-6.42,13.63-12a102.44,102.44,0,0,0,7.91-11.87,164.83,164.83,0,0,0,6.27-17.25,1.23,1.23,0,0,1,.25-.54c.09-.07.1.07,0,.31-.54,2.07-1,4.2-1.71,6.27s-1.26,4.19-2,6.25c.45-.57.85-.86,1.08-.71s.28.75.14,1.58l1.17-2.79c.22-.58.49-1,.62-.94s.07.57-.14,1.13c-.79,1.9-1.55,3.82-2.38,5.7s-1.66,3.76-2.64,5.54a68.4,68.4,0,0,1-7.28,12.61,3.21,3.21,0,0,1,1.46-.66h0l1.32-1.85A124.51,124.51,0,0,0,413.79,125c2.46-6.7,4.64-13.58,6.68-20.57.08-.27.19-.49.25-.48s0,.24,0,.48l-1.86,6.31q-1,3.14-2,6.24h0c.09-.16.17-.17.15,0a1.73,1.73,0,0,1-.22.65c-.11.17-.17.13-.15,0a163.47,163.47,0,0,1-9,22.26,140.39,140.39,0,0,0,9-20.16c.2-.79.39-1.57.59-2.37a1.57,1.57,0,0,1,.26-.55c.07,0,.08.14,0,.36s-.11.44-.16.66c.47-1.32,1-2.28,1.33-2.16s.2,1.42-.29,2.8c-.62,1.86-1.23,3.73-1.88,5.58s-1.37,3.67-2.12,5.47L414,130.7l-.36,1.24c1.33-2.75,2.47-5.58,3.63-8.39s2.17-5.69,3.09-8.57c.15-.5.37-.9.48-.87s.08.45-.07,1A152.56,152.56,0,0,1,416,130.55a89.56,89.56,0,0,1-7.07,15,55,55,0,0,1-5.6,10.24l1.05-1.12c4.39-4.86,6.92-10.14,9.07-15.3s3.67-10.44,5.47-15.92a1,1,0,0,1,.27-.5c.07,0,.06.2,0,.48-1.71,5.37-3.06,10.4-5.28,15.71a93.64,93.64,0,0,1-6.33,12.53,64.59,64.59,0,0,0,6.65-12c.82-2.06,1.72-4.08,2.42-6.16l1.13-3.09,1-3.13a3.72,3.72,0,0,1,.41-.93.42.42,0,0,1,0-.23c.24-1.09.5-2.26.79-3.45a1.46,1.46,0,0,1,.26-.6C420.32,122,420.33,122.14,420.28,122.4ZM307.92,157.06l-.15-.06h.41l.84.5Zm-3.34,5.7h0l-.5-.25ZM362,145.93a107.66,107.66,0,0,0-15.51-3.25c1.3,0,2.6,0,3.9.18A61.89,61.89,0,0,1,362,145.93Zm-59.26,10.44a7.8,7.8,0,0,1,2,.6,3.17,3.17,0,0,1,.91-.66,23.57,23.57,0,0,1,2.81-1.18c-.26-.2,0-.28.05-.36l.3-.24-3.16.93C304.67,155.74,303.69,156.17,302.71,156.37Zm-5.48,5-.14,0-.12-.48Zm.21.8.16,0C297.66,162.3,297.59,162.27,297.44,162.16Zm1.46-.31a.79.79,0,0,0-.3-.09Zm8.67,10.39-.95-2.14.87,2.09Z"/></g></g></svg>