<svg xmlns="http://www.w3.org/2000/svg" viewBox="0 0 496.32 385.68"><g id="Layer_2" data-name="Layer 2"><g id="Layer_1-2" data-name="Layer 1"><path d="M253.13,132.11c.2,0,.41.11.61.16a1.62,1.62,0,0,1-1.11.61c5.9.77,11-3,14.06-6.84,1.47-.34,2.48-1.47,2.25-2.6s-1.66-1.87-3.21-1.53a4.74,4.74,0,0,1-1.11-.14,20.53,20.53,0,0,0-4.44-1.16,32.47,32.47,0,0,0-4.88-.2l2.16.4a10.29,10.29,0,0,0-2.91.3c.19.17.4.34.6.5-3.6-.44-7.52,1.62-8.42,4.6s1.39,5.47,4.85,5.73Z"/><path d="M261.07,136.51c-1.86-.1-3.71-.27-5.61-.45l-.49-.25.93,1.65,0-.12c.71-2,2.79-3.55,4.81-4.73l.67-.52a1.41,1.41,0,0,0,.33-1.15,1.8,1.8,0,0,0-2.28-1.18l-1.28.27a12.59,12.59,0,0,0-5.32,1.47,5.1,5.1,0,0,0-2.84,4.13c0,.82.76,1.51,1.25,2.24a2.64,2.64,0,0,0,3.44,1.1,2.5,2.5,0,0,0,1.73-3l.83-.05-.37.63c-.07-1.14,1.11-1.87,1.84-2.78.44-.27.87-.57,1.32-.82l-2-2.32-.61.65c.11.08.29.21.29.22a32.49,32.49,0,0,1-3.5,3.64l-1.46,1.82a1.23,1.23,0,0,0,1,1.64l1.13.18-.55-.16c2.23-.33,4.48-.76,6.67-.94a.71.71,0,0,0,.72-.57A.55.55,0,0,0,261.07,136.51Z"/><path d="M254.38,139.76a1.77,1.77,0,0,0-1.25.13,2.17,2.17,0,0,1-.08.29l.85.16C254.5,140.46,254.6,140.11,254.38,139.76Z"/><path d="M253.05,140.18l-.35-.07.3.17s0-.05,0-.05Z"/><path d="M351.28,128.35q11.43,3.59,22.27,8.16c.24.11.47.11.52,0s-.11-.27-.34-.36c-7.23-3.09-14.63-5.83-22.26-8.24-.26-.07-.5,0-.55.08S351,128.28,351.28,128.35Z"/><path d="M400.15,160.2c-.19,0-.23.07-.11.22a.87.87,0,0,0,.53.29c.15,0,.21-.09.1-.22A.86.86,0,0,0,400.15,160.2Z"/><path d="M395.11,166.37a15,15,0,0,0-2.74-.65.88.88,0,0,1-.41-.2c0,.17-.26.23-.61.14-6.89-1.64-14-3.66-21.16-4.9a1.11,1.11,0,0,1-.44.33,3.6,3.6,0,0,1-2.62-.06l-.71-.31c-2.94-1.05-5.92-2-8.88-2.9a8.87,8.87,0,0,1-2.24,0l-8.31.43a.61.61,0,0,1,.17.53c-.13.44-.81.68-1.53.58l-1.09-.07c1,.19,2,.44,3,.7a1.57,1.57,0,0,1,.4.13l3.47.43c5.15.55,10.22,1.11,15.28,1.74,2.54.29,5,.68,7.57,1s5,.81,7.52,1.34a.75.75,0,0,1,.52.24c0,.11,0,.22-.2.2-6.65-.48-12.68.43-19.74.3a172.1,172.1,0,0,0-24.53,1.44c-8.22-.18-15.76,1.61-23.48,4-2.85.92-5.6,1.82-8.23,2.8-5.42,2.12-10.44,4.18-15.2,6.59a3.66,3.66,0,0,1-3.67.49,6.19,6.19,0,0,1-3.18-3.11,7.77,7.77,0,0,1-.47-6l-.68.28-1.2.11a4.71,4.71,0,0,1-3.31-1.16l-1.33-1c-2.15-2.17-4.8-3.46-7-5.79l-.3-1.14-.36-.19a6.16,6.16,0,0,1-2.73-2.12l-.56-1.3a13,13,0,0,1-.86-4.63,4.81,4.81,0,0,1-.53-1.66,6.67,6.67,0,0,1-2.37-4,.91.91,0,0,1-.48-1.29,1.05,1.05,0,0,1,.4-.41h0a7.66,7.66,0,0,0-.89-.57l-.65.05-1.94.38a5.3,5.3,0,0,1-1.66-.51c-2-1.87-2-1.87-2.36-2.89,0-.12,0-.24,0-.35-.81,0-.87,0-1.1,0a3.09,3.09,0,0,1-.51-.23c-.31-.5-.31-.5-.52-.64a2,2,0,0,1-.24-.37c.05-.75.05-.75,0-.92a1.45,1.45,0,0,1,.06-.38l.53-.58,1.64.92,0-.56.53.52-.41-.51.64.13-.79-.26a5.53,5.53,0,0,0,1.64-.52,2.35,2.35,0,0,0,.86-.49,3.25,3.25,0,0,1-.19-.28c1.31-.28,1.31-.28,2.59-.51a3.65,3.65,0,0,1,.44.26.58.58,0,0,1,.47-.43l.66-.15.09-.14,0,0,.4-.48.07-.11h0l1.77-2a9.43,9.43,0,0,1,1.14-.1c-.13-.05-.27-.09-.4-.15s-.3-.68-.43-.69a37.51,37.51,0,0,0-9.27,1.17,1.07,1.07,0,0,1-1.39-.17.83.83,0,0,1,.4-1.2,19.38,19.38,0,0,1,8.72-5.54,26.59,26.59,0,0,1,10.44-1.14c1.69-.17,3.38-.32,5.06-.45l-.31-.2,1.37.11h.14l-1.21-.71c-.25,0-.49-.09-.74-.12a45.89,45.89,0,0,1-5.87.16c-2-.08-4-.12-6,0-2.2.08-4.27-.19-6.47-.2a.89.89,0,0,1-1.11-.5c-.1-.37.26-.79.77-.9,6.2-2.87,14-4.11,19.95-2a6.25,6.25,0,0,1,3.41.25h.05l-.9-.64c.91,0,1.53.59,2.37.72l-.54-1c4.41-.1,9-.9,13.09.21a3.42,3.42,0,0,1,.46,0,13.26,13.26,0,0,1,5.73-1.84c-.88-.08-1.75-.11-2.62-.17a18.37,18.37,0,0,1,5.65-.9,24.25,24.25,0,0,1,4.14.3,29.8,29.8,0,0,1,4,.87,16,16,0,0,1,6.14,3.2A191.08,191.08,0,0,1,349,127.42c.51.09.93.37,1,.64s-.36.41-.86.33c-7.05-.79-14.22-1.53-21.45-1.84,6,1.1,11.92,2.44,17.88,3.77l2.3.4a13.42,13.42,0,0,1,2.22.65c7.56,1.82,14.51,4.08,22,6.3,6.41,1.93,11.95,3.85,18.16,6.29,8.71,3.46,16.48,7.24,24,12.74,1,.69,1.77,1.65,1.65,2.11s-1.07.29-2.09-.38a171.38,171.38,0,0,0-25.6-12.72c-8.86-3.6-18-6.64-27.56-9.69-2.08-.61-4.11-1.29-6.16-1.83a1.22,1.22,0,0,1,0,.27,1.17,1.17,0,0,1-.71.77c2.31.63,4.59,1.47,6.87,2.27a76.41,76.41,0,0,1,19.61,6c2.23,1,4.24,2.27,6.22,3.43s3.85,2.45,5.71,3.75a144.07,144.07,0,0,1,15.25,7.68c.21.1.39.27.41.39s-.13.14-.34,0c-3.6-1.66-7.29-3.28-11-4.85.42.59.58,1.13.33,1.5s-.86.51-1.65.42l2.38,1.32c.49.28.79.64.68.83s-.6.16-1.06-.09c-1.62-.88-3.23-1.77-4.88-2.59s-3.28-1.67-5-2.43c-4.11-1.64-8.28-3.05-12.47-4.42a2.94,2.94,0,0,1,.78,1.61h0l1.92.69A106.49,106.49,0,0,1,412,166.75c.21.14.34.31.29.4s-.25,0-.44-.09a110.57,110.57,0,0,0-9.85-6.13v0c.11.12.08.24-.11.22a1,1,0,0,1-.52-.29c-.13-.15-.06-.24.1-.23a104.62,104.62,0,0,0-19.65-8.23,122.09,122.09,0,0,1,17.54,8.47l2,.72a.67.67,0,0,1,.4.37c0,.1-.16.12-.35,0l-.57-.21c1.06.64,1.68,1.46,1.4,1.91s-1.44.28-2.53-.34c-1.51-.77-3-1.54-4.53-2.26s-3-1.48-4.56-2.16l-1-.37-1.1-.22c4.67,2.34,9.16,5,13.53,7.72.38.22.63.53.55.69s-.47.12-.86-.09A209.23,209.23,0,0,0,376.19,157l-4.71-.1-4.74.09,1.08.35c4.68,1.29,9.14,2.15,13.62,3.09a71.75,71.75,0,0,1,13.32,4c.23.09.37.25.35.34s-.21.12-.43,0A89.39,89.39,0,0,0,381.56,161c-1.87-.46-3.71-.82-5.51-1.18s-3.6-.58-5.38-.77c6.9,1.81,13.78,3.23,20.52,5.81a1.52,1.52,0,0,1,.7.45.28.28,0,0,1,.22-.05,21.85,21.85,0,0,1,2.89.68.66.66,0,0,1,.43.34C395.48,166.38,395.33,166.42,395.11,166.37ZM275,138.66l-.21-.14.64.16,1.14,1Zm-7.27,7.74h0l-.7-.55Zm65.66-17.8c-2.13-.27-4.25-.63-6.39-1-1.06-.17-2.13-.37-3.19-.59s-2.14-.4-3.22-.64h3.15c1.62.31,3.24.64,4.85,1S331.84,128.19,333.43,128.6ZM267,135.9a12.57,12.57,0,0,1,3,1.6,5.57,5.57,0,0,1,1.69-.74,42.22,42.22,0,0,1,4.87-.87c-.34-.39.05-.44.22-.54l.55-.26c-1.75.13-3.52.26-5.35.36A49.78,49.78,0,0,1,267,135.9Zm-10.64,6.22-.22-.09,0-.8Zm.1,1.33h.27C256.76,143.72,256.64,143.67,256.44,143.45Zm2.48-.13a1.63,1.63,0,0,0-.47-.23Zm10.68,18.75-.9-3.62.78,3.52Z"/><path d="M193,226.74l.59,0c-.08.35-.4.6-.85.8a10.59,10.59,0,0,0,6.83-3.4,16.36,16.36,0,0,0,3.93-6.42,2.44,2.44,0,0,0,1.2-3.17,2.39,2.39,0,0,0-3.33-.66,3.89,3.89,0,0,1-1,.15,22.07,22.07,0,0,0-8.69.79l2-.06a6.86,6.86,0,0,0-2.49.94l.67.34c-3.28.38-6.12,3.17-6.17,6.13s2.63,5,5.84,4.65Z"/><path d="M201.39,229.32c-1.74.32-3.48.56-5.25.79l-.5-.14,1.27,1.4,0-.11c.13-2.08,1.61-4,3.09-5.68l.48-.65a1.51,1.51,0,0,0,0-1.2,1.76,1.76,0,0,0-2.41-.65c-.36.18-.71.38-1.06.57-3,.88-6.74,3.63-5.92,7,.19.79,1.06,1.32,1.68,1.94a2.52,2.52,0,0,0,3.45.43,2.39,2.39,0,0,0,.82-3.29l.74-.23c-.06.23-.12.46-.17.69-.37-1.09.51-2.06.92-3.1l1-1.11L197,224.22l-.38.76c.12.07.32.14.32.16a25.81,25.81,0,0,1-2.18,4.29l-.89,2a1.3,1.3,0,0,0,1.29,1.4l1.1,0-.55-.05c2-.7,3.91-1.67,5.89-2.31a.67.67,0,0,0,.51-.73A.55.55,0,0,0,201.39,229.32Z"/><path d="M196.07,233.88a1.62,1.62,0,0,0-1.13.35v.3h.82C196.35,234.54,196.36,234.18,196.07,233.88Z"/><path d="M194.94,234.53h-.35l.32.11,0,0Z"/><path d="M346.87,184.7c1.12.11,2.25.18,3.37.31l3.35.43,6.69.86,6.64,1.11,3.32.54,3.29.68L380.1,190l6.5,1.57,3.25.79c1.08.27,2.15.59,3.22.89l6.42,1.8c.57.16,1.07.22,1.13.11s-.36-.35-.89-.48l-6.43-1.82-3.21-.9-3.25-.8-6.5-1.58-6.57-1.36-3.29-.67-3.31-.56-6.64-1.11c-2.22-.32-4.46-.58-6.69-.88s-4.47-.59-6.73-.76a2,2,0,0,0-1.2.15C345.88,184.5,346.3,184.65,346.87,184.7Z"/><path d="M466.56,234.82c-.38-.13-.42,0-.09.24a4.58,4.58,0,0,0,1.21.68c.32.11.37,0,.1-.24A5,5,0,0,0,466.56,234.82Z"/><path d="M459.57,240c-1.05-.48-2.08-.95-3.08-1.36s-2-.75-2.92-1.05a4.3,4.3,0,0,1-1-.48c0,.2-.42.15-1.2-.16A321.14,321.14,0,0,0,403,221.93a1.77,1.77,0,0,1-.82.26,16.83,16.83,0,0,1-6-.77l-1.75-.54c-1.78-.5-3.59-.89-5.38-1.33s-3.58-.91-5.39-1.26l-5.41-1.09-2.71-.55-2.72-.45a40.89,40.89,0,0,1-5.16-.19c-3.19,0-6.39.12-9.57.14l-9.61.46c.39.16.63.35.61.55s-.48.42-1.09.56a9.16,9.16,0,0,1-2.26.25l-2.6.06c2.48.1,5,.13,7.44.39a6.73,6.73,0,0,1,1,.12c2.73.12,5.49.12,8.3.34a288,288,0,0,1,70.74,12.05,4.14,4.14,0,0,1,1.23.54c.18.17.09.27-.33.16-14.65-3.64-27.75-4.7-44.06-6.31a221.06,221.06,0,0,0-57.2,1.86A146.83,146.83,0,0,0,302,233a166.3,166.3,0,0,0-26.58,10.66c-1.5.67-2.91,1.52-4.35,2.27l-4.28,2.28-4.12,2.45c-1.37.81-2.76,1.56-4.05,2.46l-1,.64-.49.32-.18.13-.63.48-1.26.92c-.84.62-1.71,1.18-2.51,1.83-1.63,1.27-3.27,2.48-4.92,3.67s-3.19,2.53-4.82,3.77a5,5,0,0,1-4,1.46,6.48,6.48,0,0,1-4.23-2.21,7.43,7.43,0,0,1-1.92-5.79l-.65.46-1.24.43a5.14,5.14,0,0,1-3.81-.3l-1.65-.67c-2.72-1.59-5.73-2.2-8.48-3.95l-.55-1.06-.4-.11a5.94,5.94,0,0,1-3.2-1.45l-.84-1.14a13.57,13.57,0,0,1-1.88-4.36,4.84,4.84,0,0,1-.9-1.51,6.8,6.8,0,0,1-3.23-3.35,1,1,0,0,1-.77-1.16,1.18,1.18,0,0,1,.28-.5h0a7.88,7.88,0,0,0-1-.35c-.37.13-.6.19-.6.19-.93.42-.93.42-1.76.76a5.07,5.07,0,0,1-1.7-.18c-2.29-1.43-2.29-1.43-2.9-2.35,0-.11,0-.22-.07-.33-.77.13-.82.14-1,.16a2.58,2.58,0,0,1-.53-.12c-.4-.43-.4-.43-.63-.53a2.74,2.74,0,0,1-.32-.32c-.12-.73-.12-.73-.24-.88a1.6,1.6,0,0,1,0-.37c.22-.43.31-.59.35-.66l1.75.58-.18-.53.63.4-.51-.42h.63l-.8-.1a4.36,4.36,0,0,0,1.4-.81,1.93,1.93,0,0,0,.68-.64,2.2,2.2,0,0,1-.24-.24c1.12-.55,1.12-.55,2.23-1.06a3.13,3.13,0,0,1,.49.16.54.54,0,0,1,.31-.53l.57-.29,0-.15,0,0,.23-.55,0-.13h0c.17-.39.39-.95,1.08-2.36a7.48,7.48,0,0,1,1-.35l-.42,0c-.29-.06-.47-.6-.59-.58a17.44,17.44,0,0,0-2.13.53c-.68.23-1.35.5-2,.79-1.34.58-2.66,1.23-4,1.85a1,1,0,0,1-1.31.1.84.84,0,0,1,.06-1.24c2.7-6,9.14-9.75,15.48-11,1.51-.57,3-1.18,4.48-1.8l-.35-.12,1.28-.28.12-.05-1.33-.36-.71.09a28.44,28.44,0,0,1-5.29,1.72c-1.8.47-3.6.94-5.41,1.54s-3.91.8-5.9,1.26a.84.84,0,0,1-1.13-.24.78.78,0,0,1,.43-1,35.83,35.83,0,0,1,8.14-5.23,20.91,20.91,0,0,1,9.17-1.75,5.6,5.6,0,0,1,3.13-.8l.05,0-1-.35c.82-.27,1.58.14,2.39,0l-.83-.83c2-.66,3.93-1.58,5.88-2.37a30.66,30.66,0,0,1,3-1.06,15.12,15.12,0,0,1,3.06-.48,3.43,3.43,0,0,1,.44-.09,20.59,20.59,0,0,1,1.75-2l.5-.45s.07-.07.14-.12l.43-.24.88-.5a36,36,0,0,1,3.73-1.87c-.94.3-1.84.66-2.74,1l-2.65,1a2.88,2.88,0,0,1,.27-.17l.34-.2.67-.41,1.37-.79a28.73,28.73,0,0,1,2.8-1.48c1.91-.92,3.89-1.8,6-2.62,11.38-4.36,24.9-6.53,31.66-5.37a245.08,245.08,0,0,1,33.54-6.18A269,269,0,0,1,341.48,184a4.26,4.26,0,0,1,2.4.56c.12.27-.65.48-1.82.45a265,265,0,0,0-48.55,4.61,288.63,288.63,0,0,1,41.23-2c1.77,0,3.54-.07,5.33,0s3.51.22,5.24.43c17.7,1,34.16,4,51.53,8l2.77.63,2.7.72,5.31,1.42c1.76.44,3.47,1,5.19,1.51l5.12,1.56c3.39,1.07,6.74,2.29,10.16,3.44s6.82,2.57,10.35,3.93a283.42,283.42,0,0,1,27.91,13.11,244.9,244.9,0,0,1,25.84,16.34c2.26,1.62,4.13,3.42,4.13,4s-1.83-.29-4.09-1.89a307.53,307.53,0,0,0-27.75-16.68A317.55,317.55,0,0,0,435,210.56a294.93,294.93,0,0,0-31.18-10.51,312.08,312.08,0,0,0-32.95-7.39c-2.43-.45-4.87-.73-7.29-1.1L360,191c-1.21-.15-2.42-.26-3.62-.39a.68.68,0,0,1,.1.28c0,.36-.51.65-1.3.85l4.09.46c1.37.19,2.73.42,4.09.63l4.08.66,2.05.33,2,.42A190.39,190.39,0,0,1,417.14,205a233.92,233.92,0,0,1,28.53,13.49,283.07,283.07,0,0,1,34.41,18.3,3.24,3.24,0,0,1,1,.79c.11.18-.17.1-.63-.17l-5.95-3.27-3-1.65-3.05-1.57-6.14-3.16-6.27-3c1.15,1,1.73,1.75,1.42,2.1s-1.5.2-3.16-.34l5.52,3c1.14.61,1.94,1.27,1.8,1.45s-1.12-.14-2.21-.7c-3.75-2-7.47-4-11.31-5.84-1.91-.92-3.79-1.9-5.73-2.77l-5.8-2.61a295.18,295.18,0,0,0-28.89-9.87,7.06,7.06,0,0,1,2.44,2.11h0l4.49,1.39c27.69,7.64,54.5,21.05,78.43,38.55.48.33.83.67.78.75s-.46-.11-.88-.41c-3.65-2.59-7.26-5.23-11-7.62-1.88-1.2-3.71-2.48-5.63-3.61l-5.72-3.44,0,0c.27.24.27.37-.1.23a4.9,4.9,0,0,1-1.2-.72c-.31-.27-.22-.35.1-.23A245,245,0,0,0,424.49,216a256.85,256.85,0,0,1,40.77,19.24c1.48.7,3,1.34,4.47,2.12a3.35,3.35,0,0,1,1,.75c.06.14-.27.05-.68-.17l-1.23-.63c2.41,1.51,4.07,3,3.76,3.43s-2.7-.52-5.22-2c-6.9-3.76-13.81-7.43-20.92-10.69l-2.34-1-2.42-.84a290.76,290.76,0,0,1,31.72,17.58c.89.52,1.57,1.1,1.5,1.27s-.88-.12-1.77-.65a299.87,299.87,0,0,0-28.58-14,289,289,0,0,0-30-11c-3.47-.62-7-1.1-10.47-1.63-3.53-.37-7-.81-10.59-1.1.86.18,1.73.41,2.6.64,11.11,2.61,21.43,5.16,31.57,8.25a197.51,197.51,0,0,1,30.21,11.69,2.05,2.05,0,0,1,.9.67c0,.11-.38,0-.88-.25a221.82,221.82,0,0,0-29.69-11.39l-6.35-1.94-6.27-1.66-3.09-.78-3.1-.66c-2.06-.43-4.09-.85-6.12-1.23l6.07,1.6,3,.78,3,.86,6,1.71,5.92,1.89,3,.94,2.93,1L439,231c1.94.75,3.87,1.55,5.81,2.34l2.91,1.2c1,.41,1.92.87,2.88,1.3a7.83,7.83,0,0,1,1.7,1,.79.79,0,0,1,.44.06,66.94,66.94,0,0,1,6.32,2.52,3.18,3.18,0,0,1,1.06.69C460.33,240.27,460,240.23,459.57,240ZM215,228l-.24-.08h.65l1.4.73Zm-4.67,9.44h0l-.82-.38Zm96.63-48.2-7.27.83c-1.22.11-2.42.28-3.63.46l-3.61.49c-4.85.55-9.63,1.45-14.5,2.07l6.93-1.68,2.74-.44,2.76-.32,5.51-.62c1.83-.23,3.68-.34,5.53-.45ZM206.69,227.39a12.12,12.12,0,0,1,3.27.79A5.3,5.3,0,0,1,211.3,227a27.93,27.93,0,0,1,4.27-2.14c-.44-.29-.09-.44,0-.59l.43-.4c-1.58.61-3.25,1.1-4.86,1.76A42.86,42.86,0,0,1,206.69,227.39Zm-8.22,8.41-.23-.05L198,235S198.21,235.33,198.47,235.8Zm.41,1.26.25-.06C199.24,237.26,199.12,237.23,198.88,237.06Zm2.3-.61a1.79,1.79,0,0,0-.49-.12Zm14.73,16-1.71-3.36,1.57,3.29Z"/><path d="M14.11,154.09l.26,0c0,.17-.16.28-.36.36,2.45,0,3.94-2.31,4.34-4.49a1.11,1.11,0,0,0,.33-1.51,1.08,1.08,0,0,0-1.51-.34,1.72,1.72,0,0,1-.44.06,8.48,8.48,0,0,0-3.68.26h.86a2.68,2.68,0,0,0-1,.4l.31.18a2.53,2.53,0,1,0,.26,5.06Z"/><path d="M18,155.54c-.79.11-1.57.18-2.36.24l-.23-.08.6.71,0-.06a4.46,4.46,0,0,1,1.24-2.62l.18-.32a.75.75,0,0,0-.06-.57.81.81,0,0,0-1.1-.34l-.45.24c-1.3.34-2.85,1.51-2.43,3.17.1.38.49.66.77,1A1.12,1.12,0,0,0,16,155.65l.33-.09-.06.32c-.19-.53.18-1,.33-1.45l.41-.5L15.8,153l-.14.35a.76.76,0,0,0,.15.08,10.31,10.31,0,0,1-.86,2l-.36.94a.69.69,0,0,0,.61.7l.49,0-.25,0c.89-.28,1.74-.7,2.63-1a.28.28,0,1,0-.12-.54Z"/><path d="M15.62,157.58a.63.63,0,0,0-.5.14v.14l.37,0C15.76,157.91,15.76,157.74,15.62,157.58Z"/><path d="M15.12,157.86H15l.14.06v0Z"/><path d="M37,137.56a35.79,35.79,0,0,0,3.7-2s0-.1,0-.17-.12-.1-.15-.08a41.26,41.26,0,0,1-3.7,2s0,.1,0,.17S37,137.58,37,137.56Z"/><path d="M50.62,138.2a.24.24,0,0,0,.14.17c.05,0,.1,0,.08-.07a.28.28,0,0,0-.13-.17C50.64,138.1,50.6,138.14,50.62,138.2Z"/><path d="M54.65,143.89a1.89,1.89,0,0,0-.11.74c0,.05,0,.06-.08.05a.4.4,0,0,1,.13.32,15.09,15.09,0,0,1-2,4.47,1.3,1.3,0,0,1,.16.31c.14.34.09.61-.11.69l-.18,0c-.64.23-1.24.49-1.89.7a.79.79,0,0,1-.16.52,12.93,12.93,0,0,1-.59,2,.92.92,0,0,1,.26.23c.18.26.21.52.09.6l-.18.16.68-.22a.16.16,0,0,1,.1,0,4.18,4.18,0,0,0,.57-.47,15.25,15.25,0,0,0,3.23-6c0-.06,0-.09.11-.05a.31.31,0,0,1,.12.19c-.07,2,.31,4.3-.22,6a29.6,29.6,0,0,1-2.25,5.57c-1.46,1.13-2.35,2.76-3.5,4.35-.39.54-.8,1-1.21,1.52-.08.07-.07.09-.2.21l-.34.31-.67.61L45,167.83c-1.82,1.58-3.68,3.09-5.58,4.61a3.32,3.32,0,0,1-5.64-2.86l-.37.26-.69.26a3,3,0,0,1-2,0l-.86-.3c-1.41-.75-3-1.06-4.35-1.93l-.26-.53-.2-.05a2.82,2.82,0,0,1-1.58-.73l-.39-.58a6.67,6.67,0,0,1-.87-2.15,2.36,2.36,0,0,1-.43-.75,3.35,3.35,0,0,1-1.55-1.68.47.47,0,0,1-.37-.57.56.56,0,0,1,.13-.24h0c-.18-.08-.24-.11-.46-.19l-.28.09-.82.33a2.29,2.29,0,0,1-.8-.12c-1.05-.75-1.05-.75-1.33-1.21a.94.94,0,0,1,0-.16l-.47.05a.83.83,0,0,1-.24-.08c-.19-.21-.19-.21-.29-.26a1.27,1.27,0,0,1-.14-.17c-.07-.35-.07-.35-.12-.43a.94.94,0,0,1,0-.18l.15-.31.8.33-.09-.26.29.21-.24-.21.29,0-.36-.07a1.91,1.91,0,0,0,.62-.35.78.78,0,0,0,.3-.29l-.12-.12,1-.46.22.09a.23.23,0,0,1,.14-.24l.25-.13,0-.07,0,0,.1-.26V156h0l.41-1.12a2.51,2.51,0,0,1,.46-.16l-.2,0c-.13,0-.23-.29-.29-.29a17.29,17.29,0,0,0-3.59,1.35.41.41,0,1,1-.58-.58,8.93,8.93,0,0,1,6.42-5.1q.95-.47,1.86-1l-.16,0,.55-.16.05,0-.62-.15-.31.05a26.61,26.61,0,0,1-4.54,1.63,21.16,21.16,0,0,1-2.51.55.36.36,0,0,1-.5-.13.37.37,0,0,1,.13-.5c1.85-1.87,4.4-3.44,7.1-3.37a2.13,2.13,0,0,1,1.33-.44h0l-.49-.15c.34-.14.71,0,1.05-.07l-.44-.37c1.61-.8,3-2.09,4.8-2.44l.18-.07a8.35,8.35,0,0,1,.94-1.79l-.45.12a1.42,1.42,0,0,1,.51-.89,3.13,3.13,0,0,1,3.36.47,49.84,49.84,0,0,0,3.69-3.72c0-.08.19,0,.31.09s.16.3.1.37a16.31,16.31,0,0,1-2.25,3.23,15.84,15.84,0,0,0,2.91-1.46l.28-.31a.65.65,0,0,1,.38-.18,13,13,0,0,0,3-2.76,30.52,30.52,0,0,0,1.94-3.13,12.4,12.4,0,0,1,2.93-4.17c.14-.18.49-.05.78.27s.4.74.26.92c-1.91,3.18-3.6,6.55-6.59,8.6l-1,.64.12.14a2,2,0,0,1,.31.56,9,9,0,0,1,1.21-.58,6.63,6.63,0,0,1,2.5-2.88,9.24,9.24,0,0,1,2.72-.63c.66-.85,1.27-1.76,2-2.59,0-.05.08,0,.14,0s.1.14.08.19a14.3,14.3,0,0,1-1,2.4,2.38,2.38,0,0,1,.76.68,2.29,2.29,0,0,1,.43.94l.42-.29c.09-.05.25,0,.37.18s.15.34.07.4l-1.7,1.21c-.52.68-1.06,1.34-1.63,2a3.2,3.2,0,0,1,.78.61h0l.29-.26a14,14,0,0,1,4.77-5.61s.11,0,.17.08.07.16,0,.18a10.37,10.37,0,0,0-1.73,1.36h0a.24.24,0,0,1,.14.17c0,.07,0,.1-.08.08a.25.25,0,0,1-.14-.18,14.77,14.77,0,0,0-2.53,3.34,17.43,17.43,0,0,1,3-2.25l.12-.52s.08,0,.15,0,.09.15.07.19l0,.13c.21-.11.59.08.87.46s.36.81.16.94c-.46.47-.95.91-1.44,1.33l-.12.19,0,.31c.92-.47,1.85-.91,2.8-1.32.06-.06.2,0,.31.13s.13.29.07.35a28.22,28.22,0,0,1-3.34,4.41c0,.94,0,1.88-.07,2.82a.76.76,0,0,0,.19-.12c1.54-1.2,1.58-3.85,2.82-5.34,0,0,.1,0,.15.05s.09.15,0,.18A16.4,16.4,0,0,0,52.62,146a15.62,15.62,0,0,0-.9,2.4c1-1,1.56-2.6,2.44-3.79,0-.07.1-.07.19,0a.21.21,0,0,1-.05-.11,2.61,2.61,0,0,1,.12-.78c0-.05.07-.05.14,0A.21.21,0,0,1,54.65,143.89Zm-30.49,11-.11,0h.3l.69.33Zm-1.86,4.63h0l-.39-.18A4,4,0,0,0,22.3,159.55ZM36,141.36a4.63,4.63,0,0,1-2.15.9l.36-.42A16.16,16.16,0,0,1,36,141.36ZM20.29,154.64a6.11,6.11,0,0,1,1.54.39,2.17,2.17,0,0,1,.57-.56,19.71,19.71,0,0,1,1.86-1.1c-.22-.14-.07-.22,0-.29l.17-.21c-.7.32-1.4.63-2.13.94A19,19,0,0,1,20.29,154.64Zm-3.55,3.93-.11,0-.11-.37Zm.2.61.11,0C17.1,159.29,17.05,159.27,16.94,159.18Zm1-.24-.23-.07Zm7.07,8-.81-1.66.74,1.63Z"/><path d="M9.18,240.46l.45.67a2.83,2.83,0,0,1-1.52-.77,25.67,25.67,0,0,0,4.26,4.08,39.51,39.51,0,0,0,4.89,3,36.3,36.3,0,0,0,5,2.16,41.52,41.52,0,0,0,4.64,1.52c1.69,1.29,3.48,2,4,1.35s-.4-2.44-2.12-3.91a11.77,11.77,0,0,1-1-1.19,47.85,47.85,0,0,0-3.49-5c-1.34-1.63-2.81-3.39-4.44-5.15.58.8,1.17,1.64,1.74,2.44a22.56,22.56,0,0,0-2.95-2.91c.06.26.14.57.2.83a22.6,22.6,0,0,0-5.51-5,8.91,8.91,0,0,0-5.52-1.62c-3.06.47-3,4.31,0,7.92Z"/><path d="M13.6,250.28c-1.8-1.74-3.52-3.6-5.25-5.52l-.28-.59-.38,1.76.07-.09a8.77,8.77,0,0,1,4,.47A29.7,29.7,0,0,1,16.16,248l1.07.41a1.19,1.19,0,0,0,1.18-.21c.49-.54-.13-1.77-1.4-2.77-.48-.39-1-.75-1.45-1.11a33.69,33.69,0,0,0-2.9-2.41,20.69,20.69,0,0,0-3.33-2.12c-2.24-1.08-4.42-1.61-5.88-.67-.66.43-.5,1.58-.62,2.46-.47,1.13.63,2.92,2.44,3.95s3.63,1,4.1,0l.87.77-.86,0c.82-.65,2.55.13,3.95.37l1.94.84-.23-3L14,244.24c0,.15.13.39.12.39-2.07-.44-4-.91-6.2-1.57L5,242.61c-.84.12-1,.95-.37,1.83l1,1.18L5.22,245c1.22,1,2.48,1.87,3.73,2.86s2.5,1.92,3.67,2.88a1.32,1.32,0,0,0,1.18.37C14.06,251,14,250.62,13.6,250.28Z"/><path d="M4.36,245.74A3.51,3.51,0,0,0,3,244.61l-.32.09.7.9C3.91,246.24,4.29,246.14,4.36,245.74Z"/><path d="M2.72,244.7l-.28-.38.15.38c.07,0,.08,0,.08,0Z"/><path d="M134.75,293.39c-.8-2.83-1.7-5.73-2.75-8.74-.27-.76-.52-1.51-.81-2.27l-.91-2.44c-.62-1.72-1.29-3.41-2-5.08-2.72-6.7-5.73-12.9-9-19.34l-5.2-10.23-1.42-2.8-1.44-3-1.5-3.09-.8-1.66-.91-2c-1.11-2.51-2.09-4.87-3-7.24s-1.79-4.7-2.61-7c-1.65-4.69-3.12-9.38-4.46-14.12-.35-1.27-.84-2.28-1.12-2.26s-.19,1,.16,2.23q2,7.13,4.43,14.17c1.65,4.73,3.42,9.35,5.61,14.33l.89,2,.83,1.76,1.5,3.11,1.45,3c.47,1,1,1.9,1.42,2.81l5.18,10.2c3.25,6.4,6.25,12.53,9,19.17,1.33,3.24,2.69,6.93,3.71,9.73q1.58,4.47,2.78,8.65c.25.75.6,1.34.85,1.42S135,294.11,134.75,293.39Z"/><path d="M147.57,48.52c-.41.73-.23.81.4.22a11,11,0,0,0,1.77-2.24c.34-.61.15-.73-.39-.22A11.06,11.06,0,0,0,147.57,48.52Z"/><path d="M155.2,62.75a84.73,84.73,0,0,0-5.14,11.47,9,9,0,0,1-.9,1.87c.39-.08.29.83-.25,2.33-1.44,3.65-2.48,7.45-3.67,11.18-.51,1.89-.94,3.81-1.43,5.7-.24,1-.5,1.88-.71,2.84l-.54,2.88c-.33,1.92-.76,3.81-1,5.74s-.59,3.82-.74,5.77l-.29,2.89c-.1,1-.14,2-.21,2.91-.15,1.94-.2,3.89-.26,5.83a167.12,167.12,0,0,0,5.75,46.59,2.93,2.93,0,0,1,1.23,1.11c1.51,1.91,2.95,6,4,10.37l.67,3.33A164.48,164.48,0,0,0,157.75,205c.59,1.53,1.21,3.06,1.78,4.4l.47,1,.56,1.22,1.16,2.51c1.6,3.39,3.26,7,4.92,10.83a65.31,65.31,0,0,1,5.66,10.45,169.85,169.85,0,0,1,8.94,20.77c.61,1.77,1.24,3.56,1.82,5.35l.84,2.69c.28.89.57,1.77.84,2.77a111.75,111.75,0,0,1,2.79,12c.13-1.11.36-1.81.7-1.87.86.15,2,4,2.18,8.71.13,2.39.19,4.8.14,7.22a118.11,118.11,0,0,0-.84-20.46c-.14-.95-.24-1.84-.32-2.64q-.48-2.67-1-5.3c-.37-1.63-.75-3.27-1.12-4.91s-.85-3.29-1.27-4.94l-1.41-5a165.26,165.26,0,0,0-7.94-21.17c-3.07-6.71-6.47-12.91-9.49-18.14-.69-1.23-1.39-2.45-2.09-3.68-.53-.9-1.14-2-1.72-3.18-1.19-2.29-2.35-4.72-3.46-7.18-2.23-4.93-4.23-10-6-15.18A200.8,200.8,0,0,1,145.58,150a150.63,150.63,0,0,1-2.35-31.92,5.2,5.2,0,0,1,.4-2.36c.26-.37.51-.24.5.54a107.71,107.71,0,0,0,2.2,19.61,164.69,164.69,0,0,0,4.94,18.5c1,3,2.09,6.07,3.19,9.11s2.37,6.11,3.64,9.2q3.81,9.25,8.56,18.95c.94,1.91,1.92,3.79,2.92,5.59s2,3.56,3,5c.23.36.46.7.64.93.27.39.61.94.9,1.41l1.93,3c1.38,2.14,2.71,4.38,4.15,6.84s2.82,5,4.24,7.69,2.72,5.49,4,8.35a176.7,176.7,0,0,1,6.64,17.64c1,3,1.82,6,2.65,8.94l1.18,4.46c.39,1.61.8,3.28,1.16,5a111.72,111.72,0,0,1,2.65,21.36,109.57,109.57,0,0,1-1.93,23.18c-.39,2-.81,3.94-1.32,5.91-.26,1-.5,1.94-.8,3l-1,3.09a92.07,92.07,0,0,1-4.78,11.88A91.46,91.46,0,0,1,178,355.49a97.13,97.13,0,0,1-18.1,14.63A104.32,104.32,0,0,1,120,384.77a80.43,80.43,0,0,1-20.8.42,72.67,72.67,0,0,1-10.31-1.88c-1.71-.47-3.39-.93-5.06-1.54l-1.24-.42-.63-.22-.77-.29c-1-.39-2-.78-3-1.21s-1.9-1-2.83-1.49-1.76-1.14-2.63-1.7a26.51,26.51,0,0,1-2.43-1.82l-1.16-1c-.37-.32-.71-.67-1.06-1A44.91,44.91,0,0,1,61.12,364a71,71,0,0,1-7.93-18.22c-.61-2.06-1.12-4.23-1.55-6.22s-.88-4-1.31-6c-.85-4-1.69-8.05-2.62-12a75.92,75.92,0,0,0-3.25-11,34.39,34.39,0,0,0-4.84-8c-.49-.48-.9-1-1.4-1.41l-.94-.82c-.23-.2-.52-.37-.77-.56a13.29,13.29,0,0,0-1.57-1,33.07,33.07,0,0,0-3.35-1.72l-1.78-.71c-.61-.22-1.27-.42-1.88-.62s-1.25-.38-1.91-.54-1.28-.33-2-.47c-1.42-.25-2.66-.56-4.16-.7l-2.13-.25-2.25-.16a14.05,14.05,0,0,1-1.63-.09c-.54-.05-1.07-.11-1.55-.2a9.25,9.25,0,0,1-2.51-.82c-1.46-.67-2.22-1.79-2-3.11.3-1.61,2-3.07,4.43-3.78l-1.17-.18-1.73-.54a8.47,8.47,0,0,1-1.14-.47,6.77,6.77,0,0,1-1-.54,4.33,4.33,0,0,1-1.39-1.41l-.9-1.36a23,23,0,0,0-2.06-3.8A14.3,14.3,0,0,1,1,273.15l.66-.94-.27-.37A4.56,4.56,0,0,1,0,268.59l.5-1.25a9.27,9.27,0,0,1,3.05-3.55,3,3,0,0,1,.81-1.41,4.24,4.24,0,0,1,.69-4.26c-.39-.57-.14-1.08.56-1.14a1.87,1.87,0,0,1,.76.11h0c-.18-.43-.23-.56-.49-1.08l-.73-.53c-1.27-.75-1.27-.75-2.37-1.44a7.14,7.14,0,0,1-1.3-1.78c-.45-2.86-.45-2.89,0-3.84a1.81,1.81,0,0,1,.29-.19c-.8-.77-.85-.84-1.06-1.06a3.08,3.08,0,0,1-.32-.62c.11-.59.11-.59,0-.87a1.72,1.72,0,0,1,.08-.45c.67-.38.67-.38.74-.55a1.27,1.27,0,0,1,.36-.16l1,.19c.86,2.07.87,2.08.87,2.08l.41-.35.11.79v-.67l.53.68-.57-.89a9.88,9.88,0,0,0,2,1.25,4.49,4.49,0,0,0,1.25.53,1.23,1.23,0,0,1,0-.33c1.53,1.05,1.53,1.08,3,2.14a5.06,5.06,0,0,1,.25.55,1,1,0,0,1,.81.21l.79.51.2,0v0l.77.12.16,0h0c.52.07,1.29.21,3.32.67.45.34.87.68,1.25,1-.11-.15-.21-.29-.31-.45s.2-.59.08-.71c-.76-.74-1.55-1.47-2.37-2.18s-1.66-1.35-2.52-2c-1.72-1.29-3.51-2.74-5.27-4-.68-.31-1.22-.95-1.2-1.43s.63-.58,1.33-.25a27.77,27.77,0,0,1,6.35,2.17,39.55,39.55,0,0,1,6.33,3.65,65.87,65.87,0,0,1,11.33,9.84c.91.8,1.82,1.71,2.73,2.54s1.81,1.65,2.69,2.57l-.17-.39,1.29,1.53.15.15-.75-1.52-.66-.85c-1.05-1-2.07-2-3.07-3l-1.49-1.53c-.49-.49-1-1-1.48-1.48-1-1-2-2-2.95-3.07s-2-2-3.05-3-2.15-2.18-3.15-3.22-2-2.2-3.05-3.31c-.58-.47-.9-1.06-.71-1.34s.83-.09,1.4.38a74.39,74.39,0,0,1,11.81,9.15c.93.87,1.82,1.74,2.68,2.61s1.68,1.85,2.46,2.76,1.5,1.8,2.17,2.73,1.29,1.87,1.85,2.77a22.6,22.6,0,0,1,1.77,1.92,17.21,17.21,0,0,1,1.4,2l.05.06-.48-1.2c.86,1.08,1.11,1.91,1.84,2.92,0-.27.06-.57.08-.84,1,1.32,2.11,2.67,3.18,4s2.06,2.83,3,4.26a42,42,0,0,1,4.55,9.05L56,285a31.39,31.39,0,0,1,2,3.59,9.66,9.66,0,0,1,.43,1l.11.3.36,1.09a22.5,22.5,0,0,1,.63,2.21c.18.75.38,1.52.53,2.26s.25,1.46.38,2.2.2,1.49.3,2.24.17,1.51.21,2.28a59,59,0,0,0-.69-6.21c-.14-1-.43-2.14-.66-3.23-.11-.55-.27-1.08-.43-1.63l-.42-1.44.51,1.54a17.25,17.25,0,0,1,.49,1.74c.29,1.18.59,2.36.76,3.46s.38,2.22.5,3.36.22,2.25.29,3.37a113.76,113.76,0,0,1-.4,12.75,50.9,50.9,0,0,0,1.3,15.72c.33,1.26.65,2.53,1.07,3.76l.6,1.85.66,1.73a47.86,47.86,0,0,0,3.11,6.43,35.15,35.15,0,0,0,7.67,9.31,24.17,24.17,0,0,0,6.83,4l.65.15c.22,0,.45,0,.66.07.45,0,.86.12,1.29.1s.85,0,1.26,0l1.61-.07a46.65,46.65,0,0,0,6.56-.81c1.09-.24,2.15-.42,3.22-.74l1.59-.42,1.58-.51c1-.3,2.08-.72,3.11-1.08s2-.82,3-1.25a61.45,61.45,0,0,0,11.25-6.52,54.49,54.49,0,0,0,9.24-8.59,48.9,48.9,0,0,0,6.63-9.8,41.16,41.16,0,0,0,3.54-10.07,31.25,31.25,0,0,0,.49-9.36l-.11-1.1-.15-1.23c-.11-.82-.22-1.63-.39-2.46-.29-1.64-.72-3.3-1.17-5a9.32,9.32,0,0,1-.34-1.87,1.43,1.43,0,0,1,.24-1.06c.39-.18,1.07.74,1.48,2.17a55.46,55.46,0,0,1,1.78,7.39,42,42,0,0,1,.6,7,37.42,37.42,0,0,1-3.56,14.84c-4.67,10.1-14.06,19.81-25.72,25.48a60.81,60.81,0,0,0,24.13-19.7,47,47,0,0,0,6.46-12.69,36.82,36.82,0,0,0,1.51-6.42c.2-1.05.23-2.13.34-3.17l0-1.57,0-.78v-.86a52.35,52.35,0,0,0-.81-7c-.41-2.38-.82-4.74-1.22-7.1-.77-3-1.65-6.11-2.68-9.22-.54-1.55-1-3.12-1.64-4.69l-1.92-5.06q-2-5.09-4.26-9.92c-1.51-3.23-3.07-6.39-4.71-9.56-3.28-6.36-7-12.71-11.12-20.69l-.79-1.51-.86-1.67c-.61-1.25-1.18-2.42-1.71-3.57-1.07-2.31-2.07-4.56-3-6.82-1.91-4.52-3.66-9.06-5.3-13.68q-2.1-5.93-3.83-11.77c-1.13-3.92-2.19-7.81-3.1-11.72S94.3,176.93,93.58,173c-.34-2-.63-3.94-1-5.91s-.5-4-.72-6c-.41-4-.74-8-.92-12s-.19-8.14,0-12.28a155.48,155.48,0,0,1,7.53-43.17c1-2.85,2.09-5.67,3.15-8.47l.8-2.1.91-2c.61-1.34,1.22-2.69,1.84-4a156,156,0,0,1,18-29.32A171.13,171.13,0,0,1,172.88,4.93c2.53-1.46,5.08-2.7,7.07-3.6a14.27,14.27,0,0,1,4-1.33c.92.07-2.53,2.28-7.47,5.25A176.81,176.81,0,0,0,126,51.6l-2.56,3.64c-.83,1.22-1.72,2.41-2.48,3.69-1.57,2.54-3.17,5.07-4.7,7.65l-4.24,8c-1.35,2.72-2.56,5.52-3.79,8.31l-.92,2.1-.8,2.16-1.6,4.33c-.51,1.45-1.09,2.87-1.53,4.36L102,100.28c-.46,1.48-.79,3-1.19,4.49s-.77,3-1.07,4.51l-.94,4.54-.76,4.56A163.36,163.36,0,0,0,96.55,155q.63,9.11,2.12,18.06c1,6,2.24,11.87,3.73,17.71s3.22,11.63,5.18,17.36,4.11,11.42,6.64,17.2c.63,1.46,1.29,2.91,2,4.45l.57,1.19.52,1,1,2c1.31,2.55,2.58,5.05,3.84,7.38,2.48,4.73,4.77,9.08,6.93,13.47a207.72,207.72,0,0,1,9.78,23,.83.83,0,0,1,.4-.33c.62-.21,1.52.44,2.41,1.49-1.49-4.49-3.13-9.09-4.88-13.49s-3.63-8.78-5.61-13.17c-3.32-5.86-6.95-11.67-10.8-18.51L119,231.21l-.36-.66-.42-.78-.79-1.55c-1-2-1.94-3.95-2.82-5.9-1.77-3.89-3.37-7.79-4.85-11.75A170.68,170.68,0,0,1,98.88,160a145.35,145.35,0,0,1,.18-18.1c.18-3,.54-5.89.88-8.8.19-1.45.44-2.89.66-4.33s.47-2.87.76-4.29a144.29,144.29,0,0,1,10.42-32.63,155.9,155.9,0,0,1,19.47-37.39A173.7,173.7,0,0,1,158.84,23.9a10.13,10.13,0,0,1,2.1-1.59c.4-.15.05.33-.75,1.08a180.35,180.35,0,0,0-19.23,21A168.54,168.54,0,0,0,124.86,69c2.21-2.38,3.87-3.56,4.51-2.93s.15,3.08-1.14,6.47l3.37-5.65c.57-.93,1.1-1.89,1.71-2.8l1.82-2.72c1.53-2.22,3-3.8,3.3-3.5s-.53,2.25-1.93,4.36L134.68,65c-.59.93-1.13,1.89-1.69,2.84-1.11,1.91-2.26,3.8-3.34,5.74-2,4-4.14,7.85-5.82,12A141.89,141.89,0,0,0,115.32,111c-4.16,21.16-3.42,42.8.69,63.52.28-3,.89-5.29,1.82-6.45,0,0,0,0,0,0-.48-3.2-.89-6.39-1.21-9.59a146.54,146.54,0,0,1,.21-44.78,135.77,135.77,0,0,1,15-43l2.78-5,3-4.84c1-1.62,2-3.23,3.16-4.76l3.31-4.65A184.82,184.82,0,0,1,158.83,34,210.92,210.92,0,0,1,193.52,5.1,7.49,7.49,0,0,1,195.42,4a5.68,5.68,0,0,1-1.51,1.22,208,208,0,0,0-40.82,36l.06-.06c.57-.48.81-.46.37.22a12.35,12.35,0,0,1-1.87,2.17c-.65.56-.75.38-.39-.21C140.36,56.39,131.14,71.07,125,87.07c-1.67,3.94-2.79,8.08-4.1,12.14-.61,2.05-1.07,4.14-1.6,6.2s-.88,4.17-1.28,6.26a141,141,0,0,0-2.11,25.2,141.12,141.12,0,0,1,9-45.67,151.89,151.89,0,0,1,10.06-21c1.85-3.39,4-6.59,6.11-9.82,1-1.63,2.22-3.14,3.33-4.71s2.22-3.14,3.45-4.62c1.88-2.77,3.7-5.58,5.8-8.25a8.18,8.18,0,0,1,1.81-1.76c.27-.11,0,.52-.62,1.26s-1.12,1.5-1.69,2.25a44.22,44.22,0,0,1,5.15-5.19c1.45-1.16,2.47-1.71,2.76-1.39s-.36,1.64-1.47,3.33a61.09,61.09,0,0,1-4.52,6.22c-9.56,12.62-17.8,26.24-23.51,40.93l-1.67,4.83-1,5a153.84,153.84,0,0,1,15.74-32.75A200.93,200.93,0,0,1,166.76,36.9c1.39-1.53,2.75-2.68,3-2.52S169,36,167.67,37.5C154.18,53.82,143.23,72.29,136.76,92c-6.67,19.65-8.18,40.52-6.1,61a184.11,184.11,0,0,0,14.15,38.39c-.46-1.63-.92-3.28-1.39-4.93a279.09,279.09,0,0,1-7-30.82,176.93,176.93,0,0,1-2.53-30.16,131.49,131.49,0,0,1,1-15.07c.11-1.26.36-2.5.54-3.75s.38-2.52.68-3.76c.55-2.49,1.06-5,1.68-7.52a125.77,125.77,0,0,1,12.11-29.62,3.67,3.67,0,0,1,1.36-1.71c.23,0-.05.72-.6,1.7a122.09,122.09,0,0,0-11.48,28.75l-.5,1.81-.39,1.84-.76,3.66c-.56,2.42-.9,4.89-1.27,7.35-.62,5-1.05,9.93-1.19,15A147.05,147.05,0,0,0,141.85,172c-3.44-15.48-5.41-30.89-5-46.33.06-1.93.18-3.85.28-5.78s.28-3.86.54-5.77.45-3.86.81-5.76l.48-2.87c.19-1,.42-1.91.63-2.86q.66-2.87,1.31-5.75l1.71-5.69c.52-1.92,1.26-3.78,2-5.67l1.06-2.83.53-1.41.62-1.39a14.84,14.84,0,0,1,1.79-3.29,1.54,1.54,0,0,1,.11-.85,57.08,57.08,0,0,1,2.36-6l1.37-3.09c.49-1,1-2,1.57-3.07a6.64,6.64,0,0,1,1.44-2C155.75,61.3,155.62,61.86,155.2,62.75ZM26.74,264l-.13-.24.57.63.52,1.43Zm-13.67-2.86h0l-.35-.87Zm115,82a60.33,60.33,0,0,1-19.34,12.54,56.58,56.58,0,0,1-22.79,4.38,48.71,48.71,0,0,0,11.3-1.34A66.38,66.38,0,0,0,128.07,343.18ZM20.15,255.44A20.19,20.19,0,0,1,22.21,259a14.63,14.63,0,0,1,2.31,1.21c1,.72,2,1.42,2.95,2.11s1.91,1.39,2.82,2.17c-.09-.47.35-.11.6,0l.75.45c-1.9-1.73-3.88-3.27-5.89-5C23.94,258.41,21.87,257,20.15,255.44ZM4.39,248.89c0-.09-.09-.16-.14-.26l.61-.47Zm-1,.84.29.24C3.51,250.17,3.44,250,3.41,249.73Zm2.64,2.15a2.42,2.42,0,0,0-.3-.53ZM2.17,271.52c.69-1,1.39-1.94,2.09-2.89-.72.9-1.44,1.81-2.15,2.75Z"/></g></g></svg>