<svg xmlns="http://www.w3.org/2000/svg" viewBox="0 0 396.37 399.47"><g id="Layer_2" data-name="Layer 2"><g id="Layer_1-2" data-name="Layer 1"><path d="M20.1,360.28l0,.26a.49.49,0,0,1-.43-.25c.63,2.36,3.21,3.23,5.43,3.08a1.1,1.1,0,0,0,1.54-.06,1.08,1.08,0,0,0-.05-1.55,1.39,1.39,0,0,1-.16-.41,8.55,8.55,0,0,0-1.17-3.5l.21.84a2.78,2.78,0,0,0-.63-.88l-.11.34a2.53,2.53,0,1,0-4.83,1.52Z"/><path d="M19.65,364.36c-.3-.73-.56-1.47-.82-2.22l0-.25-.53.76,0,0a4.47,4.47,0,0,1,2.85.54l.35.1a.8.8,0,0,0,.55-.2.82.82,0,0,0,.05-1.15l-.35-.37c-.65-1.18-2.17-2.39-3.67-1.57-.35.19-.52.64-.76,1a1.11,1.11,0,0,0,.09,1.57,1.12,1.12,0,0,0,1.58-.09l.17.3-.33,0c.46-.32,1-.07,1.49,0L21,363l.6-1.35-.37,0c0,.06,0,.16,0,.16a10.63,10.63,0,0,1-2.13-.33l-1-.11a.67.67,0,0,0-.53.76l.11.47,0-.25c.49.8,1.1,1.51,1.58,2.32a.28.28,0,0,0,.38.12A.28.28,0,0,0,19.65,364.36Z"/><path d="M17.09,362.62a.63.63,0,0,0-.25-.45l-.14,0c0,.09,0,.23.06.36S17,362.79,17.09,362.62Z"/><path d="M16.7,362.21l0-.16,0,.16h.05Z"/><path d="M41.81,378.33a38.27,38.27,0,0,0,2.88,3.08s.11,0,.16-.07.08-.14,0-.17A39.9,39.9,0,0,1,42,378.09s-.11,0-.16.06S41.78,378.3,41.81,378.33Z"/><path d="M44.58,391.68a.27.27,0,0,0-.13.18c0,.06,0,.1.09.07a.31.31,0,0,0,.14-.18C44.69,391.68,44.64,391.65,44.58,391.68Z"/><path d="M40.08,397a1.82,1.82,0,0,0-.75.07.06.06,0,0,1-.07-.06.4.4,0,0,1-.28.21,15.23,15.23,0,0,1-4.83-.84,1.09,1.09,0,0,1-.25.23c-.3.22-.57.24-.7.06l-.07-.16c-.38-.56-.79-1.08-1.15-1.65a.85.85,0,0,1-.55,0,13.79,13.79,0,0,1-2.05-.08,1,1,0,0,1-.16.3c-.2.24-.45.34-.56.24l-.2-.13c.13.2.26.4.38.6a.15.15,0,0,1,0,.1,4.6,4.6,0,0,0,.6.43,15.15,15.15,0,0,0,6.65,1.63c.06,0,.09,0,.07.09s-.09.15-.15.16c-2,.44-4.08,1.37-5.85,1.28a30.41,30.41,0,0,1-5.95-.79c-1.45-1.13-3.26-1.59-5.09-2.31-.61-.24-1.2-.51-1.77-.8a1.84,1.84,0,0,1-.25-.14l-.38-.24-.76-.5-1.51-1c-2-1.37-3.9-2.79-5.85-4.26a3.32,3.32,0,0,1-1.2-4.54A3.35,3.35,0,0,1,10,383.23l-.33-.29-.43-.61a2.91,2.91,0,0,1-.47-2l.08-.91c.37-1.55.27-3.17.78-4.7l.44-.37v-.21a2.85,2.85,0,0,1,.31-1.72l.46-.52a7,7,0,0,1,1.87-1.38,2.36,2.36,0,0,1,.62-.6A3.38,3.38,0,0,1,14.57,368a.48.48,0,0,1,.73-.43h0c0-.2,0-.26.07-.5a2.6,2.6,0,0,1-.15-.25l-.53-.71a2.33,2.33,0,0,1-.08-.8c.46-1.21.46-1.21.84-1.59l.15-.08c-.13-.32-.14-.35-.17-.44a1.17,1.17,0,0,1,0-.25c.17-.24.17-.24.19-.35a1,1,0,0,1,.12-.18c.33-.15.33-.15.39-.22a.85.85,0,0,1,.17-.06l.34.07-.12.85.23-.15-.13.33.14-.28.06.28,0-.37c.33.4.33.4.5.52a.82.82,0,0,0,.35.22l.09-.15.69.86a1.57,1.57,0,0,1,0,.24.25.25,0,0,1,.27.07l.19.21h.07v0l.28,0h.06l1.19.12a3.51,3.51,0,0,1,.27.4l0-.2c0-.13.23-.3.2-.35a17,17,0,0,0-2.19-3.14.4.4,0,0,1-.15-.56.41.41,0,0,1,.56-.15,8.93,8.93,0,0,1,6.54,4.95c.45.53.92,1.05,1.39,1.57v-.17l.29.49,0,0v-.64c0-.1-.09-.2-.13-.29a26.3,26.3,0,0,1-2.71-4,22.5,22.5,0,0,1-1.16-2.3.36.36,0,1,1,.52-.51c2.28,1.32,4.43,3.4,5,6a2.1,2.1,0,0,1,.75,1.17h0l0-.51c.22.3.16.69.33,1l.25-.53c1.17,1.36,2.77,2.4,3.55,4.05a.61.61,0,0,1,.12.16,8.82,8.82,0,0,1,2,.46l-.23-.41a1.39,1.39,0,0,1,1,.28,3.12,3.12,0,0,1,.38,3.37,48.09,48.09,0,0,0,4.52,2.64c.09,0,.08.18,0,.32s-.24.23-.33.2A16.93,16.93,0,0,1,37.6,377a15.3,15.3,0,0,0,2.14,2.46l.37.19a.77.77,0,0,1,.27.32,13,13,0,0,0,3.43,2.26,31.25,31.25,0,0,0,3.51,1.1,12.29,12.29,0,0,1,4.77,1.8c.21.09.18.46-.07.82s-.61.58-.82.48c-3.56-1.06-7.24-1.86-10-4.24l-.87-.78-.1.15a1.72,1.72,0,0,1-.46.44,10.91,10.91,0,0,1,.86,1,6.52,6.52,0,0,1,3.41,1.71,8.9,8.9,0,0,1,1.28,2.47c1,.43,2,.79,3,1.26,0,0,.06.06,0,.14a.22.22,0,0,1-.16.13,13.07,13.07,0,0,1-2.56-.34A2.57,2.57,0,0,1,44.38,390l.38.33c.08.08.05.25-.07.4s-.3.24-.37.18l-1.6-1.35c-.79-.34-1.56-.7-2.32-1.08a3.41,3.41,0,0,1-.39.9h0l.32.21A13.92,13.92,0,0,1,47,392.8s0,.11,0,.18-.13.11-.16.08A11.87,11.87,0,0,0,45,391.73h0a.29.29,0,0,1-.13.18.06.06,0,0,1-.1-.07.26.26,0,0,1,.14-.17,14.65,14.65,0,0,0-3.87-1.62,17.1,17.1,0,0,1,2.92,2.3l.53,0s0,.08,0,.15-.12.13-.16.12h-.14c.16.17.07.58-.23.95s-.69.55-.87.39a18.48,18.48,0,0,1-1.64-1.07l-.22-.06-.31.05c.68.77,1.34,1.57,2,2.38.07,0,0,.2-.06.33s-.24.21-.31.16a27.94,27.94,0,0,1-5.11-2.14l-2.75.64a1.22,1.22,0,0,0,.17.15c1.54,1.2,4.12.58,5.87,1.4.05,0,0,.09,0,.16s-.12.12-.16.09a16.71,16.71,0,0,0-3-.46,15.31,15.31,0,0,0-2.55-.28c1.26.73,2.9.86,4.28,1.42.07,0,.09.08.07.17a.3.3,0,0,1,.1-.07,2.72,2.72,0,0,1,.78-.08c.06,0,.07,0,0,.14A.27.27,0,0,1,40.08,397ZM21.8,370.23v-.13l.09.29-.15.75S21.77,370.69,21.8,370.23Zm-4.95-.66h0c0-.25.08-.43.08-.43C16.89,369.32,16.87,369.46,16.85,369.57Zm21,8.76a4.52,4.52,0,0,1-1.41-1.86l.5.24C37.3,377.22,37.6,377.76,37.89,378.33ZM21.1,366.4a6,6,0,0,1,0,1.59,2.46,2.46,0,0,1,.69.42,18.17,18.17,0,0,1,1.52,1.52c.08-.25.19-.12.28-.09l.24.11c-.48-.59-1-1.2-1.43-1.83A15.6,15.6,0,0,1,21.1,366.4Zm-4.68-2.46v-.11l.33-.2Zm-.55.35.05.1C15.81,364.48,15.81,364.42,15.87,364.29Zm.49,1a.5.5,0,0,0,0-.24Zm-6,8.83,1.41-1.19L10.42,374Z"/><path d="M9.18,240.46l.45.67a2.83,2.83,0,0,1-1.52-.77,25.67,25.67,0,0,0,4.26,4.08,39.51,39.51,0,0,0,4.89,3,36.3,36.3,0,0,0,5,2.16,41.52,41.52,0,0,0,4.64,1.52c1.69,1.29,3.48,2,4,1.35s-.4-2.44-2.12-3.91a11.77,11.77,0,0,1-1-1.19,47.85,47.85,0,0,0-3.49-5c-1.34-1.63-2.81-3.39-4.44-5.15.58.8,1.17,1.64,1.74,2.44a22.56,22.56,0,0,0-2.95-2.91c.06.26.14.57.2.83a22.6,22.6,0,0,0-5.51-5,8.91,8.91,0,0,0-5.52-1.62c-3.06.47-3,4.31,0,7.92Z"/><path d="M13.6,250.28c-1.8-1.74-3.52-3.6-5.25-5.52l-.28-.59-.38,1.76.07-.09a8.77,8.77,0,0,1,4,.47A29.7,29.7,0,0,1,16.16,248l1.07.41a1.19,1.19,0,0,0,1.18-.21c.49-.54-.13-1.77-1.39-2.77-.49-.39-1-.75-1.46-1.11a33.69,33.69,0,0,0-2.9-2.41,20.69,20.69,0,0,0-3.33-2.12c-2.24-1.08-4.42-1.61-5.88-.67-.66.43-.5,1.58-.62,2.46-.47,1.13.63,2.92,2.44,3.95s3.63,1,4.1,0l.87.77-.86,0c.82-.65,2.55.13,3.95.37l1.94.84-.23-3L14,244.24c0,.15.13.39.12.39-2.07-.44-4-.91-6.2-1.57L5,242.61c-.84.12-1,.95-.37,1.83l1,1.18L5.22,245c1.22,1,2.48,1.87,3.73,2.86s2.5,1.92,3.67,2.88a1.32,1.32,0,0,0,1.18.37C14.06,251,14,250.62,13.6,250.28Z"/><path d="M4.36,245.74A3.51,3.51,0,0,0,3,244.61l-.32.09.7.9C3.91,246.24,4.29,246.14,4.36,245.74Z"/><path d="M2.72,244.7l-.28-.38.15.38c.07,0,.08,0,.08,0Z"/><path d="M134.75,293.39c-.8-2.83-1.7-5.73-2.75-8.74-.27-.76-.52-1.51-.81-2.27l-.91-2.44c-.62-1.72-1.29-3.41-2-5.08-2.72-6.7-5.73-12.9-9-19.34l-5.2-10.23-1.42-2.8-1.44-3-1.5-3.09-.8-1.66-.91-2c-1.11-2.51-2.09-4.87-3-7.24s-1.79-4.7-2.61-7c-1.65-4.69-3.12-9.38-4.46-14.12-.35-1.27-.84-2.28-1.12-2.26s-.19,1,.16,2.23q2,7.13,4.43,14.17c1.65,4.73,3.42,9.35,5.61,14.33l.89,2,.83,1.76,1.5,3.11,1.45,3c.47,1,1,1.9,1.42,2.81l5.18,10.2c3.25,6.4,6.25,12.53,9,19.17,1.33,3.24,2.69,6.93,3.71,9.73q1.58,4.47,2.78,8.65c.25.75.6,1.34.85,1.42S135,294.11,134.75,293.39Z"/><path d="M147.57,48.52c-.41.73-.23.81.4.22a11,11,0,0,0,1.77-2.24c.34-.61.15-.73-.39-.22A11.06,11.06,0,0,0,147.57,48.52Z"/><path d="M155.2,62.75a84.73,84.73,0,0,0-5.14,11.47,9,9,0,0,1-.9,1.87c.39-.08.29.83-.25,2.33-1.44,3.65-2.48,7.45-3.67,11.18-.51,1.89-.94,3.81-1.43,5.7-.24,1-.5,1.88-.71,2.84l-.54,2.88c-.33,1.92-.76,3.81-1,5.74s-.59,3.82-.74,5.77l-.29,2.89c-.1,1-.14,2-.21,2.91-.15,1.94-.2,3.89-.26,5.83a167.12,167.12,0,0,0,5.75,46.59,2.93,2.93,0,0,1,1.23,1.11c1.51,1.91,2.95,6,4,10.37l.67,3.33A164.48,164.48,0,0,0,157.75,205c.59,1.53,1.21,3.06,1.78,4.4l.47,1,.56,1.22,1.16,2.51c1.6,3.39,3.26,7,4.92,10.83a65.31,65.31,0,0,1,5.66,10.45,169.85,169.85,0,0,1,8.94,20.77c.61,1.77,1.24,3.56,1.82,5.35l.84,2.69c.28.89.57,1.77.84,2.77a111.75,111.75,0,0,1,2.79,12c.13-1.11.36-1.81.7-1.87.86.15,2,4,2.18,8.71.13,2.39.19,4.8.14,7.22a118.11,118.11,0,0,0-.84-20.46c-.14-.95-.24-1.84-.32-2.64q-.48-2.67-1-5.3c-.37-1.63-.75-3.27-1.12-4.91s-.85-3.29-1.27-4.94l-1.41-5a165.26,165.26,0,0,0-7.94-21.17c-3.07-6.71-6.47-12.91-9.49-18.14-.69-1.23-1.39-2.45-2.09-3.68-.53-.9-1.14-2-1.72-3.18-1.19-2.29-2.35-4.72-3.46-7.18-2.23-4.93-4.23-10-6-15.18A200.8,200.8,0,0,1,145.58,150a150.63,150.63,0,0,1-2.35-31.92,5.2,5.2,0,0,1,.4-2.36c.26-.37.51-.24.5.54a107.71,107.71,0,0,0,2.2,19.61,164.69,164.69,0,0,0,4.94,18.5c1,3,2.09,6.07,3.19,9.11s2.37,6.11,3.64,9.2q3.81,9.25,8.56,18.95c.94,1.91,1.92,3.79,2.92,5.59s2,3.56,3,5c.23.36.46.7.64.93.27.39.61.94.9,1.41l1.93,3c1.38,2.14,2.71,4.38,4.15,6.84s2.82,5,4.24,7.69,2.72,5.49,4,8.35a176.7,176.7,0,0,1,6.64,17.64c1,3,1.82,6,2.65,8.94l1.18,4.46c.39,1.61.8,3.28,1.16,5a111.72,111.72,0,0,1,2.65,21.36,109.57,109.57,0,0,1-1.93,23.18c-.39,2-.81,3.94-1.32,5.91-.26,1-.5,1.94-.8,3l-1,3.09a92.07,92.07,0,0,1-4.78,11.88A91.46,91.46,0,0,1,178,355.49a97.13,97.13,0,0,1-18.1,14.63A104.32,104.32,0,0,1,120,384.77a80.43,80.43,0,0,1-20.8.42,72.67,72.67,0,0,1-10.31-1.88c-1.71-.47-3.39-.93-5.06-1.54l-1.24-.42-.63-.22-.77-.29c-1-.39-2-.78-3-1.21s-1.9-1-2.83-1.49-1.76-1.14-2.63-1.7a26.51,26.51,0,0,1-2.43-1.82l-1.16-1c-.37-.32-.71-.67-1.06-1A44.91,44.91,0,0,1,61.12,364a71,71,0,0,1-7.93-18.22c-.61-2.06-1.12-4.23-1.55-6.22s-.87-4-1.31-6c-.85-4-1.69-8.05-2.62-12a75.92,75.92,0,0,0-3.25-11,34.39,34.39,0,0,0-4.84-8c-.49-.48-.9-1-1.4-1.41l-.94-.82c-.23-.2-.52-.37-.77-.56a13.29,13.29,0,0,0-1.57-1,33.07,33.07,0,0,0-3.35-1.72l-1.78-.71c-.61-.22-1.27-.42-1.88-.62s-1.25-.38-1.91-.54-1.28-.33-2-.47c-1.42-.25-2.66-.56-4.16-.7l-2.13-.25-2.25-.16a14.05,14.05,0,0,1-1.63-.09c-.54-.05-1.07-.11-1.55-.2a9.25,9.25,0,0,1-2.51-.82c-1.46-.67-2.22-1.79-2-3.11.3-1.61,2-3.07,4.43-3.78l-1.17-.18-1.73-.54a8.47,8.47,0,0,1-1.14-.47,6.77,6.77,0,0,1-1-.54,4.33,4.33,0,0,1-1.39-1.41l-.9-1.36a23,23,0,0,0-2.06-3.8A14.3,14.3,0,0,1,1,273.15l.66-.94-.27-.37A4.56,4.56,0,0,1,0,268.59l.5-1.25a9.27,9.27,0,0,1,3.05-3.55,3,3,0,0,1,.81-1.41,4.24,4.24,0,0,1,.69-4.26c-.39-.57-.14-1.08.56-1.14a1.87,1.87,0,0,1,.76.11h0c-.18-.43-.23-.56-.49-1.08l-.73-.53c-1.27-.75-1.27-.75-2.37-1.44a7.14,7.14,0,0,1-1.3-1.78c-.45-2.86-.45-2.89,0-3.84a1.81,1.81,0,0,1,.29-.19c-.8-.77-.85-.84-1.06-1.06a3.08,3.08,0,0,1-.32-.62c.11-.59.11-.59,0-.87a1.72,1.72,0,0,1,.08-.45c.67-.38.67-.38.74-.55a1.27,1.27,0,0,1,.36-.16l1,.19c.86,2.07.87,2.08.87,2.08l.41-.35.11.79v-.67l.53.68-.57-.89a10.17,10.17,0,0,0,2,1.25,4.49,4.49,0,0,0,1.25.53,1.23,1.23,0,0,1,0-.33c1.53,1.05,1.53,1.08,3,2.14a5.06,5.06,0,0,1,.25.55,1,1,0,0,1,.82.21l.78.51.2,0v0l.77.12.16,0h0c.52.07,1.29.21,3.32.67.45.34.87.68,1.25,1-.11-.15-.21-.29-.31-.45s.2-.59.08-.71c-.76-.74-1.55-1.47-2.37-2.18s-1.66-1.35-2.52-2c-1.72-1.29-3.51-2.74-5.27-4-.68-.31-1.22-.95-1.2-1.43s.63-.58,1.33-.25a27.77,27.77,0,0,1,6.35,2.17,39.55,39.55,0,0,1,6.33,3.65,65.87,65.87,0,0,1,11.33,9.84c.91.8,1.82,1.71,2.73,2.54s1.81,1.65,2.69,2.57l-.17-.39,1.29,1.53.15.15-.75-1.52-.66-.85c-1.05-1-2.07-2-3.07-3l-1.49-1.53c-.49-.49-1-1-1.48-1.48-1-1-2-2-2.95-3.07s-2-2-3.05-3-2.15-2.18-3.15-3.22-2-2.2-3.05-3.31c-.58-.47-.9-1.06-.71-1.34s.83-.09,1.4.38a74.39,74.39,0,0,1,11.81,9.15c.93.87,1.82,1.74,2.68,2.61s1.68,1.85,2.46,2.76,1.5,1.8,2.17,2.73,1.29,1.87,1.85,2.77a22.6,22.6,0,0,1,1.77,1.92,17.21,17.21,0,0,1,1.4,2l.05.06c-.17-.41-.32-.79-.48-1.2.86,1.08,1.11,1.91,1.84,2.92,0-.27.06-.57.08-.84,1,1.32,2.11,2.67,3.18,4s2.06,2.83,3,4.26a42,42,0,0,1,4.55,9.05L56,285a31.39,31.39,0,0,1,2,3.59,9.66,9.66,0,0,1,.43,1l.11.3.36,1.09a22.5,22.5,0,0,1,.63,2.21c.18.75.38,1.52.53,2.26s.25,1.46.38,2.2.2,1.49.3,2.24.17,1.51.21,2.28a59,59,0,0,0-.69-6.21c-.14-1-.43-2.14-.66-3.23-.11-.55-.27-1.08-.43-1.63l-.42-1.44.51,1.54a17.25,17.25,0,0,1,.49,1.74c.29,1.18.59,2.36.76,3.46s.38,2.22.5,3.36.22,2.25.29,3.37a113.76,113.76,0,0,1-.4,12.75,50.9,50.9,0,0,0,1.3,15.72c.33,1.26.65,2.53,1.07,3.76l.6,1.85.66,1.73a47.86,47.86,0,0,0,3.11,6.43,35.15,35.15,0,0,0,7.67,9.31,24.17,24.17,0,0,0,6.83,4l.65.15c.22,0,.45,0,.66.07.45,0,.86.12,1.29.1s.85,0,1.26,0l1.61-.07a46.65,46.65,0,0,0,6.56-.81c1.09-.24,2.15-.42,3.22-.74l1.59-.42,1.58-.51c1-.3,2.08-.72,3.11-1.08s2-.82,3-1.25a61.45,61.45,0,0,0,11.25-6.52,54.49,54.49,0,0,0,9.24-8.59,48.9,48.9,0,0,0,6.63-9.8,41.16,41.16,0,0,0,3.54-10.07,31.25,31.25,0,0,0,.49-9.36l-.11-1.1-.15-1.23c-.11-.82-.22-1.63-.39-2.46-.29-1.64-.72-3.3-1.17-5a9.32,9.32,0,0,1-.34-1.87,1.43,1.43,0,0,1,.24-1.06c.39-.18,1.07.74,1.48,2.17a55.46,55.46,0,0,1,1.78,7.39,42,42,0,0,1,.6,7,37.42,37.42,0,0,1-3.56,14.84c-4.67,10.1-14.06,19.81-25.72,25.48a60.81,60.81,0,0,0,24.13-19.7,47,47,0,0,0,6.46-12.69,36.82,36.82,0,0,0,1.51-6.42c.2-1.05.23-2.13.34-3.17l0-1.57,0-.78v-.86a52.35,52.35,0,0,0-.81-7c-.41-2.38-.82-4.74-1.22-7.1-.77-3-1.65-6.11-2.68-9.22-.54-1.55-1-3.12-1.64-4.69l-1.92-5.06q-2-5.09-4.26-9.92c-1.51-3.23-3.07-6.39-4.71-9.56-3.28-6.36-7-12.71-11.12-20.69l-.79-1.51-.86-1.67c-.61-1.25-1.18-2.42-1.71-3.57-1.07-2.31-2.07-4.56-3-6.82-1.91-4.52-3.66-9.06-5.3-13.68q-2.1-5.93-3.83-11.77c-1.13-3.92-2.2-7.81-3.1-11.72S94.3,176.93,93.58,173c-.34-2-.63-3.94-1-5.91s-.5-4-.72-6c-.41-4-.74-8-.92-12s-.19-8.14,0-12.28a155.48,155.48,0,0,1,7.53-43.17c1-2.85,2.09-5.67,3.15-8.47l.8-2.1.91-2c.61-1.34,1.22-2.69,1.84-4a156.56,156.56,0,0,1,18-29.32A171.13,171.13,0,0,1,172.88,4.93c2.53-1.46,5.08-2.7,7.07-3.6a14.27,14.27,0,0,1,4-1.33c.92.07-2.53,2.28-7.47,5.25A176.81,176.81,0,0,0,126,51.6l-2.56,3.64c-.83,1.22-1.72,2.41-2.48,3.69-1.57,2.54-3.17,5.07-4.7,7.65l-4.24,8c-1.35,2.72-2.56,5.52-3.79,8.31l-.92,2.1-.8,2.16-1.6,4.33c-.51,1.45-1.09,2.87-1.53,4.36L102,100.28c-.46,1.48-.79,3-1.19,4.49s-.77,3-1.07,4.51l-.94,4.54-.76,4.56A163.36,163.36,0,0,0,96.55,155q.63,9.11,2.12,18.06c1,6,2.24,11.87,3.73,17.71s3.22,11.63,5.18,17.36,4.11,11.42,6.64,17.2c.63,1.46,1.29,2.91,2,4.45l.57,1.19.52,1,1,2c1.31,2.55,2.58,5.05,3.84,7.38,2.48,4.73,4.77,9.08,6.93,13.47a207.72,207.72,0,0,1,9.78,23,.83.83,0,0,1,.4-.33c.62-.21,1.52.44,2.41,1.49-1.49-4.49-3.13-9.09-4.88-13.49s-3.63-8.78-5.61-13.17c-3.32-5.86-6.95-11.67-10.8-18.51L119,231.21l-.36-.66-.42-.78-.79-1.55c-1-2-1.94-3.95-2.82-5.9-1.77-3.89-3.37-7.79-4.85-11.75A170.68,170.68,0,0,1,98.88,160a145.35,145.35,0,0,1,.18-18.1c.18-3,.54-5.89.88-8.8.19-1.45.44-2.89.66-4.33s.47-2.87.76-4.29a144.29,144.29,0,0,1,10.42-32.63,155.9,155.9,0,0,1,19.47-37.39A173.7,173.7,0,0,1,158.84,23.9a10.13,10.13,0,0,1,2.1-1.59c.4-.15.05.33-.75,1.08a180.35,180.35,0,0,0-19.23,21A168.54,168.54,0,0,0,124.86,69c2.21-2.38,3.87-3.56,4.51-2.93s.15,3.08-1.14,6.47l3.37-5.65c.57-.93,1.1-1.89,1.71-2.8l1.82-2.72c1.53-2.22,3-3.8,3.3-3.5s-.53,2.25-1.93,4.36L134.68,65c-.59.93-1.13,1.89-1.69,2.84-1.11,1.91-2.26,3.8-3.34,5.74-2,4-4.14,7.85-5.82,12A141.89,141.89,0,0,0,115.32,111c-4.16,21.16-3.42,42.8.69,63.52.28-3,.89-5.29,1.82-6.45,0,0,0,0,0,0-.48-3.2-.89-6.39-1.21-9.59a146.54,146.54,0,0,1,.21-44.78,135.77,135.77,0,0,1,15-43l2.78-5,3-4.84c1-1.62,2-3.23,3.16-4.76l3.31-4.65A184.82,184.82,0,0,1,158.83,34,210.92,210.92,0,0,1,193.52,5.1,7.49,7.49,0,0,1,195.42,4a5.68,5.68,0,0,1-1.51,1.22,208,208,0,0,0-40.82,36l.06-.06c.57-.48.81-.46.37.22a12.35,12.35,0,0,1-1.87,2.17c-.65.56-.75.38-.39-.21C140.37,56.39,131.14,71.07,125,87.07c-1.67,3.94-2.79,8.08-4.1,12.14-.61,2.05-1.07,4.14-1.6,6.2s-.88,4.17-1.28,6.26a141,141,0,0,0-2.11,25.2,141.12,141.12,0,0,1,9-45.67,151.89,151.89,0,0,1,10.06-21c1.85-3.39,4-6.59,6.11-9.82,1-1.63,2.22-3.14,3.33-4.71s2.22-3.14,3.45-4.62c1.88-2.77,3.7-5.58,5.8-8.25a8.18,8.18,0,0,1,1.81-1.76c.27-.11,0,.52-.62,1.26s-1.12,1.5-1.69,2.25a44.22,44.22,0,0,1,5.15-5.19c1.45-1.16,2.47-1.71,2.76-1.39s-.36,1.64-1.47,3.33a61.09,61.09,0,0,1-4.52,6.22c-9.56,12.62-17.8,26.24-23.51,40.93l-1.67,4.83-1,5a153.84,153.84,0,0,1,15.74-32.75A200.93,200.93,0,0,1,166.76,36.9c1.39-1.53,2.75-2.68,3-2.52S169,36,167.67,37.5C154.18,53.82,143.23,72.29,136.76,92c-6.67,19.65-8.18,40.52-6.1,61a184.11,184.11,0,0,0,14.15,38.39c-.46-1.63-.92-3.28-1.39-4.93a279.09,279.09,0,0,1-7-30.82,176.93,176.93,0,0,1-2.53-30.16,131.49,131.49,0,0,1,1-15.07c.11-1.26.36-2.5.54-3.75s.38-2.52.68-3.76c.55-2.49,1.06-5,1.68-7.52a125.77,125.77,0,0,1,12.11-29.62,3.67,3.67,0,0,1,1.36-1.71c.23,0-.05.72-.6,1.7a122.09,122.09,0,0,0-11.48,28.75l-.5,1.81-.39,1.84-.76,3.66c-.56,2.42-.9,4.89-1.27,7.35-.62,5-1.05,9.93-1.19,15A147.05,147.05,0,0,0,141.85,172c-3.44-15.48-5.41-30.89-5-46.33.06-1.93.18-3.85.28-5.78s.28-3.86.54-5.77.45-3.86.81-5.76l.48-2.87c.19-1,.42-1.91.63-2.86q.66-2.87,1.31-5.75l1.71-5.69c.52-1.92,1.26-3.78,2-5.67l1.06-2.83.53-1.41.62-1.39a14.84,14.84,0,0,1,1.79-3.29,1.54,1.54,0,0,1,.11-.85,57.08,57.08,0,0,1,2.36-6l1.37-3.09c.49-1,1-2,1.57-3.07a6.64,6.64,0,0,1,1.44-2C155.75,61.3,155.62,61.86,155.2,62.75ZM26.74,264l-.13-.24.57.63.52,1.43Zm-13.67-2.86h0l-.35-.87Zm115,82a60.33,60.33,0,0,1-19.34,12.54,56.58,56.58,0,0,1-22.79,4.38,48.71,48.71,0,0,0,11.3-1.34A66.38,66.38,0,0,0,128.07,343.18ZM20.15,255.44A20.19,20.19,0,0,1,22.21,259a14.63,14.63,0,0,1,2.31,1.21c1,.72,2,1.42,2.95,2.11s1.91,1.39,2.82,2.17c-.09-.47.35-.11.6,0l.75.45c-1.9-1.73-3.88-3.27-5.89-5C23.94,258.41,21.87,257,20.15,255.44ZM4.39,248.89c0-.09-.09-.16-.14-.26l.61-.47Zm-1,.84.29.24C3.51,250.17,3.44,250,3.41,249.73Zm2.64,2.15a2.42,2.42,0,0,0-.3-.53ZM2.17,271.52c.69-1,1.39-1.94,2.09-2.89-.72.9-1.44,1.81-2.15,2.75Z"/><path d="M288.92,138.12l-.34-.34c.12-.25.38-.29.69-.22a4.31,4.31,0,0,0-5-.41,4.9,4.9,0,0,0-1.05.72,8.08,8.08,0,0,0-.91,1,10.06,10.06,0,0,0-1.33,2.43c-.88.11-1.28,1.25-.92,2.4a2.3,2.3,0,0,0,2.12,1.84,2.18,2.18,0,0,1,.64.29,16.59,16.59,0,0,0,2.54,1.82c.42.24.83.42,1.24.64s.83.41,1.24.58l-1.11-.89a2.79,2.79,0,0,0,1.42.37l-.32-.62a2.35,2.35,0,0,0,2.48.38,3.19,3.19,0,0,0,1.58-2.34c.59-2.47-.19-5.64-2.13-7Z"/><path d="M284.09,131.81a24.57,24.57,0,0,1,3.71,1.83l.29.39-.45-1.85v.12a7.21,7.21,0,0,1-3.34,3.44l-.44.37a1.65,1.65,0,0,0-.17,1.07,1.81,1.81,0,0,0,1.46,1.64h.76c2,.58,4.66.37,5.17-3a7.75,7.75,0,0,0-.42-2.53,2.16,2.16,0,0,0-2-2.15,1.87,1.87,0,0,0-1.45,2.37,5.6,5.6,0,0,0-.54-.17c.09-.19.19-.34.29-.51-.05,1.09-.84,1.56-1.33,2.26l-.87.51,1.24,2.72.38-.48c-.06-.12-.18-.28-.17-.29.35-.49.7-1,1.07-1.44a6.78,6.78,0,0,1,1.25-1.15l1.1-1.26a1.74,1.74,0,0,0-.4-1.86l-.72-.53.34.33c-.75-.22-1.51-.37-2.29-.52s-1.54-.2-2.32-.39c-.26-.08-.49.1-.54.41A.67.67,0,0,0,284.09,131.81Z"/><path d="M288.94,130.47c.26.19.52.39.83.28a2.35,2.35,0,0,0,.1-.25l-.53-.43C289,129.77,288.84,130.07,288.94,130.47Z"/><path d="M289.87,130.5l.22.18c-.06-.09-.11-.18-.17-.26l0,0Z"/><path d="M274.43,260.11a77.79,77.79,0,0,0,35.07,6.48,66.23,66.23,0,0,0,17.28-3.29,67.26,67.26,0,0,0,16-7.89c.69-.42,1.18-.9,1.13-1s-.59.18-1.22.57a66.7,66.7,0,0,1-15.85,7.85,65.62,65.62,0,0,1-17.12,3.29A73.92,73.92,0,0,1,292,265a81.69,81.69,0,0,1-17.14-5.22,3.23,3.23,0,0,0-1.54-.4C273.26,259.47,273.74,259.8,274.43,260.11Z"/><path d="M370.7,152.63c.41.54.49.47.19-.17a12,12,0,0,0-1.24-2c-.37-.44-.46-.35-.19.18A13.92,13.92,0,0,0,370.7,152.63Z"/><path d="M380.79,154.19c2.17,3.72,4,7.38,5.63,10.69a15.7,15.7,0,0,1,.71,1.91c.06-.29.53.42,1.1,1.89a91.55,91.55,0,0,1,5.91,23.07,90.08,90.08,0,0,1-.49,24.79c-.26,2.09-.77,4.12-1.16,6.2l-.77,3.06c-.25,1-.51,2-.85,3.06-.67,2-1.21,4.09-2,6.06s-1.51,4-2.45,5.93a96.7,96.7,0,0,1-13.72,21.77A4.21,4.21,0,0,1,372,264a36.32,36.32,0,0,1-3.16,4.1c-.7.81-1.55,1.59-2.41,2.43s-1.76,1.7-2.75,2.49l-3,2.31A96.15,96.15,0,0,1,340.92,287a90.47,90.47,0,0,1-22,6.44c-.75.2-1.54.43-2.36.6l-2.57.47-2.72.45c-.94.11-1.9.19-2.88.27a106,106,0,0,1-39.75-2.72c.77.4,1.21.73,1.14.92-.38.37-3.56-.14-7.05-1.39-1.76-.64-3.54-1.23-5.26-1.94a124.42,124.42,0,0,0,15.19,5.37q1.13.3,2.07.6a109.38,109.38,0,0,0,17.82,2.72,99.45,99.45,0,0,0,39.23-5.11A95.25,95.25,0,0,0,364.68,274a104.55,104.55,0,0,0,12.54-13.87,101.32,101.32,0,0,0,9.52-15.78A97.83,97.83,0,0,0,393,227.3a95.34,95.34,0,0,0,2.89-17.64,18.84,18.84,0,0,1,.27-2.69c.13-.45.25-.36.23.52a100.22,100.22,0,0,1-2.74,22,93.79,93.79,0,0,1-7.58,21,96.54,96.54,0,0,1-13,19.58,95.34,95.34,0,0,1-19.33,17.25c-1.11.81-2.32,1.48-3.48,2.21s-2.34,1.47-3.57,2.11c-2.44,1.29-4.87,2.64-7.44,3.73A100.14,100.14,0,0,1,323.48,301a110.08,110.08,0,0,1-33.15,3.35,123.32,123.32,0,0,1-16.57-1.93l-4.09-.87-2-.45-2-.54-4.05-1.09-4-1.28c-2.69-.82-5.27-1.9-7.91-2.89-1.3-.52-2.58-1.11-3.88-1.67s-2.59-1.12-3.85-1.77l-3.8-1.9c-1.27-.64-2.48-1.37-3.73-2.06-2.49-1.37-5-2.88-7.38-4.47a121.9,121.9,0,0,1-26.68-25.17A102.41,102.41,0,0,1,190,242a93.48,93.48,0,0,1-7.06-18.8,103.11,103.11,0,0,1-2-39.31,122.08,122.08,0,0,1,11.22-36.92A123.77,123.77,0,0,1,206,124.46a128.6,128.6,0,0,1,18.07-19.18c.81-.75,1.7-1.41,2.55-2.11l1.29-1,.3-.25.95-.84c.64-.55,1.27-1.11,1.92-1.64q2-1.56,4-3.06l2-1.49c.69-.48,1.41-.93,2.13-1.39q2.13-1.36,4.31-2.7c1.46-.87,3-1.64,4.51-2.46s3-1.64,4.63-2.32a11.6,11.6,0,0,1,6.93-1.53,6.28,6.28,0,0,1,4.8,3,6.2,6.2,0,0,1-.72,6.39l1.12-.35,1.87-.18a6.52,6.52,0,0,1,4.66,1.19l1.63,1.17c2.38,2.41,5.44,4.14,7.3,6.9l0,1.2.36.27a5.6,5.6,0,0,1,2.4,2.77l.19,1.41a14.61,14.61,0,0,1-.41,4.73,5.23,5.23,0,0,1,.14,1.75,7.25,7.25,0,0,1,1.35,4.48,1,1,0,0,1,.17,1.39.94.94,0,0,1-.4.29h0a10,10,0,0,0,.65.79c.34.07.54.13.54.13.88.1.88.1,1.64.22a4.33,4.33,0,0,1,1.2,1c1.08,2.39,1.06,2.4,1.15,3.49a2.66,2.66,0,0,1-.08.33c.57.28.61.3.76.39a2.41,2.41,0,0,1,.3.38c.11.58.11.58.23.77a3.92,3.92,0,0,1,.09.44c-.18.7-.18.69-.16.88a2.29,2.29,0,0,1-.1.34l-.45.39L289,129l-.06.54-.28-.66.2.62-.42-.33.5.49c-.86-.1-.86-.1-1.19,0a1.06,1.06,0,0,0-.65.19c.06.19.09.33.09.33-.92-.1-.93-.13-1.84-.18a4.57,4.57,0,0,1-.29-.36.38.38,0,0,1-.37.32h-.47l-.08.11,0,.05-.31.38-.06.09h0l-1.28,1.62a4.51,4.51,0,0,1-.82-.12l.3.22c.19.17.22.73.31.77a14.66,14.66,0,0,0,3.14.69c.51.06,1,.1,1.53.14l1.52.25c.33-.12.71.16.84.6a.8.8,0,0,1-.36,1,10.17,10.17,0,0,1-1.23,1.16,11.74,11.74,0,0,1-1.31,1,9.27,9.27,0,0,1-2.88,1.14,15.6,15.6,0,0,1-6.54.07,22.4,22.4,0,0,0-3.26.44l.25.19-.93,0-.1,0,1,.65.52.09a10.83,10.83,0,0,1,3.77-.05c.63.08,1.25.14,1.88.26s1.26.25,1.87.34a16.17,16.17,0,0,1,3.82,1.32c.29,0,.57.31.64.72s-.1.72-.37.72a13.71,13.71,0,0,1-11.43.19,2.9,2.9,0,0,1-2.2-.06h0l.78.58c-.58,0-1.16-.49-1.72-.51l.69.93c-1.32.29-2.59.82-3.9,1.25a9.73,9.73,0,0,1-4.13.89,1.59,1.59,0,0,1-.3.06,14.24,14.24,0,0,1-.73,1.83c-.07.14-.15.27-.23.41s0,0-.08.11l-.44.35-.91.71c-1.2,1-2.38,2.06-3.7,3.07l2.76-1.9a13.79,13.79,0,0,1,1.38-.92l1.35-.8s-.17.15-.26.23l-.34.29-.69.56c-.47.36-.89.79-1.33,1.19-.87.83-1.8,1.58-2.67,2.41s-1.74,1.7-2.66,2.52-1.73,1.79-2.67,2.67a111,111,0,0,0-13.37,16.32c-3.91,5.55-6.7,10.88-9,14.28a55.9,55.9,0,0,0-1.28,20,42.18,42.18,0,0,0,2.21,9.19,50.09,50.09,0,0,0,4.25,8.89,67.61,67.61,0,0,0,13.81,16.1,78.12,78.12,0,0,0,9,6.66,87.42,87.42,0,0,0,9.8,5.54,7,7,0,0,1,2.74,1.78c0,.32-1,.11-2.43-.53a89.59,89.59,0,0,1-14.32-8,79.45,79.45,0,0,1-12.34-10.48c-7.33-7.74-12.49-16.75-14.41-26a52,52,0,0,0,10.05,23.08,78.31,78.31,0,0,0,20.83,19.07l3.25,1.88c1.08.63,2.22,1.15,3.33,1.74s2.21,1.12,3.32,1.67,2.18,1.14,3.31,1.63c23,9.73,48.89,9.8,69.7-4a70.62,70.62,0,0,0,27.79-35.09,69.27,69.27,0,0,0,2.24-7.32c.28-1.27.63-2.52.83-3.81s.5-2.57.64-3.88c2-14.68-.75-29.11-6.84-42.24a84.41,84.41,0,0,0-5.16-9.5c-.94-1.51-1.95-3-2.94-4.32-.49-.66-1-1.33-1.25-1.6l-1.76-1.92a69.15,69.15,0,0,0-17-12.93c-3.47-1.84-6.77-3.54-7.05-4.14s2.6.06,6.25,1.83A69.66,69.66,0,0,1,355.83,147c.69.68,1.33,1.4,2,2.09.42.45.43.46.72.81l.83,1c1.13,1.48,2.26,3.12,3.33,4.78a86.23,86.23,0,0,1,5.73,10.53,80.33,80.33,0,0,1,6.65,22.83,72,72,0,0,1-.71,23.57l-.28,1.47-.35,1.45c-.25,1-.43,1.94-.74,2.9l-.84,2.88-1,2.8c-.6,1.88-1.5,3.66-2.25,5.5-.4.9-.89,1.77-1.33,2.66s-.87,1.79-1.41,2.63a72.87,72.87,0,0,1-15.1,18.58,71.68,71.68,0,0,1-20.41,12.76c-.93.38-1.89.69-2.83,1l-1.42.52c-.47.17-1,.28-1.44.43l-2.89.84-3,.66c-.5.1-1,.23-1.48.32l-1.51.23c-1,.15-2,.34-3,.45-2,.17-4.07.44-6.14.44a79.83,79.83,0,0,1-21-2.06.47.47,0,0,1,.11.31c-.07.36-.79.53-2,.55a91,91,0,0,0,12,2.2c2,.17,4,.43,6.08.45,1,0,2,.11,3.05.08l3,0A73.7,73.7,0,0,0,340,262.31a81.07,81.07,0,0,0,25.16-23.94l1.66-2.6c.27-.43.56-.85.81-1.29l.74-1.33c.5-.88,1-1.76,1.48-2.64s.87-1.8,1.3-2.69l.65-1.34c.21-.45.38-.92.57-1.37.38-.91.75-1.83,1.12-2.73s.66-1.87,1-2.8l.49-1.4.42-1.41a77.42,77.42,0,0,0,3.33-23.11,83.13,83.13,0,0,0-7.53-28.95,88.84,88.84,0,0,0-7.46-13.14c-.71-1-1.44-2-2.17-3-.34-.44-.77-1-1-1.21l-1.26-1.33a68.83,68.83,0,0,0-5.38-5.14,8.33,8.33,0,0,1-1.39-1.31c-.16-.26.22-.06.86.44A70.12,70.12,0,0,1,361.1,147l.33.36.39.45.8,1c.53.68,1.06,1.38,1.58,2.09,1.05,1.42,2.05,2.91,3,4.43A88.17,88.17,0,0,1,376.5,175c-.37-2.31-.42-3.77.06-3.74s1.51,1.61,2.56,4.23a88.68,88.68,0,0,0-3.31-9.7c-.79-2-1.33-3.55-1.1-3.59s1.12,1.4,1.9,3.28a83.71,83.71,0,0,1,6,41.11,82,82,0,0,1-6.06,24.26,83.57,83.57,0,0,1-5.73,11.18,84.63,84.63,0,0,1-7.48,10.14,22.57,22.57,0,0,1,4.14-3h0c1.67-2.06,3.08-4.3,4.55-6.48a85.79,85.79,0,0,0,11.3-34.2,84.89,84.89,0,0,0-4-35.89A94.93,94.93,0,0,0,372,156a90.92,90.92,0,0,0-4.89-7.74c-.87-1.24-1.8-2.47-2.72-3.56l-.31-.37-.39-.42-.78-.83c-.53-.54-1-1.12-1.58-1.64a80.23,80.23,0,0,0-31.05-19,5.26,5.26,0,0,1-1.65-.71,3.77,3.77,0,0,1,1.58.33,84.14,84.14,0,0,1,20,9.83,74.09,74.09,0,0,1,8.74,6.83c.7.6,1.34,1.26,2,1.9l1,1,.95,1,.95,1,.47.51.4.46c.55.67,1.12,1.39,1.67,2.13l0-.06c-.3-.51-.27-.67.17-.19a11.71,11.71,0,0,1,1.36,1.88c.33.61.2.62-.17.2a93.8,93.8,0,0,1,15.49,38,84.43,84.43,0,0,1-3.43,40.52,83.43,83.43,0,0,0,4.56-37.49,92.91,92.91,0,0,0-11.94-36q-2.26-3.5-4.86-6.79a10.12,10.12,0,0,1-1.13-1.72c-.07-.22.36.15.85.76s1,1.22,1.44,1.84c-1.37-2-2.57-3.76-3.43-4.93s-1.37-2.07-1.15-2.22,1.22.55,2.53,1.7a32.36,32.36,0,0,1,4.21,5.13A93.59,93.59,0,0,1,386.24,185c.29,1.46.49,2.93.71,4.4s.5,3,.64,4.45a90.79,90.79,0,0,0-7.19-31.17A98.1,98.1,0,0,0,373,148.45a78.23,78.23,0,0,0-4.65-6.58,79.6,79.6,0,0,0-5.57-5.87c-1.37-1.22-2.46-2.36-2.37-2.53s1.32.69,2.72,1.92l2.63,2.43,2.53,2.55a65,65,0,0,1,4.53,5.7,97.09,97.09,0,0,1,7.45,12.29,94.8,94.8,0,0,1,9.14,27.43,86.65,86.65,0,0,1-.07,29.27,84.67,84.67,0,0,1-3.67,14.31c-.72,2.38-1.77,4.62-2.69,6.93-.5,1.14-1.07,2.24-1.61,3.36s-1.07,2.24-1.71,3.3a92.29,92.29,0,0,1-24.41,31.65l2.14-1.52,2.06-1.65a87.51,87.51,0,0,0,31.09-53.28,92.23,92.23,0,0,0,.28-29.84,102.14,102.14,0,0,0-9.12-28.81,6.72,6.72,0,0,1-.73-1.9c0-.14.44.45.89,1.4a102.22,102.22,0,0,1,9.27,28,89.13,89.13,0,0,1,.18,29.84,90.54,90.54,0,0,1-2.9,12.35c-.31,1-.63,2-.94,3s-.73,2-1.1,2.94-.73,2-1.13,2.92l-1.29,2.84a97.92,97.92,0,0,1-13,20.84,90.45,90.45,0,0,0,13.55-20.54,91.78,91.78,0,0,0,8.81-34.88c.15-2,.1-4,.13-6s-.1-4-.29-6A96.75,96.75,0,0,0,388.3,171a35,35,0,0,1-1.09-3.51,2.53,2.53,0,0,1-.4-.69c-1.64-3.62-3.54-7.5-5.71-11.32a12,12,0,0,1-1-2.11C380,153,380.29,153.39,380.79,154.19ZM273.37,128l.19.14L273,128,271.93,127S272.66,127.48,273.37,128Zm6-7.32h0l.57.67Zm-47.89,108.5a46.71,46.71,0,0,1-5.68-17.07,50.48,50.48,0,0,1,1.2-18.08,57.22,57.22,0,0,0-.72,8.87c-.11,1.14-.09,2.26-.15,3.4s0,2.25.1,3.35a48.21,48.21,0,0,0,.8,6.59A53.12,53.12,0,0,0,231.45,229.22Zm48.42-97.83a14.52,14.52,0,0,1-2.38-1.92,3.05,3.05,0,0,1-1.25.58,33.46,33.46,0,0,1-3.67.82c.33.39,0,.44-.08.55l-.38.26c1.35-.13,2.69-.24,4-.32A21,21,0,0,1,279.87,131.39Zm8.08-3.78.14.16-.1.77Zm.15-1.3-.21-.07C287.91,126,288,126.05,288.1,126.31Zm-1.86-.64a1.75,1.75,0,0,0,.32.36C286.24,125.68,286.24,125.67,286.24,125.67Zm-5.9-21v3.81l.11-3.69Z"/></g></g></svg>