<svg xmlns="http://www.w3.org/2000/svg" viewBox="0 0 499.41 413.7"><g id="Layer_2" data-name="Layer 2"><g id="Layer_1-2" data-name="Layer 1"><path d="M240,116.08c0,.19-.08.4-.12.59a1.32,1.32,0,0,1-.67-1,10.83,10.83,0,0,0,2.37,7.39,16.63,16.63,0,0,0,5.85,4.93,2.49,2.49,0,0,0,3,1.69,2.42,2.42,0,0,0,1.16-3.24,4.15,4.15,0,0,1,0-1.06,22.37,22.37,0,0,0,.51-8.87l-.24,2.06a7.3,7.3,0,0,0-.56-2.64c-.14.19-.3.42-.45.61.12-3.35-2.25-6.63-5.22-7.13s-5.43,1.88-5.54,5.17Z"/><path d="M236.2,124.12c-.06-1.79,0-3.57,0-5.39l.22-.49-1.6,1.07.12,0c2.07.44,3.81,2.22,5.23,4l.58.58a1.51,1.51,0,0,0,1.2.15,1.78,1.78,0,0,0,1-2.32c-.11-.4-.27-.77-.41-1.16-.43-3.13-2.62-7.32-6.18-7-.82.08-1.48.87-2.19,1.4a2.57,2.57,0,0,0-1,3.4,2.43,2.43,0,0,0,3.18,1.33l.12.78-.67-.28c1.15-.2,2,.83,3,1.4l1,1.15,2.18-2.18-.71-.49a3,3,0,0,1-.21.3,26.09,26.09,0,0,1-4-2.85l-1.9-1.2a1.31,1.31,0,0,0-1.6,1.09l-.12,1.1.13-.54c.4,2.12,1.09,4.19,1.43,6.27a.68.68,0,0,0,.66.62A.56.56,0,0,0,236.2,124.12Z"/><path d="M232.42,118.08a1.64,1.64,0,0,0-.18-1.18l-.3-.05c0,.22-.09.52-.13.83C231.72,118.27,232.07,118.33,232.42,118.08Z"/><path d="M231.94,116.85l.05-.35-.15.31,0,0Z"/><path d="M258.52,275c-.5,2.2-1.15,4.35-1.76,6.51s-1.2,4.32-1.86,6.46l-2.08,6.39c-.35,1.06-.68,2.13-1,3.19l-1.15,3.14L248.31,307l-2.53,6.18-1.26,3.09-1.37,3-2.73,6.06c-.25.54-.4,1-.29,1.1s.4-.31.62-.81l2.75-6.06,1.38-3,1.27-3.09,2.54-6.17L251,301l1.16-3.15c.38-1,.7-2.11,1.06-3.17l2.08-6.39c.68-2.13,1.25-4.3,1.88-6.46s1.28-4.31,1.77-6.52a1.88,1.88,0,0,0,0-1.2C258.86,274.09,258.65,274.49,258.52,275Z"/><path d="M191.2,385.62c.19-.36.1-.41-.21-.13a4.48,4.48,0,0,0-.85,1.1c-.16.3,0,.37.21.12A4.62,4.62,0,0,0,191.2,385.62Z"/><path d="M187.15,378c.63-1,1.24-1.91,1.8-2.83s1-1.86,1.47-2.74a4.21,4.21,0,0,1,.62-.87c-.21,0-.09-.44.33-1.16a319.92,319.92,0,0,0,22-45.56,1.67,1.67,0,0,1-.13-.85,17.07,17.07,0,0,1,1.62-5.77l.8-1.64c.77-1.68,1.4-3.42,2.1-5.12s1.41-3.4,2-5.13l1.87-5.18.94-2.59.85-2.61a38.7,38.7,0,0,1,.94-5.07c.29-1.56.44-3.16.65-4.73s.41-3.16.61-4.74c.38-3.16.61-6.36,1-9.55-.22.37-.45.57-.64.53-.44-.22-.52-1.74-.3-3.43.11-.86.21-1.72.32-2.57-.45,2.43-.87,4.87-1.49,7.27a9.51,9.51,0,0,1-.25,1c-.5,2.67-.94,5.39-1.56,8.13a286.74,286.74,0,0,1-22.29,68,3.62,3.62,0,0,1-.71,1.13c-.19.16-.28.05-.1-.35,5.75-13.92,8.73-26.69,12.7-42.55a221.36,221.36,0,0,0,6.53-56.73,149.7,149.7,0,0,0-1.56-28.72l-.56-3.5-.28-1.75-.36-1.74c-.5-2.31-1-4.63-1.49-6.94s-1.21-4.59-1.83-6.92-1.43-4.59-2.13-6.91c-.45-1.58-1-3.11-1.58-4.63s-1.09-3-1.63-4.54-1.22-3-1.81-4.42-1.13-2.95-1.82-4.36l-.49-1.06-.25-.53-.11-.2-.38-.7-.74-1.41c-.5-.93-.94-1.88-1.45-2.8-1-1.81-2-3.63-3-5.46-.45-.93-1-1.82-1.51-2.71l-1.55-2.68c-1.86-2.52-1.11-6,2-8.1a7.58,7.58,0,0,1,6.1-1.06l-.36-.72-.25-1.31a5.15,5.15,0,0,1,.87-3.76l.92-1.55c2-2.49,3.06-5.42,5.24-7.92l1.14-.39.17-.39a6.09,6.09,0,0,1,1.94-3l1.27-.66a13.84,13.84,0,0,1,4.66-1.24,5.15,5.15,0,0,1,1.65-.68,6.89,6.89,0,0,1,3.85-2.73,1,1,0,0,1,1.28-.6,1.13,1.13,0,0,1,.46.35h0c.22-.37.28-.47.51-.93-.08-.39-.11-.63-.11-.63-.28-1-.28-1-.5-1.88a5.23,5.23,0,0,1,.43-1.69c1.79-2.08,1.79-2.09,2.8-2.55a2,2,0,0,1,.35,0c0-.79,0-.85,0-1.07a2.51,2.51,0,0,1,.2-.52c.5-.34.5-.34.62-.56a2.1,2.1,0,0,1,.37-.26c.75,0,.75,0,.92-.11a1.35,1.35,0,0,1,.38,0l.62.46c-.85,1.65-.85,1.66-.85,1.66l.56-.09-.5.56.49-.45-.1.64.22-.79a4.61,4.61,0,0,0,.61,1.53,2.06,2.06,0,0,0,.53.79,3,3,0,0,1,.28-.22c.39,1.22.39,1.22.73,2.41a3.94,3.94,0,0,1-.23.46.57.57,0,0,1,.48.4l.21.61.14.08,0,0,.53.32.11.06h0c.37.22.88.54,2.19,1.44a7.77,7.77,0,0,1,.2,1.1c0-.14.07-.27.12-.41s.67-.38.67-.5c0-.75-.11-1.49-.21-2.22s-.31-1.45-.49-2.16c-.38-1.44-.84-2.87-1.26-4.31a1,1,0,0,1,.11-1.34.84.84,0,0,1,1.22.25c5.59,3.62,8.42,10.68,8.71,17.25.35,1.61.74,3.2,1.14,4.78l.17-.33.09,1.32,0,.14c.19-.43.37-.86.56-1.28,0-.25,0-.49,0-.73a29.82,29.82,0,0,1-.92-5.58c-.17-1.89-.39-3.77-.71-5.68s-.22-4.06-.39-6.13a.86.86,0,0,1,.42-1.1.8.8,0,0,1,1,.59,36.63,36.63,0,0,1,4,9,21.61,21.61,0,0,1,.36,9.5,5.49,5.49,0,0,1,.31,3.27v0l.53-1c.1.88-.39,1.57-.4,2.41l.95-.71c.36,2.11,1,4.19,1.49,6.28a24.17,24.17,0,0,1,.6,3.12,16.58,16.58,0,0,1,0,3.15c0,.16,0,.31,0,.46a24.37,24.37,0,0,1,1.72,2.06l.38.57c0,.06.06.09.09.16l.18.47.36.93c.23.64.46,1.28.69,1.94s.39,1.34.57,2c-.18-1-.32-1.92-.56-2.86s-.41-1.84-.62-2.77c0,0,.08.19.13.29l.15.36.3.73.58,1.47c.4,1,.69,2,1,3,.63,2,1.2,4.12,1.69,6.3,2.58,11.9,2.6,25.58.43,32.07a249.81,249.81,0,0,1,1,34A268.41,268.41,0,0,1,260,269.83a4.22,4.22,0,0,1-.92,2.29c-.28.07-.37-.72-.17-1.86l.46-3,.35-3c.23-2,.46-4,.7-6s.34-4,.53-6.05l.48-6.07.24-6.1c.08-2,.21-4.07.17-6.11,0-4.08.09-8.16-.15-12.25a289.9,289.9,0,0,1-4.28,41c-.26,1.74-.44,3.51-.78,5.26s-.75,3.42-1.2,5.11c-3.66,17.29-9.09,33.07-15.67,49.6l-1.05,2.63-1.11,2.56c-.74,1.69-1.46,3.36-2.19,5-1.45,3.32-3.06,6.49-4.57,9.71s-3.26,6.3-4.92,9.5-3.54,6.34-5.42,9.61a279.12,279.12,0,0,1-17.11,25.55,246.12,246.12,0,0,1-20,23c-1.93,2-4,3.56-4.54,3.49s.57-1.76,2.48-3.75A306.91,306.91,0,0,0,202,385.1a319,319,0,0,0,17.78-27,299.19,299.19,0,0,0,15-29.18A309,309,0,0,0,247,297.5c.42-1.17.78-2.34,1.13-3.52l1-3.5c.71-2.34,1.42-4.66,2-7a.52.52,0,0,1-.29.06c-.35-.08-.56-.6-.65-1.41-.36,1.32-.71,2.64-1.06,4s-.83,2.62-1.24,3.93c-.85,2.62-1.62,5.26-2.62,7.84A189.35,189.35,0,0,1,228,341.29a233.88,233.88,0,0,1-17.55,26.12,283,283,0,0,1-23.16,31.2,3.38,3.38,0,0,1-.93.86c-.19.08-.07-.19.26-.6l4.11-5.37,2.07-2.71,2-2.77,4-5.58,3.89-5.73c-1.13,1-2,1.44-2.27,1.09s0-1.51.8-3.06l-3.73,5c-.77,1-1.53,1.73-1.7,1.56s.32-1.07,1-2.06c2.51-3.41,5.08-6.78,7.44-10.29,1.18-1.75,2.43-3.46,3.57-5.24l3.44-5.34a295.33,295.33,0,0,0,14-27,7.12,7.12,0,0,1-2.45,2.09h0c-.68,1.41-1.35,2.82-2,4.22-11.66,26.17-28.86,50.62-49.65,71.64-.4.42-.78.71-.85.65s.17-.43.54-.8c3.09-3.22,6.22-6.39,9.14-9.75,1.46-1.67,3-3.29,4.39-5l4.24-5.13,0,0c-.28.24-.41.22-.22-.13a5.33,5.33,0,0,1,.89-1.07c.32-.27.38-.17.22.12A245,245,0,0,0,216,346.91a259,259,0,0,1-25,37.37c-.92,1.35-1.77,2.75-2.76,4.09a3.45,3.45,0,0,1-.89.86c-.14,0,0-.27.27-.64l.8-1.12c-1.84,2.15-3.56,3.57-3.92,3.21s.91-2.59,2.77-4.84c4.72-6.26,9.37-12.53,13.64-19.06l1.32-2.16,1.18-2.27a290.45,290.45,0,0,1-22,28.71c-.65.8-1.32,1.39-1.47,1.29s.25-.84.9-1.65a295.34,295.34,0,0,0,18-26.13,284.24,284.24,0,0,0,15.24-28c1.14-3.34,2.11-6.73,3.16-10.09s1.83-6.83,2.65-10.29c-.3.83-.68,1.64-1,2.47-4.22,10.58-8.24,20.39-12.79,29.94a197.5,197.5,0,0,1-16,28.07c-.32.47-.66.79-.79.79s0-.37.38-.83a221.12,221.12,0,0,0,15.62-27.61l2.85-6c.89-2,1.72-4,2.56-5.94l1.23-2.94,1.11-2.95c.71-2,1.41-3.92,2.12-5.86q-1.25,2.88-2.48,5.76c-.41,1-.81,1.91-1.21,2.87l-1.3,2.83q-1.29,2.84-2.56,5.66l-2.74,5.56-1.37,2.79L202,353.59l-2.95,5.48-3.17,5.39-1.61,2.69c-.55.9-1.13,1.77-1.71,2.65a7.57,7.57,0,0,1-1.19,1.54.73.73,0,0,1-.13.42,61.57,61.57,0,0,1-3.42,5.87,3,3,0,0,1-.83.94C186.81,378.71,186.9,378.43,187.15,378Zm48.31-240c0-.09.09-.16.12-.23,0,.2-.06.41-.09.65l-1,1.29Zm-8.76-6.13h0l.5-.77C227,131.39,226.84,131.64,226.7,131.84ZM260,235c.14-4.87.43-9.73.43-14.58.18-4.87.06-9.72.16-14.62.21,2.37.41,4.72.62,7.09.05,1.84,0,3.69-.09,5.54s-.15,3.69-.22,5.53-.26,3.69-.41,5.53S260.21,233.11,260,235Zm-22.7-105.21a13,13,0,0,1-1.29,3.17,5.12,5.12,0,0,1,.95,1.53,29.11,29.11,0,0,1,1.49,4.61c.36-.39.45,0,.58.13l.34.5c-.36-1.68-.62-3.43-1-5.15A44,44,0,0,1,237.34,129.74Zm-7.21-9.54.09-.22.8-.11Zm-1.33.23,0,.26C228.55,120.76,228.6,120.64,228.8,120.43Zm.27,2.4a1.57,1.57,0,0,0,.19-.47Zm-18.25,12.39,3.63-1.21-3.54,1.08Z"/><path d="M240.71,235.34l.86-.49a5,5,0,0,1-1.54,1.56,22.23,22.23,0,0,0,5.74-4.68c1.69-1.82,3.1-4,4.81-6.16.86-1.08,1.77-2.15,2.74-3.21a37,37,0,0,1,3.42-3.25,35.87,35.87,0,0,1,7.24-4.68c1-.26,1.87-.54,2.78-.75s1.73-.44,2.48-.61c1.47-.38,2.64-.61,2.81-1,.46-.62-3.36-1.44-7.64-.37-1,.16-2.08.42-2.75.55a29.59,29.59,0,0,0-9.77,3.4,29.08,29.08,0,0,0-2.49,1.55l-1.24.88-1.06.78a48.24,48.24,0,0,0-4.07,3.46l1.68-1.32c.57-.44,1.16-.88,1.75-1.3a32.87,32.87,0,0,0-4.53,4.38l.86-.35c-2.54,2.32-5,5-7.41,7.31l-3.24,3.08a23.79,23.79,0,0,0-2.27,2.29c-1,1.26-.48,1.81,1.29,2a14.25,14.25,0,0,0,7.2-1.77c.42-.21.8-.42,1.19-.64S240.35,235.57,240.71,235.34Z"/><path d="M251.31,230.1a59,59,0,0,1-6.92,6l-.67.3,1.48.36,0-.07a20.43,20.43,0,0,1,2-4.3c1-1.66,2.08-3.58,3.41-5.44l.93-1.36a2.51,2.51,0,0,0,.55-1.51c-.14-.65-1.72.13-3.26,1.81-.57.64-1.15,1.3-1.67,1.93-2.15,2.25-4.64,5.06-6.92,7.35-1.15,1.16-2.18,2.18-3,3.08a4.34,4.34,0,0,0-1.37,2.2c0,.54,1.48.52,2.39.68a4,4,0,0,0,2.49-.17,8.75,8.75,0,0,0,3.07-1.82c1.83-1.7,2.52-3.65,1.81-4.13.35-.31.7-.64,1-.95-.1.31-.24.61-.35.92-.27-.84,1.09-2.78,1.87-4.48l1.57-2.41-2.69.39-.72,1.35.38-.16a41.33,41.33,0,0,1-4.1,6.93c-.61,1-1.25,1.84-1.92,2.7-.34.74.48.92,1.7.38.57-.29,1.12-.57,1.64-.89-.27.14-.52.27-.79.39,3.15-2.26,5.56-5.16,8.11-7.94a2.93,2.93,0,0,0,.79-1.4C252.09,229.54,251.73,229.64,251.31,230.1Z"/><path d="M243.52,240a10.42,10.42,0,0,0-1.85,1.14c0,.16-.07.24-.08.28.36-.14.86-.35,1.33-.57C243.83,240.44,243.88,240.08,243.52,240Z"/><path d="M241.59,241.43l-.59.22.52-.11,0-.06Z"/><path d="M405.41,350.46a63.92,63.92,0,0,0,11.75-6.77,60.5,60.5,0,0,0,9.58-8.73,50.12,50.12,0,0,0,6.66-9.8,38.3,38.3,0,0,0,3.37-9.82,36.7,36.7,0,0,0,.5-4.68c0-.39,0-.76,0-1.14l0-1.14v-.56l0-.64c0-.43,0-.85-.06-1.28a51,51,0,0,0-.54-5.26c-.25-1.78-.6-3.59-1-5.46a102.11,102.11,0,0,0-3.4-11.63c-.34-1-.72-2-1.1-3s-.88-2.28-1.29-3.42c-.85-2.27-1.77-4.49-2.66-6.7-.47-1.2-1.11-2.09-1.38-2.06s-.05,1,.41,2.08l1.34,3.3,1.32,3.36c.42,1.13.84,2.27,1.29,3.4s.77,2,1.12,3a107.42,107.42,0,0,1,3.45,11.5c.43,1.84.79,3.62,1.06,5.38a49.57,49.57,0,0,1,.59,5.15c.05.43.06.85.08,1.26s.05.87.05,1.21c0,.72.06,1.48,0,2.21l0,1.13-.1,1.13c0,.77-.21,1.51-.28,2.31a36.25,36.25,0,0,1-3.1,9.65,48.49,48.49,0,0,1-6.39,9.74A59.73,59.73,0,0,1,417.3,343a64.87,64.87,0,0,1-11.57,6.89,9.29,9.29,0,0,0-2.16,1.18C403.53,351.16,404.35,350.9,405.41,350.46Z"/><path d="M434.83,65.64c-.42,1-.21,1.11.49.19a23.28,23.28,0,0,0,2-3.25c.39-.85.15-.95-.49-.19A13.84,13.84,0,0,0,434.83,65.64Z"/><path d="M445.15,81.88,443.71,86,443,88c-.2.67-.37,1.34-.55,2-.35,1.33-.68,2.63-1,3.89a32.48,32.48,0,0,0-.76,3.73,13.55,13.55,0,0,1-.74,2.58c.44-.2.47,1,.07,3a142.19,142.19,0,0,0-2,30.5,177.07,177.07,0,0,0,4.2,31,199.33,199.33,0,0,0,9.5,30.34c1,2.45,2,4.87,3.09,7.24s2.22,4.7,3.3,6.75l1.89,3.43,2.11,3.77q2.18,3.86,4.41,8a4.68,4.68,0,0,1,1.85,1.48c2.48,2.68,6.06,9.16,8.53,16.48.57,1.85,1.16,3.7,1.66,5.56,1.71,5.59,3.16,11.21,4.35,16.8.61,2.87,1.22,5.94,1.68,9s.85,6.15,1.09,9.31a105.66,105.66,0,0,1-.2,19.3,96.88,96.88,0,0,1-1.58,9.77c-.16.81-.38,1.62-.58,2.42s-.39,1.6-.65,2.45c-.51,1.65-.94,3.31-1.57,4.92a56.46,56.46,0,0,1-2.95,8.51c-.65,1.46-1.33,2.95-2.15,4.41l-1.23,2.22L473.47,339A74.6,74.6,0,0,1,463,352.57a80.75,80.75,0,0,1-12.73,10.68,90,90,0,0,1-29.48,13c1.36-.16,2.23-.18,2.28,0-.24.52-5.05,2.07-10.89,2.66-2.94.3-5.86.54-8.81.58a98.31,98.31,0,0,0,12.69-.9A106,106,0,0,0,428.68,376c1.2-.35,2.31-.66,3.34-.93a93.53,93.53,0,0,0,26.42-13.38,85.5,85.5,0,0,0,12.82-11.64,79.18,79.18,0,0,0,10.37-14.71,76,76,0,0,0,6.8-17.16,89,89,0,0,0,2.82-17.3,112.2,112.2,0,0,0-2.83-32.37c-.28-1.27-.6-2.5-.91-3.74s-.61-2.31-.93-3.47c-.62-2.28-1.34-4.56-2-6.84-1.48-4.54-3.09-9.07-4.91-13.51a213,213,0,0,0-12.28-24.8l-3.06-5.33-1.44-2.51-.6-1-.55-1c-1.54-2.87-3.15-6.1-4.6-9.36a194.28,194.28,0,0,1-13.35-41.29,9.56,9.56,0,0,1-.28-3.25c.15-.57.46-.49.7.54a155.55,155.55,0,0,0,8.56,25.2c1.74,4,3.56,7.89,5.56,11.68s4,7.52,6.21,11c1.08,1.7,2.16,3.45,3.12,4.69l4,6c.7,1,1.45,2.18,2.15,3.29l2.21,3.53c1.49,2.42,3,5,4.45,7.66a159.24,159.24,0,0,1,8.19,17.21,167.52,167.52,0,0,1,6.31,18.9,126.61,126.61,0,0,1,4.36,27.14,101.25,101.25,0,0,1-3,29.88,82.55,82.55,0,0,1-13.77,29,80.51,80.51,0,0,1-10.16,11.45,86.5,86.5,0,0,1-11.48,9.18,97.65,97.65,0,0,1-25.11,12.05,108.94,108.94,0,0,1-13.11,3.22,102.76,102.76,0,0,1-13.3,1.42,90.68,90.68,0,0,1-26.59-2.72,60.93,60.93,0,0,1-13.16-5.08c-.51-.26-1-.51-1.54-.78l-1.48-.88c-1-.59-2-1.16-2.9-1.79-1.83-1.32-3.7-2.56-5.36-4a69.76,69.76,0,0,1-9.44-9.56,79.1,79.1,0,0,1-7.29-10.47,91.51,91.51,0,0,1-5.47-11l-1.09-2.82c-.38-.93-.71-1.88-1-2.83s-.63-1.88-.91-2.86l-.81-3c-.12-.5-.28-1-.39-1.5l-.29-1.5-.59-3c-.23-2-.64-4-.75-5.94l-.29-2.95c0-1-.08-1.94-.16-2.91-.2-2-.09-3.86-.23-5.79-.15-7.66,0-15.17,0-22.56l0-10.88c0-1.78,0-3.56-.07-5.3s0-3.46-.1-5.17c0-.42,0-.85,0-1.27l-.06-1.19c0-.79-.07-1.58-.14-2.36-.09-1.57-.22-3.13-.41-4.65a68.09,68.09,0,0,0-1.48-8.71c-.19-.65-.36-1.33-.56-2s-.37-1.27-.59-1.85c-.46-1.17-.93-2.26-1.42-3.23a12,12,0,0,0-.8-1.33,9.06,9.06,0,0,0-.81-1.16c-.15-.18-.28-.36-.42-.55l-.46-.44c-.15-.14-.27-.34-.43-.47s-.34-.26-.5-.4a5.51,5.51,0,0,0-.83-.67,7.21,7.21,0,0,0-.68-.41,1.83,1.83,0,0,1-.41-.26.31.31,0,0,1-.09-.11s0-.05-.07-.18,0-.07,0-.06-.08,0-.15-.05a1.44,1.44,0,0,1-.21,0,1.38,1.38,0,0,1-.27.11,4.56,4.56,0,0,0-1.47,1.86,16.47,16.47,0,0,0-1.46,5.14,21.93,21.93,0,0,0-.22,3.06c0,.52,0,1,0,1.56l.09,1.84c.19,2.5.38,5.19.53,8.11a45.38,45.38,0,0,1-.52,9.53c-.19.87-.36,1.73-.62,2.61l-.39,1.33-.49,1.33a26.44,26.44,0,0,1-1.2,2.61,32.42,32.42,0,0,1-1.78,2.71,20.89,20.89,0,0,1-10.61,7.25c-.51.14-1,.31-1.55.42l-1.56.27a21.06,21.06,0,0,1-3.17.25,28.71,28.71,0,0,1-3.2-.17,30.08,30.08,0,0,1-3.2-.62,27,27,0,0,1-3.15-1.14c-.52-.24-1-.5-1.54-.77l-.76-.41-.73-.49a17.83,17.83,0,0,1-2.8-2.2c-.44-.42-.88-.85-1.3-1.28s-.78-.94-1.15-1.43a17.77,17.77,0,0,1-1.09-1.49q-.46-.78-.9-1.59A22.85,22.85,0,0,1,273,264l-.52-1.46-.42-1.41-.17-.63c-.18-.68-.35-1.35-.48-2-.28-1.32-.48-2.54-.68-3.75-.33-2.38-.53-4.55-.75-6.56s-.43-3.82-.72-5.38a11.1,11.1,0,0,0-1.16-3.62.94.94,0,0,0-.72-.55s-.09,0,0,0l.4-.09.8-.2c.28-.09.48-.13.68-.19s.41-.11.61-.18l1.1-.38c.29-.1.61-.24.89-.37a5.89,5.89,0,0,0,1.45-.83,2.25,2.25,0,0,0-.26.27l-.11.14-.05.07h0l1.09-1.41h0l0,0a.7.7,0,0,0,.12-.18c.16-.3-.13.17-.16,1.08a9.15,9.15,0,0,0,.37,2.93,10.69,10.69,0,0,0,.76,1.89c.18.36.31.54.34.6s0,0-.14-.23a9.87,9.87,0,0,1-.75-1.64,8.61,8.61,0,0,0,.4,1c.11.19.05.15.06.25s-.08.13-.22.08-.12-.08-.26-.08a2.09,2.09,0,0,1-.5,0,6.54,6.54,0,0,0-1,.08,6.1,6.1,0,0,0-2.94.68,19.33,19.33,0,0,1-3.12,1.35l-.74-.63-.28.24a3.23,3.23,0,0,1-2.55,1.37l-1-.48a6.62,6.62,0,0,1-2.71-3,1.9,1.9,0,0,1-1-.8c-1.33.43-2.64.44-3.44-.67-.56.39-1,.15-.85-.56a2.9,2.9,0,0,1,.27-.78h0c-.41.18-.53.24-1,.51-.39.48-.64.75-.64.75-1,1.28-1,1.28-2,2.36a8.19,8.19,0,0,1-2.12,1.22,20.4,20.4,0,0,1-2.84.22,2.19,2.19,0,0,1-1.12-.36,1.31,1.31,0,0,1-.06-.27c-1.23.65-1.31.69-1.68.85a8.42,8.42,0,0,1-.88.21,1.94,1.94,0,0,0-1-.1,2.37,2.37,0,0,1-.48-.1c0-.55,0-.56-.16-.62a.75.75,0,0,1,.06-.3c.5-.52.7-.73.79-.81,1.37-.3,2-.5,2.31-.59l.32-.09-.16-.38.85-.09h-.68l.92-.49-1.15.53c.83-.67,1.21-1,1.47-1.25a6.26,6.26,0,0,0,.65-.7,5.88,5.88,0,0,0,1-1.25,1.21,1.21,0,0,1-.29,0c1.56-1.61,1.54-1.62,3-3.25a3.76,3.76,0,0,1,.56-.29,1.91,1.91,0,0,1,.46-.92l.74-.91.09-.23h0l.4-.9.08-.19h0a30.06,30.06,0,0,1,2.16-4,21.31,21.31,0,0,1,1.66-1.44l-.59.33c-.39.21-.39-.27-.58-.13a40.74,40.74,0,0,0-6,6,53.93,53.93,0,0,1-5.78,5.83,3.32,3.32,0,0,1-2,1.15c-.47,0-.24-.59.45-1.27,1.47-2.06,3.06-4.39,4.83-7,.88-1.3,1.82-2.74,2.93-4.13.55-.69,1.15-1.39,1.8-2.07.31-.34.65-.68,1-1s.65-.63,1.1-1a27.26,27.26,0,0,1,11.35-6.14,25,25,0,0,1,6.71-.88,21.68,21.68,0,0,1,7.09,1.2,19.54,19.54,0,0,1,9.27,6.16,20.16,20.16,0,0,1,2,2.77l-.24-.62a18.87,18.87,0,0,1,1.47,3.09l.13.33A21.14,21.14,0,0,0,290,225c-.28-.55-.58-1.1-.91-1.65a23.08,23.08,0,0,0-2.54-3.09,16,16,0,0,0-1.58-1.44,15.06,15.06,0,0,0-1.81-1.33,22,22,0,0,0-8.23-3.2,26,26,0,0,0-8-.12,29.71,29.71,0,0,0-7.2,1.9,39,39,0,0,0-6.73,3.52c-.52.35-1,.71-1.56,1.09l-1.35,1c-.87.66-1.73,1.37-2.53,2.11s-1.44,1.26-1.59,1,.38-1.12,1.15-1.92c.62-.71,1.25-1.4,1.95-2.09l1.07-1,1.3-1.15a30.68,30.68,0,0,1,5.73-3.84,30.11,30.11,0,0,1,6.59-2.53,29.72,29.72,0,0,1,3.62-.72,29.28,29.28,0,0,1,3.9-.24,28.16,28.16,0,0,1,4.05.35,24.89,24.89,0,0,1,4.11,1.08,21.74,21.74,0,0,1,7.18,4.21,20.3,20.3,0,0,1,2.47,2.62A21.69,21.69,0,0,1,291,222.3a19.77,19.77,0,0,1,2.13,5.44,17.22,17.22,0,0,1,.92,7.34v.1c.12-.48.19-1,.28-1.51a12.19,12.19,0,0,1,0,1.23c0,.35-.08.67-.13,1-.09.65-.23,1.2-.31,1.92l.5-.56a46.51,46.51,0,0,1-.73,5.3c-.31,1.61-.63,3.09-1,4.46-.66,2.75-1.32,5.14-1.83,7.13l-.09.46c0,.84.11,1.61.19,2.35,0,.18,0,.35.07.53v.16c0,.23,0,.48,0,.69s0,.44.08.62a2.27,2.27,0,0,0,.1.48,2.87,2.87,0,0,0,.55,1.39,4.79,4.79,0,0,0,1.55,1.22,3.76,3.76,0,0,1-1.81-1.76,2.14,2.14,0,0,0-.13-.5,1.62,1.62,0,0,0-.06-.51c0-.27-.08-.54-.08-.86a3.7,3.7,0,0,1,0-.48c0-.15,0-.42,0-.38V258c0,.19,0,.35,0,.51a3,3,0,0,0,.07.46,1.86,1.86,0,0,0,.07.38,2.77,2.77,0,0,0,.31,1,4.14,4.14,0,0,0,2.13,1.69,5.67,5.67,0,0,0,3.48.15,4.78,4.78,0,0,0,2.79-1.81c1.2-1.66,1.84-4.2,1.92-7.29a47.25,47.25,0,0,0-.21-4.93c-.18-1.73-.39-3.53-.62-5.42-.11-.91-.23-2-.31-3s-.11-2.11-.14-3.17a44.81,44.81,0,0,1,.38-6.49,28.67,28.67,0,0,1,1.74-6.76,20.55,20.55,0,0,1,4.22-6.67c.5-.5,1-1,1.57-1.45s1.16-.85,1.75-1.26a17.64,17.64,0,0,1,4-1.89,18.81,18.81,0,0,1,8.08-.73,22.82,22.82,0,0,1,6.8,2,28.32,28.32,0,0,1,5.23,3.24,28.61,28.61,0,0,1,7,8,19.64,19.64,0,0,1,1.09,2c.33.65.65,1.28.93,1.9.47,1.25,1,2.43,1.3,3.53a57.64,57.64,0,0,1,3.3,23.58c-.05,1-.12,1.93-.23,2.88s-.18,1.92-.31,2.82c-.27,1.82-.52,3.65-.85,5.43-.66,3.59-1.43,7.08-2.2,10.55-1.59,6.92-3.3,13.66-4.23,20.42s-1.15,13.54.28,19.9a37.35,37.35,0,0,0,3.17,9l1.19,2.16c.39.73.8,1.44,1.25,2.13l1.3,2.08,1.42,2,.71,1,.76,1,1.51,1.89c1.1,1.19,2.11,2.44,3.29,3.51a53.11,53.11,0,0,0,7.21,6,39.94,39.94,0,0,0,16.11,6.67,20.35,20.35,0,0,0,2,.27l2,.12a16.85,16.85,0,0,0,2,0c.68,0,1.27,0,2-.08s1.42-.11,2.12-.19l2.12-.29c1.42-.27,2.81-.54,4.2-.91a29.56,29.56,0,0,1,4.75-1.05c.26.14-1.2.86-3.51,1.49a53.43,53.43,0,0,1-6.1,1.31l-1.55.2c-.52.06-1,.09-1.54.14-1.07.11-2,.1-3,.13-.48,0-1,.05-1.47,0l-1.48-.11c-.5,0-1,0-1.5-.11l-1.5-.24c-.49-.1-1-.16-1.5-.27l-1.5-.39-1.51-.4-1.49-.53c-8-2.83-15.54-8.6-21.45-15.93A63.45,63.45,0,0,1,343,326a39,39,0,0,1-3.68-13.61,63.15,63.15,0,0,1-.19-7.29c0-1.22.14-2.45.23-3.68s.23-2.46.4-3.69c.63-4.93,1.63-9.86,2.74-14.84-1,4.15-1.81,8.28-2.5,12.41A82.29,82.29,0,0,0,339,307.63a51.27,51.27,0,0,0,1.45,12,46,46,0,0,0,4.73,11,62.69,62.69,0,0,0,7,9.89,54.86,54.86,0,0,0,8.61,8.17,48.1,48.1,0,0,0,9.87,5.81,36,36,0,0,0,10.54,2.8l1.35.15,1.35,0c.92,0,1.76.08,2.74,0s1.89-.07,2.84-.18l1.42-.13,1.42-.22a75.92,75.92,0,0,0,10.94-2.55,65.14,65.14,0,0,0,23.44-14.22,48.56,48.56,0,0,0,13.07-20A35.82,35.82,0,0,0,441.41,310l0-1.25c0-.42,0-.91,0-1.36s0-.93-.05-1.39,0-.92-.08-1.39c-.12-1.86-.4-3.76-.71-5.68a82.83,82.83,0,0,0-3-11.89q-1-3.06-2.27-6.21c-.46-1.11-.91-2.23-1.37-3.34s-.94-2.33-1.44-3.47a226.81,226.81,0,0,0-10.88-22c-2-3.57-4.12-7.19-6.42-11.21l-1.74-3.08-1.8-3.24c-.55-1-1.4-2.58-2-3.82s-1.27-2.54-1.86-3.8c-2.33-5-4.36-9.87-6.26-14.86s-3.53-10-5.05-15.19-2.79-10.44-3.93-15.84-2-10.94-2.71-16.63a172.35,172.35,0,0,1,.85-48A149.79,149.79,0,0,1,396.35,93c1.32-3.77,2.8-7.46,4.23-11.16,1.63-3.58,3.3-7.14,5-10.63a158.8,158.8,0,0,1,26.81-36.81,170.68,170.68,0,0,1,16.51-14.9c2.95-2.24,5.85-4.51,8.94-6.54s6.12-4.11,9.3-6a87.6,87.6,0,0,1,9.39-5A21.06,21.06,0,0,1,481.78,0c1.15,0-3.59,2.77-10.15,6.87-3.24,2-6.35,4.13-9.43,6.35l-4.59,3.41c-1.53,1.14-3,2.39-4.47,3.59l-2.22,1.83c-.73.62-1.43,1.28-2.15,1.91l-4.29,3.88-4.14,4.08-2,2.07c-.68.7-1.32,1.43-2,2.15q-2,2.16-3.93,4.36c-1.28,1.48-2.5,3-3.75,4.56-2.52,3-4.8,6.29-7.11,9.53-1.18,1.61-2.21,3.33-3.29,5s-2.14,3.41-3.18,5.12l-2.91,5.34c-.95,1.8-2,3.56-2.77,5.44l-2.54,5.59c-.41.94-.87,1.86-1.23,2.82l-1.08,2.9-2.14,5.82c-.72,1.94-1.25,4-1.86,5.94a154.21,154.21,0,0,0-4.94,24.32,176.77,176.77,0,0,0,1.09,48.67,206.62,206.62,0,0,0,13,46.19c1.56,3.76,3.16,7.46,5.13,11.37l.78,1.54.71,1.34,1.35,2.52,2.63,4.8c1.72,3.1,3.35,6,4.87,8.86s3,5.65,4.38,8.46c2.79,5.62,5.24,11.38,7.6,17.38l1.7,4.53c.51,1.4,1,2.8,1.46,4.2.93,2.78,1.71,5.55,2.37,8.28a68.33,68.33,0,0,1,2,16l0,1.95-.12,1.8c0,.6-.13,1.19-.19,1.8a16.1,16.1,0,0,1-.26,1.81,37.92,37.92,0,0,1-2,7.27c-3.12,8.34-9.24,16.49-17.38,22.85.15,0,.3,0,.35.1.21.35-.36,1.3-1.6,2.55,9.86-6.89,17.45-16.16,21.19-25.86a41.86,41.86,0,0,0,1.82-10.44c.11-1.66.06-3.61,0-5.42s-.3-3.71-.54-5.58a83.78,83.78,0,0,0-2.49-11.41c-.55-1.93-1.16-3.87-1.85-5.82-.32-1-.69-2-1.05-2.95l-1.17-3a264.9,264.9,0,0,0-10.93-24.8c-2-4.09-4.25-8.28-6.64-12.83-1.18-2.29-2.41-4.67-3.66-7.2l-1-2-1.05-2.24c-.66-1.46-1.27-2.85-1.85-4.27a175.26,175.26,0,0,1-7.51-22.75,184.72,184.72,0,0,1-4.35-22.5,179.92,179.92,0,0,1-.28-45,152.35,152.35,0,0,1,4.23-28.38c.29-1.17.56-2.34.89-3.5l1-3.47c.62-2.33,1.51-4.56,2.3-6.83l1.21-3.38.62-1.69.71-1.65,2.88-6.55a159.35,159.35,0,0,1,14.33-24.36,175.24,175.24,0,0,1,18-21.21,13.26,13.26,0,0,1,2.69-2.3c.51-.26,0,.38-1,1.44a170.46,170.46,0,0,0-23.32,30.67,153.07,153.07,0,0,0-15.82,36.8,19,19,0,0,1,2.76-4.36c.82-.92,1.46-1.28,1.88-1,.91.64.57,3.92-.08,8.82L416.65,98l1.5-4.19,1.52-4.18c.48-1.4,1.15-2.72,1.73-4.08,1.49-3.33,3-5.81,3.41-5.5s-.33,3.06-1.7,6.21c-1.25,2.7-2.19,5.53-3.19,8.34-.5,1.41-1,2.81-1.48,4.23l-1.27,4.3a149.64,149.64,0,0,0-3.76,17.52,163.75,163.75,0,0,0-1.64,17.8,168.07,168.07,0,0,0,.33,17.82,197.77,197.77,0,0,0,16.39,61.21c.73,1.62,1.5,3.24,2.33,4.88l1.24,2.37,1.21,2.29,4.83,8.91c-1-3.64-1.4-6.56-1-8.24a0,0,0,0,1,0,0q-1.47-2.82-2.93-5.64c-1-2-1.91-3.94-2.78-5.92a188.56,188.56,0,0,1-10.63-27.65,183.22,183.22,0,0,1-6.19-29.29A149.58,149.58,0,0,1,419,98.52a154.86,154.86,0,0,1,29.1-53.66,194.76,194.76,0,0,1,21-21.83A211.26,211.26,0,0,1,493,4.62a13.21,13.21,0,0,1,2.51-1.47,10,10,0,0,1-2.05,1.58c-20,13.51-38.1,30.29-52.24,50.36l.07-.08c.68-.73,1-.75.46.21a29.65,29.65,0,0,1-2.19,3.15c-.74.87-.88.66-.48-.18a148.17,148.17,0,0,0-15.85,30.5,156.68,156.68,0,0,0-5.11,16.51,146.93,146.93,0,0,0-3,17,155.47,155.47,0,0,0,.07,34A179.67,179.67,0,0,0,422,189c-5.33-19.89-7.71-40.79-5.71-61.51a136.61,136.61,0,0,1,6.39-30.46,140.27,140.27,0,0,1,12.8-28.18l1.48-3,1.64-2.94c.55-1,1.1-2,1.66-2.95S441.32,58,442,57a13.23,13.23,0,0,1,2.16-2.6c.34-.18,0,.67-.71,1.73s-1.38,2.09-2,3.2a66.15,66.15,0,0,1,6.1-7.63c1.77-1.73,3-2.61,3.36-2.27s-.44,2.12-1.74,4.48c-.62,1.19-1.39,2.57-2.29,4-.45.74-.93,1.51-1.44,2.29s-1,1.63-1.5,2.47c-11.06,18-18.64,38.05-21.16,58.89-.21,2.26-.35,4.53-.48,6.79.06,2.3.08,4.56.26,6.84a143.47,143.47,0,0,1,3.24-24c.91-3.93,1.9-7.84,3.18-11.66l1.94-5.71c.3-1,.69-1.89,1.08-2.82l1.15-2.79c1.43-3.76,3.29-7.34,5-11,.89-1.8,1.92-3.53,2.87-5.3l1.45-2.64c.5-.87,1.05-1.71,1.57-2.57l3.18-5.12,3.4-5c1.1-1.68,2.35-3.25,3.54-4.86s2.37-3.24,3.67-4.77c1.7-2.17,3.35-3.85,3.64-3.68s-.86,2.09-2.53,4.27c-1.07,1.4-2.05,2.85-3,4.32L453,56.34l-2.74,4.49-1.37,2.23-1.25,2.31L445.1,70c-.8,1.55-1.53,3.14-2.29,4.71-1.58,3.1-2.84,6.35-4.17,9.54-.71,1.59-1.23,3.24-1.8,4.88L435.14,94l-1.38,5c-.44,1.67-1,3.3-1.3,5a134.62,134.62,0,0,0-3.1,20.35c-2.05,27.4,3.53,55.33,13.91,80.87,1.08,2,2.19,4,3.34,5.87s2.26,3.58,3.59,5.59c2.59,3.89,5.33,7.92,8,12.15a184.8,184.8,0,0,1,14.59,27.46c-.75-2.53-1.59-5.09-2.48-7.63a177.2,177.2,0,0,0-10.11-22.81c-1.83-3.53-3.69-6.87-5.45-10.06-.86-1.58-1.77-3.24-2.44-4.51s-1.48-2.93-2.2-4.44a210.62,210.62,0,0,1-13.74-38.23,155.92,155.92,0,0,1-4.94-40.28,124.75,124.75,0,0,1,2.05-20.63c.37-1.71.68-3.44,1.09-5.15s.91-3.43,1.37-5.15l.69-2.59.87-2.55,1.76-5.13a5.66,5.66,0,0,1,1.43-2.5c.25-.06.05.94-.54,2.29-.55,1.67-1.11,3.34-1.66,5s-1.12,3.29-1.5,5c-.84,3.34-1.75,6.62-2.31,10a124.09,124.09,0,0,0-2,19.88,161.31,161.31,0,0,0,4.47,39.79A186.58,186.58,0,0,0,447.55,198c1.06,2.48,2.17,4.91,3.33,7.27s2.38,4.68,3.54,6.64c1.36,2.34,2.8,4.74,4.28,7.2s3,5,4.49,7.66c-1.39-2.76-2.76-5.42-4.14-8l-3.94-7.4c-.5-.95-1.06-2.08-1.59-3.2s-1.08-2.29-1.61-3.46c-1.05-2.34-2.06-4.74-3-7.16a204.52,204.52,0,0,1-9.4-29.87,160.52,160.52,0,0,1-4.19-30.9c0-1.3-.11-2.61-.1-3.91l0-3.9c.1-2.6.17-5.22.41-7.81a119.26,119.26,0,0,1,2.24-15.56,16.23,16.23,0,0,1,1.48-4.64,2.15,2.15,0,0,1,0-1.1c.22-1.32.45-2.67.71-4s.71-2.73,1.07-4.13.75-2.82,1.19-4.24l1.49-4.24a9.74,9.74,0,0,1,1.44-2.87C445.62,79.9,445.53,80.64,445.15,81.88ZM274.71,221.38l-.35-.13a11.86,11.86,0,0,1,1.24.34l.21.12a11.38,11.38,0,0,1,1.37,1l-.74-.45C276,222,275.36,221.68,274.71,221.38Zm-14.6,9.75h0l-.85.27Zm79.14,83.74a64.33,64.33,0,0,1,.2-17.63c.77-5.91,2.09-11.81,3.42-17.77s2.65-12,3.51-18.31a68.93,68.93,0,0,0,0-19.82,67.5,67.5,0,0,1,.36,19.38c-1.3,9.54-3.71,18.54-5.57,27.48A111.05,111.05,0,0,0,339,301.59,57.74,57.74,0,0,0,339.25,314.87Zm-79.2-92.3a14.8,14.8,0,0,1,5.07-1.06,14.45,14.45,0,0,1,3.72-1.3,17.89,17.89,0,0,1,5.73-.27,15.88,15.88,0,0,1,5.76,1.85c-.37-.48.49,0,.93.25a10.61,10.61,0,0,1,1.3.82,15.8,15.8,0,0,0-5.9-3,19.11,19.11,0,0,0-6.38-.54A26,26,0,0,0,260.05,222.57ZM246.65,240l-.3.13a4.26,4.26,0,0,1-.22-.58Zm.45.94.34-.27C247.57,240.87,247.41,240.94,247.1,241Zm3-2.59a3,3,0,0,0-.58.31Zm15.74,3.83c-.74-.67-1.43-1.34-2.1-2,.63.71,1.28,1.39,2,2.08Z"/><path d="M20.1,368.63l0,.26a.47.47,0,0,1-.43-.25c.63,2.36,3.21,3.24,5.43,3.08a1.1,1.1,0,0,0,1.54-.06,1.08,1.08,0,0,0-.05-1.55,1.39,1.39,0,0,1-.16-.41,8.55,8.55,0,0,0-1.17-3.5l.21.84a2.78,2.78,0,0,0-.63-.88l-.11.34A2.53,2.53,0,1,0,19.93,368Z"/><path d="M19.65,372.71c-.3-.73-.56-1.47-.82-2.22l0-.24-.53.76,0,0a4.47,4.47,0,0,1,2.85.54l.35.1a.8.8,0,0,0,.55-.2.82.82,0,0,0,.05-1.15l-.35-.37c-.65-1.18-2.17-2.39-3.67-1.57-.35.19-.52.64-.76,1a1.11,1.11,0,0,0,.09,1.57,1.12,1.12,0,0,0,1.58-.09l.17.3-.33,0c.46-.32,1-.07,1.49,0l.58.27.6-1.35-.37-.05a1.2,1.2,0,0,0,0,.17,10,10,0,0,1-2.13-.34l-1-.11a.68.68,0,0,0-.53.76l.11.48,0-.25c.49.79,1.1,1.51,1.58,2.31a.28.28,0,1,0,.49-.26Z"/><path d="M17.09,371a.61.61,0,0,0-.26-.45l-.13,0c0,.09,0,.23.06.36S17,371.14,17.09,371Z"/><path d="M16.7,370.56l0-.16,0,.16h.05Z"/><path d="M41.8,386.69a40.12,40.12,0,0,0,2.89,3.07s.11,0,.16-.07.08-.14,0-.17A39.9,39.9,0,0,1,42,386.44s-.11,0-.16.06A.2.2,0,0,0,41.8,386.69Z"/><path d="M44.58,400a.27.27,0,0,0-.13.18c0,.06,0,.1.09.07a.31.31,0,0,0,.14-.18C44.69,400,44.64,400,44.58,400Z"/><path d="M40.08,405.36a1.82,1.82,0,0,0-.75.07.06.06,0,0,1-.07-.06.4.4,0,0,1-.28.21,15.23,15.23,0,0,1-4.83-.84,1.09,1.09,0,0,1-.25.23c-.3.22-.57.25-.7.07l-.07-.17c-.38-.56-.79-1.08-1.15-1.65a.85.85,0,0,1-.55,0,13.79,13.79,0,0,1-2.05-.08.88.88,0,0,1-.16.3c-.2.24-.45.34-.56.24l-.2-.13c.13.2.26.4.38.6a.18.18,0,0,1,0,.1,3.82,3.82,0,0,0,.6.43,15.15,15.15,0,0,0,6.65,1.63c.06,0,.09,0,.07.09s-.09.15-.15.16c-2,.44-4.08,1.37-5.85,1.29a31.17,31.17,0,0,1-5.95-.8c-1.45-1.13-3.26-1.59-5.09-2.31-.62-.24-1.2-.51-1.77-.79a1.32,1.32,0,0,1-.25-.15l-.38-.24L16,403l-1.51-1c-2-1.37-3.9-2.79-5.85-4.26a3.32,3.32,0,0,1-1.2-4.54A3.35,3.35,0,0,1,10,391.58l-.33-.29-.43-.61a2.91,2.91,0,0,1-.47-2l.08-.91c.37-1.55.27-3.16.78-4.69l.44-.38v-.21a2.85,2.85,0,0,1,.31-1.72l.46-.52a7,7,0,0,1,1.87-1.38,2.36,2.36,0,0,1,.62-.6,3.38,3.38,0,0,1,1.23-1.92.48.48,0,0,1,.73-.43h0c0-.2,0-.26.07-.49l-.15-.25-.53-.72a2.33,2.33,0,0,1-.08-.8c.46-1.21.46-1.21.84-1.59l.15-.08c-.13-.32-.14-.35-.17-.44a1.17,1.17,0,0,1,0-.25c.17-.24.17-.24.19-.35a1,1,0,0,1,.12-.18c.33-.15.33-.15.39-.22a.85.85,0,0,1,.17-.06l.34.07-.12.85.23-.15-.13.33.14-.28.06.28,0-.37c.33.41.33.41.5.52a.82.82,0,0,0,.35.22,1.1,1.1,0,0,1,.09-.14c.35.42.35.42.69.85a1.57,1.57,0,0,1,0,.24.25.25,0,0,1,.27.07l.19.22h.07v0l.28,0h.06l1.19.12a3.51,3.51,0,0,1,.27.4,1.23,1.23,0,0,0,0-.19c0-.14.23-.3.2-.35A16.74,16.74,0,0,0,18.73,370a.4.4,0,0,1-.15-.56.41.41,0,0,1,.56-.15,9,9,0,0,1,6.54,4.95c.45.54.92,1.05,1.39,1.57,0-.06,0-.11,0-.17l.29.49,0,0v-.64c0-.1-.09-.2-.13-.29a26.3,26.3,0,0,1-2.71-4A22.35,22.35,0,0,1,23.4,369a.38.38,0,0,1,0-.53.36.36,0,0,1,.51,0c2.28,1.32,4.43,3.4,5,6a2.1,2.1,0,0,1,.75,1.17l0,0,0-.52c.22.31.16.69.33,1l.25-.53c1.17,1.36,2.77,2.4,3.55,4.05a.61.61,0,0,1,.12.16,8.82,8.82,0,0,1,2,.46l-.23-.41a1.39,1.39,0,0,1,1,.28,3.12,3.12,0,0,1,.38,3.37,48.09,48.09,0,0,0,4.52,2.64c.09,0,.08.18,0,.32s-.24.24-.33.2a16.43,16.43,0,0,1-3.69-1.38,15.3,15.3,0,0,0,2.14,2.46l.37.19a.77.77,0,0,1,.27.32,13,13,0,0,0,3.43,2.26,31.25,31.25,0,0,0,3.51,1.1,12.29,12.29,0,0,1,4.77,1.8c.21.09.18.46-.07.82s-.61.58-.82.48c-3.56-1.06-7.24-1.86-10-4.24l-.87-.77-.1.14a1.72,1.72,0,0,1-.46.44,10.91,10.91,0,0,1,.86,1,6.52,6.52,0,0,1,3.41,1.71,8.9,8.9,0,0,1,1.28,2.47c1,.43,2,.79,3,1.26,0,0,.06.07,0,.14a.22.22,0,0,1-.16.13,13.88,13.88,0,0,1-2.56-.33,2.59,2.59,0,0,1-1.28,1.55l.38.33c.08.08.05.25-.07.4s-.3.24-.37.18l-1.6-1.35c-.79-.34-1.56-.7-2.32-1.08a3.41,3.41,0,0,1-.39.9h0l.32.22A13.82,13.82,0,0,1,47,401.15s0,.11,0,.18-.13.11-.16.08A11.87,11.87,0,0,0,45,400.08h0a.29.29,0,0,1-.13.18c-.06,0-.11,0-.1-.06a.26.26,0,0,1,.14-.18,14.65,14.65,0,0,0-3.87-1.62A17.1,17.1,0,0,1,44,400.7l.53,0s0,.08,0,.16-.12.12-.16.11h-.14c.16.17.07.58-.23,1s-.69.54-.87.38a18.48,18.48,0,0,1-1.64-1.07l-.22-.06-.31,0c.68.77,1.34,1.57,2,2.38.07.05,0,.2-.06.33s-.24.21-.31.16a27.94,27.94,0,0,1-5.11-2.14l-2.75.64.17.16c1.54,1.19,4.12.57,5.87,1.39.05,0,0,.09,0,.16s-.12.12-.16.09a16.71,16.71,0,0,0-3-.46,15.31,15.31,0,0,0-2.55-.28c1.26.73,2.9.86,4.28,1.42.07,0,.09.08.07.17a.3.3,0,0,1,.1-.07,2.72,2.72,0,0,1,.78-.08c.06,0,.07.06,0,.14A.27.27,0,0,1,40.08,405.36ZM21.8,378.58v-.13c0,.09.05.19.09.29l-.15.75S21.77,379,21.8,378.58Zm-4.95-.65h0l.08-.43C16.89,377.68,16.87,377.81,16.85,377.93Zm21,8.75a4.52,4.52,0,0,1-1.41-1.86l.5.25C37.3,385.57,37.6,386.11,37.89,386.68ZM21.1,374.75a6,6,0,0,1,0,1.59,2.46,2.46,0,0,1,.69.42,18.17,18.17,0,0,1,1.52,1.52c.08-.25.19-.12.28-.09l.24.12c-.48-.6-1-1.21-1.43-1.84A15.6,15.6,0,0,1,21.1,374.75Zm-4.68-2.46v-.11l.33-.2Zm-.55.35.05.11C15.81,372.83,15.81,372.77,15.87,372.64Zm.49,1a.5.5,0,0,0,0-.24Zm-6,8.83,1.41-1.19-1.39,1.12Z"/><path d="M9.18,248.81l.45.67a2.83,2.83,0,0,1-1.52-.77,25.67,25.67,0,0,0,4.26,4.08,39.51,39.51,0,0,0,4.89,3,36.3,36.3,0,0,0,5,2.16,41.52,41.52,0,0,0,4.64,1.52c1.69,1.29,3.48,2,4,1.35s-.4-2.44-2.12-3.91a11.77,11.77,0,0,1-1-1.19,47.85,47.85,0,0,0-3.49-5c-1.34-1.63-2.81-3.39-4.44-5.15.58.8,1.17,1.64,1.74,2.44A22.56,22.56,0,0,0,18.68,245c.06.26.14.57.2.83a22.6,22.6,0,0,0-5.51-5,8.91,8.91,0,0,0-5.52-1.62c-3.06.47-3,4.31,0,7.92Z"/><path d="M13.6,258.64c-1.8-1.75-3.52-3.61-5.25-5.53l-.28-.58-.38,1.75.07-.09a8.77,8.77,0,0,1,4,.47,29.7,29.7,0,0,1,4.44,1.73l1.07.41a1.22,1.22,0,0,0,1.18-.2c.49-.55-.13-1.78-1.39-2.78-.49-.39-1-.75-1.46-1.11a33.69,33.69,0,0,0-2.9-2.41,20.69,20.69,0,0,0-3.33-2.12c-2.24-1.08-4.42-1.61-5.88-.67-.66.43-.5,1.58-.62,2.46-.47,1.13.63,2.92,2.44,4s3.63,1,4.1,0l.87.77-.86,0c.82-.66,2.55.12,3.95.36l1.94.84-.23-3L14,252.59c0,.15.13.39.12.39-2.07-.44-4-.91-6.2-1.57L5,251c-.84.12-1,.95-.37,1.83l1,1.18-.41-.61c1.22,1,2.48,1.87,3.73,2.86s2.5,1.92,3.67,2.88a1.32,1.32,0,0,0,1.18.37C14.06,259.33,14,259,13.6,258.64Z"/><path d="M4.36,254.09A3.51,3.51,0,0,0,3,253l-.32.09.7.9C3.91,254.59,4.29,254.49,4.36,254.09Z"/><path d="M2.72,253.05l-.28-.38.15.38c.07,0,.08,0,.08,0Z"/><path d="M134.75,301.74c-.8-2.83-1.7-5.73-2.75-8.74-.27-.75-.52-1.5-.81-2.27l-.91-2.44c-.62-1.72-1.29-3.41-2-5.07-2.72-6.71-5.73-12.91-9-19.35l-5.2-10.22-1.42-2.81-1.44-2.94-1.5-3.1-.8-1.66-.91-2c-1.11-2.5-2.09-4.87-3-7.23s-1.79-4.71-2.61-7.05c-1.65-4.69-3.12-9.38-4.46-14.11-.35-1.27-.84-2.28-1.12-2.27s-.19,1.05.16,2.23q2,7.13,4.43,14.17c1.65,4.73,3.42,9.35,5.61,14.33l.89,2,.83,1.76,1.5,3.11,1.45,3c.47,1,1,1.9,1.42,2.81l5.18,10.2c3.25,6.4,6.25,12.53,9,19.17,1.33,3.24,2.69,6.93,3.71,9.73q1.58,4.47,2.78,8.65c.25.75.6,1.34.85,1.42S135,302.46,134.75,301.74Z"/><path d="M147.57,56.87c-.41.73-.23.81.4.22a11,11,0,0,0,1.77-2.24c.34-.61.15-.73-.39-.22A11.06,11.06,0,0,0,147.57,56.87Z"/><path d="M155.2,71.1a85.29,85.29,0,0,0-5.14,11.47,9,9,0,0,1-.9,1.87c.39-.07.29.83-.25,2.33-1.44,3.66-2.48,7.46-3.67,11.18-.51,1.9-.94,3.81-1.43,5.7-.24.95-.5,1.89-.71,2.84l-.54,2.88c-.33,1.92-.76,3.82-1,5.74s-.59,3.82-.74,5.77l-.29,2.89c-.1,1-.14,2-.21,2.91-.15,1.94-.2,3.89-.26,5.83a167.12,167.12,0,0,0,5.75,46.59,2.93,2.93,0,0,1,1.23,1.11c1.51,1.92,2.95,6,4,10.37l.67,3.33a164.48,164.48,0,0,0,6.09,19.47c.59,1.53,1.21,3.06,1.78,4.4l.47,1.05.56,1.23,1.16,2.51c1.6,3.38,3.26,7,4.92,10.82a65.31,65.31,0,0,1,5.66,10.45,169.85,169.85,0,0,1,8.94,20.77c.61,1.78,1.24,3.56,1.82,5.35l.84,2.69c.28.89.57,1.77.84,2.77a112.31,112.31,0,0,1,2.79,12c.13-1.11.36-1.81.7-1.87.86.15,2,4,2.18,8.71.13,2.39.19,4.8.14,7.23a118.19,118.19,0,0,0-.84-20.47c-.14-.95-.24-1.84-.32-2.64q-.48-2.67-1-5.3c-.37-1.63-.75-3.26-1.12-4.91s-.85-3.29-1.27-4.94l-1.41-5a165.26,165.26,0,0,0-7.94-21.17c-3.07-6.71-6.47-12.91-9.49-18.14-.69-1.23-1.39-2.45-2.09-3.67-.53-.91-1.14-2-1.72-3.19-1.19-2.29-2.35-4.72-3.46-7.18-2.23-4.93-4.23-10-6-15.18a200.8,200.8,0,0,1-8.22-31.35,150.63,150.63,0,0,1-2.35-31.92,5.23,5.23,0,0,1,.4-2.36c.26-.37.51-.24.5.54a107.61,107.61,0,0,0,2.2,19.61,164.12,164.12,0,0,0,4.94,18.5c1,3,2.09,6.07,3.19,9.12s2.37,6.1,3.64,9.19c2.54,6.17,5.38,12.51,8.56,19,.94,1.91,1.92,3.79,2.92,5.59s2,3.56,3,5c.23.36.46.7.64.93.27.39.61,1,.9,1.41l1.93,3c1.38,2.14,2.71,4.38,4.15,6.84s2.82,5,4.24,7.69,2.72,5.49,4,8.35a176.7,176.7,0,0,1,6.64,17.64c1,3,1.82,6,2.65,8.94l1.18,4.46c.39,1.61.8,3.28,1.16,5a111.72,111.72,0,0,1,2.65,21.36,109.57,109.57,0,0,1-1.93,23.18c-.39,2-.81,3.94-1.32,5.91-.26,1-.5,1.94-.8,3l-1,3.1a93.24,93.24,0,0,1-4.78,11.88A91.62,91.62,0,0,1,178,363.84a97.13,97.13,0,0,1-18.1,14.63A104.32,104.32,0,0,1,120,393.12a80.43,80.43,0,0,1-20.8.42,71.28,71.28,0,0,1-10.31-1.88c-1.71-.47-3.39-.93-5.06-1.53l-1.24-.43-.63-.22-.77-.29c-1-.39-2-.78-3-1.21s-1.9-1-2.83-1.49-1.76-1.14-2.63-1.7A24.8,24.8,0,0,1,70.28,383l-1.16-1c-.37-.32-.71-.67-1.06-1a44.91,44.91,0,0,1-6.94-8.61,71,71,0,0,1-7.93-18.22c-.61-2.06-1.12-4.23-1.55-6.22s-.88-4-1.31-6c-.85-4-1.69-8.05-2.62-12a75.92,75.92,0,0,0-3.25-11,34.39,34.39,0,0,0-4.84-8c-.49-.48-.9-1-1.4-1.41l-.94-.81c-.23-.21-.52-.38-.77-.57a13.29,13.29,0,0,0-1.57-1,33.07,33.07,0,0,0-3.35-1.72l-1.78-.71c-.61-.22-1.27-.42-1.88-.62s-1.25-.38-1.91-.54-1.28-.33-2-.47c-1.42-.25-2.66-.56-4.16-.7l-2.13-.25L15.51,302a14.05,14.05,0,0,1-1.63-.09c-.54-.05-1.07-.11-1.55-.2a9.25,9.25,0,0,1-2.51-.82,2.86,2.86,0,0,1-2-3.11c.3-1.61,2-3.07,4.43-3.78l-1.17-.18-1.73-.54a8.47,8.47,0,0,1-1.14-.47,6.77,6.77,0,0,1-1-.54,4.33,4.33,0,0,1-1.39-1.41l-.9-1.36a23,23,0,0,0-2.06-3.8A14.18,14.18,0,0,1,1,281.5l.66-.94-.27-.37A4.56,4.56,0,0,1,0,276.94l.5-1.25a9.27,9.27,0,0,1,3.05-3.55,3,3,0,0,1,.81-1.41,4.24,4.24,0,0,1,.69-4.26c-.39-.57-.14-1.08.56-1.14a2.06,2.06,0,0,1,.76.11h0c-.18-.43-.23-.56-.49-1.08l-.73-.53c-1.27-.75-1.27-.75-2.37-1.44a6.94,6.94,0,0,1-1.3-1.78c-.45-2.86-.45-2.89,0-3.84a1.81,1.81,0,0,1,.29-.19c-.8-.77-.85-.84-1.06-1.06a3.08,3.08,0,0,1-.32-.62c.11-.59.11-.59,0-.87a1.72,1.72,0,0,1,.08-.45c.67-.38.67-.37.74-.55a1.27,1.27,0,0,1,.36-.16l1,.19c.86,2.07.87,2.08.87,2.08l.41-.35.11.79v-.67l.53.68-.57-.89a9.88,9.88,0,0,0,2,1.25,4.49,4.49,0,0,0,1.25.53,1.23,1.23,0,0,1,0-.33c1.53,1.05,1.53,1.08,3,2.14a5.06,5.06,0,0,1,.25.55,1,1,0,0,1,.81.21l.79.52h.2v0l.77.12.16,0h0c.52.07,1.29.21,3.32.67.45.34.87.68,1.25,1-.11-.15-.21-.29-.31-.45s.2-.59.08-.71c-.76-.74-1.55-1.47-2.37-2.18s-1.66-1.35-2.52-2c-1.72-1.29-3.51-2.74-5.27-4-.68-.31-1.22-.95-1.2-1.43s.63-.58,1.33-.24a27.25,27.25,0,0,1,6.35,2.16,38.88,38.88,0,0,1,6.33,3.66A65.81,65.81,0,0,1,31.6,266c.91.8,1.82,1.71,2.73,2.54s1.81,1.65,2.69,2.58l-.17-.4,1.29,1.53.15.15-.75-1.52-.66-.85c-1.05-1-2.07-2-3.07-3l-1.49-1.54L30.84,264c-1-1-2-2-2.95-3.08s-2-2-3.05-3-2.15-2.18-3.15-3.22-2-2.19-3.05-3.31c-.58-.47-.9-1.06-.71-1.34s.83-.09,1.4.38a74.39,74.39,0,0,1,11.81,9.15c.93.87,1.82,1.74,2.68,2.61s1.68,1.85,2.46,2.76,1.5,1.8,2.17,2.73,1.29,1.87,1.85,2.77a22.6,22.6,0,0,1,1.77,1.92,19,19,0,0,1,1.4,2l.05.06c-.17-.41-.32-.79-.48-1.2.86,1.08,1.11,1.92,1.84,2.92,0-.27.06-.57.08-.84,1,1.32,2.11,2.67,3.18,4s2.06,2.83,3,4.26a42,42,0,0,1,4.55,9l.28.68A31.39,31.39,0,0,1,58,297a9.66,9.66,0,0,1,.43,1l.11.3.36,1.09a22.7,22.7,0,0,1,.63,2.22c.18.75.38,1.51.53,2.26s.25,1.45.38,2.19.2,1.49.3,2.24.17,1.51.21,2.28a59,59,0,0,0-.69-6.21c-.14-1-.43-2.14-.66-3.23-.11-.55-.27-1.08-.43-1.62L58.71,298l.51,1.54a16.73,16.73,0,0,1,.49,1.75c.29,1.17.59,2.35.76,3.45s.38,2.22.5,3.36.22,2.25.29,3.37a113.94,113.94,0,0,1-.4,12.76A50.86,50.86,0,0,0,62.16,340c.33,1.27.65,2.53,1.07,3.77l.6,1.84.66,1.73a47.86,47.86,0,0,0,3.11,6.43,35.15,35.15,0,0,0,7.67,9.31,24.17,24.17,0,0,0,6.83,4l.65.15c.22,0,.45,0,.66.07.45,0,.86.12,1.29.1s.85,0,1.26,0l1.61-.07a46.65,46.65,0,0,0,6.56-.81c1.09-.24,2.15-.42,3.22-.74l1.59-.42,1.58-.51c1-.3,2.08-.72,3.11-1.08s2-.82,3-1.25a61.45,61.45,0,0,0,11.25-6.52,54.49,54.49,0,0,0,9.24-8.59,48.9,48.9,0,0,0,6.63-9.8,41,41,0,0,0,3.54-10.07,31.24,31.24,0,0,0,.49-9.36l-.11-1.1-.15-1.23c-.11-.82-.22-1.63-.39-2.46-.29-1.64-.72-3.3-1.17-5a9.32,9.32,0,0,1-.34-1.87,1.44,1.44,0,0,1,.24-1.06c.39-.18,1.07.74,1.48,2.17a55.46,55.46,0,0,1,1.78,7.39,42,42,0,0,1,.6,7,37.42,37.42,0,0,1-3.56,14.84c-4.67,10.1-14.06,19.82-25.72,25.48a60.81,60.81,0,0,0,24.13-19.7,47,47,0,0,0,6.46-12.69,36.61,36.61,0,0,0,1.51-6.42c.2-1.05.23-2.13.34-3.16l0-1.58,0-.78v-.86a52.35,52.35,0,0,0-.81-7.05c-.41-2.38-.82-4.74-1.22-7.1-.77-3-1.65-6.1-2.68-9.22-.54-1.55-1-3.12-1.64-4.69L134.69,284q-2-5.08-4.26-9.92c-1.51-3.23-3.07-6.39-4.71-9.56-3.28-6.36-7-12.71-11.12-20.69l-.79-1.51-.86-1.67c-.61-1.25-1.18-2.42-1.71-3.57-1.07-2.3-2.07-4.56-3-6.82-1.91-4.52-3.66-9.06-5.3-13.68q-2.1-5.93-3.83-11.77C98,200.9,96.89,197,96,193.1s-1.69-7.82-2.41-11.75c-.34-2-.63-3.94-1-5.91s-.5-4-.72-5.95c-.41-4-.74-8-.92-12s-.19-8.14,0-12.28A155.48,155.48,0,0,1,98.48,102c1-2.85,2.09-5.67,3.15-8.47l.8-2.1.91-2c.61-1.35,1.22-2.7,1.84-4.05a156.35,156.35,0,0,1,18-29.32,171.13,171.13,0,0,1,49.71-42.75c2.53-1.46,5.08-2.7,7.07-3.6a14.27,14.27,0,0,1,4-1.33c.92.07-2.53,2.28-7.47,5.25A176.66,176.66,0,0,0,126,60l-2.56,3.63c-.83,1.22-1.72,2.41-2.48,3.69-1.57,2.54-3.17,5.07-4.7,7.65l-4.24,8c-1.35,2.71-2.56,5.51-3.79,8.3l-.92,2.1-.8,2.16-1.6,4.33c-.51,1.45-1.09,2.87-1.53,4.36L102,108.63c-.46,1.49-.79,3-1.19,4.49s-.77,3-1.07,4.51l-.94,4.54-.76,4.56a163.36,163.36,0,0,0-1.5,36.66q.63,9.11,2.12,18.06c1,6,2.24,11.87,3.73,17.71s3.22,11.63,5.18,17.37,4.11,11.41,6.64,17.2c.63,1.45,1.29,2.9,2,4.44l.57,1.19.52,1,1,2c1.31,2.55,2.58,5.05,3.84,7.38,2.48,4.73,4.77,9.08,6.93,13.47a207.72,207.72,0,0,1,9.78,23,.83.83,0,0,1,.4-.33c.62-.21,1.52.44,2.41,1.49-1.49-4.49-3.13-9.08-4.88-13.49s-3.63-8.77-5.61-13.17c-3.32-5.85-6.95-11.67-10.8-18.51L119,239.56l-.36-.66-.42-.78-.79-1.55c-1-2-1.94-3.95-2.82-5.9-1.77-3.89-3.37-7.79-4.85-11.75a170.61,170.61,0,0,1-10.83-50.56,145.35,145.35,0,0,1,.18-18.1c.18-3,.54-5.89.88-8.8.19-1.45.44-2.89.66-4.33s.47-2.87.76-4.29a144.29,144.29,0,0,1,10.42-32.63,155.9,155.9,0,0,1,19.47-37.39,173.7,173.7,0,0,1,27.59-30.57,10,10,0,0,1,2.1-1.58c.4-.16.05.32-.75,1.07a180.35,180.35,0,0,0-19.23,21,168.54,168.54,0,0,0-16.1,24.59c2.21-2.38,3.87-3.56,4.51-2.93s.15,3.08-1.14,6.47l3.37-5.65c.57-.93,1.1-1.89,1.71-2.8l1.82-2.71c1.53-2.23,3-3.8,3.3-3.51s-.53,2.25-1.93,4.36l-1.82,2.77c-.59.93-1.13,1.89-1.69,2.84-1.11,1.91-2.26,3.8-3.34,5.74-2,3.95-4.14,7.85-5.82,12a141.89,141.89,0,0,0-8.51,25.42c-4.16,21.16-3.42,42.8.69,63.52.28-3,.89-5.29,1.82-6.45h0c-.48-3.2-.89-6.39-1.21-9.59a146.54,146.54,0,0,1,.21-44.78,135.77,135.77,0,0,1,15-43l2.78-5,3-4.84c1-1.62,2-3.22,3.16-4.76l3.31-4.65a186.11,186.11,0,0,1,14.74-17.32,210.92,210.92,0,0,1,34.69-28.92,7.49,7.49,0,0,1,1.9-1.08,5.68,5.68,0,0,1-1.51,1.22,208,208,0,0,0-40.82,36l.06-.05c.57-.49.81-.47.37.22a12.66,12.66,0,0,1-1.87,2.16c-.65.56-.75.38-.39-.21C140.36,64.74,131.14,79.42,125,95.42c-1.67,3.94-2.79,8.08-4.1,12.14-.61,2-1.07,4.14-1.6,6.2s-.88,4.17-1.28,6.26a141,141,0,0,0-2.11,25.2,141.12,141.12,0,0,1,9-45.67,151.89,151.89,0,0,1,10.06-21c1.85-3.39,4-6.59,6.11-9.82,1-1.63,2.22-3.14,3.33-4.71s2.22-3.14,3.45-4.61c1.88-2.78,3.7-5.59,5.8-8.26a8.18,8.18,0,0,1,1.81-1.76c.27-.11,0,.52-.62,1.26s-1.12,1.5-1.69,2.25a44.22,44.22,0,0,1,5.15-5.19c1.45-1.16,2.47-1.71,2.76-1.39s-.36,1.64-1.47,3.33a60,60,0,0,1-4.52,6.22c-9.56,12.62-17.8,26.24-23.51,40.93l-1.67,4.83-1,5A153.84,153.84,0,0,1,144.65,74a201.5,201.5,0,0,1,22.11-28.71c1.39-1.53,2.75-2.68,3-2.52s-.71,1.57-2.08,3.12c-13.49,16.32-24.44,34.79-30.91,54.52-6.67,19.65-8.18,40.52-6.1,61a183.9,183.9,0,0,0,14.15,38.39c-.46-1.63-.92-3.28-1.39-4.93a279.09,279.09,0,0,1-7-30.82,176.85,176.85,0,0,1-2.53-30.16,131.17,131.17,0,0,1,1-15.06c.11-1.27.36-2.5.54-3.76s.38-2.52.68-3.76c.55-2.49,1.06-5,1.68-7.52a125.77,125.77,0,0,1,12.11-29.62,3.67,3.67,0,0,1,1.36-1.71c.23,0-.05.72-.6,1.7a122.09,122.09,0,0,0-11.48,28.75l-.5,1.81-.39,1.84-.76,3.66c-.56,2.42-.9,4.89-1.27,7.35-.62,5-1.05,9.93-1.19,15a147.15,147.15,0,0,0,6.77,47.76c-3.44-15.49-5.41-30.9-5-46.34.06-1.93.18-3.85.28-5.78s.28-3.86.54-5.77.45-3.86.81-5.76l.48-2.87c.19-1,.42-1.9.63-2.86.44-1.91.88-3.83,1.31-5.74l1.71-5.69c.52-1.93,1.26-3.79,2-5.67L145.6,91l.53-1.42.62-1.39a14.84,14.84,0,0,1,1.79-3.29,1.54,1.54,0,0,1,.11-.85,58,58,0,0,1,2.36-6L152.38,75c.49-1,1-2,1.57-3.06a6.57,6.57,0,0,1,1.44-2C155.75,69.65,155.62,70.21,155.2,71.1ZM26.74,272.37l-.13-.24.57.64.52,1.42Zm-13.67-2.86h0l-.35-.87Zm115,82a60.33,60.33,0,0,1-19.34,12.54,56.58,56.58,0,0,1-22.79,4.38,48.71,48.71,0,0,0,11.3-1.34A66.38,66.38,0,0,0,128.07,351.53ZM20.15,263.79a21,21,0,0,1,2.06,3.51,15.51,15.51,0,0,1,2.31,1.21c1,.72,2,1.42,2.95,2.11s1.91,1.39,2.82,2.17c-.09-.47.35-.11.6,0l.75.45c-1.9-1.73-3.88-3.27-5.89-5C23.94,266.76,21.87,265.38,20.15,263.79ZM4.39,257.24,4.25,257l.61-.47Zm-1,.84.29.24C3.51,258.52,3.44,258.38,3.41,258.08Zm2.64,2.15a2.42,2.42,0,0,0-.3-.53ZM2.17,279.88c.69-1,1.39-1.95,2.09-2.9-.72.9-1.44,1.81-2.15,2.75Z"/></g></g></svg>