<svg xmlns="http://www.w3.org/2000/svg" viewBox="0 0 398.31 451.02"><g id="Layer_2" data-name="Layer 2"><g id="Layer_1-2" data-name="Layer 1"><path d="M201,193.7l.63-.07c0,.37-.36.68-.81,1a12.82,12.82,0,0,0,6.9-4.51,20.78,20.78,0,0,0,3.72-7c1.29-.86,1.83-2.32,1.19-3.3s-2.27-1.08-3.65-.2a5.81,5.81,0,0,1-1.1.29,24.54,24.54,0,0,0-9.32,2.19l2.18-.42A9.71,9.71,0,0,0,198.1,183l.75.24c-3.54.86-6.37,4.17-6.09,7.21s3.37,4.61,6.69,3.66Z"/><path d="M210.06,194.94c-1.8.57-3.59,1.08-5.42,1.62l-.54-.06,1.49,1.2-.07-.1c-.11-2.13,1.26-4.31,2.7-6.17l.43-.74a1.43,1.43,0,0,0-.13-1.19,1.84,1.84,0,0,0-2.59-.26l-1.08.73c-3.12,1.3-6.81,4.76-5.49,8.1.31.77,1.28,1.15,2,1.66a2.68,2.68,0,0,0,3.63-.18,2.46,2.46,0,0,0,.47-3.46l.75-.35c0,.23-.07.48-.11.72-.5-1,.32-2.16.67-3.25l.93-1.25L205,190.53l-.33.82a2.36,2.36,0,0,1,.36.1,35.13,35.13,0,0,1-1.87,4.66l-.69,2.2a1.26,1.26,0,0,0,1.52,1.18l1.13-.23-.58.05c2-1.07,3.87-2.35,5.89-3.28a.71.71,0,0,0,.46-.8A.56.56,0,0,0,210.06,194.94Z"/><path d="M205,200.38a1.68,1.68,0,0,0-1.11.56l0,.3.85-.15C205.4,201,205.36,200.63,205,200.38Z"/><path d="M203.94,201.24l-.35.06.34,0,0,0Z"/><path d="M388,324.86a105.2,105.2,0,0,1,7,21.55,122,122,0,0,1,2.63,21.69,110.53,110.53,0,0,1-1.43,22.24A86.06,86.06,0,0,1,389,413.25l-.67,1.42-.8,1.43-1.63,2.84-.83,1.4-.91,1.34c-.62.88-1.21,1.78-1.86,2.64a69.85,69.85,0,0,1-8.89,9.75,63.28,63.28,0,0,1-23.12,13.26,66,66,0,0,1-13,2.73c-1.09.1-2.19.2-3.28.27l-3.29.1c-2.13,0-4.22-.07-6.27-.25A94.13,94.13,0,0,1,302,445.35a12.92,12.92,0,0,0-3.49-.9c-.13.11,1.19.75,2.87,1.31a96.74,96.74,0,0,0,22.54,5c1,.08,2.07.16,3.11.22l3.17.07c2.19,0,4.42-.09,6.62-.32a67.16,67.16,0,0,0,13.09-2.61A64,64,0,0,0,373.32,435a66.4,66.4,0,0,0,9.05-9.73c.7-.86,1.29-1.76,1.91-2.65s1.26-1.76,1.79-2.72l1.65-2.85c.52-.95,1.13-1.91,1.54-2.87a84.81,84.81,0,0,0,7.44-23,112.53,112.53,0,0,0,1.58-22.34A122.78,122.78,0,0,0,395.77,347a106.32,106.32,0,0,0-6.84-21.64,18.46,18.46,0,0,0-2.15-3.76C386.58,321.58,387.15,323,388,324.86Z"/><path d="M105.52,370.11c1.06-.34,1-.46-.16-.3a20.08,20.08,0,0,0-3.77.88c-.88.33-.8.48.17.28C102.89,370.74,104.62,370.41,105.52,370.11Z"/><path d="M113.83,358l2.59-.53,2.59-.38,5.06-.75,4.91-.47,2.37-.24,2.32-.11c1.14-.05,2.42,0,3.38,0-.41-.2,1-.48,3.59-.36l4.85.17,4.87.45c1.63.11,3.24.41,4.87.63l2.44.37c.85.15,1.78.37,2.66.57,3.44.81,6.39,1.68,9.44,2.58s6,1.83,9,2.77c12,3.79,23.87,7.9,35.83,12.15s23.94,8.66,35.9,13.21,23.92,9.18,35.8,13.94a6.83,6.83,0,0,1,2.23.29,63.18,63.18,0,0,1,7.27,2.32c2.87,1.07,6,2.36,9.15,3.65q2.32,1,4.61,1.9c2.31.87,4.58,1.66,6.81,2.33s4.39,1.17,6.51,1.56a42.23,42.23,0,0,0,6.16.69c1,.06,1.93,0,2.86,0s1.86-.13,2.78-.28a28.94,28.94,0,0,0,18.77-10.78c.45-.64.81-1.41,1.26-2.15s.74-1.56,1.16-2.34a23.32,23.32,0,0,0,1.15-2.6l.59-1.38c.16-.5.33-1,.49-1.51,4.05-13.9,2.68-31.87-2.62-46.72.15,1,.09,1.63-.15,1.7s-.85-.92-1.47-2.23c-.31-.65-.62-1.44-1-2.23s-.72-1.73-1.12-2.57-.78-1.7-1.22-2.48-.83-1.59-1.31-2.3c.34.49.58,1.13.89,1.68a15.77,15.77,0,0,1,.84,1.75l.81,1.82.74,2,.37,1c.12.34.22.71.33,1.06l.64,2.13c.38,1.46.75,2.93,1.07,4.42.18.87.32,1.68.43,2.42A87.59,87.59,0,0,1,357,375.8c-.35,7.44-1.73,14.56-4.21,19.89a14.18,14.18,0,0,1-1,1.91,18.36,18.36,0,0,1-1,1.82l-.58.9c-.19.3-.41.56-.61.84s-.4.57-.62.83l-.66.77a26.56,26.56,0,0,1-2.79,2.82,26.91,26.91,0,0,1-6.61,4.07c-.62.21-1.21.51-1.86.68l-.95.31-1,.24a28.58,28.58,0,0,1-8.42.75,53.51,53.51,0,0,1-10.05-1.57c-3.57-.9-7.29-2.08-11.16-3.48s-7.78-3-12.09-4.68-8.42-3.34-12.63-5c-8.4-3.29-16.82-6.42-25.22-9.52s-16.79-6.13-25.18-9.1-16.82-5.85-25.24-8.7a25.58,25.58,0,0,1-3.76-1.46c-.6-.36-.42-.48.83-.09l31.4,9.63c10.26,3.22,20.44,6.42,30.76,9.78s20.77,6.95,31.64,10.87c2.77,1,5.3,1.92,7.85,2.8s5,1.67,7.43,2.37a66.9,66.9,0,0,0,13.42,2.77c.6.06,1.18.09,1.75.1s1.12,0,1.66,0,1.06-.05,1.58-.07.92-.12,1.38-.15a19.79,19.79,0,0,0,5-1.4,19.48,19.48,0,0,0,7.63-5.89c.24-.36.52-.66.75-1s.49-.73.73-1.1.44-.79.68-1.18.34-.8.54-1.19a22.76,22.76,0,0,0,1.07-2.59,9.19,9.19,0,0,0,.47-1.48c.15-.51.31-1,.47-1.52A59.64,59.64,0,0,0,350,373.86a77.73,77.73,0,0,0-2-16.37,67.84,67.84,0,0,0-2.28-7.61l-.66-1.77-.73-1.63-.35-.82-.37-.69-.72-1.37c-.52-.79-.95-1.68-1.49-2.35a25.38,25.38,0,0,0-1.5-2.06,10.32,10.32,0,0,1-.79-1c-.28-.31-.59-.6-.86-.91s-.64-.61-.94-.94a9.72,9.72,0,0,0-1-.95c-.18-.15-.36-.32-.53-.49s-.42-.33-.62-.49c-.43-.33-.8-.68-1.32-1s-.91-.71-1.46-1.06l-1.63-1.1c-2.29-1.5-5.09-3.09-8.22-4.84l-1.22-.72L320,325l-1.28-.75-1-.63-2-1.25-2.06-1.2c-2.78-1.53-5.62-3-8.59-4.34a103.23,103.23,0,0,0-19.43-6.47c-1.79-.41-3.61-.81-5.53-1.2L274,308c-2.08-.39-4.35-.85-6.84-1.4-.66-.16-1.24-.28-1.94-.47l-1.06-.28-.61-.16-.16,0c-.05,0-.08-.14-.13-.2a.36.36,0,0,0-.07-.1l-.08,0-.16-.05c-.86-.27-1.73-.51-2.58-.81s-1.66-.67-2.46-1.06-1.54-.87-2.35-1.24l-1.21-.55a2.93,2.93,0,0,1-.58-.31l-.5-.44-1-.88c-.32-.3-.6-.64-.91-1a18.94,18.94,0,0,1-1.68-2c-.52-.72-1.09-1.33-1.64-2l-.21-.24c-.05-.09-.09-.2-.14-.3l-.27-.59-.56-1.19c-.33-.81-.59-1.65-.89-2.47a11.18,11.18,0,0,1-.4-1.24l-.18-.63c0-.22-.05-.45-.08-.68-.11-.91-.21-1.82-.28-2.72l-.12-1.35a7.77,7.77,0,0,1-.06-1.37l.13-2.78a4,4,0,0,1,.28-1.39l.41-1.39c.59-1.88,1-3.64,1.48-5.45,0-.24.4-.39.43-.6l.23-.59.21-.48.18-.43c.24-.58.49-1.15.76-1.69a58.41,58.41,0,0,1,7.65-12c.72-.93,1.57-1.82,2.37-2.71s1.71-1.75,2.7-2.61a32,32,0,0,1,3.14-2.46,26.88,26.88,0,0,1,3.59-2.16l.93-.5,1-.42,2-.79c.67-.27,1.38-.39,2.06-.6a21.09,21.09,0,0,1,2.06-.49c1.34-.21,2.73-.47,3.95-.54.62-.06,1.3-.14,1.87-.17l1.74-.1,1.62-.11,1.53-.12a26,26,0,0,0,2.59-.39,9.08,9.08,0,0,0,1.09-.28l.89-.35a2.45,2.45,0,0,0,.7-.42c.19-.16.45-.25.56-.44a3.49,3.49,0,0,0,.63-1l.2-.48.17-.58c.11-.27.24-.84.37-1.25s.26-.95.4-1.46a57,57,0,0,0,1.46-7.27,21.48,21.48,0,0,0-.08-7.14,10,10,0,0,0-.9-2.62,8.05,8.05,0,0,0-1.29-1.72,13.69,13.69,0,0,0-2.28-1.79,25.85,25.85,0,0,0-3.18-1.74,40.75,40.75,0,0,0-9.14-2.94,23.36,23.36,0,0,0-4.78-.56,14.4,14.4,0,0,0-3.08.57,21.85,21.85,0,0,0-2.79,1.19c-.95.53-1.89,1.06-2.92,1.77-.24.15-.51.37-.77.55a7.54,7.54,0,0,0-.79.58l-.81.61-.13.13L263,215c-.24.25-.48.47-.73.75l-.74.76-.75.81c-1,1.07-2.06,2.17-3.12,3.38s-2.14,2.44-3.22,3.79c-1.32,2.32-4.45,2.43-7.17.1a7.88,7.88,0,0,1-2.73-5.41l-.52.52-1.06.57a4.61,4.61,0,0,1-3.54.23l-1.64-.43c-2.81-1.17-5.86-1.39-8.81-2.7l-.71-1-.41,0a6,6,0,0,1-3.37-1l-1-1a13.23,13.23,0,0,1-2.55-4.06,4.67,4.67,0,0,1-1.12-1.35,6.83,6.83,0,0,1-3.73-2.84.94.94,0,0,1-.94-1,1.11,1.11,0,0,1,.22-.54h0a10.41,10.41,0,0,0-1.05-.2l-.58.29L212,205.74a5.61,5.61,0,0,1-1.76.12c-2.54-1.05-2.55-1-3.3-1.86a2.19,2.19,0,0,1-.12-.33c-.77.27-.82.29-1,.35a2.47,2.47,0,0,1-.55,0c-.48-.36-.48-.36-.73-.41a2.21,2.21,0,0,1-.37-.27c-.24-.72-.24-.72-.37-.85a1.39,1.39,0,0,1-.1-.37l.27-.74,1.88.28-.25-.51.69.29-.58-.33.65-.1-.83,0a5.37,5.37,0,0,0,1.34-1.07,2.05,2.05,0,0,0,.63-.75,2.07,2.07,0,0,1-.28-.2c1.1-.75,1.11-.74,2.2-1.43a3.79,3.79,0,0,1,.52.08.59.59,0,0,1,.28-.57l.56-.38,0-.16,0,0c.08-.23.13-.4.2-.58l0-.13h0c.14-.4.33-1,.89-2.53a11.2,11.2,0,0,1,1-.52,3.23,3.23,0,0,1-.44,0c-.3,0-.54-.52-.66-.48a39,39,0,0,0-8.23,4.48,1.09,1.09,0,0,1-1.36.33.82.82,0,0,1-.08-1.26c2.2-6.44,8.75-11.3,15.56-13.37,1.59-.8,3.16-1.61,4.77-2.4l-.37-.07,1.38-.43.13-.06-1.43-.2-.78.18c-3.65,2-7.6,3-11.4,4.72-2,.92-4.11,1.4-6.18,2.21a.89.89,0,0,1-1.22,0,.87.87,0,0,1,.37-1.14,34.75,34.75,0,0,1,8.5-6.44,24.42,24.42,0,0,1,10-3,7.53,7.53,0,0,1,3.51-1.11l.06,0-1.13-.25c.93-.33,1.76,0,2.66-.25l-.88-.72c1.12-.46,2.24-.95,3.38-1.45s2.28-1,3.45-1.45a24.49,24.49,0,0,1,7.17-1.78,4.82,4.82,0,0,1,.52-.11,19.91,19.91,0,0,1,2.46-1.92c.22-.15.45-.29.68-.43l.09-.06,0,0h0l.09,0c.54-.2,1.12-.37,1.67-.56,1.13-.36,2.25-.74,3.45-1A66.76,66.76,0,0,1,264,162.16a68.79,68.79,0,0,0-10.86,1.07c-1.78.29-3.48.69-5.2,1.09-.87.2-1.68.45-2.53.68l-1.27.36-.62.19-.26.08h0l0,0,.29-.11c.21-.08.44-.15.66-.22l1.34-.44c.9-.29,1.77-.59,2.71-.83l2.76-.75,2.85-.62a64.59,64.59,0,0,1,11.94-1.28,58.62,58.62,0,0,1,12.46,1.1,63.39,63.39,0,0,1,6.18,1.54c2,.68,4.08,1.38,5.83,2.16a77.42,77.42,0,0,1,13.54,7.58A68.06,68.06,0,0,1,316,184.51a50.89,50.89,0,0,1,9.24,14.77,42.93,42.93,0,0,1,3.07,16.89,47,47,0,0,1-2.64,14.39,48,48,0,0,1-5.49,11.24,41.52,41.52,0,0,1-7.34,8.34c-.64.58-1.39,1.11-2.05,1.63s-1.46,1-2.16,1.43a22.45,22.45,0,0,1-2.12,1.23c-.75.36-1.48.69-2.18,1l-.93.45-1,.35c-.68.23-1.35.44-2,.65a34.93,34.93,0,0,1-4.06.69,27,27,0,0,1-3.8.05c-.59,0-1.21-.06-1.77-.11l-1.63-.2c-.56-.06-1.06-.14-1.55-.22l-1.47-.22c-.88-.13-1.85-.29-2.65-.36l-1.23-.13c-.41,0-.76,0-1.14,0a13.09,13.09,0,0,0-2.12.12c-2.65.3-4.66,1.75-6.64,3.84a30.69,30.69,0,0,0-5,7.91c-.36.72-.63,1.48-.93,2.22s-.53,1.51-.74,2.26a21,21,0,0,0-.56,2.24c0,.09,0,.2-.06.26l-.05.16a1.68,1.68,0,0,0-.06.27l-.13.49a6.62,6.62,0,0,0,.14,4,3,3,0,0,0,1.38,1.42,4,4,0,0,0,.94.36,2.7,2.7,0,0,0,.49.12,3.4,3.4,0,0,0,.6.07c1.29,0,2.83-.13,4.54-.32l5.35-.61a182.06,182.06,0,0,1,24.25-1.76,119.59,119.59,0,0,1,12.89.76c2.17.24,4.33.55,6.49.91s4.31.8,6.44,1.32,4.26,1.07,6.39,1.66c1.87.52,3.68,1,5.63,1.63A122.65,122.65,0,0,1,352.46,290a75.45,75.45,0,0,1,13,7.09,68.67,68.67,0,0,1,12.08,10.57,49.65,49.65,0,0,1,3.66,4.76,13.88,13.88,0,0,1,1.5,2.85c0,.27-.47-.15-1.26-1.08-.39-.47-.86-1.05-1.4-1.74l-1.93-2.29a65.07,65.07,0,0,0-8.11-8.07c-1.47-1.18-3-2.33-4.49-3.4s-3.06-2.07-4.61-2.93l-2.32-1.32-2.31-1.17c-1.56-.81-3.06-1.42-4.59-2.12-3-1.24-6-2.34-8.8-3.24l-2.13-.68-2.06-.61c-1.39-.42-2.68-.78-4-1.16l-4.49-1.23-4.59-1.06A116.89,116.89,0,0,0,307,280.85a142,142,0,0,0-18.05.35c-5.82.45-11.48,1.22-16.44,1.67-.62.05-1.22.11-1.79.14s-1.13.05-1.67.07c-.28,0-.53,0-.76,0s-.44,0-.6,0a8.45,8.45,0,0,1-.84-.19,3.94,3.94,0,0,1-2.71-2,4.23,4.23,0,0,1-.44-1.69,3.07,3.07,0,0,1-.07-.86,6.48,6.48,0,0,1,0-.88,10.3,10.3,0,0,1,.31-1.73c.07-.32.12-.48.26-1a14.41,14.41,0,0,1,.42-1.66,14.1,14.1,0,0,0-.37,1.38c-.1.53-.24.8-.27,1a14.57,14.57,0,0,0-.35,1.45,10.89,10.89,0,0,0-.15,1.5v.38l.06.36c0,.12,0,.26,0,.39a2.5,2.5,0,0,0,.06.38,3.88,3.88,0,0,0,1.51,2.54,5.4,5.4,0,0,0,.65.4c.24.08.46.22.7.28a6.25,6.25,0,0,0,.74.21l.37.1c.15,0,.26,0,.48,0,1.66,0,3.7-.07,5.84-.24l6.74-.58c4.66-.43,9.59-.78,14.6-.86a116.76,116.76,0,0,1,30.8,3.41c1.27.34,2.57.64,3.83,1l3.77,1.15c2.24.7,4.52,1.44,6.89,2.26A103.32,103.32,0,0,1,355.47,296a66.73,66.73,0,0,1,15.29,10.89,58.2,58.2,0,0,1,11.3,15.22c1,1.71,1.74,3.45,2.59,5.17s1.43,3.41,2.14,5.12,1.19,3.39,1.78,5.09,1,3.4,1.49,5.1A116.61,116.61,0,0,1,393.58,363c1.09,13.7.21,27.78-4.91,42.15-.33.89-.61,1.79-1,2.68l-1.19,2.68c-.4.89-.79,1.78-1.22,2.67l-1.47,2.65-1.51,2.62-1.67,2.5c-.55.83-1.16,1.64-1.78,2.44s-1.22,1.61-1.9,2.38a64,64,0,0,1-8.85,8.63,60.49,60.49,0,0,1-10.57,6.77,62.31,62.31,0,0,1-24.18,6.46c-1,.05-2.1.1-3.14.12l-3,0c-2-.08-4-.2-5.94-.43a90.64,90.64,0,0,1-11.29-2,131.82,131.82,0,0,1-17-5.46c-5.17-2-10-4.18-14.47-6.06-9-3.9-18-7.58-26.93-11.33s-17.92-7.4-27.07-11.05-18.41-7.42-28-11.15l-19.95-7.72-9.78-3.67L162,387.13l-4.69-1.64-2.19-.72c-.68-.21-1.57-.53-1.95-.62l-.73-.21a4.91,4.91,0,0,0-.83-.23l-2.13-.45-2.14-.46-2.14-.34c-1.43-.22-2.86-.5-4.3-.59s-2.88-.34-4.33-.41l-4.35-.19c-1.45,0-2.92,0-4.38,0l-2.19,0-2.2.16a117.78,117.78,0,0,0-17.74,2.56l-4.46,1.13c-1.49.38-3,.7-4.46,1.22l-4.47,1.4c-.74.24-1.5.44-2.24.72l-2.22.84c-3,1.13-6,2.13-8.93,3.49s-6,2.5-8.9,4c-6,2.77-11.83,6.05-17.79,9.39-3.1,1.9-6.15,3.66-8.58,4.93A25.12,25.12,0,0,1,39,413.5c-.51.06.29-.73,2-2.07.43-.33.9-.71,1.43-1.09l1.77-1.19c1.27-.83,2.71-1.76,4.27-2.74A225.77,225.77,0,0,1,86,387.18a145.78,145.78,0,0,1,19.45-6.12,122.85,122.85,0,0,1,19.6-2.9,103.29,103.29,0,0,1,19.36.8c1.59.27,3.19.43,4.77.8l2.37.5c.38.08.82.15,1.15.24l.88.26.88.25,1.18.38,2.38.77,5,1.75c6.83,2.45,13.77,5.09,20.69,7.76s13.89,5.39,20.84,8.16c13.89,5.56,27.82,11.19,41.73,17l20.87,8.82,10.43,4.49,10.63,4.63a139.73,139.73,0,0,0,24.37,8.34,80.33,80.33,0,0,0,14.2,2c1.24,0,2.48.06,3.74.06s2.58-.06,3.87-.18A60.14,60.14,0,0,0,357,438.67a58.15,58.15,0,0,0,12.95-9,61.1,61.1,0,0,0,10-11.9c.71-1.07,1.32-2.22,2-3.34a37.37,37.37,0,0,0,1.81-3.41,66.18,66.18,0,0,0,2.9-6.93,89.24,89.24,0,0,0,4.9-23.82,114.24,114.24,0,0,0-.72-23.06c-.08.21-.16.41-.28.42-.46.06-1-1.33-1.74-3.65a109.66,109.66,0,0,1,1.1,25.77,86.7,86.7,0,0,1-6,26.3l-2,4.58c-.7,1.52-1.58,3-2.38,4.51s-1.79,2.88-2.7,4.31-2,2.78-3.12,4.09a59.72,59.72,0,0,1-7.34,7.41,56.72,56.72,0,0,1-28.68,12.74,62.83,62.83,0,0,1-10.46.57,76.89,76.89,0,0,1-10-1c-12.94-2.19-24-7-34.19-11.55l-30.32-13.49L212.06,400c-13.16-5.87-26.1-11.58-39.17-17.09-4.2-1.56-8.4-3.08-12.53-4.48-1.05-.38-2-.66-3-1l-1.5-.48-1.24-.35c-.43-.11-.78-.24-1.27-.35l-1.51-.3-3-.61a101.33,101.33,0,0,0-24.5-1.29c-2.06.19-4.13.33-6.19.56l-6.19.94c-4.1.84-8.23,1.65-12.3,2.87l-3.08.83c-1,.3-2,.68-3,1-2,.7-4.06,1.34-6.08,2.09-4,1.66-8.06,3.09-12,5a19.8,19.8,0,0,1-3.11,1.27c-.5.11.13-.3,1.4-.92a154.06,154.06,0,0,1,33.78-12.39c1.47-.31,2.92-.72,4.39-1l4.43-.74c.74-.12,1.47-.26,2.21-.36l2.23-.22,4.46-.46a114.65,114.65,0,0,1,17.87.27c-3.7-.79-5.93-1.59-5.6-2.13.17-.32,1-.52,2.37-.66.69-.07,1.51-.11,2.45-.14.47,0,1,0,1.49,0l1.65.1c-.69-.1-1.38-.24-2.07-.31l-2.09-.2c-1.39-.11-2.78-.31-4.18-.36-2.79-.08-5.59-.29-8.4-.15-1.73.05-3.29,0-4.4,0s-1.79-.08-1.75-.23.72-.37,1.84-.57a41.86,41.86,0,0,1,4.31-.29c2.89-.16,5.78.06,8.66.13,1.44.08,2.87.26,4.31.38l2.15.2,2.13.32c1.42.24,2.86.39,4.27.69l4.22.88c.71.14,1.3.35,2,.53l1,.27,1,.33c1.38.47,2.75.88,4.15,1.4,11.2,3.93,22.42,8.36,33.58,12.8q40.44,15.48,80.32,32.38c-3.48-2-6-3.76-7-4.94h0L257.15,408q-28.54-11.26-57.56-22.24c-9.67-3.63-19.37-7.26-29.11-10.68l-3.65-1.28-3.65-1.22c-1.22-.43-2.43-.8-3.63-1.17l-1.8-.56L156,370.4a35.14,35.14,0,0,0-3.58-.77c-1.23-.22-2.44-.52-3.68-.67-2.48-.33-4.94-.74-7.44-.88a112.84,112.84,0,0,0-30,1.54,148.09,148.09,0,0,0-29.19,8.75l-3.56,1.47-1.78.74-1.74.83-7,3.33c-2.29,1.18-4.55,2.46-6.83,3.67l-3.41,1.85-3.33,2-6.66,4-6.5,4.33c-4.39,2.81-8.52,6-12.77,9.07a14.81,14.81,0,0,1-2.54,1.66,10.2,10.2,0,0,1,2.08-1.74L35.78,404c1.25-1,2.6-1.79,3.9-2.68l3.92-2.64,3.92-2.63,4-2.44,4-2.45,2-1.22,2.06-1.12a182.85,182.85,0,0,1,34-15.21l-.1,0c-1,.26-1.19.18-.18-.27a21.15,21.15,0,0,1,3.71-1.1c1.13-.23,1.07-.06.2.27A126.38,126.38,0,0,1,131,367.18a108.56,108.56,0,0,1,16.91,1.15c.69.1,1.4.17,2.09.3l2.08.4,2.08.4c.35.07.71.12,1,.2l1,.26c.65.18,1.27.31,2,.53l2,.63c1.35.4,2.72.87,4.1,1.33,11,3.68,21.93,7.78,32.82,11.83s21.72,8.23,32.52,12.4c-19.92-8.08-39.91-16.05-60-23.41-2.51-.93-5-1.77-7.54-2.65l-3.76-1.21c-.62-.19-1.21-.34-1.82-.51a17.24,17.24,0,0,0-1.85-.46l-3.85-.78c-1.28-.29-2.58-.41-3.87-.62-2.58-.45-5.19-.62-7.8-.86a114.56,114.56,0,0,0-31.32,2.16l-3.34.87c-1.11.3-2.23.54-3.32.93l-6.62,2.13a28.7,28.7,0,0,1-3.31,1c-.37,0,.46-.42,1.69-.88s2.45-.82,3.68-1.24c-7.68,2.25-13.63,4.1-13.74,3.49.08-.39,1.66-1.43,4.29-2.54,1.31-.58,2.86-1.23,4.59-1.91l1.32-.52,1.41-.44,3-.89a126.28,126.28,0,0,1,33.4-5.44c1.41-.06,2.83,0,4.24,0s2.83,0,4.24.15l4.23.33c1.41.08,2.8.35,4.2.52,2.82.32,5.58.94,8.36,1.46,2.76.69,5.45,1.55,8.13,2.43,2.33.75,4.66,1.48,7,2.28s4.71,1.42,7,2.15q-3.07-1.17-6.17-2.3c-2.06-.76-4.12-1.51-6.2-2.23s-4.17-1.42-6.27-2.1c-1.06-.33-2.15-.6-3.23-.91l-3.25-.67a109.21,109.21,0,0,0-26.39-2,131.06,131.06,0,0,0-26.14,3.95l-6.35,1.82-1.59.46L91,368.7l-3.11,1.1c-4.19,1.36-8.2,3.18-12.25,4.86-1.4.57-2.64,1.21-3.59,1.59s-1.59.6-1.66.51,1.92-1.48,4.68-2.75l5.31-2.4,2.67-1.2c.89-.38,1.81-.71,2.72-1.07l5.47-2.1c1.83-.69,3.72-1.21,5.59-1.83,3.71-1.29,7.55-2.13,11.37-3.11,1.93-.43,3.88-.74,5.82-1.12,1-.17,1.94-.37,2.92-.52l3-.36c3.93-.57,7.91-.76,11.89-.95l6,0c2,.06,4,.23,6,.34a119.57,119.57,0,0,1,11.91,1.63c1,.15,2,.41,3,.67.51.13,1,.25,1.53.39l1.43.42,2.87.86,2.8.9c14.89,4.87,29.47,10.24,44.07,15.74s29.12,11.2,43.61,17c9.75,3.3,19.47,6.7,29.25,10.16,4.88,1.74,9.84,3.56,14.56,5.18a142.42,142.42,0,0,0,14,4.12c-2.25-.72-4.56-1.54-6.89-2.4-3.71-1.39-7.43-2.94-11.18-4.54l-11.46-4.82q-11.42-4.69-22.61-9c-14.95-5.76-29.64-11.17-44.36-16.34S187,369.43,171.92,364.63c-3.79-1.2-7.61-2.37-11.61-3.46l-3.24-.76L154,359.9c-1-.17-2.05-.36-3.08-.5l-3.12-.35a121.14,121.14,0,0,0-25.26-.08,13.66,13.66,0,0,1-3.35.17c-.19-.11.95-.37,2.67-.56a121.86,121.86,0,0,1,24.66-.27l3,.33c1,.1,2,.21,3,.39l3,.48,1.5.24c.51.09,1.06.23,1.58.35,4.25,1,7.8,2.12,11.58,3.25,14.8,4.6,29.29,9.53,44.33,14.89,12.46,4.42,24.56,8.87,36.44,13.29s23.51,8.8,35,13.2c-11.6-4.89-23.14-9.51-34.68-14s-23-8.77-34.59-12.94-23.09-8.29-34.82-12.22c-5.86-2-11.73-3.9-17.88-5.72-1.57-.45-3.05-.91-4.89-1.32l-1.32-.31c-.45-.11-.83-.15-1.24-.23l-2.44-.41-2.44-.41-2.46-.29c-1.64-.17-3.27-.42-4.92-.52-2.31-.09-4.63-.34-6.09-.55a5,5,0,0,1-1.31.17l-5,.2c-1.71.1-3.44.3-5.2.45l-2.64.23-2.65.39c-1.77.27-3.56.51-5.35.8a22.17,22.17,0,0,1-3.83.54C111.51,358.65,112.32,358.38,113.83,358ZM224.05,191.65l-.26-.05.67-.09,1.47.53Zm-4,10h0l-.87-.25Zm55.06,82c-1.55.12-3.1.26-4.5.3a14,14,0,0,1-3.5-.12A6.33,6.33,0,0,1,265,283a4,4,0,0,1-1.47-1.81,8.2,8.2,0,0,1-.21-4.63,11.1,11.1,0,0,1,.27-1.14,4.69,4.69,0,0,1,.17-.6c.08-.27.16-.65.23-1,.18-.66.41-1.33.6-2l.74-2a37.29,37.29,0,0,1,4.1-7.5,18.23,18.23,0,0,1,5.49-5.37,12.08,12.08,0,0,1,7.1-1.45c2.79.14,6,.93,10,1.19-3.9-.22-7.05-.94-9.79-1.07a12,12,0,0,0-6.91,1.31,13.1,13.1,0,0,0-2.19,1.59l-1.05.93-1,1.1a32.79,32.79,0,0,0-3.56,5.24,36.36,36.36,0,0,0-2.62,5.89,28.41,28.41,0,0,0-.87,3c-.14.42-.18.63-.26.91a8.41,8.41,0,0,0-.21.83,9.63,9.63,0,0,0-.18,3.43,4.25,4.25,0,0,0,1.69,2.94,5.08,5.08,0,0,0,1.57.76,6.14,6.14,0,0,0,.84.23,3,3,0,0,0,.48.08l.68,0C270.5,284,272.77,283.86,275.14,283.69Zm-59.76-91.53a12.51,12.51,0,0,1,3.47.32,5.34,5.34,0,0,1,1.32-1.32,39.3,39.3,0,0,1,4.33-2.69c-.47-.23-.11-.42,0-.59l.44-.45-5,2.4C218.45,190.57,216.94,191.54,215.38,192.16Zm-7.63,9.73h-.24l-.33-.73Zm.59,1.2.25-.1C208.74,203.23,208.61,203.22,208.34,203.09Zm2.29-1a1.77,1.77,0,0,0-.53,0Zm17.09,13.61-2.21-3.08,2.05,3Z"/><path d="M20.1,360.28l0,.26a.49.49,0,0,1-.43-.25c.63,2.36,3.21,3.23,5.43,3.08a1.1,1.1,0,0,0,1.54-.06,1.08,1.08,0,0,0-.05-1.55,1.39,1.39,0,0,1-.16-.41,8.55,8.55,0,0,0-1.17-3.5l.21.84a2.78,2.78,0,0,0-.63-.88l-.11.34a2.53,2.53,0,1,0-4.83,1.52Z"/><path d="M19.65,364.36c-.3-.73-.56-1.47-.82-2.22l0-.25-.53.76,0,0a4.47,4.47,0,0,1,2.85.54l.35.1a.8.8,0,0,0,.55-.2.82.82,0,0,0,.05-1.15l-.35-.37c-.65-1.18-2.17-2.39-3.67-1.57-.35.19-.52.64-.76,1a1.11,1.11,0,0,0,.09,1.57,1.12,1.12,0,0,0,1.58-.09l.17.3-.33,0c.46-.32,1-.07,1.49,0L21,363l.6-1.35-.37,0c0,.06,0,.16,0,.16a10.63,10.63,0,0,1-2.13-.33l-1-.11a.67.67,0,0,0-.53.76l.11.47,0-.25c.49.8,1.1,1.52,1.58,2.32a.28.28,0,1,0,.49-.26Z"/><path d="M17.09,362.62a.63.63,0,0,0-.25-.45l-.14,0,.06.36C16.81,362.83,17,362.79,17.09,362.62Z"/><path d="M16.7,362.21l0-.16,0,.16h.05Z"/><path d="M41.81,378.33a38.27,38.27,0,0,0,2.88,3.08s.11,0,.16-.07.08-.14,0-.17A39.9,39.9,0,0,1,42,378.09s-.11,0-.16.06S41.78,378.3,41.81,378.33Z"/><path d="M44.58,391.68a.27.27,0,0,0-.13.18c0,.06,0,.1.09.07a.31.31,0,0,0,.14-.18C44.69,391.68,44.64,391.65,44.58,391.68Z"/><path d="M40.08,397a1.82,1.82,0,0,0-.75.07.06.06,0,0,1-.07-.06.4.4,0,0,1-.28.21,15.12,15.12,0,0,1-4.82-.84,1.38,1.38,0,0,1-.26.23c-.3.22-.57.25-.7.06l-.07-.16c-.38-.56-.79-1.08-1.15-1.65a.85.85,0,0,1-.55,0,13.79,13.79,0,0,1-2.05-.08,1,1,0,0,1-.16.3c-.2.24-.45.34-.56.24l-.19-.13.37.6a.15.15,0,0,1,0,.1,4.6,4.6,0,0,0,.6.43,15.15,15.15,0,0,0,6.65,1.63c.06,0,.1,0,.07.09s-.09.15-.15.16c-2,.44-4.08,1.37-5.85,1.28a30.41,30.41,0,0,1-5.95-.79c-1.45-1.13-3.26-1.59-5.09-2.31-.61-.24-1.2-.51-1.77-.8a1.84,1.84,0,0,1-.25-.14l-.38-.24-.76-.5-1.51-1c-2-1.37-3.9-2.79-5.85-4.26a3.32,3.32,0,0,1-1.2-4.54A3.35,3.35,0,0,1,10,383.23l-.33-.29-.43-.61a2.91,2.91,0,0,1-.47-2l.08-.91c.37-1.55.27-3.17.78-4.7l.44-.37v-.21a2.85,2.85,0,0,1,.31-1.72l.46-.52a7,7,0,0,1,1.87-1.38,2.36,2.36,0,0,1,.62-.6A3.38,3.38,0,0,1,14.57,368a.48.48,0,0,1,.73-.43h0c0-.2,0-.26.07-.5a2.6,2.6,0,0,1-.15-.25l-.53-.71a2.33,2.33,0,0,1-.08-.8c.46-1.21.46-1.21.84-1.59l.15-.08c-.13-.32-.14-.35-.17-.44a1.17,1.17,0,0,1,0-.25c.17-.24.17-.24.19-.35a1,1,0,0,1,.12-.18c.33-.15.33-.15.39-.22a.85.85,0,0,1,.17-.06l.34.07-.12.85.23-.15-.13.33.14-.28.06.28,0-.37c.33.4.33.4.5.52a.82.82,0,0,0,.35.22,1.1,1.1,0,0,1,.09-.14c.35.42.35.42.69.85a1.57,1.57,0,0,1,0,.24.25.25,0,0,1,.27.07l.19.21h.07v0l.28,0h.06l1.19.12a3.51,3.51,0,0,1,.27.4l0-.2c0-.13.23-.3.2-.35a17,17,0,0,0-2.19-3.14.4.4,0,0,1-.15-.56.41.41,0,0,1,.56-.15,9,9,0,0,1,6.55,4.95c.44.53.91,1.05,1.38,1.57v-.17l.29.49,0,0v-.64l-.13-.29a26.3,26.3,0,0,1-2.71-4,22.5,22.5,0,0,1-1.16-2.3.36.36,0,1,1,.52-.51c2.28,1.32,4.43,3.4,5,6a2.1,2.1,0,0,1,.75,1.17l0,0,0-.52c.22.3.16.69.33,1l.25-.53c1.17,1.36,2.77,2.4,3.55,4.05a.61.61,0,0,1,.12.16,8.82,8.82,0,0,1,2,.46l-.23-.41a1.39,1.39,0,0,1,1,.28,3.12,3.12,0,0,1,.38,3.37,48.09,48.09,0,0,0,4.52,2.64c.09,0,.08.18,0,.32s-.24.23-.33.2A16.93,16.93,0,0,1,37.6,377a15.3,15.3,0,0,0,2.14,2.46l.37.19a.77.77,0,0,1,.27.32,13,13,0,0,0,3.43,2.26,31.25,31.25,0,0,0,3.51,1.1,12.29,12.29,0,0,1,4.77,1.8c.21.09.18.46-.07.82s-.61.58-.82.48c-3.56-1.06-7.24-1.86-10-4.24l-.87-.78-.1.15a1.72,1.72,0,0,1-.46.44,10.91,10.91,0,0,1,.86,1,6.52,6.52,0,0,1,3.41,1.71,8.9,8.9,0,0,1,1.28,2.47c1,.43,2,.79,3,1.26,0,0,.06.06,0,.14a.22.22,0,0,1-.16.13,13.88,13.88,0,0,1-2.56-.33A2.59,2.59,0,0,1,44.38,390l.38.33c.08.08.05.25-.07.4s-.3.24-.37.18l-1.6-1.35c-.79-.34-1.56-.7-2.32-1.08a3.41,3.41,0,0,1-.39.9h0l.32.21A13.92,13.92,0,0,1,47,392.8s0,.11,0,.18-.13.11-.16.08A11.87,11.87,0,0,0,45,391.73h0a.29.29,0,0,1-.13.18c-.06,0-.11,0-.1-.07a.26.26,0,0,1,.14-.17,14.65,14.65,0,0,0-3.87-1.62,17.1,17.1,0,0,1,2.92,2.3l.53,0s0,.08,0,.15-.12.13-.16.12h-.14c.16.17.07.58-.23.95s-.69.55-.87.39a18.48,18.48,0,0,1-1.64-1.07l-.22-.06-.31.05c.68.77,1.34,1.57,2,2.38.07,0,0,.2-.06.33s-.24.21-.31.16a27.94,27.94,0,0,1-5.11-2.14l-2.75.64a1.22,1.22,0,0,0,.17.15c1.54,1.2,4.12.58,5.87,1.4.05,0,0,.09,0,.16s-.12.12-.16.09a16.71,16.71,0,0,0-3-.46,15.31,15.31,0,0,0-2.55-.28c1.26.73,2.9.86,4.28,1.42.07,0,.09.08.07.17a.3.3,0,0,1,.1-.07,2.72,2.72,0,0,1,.78-.08c.06,0,.07,0,0,.14A.27.27,0,0,1,40.08,397ZM21.8,370.23v-.13c0,.09.05.19.09.29l-.15.75Zm-4.95-.65h0l.08-.43Zm21,8.75a4.52,4.52,0,0,1-1.41-1.86l.5.24C37.3,377.22,37.6,377.76,37.89,378.33ZM21.1,366.4a6,6,0,0,1,0,1.59,2.46,2.46,0,0,1,.69.42,18.17,18.17,0,0,1,1.52,1.52c.08-.25.2-.12.28-.09l.24.11c-.48-.59-1-1.2-1.43-1.83A15.6,15.6,0,0,1,21.1,366.4Zm-4.68-2.46v-.11l.33-.2Zm-.55.35.05.1C15.81,364.48,15.81,364.42,15.87,364.29Zm.49,1a.5.5,0,0,0,0-.24Zm-6,8.83,1.41-1.19L10.42,374Z"/><path d="M9.18,240.46l.45.67a2.83,2.83,0,0,1-1.52-.77,25.67,25.67,0,0,0,4.26,4.08,39.51,39.51,0,0,0,4.89,3,36.3,36.3,0,0,0,5,2.16,41.52,41.52,0,0,0,4.64,1.52c1.69,1.29,3.48,2,4,1.35s-.4-2.44-2.12-3.91a11.77,11.77,0,0,1-1-1.19,47.85,47.85,0,0,0-3.49-5c-1.34-1.63-2.81-3.39-4.44-5.15.58.8,1.17,1.64,1.74,2.44a22.56,22.56,0,0,0-2.95-2.91l.2.83a22.6,22.6,0,0,0-5.51-5,8.91,8.91,0,0,0-5.52-1.62c-3.06.47-3,4.31,0,7.92Z"/><path d="M13.6,250.28c-1.8-1.74-3.52-3.6-5.25-5.52l-.28-.59-.38,1.76.07-.09a8.77,8.77,0,0,1,4,.47A29.7,29.7,0,0,1,16.16,248l1.07.41a1.22,1.22,0,0,0,1.18-.2c.49-.55-.13-1.78-1.39-2.78-.49-.39-1-.75-1.46-1.11a33.69,33.69,0,0,0-2.9-2.41,20.69,20.69,0,0,0-3.33-2.12c-2.24-1.08-4.42-1.61-5.88-.67-.66.43-.5,1.58-.62,2.46-.47,1.13.63,2.92,2.44,4s3.63,1,4.1,0l.87.77-.86,0c.82-.65,2.55.13,3.95.37l1.94.84-.23-3L14,244.24c0,.15.13.39.12.39-2.07-.44-4-.91-6.2-1.57L5,242.61c-.84.12-1,.95-.37,1.83l1,1.18L5.22,245c1.22,1,2.48,1.87,3.73,2.86s2.5,1.92,3.67,2.88a1.32,1.32,0,0,0,1.18.37C14.06,251,14,250.62,13.6,250.28Z"/><path d="M4.36,245.74A3.51,3.51,0,0,0,3,244.61l-.31.09.69.9C3.91,246.24,4.29,246.14,4.36,245.74Z"/><path d="M2.73,244.7l-.29-.38.15.38c.07,0,.08,0,.08,0Z"/><path d="M134.75,293.39c-.8-2.83-1.7-5.73-2.75-8.74-.27-.75-.52-1.51-.81-2.27l-.91-2.44c-.62-1.72-1.29-3.41-2-5.08-2.72-6.7-5.73-12.9-9-19.34l-5.2-10.23-1.42-2.8-1.44-3-1.5-3.09-.8-1.66-.91-2c-1.11-2.51-2.09-4.87-3-7.24s-1.79-4.7-2.61-7c-1.65-4.69-3.12-9.38-4.46-14.12-.35-1.27-.84-2.28-1.12-2.26s-.19,1,.16,2.23q2,7.13,4.43,14.17c1.65,4.73,3.42,9.35,5.61,14.33l.89,2,.83,1.76,1.5,3.11,1.45,3c.47,1,1,1.9,1.42,2.81l5.18,10.2c3.25,6.4,6.25,12.53,9,19.17,1.33,3.24,2.69,6.93,3.71,9.73q1.58,4.47,2.78,8.65c.25.75.6,1.34.85,1.42S135,294.11,134.75,293.39Z"/><path d="M147.57,48.52c-.41.73-.23.81.4.22a11,11,0,0,0,1.77-2.24c.34-.61.15-.73-.39-.22A11.06,11.06,0,0,0,147.57,48.52Z"/><path d="M155.2,62.75a84.73,84.73,0,0,0-5.14,11.47,9,9,0,0,1-.9,1.87c.39-.07.29.83-.25,2.33-1.44,3.65-2.48,7.45-3.67,11.18-.51,1.89-.94,3.81-1.43,5.7-.24,1-.5,1.88-.71,2.84l-.54,2.88c-.33,1.92-.76,3.81-1,5.74s-.59,3.82-.74,5.77l-.29,2.89c-.1,1-.14,2-.21,2.91-.15,1.94-.2,3.89-.26,5.83a167.12,167.12,0,0,0,5.75,46.59,2.93,2.93,0,0,1,1.23,1.11c1.51,1.91,2.95,6,4,10.37l.67,3.33A164.48,164.48,0,0,0,157.75,205c.59,1.53,1.21,3.06,1.78,4.4l.47,1,.56,1.22,1.16,2.51c1.6,3.39,3.26,7,4.92,10.83a65.31,65.31,0,0,1,5.66,10.45,169.85,169.85,0,0,1,8.94,20.77c.61,1.78,1.24,3.56,1.82,5.35l.84,2.69c.28.89.57,1.77.84,2.77a111.75,111.75,0,0,1,2.79,12c.13-1.11.36-1.81.7-1.87.86.15,2,4,2.18,8.71.13,2.39.19,4.8.14,7.22a118.11,118.11,0,0,0-.84-20.46c-.14-.95-.24-1.84-.32-2.64-.31-1.78-.67-3.55-1-5.3s-.75-3.27-1.12-4.91-.85-3.29-1.27-4.94l-1.41-5a165.26,165.26,0,0,0-7.94-21.17c-3.07-6.71-6.47-12.91-9.49-18.14-.69-1.23-1.39-2.45-2.09-3.68-.53-.9-1.14-2-1.72-3.18-1.19-2.29-2.35-4.72-3.46-7.18-2.23-4.93-4.23-10-6-15.18A200.8,200.8,0,0,1,145.58,150a150.63,150.63,0,0,1-2.35-31.92,5.2,5.2,0,0,1,.4-2.36c.26-.37.51-.24.5.54a107.61,107.61,0,0,0,2.2,19.61,164.12,164.12,0,0,0,4.94,18.5c1,3,2.09,6.07,3.19,9.12s2.37,6.1,3.64,9.19q3.81,9.25,8.56,18.95c.94,1.91,1.92,3.79,2.92,5.59s2,3.56,3,5c.23.36.46.7.64.93.27.39.61.94.9,1.41l1.93,3c1.38,2.14,2.71,4.38,4.15,6.84s2.82,5,4.24,7.69,2.72,5.49,4,8.35a176.7,176.7,0,0,1,6.64,17.64c1,3,1.82,6,2.65,8.94l1.18,4.46c.39,1.61.8,3.28,1.16,5a111.72,111.72,0,0,1,2.65,21.36,109.57,109.57,0,0,1-1.93,23.18c-.39,2-.81,3.94-1.32,5.91-.26,1-.5,1.94-.8,3l-1,3.09a92.07,92.07,0,0,1-4.78,11.88A91.46,91.46,0,0,1,178,355.49a97.13,97.13,0,0,1-18.1,14.63A104.32,104.32,0,0,1,120,384.77a80.43,80.43,0,0,1-20.8.42,72.67,72.67,0,0,1-10.31-1.88c-1.71-.47-3.39-.93-5.06-1.53l-1.24-.43-.63-.22-.77-.29c-1-.39-2-.78-3-1.21s-1.9-1-2.83-1.49-1.76-1.14-2.63-1.7a24.8,24.8,0,0,1-2.43-1.82l-1.16-1c-.37-.32-.71-.67-1.06-1A44.91,44.91,0,0,1,61.12,364a71,71,0,0,1-7.93-18.22c-.61-2.06-1.12-4.23-1.55-6.22s-.87-4-1.31-6c-.85-4-1.69-8.05-2.62-12a75.92,75.92,0,0,0-3.25-11,34.39,34.39,0,0,0-4.84-8c-.49-.48-.9-1-1.4-1.41l-.94-.82c-.23-.2-.52-.37-.77-.56a13.29,13.29,0,0,0-1.57-1,33.07,33.07,0,0,0-3.35-1.72l-1.78-.71c-.61-.22-1.27-.42-1.88-.62s-1.25-.38-1.91-.54-1.28-.33-2-.47c-1.42-.25-2.66-.56-4.16-.7l-2.13-.25-2.25-.16a14.05,14.05,0,0,1-1.63-.09c-.54-.05-1.07-.11-1.55-.2a9.25,9.25,0,0,1-2.51-.82c-1.46-.67-2.22-1.79-2-3.11.3-1.61,2-3.07,4.43-3.78l-1.17-.18-1.73-.54a8.47,8.47,0,0,1-1.14-.47,6.77,6.77,0,0,1-1-.54,4.33,4.33,0,0,1-1.39-1.41l-.9-1.36a23,23,0,0,0-2.06-3.8A14.57,14.57,0,0,1,1,273.15l.66-.94-.27-.37A4.56,4.56,0,0,1,0,268.59l.5-1.25a9.27,9.27,0,0,1,3.05-3.55,3,3,0,0,1,.81-1.41,4.24,4.24,0,0,1,.69-4.26c-.39-.57-.14-1.08.56-1.14a1.87,1.87,0,0,1,.76.11h0c-.18-.43-.23-.56-.49-1.08l-.73-.53c-1.27-.75-1.27-.75-2.37-1.44a7.14,7.14,0,0,1-1.3-1.78c-.45-2.86-.45-2.89,0-3.84a1.81,1.81,0,0,1,.29-.19c-.8-.77-.85-.84-1.06-1.06a3.08,3.08,0,0,1-.32-.62c.11-.59.11-.59,0-.87a1.72,1.72,0,0,1,.08-.45c.67-.38.67-.38.74-.55a1.27,1.27,0,0,1,.36-.16l1,.19c.86,2.07.87,2.08.87,2.08l.41-.35.11.79v-.67l.53.68-.57-.89a10.17,10.17,0,0,0,2,1.25,4.49,4.49,0,0,0,1.25.53,1.23,1.23,0,0,1,0-.33c1.53,1.05,1.53,1.08,3,2.14a5.06,5.06,0,0,1,.25.55,1,1,0,0,1,.82.21l.78.52h.2v0l.77.12.16,0h0c.52.07,1.29.21,3.32.67.45.34.87.68,1.25,1-.11-.15-.21-.29-.31-.45s.2-.59.08-.71c-.76-.74-1.55-1.47-2.37-2.18s-1.66-1.35-2.52-2c-1.72-1.29-3.51-2.74-5.27-4-.68-.31-1.22-.95-1.2-1.43s.63-.58,1.33-.25a27.77,27.77,0,0,1,6.35,2.17,39.55,39.55,0,0,1,6.33,3.65,66.3,66.3,0,0,1,11.33,9.84c.91.8,1.82,1.71,2.73,2.54s1.81,1.65,2.69,2.57l-.17-.39,1.29,1.53.15.15-.75-1.52-.66-.85c-1.05-1-2.07-2-3.07-3l-1.49-1.54c-.49-.49-1-1-1.48-1.48-1-1-2-2-2.95-3.07s-2-2-3.05-3-2.15-2.18-3.15-3.22-2-2.2-3.05-3.31c-.58-.47-.9-1.06-.71-1.34s.83-.09,1.4.38a74.39,74.39,0,0,1,11.81,9.15c.93.87,1.82,1.74,2.68,2.61s1.68,1.85,2.46,2.76,1.5,1.8,2.17,2.73,1.29,1.87,1.85,2.77a22.6,22.6,0,0,1,1.77,1.92,18.08,18.08,0,0,1,1.4,2l.05.06c-.17-.41-.32-.79-.48-1.2.86,1.08,1.11,1.91,1.84,2.92L45,267c1,1.32,2.11,2.67,3.18,4s2.06,2.83,3,4.26a42,42,0,0,1,4.55,9.05L56,285a31.39,31.39,0,0,1,2,3.59,9.66,9.66,0,0,1,.43,1l.11.3.36,1.09c.24.72.46,1.46.63,2.21s.38,1.52.53,2.26.25,1.46.38,2.2.2,1.49.3,2.24.17,1.51.21,2.28a59,59,0,0,0-.69-6.21c-.14-1-.43-2.14-.66-3.23-.11-.55-.27-1.08-.43-1.63l-.42-1.44.51,1.54a17.25,17.25,0,0,1,.49,1.74c.29,1.18.59,2.36.76,3.46s.38,2.22.5,3.36.22,2.25.29,3.37a113.76,113.76,0,0,1-.4,12.75,50.9,50.9,0,0,0,1.3,15.72c.33,1.26.65,2.53,1.07,3.76l.6,1.85.66,1.73a47.86,47.86,0,0,0,3.11,6.43,35.15,35.15,0,0,0,7.67,9.31,24.17,24.17,0,0,0,6.83,4l.65.15c.22,0,.45,0,.66.07.45,0,.86.12,1.29.1s.85,0,1.26,0l1.61-.07a46.65,46.65,0,0,0,6.56-.81c1.09-.24,2.15-.42,3.22-.74l1.59-.42,1.58-.51c1-.3,2.08-.72,3.11-1.08s2-.82,3-1.25a61.45,61.45,0,0,0,11.25-6.52,54.49,54.49,0,0,0,9.24-8.59,48.9,48.9,0,0,0,6.63-9.8,41.16,41.16,0,0,0,3.54-10.07,31.25,31.25,0,0,0,.49-9.36l-.11-1.1-.15-1.23c-.11-.82-.22-1.63-.39-2.46-.29-1.64-.72-3.3-1.17-5a9.32,9.32,0,0,1-.34-1.87,1.43,1.43,0,0,1,.24-1.06c.39-.18,1.07.74,1.48,2.17a55.46,55.46,0,0,1,1.78,7.39,42,42,0,0,1,.6,7,37.42,37.42,0,0,1-3.56,14.84c-4.67,10.1-14.06,19.81-25.72,25.48a60.81,60.81,0,0,0,24.13-19.7,47,47,0,0,0,6.46-12.69,36.82,36.82,0,0,0,1.51-6.42c.2-1.05.23-2.13.34-3.17l0-1.57,0-.78v-.86a52.35,52.35,0,0,0-.81-7c-.41-2.38-.82-4.74-1.22-7.1-.77-3-1.65-6.11-2.68-9.22-.54-1.55-1-3.12-1.64-4.69l-1.92-5.06q-2-5.09-4.26-9.92c-1.51-3.23-3.07-6.39-4.71-9.56-3.28-6.36-7-12.71-11.12-20.69l-.79-1.51-.86-1.67c-.61-1.25-1.18-2.42-1.71-3.57-1.07-2.31-2.07-4.56-3-6.82-1.91-4.52-3.66-9.06-5.3-13.68q-2.1-5.93-3.83-11.77c-1.13-3.92-2.19-7.81-3.1-11.72S94.3,176.93,93.58,173c-.34-2-.63-3.94-1-5.91s-.5-4-.72-6c-.41-4-.74-8-.92-12s-.19-8.14,0-12.28a155.48,155.48,0,0,1,7.53-43.17c1-2.85,2.09-5.67,3.15-8.47l.8-2.1.91-2c.61-1.35,1.22-2.7,1.84-4a156.56,156.56,0,0,1,18-29.32A171.13,171.13,0,0,1,172.88,4.93c2.53-1.46,5.08-2.7,7.07-3.6a14.27,14.27,0,0,1,4-1.33c.92.07-2.53,2.28-7.47,5.25A176.81,176.81,0,0,0,126,51.6l-2.56,3.64c-.83,1.22-1.72,2.41-2.48,3.69-1.57,2.54-3.17,5.07-4.7,7.65l-4.24,8c-1.35,2.72-2.56,5.52-3.79,8.31l-.92,2.1-.8,2.16-1.6,4.33c-.51,1.45-1.09,2.87-1.53,4.36L102,100.28c-.46,1.48-.79,3-1.19,4.49s-.77,3-1.07,4.51l-.94,4.54-.76,4.56A163.36,163.36,0,0,0,96.55,155q.63,9.11,2.12,18.06c1,6,2.24,11.87,3.73,17.71s3.22,11.63,5.18,17.36,4.11,11.42,6.64,17.2c.63,1.46,1.29,2.91,2,4.45l.57,1.19.52,1,1,2c1.31,2.55,2.58,5.05,3.84,7.38,2.48,4.73,4.77,9.08,6.93,13.47a207.72,207.72,0,0,1,9.78,23,.83.83,0,0,1,.4-.33c.62-.21,1.52.44,2.41,1.49-1.49-4.49-3.13-9.09-4.88-13.49s-3.63-8.78-5.61-13.17c-3.32-5.86-6.95-11.67-10.8-18.51L119,231.21l-.36-.66-.42-.78-.79-1.55c-1-2-1.94-3.95-2.82-5.9-1.77-3.89-3.37-7.79-4.85-11.75A170.68,170.68,0,0,1,98.88,160a145.35,145.35,0,0,1,.18-18.1c.18-3,.54-5.89.88-8.8.19-1.45.44-2.89.66-4.33s.47-2.87.76-4.29a144.29,144.29,0,0,1,10.42-32.63,155.9,155.9,0,0,1,19.47-37.39A173.7,173.7,0,0,1,158.84,23.9a10.13,10.13,0,0,1,2.1-1.59c.4-.15.05.33-.75,1.08a180.35,180.35,0,0,0-19.23,21A168.54,168.54,0,0,0,124.86,69c2.21-2.38,3.87-3.56,4.51-2.93s.15,3.08-1.14,6.47l3.37-5.65c.57-.93,1.1-1.89,1.71-2.8l1.82-2.72c1.53-2.22,3-3.8,3.3-3.5s-.53,2.25-1.93,4.36L134.68,65c-.59.93-1.13,1.89-1.69,2.84-1.11,1.91-2.26,3.8-3.34,5.74-2,4-4.14,7.85-5.82,12A141.89,141.89,0,0,0,115.32,111c-4.16,21.16-3.42,42.8.69,63.52.28-3,.89-5.29,1.82-6.45,0,0,0,0,0,0-.48-3.2-.89-6.39-1.21-9.59a146.86,146.86,0,0,1,.21-44.78,135.77,135.77,0,0,1,15-43l2.78-5,3-4.84c1-1.62,2-3.23,3.16-4.76l3.31-4.65A184.82,184.82,0,0,1,158.83,34,210.92,210.92,0,0,1,193.52,5.1,7.68,7.68,0,0,1,195.42,4a5.68,5.68,0,0,1-1.51,1.22,208,208,0,0,0-40.82,36l.06-.06c.57-.48.81-.46.37.22a12.35,12.35,0,0,1-1.87,2.17c-.65.56-.75.38-.39-.21C140.37,56.39,131.14,71.07,125,87.07c-1.67,3.94-2.79,8.08-4.1,12.14-.61,2.05-1.07,4.14-1.6,6.2s-.88,4.17-1.28,6.26a141,141,0,0,0-2.11,25.2,141.12,141.12,0,0,1,9-45.67,151.89,151.89,0,0,1,10.06-21c1.85-3.39,4-6.59,6.11-9.82,1-1.63,2.22-3.14,3.33-4.71s2.22-3.14,3.45-4.62c1.88-2.77,3.7-5.58,5.8-8.25a8.18,8.18,0,0,1,1.81-1.76c.27-.11,0,.52-.62,1.26s-1.12,1.5-1.69,2.25a44.22,44.22,0,0,1,5.15-5.19c1.45-1.16,2.47-1.71,2.76-1.39s-.36,1.64-1.47,3.33a61.09,61.09,0,0,1-4.52,6.22c-9.56,12.62-17.8,26.24-23.51,40.93l-1.67,4.83-1,5a153.84,153.84,0,0,1,15.74-32.75A201.5,201.5,0,0,1,166.76,36.9c1.39-1.53,2.75-2.68,3-2.52S169,36,167.67,37.5C154.18,53.82,143.23,72.29,136.76,92c-6.67,19.65-8.18,40.52-6.1,61a184.11,184.11,0,0,0,14.15,38.39c-.46-1.63-.92-3.28-1.39-4.93a279.09,279.09,0,0,1-7-30.82,176.93,176.93,0,0,1-2.53-30.16,131.49,131.49,0,0,1,1-15.07c.11-1.26.36-2.5.54-3.75s.38-2.52.68-3.76c.55-2.49,1.06-5,1.68-7.52a125.77,125.77,0,0,1,12.11-29.62,3.67,3.67,0,0,1,1.36-1.71c.23,0-.05.72-.6,1.7a122.09,122.09,0,0,0-11.48,28.75l-.5,1.81-.39,1.84-.76,3.66c-.56,2.42-.9,4.89-1.27,7.35-.62,5-1.05,9.93-1.19,15A147.05,147.05,0,0,0,141.85,172c-3.44-15.48-5.41-30.89-5-46.33.06-1.93.18-3.85.28-5.78s.28-3.86.54-5.77.45-3.86.81-5.76l.48-2.87c.19-1,.42-1.91.63-2.86q.66-2.87,1.31-5.75l1.71-5.69c.52-1.92,1.26-3.78,2-5.67l1.06-2.83.53-1.41.62-1.39a14.84,14.84,0,0,1,1.79-3.29,1.54,1.54,0,0,1,.11-.85,57.08,57.08,0,0,1,2.36-6l1.37-3.09c.49-1,1-2,1.57-3.07a6.64,6.64,0,0,1,1.44-2C155.75,61.3,155.62,61.86,155.2,62.75ZM26.74,264l-.13-.24.57.63.52,1.43Zm-13.67-2.86h0l-.35-.87Zm115,82a60.33,60.33,0,0,1-19.34,12.54,56.58,56.58,0,0,1-22.79,4.38,48.71,48.71,0,0,0,11.3-1.34A66.38,66.38,0,0,0,128.07,343.18ZM20.15,255.44A20.19,20.19,0,0,1,22.21,259a15.51,15.51,0,0,1,2.31,1.21c1,.72,2,1.42,2.95,2.11s1.91,1.39,2.82,2.17c-.09-.47.35-.11.6,0l.75.45c-1.9-1.73-3.88-3.27-5.89-5C23.94,258.41,21.87,257,20.15,255.44ZM4.39,248.89c0-.09-.09-.16-.14-.26l.61-.47Zm-1,.84.29.24C3.51,250.17,3.44,250,3.41,249.73Zm2.64,2.15a2.42,2.42,0,0,0-.3-.53ZM2.17,271.53c.69-1,1.39-1.95,2.09-2.9-.72.9-1.44,1.81-2.15,2.75Z"/></g></g></svg>