<svg xmlns="http://www.w3.org/2000/svg" viewBox="0 0 341.8 363.44"><g id="Layer_2" data-name="Layer 2"><g id="Layer_1-2" data-name="Layer 1"><path d="M287.24,85.13l.26.07a.52.52,0,0,1-.41.3c2.44.32,4.22-1.74,4.93-3.85a1.1,1.1,0,0,0-.92-2,1.62,1.62,0,0,1-.44,0A8.49,8.49,0,0,0,287,79.4l.85.13a2.92,2.92,0,0,0-1.05.24l.27.23a2.53,2.53,0,0,0-.44,5Z"/><path d="M290.85,87.1c-.8,0-1.59,0-2.38-.09l-.21-.11.5.78,0-.06a4.49,4.49,0,0,1,1.59-2.43l.23-.28a.83.83,0,0,0,0-.58.81.81,0,0,0-1-.49l-.48.18c-1.34.15-3,1.1-2.85,2.8,0,.39.39.72.63,1.07a1.12,1.12,0,1,0,2-1l.34,0c0,.11-.07.21-.11.31-.11-.55.31-.93.54-1.39l.47-.44-1-1.07-.19.33.13.1a9.83,9.83,0,0,1-1.12,1.84l-.48.88a.67.67,0,0,0,.5.78l.48.08-.24-.07c.92-.15,1.82-.45,2.74-.58a.28.28,0,0,0,.26-.3A.28.28,0,0,0,290.85,87.1Z"/><path d="M288.26,88.8a.63.63,0,0,0-.52.06.71.71,0,0,1,0,.14l.37.08C288.35,89.13,288.37,89,288.26,88.8Z"/><path d="M287.72,89l-.15,0,.14.08v0Z"/><path d="M317.94,68.69c2.24-.93,4.44-2,6.61-3a.15.15,0,0,0-.13-.27c-2.18,1.06-4.38,2.07-6.62,3a.17.17,0,0,0-.06.21A.16.16,0,0,0,317.94,68.69Z"/><path d="M338,67.41a.15.15,0,0,0,.11.19.12.12,0,0,0,.17-.1.18.18,0,0,0-.11-.19A.13.13,0,0,0,338,67.41Z"/><path d="M341,73.72a3,3,0,0,0-.56.92.15.15,0,0,1-.15.07.3.3,0,0,1,0,.37,35.67,35.67,0,0,1-5.38,5.73,1,1,0,0,1,.07.35.84.84,0,0,1-.54.86l-.28.06c-1.08.37-2.12.78-3.2,1.14a1.63,1.63,0,0,1-.52.65,27.82,27.82,0,0,1-1.93,2.48.6.6,0,0,1,.25.25.51.51,0,0,1-.18.71l-.34.22,1.12-.36a.23.23,0,0,1,.16,0c.37-.2.74-.42,1.1-.66a38.35,38.35,0,0,0,8.06-7.83.14.14,0,0,1,.19-.07.19.19,0,0,1,.08.21c-1.17,2.45-1.83,5.17-3.51,7.3a68.41,68.41,0,0,1-6.34,7.1c-2.79,1.6-5,3.72-7.57,5.82-.95.78-1.9,1.51-2.87,2.21-2.9,2-5.85,3.81-8.9,5.61a3.33,3.33,0,0,1-4.66-.62,3.4,3.4,0,0,1-.53-3l-.39.2-.72.16a2.89,2.89,0,0,1-2-.33l-.81-.42c-1.29-.93-2.82-1.46-4-2.51l-.18-.55-.19-.09a2.81,2.81,0,0,1-1.46-1l-.31-.62a6.65,6.65,0,0,1-.56-2.25,2.21,2.21,0,0,1-.32-.8,3.4,3.4,0,0,1-1.3-1.88.49.49,0,0,1-.29-.62.49.49,0,0,1,.16-.21h0a3.45,3.45,0,0,0-.44-.25l-.28,0-.86.22a2.26,2.26,0,0,1-.77-.23c-.94-.89-.94-.89-1.16-1.38a1,1,0,0,1,0-.17h-.47a.92.92,0,0,1-.23-.11c-.16-.25-.16-.25-.25-.31a1.59,1.59,0,0,1-.12-.18c0-.36,0-.36-.05-.44a1,1,0,0,1,0-.19c.13-.18.17-.25.2-.28l.73.44,0-.27.25.24-.2-.24.28.06-.35-.12a1.88,1.88,0,0,0,.67-.26.79.79,0,0,0,.33-.24l-.1-.14,1.06-.31.21.12a.23.23,0,0,1,.17-.22L291,88l0-.07,0,0c.06-.1.09-.17.13-.25l0-.05h0l.57-1a2.63,2.63,0,0,1,.47-.1l-.19-.06c-.12,0-.19-.32-.24-.32a17.83,17.83,0,0,0-3.75.83.42.42,0,0,1-.58-.07.42.42,0,0,1,.09-.58,8.92,8.92,0,0,1,7.07-4.16c.66-.21,1.32-.45,2-.69l-.15-.07.57-.08.05,0-.6-.23h-.31a26.36,26.36,0,0,1-4.72,1,21.88,21.88,0,0,1-2.56.19.36.36,0,1,1-.28-.67c2.09-1.6,4.84-2.8,7.5-2.35a2.12,2.12,0,0,1,1.38-.25h0l-.47-.22c.37-.08.7.12,1.06.09l-.39-.44c1.7-.56,3.27-1.65,5.1-1.74l.19-.05a5.31,5.31,0,0,1,1.45-1.79l-.74.21h0a3.49,3.49,0,0,1,1.22-1.14,5,5,0,0,1,4.78.07c2.53-1.65,5.08-3.28,7.51-5.08a.29.29,0,0,1,.41.07.31.31,0,0,1,0,.42,44.7,44.7,0,0,1-5.09,4.26,42.8,42.8,0,0,0,5.13-2.2l.59-.42a1.76,1.76,0,0,1,.66-.28,39,39,0,0,0,6-3.81c1.64-1.36,3-2.6,4.57-4.09a34.49,34.49,0,0,1,6.61-5.51.74.74,0,0,1,1,.21.8.8,0,0,1-.1,1.08c-4.56,4.15-8.89,8.49-14.46,11.43l-1.78.94a.71.71,0,0,1,.1.14,1.28,1.28,0,0,1,.17.64c.68-.33,1.39-.62,2.12-.89A18.66,18.66,0,0,1,328.41,67a22.17,22.17,0,0,1,4.4-1.17c1.44-1.14,2.85-2.34,4.33-3.45a.13.13,0,0,1,.2,0,.16.16,0,0,1,0,.22,31.45,31.45,0,0,1-2.7,3.05,1.62,1.62,0,0,1,.77.72,1.53,1.53,0,0,1,.13,1.08l.79-.41a.35.35,0,0,1,.46.15.35.35,0,0,1-.1.48l-3.19,1.72c-1.15.91-2.31,1.79-3.5,2.65a2.27,2.27,0,0,1,.84.62h0l.57-.36a40.06,40.06,0,0,1,10.13-7.53.17.17,0,0,1,.22.07.14.14,0,0,1,0,.21,33,33,0,0,0-3.31,1.91h0a.17.17,0,0,1,.11.19.14.14,0,0,1-.17.11.17.17,0,0,1-.11-.19,41.49,41.49,0,0,0-5.57,4.43,52.66,52.66,0,0,1,5.62-3.18l.45-.64a.15.15,0,0,1,.21,0,.17.17,0,0,1,0,.21l-.13.17a.84.84,0,0,1,1.06.42.81.81,0,0,1-.27,1.13c-.94.64-1.89,1.24-2.86,1.82l-.28.26-.21.38c1.62-.71,3.26-1.38,4.89-2a.29.29,0,0,1,.39.12.3.3,0,0,1-.07.41,79.88,79.88,0,0,1-7.36,5.87c-.53,1.14-1.07,2.28-1.6,3.43a2.31,2.31,0,0,0,.35-.18c3-1.68,4.42-4.91,7.06-6.91a.14.14,0,0,1,.21,0,.14.14,0,0,1,0,.21,38,38,0,0,0-3.3,3.61,32.63,32.63,0,0,0-2.63,3c2.08-1.42,3.71-3.39,5.67-5a.17.17,0,0,0,.28-.2,4.7,4.7,0,0,1,.6-1,.13.13,0,0,1,.2,0A.17.17,0,0,1,341,73.72ZM297.08,87.35l-.11,0,.3,0,.64.43Zm-2.49,4.33h0l-.36-.24Zm19.86-18.24a12.8,12.8,0,0,1-3.71,1.42l.77-.57C312.47,74,313.45,73.7,314.45,73.44ZM293.28,86.53a6.3,6.3,0,0,1,1.48.6,2.3,2.3,0,0,1,.64-.47,20,20,0,0,1,2-.83c-.2-.17,0-.22,0-.29l.2-.18c-.73.22-1.47.42-2.24.62A14.94,14.94,0,0,1,293.28,86.53Zm-4.06,3.39-.1,0-.06-.38Zm.11.64h.12C289.48,90.69,289.43,90.66,289.33,90.56Zm1.08-.09a1,1,0,0,0-.22-.1Zm5.88,8.89-.56-1.76.5,1.71Z"/><path d="M4.18,305.33l.42.41a1.11,1.11,0,0,1-1.08,0c4.4,3.36,9.88,1.84,13.44-.72a2.06,2.06,0,0,0,2.54-1.66,2.53,2.53,0,0,0-2.2-2.5,4.44,4.44,0,0,1-.86-.51,23.93,23.93,0,0,0-6.91-4.75l1.55,1.23A7.94,7.94,0,0,0,8.75,296c.1.21.22.48.31.69-2.61-1.9-6.13-1.79-7.79.36S.42,302.59,3,304.45Z"/><path d="M9.14,312.69c-1.52-.86-3-1.8-4.46-2.76l-.31-.44.18,1.9,0-.12c1.28-1.52,3.48-2,5.51-2.32l.73-.22a1.35,1.35,0,0,0,.62-.94,1.83,1.83,0,0,0-1.49-2l-1.11-.25c-2.74-1.26-7-1.73-8.36,1.41a5.67,5.67,0,0,0,.16,2.59A2.66,2.66,0,0,0,3,312.17a2.11,2.11,0,0,0,2.48-2l.69.3-.51.42c.33-1.07,1.54-1.23,2.43-1.75L9.44,309,8.56,306l-.7.32c.06.13.17.32.16.33a21.39,21.39,0,0,1-4,1.81l-1.81.94a1.37,1.37,0,0,0,.19,1.92l.85.69-.39-.4c1.93.78,3.94,1.25,5.83,2a.59.59,0,0,0,.8-.23A.58.58,0,0,0,9.14,312.69Z"/><path d="M2.48,312.75a1.5,1.5,0,0,0-1.06-.46l-.17.22.62.54C2.32,313.44,2.53,313.17,2.48,312.75Z"/><path d="M1.25,312.51,1,312.29l.18.28.05,0Z"/><path d="M271.28,314.68c-3.29-.8-6.62-1.51-9.95-2.18l-2.51-.48c-.42-.08-.82-.17-1.27-.24l-1.42-.19-2.9-.4-4.46-.67c-6-.89-12.16-1.86-18.2-2.93q-4.5-.82-8.87-1.83c-2.88-.67-5.74-1.39-8.55-2.14-1.39-.38-2.78-.76-4.12-1.17l-1-.31a6.74,6.74,0,0,1-1-.32l-1.72-.7a19.4,19.4,0,0,0-1.84-.67l-1.92-.64-1.85-.67-.93-.34c-.31-.11-.52-.24-.79-.36-1.82-1-4.66-1.87-6.25-2.93-1.82-1-3.58-2-5.21-3.07s-3.18-2.06-4.67-3.11a21.75,21.75,0,0,1-3.88-3.19c-1.49-1.07-2.13-2.16-3.5-3.27a13.81,13.81,0,0,0-1.48-1.7l-.43-.43-.31-.43a7.33,7.33,0,0,0-.67-.88c-1.25-1.21-1.48-2.39-2.6-3.73a18.06,18.06,0,0,1-1-2c-.15-.34-.4-.72-.6-1.08a10,10,0,0,1-.42-1.11c-.12-.39-.22-.77-.37-1.17a5.11,5.11,0,0,1-.44-1.26c-.19-.83-.24-1.72-.53-2.68a13.76,13.76,0,0,1-.05-1.44v-.74l-.06-.79a13.87,13.87,0,0,1,.52-3.09c.15-.51.2-1,.3-1.56s.42-1,.55-1.49l.21-.74c.1-.24.24-.46.36-.7.23-.46.5-.89.76-1.33s.46-.88.7-1.32a8.34,8.34,0,0,1,.85-1.22c.31-.4.54-.81.81-1.21a7,7,0,0,1,.94-1.12c.73-.7,1.14-1.5,1.91-2.14l1.1-1,1-1a46.08,46.08,0,0,1,4.34-3.74c3.51-2.09,6.34-4.59,10.35-6.3,2-.83,3.52-2,5.49-2.81l3-1.15,3-1.06c4.11-1.31,8.08-2.64,12.33-3.67a82,82,0,0,1,13.59-2l3.38-.23a3.94,3.94,0,0,0,1.48-.26,15.25,15.25,0,0,0-4.56-.13,80.75,80.75,0,0,0-13.76,2c-4.3,1-8.26,2.39-12.4,3.71-2,.7-4.06,1.42-6.06,2.22a12.77,12.77,0,0,0-1.46.61l-1.32.76a30.47,30.47,0,0,1-2.73,1.45c-.95.47-1.94.89-2.85,1.39l-1.35.77a7.72,7.72,0,0,0-1.28.8l-1.11.9-.56.46c-.2.14-.46.25-.68.38a14.26,14.26,0,0,0-2.62,1.59,51,51,0,0,0-4.37,3.73c-.69.67-1.29,1.35-2.06,2a12.87,12.87,0,0,0-1.93,2.13l-1,1.09c-.31.38-.53.8-.8,1.2s-.58.8-.88,1.2a9.08,9.08,0,0,0-.69,1.31,24.33,24.33,0,0,0-1.46,2.72,25.14,25.14,0,0,0-.87,3,28.87,28.87,0,0,0-.63,3.1,2.27,2.27,0,0,0,0,.78c0,.26.06.53.05.78,0,.49,0,1,0,1.46a4.76,4.76,0,0,0,.24,1.43c.09.46.12.89.2,1.33a4.86,4.86,0,0,0,.32,1.26l.26.62.17.59a7.74,7.74,0,0,0,.9,2.23c.39.73.62,1.4,1,2.06a6.22,6.22,0,0,0,.65,1,6.33,6.33,0,0,1,.59.95c.18.32.36.62.55.92l.27.46c.11.15.26.3.39.45a50.39,50.39,0,0,0,6.21,6.79c.71.54,1,1.09,1.67,1.63s1.38,1.06,2.12,1.59c1.44,1.06,3,2.11,4.58,3.15s3.34,2.07,5.14,3.1l1.38.77.7.39.35.19.43.17c1.15.48,2.38.93,3.34,1.45.52.25,1,.51,1.56.74l1.86.68c1.22.46,2.56.88,3.84,1.31.61.23,1.16.48,1.75.71a13.28,13.28,0,0,0,1.83.68c1.36.41,2.71.83,4.12,1.21,5.63,1.54,11.44,3,17.51,4.09s12.33,2.08,18.4,3l4.51.67,1.91.28,1.43.19,1.43.19c.48.06,1,.12,1.37.21l2.5.47c3.33.65,6.66,1.35,9.95,2.14a34.57,34.57,0,0,0,3.51.71A12.45,12.45,0,0,0,271.28,314.68Z"/><path d="M225.73,73.76c-.15.72-.17,1.07-.09,1.07a4,4,0,0,0,.46-1.09c.21-.61.46-1.47.72-2.35s.57-1.75.75-2.45.2-.88.14-.88-.26.28-.5.88-.62,1.59-.91,2.46S225.84,73.16,225.73,73.76Z"/><path d="M235.4,86.83a53.17,53.17,0,0,0,4.76,18.94c.23.52.42,1.08.64,1.63s.43,1.06.6,1.52c.08-.48.78.71,2,3,5.91,11.53,14.26,22.61,23,33.94,2.05,2.62,4.33,5.35,6.65,8.1l7.07,8.38c4.77,5.67,9.57,11.48,14.26,17.57a217.21,217.21,0,0,1,13.56,19.43,111.64,111.64,0,0,1,6,11.21,60.13,60.13,0,0,1,4.61,13.72,37.42,37.42,0,0,1,.72,8.89,29.65,29.65,0,0,1-2.42,10.64,27.65,27.65,0,0,1-7,9.5,33,33,0,0,1-8.68,5.41l-1.06.45c-.36.15-.56.21-.85.32l-1.62.6c-1.07.42-2.18.77-3.29,1.11s-2.22.69-3.35,1-2.26.59-3.41.81a75.51,75.51,0,0,1-13.78,1.58,10.09,10.09,0,0,1-3.06.65c-.62.07-1.33.13-2.1.18s-1.59,0-2.48.05-1.75,0-2.68-.07l-.71,0H261.5a39.38,39.38,0,0,1-6.39-.78l-3.48-.73a55.76,55.76,0,0,0-10.76-1A40.22,40.22,0,0,0,230,264.45a37.61,37.61,0,0,0-10.3,4.41,8.5,8.5,0,0,0-3.54,4.21,5.74,5.74,0,0,0,1.18,5,39.25,39.25,0,0,0,9.4,6.06A96.67,96.67,0,0,0,245.38,290c3,.66,6,1.11,8.82,1.57,1.43.23,2.83.49,4.22.76l3.87,1,4.29,1.22a7.1,7.1,0,0,1-2.21-1c.51-.16,5.87,1.23,12,3.4,3.08,1.09,6.14,2.23,9.18,3.46-4.35-1.79-8.76-3.43-13.19-5-2.22-.77-4.44-1.49-6.67-2.21l-3.34-1-3-.89-1.73-.46c-2-.45-4-.8-6.09-1.21s-4.09-.92-6.16-1.5a57.94,57.94,0,0,1-13.26-5.27,22.1,22.1,0,0,1-3-2.11,8.36,8.36,0,0,1-2.27-2.85,4,4,0,0,1,.05-3.44,7.87,7.87,0,0,1,2.21-2.58A26.07,26.07,0,0,1,235,268.6a31,31,0,0,1,6.58-2c4.58-.88,9.35-.45,14.2.12,1.22.13,2.45.28,3.7.39l5.15.39a83.5,83.5,0,0,0,19.78-.75c1.69-.24,3.36-.64,5-1s3.32-.81,4.93-1.34,3.22-1,4.77-1.64l1.18-.44.58-.22.8-.34,1.59-.69c.54-.25,1.1-.55,1.65-.83a32.32,32.32,0,0,0,12.56-11.48,29.86,29.86,0,0,0,3.56-8.35,33.79,33.79,0,0,0,1.05-7.91,43.76,43.76,0,0,0-1.77-12.5,67.4,67.4,0,0,0-3.61-9.64,120,120,0,0,0-8.86-15.66A296.62,296.62,0,0,0,288,168.58a34.71,34.71,0,0,1-2.92-3.79c-.39-.73-.14-.74.88.42,4.44,5,8.8,10,13.08,15.16s8.41,10.53,12.38,16.39c2,2.94,3.9,6,5.73,9.35a74,74,0,0,1,5.09,11.17,46.51,46.51,0,0,1,2.85,15.47,35.28,35.28,0,0,1-1.57,10.54,33.26,33.26,0,0,1-5.76,10.85,36.3,36.3,0,0,1-8.55,7.71,45.77,45.77,0,0,1-4.36,2.49l-2.1,1-.52.23-.38.16-.73.3a79.49,79.49,0,0,1-25.5,6.06c-2.17.13-4.35.21-6.48.2-1.09,0-2.12,0-3.17-.07s-2-.1-3-.15l-7.53,0a27.88,27.88,0,0,0-6.05.51,16.07,16.07,0,0,0-6,2.73,8.7,8.7,0,0,0-2.2,2.12,3.6,3.6,0,0,0-.61,1.46,2.67,2.67,0,0,0,.37,1.73,8,8,0,0,0,2.93,2.54,25.49,25.49,0,0,0,3.39,1.55,42.9,42.9,0,0,0,6.37,1.8c2,.42,3.82.6,5.47.83l.61.09a.61.61,0,0,1,.19,0l.72.21,1.43.42,1.46.42,1.66.52L268.5,290c4.42,1.43,8.83,3,13.2,4.69a195.65,195.65,0,0,1,25.77,12.14,131.47,131.47,0,0,1,12.38,7.95,76.24,76.24,0,0,1,11.67,10.32,41.53,41.53,0,0,1,5.37,7.41c.21.35.39.74.59,1.12s.38.73.55,1.18l.52,1.29c.18.46.37,1,.54,1.52a20.46,20.46,0,0,1,1,6.38,18,18,0,0,1-1.22,6.25,17.22,17.22,0,0,1-3.5,5.3,20.21,20.21,0,0,1-5.16,3.85,26.47,26.47,0,0,1-5.32,2.07,51.19,51.19,0,0,1-16.75,1.24l-14-1.12-13.76-1-13.71-.92c-9.12-.64-18.23-1.3-27.35-1.84s-18.23-1.17-27.4-1.61-18.36-.94-27.6-1.25-18.56-.61-27.94-.76c-4.7-.1-9.41-.09-14.14-.14s-9.49-.07-14.26,0a723.31,723.31,0,0,0-75.82,4.25l-4.6.57-2.3.29-.14,0h-.09l-.11,0-.92.18-1.84.34-3.64.67-14.42,2.66a6.35,6.35,0,0,1-4.91-.43,5.13,5.13,0,0,1-2.61-3.77,7.1,7.1,0,0,1,1.91-5.85l-.89.09L16.21,353a4.86,4.86,0,0,1-3.27-2.07l-1-1.38c-1.42-2.7-3.68-4.91-4.91-7.9l.2-1.18-.27-.31a5.64,5.64,0,0,1-1.79-3l0-1.42A13.62,13.62,0,0,1,6.27,331a4.8,4.8,0,0,1,.17-1.74,6.79,6.79,0,0,1-.61-4.61,1,1,0,0,1,.07-1.39,1,1,0,0,1,.51-.21h0a8.06,8.06,0,0,0-.57-.88c-.37-.13-.58-.22-.58-.22-1-.26-1-.26-1.84-.51a5.23,5.23,0,0,1-1.23-1.21c-.93-2.58-.93-2.59-.86-3.69,0-.1.09-.21.14-.31-.67-.39-.72-.42-.9-.54a3.31,3.31,0,0,1-.33-.44c-.06-.6-.06-.6-.18-.82A2.47,2.47,0,0,1,0,314c.33-.65.33-.65.33-.84a1.69,1.69,0,0,1,.19-.32l.65-.28c1,1.58,1,1.59,1,1.59l.18-.52.24.71-.15-.65.48.41-.55-.59a4.5,4.5,0,0,0,1.54.29,1.73,1.73,0,0,0,.88-.05,3,3,0,0,1,0-.34c1.18.29,1.18.29,2.33.61a4.46,4.46,0,0,1,.28.43.48.48,0,0,1,.54-.2l.6.13.13-.08v-.05l.5-.27.1-.07h0l2.13-1.17a6.9,6.9,0,0,1,1,.34l-.29-.29c-.2-.21,0-.74-.15-.8a48,48,0,0,0-8-2.73,1,1,0,0,1-1-.79.74.74,0,0,1,.74-.89,16.71,16.71,0,0,1,8.8-1.45,25.22,25.22,0,0,1,9,2.51c1.48.4,3,.76,4.44,1.1l-.22-.27,1.16.49.12,0L26,309l-.6-.32c-3.45-.67-6.58-2.5-10-3.7a55.19,55.19,0,0,1-5.15-2.6.86.86,0,0,1-.72-.88.67.67,0,0,1,.87-.53,31.09,31.09,0,0,1,8.87,1,22.83,22.83,0,0,1,8,3.89A5.82,5.82,0,0,1,30.1,307h0l-.63-.82c.77.26,1.18.93,1.88,1.26-.08-.34-.18-.73-.26-1.06,1.9.5,3.87.77,5.81,1.15a20.66,20.66,0,0,1,5.55,1.82,2.67,2.67,0,0,1,.4.13,17.94,17.94,0,0,1,2.3-.69l.6-.12H46l1.53.13,3.09.28,6.33.61,6.5.77c-3-.41-5.93-.89-8.9-1.25L45.91,308h0l.27,0,.61.05,1.21.1,2.42.2,4.84.43c3.22.3,6.43.67,9.69,1,6.49.75,13.09,1.53,19.88,2.55,18.45,2.61,37.77,6,54.86,9.1,8.54,1.57,16.54,3.05,23.57,4.51s13.13,2.63,17.87,3.74c35.09,5.32,70.07,10.77,105.07,15.32q6.57.84,13.13,1.58l6.57.72c2.28.26,4.16.44,6.14.48a37.1,37.1,0,0,0,5.65-.25,20.63,20.63,0,0,0,2.53-.49,15,15,0,0,0,1.95-.65,3.66,3.66,0,0,0,1.76-1.41,2.84,2.84,0,0,0,.32-2.2,3.44,3.44,0,0,0-.15-.55c0-.09-.07-.18-.1-.27l-.21-.41a14.64,14.64,0,0,0-1.2-1.9,28.07,28.07,0,0,0-3.54-3.9,55.82,55.82,0,0,0-9.53-6.84,94.81,94.81,0,0,0-11-5.47c-3.81-1.63-7.75-3-11.75-4.33-3.3-1.06-6.28-2-6.83-2.28-.3-.23,2,.25,5.29,1.28a133.86,133.86,0,0,1,16.87,6.35,74.47,74.47,0,0,1,15,8.94,32.81,32.81,0,0,1,5.68,5.6,15.11,15.11,0,0,1,1.74,2.79,4.86,4.86,0,0,1,.39,1.84,3.23,3.23,0,0,1-.57,1.8,4.2,4.2,0,0,1-1.45,1.23c-.14.08-.3.13-.43.21l-.56.23a14.24,14.24,0,0,1-1.66.51,22.61,22.61,0,0,1-3.85.62,47.26,47.26,0,0,1-8.55-.13l-9.53-1c-6.35-.71-12.71-1.46-19.07-2.31l-19.08-2.52c-6.36-.83-12.73-1.73-19.09-2.65,10.63,1.64,21.28,3.11,32,4.61s21.37,2.89,32.12,4a68.72,68.72,0,0,0,7.64.6,32,32,0,0,0,7-.57c.54-.11,1.05-.25,1.55-.39l.72-.23c.18-.08.35-.15.53-.21a6,6,0,0,0,1.64-1,3.8,3.8,0,0,0,1.13-1.5,3.92,3.92,0,0,0,.25-1.86,5.46,5.46,0,0,0-.18-.93,2,2,0,0,0-.15-.45,2.12,2.12,0,0,0-.21-.51,14.59,14.59,0,0,0-1.56-2.57,31.19,31.19,0,0,0-4.77-5,67.71,67.71,0,0,0-12.62-8.39,120.4,120.4,0,0,0-14.75-6.44c-5-1.84-10.14-3.43-15.27-4.89q-4.92-1.32-9.88-2.44-2.47-.56-5-1.06l-2.48-.49-.63-.12-.69-.11-1.38-.2-15.31-2.39c-2.75-.47-5.54-.91-8.26-1.41s-5.4-1-8-1.64-5.24-1.23-7.79-1.9c-1.27-.35-2.55-.68-3.77-1.05-.61-.18-1.27-.35-1.84-.54l-1.61-.62c-1-.43-2.3-.79-3.46-1.18l-1.72-.59c-.55-.21-1.2-.39-1.67-.61-1-.44-1.86-.9-3-1.3l-1.62-.63c-.47-.22-.9-.45-1.36-.68-7.12-3.63-13.2-7.38-17.55-11.48-.29-.26-.67-.52-.9-.78l-.75-.78a16.94,16.94,0,0,1-1.65-1.62c-.4-.54-1.08-1.11-1.56-1.68s-.86-1.15-1.27-1.75c-.23-.3-.51-.62-.75-.92a7.22,7.22,0,0,1-.61-.95c-.38-.64-.71-1.3-1.2-2a14.5,14.5,0,0,1-.94-2.17c-.17-.39-.4-.79-.53-1.19s-.23-.8-.31-1.23a16,16,0,0,1-.54-5.61c.07-.49.16-1,.26-1.48s.24-1,.33-1.49a6,6,0,0,1,.45-1.44c.18-.47.28-1,.48-1.41.45-.89,1-1.71,1.47-2.55a17,17,0,0,1,1.6-2.34,13.51,13.51,0,0,1,1.82-2.13l.9-1a13.82,13.82,0,0,1,1-.95c.74-.61,1.35-1.25,2-1.87s1.38-1.21,2.12-1.77a24,24,0,0,1,4.77-3.19,5.91,5.91,0,0,0,.66-.36l.55-.42,1.12-.83a8.44,8.44,0,0,1,1.25-.75l1.3-.72c1.79-.91,3.77-1.7,5.42-2.66l1.3-.7a12,12,0,0,1,1.42-.58c1-.36,1.93-.75,2.92-1.08l3-1,3-.93a97.54,97.54,0,0,1,12.28-3.14,84.79,84.79,0,0,1,11.59-1.25l3.06-.08,3.13,0c2.11,0,4.27.25,6.4.18a60.39,60.39,0,0,1,6.59.49l3.34.23L257,228l6.81.68,1.71.16c.34,0,.39,0,.58,0h.48l1.87.05a57.12,57.12,0,0,0,6.38-.17,41.51,41.51,0,0,0,5.74-.84c.93-.16,1.84-.46,2.76-.67s1.83-.52,2.74-.89l1.33-.49.08-.05s.05,0,0,0h0s0,0,0,0l.05.11.21.45q.21.43.45.87l.25.43.19.37a12.63,12.63,0,0,0,.85,1.39c.27.42.46.74.74,1.1s.46.6.68.85a8,8,0,0,0,1.26,1.21,9.42,9.42,0,0,0-2.66-.89l-1.33-.23c-.54-.08-.93-.08-1.6-.16s-1.19-.07-1.84-.08l-.9,0h0c0-.1-.05-.42-.16-.93a29.38,29.38,0,0,0-1.48-4.43,64.8,64.8,0,0,0-2.8-5.87,152.54,152.54,0,0,0-8-13c-3.05-4.48-6.36-9.07-9.88-13.75-4.95-6.59-10.1-13.09-15.34-20-1.31-1.74-2.64-3.51-4-5.37l-2-2.87-1.88-2.74-1.82-2.65-1.81-2.72c-1.21-1.79-2.42-3.65-3.61-5.51a193.24,193.24,0,0,1-13.3-24.18l-1.45-3.32c-.49-1.09-.9-2.3-1.34-3.44s-.88-2.3-1.28-3.49l-1.14-3.63c-.8-2.37-1.34-5-2-7.49-.33-1.24-.49-2.61-.73-3.91s-.46-2.61-.6-4a71.74,71.74,0,0,1,3.77-33,73.68,73.68,0,0,1,7.31-14.43,90.58,90.58,0,0,1,9.37-12,117.06,117.06,0,0,1,22-18.37A185.48,185.48,0,0,1,275.48,6.88c8.57-4,16.64-6.83,17.83-6.88s-4.76,2.74-13.25,6.7Q273.85,9.61,267.69,13c-4.11,2.23-8.19,4.64-12.2,7.28a120.72,120.72,0,0,0-22.82,19A87.63,87.63,0,0,0,223,51.76a70.4,70.4,0,0,0-7.32,15,56,56,0,0,0-2.23,8.39l-.42,2.13a17.75,17.75,0,0,0-.33,2.15l-.42,4.32a38.51,38.51,0,0,0-.14,4.29c0,1.42,0,2.88.07,4.28a77.32,77.32,0,0,0,1,8.31,92.9,92.9,0,0,0,4.07,15.54,123.67,123.67,0,0,0,6,13.94,221.54,221.54,0,0,0,14.53,24.51c1.28,1.91,2.55,3.79,3.83,5.64l2,2.9,2.11,2.93c2.8,3.8,5.51,7.35,8.22,10.86,5.4,7,10.66,13.8,15.58,20.64a188.25,188.25,0,0,1,13,20.34,58.37,58.37,0,0,1,4.07,9.24,19.59,19.59,0,0,1,.78,3.3c0,.22,0,.33.06.5a2.73,2.73,0,0,0,0,.31.06.06,0,0,0,0,.06s0,0,0,0h0l.29,0c.37,0,.81.12,1.15.18a7.85,7.85,0,0,1,.92.18l.77.2c.21,0,.49.17.64.22a4.8,4.8,0,0,1,.7.29l.11.05.05,0h0l-.18-.14-.26-.22-.36-.36c-.11-.12-.35-.35-.49-.53s-.76-.92-1.11-1.47a5,5,0,0,0-.3-.46l-.3-.46v0a.85.85,0,0,0-.21.11l-.2.08a1.15,1.15,0,0,1-.3.13l-1.16.41c-.77.3-1.55.51-2.32.74a47.26,47.26,0,0,1-4.67,1.11,53,53,0,0,1-9.95.77c-.89,0-1.79-.05-2.72-.07l-1.51-.07c-.28,0-.45,0-.81,0L264.1,232c-3.29-.31-6.55-.71-9.78-1-1.61-.16-3.21-.24-4.81-.43a37,37,0,0,0-4.72-.41c-1.54,0-3.07-.11-4.6-.22s-3-.11-4.53-.17A91.22,91.22,0,0,0,218.94,231c-2.59.48-5.12,1-7.61,1.72s-5,1.34-7.5,2.14c-1.25.37-2.47.83-3.7,1.25a10.14,10.14,0,0,0-1.74.75l-1.67.82c-1.12.54-2.35,1.05-3.52,1.57-.61.25-1.14.57-1.71.85a15.06,15.06,0,0,0-1.64.9l-1.47,1a4.2,4.2,0,0,1-.81.47l-.86.43-.86.44a8.42,8.42,0,0,0-.77.49c-.5.35-1,.68-1.49,1-1,.7-1.93,1.41-2.85,2.17s-1.77,1.55-2.75,2.32a9.48,9.48,0,0,0-1.28,1.25c-.39.43-.86.86-1.29,1.3a15.05,15.05,0,0,0-1.12,1.41l-.59.72a3.84,3.84,0,0,0-.54.75,37.18,37.18,0,0,0-1.89,3.29c-.2.6-.43,1.21-.68,1.82s-.26,1.28-.43,1.92a13.93,13.93,0,0,0-.3,1.92,13.44,13.44,0,0,0,.08,1.91c0,.31,0,.62.06.92a3.46,3.46,0,0,0,.15.89c.19.6.33,1.16.46,1.71a21.66,21.66,0,0,0,2.89,5.77c.27.43.53.84.83,1.25s.75.83,1,1.2.6.78.91,1.15l.48.56.58.55c.41.38.72.73,1.06,1.08a11,11,0,0,0,1.16,1.06c.43.35.73.68,1.1,1a14.58,14.58,0,0,0,1.24,1c1.23,1.15,2.93,2.25,4.24,3.35,1.63,1.08,3.34,2.13,5.1,3.17s3.63,2,5.56,3c1,.5,2,1,3,1.49l.76.36.88.35,1.78.68a56.44,56.44,0,0,0,7.23,2.65c1.29.41,2.31.91,3.66,1.29s2.69.78,4.08,1.14c5.52,1.47,11.23,2.76,17.1,3.79-.25-.1-.46-.2-.4-.25.25-.2,2.72,0,6.52.45-6.51-1.08-12.9-2.3-19-3.88-1.55-.37-3.05-.79-4.55-1.19l-2.21-.64a7.47,7.47,0,0,1-1-.34l-1-.36-1-.36-1.06-.34c-.7-.23-1.43-.45-2.11-.69l-2.06-.71-1.81-.77c-.57-.26-1.27-.51-1.91-.76l-1-.37-.86-.4c-1.13-.53-2.22-1.07-3.31-1.61q-3.22-1.64-6.15-3.34c-1-.57-1.93-1.15-2.87-1.73l-1.38-.88L187,286l-1.32-.91c-.43-.3-.76-.62-1.14-.93s-.83-.63-1.24-.94a13.27,13.27,0,0,1-1.1-1c-.51-.45-1.19-.92-1.69-1.38l-.74-.71-.82-.73c-1.09-1-1.79-2-2.89-3.09-.46-.55-.84-1.1-1.24-1.68a20.91,20.91,0,0,1-1.25-1.82,19.7,19.7,0,0,1-1.84-4.14,14,14,0,0,1-.71-5,16.69,16.69,0,0,1,.44-2.59,6.83,6.83,0,0,1,.31-1.28c.16-.41.33-.82.46-1.23l.21-.61.32-.57a11.19,11.19,0,0,1,.66-1.11c.23-.36.45-.72.66-1.07l.32-.54c.12-.17.26-.32.39-.49.56-.65,1-1.3,1.53-1.93s1.19-1.17,1.73-1.75a16.13,16.13,0,0,1,1.85-1.62c.62-.52,1.21-1.07,1.84-1.57,1.26-1,2.55-2,3.93-2.89,1.22-1,3.18-1.57,4.36-2.57l1-.68,1.14-.59c.77-.4,1.53-.8,2.35-1.14l2.42-1.08,2.3-1.11a10.44,10.44,0,0,1,1.17-.54l1.26-.44c.84-.29,1.68-.61,2.53-.86l2.57-.8,2.59-.72c1.73-.47,3.44-.94,5.19-1.34a84.16,84.16,0,0,1,22.94-2.16c2.08,0,4.26.26,6.4.33,1.09,0,2.15,0,3.26.14l3.37.41c4.47.33,9.1,1,13.74,1.42,1.35.15,1.84.14,2.62.19l2.06.1c.67,0,1.32,0,2,0s1.29,0,1.91,0a49.5,49.5,0,0,0,7.3-.58,52,52,0,0,0,7.05-1.62l1.77-.58a1.09,1.09,0,0,0,.27-.1l.17-.06a2,2,0,0,0,.29-.11c.18-.06.22-.11.26-.1s.16.24.29.41.36.44.45.57a8.29,8.29,0,0,0,.73.84,7.3,7.3,0,0,0,.63.6l.11.08.08.06h0a7.06,7.06,0,0,0-1.53-.6,13.64,13.64,0,0,0-1.58-.35s0,0,0-.14a.65.65,0,0,1,0-.13v-.21a4.41,4.41,0,0,0,0-.53,15.94,15.94,0,0,0-.56-3.47,40.78,40.78,0,0,0-1.46-4.55,88.42,88.42,0,0,0-4.71-10c-1.82-3.41-3.84-6.83-6-10.24-4.26-6.81-8.9-13.56-13.67-20.33s-9.71-13.5-14.72-21l-1.26-1.78-1.16-1.69-2.31-3.36c-1.54-2.27-3.08-4.53-4.59-6.87s-3-4.72-4.46-7.1-2.9-4.86-4.25-7.41-2.68-5.12-4-7.71-2.47-5.35-3.51-8.19-2-5.71-2.92-8.62l-1.15-4.52c-.37-1.5-.59-3.1-.88-4.64a66.28,66.28,0,0,1-.42-19.36c.19-1.63.58-3.25.87-4.86a44.3,44.3,0,0,1,1.2-4.8c.46-1.58,1-3.11,1.59-4.64s1.22-3,2-4.43a75.32,75.32,0,0,1,4.64-8.26,89.08,89.08,0,0,1,5.49-7.43,101.19,101.19,0,0,1,12.6-12.74,25.83,25.83,0,0,1,3.58-2.74c.6-.32-.13.38-1.57,1.59a112.7,112.7,0,0,0-8.85,8.41,86,86,0,0,0-8,9.68,68.25,68.25,0,0,0-11.13,23.92,64.6,64.6,0,0,0-.2,26.91,97,97,0,0,0,8.44,24.16,47,47,0,0,1-1.73-5.93c-.23-1.42-.18-2.18.21-2.11.78.14,2.8,3.69,5.89,8.86a103.66,103.66,0,0,1-7.9-20.8c-.27-1.14-.56-2.21-.72-3.2s-.26-1.9-.34-2.65c-.15-1.5-.16-2.4,0-2.36s.51.94.88,2.39c.18.73.38,1.59.58,2.54s.51,1.94.79,3a103.7,103.7,0,0,0,8.08,20.9,205.34,205.34,0,0,0,11,18.9q1.45,2.28,3,4.51t3,4.45l1.51,2.22,1.59,2.26q1.59,2.24,3.2,4.39c4.3,5.76,8.64,11.33,12.87,17,5.17,6.66,10.22,13.35,14.86,20.2s8.94,13.89,11.9,21.07a33.91,33.91,0,0,1,2.71,10.39,11.79,11.79,0,0,1-.46,4.18,7.16,7.16,0,0,1-1.89,3,12,12,0,0,1-3.66,2.26c-.33.15-.81.32-1.27.48l-1.37.49c-.92.33-1.86.57-2.78.86a54.38,54.38,0,0,1-11.44,2c4.36.3,7.63.26,9.32.67a0,0,0,0,1,0,0c1.21-.29,2.42-.57,3.61-1s2.37-.75,3.54-1.16a19.38,19.38,0,0,0,3.1-1.35,13.91,13.91,0,0,0,2.48-1.79,9.68,9.68,0,0,0,2.73-5.88,21,21,0,0,0-.73-7.55,67,67,0,0,0-6.82-15.56c-5.85-10.14-13-19.77-20.43-29.3-3.71-4.76-7.5-9.5-11.3-14.29-1.89-2.41-3.79-4.82-5.67-7.29q-1.41-1.86-2.81-3.78l-2.68-3.79c-7.07-10.07-14-20.53-19.42-32.19a93.32,93.32,0,0,1-6.4-18.4,60.53,60.53,0,0,1-1.22-20l.11-1.26.23-1.25.46-2.5a44.38,44.38,0,0,1,1.19-4.94,64.51,64.51,0,0,1,3.76-9.35,75.77,75.77,0,0,1,5.11-8.51,84.07,84.07,0,0,1,6.07-7.69c8.65-9.73,19-17.44,29.82-24a361.23,361.23,0,0,1,33.3-17.38A22,22,0,0,1,307,2.93a18.77,18.77,0,0,1-2.84,1.52C290.58,10.91,277,17.59,264.25,26.08a128.76,128.76,0,0,0-18.06,14.36A85.26,85.26,0,0,0,231.58,58.8l.07-.11c.74-1,1-1.17.36.07L230.87,61c-.46.82-.9,1.65-1.2,2.21-.72,1.29-.8,1.11-.36,0a54.62,54.62,0,0,0-5.49,21.78,65,65,0,0,0,3.07,22,109.36,109.36,0,0,0,8.53,19.85c3.38,6.26,7.16,12.2,11.06,18q2.94,4.32,6,8.55c2,2.86,4.15,5.7,6.27,8.42,4.25,5.47,8.56,10.78,12.76,16.14s8.34,10.73,12.27,16.2a182.46,182.46,0,0,1,10.87,16.79,172.31,172.31,0,0,0-9.78-15.78c-3.53-5.14-7.24-10.19-11-15.2s-7.68-10-11.55-15c-1.94-2.51-3.87-5-5.77-7.63-.94-1.28-1.9-2.63-2.8-3.93l-2.7-3.93c-7.16-10.5-14.09-21.4-19.2-33.38a82.13,82.13,0,0,1-5.54-18.85,56.52,56.52,0,0,1,.23-19.84l.33-2.16c.14-.72.33-1.42.49-2.13.3-1.43.79-2.8,1.2-4.21a59.34,59.34,0,0,1,3.42-8.07,21.51,21.51,0,0,1,2.33-3.65c.32-.32-.16.75-1,2.16-.42.7-.75,1.43-1.12,2.15s-.73,1.43-1,2.18a50.43,50.43,0,0,1,6.82-10.42,25,25,0,0,1,2.51-2.64c.64-.56,1-.8,1.14-.66.28.9-4.86,7.48-8.87,16.58a50.84,50.84,0,0,0-4.2,19.31,62.3,62.3,0,0,0,3,19.54,104.56,104.56,0,0,0,7.8,18.21c3.12,5.83,6.62,11.46,10.28,17,1.61,2.37,3.29,4.7,5,7s3.5,4.58,5.33,6.79c-5.93-8.38-11.69-16.94-16.8-25.79a150.17,150.17,0,0,1-6.87-13.65,90.6,90.6,0,0,1-4.81-14.38,63.7,63.7,0,0,1-1.57-14.92,54.08,54.08,0,0,1,.87-7.41,30.23,30.23,0,0,1,.78-3.64c.29-1.21.69-2.39,1.09-3.57a59.11,59.11,0,0,1,6.75-13.31A81.52,81.52,0,0,1,248.79,46a39.85,39.85,0,0,1,3.26-3.11c.89-.78,1.52-1.2,1.63-1.14s-1.72,2.14-4.07,4.64A72,72,0,0,0,235.37,68a47.86,47.86,0,0,0-2.92,24.9,62,62,0,0,0,1.19,6.28c.25,1,.59,2.06.88,3.09s.59,2.06,1,3.07l1.11,3c.39,1,.85,2,1.27,3,.81,2,1.84,4,2.78,5.92a196,196,0,0,0,14,22.65l3.92,5.5c1.33,1.83,2.65,3.69,4,5.42,2.67,3.53,5.52,7,8.38,10.59,5.72,7.09,11.51,14.24,17.06,21.68a203,203,0,0,1,15.58,23.58,79.66,79.66,0,0,1,6,13.64,42.19,42.19,0,0,1,1.74,7.95,25.46,25.46,0,0,1-.59,9.21,19.58,19.58,0,0,1-2.64,6.29,20.8,20.8,0,0,1-4.6,5,25.19,25.19,0,0,1-5.35,3.25c-1,.47-1.65.72-2.45,1.06s-1.55.66-2.36.93a69,69,0,0,1-20.06,4.15c-1.7.11-3.39.13-5.08.14l-2.51,0-2.4-.09-1.75-.05-1.65-.08c-1.1-.05-2.19-.12-3.26-.2-4.29-.3-8.4-.69-12.38-.71,2.14.25,4.29.57,6.43.91,3.4.54,6.74,1.12,10.1,1.52l2.72.27,1.94.18c.65.06,1.36.09,2,.13a76.64,76.64,0,0,0,8.31.07,68.3,68.3,0,0,0,16.58-2.77c1.33-.41,2.67-.81,3.95-1.3l1.94-.72c.72-.28,1.57-.65,2.34-1a26.73,26.73,0,0,0,9.25-7.08,23.43,23.43,0,0,0,3.31-5.45,25.32,25.32,0,0,0,1.66-5.81,31.25,31.25,0,0,0-.22-10.25,58.37,58.37,0,0,0-5.53-15.63,122.26,122.26,0,0,0-7.51-12.82c-2.66-4-5.44-7.87-8.27-11.62-5.67-7.48-11.59-14.58-17.49-21.59-2.94-3.51-5.89-7-8.75-10.46-1.43-1.74-2.83-3.48-4.16-5.2l-4.09-5.45a216.85,216.85,0,0,1-15-22.6l-1.63-3c-.52-1-1-2-1.51-3-1.05-2-1.85-4.08-2.77-6.14-.39-1-.78-2.09-1.16-3.14l-.58-1.58-.47-1.6c-.3-1.07-.66-2.14-.91-3.22s-.47-2.17-.7-3.26a11.53,11.53,0,0,1-.31-2.3,4.25,4.25,0,0,1,0-1.17c.13-.2.39,1,.64,2.73a80.93,80.93,0,0,0,9.24,24.07,199.39,199.39,0,0,0,14.47,21.88c1.3,1.78,2.64,3.55,4,5.32l2,2.6,2,2.53c2.76,3.39,5.66,6.8,8.58,10.26,5.85,6.93,11.82,14,17.66,21.66A208.56,208.56,0,0,1,306,203a100.31,100.31,0,0,1,5.78,11.18,50.92,50.92,0,0,1,3.93,13.51,30.64,30.64,0,0,1,0,8.55,24.68,24.68,0,0,1-3.45,9.39,25.35,25.35,0,0,1-6.9,7.21,30.85,30.85,0,0,1-3.83,2.28c-.65.35-1.26.59-1.89.88l-.92.39-.75.29a72.7,72.7,0,0,1-25.23,5.12,71.43,71.43,0,0,0,25.69-4.68c.27-.1.47-.16.8-.3l1-.4c.64-.27,1.28-.55,1.94-.9a29.64,29.64,0,0,0,3.93-2.34,26,26,0,0,0,7-7.4,25.53,25.53,0,0,0,3.5-9.54,31.94,31.94,0,0,0,.1-8.6,51.49,51.49,0,0,0-3.71-13.46,98.74,98.74,0,0,0-5.47-10.94,196,196,0,0,0-12.69-19c-4.46-5.95-9-11.67-13.65-17.27s-9.27-11.1-13.62-16.52c-1.09-1.37-2.13-2.68-3.15-4.05l-3.18-4.28L258,137.81l-3-4.31a163.59,163.59,0,0,1-10.86-17.65,36,36,0,0,1-2.49-5.71,4.58,4.58,0,0,1-.7-1.14A57.21,57.21,0,0,1,235,89a14.46,14.46,0,0,1,0-3.79c.08-.35.14-.32.18,0S235.31,86.07,235.4,86.83ZM20.64,319.53l-.15-.19.53.34.75,1.33Zm-9,4.81h0c-.25-.45-.44-.76-.44-.76ZM282.48,346c-30.61-3.94-60.87-8.53-91.11-13.39l22.16,3.2C225,337.58,236.47,339.28,248,341S271,344.37,282.48,346ZM14.34,314.33a12.86,12.86,0,0,1,2.17,2.5,4.84,4.84,0,0,1,1.7-.14,45.34,45.34,0,0,1,4.57.74c-.2-.47.15-.4.34-.44l.55-.08c-1.59-.41-3.19-.85-4.82-1.34A40.59,40.59,0,0,1,14.34,314.33ZM3.22,315.77l-.14-.18.26-.73S3.29,315.26,3.22,315.77ZM2.81,317l.23.11C3,317.4,2.89,317.3,2.81,317ZM5,318a1.68,1.68,0,0,0-.31-.4Zm2.39,21.57L8,335.87l-.71,3.57Z"/></g></g></svg>