<svg xmlns="http://www.w3.org/2000/svg" viewBox="0 0 436.76 325.04"><g id="Layer_2" data-name="Layer 2"><g id="Layer_1-2" data-name="Layer 1"><path d="M203.7,104.62l.64,0c-.08.34-.43.62-.93.86a13.76,13.76,0,0,0,7.43-3.88,20.73,20.73,0,0,0,4.43-6.37c1.37-.73,2.06-2.06,1.54-3s-2.14-1.13-3.59-.39a5.77,5.77,0,0,1-1.14.21,27.78,27.78,0,0,0-9.6,1.44l2.25-.24a10.24,10.24,0,0,0-2.79,1.09l.73.27c-3.68.58-7,3.5-7.09,6.44s3,4.61,6.52,3.87Z"/><path d="M212.74,106.29c-1.85.44-3.69.85-5.6,1.26l-.54-.09,1.4,1.23-.06-.1c.09-2,1.67-4,3.29-5.71l.51-.68a1.28,1.28,0,0,0,0-1.13,1.89,1.89,0,0,0-2.56-.39l-1.16.63c-3.25,1-7.42,4.09-6.42,7.42.23.76,1.2,1.17,1.9,1.7a2.85,2.85,0,0,0,3.73,0c1.22-.91,1.58-2.35.81-3.28l.78-.3c-.05.22-.11.46-.17.68-.41-1,.53-2,1-3l1-1.14-2.61-1.5-.42.75a3.07,3.07,0,0,1,.35.12,31.31,31.31,0,0,1-2.35,4.32c-.32.69-.62,1.38-.92,2.08a1.22,1.22,0,0,0,1.44,1.22l1.17-.17-.59,0c2.13-.92,4.13-2.05,6.22-2.83a.71.71,0,0,0,.54-.74A.56.56,0,0,0,212.74,106.29Z"/><path d="M207.18,111.24a1.85,1.85,0,0,0-1.19.48v.3l.88-.1C207.5,111.85,207.49,111.5,207.18,111.24Z"/><path d="M206,112l-.38,0,.35.07,0,0Z"/><path d="M262.52,248.46l-.33.9a4.83,4.83,0,0,1-.24.5l-.46.9c-.33.6-.54,1.22-.81,1.84a29.23,29.23,0,0,0-1.32,3.86,17.16,17.16,0,0,0-.61,4.12,8.42,8.42,0,0,0,.91,4.06,6.45,6.45,0,0,0,3.1,2.71,12.15,12.15,0,0,0,4.09.9,30.47,30.47,0,0,0,4.27-.05l2.15-.19,4.91-.58c.85-.1,1.54-.33,1.55-.51s-.67-.24-1.44-.13l-5,.58-2.06.18a28.86,28.86,0,0,1-4.05,0,11.92,11.92,0,0,1-3.89-.83,6.24,6.24,0,0,1-3-2.53,7.91,7.91,0,0,1-.9-3.85,16,16,0,0,1,.56-3.91,28.12,28.12,0,0,1,1.24-3.66c.26-.58.47-1.17.77-1.74l.44-.85.21-.42a3.38,3.38,0,0,0,.15-.37l.15-.45a2.59,2.59,0,0,0,.19-1.43C263,247.44,262.74,247.85,262.52,248.46Z"/><path d="M408,269.47c-.54-.57-.63-.46-.24.25a14.8,14.8,0,0,0,1.48,2.19c.41.49.53.38.24-.23A10.64,10.64,0,0,0,408,269.47Z"/><path d="M395.71,271.53a26.61,26.61,0,0,0-8.34-5.06,7.6,7.6,0,0,1-1.34-.66c.07.28-.58.24-1.64-.07-5.25-1.41-10.7-.67-16.9,1.42-.77.26-1.55.55-2.36.85l-2.45.95-2.44,1-2.45,1.09c-3.25,1.49-6.49,3.16-9.75,4.93-6.53,3.57-13.1,7.65-20.14,11.81l-2.68,1.57c-1,.54-1.9,1.09-2.87,1.61-1.92,1.07-3.91,2.07-5.91,3.05A131,131,0,0,1,304,299.31a3.5,3.5,0,0,1-1.26,1.1c-2.18,1.45-7,3.21-12.11,4.12-1.3.22-2.59.39-3.88.57-1.92.29-4,.57-5.65.77l-2.83.34c-1.25.17-2.53.3-3.79.42a103.22,103.22,0,0,1-15.06.61,56.63,56.63,0,0,1-14.25-2.35,35.35,35.35,0,0,1-12.39-6.58,17.69,17.69,0,0,1-2.42-1.83,19,19,0,0,1-2.33-2.26l-1.1-1.29c-.37-.44-.67-.93-1-1.41s-.68-1-1-1.46l-.85-1.6A36.78,36.78,0,0,1,220,277.05c-.18-1-.36-2-.49-3.06a24.45,24.45,0,0,1-.32-3.11,51.88,51.88,0,0,1,.07-6.47,65.75,65.75,0,0,1,2.4-13.4c.63-2.28,1.57-4.44,2.4-6.67l1.29-3.34c.11-.28.21-.56.33-.83l.43-.78.85-1.55c-.78,1-1.36,1.53-1.58,1.45-.18-.25.2-1.38,1-3,.39-.82.88-1.77,1.45-2.8l.44-.79c.15-.26.31-.55.44-.74l.89-1.31,1.86-2.66.94-1.31,1-1.24a42.48,42.48,0,0,0-2.89,3.65L229.16,231l-.69.95c-.23.32-.5.8-.76,1.19-2,3.31-4.3,6.44-5.74,10.18-.46,1-.92,2-1.35,2.87a47.29,47.29,0,0,0-2.3,6.11c-.66,2.08-1.17,4.18-1.62,6.28a60,60,0,0,0-1.3,12.55,41.94,41.94,0,0,0,.58,6.59,44.32,44.32,0,0,0,1.34,6.34c.35,1,.68,2,1.05,3l1.26,2.94,1.56,2.82c.58.9,1.21,1.77,1.82,2.65s1.34,1.69,2,2.53,1.53,1.53,2.3,2.28,1.65,1.38,2.47,2.08a23.72,23.72,0,0,0,2.62,1.84,43.69,43.69,0,0,0,11.69,5c8.23,2.18,17.18,2.2,26,1.17,2.19-.26,4.38-.58,6.55-.9.55-.07,1.09-.19,1.63-.28l1.39-.24,2.17-.41,4.59-.93c1.59-.36,3.17-.7,4.74-1.11a128.81,128.81,0,0,0,18.55-6.15,134.84,134.84,0,0,0,17-8.67c10-6.06,18.7-12,27.65-16.66a7.17,7.17,0,0,1,2.09-.86c.4,0,.41.18-.23.53a185.44,185.44,0,0,0-15.91,10.6l-8.08,5.92-4.26,3.05c-1.57,1.07-3.17,2.14-4.83,3.18a121.54,121.54,0,0,1-22,11,124.18,124.18,0,0,1-12.47,4c-1.08.29-2.15.55-3.24.81l-3,.72-1.47.33-.77.17-.48.09-.6.12c-1.61.34-3.27.56-4.93.83-2,.32-4,.57-6,.86-2,.14-4,.38-6,.46l-3,.13c-1,.06-2,0-3,0s-2,0-3-.09l-2.91-.25c-1-.08-1.93-.23-2.88-.38s-1.91-.29-2.84-.49a53.24,53.24,0,0,1-5.52-1.45,47.29,47.29,0,0,1-10.35-4.62l-2.4-1.55-2.25-1.77a27.42,27.42,0,0,1-2.15-1.89l-1.05-1-.26-.24-.06-.06c-.1,0-.06,0-.1,0l-.12-.13-.47-.54a44.67,44.67,0,0,1-6.56-9.27,43.73,43.73,0,0,1-4-10.59c-.42-1.87-.77-3.77-1.11-5.67a18.77,18.77,0,0,1-.33-2.93c0-1-.17-2-.13-3a63.25,63.25,0,0,1,1.05-12.43,60.41,60.41,0,0,1,3.58-12.63l2.56-6.17.64-1.55.32-.77a6.37,6.37,0,0,1,.41-.72l1.69-2.81,1.71-2.83.85-1.42.43-.7c.14-.24.29-.5.4-.65q1.44-2.08,2.91-4.12c.51-.68,1-1.38,1.51-2l1.63-1.91,1.64-1.89a24.14,24.14,0,0,1,1.68-1.81c1.14-1.15,2.31-2.27,3.47-3.39s2.34-2,3.51-3a146.38,146.38,0,0,1,13.33-9.55c4.34-2.73,8.31-5.16,11.78-7.82,1.83-1.3,3.43-2.7,5.07-4.1.85-.69,1.57-1.46,2.34-2.2s1.53-1.5,2.27-2.27c1.41-1.61,2.83-3.21,4.17-4.89s2.59-3.49,3.77-5.21A52.15,52.15,0,0,0,286,163.53a41.53,41.53,0,0,0,2.63-11.09,34.79,34.79,0,0,0-.6-10.86l-.28-1.3c-.11-.43-.25-.84-.37-1.26-.21-.83-.54-1.64-.82-2.46a32.71,32.71,0,0,0-2.19-4.68,30.11,30.11,0,0,0-6-7.63,12.52,12.52,0,0,0-4.16-2.63,2.55,2.55,0,0,0-.78-.18l-.17,0a.45.45,0,0,0-.11,0,.77.77,0,0,0-.19.08c-.26.12-.5.27-.82.42a5.84,5.84,0,0,1-1.59.43,12.45,12.45,0,0,0-1.85.19,9.82,9.82,0,0,0-1,.32,22.05,22.05,0,0,0-4.06,2c-.34.19-.71.47-1.05.69-.18.11-.36.25-.54.38s-.07.07-.12.1l-.38.34c-.25.21-.51.47-.77.69s-.51.48-.77.74-.5.47-.77.75c-1,1-2.09,2.13-3.13,3.32s-2.1,2.46-3.13,3.82c-1.28,2.36-4.07,2.58-6.48.29a7.65,7.65,0,0,1-2.3-5.35l-.5.51-1,.58a4,4,0,0,1-3.28.22l-1.5-.42c-2.58-1.19-5.43-1.44-8.2-2.81l-.64-1-.39-.06a5.54,5.54,0,0,1-3.19-1l-.94-1a12.72,12.72,0,0,1-2.28-4.05,4.76,4.76,0,0,1-1-1.36,6.43,6.43,0,0,1-3.47-2.9.89.89,0,0,1-.86-1,1.22,1.22,0,0,1,.25-.51h0c-.41-.11-.53-.14-1-.24-.37.17-.6.25-.6.25l-1.76,1a5.6,5.6,0,0,1-1.77,0c-2.47-1.13-2.49-1.12-3.19-2,0-.11-.07-.22-.09-.33-.8.23-.87.25-1.09.3a3,3,0,0,1-.57-.06c-.46-.37-.46-.37-.71-.43A2.41,2.41,0,0,1,206,114c-.18-.71-.18-.71-.31-.84a1.6,1.6,0,0,1-.07-.37l.35-.7,1.89.35-.21-.5.68.32-.56-.35.67-.07h-.85a6.14,6.14,0,0,0,1.46-1,2.19,2.19,0,0,0,.7-.7,2.35,2.35,0,0,1-.27-.2c1.18-.65,1.18-.66,2.34-1.26.19,0,.36.07.52.11a.55.55,0,0,1,.32-.54l.59-.32.06-.15,0,0,.25-.55,0-.12h0c.17-.38.42-.92,1.12-2.35a8.88,8.88,0,0,1,1.09-.44h-.44c-.3,0-.49-.52-.61-.49a42.41,42.41,0,0,0-8.69,3.82,1.19,1.19,0,0,1-1.42.23c-.39-.27-.37-.81,0-1.21,2.89-6,10-10.14,16.87-11.72l4.93-2-.36-.08,1.41-.32.14-.05-1.39-.26c-.26,0-.52.07-.78.12-3.78,1.62-7.79,2.36-11.74,3.76-2.12.75-4.24,1.08-6.41,1.7a.92.92,0,0,1-1.22-.12c-.21-.31,0-.78.49-1C211.88,92.42,219.38,89,226,89a8.13,8.13,0,0,1,3.56-.83h.05l-1.06-.29a21,21,0,0,1,2.62-.08l-.77-.71c2.28-.7,4.64-1.53,7-2.22a26.2,26.2,0,0,1,7.22-1.14l.53-.06a19.3,19.3,0,0,1,2.63-1.54l.73-.33a1.59,1.59,0,0,1,.22-.08l1.07-.27L252,81a58.78,58.78,0,0,1,9.51-1q-1.73,0-3.39.09c-1.12.06-2.23.14-3.32.27s-2.2.23-3.28.4l-1.63.25-1.41.26,0,0,.19,0,.43-.11.85-.2,1.74-.37c1.15-.25,2.35-.42,3.53-.61a60.51,60.51,0,0,1,7.34-.63c1.24,0,2.52,0,3.78,0s2.57.17,3.85.28l1.94.27,1,.15.48.07.24,0,.13,0,3.33.7a45.83,45.83,0,0,1,11.49,4.07,42.82,42.82,0,0,1,5.43,3.36q1.18.9,2.34,1.83c.74.63,1.43,1.27,2.13,1.92a54.33,54.33,0,0,1,11.53,16.28,60.8,60.8,0,0,1,4.89,15.35,52.88,52.88,0,0,1,.92,11.9,76.83,76.83,0,0,1-.35,16.83,93,93,0,0,1-3.6,16.05,107.34,107.34,0,0,1-6.14,14.93c-.62,1.19-1.2,2.39-1.87,3.56l-1,1.74-1,1.65-2,3.3c-.65,1.11-1.31,2.21-2,3.28-2.8,4.34-5.74,8.65-8.89,12.79l-2.36,3.12-2.41,3-1.2,1.52L282,218.83l-2.41,2.95c-3.16,3.82-6.24,7.55-8.77,11a56.24,56.24,0,0,0-5.78,9.93c-.54,1.32-1.1,2.35-1.45,2.41s-.17-1,.33-2.34c.47-1.16,1.06-2.31,1.58-3.51s1.34-2.39,2.06-3.62,1.61-2.48,2.53-3.76,1.87-2.55,2.93-3.89c4.16-5.25,9-10.89,13.55-16.79a199.5,199.5,0,0,0,12.67-18.43L302.1,188c.95-1.65,1.86-3.36,2.71-5.07a101.08,101.08,0,0,0,4.6-10.61c-1.16,3-2.5,6-3.94,8.83-.72,1.44-1.49,2.84-2.26,4.25l-1.2,2.08-1.23,2c-1.64,2.62-3.24,5.27-5.07,7.81-.9,1.27-1.72,2.6-2.67,3.85l-2.81,3.77c-3.82,5-7.89,9.85-12,14.41s-8,8.91-11.19,13.11l-1.19,1.62c-.36.54-.69,1.08-1,1.61l-1,1.59c-.34.53-.59,1.07-.88,1.59-.56,1-1.19,2-1.63,3.07l-.76,1.49-.39.74-.32.76-.74,2c-.12.3-.27.7-.37.92l-.28.6c-.35.81-.78,1.61-1.05,2.44a43.67,43.67,0,0,0-1.62,5,26.28,26.28,0,0,0-.84,5.13,12.06,12.06,0,0,0,.7,5.09,7.5,7.5,0,0,0,3.28,3.89,12.23,12.23,0,0,0,5,1.43,26.34,26.34,0,0,0,5.25-.12c.87-.1,1.74-.22,2.6-.36l1.29-.23c.46-.08.67-.15,1.76-.31,3.31-.52,5.81-.94,8.5-1.51s5.18-1.2,7.66-1.93a99.67,99.67,0,0,0,14.33-5.46c2.39-1.12,4.58-2.24,7.3-3.69l8.2-4.34c5.66-3,11.76-6.07,18.55-8.95a131.05,131.05,0,0,1,14.84-5.35,78,78,0,0,1,17.55-3.29,52.21,52.21,0,0,1,20.77,3,49.47,49.47,0,0,1,9.47,4.7,61,61,0,0,1,7.64,5.8,61.72,61.72,0,0,1,6.51,6.87,67.61,67.61,0,0,1,5.06,7.26A99.72,99.72,0,0,1,428,277.35l1.3,3.27c.45,1.15.92,2.37,1.35,3.56.88,2.4,1.63,4.85,2.34,7.31a111,111,0,0,1,3.16,15,55.82,55.82,0,0,1,.6,7.35,12,12,0,0,1-.36,3.82c-.44.71-1-3.08-1.74-8.4a111.42,111.42,0,0,0-3.43-15.43c-.75-2.54-1.6-5.06-2.53-7.55-.47-1.25-1-2.48-1.48-3.71l-1.47-3.46a102.63,102.63,0,0,0-7.43-14.39A58.25,58.25,0,0,0,406,250.61c-1.25-1.06-2.58-2-3.91-2.94l-2-1.32c-.66-.44-1.49-.88-2.24-1.31a46.49,46.49,0,0,0-9.95-4,50.58,50.58,0,0,0-20.39-1.13,75.59,75.59,0,0,0-8.85,1.79c-1.37.36-2.64.73-4,1.11s-2.59.8-3.86,1.23a156.36,156.36,0,0,0-14.68,5.85c-4.68,2.13-9.15,4.38-13.46,6.62l-6.36,3.31-3.09,1.61-2.94,1.5A100.69,100.69,0,0,1,287,271.26c-2,.48-4.08.86-6.16,1.22l-3.2.49-3.42.49a59.73,59.73,0,0,1-7.81.8,26.06,26.06,0,0,1-3.95-.17,14.94,14.94,0,0,1-3.85-.93A9.18,9.18,0,0,1,255.3,271a9.68,9.68,0,0,1-1.25-1.54,10.78,10.78,0,0,1-.85-1.82,15.55,15.55,0,0,1-.6-6.77,35,35,0,0,1,1.45-6.6.92.92,0,0,1-.36.11c-.45,0-.73-.42-.84-1.19a44.17,44.17,0,0,0-2,8.15,24.53,24.53,0,0,0-.17,4.29,14.65,14.65,0,0,0,.89,4.22,9.73,9.73,0,0,0,4.21,4,15.59,15.59,0,0,0,5.72,1.46,47.63,47.63,0,0,0,11.55-.87l1.44-.25,2.43-.37,2.37-.37c.74-.12,1.5-.22,2.23-.36,3-.52,5.89-1.14,8.79-1.85a121.4,121.4,0,0,0,17.27-5.68l3-1.25,3-1.35,6.35-2.91c4.28-1.94,8.63-3.89,13.09-5.7s9-3.53,13.74-5c2.36-.73,4.73-1.43,7.16-2,1.21-.31,2.42-.6,3.66-.86l1.84-.41,1.93-.37A64.68,64.68,0,0,1,371.69,244a46.17,46.17,0,0,1,11.37.55,41.49,41.49,0,0,1,11.19,3.66c.9.41,1.72.91,2.57,1.37s1.56,1,2.34,1.47a49.39,49.39,0,0,1,4.4,3.25,52.68,52.68,0,0,1,7.59,7.72,66.15,66.15,0,0,1,5.7,8.47c1.62,2.84,3,5.65,4.31,8.43.63,1.38,1.25,2.75,1.84,4.11s1.23,2.88,1.8,4.32a9.36,9.36,0,0,1,.71,2.32c0,.39-.26-.08-.65-1s-.85-2-1.29-3l-1.35-2.88c-.88-1.85-1.81-3.75-2.78-5.66a90,90,0,0,0-7.09-11.61,58.55,58.55,0,0,0-4.72-5.62,52.34,52.34,0,0,0-5.66-5c-1-.78-2.05-1.48-3.09-2.2s-2.08-1.34-3.3-2a39.07,39.07,0,0,0-7.47-3.14c3.13,1.55,4.6,3,4.1,3.48s-3-.16-6.67-.76a38.74,38.74,0,0,1,6.3,2.44c1,.47,2,1.07,2.93,1.61s1.8,1.15,2.67,1.78c2.16,1.54,3.54,3.14,3.3,3.31s-2-.95-4-2.35c-.87-.62-1.77-1.17-2.67-1.75s-1.89-1.12-2.91-1.57a34.08,34.08,0,0,0-6.23-2.34,39.16,39.16,0,0,0-13.05-1.17,62,62,0,0,0-12.23,2.25c-3.85,1.05-7.63,2.31-11.31,3.72a261.71,261.71,0,0,0-24.95,12.3l-6,3.2c-2,1-3.88,2-5.86,2.95a114.52,114.52,0,0,1-12.06,4.91,14.64,14.64,0,0,1,5.42.12h0c2.56-1,5.07-2,7.55-3.19,5.54-2.82,11.09-6.16,16.78-9.3s11.54-6.25,17.68-9q4.59-2,9.41-3.7c1.6-.56,3.23-1,4.86-1.56s3.36-.92,5.1-1.28a45.66,45.66,0,0,1,10.86-1,35.06,35.06,0,0,1,11.12,2.12l1.34.5,1.3.59c.88.37,1.71.83,2.54,1.28a46.64,46.64,0,0,1,4.64,3,45,45,0,0,1,8,7.55c4.65,5.62,7.88,11.85,10.73,17.92,1.42,3,2.85,6.2,4,9.41s2.27,6.48,3.18,9.79a114,114,0,0,1,3.6,20.19,6.18,6.18,0,0,1,0,2,4.64,4.64,0,0,1-.32-1.74,113.22,113.22,0,0,0-4.82-24.19,108.7,108.7,0,0,0-4.4-11.59c-1.69-3.72-3.39-7.36-5.41-11l0,.07c.25.62.18.81-.25.21a17.32,17.32,0,0,1-1.29-2.27c-.31-.72-.14-.74.25-.24a57.11,57.11,0,0,0-7-9.69,46.74,46.74,0,0,0-4.41-4.26,45.73,45.73,0,0,0-5-3.59,37.4,37.4,0,0,0-5.55-2.91,36.84,36.84,0,0,0-6.06-1.85,38.74,38.74,0,0,0-12.36-.46,62.57,62.57,0,0,0-11.48,2.6c-3.64,1.14-7.2,2.47-10.66,3.94a202.76,202.76,0,0,0-19.88,10c6-3.14,12.17-6.2,18.56-8.82,3.2-1.32,6.46-2.52,9.78-3.56a77.87,77.87,0,0,1,10.24-2.6,43,43,0,0,1,10.9-.57,34.1,34.1,0,0,1,10.76,2.73,40.85,40.85,0,0,1,9.21,5.83,44.36,44.36,0,0,1,7.36,7.84,65.16,65.16,0,0,1,5.44,7.48,8.37,8.37,0,0,1,.94,2.08c0,.26-.38-.22-.83-.95s-.89-1.44-1.37-2.15c2.61,4.59,3.76,8.45,3.15,8.66-.75.05-3.12-3.68-5.87-8.21a45.44,45.44,0,0,0-14.65-15.08,30.33,30.33,0,0,0-9.67-4,33.41,33.41,0,0,0-10.46-.63,42.53,42.53,0,0,0-4.49.77c-1.48.41-2.93.88-4.36,1.41a42.44,42.44,0,0,1,16-1.31,29.37,29.37,0,0,1,7.62,2.08,34.64,34.64,0,0,1,6.85,4,44,44,0,0,1,10.74,11.67,121.63,121.63,0,0,1,7.65,14.26c.81,1.66,1.29,3.18,1.1,3.3s-1-1.14-1.81-2.79a133,133,0,0,0-7.12-12.23,46.53,46.53,0,0,0-9-10.07,35.23,35.23,0,0,0-5.48-3.68,27.8,27.8,0,0,0-5.86-2.45,29.16,29.16,0,0,0-12.6-.59,47.69,47.69,0,0,0-6.49,1.47c-2.17.64-4.41,1.42-6.58,2.22a137.94,137.94,0,0,0-12.89,5.64c-4.25,2.09-8.46,4.38-12.7,6.73s-8.47,4.75-13,7.13A126.91,126.91,0,0,1,302,293.4a133.57,133.57,0,0,1-20,6.82c1.74-.25,3.54-.51,5.32-.85a110.53,110.53,0,0,0,31.66-11.05c4.84-2.56,9.06-5.19,13.25-7.73s8.27-5,12.36-7.35,8.19-4.48,12.39-6.34a79.56,79.56,0,0,1,12.74-4.61,29.9,29.9,0,0,1,12.48-.65,24.24,24.24,0,0,1,6,1.92c1,.42,1.95,1,2.94,1.56l1.42.92c.48.31.92.66,1.39,1a3.36,3.36,0,0,1,1.24,1.3c0,.16-.57-.14-1.28-.72a33.68,33.68,0,0,0-5.53-3.35,23.41,23.41,0,0,0-5.66-1.89,28.42,28.42,0,0,0-11.8.42,53.06,53.06,0,0,0-6.09,1.82c-2.08.76-4.18,1.59-6.25,2.5-4.16,1.81-8.27,3.89-12.46,6.19-6.93,3.81-13.63,8-20.56,12.22a143.8,143.8,0,0,1-22.77,11.33,122.56,122.56,0,0,0,23.17-10.53c6.85-3.93,13.26-7.88,19.69-11.38A127.51,127.51,0,0,1,365,266.07c6.46-2.22,12.52-3.18,18.13-1.72a6.93,6.93,0,0,1,2.48,1,1.09,1.09,0,0,1,.62.05c.35.1.71.25,1.07.38a9.14,9.14,0,0,1,1.13.45l1.16.53c.39.19.76.41,1.15.62.79.39,1.5.91,2.27,1.38s1.48,1,2.18,1.65a4.6,4.6,0,0,1,1.31,1.47C396.71,272.25,396.31,272,395.71,271.53ZM226.8,103.85l-.24,0,.65-.07,1.38.56Zm-4.75,9.32h0l-.82-.27Zm75.32,80.64,3.46-5.63c1.17-1.88,2.28-3.93,3.33-5.93a104.69,104.69,0,0,0,5.48-12.55,86.51,86.51,0,0,0,5.26-27.42,77.89,77.89,0,0,1-1.1,13.78,83.69,83.69,0,0,1-2.64,10.25,90.76,90.76,0,0,1-3.73,9.75c-1.42,3.16-3,6.24-4.7,9.23l-1.32,2.22-1.35,2.1Zm-79.1-89.87a12.41,12.41,0,0,1,3.37.47,5.89,5.89,0,0,1,1.43-1.19,41.52,41.52,0,0,1,4.49-2.32c-.43-.23-.06-.4.08-.55l.47-.4L223,102C221.45,102.6,219.86,103.43,218.27,103.94Zm-8.47,8.89-.24,0-.27-.72Zm.5,1.19.27-.09C210.69,114.17,210.56,114.16,210.3,114Zm2.38-.86a1.55,1.55,0,0,0-.52-.06Zm15.9,13.89-2-3.08,1.83,3Z"/><path d="M296,142.46l.37,0a.85.85,0,0,1-.57.47c3.5-.1,6-3,7.24-5.79a1.54,1.54,0,0,0,1-1.91,1.57,1.57,0,0,0-2.12-.54,2.62,2.62,0,0,1-.67.05,13.73,13.73,0,0,0-5.57.28h1.29a5.58,5.58,0,0,0-1.62.52l.42.24a4.3,4.3,0,0,0-4.15,3.61,3,3,0,0,0,3.5,3.06Z"/><path d="M301.2,144.34c-1.13.12-2.22.23-3.35.31l-.31-.1.75.91,0-.07a6.18,6.18,0,0,1,2.19-3.41l.32-.4a1,1,0,0,0,0-.76,1.09,1.09,0,0,0-1.49-.46l-.7.32c-1.95.42-4.39,2-4,4.2.1.5.62.85,1,1.26a1.56,1.56,0,0,0,2.13.36,1.51,1.51,0,0,0,.63-2l.47-.12-.13.43c-.19-.69.4-1.27.7-1.9l.67-.64L298.62,141l-.28.45a1.87,1.87,0,0,1,.2.11,16.53,16.53,0,0,1-1.54,2.59l-.62,1.24a.81.81,0,0,0,.77.91h.68l-.34-.05c1.27-.38,2.51-.92,3.78-1.24a.43.43,0,0,0,.36-.43A.36.36,0,0,0,301.2,144.34Z"/><path d="M297.69,147a1.05,1.05,0,0,0-.72.19v.19l.51,0C297.84,147.42,297.85,147.2,297.69,147Z"/><path d="M297,147.38h-.21l.19.08,0,0Z"/><path d="M381.53,136.34a12.09,12.09,0,0,0,6.78.46,18.05,18.05,0,0,0,7.32-4.11c.16-.14.25-.31.2-.37s-.21,0-.35.15a17.89,17.89,0,0,1-7.23,4.05,11.82,11.82,0,0,1-6.6-.47c-.16,0-.36,0-.39,0S381.36,136.29,381.53,136.34Z"/><path d="M418.15,106c0,.21,0,.22.15,0a1.88,1.88,0,0,0,.23-.64c0-.17-.06-.19-.15,0A1.61,1.61,0,0,0,418.15,106Z"/><path d="M422.17,109.3c-.29,1.16-.51,2.28-.72,3.29a1.88,1.88,0,0,1-.2.52c.12,0,.13.22,0,.65a84,84,0,0,1-10.84,25.39,1,1,0,0,1,0,.5,8.39,8.39,0,0,1-1.92,3l-.8.78a36.78,36.78,0,0,1-11.41,8.21c-.42.28-.89.57-1.4.85a16,16,0,0,1-1.71.74,20,20,0,0,1-3.13,1.23,22.14,22.14,0,0,1-3.34.87,24,24,0,0,1-3.44.44,27.89,27.89,0,0,1-3.41,0c.27.12.42.25.4.37-.11.28-1.18.38-2.4.22-.59-.08-1.14-.19-1.71-.29a44.53,44.53,0,0,0,5.14.91,5.63,5.63,0,0,1,.75.07l1.55,0a10.6,10.6,0,0,0,1.58,0c1.07-.1,2.15-.17,3.22-.37s2.34-.51,3.46-.83,2.16-.79,3.22-1.21,2-1,3-1.48,1.86-1.11,2.7-1.74a38.58,38.58,0,0,0,8.4-8.26,55.72,55.72,0,0,0,5.55-9l1.12-2.27,1-2.3c.32-.77.67-1.52,1-2.29l.84-2.29a2,2,0,0,1,.33-.66c.1-.09.16,0,.09.19-.28,1-.57,2-.85,3s-.62,1.94-.93,2.92c-.58,2-1.36,3.87-2.12,5.87a44.45,44.45,0,0,1-7.56,12.37,38.34,38.34,0,0,1-8.16,7c-.8.51-1.66,1-2.5,1.44s-1.8.84-2.72,1.24l-1.4.58c-.47.19-1,.32-1.48.47-1,.29-2,.6-3.05.82a40.89,40.89,0,0,1-12,.48l-2.66-.31-2.42-.39c-.84-.13-1.53-.26-2.27-.4l-2.14-.39-2.05-.52-1.86-.44-.93-.21-.85-.16-1.71-.32a36.87,36.87,0,0,0-6.14-.45,39.45,39.45,0,0,0-11.4,1.93,51.5,51.5,0,0,0-8.06,3.4c-2.79,1.7-5.5,3.42-8.26,5.41-1.27,1.25-3.39.89-4.82-.86a4.69,4.69,0,0,1-1-3.64l-.41.24-.76.23a3.2,3.2,0,0,1-2.3-.32l-1-.46c-1.61-1.08-3.49-1.59-5.13-2.75l-.31-.68-.25-.08a3.74,3.74,0,0,1-1.94-1l-.49-.74a8.38,8.38,0,0,1-1-2.77,3.1,3.1,0,0,1-.52-1,4.23,4.23,0,0,1-1.9-2.19.59.59,0,0,1-.44-.75.61.61,0,0,1,.19-.29h0c-.24-.11-.31-.14-.6-.25l-.38.1-1.12.43a3.09,3.09,0,0,1-1.05-.16c-1.38-.95-1.39-.95-1.73-1.54a1.7,1.7,0,0,1,0-.22c-.48.07-.52.07-.65.08a2.12,2.12,0,0,1-.33-.09c-.24-.28-.24-.28-.38-.34a2,2,0,0,1-.18-.21c-.06-.47-.06-.47-.12-.56a.83.83,0,0,1,0-.24l.24-.4c1.07.4,1.07.41,1.07.41l-.09-.34.37.27-.3-.28.39,0-.49-.08a3.16,3.16,0,0,0,.89-.47,1.21,1.21,0,0,0,.46-.38.85.85,0,0,1-.15-.15c.73-.31.73-.31,1.44-.59a2.09,2.09,0,0,1,.3.11.34.34,0,0,1,.22-.31l.37-.16,0-.09,0,0,.18-.33,0-.07h0c.13-.23.3-.56.77-1.44a4.49,4.49,0,0,1,.66-.2l-.26,0c-.17,0-.27-.39-.34-.38a23.89,23.89,0,0,0-5.27,1.72.62.62,0,0,1-.82,0,.52.52,0,0,1,.07-.77c1.92-3.6,6.16-5.83,10.31-6.37,1-.31,2-.65,3-1l-.21-.08.84-.12.09,0-.84-.28a3.44,3.44,0,0,0-.46,0c-2.26.84-4.68,1-7,1.67-1.25.35-2.53.38-3.79.64a.51.51,0,0,1-.7-.17.51.51,0,0,1,.31-.65c3.16-2.46,7.59-4.31,11.48-3.82a4,4,0,0,1,2.09-.35h0l-.64-.27c.56-.12,1,.13,1.55.1l-.48-.55c2.69-.68,5.37-1.94,8.13-1.8l.3,0a15,15,0,0,1,1.36-1.12l.37-.25.11,0,.25-.1.51-.19c.69-.25,1.41-.49,2.16-.71l-3.09.63c1-.43,2.1-.86,3.18-1.23a32.76,32.76,0,0,1,3.48-.9,44.34,44.34,0,0,1,5.08-.66,38,38,0,0,1,5,0,21.83,21.83,0,0,1,7.68,1.75,70.18,70.18,0,0,1,18.5,2.76c5.82,1.62,10.95,3.75,14.85,4.82.37.08.68.29.71.47s-.28.25-.66.16c-2.8-.55-6.32-1.76-10.21-2.94a87.67,87.67,0,0,0-12.62-3,79.29,79.29,0,0,1,10.49,3.17c3.3,1.21,6.4,2.52,9.15,3.52.73.24,1.37.41,2.07.62s1.24.37,1.86.62a8.66,8.66,0,0,0,1.1.26l1.05.22,1,.1a3.87,3.87,0,0,0,.94.07,9,9,0,0,0,1.8-.09c.29,0,.59-.05.89-.1l.92-.26a12.64,12.64,0,0,0,3.74-1.62l.93-.57.91-.7a20,20,0,0,0,1.82-1.57,43.09,43.09,0,0,0,5.43-6.66,72.6,72.6,0,0,0,4.51-8.11c1-2.06,1.9-4.21,2.81-6.29.44-1.05.83-2.13,1.25-3.19s.85-2.1,1.22-3.19c.76-2.17,1.6-4.28,2.32-6.51s1.56-4.42,2.3-6.73c.38-1.23.95-2.31,1.27-2.38s.27.88-.1,2.12c-2.75,9.74-5.86,19.26-10.24,27.93a56.74,56.74,0,0,1-7.74,11.76,28.39,28.39,0,0,1-4.83,4.3,16.31,16.31,0,0,1-5.28,2.47,12.8,12.8,0,0,1-4.49.43.59.59,0,0,1,0,.17.65.65,0,0,1-.42.55,7,7,0,0,0,1.35.09,7.6,7.6,0,0,0,1.35,0c.44,0,.89-.08,1.35-.11s.91-.22,1.38-.31c5-1.94,9.28-6.43,13.62-12a101.7,101.7,0,0,0,7.91-11.88A161.79,161.79,0,0,0,417,99.22a1.17,1.17,0,0,1,.26-.54c.08-.07.09.08,0,.32-.54,2.07-1,4.19-1.7,6.26s-1.27,4.2-2,6.26c.45-.57.85-.86,1.09-.71s.28.74.13,1.58l1.17-2.79c.22-.58.49-1,.62-.94s.07.57-.14,1.13c-.79,1.9-1.55,3.82-2.37,5.7s-1.67,3.75-2.65,5.54a68.49,68.49,0,0,1-7.28,12.61,3.09,3.09,0,0,1,1.47-.66h0l1.32-1.85a124,124,0,0,0,8.77-19.22c2.47-6.7,4.65-13.59,6.68-20.57.08-.28.19-.49.25-.48s0,.23,0,.48l-1.86,6.31-2,6.24v0c.09-.15.17-.16.15,0a1.68,1.68,0,0,1-.22.64c-.11.18-.17.14-.15,0a163.6,163.6,0,0,1-9,22.27,140,140,0,0,0,9-20.17c.2-.78.4-1.56.6-2.36a1.22,1.22,0,0,1,.26-.55c.07,0,.08.13,0,.36s-.1.44-.16.66c.47-1.32,1-2.28,1.34-2.16s.19,1.42-.3,2.8c-.62,1.86-1.22,3.73-1.88,5.57s-1.37,3.67-2.12,5.48l-.45,1.19-.36,1.24c1.33-2.75,2.47-5.58,3.63-8.4s2.17-5.68,3.1-8.56c.15-.5.36-.9.47-.88s.09.46-.06,1a151.67,151.67,0,0,1-4.8,15.48,89.24,89.24,0,0,1-7.07,15,55.28,55.28,0,0,1-5.6,10.24l1.05-1.12c4.39-4.87,6.92-10.15,9.07-15.31s3.68-10.43,5.48-15.91c.07-.28.2-.49.27-.5s.06.19,0,.47c-1.71,5.37-3.06,10.41-5.27,15.72a94.25,94.25,0,0,1-6.33,12.53,65.5,65.5,0,0,0,6.65-12c.81-2.06,1.72-4.08,2.42-6.16.37-1,.75-2.06,1.12-3.1s.69-2.08,1-3.13a3.38,3.38,0,0,1,.42-.93s0-.11,0-.23c.24-1.08.51-2.26.79-3.45a1.35,1.35,0,0,1,.26-.59C422.21,108.89,422.22,109.05,422.17,109.3ZM309.81,144l-.14-.06.4,0,.84.5Zm-3.33,5.71h0l-.49-.26Zm57.38-16.84a107.37,107.37,0,0,0-15.51-3.25c1.3,0,2.6,0,3.9.19A61.68,61.68,0,0,1,363.86,132.83Zm-59.25,10.45a7.73,7.73,0,0,1,2,.6,3.12,3.12,0,0,1,.91-.66,20.68,20.68,0,0,1,2.81-1.18c-.26-.2,0-.28.06-.37l.29-.24c-1,.31-2.09.61-3.16.94S305.58,143.08,304.61,143.28Zm-5.49,5-.14,0-.12-.49Zm.22.81.16,0C299.56,149.2,299.48,149.18,299.34,149.07Zm1.45-.32a1.51,1.51,0,0,0-.3-.09Zm8.68,10.4-1-2.14.87,2.09Z"/><path d="M4.24,225.64l.43.36a1.34,1.34,0,0,1-1.1,0,11.15,11.15,0,0,0,7.13,1.77A15.83,15.83,0,0,0,17.17,226c1.31.25,2.47-.29,2.59-1.22s-.85-1.88-2.18-2.18a4,4,0,0,1-.85-.47,26.08,26.08,0,0,0-6.94-4.42c.53.37,1.06.72,1.57,1.11A8.43,8.43,0,0,0,9,218l.31.6c-2.67-1.7-6.31-1.81-8-.07s-.87,4.69,1.78,6.35Z"/><path d="M9.22,232c-1.52-.74-3-1.55-4.49-2.41l-.31-.38.18,1.61,0-.1c1.3-1.25,3.53-1.61,5.59-1.82l.73-.16a1.12,1.12,0,0,0,.64-.75c.15-.71-.5-1.49-1.48-1.7L9,226c-2.77-1.13-7.15-1.7-8.51.93-.3.61,0,1.45.17,2.21A2.52,2.52,0,0,0,3,231.4c1.36.16,2.47-.56,2.52-1.61l.7.27-.52.34c.34-.89,1.56-1,2.47-1.41l1.36-.15-.86-2.46-.71.25a2.86,2.86,0,0,1,.16.28,25,25,0,0,1-4.09,1.41l-1.84.75a1,1,0,0,0,.19,1.63l.86.6L2.87,231c1.94.69,4,1.14,5.87,1.81a.65.65,0,0,0,.8-.18C9.67,232.36,9.53,232.08,9.22,232Z"/><path d="M2.51,231.88a1.76,1.76,0,0,0-1.07-.42l-.18.19.63.47C2.34,232.46,2.55,232.24,2.51,231.88Z"/><path d="M1.26,231.65l-.26-.2.18.25.05,0Z"/><path d="M114.48,223.56c-1-.53-2-1.06-2.9-1.61-.45-.28-1-.55-1.37-.82l-.89-.83-.45-.42-.63-.42-1.29-.85c-.34-.28-.56-.56-.85-.84l-.41-.43a5.78,5.78,0,0,0-.56-.44l-1.19-.88a7.2,7.2,0,0,1-.81-.88,13.92,13.92,0,0,0-2-1.84,22.06,22.06,0,0,1-1.39-1.87c-.23-.33-.4-.63-.69-1l-1-1c-.07-.09-.17-.17-.23-.26l-.14-.27-.29-.52c-.2-.35-.39-.71-.56-1.09a7,7,0,0,0-.63-1.14,12.19,12.19,0,0,1-.78-1.25L95,203.61l-.36-1.35-.28-1.45c-.16-.55-.38-1.1-.49-1.66s0-1.09,0-1.69a11.15,11.15,0,0,0,0-1.85c0-.32,0-.65,0-1l.26-.94a18.33,18.33,0,0,1,.63-1.85c.23-.62.34-1.27.52-1.91a1,1,0,0,1,.19-.44l.26-.42.51-.83c.31-.56.54-1.14.81-1.7a3.29,3.29,0,0,1,.21-.42l.32-.36.63-.71c.94-.92,1.39-2,2.27-2.86a32.59,32.59,0,0,0,2.84-2.4l1.29-1.24c.45-.39.93-.77,1.39-1.15s.92-.78,1.4-1.15l1.55-1a68.67,68.67,0,0,1,6.23-3.62l3.06-1.54,1.45-.73.73-.37.37-.19c.14,0,.31,0,.47-.06l1.9-.22,1-.11.47,0,.36-.17,1.41-.64.71-.32a.87.87,0,0,1,.37-.14H130a5,5,0,0,0,1.86-.18l1.64-.48.82-.24c.11-.07.34,0,.52,0l.56,0,2.24.17,1.12.08,1-.14,2.07-.27c.36,0,.66-.11,1.06-.12l1.18-.05a46,46,0,0,1,4.91-.1l2.62.08c.87,0,1.76-.08,2.64-.1a12.37,12.37,0,0,0,3.48-.49c0-.19-1.51-.26-3.27-.14-.89,0-1.79.12-2.68.14l-2.65-.07c-.86,0-1.8-.08-2.61-.05l-2.38.12-1.19.06a9.25,9.25,0,0,0-1.13.09l-2.08.29a16.23,16.23,0,0,1-4.4,0l-1.13-.08a.85.85,0,0,0-.47,0l-.41.13-1.64.51-.82.25c-.31,0-.66,0-1,0l-2,0a7.63,7.63,0,0,0-1,0l-.71.33-1.4.67a2.73,2.73,0,0,1-.74.3l-1,.12-1.91.22a4.1,4.1,0,0,0-.91.16l-.73.38-1.45.76-3,1.56c-1,.5-2.07,1.14-3.11,1.72s-2.07,1.23-3.1,1.91a21.31,21.31,0,0,0-3,2.13l-1.39,1.16c-.46.39-.87.82-1.3,1.23s-.83.84-1.32,1.24l-1.47,1.2-.37.3-.18.15-.13.18-.52.74a14.31,14.31,0,0,1-1.1,1.46L96.85,186l-.77,1.71c-.29.57-.67,1.12-1,1.68a1,1,0,0,0-.18.45l-.12.48-.23,1a12.39,12.39,0,0,0-1,3.76l0,1a8.84,8.84,0,0,1,0,.91,12.58,12.58,0,0,0,0,1.72,55.45,55.45,0,0,0,1.39,5.82,3.83,3.83,0,0,0,.67,1.25l.41.62c.1.19.17.37.26.56.34.76.72,1.45,1.09,2.15a28.27,28.27,0,0,1,3,3.95,2.6,2.6,0,0,0,.47.47l.55.47a5.6,5.6,0,0,1,1,.92l.73.88c.08.15.35.3.53.45l.59.44a10.5,10.5,0,0,1,1.85,1.73c.62.57,1.75,1.14,2.36,1.71.88,1.12,3.06,2.23,5,3.31a11.87,11.87,0,0,0,2.54,1.1C116.11,224.5,115.47,224.09,114.48,223.56Z"/><path d="M133.83,51.82c-.19.89,0,.9.35,0a15.05,15.05,0,0,0,.55-1.43,14.73,14.73,0,0,0,.5-1.51c.19-.73,0-.77-.35-.05a15.63,15.63,0,0,0-.65,1.5A11.79,11.79,0,0,0,133.83,51.82Z"/><path d="M143.14,61.29a35.58,35.58,0,0,0,1.38,11.6,11.5,11.5,0,0,1,.35,2c.18-.29.58.46,1.06,1.92,2.38,7.21,6.17,14.38,10.62,21.65.54.91,1.11,1.82,1.69,2.73L160,103.9l1.78,2.78.91,1.4.89,1.35c1.11,1.67,2.37,3.47,3.66,5.29l3.92,5.58a267.63,267.63,0,0,1,15.67,24.36,97.71,97.71,0,0,1,6.76,14.69,50.32,50.32,0,0,1,2.39,9.3,31.38,31.38,0,0,1-.43,12.8,10.65,10.65,0,0,1-.62,3.79,14.62,14.62,0,0,1-1,2.63,18.13,18.13,0,0,1-1.74,3,25.29,25.29,0,0,1-2.58,3.15,36.31,36.31,0,0,1-3.31,2.84,39.51,39.51,0,0,1-3.69,2.2l-.24.13-.17.08-.32.13-.65.28-1.33.54c-.89.36-1.81.71-2.75,1s-1.74.43-2.62.64l-1.32.27-.66.14-.29.06h-.14l-1.08.07a23.53,23.53,0,0,1-6.65-.6c-2.23-.47-4.46-1.1-6.76-1.51a24.37,24.37,0,0,0-7-.36,26.83,26.83,0,0,0-6.9,1.9c-.28.29-.59.57-.89.9s-.65.63-1,1a13.24,13.24,0,0,0-2,2.47,5.11,5.11,0,0,0-.22,2.89A6.79,6.79,0,0,0,141,212a18.78,18.78,0,0,0,5,4,49.26,49.26,0,0,0,11.14,4.61c-.19-.13-.15-.2.16-.2a33.12,33.12,0,0,1,4.35.94l2.49.6a43.41,43.41,0,0,1-6.33-2,5.06,5.06,0,0,1-.72-.33,25.93,25.93,0,0,1-6.75-3.87,6.94,6.94,0,0,1-2.49-3.61,4.3,4.3,0,0,1,1.48-3.83,14.18,14.18,0,0,1,3.37-2.38c.59-.35,1.24-.58,1.86-.87.32-.14.65-.21,1-.32a5,5,0,0,1,1-.26c2.7-.62,5.45-.21,8.22.19a25.08,25.08,0,0,0,4.28.32,17,17,0,0,0,2.22-.2l1.12-.25.28-.07.79-.21,1.65-.45,1.64-.44c.28-.09.53-.13.83-.25l.91-.34c1.2-.47,2.4-1,3.59-1.46l.89-.38,1.39-.73c.93-.52,1.84-1.06,2.73-1.64a34.12,34.12,0,0,0,2.74-2.16c.44-.38.88-.78,1.31-1.17s.82-.9,1.23-1.36a33.75,33.75,0,0,0,2.24-2.88c.63-1,1.23-2.06,1.78-3.11a22.61,22.61,0,0,0,1.31-3.12,23.71,23.71,0,0,0,.91-3.07c.2-1,.38-1.92.53-2.89a11.84,11.84,0,0,0,.15-1.35l.09-1.29.06-1.29v-.65l0-.57q0-1.14-.12-2.28c0-.37-.05-.78-.09-1.11l-.14-1-.31-2c-.24-1.28-.53-2.45-.82-3.66s-.64-2.21-1-3.31l-1.09-3A95.75,95.75,0,0,0,191,146.59a189.15,189.15,0,0,0-11.09-17.85c-3.8-5.52-7.73-10.81-11.39-15.84a10.12,10.12,0,0,1-1.44-2.35c-.12-.46.09-.49.62.2,4.8,6,10,12.27,15,18.78,2.52,3.27,5,6.64,7.42,10.24a115.37,115.37,0,0,1,7.08,11.8,72,72,0,0,1,3.24,7.17c.26.62.49,1.38.73,2.07s.49,1.38.7,2.15a47.28,47.28,0,0,1,1.18,4.94l.24,1.35a13.7,13.7,0,0,1,.2,1.43c.1,1,.19,2.07.25,3.12a16.07,16.07,0,0,1,0,1.72l-.06,1.8c0,.62,0,1.17-.13,1.85s-.2,1.38-.31,2.06-.25,1.38-.39,2.06-.4,1.5-.63,2.24-.5,1.51-.78,2.25c-.15.38-.28.75-.44,1.12l-.57,1.18a33,33,0,0,1-2.67,4.53,38.32,38.32,0,0,1-3.46,4.14,47.61,47.61,0,0,1-3.95,3.39,42.69,42.69,0,0,1-4,2.52l-1,.56a3.14,3.14,0,0,1-.39.19l-.31.14-1.24.56-2.52,1.08a33.93,33.93,0,0,1-4.75,1.59l-2.17.64-.49.19a10.13,10.13,0,0,1-3.72.64,19.37,19.37,0,0,0-3.81.17,5.76,5.76,0,0,0-3,1.65,4.55,4.55,0,0,0-1.56,3,2.94,2.94,0,0,0,.89,2,8,8,0,0,0,1.84,1.41,23.79,23.79,0,0,0,7.43,2.57c1.08.19,2.05.39,2.9.62.43.11.83.23,1.21.36l.27.09.14.05.9.53c1.21.72,2.34,1.35,3.72,2.26a85.59,85.59,0,0,1,15.58,12.63,53,53,0,0,1,3.48,4.13l.41.54a2.57,2.57,0,0,1,.24.35l.26.4,1,1.62a28.22,28.22,0,0,1,1.89,3.42,19,19,0,0,1,1.22,14.4c-.22.56-.42,1.13-.68,1.67s-.58,1-.88,1.57a16.48,16.48,0,0,1-2.33,2.74,8.46,8.46,0,0,1-1.35,1.18l-1.45,1.06c-.53.29-1.07.58-1.62.86l-.82.4-.88.32c-.59.2-1.18.4-1.78.58s-1.24.28-1.86.41-1.27.22-1.91.31-1.3.11-2,.14-1.32.06-2,.06l-1.63-.06-1.61-.05-.41,0-.28,0-.53-.05-17-1.38c-11.33-.91-22.65-1.87-34.11-2.53-5.74-.37-11.48-.72-17.3-.95s-11.66-.49-17.57-.54A422.75,422.75,0,0,0,48,269.57l-2.85.26-1.42.14-.29,0-.9.16-1.79.3-3.57.57q-3.55.52-7,1.18c-2.33.41-4.66.83-7,1.28-3.47,1.06-6.61-.22-7.12-3.08A5.55,5.55,0,0,1,18,265.54l-.87.09-1.37-.15a4.61,4.61,0,0,1-3.14-1.66l-1-1.11c-1.33-2.19-3.49-3.95-4.67-6.43l.19-1L6.85,255a4.46,4.46,0,0,1-1.73-2.52l0-1.2a10.36,10.36,0,0,1,1.1-3.93,3.65,3.65,0,0,1,.18-1.47A5,5,0,0,1,5.83,242a.72.72,0,0,1,.08-1.17,1.08,1.08,0,0,1,.5-.18h0a9.36,9.36,0,0,0-.57-.75l-.58-.19c-1-.22-1-.22-1.83-.43a5.18,5.18,0,0,1-1.23-1c-.93-2.2-.94-2.21-.87-3.14a2.29,2.29,0,0,1,.14-.27l-.9-.47A2.59,2.59,0,0,1,.24,234c-.06-.51-.06-.51-.19-.7a1.81,1.81,0,0,1,0-.39c.33-.54.33-.54.33-.7a1.49,1.49,0,0,1,.19-.27l.66-.22,1,1.37.18-.44.25.61-.16-.55.49.36-.56-.52a4.88,4.88,0,0,0,1.55.27,2.06,2.06,0,0,0,.89,0,2,2,0,0,1-.05-.29l2.34.57a2.93,2.93,0,0,1,.28.36.54.54,0,0,1,.55-.16l.6.12.13-.07v0l.49-.22.11,0h0c.72-.31,1.44-.63,2.17-.93a8.83,8.83,0,0,1,1,.34l-.29-.26c-.19-.18,0-.62-.13-.67A53,53,0,0,0,3.93,229a1,1,0,0,1-1.06-.7c-.09-.4.25-.73.75-.73a18.83,18.83,0,0,1,8.94-.91,34.47,34.47,0,0,1,9,2.52c1.48.36,2.93.79,4.4,1.14l-.2-.23,1.13.47.12,0-.85-.87-.59-.3a86.33,86.33,0,0,1-9.94-3.55c-1.82-.65-3.4-1.65-5.16-2.47-.45-.1-.77-.43-.73-.77s.46-.5.9-.41a41.68,41.68,0,0,1,8.93,1.41,23.72,23.72,0,0,1,7.91,3.63,6.76,6.76,0,0,1,2.81,1.08l.05,0-.62-.71c.77.27,1.16.83,1.85,1.13-.07-.27-.16-.58-.23-.86,1.88.52,3.84.88,5.73,1.37a26.69,26.69,0,0,1,5.46,1.8l.39.13c.75-.15,1.51-.3,2.31-.38l.6,0H46l1,.14,1.91.29q3.84.57,7.93,1.26l-5.5-1.08-2.75-.54L46,230.31l5.8.83,6,.91c4,.72,8.06,1.41,12.26,2.24,5.65,1.22,11.49,2.33,17.17,3.68s11.27,2.57,16.51,3.85c10.47,2.51,19.54,4.89,25.34,6.56,10.77,2.07,21.52,4.07,32.27,5.93,5.37.89,10.75,1.83,16.12,2.61l4,.62,2,.29c.42,0,.84.06,1.26.11a2.86,2.86,0,0,0,.44,0h.37a6.15,6.15,0,0,0,.73-.06,4.4,4.4,0,0,0,1.38-.41,2.4,2.4,0,0,0,1.41-2.33,5.13,5.13,0,0,0-1-2.67l-.24-.34a5.13,5.13,0,0,0-.35-.43l-1.09-1.2-1.2-1.17c-.4-.4-.87-.77-1.3-1.14a43.07,43.07,0,0,0-5.87-4.08,58.17,58.17,0,0,0-6.59-3.35,14.4,14.4,0,0,0-1.87-.69l-2-.64L161,237.36c-.3-.09-.56-.19-.89-.27l-1.1-.17-2.21-.35-4.43-.7c-1.42-.19-3.12-.56-4.71-.85l-4.85-.92-2.42-.47-2.13-.61L134,231.78l-2.13-.62-1.07-.31c-.36-.1-.6-.2-.91-.31l-3.53-1.23-2.75-1-1.21-.46a5.49,5.49,0,0,1-.71-.38c-.8-.48-1.28-.83-1.3-1s.61.07,1.44.39c.42.16.91.36,1.45.59a9.14,9.14,0,0,0,1.12.41l1.38.47,5,1.71,1.26.43,1.5.43,3,.85,3,.86a26.13,26.13,0,0,0,3.11.78l6.74,1.29c2.32.47,4.3.76,6.36,1.1l3.08.49,1.53.25a2.81,2.81,0,0,1,.68.17l.6.19,8,2.59c.47.16,1,.31,1.41.48l1.23.56c.82.38,1.67.73,2.45,1.15s1.61.81,2.38,1.25l2.31,1.35a37.27,37.27,0,0,1,7.91,6.43l.78.87.4.54a8.63,8.63,0,0,1,.64,1.07,5,5,0,0,1,.63,2.35,2.8,2.8,0,0,1-1.08,2.14,4.79,4.79,0,0,1-2.29.87,7.49,7.49,0,0,1-1.25.07,1.42,1.42,0,0,1-.35,0l-.48-.05-1-.08-5.86-.84c-3.91-.56-7.83-1.17-11.74-1.8,3.27.56,6.54,1.14,9.8,1.64l4.91.77,2.46.38c.47.08.67.07,1,.11l.83.09a1.73,1.73,0,0,0,.35,0h.84a10.18,10.18,0,0,0,1.11-.12,4.61,4.61,0,0,0,2.07-.85,3,3,0,0,0,1.12-1.9,4.53,4.53,0,0,0-.27-2.24,9.32,9.32,0,0,0-1.09-2.06c-.13-.18-.22-.32-.38-.53l-.69-.79a20.74,20.74,0,0,0-1.45-1.54,42.34,42.34,0,0,0-7.05-5.51A59.64,59.64,0,0,0,171,239c-1.71-.62-2.78-1-5.83-2.06l-1.95-.66-1-.33a5.07,5.07,0,0,0-1.05-.3l-4.88-.9-2.5-.45c-.84-.15-1.79-.36-2.68-.54l-5.45-1.12-1.37-.28c-.45-.1-.82-.23-1.24-.34l-2.43-.72-4.88-1.43c-1.48-.46-2.74-.93-4.11-1.4l-4-1.4-5.28-2.52c-2.12-.94-4.17-1.88-6.07-2.88a12.43,12.43,0,0,1-2.35-1.51c-.69-.51-1.78-1-2.53-1.55l-1-.79c-.17-.13-.3-.26-.5-.4l-.62-.41-1.25-.82-.88-.83-.44-.41-.58-.44-1.17-.88c-.54-.59-1.11-1.16-1.62-1.78-.28-.31-.5-.6-.82-.93l-1-1-.26-.24-.18-.26-.35-.5c-.24-.33-.48-.67-.7-1s-.4-.69-.71-1.09l-.9-1.18L98,204.39c-.18-.42-.32-.87-.49-1.29s-.27-.93-.41-1.38-.36-1-.53-1.54a2.21,2.21,0,0,1-.14-.8l-.06-.81v-1.7l0-.94,0-.46a2.24,2.24,0,0,1,.09-.45,13.84,13.84,0,0,1,.5-1.78,15.33,15.33,0,0,0,.56-1.78c.09-.29.16-.6.26-.89l.48-.79.48-.79.41-.79a4.8,4.8,0,0,1,.94-1.5c.4-.45.82-.89,1.21-1.34l1-1.35a5.26,5.26,0,0,1,1.28-1.2c.47-.37,1-.74,1.4-1.11.86-.75,1.67-1.55,2.58-2.26l1.36-1.06a10.87,10.87,0,0,1,1.41-1l3-1.84,3-1.6c1-.54,2-.95,3-1.43l2.92-1.32.72-.33a6,6,0,0,1,.88-.12l1.82-.2.91-.09a4.45,4.45,0,0,0,.73-.26l1.41-.55.7-.28c.28,0,.62,0,.93,0h1.9c.31,0,.64,0,.95,0l.8-.21,1.6-.41.4-.11a1.06,1.06,0,0,1,.45-.05l1.07.08,2.14.14a8.14,8.14,0,0,0,2-.12l2-.25c.32,0,.69-.07,1.08-.09l1.13-.06,2.27-.12c1.38,0,2.85,0,4.26,0a17.28,17.28,0,0,0,2.15-.1l2.15-.16a42.47,42.47,0,0,1,4.4-.12h2.22c.25,0,.22-.05.3-.08l.18-.13.35-.26,1.33-.95a6.51,6.51,0,0,1,.91-.53l.12-.06,0,0h0c1.35,2.89-3-6.48,3,6.48v0l0,.09c.1.25.21.5.33.74a6.15,6.15,0,0,0,.44.73c.16.24.38.52.4.58a3.19,3.19,0,0,0,.56.7l.1.09h0l0,0,0,0,0,0-.07-.05-.28-.18-.26-.12-.06,0-.16-.08-.32-.15a5.47,5.47,0,0,0-.64-.23l-.31-.08a3.15,3.15,0,0,1-.38-.1,10,10,0,0,0-2-.45l-.49,0-.7-.12c-.47-.07-.93-.12-1.39-.15-1-.08-1.69,0-3-.07h-1s0-.17-.06-.25a31.81,31.81,0,0,0-1.73-5.33c-.94-2.36-2.21-5-3.61-7.68s-3-5.49-4.66-8.35c-3.36-5.74-7.13-11.64-11.2-18.2-1.43-2.34-2.88-4.71-4.43-7.41l-.57-1-.49-.89-1-1.79-2-3.64c-2.59-4.91-5.14-10.06-7.42-15.59a108.19,108.19,0,0,1-5.69-17.83A74.8,74.8,0,0,1,116.07,65c.16-1.78.34-3.56.56-5.34s.63-3.55,1-5.31A64,64,0,0,1,121,44.17a70.23,70.23,0,0,1,10.56-17.1,83.61,83.61,0,0,1,13.62-12.93A110,110,0,0,1,160,4.72c5.33-2.9,10.41-4.78,11.25-4.72s-2.71,2.08-7.94,4.92c-2.54,1.4-5.09,2.9-7.61,4.53s-5,3.35-7.5,5.26A87.54,87.54,0,0,0,141,20.89a83.58,83.58,0,0,0-6.67,7.21,68,68,0,0,0-10.59,17.75,58.58,58.58,0,0,0-3.07,10.53,53.5,53.5,0,0,0-.82,5.45l-.25,2.73c-.09.91,0,1.8-.08,2.71a75.42,75.42,0,0,0,2.67,20.58,114.41,114.41,0,0,0,6.51,17.85c2.51,5.54,5.23,10.72,7.93,15.67l1,1.85,1.16,2,2.27,3.81c1.48,2.45,2.93,4.8,4.37,7.11,2.86,4.62,5.64,9.11,8.21,13.56s4.94,8.84,6.88,13a61,61,0,0,1,2.39,5.94A21.26,21.26,0,0,1,164,173a2.83,2.83,0,0,0,.05.42c0,.05,0,.05,0,0h.26a17.71,17.71,0,0,1,2.15.25,14.87,14.87,0,0,1,1.59.22c.26.06.53.12.79.2l.4.13a1.22,1.22,0,0,0,.27.06,5.5,5.5,0,0,1,1,.32l.48.23.19.08a2.24,2.24,0,0,1,.43.26c.06.05,0,0,0,0l0,0,0,0a0,0,0,0,1,0,0l0,0-.14-.13a3.53,3.53,0,0,1-.44-.53c-.07-.11-.07-.14-.19-.31s-.27-.36-.39-.55a7.47,7.47,0,0,1-.58-1.12l-.11-.29c-3.28-7-.93-1.94-1.67-3.51h0l0,0-.23.1-.45.21c-.31.15-.59.3-.91.49l-1.24.72-.61.35-.16.09s-.24,0-.35,0h-.78l-3.15,0c-2.08,0-4.08.3-6.11.31s-4.09-.13-5.85,0l-1.38,0c-.47,0-.94,0-1.33,0l-2.48.2a12.79,12.79,0,0,1-2.6-.11l-1.32-.12-.66-.06a1.77,1.77,0,0,0-.54.07,15.14,15.14,0,0,1-4.38.44l-1.21,0a2.36,2.36,0,0,0-1.09.09l-1.87.55a7.84,7.84,0,0,1-2.18.31l-1.17.1-.59,0-.29,0-.24.09c-1.3.49-2.53.92-3.89,1.49l-2,.8c-.67.29-1.34.63-2,.95s-1.35.61-2,1l-2,1.13a31.44,31.44,0,0,0-3.78,2.52c-1.22.92-2.24,1.91-3.55,2.85s-2.14,2.12-3.25,3.25a7.4,7.4,0,0,0-1.47,1.84l-.56,1-.65,1a6,6,0,0,0-.78,1.94c-.2.67-.47,1.32-.67,2-.5,1.31-.17,2.83-.22,4.06a13.64,13.64,0,0,0,.19,1.84c.21.58.47,1.23.64,1.74a17.49,17.49,0,0,0,1.21,3,16.37,16.37,0,0,0,1.83,2.64,24.68,24.68,0,0,0,1.76,2.31l1.21,1.11c.38.36.66.69,1,1s.65.67,1,1a6.85,6.85,0,0,0,1.11,1,.15.15,0,0,1,.17-.1,4.41,4.41,0,0,1,1.17.41l.9.43c.34.17.7.36,1,.56a26.19,26.19,0,0,1-2.81-2.15c-.4-.36-.79-.73-1.17-1.12s-.75-.75-1.25-1.18a14.06,14.06,0,0,1-2.34-2.54c-.34-.46-.64-.88-1.08-1.4l-.61-.74a5.59,5.59,0,0,1-.46-.77,18.83,18.83,0,0,1-1.47-3.34l-.38-1a3,3,0,0,1-.28-1l-.14-1,0-1.08L99,197a3,3,0,0,1,.06-1.15l.26-1.12.39-1.1c.29-.73.45-1.5.8-2.19s.87-1.31,1.24-1.94l.38-.68a2.48,2.48,0,0,1,.43-.64l1.07-1.16c.72-.75,1.26-1.56,2-2.25s1.69-1.28,2.43-1.92,1.51-1.31,2.35-1.88l1.22-.88a9.92,9.92,0,0,1,1.26-.85l2.65-1.53c.89-.52,1.8-.89,2.7-1.34.45-.21.9-.44,1.35-.64l1.35-.54c.9-.36,1.81-.75,2.67-1l1.31-.48a3.57,3.57,0,0,1,1.4-.36c1-.1,2.14-.15,3.11-.3l2.56-.74c1,0,2.16,0,3.24,0h.41l.36-.06.7-.13,1.42-.25a3.41,3.41,0,0,1,.74-.09l.91.08,1.8.15.91.08a6.11,6.11,0,0,0,.86,0l1.71-.13c1.08-.11,2.4-.12,3.67-.16.64,0,1.24,0,1.93,0l2.08,0,2.09,0,2.11-.15c1.41-.1,2.82-.2,4.3-.2l2.2,0h1l.06,0,.45-.25,1.77-1c.45-.24.9-.45,1.36-.65l.17-.07.09,0,1.32,2.83v.07l0,.11c.11.27.24.54.38.81.28.52.79,1.15.85,1.3a4.73,4.73,0,0,0,.31.38c.1.12.32.31.26.26s.06.08.09.1a1.89,1.89,0,0,0-.61-.34l-.27-.14-.36-.16a6.51,6.51,0,0,0-.71-.23l-.35-.08a5.58,5.58,0,0,0-.58-.18,9.58,9.58,0,0,0-1.13-.25l-.57-.08-.28,0h-.14l-.19,0-.79-.12-.64-.07c0,.08,0-.25,0-.46s-.05-.4-.06-.6,0-.19,0-.31l-.08-.39-.13-.81-.21-.94-.11-.47-.15-.51-.29-1-.71-2.22a129.57,129.57,0,0,0-5.7-13.27c-2.2-4.51-4.57-9-7-13.57s-4.93-9.1-7.46-14l-1-1.88-1-1.94-1.7-3.62c-1.14-2.45-2.27-4.92-3.37-7.45-1.56-3.15-3.12-6.32-4.53-9.67-.73-1.64-1.37-3.39-2.05-5.08s-1.28-3.47-1.82-5.29A85,85,0,0,1,125,78.78l-.41-3-.2-1.47-.11-1.51-.19-3V66.77a56.1,56.1,0,0,1,5.71-23.86,70.4,70.4,0,0,1,13.67-18.83,12.31,12.31,0,0,1,2.19-1.89c.4-.21,0,.29-.85,1.16a75.18,75.18,0,0,0-9.89,12.33,61.25,61.25,0,0,0-7,15.08,56.38,56.38,0,0,0-2.31,17A68.34,68.34,0,0,0,128,84.2a17.47,17.47,0,0,1,0-4.08c.13-1,.36-1.43.71-1.36.75.12,1.72,2.6,3.14,6.2a66.86,66.86,0,0,1-2.25-14.07,20.19,20.19,0,0,1,.11-3.79c.11-.95.26-1.51.43-1.46s.32.64.43,1.58.13,2.23.25,3.61c.52,9.68,3.43,18.76,7,27.17,1.78,4.22,3.75,8.31,5.81,12.28,1,2,2.06,4,3.11,5.91l.79,1.46.84,1.52,1.7,2.94c5.66,9.09,11.4,17.69,16.38,26.62a119.65,119.65,0,0,1,6.61,13.47,54.25,54.25,0,0,1,2.17,6.7,18.62,18.62,0,0,1,.59,6c.14-.48.37-.9.51-1.38s.28-.93.43-1.35a8.64,8.64,0,0,1,.8-2.1h0a47.35,47.35,0,0,0-2.54-8.67,150.67,150.67,0,0,0-10.38-19.16c-3.88-6.28-8-12.45-12.13-18.84-2.06-3.16-4.11-6.61-6-9.87s-3.73-6.71-5.49-10.17-3.38-7.06-4.86-10.75a92.8,92.8,0,0,1-3.66-11.5,65.48,65.48,0,0,1-1.7-12.26,52.7,52.7,0,0,1,1.08-12.56A50.53,50.53,0,0,1,136,44.39a62,62,0,0,1,6.55-10.47A85.16,85.16,0,0,1,159.93,17.3,202.51,202.51,0,0,1,179.68,4.78a9,9,0,0,1,2-1A6.6,6.6,0,0,1,180,4.92c-8,4.66-16.12,9.53-23.58,15.55a74.17,74.17,0,0,0-19,22l0-.07c.46-.66.67-.72.33.09a28.71,28.71,0,0,1-1.41,2.76c-.5.79-.6.65-.35-.06a50.64,50.64,0,0,0-4.58,27.38,82.49,82.49,0,0,0,7.71,25.82c1.85,4,3.86,7.86,5.95,11.63,1.06,1.88,2.11,3.75,3.19,5.59.52.92,1.09,1.87,1.66,2.81l1.71,2.76c4.61,7.24,9.32,14.15,13.68,21.24-3.87-6.69-8.05-13.23-12.17-20-1-1.68-2.05-3.37-3.05-5.13s-1.92-3.45-2.87-5.19c-1.89-3.46-3.71-7-5.43-10.6a119.65,119.65,0,0,1-4.66-11.1c-.71-1.89-1.29-3.84-1.89-5.78s-1.05-3.94-1.41-6a52.42,52.42,0,0,1,.65-24.58,49.5,49.5,0,0,1,3.5-10.28,10.28,10.28,0,0,1,1.45-2.28c.24-.18,0,.5-.47,1.41s-.86,1.81-1.25,2.74c2.74-5.61,6.14-9,6.57-8.57.4.7-2.22,5.11-4.67,10.73a44.87,44.87,0,0,0-3.27,11.82A47.24,47.24,0,0,0,136.34,72a68.91,68.91,0,0,0,2.54,12,102.78,102.78,0,0,0,4.37,11.44c.75,1.6,1.55,3.18,2.38,4.74s1.84,3.06,2.78,4.57a137.23,137.23,0,0,1-7.52-17.39A67.29,67.29,0,0,1,137.23,69a46,46,0,0,1,2.91-18.1,57.72,57.72,0,0,1,9.36-15.85c1.32-1.66,2.67-2.89,2.86-2.77s-.79,1.52-2.08,3.18c-6.46,8.57-10.82,18.71-10.7,29.08A51.4,51.4,0,0,0,141.93,80a94.67,94.67,0,0,0,6,14.89c2.4,4.87,5.13,9.66,8,14.45,1.45,2.45,2.81,4.7,4.32,7l4.62,7c3.11,4.73,6.24,9.53,9.23,14.49a161.77,161.77,0,0,1,8.42,15.53,69.58,69.58,0,0,1,5.25,11.29,37.48,37.48,0,0,1,1.71,6.85,24.1,24.1,0,0,1-.27,8.6,18.77,18.77,0,0,1-5.33,9.29,19.57,19.57,0,0,1-2.08,1.74c-.7.48-1.43.94-2.17,1.38a8.89,8.89,0,0,1-.92.49l-.83.4-1.67.79c-.55.25-1.13.55-1.68.74l-1.61.55-1.63.55-.41.14-.2.07-.12,0-.48.14c-.64.17-1.26.39-1.89.52l-1.88.33,2,0c.67,0,1.33-.17,2-.25a20.71,20.71,0,0,0,2.34-.53c.92-.25,1.8-.42,2.75-.73s1.91-.72,2.86-1.1l1.41-.57.19-.07.24-.13.49-.26,1-.53a19.92,19.92,0,0,0,1.9-1.2c.63-.48,1.25-1,1.85-1.51a13.28,13.28,0,0,0,1.69-1.74,22.54,22.54,0,0,0,1.51-1.94,21.21,21.21,0,0,0,2.15-4.21c.25-.7.52-1.43.71-2.13s.29-1.34.41-2l.18-1c0-.32.06-.62.08-.93l.11-1.86c0-1.21-.06-2.27-.11-3.41s-.27-2.07-.43-3.09l-.61-2.84a62.51,62.51,0,0,0-3.47-9.81c-1.32-3-2.76-5.81-4.25-8.5s-3.05-5.27-4.63-7.79c-3.17-5-6.47-9.8-9.77-14.45s-6.65-9.23-9.54-13.61c-3.05-4.7-6-9.37-8.65-14.16a98.39,98.39,0,0,1-6.85-14.79,53.89,53.89,0,0,1-3.14-15.76,5.18,5.18,0,0,1,.05-1.4,1.5,1.5,0,0,1,.2-.69c.15-.11.23.62.24,1.69a52.28,52.28,0,0,0,3,15.15,90.29,90.29,0,0,0,6.54,14.24c2.56,4.64,5.43,9.2,8.43,13.84l1.12,1.73,1.1,1.63,2.33,3.36,4.93,7a280.06,280.06,0,0,1,15.8,24.49,93.14,93.14,0,0,1,6.51,14.1c.24.63.44,1.35.65,2s.43,1.35.6,2.11l.53,2.2.4,2.4a27.94,27.94,0,0,1-.69,11.66,28.32,28.32,0,0,0,1-11.85,46,46,0,0,0-2-8.87A89.36,89.36,0,0,0,185.3,147a246.32,246.32,0,0,0-14.8-23.64c-2.53-3.69-5.11-7.34-7.46-10.83l-1.69-2.58-1.75-2.78c-1.14-1.84-2.28-3.69-3.37-5.53-4.37-7.35-8.29-14.77-10.68-22.43a11.09,11.09,0,0,1-.54-2,13.74,13.74,0,0,1-.23-1.63,1.53,1.53,0,0,1-.38-.72,39,39,0,0,1-1.88-12.33,7.27,7.27,0,0,1,.39-2.26C143.07,59.86,143.15,60.38,143.14,61.29ZM20.6,238a1.29,1.29,0,0,0-.15-.17l.52.29.73,1.1Zm-9,3.68h0l-.43-.63ZM187.65,259a9.78,9.78,0,0,1-1.71.24h-.86c-.3,0-.79-.08-1.17-.11l-.63,0-.88-.13-1.76-.26-3.51-.53c-4.68-.69-9.35-1.5-14-2.29q-14-2.43-27.87-5.27L148.86,253q10.56,2,21.13,3.82c3.53.62,7.06,1.16,10.59,1.74l2.66.41,1.82.2A9.81,9.81,0,0,0,187.65,259ZM14.41,233.51a12.41,12.41,0,0,1,2.13,2.16,6,6,0,0,1,1.69,0c1.55.18,3.06.41,4.54.7-.19-.39.17-.31.35-.34l.55,0-4.79-1.23A42.8,42.8,0,0,1,14.41,233.51Zm-11.16,1-.15-.16.27-.62S3.31,234,3.25,234.46Zm-.42,1,.24.1C3,235.83,2.92,235.75,2.83,235.5Zm2.15.87a1.93,1.93,0,0,0-.32-.35Zm2.28,18.18.63-3.14-.71,3Z"/><path d="M166.14,65.18l.26,0c0,.16-.16.27-.36.35,2.45,0,3.94-2.3,4.34-4.49a1.1,1.1,0,0,0-1.18-1.85,1.14,1.14,0,0,1-.44.06,8.48,8.48,0,0,0-3.68.27h.86a2.76,2.76,0,0,0-1,.39l.31.19a2.53,2.53,0,1,0,.26,5.06Z"/><path d="M170,66.62c-.79.11-1.57.19-2.36.25l-.23-.08.6.7,0,0a4.49,4.49,0,0,1,1.24-2.63l.18-.31a.78.78,0,0,0-.06-.58.81.81,0,0,0-1.1-.34l-.45.25c-1.3.33-2.85,1.51-2.43,3.17.1.38.49.66.77,1A1.12,1.12,0,1,0,168,66.73l.33-.09-.06.33c-.19-.53.18-1,.33-1.45L169,65l-1.16-.91-.14.35a1.55,1.55,0,0,1,.15.08,10.22,10.22,0,0,1-.86,2l-.36.94a.69.69,0,0,0,.61.71h.49l-.25,0c.89-.28,1.74-.69,2.63-1a.29.29,0,0,0,.22-.34A.29.29,0,0,0,170,66.62Z"/><path d="M167.65,68.67a.63.63,0,0,0-.5.14V69l.37,0C167.79,69,167.79,68.82,167.65,68.67Z"/><path d="M167.15,69H167l.14.06v0Z"/><path d="M189,48.65a38.58,38.58,0,0,0,3.69-2c.05,0,0-.1,0-.17s-.12-.11-.15-.08a41.17,41.17,0,0,1-3.7,2s0,.1,0,.18S189,48.67,189,48.65Z"/><path d="M202.65,49.28a.24.24,0,0,0,.14.18c.05,0,.1,0,.08-.07a.28.28,0,0,0-.14-.18C202.67,49.18,202.63,49.22,202.65,49.28Z"/><path d="M206.68,55a2,2,0,0,0-.11.75s0,.06-.08.05a.39.39,0,0,1,.13.32,15.09,15.09,0,0,1-2,4.47,1.46,1.46,0,0,1,.16.3c.14.35.09.62-.11.7l-.18,0c-.64.23-1.24.5-1.89.71a.79.79,0,0,1-.16.52,12.8,12.8,0,0,1-.59,2,1.16,1.16,0,0,1,.26.24c.18.25.21.51.09.6l-.18.15c.22-.07.45-.15.68-.21a.11.11,0,0,1,.1,0,5.08,5.08,0,0,0,.57-.47,15.25,15.25,0,0,0,3.23-6c0-.06,0-.09.11-.05a.32.32,0,0,1,.12.18c-.07,2,.31,4.3-.22,6a29.87,29.87,0,0,1-2.25,5.57c-1.46,1.12-2.35,2.76-3.51,4.35a18.51,18.51,0,0,1-1.2,1.51c-.08.08-.07.09-.2.21l-.34.31-.67.62-1.36,1.2c-1.82,1.58-3.68,3.08-5.58,4.61a3.32,3.32,0,0,1-5.64-2.86l-.37.25-.69.26a2.84,2.84,0,0,1-2,0l-.86-.3c-1.41-.74-3-1-4.35-1.93l-.26-.52-.2,0a2.9,2.9,0,0,1-1.58-.74L175.1,77a6.72,6.72,0,0,1-.87-2.16,2.31,2.31,0,0,1-.43-.74,3.39,3.39,0,0,1-1.55-1.68.48.48,0,0,1-.37-.58.48.48,0,0,1,.13-.23h0a3.36,3.36,0,0,0-.46-.19,2,2,0,0,1-.28.08l-.82.33a2.29,2.29,0,0,1-.8-.12c-1-.75-1-.75-1.33-1.2a1,1,0,0,1,0-.17l-.47.06a1.43,1.43,0,0,1-.24-.08c-.19-.22-.19-.22-.29-.27a1.69,1.69,0,0,1-.14-.16c-.07-.36-.07-.36-.12-.43a.94.94,0,0,1,0-.18l.15-.31.8.33-.09-.26.29.21-.24-.22.29,0-.36-.07a1.91,1.91,0,0,0,.62-.35.78.78,0,0,0,.3-.29l-.12-.12,1-.45a.85.85,0,0,1,.22.09.26.26,0,0,1,.13-.25l.26-.13,0-.07h0l.1-.26v-.06h0c.06-.18.16-.44.41-1.12a2.75,2.75,0,0,1,.45-.17l-.19,0c-.13,0-.23-.29-.29-.28a17.29,17.29,0,0,0-3.59,1.35.41.41,0,0,1-.58-.58A8.92,8.92,0,0,1,173,61.17c.63-.3,1.25-.62,1.86-1l-.16,0,.55-.16.05,0-.62-.15-.32.06a26.21,26.21,0,0,1-4.53,1.63,23.89,23.89,0,0,1-2.51.55.37.37,0,1,1-.37-.63c1.85-1.88,4.4-3.45,7.1-3.37a2.14,2.14,0,0,1,1.33-.45h0l-.49-.15c.34-.13.71,0,1.05-.06l-.44-.38c1.61-.79,3-2.09,4.8-2.43l.18-.08a8.89,8.89,0,0,1,.94-1.79l-.45.13a1.36,1.36,0,0,1,.51-.89,3.11,3.11,0,0,1,3.36.47,50,50,0,0,0,3.69-3.73c0-.07.19,0,.31.1s.16.29.1.37a16.67,16.67,0,0,1-2.25,3.22,15.2,15.2,0,0,0,2.91-1.45l.28-.32a.61.61,0,0,1,.38-.17,13.06,13.06,0,0,0,3-2.77,29.32,29.32,0,0,0,1.94-3.12,12.4,12.4,0,0,1,2.93-4.17c.14-.18.49-.06.78.27s.4.74.26.91c-1.91,3.19-3.6,6.55-6.59,8.6l-1,.65.12.13a2,2,0,0,1,.31.57,9,9,0,0,1,1.21-.59,6.55,6.55,0,0,1,2.5-2.87,8.66,8.66,0,0,1,2.72-.63c.66-.85,1.27-1.77,2-2.6,0,0,.07,0,.14,0a.24.24,0,0,1,.08.19,14.19,14.19,0,0,1-1,2.39,2.42,2.42,0,0,1,.76.69,2.09,2.09,0,0,1,.42.94l.43-.29c.09-.05.25,0,.37.17s.15.35.07.4l-1.7,1.21c-.52.69-1.06,1.34-1.63,2a3.4,3.4,0,0,1,.78.6h0l.29-.26a14,14,0,0,1,4.77-5.61s.11,0,.17.08.07.15,0,.17a11.52,11.52,0,0,0-1.73,1.36h0a.28.28,0,0,1,.14.18c0,.06,0,.1-.08.07a.26.26,0,0,1-.14-.17,14.33,14.33,0,0,0-2.53,3.34,16.92,16.92,0,0,1,2.95-2.25c0-.18.08-.35.11-.52s.09,0,.16,0,.09.14.07.18l0,.14c.21-.12.59.08.87.45s.36.81.16,1c-.46.47-.95.9-1.44,1.32l-.12.2,0,.31c.92-.47,1.85-.91,2.8-1.33.06-.06.2,0,.31.14s.13.29.07.34a27.85,27.85,0,0,1-3.34,4.42c0,.94-.05,1.88-.07,2.82l.19-.12c1.54-1.2,1.58-3.85,2.82-5.35,0,0,.1,0,.15,0s.08.16.05.19a16,16,0,0,0-1.21,2.81,16.44,16.44,0,0,0-.9,2.4c1-1,1.56-2.59,2.44-3.78,0-.07.1-.08.19,0a.21.21,0,0,1,0-.12,2.59,2.59,0,0,1,.12-.77c0-.06.07-.06.14,0A.26.26,0,0,1,206.68,55ZM176.19,66l-.11,0,.3,0,.69.33Zm-1.86,4.64h0l-.39-.18Zm13.72-18.2a4.54,4.54,0,0,1-2.15.91l.36-.43C186.83,52.74,187.43,52.58,188.05,52.44ZM172.32,65.73a5.72,5.72,0,0,1,1.54.39,1.94,1.94,0,0,1,.57-.57,19.59,19.59,0,0,1,1.86-1.09c-.22-.14-.07-.22,0-.3l.17-.2c-.7.32-1.4.63-2.13.93A17.16,17.16,0,0,1,172.32,65.73Zm-3.55,3.92-.11,0-.11-.37Zm.2.62.11,0C169.13,70.37,169.08,70.36,169,70.27ZM170,70a.71.71,0,0,0-.23-.07Zm7.07,8-.81-1.67L177,78Z"/></g></g></svg>