<svg xmlns="http://www.w3.org/2000/svg" viewBox="0 0 382.89 483.43"><g id="Layer_2" data-name="Layer 2"><g id="Layer_1-2" data-name="Layer 1"><path d="M117.86,7.78v.51c-.3,0-.54-.16-.74-.49a6.24,6.24,0,0,0,3.44,4.83,10.67,10.67,0,0,0,6,.78,1.84,1.84,0,0,0,2.75-.31,2.35,2.35,0,0,0,0-3,2.84,2.84,0,0,1-.25-.78,16.85,16.85,0,0,0-1.52-6.62c.07.52.15,1.06.22,1.58a5.45,5.45,0,0,0-.93-1.63c-.08.22-.18.47-.26.68a3.64,3.64,0,0,0-5.11-3,5.9,5.9,0,0,0-3.81,6.29Z"/><path d="M116.35,15.92c-.47-1.47-.85-2.95-1.2-4.43l.09-.48-1.13,1.52.09-.08c1.86-.48,3.64.25,5.2,1l.64.16a1.54,1.54,0,0,0,1-.47,1.67,1.67,0,0,0,.24-2.23c-.2-.23-.39-.49-.58-.73-1-2.32-3.41-4.6-6.43-2.95a6.3,6.3,0,0,0-1.63,2,2.23,2.23,0,0,0-.14,3.11,2,2,0,0,0,3-.21l.27.58-.62.06c.92-.64,1.84-.16,2.76-.11l1,.51,1.3-2.72-.66-.09c0,.13-.1.33-.11.33a16.44,16.44,0,0,1-3.84-.59l-1.85-.19a1.52,1.52,0,0,0-1.15,1.51l.12.95v-.5c.79,1.57,1.84,3,2.63,4.59a.48.48,0,0,0,.69.25A.62.62,0,0,0,116.35,15.92Z"/><path d="M111.79,12.48a1.11,1.11,0,0,0-.41-.89l-.27.07.06.72C111.22,12.9,111.54,12.81,111.79,12.48Z"/><path d="M111.11,11.66l0-.3-.08.31h0Z"/><path d="M238.33,53.64c1,0,1.92.11,2.89.12h8.71l5.83-.27,2.93-.13,2.91-.27,5.85-.53,5.84-.77,2.92-.4c1-.14,1.94-.33,2.91-.49l5.83-1c.52-.09.93-.28.93-.41s-.43-.11-.91,0l-5.82,1-2.9.5-2.92.39-5.81.76-5.83.52-2.9.26-2.91.13-5.81.26c-1.93,0-3.86,0-5.79,0s-3.86,0-5.77-.12c-.52,0-.94.08-1,.21S237.85,53.61,238.33,53.64Z"/><path d="M356.32,33.93c-.31.25-.24.34.15.2a4.54,4.54,0,0,0,1.2-.65c.26-.22.18-.32-.15-.21A4.29,4.29,0,0,0,356.32,33.93Z"/><path d="M357,42.63l-2.89,1.94c-.94.61-1.84,1.21-2.66,1.81a4.74,4.74,0,0,1-1,.52c.2.09-.14.44-.86.91C335.31,57.12,318.52,65,301.35,71.4a1.71,1.71,0,0,1-.62.66,19.54,19.54,0,0,1-6,2.48l-1.95.46c-2,.5-3.94.9-5.91,1.35s-3.92.92-5.91,1.27L275,78.71l-3,.52-3,.41a47.7,47.7,0,0,1-5.49,1.42c-3.4.89-6.85,1.62-10.33,2.42s-7,1.29-10.62,1.9c.46.1.75.26.75.46s-.5.5-1.17.7a13.06,13.06,0,0,1-2.58.37l-3,.2c2.86-.06,5.73,0,8.56-.24a11.28,11.28,0,0,1,1.14,0c3.11-.31,6.26-.56,9.42-1.11a213.52,213.52,0,0,0,39.38-9.9,262.58,262.58,0,0,0,35.41-15.57,4.56,4.56,0,0,1,1.32-.56c.26,0,.27.12-.13.36-1.71,1.08-3.42,2.08-5.13,3.07l-5.05,3c-3.39,1.94-6.78,3.84-10.27,5.74A171.43,171.43,0,0,1,287.9,82.25a242.44,242.44,0,0,1-67,13.81,335.58,335.58,0,0,1-36.45-1.86,240,240,0,0,1-36.92-6.71c-2.15-.49-4.24-1.2-6.36-1.81l-6.3-1.94-6.2-2.23c-2.05-.76-4.13-1.46-6.13-2.35L121,78.52l-.76-.32-.28-.1-1-.39-2.06-.77c-1.36-.54-2.74-1-4.05-1.67-2.66-1.21-5.29-2.46-7.92-3.75s-5.17-2.82-7.77-4.27a8.35,8.35,0,0,1-4.4-4.2,6,6,0,0,1,0-5.28,6.49,6.49,0,0,1,5.34-3.31l-.83-.62-1.11-1.27a6,6,0,0,1-1.51-4.15V46.55c.55-3.19.22-6.62,1.23-9.75l.94-.74v-.44a5.49,5.49,0,0,1,.65-3.52l1-1a14.32,14.32,0,0,1,3.91-2.72,5.16,5.16,0,0,1,1.27-1.2,7.07,7.07,0,0,1,2.61-3.86,1,1,0,0,1,1-1,1,1,0,0,1,.51.14h0c.09-.41.11-.53.18-1a5.08,5.08,0,0,1-.28-.51c-.52-.77-.52-.77-1-1.45a4.61,4.61,0,0,1-.06-1.6c1.08-2.42,1.09-2.41,1.87-3.18l.31-.15a7.65,7.65,0,0,1-.25-.88,2.13,2.13,0,0,1,.07-.5c.36-.46.36-.46.43-.69a2.66,2.66,0,0,1,.27-.35c.66-.29.66-.29.79-.43a1.6,1.6,0,0,1,.34-.13l.63.14-.38,1.68.47-.29-.31.66.33-.56,0,.56,0-.73c.56.79.56.79.86,1a1.29,1.29,0,0,0,.64.43,2.44,2.44,0,0,1,.19-.28c.61.85.61.85,1.18,1.7a3.43,3.43,0,0,1-.08.48.41.41,0,0,1,.5.14l.32.43h.14l0,0,.51.05h.11c.35,0,.86.1,2.25.16a5.75,5.75,0,0,1,.49.76c0-.12,0-.25,0-.38s.44-.61.4-.7a14.45,14.45,0,0,0-.82-1.62c-.28-.54-.58-1.06-.89-1.56-.63-1-1.31-2-2-3A.85.85,0,0,1,116,9.2c5.22.72,9.1,4.4,11.53,9.17.84.95,1.72,1.87,2.61,2.79v-.33l.56.91.07.08-.06-1.26c-.08-.18-.16-.36-.25-.54a17.68,17.68,0,0,1-2.69-3.45c-.75-1.28-1.4-2.66-2.17-3.91a34.38,34.38,0,0,1-1.83-4.34.75.75,0,0,1,.09-1,.63.63,0,0,1,.92,0A18.58,18.58,0,0,1,130,11.77a15.26,15.26,0,0,1,3.38,6.45,3.93,3.93,0,0,1,1.42,2.15l0,0v-1c.4.56.35,1.29.69,1.86l.39-1.07c1.14,1.14,2.47,2.11,3.71,3.16A19,19,0,0,1,141.45,25,12.22,12.22,0,0,1,143,27a3.07,3.07,0,0,1,.25.26,14.13,14.13,0,0,1,2.16,0,4.51,4.51,0,0,1,.53.07l.14,0,.36.15.71.32c1,.43,1.89,1,2.92,1.43-.66-.39-1.28-.82-1.9-1.25l-1.83-1.26c.66.24,1.48.6,2.2.91s1.49.65,2.25.95c1.52.64,3,1.34,4.57,2.17,8.36,4.32,17.78,9.72,22,13.8A204,204,0,0,0,205.19,51a200.55,200.55,0,0,0,28.55,2.18,3.05,3.05,0,0,1,2,.45c.11.26-.54.5-1.53.53s-1.72.1-2.58.12H223.9c-1.74,0-3.47-.15-5.21-.22s-3.47-.15-5.21-.31a189,189,0,0,1-20.75-2.94,167.43,167.43,0,0,0,35.2,5.94c1.55,0,3.1.12,4.66.1s3.07.06,4.6.18a187.58,187.58,0,0,0,46.11-5.14,240,240,0,0,0,37.42-12.44c8.86-3.79,17.13-7.86,25.28-12.12s16.08-8.9,24.3-13.85c2.13-1.39,4.32-2.38,4.83-2.17s-.82,1.54-3,3q-12.53,8.37-25.67,15.58a289.75,289.75,0,0,1-27.14,12.81,224.34,224.34,0,0,1-28.72,9.56,193.45,193.45,0,0,1-30.26,5.49c-2.23.26-4.45.35-6.64.53l-3.29.24c-1.09.06-2.19.07-3.28.11a.43.43,0,0,1,.13.26c0,.36-.36.7-1,1l3.75-.08,3.75-.21,3.78-.2,1.89-.1,1.89-.17c13.89-2.36,27.55-5.78,42.12-9.7,10-2.75,19.07-5.4,28.24-8.62a311.09,311.09,0,0,0,32.49-17.46,3.06,3.06,0,0,1,1.08-.52c.2,0,0,.2-.39.49-1.77,1.2-3.58,2.36-5.39,3.54l-2.73,1.78L354,30.28l-5.65,3.37-5.8,3.19c1.39-.32,2.33-.32,2.43.13s-.67,1.31-2,2.32l5.46-2.67c1.13-.53,2.08-.83,2.16-.62s-.71.86-1.78,1.38c-3.71,1.83-7.4,3.71-11.19,5.37-1.88.83-3.74,1.74-5.65,2.52l-5.72,2.36a264.68,264.68,0,0,1-27.81,10.43,6.85,6.85,0,0,1,3.13.38h0l4.41-1.39a372.66,372.66,0,0,0,76-39.68c.47-.32.91-.52,1-.44s-.26.38-.68.66c-3.67,2.41-7.27,4.9-11,7.17-1.86,1.15-3.67,2.38-5.56,3.46L360,31.58l0,0c.33-.12.45-.06.15.2a4.84,4.84,0,0,1-1.18.7c-.38.14-.41,0-.15-.2a385.91,385.91,0,0,1-43.25,21.41A335,335,0,0,0,356,35.25c1.35-.9,2.72-1.74,4.06-2.69a3.35,3.35,0,0,1,1.11-.5c.15,0-.08.26-.46.51l-1.12.78c2.43-1.39,4.51-2.13,4.74-1.66s-1.72,2.15-4.26,3.62c-6.79,3.94-13.66,7.73-20.75,11.06l-2.25,1.18-2.2,1.35a299.24,299.24,0,0,0,32.55-16.51c.89-.54,1.73-.88,1.85-.73s-.52.71-1.42,1.26A273.44,273.44,0,0,1,340,49.35a267.43,267.43,0,0,1-30,13.23c-3.25,1.63-6.57,3.17-9.9,4.79-3.38,1.47-6.78,3-10.27,4.47.92-.2,1.83-.45,2.75-.72A178.21,178.21,0,0,0,324.43,58.6c9.89-4.89,19.36-10.21,29.36-15.93a2,2,0,0,1,1.06-.42c.1,0-.2.33-.71.62-9.72,5.68-18.65,10.93-28.8,15.89l-6.27,3-6.23,2.74-3.07,1.37-3.09,1.27-6.12,2.56c2.12-.72,4.21-1.48,6.3-2.23L310,66.32,313,65.07l6.07-2.53L325,59.8l3-1.37L330.91,57,336.73,54,342.48,51l2.89-1.54c1-.52,1.9-1.08,2.86-1.62a7.79,7.79,0,0,1,1.83-.85c0-.07.13-.19.32-.33,1.8-1.28,3.83-2.53,5.85-3.91a3.34,3.34,0,0,1,1.18-.56C357.66,42.1,357.46,42.32,357,42.63ZM120.36,27.41v-.24l.2.55-.21,1.5S120.36,28.32,120.36,27.41Zm-9.72-.94h0c.09-.49.16-.85.16-.85C110.73,26,110.68,26.24,110.64,26.47Zm93.08,28-6.23-1.22c-1-.19-2.06-.46-3.08-.73l-3-.82a114.1,114.1,0,0,1-11.92-4l5.9,1.45,2.25.78,2.27.68L194.43,52c1.53.49,3.07.87,4.63,1.26ZM119,19.84A13.45,13.45,0,0,1,119,23a3.71,3.71,0,0,1,1.31.77c1,.94,2,1.85,3,2.81.12-.5.36-.27.52-.23l.48.19a39.42,39.42,0,0,1-2.85-3.4A27.72,27.72,0,0,1,119,19.84Zm-8.7-4.73,0-.22.67-.39Zm-1.12.7.09.21C109,16.18,109,16.06,109.16,15.81Zm.83,1.93a1.59,1.59,0,0,0,.05-.48ZM97.49,35.51l2.93-2.37-2.9,2.21Z"/><path d="M256,106l-.57-.28c.12-.18.48-.2,1-.11a10.3,10.3,0,0,0-7.08-.49,9.29,9.29,0,0,0-2.45,1.16,7.19,7.19,0,0,0-1.62,1.49c-1.15.11-1.56.73-1.14,1.3a2.45,2.45,0,0,0,1.11.73,4.32,4.32,0,0,0,1.61.29,5.94,5.94,0,0,1,.9.2c.6.24,1.18.47,1.8.69l1.94.66,2,.67c.7.21,1.4.42,2.13.66-.64-.29-1.29-.57-1.91-.82a19.86,19.86,0,0,0,2.44.62l-.59-.48c3.14,1.3,6.41,1.69,7.07.21s-1.79-4.52-5.11-5.89Z"/><path d="M248.3,101.39a24.7,24.7,0,0,1,2.56.46c.87.19,1.73.4,2.62.67l.47.28-1-1.41,0,.09c-.42,1.37-2.21,2-3.77,2.64l-.53.27a.64.64,0,0,0-.11.73,2.57,2.57,0,0,0,2.16,1.06l1.07,0c.71.12,1.55.23,2.36.3a12.12,12.12,0,0,0,2.27,0c1.42-.18,2.46-.7,2.33-2-.06-.61-.84-1.41-1.37-2.12a3.84,3.84,0,0,0-3.39-1.79c-1.31.1-1.86,1-1.33,1.92l-.76-.1.27-.4c.2.85-.8,1.17-1.36,1.68l-1.06.39,2.06,1.86.46-.32a2.86,2.86,0,0,1-.29-.21,15.17,15.17,0,0,1,2.78-1.82l1.25-.94c.19-.47-.29-1.15-1.07-1.51l-1.1-.41.54.25a53.66,53.66,0,0,0-6.11-.31c-.32,0-.57.14-.57.36S248,101.36,248.3,101.39Z"/><path d="M254.17,100a2.24,2.24,0,0,0,1.19.21l0-.22-.82-.33C254,99.39,253.94,99.65,254.17,100Z"/><path d="M255.41,100l.35.15-.3-.21,0,0Z"/><path d="M264.5,249.68c-1,24.83-2.15,49.81-3.7,74.78-.05.83,0,1.54.21,1.58s.34-.6.38-1.38c1.6-25,2.78-49.83,3.77-74.66a2.75,2.75,0,0,0-.3-1.64C264.67,248.31,264.52,248.9,264.5,249.68Z"/><path d="M241.84,435.91c-.06-.59-.17-.57-.26,0a10.62,10.62,0,0,0-.07,2.05c.05.5.17.48.25,0A10.48,10.48,0,0,0,241.84,435.91Z"/><path d="M233.62,430.48c-.28-3.5-.59-6.82-1-9.78a9.21,9.21,0,0,1-.05-1.64c-.18.21-.38-.46-.51-1.72-2.63-24.85-4.51-51.57-6.26-77.89a2.59,2.59,0,0,1-.65-1.11,29.32,29.32,0,0,1-1.11-9.28l.11-2.86c.18-11.55.39-23.07.8-34.56a70.65,70.65,0,0,1-.62-8.05c-.91-9.95-1.72-19.93-2.26-30.14-.2.64-.45,1-.72,1-.63-.2-1.09-2.57-1-5.33,0-1.39.07-2.77.16-4.16-.46,4-.54,8-.8,12q0,.87-.12,1.59c-.09,4.37-.09,8.79,0,13.28.42,39.22,4,76.09,7.74,112.67a7.61,7.61,0,0,1,0,2.07c-.1.36-.27.29-.37-.38-3.49-23.07-8.22-43-11-69.14-1.62-15.52-3-30.95-4-46.48-.26-3.89-.52-7.78-.71-11.68l-.3-5.86c-.1-2-.23-3.91-.22-5.87A57.56,57.56,0,0,1,216,223.47c4-8.29,9-16.37,12.8-24.51,1-2.08,1.81-4,2.71-6.34l.63-1.67c.24-.64.48-1.17.68-1.62.42-.92.82-1.7,1.13-2.49a15.64,15.64,0,0,0,1.21-9.44,13.39,13.39,0,0,0-1.75-4.35c-.44-.69-.94-1.4-1.61-2.35a19.48,19.48,0,0,1-2.2-4,16.81,16.81,0,0,1-1.06-5.26,17.59,17.59,0,0,1,.57-5.16,23.67,23.67,0,0,1,4-7.76,13.46,13.46,0,0,0,1-1.58l0-.06h0s0,0,.09.06l.35.18a6,6,0,0,0,.73.32l.39.13c.14.05.12.06.2.08a2.79,2.79,0,0,0,.66.17s0,0,0,0h-.21l-.29,0-.21.05.1,0c.06,0,0,0-.4.19l-.3.16-.36.24a4.84,4.84,0,0,0-.46.33l-.1.08h0s-.05-.15-.18-.3a1.72,1.72,0,0,0-.23-.26c-.41-.36-.74-.7-1.14-1-.8-.6-1.58-1.2-2.3-1.82a22,22,0,0,1-3.72-3.67,9.94,9.94,0,0,1-1.75-4.15,4.09,4.09,0,0,1-.14-1.21,10.2,10.2,0,0,1,.05-1.24,10.38,10.38,0,0,1,.52-2.26,6.41,6.41,0,0,1,.64-1.38,6.71,6.71,0,0,1,.85-1.27c.16-.2.27-.42.46-.62l.61-.58a16.47,16.47,0,0,1,1.41-1.11,8.54,8.54,0,0,1,.8-.53,6,6,0,0,1,.87-.49c.66-.28,1.32-.56,1.95-.87,1.33-.56,2.84-.95,4.21-1.41l2.08-.7c.42-.15.63-.25.93-.37a9.53,9.53,0,0,0,1.34-.69,1.64,1.64,0,0,0,.28-.24h0s0,0,0,0l.08.09c.18.24.46.52.58.7s.33.38.51.56l.29.26.19.2a5.54,5.54,0,0,0,.45.37c.17.11.21.17.34.24s.28.14.31.17l.2.09c.13,0,.19,0,.1,0a1.31,1.31,0,0,0-.34.11,2.28,2.28,0,0,0-.59.34,4.76,4.76,0,0,0-.87.62l-.18.18-.28.24a6.51,6.51,0,0,0-.54.51c-.17.18-.34.36-.49.55a1.8,1.8,0,0,1-.28.31c-.08.1,0,0-.06.06h-.09c-.11,0-.22,0-.38-.07-.65-.16-1.64-.4-2.72-.58-.56-.1-1.08-.2-1.75-.28l-2-.07c-.68,0-1.37-.2-2.06-.3a76.82,76.82,0,0,1-8.85-2l-1.67-1a4.41,4.41,0,0,0-.43-.25l-.55-.2-1.09-.39a10.68,10.68,0,0,1-1.06-.41l-.73-.57c-.49-.38-1-.75-1.44-1.13s-.93-.76-1.36-1.15l-.44-.39-.58-.52c-.79-.69-.48-1.59-1.35-2.25l-.5-.54a2.43,2.43,0,0,1-.44-.54l-.66-1.12-.55-1.15a13,13,0,0,0-.72-1.19c-.65-.8.08-1.58-.74-2.49l-.37-.65a3.65,3.65,0,0,1,0-.66l.06-.65c0-.1,0-.23-.09-.35l-.16-.37c-.17-.49-.56-1-.3-1.44l.16-.68.09-.34a1.4,1.4,0,0,0-.07-.39c-.12-.52-.26-1-.37-1.58l.57-1.36.14-.34a1.27,1.27,0,0,0,0-.39v-.8c0-.53-.05-1.06,0-1.6l.1-1.61,0-.41c0-.14.14-.21.2-.32l.49-.61,1-1.22a9.8,9.8,0,0,0,.56-1.46l.52-1.48,0-.1,0,0-.06-.1-.26-.42-.13-.2c0-.06,0-.07,0-.11l.08-.2.35-.81.35-.8.27-.71.54-1.32c.35-.85.73-1.72,1.11-2.56.28-.69.6-1.36.91-2a19.74,19.74,0,0,1,1-1.81,12.73,12.73,0,0,1,2.07-2.62c1.33-1.28,2.7-1.68,3.68-1,1.19.9,1.55,3.11,1.13,5.54.22-.33.43-.66.64-1,.4-.45.81-.93,1.2-1.35,1.14-1.18,2.36-1.94,3.46-1.87h1.43c2.32.53,5.1.33,7.47,1.74l.38,1,.37,0a3.76,3.76,0,0,1,2.85,1.17l.65,1.14A12.12,12.12,0,0,1,242.4,87a4,4,0,0,1,.66,1.41,5.67,5.67,0,0,1,2.63,3.22.8.8,0,0,1,.58,1.08,1,1,0,0,1-.34.36h0c.35.19.45.24.89.45a5.12,5.12,0,0,1,.6,0c1-.16,1-.15,1.84-.24a5.89,5.89,0,0,1,1.66.59c2,1.84,2,1.88,2.51,2.8,0,.1,0,.2,0,.29.78.17.84.2,1.07.26a3.51,3.51,0,0,1,.51.31c.34.49.34.49.55.66a3.39,3.39,0,0,1,.27.37c0,.6,0,.6.09.76a.9.9,0,0,1,0,.29l-.46.33c-1.65-1.11-1.65-1.12-1.65-1.12l.08.46-.55-.53.44.49-.63-.24.78.37a4.51,4.51,0,0,0-1.54.07,1.7,1.7,0,0,0-.77.22l.21.25-2.33.07-.44-.24c0,.15-.16.26-.39.28l-.59,0-.06.1,0,0-.29.32-.06.07h0c-.2.22-.49.53-1.28,1.33-.34,0-.69,0-1,.05l.38.1c.25.08.36.47.47.47,1.36.09,2.71.15,4.05.17s2.76.09,4.19.22a1.57,1.57,0,0,1,1.33.5c.31.37.17.7-.27.77a10.52,10.52,0,0,1-3.24,1.43,24.42,24.42,0,0,1-3.84.74c-2.7.31-5.46.42-8,.5-.57.08-1.14.21-1.69.33l-1.51.36.23.06c-.25,0-.61,0-.56.15v0h.2l.39.08H238a17.26,17.26,0,0,1,3.89-.45c.76,0,1.46,0,2.24,0l2.38.12a16.6,16.6,0,0,1,2.67.36l2.77.61a1.37,1.37,0,0,1,1,.54c.14.26-.1.44-.53.4-1.25.14-2.45.16-3.77.24-.63,0-1.23,0-1.88,0H245c-1.26,0-2.39-.08-3.51-.12l-1.58-.16a3.49,3.49,0,0,1-.37-.07l-.31,0-.11.06a1.53,1.53,0,0,1-.84.31h0l.49.08c-.18.11-.6,0-.81.14l.62.2a1.5,1.5,0,0,0-.47,1.3c0,.47.22.84.25,1.2l0,.08c.35.12.68.21,1,.3l.21.06.06,0,.17.09.35.16c.46.21.92.39,1.38.59a14.39,14.39,0,0,1-1.67-.91c.65.3,1.35.56,2,.79l.24.08.13,0,.06,0,.12.08,2,1.3c.68.46,1.38.91,2.14,1.46a24,24,0,0,1,2.48,2l.46.44c.17.16.34.36.51.55a10.63,10.63,0,0,1,1,1.36,7.83,7.83,0,0,1,.5.93,5.38,5.38,0,0,1,.42,1.1,10.9,10.9,0,0,1,.28,1.26,8.82,8.82,0,0,1,0,1.36,7.44,7.44,0,0,1-1.79,4.32,9.63,9.63,0,0,1-2.3,2,24.39,24.39,0,0,1-3.64,1.78c-.52.21-1.22.47-1.16.46a2.35,2.35,0,0,0-.35.11,9.69,9.69,0,0,0-1.47.54,1.7,1.7,0,0,0-.62.51,1.62,1.62,0,0,1-.1.18,1.15,1.15,0,0,1,0,.19.75.75,0,0,0,.1.36,4.62,4.62,0,0,0,1,1l.28.24.14.13.07.07h0l0,0c-.05,0,0,0,0,0l.17.13a15.24,15.24,0,0,1,2.66,2.62,12.28,12.28,0,0,1,2,3.71,11.8,11.8,0,0,1,.48,2,18,18,0,0,1,.08,2.06,12.21,12.21,0,0,1-.29,2,10.91,10.91,0,0,1-1.27,3.1c-.24.38-.48.75-.71,1.08a26.89,26.89,0,0,1-2.11,2.77c-.58.71-1.1,1.3-1.47,1.82a6.18,6.18,0,0,0-1.29,2.82,4.53,4.53,0,0,0,0,1.36,5.24,5.24,0,0,0,.63,1.7c.78,1.5,2,3.54,3,5.59a55.39,55.39,0,0,1,4.11,12.93c.44,2.24.71,4.55.95,6.72l.18,1.56c.08.53.16.84.26,1.32.2.9.44,1.79.66,2.67.5,1.91,1.05,3.86,1.67,5.77s1.29,3.9,2,5.84c1.39,3.88,3,7.81,4.42,11.7a99.35,99.35,0,0,1,6.27,23.36c.21,1.6,0,3-.29,3.31s-.71-.9-.89-2.5a98,98,0,0,0-3.92-16.79c-1.8-5.63-4-11.26-6-16.92-1-2.81-1.9-5.64-2.73-8.46-.4-1.39-.78-2.79-1.12-4.19l-.26-1-.22-1c-.15-.65-.29-1.31-.42-2-.26-1.15-.33-2.8-.51-4.38s-.37-3.24-.67-4.85a53.3,53.3,0,0,0-2.54-9.41,50.71,50.71,0,0,1,2.15,7.84,66.23,66.23,0,0,1,1,8.05c0,.66.08,1.28.15,1.86s.16,1.06.25,1.62c.21,1.12.4,2.15.66,3.38.51,2.36,1,4.7,1.71,7.1,2.51,9.54,5.88,19.2,7.52,28.89.5,2.48.89,5,1.19,7.46a46.22,46.22,0,0,1,.24,7.33c-.1,12.38-.44,24.45-.7,36.58s-.52,24.33-.67,37c-.25,21.6-.67,40.49-1.64,62-1.42,30.2-4,57.7-9.73,87.51a45,45,0,0,1-2.06,8.09c-.35.48,0-2.4.64-6.38,2.48-15.54,4.13-31,5.39-46.52s2.1-31,2.73-46.58c1.27-31.19,1.81-62.74,2.85-95.25.21-7,.41-13.92.62-20.78a.69.69,0,0,1-.37.17c-.48,0-.92-.67-1.28-1.77q-.39,11.69-1.06,23.53c.51,21.93.66,43.9-1,67.28-1.16,16.05-2.9,30.57-4.54,45.41-.77,18.82-1.79,37.58-3.59,56.59a8.8,8.8,0,0,1-.28,1.81c-.11.28-.14-.13-.09-.9.85-13.07,1.38-26.46,1.76-40-.5,2.12-1,3.39-1.54,3.21s-.9-1.83-1.14-4.36l-.46,9.2c-.11,1.89-.38,3.38-.62,3.32s-.39-1.55-.31-3.35q.73-18.76,1.49-37.47c.14-15,.2-29.91.24-44.93a10.82,10.82,0,0,1-1.85,4.32h0c0,2.32-.05,4.64-.08,6.95q.9,31.82.27,64.3t-2.9,65.29a8.2,8.2,0,0,1-.18,1.57,5.48,5.48,0,0,1,0-1.41q1.23-19.81,1.94-39.52v.06c-.09.53-.2.63-.25,0a11.91,11.91,0,0,1,.08-2.06c.09-.6.2-.55.25-.05.86-24.47,1.06-48.77.6-72.75q-.45,33.42-1.66,66.81c0,2.42.1,4.84.15,7.31a7.85,7.85,0,0,1-.18,1.82c-.09.18-.17-.31-.17-1l0-2c-.16,4.21-.64,7.46-1.11,7.38-.48-.24-.83-3.86-.78-8.24,0-11.72,0-23.39.08-35.07l-.1-3.79c-.11-1.28-.21-2.54-.32-3.81-.38,18.16-.73,36.28-.86,54.3a7.81,7.81,0,0,1-.27,2.89,7,7,0,0,1-.33-2.77c-1.1-31.76-2.38-63.92-3.13-96.21-1.38-10.61-2.86-21.26-4.35-32.11,0,1.37,0,2.75,0,4.13.18,17.55,1.46,33.79,2.7,49.88s2.47,32,3.07,49a4.26,4.26,0,0,1-.13,1.67c-.11.09-.22-.48-.25-1.35-.72-16.59-2.11-31.74-3.3-48.21-1-13.64-1.92-26.61-3.15-39.29.83,25.91,3,50.77,4.4,76.44a16.76,16.76,0,0,1,0,3,1.52,1.52,0,0,1,.18.63c.41,3.21.74,6.71,1,10.29a6.83,6.83,0,0,1,0,1.91C233.82,431.66,233.71,431.24,233.62,430.48Zm2.5-329.2.2,0-.54.07-1.11-.28S235.36,101.16,236.12,101.28ZM241,94.39h0l.71.31Zm7.4,99.63c-.14-.8-.28-1.59-.36-2.35l-.21-2.71c-.13-1.89-.32-3.82-.64-5.73a48,48,0,0,0-5.58-16.15,13.31,13.31,0,0,1-1.74-3.74,4.31,4.31,0,0,1,0-1.35,6.13,6.13,0,0,1,.33-1.45,9.17,9.17,0,0,1,1.73-2.73,9.33,9.33,0,0,0-1.62,2.69,5.7,5.7,0,0,0-.27,2.67c0,1.12,1.68,3.53,2.95,6.15a49.18,49.18,0,0,1,3.09,8.12,52.09,52.09,0,0,1,1.62,8.61c.16,1.44.24,2.9.32,4.29,0,.66.07,1.37.15,1.9S248.28,193.43,248.38,194Zm-5.15-92.28a22.68,22.68,0,0,1-2.82-.73,5.26,5.26,0,0,1-1.26.7c-1.2.53-2.44,1-3.55,1.53.35.12.08.24,0,.34l-.34.28c.62-.26,1.25-.5,1.88-.71s1.37-.42,2.06-.6,1.32-.34,2-.49A12.31,12.31,0,0,1,243.23,101.74Zm8.86-4,.22.12.1.63S252.28,98.14,252.09,97.71Zm-.2-1.08-.26,0C251.56,96.36,251.68,96.42,251.89,96.63Zm-2.37-.21a2,2,0,0,0,.46.22ZM237.6,81.19l1.18,3.18-1.05-3.13Z"/><path d="M4.24,339.81l.43.36a1.34,1.34,0,0,1-1.1,0,11.15,11.15,0,0,0,7.13,1.77,15.83,15.83,0,0,0,6.47-1.75c1.31.25,2.47-.29,2.59-1.22s-.85-1.88-2.18-2.18a4,4,0,0,1-.85-.47,26.08,26.08,0,0,0-6.94-4.42c.53.37,1.06.72,1.57,1.11A8.43,8.43,0,0,0,9,332.15l.31.6c-2.67-1.7-6.31-1.81-8-.07S.41,337.37,3.06,339Z"/><path d="M9.22,346.12c-1.52-.74-3-1.55-4.49-2.41l-.31-.38.18,1.61,0-.1c1.3-1.25,3.53-1.61,5.59-1.82l.73-.16a1.1,1.1,0,0,0,.64-.75c.15-.71-.5-1.49-1.48-1.7L9,340.17c-2.77-1.13-7.15-1.7-8.51.93-.3.61,0,1.45.17,2.21A2.52,2.52,0,0,0,3,345.57c1.36.16,2.47-.56,2.52-1.61l.7.27-.52.34c.34-.89,1.56-1,2.47-1.41L9.55,343l-.86-2.46L8,340.8a2.86,2.86,0,0,1,.16.28,25,25,0,0,1-4.09,1.41l-1.84.75a1,1,0,0,0,.19,1.63l.86.6-.39-.34c1.94.69,4,1.14,5.87,1.81a.65.65,0,0,0,.8-.18C9.67,346.53,9.53,346.25,9.22,346.12Z"/><path d="M2.51,346.05a1.76,1.76,0,0,0-1.07-.42l-.18.19.63.47C2.34,346.63,2.55,346.41,2.51,346.05Z"/><path d="M1.26,345.82l-.26-.2.18.25.05,0Z"/><path d="M114.48,337.73c-1-.53-2-1.06-2.9-1.61-.45-.28-1-.55-1.37-.82l-.89-.83-.45-.42-.63-.42-1.29-.85c-.34-.28-.56-.56-.85-.84l-.41-.43a5.78,5.78,0,0,0-.56-.44l-1.19-.88a7.2,7.2,0,0,1-.81-.88,13.92,13.92,0,0,0-2-1.84,22.06,22.06,0,0,1-1.39-1.87,11,11,0,0,0-.69-1l-1-1.06c-.07-.09-.17-.17-.23-.26l-.14-.27-.29-.52c-.2-.35-.39-.71-.56-1.08a6.66,6.66,0,0,0-.63-1.15,12.19,12.19,0,0,1-.78-1.25L95,317.78l-.36-1.35L94.39,315c-.16-.55-.38-1.1-.49-1.66s0-1.09,0-1.69a11.15,11.15,0,0,0,0-1.85c0-.32,0-.65,0-1l.26-.94A19.22,19.22,0,0,1,94.8,306c.23-.62.34-1.27.52-1.91a1,1,0,0,1,.19-.44l.26-.42.51-.83c.31-.56.54-1.14.81-1.7a3.29,3.29,0,0,1,.21-.42l.32-.36.63-.71c.94-.92,1.39-2,2.27-2.86a32.59,32.59,0,0,0,2.84-2.4l1.29-1.24c.45-.39.93-.77,1.39-1.15s.92-.78,1.4-1.15l1.55-1a68.67,68.67,0,0,1,6.23-3.62l3.06-1.54,1.45-.73.73-.37.37-.19c.14,0,.31,0,.47-.06l1.9-.22,1-.11.47,0,.36-.16,1.41-.65.71-.32a.87.87,0,0,1,.37-.14H130a5,5,0,0,0,1.86-.18l1.64-.48.82-.24c.11-.07.34,0,.52,0l.56,0,2.24.17,1.12.08,1-.14,2.07-.27c.36,0,.66-.11,1.06-.12l1.18-.05A46,46,0,0,1,149,280l2.62.08c.87,0,1.76-.08,2.64-.1a12.37,12.37,0,0,0,3.48-.49c0-.19-1.51-.26-3.27-.14-.89.05-1.79.12-2.68.14l-2.65-.07c-.86,0-1.8-.08-2.61-.05l-2.38.12-1.19.06a9.25,9.25,0,0,0-1.13.09l-2.08.29a16.23,16.23,0,0,1-4.4,0l-1.13-.08a.85.85,0,0,0-.47,0l-.41.13-1.64.51-.82.25c-.31,0-.66,0-1,0l-2,0a7.63,7.63,0,0,0-1,0l-.71.33-1.4.67a2.73,2.73,0,0,1-.74.3l-1,.12-1.91.23a3.61,3.61,0,0,0-.91.15l-.73.38-1.45.76-3,1.56c-1,.5-2.07,1.14-3.11,1.72s-2.07,1.23-3.1,1.91a21.31,21.31,0,0,0-3,2.13l-1.39,1.16c-.46.39-.87.82-1.3,1.24s-.83.83-1.32,1.23l-1.47,1.2-.37.3-.18.15-.13.18-.52.74a14.31,14.31,0,0,1-1.1,1.46l-1.26,1.43-.77,1.71c-.29.57-.67,1.12-1,1.68a1,1,0,0,0-.18.45l-.12.48-.23,1a12.39,12.39,0,0,0-1,3.76l0,1a8.84,8.84,0,0,1,0,.91,12.58,12.58,0,0,0,0,1.72,55.45,55.45,0,0,0,1.39,5.82,3.83,3.83,0,0,0,.67,1.25l.41.62c.1.19.17.37.26.56.34.76.72,1.45,1.09,2.15a28.27,28.27,0,0,1,3,3.95,2.6,2.6,0,0,0,.47.47l.55.47a5.6,5.6,0,0,1,1,.92l.73.88c.08.15.35.3.53.45l.59.44a10.5,10.5,0,0,1,1.85,1.73c.62.57,1.75,1.14,2.37,1.71.87,1.12,3,2.23,5,3.31a11.87,11.87,0,0,0,2.54,1.1C116.11,338.67,115.48,338.26,114.48,337.73Z"/><path d="M133.83,166c-.19.89,0,.9.35,0a15.05,15.05,0,0,0,.55-1.43,14.73,14.73,0,0,0,.5-1.51c.19-.73,0-.77-.35-.05a15.63,15.63,0,0,0-.65,1.5A12.29,12.29,0,0,0,133.83,166Z"/><path d="M143.14,175.46a35.58,35.58,0,0,0,1.38,11.6,11.5,11.5,0,0,1,.35,1.95c.18-.29.58.46,1.06,1.92,2.38,7.21,6.17,14.38,10.62,21.65.54.91,1.11,1.82,1.69,2.73l1.74,2.76,1.78,2.78.91,1.4.89,1.35c1.11,1.67,2.37,3.47,3.66,5.3l3.92,5.57a267.63,267.63,0,0,1,15.67,24.36,97.71,97.71,0,0,1,6.76,14.69,50.32,50.32,0,0,1,2.39,9.3,31.38,31.38,0,0,1-.43,12.8,10.65,10.65,0,0,1-.62,3.79,14.33,14.33,0,0,1-1,2.63,18.13,18.13,0,0,1-1.74,3,25.29,25.29,0,0,1-2.58,3.15,36.31,36.31,0,0,1-3.31,2.84,40.66,40.66,0,0,1-3.68,2.2l-.25.13-.17.08-.32.13-.65.28-1.33.54c-.89.36-1.81.71-2.75,1s-1.74.43-2.62.64l-1.32.27-.66.14-.29.06h-.14l-1.08.07a23.53,23.53,0,0,1-6.65-.6c-2.23-.47-4.46-1.1-6.76-1.51a24.37,24.37,0,0,0-7-.36,26.83,26.83,0,0,0-6.9,1.9c-.28.29-.59.57-.89.9s-.65.63-1,1a13.24,13.24,0,0,0-2,2.47,5.11,5.11,0,0,0-.22,2.89,6.89,6.89,0,0,0,1.45,2.83,18.93,18.93,0,0,0,5,4,49.26,49.26,0,0,0,11.14,4.61c-.19-.13-.15-.2.16-.2a33.12,33.12,0,0,1,4.35.94l2.49.6a43.41,43.41,0,0,1-6.33-2,5.06,5.06,0,0,1-.72-.33,25.93,25.93,0,0,1-6.75-3.87,6.94,6.94,0,0,1-2.49-3.61,4.3,4.3,0,0,1,1.48-3.83,14.18,14.18,0,0,1,3.37-2.38c.59-.35,1.24-.58,1.86-.87.32-.14.66-.21,1-.32a5,5,0,0,1,1-.26c2.7-.62,5.45-.21,8.22.19a25.08,25.08,0,0,0,4.28.32,17,17,0,0,0,2.22-.2l1.12-.25.28-.07.79-.21,1.65-.45,1.64-.44c.28-.09.53-.13.83-.25l.91-.34c1.2-.47,2.4-1,3.59-1.46l.89-.38,1.39-.73c.93-.52,1.84-1.06,2.73-1.64a34.12,34.12,0,0,0,2.74-2.16c.44-.38.88-.78,1.31-1.17s.82-.9,1.23-1.36a33.75,33.75,0,0,0,2.24-2.88c.63-1,1.23-2.05,1.78-3.11a22.61,22.61,0,0,0,1.31-3.12,23.71,23.71,0,0,0,.91-3.07c.2-1,.38-1.92.53-2.89a11.84,11.84,0,0,0,.15-1.35l.09-1.29.06-1.29v-.65l0-.57q0-1.14-.12-2.28c0-.37-.05-.78-.09-1.11l-.14-1-.31-2c-.24-1.28-.53-2.44-.82-3.66s-.64-2.21-1-3.31l-1.09-3A95.75,95.75,0,0,0,191,260.76a189.15,189.15,0,0,0-11.09-17.85c-3.8-5.52-7.73-10.81-11.39-15.84a10.12,10.12,0,0,1-1.44-2.35c-.12-.46.09-.49.62.2,4.8,6.05,10,12.27,15,18.78,2.52,3.27,5,6.64,7.42,10.24a115.37,115.37,0,0,1,7.08,11.8,72,72,0,0,1,3.24,7.17c.26.62.49,1.38.73,2.07s.49,1.38.7,2.15a47.28,47.28,0,0,1,1.18,4.94l.24,1.35a13.7,13.7,0,0,1,.2,1.43c.1,1,.19,2.07.25,3.12a16.11,16.11,0,0,1,0,1.72l-.06,1.8c0,.62,0,1.17-.13,1.85s-.2,1.38-.31,2.06-.25,1.38-.39,2.06-.4,1.5-.63,2.24-.5,1.51-.78,2.25c-.15.38-.28.75-.44,1.12l-.57,1.18a33,33,0,0,1-2.67,4.53,38.32,38.32,0,0,1-3.46,4.14,47.61,47.61,0,0,1-3.95,3.39,42.69,42.69,0,0,1-4,2.52l-1,.56a3.14,3.14,0,0,1-.39.19l-.31.14-1.24.56-2.52,1.08A33.93,33.93,0,0,1,176.1,323l-2.17.64-.49.19a10.13,10.13,0,0,1-3.72.64,19.37,19.37,0,0,0-3.81.17,5.76,5.76,0,0,0-3,1.65,4.55,4.55,0,0,0-1.56,3,2.92,2.92,0,0,0,.89,2,8,8,0,0,0,1.84,1.41,23.79,23.79,0,0,0,7.43,2.57c1.08.19,2.05.39,2.9.62.43.11.83.23,1.21.36l.27.09.14.05.9.53c1.21.72,2.34,1.35,3.72,2.26a85.59,85.59,0,0,1,15.58,12.63,53,53,0,0,1,3.48,4.13l.41.54a2.57,2.57,0,0,1,.24.35l.26.4,1,1.62a28.22,28.22,0,0,1,1.89,3.42,19,19,0,0,1,1.22,14.4c-.22.56-.42,1.13-.68,1.67s-.58,1.05-.88,1.57a16.48,16.48,0,0,1-2.33,2.74,8.46,8.46,0,0,1-1.35,1.18l-1.45,1.06c-.53.29-1.07.58-1.62.86l-.82.4-.88.32c-.59.2-1.18.4-1.78.58s-1.24.28-1.86.41-1.27.22-1.91.31-1.3.11-2,.14-1.32.06-2,.06l-1.63-.06-1.61,0-.41,0-.28,0-.53-.05-17-1.38c-11.33-.91-22.65-1.86-34.11-2.53-5.74-.37-11.48-.72-17.3-.94s-11.66-.5-17.57-.55A422.75,422.75,0,0,0,48,383.74l-2.85.26-1.42.14-.29,0-.9.16-1.79.3-3.57.57q-3.55.53-7,1.18c-2.33.41-4.66.83-7,1.28-3.47,1.06-6.61-.22-7.11-3.08A5.52,5.52,0,0,1,18,379.71l-.87.09-1.37-.15A4.61,4.61,0,0,1,12.58,378l-1-1.11c-1.33-2.18-3.49-3.95-4.67-6.43l.19-1-.26-.26a4.46,4.46,0,0,1-1.73-2.52l0-1.2a10.36,10.36,0,0,1,1.1-3.93,3.65,3.65,0,0,1,.18-1.47,5,5,0,0,1-.59-3.89A.72.72,0,0,1,5.91,355a1.08,1.08,0,0,1,.5-.18h0a9.36,9.36,0,0,0-.57-.75l-.58-.19c-1-.22-1-.22-1.83-.43a5.18,5.18,0,0,1-1.23-1c-.93-2.2-.94-2.21-.87-3.14a2.29,2.29,0,0,1,.14-.27l-.9-.47a2.59,2.59,0,0,1-.33-.39c-.06-.51-.06-.51-.19-.7a1.81,1.81,0,0,1,0-.39c.33-.54.33-.54.33-.7a1.49,1.49,0,0,1,.19-.27l.66-.22,1,1.37.18-.44.25.61-.16-.55.49.36-.56-.52a4.88,4.88,0,0,0,1.55.27,2.06,2.06,0,0,0,.89,0,2,2,0,0,1-.05-.29l2.34.57a2.93,2.93,0,0,1,.28.36.54.54,0,0,1,.55-.16l.6.12.13-.07v0l.49-.22.11,0h0c.72-.31,1.44-.63,2.17-.93a8.83,8.83,0,0,1,1,.34l-.29-.26c-.19-.18,0-.62-.13-.67a53,53,0,0,0-8.08-2.49,1,1,0,0,1-1.06-.7c-.09-.4.25-.73.75-.73a18.83,18.83,0,0,1,8.94-.91,34.11,34.11,0,0,1,9,2.53c1.48.35,2.93.78,4.4,1.13l-.2-.23,1.13.47.12,0-.85-.87-.59-.3A86.33,86.33,0,0,1,15.63,340c-1.82-.65-3.4-1.65-5.16-2.47-.45-.1-.77-.43-.73-.77s.46-.5.9-.4a41,41,0,0,1,8.93,1.4,23.72,23.72,0,0,1,7.91,3.63,6.76,6.76,0,0,1,2.81,1.08l.05,0-.62-.71c.77.27,1.16.83,1.85,1.14l-.23-.87c1.88.52,3.84.88,5.73,1.37a27.31,27.31,0,0,1,5.46,1.8l.39.13c.75-.15,1.51-.3,2.31-.38l.6,0H46l1,.14,1.91.29q3.84.57,7.93,1.26l-5.5-1.08L48.55,345,46,344.48l5.8.83,6,.91c4,.72,8.06,1.41,12.26,2.24,5.65,1.22,11.49,2.33,17.17,3.68s11.27,2.57,16.51,3.85c10.47,2.51,19.54,4.89,25.34,6.56,10.77,2.07,21.52,4.07,32.27,5.93,5.37.89,10.75,1.83,16.12,2.61l4,.62,2,.29c.42,0,.84.06,1.26.11a2.86,2.86,0,0,0,.44,0h.37a6.15,6.15,0,0,0,.73-.06,4.4,4.4,0,0,0,1.38-.41,2.4,2.4,0,0,0,1.41-2.33,5.13,5.13,0,0,0-1-2.67l-.24-.34a5.13,5.13,0,0,0-.35-.43l-1.09-1.2-1.2-1.17c-.4-.4-.87-.77-1.3-1.14A43.07,43.07,0,0,0,178,358.3,58.17,58.17,0,0,0,171.4,355a14.4,14.4,0,0,0-1.87-.69l-2-.64L161,351.53c-.3-.09-.56-.19-.89-.27l-1.1-.17-2.21-.35-4.43-.7c-1.42-.19-3.12-.56-4.71-.85l-4.85-.92-2.42-.47-2.13-.61L134,346l-2.13-.62-1.07-.31c-.36-.1-.6-.2-.91-.31l-3.53-1.23-2.75-1-1.21-.46a5.49,5.49,0,0,1-.71-.38c-.8-.48-1.28-.83-1.3-1s.61.07,1.44.39c.42.16.91.36,1.45.59a9.14,9.14,0,0,0,1.12.41l1.38.47,5,1.71,1.26.43,1.5.43,3,.85,3,.86a26.13,26.13,0,0,0,3.11.78l6.74,1.29c2.32.47,4.3.76,6.36,1.1l3.08.49,1.53.25a2.81,2.81,0,0,1,.68.17l.6.19,8,2.59c.47.16,1,.31,1.41.48l1.23.56c.82.38,1.67.73,2.45,1.15s1.61.81,2.38,1.25l2.31,1.35a37.27,37.27,0,0,1,7.91,6.43l.78.87.4.54a8.63,8.63,0,0,1,.64,1.07,5,5,0,0,1,.63,2.35,2.8,2.8,0,0,1-1.08,2.14,4.79,4.79,0,0,1-2.29.87,7.49,7.49,0,0,1-1.25.07,1.42,1.42,0,0,1-.35,0l-.48-.05-1-.08-5.86-.84c-3.91-.56-7.83-1.17-11.74-1.8,3.27.56,6.54,1.14,9.8,1.64l4.91.77,2.46.38c.47.08.67.07,1,.11l.83.09a1.73,1.73,0,0,0,.35,0h.84a8.19,8.19,0,0,0,1.11-.12,4.5,4.5,0,0,0,2.07-.85,3,3,0,0,0,1.12-1.9A4.53,4.53,0,0,0,190,368a9.32,9.32,0,0,0-1.09-2.06c-.13-.18-.22-.32-.38-.53l-.69-.79a20.74,20.74,0,0,0-1.45-1.54,42.34,42.34,0,0,0-7.05-5.51,59.64,59.64,0,0,0-8.28-4.37c-1.71-.62-2.78-1-5.83-2.06l-1.95-.66-1-.33a5.07,5.07,0,0,0-1.05-.3l-4.88-.9-2.5-.45c-.84-.15-1.79-.36-2.68-.54l-5.45-1.12-1.37-.28c-.45-.1-.82-.23-1.24-.34l-2.43-.72L135.79,344c-1.48-.46-2.74-.93-4.11-1.4l-4-1.4-5.28-2.52c-2.12-.94-4.17-1.88-6.07-2.88a12.43,12.43,0,0,1-2.35-1.51c-.69-.51-1.78-1-2.53-1.55l-1-.79c-.17-.13-.3-.26-.5-.39l-.62-.42-1.25-.82-.88-.82-.44-.42-.58-.44-1.17-.88c-.54-.59-1.11-1.16-1.62-1.78-.28-.31-.5-.6-.82-.93l-1-1-.26-.25-.18-.26-.35-.5c-.24-.33-.48-.67-.7-1s-.4-.68-.71-1.09l-.9-1.18L98,318.56c-.18-.41-.32-.87-.49-1.29s-.27-.93-.41-1.38-.36-1-.53-1.54a2.21,2.21,0,0,1-.14-.8l-.06-.81V311l0-.94,0-.46a2.24,2.24,0,0,1,.09-.45,13.84,13.84,0,0,1,.5-1.78,15.33,15.33,0,0,0,.56-1.78c.09-.29.16-.6.26-.89l.48-.79.48-.79.41-.79a4.8,4.8,0,0,1,.94-1.5c.4-.45.82-.89,1.21-1.34l1-1.35a5.26,5.26,0,0,1,1.28-1.2c.47-.37,1-.74,1.4-1.11.86-.75,1.67-1.55,2.58-2.26l1.36-1.06a10.87,10.87,0,0,1,1.41-1l3-1.84,3-1.6c1-.54,2-.95,3-1.43l2.92-1.32L123,285a6,6,0,0,1,.88-.12l1.82-.2.91-.09a4.45,4.45,0,0,0,.73-.26l1.41-.55.7-.28c.28,0,.62,0,.93,0h1.9c.31,0,.64,0,.95,0l.8-.21,1.6-.41.4-.11a1.06,1.06,0,0,1,.45-.05l1.07.08,2.14.14a8.14,8.14,0,0,0,2-.12l2-.25c.32-.05.69-.07,1.08-.09l1.13-.06,2.27-.12c1.38,0,2.85,0,4.26,0a17.28,17.28,0,0,0,2.15-.1l2.15-.16a42.47,42.47,0,0,1,4.4-.12h2.22c.25,0,.22-.05.3-.08l.18-.13.35-.26,1.33-.95a6.51,6.51,0,0,1,.91-.53l.12-.06.06,0h0c1.35,2.89-3-6.48,3,6.48v0l0,.09c.1.25.21.5.33.74a6.15,6.15,0,0,0,.44.73c.16.24.38.52.4.58a3.19,3.19,0,0,0,.56.7l.1.09h0l0,.05,0,0,0,0-.07-.05-.28-.18-.26-.12-.06,0-.16-.08-.32-.15a5.47,5.47,0,0,0-.64-.23l-.31-.08a3.15,3.15,0,0,1-.38-.1,10,10,0,0,0-2-.45l-.49,0-.7-.12c-.47-.07-.93-.12-1.39-.15-1-.08-1.69,0-3-.07h-1s0-.17-.06-.25a32.47,32.47,0,0,0-1.72-5.33c-.95-2.36-2.22-5-3.62-7.68s-3-5.49-4.66-8.35c-3.36-5.74-7.13-11.64-11.2-18.2-1.43-2.34-2.88-4.71-4.43-7.41l-.57-1-.49-.89-1-1.79-2-3.64c-2.59-4.91-5.14-10.06-7.42-15.59a108.19,108.19,0,0,1-5.69-17.83,74.8,74.8,0,0,1-1.71-20.4c.16-1.78.33-3.56.56-5.34s.63-3.55,1-5.31A64,64,0,0,1,121,158.34a70.23,70.23,0,0,1,10.56-17.1,83.61,83.61,0,0,1,13.62-12.93A110,110,0,0,1,160,118.89c5.33-2.9,10.41-4.78,11.25-4.72s-2.71,2.08-7.94,4.92c-2.54,1.4-5.09,2.9-7.61,4.53s-5,3.35-7.5,5.26a87.54,87.54,0,0,0-7.24,6.18,83.58,83.58,0,0,0-6.67,7.21A68,68,0,0,0,123.73,160a58.58,58.58,0,0,0-3.07,10.53,53.5,53.5,0,0,0-.82,5.45l-.25,2.73c-.09.91,0,1.8-.08,2.71A75.42,75.42,0,0,0,122.18,202a114.41,114.41,0,0,0,6.51,17.85c2.51,5.54,5.23,10.72,7.93,15.67l1,1.85,1.16,2.06,2.27,3.8c1.48,2.46,2.93,4.8,4.37,7.11,2.86,4.62,5.64,9.11,8.21,13.56s4.94,8.84,6.88,13a61,61,0,0,1,2.39,5.94,21.26,21.26,0,0,1,1.09,4.31,2.83,2.83,0,0,0,.05.42c0,.05,0,.05,0,0h.26a17.71,17.71,0,0,1,2.15.25,14.87,14.87,0,0,1,1.59.22c.26.06.53.12.79.2l.4.13a1.22,1.22,0,0,0,.27.06,5.5,5.5,0,0,1,1,.32l.48.23.19.08a2.24,2.24,0,0,1,.43.26c.06.05,0,0,0,0l0,0,0,0a0,0,0,0,1,0,0l0,0-.14-.13a3.53,3.53,0,0,1-.44-.53c-.07-.11-.07-.14-.19-.31s-.27-.36-.39-.55a7.47,7.47,0,0,1-.58-1.12l-.11-.29c-3.28-7-.93-1.94-1.67-3.51h0l0,0-.23.1-.45.21c-.31.15-.59.3-.91.49l-1.24.72-.61.35-.16.09s-.24,0-.35,0h-.78l-3.15,0c-2.08,0-4.08.29-6.11.3s-4.09-.13-5.85,0l-1.38,0c-.47,0-.94,0-1.33,0l-2.48.2a12.79,12.79,0,0,1-2.6-.11l-1.32-.12-.66-.06a1.77,1.77,0,0,0-.54.07,15.14,15.14,0,0,1-4.38.44l-1.21,0a2.36,2.36,0,0,0-1.09.09l-1.87.55a7.84,7.84,0,0,1-2.18.31l-1.17.1-.59,0-.29,0-.24.09c-1.3.49-2.53.92-3.89,1.49l-2,.8c-.67.29-1.34.63-2,.95s-1.35.61-2,1l-2,1.13a31.44,31.44,0,0,0-3.78,2.52c-1.22.92-2.24,1.91-3.55,2.85s-2.14,2.12-3.25,3.25a7.4,7.4,0,0,0-1.47,1.84l-.56,1-.65,1a6,6,0,0,0-.78,1.94c-.2.67-.47,1.32-.67,2-.5,1.31-.17,2.83-.22,4.06a13.64,13.64,0,0,0,.19,1.84c.21.58.47,1.23.64,1.74a17.49,17.49,0,0,0,1.21,3,16.37,16.37,0,0,0,1.83,2.64,24.68,24.68,0,0,0,1.76,2.31l1.21,1.11c.38.36.66.69,1,1s.65.67,1,1a6.85,6.85,0,0,0,1.11,1,.15.15,0,0,1,.17-.1,4.41,4.41,0,0,1,1.17.41l.9.43c.34.17.7.36,1,.56a26.19,26.19,0,0,1-2.81-2.15c-.4-.36-.79-.73-1.17-1.12s-.75-.75-1.25-1.18a14.06,14.06,0,0,1-2.34-2.54c-.34-.46-.64-.88-1.08-1.4l-.61-.74a5.59,5.59,0,0,1-.46-.77,18.83,18.83,0,0,1-1.47-3.34l-.38-1a3,3,0,0,1-.28-1l-.14-1,0-1.08,0-1.14a3,3,0,0,1,.06-1.15l.26-1.12.39-1.1c.29-.73.45-1.5.8-2.19s.87-1.31,1.24-1.94l.38-.68a2.48,2.48,0,0,1,.43-.64l1.07-1.16c.72-.75,1.26-1.56,2-2.25s1.69-1.28,2.43-1.92,1.51-1.31,2.35-1.88l1.22-.88a9.92,9.92,0,0,1,1.26-.85l2.65-1.53c.89-.52,1.8-.89,2.7-1.34.45-.21.9-.44,1.35-.64l1.35-.54c.9-.36,1.81-.75,2.67-1.05l1.31-.48a3.57,3.57,0,0,1,1.4-.36c1-.1,2.14-.14,3.11-.3l2.56-.74c1,0,2.16,0,3.24,0h.41l.36-.06.7-.13,1.42-.25a3.42,3.42,0,0,1,.75-.09l.9.08,1.8.15.91.08a6.11,6.11,0,0,0,.86,0l1.71-.13c1.08-.11,2.4-.12,3.67-.16.64,0,1.24-.05,1.93,0l2.08,0,2.09,0,2.11-.15c1.41-.1,2.82-.2,4.3-.19l2.2,0h1l.06,0,.45-.25,1.77-1c.45-.24.9-.45,1.36-.65l.17-.07.09,0,1.32,2.83v.07l0,.11c.11.27.24.54.38.81.28.52.79,1.15.85,1.3a4.73,4.73,0,0,0,.31.38c.1.12.32.31.26.26s.06.08.09.1a1.89,1.89,0,0,0-.61-.34l-.27-.14-.36-.16a6.51,6.51,0,0,0-.71-.23l-.35-.08-.57-.18a10.19,10.19,0,0,0-1.14-.25L167,288l-.28,0h-.14l-.19,0-.79-.12-.64-.07c0,.08,0-.25,0-.46s-.05-.4-.06-.6,0-.19,0-.31l-.08-.39-.12-.81-.22-.94-.11-.47-.15-.51-.29-1-.71-2.22a129.57,129.57,0,0,0-5.7-13.27c-2.2-4.51-4.57-9-7-13.57s-4.93-9.1-7.46-14l-1-1.88-1-1.94-1.7-3.62c-1.14-2.44-2.27-4.92-3.37-7.45-1.56-3.15-3.12-6.32-4.53-9.67-.73-1.64-1.37-3.39-2.05-5.08s-1.28-3.47-1.82-5.29A85,85,0,0,1,125,193l-.41-2.95-.2-1.47-.11-1.51-.19-3v-3.06a56.1,56.1,0,0,1,5.71-23.86,70.4,70.4,0,0,1,13.67-18.83,12.31,12.31,0,0,1,2.19-1.89c.4-.21,0,.29-.85,1.16a75.18,75.18,0,0,0-9.89,12.33,61.25,61.25,0,0,0-7,15.08,56.38,56.38,0,0,0-2.31,17A68.34,68.34,0,0,0,128,198.37a17.47,17.47,0,0,1,0-4.08c.13-.95.36-1.43.71-1.36.75.12,1.72,2.6,3.14,6.2a66.86,66.86,0,0,1-2.25-14.07,20.19,20.19,0,0,1,.11-3.79c.11-1,.26-1.51.43-1.46s.32.64.43,1.58.13,2.23.25,3.61c.52,9.68,3.43,18.76,7,27.17,1.78,4.22,3.75,8.31,5.81,12.28,1,2,2.06,4,3.11,5.91l.79,1.46.84,1.52,1.7,2.94c5.66,9.09,11.4,17.69,16.38,26.62a119.65,119.65,0,0,1,6.61,13.47,54.25,54.25,0,0,1,2.17,6.7,18.62,18.62,0,0,1,.59,6c.14-.48.37-.9.51-1.38s.28-.93.43-1.35a8.64,8.64,0,0,1,.8-2.1h0a47.58,47.58,0,0,0-2.54-8.67,150.67,150.67,0,0,0-10.38-19.16c-3.88-6.28-8-12.45-12.13-18.84-2.06-3.16-4.11-6.61-6-9.87S142.72,221,141,217.5s-3.38-7.06-4.86-10.75a92.8,92.8,0,0,1-3.66-11.5,65.48,65.48,0,0,1-1.7-12.26,52.7,52.7,0,0,1,1.08-12.56A50.53,50.53,0,0,1,136,158.56a62,62,0,0,1,6.55-10.47,85.16,85.16,0,0,1,17.39-16.62A202.51,202.51,0,0,1,179.68,119a9,9,0,0,1,2-1,6.6,6.6,0,0,1-1.65,1.13c-8,4.66-16.12,9.53-23.58,15.55a74.17,74.17,0,0,0-19,22l0-.07c.46-.66.67-.72.33.09a28.71,28.71,0,0,1-1.41,2.76c-.5.79-.6.65-.35-.06a50.73,50.73,0,0,0-4.58,27.38,82.49,82.49,0,0,0,7.71,25.82c1.85,4,3.86,7.86,5.95,11.63,1.06,1.88,2.11,3.75,3.19,5.59.52.92,1.09,1.87,1.66,2.81l1.71,2.76c4.61,7.24,9.32,14.15,13.68,21.24-3.87-6.69-8.05-13.23-12.17-19.95-1-1.68-2.05-3.37-3.05-5.13s-1.92-3.45-2.87-5.19c-1.89-3.46-3.71-7-5.43-10.6a119.65,119.65,0,0,1-4.66-11.1c-.71-1.89-1.29-3.84-1.89-5.78s-1.05-3.94-1.41-6a52.42,52.42,0,0,1,.65-24.58,49.5,49.5,0,0,1,3.5-10.28,10.28,10.28,0,0,1,1.45-2.28c.24-.18,0,.5-.47,1.41s-.86,1.81-1.25,2.74c2.74-5.61,6.14-9,6.57-8.57.4.7-2.22,5.11-4.67,10.73a44.87,44.87,0,0,0-3.27,11.82,47.24,47.24,0,0,0-.13,12.23,68.91,68.91,0,0,0,2.54,12,102.78,102.78,0,0,0,4.37,11.44c.75,1.6,1.55,3.18,2.38,4.74s1.84,3.06,2.78,4.57a137.23,137.23,0,0,1-7.52-17.39,67.29,67.29,0,0,1-3.66-18.29,46,46,0,0,1,2.91-18.1,57.72,57.72,0,0,1,9.36-15.85c1.32-1.66,2.67-2.89,2.86-2.77s-.79,1.52-2.08,3.18c-6.46,8.57-10.82,18.71-10.7,29.08a51.4,51.4,0,0,0,2.35,15.42,94.67,94.67,0,0,0,6,14.89c2.4,4.87,5.13,9.66,8,14.45,1.45,2.45,2.81,4.7,4.32,7l4.62,7c3.11,4.73,6.24,9.53,9.23,14.49a163,163,0,0,1,8.42,15.53,69.58,69.58,0,0,1,5.25,11.29,37.48,37.48,0,0,1,1.71,6.85,24.1,24.1,0,0,1-.27,8.6,18.77,18.77,0,0,1-5.33,9.29,19.57,19.57,0,0,1-2.08,1.74c-.7.48-1.43.94-2.17,1.38a8.89,8.89,0,0,1-.92.49l-.83.4-1.67.79c-.55.25-1.13.55-1.68.74l-1.61.55-1.63.55-.41.14-.2.07-.12,0-.48.14c-.64.17-1.26.39-1.89.52l-1.88.33,2,0c.67,0,1.33-.17,2-.25a20.71,20.71,0,0,0,2.34-.53c.92-.25,1.8-.42,2.75-.73s1.91-.72,2.86-1.1l1.41-.57.19-.07.24-.13.49-.26,1-.53a19.92,19.92,0,0,0,1.9-1.2c.63-.48,1.25-1,1.85-1.51A13.28,13.28,0,0,0,187,302.8a22.54,22.54,0,0,0,1.51-1.94,21.21,21.21,0,0,0,2.15-4.21c.25-.7.52-1.43.71-2.13s.29-1.34.41-2l.18-1c0-.32.06-.62.08-.93l.11-1.86c0-1.21-.06-2.27-.11-3.41s-.27-2.07-.43-3.09l-.61-2.84a62.51,62.51,0,0,0-3.47-9.81c-1.32-3-2.76-5.81-4.25-8.5s-3.05-5.27-4.63-7.79c-3.17-5-6.47-9.8-9.77-14.45s-6.65-9.23-9.54-13.61c-3.05-4.7-6-9.37-8.65-14.16a98.39,98.39,0,0,1-6.85-14.79,53.89,53.89,0,0,1-3.14-15.76,5.18,5.18,0,0,1,.05-1.4,1.5,1.5,0,0,1,.2-.69c.15-.11.23.62.24,1.69a52.28,52.28,0,0,0,3,15.15,90.29,90.29,0,0,0,6.54,14.24c2.56,4.64,5.43,9.2,8.43,13.84l1.12,1.73,1.1,1.63,2.33,3.36,4.93,7a280.06,280.06,0,0,1,15.8,24.49,93.14,93.14,0,0,1,6.51,14.1c.24.63.44,1.35.65,2s.43,1.35.6,2.11l.53,2.2.4,2.4a27.94,27.94,0,0,1-.69,11.66,28.32,28.32,0,0,0,1-11.85,46,46,0,0,0-2-8.87,89.36,89.36,0,0,0-6.15-14.16,246.32,246.32,0,0,0-14.8-23.64c-2.53-3.69-5.11-7.34-7.46-10.83l-1.69-2.58-1.75-2.78c-1.14-1.84-2.28-3.69-3.37-5.53-4.37-7.35-8.29-14.77-10.68-22.43a11.09,11.09,0,0,1-.54-2,13.74,13.74,0,0,1-.23-1.63,1.54,1.54,0,0,1-.38-.71,39.08,39.08,0,0,1-1.88-12.34,7.27,7.27,0,0,1,.39-2.26C143.07,174,143.15,174.55,143.14,175.46ZM20.6,352.19l-.15-.17.52.29.73,1.1Zm-9,3.68h0l-.43-.63ZM187.65,373.2a9.78,9.78,0,0,1-1.71.24h-.86c-.3,0-.79-.08-1.17-.11l-.63-.05-.88-.13-1.76-.26-3.51-.53c-4.68-.69-9.35-1.5-14-2.29q-14-2.43-27.87-5.27l13.61,2.42q10.56,2,21.13,3.82c3.53.62,7.06,1.16,10.59,1.74l2.66.41,1.82.2A9.81,9.81,0,0,0,187.65,373.2ZM14.41,347.68a12.41,12.41,0,0,1,2.13,2.16,6,6,0,0,1,1.69,0c1.55.18,3.06.41,4.54.7-.19-.39.17-.31.35-.34l.55,0-4.79-1.23A42.8,42.8,0,0,1,14.41,347.68Zm-11.16.95-.15-.16.27-.62Zm-.42,1,.24.1C3,350,2.92,349.92,2.83,349.67Zm2.15.87a1.93,1.93,0,0,0-.32-.35Zm2.28,18.18.63-3.14-.71,3Z"/><path d="M111.85,400.82l0,.26a.48.48,0,0,1-.43-.25c.63,2.37,3.21,3.24,5.43,3.08a1.1,1.1,0,0,0,1.49-1.61,1.29,1.29,0,0,1-.16-.41,8.55,8.55,0,0,0-1.17-3.5l.21.84a2.9,2.9,0,0,0-.63-.88l-.11.34a2.53,2.53,0,1,0-4.83,1.52Z"/><path d="M111.4,404.91c-.3-.74-.56-1.48-.82-2.23l0-.24-.53.76,0,0a4.45,4.45,0,0,1,2.86.55l.34.1a.86.86,0,0,0,.55-.21.8.8,0,0,0,0-1.14l-.35-.38c-.65-1.18-2.17-2.38-3.67-1.57-.35.2-.52.64-.76,1A1.12,1.12,0,0,0,110.8,403l.17.3-.33,0c.46-.32,1-.07,1.49,0l.58.26.6-1.35-.37-.05a1.2,1.2,0,0,0,0,.17,10.07,10.07,0,0,1-2.13-.34l-1-.11a.68.68,0,0,0-.53.76l.11.48,0-.25c.49.79,1.1,1.51,1.58,2.31a.28.28,0,0,0,.38.12A.27.27,0,0,0,111.4,404.91Z"/><path d="M108.84,403.16a.63.63,0,0,0-.25-.45l-.14,0,.07.36C108.56,403.37,108.73,403.33,108.84,403.16Z"/><path d="M108.45,402.75l0-.16,0,.16h0Z"/><path d="M133.56,418.88a38.13,38.13,0,0,0,2.88,3.07s.11,0,.17-.07.07-.14,0-.17a42,42,0,0,1-2.87-3.08s-.11,0-.16.06S133.53,418.84,133.56,418.88Z"/><path d="M136.33,432.22a.29.29,0,0,0-.13.18c0,.06,0,.1.09.07a.31.31,0,0,0,.14-.18C136.44,432.22,136.39,432.19,136.33,432.22Z"/><path d="M131.83,437.55a1.82,1.82,0,0,0-.75.07,0,0,0,0,1-.06-.06.44.44,0,0,1-.29.21,15.4,15.4,0,0,1-4.82-.83,1.78,1.78,0,0,1-.26.22c-.3.22-.57.25-.7.07l-.07-.17c-.38-.56-.79-1.08-1.15-1.65a.81.81,0,0,1-.54,0,13.87,13.87,0,0,1-2.06-.08,1,1,0,0,1-.16.31c-.2.23-.45.33-.56.23l-.19-.13c.13.2.25.4.37.6a.18.18,0,0,1,0,.1,3.82,3.82,0,0,0,.6.43,15.18,15.18,0,0,0,6.65,1.63c.06,0,.1,0,.07.09s-.09.15-.15.16c-2,.44-4.08,1.37-5.85,1.29a31.17,31.17,0,0,1-6-.8c-1.45-1.13-3.26-1.59-5.09-2.31-.61-.24-1.2-.51-1.77-.79-.08-.05-.09,0-.25-.14l-.38-.25-.76-.5-1.51-1c-2-1.36-3.9-2.79-5.85-4.26a3.32,3.32,0,0,1-1.2-4.54,3.35,3.35,0,0,1,2.56-1.63l-.33-.29-.43-.61a2.9,2.9,0,0,1-.47-2l.08-.91c.37-1.55.27-3.16.78-4.69l.44-.38v-.21a2.86,2.86,0,0,1,.31-1.72l.46-.52a7.13,7.13,0,0,1,1.87-1.38,2.36,2.36,0,0,1,.62-.6,3.4,3.4,0,0,1,1.24-1.92.47.47,0,0,1,.46-.5.48.48,0,0,1,.26.07h0a3.4,3.4,0,0,0,.07-.49l-.15-.25-.53-.72a2.33,2.33,0,0,1-.08-.8c.46-1.21.46-1.21.84-1.59l.15-.08c-.13-.32-.14-.35-.17-.44a1.17,1.17,0,0,1,0-.25c.17-.24.17-.24.19-.35a1,1,0,0,1,.12-.18c.33-.15.33-.15.39-.22a.85.85,0,0,1,.17-.06l.34.07-.12.85.23-.15-.13.33.14-.28.06.28,0-.36c.33.4.33.4.5.51a.82.82,0,0,0,.35.22,1.1,1.1,0,0,1,.09-.14c.35.42.35.42.69.85a1.57,1.57,0,0,1,0,.24.25.25,0,0,1,.27.07l.19.22h.07v0l.28,0H111l1.19.12a3.51,3.51,0,0,1,.27.4l0-.19c0-.14.23-.3.2-.35a16.74,16.74,0,0,0-2.19-3.15.41.41,0,0,1-.15-.56.4.4,0,0,1,.56-.14,9,9,0,0,1,6.55,4.94c.45.54.91,1,1.38,1.57v-.17l.29.49,0,0v-.64c0-.1-.09-.19-.13-.29a26.3,26.3,0,0,1-2.71-4,22.35,22.35,0,0,1-1.16-2.29.37.37,0,0,1,0-.52.35.35,0,0,1,.51,0c2.28,1.32,4.43,3.4,5,6a2.17,2.17,0,0,1,.76,1.17v0l0-.51c.22.3.16.69.33,1l.25-.52c1.17,1.36,2.78,2.39,3.56,4l.11.16a8.82,8.82,0,0,1,2,.46l-.23-.41a1.44,1.44,0,0,1,1,.28,3.12,3.12,0,0,1,.38,3.37,49.4,49.4,0,0,0,4.52,2.64c.09,0,.08.18,0,.32s-.24.24-.33.2a16.17,16.17,0,0,1-3.68-1.38,14.76,14.76,0,0,0,2.13,2.46l.37.19a.71.71,0,0,1,.27.32,13,13,0,0,0,3.43,2.26,29.9,29.9,0,0,0,3.51,1.1,12.29,12.29,0,0,1,4.77,1.8c.21.09.18.46-.07.82s-.61.58-.82.48c-3.56-1.06-7.24-1.86-10-4.24l-.87-.77-.1.14a2,2,0,0,1-.46.45,9.64,9.64,0,0,1,.86,1,6.52,6.52,0,0,1,3.41,1.71,8.9,8.9,0,0,1,1.28,2.47c1,.43,2,.8,3,1.26,0,0,.06.07,0,.14a.22.22,0,0,1-.16.13,13.88,13.88,0,0,1-2.56-.33,2.5,2.5,0,0,1-1.28,1.55l.38.33c.08.08.05.25-.07.41s-.3.23-.37.17l-1.6-1.35c-.79-.33-1.56-.7-2.32-1.08a3.41,3.41,0,0,1-.39.9h0l.32.22a13.91,13.91,0,0,1,6.62,3.22s0,.11,0,.18-.13.11-.16.08a11.87,11.87,0,0,0-1.75-1.33h0a.27.27,0,0,1-.13.18c-.06,0-.11,0-.1-.06a.28.28,0,0,1,.14-.18,14.65,14.65,0,0,0-3.87-1.62,17.1,17.1,0,0,1,2.92,2.3l.53,0s.05.08,0,.16-.12.12-.16.11H136c.16.17.07.58-.23,1s-.69.54-.87.38a18.48,18.48,0,0,1-1.64-1.07l-.22-.06-.31,0c.68.77,1.34,1.57,2,2.38.07.05.05.2-.06.33s-.24.21-.31.16a28.23,28.23,0,0,1-5.11-2.14l-2.75.64.17.16c1.54,1.19,4.12.57,5.87,1.39.05,0,0,.09,0,.16s-.12.12-.16.09a16.71,16.71,0,0,0-3-.46,15.31,15.31,0,0,0-2.55-.28c1.26.73,2.9.87,4.28,1.42.07,0,.09.08.07.17a.3.3,0,0,1,.1-.07,2.39,2.39,0,0,1,.78-.07c.06,0,.07.05,0,.13A.27.27,0,0,1,131.83,437.55Zm-18.28-26.78v-.12c0,.08.06.18.09.28l-.15.76Zm-5-.65h0l.08-.43Zm21,8.75a4.52,4.52,0,0,1-1.41-1.86l.5.25C129.05,417.77,129.35,418.3,129.64,418.87Zm-16.79-11.93a6,6,0,0,1,0,1.59,2.32,2.32,0,0,1,.69.42,19.82,19.82,0,0,1,1.52,1.52c.08-.24.2-.12.28-.09l.24.12c-.48-.6-1-1.21-1.43-1.83A16.72,16.72,0,0,1,112.85,406.94Zm-4.68-2.46v-.11l.33-.2Zm-.55.35,0,.11C107.56,405,107.56,405,107.62,404.83Zm.5,1a.63.63,0,0,0,0-.24Zm-6,8.83,1.41-1.19-1.39,1.12Z"/></g></g></svg>