<svg xmlns="http://www.w3.org/2000/svg" viewBox="0 0 427.55 325.84"><g id="Layer_2" data-name="Layer 2"><g id="Layer_1-2" data-name="Layer 1"><path d="M230.21,66.12l.62-.07c0,.37-.36.68-.81,1a12.82,12.82,0,0,0,6.9-4.51,20.43,20.43,0,0,0,3.72-7c1.29-.86,1.84-2.32,1.19-3.3s-2.26-1.07-3.64-.2a4.56,4.56,0,0,1-1.11.29,24.49,24.49,0,0,0-9.31,2.19L230,54a9.13,9.13,0,0,0-2.61,1.35l.75.24c-3.55.86-6.37,4.18-6.09,7.22s3.36,4.6,6.68,3.65Z"/><path d="M239.29,67.36c-1.79.57-3.59,1.08-5.41,1.62l-.55-.06,1.49,1.2-.06-.1c-.11-2.13,1.25-4.31,2.69-6.16l.43-.75a1.43,1.43,0,0,0-.13-1.19,1.83,1.83,0,0,0-2.58-.26l-1.09.73c-3.12,1.3-6.81,4.76-5.49,8.11.31.76,1.28,1.14,2,1.65a2.66,2.66,0,0,0,3.62-.18,2.46,2.46,0,0,0,.47-3.46l.75-.35c0,.23-.07.48-.1.72-.51-1,.32-2.15.66-3.25l.93-1.25L234.19,63l-.34.82.36.1a33.82,33.82,0,0,1-1.87,4.66l-.69,2.2a1.27,1.27,0,0,0,1.52,1.19l1.13-.23-.57,0c2-1.06,3.87-2.35,5.88-3.28a.71.71,0,0,0,.47-.79A.57.57,0,0,0,239.29,67.36Z"/><path d="M234.26,72.8a1.7,1.7,0,0,0-1.12.56l0,.3.85-.14C234.63,73.41,234.59,73.05,234.26,72.8Z"/><path d="M233.18,73.66l-.36.06.34,0s0,0,0,0Z"/><path d="M417.25,197.28a104.63,104.63,0,0,1,7,21.55,123.11,123.11,0,0,1,2.63,21.69,110.69,110.69,0,0,1-1.44,22.25,86.08,86.08,0,0,1-7.2,22.9l-.68,1.43-.8,1.42-1.63,2.84-.83,1.4-.91,1.34c-.61.88-1.2,1.78-1.86,2.64a68.64,68.64,0,0,1-8.89,9.75,63.32,63.32,0,0,1-23.11,13.26,66.27,66.27,0,0,1-13,2.73c-1.1.1-2.19.2-3.29.27l-3.29.1c-2.13,0-4.21-.07-6.26-.25a93.62,93.62,0,0,1-22.5-4.83,12.33,12.33,0,0,0-3.48-.89,8.13,8.13,0,0,0,2.87,1.3,96.54,96.54,0,0,0,22.53,5c1,.08,2.07.16,3.12.22l3.17.08c2.19,0,4.41-.1,6.61-.32a67,67,0,0,0,13.09-2.62,63.94,63.94,0,0,0,23.42-13.13,67.61,67.61,0,0,0,9.06-9.74c.69-.86,1.29-1.75,1.91-2.64s1.25-1.77,1.79-2.73l1.65-2.85c.52-.95,1.13-1.91,1.54-2.87a84.67,84.67,0,0,0,7.43-23,111.78,111.78,0,0,0,1.58-22.34,123.71,123.71,0,0,0-2.5-21.77,106.56,106.56,0,0,0-6.85-21.64A18,18,0,0,0,416,194C415.82,194,416.38,195.44,417.25,197.28Z"/><path d="M134.75,242.53c1.06-.33,1-.46-.16-.3a20.89,20.89,0,0,0-3.77.88c-.88.33-.8.48.17.28C132.12,243.16,133.86,242.83,134.75,242.53Z"/><path d="M143.06,230.46l2.6-.53,2.59-.38,5.06-.75,4.9-.47,2.38-.23,2.32-.12a31.07,31.07,0,0,1,3.38.05c-.42-.21,1-.49,3.59-.37l4.85.18,4.86.44c1.64.11,3.24.41,4.87.63l2.44.37c.85.15,1.78.38,2.67.57,3.43.81,6.38,1.68,9.44,2.58s6,1.83,9,2.77c11.94,3.8,23.86,7.9,35.82,12.16s24,8.66,35.91,13.21,23.92,9.17,35.79,13.94a6.49,6.49,0,0,1,2.24.28,62.52,62.52,0,0,1,7.26,2.32c2.88,1.07,6,2.36,9.15,3.65,1.56.67,3.09,1.31,4.62,1.91,2.31.86,4.58,1.66,6.8,2.32s4.4,1.17,6.52,1.57a42,42,0,0,0,6.16.68c1,.06,1.92,0,2.86,0s1.86-.12,2.77-.27a28.93,28.93,0,0,0,18.77-10.79c.45-.64.82-1.41,1.26-2.14s.74-1.56,1.17-2.35a23.32,23.32,0,0,0,1.14-2.6l.59-1.37c.16-.5.33-1,.5-1.52,4-13.89,2.68-31.87-2.63-46.71.15,1,.1,1.62-.14,1.69-.3-.08-.86-.92-1.48-2.23-.31-.65-.62-1.44-1-2.22s-.72-1.74-1.11-2.57-.79-1.71-1.23-2.49-.83-1.59-1.31-2.3c.35.5.58,1.13.89,1.68a19,19,0,0,1,.85,1.75l.81,1.82.73,2,.38,1c.11.34.21.71.32,1.06l.65,2.13c.37,1.46.75,2.93,1.07,4.42.17.87.31,1.68.42,2.42a87.59,87.59,0,0,1,1.67,20.54c-.35,7.44-1.73,14.56-4.21,19.9a13.49,13.49,0,0,1-1,1.9,15.8,15.8,0,0,1-1,1.83l-.57.89c-.2.3-.42.56-.62.84s-.4.57-.61.83l-.66.77a28.71,28.71,0,0,1-2.79,2.83,26,26,0,0,1-3.16,2.26,24.63,24.63,0,0,1-3.46,1.8c-.62.21-1.21.51-1.86.68l-.94.31-1,.24a28.24,28.24,0,0,1-8.42.75,53.51,53.51,0,0,1-10.05-1.57c-3.56-.9-7.28-2.07-11.16-3.47s-7.78-3-12.09-4.69-8.42-3.34-12.63-5c-8.4-3.3-16.81-6.43-25.21-9.53s-16.79-6.13-25.19-9.1-16.81-5.85-25.24-8.7a25.89,25.89,0,0,1-3.75-1.46c-.61-.35-.43-.47.82-.09l31.41,9.63c10.26,3.22,20.43,6.42,30.75,9.79s20.78,6.94,31.64,10.87c2.78,1,5.3,1.91,7.85,2.79s5,1.67,7.43,2.37A66.9,66.9,0,0,0,354,278.7c.61.07,1.19.09,1.75.1s1.12,0,1.67,0,1.05-.06,1.57-.08.92-.12,1.39-.15a19.71,19.71,0,0,0,5-1.4A19.41,19.41,0,0,0,373,271.3c.24-.36.52-.65.76-1s.48-.73.72-1.1.44-.79.68-1.18.34-.8.54-1.19a22.54,22.54,0,0,0,1.08-2.58,12.89,12.89,0,0,0,.47-1.48c.15-.52.3-1,.47-1.53a60.11,60.11,0,0,0,1.55-14.94,77.09,77.09,0,0,0-2-16.37A67.84,67.84,0,0,0,375,222.3l-.66-1.77-.73-1.63-.35-.82-.37-.68-.71-1.38c-.53-.79-1-1.68-1.49-2.35s-1-1.38-1.51-2.06c-.28-.3-.53-.62-.79-1s-.58-.6-.86-.92-.63-.61-.93-.94a10.73,10.73,0,0,0-1-.94c-.19-.16-.36-.33-.54-.5s-.42-.33-.62-.49c-.43-.33-.8-.68-1.31-1s-.91-.72-1.46-1.07l-1.64-1.1c-2.29-1.5-5.09-3.09-8.22-4.84l-1.22-.71-1.28-.74-1.29-.75-1-.63-2-1.25-2.06-1.2c-2.78-1.53-5.63-3-8.59-4.34a103.33,103.33,0,0,0-19.44-6.46c-1.79-.42-3.6-.82-5.53-1.21l-6-1.14c-2.09-.4-4.36-.85-6.85-1.41-.65-.15-1.23-.28-1.94-.47l-1.05-.28-.62-.16-.15,0s-.09-.13-.14-.2a.88.88,0,0,0-.06-.1l-.08,0-.16-.05c-.86-.28-1.73-.52-2.58-.82s-1.66-.67-2.47-1.05-1.54-.88-2.34-1.25l-1.21-.55a3.63,3.63,0,0,1-.59-.3l-.5-.45-1-.88c-.32-.3-.61-.64-.92-.95a17.82,17.82,0,0,1-1.67-2c-.52-.72-1.1-1.33-1.64-2l-.21-.25c-.05-.09-.1-.2-.14-.29l-.28-.6-.55-1.19c-.33-.81-.6-1.64-.9-2.47-.15-.41-.29-.82-.4-1.24l-.17-.63c-.05-.21-.06-.45-.09-.68-.11-.91-.2-1.82-.28-2.72l-.12-1.35a7.67,7.67,0,0,1,0-1.36l.12-2.79a4.25,4.25,0,0,1,.28-1.39l.42-1.39c.59-1.87,1-3.64,1.48-5.45,0-.24.4-.39.43-.59l.23-.59.2-.49.18-.43c.25-.58.49-1.14.77-1.68a58.17,58.17,0,0,1,7.64-12c.72-.92,1.57-1.81,2.37-2.71s1.71-1.75,2.7-2.61a32.1,32.1,0,0,1,3.15-2.46,26.14,26.14,0,0,1,3.58-2.16l.94-.5,1-.41,2-.8c.67-.27,1.37-.39,2.06-.6a20.34,20.34,0,0,1,2.06-.48,39.75,39.75,0,0,1,3.95-.55c.61,0,1.29-.14,1.87-.17l1.73-.1,1.62-.11c.51,0,1.08-.07,1.53-.12a23.05,23.05,0,0,0,2.59-.39,7.66,7.66,0,0,0,1.1-.28l.89-.34a3.1,3.1,0,0,0,.7-.43c.18-.16.44-.24.55-.43a3.32,3.32,0,0,0,.63-1l.21-.47.17-.59c.1-.27.24-.84.36-1.25s.26-1,.41-1.46a60.25,60.25,0,0,0,1.46-7.27,21.74,21.74,0,0,0-.09-7.14,10.27,10.27,0,0,0-.9-2.62,8.31,8.31,0,0,0-1.29-1.72A13.29,13.29,0,0,0,321,86.9a25.85,25.85,0,0,0-3.18-1.74,40.65,40.65,0,0,0-9.13-2.94,22.7,22.7,0,0,0-4.79-.55,13.62,13.62,0,0,0-3.07.56,22.68,22.68,0,0,0-2.8,1.2,31.79,31.79,0,0,0-2.91,1.76c-.25.15-.52.38-.78.55s-.51.36-.79.58l-.8.61a1.43,1.43,0,0,0-.13.13l-.37.37-.72.75-.74.76-.76.81c-1,1.08-2.05,2.17-3.11,3.38s-2.14,2.44-3.22,3.79c-1.32,2.32-4.46,2.44-7.18.11a8,8,0,0,1-2.72-5.42l-.52.52-1.07.57a4.57,4.57,0,0,1-3.54.23L267,92.5c-2.8-1.17-5.86-1.39-8.81-2.7l-.71-1-.41,0a6,6,0,0,1-3.37-1l-1-1a13.5,13.5,0,0,1-2.55-4A4.85,4.85,0,0,1,249,81.42a6.78,6.78,0,0,1-3.73-2.84.93.93,0,0,1-.93-1,1.12,1.12,0,0,1,.21-.53h0c-.42-.1-.55-.13-1.05-.21-.36.2-.58.3-.58.3-.91.56-.91.56-1.69,1.06a5.61,5.61,0,0,1-1.76.12c-2.53-1-2.55-1-3.29-1.86-.05-.11-.09-.22-.13-.33l-1,.36a2.93,2.93,0,0,1-.56,0c-.48-.36-.48-.36-.73-.41a2.86,2.86,0,0,1-.37-.27c-.23-.72-.23-.72-.37-.85a1.63,1.63,0,0,1-.09-.37c.17-.47.24-.66.26-.74l1.88.28-.25-.51.7.3-.59-.33.66-.11-.84,0a5.87,5.87,0,0,0,1.35-1.06,2.41,2.41,0,0,0,.63-.76,2.84,2.84,0,0,1-.29-.2c1.1-.75,1.11-.74,2.21-1.43a4.34,4.34,0,0,1,.52.08.56.56,0,0,1,.28-.57l.55-.38,0-.15,0,0c.07-.23.13-.4.19-.58l0-.13h0c.14-.4.33-1,.89-2.53a11.2,11.2,0,0,1,1-.52l-.44,0c-.3,0-.54-.53-.66-.49a38.82,38.82,0,0,0-8.23,4.49,1.1,1.1,0,0,1-1.36.32.83.83,0,0,1-.08-1.26c2.2-6.44,8.75-11.3,15.56-13.37,1.59-.79,3.16-1.61,4.77-2.39l-.37-.08,1.38-.42.14-.07-1.44-.19-.77.17c-3.66,2-7.61,3-11.41,4.72-2,.92-4.11,1.4-6.17,2.21a.89.89,0,0,1-1.22,0,.84.84,0,0,1,.36-1.13,34.54,34.54,0,0,1,8.5-6.45,24.51,24.51,0,0,1,10-3,7.57,7.57,0,0,1,3.5-1.11l.06,0-1.12-.25c.92-.33,1.75,0,2.65-.25l-.87-.72c1.11-.45,2.23-1,3.38-1.45s2.27-1,3.44-1.45a24.49,24.49,0,0,1,7.17-1.78c.18,0,.35-.08.52-.11a21.53,21.53,0,0,1,2.46-1.92c.22-.15.45-.29.68-.43l.09-.05.05,0h0l.09,0c.53-.2,1.11-.37,1.67-.56,1.13-.36,2.24-.73,3.44-1a66.84,66.84,0,0,1,15.32-2.39,68.8,68.8,0,0,0-10.87,1.07c-1.77.29-3.47.69-5.2,1.1-.87.19-1.68.44-2.53.67l-1.26.36-.63.19-.25.08h0l0,0,.29-.1c.22-.09.44-.16.67-.23l1.33-.44c.9-.29,1.78-.59,2.71-.83l2.77-.75,2.85-.61A63.63,63.63,0,0,1,295,33.78a58.79,58.79,0,0,1,12.47,1.11c2.08.35,4.12,1,6.17,1.53s4.09,1.38,5.83,2.16a78.74,78.74,0,0,1,13.54,7.58,68.46,68.46,0,0,1,12.2,10.77,51.21,51.21,0,0,1,9.23,14.77,43,43,0,0,1,3.08,16.9,49.76,49.76,0,0,1-8.14,25.62,41.22,41.22,0,0,1-7.34,8.34c-.64.59-1.38,1.12-2,1.63s-1.47,1-2.17,1.43a20.33,20.33,0,0,1-2.11,1.23c-.75.36-1.48.69-2.18,1l-.94.45-1,.35c-.68.23-1.35.45-2,.65s-1.37.28-2,.42-1.37.25-2,.28a28.58,28.58,0,0,1-3.8,0c-.59,0-1.2-.05-1.77-.11l-1.63-.2c-.56-.06-1.06-.13-1.54-.21l-1.48-.23c-.88-.13-1.84-.29-2.64-.36l-1.24-.12c-.4,0-.75,0-1.14,0a14.11,14.11,0,0,0-2.11.12c-2.66.3-4.67,1.75-6.64,3.84a30.72,30.72,0,0,0-5,7.91c-.36.72-.62,1.48-.93,2.22s-.53,1.51-.74,2.26-.43,1.5-.56,2.24a2.61,2.61,0,0,1-.06.26l-.05.16a2,2,0,0,0-.06.27l-.13.49a6.55,6.55,0,0,0,.15,4,3,3,0,0,0,1.37,1.42,3.72,3.72,0,0,0,.94.36,2.92,2.92,0,0,0,.49.12,2.21,2.21,0,0,0,.61.07c1.28,0,2.83-.13,4.53-.32l5.35-.61a182.31,182.31,0,0,1,24.25-1.76,119.62,119.62,0,0,1,12.9.76c2.16.24,4.32.55,6.48.91s4.31.81,6.44,1.32,4.27,1.07,6.39,1.66c1.88.52,3.68,1,5.63,1.63a121.88,121.88,0,0,1,12.17,4.38,76.14,76.14,0,0,1,13,7.09,69,69,0,0,1,12.07,10.57,48.07,48.07,0,0,1,3.66,4.76,14.13,14.13,0,0,1,1.51,2.85c0,.27-.48-.15-1.26-1.08-.39-.47-.87-1.05-1.41-1.74l-1.92-2.29a65.84,65.84,0,0,0-8.12-8.07c-1.47-1.18-3-2.33-4.48-3.4s-3.06-2.07-4.61-2.92l-2.32-1.33-2.32-1.17c-1.55-.81-3.06-1.42-4.58-2.11-3-1.25-6-2.35-8.81-3.25l-2.12-.68-2.06-.61c-1.4-.42-2.69-.78-4-1.16l-4.5-1.23-4.59-1.06a116.91,116.91,0,0,0-18.5-2.36,141.94,141.94,0,0,0-18,.35c-5.82.46-11.48,1.23-16.44,1.67-.63.06-1.23.11-1.8.14s-1.12,0-1.66.08h-.77a4.58,4.58,0,0,1-.59,0,8,8,0,0,1-.85-.19,4,4,0,0,1-2.71-2,4.22,4.22,0,0,1-.43-1.69,3.49,3.49,0,0,1-.08-.86,5.08,5.08,0,0,1,.05-.87,11.3,11.3,0,0,1,.3-1.74c.07-.32.13-.48.27-1a14.35,14.35,0,0,1,.41-1.66,14.1,14.1,0,0,0-.37,1.38c-.1.53-.23.8-.27,1a11.91,11.91,0,0,0-.34,1.46,9.29,9.29,0,0,0-.15,1.49v.38l0,.37a1.58,1.58,0,0,1,0,.38,2.5,2.5,0,0,0,.06.38,3.89,3.89,0,0,0,1.52,2.54,3.82,3.82,0,0,0,.64.4c.24.08.46.22.71.28a4.68,4.68,0,0,0,.73.21l.37.1c.15,0,.27,0,.48,0,1.67,0,3.71-.07,5.84-.24l6.75-.58c4.66-.43,9.58-.77,14.6-.86a117.27,117.27,0,0,1,30.8,3.41c1.27.34,2.56.64,3.82,1l3.77,1.15c2.24.7,4.52,1.45,6.89,2.26a102.88,102.88,0,0,1,14.88,6.38A66.9,66.9,0,0,1,400,179.29a58.2,58.2,0,0,1,11.29,15.23c1,1.71,1.74,3.44,2.6,5.17s1.43,3.4,2.13,5.11,1.2,3.4,1.79,5.1,1,3.39,1.49,5.09a117.52,117.52,0,0,1,3.51,20.47c1.09,13.71.22,27.78-4.9,42.15-.33.9-.61,1.79-1,2.68L415.73,283c-.41.89-.8,1.78-1.23,2.67L413,288.29l-1.5,2.63-1.68,2.49c-.54.83-1.15,1.64-1.78,2.44s-1.22,1.61-1.89,2.38a64.12,64.12,0,0,1-8.86,8.64,59.7,59.7,0,0,1-10.57,6.76,62,62,0,0,1-24.17,6.46c-1.05.05-2.11.1-3.14.12l-3,0c-2-.08-4-.2-6-.42a92.86,92.86,0,0,1-11.29-2,130.12,130.12,0,0,1-17-5.46c-5.18-2-10.05-4.17-14.47-6.06-9-3.9-18-7.58-26.94-11.33s-17.92-7.39-27.06-11-18.41-7.42-28-11.15L205.78,265,196,261.31l-4.82-1.76-4.69-1.64-2.19-.71c-.68-.22-1.57-.54-2-.63l-.72-.21a5.52,5.52,0,0,0-.83-.23l-2.14-.45-2.13-.46-2.15-.34c-1.43-.22-2.86-.49-4.3-.59s-2.88-.34-4.33-.41l-4.35-.19c-1.45,0-2.91.05-4.37,0l-2.2,0-2.2.16a120.58,120.58,0,0,0-17.74,2.56l-4.45,1.13c-1.49.38-3,.71-4.47,1.22l-4.47,1.4c-.74.24-1.5.44-2.23.72l-2.23.84c-3,1.13-6,2.13-8.92,3.5s-6,2.49-8.91,4c-6,2.76-11.83,6-17.78,9.38-3.11,1.9-6.16,3.66-8.59,4.93a25.18,25.18,0,0,1-4.6,2.3c-.52.06.28-.73,2-2.07.42-.33.89-.71,1.43-1.09l1.77-1.18c1.27-.84,2.7-1.77,4.27-2.75a224.57,224.57,0,0,1,37.59-19.22,144.71,144.71,0,0,1,19.44-6.13,122.85,122.85,0,0,1,19.6-2.9,103.36,103.36,0,0,1,19.37.81c1.58.26,3.19.42,4.76.8l2.37.49c.38.08.82.16,1.15.24l.88.27.88.24,1.18.38,2.38.77,5,1.75c6.83,2.45,13.77,5.09,20.69,7.76s13.89,5.39,20.84,8.16q20.84,8.34,41.74,17l20.87,8.82,10.42,4.49,10.63,4.63a140.39,140.39,0,0,0,24.38,8.35,81,81,0,0,0,14.19,2c1.24,0,2.48.06,3.74.06s2.59-.06,3.88-.18a57.57,57.57,0,0,0,7.7-1.1,59,59,0,0,0,14.8-5.19,58.16,58.16,0,0,0,13-9,61.75,61.75,0,0,0,10-11.91c.71-1.07,1.32-2.22,2-3.34a37.24,37.24,0,0,0,1.8-3.41,64.43,64.43,0,0,0,2.9-6.93,89.24,89.24,0,0,0,4.9-23.82,114.85,114.85,0,0,0-.71-23c-.09.21-.17.4-.28.42-.47.05-1-1.33-1.75-3.65a109,109,0,0,1,1.1,25.76,87.1,87.1,0,0,1-6,26.31l-2,4.57c-.69,1.52-1.57,3-2.38,4.51s-1.79,2.88-2.7,4.32-2,2.77-3.12,4.08a60.41,60.41,0,0,1-7.33,7.42,58.7,58.7,0,0,1-8.7,6,57.68,57.68,0,0,1-20,6.73,63.88,63.88,0,0,1-10.46.58,78.86,78.86,0,0,1-10-1c-12.93-2.19-24-7-34.19-11.55L282,290.63l-40.67-18.2c-13.17-5.88-26.11-11.59-39.18-17.09-4.2-1.57-8.4-3.08-12.53-4.49-1.05-.38-2-.66-3-1l-1.49-.48-1.25-.35c-.43-.11-.78-.24-1.27-.34l-1.5-.31-3-.61a101.31,101.31,0,0,0-24.5-1.29c-2.06.2-4.13.34-6.19.57l-6.18.93c-4.11.84-8.24,1.65-12.31,2.87l-3.07.84c-1,.29-2,.67-3,1-2,.71-4.07,1.34-6.08,2.09-4,1.66-8.07,3.09-12,5a19.79,19.79,0,0,1-3.1,1.27c-.51.11.13-.3,1.4-.92a153.34,153.34,0,0,1,33.78-12.38c1.46-.32,2.91-.73,4.39-1l4.42-.74c.74-.11,1.48-.26,2.22-.36l2.22-.22,4.46-.46a115.89,115.89,0,0,1,17.87.27c-3.7-.79-5.93-1.59-5.6-2.13.17-.32,1-.52,2.37-.66.69-.06,1.51-.11,2.45-.14.47,0,1,0,1.49,0l1.65.1c-.69-.1-1.38-.24-2.07-.31l-2.09-.2c-1.39-.11-2.78-.31-4.17-.36-2.8-.08-5.6-.29-8.41-.15-1.73.05-3.29,0-4.4,0s-1.78-.07-1.75-.23.73-.36,1.84-.56a37,37,0,0,1,4.31-.29c2.9-.16,5.78,0,8.66.12,1.44.08,2.88.26,4.31.38l2.15.2,2.14.33c1.42.23,2.85.38,4.26.68l4.23.88c.7.14,1.3.36,1.95.53l1,.27,1,.34c1.39.46,2.75.87,4.16,1.39,11.2,3.93,22.41,8.37,33.57,12.8q40.44,15.48,80.33,32.39c-3.49-2.05-6-3.77-7-4.95,0,0,0,0,0,0l-12.35-5.23q-28.56-11.26-57.56-22.24c-9.68-3.62-19.38-7.26-29.12-10.68l-3.65-1.28L192.41,245c-1.22-.42-2.42-.8-3.63-1.17l-1.8-.56-1.7-.45c-1.08-.33-2.37-.53-3.58-.77s-2.45-.52-3.69-.67c-2.47-.32-4.94-.74-7.44-.88a113.18,113.18,0,0,0-30,1.54,147.34,147.34,0,0,0-29.2,8.76l-3.56,1.46L106,253l-1.74.84-7,3.33c-2.29,1.17-4.54,2.45-6.82,3.66l-3.42,1.85-3.32,2-6.67,4-6.49,4.34c-4.4,2.8-8.53,6-12.78,9.06a14.13,14.13,0,0,1-2.54,1.66,10.55,10.55,0,0,1,2.08-1.74L65,276.44c1.25-1,2.59-1.79,3.89-2.68l3.92-2.63,3.92-2.64,4-2.44,4-2.44,2-1.23,2.06-1.12a183.8,183.8,0,0,1,34-15.21l-.09,0c-1,.26-1.19.18-.19-.26a20.22,20.22,0,0,1,3.72-1.11c1.13-.23,1.06-.06.19.27a126.5,126.5,0,0,1,33.69-5.36,108.55,108.55,0,0,1,16.91,1.14c.7.1,1.4.17,2.1.3l2.08.4,2.08.4c.34.07.7.12,1,.2l1,.26c.65.18,1.27.32,1.95.53l2,.63c1.35.41,2.73.87,4.1,1.33,11,3.68,21.93,7.78,32.82,11.83S248,264.87,258.79,269c-19.91-8.08-39.9-16-60-23.4-2.51-.93-5-1.78-7.54-2.66l-3.76-1.21c-.62-.19-1.21-.34-1.82-.51s-1.19-.34-1.85-.46L180,240c-1.28-.28-2.59-.4-3.88-.62-2.58-.44-5.19-.62-7.8-.86A115,115,0,0,0,137,240.69l-3.34.87c-1.11.3-2.23.54-3.32.93l-6.61,2.14a29.76,29.76,0,0,1-3.32,1c-.37,0,.47-.41,1.69-.88s2.46-.82,3.68-1.24c-7.67,2.26-13.63,4.11-13.74,3.5.08-.4,1.66-1.43,4.3-2.55,1.3-.58,2.86-1.23,4.58-1.91l1.32-.51,1.41-.45,3-.88A125.33,125.33,0,0,1,160,235.22c1.42-.07,2.83,0,4.24,0s2.83,0,4.24.15l4.23.33c1.41.08,2.8.36,4.21.52,2.81.32,5.57.95,8.35,1.46,2.76.69,5.45,1.55,8.14,2.44,2.32.74,4.65,1.48,7,2.27s4.71,1.42,7,2.16c-2-.79-4.1-1.56-6.17-2.31s-4.12-1.51-6.2-2.23-4.17-1.42-6.27-2.1c-1.06-.32-2.15-.6-3.23-.91l-3.25-.67a109.72,109.72,0,0,0-26.39-2,131.06,131.06,0,0,0-26.14,3.95l-6.35,1.82-1.58.46-1.56.55-3.11,1.1c-4.19,1.36-8.19,3.18-12.25,4.86-1.39.57-2.63,1.21-3.59,1.59s-1.58.6-1.66.51,1.92-1.48,4.68-2.75l5.32-2.4,2.66-1.2c.9-.38,1.82-.71,2.72-1.07l5.48-2.1c1.82-.69,3.72-1.21,5.58-1.83,3.71-1.29,7.56-2.13,11.38-3.1,1.92-.44,3.87-.75,5.82-1.13,1-.17,1.94-.37,2.92-.52l3-.36c3.93-.57,7.9-.76,11.88-.95l6,0c2,.06,4,.23,6,.35a114,114,0,0,1,11.91,1.63c1,.14,2,.41,3,.66l1.53.39,1.44.43,2.86.85,2.81.9c14.89,4.87,29.46,10.24,44.06,15.74s29.12,11.2,43.62,17q14.61,5,29.25,10.16c4.87,1.74,9.84,3.56,14.56,5.19a141.52,141.52,0,0,0,14.05,4.11c-2.26-.72-4.57-1.54-6.9-2.4-3.7-1.39-7.42-2.93-11.18-4.53l-11.46-4.83c-7.61-3.13-15.13-6.16-22.6-9-14.95-5.77-29.65-11.18-44.36-16.35s-29.38-10.25-44.49-15c-3.78-1.2-7.6-2.37-11.61-3.46l-3.24-.76-3.07-.51c-1-.16-2.06-.36-3.09-.5l-3.11-.35a121.14,121.14,0,0,0-25.26-.08,13.67,13.67,0,0,1-3.35.17c-.2-.11.94-.36,2.67-.56a122.49,122.49,0,0,1,24.65-.27l3,.33c1,.1,2,.21,3,.39l3,.48,1.5.24c.51.09,1.06.24,1.59.35,4.24,1,7.8,2.12,11.58,3.25,14.79,4.61,29.28,9.53,44.32,14.89,12.46,4.43,24.57,8.87,36.44,13.29s23.51,8.81,35,13.2c-11.59-4.89-23.14-9.51-34.68-14s-23-8.77-34.58-12.94S222.89,242,211.17,238c-5.87-2-11.74-3.9-17.89-5.73-1.56-.45-3.05-.9-4.89-1.32l-1.32-.31c-.44-.11-.82-.15-1.24-.23l-2.44-.41-2.43-.41-2.46-.29c-1.65-.17-3.28-.42-4.93-.51-2.31-.1-4.62-.35-6.08-.56a4.65,4.65,0,0,1-1.31.17l-5.05.2c-1.71.1-3.44.3-5.19.45l-2.65.24-2.65.39c-1.77.26-3.56.5-5.35.79a22.08,22.08,0,0,1-3.82.54C140.74,231.07,141.55,230.8,143.06,230.46ZM253.28,64.07,253,64l.66-.09,1.47.53Zm-4,10h0l-.87-.24Zm55.06,82c-1.55.12-3.1.25-4.5.29a13.88,13.88,0,0,1-3.49-.12,6.38,6.38,0,0,1-2.19-.86,4,4,0,0,1-1.47-1.8,8.33,8.33,0,0,1-.21-4.64c.06-.38.17-.76.27-1.14.06-.18.08-.36.17-.6s.16-.64.24-1c.17-.66.4-1.33.6-2l.74-2a36.42,36.42,0,0,1,4.09-7.49,18.19,18.19,0,0,1,5.5-5.38,12,12,0,0,1,7.09-1.45c2.79.14,6,.93,10,1.2-3.89-.23-7.05-.94-9.78-1.08a12.18,12.18,0,0,0-6.92,1.31,13,13,0,0,0-2.19,1.6l-1.05.93-1,1.09a33.2,33.2,0,0,0-3.55,5.24,37.29,37.29,0,0,0-2.63,5.89c-.32,1-.66,2-.87,3-.13.42-.18.63-.26.92a7.58,7.58,0,0,0-.21.82,9.63,9.63,0,0,0-.17,3.43,4.2,4.2,0,0,0,1.68,2.94,5.08,5.08,0,0,0,1.57.76,8.24,8.24,0,0,0,.85.24,4.34,4.34,0,0,0,.48.08l.67,0C299.74,156.41,302,156.28,304.37,156.12ZM244.62,64.59a12.07,12.07,0,0,1,3.46.32,5.42,5.42,0,0,1,1.33-1.33,41.79,41.79,0,0,1,4.32-2.69c-.46-.23-.11-.42,0-.59l.44-.45-5,2.4C247.68,63,246.17,64,244.62,64.59ZM237,74.31h-.24l-.33-.73Zm.6,1.21.25-.11C238,75.66,237.84,75.65,237.58,75.52Zm2.28-1a1.73,1.73,0,0,0-.52,0ZM257,88.13l-2.21-3.08,2.06,3Z"/><path d="M4.24,225.64l.43.36a1.34,1.34,0,0,1-1.1,0,11.15,11.15,0,0,0,7.13,1.77A15.83,15.83,0,0,0,17.17,226c1.31.25,2.47-.29,2.59-1.22s-.85-1.88-2.18-2.18a4,4,0,0,1-.85-.47,26.08,26.08,0,0,0-6.94-4.42c.53.37,1.06.72,1.57,1.11A8.43,8.43,0,0,0,9,218l.31.6c-2.67-1.7-6.31-1.81-8-.07s-.87,4.69,1.78,6.35Z"/><path d="M9.22,232c-1.52-.74-3-1.55-4.49-2.41l-.31-.38.18,1.61,0-.1c1.3-1.25,3.53-1.61,5.59-1.82l.73-.16a1.12,1.12,0,0,0,.64-.75c.15-.71-.5-1.49-1.48-1.7L9,226c-2.77-1.13-7.15-1.7-8.51.93-.3.61,0,1.45.17,2.21A2.52,2.52,0,0,0,3,231.4c1.36.16,2.47-.56,2.52-1.61l.7.27-.52.34c.34-.89,1.56-1,2.47-1.41l1.36-.15-.86-2.46-.71.25a2.86,2.86,0,0,1,.16.28,25,25,0,0,1-4.09,1.41l-1.84.75a1,1,0,0,0,.19,1.63l.86.6L2.87,231c1.94.69,4,1.14,5.87,1.81a.65.65,0,0,0,.8-.18C9.67,232.36,9.53,232.08,9.22,232Z"/><path d="M2.51,231.88a1.76,1.76,0,0,0-1.07-.42l-.18.19.63.47C2.34,232.46,2.55,232.24,2.51,231.88Z"/><path d="M1.26,231.65l-.26-.2.18.25.05,0Z"/><path d="M114.48,223.56c-1-.53-2-1.06-2.9-1.61-.45-.28-1-.55-1.37-.82l-.89-.83-.45-.42-.63-.42-1.29-.85c-.34-.28-.56-.56-.85-.84l-.41-.43a5.78,5.78,0,0,0-.56-.44l-1.19-.88a7.2,7.2,0,0,1-.81-.88,13.92,13.92,0,0,0-2-1.84,22.06,22.06,0,0,1-1.39-1.87c-.23-.33-.4-.63-.69-1l-1-1c-.07-.09-.17-.17-.23-.26l-.14-.27-.29-.52c-.2-.35-.39-.71-.56-1.09a7,7,0,0,0-.63-1.14,12.19,12.19,0,0,1-.78-1.25L95,203.61l-.36-1.35-.28-1.45c-.16-.55-.38-1.1-.49-1.66s0-1.09,0-1.69a11.15,11.15,0,0,0,0-1.85c0-.32,0-.65,0-1l.26-.94a18.33,18.33,0,0,1,.63-1.85c.23-.62.34-1.27.52-1.91a1,1,0,0,1,.19-.44l.26-.42.51-.83c.31-.56.54-1.14.81-1.7a3.29,3.29,0,0,1,.21-.42l.32-.36.63-.71c.94-.92,1.39-2,2.27-2.86a34.45,34.45,0,0,0,2.84-2.4l1.29-1.24c.45-.39.93-.77,1.39-1.15s.92-.78,1.4-1.15l1.55-1a68.67,68.67,0,0,1,6.23-3.62l3.06-1.54,1.45-.74.73-.36.37-.19c.14,0,.31,0,.47-.06l1.9-.22,1-.11.47-.06.36-.16,1.41-.64.71-.33c.12,0,.21-.13.37-.13H130a5,5,0,0,0,1.86-.18l1.64-.48.82-.24c.11-.07.34,0,.52,0l.56,0,2.24.17c.37,0,.75.06,1.12.07l1-.13,2.07-.27c.36,0,.66-.11,1.06-.12l1.18-.05a46,46,0,0,1,4.91-.1l2.62.08c.87,0,1.76-.08,2.64-.1a12.37,12.37,0,0,0,3.48-.49c0-.19-1.51-.26-3.27-.14-.89,0-1.79.12-2.68.14l-2.65-.07c-.86,0-1.8-.08-2.61-.05l-2.38.12-1.19.06a9.25,9.25,0,0,0-1.13.09l-2.08.29a16.23,16.23,0,0,1-4.4,0l-1.13-.08a.85.85,0,0,0-.47,0l-.41.13-1.64.51-.82.25c-.31,0-.66,0-1,0l-2,0a7.63,7.63,0,0,0-1,0l-.71.33-1.4.67a2.73,2.73,0,0,1-.74.3l-1,.12-1.91.22a4.1,4.1,0,0,0-.91.16l-.73.38-1.45.76-3,1.56c-1,.5-2.07,1.14-3.11,1.72s-2.07,1.23-3.1,1.91a21.31,21.31,0,0,0-3,2.13l-1.39,1.16c-.46.39-.87.82-1.3,1.23s-.83.84-1.32,1.24l-1.47,1.2-.37.3-.18.15-.13.18-.52.73a13.38,13.38,0,0,1-1.1,1.47L96.85,186l-.77,1.71c-.29.57-.67,1.12-1,1.68a1,1,0,0,0-.18.45l-.12.48-.23,1a12.39,12.39,0,0,0-1,3.76l0,1a8.84,8.84,0,0,1,0,.91,12.53,12.53,0,0,0,0,1.72,55.45,55.45,0,0,0,1.39,5.82,3.83,3.83,0,0,0,.67,1.25l.41.62c.1.19.17.37.26.56.34.76.72,1.45,1.09,2.15a28.27,28.27,0,0,1,3,3.95,2.6,2.6,0,0,0,.47.47l.55.47a5.6,5.6,0,0,1,1,.92l.73.88c.08.15.35.3.53.45l.59.44a10.5,10.5,0,0,1,1.85,1.73c.62.57,1.75,1.14,2.37,1.71.87,1.12,3,2.23,5,3.31a11.87,11.87,0,0,0,2.54,1.1C116.11,224.5,115.48,224.09,114.48,223.56Z"/><path d="M133.83,51.82c-.19.89,0,.9.35,0a15.05,15.05,0,0,0,.55-1.43,14.73,14.73,0,0,0,.5-1.51c.19-.73,0-.77-.35-.05a15.63,15.63,0,0,0-.65,1.5A11.79,11.79,0,0,0,133.83,51.82Z"/><path d="M143.14,61.29a35.58,35.58,0,0,0,1.38,11.6,11.5,11.5,0,0,1,.35,2c.18-.29.58.46,1.06,1.92,2.38,7.21,6.17,14.38,10.62,21.65.54.91,1.11,1.82,1.69,2.73L160,103.9l1.78,2.78.91,1.4.89,1.35c1.11,1.67,2.37,3.47,3.66,5.29l3.92,5.58a267.63,267.63,0,0,1,15.67,24.36,97.71,97.71,0,0,1,6.76,14.69,50.32,50.32,0,0,1,2.39,9.3,31.38,31.38,0,0,1-.43,12.8,10.65,10.65,0,0,1-.62,3.79,14.62,14.62,0,0,1-1,2.63,18.13,18.13,0,0,1-1.74,3,26,26,0,0,1-2.58,3.15,36.31,36.31,0,0,1-3.31,2.84,40.66,40.66,0,0,1-3.68,2.2l-.25.13-.17.08-.32.13-.65.28-1.33.54c-.89.36-1.81.71-2.75,1s-1.74.43-2.62.64l-1.32.27-.66.14-.29.06h-.14l-1.08.07a23.53,23.53,0,0,1-6.65-.6c-2.23-.48-4.46-1.1-6.76-1.51a24.37,24.37,0,0,0-7-.36,26.83,26.83,0,0,0-6.9,1.9c-.28.29-.59.57-.89.9s-.65.63-1,1a13.24,13.24,0,0,0-2,2.47,5.11,5.11,0,0,0-.22,2.89A6.79,6.79,0,0,0,141,212a18.78,18.78,0,0,0,5,4,50.2,50.2,0,0,0,11.14,4.61c-.19-.13-.15-.2.16-.2a31.55,31.55,0,0,1,4.35.94l2.49.6a43.41,43.41,0,0,1-6.33-2,5.06,5.06,0,0,1-.72-.33,25.93,25.93,0,0,1-6.75-3.87,6.94,6.94,0,0,1-2.49-3.61,4.3,4.3,0,0,1,1.48-3.83,14.18,14.18,0,0,1,3.37-2.38c.59-.35,1.24-.58,1.86-.87.32-.14.66-.21,1-.32a5,5,0,0,1,1-.26c2.7-.62,5.45-.21,8.22.19a25.08,25.08,0,0,0,4.28.32,17,17,0,0,0,2.22-.2l1.12-.25.28-.07.79-.21,1.65-.45,1.64-.44c.28-.09.53-.13.83-.25l.91-.34c1.2-.47,2.4-1,3.59-1.46l.89-.38,1.39-.73c.93-.52,1.84-1.06,2.73-1.64a34.12,34.12,0,0,0,2.74-2.16c.44-.38.88-.78,1.31-1.17s.82-.9,1.23-1.36a33.75,33.75,0,0,0,2.24-2.88c.63-1,1.23-2.06,1.78-3.11a22.61,22.61,0,0,0,1.31-3.12,23.71,23.71,0,0,0,.91-3.07c.2-1,.38-1.92.53-2.89a11.84,11.84,0,0,0,.15-1.35l.09-1.29.06-1.29v-.65l0-.57q0-1.14-.12-2.28c0-.37-.05-.78-.09-1.11l-.14-1-.31-2c-.24-1.28-.53-2.45-.82-3.66s-.64-2.21-1-3.31l-1.09-3A95.75,95.75,0,0,0,191,146.59a189.15,189.15,0,0,0-11.09-17.85c-3.8-5.52-7.73-10.81-11.39-15.84a10.12,10.12,0,0,1-1.44-2.35c-.12-.46.09-.49.62.2,4.8,6,10,12.27,15,18.78,2.52,3.27,5,6.64,7.42,10.24a115.37,115.37,0,0,1,7.08,11.8,72,72,0,0,1,3.24,7.17c.26.62.49,1.38.73,2.07s.49,1.38.7,2.15a47.28,47.28,0,0,1,1.18,4.94l.24,1.35a13.7,13.7,0,0,1,.2,1.43c.1,1,.19,2.07.25,3.12a16.07,16.07,0,0,1,0,1.72l-.06,1.8c0,.62,0,1.17-.13,1.85s-.2,1.38-.31,2.06-.25,1.38-.39,2.06-.4,1.5-.63,2.24-.5,1.51-.78,2.25c-.15.38-.28.74-.44,1.12l-.57,1.18a33,33,0,0,1-2.67,4.53,38.32,38.32,0,0,1-3.46,4.14,47.61,47.61,0,0,1-3.95,3.39,42.69,42.69,0,0,1-4,2.52l-1,.56a3.14,3.14,0,0,1-.39.19l-.31.14-1.24.56-2.52,1.08a33.93,33.93,0,0,1-4.75,1.59l-2.17.64-.49.19a10.13,10.13,0,0,1-3.72.64,19.37,19.37,0,0,0-3.81.17,5.76,5.76,0,0,0-3,1.65,4.55,4.55,0,0,0-1.56,3,2.94,2.94,0,0,0,.89,2,8,8,0,0,0,1.84,1.41,23.79,23.79,0,0,0,7.43,2.57c1.08.19,2.05.39,2.9.62.43.11.83.23,1.21.36l.27.09.14.05.9.53c1.21.72,2.34,1.35,3.72,2.26a85.59,85.59,0,0,1,15.58,12.63,53,53,0,0,1,3.48,4.13l.41.54a2.57,2.57,0,0,1,.24.35l.26.4,1,1.62a28.22,28.22,0,0,1,1.89,3.42,19,19,0,0,1,1.22,14.4c-.22.56-.42,1.13-.68,1.67s-.58,1-.88,1.57a16.48,16.48,0,0,1-2.33,2.74,8.46,8.46,0,0,1-1.35,1.18l-1.45,1.06c-.53.29-1.07.58-1.62.85l-.82.41-.88.32c-.59.2-1.18.4-1.78.58s-1.24.28-1.86.41-1.27.22-1.91.31-1.3.11-2,.14-1.32.06-2,.06l-1.63-.06-1.61-.05-.41,0-.28,0-.53-.05-17-1.38c-11.33-.91-22.65-1.87-34.11-2.53-5.74-.37-11.48-.72-17.3-.95s-11.66-.49-17.57-.54A422.75,422.75,0,0,0,48,269.57l-2.85.26-1.42.14-.29,0-.9.16-1.79.3-3.57.57q-3.55.52-7,1.18c-2.33.41-4.66.83-7,1.28-3.47,1.06-6.61-.22-7.11-3.08A5.52,5.52,0,0,1,18,265.54l-.87.09-1.37-.15a4.65,4.65,0,0,1-3.14-1.66l-1-1.11c-1.33-2.19-3.49-3.95-4.67-6.43l.19-1L6.85,255a4.46,4.46,0,0,1-1.73-2.52l0-1.2a10.36,10.36,0,0,1,1.1-3.93,3.63,3.63,0,0,1,.18-1.47A5,5,0,0,1,5.83,242a.72.72,0,0,1,.08-1.17,1.08,1.08,0,0,1,.5-.18h0a9.36,9.36,0,0,0-.57-.75l-.58-.19c-1-.22-1-.22-1.83-.43a5.18,5.18,0,0,1-1.23-1c-.93-2.2-.94-2.21-.87-3.15,0-.09.09-.17.14-.26l-.9-.47A2.59,2.59,0,0,1,.24,234c-.06-.51-.06-.51-.19-.7a1.81,1.81,0,0,1,0-.39c.33-.54.33-.54.33-.7a1.49,1.49,0,0,1,.19-.27l.66-.22,1,1.37.18-.44.25.61-.16-.55.49.36-.56-.52a4.88,4.88,0,0,0,1.55.27,2.06,2.06,0,0,0,.89,0,2.2,2.2,0,0,1-.05-.29l2.34.57a2.93,2.93,0,0,1,.28.36.54.54,0,0,1,.55-.16l.6.12.13-.07v0l.49-.22.11,0h0c.72-.31,1.44-.63,2.17-.93a8.83,8.83,0,0,1,1,.34l-.29-.26c-.19-.18,0-.62-.13-.67A53,53,0,0,0,3.93,229a1.06,1.06,0,0,1-1.06-.7c-.09-.4.25-.73.75-.73a18.83,18.83,0,0,1,8.94-.91,34.47,34.47,0,0,1,9,2.52c1.48.36,2.93.79,4.4,1.14l-.2-.23,1.13.47.12,0-.85-.87-.59-.3a86.33,86.33,0,0,1-9.94-3.55c-1.82-.65-3.4-1.65-5.16-2.47-.45-.1-.77-.43-.73-.77s.46-.5.9-.41a41.68,41.68,0,0,1,8.93,1.41,23.72,23.72,0,0,1,7.91,3.63,6.76,6.76,0,0,1,2.81,1.08l.05,0-.62-.71c.77.27,1.16.83,1.85,1.13-.07-.27-.16-.58-.23-.86,1.88.52,3.84.88,5.73,1.37a26.69,26.69,0,0,1,5.46,1.8l.39.13c.75-.15,1.51-.3,2.31-.38l.6,0H46l1,.14,1.91.29q3.84.57,7.93,1.26l-5.5-1.08-2.75-.54L46,230.31l5.8.83,6,.91c4,.72,8.06,1.41,12.26,2.24,5.65,1.22,11.49,2.33,17.17,3.68s11.27,2.57,16.51,3.85c10.47,2.51,19.54,4.89,25.34,6.56,10.77,2.07,21.52,4.07,32.27,5.93,5.37.89,10.75,1.83,16.12,2.61l4,.62,2,.29c.42,0,.84.06,1.26.11a2.86,2.86,0,0,0,.44,0h.37a6.15,6.15,0,0,0,.73-.06,4.4,4.4,0,0,0,1.38-.41,2.4,2.4,0,0,0,1.41-2.33,5.13,5.13,0,0,0-1-2.67l-.24-.34a5.13,5.13,0,0,0-.35-.43l-1.09-1.2-1.2-1.17c-.4-.4-.87-.77-1.3-1.14a43.07,43.07,0,0,0-5.87-4.08,58.17,58.17,0,0,0-6.59-3.35,14.4,14.4,0,0,0-1.87-.69l-2-.64L161,237.36c-.3-.09-.56-.19-.89-.27l-1.1-.17-2.21-.35-4.43-.7c-1.42-.19-3.12-.56-4.71-.85l-4.85-.92-2.42-.47-2.13-.61L134,231.78l-2.13-.62-1.07-.31c-.36-.1-.6-.2-.91-.31l-3.53-1.23-2.75-1-1.21-.46a5.49,5.49,0,0,1-.71-.38c-.8-.48-1.28-.83-1.3-1s.61.07,1.44.39c.42.16.91.36,1.45.59a9.14,9.14,0,0,0,1.12.41l1.38.47,5,1.71,1.26.43,1.5.43,3,.85,3,.86a26.13,26.13,0,0,0,3.11.78l6.74,1.29c2.32.47,4.3.76,6.36,1.1l3.08.49,1.53.25a2.81,2.81,0,0,1,.68.17l.6.19,8,2.59c.47.16,1,.31,1.41.48l1.23.56c.82.38,1.67.73,2.45,1.15s1.61.81,2.38,1.25l2.31,1.35a37.27,37.27,0,0,1,7.91,6.43l.78.87.4.54a8.63,8.63,0,0,1,.64,1.07,5,5,0,0,1,.63,2.35,2.8,2.8,0,0,1-1.08,2.14,4.79,4.79,0,0,1-2.29.87,7.49,7.49,0,0,1-1.25.07,1.42,1.42,0,0,1-.35,0l-.48-.05-1-.08-5.86-.84c-3.91-.56-7.83-1.17-11.74-1.8,3.27.56,6.54,1.14,9.81,1.64l4.9.77,2.46.38c.47.08.67.07,1,.11l.83.09a1.73,1.73,0,0,0,.35,0h.84a10.18,10.18,0,0,0,1.11-.12,4.61,4.61,0,0,0,2.07-.85,3,3,0,0,0,1.12-1.9,4.53,4.53,0,0,0-.27-2.24,9.32,9.32,0,0,0-1.09-2.06c-.13-.18-.22-.32-.38-.53l-.69-.79a20.74,20.74,0,0,0-1.45-1.54,42.34,42.34,0,0,0-7.05-5.51A59.64,59.64,0,0,0,171,239c-1.71-.62-2.78-1-5.83-2.06l-1.95-.66-1-.33a5.07,5.07,0,0,0-1.05-.3l-4.88-.9-2.5-.45c-.84-.15-1.79-.36-2.68-.54l-5.45-1.12-1.37-.28c-.45-.1-.82-.23-1.24-.34l-2.43-.72-4.88-1.43c-1.48-.46-2.74-.93-4.11-1.4l-4-1.4-5.28-2.52c-2.12-.94-4.17-1.88-6.07-2.88a12.43,12.43,0,0,1-2.35-1.51c-.69-.51-1.78-1-2.53-1.55l-1-.79c-.17-.13-.3-.26-.5-.4l-.62-.41-1.25-.82-.88-.83-.44-.41-.58-.44-1.17-.88c-.54-.59-1.11-1.16-1.62-1.78-.28-.31-.5-.6-.82-.93l-1-1-.26-.25-.18-.25-.35-.5c-.24-.33-.48-.67-.7-1s-.4-.69-.71-1.09l-.9-1.18L98,204.39c-.18-.42-.32-.87-.49-1.29s-.27-.93-.41-1.38-.36-1-.53-1.54a2.21,2.21,0,0,1-.14-.8l-.06-.81v-1.7l0-.94,0-.46a2.24,2.24,0,0,1,.09-.45,13.84,13.84,0,0,1,.5-1.78,15.33,15.33,0,0,0,.56-1.78c.09-.29.16-.6.26-.89l.48-.79.48-.79.41-.79a4.8,4.8,0,0,1,.94-1.5c.4-.45.82-.89,1.21-1.34l1-1.35a5.26,5.26,0,0,1,1.28-1.2c.47-.37,1-.74,1.4-1.11.86-.75,1.67-1.55,2.58-2.26l1.36-1.06a10.33,10.33,0,0,1,1.42-1l3-1.84,3-1.6c1-.54,2-.95,3-1.43l2.92-1.32.72-.33a6,6,0,0,1,.88-.12l1.82-.2.91-.1a3.68,3.68,0,0,0,.73-.25l1.41-.55.7-.28c.28,0,.62,0,.93,0h1.9c.31,0,.64,0,.95,0l.8-.21,1.6-.41.4-.11a1.06,1.06,0,0,1,.45-.05l1.07.08,2.14.14a8.14,8.14,0,0,0,2-.12l2-.25c.32,0,.69-.07,1.08-.09l1.13-.06,2.27-.13c1.38,0,2.85,0,4.26,0a17.28,17.28,0,0,0,2.15-.1l2.15-.16a42.47,42.47,0,0,1,4.4-.12h2.22c.25,0,.22-.05.3-.08l.18-.13.35-.26,1.33-.95a6.51,6.51,0,0,1,.91-.53l.12-.06.06,0h0c1.35,2.89-3-6.48,3,6.48v0l0,.09c.1.25.21.5.33.74a7.85,7.85,0,0,0,.44.73c.16.24.38.52.4.58a3.19,3.19,0,0,0,.56.7l.1.09h0l0,0,0,0,0,0-.07-.05-.28-.18-.26-.12-.06,0-.16-.08-.32-.15a5.47,5.47,0,0,0-.64-.23l-.31-.08a3.15,3.15,0,0,1-.38-.1,10,10,0,0,0-2-.45l-.49,0-.7-.12c-.47-.07-.93-.12-1.39-.15-1-.08-1.69,0-3-.07h-1s0-.17-.06-.25a32.47,32.47,0,0,0-1.72-5.33c-.95-2.36-2.22-5-3.62-7.68s-3-5.49-4.66-8.35c-3.36-5.74-7.13-11.64-11.2-18.2-1.43-2.35-2.88-4.71-4.43-7.41l-.57-1-.49-.89-1-1.79-2-3.64c-2.59-4.91-5.14-10.06-7.42-15.59a108.19,108.19,0,0,1-5.69-17.83A74.8,74.8,0,0,1,116.07,65c.16-1.78.34-3.56.56-5.34s.63-3.55,1-5.31A64,64,0,0,1,121,44.17a70.23,70.23,0,0,1,10.56-17.1,83.61,83.61,0,0,1,13.62-12.93A110,110,0,0,1,160,4.72c5.33-2.9,10.41-4.78,11.25-4.72s-2.71,2.08-7.94,4.92c-2.54,1.4-5.09,2.9-7.61,4.53s-5,3.35-7.5,5.26A87.54,87.54,0,0,0,141,20.89a83.58,83.58,0,0,0-6.67,7.21,68,68,0,0,0-10.59,17.75,58.58,58.58,0,0,0-3.07,10.53,53.5,53.5,0,0,0-.82,5.45l-.25,2.73c-.09.91,0,1.8-.08,2.71a75.42,75.42,0,0,0,2.67,20.58,114.41,114.41,0,0,0,6.51,17.85c2.51,5.54,5.23,10.72,7.93,15.67l1,1.85,1.16,2,2.27,3.81c1.48,2.45,2.93,4.8,4.37,7.11,2.86,4.62,5.64,9.11,8.21,13.56s4.94,8.84,6.88,13a61,61,0,0,1,2.39,5.94A21.26,21.26,0,0,1,164,173a3,3,0,0,0,.05.42c0,.05,0,.05,0,0h0l.27,0a17.71,17.71,0,0,1,2.15.25,14.87,14.87,0,0,1,1.59.22c.26.06.53.12.79.2l.4.13a1.22,1.22,0,0,0,.27.06,5.5,5.5,0,0,1,1,.32l.48.23.19.08a2.24,2.24,0,0,1,.43.26c.06.05,0,0,0,0l0,0,0,0a0,0,0,0,1,0,0l0,0-.14-.13a3.53,3.53,0,0,1-.44-.53c-.07-.11-.07-.14-.19-.31s-.27-.36-.39-.55a7.47,7.47,0,0,1-.58-1.12l-.11-.29c-3.28-7-.93-1.94-1.67-3.51h0l0,0-.23.1-.45.21a9.07,9.07,0,0,0-.91.49l-1.24.72-.61.35-.16.09s-.24,0-.35,0h-.78l-3.15,0c-2.08,0-4.08.3-6.11.31s-4.09-.13-5.85,0l-1.38,0c-.47,0-.94,0-1.33,0l-2.48.2a12.79,12.79,0,0,1-2.6-.11l-1.32-.12-.66-.06a1.77,1.77,0,0,0-.54.07,15.14,15.14,0,0,1-4.38.44l-1.21,0a2.36,2.36,0,0,0-1.09.09l-1.87.55a7.84,7.84,0,0,1-2.18.31l-1.17.1-.59,0-.29,0-.24.09c-1.3.49-2.53.92-3.89,1.49l-2,.8c-.67.29-1.34.63-2,.95s-1.35.61-2,1l-2,1.13a30.29,30.29,0,0,0-3.78,2.52c-1.22.92-2.24,1.91-3.55,2.85s-2.14,2.12-3.25,3.25a7.4,7.4,0,0,0-1.47,1.84l-.56,1-.65,1a6,6,0,0,0-.78,1.94c-.2.67-.47,1.32-.67,2-.5,1.31-.17,2.83-.22,4.06a13.64,13.64,0,0,0,.19,1.84c.21.58.47,1.23.64,1.74a17.49,17.49,0,0,0,1.21,3,16.37,16.37,0,0,0,1.83,2.64,24.68,24.68,0,0,0,1.76,2.31l1.21,1.11c.38.36.66.69,1,1s.65.67,1,1a6.82,6.82,0,0,0,1.11,1,.15.15,0,0,1,.17-.09,4.41,4.41,0,0,1,1.17.41l.9.43c.34.17.7.36,1,.56a26.19,26.19,0,0,1-2.81-2.15c-.4-.36-.79-.73-1.17-1.12s-.75-.75-1.25-1.18a14.06,14.06,0,0,1-2.34-2.54c-.34-.46-.64-.88-1.08-1.4l-.61-.74a5.59,5.59,0,0,1-.46-.77,18.83,18.83,0,0,1-1.47-3.34l-.38-1a3,3,0,0,1-.28-1l-.14-1,0-1.08L99,197a3,3,0,0,1,.06-1.15l.26-1.12.39-1.1c.29-.73.45-1.5.8-2.19s.87-1.31,1.24-1.94l.38-.68a2.48,2.48,0,0,1,.43-.64l1.07-1.16c.72-.75,1.26-1.56,2-2.25s1.69-1.28,2.43-1.92,1.51-1.31,2.35-1.88l1.22-.88a9.92,9.92,0,0,1,1.26-.85l2.65-1.53c.89-.52,1.8-.89,2.7-1.34.45-.21.9-.44,1.35-.64l1.35-.54c.9-.36,1.81-.75,2.67-1l1.31-.48a3.57,3.57,0,0,1,1.4-.36c1-.1,2.14-.15,3.11-.3l2.56-.74c1,0,2.16,0,3.24,0h.41l.36-.06.7-.13,1.42-.25a3.42,3.42,0,0,1,.75-.09l.9.08,1.8.15.91.08a6.11,6.11,0,0,0,.86,0l1.71-.13c1.08-.11,2.4-.12,3.67-.16.64,0,1.24,0,1.93,0l2.08,0,2.09,0,2.11-.15c1.41-.1,2.82-.2,4.3-.2l2.2,0h1l.06,0,.45-.25,1.77-1c.45-.24.9-.46,1.36-.65l.17-.07.09,0,1.32,2.83v.07l0,.11c.11.27.24.54.38.81.28.52.79,1.15.85,1.3a4.73,4.73,0,0,0,.31.38c.1.12.32.31.26.26s.06.08.09.1a1.89,1.89,0,0,0-.61-.34l-.27-.14-.36-.16a4.89,4.89,0,0,0-.71-.23l-.35-.08q-.28-.1-.57-.18a10.19,10.19,0,0,0-1.14-.25l-.57-.08-.28,0h-.14l-.19,0-.79-.12-.64-.07c0,.08,0-.25,0-.46s-.05-.4-.06-.6,0-.19,0-.31l-.08-.4-.12-.8-.22-.94-.11-.47-.15-.51-.29-1-.71-2.22a128.63,128.63,0,0,0-5.7-13.27c-2.2-4.51-4.57-9-7-13.57s-4.93-9.1-7.46-14l-1-1.88-1-1.94-1.7-3.62c-1.14-2.45-2.27-4.92-3.37-7.46-1.56-3.14-3.12-6.31-4.53-9.66-.73-1.64-1.37-3.39-2.05-5.08s-1.28-3.47-1.82-5.29A85,85,0,0,1,125,78.78l-.41-3-.2-1.47-.11-1.51-.19-3V66.77a56.1,56.1,0,0,1,5.71-23.86,70.4,70.4,0,0,1,13.67-18.83,12.31,12.31,0,0,1,2.19-1.89c.4-.21,0,.29-.85,1.16a75.18,75.18,0,0,0-9.89,12.33,61.25,61.25,0,0,0-7,15.08,56.38,56.38,0,0,0-2.31,17A68.34,68.34,0,0,0,128,84.2a17.47,17.47,0,0,1,0-4.08c.13-1,.36-1.43.71-1.36.75.12,1.72,2.6,3.14,6.2a66.86,66.86,0,0,1-2.25-14.07,20.19,20.19,0,0,1,.11-3.79c.11-.95.26-1.51.43-1.46s.32.64.43,1.58.13,2.23.25,3.61c.52,9.68,3.43,18.76,7,27.17,1.78,4.22,3.75,8.31,5.81,12.28,1,2,2.06,4,3.11,5.91l.79,1.46.84,1.52,1.7,2.94c5.66,9.09,11.4,17.69,16.38,26.62a119.65,119.65,0,0,1,6.61,13.47,54.25,54.25,0,0,1,2.17,6.7,18.62,18.62,0,0,1,.59,6c.14-.48.37-.9.51-1.38s.28-.93.43-1.35a8.64,8.64,0,0,1,.8-2.1h0a47.35,47.35,0,0,0-2.54-8.67,150.67,150.67,0,0,0-10.38-19.16c-3.88-6.28-8-12.45-12.13-18.84-2.06-3.16-4.11-6.61-6-9.87s-3.73-6.71-5.49-10.17-3.38-7.06-4.86-10.75a92.8,92.8,0,0,1-3.66-11.5,66.31,66.31,0,0,1-1.7-12.26,52.7,52.7,0,0,1,1.08-12.56A50.1,50.1,0,0,1,136,44.39a61.36,61.36,0,0,1,6.54-10.47A85.16,85.16,0,0,1,159.93,17.3,202.51,202.51,0,0,1,179.68,4.78a9,9,0,0,1,2-1A6.6,6.6,0,0,1,180,4.92c-8,4.66-16.12,9.53-23.58,15.55a74.17,74.17,0,0,0-19,22l0-.07c.46-.66.67-.72.33.09a28.71,28.71,0,0,1-1.41,2.76c-.5.79-.6.65-.35-.06a50.73,50.73,0,0,0-4.58,27.38,82.49,82.49,0,0,0,7.71,25.82c1.85,4,3.86,7.86,5.95,11.63,1.06,1.88,2.11,3.75,3.19,5.59.52.92,1.09,1.87,1.66,2.81l1.71,2.76c4.61,7.24,9.32,14.15,13.68,21.24-3.87-6.69-8.05-13.23-12.17-20-1-1.68-2.05-3.37-3.05-5.13s-1.92-3.45-2.87-5.19c-1.89-3.46-3.71-7-5.43-10.6s-3.29-7.3-4.66-11.1c-.71-1.89-1.29-3.84-1.89-5.78s-1.05-3.94-1.41-6a52.42,52.42,0,0,1,.65-24.58,49.5,49.5,0,0,1,3.5-10.28,10.28,10.28,0,0,1,1.45-2.28c.24-.18,0,.5-.47,1.41s-.86,1.81-1.25,2.74c2.74-5.61,6.14-9,6.57-8.57.4.7-2.22,5.11-4.67,10.73a44.87,44.87,0,0,0-3.27,11.82A47.24,47.24,0,0,0,136.34,72a68.91,68.91,0,0,0,2.54,12,102.78,102.78,0,0,0,4.37,11.44c.75,1.6,1.55,3.18,2.38,4.74s1.84,3,2.78,4.57a137.23,137.23,0,0,1-7.52-17.39A67.29,67.29,0,0,1,137.23,69a46,46,0,0,1,2.91-18.1,57.72,57.72,0,0,1,9.36-15.85c1.32-1.66,2.67-2.89,2.86-2.77s-.79,1.52-2.08,3.18c-6.46,8.57-10.82,18.71-10.7,29.07A51.42,51.42,0,0,0,141.93,80a94.67,94.67,0,0,0,6,14.89c2.4,4.87,5.13,9.66,8,14.45,1.45,2.45,2.81,4.7,4.32,7l4.62,7c3.11,4.73,6.24,9.53,9.23,14.49a161.77,161.77,0,0,1,8.42,15.53,69.58,69.58,0,0,1,5.25,11.29,37.48,37.48,0,0,1,1.71,6.85,24.1,24.1,0,0,1-.27,8.6,18.77,18.77,0,0,1-5.33,9.29,19.57,19.57,0,0,1-2.08,1.74c-.7.48-1.43.94-2.17,1.38-.42.26-.64.34-.92.49l-.83.4-1.67.79c-.55.25-1.13.55-1.68.74l-1.61.55-1.63.55-.41.14-.2.07-.12,0-.48.14c-.64.17-1.26.39-1.89.52l-1.88.33,2,0c.67,0,1.33-.17,2-.25a20.71,20.71,0,0,0,2.34-.53c.92-.25,1.8-.42,2.75-.73s1.91-.72,2.86-1.1l1.41-.57.19-.07.24-.13.49-.26,1-.54a18,18,0,0,0,1.9-1.19c.63-.48,1.25-1,1.85-1.51a12.77,12.77,0,0,0,1.69-1.75,21,21,0,0,0,1.51-1.93,21.49,21.49,0,0,0,2.15-4.21c.25-.71.52-1.43.71-2.13s.29-1.34.41-2l.18-1c0-.32.06-.62.08-.93l.11-1.86c0-1.21-.06-2.27-.11-3.41s-.27-2.07-.43-3.09l-.61-2.84a62.51,62.51,0,0,0-3.47-9.81c-1.32-3-2.76-5.81-4.25-8.5s-3.05-5.27-4.63-7.79c-3.17-5-6.47-9.8-9.77-14.45s-6.65-9.23-9.54-13.61c-3.05-4.7-6-9.37-8.65-14.16a98.39,98.39,0,0,1-6.85-14.79,53.89,53.89,0,0,1-3.14-15.76,5.18,5.18,0,0,1,.05-1.4,1.5,1.5,0,0,1,.2-.69c.15-.11.23.62.24,1.69a52.28,52.28,0,0,0,3,15.15,90.29,90.29,0,0,0,6.54,14.24c2.56,4.64,5.43,9.2,8.43,13.84l1.12,1.73,1.1,1.63,2.33,3.36,4.93,7a280.06,280.06,0,0,1,15.8,24.49,93.14,93.14,0,0,1,6.51,14.1c.24.63.44,1.35.65,2s.43,1.35.6,2.11l.53,2.2.4,2.4a27.94,27.94,0,0,1-.69,11.66,28.32,28.32,0,0,0,1-11.85,46,46,0,0,0-2-8.87A89.36,89.36,0,0,0,185.3,147a246.32,246.32,0,0,0-14.8-23.64c-2.53-3.69-5.11-7.34-7.46-10.83l-1.69-2.58-1.75-2.78c-1.14-1.84-2.28-3.69-3.37-5.53-4.37-7.35-8.29-14.77-10.68-22.43a11.09,11.09,0,0,1-.54-2,13.74,13.74,0,0,1-.23-1.63,1.53,1.53,0,0,1-.38-.72,39,39,0,0,1-1.88-12.33,7.27,7.27,0,0,1,.39-2.26C143.07,59.86,143.15,60.38,143.14,61.29ZM20.6,238l-.15-.17.52.29.73,1.1Zm-9,3.68h0l-.43-.63ZM187.65,259a8.93,8.93,0,0,1-1.71.25h-.86c-.3,0-.79-.09-1.17-.11l-.63,0-.88-.13-1.76-.26-3.51-.54c-4.68-.68-9.35-1.49-14-2.28q-14-2.43-27.87-5.27L148.86,253q10.56,2,21.13,3.82c3.53.62,7.06,1.16,10.59,1.74l2.66.41,1.82.2A9.41,9.41,0,0,0,187.65,259ZM14.41,233.51a12.41,12.41,0,0,1,2.13,2.16,6,6,0,0,1,1.69,0c1.55.18,3.06.41,4.54.7-.19-.39.17-.31.35-.34l.55,0-4.79-1.23A42.8,42.8,0,0,1,14.41,233.51Zm-11.16,1-.15-.16.27-.62Zm-.42,1,.24.1C3,235.83,2.92,235.75,2.83,235.5Zm2.15.87a1.93,1.93,0,0,0-.32-.35Zm2.28,18.18.63-3.14-.71,3Z"/><path d="M111.85,286.65l0,.26a.48.48,0,0,1-.43-.25c.63,2.37,3.21,3.24,5.43,3.08a1.1,1.1,0,0,0,1.54-.06,1.08,1.08,0,0,0,0-1.55,1.29,1.29,0,0,1-.16-.41,8.55,8.55,0,0,0-1.17-3.5l.21.84a2.78,2.78,0,0,0-.63-.88l-.11.34a2.53,2.53,0,1,0-4.83,1.52Z"/><path d="M111.4,290.73c-.3-.73-.56-1.47-.82-2.22l0-.24-.53.76,0,0a4.51,4.51,0,0,1,2.86.54l.34.11a.86.86,0,0,0,.55-.21.81.81,0,0,0,0-1.15l-.35-.37c-.65-1.18-2.17-2.39-3.67-1.57-.35.19-.52.64-.76,1a1.11,1.11,0,0,0,.09,1.57,1.12,1.12,0,0,0,1.58-.09l.17.3-.33,0c.46-.32,1-.07,1.49,0l.58.26.6-1.35-.37,0a1.2,1.2,0,0,0,0,.17,10.07,10.07,0,0,1-2.13-.34l-1-.11a.68.68,0,0,0-.53.76l.11.48,0-.25c.49.79,1.1,1.51,1.58,2.31a.28.28,0,1,0,.49-.26Z"/><path d="M108.84,289a.63.63,0,0,0-.25-.45l-.14,0,.07.36C108.56,289.2,108.73,289.16,108.84,289Z"/><path d="M108.45,288.58l0-.16,0,.16h0Z"/><path d="M133.56,304.71a38.13,38.13,0,0,0,2.88,3.07s.11,0,.17-.07.07-.14,0-.17a42,42,0,0,1-2.87-3.08s-.11,0-.16.06S133.53,304.67,133.56,304.71Z"/><path d="M136.33,318.05a.29.29,0,0,0-.13.18c0,.06,0,.1.09.07a.31.31,0,0,0,.14-.18C136.44,318.05,136.39,318,136.33,318.05Z"/><path d="M131.83,323.38a1.82,1.82,0,0,0-.75.07,0,0,0,0,1-.06-.06.44.44,0,0,1-.29.21,15.4,15.4,0,0,1-4.82-.83,1.78,1.78,0,0,1-.26.22c-.3.22-.57.25-.7.07l-.07-.17c-.38-.56-.79-1.08-1.15-1.65a.81.81,0,0,1-.54,0,13.87,13.87,0,0,1-2.06-.08.88.88,0,0,1-.16.3c-.2.24-.45.34-.56.24l-.19-.13c.13.2.25.4.37.6a.18.18,0,0,1,0,.1,3.82,3.82,0,0,0,.6.43,15.18,15.18,0,0,0,6.65,1.63c.06,0,.1,0,.07.09s-.09.15-.15.16c-2,.44-4.08,1.37-5.85,1.29a31.17,31.17,0,0,1-6-.8c-1.45-1.13-3.26-1.59-5.09-2.31-.61-.24-1.2-.51-1.77-.79a2.58,2.58,0,0,1-.25-.15l-.38-.24-.76-.5-1.51-1c-2-1.36-3.9-2.79-5.85-4.26a3.32,3.32,0,0,1-1.2-4.54,3.35,3.35,0,0,1,2.56-1.63l-.33-.29-.43-.61a2.91,2.91,0,0,1-.47-2l.08-.91c.37-1.55.27-3.16.78-4.69l.44-.38v-.21a2.86,2.86,0,0,1,.31-1.72l.46-.52a7.13,7.13,0,0,1,1.87-1.38,2.36,2.36,0,0,1,.62-.6,3.4,3.4,0,0,1,1.24-1.92.47.47,0,0,1,.46-.5.48.48,0,0,1,.26.07h0a3.4,3.4,0,0,0,.07-.49l-.15-.25-.53-.72a2.33,2.33,0,0,1-.08-.8c.46-1.21.46-1.21.84-1.59l.15-.08c-.13-.32-.14-.35-.17-.44a1.17,1.17,0,0,1,0-.25c.17-.24.17-.24.19-.35a1,1,0,0,1,.12-.18c.33-.15.33-.15.39-.22a.85.85,0,0,1,.17-.06l.34.07-.12.85.23-.15-.13.33.14-.28.06.28,0-.37c.33.41.33.41.5.52a.82.82,0,0,0,.35.22,1.1,1.1,0,0,1,.09-.14c.35.42.35.42.69.85a1.57,1.57,0,0,1,0,.24.25.25,0,0,1,.27.07l.19.22h.07v0l.28,0H111l1.19.12a3.51,3.51,0,0,1,.27.4l0-.19c0-.14.23-.3.2-.35a16.74,16.74,0,0,0-2.19-3.15.41.41,0,1,1,.41-.71,9,9,0,0,1,6.55,4.95c.45.54.91,1.05,1.38,1.57v-.17l.29.49,0,0v-.64l-.13-.29a26.3,26.3,0,0,1-2.71-4,22.35,22.35,0,0,1-1.16-2.29.38.38,0,0,1,0-.53.36.36,0,0,1,.51,0c2.28,1.32,4.44,3.4,5,6a2.17,2.17,0,0,1,.76,1.17v0l0-.52c.22.31.16.7.33,1l.25-.53c1.17,1.36,2.78,2.4,3.56,4.05a.91.91,0,0,1,.11.16,8.82,8.82,0,0,1,2,.46l-.23-.41a1.39,1.39,0,0,1,1,.28,3.12,3.12,0,0,1,.38,3.37,49.4,49.4,0,0,0,4.52,2.64c.09,0,.08.18,0,.32s-.24.24-.33.2a16.17,16.17,0,0,1-3.68-1.38,14.76,14.76,0,0,0,2.13,2.46l.37.19a.71.71,0,0,1,.27.32,13,13,0,0,0,3.43,2.26,31.91,31.91,0,0,0,3.51,1.1,12.29,12.29,0,0,1,4.77,1.8c.21.09.18.46-.07.82s-.61.58-.82.48c-3.56-1.06-7.24-1.86-10-4.24l-.87-.77-.1.14a2,2,0,0,1-.46.45,9.64,9.64,0,0,1,.86,1,6.52,6.52,0,0,1,3.41,1.71,8.9,8.9,0,0,1,1.28,2.47c1,.43,2,.8,3,1.26,0,0,.06.07,0,.14a.22.22,0,0,1-.16.13,13.88,13.88,0,0,1-2.56-.33,2.5,2.5,0,0,1-1.28,1.55l.38.33c.08.08.05.25-.07.41s-.3.23-.37.17l-1.6-1.35c-.79-.34-1.56-.7-2.32-1.08a3.41,3.41,0,0,1-.39.9h0l.32.22a13.82,13.82,0,0,1,6.62,3.22s0,.11,0,.18-.13.11-.16.08a11.87,11.87,0,0,0-1.75-1.33h0a.29.29,0,0,1-.13.18c-.06,0-.11,0-.1-.06a.28.28,0,0,1,.14-.18,14.65,14.65,0,0,0-3.87-1.62,17.1,17.1,0,0,1,2.92,2.3l.53,0s.05.08,0,.16-.12.12-.16.11H136c.16.17.07.58-.23,1s-.69.54-.87.38a18.48,18.48,0,0,1-1.64-1.07l-.22-.06-.31.05c.68.77,1.34,1.57,2,2.38.07.05.05.2-.06.33s-.24.21-.31.16a28.23,28.23,0,0,1-5.11-2.14l-2.75.64.17.16c1.54,1.19,4.12.57,5.87,1.39.05,0,0,.09,0,.16s-.12.12-.16.09a16.71,16.71,0,0,0-3-.46,15.31,15.31,0,0,0-2.55-.28c1.26.73,2.9.87,4.28,1.42.07,0,.09.08.07.17a.3.3,0,0,1,.1-.07,2.39,2.39,0,0,1,.78-.07c.06,0,.07.05,0,.13A.27.27,0,0,1,131.83,323.38ZM113.55,296.6v-.13l.09.29-.15.76Zm-5-.65h0l.08-.43C108.64,295.7,108.62,295.83,108.6,296Zm21,8.75a4.52,4.52,0,0,1-1.41-1.86l.5.25C129.05,303.6,129.35,304.13,129.64,304.7Zm-16.79-11.93a6,6,0,0,1,0,1.59,2.2,2.2,0,0,1,.69.42,18.17,18.17,0,0,1,1.52,1.52c.08-.24.2-.12.28-.09l.24.12c-.48-.6-1-1.21-1.43-1.84A15.6,15.6,0,0,1,112.85,292.77Zm-4.68-2.46v-.11l.33-.2Zm-.55.35,0,.11C107.56,290.85,107.56,290.79,107.62,290.66Zm.5,1a.63.63,0,0,0,0-.24Zm-6,8.83,1.41-1.19-1.39,1.12Z"/></g></g></svg>