<svg id="Layer_1" data-name="Layer 1" xmlns="http://www.w3.org/2000/svg" viewBox="0 0 1080 601.4"><path d="M377,515.49c29.28-24.83,66.51-39.64,104.55-43.82,39.2-4.32,78.71,2.49,115.16,17.19a294.5,294.5,0,0,1,59.38,32.82c6.27,4.43,12.22-5.89,6-10.28-67.42-47.63-155.59-68.91-234.72-38.86a200.69,200.69,0,0,0-58.79,34.53c-5.86,5,2.6,13.35,8.42,8.42Z"/><path d="M503.05,423.57,537.32,397c6-4.69-2.43-13.06-8.42-8.42l-34.26,26.57c-6.05,4.69,2.43,13.06,8.41,8.42Z"/><path d="M557.24,544.84c51.07-3.17,102.21,6.15,152.59,13.25,10.62,1.5,21.88,4.13,32.62,4.07,5.37,0,11.13-1.58,14.34-6.21,6.73-9.72-2.46-21.3-9.83-27.4a87.5,87.5,0,0,0-23.05-13.23c-11-4.46-22.65-6.22-33.7-10.31a65.5,65.5,0,0,1-12.15-5.89c-2.47-1.54-6.86-4.22-7.62-7.37-.56-2.28,1.48-3.86,3.42-5.22a31.42,31.42,0,0,1,16.51-5.75c9.67-.36,18.87,3.74,28.54,3.58,8.12-.14,18.33-2.68,22.49-10.39,7.22-13.38-4.22-32.1-10.7-43.48-11.06-19.42-25.6-38-31.05-60-3.56-14.38-.54-28.13,8.45-39.87s22-19.93,34.36-27.83c6.44-4.11.47-14.42-6-10.28-20.48,13.07-43.4,28.61-49,54-5.31,23.92,7.26,47.73,19.32,67.56,8.4,13.81,18.63,27.65,23.4,43.27,1.44,4.71,2.79,10.42-1,12.71-8.42,5.07-19,1.27-27.84-.19-11.18-1.85-21.75-.47-31.66,5.32-7,4.08-13.25,11.15-10.67,19.79,2.39,8,10.58,13.44,17.63,17,10,5.11,20.58,7.29,31.26,10.38,9.46,2.75,18.7,6.44,26.94,11.91,4.62,3.07,9.59,7,11.86,12.15a5.83,5.83,0,0,1,.48,3c.11-.48,0-.65-.36.17.2-.51.77-.5.08-.23s.8-.19-.71.38c1.18-.45-1.27.33-1.67.4.6-.11-1.74.11-2.38.1-5.26,0-10.65-1.13-15.86-1.82-55.85-7.4-112.39-19-169-15.5-7.61.47-7.67,12.38,0,11.91Z"/><path d="M486.61,34.84c-5.35,81.81,44.14,156,112.47,197.07a296.65,296.65,0,0,0,60.24,27.32c7.3,2.4,10.42-9.09,3.17-11.48C591.38,224.34,528.09,172.58,506,99.08a181.09,181.09,0,0,1-7.46-64.24c.49-7.65-11.41-7.62-11.91,0Z"/><path d="M513,155.56a660.37,660.37,0,0,0-174.28,90.23c-6.14,4.46-.21,14.79,6,10.28a650.1,650.1,0,0,1,171.44-89c7.21-2.47,4.11-14-3.17-11.48Z"/><path d="M609.91,56.16c-5.35,81.8,44.14,156,112.47,197.07a297.74,297.74,0,0,0,60.24,27.32c7.3,2.4,10.42-9.1,3.17-11.48-71.11-23.41-134.4-75.18-156.51-148.67a181.34,181.34,0,0,1-7.46-64.24c.5-7.65-11.41-7.62-11.91,0Z"/><path d="M636.33,176.87A660.3,660.3,0,0,0,462,267.11c-6.14,4.45-.21,14.79,6,10.28a650.13,650.13,0,0,1,171.44-89c7.21-2.46,4.11-14-3.16-11.48Z"/></svg>