<svg id="Layer_1" data-name="Layer 1" xmlns="http://www.w3.org/2000/svg" viewBox="0 0 1080 601.4"><path d="M360.14,488.79c.2,0,.4,0,.59,0-.07.35-.4.61-.85.8a10.54,10.54,0,0,0,6.84-3.4,16.3,16.3,0,0,0,3.92-6.41,2.46,2.46,0,0,0,1.2-3.18,2.4,2.4,0,0,0-3.33-.65,4.27,4.27,0,0,1-1,.15,21.92,21.92,0,0,0-8.7.79l2-.07a7.24,7.24,0,0,0-2.49.94l.67.35c-3.28.38-6.11,3.16-6.16,6.13s2.63,5,5.84,4.64Z"/><path d="M368.53,491.37c-1.73.31-3.47.55-5.24.79l-.51-.15,1.28,1.41-.06-.11c.13-2.09,1.61-4,3.09-5.68l.48-.66a1.49,1.49,0,0,0,0-1.19,1.77,1.77,0,0,0-2.42-.65c-.36.18-.7.38-1.06.57-3,.88-6.73,3.62-5.92,7.05.2.79,1.06,1.32,1.68,1.93a2.52,2.52,0,0,0,3.45.44,2.38,2.38,0,0,0,.82-3.29l.74-.24c-.06.23-.11.47-.17.7-.37-1.09.51-2.07.93-3.1l1-1.12-2.44-1.8-.38.76.33.15a26.35,26.35,0,0,1-2.19,4.3l-.89,2a1.31,1.31,0,0,0,1.3,1.4l1.09,0-.55-.05c2-.7,3.91-1.67,5.89-2.31a.67.67,0,0,0,.51-.73A.54.54,0,0,0,368.53,491.37Z"/><path d="M363.21,495.93a1.57,1.57,0,0,0-1.12.35v.3h.83C363.49,496.58,363.5,496.23,363.21,495.93Z"/><path d="M362.08,496.58h-.34l.32.1,0-.05Z"/><path d="M514,446.74c1.12.11,2.25.18,3.37.32l3.35.43,6.69.86,6.64,1.1,3.32.55,3.29.67,6.57,1.35,6.51,1.57,3.25.78c1.07.28,2.14.6,3.21.89l6.42,1.81c.57.15,1.07.22,1.13.11s-.36-.35-.89-.49l-6.42-1.82-3.22-.9-3.25-.79-6.5-1.59-6.57-1.35-3.28-.68-3.32-.56-6.64-1.11c-2.22-.32-4.45-.58-6.68-.87s-4.47-.6-6.73-.76a1.87,1.87,0,0,0-1.2.15C513,446.55,513.45,446.69,514,446.74Z"/><path d="M633.71,496.87c-.39-.13-.43,0-.1.23a4.76,4.76,0,0,0,1.21.69c.33.1.38,0,.1-.24A4.79,4.79,0,0,0,633.71,496.87Z"/><path d="M626.71,502.09c-1.05-.48-2.07-.95-3.07-1.36s-2-.75-2.93-1.05a5.38,5.38,0,0,1-1-.49c0,.21-.42.15-1.2-.15A320.8,320.8,0,0,0,570.13,484a1.65,1.65,0,0,1-.82.27,16.78,16.78,0,0,1-5.95-.77l-1.75-.55c-1.79-.49-3.59-.88-5.38-1.33s-3.59-.9-5.4-1.25l-5.41-1.09-2.71-.55-2.71-.46a41,41,0,0,1-5.17-.18c-3.19,0-6.38.11-9.57.14l-9.61.45c.4.17.63.36.62.56s-.49.42-1.09.56a9.83,9.83,0,0,1-2.27.25l-2.59.06c2.48.1,5,.12,7.43.39a9.07,9.07,0,0,1,1,.11c2.72.12,5.49.12,8.29.34A288,288,0,0,1,597.77,493a3.71,3.71,0,0,1,1.23.54c.18.17.09.27-.33.15C584,490,570.92,489,554.61,487.36a221.51,221.51,0,0,0-57.2,1.86A148.52,148.52,0,0,0,469.14,495a167.67,167.67,0,0,0-26.58,10.67c-1.5.67-2.91,1.52-4.35,2.27l-4.28,2.27-4.12,2.45c-1.36.82-2.75,1.57-4.05,2.46l-1,.65-.5.32-.17.13-.63.47-1.27.93c-.84.62-1.71,1.17-2.51,1.83q-2.44,1.89-4.92,3.67c-1.64,1.2-3.19,2.53-4.81,3.76a5,5,0,0,1-4,1.47,6.5,6.5,0,0,1-4.22-2.21,7.44,7.44,0,0,1-1.93-5.79l-.65.46-1.24.43a5.19,5.19,0,0,1-3.81-.3l-1.64-.68c-2.72-1.58-5.74-2.19-8.49-4l-.55-1-.4-.11a6,6,0,0,1-3.2-1.45l-.83-1.15a13.26,13.26,0,0,1-1.88-4.36,5,5,0,0,1-.91-1.5,6.89,6.89,0,0,1-3.23-3.35,1,1,0,0,1-.76-1.17,1.08,1.08,0,0,1,.27-.49h0a9,9,0,0,0-1-.36l-.59.2-1.76.76a5.15,5.15,0,0,1-1.71-.18c-2.28-1.44-2.29-1.43-2.89-2.35,0-.11-.06-.23-.08-.34-.76.14-.82.14-1,.17a2.27,2.27,0,0,1-.52-.13c-.41-.43-.41-.43-.64-.52a2.25,2.25,0,0,1-.31-.32c-.13-.73-.13-.73-.24-.88a2.1,2.1,0,0,1,0-.38l.36-.66,1.74.58-.17-.53.62.41-.51-.42h.63l-.8-.1a5.1,5.1,0,0,0,1.41-.81,2,2,0,0,0,.68-.64,1.89,1.89,0,0,1-.25-.24c1.13-.55,1.13-.55,2.24-1.06.17,0,.33.1.48.15a.53.53,0,0,1,.32-.52l.56-.29c0-.06,0-.11.05-.15l0,0,.24-.56,0-.12h0c.16-.38.39-.94,1.07-2.35a8,8,0,0,1,1-.35c-.14,0-.28,0-.42-.06s-.47-.59-.59-.57a19.28,19.28,0,0,0-2.12.52c-.69.24-1.36.51-2,.8-1.34.58-2.66,1.23-4,1.85a1,1,0,0,1-1.32.09.82.82,0,0,1,.07-1.23c2.69-6,9.13-9.75,15.48-11,1.5-.58,3-1.19,4.47-1.81l-.34-.11,1.27-.28.13-.05-1.33-.36c-.24,0-.48.05-.71.09a28.41,28.41,0,0,1-5.29,1.71c-1.8.47-3.61.95-5.42,1.54s-3.91.8-5.89,1.27a.85.85,0,0,1-1.14-.24.81.81,0,0,1,.43-1.05,35.52,35.52,0,0,1,8.15-5.22,20.89,20.89,0,0,1,9.17-1.76,5.64,5.64,0,0,1,3.13-.8h.05l-1-.36c.82-.26,1.58.14,2.39,0l-.82-.82c2-.67,3.93-1.58,5.88-2.38,1-.39,1.95-.76,2.94-1.05a14.45,14.45,0,0,1,3.06-.48,3.93,3.93,0,0,1,.44-.1,21.86,21.86,0,0,1,1.76-2l.49-.46.14-.11.43-.25.88-.49a38.17,38.17,0,0,1,3.73-1.87c-.93.3-1.83.65-2.73,1l-2.66,1,.27-.17.34-.21.68-.4,1.36-.8c.91-.54,1.84-1,2.8-1.48,1.92-.92,3.9-1.79,6-2.61,11.37-4.37,24.9-6.54,31.65-5.37a245,245,0,0,1,33.55-6.19,270.74,270.74,0,0,1,33.9-1.42,4.19,4.19,0,0,1,2.41.56c.11.27-.66.48-1.82.45a264.88,264.88,0,0,0-48.55,4.61,290,290,0,0,1,41.22-2c1.77,0,3.55-.07,5.33,0s3.51.22,5.25.42c17.69,1,34.15,4,51.53,8.05l2.76.63,2.7.72,5.31,1.41c1.77.45,3.48,1,5.19,1.52l5.12,1.56c3.4,1.07,6.74,2.28,10.17,3.44s6.81,2.57,10.34,3.93a281.15,281.15,0,0,1,27.91,13.11,246.43,246.43,0,0,1,25.84,16.33c2.26,1.62,4.13,3.43,4.14,4s-1.84-.28-4.1-1.88a311.22,311.22,0,0,0-27.74-16.69,319.88,319.88,0,0,0-29.49-13.56A298.23,298.23,0,0,0,571,462.09a314,314,0,0,0-33-7.38c-2.43-.45-4.87-.73-7.29-1.1l-3.62-.52c-1.2-.15-2.41-.26-3.62-.39a.46.46,0,0,1,.1.28c0,.36-.51.64-1.3.85l4.1.46c1.36.18,2.72.41,4.08.62l4.09.66,2,.34,2,.42A189.81,189.81,0,0,1,584.28,467a233.92,233.92,0,0,1,28.53,13.49,281.53,281.53,0,0,1,34.41,18.29,3.14,3.14,0,0,1,1,.79c.11.19-.17.11-.63-.16l-5.94-3.27-3-1.65-3-1.57c-2-1.05-4.08-2.11-6.14-3.16l-6.26-3c1.14,1,1.72,1.75,1.41,2.1s-1.5.2-3.15-.34l5.51,3c1.14.61,1.94,1.26,1.8,1.45s-1.12-.14-2.2-.71c-3.75-2-7.48-4-11.31-5.83-1.91-.92-3.79-1.91-5.73-2.77L603.7,481a293.27,293.27,0,0,0-28.88-9.87,7,7,0,0,1,2.43,2.11h0l4.49,1.39c27.69,7.64,54.5,21.05,78.43,38.55.48.33.83.66.78.75s-.46-.11-.88-.42c-3.65-2.58-7.26-5.22-11-7.61-1.88-1.21-3.71-2.48-5.64-3.61l-5.72-3.45,0,0c.28.24.27.37-.1.23a5,5,0,0,1-1.19-.72c-.32-.27-.23-.35.09-.24a245.62,245.62,0,0,0-44.89-20.11,256.39,256.39,0,0,1,40.77,19.23c1.49.71,3,1.35,4.48,2.12a3.45,3.45,0,0,1,1,.76c.07.13-.27.05-.68-.17l-1.23-.63c2.42,1.51,4.07,3,3.76,3.43s-2.7-.52-5.22-2c-6.9-3.75-13.81-7.43-20.92-10.69l-2.33-1-2.43-.83a290.9,290.9,0,0,1,31.73,17.58c.89.52,1.57,1.1,1.49,1.26s-.88-.12-1.77-.64a297.55,297.55,0,0,0-28.58-14,286.65,286.65,0,0,0-30-11c-3.48-.62-7-1.09-10.47-1.62-3.54-.38-7.05-.82-10.6-1.11.87.19,1.73.42,2.6.65,11.12,2.61,21.43,5.16,31.58,8.25A196.37,196.37,0,0,1,625,499.37a2.05,2.05,0,0,1,.9.67c0,.11-.37,0-.88-.26a221.25,221.25,0,0,0-29.69-11.38L589,486.45l-6.27-1.65-3.09-.79-3.1-.66c-2-.42-4.09-.85-6.12-1.23l6.08,1.61,3,.77,3,.87,6,1.71,5.93,1.88,3,1,2.93,1,5.87,2.11c1.94.76,3.87,1.56,5.81,2.35l2.91,1.2c1,.41,1.92.86,2.88,1.3a7.08,7.08,0,0,1,1.7,1c.06,0,.22,0,.44.06a61,61,0,0,1,6.32,2.52,3.18,3.18,0,0,1,1.06.68C627.47,502.32,627.18,502.27,626.71,502.09Zm-244.6-12-.25-.09h.65l1.4.73Zm-4.67,9.44h0l-.81-.38Zm96.62-48.2-7.27.82c-1.22.11-2.42.29-3.62.46l-3.62.5c-4.85.55-9.63,1.44-14.5,2.06l6.93-1.67,2.74-.44,2.76-.32,5.52-.62c1.83-.23,3.68-.34,5.52-.45ZM373.83,489.43a12.42,12.42,0,0,1,3.27.8,5.19,5.19,0,0,1,1.35-1.16,27.32,27.32,0,0,1,4.26-2.13c-.43-.29-.09-.44,0-.59l.44-.4c-1.58.6-3.25,1.1-4.86,1.75A40.91,40.91,0,0,1,373.83,489.43Zm-8.22,8.41-.23,0-.22-.76Zm.41,1.27.26-.07C366.38,499.31,366.26,499.28,366,499.11Zm2.31-.61a1.58,1.58,0,0,0-.5-.12Zm14.73,16-1.71-3.36,1.56,3.29Z"/><path d="M492.88,408.21l.26,0c0,.16-.16.27-.35.35,2.45,0,3.94-2.3,4.34-4.49a1.1,1.1,0,0,0-1.18-1.85,1.41,1.41,0,0,1-.44.06,8.38,8.38,0,0,0-3.69.27h.87a2.76,2.76,0,0,0-1,.39l.3.18a2.54,2.54,0,0,0,.27,5.07Z"/><path d="M496.73,409.65c-.79.11-1.57.18-2.36.25l-.23-.08.6.7,0,0a4.48,4.48,0,0,1,1.25-2.63l.18-.31a.79.79,0,0,0-.07-.58.8.8,0,0,0-1.09-.34l-.45.25c-1.3.33-2.85,1.51-2.43,3.17.1.38.49.66.77,1a1.11,1.11,0,1,0,1.85-1.24l.33-.09L495,410c-.19-.53.18-1,.34-1.45l.4-.51-1.16-.91-.14.35.15.08a10.19,10.19,0,0,1-.85,2l-.36.94a.68.68,0,0,0,.6.71h.49l-.24,0c.89-.28,1.73-.69,2.63-.95a.28.28,0,0,0-.12-.55Z"/><path d="M494.4,411.7a.64.64,0,0,0-.5.13V412l.37,0C494.54,412,494.53,411.85,494.4,411.7Z"/><path d="M493.9,412h-.15l.14.06v0Z"/><path d="M515.78,391.68a39.84,39.84,0,0,0,3.69-2s0-.1,0-.17-.12-.11-.16-.08a41.17,41.17,0,0,1-3.7,2s0,.1,0,.17S515.74,391.7,515.78,391.68Z"/><path d="M529.39,392.31a.29.29,0,0,0,.14.18c.06,0,.11,0,.09-.07a.28.28,0,0,0-.14-.18C529.42,392.21,529.38,392.25,529.39,392.31Z"/><path d="M533.43,398a1.94,1.94,0,0,0-.11.75s0,.06-.08,0a.42.42,0,0,1,.13.33,15.2,15.2,0,0,1-2,4.47,1.73,1.73,0,0,1,.16.3c.14.35.09.62-.11.7l-.18,0c-.64.23-1.25.5-1.89.71a.74.74,0,0,1-.16.51,15.19,15.19,0,0,1-.59,2,1.39,1.39,0,0,1,.25.24c.18.25.22.51.09.6l-.17.15.67-.21a.2.2,0,0,1,.11,0,4.1,4.1,0,0,0,.57-.46,15.23,15.23,0,0,0,3.23-6.05c0-.05,0-.08.11,0s.12.13.11.18c-.06,2,.31,4.3-.21,6a30.89,30.89,0,0,1-2.25,5.56c-1.46,1.13-2.36,2.77-3.51,4.36a16.66,16.66,0,0,1-1.21,1.51,1.17,1.17,0,0,1-.2.21l-.33.31-.67.62-1.36,1.2c-1.82,1.58-3.68,3.08-5.59,4.6a3.32,3.32,0,0,1-5.64-2.85l-.36.25-.69.26a2.87,2.87,0,0,1-2.06,0l-.85-.3c-1.41-.74-3-1.05-4.36-1.93l-.25-.52-.2-.05a2.9,2.9,0,0,1-1.58-.74l-.4-.57a7.21,7.21,0,0,1-.87-2.16,2.51,2.51,0,0,1-.43-.74,3.48,3.48,0,0,1-1.55-1.68.48.48,0,0,1-.36-.58.46.46,0,0,1,.12-.23h0a4,4,0,0,0-.46-.19l-.28.08-.83.33a2.21,2.21,0,0,1-.79-.12c-1.06-.75-1.06-.75-1.34-1.2l0-.17a2.69,2.69,0,0,1-.47.05,1,1,0,0,1-.24-.07c-.19-.22-.19-.22-.29-.27a1.22,1.22,0,0,1-.15-.16c-.06-.36-.06-.36-.11-.43a1,1,0,0,1,0-.18c.1-.2.13-.28.15-.31l.79.32-.08-.25.29.21-.24-.22.29,0-.37-.07a1.89,1.89,0,0,0,.63-.35.78.78,0,0,0,.3-.29.55.55,0,0,1-.12-.12l1-.45.23.08a.23.23,0,0,1,.13-.24l.25-.13,0-.07,0,0c0-.1.06-.17.1-.25v-.06h0c.06-.18.16-.44.41-1.12a2.75,2.75,0,0,1,.45-.17l-.19,0c-.13,0-.24-.29-.29-.28a17.62,17.62,0,0,0-3.59,1.34.4.4,0,0,1-.58,0,.39.39,0,0,1,0-.58,8.92,8.92,0,0,1,6.42-5.11c.63-.3,1.24-.62,1.86-.95l-.16-.05L502,403l.05,0-.63-.15-.31.06a26.82,26.82,0,0,1-4.53,1.63,23.89,23.89,0,0,1-2.51.55.36.36,0,0,1-.5-.14.35.35,0,0,1,.13-.49c1.85-1.88,4.4-3.45,7.1-3.38a2.16,2.16,0,0,1,1.32-.44h0l-.49-.15c.34-.13.7,0,1-.06l-.45-.38c1.61-.79,3-2.09,4.81-2.43l.18-.08a8.89,8.89,0,0,1,.94-1.79l-.46.13a1.41,1.41,0,0,1,.52-.89,3.11,3.11,0,0,1,3.36.47,48,48,0,0,0,3.68-3.73c.06-.07.2,0,.31.1s.17.29.11.36a16.44,16.44,0,0,1-2.25,3.23,15.2,15.2,0,0,0,2.91-1.45l.28-.32a.68.68,0,0,1,.38-.18,13,13,0,0,0,3-2.76,31.2,31.2,0,0,0,1.94-3.13,12.35,12.35,0,0,1,2.93-4.16c.14-.18.49-.06.78.27s.4.74.26.91c-1.92,3.19-3.61,6.55-6.6,8.6l-1,.65.12.13a2.1,2.1,0,0,1,.31.56,10.41,10.41,0,0,1,1.21-.58,6.55,6.55,0,0,1,2.5-2.87,8.66,8.66,0,0,1,2.71-.63c.67-.86,1.28-1.77,2-2.6,0-.05.07,0,.14,0a.24.24,0,0,1,.08.19,14.19,14.19,0,0,1-1,2.39,2.42,2.42,0,0,1,.76.69,2.21,2.21,0,0,1,.42.94l.42-.29c.1-.06.26,0,.37.17s.16.35.08.4l-1.7,1.21c-.53.69-1.07,1.34-1.63,2a3.36,3.36,0,0,1,.77.6h0l.29-.26a13.89,13.89,0,0,1,4.77-5.61s.11,0,.17.08.07.15,0,.17a11.3,11.3,0,0,0-1.72,1.36h0a.28.28,0,0,1,.14.18c0,.06,0,.1-.09.07a.33.33,0,0,1-.14-.17,14.58,14.58,0,0,0-2.52,3.34,17.09,17.09,0,0,1,2.95-2.26c0-.17.08-.34.11-.51s.09,0,.15,0a.22.22,0,0,1,.08.18l0,.14c.21-.12.58.08.87.45s.36.81.15.95a18,18,0,0,1-1.44,1.32l-.11.2,0,.31c.91-.47,1.85-.91,2.79-1.33.07-.06.21,0,.31.14s.14.29.08.34a28.51,28.51,0,0,1-3.35,4.42l-.06,2.82.19-.12c1.54-1.2,1.58-3.85,2.81-5.35,0,0,.1,0,.16.05s.08.15,0,.19a16.73,16.73,0,0,0-1.2,2.81,16.44,16.44,0,0,0-.9,2.4c1-1,1.56-2.59,2.44-3.78,0-.07.1-.08.18,0a.28.28,0,0,1,0-.12,2.59,2.59,0,0,1,.12-.77c0-.06.07-.06.14,0A.26.26,0,0,1,533.43,398Zm-30.49,11-.12,0,.3,0,.7.33Zm-1.86,4.64h0l-.39-.18Zm13.72-18.2a4.64,4.64,0,0,1-2.16.91L513,396C513.58,395.76,514.18,395.61,514.8,395.47Zm-15.74,13.29a6.06,6.06,0,0,1,1.55.38,2,2,0,0,1,.57-.56c.61-.4,1.22-.77,1.85-1.1-.22-.13-.07-.21,0-.29l.18-.2q-1.05.48-2.13.93A16.6,16.6,0,0,1,499.06,408.76Zm-3.55,3.92-.1,0-.11-.37Zm.2.62.12,0C495.88,413.4,495.82,413.38,495.71,413.3Zm1.06-.24a.79.79,0,0,0-.23-.07Zm7.06,8-.8-1.67.73,1.63Z"/><path d="M560.54,517.18l.43.36a1.36,1.36,0,0,1-1.11,0A11.18,11.18,0,0,0,567,519.3a15.91,15.91,0,0,0,6.47-1.74c1.31.25,2.46-.3,2.59-1.22s-.85-1.88-2.19-2.18a5.25,5.25,0,0,1-.85-.48,26.28,26.28,0,0,0-6.93-4.42c.53.38,1,.73,1.57,1.12a8.38,8.38,0,0,0-2.38-.86c.1.18.22.41.31.59-2.66-1.69-6.3-1.8-8-.06s-.87,4.68,1.78,6.35Z"/><path d="M565.52,523.49c-1.53-.75-3-1.56-4.5-2.42l-.3-.37.17,1.6,0-.1c1.29-1.24,3.53-1.6,5.59-1.81l.73-.17a1.1,1.1,0,0,0,.64-.75c.15-.71-.51-1.48-1.49-1.69l-1.13-.24c-2.76-1.13-7.14-1.71-8.5.92-.3.61,0,1.46.17,2.21a2.53,2.53,0,0,0,2.39,2.27c1.35.16,2.47-.57,2.52-1.61l.7.27-.53.34c.34-.89,1.57-1,2.47-1.42l1.37-.14-.86-2.47-.71.26c.06.1.17.27.16.27a23.22,23.22,0,0,1-4.09,1.41l-1.84.76a1,1,0,0,0,.18,1.63l.87.6-.4-.35c2,.69,4,1.15,5.87,1.82a.67.67,0,0,0,.81-.19A.47.47,0,0,0,565.52,523.49Z"/><path d="M558.8,523.42a1.76,1.76,0,0,0-1.07-.42,1.52,1.52,0,0,0-.17.19l.63.47C558.64,524,558.85,523.77,558.8,523.42Z"/><path d="M557.56,523.19l-.27-.2c.07.08.13.17.19.25l0,0Z"/><path d="M670.77,515.1c-1-.54-2-1.07-2.89-1.62-.45-.27-1-.54-1.37-.82l-.89-.83-.45-.41-.64-.42-1.28-.85c-.34-.28-.57-.57-.86-.85l-.41-.42a4.59,4.59,0,0,0-.55-.44l-1.2-.88a7.87,7.87,0,0,1-.8-.88,14.49,14.49,0,0,0-2-1.84,22.19,22.19,0,0,1-1.39-1.88c-.24-.32-.41-.63-.69-1l-1-1.05c-.07-.09-.17-.18-.23-.27l-.15-.26-.29-.53c-.19-.34-.38-.7-.56-1.08a6.61,6.61,0,0,0-.62-1.15,11.2,11.2,0,0,1-.79-1.24l-.42-1.26L651,493.8l-.29-1.46c-.15-.55-.38-1.1-.48-1.65s0-1.1,0-1.69a12.36,12.36,0,0,0,0-1.85c0-.33,0-.66,0-1l.26-.94a16.29,16.29,0,0,1,.63-1.86c.23-.61.34-1.27.52-1.9a1.06,1.06,0,0,1,.19-.45l.26-.41.51-.84c.31-.56.53-1.13.81-1.7a3.29,3.29,0,0,1,.21-.42l.31-.35.64-.71c.94-.92,1.38-2,2.27-2.86a34.33,34.33,0,0,0,2.83-2.41l1.3-1.23c.45-.4.92-.77,1.39-1.16s.92-.77,1.4-1.14l1.55-1a67.42,67.42,0,0,1,6.22-3.61l3.06-1.54,1.46-.74.73-.37.36-.18c.15,0,.32,0,.47-.07l1.9-.21,1-.11.48-.06.36-.16,1.41-.65.7-.32a1.42,1.42,0,0,1,.38-.14h2.48a5.25,5.25,0,0,0,1.87-.18l1.64-.48.82-.24c.11-.07.34,0,.52,0l.56,0,2.24.17c.37,0,.75.07,1.12.08l1-.13,2.07-.27c.36,0,.66-.11,1.07-.12l1.18-.06a48.73,48.73,0,0,1,4.9-.09l2.63.07a26,26,0,0,0,2.64-.1,12.58,12.58,0,0,0,3.48-.48c0-.19-1.51-.27-3.28-.14-.89,0-1.78.11-2.67.14l-2.65-.08c-.87,0-1.8-.07-2.61,0l-2.39.11-1.19.06a9.14,9.14,0,0,0-1.12.1l-2.08.29a15.85,15.85,0,0,1-4.4,0l-1.13-.08a.89.89,0,0,0-.48.06l-.41.13-1.63.5-.82.25c-.32,0-.66,0-1,0l-2,0a7.9,7.9,0,0,0-1,0l-.7.34-1.4.67a3.09,3.09,0,0,1-.74.3l-1,.11-1.9.23a3.68,3.68,0,0,0-.92.16l-.72.38-1.45.76-3,1.56c-1,.49-2.07,1.14-3.1,1.71s-2.07,1.24-3.1,1.91a22.94,22.94,0,0,0-3,2.13l-1.38,1.17c-.46.39-.87.82-1.3,1.23s-.83.84-1.32,1.24l-1.47,1.19-.37.3-.19.15-.13.19-.51.73a14.68,14.68,0,0,1-1.1,1.46l-1.26,1.43-.78,1.72c-.29.56-.66,1.12-1,1.68a1,1,0,0,0-.18.45l-.12.48-.24,1a12.77,12.77,0,0,0-1,3.76l.05,1a8.57,8.57,0,0,1-.05.9,14.47,14.47,0,0,0,0,1.72c.53,2.34.82,4.16,1.39,5.82a4.13,4.13,0,0,0,.67,1.25l.41.63c.1.19.18.37.27.56.34.75.71,1.44,1.08,2.15a29.19,29.19,0,0,1,3,3.94,1.9,1.9,0,0,0,.47.47l.54.47a6.61,6.61,0,0,1,1,.92l.72.89a3.63,3.63,0,0,0,.53.44l.6.45a10.14,10.14,0,0,1,1.85,1.73c.62.57,1.75,1.14,2.36,1.7.87,1.12,3.06,2.24,5,3.31a12.64,12.64,0,0,0,2.53,1.11C672.41,516,671.77,515.63,670.77,515.1Z"/><path d="M690.12,343.36c-.18.89,0,.89.36,0A13.79,13.79,0,0,0,691,342a15.57,15.57,0,0,0,.5-1.51c.19-.73,0-.77-.35,0a11.23,11.23,0,0,0-.65,1.5A14.26,14.26,0,0,0,690.12,343.36Z"/><path d="M699.44,352.83a35.25,35.25,0,0,0,1.38,11.59,10.67,10.67,0,0,1,.34,1.95c.19-.28.59.47,1.07,1.93,2.38,7.21,6.17,14.37,10.61,21.65.54.9,1.12,1.82,1.69,2.73l1.74,2.76,1.79,2.78.91,1.4.88,1.34c1.12,1.68,2.38,3.48,3.66,5.3l3.93,5.57a270.4,270.4,0,0,1,15.66,24.36,99.19,99.19,0,0,1,6.77,14.69,51.24,51.24,0,0,1,2.39,9.31,31.51,31.51,0,0,1-.43,12.79,10.94,10.94,0,0,1-.62,3.8,15.4,15.4,0,0,1-1.05,2.63,17.68,17.68,0,0,1-1.74,3,27.1,27.1,0,0,1-2.58,3.16,36.31,36.31,0,0,1-3.31,2.84,41.81,41.81,0,0,1-3.69,2.2l-.24.12-.17.08-.32.14-.65.27-1.33.55c-.9.35-1.82.7-2.76,1s-1.73.42-2.61.63l-1.33.28-.66.14-.29.05h-.13l-1.09.07a23.57,23.57,0,0,1-6.65-.61c-2.22-.47-4.45-1.09-6.75-1.51a24.75,24.75,0,0,0-7-.35,26.72,26.72,0,0,0-6.9,1.9c-.28.29-.59.57-.89.9s-.65.63-1,1a13.49,13.49,0,0,0-2,2.46,5.15,5.15,0,0,0-.22,2.9,6.79,6.79,0,0,0,1.45,2.82,19,19,0,0,0,5,4,50.33,50.33,0,0,0,11.13,4.61c-.18-.13-.14-.21.17-.2a31.58,31.58,0,0,1,4.35.93l2.49.6a41.86,41.86,0,0,1-6.33-2,7.82,7.82,0,0,1-.73-.33,25.8,25.8,0,0,1-6.74-3.88,6.82,6.82,0,0,1-2.49-3.6,4.26,4.26,0,0,1,1.47-3.83,14.15,14.15,0,0,1,3.38-2.38c.59-.35,1.24-.58,1.86-.88.32-.13.65-.21,1-.32a6.54,6.54,0,0,1,1-.26c2.7-.61,5.45-.2,8.21.2a26.26,26.26,0,0,0,4.29.32,15.42,15.42,0,0,0,2.22-.21l1.11-.25L729,496l.8-.22,1.64-.44,1.65-.45a7.57,7.57,0,0,0,.83-.24l.91-.34c1.2-.47,2.4-1,3.59-1.46l.88-.38c.44-.22.94-.48,1.39-.74.93-.51,1.85-1.06,2.74-1.63s1.86-1.41,2.74-2.16c.44-.39.88-.78,1.3-1.18s.83-.89,1.23-1.35a32.5,32.5,0,0,0,2.25-2.89c.63-1,1.23-2,1.77-3.11a21,21,0,0,0,1.31-3.12,22.12,22.12,0,0,0,.91-3.06c.21-1,.39-1.93.54-2.89a12.09,12.09,0,0,0,.15-1.35l.09-1.29,0-1.29,0-.65,0-.57q0-1.14-.12-2.28c0-.37,0-.78-.1-1.12l-.14-1-.31-2c-.24-1.28-.53-2.44-.81-3.66s-.64-2.2-1-3.3l-1.08-3.05a98.3,98.3,0,0,0-4.94-10.62,189.93,189.93,0,0,0-11.09-17.85c-3.81-5.53-7.73-10.82-11.39-15.84a10.33,10.33,0,0,1-1.44-2.35c-.12-.46.09-.49.62.2,4.8,6,10,12.26,15,18.78,2.51,3.26,5,6.64,7.42,10.23a114.48,114.48,0,0,1,7.08,11.81,73.29,73.29,0,0,1,3.24,7.17c.26.62.49,1.38.73,2.06s.48,1.38.7,2.16a46.68,46.68,0,0,1,1.18,4.94l.24,1.35c.07.45.15.89.2,1.43.1,1,.19,2.07.25,3.11a16.3,16.3,0,0,1,0,1.73l-.06,1.8c0,.62,0,1.16-.13,1.85s-.2,1.37-.32,2.06-.24,1.38-.39,2.06a23,23,0,0,1-.62,2.23c-.24.76-.51,1.51-.79,2.26-.14.38-.27.74-.44,1.12l-.56,1.17a34.79,34.79,0,0,1-2.67,4.54,39.31,39.31,0,0,1-3.46,4.14,45.68,45.68,0,0,1-4,3.38,40,40,0,0,1-4,2.52l-1,.56-.4.2-.3.14-1.25.56-2.51,1.08a37.27,37.27,0,0,1-4.75,1.59l-2.17.63-.49.19a10.18,10.18,0,0,1-3.72.65,18.63,18.63,0,0,0-3.81.17,5.68,5.68,0,0,0-3,1.65,4.52,4.52,0,0,0-1.56,3,2.9,2.9,0,0,0,.89,2,8.09,8.09,0,0,0,1.84,1.42,23.44,23.44,0,0,0,7.42,2.56c1.09.2,2.05.4,2.91.63.43.11.83.23,1.2.35l.28.1.14,0,.9.53c1.21.73,2.34,1.36,3.72,2.26a85.68,85.68,0,0,1,15.57,12.64,47.22,47.22,0,0,1,3.48,4.12l.42.55c.06.08.15.2.24.34l.26.41,1,1.62a26.18,26.18,0,0,1,1.9,3.41,19.06,19.06,0,0,1,1.22,14.4c-.22.56-.42,1.13-.68,1.67s-.58,1.06-.89,1.57a16,16,0,0,1-2.32,2.74,8,8,0,0,1-1.35,1.18l-1.46,1.06c-.53.3-1.07.59-1.61.86l-.82.41-.88.31c-.59.21-1.18.4-1.78.59s-1.24.28-1.87.41-1.26.22-1.9.31-1.3.11-2,.14-1.31,0-2,0l-1.63,0-1.62-.06h-.4l-.28,0-.54,0-17-1.39c-11.33-.91-22.66-1.86-34.12-2.53-5.73-.36-11.48-.71-17.3-.94s-11.65-.49-17.56-.55a420.3,420.3,0,0,0-46.83,1.45l-2.85.25-1.42.14-.29,0-.9.16-1.8.3-3.56.56c-2.37.35-4.73.75-7.05,1.18s-4.65.84-7,1.28c-3.47,1.06-6.6-.22-7.11-3.08a5.56,5.56,0,0,1,1.92-4.88l-.86.1L572,557a4.63,4.63,0,0,1-3.14-1.66l-1-1.12c-1.34-2.18-3.49-4-4.68-6.42l.2-1-.27-.25a4.51,4.51,0,0,1-1.73-2.52l0-1.2a10.23,10.23,0,0,1,1.1-3.94,3.48,3.48,0,0,1,.17-1.47,5,5,0,0,1-.58-3.88.72.72,0,0,1,.07-1.17,1.16,1.16,0,0,1,.51-.18h0a6.27,6.27,0,0,0-.56-.74c-.37-.11-.58-.19-.58-.19-1-.22-1-.22-1.83-.43a4.94,4.94,0,0,1-1.23-1c-.93-2.2-.94-2.21-.87-3.15a2.15,2.15,0,0,1,.14-.26c-.67-.34-.72-.37-.9-.48a2.16,2.16,0,0,1-.33-.38c-.07-.51-.07-.51-.19-.7a1.81,1.81,0,0,1-.05-.39c.33-.55.33-.55.33-.71a1.16,1.16,0,0,1,.19-.26l.66-.22,1,1.36.17-.43.25.61-.15-.56.48.36-.55-.51a5.22,5.22,0,0,0,1.55.27,2.08,2.08,0,0,0,.89,0,1.14,1.14,0,0,1,0-.29c1.18.27,1.18.28,2.34.56a4,4,0,0,1,.28.37.52.52,0,0,1,.55-.16l.6.12.13-.07v0l.5-.22.1-.06h0c.72-.31,1.44-.64,2.16-.93.36.1.69.21,1,.33a3.47,3.47,0,0,1-.29-.25c-.19-.19,0-.62-.14-.67a51.63,51.63,0,0,0-8.08-2.5,1,1,0,0,1-1.05-.69c-.09-.41.24-.73.75-.74a18.94,18.94,0,0,1,8.94-.91,34.42,34.42,0,0,1,9,2.53c1.48.36,2.94.78,4.41,1.14l-.21-.24,1.14.47.12,0-.85-.86-.6-.3a89,89,0,0,1-9.94-3.55c-1.82-.66-3.39-1.66-5.15-2.47-.45-.1-.77-.43-.73-.77s.46-.5.9-.41a41,41,0,0,1,8.93,1.4,23.78,23.78,0,0,1,7.9,3.64,6.67,6.67,0,0,1,2.82,1.08h0l-.62-.7c.76.26,1.16.82,1.85,1.13-.08-.27-.16-.59-.24-.86,1.89.52,3.84.88,5.74,1.37a26.4,26.4,0,0,1,5.45,1.8,2.67,2.67,0,0,1,.4.13,21.21,21.21,0,0,1,2.3-.38l.6-.05h.19l1,.14,1.9.29c2.57.38,5.2.8,7.94,1.27l-5.5-1.08-2.75-.55-2.59-.53,5.8.82,6,.92c4,.72,8.07,1.41,12.27,2.24,5.65,1.22,11.49,2.32,17.16,3.68s11.28,2.57,16.51,3.85c10.47,2.5,19.55,4.88,25.35,6.56,10.77,2.07,21.52,4.07,32.27,5.93,5.37.89,10.74,1.82,16.12,2.61l4,.61,2,.29c.42,0,.84.06,1.25.12a1.87,1.87,0,0,0,.45,0h.37c.24,0,.48,0,.72-.06A4.46,4.46,0,0,0,744,549a2.41,2.41,0,0,0,1.41-2.33,5.25,5.25,0,0,0-1-2.68l-.25-.33a2.66,2.66,0,0,0-.34-.43l-1.09-1.2-1.2-1.18c-.41-.39-.87-.76-1.3-1.13a42.57,42.57,0,0,0-5.88-4.08,58.17,58.17,0,0,0-6.59-3.35,12.93,12.93,0,0,0-1.86-.69l-2-.64-6.54-2.1c-.29-.08-.55-.19-.88-.26l-1.11-.18-2.21-.35-4.42-.69c-1.42-.2-3.12-.56-4.71-.85l-4.85-.93-2.42-.46-2.13-.62-4.26-1.23-2.13-.62-1.06-.31c-.36-.1-.61-.21-.91-.31l-3.53-1.24-2.76-1-1.21-.45a7.75,7.75,0,0,1-.7-.39c-.8-.47-1.29-.82-1.3-1s.61.07,1.44.38c.42.16.9.36,1.45.6a11.19,11.19,0,0,0,1.12.41l1.38.47,5,1.71,1.26.43,1.5.42,3,.86,3,.85A26.77,26.77,0,0,0,699,525l6.74,1.29c2.32.47,4.3.76,6.36,1.09l3.08.5,1.53.25a3.14,3.14,0,0,1,.67.16l.61.2,8,2.59c.47.16.95.31,1.41.48l1.23.55c.82.39,1.67.73,2.45,1.15s1.61.82,2.38,1.26l2.3,1.35a36.44,36.44,0,0,1,7.91,6.42l.78.87.4.55a8.64,8.64,0,0,1,.65,1.06,5,5,0,0,1,.62,2.36,2.78,2.78,0,0,1-1.07,2.13,4.63,4.63,0,0,1-2.3.87,8.65,8.65,0,0,1-1.25.08c-.12,0-.17,0-.34,0l-.49,0c-.32,0-.64-.06-1-.08l-5.87-.84c-3.9-.56-7.82-1.17-11.73-1.81,3.26.56,6.53,1.15,9.8,1.64l4.91.78,2.46.37c.47.08.67.08,1,.11l.83.1.34,0h.84a10.67,10.67,0,0,0,1.12-.13,4.59,4.59,0,0,0,2.07-.84,3,3,0,0,0,1.12-1.91,4.6,4.6,0,0,0-.27-2.23,8.9,8.9,0,0,0-1.09-2.06c-.13-.18-.22-.33-.39-.54l-.68-.78a21,21,0,0,0-1.45-1.55,43.25,43.25,0,0,0-7-5.5,60.26,60.26,0,0,0-8.28-4.38c-1.72-.61-2.79-1-5.83-2l-2-.66-1-.34a5.71,5.71,0,0,0-1.06-.29l-4.87-.9-2.5-.45c-.84-.15-1.79-.36-2.69-.54L702,524.17l-1.36-.28c-.45-.1-.82-.23-1.24-.35l-2.43-.71-4.88-1.43c-1.48-.47-2.74-.93-4.11-1.4l-4-1.4-5.28-2.52c-2.11-.94-4.16-1.89-6.06-2.89a11.82,11.82,0,0,1-2.35-1.5c-.69-.51-1.78-1-2.53-1.56l-1-.78c-.17-.14-.3-.26-.5-.4l-.63-.41-1.24-.82-.89-.83-.44-.41-.58-.44-1.16-.88c-.54-.59-1.11-1.16-1.63-1.78-.27-.31-.49-.6-.82-.93l-1-1-.25-.25-.18-.25-.36-.51c-.24-.33-.47-.67-.69-1s-.4-.69-.71-1.09l-.9-1.19-.55-1.21c-.18-.41-.33-.86-.49-1.29s-.28-.92-.42-1.38-.35-1-.53-1.54a2.42,2.42,0,0,1-.13-.79l-.07-.81V488.4l-.06-.93,0-.47a1.8,1.8,0,0,1,.09-.45,14.16,14.16,0,0,1,.5-1.77c.21-.59.41-1.18.56-1.78.08-.3.16-.6.25-.9l.49-.78.48-.79.4-.8a4.83,4.83,0,0,1,.95-1.5c.4-.44.82-.89,1.2-1.33l1-1.36a5.67,5.67,0,0,1,1.29-1.19c.47-.37.95-.74,1.4-1.12.86-.74,1.67-1.54,2.57-2.25l1.37-1.06a9.44,9.44,0,0,1,1.41-1l3-1.84,3-1.61c1-.53,2-.94,3-1.42l2.91-1.32.72-.33a5,5,0,0,1,.89-.12l1.82-.2.91-.1a3.91,3.91,0,0,0,.73-.25l1.4-.56.7-.27a7.11,7.11,0,0,1,.93,0h2.86l.8-.21,1.6-.42.4-.1a.89.89,0,0,1,.45-.05l1.07.07,2.14.15a8,8,0,0,0,2-.12l2-.25a8.4,8.4,0,0,1,1.07-.09l1.14-.06,2.27-.13c1.38,0,2.85,0,4.26,0a19.45,19.45,0,0,0,2.15-.1l2.15-.17c1.4-.15,2.92-.1,4.4-.12h2.22c.24,0,.21-.05.29-.09l.18-.13.36-.25,1.33-.95a7.77,7.77,0,0,1,.91-.54l.11-.05.06,0h0c1.35,2.89-3-6.48,3,6.48v0l0,.09a5.4,5.4,0,0,0,.33.74,7.74,7.74,0,0,0,.43.73c.16.24.39.51.41.58a3.12,3.12,0,0,0,.56.7l.09.08h0l0,.05,0,0,0,0-.07-.05-.28-.18-.27-.12-.06,0-.15-.08-.32-.15a6.34,6.34,0,0,0-.64-.24l-.31-.08a1.42,1.42,0,0,1-.38-.1,10,10,0,0,0-2-.44l-.5-.05-.69-.11c-.47-.07-.93-.12-1.39-.15-1-.08-1.7,0-3-.07h-1s-.06-.17-.07-.25a31.21,31.21,0,0,0-1.72-5.33c-1-2.36-2.21-5-3.62-7.68s-3-5.5-4.66-8.35c-3.35-5.74-7.12-11.64-11.19-18.21-1.44-2.34-2.89-4.71-4.43-7.4l-.58-1-.49-.9-1-1.78-2-3.64c-2.59-4.91-5.14-10.07-7.41-15.6a105.73,105.73,0,0,1-5.69-17.83,74.34,74.34,0,0,1-1.71-20.39c.16-1.79.33-3.57.56-5.34s.63-3.55,1-5.31a62.32,62.32,0,0,1,3.33-10.19,69.88,69.88,0,0,1,10.57-17.1,82.78,82.78,0,0,1,13.62-12.93,111.08,111.08,0,0,1,14.87-9.43c5.33-2.9,10.41-4.77,11.25-4.71s-2.72,2.08-7.94,4.92c-2.55,1.4-5.1,2.89-7.62,4.52s-5,3.36-7.5,5.26a87.71,87.71,0,0,0-7.23,6.18,85.08,85.08,0,0,0-6.67,7.21A68.26,68.26,0,0,0,680,337.39,59.43,59.43,0,0,0,677,347.92c-.3,1.81-.69,3.63-.81,5.44l-.25,2.73c-.09.92-.06,1.81-.08,2.72a75.29,75.29,0,0,0,2.67,20.57A114.53,114.53,0,0,0,685,397.24c2.51,5.53,5.23,10.72,7.93,15.66l1,1.86,1.17,2.05,2.26,3.81c1.48,2.45,2.94,4.8,4.38,7.11,2.85,4.62,5.64,9.1,8.2,13.55s4.95,8.85,6.89,13a63.35,63.35,0,0,1,2.38,5.94,20.57,20.57,0,0,1,1.1,4.3c0,.23,0,.28,0,.43s0,0,0,0h.27a17.75,17.75,0,0,1,2.15.26,13,13,0,0,1,1.59.22c.26,0,.52.12.79.2l.39.12a1.8,1.8,0,0,0,.27.07,5.59,5.59,0,0,1,1,.32l.47.23.2.08a2.59,2.59,0,0,1,.43.26c.06,0,0,0,0,0l0,0,0-.05,0,0s0,0,0,0l-.14-.13a3.48,3.48,0,0,1-.44-.54c-.08-.1-.07-.14-.19-.3s-.27-.37-.39-.55a7.11,7.11,0,0,1-.58-1.13l-.11-.28c-3.29-7-.93-2-1.67-3.51h0l-.06,0-.22.1-.46.21c-.31.16-.58.3-.91.5l-1.23.71-.62.36-.15.09a1.68,1.68,0,0,1-.35,0h-.79l-3.15,0c-2.08,0-4.07.3-6.1.3s-4.09-.12-5.86,0l-1.38,0c-.46,0-.93,0-1.32.06l-2.49.2a12.69,12.69,0,0,1-2.59-.11l-1.32-.12-.66-.06a1.89,1.89,0,0,0-.55.06,15,15,0,0,1-4.37.44l-1.21,0a2.73,2.73,0,0,0-1.1.09l-1.86.56a8.75,8.75,0,0,1-2.19.31l-1.17.09-.58.05-.29,0-.25.09c-1.29.5-2.53.93-3.89,1.49l-2,.81c-.67.29-1.34.63-2,.94s-1.35.62-2,1l-2,1.14a29.57,29.57,0,0,0-3.78,2.52c-1.22.91-2.24,1.91-3.56,2.84s-2.13,2.13-3.24,3.26a6.77,6.77,0,0,0-1.47,1.83l-.57,1-.64,1a5.86,5.86,0,0,0-.78,1.94c-.2.68-.48,1.33-.67,2-.5,1.3-.18,2.83-.23,4.06a15.69,15.69,0,0,0,.2,1.84c.21.58.47,1.22.63,1.74a19.13,19.13,0,0,0,1.22,3A16.31,16.31,0,0,0,658,499.3a24.78,24.78,0,0,0,1.77,2.31l1.21,1.11c.38.36.66.68,1,1s.65.66,1,1a7.45,7.45,0,0,0,1.12,1s0-.11.17-.09a4.28,4.28,0,0,1,1.17.4l.9.44c.33.17.7.36,1,.55a27.52,27.52,0,0,1-2.81-2.14c-.4-.36-.8-.73-1.18-1.12s-.75-.75-1.25-1.18a14.07,14.07,0,0,1-2.33-2.55c-.35-.45-.64-.88-1.08-1.39l-.61-.75a6.16,6.16,0,0,1-.46-.76,19,19,0,0,1-1.48-3.35l-.37-1a3.06,3.06,0,0,1-.28-1l-.14-1,0-1.08,0-1.14a3.16,3.16,0,0,1,0-1.15l.27-1.12.39-1.11a22.63,22.63,0,0,1,.8-2.18c.42-.65.87-1.31,1.24-1.95l.38-.67a2.53,2.53,0,0,1,.43-.65l1.07-1.15c.72-.76,1.26-1.57,2-2.26s1.69-1.27,2.44-1.91,1.5-1.31,2.34-1.88l1.22-.89a11.17,11.17,0,0,1,1.27-.84l2.65-1.53c.88-.52,1.8-.89,2.7-1.34.45-.22.9-.45,1.35-.64l1.35-.55c.9-.36,1.81-.74,2.67-1l1.3-.49a3.85,3.85,0,0,1,1.41-.35c1-.1,2.14-.15,3.11-.3l2.56-.74c1,0,2.15,0,3.24,0H692l.35-.06.71-.12,1.42-.25a3.39,3.39,0,0,1,.74-.1l.9.08,1.81.16.9.07a8,8,0,0,0,.86,0l1.71-.13c1.09-.11,2.41-.13,3.67-.16.65,0,1.25-.05,1.94,0l2.08,0,2.09,0,2.11-.14c1.4-.1,2.81-.2,4.3-.2l2.19,0h1s0,0,.06,0l.45-.25,1.77-1a12.08,12.08,0,0,1,1.36-.65l.17-.08.09,0c2.61,5.6.73,1.57,1.31,2.82v0l0,.05,0,.1a7.37,7.37,0,0,0,.38.81c.28.53.79,1.16.85,1.3a2.55,2.55,0,0,0,.3.39c.1.11.32.31.26.26a.3.3,0,0,0,.1.09,2.74,2.74,0,0,0-.61-.34,1.75,1.75,0,0,1-.27-.13l-.36-.16a5.4,5.4,0,0,0-.71-.24l-.36-.08-.57-.17a9.36,9.36,0,0,0-1.14-.26l-.56-.07-.28,0h-.14l-.2,0-.78-.12-.64-.08c0,.09,0-.24,0-.46s-.05-.39-.07-.59,0-.19,0-.31l-.07-.4-.13-.81-.22-.93-.1-.47-.15-.52-.29-1-.72-2.23A126.21,126.21,0,0,0,713.87,444c-2.2-4.51-4.57-9-7-13.58s-4.93-9.1-7.47-14l-1-1.88-1-1.95-1.7-3.62c-1.14-2.44-2.27-4.91-3.37-7.45-1.57-3.14-3.12-6.32-4.53-9.66-.73-1.64-1.37-3.39-2-5.08s-1.28-3.47-1.82-5.3a86,86,0,0,1-2.75-11.2l-.41-2.95-.19-1.48-.11-1.51-.2-3V358.3a56.08,56.08,0,0,1,5.7-23.85,70.83,70.83,0,0,1,13.67-18.83,13.3,13.3,0,0,1,2.2-1.9c.4-.21,0,.3-.86,1.16a76.08,76.08,0,0,0-9.88,12.33,61.06,61.06,0,0,0-7,15.08,56.44,56.44,0,0,0-2.31,17,68.68,68.68,0,0,0,2.38,16.44,17.84,17.84,0,0,1,0-4.07c.12-1,.36-1.44.7-1.37.75.13,1.73,2.6,3.15,6.21a67.52,67.52,0,0,1-2.26-14.07,20.08,20.08,0,0,1,.12-3.79c.11-.95.26-1.51.42-1.47s.33.64.43,1.59.13,2.22.26,3.6c.52,9.68,3.43,18.77,7,27.18,1.78,4.22,3.75,8.3,5.8,12.28q1.55,3,3.12,5.91l.79,1.46.84,1.51,1.69,2.95c5.66,9.09,11.41,17.68,16.39,26.61a120.39,120.39,0,0,1,6.6,13.47,52.83,52.83,0,0,1,2.18,6.71,18.28,18.28,0,0,1,.58,6c.15-.49.38-.91.51-1.39s.28-.92.44-1.34a8.34,8.34,0,0,1,.8-2.11h0a46.14,46.14,0,0,0-2.54-8.68,149.9,149.9,0,0,0-10.37-19.15c-3.89-6.28-8-12.46-12.14-18.84-2.06-3.17-4.1-6.61-6-9.88s-3.73-6.7-5.5-10.17-3.37-7.06-4.85-10.74a93.34,93.34,0,0,1-3.66-11.5,64.66,64.66,0,0,1-1.7-12.26,52.65,52.65,0,0,1,1.08-12.56,50.6,50.6,0,0,1,4.17-11.88,60.7,60.7,0,0,1,6.55-10.46,85.16,85.16,0,0,1,17.39-16.62A204.53,204.53,0,0,1,736,296.31a8.45,8.45,0,0,1,2-1,6.73,6.73,0,0,1-1.65,1.12c-8,4.66-16.12,9.53-23.58,15.56a74,74,0,0,0-19,22l0-.06c.46-.67.66-.72.33.09a28.88,28.88,0,0,1-1.42,2.76c-.49.79-.59.65-.34-.06a50.64,50.64,0,0,0-4.58,27.38A82.49,82.49,0,0,0,695.55,390c1.84,4,3.86,7.86,6,11.63,1,1.88,2.11,3.75,3.19,5.59.52.92,1.08,1.86,1.65,2.81l1.72,2.76c4.6,7.24,9.31,14.15,13.67,21.24-3.87-6.69-8.05-13.24-12.16-19.95-1-1.69-2.05-3.38-3.05-5.13s-1.92-3.45-2.87-5.2c-1.89-3.46-3.71-7-5.43-10.59A117.17,117.17,0,0,1,693.56,382c-.71-1.89-1.29-3.84-1.89-5.78s-1-3.93-1.41-6a52.38,52.38,0,0,1,.65-24.57,50.14,50.14,0,0,1,3.49-10.29,10.37,10.37,0,0,1,1.46-2.27c.24-.18,0,.5-.47,1.41s-.86,1.81-1.25,2.73c2.74-5.6,6.14-9,6.57-8.56.4.69-2.22,5.11-4.67,10.73a44.39,44.39,0,0,0-3.27,11.82,46.8,46.8,0,0,0-.13,12.23,68.8,68.8,0,0,0,2.54,12,102.13,102.13,0,0,0,4.36,11.45c.76,1.6,1.56,3.17,2.38,4.74s1.85,3,2.78,4.56a136.55,136.55,0,0,1-7.51-17.39,67.24,67.24,0,0,1-3.67-18.29,45.94,45.94,0,0,1,2.92-18.09,57.72,57.72,0,0,1,9.36-15.85c1.32-1.66,2.67-2.89,2.86-2.77s-.79,1.52-2.08,3.17c-6.47,8.58-10.82,18.72-10.71,29.08a51.67,51.67,0,0,0,2.35,15.42,95.75,95.75,0,0,0,6,14.9c2.41,4.87,5.14,9.65,8,14.45,1.45,2.45,2.81,4.7,4.33,7l4.61,7c3.12,4.73,6.24,9.53,9.24,14.48a163,163,0,0,1,8.42,15.53,70.36,70.36,0,0,1,5.24,11.29,37.89,37.89,0,0,1,1.72,6.85,24.39,24.39,0,0,1-.27,8.61,18.77,18.77,0,0,1-5.33,9.28,19.69,19.69,0,0,1-2.08,1.75c-.71.47-1.43.94-2.18,1.38a8.44,8.44,0,0,1-.92.48l-.82.4-1.67.8c-.56.25-1.14.54-1.68.74l-1.62.55-1.63.55-.4.14-.2.06-.12,0-.48.13c-.64.17-1.27.4-1.9.52l-1.87.33,2,0c.67,0,1.33-.16,2-.24.35,0,1.45-.32,2.34-.53s1.8-.42,2.74-.73l2.86-1.1,1.42-.57.18-.08.25-.12.49-.26,1-.54a16.91,16.91,0,0,0,1.89-1.19c.63-.49,1.25-1,1.86-1.51a13.39,13.39,0,0,0,1.69-1.75,21.49,21.49,0,0,0,1.51-1.94,20.89,20.89,0,0,0,2.14-4.21c.26-.7.52-1.43.71-2.12s.29-1.35.42-2l.18-1c0-.32,0-.62.08-.94l.11-1.85c0-1.21-.06-2.28-.12-3.42s-.27-2.06-.42-3.08l-.61-2.84a63,63,0,0,0-3.48-9.82c-1.31-3-2.75-5.8-4.25-8.49s-3-5.28-4.62-7.8c-3.18-5-6.47-9.79-9.77-14.45s-6.66-9.22-9.55-13.61c-3-4.69-6-9.37-8.64-14.15a98.85,98.85,0,0,1-6.85-14.79A53.63,53.63,0,0,1,697,357.86a4.84,4.84,0,0,1,0-1.4,1.52,1.52,0,0,1,.21-.7c.15-.1.23.62.24,1.7a52.14,52.14,0,0,0,3,15.14A90.83,90.83,0,0,0,707,386.85c2.57,4.64,5.44,9.19,8.44,13.84l1.12,1.72,1.1,1.64,2.33,3.36,4.92,7a281.66,281.66,0,0,1,15.81,24.49A93.72,93.72,0,0,1,747.25,453c.24.62.43,1.34.65,2s.43,1.35.6,2.1l.53,2.21.4,2.4a27.8,27.8,0,0,1-.7,11.66,28.18,28.18,0,0,0,1-11.85,46.06,46.06,0,0,0-2-8.88,88.34,88.34,0,0,0-6.15-14.16,246.78,246.78,0,0,0-14.79-23.64c-2.53-3.69-5.11-7.33-7.46-10.83l-1.69-2.58-1.75-2.77c-1.15-1.85-2.28-3.69-3.37-5.53-4.37-7.35-8.3-14.77-10.68-22.43a11.33,11.33,0,0,1-.54-2,14,14,0,0,1-.23-1.63,1.56,1.56,0,0,1-.38-.72,38.76,38.76,0,0,1-1.88-12.34,7.32,7.32,0,0,1,.39-2.26C699.37,351.4,699.45,351.92,699.44,352.83ZM576.9,529.55l-.15-.16.52.29.72,1.09Zm-9,3.69h0l-.43-.64ZM744,550.56a9,9,0,0,1-1.71.24h-.86c-.31,0-.79-.09-1.18-.12l-.62,0-.88-.13-1.76-.25-3.51-.54c-4.68-.69-9.35-1.49-14-2.28-9.32-1.63-18.6-3.37-27.87-5.28l13.61,2.42q10.55,2,21.13,3.83c3.53.62,7.06,1.15,10.59,1.73l2.66.41,1.82.21A9.84,9.84,0,0,0,744,550.56ZM570.71,525.05a11.68,11.68,0,0,1,2.12,2.16,5.68,5.68,0,0,1,1.7,0c1.55.19,3.06.41,4.54.71-.19-.39.16-.31.34-.34l.56,0-4.79-1.22A44.66,44.66,0,0,1,570.71,525.05Zm-11.17.94-.14-.16.26-.61Zm-.41,1,.23.1C559.29,527.37,559.21,527.28,559.13,527Zm2.14.87a1.63,1.63,0,0,0-.31-.35Zm2.28,18.17.64-3.14-.71,3Z"/><path d="M517.8,40.34l-.41.31a.75.75,0,0,1,0-.88,6.12,6.12,0,0,0-1.82,5.61,10.44,10.44,0,0,0,2.93,5.24,1.81,1.81,0,0,0,1.89,2,2.35,2.35,0,0,0,2.45-1.77,2.94,2.94,0,0,1,.48-.66,16.92,16.92,0,0,0,4.42-5.14l-1.13,1.11a4.55,4.55,0,0,0,.73-1.7l-.69.2a3.59,3.59,0,0,0-.62-5.85,5.92,5.92,0,0,0-7.32.68Z"/><path d="M510.35,44c.9-1.25,1.86-2.43,2.85-3.59l.44-.22h-1.9l.12,0c1.5,1.2,1.95,3.05,2.3,4.75l.25.61a1.55,1.55,0,0,0,1,.54A1.67,1.67,0,0,0,517.33,45c.06-.3.14-.59.23-.89,1.29-2.14,1.67-5.45-1.44-6.88a6.75,6.75,0,0,0-2.56-.14A2.24,2.24,0,0,0,511,38.77,2,2,0,0,0,512.91,41l-.31.56-.41-.46c1.06.36,1.22,1.38,1.73,2.14l.21,1.13,3-.57-.33-.59a2.46,2.46,0,0,1-.33.12,16.45,16.45,0,0,1-1.8-3.42l-.94-1.59a1.55,1.55,0,0,0-1.91,0l-.68.66.39-.29c-.78,1.56-1.31,3.24-2.13,4.82a.48.48,0,0,0,.22.7A.62.62,0,0,0,510.35,44Z"/><path d="M510.4,38.28c.25-.25.51-.48.48-.86l-.22-.17c-.15.13-.35.3-.54.48C509.73,38.07,510,38.28,510.4,38.28Z"/><path d="M510.66,37.25l.23-.2-.29.12s0,0,0,0Z"/><path d="M551.5,160.06c1,1.55,2.15,3,3.22,4.49s2.16,3,3.33,4.45c2.35,2.87,4.62,5.83,7.15,8.58,1.25,1.39,2.47,2.81,3.74,4.18l3.91,4.05c.66.67,1.3,1.36,2,2l2,2,4.09,3.89c.38.34.76.54.86.46s-.14-.41-.5-.71a211.71,211.71,0,0,1-15.68-16c-2.52-2.74-4.78-5.69-7.11-8.55-1.18-1.43-2.21-3-3.32-4.43l-1.63-2.23c-.55-.73-1.08-1.48-1.58-2.26-.28-.4-.59-.67-.73-.64S551.25,159.67,551.5,160.06Z"/><path d="M633.67,239.77c-.37-.09-.4,0-.08.25a3.91,3.91,0,0,0,1.19.54c.31.08.35,0,.07-.24A4.31,4.31,0,0,0,633.67,239.77Z"/><path d="M627.25,245.59c-1.08-.39-2.13-.76-3.15-1.1s-2-.71-2.92-1a4.6,4.6,0,0,1-1-.46c0,.2-.41.15-1.19-.14-3.86-1.37-7.67-3-11.57-4.72-2-.83-3.84-1.8-5.78-2.71s-3.9-1.84-5.79-2.88l-5.76-3.07c-1.93-1-3.79-2.17-5.7-3.26-3.83-2.15-7.5-4.57-11.24-6.88a1.78,1.78,0,0,1-.88-.07,18.14,18.14,0,0,1-5.38-3.19l-1.46-1.25c-1.53-1.19-3-2.51-4.43-3.76s-2.93-2.52-4.37-3.81l-4.23-4c-1.41-1.32-2.82-2.64-4.15-4a42.88,42.88,0,0,1-4.24-3.4c-1.35-1-2.64-2.11-3.93-3.21l-3.89-3.31c-1.32-1.09-2.55-2.28-3.81-3.46l-3.78-3.58c.18.42.22.73.06.86-.45.19-1.84-.75-3-2.23-.63-.73-1.24-1.46-1.87-2.18l2.51,3.27c.85,1.07,1.73,2.11,2.6,3.17a9.62,9.62,0,0,1,.67.86l3,3.34c1,1.11,2.15,2.17,3.24,3.25a204.6,204.6,0,0,0,30.26,24.54,253.44,253.44,0,0,0,32.33,18.22,4.05,4.05,0,0,1,1.18.7c.16.19.06.28-.36.11C585,230.41,572,225.39,556.94,215.46a232.59,232.59,0,0,1-25.77-19.61A226.6,226.6,0,0,1,507.62,172,337.64,337.64,0,0,1,488,143c-1.45-2.53-3-5-4.41-7.62s-2.79-5.23-4.19-7.87-2.62-5.42-3.94-8.19c-.33-.69-.67-1.38-1-2.08l-.91-2.14q-.9-2.14-1.81-4.31l-1.22-2.94c-.39-1-.74-2-1.11-3-.71-2-1.43-4-2.14-6l-.53-1.5-.46-1.51-.92-3c-.61-2-1.22-4-1.8-6.06l-.38-1.54-.19-.77-.08-.29-.31-1.06L462,81c-.38-1.42-.76-2.84-1.15-4.25a165.94,165.94,0,0,1-3-17.45,8.61,8.61,0,0,1,.7-6.07,6,6,0,0,1,4.23-3.18,6.43,6.43,0,0,1,5.84,2.3v-1l.36-1.65a6,6,0,0,1,2.43-3.7l1.5-1.12c2.84-1.48,5.43-3.8,8.53-4.85l1.16.31.34-.27a5.53,5.53,0,0,1,3.22-1.58l1.4.15A14.14,14.14,0,0,1,492,40.12a5,5,0,0,1,1.73.31,7.09,7.09,0,0,1,4.65-.22,1,1,0,0,1,1.38.18,1,1,0,0,1,.19.49h0c.38-.18.49-.23.91-.46a5.18,5.18,0,0,1,.25-.52c.3-.88.3-.88.59-1.64a4.59,4.59,0,0,1,1.25-1c2.58-.57,2.58-.56,3.67-.38l.3.15c.4-.54.44-.58.56-.72a2.3,2.3,0,0,1,.44-.24c.59,0,.59,0,.81-.07a3.82,3.82,0,0,1,.45,0c.63.36.63.36.81.38a2.33,2.33,0,0,1,.31.2l.27.58-1.59.7.52.2-.71.14.64-.07-.42.38.6-.42a3.41,3.41,0,0,0-.31,1.3,1.42,1.42,0,0,0,0,.76l.35,0c-.33,1-.33,1-.67,2a3.61,3.61,0,0,1-.44.22.39.39,0,0,1,.19.48l-.15.51.08.12h0l.26.44.07.09h0c.17.3.46.74,1.22,1.89a4.8,4.8,0,0,1-.32.85l.29-.25c.21-.16.76,0,.81-.09a44.62,44.62,0,0,0,2.75-6.59.85.85,0,0,1,1.68-.11,13.44,13.44,0,0,1,1.6,7.26,15.25,15.25,0,0,1-.67,3.74,18.4,18.4,0,0,1-.66,1.84c-.22.61-.47,1.22-.75,1.81-.26,1.24-.48,2.49-.69,3.75l.27-.2-.4,1a.36.36,0,0,0,0,.11l1-.81c.09-.17.19-.35.27-.52a17.65,17.65,0,0,1,1.19-4.2c.51-1.36,1.29-2.7,1.82-4a36,36,0,0,1,2.4-4,.77.77,0,0,1,.86-.54.63.63,0,0,1,.6.71,18.82,18.82,0,0,1-.49,6.89A14.77,14.77,0,0,1,518.67,59a4.16,4.16,0,0,1-.83,2.41v0l.78-.6c-.16.65-.81,1.05-1.06,1.66l1.1-.33c-.49,3.18-.06,6.52-1.2,9.67,0,.12,0,.23-.06.35a15.88,15.88,0,0,1,1.25,1.74l.26.46c0,.05,0,.07.06.13l.08.36c.05.24.1.49.16.73.17,1,.46,2,.64,3l-.18-2.16-.06-2.11,1.18,4.45a45.32,45.32,0,0,1,.92,4.72c.83,4.42,1.36,9.23,1.82,13.59.09,1.1.16,2.18.2,3.22s.14,2,.16,3a26.52,26.52,0,0,1-.28,5,201.08,201.08,0,0,0,11,24.89,181.78,181.78,0,0,0,14.65,23.06,2.94,2.94,0,0,1,.8,1.85c-.14.24-.71-.11-1.29-.86-2.15-2.48-4-5.19-6-7.84-1-1.31-1.9-2.71-2.82-4.09l-2.75-4.16c-.88-1.41-1.71-2.86-2.57-4.29s-1.74-2.85-2.5-4.33l-2.34-4.43-1.17-2.22-1.07-2.26A159.36,159.36,0,0,0,543.09,154c.85,1.21,1.67,2.45,2.6,3.61a42.33,42.33,0,0,1,2.47,3.64l1.63,2.25,1.72,2.17,3.42,4.33c1.18,1.4,2.39,2.77,3.58,4.16s2.38,2.79,3.67,4.1,2.53,2.65,3.81,4,2.65,2.58,4,3.88,2.68,2.6,4.13,3.82l4.33,3.71c1.24,1.08,2.52,2.06,3.78,3l3.73,2.91c2.49,1.9,5,3.65,7.5,5.47s5.12,3.41,7.72,5.15,5.36,3.32,8.18,5c7.95,4.64,15.81,8.64,23.71,12.48s16,7.28,24.47,10.79c2.28.84,4.28,2,4.4,2.51s-1.66.28-4-.55c-9-3.24-17.91-6.83-26.59-10.84A278.16,278.16,0,0,1,606,216.06a216.09,216.09,0,0,1-23.72-16.57,182.38,182.38,0,0,1-21.49-20.09c-1.49-1.53-2.81-3.19-4.2-4.78s-2.76-3.16-4-4.83a.65.65,0,0,1-.14.26c-.27.24-.77.14-1.4-.2.74.94,1.44,1.91,2.21,2.82l2.3,2.77c1.54,1.85,3,3.75,4.68,5.53,9.75,9.29,20.18,17.8,31.49,26.76,7.81,6.1,15,11.6,22.7,16.82a300.17,300.17,0,0,0,31.93,15,2.75,2.75,0,0,1,1,.53c.13.15-.14.14-.6,0-1.93-.67-3.85-1.4-5.8-2.11l-2.92-1.08c-1-.37-1.92-.78-2.89-1.18l-5.81-2.41-5.77-2.63c1,.9,1.57,1.64,1.28,2s-1.41.27-3-.19l5.16,2.67c1,.57,1.83,1.13,1.71,1.32s-1.08,0-2.09-.56c-3.52-1.82-7.07-3.56-10.5-5.54-1.73-1-3.47-1.9-5.17-2.9L606,224.39A247,247,0,0,1,582.06,209a6.35,6.35,0,0,1,1.45,2.67h0l3.58,2.6A364.81,364.81,0,0,0,661,250c.51.18.91.41.89.5s-.44,0-.9-.14c-3.94-1.45-7.91-2.81-11.79-4.38-1.94-.78-3.91-1.47-5.83-2.3l-5.77-2.42,0,0c.28.19.29.32-.08.24a4.52,4.52,0,0,1-1.2-.51c-.33-.21-.25-.3.06-.24a377.64,377.64,0,0,1-41.15-21,327.1,327.1,0,0,0,37.22,20.56c1.46.51,2.89,1.09,4.39,1.56a3,3,0,0,1,1,.58c.08.12-.25.09-.67-.05L636,242c2.45,1.08,4.2,2.28,4,2.74s-2.65-.07-5.23-1.17c-6.91-3-13.74-6.09-20.35-9.64l-2.2-1.06-2.29-.91a284.86,284.86,0,0,0,31.26,15.64c.93.38,1.66.84,1.61,1s-.85,0-1.78-.36a263.28,263.28,0,0,1-28.59-12A252.22,252.22,0,0,1,585,220.76c-3.15-1.53-6.22-3.21-9.39-4.83s-6.21-3.46-9.36-5.26c.68.59,1.41,1.13,2.14,1.69,2.32,1.74,4.57,3.47,6.9,5s4.65,3.05,7,4.51,4.69,2.72,7,4,4.71,2.48,7.05,3.72c9.43,4.77,18.95,9,29.07,13.39a2,2,0,0,1,.93.58c0,.12-.37.05-.89-.17-9.92-4.23-19.08-8.05-28.72-13l-5.89-3.1c-1.93-1.05-3.8-2.15-5.69-3.2l-2.81-1.57c-.94-.53-1.84-1.1-2.76-1.64l-5.48-3.22,5.32,3.56c.89.58,1.77,1.18,2.67,1.73l2.71,1.64c1.82,1.07,3.61,2.16,5.43,3.2l5.51,3,2.75,1.48,2.8,1.39,5.58,2.8,5.67,2.64,2.84,1.34,2.88,1.27a7.5,7.5,0,0,1,1.7.92.79.79,0,0,1,.44.06c2,.65,4.15,1.48,6.36,2.24a3.1,3.1,0,0,1,1.1.59C628,245.76,627.73,245.74,627.25,245.59ZM503.55,54l.2-.15-.32.49-1.33.73Zm-5.05-8.34h0l.78-.38C499,45.45,498.7,45.57,498.5,45.68Zm32.43,88.49c-1.73-3.67-3.57-7.27-4.93-11.06-.7-1.88-1.47-3.73-2-5.65s-1.15-3.83-1.67-5.76c.74,1.79,1.49,3.57,2.23,5.35.93,2.88,2,5.7,3,8.58S529.8,131.3,530.93,134.17ZM508.77,48.4a13.38,13.38,0,0,1-2.54,1.88,4,4,0,0,1,.16,1.5c-.17,1.38-.22,2.74-.44,4.08.47-.2.42.12.49.28l.13.49c.3-1.43.59-2.86,1-4.31A28.69,28.69,0,0,1,508.77,48.4Zm-1.38-9.77.19-.11.72.3Zm-1.22-.48-.12.19C505.78,38.26,505.89,38.2,506.17,38.15ZM505.11,40a1.48,1.48,0,0,0,.42-.25Zm-21.72.56,3.65.94-3.5-1Z"/><path d="M518.87,187.07l-.49-.26a1,1,0,0,1,.93-.38c-4.81-1.88-9.21,1.33-11.39,5a2,2,0,0,0-1.61,2.5,2.42,2.42,0,0,0,2.73,1.69,3.6,3.6,0,0,1,.9.22,20.53,20.53,0,0,0,7.34,2.37l-1.67-.69a6.12,6.12,0,0,0,2.21.1l-.47-.58a4.75,4.75,0,0,0,6.4-2.87,5.58,5.58,0,0,0-3.62-6.62Z"/><path d="M512.3,181.48c1.61.36,3.2.8,4.78,1.28l.4.33-.72-1.78,0,.12c-.69,1.86-2.47,3-4.15,4l-.57.44a1.48,1.48,0,0,0-.24,1.12,1.78,1.78,0,0,0,1.91,1.44l1-.12c2.77.36,6.56-.55,6.84-4a5.94,5.94,0,0,0-.87-2.45,2.44,2.44,0,0,0-2.82-1.78,2.13,2.13,0,0,0-1.63,2.69l-.7-.08.33-.56c0,1.14-1,1.68-1.61,2.46l-1.12.64,1.67,2.56.51-.54a3.09,3.09,0,0,1-.24-.26,18.52,18.52,0,0,1,3-3l1.31-1.49a1.46,1.46,0,0,0-.71-1.8l-1-.39.46.26c-1.94-.16-3.87,0-5.8-.15a.55.55,0,0,0-.64.48A.61.61,0,0,0,512.3,181.48Z"/><path d="M518.21,179.34a1.34,1.34,0,0,0,1.07.13l.09-.28-.71-.33C518.16,178.63,518.05,179,518.21,179.34Z"/><path d="M519.37,179.19l.3.14-.24-.22,0,0Z"/><path d="M425.5,218.54c-8.68,3.41-17.24,7.22-25.67,11.31-.29.13-.48.33-.43.44s.31.07.57-.06c8.45-4,17-7.82,25.64-11.22.29-.12.48-.32.46-.44S425.77,218.43,425.5,218.54Z"/><path d="M358.19,242.82c.15-.18.09-.26-.15-.19a1.54,1.54,0,0,0-.65.44c-.12.16,0,.25.16.19A1.59,1.59,0,0,0,358.19,242.82Z"/><path d="M355.62,235.43a31.79,31.79,0,0,0,2.74-2.66,1.58,1.58,0,0,1,.52-.36c-.15-.09,0-.36.34-.69,7-6.67,15.21-13.06,23.29-19.4a1.1,1.1,0,0,1,.13-.61,6.84,6.84,0,0,1,2.68-2.51l1-.52c3.88-2.23,7.76-4.46,11.7-6.55a15.63,15.63,0,0,1,2.44-2c3-2.57,6-5.16,9.16-7.63-.29,0-.5-.07-.59-.24-.15-.44.48-1.22,1.4-1.77l1.38-.87-4.15,2.13a3.42,3.42,0,0,1-.57.25c-1.46.88-2.92,1.8-4.38,2.78-6.4,4.24-12.36,8.75-18.06,13.35s-11.18,9.31-16.53,14.07a1.46,1.46,0,0,1-.67.42c-.16,0-.21-.11,0-.3,6.3-6.67,11.31-13.34,19.05-20.3,9.23-8.24,18.59-16.23,28.73-24,11.18-7,21.19-14.29,32.64-21.81,4.25-2.78,8.48-5.43,12.73-8,6.63-4.21,13.35-7.85,20.33-11.4,3.44-2.26,7.68-1.45,9.4,1.77a6.86,6.86,0,0,1-.07,6.28l.9-.35,1.55-.21a5.57,5.57,0,0,1,4.06,1.07l1.51,1c2.3,2.23,5.25,3.74,7.35,6.28l.15,1.2.37.23a5.66,5.66,0,0,1,2.64,2.43l.39,1.38a14.2,14.2,0,0,1,.26,4.81,5,5,0,0,1,.35,1.74,7,7,0,0,1,1.93,4.29,1,1,0,0,1,.34,1.36,1,1,0,0,1-.4.37h0a9.74,9.74,0,0,0,.79.69,5.22,5.22,0,0,1,.61,0l1.84-.06a4.9,4.9,0,0,1,1.48.81c1.58,2.21,1.58,2.21,1.82,3.3,0,.11,0,.23,0,.34.71.17.76.19,1,.25a2.56,2.56,0,0,1,.42.33c.22.56.22.56.39.73a2.51,2.51,0,0,1,.17.42c-.11.73-.11.73-.06.91a1.78,1.78,0,0,1-.08.37l-.5.47-1.34-1.23v.56l-.42-.62.32.59-.55-.25.67.4a3.78,3.78,0,0,0-1.46.2,1.51,1.51,0,0,0-.78.32,2.72,2.72,0,0,1,.15.31c-1.14.08-1.14.08-2.27.13-.14-.11-.26-.22-.38-.33a.46.46,0,0,1-.42.37l-.58.05a.62.62,0,0,1-.09.12l0,.05-.36.42-.07.09h0l-1.54,1.81a6.65,6.65,0,0,1-1,0l.36.19c.24.14.27.71.38.73a41.14,41.14,0,0,0,7.92.13.91.91,0,0,1,1.15.44.79.79,0,0,1-.39,1.1c-3.91,4.23-10,5.42-15.88,4.76-1.42.13-2.83.32-4.25.51l.29.2-1.18-.07-.12,0,1.13.67.65.1c3.23-.57,6.57,0,9.9.14a44.74,44.74,0,0,1,5.26.88.82.82,0,0,1,.9.62.67.67,0,0,1-.58.81c-4.82,2-10.79,2.91-16,1a4.74,4.74,0,0,1-2.86-.05h0l.86.58c-.76,0-1.37-.48-2.1-.55l.64.95c-3.65.4-7.19,1.84-10.9,1.45l-.4,0a19.63,19.63,0,0,1-1.67,1.62,5.19,5.19,0,0,1-.46.36l-.13.09-.21.11-.44.23c-.59.29-1.21.56-1.87.81l2.81-.58a26.36,26.36,0,0,1-5.65,2.62c-5.66,1.8-12.54,2.63-16.55,1.47-10.69,4.41-21.3,9.09-31.63,14.27a1.42,1.42,0,0,1-1.32.15c-.18-.19.07-.57.6-.84,7.17-4.2,14.69-8,22.32-11.59-6.74,2.24-13.46,4.69-20.12,7.61l-2.48,1.26a19.14,19.14,0,0,1-2.57,1,259,259,0,0,0-24.53,12.55c-6.95,4.14-12.94,7.92-19.66,12.36-9.43,6.24-17.9,12.08-27.48,17.91-1.24.82-2.6,1.29-3,1s.29-1.14,1.53-2c9.54-6.75,19-13.39,28.9-19.73a299.78,299.78,0,0,1,31.07-17.76c2.39-1.14,4.72-2.27,7.06-3.35a1.08,1.08,0,0,1-.18-.2,1.14,1.14,0,0,1,.15-1.1c-2.68,1.2-5.38,2.43-8.12,3.6-7,4.37-14,8.76-21.87,12.75-5.41,2.74-10.5,4.94-15.61,7.38-5.93,3.92-11.75,8-17.67,12a1.11,1.11,0,0,1-.63.29c-.14,0-.06-.17.17-.35,3.84-3.12,7.87-6.2,12-9.23-.85.17-1.48.11-1.66-.28s.12-1.07.77-1.82l-3,1.85c-.62.38-1.19.54-1.29.35s.27-.65.84-1q6-3.84,12.09-7.53c4.7-3.21,9.44-6.33,14.26-9.39a3.55,3.55,0,0,1-2.06-.2h0l-2.26,1.39c-13.09,9.52-26.63,18.89-40.41,28.23-.26.19-.53.28-.58.21s.1-.27.35-.43l12.4-8.5h0c-.2.06-.3,0-.15-.19a1.92,1.92,0,0,1,.64-.44c.23-.07.28,0,.16.19Q368.35,236,379.51,228l-21.44,13.7-2.1,1.85a1.14,1.14,0,0,1-.64.29c-.11,0,0-.21.19-.38l.6-.51c-1.35.87-2.61,1.24-2.87.81s.7-1.57,2.08-2.51q5.44-3.93,11-7.65l1.16-.87,1.07-1c-5.92,3.63-11.79,7.31-17.56,11.1-.48.34-1,.52-1.09.38s.19-.54.68-.88c9.49-7.65,19.39-15.05,29.62-22.1l9-9.06-1.36.83a141.66,141.66,0,0,0-15.36,11.7c-4.78,4-9.43,8.09-14.65,12-.25.21-.52.3-.6.24s0-.26.31-.45c5-3.91,9.38-7.91,14.32-12,4.08-3.37,8-6.52,11.74-9.82-8.25,5.72-15.59,12-23.41,18.09a2.82,2.82,0,0,1-1,.58c0,.05,0,.14-.13.25-.86.92-1.85,1.86-2.88,2.78a1.19,1.19,0,0,1-.66.35C355.34,235.81,355.42,235.64,355.62,235.43ZM499.69,178.5l.21.14-.6-.16-1.15-1Zm6.7-7.6h0l.66.6Zm-63.54,36A92.06,92.06,0,0,1,457.28,202L454,203.53Zm64.28-25.34a13.41,13.41,0,0,1-2.78-1.75,4.54,4.54,0,0,1-1.48.68c-1.46.37-2.91.64-4.36.87.35.38,0,.44-.14.55l-.47.28c1.56-.18,3.15-.3,4.78-.39A31.53,31.53,0,0,1,507.13,181.52Zm9.55-4.88.19.14,0,.79S516.77,177.18,516.68,176.64Zm0-1.33-.25,0C516.44,175,516.54,175.07,516.7,175.31Zm-2.24-.31a1.58,1.58,0,0,0,.41.3Zm-8.6-20.21.47,3.78L506,154.9Z"/><path d="M641.1,61.66c-.14.1-.28.2-.41.31a.75.75,0,0,1-.05-.88,6.11,6.11,0,0,0-1.82,5.61,10.59,10.59,0,0,0,2.93,5.24,1.81,1.81,0,0,0,1.89,2,2.36,2.36,0,0,0,2.45-1.77,3,3,0,0,1,.48-.67A17.18,17.18,0,0,0,651,66.37c-.38.36-.77.74-1.14,1.11a4.86,4.86,0,0,0,.74-1.71l-.7.2a3.59,3.59,0,0,0-.62-5.85,6,6,0,0,0-7.32.68Z"/><path d="M633.65,65.28c.9-1.25,1.86-2.43,2.85-3.59l.44-.21H635l.12,0c1.51,1.2,2,3,2.3,4.75l.25.61a1.56,1.56,0,0,0,1,.55,1.68,1.68,0,0,0,1.93-1.14,8.93,8.93,0,0,1,.23-.89c1.29-2.15,1.67-5.45-1.44-6.88a6.55,6.55,0,0,0-2.56-.15,2.25,2.25,0,0,0-2.59,1.73,2,2,0,0,0,1.94,2.27l-.31.56-.41-.47c1.07.36,1.22,1.38,1.73,2.14l.21,1.13,3-.57-.33-.58a3,3,0,0,1-.33.11,16.21,16.21,0,0,1-1.8-3.42L637,59.66a1.53,1.53,0,0,0-1.91,0l-.68.65.4-.29c-.79,1.56-1.32,3.24-2.14,4.83a.49.49,0,0,0,.22.7A.63.63,0,0,0,633.65,65.28Z"/><path d="M633.7,59.59c.25-.24.51-.48.48-.85l-.22-.18-.54.48C633,59.39,633.29,59.59,633.7,59.59Z"/><path d="M634,58.56l.23-.19-.29.12,0,0Z"/><path d="M674.81,181.37c1,1.55,2.14,3,3.21,4.5s2.16,3,3.34,4.45c2.35,2.86,4.61,5.83,7.14,8.57,1.25,1.39,2.47,2.82,3.74,4.19l3.91,4c.66.67,1.3,1.36,2,2l2,1.94,4.09,3.9c.38.33.76.54.86.46s-.14-.41-.49-.71a211.94,211.94,0,0,1-15.69-16.06c-2.52-2.74-4.78-5.68-7.11-8.55-1.18-1.42-2.21-3-3.32-4.43l-1.63-2.22c-.55-.74-1.08-1.49-1.58-2.26-.28-.41-.59-.67-.73-.65S674.55,181,674.81,181.37Z"/><path d="M757,261.09c-.37-.09-.4,0-.08.24a4.19,4.19,0,0,0,1.19.55c.31.07.35-.05.07-.25A4,4,0,0,0,757,261.09Z"/><path d="M750.55,266.91l-3.15-1.11c-1-.37-2-.7-2.92-1a4.61,4.61,0,0,1-1-.47c0,.21-.41.16-1.19-.13-3.86-1.37-7.67-3-11.57-4.73-2-.82-3.84-1.79-5.78-2.71s-3.9-1.83-5.79-2.88l-5.76-3.06c-1.93-1-3.79-2.18-5.7-3.26-3.83-2.15-7.5-4.58-11.24-6.89a1.64,1.64,0,0,1-.88-.06,18.44,18.44,0,0,1-5.38-3.2l-1.46-1.24c-1.53-1.19-3-2.51-4.43-3.76s-2.93-2.53-4.37-3.82l-4.23-4c-1.41-1.33-2.82-2.64-4.14-4a44.65,44.65,0,0,1-4.25-3.41c-1.35-1-2.64-2.1-3.93-3.2l-3.89-3.31c-1.32-1.09-2.55-2.29-3.81-3.46l-3.78-3.59c.18.42.22.74.06.86-.44.2-1.84-.74-3-2.23l-1.86-2.18,2.5,3.27c.85,1.08,1.73,2.11,2.6,3.17a10.75,10.75,0,0,1,.67.86l3,3.35c1,1.11,2.15,2.16,3.24,3.25a205.76,205.76,0,0,0,30.26,24.54,255.36,255.36,0,0,0,32.33,18.22,4,4,0,0,1,1.18.69c.16.19.06.28-.35.11-14.33-5.8-27.28-10.83-42.34-20.75a232.69,232.69,0,0,1-25.77-19.62,225.64,225.64,0,0,1-23.55-23.81,333.71,333.71,0,0,1-19.65-29.06c-1.46-2.53-3-5-4.42-7.62s-2.79-5.23-4.19-7.87-2.62-5.42-3.94-8.18c-.33-.7-.67-1.39-1-2.09s-.6-1.42-.91-2.13L595,132.08c-.41-1-.82-2-1.22-2.94s-.74-2-1.1-3q-1.08-3-2.15-6L590,118.7l-.46-1.52-.92-3c-.61-2-1.22-4-1.8-6.07l-.38-1.53-.19-.77-.08-.29-.31-1.06-.61-2.13-1.14-4.25a163,163,0,0,1-3-17.45,8.56,8.56,0,0,1,.71-6.07A6,6,0,0,1,586,71.36a6.44,6.44,0,0,1,5.84,2.31v-1l.36-1.65a6.08,6.08,0,0,1,2.43-3.71l1.5-1.12c2.84-1.47,5.43-3.79,8.53-4.84l1.16.3.34-.26a5.55,5.55,0,0,1,3.22-1.59l1.41.16a14.31,14.31,0,0,1,4.51,1.52,4.94,4.94,0,0,1,1.72.3,7,7,0,0,1,4.65-.21,1,1,0,0,1,1.38.18.87.87,0,0,1,.19.48h0a7.79,7.79,0,0,0,.91-.46,5.18,5.18,0,0,1,.25-.52c.3-.88.3-.88.59-1.63a4.52,4.52,0,0,1,1.25-1c2.58-.58,2.59-.56,3.67-.39a2.85,2.85,0,0,1,.3.16c.4-.54.44-.58.56-.73a3.22,3.22,0,0,1,.44-.24c.59,0,.59,0,.81-.06a2.3,2.3,0,0,1,.45,0c.63.35.63.35.81.37a1.73,1.73,0,0,1,.31.2l.27.59-1.58.69.51.2-.71.14.64-.06-.41.37.59-.42a3.41,3.41,0,0,0-.31,1.3,1.4,1.4,0,0,0,0,.77,1.71,1.71,0,0,1,.34,0c-.32,1-.32,1-.67,2a4.39,4.39,0,0,1-.44.21.4.4,0,0,1,.19.49l-.15.51a1,1,0,0,0,.08.11h.05c.1.18.18.3.26.44l.07.09h0c.17.3.46.74,1.22,1.88a4.28,4.28,0,0,1-.32.85l.29-.24c.21-.16.76,0,.81-.1a44.51,44.51,0,0,0,2.75-6.58.81.81,0,0,1,.8-.8.79.79,0,0,1,.88.69,13.42,13.42,0,0,1,1.6,7.25,15.25,15.25,0,0,1-.67,3.74,16.35,16.35,0,0,1-.66,1.85c-.22.61-.47,1.21-.75,1.81-.26,1.23-.48,2.49-.69,3.75l.27-.2-.4,1a.52.52,0,0,0,0,.11l1-.8.28-.53a17.42,17.42,0,0,1,1.18-4.2c.51-1.36,1.29-2.69,1.82-4a35.46,35.46,0,0,1,2.41-4,.75.75,0,0,1,.86-.53.62.62,0,0,1,.59.7,18.59,18.59,0,0,1-.49,6.89A14.71,14.71,0,0,1,642,80.26a4.17,4.17,0,0,1-.82,2.41v0l.78-.6c-.16.65-.81,1-1.06,1.66l1.1-.32c-.49,3.18-.05,6.51-1.2,9.66,0,.12,0,.24-.06.35A16,16,0,0,1,642,95.21c.09.15.18.3.26.46a.81.81,0,0,1,.06.13l.08.36c0,.24.11.48.16.72.17,1,.46,2,.64,3q-.09-1.1-.18-2.16l-.06-2.12c.39,1.48.78,3,1.18,4.45a47.7,47.7,0,0,1,.93,4.73c.83,4.42,1.35,9.22,1.81,13.59.09,1.1.16,2.17.2,3.21s.14,2,.16,3a26.46,26.46,0,0,1-.28,5,201.88,201.88,0,0,0,11,24.9,182.5,182.5,0,0,0,14.65,23.06,3,3,0,0,1,.81,1.85c-.15.24-.72-.11-1.3-.86-2.15-2.49-4-5.2-6-7.85-1-1.31-1.91-2.71-2.83-4.09l-2.75-4.16c-.88-1.41-1.71-2.86-2.57-4.29s-1.74-2.84-2.5-4.33l-2.34-4.43-1.17-2.21-1.07-2.27a159.74,159.74,0,0,0,15.55,30.35c.85,1.21,1.67,2.44,2.6,3.61a40.83,40.83,0,0,1,2.47,3.64l1.63,2.25c.58.72,1.15,1.44,1.72,2.17q1.73,2.16,3.42,4.32c1.18,1.41,2.39,2.78,3.59,4.17s2.37,2.78,3.66,4.09,2.53,2.66,3.81,4,2.65,2.58,4,3.88,2.68,2.6,4.13,3.82l4.34,3.71c1.23,1.08,2.51,2.06,3.77,3l3.73,2.92c2.49,1.9,5,3.65,7.5,5.46s5.12,3.42,7.72,5.16,5.36,3.32,8.18,5c8,4.64,15.81,8.65,23.71,12.49s16,7.27,24.47,10.79c2.28.84,4.28,2,4.4,2.51s-1.65.28-4-.56c-9-3.24-17.91-6.83-26.59-10.84a278,278,0,0,1-25.31-13.51,215.26,215.26,0,0,1-23.73-16.57,182.2,182.2,0,0,1-21.48-20.08c-1.49-1.54-2.82-3.2-4.2-4.78s-2.77-3.16-4-4.83a.55.55,0,0,1-.14.25c-.27.24-.77.15-1.4-.19.74.93,1.44,1.9,2.21,2.82l2.3,2.76c1.54,1.85,3,3.75,4.68,5.54,9.75,9.28,20.18,17.79,31.49,26.76,7.81,6.1,15,11.59,22.7,16.81a301.16,301.16,0,0,0,31.93,15,2.75,2.75,0,0,1,1,.53c.13.15-.14.13-.6,0-1.93-.66-3.85-1.39-5.8-2.1l-2.91-1.08c-1-.38-1.93-.79-2.9-1.18l-5.81-2.41L746.91,252c1.05.9,1.57,1.63,1.28,2s-1.41.27-3-.2l5.16,2.68c1,.57,1.83,1.12,1.71,1.31s-1.08,0-2.09-.55c-3.52-1.82-7.07-3.57-10.5-5.54-1.72-1-3.47-1.9-5.17-2.91l-5.08-3a250.22,250.22,0,0,1-23.89-15.39,6.35,6.35,0,0,1,1.45,2.67h0l3.58,2.6a365.87,365.87,0,0,0,73.9,35.72c.51.18.91.4.89.5s-.44,0-.9-.15c-3.94-1.45-7.91-2.8-11.79-4.38-1.94-.77-3.91-1.47-5.83-2.3l-5.77-2.42,0,0c.28.19.29.32-.07.24a4.55,4.55,0,0,1-1.21-.5c-.33-.22-.25-.31.07-.25a377.73,377.73,0,0,1-41.16-21,328.58,328.58,0,0,0,37.22,20.55c1.46.52,2.89,1.09,4.4,1.57a3,3,0,0,1,1,.57c.08.13-.25.1-.67-.05l-1.23-.42c2.45,1.08,4.2,2.28,4,2.75s-2.64-.07-5.23-1.17c-6.91-3-13.74-6.1-20.35-9.64l-2.2-1.06-2.29-.91a286.79,286.79,0,0,0,31.27,15.64c.92.37,1.65.83,1.6,1s-.85,0-1.78-.35a265.36,265.36,0,0,1-28.59-12.05,250.55,250.55,0,0,1-27.35-15.48c-3.15-1.52-6.22-3.21-9.39-4.82s-6.21-3.46-9.36-5.27c.68.59,1.42,1.13,2.14,1.69,2.32,1.74,4.57,3.48,6.9,5s4.65,3,6.95,4.5,4.69,2.72,7,4,4.71,2.49,7,3.72c9.43,4.78,19,9,29.07,13.4a1.93,1.93,0,0,1,.93.58c0,.11-.37.05-.89-.18-9.92-4.22-19.08-8-28.72-13l-5.89-3.1c-1.92-1.05-3.8-2.15-5.69-3.2l-2.81-1.58c-.94-.53-1.84-1.09-2.76-1.63l-5.48-3.22c1.78,1.19,3.56,2.37,5.32,3.56.89.58,1.77,1.18,2.67,1.73l2.72,1.63c1.81,1.08,3.6,2.16,5.42,3.21l5.51,3,2.75,1.48,2.8,1.4,5.58,2.8,5.67,2.64,2.84,1.34,2.88,1.26a7.11,7.11,0,0,1,1.7.93.76.76,0,0,1,.44.05c2,.66,4.15,1.48,6.36,2.24a3.09,3.09,0,0,1,1.1.6C751.32,267.07,751,267.05,750.55,266.91ZM626.86,75.33l.19-.14-.32.49-1.33.73ZM621.8,67h0l.78-.39Zm32.43,88.5c-1.73-3.68-3.57-7.27-4.93-11.06-.7-1.89-1.47-3.74-2-5.65s-1.14-3.84-1.67-5.76c.74,1.78,1.49,3.56,2.23,5.35.93,2.87,2,5.69,3,8.58S653.1,152.61,654.23,155.49ZM632.08,69.71a13.34,13.34,0,0,1-2.55,1.88,3.81,3.81,0,0,1,.16,1.5c-.16,1.39-.22,2.74-.44,4.08.47-.19.43.13.49.29l.13.49c.3-1.44.59-2.87,1-4.31A27.91,27.91,0,0,1,632.08,69.71Zm-1.39-9.77.19-.11.72.3Zm-1.22-.48-.12.2C629.08,59.57,629.19,59.51,629.47,59.46Zm-1.06,1.81a1.8,1.8,0,0,0,.42-.24Zm-21.72.56,3.65.94-3.5-1Z"/><path d="M642.17,208.39l-.49-.27a1,1,0,0,1,.93-.38c-4.81-1.87-9.21,1.34-11.39,5a2,2,0,0,0-1.61,2.49,2.44,2.44,0,0,0,2.74,1.7,3.22,3.22,0,0,1,.89.21,20.82,20.82,0,0,0,7.34,2.38l-1.67-.69a6.16,6.16,0,0,0,2.22.09l-.48-.57c2.78,1,5.63-.26,6.4-2.88a5.58,5.58,0,0,0-3.62-6.62Z"/><path d="M635.6,202.79c1.62.37,3.2.81,4.79,1.29l.39.33-.71-1.79v.13c-.69,1.86-2.46,3-4.15,4l-.57.45a1.47,1.47,0,0,0-.24,1.12,1.77,1.77,0,0,0,1.91,1.43l1-.11c2.77.36,6.56-.55,6.84-4a6,6,0,0,0-.87-2.46,2.43,2.43,0,0,0-2.82-1.77,2.11,2.11,0,0,0-1.62,2.68l-.71-.07.33-.57c0,1.14-1,1.69-1.61,2.47l-1.12.63,1.67,2.57.51-.54c-.09-.11-.25-.26-.24-.27a18.92,18.92,0,0,1,3-3l1.31-1.48A1.45,1.45,0,0,0,642,202l-1-.4.46.27c-1.94-.16-3.87,0-5.8-.15a.56.56,0,0,0-.64.47A.6.6,0,0,0,635.6,202.79Z"/><path d="M641.51,200.66a1.34,1.34,0,0,0,1.07.12c0-.15.08-.23.09-.27l-.7-.33C641.46,199.94,641.35,200.27,641.51,200.66Z"/><path d="M642.67,200.51l.3.14-.24-.23s0,0,0,0Z"/><path d="M548.8,239.85c-8.68,3.42-17.24,7.23-25.67,11.31-.28.14-.48.33-.43.44s.31.08.57,0c8.45-4.06,17-7.82,25.65-11.23.28-.12.47-.31.45-.44S549.07,239.75,548.8,239.85Z"/><path d="M481.5,264.14c.14-.19.08-.27-.15-.19a1.49,1.49,0,0,0-.65.43c-.13.16-.05.25.15.19A1.68,1.68,0,0,0,481.5,264.14Z"/><path d="M478.93,256.74a31.57,31.57,0,0,0,2.73-2.66,1.74,1.74,0,0,1,.52-.36c-.15-.08,0-.35.34-.69,7-6.67,15.22-13.06,23.29-19.39a1.07,1.07,0,0,1,.13-.61,6.78,6.78,0,0,1,2.68-2.52l1-.51c3.89-2.24,7.76-4.47,11.7-6.56a15.63,15.63,0,0,1,2.44-2c3-2.57,6-5.15,9.16-7.63-.28,0-.5-.07-.58-.24-.16-.44.47-1.22,1.4-1.77l1.37-.87L531,213a4.56,4.56,0,0,1-.56.26c-1.47.88-2.93,1.79-4.39,2.77-6.4,4.25-12.36,8.75-18.06,13.36s-11.17,9.31-16.53,14.06a1.52,1.52,0,0,1-.67.43c-.16,0-.21-.11,0-.3,6.3-6.68,11.31-13.35,19-20.3,9.23-8.25,18.59-16.23,28.73-24,11.18-7,21.19-14.3,32.65-21.82,4.24-2.77,8.47-5.43,12.72-7.94,6.63-4.22,13.35-7.85,20.33-11.41,3.45-2.25,7.68-1.44,9.4,1.77a6.88,6.88,0,0,1-.07,6.29l.9-.35,1.56-.21a5.55,5.55,0,0,1,4.06,1.07l1.5,1c2.3,2.23,5.25,3.73,7.35,6.27l.15,1.2.37.23a5.71,5.71,0,0,1,2.64,2.43l.39,1.38a14.21,14.21,0,0,1,.26,4.81,5,5,0,0,1,.35,1.74A7,7,0,0,1,635,190.1a1,1,0,0,1,.35,1.37,1,1,0,0,1-.41.36h0c.31.29.41.37.79.68.38,0,.61,0,.61,0,1-.05,1-.05,1.84-.06a4.75,4.75,0,0,1,1.48.8c1.58,2.21,1.58,2.22,1.82,3.3a1.86,1.86,0,0,1,0,.34,8.5,8.5,0,0,1,1,.26,2.23,2.23,0,0,1,.42.32c.22.56.22.56.39.74a2.51,2.51,0,0,1,.17.42c-.11.73-.11.73-.06.91a1.78,1.78,0,0,1-.08.36l-.5.47-1.34-1.22v.55l-.43-.61.32.58-.55-.25.67.4a3.78,3.78,0,0,0-1.46.2,1.72,1.72,0,0,0-.78.32,2.39,2.39,0,0,1,.15.32c-1.14.07-1.14.08-2.26.12a3.17,3.17,0,0,1-.39-.32.45.45,0,0,1-.42.36l-.58.06-.09.12,0,0-.36.42-.07.1h0l-1.54,1.81a6.68,6.68,0,0,1-1,0l.36.18c.24.15.27.71.38.74a41.13,41.13,0,0,0,7.92.12.93.93,0,0,1,1.15.45A.78.78,0,0,1,642,206c-3.91,4.23-10,5.42-15.88,4.76-1.42.14-2.83.32-4.25.52l.29.19-1.18-.07-.12,0,1.13.67c.22,0,.43.08.65.1,3.23-.57,6.58,0,9.9.15a44.72,44.72,0,0,1,5.26.87.82.82,0,0,1,.9.63.66.66,0,0,1-.58.8c-4.82,2-10.79,2.92-16,1a4.74,4.74,0,0,1-2.86-.06h0l.87.58c-.77,0-1.37-.49-2.11-.56l.64.95c-3.64.41-7.19,1.84-10.9,1.45a2.85,2.85,0,0,1-.4,0,19.67,19.67,0,0,1-1.67,1.62l-.46.36-.12.08-.22.12-.44.22a18.79,18.79,0,0,1-1.87.81l2.81-.58a26.88,26.88,0,0,1-5.65,2.63c-5.65,1.79-12.54,2.62-16.55,1.46-10.68,4.42-21.3,9.1-31.63,14.28-.53.27-1.11.33-1.32.15s.07-.57.6-.85c7.17-4.19,14.69-8,22.33-11.59-6.75,2.24-13.47,4.69-20.13,7.61l-2.48,1.26a18.25,18.25,0,0,1-2.56,1,259.15,259.15,0,0,0-24.54,12.55c-6.95,4.15-12.94,7.93-19.66,12.36-9.43,6.25-17.9,12.08-27.48,17.91-1.24.83-2.6,1.3-3,1.05s.29-1.14,1.53-2c9.54-6.75,19.05-13.39,28.9-19.73a301.61,301.61,0,0,1,31.07-17.76c2.39-1.13,4.72-2.27,7.06-3.35a.86.86,0,0,1-.18-.2,1.14,1.14,0,0,1,.15-1.1c-2.68,1.21-5.38,2.43-8.12,3.61-7,4.36-14,8.76-21.87,12.75-5.41,2.74-10.5,4.93-15.61,7.37-5.93,3.92-11.75,8-17.67,12a1.18,1.18,0,0,1-.63.29c-.14,0-.06-.17.17-.36,3.84-3.11,7.87-6.2,12-9.22-.85.17-1.48.1-1.66-.29s.12-1.07.77-1.82l-3,1.85c-.61.38-1.18.55-1.29.36s.27-.66.84-1q6-3.84,12.09-7.53c4.7-3.2,9.44-6.32,14.26-9.39a3.56,3.56,0,0,1-2.06-.19h0l-2.25,1.39c-13.1,9.53-26.64,18.89-40.41,28.23-.27.19-.53.29-.59.22s.1-.28.35-.44l12.4-8.49h0c-.2.07-.3,0-.15-.18a1.67,1.67,0,0,1,.64-.44c.23-.08.28,0,.16.18q11.47-7.94,22.63-16l-21.44,13.71-2.1,1.85a1.19,1.19,0,0,1-.64.28c-.11,0,0-.21.19-.37l.6-.51c-1.35.86-2.61,1.23-2.87.81s.7-1.58,2.08-2.52q5.44-3.93,11-7.64l1.16-.88,1.08-1q-8.89,5.44-17.57,11.1c-.48.34-1,.52-1.09.39s.2-.54.68-.89c9.49-7.64,19.4-15,29.62-22.1l9-9.06-1.36.84A142.59,142.59,0,0,0,495.74,245c-4.78,4-9.43,8.1-14.65,12-.25.21-.52.3-.6.25s0-.26.31-.45c5-3.92,9.38-7.91,14.32-12,4.08-3.37,8-6.52,11.74-9.81-8.25,5.71-15.59,12-23.41,18.09a2.77,2.77,0,0,1-1,.57.33.33,0,0,1-.13.25c-.86.92-1.85,1.87-2.88,2.79a1.09,1.09,0,0,1-.65.34C478.64,257.13,478.72,257,478.93,256.74ZM623,199.81l.21.14-.6-.16-1.15-1Zm6.7-7.6h0l.65.61Zm-63.54,36a91.38,91.38,0,0,1,14.43-4.87l-3.33,1.53Zm64.28-25.34a13.45,13.45,0,0,1-2.78-1.76,4.35,4.35,0,0,1-1.48.68c-1.46.37-2.91.65-4.35.87.34.39,0,.44-.15.55l-.47.28c1.57-.17,3.15-.3,4.78-.39A30.17,30.17,0,0,1,630.43,202.84ZM640,198l.19.13,0,.79S640.07,198.49,640,198Zm0-1.33-.25,0C639.74,196.31,639.84,196.38,640,196.63Zm-2.24-.31a1.49,1.49,0,0,0,.41.29Zm-8.6-20.22.48,3.79-.36-3.68Z"/></svg>