<svg id="Layer_1" data-name="Layer 1" xmlns="http://www.w3.org/2000/svg" viewBox="0 0 1080 1439.55"><path d="M503.14,1167.29c.2,0,.42,0,.63,0a1.75,1.75,0,0,1-.94,1,15.67,15.67,0,0,0,7.72-4.37,39.34,39.34,0,0,0,3-3.46,25.55,25.55,0,0,0,2.31-3.78c1.51-.82,2.54-2.27,2.09-3.44s-2.19-1.48-3.87-.66a5.38,5.38,0,0,1-1.23.23,20.7,20.7,0,0,0-5,.28,25.51,25.51,0,0,0-2.64.58c-.85.26-1.71.56-2.57.9l2.32-.36a11,11,0,0,0-2.94,1.37l.73.31a10.16,10.16,0,0,0-5.14,2.86,8,8,0,0,0-2.23,4.78c-.15,3.28,2.78,5,6.24,4.15Z"/><path d="M512.16,1169.24c-1.9.44-3.89.79-5.73,1.28l-.54-.09,1.34,1.35-.06-.11c.1-2.29,1.93-4.43,3.69-6.31l.57-.77a1.65,1.65,0,0,0,.06-1.3c-.36-.87-1.51-1.08-2.59-.47l-1.23.72c-3.54,1.12-7.58,4.76-6.74,8.3.21.81,1.14,1.25,1.8,1.83a2.64,2.64,0,0,0,3.66,0,2.76,2.76,0,0,0,.91-3.62c.26-.11.52-.23.79-.33-.06.25-.13.5-.2.76-.4-1.15.67-2.23,1.2-3.37l1.16-1.25-2.57-1.74-.48.85c.13.06.35.12.35.14-.44.83-.84,1.64-1.28,2.43A23.61,23.61,0,0,1,505,1170l-1,2.28a1.2,1.2,0,0,0,1.38,1.33l1.15-.17h-.58c1.06-.5,2.1-1.05,3.13-1.6a30,30,0,0,1,3.25-1.39.8.8,0,0,0,.6-.8A.54.54,0,0,0,512.16,1169.24Z"/><path d="M506.33,1174.55a1.92,1.92,0,0,0-1.2.51v.32l.87-.1C506.62,1175.22,506.63,1174.84,506.33,1174.55Z"/><path d="M505.13,1175.38l-.36,0,.34.07,0,0Z"/><path d="M634.31,1291c9.44-8.39,16.22-22.23,20.11-37.16a139.27,139.27,0,0,0,3.87-23.29,204.26,204.26,0,0,0,.25-24.57,5.74,5.74,0,0,0-.32-2.15c-.12,0-.18.85-.13,1.91a203.17,203.17,0,0,1-.24,24.51,137.6,137.6,0,0,1-3.83,23.18c-3.83,14.85-10.56,28.61-19.83,37-.63.55-1.07,1.09-1.06,1.27S633.71,1291.53,634.31,1291Z"/><path d="M730.77,1075.24c-.9.09-.86.19.07.26.39,0,.94,0,1.5,0s1.13.08,1.57.07c.75,0,.73-.13,0-.26a10.76,10.76,0,0,0-1.61-.17C731.69,1075.19,731.14,1075.21,730.77,1075.24Z"/><path d="M724.1,1083.82l-3.14.81c-1,.31-2,.73-3,1.07-.47.19-1,.35-1.41.56l-1.34.68c-.87.46-1.73.86-2.53,1.35a17.44,17.44,0,0,1-1.81,1c.31,0-.37.54-1.69,1.41a56.93,56.93,0,0,0-4.65,3.62c-.73.66-1.53,1.25-2.22,2l-2.12,2.12a66.75,66.75,0,0,0-7.53,9.53c-1.19,1.67-2.14,3.51-3.19,5.27-.49.91-.93,1.84-1.4,2.75l-.7,1.38-.61,1.43a69.66,69.66,0,0,0-4,11.65l-.68,3c-.18,1-.34,2.08-.51,3.11-.4,2.06-.56,4.2-.81,6.31-.14,1-.16,2.14-.23,3.21s-.15,2.14-.19,3.22l0,3.25,0,1.63,0,1.65a261.1,261.1,0,0,0,2,26.79,4.79,4.79,0,0,1,.6,1.51,76,76,0,0,1,1.91,13l.24,4.09c.57,8.29,1,16.78.78,25.45a170.81,170.81,0,0,1-2.62,25.88c-.19,1.78-.37,3.7-.73,5.73-.18,1-.36,2.06-.54,3.12s-.47,2.16-.72,3.27a121.74,121.74,0,0,1-6.62,22.42,105.78,105.78,0,0,1-5.2,11l-1.6,2.72-.81,1.37-.88,1.32-1.77,2.66-1.94,2.59c.8-.75,1.36-1.14,1.51-1,.09.29-.43,1.28-1.35,2.66a26.54,26.54,0,0,1-1.75,2.26c-.7.81-1.41,1.71-2.28,2.54l-2.6,2.59c-.89.84-1.83,1.64-2.76,2.46A85.14,85.14,0,0,0,667.47,1305c.56-.81,1.15-1.52,1.61-2.19a103.37,103.37,0,0,0,10-19.54c5.75-14.8,8.3-29.75,9.18-44.35a179.39,179.39,0,0,0-.08-21.64c-.44-7-1.17-13.85-2-20.49-1.62-13.27-3.44-25.83-4-38a121.49,121.49,0,0,1,.39-17.85l.21-2.18.33-2.14c.21-1.43.4-2.89.72-4.22l.44-2.05c.13-.69.36-1.35.54-2l.57-2c.18-.68.45-1.34.68-2a13.45,13.45,0,0,1,1-2.38c.28-.36.33-.25.08.54s-.53,1.7-.79,2.55c-.13.42-.28.84-.39,1.26l-.3,1.27c-.21.85-.41,1.69-.61,2.52s-.29,1.68-.43,2.52c-.33,1.62-.45,3.43-.65,5.14l-.14,1.29-.07,1.32-.13,2.61a139.09,139.09,0,0,0,1.11,21.39c.87,7.33,2.15,14.92,3.49,23.1s2.74,16.94,3.66,26.73c.15,1.44.27,2.91.36,4.4s.23,3,.3,4.45l.19,4.52.07,4.54a181.1,181.1,0,0,1-.85,18.27,145.24,145.24,0,0,1-8.32,37c-1.17,3.09-2.46,6.18-3.92,9.24a101.28,101.28,0,0,1-4.93,9.16A92.35,92.35,0,0,1,661.36,1323a76.56,76.56,0,0,1-19.15,14.15l-2.85,1.41c-1,.47-2,.85-3,1.27s-2,.83-3.07,1.18l-3.23,1-1.62.48c-.56.14-1.13.26-1.69.39-1.13.24-2.26.48-3.4.7s-2.33.33-3.5.48l-3.85.39a61.83,61.83,0,0,1-16.24-1.73,55.4,55.4,0,0,1-14.94-6.15,53,53,0,0,1-12.4-10.16,55.1,55.1,0,0,1-8.74-13.38,47.07,47.07,0,0,1-2.86-7c-.45-1.33-.78-2.58-1.12-3.87s-.61-2.52-.8-3.69a76.08,76.08,0,0,1-1.24-13.44,99.77,99.77,0,0,1,.67-11.87c.24-1.85.45-3.76.77-5.53l.45-2.69c.16-.92.31-1.63.46-2.45.59-3.18,1.32-6.43,2.08-9.65s1.62-6.35,2.36-9.12a85.24,85.24,0,0,0,2.72-13.35c.12-1.09.26-2.17.35-3.34s.19-2.33.28-3.54l.06-.91c0-.29,0-.43,0-.66v-1.23c0-.4,0-.74,0-1.12a6.61,6.61,0,0,0-.09-1c0-.31-.08-.63-.11-1s-.13-.54-.17-.81a4.14,4.14,0,0,0-.2-.72,2.92,2.92,0,0,0-.21-.65,9,9,0,0,0-1.07-2.09,33.13,33.13,0,0,0-2.89-3.77c-.73-.83-1.55-1.74-2.52-2.76l-.74-.76-.18-.2-.09-.09h0l-.13-.06a1.64,1.64,0,0,1-.46-.29c-.64-.18-1-.41-1.4-.28a.2.2,0,0,1-.11,0,1.09,1.09,0,0,0-.17,0,.36.36,0,0,1-.27,0,.74.74,0,0,1-.34.11c-.06,0-.09,0-.16,0l-.22.09a2.55,2.55,0,0,1-.41,0,1.72,1.72,0,0,1-.26.1.11.11,0,0,0-.05,0l-.17.1c-.11.08-.19.06-.32.18a2.81,2.81,0,0,1-.76.43c-1.09.65-2.46,1.3-4.1,2.26-.51.66-1.36.58-2.41,0a10.26,10.26,0,0,1-3.4-3,9.38,9.38,0,0,1-2-5.67c-.16.11-.33.21-.49.3l-1,.16a5.27,5.27,0,0,1-3.26-.91l-1.48-.8c-2.5-1.74-5.43-2.65-8.16-4.39l-.59-1L527,1193a6.2,6.2,0,0,1-3.17-1.4l-.88-1.11a13.41,13.41,0,0,1-2.07-4.31,5,5,0,0,1-1-1.5,6.64,6.64,0,0,1-3.33-3.26.94.94,0,0,1-.81-1.15,1.17,1.17,0,0,1,.27-.53h0a8.24,8.24,0,0,0-1-.3c-.37.17-.6.25-.6.25l-1.79.93a5.32,5.32,0,0,1-1.76,0c-2.4-1.26-2.42-1.25-3.06-2.14a3.58,3.58,0,0,1-.09-.35c-.8.23-.86.25-1.08.3a2.53,2.53,0,0,1-.56-.07c-.44-.4-.44-.4-.68-.47a2.81,2.81,0,0,1-.34-.3c-.14-.75-.14-.75-.26-.89a1.49,1.49,0,0,1,0-.39c.23-.48.33-.67.37-.75l1.84.41-.19-.54.66.35-.54-.38.67-.07h-.84a5.79,5.79,0,0,0,1.47-1,2.37,2.37,0,0,0,.72-.75,2,2,0,0,1-.26-.23,22.63,22.63,0,0,1,2.41-1.33c.19,0,.36.09.52.14a.64.64,0,0,1,.37-.57l.63-.34.06-.16,0,0c.12-.23.2-.4.29-.59l.06-.13h0l1.3-2.59a6,6,0,0,1,1.14-.46l-.46,0c-.3,0-.46-.61-.58-.58a29.36,29.36,0,0,0-4.61,1.74c-.76.36-1.52.73-2.26,1.13l-2.15,1.25a1.09,1.09,0,0,1-1.4.27.9.9,0,0,1,.08-1.33,21.44,21.44,0,0,1,1.32-2.45,18.61,18.61,0,0,1,1.78-2.22,25.49,25.49,0,0,1,4.41-3.84,34.12,34.12,0,0,1,5.34-2.75,20,20,0,0,1,2.87-.91c1-.24,2-.45,2.9-.6s1.84-.65,2.81-.93l2.89-.81L528,1155l1.59-.18.16,0-1.47-.49c-.29,0-.58,0-.87,0-1.11.36-2.27.6-3.36.89s-2.18.56-3.29.81l-3.35.75c-1.11.28-2.16.63-3.25,1-2.3.82-4.69,1.08-6.89,1.87-.5.3-1.05.25-1.25-.12s.09-.92.58-1.22c5.85-5,14.56-9,22-8a8.09,8.09,0,0,1,2.07-.53,7.59,7.59,0,0,1,2.08.06h.06l-1.14-.52c1.13-.14,1.91.35,3,.34l-.7-1c1.38-.21,2.71-.54,4.14-.76s2.86-.42,4.28-.59c.71-.08,1.42-.15,2.12-.2s1.45,0,2.16,0a23.09,23.09,0,0,1,4.14.52l.6.05a23.48,23.48,0,0,1,3.47-1.13l.93-.2a2.2,2.2,0,0,1,.29,0l1.5,0c.5,0,1,0,1.51,0l1.55.12c2.07.2,4.17.34,6.3.74s4.31.91,6.49,1.51c-1.46-.46-2.94-.83-4.41-1.21a37.23,37.23,0,0,0-4.43-.94c-1.48-.23-3-.43-4.46-.62l-1.12-.14-1.11,0-1.94-.08,0,0h.87l1.19,0a21.84,21.84,0,0,1,2.42.09c1.63.12,3.26.27,4.89.44a23.51,23.51,0,0,1,2.45.39l2.45.51a37,37,0,0,1,4.89,1.27q2.43.79,4.85,1.7c1.59.66,3.15,1.44,4.72,2.22.78.4,1.57.79,2.33,1.21l2.23,1.42c1.47,1,3,1.93,4.39,3,1.84,1.53,3.73,3.09,5.46,4.75s3.3,3.52,4.78,5.25a108.48,108.48,0,0,1,6.53,9.09,76.38,76.38,0,0,1,5.87,11,62,62,0,0,1,3.85,12.33c.45,2.07.7,4.11.94,6.1.11,1,.14,2,.2,2.92s.11,1.92.09,2.82c0,1.83,0,3.63-.19,5.28-.08.84-.15,1.66-.22,2.47s-.23,1.54-.34,2.3-.24,1.48-.35,2.21-.3,1.37-.44,2-.31,1.31-.45,1.94-.31,1.1-.47,1.63c-.31,1-.62,2-.92,2.91s-.65,1.81-1,2.62c-.23,1.53-.57,3.13-.87,4.69s-.66,3.17-1.07,4.77c-.77,3.18-1.7,6.38-2.63,9.26-1.89,5.81-3.44,10.22-4.73,14.92-.31,1.18-.65,2.34-.93,3.54l-.45,1.79c-.16.61-.24,1.09-.37,1.64l-.36,1.6-.28,1.56c-.21,1-.32,2-.47,3a42.26,42.26,0,0,0-.34,5.52,20.93,20.93,0,0,0,.39,4.13,10.13,10.13,0,0,0,.34,1.26l.26.64.14.34,0,0s-.08-.21-.06-.14v0l0,0,.08.16a5.54,5.54,0,0,0,.33.64,9.81,9.81,0,0,0,1.78,2.27,10,10,0,0,0,5.08,2.48,13.2,13.2,0,0,0,1.41.14c.47,0,.94-.05,1.41,0a4.56,4.56,0,0,1,.82-.09l.49,0c.17,0,.34-.06.5-.08a13.4,13.4,0,0,0,2.06-.41,27.65,27.65,0,0,0,8.82-4.09,11.78,11.78,0,0,1,1.73-1.09,3.26,3.26,0,0,1,1.1-.43c.15,0,.06.29-.21.65a8.05,8.05,0,0,1-1.4,1.23,32.12,32.12,0,0,1-6.53,3.89,23.33,23.33,0,0,1-6.35,1.73l-.38,0-.31,0a2.11,2.11,0,0,1-.6.06,11.61,11.61,0,0,0-1.17.06,14.39,14.39,0,0,1-2.35-.23,11.24,11.24,0,0,1-4.39-1.87,11,11,0,0,1-3.27-3.6c-.1-.18-.18-.37-.28-.56l-.07-.13,0-.07,0,0h0s.07.17,0,.13l0-.07-.3-.72a7.67,7.67,0,0,1-.4-1.11,16.42,16.42,0,0,1-.55-2.81,37.62,37.62,0,0,1,.09-8L603,1280l.39-2.34c.33-1.61.62-3.11,1.07-5-.19.71-.43,1.51-.58,2.15l-.5,2c-.19.67-.29,1.3-.44,2s-.29,1.31-.38,1.94a45.32,45.32,0,0,0-.78,7.24,23.71,23.71,0,0,0,.44,5.52c.08.35.15.61.28,1l.14.39.14.37.05.11,0,.06c0,.1-.08-.2-.05-.11l0,.07.23.52c.12.37.34.68.49,1s.36.67.61,1a12.57,12.57,0,0,0,7.51,5.16,18.13,18.13,0,0,0,2.34.39c.39,0,.79,0,1.18,0,.2,0,.4,0,.6,0l.62-.06a12.59,12.59,0,0,0,1.47-.09c.5-.08,1-.15,1.51-.2s1-.25,1.54-.35l.78-.18.78-.27a30.21,30.21,0,0,0,6.42-3.06c.52-.34,1.05-.66,1.58-1s1-.74,1.56-1.09a16.66,16.66,0,0,0,1.56-1.13c.52-.4,1-.77,1.56-1.18a54.93,54.93,0,0,0,7-7.44c.51-.7,1.07-1.36,1.56-2.08l1.47-2.16c.93-1.52,1.92-3,2.75-4.64s1.68-3.24,2.49-4.88,1.53-3.36,2.18-5.13a99.68,99.68,0,0,0,3.56-10.76,132.13,132.13,0,0,0,4.05-23c.33-4,.53-8,.56-12,0-2,0-4.09-.07-6.16s-.14-4.19-.27-6.33c-.79-14.58-2.59-28.89-3.08-44A173.93,173.93,0,0,1,658,1143c.16-2,.49-4,.78-6.08s.7-4.09,1.11-6.16,1-4.2,1.53-6.35c.27-1.09.62-2.14,1-3.19s.71-2.11,1.06-3.17a92.61,92.61,0,0,1,19.17-31.29c1.08-1.11,2.08-2.26,3.24-3.3l3.45-3.12a76.61,76.61,0,0,1,7.57-5.59,63,63,0,0,1,17.51-8.06,42.64,42.64,0,0,1,4.81-1.15l2.43-.48c.81-.13,1.65-.19,2.48-.29a41.71,41.71,0,0,1,5-.34h3.76l1.24.1a58.65,58.65,0,0,1,19.15,4.54,70.77,70.77,0,0,1,16.35,9.75c1.2,1,2.45,2,3.59,3l3.38,3.2a90.76,90.76,0,0,1,6.12,6.91l1.52,1.87c.47.63.9,1.27,1.32,1.88.83,1.23,1.6,2.38,2.21,3.4a17.25,17.25,0,0,1,1.88,4c0,.91-2.61-2.86-6.47-8a86.69,86.69,0,0,0-13.25-13.58,68.68,68.68,0,0,0-16.74-10.2,58.07,58.07,0,0,0-19.79-4.56c-1.72-.09-3.45,0-5.17,0s-3.44.31-5.16.48a59.3,59.3,0,0,0-9.93,2.35,66,66,0,0,0-17.66,9.07,79.6,79.6,0,0,0-14,13.12A87.41,87.41,0,0,0,671,1107.43a92.84,92.84,0,0,0-7.1,17.44c-.4,1.53-.85,3.08-1.2,4.6l-.92,4.52c-.34,1.51-.49,3-.73,4.52s-.46,3-.58,4.52a155.8,155.8,0,0,0-.84,17.83c.06,11.74,1.08,23.1,1.93,34.18.43,5.54.79,11,1,16.42s.28,10.72.06,16a136.15,136.15,0,0,1-4.75,31.08,109.56,109.56,0,0,1-4.3,12.51,85,85,0,0,1-5.74,11.31.54.54,0,0,1,.34,0c.32.19.21,1-.24,2.34a99.3,99.3,0,0,0,11.82-27.21,141.84,141.84,0,0,0,3.2-21.31,181.52,181.52,0,0,0,.28-22c-.58-15.07-2.53-31-2.69-48.24a174.59,174.59,0,0,1,.77-17.62c.12-1.45.35-2.91.52-4.35l.29-2.16c.1-.72.25-1.45.37-2.16.27-1.44.51-2.87.8-4.29s.67-2.84,1-4.25a88.31,88.31,0,0,1,6-16.52,92.81,92.81,0,0,1,9.1-14.73,79.5,79.5,0,0,1,15.07-16.22,62.45,62.45,0,0,1,20-10.93,52.89,52.89,0,0,1,23.34-2.11,59,59,0,0,1,21.81,7.9,10.81,10.81,0,0,1,2.4,1.67c.31.33-.28,0-1.3-.64a64.93,64.93,0,0,0-14.56-6.41,51.32,51.32,0,0,0-16.17-2.11l-2.06,0c-.69,0-1.37.14-2.06.22l-2.05.24-1,.13-1,.22-4,.89c-1.32.36-2.6.83-3.9,1.24a58.33,58.33,0,0,0-14.34,7.4,28.12,28.12,0,0,1,3.59-1.64c.89-.24,1.37-.25,1.37,0s-.54.75-1.4,1.55-2.12,1.81-3.63,3l2.94-1.91,1.47-.94,1.55-.83c1-.55,2.07-1.11,3.12-1.63l3.26-1.37a17.93,17.93,0,0,1,3.51-1.1c.91-.21,1.47-.27,1.46-.15s-.53.41-1.39.75-2.05.74-3.29,1.31l-3.27,1.37-3.12,1.66c-.52.28-1,.54-1.55.84l-1.48,1c-1,.64-2,1.25-2.93,1.93a68.45,68.45,0,0,0-5.45,4.4c-.86.78-1.77,1.52-2.57,2.36l-2.43,2.49a79.44,79.44,0,0,0-8.5,11,82.67,82.67,0,0,0-6.58,12.18,77.43,77.43,0,0,0-4.82,15.89,111.9,111.9,0,0,0-2,16.23l-.2,4.06,0,4c0,1.35,0,2.7,0,4s0,2.69.09,4c.21,5.36.57,10.69,1,16a22.75,22.75,0,0,1,.89-6.24h0c-.1-1.64-.19-3.29-.29-4.93s-.13-3.29-.2-4.93a153.22,153.22,0,0,1,.37-22.85c.2-1.91.48-3.82.72-5.74s.7-3.81,1-5.72.9-3.82,1.45-5.7l.91-2.8.45-1.4.54-1.37a83.28,83.28,0,0,1,11.42-20.62,70.1,70.1,0,0,1,17.45-16.31l1.27-.84c.43-.26.89-.49,1.33-.74l2.68-1.46c.88-.5,1.86-.84,2.78-1.26s1.86-.85,2.84-1.18l2.93-.94,1.47-.47,1.51-.32,3-.64c1-.21,2.06-.25,3.08-.38a47.71,47.71,0,0,1,6.21-.25c1,0,2.06.15,3.09.23l1.55.14c.51.06,1,.17,1.53.26l3.05.56,3,.82,1.49.42,1.45.54,2.88,1.09a65.48,65.48,0,0,1,20,13.81,87.56,87.56,0,0,1,14.27,19.28,8.43,8.43,0,0,1,1,2.09,5.87,5.87,0,0,1-1.16-1.72l-1.76-3.14-1.94-3-1-1.52-1.06-1.47-2.13-2.92a83.45,83.45,0,0,0-9.94-10.57,67,67,0,0,0-12-8.37,55.38,55.38,0,0,0-13.84-5.08l.08,0c.77.2.89.34,0,.25a25,25,0,0,1-3-.55c-.89-.24-.79-.34,0-.27a49.29,49.29,0,0,0-13.83,0c-1.14.17-2.26.45-3.39.68l-1.69.36c-.56.13-1.1.34-1.65.5l-3.27,1.06c-1.06.43-2.1.89-3.15,1.34l-1.57.69-1.5.81-3,1.64-2.83,1.88c-.47.31-.95.62-1.4,1l-1.33,1c-.88.7-1.78,1.38-2.64,2.1l-2.48,2.27c-.41.38-.83.76-1.23,1.15l-1.15,1.21-2.29,2.44-2.11,2.58-1.06,1.29-1,1.35-1.94,2.7-1.76,2.81c-1.23,1.85-2.18,3.84-3.26,5.76-.5,1-.94,2-1.41,3s-.95,2-1.32,3l-1.21,3.07c-.39,1-.69,2.09-1,3.13-.73,2.07-1.19,4.23-1.74,6.35s-.83,4.27-1.19,6.41-.61,4.29-.77,6.44c.17-2,.54-4,.81-6s.77-3.95,1.15-5.92c.19-1,.5-2,.75-2.94s.49-2,.83-2.92c.67-1.91,1.23-3.86,2.05-5.71l1.15-2.81,1.3-2.73c.83-1.84,1.87-3.58,2.85-5.35.47-.89,1-1.73,1.58-2.58l1.64-2.55,1.79-2.45c.61-.8,1.17-1.64,1.85-2.4a68.6,68.6,0,0,1,18.21-16,50.9,50.9,0,0,1,23.3-7,43.91,43.91,0,0,1,5.38-.07l2.71.15,2.7.39c.49.08,1.05.2,1.53.31a5.71,5.71,0,0,1,1.06.4c.24.17-.47,0-1.46-.15l-3-.44,2.21.43a13,13,0,0,1,2,.52c1.25.4,2.36.79,3.26,1.13,1.77.84,2.75,1.47,2.61,1.7-.53.43-5.4-1.29-11.54-2a48.39,48.39,0,0,0-12.32.25l-3,.65-1.51.32-1.47.47-2.93,1c-1,.38-1.89.81-2.83,1.21-7.56,3.28-14.09,8.53-19.67,14.51a25.61,25.61,0,0,0-1.72,2l-1.66,2.07c-1,1.46-2,3-3,4.45a71.09,71.09,0,0,1,12.77-14,55,55,0,0,1,16.21-9.48l4.48-1.38,4.59-.91c1.55-.13,3.09-.36,4.65-.4h3.49l1.16.11a47.17,47.17,0,0,1,17.75,5.1,16,16,0,0,1,2.4,1.39c.6.42,1,.72.93.81s-.43,0-1.06-.33c-.31-.14-.68-.32-1.08-.53l-.63-.34-.7-.31a46.16,46.16,0,0,0-15.37-4.42,42.39,42.39,0,0,0-15.77,1.42c-10.25,3-19.22,9.6-26.23,17.78a77.12,77.12,0,0,0-15.13,28.44l-1,3.91-.75,4c-.29,1.33-.42,2.7-.61,4s-.38,2.71-.46,4.08a138.25,138.25,0,0,0-.49,16.56c1.17,14.61,4.07,29.19,6.22,44.63-.11-2-.28-3.91-.43-5.88-.53-6.24-1.17-12.28-1.76-18.17s-1.1-11.62-1.45-17.26-.41-11.15-.21-16.6a102.59,102.59,0,0,1,1.87-16,68.67,68.67,0,0,1,4.92-15,74.16,74.16,0,0,1,8.18-13.81A59.75,59.75,0,0,1,704,1091.39a48.08,48.08,0,0,1,14.47-7.79,5.68,5.68,0,0,1,2.12-.49c.07,0-.07.11-.36.23a12.77,12.77,0,0,1-1.26.47,46.78,46.78,0,0,0-14,7.39,62,62,0,0,0-11.05,11.08,73.43,73.43,0,0,0-13.49,28.25,93.64,93.64,0,0,0-2,13.14c-.28,4.44-.45,8.83-.29,13.25a245.81,245.81,0,0,0,2.36,26.35c-.89-9-1.64-17.75-1.74-26.32a109,109,0,0,1,2.18-25l.69-3,.88-2.91c.26-1,.63-1.94,1-2.9s.68-1.93,1.09-2.86c.84-1.87,1.61-3.78,2.61-5.58s2-3.61,3-5.38a66.71,66.71,0,0,1,7.48-9.83c1.33-1.59,2.9-2.91,4.37-4.36l2.38-2c.4-.32.79-.67,1.2-1l1.26-.87a15.52,15.52,0,0,1,3.25-1.92,2.36,2.36,0,0,1,.63-.51l1.3-.83.67-.42.7-.36,2.89-1.45a42,42,0,0,1,6.33-2.13,8.4,8.4,0,0,1,2.38-.38C725.54,1083.46,725,1083.52,724.1,1083.82Zm-197.05,83.89-.25-.1.7,0,1.38.84Zm-5.86,9.63h0l-.82-.36Zm79.72,114.41a26.32,26.32,0,0,1-.23-4.59c0-.81.1-1.72.13-2.58s.18-1.8.32-2.73a86.83,86.83,0,0,1,2.7-11.78c.61-2.08,1.24-4.11,1.95-6.16s1.46-4.11,2.29-6.35a158.18,158.18,0,0,0,5-15.13,153.13,153.13,0,0,1-4.19,15c-1.26,3.4-2.36,6.41-3.37,9.5-.52,1.53-1,3.09-1.45,4.66l-.68,2.37-.58,2.19a65.14,65.14,0,0,0-1.65,8.38A35.92,35.92,0,0,0,600.91,1291.75Zm-82.83-124.87a12,12,0,0,1,3.48.81,5.5,5.5,0,0,1,1.6-1.21,53.69,53.69,0,0,1,5.07-2c-.42-.33,0-.47.15-.63s.37-.26.56-.39c-1.87.51-3.73,1.09-5.68,1.64a23,23,0,0,0-2.6.94A21.83,21.83,0,0,1,518.08,1166.88Zm-9.23,9.43-.24,0-.23-.78Zm.45,1.28.26-.09C509.68,1177.76,509.55,1177.74,509.3,1177.59Zm2.39-.87a2.05,2.05,0,0,0-.52-.08Zm15.22,15.59c-.61-1.09-1.21-2.18-1.8-3.29q.81,1.62,1.65,3.21Z"/><path d="M660.18,1201.24l.63.12a1.74,1.74,0,0,1-1.13.67,14.64,14.64,0,0,0,8.34-2.19,27,27,0,0,0,3.43-2.51,22.26,22.26,0,0,0,2.79-2.9c1.58-.36,2.67-1.54,2.43-2.66s-1.76-1.75-3.44-1.4a5.48,5.48,0,0,1-1.19-.11,25,25,0,0,0-9.94-.84l2.3.27a11.31,11.31,0,0,0-3.08.49l.64.46c-3.82-.26-7.86,2.11-8.65,5.13s1.7,5.37,5.25,5.39C659.1,1201.19,659.63,1201.19,660.18,1201.24Z"/><path d="M668.54,1205.14l-5.8-.11-.51-.22,1,1.58,0-.11c.65-2,2.71-3.74,4.8-5l.69-.56a1.46,1.46,0,0,0,.31-1.17c-.18-.87-1.25-1.33-2.41-1l-1.32.35a13.08,13.08,0,0,0-5.49,1.8,5.16,5.16,0,0,0-2.72,4.31c0,.82.85,1.46,1.39,2.15a2.7,2.7,0,0,0,3.57.87c1.39-.66,2.15-2,1.64-3.14l.86-.11-.36.65c-.12-1.13,1.07-1.94,1.78-2.89.45-.31.91-.59,1.36-.88l-2.14-2.2c-.21.22-.42.44-.62.67l.31.2a33.51,33.51,0,0,1-3.48,3.87l-1.41,1.91a1.21,1.21,0,0,0,1.07,1.57l1.16.11-.57-.13,3.41-.73a34.08,34.08,0,0,1,3.39-.62.76.76,0,0,0,.74-.6A.55.55,0,0,0,668.54,1205.14Z"/><path d="M661.81,1208.79a1.8,1.8,0,0,0-1.27.21l-.07.3.87.1C662,1209.48,662,1209.12,661.81,1208.79Z"/><path d="M660.47,1209.3l-.36,0,.32.15,0-.05Z"/><path d="M750.7,1204.11A134.21,134.21,0,0,1,766,1215.36c.16.13.34.18.42.08s0-.26-.15-.38A132.82,132.82,0,0,0,751,1203.73c-.19-.11-.38-.11-.45,0S750.53,1204,750.7,1204.11Z"/><path d="M778.31,1240.81c-.15,0-.22,0-.18.18a.49.49,0,0,0,.31.33c.12,0,.2,0,.17-.17A.54.54,0,0,0,778.31,1240.81Z"/><path d="M771.82,1245.25a9.12,9.12,0,0,0-1.85-1,.49.49,0,0,1-.24-.23c-.09.14-.3.15-.53,0-4.67-2.49-9.26-5.32-14.06-7.43a1.15,1.15,0,0,1-.44.23,2.15,2.15,0,0,1-1.89-.42l-.4-.38c-1.77-1.33-3.59-2.59-5.41-3.8a4.82,4.82,0,0,1-1.59-.31l-3-.34-2.95-.29a.7.7,0,0,1,0,.51,1,1,0,0,1-1.22.35c-.23-.08-.48-.14-.72-.2.65.29,1.26.67,1.89,1a.79.79,0,0,1,.23.16l2.26.82a177.42,177.42,0,0,1,20.46,7.75.42.42,0,0,1,.29.29.17.17,0,0,1-.23.15c-4.83-1.41-9.58-1.45-14.48-2.44a73.6,73.6,0,0,0-16.8-1.42c-.64-.11-1.28-.21-1.92-.29s-1.27-.08-1.91-.1a27.4,27.4,0,0,0-3.74.18,42.77,42.77,0,0,0-7.27,1.68c-1.77.55-3.44,1.15-5,1.75-2.22.87-4.31,1.69-6.33,2.7-1,.43-2,1-3,1.5s-1.94,1.06-2.88,1.69a2.69,2.69,0,0,1-1.46.7,2.8,2.8,0,0,1-1.59-.22,6.63,6.63,0,0,1-3-3,8.29,8.29,0,0,1-.8-5.87l-.6.27-1.08.16a4.41,4.41,0,0,1-3.15-1.05l-1.31-.94a26.83,26.83,0,0,0-3.51-2.67,27,27,0,0,1-3.62-2.73l-.36-1.12-.36-.17a6.14,6.14,0,0,1-2.83-2l-.64-1.26a12.89,12.89,0,0,1-1.12-4.55,4.65,4.65,0,0,1-.62-1.62,6.61,6.61,0,0,1-2.6-3.8.9.9,0,0,1-.54-1.26,1.08,1.08,0,0,1,.38-.44h0a7.78,7.78,0,0,0-.93-.51c-.4.07-.65.09-.65.09-1,.24-1,.27-1.94.5a5.38,5.38,0,0,1-1.71-.4c-2.09-1.74-2.11-1.73-2.56-2.73,0-.12,0-.23,0-.35-.83,0-.89,0-1.12,0a2.8,2.8,0,0,1-.53-.19c-.35-.49-.35-.49-.57-.61a2.21,2.21,0,0,1-.27-.36c0-.75,0-.75-.07-.91a1.6,1.6,0,0,1,0-.38c.33-.4.46-.56.52-.62l1.71.8-.07-.55.57.48-.45-.48.67.08-.82-.2a5.8,5.8,0,0,0,1.65-.63,2.6,2.6,0,0,0,.86-.53,1.7,1.7,0,0,1-.21-.27c1.33-.36,1.33-.36,2.63-.68a3.94,3.94,0,0,1,.46.23.61.61,0,0,1,.47-.46l.66-.19.09-.14,0,0,.4-.48c.07-.11.08-.11.08-.11h0c.29-.33.69-.81,1.77-2.09a8.39,8.39,0,0,1,1.18-.17l-.43-.13c-.28-.1-.33-.66-.46-.66a27,27,0,0,0-4.78.55c-1.57.35-3.16.77-4.76,1.18a1.12,1.12,0,0,1-1.42-.07.84.84,0,0,1,.35-1.23,18.74,18.74,0,0,1,3.94-3.58,25.1,25.1,0,0,1,4.94-2.48,29.89,29.89,0,0,1,5.49-1.33,31.51,31.51,0,0,1,5.55-.22c1.83-.15,3.6-.4,5.42-.52l-.33-.2,1.47.12h.15l-1.28-.7-.79-.13a50.59,50.59,0,0,1-6.28.28c-2.08.05-4.25,0-6.39.2-2.31.22-4.53,0-6.82.14a.92.92,0,0,1-1.18-.42c-.11-.37.26-.81.79-1a32.77,32.77,0,0,1,5.17-2.06,31,31,0,0,1,5.55-1.25,26.43,26.43,0,0,1,5.53-.22,20.19,20.19,0,0,1,5.11,1,7.13,7.13,0,0,1,3.68.25h.06l-1-.64a19.89,19.89,0,0,1,2.55.75l-.54-1c2.4,0,4.87-.11,7.28-.11,1.21,0,2.42.12,3.59.26.59.08,1.16.17,1.73.28s1.13.3,1.68.48l.5.1a17.06,17.06,0,0,1,3.69-1,10.9,10.9,0,0,1,2.09-.14l-2.1-.45h0a14.12,14.12,0,0,1,4.7-.28,20.07,20.07,0,0,1,6.59,2,11.66,11.66,0,0,1,4.58,3.78,103.74,103.74,0,0,1,23.4,7.37c.39.15.66.49.62.74s-.39.33-.77.18a154.58,154.58,0,0,0-16.74-4.87c4.63,1.86,9,4,13.42,6.13l1.73.73a8.55,8.55,0,0,1,1.6.93c5.5,2.89,10.3,6.12,15.5,9.43a143.32,143.32,0,0,1,12.23,8.82,68.9,68.9,0,0,1,14.45,15.35c.56.76.79,1.7.5,2.07s-1,0-1.57-.69a114.93,114.93,0,0,0-15.65-15.54A211.25,211.25,0,0,0,756,1212.74c-1.45-.9-2.85-1.84-4.3-2.68a.85.85,0,0,1-.08.24,1.21,1.21,0,0,1-.76.61c1.64.95,3.16,2.09,4.71,3.19a46.24,46.24,0,0,1,13.36,8.75,56.76,56.76,0,0,1,6.79,8.41,97.14,97.14,0,0,1,9.18,9.3.46.46,0,0,1,.17.4c0,.11-.15.09-.28,0-2.26-2-4.56-4.09-6.94-6.08a1.36,1.36,0,0,1-.31,1.34,1.53,1.53,0,0,1-1.49.09c.45.52.94,1,1.38,1.53.27.33.36.7.19.85s-.53,0-.79-.28c-.93-1-1.89-2-2.84-3.06s-2-2-3-3c-1.29-1.07-2.65-2-4-3.07s-2.71-2-4.09-2.9a2.53,2.53,0,0,1,0,1.56h0l1.21.92a65.55,65.55,0,0,1,20.89,19.48c.11.15.15.32.07.38s-.22,0-.32-.15c-.85-1.18-1.72-2.36-2.6-3.51s-1.87-2.24-2.82-3.34h0c0,.13,0,.23-.18.17a.61.61,0,0,1-.3-.33c0-.15,0-.22.17-.18A63.11,63.11,0,0,0,766.92,1231a71.53,71.53,0,0,1,10.44,10.29l1.36.94a.48.48,0,0,1,.16.39c0,.09-.18.07-.3,0l-.36-.27c.58.72.71,1.55.31,1.87s-1.23,0-1.86-.73l-2.66-2.68-2.71-2.61-.65-.5-.79-.36a96.65,96.65,0,0,1,7.52,8.85c.22.24.3.55.16.67s-.42,0-.64-.22A129,129,0,0,0,761,1234.16c-1.17-.28-2.31-.59-3.5-.8l-3.53-.62c.22.16.44.32.67.47,1.48.94,3,1.72,4.5,2.51l4.55,2.26c1.52.75,3,1.6,4.46,2.47a36.21,36.21,0,0,1,4.2,3.12c.14.11.19.27.13.35s-.21.06-.33-.07a35.47,35.47,0,0,0-4.16-2.91c-1.46-.84-2.92-1.65-4.42-2.46a45.45,45.45,0,0,0-7.43-3.34c4.44,2.6,9.1,4.89,13.28,8.18a.78.78,0,0,1,.37.49.21.21,0,0,1,.19,0,10,10,0,0,1,1.95,1.06.39.39,0,0,1,.21.35C772.1,1245.32,772,1245.32,771.82,1245.25ZM683,1206.64l-.22-.13.65.13,1.19,1Zm-7.29,8h0l-.73-.5Zm60.72-12.93c-1.65-.54-3.28-1.14-4.91-1.77s-3.28-1.29-4.94-2c.85.1,1.69.26,2.52.42A71.39,71.39,0,0,1,736.44,1201.67Zm-61.8,2.56a12.16,12.16,0,0,1,3.17,1.42,5.26,5.26,0,0,1,1.74-.77,32.61,32.61,0,0,1,5.07-1c-.35-.38.06-.43.24-.54l.58-.26-2.77.2-2.81.28c-.86.09-1.75.21-2.62.35A23.27,23.27,0,0,1,674.64,1204.23ZM663.92,1211l-.23-.09-.07-.79S663.74,1210.51,663.92,1211Zm.17,1.31.28,0C664.43,1212.58,664.3,1212.53,664.09,1212.33Zm2.52-.28a1.85,1.85,0,0,0-.49-.2Zm11.71,18-1.1-3.55,1,3.46Z"/><path d="M278.86,1174.76c.2,0,.42,0,.63,0a1.71,1.71,0,0,1-.94,1,15.57,15.57,0,0,0,7.72-4.36,39.34,39.34,0,0,0,3-3.46,25.55,25.55,0,0,0,2.31-3.78c1.51-.82,2.54-2.27,2.09-3.44s-2.19-1.48-3.87-.66a5.38,5.38,0,0,1-1.23.23,20.7,20.7,0,0,0-5,.28c-.86.15-1.77.34-2.64.58s-1.71.56-2.57.9l2.32-.37a11.38,11.38,0,0,0-2.94,1.38l.73.31a10.16,10.16,0,0,0-5.14,2.86,8,8,0,0,0-2.23,4.78c-.15,3.28,2.78,5,6.24,4.15Z"/><path d="M287.88,1176.71c-1.9.44-3.89.79-5.73,1.28l-.54-.09,1.34,1.35-.06-.11c.1-2.29,1.93-4.43,3.69-6.31l.57-.77a1.65,1.65,0,0,0,.06-1.3c-.36-.87-1.51-1.08-2.59-.47l-1.23.72c-3.54,1.12-7.58,4.76-6.74,8.3.21.81,1.14,1.25,1.8,1.83a2.64,2.64,0,0,0,3.66,0,2.76,2.76,0,0,0,.91-3.62c.26-.11.52-.23.79-.33-.06.25-.13.5-.2.76-.4-1.15.67-2.23,1.2-3.37l1.16-1.25-2.57-1.74-.48.85c.13.06.35.12.35.14-.44.83-.84,1.64-1.28,2.43a23.61,23.61,0,0,1-1.32,2.4l-1,2.28a1.2,1.2,0,0,0,1.38,1.33l1.15-.17h-.58c1.06-.5,2.1-1.05,3.13-1.6a30,30,0,0,1,3.25-1.39.81.81,0,0,0,.6-.8A.54.54,0,0,0,287.88,1176.71Z"/><path d="M282.05,1182a1.92,1.92,0,0,0-1.2.51v.32l.87-.1C282.34,1182.68,282.35,1182.31,282.05,1182Z"/><path d="M280.85,1182.85l-.36,0,.34.07,0,0Z"/><path d="M410,1298.48c9.44-8.39,16.22-22.23,20.11-37.16A139.27,139.27,0,0,0,434,1238a204.26,204.26,0,0,0,.25-24.57,5.43,5.43,0,0,0-.33-2.15,4.4,4.4,0,0,0-.12,1.91,203.17,203.17,0,0,1-.24,24.51,137.6,137.6,0,0,1-3.83,23.18c-3.83,14.85-10.56,28.61-19.83,37-.63.55-1.07,1.09-1.06,1.27S409.43,1299,410,1298.48Z"/><path d="M506.49,1082.71c-.9.09-.86.19.06.26.4,0,.95,0,1.51,0s1.13.08,1.57.07c.75,0,.73-.13-.05-.26a10.76,10.76,0,0,0-1.61-.17C507.41,1082.66,506.86,1082.68,506.49,1082.71Z"/><path d="M499.82,1091.29l-3.14.81c-1,.31-2,.73-3,1.07-.47.19-1,.35-1.41.56l-1.34.68c-.87.46-1.73.86-2.53,1.35a17.44,17.44,0,0,1-1.81,1c.31,0-.37.54-1.68,1.41a55.41,55.41,0,0,0-4.66,3.62c-.73.66-1.53,1.25-2.22,2l-2.12,2.12a66.75,66.75,0,0,0-7.53,9.53c-1.19,1.67-2.14,3.51-3.19,5.27-.49.91-.93,1.84-1.4,2.75l-.7,1.38-.6,1.43a68.81,68.81,0,0,0-4,11.65l-.68,3c-.18,1-.34,2.08-.51,3.11-.4,2.06-.56,4.2-.81,6.31-.14,1-.16,2.14-.23,3.21s-.15,2.14-.19,3.22l-.05,3.25,0,1.63,0,1.65a261.1,261.1,0,0,0,2,26.79,4.79,4.79,0,0,1,.6,1.51,77,77,0,0,1,1.91,13l.24,4.09c.57,8.29,1,16.78.78,25.45a172.09,172.09,0,0,1-2.61,25.88c-.2,1.78-.38,3.7-.74,5.73-.18,1-.36,2.06-.54,3.12s-.47,2.16-.72,3.27a121.74,121.74,0,0,1-6.62,22.42,105.78,105.78,0,0,1-5.2,11l-1.6,2.72-.81,1.37-.88,1.32-1.77,2.66-1.94,2.59c.8-.75,1.36-1.14,1.51-1,.09.29-.43,1.27-1.35,2.66a26.54,26.54,0,0,1-1.75,2.26c-.7.81-1.41,1.71-2.28,2.54l-2.6,2.59c-.89.84-1.83,1.64-2.76,2.46a85.14,85.14,0,0,0,14.25-15.15c.56-.81,1.15-1.52,1.61-2.19a103.37,103.37,0,0,0,10-19.54c5.75-14.8,8.3-29.75,9.18-44.35a179.39,179.39,0,0,0-.08-21.64c-.44-7-1.17-13.85-2-20.49-1.62-13.27-3.44-25.83-4-38a120.13,120.13,0,0,1,.39-17.85l.21-2.18.33-2.14c.21-1.43.4-2.89.72-4.22l.44-2c.13-.69.36-1.35.54-2l.57-2c.18-.68.45-1.34.68-2a13.15,13.15,0,0,1,1-2.38c.28-.36.33-.25.08.54s-.53,1.7-.79,2.55c-.13.42-.28.84-.39,1.26l-.3,1.27c-.21.85-.41,1.69-.61,2.52s-.29,1.68-.43,2.52c-.33,1.62-.45,3.43-.65,5.14l-.14,1.29-.07,1.32-.13,2.61a138.9,138.9,0,0,0,1.11,21.38c.87,7.34,2.15,14.93,3.49,23.11s2.74,16.94,3.66,26.73c.15,1.44.26,2.91.36,4.4s.23,3,.3,4.45l.19,4.52.07,4.54a181.1,181.1,0,0,1-.85,18.27,145.24,145.24,0,0,1-8.32,37c-1.17,3.09-2.46,6.18-3.92,9.24a101.28,101.28,0,0,1-4.93,9.16,92.35,92.35,0,0,1-13.45,17.28,76.31,76.31,0,0,1-19.15,14.15l-2.85,1.41c-1,.47-2,.85-3,1.27s-2,.83-3.07,1.18l-3.23,1-1.62.48c-.56.14-1.12.26-1.69.39-1.13.24-2.26.48-3.4.7s-2.33.33-3.5.48l-3.85.39a61.83,61.83,0,0,1-16.24-1.73,55.4,55.4,0,0,1-14.94-6.15,53,53,0,0,1-12.4-10.16,55.1,55.1,0,0,1-8.74-13.38,47.07,47.07,0,0,1-2.86-7c-.45-1.33-.78-2.58-1.12-3.87s-.61-2.51-.8-3.69a76.08,76.08,0,0,1-1.24-13.44,99.77,99.77,0,0,1,.67-11.87c.24-1.85.45-3.76.77-5.53l.45-2.69c.16-.92.31-1.63.46-2.45.59-3.18,1.32-6.43,2.08-9.65s1.62-6.35,2.36-9.12a83,83,0,0,0,2.72-13.35c.12-1.09.26-2.17.35-3.34s.19-2.33.28-3.54l.06-.91c0-.29,0-.43,0-.66v-1.23c0-.4,0-.74-.06-1.12a5.63,5.63,0,0,0-.08-1c0-.31-.08-.63-.11-1s-.13-.54-.17-.81a4.14,4.14,0,0,0-.2-.72,2.92,2.92,0,0,0-.21-.65,9,9,0,0,0-1.07-2.09,33.13,33.13,0,0,0-2.89-3.77c-.73-.83-1.55-1.74-2.52-2.76l-.74-.76-.18-.2-.09-.09h0l-.14-.06a1.44,1.44,0,0,1-.46-.29c-.64-.18-1-.41-1.4-.28a.19.19,0,0,1-.12,0l-.16.06a.36.36,0,0,1-.27,0,.74.74,0,0,1-.34.11c-.06,0-.09,0-.16,0l-.22.09a2.55,2.55,0,0,1-.41,0,1.72,1.72,0,0,1-.26.1.11.11,0,0,0-.05,0l-.16.1c-.12.08-.2.06-.33.18a2.81,2.81,0,0,1-.76.43c-1.09.65-2.46,1.3-4.09,2.26-.52.66-1.37.58-2.42,0a10.26,10.26,0,0,1-3.4-3,9.38,9.38,0,0,1-2-5.67l-.49.31-1,.15a5.27,5.27,0,0,1-3.26-.91l-1.48-.8c-2.5-1.74-5.43-2.65-8.16-4.39l-.6-1-.38-.11a6.2,6.2,0,0,1-3.17-1.4l-.88-1.11a13.41,13.41,0,0,1-2.07-4.31,5,5,0,0,1-.95-1.5,6.64,6.64,0,0,1-3.33-3.26.94.94,0,0,1-.81-1.15,1.27,1.27,0,0,1,.27-.53h0a8.24,8.24,0,0,0-1-.3l-.6.25-1.79.93a5.32,5.32,0,0,1-1.76,0c-2.4-1.26-2.42-1.25-3.06-2.14a2,2,0,0,1-.08-.35c-.81.23-.87.25-1.09.3a3.48,3.48,0,0,1-.56-.07c-.44-.4-.44-.4-.68-.47a2.81,2.81,0,0,1-.34-.3c-.14-.75-.14-.75-.26-.89a1.49,1.49,0,0,1,0-.39c.23-.48.33-.67.37-.75l1.84.41-.19-.54.66.35-.54-.38.67-.07h-.84a5.79,5.79,0,0,0,1.47-1,2.37,2.37,0,0,0,.72-.75,2,2,0,0,1-.26-.23,22.63,22.63,0,0,1,2.41-1.33c.19,0,.36.09.52.14a.64.64,0,0,1,.37-.57l.63-.34a1.11,1.11,0,0,1,.07-.16l0,0c.12-.23.2-.4.29-.59l.06-.13h0l1.3-2.59a6,6,0,0,1,1.14-.46l-.46,0c-.3,0-.46-.61-.59-.58a29.63,29.63,0,0,0-4.6,1.74c-.75.36-1.52.73-2.26,1.13l-2.15,1.25a1.09,1.09,0,0,1-1.4.27.9.9,0,0,1,.08-1.33,21.44,21.44,0,0,1,1.32-2.45,18.61,18.61,0,0,1,1.78-2.22,25.8,25.8,0,0,1,4.4-3.84,34.66,34.66,0,0,1,5.35-2.75,20,20,0,0,1,2.87-.91c1-.24,2-.45,2.9-.6s1.84-.65,2.81-.93l2.9-.81-.38-.15,1.59-.18.16,0-1.47-.49c-.29,0-.58,0-.87,0-1.11.36-2.27.61-3.36.89s-2.18.56-3.29.81l-3.35.75c-1.11.28-2.16.63-3.25,1-2.3.82-4.69,1.08-6.89,1.87-.5.3-1,.25-1.25-.12s.09-.92.58-1.22c5.85-5,14.55-9,22-8a8.09,8.09,0,0,1,2.07-.53,7.59,7.59,0,0,1,2.08.06h.06l-1.14-.52c1.13-.14,1.91.35,3,.34l-.7-1c1.38-.21,2.71-.54,4.14-.76s2.86-.42,4.28-.59c.71-.08,1.42-.15,2.12-.2s1.45,0,2.16,0a23.09,23.09,0,0,1,4.14.52l.6.05a23.48,23.48,0,0,1,3.47-1.13l.93-.2a1.23,1.23,0,0,1,.29,0l1.5,0c.5,0,1,0,1.51,0l1.55.12c2.07.2,4.17.34,6.3.74s4.31.91,6.49,1.51c-1.46-.46-2.94-.83-4.41-1.21a37.23,37.23,0,0,0-4.43-.94c-1.48-.23-3-.43-4.46-.62l-1.12-.14-1.11,0-1.94-.08h.92l1.19,0a21.84,21.84,0,0,1,2.42.09c1.63.12,3.26.26,4.89.44a23.51,23.51,0,0,1,2.45.39l2.45.51a37,37,0,0,1,4.89,1.27q2.43.8,4.85,1.7c1.59.66,3.15,1.44,4.72,2.22.78.4,1.57.79,2.33,1.21l2.23,1.42c1.47,1,3,1.93,4.39,3,1.84,1.53,3.73,3.09,5.46,4.75s3.3,3.52,4.78,5.25a108.48,108.48,0,0,1,6.53,9.09,76.38,76.38,0,0,1,5.87,11,62,62,0,0,1,3.85,12.33c.45,2.07.7,4.11.94,6.1.11,1,.14,2,.2,2.92s.11,1.92.09,2.82c0,1.83,0,3.63-.2,5.28-.07.84-.14,1.66-.21,2.47s-.23,1.54-.34,2.3-.24,1.48-.35,2.21-.3,1.37-.44,2-.31,1.31-.45,1.94-.31,1.1-.47,1.63c-.31,1-.62,2-.92,2.91s-.65,1.81-1,2.63c-.24,1.52-.58,3.12-.88,4.68s-.66,3.17-1.07,4.77c-.77,3.18-1.7,6.38-2.63,9.26-1.89,5.81-3.44,10.22-4.73,14.92-.31,1.18-.65,2.34-.93,3.54L382,1282c-.16.61-.24,1.09-.37,1.64l-.36,1.6-.28,1.56c-.21,1-.32,2-.47,3a44.2,44.2,0,0,0-.35,5.52,21.61,21.61,0,0,0,.4,4.13,8.64,8.64,0,0,0,.34,1.26l.26.64.14.34,0,0s-.08-.21-.06-.14v0l0,0,.08.16a4.38,4.38,0,0,0,.34.64,9.51,9.51,0,0,0,1.77,2.27,10,10,0,0,0,5.08,2.48,13.2,13.2,0,0,0,1.41.14c.47,0,.94-.05,1.41,0a4.67,4.67,0,0,1,.82-.09l.49,0c.17,0,.34-.06.5-.08a13.4,13.4,0,0,0,2.06-.41,27.65,27.65,0,0,0,8.82-4.09,11.78,11.78,0,0,1,1.73-1.09,3.26,3.26,0,0,1,1.1-.43c.15,0,.06.29-.21.65a8.49,8.49,0,0,1-1.4,1.23,33.06,33.06,0,0,1-6.53,3.89,23.33,23.33,0,0,1-6.35,1.73l-.38,0-.31,0a2.11,2.11,0,0,1-.6.06,11.46,11.46,0,0,0-1.17.06,14.39,14.39,0,0,1-2.35-.23,11.24,11.24,0,0,1-4.39-1.87,11,11,0,0,1-3.27-3.6c-.1-.18-.18-.37-.28-.56l-.07-.13,0-.07,0,0h0s.07.17.05.13l0-.07-.3-.72a7.67,7.67,0,0,1-.4-1.11,16.42,16.42,0,0,1-.55-2.81,37.62,37.62,0,0,1,.09-8l.29-2.28.4-2.34c.32-1.61.61-3.12,1.06-5-.19.71-.43,1.51-.58,2.15l-.5,2c-.19.67-.29,1.31-.44,2s-.29,1.31-.38,1.94a45.32,45.32,0,0,0-.78,7.24,23.56,23.56,0,0,0,.44,5.51,9.9,9.9,0,0,0,.28,1l.14.39.14.37.05.11,0,.06c0,.1-.08-.2-.05-.11l0,.07.23.52c.12.37.34.68.49,1s.36.67.6,1a12.62,12.62,0,0,0,7.52,5.16,18.13,18.13,0,0,0,2.34.39c.39,0,.79,0,1.18,0,.2,0,.4,0,.6,0l.62-.06a12.59,12.59,0,0,0,1.47-.09c.5-.08,1-.15,1.51-.2s1-.25,1.54-.35l.78-.18.78-.27a30.21,30.21,0,0,0,6.42-3.06c.52-.34,1.05-.66,1.58-1s1-.74,1.56-1.09a16.66,16.66,0,0,0,1.56-1.13c.52-.4,1.05-.77,1.56-1.18a54.93,54.93,0,0,0,7-7.44c.51-.7,1.07-1.36,1.56-2.08l1.48-2.16c.93-1.52,1.91-3,2.74-4.64s1.68-3.24,2.49-4.88,1.53-3.36,2.18-5.13a99,99,0,0,0,3.56-10.76,132.13,132.13,0,0,0,4.05-23c.33-4,.53-8,.56-12,0-2,0-4.1-.07-6.17s-.14-4.19-.27-6.33c-.79-14.58-2.59-28.89-3.08-44a173.93,173.93,0,0,1,.66-23.34c.16-2,.49-4,.78-6.08s.7-4.09,1.11-6.16,1-4.2,1.53-6.35c.27-1.09.62-2.14,1-3.19s.71-2.11,1.06-3.17a92.61,92.61,0,0,1,19.17-31.29c1.08-1.11,2.08-2.26,3.24-3.3l3.45-3.12a76.61,76.61,0,0,1,7.57-5.59,63,63,0,0,1,17.51-8.06,43.17,43.17,0,0,1,4.81-1.15l2.42-.48c.82-.13,1.66-.19,2.49-.29a41.71,41.71,0,0,1,5-.34h3.76l1.24.1a58.71,58.71,0,0,1,19.15,4.54,70.77,70.77,0,0,1,16.35,9.75c1.2,1,2.45,2,3.59,3l3.38,3.2c2.12,2.24,4.25,4.48,6.12,6.9l1.52,1.88c.47.63.9,1.27,1.32,1.88.83,1.23,1.6,2.38,2.21,3.4a17.25,17.25,0,0,1,1.88,4c0,.91-2.61-2.86-6.47-7.95a86.69,86.69,0,0,0-13.25-13.58,68.68,68.68,0,0,0-16.74-10.2,58.07,58.07,0,0,0-19.79-4.56c-1.72-.09-3.45,0-5.17,0s-3.44.31-5.16.48a59.3,59.3,0,0,0-9.93,2.35,66,66,0,0,0-17.66,9.07,80,80,0,0,0-14,13.12,87.41,87.41,0,0,0-10.52,15.57,92.84,92.84,0,0,0-7.1,17.44c-.4,1.53-.85,3.08-1.2,4.6l-.92,4.52c-.34,1.51-.49,3-.73,4.52s-.46,3-.58,4.52a155.8,155.8,0,0,0-.84,17.83c.06,11.74,1.08,23.1,1.93,34.18.43,5.54.79,11,1,16.42s.28,10.72.06,16a136.15,136.15,0,0,1-4.75,31.08,109.56,109.56,0,0,1-4.3,12.51,84.39,84.39,0,0,1-5.74,11.31.54.54,0,0,1,.34,0c.32.19.21,1-.24,2.34a99.3,99.3,0,0,0,11.82-27.21,141.84,141.84,0,0,0,3.2-21.31,181.52,181.52,0,0,0,.28-22c-.58-15.07-2.53-31-2.69-48.24a174.59,174.59,0,0,1,.77-17.62c.12-1.45.35-2.91.52-4.35l.29-2.16c.1-.72.25-1.45.37-2.16.27-1.44.51-2.87.8-4.29s.67-2.84,1-4.25a88.31,88.31,0,0,1,6-16.52,93.26,93.26,0,0,1,9.1-14.73A79.5,79.5,0,0,1,470.26,1091a62.45,62.45,0,0,1,20-10.93,52.89,52.89,0,0,1,23.34-2.11,58.8,58.8,0,0,1,21.81,7.9,10.81,10.81,0,0,1,2.4,1.67c.31.33-.28,0-1.3-.64a64.93,64.93,0,0,0-14.56-6.41,51.32,51.32,0,0,0-16.17-2.11l-2.06.05c-.69,0-1.37.14-2.06.22l-2.05.24-1,.13-1,.22-4,.89c-1.32.36-2.6.83-3.9,1.24a58.33,58.33,0,0,0-14.34,7.4,26.45,26.45,0,0,1,3.59-1.63c.89-.25,1.37-.26,1.37,0s-.54.75-1.4,1.55-2.12,1.81-3.63,3l2.94-1.91,1.47-.94,1.55-.83c1-.55,2.07-1.11,3.12-1.63l3.26-1.37a18.14,18.14,0,0,1,3.51-1.1c.91-.21,1.47-.27,1.46-.15s-.53.41-1.39.75-2.05.74-3.29,1.31l-3.27,1.37-3.12,1.66c-.52.28-1.05.54-1.55.84l-1.48,1c-1,.64-2,1.25-2.93,1.93-1.85,1.44-3.77,2.79-5.45,4.39-.86.79-1.77,1.53-2.57,2.37l-2.43,2.49a79.44,79.44,0,0,0-8.5,11,83.61,83.61,0,0,0-6.58,12.18,77.43,77.43,0,0,0-4.82,15.89,111.9,111.9,0,0,0-2,16.23l-.2,4.06,0,4.05c0,1.35,0,2.7,0,4s0,2.69.09,4c.21,5.36.57,10.69,1,16A22.75,22.75,0,0,1,445,1183h0c-.1-1.64-.19-3.29-.29-4.93s-.13-3.29-.2-4.93a153.22,153.22,0,0,1,.37-22.85c.2-1.91.48-3.82.72-5.74s.7-3.81,1-5.72.91-3.82,1.46-5.7l.91-2.8.45-1.4.54-1.37a83.28,83.28,0,0,1,11.42-20.62,70.1,70.1,0,0,1,17.45-16.31l1.27-.84c.43-.26.89-.49,1.33-.74l2.68-1.46c.88-.5,1.86-.84,2.78-1.26s1.87-.85,2.84-1.18l2.93-.94,1.47-.47,1.51-.32,3-.64c1-.21,2.06-.25,3.08-.38a47.63,47.63,0,0,1,6.21-.25c1,0,2.06.15,3.09.23l1.55.14c.51.06,1,.17,1.53.26l3.05.56,3,.82,1.49.42,1.45.54,2.88,1.09a65.3,65.3,0,0,1,20,13.81,87.56,87.56,0,0,1,14.27,19.28,8.43,8.43,0,0,1,1,2.09,5.87,5.87,0,0,1-1.16-1.72l-1.76-3.14-1.94-3-1-1.52-1.06-1.47-2.13-2.92a83.45,83.45,0,0,0-9.94-10.57,67,67,0,0,0-12-8.37,55.38,55.38,0,0,0-13.84-5.08l.08,0c.77.2.89.34,0,.25a25,25,0,0,1-3.05-.55c-.89-.24-.79-.34,0-.27a49.29,49.29,0,0,0-13.83,0c-1.14.17-2.26.45-3.39.68l-1.69.36c-.56.13-1.1.34-1.65.5l-3.27,1.06c-1.06.43-2.1.89-3.15,1.34l-1.57.69-1.5.81-3,1.64-2.83,1.88c-.47.31-.95.62-1.4,1l-1.33,1c-.88.7-1.78,1.38-2.64,2.1l-2.48,2.27c-.41.38-.83.76-1.23,1.15l-1.15,1.21-2.29,2.44-2.12,2.58-1.05,1.29-1,1.35-1.94,2.7-1.76,2.81c-1.23,1.85-2.18,3.84-3.26,5.76-.5,1-.94,2-1.41,3s-.95,2-1.32,3l-1.21,3.07c-.39,1-.69,2.09-1,3.13-.73,2.07-1.19,4.23-1.74,6.35s-.83,4.27-1.19,6.41-.61,4.29-.77,6.44c.17-2,.54-4,.81-6s.77-4,1.15-5.92c.19-1,.5-2,.75-2.94s.49-2,.83-2.92c.67-1.91,1.23-3.86,2.05-5.71l1.15-2.81,1.3-2.73c.83-1.85,1.87-3.58,2.85-5.35.47-.89,1-1.73,1.58-2.58l1.64-2.55,1.79-2.45c.61-.8,1.17-1.64,1.85-2.4a68.6,68.6,0,0,1,18.21-16,50.9,50.9,0,0,1,23.3-7,43.91,43.91,0,0,1,5.38-.07l2.71.15,2.7.39c.49.08,1.05.2,1.53.31a5.71,5.71,0,0,1,1.06.4c.24.17-.47,0-1.47-.15l-3-.44,2.21.43a13,13,0,0,1,2,.52c1.25.4,2.36.79,3.26,1.13,1.77.84,2.75,1.47,2.61,1.7-.53.43-5.4-1.29-11.54-2a48.39,48.39,0,0,0-12.32.25l-3,.65-1.51.32-1.47.47-2.93,1c-1,.39-1.89.81-2.83,1.21-7.56,3.28-14.09,8.53-19.67,14.51-.62.64-1.17,1.34-1.72,2l-1.66,2.07c-1,1.46-2,3-3,4.45a71.17,71.17,0,0,1,12.78-14,55,55,0,0,1,16.2-9.47l4.48-1.38,4.59-.91c1.55-.13,3.09-.36,4.65-.4h3.49l1.16.11a47.17,47.17,0,0,1,17.75,5.1,16,16,0,0,1,2.4,1.39c.6.42,1,.72.93.81s-.43,0-1-.33c-.32-.14-.69-.32-1.09-.53l-.63-.34-.7-.31a46.16,46.16,0,0,0-15.37-4.42,42.59,42.59,0,0,0-15.77,1.41c-10.25,3-19.22,9.61-26.23,17.79A77.12,77.12,0,0,0,454.34,1136l-1,3.91-.75,4c-.29,1.33-.42,2.7-.61,4s-.38,2.71-.46,4.08a138.25,138.25,0,0,0-.49,16.56c1.17,14.61,4.07,29.19,6.22,44.63-.11-2-.28-3.91-.43-5.88-.54-6.24-1.17-12.28-1.76-18.17s-1.1-11.62-1.45-17.26-.41-11.15-.21-16.6a102.59,102.59,0,0,1,1.87-16,68.67,68.67,0,0,1,4.92-15,74.16,74.16,0,0,1,8.18-13.81,59.75,59.75,0,0,1,11.34-11.63,48.08,48.08,0,0,1,14.47-7.79,5.47,5.47,0,0,1,2.12-.49c.07,0-.07.11-.36.23a12.77,12.77,0,0,1-1.26.47,46.78,46.78,0,0,0-14,7.39,62.3,62.3,0,0,0-11.05,11.08A73.43,73.43,0,0,0,456.15,1138a93.64,93.64,0,0,0-2,13.14c-.28,4.44-.45,8.83-.29,13.25a245.81,245.81,0,0,0,2.36,26.35c-.89-9-1.64-17.75-1.74-26.32a109,109,0,0,1,2.18-25l.69-3,.88-2.91c.26-1,.63-1.94,1-2.9s.68-1.93,1.09-2.86c.84-1.87,1.61-3.78,2.61-5.58s2-3.61,3-5.38a67.41,67.41,0,0,1,7.48-9.83c1.34-1.59,2.9-2.91,4.37-4.36l2.38-2c.4-.32.79-.67,1.2-1l1.26-.87a15.52,15.52,0,0,1,3.25-1.92,2.36,2.36,0,0,1,.63-.51l1.3-.83.67-.42.7-.36,2.89-1.45a42,42,0,0,1,6.33-2.13,8.05,8.05,0,0,1,2.38-.38C501.26,1090.93,500.74,1091,499.82,1091.29Zm-197,83.89-.25-.1.7,0,1.38.84Zm-5.86,9.63h0l-.82-.36Zm79.72,114.41a26.32,26.32,0,0,1-.23-4.59c0-.81.1-1.72.13-2.58s.18-1.8.32-2.73a86.83,86.83,0,0,1,2.7-11.78c.61-2.08,1.24-4.11,1.95-6.16s1.46-4.11,2.29-6.35a158.18,158.18,0,0,0,5-15.13,153.13,153.13,0,0,1-4.19,15c-1.26,3.4-2.37,6.41-3.37,9.5-.52,1.53-1,3.09-1.45,4.66l-.68,2.37-.58,2.19a65.14,65.14,0,0,0-1.65,8.38A35.92,35.92,0,0,0,376.63,1299.22ZM293.8,1174.35a12,12,0,0,1,3.48.81,5.33,5.33,0,0,1,1.6-1.21,53.69,53.69,0,0,1,5.07-2c-.42-.33,0-.47.15-.63s.37-.26.56-.39c-1.87.51-3.73,1.09-5.68,1.64a23,23,0,0,0-2.6.94A21.83,21.83,0,0,1,293.8,1174.35Zm-9.23,9.43-.24,0-.23-.78Zm.45,1.28.26-.09C285.4,1185.23,285.27,1185.21,285,1185.06Zm2.39-.87a2.05,2.05,0,0,0-.52-.08Zm15.22,15.59c-.61-1.09-1.21-2.18-1.8-3.29q.81,1.62,1.65,3.21Z"/><path d="M435.89,1208.71l.64.12a1.74,1.74,0,0,1-1.13.67,14.64,14.64,0,0,0,8.34-2.19,27,27,0,0,0,3.43-2.51,22.26,22.26,0,0,0,2.79-2.9c1.58-.36,2.67-1.54,2.43-2.66s-1.76-1.75-3.44-1.4a5.48,5.48,0,0,1-1.19-.11,25,25,0,0,0-9.94-.84l2.3.27a11.31,11.31,0,0,0-3.08.49l.64.46c-3.82-.26-7.86,2.11-8.65,5.13s1.7,5.37,5.25,5.39C434.82,1208.66,435.35,1208.66,435.89,1208.71Z"/><path d="M444.26,1212.61l-5.8-.11-.51-.22,1,1.58,0-.11c.65-2,2.71-3.74,4.8-5l.69-.56a1.46,1.46,0,0,0,.31-1.17c-.18-.87-1.25-1.34-2.41-1l-1.32.35a13.08,13.08,0,0,0-5.49,1.8,5.16,5.16,0,0,0-2.72,4.31c0,.82.85,1.46,1.39,2.15a2.7,2.7,0,0,0,3.57.87c1.39-.66,2.15-2,1.64-3.14l.86-.11-.36.65c-.12-1.13,1.07-1.94,1.79-2.89.44-.31.9-.59,1.35-.88l-2.14-2.2c-.21.22-.42.44-.62.67l.31.2a33.51,33.51,0,0,1-3.48,3.87l-1.41,1.91a1.21,1.21,0,0,0,1.07,1.57l1.16.1-.57-.12,3.41-.73a34.08,34.08,0,0,1,3.39-.62.76.76,0,0,0,.74-.6A.55.55,0,0,0,444.26,1212.61Z"/><path d="M437.53,1216.26a1.8,1.8,0,0,0-1.27.21l-.07.29.87.11C437.69,1217,437.76,1216.59,437.53,1216.26Z"/><path d="M436.19,1216.76l-.36,0,.32.14,0,0Z"/><path d="M526.42,1211.58a134.21,134.21,0,0,1,15.31,11.25c.16.13.34.18.42.08s0-.26-.15-.38a132.82,132.82,0,0,0-15.32-11.33c-.19-.11-.38-.11-.45,0S526.25,1211.47,526.42,1211.58Z"/><path d="M554,1248.28c-.15,0-.22,0-.18.18a.49.49,0,0,0,.31.33c.12,0,.2,0,.17-.17A.54.54,0,0,0,554,1248.28Z"/><path d="M547.54,1252.72a8.66,8.66,0,0,0-1.85-1,.49.49,0,0,1-.24-.23c-.09.14-.3.15-.53,0-4.67-2.49-9.26-5.33-14.06-7.43a1.15,1.15,0,0,1-.44.23,2.15,2.15,0,0,1-1.89-.42l-.4-.38c-1.77-1.33-3.58-2.59-5.41-3.8a4.82,4.82,0,0,1-1.59-.31l-3-.34-2.95-.29a.7.7,0,0,1,0,.51,1,1,0,0,1-1.22.35c-.23-.08-.48-.14-.72-.2.65.29,1.26.67,1.89,1a.79.79,0,0,1,.23.16l2.26.82a177.42,177.42,0,0,1,20.46,7.75.44.44,0,0,1,.29.29.17.17,0,0,1-.23.15c-4.83-1.41-9.58-1.45-14.49-2.45a74,74,0,0,0-16.79-1.41c-.64-.11-1.28-.21-1.92-.29s-1.28-.08-1.91-.1a27.4,27.4,0,0,0-3.74.18,42.77,42.77,0,0,0-7.27,1.68c-1.77.55-3.44,1.15-5.05,1.75-2.22.87-4.31,1.69-6.33,2.7-1,.43-2,1-3,1.5s-1.94,1.06-2.88,1.69a2.69,2.69,0,0,1-1.46.7,2.8,2.8,0,0,1-1.59-.22,6.58,6.58,0,0,1-3-3,8.29,8.29,0,0,1-.8-5.87l-.6.27-1.08.16a4.41,4.41,0,0,1-3.15-1l-1.31-.94a26.83,26.83,0,0,0-3.51-2.67,27,27,0,0,1-3.62-2.73l-.36-1.12-.36-.17a6.19,6.19,0,0,1-2.83-2l-.64-1.26a12.89,12.89,0,0,1-1.12-4.55,4.65,4.65,0,0,1-.62-1.62,6.61,6.61,0,0,1-2.6-3.8.9.9,0,0,1-.54-1.26,1.08,1.08,0,0,1,.38-.44h0a6.58,6.58,0,0,0-.93-.51c-.4.07-.65.09-.65.09-1.05.24-1,.27-1.94.5a5.49,5.49,0,0,1-1.72-.4c-2.08-1.74-2.1-1.73-2.55-2.73,0-.12,0-.23,0-.35-.83,0-.89,0-1.12,0a2.75,2.75,0,0,1-.53-.2c-.35-.48-.35-.48-.57-.6a2.21,2.21,0,0,1-.27-.36c0-.75,0-.75-.07-.91a1.6,1.6,0,0,1,0-.38l.52-.63,1.71.81-.07-.55.57.48-.45-.48.67.08-.82-.19a6,6,0,0,0,1.65-.64,2.6,2.6,0,0,0,.86-.53,1.7,1.7,0,0,1-.21-.27c1.33-.36,1.33-.36,2.63-.68a3.94,3.94,0,0,1,.46.23.61.61,0,0,1,.47-.46l.66-.19.09-.14,0,0,.4-.48.08-.11h0l1.76-2.09a8.39,8.39,0,0,1,1.18-.17l-.43-.13c-.28-.1-.33-.66-.46-.66a27,27,0,0,0-4.78.55c-1.57.35-3.16.77-4.76,1.18a1.12,1.12,0,0,1-1.42-.07.84.84,0,0,1,.35-1.23,18.74,18.74,0,0,1,3.94-3.58,25.1,25.1,0,0,1,4.94-2.48,29.89,29.89,0,0,1,5.49-1.33,31.51,31.51,0,0,1,5.55-.22c1.83-.15,3.6-.4,5.42-.52l-.33-.2,1.47.12h.15l-1.28-.7-.79-.13a50.59,50.59,0,0,1-6.28.28c-2.08,0-4.25,0-6.39.2-2.31.22-4.53,0-6.82.14a.92.92,0,0,1-1.18-.42c-.11-.37.26-.81.79-1a32.77,32.77,0,0,1,5.17-2.06,31,31,0,0,1,5.55-1.25,26.43,26.43,0,0,1,5.53-.22,20.19,20.19,0,0,1,5.11,1,7.13,7.13,0,0,1,3.68.25h.06l-.95-.65a21.65,21.65,0,0,1,2.55.76l-.54-1c2.4,0,4.87-.11,7.28-.11,1.21,0,2.42.12,3.59.26.59.08,1.16.17,1.73.28s1.13.3,1.68.48a3.69,3.69,0,0,1,.5.1,17.06,17.06,0,0,1,3.69-1,10.9,10.9,0,0,1,2.09-.14l-2.1-.45h0a13.87,13.87,0,0,1,4.7-.27,19.82,19.82,0,0,1,6.59,2,11.66,11.66,0,0,1,4.58,3.78,104,104,0,0,1,23.41,7.37c.38.15.65.49.61.74s-.39.33-.77.18a154.58,154.58,0,0,0-16.74-4.87c4.63,1.86,9,4,13.42,6.13l1.73.73a8.55,8.55,0,0,1,1.6.93c5.49,2.89,10.3,6.12,15.5,9.43a143.32,143.32,0,0,1,12.23,8.82,68.9,68.9,0,0,1,14.45,15.35c.56.76.79,1.7.5,2.07s-1,.05-1.57-.69a114.93,114.93,0,0,0-15.65-15.54,211.25,211.25,0,0,0-18.44-13.43c-1.45-.9-2.85-1.84-4.3-2.68a.85.85,0,0,1-.08.24,1.21,1.21,0,0,1-.76.61c1.64.95,3.16,2.09,4.71,3.19a46.1,46.1,0,0,1,13.36,8.75,56.76,56.76,0,0,1,6.79,8.41,97.14,97.14,0,0,1,9.18,9.3.46.46,0,0,1,.17.4c0,.11-.15.09-.29,0-2.25-2-4.55-4.09-6.93-6.08a1.34,1.34,0,0,1-.32,1.34,1.51,1.51,0,0,1-1.48.09c.45.52.94,1,1.38,1.53.27.33.36.71.19.85s-.53,0-.79-.28c-.93-1-1.89-2-2.84-3.06s-2-2-3-3c-1.29-1.07-2.65-2-4-3.07s-2.71-2-4.09-2.9a2.53,2.53,0,0,1,0,1.56h0l1.21.92a65.55,65.55,0,0,1,20.89,19.48c.11.15.15.32.07.38s-.22,0-.32-.15c-.85-1.18-1.72-2.36-2.6-3.51s-1.87-2.24-2.82-3.34h0c0,.13,0,.23-.18.17a.61.61,0,0,1-.3-.33c0-.15,0-.22.17-.18a63.46,63.46,0,0,0-12.23-10.43,72.1,72.1,0,0,1,10.45,10.29c.44.31.89.63,1.35.94a.48.48,0,0,1,.16.39c0,.09-.18.07-.3,0l-.36-.27c.58.72.71,1.55.31,1.87s-1.23,0-1.86-.73l-2.66-2.68-2.71-2.61-.65-.5-.79-.36a96.65,96.65,0,0,1,7.52,8.85c.22.24.3.55.16.67s-.42,0-.64-.22a129,129,0,0,0-15.93-12.43c-1.18-.28-2.31-.59-3.5-.8l-3.53-.62c.22.16.44.32.67.47,1.48.94,3,1.72,4.5,2.51l4.55,2.26c1.52.75,3,1.6,4.46,2.47A35.1,35.1,0,0,1,548,1251c.14.11.19.27.13.35s-.21.06-.33-.07a35.47,35.47,0,0,0-4.16-2.91c-1.46-.84-2.92-1.65-4.42-2.46a45.45,45.45,0,0,0-7.43-3.34c4.44,2.6,9.1,4.89,13.28,8.18a.81.81,0,0,1,.37.49.21.21,0,0,1,.19,0,10,10,0,0,1,2,1.06.39.39,0,0,1,.21.35C547.82,1252.79,547.69,1252.79,547.54,1252.72Zm-88.81-38.61-.22-.13.65.13,1.19,1Zm-7.29,8h0l-.73-.5Zm60.72-12.93c-1.65-.54-3.28-1.14-4.91-1.77s-3.28-1.3-4.94-2c.85.1,1.69.26,2.52.42A71.39,71.39,0,0,1,512.16,1209.14Zm-61.8,2.56a12.16,12.16,0,0,1,3.17,1.42,5.26,5.26,0,0,1,1.74-.77,32.61,32.61,0,0,1,5.07-1c-.35-.38.06-.43.24-.54l.58-.26-2.77.2-2.81.28c-.86.09-1.75.21-2.62.35A23.27,23.27,0,0,1,450.36,1211.7Zm-10.72,6.79-.23-.09-.07-.79S439.46,1218,439.64,1218.49Zm.17,1.31.28,0C440.15,1220.05,440,1220,439.81,1219.8Zm2.52-.28a1.85,1.85,0,0,0-.49-.2Zm11.71,18-1.1-3.55,1,3.46Z"/><path d="M403.8,1364.36l0,.26c-.16,0-.3-.09-.43-.26.64,2.37,3.21,3.24,5.43,3.08a1.1,1.1,0,1,0,1.5-1.6,1.43,1.43,0,0,1-.17-.41,8.55,8.55,0,0,0-1.17-3.5l.21.83a2.74,2.74,0,0,0-.63-.88l-.1.35a2.54,2.54,0,0,0-4.84,1.51Z"/><path d="M403.36,1368.44c-.31-.74-.57-1.48-.83-2.22l0-.25-.53.76.05,0a4.55,4.55,0,0,1,2.85.55l.35.1a.74.74,0,0,0,.54-.21.81.81,0,0,0,.06-1.14l-.35-.37c-.65-1.18-2.17-2.39-3.68-1.57-.34.19-.52.64-.75,1a1.12,1.12,0,1,0,1.66,1.49l.17.29-.33,0c.47-.32,1-.07,1.49,0l.59.27.6-1.35-.38,0c0,.06,0,.16,0,.16a10.86,10.86,0,0,1-2.13-.33l-1-.12a.7.7,0,0,0-.54.76l.11.48a2.11,2.11,0,0,0,0-.25c.49.8,1.11,1.51,1.58,2.31a.28.28,0,0,0,.38.13A.29.29,0,0,0,403.36,1368.44Z"/><path d="M400.8,1366.7c-.05-.18-.08-.35-.26-.45l-.14,0c0,.1,0,.24.07.37S400.68,1366.86,400.8,1366.7Z"/><path d="M400.4,1366.28l0-.15c0,.06,0,.11,0,.15h0Z"/><path d="M425.51,1382.41a38.24,38.24,0,0,0,2.89,3.07s.1,0,.16-.06.07-.15,0-.17a42,42,0,0,1-2.87-3.08s-.1,0-.16.06S425.48,1382.38,425.51,1382.41Z"/><path d="M428.29,1395.76a.24.24,0,0,0-.14.18c0,.06,0,.1.1.06a.3.3,0,0,0,.13-.18C428.39,1395.75,428.34,1395.73,428.29,1395.76Z"/><path d="M423.78,1401.08a2,2,0,0,0-.74.08c-.05,0-.07,0-.07-.06a.39.39,0,0,1-.28.2,15.18,15.18,0,0,1-4.83-.83,1.79,1.79,0,0,1-.25.23c-.3.22-.58.24-.71.06l-.07-.17c-.38-.55-.78-1.07-1.15-1.64a.76.76,0,0,1-.54,0,12.47,12.47,0,0,1-2.05-.08,1,1,0,0,1-.17.31c-.2.24-.44.34-.56.24l-.19-.13c.13.19.26.39.38.6a.12.12,0,0,1,0,.09,5.13,5.13,0,0,0,.6.44,15.19,15.19,0,0,0,6.66,1.62c.05,0,.09,0,.07.1a.3.3,0,0,1-.15.16c-2,.44-4.09,1.37-5.85,1.28a30.2,30.2,0,0,1-6-.79c-1.46-1.14-3.27-1.59-5.09-2.31a17.91,17.91,0,0,1-1.77-.8,1.84,1.84,0,0,1-.25-.14l-.39-.25-.76-.49-1.5-1c-2-1.37-3.91-2.8-5.85-4.26a3.31,3.31,0,0,1-1.2-4.55,3.35,3.35,0,0,1,2.56-1.63l-.34-.29-.42-.6a2.88,2.88,0,0,1-.48-2l.08-.9c.37-1.55.28-3.17.78-4.7l.45-.38v-.21a2.83,2.83,0,0,1,.32-1.71l.45-.52a6.61,6.61,0,0,1,1.88-1.38,2.32,2.32,0,0,1,.61-.6,3.45,3.45,0,0,1,1.24-1.92.48.48,0,0,1,.46-.5.53.53,0,0,1,.26.06h0a3.35,3.35,0,0,0,.07-.5,2.6,2.6,0,0,1-.15-.25l-.53-.71a2.19,2.19,0,0,1-.07-.8c.46-1.21.46-1.21.83-1.6l.15-.07c-.13-.33-.14-.35-.17-.44a1.3,1.3,0,0,1,0-.26c.17-.23.17-.23.19-.34a1.41,1.41,0,0,1,.13-.18c.32-.15.32-.15.38-.22l.17-.07.34.07-.12.85.23-.14-.13.33.15-.28,0,.28,0-.37a2.4,2.4,0,0,0,.5.52.83.83,0,0,0,.36.22,1.11,1.11,0,0,1,.08-.15c.36.43.36.43.69.86a1,1,0,0,1,0,.24.22.22,0,0,1,.27.07l.19.21h.07l0,0,.27,0H403l1.19.12a2.63,2.63,0,0,1,.28.4l0-.2c0-.13.22-.3.2-.35a17.54,17.54,0,0,0-2.2-3.14.41.41,0,1,1,.42-.71,9,9,0,0,1,6.54,5c.45.53.91,1,1.39,1.56v-.17l.3.5,0,0v-.64c0-.1-.09-.2-.13-.29a27.6,27.6,0,0,1-2.71-4,24.66,24.66,0,0,1-1.15-2.3.36.36,0,0,1,0-.52.36.36,0,0,1,.51,0c2.28,1.33,4.44,3.41,5,6a2.18,2.18,0,0,1,.76,1.17v0l0-.51c.22.3.15.69.32,1l.26-.53c1.17,1.36,2.77,2.4,3.55,4l.12.15a9.15,9.15,0,0,1,2,.47l-.23-.41a1.42,1.42,0,0,1,1,.27,3.15,3.15,0,0,1,.38,3.38,49.57,49.57,0,0,0,4.53,2.64c.08,0,.07.18,0,.32s-.24.23-.33.2a16.84,16.84,0,0,1-3.68-1.38,15.17,15.17,0,0,0,2.13,2.45l.37.2a.58.58,0,0,1,.27.32,13.43,13.43,0,0,0,3.43,2.26,30,30,0,0,0,3.52,1.09,12.46,12.46,0,0,1,4.76,1.8c.21.1.18.47-.06.83s-.62.57-.83.48c-3.55-1.06-7.24-1.86-10-4.25l-.86-.77-.1.15a2.39,2.39,0,0,1-.47.44,9.46,9.46,0,0,1,.86,1,6.67,6.67,0,0,1,3.41,1.71,9.21,9.21,0,0,1,1.29,2.47c1,.43,2,.8,3,1.27.05,0,.06.06,0,.14s-.11.13-.16.12a13.18,13.18,0,0,1-2.56-.33,2.41,2.41,0,0,1-.47.91,2.12,2.12,0,0,1-.81.64l.39.34c.07.08,0,.25-.08.4s-.29.24-.37.17l-1.59-1.34c-.79-.34-1.57-.7-2.32-1.09a3.27,3.27,0,0,1-.39.9h0l.32.21a13.88,13.88,0,0,1,6.62,3.23s0,.1,0,.18-.13.11-.16.08a11.2,11.2,0,0,0-1.74-1.34h0a.31.31,0,0,1-.14.18c-.06,0-.1,0-.09-.07a.27.27,0,0,1,.13-.18,14.7,14.7,0,0,0-3.86-1.61,16.92,16.92,0,0,1,2.91,2.3l.53,0c.05,0,.05.08,0,.15a.24.24,0,0,1-.16.12h-.14c.16.18.07.59-.22,1s-.7.55-.88.39c-.57-.33-1.11-.69-1.64-1.07l-.22-.06-.31,0c.69.77,1.34,1.56,2,2.37.08,0,.05.2-.05.34s-.25.2-.32.15a27.51,27.51,0,0,1-5.11-2.13l-2.75.63.17.16c1.54,1.2,4.12.57,5.88,1.39.05,0,0,.1,0,.17s-.13.12-.17.09a16.7,16.7,0,0,0-3-.47,16.31,16.31,0,0,0-2.54-.27c1.25.73,2.9.86,4.27,1.42.07,0,.1.07.07.17a.26.26,0,0,1,.1-.07,2.47,2.47,0,0,1,.79-.08c.05,0,.07,0,0,.14A.23.23,0,0,1,423.78,1401.08Zm-18.27-26.78v-.12c0,.09.06.18.09.29l-.15.75S405.48,1374.77,405.51,1374.3Zm-5-.65h0c.05-.24.08-.42.08-.42C400.6,1373.4,400.57,1373.54,400.55,1373.65Zm21,8.76a4.67,4.67,0,0,1-1.41-1.86l.5.24A15.78,15.78,0,0,1,421.59,1382.41Zm-16.78-11.93a6,6,0,0,1,0,1.59,2.06,2.06,0,0,1,.68.41A20.08,20.08,0,0,1,407,1374c.07-.25.19-.12.27-.09l.25.11c-.49-.59-1-1.2-1.44-1.83A16.51,16.51,0,0,1,404.81,1370.48Zm-4.69-2.46v-.11l.33-.2Zm-.55.35.06.1C399.51,1368.55,399.52,1368.49,399.57,1368.37Zm.5,1a1.05,1.05,0,0,0,0-.24Zm-6,8.83,1.41-1.19-1.39,1.11Z"/><path d="M338.81,403.32l.09.52a.88.88,0,0,1-.86-.4,7,7,0,0,0,4.41,4.46,9.06,9.06,0,0,0,3.16.56,12.62,12.62,0,0,0,3.26-.43,2.05,2.05,0,0,0,2.91-.66,2.28,2.28,0,0,0-.44-3.07,2.74,2.74,0,0,1-.39-.76,15.43,15.43,0,0,0-1.08-3.47,20.33,20.33,0,0,0-1.62-3.19c.16.54.32,1.1.48,1.63a4.94,4.94,0,0,0-1.25-1.59c-.05.22-.11.5-.15.72a4.19,4.19,0,0,0-6.05-2.41,5.71,5.71,0,0,0-2.87,6.89Z"/><path d="M338.57,411.75c-.72-1.42-1.36-2.86-2-4.31v-.5l-.93,1.69.08-.09c1.86-.74,3.85-.25,5.61.33l.68.11a1.62,1.62,0,0,0,1-.58,1.76,1.76,0,0,0-.08-2.35l-.72-.66c-1.41-2.22-4.42-4.22-7.27-2.15a6.37,6.37,0,0,0-1.36,2.22,2.27,2.27,0,0,0,.38,3.17,2.17,2.17,0,0,0,3.07-.61l.38.55-.64.14c.86-.77,1.9-.41,2.88-.48l1.17.38.93-2.93h-.72c0,.13,0,.34-.06.35a18.37,18.37,0,0,1-4.13-.1l-2,.05a1.51,1.51,0,0,0-.95,1.69l.29.94-.08-.5c1.08,1.48,2.4,2.77,3.47,4.29a.52.52,0,0,0,.76.15A.61.61,0,0,0,338.57,411.75Z"/><path d="M333.27,408.89c-.12-.34-.21-.69-.57-.85l-.27.12c.05.19.12.45.18.72C332.75,409.4,333.07,409.26,333.27,408.89Z"/><path d="M332.43,408.16l-.08-.31c0,.11,0,.22,0,.32h.05Z"/><path d="M522,457c12.29.47,24.69.66,37.1,0,6.21-.16,12.4-.74,18.62-1.16,3.1-.25,6.19-.63,9.29-.93s6.21-.63,9.3-1.08c.82-.11,1.51-.3,1.53-.44s-.64-.13-1.41,0c-3.08.45-6.18.76-9.28,1.07s-6.19.67-9.28.92c-6.2.41-12.37,1-18.57,1.15-12.36.63-24.71.42-37,0a3.23,3.23,0,0,0-1.62.16C520.65,456.79,521.23,456.94,522,457Z"/><path d="M708,435c-.53.3-.47.39.14.22a10.72,10.72,0,0,0,2-.79c.44-.25.38-.36-.15-.22A11,11,0,0,0,708,435Z"/><path d="M705.91,444.57c-3.32,1.46-6.47,2.88-9.24,4.27a11.9,11.9,0,0,1-1.59.61c.25.08-.34.48-1.54,1-3,1.28-6,2.53-9,3.81l-4.59,1.9L675.24,458c-3.13,1.17-6.27,2.4-9.47,3.54l-9.66,3.31c-13,4.24-26.34,8.19-39.78,11.41a3,3,0,0,1-1.06.7,24.22,24.22,0,0,1-3.89,1.42c-1.65.43-3.57.84-5.54,1.17l-3,.44c-6,1.07-12,1.79-18,2.63-3,.46-6,.69-9,1s-6,.65-9,.9c-2.44.49-5.28.94-8.39,1.29-5.19.92-10.41,1.54-15.68,2.24l-4,.51c-1.32.16-2.65.26-4,.39l-8.05.73c.68.12,1.09.3,1.09.5-.2.48-2.71,1-5.64,1l-4.44.08c2.12,0,4.25.1,6.37.09l6.36-.06c.62,0,1.18,0,1.7,0,2.32-.1,4.66-.16,7-.32l7.09-.56a422.64,422.64,0,0,0,59.94-9.59A497.82,497.82,0,0,0,662,464.27a9.88,9.88,0,0,1,2.08-.59c.38,0,.36.12-.3.37-2.81,1.14-5.58,2.27-8.33,3.37s-5.49,2.13-8.2,3.2-5.44,2.14-8.18,3.14l-8.29,3-4.21,1.5-4.29,1.39-8.82,2.8c-3,.91-6.11,1.72-9.29,2.59s-6.45,1.74-9.85,2.46a471.49,471.49,0,0,1-49,8.81,445.56,445.56,0,0,1-50.84,3.62c-18.07-.47-35.5-1.58-53.06-3.53a428.61,428.61,0,0,1-53.67-9.19c-1.57-.33-3.11-.76-4.66-1.17l-4.63-1.23-4.62-1.24-2.3-.62-2.29-.7c-6.07-1.93-12.17-3.7-18.13-6l-2.24-.81L347.7,475l-.3-.1-1-.3-2-.62c-1.35-.4-2.67-.87-4-1.38-2.62-1-5.22-2-7.83-3.07l-3.9-1.61-3.87-1.81c-4.1-1.43-6.37-5.48-5-9a6.82,6.82,0,0,1,4.93-4.08l-.88-.49-1.21-1.11a5.84,5.84,0,0,1-1.87-4l-.17-1.91c.21-3.32-.54-6.66.08-9.95l.84-.88-.06-.44a5.68,5.68,0,0,1,.18-3.62l.83-1.18A14.43,14.43,0,0,1,326,426.2a4.76,4.76,0,0,1,1.12-1.39,7.1,7.1,0,0,1,2.09-4.25,1,1,0,0,1,.84-1.15,1,1,0,0,1,.54.07h0c0-.42,0-.54,0-1-.23-.29-.35-.48-.35-.48-.66-.7-.66-.7-1.21-1.32a4.68,4.68,0,0,1-.31-1.61c.72-2.59.73-2.59,1.42-3.47a1.81,1.81,0,0,1,.29-.19c-.31-.63-.33-.68-.41-.86a2.13,2.13,0,0,1,0-.51c.3-.53.3-.53.33-.76a2.18,2.18,0,0,1,.22-.4c.63-.39.63-.39.74-.54a2,2,0,0,1,.33-.18l.68.05-.12,1.76.44-.36-.21.71.25-.61.14.56-.1-.74c.71.72.71.72,1.06.91a1.46,1.46,0,0,0,.73.35,2.94,2.94,0,0,1,.15-.31c.77.77.77.77,1.5,1.56a4.13,4.13,0,0,1,0,.5.43.43,0,0,1,.54.07l.41.38h.14l0-.05.55,0h.11l2.33-.08a5.08,5.08,0,0,1,.61.74c0-.13-.05-.26-.07-.39s.37-.68.32-.77a33.78,33.78,0,0,0-4.78-5.81.82.82,0,0,1-.37-1.1.83.83,0,0,1,1.08-.45,13.51,13.51,0,0,1,7.62,2.31,20.2,20.2,0,0,1,5.89,5.66c1,.91,2,1.79,3.07,2.66l0-.34.7.89a.6.6,0,0,0,.08.08l-.21-1.3c-.11-.18-.21-.36-.33-.53-2.46-1.91-4.11-4.69-6.13-7a25.56,25.56,0,0,1-2.59-4.27.8.8,0,0,1-.06-1.06.64.64,0,0,1,.95-.14,26.49,26.49,0,0,1,6.36,4,15.82,15.82,0,0,1,4.41,6.37,4,4,0,0,1,1.82,2l0,0-.12-1c.51.5.52,1.3.94,1.85l.31-1.14c1.33,1.09,2.84,2,4.27,3a17.42,17.42,0,0,1,3.89,3.49,3.22,3.22,0,0,1,.28.24,20.17,20.17,0,0,1,2.32-.13l.57,0,.17,0,.58.23,1.18.46q2.36.93,4.84,2L371.46,420a2.75,2.75,0,0,1,.37.12l.46.17.93.34,1.85.69c1.23.47,2.45,1,3.68,1.45,2.51.93,5.05,1.89,7.64,3,14.06,6,30.11,12.85,37.53,17.61a413.58,413.58,0,0,0,44.91,9,404.19,404.19,0,0,0,45.83,3.82,7.27,7.27,0,0,1,3.28.56c.16.28-.89.5-2.48.47-11,.1-22.12-.55-33.23-1.45-2.78-.23-5.55-.59-8.32-.88s-5.56-.56-8.32-1l-8.3-1.22c-1.38-.22-2.76-.4-4.14-.63l-4.12-.76a359.8,359.8,0,0,0,56.26,8.35l3.69.19,3.72.08c2.45,0,4.88.21,7.3.41,3.09.16,6.16.12,9.21.14s6.1.08,9.13,0l9.1-.26c1.52-.05,3-.06,4.55-.15l4.54-.28,9.1-.59,9.15-.89,4.6-.47,4.62-.62,9.33-1.3a483.57,483.57,0,0,0,60.56-13.68c14.51-4.28,28.23-8.89,41.69-14.05s26.76-10.64,40.41-16.79c3.58-1.74,7.07-3,7.7-2.82s-1.79,1.8-5.39,3.57Q717.2,422.57,695.36,431c-14.56,5.61-29.37,10.63-44.51,14.83-30.24,8.42-61.68,14.28-94.32,15.92l-5.26.29-5.22.13c-3.48.06-6.93.22-10.37.2.1.1.18.19.18.28,0,.37-.63.71-1.72,1l2.94,0,2.95-.05,5.91-.1,5.94-.09,6-.24,8.24-.82,8.25-1c5.51-.6,11-1.53,16.57-2.29,2.79-.36,5.56-.89,8.36-1.33l8.44-1.36,8.52-1.54,4.31-.75c1.45-.25,2.88-.56,4.33-.84,4-.79,7.88-1.45,11.69-2.24l11.29-2.33c7.4-1.69,14.68-3.27,22-5.24a543.39,543.39,0,0,0,53.52-20.55,7.44,7.44,0,0,1,1.75-.62c.29,0,0,.23-.76.56-11.92,5.82-24.46,11.1-37.28,16,2.17-.36,3.51-.45,3.51.05s-1.43,1.48-3.78,2.57c3-.95,5.9-2.08,8.85-3.13,1.82-.65,3.31-1,3.34-.78s-1.33.95-3.06,1.58c-6,2.28-12.06,4.24-18.1,6.29-3,1-6.1,1.89-9.14,2.83l-4.57,1.41c-1.53.46-3.07.86-4.61,1.29-14.62,4.54-29.44,8.29-44.47,11.39a13.69,13.69,0,0,1,4.63.42h0l3.5-.71,3.47-.8A645.07,645.07,0,0,0,689.4,441.7a618.76,618.76,0,0,0,61.21-26.61,4,4,0,0,1,1.52-.57c.06.08-.51.45-1.22.8-12.07,6.1-24.35,11.68-36.7,17l0,0c.53-.14.66-.07.14.22a11.53,11.53,0,0,1-1.95.79c-.61.16-.6,0-.15-.21l-8.68,3.57c-2.9,1.15-5.83,2.24-8.73,3.37l-4.36,1.69c-1.46.55-2.93,1.05-4.39,1.58l-8.78,3.16-8.82,2.95-4.4,1.48-4.43,1.38L650.87,455,642,457.53a568.18,568.18,0,0,0,65.14-21l6.81-3.17a7.15,7.15,0,0,1,1.78-.57c.21,0-.22.29-.87.57l-1.9.88c4-1.54,7.22-2.58,7.38-2,0,.58-3.23,2.52-7.42,4.18l-8.34,3.49-8.42,3.26c-5.6,2.24-11.31,4.12-17,6.14-1.22.48-2.45.89-3.68,1.32L671.86,452a521.09,521.09,0,0,0,52.57-19.25,7.29,7.29,0,0,1,2.87-.92c.11.15-1,.83-2.47,1.48q-22.23,10.59-45.72,19.11c-15.64,5.6-31.65,10.47-47.91,14.54-2.62.86-5.24,1.78-7.89,2.6l-8,2.44c-5.33,1.72-10.77,3.1-16.24,4.66l4.24-.75a368.74,368.74,0,0,0,50.28-13.27c15.89-5.31,31.33-11.35,47.63-18a4.84,4.84,0,0,1,1.67-.48c.13.06-.39.37-1.23.69-15.88,6.59-30.49,12.53-46.78,17.91-1.68.59-3.36,1.13-5,1.64l-5,1.57c-3.32,1-6.6,2.09-9.89,3l-9.75,2.84-9.67,2.62c3.31-.75,6.59-1.49,9.86-2.27l9.69-2.58c1.6-.45,3.22-.85,4.81-1.33l4.76-1.44c3.17-1,6.35-1.88,9.48-2.91,6.27-2.11,12.54-4.12,18.74-6.44s12.4-4.63,18.63-7a23.81,23.81,0,0,1,2.93-1,1.68,1.68,0,0,1,.56-.38c3-1.47,6.33-3,9.73-4.47a9,9,0,0,1,1.87-.64C707,444,706.62,444.21,705.91,444.57ZM344.27,423c0-.1,0-.18,0-.25l.27.55-.06,1.57S344.37,423.89,344.27,423Zm-10.1.24h0c0-.52.05-.9.05-.9C334.2,422.67,334.18,423,334.17,423.2Zm132.61,32.86a269.08,269.08,0,0,1-39.09-9l9.47,2.07c2.42.72,4.87,1.3,7.32,1.9l7.38,1.82C456.79,454,461.78,455,466.78,456.06Zm-125-40.56a13,13,0,0,1,.44,3.19,4.19,4.19,0,0,1,1.47.6,40.46,40.46,0,0,1,3.45,2.55c.07-.52.34-.31.51-.27l.51.14c-1.13-1-2.24-2.09-3.35-3.2A28.71,28.71,0,0,1,341.81,415.5Zm-9.67-3.74a1.55,1.55,0,0,1,0-.22l.62-.5Zm-1,.85.12.2C331,413,331,412.89,331.1,412.61Zm1.16,1.84a1.65,1.65,0,0,0,0-.49Zm-10.17,19.63,2.63-2.8-2.62,2.64Z"/><path d="M501.08,412.5l.25.07a.52.52,0,0,1-.4.3c2.43.31,4.22-1.74,4.92-3.85a1.09,1.09,0,1,0-.91-2,1.62,1.62,0,0,1-.44,0,8.53,8.53,0,0,0-3.69-.26l.86.13a2.74,2.74,0,0,0-1.06.24l.28.23a2.54,2.54,0,1,0-.45,5.05Z"/><path d="M504.68,414.47c-.8,0-1.58,0-2.37-.09l-.22-.11.5.78,0-.06a4.56,4.56,0,0,1,1.6-2.43l.22-.28a.78.78,0,0,0,0-.58.8.8,0,0,0-1-.49l-.49.18c-1.33.15-3,1.1-2.85,2.8a2.82,2.82,0,0,0,.63,1.07,1.12,1.12,0,0,0,1.49.53,1.11,1.11,0,0,0,.52-1.49l.34-.05c0,.11-.07.21-.11.31-.11-.55.32-.93.54-1.39l.47-.44-1-1.07-.19.33.14.1a11,11,0,0,1-1.12,1.84l-.49.88a.69.69,0,0,0,.5.78l.48.08-.24-.07c.93-.15,1.82-.45,2.75-.58a.28.28,0,0,0-.05-.55Z"/><path d="M502.09,416.17a.61.61,0,0,0-.51.06.53.53,0,0,0,0,.14l.36.08C502.18,416.5,502.2,416.34,502.09,416.17Z"/><path d="M501.56,416.37l-.15,0,.13.08v-.05Z"/><path d="M531.77,396.06c2.24-.93,4.44-2,6.62-3a.13.13,0,0,0,.05-.2.14.14,0,0,0-.19-.07c-2.18,1.06-4.37,2.07-6.61,3a.17.17,0,0,0-.07.21A.16.16,0,0,0,531.77,396.06Z"/><path d="M551.82,394.78a.16.16,0,0,0,.12.19.12.12,0,0,0,.17-.1.2.2,0,0,0-.12-.19A.13.13,0,0,0,551.82,394.78Z"/><path d="M554.83,401.09a3.2,3.2,0,0,0-.56.92.14.14,0,0,1-.14.07.32.32,0,0,1,0,.37,35.73,35.73,0,0,1-5.39,5.73,1,1,0,0,1,.07.35.81.81,0,0,1-.54.86l-.28.06c-1.07.37-2.12.78-3.19,1.14a1.75,1.75,0,0,1-.53.65,27.82,27.82,0,0,1-1.93,2.48.69.69,0,0,1,.26.25.53.53,0,0,1-.19.71l-.34.22,1.13-.36a.22.22,0,0,1,.16,0c.37-.2.74-.42,1.1-.66a38.35,38.35,0,0,0,8.06-7.83.13.13,0,0,1,.19-.07c.06.05.11.14.07.21-1.16,2.45-1.82,5.17-3.51,7.3a68.33,68.33,0,0,1-6.33,7.1c-2.79,1.6-5,3.72-7.57,5.82-.95.78-1.91,1.51-2.87,2.21-2.91,2-5.86,3.81-8.9,5.61a3.32,3.32,0,0,1-5.19-3.61l-.4.2-.72.16a2.85,2.85,0,0,1-2-.33l-.81-.42c-1.29-.93-2.82-1.46-4-2.51l-.18-.56-.19-.08a2.84,2.84,0,0,1-1.47-.95l-.31-.62a7.15,7.15,0,0,1-.56-2.25,2.63,2.63,0,0,1-.32-.8,3.45,3.45,0,0,1-1.3-1.88.47.47,0,0,1-.28-.62.42.42,0,0,1,.16-.21h0a2.88,2.88,0,0,0-.43-.26l-.29,0-.86.22a2.26,2.26,0,0,1-.77-.23c-.94-.89-.94-.89-1.15-1.38a1.11,1.11,0,0,1,0-.17H502l-.23-.11c-.15-.25-.15-.25-.25-.31a1.59,1.59,0,0,1-.12-.18c0-.36,0-.36-.05-.44a.67.67,0,0,1,0-.19l.19-.28.74.44,0-.27.26.24-.21-.24.28.06-.35-.12a1.88,1.88,0,0,0,.67-.26,1,1,0,0,0,.34-.24.75.75,0,0,1-.1-.14l1.05-.31.21.12a.25.25,0,0,1,.17-.22l.27-.09,0-.07v0l.13-.25,0-.05h0l.56-1.05a2.83,2.83,0,0,1,.47-.1l-.18-.06c-.13,0-.19-.32-.25-.32a17.74,17.74,0,0,0-3.74.83.42.42,0,0,1-.58-.07.41.41,0,0,1,.08-.58,8.92,8.92,0,0,1,7.07-4.16c.67-.21,1.32-.45,2-.69l-.16-.07.57-.08.06,0-.6-.23H510a26.43,26.43,0,0,1-4.71,1,22.05,22.05,0,0,1-2.57.19.36.36,0,1,1-.28-.67c2.1-1.6,4.84-2.8,7.51-2.35a2.11,2.11,0,0,1,1.37-.25h0l-.46-.22c.36-.08.7.12,1.05.09l-.39-.44c1.71-.56,3.28-1.65,5.1-1.74l.19-.05a5.43,5.43,0,0,1,1.45-1.79l-.74.21h0a3.44,3.44,0,0,1,1.23-1.14,5,5,0,0,1,4.78.07c2.52-1.65,5.07-3.28,7.5-5.09a.3.3,0,0,1,.41.08.31.31,0,0,1,0,.42,44.8,44.8,0,0,1-5.1,4.26,42.94,42.94,0,0,0,5.14-2.2l.59-.42a1.69,1.69,0,0,1,.66-.28,39.52,39.52,0,0,0,6-3.81c1.63-1.36,3-2.6,4.57-4.09a33.9,33.9,0,0,1,6.61-5.51.72.72,0,0,1,1,.21.79.79,0,0,1-.09,1.08c-4.57,4.15-8.89,8.49-14.46,11.43l-1.79.94a.76.76,0,0,1,.11.14,1.39,1.39,0,0,1,.17.64c.68-.33,1.39-.62,2.11-.89a18.71,18.71,0,0,1,5.29-3.87,22.26,22.26,0,0,1,4.39-1.17c1.45-1.14,2.85-2.34,4.34-3.45,0-.07.13-.06.2,0a.17.17,0,0,1,0,.22,30.41,30.41,0,0,1-2.71,3,1.62,1.62,0,0,1,.77.72,1.53,1.53,0,0,1,.13,1.08l.79-.41a.37.37,0,0,1,.36.63l-3.19,1.72q-1.73,1.37-3.49,2.65a2.44,2.44,0,0,1,.84.62h0l.57-.36a40.06,40.06,0,0,1,10.13-7.53.16.16,0,0,1,.21.07.14.14,0,0,1,0,.21,33,33,0,0,0-3.31,1.91h0a.19.19,0,0,1,.12.19.14.14,0,0,1-.17.11.18.18,0,0,1-.12-.19,41.49,41.49,0,0,0-5.57,4.43,52.8,52.8,0,0,1,5.63-3.18l.44-.64a.16.16,0,0,1,.22.22l-.13.17a.85.85,0,0,1,1.07.42.82.82,0,0,1-.28,1.13c-.93.64-1.89,1.24-2.86,1.82l-.27.26-.21.38c1.62-.71,3.25-1.38,4.89-2a.29.29,0,0,1,.39.12.3.3,0,0,1-.08.41,81.12,81.12,0,0,1-7.35,5.87c-.54,1.14-1.07,2.28-1.61,3.43l.36-.18c2.94-1.68,4.42-4.91,7.06-6.91a.13.13,0,0,1,.2,0,.14.14,0,0,1,0,.21,38.1,38.1,0,0,0-3.31,3.61A32.63,32.63,0,0,0,548,407c2.08-1.42,3.72-3.39,5.67-5A.23.23,0,0,1,554,402a.22.22,0,0,1,0-.14,4.27,4.27,0,0,1,.59-1,.14.14,0,0,1,.21,0A.18.18,0,0,1,554.83,401.09Zm-43.91,13.63-.11-.05.3,0,.64.43Zm-2.5,4.33h0l-.37-.24Zm19.86-18.24a12.74,12.74,0,0,1-3.7,1.42l.77-.57C526.3,401.35,527.28,401.07,528.28,400.81ZM507.12,413.9a6.23,6.23,0,0,1,1.47.6,2.21,2.21,0,0,1,.65-.47,19,19,0,0,1,2-.83c-.2-.17,0-.22,0-.29l.2-.18c-.74.22-1.48.42-2.24.62A15.7,15.7,0,0,1,507.12,413.9Zm-4.07,3.39-.09,0-.06-.38S503,417.05,503.05,417.29Zm.12.64h.11C503.32,418.06,503.26,418,503.17,417.93Zm1.08-.09a1,1,0,0,0-.22-.1Zm5.88,8.89-.57-1.76.5,1.71Z"/><path d="M554.17,512l-.57-.26c.13-.22.5-.26,1-.2a9.63,9.63,0,0,0-7-.1,10.06,10.06,0,0,0-4.34,3.26c-1.14.18-1.75.93-1.33,1.67a3.23,3.23,0,0,0,2.86,1.14,4.54,4.54,0,0,1,.92.18c1.26.49,2.53.9,3.86,1.31l2,.58,2.11.54q-1-.4-1.89-.75a13.3,13.3,0,0,0,2.44.43l-.58-.49a10.51,10.51,0,0,0,4.36.72c1.27-.11,2.21-.6,2.5-1.52.58-1.85-1.68-4.81-4.85-6Z"/><path d="M546.59,507.37a41.68,41.68,0,0,1,5.12,1.06l.46.29-1-1.5,0,.1c-.5,1.5-2.18,2.38-3.83,3.08l-.54.33a.8.8,0,0,0-.13.84,2.29,2.29,0,0,0,2.15,1.12l1.08,0c2.89.38,7,.3,6.85-2.56,0-.66-.8-1.45-1.29-2.18a3.33,3.33,0,0,0-3.27-1.7c-1.27.19-1.87,1.16-1.36,2.16l-.76-.08c.09-.16.19-.3.28-.45.16.92-.81,1.32-1.36,1.93l-1.09.47,2,2,.46-.39-.28-.21a12.83,12.83,0,0,1,2.78-2.21l1.21-1.13c.2-.53-.25-1.23-1-1.57l-1.06-.37.52.24c-2.07-.21-4.08-.1-6-.13-.33,0-.59.15-.59.4A.61.61,0,0,0,546.59,507.37Z"/><path d="M552.43,505.62a1.89,1.89,0,0,0,1.16.15c0-.13,0-.2,0-.23l-.8-.31C552.27,505,552.21,505.28,552.43,505.62Z"/><path d="M553.64,505.54l.34.14-.29-.21,0,0Z"/><path d="M560.34,696.29c.19,4.31.14,8.61,0,12.92l-.45,12.93q-.47,12.95-1,25.91c-.64,17.28-1.41,34.58-2.21,51.89-.06,1.16,0,2.13.2,2.19s.34-.84.38-1.91q1.26-26,2.28-51.82l1-25.84.45-12.91c.18-4.3.25-8.6.07-12.91a5.47,5.47,0,0,0-.45-2.28C560.4,694.4,560.3,695.21,560.34,696.29Z"/><path d="M537,954.44c0-.82-.16-.79-.26.06a17.83,17.83,0,0,0-.08,2.85c0,.69.17.66.25-.06A20.08,20.08,0,0,0,537,954.44Z"/><path d="M528.71,946.93c-.27-4.84-.57-9.44-1-13.54a15.94,15.94,0,0,1,0-2.27c-.19.28-.39-.65-.51-2.4-1.25-17.21-2.36-35.07-3.31-53.18s-1.78-36.49-2.58-54.72a3.85,3.85,0,0,1-.65-1.55c-.71-2.53-1.15-7.6-1.07-12.85l.14-4c.25-16,.55-32,1.07-47.89-.32-3.26-.52-7-.57-11.15-.78-13.78-1.58-27.62-1.9-41.75-.24.88-.5,1.42-.76,1.4-.63-.28-1-3.56-.65-7.38.14-1.93.33-3.85.55-5.77q-1.22,8.28-1.61,16.56c0,.8-.07,1.53-.14,2.2-.1,6.06-.18,12.18-.18,18.41.05,54.33,3.38,105.41,7,156.09a13.83,13.83,0,0,1,0,2.87c-.11.49-.27.4-.37-.53-3.4-31.95-8.08-59.62-10.65-95.76-1.52-21.51-2.76-42.88-3.63-64.4q-.28-8.08-.56-16.18c-.1-2.7-.19-5.41-.14-8.12s.22-5.42.47-8.13.65-5.43,1.14-8.15,1.13-5.45,1.87-8.17a165.88,165.88,0,0,1,5.52-16.42c2.37-5.73,4.83-11.44,7-17.13.56-1.44,1.14-2.87,1.66-4.29l.78-2.14.82-2.33.79-2.32.42-1.2c.14-.45.28-.76.42-1.12.57-1.35,1-2.45,1.48-3.59a27.17,27.17,0,0,0,1.68-6.71,20.79,20.79,0,0,0-.32-6.81,19.75,19.75,0,0,0-2.54-6.4c-.61-1.07-1.39-2.12-2.28-3.52a21.28,21.28,0,0,1-2.68-5.39c-.14-.54-.3-1.1-.41-1.65s-.2-1.1-.27-1.65l-.12-1.59,0-1.58a18.54,18.54,0,0,1,.4-3.2c.09-.54.27-1,.41-1.56a12.35,12.35,0,0,1,.52-1.52,26.68,26.68,0,0,1,2.76-5.17c1-1.44,1.93-2.65,2.68-3.66l.49-.68a3.3,3.3,0,0,0,.19-.31l.07-.12h0s.06-.11.08-.16a.5.5,0,0,0,0-.36.46.46,0,0,0-.15-.31c0-.07-.07-.05-.15-.15a10,10,0,0,0-.89-.78c-.39-.29-.8-.59-1.29-.92l-.37-.26-.78-.51c-.58-.35-1.14-.74-1.7-1.1s-1.1-.75-1.62-1.14-1.11-.73-1.56-1.15l-1.36-1.23c-.43-.41-.8-.85-1.21-1.27a10.53,10.53,0,0,1-2.62-5.9c0-.56,0-1.14,0-1.7a10.58,10.58,0,0,1,.29-1.64c.13-.53.29-1,.46-1.52s.48-.93.71-1.38a13.54,13.54,0,0,1,5.05-4.67c2.27-1.36,5.31-2.1,7.9-2.92.79-.26,1-.3,1.37-.41l.53-.16.27-.07c.11,0,0,0,.06,0s.08,0,.12,0l.21-.11c.09,0,.27-.17.15-.3a.86.86,0,0,0-.34-.18l-.12,0,0,0s0,0,0,0l-.64-.13-1.31-.28-5.5-1.06c-1.89-.38-3.86-.78-5.9-1.31a51,51,0,0,1-6.5-2.09,28.15,28.15,0,0,1-7.52-4.4c-.68-.62-1.35-1.22-2-1.93a24.43,24.43,0,0,1-2-2.43,19.33,19.33,0,0,1-1.74-3c-.26-.55-.5-1.11-.73-1.68s-.39-1.17-.57-1.77-.34-1.22-.46-1.83-.2-1.21-.28-1.83-.15-1.26-.16-1.83,0-1.16,0-1.74,0-1.18.08-1.75l.12-1,.05-.51c.09-.68.18-1.36.3-2a50.2,50.2,0,0,1,4.18-12.12c.39-.81.8-1.65,1.21-2.44l1.17-2.25c.83-1.57,1.6-2.84,2.44-4.26q2.42-4.1,4.87-7.86c2.46-4.47,6-6.55,8-4.56,1.18,1.18,1.48,3.34,1,5.63.23-.28.46-.55.7-.8l1.27-1a4.55,4.55,0,0,1,3.62-1.13l1.47.26c2.35,1,5.21,1.14,7.55,2.81l.35,1.07.37.09a4.32,4.32,0,0,1,2.86,1.47l.61,1.19a12.45,12.45,0,0,1,1.06,4.35,4,4,0,0,1,.61,1.48,6,6,0,0,1,2.55,3.45.83.83,0,0,1,.54,1.15.87.87,0,0,1-.35.36h0a9.9,9.9,0,0,0,.89.49c.38,0,.61,0,.61,0,1-.14,1-.14,1.83-.24a5.67,5.67,0,0,1,1.63.61c2,1.89,2,1.92,2.39,2.88,0,.1,0,.2,0,.3.76.15.82.17,1,.23a3.8,3.8,0,0,1,.49.3c.32.5.32.5.53.67a2.79,2.79,0,0,1,.25.38c0,.64,0,.63.07.8a1.1,1.1,0,0,1,0,.31l-.46.38-1.59-1.11.07.48-.53-.53.42.5-.61-.22.75.35a4.42,4.42,0,0,0-1.5.15,1.68,1.68,0,0,0-.77.27,2.46,2.46,0,0,1,.2.26l-2.32.13a3.48,3.48,0,0,1-.43-.25.39.39,0,0,1-.39.31l-.58.08-.07.1,0,0-.31.35-.06.08h0l-1.35,1.47c-.35,0-.69.05-1,.06a2.78,2.78,0,0,1,.38.12c.25.09.35.52.46.53,2.78.23,5.39,0,8.23.15a1.35,1.35,0,0,1,1.29.45.51.51,0,0,1-.28.87A15.08,15.08,0,0,1,546.6,513a40.14,40.14,0,0,1-4.25.52c-1.41.1-2.85.16-4.27.19-1.33.22-2.61.49-3.9.82l.29.08c-.38,0-.71.09-1.06.13l-.1,0,1.07.24.6,0c2.92-.76,6.18-.6,9.56-.5a16.89,16.89,0,0,1,2.73.3l2.78.53a1.19,1.19,0,0,1,1,.55c.13.29-.12.52-.55.51a55.87,55.87,0,0,1-15.66.76,7.21,7.21,0,0,1-2.53.31h0l.79.22c-.65.1-1.19-.09-1.81,0l.65.43a19.8,19.8,0,0,0-2.12.64c-.65.22-1.39.48-1.91.7l-.89.34-.78.26a7.66,7.66,0,0,1-.8.23l-.72.12-.2.06c0,.1,0,.16,0,.23s-.1.14-.08.11h0l-.38-.1-.29-.07c-.22,0-.54-.09-.69-.13a3.43,3.43,0,0,0-.46-.11,6.87,6.87,0,0,0-1-.09,2.21,2.21,0,0,0-.52,0l-.22,0h0l.12,0,.21-.08c.08,0,.07,0,.26-.11a3.9,3.9,0,0,0,.79-.4l.52-.29-.08.07c-.08,0,0,.14-.06.23a.46.46,0,0,0,0,.32,2.62,2.62,0,0,0,.12.41c-.08-.21-.09-.39-.15-.56a3.24,3.24,0,0,1,.06-.39l.12-.1s-.58.31-.64.36a4.07,4.07,0,0,1-.55.29l-.3.11-.13.06-.3.1-.08,0h.1a2.29,2.29,0,0,1,.39,0,2.1,2.1,0,0,1,.36,0,4.57,4.57,0,0,1,.75,0,5,5,0,0,1,.69.14c.24.05.88.17.78.16l-.83-.17a4.53,4.53,0,0,0-.75-.15l-.4,0h-.32a1.82,1.82,0,0,0-.41,0l-.22,0h-.14l.08,0,.18-.05a3.12,3.12,0,0,0,.34-.14,5,5,0,0,0,.62-.28l.28-.17.45-.25.22-.14c.07-.05,0,0,0,0l-.07.05s0,.1,0,.16,0,.13,0,.21l.07.27a2.53,2.53,0,0,0,.27.64,13.11,13.11,0,0,0,2.8,3.11,43.75,43.75,0,0,0,4.38,3.24c2.2,1.44,4.64,2.88,7.2,4.3l.48.27.24.14.38.19a13,13,0,0,0,1.54,1c1,.66,2.11,1.12,3.14,1.68a27.41,27.41,0,0,1,4.89,3.89,7.91,7.91,0,0,1,.86,1.09c.27.36.5.75.75,1.13a8.57,8.57,0,0,1,.5,1.25l.22.66a5.51,5.51,0,0,1,.08.71c0,.47,0,1,0,1.44a6.58,6.58,0,0,1-.31,1.36,6.81,6.81,0,0,1-1.13,2.29,14.92,14.92,0,0,1-1.76,1.91c-.37.29-.73.58-1.13.85s-.82.54-1.29.79a43.65,43.65,0,0,1-6,2.63l-2.78,1-.89.32-.11.05h0l-.07,0-.15,0c-.36.1-.69.2-1,.32a3.51,3.51,0,0,0-1.85,1.15,1,1,0,0,0,0,1,2.37,2.37,0,0,0,.55.7c.43.4.89.74,1.3,1.09l1.4.81c.66.42,1.33.84,2,1.34a22.21,22.21,0,0,1,2.14,1.74,17,17,0,0,1,2.15,2.49,12.67,12.67,0,0,1,2.29,6.06,11.83,11.83,0,0,1-1,6.39,10.11,10.11,0,0,1-.76,1.46,11.45,11.45,0,0,1-.91,1.39l-.9,1.15-.76.87c-1,1.11-1.91,2-2.63,2.89a10.75,10.75,0,0,0-2.76,4.7c0,.42-.15.85-.17,1.27a6.75,6.75,0,0,0,0,1.2,6.51,6.51,0,0,0,.85,2.37c1,1.86,3,4.34,4.43,7a55.41,55.41,0,0,1,6.42,17.29,80.84,80.84,0,0,1,1.15,9.25l.18,2.16a17.57,17.57,0,0,0,.25,1.85c.23,1.25.46,2.49.72,3.71.54,2.67,1.18,5.34,1.83,8s1.4,5.39,2.14,8.08c1.47,5.39,3.06,10.81,4.4,16.19S559,680.6,559.81,686c.37,2.23.34,4.22.05,4.61-.32.22-.76-1.25-1.09-3.48q-.94-5.79-2.27-11.61c-.44-1.94-.92-3.89-1.42-5.83s-1-3.88-1.49-5.83c-1-3.89-2.11-7.8-3.09-11.69l-1.45-5.85c-.45-1.95-.87-3.86-1.28-5.8l-.58-2.91c-.16-.9-.33-1.8-.48-2.71l-.22-1.37a11.08,11.08,0,0,1-.16-1.32l-.22-3.12A65,65,0,0,0,544,615.86a53.12,53.12,0,0,0-5-12.19c-1.07-1.91-2.32-3.73-3.39-5.33a21.22,21.22,0,0,1-1.35-2.2,7.29,7.29,0,0,1-.66-1.81,9.4,9.4,0,0,0,1.47,3.27c.81,1.28,1.83,2.73,2.77,4.27a51.9,51.9,0,0,1,4.72,9.92,52.47,52.47,0,0,1,2.57,10.87c.25,1.85.39,3.72.5,5.56s.12,3.7.27,5.08c.21,1.57.4,3.06.64,4.66s.54,3.29.84,4.93c.56,3.27,1.26,6.63,1.93,10,1.36,6.65,2.82,13.36,4,20.08.65,3.44,1.23,6.89,1.71,10.34a85.52,85.52,0,0,1,.77,10.17c.59,8.59.17,17.05.06,25.48s-.33,16.81-.49,25.21c-.35,16.82-.64,33.72-.83,51.24-.37,29.93-.84,56.11-1.92,85.91-1.56,41.85-4.27,80-10.3,121.29a82.14,82.14,0,0,1-2.14,11.22c-.36.66,0-3.32.7-8.84s1.23-10.77,1.81-16.14,1.05-10.75,1.51-16.13c.91-10.74,1.73-21.47,2.39-32.2,1.34-21.48,2.27-43,3-64.58,1.43-43.22,2.08-86.94,3.3-132,.25-9.72.48-19.28.72-28.79a.61.61,0,0,1-.37.23c-.48,0-.92-.92-1.27-2.44-.3,10.79-.7,21.68-1.18,32.6.38,30.4.45,60.84-1.33,93.24-1.23,22.25-3.07,42.37-4.79,62.95-.87,26.08-2,52.08-3.91,78.42a16.05,16.05,0,0,1-.3,2.52c-.11.38-.14-.19-.08-1.25.9-18.12,1.54-36.68,2-55.42-.52,2.95-1.07,4.71-1.58,4.47s-.91-2.54-1.13-6l-.52,12.74c-.11,2.62-.39,4.69-.64,4.61s-.39-2.15-.3-4.65q.84-26,1.69-51.92c.15-20.77.3-41.46.46-62.27a18,18,0,0,1-1.89,6h0q-.06,4.83-.12,9.63.76,44.1,0,89.1T535,1018.11a14.1,14.1,0,0,1-.2,2.19,11.36,11.36,0,0,1,0-2q1.35-27.45,2.16-54.76v.08c-.08.73-.2.87-.24.06a22.72,22.72,0,0,1,.08-2.85c.1-.84.21-.76.25-.08,1-33.9,1.31-67.58,1-100.81q-.62,46.32-2,92.58c0,3.36.08,6.72.12,10.13a14.64,14.64,0,0,1-.19,2.52c-.09.26-.17-.42-.17-1.38s0-1.88,0-2.83c-.2,5.84-.69,10.34-1.17,10.24-.48-.33-.82-5.35-.75-11.42q.12-24.36.24-48.6L534,906l-.3-5.29c-.48,25.17-.91,50.29-1.13,75.25a14.66,14.66,0,0,1-.28,4,13.08,13.08,0,0,1-.32-3.84c-1-44-2.12-88.57-2.7-133.32-1.39-14.71-2.77-29.46-4.19-44.47,0,1.88,0,3.8,0,5.71.06,24.33,1.24,46.82,2.42,69.12s2.34,44.4,2.86,68a7.22,7.22,0,0,1-.14,2.31c-.1.13-.22-.68-.24-1.87-.65-23-2-44-3.11-66.79-.92-18.9-1.78-36.88-2.94-54.45.66,35.91,2.78,70.35,4,105.91a30.31,30.31,0,0,1,0,4.11,2.68,2.68,0,0,1,.18.87c.41,4.45.71,9.3,1,14.25a13,13,0,0,1,0,2.65C528.91,948.57,528.79,948,528.71,946.93ZM534,506.68l.21.05-.58,0-1.18-.48S533.2,506.45,534,506.68Zm5.41-7.13h0l.71.37ZM544,618.17a51.86,51.86,0,0,0-5.56-14.64c-1.26-2.26-2.8-4.39-3.9-6.17a7.26,7.26,0,0,1-1.38-4.66,8.63,8.63,0,0,1,1.57-4.55,48.18,48.18,0,0,1,4.1-4.73c.44-.5.84-.93,1.32-1.57a14,14,0,0,0,1.51-2.24,11.91,11.91,0,0,0,1.53-5.09,12.64,12.64,0,0,0-3.89-9.68,14.14,14.14,0,0,1,3,4.31,11.6,11.6,0,0,1,.78,2.51,9.24,9.24,0,0,1,.16,1.3,9.58,9.58,0,0,1,.06,1.31,12.26,12.26,0,0,1-1.32,5.05,16.08,16.08,0,0,1-1.41,2.26c-.59.78-.91,1.16-1.35,1.67-2.64,2.88-4.59,4.76-5.4,7a8.11,8.11,0,0,0-.43,1.73,5.51,5.51,0,0,0-.1.9,5,5,0,0,0,0,.87,7.43,7.43,0,0,0,1.25,3.46c.81,1.34,1.9,2.87,2.91,4.53a46.85,46.85,0,0,1,2.79,5.18A50.81,50.81,0,0,1,544,618.17Zm-2.61-110.44a18.72,18.72,0,0,1-2.91-1,5.69,5.69,0,0,1-1.34.71c-1.32.5-2.69.95-4,1.4.36.2,0,.31-.07.41l-.4.28a43,43,0,0,1,4.41-1.12A26,26,0,0,1,541.42,507.73Zm9-4.44a2.25,2.25,0,0,1,.21.12l.09.67Zm-.18-1.15-.25,0C550,501.87,550.06,501.93,550.26,502.14Zm-2.33-.18a2,2,0,0,0,.45.24Zm-11.51-16.34L537.5,489l-1-3.27Z"/><path d="M551.33,40.59l-.41.32a.83.83,0,0,1-.06-.93c-3.32,3.5-2,8.5,1.11,11.58a2,2,0,0,0,2,2.2,2.29,2.29,0,0,0,2.49-1.83,2.79,2.79,0,0,1,.48-.7,16.21,16.21,0,0,0,2.54-2.57,21.48,21.48,0,0,0,2-2.9l-1.21,1.18a4.92,4.92,0,0,0,.82-1.83l-.71.2a4.09,4.09,0,0,0-.74-6.37,5.74,5.74,0,0,0-7.42.74Z"/><path d="M543.8,44.37c.9-1.31,1.87-2.54,2.86-3.76l.44-.23h-1.93l.12,0c1.53,1.27,2.05,3.24,2.37,5l.23.65a1.52,1.52,0,0,0,1,.59,1.76,1.76,0,0,0,2-1.18l.24-.94c1.28-2.27,1.62-5.83-1.55-7.34a6.39,6.39,0,0,0-2.6-.14,2.26,2.26,0,0,0-2.61,1.82,2.15,2.15,0,0,0,2,2.4l-.31.59-.42-.5c1.09.39,1.26,1.47,1.79,2.28l.22,1.2,3-.57-.34-.62a2.91,2.91,0,0,1-.34.11,18.27,18.27,0,0,1-1.88-3.65l-1-1.68a1.52,1.52,0,0,0-1.93,0l-.69.7.4-.31c-.79,1.64-1.3,3.4-2.12,5.06a.51.51,0,0,0,.22.73A.62.62,0,0,0,543.8,44.37Z"/><path d="M543.8,38.39a1.2,1.2,0,0,0,.47-.9l-.22-.19-.55.51C543.11,38.17,543.38,38.39,543.8,38.39Z"/><path d="M544.05,37.3l.23-.2-.3.13s0,0,0,0Z"/><path d="M594.94,205.92c1.48,2.27,3,4.49,4.56,6.75l2.3,3.38c.78,1.11,1.63,2.19,2.44,3.29l4.93,6.57,5.21,6.37,2.62,3.19,2.75,3.08,5.52,6.15,5.78,5.94c1,1,1.91,2,2.91,3l3,2.86c.54.51,1.06.86,1.17.79s-.25-.53-.75-1l-3-2.86c-1-.95-1.93-2-2.9-2.95l-5.75-5.93c-1.86-2-3.67-4.1-5.51-6.14l-2.73-3.07-2.61-3.17-5.2-6.35-4.9-6.55L602.35,216l-2.29-3.37-4.55-6.73c-.39-.62-.8-1.07-1-1.07S594.59,205.33,594.94,205.92Z"/><path d="M714.68,321.47c-.52-.17-.55-.06-.07.25a9.31,9.31,0,0,0,1.71.81c.45.13.48,0,.07-.25A8.75,8.75,0,0,0,714.68,321.47Z"/><path d="M706.73,326.6c-3.06-1.22-5.89-2.52-8.53-3.48a8.87,8.87,0,0,1-1.38-.69c.09.24-.54.1-1.64-.37a304.77,304.77,0,0,1-32.42-16.42l-4-2.32-4-2.47c-2.65-1.67-5.33-3.3-8-5-5.19-3.53-10.48-7-15.51-10.76a2.48,2.48,0,0,1-1.12-.3,30.21,30.21,0,0,1-7.36-5l-2-1.87A324.45,324.45,0,0,1,597,254.73c-1.74-1.46-3.64-3.28-5.63-5.33-1.75-1.65-3.56-3.24-5.25-5l-5.1-5.17c-3.48-3.41-6.67-7.13-10-10.85.26.58.35,1,.18,1.11-.5.13-2.25-1.43-3.88-3.58l-2.42-3.26c1.11,1.59,2.15,3.24,3.34,4.79l3.48,4.68c.34.45.64.87.9,1.27.67.83,1.34,1.67,2,2.51s1.35,1.68,2.07,2.48l4.31,4.89A292.67,292.67,0,0,0,622,280.82a346.47,346.47,0,0,0,44.63,28.6,8.11,8.11,0,0,1,1.65,1.08c.24.25.12.33-.45,0l-7.32-3.62-3.62-1.78-3.54-1.85-7.08-3.7c-2.35-1.25-4.65-2.61-7-3.93a247.3,247.3,0,0,1-29.05-19.14l-8.93-7.1c-2.91-2.45-5.78-5-8.67-7.45l-2.17-1.88-2.09-2-4.19-3.92c-1.39-1.33-2.83-2.61-4.18-4l-4-4.12L571.83,242c-1.37-1.37-2.62-2.86-3.93-4.29L564,233.31c-1.31-1.45-2.62-2.91-3.84-4.45q-3.74-4.56-7.48-9.17-3.57-4.77-7.15-9.59A410.54,410.54,0,0,1,521,167.44a316.17,316.17,0,0,1-18.91-46.71c-.49-1.4-.87-2.82-1.28-4.24s-.79-2.85-1.19-4.27-.79-2.84-1.19-4.25-.8-2.84-1.1-4.28q-1-4.31-1.94-8.59c-.31-1.43-.63-2.87-.94-4.3l-.75-4.33-.37-2.16-.19-1.09-.06-.3-.24-1-.46-2.11c-.28-1.4-.63-2.8-.81-4.21-.43-2.83-.81-5.65-1.16-8.49l-.51-4.28c-.16-1.43-.21-2.87-.32-4.32-.73-4.35,1.71-8.35,5.42-8.85A6.8,6.8,0,0,1,500.94,52c0-.34,0-.68,0-1l.39-1.61a5.65,5.65,0,0,1,2.6-3.59l1.59-1.08c3-1.41,5.59-3.67,8.77-4.7l1.18.32.35-.26a5.6,5.6,0,0,1,3.27-1.57l1.43.16a14.27,14.27,0,0,1,4.59,1.57,5,5,0,0,1,1.76.32,7.08,7.08,0,0,1,4.73-.18,1,1,0,0,1,1.4.19,1,1,0,0,1,.2.5h0a10.18,10.18,0,0,0,.93-.47,4.84,4.84,0,0,1,.25-.53c.3-.91.3-.91.59-1.69a4.45,4.45,0,0,1,1.27-1c2.62-.6,2.62-.59,3.72-.41a3.07,3.07,0,0,1,.31.17c.41-.57.44-.61.56-.76a2,2,0,0,1,.45-.25c.6,0,.6,0,.82-.07a2.84,2.84,0,0,1,.45,0c.65.37.65.37.84.39a1.92,1.92,0,0,1,.31.21c.18.39.25.55.27.62l-1.6.72.52.21-.72.15.66-.07-.42.4.6-.45a3.45,3.45,0,0,0-.3,1.37,1.41,1.41,0,0,0,0,.8l.35,0c-.32,1-.32,1-.67,2a4.64,4.64,0,0,1-.44.23.44.44,0,0,1,.2.51l-.15.53.08.12h0c.11.19.19.31.27.46l.07.1h0l1.18,2a5.78,5.78,0,0,1-.36.88,3.61,3.61,0,0,1,.3-.25c.22-.16.77,0,.83-.09A34,34,0,0,0,547.31,40a.81.81,0,0,1,.79-.84.82.82,0,0,1,.91.73,13.3,13.3,0,0,1,1.58,7.73,19.58,19.58,0,0,1-2.16,7.78c-.32,1.3-.6,2.61-.87,3.92l.29-.19c-.15.34-.31.68-.45,1,0,0,0,.07,0,.11.32-.27.67-.54,1-.81.1-.18.21-.35.31-.54.49-3,2.15-5.78,3.24-8.65a11.81,11.81,0,0,1,1.14-2.17c.47-.7.95-1.38,1.38-2.09a.79.79,0,0,1,.9-.55.64.64,0,0,1,.58.76,26.09,26.09,0,0,1-.5,7.39A16.22,16.22,0,0,1,552,60.42a4,4,0,0,1-.87,2.51v0l.83-.59c-.19.68-.88,1.07-1.16,1.7l1.15-.29c-.32,1.67-.38,3.39-.55,5.1a22,22,0,0,1-.4,2.54,11.46,11.46,0,0,1-.73,2.47,2.2,2.2,0,0,1-.07.37,17.82,17.82,0,0,1,1.23,1.92c.09.16.17.33.25.5a.77.77,0,0,1,.06.15l.08.54c.05.37.11.74.16,1.11.21,1.49.39,3,.53,4.62,0-2.15-.07-4.25-.1-6.4,0,0,0,.22.07.34l.07.43.15.86.28,1.71c.19,1.15.32,2.31.52,3.47.42,2.32.78,4.69,1,7.16,1.57,13.38,3.33,28.66,2.88,36.53A284.07,284.07,0,0,0,571.77,165a270.07,270.07,0,0,0,20,35.25,5.91,5.91,0,0,1,1.23,2.68c-.14.27-.86-.35-1.65-1.51a249.22,249.22,0,0,1-15.7-24.81c-1.19-2.16-2.28-4.37-3.42-6.56l-1.7-3.29-.84-1.64-.78-1.69c-2-4.5-4.23-8.93-6-13.55a243.8,243.8,0,0,0,21.23,45.61c.58.92,1.15,1.85,1.73,2.78s1.24,1.81,1.85,2.72c1.23,1.79,2.35,3.63,3.44,5.49,1.44,2.33,3.11,4.47,4.67,6.69l2.36,3.29c.78,1.1,1.56,2.2,2.41,3.24,3.35,4.23,6.58,8.52,10.17,12.53a252.36,252.36,0,0,0,22.93,23.54l5.35,4.67,2.63,2.3,2.68,2.17c3.57,2.88,7,5.76,10.7,8.4,1.81,1.34,3.61,2.69,5.43,4s3.72,2.58,5.6,3.89,3.77,2.64,5.73,3.91,4,2.52,6,3.82c1.43.89,2.82,1.83,4.26,2.67l4.29,2.54c2.85,1.68,5.64,3.39,8.53,4.91s5.67,3.17,8.53,4.67l8.6,4.42c11.53,5.72,23.23,11,35.63,16.13,3.33,1.25,6.3,2.76,6.54,3.34s-2.3,0-5.67-1.21c-26.27-9.79-51.48-21.89-75-37.24a322.66,322.66,0,0,1-33.9-25.3,275.17,275.17,0,0,1-30.33-30.54l-3-3.57c-1-1.18-1.92-2.43-2.88-3.64-1.89-2.44-3.82-4.83-5.65-7.28a.49.49,0,0,1-.12.3c-.29.23-.9,0-1.7-.65,1,1.44,2.05,2.82,3.13,4.2l3.2,4.18c1.08,1.39,2.09,2.84,3.24,4.18l3.37,4.09c6.66,7.25,13.84,14,21.14,20.85,1.85,1.69,3.76,3.32,5.64,5s3.74,3.42,5.73,5c3.93,3.27,7.8,6.72,11.94,10,11.21,9.14,21.63,17.23,32.89,24.7a394.8,394.8,0,0,0,46,22.82,6.59,6.59,0,0,1,1.47.78c.19.18-.19.13-.84-.13-11.12-4.23-22.29-9.16-33.33-14.65,1.57,1.2,2.41,2.1,2.06,2.43s-1.9,0-4.07-.81c2.46,1.36,5,2.63,7.45,4,1.53.81,2.67,1.61,2.52,1.79s-1.45-.27-2.92-1c-10.26-5.19-20.12-11.09-29.8-17.21A338,338,0,0,1,641,275.09a11.21,11.21,0,0,1,2.28,3.55h0c1.67,1.35,3.41,2.58,5.1,3.87a425.18,425.18,0,0,0,50.59,30.63A462.94,462.94,0,0,0,754,337c.74.27,1.33.56,1.31.66s-.61,0-1.28-.29c-11.47-4.07-22.71-8.65-33.78-13.51l0,0c.42.25.46.39-.06.25a9,9,0,0,1-1.72-.81c-.48-.3-.38-.39.06-.25a434.87,434.87,0,0,1-58.69-32.18c8.4,5.92,17.17,11.28,26,16.55l6.72,3.76c2.24,1.25,4.46,2.55,6.76,3.7,4.56,2.35,9.08,4.81,13.73,7l6.26,2.54a7.49,7.49,0,0,1,1.48.8c.12.15-.34.06-.93-.17l-1.75-.71c3.51,1.68,6.13,3.19,5.85,3.67-.2.21-1.12.08-2.45-.31a30.29,30.29,0,0,1-4.91-1.91c-4.94-2.25-9.91-4.46-14.73-7-2.41-1.23-4.87-2.39-7.25-3.69l-7.14-3.9c-1-.54-2.09-1.06-3.12-1.62L681.24,308a384.5,384.5,0,0,0,44.83,23.23c1.33.55,2.4,1.17,2.36,1.35s-1.18-.12-2.51-.68a360.19,360.19,0,0,1-79.21-42.37l-6.47-3.86c-2.15-1.31-4.24-2.71-6.38-4.07s-4.3-2.72-6.4-4.17l-6.33-4.41,3,2.57a265.08,265.08,0,0,0,38.78,26.81c3.32,1.85,6.57,3.78,9.92,5.55l10.09,5.3,10.33,5.12,10.64,5a3.89,3.89,0,0,1,1.33.83c0,.13-.49,0-1.22-.38-14.14-6.45-27-12.68-40.44-20.47-1.39-.81-2.79-1.59-4.16-2.4l-4-2.5c-2.66-1.68-5.37-3.25-8-5l-7.7-5.07-1.91-1.25L635.89,286c-1.24-.86-2.49-1.72-3.72-2.59l3.65,2.81,1.83,1.38,1.87,1.32,7.48,5.19c2.48,1.73,5.08,3.28,7.6,4.9s5.06,3.24,7.67,4.71l7.76,4.52c2.61,1.45,5.26,2.84,7.89,4.28l3.94,2.14,4,2L694,320.7A14.76,14.76,0,0,1,696.4,322a1.35,1.35,0,0,1,.6.14c2.84,1.08,5.86,2.39,9,3.7a6.21,6.21,0,0,1,1.59.83C707.81,326.92,707.41,326.84,706.73,326.6ZM536.7,54.68l.2-.14-.35.49-1.4.71ZM531.65,46h0l.81-.39ZM567.73,165.4a195.42,195.42,0,0,1-11.58-33.59L559,139.9c.31,1.07.59,2.15.92,3.22l1,3.18c.7,2.13,1.39,4.26,2.09,6.39s1.53,4.23,2.29,6.35S567,163.28,567.73,165.4ZM542.05,49a12.72,12.72,0,0,1-2.59,1.9,3.92,3.92,0,0,1,.18,1.56,34.72,34.72,0,0,1-.59,4.23c.5-.19.44.14.49.31l.12.51q.54-2.2,1.2-4.44A28.91,28.91,0,0,1,542.05,49Zm-1.31-10.23.19-.11.73.31Zm-1.25-.5-.11.2C539.1,38.36,539.21,38.3,539.49,38.25Zm-1.06,1.88a2.17,2.17,0,0,0,.42-.25Zm-22.1.42,3.72,1-3.57-1Z"/><path d="M560.08,237.48l-.49-.26a1,1,0,0,1,.93-.4c-4.84-1.77-9.22,1.55-11.38,5.35a2.08,2.08,0,0,0-1.6,2.58,2.38,2.38,0,0,0,2.75,1.66,3.49,3.49,0,0,1,.9.2,19.88,19.88,0,0,0,7.38,2.2l-1.69-.64a5.93,5.93,0,0,0,2.22,0l-.48-.57a4.88,4.88,0,0,0,6.4-3.13,5.49,5.49,0,0,0-3.68-6.56Z"/><path d="M553.46,232c1.62.33,3.2.75,4.8,1.2l.4.32-.73-1.78v.13c-.67,1.88-2.44,3.11-4.12,4.11l-.56.46a1.48,1.48,0,0,0-.24,1.14A1.74,1.74,0,0,0,555,239l1-.14c2.76.28,6.56-.74,6.81-4.23a6,6,0,0,0-.89-2.45,2.41,2.41,0,0,0-2.84-1.71,2.17,2.17,0,0,0-1.6,2.74l-.71-.06.33-.58c0,1.15-1,1.71-1.59,2.52l-1.12.67,1.69,2.56.5-.56c-.09-.11-.24-.25-.24-.27a19.39,19.39,0,0,1,2.95-3.12l1.31-1.53a1.44,1.44,0,0,0-.73-1.79l-1-.38.46.26c-1.93-.11-3.87.07-5.79,0a.57.57,0,0,0-.64.5A.59.59,0,0,0,553.46,232Z"/><path d="M559.36,229.71a1.34,1.34,0,0,0,1.07.1l.09-.28-.71-.31C559.3,229,559.19,229.32,559.36,229.71Z"/><path d="M560.52,229.53l.3.13-.25-.21,0,0Z"/><path d="M440.32,281.55c-12.67,5.51-25.18,11.54-37.5,18-.41.21-.71.47-.67.59s.41,0,.79-.18q18.49-9.59,37.45-17.85c.42-.2.72-.45.72-.59S440.71,281.38,440.32,281.55Z"/><path d="M344.16,323.66c.24-.25.17-.32-.16-.18a3.32,3.32,0,0,0-.95.66c-.19.2-.12.3.16.18A3.27,3.27,0,0,0,344.16,323.66Z"/><path d="M342.27,315.69c1.52-1.29,3-2.52,4.17-3.72a3.61,3.61,0,0,1,.76-.53c-.18-.07,0-.41.58-.88,10.69-9.35,22.88-18.49,35-27.42a1.55,1.55,0,0,1,.3-.72,13.47,13.47,0,0,1,4.09-3.45l1.44-.79c5.67-3.35,11.35-6.68,17.1-9.83a33.89,33.89,0,0,1,3.7-2.78c4.54-3.5,9.12-7,13.92-10.39-.39.06-.66,0-.75-.16-.13-.47.87-1.47,2.24-2.26l2-1.24-6.07,3.18a5.57,5.57,0,0,1-.82.4c-2.17,1.26-4.33,2.59-6.5,4-19,12.09-35.73,25.19-51.92,38.45a3.09,3.09,0,0,1-1,.65c-.21,0-.25-.08,0-.34,9.73-9.08,17.74-17.79,29.5-27.31,14-11.28,28.22-22.11,43.5-32.66,8.28-5,16.21-9.84,24.2-14.79s16.05-9.94,24.64-15c5.81-3.38,11.58-6.65,17.38-9.75l1.09-.59.54-.29.23-.13.86-.51,1.72-1,3.45-1.92c4.61-2.52,9.29-4.84,14.07-7.13,3.43-2.15,7.67-1.2,9.41,2a6.93,6.93,0,0,1,0,6.3l.89-.34,1.55-.18a5.64,5.64,0,0,1,4.06,1.14l1.51,1.07c2.32,2.25,5.26,3.76,7.39,6.32l.15,1.2.37.23a5.75,5.75,0,0,1,2.66,2.43l.4,1.38a14.24,14.24,0,0,1,.3,4.81,4.84,4.84,0,0,1,.36,1.74,7,7,0,0,1,2,4.29,1,1,0,0,1,.35,1.37,1.09,1.09,0,0,1-.4.37h0c.32.29.41.37.8.68l.6,0c1-.06,1-.06,1.84-.09a5.08,5.08,0,0,1,1.49.78c1.59,2.19,1.59,2.2,1.85,3.28,0,.12,0,.23,0,.34.71.16.76.18,1,.24a2.79,2.79,0,0,1,.43.31c.22.56.22.56.39.73a3.22,3.22,0,0,1,.18.42c-.11.73-.11.73-.06.91a1.78,1.78,0,0,1-.08.37l-.5.49-1.34-1.21v.56l-.43-.6.32.58-.55-.25.67.39a3.86,3.86,0,0,0-1.46.24,1.45,1.45,0,0,0-.77.34,2.72,2.72,0,0,1,.15.31c-1.14.1-1.14.1-2.27.16a3.05,3.05,0,0,1-.38-.32.48.48,0,0,1-.43.38l-.57.07-.09.12,0,.05-.36.43-.07.1h0l-1.53,1.86a5.56,5.56,0,0,1-1,0l.36.19c.24.14.27.71.38.73a39.64,39.64,0,0,0,7.93,0,.89.89,0,0,1,1.15.41.81.81,0,0,1-.38,1.11c-3.89,4.36-10,5.76-15.87,5.16-1.42.16-2.83.36-4.24.58l.28.2-1.18-.05-.12,0,1.14.67c.22,0,.43.07.65.09,3.23-.63,6.58,0,9.91,0a41.19,41.19,0,0,1,5.28.76.8.8,0,0,1,.9.61.69.69,0,0,1-.57.83c-4.82,2.14-10.79,3.25-16.05,1.38a4.77,4.77,0,0,1-2.87,0h0l.87.58c-.76,0-1.38-.47-2.11-.53l.64,1c-3.65.46-7.19,2-10.91,1.58a2.85,2.85,0,0,1-.4,0,22.06,22.06,0,0,1-1.67,1.68c-.15.13-.3.26-.46.38l-.13.09-.32.16-.66.31c-.89.41-1.82.8-2.8,1.17l4.08-1.05a56.65,56.65,0,0,1-8.48,3.73c-8.35,2.85-18.24,4.85-23.68,4.24-15.85,6.65-31.56,13.75-46.87,21.53a2.68,2.68,0,0,1-1.86.42c-.2-.18.21-.66,1-1.07,10.73-6.07,21.93-11.67,33.28-17-9.86,3.65-19.7,7.58-29.48,12.11l-3.68,1.88a40.16,40.16,0,0,1-3.75,1.64c-12.39,6-24.09,11.89-36.15,19.11-10.3,6.17-19.19,11.78-29.15,18.38-14,9.31-26.53,18-40.43,27.14-1.81,1.26-3.71,2.15-4.18,1.95s.63-1.4,2.44-2.69c14-10.19,28.1-20.08,42.66-29.57q10.94-7.11,22.31-13.86c7.63-4.46,15.43-8.82,23.5-12.94,3.49-1.77,6.93-3.49,10.36-5.18a.65.65,0,0,1-.21-.19c-.17-.31,0-.76.42-1.27l-11.87,5.68C409,291,398.57,297.47,387.11,303.74c-7.89,4.28-15.16,8-22.53,11.91-8.74,5.86-17.33,11.89-26,18a2.46,2.46,0,0,1-.9.49c-.18,0,0-.18.3-.45,5.75-4.53,11.72-9.07,17.86-13.51-1.17.4-2,.46-2.16.05s.38-1.26,1.4-2.28l-4.33,2.83c-.89.57-1.69.89-1.78.7s.49-.82,1.33-1.38c5.86-3.88,11.74-7.71,17.68-11.43,7-4.74,14-9.36,21.09-13.87a5.45,5.45,0,0,1-2.74.2h0c-1.11.68-2.21,1.38-3.31,2.07-19.57,13.72-39.55,27.67-59.59,41.94-.39.29-.76.46-.82.39s.2-.34.55-.59L341.25,326h0c-.28.12-.39.07-.16-.18a3.51,3.51,0,0,1,.95-.66c.32-.14.35,0,.16.17l33.47-23.54c-10.55,6.77-21,13.71-31.41,20.66l-3.18,2.64a2.49,2.49,0,0,1-.91.49c-.13,0,0-.25.34-.49l.89-.73c-2,1.32-3.69,2.05-3.95,1.62s1.24-2,3.26-3.41c5.35-3.89,10.73-7.69,16.19-11.39l1.72-1.27,1.63-1.43q-13,8.26-25.58,16.92c-.7.52-1.39.84-1.51.71s.37-.67,1.08-1.19c14.09-11.14,28.76-21.95,43.92-32.2l6.86-6.1c2.3-2,4.62-4.09,7-6.15l-2,1.23a271.86,271.86,0,0,0-23,16.68c-7.19,5.7-14.22,11.41-21.93,17.17a1.58,1.58,0,0,1-.85.43c-.1,0,.11-.31.51-.6,7.47-5.7,14.07-11.27,21.46-17,6.15-4.75,12-9.25,17.7-13.77-12.22,8.27-23.31,17.13-34.91,25.94a5.75,5.75,0,0,1-1.42.89c0,.07-.08.18-.22.32-1.33,1.28-2.85,2.57-4.39,3.89a2.52,2.52,0,0,1-.94.56C341.82,316.2,342,316,342.27,315.69Zm198.56-86.57.2.14-.6-.16-1.15-1Zm6.65-7.73h0l.66.61Zm-80.83,43.89a177.5,177.5,0,0,1,21.1-7.89l-4.95,2.26Zm81.64-33.17a13.28,13.28,0,0,1-2.79-1.74,4.35,4.35,0,0,1-1.49.7c-1.45.39-2.9.68-4.35.92.35.39,0,.45-.14.56l-.47.29c1.57-.19,3.16-.33,4.79-.44A33.25,33.25,0,0,1,548.29,232.11Zm9.52-5.08.18.13,0,.8Zm0-1.34-.24,0C557.55,225.38,557.65,225.45,557.81,225.69Zm-2.23-.27a2.13,2.13,0,0,0,.4.3Zm-8.76-20.2.5,3.78-.38-3.67Z"/></svg>