<svg id="Layer_1" data-name="Layer 1" xmlns="http://www.w3.org/2000/svg" viewBox="0 0 1080 1573.22"><path d="M472.88,1149.07l.59,0c-.08.35-.41.6-.86.8a10.52,10.52,0,0,0,6.84-3.4,16.15,16.15,0,0,0,3.92-6.42,2.46,2.46,0,0,0,1.21-3.17,2.39,2.39,0,0,0-3.33-.65,4.31,4.31,0,0,1-1,.14,22,22,0,0,0-8.7.8l2-.07a7,7,0,0,0-2.48.94l.66.34c-3.27.38-6.11,3.17-6.16,6.13s2.63,5,5.84,4.65Z"/><path d="M481.26,1151.64c-1.73.32-3.47.56-5.24.79l-.51-.14,1.28,1.41-.05-.12c.13-2.08,1.61-4,3.09-5.68l.47-.65a1.45,1.45,0,0,0,0-1.19,1.76,1.76,0,0,0-2.41-.66c-.37.18-.71.39-1.06.58-3,.87-6.74,3.62-5.93,7,.2.78,1.06,1.31,1.68,1.93a2.52,2.52,0,0,0,3.45.43,2.38,2.38,0,0,0,.82-3.29l.74-.23c-.05.23-.11.46-.17.69-.36-1.09.52-2.06.93-3.1l1-1.11-2.44-1.81-.37.77.32.15a26.6,26.6,0,0,1-2.18,4.29l-.9,2a1.3,1.3,0,0,0,1.3,1.4l1.09,0-.55-.05c2-.7,3.92-1.67,5.9-2.3a.67.67,0,0,0,.5-.73A.55.55,0,0,0,481.26,1151.64Z"/><path d="M476,1156.21a1.57,1.57,0,0,0-1.13.34v.3h.82C476.23,1156.86,476.23,1156.51,476,1156.21Z"/><path d="M474.82,1156.85h-.35l.32.11s0,0,0,0Z"/><path d="M626.74,1107c1.13.11,2.26.18,3.37.32l3.35.42,6.69.87,6.65,1.1,3.31.55,3.29.67,6.57,1.34,6.51,1.57,3.25.79c1.08.27,2.14.6,3.22.89l6.41,1.81c.58.15,1.08.22,1.13.1s-.35-.35-.89-.48l-6.42-1.82-3.22-.9-3.24-.8-6.51-1.58-6.56-1.35-3.29-.68-3.31-.56-6.64-1.11c-2.23-.32-4.46-.58-6.69-.88s-4.47-.59-6.73-.76a2,2,0,0,0-1.2.15C625.76,1106.82,626.18,1107,626.74,1107Z"/><path d="M746.44,1157.14c-.39-.13-.43,0-.1.24a4.74,4.74,0,0,0,1.21.68c.33.11.38,0,.1-.23A4.51,4.51,0,0,0,746.44,1157.14Z"/><path d="M739.44,1162.36c-1.05-.47-2.07-.94-3.07-1.35s-2-.75-2.93-1.06a4.78,4.78,0,0,1-1-.48c0,.21-.42.15-1.19-.15a320.37,320.37,0,0,0-48.42-15.07,1.7,1.7,0,0,1-.82.26,17,17,0,0,1-6-.76l-1.75-.55c-1.78-.5-3.59-.88-5.38-1.33s-3.58-.9-5.39-1.25l-5.42-1.1-2.7-.55-2.72-.45a39.09,39.09,0,0,1-5.16-.19c-3.19,0-6.39.12-9.58.15l-9.61.45c.4.16.63.36.62.55s-.49.43-1.09.57a9.85,9.85,0,0,1-2.26.24l-2.6.06c2.48.11,5,.13,7.43.4a9.07,9.07,0,0,1,1,.11c2.73.12,5.49.12,8.3.34a288,288,0,0,1,70.74,12.06,3.74,3.74,0,0,1,1.22.53c.18.17.09.27-.33.16-14.65-3.64-27.75-4.7-44-6.31a221.13,221.13,0,0,0-57.21,1.86,147.75,147.75,0,0,0-28.27,5.77,166.19,166.19,0,0,0-26.57,10.66c-1.51.67-2.91,1.52-4.36,2.27l-4.27,2.28-4.13,2.45c-1.36.81-2.75,1.56-4,2.46l-1,.65-.49.32-.18.13-.63.47-1.27.92c-.84.62-1.71,1.18-2.51,1.83-1.63,1.27-3.26,2.49-4.92,3.67s-3.19,2.53-4.81,3.77a5.1,5.1,0,0,1-4,1.47,6.57,6.57,0,0,1-4.22-2.21,7.46,7.46,0,0,1-1.92-5.8l-.65.46-1.25.44a5.16,5.16,0,0,1-3.8-.3l-1.65-.68c-2.72-1.59-5.74-2.2-8.48-4l-.55-1.06-.4-.1a6,6,0,0,1-3.21-1.45l-.83-1.15a13.57,13.57,0,0,1-1.88-4.36,4.72,4.72,0,0,1-.9-1.5,6.86,6.86,0,0,1-3.23-3.36,1,1,0,0,1-.77-1.16,1,1,0,0,1,.27-.49h0a9.92,9.92,0,0,0-1-.35c-.37.13-.6.19-.6.19-.93.42-.93.42-1.76.76a5.31,5.31,0,0,1-1.71-.17c-2.28-1.44-2.29-1.44-2.89-2.35a2.29,2.29,0,0,1-.07-.34c-.77.13-.83.14-1,.16a2.58,2.58,0,0,1-.53-.12c-.41-.43-.41-.43-.64-.52a2.25,2.25,0,0,1-.31-.32c-.13-.73-.13-.74-.24-.88a2.1,2.1,0,0,1,0-.38l.36-.66,1.74.58-.17-.53.62.4-.51-.41h.63l-.79-.09a4.81,4.81,0,0,0,1.4-.82,1.93,1.93,0,0,0,.68-.64,2.42,2.42,0,0,1-.25-.23c1.13-.56,1.13-.56,2.24-1.07a3,3,0,0,1,.48.16.57.57,0,0,1,.32-.53l.56-.29a.88.88,0,0,0,.05-.15l0,0,.24-.55,0-.12h0c.16-.39.39-1,1.08-2.35a7.45,7.45,0,0,1,1-.36l-.42-.05c-.28,0-.46-.6-.58-.58-.72.14-1.43.32-2.13.53s-1.36.51-2,.8c-1.34.57-2.66,1.22-4,1.85a1,1,0,0,1-1.31.09.82.82,0,0,1,.06-1.23c2.7-6,9.14-9.76,15.48-11,1.51-.58,3-1.19,4.47-1.81l-.34-.11,1.28-.28.12-.06-1.33-.35c-.24,0-.47,0-.71.09a29.17,29.17,0,0,1-5.29,1.71c-1.8.47-3.61.94-5.41,1.54s-3.91.8-5.9,1.27a.85.85,0,0,1-1.14-.24.8.8,0,0,1,.43-1,36.12,36.12,0,0,1,8.15-5.23,20.91,20.91,0,0,1,9.17-1.75,5.66,5.66,0,0,1,3.13-.8h.05l-1-.36c.82-.26,1.58.14,2.39,0l-.83-.83c2-.66,3.93-1.58,5.88-2.37a30.57,30.57,0,0,1,2.95-1,13.65,13.65,0,0,1,3.06-.48,2.23,2.23,0,0,1,.43-.1,23.49,23.49,0,0,1,1.76-2l.49-.46.15-.12.43-.24.87-.49a38.2,38.2,0,0,1,3.73-1.88c-.93.3-1.83.66-2.73,1l-2.66,1a1.71,1.71,0,0,1,.28-.18l.33-.2.68-.41,1.36-.79c.91-.54,1.85-1,2.81-1.48,1.91-.92,3.89-1.8,6-2.61,11.38-4.37,24.9-6.54,31.65-5.37a245.25,245.25,0,0,1,33.55-6.19,270.75,270.75,0,0,1,33.9-1.43,4.25,4.25,0,0,1,2.41.57c.11.26-.66.47-1.82.44a264.89,264.89,0,0,0-48.55,4.62,288.56,288.56,0,0,1,41.22-2c1.77,0,3.55-.07,5.33,0s3.51.23,5.25.43c17.69,1,34.15,4,51.53,8l2.77.63,2.7.72,5.31,1.42c1.76.44,3.47,1,5.18,1.51l5.12,1.56c3.4,1.08,6.74,2.29,10.17,3.44s6.81,2.58,10.34,3.93a284.82,284.82,0,0,1,27.92,13.11A245.93,245.93,0,0,1,772.07,1161c2.25,1.62,4.12,3.43,4.13,4s-1.84-.29-4.1-1.89a309.7,309.7,0,0,0-27.74-16.68,317.55,317.55,0,0,0-29.49-13.57,301.15,301.15,0,0,0-31.18-10.51,312.27,312.27,0,0,0-33-7.39c-2.43-.44-4.87-.73-7.28-1.09l-3.62-.52c-1.21-.16-2.42-.26-3.63-.39a.43.43,0,0,1,.1.27c0,.36-.51.65-1.3.86l4.1.45c1.36.19,2.72.42,4.08.63l4.09.66,2,.33,2,.42A190.47,190.47,0,0,1,697,1127.3a236,236,0,0,1,28.52,13.49,283,283,0,0,1,34.41,18.3,3.34,3.34,0,0,1,1,.79c.1.18-.18.1-.63-.17l-5.95-3.26-3-1.65-3.06-1.58-6.13-3.16-6.27-3c1.15,1,1.72,1.76,1.41,2.1s-1.5.21-3.15-.33l5.52,3c1.13.6,1.94,1.26,1.79,1.45s-1.12-.14-2.2-.71c-3.75-2-7.47-4-11.31-5.84-1.91-.92-3.79-1.9-5.73-2.76l-5.8-2.61a294.41,294.41,0,0,0-28.89-9.88,7,7,0,0,1,2.44,2.12h0l4.49,1.38c27.69,7.64,54.5,21.06,78.43,38.55.47.33.82.67.77.75s-.45-.11-.88-.41c-3.64-2.59-7.26-5.22-11-7.62-1.88-1.2-3.71-2.48-5.63-3.61l-5.73-3.44,0,0c.28.24.28.38-.1.24a5.81,5.81,0,0,1-1.19-.72c-.32-.28-.23-.36.09-.24a244.48,244.48,0,0,0-44.88-20.11,257.22,257.22,0,0,1,40.77,19.23c1.48.7,3,1.35,4.47,2.12a3.32,3.32,0,0,1,1,.75c.07.14-.27.06-.68-.16l-1.22-.64c2.41,1.51,4.06,3,3.75,3.44s-2.7-.52-5.21-2c-6.9-3.75-13.81-7.43-20.92-10.69l-2.34-1-2.42-.83a290.69,290.69,0,0,1,31.72,17.57c.89.53,1.57,1.1,1.49,1.27s-.87-.12-1.77-.64a295.3,295.3,0,0,0-28.58-14,288.87,288.87,0,0,0-30-11c-3.48-.62-7-1.1-10.47-1.63-3.53-.37-7-.81-10.6-1.1.87.19,1.74.42,2.61.64,11.11,2.61,21.43,5.17,31.57,8.25a197.57,197.57,0,0,1,30.21,11.7c.5.24.88.54.89.66s-.37,0-.87-.25a223.32,223.32,0,0,0-29.7-11.39l-6.34-1.94-6.28-1.65-3.09-.79-3.09-.66c-2.06-.43-4.1-.85-6.13-1.23l6.08,1.6,3,.78,3,.86,6,1.71,5.92,1.89,3,.94,2.93,1,5.87,2.11c1.94.76,3.87,1.55,5.81,2.34l2.92,1.2c1,.41,1.91.87,2.88,1.3a8.08,8.08,0,0,1,1.7,1,.76.76,0,0,1,.43.06,67.09,67.09,0,0,1,6.33,2.52,3.18,3.18,0,0,1,1.06.69C740.2,1162.59,739.91,1162.55,739.44,1162.36Zm-244.6-12-.24-.08h.65l1.39.73Zm-4.67,9.44h0l-.81-.37Zm96.62-48.19-7.27.82c-1.21.11-2.42.28-3.62.46l-3.62.49c-4.84.56-9.63,1.45-14.5,2.07l6.93-1.68,2.74-.44,2.76-.32,5.52-.61c1.83-.23,3.68-.35,5.53-.46Zm-100.23,38.14a12.58,12.58,0,0,1,3.28.79,5.13,5.13,0,0,1,1.34-1.15,27,27,0,0,1,4.27-2.13c-.44-.3-.09-.45,0-.59l.43-.41c-1.58.61-3.25,1.1-4.86,1.76A40.91,40.91,0,0,1,486.56,1149.71Zm-8.22,8.41-.23,0-.22-.76Zm.41,1.26.26-.06C479.12,1159.58,479,1159.55,478.75,1159.38Zm2.31-.61a1.87,1.87,0,0,0-.49-.12Zm14.73,16-1.71-3.36,1.57,3.29Z"/><path d="M647.88,1159.74l-.57-.28c.12-.18.48-.2,1-.12a10.41,10.41,0,0,0-7.08-.49,9.46,9.46,0,0,0-2.45,1.17,7,7,0,0,0-1.62,1.49c-1.15.1-1.56.73-1.14,1.3a2.45,2.45,0,0,0,1.11.73,4.53,4.53,0,0,0,1.61.29,5.94,5.94,0,0,1,.9.2c.6.23,1.18.47,1.8.69l1.94.65,2,.67c.7.21,1.4.43,2.13.67-.64-.3-1.29-.57-1.91-.82a21.84,21.84,0,0,0,2.44.62l-.59-.48c3.14,1.3,6.41,1.69,7.07.21s-1.79-4.53-5.11-5.89Z"/><path d="M640.14,1155.17c.82.11,1.7.27,2.56.46s1.73.41,2.62.67l.47.29-1-1.42,0,.1c-.42,1.36-2.21,2-3.78,2.63l-.52.28a.64.64,0,0,0-.11.73,2.56,2.56,0,0,0,2.16,1l1.07,0a23,23,0,0,0,2.36.3,13.08,13.08,0,0,0,2.27,0c1.42-.18,2.46-.7,2.33-2-.06-.61-.84-1.41-1.37-2.13a3.85,3.85,0,0,0-3.39-1.78c-1.31.1-1.86,1-1.33,1.92l-.76-.1.27-.41c.2.86-.8,1.18-1.36,1.68l-1.07.39,2.07,1.86.46-.31c-.11-.09-.3-.2-.29-.21a14.67,14.67,0,0,1,2.78-1.82l1.25-.94c.19-.47-.29-1.16-1.07-1.51l-1.11-.41.55.25a53.73,53.73,0,0,0-6.11-.32c-.32,0-.57.14-.57.37S639.81,1155.15,640.14,1155.17Z"/><path d="M646,1153.76a2.13,2.13,0,0,0,1.19.2c0-.12,0-.18,0-.21l-.82-.34C645.84,1153.18,645.78,1153.43,646,1153.76Z"/><path d="M647.25,1153.75l.35.14-.3-.21,0,0Z"/><path d="M656.34,1303.46c-1,24.84-2.15,49.82-3.7,74.78,0,.84,0,1.55.21,1.59s.34-.61.37-1.38c1.61-25,2.79-49.83,3.78-74.66a2.77,2.77,0,0,0-.3-1.65C656.51,1302.1,656.36,1302.68,656.34,1303.46Z"/><path d="M633.68,1489.7c-.06-.59-.17-.57-.26,0a10.75,10.75,0,0,0-.07,2.06c0,.5.17.48.25,0A10.35,10.35,0,0,0,633.68,1489.7Z"/><path d="M625.46,1484.27c-.28-3.5-.59-6.82-1-9.78a9.21,9.21,0,0,1-.05-1.64c-.18.2-.38-.47-.51-1.73-2.63-24.84-4.51-51.56-6.26-77.88a2.64,2.64,0,0,1-.65-1.12,29.21,29.21,0,0,1-1.11-9.27L616,1380c.18-11.55.39-23.08.8-34.56a70.84,70.84,0,0,1-.62-8c-.91-10-1.72-19.93-2.26-30.14-.21.64-.45,1-.72,1-.63-.21-1.09-2.57-1-5.33,0-1.39.08-2.78.17-4.17-.46,4-.54,8-.8,12q0,.86-.12,1.59c-.09,4.37-.09,8.79,0,13.28.42,39.22,4,76.09,7.74,112.67a7.61,7.61,0,0,1,0,2.07c-.11.35-.27.29-.37-.38-3.49-23.07-8.22-43-11-69.14-1.62-15.52-3-31-4-46.49-.26-3.88-.52-7.77-.71-11.67l-.3-5.86c-.1-2-.23-3.92-.22-5.88a57.56,57.56,0,0,1,5.29-23.65c4-8.28,9-16.37,12.8-24.51,1-2.07,1.81-4,2.71-6.33l.63-1.67c.23-.65.48-1.17.68-1.63.42-.92.82-1.69,1.13-2.49a15.61,15.61,0,0,0,1.21-9.43,13.3,13.3,0,0,0-1.75-4.35c-.44-.69-.94-1.41-1.61-2.36a19,19,0,0,1-2.2-4,16.69,16.69,0,0,1-1.06-5.26,17.89,17.89,0,0,1,.56-5.15,23.75,23.75,0,0,1,4-7.76,15.57,15.57,0,0,0,1-1.58l0-.06h0l.09,0,.35.19c.23.12.48.22.73.32l.39.13a1.14,1.14,0,0,1,.2.08,2.79,2.79,0,0,0,.66.17h-.19l-.3,0-.2,0,.1,0c.06,0,0,0-.4.18l-.3.17-.36.24c-.16.1-.31.21-.46.32l-.1.09h0s0-.15-.18-.31a2.4,2.4,0,0,0-.23-.25c-.41-.36-.74-.7-1.14-1-.8-.6-1.58-1.19-2.3-1.81a22,22,0,0,1-3.72-3.68,9.88,9.88,0,0,1-1.75-4.15,4,4,0,0,1-.14-1.2,9.6,9.6,0,0,1,.57-3.5,6.19,6.19,0,0,1,.64-1.38,6.4,6.4,0,0,1,.85-1.27,5.52,5.52,0,0,1,.46-.62l.61-.58a14.7,14.7,0,0,1,1.41-1.11,6.94,6.94,0,0,1,.8-.53,6,6,0,0,1,.87-.49c.66-.28,1.32-.57,2-.87,1.33-.57,2.84-1,4.21-1.42l2.08-.69c.42-.16.63-.25.93-.38a9.63,9.63,0,0,0,1.34-.68,2.29,2.29,0,0,0,.28-.24h0l.08.1c.18.24.46.52.58.7s.33.38.51.56l.29.26.19.2a3.94,3.94,0,0,0,.45.36c.17.12.21.17.34.25s.28.14.31.17a.93.93,0,0,0,.2.08c.13,0,.19,0,.1,0a2,2,0,0,0-.34.12,2.1,2.1,0,0,0-.59.33,4.81,4.81,0,0,0-.87.63l-.18.18-.28.24a6.51,6.51,0,0,0-.54.51c-.17.17-.34.36-.49.54a2.25,2.25,0,0,1-.28.32c-.09.09,0,0-.06.05l-.09,0-.38-.08c-.65-.16-1.64-.39-2.72-.58-.56-.09-1.08-.19-1.75-.27l-2-.08c-.68,0-1.37-.2-2.06-.29a81.27,81.27,0,0,1-8.85-1.95l-1.67-1a4.41,4.41,0,0,0-.43-.25l-.55-.2-1.09-.4a8.68,8.68,0,0,1-1.06-.41l-.73-.56c-.49-.38-1-.75-1.45-1.14s-.92-.76-1.35-1.14l-.44-.4-.58-.52c-.79-.68-.48-1.58-1.35-2.25l-.5-.53a2.68,2.68,0,0,1-.44-.54l-.66-1.12-.55-1.16a11.68,11.68,0,0,0-.72-1.18c-.65-.8.08-1.59-.74-2.49l-.38-.66a4.73,4.73,0,0,1,0-.65l.06-.65c0-.11,0-.23-.09-.36l-.16-.36c-.17-.49-.56-1-.3-1.44l.16-.69.09-.34a1.33,1.33,0,0,0-.07-.38c-.12-.53-.26-1.06-.37-1.58l.57-1.36.14-.35a1.26,1.26,0,0,0,0-.39v-.79a14.23,14.23,0,0,1,0-1.6l.1-1.62,0-.4c0-.15.14-.21.2-.33l.49-.6,1-1.22a10.72,10.72,0,0,0,.56-1.46l.52-1.49,0-.09,0,0a.44.44,0,0,1-.06-.1l-.26-.41-.13-.21s0-.07,0-.11l.08-.2.35-.8.35-.81.27-.7.54-1.33c.35-.84.73-1.72,1.11-2.55s.59-1.36.91-2a19.49,19.49,0,0,1,1-1.8,12.55,12.55,0,0,1,2.07-2.63c1.33-1.27,2.7-1.68,3.68-1,1.19.9,1.55,3.11,1.13,5.55l.64-1c.4-.45.8-.93,1.2-1.35,1.14-1.18,2.36-1.94,3.46-1.87l1.43,0c2.32.54,5.1.34,7.47,1.75l.38,1,.37,0a3.72,3.72,0,0,1,2.85,1.17l.65,1.13a12.11,12.11,0,0,1,1.21,4.23,4.23,4.23,0,0,1,.66,1.41,5.68,5.68,0,0,1,2.63,3.21.79.79,0,0,1,.57,1.08.82.82,0,0,1-.33.36h0c.35.19.45.24.89.44l.6,0c1-.15,1-.15,1.84-.23a5.89,5.89,0,0,1,1.66.59c2,1.84,2.05,1.88,2.51,2.8a2.83,2.83,0,0,1,0,.29,8.18,8.18,0,0,1,1.07.26,4,4,0,0,1,.51.3c.34.5.34.5.55.66a2.4,2.4,0,0,1,.26.38c0,.6,0,.59.1.75a.9.9,0,0,1,0,.29l-.46.33-1.65-1.11.08.45-.55-.52.44.49-.63-.24.78.37a4.65,4.65,0,0,0-1.54.06,1.52,1.52,0,0,0-.77.23,3,3,0,0,1,.21.25l-2.33.07-.44-.24c0,.14-.16.26-.39.27l-.59.06-.06.09,0,0-.29.32-.06.08h0c-.2.22-.49.54-1.29,1.33a8.42,8.42,0,0,1-1,0l.38.11c.25.08.36.46.47.47,1.36.08,2.71.15,4,.17s2.76.08,4.19.22a1.51,1.51,0,0,1,1.33.5c.3.37.17.69-.27.76a10.31,10.31,0,0,1-3.24,1.44,24.44,24.44,0,0,1-3.84.73c-2.7.31-5.46.43-8,.51-.57.08-1.14.21-1.69.33l-1.51.36.23,0c-.25,0-.61,0-.56.16v0h.2a3.32,3.32,0,0,1,.39.07h.47a17.82,17.82,0,0,1,3.89-.46c.76,0,1.46,0,2.24,0l2.38.12a16.6,16.6,0,0,1,2.67.36l2.77.62a1.34,1.34,0,0,1,1,.54c.14.26-.11.43-.53.39-1.25.14-2.45.17-3.77.25-.64,0-1.23,0-1.88,0l-1,0h-.88c-1.26,0-2.39-.08-3.51-.13l-1.58-.16a3.58,3.58,0,0,1-.37-.06c-.09,0-.28-.06-.31-.05l-.11.06a1.45,1.45,0,0,1-.84.3h0l.49.08c-.18.11-.6,0-.81.14l.62.19a1.52,1.52,0,0,0-.47,1.31c0,.46.22.84.25,1.2a.35.35,0,0,1,.05.08c.35.12.68.21,1,.3l.21.06.06,0,.17.08.35.16,1.38.6a14.39,14.39,0,0,1-1.67-.92c.65.31,1.35.56,2,.79l.24.09.13,0,.06,0,.12.08,1.95,1.29c.68.46,1.38.91,2.14,1.46a27.06,27.06,0,0,1,2.48,2l.46.44.51.55a12.26,12.26,0,0,1,1,1.36,8.92,8.92,0,0,1,.5.94,5.51,5.51,0,0,1,.42,1.09,11.07,11.07,0,0,1,.28,1.27,8.69,8.69,0,0,1,0,1.35,7.44,7.44,0,0,1-1.79,4.33,9.8,9.8,0,0,1-2.3,2,22.58,22.58,0,0,1-3.64,1.78l-1.16.46-.35.11a11,11,0,0,0-1.47.55,1.7,1.7,0,0,0-.62.51,1.62,1.62,0,0,1-.1.18,1.21,1.21,0,0,1,0,.19.68.68,0,0,0,.1.35,4.9,4.9,0,0,0,1,1l.28.24.14.13.07.06v0l0,0s0,0,0,0l.17.14a15.52,15.52,0,0,1,2.66,2.61,12.53,12.53,0,0,1,2,3.71,11.91,11.91,0,0,1,.48,2.05,18,18,0,0,1,.08,2.06,13.81,13.81,0,0,1-.29,2,12,12,0,0,1-.57,1.72,13.63,13.63,0,0,1-.7,1.38c-.24.38-.48.75-.71,1.08a26.63,26.63,0,0,1-2.11,2.76c-.58.71-1.1,1.31-1.47,1.83a6.15,6.15,0,0,0-1.29,2.81,4.23,4.23,0,0,0,0,1.36,5.36,5.36,0,0,0,.63,1.71c.78,1.5,2,3.54,3,5.58a55.1,55.1,0,0,1,4.12,12.93c.44,2.24.71,4.56.95,6.73l.18,1.56c.08.53.16.83.26,1.32.2.9.44,1.79.66,2.67.5,1.91,1,3.85,1.66,5.76s1.3,3.9,2,5.85c1.39,3.88,3,7.81,4.42,11.69A99.48,99.48,0,0,1,656.5,1296c.21,1.61,0,3-.29,3.32s-.71-.9-.89-2.51a98.39,98.39,0,0,0-3.92-16.79c-1.8-5.62-4-11.26-6-16.91-1-2.81-1.9-5.65-2.73-8.46-.4-1.4-.78-2.79-1.12-4.2l-.26-1-.22-1c-.15-.65-.29-1.3-.42-2-.26-1.16-.34-2.81-.51-4.39s-.37-3.23-.67-4.84a53.3,53.3,0,0,0-2.54-9.41,50.71,50.71,0,0,1,2.15,7.84,66.23,66.23,0,0,1,1,8c0,.65.08,1.28.15,1.86s.16,1.05.25,1.62c.21,1.12.4,2.15.66,3.37.51,2.37,1.05,4.7,1.71,7.11,2.5,9.53,5.88,19.19,7.52,28.89.5,2.48.89,5,1.19,7.46a46.18,46.18,0,0,1,.24,7.33c-.1,12.38-.44,24.44-.7,36.57s-.52,24.34-.67,37c-.25,21.59-.67,40.49-1.64,62-1.42,30.19-4,57.69-9.73,87.5a45,45,0,0,1-2.06,8.1c-.35.48,0-2.4.64-6.38,2.48-15.55,4.13-31,5.39-46.52s2.1-31,2.73-46.59c1.27-31.18,1.81-62.73,2.85-95.25.21-7,.41-13.91.62-20.77a.75.75,0,0,1-.37.16c-.48,0-.92-.66-1.28-1.76q-.39,11.68-1.06,23.52c.51,21.94.66,43.91-1,67.28-1.16,16-2.9,30.57-4.54,45.42-.78,18.82-1.79,37.58-3.59,56.58a8.8,8.8,0,0,1-.28,1.82c-.11.27-.14-.14-.09-.9.85-13.07,1.38-26.47,1.76-40-.5,2.13-1,3.39-1.54,3.22s-.9-1.83-1.14-4.36l-.46,9.19c-.11,1.9-.38,3.38-.62,3.33s-.39-1.55-.31-3.36q.74-18.75,1.49-37.46c.14-15,.2-29.92.24-44.93a10.89,10.89,0,0,1-1.85,4.32h0c0,2.33-.05,4.65-.08,7q.9,31.82.27,64.29t-2.9,65.29a8.24,8.24,0,0,1-.18,1.58,5.58,5.58,0,0,1,0-1.42q1.23-19.82,1.94-39.51v0c-.09.53-.2.63-.25.05a11.87,11.87,0,0,1,.08-2.06c.09-.61.2-.55.24,0,.87-24.47,1.07-48.77.61-72.75q-.45,33.42-1.67,66.8c.06,2.43.11,4.85.16,7.32a7.82,7.82,0,0,1-.18,1.81c-.09.19-.17-.3-.17-1s0-1.36,0-2c-.16,4.22-.64,7.46-1.11,7.39-.48-.24-.83-3.86-.78-8.24q0-17.58.08-35.08l-.1-3.79c-.11-1.27-.21-2.54-.32-3.81-.38,18.16-.73,36.29-.87,54.3a7.71,7.71,0,0,1-.26,2.9,7,7,0,0,1-.33-2.77c-1.1-31.76-2.38-63.92-3.13-96.22-1.38-10.61-2.86-21.26-4.35-32.1,0,1.36,0,2.74,0,4.12.18,17.56,1.46,33.79,2.7,49.89s2.47,32,3.07,49a4.29,4.29,0,0,1-.13,1.67c-.11.09-.23-.49-.25-1.35-.72-16.59-2.11-31.74-3.3-48.21-1-13.64-1.92-26.61-3.15-39.3.83,25.92,3,50.77,4.4,76.44a16.76,16.76,0,0,1,0,3,1.59,1.59,0,0,1,.18.64c.41,3.21.74,6.71,1,10.28a7.2,7.2,0,0,1,0,1.91C625.66,1485.45,625.55,1485,625.46,1484.27Zm2.5-329.21.2,0-.54.07-1.11-.28S627.2,1154.94,628,1155.06Zm4.86-6.88h0l.71.31Zm7.4,99.63c-.14-.8-.28-1.6-.36-2.36l-.21-2.71c-.13-1.88-.32-3.82-.64-5.72a49.21,49.21,0,0,0-3.1-11,46.37,46.37,0,0,0-2.49-5.1,13.63,13.63,0,0,1-1.73-3.74,4.08,4.08,0,0,1,0-1.36,6.05,6.05,0,0,1,.33-1.44,9.33,9.33,0,0,1,1.73-2.74,9.23,9.23,0,0,0-1.62,2.7,5.83,5.83,0,0,0-.28,2.67c0,1.12,1.69,3.53,2.95,6.14a48.44,48.44,0,0,1,3.1,8.13,52,52,0,0,1,1.62,8.6c.16,1.45.24,2.91.32,4.29,0,.67.07,1.38.15,1.9S640.12,1247.22,640.22,1247.81Zm-5.15-92.29a19.64,19.64,0,0,1-2.82-.73,4.94,4.94,0,0,1-1.26.7c-1.2.54-2.44,1-3.55,1.53.35.13.08.25,0,.35s-.24.18-.34.27c.62-.25,1.25-.5,1.88-.71s1.37-.41,2.06-.6,1.32-.34,2-.49A13.75,13.75,0,0,1,635.07,1155.52Zm8.86-4,.22.12.1.63S644.12,1151.93,643.93,1151.5Zm-.2-1.08-.26,0C643.4,1150.15,643.52,1150.21,643.73,1150.42Zm-2.37-.21a2.59,2.59,0,0,0,.46.22ZM629.44,1135l1.18,3.19-1.06-3.14Z"/><path d="M320.52,1280.83c.2,0,.42,0,.63,0a1.75,1.75,0,0,1-.94,1,15.74,15.74,0,0,0,7.73-4.37,37.84,37.84,0,0,0,3-3.46,24.73,24.73,0,0,0,2.31-3.78c1.52-.81,2.55-2.27,2.09-3.43s-2.18-1.48-3.87-.67a5.4,5.4,0,0,1-1.22.23,21.27,21.27,0,0,0-5.05.28c-.86.15-1.77.34-2.64.58s-1.7.56-2.57.9l2.32-.36a11.85,11.85,0,0,0-2.94,1.37l.73.31a10.09,10.09,0,0,0-5.13,2.86,7.91,7.91,0,0,0-2.24,4.78c-.15,3.28,2.78,5,6.24,4.15Z"/><path d="M329.54,1282.78c-1.9.44-3.89.79-5.73,1.28l-.54-.09,1.34,1.36-.06-.12c.1-2.29,1.94-4.43,3.69-6.31l.57-.76a1.67,1.67,0,0,0,.06-1.31c-.35-.86-1.51-1.08-2.58-.47l-1.24.72c-3.54,1.13-7.58,4.76-6.74,8.3.21.82,1.14,1.26,1.8,1.83a2.65,2.65,0,0,0,3.67,0,2.77,2.77,0,0,0,.9-3.62c.26-.11.52-.23.79-.33-.06.25-.13.51-.2.76-.4-1.15.68-2.23,1.2-3.37l1.16-1.25-2.57-1.74-.48.85c.13.06.35.12.35.14-.43.83-.84,1.64-1.27,2.43a26.82,26.82,0,0,1-1.32,2.4l-1,2.29a1.21,1.21,0,0,0,1.38,1.32l1.15-.17h-.58c1.07-.5,2.1-1,3.13-1.6a30.82,30.82,0,0,1,3.25-1.39.8.8,0,0,0,.6-.8A.53.53,0,0,0,329.54,1282.78Z"/><path d="M323.71,1288.1a1.81,1.81,0,0,0-1.19.5v.32l.86-.1C324,1288.76,324,1288.38,323.71,1288.1Z"/><path d="M322.52,1288.92l-.37,0,.34.07s0,0,0,0Z"/><path d="M451.7,1404.56c9.43-8.4,16.22-22.24,20.1-37.17a138.25,138.25,0,0,0,3.87-23.29,204.21,204.21,0,0,0,.25-24.57,5.74,5.74,0,0,0-.32-2.15c-.12,0-.18.85-.12,1.91a205.2,205.2,0,0,1-.25,24.51A137.6,137.6,0,0,1,471.4,1367c-3.82,14.85-10.56,28.61-19.83,37-.63.55-1.07,1.09-1.06,1.27S451.1,1405.07,451.7,1404.56Z"/><path d="M548.15,1188.78c-.89.09-.86.19.07.26.39,0,.94,0,1.5,0s1.13.08,1.57.07c.75,0,.74-.12,0-.26a12.36,12.36,0,0,0-1.6-.16C549.07,1188.73,548.53,1188.75,548.15,1188.78Z"/><path d="M541.48,1197.36l-3.14.81c-1,.31-2,.73-3,1.08-.48.18-1,.34-1.42.55l-1.33.68c-.88.46-1.74.86-2.54,1.35a17.44,17.44,0,0,1-1.81,1c.31,0-.36.54-1.68,1.41a57.07,57.07,0,0,0-4.66,3.62c-.73.66-1.52,1.25-2.22,2l-2.12,2.12a66.84,66.84,0,0,0-7.53,9.54c-1.19,1.66-2.14,3.5-3.19,5.26-.48.91-.93,1.84-1.4,2.76l-.69,1.37-.61,1.43a69.7,69.7,0,0,0-4,11.65l-.67,3c-.19,1-.35,2.08-.52,3.12-.4,2.06-.56,4.19-.81,6.3-.14,1.05-.15,2.14-.23,3.21s-.15,2.14-.18,3.22l-.06,3.26,0,1.62,0,1.65a261.5,261.5,0,0,0,2,26.8,4.7,4.7,0,0,1,.6,1.5,76.18,76.18,0,0,1,1.91,13l.24,4.1c.57,8.28,1,16.77.78,25.45a172.09,172.09,0,0,1-2.61,25.87c-.2,1.78-.38,3.7-.74,5.73-.17,1-.35,2.06-.54,3.13s-.47,2.15-.72,3.26a122.48,122.48,0,0,1-6.61,22.42,105.88,105.88,0,0,1-5.21,11l-1.6,2.72-.81,1.37-.87,1.33-1.78,2.66-1.94,2.58c.8-.74,1.36-1.14,1.51-1,.09.29-.43,1.28-1.35,2.66a26.54,26.54,0,0,1-1.75,2.26,30.33,30.33,0,0,1-2.28,2.54l-2.59,2.59c-.89.84-1.84,1.64-2.76,2.46a85.08,85.08,0,0,0,14.24-15.15c.57-.81,1.15-1.51,1.61-2.19a103.71,103.71,0,0,0,10-19.54c5.74-14.8,8.29-29.75,9.17-44.34a177.35,177.35,0,0,0-.08-21.64c-.44-7-1.17-13.86-2-20.5-1.62-13.27-3.44-25.83-4-38a121.33,121.33,0,0,1,.39-17.84l.21-2.19.33-2.14c.21-1.43.4-2.89.73-4.22l.43-2c.13-.68.37-1.35.54-2l.57-2c.19-.68.46-1.34.68-2a14.25,14.25,0,0,1,1-2.38c.29-.36.33-.25.08.54s-.53,1.7-.79,2.55c-.13.42-.27.84-.39,1.26l-.3,1.27c-.2.85-.41,1.69-.61,2.52s-.28,1.68-.43,2.52c-.33,1.62-.44,3.43-.65,5.14l-.14,1.29-.06,1.32-.13,2.61a137.81,137.81,0,0,0,1.1,21.39c.88,7.33,2.15,14.92,3.49,23.1s2.74,16.94,3.66,26.73c.15,1.44.27,2.92.37,4.4s.22,3,.29,4.45l.19,4.53.07,4.53a181,181,0,0,1-.85,18.27,144.81,144.81,0,0,1-8.32,37c-1.17,3.09-2.45,6.18-3.92,9.24a100.1,100.1,0,0,1-4.93,9.17,92.2,92.2,0,0,1-13.45,17.27,76.44,76.44,0,0,1-19.14,14.15l-2.86,1.41c-.95.47-2,.86-3,1.27s-2,.83-3.08,1.19l-3.23,1-1.62.47c-.55.14-1.12.26-1.69.39-1.12.24-2.26.48-3.4.7s-2.33.33-3.5.48l-3.84.39a61.86,61.86,0,0,1-16.25-1.73,55.4,55.4,0,0,1-14.94-6.15,53,53,0,0,1-12.4-10.16,55.1,55.1,0,0,1-8.74-13.38,48.18,48.18,0,0,1-2.86-7c-.44-1.33-.78-2.58-1.12-3.87s-.6-2.51-.8-3.69a76.06,76.06,0,0,1-1.24-13.43,99.82,99.82,0,0,1,.67-11.88c.24-1.84.45-3.76.77-5.52l.45-2.7c.16-.92.31-1.63.46-2.45.59-3.18,1.32-6.43,2.08-9.64s1.62-6.36,2.36-9.13a83,83,0,0,0,2.72-13.35c.13-1.09.26-2.17.35-3.34s.2-2.33.28-3.54l.06-.9c0-.3,0-.44,0-.67l0-1.23c0-.4-.05-.74-.06-1.12a6.37,6.37,0,0,0-.09-1c0-.32-.08-.64-.11-.95s-.12-.55-.17-.82a3.41,3.41,0,0,0-.2-.72,3.56,3.56,0,0,0-.2-.65,9.39,9.39,0,0,0-1.08-2.09,32.35,32.35,0,0,0-2.89-3.76c-.73-.84-1.54-1.75-2.52-2.77l-.73-.76-.19-.2-.09-.09h0l-.14-.06a1.62,1.62,0,0,1-.46-.28c-.64-.19-1-.42-1.39-.29a.21.21,0,0,1-.12,0,1.09,1.09,0,0,0-.17.05.33.33,0,0,1-.26,0,.78.78,0,0,1-.35.11c-.06,0-.09,0-.16,0l-.21.09a2.84,2.84,0,0,1-.42.05l-.26.11s0,0,0,0l-.16.1c-.12.08-.19.06-.33.18a2.81,2.81,0,0,1-.76.43c-1.09.65-2.46,1.3-4.09,2.26-.52.66-1.36.58-2.42,0a10.35,10.35,0,0,1-3.4-3,9.38,9.38,0,0,1-2.05-5.67l-.49.31-1,.16a5.32,5.32,0,0,1-3.26-.92l-1.49-.79c-2.5-1.75-5.43-2.66-8.16-4.4l-.59-1-.39-.11a6.24,6.24,0,0,1-3.16-1.39l-.89-1.12a13.41,13.41,0,0,1-2.07-4.31,4.9,4.9,0,0,1-.95-1.49,6.74,6.74,0,0,1-3.33-3.27.93.93,0,0,1-.8-1.15,1.12,1.12,0,0,1,.27-.53h0a8.61,8.61,0,0,0-1-.3c-.38.17-.61.25-.61.25l-1.79.93a5.32,5.32,0,0,1-1.76,0c-2.4-1.26-2.42-1.25-3.06-2.14a2.09,2.09,0,0,1-.08-.34c-.8.22-.86.24-1.09.29a2.53,2.53,0,0,1-.56-.07c-.43-.4-.43-.4-.68-.47a2.32,2.32,0,0,1-.33-.3c-.15-.75-.15-.75-.27-.89a1.46,1.46,0,0,1,0-.39c.23-.48.33-.67.37-.75l1.84.41-.18-.54.66.35-.54-.38.66-.07h-.84a5.88,5.88,0,0,0,1.48-1,2.42,2.42,0,0,0,.71-.75,2,2,0,0,1-.26-.23,22.63,22.63,0,0,1,2.41-1.33c.19,0,.36.09.52.14a.64.64,0,0,1,.37-.57l.63-.34a1.11,1.11,0,0,0,.07-.16l0,0c.11-.24.19-.41.29-.6l.05-.13h0l1.3-2.59a6.8,6.8,0,0,1,1.14-.46l-.46,0c-.29,0-.45-.61-.58-.58a27.51,27.51,0,0,0-4.61,1.74c-.75.35-1.52.72-2.26,1.12l-2.15,1.25a1.09,1.09,0,0,1-1.4.27.9.9,0,0,1,.09-1.33,20,20,0,0,1,1.32-2.45,18.32,18.32,0,0,1,1.77-2.22,25,25,0,0,1,4.41-3.83,34.14,34.14,0,0,1,5.34-2.75,19.73,19.73,0,0,1,2.88-.92c1-.24,1.94-.44,2.9-.6s1.83-.65,2.8-.92l2.9-.82-.38-.14,1.59-.19.17,0-1.47-.49-.88,0c-1.11.36-2.27.61-3.36.9s-2.18.55-3.28.8l-3.36.75c-1.1.29-2.16.63-3.25,1-2.29.82-4.69,1.08-6.89,1.87-.5.3-1.05.25-1.24-.12s.08-.92.57-1.22c5.85-5,14.56-9,22-8a7.91,7.91,0,0,1,2.06-.53,7.56,7.56,0,0,1,2.08.06h.07l-1.15-.53c1.13-.14,1.92.35,3,.34l-.7-1c1.38-.22,2.71-.55,4.14-.77s2.86-.42,4.28-.58c.71-.09,1.42-.16,2.12-.21s1.45,0,2.16,0a23.09,23.09,0,0,1,4.14.52,6,6,0,0,1,.61.06,21.92,21.92,0,0,1,3.46-1.14l.93-.2a2.2,2.2,0,0,1,.29,0l1.5,0c.5,0,1,0,1.51,0l1.55.12c2.07.2,4.17.34,6.3.74s4.31.91,6.49,1.51c-1.46-.46-2.94-.82-4.41-1.21a39.32,39.32,0,0,0-4.43-.94c-1.48-.23-3-.43-4.46-.62l-1.12-.13-1.1-.06-1.95-.08h.92l1.2,0a22,22,0,0,1,2.42.09c1.62.12,3.25.27,4.88.44a23.51,23.51,0,0,1,2.45.39l2.45.51a37,37,0,0,1,4.89,1.27q2.43.79,4.86,1.7c1.58.67,3.14,1.45,4.71,2.22.78.4,1.57.79,2.34,1.22l2.23,1.41c1.46,1,3,1.93,4.38,3,1.85,1.52,3.73,3.08,5.46,4.74s3.3,3.52,4.78,5.25a110.83,110.83,0,0,1,6.54,9.09,77.34,77.34,0,0,1,5.86,11,61.3,61.3,0,0,1,3.85,12.33c.46,2.07.7,4.11.94,6.1.11,1,.14,2,.2,2.92s.12,1.92.09,2.82c0,1.84,0,3.63-.19,5.28-.08.84-.15,1.66-.22,2.47s-.22,1.54-.33,2.3-.24,1.48-.36,2.21-.3,1.37-.44,2l-.45,2c-.15.64-.31,1.09-.47,1.62-.31,1-.61,2-.92,2.91s-.65,1.81-1,2.63c-.24,1.52-.58,3.12-.87,4.68s-.67,3.18-1.08,4.77c-.77,3.18-1.7,6.38-2.63,9.26-1.89,5.81-3.44,10.22-4.73,14.92-.31,1.18-.65,2.34-.93,3.54l-.45,1.79c-.16.62-.24,1.09-.37,1.64l-.35,1.6-.28,1.56c-.22,1.05-.32,2-.47,3.05a42.52,42.52,0,0,0-.35,5.53,21.09,21.09,0,0,0,.39,4.13,10.43,10.43,0,0,0,.34,1.25l.26.64.14.34,0,0s-.08-.2-.05-.14v0l0,0,.08.16a5.62,5.62,0,0,0,.34.64,9.36,9.36,0,0,0,1.78,2.27,9.82,9.82,0,0,0,5.07,2.48c.47.09.94.1,1.41.15a13.27,13.27,0,0,1,1.41,0,5.85,5.85,0,0,1,.83-.09h.48l.51-.09a14.51,14.51,0,0,0,2.05-.4,28.09,28.09,0,0,0,8.82-4.09,11.11,11.11,0,0,1,1.73-1.1,3.26,3.26,0,0,1,1.1-.43c.15,0,.06.29-.21.65a7.92,7.92,0,0,1-1.39,1.23,32.45,32.45,0,0,1-6.54,3.89,23.73,23.73,0,0,1-6.35,1.74l-.38,0-.31,0a2.11,2.11,0,0,1-.6.06,9.29,9.29,0,0,0-1.17.07,15.6,15.6,0,0,1-2.35-.24,11.24,11.24,0,0,1-4.39-1.87,11.08,11.08,0,0,1-3.27-3.6c-.1-.18-.17-.37-.28-.55l-.07-.14,0-.07,0,0h0a.93.93,0,0,1,0,.13l0-.07-.3-.72a8,8,0,0,1-.4-1.1,16.93,16.93,0,0,1-.54-2.81,36.45,36.45,0,0,1,.09-8l.28-2.28.4-2.34c.32-1.61.61-3.11,1.07-5-.19.71-.44,1.51-.59,2.15l-.5,2c-.19.67-.28,1.31-.43,2s-.29,1.31-.38,1.94a45.39,45.39,0,0,0-.79,7.24,23.1,23.1,0,0,0,.45,5.52,8.08,8.08,0,0,0,.27,1l.14.4.15.36,0,.12,0,0c0,.1-.08-.19-.05-.1l0,.06.23.53c.12.36.35.67.49,1s.37.68.61,1a12.69,12.69,0,0,0,7.51,5.16,20.37,20.37,0,0,0,2.34.38c.39,0,.79,0,1.18,0,.2,0,.4,0,.6,0l.63-.06a12.56,12.56,0,0,0,1.46-.09c.5-.08,1-.14,1.51-.2s1-.25,1.54-.35l.78-.18.78-.27a30.21,30.21,0,0,0,6.42-3.06c.52-.34,1-.66,1.58-1l1.57-1.09c.53-.33,1-.73,1.56-1.13s1-.77,1.55-1.18a54.93,54.93,0,0,0,7-7.44c.51-.7,1.08-1.36,1.56-2.08l1.48-2.16c.93-1.52,1.91-3,2.75-4.64s1.67-3.24,2.49-4.88,1.52-3.36,2.17-5.12a99.85,99.85,0,0,0,3.56-10.77,132.14,132.14,0,0,0,4.06-23c.32-4,.52-8,.55-12,0-2,0-4.1-.07-6.17s-.14-4.18-.27-6.33c-.79-14.58-2.59-28.89-3.08-44a172.33,172.33,0,0,1,.67-23.34c.15-2,.48-4,.77-6.08s.7-4.09,1.11-6.16,1-4.2,1.54-6.35c.26-1.08.61-2.13,1-3.19s.71-2.11,1.07-3.17A92.42,92.42,0,0,1,500,1200.31c1.08-1.1,2.08-2.26,3.24-3.3l3.45-3.12a76.61,76.61,0,0,1,7.57-5.59,63.23,63.23,0,0,1,17.51-8.06,43.17,43.17,0,0,1,4.81-1.15l2.43-.48c.82-.13,1.65-.19,2.48-.29a42,42,0,0,1,5-.33h3.76l1.25.1a58.65,58.65,0,0,1,19.14,4.54,70.92,70.92,0,0,1,16.35,9.75c1.2,1,2.46,2,3.59,3l3.38,3.19a88.64,88.64,0,0,1,6.12,6.91c.52.63,1,1.26,1.52,1.88s.9,1.26,1.32,1.87c.83,1.23,1.6,2.38,2.21,3.4a17,17,0,0,1,1.88,4c0,.9-2.61-2.87-6.47-8a86.69,86.69,0,0,0-13.25-13.58,69.43,69.43,0,0,0-16.73-10.2,58.13,58.13,0,0,0-19.8-4.56c-1.72-.09-3.45,0-5.17,0s-3.44.31-5.15.48a59.41,59.41,0,0,0-9.94,2.35,66,66,0,0,0-17.66,9.07,79.56,79.56,0,0,0-14,13.12A86.36,86.36,0,0,0,488.38,1221a92.88,92.88,0,0,0-7.11,17.44c-.4,1.53-.85,3.08-1.2,4.61l-.92,4.51c-.34,1.51-.48,3-.73,4.52s-.45,3-.57,4.52a155.84,155.84,0,0,0-.85,17.83c.07,11.74,1.08,23.1,1.93,34.18.43,5.54.79,11,1,16.42s.29,10.72.07,16a136.72,136.72,0,0,1-4.76,31.08,111.51,111.51,0,0,1-4.29,12.51,86.38,86.38,0,0,1-5.75,11.32c.13,0,.26-.09.34,0,.32.18.21,1-.24,2.33A99.17,99.17,0,0,0,477.16,1371a143.15,143.15,0,0,0,3.21-21.31,179.4,179.4,0,0,0,.27-22c-.58-15.08-2.53-31-2.69-48.25,0-5.93.19-11.79.77-17.62.12-1.45.35-2.91.53-4.35l.28-2.16c.11-.72.25-1.44.37-2.16.27-1.44.51-2.87.8-4.29s.67-2.84,1-4.25a88,88,0,0,1,6-16.51,94.1,94.1,0,0,1,9.1-14.74,79.19,79.19,0,0,1,15.07-16.21,62.28,62.28,0,0,1,20-10.94,53,53,0,0,1,23.34-2.11,59.09,59.09,0,0,1,21.81,7.9,11.16,11.16,0,0,1,2.4,1.67c.31.33-.28,0-1.3-.63a64.51,64.51,0,0,0-14.56-6.42,51.61,51.61,0,0,0-16.17-2.11l-2.06,0c-.69,0-1.37.15-2.06.22l-2.05.24-1,.13-1,.22-4,.89c-1.31.36-2.6.83-3.89,1.25a58,58,0,0,0-14.34,7.39,25.89,25.89,0,0,1,3.58-1.63c.89-.25,1.38-.26,1.37,0s-.54.76-1.4,1.55-2.12,1.81-3.63,3l2.94-1.91,1.47-.94,1.55-.83c1-.55,2.07-1.11,3.12-1.63l3.26-1.37a18.14,18.14,0,0,1,3.51-1.1c.91-.21,1.47-.27,1.46-.15s-.53.41-1.39.76-2.05.73-3.29,1.3l-3.27,1.37-3.12,1.66c-.52.28-1,.54-1.55.84l-1.48,1c-1,.64-2,1.25-2.93,1.94a67.91,67.91,0,0,0-5.45,4.39c-.85.79-1.77,1.52-2.57,2.36l-2.42,2.5a78.66,78.66,0,0,0-8.51,10.94,83.61,83.61,0,0,0-6.58,12.18,78.24,78.24,0,0,0-4.82,15.89,111.86,111.86,0,0,0-2,16.24l-.2,4.06,0,4c0,1.36,0,2.7,0,4s0,2.69.09,4c.21,5.36.57,10.69,1,16a22.75,22.75,0,0,1,.89-6.24h0c-.1-1.65-.19-3.3-.29-4.94s-.13-3.29-.19-4.93a151.73,151.73,0,0,1,.36-22.84c.2-1.92.48-3.83.72-5.75s.7-3.81,1.05-5.72.91-3.82,1.45-5.7l.91-2.8.46-1.4.53-1.37A83.61,83.61,0,0,1,503.06,1213a70.14,70.14,0,0,1,17.46-16.31l1.26-.84c.44-.26.89-.49,1.33-.74l2.68-1.46c.89-.5,1.86-.84,2.79-1.26s1.86-.85,2.83-1.18l2.93-.94,1.47-.47,1.51-.32,3-.64c1-.2,2-.25,3.07-.38a47.71,47.71,0,0,1,6.21-.25c1,0,2.06.15,3.1.23l1.54.14c.52.07,1,.17,1.53.26l3.05.56,3,.82,1.49.42,1.45.54,2.88,1.09a65.52,65.52,0,0,1,20,13.81,87.84,87.84,0,0,1,14.26,19.28,8.43,8.43,0,0,1,1,2.09,6.35,6.35,0,0,1-1.16-1.72l-1.76-3.14-1.94-3-1-1.52-1.06-1.46-2.13-2.92a81.46,81.46,0,0,0-9.94-10.58,66.67,66.67,0,0,0-12-8.36,55.23,55.23,0,0,0-13.85-5.09l.08,0c.78.21.89.34,0,.26a27,27,0,0,1-3-.56c-.89-.24-.8-.34-.05-.27a49.29,49.29,0,0,0-13.83,0c-1.14.17-2.26.45-3.39.68l-1.69.36c-.56.13-1.09.34-1.64.5l-3.28,1.06c-1.06.43-2.1.89-3.15,1.34l-1.57.69-1.5.81-3,1.64-2.83,1.88c-.46.32-.94.62-1.4,1l-1.33,1c-.88.7-1.77,1.39-2.64,2.1l-2.48,2.27c-.41.39-.83.76-1.23,1.15l-1.15,1.22-2.28,2.44-2.12,2.57-1.06,1.29-1,1.35-1.94,2.71-1.76,2.8c-1.22,1.85-2.18,3.84-3.26,5.77-.5,1-.94,2-1.41,3s-.94,2-1.32,3l-1.21,3.07c-.39,1-.69,2.09-1,3.13-.73,2.07-1.18,4.23-1.74,6.35s-.83,4.28-1.19,6.41-.61,4.29-.77,6.44c.17-2,.54-4,.81-6s.77-3.95,1.15-5.92c.19-1,.51-2,.75-2.94s.49-2,.83-2.92c.67-1.91,1.23-3.86,2.05-5.71l1.15-2.81,1.31-2.73c.83-1.84,1.86-3.58,2.84-5.35.47-.89,1-1.73,1.58-2.58l1.64-2.55,1.79-2.44c.61-.81,1.18-1.65,1.85-2.41a68.49,68.49,0,0,1,18.22-16,50.83,50.83,0,0,1,23.3-7,43.72,43.72,0,0,1,5.37-.07l2.71.15,2.7.4c.49.07,1.05.19,1.54.3a6.74,6.74,0,0,1,1,.4c.25.17-.46,0-1.46-.14l-3-.45,2.21.44a14.25,14.25,0,0,1,2,.51c1.25.4,2.36.79,3.26,1.14,1.77.83,2.75,1.46,2.61,1.69-.53.43-5.4-1.29-11.53-2a48.37,48.37,0,0,0-12.32.25l-3,.65-1.51.32-1.47.47-2.93,1c-1,.39-1.88.81-2.83,1.21-7.55,3.28-14.09,8.53-19.66,14.51-.62.64-1.17,1.34-1.73,2l-1.66,2.08c-1.05,1.45-2,3-3,4.45a70.92,70.92,0,0,1,12.78-14,54.91,54.91,0,0,1,16.21-9.48l4.48-1.38,4.58-.91c1.55-.12,3.1-.36,4.65-.4h3.49l1.16.11a47.35,47.35,0,0,1,17.75,5.1,15.12,15.12,0,0,1,2.4,1.4c.6.41,1,.71.93.8s-.43,0-1.05-.33c-.32-.14-.68-.32-1.09-.53l-.63-.33-.7-.32a46.16,46.16,0,0,0-15.37-4.42,42.39,42.39,0,0,0-15.77,1.42c-10.25,3-19.21,9.6-26.23,17.78A77.12,77.12,0,0,0,496,1242l-1,3.92-.75,4c-.29,1.33-.42,2.7-.61,4s-.38,2.71-.46,4.09a140.13,140.13,0,0,0-.49,16.55c1.17,14.62,4.07,29.19,6.22,44.63-.11-2-.28-3.91-.43-5.88-.53-6.24-1.17-12.27-1.76-18.17s-1.1-11.62-1.44-17.26-.41-11.15-.22-16.6a103.81,103.81,0,0,1,1.87-16,69.21,69.21,0,0,1,4.92-15,74.48,74.48,0,0,1,8.18-13.81,60,60,0,0,1,11.34-11.63,48.2,48.2,0,0,1,14.47-7.79,5.91,5.91,0,0,1,2.12-.49c.08,0-.07.11-.36.23s-.73.3-1.26.48a46.75,46.75,0,0,0-14,7.38,62.3,62.3,0,0,0-11.05,11.08,73.43,73.43,0,0,0-13.49,28.25,93.56,93.56,0,0,0-2,13.15,130.08,130.08,0,0,0-.28,13.24,243.24,243.24,0,0,0,2.35,26.35c-.88-9-1.64-17.75-1.74-26.32a109.55,109.55,0,0,1,2.18-25l.69-3,.88-2.91a30,30,0,0,1,1-2.9c.36-1,.67-1.93,1.09-2.86.83-1.87,1.61-3.78,2.6-5.58s2-3.61,3-5.38a67.41,67.41,0,0,1,7.48-9.83c1.34-1.58,2.91-2.9,4.37-4.36l2.38-2c.4-.32.79-.67,1.2-1l1.27-.87a15.24,15.24,0,0,1,3.24-1.92,2.57,2.57,0,0,1,.63-.51l1.31-.83.66-.42.71-.36,2.89-1.45a41.52,41.52,0,0,1,6.32-2.13,8.4,8.4,0,0,1,2.38-.38C542.92,1197,542.4,1197.07,541.48,1197.36Zm-197,83.89-.24-.1.69,0,1.38.85Zm-5.86,9.63h0l-.82-.36Zm79.72,114.41a27.28,27.28,0,0,1-.23-4.59c0-.81.1-1.72.13-2.58s.18-1.8.33-2.73a85.68,85.68,0,0,1,2.7-11.78c.6-2.08,1.23-4.11,1.94-6.16s1.46-4.11,2.29-6.35c1.65-4.39,3.57-9.79,5-15.13a150.31,150.31,0,0,1-4.2,15c-1.25,3.4-2.36,6.41-3.37,9.5-.52,1.54-1,3.09-1.45,4.66l-.68,2.37-.58,2.19a65.48,65.48,0,0,0-1.65,8.38A36.68,36.68,0,0,0,418.29,1405.29Zm-82.83-124.87a12,12,0,0,1,3.48.81,5.63,5.63,0,0,1,1.6-1.21q2.55-1.17,5.07-2c-.42-.33,0-.47.15-.63s.38-.26.57-.38c-1.88.5-3.74,1.08-5.69,1.63a23,23,0,0,0-2.6.94A21.83,21.83,0,0,1,335.46,1280.42Zm-9.22,9.43-.24,0-.24-.78S326,1289.39,326.24,1289.85Zm.44,1.28.26-.09C327.06,1291.3,326.93,1291.28,326.68,1291.13Zm2.39-.86a1.75,1.75,0,0,0-.51-.09Zm15.22,15.58c-.61-1.09-1.21-2.18-1.8-3.28.54,1.07,1.09,2.14,1.66,3.21Z"/><path d="M477.56,1314.78l.63.12a1.7,1.7,0,0,1-1.13.67,14.64,14.64,0,0,0,8.34-2.19,27.17,27.17,0,0,0,3.43-2.5,23,23,0,0,0,2.79-2.91c1.59-.36,2.67-1.53,2.43-2.66s-1.76-1.75-3.44-1.4a6.29,6.29,0,0,1-1.19-.1,25,25,0,0,0-9.93-.85l2.29.27a11.43,11.43,0,0,0-3.08.49l.65.46c-3.82-.26-7.87,2.11-8.65,5.13s1.69,5.37,5.25,5.39C476.49,1314.73,477,1314.74,477.56,1314.78Z"/><path d="M485.92,1318.68l-5.8-.1-.51-.22,1,1.58,0-.12c.65-2,2.71-3.74,4.8-5l.69-.57a1.42,1.42,0,0,0,.31-1.17c-.18-.87-1.25-1.33-2.41-1l-1.32.36a12.8,12.8,0,0,0-5.49,1.8,5.13,5.13,0,0,0-2.72,4.3c0,.82.86,1.46,1.39,2.15a2.71,2.71,0,0,0,3.57.87c1.39-.65,2.15-2,1.65-3.14l.85-.11-.36.65c-.12-1.13,1.07-1.94,1.79-2.89.44-.31.9-.59,1.36-.88l-2.15-2.2c-.21.22-.42.44-.62.67a2.47,2.47,0,0,1,.31.21,33.42,33.42,0,0,1-3.48,3.86l-1.41,1.92a1.21,1.21,0,0,0,1.07,1.56l1.17.11-.57-.13,3.41-.73c1.13-.24,2.26-.49,3.38-.62a.75.75,0,0,0,.74-.6A.55.55,0,0,0,485.92,1318.68Z"/><path d="M479.19,1322.33a1.85,1.85,0,0,0-1.27.21c0,.17-.05.25-.06.3l.87.1C479.35,1323,479.43,1322.67,479.19,1322.33Z"/><path d="M477.86,1322.84l-.37,0,.32.15s0,0,0,0Z"/><path d="M568.08,1317.66a133.08,133.08,0,0,1,15.32,11.24c.15.14.33.18.41.09s0-.27-.15-.39a132.82,132.82,0,0,0-15.32-11.33c-.18-.11-.38-.11-.45,0S567.91,1317.54,568.08,1317.66Z"/><path d="M595.69,1354.36c-.14,0-.22,0-.18.17a.55.55,0,0,0,.31.34c.12,0,.21,0,.17-.18A.5.5,0,0,0,595.69,1354.36Z"/><path d="M589.2,1358.79a8.86,8.86,0,0,0-1.85-1,.49.49,0,0,1-.24-.23c-.09.14-.29.15-.53,0-4.66-2.5-9.25-5.33-14.06-7.44a1.15,1.15,0,0,1-.44.23,2.12,2.12,0,0,1-1.88-.42l-.41-.38c-1.77-1.33-3.58-2.58-5.41-3.8a4.72,4.72,0,0,1-1.58-.31l-3-.34-2.95-.29a.7.7,0,0,1,0,.51,1,1,0,0,1-1.21.35c-.24-.08-.49-.14-.73-.2.65.29,1.27.67,1.89,1a1,1,0,0,1,.24.17l2.25.81a177.51,177.51,0,0,1,20.46,7.76.39.39,0,0,1,.29.28.16.16,0,0,1-.23.15c-4.82-1.41-9.58-1.45-14.48-2.44a73.6,73.6,0,0,0-16.8-1.42c-.64-.11-1.28-.21-1.92-.29s-1.27-.08-1.9-.1a28.92,28.92,0,0,0-3.74.18,42.34,42.34,0,0,0-7.27,1.68c-1.78.55-3.45,1.15-5.06,1.75-2.21.87-4.31,1.69-6.32,2.7-1,.44-2,1-3,1.5s-1.94,1.06-2.87,1.7a2.8,2.8,0,0,1-1.47.69,2.77,2.77,0,0,1-1.58-.22,6.58,6.58,0,0,1-3-3,8.18,8.18,0,0,1-.8-5.87l-.61.28-1.08.15a4.32,4.32,0,0,1-3.14-1l-1.32-.94a26.18,26.18,0,0,0-3.51-2.67,26.35,26.35,0,0,1-3.61-2.73l-.37-1.12-.36-.17a6.12,6.12,0,0,1-2.83-2l-.63-1.26a12.64,12.64,0,0,1-1.13-4.55,5.12,5.12,0,0,1-.62-1.61,6.61,6.61,0,0,1-2.59-3.81.91.91,0,0,1-.55-1.26,1.08,1.08,0,0,1,.38-.44h0a8.43,8.43,0,0,0-.92-.51c-.41.07-.66.09-.66.09-1.05.25-1,.27-1.94.5a5.38,5.38,0,0,1-1.71-.4c-2.09-1.74-2.11-1.73-2.56-2.73,0-.11,0-.23,0-.35-.82,0-.89,0-1.12,0a3.16,3.16,0,0,1-.53-.19c-.34-.49-.34-.49-.57-.61a2.21,2.21,0,0,1-.27-.36c0-.75,0-.75-.07-.91a1.6,1.6,0,0,1,0-.38c.33-.4.46-.56.52-.62l1.72.8-.08-.55.58.48-.45-.48.66.09-.82-.2a6,6,0,0,0,1.65-.64,2.6,2.6,0,0,0,.86-.53,1.7,1.7,0,0,1-.21-.27c1.33-.36,1.33-.36,2.63-.68a5.14,5.14,0,0,1,.47.23.6.6,0,0,1,.46-.46l.66-.19.1-.14,0,0,.4-.48.08-.11h0l1.76-2.09a8.6,8.6,0,0,1,1.18-.17l-.43-.13c-.28-.09-.32-.66-.45-.66a27.06,27.06,0,0,0-4.79.55c-1.57.35-3.16.77-4.76,1.18a1.12,1.12,0,0,1-1.42-.07.84.84,0,0,1,.35-1.23,19,19,0,0,1,3.94-3.58,24.91,24.91,0,0,1,4.95-2.48,29.59,29.59,0,0,1,5.48-1.33,31.51,31.51,0,0,1,5.55-.22c1.83-.15,3.61-.39,5.42-.52l-.32-.2,1.46.12h.15l-1.27-.7-.8-.13a50.59,50.59,0,0,1-6.28.28c-2.08.06-4.25,0-6.38.2-2.31.22-4.53,0-6.83.14a.92.92,0,0,1-1.18-.42c-.11-.37.26-.81.79-1a32.77,32.77,0,0,1,5.17-2.06,31,31,0,0,1,5.55-1.25,26.43,26.43,0,0,1,5.53-.22,20.19,20.19,0,0,1,5.11,1,7,7,0,0,1,3.68.26h.06l-1-.64c1,0,1.64.6,2.55.75l-.53-1c2.4,0,4.86-.11,7.28-.11,1.21,0,2.41.12,3.58.26.59.08,1.17.17,1.73.29s1.14.29,1.68.47l.5.1a17.06,17.06,0,0,1,3.69-1.05,11.82,11.82,0,0,1,2.1-.14l-2.11-.44h0a13.88,13.88,0,0,1,4.7-.27,20.05,20.05,0,0,1,6.59,2,11.78,11.78,0,0,1,4.59,3.78,104.06,104.06,0,0,1,23.4,7.37c.38.16.65.49.62.74s-.4.33-.78.18a153.28,153.28,0,0,0-16.74-4.87c4.63,1.86,9,4,13.43,6.14l1.72.72a8.55,8.55,0,0,1,1.6.93c5.5,2.89,10.31,6.12,15.51,9.43a144.92,144.92,0,0,1,12.23,8.82,68.85,68.85,0,0,1,14.44,15.35c.57.76.79,1.7.5,2.07s-1,0-1.57-.69a114.93,114.93,0,0,0-15.65-15.54,213.34,213.34,0,0,0-18.44-13.43c-1.45-.9-2.85-1.83-4.3-2.68a1.82,1.82,0,0,1-.07.25,1.25,1.25,0,0,1-.77.6c1.64,1,3.17,2.09,4.71,3.19a46,46,0,0,1,13.36,8.75,56.76,56.76,0,0,1,6.79,8.41,97.12,97.12,0,0,1,9.18,9.3.47.47,0,0,1,.18.4c0,.11-.16.09-.29,0-2.26-2-4.56-4.08-6.93-6.08a1.34,1.34,0,0,1-.32,1.34,1.53,1.53,0,0,1-1.49.09c.46.52.94,1,1.38,1.54.27.33.36.7.19.84s-.53,0-.79-.28c-.93-1-1.89-2-2.84-3.06s-2-2-3-3c-1.28-1.07-2.65-2-4-3.07s-2.72-1.94-4.1-2.9a2.53,2.53,0,0,1,0,1.56h0l1.22.92a65.74,65.74,0,0,1,20.88,19.48c.12.15.15.32.08.38s-.23,0-.32-.15c-.86-1.18-1.72-2.36-2.61-3.51s-1.87-2.24-2.82-3.34v0c0,.13,0,.22-.17.17a.64.64,0,0,1-.31-.34c0-.15.06-.21.18-.18a63.41,63.41,0,0,0-12.24-10.42,70.55,70.55,0,0,1,10.45,10.28l1.35.94a.48.48,0,0,1,.16.39c0,.09-.18.08-.29,0l-.37-.28c.58.72.71,1.55.31,1.87s-1.23,0-1.85-.73l-2.66-2.68-2.72-2.61-.65-.5-.79-.36a99.79,99.79,0,0,1,7.53,8.85c.22.24.29.55.16.67s-.43,0-.65-.22a128.24,128.24,0,0,0-15.93-12.43c-1.17-.28-2.31-.59-3.5-.8l-3.53-.62c.22.16.44.32.68.47,1.47.94,3,1.72,4.49,2.51l4.55,2.26c1.52.75,3,1.6,4.47,2.48a34.91,34.91,0,0,1,4.19,3.11c.15.11.19.27.14.35s-.21.06-.34-.06a34.74,34.74,0,0,0-4.16-2.92c-1.46-.84-2.92-1.64-4.42-2.46a45.45,45.45,0,0,0-7.43-3.34c4.44,2.6,9.1,4.89,13.28,8.18a.81.81,0,0,1,.37.49.21.21,0,0,1,.19,0,9.56,9.56,0,0,1,1.95,1.07.37.37,0,0,1,.21.34C589.48,1358.86,589.35,1358.86,589.2,1358.79Zm-88.81-38.61-.22-.13.65.13,1.19,1Zm-7.29,8h0l-.73-.5Zm60.72-12.93c-1.64-.54-3.27-1.14-4.91-1.77s-3.27-1.29-4.93-2c.84.1,1.68.26,2.52.42A72.21,72.21,0,0,1,553.82,1315.21Zm-61.8,2.56a12.16,12.16,0,0,1,3.17,1.42,5.31,5.31,0,0,1,1.75-.77,32.26,32.26,0,0,1,5.06-1c-.35-.38.06-.43.24-.54l.58-.26-2.77.21-2.81.27c-.85.09-1.74.21-2.62.35A23.27,23.27,0,0,1,492,1317.77Zm-10.72,6.79-.23-.09-.07-.79S481.13,1324.05,481.3,1324.56Zm.17,1.32.28,0C481.81,1326.12,481.69,1326.08,481.47,1325.88Zm2.52-.29a1.73,1.73,0,0,0-.49-.2Zm11.71,18-1.1-3.55,1,3.46Z"/><path d="M340.23,420.73l.09.52c-.31.09-.6-.09-.86-.39a7,7,0,0,0,4.41,4.46,9.06,9.06,0,0,0,3.16.56,12.62,12.62,0,0,0,3.26-.43,2.05,2.05,0,0,0,2.91-.66,2.29,2.29,0,0,0-.43-3.07,2.65,2.65,0,0,1-.4-.76,15.68,15.68,0,0,0-1.08-3.48,20.67,20.67,0,0,0-1.62-3.18c.16.54.32,1.1.48,1.63a4.94,4.94,0,0,0-1.25-1.59c0,.22-.11.49-.15.72a4.19,4.19,0,0,0-6.05-2.41,5.7,5.7,0,0,0-2.87,6.89Z"/><path d="M340,429.17c-.72-1.42-1.36-2.86-2-4.31v-.5l-.93,1.69.09-.09c1.85-.74,3.84-.25,5.6.33l.68.1a1.56,1.56,0,0,0,1-.57,1.76,1.76,0,0,0-.08-2.35l-.72-.66c-1.41-2.22-4.42-4.22-7.27-2.15a6.37,6.37,0,0,0-1.36,2.22,2.27,2.27,0,0,0,.38,3.17,2.17,2.17,0,0,0,3.07-.61l.38.55-.64.14c.86-.77,1.9-.41,2.88-.49l1.17.38.93-2.92h-.72a2.87,2.87,0,0,1-.06.34,17.8,17.8,0,0,1-4.13-.09l-2,.05a1.5,1.5,0,0,0-.94,1.69l.28.94-.08-.5c1.08,1.48,2.4,2.77,3.47,4.29a.53.53,0,0,0,.76.15A.61.61,0,0,0,340,429.17Z"/><path d="M334.69,426.31c-.12-.34-.21-.69-.57-.85l-.27.12c0,.19.12.45.18.72C334.17,426.82,334.49,426.68,334.69,426.31Z"/><path d="M333.85,425.58l-.08-.31c0,.11,0,.22,0,.32h.05Z"/><path d="M523.43,474.41c12.28.47,24.68.66,37.09,0,6.21-.16,12.4-.74,18.62-1.16,3.1-.25,6.19-.63,9.29-.93s6.21-.63,9.3-1.08a3.19,3.19,0,0,0,1.53-.44c0-.11-.64-.13-1.41,0-3.08.45-6.18.75-9.28,1.07s-6.18.67-9.28.92c-6.2.41-12.37,1-18.56,1.15-12.37.63-24.72.42-37,0a3.3,3.3,0,0,0-1.62.17C522.08,474.21,522.65,474.36,523.43,474.41Z"/><path d="M709.47,452.45c-.54.3-.48.39.13.22a10.72,10.72,0,0,0,2-.79c.44-.25.38-.36-.15-.22A10.59,10.59,0,0,0,709.47,452.45Z"/><path d="M707.33,462c-3.32,1.46-6.47,2.88-9.24,4.27a13.44,13.44,0,0,1-1.59.61c.25.08-.34.48-1.54,1-3,1.29-6,2.54-9,3.82l-4.59,1.9-4.68,1.78c-3.13,1.17-6.27,2.4-9.47,3.54l-9.66,3.3c-13,4.25-26.34,8.2-39.78,11.42a3,3,0,0,1-1.06.7,24.22,24.22,0,0,1-3.89,1.42c-1.65.43-3.57.84-5.54,1.17l-3,.44c-6,1.07-12,1.79-18,2.63-3,.45-6,.69-9,1s-6,.65-9,.9c-2.44.49-5.29.93-8.4,1.29-5.18.92-10.41,1.54-15.68,2.24l-4,.5c-1.32.17-2.65.27-4,.4l-8,.73c.68.12,1.09.3,1.09.5-.2.48-2.71,1-5.64,1l-4.44.08c2.13,0,4.25.1,6.37.09l6.36-.06c.62,0,1.18,0,1.7,0,2.32-.1,4.66-.16,7-.32l7.09-.56a422.64,422.64,0,0,0,59.94-9.59,497.82,497.82,0,0,0,55.82-16.59,9.88,9.88,0,0,1,2.08-.59c.39,0,.36.12-.3.37l-8.33,3.37c-2.73,1.14-5.48,2.13-8.2,3.2s-5.44,2.14-8.18,3.14l-8.29,3-4.21,1.5L623.68,497l-8.82,2.79c-3,.92-6.11,1.73-9.29,2.6s-6.45,1.74-9.85,2.46a471.49,471.49,0,0,1-49,8.81,445.56,445.56,0,0,1-50.84,3.62c-18.07-.47-35.5-1.58-53.06-3.53a426.86,426.86,0,0,1-53.67-9.2c-1.57-.32-3.11-.75-4.66-1.16l-4.63-1.23L375.21,501l-2.31-.62-2.29-.7c-6.07-1.93-12.17-3.7-18.13-6l-2.24-.82-1.12-.4-.3-.1-1-.3-2-.62c-1.35-.4-2.67-.88-4-1.38-2.62-1-5.22-2-7.83-3.08l-3.9-1.6-3.87-1.81c-4.1-1.43-6.37-5.48-5-9a6.82,6.82,0,0,1,4.93-4.08l-.88-.49L324,468.9a5.84,5.84,0,0,1-1.87-4L322,463c.21-3.31-.54-6.65.08-9.94l.84-.88-.06-.44a5.68,5.68,0,0,1,.18-3.62l.83-1.18a14.24,14.24,0,0,1,3.56-3.29,4.76,4.76,0,0,1,1.12-1.39,7.16,7.16,0,0,1,2.09-4.25,1,1,0,0,1,.84-1.15,1,1,0,0,1,.54.07h0a8.41,8.41,0,0,0,0-1c-.23-.29-.35-.48-.35-.48-.66-.7-.66-.7-1.21-1.32a4.72,4.72,0,0,1-.31-1.61c.72-2.59.73-2.59,1.42-3.47a1.81,1.81,0,0,1,.29-.19c-.31-.63-.33-.68-.41-.86a3.1,3.1,0,0,1,0-.52c.3-.52.3-.52.33-.75a3.19,3.19,0,0,1,.22-.4c.63-.39.63-.39.74-.54a2,2,0,0,1,.33-.18l.68,0c-.12,1.75-.12,1.76-.12,1.76l.44-.36-.21.71.25-.62.14.56-.1-.74c.71.73.71.73,1.06.92a1.46,1.46,0,0,0,.73.35,2.94,2.94,0,0,1,.15-.31c.77.77.77.77,1.5,1.56a4.13,4.13,0,0,1,0,.5.44.44,0,0,1,.54.06l.41.39h.14l0-.05.55,0h.11l2.34-.08a5.12,5.12,0,0,1,.6.74c0-.13-.05-.26-.07-.39s.37-.68.32-.77a33.78,33.78,0,0,0-4.78-5.81.82.82,0,0,1-.37-1.1.83.83,0,0,1,1.08-.45,13.56,13.56,0,0,1,7.63,2.31A20.29,20.29,0,0,1,352,430.4c1,.91,2,1.79,3.07,2.66l0-.34.7.89.08.08-.21-1.3a5.84,5.84,0,0,0-.33-.53c-2.46-1.91-4.11-4.69-6.13-7a25.56,25.56,0,0,1-2.59-4.27.8.8,0,0,1-.06-1.06.64.64,0,0,1,.95-.14,27,27,0,0,1,6.37,4,16,16,0,0,1,4.4,6.38,4,4,0,0,1,1.82,2l0,0c0-.35-.08-.67-.12-1,.51.5.52,1.29.94,1.85l.31-1.14c1.33,1.09,2.84,2,4.27,3a17.42,17.42,0,0,1,3.89,3.49,3.22,3.22,0,0,1,.28.24,18.25,18.25,0,0,1,2.32-.13l.57,0,.17,0,.58.22,1.18.46q2.35.94,4.84,2.05l-6.39-3.38a2.75,2.75,0,0,1,.37.12l.47.17.92.34,1.85.69c1.23.47,2.45.95,3.68,1.45,2.51.93,5.05,1.89,7.64,3,14.06,6,30.11,12.85,37.53,17.61a413.58,413.58,0,0,0,44.91,9,404.19,404.19,0,0,0,45.83,3.82,7.27,7.27,0,0,1,3.28.56c.16.28-.89.5-2.48.47-11,.1-22.12-.56-33.23-1.45-2.78-.23-5.55-.59-8.32-.88s-5.56-.56-8.32-1l-8.29-1.23c-1.39-.21-2.77-.39-4.15-.62l-4.12-.76a360,360,0,0,0,56.26,8.35l3.69.19,3.72.08c2.45,0,4.88.21,7.31.41,3.08.16,6.15.12,9.2.14s6.1.08,9.14,0l9.09-.26c1.52-.05,3-.06,4.55-.15l4.54-.28,9.1-.59,9.15-.89,4.6-.47,4.62-.63,9.33-1.29a483.57,483.57,0,0,0,60.56-13.68c14.51-4.28,28.23-8.89,41.69-14.05s26.76-10.64,40.42-16.79c3.57-1.74,7.06-3,7.69-2.82s-1.79,1.8-5.39,3.57Q718.62,440,696.79,448.4C682.22,454,667.41,459,652.27,463.23,622,471.65,590.59,477.51,558,479.14l-5.26.3-5.22.13c-3.47.06-6.93.22-10.37.2a.49.49,0,0,1,.19.28c0,.37-.64.71-1.73,1l2.94,0,3-.05,5.91-.1,5.94-.09,6-.24,8.24-.82,8.25-1c5.51-.6,11-1.53,16.57-2.3,2.79-.35,5.56-.88,8.36-1.32l8.44-1.36,8.52-1.54,4.32-.75c1.44-.25,2.87-.56,4.32-.84,4-.79,7.88-1.45,11.7-2.24l11.28-2.33c7.4-1.69,14.68-3.27,22-5.24a542.43,542.43,0,0,0,53.52-20.55,7.44,7.44,0,0,1,1.75-.62c.29,0-.05.22-.76.56-11.92,5.82-24.46,11.1-37.28,16,2.17-.36,3.52-.45,3.51.05s-1.43,1.48-3.78,2.57c3-.95,5.9-2.08,8.85-3.13,1.82-.65,3.31-1,3.34-.78s-1.33,1-3.06,1.58c-6,2.28-12.06,4.23-18.1,6.29-3,1-6.1,1.89-9.14,2.83l-4.57,1.41c-1.53.46-3.07.86-4.61,1.29-14.62,4.54-29.43,8.29-44.46,11.39a13.66,13.66,0,0,1,4.62.42h0l3.5-.71,3.47-.8a645.07,645.07,0,0,0,62.81-19.55A618.76,618.76,0,0,0,752,432.51a4,4,0,0,1,1.52-.57c.06.08-.51.45-1.22.79-12.07,6.11-24.35,11.69-36.7,17l0,0c.53-.14.67-.08.14.21a11.56,11.56,0,0,1-2,.8c-.61.16-.6,0-.15-.21L705,454.05c-2.9,1.15-5.83,2.24-8.73,3.37L692,459.1c-1.46.56-2.93,1.06-4.39,1.59l-8.78,3.16L670,466.8l-4.4,1.48-4.43,1.38-8.84,2.75L643.42,475a568.18,568.18,0,0,0,65.14-21l6.81-3.17a7.15,7.15,0,0,1,1.78-.57c.21,0-.22.29-.86.57l-1.91.88c4-1.54,7.23-2.58,7.38-2,0,.58-3.22,2.52-7.42,4.17l-8.34,3.5-8.42,3.26c-5.59,2.24-11.31,4.12-17,6.14-1.22.48-2.45.89-3.68,1.32l-3.65,1.46a518.72,518.72,0,0,0,52.57-19.26,7.42,7.42,0,0,1,2.87-.91c.11.15-1,.82-2.47,1.48Q704,461.35,680.53,469.87c-15.64,5.6-31.65,10.47-47.91,14.54-2.62.86-5.24,1.78-7.89,2.6l-8,2.44c-5.33,1.71-10.76,3.1-16.24,4.66l4.24-.75A368.74,368.74,0,0,0,655,480.09c15.9-5.32,31.33-11.36,47.63-18a4.84,4.84,0,0,1,1.67-.48c.13.06-.39.37-1.23.69-15.88,6.59-30.49,12.53-46.78,17.91-1.68.59-3.36,1.13-5,1.64l-5,1.56c-3.32,1.05-6.6,2.1-9.89,3l-9.75,2.84L617,491.88c3.31-.75,6.59-1.49,9.86-2.27l9.69-2.58c1.61-.45,3.22-.85,4.81-1.33l4.76-1.44c3.17-1,6.35-1.88,9.49-2.92,6.26-2.1,12.53-4.11,18.73-6.43s12.4-4.63,18.63-7a26,26,0,0,1,2.93-1,1.72,1.72,0,0,1,.56-.37c3-1.47,6.33-3,9.73-4.47a9.2,9.2,0,0,1,1.87-.64C708.41,461.37,708,461.63,707.33,462ZM345.7,440.38c0-.1,0-.18,0-.25l.27.55-.05,1.57S345.79,441.31,345.7,440.38Zm-10.11.24h0c0-.52.05-.9.05-.9C335.62,440.09,335.6,440.38,335.59,440.62ZM468.2,473.48a269.08,269.08,0,0,1-39.09-9l9.47,2.07c2.42.72,4.87,1.3,7.33,1.9l7.37,1.82C458.21,471.39,463.2,472.37,468.2,473.48Zm-125-40.56a13,13,0,0,1,.44,3.19,4.11,4.11,0,0,1,1.47.6,38.93,38.93,0,0,1,3.45,2.55c.07-.52.34-.31.51-.28l.51.15c-1.13-1-2.24-2.09-3.35-3.2A30.75,30.75,0,0,1,343.23,432.92Zm-9.67-3.74a1.69,1.69,0,0,1,0-.23l.62-.49Zm-1,.85.12.2C332.43,430.43,332.43,430.31,332.52,430Zm1.16,1.84a1.62,1.62,0,0,0,0-.49ZM323.51,451.5l2.63-2.8-2.62,2.64Z"/><path d="M502.5,429.92l.25.06a.53.53,0,0,1-.4.31c2.43.31,4.22-1.74,4.92-3.85a1.09,1.09,0,1,0-.91-2,1.62,1.62,0,0,1-.44,0,8.37,8.37,0,0,0-3.69-.26l.86.12a2.94,2.94,0,0,0-1.06.25l.28.23a2.54,2.54,0,1,0-.45,5Z"/><path d="M506.1,431.89q-1.19,0-2.37-.09l-.22-.12.5.79,0-.06a4.56,4.56,0,0,1,1.6-2.43l.22-.28a.73.73,0,0,0,0-.58.8.8,0,0,0-1-.49l-.48.18c-1.34.15-3,1.1-2.86,2.8a2.82,2.82,0,0,0,.63,1.07,1.12,1.12,0,1,0,2-1l.34,0c0,.11-.07.21-.11.31-.11-.55.32-.93.54-1.39l.47-.44-1-1.07-.19.33.14.1a10.39,10.39,0,0,1-1.12,1.84l-.49.88a.69.69,0,0,0,.5.78l.49.08-.24-.07c.92-.15,1.81-.45,2.74-.58a.29.29,0,0,0,.26-.3A.27.27,0,0,0,506.1,431.89Z"/><path d="M503.51,433.59a.61.61,0,0,0-.51.06c0,.08,0,.12,0,.14l.36.08C503.6,433.92,503.62,433.75,503.51,433.59Z"/><path d="M503,433.79l-.15,0,.13.08v0Z"/><path d="M533.19,413.48c2.24-.93,4.44-2,6.62-3a.14.14,0,0,0,.06-.2.15.15,0,0,0-.2-.07c-2.18,1.06-4.37,2.07-6.61,3a.17.17,0,0,0-.07.21A.17.17,0,0,0,533.19,413.48Z"/><path d="M553.24,412.2a.16.16,0,0,0,.12.19.12.12,0,0,0,.17-.1.2.2,0,0,0-.12-.19A.13.13,0,0,0,553.24,412.2Z"/><path d="M556.25,418.51a3.07,3.07,0,0,0-.56.92.16.16,0,0,1-.14.07.3.3,0,0,1,0,.37,35.73,35.73,0,0,1-5.39,5.73,1,1,0,0,1,.07.35.82.82,0,0,1-.53.86l-.29.06c-1.07.37-2.12.78-3.19,1.14a1.66,1.66,0,0,1-.53.65,27.82,27.82,0,0,1-1.93,2.48.62.62,0,0,1,.26.25.52.52,0,0,1-.19.71l-.33.22,1.12-.36a.29.29,0,0,1,.16,0,11.31,11.31,0,0,0,1.1-.65,38.35,38.35,0,0,0,8.06-7.83.13.13,0,0,1,.19-.07c.06.05.11.14.07.21-1.16,2.45-1.82,5.17-3.51,7.3a69.37,69.37,0,0,1-6.33,7.1c-2.79,1.59-5,3.72-7.57,5.82-.95.78-1.91,1.51-2.87,2.21-2.91,2-5.86,3.81-8.9,5.61a3.32,3.32,0,0,1-5.19-3.61l-.4.2-.72.16a2.85,2.85,0,0,1-2-.33l-.81-.42c-1.29-.93-2.82-1.46-4-2.51l-.18-.56-.19-.08a2.84,2.84,0,0,1-1.47-1l-.31-.62a7.15,7.15,0,0,1-.56-2.25,2.63,2.63,0,0,1-.32-.8,3.45,3.45,0,0,1-1.3-1.88.48.48,0,0,1-.28-.62.42.42,0,0,1,.16-.21h0a4.09,4.09,0,0,0-.43-.25l-.29,0-.86.22a2.26,2.26,0,0,1-.77-.23c-.94-.89-.94-.89-1.15-1.38,0-.06,0-.12,0-.17l-.47,0a1.61,1.61,0,0,1-.23-.1c-.15-.25-.15-.25-.25-.31a1.59,1.59,0,0,1-.12-.18c0-.36,0-.36-.05-.44a.67.67,0,0,1,0-.19l.19-.28.74.44-.05-.27.26.24-.21-.24.28.06-.35-.12a1.88,1.88,0,0,0,.67-.26,1,1,0,0,0,.34-.24l-.1-.14,1.06-.31.21.12a.24.24,0,0,1,.16-.23l.27-.08,0-.07v0l.13-.25,0-.05h0l.56-1.05a2.73,2.73,0,0,1,.48-.1l-.19-.06c-.13,0-.19-.32-.25-.32a17.14,17.14,0,0,0-3.74.83.42.42,0,0,1-.58-.07.41.41,0,0,1,.08-.58,8.93,8.93,0,0,1,7.07-4.16c.67-.21,1.32-.45,2-.69l-.15-.07.56-.08.06,0-.6-.23h-.32a26.25,26.25,0,0,1-4.71,1,22,22,0,0,1-2.56.19.36.36,0,0,1-.48-.2.36.36,0,0,1,.19-.47c2.1-1.6,4.84-2.8,7.51-2.35a2,2,0,0,1,1.37-.25h0l-.46-.22c.36-.09.7.12,1,.09l-.39-.44c1.71-.56,3.28-1.65,5.1-1.74l.19-.05a5.43,5.43,0,0,1,1.45-1.79l-.74.21h0a3.44,3.44,0,0,1,1.23-1.14,5,5,0,0,1,4.78.07c2.52-1.65,5.07-3.28,7.5-5.09a.3.3,0,0,1,.41.07.32.32,0,0,1,0,.43,45.76,45.76,0,0,1-5.09,4.26,43.5,43.5,0,0,0,5.13-2.2l.59-.43a1.84,1.84,0,0,1,.66-.27,39.52,39.52,0,0,0,6-3.81c1.63-1.36,3-2.6,4.57-4.09a33.84,33.84,0,0,1,6.61-5.51.72.72,0,0,1,1,.21.8.8,0,0,1-.09,1.08c-4.56,4.15-8.89,8.49-14.46,11.43l-1.79.93.11.15a1.33,1.33,0,0,1,.17.64c.68-.33,1.39-.62,2.11-.89a18.85,18.85,0,0,1,5.29-3.87,21.59,21.59,0,0,1,4.39-1.17c1.45-1.14,2.85-2.34,4.34-3.45,0-.07.13-.06.2,0a.17.17,0,0,1,0,.22,30.27,30.27,0,0,1-2.71,3.05,1.62,1.62,0,0,1,.77.72,1.53,1.53,0,0,1,.13,1.08l.79-.41a.35.35,0,0,1,.46.15.34.34,0,0,1-.1.48l-3.19,1.72q-1.72,1.36-3.49,2.65a2.24,2.24,0,0,1,.84.62h0l.57-.36a40.06,40.06,0,0,1,10.13-7.53.16.16,0,0,1,.21.07.14.14,0,0,1,0,.21,33,33,0,0,0-3.31,1.91h0a.19.19,0,0,1,.12.19.14.14,0,0,1-.17.11.18.18,0,0,1-.12-.19,40.78,40.78,0,0,0-5.56,4.43,50.08,50.08,0,0,1,5.62-3.18l.44-.65a.16.16,0,0,1,.21,0,.17.17,0,0,1,0,.21l-.13.17a.84.84,0,0,1,1.06.42.83.83,0,0,1-.27,1.13c-.94.64-1.9,1.24-2.87,1.82l-.27.26-.21.38c1.62-.71,3.25-1.38,4.89-2a.29.29,0,0,1,.39.12.3.3,0,0,1-.08.41,78,78,0,0,1-7.35,5.86l-1.61,3.44.36-.18c2.94-1.68,4.42-4.91,7.06-6.91a.13.13,0,0,1,.2,0,.14.14,0,0,1,0,.21,40.7,40.7,0,0,0-3.31,3.6,34.08,34.08,0,0,0-2.63,3.06c2.08-1.42,3.72-3.39,5.67-5a.24.24,0,0,1,.3-.06.17.17,0,0,1,0-.14,4.27,4.27,0,0,1,.59-1,.14.14,0,0,1,.21,0C556.29,418.33,556.29,418.43,556.25,418.51Zm-43.91,13.63-.11-.05.3,0,.64.43Zm-2.49,4.33h0l-.37-.24Zm19.85-18.24a12.74,12.74,0,0,1-3.7,1.42l.77-.57C527.73,418.77,528.7,418.49,529.7,418.23Zm-21.16,13.09a6.06,6.06,0,0,1,1.47.6,2.16,2.16,0,0,1,.65-.47,17.84,17.84,0,0,1,2-.83c-.2-.17,0-.22,0-.29l.2-.18c-.73.22-1.48.42-2.24.62A15.7,15.7,0,0,1,508.54,431.32Zm-4.06,3.39-.1,0-.06-.38S504.38,434.46,504.48,434.71Zm.11.64h.12C504.74,435.48,504.68,435.45,504.59,435.35Zm1.08-.09a1,1,0,0,0-.22-.1Zm5.88,8.89-.57-1.76.5,1.71Z"/><path d="M555.59,529.46l-.57-.26c.14-.22.5-.26,1-.2a9.63,9.63,0,0,0-7-.1,10,10,0,0,0-4.33,3.26c-1.15.17-1.76.93-1.34,1.67a3.23,3.23,0,0,0,2.86,1.14,4.54,4.54,0,0,1,.92.18c1.26.49,2.53.9,3.86,1.31.66.2,1.33.39,2,.57l2.11.55q-1-.41-1.89-.75a14.38,14.38,0,0,0,2.44.43l-.58-.49a10.51,10.51,0,0,0,4.36.72c1.27-.11,2.21-.6,2.5-1.52.58-1.85-1.68-4.81-4.85-6Z"/><path d="M548,524.79a43.54,43.54,0,0,1,5.12,1.05l.46.3-1-1.5,0,.1c-.5,1.5-2.18,2.38-3.83,3.08l-.53.33a.79.79,0,0,0-.14.83,2.28,2.28,0,0,0,2.15,1.13l1.08,0c2.89.38,7,.3,6.85-2.56-.05-.66-.79-1.45-1.29-2.18a3.33,3.33,0,0,0-3.27-1.7c-1.27.19-1.87,1.16-1.36,2.16l-.76-.08c.09-.16.19-.3.28-.45.16.92-.81,1.32-1.36,1.92l-1.09.48,2,2,.46-.39-.28-.21a12.83,12.83,0,0,1,2.78-2.21l1.21-1.13c.2-.53-.25-1.23-1-1.57l-1.06-.37.52.24c-2.07-.21-4.08-.1-6-.13-.33,0-.59.15-.59.4A.61.61,0,0,0,548,524.79Z"/><path d="M553.85,523a1.89,1.89,0,0,0,1.16.15c0-.13,0-.2,0-.23l-.79-.32C553.69,522.43,553.63,522.7,553.85,523Z"/><path d="M555.06,523l.34.14-.29-.21,0,0Z"/><path d="M561.76,713.71c.19,4.31.14,8.61,0,12.92s-.3,8.62-.44,12.93q-.48,12.95-.95,25.91-1,25.92-2.22,51.89c-.06,1.16,0,2.13.2,2.19s.34-.84.38-1.91q1.26-26,2.28-51.82l1-25.84.45-12.91c.18-4.3.25-8.6.07-12.91a5.47,5.47,0,0,0-.45-2.28C561.82,711.82,561.72,712.63,561.76,713.71Z"/><path d="M538.43,971.86c0-.82-.16-.79-.26.06a19,19,0,0,0-.08,2.85c0,.69.17.66.26-.06A20,20,0,0,0,538.43,971.86Z"/><path d="M530.13,964.35c-.27-4.84-.57-9.44-1-13.54a17.57,17.57,0,0,1,0-2.27c-.19.28-.39-.65-.51-2.4-1.25-17.21-2.36-35.07-3.31-53.19s-1.78-36.48-2.58-54.71a3.93,3.93,0,0,1-.65-1.55c-.71-2.53-1.15-7.6-1.07-12.85l.14-4c.25-16,.55-32,1.07-47.89-.32-3.26-.52-7-.57-11.15-.78-13.78-1.58-27.62-1.9-41.76-.23.89-.5,1.42-.76,1.41-.63-.28-1-3.56-.65-7.38.14-1.93.33-3.85.55-5.77q-1.22,8.28-1.61,16.56c0,.8-.07,1.53-.14,2.2-.1,6.06-.18,12.18-.18,18.41.06,54.33,3.38,105.41,7,156.09a13.82,13.82,0,0,1,0,2.87c-.11.49-.27.4-.37-.53-3.4-32-8.08-59.62-10.65-95.76-1.52-21.51-2.76-42.88-3.63-64.4q-.29-8.09-.56-16.18c-.1-2.7-.19-5.41-.14-8.12s.22-5.42.47-8.13.65-5.43,1.14-8.15,1.13-5.45,1.87-8.17a165.88,165.88,0,0,1,5.52-16.42c2.37-5.73,4.83-11.44,7-17.13.56-1.44,1.14-2.87,1.66-4.3l.78-2.13.82-2.33.79-2.32.42-1.2c.14-.45.28-.76.42-1.12.57-1.35,1.05-2.45,1.48-3.59a26.73,26.73,0,0,0,1.68-6.71,20.79,20.79,0,0,0-.32-6.81,19.75,19.75,0,0,0-2.54-6.4c-.61-1.07-1.39-2.12-2.28-3.52a21,21,0,0,1-2.67-5.39c-.15-.54-.31-1.1-.42-1.65s-.2-1.1-.27-1.65l-.12-1.59,0-1.58a18.54,18.54,0,0,1,.4-3.2c.09-.54.27-1,.41-1.56a12.35,12.35,0,0,1,.52-1.52,26.68,26.68,0,0,1,2.76-5.17c1-1.44,1.93-2.65,2.68-3.66l.49-.69a2.35,2.35,0,0,0,.19-.3l.08-.12h0s.06-.1.08-.15a.5.5,0,0,0,0-.36.46.46,0,0,0-.15-.31c0-.07-.07,0-.15-.15a10,10,0,0,0-.89-.78c-.39-.29-.8-.59-1.29-.93l-.37-.25-.78-.51c-.58-.35-1.14-.74-1.7-1.1s-1.1-.75-1.62-1.14-1.11-.73-1.56-1.15l-1.36-1.23c-.43-.41-.8-.86-1.21-1.27a10.53,10.53,0,0,1-2.62-5.9c0-.56,0-1.14,0-1.7a12.34,12.34,0,0,1,.29-1.65c.13-.52.29-1,.46-1.51s.48-.93.71-1.38a13.64,13.64,0,0,1,5-4.68c2.27-1.35,5.31-2.09,7.9-2.91.79-.26,1-.3,1.37-.42l.53-.15.27-.07c.11,0,0,0,.06,0s.08,0,.12,0l.21-.11c.09-.05.27-.17.15-.3a.8.8,0,0,0-.34-.18l-.12,0s0,0,0,0,0,0,0-.05l-.64-.13-1.31-.28-5.5-1.06c-1.89-.38-3.86-.78-5.9-1.31a51,51,0,0,1-6.5-2.09,28.15,28.15,0,0,1-7.52-4.4c-.68-.62-1.35-1.22-2-1.93a23.47,23.47,0,0,1-2-2.44,19.22,19.22,0,0,1-1.74-3c-.26-.55-.5-1.11-.73-1.68s-.39-1.17-.57-1.78-.34-1.22-.46-1.82-.2-1.21-.28-1.83-.15-1.26-.16-1.83,0-1.16,0-1.74,0-1.18.07-1.75l.12-1,.05-.51c.09-.68.18-1.37.3-2.05A50.2,50.2,0,0,1,504,516.8c.39-.81.8-1.66,1.21-2.44l1.18-2.25c.82-1.57,1.59-2.84,2.43-4.26q2.42-4.1,4.87-7.87c2.46-4.46,6-6.54,7.95-4.56,1.18,1.19,1.48,3.35,1,5.64.23-.28.46-.55.7-.81l1.27-1a4.55,4.55,0,0,1,3.62-1.13l1.47.26c2.35,1,5.21,1.14,7.55,2.81l.35,1.07.37.09a4.32,4.32,0,0,1,2.86,1.47l.61,1.19a12.45,12.45,0,0,1,1.06,4.35,4.1,4.1,0,0,1,.62,1.48,6,6,0,0,1,2.54,3.45.85.85,0,0,1,.55,1.15.93.93,0,0,1-.35.36h0a8.85,8.85,0,0,0,.89.5c.38,0,.61,0,.61,0,1-.14,1-.14,1.84-.24a5.36,5.36,0,0,1,1.62.61c2,1.89,2,1.92,2.4,2.87,0,.11,0,.21,0,.31a10.37,10.37,0,0,1,1,.23,3.8,3.8,0,0,1,.49.3c.32.5.32.5.53.67a2.79,2.79,0,0,1,.25.38c0,.64,0,.63.07.8a1.1,1.1,0,0,1,0,.31l-.46.38-1.59-1.11.07.48-.53-.53.42.5-.61-.22.75.35a4.42,4.42,0,0,0-1.5.15,1.68,1.68,0,0,0-.77.27,2.46,2.46,0,0,1,.2.26l-2.32.13c-.16-.08-.3-.17-.43-.25a.39.39,0,0,1-.39.31l-.57.08-.08.1,0,0-.31.35-.06.08h0l-1.35,1.47c-.35,0-.69,0-1,.06a2.4,2.4,0,0,1,.38.12c.25.09.35.52.46.53,2.78.23,5.39,0,8.23.15a1.35,1.35,0,0,1,1.29.45c.28.38.16.76-.27.87a15.16,15.16,0,0,1-7.12,2.86,40.17,40.17,0,0,1-4.25.51c-1.41.11-2.84.17-4.27.2-1.33.21-2.61.49-3.9.82l.29.08c-.38,0-.71.08-1.06.13l-.1,0,1.07.24.6,0c2.92-.76,6.18-.6,9.56-.51a18.12,18.12,0,0,1,2.73.31l2.78.53a1.17,1.17,0,0,1,1,.55c.13.29-.12.52-.55.51a56.24,56.24,0,0,1-15.66.76,7,7,0,0,1-2.53.3h0l.79.22c-.64.1-1.19-.09-1.81,0l.65.43a19.8,19.8,0,0,0-2.12.64c-.64.22-1.39.48-1.91.7l-.89.33-.78.27c-.25.08-.58.19-.79.23l-.73.12-.2.06c0,.1,0,.16-.05.23s-.1.14-.08.11h0l-.38-.1-.29-.07c-.22-.05-.54-.09-.69-.14l-.46-.1a6.87,6.87,0,0,0-1-.09,2.21,2.21,0,0,0-.52,0l-.22,0h-.07l.06,0,.12,0,.21-.08c.08,0,.07,0,.26-.11a3.9,3.9,0,0,0,.79-.4l.52-.29-.08.07c-.08,0,0,.14-.06.23a.47.47,0,0,0,0,.32,2.62,2.62,0,0,0,.12.41c-.08-.21-.09-.39-.15-.56a3.24,3.24,0,0,1,.06-.39l.12-.1s-.58.31-.64.36a4.07,4.07,0,0,1-.55.29l-.3.11-.12.06a2.26,2.26,0,0,1-.31.1l-.08,0h.1a2.29,2.29,0,0,1,.39,0l.36,0a4.56,4.56,0,0,1,.75.06,5,5,0,0,1,.69.14c.24,0,.88.17.78.16l-.83-.17a4.53,4.53,0,0,0-.75-.15l-.4,0a1.91,1.91,0,0,1-.32,0,2.6,2.6,0,0,0-.4,0l-.23,0h-.14l.09,0,.17,0c.13,0,.15-.07.34-.14a5,5,0,0,0,.62-.28l.28-.17.45-.25.22-.14c.07-.05,0,0,0,0l-.07,0s0,.1,0,.16,0,.13,0,.21l.07.27a3,3,0,0,0,.27.64,12.9,12.9,0,0,0,2.8,3.1,43.37,43.37,0,0,0,4.38,3.25c2.2,1.44,4.64,2.88,7.2,4.3l.48.27.24.14.38.19a13.9,13.9,0,0,0,1.54,1c1,.66,2.11,1.12,3.14,1.68a27.41,27.41,0,0,1,4.89,3.89,8.48,8.48,0,0,1,.86,1.08c.27.37.5.76.75,1.14a9.9,9.9,0,0,1,.51,1.25l.21.66a5.51,5.51,0,0,1,.08.71c.05.47,0,1,.05,1.44a7.29,7.29,0,0,1-.3,1.36,7.21,7.21,0,0,1-1.13,2.29,15.78,15.78,0,0,1-1.77,1.91c-.37.29-.73.58-1.13.85s-.82.54-1.29.79a43.12,43.12,0,0,1-6,2.63l-2.78,1-.89.32-.11,0,0,0-.07,0-.15,0c-.36.1-.69.2-1,.32a3.55,3.55,0,0,0-1.85,1.15,1,1,0,0,0,0,1,2.4,2.4,0,0,0,.56.7c.42.4.88.74,1.29,1.09l1.4.81c.66.42,1.33.84,2,1.34a23.6,23.6,0,0,1,2.14,1.73,17.63,17.63,0,0,1,2.15,2.5,12.67,12.67,0,0,1,2.29,6.06,11.83,11.83,0,0,1-1,6.39,10.11,10.11,0,0,1-.76,1.46,11.45,11.45,0,0,1-.91,1.39l-.9,1.15-.76.87c-1,1.11-1.91,2.05-2.63,2.89a10.75,10.75,0,0,0-2.76,4.7c0,.42-.15.85-.17,1.27a6.77,6.77,0,0,0,0,1.2,6.51,6.51,0,0,0,.85,2.37c1.05,1.86,3,4.34,4.43,7a55.56,55.56,0,0,1,6.42,17.3,80.84,80.84,0,0,1,1.15,9.25l.18,2.16a17,17,0,0,0,.25,1.84c.23,1.26.46,2.5.72,3.72.54,2.67,1.18,5.34,1.83,8s1.4,5.39,2.14,8.08c1.47,5.39,3.06,10.81,4.4,16.19a164.53,164.53,0,0,1,3.41,16.17c.37,2.23.34,4.22,0,4.61-.32.22-.76-1.25-1.09-3.48q-.95-5.79-2.27-11.61c-.44-1.94-.92-3.89-1.42-5.83s-1-3.89-1.49-5.83c-1-3.89-2.1-7.81-3.09-11.69l-1.45-5.85c-.45-2-.87-3.86-1.28-5.8l-.58-2.91c-.16-.9-.33-1.8-.48-2.71l-.22-1.37a11,11,0,0,1-.16-1.33l-.22-3.11a65,65,0,0,0-2.08-13.21,53.12,53.12,0,0,0-5.05-12.19c-1.07-1.91-2.32-3.73-3.39-5.33a21.37,21.37,0,0,1-1.34-2.2,7,7,0,0,1-.67-1.81,9.59,9.59,0,0,0,1.47,3.27c.81,1.28,1.84,2.73,2.77,4.27A52.1,52.1,0,0,1,544,629.2a52.71,52.71,0,0,1,2.57,10.88c.25,1.85.39,3.72.5,5.56s.12,3.7.28,5.08c.2,1.57.39,3.06.63,4.66s.54,3.29.84,4.93c.56,3.26,1.26,6.63,1.93,9.94,1.36,6.66,2.82,13.37,4,20.09.65,3.44,1.23,6.88,1.71,10.34a85.52,85.52,0,0,1,.77,10.17c.59,8.59.17,17,.06,25.48s-.33,16.81-.49,25.21c-.35,16.82-.64,33.72-.83,51.24-.37,29.93-.84,56.11-1.92,85.91-1.56,41.85-4.27,80-10.3,121.29-.77,5.49-1.79,10.58-2.14,11.22s0-3.33.7-8.84,1.23-10.77,1.81-16.14,1-10.75,1.51-16.13c.91-10.74,1.73-21.47,2.39-32.21,1.34-21.47,2.27-43,3-64.57,1.43-43.22,2.08-86.94,3.31-132,.24-9.72.47-19.28.71-28.79a.61.61,0,0,1-.37.23c-.48,0-.91-.92-1.27-2.44-.3,10.79-.7,21.68-1.18,32.6.38,30.4.45,60.84-1.33,93.24-1.23,22.24-3.07,42.37-4.79,63-.87,26.08-2,52.08-3.91,78.42a16.05,16.05,0,0,1-.3,2.52c-.11.38-.14-.19-.08-1.25.91-18.12,1.55-36.68,2-55.42-.52,3-1.07,4.71-1.58,4.46s-.91-2.53-1.13-6l-.52,12.74c-.11,2.62-.39,4.69-.64,4.61s-.39-2.15-.3-4.65q.84-26,1.69-51.92c.15-20.77.31-41.46.46-62.27a18,18,0,0,1-1.89,6,0,0,0,0,1,0,0l-.12,9.63q.76,44.1,0,89.1t-3.25,90.48a14.1,14.1,0,0,1-.2,2.19,10.85,10.85,0,0,1,0-2q1.34-27.45,2.15-54.76v.08c-.08.73-.2.87-.24.06a21,21,0,0,1,.09-2.85c.09-.84.2-.76.25-.08,1-33.9,1.31-67.58.95-100.81q-.61,46.32-2,92.58c0,3.36.08,6.72.12,10.13a14.64,14.64,0,0,1-.19,2.52c-.09.26-.17-.42-.17-1.38s0-1.89,0-2.83c-.2,5.84-.69,10.34-1.17,10.24-.48-.33-.82-5.35-.75-11.42q.12-24.36.24-48.6l-.08-5.26-.3-5.28c-.47,25.17-.91,50.28-1.13,75.25a14.66,14.66,0,0,1-.28,4,13.08,13.08,0,0,1-.32-3.84c-1-44-2.12-88.57-2.7-133.32-1.39-14.71-2.77-29.46-4.19-44.47,0,1.88,0,3.8,0,5.71.06,24.33,1.24,46.82,2.42,69.12s2.34,44.4,2.87,68a7.41,7.41,0,0,1-.15,2.31c-.1.13-.22-.68-.24-1.87-.65-23-2-44-3.11-66.8-.92-18.9-1.78-36.87-2.94-54.44.66,35.9,2.78,70.34,4,105.91a30.13,30.13,0,0,1,0,4.1,2.85,2.85,0,0,1,.18.88c.41,4.45.71,9.3,1,14.25a13,13,0,0,1-.05,2.65C530.33,966,530.21,965.41,530.13,964.35Zm5.27-440.26.21.06-.58,0-1.18-.48S534.62,523.87,535.4,524.09Zm5.41-7.12h0l.71.37Zm4.64,118.62A51.86,51.86,0,0,0,539.89,621c-1.26-2.26-2.8-4.39-3.9-6.17a7.26,7.26,0,0,1-1.38-4.66,8.63,8.63,0,0,1,1.57-4.55,48.18,48.18,0,0,1,4.1-4.73c.44-.5.84-.93,1.32-1.57a14,14,0,0,0,1.51-2.24,11.91,11.91,0,0,0,1.53-5.09,12.64,12.64,0,0,0-3.89-9.68,14.14,14.14,0,0,1,3,4.31,11.07,11.07,0,0,1,.78,2.51,8,8,0,0,1,.16,1.3,9.5,9.5,0,0,1,.06,1.31,12.26,12.26,0,0,1-1.32,5A15.43,15.43,0,0,1,542,599c-.59.79-.91,1.17-1.35,1.68-2.64,2.88-4.59,4.76-5.4,7a8.11,8.11,0,0,0-.43,1.73,5.51,5.51,0,0,0-.1.9,6.26,6.26,0,0,0,0,.87A7.57,7.57,0,0,0,536,614.6c.8,1.34,1.89,2.87,2.9,4.53a46,46,0,0,1,2.79,5.18A50.64,50.64,0,0,1,545.45,635.59Zm-2.61-110.44a17.32,17.32,0,0,1-2.9-1,5.62,5.62,0,0,1-1.35.72c-1.32.5-2.69,1-4,1.4.36.2,0,.31-.07.41l-.4.28a43,43,0,0,1,4.41-1.12A26,26,0,0,1,542.84,525.15Zm9-4.44.22.12.08.67Zm-.18-1.15-.25,0C551.37,519.29,551.48,519.35,551.68,519.56Zm-2.33-.18a2.57,2.57,0,0,0,.45.24ZM537.84,503l1.08,3.33-.95-3.26Z"/><path d="M554.74,40.59l-.41.33a.87.87,0,0,1-.06-.94c-3.32,3.5-1.95,8.5,1.11,11.58a2,2,0,0,0,2,2.2,2.29,2.29,0,0,0,2.49-1.83,3,3,0,0,1,.48-.7,15.75,15.75,0,0,0,2.54-2.56,22.23,22.23,0,0,0,2-2.91l-1.2,1.18a4.9,4.9,0,0,0,.81-1.83l-.71.21a4.1,4.1,0,0,0-.73-6.38,5.76,5.76,0,0,0-7.43.74Z"/><path d="M547.21,44.37c.91-1.31,1.87-2.54,2.86-3.76l.44-.23h-1.93l.13,0c1.52,1.27,2,3.24,2.36,5l.23.65a1.52,1.52,0,0,0,1,.59,1.76,1.76,0,0,0,2-1.18l.24-.94c1.28-2.27,1.62-5.83-1.55-7.34a6.38,6.38,0,0,0-2.6-.14,2.26,2.26,0,0,0-2.61,1.83,2.15,2.15,0,0,0,2,2.39c-.11.19-.21.39-.31.59l-.43-.5c1.09.39,1.26,1.47,1.79,2.28l.22,1.2,3-.57-.34-.62c-.13,0-.32.12-.33.11a17.46,17.46,0,0,1-1.88-3.64l-1-1.69a1.52,1.52,0,0,0-1.93,0l-.69.7.4-.31c-.79,1.64-1.3,3.4-2.12,5.06a.51.51,0,0,0,.23.73A.61.61,0,0,0,547.21,44.37Z"/><path d="M547.21,38.39a1.25,1.25,0,0,0,.48-.9l-.23-.18-.55.5C546.52,38.17,546.79,38.39,547.21,38.39Z"/><path d="M547.46,37.31l.23-.21-.29.13s0,0,0,0Z"/><path d="M598.35,205.92c1.48,2.27,3,4.5,4.56,6.75l2.3,3.38c.79,1.12,1.63,2.19,2.44,3.29l4.93,6.57,5.21,6.37,2.62,3.19,2.75,3.08,5.52,6.16,5.78,5.93c1,1,1.92,2,2.91,3l3,2.86c.54.51,1.06.87,1.17.79s-.25-.53-.75-1l-3-2.85c-1-1-1.93-2-2.9-3l-5.75-5.93c-1.86-2-3.67-4.1-5.5-6.14l-2.74-3.07-2.61-3.17-5.19-6.35-4.91-6.55L605.76,216l-2.29-3.37-4.55-6.73c-.39-.62-.8-1.06-1-1.07S598,205.33,598.35,205.92Z"/><path d="M718.09,321.47c-.52-.16-.55-.06-.07.25a8.25,8.25,0,0,0,1.72.81c.44.14.47,0,.06-.25A8.49,8.49,0,0,0,718.09,321.47Z"/><path d="M710.14,326.6c-3-1.22-5.89-2.52-8.53-3.48a8.87,8.87,0,0,1-1.38-.69c.09.24-.54.1-1.64-.36a308.57,308.57,0,0,1-32.42-16.42l-4-2.33-4-2.47c-2.65-1.67-5.33-3.3-8-5-5.19-3.53-10.48-7-15.5-10.76a2.51,2.51,0,0,1-1.13-.3,30,30,0,0,1-7.35-5l-2-1.86a326.65,326.65,0,0,1-23.77-23.14c-1.74-1.46-3.64-3.28-5.63-5.33-1.75-1.65-3.56-3.24-5.25-5l-5.1-5.17c-3.47-3.41-6.67-7.13-10-10.85.26.58.35,1,.18,1.11-.5.14-2.25-1.43-3.88-3.58l-2.42-3.26c1.12,1.59,2.16,3.24,3.34,4.79l3.48,4.69c.35.44.64.86.91,1.26.66.84,1.33,1.67,2,2.51s1.34,1.68,2.06,2.48l4.32,4.89a291.55,291.55,0,0,0,40.91,37.5A346.84,346.84,0,0,0,670,309.43a8,8,0,0,1,1.66,1.07c.23.25.12.33-.46,0l-7.32-3.62c-1.21-.6-2.41-1.19-3.62-1.77l-3.53-1.86-7.09-3.7c-2.35-1.25-4.65-2.61-7-3.93a247.3,247.3,0,0,1-29-19.14l-8.93-7.1c-2.91-2.45-5.78-5-8.67-7.45l-2.16-1.88-2.1-2-4.19-3.92c-1.39-1.32-2.83-2.6-4.17-4l-4.05-4.12L575.24,242c-1.37-1.37-2.61-2.86-3.93-4.29l-3.91-4.36c-1.31-1.46-2.62-2.92-3.84-4.45l-7.48-9.18-7.15-9.59a409.5,409.5,0,0,1-24.52-42.66,315.73,315.73,0,0,1-18.91-46.71c-.49-1.4-.87-2.82-1.27-4.24s-.8-2.85-1.2-4.26-.79-2.85-1.18-4.26-.81-2.84-1.11-4.27c-.65-2.88-1.29-5.74-1.94-8.6-.31-1.43-.63-2.87-.94-4.3l-.75-4.33-.37-2.16-.19-1.08-.06-.31-.24-1-.46-2.11c-.28-1.4-.63-2.8-.81-4.21-.43-2.82-.81-5.65-1.16-8.49l-.51-4.28c-.16-1.42-.21-2.87-.32-4.32-.73-4.35,1.72-8.35,5.42-8.85A6.78,6.78,0,0,1,504.35,52c0-.34,0-.68,0-1l.39-1.61a6,6,0,0,1,.95-2.07,5.83,5.83,0,0,1,1.65-1.52L509,44.7c3-1.4,5.58-3.67,8.76-4.7l1.18.32.35-.26a5.66,5.66,0,0,1,3.27-1.57l1.44.16a14.54,14.54,0,0,1,4.58,1.57,5,5,0,0,1,1.76.32,7.08,7.08,0,0,1,4.73-.18,1,1,0,0,1,1.4.19,1,1,0,0,1,.2.5h0a10.18,10.18,0,0,0,.93-.47c.15-.34.25-.53.25-.53.3-.91.3-.91.59-1.69a4.6,4.6,0,0,1,1.27-1c2.62-.6,2.62-.59,3.72-.41.11.06.22.11.31.17.41-.57.44-.61.56-.76a2.62,2.62,0,0,1,.45-.25c.6,0,.6,0,.82-.07a3,3,0,0,1,.46,0c.64.38.64.37.83.4a2.33,2.33,0,0,1,.31.2l.28.62-1.61.73.53.21-.73.15.66-.07-.42.39.6-.44a3.41,3.41,0,0,0-.3,1.36,1.41,1.41,0,0,0,0,.8,2.34,2.34,0,0,1,.35,0c-.32,1-.32,1-.67,2a3.61,3.61,0,0,1-.44.22.45.45,0,0,1,.2.51l-.15.53.08.12h.05l.27.46.07.1h0c.19.31.46.77,1.18,2a5.39,5.39,0,0,1-.36.88L547,47c.22-.16.78,0,.84-.09A34,34,0,0,0,550.72,40a.81.81,0,0,1,.79-.84.82.82,0,0,1,.91.73A13.22,13.22,0,0,1,554,47.59a19.53,19.53,0,0,1-2.16,7.78c-.32,1.3-.6,2.61-.87,3.92l.29-.19c-.15.34-.31.69-.45,1,0,0,0,.07,0,.11.32-.27.68-.54,1-.8.11-.18.21-.36.31-.54.49-3,2.15-5.79,3.24-8.66a12.46,12.46,0,0,1,1.14-2.17c.47-.7,1-1.38,1.38-2.08a.79.79,0,0,1,.9-.56.64.64,0,0,1,.58.76,26.55,26.55,0,0,1-.49,7.4,16.38,16.38,0,0,1-3.47,6.83,3.9,3.9,0,0,1-.87,2.51v0l.83-.59c-.19.68-.88,1.07-1.15,1.7l1.14-.29c-.32,1.67-.38,3.39-.55,5.1a21.32,21.32,0,0,1-.4,2.54,11.71,11.71,0,0,1-.73,2.48,2.29,2.29,0,0,1-.07.36,17.82,17.82,0,0,1,1.23,1.92c.09.16.17.33.25.5a.77.77,0,0,1,.06.15l.08.55c.06.36.11.73.16,1.1.21,1.49.39,3,.53,4.62,0-2.15-.07-4.25-.1-6.4,0,0,0,.22.07.34l.07.43.15.86.28,1.72c.19,1.14.32,2.3.52,3.46.42,2.32.78,4.69,1.05,7.16,1.57,13.38,3.33,28.66,2.88,36.53A284.21,284.21,0,0,0,575.18,165a269.52,269.52,0,0,0,20,35.24,5.74,5.74,0,0,1,1.22,2.68c-.14.27-.86-.35-1.65-1.5A254.26,254.26,0,0,1,579,176.59c-1.19-2.16-2.27-4.37-3.42-6.56l-1.7-3.28-.84-1.65-.77-1.68c-2-4.51-4.24-8.94-6-13.56a244.44,244.44,0,0,0,21.23,45.61c.58.92,1.15,1.85,1.73,2.78l1.86,2.72c1.22,1.79,2.34,3.63,3.43,5.5,1.45,2.32,3.12,4.46,4.67,6.68.79,1.1,1.57,2.2,2.36,3.29s1.56,2.2,2.41,3.24c3.35,4.23,6.58,8.52,10.17,12.53a252.36,252.36,0,0,0,22.93,23.54l5.35,4.68,2.63,2.29,2.69,2.17c3.56,2.88,7,5.76,10.69,8.4l5.43,4c1.84,1.31,3.73,2.58,5.61,3.89s3.76,2.64,5.72,3.91l6,3.82c1.43.89,2.82,1.83,4.26,2.68l4.29,2.53c2.85,1.68,5.64,3.39,8.53,4.92s5.68,3.16,8.53,4.66l8.6,4.42c11.53,5.72,23.23,11,35.63,16.13,3.33,1.25,6.3,2.76,6.54,3.34s-2.3,0-5.67-1.21c-26.27-9.79-51.48-21.88-75-37.24a322.66,322.66,0,0,1-33.9-25.3,276.91,276.91,0,0,1-30.33-30.54l-3-3.56c-1-1.19-1.92-2.44-2.88-3.64-1.89-2.45-3.82-4.84-5.65-7.28a.48.48,0,0,1-.12.29c-.29.23-.9,0-1.7-.65,1,1.44,2,2.82,3.13,4.2l3.2,4.18c1.08,1.39,2.09,2.84,3.24,4.18l3.37,4.1c6.66,7.24,13.84,14,21.14,20.84,1.85,1.69,3.77,3.32,5.64,5s3.74,3.43,5.73,5c3.93,3.27,7.8,6.72,11.94,10,11.21,9.14,21.64,17.23,32.89,24.7a394.86,394.86,0,0,0,46,22.83,6.25,6.25,0,0,1,1.47.77c.19.18-.19.13-.84-.13C725.16,320,714,315,703,309.55c1.56,1.2,2.4,2.1,2,2.43s-1.9,0-4.07-.8c2.46,1.35,5,2.62,7.45,3.95,1.53.81,2.67,1.61,2.52,1.79s-1.45-.27-2.92-1c-10.26-5.19-20.11-11.09-29.8-17.21a338.67,338.67,0,0,1-33.82-23.58,11.21,11.21,0,0,1,2.28,3.55h0c1.67,1.35,3.41,2.58,5.11,3.88a425,425,0,0,0,50.58,30.62A462.94,462.94,0,0,0,757.43,337c.74.27,1.33.56,1.31.66s-.61,0-1.28-.29c-11.47-4.07-22.71-8.65-33.78-13.5l0,0c.42.25.46.39-.06.25a9,9,0,0,1-1.72-.81c-.47-.3-.38-.38.06-.25a434.15,434.15,0,0,1-58.68-32.18c8.39,5.92,17.17,11.29,26,16.55l6.72,3.76c2.24,1.25,4.46,2.55,6.76,3.7,4.56,2.35,9.08,4.81,13.73,7l6.26,2.54a7.21,7.21,0,0,1,1.48.8c.12.15-.33.06-.93-.17l-1.75-.71c3.51,1.68,6.13,3.2,5.86,3.67-.21.21-1.13.08-2.46-.31a31.09,31.09,0,0,1-4.91-1.9c-4.94-2.26-9.91-4.47-14.73-7-2.41-1.23-4.87-2.39-7.25-3.69l-7.13-3.9c-1-.54-2.1-1.06-3.13-1.62L684.65,308a384.5,384.5,0,0,0,44.83,23.23c1.33.56,2.4,1.17,2.36,1.36s-1.18-.13-2.51-.69a359.77,359.77,0,0,1-79.21-42.37l-6.46-3.86c-2.16-1.31-4.24-2.71-6.38-4.07s-4.31-2.72-6.4-4.17l-6.33-4.4,3,2.56a265.08,265.08,0,0,0,38.78,26.81c3.32,1.85,6.57,3.78,9.92,5.55l10.09,5.3,10.33,5.12,10.64,5a3.7,3.7,0,0,1,1.33.84c0,.12-.49,0-1.22-.39-14.14-6.45-27-12.68-40.43-20.47-1.4-.81-2.8-1.58-4.17-2.4l-4-2.5c-2.66-1.68-5.37-3.25-8-5s-5.15-3.39-7.7-5.07l-1.91-1.25L639.3,286l-3.72-2.59,3.65,2.8,1.83,1.38,1.87,1.32,7.48,5.19c2.49,1.73,5.08,3.28,7.6,4.91s5.06,3.23,7.67,4.7l7.76,4.52c2.61,1.45,5.26,2.85,7.89,4.28l3.95,2.14,4,2,8.06,4.07a15.54,15.54,0,0,1,2.45,1.33,1.52,1.52,0,0,1,.6.14c2.84,1.08,5.86,2.4,9,3.7a6.19,6.19,0,0,1,1.59.84C711.22,326.92,710.82,326.85,710.14,326.6Zm-170-271.92.2-.14c-.1.15-.22.31-.35.49l-1.4.71ZM535.06,46h0l.81-.38ZM571.15,165.4a194.61,194.61,0,0,1-11.59-33.59l2.87,8.09c.31,1.07.59,2.15.92,3.22l1,3.18c.7,2.13,1.39,4.26,2.09,6.39s1.53,4.23,2.29,6.35ZM545.46,49a12.72,12.72,0,0,1-2.59,1.9,3.77,3.77,0,0,1,.18,1.57,36.92,36.92,0,0,1-.58,4.22c.49-.19.43.14.48.31l.12.51q.54-2.2,1.2-4.44A30.3,30.3,0,0,1,545.46,49Zm-1.31-10.23.19-.11.73.31Zm-1.24-.5-.12.2C542.51,38.36,542.62,38.3,542.91,38.25Zm-1.07,1.88a1.57,1.57,0,0,0,.42-.25Zm-22.1.42,3.72,1-3.56-1Z"/><path d="M563.49,237.48l-.49-.26a1,1,0,0,1,.93-.4c-4.83-1.77-9.22,1.55-11.38,5.35a2.07,2.07,0,0,0-1.59,2.58,2.39,2.39,0,0,0,2.75,1.67,3.51,3.51,0,0,1,.89.19,19.9,19.9,0,0,0,7.38,2.21l-1.69-.65a6,6,0,0,0,2.23,0l-.49-.57a4.88,4.88,0,0,0,6.4-3.13,5.49,5.49,0,0,0-3.68-6.56Z"/><path d="M556.87,232c1.62.32,3.21.74,4.8,1.19l.4.33-.73-1.79,0,.13c-.68,1.88-2.45,3.11-4.13,4.11l-.56.46a1.53,1.53,0,0,0-.24,1.14,1.74,1.74,0,0,0,1.93,1.41l1-.14c2.76.29,6.56-.73,6.81-4.23a5.9,5.9,0,0,0-.89-2.44,2.4,2.4,0,0,0-2.84-1.72,2.17,2.17,0,0,0-1.6,2.74l-.71-.06.33-.58c0,1.15-1,1.72-1.59,2.52l-1.12.67,1.69,2.56.5-.56c-.09-.11-.24-.25-.24-.26a19.05,19.05,0,0,1,3-3.13l1.31-1.53a1.44,1.44,0,0,0-.73-1.79l-1-.38.47.26c-1.94-.11-3.88.07-5.8,0a.57.57,0,0,0-.64.5A.6.6,0,0,0,556.87,232Z"/><path d="M562.77,229.71a1.3,1.3,0,0,0,1.07.1l.09-.28-.71-.31C562.71,229,562.6,229.32,562.77,229.71Z"/><path d="M563.93,229.53l.3.14-.24-.22,0,0Z"/><path d="M443.73,281.56c-12.67,5.5-25.18,11.53-37.5,17.95-.41.21-.71.47-.67.59s.41,0,.79-.18q18.5-9.59,37.45-17.85c.42-.2.72-.45.72-.59S444.13,281.38,443.73,281.56Z"/><path d="M347.57,323.66c.24-.24.17-.32-.16-.18a3.32,3.32,0,0,0-1,.66c-.19.21-.12.3.16.18A3.27,3.27,0,0,0,347.57,323.66Z"/><path d="M345.68,315.69c1.52-1.29,3-2.52,4.17-3.72a3.88,3.88,0,0,1,.76-.53c-.18-.07,0-.41.58-.88,10.69-9.34,22.88-18.49,35-27.42a1.36,1.36,0,0,1,.3-.72,13.36,13.36,0,0,1,4.09-3.45l1.43-.78c5.68-3.36,11.35-6.69,17.1-9.83a32.66,32.66,0,0,1,3.7-2.79c4.54-3.5,9.12-7,13.92-10.38-.39.05-.66,0-.75-.17-.13-.47.87-1.46,2.24-2.26l2-1.24-6.07,3.19a6.65,6.65,0,0,1-.82.39c-2.17,1.26-4.32,2.6-6.5,4-19,12.1-35.73,25.19-51.92,38.46a3.31,3.31,0,0,1-1,.64c-.22,0-.26-.08,0-.34,9.74-9.08,17.74-17.79,29.5-27.31,14-11.27,28.22-22.11,43.5-32.66,8.28-5,16.21-9.84,24.2-14.79s16.05-9.94,24.64-15c5.81-3.38,11.58-6.65,17.38-9.75l1.09-.58.54-.3.23-.13.86-.51,1.72-1,3.45-1.92c4.61-2.52,9.29-4.84,14.08-7.13,3.43-2.15,7.66-1.2,9.4,2a6.93,6.93,0,0,1,0,6.3l.89-.34,1.55-.18a5.64,5.64,0,0,1,4.06,1.14l1.51,1.07c2.32,2.26,5.27,3.77,7.39,6.32l.16,1.2.36.23a5.81,5.81,0,0,1,2.66,2.43l.4,1.38a14,14,0,0,1,.3,4.81,5.12,5.12,0,0,1,.37,1.74,7,7,0,0,1,2,4.29,1,1,0,0,1,.35,1.37,1,1,0,0,1-.4.37h0a9.76,9.76,0,0,0,.79.68l.61,0c1-.06,1-.06,1.84-.09a5.11,5.11,0,0,1,1.48.78c1.6,2.19,1.6,2.2,1.85,3.28,0,.12,0,.23,0,.34a8.64,8.64,0,0,1,1,.24,2.3,2.3,0,0,1,.43.31c.22.56.22.56.39.73a3.22,3.22,0,0,1,.18.42c-.11.73-.11.73-.06.92a1.78,1.78,0,0,1-.08.36c-.31.31-.44.43-.49.49l-1.35-1.2v.56l-.43-.61.32.58-.55-.24.67.38a3.86,3.86,0,0,0-1.46.24,1.55,1.55,0,0,0-.77.34,2.72,2.72,0,0,1,.15.31c-1.14.1-1.14.1-2.27.17-.14-.11-.26-.22-.38-.33a.47.47,0,0,1-.42.38l-.58.07-.09.12,0,.05-.35.43-.07.1h0l-1.53,1.86a5.56,5.56,0,0,1-1,0l.36.19c.24.14.28.71.39.73a39.55,39.55,0,0,0,7.92,0,.9.9,0,0,1,1.15.41.81.81,0,0,1-.38,1.12c-3.88,4.35-10,5.75-15.87,5.15-1.42.16-2.83.37-4.24.59l.29.19-1.19-.05-.12,0,1.14.67c.22,0,.43.07.65.09,3.23-.63,6.58,0,9.91,0a40.94,40.94,0,0,1,5.28.76.79.79,0,0,1,.9.61.68.68,0,0,1-.57.83c-4.82,2.14-10.79,3.25-16,1.38a4.77,4.77,0,0,1-2.87,0h-.05l.87.59c-.76,0-1.37-.48-2.11-.54l.64,1c-3.65.45-7.19,2-10.91,1.57a2.85,2.85,0,0,1-.4,0,20.36,20.36,0,0,1-1.67,1.68c-.15.13-.3.26-.46.38l-.13.09-.32.16-.66.31c-.89.41-1.82.8-2.8,1.17l4.08-1.05a56.65,56.65,0,0,1-8.48,3.73c-8.34,2.85-18.24,4.86-23.68,4.24-15.85,6.65-31.56,13.75-46.87,21.54a2.65,2.65,0,0,1-1.86.41c-.2-.18.21-.65,1-1.06,10.73-6.08,21.93-11.68,33.28-17-9.86,3.65-19.7,7.58-29.48,12.11l-3.68,1.88c-1.22.63-2.48,1.14-3.74,1.64-12.4,6-24.1,11.89-36.16,19.11-10.3,6.17-19.18,11.78-29.15,18.39-14,9.3-26.53,18-40.43,27.13-1.81,1.26-3.7,2.15-4.18,1.95s.63-1.4,2.44-2.69c14-10.19,28.1-20.07,42.67-29.57q10.92-7.09,22.31-13.86c7.62-4.46,15.42-8.81,23.49-12.94,3.49-1.77,6.93-3.49,10.36-5.18a.55.55,0,0,1-.21-.19c-.17-.31,0-.75.42-1.27l-11.87,5.68C412.38,291,402,297.47,390.52,303.74c-7.89,4.28-15.16,8-22.52,11.91-8.75,5.86-17.34,11.89-26,18a2.26,2.26,0,0,1-.9.48c-.18,0,0-.18.3-.45,5.75-4.53,11.73-9.07,17.86-13.51-1.17.4-2,.46-2.16.05s.38-1.26,1.4-2.28l-4.32,2.83c-.9.57-1.69.9-1.79.7s.49-.82,1.33-1.38c5.86-3.88,11.74-7.71,17.68-11.43,7-4.74,14-9.36,21.09-13.87a5.48,5.48,0,0,1-2.74.21h0c-1.12.68-2.22,1.38-3.32,2.07-19.57,13.72-39.54,27.67-59.59,41.94-.39.29-.76.46-.82.39s.2-.34.55-.59L344.66,326h0c-.28.12-.39.07-.16-.18a3.51,3.51,0,0,1,.95-.66c.32-.14.36,0,.16.17l33.47-23.54c-10.55,6.78-21,13.71-31.41,20.67l-3.18,2.63a2.49,2.49,0,0,1-.91.49c-.13,0,0-.25.34-.49l.89-.73c-2,1.33-3.69,2.05-3.95,1.62s1.24-2,3.26-3.41c5.36-3.88,10.73-7.69,16.19-11.39l1.72-1.27,1.63-1.43q-13,8.28-25.58,16.93c-.7.51-1.39.83-1.51.7s.37-.67,1.08-1.19c14.09-11.14,28.76-21.95,43.93-32.2l6.85-6.1q3.45-3.07,7-6.14l-2,1.22a271.86,271.86,0,0,0-23,16.68c-7.18,5.7-14.22,11.42-21.93,17.18a1.53,1.53,0,0,1-.85.42c-.1,0,.11-.31.51-.6,7.47-5.7,14.07-11.27,21.46-17,6.15-4.75,12-9.25,17.7-13.76-12.22,8.27-23.31,17.12-34.9,25.93a6.19,6.19,0,0,1-1.43.9.62.62,0,0,1-.22.31c-1.33,1.28-2.84,2.57-4.39,3.89a2.43,2.43,0,0,1-.93.56C345.23,316.2,345.36,316,345.68,315.69Zm198.56-86.57.21.14-.61-.16-1.15-1Zm6.65-7.73h0l.66.61Zm-80.83,43.89a177.5,177.5,0,0,1,21.1-7.89l-5,2.26Zm81.64-33.17a13.28,13.28,0,0,1-2.79-1.74,4.21,4.21,0,0,1-1.48.7c-1.46.39-2.91.68-4.35.92.34.39,0,.45-.15.56l-.47.29c1.57-.19,3.16-.33,4.79-.43A33.27,33.27,0,0,1,551.7,232.11Zm9.52-5.08.18.13,0,.8Zm0-1.33-.25,0C561,225.38,561.06,225.45,561.23,225.7Zm-2.24-.27a1.75,1.75,0,0,0,.41.29Zm-8.76-20.21.5,3.79-.38-3.68Z"/></svg>