<svg id="Layer_1" data-name="Layer 1" xmlns="http://www.w3.org/2000/svg" viewBox="0 0 1080 765.34"><path d="M595.53,416.23c0,.19-.08.4-.12.59a1.33,1.33,0,0,1-.68-1,10.78,10.78,0,0,0,2.38,7.39,16.63,16.63,0,0,0,5.85,4.93,2.48,2.48,0,0,0,3,1.69,2.43,2.43,0,0,0,1.16-3.24,4.17,4.17,0,0,1,0-1.06,22.36,22.36,0,0,0,.52-8.87c-.08.68-.16,1.39-.24,2.06a7.52,7.52,0,0,0-.56-2.64l-.45.61c.11-3.35-2.25-6.63-5.22-7.13s-5.43,1.88-5.54,5.17Z"/><path d="M591.68,424.27c0-1.79,0-3.57,0-5.39l.22-.49-1.61,1.07.12,0c2.08.44,3.82,2.22,5.23,4l.59.58a1.5,1.5,0,0,0,1.2.15,1.78,1.78,0,0,0,1-2.32c-.12-.4-.27-.77-.41-1.16-.43-3.13-2.62-7.32-6.19-7-.82.08-1.48.87-2.19,1.4a2.55,2.55,0,0,0-.95,3.4,2.43,2.43,0,0,0,3.18,1.33l.12.78-.67-.28c1.15-.2,2,.83,3,1.4l1,1.15,2.18-2.18-.71-.49c-.08.11-.19.3-.2.3a26.69,26.69,0,0,1-4-2.85l-1.89-1.2a1.31,1.31,0,0,0-1.6,1.09l-.13,1.1.14-.54c.4,2.12,1.08,4.19,1.42,6.27a.67.67,0,0,0,.66.62A.55.55,0,0,0,591.68,424.27Z"/><path d="M587.9,418.23a1.59,1.59,0,0,0-.18-1.18l-.3-.05c0,.22-.08.52-.13.83C587.2,418.42,587.56,418.48,587.9,418.23Z"/><path d="M587.42,417l.05-.35-.15.31,0,0Z"/><path d="M614,575.19c-.49,2.2-1.14,4.35-1.75,6.51s-1.21,4.32-1.86,6.46l-2.08,6.39c-.36,1.06-.68,2.13-1,3.19l-1.16,3.14-2.31,6.28-2.52,6.18L600,616.43l-1.37,3-2.74,6.06c-.24.54-.39,1-.28,1.1s.39-.3.62-.81l2.75-6.06,1.38-3,1.27-3.09,2.53-6.17,2.32-6.27,1.16-3.14c.39-1,.71-2.12,1.06-3.18l2.09-6.39c.68-2.13,1.25-4.3,1.88-6.46s1.27-4.31,1.77-6.52a2,2,0,0,0,0-1.2C614.34,574.24,614.14,574.64,614,575.19Z"/><path d="M546.69,685.77c.19-.36.1-.41-.22-.13a5,5,0,0,0-.85,1.1c-.15.3,0,.37.22.12A4.89,4.89,0,0,0,546.69,685.77Z"/><path d="M542.64,678.15c.63-1,1.24-1.91,1.79-2.83s1-1.86,1.48-2.74a4.94,4.94,0,0,1,.61-.87c-.21,0-.08-.44.33-1.16a317.27,317.27,0,0,0,22-45.56,1.92,1.92,0,0,1-.13-.85,17,17,0,0,1,1.63-5.77l.79-1.64c.77-1.68,1.4-3.41,2.11-5.12s1.4-3.4,2-5.13l1.86-5.18,1-2.59.85-2.61a40.29,40.29,0,0,1,.93-5.07c.3-1.56.45-3.16.66-4.73s.41-3.16.61-4.74c.37-3.16.61-6.36,1-9.55-.22.37-.44.57-.64.53-.43-.22-.52-1.74-.29-3.43.1-.86.21-1.72.32-2.57-.45,2.43-.87,4.87-1.49,7.27a7.38,7.38,0,0,1-.26,1c-.5,2.67-.93,5.39-1.55,8.13a287.64,287.64,0,0,1-22.29,68,3.81,3.81,0,0,1-.71,1.13c-.19.16-.28,0-.1-.35,5.74-13.92,8.73-26.69,12.69-42.55a220.91,220.91,0,0,0,6.53-56.73,148.9,148.9,0,0,0-1.56-28.72l-.55-3.5-.28-1.75-.36-1.74c-.5-2.31-1-4.63-1.49-6.94s-1.22-4.59-1.83-6.92-1.43-4.59-2.13-6.91c-.45-1.58-1-3.1-1.59-4.63s-1.09-3-1.63-4.54-1.21-3-1.8-4.42-1.14-2.95-1.82-4.36l-.5-1.06-.25-.53-.1-.2-.38-.7-.75-1.41c-.49-.93-.93-1.88-1.44-2.79-1-1.82-2-3.64-3-5.47-.45-.93-1-1.82-1.5-2.7l-1.55-2.69c-1.86-2.52-1.12-6,2-8.1a7.6,7.6,0,0,1,6.11-1.06l-.37-.72-.25-1.31a5.24,5.24,0,0,1,.87-3.76l.93-1.55c2-2.49,3.06-5.42,5.24-7.92l1.14-.39.17-.38a6,6,0,0,1,1.93-3l1.28-.66a13.72,13.72,0,0,1,4.66-1.24,5.1,5.1,0,0,1,1.64-.68A7,7,0,0,1,579,427a1,1,0,0,1,1.28-.6,1,1,0,0,1,.45.35h0a8.7,8.7,0,0,0,.5-.93,5.94,5.94,0,0,1-.1-.63c-.28-1-.28-1-.5-1.88a5.23,5.23,0,0,1,.43-1.69c1.78-2.07,1.78-2.08,2.79-2.55a2.11,2.11,0,0,1,.35,0c0-.79,0-.85,0-1.07a2.91,2.91,0,0,1,.21-.52c.49-.34.49-.34.62-.56a3,3,0,0,1,.37-.26c.75,0,.75,0,.92-.11a2.09,2.09,0,0,1,.38,0l.61.46-.85,1.66.56-.09-.5.56.5-.45-.1.64.22-.79a4.92,4.92,0,0,0,.6,1.54,2.05,2.05,0,0,0,.54.78,2,2,0,0,1,.28-.22c.38,1.22.38,1.22.73,2.41a3.94,3.94,0,0,1-.23.46.58.58,0,0,1,.48.4l.2.61.15.08,0,0,.52.32.12.06h0c.37.22.89.54,2.2,1.45a7.34,7.34,0,0,1,.19,1.09l.12-.41c.1-.28.67-.38.67-.5a20.35,20.35,0,0,0-.21-2.22c-.12-.73-.3-1.45-.49-2.16-.37-1.44-.83-2.87-1.25-4.31a1,1,0,0,1,.1-1.34.85.85,0,0,1,1.23.25c5.58,3.62,8.42,10.68,8.71,17.26.35,1.6.74,3.19,1.14,4.77l.16-.33.09,1.32,0,.14.56-1.28c0-.25,0-.49,0-.73a29,29,0,0,1-.92-5.58c-.17-1.89-.4-3.77-.72-5.68s-.21-4-.38-6.12a.86.86,0,0,1,.41-1.11.81.81,0,0,1,1,.59,37,37,0,0,1,4,9,21.61,21.61,0,0,1,.36,9.5,5.42,5.42,0,0,1,.31,3.27v.05l.53-1c.1.88-.39,1.57-.4,2.41l1-.71c.37,2.11,1,4.19,1.5,6.28a26,26,0,0,1,.59,3.12,15.79,15.79,0,0,1,0,3.15,3.67,3.67,0,0,1,0,.46,21.45,21.45,0,0,1,1.72,2.07c.14.18.26.37.38.56l.1.16.18.47c.12.31.24.62.35.93.23.64.46,1.28.69,1.94s.39,1.34.58,2c-.18-1-.33-1.93-.56-2.86l-.63-2.78a1.41,1.41,0,0,1,.13.29l.15.37.3.72.59,1.47c.4,1,.68,2,1,3,.62,2,1.19,4.12,1.68,6.3,2.58,11.9,2.61,25.58.44,32.07a249.81,249.81,0,0,1,1,34A268.43,268.43,0,0,1,615.52,570a4.23,4.23,0,0,1-.91,2.29c-.28.07-.38-.72-.17-1.86l.46-3,.34-3c.24-2,.47-4,.7-6s.35-4,.54-6,.31-4.05.47-6.07.17-4.07.25-6.1.2-4.07.17-6.11c0-4.08.09-8.16-.16-12.25a289.88,289.88,0,0,1-4.27,41c-.27,1.74-.44,3.51-.79,5.26s-.74,3.43-1.2,5.11c-3.66,17.29-9.09,33.07-15.67,49.6-.35.89-.69,1.76-1,2.63L593.13,628l-2.19,5c-1.46,3.32-3.07,6.49-4.58,9.71s-3.26,6.3-4.91,9.5-3.55,6.34-5.43,9.61a279.05,279.05,0,0,1-17.1,25.55,246.12,246.12,0,0,1-20,23c-1.94,2-4,3.56-4.55,3.49s.57-1.76,2.48-3.75a309.13,309.13,0,0,0,20.6-24.85,321.45,321.45,0,0,0,17.78-27,299.13,299.13,0,0,0,15-29.18,308.08,308.08,0,0,0,12.22-31.38c.42-1.16.77-2.34,1.12-3.51s.71-2.35,1.06-3.51c.71-2.34,1.42-4.66,2-7a.56.56,0,0,1-.29.06c-.35-.08-.57-.6-.66-1.41-.35,1.32-.7,2.64-1.06,4l-1.23,3.93c-.86,2.62-1.62,5.26-2.63,7.84a189.31,189.31,0,0,1-17.37,43.43,236.65,236.65,0,0,1-17.55,26.12,281.81,281.81,0,0,1-23.17,31.2,3.38,3.38,0,0,1-.92.86c-.2.08-.08-.19.26-.6l4.11-5.37,2.07-2.71,2-2.77,4-5.58,3.89-5.73c-1.14,1-2,1.44-2.28,1.09s0-1.51.81-3.06l-3.74,5c-.76,1-1.53,1.72-1.69,1.55s.31-1.07,1-2.06c2.51-3.41,5.07-6.77,7.43-10.29,1.19-1.75,2.43-3.46,3.58-5.24l3.43-5.34a290.41,290.41,0,0,0,14-27,7,7,0,0,1-2.45,2.09h0l-2,4.22c-11.66,26.17-28.86,50.62-49.65,71.64-.4.42-.78.71-.86.66s.18-.44.54-.81c3.09-3.22,6.23-6.39,9.14-9.75,1.47-1.67,3-3.29,4.4-5l4.24-5.13,0,0c-.28.24-.41.22-.21-.13a5,5,0,0,1,.89-1.07c.31-.27.38-.17.21.12a244.38,244.38,0,0,0,26.5-41.28,258.19,258.19,0,0,1-25,37.37c-.91,1.35-1.77,2.75-2.76,4.09a3.44,3.44,0,0,1-.88.86c-.15,0,0-.27.26-.64l.81-1.12c-1.85,2.16-3.56,3.57-3.93,3.21s.92-2.58,2.78-4.84c4.72-6.25,9.36-12.53,13.63-19.06l1.32-2.16,1.18-2.27a290.45,290.45,0,0,1-22,28.71c-.64.8-1.31,1.39-1.46,1.29s.25-.84.9-1.65a297.49,297.49,0,0,0,18-26.13,286.35,286.35,0,0,0,15.24-28c1.13-3.33,2.11-6.73,3.15-10.09s1.83-6.83,2.66-10.29c-.31.83-.68,1.64-1,2.47-4.22,10.58-8.25,20.39-12.8,29.94a197.41,197.41,0,0,1-16,28.07c-.32.47-.67.79-.79.79s0-.37.38-.83a221.12,221.12,0,0,0,15.62-27.61l2.85-6c.88-2,1.72-4,2.55-5.94.42-1,.83-2,1.24-2.94s.74-2,1.1-3l2.12-5.86-2.48,5.76c-.4,1-.8,1.92-1.21,2.87l-1.3,2.83c-.85,1.89-1.71,3.78-2.56,5.66l-2.73,5.56L559,651l-1.46,2.74q-1.49,2.73-2.95,5.48c-1.06,1.79-2.11,3.59-3.17,5.39l-1.61,2.69c-.56.9-1.14,1.77-1.71,2.65a7.57,7.57,0,0,1-1.2,1.54c0,.07,0,.22-.12.42a61.73,61.73,0,0,1-3.43,5.87,3.09,3.09,0,0,1-.83,1C542.3,678.86,542.39,678.59,542.64,678.15Zm48.31-240a2.42,2.42,0,0,1,.12-.23c0,.2-.06.41-.1.65l-.94,1.29ZM582.19,432h0l.5-.77ZM615.52,535.1c.15-4.87.43-9.73.44-14.58.17-4.87.06-9.72.15-14.62l.63,7.09c0,1.84,0,3.69-.1,5.54s-.14,3.69-.22,5.53-.25,3.69-.4,5.53S615.69,533.26,615.52,535.1Zm-22.7-105.21a12.57,12.57,0,0,1-1.29,3.17,5.49,5.49,0,0,1,1,1.53A29.07,29.07,0,0,1,594,439.2c.36-.39.46,0,.59.13l.34.5c-.37-1.68-.62-3.43-1-5.15A41.82,41.82,0,0,1,592.82,429.89Zm-7.2-9.54c0-.07,0-.14.09-.22l.79-.11Zm-1.33.23,0,.26C584,420.91,584.08,420.79,584.29,420.58Zm.26,2.4a1.66,1.66,0,0,0,.2-.47A4.22,4.22,0,0,1,584.55,423Zm-18.24,12.39,3.63-1.21-3.54,1.08Z"/><path d="M596.19,535.49l.87-.49a4.91,4.91,0,0,1-1.54,1.56,22.19,22.19,0,0,0,5.73-4.67c1.69-1.83,3.1-4,4.82-6.17.85-1.08,1.76-2.15,2.74-3.21a35.75,35.75,0,0,1,3.42-3.25,35.12,35.12,0,0,1,7.24-4.67c1-.27,1.86-.54,2.77-.76s1.74-.44,2.49-.61c1.46-.38,2.63-.61,2.8-1,.47-.62-3.35-1.44-7.64-.37-.95.17-2.07.42-2.74.55a29.51,29.51,0,0,0-9.77,3.4c-.83.47-1.67,1-2.5,1.55l-1.23.88-1.07.78a46.57,46.57,0,0,0-4.06,3.46l1.67-1.32c.58-.44,1.17-.88,1.75-1.3a32.24,32.24,0,0,0-4.52,4.38l.86-.35c-2.55,2.32-5,5-7.42,7.31l-3.23,3.08a21.63,21.63,0,0,0-2.27,2.29c-1,1.26-.49,1.81,1.29,2a14.22,14.22,0,0,0,7.19-1.77c.43-.2.81-.42,1.2-.64S595.84,535.72,596.19,535.49Z"/><path d="M606.79,530.25a59.72,59.72,0,0,1-6.91,6l-.68.3,1.48.36,0-.07a20,20,0,0,1,2-4.3c1-1.66,2.08-3.58,3.4-5.44l.94-1.36a2.41,2.41,0,0,0,.54-1.51c-.14-.65-1.71.13-3.26,1.81-.56.64-1.15,1.3-1.66,1.93-2.16,2.25-4.65,5.06-6.93,7.35-1.15,1.16-2.18,2.18-3,3.08a4.31,4.31,0,0,0-1.36,2.2c0,.54,1.48.52,2.39.68a4,4,0,0,0,2.48-.17,8.82,8.82,0,0,0,3.08-1.81c1.83-1.71,2.52-3.66,1.8-4.14.35-.31.71-.64,1-.95-.11.31-.24.61-.36.92-.27-.84,1.1-2.78,1.88-4.48l1.56-2.41-2.69.39-.72,1.35c.15,0,.39-.17.39-.16a42,42,0,0,1-4.1,6.93c-.62,1-1.25,1.84-1.92,2.7-.35.74.47.92,1.69.38.57-.29,1.12-.57,1.65-.89-.27.14-.52.27-.8.39,3.16-2.26,5.56-5.16,8.11-7.94a2.77,2.77,0,0,0,.79-1.4C607.58,529.69,607.22,529.79,606.79,530.25Z"/><path d="M599,540.16a10.42,10.42,0,0,0-1.85,1.14l-.07.28c.36-.14.86-.35,1.32-.57C599.31,540.6,599.37,540.24,599,540.16Z"/><path d="M597.08,541.58l-.6.22.52-.11.06-.06Z"/><path d="M760.89,650.61a64,64,0,0,0,11.76-6.77,60.42,60.42,0,0,0,9.57-8.73,49.75,49.75,0,0,0,6.67-9.8,38.37,38.37,0,0,0,3.37-9.81,37,37,0,0,0,.49-4.69c0-.39,0-.76,0-1.14l0-1.14V608l0-.64c0-.43,0-.84-.06-1.28a48.5,48.5,0,0,0-.55-5.25c-.24-1.79-.59-3.6-1-5.47a104.19,104.19,0,0,0-3.4-11.63c-.35-1-.73-2-1.11-3s-.87-2.28-1.28-3.42c-.86-2.27-1.78-4.49-2.67-6.7-.47-1.19-1.1-2.09-1.37-2.06s-.06,1,.4,2.08l1.35,3.3,1.32,3.36c.42,1.13.84,2.27,1.28,3.4s.78,2,1.12,3a107.56,107.56,0,0,1,3.46,11.5c.42,1.84.79,3.62,1,5.38a49.64,49.64,0,0,1,.6,5.15c0,.43.06.85.07,1.26s.06.87,0,1.21c0,.72.07,1.48,0,2.21l0,1.13-.11,1.13c0,.77-.2,1.51-.27,2.31a36.65,36.65,0,0,1-3.11,9.65,48.06,48.06,0,0,1-6.39,9.74,59.73,59.73,0,0,1-9.33,8.77A64.2,64.2,0,0,1,761.22,650a9.46,9.46,0,0,0-2.17,1.18C759,651.31,759.84,651.05,760.89,650.61Z"/><path d="M790.31,365.79c-.41,1-.2,1.11.5.19a23.24,23.24,0,0,0,2-3.25c.39-.85.15-1-.49-.19A14.17,14.17,0,0,0,790.31,365.79Z"/><path d="M800.64,382l-1.44,4.11c-.24.67-.47,1.34-.7,2s-.36,1.34-.54,2c-.35,1.33-.68,2.63-1,3.89a32.56,32.56,0,0,0-.77,3.73,12.86,12.86,0,0,1-.74,2.58c.45-.2.48,1,.08,3a142.89,142.89,0,0,0-2,30.51,176.17,176.17,0,0,0,4.21,31,200.42,200.42,0,0,0,9.49,30.34c1,2.45,2,4.87,3.1,7.24s2.22,4.71,3.3,6.75l1.89,3.43,2.11,3.77q2.18,3.85,4.41,8a4.62,4.62,0,0,1,1.84,1.47c2.49,2.68,6.06,9.16,8.54,16.48.57,1.85,1.16,3.7,1.66,5.56,1.7,5.59,3.15,11.22,4.34,16.8.61,2.87,1.23,5.94,1.69,9s.85,6.16,1.09,9.31a105.67,105.67,0,0,1-.21,19.3,91.53,91.53,0,0,1-1.58,9.77c-.16.81-.38,1.62-.58,2.42s-.39,1.6-.65,2.45c-.51,1.65-.94,3.31-1.57,4.92a57.5,57.5,0,0,1-2.94,8.51c-.66,1.46-1.33,3-2.16,4.41L830.33,637,829,639.18a74.15,74.15,0,0,1-10.44,13.54,79.85,79.85,0,0,1-12.73,10.68,90,90,0,0,1-29.48,13c1.37-.16,2.23-.18,2.28,0-.24.51-5.05,2.06-10.89,2.65-2.94.3-5.86.54-8.8.58a98.44,98.44,0,0,0,12.69-.9,106.36,106.36,0,0,0,12.59-2.55c1.19-.35,2.31-.66,3.34-.92a93.52,93.52,0,0,0,26.41-13.39,85.56,85.56,0,0,0,12.83-11.64,79.6,79.6,0,0,0,10.36-14.71,76,76,0,0,0,6.81-17.16,89.71,89.71,0,0,0,2.81-17.3,111.5,111.5,0,0,0-2.83-32.37c-.28-1.27-.59-2.5-.9-3.74s-.61-2.31-.94-3.47c-.61-2.28-1.34-4.56-2-6.84-1.47-4.54-3.08-9.06-4.91-13.5a212.36,212.36,0,0,0-12.28-24.81L819.78,511l-1.43-2.51-.6-1-.56-1c-1.54-2.87-3.15-6.1-4.6-9.36a194.85,194.85,0,0,1-13.35-41.29,9.79,9.79,0,0,1-.28-3.24c.15-.58.46-.5.71.53a155.53,155.53,0,0,0,8.55,25.2c1.75,4,3.57,7.89,5.57,11.68s4,7.52,6.2,11c1.08,1.7,2.17,3.45,3.12,4.69l4,6c.69,1,1.44,2.18,2.15,3.29l2.2,3.53c1.5,2.42,3,5,4.46,7.66a158.49,158.49,0,0,1,8.18,17.22,162.81,162.81,0,0,1,6.31,18.89,126,126,0,0,1,4.36,27.14,100.59,100.59,0,0,1-3,29.88,85,85,0,0,1-5.54,15.34,86.08,86.08,0,0,1-8.22,13.63,81.19,81.19,0,0,1-10.17,11.45,85.78,85.78,0,0,1-11.47,9.18,97.71,97.71,0,0,1-25.12,12.05,108.48,108.48,0,0,1-13.11,3.22,102.79,102.79,0,0,1-13.29,1.42,90.75,90.75,0,0,1-26.6-2.72,60.85,60.85,0,0,1-13.15-5.08c-.52-.26-1-.51-1.54-.78l-1.48-.88c-1-.59-2-1.16-2.9-1.79-1.84-1.32-3.7-2.56-5.37-4a70.34,70.34,0,0,1-9.44-9.56,79,79,0,0,1-7.28-10.47,91.51,91.51,0,0,1-5.47-11l-1.1-2.82c-.37-.93-.7-1.88-1-2.83s-.63-1.88-.91-2.86l-.81-3c-.13-.5-.29-1-.39-1.5l-.3-1.5-.59-3c-.22-2-.63-4-.75-5.94l-.28-3c0-1-.09-1.94-.17-2.91-.19-2-.09-3.86-.22-5.79-.15-7.66,0-15.17,0-22.56l0-10.88c0-1.78,0-3.56-.07-5.3s0-3.46-.1-5.17c0-.42,0-.85,0-1.27l-.05-1.19c0-.79-.07-1.58-.15-2.36-.09-1.57-.21-3.13-.41-4.65a68.09,68.09,0,0,0-1.48-8.71c-.19-.65-.35-1.33-.55-2s-.38-1.27-.6-1.86a32.85,32.85,0,0,0-1.42-3.23,13.74,13.74,0,0,0-.79-1.33,8.19,8.19,0,0,0-.82-1.16c-.14-.18-.28-.36-.41-.55l-.46-.44c-.15-.14-.28-.34-.44-.47l-.49-.4a5.51,5.51,0,0,0-.83-.67,7.21,7.21,0,0,0-.68-.41,2.24,2.24,0,0,1-.42-.26.48.48,0,0,1-.09-.11,1.1,1.1,0,0,1-.06-.18c0-.08,0-.07,0-.06s-.07,0-.14,0-.12,0-.21,0a2.17,2.17,0,0,1-.28.1,4.56,4.56,0,0,0-1.46,1.86,16.2,16.2,0,0,0-1.46,5.14A23.56,23.56,0,0,0,671,539c0,.52,0,1,0,1.56l.09,1.84c.19,2.5.39,5.19.53,8.11a44.72,44.72,0,0,1-.52,9.53c-.18.87-.35,1.73-.62,2.61l-.38,1.33-.49,1.33a26.54,26.54,0,0,1-1.21,2.61c-.56.92-1.13,1.85-1.78,2.72A20.93,20.93,0,0,1,656,577.9c-.51.14-1,.31-1.54.42l-1.57.27a21,21,0,0,1-3.17.25,26.34,26.34,0,0,1-3.19-.17,29.61,29.61,0,0,1-3.2-.62,27.19,27.19,0,0,1-3.16-1.14c-.51-.24-1-.5-1.53-.77l-.76-.41-.74-.48a19.56,19.56,0,0,1-2.8-2.21c-.44-.42-.87-.85-1.29-1.28s-.78-.94-1.16-1.43a17.66,17.66,0,0,1-1.08-1.49q-.47-.78-.9-1.59a22.85,22.85,0,0,1-1.4-3.06l-.52-1.46-.43-1.41-.17-.63c-.18-.68-.35-1.35-.48-2-.28-1.32-.48-2.54-.67-3.75-.34-2.38-.54-4.55-.76-6.56s-.42-3.82-.71-5.38a10.84,10.84,0,0,0-1.17-3.62c-.23-.39-.5-.55-.72-.55,0,0-.08,0,0,0l.4-.09.79-.2.68-.19c.21-.05.41-.11.62-.18l1.09-.38a7.9,7.9,0,0,0,.89-.37,5.65,5.65,0,0,0,1.45-.83l-.26.27-.11.14-.05.07h0l1.1-1.41h0v0a1.06,1.06,0,0,0,.13-.18c.16-.29-.13.17-.17,1.08a8.88,8.88,0,0,0,.38,2.93,10,10,0,0,0,.76,1.89,5.3,5.3,0,0,0,.34.6l-.14-.23a9.57,9.57,0,0,1-.76-1.64c.12.37.29.7.41,1s0,.15.06.26-.08.12-.22.07-.13-.08-.26-.08a2.09,2.09,0,0,1-.5,0,6.79,6.79,0,0,0-1,.08,6.07,6.07,0,0,0-2.93.68,19.06,19.06,0,0,1-3.13,1.35l-.73-.63-.28.24a3.25,3.25,0,0,1-2.56,1.37l-1-.48a6.57,6.57,0,0,1-2.71-3,1.92,1.92,0,0,1-1.05-.8c-1.32.43-2.63.44-3.44-.67-.56.39-1,.15-.85-.56a2.73,2.73,0,0,1,.28-.78h0c-.41.19-.53.24-1,.51-.38.48-.64.75-.64.75-1,1.28-1,1.28-2,2.36A8.23,8.23,0,0,1,604.4,543a20.49,20.49,0,0,1-2.84.22,2.16,2.16,0,0,1-1.12-.36.9.9,0,0,1-.07-.27,15,15,0,0,1-1.68.85,7.82,7.82,0,0,1-.88.21,1.91,1.91,0,0,0-1-.1,2.17,2.17,0,0,1-.48-.1c0-.55,0-.56-.16-.62a.65.65,0,0,1,.05-.3l.79-.81c1.38-.3,2-.5,2.32-.59l.32-.09-.17-.38.85-.08-.68,0,.92-.49-1.14.53c.83-.67,1.21-1,1.47-1.25a7.06,7.06,0,0,0,.64-.69,6.33,6.33,0,0,0,1-1.26,1.11,1.11,0,0,1-.29,0c1.56-1.61,1.53-1.61,3-3.25.21-.12.39-.21.56-.29a2,2,0,0,1,.47-.92L607,532l.09-.23h0l.41-.9.07-.19h0a29.38,29.38,0,0,1,2.15-4,21.41,21.41,0,0,1,1.67-1.44l-.59.33c-.39.21-.39-.27-.58-.13a40.33,40.33,0,0,0-6,6,54.77,54.77,0,0,1-5.77,5.83,3.32,3.32,0,0,1-2,1.15c-.48,0-.24-.59.45-1.27,1.46-2.06,3.06-4.39,4.83-7,.88-1.3,1.81-2.74,2.92-4.12.56-.7,1.15-1.4,1.8-2.08.31-.34.66-.68,1-1s.65-.63,1.09-1a27.35,27.35,0,0,1,11.36-6.14,24.94,24.94,0,0,1,6.71-.88,21.62,21.62,0,0,1,7.08,1.2,19.69,19.69,0,0,1,9.28,6.16,21.05,21.05,0,0,1,2,2.77c-.09-.21-.17-.42-.25-.62a19.79,19.79,0,0,1,1.48,3.09l.12.33a19.44,19.44,0,0,0-.72-2.54c-.27-.55-.58-1.1-.9-1.65a23.94,23.94,0,0,0-2.55-3.09,15,15,0,0,0-1.58-1.44,15.78,15.78,0,0,0-1.8-1.33,22.2,22.2,0,0,0-8.23-3.2,26.11,26.11,0,0,0-8-.12,29.51,29.51,0,0,0-7.19,1.9,38.72,38.72,0,0,0-6.74,3.52c-.52.35-1,.71-1.55,1.09l-1.35,1c-.87.66-1.73,1.37-2.54,2.11s-1.44,1.26-1.59,1,.38-1.12,1.16-1.92c.62-.71,1.24-1.4,2-2.09l1.07-1,1.3-1.15a30.93,30.93,0,0,1,5.72-3.84,30.11,30.11,0,0,1,6.59-2.53,30.5,30.5,0,0,1,3.62-.72,29.39,29.39,0,0,1,3.9-.24,28.3,28.3,0,0,1,4.06.35,25.15,25.15,0,0,1,4.11,1.08,21.6,21.6,0,0,1,7.17,4.21,19,19,0,0,1,2.47,2.62,21.69,21.69,0,0,1,1.86,2.74,19.82,19.82,0,0,1,2.14,5.44,17.19,17.19,0,0,1,.91,7.34v.1c.11-.48.19-1,.28-1.51,0,.45,0,.86,0,1.23s-.09.68-.14,1c-.08.65-.23,1.2-.31,1.92l.51-.56a46.41,46.41,0,0,1-.74,5.3c-.3,1.61-.63,3.09-1,4.46-.66,2.75-1.31,5.14-1.83,7.13l-.09.46c0,.84.12,1.61.19,2.35,0,.18.05.35.07.54l0,.15c0,.23,0,.48,0,.69a10.53,10.53,0,0,0,.17,1.11,2.88,2.88,0,0,0,.55,1.38,4.74,4.74,0,0,0,1.55,1.22,3.73,3.73,0,0,1-1.8-1.76,1.73,1.73,0,0,0-.14-.5,1.64,1.64,0,0,0-.05-.51c0-.27-.08-.54-.09-.86a3.76,3.76,0,0,1,0-.48c0-.15,0-.42,0-.38v.14l0,.27a3.91,3.91,0,0,0,0,.51,3,3,0,0,0,.06.46,3,3,0,0,0,.07.38,2.77,2.77,0,0,0,.31,1,4.17,4.17,0,0,0,2.14,1.69,5.63,5.63,0,0,0,3.47.15,4.78,4.78,0,0,0,2.79-1.81c1.21-1.66,1.85-4.2,1.92-7.29a47.25,47.25,0,0,0-.21-4.93c-.18-1.73-.38-3.53-.61-5.42-.12-.91-.23-2-.31-3s-.11-2.11-.15-3.17a43.46,43.46,0,0,1,.39-6.49,28.75,28.75,0,0,1,1.73-6.76,20.69,20.69,0,0,1,4.23-6.67c.5-.5,1-1,1.57-1.45s1.16-.85,1.75-1.26a17,17,0,0,1,4-1.88,18.65,18.65,0,0,1,8.08-.74,22.75,22.75,0,0,1,6.79,2,28,28,0,0,1,12.19,11.22,18.62,18.62,0,0,1,1.1,2c.32.65.65,1.28.92,1.91.48,1.24,1,2.42,1.3,3.52a57.65,57.65,0,0,1,3.31,23.58c-.06,1-.13,1.93-.23,2.88s-.18,1.92-.32,2.82c-.27,1.82-.52,3.65-.85,5.43-.66,3.59-1.43,7.08-2.2,10.55-1.59,6.92-3.29,13.66-4.22,20.42s-1.15,13.54.28,19.9a36.93,36.93,0,0,0,3.17,9l1.19,2.16c.38.73.8,1.44,1.24,2.13l1.3,2.08,1.42,2,.71,1,.76,1,1.52,1.89c1.1,1.19,2.1,2.44,3.29,3.51a52.31,52.31,0,0,0,7.2,6A40,40,0,0,0,733.94,655c.7.08,1.36.26,2,.27l2,.12a16.68,16.68,0,0,0,2,0c.69,0,1.28,0,2-.08s1.41-.11,2.12-.19l2.12-.29c1.41-.27,2.81-.54,4.2-.91a29.56,29.56,0,0,1,4.75-1c.26.14-1.2.86-3.52,1.49a50.53,50.53,0,0,1-6.1,1.31l-1.55.21-1.54.13c-1.07.11-2,.1-3,.13-.49,0-1,0-1.48,0l-1.47-.11c-.5,0-1,0-1.51-.11l-1.49-.24c-.5-.1-1-.16-1.51-.27l-1.49-.39c-.5-.14-1-.25-1.52-.4l-1.49-.53c-8-2.83-15.54-8.6-21.45-15.93a63.63,63.63,0,0,1-7.65-12,39.23,39.23,0,0,1-3.67-13.61,63.15,63.15,0,0,1-.19-7.29c0-1.22.14-2.45.22-3.68s.24-2.46.4-3.69c.63-4.93,1.64-9.86,2.74-14.84-1,4.15-1.81,8.28-2.5,12.41a83.59,83.59,0,0,0-1,12.37,50.74,50.74,0,0,0,1.44,12,46.38,46.38,0,0,0,4.73,11,63.41,63.41,0,0,0,7,9.89,55.24,55.24,0,0,0,8.6,8.17,48.37,48.37,0,0,0,9.87,5.81,36,36,0,0,0,10.55,2.8l1.34.15,1.36,0c.91,0,1.75.08,2.73,0s1.89-.07,2.84-.18l1.42-.13,1.42-.22a75.31,75.31,0,0,0,10.94-2.55,65.19,65.19,0,0,0,23.45-14.22,48.43,48.43,0,0,0,13.06-20,35.5,35.5,0,0,0,1.72-10.23l0-1.25c0-.42,0-.91,0-1.36s0-.93-.06-1.39,0-.92-.08-1.39a57.21,57.21,0,0,0-.71-5.68,84.09,84.09,0,0,0-3-11.89c-.7-2-1.45-4.11-2.28-6.21l-1.36-3.34c-.47-1.17-.94-2.33-1.45-3.47a222.31,222.31,0,0,0-10.88-22c-2-3.56-4.11-7.19-6.41-11.21l-1.75-3.08-1.8-3.24c-.54-1-1.39-2.58-2-3.81s-1.28-2.55-1.86-3.8c-2.33-5-4.36-9.88-6.26-14.87s-3.53-10-5.05-15.19-2.79-10.44-3.94-15.84-2-10.94-2.71-16.63a173.11,173.11,0,0,1,.85-48,149.82,149.82,0,0,1,5.73-23.37c1.32-3.77,2.79-7.46,4.22-11.16,1.63-3.58,3.3-7.14,5.05-10.63a158.22,158.22,0,0,1,26.81-36.81,169.51,169.51,0,0,1,16.51-14.9c3-2.23,5.84-4.51,8.93-6.54s6.13-4.11,9.3-6a87.66,87.66,0,0,1,9.4-5,21.2,21.2,0,0,1,5.2-1.93c1.16,0-3.59,2.77-10.14,6.87-3.24,2-6.35,4.14-9.44,6.35l-4.59,3.41c-1.52,1.15-3,2.39-4.46,3.59l-2.22,1.83c-.73.62-1.44,1.28-2.16,1.91L800,328l-4.14,4.08-2.05,2.07c-.67.7-1.32,1.44-2,2.15-1.32,1.44-2.63,2.9-3.92,4.36s-2.5,3-3.75,4.56c-2.52,3-4.8,6.29-7.11,9.53-1.18,1.61-2.22,3.33-3.29,5s-2.14,3.41-3.19,5.13l-2.9,5.33c-.95,1.8-2,3.56-2.77,5.44l-2.55,5.59c-.41.94-.86,1.86-1.22,2.82L760,387l-2.14,5.82c-.71,1.94-1.24,4-1.86,5.94a153.06,153.06,0,0,0-4.93,24.32,176.38,176.38,0,0,0,1.08,48.67,206.5,206.5,0,0,0,13,46.19c1.55,3.76,3.16,7.46,5.12,11.37l.78,1.55.71,1.33,1.36,2.52,2.62,4.8c1.72,3.1,3.35,6,4.87,8.86s3,5.65,4.38,8.46c2.79,5.62,5.25,11.39,7.6,17.39l1.7,4.52c.52,1.4,1,2.8,1.46,4.2.94,2.78,1.71,5.55,2.38,8.28a68.3,68.3,0,0,1,2,16l0,1.95-.12,1.8c0,.61-.12,1.19-.18,1.8s-.13,1.21-.26,1.81a37.92,37.92,0,0,1-2,7.27c-3.13,8.34-9.25,16.49-17.39,22.85.16,0,.3,0,.35.1.22.35-.36,1.3-1.6,2.55,9.86-6.89,17.45-16.16,21.2-25.86A42.32,42.32,0,0,0,801.92,611c.11-1.66.05-3.61,0-5.42s-.29-3.71-.54-5.58a83.78,83.78,0,0,0-2.49-11.41c-.55-1.93-1.15-3.87-1.85-5.82-.32-1-.69-2-1-2.95l-1.17-3A267.54,267.54,0,0,0,783.89,552c-2.06-4.09-4.26-8.28-6.64-12.83-1.19-2.29-2.41-4.67-3.67-7.2l-1-2-1-2.24c-.67-1.46-1.27-2.85-1.85-4.27a173.75,173.75,0,0,1-7.51-22.75,186.7,186.7,0,0,1-4.36-22.5,180.87,180.87,0,0,1-.28-45,152.35,152.35,0,0,1,4.23-28.38c.3-1.16.56-2.34.89-3.5l1-3.47c.63-2.33,1.51-4.56,2.3-6.83l1.22-3.38.61-1.69.71-1.65,2.89-6.55a158.53,158.53,0,0,1,14.33-24.36,174.3,174.3,0,0,1,18-21.2,13.67,13.67,0,0,1,2.69-2.31c.51-.26.05.38-1,1.44a170,170,0,0,0-23.33,30.67,153.46,153.46,0,0,0-15.82,36.8,19.33,19.33,0,0,1,2.77-4.36c.81-.92,1.46-1.28,1.88-1,.9.64.57,3.92-.08,8.82l1.28-4.27,1.51-4.19,1.52-4.18c.47-1.4,1.15-2.72,1.72-4.08,1.5-3.33,3-5.8,3.41-5.5s-.33,3.06-1.69,6.21c-1.25,2.7-2.2,5.53-3.2,8.34-.49,1.41-1,2.81-1.48,4.23l-1.26,4.3a147.63,147.63,0,0,0-3.76,17.52,166.31,166.31,0,0,0-1.65,17.8,170.78,170.78,0,0,0,.33,17.82A197.77,197.77,0,0,0,784,517.59c.73,1.62,1.51,3.24,2.33,4.88l1.24,2.37,1.22,2.29,4.83,8.91c-1-3.64-1.4-6.56-1-8.24v0q-1.47-2.82-2.92-5.64c-1-2-1.92-3.94-2.78-5.91a186.87,186.87,0,0,1-10.63-27.66,183.22,183.22,0,0,1-6.19-29.29,149.4,149.4,0,0,1,4.39-60.61A154.72,154.72,0,0,1,803.57,345a194.76,194.76,0,0,1,21-21.83,210.37,210.37,0,0,1,23.84-18.41A12.88,12.88,0,0,1,851,303.3a10,10,0,0,1-2.05,1.58c-20,13.51-38.1,30.29-52.25,50.36l.07-.08c.68-.73,1-.75.46.21a27,27,0,0,1-2.19,3.15c-.74.87-.87.66-.48-.18a149,149,0,0,0-15.85,30.51,155.19,155.19,0,0,0-5.1,16.51,146.39,146.39,0,0,0-3,17,155.47,155.47,0,0,0,.06,34,180.81,180.81,0,0,0,6.77,32.83c-5.33-19.9-7.72-40.8-5.72-61.52a137.74,137.74,0,0,1,6.39-30.46A140.87,140.87,0,0,1,790.92,369l1.48-3,1.63-2.94c.56-1,1.11-2,1.66-2.95s1.11-2,1.74-2.93a12.79,12.79,0,0,1,2.17-2.59c.33-.19,0,.66-.72,1.72s-1.38,2.09-2,3.2a68.37,68.37,0,0,1,6.1-7.63c1.77-1.73,3-2.61,3.37-2.27s-.44,2.12-1.74,4.48c-.62,1.2-1.4,2.57-2.3,4.05-.44.73-.92,1.5-1.43,2.28s-1,1.63-1.5,2.47c-11.06,18-18.64,38.05-21.16,58.89-.21,2.26-.35,4.53-.48,6.79.06,2.3.08,4.56.26,6.84a142.44,142.44,0,0,1,3.24-24c.91-3.93,1.9-7.84,3.18-11.66l1.94-5.71c.3-1,.69-1.89,1.08-2.82l1.14-2.79c1.43-3.76,3.3-7.33,5-11,.9-1.8,1.93-3.53,2.88-5.3l1.45-2.64c.5-.87,1-1.71,1.57-2.57l3.17-5.12,3.41-5c1.09-1.69,2.35-3.26,3.54-4.87s2.37-3.24,3.66-4.77c1.7-2.17,3.36-3.85,3.64-3.68s-.86,2.09-2.53,4.27c-1.06,1.4-2,2.85-3,4.32l-2.93,4.37L805.72,361l-1.37,2.24-1.26,2.3-2.51,4.59c-.8,1.55-1.52,3.14-2.28,4.71-1.59,3.1-2.84,6.35-4.17,9.55-.71,1.58-1.23,3.23-1.8,4.87l-1.7,4.89-1.39,5c-.43,1.66-1,3.29-1.3,5a135.88,135.88,0,0,0-3.09,20.35c-2.06,27.4,3.53,55.33,13.9,80.87,1.09,2,2.2,4,3.35,5.87s2.26,3.58,3.59,5.6c2.59,3.88,5.33,7.91,8,12.14a183.84,183.84,0,0,1,14.58,27.46c-.74-2.53-1.58-5.09-2.47-7.63A179.21,179.21,0,0,0,815.71,526c-1.84-3.53-3.7-6.87-5.45-10.06-.87-1.58-1.78-3.24-2.45-4.51-.73-1.42-1.47-2.93-2.2-4.44a211.34,211.34,0,0,1-13.73-38.23,155.92,155.92,0,0,1-4.94-40.28,124.75,124.75,0,0,1,2-20.63c.36-1.71.67-3.44,1.09-5.15s.91-3.42,1.36-5.14l.7-2.59.86-2.56q.88-2.55,1.77-5.13a5.58,5.58,0,0,1,1.42-2.5c.25-.06.06.94-.53,2.29q-.84,2.5-1.66,5c-.55,1.65-1.12,3.29-1.5,5-.85,3.34-1.75,6.62-2.31,9.95a124.11,124.11,0,0,0-2,19.88,162.27,162.27,0,0,0,4.47,39.79A187.47,187.47,0,0,0,803,498.19c1.07,2.48,2.18,4.91,3.34,7.27s2.38,4.68,3.54,6.64c1.36,2.34,2.8,4.74,4.27,7.2s3,5,4.5,7.66q-2.08-4.14-4.15-8l-3.94-7.4c-.5-.95-1.05-2.07-1.59-3.2s-1.08-2.29-1.6-3.46c-1.06-2.34-2.06-4.74-3-7.16A205.78,205.78,0,0,1,795,467.87a162.1,162.1,0,0,1-4.19-30.9c0-1.3-.11-2.61-.09-3.91v-3.9c.11-2.6.18-5.22.42-7.81a117.58,117.58,0,0,1,2.24-15.56,16.45,16.45,0,0,1,1.48-4.64,2,2,0,0,1,0-1.1c.21-1.31.45-2.67.7-4s.72-2.73,1.08-4.13.75-2.82,1.18-4.24,1-2.82,1.5-4.24a9.51,9.51,0,0,1,1.44-2.87C801.11,380.05,801,380.79,800.64,382ZM630.19,521.53l-.35-.13a11.36,11.36,0,0,1,1.25.34l.2.12a11.81,11.81,0,0,1,1.37,1l-.74-.45C631.47,522.12,630.85,521.83,630.19,521.53Zm-14.6,9.75h0l-.86.27ZM694.73,615a65.13,65.13,0,0,1,.2-17.63c.78-5.91,2.1-11.81,3.42-17.77s2.66-12,3.51-18.31a68.57,68.57,0,0,0,0-19.82,67.15,67.15,0,0,1,.36,19.38c-1.29,9.54-3.71,18.54-5.57,27.48a110.87,110.87,0,0,0-2.08,13.4A57.11,57.11,0,0,0,694.73,615Zm-79.2-92.3a14.9,14.9,0,0,1,5.08-1.06,14.32,14.32,0,0,1,3.72-1.3,17.88,17.88,0,0,1,5.73-.27,15.88,15.88,0,0,1,5.76,1.85c-.37-.48.48,0,.93.25a11.43,11.43,0,0,1,1.3.82,15.8,15.8,0,0,0-5.9-3,19.19,19.19,0,0,0-6.39-.54A26.06,26.06,0,0,0,615.53,522.72Zm-13.39,17.45-.3.13a4.26,4.26,0,0,1-.22-.58Zm.44.94.35-.27C603.05,541,602.89,541.09,602.58,541.11Zm3-2.59a2.52,2.52,0,0,0-.58.31Zm15.74,3.83c-.74-.67-1.44-1.34-2.1-2,.62.71,1.28,1.39,2,2.08Z"/><path d="M517.78,465.66l-.41.3a.75.75,0,0,1,0-.87,6.11,6.11,0,0,0-1.83,5.6,10.59,10.59,0,0,0,2.93,5.24,1.83,1.83,0,0,0,1.9,2,2.37,2.37,0,0,0,2.45-1.78,2.94,2.94,0,0,1,.48-.66,17,17,0,0,0,4.42-5.13l-1.14,1.1a4.42,4.42,0,0,0,.74-1.7l-.7.2a3.59,3.59,0,0,0-.61-5.85,6,6,0,0,0-7.32.68Z"/><path d="M510.34,469.28c.9-1.25,1.86-2.43,2.84-3.59l.44-.21h-1.89l.12,0c1.5,1.2,1.94,3.05,2.29,4.75l.26.61a1.61,1.61,0,0,0,1,.55,1.69,1.69,0,0,0,1.94-1.15c.06-.29.13-.59.22-.88,1.3-2.15,1.68-5.45-1.44-6.89a6.69,6.69,0,0,0-2.55-.14,2.24,2.24,0,0,0-2.59,1.73,2,2,0,0,0,1.94,2.26l-.31.56-.41-.46c1.06.36,1.22,1.38,1.73,2.14l.2,1.13,3-.57-.33-.58c-.13,0-.32.12-.33.11a16.25,16.25,0,0,1-1.81-3.42l-.94-1.59a1.53,1.53,0,0,0-1.9,0l-.69.66.4-.29c-.79,1.56-1.31,3.24-2.13,4.82a.48.48,0,0,0,.22.7A.62.62,0,0,0,510.34,469.28Z"/><path d="M510.39,463.59c.24-.25.5-.48.48-.86l-.23-.17-.54.48C509.71,463.39,510,463.59,510.39,463.59Z"/><path d="M510.64,462.56l.23-.2-.29.13,0,0Z"/><path d="M551.49,585.37c1,1.55,2.14,3,3.22,4.5s2.16,3,3.33,4.44c2.35,2.87,4.62,5.83,7.15,8.58,1.25,1.39,2.46,2.81,3.74,4.18l3.91,4c.66.67,1.3,1.36,2,2l2,1.94L581,619c.38.33.76.54.86.46s-.14-.41-.5-.71a215.82,215.82,0,0,1-15.69-16.06c-2.51-2.74-4.77-5.69-7.1-8.55-1.18-1.42-2.21-3-3.32-4.43l-1.63-2.23c-.56-.73-1.09-1.48-1.58-2.25-.28-.41-.59-.68-.74-.65S551.24,585,551.49,585.37Z"/><path d="M633.66,665.09c-.38-.09-.41,0-.08.24a4.19,4.19,0,0,0,1.19.55c.31.07.35,0,.07-.25A4,4,0,0,0,633.66,665.09Z"/><path d="M627.24,670.9c-1.08-.38-2.13-.76-3.16-1.1s-2-.71-2.91-1a4.61,4.61,0,0,1-1-.47c0,.21-.42.16-1.19-.13-3.86-1.38-7.68-3.05-11.57-4.73-2-.82-3.84-1.8-5.79-2.71s-3.89-1.83-5.79-2.88l-5.75-3.06c-1.93-1-3.79-2.18-5.7-3.27-3.83-2.14-7.5-4.57-11.25-6.88a1.58,1.58,0,0,1-.88-.07,18.11,18.11,0,0,1-5.37-3.19l-1.46-1.24c-1.53-1.19-3-2.52-4.43-3.77s-2.94-2.52-4.38-3.81l-4.23-4c-1.4-1.32-2.81-2.64-4.14-4a45.94,45.94,0,0,1-4.25-3.41c-1.35-1-2.63-2.11-3.92-3.2l-3.89-3.31c-1.32-1.1-2.55-2.29-3.81-3.46l-3.78-3.59c.18.42.21.73.06.86-.45.19-1.85-.74-3-2.23l-1.86-2.18,2.5,3.27c.85,1.08,1.74,2.11,2.6,3.17.26.3.48.59.68.86l3,3.35c1,1.11,2.14,2.16,3.23,3.24a204.55,204.55,0,0,0,30.27,24.54,254,254,0,0,0,32.32,18.22,4.25,4.25,0,0,1,1.19.7c.16.19.06.28-.36.11-14.32-5.8-27.28-10.83-42.33-20.75a233.73,233.73,0,0,1-25.78-19.62,225.56,225.56,0,0,1-23.54-23.81A336.09,336.09,0,0,1,488,568.29c-1.46-2.53-3-5-4.41-7.62l-4.2-7.87c-1.33-2.68-2.61-5.42-3.94-8.19-.32-.69-.66-1.38-1-2.08l-.9-2.14-1.81-4.31-1.23-2.94c-.39-1-.73-2-1.1-3l-2.14-6-.53-1.49-.47-1.52-.92-3c-.6-2-1.22-4-1.79-6.06l-.38-1.54-.19-.76-.09-.29-.31-1.07-.6-2.12c-.38-1.42-.77-2.84-1.15-4.25a163.39,163.39,0,0,1-3-17.45,8.61,8.61,0,0,1,.7-6.07,6,6,0,0,1,4.22-3.18,6.45,6.45,0,0,1,5.85,2.31c0-.35,0-.7,0-1l.36-1.66a6.1,6.1,0,0,1,2.43-3.7l1.5-1.12c2.85-1.47,5.44-3.79,8.54-4.85l1.15.31.35-.26a5.52,5.52,0,0,1,3.21-1.59l1.41.15a14.74,14.74,0,0,1,4.51,1.52,5,5,0,0,1,1.73.31,7,7,0,0,1,4.65-.21,1,1,0,0,1,1.38.17,1,1,0,0,1,.19.49h0c.38-.17.49-.23.92-.46.14-.33.24-.52.24-.52.31-.88.31-.88.59-1.64a4.72,4.72,0,0,1,1.26-1c2.58-.57,2.58-.56,3.67-.38l.3.16a8.17,8.17,0,0,1,.56-.73,2.69,2.69,0,0,1,.44-.24c.59,0,.59,0,.81-.06a2.74,2.74,0,0,1,.44,0c.64.36.63.36.82.38a2.33,2.33,0,0,1,.31.2c.17.37.24.52.26.59l-1.58.69.51.2-.71.14.65-.07-.42.38.6-.42a3,3,0,0,0-.31,1.3,1.35,1.35,0,0,0,0,.77,1.71,1.71,0,0,1,.34,0c-.32,1-.32,1-.67,2a4.25,4.25,0,0,1-.43.21.42.42,0,0,1,.19.48l-.15.52a.76.76,0,0,0,.08.11h0l.27.44.06.09h0c.17.3.47.75,1.23,1.89a6.53,6.53,0,0,1-.32.85,3.36,3.36,0,0,1,.29-.24c.21-.16.75,0,.81-.1a45.61,45.61,0,0,0,2.75-6.58.85.85,0,0,1,1.68-.11,13.41,13.41,0,0,1,1.59,7.25,15.72,15.72,0,0,1-.66,3.74c-.19.62-.41,1.23-.66,1.84s-.47,1.22-.75,1.81c-.27,1.24-.49,2.49-.7,3.75l.27-.19-.39,1a.43.43,0,0,0,0,.11l1-.81a5.21,5.21,0,0,0,.28-.52,17.2,17.2,0,0,1,1.19-4.2c.51-1.36,1.29-2.69,1.82-4.05a33.2,33.2,0,0,1,2.4-4,.75.75,0,0,1,.86-.53.62.62,0,0,1,.6.7,18.82,18.82,0,0,1-.49,6.89,14.71,14.71,0,0,1-3.16,6.53,4.28,4.28,0,0,1-.83,2.41v0l.79-.6c-.17.65-.82,1.05-1.06,1.66l1.09-.33c-.48,3.19,0,6.52-1.2,9.67a2.11,2.11,0,0,1-.05.35,16.9,16.9,0,0,1,1.25,1.74c.09.16.18.31.26.47a.89.89,0,0,1,.05.13l.09.36.15.72c.18,1,.46,2,.65,3q-.11-1.08-.18-2.16c0-.7,0-1.4-.07-2.11.4,1.48.79,2.95,1.19,4.45a47.72,47.72,0,0,1,.92,4.73c.83,4.41,1.35,9.22,1.82,13.59.09,1.09.16,2.17.19,3.21s.15,2,.16,3a26.54,26.54,0,0,1-.27,5,201,201,0,0,0,11,24.89,184.16,184.16,0,0,0,14.65,23.07,2.89,2.89,0,0,1,.81,1.84c-.15.24-.71-.11-1.29-.85-2.15-2.49-4-5.2-6-7.85-1-1.31-1.9-2.71-2.82-4.09l-2.76-4.16c-.88-1.41-1.7-2.86-2.56-4.29s-1.74-2.85-2.5-4.33l-2.34-4.43-1.18-2.21-1.06-2.27a160.27,160.27,0,0,0,15.54,30.35c.85,1.2,1.68,2.44,2.61,3.61a42.17,42.17,0,0,1,2.47,3.63c.54.76,1.09,1.51,1.63,2.25s1.15,1.45,1.72,2.17l3.42,4.33c1.17,1.41,2.39,2.78,3.58,4.16s2.38,2.79,3.67,4.1l3.8,4c1.26,1.35,2.65,2.58,4,3.88s2.68,2.6,4.12,3.82l4.34,3.71c1.23,1.08,2.52,2.06,3.78,3l3.73,2.92c2.48,1.89,5,3.65,7.5,5.46s5.12,3.42,7.72,5.16,5.36,3.31,8.18,5c7.95,4.64,15.8,8.65,23.71,12.49s16,7.27,24.46,10.78c2.29.84,4.28,2,4.41,2.52s-1.66.27-4-.56c-9.05-3.24-17.92-6.83-26.59-10.84A278.16,278.16,0,0,1,606,641.37a216.09,216.09,0,0,1-23.72-16.57,183.13,183.13,0,0,1-21.49-20.08c-1.49-1.54-2.81-3.2-4.2-4.79s-2.76-3.16-4-4.82a.59.59,0,0,1-.13.25c-.27.24-.77.15-1.4-.19.74.93,1.44,1.9,2.2,2.82l2.31,2.76c1.54,1.85,3,3.75,4.67,5.53,9.76,9.29,20.19,17.8,31.49,26.76,7.81,6.11,15,11.6,22.7,16.82a299.29,299.29,0,0,0,31.94,15,2.75,2.75,0,0,1,1,.53c.12.15-.15.14-.6,0-1.93-.66-3.86-1.39-5.8-2.1l-2.92-1.09c-1-.37-1.93-.78-2.89-1.18l-5.82-2.41L623.6,656c1,.91,1.57,1.64,1.27,2s-1.41.26-3-.2l5.16,2.68c1,.57,1.83,1.12,1.7,1.31s-1.07,0-2.08-.56c-3.52-1.82-7.08-3.56-10.51-5.53-1.72-1-3.46-1.9-5.16-2.91l-5.08-3a249,249,0,0,1-23.89-15.39A6.46,6.46,0,0,1,583.5,637h0c1.19.87,2.39,1.73,3.57,2.6A366.13,366.13,0,0,0,661,675.32c.52.18.92.4.9.49s-.45,0-.9-.14c-4-1.45-7.91-2.8-11.79-4.38-1.94-.78-3.92-1.47-5.83-2.3l-5.78-2.42,0,0c.29.19.3.32-.07.24a4.49,4.49,0,0,1-1.2-.5c-.33-.22-.25-.31.06-.25a380.44,380.44,0,0,1-41.16-21,330.32,330.32,0,0,0,37.22,20.55c1.47.51,2.9,1.09,4.4,1.57a3.2,3.2,0,0,1,1,.57c.07.12-.26.1-.67,0l-1.24-.42c2.46,1.08,4.21,2.28,4,2.75s-2.65-.07-5.23-1.17c-6.91-3-13.74-6.1-20.36-9.65l-2.19-1-2.29-.92a284.93,284.93,0,0,0,31.26,15.65c.92.37,1.66.83,1.61,1s-.85,0-1.79-.36a265,265,0,0,1-28.59-12A250.42,250.42,0,0,1,585,646.07c-3.15-1.53-6.22-3.21-9.39-4.82s-6.22-3.47-9.37-5.27c.69.59,1.42,1.13,2.14,1.69,2.32,1.74,4.58,3.48,6.91,5s4.65,3,7,4.5,4.69,2.72,7,4,4.71,2.49,7,3.72c9.43,4.77,19,9,29.07,13.4.52.2.9.46.92.58s-.37,0-.88-.18c-9.93-4.23-19.08-8-28.72-13l-5.89-3.11c-1.93-1-3.8-2.14-5.69-3.19l-2.82-1.58c-.93-.53-1.83-1.1-2.75-1.64L574.06,643l5.33,3.56c.89.58,1.76,1.18,2.67,1.74l2.71,1.63c1.81,1.08,3.61,2.16,5.42,3.21l5.52,3,2.75,1.48,2.79,1.4,5.59,2.79,5.67,2.65,2.84,1.34,2.88,1.26a7.31,7.31,0,0,1,1.7.93.65.65,0,0,1,.43.05c2,.65,4.15,1.48,6.37,2.24a3.19,3.19,0,0,1,1.1.59C628,671.07,627.72,671.05,627.24,670.9ZM503.54,479.33l.2-.14-.33.49-1.33.72ZM498.48,471h0l.78-.38Zm32.43,88.49c-1.73-3.67-3.56-7.27-4.93-11.06-.7-1.88-1.46-3.73-2.05-5.65s-1.14-3.83-1.67-5.75l2.24,5.34c.93,2.88,2,5.7,3,8.59S529.79,556.61,530.91,559.48Zm-22.15-85.77a13.45,13.45,0,0,1-2.55,1.88,3.62,3.62,0,0,1,.16,1.5c-.16,1.39-.21,2.74-.44,4.08.48-.2.43.12.49.28l.14.5c.3-1.44.58-2.87,1-4.31A28.82,28.82,0,0,1,508.76,473.71Zm-1.38-9.77.19-.11.72.3Zm-1.22-.48-.12.2C505.77,463.57,505.87,463.51,506.16,463.46Zm-1.06,1.81a1.69,1.69,0,0,0,.41-.24Zm-21.72.56,3.65.94-3.51-1Z"/><path d="M518.86,612.39l-.49-.27a.94.94,0,0,1,.93-.38c-4.81-1.88-9.21,1.33-11.39,5a2,2,0,0,0-1.61,2.5A2.44,2.44,0,0,0,509,621a3.2,3.2,0,0,1,.9.21,20.69,20.69,0,0,0,7.34,2.38l-1.68-.69a6.17,6.17,0,0,0,2.22.09l-.48-.58c2.78,1,5.64-.25,6.41-2.87a5.58,5.58,0,0,0-3.63-6.62Z"/><path d="M512.28,606.79c1.62.37,3.2.81,4.79,1.29l.4.33-.72-1.79,0,.13c-.69,1.86-2.47,3-4.16,4l-.56.45a1.46,1.46,0,0,0-.25,1.11,1.78,1.78,0,0,0,1.92,1.44l1-.11c2.76.36,6.55-.56,6.84-4a6,6,0,0,0-.87-2.45,2.45,2.45,0,0,0-2.83-1.78,2.13,2.13,0,0,0-1.62,2.69l-.7-.07.33-.57c0,1.14-1,1.68-1.61,2.46l-1.12.64,1.67,2.56.51-.53c-.09-.11-.25-.26-.25-.27a19.81,19.81,0,0,1,3-3l1.32-1.48a1.45,1.45,0,0,0-.71-1.8l-1-.4.46.26c-1.93-.15-3.86,0-5.79-.15a.55.55,0,0,0-.64.48A.59.59,0,0,0,512.28,606.79Z"/><path d="M518.19,604.65a1.37,1.37,0,0,0,1.08.13c.05-.16.08-.23.09-.28l-.71-.32C518.14,603.94,518,604.27,518.19,604.65Z"/><path d="M519.36,604.5l.3.14-.25-.22,0,0Z"/><path d="M425.48,643.85c-8.67,3.42-17.23,7.23-25.67,11.31-.28.14-.47.33-.42.44s.31.08.56-.06c8.45-4,17-7.82,25.65-11.22.29-.12.48-.31.46-.44S425.75,643.74,425.48,643.85Z"/><path d="M358.18,668.14c.15-.19.09-.27-.15-.19a1.61,1.61,0,0,0-.65.43c-.12.16-.05.25.15.19A1.61,1.61,0,0,0,358.18,668.14Z"/><path d="M355.61,660.74a31.79,31.79,0,0,0,2.74-2.66,1.58,1.58,0,0,1,.52-.36c-.15-.09,0-.35.33-.69,7.05-6.67,15.22-13.06,23.29-19.39a1.09,1.09,0,0,1,.14-.61,6.78,6.78,0,0,1,2.68-2.52l1-.52c3.89-2.23,7.77-4.46,11.71-6.55a16,16,0,0,1,2.43-2c3-2.57,6-5.16,9.16-7.63a.59.59,0,0,1-.58-.24c-.15-.44.48-1.22,1.4-1.77l1.38-.87L407.64,617a4.65,4.65,0,0,1-.57.26c-1.46.87-2.93,1.79-4.39,2.77-6.39,4.25-12.35,8.75-18.06,13.36s-11.17,9.31-16.52,14.06a1.55,1.55,0,0,1-.68.43c-.16,0-.2-.11,0-.3,6.31-6.68,11.32-13.35,19.06-20.3,9.23-8.25,18.59-16.23,28.73-24,11.18-7,21.19-14.29,32.64-21.81,4.24-2.78,8.47-5.43,12.73-7.94,6.62-4.22,13.34-7.85,20.32-11.41,3.45-2.26,7.69-1.44,9.41,1.77a6.88,6.88,0,0,1-.07,6.29l.9-.36,1.55-.21a5.63,5.63,0,0,1,4.06,1.07l1.51,1c2.3,2.22,5.25,3.73,7.35,6.27l.15,1.2.36.23a5.56,5.56,0,0,1,2.64,2.43l.39,1.38a14,14,0,0,1,.27,4.81,5,5,0,0,1,.35,1.74,7,7,0,0,1,1.93,4.29,1,1,0,0,1,.34,1.37,1,1,0,0,1-.41.36h0a9.76,9.76,0,0,0,.79.68c.38,0,.61,0,.61,0,1,0,1,0,1.84-.06a4.9,4.9,0,0,1,1.48.8c1.58,2.21,1.57,2.22,1.82,3.3,0,.12,0,.23,0,.34l1,.25a2.56,2.56,0,0,1,.42.33c.22.56.22.56.39.73a2.81,2.81,0,0,1,.17.43c-.11.72-.11.72-.06.91a1.78,1.78,0,0,1-.08.36l-.51.47-1.33-1.23v.56l-.42-.61.32.58-.55-.25.67.4a3.78,3.78,0,0,0-1.46.2,1.66,1.66,0,0,0-.78.32,2.39,2.39,0,0,1,.15.32l-2.27.12a4,4,0,0,1-.38-.32.46.46,0,0,1-.43.36l-.58.06-.08.12,0,0-.36.42-.07.1h0l-1.54,1.81a5.54,5.54,0,0,1-1,0l.36.19c.24.14.27.71.38.73a41.14,41.14,0,0,0,7.92.13.91.91,0,0,1,1.14.44.79.79,0,0,1-.38,1.1c-3.91,4.23-10,5.42-15.88,4.76-1.42.14-2.84.32-4.25.51l.29.2-1.18-.07-.12,0,1.13.67.65.1c3.23-.57,6.57.05,9.9.15a42.73,42.73,0,0,1,5.26.87.82.82,0,0,1,.9.63.66.66,0,0,1-.58.8c-4.82,2-10.79,2.92-16,1a4.82,4.82,0,0,1-2.86-.06h-.05l.86.58c-.76,0-1.37-.48-2.1-.55l.63,1c-3.64.4-7.18,1.84-10.9,1.45l-.39,0a21.41,21.41,0,0,1-1.67,1.63l-.46.35-.13.09-.21.12-.44.22c-.59.29-1.21.56-1.87.81l2.81-.58a26.36,26.36,0,0,1-5.65,2.62c-5.66,1.8-12.54,2.63-16.56,1.47-10.68,4.42-21.3,9.09-31.62,14.27a1.45,1.45,0,0,1-1.33.16c-.17-.2.08-.58.61-.85,7.17-4.2,14.69-8,22.32-11.59-6.74,2.24-13.46,4.69-20.12,7.61l-2.49,1.26a17.78,17.78,0,0,1-2.56,1,260.36,260.36,0,0,0-24.54,12.55c-6.94,4.14-12.93,7.92-19.65,12.36-9.43,6.25-17.9,12.08-27.49,17.91-1.23.82-2.59,1.3-3,1s.29-1.15,1.52-2c9.55-6.75,19-13.39,28.91-19.73a299.78,299.78,0,0,1,31.07-17.76c2.38-1.14,4.72-2.27,7.06-3.35a.68.68,0,0,1-.18-.2,1.14,1.14,0,0,1,.15-1.1c-2.68,1.2-5.38,2.43-8.12,3.61-7,4.36-14,8.75-21.88,12.74-5.4,2.75-10.5,4.94-15.6,7.38-5.93,3.92-11.75,8-17.67,12a1.17,1.17,0,0,1-.64.29c-.13,0-.05-.17.17-.36,3.85-3.12,7.87-6.2,12-9.22-.85.17-1.48.1-1.66-.29s.11-1.07.77-1.82l-3,1.85c-.61.38-1.18.55-1.28.36s.26-.66.84-1q6-3.84,12.08-7.53c4.71-3.21,9.45-6.33,14.26-9.39a3.62,3.62,0,0,1-2.05-.19h0l-2.25,1.39c-13.09,9.53-26.63,18.89-40.41,28.23-.26.19-.53.28-.59.21s.11-.27.35-.43l12.4-8.5h0c-.2.07-.29,0-.15-.18a1.85,1.85,0,0,1,.65-.45c.23-.07.27,0,.15.19,7.65-5.29,15.22-10.6,22.63-15.95L358.06,667,356,668.9a1.19,1.19,0,0,1-.65.28c-.1,0,0-.21.2-.38l.59-.51c-1.35.87-2.6,1.24-2.86.82s.69-1.58,2.08-2.52q5.44-3.93,11-7.65l1.16-.87,1.07-1c-5.92,3.63-11.8,7.32-17.57,11.1-.48.34-1,.52-1.08.38s.19-.53.68-.88c9.49-7.65,19.39-15,29.62-22.1l8.95-9.06-1.36.84A142.73,142.73,0,0,0,372.42,649c-4.77,4-9.43,8.09-14.64,12-.25.21-.52.3-.61.25s.05-.26.32-.46c5-3.91,9.38-7.91,14.31-12,4.08-3.37,8-6.52,11.74-9.81-8.25,5.71-15.58,12-23.4,18.09a2.93,2.93,0,0,1-1,.57c0,.06,0,.15-.13.25-.87.92-1.85,1.86-2.89,2.79a1.21,1.21,0,0,1-.65.34C355.33,661.13,355.4,661,355.61,660.74Zm144.07-56.93.21.14-.6-.16-1.15-1Zm6.7-7.6h0l.65.61Zm-63.54,36a90.26,90.26,0,0,1,14.42-4.87l-3.33,1.53Zm64.27-25.34a13.66,13.66,0,0,1-2.77-1.76,4.39,4.39,0,0,1-1.49.68c-1.45.37-2.9.64-4.35.87.35.39,0,.44-.15.55l-.47.28c1.57-.17,3.16-.3,4.79-.39A30,30,0,0,1,507.11,606.84Zm9.56-4.88.18.13,0,.79S516.76,602.49,516.67,602Zm0-1.33-.24,0C516.42,600.3,516.53,600.38,516.68,600.63Zm-2.23-.32a1.76,1.76,0,0,0,.4.3A4.7,4.7,0,0,1,514.45,600.31Zm-8.6-20.21.47,3.79-.36-3.68Z"/><path d="M276.65,472l.62-.06a1.45,1.45,0,0,1-.81.95,12.82,12.82,0,0,0,6.9-4.51,20.61,20.61,0,0,0,3.72-7c1.29-.85,1.84-2.32,1.19-3.3s-2.26-1.07-3.64-.2a5.13,5.13,0,0,1-1.11.3,24.33,24.33,0,0,0-9.32,2.18l2.18-.41a9.76,9.76,0,0,0-2.6,1.35l.74.25c-3.54.86-6.37,4.17-6.08,7.21s3.36,4.61,6.68,3.65Z"/><path d="M285.73,473.25c-1.79.57-3.59,1.08-5.42,1.62l-.54-.06,1.49,1.2-.07-.1c-.11-2.13,1.26-4.31,2.7-6.16l.43-.74a1.45,1.45,0,0,0-.13-1.2,1.84,1.84,0,0,0-2.59-.25l-1.08.73c-3.12,1.3-6.81,4.75-5.49,8.1.31.76,1.28,1.14,2,1.65a2.67,2.67,0,0,0,3.63-.18,2.46,2.46,0,0,0,.47-3.46l.75-.35c0,.24-.07.48-.1.72-.51-1,.31-2.15.66-3.25l.93-1.25-2.75-1.43-.33.82.36.1a34.6,34.6,0,0,1-1.87,4.66l-.69,2.21a1.27,1.27,0,0,0,1.52,1.18l1.13-.23-.58,0c2-1.06,3.87-2.34,5.89-3.27a.72.72,0,0,0,.47-.8A.57.57,0,0,0,285.73,473.25Z"/><path d="M280.7,478.69a1.8,1.8,0,0,0-1.12.56c0,.17,0,.26,0,.31l.84-.15C281.07,479.3,281,479,280.7,478.69Z"/><path d="M279.62,479.56l-.36.06.34,0,0-.05Z"/><path d="M463.69,603.18a105.66,105.66,0,0,1,7,21.55,123.83,123.83,0,0,1,2.63,21.68,111.33,111.33,0,0,1-1.44,22.25,86,86,0,0,1-7.21,22.9L464,693l-.8,1.43-1.63,2.83-.83,1.4-.91,1.34c-.62.89-1.21,1.78-1.86,2.65a69.17,69.17,0,0,1-8.89,9.74A63.28,63.28,0,0,1,426,725.64a66,66,0,0,1-13,2.73c-1.09.1-2.19.2-3.28.28l-3.29.09c-2.13,0-4.22-.07-6.27-.24a94.61,94.61,0,0,1-22.49-4.83,12.55,12.55,0,0,0-3.48-.9c-.14.1,1.18.74,2.87,1.3a96,96,0,0,0,22.53,5c1,.07,2.07.16,3.11.21l3.17.08c2.19,0,4.42-.09,6.62-.32a66.45,66.45,0,0,0,13.09-2.62A63.8,63.8,0,0,0,449,713.27a66,66,0,0,0,9.05-9.74c.7-.85,1.29-1.75,1.92-2.64s1.25-1.76,1.78-2.73l1.66-2.84c.52-1,1.12-1.92,1.54-2.87a85.24,85.24,0,0,0,7.43-23A111.88,111.88,0,0,0,474,647.08a123.71,123.71,0,0,0-2.5-21.77,106.28,106.28,0,0,0-6.85-21.63,18.17,18.17,0,0,0-2.15-3.77C462.25,599.89,462.82,601.33,463.69,603.18Z"/><path d="M181.19,648.42c1.06-.33,1-.46-.16-.3a20.89,20.89,0,0,0-3.77.88c-.88.34-.8.48.17.29C178.56,649.06,180.3,648.72,181.19,648.42Z"/><path d="M189.5,636.35l2.59-.53,2.59-.37,5.06-.75,4.91-.47L207,634l2.32-.12a33.78,33.78,0,0,1,3.38,0c-.41-.21,1-.49,3.59-.36l4.86.17,4.86.44c1.63.11,3.24.41,4.87.64l2.44.36c.85.15,1.78.38,2.66.57,3.44.82,6.39,1.68,9.45,2.58s6,1.84,9,2.77c12,3.8,23.87,7.9,35.83,12.16s23.94,8.66,35.9,13.21,23.93,9.17,35.8,13.94a6.68,6.68,0,0,1,2.23.28,63.18,63.18,0,0,1,7.27,2.32c2.88,1.08,6,2.37,9.15,3.65,1.56.68,3.09,1.31,4.61,1.91,2.31.87,4.59,1.66,6.81,2.32a65.88,65.88,0,0,0,6.51,1.57,42.33,42.33,0,0,0,6.16.68c1,.06,1.93,0,2.87,0s1.85-.13,2.77-.28a29,29,0,0,0,18.77-10.79c.45-.64.82-1.41,1.26-2.14s.74-1.56,1.17-2.35a22.54,22.54,0,0,0,1.14-2.6l.59-1.37c.16-.5.33-1,.5-1.52,4-13.89,2.68-31.86-2.63-46.71.15,1,.1,1.63-.15,1.69s-.85-.92-1.47-2.23c-.31-.65-.62-1.44-1-2.22s-.72-1.74-1.12-2.57-.78-1.71-1.22-2.49-.83-1.59-1.31-2.3c.35.5.58,1.13.89,1.68a19,19,0,0,1,.85,1.75l.8,1.83.74,2,.37,1c.12.35.22.71.33,1.07l.64,2.12c.38,1.46.75,2.93,1.08,4.42q.26,1.32.42,2.43a87.51,87.51,0,0,1,1.67,20.54c-.35,7.44-1.73,14.55-4.21,19.89a13,13,0,0,1-1,1.9,17.43,17.43,0,0,1-1,1.83l-.57.9c-.2.29-.42.55-.62.83s-.4.57-.62.84l-.65.77a28.69,28.69,0,0,1-2.8,2.82,26.23,26.23,0,0,1-3.15,2.27,26.93,26.93,0,0,1-3.46,1.79c-.62.21-1.21.52-1.86.68l-.94.31-1,.25a28.92,28.92,0,0,1-8.42.75,54.4,54.4,0,0,1-10.05-1.58,115.25,115.25,0,0,1-11.16-3.47c-3.9-1.4-7.78-3-12.09-4.68s-8.42-3.35-12.63-5c-8.4-3.29-16.82-6.43-25.21-9.53s-16.79-6.13-25.19-9.1-16.82-5.85-25.24-8.69a28.42,28.42,0,0,1-3.75-1.46c-.61-.36-.43-.48.82-.1l31.4,9.64c10.26,3.22,20.44,6.42,30.76,9.78s20.78,6.94,31.64,10.87c2.78,1,5.3,1.91,7.85,2.79s5,1.67,7.43,2.38a66.83,66.83,0,0,0,13.42,2.76c.61.07,1.19.09,1.75.11s1.12,0,1.67,0,1.05-.06,1.57-.07.92-.12,1.39-.16a19.83,19.83,0,0,0,5-1.4,19.32,19.32,0,0,0,7.63-5.89c.24-.35.52-.65.76-1s.48-.72.72-1.09.44-.8.68-1.18.34-.81.54-1.19a24.7,24.7,0,0,0,1.08-2.59,12.89,12.89,0,0,0,.47-1.48c.14-.51.3-1,.47-1.53a60.11,60.11,0,0,0,1.55-14.94,77.74,77.74,0,0,0-2-16.37,68.47,68.47,0,0,0-2.28-7.61l-.66-1.77-.73-1.63-.35-.82-.37-.68-.71-1.37c-.53-.8-1-1.68-1.5-2.35a23.93,23.93,0,0,0-1.5-2.07,10.47,10.47,0,0,1-.79-1c-.28-.31-.59-.6-.86-.92s-.63-.61-.93-.93a9.63,9.63,0,0,0-1-1c-.19-.16-.36-.33-.54-.5s-.42-.32-.62-.49c-.43-.33-.8-.68-1.31-1s-.91-.71-1.46-1.07l-1.64-1.09c-2.29-1.51-5.09-3.09-8.22-4.85L397,604l-1.29-.74-1.28-.75-1-.63-2-1.24-2.06-1.21c-2.78-1.53-5.62-3-8.59-4.34a103.71,103.71,0,0,0-19.43-6.46c-1.79-.42-3.61-.82-5.53-1.21l-6-1.14c-2.08-.39-4.35-.85-6.84-1.4-.66-.16-1.24-.28-1.94-.47l-1.06-.29-.61-.16-.15,0s-.09-.13-.14-.19a.54.54,0,0,0-.06-.11l-.08,0-.17,0c-.86-.27-1.73-.52-2.58-.81s-1.66-.68-2.46-1.06-1.54-.87-2.35-1.24l-1.2-.56a3,3,0,0,1-.59-.3l-.5-.44-1-.88c-.33-.31-.61-.64-.92-1a17.82,17.82,0,0,1-1.67-2c-.52-.71-1.1-1.32-1.65-2l-.2-.25a1.55,1.55,0,0,1-.14-.29l-.28-.6-.55-1.19c-.33-.81-.6-1.64-.9-2.46a11.34,11.34,0,0,1-.4-1.25l-.18-.63c0-.21-.05-.45-.08-.67-.11-.92-.21-1.83-.28-2.72l-.12-1.36a8.74,8.74,0,0,1-.06-1.36l.13-2.79a4.05,4.05,0,0,1,.28-1.39l.42-1.39c.59-1.87,1-3.63,1.48-5.45,0-.23.39-.38.42-.59l.24-.59.2-.49.18-.43c.25-.57.49-1.14.76-1.68a58.63,58.63,0,0,1,7.65-12c.72-.92,1.57-1.81,2.37-2.7s1.71-1.76,2.7-2.61a29.66,29.66,0,0,1,3.15-2.47,26.14,26.14,0,0,1,3.58-2.16l.94-.5,1-.41,2-.8c.68-.27,1.38-.39,2.06-.59a21.09,21.09,0,0,1,2.06-.49,39.93,39.93,0,0,1,4-.55c.61-.05,1.29-.14,1.86-.16l1.74-.11,1.62-.1c.51,0,1.08-.08,1.53-.13.9-.1,1.88-.22,2.59-.38a7.49,7.49,0,0,0,1.09-.29l.9-.34a2.82,2.82,0,0,0,.69-.43c.19-.16.45-.24.56-.43a3.53,3.53,0,0,0,.63-1l.2-.47.17-.59c.11-.27.24-.84.37-1.25s.26-.95.41-1.45a59,59,0,0,0,1.45-7.28,21.49,21.49,0,0,0-.08-7.14,10,10,0,0,0-.9-2.61,8.12,8.12,0,0,0-1.29-1.73,14.23,14.23,0,0,0-2.28-1.79,25.85,25.85,0,0,0-3.18-1.74,40.82,40.82,0,0,0-9.13-2.94,23.38,23.38,0,0,0-4.79-.55,14.41,14.41,0,0,0-3.08.56,21.92,21.92,0,0,0-2.79,1.2,31.79,31.79,0,0,0-2.91,1.76c-.25.15-.52.38-.78.55s-.52.36-.79.58l-.8.61L339,493l-.37.38c-.24.24-.48.47-.73.74l-.74.77-.75.8c-1,1.08-2.05,2.17-3.12,3.38s-2.14,2.44-3.22,3.79c-1.31,2.32-4.45,2.44-7.17.11a7.91,7.91,0,0,1-2.73-5.42l-.52.52-1.06.57a4.57,4.57,0,0,1-3.54.23l-1.64-.43c-2.8-1.17-5.86-1.39-8.81-2.7l-.71-1-.41-.05a6,6,0,0,1-3.37-.95l-1-1a13.38,13.38,0,0,1-2.55-4.05,4.85,4.85,0,0,1-1.12-1.36,6.74,6.74,0,0,1-3.73-2.84.94.94,0,0,1-.94-1,1.08,1.08,0,0,1,.22-.53h0a8.37,8.37,0,0,0-1-.2c-.36.19-.59.29-.59.29l-1.68,1.06a5.28,5.28,0,0,1-1.76.12c-2.53-1.05-2.55-1-3.3-1.86,0-.11-.09-.22-.12-.33-.76.28-.82.29-1,.36a2.52,2.52,0,0,1-.56,0c-.48-.37-.48-.37-.73-.42a2.21,2.21,0,0,1-.37-.27c-.23-.71-.23-.71-.37-.84a2.27,2.27,0,0,1-.1-.38c.18-.47.24-.66.27-.74l1.88.28-.25-.51.69.3-.58-.33.66-.11-.84,0a5.51,5.51,0,0,0,1.35-1.07,2.09,2.09,0,0,0,.62-.76,1.85,1.85,0,0,1-.28-.2c1.1-.74,1.11-.74,2.21-1.43a4.34,4.34,0,0,1,.52.09.58.58,0,0,1,.27-.58l.56-.37a1.24,1.24,0,0,0,0-.16l0,0c.08-.24.14-.4.2-.59l0-.13h0c.14-.4.33-1,.89-2.52a7.76,7.76,0,0,1,1-.52h-.44c-.3,0-.54-.52-.66-.49a38.58,38.58,0,0,0-8.23,4.49,1.09,1.09,0,0,1-1.36.32.81.81,0,0,1-.08-1.25c2.2-6.45,8.75-11.31,15.56-13.38,1.59-.79,3.16-1.61,4.77-2.39l-.37-.07,1.38-.43.14-.07-1.44-.19-.78.17c-3.65,2-7.6,3-11.4,4.72-2,.93-4.11,1.4-6.18,2.21a.89.89,0,0,1-1.22-.05.86.86,0,0,1,.37-1.13,34.78,34.78,0,0,1,8.5-6.45,24.3,24.3,0,0,1,10-3,7.55,7.55,0,0,1,3.51-1.12l.06,0-1.13-.24c.93-.34,1.76,0,2.66-.26l-.88-.72c1.12-.45,2.24-1,3.39-1.44s2.27-1,3.44-1.45a24.51,24.51,0,0,1,7.17-1.79c.18-.05.35-.08.52-.11a20.69,20.69,0,0,1,2.46-1.92l.68-.43.09,0,0,0h0l.08,0c.54-.2,1.12-.37,1.68-.56,1.13-.36,2.24-.73,3.44-1a66.3,66.3,0,0,1,15.32-2.39,67.65,67.65,0,0,0-10.87,1.06c-1.78.29-3.48.69-5.2,1.1-.87.19-1.68.45-2.53.68l-1.27.36c-.2.06-.42.11-.62.18l-.26.08h0l0,0,.29-.11.66-.23,1.34-.44c.9-.29,1.78-.59,2.71-.83l2.77-.74,2.85-.62a65.34,65.34,0,0,1,11.93-1.29,59.3,59.3,0,0,1,12.46,1.11,63.34,63.34,0,0,1,6.18,1.53c2,.69,4.09,1.38,5.83,2.16a78.12,78.12,0,0,1,13.54,7.59,68.4,68.4,0,0,1,12.2,10.76,51.21,51.21,0,0,1,9.23,14.77,42.94,42.94,0,0,1,3.07,16.9,47.15,47.15,0,0,1-2.63,14.39,48.31,48.31,0,0,1-5.5,11.23,41.87,41.87,0,0,1-7.34,8.35c-.64.58-1.38,1.11-2,1.62s-1.47,1-2.17,1.43a21.53,21.53,0,0,1-2.11,1.24c-.76.35-1.48.68-2.18,1l-.94.45-1,.35c-.68.23-1.35.45-2,.65a16.2,16.2,0,0,1-2.05.42c-.67.09-1.36.25-2,.28a30.45,30.45,0,0,1-3.8,0c-.59,0-1.21-.06-1.77-.12l-1.63-.2c-.56-.06-1.06-.13-1.54-.21l-1.48-.23c-.88-.13-1.85-.28-2.65-.36l-1.23-.12c-.41,0-.76,0-1.14,0a14.11,14.11,0,0,0-2.11.12c-2.66.3-4.67,1.76-6.65,3.84a30.69,30.69,0,0,0-5,7.91c-.36.72-.62,1.49-.93,2.23s-.53,1.5-.74,2.25a21.12,21.12,0,0,0-.56,2.25c0,.08,0,.2-.06.26l-.05.16a1.85,1.85,0,0,0-.06.26l-.13.5a6.59,6.59,0,0,0,.14,4,3,3,0,0,0,1.38,1.42,4,4,0,0,0,.94.37,4.31,4.31,0,0,0,.49.11,2.18,2.18,0,0,0,.6.07c1.29,0,2.84-.13,4.54-.32l5.35-.61a180.57,180.57,0,0,1,24.25-1.75,116.93,116.93,0,0,1,12.89.76c2.17.23,4.33.55,6.49.9s4.31.81,6.44,1.33,4.26,1.06,6.39,1.65c1.88.52,3.68,1,5.63,1.64a119.12,119.12,0,0,1,12.16,4.37,75.52,75.52,0,0,1,13,7.1A68.2,68.2,0,0,1,453.18,586a50.93,50.93,0,0,1,3.66,4.76,13.6,13.6,0,0,1,1.5,2.86c0,.27-.47-.16-1.25-1.09-.39-.46-.87-1-1.41-1.74l-1.93-2.29a66.47,66.47,0,0,0-8.11-8.07c-1.47-1.18-3-2.33-4.48-3.39s-3.06-2.08-4.61-2.93l-2.32-1.33-2.32-1.17c-1.55-.81-3.06-1.42-4.58-2.11-3-1.24-6-2.35-8.81-3.24l-2.12-.68-2.07-.62c-1.39-.42-2.68-.78-4-1.15l-4.49-1.23-4.59-1.06a116.94,116.94,0,0,0-18.5-2.37,140.28,140.28,0,0,0-18.06.36c-5.82.45-11.48,1.22-16.43,1.66-.63.06-1.23.11-1.8.14s-1.13.06-1.66.08H344a5.08,5.08,0,0,1-.6,0c-.27-.09-.57-.09-.84-.2a3.91,3.91,0,0,1-2.71-2,4.06,4.06,0,0,1-.43-1.69,3.07,3.07,0,0,1-.08-.86,6.33,6.33,0,0,1,0-.87,10.23,10.23,0,0,1,.31-1.74c.07-.32.12-.48.26-1s.25-1.1.42-1.66a13.56,13.56,0,0,0-.37,1.39c-.1.52-.24.79-.27,1a12.35,12.35,0,0,0-.34,1.46,9.3,9.3,0,0,0-.16,1.5v.37l.06.37c0,.12,0,.26,0,.39a2.38,2.38,0,0,0,.06.37,3.83,3.83,0,0,0,1.51,2.54,5.47,5.47,0,0,0,.65.41c.24.08.46.22.71.28a4.64,4.64,0,0,0,.73.2l.37.1c.15,0,.26,0,.48,0a56.72,56.72,0,0,0,5.84-.24l6.74-.58c4.66-.43,9.59-.77,14.6-.86a117.18,117.18,0,0,1,30.8,3.41c1.28.34,2.57.65,3.83,1l3.77,1.15c2.24.7,4.52,1.45,6.89,2.26a103.43,103.43,0,0,1,14.87,6.38,66.22,66.22,0,0,1,15.29,10.89,57.81,57.81,0,0,1,11.3,15.22c1,1.71,1.74,3.44,2.6,5.17s1.43,3.4,2.13,5.11,1.2,3.4,1.78,5.1,1,3.39,1.49,5.09a116.93,116.93,0,0,1,3.52,20.47c1.09,13.71.21,27.78-4.9,42.15-.33.9-.62,1.79-1,2.69l-1.18,2.68c-.41.89-.8,1.78-1.23,2.66l-1.47,2.65L458,696.81l-1.67,2.49c-.55.84-1.15,1.64-1.78,2.44s-1.22,1.61-1.89,2.38a64.12,64.12,0,0,1-8.86,8.64,60.44,60.44,0,0,1-10.57,6.76A62.23,62.23,0,0,1,409,726c-1,0-2.11.1-3.14.12l-3,0c-2-.08-4-.21-5.94-.43a91,91,0,0,1-11.29-2,130.79,130.79,0,0,1-17-5.45c-5.17-2-10.05-4.18-14.47-6.06-9-3.91-18-7.58-26.93-11.33s-17.92-7.4-27.07-11.06-18.4-7.41-28-11.15l-20-7.71-9.78-3.68-4.82-1.76-4.69-1.64-2.19-.71c-.68-.22-1.57-.53-2-.62l-.73-.22a6.08,6.08,0,0,0-.83-.23l-2.13-.45-2.13-.46-2.15-.33c-1.43-.22-2.86-.5-4.3-.6s-2.88-.34-4.33-.41l-4.35-.18c-1.45-.05-2.91,0-4.37,0l-2.2,0-2.2.17a117.78,117.78,0,0,0-17.74,2.56l-4.46,1.13c-1.48.37-3,.7-4.46,1.21l-4.47,1.4c-.74.25-1.5.44-2.24.72l-2.22.84c-3,1.14-6,2.13-8.93,3.5s-6,2.49-8.9,4c-6,2.76-11.83,6-17.79,9.39-3.1,1.89-6.15,3.65-8.58,4.92a25.49,25.49,0,0,1-4.61,2.31c-.51.06.29-.74,2-2.08.42-.33.89-.71,1.43-1.09l1.77-1.18c1.26-.84,2.7-1.77,4.26-2.74A225.4,225.4,0,0,1,161.7,665.5a144.39,144.39,0,0,1,19.45-6.13,124,124,0,0,1,19.6-2.9,103.25,103.25,0,0,1,19.36.81c1.59.27,3.2.42,4.77.8l2.37.49c.38.08.82.16,1.15.25l.88.26.88.24,1.18.39,2.38.77,5,1.74c6.83,2.45,13.77,5.09,20.69,7.77s13.89,5.38,20.84,8.16c13.89,5.56,27.82,11.19,41.73,17L342.89,704l10.43,4.5L364,713.09a140.39,140.39,0,0,0,24.38,8.34,80.09,80.09,0,0,0,14.19,2c1.24,0,2.48.06,3.74.05s2.59-.06,3.88-.18a59.78,59.78,0,0,0,22.5-6.28,58.48,58.48,0,0,0,12.95-9,61.45,61.45,0,0,0,10-11.91c.71-1.06,1.32-2.22,2-3.34a37.37,37.37,0,0,0,1.81-3.41,64.43,64.43,0,0,0,2.9-6.93,89.24,89.24,0,0,0,4.9-23.82,114.12,114.12,0,0,0-.72-23c-.08.21-.16.4-.27.42-.47.06-1-1.33-1.75-3.65a109.64,109.64,0,0,1,1.1,25.77,86.83,86.83,0,0,1-6,26.3l-2,4.58c-.69,1.52-1.57,3-2.38,4.5s-1.79,2.89-2.7,4.32-2,2.77-3.12,4.09a60.41,60.41,0,0,1-7.34,7.41,58.9,58.9,0,0,1-8.69,6,58,58,0,0,1-20,6.73,63.92,63.92,0,0,1-10.46.57,80.57,80.57,0,0,1-10-1c-12.94-2.2-24-7-34.19-11.55l-30.32-13.49-40.68-18.21c-13.16-5.88-26.1-11.58-39.17-17.09-4.2-1.57-8.4-3.08-12.53-4.49-1.05-.38-2-.65-3-1l-1.49-.48-1.25-.35c-.43-.11-.78-.24-1.27-.34l-1.51-.3-3-.62a101.82,101.82,0,0,0-24.5-1.29c-2.06.2-4.13.34-6.19.57l-6.19.93c-4.1.85-8.23,1.65-12.3,2.87l-3.08.84c-1,.29-2,.67-3,1-2,.7-4.06,1.34-6.08,2.08-4,1.66-8.06,3.09-12,5A19.87,19.87,0,0,1,148,667c-.51.11.13-.3,1.4-.92a153.84,153.84,0,0,1,33.78-12.38c1.46-.32,2.91-.72,4.38-1L192,652c.74-.12,1.47-.26,2.21-.36l2.23-.23,4.46-.46a115.89,115.89,0,0,1,17.87.27c-3.7-.79-5.93-1.59-5.6-2.13.17-.32,1-.51,2.37-.65.69-.07,1.51-.12,2.45-.15.47,0,1,0,1.49,0l1.65.09c-.69-.1-1.38-.23-2.07-.3l-2.09-.2c-1.39-.12-2.78-.31-4.18-.37-2.79-.08-5.59-.29-8.4-.14-1.73,0-3.29,0-4.4,0s-1.78-.07-1.75-.22.73-.37,1.84-.57a36.87,36.87,0,0,1,4.31-.29c2.89-.16,5.78.06,8.66.12,1.44.08,2.87.26,4.31.38l2.15.2,2.14.33c1.42.23,2.85.39,4.26.69l4.22.87c.71.15,1.31.36,2,.53l1,.27,1,.34c1.38.46,2.75.88,4.16,1.39,11.19,3.94,22.41,8.37,33.57,12.8q40.44,15.48,80.33,32.39c-3.49-2-6-3.77-7-5,0,0,0,0,0,0l-12.36-5.23Q304.28,675,275.26,664.07c-9.67-3.62-19.37-7.25-29.11-10.68l-3.65-1.28-3.65-1.22c-1.22-.42-2.43-.8-3.63-1.16l-1.8-.56-1.7-.46c-1.09-.33-2.37-.53-3.59-.77s-2.44-.52-3.68-.67c-2.48-.32-4.94-.74-7.44-.88a113.68,113.68,0,0,0-30,1.54,148.12,148.12,0,0,0-29.19,8.76l-3.56,1.47-1.78.73-1.74.84-7,3.33c-2.29,1.18-4.54,2.45-6.83,3.67l-3.41,1.84-3.33,2-6.66,4L117,679c-4.39,2.81-8.52,6-12.77,9.07a13.74,13.74,0,0,1-2.54,1.65,10.2,10.2,0,0,1,2.08-1.74l7.64-5.6c1.26-1,2.6-1.8,3.9-2.69l3.92-2.63,3.92-2.63,4-2.45,4-2.44,2-1.23,2.06-1.12a184.46,184.46,0,0,1,34-15.21l-.1,0c-1,.25-1.18.18-.18-.27a21.9,21.9,0,0,1,3.72-1.11c1.13-.23,1.06-.06.19.27a126.37,126.37,0,0,1,33.69-5.36,108.55,108.55,0,0,1,16.91,1.14c.7.1,1.4.17,2.09.3l2.08.4,2.08.4c.35.07.71.13,1,.21l1,.25c.65.18,1.27.32,1.95.53l2,.63c1.35.41,2.72.87,4.1,1.33,11,3.68,21.93,7.79,32.82,11.84s21.73,8.23,32.52,12.39c-19.91-8.07-39.91-16-60-23.4-2.51-.93-5-1.78-7.54-2.65l-3.76-1.22c-.62-.19-1.21-.33-1.82-.51s-1.2-.34-1.85-.45l-3.85-.79c-1.27-.28-2.58-.4-3.87-.61-2.58-.45-5.19-.62-7.8-.87a115.35,115.35,0,0,0-31.32,2.16l-3.34.87c-1.11.31-2.23.54-3.32.93l-6.62,2.14a27.67,27.67,0,0,1-3.31,1c-.37,0,.47-.41,1.69-.88s2.45-.82,3.68-1.24c-7.67,2.26-13.63,4.11-13.74,3.5.08-.39,1.66-1.43,4.29-2.55,1.31-.58,2.86-1.23,4.59-1.91l1.32-.51,1.41-.44,3-.89a125.87,125.87,0,0,1,33.4-5.44c1.41-.06,2.83,0,4.24,0s2.83,0,4.24.14l4.23.34c1.41.08,2.8.35,4.21.52,2.81.31,5.57.94,8.35,1.45,2.76.69,5.45,1.55,8.13,2.44,2.33.75,4.66,1.48,7,2.27s4.71,1.42,7.05,2.16c-2.05-.78-4.1-1.56-6.17-2.31s-4.12-1.51-6.2-2.22-4.17-1.42-6.27-2.1c-1.06-.33-2.15-.61-3.23-.91l-3.25-.67a109.22,109.22,0,0,0-26.39-2,131.79,131.79,0,0,0-26.14,3.95L169.83,646l-1.59.45-1.55.55-3.11,1.1c-4.19,1.37-8.19,3.18-12.25,4.87-1.4.56-2.63,1.2-3.59,1.58a4.25,4.25,0,0,1-1.66.52c-.15-.14,1.92-1.49,4.68-2.75l5.31-2.41,2.67-1.2c.9-.37,1.81-.71,2.72-1.06l5.47-2.1c1.83-.7,3.73-1.22,5.59-1.84,3.71-1.28,7.56-2.12,11.38-3.1,1.92-.44,3.87-.75,5.81-1.12,1-.18,1.95-.38,2.92-.53l3-.36c3.92-.57,7.9-.76,11.88-1l6,0c2,.07,4,.23,6,.35a114,114,0,0,1,11.91,1.63,30.36,30.36,0,0,1,3,.67c.51.13,1,.25,1.53.39l1.43.42,2.87.85,2.8.9c14.89,4.87,29.47,10.25,44.07,15.74s29.12,11.2,43.61,17q14.63,4.94,29.25,10.16c4.88,1.73,9.85,3.55,14.56,5.18a142.48,142.48,0,0,0,14.06,4.11c-2.26-.72-4.57-1.53-6.9-2.4-3.71-1.39-7.43-2.93-11.18-4.53L359,683.38q-11.42-4.71-22.61-9c-14.95-5.77-29.64-11.17-44.36-16.35s-29.37-10.24-44.48-15c-3.78-1.2-7.6-2.37-11.61-3.47l-3.24-.76-3.08-.51c-1-.16-2-.35-3.08-.49l-3.12-.35a120.46,120.46,0,0,0-25.26-.08,13.9,13.9,0,0,1-3.34.16c-.2-.11.94-.36,2.66-.55a122.6,122.6,0,0,1,24.66-.28l3,.33c1,.1,2,.21,3,.39l3,.48,1.5.24c.51.1,1.06.24,1.58.35,4.25,1,7.8,2.13,11.58,3.25,14.8,4.61,29.29,9.53,44.33,14.89,12.46,4.43,24.57,8.87,36.44,13.29s23.51,8.81,35,13.2q-17.38-7.32-34.68-14t-34.58-12.94c-11.55-4.18-23.1-8.28-34.83-12.21-5.86-2-11.73-3.9-17.88-5.73-1.56-.45-3.05-.9-4.89-1.32l-1.32-.31c-.44-.11-.82-.15-1.24-.23l-2.44-.41-2.44-.41-2.46-.29c-1.64-.16-3.27-.42-4.92-.51-2.31-.1-4.62-.34-6.09-.55a4.75,4.75,0,0,1-1.31.16l-5,.2c-1.71.11-3.44.3-5.19.45l-2.65.24-2.65.39c-1.77.27-3.56.5-5.35.8a24.19,24.19,0,0,1-3.83.54C187.18,637,188,636.69,189.5,636.35ZM299.72,470l-.26-.05.67-.1,1.47.53Zm-4,10h0l-.87-.25Zm55.06,82c-1.55.12-3.1.25-4.5.29a14.57,14.57,0,0,1-3.5-.11,6.65,6.65,0,0,1-2.18-.87,4,4,0,0,1-1.47-1.8,8.24,8.24,0,0,1-.21-4.64,10.92,10.92,0,0,1,.27-1.13c.06-.19.08-.37.17-.6s.16-.65.24-1c.17-.67.4-1.34.6-2l.73-2a37.21,37.21,0,0,1,4.1-7.49,18.27,18.27,0,0,1,5.49-5.38,12.08,12.08,0,0,1,7.1-1.45c2.79.14,6,.93,10,1.2-3.9-.22-7.05-.94-9.79-1.08a12.14,12.14,0,0,0-6.91,1.31,13,13,0,0,0-2.19,1.6l-1.05.93-1,1.09a33.94,33.94,0,0,0-3.56,5.24,36.75,36.75,0,0,0-2.62,5.89c-.32,1-.66,2-.87,3-.13.42-.18.63-.26.92a7.19,7.19,0,0,0-.21.83,9.56,9.56,0,0,0-.17,3.42,4.22,4.22,0,0,0,1.68,2.95,5.29,5.29,0,0,0,1.57.75,7.59,7.59,0,0,0,.85.24,4.34,4.34,0,0,0,.48.08l.67,0C346.17,562.3,348.44,562.18,350.81,562Zm-59.76-91.53a12.48,12.48,0,0,1,3.47.32,5.06,5.06,0,0,1,1.33-1.32,37.73,37.73,0,0,1,4.32-2.69c-.47-.24-.11-.43,0-.59l.44-.46-5,2.4C294.12,468.88,292.61,469.86,291.05,470.48Zm-7.63,9.73-.24,0-.33-.73S283.09,479.79,283.42,480.21Zm.59,1.2.25-.11C284.41,481.55,284.28,481.54,284,481.41Zm2.29-1a2.14,2.14,0,0,0-.52,0ZM303.39,494l-2.21-3.08,2.06,3Z"/><path d="M334.42,381.18l.25.07a.5.5,0,0,1-.4.3c2.43.32,4.22-1.73,4.92-3.84a1.09,1.09,0,0,0-.91-2,1.62,1.62,0,0,1-.44,0,8.37,8.37,0,0,0-3.69-.26l.86.12a2.75,2.75,0,0,0-1.06.25l.28.23a2.54,2.54,0,1,0-.45,5.05Z"/><path d="M338,383.15c-.8,0-1.58,0-2.37-.08l-.22-.12.5.79,0-.06a4.56,4.56,0,0,1,1.6-2.43l.22-.28a.78.78,0,0,0,0-.58.79.79,0,0,0-1-.49l-.49.18c-1.33.15-3,1.09-2.85,2.8A2.82,2.82,0,0,0,334,384a1.12,1.12,0,0,0,2-1l.34,0c0,.11-.07.21-.11.31-.11-.55.32-.93.54-1.39l.47-.44-1-1.07-.19.33.14.1a11,11,0,0,1-1.12,1.84l-.49.88a.69.69,0,0,0,.5.78l.49.08-.25-.07c.93-.16,1.82-.45,2.75-.58a.29.29,0,0,0,.26-.3A.3.3,0,0,0,338,383.15Z"/><path d="M335.43,384.85a.65.65,0,0,0-.51.07.53.53,0,0,0,0,.14l.36.08C335.52,385.19,335.54,385,335.43,384.85Z"/><path d="M334.9,385.06l-.15,0,.13.08v-.05Z"/><path d="M359.39,368a40.68,40.68,0,0,0,3.95-1.5s0-.09,0-.17-.11-.12-.15-.1c-1.29.55-2.59,1.05-3.94,1.48,0,0-.05.09,0,.17S359.35,368,359.39,368Z"/><path d="M372.79,370.54a.26.26,0,0,0,.11.2c.05,0,.1,0,.1-.06a.3.3,0,0,0-.11-.19C372.82,370.45,372.78,370.48,372.79,370.54Z"/><path d="M376,376.74a1.91,1.91,0,0,0-.22.72c0,.05,0,.06-.08,0a.42.42,0,0,1,.08.34,15,15,0,0,1-2.61,4.14,1.52,1.52,0,0,1,.11.32c.09.37,0,.63-.2.68h-.19c-.66.14-1.29.31-2,.44a.76.76,0,0,1-.24.48,12.35,12.35,0,0,1-.86,1.87,1.25,1.25,0,0,1,.23.27c.14.27.14.54,0,.6l-.19.14c.23,0,.46-.09.7-.12,0,0,.06,0,.1,0a4.12,4.12,0,0,0,.63-.39,15.21,15.21,0,0,0,4-5.53c0-.06.06-.08.12,0a.32.32,0,0,1,.09.2c-.35,2-.3,4.3-1.05,5.9a29.65,29.65,0,0,1-3,5.19c-1.6.92-2.71,2.41-4.08,3.83a17.53,17.53,0,0,1-1.41,1.33c-.08.06-.07.07-.22.18l-.38.26-.75.51-1.51,1c-2,1.31-4.08,2.54-6.17,3.78a3.32,3.32,0,0,1-5.19-3.61l-.4.2-.72.16a2.85,2.85,0,0,1-2-.33l-.81-.42c-1.29-.93-2.82-1.46-4-2.51l-.18-.56-.19-.08a2.84,2.84,0,0,1-1.47-.95l-.31-.62a7.14,7.14,0,0,1-.56-2.26,2.58,2.58,0,0,1-.32-.79,3.48,3.48,0,0,1-1.3-1.88.47.47,0,0,1-.28-.62.5.5,0,0,1,.16-.22h0a4.09,4.09,0,0,0-.43-.25l-.29,0-.86.22a2.55,2.55,0,0,1-.77-.23c-.94-.89-.94-.89-1.15-1.38,0-.06,0-.12,0-.17l-.47,0a1.61,1.61,0,0,1-.23-.1c-.15-.25-.15-.25-.25-.31a1.59,1.59,0,0,1-.12-.18c0-.36,0-.36-.05-.44a.67.67,0,0,1,0-.19l.19-.28.74.43-.05-.26.26.24-.21-.24.28.06-.35-.12a1.88,1.88,0,0,0,.67-.26,1,1,0,0,0,.34-.24.75.75,0,0,1-.1-.14l1.06-.31.21.12a.24.24,0,0,1,.16-.23l.27-.09,0-.06v0l.13-.25,0-.05h0l.56-1.05a2.83,2.83,0,0,1,.47-.1l-.18-.06c-.13,0-.19-.32-.25-.32a17.14,17.14,0,0,0-3.74.83.41.41,0,0,1-.58-.08.4.4,0,0,1,.08-.57,8.92,8.92,0,0,1,7.07-4.16c.67-.21,1.32-.45,2-.69l-.16-.07.57-.08.06,0-.6-.24-.32,0a26.25,26.25,0,0,1-4.71,1,22.05,22.05,0,0,1-2.57.19.36.36,0,1,1-.28-.67c2.1-1.6,4.84-2.8,7.51-2.35a2.11,2.11,0,0,1,1.37-.26h0l-.46-.22c.36-.09.7.12,1.05.09l-.39-.44c1.71-.56,3.28-1.65,5.1-1.74l.19-.05a9,9,0,0,1,1.18-1.64l-.47.06a1.38,1.38,0,0,1,.64-.81,3.1,3.1,0,0,1,3.26.94,50.46,50.46,0,0,0,4.17-3.18c.06-.06.19,0,.29.14s.12.31.05.38a16.76,16.76,0,0,1-2.68,2.88,15,15,0,0,0,3.09-1l.32-.27a.68.68,0,0,1,.4-.12,13.63,13.63,0,0,0,3.4-2.31,29.64,29.64,0,0,0,2.35-2.83,12.51,12.51,0,0,1,3.49-3.72c.16-.15.49,0,.73.38s.3.79.13.94c-2.34,2.89-4.48,6-7.73,7.6l-1,.5.09.15a2.09,2.09,0,0,1,.24.6,9.93,9.93,0,0,1,1.27-.41,6.59,6.59,0,0,1,2.88-2.49,8.83,8.83,0,0,1,2.78-.25c.77-.75,1.51-1.57,2.31-2.29,0,0,.08,0,.14,0a.23.23,0,0,1,.05.2,13.48,13.48,0,0,1-1.28,2.24,2.24,2.24,0,0,1,.65.78,2.2,2.2,0,0,1,.29,1l.46-.22c.1,0,.25.05.34.22s.11.36,0,.41l-1.85,1c-.61.6-1.24,1.18-1.89,1.73a3.25,3.25,0,0,1,.68.7h0l.32-.22a14,14,0,0,1,5.5-4.89s.12,0,.16.1.05.17,0,.18a11.64,11.64,0,0,0-1.9,1.11h0a.27.27,0,0,1,.11.19c0,.07,0,.1-.09.06a.28.28,0,0,1-.12-.19,14.87,14.87,0,0,0-3,3,16.92,16.92,0,0,1,3.24-1.82l.19-.5s.09,0,.14.05a.22.22,0,0,1,.05.19l-.06.14c.22-.09.57.15.8.57s.24.85,0,.95a17.09,17.09,0,0,1-1.61,1.11l-.14.18-.07.3c1-.34,2-.64,2.95-.92.07-.05.2,0,.29.18s.09.3,0,.35a28.46,28.46,0,0,1-3.93,3.91c-.15.92-.3,1.85-.46,2.78l.21-.09c1.7-1,2.11-3.59,3.53-4.9,0,0,.1,0,.15.07s.06.16,0,.19a15.56,15.56,0,0,0-1.58,2.62,14.79,14.79,0,0,0-1.23,2.25c1.15-.89,1.9-2.35,2.94-3.41,0-.07.11-.06.19,0a.35.35,0,0,1,0-.12,2.55,2.55,0,0,1,.23-.75c0-.06.07,0,.14,0A.25.25,0,0,1,376,376.74Zm-31.73,6.67-.11-.06.3,0,.64.43Zm-2.49,4.33h0l-.37-.24Zm16.12-16.11a4.5,4.5,0,0,1-2.26.6l.42-.37A18.13,18.13,0,0,1,357.89,371.63Zm-17.43,11a6.06,6.06,0,0,1,1.47.6,1.9,1.9,0,0,1,.65-.47,17.09,17.09,0,0,1,2-.83c-.2-.17,0-.23,0-.29l.2-.18c-.74.22-1.48.42-2.24.62A17.4,17.4,0,0,1,340.46,382.59ZM336.39,386l-.1,0-.05-.39Zm.12.64h.12C336.66,386.75,336.6,386.72,336.51,386.62Zm1.08-.09a1,1,0,0,0-.22-.1Zm5.88,8.89-.57-1.76.5,1.71Z"/><path d="M517.78,465.66l-.41.3a.75.75,0,0,1,0-.87,6.11,6.11,0,0,0-1.83,5.6,10.59,10.59,0,0,0,2.93,5.24,1.83,1.83,0,0,0,1.9,2,2.37,2.37,0,0,0,2.45-1.78,2.94,2.94,0,0,1,.48-.66,17,17,0,0,0,4.42-5.13l-1.14,1.1a4.42,4.42,0,0,0,.74-1.7l-.7.2a3.59,3.59,0,0,0-.61-5.85,6,6,0,0,0-7.32.68Z"/><path d="M510.34,469.28c.9-1.25,1.86-2.43,2.84-3.59l.44-.21h-1.89l.12,0c1.5,1.2,1.94,3.05,2.29,4.75l.26.61a1.61,1.61,0,0,0,1,.55,1.69,1.69,0,0,0,1.94-1.15c.06-.29.13-.59.22-.88,1.3-2.15,1.68-5.45-1.44-6.89a6.69,6.69,0,0,0-2.55-.14,2.24,2.24,0,0,0-2.59,1.73,2,2,0,0,0,1.94,2.26l-.31.56-.41-.46c1.06.36,1.22,1.38,1.73,2.14l.2,1.13,3-.57-.33-.58c-.13,0-.32.12-.33.11a16.25,16.25,0,0,1-1.81-3.42l-.94-1.59a1.53,1.53,0,0,0-1.9,0l-.69.66.4-.29c-.79,1.56-1.31,3.24-2.13,4.82a.48.48,0,0,0,.22.7A.62.62,0,0,0,510.34,469.28Z"/><path d="M510.39,463.59c.24-.25.5-.48.48-.86l-.23-.17-.54.48C509.71,463.39,510,463.59,510.39,463.59Z"/><path d="M510.64,462.56l.23-.2-.29.13,0,0Z"/><path d="M551.49,585.37c1,1.55,2.14,3,3.22,4.5s2.16,3,3.33,4.44c2.35,2.87,4.62,5.83,7.15,8.58,1.25,1.39,2.46,2.81,3.74,4.18l3.91,4c.66.67,1.3,1.36,2,2l2,1.94L581,619c.38.33.76.54.86.46s-.14-.41-.5-.71a215.82,215.82,0,0,1-15.69-16.06c-2.51-2.74-4.77-5.69-7.1-8.55-1.18-1.42-2.21-3-3.32-4.43l-1.63-2.23c-.56-.73-1.09-1.48-1.58-2.25-.28-.41-.59-.68-.74-.65S551.24,585,551.49,585.37Z"/><path d="M633.66,665.09c-.38-.09-.41,0-.08.24a4.19,4.19,0,0,0,1.19.55c.31.07.35,0,.07-.25A4,4,0,0,0,633.66,665.09Z"/><path d="M627.24,670.9c-1.08-.38-2.13-.76-3.16-1.1s-2-.71-2.91-1a4.61,4.61,0,0,1-1-.47c0,.21-.42.16-1.19-.13-3.86-1.38-7.68-3.05-11.57-4.73-2-.82-3.84-1.8-5.79-2.71s-3.89-1.83-5.79-2.88l-5.75-3.06c-1.93-1-3.79-2.18-5.7-3.27-3.83-2.14-7.5-4.57-11.25-6.88a1.58,1.58,0,0,1-.88-.07,18.11,18.11,0,0,1-5.37-3.19l-1.46-1.24c-1.53-1.19-3-2.52-4.43-3.77s-2.94-2.52-4.38-3.81l-4.23-4c-1.4-1.32-2.81-2.64-4.14-4a45.94,45.94,0,0,1-4.25-3.41c-1.35-1-2.63-2.11-3.92-3.2l-3.89-3.31c-1.32-1.1-2.55-2.29-3.81-3.46l-3.78-3.59c.18.42.21.73.06.86-.45.19-1.85-.74-3-2.23l-1.86-2.18,2.5,3.27c.85,1.08,1.74,2.11,2.6,3.17.26.3.48.59.68.86l3,3.35c1,1.11,2.14,2.16,3.23,3.24a204.55,204.55,0,0,0,30.27,24.54,254,254,0,0,0,32.32,18.22,4.25,4.25,0,0,1,1.19.7c.16.19.06.28-.36.11-14.32-5.8-27.28-10.83-42.33-20.75a233.73,233.73,0,0,1-25.78-19.62,225.56,225.56,0,0,1-23.54-23.81A336.09,336.09,0,0,1,488,568.29c-1.46-2.53-3-5-4.41-7.62l-4.2-7.87c-1.33-2.68-2.61-5.42-3.94-8.19-.32-.69-.66-1.38-1-2.08l-.9-2.14-1.81-4.31-1.23-2.94c-.39-1-.73-2-1.1-3l-2.14-6-.53-1.49-.47-1.52-.92-3c-.6-2-1.22-4-1.79-6.06l-.38-1.54-.19-.76-.09-.29-.31-1.07-.6-2.12c-.38-1.42-.77-2.84-1.15-4.25a163.39,163.39,0,0,1-3-17.45,8.61,8.61,0,0,1,.7-6.07,6,6,0,0,1,4.22-3.18,6.45,6.45,0,0,1,5.85,2.31c0-.35,0-.7,0-1l.36-1.66a6.1,6.1,0,0,1,2.43-3.7l1.5-1.12c2.85-1.47,5.44-3.79,8.54-4.85l1.15.31.35-.26a5.52,5.52,0,0,1,3.21-1.59l1.41.15a14.74,14.74,0,0,1,4.51,1.52,5,5,0,0,1,1.73.31,7,7,0,0,1,4.65-.21,1,1,0,0,1,1.38.17,1,1,0,0,1,.19.49h0c.38-.17.49-.23.92-.46.14-.33.24-.52.24-.52.31-.88.31-.88.59-1.64a4.72,4.72,0,0,1,1.26-1c2.58-.57,2.58-.56,3.67-.38l.3.16a8.17,8.17,0,0,1,.56-.73,2.69,2.69,0,0,1,.44-.24c.59,0,.59,0,.81-.06a2.74,2.74,0,0,1,.44,0c.64.36.63.36.82.38a2.33,2.33,0,0,1,.31.2c.17.37.24.52.26.59l-1.58.69.51.2-.71.14.65-.07-.42.38.6-.42a3,3,0,0,0-.31,1.3,1.35,1.35,0,0,0,0,.77,1.71,1.71,0,0,1,.34,0c-.32,1-.32,1-.67,2a4.25,4.25,0,0,1-.43.21.42.42,0,0,1,.19.48l-.15.52a.76.76,0,0,0,.08.11h0l.27.44.06.09h0c.17.3.47.75,1.23,1.89a6.53,6.53,0,0,1-.32.85,3.36,3.36,0,0,1,.29-.24c.21-.16.75,0,.81-.1a45.61,45.61,0,0,0,2.75-6.58.85.85,0,0,1,1.68-.11,13.41,13.41,0,0,1,1.59,7.25,15.72,15.72,0,0,1-.66,3.74c-.19.62-.41,1.23-.66,1.84s-.47,1.22-.75,1.81c-.27,1.24-.49,2.49-.7,3.75l.27-.19-.39,1a.43.43,0,0,0,0,.11l1-.81a5.21,5.21,0,0,0,.28-.52,17.2,17.2,0,0,1,1.19-4.2c.51-1.36,1.29-2.69,1.82-4.05a33.2,33.2,0,0,1,2.4-4,.75.75,0,0,1,.86-.53.62.62,0,0,1,.6.7,18.82,18.82,0,0,1-.49,6.89,14.71,14.71,0,0,1-3.16,6.53,4.28,4.28,0,0,1-.83,2.41v0l.79-.6c-.17.65-.82,1.05-1.06,1.66l1.09-.33c-.48,3.19,0,6.52-1.2,9.67a2.11,2.11,0,0,1-.05.35,16.9,16.9,0,0,1,1.25,1.74c.09.16.18.31.26.47a.89.89,0,0,1,.05.13l.09.36.15.72c.18,1,.46,2,.65,3q-.11-1.08-.18-2.16c0-.7,0-1.4-.07-2.11.4,1.48.79,2.95,1.19,4.45a47.72,47.72,0,0,1,.92,4.73c.83,4.41,1.35,9.22,1.82,13.59.09,1.09.16,2.17.19,3.21s.15,2,.16,3a26.54,26.54,0,0,1-.27,5,201,201,0,0,0,11,24.89,184.16,184.16,0,0,0,14.65,23.07,2.89,2.89,0,0,1,.81,1.84c-.15.24-.71-.11-1.29-.85-2.15-2.49-4-5.2-6-7.85-1-1.31-1.9-2.71-2.82-4.09l-2.76-4.16c-.88-1.41-1.7-2.86-2.56-4.29s-1.74-2.85-2.5-4.33l-2.34-4.43-1.18-2.21-1.06-2.27a160.27,160.27,0,0,0,15.54,30.35c.85,1.2,1.68,2.44,2.61,3.61a42.17,42.17,0,0,1,2.47,3.63c.54.76,1.09,1.51,1.63,2.25s1.15,1.45,1.72,2.17l3.42,4.33c1.17,1.41,2.39,2.78,3.58,4.16s2.38,2.79,3.67,4.1l3.8,4c1.26,1.35,2.65,2.58,4,3.88s2.68,2.6,4.12,3.82l4.34,3.71c1.23,1.08,2.52,2.06,3.78,3l3.73,2.92c2.48,1.89,5,3.65,7.5,5.46s5.12,3.42,7.72,5.16,5.36,3.31,8.18,5c7.95,4.64,15.8,8.65,23.71,12.49s16,7.27,24.46,10.78c2.29.84,4.28,2,4.41,2.52s-1.66.27-4-.56c-9.05-3.24-17.92-6.83-26.59-10.84A278.16,278.16,0,0,1,606,641.37a216.09,216.09,0,0,1-23.72-16.57,183.13,183.13,0,0,1-21.49-20.08c-1.49-1.54-2.81-3.2-4.2-4.79s-2.76-3.16-4-4.82a.59.59,0,0,1-.13.25c-.27.24-.77.15-1.4-.19.74.93,1.44,1.9,2.2,2.82l2.31,2.76c1.54,1.85,3,3.75,4.67,5.53,9.76,9.29,20.19,17.8,31.49,26.76,7.81,6.11,15,11.6,22.7,16.82a299.29,299.29,0,0,0,31.94,15,2.75,2.75,0,0,1,1,.53c.12.15-.15.14-.6,0-1.93-.66-3.86-1.39-5.8-2.1l-2.92-1.09c-1-.37-1.93-.78-2.89-1.18l-5.82-2.41L623.6,656c1,.91,1.57,1.64,1.27,2s-1.41.26-3-.2l5.16,2.68c1,.57,1.83,1.12,1.7,1.31s-1.07,0-2.08-.56c-3.52-1.82-7.08-3.56-10.51-5.53-1.72-1-3.46-1.9-5.16-2.91l-5.08-3a249,249,0,0,1-23.89-15.39A6.46,6.46,0,0,1,583.5,637h0c1.19.87,2.39,1.73,3.57,2.6A366.13,366.13,0,0,0,661,675.32c.52.18.92.4.9.49s-.45,0-.9-.14c-4-1.45-7.91-2.8-11.79-4.38-1.94-.78-3.92-1.47-5.83-2.3l-5.78-2.42,0,0c.29.19.3.32-.07.24a4.49,4.49,0,0,1-1.2-.5c-.33-.22-.25-.31.06-.25a380.44,380.44,0,0,1-41.16-21,330.32,330.32,0,0,0,37.22,20.55c1.47.51,2.9,1.09,4.4,1.57a3.2,3.2,0,0,1,1,.57c.07.12-.26.1-.67,0l-1.24-.42c2.46,1.08,4.21,2.28,4,2.75s-2.65-.07-5.23-1.17c-6.91-3-13.74-6.1-20.36-9.65l-2.19-1-2.29-.92a284.93,284.93,0,0,0,31.26,15.65c.92.37,1.66.83,1.61,1s-.85,0-1.79-.36a265,265,0,0,1-28.59-12A250.42,250.42,0,0,1,585,646.07c-3.15-1.53-6.22-3.21-9.39-4.82s-6.22-3.47-9.37-5.27c.69.59,1.42,1.13,2.14,1.69,2.32,1.74,4.58,3.48,6.91,5s4.65,3,7,4.5,4.69,2.72,7,4,4.71,2.49,7,3.72c9.43,4.77,19,9,29.07,13.4.52.2.9.46.92.58s-.37,0-.88-.18c-9.93-4.23-19.08-8-28.72-13l-5.89-3.11c-1.93-1-3.8-2.14-5.69-3.19l-2.82-1.58c-.93-.53-1.83-1.1-2.75-1.64L574.06,643l5.33,3.56c.89.58,1.76,1.18,2.67,1.74l2.71,1.63c1.81,1.08,3.61,2.16,5.42,3.21l5.52,3,2.75,1.48,2.79,1.4,5.59,2.79,5.67,2.65,2.84,1.34,2.88,1.26a7.31,7.31,0,0,1,1.7.93.65.65,0,0,1,.43.05c2,.65,4.15,1.48,6.37,2.24a3.19,3.19,0,0,1,1.1.59C628,671.07,627.72,671.05,627.24,670.9ZM503.54,479.33l.2-.14-.33.49-1.33.72ZM498.48,471h0l.78-.38Zm32.43,88.49c-1.73-3.67-3.56-7.27-4.93-11.06-.7-1.88-1.46-3.73-2.05-5.65s-1.14-3.83-1.67-5.75l2.24,5.34c.93,2.88,2,5.7,3,8.59S529.79,556.61,530.91,559.48Zm-22.15-85.77a13.45,13.45,0,0,1-2.55,1.88,3.62,3.62,0,0,1,.16,1.5c-.16,1.39-.21,2.74-.44,4.08.48-.2.43.12.49.28l.14.5c.3-1.44.58-2.87,1-4.31A28.82,28.82,0,0,1,508.76,473.71Zm-1.38-9.77.19-.11.72.3Zm-1.22-.48-.12.2C505.77,463.57,505.87,463.51,506.16,463.46Zm-1.06,1.81a1.69,1.69,0,0,0,.41-.24Zm-21.72.56,3.65.94-3.51-1Z"/><path d="M518.86,612.39l-.49-.27a.94.94,0,0,1,.93-.38c-4.81-1.88-9.21,1.33-11.39,5a2,2,0,0,0-1.61,2.5A2.44,2.44,0,0,0,509,621a3.2,3.2,0,0,1,.9.21,20.69,20.69,0,0,0,7.34,2.38l-1.68-.69a6.17,6.17,0,0,0,2.22.09l-.48-.58c2.78,1,5.64-.25,6.41-2.87a5.58,5.58,0,0,0-3.63-6.62Z"/><path d="M512.28,606.79c1.62.37,3.2.81,4.79,1.29l.4.33-.72-1.79,0,.13c-.69,1.86-2.47,3-4.16,4l-.56.45a1.46,1.46,0,0,0-.25,1.11,1.78,1.78,0,0,0,1.92,1.44l1-.11c2.76.36,6.55-.56,6.84-4a6,6,0,0,0-.87-2.45,2.45,2.45,0,0,0-2.83-1.78,2.13,2.13,0,0,0-1.62,2.69l-.7-.07.33-.57c0,1.14-1,1.68-1.61,2.46l-1.12.64,1.67,2.56.51-.53c-.09-.11-.25-.26-.25-.27a19.81,19.81,0,0,1,3-3l1.32-1.48a1.45,1.45,0,0,0-.71-1.8l-1-.4.46.26c-1.93-.15-3.86,0-5.79-.15a.55.55,0,0,0-.64.48A.59.59,0,0,0,512.28,606.79Z"/><path d="M518.19,604.65a1.37,1.37,0,0,0,1.08.13c.05-.16.08-.23.09-.28l-.71-.32C518.14,603.94,518,604.27,518.19,604.65Z"/><path d="M519.36,604.5l.3.14-.25-.22,0,0Z"/><path d="M425.48,643.85c-8.67,3.42-17.23,7.23-25.67,11.31-.28.14-.47.33-.42.44s.31.08.56-.06c8.45-4,17-7.82,25.65-11.22.29-.12.48-.31.46-.44S425.75,643.74,425.48,643.85Z"/><path d="M358.18,668.14c.15-.19.09-.27-.15-.19a1.61,1.61,0,0,0-.65.43c-.12.16-.05.25.15.19A1.61,1.61,0,0,0,358.18,668.14Z"/><path d="M355.61,660.74a31.79,31.79,0,0,0,2.74-2.66,1.58,1.58,0,0,1,.52-.36c-.15-.09,0-.35.33-.69,7.05-6.67,15.22-13.06,23.29-19.39a1.09,1.09,0,0,1,.14-.61,6.78,6.78,0,0,1,2.68-2.52l1-.52c3.89-2.23,7.77-4.46,11.71-6.55a16,16,0,0,1,2.43-2c3-2.57,6-5.16,9.16-7.63a.59.59,0,0,1-.58-.24c-.15-.44.48-1.22,1.4-1.77l1.38-.87L407.64,617a4.65,4.65,0,0,1-.57.26c-1.46.87-2.93,1.79-4.39,2.77-6.39,4.25-12.35,8.75-18.06,13.36s-11.17,9.31-16.52,14.06a1.55,1.55,0,0,1-.68.43c-.16,0-.2-.11,0-.3,6.31-6.68,11.32-13.35,19.06-20.3,9.23-8.25,18.59-16.23,28.73-24,11.18-7,21.19-14.29,32.64-21.81,4.24-2.78,8.47-5.43,12.73-7.94,6.62-4.22,13.34-7.85,20.32-11.41,3.45-2.26,7.69-1.44,9.41,1.77a6.88,6.88,0,0,1-.07,6.29l.9-.36,1.55-.21a5.63,5.63,0,0,1,4.06,1.07l1.51,1c2.3,2.22,5.25,3.73,7.35,6.27l.15,1.2.36.23a5.56,5.56,0,0,1,2.64,2.43l.39,1.38a14,14,0,0,1,.27,4.81,5,5,0,0,1,.35,1.74,7,7,0,0,1,1.93,4.29,1,1,0,0,1,.34,1.37,1,1,0,0,1-.41.36h0a9.76,9.76,0,0,0,.79.68c.38,0,.61,0,.61,0,1,0,1,0,1.84-.06a4.9,4.9,0,0,1,1.48.8c1.58,2.21,1.57,2.22,1.82,3.3,0,.12,0,.23,0,.34l1,.25a2.56,2.56,0,0,1,.42.33c.22.56.22.56.39.73a2.81,2.81,0,0,1,.17.43c-.11.72-.11.72-.06.91a1.78,1.78,0,0,1-.08.36l-.51.47-1.33-1.23v.56l-.42-.61.32.58-.55-.25.67.4a3.78,3.78,0,0,0-1.46.2,1.66,1.66,0,0,0-.78.32,2.39,2.39,0,0,1,.15.32l-2.27.12a4,4,0,0,1-.38-.32.46.46,0,0,1-.43.36l-.58.06-.08.12,0,0-.36.42-.07.1h0l-1.54,1.81a5.54,5.54,0,0,1-1,0l.36.19c.24.14.27.71.38.73a41.14,41.14,0,0,0,7.92.13.91.91,0,0,1,1.14.44.79.79,0,0,1-.38,1.1c-3.91,4.23-10,5.42-15.88,4.76-1.42.14-2.84.32-4.25.51l.29.2-1.18-.07-.12,0,1.13.67.65.1c3.23-.57,6.57.05,9.9.15a42.73,42.73,0,0,1,5.26.87.82.82,0,0,1,.9.63.66.66,0,0,1-.58.8c-4.82,2-10.79,2.92-16,1a4.82,4.82,0,0,1-2.86-.06h-.05l.86.58c-.76,0-1.37-.48-2.1-.55l.63,1c-3.64.4-7.18,1.84-10.9,1.45l-.39,0a21.41,21.41,0,0,1-1.67,1.63l-.46.35-.13.09-.21.12-.44.22c-.59.29-1.21.56-1.87.81l2.81-.58a26.36,26.36,0,0,1-5.65,2.62c-5.66,1.8-12.54,2.63-16.56,1.47-10.68,4.42-21.3,9.09-31.62,14.27a1.45,1.45,0,0,1-1.33.16c-.17-.2.08-.58.61-.85,7.17-4.2,14.69-8,22.32-11.59-6.74,2.24-13.46,4.69-20.12,7.61l-2.49,1.26a17.78,17.78,0,0,1-2.56,1,260.36,260.36,0,0,0-24.54,12.55c-6.94,4.14-12.93,7.92-19.65,12.36-9.43,6.25-17.9,12.08-27.49,17.91-1.23.82-2.59,1.3-3,1s.29-1.15,1.52-2c9.55-6.75,19-13.39,28.91-19.73a299.78,299.78,0,0,1,31.07-17.76c2.38-1.14,4.72-2.27,7.06-3.35a.68.68,0,0,1-.18-.2,1.14,1.14,0,0,1,.15-1.1c-2.68,1.2-5.38,2.43-8.12,3.61-7,4.36-14,8.75-21.88,12.74-5.4,2.75-10.5,4.94-15.6,7.38-5.93,3.92-11.75,8-17.67,12a1.17,1.17,0,0,1-.64.29c-.13,0-.05-.17.17-.36,3.85-3.12,7.87-6.2,12-9.22-.85.17-1.48.1-1.66-.29s.11-1.07.77-1.82l-3,1.85c-.61.38-1.18.55-1.28.36s.26-.66.84-1q6-3.84,12.08-7.53c4.71-3.21,9.45-6.33,14.26-9.39a3.62,3.62,0,0,1-2.05-.19h0l-2.25,1.39c-13.09,9.53-26.63,18.89-40.41,28.23-.26.19-.53.28-.59.21s.11-.27.35-.43l12.4-8.5h0c-.2.07-.29,0-.15-.18a1.85,1.85,0,0,1,.65-.45c.23-.07.27,0,.15.19,7.65-5.29,15.22-10.6,22.63-15.95L358.06,667,356,668.9a1.19,1.19,0,0,1-.65.28c-.1,0,0-.21.2-.38l.59-.51c-1.35.87-2.6,1.24-2.86.82s.69-1.58,2.08-2.52q5.44-3.93,11-7.65l1.16-.87,1.07-1c-5.92,3.63-11.8,7.32-17.57,11.1-.48.34-1,.52-1.08.38s.19-.53.68-.88c9.49-7.65,19.39-15,29.62-22.1l8.95-9.06-1.36.84A142.73,142.73,0,0,0,372.42,649c-4.77,4-9.43,8.09-14.64,12-.25.21-.52.3-.61.25s.05-.26.32-.46c5-3.91,9.38-7.91,14.31-12,4.08-3.37,8-6.52,11.74-9.81-8.25,5.71-15.58,12-23.4,18.09a2.93,2.93,0,0,1-1,.57c0,.06,0,.15-.13.25-.87.92-1.85,1.86-2.89,2.79a1.21,1.21,0,0,1-.65.34C355.33,661.13,355.4,661,355.61,660.74Zm144.07-56.93.21.14-.6-.16-1.15-1Zm6.7-7.6h0l.65.61Zm-63.54,36a90.26,90.26,0,0,1,14.42-4.87l-3.33,1.53Zm64.27-25.34a13.66,13.66,0,0,1-2.77-1.76,4.39,4.39,0,0,1-1.49.68c-1.45.37-2.9.64-4.35.87.35.39,0,.44-.15.55l-.47.28c1.57-.17,3.16-.3,4.79-.39A30,30,0,0,1,507.11,606.84Zm9.56-4.88.18.13,0,.79S516.76,602.49,516.67,602Zm0-1.33-.24,0C516.42,600.3,516.53,600.38,516.68,600.63Zm-2.23-.32a1.76,1.76,0,0,0,.4.3A4.7,4.7,0,0,1,514.45,600.31Zm-8.6-20.21.47,3.79-.36-3.68Z"/><path d="M552.5,40.59l-.41.32A.85.85,0,0,1,552,40c-3.32,3.5-1.95,8.5,1.11,11.58a2,2,0,0,0,2,2.2,2.29,2.29,0,0,0,2.49-1.83,2.79,2.79,0,0,1,.48-.7,15.8,15.8,0,0,0,2.54-2.57,21.48,21.48,0,0,0,2-2.9l-1.2,1.18a4.9,4.9,0,0,0,.81-1.83l-.71.2a4.09,4.09,0,0,0-.73-6.37,5.76,5.76,0,0,0-7.43.74Z"/><path d="M545,44.37c.91-1.31,1.87-2.54,2.86-3.76l.44-.23h-1.93l.13,0c1.52,1.27,2,3.24,2.36,5l.23.65a1.52,1.52,0,0,0,1,.59,1.76,1.76,0,0,0,2-1.18l.24-.94c1.28-2.27,1.62-5.83-1.55-7.34a6.38,6.38,0,0,0-2.6-.14,2.26,2.26,0,0,0-2.61,1.82,2.16,2.16,0,0,0,2,2.4c-.11.19-.21.39-.31.59l-.43-.5c1.09.39,1.26,1.47,1.79,2.28l.22,1.2,3-.57-.34-.62c-.13,0-.32.12-.33.11a17.28,17.28,0,0,1-1.88-3.65l-1-1.68a1.52,1.52,0,0,0-1.93,0l-.69.7.4-.31c-.79,1.64-1.3,3.4-2.12,5.06a.51.51,0,0,0,.23.73A.61.61,0,0,0,545,44.37Z"/><path d="M545,38.39a1.25,1.25,0,0,0,.48-.9l-.23-.19-.55.51C544.28,38.17,544.55,38.39,545,38.39Z"/><path d="M545.22,37.3l.23-.2-.29.13s0,0,0,0Z"/><path d="M596.11,205.92c1.48,2.27,3,4.49,4.56,6.75l2.3,3.38c.79,1.11,1.63,2.19,2.44,3.29l4.93,6.57,5.21,6.37,2.62,3.19,2.75,3.08,5.52,6.15,5.78,5.94c1,1,1.92,2,2.91,3l3,2.86c.54.51,1.06.86,1.17.79s-.25-.53-.75-1l-3-2.86c-1-.95-1.93-2-2.9-2.95l-5.75-5.93c-1.86-2-3.67-4.1-5.5-6.14l-2.74-3.07-2.61-3.17-5.19-6.35-4.9-6.55L603.52,216l-2.29-3.37-4.55-6.73c-.39-.62-.8-1.06-1-1.07S595.76,205.33,596.11,205.92Z"/><path d="M715.85,321.47c-.52-.17-.55-.06-.07.25a9.41,9.41,0,0,0,1.72.81c.44.13.48,0,.06-.25A8.49,8.49,0,0,0,715.85,321.47Z"/><path d="M707.9,326.6c-3-1.22-5.89-2.52-8.53-3.48a8.87,8.87,0,0,1-1.38-.69c.09.24-.54.1-1.64-.37a304.77,304.77,0,0,1-32.42-16.42l-4-2.32-4-2.47c-2.65-1.67-5.33-3.3-8-5-5.19-3.53-10.48-7-15.5-10.76a2.51,2.51,0,0,1-1.13-.3,30,30,0,0,1-7.35-5l-2-1.87a324.45,324.45,0,0,1-23.77-23.13c-1.74-1.46-3.64-3.28-5.63-5.33-1.74-1.65-3.56-3.24-5.25-5l-5.1-5.17c-3.47-3.41-6.66-7.13-10-10.85.27.58.35,1,.18,1.11-.5.13-2.25-1.43-3.88-3.58-.81-1.09-1.61-2.18-2.42-3.26,1.12,1.59,2.16,3.24,3.34,4.79s2.32,3.13,3.48,4.68c.35.45.65.87.91,1.27l2,2.51c.66.85,1.34,1.68,2.06,2.48l4.32,4.89a291.55,291.55,0,0,0,40.91,37.5,345.68,345.68,0,0,0,44.62,28.6,8.48,8.48,0,0,1,1.66,1.08c.23.25.12.33-.45,0l-7.33-3.62L658,305.14l-3.53-1.85-7.09-3.7c-2.35-1.25-4.65-2.61-7-3.93a247.3,247.3,0,0,1-29-19.14l-8.93-7.1c-2.91-2.45-5.78-5-8.67-7.45l-2.16-1.88-2.1-2-4.19-3.92c-1.39-1.33-2.83-2.61-4.17-4l-4.05-4.12L573,242c-1.37-1.37-2.61-2.86-3.93-4.29l-3.91-4.37c-1.31-1.45-2.62-2.91-3.84-4.45q-3.74-4.56-7.48-9.17l-7.15-9.59a410.54,410.54,0,0,1-24.52-42.66,316.17,316.17,0,0,1-18.91-46.71c-.49-1.4-.87-2.82-1.27-4.24l-1.2-4.27c-.4-1.42-.79-2.84-1.18-4.25s-.81-2.84-1.11-4.28c-.65-2.87-1.29-5.73-1.94-8.59-.31-1.43-.63-2.87-.94-4.3l-.75-4.33-.37-2.16-.18-1.08-.07-.31-.24-1-.46-2.11c-.28-1.4-.63-2.8-.81-4.21-.43-2.83-.81-5.65-1.16-8.49l-.51-4.28c-.16-1.43-.21-2.87-.32-4.32-.73-4.35,1.72-8.35,5.42-8.85A6.78,6.78,0,0,1,502.11,52c0-.34,0-.68,0-1l.39-1.61a6,6,0,0,1,.95-2.07,5.83,5.83,0,0,1,1.65-1.52l1.6-1.08c3-1.41,5.58-3.67,8.76-4.7l1.18.32.35-.26a5.6,5.6,0,0,1,3.27-1.57l1.44.16a14.54,14.54,0,0,1,4.58,1.57,5,5,0,0,1,1.76.32,7.08,7.08,0,0,1,4.73-.18,1,1,0,0,1,1.4.19,1,1,0,0,1,.2.5h0a10.18,10.18,0,0,0,.93-.47c.15-.34.25-.53.25-.53.31-.91.31-.91.59-1.69a4.6,4.6,0,0,1,1.27-1c2.62-.6,2.62-.59,3.72-.41a2.27,2.27,0,0,1,.31.17c.41-.57.44-.61.56-.76a2,2,0,0,1,.45-.25c.6,0,.6,0,.82-.07a3,3,0,0,1,.46,0c.64.37.64.37.83.39a1.92,1.92,0,0,1,.31.21l.28.62-1.61.72.53.21-.72.15.65-.07-.42.4.6-.44a3.39,3.39,0,0,0-.3,1.36,1.41,1.41,0,0,0,0,.8l.35,0c-.32,1-.32,1-.67,2a3.68,3.68,0,0,1-.44.23.44.44,0,0,1,.2.51l-.15.53.08.12h.05l.27.46.07.1h0l1.18,2a5.78,5.78,0,0,1-.36.88l.3-.25c.22-.16.78,0,.84-.09A34,34,0,0,0,548.48,40a.85.85,0,0,1,1.7-.11,13.22,13.22,0,0,1,1.58,7.73,19.73,19.73,0,0,1-2.15,7.78c-.33,1.3-.61,2.61-.88,3.92l.29-.19c-.15.34-.31.68-.45,1,0,0,0,.07,0,.11.32-.27.68-.54,1-.81.11-.18.21-.35.31-.54.49-3,2.15-5.78,3.24-8.65a12.46,12.46,0,0,1,1.14-2.17c.47-.7,1-1.38,1.38-2.09a.79.79,0,0,1,.91-.55.63.63,0,0,1,.57.76,26.45,26.45,0,0,1-.49,7.39,16.36,16.36,0,0,1-3.47,6.84,3.94,3.94,0,0,1-.86,2.51l0,0,.83-.59c-.19.68-.87,1.07-1.15,1.7l1.14-.29c-.32,1.67-.38,3.39-.55,5.1a22,22,0,0,1-.4,2.54,11.46,11.46,0,0,1-.73,2.47,2.2,2.2,0,0,1-.07.37,17.82,17.82,0,0,1,1.23,1.92c.09.16.17.33.25.5a.77.77,0,0,1,.06.15l.08.54c.06.37.11.74.16,1.11.21,1.49.39,3,.53,4.62,0-2.15-.07-4.25-.1-6.4,0,0,0,.22.07.34l.07.43.15.86.28,1.72c.19,1.14.32,2.3.52,3.46.42,2.32.78,4.69,1.05,7.16,1.57,13.38,3.33,28.66,2.88,36.53A283.55,283.55,0,0,0,572.94,165a269,269,0,0,0,20,35.25,5.74,5.74,0,0,1,1.22,2.68c-.14.27-.86-.35-1.65-1.51a252.91,252.91,0,0,1-15.7-24.81c-1.19-2.16-2.27-4.37-3.42-6.56l-1.7-3.29-.84-1.64-.77-1.69c-2-4.5-4.24-8.93-6-13.55a244.44,244.44,0,0,0,21.23,45.61c.58.92,1.15,1.85,1.73,2.78L588.9,201c1.22,1.79,2.34,3.63,3.43,5.49,1.45,2.33,3.12,4.47,4.67,6.69l2.36,3.29c.78,1.1,1.56,2.2,2.41,3.24,3.35,4.23,6.58,8.52,10.17,12.53a252.36,252.36,0,0,0,22.93,23.54l5.35,4.67,2.63,2.3,2.69,2.17c3.56,2.88,7,5.76,10.69,8.4l5.43,4c1.84,1.31,3.73,2.58,5.61,3.89s3.76,2.64,5.72,3.91,4,2.52,6,3.82c1.43.89,2.82,1.83,4.26,2.67l4.29,2.54c2.85,1.68,5.64,3.39,8.53,4.91s5.68,3.17,8.53,4.67l8.6,4.42c11.53,5.72,23.23,11,35.63,16.13,3.33,1.25,6.3,2.76,6.55,3.34s-2.31,0-5.68-1.21c-26.27-9.79-51.48-21.89-75-37.24a322.66,322.66,0,0,1-33.9-25.3,276.91,276.91,0,0,1-30.33-30.54l-3-3.57c-1-1.18-1.92-2.43-2.88-3.64-1.89-2.44-3.82-4.83-5.65-7.28a.49.49,0,0,1-.12.3c-.29.23-.9,0-1.7-.65,1,1.44,2,2.82,3.13,4.2l3.2,4.18c1.09,1.39,2.09,2.84,3.24,4.18l3.37,4.09c6.66,7.25,13.84,14,21.14,20.85,1.85,1.69,3.77,3.32,5.64,5s3.74,3.42,5.73,5c3.93,3.27,7.8,6.72,11.94,10,11.21,9.14,21.64,17.23,32.89,24.7a394.8,394.8,0,0,0,46,22.82,6.59,6.59,0,0,1,1.47.78c.19.18-.19.13-.84-.13-11.12-4.23-22.29-9.16-33.32-14.65,1.56,1.2,2.4,2.1,2,2.43s-1.9,0-4.07-.81c2.46,1.36,5,2.63,7.45,4,1.53.81,2.67,1.61,2.52,1.79s-1.45-.27-2.92-1c-10.26-5.19-20.11-11.09-29.8-17.21a340.33,340.33,0,0,1-33.82-23.58,11.21,11.21,0,0,1,2.28,3.55h0c1.67,1.35,3.41,2.58,5.11,3.87a425.05,425.05,0,0,0,50.58,30.63A462.94,462.94,0,0,0,755.19,337c.74.27,1.33.56,1.31.66s-.61,0-1.28-.29c-11.47-4.07-22.71-8.65-33.78-13.51l0,0c.42.25.46.39-.06.25a9,9,0,0,1-1.72-.81c-.47-.3-.38-.39.06-.25a434.15,434.15,0,0,1-58.68-32.18c8.39,5.92,17.17,11.28,26,16.55l6.72,3.76c2.25,1.25,4.46,2.55,6.76,3.7,4.56,2.35,9.08,4.81,13.73,7l6.26,2.54a7.21,7.21,0,0,1,1.48.8c.13.15-.33.06-.93-.17l-1.75-.71c3.51,1.68,6.13,3.19,5.86,3.67-.21.21-1.12.08-2.46-.31a30.66,30.66,0,0,1-4.9-1.9c-5-2.26-9.92-4.47-14.74-7-2.41-1.23-4.87-2.39-7.25-3.69l-7.13-3.9c-1-.54-2.1-1.06-3.13-1.62L682.41,308a384.5,384.5,0,0,0,44.83,23.23c1.33.55,2.4,1.17,2.36,1.35s-1.18-.12-2.51-.68a360.19,360.19,0,0,1-79.21-42.37l-6.46-3.86c-2.15-1.31-4.24-2.71-6.38-4.07s-4.31-2.72-6.4-4.17l-6.33-4.41,3,2.57A265.08,265.08,0,0,0,664,302.44c3.32,1.85,6.57,3.78,9.92,5.54l10.09,5.31,10.33,5.12,10.64,5a3.89,3.89,0,0,1,1.33.83c0,.13-.49,0-1.22-.38-14.14-6.45-27-12.68-40.43-20.47-1.4-.81-2.8-1.59-4.17-2.4l-4-2.5c-2.66-1.68-5.37-3.25-8-5s-5.15-3.39-7.7-5.07l-1.91-1.25L637.06,286l-3.72-2.58q1.83,1.39,3.65,2.8l1.83,1.38,1.87,1.32,7.48,5.19c2.49,1.73,5.08,3.28,7.6,4.9s5.06,3.24,7.67,4.71l7.76,4.52c2.61,1.45,5.26,2.84,7.89,4.28l3.95,2.14,4,2,8.06,4.07a14.76,14.76,0,0,1,2.45,1.33,1.35,1.35,0,0,1,.6.14c2.84,1.08,5.86,2.39,9,3.7a6.29,6.29,0,0,1,1.58.83C709,326.92,708.58,326.84,707.9,326.6Zm-170-271.92.2-.14-.35.49-1.4.71Zm-5-8.72h0l.81-.39ZM568.91,165.4a195.46,195.46,0,0,1-11.59-33.59l2.87,8.09c.31,1.07.59,2.15.92,3.22l1,3.18q1.05,3.19,2.09,6.39c.65,2.16,1.53,4.23,2.29,6.35ZM543.22,49a12.72,12.72,0,0,1-2.59,1.9,3.74,3.74,0,0,1,.18,1.56,36.79,36.79,0,0,1-.58,4.23c.49-.19.43.14.48.31l.12.51q.54-2.2,1.2-4.44A30.3,30.3,0,0,1,543.22,49Zm-1.31-10.23.19-.11.73.31Zm-1.24-.5-.12.2C540.27,38.36,540.38,38.3,540.67,38.25Zm-1.07,1.88a1.89,1.89,0,0,0,.42-.25Zm-22.09.42,3.71,1-3.56-1Z"/><path d="M561.25,237.48l-.49-.26a1,1,0,0,1,.93-.4c-4.83-1.77-9.22,1.55-11.38,5.35a2.07,2.07,0,0,0-1.59,2.58,2.38,2.38,0,0,0,2.75,1.66,3.51,3.51,0,0,1,.89.2,19.88,19.88,0,0,0,7.38,2.2l-1.69-.64a6,6,0,0,0,2.23,0l-.48-.57a4.87,4.87,0,0,0,6.39-3.13,5.49,5.49,0,0,0-3.68-6.56Z"/><path d="M554.63,232c1.62.33,3.21.75,4.8,1.2l.4.32-.73-1.78,0,.13c-.68,1.88-2.45,3.11-4.13,4.11l-.56.46a1.53,1.53,0,0,0-.24,1.14,1.74,1.74,0,0,0,1.93,1.41l1-.14c2.76.28,6.56-.74,6.81-4.23a6,6,0,0,0-.89-2.45,2.4,2.4,0,0,0-2.84-1.71,2.17,2.17,0,0,0-1.6,2.74l-.71-.06.33-.58c0,1.15-1,1.71-1.59,2.52l-1.12.67,1.69,2.56.5-.56c-.09-.11-.24-.25-.24-.27a19.39,19.39,0,0,1,3-3.12l1.31-1.53A1.44,1.44,0,0,0,561,231l-1-.38.47.26c-1.94-.11-3.88.07-5.8,0a.57.57,0,0,0-.64.5A.59.59,0,0,0,554.63,232Z"/><path d="M560.53,229.71a1.34,1.34,0,0,0,1.07.1l.09-.28-.71-.31C560.47,229,560.36,229.32,560.53,229.71Z"/><path d="M561.69,229.53l.3.13-.24-.21,0,0Z"/><path d="M441.49,281.55c-12.67,5.51-25.18,11.54-37.5,18-.41.21-.71.47-.67.59s.41,0,.79-.18q18.5-9.59,37.45-17.85c.42-.2.72-.45.72-.59S441.89,281.38,441.49,281.55Z"/><path d="M345.33,323.66c.24-.25.17-.32-.16-.18a3.32,3.32,0,0,0-.95.66c-.19.2-.11.3.16.18A3.27,3.27,0,0,0,345.33,323.66Z"/><path d="M343.44,315.69c1.52-1.29,3-2.52,4.17-3.72a3.88,3.88,0,0,1,.76-.53c-.18-.07,0-.41.59-.88,10.68-9.35,22.87-18.49,35-27.42a1.36,1.36,0,0,1,.3-.72,13.22,13.22,0,0,1,4.09-3.45l1.43-.79c5.68-3.35,11.35-6.68,17.11-9.83a32.77,32.77,0,0,1,3.69-2.78c4.54-3.5,9.12-7,13.92-10.39-.38.06-.66,0-.75-.16-.13-.47.87-1.46,2.24-2.26l2-1.24-6.07,3.18a5.57,5.57,0,0,1-.82.4c-2.17,1.26-4.32,2.6-6.5,4-19,12.09-35.73,25.19-51.92,38.45a3.16,3.16,0,0,1-1,.65c-.22,0-.26-.08,0-.34,9.74-9.08,17.74-17.79,29.5-27.31,14-11.28,28.22-22.11,43.5-32.66,8.28-5,16.21-9.84,24.2-14.79s16.05-9.94,24.64-15c5.81-3.38,11.58-6.65,17.38-9.75l1.09-.59.54-.29.23-.13.86-.51,1.72-1,3.45-1.92c4.62-2.52,9.29-4.84,14.08-7.13,3.43-2.15,7.66-1.2,9.4,2a6.93,6.93,0,0,1,0,6.3l.89-.34,1.55-.18a5.64,5.64,0,0,1,4.06,1.14l1.51,1.07c2.32,2.25,5.27,3.76,7.39,6.32l.16,1.2.36.23A5.75,5.75,0,0,1,550.9,207l.4,1.38a14,14,0,0,1,.3,4.81,5.07,5.07,0,0,1,.37,1.74,7,7,0,0,1,2,4.29,1,1,0,0,1,.35,1.37,1,1,0,0,1-.4.37h0a9.76,9.76,0,0,0,.79.68l.61,0c1-.06,1-.06,1.84-.09a5.11,5.11,0,0,1,1.48.78c1.6,2.19,1.6,2.2,1.85,3.28,0,.12,0,.23,0,.34a8.64,8.64,0,0,1,1,.24,2.3,2.3,0,0,1,.43.31c.22.56.22.56.39.73a3.22,3.22,0,0,1,.18.42c-.11.73-.11.73-.06.91a2.27,2.27,0,0,1-.07.37c-.32.31-.45.43-.5.49l-1.35-1.2v.55l-.43-.6.32.58-.55-.25.67.39a3.86,3.86,0,0,0-1.46.24,1.55,1.55,0,0,0-.77.34,2.72,2.72,0,0,1,.15.31c-1.14.1-1.14.1-2.27.16a4,4,0,0,1-.38-.32.47.47,0,0,1-.42.38l-.58.07-.09.12,0,.05-.35.43-.07.1h0l-1.53,1.86a5.56,5.56,0,0,1-1,0l.36.19c.24.14.28.71.39.73a39.55,39.55,0,0,0,7.92,0,.89.89,0,0,1,1.15.41.79.79,0,0,1-.38,1.11c-3.88,4.36-10,5.76-15.87,5.16-1.42.16-2.83.36-4.24.59l.29.19-1.19-.05-.12,0,1.14.67c.22,0,.43.07.65.09,3.23-.63,6.58,0,9.92,0a40.79,40.79,0,0,1,5.27.76.79.79,0,0,1,.9.61.69.69,0,0,1-.57.83c-4.82,2.14-10.79,3.25-16,1.38a4.77,4.77,0,0,1-2.87,0h0l.86.58c-.76,0-1.37-.47-2.1-.53.2.31.42.65.63,1-3.65.46-7.19,2-10.91,1.58a2.85,2.85,0,0,1-.4,0,20.36,20.36,0,0,1-1.67,1.68c-.15.13-.3.26-.46.38l-.13.09-.32.16-.66.31c-.89.41-1.82.8-2.8,1.17l4.08-1.05a57,57,0,0,1-8.47,3.73c-8.35,2.85-18.25,4.85-23.69,4.24-15.85,6.65-31.56,13.75-46.87,21.53a2.67,2.67,0,0,1-1.86.42c-.2-.18.21-.66,1-1.06,10.73-6.08,21.93-11.68,33.28-17-9.86,3.65-19.7,7.58-29.48,12.11l-3.68,1.88c-1.22.63-2.48,1.14-3.74,1.64-12.4,6-24.1,11.89-36.16,19.11-10.3,6.17-19.18,11.78-29.15,18.38-14,9.31-26.53,18-40.43,27.14-1.81,1.26-3.7,2.15-4.18,1.95s.63-1.4,2.44-2.69c14-10.19,28.1-20.08,42.67-29.57q10.92-7.11,22.31-13.86c7.62-4.46,15.42-8.82,23.49-12.94,3.49-1.77,6.93-3.49,10.36-5.18a.77.77,0,0,1-.21-.19c-.17-.31,0-.76.42-1.27l-11.87,5.68c-10.47,6.34-20.86,12.78-32.33,19.05-7.89,4.28-15.16,8-22.52,11.91-8.75,5.86-17.34,11.89-26,18a2.46,2.46,0,0,1-.9.49c-.18,0,0-.18.3-.45,5.75-4.53,11.73-9.07,17.86-13.51-1.17.4-2,.46-2.16.05s.38-1.26,1.4-2.28l-4.32,2.83c-.9.57-1.69.89-1.79.7s.49-.82,1.33-1.38c5.86-3.88,11.74-7.71,17.68-11.43,7-4.74,14-9.36,21.1-13.87a5.49,5.49,0,0,1-2.75.2h0c-1.12.68-2.22,1.38-3.32,2.07-19.57,13.72-39.54,27.67-59.59,41.94-.39.29-.76.46-.82.39s.2-.34.55-.59L342.42,326h0c-.28.12-.39.07-.16-.18a3.51,3.51,0,0,1,.95-.66c.32-.14.36,0,.16.17l33.47-23.54c-10.55,6.77-21,13.71-31.41,20.66l-3.18,2.64a2.49,2.49,0,0,1-.91.49c-.13,0,0-.25.34-.49l.89-.73c-2,1.32-3.69,2.05-4,1.62s1.24-2,3.26-3.41c5.36-3.89,10.73-7.69,16.19-11.39l1.72-1.27,1.63-1.43q-13,8.26-25.58,16.92c-.7.52-1.39.84-1.51.71s.37-.67,1.08-1.19c14.09-11.14,28.76-21.95,43.93-32.2l6.85-6.1c2.3-2,4.62-4.09,7-6.15l-2,1.23a271.86,271.86,0,0,0-23,16.68c-7.18,5.7-14.22,11.41-21.93,17.17a1.58,1.58,0,0,1-.85.43c-.1,0,.11-.31.51-.6,7.47-5.7,14.07-11.27,21.46-17,6.15-4.75,12-9.25,17.7-13.77-12.22,8.27-23.3,17.13-34.9,25.94a5.79,5.79,0,0,1-1.43.89c0,.07-.08.18-.22.32-1.33,1.28-2.84,2.57-4.39,3.89a2.57,2.57,0,0,1-.93.56C343,316.2,343.13,316,343.44,315.69ZM542,229.12l.21.14-.61-.16-1.15-1Zm6.65-7.73h0l.66.61Zm-80.83,43.89a177.5,177.5,0,0,1,21.1-7.89L484,259.65Zm81.64-33.17a13.28,13.28,0,0,1-2.79-1.74,4.39,4.39,0,0,1-1.48.7c-1.46.39-2.91.68-4.35.92.34.39,0,.45-.15.56l-.47.29c1.57-.19,3.16-.33,4.79-.44A33.25,33.25,0,0,1,549.46,232.11ZM559,227l.19.13,0,.8Zm0-1.33-.25,0C558.72,225.38,558.82,225.45,559,225.7Zm-2.24-.28a1.86,1.86,0,0,0,.41.3ZM548,205.22l.51,3.78-.39-3.67Z"/></svg>