<svg id="Layer_1" data-name="Layer 1" xmlns="http://www.w3.org/2000/svg" viewBox="0 0 1080 840.95"><path d="M500.41,416.8l.59,0c-.08.35-.4.6-.85.8a10.52,10.52,0,0,0,6.83-3.4,16.29,16.29,0,0,0,3.93-6.42,2.46,2.46,0,0,0,1.2-3.17,2.39,2.39,0,0,0-3.33-.65,4.31,4.31,0,0,1-1,.14,22,22,0,0,0-8.7.8l2-.07a7.19,7.19,0,0,0-2.48.94l.67.35c-3.28.37-6.12,3.16-6.17,6.12s2.63,5,5.84,4.65Z"/><path d="M508.79,419.37c-1.73.32-3.47.56-5.24.79L503,420l1.28,1.41-.05-.11c.13-2.09,1.61-4,3.09-5.69l.47-.65a1.45,1.45,0,0,0,0-1.19,1.77,1.77,0,0,0-2.41-.66c-.36.18-.71.39-1.06.58-3,.87-6.74,3.62-5.93,7.05.2.79,1.06,1.31,1.69,1.93a2.52,2.52,0,0,0,3.44.44,2.39,2.39,0,0,0,.82-3.3l.74-.23c-.05.23-.11.46-.16.69-.37-1.09.51-2.06.92-3.1l1-1.11-2.44-1.8L504,415l.32.15a26.6,26.6,0,0,1-2.18,4.29l-.9,2a1.3,1.3,0,0,0,1.3,1.4l1.09,0-.55-.06c2-.7,3.92-1.67,5.9-2.3a.66.66,0,0,0,.5-.73A.55.55,0,0,0,508.79,419.37Z"/><path d="M503.48,423.94a1.53,1.53,0,0,0-1.13.35v.29h.82C503.76,424.59,503.76,424.24,503.48,423.94Z"/><path d="M502.35,424.58H502l.32.11,0-.05Z"/><path d="M654.27,374.75c1.13.11,2.26.18,3.37.32l3.36.43,6.68.86,6.65,1.1,3.31.55,3.29.67L687.5,380l6.51,1.57,3.25.79c1.08.27,2.14.6,3.22.89l6.41,1.81c.58.15,1.08.22,1.14.1s-.36-.35-.9-.48l-6.42-1.82-3.22-.9-3.24-.79-6.51-1.59-6.56-1.35-3.29-.68-3.31-.56-6.64-1.11c-2.22-.32-4.46-.58-6.69-.88s-4.47-.59-6.73-.76a1.92,1.92,0,0,0-1.2.16C653.29,374.56,653.71,374.7,654.27,374.75Z"/><path d="M774,424.88c-.39-.14-.42,0-.1.23a4.64,4.64,0,0,0,1.22.68c.32.11.37,0,.09-.23A4.47,4.47,0,0,0,774,424.88Z"/><path d="M767,430.09c-1.06-.47-2.08-.94-3.08-1.35s-2-.75-2.93-1.06a4.78,4.78,0,0,1-1-.48c0,.21-.42.15-1.19-.15A321.52,321.52,0,0,0,710.4,412a1.6,1.6,0,0,1-.82.26,17,17,0,0,1-6-.76l-1.75-.55c-1.78-.5-3.59-.88-5.38-1.33s-3.58-.9-5.39-1.25l-5.42-1.1-2.7-.55-2.72-.45a40.76,40.76,0,0,1-5.16-.18c-3.19,0-6.39.11-9.58.14l-9.6.45c.39.17.63.36.61.56s-.48.42-1.09.56a9.85,9.85,0,0,1-2.26.24l-2.6.06c2.48.11,5,.13,7.44.4a9.16,9.16,0,0,1,1,.11c2.73.12,5.49.12,8.3.34A288,288,0,0,1,738,421a4.13,4.13,0,0,1,1.23.53c.17.17.09.28-.34.16-14.65-3.64-27.75-4.7-44-6.31a221.13,221.13,0,0,0-57.21,1.86A147.49,147.49,0,0,0,609.41,423a166.3,166.3,0,0,0-26.58,10.66c-1.5.67-2.91,1.52-4.35,2.27l-4.28,2.28-4.12,2.45c-1.37.81-2.76,1.56-4.05,2.46l-1,.65-.49.32-.18.13-.63.47-1.27.92c-.84.62-1.71,1.18-2.51,1.84-1.63,1.26-3.26,2.48-4.92,3.67s-3.19,2.52-4.81,3.76a5.09,5.09,0,0,1-4,1.47,6.57,6.57,0,0,1-4.22-2.21,7.46,7.46,0,0,1-1.92-5.8l-.65.46-1.25.44a5.16,5.16,0,0,1-3.8-.3l-1.65-.68c-2.72-1.59-5.74-2.19-8.48-3.95l-.55-1.06-.4-.1a5.91,5.91,0,0,1-3.2-1.45l-.84-1.15a13.48,13.48,0,0,1-1.88-4.36,4.72,4.72,0,0,1-.9-1.5,6.86,6.86,0,0,1-3.23-3.36,1,1,0,0,1-.77-1.16,1,1,0,0,1,.27-.49h0a9.92,9.92,0,0,0-1-.35c-.37.13-.6.19-.6.19-.93.42-.93.42-1.76.76a5.22,5.22,0,0,1-1.7-.17c-2.29-1.44-2.3-1.44-2.9-2.35,0-.11-.05-.23-.07-.34l-1,.17a3,3,0,0,1-.53-.13c-.41-.43-.41-.43-.64-.52a2.25,2.25,0,0,1-.31-.32c-.13-.73-.12-.73-.24-.88a2.1,2.1,0,0,1,0-.38l.36-.66,1.74.58-.17-.53.62.4-.51-.41h.64l-.8-.09a4.81,4.81,0,0,0,1.4-.82,1.94,1.94,0,0,0,.68-.63,3.24,3.24,0,0,1-.25-.24c1.13-.56,1.13-.56,2.24-1.07l.48.16a.57.57,0,0,1,.32-.53l.56-.29.06-.15,0,0,.24-.56,0-.12h0c.16-.38.39-.95,1.08-2.35a7.13,7.13,0,0,1,1-.36l-.43,0c-.28-.05-.46-.6-.58-.58-.72.14-1.43.32-2.13.53s-1.36.51-2,.8c-1.33.57-2.66,1.23-4,1.85a1,1,0,0,1-1.31.09.82.82,0,0,1,.06-1.23c2.7-6,9.14-9.76,15.48-11,1.51-.58,3-1.19,4.47-1.81l-.34-.11,1.28-.28.12,0-1.33-.36c-.24,0-.47.05-.71.09a29.17,29.17,0,0,1-5.29,1.71c-1.8.47-3.61.95-5.41,1.54s-3.91.8-5.9,1.27a.84.84,0,0,1-1.13-.24.79.79,0,0,1,.42-1.05,36.12,36.12,0,0,1,8.15-5.23,20.91,20.91,0,0,1,9.17-1.75,5.68,5.68,0,0,1,3.13-.8h.05l-1-.36c.82-.26,1.58.14,2.39,0l-.83-.83c2-.66,3.93-1.58,5.88-2.37a30.57,30.57,0,0,1,2.95-1.05,13.74,13.74,0,0,1,3.06-.48,3.34,3.34,0,0,1,.43-.1,23.49,23.49,0,0,1,1.76-2l.49-.46a1,1,0,0,1,.15-.11l.43-.25.87-.49a40.58,40.58,0,0,1,3.73-1.88c-.93.3-1.83.66-2.73,1l-2.65,1s.17-.12.27-.18l.33-.2.68-.4,1.36-.8c.91-.54,1.85-1,2.81-1.48,1.91-.92,3.89-1.8,6-2.61,11.38-4.37,24.9-6.54,31.66-5.37A245.11,245.11,0,0,1,615,375.45a268.85,268.85,0,0,1,33.9-1.42,4.19,4.19,0,0,1,2.41.56c.11.26-.66.47-1.82.44a264.89,264.89,0,0,0-48.55,4.62,288.56,288.56,0,0,1,41.22-2c1.77,0,3.55-.07,5.34,0s3.51.22,5.24.42c17.69,1,34.16,4,51.53,8l2.77.64,2.7.71,5.31,1.42c1.76.44,3.47,1,5.18,1.51l5.13,1.56c3.39,1.08,6.74,2.29,10.16,3.44s6.81,2.58,10.34,3.93a282.57,282.57,0,0,1,27.92,13.12,244.2,244.2,0,0,1,25.84,16.33c2.25,1.62,4.13,3.43,4.13,4s-1.84-.29-4.09-1.89a311.29,311.29,0,0,0-27.75-16.68,320.17,320.17,0,0,0-29.49-13.57,301.15,301.15,0,0,0-31.18-10.51,315.17,315.17,0,0,0-33-7.39c-2.44-.44-4.88-.72-7.29-1.09l-3.62-.52c-1.21-.15-2.42-.26-3.63-.39a.43.43,0,0,1,.1.27c0,.36-.51.65-1.29.86l4.09.45c1.36.19,2.72.42,4.09.63l4.08.66,2.05.34,2,.41A190.39,190.39,0,0,1,724.55,395a236,236,0,0,1,28.52,13.49,283,283,0,0,1,34.41,18.3,3.34,3.34,0,0,1,1,.79c.11.18-.18.1-.63-.16l-6-3.27-3-1.65-3-1.58-6.14-3.16-6.27-3c1.15,1,1.72,1.76,1.42,2.1s-1.51.21-3.16-.33l5.52,3c1.13.61,1.94,1.26,1.79,1.45s-1.11-.14-2.2-.71c-3.75-2-7.47-4-11.31-5.84-1.91-.92-3.79-1.9-5.73-2.76l-5.8-2.61a292.62,292.62,0,0,0-28.89-9.88,7,7,0,0,1,2.44,2.12h0l4.49,1.38c27.69,7.64,54.5,21.06,78.43,38.55.47.33.82.67.78.76s-.46-.11-.89-.42c-3.64-2.59-7.25-5.22-11-7.62-1.88-1.2-3.71-2.48-5.63-3.61L778,426.9l0,0c.28.24.28.38-.09.24a5.24,5.24,0,0,1-1.2-.72c-.32-.28-.23-.36.09-.24a244.48,244.48,0,0,0-44.88-20.11,257.22,257.22,0,0,1,40.77,19.23c1.48.7,3,1.35,4.47,2.12a3.49,3.49,0,0,1,1,.75c.07.14-.27.06-.68-.16l-1.22-.63c2.41,1.51,4.07,3,3.76,3.43s-2.71-.52-5.22-2c-6.9-3.75-13.81-7.43-20.92-10.69l-2.34-1-2.42-.83a290.76,290.76,0,0,1,31.72,17.58c.89.52,1.57,1.09,1.49,1.26s-.87-.12-1.77-.64a295.3,295.3,0,0,0-28.58-14,288.87,288.87,0,0,0-30-11c-3.48-.62-7-1.09-10.47-1.63-3.53-.37-7-.81-10.6-1.1.87.19,1.74.42,2.61.64,11.11,2.61,21.43,5.17,31.57,8.25a197.57,197.57,0,0,1,30.21,11.7,2.05,2.05,0,0,1,.9.66c0,.12-.38,0-.88-.25a223.32,223.32,0,0,0-29.7-11.39l-6.34-1.94L723,412.81l-3.1-.79-3.09-.66c-2.06-.43-4.09-.85-6.12-1.23l6.07,1.6,3,.78,3,.87,6,1.7,5.92,1.89,3,.95,2.93,1,5.87,2.11c1.94.76,3.87,1.56,5.81,2.34l2.92,1.2c1,.41,1.91.87,2.88,1.3a8.08,8.08,0,0,1,1.7,1,.76.76,0,0,1,.43.06,63.67,63.67,0,0,1,6.33,2.53,3.18,3.18,0,0,1,1.06.68C767.73,430.33,767.45,430.28,767,430.09Zm-244.61-12-.24-.08h.65l1.39.73Zm-4.67,9.45h0l-.82-.37Zm96.62-48.2-7.27.82c-1.21.11-2.41.28-3.62.46l-3.62.5c-4.84.55-9.62,1.44-14.49,2.06l6.93-1.68L595,381l2.76-.32,5.52-.61c1.83-.23,3.68-.34,5.53-.46ZM514.09,417.44a12.21,12.21,0,0,1,3.28.8,5,5,0,0,1,1.34-1.16A27,27,0,0,1,523,415c-.44-.3-.09-.44,0-.59l.43-.4c-1.58.6-3.25,1.09-4.86,1.75A40.91,40.91,0,0,1,514.09,417.44Zm-8.22,8.41-.22-.05-.23-.76Zm.42,1.26.25-.06C506.65,427.31,506.52,427.28,506.29,427.11Zm2.3-.6a1.54,1.54,0,0,0-.49-.12Zm14.73,16-1.71-3.36,1.57,3.29Z"/><path d="M675.41,427.47l-.57-.28c.12-.18.48-.2,1-.11a10.36,10.36,0,0,0-7.08-.5,9.62,9.62,0,0,0-2.45,1.17,7,7,0,0,0-1.62,1.49c-1.15.1-1.56.73-1.14,1.3a2.45,2.45,0,0,0,1.11.73,4.54,4.54,0,0,0,1.62.29,5.81,5.81,0,0,1,.89.2c.6.24,1.18.47,1.8.69l1.94.65,2,.67,2.12.67c-.64-.29-1.29-.57-1.91-.82a21.84,21.84,0,0,0,2.44.62l-.58-.48c3.13,1.3,6.4,1.69,7.06.21s-1.79-4.53-5.11-5.89Z"/><path d="M667.67,422.9c.82.11,1.7.27,2.56.47s1.73.4,2.62.66l.47.29-1-1.42,0,.1c-.42,1.36-2.21,2.05-3.77,2.63l-.53.28a.64.64,0,0,0-.11.73,2.56,2.56,0,0,0,2.16,1.05l1.07,0a23,23,0,0,0,2.36.3,13.08,13.08,0,0,0,2.27,0c1.42-.18,2.46-.7,2.33-2.05-.05-.61-.84-1.41-1.37-2.13a3.85,3.85,0,0,0-3.39-1.78c-1.31.1-1.86,1-1.33,1.92l-.76-.1.27-.4c.2.85-.8,1.17-1.36,1.67l-1.06.39,2.06,1.86.46-.31-.29-.21a14.67,14.67,0,0,1,2.78-1.82l1.25-.94c.19-.47-.29-1.16-1.07-1.51l-1.1-.41.54.25a53.73,53.73,0,0,0-6.11-.32c-.31,0-.57.14-.57.37A.63.63,0,0,0,667.67,422.9Z"/><path d="M673.54,421.49a2.13,2.13,0,0,0,1.19.2,1.66,1.66,0,0,0,0-.21l-.82-.34C673.37,420.91,673.31,421.17,673.54,421.49Z"/><path d="M674.78,421.48l.35.14-.3-.21,0,0Z"/><path d="M683.87,571.19c-1,24.84-2.15,49.82-3.7,74.79,0,.83,0,1.54.22,1.58s.33-.6.37-1.38c1.6-25,2.78-49.83,3.77-74.66a2.71,2.71,0,0,0-.3-1.64C684,569.83,683.89,570.42,683.87,571.19Z"/><path d="M661.21,757.43c-.06-.59-.17-.57-.26,0a10.75,10.75,0,0,0-.07,2.06c0,.5.17.48.26,0A10.31,10.31,0,0,0,661.21,757.43Z"/><path d="M653,752c-.28-3.5-.59-6.82-1-9.78a9.21,9.21,0,0,1-.05-1.64c-.18.2-.38-.47-.51-1.73-2.63-24.84-4.51-51.56-6.26-77.88a2.65,2.65,0,0,1-.64-1.12,29.16,29.16,0,0,1-1.12-9.27l.11-2.86c.18-11.55.39-23.07.8-34.56a70.65,70.65,0,0,1-.62-8c-.91-10-1.72-19.93-2.25-30.14-.21.64-.46,1-.73,1-.63-.2-1.09-2.57-1-5.33,0-1.39.07-2.78.16-4.16-.46,4-.54,8-.8,12a15.16,15.16,0,0,1-.12,1.59c-.09,4.37-.09,8.79,0,13.28.42,39.22,4,76.09,7.74,112.67a7.61,7.61,0,0,1,0,2.07c-.1.35-.27.29-.36-.38-3.5-23.07-8.23-43-11-69.14-1.62-15.52-3-30.95-4-46.49-.26-3.88-.52-7.77-.71-11.67l-.3-5.86c-.1-2-.23-3.92-.22-5.88A57.56,57.56,0,0,1,635.33,545c4-8.28,9-16.36,12.8-24.5,1-2.08,1.81-4,2.71-6.34l.63-1.67c.24-.65.48-1.17.68-1.63.42-.92.82-1.69,1.13-2.48a15.64,15.64,0,0,0,1.21-9.44,13.09,13.09,0,0,0-1.75-4.35c-.44-.69-.94-1.41-1.61-2.36a19,19,0,0,1-2.2-4,16.39,16.39,0,0,1-1-5.25,17.24,17.24,0,0,1,.56-5.16,23.57,23.57,0,0,1,4-7.76,15.57,15.57,0,0,0,1-1.58l0-.06h0l.09.05.35.19a6,6,0,0,0,.73.32l.39.13a.88.88,0,0,1,.2.08,2.79,2.79,0,0,0,.66.17h-.19l-.29,0-.21.05.1,0c.06,0,0,0-.4.18l-.3.17-.36.24c-.16.1-.31.21-.46.32l-.1.09h0a.81.81,0,0,0-.19-.31,2.4,2.4,0,0,0-.23-.25c-.41-.36-.73-.7-1.14-1-.8-.61-1.58-1.2-2.3-1.82a21.55,21.55,0,0,1-3.71-3.68,9.73,9.73,0,0,1-1.76-4.14,3.78,3.78,0,0,1-.13-1.21,8.52,8.52,0,0,1,0-1.24,10.25,10.25,0,0,1,.52-2.26,6.19,6.19,0,0,1,.64-1.38,6.87,6.87,0,0,1,.85-1.27,5.52,5.52,0,0,1,.46-.62l.61-.58a14.7,14.7,0,0,1,1.41-1.11c.25-.18.51-.36.8-.53a6,6,0,0,1,.87-.49c.66-.28,1.32-.56,2-.87,1.33-.57,2.84-.95,4.21-1.42l2.08-.69c.42-.16.63-.25.93-.38a9.09,9.09,0,0,0,1.34-.68,2.29,2.29,0,0,0,.28-.24h0l.08.1c.18.24.46.52.59.7a6.47,6.47,0,0,0,.5.56l.29.26.19.2a3.94,3.94,0,0,0,.45.36c.17.12.21.17.34.25s.28.14.31.17a.93.93,0,0,0,.2.08c.13,0,.19,0,.11,0a1.56,1.56,0,0,0-.34.12,2.16,2.16,0,0,0-.6.33,4.42,4.42,0,0,0-.86.63l-.19.18-.28.24a6.51,6.51,0,0,0-.54.51c-.17.17-.33.36-.49.54a1.81,1.81,0,0,1-.28.32c-.08.09,0,0-.06.05l-.09,0-.38-.07c-.65-.17-1.64-.4-2.72-.58-.56-.1-1.08-.2-1.75-.28l-2-.08c-.67,0-1.37-.2-2.06-.29a79,79,0,0,1-8.85-2l-1.67-1a4.41,4.41,0,0,0-.43-.25l-.55-.2-1.09-.39a7.92,7.92,0,0,1-1-.42l-.74-.56c-.49-.38-1-.75-1.44-1.14s-.93-.76-1.36-1.14l-.44-.4-.58-.52c-.79-.68-.48-1.58-1.35-2.25l-.5-.53a2.13,2.13,0,0,1-.43-.54l-.67-1.12-.55-1.15a11.79,11.79,0,0,0-.72-1.19c-.65-.8.08-1.59-.74-2.49l-.37-.66a3.54,3.54,0,0,1,0-.65l.06-.65c0-.11,0-.23-.09-.36l-.15-.36c-.18-.49-.57-1-.31-1.44l.16-.68.09-.35a1.4,1.4,0,0,0-.07-.38c-.12-.53-.26-1.06-.36-1.58l.56-1.36.14-.35a1.2,1.2,0,0,0,0-.38v-.8c0-.53,0-1.06,0-1.6l.1-1.61,0-.41c0-.15.13-.21.19-.33l.49-.6,1-1.22a9.8,9.8,0,0,0,.56-1.46l.52-1.49,0-.09,0,0a.53.53,0,0,0-.06-.1l-.26-.42-.13-.21c0-.05,0-.07,0-.11l.08-.2.35-.8.35-.81.27-.7.54-1.33c.35-.84.73-1.72,1.11-2.55s.6-1.36.91-2a19.49,19.49,0,0,1,1-1.8,12.82,12.82,0,0,1,2.07-2.63c1.33-1.27,2.7-1.68,3.68-1,1.19.9,1.55,3.11,1.13,5.55.22-.33.43-.66.64-1,.4-.45.81-.93,1.2-1.35,1.15-1.18,2.36-1.94,3.46-1.87h1.43c2.32.53,5.1.33,7.47,1.74l.38,1,.37.05a3.72,3.72,0,0,1,2.85,1.17l.65,1.13a12.17,12.17,0,0,1,1.21,4.23,3.87,3.87,0,0,1,.66,1.41,5.68,5.68,0,0,1,2.63,3.21.8.8,0,0,1,.58,1.08.84.84,0,0,1-.34.36h0c.35.19.45.24.89.44.38,0,.6,0,.6,0a17.6,17.6,0,0,1,1.84-.24,5.89,5.89,0,0,1,1.66.59c2,1.84,2.05,1.88,2.51,2.8a2.83,2.83,0,0,1,0,.29,9.81,9.81,0,0,1,1.07.26,4,4,0,0,1,.51.3c.34.5.34.5.55.67a3.39,3.39,0,0,1,.27.37c0,.6,0,.6.09.76a.87.87,0,0,1,0,.28c-.29.22-.41.3-.46.33l-1.65-1.11.08.45-.55-.52.44.49-.63-.24.78.37a4.24,4.24,0,0,0-1.54.07,1.46,1.46,0,0,0-.77.22,3,3,0,0,1,.21.25l-2.33.07-.44-.24c0,.14-.16.26-.39.27l-.59.06-.06.09,0,0a4,4,0,0,0-.29.32c0,.07-.06.07-.06.07h0c-.21.22-.5.54-1.29,1.33a8.63,8.63,0,0,1-1,.05l.37.11c.25.08.36.46.47.47,1.36.09,2.71.15,4.06.17s2.75.08,4.18.22a1.54,1.54,0,0,1,1.33.5c.31.37.17.69-.27.76a10.31,10.31,0,0,1-3.24,1.44,24.22,24.22,0,0,1-3.84.73c-2.69.31-5.46.43-8,.51-.57.08-1.14.21-1.69.33l-1.51.36.23.06c-.25,0-.61,0-.56.15v0h.2a2.23,2.23,0,0,1,.39.08h.47a17.82,17.82,0,0,1,3.89-.46c.76,0,1.46,0,2.24,0l2.38.12a15.83,15.83,0,0,1,2.68.37l2.76.61a1.37,1.37,0,0,1,1,.54c.14.26-.1.43-.53.4-1.25.13-2.45.16-3.77.24-.63,0-1.23,0-1.88,0l-1,0h-.89c-1.26,0-2.39-.08-3.51-.13l-1.58-.16a2,2,0,0,1-.37-.06c-.09,0-.28-.06-.31,0l-.11.06a1.45,1.45,0,0,1-.84.3h0l.49.08c-.18.11-.6,0-.81.14l.62.2a1.53,1.53,0,0,0-.47,1.3c.05.46.22.84.25,1.2a.18.18,0,0,1,.05.08c.35.12.68.21,1,.3l.22.06.05,0,.17.08.35.17c.46.21.92.39,1.39.59a14.56,14.56,0,0,1-1.68-.92c.65.31,1.35.56,2,.79l.24.09.13,0,.06,0,.12.08,1.95,1.29c.68.46,1.38.91,2.14,1.47a24.05,24.05,0,0,1,2.48,2l.46.45c.17.16.35.36.51.54a11.57,11.57,0,0,1,1,1.37,6.6,6.6,0,0,1,.5.93,5.51,5.51,0,0,1,.42,1.09,9.29,9.29,0,0,1,.28,1.27,10.14,10.14,0,0,1,0,1.35,7.57,7.57,0,0,1-1.79,4.33,10,10,0,0,1-2.31,1.95,22.18,22.18,0,0,1-3.64,1.78c-.51.22-1.22.48-1.15.46l-.36.11a11,11,0,0,0-1.47.55,1.7,1.7,0,0,0-.62.51,1.62,1.62,0,0,1-.1.18,1.21,1.21,0,0,1,0,.19.68.68,0,0,0,.1.35,4.66,4.66,0,0,0,1,1l.28.24.14.13.07.06v0l0,0s0,0,0,0l.17.14a15.52,15.52,0,0,1,2.66,2.61,12.53,12.53,0,0,1,2,3.71,11.91,11.91,0,0,1,.48,2.05,18,18,0,0,1,.08,2.06,12.54,12.54,0,0,1-.29,2,12,12,0,0,1-.57,1.72,13.63,13.63,0,0,1-.7,1.38c-.24.38-.48.75-.71,1.08a28.21,28.21,0,0,1-2.1,2.76c-.59.71-1.1,1.31-1.48,1.83a6.3,6.3,0,0,0-1.29,2.81,4.54,4.54,0,0,0,0,1.36,5.36,5.36,0,0,0,.63,1.71c.78,1.5,2,3.54,3,5.58a55.54,55.54,0,0,1,4.11,12.93c.44,2.24.71,4.56.95,6.73l.18,1.56c.08.53.16.83.26,1.32.2.9.44,1.79.66,2.67.51,1.91,1.05,3.85,1.67,5.77s1.29,3.89,2,5.84c1.39,3.88,3,7.81,4.42,11.7A99.27,99.27,0,0,1,684,563.76c.21,1.61,0,3-.29,3.32s-.71-.9-.89-2.5a99.19,99.19,0,0,0-3.91-16.8c-1.81-5.62-4-11.25-6-16.91-1-2.81-1.9-5.65-2.73-8.46-.4-1.39-.78-2.79-1.12-4.2l-.26-1.05-.22-1c-.15-.65-.29-1.3-.42-2-.25-1.16-.33-2.81-.51-4.39s-.37-3.23-.67-4.84a52.45,52.45,0,0,0-2.54-9.41,50.71,50.71,0,0,1,2.15,7.84,66.23,66.23,0,0,1,1,8.05c.05.66.08,1.28.15,1.86s.16,1.06.25,1.62c.21,1.12.4,2.15.66,3.37.51,2.37,1,4.71,1.71,7.11,2.51,9.54,5.88,19.19,7.53,28.89q.73,3.72,1.18,7.46a45,45,0,0,1,.24,7.33c-.1,12.38-.44,24.44-.7,36.58s-.52,24.33-.67,37c-.24,21.59-.67,40.49-1.64,62-1.42,30.2-4,57.69-9.73,87.5a44.06,44.06,0,0,1-2.06,8.1c-.35.48,0-2.4.64-6.38,2.48-15.54,4.13-31,5.39-46.52s2.1-31,2.73-46.59c1.27-31.18,1.81-62.73,2.85-95.25.21-7,.41-13.91.62-20.77a.58.58,0,0,1-.37.16c-.48,0-.92-.66-1.28-1.76q-.39,11.69-1,23.52c.5,21.94.65,43.91-1,67.28-1.16,16-2.9,30.57-4.54,45.42C667.77,738.19,666.75,757,665,776a8.8,8.8,0,0,1-.28,1.82c-.1.27-.14-.14-.09-.9.85-13.07,1.38-26.47,1.76-40-.5,2.13-1,3.39-1.54,3.22s-.9-1.83-1.14-4.36l-.46,9.19c-.11,1.9-.38,3.39-.62,3.33s-.39-1.55-.31-3.36q.74-18.75,1.49-37.46c.14-15,.2-29.92.24-44.93a10.89,10.89,0,0,1-1.85,4.32h0c0,2.33,0,4.65-.08,7q.9,31.82.27,64.29t-2.9,65.29a8.24,8.24,0,0,1-.18,1.58,5.58,5.58,0,0,1,0-1.42q1.23-19.8,1.94-39.51v.06c-.08.52-.2.62-.25,0a11.91,11.91,0,0,1,.08-2.06c.09-.61.2-.55.25,0,.86-24.47,1.06-48.77.6-72.75q-.45,33.42-1.66,66.8c0,2.43.1,4.85.15,7.32a7.24,7.24,0,0,1-.18,1.81c-.09.19-.17-.3-.17-1s0-1.36,0-2.05c-.16,4.22-.64,7.46-1.11,7.39-.48-.24-.83-3.86-.78-8.24q0-17.58.08-35.07l-.1-3.79c-.1-1.28-.21-2.55-.32-3.82-.38,18.16-.73,36.29-.86,54.31a7.81,7.81,0,0,1-.27,2.89,7,7,0,0,1-.33-2.77c-1.1-31.76-2.38-63.92-3.13-96.22-1.38-10.61-2.86-21.25-4.35-32.1v4.12c.17,17.56,1.45,33.8,2.69,49.89s2.47,32,3.07,49a4.29,4.29,0,0,1-.13,1.67c-.1.09-.22-.49-.25-1.35-.72-16.59-2.11-31.74-3.3-48.21-1-13.64-1.92-26.61-3.15-39.29.83,25.91,3,50.77,4.4,76.43a16,16,0,0,1,0,3,1.52,1.52,0,0,1,.18.63c.41,3.21.74,6.71,1,10.28a6.8,6.8,0,0,1,0,1.91C653.19,753.18,653.08,752.76,653,752Zm2.5-329.21.2,0-.54.07-1.11-.27S654.73,422.67,655.49,422.79Zm4.86-6.88h0l.71.31Zm7.4,99.63c-.14-.8-.28-1.6-.36-2.36l-.2-2.7c-.14-1.89-.33-3.83-.65-5.73a49.36,49.36,0,0,0-3.1-11.05,48.19,48.19,0,0,0-2.48-5.1,13.31,13.31,0,0,1-1.74-3.74,4.31,4.31,0,0,1,0-1.35,6.13,6.13,0,0,1,.33-1.45,9.33,9.33,0,0,1,1.73-2.74,9.23,9.23,0,0,0-1.62,2.7,5.68,5.68,0,0,0-.27,2.67c0,1.12,1.68,3.53,2.95,6.14A49.28,49.28,0,0,1,665.4,499a52.17,52.17,0,0,1,1.62,8.6c.16,1.45.24,2.91.32,4.29,0,.67.07,1.38.15,1.9S667.65,515,667.75,515.54Zm-5.15-92.28a21,21,0,0,1-2.82-.74,4.51,4.51,0,0,1-1.26.7c-1.2.54-2.44,1-3.54,1.53.34.13.07.25,0,.35s-.24.18-.33.27c.61-.25,1.24-.49,1.88-.71s1.36-.41,2-.59,1.32-.34,2-.5A12.47,12.47,0,0,1,662.6,423.26Zm8.87-4,.21.12.1.63Zm-.21-1.08-.26,0C670.93,417.88,671.05,417.94,671.26,418.15Zm-2.37-.21a2.59,2.59,0,0,0,.46.22ZM657,402.7l1.18,3.19-1-3.14Z"/><path d="M444.25,381.32l.26.07a.5.5,0,0,1-.4.3c2.43.32,4.22-1.73,4.92-3.85a1.09,1.09,0,0,0-.91-2,1.69,1.69,0,0,1-.45,0,8.49,8.49,0,0,0-3.68-.26l.85.13a2.74,2.74,0,0,0-1,.25l.28.22a2.54,2.54,0,1,0-.45,5.05Z"/><path d="M447.86,383.29c-.8,0-1.58,0-2.37-.09l-.22-.11.5.78,0-.06a4.48,4.48,0,0,1,1.6-2.42l.22-.29a.78.78,0,0,0,0-.58.82.82,0,0,0-1-.49l-.48.18c-1.33.15-3,1.1-2.85,2.8a2.86,2.86,0,0,0,.63,1.08,1.12,1.12,0,1,0,2-1l.34-.05-.11.32c-.11-.55.32-.94.54-1.39l.47-.44-1-1.07-.19.32.14.1a10.43,10.43,0,0,1-1.13,1.84l-.48.88a.67.67,0,0,0,.5.78l.48.08-.24-.07c.92-.15,1.82-.45,2.74-.58a.28.28,0,1,0,0-.55Z"/><path d="M445.27,385a.64.64,0,0,0-.52.06,1.09,1.09,0,0,1,0,.15l.37.07C445.36,385.33,445.38,385.16,445.27,385Z"/><path d="M444.73,385.2l-.15,0,.14.08v0Z"/><path d="M469.23,368.15a38.07,38.07,0,0,0,3.94-1.5c.05,0,.05-.09,0-.17s-.1-.12-.14-.1a41.38,41.38,0,0,1-3.94,1.48s0,.1,0,.17S469.19,368.16,469.23,368.15Z"/><path d="M482.63,370.68a.25.25,0,0,0,.11.19c.05,0,.1,0,.1-.06a.35.35,0,0,0-.12-.19C482.66,370.58,482.62,370.62,482.63,370.68Z"/><path d="M485.83,376.88a1.85,1.85,0,0,0-.22.72s0,0-.08,0a.42.42,0,0,1,.08.34,15.19,15.19,0,0,1-2.61,4.15,1.21,1.21,0,0,1,.11.32c.09.36,0,.62-.21.67h-.18c-.66.14-1.3.32-2,.44a.76.76,0,0,1-.24.49,13.28,13.28,0,0,1-.86,1.86,1,1,0,0,1,.22.27c.15.28.15.54,0,.61l-.19.13q.35-.07.69-.12a.2.2,0,0,1,.11,0,7,7,0,0,0,.63-.38,15.25,15.25,0,0,0,4-5.54c0-.05.05-.07.12,0a.28.28,0,0,1,.09.19c-.35,2-.3,4.3-1.05,5.9a30.78,30.78,0,0,1-3,5.2c-1.6.91-2.72,2.41-4.08,3.82a19.38,19.38,0,0,1-1.41,1.33,1.52,1.52,0,0,1-.23.18l-.37.26-.75.51-1.51,1c-2,1.32-4.08,2.55-6.18,3.79a3.32,3.32,0,0,1-4.66-.63,3.37,3.37,0,0,1-.52-3l-.4.2-.72.16a2.94,2.94,0,0,1-2-.32l-.81-.42c-1.29-.94-2.81-1.47-4-2.52l-.17-.55-.2-.08a2.87,2.87,0,0,1-1.46-.95l-.31-.62a7,7,0,0,1-.56-2.26,2.4,2.4,0,0,1-.32-.8,3.41,3.41,0,0,1-1.3-1.88.49.49,0,0,1-.29-.62.56.56,0,0,1,.16-.21h0a4.06,4.06,0,0,0-.43-.26l-.29.05-.86.21a2.26,2.26,0,0,1-.77-.23c-.94-.89-.94-.89-1.16-1.38,0-.06,0-.11,0-.17h-.47a1.2,1.2,0,0,1-.23-.11c-.15-.24-.15-.24-.25-.31a1.59,1.59,0,0,1-.12-.18c0-.36,0-.36-.05-.44a.9.9,0,0,1,0-.18l.2-.29.74.44,0-.27.25.25-.2-.25.28.06-.35-.12a1.88,1.88,0,0,0,.67-.26,1,1,0,0,0,.34-.24.75.75,0,0,1-.1-.14l1.05-.31.21.12a.23.23,0,0,1,.17-.22l.27-.09,0-.07v0a1.73,1.73,0,0,1,.13-.24l0-.06h0l.57-1.05a2.83,2.83,0,0,1,.47-.1l-.18-.06c-.13,0-.2-.32-.25-.32a17.6,17.6,0,0,0-3.74.83.42.42,0,0,1-.58-.07.41.41,0,0,1,.08-.58,8.92,8.92,0,0,1,7.07-4.16c.67-.21,1.32-.44,2-.68l-.16-.08.57-.08.06,0-.6-.23h-.32a26.43,26.43,0,0,1-4.71,1,20.2,20.2,0,0,1-2.57.19.36.36,0,1,1-.28-.67c2.09-1.6,4.84-2.8,7.51-2.35a2.16,2.16,0,0,1,1.37-.25h0l-.46-.22c.36-.08.69.12,1.05.09l-.39-.44c1.71-.56,3.28-1.65,5.1-1.74l.19,0a8.71,8.71,0,0,1,1.18-1.65l-.47.06a1.47,1.47,0,0,1,.63-.81,3.15,3.15,0,0,1,3.27.94,48.21,48.21,0,0,0,4.16-3.18c.07-.06.2,0,.3.14s.12.31,0,.38a16.4,16.4,0,0,1-2.68,2.88,15.57,15.57,0,0,0,3.09-1l.32-.27a.66.66,0,0,1,.4-.13,12.9,12.9,0,0,0,3.39-2.31A28.76,28.76,0,0,0,476,365a12.48,12.48,0,0,1,3.48-3.72c.17-.15.5,0,.74.38s.3.79.13.95c-2.34,2.88-4.48,6-7.73,7.59l-1,.51.1.14a2.1,2.1,0,0,1,.23.61,8.7,8.7,0,0,1,1.28-.41,6.55,6.55,0,0,1,2.88-2.5,8.76,8.76,0,0,1,2.77-.24c.78-.76,1.51-1.57,2.32-2.3,0-.05.08,0,.13,0a.2.2,0,0,1,.06.19,13.48,13.48,0,0,1-1.28,2.24,2.5,2.5,0,0,1,.65.79,2.16,2.16,0,0,1,.29,1l.46-.23c.1,0,.25.05.34.22s.11.37,0,.41l-1.85,1c-.62.6-1.24,1.18-1.89,1.73a3.32,3.32,0,0,1,.68.71h0l.33-.22a14,14,0,0,1,5.5-4.88s.11,0,.16.1,0,.16,0,.18a10.91,10.91,0,0,0-1.9,1.1h0a.29.29,0,0,1,.11.2.06.06,0,0,1-.1.06.31.31,0,0,1-.11-.19,14.56,14.56,0,0,0-3,2.95A16.92,16.92,0,0,1,483,371.5l.18-.5s.09,0,.15.06a.21.21,0,0,1,.05.19l-.06.13c.22-.09.57.16.8.57s.24.85,0,1c-.52.4-1.06.76-1.61,1.11l-.14.17-.07.31c1-.34,1.95-.64,2.95-.93.07,0,.2,0,.28.18s.1.31,0,.35a27.91,27.91,0,0,1-3.93,3.91c-.15.92-.31,1.86-.46,2.78l.21-.09c1.69-1,2.1-3.59,3.53-4.9,0,0,.1,0,.15.07s.06.16,0,.19a16.73,16.73,0,0,0-1.59,2.62,15.23,15.23,0,0,0-1.22,2.25c1.15-.88,1.9-2.35,2.94-3.41,0-.06.11-.06.19,0a.3.3,0,0,1,0-.12,2.36,2.36,0,0,1,.23-.75s.07,0,.13,0A.25.25,0,0,1,485.83,376.88Zm-31.73,6.66-.11-.05.3,0,.63.42Zm-2.5,4.33h0l-.36-.24Zm16.13-16.1a4.66,4.66,0,0,1-2.26.59l.42-.37A17.8,17.8,0,0,1,467.73,371.77Zm-17.43,11a6.4,6.4,0,0,1,1.47.6,2.3,2.3,0,0,1,.64-.47,20,20,0,0,1,2-.83c-.19-.16,0-.22,0-.29l.2-.18c-.74.22-1.48.43-2.24.63A15.66,15.66,0,0,1,450.3,382.72Zm-4.07,3.4-.1-.05-.06-.38Zm.11.64h.12C446.5,386.88,446.44,386.86,446.34,386.76Zm1.08-.09-.21-.11Zm5.89,8.88-.57-1.76.5,1.72Z"/><path d="M386.48,472.15l.63-.07a1.46,1.46,0,0,1-.81.95,12.75,12.75,0,0,0,6.9-4.5,20.67,20.67,0,0,0,3.71-7c1.3-.86,1.84-2.33,1.2-3.31s-2.27-1.07-3.65-.19a5.81,5.81,0,0,1-1.1.29,24.35,24.35,0,0,0-9.32,2.19l2.18-.42a9.81,9.81,0,0,0-2.61,1.35l.75.25c-3.54.86-6.37,4.17-6.09,7.21s3.37,4.61,6.69,3.66Z"/><path d="M395.57,473.39c-1.8.56-3.59,1.08-5.42,1.62l-.54-.06,1.49,1.2L391,476c-.11-2.12,1.25-4.31,2.69-6.16l.44-.74a1.46,1.46,0,0,0-.13-1.2,1.84,1.84,0,0,0-2.59-.25l-1.08.73c-3.12,1.3-6.81,4.75-5.49,8.1.31.77,1.27,1.14,2,1.66a2.68,2.68,0,0,0,3.63-.19,2.46,2.46,0,0,0,.47-3.45l.75-.36c0,.24-.07.48-.11.73-.5-1,.32-2.16.67-3.25l.93-1.25L390.46,469l-.33.81a3.56,3.56,0,0,1,.36.11,35.13,35.13,0,0,1-1.87,4.66l-.7,2.2a1.28,1.28,0,0,0,1.53,1.18l1.13-.23-.58.05c2-1.07,3.87-2.35,5.89-3.28a.71.71,0,0,0,.46-.8A.55.55,0,0,0,395.57,473.39Z"/><path d="M390.53,478.83a1.69,1.69,0,0,0-1.11.55c0,.18,0,.26,0,.31l.85-.15C390.91,479.44,390.87,479.08,390.53,478.83Z"/><path d="M389.45,479.69l-.35.06.34.05,0-.06Z"/><path d="M573.53,603.31a105,105,0,0,1,7,21.55,122,122,0,0,1,2.63,21.68,110.58,110.58,0,0,1-1.43,22.25,85.88,85.88,0,0,1-7.21,22.9l-.67,1.43-.8,1.43-1.63,2.83-.83,1.41-.91,1.33c-.62.89-1.21,1.78-1.86,2.65a70.42,70.42,0,0,1-8.89,9.75,63.36,63.36,0,0,1-23.12,13.26,66,66,0,0,1-13,2.73c-1.09.1-2.19.2-3.28.27l-3.29.1c-2.13,0-4.22-.07-6.27-.25a94.61,94.61,0,0,1-22.49-4.83,12.92,12.92,0,0,0-3.49-.9,8,8,0,0,0,2.87,1.31,96.74,96.74,0,0,0,22.54,5c1,.08,2.07.16,3.11.21l3.17.08c2.19,0,4.42-.09,6.62-.32a67.16,67.16,0,0,0,13.09-2.61,64,64,0,0,0,23.42-13.14,66.4,66.4,0,0,0,9-9.73c.7-.86,1.29-1.76,1.91-2.65s1.26-1.76,1.79-2.72l1.65-2.85c.52-1,1.13-1.91,1.54-2.87a84.78,84.78,0,0,0,7.43-23,111,111,0,0,0,1.58-22.34,122.66,122.66,0,0,0-2.5-21.77,106.75,106.75,0,0,0-6.84-21.64,19,19,0,0,0-2.15-3.77C572.09,600,572.66,601.46,573.53,603.31Z"/><path d="M291,648.56c1.07-.34,1-.46-.15-.3a20.65,20.65,0,0,0-3.77.87c-.88.34-.8.48.17.29C288.4,649.19,290.13,648.85,291,648.56Z"/><path d="M299.34,636.48l2.59-.52,2.59-.38,5.06-.75,4.91-.47,2.37-.24,2.32-.12c1.14,0,2.42,0,3.38,0-.41-.2,1-.48,3.59-.36l4.85.17,4.87.44c1.63.12,3.24.42,4.87.64l2.44.36c.85.16,1.77.38,2.66.58,3.44.81,6.39,1.67,9.44,2.58s6,1.83,9,2.77c11.95,3.79,23.86,7.9,35.83,12.15S424.07,662,436,666.59s23.92,9.17,35.8,13.94a6.83,6.83,0,0,1,2.23.29,60.25,60.25,0,0,1,7.26,2.31c2.88,1.08,6,2.37,9.16,3.66q2.32,1,4.61,1.9c2.31.87,4.58,1.66,6.81,2.32a65.21,65.21,0,0,0,6.51,1.57,42.23,42.23,0,0,0,6.16.69c1,.06,1.93,0,2.86,0s1.86-.13,2.78-.28A29,29,0,0,0,539,682.21c.45-.65.81-1.42,1.25-2.15s.74-1.56,1.17-2.34a24.17,24.17,0,0,0,1.15-2.6c.19-.46.39-.91.58-1.38s.34-1,.5-1.51c4-13.9,2.68-31.87-2.63-46.72.16,1,.1,1.63-.14,1.69s-.85-.91-1.47-2.22c-.31-.66-.62-1.45-1-2.23s-.72-1.73-1.12-2.57-.78-1.7-1.22-2.48-.83-1.6-1.31-2.3c.34.49.58,1.13.89,1.67a16.85,16.85,0,0,1,.84,1.76l.81,1.82.74,2,.37,1c.12.34.22.71.32,1.06l.65,2.13c.38,1.46.75,2.93,1.07,4.42.18.87.32,1.68.43,2.42a87.55,87.55,0,0,1,1.67,20.54c-.35,7.44-1.73,14.56-4.22,19.89a12.17,12.17,0,0,1-1,1.91,15.06,15.06,0,0,1-1,1.82l-.57.9c-.19.29-.41.55-.61.84s-.4.57-.62.83l-.66.77a26.56,26.56,0,0,1-2.79,2.82,26.91,26.91,0,0,1-6.61,4.07c-.63.21-1.21.51-1.86.68l-1,.31-1,.24a28.92,28.92,0,0,1-8.42.75,53,53,0,0,1-10.06-1.58A115.1,115.1,0,0,1,491,685c-3.9-1.4-7.78-3-12.09-4.68s-8.43-3.34-12.63-5c-8.4-3.29-16.82-6.43-25.22-9.52s-16.79-6.14-25.19-9.11-16.81-5.85-25.24-8.69a25.89,25.89,0,0,1-3.75-1.46c-.6-.36-.42-.48.83-.09l31.4,9.63c10.26,3.22,20.44,6.42,30.76,9.78s20.77,6.94,31.63,10.87c2.78,1,5.31,1.92,7.86,2.79s5,1.67,7.43,2.38a66.9,66.9,0,0,0,13.42,2.77c.6.06,1.18.08,1.75.1s1.12,0,1.66,0,1.06-.05,1.58-.07.92-.12,1.38-.15a19.55,19.55,0,0,0,12.65-7.29c.24-.36.52-.66.75-1s.48-.72.73-1.09.44-.8.67-1.18.35-.81.55-1.19a22.76,22.76,0,0,0,1.07-2.59,9.19,9.19,0,0,0,.47-1.48c.15-.51.31-1,.47-1.52a59.64,59.64,0,0,0,1.55-14.94,77.65,77.65,0,0,0-2-16.37,67.21,67.21,0,0,0-2.28-7.61l-.66-1.78-.73-1.62-.35-.82-.37-.69-.72-1.37c-.52-.79-.95-1.68-1.49-2.35a22.3,22.3,0,0,0-1.5-2.06,10.32,10.32,0,0,1-.79-1c-.28-.31-.59-.6-.86-.92s-.64-.61-.94-.93a9.72,9.72,0,0,0-1-1c-.18-.15-.36-.32-.54-.49s-.41-.33-.62-.5a14.93,14.93,0,0,0-1.31-1c-.49-.35-.91-.71-1.46-1.07l-1.63-1.09c-2.29-1.5-5.09-3.09-8.22-4.84l-1.22-.72-1.29-.74-1.28-.75-1.05-.63-2-1.24-2.06-1.2c-2.78-1.54-5.62-3-8.59-4.34a103.23,103.23,0,0,0-19.43-6.47c-1.79-.42-3.61-.81-5.53-1.2l-6-1.15c-2.08-.39-4.36-.85-6.84-1.4-.66-.16-1.24-.28-1.94-.47l-1.06-.29-.61-.16-.16,0c-.05,0-.09-.13-.13-.19a.36.36,0,0,0-.07-.1l-.08,0-.16,0c-.86-.27-1.73-.52-2.58-.81s-1.66-.67-2.46-1.06-1.54-.87-2.35-1.24l-1.21-.56a2.45,2.45,0,0,1-.58-.3l-.5-.44-1-.88c-.32-.31-.6-.64-.91-1a18.1,18.1,0,0,1-1.68-2c-.52-.71-1.09-1.32-1.64-2l-.21-.24-.14-.3-.27-.59-.56-1.19c-.33-.81-.59-1.65-.89-2.47-.15-.41-.3-.82-.41-1.24l-.17-.63c-.05-.22-.06-.45-.09-.68-.1-.92-.2-1.82-.27-2.72l-.12-1.35a6.92,6.92,0,0,1-.06-1.37l.13-2.78a4,4,0,0,1,.28-1.39l.41-1.39c.59-1.88,1-3.64,1.48-5.45,0-.24.4-.39.43-.6l.23-.59.21-.49.18-.43c.24-.57.49-1.14.76-1.68a58.41,58.41,0,0,1,7.65-12c.72-.93,1.57-1.82,2.37-2.71s1.7-1.75,2.7-2.61a29.46,29.46,0,0,1,3.14-2.46,25.3,25.3,0,0,1,3.59-2.16l.93-.51,1-.41,2-.79c.67-.27,1.38-.39,2.06-.6a20.43,20.43,0,0,1,2.06-.49c1.34-.21,2.73-.47,3.95-.54.62-.06,1.3-.15,1.87-.17l1.74-.11,1.62-.1,1.53-.12a26,26,0,0,0,2.59-.39,9.08,9.08,0,0,0,1.09-.28l.89-.35a2.26,2.26,0,0,0,.7-.43c.19-.16.45-.24.56-.43a3.49,3.49,0,0,0,.63-1l.2-.48.17-.59c.11-.27.24-.84.36-1.25s.27-.95.41-1.45a57,57,0,0,0,1.46-7.27,21.55,21.55,0,0,0-.08-7.15,10,10,0,0,0-.91-2.61,8,8,0,0,0-1.29-1.73,14.1,14.1,0,0,0-2.27-1.78,23.43,23.43,0,0,0-3.18-1.74,40.23,40.23,0,0,0-9.14-2.95,24,24,0,0,0-4.78-.55,13.81,13.81,0,0,0-3.08.57,21.85,21.85,0,0,0-2.79,1.19c-.95.53-1.89,1.06-2.92,1.77-.24.14-.52.37-.77.54s-.52.36-.79.58L449,493c-.11.09-.08.08-.13.12l-.36.38c-.24.25-.48.47-.73.75L447,495l-.75.8c-1,1.08-2.06,2.17-3.12,3.39S441,501.6,439.92,503c-1.32,2.31-4.46,2.43-7.17.1a7.91,7.91,0,0,1-2.73-5.42l-.52.53-1.06.57a4.57,4.57,0,0,1-3.54.22l-1.64-.42c-2.81-1.17-5.86-1.39-8.81-2.71l-.71-1-.41-.05a6,6,0,0,1-3.38-.94l-1-1a13.39,13.39,0,0,1-2.54-4.06,4.71,4.71,0,0,1-1.12-1.36,6.77,6.77,0,0,1-3.73-2.83.94.94,0,0,1-.94-1,1.07,1.07,0,0,1,.22-.54h0a8.2,8.2,0,0,0-1.05-.2l-.58.29-1.69,1.06a5.22,5.22,0,0,1-1.75.12c-2.54-1-2.55-1-3.3-1.86a2.08,2.08,0,0,1-.12-.32c-.77.27-.82.29-1,.35a2.47,2.47,0,0,1-.55,0c-.48-.36-.48-.36-.73-.41a2.21,2.21,0,0,1-.37-.27c-.24-.72-.24-.72-.37-.85a1.39,1.39,0,0,1-.1-.37c.17-.48.24-.66.27-.74l1.87.27-.25-.5.7.29-.58-.33.65-.1-.83,0a5.37,5.37,0,0,0,1.34-1.07,2,2,0,0,0,.63-.76,1.66,1.66,0,0,1-.28-.19c1.1-.75,1.1-.74,2.2-1.44a3.74,3.74,0,0,1,.52.09.56.56,0,0,1,.28-.57l.56-.38,0-.16,0,0,.19-.59,0-.12h0c.14-.4.32-1,.89-2.53a7.76,7.76,0,0,1,1-.52H398c-.3,0-.54-.52-.66-.48a39,39,0,0,0-8.23,4.48,1.11,1.11,0,0,1-1.36.33.82.82,0,0,1-.08-1.26c2.19-6.45,8.74-11.3,15.56-13.37,1.58-.8,3.15-1.61,4.77-2.4l-.38-.07L409,458l.13-.06-1.44-.2-.77.18c-3.65,1.95-7.61,3-11.4,4.71-2,.93-4.11,1.41-6.18,2.21a.89.89,0,0,1-1.22,0,.87.87,0,0,1,.37-1.14,34.92,34.92,0,0,1,8.49-6.45,24.49,24.49,0,0,1,10-3,7.55,7.55,0,0,1,3.51-1.12l.06,0-1.13-.24c.93-.33,1.76,0,2.66-.25l-.88-.73c1.12-.45,2.24-.95,3.38-1.44s2.28-1,3.44-1.45a24.65,24.65,0,0,1,7.17-1.78c.18-.05.36-.08.53-.11a20.57,20.57,0,0,1,2.45-1.92c.23-.15.45-.3.69-.44l.09-.05,0,0,0,0,.09,0c.54-.21,1.11-.38,1.67-.56,1.13-.36,2.25-.74,3.45-1a66.13,66.13,0,0,1,15.31-2.39,68.79,68.79,0,0,0-10.86,1.07c-1.78.29-3.48.69-5.2,1.09-.87.2-1.68.45-2.53.68l-1.27.36L429,444l-.25.08h0l0,0,.29-.11.66-.23,1.34-.44c.89-.29,1.77-.58,2.71-.83l2.76-.74,2.85-.62a64.49,64.49,0,0,1,11.94-1.28,58.62,58.62,0,0,1,12.46,1.1,60.64,60.64,0,0,1,6.18,1.54c2,.68,4.08,1.37,5.82,2.15a78.21,78.21,0,0,1,13.55,7.59A68,68,0,0,1,501.52,463a50.65,50.65,0,0,1,9.23,14.77,42.73,42.73,0,0,1,3.08,16.89A47.09,47.09,0,0,1,511.19,509a47.71,47.71,0,0,1-5.49,11.23,41.9,41.9,0,0,1-7.34,8.35c-.64.58-1.39,1.11-2.05,1.63s-1.46,1-2.16,1.42a20.56,20.56,0,0,1-2.12,1.24c-.75.36-1.48.68-2.18,1l-.93.44-1,.36c-.67.23-1.35.44-2,.65a17.54,17.54,0,0,1-2,.41,18.13,18.13,0,0,1-2,.28,28.47,28.47,0,0,1-3.79,0c-.59,0-1.21-.06-1.77-.11l-1.63-.21c-.56,0-1.06-.13-1.55-.21l-1.47-.22c-.88-.14-1.85-.29-2.65-.37l-1.23-.12c-.41,0-.76,0-1.14,0a13.09,13.09,0,0,0-2.12.12c-2.65.3-4.66,1.75-6.64,3.84a30.42,30.42,0,0,0-5,7.91c-.36.72-.63,1.48-.93,2.22s-.53,1.5-.74,2.26a21,21,0,0,0-.56,2.24c0,.08,0,.2-.06.26l-.06.16c0,.11,0,.18-.06.27l-.12.49a6.62,6.62,0,0,0,.14,4A3,3,0,0,0,451.8,560a4.25,4.25,0,0,0,.94.36,2.68,2.68,0,0,0,.49.11,2.18,2.18,0,0,0,.6.07c1.29,0,2.83-.12,4.54-.32l5.34-.61A184.08,184.08,0,0,1,488,557.83a117.08,117.08,0,0,1,12.89.76c2.16.23,4.33.55,6.49.91s4.31.8,6.44,1.32,4.26,1.07,6.39,1.66c1.87.51,3.68,1,5.63,1.63A117.77,117.77,0,0,1,538,568.49a74.77,74.77,0,0,1,13,7.09A68.26,68.26,0,0,1,563,586.15a46.69,46.69,0,0,1,3.65,4.76,13.35,13.35,0,0,1,1.51,2.85c0,.27-.47-.16-1.26-1.08-.39-.47-.86-1.06-1.4-1.75l-1.93-2.29a66.47,66.47,0,0,0-8.11-8.07c-1.47-1.17-3-2.33-4.49-3.39s-3.06-2.08-4.61-2.93l-2.32-1.32-2.31-1.18c-1.56-.8-3.06-1.42-4.59-2.11-3-1.24-6-2.34-8.81-3.24l-2.12-.68-2.06-.61c-1.4-.42-2.68-.79-4-1.16l-4.49-1.23-4.59-1.06a116.89,116.89,0,0,0-18.51-2.36,140.15,140.15,0,0,0-18.05.35c-5.82.45-11.48,1.22-16.44,1.66-.62.06-1.22.12-1.79.14s-1.13.06-1.67.08c-.28,0-.53,0-.76,0s-.44,0-.6,0-.57-.09-.85-.19a4,4,0,0,1-2.7-2,4.07,4.07,0,0,1-.44-1.69,3.07,3.07,0,0,1-.07-.86,6.48,6.48,0,0,1,0-.88,10.3,10.3,0,0,1,.31-1.73c.07-.32.12-.48.26-1a14.57,14.57,0,0,1,.42-1.67,12.54,12.54,0,0,0-.38,1.39c-.09.52-.23.79-.26,1a13.93,13.93,0,0,0-.35,1.45,9.53,9.53,0,0,0-.15,1.5v.38l.05.36a1.68,1.68,0,0,1,0,.39c0,.13.05.25.07.37a3.87,3.87,0,0,0,1.51,2.55,6.18,6.18,0,0,0,.64.4c.25.08.46.22.71.28a6.25,6.25,0,0,0,.74.21l.37.09c.15,0,.26,0,.48,0,1.66,0,3.7-.06,5.84-.23l6.74-.58c4.66-.43,9.59-.78,14.6-.86a116.76,116.76,0,0,1,30.8,3.41c1.27.34,2.57.64,3.83,1l3.77,1.15c2.24.69,4.52,1.44,6.89,2.26A103.32,103.32,0,0,1,541,574.43a66.73,66.73,0,0,1,15.29,10.89,58.2,58.2,0,0,1,11.3,15.22c1,1.71,1.74,3.44,2.59,5.17s1.43,3.41,2.14,5.11,1.19,3.4,1.78,5.1,1,3.4,1.49,5.1a116.61,116.61,0,0,1,3.52,20.47c1.09,13.7.21,27.77-4.91,42.15-.33.89-.61,1.78-1,2.68L572,689c-.4.89-.79,1.78-1.22,2.67l-1.47,2.64-1.51,2.63-1.67,2.49c-.55.84-1.16,1.65-1.78,2.44s-1.22,1.62-1.9,2.39a64.55,64.55,0,0,1-8.85,8.63A60.2,60.2,0,0,1,543,719.66a62.39,62.39,0,0,1-24.17,6.46c-1,0-2.1.1-3.14.12l-3,0c-2-.08-4-.2-5.94-.43a90.32,90.32,0,0,1-11.29-2,131.82,131.82,0,0,1-17-5.46c-5.17-2-10.05-4.18-14.47-6.06-9-3.9-18-7.58-26.93-11.33s-17.93-7.4-27.07-11-18.41-7.42-28-11.15l-20-7.72-9.77-3.67-4.82-1.76-4.7-1.65-2.18-.71c-.69-.22-1.57-.53-1.95-.62l-.73-.22a8,8,0,0,0-.83-.23l-2.13-.44-2.14-.47-2.14-.33c-1.44-.22-2.86-.5-4.31-.6s-2.87-.33-4.32-.4l-4.35-.19c-1.45,0-2.92,0-4.38,0l-2.19,0-2.2.16a117.78,117.78,0,0,0-17.74,2.56l-4.46,1.13c-1.49.38-3,.7-4.47,1.22l-4.46,1.4c-.75.24-1.5.44-2.24.72l-2.22.84c-3,1.13-6,2.12-8.93,3.49s-6,2.49-8.9,4c-6,2.77-11.84,6-17.79,9.39-3.1,1.9-6.15,3.66-8.58,4.92a25.49,25.49,0,0,1-4.61,2.31c-.51.06.29-.74,2-2.07.43-.33.9-.71,1.43-1.09l1.77-1.19c1.27-.84,2.71-1.77,4.27-2.74a225,225,0,0,1,37.59-19.23A147.31,147.31,0,0,1,291,659.5a125,125,0,0,1,19.6-2.9,104.14,104.14,0,0,1,19.36.81c1.59.27,3.19.42,4.77.8l2.36.49c.38.09.83.16,1.16.25l.88.26.88.25,1.17.38,2.39.77,5,1.75c6.83,2.45,13.76,5.09,20.69,7.76s13.89,5.38,20.84,8.16c13.89,5.56,27.82,11.19,41.73,17l20.87,8.82,10.43,4.49,10.63,4.63a139.73,139.73,0,0,0,24.37,8.34,80.35,80.35,0,0,0,14.19,2c1.25,0,2.49.06,3.75.06s2.58-.07,3.87-.18a61.16,61.16,0,0,0,7.71-1.1,59.5,59.5,0,0,0,14.8-5.19,58.48,58.48,0,0,0,12.95-9,61.69,61.69,0,0,0,10-11.9c.71-1.07,1.32-2.23,2-3.35s1.32-2.25,1.81-3.4a68.39,68.39,0,0,0,2.9-6.93,89.23,89.23,0,0,0,4.9-23.83,114.16,114.16,0,0,0-.72-23.05c-.08.21-.17.41-.28.42-.46.06-1-1.33-1.74-3.65a109.13,109.13,0,0,1,1.09,25.77,86.52,86.52,0,0,1-6,26.3l-2,4.58c-.7,1.52-1.58,3-2.38,4.51s-1.79,2.88-2.7,4.31-2,2.77-3.12,4.09a60.41,60.41,0,0,1-7.34,7.41,59.43,59.43,0,0,1-8.69,6,57.82,57.82,0,0,1-20,6.73,64,64,0,0,1-10.46.57,76.89,76.89,0,0,1-10-1c-12.94-2.2-24-7-34.2-11.55l-30.31-13.49-40.68-18.21c-13.16-5.88-26.1-11.58-39.18-17.09-4.2-1.56-8.4-3.08-12.52-4.49-1.06-.37-2-.65-3-1l-1.5-.49-1.24-.34c-.43-.11-.78-.25-1.28-.35l-1.5-.3-3-.62a102.36,102.36,0,0,0-24.5-1.29c-2.06.2-4.13.34-6.19.57l-6.19.93c-4.1.85-8.23,1.66-12.31,2.87l-3.07.84c-1,.3-2,.68-3,1-2,.7-4.06,1.34-6.08,2.09-4,1.66-8.06,3.08-12,5a19.49,19.49,0,0,1-3.11,1.26c-.5.11.13-.29,1.4-.91A154.06,154.06,0,0,1,293,653.8c1.46-.32,2.92-.72,4.39-1l4.43-.74c.73-.12,1.47-.26,2.21-.36l2.23-.23,4.46-.45a115.91,115.91,0,0,1,17.87.26c-3.7-.78-5.94-1.58-5.6-2.12.16-.33,1-.52,2.37-.66.68-.07,1.51-.12,2.44-.15.47,0,1,0,1.5,0l1.65.1c-.69-.1-1.38-.24-2.07-.31l-2.09-.2c-1.39-.12-2.78-.31-4.18-.37-2.8-.08-5.59-.28-8.4-.14-1.73,0-3.29,0-4.4,0s-1.79-.08-1.75-.23.72-.37,1.84-.57a36.87,36.87,0,0,1,4.31-.29c2.89-.16,5.78.06,8.66.13,1.44.08,2.87.25,4.31.37l2.15.2,2.13.33c1.42.24,2.86.39,4.27.69l4.22.88c.71.14,1.3.35,2,.52l1,.27,1,.34c1.38.47,2.75.88,4.15,1.39,11.2,3.94,22.42,8.37,33.58,12.8q40.44,15.48,80.32,32.39c-3.48-2-6-3.77-7-4.94v0l-12.35-5.22q-28.55-11.28-57.56-22.25c-9.67-3.62-19.37-7.25-29.11-10.68l-3.66-1.28L348.69,651c-1.22-.42-2.43-.79-3.63-1.16l-1.8-.56-1.71-.46c-1.08-.33-2.36-.52-3.58-.77s-2.44-.51-3.68-.66c-2.48-.33-4.94-.75-7.44-.88a113.25,113.25,0,0,0-30,1.53,148.41,148.41,0,0,0-29.2,8.76l-3.55,1.47-1.78.74-1.74.83-7,3.33c-2.3,1.18-4.55,2.45-6.83,3.67l-3.41,1.85-3.33,2-6.66,4-6.5,4.34c-4.39,2.81-8.52,6-12.77,9.07a13.28,13.28,0,0,1-2.55,1.65,11.25,11.25,0,0,1,2.09-1.74l7.64-5.6c1.25-1,2.59-1.8,3.9-2.68l3.92-2.64,3.92-2.63,4-2.44,4-2.45,2-1.22,2.07-1.12a183.55,183.55,0,0,1,34-15.22l-.1,0c-1,.25-1.19.18-.18-.27a22.06,22.06,0,0,1,3.71-1.11c1.13-.22,1.07-.06.2.28a126.38,126.38,0,0,1,33.69-5.37,108.55,108.55,0,0,1,16.91,1.14c.69.11,1.4.18,2.09.31l2.08.4,2.08.39c.34.07.7.13,1,.21l1,.26c.65.18,1.26.31,1.94.52l2,.64c1.36.4,2.73.86,4.1,1.33,11,3.68,21.93,7.78,32.83,11.83s21.72,8.23,32.52,12.39c-19.92-8.07-39.91-16-60-23.4-2.51-.93-5-1.77-7.55-2.65l-3.75-1.21c-.62-.19-1.21-.34-1.82-.51a17.24,17.24,0,0,0-1.85-.46l-3.85-.78c-1.28-.29-2.58-.41-3.87-.62-2.58-.45-5.19-.62-7.8-.87a115,115,0,0,0-31.32,2.17l-3.34.87c-1.11.3-2.23.54-3.32.93L280,650.65a28.21,28.21,0,0,1-3.31,1c-.37,0,.46-.41,1.69-.87s2.45-.82,3.68-1.24c-7.68,2.25-13.63,4.1-13.74,3.49.08-.39,1.66-1.43,4.29-2.55,1.31-.58,2.86-1.22,4.59-1.9l1.32-.52,1.41-.44,3-.89a126.21,126.21,0,0,1,33.4-5.44c1.41-.06,2.82,0,4.24,0s2.83,0,4.24.15l4.22.33c1.42.08,2.81.35,4.21.52,2.82.32,5.58.94,8.36,1.46,2.76.69,5.45,1.54,8.13,2.43,2.33.75,4.66,1.48,7,2.27s4.71,1.43,7.05,2.16q-3.07-1.17-6.17-2.3c-2.06-.76-4.12-1.51-6.2-2.23s-4.17-1.42-6.27-2.1c-1.06-.33-2.16-.61-3.23-.91l-3.25-.67a109.73,109.73,0,0,0-26.39-2A131.68,131.68,0,0,0,286,644.31l-6.35,1.83-1.59.46-1.56.54-3.11,1.1c-4.18,1.37-8.19,3.19-12.24,4.87-1.4.57-2.64,1.21-3.59,1.59a4.38,4.38,0,0,1-1.66.51c-.15-.14,1.91-1.49,4.68-2.75l5.31-2.4,2.66-1.21c.9-.37,1.82-.7,2.73-1.06l5.47-2.1c1.83-.7,3.72-1.22,5.58-1.83,3.71-1.29,7.56-2.13,11.38-3.11,1.93-.44,3.88-.74,5.82-1.12,1-.17,1.94-.37,2.92-.52l2.95-.36c3.93-.57,7.91-.76,11.89-1l6,0c2,.06,4,.23,6,.34a119.57,119.57,0,0,1,11.91,1.63,31,31,0,0,1,3,.67c.51.13,1,.25,1.53.39l1.43.42,2.87.86,2.8.9c14.89,4.86,29.47,10.24,44.07,15.74s29.12,11.19,43.61,17C450.3,679.1,460,682.5,469.8,686c4.88,1.73,9.84,3.56,14.56,5.18a145.19,145.19,0,0,0,14.05,4.12c-2.26-.73-4.56-1.54-6.89-2.4-3.71-1.39-7.43-2.94-11.18-4.54l-11.46-4.82q-11.42-4.71-22.61-9c-14.95-5.76-29.64-11.17-44.36-16.35s-29.37-10.24-44.48-15c-3.79-1.2-7.61-2.37-11.61-3.46l-3.24-.77-3.08-.51c-1-.16-2.05-.35-3.08-.49l-3.12-.35a121.14,121.14,0,0,0-25.26-.08,13.42,13.42,0,0,1-3.35.16c-.19-.1.94-.36,2.67-.55a121.86,121.86,0,0,1,24.66-.27l3,.32c1,.11,2,.21,3,.39l3,.49,1.5.24c.51.09,1.05.23,1.58.35,4.25,1,7.8,2.12,11.58,3.25,14.79,4.6,29.29,9.52,44.33,14.89,12.46,4.42,24.56,8.87,36.43,13.29s23.52,8.8,35,13.2c-11.6-4.89-23.15-9.51-34.68-14s-23-8.77-34.59-12.94-23.1-8.29-34.82-12.22c-5.86-2-11.74-3.9-17.88-5.72-1.57-.45-3.06-.91-4.9-1.32l-1.31-.32c-.45-.1-.83-.14-1.24-.22l-2.44-.41-2.44-.41-2.46-.29c-1.64-.17-3.27-.43-4.93-.52-2.3-.1-4.62-.34-6.08-.55a5,5,0,0,1-1.31.17l-5,.19c-1.71.11-3.44.31-5.2.46l-2.64.23-2.65.39c-1.77.27-3.57.5-5.35.8a22.17,22.17,0,0,1-3.83.54C297,637.1,297.82,636.83,299.34,636.48ZM409.56,470.1l-.26-.05L410,470l1.47.53Zm-4,10h0l-.86-.25Zm55.06,82c-1.55.12-3.11.25-4.5.3a14,14,0,0,1-3.5-.12,6.35,6.35,0,0,1-2.18-.87,3.93,3.93,0,0,1-1.47-1.8,8.3,8.3,0,0,1-.22-4.63c.07-.39.18-.76.28-1.14a4.69,4.69,0,0,1,.17-.6c.08-.27.16-.65.23-1,.18-.67.41-1.33.6-2l.74-2a36.8,36.8,0,0,1,4.1-7.5,18.39,18.39,0,0,1,5.49-5.38,12.15,12.15,0,0,1,7.1-1.45c2.79.15,6,.93,10,1.2-3.89-.22-7-.94-9.78-1.08a12.18,12.18,0,0,0-6.92,1.31,14.16,14.16,0,0,0-2.18,1.6l-1,.93-1,1.1a32.35,32.35,0,0,0-3.56,5.24,36.64,36.64,0,0,0-2.62,5.88,28.57,28.57,0,0,0-.87,3c-.14.41-.18.62-.26.91a8.41,8.41,0,0,0-.21.83,9.63,9.63,0,0,0-.18,3.43,4.27,4.27,0,0,0,1.69,2.94,5.31,5.31,0,0,0,1.57.76,8,8,0,0,0,.84.23,4.79,4.79,0,0,0,.48.08l.68,0C456,562.43,458.28,562.31,460.65,562.14Zm-59.76-91.53a12.51,12.51,0,0,1,3.47.32,5.34,5.34,0,0,1,1.32-1.32,37.85,37.85,0,0,1,4.33-2.69c-.47-.24-.11-.43,0-.59l.43-.46-5,2.4C404,469,402.45,470,400.89,470.61Zm-7.63,9.73H393l-.33-.73Zm.59,1.2.25-.11C394.25,481.68,394.12,481.67,393.85,481.54Zm2.29-1a1.77,1.77,0,0,0-.53,0Zm17.08,13.61-2.2-3.08,2.05,3Z"/><path d="M593.74,40.59l-.42.33a.85.85,0,0,1-.05-.94c-3.32,3.5-2,8.5,1.11,11.58a2,2,0,0,0,2,2.2,2.3,2.3,0,0,0,2.49-1.83,2.68,2.68,0,0,1,.47-.7,15.75,15.75,0,0,0,2.54-2.56,22.3,22.3,0,0,0,2-2.91l-1.21,1.18a4.75,4.75,0,0,0,.81-1.83l-.71.21a4.1,4.1,0,0,0-.73-6.38,5.76,5.76,0,0,0-7.43.74Z"/><path d="M586.2,44.37c.91-1.31,1.87-2.54,2.86-3.76l.45-.23h-1.93l.12,0c1.53,1.27,2,3.24,2.36,5l.23.65a1.57,1.57,0,0,0,1,.59,1.75,1.75,0,0,0,2-1.18l.25-.94c1.28-2.27,1.62-5.83-1.56-7.34a6.33,6.33,0,0,0-2.59-.14,2.27,2.27,0,0,0-2.62,1.83,2.16,2.16,0,0,0,2,2.39l-.31.59-.42-.5c1.08.39,1.25,1.47,1.78,2.28l.23,1.2,3-.57-.35-.62c-.13,0-.32.12-.33.11a18,18,0,0,1-1.88-3.64l-1-1.69a1.54,1.54,0,0,0-1.94,0l-.69.7.4-.31c-.78,1.64-1.3,3.41-2.12,5.06a.51.51,0,0,0,.23.73A.61.61,0,0,0,586.2,44.37Z"/><path d="M586.2,38.39a1.18,1.18,0,0,0,.48-.9l-.23-.18-.55.5C585.51,38.17,585.78,38.39,586.2,38.39Z"/><path d="M586.45,37.31l.23-.21-.29.13,0,0Z"/><path d="M637.35,205.92c1.48,2.27,3,4.5,4.56,6.75l2.29,3.38c.79,1.12,1.63,2.19,2.44,3.29l4.93,6.57,5.22,6.38,2.61,3.18,2.75,3.08,5.53,6.16,5.78,5.93c1,1,1.91,2,2.9,3l3,2.86c.54.51,1,.87,1.16.79s-.24-.53-.75-1l-3-2.85c-1-1-1.94-2-2.9-3l-5.76-5.93c-1.86-2-3.67-4.1-5.5-6.14l-2.74-3.07-2.61-3.17-5.19-6.35-4.9-6.55L644.75,216l-2.29-3.38-4.55-6.73c-.39-.62-.8-1.06-1-1.07S637,205.34,637.35,205.92Z"/><path d="M757.09,321.47c-.53-.16-.56-.06-.07.25a8.17,8.17,0,0,0,1.71.81c.44.14.48,0,.07-.25A8.75,8.75,0,0,0,757.09,321.47Z"/><path d="M749.14,326.6c-3.06-1.22-5.9-2.52-8.54-3.48a9.86,9.86,0,0,1-1.38-.69c.1.24-.54.1-1.64-.36a308.44,308.44,0,0,1-32.41-16.42l-4-2.33-4-2.47c-2.64-1.67-5.32-3.3-8-5-5.19-3.53-10.47-7-15.5-10.76a2.54,2.54,0,0,1-1.13-.3,30,30,0,0,1-7.35-5l-2-1.86a328.68,328.68,0,0,1-23.77-23.14c-1.74-1.46-3.64-3.28-5.63-5.33-1.74-1.64-3.56-3.24-5.25-5l-5.1-5.17c-3.47-3.41-6.66-7.13-10-10.85.26.58.34,1,.18,1.11-.5.14-2.26-1.43-3.88-3.58l-2.43-3.26c1.12,1.59,2.16,3.24,3.34,4.79s2.33,3.13,3.49,4.69q.51.66.9,1.26c.66.84,1.33,1.67,2,2.51s1.35,1.68,2.07,2.48l4.31,4.89a292.11,292.11,0,0,0,40.91,37.5A346.94,346.94,0,0,0,709,309.43a8.36,8.36,0,0,1,1.65,1.07c.24.26.12.33-.45,0l-7.32-3.62-3.62-1.77-3.54-1.86-7.08-3.7c-2.36-1.25-4.66-2.61-7-3.93a247.3,247.3,0,0,1-29.05-19.14l-8.93-7.1c-2.91-2.45-5.77-5-8.67-7.45l-2.16-1.88-2.09-1.95-4.2-3.93c-1.38-1.32-2.82-2.6-4.17-4l-4.05-4.12-4-4.15c-1.37-1.37-2.62-2.86-3.94-4.29s-2.6-2.91-3.91-4.36-2.62-2.92-3.84-4.45l-7.48-9.18-7.14-9.59a404.93,404.93,0,0,1-24.52-42.66,314.65,314.65,0,0,1-18.91-46.71c-.49-1.4-.88-2.82-1.28-4.24s-.8-2.85-1.2-4.26-.79-2.85-1.18-4.26-.81-2.84-1.11-4.27c-.64-2.88-1.29-5.74-1.93-8.6-.32-1.43-.63-2.86-.95-4.3l-.75-4.33-.37-2.16-.18-1.08-.07-.31-.24-1-.46-2.11c-.28-1.4-.63-2.79-.81-4.21q-.63-4.23-1.15-8.49l-.51-4.27c-.17-1.43-.22-2.88-.32-4.33-.73-4.35,1.71-8.34,5.41-8.85A6.78,6.78,0,0,1,543.34,52c0-.34,0-.68,0-1l.39-1.61a6.21,6.21,0,0,1,1-2.07,5.87,5.87,0,0,1,1.66-1.52l1.59-1.08c3-1.4,5.59-3.67,8.77-4.7l1.17.32.36-.26a5.69,5.69,0,0,1,3.27-1.57l1.43.16a14.6,14.6,0,0,1,4.59,1.57,4.89,4.89,0,0,1,1.75.32,7.08,7.08,0,0,1,4.73-.18,1,1,0,0,1,1.41.19.94.94,0,0,1,.19.5h0c.38-.18.5-.23.93-.47a4.84,4.84,0,0,1,.25-.53c.3-.91.3-.91.59-1.69a4.45,4.45,0,0,1,1.27-1c2.61-.6,2.62-.59,3.72-.4l.31.16a7.89,7.89,0,0,1,.56-.76,2.74,2.74,0,0,1,.44-.25c.6,0,.6,0,.83-.07a2.88,2.88,0,0,1,.45,0c.64.38.64.37.83.4a2.1,2.1,0,0,1,.32.2l.27.62-1.6.73.52.21-.72.15.66-.07-.43.39.61-.44a3.32,3.32,0,0,0-.31,1.36,1.56,1.56,0,0,0,0,.81,1.82,1.82,0,0,1,.35,0c-.32,1-.32,1-.66,2a3.61,3.61,0,0,1-.44.22.43.43,0,0,1,.19.51l-.15.53.09.12h.05c.11.19.18.32.27.46s.07.1.07.1h0l1.18,2a5.41,5.41,0,0,1-.37.88L586,47c.22-.16.77,0,.83-.09A33.44,33.44,0,0,0,589.71,40a.82.82,0,0,1,.8-.84.83.83,0,0,1,.91.73A13.21,13.21,0,0,1,593,47.59a19.68,19.68,0,0,1-2.15,7.78c-.32,1.3-.61,2.61-.87,3.92l.28-.19c-.15.34-.31.69-.44,1a.43.43,0,0,0,0,.11c.32-.27.68-.54,1-.8.11-.18.21-.36.31-.54.5-3,2.15-5.79,3.25-8.65a12.5,12.5,0,0,1,1.13-2.18c.47-.7,1-1.38,1.39-2.08a.79.79,0,0,1,.9-.56.64.64,0,0,1,.58.76,26.16,26.16,0,0,1-.5,7.4,16.26,16.26,0,0,1-3.47,6.83,3.92,3.92,0,0,1-.86,2.51v0l.83-.59c-.2.68-.88,1.07-1.16,1.7l1.14-.29c-.32,1.67-.37,3.39-.55,5.1a19.47,19.47,0,0,1-.4,2.54,11.68,11.68,0,0,1-.72,2.48c0,.12,0,.24-.08.36a17.91,17.91,0,0,1,1.24,1.92,4.59,4.59,0,0,1,.24.5.77.77,0,0,1,.06.15l.09.55c0,.36.1.73.16,1.1.2,1.49.38,3,.52,4.62,0-2.15-.07-4.25-.1-6.4a2,2,0,0,1,.07.34l.08.43.14.86.28,1.72c.19,1.14.32,2.3.52,3.46.42,2.32.78,4.69,1.05,7.17,1.57,13.37,3.33,28.65,2.89,36.52A281.47,281.47,0,0,0,614.18,165a269.46,269.46,0,0,0,20,35.24,5.74,5.74,0,0,1,1.22,2.68c-.13.28-.85-.35-1.65-1.5A252.29,252.29,0,0,1,618,176.59c-1.19-2.16-2.28-4.37-3.42-6.55l-1.7-3.29-.85-1.65-.77-1.68c-2-4.51-4.23-8.94-6-13.56a243.85,243.85,0,0,0,21.24,45.61l1.73,2.78,1.85,2.72c1.23,1.79,2.34,3.63,3.43,5.5,1.45,2.32,3.12,4.46,4.67,6.68l2.36,3.29c.78,1.1,1.57,2.2,2.42,3.24,3.34,4.23,6.57,8.52,10.17,12.53a253.51,253.51,0,0,0,22.92,23.54l5.35,4.68,2.63,2.29,2.69,2.17c3.57,2.88,7,5.76,10.7,8.4l5.42,4c1.84,1.31,3.73,2.58,5.61,3.89s3.76,2.64,5.73,3.91l6,3.82c1.43.89,2.81,1.83,4.25,2.68l4.29,2.53c2.85,1.68,5.65,3.39,8.53,4.92s5.68,3.16,8.54,4.67l8.59,4.41c11.53,5.72,23.24,11,35.63,16.14,3.34,1.24,6.3,2.75,6.55,3.33s-2.3,0-5.67-1.21c-26.28-9.79-51.49-21.88-75-37.24a322.66,322.66,0,0,1-33.9-25.3,276.12,276.12,0,0,1-30.34-30.54l-3-3.56c-1-1.19-1.93-2.44-2.89-3.64-1.89-2.45-3.82-4.84-5.64-7.28a.56.56,0,0,1-.13.29c-.29.23-.89,0-1.7-.65,1,1.44,2.06,2.82,3.13,4.2l3.2,4.18c1.09,1.39,2.1,2.84,3.24,4.18l3.38,4.1c6.65,7.24,13.83,14,21.14,20.84,1.84,1.69,3.76,3.32,5.64,5s3.73,3.43,5.72,5c3.94,3.27,7.8,6.73,12,10,11.2,9.14,21.63,17.23,32.89,24.7a395.5,395.5,0,0,0,46,22.83,6,6,0,0,1,1.47.77c.19.19-.19.13-.83-.13C764.15,320,753,315,742,309.56c1.57,1.19,2.4,2.09,2,2.43s-1.9,0-4.07-.81c2.46,1.35,5,2.62,7.45,3.95,1.54.81,2.67,1.61,2.53,1.79s-1.46-.27-2.93-1c-10.26-5.19-20.11-11.09-29.8-17.21a337.38,337.38,0,0,1-33.81-23.58,11.63,11.63,0,0,1,2.28,3.55h0c1.67,1.35,3.42,2.58,5.11,3.88a425.79,425.79,0,0,0,50.58,30.62A464.36,464.36,0,0,0,796.42,337c.75.27,1.34.56,1.32.66s-.62,0-1.28-.29c-11.48-4.07-22.72-8.65-33.79-13.5l.05,0c.42.25.45.39-.07.25a8.62,8.62,0,0,1-1.71-.81c-.48-.3-.39-.38,0-.25a434.75,434.75,0,0,1-58.68-32.18c8.4,5.92,17.17,11.29,26,16.55l6.72,3.76c2.25,1.25,4.47,2.55,6.76,3.7,4.57,2.36,9.08,4.81,13.74,7l6.26,2.54a7.08,7.08,0,0,1,1.47.8c.13.15-.33.06-.92-.17l-1.75-.71c3.51,1.68,6.12,3.2,5.85,3.68-.21.2-1.12.07-2.45-.32a30.72,30.72,0,0,1-4.91-1.9c-5-2.26-9.91-4.47-14.73-7-2.42-1.23-4.87-2.39-7.25-3.69l-7.14-3.9c-1-.54-2.1-1.06-3.13-1.62L723.64,308a385.3,385.3,0,0,0,44.83,23.23c1.33.56,2.4,1.17,2.36,1.36s-1.17-.13-2.51-.69a360,360,0,0,1-79.21-42.37l-6.46-3.86c-2.15-1.31-4.24-2.71-6.38-4.07s-4.3-2.72-6.4-4.17l-6.33-4.4,3,2.56a264.55,264.55,0,0,0,38.78,26.81c3.32,1.85,6.57,3.78,9.92,5.55l10.08,5.3,10.34,5.12,10.64,5a3.81,3.81,0,0,1,1.33.84c0,.12-.5,0-1.22-.39-14.15-6.45-27-12.68-40.44-20.47-1.39-.81-2.8-1.58-4.16-2.4l-4-2.5c-2.67-1.68-5.37-3.25-8-5l-7.7-5.07-1.92-1.25L678.3,286l-3.73-2.59,3.66,2.8,1.82,1.38,1.88,1.32,7.48,5.19c2.48,1.73,5.07,3.28,7.6,4.91s5,3.23,7.67,4.7l7.75,4.52c2.62,1.45,5.26,2.85,7.89,4.28l3.95,2.14,4,2,8.07,4.07a16.5,16.5,0,0,1,2.45,1.33,1.56,1.56,0,0,1,.6.14c2.83,1.08,5.85,2.4,9,3.7a6.27,6.27,0,0,1,1.58.84C750.21,326.92,749.81,326.85,749.14,326.6ZM579.1,54.68l.21-.14L579,55l-1.39.71ZM574.05,46h0l.82-.38ZM610.14,165.4a194.57,194.57,0,0,1-11.58-33.59c1,2.71,1.91,5.4,2.87,8.09.3,1.07.59,2.16.91,3.22l1.06,3.18q1,3.19,2.09,6.39c.65,2.16,1.52,4.23,2.29,6.35S609.35,163.28,610.14,165.4ZM584.45,49a12.93,12.93,0,0,1-2.58,1.9,3.94,3.94,0,0,1,.17,1.57,36.92,36.92,0,0,1-.58,4.22c.49-.19.43.14.49.31l.11.52c.37-1.48.77-3,1.2-4.45A30.3,30.3,0,0,1,584.45,49Zm-1.31-10.23a1.86,1.86,0,0,0,.19-.11l.74.31Zm-1.24-.5-.12.2C581.51,38.36,581.61,38.3,581.9,38.25Zm-1.06,1.88a2,2,0,0,0,.42-.25Zm-22.1.42,3.71,1-3.56-1Z"/><path d="M602.49,237.48l-.49-.25a.94.94,0,0,1,.92-.41c-4.83-1.77-9.21,1.55-11.37,5.35a2.07,2.07,0,0,0-1.6,2.58,2.4,2.4,0,0,0,2.75,1.67,3.59,3.59,0,0,1,.9.19,19.85,19.85,0,0,0,7.37,2.21l-1.68-.65a5.92,5.92,0,0,0,2.22,0l-.48-.57a4.87,4.87,0,0,0,6.39-3.13,5.49,5.49,0,0,0-3.67-6.56Z"/><path d="M595.86,232c1.62.32,3.21.74,4.81,1.19l.39.33-.73-1.78,0,.12c-.68,1.88-2.45,3.11-4.13,4.11l-.56.46a1.53,1.53,0,0,0-.24,1.14,1.75,1.75,0,0,0,1.93,1.41l1-.14c2.77.29,6.56-.73,6.82-4.23a5.9,5.9,0,0,0-.89-2.44,2.4,2.4,0,0,0-2.84-1.72,2.18,2.18,0,0,0-1.61,2.74l-.7-.06.33-.58c0,1.15-1,1.72-1.6,2.52l-1.11.67,1.69,2.56.5-.56-.25-.26a19.54,19.54,0,0,1,3-3.13l1.3-1.53a1.43,1.43,0,0,0-.73-1.79l-1-.38.46.26c-1.93-.11-3.87.08-5.8,0a.58.58,0,0,0-.64.5A.6.6,0,0,0,595.86,232Z"/><path d="M601.76,229.71a1.32,1.32,0,0,0,1.08.1c0-.16.07-.24.09-.28l-.72-.31C601.7,229,601.6,229.32,601.76,229.71Z"/><path d="M602.93,229.53l.29.14-.24-.22,0,0Z"/><path d="M482.72,281.56c-12.66,5.5-25.18,11.53-37.49,17.95-.42.22-.72.48-.67.59s.4,0,.78-.18c12.34-6.39,24.79-12.36,37.46-17.85.42-.2.72-.45.71-.59S483.12,281.38,482.72,281.56Z"/><path d="M386.57,323.66c.23-.24.16-.32-.16-.18a3.32,3.32,0,0,0-1,.66c-.2.21-.12.3.16.18A3.56,3.56,0,0,0,386.57,323.66Z"/><path d="M384.68,315.69c1.51-1.29,2.95-2.52,4.17-3.71a3.33,3.33,0,0,1,.76-.54c-.19-.06,0-.41.58-.88,10.68-9.34,22.87-18.49,35-27.42a1.36,1.36,0,0,1,.3-.72,13.36,13.36,0,0,1,4.09-3.45l1.43-.78c5.68-3.36,11.36-6.69,17.11-9.83a32.66,32.66,0,0,1,3.7-2.79c4.54-3.5,9.11-7,13.92-10.38-.39.05-.67,0-.76-.17-.12-.46.87-1.46,2.24-2.26l2-1.24-6.07,3.19a6,6,0,0,1-.82.39c-2.16,1.26-4.32,2.6-6.5,4-19,12.1-35.73,25.19-51.91,38.46a3.23,3.23,0,0,1-1,.64c-.22,0-.25-.08,0-.34,9.74-9.08,17.74-17.79,29.5-27.31,14-11.27,28.23-22.11,43.51-32.66,8.28-5,16.2-9.84,24.2-14.79s16.05-9.94,24.63-15c5.81-3.38,11.59-6.65,17.39-9.75l1.08-.58.55-.3.23-.13.85-.51,1.72-1,3.46-1.92c4.61-2.52,9.28-4.84,14.07-7.13,3.43-2.15,7.66-1.2,9.4,2a6.87,6.87,0,0,1,0,6.3l.9-.34,1.54-.18a5.73,5.73,0,0,1,4.07,1.14l1.51,1.07c2.31,2.26,5.26,3.77,7.38,6.32l.16,1.2.37.23a5.73,5.73,0,0,1,2.65,2.43l.4,1.38a14.24,14.24,0,0,1,.31,4.81,5.35,5.35,0,0,1,.36,1.74,7.11,7.11,0,0,1,2,4.29,1,1,0,0,1,.35,1.37,1,1,0,0,1-.41.37h0a9.76,9.76,0,0,0,.79.68l.61,0c1-.06,1-.06,1.84-.09a4.85,4.85,0,0,1,1.48.79c1.6,2.18,1.6,2.19,1.85,3.27,0,.12,0,.23,0,.35a8.78,8.78,0,0,1,1,.23,2.44,2.44,0,0,1,.42.31c.22.56.22.56.4.73a2.51,2.51,0,0,1,.17.42c-.11.73-.11.73-.05.92a1.78,1.78,0,0,1-.08.36l-.5.49-1.35-1.2v.56l-.43-.61.33.58-.55-.24.67.38a3.86,3.86,0,0,0-1.46.24,1.65,1.65,0,0,0-.78.34,2.72,2.72,0,0,1,.15.31c-1.14.1-1.14.1-2.26.17a4.49,4.49,0,0,1-.39-.33.47.47,0,0,1-.42.38l-.58.07-.08.12v.05l-.35.43-.07.1h0c-.24.3-.59.73-1.53,1.86a6.69,6.69,0,0,1-1,0,2.42,2.42,0,0,1,.36.18c.24.14.28.71.39.73a39.55,39.55,0,0,0,7.92,0,.89.89,0,0,1,1.15.41.81.81,0,0,1-.37,1.12c-3.89,4.35-10,5.75-15.87,5.15-1.42.16-2.84.37-4.25.59l.29.19-1.18-.05-.12,0,1.14.67c.21,0,.43.07.64.09,3.23-.63,6.59,0,9.92,0a40.79,40.79,0,0,1,5.27.76.81.81,0,0,1,.91.61.69.69,0,0,1-.58.83c-4.81,2.14-10.79,3.25-16,1.38a4.77,4.77,0,0,1-2.87,0h0l.86.59c-.76,0-1.37-.48-2.1-.54l.64,1c-3.65.45-7.19,2-10.92,1.58-.13,0-.27,0-.4,0a21.93,21.93,0,0,1-1.66,1.68l-.46.38-.13.09-.33.16-.66.31c-.89.41-1.82.8-2.8,1.17l4.08-1.05a56,56,0,0,1-8.47,3.73c-8.35,2.85-18.25,4.86-23.69,4.24-15.84,6.65-31.56,13.75-46.86,21.54a2.67,2.67,0,0,1-1.87.41c-.2-.18.21-.65,1-1.06,10.73-6.08,21.94-11.68,33.29-17-9.87,3.65-19.7,7.58-29.49,12.11l-3.68,1.88a38.86,38.86,0,0,1-3.74,1.64c-12.4,6-24.09,11.89-36.16,19.11-10.3,6.17-19.18,11.78-29.15,18.39-14,9.3-26.52,18-40.43,27.13-1.81,1.27-3.7,2.15-4.17,1.95s.62-1.4,2.43-2.69c14-10.19,28.1-20.07,42.67-29.57q10.94-7.09,22.31-13.86c7.62-4.46,15.42-8.81,23.5-12.94q5.22-2.65,10.36-5.18a.49.49,0,0,1-.21-.19c-.17-.31,0-.75.41-1.27l-11.86,5.68C451.38,291,441,297.47,429.51,303.74c-7.88,4.28-15.16,8-22.52,11.91-8.75,5.86-17.34,11.89-26,18a2.35,2.35,0,0,1-.91.48c-.17,0,0-.18.3-.45,5.75-4.53,11.73-9.07,17.86-13.51-1.17.4-2,.46-2.15.06s.37-1.27,1.39-2.29l-4.32,2.83c-.9.57-1.69.9-1.79.7s.49-.82,1.34-1.38c5.85-3.88,11.73-7.71,17.68-11.43,6.95-4.74,14-9.36,21.09-13.87a5.48,5.48,0,0,1-2.74.21h0c-1.12.68-2.22,1.38-3.32,2.08-19.56,13.71-39.54,27.66-59.59,41.93-.39.29-.75.46-.81.39s.19-.34.55-.59L383.65,326h0c-.27.13-.38.07-.16-.18a3.68,3.68,0,0,1,1-.66c.32-.14.36,0,.17.17L418,301.76c-10.55,6.78-21,13.71-31.41,20.67l-3.17,2.63a2.65,2.65,0,0,1-.91.49c-.14,0,0-.25.34-.49l.89-.73c-2,1.33-3.7,2.05-4,1.62s1.24-2,3.27-3.41q8-5.82,16.18-11.39l1.72-1.27,1.64-1.43q-13,8.28-25.58,16.93c-.71.51-1.4.83-1.51.7s.36-.67,1.07-1.19c14.09-11.14,28.77-21.95,43.93-32.2l6.86-6.1q3.44-3.07,7-6.14l-2,1.22a272.06,272.06,0,0,0-23,16.68c-7.18,5.7-14.22,11.42-21.93,17.18a1.5,1.5,0,0,1-.85.42c-.09,0,.12-.31.51-.6,7.48-5.7,14.07-11.27,21.47-17,6.14-4.75,12-9.25,17.7-13.76-12.23,8.27-23.31,17.12-34.91,25.93a6,6,0,0,1-1.43.9c0,.06-.07.18-.21.31-1.33,1.28-2.85,2.57-4.4,3.89a2.43,2.43,0,0,1-.93.56C384.22,316.2,384.36,316,384.68,315.69Zm198.55-86.57.21.14-.6-.16-1.16-1Zm6.65-7.73h0l.65.61Zm-80.83,43.89a177.65,177.65,0,0,1,21.11-7.89l-4.95,2.26Zm81.64-33.17a13.28,13.28,0,0,1-2.79-1.74,4.21,4.21,0,0,1-1.48.7c-1.45.39-2.9.68-4.35.92.35.39,0,.45-.14.56l-.47.29c1.56-.19,3.15-.32,4.78-.43A33.38,33.38,0,0,1,590.69,232.11Zm9.52-5.08.19.13,0,.8Zm0-1.33-.24,0C600,225.38,600.06,225.45,600.22,225.7Zm-2.24-.27a1.75,1.75,0,0,0,.41.29Zm-8.75-20.21.5,3.79-.39-3.68Z"/></svg>