<svg id="Layer_1" data-name="Layer 1" xmlns="http://www.w3.org/2000/svg" viewBox="0 0 1080 734.54"><path d="M318.54,553.33c.15.22.31.45.45.67a3,3,0,0,1-1.52-.77,25.21,25.21,0,0,0,4.26,4.07,38.33,38.33,0,0,0,4.89,3,34.48,34.48,0,0,0,5,2.16,42.2,42.2,0,0,0,4.64,1.52c1.69,1.29,3.48,2,4,1.36s-.4-2.44-2.11-3.92a11.92,11.92,0,0,1-1-1.18,44.53,44.53,0,0,0-3.49-5c-1.34-1.64-2.81-3.4-4.43-5.16l1.74,2.45a23.19,23.19,0,0,0-2.95-2.91c.06.25.13.57.19.83a23,23,0,0,0-5.5-5,8.93,8.93,0,0,0-5.52-1.62c-3.07.47-3,4.31,0,7.92Z"/><path d="M323,563.15c-1.81-1.74-3.53-3.6-5.26-5.52l-.28-.59-.38,1.75.08-.08a8.65,8.65,0,0,1,4,.47,30,30,0,0,1,4.43,1.72l1.07.42a1.23,1.23,0,0,0,1.18-.21c.49-.54-.13-1.77-1.39-2.78-.49-.39-1-.74-1.46-1.1a30.67,30.67,0,0,0-2.9-2.42,21.06,21.06,0,0,0-3.32-2.12c-2.25-1.08-4.43-1.61-5.89-.67-.66.44-.49,1.59-.62,2.47-.47,1.13.64,2.91,2.44,4s3.63,1,4.1,0l.87.77-.86,0c.82-.65,2.55.13,3.95.36l1.94.84-.23-3-1.08-.29c0,.15.13.39.12.39-2.07-.43-4-.91-6.2-1.56l-2.83-.46c-.84.13-1,.95-.37,1.83l1,1.18-.41-.61c1.21,1,2.47,1.87,3.73,2.87s2.49,1.91,3.67,2.87a1.29,1.29,0,0,0,1.17.37C323.42,563.85,323.35,563.48,323,563.15Z"/><path d="M313.73,558.6a3.57,3.57,0,0,0-1.32-1.12l-.32.08.69.9C313.28,559.11,313.65,559,313.73,558.6Z"/><path d="M312.09,557.56l-.29-.38c.05.13.11.26.16.38l.07,0Z"/><path d="M444.11,606.26c-.8-2.83-1.7-5.74-2.75-8.75-.26-.75-.52-1.5-.81-2.26l-.9-2.44c-.63-1.73-1.29-3.41-2-5.08-2.71-6.7-5.73-12.9-9-19.35l-5.19-10.22-1.42-2.8-1.45-3-1.5-3.09-.79-1.66-.91-2c-1.12-2.51-2.1-4.88-3-7.24s-1.8-4.7-2.62-7.05c-1.65-4.68-3.12-9.38-4.45-14.11C407,516,406.5,515,406.22,515s-.18,1.06.16,2.23c1.32,4.76,2.79,9.47,4.44,14.18s3.41,9.35,5.6,14.32l.89,2,.83,1.75,1.5,3.11,1.45,3c.48,1,1,1.9,1.42,2.81l5.19,10.2c3.25,6.41,6.24,12.54,9,19.17,1.33,3.24,2.7,6.93,3.71,9.73q1.58,4.47,2.78,8.65c.26.76.6,1.34.85,1.42S444.32,607,444.11,606.26Z"/><path d="M456.93,361.38c-.4.73-.23.82.4.22a10.74,10.74,0,0,0,1.77-2.24c.34-.61.15-.72-.39-.22A11.06,11.06,0,0,0,456.93,361.38Z"/><path d="M464.56,375.62a87.29,87.29,0,0,0-5.14,11.47,8.94,8.94,0,0,1-.9,1.86c.4-.07.3.84-.25,2.34-1.43,3.65-2.48,7.45-3.67,11.18-.51,1.89-.94,3.81-1.43,5.69-.23.95-.5,1.89-.71,2.84l-.53,2.88c-.34,1.92-.76,3.82-1.05,5.74s-.59,3.83-.74,5.77l-.29,2.9c-.1,1-.13,1.94-.2,2.91-.16,1.93-.21,3.88-.27,5.83a167.17,167.17,0,0,0,5.75,46.59,2.88,2.88,0,0,1,1.24,1.11c1.5,1.91,2.95,6,4,10.36l.67,3.33a167.84,167.84,0,0,0,6.09,19.48c.59,1.52,1.21,3.06,1.79,4.39l.46,1.05.56,1.23,1.16,2.51c1.6,3.39,3.27,7,4.92,10.83a64.11,64.11,0,0,1,5.66,10.45,172,172,0,0,1,8.95,20.76c.61,1.78,1.23,3.56,1.81,5.35l.85,2.69c.28.9.56,1.78.83,2.78a111.57,111.57,0,0,1,2.79,12c.13-1.11.36-1.81.7-1.86.86.14,2,4,2.18,8.71.13,2.38.19,4.79.14,7.22a117.24,117.24,0,0,0-.84-20.47c-.14-.95-.24-1.83-.31-2.63-.32-1.79-.68-3.56-1.06-5.31s-.75-3.26-1.12-4.9l-1.26-5q-.7-2.47-1.42-5A166.87,166.87,0,0,0,486,541.61c-3.08-6.7-6.47-12.9-9.49-18.14l-2.1-3.67c-.53-.91-1.14-2-1.72-3.18-1.18-2.29-2.35-4.72-3.45-7.19-2.23-4.93-4.24-10-6-15.18a200.51,200.51,0,0,1-8.22-31.35A151.14,151.14,0,0,1,452.59,431a5.24,5.24,0,0,1,.4-2.37c.26-.37.51-.23.5.55a107.5,107.5,0,0,0,2.2,19.6,164.12,164.12,0,0,0,4.94,18.5c1,3,2.09,6.07,3.2,9.12s2.36,6.1,3.63,9.19q3.82,9.27,8.56,18.95c.94,1.92,1.92,3.79,2.92,5.59s2,3.56,3,5c.23.36.47.71.65.94.26.39.6.94.9,1.4l1.92,3c1.38,2.13,2.71,4.38,4.16,6.83s2.82,5,4.24,7.69,2.71,5.5,4,8.36A176.53,176.53,0,0,1,504.42,561c1,3,1.82,6,2.65,8.94l1.18,4.46c.4,1.61.81,3.28,1.16,5a111.61,111.61,0,0,1,2.65,21.35,109.46,109.46,0,0,1-1.93,23.18c-.39,2-.8,3.94-1.32,5.91-.26,1-.49,1.94-.8,3l-.95,3.09a89.84,89.84,0,0,1-4.78,11.88,90.86,90.86,0,0,1-14.9,20.56A97.2,97.2,0,0,1,469.28,683a104.76,104.76,0,0,1-39.93,14.65,80.8,80.8,0,0,1-20.79.42,71.19,71.19,0,0,1-10.32-1.89c-1.71-.47-3.38-.92-5.05-1.53l-1.25-.43-.63-.21-.76-.29c-1-.39-2-.79-3-1.22s-1.91-1-2.84-1.49-1.76-1.13-2.63-1.69a24.88,24.88,0,0,1-2.43-1.83l-1.16-1c-.37-.33-.71-.68-1.06-1a45.29,45.29,0,0,1-6.94-8.61,70.66,70.66,0,0,1-7.92-18.23c-.62-2.06-1.13-4.22-1.56-6.22s-.87-4-1.31-6c-.85-4-1.69-8-2.62-12a76.45,76.45,0,0,0-3.25-11,34.58,34.58,0,0,0-4.83-8c-.5-.48-.91-1-1.41-1.4l-.94-.82a8.94,8.94,0,0,0-.77-.56,13.35,13.35,0,0,0-1.57-1,31.09,31.09,0,0,0-3.35-1.72l-1.78-.71c-.61-.22-1.27-.41-1.88-.61s-1.25-.38-1.91-.55-1.28-.33-2-.47c-1.42-.24-2.66-.56-4.16-.7l-2.13-.24-2.24-.16c-.58,0-1.12,0-1.64-.1a12.12,12.12,0,0,1-1.55-.2,9.18,9.18,0,0,1-2.5-.81c-1.47-.67-2.23-1.79-2-3.12.31-1.61,2-3.06,4.43-3.78l-1.17-.17-1.73-.55a8.88,8.88,0,0,1-1.13-.46,6.43,6.43,0,0,1-1-.55,4.41,4.41,0,0,1-1.39-1.4l-.9-1.36a21.94,21.94,0,0,0-2.06-3.81A14.49,14.49,0,0,1,310.4,586l.65-.95-.26-.36a4.54,4.54,0,0,1-1.42-3.26l.49-1.24a9.24,9.24,0,0,1,3.06-3.56,2.83,2.83,0,0,1,.8-1.4,4.24,4.24,0,0,1,.69-4.26.68.68,0,0,1,.56-1.15,2.13,2.13,0,0,1,.77.12h0a9.62,9.62,0,0,0-.49-1.09l-.73-.52c-1.27-.76-1.27-.76-2.37-1.45a7.31,7.31,0,0,1-1.3-1.77c-.45-2.86-.45-2.9,0-3.85a2.2,2.2,0,0,1,.3-.19c-.8-.77-.86-.83-1.07-1.06a3.86,3.86,0,0,1-.32-.62c.12-.58.12-.58,0-.87a2,2,0,0,1,.07-.45c.68-.37.68-.37.74-.54a1.27,1.27,0,0,1,.36-.16l1,.18.86,2.08.41-.35.11.8v-.68l.53.68-.57-.88a10.34,10.34,0,0,0,2.05,1.25,4.36,4.36,0,0,0,1.24.53,1.14,1.14,0,0,1,0-.33c1.53,1.05,1.54,1.07,3,2.14a4.32,4.32,0,0,1,.25.55,1,1,0,0,1,.82.2l.78.52.2,0v0l.77.12h.17c.53.08,1.3.21,3.32.67.46.35.87.69,1.25,1-.1-.15-.21-.3-.3-.45-.19-.31.19-.6.07-.72-.75-.74-1.55-1.46-2.37-2.18s-1.66-1.35-2.52-2c-1.72-1.29-3.5-2.74-5.27-4-.68-.3-1.22-.94-1.19-1.42s.62-.59,1.32-.25A27.3,27.3,0,0,1,323.3,557a38.81,38.81,0,0,1,6.33,3.65A65.07,65.07,0,0,1,341,570.51c.92.8,1.82,1.7,2.73,2.54s1.81,1.64,2.7,2.57l-.18-.39,1.3,1.52.14.15-.75-1.52-.66-.85c-1.05-1-2.07-2-3.07-3L341.68,570l-1.47-1.48c-1-1-2-2-3-3.08s-2-2-3.05-3-2.15-2.19-3.15-3.23-2-2.19-3-3.3c-.59-.47-.9-1.06-.71-1.35s.82-.08,1.4.39a74.32,74.32,0,0,1,11.8,9.15c.93.87,1.83,1.73,2.68,2.61s1.69,1.84,2.46,2.75,1.5,1.8,2.18,2.74,1.29,1.87,1.84,2.77a19.93,19.93,0,0,1,1.77,1.92,18,18,0,0,1,1.4,2l.05.06c-.16-.4-.32-.78-.48-1.19.86,1.07,1.11,1.91,1.84,2.91,0-.26.06-.57.09-.84,1,1.33,2.11,2.68,3.18,4s2.05,2.83,3,4.26a42,42,0,0,1,4.56,9.05c.09.24.18.46.27.68a33.18,33.18,0,0,1,2,3.59,9.85,9.85,0,0,1,.43,1l.11.29.36,1.09c.24.73.46,1.46.64,2.22s.37,1.51.52,2.26.26,1.46.39,2.19.2,1.49.29,2.24.17,1.51.21,2.28a56.25,56.25,0,0,0-.69-6.2c-.14-1-.43-2.15-.65-3.23-.12-.56-.28-1.09-.43-1.63l-.43-1.45.51,1.55c.19.57.36,1.15.5,1.74.29,1.17.59,2.36.75,3.45s.39,2.23.51,3.36.21,2.26.28,3.38a113.93,113.93,0,0,1-.39,12.75,50.56,50.56,0,0,0,1.3,15.71c.32,1.27.64,2.53,1.07,3.77l.59,1.85c.23.58.45,1.15.67,1.73a49.07,49.07,0,0,0,3.1,6.43,35.44,35.44,0,0,0,7.67,9.3,24,24,0,0,0,6.83,4l.66.15c.21,0,.44,0,.66.06a11.21,11.21,0,0,0,1.28.1l1.26,0,1.62-.06a45.1,45.1,0,0,0,6.55-.82c1.09-.24,2.16-.42,3.23-.74l1.59-.42,1.57-.51c1.05-.3,2.08-.72,3.11-1.07s2-.83,3-1.25a62.33,62.33,0,0,0,11.24-6.53,55.3,55.3,0,0,0,9.25-8.58,48.21,48.21,0,0,0,6.62-9.81A40.68,40.68,0,0,0,446.68,632a31.27,31.27,0,0,0,.49-9.36l-.11-1.11-.14-1.23c-.12-.82-.23-1.63-.4-2.46-.29-1.63-.71-3.3-1.17-5A9.32,9.32,0,0,1,445,611a1.42,1.42,0,0,1,.23-1.06c.39-.17,1.07.74,1.48,2.18a53.82,53.82,0,0,1,1.78,7.38,42.14,42.14,0,0,1,.6,7,37.53,37.53,0,0,1-3.55,14.84c-4.68,10.11-14.07,19.82-25.73,25.49A60.86,60.86,0,0,0,444,647.14a47.39,47.39,0,0,0,6.45-12.69,36.92,36.92,0,0,0,1.51-6.43c.21-1,.23-2.12.35-3.16l0-1.58,0-.78v-.85a52.31,52.31,0,0,0-.81-7.06c-.41-2.38-.81-4.74-1.22-7.1-.77-3-1.65-6.1-2.68-9.21-.53-1.56-1-3.12-1.64-4.7l-1.92-5.06c-1.34-3.38-2.77-6.69-4.25-9.92s-3.08-6.38-4.72-9.55c-3.28-6.36-6.95-12.72-11.12-20.69l-.79-1.52-.85-1.67c-.62-1.25-1.19-2.42-1.72-3.57-1.07-2.3-2.07-4.56-3-6.82-1.91-4.52-3.66-9-5.3-13.68q-2.08-5.91-3.83-11.77c-1.12-3.92-2.19-7.8-3.1-11.71s-1.69-7.83-2.4-11.75c-.34-2-.64-3.94-.95-5.91s-.51-4-.73-5.95c-.41-4-.74-8-.92-12.05s-.18-8.14,0-12.27a154.86,154.86,0,0,1,7.52-43.17c1-2.86,2.09-5.68,3.15-8.48l.8-2.1.91-2c.62-1.35,1.23-2.7,1.84-4a157.16,157.16,0,0,1,18-29.33,171.36,171.36,0,0,1,49.71-42.74c2.53-1.47,5.08-2.7,7.07-3.6a13.57,13.57,0,0,1,4-1.33c.92.06-2.53,2.27-7.47,5.25a177.16,177.16,0,0,0-50.47,46.35l-2.56,3.63c-.83,1.23-1.72,2.41-2.48,3.7-1.57,2.54-3.17,5.07-4.7,7.65l-4.24,8c-1.34,2.71-2.55,5.52-3.79,8.31l-.92,2.1-.8,2.15-1.59,4.33c-.51,1.45-1.1,2.88-1.54,4.36l-1.33,4.45c-.47,1.48-.8,3-1.2,4.48s-.77,3-1.06,4.52l-.95,4.53-.76,4.57a163.88,163.88,0,0,0-1.5,36.65C406.34,474,407,480,408,486s2.23,11.87,3.72,17.72S415,515.3,416.94,521s4.11,11.42,6.64,17.2c.64,1.45,1.3,2.91,2,4.44l.57,1.19.52,1,1,2c1.31,2.54,2.59,5,3.84,7.38,2.48,4.72,4.77,9.07,6.93,13.46a209,209,0,0,1,9.79,23,1,1,0,0,1,.39-.34c.62-.21,1.52.44,2.41,1.49-1.48-4.48-3.12-9.08-4.88-13.48s-3.63-8.78-5.61-13.17c-3.32-5.86-6.95-11.67-10.8-18.52l-1.45-2.61-.36-.65-.42-.79-.79-1.54c-1-2-1.94-4-2.82-5.9-1.77-3.9-3.37-7.8-4.85-11.76a170.61,170.61,0,0,1-10.83-50.55,145.33,145.33,0,0,1,.18-18.1c.19-3,.54-5.9.88-8.8.19-1.45.44-2.9.66-4.34s.48-2.86.77-4.29a143.93,143.93,0,0,1,10.41-32.63,156.19,156.19,0,0,1,19.47-37.38,173.7,173.7,0,0,1,27.59-30.57,9.78,9.78,0,0,1,2.1-1.59c.4-.16.05.32-.74,1.07a179.65,179.65,0,0,0-19.24,21,167.94,167.94,0,0,0-16.09,24.59c2.21-2.39,3.87-3.57,4.51-2.93s.14,3.07-1.14,6.47l3.36-5.65c.57-.94,1.11-1.89,1.71-2.8l1.83-2.72c1.52-2.23,3-3.8,3.3-3.51s-.53,2.25-1.94,4.37l-1.81,2.76c-.6.93-1.13,1.9-1.7,2.85-1.11,1.91-2.26,3.8-3.33,5.73-2,4-4.14,7.85-5.83,12a142.16,142.16,0,0,0-8.51,25.42c-4.16,21.16-3.42,42.81.69,63.53.29-3,.89-5.3,1.82-6.46h0c-.48-3.19-.89-6.39-1.2-9.59a146.23,146.23,0,0,1,.21-44.78,135.36,135.36,0,0,1,14.94-43l2.79-5,3-4.84c1-1.61,2-3.22,3.16-4.75l3.31-4.65a183.55,183.55,0,0,1,14.74-17.32A211.39,211.39,0,0,1,502.88,318a7.68,7.68,0,0,1,1.9-1.08c.08.06-.63.64-1.5,1.23a207.42,207.42,0,0,0-40.82,36l.05-.05c.57-.49.81-.47.38.22A13.18,13.18,0,0,1,461,356.4c-.65.56-.76.38-.39-.21-10.9,13.06-20.13,27.74-26.25,43.74-1.67,3.94-2.8,8.09-4.11,12.15-.6,2-1.07,4.13-1.6,6.2s-.88,4.17-1.27,6.25a139.3,139.3,0,0,0-2.11,25.21,140.91,140.91,0,0,1,9-45.68,152.37,152.37,0,0,1,10.06-21c1.85-3.4,4-6.59,6.11-9.83,1-1.62,2.23-3.14,3.33-4.71s2.22-3.14,3.45-4.61c1.88-2.77,3.7-5.58,5.8-8.26a8.66,8.66,0,0,1,1.81-1.76c.28-.11,0,.52-.61,1.27l-1.7,2.24a45.84,45.84,0,0,1,5.15-5.19c1.46-1.15,2.47-1.7,2.76-1.39s-.35,1.64-1.47,3.33a61.25,61.25,0,0,1-4.51,6.22C454.92,373,446.67,386.66,441,401.35l-1.68,4.82c-.34,1.7-.68,3.37-1,5.06A153.65,153.65,0,0,1,454,378.48a200.14,200.14,0,0,1,22.1-28.71c1.4-1.54,2.76-2.69,3-2.53s-.7,1.58-2.08,3.12c-13.49,16.33-24.44,34.79-30.91,54.52-6.66,19.66-8.17,40.52-6.09,61.05a183.75,183.75,0,0,0,14.15,38.39c-.46-1.63-.93-3.28-1.4-4.93a281.91,281.91,0,0,1-7-30.82,177,177,0,0,1-2.53-30.17,133.62,133.62,0,0,1,1-15.06c.11-1.27.37-2.5.55-3.76s.37-2.52.67-3.75c.56-2.49,1.06-5,1.69-7.53a125.48,125.48,0,0,1,12.1-29.62,3.62,3.62,0,0,1,1.36-1.7c.23,0-.05.72-.59,1.7a122.66,122.66,0,0,0-11.49,28.74l-.5,1.81-.39,1.84-.76,3.66c-.56,2.43-.89,4.9-1.27,7.35-.61,4.95-1.05,9.93-1.18,15a147.13,147.13,0,0,0,6.77,47.75c-3.44-15.49-5.42-30.9-5-46.34.05-1.92.17-3.85.27-5.78s.28-3.86.55-5.77.44-3.85.8-5.75l.49-2.88c.18-.95.42-1.9.63-2.86q.65-2.87,1.31-5.74l1.71-5.69c.51-1.93,1.25-3.79,1.95-5.67l1.06-2.83.54-1.42.61-1.39a14.33,14.33,0,0,1,1.8-3.28,1.44,1.44,0,0,1,.1-.86,55.76,55.76,0,0,1,2.37-6l1.36-3.1c.49-1,1-2,1.57-3.06a6.38,6.38,0,0,1,1.44-2C465.12,374.16,465,374.72,464.56,375.62ZM336.1,576.89l-.13-.25.58.64.51,1.43ZM322.43,574h0l-.34-.87C322.23,573.51,322.34,573.79,322.43,574Zm115,82a60.21,60.21,0,0,1-19.35,12.54A56.37,56.37,0,0,1,395.31,673a49.23,49.23,0,0,0,11.29-1.34A66.57,66.57,0,0,0,437.44,656ZM329.52,568.31a20.41,20.41,0,0,1,2.05,3.5,13.87,13.87,0,0,1,2.31,1.22l2.95,2.11c1,.7,1.92,1.38,2.82,2.16-.09-.46.35-.1.6,0l.76.45c-1.91-1.72-3.89-3.27-5.9-5C333.3,571.28,331.23,569.89,329.52,568.31Zm-15.76-6.56-.15-.25.61-.48Zm-1,.84.29.25C312.88,563,312.8,562.9,312.77,562.59Zm2.64,2.16a1.88,1.88,0,0,0-.3-.54Zm-3.88,19.64c.7-1,1.39-1.95,2.09-2.89-.72.89-1.43,1.81-2.15,2.74Z"/><path d="M467.93,429.18l.51.29a1.31,1.31,0,0,1-1.13.36,10.92,10.92,0,0,0,7.74,0,18.75,18.75,0,0,0,6.63-4.08,2.56,2.56,0,0,0,2.65-2.3,2.4,2.4,0,0,0-2.72-2.14,4.14,4.14,0,0,1-1-.35,20.83,20.83,0,0,0-8.31-3.13l1.89.83a7.94,7.94,0,0,0-2.71-.24l.44.62a7.59,7.59,0,0,0-4.87,0,6.15,6.15,0,0,0-3.55,2.88c-1.43,2.7,0,5.71,3.08,6.76Z"/><path d="M474.27,435.32c-1.71-.52-3.38-1.11-5.09-1.7l-.38-.35.49,1.84V435c1.09-1.83,3.33-2.88,5.44-3.69l.74-.39a1.53,1.53,0,0,0,.54-1.1,1.71,1.71,0,0,0-1.87-1.66c-.41,0-.81,0-1.22,0a10.62,10.62,0,0,0-5.16.33,5,5,0,0,0-3.44,3.42c-.19.8.34,1.66.62,2.49a2.45,2.45,0,0,0,2.87,1.9,2.5,2.5,0,0,0,2.26-2.62l.77.13-.47.54c.18-1.14,1.42-1.62,2.28-2.36l1.4-.55-1.35-2.74-.7.51a3.62,3.62,0,0,1,.22.29,30.18,30.18,0,0,1-4,2.88l-1.72,1.45a1.29,1.29,0,0,0,.51,1.84l1,.44-.46-.29c2.1.22,4.27.25,6.35.59a.7.7,0,0,0,.8-.42A.56.56,0,0,0,474.27,435.32Z"/><path d="M467.38,437a1.5,1.5,0,0,0-1.16-.18l-.14.27.73.36C467.33,437.74,467.5,437.42,467.38,437Z"/><path d="M466.08,437.12l-.31-.15.24.23,0,0Z"/><path d="M575.56,623c.38.15.78.26,1.17.38.23,0,.35.11.65.18s.66.17,1,.23.67.15,1,.2l1.14.14,1.14.16,1.17.06a36.83,36.83,0,0,0,9.61-.75,45.89,45.89,0,0,0,18.77-8.89A49.61,49.61,0,0,0,619,607.2a59.52,59.52,0,0,0,6.32-9.29A73.53,73.53,0,0,0,633,575.62a4.31,4.31,0,0,0,.13-2c-.11-.07-.31.76-.51,1.73A73.39,73.39,0,0,1,625,597.47a59.2,59.2,0,0,1-6.23,9.23,49.93,49.93,0,0,1-7.61,7.43A45.75,45.75,0,0,1,592.65,623a35.93,35.93,0,0,1-9.48.81,18.94,18.94,0,0,1-2.28-.19c-.73-.12-1.53-.17-2.16-.33a20.45,20.45,0,0,1-2.83-.76c-.39-.13-.75-.18-.87-.07S575.17,622.8,575.56,623Z"/><path d="M706.85,438.31c-.94.13-.89.23.09.25s2.34-.08,3.27-.1.77-.18-.07-.25A14.74,14.74,0,0,0,706.85,438.31Z"/><path d="M699.81,447.2A50.32,50.32,0,0,0,687,451.93a18.61,18.61,0,0,1-2.09.95c.17,0,.06.16-.29.4s-.9.63-1.65,1.09c-1.88,1.05-3.62,2.35-5.4,3.58s-3.43,2.66-5,4.19a64.52,64.52,0,0,0-4.56,4.65L666,469.31c-.72.82-1.27,1.76-1.91,2.63a51.33,51.33,0,0,0-6,11.38,56.61,56.61,0,0,0-3.09,12.58,89.13,89.13,0,0,0-.51,13.55c.17,4.64.67,9.4,1.26,14.23s1.35,9.79,2,14.84,1.38,10.22,1.81,15.55a6.1,6.1,0,0,1,.57,1.78,44.47,44.47,0,0,1,.74,6.44,68.63,68.63,0,0,1-.18,9.08c-.16,1.6-.32,3.21-.57,4.81a105.07,105.07,0,0,1-7.67,28.55A84.77,84.77,0,0,1,635.85,630,61.46,61.46,0,0,1,625.42,640c-1.72,1.44-3.57,2.7-5.42,4s-3.79,2.46-5.81,3.51-4.07,2.08-6.16,3c-1.06.45-2.15.86-3.23,1.29s-2.18.8-3.3,1.15c-2.21.77-4.52,1.31-6.83,1.87a69.62,69.62,0,0,1-7.13,1.11,70.93,70.93,0,0,1-7.33.39c-2.47-.1-4.92-.15-7.53-.51,1.26.34,2,.62,2,.83-.23.2-1.57.29-3.56.07l-.8-.09a6.42,6.42,0,0,1-.94-.13c-.65-.12-1.34-.25-2.06-.41a42.68,42.68,0,0,1-4.51-1.31,51.42,51.42,0,0,1-9-4.12,53,53,0,0,0,13.12,5.6c1.15.3,2.34.63,3.47.82s2.06.42,3.1.56l1.54.23,1.5.15,3,.26c1.15.09,2.21.07,3.18.13a70.53,70.53,0,0,0,25.42-4.84,79.93,79.93,0,0,0,23.47-14.24,77,77,0,0,0,9.42-9.69c1.47-1.72,2.72-3.52,4-5.29s2.46-3.64,3.51-5.53a96,96,0,0,0,9.79-23.4,113.7,113.7,0,0,0,2.55-12,117.14,117.14,0,0,0,1.18-12,112.32,112.32,0,0,0-.06-11.9l-.16-2.92c-.07-1-.17-1.9-.25-2.85l-.26-2.84-.33-2.78c-.88-7.4-2.06-14.43-3.06-21.23-2-13.53-3.11-26.26-.28-37.81a10,10,0,0,1,.86-2.5c.23-.4.32-.28.1.54l-.36,1.32c-.12.43-.17.91-.26,1.36-.17.9-.33,1.81-.5,2.71l-.3,2.75-.15,1.36,0,1.39c0,.93-.08,1.85-.11,2.77s0,1.86,0,2.8.05,1.86.12,2.81.11,1.87.2,2.82c.72,7.61,2.19,15.34,3.83,23.69.81,4.14,1.63,8.51,2.38,13s1.41,9.29,1.77,14.38A113.66,113.66,0,0,1,663,593a98.2,98.2,0,0,1-18.14,39.4,88.18,88.18,0,0,1-16.44,16.08,85.74,85.74,0,0,1-20.61,11.32,76.22,76.22,0,0,1-24.19,5l-3.2.08c-1.07,0-2.15-.06-3.23-.1s-2.15-.09-3.25-.19-2.26-.22-3.39-.4l-1.73-.27a15.72,15.72,0,0,1-2-.36c-1.34-.27-2.66-.62-4-1s-2.62-.8-3.92-1.23-2.57-1-3.81-1.51c-10-4.32-18.88-11.67-24.13-21.36a49.76,49.76,0,0,1-5.34-15.62,56.72,56.72,0,0,1-.75-8.36c0-1.41,0-2.82.07-4.23l0-.53a3.25,3.25,0,0,1,0-.54l.09-1.07c0-.63.08-1.22.15-1.8.29-2.44.7-4.75,1.16-7,.24-1.09.48-2.21.76-3.26l.4-1.59.43-1.45c.58-1.93,1.15-3.89,1.77-5.77l2-5.46c2.73-7.06,5.73-13.43,8.6-19.34s5.6-11.26,7.93-16.33c1.2-2.55,2.18-4.92,3.17-7.28l1.27-3.4c.41-1.13.67-2.16,1-3.23a43.4,43.4,0,0,0,1.92-11.11c-.06-.79-.08-1.57-.08-2.34s-.22-1.41-.27-2.11-.34-1.39-.45-2.09a6.18,6.18,0,0,0-.32-1c-.11-.36-.22-.71-.32-1.06-1.93-5.6-6.18-11.61-12.08-16.37a45.63,45.63,0,0,0-6.3-4.23c-1.06-.68-2.23-1.11-3.3-1.7l-1.68-.67-.83-.35c-.29-.11-.62-.21-.93-.32l-1.87-.66-1.94-.55-1-.28-1-.22-2-.47c-1.38-.21-2.7-.54-4.13-.68-.7-.08-1.39-.2-2.1-.27l-2.16-.19c-.7-.08-1.45-.09-2.18-.12l-1.1-.05h-.21l-.65,0-1.31.12c-.89.09-1.73.1-2.62.21-3.5.26-7.07.67-10.75,1.17-2.68.81-5.57-1.29-6.49-4.9a7.53,7.53,0,0,1,.93-6l-.76.06-1.26-.26a5.18,5.18,0,0,1-3.15-2.1l-1.13-1.38c-1.65-2.71-4.05-4.73-5.68-7.59v-1.19l-.31-.28a6.22,6.22,0,0,1-2.18-2.78l-.21-1.41a13.31,13.31,0,0,1,.32-4.76,4.93,4.93,0,0,1-.12-1.75,6.92,6.92,0,0,1-1.33-4.49.94.94,0,0,1-.15-1.39,1.08,1.08,0,0,1,.47-.31h0a8,8,0,0,0-.71-.78c-.39-.05-.62-.1-.62-.1l-1.91-.09a4.87,4.87,0,0,1-1.44-.91c-1.38-2.31-1.39-2.31-1.51-3.4l.09-.34c-.74-.22-.8-.23-1-.31a2.58,2.58,0,0,1-.41-.34c-.17-.57-.17-.57-.33-.75a3.3,3.3,0,0,1-.14-.43c.23-.72.23-.72.2-.9a1.56,1.56,0,0,1,.13-.36l.63-.45,1.28,1.29.09-.55.37.64-.26-.61.56.29-.67-.44a4.78,4.78,0,0,0,1.63-.13,2,2,0,0,0,.9-.28,1.81,1.81,0,0,1-.11-.32c1.26,0,1.27,0,2.5.07a4.07,4.07,0,0,1,.36.36.55.55,0,0,1,.53-.32h.64l.12-.12v0l.47-.39.1-.09h0c.68-.56,1.38-1.1,2.08-1.64a7.69,7.69,0,0,1,1.1.14c-.13-.07-.24-.15-.36-.23s-.14-.75-.25-.79a19.6,19.6,0,0,0-4.36-.68c-1.47-.09-3-.14-4.46-.15a1,1,0,0,1-1.22-.49.85.85,0,0,1,.62-1.09c5.19-4.14,12.83-4.81,19.25-2.93l5,.43-.26-.27,1.31.37.14,0-1-1-.69-.27a32.2,32.2,0,0,1-5.69-.87c-1.87-.41-3.74-.84-5.68-1.14s-3.92-1-6-1.45a.83.83,0,0,1-.92-.72.86.86,0,0,1,.89-.77c6.23-1.71,13.9-1.68,19.26,1.59a6,6,0,0,1,3.29.8l.06,0-.76-.83c.89.18,1.39.89,2.2,1.17-.11-.36-.23-.78-.33-1.14,2.2.35,4.46.41,6.71.74a32.49,32.49,0,0,1,3.3.58,17,17,0,0,1,3.11,1.14l.46.14a21.4,21.4,0,0,1,2.75-.86c.24-.05.48-.1.73-.13a.62.62,0,0,1,.23,0l1.23.1,2.5.22a101.34,101.34,0,0,1,10.44,1.69l-3.61-.87-3.6-.7c-1.2-.22-2.41-.47-3.61-.63l-3.39-.5h0l.22,0,.49,0,1,.07,2,.16c1.31.08,2.63.3,4,.45,2.64.29,5.3.81,8,1.32a98.15,98.15,0,0,1,16.28,4.87,94.81,94.81,0,0,1,21.75,12.07,91.82,91.82,0,0,1,17.29,16.81,79.81,79.81,0,0,1,10.94,18.33,46.74,46.74,0,0,1,1.7,4.37c.47,1.44,1,2.76,1.32,4.13a56.47,56.47,0,0,1,1.54,7.35,75.59,75.59,0,0,1,3.37,24.08,86.24,86.24,0,0,1-3.94,22.93c-.58,1.73-1.1,3.55-1.75,5.21l-1.94,5c-1.38,3.16-2.77,6.33-4.25,9.24-2.92,5.92-6,11.41-8.84,16.56s-5.61,10.11-7.88,14.83A103.11,103.11,0,0,0,570.66,607a36.86,36.86,0,0,0-1.28,5.65c0,.24,0,.34,0,.45s0,.26,0,.38,0,.51,0,.76a9.3,9.3,0,0,0,.14,1.5,8.47,8.47,0,0,0,1,2.82,8,8,0,0,0,2,2.2c.65.49,1.17,1,1.14,1.3s-.74.22-1.5-.29a8.38,8.38,0,0,1-3.17-3.52,10.61,10.61,0,0,1-1-4.78c0-.2,0-.42,0-.62s0-.23,0-.4,0-.32.06-.48c.09-.66.21-1.35.34-2.06s.31-1.44.5-2.19l.31-1.13.4-1.23.78-2.47c.23-.82.63-1.67.93-2.51l1-2.53,1.14-2.57c3.05-6.92,7-14.08,11.22-21.85a201.88,201.88,0,0,0,12.14-25.78,172.77,172.77,0,0,1-10.69,21.62c-3.74,6.59-7.46,12.73-10.7,18.7a109.11,109.11,0,0,0-7.87,17.44,39.53,39.53,0,0,0-1.17,4c-.15.64-.3,1.27-.4,1.88s-.21,1.28-.25,1.62a14.42,14.42,0,0,0,.33,5.15,10.37,10.37,0,0,0,2.68,4.53,16.84,16.84,0,0,0,4.21,3,17.71,17.71,0,0,0,3.16,1c.44.11,1.31.31,2.05.44s1.6.2,2.42.3a38.84,38.84,0,0,0,10.13-.38,44.22,44.22,0,0,0,10.14-3,50.92,50.92,0,0,0,9.48-5.32,53.28,53.28,0,0,0,15-16.31,71.74,71.74,0,0,0,8.55-22.34,79.61,79.61,0,0,0,1.52-10.44,86.45,86.45,0,0,0,.31-10.44c-.14-7-.93-14.35-1.8-22s-1.82-15.66-2.06-24.34c-.05-2.17-.11-4.34,0-6.6,0-1.13,0-2.23.11-3.38s.16-2.3.23-3.45.22-2.33.37-3.5.29-2.36.47-3.55l.69-3.59L634,487l.47-1.81a74.37,74.37,0,0,1,3.34-10.08c.73-1.61,1.42-3.25,2.21-4.81l2.52-4.6a78.27,78.27,0,0,1,12.8-16,80.26,80.26,0,0,1,34.42-19.62,77.11,77.11,0,0,1,19.86-2.75,78.88,78.88,0,0,1,19.7,2.38,87.3,87.3,0,0,1,18.5,6.9,85.36,85.36,0,0,1,16.59,11c5.51,4.54,9.61,9.8,9.77,10.74.11.48-.74-.21-2.21-1.64s-3.66-3.52-6.33-5.8a86.69,86.69,0,0,0-36-18.87,79.6,79.6,0,0,0-20.57-2.35,74.38,74.38,0,0,0-20.64,3.36,79.24,79.24,0,0,0-34.74,22,73.81,73.81,0,0,0-11.87,17.34c-.73,1.62-1.49,3.23-2.17,4.88s-1.21,3.36-1.78,5.05l-1.37,5.07c-.37,1.7-.68,3.4-1,5.11a105.9,105.9,0,0,0-1.22,20c.17,6.49.75,12.75,1.39,18.82,1.27,12.13,2.76,23.62,2.21,34.36a93.18,93.18,0,0,1-2.18,16,79.94,79.94,0,0,1-5.15,15.07,63,63,0,0,1-8.2,13.22c-.77,1-1.65,1.92-2.48,2.88s-1.78,1.79-2.68,2.69a56.79,56.79,0,0,1-5.94,4.76,49.24,49.24,0,0,1-23.42,8.85c.12.08.22.16.23.25.05.36-.68.83-2,1.14,9.36-.31,19.05-4,27.31-9.87,11-8.68,18.53-21.71,22.23-36.31a97.58,97.58,0,0,0,2.93-22.82c.06-7.91-.66-16.28-1.46-25.19-1-12.21-2.1-24.66-.51-37.37a77.75,77.75,0,0,1,4.71-18.73,68.85,68.85,0,0,1,9.63-16.78,76,76,0,0,1,17.23-16.92A73.84,73.84,0,0,1,689.78,436a72.42,72.42,0,0,1,24.13-3A78.64,78.64,0,0,1,737.58,438a13,13,0,0,1,2.83,1.24c.38.29-.27,0-1.49-.39a81,81,0,0,0-16.13-4.18c-1.4-.18-2.78-.44-4.18-.53l-4.22-.31a80.45,80.45,0,0,0-8.5.19,69.8,69.8,0,0,0-16.75,3.34,78,78,0,0,0-15.49,7.16c3.3-1.48,5.39-2,5.33-1.51,0,.28-.58.83-1.58,1.58-.49.38-1.1.81-1.79,1.28s-1.44,1.08-2.28,1.68c2.09-1.38,4.35-2.47,6.55-3.65,2.3-1,4.55-2.1,6.93-2.87a24.35,24.35,0,0,1,3.75-1.12c1-.19,1.56-.25,1.55-.13,0,.29-2.32,1-5,2.06-2.4.79-4.67,1.9-7,2.92-2.22,1.18-4.48,2.32-6.58,3.71l-1.6,1c-.54.34-1,.73-1.55,1.09-1,.75-2.06,1.45-3,2.24l-2.91,2.42c-1,.79-1.84,1.72-2.77,2.58a64.88,64.88,0,0,0-9.62,11.7,60.34,60.34,0,0,0-6.69,13.69A74.38,74.38,0,0,0,642,500.91a122.89,122.89,0,0,0,.12,17.7c.86,11.63,2.67,22.93,3.44,34.16a30.9,30.9,0,0,1,.81-6.63h0c-.33-3.51-.72-7-1.11-10.52-1.05-8-2.12-16.17-2.38-24.49a100,100,0,0,1,.32-12.58c.25-2.11.43-4.22.87-6.31.21-1.05.35-2.11.61-3.15l.8-3.12a28.81,28.81,0,0,1,1-3.08c.36-1,.68-2.06,1.08-3.06l1.3-3c.22-.49.42-1,.67-1.47l.76-1.43c.52-.95,1-1.91,1.55-2.86l1.76-2.73.88-1.36,1-1.29,2-2.59,2.14-2.44,1.07-1.22,1.16-1.15L664,456l2.46-2.11,1.24-1.06c.42-.34.87-.65,1.3-1l2.61-1.93c.9-.61,1.83-1.18,2.74-1.77s1.82-1.17,2.79-1.67L680,445c1-.5,2-.92,3-1.38,2-1,4-1.64,6.07-2.42a67.74,67.74,0,0,1,12.76-3,69.73,69.73,0,0,1,26.06,1.6,77.83,77.83,0,0,1,42.85,28.37,8.81,8.81,0,0,1,1.39,2.11,7.68,7.68,0,0,1-1.5-1.71,77,77,0,0,0-53.24-30.23l.09,0c.84.13,1,.26,0,.25a27.93,27.93,0,0,1-3.27-.28c-1-.13-.88-.23-.08-.26a66,66,0,0,0-28.76,4.85,74.4,74.4,0,0,0-12.85,6.87,72.12,72.12,0,0,0-11.13,9.34c-.88.83-1.62,1.8-2.44,2.69l-1.2,1.37c-.39.46-.74,1-1.11,1.43-.72,1-1.47,1.93-2.16,2.92l-2,3.05c-.69,1-1.19,2.11-1.78,3.16a30.74,30.74,0,0,0-1.62,3.25l-1.45,3.32-1.18,3.43a68.13,68.13,0,0,0-2.86,14,94.85,94.85,0,0,0-.38,14.08,103.55,103.55,0,0,1,.46-13c.29-2.18.5-4.36,1-6.51.23-1.07.38-2.17.68-3.23l.87-3.19a58.46,58.46,0,0,1,5.15-12.2,65,65,0,0,1,3.49-5.62c.62-.92,1.33-1.76,2-2.64a32.48,32.48,0,0,1,2.1-2.56l2.2-2.46c.77-.79,1.58-1.53,2.36-2.3l1.19-1.15c.4-.37.84-.71,1.25-1.07l2.53-2.11,2.66-1.94,1.34-1,1.39-.87,2.8-1.74,2.91-1.55c.49-.25,1-.52,1.46-.76l1.5-.67c1-.44,2-.9,3-1.32,2.07-.72,4.1-1.58,6.23-2.11a64.62,64.62,0,0,1,12.92-2.38,67.12,67.12,0,0,1,11.53-.33,13.84,13.84,0,0,1,2.84.41c.29.13-.49.1-1.58,0l-3.2-.18c6.64.41,11.49,2.18,11.25,2.63-.47.45-6-.47-12.64-.73a68.47,68.47,0,0,0-13.34.94A70.27,70.27,0,0,0,686.81,446a68.07,68.07,0,0,0-22.15,14.57,55.69,55.69,0,0,0-3.86,4.27c-.64.73-1.15,1.56-1.71,2.34s-1.11,1.57-1.63,2.38a66.85,66.85,0,0,1,32.59-23.91c12.92-4.51,27.14-4.15,40-.15.56.16,1.09.33,1.58.48s.91.37,1.27.53c.72.33,1.17.58,1.16.67s-.46,0-1.18-.17c-.37-.1-.8-.22-1.27-.38l-1.57-.42a63.14,63.14,0,0,0-64.4,17.56A59.38,59.38,0,0,0,655.74,478a56.75,56.75,0,0,0-5.17,16.47c-1.86,11.53-.72,23.55.74,35.69,1.38,7.94,2.94,16,3.91,24.41a120.88,120.88,0,0,1,.89,12.89,108.82,108.82,0,0,1-.58,13.22c.17-1.1.38-2.21.51-3.33s.27-2.25.41-3.37a117.76,117.76,0,0,0,.09-21c-.53-6.73-1.43-13.17-2.29-19.4-1.75-12.45-3.41-24.27-2.39-35.66a58.49,58.49,0,0,1,3.76-16.42,55.68,55.68,0,0,1,8.7-14.66,61.68,61.68,0,0,1,29.27-19.72,9.07,9.07,0,0,1,2.36-.53c.15.06-.63.39-1.82.74a61.48,61.48,0,0,0-28.48,18.73,56.28,56.28,0,0,0-8.85,14.08l-.78,1.92a16.93,16.93,0,0,0-.73,1.95c-.39,1.33-.87,2.61-1.2,4s-.66,2.73-.91,4.13-.47,2.81-.63,4.25a86.08,86.08,0,0,0-.35,14.37c.23,4.81.77,9.64,1.44,14.48,1.29,9.69,3.08,19.44,4,29.6-.65-10.4-2.27-20.19-3.41-29.63-.59-4.73-1.06-9.37-1.27-13.93-.15-2.29-.12-4.53-.15-6.78s.14-4.46.41-6.64a55.89,55.89,0,0,1,2.65-12.7,50.79,50.79,0,0,1,5.59-11.66,58.29,58.29,0,0,1,8.34-10.21A65.29,65.29,0,0,1,680.38,455a32.83,32.83,0,0,1,3.7-1.92,2.12,2.12,0,0,1,.73-.52,54.09,54.09,0,0,1,13.44-5.38,11,11,0,0,1,2.66-.45C701.42,446.77,700.85,446.89,699.81,447.2Zm-212.72-6.79a1.7,1.7,0,0,0-.18-.19l.59.3.9,1.32Zm-8.64,6.3h0l-.55-.71ZM581.87,574.55c2.55-4.59,5.21-9.29,7.76-14.36,1.3-2.47,2.51-5.14,3.73-7.78.61-1.31,1.15-2.75,1.72-4.12s1.15-2.76,1.62-4.25l1.5-4.39c.43-1.51.83-3.06,1.24-4.6.2-.77.42-1.53.59-2.32l.45-2.4c.28-1.62.63-3.2.82-4.85a76.67,76.67,0,0,0-.13-20.24,73.8,73.8,0,0,1,.86,19.82c-.08,1.28-.36,2.48-.56,3.72l-.68,3.67c-.54,2.41-1.22,4.72-1.86,7.06s-1.52,4.47-2.33,6.66-1.75,4.24-2.67,6.27A236.07,236.07,0,0,1,581.87,574.55ZM479.94,435.94a11.7,11.7,0,0,1,2.57,2.24,5.24,5.24,0,0,1,1.76-.39,33,33,0,0,1,4.88.08c-.25-.47.13-.45.32-.52l.58-.17c-1.71-.19-3.46-.49-5.23-.68C483.23,436.32,481.5,436.27,479.94,435.94Zm-11.3,3.87-.18-.14.15-.79S468.62,439.28,468.64,439.81Zm-.21,1.33.26.05C468.66,441.48,468.57,441.4,468.43,441.14Zm2.33.46a1.55,1.55,0,0,0-.38-.32Zm5.79,21.06,0-3.77-.12,3.64Z"/><path d="M550.93,507.63c0,.18,0,.35,0,.52-.3,0-.52-.17-.69-.5.49,4.71,5.16,6.23,9,5.63a1.74,1.74,0,0,0,2.65-.34,2.36,2.36,0,0,0,0-3,3.16,3.16,0,0,1-.23-.78,20.26,20.26,0,0,0-1.27-6.65c0,.53.09,1.08.13,1.61a4.44,4.44,0,0,0-.81-1.66c-.08.22-.17.46-.26.68a3.7,3.7,0,0,0-1.63-2.78,3.38,3.38,0,0,0-3.13-.24,6.15,6.15,0,0,0-3.87,6.28Z"/><path d="M549.36,515.72a36.1,36.1,0,0,1-1.14-4.38l.1-.48-1.13,1.51.09-.08a7.48,7.48,0,0,1,5.06,1l.61.18a1.44,1.44,0,0,0,1-.45,1.78,1.78,0,0,0,.28-2.26l-.54-.72c-1-2.23-3.18-4.6-6.14-3a6.69,6.69,0,0,0-1.64,2,2.32,2.32,0,0,0-.23,3.13,1.93,1.93,0,0,0,2.89-.17c.08.19.16.39.25.58-.21,0-.4,0-.61.05.9-.62,1.81-.17,2.72-.13l1,.49,1.29-2.7-.65-.08c0,.13-.1.33-.11.33a12.75,12.75,0,0,1-3.72-.58l-1.77-.22a1.57,1.57,0,0,0-1.16,1.51l.1.95c0-.17,0-.33,0-.5.36.79.79,1.55,1.22,2.31s.9,1.48,1.29,2.27a.47.47,0,0,0,.68.23A.61.61,0,0,0,549.36,515.72Z"/><path d="M545,512.3c-.05-.35-.07-.7-.38-.91l-.26.08c0,.19,0,.46,0,.72C544.38,512.71,544.7,512.63,545,512.3Z"/><path d="M544.31,511.47c0-.19,0-.31,0-.31s0,.21-.07.31h.09Z"/><path d="M625.12,544a112,112,0,0,0,24.19,1.4c.27,0,.49-.12.48-.24s-.22-.19-.47-.17a112.13,112.13,0,0,1-24.08-1.46c-.26,0-.49,0-.53.15S624.87,544,625.12,544Z"/><path d="M688.76,546.5c-.16.15-.11.25.12.23a1.35,1.35,0,0,0,.66-.29c.14-.13.08-.24-.11-.23A1.32,1.32,0,0,0,688.76,546.5Z"/><path d="M690,554.5a27.66,27.66,0,0,0-3.13,2,1.74,1.74,0,0,1-.57.24c.13.12,0,.36-.46.59-8.13,4.77-17.68,8.42-27.36,11.37a1.12,1.12,0,0,1-.34.53,6.45,6.45,0,0,1-3.39,1.32l-1.1.09c-4.42.56-8.84.94-13.26,1.09a12.71,12.71,0,0,1-3.07.71,109.19,109.19,0,0,1-11.68,2.33c.24.14.39.32.38.51-.08.46-1,.81-2.12.8l-1.65.05,4.72.3a4,4,0,0,1,.63.05c1.73-.07,3.48-.16,5.25-.3A116.15,116.15,0,0,0,655,571.81a143.54,143.54,0,0,0,20.09-7.65,1.49,1.49,0,0,1,.76-.2c.15,0,.17.17-.06.3-2,1.11-3.87,2.27-5.77,3.42s-3.84,2.22-5.83,3.3-4.06,2.12-6.25,3.09c-1.1.48-2.23.95-3.4,1.41s-2.38.92-3.64,1.3l-4.51,1.42-4.58,1.24c-1.53.43-3.08.78-4.63,1.13s-3.12.74-4.7,1a156.12,156.12,0,0,1-19.5,2.53c-7-.21-13.66-.56-20.48-1.08a204.91,204.91,0,0,1-20.87-2.79A145.66,145.66,0,0,1,556,576.31a134.13,134.13,0,0,1-24.47-9.76,9.6,9.6,0,0,1-4.75-4,5.72,5.72,0,0,1-.25-5.19,6.37,6.37,0,0,1,5.32-3.32l-.88-.6-1.17-1.24a5.91,5.91,0,0,1-1.68-4.1l0-1.87c.48-3.2,0-6.52,1-9.63l.93-.74v-.44a5.48,5.48,0,0,1,.62-3.52l1-1a14.2,14.2,0,0,1,3.89-2.69,5,5,0,0,1,1.26-1.2,7,7,0,0,1,2.59-3.85,1,1,0,0,1,.95-1,.88.88,0,0,1,.5.14h0a9.86,9.86,0,0,0,.18-1c-.17-.31-.26-.51-.26-.51-.51-.78-.51-.78-.93-1.46a4.58,4.58,0,0,1,0-1.62c1.09-2.41,1.11-2.41,1.89-3.17l.3-.14c-.18-.66-.18-.71-.22-.89a2.35,2.35,0,0,1,.08-.5c.36-.47.36-.47.43-.69a3.33,3.33,0,0,1,.28-.35c.65-.29.65-.29.78-.43a2.92,2.92,0,0,1,.33-.13l.62.15-.42,1.69.46-.29-.31.66.33-.56,0,.56,0-.73c.53.8.53.8.82,1a1.28,1.28,0,0,0,.61.45A2.15,2.15,0,0,1,546,514l1.13,1.7c0,.17-.05.33-.08.48a.39.39,0,0,1,.49.12l.32.42H548l0,0,.5.05h.11l2.17.18a7.94,7.94,0,0,1,.46.78c0-.13,0-.25,0-.38s.43-.61.4-.71a19.48,19.48,0,0,0-1.62-3.19c-.31-.49-.63-1-1-1.46l-.91-1.5a.82.82,0,0,1-.13-1.12.76.76,0,0,1,1-.29,10.72,10.72,0,0,1,1.82.42,11.94,11.94,0,0,1,1.7.65,12.53,12.53,0,0,1,3,2,20.24,20.24,0,0,1,4.54,6,35,35,0,0,0,2.53,2.78v-.33l.56.89.08.08-.09-1.24-.26-.52a14.35,14.35,0,0,1-2.57-3.47l-1.07-1.9c-.34-.66-.68-1.31-1-1.94a25.17,25.17,0,0,1-1.67-4.36.83.83,0,0,1,.11-1,.56.56,0,0,1,.87,0A19,19,0,0,1,565.78,518a4,4,0,0,1,1.41,2.09l0,0c0-.34,0-.66,0-1,.39.54.35,1.28.68,1.83l.36-1.06a43.2,43.2,0,0,0,3.61,3.12,14.39,14.39,0,0,1,3.33,3.49,1.9,1.9,0,0,1,.25.24,7.78,7.78,0,0,1,4.85.94c-.65-.47-1.3-1-1.91-1.44a22,22,0,0,1,4.83,1.79c.54.29,1.08.61,1.61.95s1.09.65,1.62,1c1.07.7,2.08,1.53,3.05,2.31a18.71,18.71,0,0,1,4.45,5,132,132,0,0,0,14.24,3.89,116.34,116.34,0,0,0,14.61,2.12c.51,0,1,.26,1,.52s-.3.46-.82.45a96.6,96.6,0,0,1-21.43-2.55,90.67,90.67,0,0,0,18,4.83l2.41.22a16.15,16.15,0,0,1,2.38.38,99.27,99.27,0,0,0,24.11-.1,127.45,127.45,0,0,0,19.88-4.49c4.73-1.5,9.19-3.08,13.56-4.84s8.7-3.55,13.22-5.47c1.17-.58,2.43-.79,2.79-.46s-.31,1.09-1.49,1.69a148.79,148.79,0,0,1-14,6.62c-2.37,1-4.82,1.87-7.24,2.8s-4.91,1.67-7.43,2.34a111.39,111.39,0,0,1-15.39,3.31,95.64,95.64,0,0,1-16,1l-3.47-.09-3.43-.24a.85.85,0,0,1,0,.26,1.14,1.14,0,0,1-.59.91l3.93.35,4,.25c7.35-.74,14.59-1.91,22.42-2.8l4-.45c1.3-.13,2.59-.25,3.86-.42l3.8-.44,3.78-.57a170.69,170.69,0,0,0,17.86-7.24.88.88,0,0,1,.61-.15c.13,0,0,.18-.19.31-1.9,1.19-3.94,2.18-5.95,3.28s-4.14,2-6.29,2.91c.81.07,1.37.32,1.47.75s-.3,1-1,1.57l1.53-.49,1.51-.54c.62-.22,1.18-.24,1.24,0s-.35.58-.95.8c-1,.39-2.06.75-3.11,1.08l-3.12,1c-2.1.64-4.21,1.21-6.32,1.8a147.38,147.38,0,0,1-15.25,4,3.32,3.32,0,0,1,1.73,1h0l2.42-.48a243.85,243.85,0,0,0,42.35-16.91c.26-.14.52-.19.57-.11s-.11.26-.36.38c-4.15,2.1-8.3,4.18-12.55,6h0c.2,0,.27.07.12.22a1.49,1.49,0,0,1-.67.29c-.23,0-.25-.09-.12-.22a243.24,243.24,0,0,1-24,9.11,203.11,203.11,0,0,0,22.57-7.14l2.24-1.37a1,1,0,0,1,.64-.13c.1,0,0,.21-.24.33l-.62.37c1.38-.55,2.62-.63,2.81-.15s-.87,1.42-2.32,2c-3.82,1.79-7.74,3.33-11.7,4.73-.42.19-.84.37-1.26.53l-1.23.68a162.86,162.86,0,0,0,18.54-6.51c.5-.25,1-.33,1.08-.17s-.25.5-.75.76a155.45,155.45,0,0,1-15.81,7.6A153.32,153.32,0,0,1,663.21,562l-5.51,2.64c-1.87.86-3.78,1.67-5.72,2.52l1.53-.24a79.78,79.78,0,0,0,17.89-5.63c5.57-2.34,10.89-5,16.56-7.61a.72.72,0,0,1,.63-.1c.06.08-.1.25-.39.38-2.74,1.37-5.41,2.6-8,4s-5.35,2.58-8.22,3.71c-4.74,2-9.37,3.57-13.93,5.31,9.56-2.3,18.24-6.09,27-10a2.43,2.43,0,0,1,1.07-.29c0-.06.06-.14.17-.22,1-.72,2.13-1.4,3.29-2.07a1.06,1.06,0,0,1,.69-.18C690.33,554.19,690.22,554.33,690,554.5ZM553.33,527.11v-.24l.2.55-.18,1.5Zm-9.59-.88h0c.09-.49.15-.86.15-.86C543.84,525.73,543.79,526,543.74,526.23Zm63.32,18.44a51.36,51.36,0,0,1-12.37-4.62c1,.27,2,.6,3,.82,1.53.63,3,1.32,4.61,2Zm-55.19-25a13.73,13.73,0,0,1,0,3.14,3.72,3.72,0,0,1,1.28.76,35.64,35.64,0,0,1,3,2.77c.12-.5.34-.27.5-.22l.46.19c-1-1.1-1.89-2.22-2.81-3.37A24.66,24.66,0,0,1,551.87,519.66Zm-8.45-4.74,0-.22.66-.39Zm-1.1.69.08.21C542.17,516,542.19,515.87,542.32,515.61Zm.77,1.95a1.69,1.69,0,0,0,.06-.48A3.47,3.47,0,0,1,543.09,517.56Zm-12.4,17.71,2.93-2.38-2.9,2.22Z"/><path d="M551.33,40.59l-.41.32a.85.85,0,0,1-.06-.93c-3.32,3.5-2,8.5,1.11,11.58a2,2,0,0,0,2,2.19,2.27,2.27,0,0,0,2.49-1.82,2.79,2.79,0,0,1,.48-.7,16.21,16.21,0,0,0,2.54-2.57,22.13,22.13,0,0,0,2-2.9l-1.21,1.18a4.92,4.92,0,0,0,.82-1.83l-.71.2a4.09,4.09,0,0,0-.74-6.37,5.74,5.74,0,0,0-7.42.74Z"/><path d="M543.8,44.37c.9-1.31,1.87-2.54,2.86-3.76l.44-.23h-1.93l.12,0c1.53,1.27,2.05,3.24,2.37,5l.23.64a1.49,1.49,0,0,0,1,.6,1.76,1.76,0,0,0,2-1.18l.24-.94c1.28-2.27,1.62-5.83-1.55-7.34a6.39,6.39,0,0,0-2.6-.14,2.26,2.26,0,0,0-2.61,1.82,2.14,2.14,0,0,0,2,2.39c-.1.2-.2.4-.31.6l-.42-.5c1.09.39,1.26,1.47,1.79,2.28l.22,1.2,3-.57-.34-.62a2.91,2.91,0,0,1-.34.11,18.27,18.27,0,0,1-1.88-3.65l-1-1.68a1.52,1.52,0,0,0-1.93,0l-.69.69.4-.3c-.79,1.64-1.3,3.4-2.12,5.06a.51.51,0,0,0,.22.73A.62.62,0,0,0,543.8,44.37Z"/><path d="M543.8,38.39a1.2,1.2,0,0,0,.47-.9l-.22-.19-.55.51C543.11,38.17,543.38,38.39,543.8,38.39Z"/><path d="M544.05,37.3l.23-.2-.3.13s0,0,0,0Z"/><path d="M594.94,205.92c1.48,2.27,3,4.49,4.56,6.75l2.3,3.38c.78,1.11,1.63,2.19,2.44,3.29l4.93,6.57,5.21,6.37,2.62,3.19,2.75,3.08,5.52,6.15,5.78,5.94c1,1,1.91,2,2.91,3l3,2.86c.54.51,1.06.86,1.17.79s-.25-.53-.75-1l-3-2.86c-1-.95-1.93-2-2.9-2.95l-5.75-5.93c-1.86-2-3.67-4.1-5.51-6.14l-2.73-3.07-2.61-3.17-5.2-6.35-4.9-6.55L602.35,216l-2.29-3.37-4.55-6.73c-.39-.62-.8-1.07-1-1.07S594.59,205.33,594.94,205.92Z"/><path d="M714.68,321.47c-.52-.17-.55-.06-.07.25a9.31,9.31,0,0,0,1.71.81c.45.13.48,0,.07-.25A8.75,8.75,0,0,0,714.68,321.47Z"/><path d="M706.73,326.6c-3.06-1.22-5.89-2.52-8.53-3.48a8.87,8.87,0,0,1-1.38-.69c.09.24-.54.09-1.64-.37a304.77,304.77,0,0,1-32.42-16.42l-4-2.32-4-2.47c-2.65-1.67-5.33-3.31-8-5-5.19-3.53-10.48-7-15.51-10.76a2.63,2.63,0,0,1-1.12-.3,30.5,30.5,0,0,1-7.36-5l-2-1.87A326.51,326.51,0,0,1,597,254.73c-1.74-1.46-3.64-3.28-5.63-5.33-1.75-1.65-3.56-3.24-5.25-5l-5.1-5.17c-3.48-3.41-6.67-7.13-10-10.85.26.58.35,1,.18,1.11-.5.13-2.25-1.43-3.88-3.58l-2.42-3.26c1.11,1.59,2.15,3.24,3.34,4.79l3.48,4.68c.34.45.64.87.9,1.27.67.83,1.34,1.67,2,2.51s1.35,1.68,2.07,2.48l4.31,4.89A292,292,0,0,0,622,280.81a345.48,345.48,0,0,0,44.63,28.61,8.11,8.11,0,0,1,1.65,1.08c.24.25.12.33-.45,0l-7.32-3.62-3.62-1.78-3.54-1.85-7.08-3.7c-2.35-1.25-4.65-2.61-7-3.93a248.57,248.57,0,0,1-29.05-19.14l-8.93-7.1c-2.91-2.45-5.78-5-8.67-7.45l-2.17-1.88-2.09-2-4.19-3.92c-1.39-1.33-2.83-2.61-4.18-4l-4-4.12L571.83,242c-1.37-1.37-2.62-2.86-3.93-4.29L564,233.31c-1.31-1.45-2.62-2.91-3.84-4.45l-7.49-9.17-7.14-9.59A410.54,410.54,0,0,1,521,167.44a316.17,316.17,0,0,1-18.91-46.71c-.49-1.4-.87-2.82-1.28-4.25s-.79-2.84-1.19-4.26-.79-2.84-1.19-4.26-.8-2.83-1.1-4.27q-1-4.31-1.94-8.59c-.31-1.43-.63-2.87-.94-4.3l-.75-4.33-.37-2.16-.19-1.09-.06-.3-.24-1-.46-2.11c-.28-1.4-.63-2.8-.81-4.21-.43-2.83-.81-5.65-1.16-8.49l-.51-4.28c-.16-1.43-.21-2.87-.32-4.32-.73-4.35,1.72-8.35,5.42-8.85A6.8,6.8,0,0,1,500.94,52c0-.34,0-.68,0-1l.38-1.61a6.21,6.21,0,0,1,.95-2.07,6,6,0,0,1,1.66-1.52l1.59-1.08c3-1.41,5.59-3.67,8.77-4.7l1.18.32.35-.26a5.6,5.6,0,0,1,3.27-1.57l1.43.16a14.27,14.27,0,0,1,4.59,1.57,5,5,0,0,1,1.76.32,7.14,7.14,0,0,1,4.73-.19,1,1,0,0,1,1.4.2,1,1,0,0,1,.2.5h0a10.18,10.18,0,0,0,.93-.47,5.87,5.87,0,0,1,.25-.54c.3-.9.3-.9.59-1.68a4.45,4.45,0,0,1,1.27-1c2.62-.6,2.62-.59,3.72-.41a3.07,3.07,0,0,1,.31.17c.41-.57.44-.61.56-.76a2,2,0,0,1,.45-.25c.6,0,.6,0,.82-.08a3.82,3.82,0,0,1,.45,0c.65.37.65.37.84.39a1.92,1.92,0,0,1,.31.21c.17.39.25.55.27.62l-1.6.72.53.21-.73.15.66-.07-.42.4.6-.45a3.45,3.45,0,0,0-.3,1.37,1.41,1.41,0,0,0,0,.8l.35,0c-.32,1-.32,1-.67,2a4.64,4.64,0,0,1-.44.23.43.43,0,0,1,.2.5l-.15.54.08.12h0c.11.19.19.31.27.46l.07.1h0l1.18,2a4.94,4.94,0,0,1-.37.88l.31-.25c.22-.16.77,0,.83-.09A33.44,33.44,0,0,0,547.3,40a.86.86,0,0,1,1.71-.11,13.3,13.3,0,0,1,1.58,7.73,19.58,19.58,0,0,1-2.16,7.78c-.32,1.3-.6,2.61-.87,3.92l.29-.19c-.15.34-.31.68-.45,1a.37.37,0,0,0,0,.11c.32-.27.67-.54,1-.81.1-.18.21-.35.31-.54.49-3,2.15-5.79,3.24-8.65a11.81,11.81,0,0,1,1.14-2.17c.47-.7.95-1.38,1.38-2.09a.79.79,0,0,1,.9-.55.64.64,0,0,1,.58.76,26.09,26.09,0,0,1-.5,7.39A16.33,16.33,0,0,1,552,60.42a4,4,0,0,1-.87,2.51v0l.83-.59c-.19.68-.88,1.07-1.16,1.7l1.15-.29c-.32,1.67-.38,3.39-.56,5.1a20,20,0,0,1-.39,2.54,11.46,11.46,0,0,1-.73,2.47,2.2,2.2,0,0,1-.07.37,17.82,17.82,0,0,1,1.23,1.92c.09.16.17.33.25.5a.77.77,0,0,1,.06.15l.08.54c.05.37.11.74.16,1.11.21,1.49.39,3,.53,4.62,0-2.15-.07-4.25-.1-6.4,0,0,0,.22.07.34l.07.43.15.86.28,1.71c.19,1.15.32,2.31.52,3.47.42,2.32.77,4.69,1,7.16,1.56,13.38,3.33,28.66,2.88,36.53A284.07,284.07,0,0,0,571.77,165a270.07,270.07,0,0,0,20,35.25,5.75,5.75,0,0,1,1.23,2.68c-.14.27-.86-.35-1.65-1.51a249.22,249.22,0,0,1-15.7-24.81c-1.19-2.16-2.28-4.37-3.42-6.56l-1.7-3.29-.84-1.64-.78-1.69c-2-4.5-4.23-8.93-6-13.55a243.72,243.72,0,0,0,21.23,45.6l1.73,2.79,1.85,2.71c1.23,1.8,2.35,3.64,3.44,5.5,1.44,2.33,3.11,4.47,4.67,6.69l2.36,3.29c.78,1.1,1.56,2.2,2.41,3.24,3.35,4.23,6.58,8.52,10.17,12.53a252.36,252.36,0,0,0,22.93,23.54l5.35,4.67,2.63,2.3,2.68,2.17c3.57,2.88,7,5.76,10.7,8.4,1.81,1.34,3.61,2.69,5.43,4s3.73,2.58,5.6,3.89,3.77,2.64,5.73,3.91,4,2.52,6,3.82c1.43.89,2.82,1.83,4.26,2.67l4.29,2.54c2.85,1.68,5.64,3.39,8.53,4.91s5.67,3.17,8.53,4.67l8.6,4.42c11.53,5.72,23.23,11,35.63,16.13,3.33,1.25,6.3,2.76,6.54,3.34s-2.3,0-5.67-1.21c-26.27-9.79-51.48-21.89-75-37.24a322.66,322.66,0,0,1-33.9-25.3,275.17,275.17,0,0,1-30.33-30.54l-3-3.57c-1-1.18-1.92-2.43-2.89-3.64-1.88-2.44-3.81-4.83-5.64-7.28a.49.49,0,0,1-.12.3c-.29.23-.9,0-1.7-.65,1,1.44,2.05,2.82,3.13,4.2l3.2,4.18c1.08,1.39,2.09,2.84,3.24,4.18l3.37,4.09c6.66,7.25,13.83,14,21.14,20.85,1.85,1.69,3.76,3.32,5.64,5s3.74,3.42,5.73,5c3.93,3.27,7.8,6.72,11.94,10,11.21,9.14,21.63,17.23,32.89,24.7a394.8,394.8,0,0,0,46,22.82,6.59,6.59,0,0,1,1.47.78c.19.18-.19.13-.84-.13-11.12-4.23-22.29-9.16-33.33-14.65,1.57,1.2,2.41,2.1,2.06,2.43s-1.9,0-4.07-.81c2.46,1.36,5,2.63,7.45,3.95,1.53.82,2.67,1.62,2.52,1.8s-1.45-.27-2.92-1c-10.26-5.19-20.12-11.09-29.8-17.21A338,338,0,0,1,641,275.09a11.21,11.21,0,0,1,2.28,3.55h0c1.67,1.35,3.41,2.58,5.1,3.87a425.18,425.18,0,0,0,50.59,30.63A462.94,462.94,0,0,0,754,337c.74.27,1.33.56,1.31.66s-.61,0-1.28-.29c-11.47-4.07-22.71-8.65-33.78-13.51l0,0c.42.25.46.39-.06.25a9.62,9.62,0,0,1-1.72-.81c-.48-.31-.38-.39.06-.25a434.87,434.87,0,0,1-58.69-32.18c8.4,5.92,17.17,11.28,26,16.55l6.72,3.76c2.24,1.25,4.46,2.54,6.76,3.7,4.56,2.35,9.08,4.81,13.73,7l6.26,2.54a7.49,7.49,0,0,1,1.48.8c.12.15-.34.06-.93-.17l-1.75-.71c3.51,1.68,6.13,3.19,5.85,3.67-.2.21-1.12.08-2.45-.31a30.29,30.29,0,0,1-4.91-1.91c-4.94-2.25-9.91-4.46-14.73-7-2.41-1.23-4.87-2.39-7.25-3.69l-7.13-3.9c-1-.54-2.1-1.06-3.13-1.62L681.24,308a384.5,384.5,0,0,0,44.83,23.23c1.33.55,2.4,1.17,2.36,1.35s-1.18-.12-2.51-.68a360.19,360.19,0,0,1-79.21-42.37l-6.47-3.86c-2.15-1.31-4.24-2.71-6.38-4.07s-4.3-2.72-6.4-4.17l-6.33-4.41,3,2.57a265.08,265.08,0,0,0,38.78,26.81c3.32,1.85,6.57,3.78,9.92,5.54l10.09,5.31,10.33,5.12,10.64,5a3.89,3.89,0,0,1,1.33.83c0,.13-.49,0-1.22-.38-14.14-6.45-27-12.68-40.44-20.47-1.39-.81-2.79-1.59-4.16-2.4l-4-2.5c-2.66-1.68-5.37-3.25-8-5l-7.7-5.07-1.91-1.25L635.89,286c-1.24-.86-2.49-1.72-3.72-2.59l3.65,2.81,1.83,1.38,1.87,1.32,7.48,5.19c2.48,1.73,5.08,3.27,7.6,4.9s5.06,3.24,7.67,4.71l7.76,4.52c2.61,1.45,5.26,2.84,7.89,4.28l3.94,2.14,4,2L694,320.7A14.76,14.76,0,0,1,696.4,322a1.35,1.35,0,0,1,.6.14c2.84,1.08,5.86,2.39,9,3.7a6.21,6.21,0,0,1,1.59.83C707.81,326.92,707.41,326.84,706.73,326.6ZM536.7,54.68l.2-.14-.35.49-1.4.71ZM531.65,46h0l.81-.39ZM567.74,165.4a194.61,194.61,0,0,1-11.59-33.59L559,139.9c.31,1.07.59,2.15.92,3.22l1,3.18c.7,2.13,1.39,4.26,2.09,6.39s1.53,4.23,2.29,6.35ZM542.05,49a13.1,13.1,0,0,1-2.59,1.9,3.92,3.92,0,0,1,.18,1.56,34.72,34.72,0,0,1-.59,4.23c.5-.19.44.14.49.31l.12.51q.54-2.2,1.2-4.44A28.91,28.91,0,0,1,542.05,49Zm-1.31-10.23.19-.11.73.31Zm-1.25-.5-.11.2C539.1,38.36,539.21,38.3,539.49,38.25Zm-1.06,1.88a2.17,2.17,0,0,0,.42-.25Zm-22.1.42,3.72,1-3.57-1Z"/><path d="M560.08,237.48l-.49-.26a1,1,0,0,1,.92-.4c-4.83-1.77-9.21,1.55-11.37,5.35a2.08,2.08,0,0,0-1.6,2.58,2.39,2.39,0,0,0,2.76,1.66,3.51,3.51,0,0,1,.89.2,19.88,19.88,0,0,0,7.38,2.2l-1.69-.64a5.93,5.93,0,0,0,2.22,0l-.48-.57a4.88,4.88,0,0,0,6.4-3.13,5.49,5.49,0,0,0-3.68-6.56Z"/><path d="M553.46,232c1.62.33,3.2.75,4.8,1.2l.4.32-.73-1.78v.13c-.67,1.88-2.44,3.11-4.12,4.11l-.56.46a1.53,1.53,0,0,0-.24,1.14A1.74,1.74,0,0,0,555,239l1-.14c2.76.28,6.56-.74,6.81-4.23a6,6,0,0,0-.89-2.45,2.41,2.41,0,0,0-2.84-1.71,2.17,2.17,0,0,0-1.6,2.74l-.71-.06.33-.58c0,1.15-1,1.71-1.59,2.52l-1.12.67,1.69,2.56.5-.56c-.09-.11-.24-.25-.24-.27a19.39,19.39,0,0,1,2.95-3.12l1.31-1.53a1.44,1.44,0,0,0-.73-1.79l-1-.38.46.26c-1.93-.11-3.87.07-5.79,0a.57.57,0,0,0-.64.5A.59.59,0,0,0,553.46,232Z"/><path d="M559.36,229.71a1.33,1.33,0,0,0,1.07.1l.09-.28-.71-.31C559.3,229,559.19,229.32,559.36,229.71Z"/><path d="M560.52,229.53l.3.13-.25-.21,0,0Z"/><path d="M440.32,281.55c-12.67,5.51-25.18,11.54-37.5,18-.41.21-.71.47-.67.59s.41,0,.79-.18q18.49-9.59,37.45-17.86c.42-.19.72-.44.72-.58S440.71,281.38,440.32,281.55Z"/><path d="M344.16,323.66c.24-.25.17-.32-.16-.18a3.32,3.32,0,0,0-.95.66c-.19.2-.12.3.16.18A3.27,3.27,0,0,0,344.16,323.66Z"/><path d="M342.27,315.69c1.52-1.29,3-2.52,4.17-3.72a3.61,3.61,0,0,1,.76-.53c-.18-.07,0-.41.58-.88,10.69-9.35,22.88-18.49,35-27.42a1.55,1.55,0,0,1,.3-.72,13.4,13.4,0,0,1,4.1-3.45l1.43-.79c5.67-3.35,11.35-6.68,17.1-9.83a33.89,33.89,0,0,1,3.7-2.78c4.54-3.5,9.12-7,13.92-10.39-.39.06-.66,0-.75-.16-.13-.47.87-1.47,2.24-2.26l2-1.24-6.07,3.18a5.57,5.57,0,0,1-.82.4c-2.17,1.26-4.33,2.59-6.5,4-19,12.09-35.73,25.19-51.92,38.45a3.09,3.09,0,0,1-1,.65c-.21,0-.25-.08,0-.34,9.73-9.09,17.74-17.79,29.5-27.31,14-11.28,28.22-22.11,43.5-32.66,8.28-5,16.21-9.84,24.2-14.79s16.05-9.94,24.64-15c5.81-3.38,11.58-6.65,17.38-9.75l1.09-.59.54-.29.23-.13.86-.51,1.72-1,3.45-1.92c4.61-2.52,9.29-4.84,14.07-7.13,3.44-2.15,7.67-1.2,9.41,2a6.93,6.93,0,0,1,0,6.3l.89-.34,1.55-.18a5.64,5.64,0,0,1,4.06,1.14l1.51,1.07c2.32,2.25,5.27,3.76,7.39,6.32l.15,1.2.37.23a5.75,5.75,0,0,1,2.66,2.43l.4,1.38a14.24,14.24,0,0,1,.3,4.81,4.84,4.84,0,0,1,.36,1.74,7,7,0,0,1,2,4.29,1,1,0,0,1,.35,1.37,1.09,1.09,0,0,1-.4.37h0c.32.29.41.37.8.68l.6,0c1-.06,1-.06,1.84-.09a4.83,4.83,0,0,1,1.49.78c1.59,2.19,1.59,2.2,1.85,3.28,0,.12,0,.23,0,.34.71.16.76.18,1,.24a2.79,2.79,0,0,1,.43.31c.22.56.22.56.39.73a3.22,3.22,0,0,1,.18.42c-.11.73-.11.73-.06.91a1.78,1.78,0,0,1-.08.37l-.5.49-1.34-1.21v.56l-.43-.6.32.58-.55-.25.67.39a3.86,3.86,0,0,0-1.46.24,1.45,1.45,0,0,0-.77.34,2.72,2.72,0,0,1,.15.31c-1.14.1-1.14.1-2.27.16a3.05,3.05,0,0,1-.38-.32.48.48,0,0,1-.43.38l-.57.07-.09.12,0,.05-.36.43-.07.1h0l-1.53,1.86a5.56,5.56,0,0,1-1,0l.36.19c.24.14.27.71.38.73a39.64,39.64,0,0,0,7.93,0,.89.89,0,0,1,1.15.41.81.81,0,0,1-.38,1.11c-3.89,4.36-10,5.75-15.87,5.16-1.42.16-2.83.36-4.24.58l.28.2-1.18-.05-.12,0,1.14.67c.22,0,.43.07.65.09,3.22-.63,6.58,0,9.91,0a43,43,0,0,1,5.28.75.81.81,0,0,1,.9.62.69.69,0,0,1-.57.83c-4.82,2.14-10.79,3.25-16.05,1.38a4.77,4.77,0,0,1-2.87,0h0l.87.58c-.76,0-1.38-.47-2.11-.53l.64,1c-3.65.46-7.19,2-10.92,1.58a2.58,2.58,0,0,1-.39,0,22.06,22.06,0,0,1-1.67,1.68c-.15.13-.3.26-.46.38l-.13.09-.32.16-.66.31c-.89.41-1.82.8-2.8,1.17l4.08-1.05a56.65,56.65,0,0,1-8.48,3.73c-8.35,2.85-18.24,4.85-23.68,4.24-15.85,6.65-31.56,13.75-46.87,21.53a2.68,2.68,0,0,1-1.86.42c-.21-.19.21-.66,1-1.07,10.73-6.07,21.93-11.67,33.28-17-9.86,3.65-19.7,7.58-29.48,12.11l-3.68,1.88a40.16,40.16,0,0,1-3.75,1.64c-12.39,6-24.09,11.89-36.15,19.11-10.3,6.17-19.19,11.78-29.15,18.38-14,9.31-26.53,18-40.43,27.14-1.81,1.26-3.71,2.15-4.18,1.95s.63-1.4,2.44-2.69c14-10.19,28.1-20.08,42.66-29.57q10.94-7.11,22.31-13.86c7.63-4.46,15.43-8.82,23.5-12.94,3.49-1.77,6.93-3.49,10.36-5.18a.65.65,0,0,1-.21-.19c-.17-.31,0-.76.42-1.27l-11.87,5.68C409,291,398.57,297.47,387.11,303.74c-7.89,4.28-15.16,8-22.53,11.91-8.74,5.86-17.33,11.89-26,18a2.46,2.46,0,0,1-.9.49c-.18,0,0-.18.3-.45,5.75-4.53,11.72-9.07,17.86-13.51-1.18.4-2,.46-2.16.05s.37-1.26,1.4-2.28l-4.33,2.83c-.89.57-1.69.89-1.78.7s.49-.82,1.33-1.38c5.86-3.88,11.74-7.71,17.68-11.43,7-4.74,14-9.36,21.09-13.87a5.45,5.45,0,0,1-2.74.2h0c-1.11.68-2.21,1.38-3.31,2.07-19.57,13.72-39.54,27.67-59.59,41.94-.39.28-.76.46-.82.39s.2-.34.55-.59L341.25,326h0c-.28.12-.39.07-.16-.18a3.79,3.79,0,0,1,.95-.67c.32-.13.35,0,.16.18l33.47-23.54c-10.55,6.77-21,13.71-31.41,20.66l-3.18,2.64a2.49,2.49,0,0,1-.91.49c-.13,0,0-.25.34-.49l.89-.73c-2,1.32-3.69,2.05-3.95,1.62s1.24-2,3.26-3.41c5.35-3.89,10.73-7.69,16.19-11.39l1.72-1.27,1.63-1.43q-13,8.26-25.58,16.92c-.7.52-1.39.84-1.51.71s.37-.67,1.08-1.19c14.09-11.14,28.76-21.95,43.92-32.2l6.86-6.1c2.3-2,4.62-4.09,7-6.15l-2,1.23a271.86,271.86,0,0,0-23,16.68c-7.19,5.7-14.22,11.41-21.93,17.17a1.56,1.56,0,0,1-.86.43c-.09,0,.12-.31.52-.6,7.47-5.7,14.07-11.27,21.46-17,6.15-4.75,12-9.25,17.7-13.77-12.22,8.27-23.31,17.13-34.91,25.94a5.75,5.75,0,0,1-1.42.89c0,.07-.08.18-.22.32-1.33,1.28-2.85,2.57-4.39,3.89a2.52,2.52,0,0,1-.94.56C341.82,316.2,342,316,342.27,315.69Zm198.56-86.57.2.14-.6-.16-1.15-1Zm6.65-7.73h0l.66.61Zm-80.83,43.89a177.5,177.5,0,0,1,21.1-7.89l-4.95,2.26Zm81.64-33.17a13.28,13.28,0,0,1-2.79-1.74,4.35,4.35,0,0,1-1.49.7c-1.45.39-2.9.68-4.35.92.35.39,0,.45-.14.56l-.47.29c1.57-.19,3.16-.33,4.79-.44A33.14,33.14,0,0,1,548.29,232.11Zm9.52-5.08.18.13,0,.8Zm0-1.34-.24,0C557.55,225.37,557.65,225.45,557.81,225.69Zm-2.23-.27a1.49,1.49,0,0,0,.41.29Zm-8.76-20.2.5,3.78-.38-3.67Z"/></svg>