<svg id="Layer_1" data-name="Layer 1" xmlns="http://www.w3.org/2000/svg" viewBox="0 0 1080 659.61"><path d="M527.21,415.89c.2-.07.41-.12.61-.18a1.75,1.75,0,0,1-.69,1.16,15.08,15.08,0,0,0,6.41-5.94,26,26,0,0,0,3.17-8.08c1.23-1.1,1.71-2.73,1-3.73s-2.44-.93-3.75.23a5.11,5.11,0,0,1-1.11.47,17.94,17.94,0,0,0-4.68,1.36,26.29,26.29,0,0,0-4.59,2.53l2.15-.84a11.21,11.21,0,0,0-2.5,1.94l.78.14c-3.49,1.58-6,5.79-5.28,9s3.88,4.24,7,2.6Z"/><path d="M536.38,415.73c-1.71.87-3.49,1.66-5.21,2.55l-.55,0,1.62,1-.08-.1c-.37-2.22.77-4.74,2-6.93l.37-.85a1.58,1.58,0,0,0-.25-1.26c-.55-.75-1.72-.7-2.62.11l-1,.95c-3,1.9-6.25,6.3-4.52,9.59.4.74,1.39,1,2.17,1.36a2.58,2.58,0,0,0,3.53-.85,2.7,2.7,0,0,0,.07-3.69c.23-.17.46-.34.7-.5,0,.26,0,.52,0,.78-.63-1,.1-2.31.32-3.53.26-.49.52-1,.8-1.47l-2.89-1.1-.25.93a2.29,2.29,0,0,1,.37.05,48.3,48.3,0,0,1-1.35,5.26c-.15.81-.31,1.61-.42,2.43a1.2,1.2,0,0,0,1.64,1c.36-.14.71-.3,1.08-.43l-.56.14c.92-.72,1.81-1.49,2.7-2.24a33.64,33.64,0,0,1,2.77-2.1.81.81,0,0,0,.38-.91A.53.53,0,0,0,536.38,415.73Z"/><path d="M532,422.21a1.8,1.8,0,0,0-1,.78,3,3,0,0,0,.08.31l.81-.31C532.44,422.78,532.35,422.41,532,422.21Z"/><path d="M531.05,423.3l-.35.12h.35v-.11Z"/><path d="M564.27,559.49l-2.58,1.89c-.84.64-1.63,1.31-2.44,2-1.61,1.31-3.31,2.58-4.78,4l-2.28,2c-.77.68-1.55,1.36-2.22,2.08l-.51.52-.16.18-.33.37c-.21.24-.61.55-.87.85a23.38,23.38,0,0,0-3.1,4.07,6.22,6.22,0,0,0-.77,2.45,3.83,3.83,0,0,0,.64,2.44,11.74,11.74,0,0,0,4,3.13,27.14,27.14,0,0,0,4.82,2.07,1.94,1.94,0,0,0,.36.11l.49.15,1.35.42c.91.26,1.85.47,2.77.72,1.87.43,3.76.84,5.7,1.12a84,84,0,0,0,11.84,1,5,5,0,0,0,2-.23c.05-.11-.79-.22-1.79-.2a86.27,86.27,0,0,1-11.79-1c-1.92-.28-3.8-.69-5.66-1.11l-2.75-.7c-.84-.27-2-.63-2.31-.71a27,27,0,0,1-4.58-2,11.94,11.94,0,0,1-3.86-2.94,3.52,3.52,0,0,1-.68-2.29,5.55,5.55,0,0,1,.68-2.34,20.53,20.53,0,0,1,2.91-3.87,9.5,9.5,0,0,1,.85-.83l.3-.34.16-.16.07-.09.23-.24,1.05-1.06,1.14-1,2.27-2c.77-.67,1.47-1.38,2.3-2l2.44-2,2.42-2,2.56-1.88a6.33,6.33,0,0,0,1.65-1.54C565.85,558.47,565.13,558.86,564.27,559.49Z"/><path d="M735.09,552.4c-1,0-.93.1,0,.26s2.35.37,3.3.46.81,0,0-.26A15.27,15.27,0,0,0,735.09,552.4Z"/><path d="M727.22,560.42A60.39,60.39,0,0,0,714,563.84c-.75.28-1.6.53-2.26.7.34.07-.54.52-2.25,1.17-16.91,6.44-33.59,15.6-51.13,24.73-8.78,4.56-17.82,9.08-27.26,13.13a192.94,192.94,0,0,1-29.6,10.17,6.09,6.09,0,0,1-1.66.82,41,41,0,0,1-6.13,1.74c-1.31.26-2.72.51-4.2.75s-3,.37-4.6.52-3.16.18-4.74.23a116.33,116.33,0,0,1-14.45-.32,96.67,96.67,0,0,1-14.45-2.27l-1.8-.41-1.78-.5-2-.55a20.35,20.35,0,0,1-2.22-.7c-1.47-.53-3-1-4.4-1.58l-4.31-1.76a67.13,67.13,0,0,1-15.12-9.43,28,28,0,0,1-5.26-5.28,19.35,19.35,0,0,1-3.52-7.64,21.8,21.8,0,0,1-.43-7.41,30.54,30.54,0,0,1,1.7-7.2,32.91,32.91,0,0,1,3.3-6.89q2.22-3.35,4.45-6.69c.75-1.13,1.48-2.26,2.35-3.35.42-.55.82-1.1,1.27-1.66l1.42-1.66,2.56-3c.67-.82,1.38-1.58,2.1-2.33l4.33-4.55c1.47-1.48,3-2.86,4.5-4.31-.88.58-1.48.86-1.61.7-.07-.55,2.56-3.53,6.06-6.26,1.74-1.42,3.46-2.9,5.23-4.21-1.29.91-2.56,1.91-3.83,2.91l-3.82,3c-2.53,2-5,4.23-7.5,6.35-.7.67-1.35,1.27-2,1.81l-3.92,3.86c-.66.64-1.26,1.38-1.9,2.06l-2.66,3c-.45.51-.94,1-1.35,1.53L520,554.55c-.83,1-1.55,2.06-2.27,3.12L513.3,564l-1.2,1.74c-.35.59-.65,1.19-1,1.78a31.82,31.82,0,0,0-1.66,3.63c-.49,1.22-.88,2.46-1.28,3.69s-.61,2.51-.82,3.78a29.15,29.15,0,0,0-.36,3.86,25.61,25.61,0,0,0,.24,3.9,20.92,20.92,0,0,0,.87,3.82c.18.62.41,1.23.64,1.83s.54,1.17.83,1.75a27.52,27.52,0,0,0,4.36,6.15,34.36,34.36,0,0,0,2.73,2.66c1,.83,2.09,1.61,3.13,2.41a67.68,67.68,0,0,0,14.37,7.86l3.91,1.5,4,1.3c.66.21,1.32.45,2,.64s1.3.32,2,.47l3.08.74a105.91,105.91,0,0,0,12.21,1.83,116.49,116.49,0,0,0,23.87-.4c15.62-1.94,30-6.61,43.33-12.29s25.76-12.34,37.86-18.82a21,21,0,0,1,2.8-1.35c.52-.15.49,0-.39.5-15,8.55-29.27,17.13-45.69,24.28a160.57,160.57,0,0,1-26.68,9,115.79,115.79,0,0,1-31.95,3.21c-.86,0-1.72-.06-2.59-.12l-2.59-.21c-1.73-.12-3.47-.36-5.21-.59s-3.48-.56-5.22-.85c-.87-.14-1.74-.35-2.61-.54l-3.06-.71a10.44,10.44,0,0,1-1.82-.5l-1.79-.57-3.6-1.15-3.53-1.33-1.78-.66a12.63,12.63,0,0,1-1.73-.73l-3.33-1.65c-1.12-.55-2.25-1.09-3.28-1.73l-3.18-1.86c-.52-.32-1.09-.6-1.56-.95l-1.39-1.07a51.26,51.26,0,0,1-5.34-4.46,36.17,36.17,0,0,1-4.19-5.17l-.89-1.4c-.27-.49-.54-1-.8-1.48a24.73,24.73,0,0,1-1.38-3.1c-.37-1.07-.73-2.17-1-3.29s-.48-2.26-.62-3.4a34.31,34.31,0,0,1,1.21-13.49A37,37,0,0,1,505.6,566l.78-1.61c.31-.53.66-1,1-1.57l2-3.14,4.08-6.31a56.31,56.31,0,0,1,4.83-6.26l2.54-2.93c.56-.65,1.1-1.34,1.68-2l3.5-3.7c2.32-2.53,4.75-4.77,7.18-7.08l1.82-1.72,1.85-1.63,3.71-3.23c9.93-8.48,20.08-15.77,29.69-22.8,10.24-7,19.63-13.72,27.67-20.63,1.06-.85,2-1.73,2.94-2.61l2.84-2.61c1-.86,1.75-1.77,2.64-2.65l2.58-2.65a63.27,63.27,0,0,0,7.71-10.27c.54-.84.91-1.67,1.38-2.48s.81-1.62,1.08-2.39a23.44,23.44,0,0,0,1.36-4.31,15.17,15.17,0,0,0,.36-3.48,11.53,11.53,0,0,0-.39-2.59,15,15,0,0,0-2.69-4.92,16.52,16.52,0,0,0-5-4.22,20.06,20.06,0,0,0-8.88-2.05,25.22,25.22,0,0,0-10.59,2.14c-.4.19-.8.34-1.22.58l-.64.31-.11.08-.35.28-.7.52c-.45.39-.92.7-1.37,1.09a58.3,58.3,0,0,0-5.5,4.91,2.54,2.54,0,0,1-2.77,1,9.14,9.14,0,0,1-4.22-2,8.55,8.55,0,0,1-3.26-5l-.46.43-1,.43a5,5,0,0,1-3.46,0l-1.66-.42c-2.92-1.12-5.93-1.21-9-2.28l-.81-.87-.41,0a6.31,6.31,0,0,1-3.43-.64l-1.12-.88a13.13,13.13,0,0,1-3-3.7,4.8,4.8,0,0,1-1.27-1.23,6.78,6.78,0,0,1-4-2.4.93.93,0,0,1-1-.93,1.18,1.18,0,0,1,.14-.58h0a10.47,10.47,0,0,0-1-.06c-.33.24-.54.37-.54.37-.81.71-.81.71-1.54,1.31a5.42,5.42,0,0,1-1.71.39c-2.61-.67-2.62-.65-3.46-1.37a3.18,3.18,0,0,1-.16-.32c-.72.41-.77.44-1,.54a2.56,2.56,0,0,1-.55.07c-.52-.29-.52-.29-.77-.3a2.75,2.75,0,0,1-.39-.21c-.32-.7-.32-.7-.47-.81a2.19,2.19,0,0,1-.14-.37c.11-.52.16-.73.18-.82l1.87,0-.31-.48.72.19-.61-.25.62-.22-.81.19a6.87,6.87,0,0,0,1.2-1.33,2.44,2.44,0,0,0,.53-.89,1.63,1.63,0,0,1-.3-.16c1-.95,1-1,2-1.83a4.42,4.42,0,0,1,.52,0,.65.65,0,0,1,.22-.64l.51-.47,0-.17,0,0c0-.26.08-.44.13-.64v-.14h0l.66-2.77a8.84,8.84,0,0,1,1-.69l-.44.07c-.3,0-.6-.48-.71-.42a35,35,0,0,0-7.74,6,1.11,1.11,0,0,1-1.31.58.89.89,0,0,1-.22-1.31,20.86,20.86,0,0,1,5.19-9.85,27.06,27.06,0,0,1,9.29-6.56c1.6-1,3.14-2,4.76-3l-.39-.05,1.4-.56.13-.08-1.49-.12-.78.25c-3.63,2.39-7.64,3.89-11.36,6.27-2,1.28-4.07,2.08-6.06,3.31-.41.39-.95.46-1.23.14a1,1,0,0,1,.27-1.28c4.25-6.16,11.36-11.67,18.22-12.5a7.42,7.42,0,0,1,3.56-1.44l.06,0-1.17-.2c.94-.42,1.78-.16,2.71-.42l-.94-.76c4.51-2.21,9.13-5.2,14.09-5.65a3.3,3.3,0,0,1,.52-.13,27.76,27.76,0,0,1,2.37-2.21l.66-.51a1.43,1.43,0,0,1,.23-.14l1.29-.54c.87-.35,1.73-.72,2.63-1.05a78,78,0,0,1,11.48-3.24c-1.37.25-2.73.5-4.08.79s-2.7.63-4,1-2.67.77-4,1.19l-3.66,1.27,0,0,.23-.1.51-.22,1-.44c.69-.28,1.37-.57,2.07-.84,1.41-.52,2.83-1.05,4.27-1.52a79.74,79.74,0,0,1,8.82-2.27,75.8,75.8,0,0,1,45.21,4.95,73.23,73.23,0,0,1,12.11,6.89,70.05,70.05,0,0,1,10,8.8,68.91,68.91,0,0,1,7.56,9.76,62.16,62.16,0,0,1,5.14,10,53.15,53.15,0,0,1,4,17.51c.22,1.07.42,2.15.55,3.25s.29,2.18.38,3.29l.19,3.33c.07,1.12,0,2.19,0,3.28a62.74,62.74,0,0,1-.48,6.46c-.12,1.07-.33,2.11-.5,3.16s-.37,2.09-.63,3.1l-.75,3-.92,2.93c-.29,1-.64,1.94-1,2.87s-.72,1.89-1.1,2.8a85.5,85.5,0,0,1-5.27,10.33,104.23,104.23,0,0,1-13.09,17.25c-2.37,2.55-4.85,5-7.29,7.21L635.75,510c-1.23,1.12-2.5,2.1-3.75,3.15a315.58,315.58,0,0,1-30.42,21.79c-10,6.5-19.79,12.55-28.7,18.87a14.35,14.35,0,0,1-4.06,2.33c-.35-.08.71-1.15,2.52-2.48,12.6-9.35,27-18.1,41.59-28.31a252.8,252.8,0,0,0,21.68-17l5.23-4.86c1.74-1.67,3.48-3.47,5.16-5.3a108,108,0,0,0,9.52-11.93,101.86,101.86,0,0,1-8.14,9.88c-.71.78-1.43,1.53-2.16,2.27s-1.45,1.49-2.2,2.19l-2.24,2.13-2.24,2L633,508.6l-4.6,3.66-2.3,1.82-2.34,1.7-4.67,3.41c-12.52,8.74-25.26,16.25-37.24,23.91l-4.53,3-4.44,3-4.32,3c-1.41,1-2.9,1.92-4.27,2.92L559.19,559l-4.85,4c-1.59,1.36-3,2.79-4.57,4.18l-1.13,1c-.37.35-.7.73-1,1.09l-.46.49-.23.26-.47.53c-.3.36-.75.75-1.08,1.15l-1,1.26a30,30,0,0,0-2,2.57,12,12,0,0,0-1.43,2.87,5.8,5.8,0,0,0-.22,3.17,5.4,5.4,0,0,0,1.64,2.72,13.79,13.79,0,0,0,2.62,1.88,31.2,31.2,0,0,0,5.86,2.73c.5.2,1,.33,1.54.49l.77.24.46.11.63.17,1.4.4,1.43.33c.95.21,1.9.46,2.88.61a76,76,0,0,0,12,1.32,95.82,95.82,0,0,0,10.46-.26c3.46-.3,6.83-.71,10.26-1.35a141.91,141.91,0,0,0,20.22-5.35c13.41-4.54,26.65-10.77,41.13-17.82,10.19-4.94,20.39-9.93,31-14.38,5.29-2.22,10.68-4.3,16.19-6.17a124.05,124.05,0,0,1,17.64-4.79,59.61,59.61,0,0,1,21-.36,44.12,44.12,0,0,1,21,9.81,55.5,55.5,0,0,1,13.37,16.94,76.48,76.48,0,0,1,6.66,18.92c1.51,6.65,1.83,12.48,1.5,13.26s-1.24-3.56-2.54-10a81.59,81.59,0,0,0-6.38-19.3,54.75,54.75,0,0,0-13.32-17.5,43.7,43.7,0,0,0-9.91-6.45,42.75,42.75,0,0,0-11.43-3.43,59.9,59.9,0,0,0-21.48,1c-3.28.68-6.42,1.54-9.45,2.46s-5.9,1.9-8.81,2.93c-5.79,2.08-11.43,4.37-17,6.78-11.06,4.82-21.66,10.09-32.14,15.11s-20.85,9.76-31.38,13.61a142,142,0,0,1-31.88,8,87.45,87.45,0,0,1-31.51-1.88l-1.86-.54c-.51-.14-.9-.22-1.28-.36-.77-.27-1.56-.48-2.32-.79s-1.53-.58-2.27-.93-1.49-.68-2.22-1.07-1.43-.8-2.14-1.22a17.47,17.47,0,0,1-2-1.39,6.81,6.81,0,0,1-2.7-4,7.17,7.17,0,0,1,.56-4.16,17,17,0,0,1,2.13-3.64c.87-1.1,1.76-2.18,2.64-3.26.42-.53,1-1,1.4-1.49s.68-.78,1.64-1.78c-.15,0-.29.05-.35,0-.26-.25.06-1.15,1-2.37-.49.45-1,.89-1.45,1.38l-1.2,1.26c-.53.57-1.06,1.15-1.7,1.78-1.15,1.28-2.23,2.64-3.36,4A18.83,18.83,0,0,0,537,578.2a7.33,7.33,0,0,0-.29,5.19,8,8,0,0,0,2.33,2.87,20.36,20.36,0,0,0,3.13,2,41.17,41.17,0,0,0,6.67,3c1.13.42,2.29.73,3.43,1.06l.47.11.54.14,1.3.35c.87.24,1.77.4,2.65.6a79.46,79.46,0,0,0,10.9,1.55,100.72,100.72,0,0,0,11.28.2,115.2,115.2,0,0,0,11.47-1.1,156.23,156.23,0,0,0,23.53-5.55,334.62,334.62,0,0,0,31.52-12c10.24-4.37,20.37-8.94,30.88-13.28,6.56-3,13.23-5.86,20.09-8.44Q702,553,707.29,551.3a107.58,107.58,0,0,1,11.09-2.94,63,63,0,0,1,12.1-1.38,43.83,43.83,0,0,1,12.94,1.69c1.09.28,2.15.71,3.22,1.08s2.11.86,3.11,1.4a39.66,39.66,0,0,1,5.74,3.51,46.18,46.18,0,0,1,9.22,9.14,16.2,16.2,0,0,1,1.79,2.7c.19.46-.27-.1-1.08-1.19a45.56,45.56,0,0,0-13.12-12,37.92,37.92,0,0,0-8.55-3.74,41.12,41.12,0,0,0-9-1.56,59.77,59.77,0,0,0-17.09,1.61c-2.69.61-5.31,1.34-7.87,2.14-1.29.39-2.53.82-3.78,1.24s-2.49.85-3.72,1.3c3.24-.77,5.27-.91,5.15-.42s-2.43,1.68-6,3.24c4.46-1.53,8.94-3,13.65-4.13,2.9-.7,5.29-.94,5.24-.7s-2.33.87-5.06,1.54a202.33,202.33,0,0,0-27.17,9.35c-8.78,3.63-17.34,7.64-25.83,11.66-10.13,5-20.15,9.92-30.37,14.27a191.45,191.45,0,0,1-31.36,10.63,31.49,31.49,0,0,1,6.53-.27h0c3.31-.94,6.61-1.92,9.85-3,14.83-5.37,29.09-12.5,43.51-19.67s29.1-14.42,44.78-19.79c7.79-2.65,16-5.07,24.86-5.3a38.71,38.71,0,0,1,13.29,1.88,34.48,34.48,0,0,1,11.76,6.8c6.8,5.93,11.37,13.83,14.11,22s4,16.6,5,24.78a8.69,8.69,0,0,1,.14,2.39,6.68,6.68,0,0,1-.44-2.1c-1.27-9.86-2.75-20.08-6.91-29.73a49.79,49.79,0,0,0-8.41-13.37,36.73,36.73,0,0,0-13-9.52l.08,0c.78.41.88.58,0,.26s-2.39-.86-3.19-1.2-.82-.43,0-.27a40.78,40.78,0,0,0-14.82-1.49,72.48,72.48,0,0,0-14.14,2.6,209.08,209.08,0,0,0-26.12,9.6c-16.88,7.36-32.81,16.09-49.08,23.6,15.23-6.73,30.09-14.51,45.53-21.26a242.5,242.5,0,0,1,23.64-9.06,104.61,104.61,0,0,1,12.37-3.28,54.93,54.93,0,0,1,13-1.05,35.47,35.47,0,0,1,11.51,1.93,12.07,12.07,0,0,1,2.63,1.32c.22.22-.51-.09-1.54-.49s-2.05-.74-3.09-1.07a25.24,25.24,0,0,1,7.46,3.89c1.67,1.3,2.46,2.29,2.26,2.45-.62.24-5.14-3.11-11.52-4.81a38.11,38.11,0,0,0-13.07-1,70.93,70.93,0,0,0-12.92,2.43,213.25,213.25,0,0,0-24.73,8.93c-1.74.76-3.46,1.56-5.19,2.35s-3.41,1.72-5.09,2.61c6.21-2.8,12.49-5.44,18.85-7.82q4.79-1.79,9.62-3.34c3.23-1,6.48-2,9.76-2.72,6.54-1.5,13.32-2.21,19.8-1a29.84,29.84,0,0,1,9.15,3.34,33.2,33.2,0,0,1,7.63,6.09c1.58,1.61,2.62,3.25,2.5,3.39s-1.32-1.2-2.86-2.79a29.72,29.72,0,0,0-14.26-8.34,39.89,39.89,0,0,0-16.82,0,107.79,107.79,0,0,0-16.85,4.9c-5.57,2-11.07,4.3-16.52,6.73-21.79,9.75-42.8,22.07-66,30.88a178.58,178.58,0,0,1-23.23,8.47,124.08,124.08,0,0,1-25.25,4.48c1.1,0,2.2,0,3.31-.07s2.22-.06,3.32-.16c14.15-1,27.12-4.56,39.14-9.06a313.69,313.69,0,0,0,33.9-15.67c10.79-5.61,21.31-11.38,32.2-16.57,5.44-2.6,11-5.06,16.68-7.27a119.33,119.33,0,0,1,17.48-5.52,8.39,8.39,0,0,1,2.37-.27c.14.07-.65.32-1.85.54a111.37,111.37,0,0,0-16.92,5.32c-5.51,2.12-10.87,4.51-16.17,7-10.6,5-21,10.7-32,16.43-9.15,4.75-18.25,9.28-27.53,13.28a199,199,0,0,1-28.55,10,175.83,175.83,0,0,0,28.75-9.37c9.12-3.8,17.84-8.08,26.38-12.44,17-8.7,33.5-17.79,51.14-24.27a30.3,30.3,0,0,1,4.13-1.29,3.34,3.34,0,0,1,.83-.42,70.81,70.81,0,0,1,14-4,10.49,10.49,0,0,1,2.61-.15C728.8,560.14,728.24,560.26,727.22,560.42Zm-177-149.57-.26,0,.67-.14,1.53.47Zm-3.14,10.66h0l-.89-.17Zm84.45,87c2.15-1.78,4.22-3.75,6.33-5.62s4.2-4,6.22-6.12a106.8,106.8,0,0,0,11.32-14.13,77.72,77.72,0,0,0,8.78-17.26A64,64,0,0,0,668,444.74a62.8,62.8,0,0,1-3,20.37,81.33,81.33,0,0,1-14.49,25.1,117.3,117.3,0,0,1-9.22,9.86c-.81.74-1.62,1.54-2.43,2.24l-2.43,2.09C634.8,505.77,633.21,507.24,631.53,508.51Zm-90-96.37a11,11,0,0,1,3.53,0,6.13,6.13,0,0,1,1.23-1.51,34.11,34.11,0,0,1,4.23-3.15c-.5-.22-.15-.45,0-.63l.42-.51-2.46,1.41-2.46,1.49C544.46,410.15,543,411.3,541.48,412.14Zm-6.63,11.18a2,2,0,0,0-.24,0l-.41-.7Zm.74,1.15.23-.15C536,424.55,535.86,424.56,535.59,424.47Zm2.13-1.38a1.53,1.53,0,0,0-.52,0Zm18.46,11.64-2.53-2.79c.78.93,1.57,1.84,2.37,2.75Z"/><path d="M420.14,406.69l-.34-.34c.12-.25.38-.3.69-.22a4.29,4.29,0,0,0-5-.41,4.56,4.56,0,0,0-1,.72,8.08,8.08,0,0,0-.91,1,9.56,9.56,0,0,0-1.33,2.43c-.88.1-1.29,1.25-.93,2.4a2.34,2.34,0,0,0,2.13,1.84,2.18,2.18,0,0,1,.64.29,16,16,0,0,0,2.54,1.81c.42.25.83.43,1.24.65s.83.41,1.24.58l-1.11-.89a2.79,2.79,0,0,0,1.42.37l-.32-.63a2.33,2.33,0,0,0,2.48.39,3.23,3.23,0,0,0,1.58-2.34c.59-2.47-.19-5.64-2.13-7Z"/><path d="M415.31,400.37a24.62,24.62,0,0,1,3.71,1.84l.29.38-.45-1.85v.13a7.16,7.16,0,0,1-3.35,3.43l-.43.38a1.63,1.63,0,0,0-.17,1.07,1.81,1.81,0,0,0,1.46,1.64h.76c2,.57,4.66.36,5.17-3a7.75,7.75,0,0,0-.42-2.53,2.16,2.16,0,0,0-2-2.15,1.87,1.87,0,0,0-1.45,2.37c-.18-.06-.37-.13-.54-.17.09-.19.19-.34.29-.51-.05,1.09-.84,1.56-1.33,2.26l-.87.51,1.24,2.71.38-.48-.18-.28c.36-.49.71-1,1.08-1.45a7.55,7.55,0,0,1,1.25-1.15l1.1-1.25a1.73,1.73,0,0,0-.4-1.86l-.72-.53.34.32c-.75-.22-1.52-.36-2.29-.52s-1.54-.2-2.32-.38a.43.43,0,0,0-.54.4A.66.66,0,0,0,415.31,400.37Z"/><path d="M420.15,399c.27.18.53.39.84.28a2.19,2.19,0,0,0,.1-.26l-.53-.42C420.18,398.34,420.06,398.64,420.15,399Z"/><path d="M421.09,399.06l.22.18-.17-.25,0,0Z"/><path d="M405.65,528.68a77.93,77.93,0,0,0,35.07,6.48,65.83,65.83,0,0,0,17.28-3.3A67.26,67.26,0,0,0,474,524c.69-.42,1.18-.89,1.13-1s-.6.19-1.22.58A67,67,0,0,1,458,531.37a65.46,65.46,0,0,1-17.11,3.29,73.92,73.92,0,0,1-17.66-1.13,82.25,82.25,0,0,1-17.14-5.21,3.23,3.23,0,0,0-1.54-.4C404.48,528,405,528.37,405.65,528.68Z"/><path d="M501.92,421.2c.41.54.49.46.19-.18a11.78,11.78,0,0,0-1.25-2c-.36-.44-.45-.35-.18.18A13.92,13.92,0,0,0,501.92,421.2Z"/><path d="M512,422.75c2.18,3.72,4,7.38,5.64,10.7a13.6,13.6,0,0,1,.7,1.91c.07-.29.53.42,1.11,1.88a91.73,91.73,0,0,1,5.91,23.08,90.08,90.08,0,0,1-.49,24.79c-.27,2.08-.77,4.12-1.16,6.19l-.77,3.07c-.25,1-.51,2-.85,3.05-.67,2-1.21,4.1-2,6.07s-1.51,4-2.46,5.93a96.47,96.47,0,0,1-13.71,21.76,4.23,4.23,0,0,1-.62,1.42,37.24,37.24,0,0,1-3.16,4.1c-.7.81-1.55,1.59-2.41,2.43s-1.76,1.7-2.75,2.48l-3,2.31a95.74,95.74,0,0,1-19.79,11.66,90.6,90.6,0,0,1-22,6.44c-.75.2-1.54.43-2.36.6l-2.57.47-2.72.45c-.94.11-1.9.19-2.88.27a106,106,0,0,1-39.75-2.72c.76.4,1.2.73,1.14.92-.38.36-3.56-.14-7.05-1.39-1.76-.65-3.54-1.23-5.26-2A121.14,121.14,0,0,0,403.85,564c.75.2,1.44.41,2.06.61a110.77,110.77,0,0,0,17.83,2.72A99.64,99.64,0,0,0,463,562.26,95.28,95.28,0,0,0,495.9,542.6a104.47,104.47,0,0,0,12.54-13.86A101.79,101.79,0,0,0,518,513a98.13,98.13,0,0,0,6.24-17.09,96.15,96.15,0,0,0,2.89-17.65,18.85,18.85,0,0,1,.27-2.68c.13-.45.25-.36.23.52a100.66,100.66,0,0,1-2.74,22,93.61,93.61,0,0,1-7.58,21,96.32,96.32,0,0,1-13,19.59A95,95,0,0,1,485,555.89c-1.11.82-2.32,1.48-3.48,2.22s-2.34,1.47-3.57,2.11c-2.44,1.29-4.87,2.64-7.44,3.72a99.29,99.29,0,0,1-15.8,5.62,110,110,0,0,1-33.14,3.35A121.74,121.74,0,0,1,405,571l-4.09-.87-2-.45-2-.53L392.78,568l-4-1.28c-2.69-.82-5.27-1.9-7.91-2.89-1.3-.53-2.58-1.11-3.88-1.67s-2.59-1.12-3.85-1.77l-3.8-1.9c-1.27-.64-2.49-1.37-3.73-2.06-2.49-1.37-4.95-2.88-7.38-4.47a121.9,121.9,0,0,1-26.68-25.17,102.15,102.15,0,0,1-10.31-16.28,93.48,93.48,0,0,1-7.06-18.8,103.15,103.15,0,0,1-2-39.32,122.25,122.25,0,0,1,11.22-36.92A123.56,123.56,0,0,1,337.25,393a128.53,128.53,0,0,1,18.07-19.17c.81-.75,1.7-1.41,2.55-2.11l1.29-1,.29-.25,1-.84c.64-.55,1.27-1.11,1.92-1.65,1.34-1,2.68-2,4-3l2.05-1.49c.69-.49,1.41-.93,2.12-1.39q2.15-1.36,4.32-2.7c1.46-.88,3-1.65,4.51-2.46s3-1.64,4.63-2.33a11.65,11.65,0,0,1,6.93-1.52,6.26,6.26,0,0,1,4.8,3,6.18,6.18,0,0,1-.72,6.38l1.11-.34,1.88-.19a6.54,6.54,0,0,1,4.66,1.2l1.63,1.17c2.38,2.41,5.44,4.13,7.3,6.9l0,1.19.36.28a5.56,5.56,0,0,1,2.4,2.77l.19,1.41a14.66,14.66,0,0,1-.41,4.73,5.19,5.19,0,0,1,.14,1.75,7.23,7.23,0,0,1,1.35,4.48,1,1,0,0,1,.17,1.38.84.84,0,0,1-.41.29h0a10,10,0,0,0,.65.79c.34.07.54.13.54.13.88.1.88.1,1.64.21a4.51,4.51,0,0,1,1.19,1c1.09,2.39,1.07,2.39,1.15,3.49a3.2,3.2,0,0,1-.07.33,6.47,6.47,0,0,1,.76.39,2.1,2.1,0,0,1,.3.37c.11.58.11.58.23.78a3.92,3.92,0,0,1,.09.44c-.18.69-.18.69-.16.88a2.86,2.86,0,0,1-.1.34l-.45.39-.94-1.39-.06.54-.28-.66.2.61-.42-.32.5.49c-.86-.1-.87-.1-1.19,0a1.06,1.06,0,0,0-.66.19,2.69,2.69,0,0,1,.1.33c-.92-.1-.93-.13-1.84-.18a4.57,4.57,0,0,1-.29-.36.38.38,0,0,1-.37.31h-.47l-.08.11v.05l-.3.38-.06.09h0l-1.28,1.62a5.59,5.59,0,0,1-.82-.12,2.86,2.86,0,0,1,.3.22c.19.17.22.73.31.76a14.08,14.08,0,0,0,3.14.69c.51.07,1,.11,1.53.15l1.52.24c.33-.11.71.16.84.61a.8.8,0,0,1-.36,1,11,11,0,0,1-1.23,1.16,11.64,11.64,0,0,1-1.31,1,9,9,0,0,1-2.88,1.14,15.43,15.43,0,0,1-6.54.08,21.11,21.11,0,0,0-3.26.44l.25.19-.94-.05-.09,0,1,.66.52.09a10.78,10.78,0,0,1,3.76-.06c.64.08,1.26.15,1.89.27s1.26.25,1.87.34a16.14,16.14,0,0,1,3.82,1.31c.29,0,.57.32.64.73s-.1.72-.37.72a13.71,13.71,0,0,1-11.43.18,2.85,2.85,0,0,1-2.2,0h0l.78.58c-.58,0-1.16-.49-1.72-.51l.69.92c-1.32.3-2.59.82-3.9,1.26a9.88,9.88,0,0,1-4.13.89l-.3.06a15.69,15.69,0,0,1-.73,1.82c-.07.14-.15.28-.23.41s0,.06-.08.11l-.45.36-.9.71c-1.2,1-2.38,2.06-3.7,3.07l2.76-1.91a15.65,15.65,0,0,1,1.38-.91l1.35-.8a3,3,0,0,1-.26.23l-.34.28-.69.57c-.47.35-.89.79-1.33,1.19-.87.82-1.8,1.57-2.67,2.41s-1.74,1.69-2.66,2.52-1.73,1.79-2.67,2.67a110.93,110.93,0,0,0-13.37,16.31c-3.91,5.56-6.7,10.89-9,14.29a55.9,55.9,0,0,0-1.28,20,42.09,42.09,0,0,0,2.21,9.18,49.76,49.76,0,0,0,4.25,8.89,67.46,67.46,0,0,0,13.81,16.11,78.81,78.81,0,0,0,8.94,6.65,87,87,0,0,0,9.81,5.55,7,7,0,0,1,2.73,1.78c0,.32-1,.1-2.42-.53a90.18,90.18,0,0,1-14.33-8,78.77,78.77,0,0,1-12.33-10.47c-7.33-7.75-12.49-16.76-14.41-26.05a52.09,52.09,0,0,0,10,23.08,78.35,78.35,0,0,0,20.84,19.07l3.25,1.88c1.08.63,2.22,1.15,3.33,1.74s2.21,1.12,3.31,1.66,2.19,1.15,3.32,1.63c22.95,9.74,48.89,9.8,69.7-4a73.61,73.61,0,0,0,21.26-21.69,72.5,72.5,0,0,0,6.52-13.4,67.2,67.2,0,0,0,2.25-7.33c.28-1.26.63-2.52.83-3.8s.49-2.58.64-3.89c2-14.68-.75-29.11-6.84-42.24a84.27,84.27,0,0,0-5.16-9.49c-.94-1.51-1.95-3-2.94-4.33-.49-.65-1-1.32-1.26-1.59l-1.75-1.93a69.36,69.36,0,0,0-17-12.92c-3.47-1.84-6.77-3.54-7-4.14s2.6.06,6.25,1.83a69.66,69.66,0,0,1,19.07,13.38c.69.67,1.33,1.4,2,2.09a10.36,10.36,0,0,1,.72.81c.27.32.54.67.83,1,1.13,1.47,2.26,3.11,3.33,4.78a86.84,86.84,0,0,1,5.73,10.52,80.81,80.81,0,0,1,6.65,22.84,72.05,72.05,0,0,1-.72,23.57l-.27,1.46-.35,1.45c-.25,1-.43,1.95-.74,2.9l-.84,2.89-1,2.79c-.6,1.89-1.5,3.67-2.25,5.5-.4.91-.89,1.78-1.33,2.67s-.87,1.79-1.41,2.63a72.65,72.65,0,0,1-15.1,18.57,71.46,71.46,0,0,1-20.41,12.76c-.93.39-1.89.7-2.83,1l-1.42.52c-.47.16-1,.28-1.44.43l-2.89.84-3,.65c-.5.11-1,.23-1.49.33l-1.5.23c-1,.14-2,.33-3,.45-2,.17-4.06.44-6.13.44a79.83,79.83,0,0,1-21-2.06.45.45,0,0,1,.11.31c-.07.36-.79.53-2,.54a91.22,91.22,0,0,0,12,2.21c2,.16,4.05.42,6.08.44,1,0,2,.12,3.06.09l3.05-.05a73.88,73.88,0,0,0,31.75-10.42,81,81,0,0,0,25.16-23.95l1.66-2.59c.27-.44.56-.85.81-1.3l.74-1.32,1.48-2.64c.43-.9.87-1.8,1.3-2.69l.65-1.34c.21-.45.38-.92.57-1.37.37-.92.75-1.83,1.12-2.74s.66-1.86,1-2.79l.49-1.4.42-1.41A77.42,77.42,0,0,0,510,462.23a83.13,83.13,0,0,0-7.53-29A88.84,88.84,0,0,0,495,420.14c-.71-1-1.44-2-2.17-3-.34-.44-.77-1-1-1.2l-1.26-1.34a70.73,70.73,0,0,0-5.38-5.14,7.93,7.93,0,0,1-1.39-1.31c-.17-.25.22-.05.86.44a72.21,72.21,0,0,1,7.65,6.95l.33.37.39.45.8,1c.53.68,1.06,1.37,1.58,2.08,1.05,1.43,2.05,2.92,3,4.44a87.89,87.89,0,0,1,9.29,19.72c-.37-2.3-.42-3.76.06-3.73s1.51,1.61,2.56,4.23a90.1,90.1,0,0,0-3.31-9.7c-.79-2-1.33-3.55-1.11-3.59s1.13,1.4,1.9,3.28a83.48,83.48,0,0,1,6,41.11,81.69,81.69,0,0,1-6.05,24.26,82.85,82.85,0,0,1-5.73,11.17,83.94,83.94,0,0,1-7.48,10.15,22.77,22.77,0,0,1,4.14-3h0c1.68-2.06,3.09-4.3,4.56-6.48a85.79,85.79,0,0,0,11.3-34.2,84.86,84.86,0,0,0-4-35.89,94.93,94.93,0,0,0-7.42-16.73,89.37,89.37,0,0,0-4.89-7.74c-.87-1.24-1.8-2.47-2.72-3.57l-.31-.37-.39-.41-.78-.83c-.53-.54-1-1.12-1.58-1.64a80.23,80.23,0,0,0-31-19,4.91,4.91,0,0,1-1.65-.72,3.88,3.88,0,0,1,1.58.34,84.11,84.11,0,0,1,20,9.82,72.24,72.24,0,0,1,8.73,6.84c.71.59,1.35,1.26,2,1.9l1,1,1,1,.94,1,.48.5.4.47c.55.66,1.12,1.39,1.66,2.12l0-.05c-.3-.51-.27-.67.17-.19a12.78,12.78,0,0,1,1.36,1.87c.33.62.19.63-.17.2a93.9,93.9,0,0,1,15.49,38A84.39,84.39,0,0,1,511,495.5,83.41,83.41,0,0,0,515.53,458a92.91,92.91,0,0,0-11.94-36c-1.52-2.34-3.13-4.59-4.86-6.79a10.53,10.53,0,0,1-1.13-1.72c-.07-.22.36.15.85.76s1,1.22,1.44,1.83c-1.37-2-2.57-3.75-3.43-4.92s-1.37-2.07-1.15-2.22,1.22.55,2.53,1.7a32.23,32.23,0,0,1,4.21,5.12,93.69,93.69,0,0,1,15.41,37.81c.29,1.46.48,2.93.71,4.4s.5,2.95.64,4.45a90.73,90.73,0,0,0-7.19-31.17A96.68,96.68,0,0,0,504.19,417a72.45,72.45,0,0,0-4.65-6.58,75.59,75.59,0,0,0-5.56-5.87c-1.37-1.23-2.46-2.37-2.37-2.54s1.32.7,2.72,1.93l2.63,2.43,2.53,2.55a62.12,62.12,0,0,1,4.53,5.7,97.69,97.69,0,0,1,7.45,12.28,94.9,94.9,0,0,1,9.14,27.43,86.7,86.7,0,0,1-.07,29.28,84.91,84.91,0,0,1-3.67,14.31c-.72,2.37-1.77,4.62-2.69,6.93-.5,1.13-1.07,2.23-1.61,3.35s-1.07,2.24-1.71,3.31a92.41,92.41,0,0,1-24.41,31.65l2.14-1.52,2.06-1.65a87.51,87.51,0,0,0,31.09-53.28,92.23,92.23,0,0,0,.28-29.84,102.14,102.14,0,0,0-9.12-28.81,6.72,6.72,0,0,1-.73-1.9c0-.14.44.44.89,1.39a102.28,102.28,0,0,1,9.27,28,89.39,89.39,0,0,1,.18,29.84,91.25,91.25,0,0,1-2.9,12.35c-.32,1-.63,2-.94,3s-.74,2-1.1,2.94-.73,2-1.13,2.92l-1.29,2.84a98.58,98.58,0,0,1-13,20.84,90.13,90.13,0,0,0,13.54-20.55,93,93,0,0,0,7.44-23,95.31,95.31,0,0,0,1.38-11.9c.15-2,.1-4,.13-6s-.1-4-.29-6a96.65,96.65,0,0,0-4.82-23.32,35,35,0,0,1-1.09-3.51,2.53,2.53,0,0,1-.4-.69c-1.64-3.63-3.54-7.5-5.71-11.32a12.38,12.38,0,0,1-1-2.11C511.18,421.55,511.5,422,512,422.75ZM404.59,396.6l.19.15-.54-.17-1.09-1.05S403.88,396.05,404.59,396.6Zm6-7.31h0l.57.67Zm-47.89,108.5A46.69,46.69,0,0,1,357,480.71a50.29,50.29,0,0,1,1.2-18.08,57.35,57.35,0,0,0-.72,8.88c-.11,1.14-.09,2.26-.15,3.39s0,2.25.1,3.36a48.07,48.07,0,0,0,.8,6.58A52.63,52.63,0,0,0,362.67,497.79ZM411.09,400a14.52,14.52,0,0,1-2.38-1.92,3.18,3.18,0,0,1-1.25.58,33.41,33.41,0,0,1-3.67.81c.33.4,0,.45-.08.55l-.38.27c1.34-.14,2.69-.24,4-.32A20.08,20.08,0,0,1,411.09,400Zm8.08-3.78.14.16-.1.76S419.19,396.71,419.17,396.18Zm.14-1.3-.2-.07C419.13,394.53,419.21,394.62,419.31,394.88Zm-1.85-.64a1.42,1.42,0,0,0,.32.35Zm-5.9-21V377l.11-3.69Z"/><path d="M518.07,94.8l-.39-.34a.81.81,0,0,1,.9-.23,6.71,6.71,0,0,0-6.13-.72,11.12,11.12,0,0,0-5,4,2,2,0,0,0-1.78,2.35,2.28,2.28,0,0,0,2.21,2.15,2.63,2.63,0,0,1,.76.34,15.86,15.86,0,0,0,2.93,2.05,28,28,0,0,0,3.17,1.37c-.45-.31-.92-.65-1.36-1a4.42,4.42,0,0,0,1.92.45l-.32-.66a4.06,4.06,0,0,0,6.08-2,5.74,5.74,0,0,0-2-7.18Z"/><path d="M513.07,88c1.44.67,2.81,1.4,4.17,2.15l.3.4-.31-1.91v.13a8.2,8.2,0,0,1-4.53,3.26l-.59.34a1.55,1.55,0,0,0-.41,1.08,1.75,1.75,0,0,0,1.5,1.8l1,.06c2.44.85,6,.51,6.91-2.89a6.38,6.38,0,0,0-.3-2.59,2.24,2.24,0,0,0-2.24-2.24,2.18,2.18,0,0,0-2,2.41l-.63-.2.41-.51c-.19,1.14-1.21,1.51-1.92,2.18l-1.14.44,1.08,2.88.55-.46c-.06-.12-.17-.29-.17-.3A17.93,17.93,0,0,1,518,91.53l1.48-1.26a1.52,1.52,0,0,0-.3-1.91l-.8-.56.37.34c-1.74-.48-3.56-.67-5.32-1.19a.52.52,0,0,0-.68.36A.6.6,0,0,0,513.07,88Z"/><path d="M518.93,87a1.17,1.17,0,0,0,1,.31L520,87l-.58-.44C519,86.25,518.86,86.55,518.93,87Z"/><path d="M520,87l.25.19-.18-.26,0,0Z"/><path d="M473.6,272.84a251.93,251.93,0,0,0,69.54,12.85c23.68.94,47.46-1.61,69.82-8.46a9.22,9.22,0,0,0,2.77-1.07,8.33,8.33,0,0,0-2.55.54,193.77,193.77,0,0,1-34.3,7.17,223,223,0,0,1-35.26,1.34,252.07,252.07,0,0,1-69.3-12.68,11.81,11.81,0,0,0-3-.74C471.19,271.91,472.2,272.37,473.6,272.84Z"/><path d="M683.23,122c.84.82.89.72.13-.24a29.58,29.58,0,0,0-2.79-3c-.74-.66-.8-.54-.12.25S682.53,121.3,683.23,122Z"/><path d="M696.44,125.23a141.18,141.18,0,0,1,11.81,17,31,31,0,0,1,1.61,3.11c0-.47.72.75,2,3.17a91.33,91.33,0,0,1,9.59,40,89.29,89.29,0,0,1-2.56,21.23,93.83,93.83,0,0,1-7.33,20.21l-1.19,2.44-.59,1.22-.68,1.17-2.75,4.66c-.88,1.59-1.95,3-3,4.51s-2.06,3-3.12,4.42a136.42,136.42,0,0,1-14.42,15.94,169.76,169.76,0,0,1-34.44,24.95,9,9,0,0,1-1.92,1.49,82,82,0,0,1-7.27,4.21c-1.57.75-3.26,1.53-5,2.33s-3.62,1.64-5.55,2.3l-5.78,2.07a221.06,221.06,0,0,1-35.88,9.14,242.87,242.87,0,0,1-36.51,3.37c-2.48.21-5.17.29-8,.41s-5.87.09-9,0c-5.28.1-10.55-.2-15.84-.39-5.28-.39-10.58-.7-15.87-1.38-5.31-.51-10.59-1.41-15.91-2.22-5.28-1-10.61-2-15.9-3.27,1.28.49,2,.88,2,1.08-.27.19-1.65.06-3.68-.3-1-.19-2.21-.42-3.48-.73s-2.65-.72-4.07-1.15c-2.87-.84-5.75-1.63-8.57-2.62l3,1.06,3.07,1,6.15,1.92c2.05.61,4.13,1.15,6.19,1.72s4.12,1.18,6.2,1.63c1.21.28,2.32.55,3.32.81a272.81,272.81,0,0,0,28.11,4.7,296.52,296.52,0,0,0,31.27,1.73,282.83,282.83,0,0,0,30.88-1.91c2.55-.31,5.09-.72,7.62-1.09l3.79-.57,3.78-.73c2.51-.5,5-.92,7.51-1.51l7.45-1.8c1.25-.28,2.47-.63,3.69-1l3.67-1.07,3.66-1.08c1.21-.35,2.41-.81,3.61-1.21,2.4-.84,4.8-1.64,7.17-2.51l7-2.83c2.36-.89,4.63-2.05,6.93-3.07l3.43-1.59c1.15-.51,2.25-1.15,3.38-1.71,2.23-1.18,4.48-2.31,6.68-3.54l6.51-3.84a177.89,177.89,0,0,0,24.25-18,138,138,0,0,0,20.17-22.69,114.3,114.3,0,0,0,8-13.08c1.1-2.32,2.22-4.63,3.29-7,.9-2.39,1.89-4.73,2.71-7.15a45.93,45.93,0,0,1,1.52-4.39c.34-.72.42-.55,0,.89a111.85,111.85,0,0,1-16.31,34.06,143.26,143.26,0,0,1-25,27.05,179.25,179.25,0,0,1-31.35,21.06,203.19,203.19,0,0,1-37.78,15.36,242.88,242.88,0,0,1-50.07,9.14,283,283,0,0,1-50.75-.48,298.11,298.11,0,0,1-50.45-9.47c-2.1-.53-4.17-1.22-6.25-1.85l-6.23-1.94-6.19-2.19c-2.07-.73-4.15-1.44-6.18-2.29a236.59,236.59,0,0,1-24.48-11,207.23,207.23,0,0,1-24.31-15.41,153.74,153.74,0,0,1-22.33-20c-.89-.92-1.73-2-2.58-2.94l-2.52-3c-1.64-2.09-3.23-4.27-4.8-6.44l-2.24-3.45c-.73-1.17-1.51-2.27-2.17-3.53l-2-3.69c-.34-.62-.68-1.23-1-1.86l-.91-1.95-1.77-3.92c-.6-1.31-1.06-2.71-1.57-4.07a85.23,85.23,0,0,1-2.64-8.35,92.88,92.88,0,0,1-2.83-17.23,105.23,105.23,0,0,1,3.16-33.65,124.8,124.8,0,0,1,5.11-15.45c1-2.52,2.09-4.9,3.2-7.33.55-1.22,1.17-2.37,1.76-3.56s1.18-2.37,1.84-3.5c2.49-4.67,5.4-8.93,8.23-13.34,1.47-2.15,3.06-4.16,4.61-6.25l2.35-3.11c.79-1,1.66-2,2.49-2.95l5.08-5.85c1.74-1.9,3.57-3.67,5.37-5.51,3.56-3.77,7.47-7,11.31-10.47a220.6,220.6,0,0,1,33.49-23.2,237.25,237.25,0,0,1,36-16.56L463,44.89c.77-.27,1.54-.58,2.32-.82l.14,0h0l.06,0,.13-.05,1-.4,2.05-.77,4.11-1.49L477,39.87l4.19-1.17q4.19-1.16,8.46-2.25c4.23-1.37,8.66.48,9.81,4.08a6.71,6.71,0,0,1-1.34,6.27l1-.14,1.67.14a6.15,6.15,0,0,1,4,2l1.35,1.41c1.91,2.77,4.6,4.95,6.16,7.93l-.11,1.22.32.3a5.74,5.74,0,0,1,2.11,3l.09,1.44a14.58,14.58,0,0,1-.76,4.8,5.37,5.37,0,0,1,0,1.79,7.15,7.15,0,0,1,1,4.65A1,1,0,0,1,515,76.7a1,1,0,0,1-.46.28h0c.24.35.31.45.61.84.36.08.57.15.57.15.95.14.95.14,1.76.29a4.52,4.52,0,0,1,1.23,1.07c1,2.48,1,2.48,1,3.6a2.58,2.58,0,0,1-.1.33l.84.42a2.69,2.69,0,0,1,.32.4c.09.59.09.59.21.79a2.46,2.46,0,0,1,.07.45c-.26.7-.25.7-.24.89a2.08,2.08,0,0,1-.15.35l-.56.38-1-1.45L519,86l-.27-.68.18.64-.46-.35.54.51a3.45,3.45,0,0,0-1.39,0,1.55,1.55,0,0,0-.78.18c0,.2.07.34.07.34-1.07-.12-1.07-.12-2.12-.28a3.35,3.35,0,0,1-.29-.4.46.46,0,0,1-.47.29l-.55-.06-.1.11v0l-.41.35-.08.08h0l-1.75,1.52a8.35,8.35,0,0,1-.92-.17l.3.24c.19.18.13.77.23.81A33,33,0,0,0,518,90.71a.81.81,0,0,1,1,.64.84.84,0,0,1-.56,1,13.74,13.74,0,0,1-7.27,3,17.92,17.92,0,0,1-8-.7c-.66,0-1.33-.09-2-.1l-2,0,.24.24-1.07-.22h-.11l1,.85c.19.06.38.13.58.18a14.11,14.11,0,0,1,4.5.52c1.5.35,3,.79,4.47,1.07a27.2,27.2,0,0,1,4.58,1.64.79.79,0,0,1,.7.79.65.65,0,0,1-.64.71,21.8,21.8,0,0,1-7.27,1,16.78,16.78,0,0,1-3.7-.64,13,13,0,0,1-3.52-1.44,3.71,3.71,0,0,1-2.59-.42h0l.72.73c-.69-.08-1.2-.7-1.86-.87.16.35.34.75.49,1.1-3.38-.13-6.65,1.17-10.05.29a2.29,2.29,0,0,1-.37,0,17,17,0,0,1-1.61,1.57c-.14.12-.29.23-.44.34s0,0-.16.09c-.38.1-.75.25-1.12.38l-2.25.79c-3,1.08-6.19,2-9.35,3.31l3.27-1.1,3.31-.94,3.31-.94,1.66-.47.83-.24.42-.11.18,0h0l-6.77,2.45c-1.16.43-2.36.79-3.5,1.28l-3.47,1.4c-4.69,1.76-9.27,3.88-14.09,6a206.63,206.63,0,0,0-36.2,21.19c-.68.46-1.28,1-1.9,1.47L415.5,138c-1.21,1-2.45,1.9-3.6,2.85l-3.26,2.87-1.59,1.37a18.34,18.34,0,0,0-1.51,1.36c-1.86,1.85-3.72,3.53-5.36,5.11s-3,3.09-4.32,4.35c-7.26,10.8-11.85,22.76-12.63,34a48.87,48.87,0,0,0,.18,8.31c.09,1.37.39,2.7.61,4a19,19,0,0,0,.46,2c.18.66.29,1.33.52,2a54.58,54.58,0,0,0,7.71,15.34c7.07,10,17.57,19.19,29.31,26.87a201.75,201.75,0,0,0,38.5,19.3,25.2,25.2,0,0,1,5.73,2.57c.2.37-1.76-.07-4.62-1.08-1.25-.4-2.47-.87-3.69-1.36l-3.67-1.42c-2.48-.91-4.86-2-7.27-3l-3.61-1.57-3.54-1.69c-2.37-1.09-4.64-2.35-7-3.52l-3.4-1.89c-1.14-.62-2.27-1.26-3.36-1.93l-3.32-2-3.23-2.1-1.61-1-1.56-1.1-3.11-2.2c-2-1.54-4.05-3-5.92-4.65s-3.75-3.25-5.57-4.9c-.9-.83-1.72-1.71-2.58-2.56L397.94,231l-1.19-1.33c-.78-.89-1.64-1.75-2.35-2.67l-2.19-2.73c-.7-.91-1.31-1.86-2-2.79a30.67,30.67,0,0,1-1.82-2.82,50.31,50.31,0,0,1-5.39-11.6,47.31,47.31,0,0,1-2.11-12.27c0,1.77.17,3.5.29,5.25a50.07,50.07,0,0,0,.93,5.15l.28,1.29c.1.42.26.83.38,1.25.28.84.47,1.7.79,2.53a52,52,0,0,0,2.11,5,62.74,62.74,0,0,0,5.86,9.83c1.22,1.57,2.35,3.2,3.72,4.73.67.77,1.31,1.56,2,2.33l2.15,2.26A124.47,124.47,0,0,0,419.28,251a179,179,0,0,0,23.51,13.49l6.45,2.88c2.14,1,4.38,1.78,6.57,2.69l3.26,1.32,3.28,1.23c2.2.81,4.34,1.72,6.55,2.48a249.34,249.34,0,0,0,34.1,9,255.58,255.58,0,0,0,34.72,4.15,232.93,232.93,0,0,0,35-.84,195.2,195.2,0,0,0,34.82-6.68A184.71,184.71,0,0,0,635.3,270a147.56,147.56,0,0,0,24.38-14.5c14.94-11,27.65-24.89,34.75-42a69.12,69.12,0,0,0,4.82-36.78,73.89,73.89,0,0,0-5-17.86,93,93,0,0,0-4.07-8.57c-1.56-2.78-3.17-5.55-5-8.22s-3.72-5.3-5.77-7.83-4.18-5-6.42-7.36-4.63-4.66-6.84-6.56l-.65-.55-1-.73-2-1.48c-1.29-1-2.69-1.92-4.06-2.87a164,164,0,0,0-36.81-18.26c-7.11-2.51-13.83-4.67-14.59-5.33s4.71.3,12,2.67A164.61,164.61,0,0,1,659,112.41c1.48,1,3,2,4.47,3.06l2.17,1.6,1.08.8c.21.15.3.23.41.32l.41.33a97,97,0,0,1,7.58,7.2c2.47,2.59,4.83,5.3,7.06,8.1s4.3,5.71,6.25,8.68a94.29,94.29,0,0,1,9.46,18.72,72.66,72.66,0,0,1,4.45,19.92,69.53,69.53,0,0,1-1.39,20.17,76.12,76.12,0,0,1-2.87,9.88l-.42,1.23-.51,1.2-1,2.41a47,47,0,0,1-2.26,4.69,94.84,94.84,0,0,1-5.29,9.05c-2.13,2.83-4.08,5.78-6.51,8.43-2.22,2.79-4.84,5.3-7.35,7.9-1.3,1.26-2.7,2.44-4,3.67l-2,1.83-2.15,1.71-4.32,3.41-4.54,3.18c-.76.53-1.5,1.08-2.28,1.58L653,263c-1.58,1-3.15,2-4.75,2.93l-4.92,2.69c-.82.45-1.63.91-2.46,1.34l-2.54,1.22-5.08,2.46L628,275.78a187.22,187.22,0,0,1-44,12.12l-2.85.45c-.95.16-1.92.23-2.88.35l-5.77.66c-1.92.24-3.87.3-5.81.46s-3.87.31-5.82.37l-5.85.17-2.93.08-2.94,0-5.88-.07c-2-.05-3.92-.19-5.89-.28a258.33,258.33,0,0,1-39.84-5.3c.15.12.29.25.27.34-.07.36-1.38.46-3.53.32a275.13,275.13,0,0,0,45.33,6.3,256.08,256.08,0,0,0,31.94-1.28A222.23,222.23,0,0,0,603,284.66,197.94,197.94,0,0,0,633.55,274a168.19,168.19,0,0,0,28.53-16.17c1.57-1.07,3-2.27,4.51-3.38l2.23-1.7c.74-.56,1.41-1.19,2.12-1.78l4.17-3.58c1.29-1.27,2.59-2.53,3.87-3.78.64-.63,1.31-1.23,1.91-1.89l1.78-2,1.77-2a24.61,24.61,0,0,0,1.72-2l3.22-4.14c.26-.34.54-.68.79-1l.71-1.08,1.43-2.16,1.43-2.15c.51-.7.84-1.48,1.28-2.21.82-1.5,1.65-3,2.47-4.48l2.14-4.65c.68-1.56,1.22-3.16,1.85-4.74a75.4,75.4,0,0,0,4.23-19.73,72.24,72.24,0,0,0-.64-12.81A74.6,74.6,0,0,0,702.22,164a95.51,95.51,0,0,0-11.38-23.67,120.4,120.4,0,0,0-17.13-20.59c-.8-.76-1.61-1.52-2.43-2.24s-1.68-1.47-2.33-2l-2.69-2c-.91-.66-1.79-1.37-2.74-2-1.89-1.25-3.73-2.57-5.69-3.72l-2.91-1.8-3-1.68c-.64-.35-1.28-.72-1.82-1a10.47,10.47,0,0,1-1.2-.75c-.42-.32.33,0,1.64.63a136.92,136.92,0,0,1,16.15,9.9l1.93,1.38c.72.5,1.08.8,1.7,1.3,1.15.95,2.33,2,3.48,3,2.31,2.13,4.55,4.4,6.71,6.76a109.31,109.31,0,0,1,20.74,32c-1.17-3.85-1.88-6.2-1.32-6.11.28.05.86.74,1.65,2,.36.63.78,1.39,1.24,2.27q.35.66.72,1.41c.22.5.46,1,.7,1.6a99.36,99.36,0,0,0-7.57-16.12c-.92-1.6-1.77-3-2.32-4.06s-.9-1.67-.77-1.69.64.54,1.36,1.49,1.61,2.32,2.49,3.86a90.58,90.58,0,0,1,12,34.21,77.67,77.67,0,0,1,.17,18A78.52,78.52,0,0,1,705.59,212l-.88,2.58c-.27.87-.68,1.69-1,2.53l-1.05,2.53c-.18.41-.33.84-.53,1.25l-.62,1.22L699,227c-.89,1.59-1.89,3.12-2.83,4.68-.48.77-.94,1.56-1.43,2.33l-1.62,2.22c-1.09,1.46-2.1,3-3.25,4.41-2.39,2.79-4.64,5.69-7.29,8.26A132.19,132.19,0,0,1,666,263.51c-3,2.13-6,4.38-9.19,6.28-1.58,1-3.14,2-4.74,3l-4.88,2.72c1.9-.84,3.58-1.52,5-2a30.84,30.84,0,0,1,3.21-1.11h0c2-1.25,4-2.43,5.89-3.72l5.66-4a131.77,131.77,0,0,0,22.79-22l1.26-1.52c.42-.51.78-1.07,1.17-1.6l2.3-3.22,1.15-1.6c.37-.55.69-1.12,1-1.68l2-3.38a100.22,100.22,0,0,0,6.77-14.23l1.25-3.73c.21-.62.43-1.24.62-1.87l.5-1.9c.32-1.27.7-2.53,1-3.81l.74-3.86a78.61,78.61,0,0,0,1.1-15.62,82.63,82.63,0,0,0-2-15.56,86.12,86.12,0,0,0-5-15,113,113,0,0,0-16.78-27,121.43,121.43,0,0,0-11-11.68c-1-.91-2-1.79-3-2.64l-.74-.61c-.23-.19-.46-.38-.74-.58l-1.63-1.19c-1.08-.79-2.14-1.62-3.25-2.38l-3.35-2.25a149.67,149.67,0,0,0-14-8.12c-4.82-2.46-9.75-4.73-14.81-6.74a214,214,0,0,0-31.21-9.77,15.08,15.08,0,0,1-3.06-.86,11.85,11.85,0,0,1,2.81.46A211.58,211.58,0,0,1,640.42,93,171,171,0,0,1,657.89,102l4.17,2.57c1.37.88,2.71,1.81,4.07,2.71s2.64,1.91,4,2.85l1.95,1.45c.56.44,1.19,1,1.79,1.49l-.08-.07c-.73-.72-.81-.94.1-.25a29.15,29.15,0,0,1,3,2.71c.82.89.66.89-.09.27A123.25,123.25,0,0,1,699,144a89.82,89.82,0,0,1,11.45,33.64,79.24,79.24,0,0,1-3.72,35,95.6,95.6,0,0,1-17.33,30.93,99.11,99.11,0,0,0,16.86-28.31,93.45,93.45,0,0,0,4.35-15.89,84.18,84.18,0,0,0,1-16.4,86.32,86.32,0,0,0-7.85-31.87,117.21,117.21,0,0,0-18-27.83,119.2,119.2,0,0,0-10.45-10.14c-1-.87-2.28-2-2.6-2.41s.56.19,1.61,1.07,2.06,1.74,3.07,2.65c-1.51-1.45-3-2.8-4.29-3.93s-2.64-2.12-3.65-3-1.83-1.57-2.37-2.06-.78-.82-.68-.91c.33-.08,2.13.74,4.62,2.42a51.57,51.57,0,0,1,4.26,3c1.51,1.23,3.1,2.65,4.69,4.19a125.15,125.15,0,0,1,21.89,28,93.34,93.34,0,0,1,11.65,33.44c.15,1.28.41,2.54.49,3.83l.31,3.84c.1,1.3.11,2.59.17,3.89,0,.65.07,1.29.06,1.94l-.05,2a82.58,82.58,0,0,0-2.94-27.58,99.47,99.47,0,0,0-4.71-13.08,113.41,113.41,0,0,0-6.45-12.31,127.19,127.19,0,0,0-16.91-21.95c-1.6-1.66-3.24-3.29-4.94-4.87-.85-.78-1.71-1.56-2.6-2.32-.44-.37-.89-.76-1.36-1.12l-1.39-1c-1.85-1.38-3.69-2.78-5.62-4l-2.87-1.94L661.8,99l-3.51-2.17c-.91-.58-1.47-1-1.45-1.09s.59.13,1.52.58c.47.22,1,.5,1.63.82s1.26.73,1.94,1.14c1.75,1,3.52,2.07,5.22,3.21s3.44,2.21,5.08,3.44l2.51,1.79c.4.28.84.61,1.26,1l1.22,1c1.58,1.33,3.12,2.7,4.61,4.13a131.56,131.56,0,0,1,16.23,18.62q3.6,5.06,6.71,10.48a109,109,0,0,1,5.51,11.22,90.83,90.83,0,0,1,6.54,24.3A82.64,82.64,0,0,1,716,202.8a92.91,92.91,0,0,1-8.06,24.08l-1.42,2.85-.72,1.43c-.25.47-.54.91-.81,1.37l-3.3,5.45c-1.18,1.76-2.45,3.46-3.67,5.19-.64.85-1.2,1.76-1.9,2.55l-2,2.44c-2.62,3.34-5.62,6.32-8.54,9.39-1.51,1.47-3.09,2.87-4.64,4.3-.78.71-1.55,1.44-2.35,2.13l-2.45,2A171.28,171.28,0,0,1,649,285.52,203.37,203.37,0,0,1,618.41,300l4.12-1.31c1.38-.47,2.73-1,4.1-1.51a180.2,180.2,0,0,0,24.81-11.32l5.82-3.33c1.91-1.13,3.75-2.4,5.61-3.59l2.78-1.81c.91-.62,1.79-1.29,2.68-1.94,1.77-1.31,3.55-2.59,5.29-3.92a152,152,0,0,0,19-17.93A124,124,0,0,0,707.31,232a101.76,101.76,0,0,0,9-24.18,85,85,0,0,0,2-25.8,90,90,0,0,0-5.73-25.38,111.71,111.71,0,0,0-12.22-23.3,22,22,0,0,1-1.84-3c0-.22.76.71,1.77,2.21a116.05,116.05,0,0,1,6.77,11c1.06,1.86,2,3.8,2.91,5.71.45,1,.86,1.94,1.3,2.92s.86,1.94,1.23,2.94a91.27,91.27,0,0,1,6.14,24.63,86.9,86.9,0,0,1-1.17,25.57c-.16,1.07-.44,2.11-.7,3.16l-.77,3.15c-.55,2.1-1.28,4.14-1.92,6.23S712.48,222,711.7,224c-.37,1-.9,2-1.37,3s-1,2-1.45,3l-1.21,2.49-1.38,2.36-2.77,4.71-3.08,4.46-1.55,2.22c-.51.74-1.11,1.4-1.65,2.11l-3.37,4.16a25.7,25.7,0,0,1-1.74,2l-1.8,2c-1.21,1.28-2.38,2.61-3.62,3.84l-3.8,3.61a169.25,169.25,0,0,1-33.2,24,160.53,160.53,0,0,0,33.59-23.49,122.68,122.68,0,0,0,25.39-32.09,109.46,109.46,0,0,0,7.8-19.09,93.18,93.18,0,0,0,3.5-20.4,86.82,86.82,0,0,0-1.3-20.68,95.94,95.94,0,0,0-6-19.77c-.49-1.1-1-2.2-1.37-3.22s-.84-1.9-1.12-2.62a6.43,6.43,0,0,1-.71-1.15,134.26,134.26,0,0,0-12-18.16,34.36,34.36,0,0,1-2.37-3.24C694.79,123.36,695.41,124,696.44,125.23ZM501.74,82.87l.17.18-.55-.27-.94-1.27Zm7.66-6.59h0l.51.74ZM388,221.72a55,55,0,0,1-6.69-14.48,47.72,47.72,0,0,1-1.7-15.26,58.64,58.64,0,0,1,2.95-15.65,75.48,75.48,0,0,1,7.06-15.14,79.61,79.61,0,0,0-6.26,14.95,57.19,57.19,0,0,0-3,23.32,50.61,50.61,0,0,0,2.42,11.27A62.62,62.62,0,0,0,388,221.72ZM508.27,87.21A13.26,13.26,0,0,1,506,85a3.9,3.9,0,0,1-1.5.45,35.55,35.55,0,0,1-4.24.14c.27.46-.06.46-.22.55a5,5,0,0,0-.48.21c1.51.09,3,.24,4.56.41A29.18,29.18,0,0,1,508.27,87.21Zm9.78-3.2.15.17L518,85S518,84.55,518.05,84Zm.28-1.32-.22-.08C518.15,82.33,518.23,82.42,518.33,82.69Zm-2-.71a2.27,2.27,0,0,0,.32.37ZM512.1,60.2,511.77,64l.42-3.7Z"/></svg>