<svg id="Layer_1" data-name="Layer 1" xmlns="http://www.w3.org/2000/svg" viewBox="0 0 1080 394.37"><path d="M592,129.67l-.41.31a.77.77,0,0,1,0-.88,6.12,6.12,0,0,0-1.83,5.61,10.67,10.67,0,0,0,2.93,5.24,1.82,1.82,0,0,0,1.9,2,2.36,2.36,0,0,0,2.45-1.77,2.72,2.72,0,0,1,.48-.67,17,17,0,0,0,4.42-5.13l-1.14,1.11a4.52,4.52,0,0,0,.74-1.71l-.7.2a3.59,3.59,0,0,0-.61-5.85,6,6,0,0,0-7.32.68Z"/><path d="M584.52,133.29c.9-1.25,1.86-2.43,2.84-3.59l.44-.21h-1.89l.12,0c1.5,1.2,1.94,3.05,2.29,4.75l.26.61a1.56,1.56,0,0,0,1,.55,1.68,1.68,0,0,0,1.94-1.14,8.89,8.89,0,0,1,.22-.89c1.3-2.15,1.67-5.45-1.44-6.88a6.52,6.52,0,0,0-2.56-.15,2.24,2.24,0,0,0-2.58,1.74,2,2,0,0,0,1.94,2.26l-.31.56-.41-.47c1.06.36,1.22,1.38,1.73,2.14l.2,1.14,3-.58-.33-.58c-.13,0-.32.12-.33.11a16.25,16.25,0,0,1-1.81-3.42l-.94-1.59a1.53,1.53,0,0,0-1.9,0l-.69.65.4-.29c-.79,1.56-1.31,3.24-2.13,4.83a.48.48,0,0,0,.22.7A.63.63,0,0,0,584.52,133.29Z"/><path d="M584.57,127.6a1.15,1.15,0,0,0,.48-.85l-.23-.18-.54.48C583.89,127.4,584.16,127.6,584.57,127.6Z"/><path d="M584.82,126.57l.23-.19-.29.12,0,0Z"/><path d="M625.67,249.38c1,1.55,2.14,3,3.22,4.5s2.16,3,3.33,4.45c2.35,2.86,4.62,5.83,7.15,8.57,1.25,1.39,2.46,2.82,3.74,4.19l3.91,4c.66.67,1.3,1.36,2,2l2,1.94,4.1,3.9c.38.33.76.54.86.46s-.14-.41-.5-.71a212,212,0,0,1-15.69-16.06c-2.51-2.74-4.77-5.68-7.1-8.55-1.18-1.42-2.21-3-3.32-4.43l-1.63-2.22c-.56-.74-1.09-1.49-1.58-2.26-.28-.41-.59-.67-.74-.65S625.42,249,625.67,249.38Z"/><path d="M707.84,329.1c-.38-.09-.41,0-.08.24a4.19,4.19,0,0,0,1.19.55c.31.07.35-.05.07-.25A4,4,0,0,0,707.84,329.1Z"/><path d="M701.42,334.92c-1.08-.39-2.13-.76-3.16-1.1s-2-.71-2.92-1a4.76,4.76,0,0,1-1-.47c0,.21-.42.16-1.19-.13-3.87-1.37-7.68-3.05-11.57-4.73-2-.82-3.85-1.79-5.79-2.71S671.94,323,670,321.9l-5.75-3.06c-1.93-1-3.79-2.18-5.7-3.26-3.83-2.15-7.5-4.58-11.25-6.89a1.64,1.64,0,0,1-.88-.06,18.41,18.41,0,0,1-5.37-3.2l-1.47-1.24c-1.52-1.19-3-2.51-4.42-3.76s-2.94-2.53-4.38-3.82l-4.23-4c-1.4-1.33-2.81-2.64-4.14-4a45.94,45.94,0,0,1-4.25-3.41c-1.35-1-2.63-2.1-3.92-3.2l-3.89-3.31c-1.32-1.09-2.55-2.29-3.82-3.46l-3.77-3.59c.17.42.21.74.06.86-.45.2-1.85-.74-3-2.23L598,268.08l2.5,3.27c.85,1.08,1.74,2.11,2.6,3.17a10.75,10.75,0,0,1,.67.86l3,3.35c1,1.11,2.14,2.16,3.23,3.25a205.83,205.83,0,0,0,30.27,24.54,255.24,255.24,0,0,0,32.32,18.22,4.22,4.22,0,0,1,1.19.69c.16.19.06.28-.36.11-14.32-5.8-27.28-10.83-42.33-20.75a233.73,233.73,0,0,1-25.78-19.62,225.56,225.56,0,0,1-23.54-23.81,336.09,336.09,0,0,1-19.66-29.06c-1.46-2.53-3-5-4.41-7.62l-4.2-7.87c-1.33-2.68-2.61-5.42-3.94-8.18-.32-.7-.66-1.39-1-2.09l-.9-2.13c-.6-1.43-1.21-2.87-1.81-4.32l-1.23-2.94c-.39-1-.73-2-1.1-3q-1.08-3-2.14-6l-.53-1.49-.47-1.52-.92-3c-.6-2-1.22-4-1.79-6.07l-.38-1.53-.19-.77-.09-.29-.31-1.06-.6-2.13c-.39-1.42-.77-2.83-1.15-4.25a163,163,0,0,1-3-17.45,8.61,8.61,0,0,1,.7-6.07,6.05,6.05,0,0,1,4.22-3.18,6.45,6.45,0,0,1,5.85,2.31c0-.35,0-.7,0-1l.36-1.65a6.12,6.12,0,0,1,2.43-3.71l1.5-1.12c2.85-1.47,5.44-3.79,8.54-4.84l1.15.3.35-.26a5.52,5.52,0,0,1,3.21-1.59l1.41.16a14.31,14.31,0,0,1,4.51,1.52,5,5,0,0,1,1.73.3,7,7,0,0,1,4.65-.21,1,1,0,0,1,1.38.18,1,1,0,0,1,.19.48h0a8.74,8.74,0,0,0,.92-.46c.14-.33.24-.52.24-.52.31-.88.31-.88.59-1.63a4.49,4.49,0,0,1,1.26-1c2.58-.57,2.58-.56,3.67-.39l.3.16c.4-.54.43-.58.56-.73a2.69,2.69,0,0,1,.44-.24c.59,0,.59,0,.81-.06a2.17,2.17,0,0,1,.44,0c.63.35.63.35.82.37a2.33,2.33,0,0,1,.31.2c.17.38.24.53.26.59l-1.58.69.51.2-.71.14.65-.06-.42.37.6-.42a3,3,0,0,0-.31,1.3,1.35,1.35,0,0,0,0,.77,1.71,1.71,0,0,1,.34,0c-.32,1-.32,1-.67,2a4.25,4.25,0,0,1-.43.21.43.43,0,0,1,.19.49l-.15.51a.44.44,0,0,0,.08.11h0l.27.44.06.09h0c.17.3.46.74,1.23,1.89a6.38,6.38,0,0,1-.32.84l.29-.24c.2-.16.75,0,.81-.1A45.61,45.61,0,0,0,588,129.1a.85.85,0,0,1,1.68-.11,13.5,13.5,0,0,1,1.59,7.25,15.72,15.72,0,0,1-.66,3.74c-.19.62-.41,1.24-.66,1.85s-.47,1.21-.75,1.81c-.27,1.23-.49,2.49-.7,3.75l.27-.2-.4,1s0,.08,0,.11l1-.8.28-.53a17.45,17.45,0,0,1,1.19-4.2c.51-1.36,1.29-2.69,1.82-4a34,34,0,0,1,2.4-4,.75.75,0,0,1,.86-.53.63.63,0,0,1,.6.7,18.87,18.87,0,0,1-.49,6.9,14.73,14.73,0,0,1-3.16,6.52,4.25,4.25,0,0,1-.83,2.41v0l.79-.6c-.17.65-.82,1-1.06,1.66l1.09-.32c-.48,3.18-.05,6.51-1.2,9.66a2,2,0,0,1-.06.35,14.85,14.85,0,0,1,1.26,1.75,4.09,4.09,0,0,1,.25.46.81.81,0,0,1,.06.13l.09.36.15.72c.18,1,.46,2,.64,3q-.09-1.1-.18-2.16l-.06-2.12c.4,1.48.79,3,1.19,4.45a47.72,47.72,0,0,1,.92,4.73c.83,4.42,1.35,9.22,1.81,13.59.1,1.1.17,2.17.2,3.21s.14,2,.16,3a26.54,26.54,0,0,1-.27,5,201.82,201.82,0,0,0,11,24.9,184.77,184.77,0,0,0,14.65,23.06,2.89,2.89,0,0,1,.81,1.85c-.15.24-.71-.11-1.29-.86-2.16-2.49-4-5.2-6-7.85-1-1.31-1.9-2.71-2.82-4.09l-2.76-4.16c-.88-1.41-1.7-2.86-2.56-4.29s-1.74-2.84-2.5-4.33L604,217.41l-1.18-2.21-1.06-2.27a160.27,160.27,0,0,0,15.54,30.35c.85,1.21,1.68,2.44,2.61,3.61a40.83,40.83,0,0,1,2.47,3.64l1.63,2.25c.57.72,1.15,1.44,1.72,2.17l3.42,4.32c1.17,1.41,2.39,2.78,3.58,4.17s2.38,2.78,3.67,4.09l3.8,4c1.26,1.36,2.65,2.58,4,3.88s2.68,2.6,4.12,3.82l4.34,3.71c1.23,1.08,2.52,2.06,3.77,3l3.74,2.92c2.48,1.9,5,3.65,7.5,5.46s5.12,3.42,7.72,5.16,5.36,3.32,8.17,5c8,4.64,15.81,8.65,23.72,12.49s16,7.27,24.46,10.79c2.29.84,4.28,2,4.41,2.51s-1.66.28-4-.56c-9-3.24-17.92-6.83-26.59-10.84a278.16,278.16,0,0,1-25.32-13.51,216.09,216.09,0,0,1-23.72-16.57A182.29,182.29,0,0,1,635,268.73c-1.49-1.54-2.81-3.2-4.2-4.78s-2.76-3.16-4-4.83a.54.54,0,0,1-.13.25c-.27.24-.77.15-1.4-.19.73.93,1.44,1.9,2.2,2.82l2.31,2.76c1.54,1.85,3,3.75,4.67,5.54,9.76,9.28,20.19,17.79,31.49,26.76,7.81,6.1,15,11.59,22.7,16.81a301.32,301.32,0,0,0,31.94,15,2.75,2.75,0,0,1,1,.53c.12.15-.15.13-.6,0-1.94-.66-3.86-1.39-5.8-2.1l-2.92-1.08c-1-.38-1.93-.79-2.89-1.18l-5.82-2.41L697.78,320c1,.9,1.57,1.63,1.27,2s-1.41.27-3-.2l5.16,2.68c1,.57,1.83,1.12,1.7,1.31s-1.07,0-2.08-.55c-3.52-1.82-7.08-3.57-10.51-5.54-1.72-1-3.46-1.9-5.17-2.91l-5.07-3a250.37,250.37,0,0,1-23.9-15.39,6.39,6.39,0,0,1,1.46,2.67h0c1.19.87,2.39,1.73,3.57,2.6a366.13,366.13,0,0,0,73.9,35.72c.52.18.92.4.9.5s-.45,0-.91-.15c-3.94-1.45-7.9-2.8-11.78-4.38-1.94-.77-3.92-1.47-5.83-2.3l-5.78-2.42,0,0c.29.19.3.32-.07.24a4.49,4.49,0,0,1-1.2-.5c-.33-.22-.25-.31.06-.25a378.64,378.64,0,0,1-41.16-21,330.32,330.32,0,0,0,37.22,20.55c1.47.52,2.9,1.09,4.4,1.57a3,3,0,0,1,1,.57c.08.13-.25.1-.66-.05l-1.24-.42c2.46,1.08,4.21,2.28,4,2.75s-2.65-.07-5.24-1.17c-6.9-3-13.74-6.09-20.35-9.64l-2.19-1.06-2.3-.91A287.69,287.69,0,0,0,715.3,337c.92.37,1.66.83,1.61,1s-.86,0-1.79-.35a267.07,267.07,0,0,1-28.59-12.05,250.42,250.42,0,0,1-27.34-15.48c-3.15-1.52-6.22-3.21-9.39-4.82s-6.22-3.46-9.37-5.27c.69.59,1.42,1.13,2.14,1.69,2.32,1.74,4.58,3.48,6.91,5s4.65,3,6.95,4.5,4.69,2.72,7,4,4.71,2.49,7,3.72c9.44,4.78,19,9,29.08,13.4.51.2.9.46.92.58s-.37.05-.88-.18c-9.93-4.22-19.08-8-28.72-13l-5.89-3.1c-1.93-1.05-3.8-2.15-5.69-3.2l-2.82-1.58c-.93-.53-1.83-1.09-2.75-1.63l-5.49-3.22,5.33,3.56c.89.58,1.76,1.18,2.66,1.73L659,314c1.81,1.08,3.61,2.16,5.42,3.21l5.51,3,2.76,1.48,2.79,1.4,5.59,2.8,5.67,2.64,2.83,1.34,2.88,1.26a7.2,7.2,0,0,1,1.71.93.72.72,0,0,1,.43.05c2,.66,4.15,1.48,6.37,2.24a3.28,3.28,0,0,1,1.1.6C702.18,335.09,701.89,335.06,701.42,334.92ZM577.72,143.34l.2-.14-.33.49-1.33.73ZM572.66,135h0l.78-.39Zm32.43,88.5c-1.73-3.68-3.56-7.27-4.93-11.06-.7-1.89-1.46-3.74-2-5.65S597,203,596.44,201c.75,1.78,1.49,3.56,2.24,5.35.93,2.87,2,5.69,3,8.58S604,220.62,605.09,223.5Zm-22.15-85.78a13,13,0,0,1-2.55,1.88,3.64,3.64,0,0,1,.16,1.5c-.16,1.39-.21,2.74-.44,4.08.48-.19.43.13.49.29l.14.49c.3-1.44.58-2.87,1-4.31A29.26,29.26,0,0,1,582.94,137.72ZM581.56,128l.19-.11.71.3Zm-1.22-.48-.12.2C580,127.58,580.05,127.52,580.34,127.47Zm-1.06,1.81a1.69,1.69,0,0,0,.41-.24Zm-21.72.56,3.65.94-3.51-1Z"/><path d="M593,276.4l-.49-.27a1,1,0,0,1,.93-.38c-4.81-1.87-9.22,1.34-11.4,5a2,2,0,0,0-1.6,2.49,2.44,2.44,0,0,0,2.73,1.7,3.06,3.06,0,0,1,.89.21,20.8,20.8,0,0,0,7.35,2.38l-1.68-.69a6.41,6.41,0,0,0,2.22.1c-.15-.19-.32-.4-.48-.58,2.78,1,5.64-.26,6.41-2.88a5.58,5.58,0,0,0-3.63-6.62Z"/><path d="M586.46,270.8c1.62.37,3.2.81,4.79,1.29l.4.33-.72-1.79,0,.13c-.69,1.86-2.47,3-4.16,4l-.56.45a1.47,1.47,0,0,0-.25,1.12,1.78,1.78,0,0,0,1.92,1.43l1-.11c2.76.36,6.55-.55,6.84-4a6.18,6.18,0,0,0-.87-2.46,2.44,2.44,0,0,0-2.83-1.77,2.12,2.12,0,0,0-1.62,2.68l-.7-.07.33-.57c0,1.14-1,1.69-1.61,2.47l-1.12.63L589,277.1l.5-.54-.24-.27a19.35,19.35,0,0,1,3-3l1.32-1.48a1.46,1.46,0,0,0-.71-1.8l-1-.4.46.27c-1.93-.16-3.86,0-5.79-.15a.55.55,0,0,0-.64.47A.59.59,0,0,0,586.46,270.8Z"/><path d="M592.37,268.67a1.36,1.36,0,0,0,1.08.12l.09-.27-.71-.33C592.32,268,592.21,268.28,592.37,268.67Z"/><path d="M593.54,268.52l.3.14-.25-.23s0,0,0,0Z"/><path d="M499.66,307.86c-8.67,3.42-17.23,7.23-25.67,11.31-.28.14-.47.33-.42.44s.31.08.56-.05q12.67-6.09,25.65-11.23c.29-.12.48-.31.46-.44S499.93,307.76,499.66,307.86Z"/><path d="M432.36,332.15c.15-.19.08-.27-.15-.19a1.61,1.61,0,0,0-.65.43c-.12.16-.05.25.15.19A1.61,1.61,0,0,0,432.36,332.15Z"/><path d="M429.79,324.75a30.37,30.37,0,0,0,2.74-2.66,1.74,1.74,0,0,1,.52-.36c-.16-.08,0-.35.33-.69,7.05-6.67,15.22-13.06,23.29-19.39a1.09,1.09,0,0,1,.14-.61,6.78,6.78,0,0,1,2.68-2.52l1-.51c3.89-2.24,7.77-4.47,11.71-6.56a16,16,0,0,1,2.43-2c3-2.57,6-5.15,9.16-7.63a.59.59,0,0,1-.58-.24c-.15-.44.48-1.22,1.4-1.77l1.38-.87L481.82,281a4.65,4.65,0,0,1-.57.26c-1.46.88-2.93,1.79-4.39,2.77-6.39,4.25-12.35,8.75-18.06,13.36s-11.17,9.31-16.52,14.06a1.55,1.55,0,0,1-.68.43c-.16,0-.2-.11,0-.3,6.31-6.68,11.31-13.35,19.06-20.3,9.22-8.25,18.59-16.23,28.73-24,11.18-7,21.19-14.3,32.64-21.82,4.24-2.77,8.47-5.43,12.73-7.94,6.62-4.22,13.34-7.85,20.32-11.41,3.45-2.25,7.69-1.44,9.41,1.77a6.88,6.88,0,0,1-.07,6.29l.9-.35,1.55-.21a5.54,5.54,0,0,1,4.06,1.07l1.51,1c2.3,2.23,5.25,3.73,7.35,6.27l.15,1.2.36.23a5.66,5.66,0,0,1,2.64,2.43l.39,1.38a14,14,0,0,1,.27,4.81,5,5,0,0,1,.35,1.74,7,7,0,0,1,1.93,4.29,1,1,0,0,1,.34,1.37,1,1,0,0,1-.41.36h0a9.76,9.76,0,0,0,.79.68c.38,0,.6,0,.6,0,1-.05,1-.05,1.85-.06a4.9,4.9,0,0,1,1.48.8c1.57,2.21,1.57,2.22,1.82,3.3,0,.12,0,.23,0,.34.71.18.76.19,1,.26a2.23,2.23,0,0,1,.42.32c.22.56.22.56.39.74a2.51,2.51,0,0,1,.17.42c-.12.73-.12.73-.06.91a1.78,1.78,0,0,1-.08.36l-.51.47-1.33-1.22v.55l-.42-.61.32.58-.55-.25.66.4a3.67,3.67,0,0,0-1.45.2,1.66,1.66,0,0,0-.78.32,2.39,2.39,0,0,1,.15.32c-1.15.07-1.14.08-2.27.12a4,4,0,0,1-.38-.32.46.46,0,0,1-.43.36l-.58.06-.08.12,0,0-.36.42-.07.1h0l-1.54,1.81a6.67,6.67,0,0,1-1,0l.36.18c.23.15.27.71.38.74a41.12,41.12,0,0,0,7.92.12.91.91,0,0,1,1.14.45.78.78,0,0,1-.38,1.09c-3.91,4.23-10,5.42-15.88,4.76-1.42.14-2.84.32-4.25.52l.29.19-1.18-.07-.12,0,1.13.67c.22,0,.43.08.64.1,3.23-.57,6.58.05,9.91.15a44.72,44.72,0,0,1,5.26.87.83.83,0,0,1,.9.63.67.67,0,0,1-.58.8c-4.82,2-10.79,2.92-16,1a4.66,4.66,0,0,1-2.86-.06h0l.86.58c-.76,0-1.37-.49-2.1-.56l.63.95c-3.64.41-7.18,1.84-10.9,1.45a2.58,2.58,0,0,1-.4,0,21.15,21.15,0,0,1-1.66,1.62l-.47.36-.12.08-.21.12-.44.22a18.79,18.79,0,0,1-1.87.81l2.81-.58a26.88,26.88,0,0,1-5.65,2.63C544.9,293.12,538,294,534,292.79c-10.68,4.42-21.3,9.1-31.62,14.28a1.47,1.47,0,0,1-1.33.15c-.17-.2.08-.57.61-.85,7.16-4.19,14.69-8,22.32-11.59-6.75,2.24-13.47,4.7-20.12,7.61l-2.49,1.26a17.78,17.78,0,0,1-2.56,1,260.36,260.36,0,0,0-24.54,12.55c-6.95,4.15-12.93,7.93-19.65,12.36-9.43,6.25-17.9,12.08-27.49,17.91-1.24.83-2.59,1.3-3,1.05s.29-1.14,1.52-2c9.55-6.75,19-13.39,28.91-19.73a300.56,300.56,0,0,1,31.07-17.76c2.38-1.13,4.72-2.27,7.06-3.35a.68.68,0,0,1-.18-.2,1.09,1.09,0,0,1,.15-1.1c-2.68,1.21-5.38,2.43-8.13,3.61-7,4.36-14,8.76-21.87,12.75-5.4,2.74-10.5,4.93-15.6,7.37-5.93,3.92-11.75,8-17.67,12a1.17,1.17,0,0,1-.64.29c-.13,0-.05-.17.17-.36,3.85-3.11,7.87-6.2,12-9.22-.85.17-1.48.1-1.66-.29s.11-1.07.76-1.82l-3,1.85c-.61.38-1.18.55-1.28.36s.26-.66.84-1q6-3.84,12.08-7.53c4.71-3.2,9.45-6.32,14.26-9.39a3.54,3.54,0,0,1-2.05-.19h0l-2.25,1.39c-13.09,9.53-26.63,18.89-40.41,28.23-.27.19-.53.29-.59.22s.11-.28.35-.44l12.4-8.49h0c-.2.07-.29,0-.15-.18a1.71,1.71,0,0,1,.65-.44c.23-.08.27,0,.15.18,7.65-5.29,15.22-10.59,22.63-15.95l-21.43,13.71-2.1,1.85a1.19,1.19,0,0,1-.65.28c-.1,0,0-.21.2-.37l.59-.51c-1.35.86-2.6,1.23-2.86.81s.69-1.58,2.08-2.52q5.44-3.93,11-7.64l1.16-.88,1.07-1c-5.92,3.63-11.8,7.32-17.57,11.1-.48.34-1,.52-1.08.39s.19-.54.68-.89c9.49-7.64,19.39-15.05,29.62-22.1l8.95-9.05-1.36.83A142.73,142.73,0,0,0,446.6,313c-4.78,4-9.43,8.1-14.64,12-.25.21-.52.3-.61.25s0-.26.32-.45c5-3.92,9.37-7.91,14.31-12,4.08-3.37,8-6.52,11.74-9.81-8.25,5.71-15.58,12-23.41,18.09a2.66,2.66,0,0,1-1,.57c0,.06,0,.15-.13.25-.87.92-1.85,1.87-2.89,2.79a1.09,1.09,0,0,1-.65.34C429.5,325.14,429.58,325,429.79,324.75Zm144.07-56.93.21.14-.61-.16-1.14-1Zm6.7-7.6h0l.65.61Zm-63.54,36a91.27,91.27,0,0,1,14.42-4.87l-3.33,1.53Zm64.27-25.34a13.66,13.66,0,0,1-2.77-1.76,4.48,4.48,0,0,1-1.49.68c-1.45.37-2.9.65-4.35.87.35.39,0,.44-.15.55l-.47.28c1.57-.17,3.16-.3,4.78-.39A30.24,30.24,0,0,1,581.29,270.85Zm9.56-4.88.18.13,0,.79S590.94,266.5,590.85,266Zm0-1.33-.24,0C590.6,264.32,590.7,264.39,590.86,264.64Zm-2.23-.31a1.65,1.65,0,0,0,.4.29ZM580,244.11l.47,3.79-.36-3.68Z"/><path d="M605.44,310.14l.43.36a1.34,1.34,0,0,1-1.1,0,11.15,11.15,0,0,0,7.13,1.77,15.83,15.83,0,0,0,6.47-1.75c1.31.25,2.47-.29,2.59-1.22s-.85-1.88-2.18-2.18a4,4,0,0,1-.85-.47,26.24,26.24,0,0,0-6.94-4.42c.53.37,1.06.72,1.57,1.11a8.43,8.43,0,0,0-2.37-.86l.31.6c-2.67-1.7-6.31-1.81-8-.07s-.87,4.69,1.78,6.35Z"/><path d="M610.42,316.45c-1.52-.74-3-1.55-4.49-2.41l-.31-.38.18,1.61,0-.1c1.3-1.25,3.53-1.61,5.59-1.82l.73-.16a1.12,1.12,0,0,0,.64-.75c.15-.71-.5-1.49-1.48-1.7l-1.13-.24c-2.77-1.13-7.15-1.7-8.51.93-.3.61.05,1.45.17,2.21a2.52,2.52,0,0,0,2.39,2.26c1.36.16,2.47-.56,2.52-1.61l.7.27-.52.34c.34-.89,1.56-1,2.47-1.41l1.36-.15-.86-2.46-.71.25a2.86,2.86,0,0,1,.16.28,25,25,0,0,1-4.09,1.41l-1.84.75a1,1,0,0,0,.19,1.63l.86.6-.39-.34c1.94.69,4,1.14,5.87,1.81a.65.65,0,0,0,.8-.18C610.87,316.86,610.73,316.58,610.42,316.45Z"/><path d="M603.71,316.38a1.82,1.82,0,0,0-1.07-.42l-.18.19.63.47C603.54,317,603.75,316.74,603.71,316.38Z"/><path d="M602.46,316.15l-.26-.2.18.25,0,0Z"/><path d="M715.68,308.06c-1-.53-2-1.06-2.9-1.61-.45-.28-1-.55-1.37-.82l-.89-.83-.45-.42-.63-.42-1.29-.85a11.29,11.29,0,0,1-.85-.84l-.41-.43a4.54,4.54,0,0,0-.56-.43l-1.2-.89a7.16,7.16,0,0,1-.8-.88,13.35,13.35,0,0,0-2-1.83c-.52-.63-1-1.23-1.39-1.88a11,11,0,0,0-.69-1l-1-1.06c-.07-.09-.17-.17-.23-.26l-.14-.26-.29-.53c-.2-.35-.39-.71-.56-1.08a6.66,6.66,0,0,0-.63-1.15,12.19,12.19,0,0,1-.78-1.25l-.43-1.26-.36-1.35-.28-1.45c-.16-.55-.38-1.1-.49-1.66s0-1.09,0-1.69a11.07,11.07,0,0,0,0-1.84c0-.33,0-.66,0-1l.26-.93a18.51,18.51,0,0,1,.63-1.86c.23-.62.34-1.27.52-1.91a1,1,0,0,1,.19-.44l.26-.42.51-.83c.31-.56.54-1.14.81-1.7a3.29,3.29,0,0,1,.21-.42l.32-.36.63-.71c.94-.92,1.39-2,2.27-2.86a32.59,32.59,0,0,0,2.84-2.4l1.29-1.24c.45-.39.93-.77,1.39-1.15s.92-.78,1.4-1.15l1.55-1a68.67,68.67,0,0,1,6.23-3.62l3.06-1.54,1.45-.73.73-.37.37-.19c.14,0,.31,0,.47-.06l1.9-.22,1-.11.47,0,.36-.16,1.41-.65.71-.32a.87.87,0,0,1,.37-.14h2.49a5,5,0,0,0,1.86-.18l1.64-.48.82-.24c.11-.07.34,0,.52,0l.56,0,2.24.17,1.12.08,1-.14,2.07-.27c.36,0,.66-.11,1.06-.12l1.18-.05a46,46,0,0,1,4.91-.1l2.62.08c.87,0,1.76-.08,2.64-.1a12.37,12.37,0,0,0,3.48-.49c0-.19-1.51-.26-3.27-.14-.89.05-1.79.12-2.68.14l-2.65-.07c-.86,0-1.8-.08-2.61-.05l-2.38.12-1.19.06a7.54,7.54,0,0,0-1.13.1l-2.08.28a16.23,16.23,0,0,1-4.4,0l-1.13-.08a.76.76,0,0,0-.47.06l-.41.12-1.64.51-.82.25c-.31,0-.66,0-1,0l-2,0c-.32,0-.68,0-1,0l-.71.33-1.4.67a2.73,2.73,0,0,1-.74.3l-1,.12-1.91.23a3.2,3.2,0,0,0-.91.16l-.73.37-1.45.76-3,1.56c-1,.5-2.07,1.14-3.11,1.72s-2.07,1.23-3.1,1.91a21.31,21.31,0,0,0-3,2.13l-1.39,1.16c-.46.39-.87.83-1.3,1.24s-.83.84-1.32,1.23l-1.47,1.2-.37.3-.18.15-.13.18-.52.74a14.31,14.31,0,0,1-1.1,1.46l-1.26,1.43-.77,1.71c-.29.57-.67,1.12-1,1.68a1,1,0,0,0-.18.45l-.12.48-.23,1a12.39,12.39,0,0,0-1,3.76l0,1a8.77,8.77,0,0,1,0,.9,12.58,12.58,0,0,0-.05,1.72,55.45,55.45,0,0,0,1.39,5.82,3.83,3.83,0,0,0,.67,1.25l.41.62c.1.19.17.37.26.56.34.76.72,1.45,1.09,2.15a28.27,28.27,0,0,1,3,3.95,2.6,2.6,0,0,0,.47.47l.55.47a6,6,0,0,1,1,.92l.73.88c.08.15.35.3.53.45l.59.44a10.5,10.5,0,0,1,1.85,1.73c.62.57,1.75,1.15,2.36,1.71.88,1.12,3.06,2.23,5,3.31A11.87,11.87,0,0,0,717,309C717.31,309,716.67,308.6,715.68,308.06Z"/><path d="M735,136.32c-.19.89,0,.9.35,0a15.05,15.05,0,0,0,.55-1.43,14.73,14.73,0,0,0,.5-1.51c.19-.73,0-.77-.35,0a15.63,15.63,0,0,0-.65,1.5A12.29,12.29,0,0,0,735,136.32Z"/><path d="M744.34,145.79a35.58,35.58,0,0,0,1.38,11.6,11.5,11.5,0,0,1,.35,2c.18-.29.58.46,1.06,1.93,2.38,7.2,6.17,14.37,10.62,21.64.54.91,1.11,1.82,1.69,2.74l1.74,2.75,1.78,2.78.91,1.4.89,1.35c1.11,1.67,2.37,3.47,3.66,5.3l3.92,5.57A265.47,265.47,0,0,1,788,229.16a96.74,96.74,0,0,1,6.77,14.69,50.32,50.32,0,0,1,2.39,9.3,31.38,31.38,0,0,1-.43,12.8,10.65,10.65,0,0,1-.62,3.79,15.08,15.08,0,0,1-1.05,2.63,18.13,18.13,0,0,1-1.74,3,25.29,25.29,0,0,1-2.58,3.15,36.31,36.31,0,0,1-3.31,2.84,37.45,37.45,0,0,1-3.69,2.2l-.24.13-.17.08-.32.13-.65.28-1.33.54c-.89.36-1.81.71-2.75,1s-1.74.43-2.62.64l-1.32.27-.67.14-.28.06h-.14l-1.08.07a23.53,23.53,0,0,1-6.65-.6c-2.23-.47-4.46-1.1-6.76-1.51a24,24,0,0,0-7-.35,26.41,26.41,0,0,0-6.9,1.89c-.28.29-.59.57-.89.9s-.65.63-1,1a13.24,13.24,0,0,0-2,2.47,5.11,5.11,0,0,0-.22,2.89,6.89,6.89,0,0,0,1.45,2.83,19.17,19.17,0,0,0,5,4,49.68,49.68,0,0,0,11.14,4.6c-.19-.13-.15-.2.16-.2a33.12,33.12,0,0,1,4.35.94l2.49.6a43.41,43.41,0,0,1-6.33-2,5.06,5.06,0,0,1-.72-.33,25.93,25.93,0,0,1-6.75-3.87,6.94,6.94,0,0,1-2.49-3.61,4.3,4.3,0,0,1,1.48-3.83,14.47,14.47,0,0,1,3.37-2.38c.59-.35,1.24-.58,1.86-.87.32-.14.65-.21,1-.32a5,5,0,0,1,1-.26c2.7-.61,5.45-.21,8.22.19a25.08,25.08,0,0,0,4.28.32,17,17,0,0,0,2.22-.2l1.12-.25.28-.07.79-.21,1.65-.45,1.64-.44c.28-.08.53-.13.83-.24l.91-.35c1.2-.47,2.4-1,3.59-1.46l.89-.38,1.39-.73c.93-.52,1.84-1.06,2.73-1.64a32,32,0,0,0,2.74-2.16c.44-.38.88-.78,1.31-1.17s.82-.9,1.23-1.36a33.75,33.75,0,0,0,2.24-2.88c.63-1,1.23-2.05,1.78-3.11a22.61,22.61,0,0,0,1.31-3.12,23.71,23.71,0,0,0,.91-3.07c.2-.95.38-1.92.53-2.89a11.84,11.84,0,0,0,.15-1.35l.09-1.29.06-1.29v-.64l0-.58q0-1.14-.12-2.28c0-.37,0-.78-.09-1.11l-.14-1-.31-2c-.24-1.28-.53-2.44-.82-3.66s-.64-2.21-1-3.31l-1.09-3a95.75,95.75,0,0,0-4.94-10.63,189.15,189.15,0,0,0-11.09-17.85c-3.8-5.52-7.73-10.81-11.39-15.84a10.12,10.12,0,0,1-1.44-2.35c-.12-.45.09-.49.62.2,4.8,6.05,10,12.27,15,18.78,2.52,3.27,5,6.64,7.42,10.24a115.37,115.37,0,0,1,7.08,11.8,71.21,71.21,0,0,1,3.24,7.18c.26.61.49,1.37.73,2.06s.49,1.38.7,2.15a47.28,47.28,0,0,1,1.18,4.94l.24,1.35a13.7,13.7,0,0,1,.2,1.43c.1,1,.19,2.07.25,3.12a16.11,16.11,0,0,1,0,1.72l-.06,1.8c0,.62,0,1.17-.13,1.85s-.2,1.38-.31,2.07-.25,1.37-.39,2.05-.4,1.5-.63,2.24-.5,1.51-.78,2.25c-.15.38-.28.75-.44,1.12l-.57,1.18a33,33,0,0,1-2.67,4.53,38.32,38.32,0,0,1-3.46,4.14,47.61,47.61,0,0,1-3.95,3.39,42.69,42.69,0,0,1-4,2.52l-1,.56a3.14,3.14,0,0,1-.39.19l-.31.14-1.24.56-2.52,1.08a33.93,33.93,0,0,1-4.75,1.59l-2.17.64-.49.19a10.13,10.13,0,0,1-3.72.64,20.17,20.17,0,0,0-3.81.17,5.76,5.76,0,0,0-3,1.65,4.55,4.55,0,0,0-1.56,3,2.92,2.92,0,0,0,.89,2,8,8,0,0,0,1.84,1.41,23.79,23.79,0,0,0,7.43,2.57c1.08.19,2,.39,2.9.62.43.11.83.23,1.21.36l.27.09.14,0,.9.53c1.21.72,2.34,1.35,3.72,2.26a85.59,85.59,0,0,1,15.58,12.63,53,53,0,0,1,3.48,4.13l.41.54a2.57,2.57,0,0,1,.24.35l.26.4,1,1.62a28.22,28.22,0,0,1,1.89,3.42,19,19,0,0,1,1.22,14.4c-.22.56-.42,1.13-.68,1.67s-.58,1-.88,1.57a16.48,16.48,0,0,1-2.33,2.74,8.46,8.46,0,0,1-1.35,1.18l-1.45,1.06c-.53.29-1.07.58-1.62.86l-.82.4-.88.32c-.59.2-1.18.4-1.78.58s-1.24.28-1.87.41-1.26.22-1.9.31-1.3.11-1.95.15-1.32.05-2,.05l-1.63-.05-1.61-.06h-.41l-.28,0L782,358l-17-1.38c-11.33-.91-22.66-1.86-34.12-2.53-5.73-.37-11.47-.72-17.29-.94s-11.66-.5-17.57-.55a422.75,422.75,0,0,0-46.83,1.44l-2.85.26-1.42.14-.29,0-.9.16L642,355l-3.57.57q-3.55.52-7,1.18c-2.33.41-4.66.83-7,1.28-3.47,1.06-6.61-.22-7.12-3.08a5.55,5.55,0,0,1,1.93-4.88l-.87.09-1.37-.15a4.61,4.61,0,0,1-3.14-1.66l-1-1.11c-1.33-2.18-3.49-3.95-4.67-6.43l.19-1-.26-.26a4.47,4.47,0,0,1-1.73-2.51l0-1.21a10.36,10.36,0,0,1,1.1-3.93,3.65,3.65,0,0,1,.18-1.47,5,5,0,0,1-.59-3.89.72.72,0,0,1,.08-1.17,1.08,1.08,0,0,1,.5-.18h0a9.36,9.36,0,0,0-.57-.75l-.58-.19c-1-.22-1-.22-1.83-.43a4.93,4.93,0,0,1-1.23-1c-.93-2.2-.94-2.21-.87-3.14,0-.09.09-.18.14-.27l-.9-.47a2.83,2.83,0,0,1-.33-.38c-.06-.52-.06-.52-.19-.71a1.81,1.81,0,0,1,0-.39c.33-.54.33-.54.33-.7a1.49,1.49,0,0,1,.19-.27l.66-.22,1,1.37.18-.44.25.61-.16-.55.49.36-.56-.52a4.88,4.88,0,0,0,1.55.27,2.35,2.35,0,0,0,.89,0,2.2,2.2,0,0,1,0-.29c1.19.27,1.19.27,2.34.56a2.93,2.93,0,0,1,.28.36.54.54,0,0,1,.55-.16l.6.12.13-.07v0l.49-.22.11-.05h0c.72-.31,1.44-.63,2.17-.93a8.83,8.83,0,0,1,1,.34l-.29-.26c-.19-.18,0-.62-.13-.67a53,53,0,0,0-8.08-2.49,1,1,0,0,1-1.06-.7c-.09-.4.25-.73.75-.73a18.83,18.83,0,0,1,8.94-.91,34.11,34.11,0,0,1,9,2.53c1.48.35,2.93.78,4.4,1.13l-.2-.23,1.13.47.12,0-.85-.87-.59-.3a88.18,88.18,0,0,1-9.94-3.54c-1.82-.66-3.4-1.66-5.16-2.48-.45-.09-.77-.43-.73-.76s.46-.51.9-.41a41,41,0,0,1,8.93,1.4,23.72,23.72,0,0,1,7.91,3.63,6.76,6.76,0,0,1,2.81,1.08l0,0-.62-.71c.77.27,1.16.83,1.85,1.14-.07-.28-.16-.59-.23-.87,1.88.52,3.84.88,5.73,1.37a27.31,27.31,0,0,1,5.46,1.8l.39.13c.75-.15,1.51-.3,2.31-.38l.59,0h.19l.95.14,1.91.29q3.84.57,7.93,1.26l-5.5-1.08-2.75-.54-2.59-.53,5.8.82,6,.91c4,.72,8.06,1.41,12.26,2.24,5.65,1.22,11.49,2.33,17.17,3.68s11.27,2.57,16.51,3.85c10.47,2.51,19.54,4.89,25.34,6.56C741,335,751.77,337,762.52,338.81c5.37.89,10.75,1.83,16.12,2.61l4,.62,2,.29c.42,0,.84.06,1.26.11a2.86,2.86,0,0,0,.44,0h.37a6.15,6.15,0,0,0,.73-.06,4.4,4.4,0,0,0,1.38-.41,2.39,2.39,0,0,0,1.41-2.32,5.13,5.13,0,0,0-1-2.68l-.24-.34a4.08,4.08,0,0,0-.35-.42L787.56,335l-1.2-1.17c-.4-.39-.87-.77-1.3-1.14a43.07,43.07,0,0,0-5.87-4.08,58.17,58.17,0,0,0-6.59-3.35,14.4,14.4,0,0,0-1.87-.69l-2-.64-6.53-2.09c-.3-.09-.56-.19-.89-.27l-1.1-.17-2.21-.35-4.43-.7c-1.42-.19-3.12-.55-4.71-.85L744,318.6l-2.42-.47-2.13-.61-4.25-1.24-2.13-.62-1.07-.31c-.36-.1-.6-.2-.91-.3l-3.53-1.24-2.75-1-1.21-.46a5.49,5.49,0,0,1-.71-.38c-.8-.48-1.28-.83-1.3-1s.61.07,1.44.39c.42.16.91.36,1.45.59a9.14,9.14,0,0,0,1.12.41l1.38.47,5,1.71,1.26.43,1.5.43,3,.85,3,.86a26.13,26.13,0,0,0,3.11.78l6.74,1.29c2.32.47,4.3.76,6.36,1.1l3.08.49,1.53.25a3.37,3.37,0,0,1,.68.17l.6.19,8,2.6c.47.15,1,.3,1.41.47l1.23.56c.82.38,1.67.73,2.45,1.15s1.61.81,2.38,1.25l2.31,1.35a37.27,37.27,0,0,1,7.91,6.43l.78.87.4.54a8.63,8.63,0,0,1,.64,1.07,5,5,0,0,1,.63,2.35,2.8,2.8,0,0,1-1.08,2.14,4.79,4.79,0,0,1-2.29.87,7.49,7.49,0,0,1-1.25.07,1.42,1.42,0,0,1-.35,0l-.49-.05-1-.08-5.86-.84c-3.91-.56-7.83-1.17-11.74-1.8,3.27.56,6.54,1.14,9.8,1.64l4.91.77,2.46.38c.47.08.67.08,1,.11l.83.09a1.21,1.21,0,0,0,.35,0h.84a8.19,8.19,0,0,0,1.11-.12,4.5,4.5,0,0,0,2.07-.85,3,3,0,0,0,1.12-1.9,4.53,4.53,0,0,0-.27-2.24,9.32,9.32,0,0,0-1.09-2.06c-.13-.18-.22-.32-.38-.53l-.69-.79c-.43-.53-1-1-1.45-1.54a42.34,42.34,0,0,0-7-5.51,59.64,59.64,0,0,0-8.28-4.37c-1.71-.62-2.78-1-5.83-2.06l-1.95-.66-1-.33a5.07,5.07,0,0,0-1.05-.3l-4.88-.89-2.5-.46c-.84-.15-1.79-.36-2.68-.54l-5.45-1.12-1.37-.28c-.45-.09-.82-.23-1.24-.34l-2.43-.72L737,314.37c-1.48-.47-2.74-.94-4.11-1.41l-4-1.4L723.65,309c-2.12-.94-4.17-1.88-6.07-2.88a12.43,12.43,0,0,1-2.35-1.51c-.69-.51-1.78-1-2.53-1.55l-1-.79c-.17-.13-.3-.26-.5-.39l-.62-.42-1.25-.82-.88-.82-.44-.42-.58-.44-1.17-.88c-.54-.59-1.11-1.16-1.62-1.78-.28-.31-.5-.6-.82-.93l-1-1-.26-.25-.18-.26-.35-.5c-.24-.33-.48-.67-.7-1s-.4-.68-.71-1.09l-.9-1.18-.55-1.21c-.18-.41-.32-.86-.49-1.29s-.27-.93-.41-1.38-.36-1-.53-1.54a2.21,2.21,0,0,1-.14-.8l-.06-.8v-1.71l0-.94,0-.46a2.24,2.24,0,0,1,.09-.45,13.84,13.84,0,0,1,.5-1.78,15.33,15.33,0,0,0,.56-1.78c.09-.29.16-.6.26-.89l.48-.79.48-.79.41-.79a4.8,4.8,0,0,1,.94-1.5c.4-.45.82-.89,1.21-1.34l1.05-1.35a5.26,5.26,0,0,1,1.28-1.2c.47-.37,1-.74,1.4-1.11.86-.75,1.67-1.55,2.58-2.25l1.36-1.07a10.87,10.87,0,0,1,1.41-1l3-1.84,3-1.6c1-.54,2-.95,3-1.43l2.92-1.32.72-.33a6,6,0,0,1,.88-.12l1.82-.2.91-.09a4.45,4.45,0,0,0,.73-.26l1.41-.55.7-.28c.28,0,.62,0,.93,0h1.9c.31,0,.64,0,.95,0l.8-.21,1.6-.41.4-.11a1.06,1.06,0,0,1,.45-.05l1.07.08,2.14.14a8.14,8.14,0,0,0,2-.12l2-.25c.32,0,.69-.07,1.08-.09l1.13-.06,2.27-.12c1.38,0,2.85,0,4.26,0a17.28,17.28,0,0,0,2.15-.1l2.15-.16a42.47,42.47,0,0,1,4.4-.12h2.22c.25,0,.22-.05.3-.08L765,252l.35-.26,1.33-.95a7.67,7.67,0,0,1,.91-.53l.12-.06,0,0h0c1.35,2.89-3-6.48,3,6.48v0l0,.09a8.15,8.15,0,0,0,.33.75,7,7,0,0,0,.44.72c.16.24.38.52.4.58a3.19,3.19,0,0,0,.56.7l.1.09h0l0,.05,0,0,0,0-.07-.05-.28-.18-.26-.12-.06,0-.16-.08-.32-.15a5.47,5.47,0,0,0-.64-.23l-.31-.08a3.15,3.15,0,0,1-.38-.1,10,10,0,0,0-2-.45l-.49,0-.7-.12c-.47-.07-.93-.12-1.39-.15-1-.07-1.69,0-3-.07h-1s0-.17-.06-.25a31.81,31.81,0,0,0-1.73-5.33c-.94-2.36-2.21-5-3.62-7.68s-3-5.49-4.66-8.35c-3.35-5.74-7.12-11.64-11.19-18.2-1.43-2.34-2.88-4.71-4.43-7.41l-.57-1-.49-.89L734,207l-1.95-3.64c-2.59-4.91-5.14-10.06-7.42-15.59A108.19,108.19,0,0,1,719,169.91a74.8,74.8,0,0,1-1.71-20.4c.16-1.78.33-3.56.56-5.34s.63-3.55,1-5.31a65,65,0,0,1,3.33-10.19,70.57,70.57,0,0,1,10.57-17.1,83.61,83.61,0,0,1,13.62-12.93,110,110,0,0,1,14.87-9.42c5.33-2.9,10.41-4.78,11.25-4.72s-2.71,2.08-7.94,4.92c-2.54,1.4-5.09,2.9-7.61,4.53s-5,3.35-7.5,5.26a87.54,87.54,0,0,0-7.24,6.18,83.58,83.58,0,0,0-6.67,7.21,68,68,0,0,0-10.59,17.75,58.82,58.82,0,0,0-3.07,10.53,53.5,53.5,0,0,0-.82,5.45l-.25,2.73c-.09.91,0,1.8-.08,2.71a75.42,75.42,0,0,0,2.67,20.58,114.41,114.41,0,0,0,6.51,17.85c2.51,5.54,5.23,10.72,7.93,15.67l1,1.85,1.16,2.06,2.27,3.8c1.48,2.46,2.93,4.8,4.37,7.12,2.86,4.61,5.64,9.1,8.21,13.55s4.94,8.84,6.88,13a61,61,0,0,1,2.39,5.94,21.26,21.26,0,0,1,1.09,4.31,2.83,2.83,0,0,0,0,.42c0,.05,0,.05,0,0h.26a17.71,17.71,0,0,1,2.15.25,14.87,14.87,0,0,1,1.59.22l.79.2.4.13a1.22,1.22,0,0,0,.27.06,4.84,4.84,0,0,1,1,.33c.16.06.36.16.48.22l.19.08a2.24,2.24,0,0,1,.43.26c.06,0,0,0,0,0l0,0,0,0a0,0,0,0,1,0,0l0,0-.14-.13a3,3,0,0,1-.44-.53c-.07-.11-.07-.14-.19-.31s-.27-.36-.39-.55A7,7,0,0,1,771,257l-.11-.29c-3.28-7-.93-1.94-1.67-3.51h0l0,0-.23.1-.45.21c-.31.15-.59.3-.91.49l-1.24.72-.61.35-.16.09s-.24,0-.35,0h-.78l-3.15,0c-2.08,0-4.08.29-6.11.3s-4.09-.13-5.85,0l-1.39,0c-.46,0-.93,0-1.32.06l-2.48.19a12.79,12.79,0,0,1-2.6-.11l-1.32-.12-.66-.06a1.77,1.77,0,0,0-.54.07,15.14,15.14,0,0,1-4.38.44l-1.21,0a2.36,2.36,0,0,0-1.09.09l-1.87.56a8.67,8.67,0,0,1-2.18.31l-1.17.09-.59,0-.29,0-.24.09c-1.3.49-2.53.92-3.89,1.49l-2,.8c-.67.29-1.34.64-2,.95s-1.35.61-2,1l-2,1.13a31.44,31.44,0,0,0-3.78,2.52c-1.22.92-2.24,1.91-3.55,2.85s-2.14,2.12-3.25,3.25A7.4,7.4,0,0,0,702,273l-.56,1-.65,1A6,6,0,0,0,700,277c-.2.67-.47,1.33-.67,2-.5,1.3-.17,2.82-.22,4.05a13.64,13.64,0,0,0,.19,1.84c.21.58.47,1.23.64,1.74a17.94,17.94,0,0,0,1.21,3,17.37,17.37,0,0,0,1.82,2.63,26.63,26.63,0,0,0,1.77,2.31l1.21,1.11c.38.36.66.69,1,1s.65.67,1,1a6.85,6.85,0,0,0,1.11,1,.15.15,0,0,1,.17-.1,4.41,4.41,0,0,1,1.17.41l.9.43c.33.17.7.37,1,.56a26.19,26.19,0,0,1-2.81-2.15c-.4-.36-.79-.73-1.17-1.12s-.75-.75-1.25-1.18a14.06,14.06,0,0,1-2.34-2.54c-.34-.46-.64-.88-1.08-1.4l-.61-.74a5.59,5.59,0,0,1-.46-.77,18.83,18.83,0,0,1-1.47-3.34l-.38-1a3,3,0,0,1-.28-1l-.14-1,0-1.08,0-1.13a3,3,0,0,1,.06-1.16l.26-1.12.39-1.1c.29-.73.45-1.5.8-2.19s.87-1.31,1.24-1.94l.38-.68a2.48,2.48,0,0,1,.43-.64l1.07-1.16c.72-.75,1.26-1.56,2-2.25s1.69-1.28,2.43-1.92,1.51-1.31,2.35-1.88l1.22-.88a9.92,9.92,0,0,1,1.26-.85l2.65-1.53c.89-.52,1.8-.89,2.7-1.34.45-.21.9-.44,1.35-.64l1.35-.54c.9-.36,1.81-.75,2.67-1.05l1.31-.48a3.57,3.57,0,0,1,1.4-.36c1-.1,2.14-.14,3.11-.3l2.56-.74c1,0,2.16,0,3.24,0h.41l.36-.06.7-.13,1.42-.25a4.16,4.16,0,0,1,.74-.09l.91.08,1.8.15.91.08a6.11,6.11,0,0,0,.86-.05l1.7-.13c1.09-.11,2.41-.12,3.67-.16.65,0,1.25-.05,1.94,0l2.08,0,2.09,0,2.11-.15c1.41-.1,2.82-.2,4.3-.19l2.2,0h1l.06,0,.45-.25,1.77-1c.45-.25.9-.46,1.36-.66l.17-.07.09,0,1.32,2.83v.07l0,.11c.11.27.24.54.38.81.28.52.79,1.15.85,1.3a2.72,2.72,0,0,0,.31.38c.1.12.32.31.26.26s.06.08.09.1a2,2,0,0,0-.61-.34l-.27-.14-.36-.16a6.51,6.51,0,0,0-.71-.23l-.35-.08-.57-.18a10.19,10.19,0,0,0-1.14-.25l-.57-.08-.28,0h-.14l-.19,0-.79-.12-.64-.07c0,.08,0-.25,0-.46s-.05-.4-.06-.59,0-.2,0-.32l-.08-.39-.13-.81-.21-.93-.11-.48-.15-.51-.29-1-.71-2.22a129.57,129.57,0,0,0-5.7-13.27c-2.2-4.51-4.57-9-7-13.57s-4.93-9.1-7.46-14l-1-1.88-1-1.94-1.7-3.62c-1.14-2.44-2.27-4.92-3.37-7.45-1.56-3.14-3.12-6.32-4.53-9.67-.73-1.64-1.37-3.39-2-5.08s-1.28-3.47-1.82-5.29a85,85,0,0,1-2.74-11.21l-.41-2.95-.2-1.47-.11-1.51-.19-3v-3.06A56.1,56.1,0,0,1,731,127.41a70.37,70.37,0,0,1,13.66-18.82,12.37,12.37,0,0,1,2.2-1.9c.4-.21,0,.29-.85,1.16a75.18,75.18,0,0,0-9.89,12.33,61.25,61.25,0,0,0-7,15.08,56.42,56.42,0,0,0-2.31,17,68.34,68.34,0,0,0,2.39,16.45,17.47,17.47,0,0,1,0-4.08c.13-1,.36-1.43.71-1.36.75.12,1.72,2.6,3.14,6.2a66.86,66.86,0,0,1-2.25-14.07,20.19,20.19,0,0,1,.11-3.79c.11-.95.26-1.51.43-1.46s.32.64.43,1.58.13,2.23.25,3.61c.52,9.68,3.43,18.76,7,27.17,1.78,4.22,3.75,8.31,5.81,12.28,1,2,2.06,4,3.11,5.91l.79,1.47.84,1.51,1.7,2.94c5.66,9.09,11.4,17.69,16.38,26.62a117.87,117.87,0,0,1,6.6,13.47,52.7,52.7,0,0,1,2.18,6.7,18.62,18.62,0,0,1,.59,6c.14-.48.37-.9.51-1.38s.28-.93.43-1.35a8.64,8.64,0,0,1,.8-2.1h0a47.58,47.58,0,0,0-2.54-8.67,150.55,150.55,0,0,0-10.38-19.15c-3.88-6.29-8-12.46-12.13-18.85-2.06-3.16-4.11-6.61-6-9.87s-3.73-6.71-5.49-10.17-3.38-7.06-4.86-10.75a92.8,92.8,0,0,1-3.66-11.5,65.49,65.49,0,0,1-1.7-12.25A52.74,52.74,0,0,1,733,140.76a50.53,50.53,0,0,1,4.17-11.87,62,62,0,0,1,6.55-10.47,85.16,85.16,0,0,1,17.39-16.62,202.51,202.51,0,0,1,19.75-12.52,9,9,0,0,1,2-1,6.6,6.6,0,0,1-1.65,1.13c-8,4.66-16.12,9.53-23.58,15.55a74.17,74.17,0,0,0-18.95,22l0-.07c.46-.66.67-.72.33.09a30.09,30.09,0,0,1-1.41,2.77c-.5.78-.6.64-.35-.07a50.64,50.64,0,0,0-4.58,27.38,82.49,82.49,0,0,0,7.71,25.82c1.85,4,3.86,7.86,5.95,11.63,1.06,1.88,2.11,3.75,3.19,5.59.52.92,1.09,1.87,1.66,2.81l1.71,2.76c4.61,7.24,9.32,14.15,13.68,21.24-3.87-6.69-8-13.23-12.17-20-1-1.68-2.05-3.37-3.05-5.13s-1.92-3.44-2.87-5.19c-1.89-3.46-3.71-7-5.43-10.6a119.65,119.65,0,0,1-4.66-11.1c-.71-1.89-1.29-3.84-1.89-5.78s-1.05-3.94-1.41-6a52.42,52.42,0,0,1,.65-24.58,49.5,49.5,0,0,1,3.5-10.28,10.28,10.28,0,0,1,1.45-2.28c.24-.18,0,.5-.47,1.41s-.86,1.81-1.25,2.74c2.74-5.61,6.14-9,6.57-8.56.4.69-2.22,5.1-4.67,10.73a44.7,44.7,0,0,0-3.27,11.81,47.24,47.24,0,0,0-.13,12.23,68.91,68.91,0,0,0,2.54,12,102,102,0,0,0,4.37,11.44c.75,1.6,1.55,3.18,2.38,4.74s1.84,3.06,2.78,4.57a136.61,136.61,0,0,1-7.52-17.39,67.29,67.29,0,0,1-3.66-18.29,45.84,45.84,0,0,1,2.91-18.1,57.52,57.52,0,0,1,9.36-15.84c1.32-1.67,2.67-2.9,2.86-2.78s-.79,1.52-2.08,3.18c-6.46,8.57-10.82,18.71-10.71,29.08a51.73,51.73,0,0,0,2.36,15.42,93.72,93.72,0,0,0,6,14.89c2.4,4.87,5.13,9.66,8,14.46,1.45,2.44,2.81,4.69,4.32,7l4.62,7c3.11,4.73,6.24,9.53,9.23,14.49a163,163,0,0,1,8.42,15.53A69.58,69.58,0,0,1,789,249.18a37.48,37.48,0,0,1,1.71,6.85,24.34,24.34,0,0,1-.27,8.6,18.77,18.77,0,0,1-5.33,9.29,18.44,18.44,0,0,1-2.08,1.74c-.7.48-1.43.94-2.17,1.38a8.89,8.89,0,0,1-.92.49l-.83.4-1.67.79c-.55.25-1.13.55-1.68.75l-1.62.54-1.62.55-.41.14-.2.07-.12,0-.48.14c-.64.17-1.26.39-1.89.52l-1.88.33,2,0c.67,0,1.33-.17,2-.25a21.21,21.21,0,0,0,2.34-.53c.92-.25,1.8-.42,2.74-.73s1.92-.72,2.87-1.1l1.41-.57.19-.07.24-.13.49-.26,1-.53a18.11,18.11,0,0,0,1.9-1.2c.63-.48,1.25-1,1.85-1.51a13.28,13.28,0,0,0,1.69-1.74,22.54,22.54,0,0,0,1.51-1.94,21.21,21.21,0,0,0,2.15-4.21c.25-.7.52-1.43.71-2.13s.29-1.34.41-2l.18-1c0-.32.06-.62.08-.93l.11-1.86c0-1.21-.06-2.27-.11-3.41s-.27-2.07-.43-3.09l-.61-2.84a62.51,62.51,0,0,0-3.47-9.81c-1.32-3-2.76-5.81-4.25-8.5s-3.05-5.27-4.63-7.79c-3.17-5-6.47-9.8-9.77-14.45s-6.65-9.23-9.54-13.61c-3-4.7-6-9.37-8.65-14.16A98.39,98.39,0,0,1,745,166.58a53.89,53.89,0,0,1-3.14-15.76,4.8,4.8,0,0,1,.05-1.4,1.55,1.55,0,0,1,.2-.69c.15-.11.23.62.24,1.69a52.28,52.28,0,0,0,3,15.15,90.29,90.29,0,0,0,6.54,14.24c2.56,4.64,5.43,9.2,8.43,13.84l1.12,1.73,1.1,1.63,2.33,3.36,4.93,7a280.06,280.06,0,0,1,15.8,24.49,93.14,93.14,0,0,1,6.51,14.1c.24.63.44,1.35.65,2s.43,1.35.6,2.11l.53,2.2.4,2.4a27.94,27.94,0,0,1-.69,11.66,28.32,28.32,0,0,0,1-11.85,46,46,0,0,0-2-8.87,89.36,89.36,0,0,0-6.15-14.16,246.32,246.32,0,0,0-14.8-23.64c-2.53-3.69-5.11-7.33-7.46-10.83l-1.69-2.58-1.75-2.78c-1.14-1.84-2.28-3.69-3.37-5.53-4.37-7.35-8.29-14.77-10.68-22.43a11.09,11.09,0,0,1-.54-2,13.89,13.89,0,0,1-.23-1.62,1.66,1.66,0,0,1-.38-.72A39.08,39.08,0,0,1,743.72,147a7.27,7.27,0,0,1,.39-2.26C744.27,144.36,744.35,144.88,744.34,145.79ZM621.8,322.52a1.29,1.29,0,0,0-.15-.17l.52.3.73,1.09Zm-9,3.68h0l-.43-.63Zm176.06,17.33a9.78,9.78,0,0,1-1.71.24h-.86c-.3,0-.79-.08-1.17-.11l-.63,0-.88-.13-1.76-.26-3.51-.53c-4.68-.69-9.35-1.5-14-2.28-9.32-1.63-18.6-3.37-27.87-5.28l13.61,2.42c7,1.33,14.08,2.62,21.13,3.82,3.53.62,7.06,1.16,10.59,1.74l2.66.41,1.82.2A9.81,9.81,0,0,0,788.85,343.53ZM615.61,318a12.77,12.77,0,0,1,2.13,2.16,6,6,0,0,1,1.69,0c1.55.18,3.06.41,4.54.7-.19-.39.17-.31.35-.34l.55,0-4.79-1.23A42.8,42.8,0,0,1,615.61,318Zm-11.16.95-.15-.16.27-.62S604.52,318.52,604.45,319Zm-.42,1,.24.1C604.2,320.33,604.12,320.25,604,320Zm2.15.87a1.93,1.93,0,0,0-.32-.35Zm2.28,18.18.63-3.14-.71,3Z"/><path d="M592,129.67l-.41.31a.77.77,0,0,1,0-.88,6.12,6.12,0,0,0-1.83,5.61,10.67,10.67,0,0,0,2.93,5.24,1.82,1.82,0,0,0,1.9,2,2.36,2.36,0,0,0,2.45-1.77,2.72,2.72,0,0,1,.48-.67,17,17,0,0,0,4.42-5.13l-1.14,1.11a4.52,4.52,0,0,0,.74-1.71l-.7.2a3.59,3.59,0,0,0-.61-5.85,6,6,0,0,0-7.32.68Z"/><path d="M584.52,133.29c.9-1.25,1.86-2.43,2.84-3.59l.44-.21h-1.89l.12,0c1.5,1.2,1.94,3.05,2.29,4.75l.26.61a1.56,1.56,0,0,0,1,.55,1.68,1.68,0,0,0,1.94-1.14,8.89,8.89,0,0,1,.22-.89c1.3-2.15,1.67-5.45-1.44-6.88a6.52,6.52,0,0,0-2.56-.15,2.24,2.24,0,0,0-2.58,1.74,2,2,0,0,0,1.94,2.26l-.31.56-.41-.47c1.06.36,1.22,1.38,1.73,2.14l.2,1.14,3-.58-.33-.58c-.13,0-.32.12-.33.11a16.25,16.25,0,0,1-1.81-3.42l-.94-1.59a1.53,1.53,0,0,0-1.9,0l-.69.65.4-.29c-.79,1.56-1.31,3.24-2.13,4.83a.48.48,0,0,0,.22.7A.63.63,0,0,0,584.52,133.29Z"/><path d="M584.57,127.6a1.15,1.15,0,0,0,.48-.85l-.23-.18-.54.48C583.89,127.4,584.16,127.6,584.57,127.6Z"/><path d="M584.82,126.57l.23-.19-.29.12,0,0Z"/><path d="M625.67,249.38c1,1.55,2.14,3,3.22,4.5s2.16,3,3.33,4.45c2.35,2.86,4.62,5.83,7.15,8.57,1.25,1.39,2.46,2.82,3.74,4.19l3.91,4c.66.67,1.3,1.36,2,2l2,1.94,4.1,3.9c.38.33.76.54.86.46s-.14-.41-.5-.71a212,212,0,0,1-15.69-16.06c-2.51-2.74-4.77-5.68-7.1-8.55-1.18-1.42-2.21-3-3.32-4.43l-1.63-2.22c-.56-.74-1.09-1.49-1.58-2.26-.28-.41-.59-.67-.74-.65S625.42,249,625.67,249.38Z"/><path d="M707.84,329.1c-.38-.09-.41,0-.08.24a4.19,4.19,0,0,0,1.19.55c.31.07.35-.05.07-.25A4,4,0,0,0,707.84,329.1Z"/><path d="M701.42,334.92c-1.08-.39-2.13-.76-3.16-1.1s-2-.71-2.92-1a4.76,4.76,0,0,1-1-.47c0,.21-.42.16-1.19-.13-3.87-1.37-7.68-3.05-11.57-4.73-2-.82-3.85-1.79-5.79-2.71S671.94,323,670,321.9l-5.75-3.06c-1.93-1-3.79-2.18-5.7-3.26-3.83-2.15-7.5-4.58-11.25-6.89a1.64,1.64,0,0,1-.88-.06,18.41,18.41,0,0,1-5.37-3.2l-1.47-1.24c-1.52-1.19-3-2.51-4.42-3.76s-2.94-2.53-4.38-3.82l-4.23-4c-1.4-1.33-2.81-2.64-4.14-4a45.94,45.94,0,0,1-4.25-3.41c-1.35-1-2.63-2.1-3.92-3.2l-3.89-3.31c-1.32-1.09-2.55-2.29-3.82-3.46l-3.77-3.59c.17.42.21.74.06.86-.45.2-1.85-.74-3-2.23L598,268.08l2.5,3.27c.85,1.08,1.74,2.11,2.6,3.17a10.75,10.75,0,0,1,.67.86l3,3.35c1,1.11,2.14,2.16,3.23,3.25a205.83,205.83,0,0,0,30.27,24.54,255.24,255.24,0,0,0,32.32,18.22,4.22,4.22,0,0,1,1.19.69c.16.19.06.28-.36.11-14.32-5.8-27.28-10.83-42.33-20.75a233.73,233.73,0,0,1-25.78-19.62,225.56,225.56,0,0,1-23.54-23.81,336.09,336.09,0,0,1-19.66-29.06c-1.46-2.53-3-5-4.41-7.62l-4.2-7.87c-1.33-2.68-2.61-5.42-3.94-8.18-.32-.7-.66-1.39-1-2.09l-.9-2.13c-.6-1.43-1.21-2.87-1.81-4.32l-1.23-2.94c-.39-1-.73-2-1.1-3q-1.08-3-2.14-6l-.53-1.49-.47-1.52-.92-3c-.6-2-1.22-4-1.79-6.07l-.38-1.53-.19-.77-.09-.29-.31-1.06-.6-2.13c-.39-1.42-.77-2.83-1.15-4.25a163,163,0,0,1-3-17.45,8.61,8.61,0,0,1,.7-6.07,6.05,6.05,0,0,1,4.22-3.18,6.45,6.45,0,0,1,5.85,2.31c0-.35,0-.7,0-1l.36-1.65a6.12,6.12,0,0,1,2.43-3.71l1.5-1.12c2.85-1.47,5.44-3.79,8.54-4.84l1.15.3.35-.26a5.52,5.52,0,0,1,3.21-1.59l1.41.16a14.31,14.31,0,0,1,4.51,1.52,5,5,0,0,1,1.73.3,7,7,0,0,1,4.65-.21,1,1,0,0,1,1.38.18,1,1,0,0,1,.19.48h0a8.74,8.74,0,0,0,.92-.46c.14-.33.24-.52.24-.52.31-.88.31-.88.59-1.63a4.49,4.49,0,0,1,1.26-1c2.58-.57,2.58-.56,3.67-.39l.3.16c.4-.54.43-.58.56-.73a2.69,2.69,0,0,1,.44-.24c.59,0,.59,0,.81-.06a2.17,2.17,0,0,1,.44,0c.63.35.63.35.82.37a2.33,2.33,0,0,1,.31.2c.17.38.24.53.26.59l-1.58.69.51.2-.71.14.65-.06-.42.37.6-.42a3,3,0,0,0-.31,1.3,1.35,1.35,0,0,0,0,.77,1.71,1.71,0,0,1,.34,0c-.32,1-.32,1-.67,2a4.25,4.25,0,0,1-.43.21.43.43,0,0,1,.19.49l-.15.51a.44.44,0,0,0,.08.11h0l.27.44.06.09h0c.17.3.46.74,1.23,1.89a6.38,6.38,0,0,1-.32.84l.29-.24c.2-.16.75,0,.81-.1A45.61,45.61,0,0,0,588,129.1a.85.85,0,0,1,1.68-.11,13.5,13.5,0,0,1,1.59,7.25,15.72,15.72,0,0,1-.66,3.74c-.19.62-.41,1.24-.66,1.85s-.47,1.21-.75,1.81c-.27,1.23-.49,2.49-.7,3.75l.27-.2-.4,1s0,.08,0,.11l1-.8.28-.53a17.45,17.45,0,0,1,1.19-4.2c.51-1.36,1.29-2.69,1.82-4a34,34,0,0,1,2.4-4,.75.75,0,0,1,.86-.53.63.63,0,0,1,.6.7,18.87,18.87,0,0,1-.49,6.9,14.73,14.73,0,0,1-3.16,6.52,4.25,4.25,0,0,1-.83,2.41v0l.79-.6c-.17.65-.82,1-1.06,1.66l1.09-.32c-.48,3.18-.05,6.51-1.2,9.66a2,2,0,0,1-.06.35,14.85,14.85,0,0,1,1.26,1.75,4.09,4.09,0,0,1,.25.46.81.81,0,0,1,.06.13l.09.36.15.72c.18,1,.46,2,.64,3q-.09-1.1-.18-2.16l-.06-2.12c.4,1.48.79,3,1.19,4.45a47.72,47.72,0,0,1,.92,4.73c.83,4.42,1.35,9.22,1.81,13.59.1,1.1.17,2.17.2,3.21s.14,2,.16,3a26.54,26.54,0,0,1-.27,5,201.82,201.82,0,0,0,11,24.9,184.77,184.77,0,0,0,14.65,23.06,2.89,2.89,0,0,1,.81,1.85c-.15.24-.71-.11-1.29-.86-2.16-2.49-4-5.2-6-7.85-1-1.31-1.9-2.71-2.82-4.09l-2.76-4.16c-.88-1.41-1.7-2.86-2.56-4.29s-1.74-2.84-2.5-4.33L604,217.41l-1.18-2.21-1.06-2.27a160.27,160.27,0,0,0,15.54,30.35c.85,1.21,1.68,2.44,2.61,3.61a40.83,40.83,0,0,1,2.47,3.64l1.63,2.25c.57.72,1.15,1.44,1.72,2.17l3.42,4.32c1.17,1.41,2.39,2.78,3.58,4.17s2.38,2.78,3.67,4.09l3.8,4c1.26,1.36,2.65,2.58,4,3.88s2.68,2.6,4.12,3.82l4.34,3.71c1.23,1.08,2.52,2.06,3.77,3l3.74,2.92c2.48,1.9,5,3.65,7.5,5.46s5.12,3.42,7.72,5.16,5.36,3.32,8.17,5c8,4.64,15.81,8.65,23.72,12.49s16,7.27,24.46,10.79c2.29.84,4.28,2,4.41,2.51s-1.66.28-4-.56c-9-3.24-17.92-6.83-26.59-10.84a278.16,278.16,0,0,1-25.32-13.51,216.09,216.09,0,0,1-23.72-16.57A182.29,182.29,0,0,1,635,268.73c-1.49-1.54-2.81-3.2-4.2-4.78s-2.76-3.16-4-4.83a.54.54,0,0,1-.13.25c-.27.24-.77.15-1.4-.19.73.93,1.44,1.9,2.2,2.82l2.31,2.76c1.54,1.85,3,3.75,4.67,5.54,9.76,9.28,20.19,17.79,31.49,26.76,7.81,6.1,15,11.59,22.7,16.81a301.32,301.32,0,0,0,31.94,15,2.75,2.75,0,0,1,1,.53c.12.15-.15.13-.6,0-1.94-.66-3.86-1.39-5.8-2.1l-2.92-1.08c-1-.38-1.93-.79-2.89-1.18l-5.82-2.41L697.78,320c1,.9,1.57,1.63,1.27,2s-1.41.27-3-.2l5.16,2.68c1,.57,1.83,1.12,1.7,1.31s-1.07,0-2.08-.55c-3.52-1.82-7.08-3.57-10.51-5.54-1.72-1-3.46-1.9-5.17-2.91l-5.07-3a250.37,250.37,0,0,1-23.9-15.39,6.39,6.39,0,0,1,1.46,2.67h0c1.19.87,2.39,1.73,3.57,2.6a366.13,366.13,0,0,0,73.9,35.72c.52.18.92.4.9.5s-.45,0-.91-.15c-3.94-1.45-7.9-2.8-11.78-4.38-1.94-.77-3.92-1.47-5.83-2.3l-5.78-2.42,0,0c.29.19.3.32-.07.24a4.49,4.49,0,0,1-1.2-.5c-.33-.22-.25-.31.06-.25a378.64,378.64,0,0,1-41.16-21,330.32,330.32,0,0,0,37.22,20.55c1.47.52,2.9,1.09,4.4,1.57a3,3,0,0,1,1,.57c.08.13-.25.1-.66-.05l-1.24-.42c2.46,1.08,4.21,2.28,4,2.75s-2.65-.07-5.24-1.17c-6.9-3-13.74-6.09-20.35-9.64l-2.19-1.06-2.3-.91A287.69,287.69,0,0,0,715.3,337c.92.37,1.66.83,1.61,1s-.86,0-1.79-.35a267.07,267.07,0,0,1-28.59-12.05,250.42,250.42,0,0,1-27.34-15.48c-3.15-1.52-6.22-3.21-9.39-4.82s-6.22-3.46-9.37-5.27c.69.59,1.42,1.13,2.14,1.69,2.32,1.74,4.58,3.48,6.91,5s4.65,3,6.95,4.5,4.69,2.72,7,4,4.71,2.49,7,3.72c9.44,4.78,19,9,29.08,13.4.51.2.9.46.92.58s-.37.05-.88-.18c-9.93-4.22-19.08-8-28.72-13l-5.89-3.1c-1.93-1.05-3.8-2.15-5.69-3.2l-2.82-1.58c-.93-.53-1.83-1.09-2.75-1.63l-5.49-3.22,5.33,3.56c.89.58,1.76,1.18,2.66,1.73L659,314c1.81,1.08,3.61,2.16,5.42,3.21l5.51,3,2.76,1.48,2.79,1.4,5.59,2.8,5.67,2.64,2.83,1.34,2.88,1.26a7.2,7.2,0,0,1,1.71.93.72.72,0,0,1,.43.05c2,.66,4.15,1.48,6.37,2.24a3.28,3.28,0,0,1,1.1.6C702.18,335.09,701.89,335.06,701.42,334.92ZM577.72,143.34l.2-.14-.33.49-1.33.73ZM572.66,135h0l.78-.39Zm32.43,88.5c-1.73-3.68-3.56-7.27-4.93-11.06-.7-1.89-1.46-3.74-2-5.65S597,203,596.44,201c.75,1.78,1.49,3.56,2.24,5.35.93,2.87,2,5.69,3,8.58S604,220.62,605.09,223.5Zm-22.15-85.78a13,13,0,0,1-2.55,1.88,3.64,3.64,0,0,1,.16,1.5c-.16,1.39-.21,2.74-.44,4.08.48-.19.43.13.49.29l.14.49c.3-1.44.58-2.87,1-4.31A29.26,29.26,0,0,1,582.94,137.72ZM581.56,128l.19-.11.71.3Zm-1.22-.48-.12.2C580,127.58,580.05,127.52,580.34,127.47Zm-1.06,1.81a1.69,1.69,0,0,0,.41-.24Zm-21.72.56,3.65.94-3.51-1Z"/><path d="M593,276.4l-.49-.27a1,1,0,0,1,.93-.38c-4.81-1.87-9.22,1.34-11.4,5a2,2,0,0,0-1.6,2.49,2.44,2.44,0,0,0,2.73,1.7,3.06,3.06,0,0,1,.89.21,20.8,20.8,0,0,0,7.35,2.38l-1.68-.69a6.41,6.41,0,0,0,2.22.1c-.15-.19-.32-.4-.48-.58,2.78,1,5.64-.26,6.41-2.88a5.58,5.58,0,0,0-3.63-6.62Z"/><path d="M586.46,270.8c1.62.37,3.2.81,4.79,1.29l.4.33-.72-1.79,0,.13c-.69,1.86-2.47,3-4.16,4l-.56.45a1.47,1.47,0,0,0-.25,1.12,1.78,1.78,0,0,0,1.92,1.43l1-.11c2.76.36,6.55-.55,6.84-4a6.18,6.18,0,0,0-.87-2.46,2.44,2.44,0,0,0-2.83-1.77,2.12,2.12,0,0,0-1.62,2.68l-.7-.07.33-.57c0,1.14-1,1.69-1.61,2.47l-1.12.63L589,277.1l.5-.54-.24-.27a19.35,19.35,0,0,1,3-3l1.32-1.48a1.46,1.46,0,0,0-.71-1.8l-1-.4.46.27c-1.93-.16-3.86,0-5.79-.15a.55.55,0,0,0-.64.47A.59.59,0,0,0,586.46,270.8Z"/><path d="M592.37,268.67a1.36,1.36,0,0,0,1.08.12l.09-.27-.71-.33C592.32,268,592.21,268.28,592.37,268.67Z"/><path d="M593.54,268.52l.3.14-.25-.23s0,0,0,0Z"/><path d="M499.66,307.86c-8.67,3.42-17.23,7.23-25.67,11.31-.28.14-.47.33-.42.44s.31.08.56-.05q12.67-6.09,25.65-11.23c.29-.12.48-.31.46-.44S499.93,307.76,499.66,307.86Z"/><path d="M432.36,332.15c.15-.19.08-.27-.15-.19a1.61,1.61,0,0,0-.65.43c-.12.16-.05.25.15.19A1.61,1.61,0,0,0,432.36,332.15Z"/><path d="M429.79,324.75a30.37,30.37,0,0,0,2.74-2.66,1.74,1.74,0,0,1,.52-.36c-.16-.08,0-.35.33-.69,7.05-6.67,15.22-13.06,23.29-19.39a1.09,1.09,0,0,1,.14-.61,6.78,6.78,0,0,1,2.68-2.52l1-.51c3.89-2.24,7.77-4.47,11.71-6.56a16,16,0,0,1,2.43-2c3-2.57,6-5.15,9.16-7.63a.59.59,0,0,1-.58-.24c-.15-.44.48-1.22,1.4-1.77l1.38-.87L481.82,281a4.65,4.65,0,0,1-.57.26c-1.46.88-2.93,1.79-4.39,2.77-6.39,4.25-12.35,8.75-18.06,13.36s-11.17,9.31-16.52,14.06a1.55,1.55,0,0,1-.68.43c-.16,0-.2-.11,0-.3,6.31-6.68,11.31-13.35,19.06-20.3,9.22-8.25,18.59-16.23,28.73-24,11.18-7,21.19-14.3,32.64-21.82,4.24-2.77,8.47-5.43,12.73-7.94,6.62-4.22,13.34-7.85,20.32-11.41,3.45-2.25,7.69-1.44,9.41,1.77a6.88,6.88,0,0,1-.07,6.29l.9-.35,1.55-.21a5.54,5.54,0,0,1,4.06,1.07l1.51,1c2.3,2.23,5.25,3.73,7.35,6.27l.15,1.2.36.23a5.66,5.66,0,0,1,2.64,2.43l.39,1.38a14,14,0,0,1,.27,4.81,5,5,0,0,1,.35,1.74,7,7,0,0,1,1.93,4.29,1,1,0,0,1,.34,1.37,1,1,0,0,1-.41.36h0a9.76,9.76,0,0,0,.79.68c.38,0,.6,0,.6,0,1-.05,1-.05,1.85-.06a4.9,4.9,0,0,1,1.48.8c1.57,2.21,1.57,2.22,1.82,3.3,0,.12,0,.23,0,.34.71.18.76.19,1,.26a2.23,2.23,0,0,1,.42.32c.22.56.22.56.39.74a2.51,2.51,0,0,1,.17.42c-.12.73-.12.73-.06.91a1.78,1.78,0,0,1-.08.36l-.51.47-1.33-1.22v.55l-.42-.61.32.58-.55-.25.66.4a3.67,3.67,0,0,0-1.45.2,1.66,1.66,0,0,0-.78.32,2.39,2.39,0,0,1,.15.32c-1.15.07-1.14.08-2.27.12a4,4,0,0,1-.38-.32.46.46,0,0,1-.43.36l-.58.06-.08.12,0,0-.36.42-.07.1h0l-1.54,1.81a6.67,6.67,0,0,1-1,0l.36.18c.23.15.27.71.38.74a41.12,41.12,0,0,0,7.92.12.91.91,0,0,1,1.14.45.78.78,0,0,1-.38,1.09c-3.91,4.23-10,5.42-15.88,4.76-1.42.14-2.84.32-4.25.52l.29.19-1.18-.07-.12,0,1.13.67c.22,0,.43.08.64.1,3.23-.57,6.58.05,9.91.15a44.72,44.72,0,0,1,5.26.87.83.83,0,0,1,.9.63.67.67,0,0,1-.58.8c-4.82,2-10.79,2.92-16,1a4.66,4.66,0,0,1-2.86-.06h0l.86.58c-.76,0-1.37-.49-2.1-.56l.63.95c-3.64.41-7.18,1.84-10.9,1.45a2.58,2.58,0,0,1-.4,0,21.15,21.15,0,0,1-1.66,1.62l-.47.36-.12.08-.21.12-.44.22a18.79,18.79,0,0,1-1.87.81l2.81-.58a26.88,26.88,0,0,1-5.65,2.63C544.9,293.12,538,294,534,292.79c-10.68,4.42-21.3,9.1-31.62,14.28a1.47,1.47,0,0,1-1.33.15c-.17-.2.08-.57.61-.85,7.16-4.19,14.69-8,22.32-11.59-6.75,2.24-13.47,4.7-20.12,7.61l-2.49,1.26a17.78,17.78,0,0,1-2.56,1,260.36,260.36,0,0,0-24.54,12.55c-6.95,4.15-12.93,7.93-19.65,12.36-9.43,6.25-17.9,12.08-27.49,17.91-1.24.83-2.59,1.3-3,1.05s.29-1.14,1.52-2c9.55-6.75,19-13.39,28.91-19.73a300.56,300.56,0,0,1,31.07-17.76c2.38-1.13,4.72-2.27,7.06-3.35a.68.68,0,0,1-.18-.2,1.09,1.09,0,0,1,.15-1.1c-2.68,1.21-5.38,2.43-8.13,3.61-7,4.36-14,8.76-21.87,12.75-5.4,2.74-10.5,4.93-15.6,7.37-5.93,3.92-11.75,8-17.67,12a1.17,1.17,0,0,1-.64.29c-.13,0-.05-.17.17-.36,3.85-3.11,7.87-6.2,12-9.22-.85.17-1.48.1-1.66-.29s.11-1.07.76-1.82l-3,1.85c-.61.38-1.18.55-1.28.36s.26-.66.84-1q6-3.84,12.08-7.53c4.71-3.2,9.45-6.32,14.26-9.39a3.54,3.54,0,0,1-2.05-.19h0l-2.25,1.39c-13.09,9.53-26.63,18.89-40.41,28.23-.27.19-.53.29-.59.22s.11-.28.35-.44l12.4-8.49h0c-.2.07-.29,0-.15-.18a1.71,1.71,0,0,1,.65-.44c.23-.08.27,0,.15.18,7.65-5.29,15.22-10.59,22.63-15.95l-21.43,13.71-2.1,1.85a1.19,1.19,0,0,1-.65.28c-.1,0,0-.21.2-.37l.59-.51c-1.35.86-2.6,1.23-2.86.81s.69-1.58,2.08-2.52q5.44-3.93,11-7.64l1.16-.88,1.07-1c-5.92,3.63-11.8,7.32-17.57,11.1-.48.34-1,.52-1.08.39s.19-.54.68-.89c9.49-7.64,19.39-15.05,29.62-22.1l8.95-9.05-1.36.83A142.73,142.73,0,0,0,446.6,313c-4.78,4-9.43,8.1-14.64,12-.25.21-.52.3-.61.25s0-.26.32-.45c5-3.92,9.37-7.91,14.31-12,4.08-3.37,8-6.52,11.74-9.81-8.25,5.71-15.58,12-23.41,18.09a2.66,2.66,0,0,1-1,.57c0,.06,0,.15-.13.25-.87.92-1.85,1.87-2.89,2.79a1.09,1.09,0,0,1-.65.34C429.5,325.14,429.58,325,429.79,324.75Zm144.07-56.93.21.14-.61-.16-1.14-1Zm6.7-7.6h0l.65.61Zm-63.54,36a91.27,91.27,0,0,1,14.42-4.87l-3.33,1.53Zm64.27-25.34a13.66,13.66,0,0,1-2.77-1.76,4.48,4.48,0,0,1-1.49.68c-1.45.37-2.9.65-4.35.87.35.39,0,.44-.15.55l-.47.28c1.57-.17,3.16-.3,4.78-.39A30.24,30.24,0,0,1,581.29,270.85Zm9.56-4.88.18.13,0,.79S590.94,266.5,590.85,266Zm0-1.33-.24,0C590.6,264.32,590.7,264.39,590.86,264.64Zm-2.23-.31a1.65,1.65,0,0,0,.4.29ZM580,244.11l.47,3.79-.36-3.68Z"/><path d="M394.08,118.93l-.35-.33c.13-.26.38-.3.7-.23a4.32,4.32,0,0,0-5-.41,4.9,4.9,0,0,0-1.05.72,8.08,8.08,0,0,0-.91,1,9.65,9.65,0,0,0-1.34,2.44c-.87.1-1.28,1.24-.92,2.4a2.3,2.3,0,0,0,2.13,1.83,2.18,2.18,0,0,1,.64.29,16.12,16.12,0,0,0,2.54,1.82c.42.24.82.43,1.24.64s.83.41,1.24.58c-.37-.29-.75-.59-1.11-.89a2.81,2.81,0,0,0,1.42.38l-.32-.63a2.36,2.36,0,0,0,2.47.39,3.18,3.18,0,0,0,1.58-2.35c.59-2.47-.18-5.63-2.13-7Z"/><path d="M389.25,112.62a25.1,25.1,0,0,1,3.71,1.84l.29.38L392.8,113v.12a7.23,7.23,0,0,1-3.35,3.44l-.43.37a1.59,1.59,0,0,0-.17,1.07,1.79,1.79,0,0,0,1.45,1.64h.77c2,.58,4.66.37,5.17-3a7.79,7.79,0,0,0-.42-2.53,2.16,2.16,0,0,0-2-2.15,1.87,1.87,0,0,0-1.45,2.37c-.18-.06-.37-.13-.54-.17.09-.19.19-.34.28-.51,0,1.09-.83,1.56-1.33,2.26l-.86.51,1.24,2.72.38-.48c-.07-.11-.18-.28-.18-.29.36-.49.7-1,1.08-1.44a6.8,6.8,0,0,1,1.25-1.15l1.09-1.26a1.72,1.72,0,0,0-.4-1.86l-.71-.53.34.33c-.75-.22-1.52-.37-2.29-.52s-1.54-.2-2.33-.39a.42.42,0,0,0-.53.41A.64.64,0,0,0,389.25,112.62Z"/><path d="M394.09,111.29c.27.18.53.38.84.27.06-.14.08-.21.1-.25l-.53-.43C394.12,110.58,394,110.88,394.09,111.29Z"/><path d="M395,111.31l.22.18c-.06-.09-.12-.17-.17-.26l0,0Z"/><path d="M379.59,240.93a77.87,77.87,0,0,0,35.07,6.47,66,66,0,0,0,17.28-3.29,67.26,67.26,0,0,0,16-7.89c.69-.42,1.18-.9,1.13-1s-.6.18-1.23.57A66.93,66.93,0,0,1,432,243.62a65.45,65.45,0,0,1-17.11,3.28,73.88,73.88,0,0,1-17.66-1.12,81.69,81.69,0,0,1-17.14-5.22,3.24,3.24,0,0,0-1.55-.4C378.42,240.28,378.9,240.61,379.59,240.93Z"/><path d="M475.86,133.44c.4.54.48.47.19-.17a11.46,11.46,0,0,0-1.25-2c-.36-.44-.45-.35-.18.18A13.92,13.92,0,0,0,475.86,133.44Z"/><path d="M485.94,135c2.18,3.72,4,7.38,5.63,10.69a14.2,14.2,0,0,1,.71,1.91c.06-.29.53.42,1.1,1.89a91.56,91.56,0,0,1,5.92,23.07,90.08,90.08,0,0,1-.49,24.79c-.27,2.09-.77,4.13-1.16,6.2l-.77,3.06c-.25,1-.51,2-.85,3.06-.67,2-1.21,4.09-2,6.06s-1.51,4-2.46,5.93a96.66,96.66,0,0,1-13.71,21.77,4.13,4.13,0,0,1-.62,1.41,35.72,35.72,0,0,1-3.17,4.1c-.69.82-1.54,1.6-2.4,2.44s-1.76,1.7-2.75,2.48l-3,2.31a95.63,95.63,0,0,1-19.78,11.65,90.6,90.6,0,0,1-22,6.44c-.76.2-1.54.43-2.37.6l-2.56.47-2.73.45c-.93.11-1.89.19-2.87.28a106.27,106.27,0,0,1-39.76-2.73c.77.4,1.21.73,1.14.92-.37.37-3.55-.14-7-1.39-1.75-.64-3.53-1.23-5.25-1.94a124.42,124.42,0,0,0,15.19,5.37c.75.2,1.44.4,2.06.61a111.89,111.89,0,0,0,17.83,2.72,99.75,99.75,0,0,0,39.22-5.11,95.47,95.47,0,0,0,32.94-19.66A105.17,105.17,0,0,0,482.38,241a103.37,103.37,0,0,0,9.52-15.78,99.05,99.05,0,0,0,6.24-17.1A96,96,0,0,0,501,190.47a17.37,17.37,0,0,1,.27-2.68c.12-.46.25-.36.23.51a100.83,100.83,0,0,1-2.74,22,93.79,93.79,0,0,1-7.58,21,95.89,95.89,0,0,1-32.3,36.83c-1.11.81-2.31,1.48-3.48,2.21s-2.33,1.48-3.56,2.11c-2.44,1.29-4.87,2.64-7.44,3.73a98.62,98.62,0,0,1-15.8,5.61,109.35,109.35,0,0,1-33.14,3.35,123,123,0,0,1-16.57-1.93l-4.09-.87-2-.45-2-.54-4-1.09-4-1.28c-2.69-.82-5.27-1.9-7.91-2.88-1.31-.53-2.59-1.11-3.88-1.68s-2.59-1.12-3.85-1.77l-3.8-1.9c-1.27-.64-2.49-1.37-3.74-2.05-2.48-1.37-4.94-2.89-7.37-4.48a121.9,121.9,0,0,1-26.68-25.17,101.7,101.7,0,0,1-10.31-16.28,93.48,93.48,0,0,1-7.06-18.8,102.9,102.9,0,0,1-2-39.31,122,122,0,0,1,11.22-36.92,123.56,123.56,0,0,1,13.84-22.48,128.6,128.6,0,0,1,18.07-19.18c.81-.75,1.69-1.41,2.55-2.11l1.29-1,.29-.26,1-.84c.63-.55,1.27-1.11,1.92-1.64,1.33-1,2.68-2,4-3.06l2.05-1.49c.69-.48,1.41-.93,2.12-1.39q2.14-1.36,4.32-2.69c1.46-.88,3-1.65,4.5-2.47s3-1.64,4.63-2.32a11.7,11.7,0,0,1,6.94-1.53,6.3,6.3,0,0,1,4.8,3,6.2,6.2,0,0,1-.72,6.39l1.11-.34,1.88-.19a6.54,6.54,0,0,1,4.66,1.2l1.62,1.16c2.39,2.41,5.45,4.14,7.31,6.91l0,1.19.35.28a5.51,5.51,0,0,1,2.41,2.76l.18,1.41a14.34,14.34,0,0,1-.4,4.73,5,5,0,0,1,.13,1.75,7.2,7.2,0,0,1,1.35,4.48,1,1,0,0,1,.18,1.39.84.84,0,0,1-.41.29h0a10,10,0,0,0,.65.79c.34.07.53.13.53.13.89.1.89.1,1.65.22a4.38,4.38,0,0,1,1.19,1c1.09,2.39,1.07,2.4,1.15,3.5,0,.11,0,.22-.07.33.57.27.6.29.76.38a2.41,2.41,0,0,1,.3.38c.11.58.11.58.23.77a3.14,3.14,0,0,1,.08.44c-.17.7-.17.7-.15.88a2.71,2.71,0,0,1-.1.35l-.45.38-.94-1.39-.06.54-.28-.66.2.62-.42-.33.5.49c-.86-.1-.87-.1-1.19,0a1.19,1.19,0,0,0-.66.19,3.12,3.12,0,0,1,.1.34c-.93-.1-.93-.14-1.84-.19q-.17-.18-.3-.36a.36.36,0,0,1-.36.32h-.48l-.07.11v0l-.3.38-.06.09h0L387.64,113a5.4,5.4,0,0,1-.82-.11,2,2,0,0,1,.29.22c.2.16.23.73.32.76a14.66,14.66,0,0,0,3.14.69c.51.06,1,.1,1.52.14l1.53.25c.32-.12.7.16.84.6a.82.82,0,0,1-.36,1,9.55,9.55,0,0,1-1.24,1.16,10.8,10.8,0,0,1-1.3,1,9.27,9.27,0,0,1-2.88,1.14,15.6,15.6,0,0,1-6.54.07,24.22,24.22,0,0,0-3.27.44l.26.19-.94,0-.09,0,1,.66.51.09a10.6,10.6,0,0,1,3.77-.06c.64.08,1.26.14,1.89.26s1.26.25,1.87.34a16.8,16.8,0,0,1,3.82,1.32c.28,0,.56.31.64.73s-.1.71-.37.72a13.75,13.75,0,0,1-11.43.18,2.86,2.86,0,0,1-2.2-.06h0l.79.58c-.58,0-1.16-.49-1.73-.51l.7.93c-1.32.29-2.59.82-3.9,1.25a9.8,9.8,0,0,1-4.13.89,1.55,1.55,0,0,1-.31.06,15.84,15.84,0,0,1-.72,1.83l-.23.41-.08.11-.45.35-.9.71c-1.21,1-2.39,2.06-3.7,3.07l2.75-1.9a12.86,12.86,0,0,1,1.39-.92l1.35-.8s-.17.15-.26.23l-.34.29-.69.56c-.48.36-.89.8-1.34,1.19-.86.83-1.79,1.58-2.66,2.41s-1.74,1.7-2.66,2.53-1.74,1.78-2.67,2.66A111,111,0,0,0,344.4,157c-3.91,5.55-6.7,10.88-9,14.28a56.36,56.36,0,0,0-1.28,20,42.78,42.78,0,0,0,2.22,9.19,50.73,50.73,0,0,0,4.24,8.89,67.89,67.89,0,0,0,13.82,16.1,78,78,0,0,0,8.94,6.66,88.45,88.45,0,0,0,9.81,5.54,7,7,0,0,1,2.73,1.79c0,.31-1,.1-2.42-.54a90.12,90.12,0,0,1-14.33-8,78.83,78.83,0,0,1-12.33-10.48c-7.33-7.74-12.49-16.75-14.42-26a52.06,52.06,0,0,0,10,23.08,78.55,78.55,0,0,0,20.84,19.08l3.25,1.87c1.08.63,2.22,1.16,3.33,1.75s2.21,1.11,3.31,1.66,2.19,1.14,3.32,1.63c22.95,9.74,48.89,9.8,69.7-4A70.66,70.66,0,0,0,474,204.3a66.34,66.34,0,0,0,2.24-7.32c.28-1.26.64-2.52.84-3.81s.49-2.57.64-3.88c2-14.68-.75-29.11-6.84-42.24a86,86,0,0,0-5.16-9.5c-.95-1.51-1.95-3-2.94-4.32-.49-.66-1-1.32-1.26-1.59l-1.76-1.93a68.78,68.78,0,0,0-17-12.93c-3.46-1.84-6.76-3.54-7-4.14s2.59.07,6.25,1.83A69.61,69.61,0,0,1,461,127.85c.69.68,1.33,1.4,2,2.09a10.56,10.56,0,0,1,.73.81c.26.33.54.67.82,1.05,1.14,1.47,2.27,3.11,3.34,4.77a87,87,0,0,1,5.73,10.53,80.65,80.65,0,0,1,6.65,22.83,72.33,72.33,0,0,1-.72,23.57l-.28,1.47-.35,1.45c-.24,1-.42,1.94-.73,2.9l-.85,2.88-1,2.8c-.6,1.89-1.5,3.66-2.25,5.5-.4.91-.9,1.77-1.33,2.66s-.87,1.79-1.41,2.63a72.69,72.69,0,0,1-15.1,18.58,71.59,71.59,0,0,1-20.42,12.76c-.93.38-1.88.69-2.82,1l-1.42.52c-.48.17-1,.29-1.45.43l-2.89.85-3,.65c-.5.1-1,.23-1.49.32l-1.51.23c-1,.15-2,.34-3,.45-2,.17-4.06.44-6.13.45a80,80,0,0,1-21-2.07c.07.11.14.22.12.31-.07.36-.79.53-2,.55a89.57,89.57,0,0,0,12,2.2c2,.17,4.05.43,6.08.45,1,0,2,.11,3.05.08l3.05-.05a73.86,73.86,0,0,0,31.76-10.41,81.21,81.21,0,0,0,25.16-23.95l1.65-2.6c.27-.43.57-.85.82-1.29l.74-1.33,1.48-2.63q.65-1.37,1.29-2.7l.66-1.34c.21-.45.38-.91.57-1.37l1.12-2.73c.38-.91.66-1.87,1-2.8l.49-1.4.41-1.41a73.17,73.17,0,0,0,2.55-11.42,74.51,74.51,0,0,0,.78-11.68,82.75,82.75,0,0,0-7.53-29,89.3,89.3,0,0,0-7.45-13.14c-.71-1-1.44-2-2.17-3-.35-.44-.78-1-1-1.21l-1.25-1.33a70.65,70.65,0,0,0-5.38-5.14,9,9,0,0,1-1.4-1.31c-.16-.26.23-.05.87.44a70.12,70.12,0,0,1,7.65,6.95l.33.36.39.45.79,1c.54.67,1.07,1.37,1.59,2.08,1.05,1.42,2,2.91,3,4.43a87.7,87.7,0,0,1,9.28,19.73c-.36-2.3-.41-3.76.07-3.74s1.5,1.61,2.56,4.23a93.94,93.94,0,0,0-3.31-9.7c-.8-2-1.34-3.55-1.11-3.59s1.13,1.4,1.9,3.28a83.6,83.6,0,0,1,6,41.11,81.61,81.61,0,0,1-6.05,24.26A83,83,0,0,1,476,222.88,84.91,84.91,0,0,1,468.54,233a22.6,22.6,0,0,1,4.13-3h0c1.68-2.06,3.09-4.3,4.56-6.48a86,86,0,0,0,11.3-34.19,84.86,84.86,0,0,0-4-35.89,94.7,94.7,0,0,0-7.42-16.74,90.92,90.92,0,0,0-4.89-7.74c-.88-1.24-1.8-2.46-2.72-3.56l-.31-.37-.39-.41-.78-.83c-.53-.55-1-1.13-1.58-1.65a80.35,80.35,0,0,0-31.05-19,5,5,0,0,1-1.65-.71,3.77,3.77,0,0,1,1.58.33,84.14,84.14,0,0,1,20,9.83,73.17,73.17,0,0,1,8.73,6.83c.71.6,1.35,1.26,2,1.9l1,1,1,1,.94,1,.48.51.39.46c.56.67,1.13,1.39,1.67,2.13l0,0c-.3-.52-.28-.68.17-.2A12.36,12.36,0,0,1,473,129c.32.61.19.62-.17.2a93.62,93.62,0,0,1,15.48,38,84.27,84.27,0,0,1-3.42,40.51,85.92,85.92,0,0,0,4.43-18.49,85,85,0,0,0,.13-19,93,93,0,0,0-11.94-36c-1.52-2.33-3.13-4.59-4.87-6.79a10.16,10.16,0,0,1-1.12-1.72c-.07-.22.36.15.84.77s1,1.21,1.45,1.83c-1.37-2-2.57-3.75-3.43-4.93s-1.37-2.07-1.16-2.22,1.23.56,2.54,1.71A32.32,32.32,0,0,1,476,128a93.6,93.6,0,0,1,15.42,37.8c.28,1.46.48,2.93.71,4.4s.49,3,.64,4.45a91.07,91.07,0,0,0-7.19-31.17,96.57,96.57,0,0,0-7.43-14.22,72.6,72.6,0,0,0-4.65-6.59,79.48,79.48,0,0,0-5.56-5.87c-1.37-1.22-2.47-2.36-2.37-2.53s1.32.69,2.72,1.92l2.63,2.43,2.52,2.56a62.26,62.26,0,0,1,4.54,5.7,97,97,0,0,1,7.45,12.28,95.1,95.1,0,0,1,9.14,27.43,89,89,0,0,1,1.21,14.6,88.08,88.08,0,0,1-1.28,14.67,84.67,84.67,0,0,1-3.67,14.31c-.72,2.38-1.77,4.63-2.69,6.93-.5,1.14-1.08,2.24-1.61,3.36s-1.08,2.24-1.72,3.3a92.26,92.26,0,0,1-24.4,31.65l2.14-1.52,2.06-1.65A87.51,87.51,0,0,0,495.68,199a92.23,92.23,0,0,0,.28-29.84,102.24,102.24,0,0,0-9.12-28.81,7.26,7.26,0,0,1-.74-1.89c0-.15.44.44.89,1.39a102.35,102.35,0,0,1,9.28,28,89.39,89.39,0,0,1,.18,29.84,90.54,90.54,0,0,1-2.9,12.35c-.32,1-.63,2-.94,3s-.74,2-1.1,2.94-.74,2-1.14,2.92l-1.28,2.84a98.64,98.64,0,0,1-13,20.85A90.35,90.35,0,0,0,489.62,222a91.68,91.68,0,0,0,8.81-34.88c.16-2,.11-4,.14-6s-.11-4-.3-6a96.25,96.25,0,0,0-4.81-23.32,35,35,0,0,1-1.09-3.51,2.1,2.1,0,0,1-.4-.68c-1.64-3.63-3.55-7.5-5.71-11.32a12.07,12.07,0,0,1-1-2.12C485.11,133.8,485.44,134.2,485.94,135ZM378.53,108.85l.19.14-.54-.16-1.09-1.06S377.81,108.29,378.53,108.85Zm6-7.32h0l.57.67ZM336.6,210A46.5,46.5,0,0,1,330.93,193a50.26,50.26,0,0,1,1.2-18.08,56,56,0,0,0-.72,8.88c-.12,1.14-.1,2.25-.15,3.39s0,2.25.09,3.35a49.83,49.83,0,0,0,.8,6.59A53.55,53.55,0,0,0,336.6,210ZM385,112.2a14,14,0,0,1-2.38-1.92,3.15,3.15,0,0,1-1.26.58,33,33,0,0,1-3.67.82c.34.39,0,.44-.07.55l-.38.27c1.34-.14,2.69-.25,4-.33A21,21,0,0,1,385,112.2Zm8.08-3.78.14.16-.1.77S393.13,109,393.11,108.42Zm.14-1.29-.2-.08C393.07,106.77,393.14,106.86,393.25,107.13Zm-1.85-.64a2.45,2.45,0,0,0,.31.35Zm-5.91-21v3.81l.11-3.69Z"/><path d="M411.69,60.87l.26,0c0,.17-.16.28-.35.36,2.45,0,3.93-2.31,4.33-4.49a1.1,1.1,0,0,0,.33-1.52,1.09,1.09,0,0,0-1.51-.33,1.72,1.72,0,0,1-.44.06,8.48,8.48,0,0,0-3.68.26h.86a2.68,2.68,0,0,0-1,.4l.31.18a2.53,2.53,0,0,0,.26,5.06Z"/><path d="M415.53,62.32c-.78.11-1.57.18-2.36.24l-.23-.08.61.71,0-.06a4.52,4.52,0,0,1,1.24-2.62l.18-.32a.75.75,0,0,0-.06-.57.8.8,0,0,0-1.09-.34l-.45.24c-1.31.34-2.85,1.51-2.44,3.17.1.38.49.66.78,1a1.11,1.11,0,1,0,1.85-1.24l.33-.09-.06.32c-.19-.53.18-1,.34-1.45l.4-.5-1.16-.92-.14.35.15.08a10,10,0,0,1-.86,2l-.35.94a.68.68,0,0,0,.6.7l.49,0-.25,0c.89-.28,1.74-.7,2.64-1a.28.28,0,0,0,.21-.33A.28.28,0,0,0,415.53,62.32Z"/><path d="M413.21,64.36a.61.61,0,0,0-.5.14v.14l.37,0C413.34,64.69,413.34,64.51,413.21,64.36Z"/><path d="M412.71,64.64h-.16l.15.06v0Z"/><path d="M434.58,44.34a35.79,35.79,0,0,0,3.7-2s0-.1,0-.17-.13-.1-.16-.08a41.26,41.26,0,0,1-3.7,2s0,.1,0,.17S434.54,44.36,434.58,44.34Z"/><path d="M448.2,45a.26.26,0,0,0,.14.17c.06,0,.1,0,.09-.07a.34.34,0,0,0-.14-.17C448.22,44.87,448.19,44.92,448.2,45Z"/><path d="M452.24,50.67a1.89,1.89,0,0,0-.12.74c0,.05,0,.06-.07.05a.48.48,0,0,1,.13.32,15.61,15.61,0,0,1-2,4.47,2.1,2.1,0,0,1,.15.3c.14.35.1.62-.11.7l-.18,0c-.63.23-1.24.49-1.88.7a.85.85,0,0,1-.17.52,12.93,12.93,0,0,1-.59,2,.92.92,0,0,1,.26.23c.18.26.22.52.09.6l-.17.16.67-.22a.16.16,0,0,1,.1,0,4.18,4.18,0,0,0,.57-.47,15.25,15.25,0,0,0,3.23-6c0-.06.05-.09.11,0a.31.31,0,0,1,.12.19c-.06,2,.31,4.3-.21,6a30.3,30.3,0,0,1-2.26,5.57c-1.46,1.13-2.35,2.76-3.5,4.35-.39.54-.79,1-1.21,1.52l-.2.21-.34.31-.67.61-1.36,1.2c-1.82,1.58-3.68,3.09-5.58,4.61a3.32,3.32,0,0,1-5.64-2.86l-.37.26-.69.26a3,3,0,0,1-2,0l-.86-.31c-1.41-.74-3-1-4.35-1.92l-.25-.53-.21,0A2.85,2.85,0,0,1,421,73.3l-.39-.58a6.67,6.67,0,0,1-.87-2.15,2.56,2.56,0,0,1-.43-.75,3.4,3.4,0,0,1-1.55-1.68.48.48,0,0,1-.37-.57.56.56,0,0,1,.13-.24h0c-.19-.08-.24-.11-.47-.19l-.28.09-.82.33a2.5,2.5,0,0,1-.79-.12c-1.06-.75-1.06-.75-1.34-1.21a.94.94,0,0,1,0-.16l-.47.05a1,1,0,0,1-.24-.08c-.18-.21-.18-.21-.29-.26a1.27,1.27,0,0,1-.14-.17c-.06-.35-.06-.35-.12-.43a.94.94,0,0,1,0-.18l.16-.31.79.33-.09-.26.29.21-.23-.21.28,0-.36-.07a1.91,1.91,0,0,0,.62-.35.78.78,0,0,0,.3-.29l-.11-.12,1-.46.22.09a.23.23,0,0,1,.14-.24l.25-.13,0-.07v0a2.56,2.56,0,0,1,.09-.26l0-.06h0c.07-.17.16-.43.41-1.12a3.16,3.16,0,0,1,.46-.16l-.19,0c-.13,0-.24-.29-.29-.29a16.88,16.88,0,0,0-3.59,1.35.43.43,0,0,1-.59,0,.42.42,0,0,1,0-.59,9,9,0,0,1,6.43-5.1q.93-.46,1.86-1l-.17,0,.55-.16.06,0-.63-.15-.31,0a26.82,26.82,0,0,1-4.53,1.63,22.07,22.07,0,0,1-2.51.55.37.37,0,1,1-.38-.63c1.85-1.87,4.41-3.44,7.11-3.37a2.08,2.08,0,0,1,1.32-.44h0l-.49-.15c.35-.14.71,0,1.06-.07l-.45-.37c1.61-.8,3-2.09,4.81-2.44a1,1,0,0,1,.18-.07,8.35,8.35,0,0,1,.94-1.79l-.46.12a1.43,1.43,0,0,1,.52-.89,3.13,3.13,0,0,1,3.36.47,51.7,51.7,0,0,0,3.68-3.72c.06-.08.19,0,.31.09s.16.3.11.37a16.28,16.28,0,0,1-2.26,3.22,14.91,14.91,0,0,0,2.91-1.45l.29-.31a.59.59,0,0,1,.37-.18,13.23,13.23,0,0,0,3-2.76,28.87,28.87,0,0,0,1.94-3.13,12.4,12.4,0,0,1,2.93-4.17c.14-.18.5,0,.78.27s.41.74.27.92c-1.92,3.18-3.61,6.55-6.6,8.6l-1,.64.11.14a2,2,0,0,1,.32.56,8.88,8.88,0,0,1,1.2-.58,6.59,6.59,0,0,1,2.51-2.88,9.25,9.25,0,0,1,2.71-.63c.66-.85,1.28-1.76,2-2.59,0-.05.08,0,.14,0s.1.14.08.19a13.48,13.48,0,0,1-.95,2.4,2.26,2.26,0,0,1,.75.68,2.17,2.17,0,0,1,.43.94l.42-.29c.09-.05.25,0,.37.18s.16.34.08.4l-1.7,1.21c-.53.68-1.07,1.34-1.63,2a3.36,3.36,0,0,1,.77.61h0l.29-.26A14,14,0,0,1,449.87,43s.11,0,.17.08.08.16,0,.18a10.79,10.79,0,0,0-1.73,1.36h0a.3.3,0,0,1,.14.17c0,.07,0,.1-.09.08a.25.25,0,0,1-.14-.18A15.06,15.06,0,0,0,445.74,48a17.11,17.11,0,0,1,3-2.25c0-.17.07-.35.11-.52s.09,0,.15,0,.09.15.07.19l0,.13c.2-.11.58.08.87.46s.35.81.15.94c-.46.47-.94.91-1.44,1.33l-.12.19,0,.31c.91-.47,1.85-.91,2.79-1.33.06,0,.21,0,.31.14s.14.29.07.35a28.22,28.22,0,0,1-3.34,4.41c0,.94,0,1.88-.07,2.82a.82.82,0,0,0,.2-.12c1.54-1.2,1.58-3.85,2.81-5.34,0,0,.1,0,.16.05s.08.15,0,.18a17.2,17.2,0,0,0-1.2,2.82,14.65,14.65,0,0,0-.9,2.4c1-1,1.55-2.6,2.43-3.79,0-.07.1-.07.19,0a.34.34,0,0,1-.05-.11,2.32,2.32,0,0,1,.13-.78s.06,0,.13,0A.22.22,0,0,1,452.24,50.67Zm-30.49,11-.12,0h.3l.69.33Zm-1.87,4.63h0l-.39-.18ZM433.6,48.14a4.63,4.63,0,0,1-2.15.9l.36-.42A16.77,16.77,0,0,1,433.6,48.14ZM417.87,61.42a5.91,5.91,0,0,1,1.54.39,2.33,2.33,0,0,1,.57-.56,19.71,19.71,0,0,1,1.86-1.1c-.22-.14-.07-.22,0-.29l.17-.21c-.69.32-1.4.63-2.13.94A18.17,18.17,0,0,1,417.87,61.42Zm-3.55,3.92-.11,0-.11-.37Zm.2.62.12,0C414.69,66.07,414.63,66.05,414.52,66Zm1.05-.24-.22-.07Zm7.07,8L421.83,72l.74,1.63Z"/></svg>