<svg id="Layer_1" data-name="Layer 1" xmlns="http://www.w3.org/2000/svg" viewBox="0 0 1080 875.66"><path d="M467.51,451.5l.58,0c-.07.35-.4.61-.85.8a10.55,10.55,0,0,0,6.84-3.39,16.29,16.29,0,0,0,3.92-6.42,2.46,2.46,0,0,0,1.21-3.17,2.39,2.39,0,0,0-3.33-.66,3.89,3.89,0,0,1-1,.15,22.11,22.11,0,0,0-8.7.79l2-.06a7,7,0,0,0-2.48.93l.66.35c-3.28.38-6.11,3.16-6.16,6.13s2.63,5,5.84,4.64Z"/><path d="M475.89,454.08c-1.73.31-3.47.55-5.24.79l-.51-.14,1.28,1.4-.05-.11c.12-2.09,1.6-4,3.09-5.68l.47-.65a1.51,1.51,0,0,0,0-1.2,1.77,1.77,0,0,0-2.42-.65c-.36.18-.7.38-1.05.57-3,.88-6.74,3.63-5.93,7,.2.79,1.06,1.32,1.68,1.94a2.53,2.53,0,0,0,3.45.43,2.38,2.38,0,0,0,.82-3.29l.74-.23c-.05.23-.11.46-.17.69-.36-1.09.51-2.06.93-3.1l1-1.11L471.49,449l-.38.76a2,2,0,0,1,.33.16,25.85,25.85,0,0,1-2.19,4.29l-.89,2a1.3,1.3,0,0,0,1.3,1.4l1.09,0-.55-.05c2-.7,3.91-1.67,5.89-2.31a.67.67,0,0,0,.51-.73A.55.55,0,0,0,475.89,454.08Z"/><path d="M470.58,458.64a1.62,1.62,0,0,0-1.13.35c0,.17,0,.26,0,.3h.83C470.86,459.3,470.86,458.94,470.58,458.64Z"/><path d="M469.44,459.29h-.34l.32.1a.16.16,0,0,0,0-.05Z"/><path d="M621.37,409.46c1.13.1,2.25.18,3.37.31l3.35.43,6.69.86,6.64,1.1,3.32.55,3.29.68,6.57,1.34,6.51,1.57,3.25.79c1.08.27,2.14.59,3.21.89l6.42,1.8c.58.16,1.07.22,1.13.11s-.35-.35-.89-.48l-6.42-1.82-3.22-.91-3.25-.79-6.5-1.59L648.28,413l-3.29-.67-3.31-.56L635,410.61c-2.23-.32-4.46-.59-6.69-.88s-4.47-.6-6.73-.76a2,2,0,0,0-1.2.15C620.39,409.26,620.81,409.4,621.37,409.46Z"/><path d="M741.07,459.58c-.39-.13-.43,0-.1.24a4.74,4.74,0,0,0,1.21.68c.33.11.38,0,.1-.24A4.62,4.62,0,0,0,741.07,459.58Z"/><path d="M734.07,464.8c-1.05-.48-2.07-.95-3.07-1.36s-2-.75-2.93-1.05a4.32,4.32,0,0,1-1-.49c0,.21-.42.15-1.19-.15a320.35,320.35,0,0,0-48.42-15.06,1.87,1.87,0,0,1-.83.26,16.78,16.78,0,0,1-5.95-.77l-1.75-.55c-1.78-.49-3.59-.88-5.38-1.32s-3.59-.91-5.39-1.26L652.78,442l-2.7-.55-2.72-.45a40.89,40.89,0,0,1-5.16-.19c-3.2,0-6.39.11-9.58.14l-9.61.45c.4.17.63.36.62.56s-.49.42-1.09.56a9.83,9.83,0,0,1-2.27.25l-2.59.06c2.48.1,5,.13,7.43.39a9.07,9.07,0,0,1,1,.11c2.73.13,5.49.13,8.3.34a287.89,287.89,0,0,1,70.73,12.06,3.93,3.93,0,0,1,1.23.54c.18.17.09.27-.33.16-14.65-3.64-27.75-4.7-44-6.31a221.58,221.58,0,0,0-57.21,1.85,148.52,148.52,0,0,0-28.27,5.77,167.19,167.19,0,0,0-26.57,10.67c-1.51.67-2.91,1.52-4.36,2.27l-4.27,2.28-4.13,2.44c-1.36.82-2.75,1.57-4,2.47l-1,.64-.49.32-.18.13-.63.47-1.27.93c-.84.62-1.71,1.17-2.51,1.83-1.63,1.27-3.27,2.48-4.92,3.67s-3.19,2.53-4.81,3.76a5,5,0,0,1-4,1.47,6.5,6.5,0,0,1-4.22-2.21,7.43,7.43,0,0,1-1.92-5.79l-.65.46-1.25.43a5.19,5.19,0,0,1-3.81-.3l-1.64-.67c-2.72-1.59-5.74-2.2-8.49-4l-.54-1.06-.41-.11a6,6,0,0,1-3.2-1.45l-.83-1.14a13.67,13.67,0,0,1-1.88-4.36,4.77,4.77,0,0,1-.9-1.51,6.76,6.76,0,0,1-3.23-3.35.94.94,0,0,1-.77-1.16,1.06,1.06,0,0,1,.27-.5h0c-.4-.16-.51-.21-1-.36-.37.14-.6.2-.6.2l-1.76.76a5.15,5.15,0,0,1-1.71-.18c-2.28-1.44-2.29-1.43-2.89-2.35a1.86,1.86,0,0,1-.07-.34c-.77.14-.83.15-1,.17a2.26,2.26,0,0,1-.53-.13c-.41-.43-.41-.43-.64-.52a2.25,2.25,0,0,1-.31-.32c-.13-.73-.13-.73-.24-.88a2,2,0,0,1,0-.37l.36-.67,1.74.59-.17-.53.62.4-.51-.42h.63l-.79-.1a5.15,5.15,0,0,0,1.4-.81,2,2,0,0,0,.68-.64,1.89,1.89,0,0,1-.25-.24c1.13-.55,1.13-.55,2.24-1.06a3,3,0,0,1,.48.16.54.54,0,0,1,.32-.53l.56-.29a.88.88,0,0,0,.05-.15l0,0c.1-.22.16-.38.24-.55l0-.13h0c.16-.38.39-.94,1.08-2.35a7.37,7.37,0,0,1,1-.35l-.42-.06c-.28-.05-.46-.59-.58-.57a19.45,19.45,0,0,0-2.13.52c-.68.24-1.36.51-2,.8-1.34.58-2.66,1.23-4,1.85a1,1,0,0,1-1.32.09.82.82,0,0,1,.07-1.23c2.69-6,9.14-9.75,15.48-11,1.51-.57,3-1.18,4.47-1.8l-.34-.12,1.27-.28.13-.05-1.33-.36-.71.09a28.44,28.44,0,0,1-5.29,1.72c-1.8.47-3.61.94-5.41,1.53s-3.91.81-5.9,1.27a.85.85,0,0,1-1.14-.24.81.81,0,0,1,.43-1.05,36.08,36.08,0,0,1,8.15-5.22,20.77,20.77,0,0,1,9.17-1.75,5.65,5.65,0,0,1,3.13-.81h.05l-1-.36c.82-.26,1.59.14,2.4,0l-.83-.83c2-.67,3.93-1.58,5.88-2.38,1-.39,2-.76,3-1.05a14.91,14.91,0,0,1,3-.48l.44-.1a21.86,21.86,0,0,1,1.76-2c.16-.15.32-.31.49-.45l.14-.12.44-.25.87-.49a38.17,38.17,0,0,1,3.73-1.87c-.93.3-1.83.65-2.73,1l-2.66,1,.27-.17.34-.21.68-.4,1.36-.8a31.19,31.19,0,0,1,2.81-1.47c1.91-.93,3.89-1.8,6-2.62,11.37-4.37,24.9-6.54,31.65-5.37a245.22,245.22,0,0,1,33.55-6.18,268.86,268.86,0,0,1,33.9-1.43,4.27,4.27,0,0,1,2.41.56c.11.27-.66.48-1.82.45A264.88,264.88,0,0,0,568,414.35a290,290,0,0,1,41.22-2c1.77,0,3.55-.06,5.33,0s3.51.22,5.25.43c17.69,1,34.15,4,51.53,8l2.76.63,2.71.72,5.31,1.42c1.76.44,3.47,1,5.18,1.51l5.12,1.56c3.4,1.07,6.74,2.29,10.17,3.44s6.81,2.57,10.34,3.93a282.53,282.53,0,0,1,27.92,13.11,245.8,245.8,0,0,1,25.83,16.34c2.26,1.61,4.13,3.42,4.14,4s-1.84-.29-4.1-1.89A309.8,309.8,0,0,0,739,448.88a320.1,320.1,0,0,0-29.49-13.56,295.88,295.88,0,0,0-31.19-10.51,311.52,311.52,0,0,0-32.95-7.39c-2.43-.45-4.87-.73-7.28-1.1l-3.62-.52c-1.21-.15-2.42-.26-3.63-.39a.48.48,0,0,1,.1.28c0,.36-.51.65-1.3.85l4.1.46c1.36.19,2.72.41,4.08.63l4.09.65,2,.34,2,.42a189.81,189.81,0,0,1,45.67,10.7,233.92,233.92,0,0,1,28.53,13.49,280.23,280.23,0,0,1,34.41,18.3,3.19,3.19,0,0,1,1,.78c.1.19-.18.11-.63-.16l-6-3.27-3-1.65-3.06-1.57-6.13-3.16-6.27-3c1.14,1,1.72,1.75,1.41,2.1s-1.5.2-3.15-.34l5.52,3c1.13.61,1.93,1.26,1.79,1.45s-1.12-.14-2.2-.7c-3.75-2-7.47-4-11.31-5.84-1.91-.92-3.79-1.91-5.73-2.77l-5.81-2.61a295.9,295.9,0,0,0-28.88-9.87,7.06,7.06,0,0,1,2.44,2.11h0l4.49,1.39c27.69,7.64,54.49,21.05,78.43,38.55.47.33.82.67.77.75s-.46-.11-.88-.42c-3.64-2.58-7.26-5.22-11-7.61-1.88-1.21-3.71-2.48-5.63-3.61l-5.73-3.44,0,0c.28.24.28.37-.1.23a5,5,0,0,1-1.19-.72c-.32-.27-.23-.35.09-.23A245.2,245.2,0,0,0,699,440.79,257.26,257.26,0,0,1,739.77,460c1.48.7,3,1.34,4.47,2.12a3.28,3.28,0,0,1,1,.75c.07.14-.27.05-.68-.17l-1.23-.63c2.42,1.51,4.07,3,3.76,3.43s-2.7-.52-5.21-2c-6.9-3.76-13.81-7.43-20.92-10.7l-2.34-1-2.42-.84a291.69,291.69,0,0,1,31.72,17.58c.89.52,1.57,1.1,1.49,1.27s-.88-.13-1.77-.65a297.55,297.55,0,0,0-28.58-14,288.87,288.87,0,0,0-30-11c-3.48-.62-7-1.1-10.47-1.63-3.53-.37-7-.82-10.6-1.1.87.18,1.74.41,2.6.64,11.12,2.61,21.44,5.16,31.58,8.25a197.91,197.91,0,0,1,30.21,11.69c.5.25.88.55.89.67s-.37,0-.87-.25a220.6,220.6,0,0,0-29.7-11.39l-6.34-1.94-6.28-1.66-3.09-.78-3.09-.66c-2.06-.43-4.1-.85-6.13-1.24l6.08,1.61,3,.77,3,.87,6,1.71,5.92,1.89,3,.94,2.93,1,5.87,2.12c1.94.75,3.87,1.55,5.81,2.34l2.92,1.2c1,.41,1.91.86,2.87,1.3a7.23,7.23,0,0,1,1.7,1,.79.79,0,0,1,.44.06,64.49,64.49,0,0,1,6.33,2.52,3.13,3.13,0,0,1,1.06.69C734.83,465,734.54,465,734.07,464.8Zm-244.6-12-.24-.08h.65l1.39.74Zm-4.67,9.44h0l-.81-.38ZM581.42,414l-7.27.82c-1.21.11-2.42.29-3.62.47l-3.62.49c-4.84.55-9.63,1.44-14.5,2.06l6.93-1.67,2.74-.44,2.76-.32,5.52-.62c1.83-.23,3.68-.34,5.53-.45ZM481.19,452.14a12.42,12.42,0,0,1,3.27.8,5.15,5.15,0,0,1,1.35-1.15,27,27,0,0,1,4.27-2.14c-.44-.29-.09-.44,0-.59l.43-.4c-1.58.6-3.25,1.1-4.86,1.76A40.85,40.85,0,0,1,481.19,452.14ZM473,460.56l-.23-.06-.22-.76Zm.41,1.26.26-.06C473.75,462,473.62,462,473.38,461.82Zm2.31-.61a1.93,1.93,0,0,0-.5-.12Zm14.73,16-1.71-3.37,1.57,3.3Z"/><path d="M642.51,462.17l-.57-.28c.12-.18.48-.19,1-.11a10.38,10.38,0,0,0-7.09-.49,9.88,9.88,0,0,0-2.44,1.16,7.19,7.19,0,0,0-1.62,1.49c-1.15.11-1.56.73-1.14,1.31a2.46,2.46,0,0,0,1.11.72,4.32,4.32,0,0,0,1.61.29,5.93,5.93,0,0,1,.9.21c.6.23,1.18.46,1.8.68l1.94.66,2,.67c.7.21,1.4.42,2.13.67-.64-.3-1.29-.58-1.91-.82a21.22,21.22,0,0,0,2.44.61l-.59-.47c3.14,1.3,6.41,1.69,7.07.2s-1.79-4.52-5.11-5.89Z"/><path d="M634.77,457.61c.82.11,1.7.27,2.56.46s1.73.41,2.62.67l.47.29-1-1.42,0,.1c-.42,1.36-2.22,2-3.78,2.63l-.52.27a.64.64,0,0,0-.11.73,2.55,2.55,0,0,0,2.16,1.06l1.07,0a23,23,0,0,0,2.36.3,13.08,13.08,0,0,0,2.27,0c1.42-.19,2.46-.7,2.33-2.06-.06-.61-.85-1.41-1.37-2.12a3.81,3.81,0,0,0-3.39-1.78c-1.32.1-1.86,1-1.34,1.91l-.75-.1.27-.4c.2.86-.8,1.17-1.37,1.68l-1.06.39,2.07,1.86.46-.32-.29-.2a14.2,14.2,0,0,1,2.78-1.82l1.25-.94c.19-.48-.29-1.16-1.07-1.51l-1.11-.42.55.26a51.52,51.52,0,0,0-6.11-.32c-.32,0-.57.14-.57.36S634.44,457.59,634.77,457.61Z"/><path d="M640.64,456.19a2.22,2.22,0,0,0,1.19.21c0-.12,0-.18,0-.22l-.82-.33C640.47,455.62,640.41,455.87,640.64,456.19Z"/><path d="M641.88,456.18l.35.15-.31-.21,0,0Z"/><path d="M651,605.9c-1,24.84-2.15,49.82-3.7,74.78,0,.84,0,1.54.21,1.59s.34-.61.37-1.38c1.61-25,2.79-49.83,3.78-74.66a2.67,2.67,0,0,0-.31-1.65C651.14,604.54,651,605.12,651,605.9Z"/><path d="M628.31,792.14c-.06-.6-.17-.58-.26,0a10.65,10.65,0,0,0-.07,2.05c0,.5.17.48.25,0A10.38,10.38,0,0,0,628.31,792.14Z"/><path d="M620.09,786.7c-.28-3.49-.59-6.81-1-9.77a9.26,9.26,0,0,1-.05-1.64c-.18.2-.38-.47-.51-1.73-2.63-24.85-4.51-51.57-6.26-77.88a2.54,2.54,0,0,1-.65-1.12,29.32,29.32,0,0,1-1.11-9.28l.11-2.86c.18-11.55.39-23.07.8-34.55a68.79,68.79,0,0,1-.62-8.06c-.91-9.95-1.72-19.93-2.26-30.14-.21.64-.45,1-.72,1-.63-.21-1.09-2.58-1-5.33,0-1.4.07-2.78.17-4.17-.46,4-.54,8-.8,11.95q0,.87-.12,1.59c-.09,4.38-.09,8.79,0,13.29.42,39.21,4,76.08,7.74,112.66a7.61,7.61,0,0,1,0,2.07c-.11.36-.27.29-.37-.38-3.49-23.07-8.22-43-11-69.13-1.63-15.53-3-31-4-46.49-.27-3.89-.52-7.77-.71-11.68q-.15-2.93-.31-5.86c-.09-2-.22-3.91-.21-5.87a57.71,57.71,0,0,1,5.28-23.65c4-8.28,9-16.37,12.81-24.51,1-2.08,1.81-4,2.71-6.34l.63-1.67c.23-.64.48-1.16.68-1.62.42-.92.82-1.7,1.13-2.49a15.71,15.71,0,0,0,1.2-9.44,13.24,13.24,0,0,0-1.74-4.35c-.44-.69-.94-1.4-1.62-2.35a19.73,19.73,0,0,1-2.19-4A16.81,16.81,0,0,1,615,517.7a17.81,17.81,0,0,1,.56-5.15,23.93,23.93,0,0,1,4-7.77,13.46,13.46,0,0,0,1-1.58.09.09,0,0,1,0-.06h0l.1.06.34.19.74.32.39.13.19.07a3,3,0,0,0,.67.18h-.19a1.53,1.53,0,0,0-.3,0l-.2,0,.1,0c.06,0,0,0-.4.19l-.3.17a4.18,4.18,0,0,0-.36.23,4.84,4.84,0,0,0-.46.33l-.1.08h0s0-.16-.18-.31-.14-.16-.23-.26c-.41-.36-.74-.69-1.14-1-.8-.6-1.58-1.19-2.3-1.82a21.6,21.6,0,0,1-3.72-3.67,9.88,9.88,0,0,1-1.75-4.15,3.75,3.75,0,0,1-.14-1.21c0-.41,0-.83,0-1.24a11,11,0,0,1,.53-2.26,6.12,6.12,0,0,1,.64-1.37,6.4,6.4,0,0,1,.85-1.27,6.74,6.74,0,0,1,.46-.63l.61-.58a16.47,16.47,0,0,1,1.41-1.11,6.9,6.9,0,0,1,.8-.52,5.53,5.53,0,0,1,.86-.5c.67-.27,1.33-.56,2-.86,1.33-.57,2.83-.95,4.21-1.42l2.08-.7c.42-.15.63-.24.93-.37a9.53,9.53,0,0,0,1.34-.69,1.28,1.28,0,0,0,.28-.24h0s0,0,0,0l.08.09c.18.24.46.53.58.7a6.77,6.77,0,0,0,.51.56l.29.27.19.2a3.94,3.94,0,0,0,.45.36c.17.11.21.17.34.24a2.71,2.71,0,0,0,.31.17.61.61,0,0,0,.2.09c.13.05.19,0,.1.05a1.4,1.4,0,0,0-.34.12,1.77,1.77,0,0,0-.59.33,4.9,4.9,0,0,0-.87.62l-.18.19-.28.23-.54.51c-.17.18-.34.36-.49.55l-.28.32c-.09.09,0,0-.06,0l-.09,0-.38-.08c-.65-.16-1.64-.4-2.72-.58-.56-.1-1.08-.2-1.75-.27l-2-.08c-.68,0-1.37-.2-2.06-.29a81.27,81.27,0,0,1-8.85-1.95l-1.67-1a3.07,3.07,0,0,0-.43-.26l-.55-.19-1.09-.4a8.68,8.68,0,0,1-1.06-.41l-.73-.57c-.49-.37-1-.75-1.45-1.13s-.93-.76-1.35-1.15l-.44-.39-.58-.52c-.79-.69-.48-1.59-1.36-2.25l-.49-.53a2.47,2.47,0,0,1-.44-.55l-.66-1.12L597,469.7a11.68,11.68,0,0,0-.72-1.18c-.65-.81.08-1.59-.74-2.49l-.38-.66a4.87,4.87,0,0,1,0-.66l.06-.65c0-.1,0-.23-.09-.35l-.16-.37c-.18-.49-.56-1-.3-1.44l.16-.68.08-.34a1.09,1.09,0,0,0-.06-.39c-.12-.52-.26-1.05-.37-1.57l.57-1.37.14-.34a1.27,1.27,0,0,0,0-.39l0-.8a14.07,14.07,0,0,1,0-1.59l.1-1.62,0-.4c0-.15.14-.22.2-.33l.49-.61,1-1.21a10.72,10.72,0,0,0,.56-1.46l.52-1.49,0-.09,0-.05-.06-.1-.26-.41-.13-.21c0-.05,0-.07,0-.11l.08-.2.35-.81.35-.8.27-.71.54-1.32c.35-.84.73-1.72,1.11-2.55s.59-1.37.91-2,.66-1.29,1-1.81a12.72,12.72,0,0,1,2.06-2.62c1.34-1.28,2.7-1.68,3.69-.95,1.19.9,1.54,3.11,1.13,5.55.21-.34.43-.67.64-1,.4-.45.8-.93,1.2-1.35a5,5,0,0,1,3.46-1.87h1.43c2.32.54,5.1.33,7.47,1.75l.38,1,.37,0a3.8,3.8,0,0,1,2.85,1.17l.64,1.14a12.13,12.13,0,0,1,1.22,4.23,3.89,3.89,0,0,1,.65,1.4,5.68,5.68,0,0,1,2.64,3.22.8.8,0,0,1,.57,1.08.87.87,0,0,1-.33.36h0c.35.19.45.25.89.45l.6-.05c1-.15,1-.15,1.84-.24a5.74,5.74,0,0,1,1.66.6c2,1.84,2.05,1.87,2.51,2.79,0,.1,0,.2,0,.29.78.17.84.2,1.06.26a4.5,4.5,0,0,1,.52.31c.33.5.33.5.55.66a2.4,2.4,0,0,1,.26.38c0,.6,0,.59.1.75a.9.9,0,0,1,0,.29l-.47.33L640.28,455l.08.45-.56-.53.45.5-.64-.24.79.36a4.78,4.78,0,0,0-1.54.07,1.48,1.48,0,0,0-.77.23,2,2,0,0,1,.2.25l-2.32.06a2.63,2.63,0,0,1-.44-.24.37.37,0,0,1-.39.28l-.59.06-.07.09,0,0-.29.32-.06.07h0c-.2.22-.49.53-1.29,1.33-.33,0-.68,0-1,0l.38.1c.25.09.36.47.47.48,1.36.08,2.71.14,4,.16s2.76.09,4.19.23a1.51,1.51,0,0,1,1.33.5c.3.36.17.69-.28.76a10.14,10.14,0,0,1-3.23,1.43,24.42,24.42,0,0,1-3.84.74c-2.7.31-5.46.42-8,.51-.57.07-1.14.2-1.69.32l-1.51.36.23.06c-.25,0-.61,0-.56.15v0h.2a3.32,3.32,0,0,1,.39.07,3.76,3.76,0,0,0,.47,0,17.26,17.26,0,0,1,3.89-.45c.76,0,1.46,0,2.24,0l2.38.12a16.6,16.6,0,0,1,2.67.36l2.77.61a1.37,1.37,0,0,1,1,.54c.14.26-.11.44-.53.4-1.25.14-2.45.17-3.77.24-.64,0-1.23,0-1.88.05h-1.85c-1.26,0-2.39-.08-3.51-.12l-1.59-.16c-.14,0-.23,0-.36-.06a1.87,1.87,0,0,0-.31-.05.23.23,0,0,1-.11.05,1.53,1.53,0,0,1-.84.31h0l.49.08c-.18.1-.6,0-.81.13l.61.2a1.54,1.54,0,0,0-.46,1.3c0,.47.22.84.25,1.2a.41.41,0,0,1,.05.09l1,.29.21.07h.06l.17.09.35.16c.45.21.92.4,1.38.59a14.39,14.39,0,0,1-1.67-.91c.65.31,1.35.56,2,.79l.24.08.13,0,.05,0,.12.08,2,1.3c.68.46,1.38.91,2.14,1.46a25.43,25.43,0,0,1,2.48,2l.46.44c.16.16.34.37.51.55a11.16,11.16,0,0,1,1,1.36,7.2,7.2,0,0,1,.51.93,6.32,6.32,0,0,1,.42,1.1,11.39,11.39,0,0,1,.28,1.26,8.82,8.82,0,0,1,0,1.36,7.44,7.44,0,0,1-1.79,4.32,9.63,9.63,0,0,1-2.3,2,23.45,23.45,0,0,1-3.64,1.78c-.52.21-1.22.47-1.16.46l-.36.11a10.07,10.07,0,0,0-1.46.55,1.54,1.54,0,0,0-.62.51l-.1.18a1.28,1.28,0,0,1,0,.19.68.68,0,0,0,.1.35,4.9,4.9,0,0,0,1,1l.28.24.14.12.06.07,0,0,0,0h0l.17.13a15.6,15.6,0,0,1,2.66,2.62,12.53,12.53,0,0,1,2,3.71,12.8,12.8,0,0,1,.48,2,18.17,18.17,0,0,1,.08,2.07,13.81,13.81,0,0,1-.29,2,12.84,12.84,0,0,1-.57,1.72,13.63,13.63,0,0,1-.7,1.38c-.24.37-.48.75-.71,1.07a26.89,26.89,0,0,1-2.11,2.77c-.58.71-1.1,1.3-1.47,1.82A6.31,6.31,0,0,0,627,518a4.5,4.5,0,0,0,0,1.36,5.24,5.24,0,0,0,.63,1.7c.78,1.5,2,3.55,3,5.59a55,55,0,0,1,4.12,12.93c.44,2.24.71,4.55.95,6.73l.18,1.55c.07.53.16.84.26,1.33.19.89.44,1.79.65,2.67.51,1.9,1.06,3.85,1.67,5.76s1.3,3.9,2,5.84c1.4,3.89,3,7.81,4.43,11.7a99.35,99.35,0,0,1,6.27,23.36c.21,1.6,0,3-.29,3.32s-.71-.91-.89-2.51A99.12,99.12,0,0,0,646,582.49c-1.8-5.63-4-11.26-6-16.92-1-2.81-1.9-5.64-2.73-8.46-.4-1.39-.78-2.79-1.12-4.19l-.26-1-.22-1c-.15-.65-.29-1.31-.42-2-.26-1.16-.34-2.81-.51-4.39s-.37-3.24-.67-4.85a52.14,52.14,0,0,0-2.55-9.4,49.23,49.23,0,0,1,2.16,7.83,66.39,66.39,0,0,1,1,8.06c0,.65.08,1.28.15,1.85s.16,1.06.25,1.62c.21,1.12.39,2.16.66,3.38.51,2.36,1.05,4.7,1.71,7.1,2.5,9.54,5.88,19.2,7.52,28.9.5,2.47.88,5,1.19,7.45a46.31,46.31,0,0,1,.24,7.34c-.1,12.37-.44,24.44-.71,36.57s-.52,24.33-.66,37c-.25,21.6-.67,40.49-1.64,62-1.42,30.2-4,57.7-9.73,87.51a45.5,45.5,0,0,1-2.06,8.1c-.35.47,0-2.41.64-6.38,2.48-15.55,4.13-31,5.39-46.52s2.1-31,2.73-46.59c1.27-31.19,1.81-62.73,2.85-95.25.21-7,.41-13.92.62-20.78a.72.72,0,0,1-.37.17c-.48,0-.92-.67-1.28-1.77-.26,7.79-.61,15.65-1.06,23.53.51,21.94.65,43.9-1,67.28-1.16,16.05-2.9,30.57-4.54,45.41-.78,18.82-1.79,37.59-3.59,56.59a8.92,8.92,0,0,1-.28,1.82c-.11.27-.14-.14-.09-.91.85-13.07,1.38-26.46,1.76-40-.5,2.13-1.05,3.39-1.54,3.21s-.91-1.83-1.14-4.35l-.46,9.19c-.11,1.89-.38,3.38-.62,3.32s-.39-1.55-.32-3.35q.75-18.75,1.49-37.46c.15-15,.21-29.92.25-44.94a10.94,10.94,0,0,1-1.85,4.33h0c0,2.33-.05,4.64-.07,7q.9,31.83.27,64.3t-2.9,65.29a7.26,7.26,0,0,1-.19,1.58,6.62,6.62,0,0,1,0-1.42q1.23-19.82,1.94-39.51v0c-.09.53-.2.63-.25.05a11.87,11.87,0,0,1,.08-2.06c.09-.61.2-.55.24-.06.87-24.46,1.07-48.76.6-72.75q-.44,33.42-1.66,66.81c.06,2.43.11,4.85.16,7.31a7.85,7.85,0,0,1-.18,1.82c-.09.18-.17-.31-.17-1s0-1.36,0-2c-.16,4.21-.65,7.46-1.11,7.38s-.83-3.86-.78-8.23q0-17.58.08-35.08l-.1-3.79c-.11-1.28-.21-2.54-.32-3.81-.38,18.16-.73,36.28-.87,54.3a7.71,7.71,0,0,1-.26,2.9,7.08,7.08,0,0,1-.33-2.77c-1.1-31.77-2.38-63.92-3.13-96.22-1.38-10.61-2.86-21.26-4.35-32.1,0,1.36,0,2.74,0,4.12.18,17.56,1.46,33.79,2.7,49.88s2.47,32,3.07,49a4,4,0,0,1-.14,1.67c-.1.09-.22-.49-.24-1.36-.72-16.59-2.11-31.74-3.31-48.2-1-13.64-1.91-26.62-3.14-39.3.83,25.91,3,50.77,4.39,76.44a16,16,0,0,1,0,3,1.42,1.42,0,0,1,.17.63c.42,3.21.75,6.71,1,10.29a7.22,7.22,0,0,1,0,1.91C620.29,787.88,620.18,787.47,620.09,786.7Zm2.5-329.2.2,0-.54.07-1.12-.28S621.83,457.38,622.59,457.5Zm4.86-6.89h0l.71.3Zm7.4,99.63c-.14-.79-.28-1.59-.36-2.35l-.21-2.71c-.13-1.89-.32-3.82-.64-5.73a49.51,49.51,0,0,0-3.1-11.05,47.26,47.26,0,0,0-2.49-5.1,13.5,13.5,0,0,1-1.73-3.74,4,4,0,0,1,0-1.35,6.13,6.13,0,0,1,.33-1.45,9.17,9.17,0,0,1,1.73-2.73,9.11,9.11,0,0,0-1.62,2.69,5.85,5.85,0,0,0-.28,2.67c0,1.12,1.69,3.54,2.95,6.15a48.34,48.34,0,0,1,3.1,8.12,52.09,52.09,0,0,1,1.62,8.61c.16,1.45.23,2.9.32,4.29,0,.67.07,1.37.15,1.9S634.75,549.65,634.85,550.24ZM629.7,458a20.66,20.66,0,0,1-2.82-.73,5.26,5.26,0,0,1-1.26.7c-1.21.53-2.44,1-3.55,1.53.35.12.08.25,0,.34s-.23.19-.33.28c.62-.25,1.25-.5,1.88-.71s1.37-.41,2.06-.6,1.32-.34,2-.49A13.75,13.75,0,0,1,629.7,458Zm8.86-4,.22.11.1.63Zm-.2-1.09-.26,0C638,452.58,638.15,452.65,638.36,452.85Zm-2.37-.21a1.67,1.67,0,0,0,.46.22Zm-11.92-15.23,1.18,3.19-1.06-3.14Z"/><path d="M378.74,572.12l.61.17a1.58,1.58,0,0,1-1.12.6c5.91.77,11-3,14.07-6.83,1.47-.34,2.48-1.47,2.25-2.61s-1.67-1.87-3.21-1.53a4.76,4.76,0,0,1-1.11-.13,19.44,19.44,0,0,0-4.44-1.16,32.45,32.45,0,0,0-4.88-.21l2.16.41a9.94,9.94,0,0,0-2.91.3l.6.5c-3.6-.45-7.52,1.62-8.42,4.6s1.39,5.47,4.85,5.73Z"/><path d="M386.68,576.53c-1.86-.1-3.72-.27-5.62-.45l-.48-.25.93,1.64,0-.12c.71-2,2.79-3.54,4.8-4.72l.68-.52a1.45,1.45,0,0,0,.33-1.15,1.81,1.81,0,0,0-2.29-1.18l-1.27.27a12.63,12.63,0,0,0-5.33,1.47,5.08,5.08,0,0,0-2.83,4.13c0,.82.76,1.51,1.24,2.24a2.67,2.67,0,0,0,3.45,1.1,2.5,2.5,0,0,0,1.73-3l.83-.06-.37.63c-.08-1.13,1.11-1.87,1.83-2.77.44-.28.88-.57,1.33-.83l-2-2.31-.62.64c.11.09.3.21.3.23a32.49,32.49,0,0,1-3.5,3.64l-1.47,1.82a1.24,1.24,0,0,0,1,1.64l1.14.18-.55-.16c2.23-.33,4.47-.77,6.66-.94a.74.74,0,0,0,.73-.57A.56.56,0,0,0,386.68,576.53Z"/><path d="M380,579.78a1.76,1.76,0,0,0-1.25.12c0,.17-.07.25-.08.3l.84.16C380.11,580.48,380.2,580.13,380,579.78Z"/><path d="M378.66,580.2l-.35-.07.3.16,0,0Z"/><path d="M476.89,568.37q11.43,3.58,22.27,8.16c.24.11.47.11.52,0s-.12-.27-.34-.36c-7.23-3.1-14.63-5.83-22.27-8.24-.26-.07-.49,0-.55.08S476.65,568.29,476.89,568.37Z"/><path d="M525.76,600.21c-.19,0-.24.08-.11.23a.9.9,0,0,0,.52.29c.16,0,.22-.09.11-.22A.9.9,0,0,0,525.76,600.21Z"/><path d="M520.72,606.39a15,15,0,0,0-2.74-.65.88.88,0,0,1-.41-.2c0,.17-.26.22-.61.14-6.89-1.64-14-3.66-21.17-4.9a1,1,0,0,1-.43.33,3.63,3.63,0,0,1-2.63-.06l-.71-.31c-2.94-1.06-5.91-2-8.88-2.9a9.83,9.83,0,0,1-2.23,0l-8.31.43a.61.61,0,0,1,.17.53c-.14.44-.81.67-1.53.58l-1.09-.07c1,.19,2,.44,3.05.7a1.56,1.56,0,0,1,.4.12l3.46.44c5.16.54,10.23,1.11,15.29,1.74,2.53.29,5,.68,7.57,1s5,.82,7.52,1.35a.73.73,0,0,1,.52.24c.05.11,0,.22-.21.2-6.65-.49-12.68.42-19.73.3a169.36,169.36,0,0,0-24.54,1.44c-8.21-.19-15.75,1.61-23.47,4-2.85.91-5.6,1.81-8.24,2.79-5.41,2.12-10.43,4.19-15.19,6.6a3.66,3.66,0,0,1-3.67.49,6.16,6.16,0,0,1-3.18-3.11,7.77,7.77,0,0,1-.47-6l-.68.28-1.2.1a4.62,4.62,0,0,1-3.31-1.15l-1.34-1c-2.14-2.18-4.79-3.46-7-5.79l-.29-1.14-.36-.19a6.19,6.19,0,0,1-2.74-2.13l-.55-1.29a13,13,0,0,1-.86-4.64,4.69,4.69,0,0,1-.53-1.65,6.73,6.73,0,0,1-2.38-4,.91.91,0,0,1-.47-1.29,1.1,1.1,0,0,1,.39-.41h0a9.31,9.31,0,0,0-.89-.56c-.4,0-.65,0-.65,0l-1.94.39a5.42,5.42,0,0,1-1.67-.51c-1.95-1.87-2-1.87-2.36-2.89,0-.12,0-.24,0-.35-.81,0-.87,0-1.1,0a3.09,3.09,0,0,1-.51-.23c-.31-.5-.31-.5-.52-.64a2.24,2.24,0,0,1-.25-.38c.06-.74.06-.74,0-.91a1.6,1.6,0,0,1,.05-.38l.54-.59,1.64.92-.05-.56.54.52-.42-.51.65.13-.79-.25a5.53,5.53,0,0,0,1.64-.52,2.46,2.46,0,0,0,.86-.49,2.57,2.57,0,0,1-.19-.29c1.31-.27,1.31-.27,2.59-.51.16.09.31.18.44.27a.59.59,0,0,1,.47-.44l.66-.14.09-.14,0,0,.39-.48.08-.11h0l1.76-2a6.62,6.62,0,0,1,1.15-.1l-.41-.15c-.27-.12-.3-.68-.42-.69A37.59,37.59,0,0,0,380,575.9a1.07,1.07,0,0,1-1.38-.17.83.83,0,0,1,.4-1.2,19.35,19.35,0,0,1,8.71-5.54,26.43,26.43,0,0,1,10.44-1.14c1.7-.17,3.38-.32,5.07-.45l-.31-.2,1.37.1h.14l-1.21-.7-.74-.12a45.94,45.94,0,0,1-5.87.16c-2-.08-4-.12-6,0-2.19.07-4.26-.19-6.46-.21a.88.88,0,0,1-1.11-.49c-.1-.38.26-.79.77-.91,6.2-2.86,14-4.11,19.94-1.94a6.24,6.24,0,0,1,3.41.24h.06l-.91-.64c.92,0,1.53.58,2.38.71l-.54-1c4.41-.1,9-.9,13.09.2l.46,0a13.22,13.22,0,0,1,5.73-1.84c-.88-.08-1.76-.11-2.62-.18a18.65,18.65,0,0,1,5.64-.89,24.3,24.3,0,0,1,4.15.3,30.14,30.14,0,0,1,4,.87,16.09,16.09,0,0,1,6.14,3.19,192.29,192.29,0,0,1,29.89,3.35c.51.09.92.37,1,.64s-.36.41-.87.33c-7-.79-14.21-1.53-21.44-1.84,6,1.1,11.92,2.44,17.87,3.76l2.3.41a13.22,13.22,0,0,1,2.23.64c7.55,1.83,14.51,4.08,22,6.3,6.41,1.94,11.94,3.86,18.16,6.3,8.71,3.46,16.47,7.24,24,12.74,1,.69,1.77,1.64,1.64,2.11s-1.06.29-2.08-.39a172.77,172.77,0,0,0-25.6-12.71c-8.86-3.6-18-6.65-27.57-9.69-2.07-.61-4.1-1.29-6.16-1.83a.76.76,0,0,1,0,.26,1.15,1.15,0,0,1-.71.77c2.32.63,4.6,1.47,6.88,2.28a76,76,0,0,1,19.61,6c2.22,1,4.24,2.27,6.22,3.43s3.84,2.45,5.71,3.75a148.08,148.08,0,0,1,15.25,7.69.78.78,0,0,1,.41.39c0,.12-.13.14-.34,0-3.6-1.66-7.29-3.29-11-4.86.42.59.57,1.14.33,1.51s-.87.51-1.65.42l2.38,1.32c.48.28.79.64.67.83s-.59.16-1.06-.1c-1.62-.87-3.22-1.77-4.87-2.58s-3.28-1.67-5-2.44c-4.1-1.64-8.27-3-12.47-4.42a3,3,0,0,1,.78,1.61h0l1.91.68a106.32,106.32,0,0,1,34.39,15.94c.22.13.35.31.3.39s-.25.05-.44-.09a112.83,112.83,0,0,0-9.85-6.12h0c.1.13.07.25-.11.23a1,1,0,0,1-.53-.3c-.12-.15,0-.24.11-.22a105.62,105.62,0,0,0-19.65-8.24,123.21,123.21,0,0,1,17.54,8.48l2,.71c.18.08.38.26.4.38s-.17.12-.35,0l-.57-.21c1,.64,1.68,1.46,1.4,1.9s-1.44.29-2.54-.33c-1.5-.77-3-1.55-4.52-2.26s-3-1.48-4.56-2.17l-1-.37-1.1-.22c4.66,2.34,9.15,5,13.52,7.73.39.21.64.53.56.69s-.47.12-.86-.09A208.22,208.22,0,0,0,501.8,597l-4.71-.11-4.75.1c.36.12.72.24,1.09.34,4.67,1.3,9.14,2.16,13.62,3.09a72.56,72.56,0,0,1,13.32,4c.23.08.37.24.35.34s-.21.11-.43,0A88.18,88.18,0,0,0,507.17,601c-1.87-.46-3.71-.82-5.51-1.19s-3.61-.57-5.39-.76c6.91,1.81,13.79,3.22,20.52,5.81a1.43,1.43,0,0,1,.71.45.28.28,0,0,1,.22-.05,21.72,21.72,0,0,1,2.88.68.66.66,0,0,1,.43.33C521.08,606.4,520.93,606.43,520.72,606.39ZM400.65,578.68l-.21-.14.63.16,1.15,1Zm-7.28,7.74h0l-.7-.54ZM459,568.62c-2.14-.28-4.26-.64-6.39-1-1.07-.17-2.13-.37-3.2-.59s-2.14-.4-3.21-.64h3.15c1.62.31,3.24.64,4.85,1S457.44,568.21,459,568.62Zm-66.46,7.3a13.17,13.17,0,0,1,3.05,1.59,5.6,5.6,0,0,1,1.68-.73,42.77,42.77,0,0,1,4.88-.87c-.34-.39,0-.44.22-.55l.55-.26c-1.75.13-3.52.27-5.35.37A49.72,49.72,0,0,1,392.58,575.92Zm-10.64,6.22-.21-.09,0-.8S381.8,581.63,381.94,582.14Zm.11,1.33h.27C382.36,583.74,382.25,583.68,382.05,583.47Zm2.47-.13a1.49,1.49,0,0,0-.46-.23Zm10.68,18.75-.89-3.63.77,3.53Z"/><path d="M318.61,666.76l.59,0a1.29,1.29,0,0,1-.85.8,10.55,10.55,0,0,0,6.83-3.39,16.43,16.43,0,0,0,3.93-6.42,2.46,2.46,0,0,0,1.2-3.17A2.39,2.39,0,0,0,327,654a4.34,4.34,0,0,1-1,.15,22.14,22.14,0,0,0-8.7.79l2-.06a7,7,0,0,0-2.48.93l.67.35c-3.28.38-6.12,3.16-6.17,6.13s2.63,5,5.84,4.64Z"/><path d="M327,669.34c-1.73.31-3.47.55-5.24.79l-.51-.14,1.28,1.4,0-.11c.13-2.09,1.61-4,3.09-5.68L326,665a1.47,1.47,0,0,0,0-1.2,1.76,1.76,0,0,0-2.41-.65c-.36.18-.71.38-1.06.57-3,.88-6.74,3.62-5.93,7.05.2.79,1.06,1.32,1.69,1.93a2.51,2.51,0,0,0,3.44.44,2.38,2.38,0,0,0,.82-3.29l.74-.23c-.05.22-.11.46-.17.69-.36-1.09.52-2.07.93-3.1l1-1.11-2.44-1.81-.37.76a2.22,2.22,0,0,1,.32.16,27.45,27.45,0,0,1-2.18,4.29l-.9,2a1.31,1.31,0,0,0,1.3,1.4l1.09,0-.55-.05c2-.7,3.92-1.67,5.9-2.31a.66.66,0,0,0,.5-.73A.55.55,0,0,0,327,669.34Z"/><path d="M321.68,673.9a1.58,1.58,0,0,0-1.13.35v.3h.82C322,674.56,322,674.2,321.68,673.9Z"/><path d="M320.55,674.55h-.35l.32.1,0,0Z"/><path d="M472.47,624.72c1.13.1,2.26.17,3.37.31l3.36.43,6.68.86,6.65,1.1,3.31.55,3.29.67L505.7,630l6.51,1.57,3.25.79c1.08.27,2.14.59,3.22.89l6.41,1.8c.58.16,1.08.22,1.14.11s-.36-.35-.9-.49l-6.42-1.82-3.22-.9-3.24-.79-6.51-1.59-6.56-1.35-3.29-.67-3.31-.57-6.64-1.11c-2.22-.31-4.46-.58-6.69-.87s-4.47-.6-6.73-.76a2,2,0,0,0-1.2.15C471.49,624.52,471.91,624.66,472.47,624.72Z"/><path d="M592.17,674.84c-.39-.13-.42,0-.1.24a4.64,4.64,0,0,0,1.22.68c.32.11.37,0,.09-.24A4.47,4.47,0,0,0,592.17,674.84Z"/><path d="M585.18,680.06c-1.06-.48-2.08-.95-3.08-1.36s-2-.75-2.93-1.05a5.38,5.38,0,0,1-1-.49c0,.21-.42.15-1.19-.15A320.35,320.35,0,0,0,528.6,662a1.82,1.82,0,0,1-.82.26,16.8,16.8,0,0,1-6-.77l-1.75-.55c-1.78-.49-3.59-.88-5.38-1.32s-3.58-.91-5.39-1.26l-5.42-1.09-2.7-.55-2.72-.46a39,39,0,0,1-5.16-.18c-3.19,0-6.39.11-9.58.14l-9.6.45c.39.17.63.36.61.56s-.48.42-1.09.56a9.8,9.8,0,0,1-2.26.25l-2.6.06c2.48.1,5,.12,7.44.39a9.16,9.16,0,0,1,1,.11c2.73.12,5.49.13,8.3.34A288,288,0,0,1,556.24,671a3.9,3.9,0,0,1,1.23.54c.17.17.09.27-.34.16-14.65-3.65-27.75-4.7-44-6.31a221.58,221.58,0,0,0-57.21,1.85A148.52,148.52,0,0,0,427.6,673,167.56,167.56,0,0,0,401,683.63c-1.5.67-2.91,1.52-4.35,2.27l-4.28,2.27-4.12,2.45c-1.37.82-2.76,1.57-4,2.47l-1,.64-.49.32-.18.13-.63.47-1.27.93c-.84.62-1.71,1.17-2.51,1.83-1.63,1.27-3.26,2.48-4.92,3.67s-3.19,2.53-4.81,3.76a5,5,0,0,1-4,1.47,6.53,6.53,0,0,1-4.22-2.21,7.43,7.43,0,0,1-1.92-5.79l-.65.46-1.25.43a5.16,5.16,0,0,1-3.8-.3l-1.65-.68c-2.72-1.58-5.74-2.19-8.48-3.94l-.55-1.06-.4-.11a6,6,0,0,1-3.21-1.45l-.83-1.15a13.52,13.52,0,0,1-1.88-4.35,4.77,4.77,0,0,1-.9-1.51,6.84,6.84,0,0,1-3.23-3.35,1,1,0,0,1-.77-1.17,1.08,1.08,0,0,1,.27-.49h0a9.81,9.81,0,0,0-1-.36c-.37.14-.6.2-.6.2l-1.76.76a5.15,5.15,0,0,1-1.71-.18c-2.28-1.44-2.29-1.43-2.89-2.35,0-.11,0-.23-.07-.34-.77.14-.83.14-1,.17a2.26,2.26,0,0,1-.53-.13c-.41-.43-.41-.43-.64-.52a2.25,2.25,0,0,1-.31-.32c-.13-.73-.12-.73-.24-.88a2,2,0,0,1,0-.37l.36-.67,1.74.59-.17-.53.62.4-.51-.42h.64l-.8-.1a5.15,5.15,0,0,0,1.4-.81,1.93,1.93,0,0,0,.68-.64,3.24,3.24,0,0,1-.25-.24c1.13-.55,1.13-.55,2.24-1.06a3,3,0,0,1,.48.16.55.55,0,0,1,.32-.53l.56-.29a1.31,1.31,0,0,0,0-.15l0,0c.1-.22.16-.38.24-.56l0-.12h0c.16-.38.39-.94,1.08-2.35a7.48,7.48,0,0,1,1-.35l-.43-.06c-.28,0-.46-.59-.58-.57a19.45,19.45,0,0,0-2.13.52c-.68.24-1.36.51-2,.8-1.33.58-2.66,1.23-4,1.85a1,1,0,0,1-1.31.09.82.82,0,0,1,.06-1.23c2.7-6,9.14-9.75,15.48-11,1.51-.57,3-1.19,4.47-1.81l-.34-.11,1.28-.28.12,0-1.33-.36-.71.09a27.69,27.69,0,0,1-5.29,1.71c-1.8.48-3.61.95-5.41,1.54s-3.91.81-5.9,1.27a.84.84,0,0,1-1.13-.24.8.8,0,0,1,.42-1,36.08,36.08,0,0,1,8.15-5.22,20.92,20.92,0,0,1,9.17-1.76,5.76,5.76,0,0,1,3.13-.8h.05l-1-.36c.82-.26,1.58.14,2.39,0l-.83-.82c2-.67,3.93-1.58,5.88-2.38,1-.39,2-.76,2.95-1a14.35,14.35,0,0,1,3.06-.48l.43-.1a23.49,23.49,0,0,1,1.76-2c.16-.16.32-.31.49-.45l.15-.12.43-.25.87-.49a38.17,38.17,0,0,1,3.73-1.87c-.93.3-1.83.65-2.73,1l-2.65,1a1.92,1.92,0,0,1,.27-.17l.33-.21.68-.4,1.36-.8c.91-.54,1.85-1,2.81-1.47,1.91-.93,3.89-1.8,6-2.62,11.38-4.37,24.9-6.54,31.66-5.37a244.8,244.8,0,0,1,33.54-6.18,268.86,268.86,0,0,1,33.9-1.43,4.27,4.27,0,0,1,2.41.56c.11.27-.66.48-1.82.45a264.88,264.88,0,0,0-48.55,4.61,290,290,0,0,1,41.22-2c1.77,0,3.55-.07,5.34,0s3.51.22,5.24.42c17.69,1,34.15,4,51.53,8.05l2.77.63,2.7.72,5.31,1.42c1.76.44,3.47,1,5.18,1.51l5.13,1.56c3.39,1.07,6.74,2.28,10.16,3.44s6.81,2.57,10.34,3.93A280.28,280.28,0,0,1,592,662.39a245.93,245.93,0,0,1,25.84,16.34c2.25,1.61,4.13,3.42,4.13,4s-1.84-.29-4.09-1.89a311.39,311.39,0,0,0-27.75-16.69,320.1,320.1,0,0,0-29.49-13.56,298.84,298.84,0,0,0-31.18-10.52,314.77,314.77,0,0,0-33-7.38c-2.43-.45-4.87-.73-7.28-1.1l-3.62-.52c-1.21-.15-2.42-.26-3.63-.39a.48.48,0,0,1,.1.28c0,.36-.51.64-1.3.85l4.1.46c1.36.18,2.72.41,4.09.62l4.08.66,2,.34,2,.42A190,190,0,0,1,542.75,645a234.47,234.47,0,0,1,28.52,13.49,280.23,280.23,0,0,1,34.41,18.3,3.19,3.19,0,0,1,1,.78c.11.19-.18.11-.63-.16l-5.95-3.27-3-1.65-3.05-1.57-6.14-3.16-6.27-3c1.15,1,1.72,1.75,1.42,2.1s-1.51.2-3.16-.34l5.52,3c1.13.61,1.94,1.26,1.79,1.45s-1.11-.14-2.2-.71c-3.75-2-7.47-4-11.31-5.83-1.91-.92-3.79-1.91-5.73-2.77l-5.8-2.61a295.18,295.18,0,0,0-28.89-9.87,7.06,7.06,0,0,1,2.44,2.11h0l4.49,1.39c27.69,7.64,54.5,21.05,78.43,38.55.47.33.82.67.78.75s-.46-.11-.89-.42c-3.64-2.58-7.25-5.22-11-7.61-1.88-1.21-3.71-2.48-5.63-3.61l-5.72-3.44,0,0c.28.24.28.37-.1.23a5,5,0,0,1-1.19-.72c-.32-.27-.23-.35.09-.24a245.84,245.84,0,0,0-44.88-20.11,258.1,258.1,0,0,1,40.77,19.23c1.48.71,3,1.35,4.47,2.13a3.16,3.16,0,0,1,1,.75c.07.13-.27.05-.68-.17l-1.22-.63c2.41,1.51,4.06,3,3.76,3.43s-2.71-.52-5.22-2c-6.9-3.76-13.81-7.43-20.92-10.7l-2.34-1-2.42-.83A290.76,290.76,0,0,1,599,683.83c.89.52,1.57,1.1,1.49,1.27s-.87-.13-1.77-.65a297.55,297.55,0,0,0-28.58-14,288.87,288.87,0,0,0-30-11c-3.48-.62-7-1.1-10.47-1.63s-7-.82-10.6-1.11c.87.19,1.74.42,2.61.65,11.11,2.61,21.43,5.16,31.57,8.25a196.48,196.48,0,0,1,30.21,11.69,2.05,2.05,0,0,1,.9.67c0,.11-.38,0-.88-.26a221.89,221.89,0,0,0-29.7-11.38l-6.34-2-6.27-1.65-3.1-.79-3.09-.65c-2.06-.43-4.09-.85-6.12-1.24l6.07,1.61,3,.77,3,.87,6,1.71,5.92,1.89,3,.94,2.93,1,5.87,2.12c1.94.75,3.87,1.55,5.81,2.34l2.92,1.2c1,.41,1.91.86,2.88,1.3a7.66,7.66,0,0,1,1.7,1,.76.76,0,0,1,.43.06,63.52,63.52,0,0,1,6.33,2.52,3,3,0,0,1,1.06.69C585.93,680.29,585.65,680.24,585.18,680.06ZM340.57,668l-.24-.09H341l1.39.74Zm-4.67,9.44h0l-.82-.38Zm96.62-48.2-7.27.82c-1.21.11-2.42.29-3.62.46L418,631c-4.84.55-9.62,1.44-14.49,2.06l6.92-1.67,2.74-.44,2.76-.32,5.52-.62c1.83-.23,3.68-.34,5.53-.45ZM332.29,667.4a12.5,12.5,0,0,1,3.28.8,5,5,0,0,1,1.34-1.15,27,27,0,0,1,4.27-2.14c-.44-.29-.09-.44,0-.59l.43-.4c-1.58.6-3.25,1.1-4.86,1.75A40.91,40.91,0,0,1,332.29,667.4Zm-8.22,8.42-.23-.06-.22-.76Zm.42,1.26.25-.07C324.85,677.28,324.72,677.25,324.49,677.08Zm2.3-.61a1.87,1.87,0,0,0-.49-.12Zm14.73,16-1.71-3.37,1.57,3.29Z"/><path d="M468.77,118.93l-.34-.33c.12-.26.38-.3.69-.23a4.32,4.32,0,0,0-5-.41,4.9,4.9,0,0,0-1.05.72,8.08,8.08,0,0,0-.91,1,9.94,9.94,0,0,0-1.33,2.44c-.88.1-1.29,1.24-.92,2.4a2.3,2.3,0,0,0,2.12,1.83,2.18,2.18,0,0,1,.64.29,16.59,16.59,0,0,0,2.54,1.82c.42.24.83.43,1.24.64s.83.41,1.24.59l-1.11-.9a2.81,2.81,0,0,0,1.42.38l-.32-.63a2.37,2.37,0,0,0,2.48.39,3.23,3.23,0,0,0,1.58-2.35c.59-2.47-.19-5.63-2.13-7Z"/><path d="M463.94,112.62a24.62,24.62,0,0,1,3.71,1.84l.29.38-.45-1.85v.12a7.21,7.21,0,0,1-3.34,3.44l-.44.37a1.65,1.65,0,0,0-.17,1.07,1.79,1.79,0,0,0,1.46,1.64h.76c2,.57,4.66.36,5.17-3a7.74,7.74,0,0,0-.42-2.52,2.14,2.14,0,0,0-2-2.15,1.86,1.86,0,0,0-1.45,2.36,5.6,5.6,0,0,0-.54-.17c.09-.19.19-.34.29-.51-.05,1.09-.84,1.57-1.33,2.26l-.87.51,1.24,2.72.38-.48c-.06-.11-.18-.28-.17-.29.35-.49.7-1,1.07-1.44a7.14,7.14,0,0,1,1.25-1.15l1.1-1.26a1.74,1.74,0,0,0-.4-1.86l-.72-.53.34.33c-.75-.22-1.51-.37-2.29-.52s-1.54-.2-2.32-.39a.43.43,0,0,0-.54.41A.66.66,0,0,0,463.94,112.62Z"/><path d="M468.78,111.29c.27.18.53.38.84.27l.1-.25-.53-.43C468.81,110.58,468.69,110.88,468.78,111.29Z"/><path d="M469.72,111.31l.22.18-.17-.26,0,0Z"/><path d="M454.28,240.93a77.92,77.92,0,0,0,35.07,6.47,65.82,65.82,0,0,0,17.28-3.29,67.26,67.26,0,0,0,16-7.89c.69-.42,1.18-.9,1.13-1s-.59.18-1.22.57a67.11,67.11,0,0,1-15.85,7.86,65.6,65.6,0,0,1-17.12,3.28,73.92,73.92,0,0,1-17.66-1.12,82.25,82.25,0,0,1-17.14-5.21,3.17,3.17,0,0,0-1.54-.41C453.11,240.28,453.59,240.61,454.28,240.93Z"/><path d="M550.55,133.45c.41.53.49.46.19-.18a12,12,0,0,0-1.24-2c-.37-.44-.46-.35-.19.19A15.17,15.17,0,0,0,550.55,133.45Z"/><path d="M560.63,135c2.18,3.72,4,7.38,5.64,10.7a15.59,15.59,0,0,1,.71,1.9c.06-.29.52.42,1.1,1.89A91.51,91.51,0,0,1,574,172.57a90,90,0,0,1-.49,24.78c-.27,2.09-.77,4.13-1.16,6.2l-.77,3.06c-.25,1-.51,2-.85,3.06-.67,2-1.21,4.09-2,6.06s-1.51,4-2.45,5.93a96.7,96.7,0,0,1-13.72,21.77,4.13,4.13,0,0,1-.62,1.41,35.43,35.43,0,0,1-3.16,4.1c-.7.82-1.55,1.6-2.41,2.44s-1.76,1.7-2.75,2.48l-3,2.31a95.7,95.7,0,0,1-19.79,11.65,90.6,90.6,0,0,1-22,6.44c-.75.2-1.54.43-2.36.6l-2.57.47-2.72.45c-.94.11-1.9.19-2.88.28a106.21,106.21,0,0,1-39.75-2.73c.76.4,1.21.73,1.14.93-.38.36-3.56-.15-7.05-1.4-1.76-.64-3.54-1.23-5.26-1.94a122.76,122.76,0,0,0,15.19,5.37c.75.2,1.44.4,2.06.61a111.89,111.89,0,0,0,17.83,2.72,99.82,99.82,0,0,0,39.23-5.11,95.43,95.43,0,0,0,32.93-19.66A104.47,104.47,0,0,0,557.07,241a101.79,101.79,0,0,0,9.52-15.78,98.23,98.23,0,0,0,6.24-17.1,96,96,0,0,0,2.89-17.64,18.7,18.7,0,0,1,.27-2.68c.13-.46.25-.36.23.51a100.75,100.75,0,0,1-2.74,22,93.79,93.79,0,0,1-7.58,21,96.6,96.6,0,0,1-13,19.59,95.6,95.6,0,0,1-19.33,17.24c-1.11.81-2.32,1.48-3.48,2.21s-2.34,1.48-3.57,2.11c-2.44,1.29-4.87,2.64-7.44,3.73a98.94,98.94,0,0,1-15.8,5.62,109.66,109.66,0,0,1-33.14,3.34,121.72,121.72,0,0,1-16.57-1.93l-4.09-.87-2-.45-2-.54-4-1.09-4-1.28c-2.69-.82-5.27-1.9-7.91-2.88-1.3-.53-2.58-1.11-3.88-1.68s-2.59-1.12-3.85-1.77l-3.8-1.9c-1.27-.64-2.48-1.37-3.73-2.05-2.49-1.37-4.95-2.89-7.38-4.48a121.9,121.9,0,0,1-26.68-25.17,101.7,101.7,0,0,1-10.31-16.28,93.48,93.48,0,0,1-7.06-18.8,103.1,103.1,0,0,1-2-39.31A122.25,122.25,0,0,1,372,127.75a124.12,124.12,0,0,1,13.84-22.48A128.6,128.6,0,0,1,404,86.09c.81-.75,1.7-1.41,2.55-2.11l1.29-1,.29-.26,1-.83c.64-.56,1.27-1.12,1.92-1.65,1.34-1,2.68-2,4-3.06l2.05-1.49c.69-.48,1.41-.93,2.13-1.39q2.13-1.36,4.31-2.69c1.46-.88,3-1.65,4.51-2.47s3-1.64,4.63-2.32a11.67,11.67,0,0,1,6.93-1.53,6.28,6.28,0,0,1,4.8,3,6.2,6.2,0,0,1-.72,6.39l1.11-.34,1.88-.19a6.52,6.52,0,0,1,4.66,1.2l1.63,1.16c2.38,2.41,5.44,4.14,7.3,6.91l0,1.19.36.28a5.54,5.54,0,0,1,2.4,2.76l.19,1.41a14.7,14.7,0,0,1-.41,4.74,5.15,5.15,0,0,1,.14,1.74,7.27,7.27,0,0,1,1.35,4.48,1,1,0,0,1,.17,1.39.86.86,0,0,1-.4.29h0a8.43,8.43,0,0,0,.65.79c.34.07.54.13.54.13l1.64.22a4.2,4.2,0,0,1,1.19,1c1.09,2.4,1.07,2.4,1.16,3.5,0,.11-.05.22-.08.33a7.52,7.52,0,0,1,.76.38,2.41,2.41,0,0,1,.3.38c.11.58.11.58.23.78a4,4,0,0,1,.09.43c-.18.7-.18.7-.16.88a2.71,2.71,0,0,1-.1.35l-.45.38-.94-1.39-.06.54-.28-.66.2.62-.42-.33.5.49c-.86-.1-.86-.1-1.19,0a1,1,0,0,0-.65.2c.06.19.09.33.09.33-.92-.1-.93-.13-1.84-.19a3.26,3.26,0,0,1-.29-.36.38.38,0,0,1-.37.32h-.47l-.08.11,0,0-.31.38-.06.09h0L462.33,113a5.58,5.58,0,0,1-.82-.11,2.86,2.86,0,0,1,.3.22c.19.16.22.73.31.76a14.66,14.66,0,0,0,3.14.69c.51.06,1,.1,1.53.15l1.52.24c.33-.12.71.16.84.6a.79.79,0,0,1-.36,1,10.17,10.17,0,0,1-1.23,1.16,10.63,10.63,0,0,1-1.31,1,9.27,9.27,0,0,1-2.88,1.14,15.6,15.6,0,0,1-6.54.07,23.86,23.86,0,0,0-3.26.44l.25.19-.94,0-.09,0,1,.66.52.09a10.59,10.59,0,0,1,3.77-.06c.63.08,1.25.14,1.88.26s1.26.25,1.87.34a16.63,16.63,0,0,1,3.82,1.32c.29,0,.57.31.64.73s-.1.71-.37.72a13.75,13.75,0,0,1-11.43.18,2.86,2.86,0,0,1-2.2-.06h0c.26.2.51.39.78.58-.58,0-1.16-.49-1.72-.51l.69.93c-1.32.29-2.59.82-3.9,1.25a9.73,9.73,0,0,1-4.13.89,1.59,1.59,0,0,1-.3.06,14.24,14.24,0,0,1-.73,1.83c-.07.14-.15.28-.23.41a.48.48,0,0,1-.08.11l-.44.35-.91.71c-1.2,1-2.38,2.06-3.7,3.07l2.76-1.9a13.79,13.79,0,0,1,1.38-.92l1.35-.8s-.17.15-.26.23l-.34.29-.69.56c-.47.36-.89.8-1.33,1.2-.87.82-1.8,1.57-2.67,2.4s-1.74,1.7-2.66,2.53-1.73,1.78-2.67,2.66A111,111,0,0,0,419.09,157c-3.91,5.56-6.7,10.88-9,14.28a55.9,55.9,0,0,0-1.28,20,42.18,42.18,0,0,0,2.21,9.19,50.09,50.09,0,0,0,4.25,8.89,67.61,67.61,0,0,0,13.81,16.1,78.89,78.89,0,0,0,8.94,6.66,88.45,88.45,0,0,0,9.81,5.54,7,7,0,0,1,2.73,1.79c0,.31-1,.1-2.42-.54a89.59,89.59,0,0,1-14.32-8,78.45,78.45,0,0,1-12.34-10.48c-7.33-7.74-12.49-16.75-14.41-26a52,52,0,0,0,10,23.08A78.55,78.55,0,0,0,438,236.49l3.25,1.87c1.08.63,2.22,1.16,3.33,1.75s2.21,1.11,3.32,1.66,2.18,1.14,3.31,1.63c22.95,9.74,48.89,9.8,69.7-4a70.62,70.62,0,0,0,27.79-35.09,68.56,68.56,0,0,0,2.24-7.32c.28-1.26.63-2.52.83-3.81s.49-2.57.64-3.88c2-14.68-.75-29.11-6.84-42.24a84.41,84.41,0,0,0-5.16-9.5c-.94-1.51-1.95-3-2.94-4.32-.49-.66-1-1.32-1.25-1.59l-1.76-1.93a69.15,69.15,0,0,0-17-12.93c-3.47-1.84-6.77-3.54-7-4.14s2.6.07,6.25,1.83a69.66,69.66,0,0,1,19.07,13.38c.69.68,1.33,1.4,2,2.09.42.45.43.46.72.81s.54.68.83,1.05c1.13,1.47,2.26,3.11,3.33,4.77a87,87,0,0,1,5.73,10.53,80.65,80.65,0,0,1,6.65,22.83,72.32,72.32,0,0,1-.71,23.57L554,195l-.35,1.45c-.25,1-.43,2-.74,2.9L552,202.2l-1,2.8c-.6,1.89-1.5,3.66-2.25,5.5-.4.91-.89,1.77-1.33,2.66s-.87,1.79-1.41,2.63a72.69,72.69,0,0,1-15.1,18.58,71.68,71.68,0,0,1-20.41,12.76c-.93.38-1.89.69-2.83,1.05l-1.42.51c-.47.17-1,.29-1.44.43l-2.89.85-3,.65c-.5.11-1,.23-1.49.32l-1.5.23c-1,.15-2,.34-3,.46-2,.16-4.07.43-6.14.44a79.83,79.83,0,0,1-21-2.07.47.47,0,0,1,.11.31c-.07.36-.79.53-2,.55a89.42,89.42,0,0,0,12,2.2c2,.17,4,.43,6.07.45,1,0,2,.11,3.06.09l3.05-.06a73.86,73.86,0,0,0,31.75-10.41A81.21,81.21,0,0,0,545,219.18l1.66-2.6c.27-.43.56-.85.81-1.29l.74-1.33,1.48-2.63c.43-.91.87-1.8,1.3-2.7l.65-1.34c.21-.45.38-.91.57-1.37.38-.91.75-1.82,1.12-2.73s.66-1.87,1-2.8l.49-1.39.42-1.42a77.41,77.41,0,0,0,3.33-23.1,83.19,83.19,0,0,0-7.53-29,89.35,89.35,0,0,0-7.46-13.14c-.71-1-1.44-2-2.17-3-.34-.44-.77-1-1-1.21l-1.26-1.33a68.83,68.83,0,0,0-5.38-5.14,7.93,7.93,0,0,1-1.39-1.31c-.17-.26.22-.05.86.44a70.12,70.12,0,0,1,7.65,6.95l.33.36.39.45.8,1c.53.67,1.06,1.37,1.58,2.08,1.05,1.42,2.05,2.91,3,4.43a88.17,88.17,0,0,1,9.29,19.73c-.37-2.3-.42-3.76.06-3.73s1.51,1.6,2.56,4.22a91.62,91.62,0,0,0-3.31-9.7c-.79-1.95-1.33-3.55-1.1-3.59s1.12,1.4,1.89,3.28a83.48,83.48,0,0,1,6,41.11,81.75,81.75,0,0,1-6,24.27A77.92,77.92,0,0,1,543.23,233a22.57,22.57,0,0,1,4.14-3h0c1.67-2.06,3.08-4.3,4.55-6.48a85.8,85.8,0,0,0,11.3-34.19,84.86,84.86,0,0,0-4-35.89,94.7,94.7,0,0,0-7.42-16.74,90.92,90.92,0,0,0-4.89-7.74c-.87-1.23-1.8-2.46-2.72-3.56l-.31-.37-.39-.41-.78-.83c-.53-.55-1-1.13-1.58-1.65a80.35,80.35,0,0,0-31-19,5,5,0,0,1-1.65-.71,3.77,3.77,0,0,1,1.58.33,84.52,84.52,0,0,1,20,9.83,73.17,73.17,0,0,1,8.73,6.83c.71.6,1.35,1.26,2,1.9l1,1,1,1,.95,1,.47.5.4.46c.55.67,1.12,1.39,1.66,2.13l0,0c-.3-.52-.27-.68.17-.2a11.71,11.71,0,0,1,1.36,1.88c.33.61.2.62-.17.2a93.78,93.78,0,0,1,15.49,38,84.4,84.4,0,0,1-3.43,40.51,83.43,83.43,0,0,0,4.56-37.49,93,93,0,0,0-11.94-36q-2.26-3.5-4.86-6.78a10.12,10.12,0,0,1-1.13-1.73c-.07-.22.36.15.85.77s1,1.21,1.44,1.83c-1.37-2-2.57-3.75-3.43-4.93s-1.37-2.06-1.15-2.22,1.22.56,2.53,1.71a31.78,31.78,0,0,1,4.21,5.12,93.59,93.59,0,0,1,15.41,37.8c.29,1.46.48,2.93.71,4.4s.5,3,.64,4.45a90.73,90.73,0,0,0-7.19-31.16,97.08,97.08,0,0,0-7.42-14.23,78.38,78.38,0,0,0-4.65-6.59,79.6,79.6,0,0,0-5.57-5.87c-1.37-1.22-2.46-2.36-2.37-2.53s1.32.7,2.72,1.93l2.63,2.42,2.53,2.56a62.12,62.12,0,0,1,4.53,5.7,97,97,0,0,1,7.45,12.28,94.8,94.8,0,0,1,9.14,27.43,86.65,86.65,0,0,1-.07,29.27,84.67,84.67,0,0,1-3.67,14.31c-.72,2.38-1.77,4.63-2.69,6.93-.5,1.14-1.07,2.24-1.61,3.36s-1.07,2.24-1.71,3.3a92.29,92.29,0,0,1-24.41,31.65l2.14-1.52,2.06-1.65A87.48,87.48,0,0,0,570.37,199a92.23,92.23,0,0,0,.28-29.84,102.24,102.24,0,0,0-9.12-28.81,6.71,6.71,0,0,1-.73-1.89c0-.15.44.44.89,1.39a102.28,102.28,0,0,1,9.27,28,89.07,89.07,0,0,1,.18,29.83,90.54,90.54,0,0,1-2.9,12.35c-.32,1-.63,2-.94,3s-.74,2-1.1,2.93-.73,2-1.13,2.92l-1.29,2.84a98.64,98.64,0,0,1-13,20.85A90.73,90.73,0,0,0,564.32,222a91.68,91.68,0,0,0,8.81-34.88c.15-2,.1-4,.13-6s-.1-4-.29-6a96.75,96.75,0,0,0-4.82-23.32,34.23,34.23,0,0,1-1.09-3.51,2.58,2.58,0,0,1-.4-.68c-1.64-3.63-3.54-7.5-5.71-11.32a12.07,12.07,0,0,1-1-2.12C559.81,133.8,560.14,134.2,560.63,135ZM453.22,108.85l.19.14-.54-.16-1.09-1.06S452.51,108.29,453.22,108.85Zm6-7.32h0l.57.66ZM411.3,210A46.71,46.71,0,0,1,405.62,193a50.27,50.27,0,0,1,1.2-18.08,57.25,57.25,0,0,0-.72,8.88c-.11,1.14-.09,2.25-.15,3.39s0,2.25.1,3.35a48.21,48.21,0,0,0,.8,6.59A53.12,53.12,0,0,0,411.3,210Zm48.42-97.83a14,14,0,0,1-2.38-1.92,3.05,3.05,0,0,1-1.25.58,33.46,33.46,0,0,1-3.67.82c.33.39,0,.44-.08.55l-.38.27c1.35-.14,2.69-.25,4-.33A21,21,0,0,1,459.72,112.2Zm8.08-3.78a2,2,0,0,0,.14.16l-.1.77S467.82,109,467.8,108.42Zm.14-1.29-.2-.08C467.76,106.77,467.84,106.86,467.94,107.13Zm-1.85-.64a1.93,1.93,0,0,0,.32.35Zm-5.9-21v3.82l.11-3.7Z"/><path d="M486.38,60.87l.26,0c0,.17-.16.28-.35.36,2.45,0,3.94-2.31,4.34-4.49a1.09,1.09,0,0,0,.32-1.51,1.08,1.08,0,0,0-1.51-.34A1.65,1.65,0,0,1,489,55a8.51,8.51,0,0,0-3.69.26h.87a2.61,2.61,0,0,0-1,.4l.3.18a2.53,2.53,0,0,0,.26,5.06Z"/><path d="M490.23,62.32c-.79.11-1.57.18-2.36.24l-.23-.08.6.71,0-.06a4.52,4.52,0,0,1,1.24-2.62l.19-.32a.75.75,0,0,0-.07-.57.8.8,0,0,0-1.09-.34l-.45.24c-1.3.34-2.85,1.51-2.43,3.17.1.38.48.66.77,1a1.11,1.11,0,1,0,1.85-1.24l.33-.09-.06.32c-.19-.53.18-1,.34-1.45l.4-.5-1.16-.92-.14.35.15.08a10.28,10.28,0,0,1-.85,2l-.36.94a.68.68,0,0,0,.6.7l.49,0-.24,0c.89-.28,1.73-.7,2.63-1a.28.28,0,0,0,.21-.33A.27.27,0,0,0,490.23,62.32Z"/><path d="M487.9,64.36a.64.64,0,0,0-.5.14v.14l.37,0C488,64.69,488,64.52,487.9,64.36Z"/><path d="M487.4,64.64h-.15l.14.06v0Z"/><path d="M509.28,44.35a37.7,37.7,0,0,0,3.69-2s0-.1,0-.17-.13-.1-.16-.08a41.26,41.26,0,0,1-3.7,2s0,.1,0,.17A.2.2,0,0,0,509.28,44.35Z"/><path d="M522.89,45a.3.3,0,0,0,.14.17c.06,0,.11,0,.09-.07a.26.26,0,0,0-.14-.17C522.91,44.88,522.88,44.92,522.89,45Z"/><path d="M526.93,50.67a1.72,1.72,0,0,0-.11.74.06.06,0,0,1-.08.05.4.4,0,0,1,.13.32,15.09,15.09,0,0,1-2,4.47,1.82,1.82,0,0,1,.16.31c.14.34.09.61-.12.69l-.18,0c-.63.23-1.24.49-1.88.7a.85.85,0,0,1-.16.52,14.17,14.17,0,0,1-.6,2,.92.92,0,0,1,.26.23c.18.26.22.52.09.6l-.17.16.67-.22h.1a4.18,4.18,0,0,0,.57-.47,15.14,15.14,0,0,0,3.24-6c0-.06,0-.09.11,0a.22.22,0,0,1,.11.18c-.06,2,.31,4.3-.21,6a31,31,0,0,1-2.25,5.57c-1.46,1.13-2.36,2.76-3.51,4.35-.39.54-.79,1-1.21,1.52a1.65,1.65,0,0,1-.2.21l-.33.31-.68.61q-.67.61-1.35,1.2c-1.82,1.58-3.68,3.09-5.59,4.61a3.32,3.32,0,0,1-4.7,0,3.37,3.37,0,0,1-.94-2.89l-.36.26-.7.26a3,3,0,0,1-2,0l-.86-.3c-1.4-.75-3-1.06-4.35-1.93l-.25-.53-.2,0a2.88,2.88,0,0,1-1.59-.73l-.39-.58a7.15,7.15,0,0,1-.87-2.15,2.56,2.56,0,0,1-.43-.75,3.44,3.44,0,0,1-1.55-1.68.47.47,0,0,1-.36-.57.55.55,0,0,1,.12-.24h0l-.47-.19-.28.09-.82.33a2.21,2.21,0,0,1-.79-.12c-1.06-.75-1.06-.75-1.34-1.21l0-.16-.47.05a.83.83,0,0,1-.24-.08c-.19-.21-.19-.21-.3-.26a1.27,1.27,0,0,1-.14-.17c-.06-.35-.06-.35-.11-.43a.94.94,0,0,1,0-.18c.09-.2.13-.27.15-.31l.79.33-.08-.26.28.21-.23-.21.28,0-.36-.07a2.17,2.17,0,0,0,.63-.35.87.87,0,0,0,.3-.29l-.12-.12,1-.46.23.09a.21.21,0,0,1,.13-.24l.25-.13,0-.07v0c0-.1.06-.18.09-.26l0-.06h0c.07-.17.16-.43.42-1.12a2.69,2.69,0,0,1,.45-.16l-.19,0c-.13,0-.24-.29-.29-.29a17.08,17.08,0,0,0-3.59,1.35.43.43,0,0,1-.59,0,.41.41,0,0,1,0-.59,8.91,8.91,0,0,1,6.42-5.1c.63-.31,1.24-.63,1.86-1l-.16,0,.55-.16.05,0-.63-.15-.31,0a26.82,26.82,0,0,1-4.53,1.63,22.07,22.07,0,0,1-2.51.55.37.37,0,1,1-.37-.63c1.84-1.87,4.4-3.44,7.1-3.37a2.14,2.14,0,0,1,1.32-.44h0l-.49-.15c.35-.14.71,0,1.06-.07l-.45-.37c1.61-.8,3-2.09,4.81-2.44l.18-.07a8.35,8.35,0,0,1,.94-1.79l-.46.12a1.47,1.47,0,0,1,.52-.89,3.13,3.13,0,0,1,3.36.47,47.87,47.87,0,0,0,3.68-3.72c.06-.08.2,0,.31.09s.17.3.11.37A16.74,16.74,0,0,1,507,48.09a15.84,15.84,0,0,0,2.91-1.46l.28-.31a.62.62,0,0,1,.38-.18,13.42,13.42,0,0,0,3-2.76,30.46,30.46,0,0,0,1.93-3.13,12.54,12.54,0,0,1,2.93-4.17c.15-.18.5,0,.79.27s.4.74.26.92c-1.92,3.18-3.61,6.55-6.6,8.6l-1,.64.11.14a2,2,0,0,1,.32.56,9.5,9.5,0,0,1,1.2-.58,6.65,6.65,0,0,1,2.51-2.88,9.25,9.25,0,0,1,2.71-.63c.66-.85,1.28-1.76,2-2.59,0-.05.08,0,.14,0a.22.22,0,0,1,.09.19,14.3,14.3,0,0,1-1,2.4,2.38,2.38,0,0,1,.76.68,2.26,2.26,0,0,1,.42.94l.42-.29c.09-.05.25,0,.37.18s.16.34.08.4l-1.7,1.21c-.53.68-1.07,1.34-1.63,2a3.16,3.16,0,0,1,.77.61h0l.28-.26A14.11,14.11,0,0,1,524.56,43s.12,0,.17.08.08.16,0,.18A11.25,11.25,0,0,0,523,44.58h0a.27.27,0,0,1,.14.17c0,.07,0,.1-.09.08a.32.32,0,0,1-.14-.18A15.37,15.37,0,0,0,520.43,48a17.5,17.5,0,0,1,3-2.25c0-.17.07-.35.11-.52s.09,0,.15,0a.25.25,0,0,1,.08.19l0,.13c.21-.11.58.08.87.46s.36.81.15.94c-.46.47-.94.91-1.44,1.33l-.11.19,0,.31c.91-.47,1.85-.91,2.79-1.32.07-.06.21,0,.31.13s.14.29.07.35A28.22,28.22,0,0,1,523,52.37c0,.94,0,1.89-.07,2.82a.82.82,0,0,0,.2-.12c1.54-1.2,1.58-3.85,2.81-5.34,0,0,.1,0,.16.05s.08.15,0,.18a17.2,17.2,0,0,0-1.2,2.82,15.62,15.62,0,0,0-.9,2.4c1-1,1.56-2.6,2.44-3.79,0-.07.1-.07.18,0a.3.3,0,0,1,0-.11,2.61,2.61,0,0,1,.12-.78s.06,0,.14,0A.23.23,0,0,1,526.93,50.67Zm-30.49,11-.12,0h.3l.7.33Zm-1.87,4.64h0l-.4-.18Zm13.72-18.2a4.54,4.54,0,0,1-2.15.9l.36-.42A16.77,16.77,0,0,1,508.29,48.14ZM492.56,61.42a5.91,5.91,0,0,1,1.54.39,2.21,2.21,0,0,1,.58-.56,18.38,18.38,0,0,1,1.85-1.1c-.22-.14-.07-.22,0-.29l.18-.21c-.7.32-1.41.63-2.14.94A17.38,17.38,0,0,1,492.56,61.42ZM489,65.35l-.1,0-.11-.37Zm.2.61.12,0C489.38,66.07,489.32,66.05,489.21,66Zm1.06-.24-.23-.07Zm7.06,8-.8-1.66.73,1.63Z"/><path d="M516.71,290.59l.43.37a1.33,1.33,0,0,1-1.11,0,11.11,11.11,0,0,0,7.14,1.77,15.76,15.76,0,0,0,6.47-1.75c1.3.25,2.46-.29,2.59-1.21s-.85-1.89-2.19-2.18a5.25,5.25,0,0,1-.85-.48,26.28,26.28,0,0,0-6.93-4.42c.52.37,1,.73,1.56,1.11a8.84,8.84,0,0,0-2.37-.86l.31.6c-2.66-1.69-6.3-1.81-8-.06s-.87,4.68,1.78,6.35Z"/><path d="M521.69,296.91c-1.53-.75-3-1.56-4.5-2.42l-.3-.38.17,1.61,0-.1c1.29-1.24,3.53-1.6,5.59-1.81l.73-.17a1.1,1.1,0,0,0,.64-.75c.15-.71-.51-1.49-1.49-1.69l-1.13-.24c-2.76-1.13-7.14-1.71-8.5.92-.31.61.05,1.46.17,2.21a2.53,2.53,0,0,0,2.39,2.27c1.35.15,2.47-.57,2.52-1.62l.7.28-.53.33c.34-.88,1.57-1,2.47-1.41l1.37-.14-.86-2.47-.71.25a2.86,2.86,0,0,1,.16.28,24.06,24.06,0,0,1-4.09,1.41l-1.84.75a1,1,0,0,0,.18,1.63l.87.6-.4-.34c1.95.69,4,1.15,5.87,1.81a.67.67,0,0,0,.81-.18A.46.46,0,0,0,521.69,296.91Z"/><path d="M515,296.84a1.76,1.76,0,0,0-1.07-.43l-.17.19.63.48C514.81,297.41,515,297.19,515,296.84Z"/><path d="M513.73,296.6l-.27-.2.19.25h0Z"/><path d="M626.94,288.52c-1-.54-2-1.07-2.89-1.62-.45-.27-1-.54-1.37-.82l-.89-.83-.45-.41-.64-.43-1.28-.84c-.34-.29-.57-.57-.86-.85l-.41-.42a4.41,4.41,0,0,0-.55-.44l-1.2-.89a6.44,6.44,0,0,1-.8-.88,15.14,15.14,0,0,0-2-1.83c-.52-.63-1-1.23-1.39-1.88-.24-.32-.41-.63-.69-1l-1-1.06a1.86,1.86,0,0,1-.23-.26l-.15-.26-.29-.53c-.19-.34-.38-.7-.56-1.08a6.61,6.61,0,0,0-.62-1.15,12.21,12.21,0,0,1-.79-1.24l-.42-1.27-.36-1.35-.29-1.45c-.15-.55-.38-1.1-.48-1.65s0-1.1,0-1.7a12.26,12.26,0,0,0,0-1.84c0-.33,0-.66,0-1l.26-.93a16.22,16.22,0,0,1,.62-1.86,17.78,17.78,0,0,0,.52-1.9,1.22,1.22,0,0,1,.2-.45l.26-.42.51-.83c.31-.56.53-1.13.81-1.7a3.29,3.29,0,0,1,.21-.42l.31-.35.64-.72c.93-.91,1.38-2,2.27-2.85a34.33,34.33,0,0,0,2.83-2.41l1.3-1.23c.45-.4.92-.78,1.39-1.16s.92-.77,1.4-1.14l1.55-1a69.92,69.92,0,0,1,6.22-3.62l3.06-1.53,1.46-.74.73-.37.36-.18a3.81,3.81,0,0,1,.47-.07l1.9-.22,1-.11.48-.05.35-.16,1.42-.65.7-.32a1.42,1.42,0,0,1,.38-.14h.5l2,0a5,5,0,0,0,1.87-.17l1.64-.49.82-.24c.11-.06.34,0,.51,0l.57,0,2.24.17,1.12.08,1-.14,2.07-.27c.36,0,.66-.1,1.07-.11l1.18-.06a45.94,45.94,0,0,1,4.9-.09l2.63.07c.87.05,1.76-.07,2.64-.1a13,13,0,0,0,3.48-.48c0-.19-1.52-.27-3.28-.15-.89,0-1.78.12-2.67.14l-2.65-.07c-.87,0-1.8-.08-2.61,0l-2.39.12-1.19.06a9.14,9.14,0,0,0-1.12.1l-2.08.28a15.46,15.46,0,0,1-4.4,0l-1.13-.08a.81.81,0,0,0-.48.06l-.41.12-1.63.51-.82.25c-.32,0-.66,0-1,0l-2,0c-.32,0-.68,0-1,0l-.7.33-1.4.68a3.57,3.57,0,0,1-.74.3l-1,.11-1.9.23a3.68,3.68,0,0,0-.92.16l-.72.38-1.45.75-3,1.57c-1,.49-2.07,1.13-3.1,1.71s-2.08,1.23-3.1,1.91a21.41,21.41,0,0,0-3,2.13L617,243c-.46.4-.87.83-1.3,1.24s-.83.84-1.32,1.24l-1.47,1.19-.37.3-.19.15-.13.18-.52.74a14.18,14.18,0,0,1-1.09,1.46l-1.26,1.43-.78,1.71c-.29.57-.66,1.12-1,1.68a1.08,1.08,0,0,0-.18.46l-.12.48-.24,1a12.69,12.69,0,0,0-1,3.76l0,1a8.72,8.72,0,0,1,0,.9,14.47,14.47,0,0,0-.05,1.72c.53,2.34.82,4.16,1.39,5.82a4.13,4.13,0,0,0,.67,1.25l.41.62.27.56c.34.76.71,1.45,1.08,2.16a28.58,28.58,0,0,1,3,3.94,2.08,2.08,0,0,0,.47.47l.54.47a6.12,6.12,0,0,1,1,.92l.72.89a3.63,3.63,0,0,0,.53.44l.6.44a10.5,10.5,0,0,1,1.85,1.74c.62.56,1.75,1.14,2.36,1.7.87,1.12,3.06,2.24,5,3.31a12.64,12.64,0,0,0,2.53,1.11C628.57,289.45,627.94,289.05,626.94,288.52Z"/><path d="M646.29,116.77c-.18.9,0,.9.36,0,.17-.37.37-.89.55-1.42s.38-1.08.5-1.51c.19-.74,0-.77-.35-.06a12.49,12.49,0,0,0-.65,1.5C646.52,115.87,646.37,116.4,646.29,116.77Z"/><path d="M655.6,126.25A35.52,35.52,0,0,0,657,137.84a10.67,10.67,0,0,1,.34,1.95c.18-.29.59.47,1.07,1.93,2.38,7.21,6.17,14.37,10.61,21.64.54.91,1.12,1.82,1.69,2.74l1.74,2.75,1.79,2.78.91,1.41.88,1.34c1.12,1.68,2.38,3.48,3.66,5.3l3.93,5.57a270.4,270.4,0,0,1,15.66,24.36A99.19,99.19,0,0,1,706,224.3a51,51,0,0,1,2.39,9.31A31.51,31.51,0,0,1,708,246.4a10.94,10.94,0,0,1-.62,3.8,15,15,0,0,1-1,2.62,18.13,18.13,0,0,1-1.74,3A26.22,26.22,0,0,1,702,259a36.37,36.37,0,0,1-3.31,2.85,39.47,39.47,0,0,1-3.69,2.19l-.24.13-.17.08-.32.14-.65.27-1.33.54c-.9.36-1.82.71-2.76,1s-1.73.42-2.61.63l-1.33.28-.66.13-.29.06h-.13l-1.09.06a23.56,23.56,0,0,1-6.65-.6c-2.22-.47-4.45-1.09-6.75-1.51a24.39,24.39,0,0,0-7-.35,27.1,27.1,0,0,0-6.9,1.89c-.28.29-.59.57-.9.9s-.64.63-1,1a13.49,13.49,0,0,0-2,2.46,5.11,5.11,0,0,0-.22,2.89,6.71,6.71,0,0,0,1.45,2.83,19,19,0,0,0,5,4,50.33,50.33,0,0,0,11.13,4.61c-.18-.13-.14-.21.17-.21a33.47,33.47,0,0,1,4.35.94l2.49.6a44.25,44.25,0,0,1-6.33-2,5.74,5.74,0,0,1-.73-.34,25.76,25.76,0,0,1-6.74-3.87,6.84,6.84,0,0,1-2.49-3.61,4.28,4.28,0,0,1,1.47-3.83,14.55,14.55,0,0,1,3.37-2.37,19.83,19.83,0,0,1,1.87-.88c.32-.13.65-.21,1-.32a6.54,6.54,0,0,1,1-.26c2.69-.61,5.45-.2,8.21.19a24.17,24.17,0,0,0,4.28.32,14.11,14.11,0,0,0,2.23-.2l1.11-.25.28-.06.8-.22,1.64-.44,1.65-.45a7.57,7.57,0,0,0,.83-.24l.91-.35c1.2-.47,2.4-1,3.59-1.46l.88-.38c.44-.21.94-.48,1.39-.73.93-.51,1.85-1.06,2.74-1.63s1.85-1.41,2.74-2.17c.44-.38.88-.77,1.3-1.17s.83-.89,1.23-1.35a34,34,0,0,0,2.25-2.89c.63-1,1.23-2.05,1.77-3.11a21,21,0,0,0,1.31-3.12,22.53,22.53,0,0,0,.91-3.06c.21-1,.39-1.93.54-2.89a12.25,12.25,0,0,0,.15-1.36l.09-1.29.05-1.29,0-.64,0-.57q0-1.16-.12-2.28c0-.37-.05-.78-.1-1.12l-.14-1-.31-2c-.24-1.28-.53-2.44-.81-3.66s-.64-2.21-1-3.3l-1.08-3.05a98.49,98.49,0,0,0-4.94-10.63,191.23,191.23,0,0,0-11.09-17.85c-3.81-5.52-7.73-10.81-11.4-15.84a10.59,10.59,0,0,1-1.43-2.34c-.12-.46.09-.5.62.2,4.8,6,10,12.26,15,18.77,2.51,3.27,5,6.65,7.42,10.24a115.37,115.37,0,0,1,7.08,11.8,74.6,74.6,0,0,1,3.24,7.18c.26.62.49,1.37.73,2.06s.48,1.38.7,2.16a49.72,49.72,0,0,1,1.18,4.93l.24,1.36c.07.45.15.88.2,1.42.1,1,.19,2.08.25,3.12,0,.49,0,1.13,0,1.72l-.06,1.81c0,.62,0,1.16-.13,1.85s-.2,1.37-.32,2.06-.24,1.37-.39,2.06-.4,1.49-.62,2.23-.51,1.51-.79,2.26c-.14.37-.27.74-.44,1.12l-.56,1.17a34,34,0,0,1-2.67,4.53,38.32,38.32,0,0,1-3.46,4.14,49.3,49.3,0,0,1-3.95,3.39,42.83,42.83,0,0,1-4,2.52l-1,.56-.4.2-.31.14-1.24.55-2.51,1.08a34.36,34.36,0,0,1-4.75,1.59l-2.17.64-.49.19a10.16,10.16,0,0,1-3.72.64,20.17,20.17,0,0,0-3.81.17,5.82,5.82,0,0,0-3,1.65,4.57,4.57,0,0,0-1.56,3,2.9,2.9,0,0,0,.89,2,8.09,8.09,0,0,0,1.84,1.42A23.69,23.69,0,0,0,684,286c1.09.19,2,.4,2.91.62l1.2.36.28.09.14.05.9.53c1.21.72,2.34,1.35,3.72,2.26a85.68,85.68,0,0,1,15.57,12.64,47.22,47.22,0,0,1,3.48,4.12l.42.55a3.58,3.58,0,0,1,.24.34l.26.41,1,1.62A26.18,26.18,0,0,1,716,313a19.06,19.06,0,0,1,1.22,14.4c-.22.56-.42,1.13-.68,1.67s-.58,1.05-.89,1.57a16.42,16.42,0,0,1-2.32,2.74,8,8,0,0,1-1.35,1.18l-1.46,1.06c-.53.3-1.07.58-1.61.86l-.82.4-.88.32c-.59.21-1.18.4-1.78.59a18.78,18.78,0,0,1-1.87.4c-.63.12-1.26.22-1.9.31s-1.3.11-2,.15-1.31.05-2,.05l-1.63-.05-1.62-.06h-.4l-.28,0-.54-.05-17-1.39c-11.33-.91-22.66-1.86-34.12-2.53-5.73-.36-11.48-.72-17.3-.94s-11.65-.5-17.56-.55a420.3,420.3,0,0,0-46.83,1.45l-2.85.25-1.42.14-.29.05-.9.15-1.8.3-3.56.57c-2.37.35-4.73.74-7,1.18s-4.65.83-7,1.28c-3.47,1.06-6.6-.22-7.11-3.08a5.56,5.56,0,0,1,1.92-4.88l-.86.09-1.37-.14a4.67,4.67,0,0,1-3.14-1.66l-1-1.12c-1.34-2.18-3.49-4-4.68-6.43l.2-1-.27-.26a4.52,4.52,0,0,1-1.73-2.51l0-1.21a10.2,10.2,0,0,1,1.11-3.93,3.48,3.48,0,0,1,.17-1.47,5,5,0,0,1-.58-3.89.71.71,0,0,1,.07-1.16,1.17,1.17,0,0,1,.51-.19h0a7.25,7.25,0,0,0-.56-.75c-.37-.1-.58-.18-.58-.18-1-.22-1-.22-1.83-.44a4.72,4.72,0,0,1-1.23-1c-.93-2.2-.94-2.21-.87-3.14a2.15,2.15,0,0,1,.14-.26c-.67-.35-.72-.37-.9-.48a2.16,2.16,0,0,1-.33-.38c-.07-.51-.07-.51-.19-.71a1.76,1.76,0,0,1,0-.38c.33-.55.33-.55.33-.71a.93.93,0,0,1,.19-.26l.66-.23,1,1.37.17-.44.25.61-.15-.55.48.36-.55-.51a5.22,5.22,0,0,0,1.55.27,2.08,2.08,0,0,0,.89,0,1.14,1.14,0,0,1,0-.29c1.18.27,1.18.27,2.34.56a2.93,2.93,0,0,1,.28.36.54.54,0,0,1,.55-.16l.6.12.13-.06v0l.5-.22.1-.06h0c.72-.32,1.44-.64,2.16-.93a8.37,8.37,0,0,1,1,.33l-.29-.26c-.19-.18,0-.61-.14-.66a51.63,51.63,0,0,0-8.08-2.5,1,1,0,0,1-1-.7c-.09-.4.24-.72.75-.73a18.79,18.79,0,0,1,8.93-.91,34.38,34.38,0,0,1,9,2.53c1.48.35,2.94.78,4.41,1.14l-.21-.24,1.14.47.12,0-.85-.86-.6-.31a86.25,86.25,0,0,1-9.94-3.54c-1.82-.66-3.39-1.66-5.15-2.48-.45-.09-.77-.43-.73-.76s.46-.5.9-.41a41,41,0,0,1,8.93,1.4,23.58,23.58,0,0,1,7.9,3.64,6.79,6.79,0,0,1,2.82,1.07l0,0-.62-.7c.76.26,1.16.82,1.85,1.13-.08-.28-.16-.59-.24-.86,1.89.51,3.84.87,5.74,1.36A27,27,0,0,1,555,296l.4.13c.75-.15,1.51-.29,2.3-.37l.6,0h.19l.95.14,1.9.29c2.57.38,5.2.8,7.94,1.26l-5.5-1.08L561,295.8l-2.59-.53,5.8.82,6,.91c4,.72,8.07,1.41,12.27,2.24,5.65,1.23,11.49,2.33,17.16,3.69s11.28,2.57,16.51,3.85c10.47,2.5,19.55,4.88,25.35,6.55,10.77,2.07,21.52,4.08,32.27,5.93,5.37.9,10.74,1.83,16.11,2.62l4,.61,2,.29c.42,0,.84.06,1.25.12a1.87,1.87,0,0,0,.45,0H698c.24,0,.48-.05.72-.06a4.46,4.46,0,0,0,1.39-.41,2.42,2.42,0,0,0,1.41-2.33,5.34,5.34,0,0,0-1-2.68l-.25-.33a2.66,2.66,0,0,0-.34-.43l-1.09-1.21-1.2-1.17c-.41-.39-.87-.76-1.3-1.13a41.72,41.72,0,0,0-5.88-4.08,56.56,56.56,0,0,0-6.59-3.35,11.84,11.84,0,0,0-1.86-.69l-2-.65-6.54-2.09c-.29-.09-.55-.19-.88-.27l-1.11-.17-2.21-.35-4.42-.69c-1.42-.2-3.12-.56-4.71-.86l-4.85-.92-2.42-.46-2.13-.62-4.26-1.24-2.13-.61-1.06-.31c-.36-.11-.61-.21-.91-.31l-3.53-1.24-2.76-1-1.21-.46a6,6,0,0,1-.7-.38c-.8-.47-1.29-.82-1.3-.95s.61.06,1.44.38c.42.16.9.36,1.45.6a11.64,11.64,0,0,0,1.12.4l1.38.48,5,1.71,1.26.42,1.5.43,3,.86,3,.85a26.63,26.63,0,0,0,3.11.78l6.75,1.29c2.32.48,4.3.77,6.36,1.1l3.07.5,1.54.25a2.64,2.64,0,0,1,.67.16l.61.19,8,2.6,1.41.47,1.23.56c.82.38,1.67.73,2.45,1.15s1.61.82,2.38,1.26l2.3,1.34a36.77,36.77,0,0,1,7.91,6.43l.78.87.4.55a8.64,8.64,0,0,1,.65,1.06,5,5,0,0,1,.62,2.36,2.78,2.78,0,0,1-1.07,2.13,4.82,4.82,0,0,1-2.3.87,7.43,7.43,0,0,1-1.25.07,1.91,1.91,0,0,1-.34,0l-.49-.06-1-.07-5.87-.85c-3.91-.55-7.82-1.17-11.73-1.8,3.26.56,6.53,1.14,9.8,1.64l4.91.78,2.46.37c.47.08.67.08,1,.11l.83.1a1.49,1.49,0,0,0,.34,0h.84a8.52,8.52,0,0,0,1.12-.12,4.5,4.5,0,0,0,2.07-.85,3,3,0,0,0,1.12-1.9,4.59,4.59,0,0,0-.27-2.23,8.9,8.9,0,0,0-1.09-2.06c-.14-.18-.22-.33-.39-.54l-.68-.79c-.43-.53-.95-1-1.45-1.54a43.3,43.3,0,0,0-7.05-5.51,61.33,61.33,0,0,0-8.28-4.37c-1.72-.61-2.79-1-5.83-2.05l-1.95-.67-1-.33a5.2,5.2,0,0,0-1.06-.29l-4.87-.9-2.5-.45c-.84-.16-1.79-.37-2.69-.54l-5.45-1.13-1.36-.28c-.45-.09-.82-.23-1.24-.34l-2.43-.71-4.88-1.43c-1.48-.47-2.74-.94-4.11-1.4l-4-1.4-5.28-2.53c-2.11-.93-4.16-1.88-6.06-2.88a11.39,11.39,0,0,1-2.35-1.51c-.69-.51-1.78-1-2.53-1.55l-1-.79c-.17-.13-.3-.26-.5-.39l-.63-.41-1.24-.83-.89-.82-.44-.41-.58-.44-1.16-.88c-.54-.6-1.11-1.16-1.63-1.79-.27-.31-.49-.6-.82-.92l-1-1-.25-.25-.18-.25-.36-.51c-.24-.33-.47-.67-.69-1s-.4-.69-.71-1.09l-.9-1.19-.55-1.21c-.18-.41-.33-.86-.49-1.29s-.28-.92-.42-1.38-.35-1-.53-1.54a2.44,2.44,0,0,1-.13-.8l-.07-.8v-1.71l-.06-.93,0-.47a1.8,1.8,0,0,1,.09-.45,14.81,14.81,0,0,1,.5-1.78,18.18,18.18,0,0,0,.56-1.77c.08-.3.16-.6.25-.9l.49-.79.48-.79.4-.79a4.83,4.83,0,0,1,1-1.5c.4-.44.82-.89,1.2-1.34L614.7,249a5.67,5.67,0,0,1,1.29-1.19c.47-.37,1-.74,1.4-1.12.86-.75,1.67-1.55,2.57-2.25l1.36-1.06a11,11,0,0,1,1.42-1l3-1.84,3-1.6c1-.53,2-.94,3-1.42l2.91-1.33.72-.32a6.15,6.15,0,0,1,.89-.13l1.82-.19.91-.1a4.8,4.8,0,0,0,.73-.25l1.4-.56.7-.28c.28,0,.63,0,.93,0h1.91c.31,0,.64,0,.95,0l.8-.2,1.6-.42.4-.1a.88.88,0,0,1,.45-.06l1.07.08,2.14.15a8,8,0,0,0,2-.13l2-.25a10.73,10.73,0,0,1,1.07-.09l1.14-.06,2.27-.12c1.38,0,2.85,0,4.26,0a17.26,17.26,0,0,0,2.15-.09l2.15-.17c1.4-.16,2.92-.1,4.4-.12h2.22c.24,0,.21-.06.29-.09l.18-.13.36-.25,1.33-1a7.67,7.67,0,0,1,.91-.53l.11-.06.06,0h0c1.35,2.89-3-6.48,3,6.48v0l0,.1a6.74,6.74,0,0,0,.33.74c.13.24.27.49.43.73s.39.51.41.58a3.12,3.12,0,0,0,.56.7l.09.08h0v0l0,0,0,0h0l-.06,0-.28-.18a2,2,0,0,0-.27-.12l-.06,0-.15-.08-.32-.15a6.21,6.21,0,0,0-.64-.23l-.31-.08a3.15,3.15,0,0,1-.38-.1,10.74,10.74,0,0,0-2-.45l-.5,0-.69-.12-1.39-.15c-1-.07-1.7,0-3-.07h-1s-.06-.18-.07-.25a31.23,31.23,0,0,0-1.72-5.34c-1-2.36-2.21-5-3.62-7.67s-3-5.5-4.66-8.36c-3.35-5.74-7.12-11.64-11.19-18.2-1.44-2.34-2.89-4.71-4.43-7.41l-.58-1-.49-.89-1-1.79c-.66-1.21-1.31-2.42-2-3.63-2.59-4.91-5.14-10.07-7.41-15.6a106,106,0,0,1-5.69-17.83A74.37,74.37,0,0,1,628.54,130c.16-1.79.33-3.57.56-5.34s.63-3.55,1-5.31a62.32,62.32,0,0,1,3.33-10.19A70.13,70.13,0,0,1,644,92a83.21,83.21,0,0,1,13.62-12.93,111,111,0,0,1,14.87-9.42c5.33-2.9,10.41-4.77,11.25-4.71S681,67,675.81,69.87c-2.55,1.41-5.1,2.9-7.62,4.53s-5,3.36-7.5,5.26a82.65,82.65,0,0,0-13.9,13.39A68,68,0,0,0,636.2,110.8a59.79,59.79,0,0,0-3.08,10.54c-.3,1.8-.69,3.63-.82,5.44l-.24,2.73c-.09.92-.06,1.81-.08,2.71a75,75,0,0,0,2.67,20.58,114.53,114.53,0,0,0,6.51,17.86c2.51,5.53,5.23,10.71,7.93,15.66l1,1.85,1.17,2.06,2.26,3.81c1.48,2.45,2.94,4.79,4.38,7.11,2.85,4.61,5.64,9.1,8.2,13.55s4.95,8.84,6.89,13a61.24,61.24,0,0,1,2.38,5.94,21.23,21.23,0,0,1,1.1,4.3c0,.23,0,.28,0,.43s0,0,0,0h.27a18,18,0,0,1,2.15.25,15.19,15.19,0,0,1,1.59.23c.26,0,.52.12.79.2l.39.12c.15.05.18,0,.27.07a4.87,4.87,0,0,1,1,.32c.15.06.35.17.47.23l.2.07a2.7,2.7,0,0,1,.43.27c.06,0,0,0,0,0l0,0,0,0,0,0s0,0,0,0l-.14-.13a3.48,3.48,0,0,1-.44-.54c-.08-.11-.07-.14-.19-.31s-.27-.36-.39-.54a6.37,6.37,0,0,1-.58-1.13l-.11-.28c-3.29-7.05-.93-2-1.67-3.52h0l-.06,0-.22.1-.46.21c-.31.15-.58.3-.91.49l-1.23.72-.62.36-.15.09a1.68,1.68,0,0,1-.35,0h-.79l-3.15,0c-2.08,0-4.07.3-6.1.3s-4.09-.12-5.86,0l-1.38,0c-.46,0-.93,0-1.32.06l-2.49.19a12,12,0,0,1-2.59-.11l-1.32-.12-.66-.06a2.29,2.29,0,0,0-.55.07,15.07,15.07,0,0,1-4.38.44l-1.2,0a2.57,2.57,0,0,0-1.1.09l-1.86.56a8.75,8.75,0,0,1-2.19.31l-1.17.09-.58,0-.29,0-.25.09c-1.29.5-2.53.92-3.89,1.49l-2,.81c-.67.28-1.34.63-2,.94s-1.35.61-2,1l-2,1.14a30.6,30.6,0,0,0-3.78,2.51c-1.22.92-2.24,1.91-3.56,2.85s-2.13,2.12-3.24,3.25a7,7,0,0,0-1.47,1.84l-.57,1-.64,1a5.86,5.86,0,0,0-.78,1.94c-.2.67-.48,1.33-.67,2-.51,1.3-.18,2.82-.23,4.05a14,14,0,0,0,.2,1.85c.21.57.47,1.22.63,1.74a19.13,19.13,0,0,0,1.22,3,16.76,16.76,0,0,0,1.82,2.64A26.18,26.18,0,0,0,616,275l1.21,1.11c.38.36.66.68,1,1s.65.66,1,1a7.45,7.45,0,0,0,1.12,1c0-.06.05-.11.17-.1a4.81,4.81,0,0,1,1.17.41c.27.12.57.27.9.44s.7.36,1,.55a26.19,26.19,0,0,1-2.81-2.15c-.4-.36-.8-.73-1.18-1.11s-.75-.76-1.25-1.18a14,14,0,0,1-2.33-2.55c-.35-.45-.64-.88-1.08-1.4l-.61-.74a5.59,5.59,0,0,1-.46-.77,18.85,18.85,0,0,1-1.48-3.34l-.37-1a3.06,3.06,0,0,1-.28-1l-.14-1,0-1.08,0-1.14a3.16,3.16,0,0,1,0-1.15l.27-1.13.39-1.1c.28-.72.45-1.5.8-2.19s.87-1.3,1.24-1.94l.38-.68a2.48,2.48,0,0,1,.43-.64l1.07-1.16c.72-.75,1.26-1.56,2-2.25s1.69-1.28,2.44-1.91,1.5-1.32,2.34-1.88l1.22-.89a9,9,0,0,1,1.27-.84l2.65-1.54c.88-.52,1.8-.88,2.7-1.34.45-.21.9-.44,1.35-.64l1.35-.54c.9-.36,1.81-.74,2.67-1.05l1.3-.48a3.66,3.66,0,0,1,1.41-.35c1-.11,2.14-.15,3.11-.3l2.56-.75c1,0,2.15,0,3.24,0h.41l.35-.06.71-.12,1.42-.25a3.31,3.31,0,0,1,.74-.1l.9.08,1.81.15.9.08a8,8,0,0,0,.86,0l1.71-.14c1.09-.11,2.41-.12,3.67-.16.65,0,1.25,0,1.94,0l2.08,0,2.09,0,2.11-.14c1.4-.11,2.81-.21,4.3-.2l2.19,0h1l.06,0,.45-.25,1.77-1a14.19,14.19,0,0,1,1.36-.66l.17-.07.09,0c2.61,5.61.73,1.57,1.31,2.83v0l0,.05,0,.1a7.37,7.37,0,0,0,.38.81c.27.52.79,1.16.85,1.3a2.55,2.55,0,0,0,.3.39c.1.11.32.3.26.26a.47.47,0,0,0,.1.09,2.12,2.12,0,0,0-.61-.34l-.27-.13a2.83,2.83,0,0,0-.36-.16,5.4,5.4,0,0,0-.71-.24l-.36-.08-.57-.18a9.31,9.31,0,0,0-1.14-.25l-.56-.08-.28,0h-.14l-.2,0-.78-.12-.64-.07c0,.09,0-.24,0-.46s0-.39-.07-.59,0-.19,0-.32l-.07-.39-.13-.81L677,235l-.1-.47-.15-.52-.29-1-.72-2.22A127.24,127.24,0,0,0,670,217.45c-2.2-4.5-4.57-9-7-13.57s-4.93-9.1-7.47-14l-1-1.87-1-1.95-1.7-3.62c-1.14-2.44-2.27-4.92-3.37-7.45-1.57-3.14-3.12-6.32-4.53-9.67-.73-1.64-1.37-3.38-2-5.07s-1.28-3.47-1.82-5.3a86.18,86.18,0,0,1-2.75-11.21l-.41-2.94-.19-1.48-.11-1.51-.2-3v-3.06a56.08,56.08,0,0,1,5.7-23.85A70.83,70.83,0,0,1,655.9,89a12.9,12.9,0,0,1,2.2-1.9c.4-.21,0,.3-.86,1.16a76.08,76.08,0,0,0-9.88,12.33,61.06,61.06,0,0,0-7,15.08,56.44,56.44,0,0,0-2.31,17,68.75,68.75,0,0,0,2.38,16.44,17.84,17.84,0,0,1,0-4.07c.12-1,.35-1.44.7-1.37.75.12,1.72,2.6,3.15,6.2A67.31,67.31,0,0,1,642,135.84a20,20,0,0,1,.12-3.78c.11-1,.26-1.52.42-1.47s.33.64.43,1.58.13,2.23.26,3.61c.52,9.68,3.43,18.76,7,27.18,1.78,4.22,3.75,8.3,5.8,12.28,1,2,2.07,4,3.12,5.9l.79,1.47.84,1.51,1.69,2.95c5.66,9.08,11.41,17.68,16.39,26.61a120.39,120.39,0,0,1,6.6,13.47,53.22,53.22,0,0,1,2.18,6.7,18.33,18.33,0,0,1,.58,6c.15-.48.38-.9.51-1.38s.28-.93.44-1.34a8.19,8.19,0,0,1,.8-2.11h0a46,46,0,0,0-2.54-8.67A149.23,149.23,0,0,0,677,207.17c-3.89-6.28-8-12.46-12.14-18.85-2.06-3.16-4.1-6.6-6-9.87s-3.73-6.7-5.5-10.17-3.37-7.06-4.85-10.75A92.65,92.65,0,0,1,644.91,146a64.89,64.89,0,0,1-1.7-12.26,52.78,52.78,0,0,1,1.08-12.57,50.69,50.69,0,0,1,4.17-11.87A61.18,61.18,0,0,1,655,98.87a85.37,85.37,0,0,1,17.38-16.62,207.77,207.77,0,0,1,19.76-12.52,8.45,8.45,0,0,1,2-1,7.07,7.07,0,0,1-1.65,1.12c-8,4.66-16.12,9.53-23.58,15.56a74,74,0,0,0-18.95,22l0-.07c.46-.66.66-.72.33.1a28.88,28.88,0,0,1-1.42,2.76c-.49.78-.59.65-.34-.06A50.61,50.61,0,0,0,644,137.57a82.65,82.65,0,0,0,7.71,25.82c1.84,4,3.86,7.86,5.95,11.63,1.05,1.87,2.11,3.75,3.19,5.59.52.91,1.08,1.86,1.65,2.81l1.72,2.75c4.6,7.24,9.31,14.15,13.67,21.24-3.87-6.68-8-13.23-12.16-19.94-1-1.69-2.06-3.38-3-5.14s-1.92-3.44-2.87-5.19c-1.89-3.46-3.71-7-5.43-10.6a114.43,114.43,0,0,1-4.66-11.1c-.71-1.89-1.29-3.84-1.89-5.78s-1.06-3.94-1.41-6a52.55,52.55,0,0,1,.64-24.58,50.69,50.69,0,0,1,3.5-10.28,10.49,10.49,0,0,1,1.46-2.28c.24-.18,0,.5-.47,1.42s-.86,1.81-1.25,2.73c2.74-5.6,6.14-9,6.57-8.56.4.69-2.22,5.11-4.67,10.73a44.68,44.68,0,0,0-3.28,11.82,46.73,46.73,0,0,0-.12,12.22,68,68,0,0,0,2.54,12,101.24,101.24,0,0,0,4.36,11.44c.76,1.61,1.56,3.18,2.38,4.75s1.85,3,2.78,4.56a136.55,136.55,0,0,1-7.51-17.39A67.24,67.24,0,0,1,649.69,134a45.94,45.94,0,0,1,2.92-18.09A57.72,57.72,0,0,1,662,100c1.32-1.66,2.67-2.89,2.86-2.77s-.79,1.52-2.08,3.17C656.28,109,651.93,119.13,652,129.5a51.67,51.67,0,0,0,2.35,15.42,95.25,95.25,0,0,0,6,14.89c2.41,4.88,5.13,9.66,8,14.46,1.45,2.45,2.81,4.69,4.33,7l4.61,7c3.12,4.73,6.24,9.52,9.24,14.48A163,163,0,0,1,695,218.34a70.36,70.36,0,0,1,5.24,11.29,37.68,37.68,0,0,1,1.72,6.85,24.39,24.39,0,0,1-.27,8.61,18.81,18.81,0,0,1-5.33,9.28,19.69,19.69,0,0,1-2.08,1.75c-.71.47-1.43.94-2.18,1.37a7.23,7.23,0,0,1-.92.49l-.82.4-1.67.79c-.56.25-1.14.55-1.68.75l-1.62.55-1.63.55-.4.13-.2.07-.12,0-.48.14c-.64.17-1.27.4-1.9.52l-1.87.33,2,0c.67,0,1.33-.16,2-.25a19,19,0,0,0,2.33-.53c.93-.24,1.81-.41,2.75-.73s1.91-.72,2.86-1.09l1.42-.57.18-.08.25-.13.49-.26,1-.53a15,15,0,0,0,1.9-1.2c.63-.48,1.25-1,1.86-1.51a13.3,13.3,0,0,0,1.69-1.74,21.49,21.49,0,0,0,1.51-1.94,20.89,20.89,0,0,0,2.14-4.21c.26-.7.52-1.43.71-2.13s.29-1.34.42-2l.18-1c0-.33.05-.63.08-.94l.11-1.85c0-1.21-.06-2.28-.12-3.42s-.27-2.06-.42-3.09l-.61-2.83a62.63,62.63,0,0,0-3.48-9.82c-1.31-3-2.75-5.8-4.25-8.5s-3-5.27-4.63-7.79c-3.17-5-6.46-9.79-9.76-14.45s-6.66-9.23-9.55-13.61c-3-4.7-6-9.37-8.64-14.16A98.28,98.28,0,0,1,656.3,147a53.7,53.7,0,0,1-3.14-15.76,4.92,4.92,0,0,1,0-1.41,1.7,1.7,0,0,1,.2-.69c.16-.1.24.62.25,1.7a52.21,52.21,0,0,0,3,15.14,90.83,90.83,0,0,0,6.53,14.25c2.57,4.64,5.44,9.19,8.44,13.84l1.12,1.72,1.1,1.63,2.33,3.37,4.92,7a281.66,281.66,0,0,1,15.81,24.49,93.14,93.14,0,0,1,6.51,14.1c.24.63.43,1.35.65,2s.43,1.35.6,2.11l.53,2.21.4,2.4a27.76,27.76,0,0,1-.7,11.65,28.16,28.16,0,0,0,1-11.85,46.12,46.12,0,0,0-2-8.87,88.34,88.34,0,0,0-6.15-14.16A246.78,246.78,0,0,0,683,188.27c-2.53-3.69-5.11-7.33-7.46-10.83l-1.69-2.58-1.75-2.77c-1.15-1.85-2.28-3.69-3.37-5.53-4.37-7.35-8.3-14.77-10.68-22.44a11,11,0,0,1-.54-2,14.33,14.33,0,0,1-.23-1.63,1.47,1.47,0,0,1-.38-.72A38.76,38.76,0,0,1,655,127.48a7.32,7.32,0,0,1,.39-2.26C655.54,124.81,655.62,125.33,655.6,126.25ZM533.07,303l-.15-.16.52.29.72,1.09Zm-9,3.69h0l-.43-.64ZM700.12,324a9.92,9.92,0,0,1-1.71.24h-.86c-.31,0-.79-.09-1.18-.12l-.62-.05-.88-.13-1.76-.26-3.51-.53c-4.68-.69-9.35-1.5-14-2.28-9.32-1.63-18.6-3.37-27.87-5.28L661.33,318c7,1.33,14.07,2.62,21.13,3.82,3.53.63,7,1.16,10.59,1.74l2.66.41,1.82.2A9.84,9.84,0,0,0,700.12,324ZM526.88,298.46a12.39,12.39,0,0,1,2.12,2.17,5.68,5.68,0,0,1,1.7,0c1.55.19,3.06.41,4.54.7-.19-.38.16-.31.34-.33l.56,0-4.79-1.22A44.7,44.7,0,0,1,526.88,298.46Zm-11.17,1-.14-.16.26-.61Zm-.41,1,.23.1C515.46,300.79,515.38,300.7,515.3,300.46Zm2.14.86a1.53,1.53,0,0,0-.31-.34Zm2.28,18.18.64-3.14-.71,3Z"/></svg>