<svg id="Layer_1" data-name="Layer 1" xmlns="http://www.w3.org/2000/svg" viewBox="0 0 1080 724.83"><path d="M570.86,431.51l.63-.07a1.48,1.48,0,0,1-.81.95,12.82,12.82,0,0,0,6.9-4.51,20.53,20.53,0,0,0,3.71-7c1.3-.86,1.84-2.33,1.2-3.31s-2.27-1.07-3.65-.2a5.2,5.2,0,0,1-1.1.3,24.33,24.33,0,0,0-9.32,2.18l2.18-.41a9.81,9.81,0,0,0-2.61,1.35l.75.25c-3.54.86-6.37,4.17-6.09,7.21s3.37,4.61,6.69,3.65Z"/><path d="M580,432.74c-1.8.57-3.6,1.08-5.42,1.62l-.54-.06,1.49,1.2-.07-.1c-.11-2.13,1.25-4.31,2.69-6.16l.44-.74a1.46,1.46,0,0,0-.13-1.2,1.84,1.84,0,0,0-2.59-.25l-1.08.73c-3.12,1.3-6.81,4.75-5.49,8.1.31.76,1.27,1.14,2,1.65a2.67,2.67,0,0,0,3.63-.18,2.47,2.47,0,0,0,.47-3.46l.75-.35c0,.24-.07.48-.11.72-.5-1,.32-2.15.67-3.25l.93-1.25-2.75-1.43-.33.82.36.1a34.6,34.6,0,0,1-1.87,4.66l-.69,2.21a1.27,1.27,0,0,0,1.52,1.18l1.13-.23-.58,0c2-1.06,3.87-2.34,5.89-3.27a.71.71,0,0,0,.46-.8A.56.56,0,0,0,580,432.74Z"/><path d="M574.91,438.18a1.75,1.75,0,0,0-1.11.56c0,.17,0,.26,0,.31l.85-.15C575.29,438.8,575.25,438.44,574.91,438.18Z"/><path d="M573.83,439.05l-.35.06.34,0,0,0Z"/><path d="M757.91,562.67a105,105,0,0,1,7,21.55,122,122,0,0,1,2.63,21.68,110.58,110.58,0,0,1-1.43,22.25,86,86,0,0,1-7.21,22.9l-.67,1.43-.8,1.43-1.63,2.83-.83,1.4-.91,1.34c-.62.89-1.21,1.78-1.86,2.65a69.78,69.78,0,0,1-8.89,9.74,63.28,63.28,0,0,1-23.12,13.26,66,66,0,0,1-13,2.73c-1.09.1-2.19.2-3.28.28l-3.29.09c-2.13,0-4.22-.07-6.27-.24a94.61,94.61,0,0,1-22.49-4.83,12.5,12.5,0,0,0-3.49-.9,8,8,0,0,0,2.87,1.3,96.23,96.23,0,0,0,22.54,5c1,.07,2.07.16,3.11.21l3.17.08c2.19,0,4.42-.09,6.62-.32a66.45,66.45,0,0,0,13.09-2.62,63.88,63.88,0,0,0,23.42-13.13,66,66,0,0,0,9-9.74c.7-.85,1.29-1.75,1.91-2.64s1.26-1.76,1.79-2.73l1.65-2.84c.52-1,1.13-1.92,1.54-2.87a84.89,84.89,0,0,0,7.43-23,111.14,111.14,0,0,0,1.58-22.35,122.77,122.77,0,0,0-2.5-21.77,106.86,106.86,0,0,0-6.84-21.63,18.68,18.68,0,0,0-2.15-3.77C756.47,559.38,757,560.82,757.91,562.67Z"/><path d="M475.4,607.91c1.07-.33,1-.46-.15-.3a21.56,21.56,0,0,0-3.77.88c-.88.34-.8.48.17.29C472.78,608.55,474.51,608.21,475.4,607.91Z"/><path d="M483.72,595.84l2.59-.53,2.59-.37,5.06-.75,4.91-.47,2.37-.24,2.32-.12a33.78,33.78,0,0,1,3.38,0c-.41-.21,1-.49,3.59-.36l4.85.17,4.87.44c1.63.11,3.24.42,4.87.64l2.44.36c.85.16,1.77.38,2.66.57,3.44.82,6.39,1.68,9.44,2.58s6,1.84,9,2.78c12,3.79,23.86,7.89,35.83,12.15s23.94,8.66,35.9,13.21,23.92,9.17,35.8,13.94a6.73,6.73,0,0,1,2.23.28,62.52,62.52,0,0,1,7.26,2.32c2.88,1.08,6,2.37,9.16,3.65,1.55.68,3.09,1.31,4.61,1.91,2.31.87,4.58,1.66,6.81,2.32a65.21,65.21,0,0,0,6.51,1.57,42.18,42.18,0,0,0,6.16.68c1,.07,1.93,0,2.86,0s1.86-.13,2.78-.28a29,29,0,0,0,18.77-10.79c.45-.64.81-1.41,1.26-2.14s.73-1.56,1.16-2.35a22.53,22.53,0,0,0,1.15-2.6c.19-.45.39-.91.58-1.37s.34-1,.5-1.52c4-13.89,2.68-31.86-2.63-46.71.16,1,.1,1.63-.14,1.69s-.85-.92-1.47-2.22c-.31-.66-.62-1.45-1-2.23s-.72-1.73-1.12-2.57-.78-1.71-1.22-2.49-.83-1.59-1.31-2.3c.34.5.58,1.13.89,1.68a16.68,16.68,0,0,1,.84,1.75l.81,1.83.74,2,.37,1c.12.35.22.71.32,1.07l.65,2.12c.38,1.46.75,2.93,1.07,4.42.18.88.32,1.69.43,2.43a87,87,0,0,1,1.66,20.54c-.34,7.44-1.72,14.55-4.21,19.89a13,13,0,0,1-.95,1.9,15.88,15.88,0,0,1-1,1.83l-.57.9c-.19.29-.41.55-.61.83s-.4.57-.62.84l-.66.77a27.54,27.54,0,0,1-2.79,2.82,26.48,26.48,0,0,1-6.61,4.06c-.63.21-1.21.52-1.86.68l-1,.31-1,.25a28.92,28.92,0,0,1-8.42.75,54.63,54.63,0,0,1-10.06-1.58,115.1,115.1,0,0,1-11.15-3.47c-3.9-1.4-7.78-3-12.09-4.68s-8.43-3.35-12.63-5c-8.4-3.29-16.82-6.43-25.22-9.53s-16.79-6.13-25.19-9.1-16.81-5.85-25.24-8.69A28.42,28.42,0,0,1,571.3,606c-.6-.36-.42-.48.83-.1l31.4,9.64c10.26,3.22,20.44,6.42,30.76,9.78s20.77,6.94,31.64,10.87c2.77,1,5.3,1.91,7.85,2.79s5,1.67,7.43,2.38a66.83,66.83,0,0,0,13.42,2.76c.6.07,1.18.09,1.75.11s1.12,0,1.66,0,1.06-.06,1.58-.07.92-.12,1.38-.16a19.38,19.38,0,0,0,12.64-7.29c.25-.35.53-.65.76-1s.48-.72.73-1.09.44-.8.67-1.18.35-.81.55-1.19a22.76,22.76,0,0,0,1.07-2.59,9.88,9.88,0,0,0,.47-1.48c.15-.51.31-1,.47-1.53a59.64,59.64,0,0,0,1.55-14.94,77.73,77.73,0,0,0-2-16.37,68.47,68.47,0,0,0-2.28-7.61l-.66-1.77-.73-1.63-.35-.82-.37-.68-.72-1.37c-.52-.79-.95-1.68-1.49-2.35s-1-1.39-1.5-2.07a9,9,0,0,1-.79-1c-.28-.31-.59-.6-.87-.92s-.63-.61-.93-.93a8.77,8.77,0,0,0-1-1l-.54-.5c-.18-.16-.41-.32-.61-.49-.43-.33-.8-.68-1.32-1s-.91-.71-1.46-1.07l-1.63-1.09c-2.29-1.51-5.09-3.09-8.22-4.85l-1.22-.71-1.29-.74L688.6,562l-1.05-.63-2-1.24L683.46,559c-2.78-1.53-5.62-3-8.59-4.34a104,104,0,0,0-19.43-6.46c-1.79-.42-3.61-.82-5.53-1.21l-6-1.14c-2.08-.39-4.36-.85-6.84-1.4-.66-.16-1.24-.28-1.94-.47l-1.06-.29-.61-.16-.16,0s-.09-.13-.13-.19a.3.3,0,0,0-.07-.11l-.08,0-.16,0c-.86-.27-1.73-.52-2.58-.81s-1.66-.68-2.46-1.06-1.54-.87-2.35-1.24l-1.21-.56a2.89,2.89,0,0,1-.58-.3l-.5-.44-1-.88c-.32-.31-.61-.64-.91-1a19,19,0,0,1-1.68-2c-.52-.71-1.09-1.32-1.64-2l-.21-.25c-.05-.09-.09-.19-.14-.29l-.27-.6-.56-1.19c-.33-.81-.59-1.64-.89-2.46-.15-.41-.3-.83-.41-1.25l-.17-.62c0-.22-.06-.46-.09-.68-.1-.92-.2-1.83-.27-2.72l-.12-1.36a6.82,6.82,0,0,1-.06-1.36l.13-2.79a4.1,4.1,0,0,1,.28-1.39l.41-1.39c.59-1.87,1-3.63,1.48-5.45,0-.23.4-.38.43-.59l.23-.59.21-.49.18-.43c.24-.57.49-1.14.76-1.68a58.21,58.21,0,0,1,7.65-12c.72-.92,1.57-1.81,2.37-2.7s1.7-1.76,2.7-2.61a30.57,30.57,0,0,1,3.14-2.47,26.88,26.88,0,0,1,3.59-2.16l.93-.5,1-.41,2-.8c.67-.26,1.38-.39,2.06-.59a20.43,20.43,0,0,1,2.06-.49c1.34-.22,2.73-.48,4-.55.62-.05,1.3-.14,1.87-.16l1.74-.11,1.62-.1c.5,0,1.07-.08,1.53-.13a23.54,23.54,0,0,0,2.59-.38,7.49,7.49,0,0,0,1.09-.29l.89-.34a2.71,2.71,0,0,0,.7-.43c.19-.16.45-.24.56-.43a3.53,3.53,0,0,0,.63-1l.2-.47.17-.59c.11-.27.24-.84.36-1.25s.27-.95.41-1.45a57.12,57.12,0,0,0,1.46-7.28,21.49,21.49,0,0,0-.08-7.14,10,10,0,0,0-.91-2.61,7.8,7.8,0,0,0-1.29-1.73,14.13,14.13,0,0,0-2.27-1.79,25.85,25.85,0,0,0-3.18-1.74,40.75,40.75,0,0,0-9.14-2.94,23.29,23.29,0,0,0-4.78-.55,14.29,14.29,0,0,0-3.08.56,21.92,21.92,0,0,0-2.79,1.2,31.89,31.89,0,0,0-2.92,1.76c-.24.15-.52.38-.77.55s-.52.36-.79.58l-.81.61-.13.13-.36.38c-.24.24-.48.47-.73.74l-.74.77-.75.8c-1,1.08-2.06,2.17-3.12,3.38s-2.14,2.44-3.22,3.8c-1.32,2.31-4.46,2.43-7.17.1A7.91,7.91,0,0,1,614.4,457l-.52.52-1.07.57a4.54,4.54,0,0,1-3.53.23l-1.64-.43c-2.81-1.17-5.86-1.39-8.81-2.7l-.71-1-.41-.05a6,6,0,0,1-3.38-.95l-1-1a13.34,13.34,0,0,1-2.54-4,4.85,4.85,0,0,1-1.12-1.36,6.74,6.74,0,0,1-3.73-2.84.94.94,0,0,1-.94-1,1.08,1.08,0,0,1,.22-.53h0a8.2,8.2,0,0,0-1.05-.2l-.58.29-1.69,1.06a5.22,5.22,0,0,1-1.75.12c-2.54-1.05-2.55-1-3.3-1.86a2.19,2.19,0,0,1-.12-.33c-.77.28-.82.29-1,.36a2.47,2.47,0,0,1-.55,0c-.48-.37-.48-.37-.73-.42a2.55,2.55,0,0,1-.37-.26c-.24-.72-.24-.72-.38-.85a1.78,1.78,0,0,1-.09-.38l.27-.74,1.87.28-.25-.51.7.3-.58-.33.65-.11-.83.05a5.37,5.37,0,0,0,1.34-1.07,2,2,0,0,0,.63-.76,1.69,1.69,0,0,1-.29-.2c1.11-.74,1.11-.74,2.21-1.43a3.74,3.74,0,0,1,.52.09.57.57,0,0,1,.28-.58l.56-.37c0-.06,0-.11,0-.16l0,0,.19-.59,0-.13h0c.14-.4.32-1,.89-2.52a7.76,7.76,0,0,1,1-.52h-.44c-.3,0-.54-.52-.66-.49a38.58,38.58,0,0,0-8.23,4.49,1.09,1.09,0,0,1-1.36.32.81.81,0,0,1-.08-1.25c2.2-6.45,8.74-11.31,15.56-13.38,1.58-.79,3.15-1.61,4.77-2.39l-.37-.07,1.38-.43.13-.07-1.44-.19-.77.17c-3.65,2-7.61,3-11.4,4.72-2,.93-4.12,1.4-6.18,2.21a.89.89,0,0,1-1.22,0,.86.86,0,0,1,.37-1.13,34.92,34.92,0,0,1,8.49-6.45,24.34,24.34,0,0,1,10-3,7.55,7.55,0,0,1,3.51-1.12l.06,0-1.13-.24c.93-.33,1.76-.05,2.66-.26l-.88-.72c1.12-.45,2.24-1,3.38-1.44s2.28-1,3.44-1.45a24.65,24.65,0,0,1,7.18-1.79,4.82,4.82,0,0,1,.52-.11,20.57,20.57,0,0,1,2.45-1.92l.69-.43.09-.05,0,0h0l.09,0c.54-.21,1.11-.38,1.67-.57,1.13-.36,2.25-.73,3.45-1A66.13,66.13,0,0,1,633.89,400,67.63,67.63,0,0,0,623,401c-1.78.29-3.48.69-5.2,1.1-.87.19-1.69.45-2.53.68l-1.27.36c-.21.06-.42.11-.63.18l-.25.08h0l0,0,.29-.11.66-.23,1.34-.44c.89-.29,1.77-.59,2.71-.83l2.76-.74,2.85-.62a65.35,65.35,0,0,1,11.94-1.29,59.3,59.3,0,0,1,12.46,1.11,63.34,63.34,0,0,1,6.18,1.53c2,.69,4.08,1.38,5.82,2.16a78.21,78.21,0,0,1,13.55,7.59,68.34,68.34,0,0,1,12.19,10.76,50.79,50.79,0,0,1,9.23,14.77,42.78,42.78,0,0,1,3.08,16.9,47.09,47.09,0,0,1-2.64,14.39,47.9,47.9,0,0,1-5.49,11.23,41.9,41.9,0,0,1-7.34,8.35c-.64.58-1.39,1.11-2,1.62s-1.46,1-2.16,1.43a20.56,20.56,0,0,1-2.12,1.24c-.75.35-1.48.68-2.18,1l-.93.45-1,.35c-.67.23-1.34.45-2,.65a15.7,15.7,0,0,1-2,.42c-.68.1-1.37.25-2,.28a30.27,30.27,0,0,1-3.79.05c-.59,0-1.21-.06-1.77-.12l-1.63-.2c-.56-.06-1.06-.13-1.55-.21l-1.47-.23c-.88-.13-1.85-.28-2.65-.36l-1.23-.12c-.41,0-.76,0-1.14,0a14.33,14.33,0,0,0-2.12.12c-2.65.3-4.66,1.76-6.64,3.84a30.42,30.42,0,0,0-5,7.91c-.36.72-.63,1.49-.93,2.23s-.53,1.5-.74,2.25a21.12,21.12,0,0,0-.56,2.25c0,.08,0,.2-.06.26l-.06.16c0,.11,0,.18-.06.26l-.12.5a6.59,6.59,0,0,0,.14,4,2.89,2.89,0,0,0,1.38,1.42,3.83,3.83,0,0,0,.94.37,3.88,3.88,0,0,0,.49.11,2.18,2.18,0,0,0,.6.07c1.29,0,2.83-.12,4.54-.32l5.34-.61a182.39,182.39,0,0,1,24.26-1.75,117.08,117.08,0,0,1,12.89.76c2.16.23,4.32.55,6.49.9s4.31.81,6.44,1.33,4.26,1.06,6.39,1.65c1.87.52,3.68,1,5.63,1.64a120,120,0,0,1,12.16,4.37,75.52,75.52,0,0,1,13,7.1A68.2,68.2,0,0,1,747.4,545.5a49,49,0,0,1,3.65,4.76,13.33,13.33,0,0,1,1.51,2.86c0,.27-.47-.16-1.26-1.09-.39-.46-.86-1-1.4-1.74L748,548a66.47,66.47,0,0,0-8.11-8.07c-1.47-1.18-3-2.33-4.49-3.39s-3.06-2.08-4.61-2.93l-2.32-1.33-2.31-1.17c-1.56-.81-3.06-1.42-4.59-2.11-3-1.24-6-2.35-8.81-3.24l-2.12-.68-2.06-.62c-1.39-.42-2.68-.78-4-1.15L700,522.08,695.44,521a118.09,118.09,0,0,0-18.51-2.37,140.12,140.12,0,0,0-18,.36c-5.82.45-11.48,1.22-16.44,1.66-.62.06-1.22.11-1.79.14s-1.13.06-1.67.08c-.28,0-.53,0-.76,0a5,5,0,0,1-.6,0c-.28-.09-.58-.09-.85-.2a3.91,3.91,0,0,1-2.7-2,4.07,4.07,0,0,1-.44-1.69,3.07,3.07,0,0,1-.07-.86,6.33,6.33,0,0,1,0-.87,10.23,10.23,0,0,1,.31-1.74c.07-.31.12-.48.26-1a15,15,0,0,1,.42-1.66,13.62,13.62,0,0,0-.38,1.39c-.09.52-.23.79-.26,1a14.76,14.76,0,0,0-.35,1.46,9.3,9.3,0,0,0-.15,1.5v.37l0,.37a1.68,1.68,0,0,1,0,.39c0,.13,0,.24.07.37a3.83,3.83,0,0,0,1.51,2.54,6.29,6.29,0,0,0,.64.41c.25.08.46.22.71.28a4.76,4.76,0,0,0,.74.2l.37.1c.15,0,.26,0,.48,0a56.72,56.72,0,0,0,5.84-.24l6.74-.58c4.66-.43,9.59-.77,14.6-.85A116.74,116.74,0,0,1,696,523c1.27.34,2.57.65,3.83,1l3.77,1.15c2.24.7,4.52,1.45,6.89,2.26a103.43,103.43,0,0,1,14.87,6.38,66.43,66.43,0,0,1,15.29,10.89A58,58,0,0,1,752,559.9c1,1.71,1.74,3.44,2.59,5.17s1.43,3.4,2.14,5.11,1.19,3.4,1.78,5.1,1,3.4,1.49,5.09a116.93,116.93,0,0,1,3.52,20.47c1.09,13.71.21,27.78-4.91,42.15-.33.9-.61,1.79-1,2.69l-1.19,2.68c-.4.89-.8,1.78-1.22,2.66l-1.47,2.65-1.51,2.63-1.67,2.49c-.55.84-1.16,1.64-1.78,2.44s-1.22,1.62-1.9,2.38a64,64,0,0,1-8.85,8.64A60.15,60.15,0,0,1,727.4,679a62.23,62.23,0,0,1-24.17,6.47c-1,0-2.1.1-3.14.12l-3,0c-2-.08-4-.21-5.94-.43a90.31,90.31,0,0,1-11.29-2,130.3,130.3,0,0,1-17-5.45c-5.17-2-10.05-4.18-14.47-6.06-9-3.91-18-7.58-26.93-11.33s-17.93-7.4-27.07-11.06-18.41-7.41-28-11.15l-20-7.71-9.77-3.68-4.82-1.76-4.7-1.64-2.18-.71c-.69-.22-1.57-.53-2-.62l-.73-.22a6.08,6.08,0,0,0-.83-.23l-2.13-.45-2.14-.46-2.14-.33c-1.44-.22-2.86-.5-4.31-.6s-2.87-.34-4.32-.41l-4.35-.18c-1.45-.05-2.92,0-4.38,0l-2.19,0-2.2.17a117.78,117.78,0,0,0-17.74,2.56L471.09,623c-1.49.37-3,.7-4.47,1.21l-4.46,1.4c-.74.25-1.5.44-2.24.72l-2.22.85c-3,1.13-6,2.12-8.93,3.49s-6,2.49-8.9,4c-6,2.76-11.84,6-17.79,9.39-3.1,1.89-6.15,3.65-8.58,4.92a25.49,25.49,0,0,1-4.61,2.31c-.51.06.29-.74,2-2.08.43-.33.9-.71,1.43-1.09l1.77-1.18c1.27-.84,2.71-1.77,4.27-2.74A225,225,0,0,1,455.92,625a144.39,144.39,0,0,1,19.45-6.13A123.82,123.82,0,0,1,495,616a103.29,103.29,0,0,1,19.36.81c1.59.27,3.19.42,4.77.8l2.36.49c.38.08.83.16,1.16.25l.88.26.88.25,1.17.38,2.39.77,5,1.75c6.83,2.44,13.76,5.08,20.69,7.76s13.89,5.38,20.84,8.16c13.89,5.56,27.82,11.19,41.73,17l20.87,8.81,10.43,4.5,10.63,4.63a139.73,139.73,0,0,0,24.37,8.34,80.35,80.35,0,0,0,14.19,2c1.25,0,2.49.06,3.75.05s2.58-.06,3.87-.18a59.75,59.75,0,0,0,22.51-6.28,58.48,58.48,0,0,0,12.95-9,61,61,0,0,0,10-11.91c.72-1.06,1.33-2.22,2-3.34s1.32-2.26,1.81-3.41a66.53,66.53,0,0,0,2.9-6.93,88.83,88.83,0,0,0,4.89-23.82,113.4,113.4,0,0,0-.71-23c-.08.21-.17.4-.28.42-.46.06-1-1.33-1.74-3.65a109.11,109.11,0,0,1,1.09,25.77,86.52,86.52,0,0,1-6,26.3l-2,4.58c-.7,1.52-1.58,3-2.38,4.5s-1.79,2.89-2.7,4.32-2,2.77-3.12,4.09a61.13,61.13,0,0,1-7.34,7.41,59.43,59.43,0,0,1-8.69,6,58,58,0,0,1-20,6.73,64,64,0,0,1-10.46.57,80.57,80.57,0,0,1-10-1c-12.94-2.2-24-7-34.2-11.55L622.63,656,582,637.81c-13.16-5.88-26.1-11.58-39.18-17.09-4.2-1.56-8.4-3.08-12.52-4.49-1.06-.38-2-.65-3-1l-1.5-.48-1.24-.35c-.43-.11-.78-.24-1.28-.34l-1.5-.3-3-.62a101.84,101.84,0,0,0-24.5-1.29c-2.07.2-4.13.34-6.19.57l-6.19.93c-4.1.85-8.23,1.65-12.31,2.87l-3.07.84c-1,.3-2,.67-3,1-2,.7-4.06,1.34-6.08,2.08-4,1.66-8.06,3.09-12,5a19.49,19.49,0,0,1-3.11,1.26c-.5.11.13-.3,1.4-.92a154,154,0,0,1,33.78-12.38c1.46-.32,2.92-.72,4.39-1l4.43-.73c.73-.12,1.47-.26,2.21-.36l2.23-.23,4.46-.46a115.91,115.91,0,0,1,17.87.27c-3.7-.79-5.94-1.59-5.6-2.13.16-.32,1-.51,2.37-.65.68-.07,1.51-.12,2.45-.15.46,0,1,0,1.49,0l1.65.09c-.69-.1-1.38-.23-2.08-.3l-2.08-.2c-1.39-.12-2.78-.31-4.18-.37-2.8-.08-5.59-.29-8.4-.14-1.74,0-3.29,0-4.4,0s-1.79-.07-1.75-.22.72-.37,1.84-.57a36.87,36.87,0,0,1,4.31-.29c2.89-.16,5.78.06,8.66.12,1.44.08,2.87.26,4.31.38l2.15.2,2.13.33c1.42.23,2.86.39,4.26.69l4.23.87c.71.15,1.3.36,2,.53l1,.27,1,.34c1.38.46,2.75.88,4.15,1.39,11.2,3.94,22.42,8.37,33.58,12.8Q606.5,639.08,646.38,656c-3.48-2-6-3.77-7-5h0L627,645.8q-28.54-11.26-57.56-22.24c-9.67-3.62-19.37-7.25-29.11-10.68l-3.66-1.28-3.64-1.22c-1.22-.42-2.43-.79-3.63-1.16l-1.8-.56-1.71-.46c-1.08-.33-2.36-.53-3.58-.77s-2.44-.52-3.68-.67c-2.48-.32-4.94-.74-7.44-.87a113.25,113.25,0,0,0-30,1.53,148.41,148.41,0,0,0-29.2,8.76l-3.55,1.47-1.78.73-1.74.84-7,3.33c-2.3,1.18-4.55,2.45-6.83,3.67l-3.41,1.84-3.33,2-6.66,4-6.5,4.34c-4.39,2.81-8.52,6-12.77,9.07a13.28,13.28,0,0,1-2.55,1.65,10.45,10.45,0,0,1,2.09-1.74l7.64-5.6c1.25-1,2.59-1.8,3.89-2.69l3.93-2.63,3.92-2.63,4-2.44,4-2.45,2-1.22,2.07-1.13a184.17,184.17,0,0,1,34-15.21l-.1,0c-1,.25-1.19.18-.18-.27a22.06,22.06,0,0,1,3.71-1.11c1.13-.23,1.07-.06.2.27A126.37,126.37,0,0,1,500.86,605a108.55,108.55,0,0,1,16.91,1.14c.69.11,1.4.18,2.09.3l2.08.4,2.08.4c.34.07.7.13,1,.21l1,.25c.65.18,1.26.32,1.94.53l2,.63c1.36.41,2.73.87,4.1,1.33,11,3.69,21.93,7.79,32.83,11.84s21.72,8.23,32.52,12.39c-19.92-8.07-39.91-16-60-23.4-2.51-.93-5-1.78-7.55-2.65l-3.75-1.21c-.62-.19-1.21-.34-1.82-.52s-1.2-.34-1.85-.45l-3.85-.78c-1.28-.29-2.58-.41-3.87-.62-2.58-.45-5.19-.62-7.8-.87a115.35,115.35,0,0,0-31.32,2.16l-3.34.87c-1.11.31-2.23.54-3.32.93L464.34,610a28.21,28.21,0,0,1-3.31,1c-.37,0,.46-.41,1.69-.87s2.45-.83,3.68-1.24c-7.68,2.25-13.63,4.1-13.74,3.49.08-.39,1.66-1.43,4.29-2.55,1.31-.58,2.86-1.23,4.59-1.91l1.32-.51,1.41-.44,3-.89a125.81,125.81,0,0,1,33.4-5.44c1.41-.06,2.82,0,4.24,0s2.83,0,4.24.14l4.22.34c1.42.08,2.81.35,4.21.52,2.82.31,5.58.94,8.36,1.45,2.76.69,5.45,1.55,8.13,2.44,2.33.75,4.66,1.48,7,2.27s4.71,1.42,7,2.16c-2-.78-4.11-1.56-6.17-2.3s-4.12-1.52-6.2-2.23-4.17-1.42-6.27-2.1c-1.06-.33-2.16-.61-3.23-.91l-3.25-.67a109.22,109.22,0,0,0-26.39-2,131.68,131.68,0,0,0-26.14,3.95l-6.35,1.83-1.59.45-1.56.55-3.11,1.1c-4.19,1.37-8.19,3.18-12.24,4.87-1.4.56-2.64,1.2-3.59,1.58a4.3,4.3,0,0,1-1.66.52c-.15-.14,1.91-1.49,4.68-2.75l5.31-2.41,2.66-1.2c.9-.37,1.82-.71,2.73-1.06l5.47-2.1c1.83-.7,3.72-1.22,5.58-1.84,3.71-1.28,7.56-2.12,11.38-3.1,1.93-.44,3.88-.75,5.82-1.12,1-.18,1.94-.38,2.92-.53l2.95-.36c3.93-.57,7.91-.76,11.89-1l6,0c2,.07,4,.24,6,.35a114,114,0,0,1,11.91,1.63,31,31,0,0,1,3,.67c.51.13,1,.25,1.53.39l1.43.42,2.87.85,2.8.9c14.89,4.87,29.47,10.25,44.07,15.74s29.12,11.2,43.61,17c9.75,3.29,19.47,6.69,29.25,10.16,4.88,1.73,9.84,3.55,14.56,5.18a142.31,142.31,0,0,0,14,4.11c-2.26-.72-4.56-1.53-6.89-2.4-3.71-1.39-7.43-2.93-11.18-4.53l-11.46-4.82q-11.41-4.71-22.61-9c-14.95-5.77-29.64-11.17-44.36-16.35s-29.37-10.24-44.48-15c-3.79-1.2-7.61-2.37-11.61-3.47l-3.24-.76-3.08-.51c-1-.16-2-.35-3.08-.49l-3.12-.35a120.46,120.46,0,0,0-25.26-.08,13.42,13.42,0,0,1-3.35.16c-.19-.11.95-.36,2.67-.55a122.6,122.6,0,0,1,24.66-.28l3,.33c1,.1,2,.21,3,.39l3,.48,1.5.24c.51.1,1,.24,1.58.36,4.25,1,7.8,2.12,11.58,3.24,14.79,4.61,29.29,9.53,44.33,14.89,12.46,4.43,24.56,8.87,36.43,13.29s23.52,8.81,35,13.2q-17.4-7.32-34.68-14t-34.59-12.94c-11.54-4.18-23.1-8.28-34.82-12.21-5.86-2-11.74-3.9-17.88-5.73-1.57-.44-3.06-.9-4.9-1.32l-1.31-.31c-.45-.11-.83-.15-1.24-.22l-2.44-.42-2.44-.41-2.46-.29c-1.64-.16-3.28-.42-4.93-.51-2.3-.1-4.62-.34-6.08-.55a4.75,4.75,0,0,1-1.31.16l-5,.2c-1.71.11-3.44.3-5.2.45l-2.64.24-2.65.39c-1.77.27-3.57.5-5.35.8a24.34,24.34,0,0,1-3.83.54C481.4,596.45,482.2,596.18,483.72,595.84ZM593.94,429.46l-.26,0,.67-.1,1.47.53Zm-4,10h0l-.86-.25Zm55.06,82c-1.55.12-3.11.25-4.5.29a14.57,14.57,0,0,1-3.5-.11,6.56,6.56,0,0,1-2.18-.87,4,4,0,0,1-1.47-1.8,8.24,8.24,0,0,1-.22-4.64c.07-.38.18-.76.28-1.13a4.69,4.69,0,0,1,.17-.6c.08-.27.16-.65.23-1,.18-.67.41-1.34.6-2l.74-2a36.72,36.72,0,0,1,4.1-7.49,18.39,18.39,0,0,1,5.49-5.38,12.08,12.08,0,0,1,7.1-1.45c2.79.14,6,.93,10,1.2-3.89-.22-7-.94-9.78-1.08a12.18,12.18,0,0,0-6.92,1.31,13,13,0,0,0-2.18,1.6l-1.05.93-1,1.1a32.7,32.7,0,0,0-3.56,5.23,36.75,36.75,0,0,0-2.62,5.89,29.1,29.1,0,0,0-.87,3c-.14.42-.18.63-.26.92a7.75,7.75,0,0,0-.21.83,9.58,9.58,0,0,0-.18,3.42,4.27,4.27,0,0,0,1.69,2.95,5.29,5.29,0,0,0,1.57.75,8.06,8.06,0,0,0,.84.24,4.79,4.79,0,0,0,.48.08l.68,0C640.39,521.79,642.66,521.67,645,521.5ZM585.27,430a12.51,12.51,0,0,1,3.47.32,5,5,0,0,1,1.32-1.32,37.85,37.85,0,0,1,4.33-2.69c-.47-.24-.11-.43,0-.59l.43-.46-5,2.4C588.34,428.37,586.83,429.35,585.27,430Zm-7.63,9.73-.25,0-.33-.72Zm.59,1.2.25-.11C578.63,441,578.5,441,578.23,440.9Zm2.29-1a2.21,2.21,0,0,0-.53,0Zm17.08,13.62-2.2-3.08,2.05,3Z"/><path d="M321,521.75l.59,0c-.08.35-.4.6-.85.8a10.52,10.52,0,0,0,6.83-3.4,16.29,16.29,0,0,0,3.93-6.42,2.46,2.46,0,0,0,1.2-3.17,2.39,2.39,0,0,0-3.33-.65,3.86,3.86,0,0,1-1,.14,22,22,0,0,0-8.7.8l2-.07a7.19,7.19,0,0,0-2.48.94l.66.35c-3.27.37-6.11,3.16-6.16,6.12s2.63,5,5.84,4.65Z"/><path d="M329.35,524.32c-1.73.32-3.47.56-5.24.8l-.51-.15,1.28,1.41-.05-.11c.13-2.09,1.61-4,3.09-5.69l.47-.65a1.45,1.45,0,0,0,0-1.19,1.77,1.77,0,0,0-2.41-.66c-.36.18-.71.39-1.06.58-3,.87-6.74,3.62-5.93,7.05.2.79,1.06,1.31,1.69,1.93a2.52,2.52,0,0,0,3.44.44,2.38,2.38,0,0,0,.82-3.29l.74-.24c-.05.23-.11.46-.17.7-.36-1.1.52-2.07.93-3.11l1-1.11-2.44-1.8-.37.76.32.15a26.6,26.6,0,0,1-2.18,4.29l-.9,2a1.3,1.3,0,0,0,1.3,1.4l1.09,0-.55-.06c2-.7,3.92-1.67,5.9-2.3a.66.66,0,0,0,.5-.73A.55.55,0,0,0,329.35,524.32Z"/><path d="M324,528.89a1.58,1.58,0,0,0-1.13.35v.3h.82C324.32,529.54,324.32,529.19,324,528.89Z"/><path d="M322.91,529.54h-.35l.32.11,0,0Z"/><path d="M474.83,479.7c1.13.11,2.26.18,3.37.32l3.36.43,6.68.86,6.65,1.1,3.31.55,3.29.67,6.57,1.34,6.51,1.57,3.25.79c1.08.28,2.14.6,3.22.89l6.41,1.81c.58.15,1.08.22,1.14.1s-.36-.35-.9-.48l-6.42-1.82-3.22-.9-3.24-.79-6.51-1.59-6.56-1.35-3.29-.68-3.31-.56-6.64-1.11c-2.22-.32-4.46-.58-6.69-.88s-4.47-.59-6.73-.75a1.87,1.87,0,0,0-1.2.15C473.85,479.51,474.27,479.65,474.83,479.7Z"/><path d="M594.53,529.83c-.39-.14-.43,0-.1.23a4.64,4.64,0,0,0,1.22.68c.32.11.37,0,.09-.23A4.47,4.47,0,0,0,594.53,529.83Z"/><path d="M587.54,535c-1.06-.47-2.08-.94-3.08-1.35s-2-.75-2.93-1.06a4.78,4.78,0,0,1-1-.48c0,.21-.42.15-1.19-.15A321.52,321.52,0,0,0,531,516.93a1.6,1.6,0,0,1-.82.26,17,17,0,0,1-6-.76l-1.75-.55c-1.78-.5-3.59-.88-5.38-1.33s-3.58-.9-5.39-1.25l-5.42-1.1-2.7-.55-2.72-.45a40.76,40.76,0,0,1-5.16-.18c-3.19,0-6.39.11-9.58.14l-9.6.45c.39.17.63.36.61.56s-.48.42-1.09.56a9.85,9.85,0,0,1-2.26.24l-2.6.06c2.48.11,5,.13,7.44.4a9.16,9.16,0,0,1,1,.11c2.73.12,5.49.12,8.3.34a288,288,0,0,1,70.74,12.06,4.13,4.13,0,0,1,1.23.53c.17.17.09.28-.34.16-14.65-3.64-27.75-4.7-44-6.31a221.13,221.13,0,0,0-57.21,1.86A147.75,147.75,0,0,0,430,528a165.69,165.69,0,0,0-26.57,10.67c-1.5.66-2.91,1.51-4.35,2.26l-4.28,2.28-4.12,2.45c-1.37.81-2.76,1.56-4.05,2.46l-1,.65-.49.32-.18.13-.63.47-1.27.93c-.84.61-1.71,1.17-2.51,1.83-1.63,1.26-3.26,2.48-4.92,3.67s-3.19,2.52-4.81,3.76a5,5,0,0,1-4,1.47,6.57,6.57,0,0,1-4.22-2.21,7.46,7.46,0,0,1-1.92-5.8l-.65.46-1.25.44a5.16,5.16,0,0,1-3.8-.3l-1.65-.68c-2.72-1.59-5.74-2.19-8.48-4l-.55-1.06-.4-.1a6,6,0,0,1-3.21-1.45l-.83-1.15a13.48,13.48,0,0,1-1.88-4.36,4.72,4.72,0,0,1-.9-1.5,6.82,6.82,0,0,1-3.23-3.36,1,1,0,0,1-.77-1.16,1,1,0,0,1,.27-.49h0a7.83,7.83,0,0,0-1-.36c-.37.13-.6.19-.6.19-.93.42-.93.42-1.76.76a5.31,5.31,0,0,1-1.71-.17c-2.28-1.44-2.29-1.44-2.89-2.35,0-.11-.05-.23-.07-.34l-1,.17a3,3,0,0,1-.53-.13c-.41-.43-.41-.43-.64-.52a2.25,2.25,0,0,1-.31-.32c-.13-.73-.12-.73-.24-.88a2.1,2.1,0,0,1,0-.38l.36-.66,1.74.58-.17-.53.62.4-.51-.41h.64l-.8-.09a4.81,4.81,0,0,0,1.4-.82,1.94,1.94,0,0,0,.68-.63,3.24,3.24,0,0,1-.25-.24c1.13-.56,1.13-.56,2.24-1.07a4.49,4.49,0,0,1,.48.16.55.55,0,0,1,.32-.52l.56-.3.06-.15,0,0,.24-.56,0-.12h0c.16-.38.39-.95,1.08-2.35a7.56,7.56,0,0,1,1-.36l-.43-.05c-.28,0-.46-.6-.58-.58-.72.14-1.43.32-2.13.53s-1.36.51-2,.8c-1.34.57-2.66,1.23-4,1.85a1,1,0,0,1-1.31.09.82.82,0,0,1,.06-1.23c2.7-6,9.14-9.76,15.48-11,1.51-.58,3-1.19,4.47-1.81l-.34-.11,1.28-.28.12-.05-1.33-.36c-.24,0-.47.05-.71.09a29.17,29.17,0,0,1-5.29,1.71c-1.8.47-3.61,1-5.41,1.54s-3.91.8-5.9,1.27a.84.84,0,0,1-1.13-.24.79.79,0,0,1,.42-1,36.12,36.12,0,0,1,8.15-5.23,20.91,20.91,0,0,1,9.17-1.75,5.68,5.68,0,0,1,3.13-.8H344l-1-.36c.82-.26,1.58.14,2.39,0l-.83-.83c2-.66,3.93-1.58,5.88-2.37a30.57,30.57,0,0,1,2.95-1.05,13.74,13.74,0,0,1,3.06-.48,3.34,3.34,0,0,1,.43-.1,23.49,23.49,0,0,1,1.76-2l.49-.46.15-.11.43-.25.87-.49a40.58,40.58,0,0,1,3.73-1.88c-.93.3-1.83.66-2.73,1l-2.65,1s.17-.12.27-.18l.33-.2.68-.4,1.36-.8c.91-.54,1.85-1,2.81-1.48,1.91-.92,3.89-1.79,6-2.61,11.38-4.37,24.9-6.54,31.66-5.37a244.83,244.83,0,0,1,33.54-6.19,270.74,270.74,0,0,1,33.9-1.42,4.19,4.19,0,0,1,2.41.56c.11.26-.66.47-1.82.44a264.89,264.89,0,0,0-48.55,4.62,288.56,288.56,0,0,1,41.22-2c1.77,0,3.55-.07,5.34,0s3.5.22,5.24.42c17.69,1,34.15,4,51.53,8l2.77.64,2.7.71,5.31,1.42c1.76.44,3.47,1,5.18,1.51l5.12,1.57c3.4,1.07,6.75,2.28,10.17,3.44s6.81,2.57,10.34,3.92a282.57,282.57,0,0,1,27.92,13.12,244.2,244.2,0,0,1,25.84,16.33c2.25,1.62,4.13,3.43,4.13,4s-1.84-.29-4.09-1.89a311.29,311.29,0,0,0-27.75-16.68A320.17,320.17,0,0,0,563,505.56a301.15,301.15,0,0,0-31.18-10.51,317.34,317.34,0,0,0-33-7.39c-2.43-.44-4.87-.72-7.28-1.09l-3.62-.52c-1.21-.15-2.42-.26-3.63-.39a.43.43,0,0,1,.1.27c0,.36-.51.65-1.29.86l4.09.45c1.36.19,2.72.42,4.09.63l4.08.66,2,.34,2,.42A190,190,0,0,1,545.11,500a236,236,0,0,1,28.52,13.49A283,283,0,0,1,608,531.77a3.34,3.34,0,0,1,1,.79c.11.18-.18.1-.63-.16l-5.95-3.27-3-1.65-3.05-1.58-6.14-3.16-6.27-3c1.15,1,1.72,1.76,1.42,2.1s-1.51.21-3.16-.33l5.52,3c1.14.61,1.94,1.26,1.79,1.45s-1.11-.14-2.2-.71c-3.75-2-7.47-4-11.31-5.84-1.91-.91-3.79-1.9-5.73-2.76l-5.8-2.61a292.62,292.62,0,0,0-28.89-9.88,7,7,0,0,1,2.44,2.12h0l4.49,1.38c27.69,7.64,54.5,21.06,78.43,38.55.47.33.82.67.78.76s-.46-.11-.89-.42c-3.64-2.59-7.25-5.22-11-7.62-1.88-1.2-3.71-2.48-5.63-3.61l-5.72-3.44,0,0c.28.24.28.38-.1.24a5.4,5.4,0,0,1-1.19-.72c-.32-.28-.23-.35.09-.24A244.48,244.48,0,0,0,552.46,511a257.22,257.22,0,0,1,40.77,19.23c1.48.7,3,1.35,4.47,2.12a3.49,3.49,0,0,1,1,.75c.07.14-.27.06-.68-.16l-1.22-.63c2.41,1.51,4.07,3,3.76,3.43s-2.71-.52-5.22-2c-6.9-3.75-13.81-7.43-20.92-10.69l-2.34-1-2.42-.83a290.76,290.76,0,0,1,31.72,17.58c.89.52,1.57,1.09,1.49,1.26s-.87-.12-1.77-.64a295.22,295.22,0,0,0-28.58-14,286.65,286.65,0,0,0-30-11c-3.48-.62-7-1.09-10.47-1.63-3.53-.37-7-.81-10.6-1.1.87.19,1.74.42,2.61.64,11.11,2.61,21.43,5.17,31.57,8.25a197.57,197.57,0,0,1,30.21,11.7,2.05,2.05,0,0,1,.9.66c0,.12-.38,0-.88-.25a223.32,223.32,0,0,0-29.7-11.39l-6.34-1.94-6.27-1.65-3.1-.79-3.09-.66c-2.06-.43-4.09-.85-6.12-1.23l6.07,1.6,3,.78,3,.87,6,1.7,5.92,1.89,3,1,2.93,1L567,526c1.94.76,3.87,1.56,5.81,2.35l2.92,1.19c1,.41,1.91.87,2.88,1.3a8.08,8.08,0,0,1,1.7,1,.76.76,0,0,1,.43.06,63.67,63.67,0,0,1,6.33,2.53,3.18,3.18,0,0,1,1.06.68C588.29,535.28,588,535.23,587.54,535ZM342.93,523l-.24-.09h.65l1.39.73Zm-4.67,9.44h0l-.82-.37Zm96.62-48.2-7.27.82c-1.21.11-2.42.28-3.62.46l-3.62.5c-4.84.55-9.62,1.44-14.5,2.06l6.93-1.68,2.74-.43,2.76-.33,5.52-.61c1.83-.23,3.68-.34,5.53-.46ZM334.65,522.39a12.21,12.21,0,0,1,3.28.8,5,5,0,0,1,1.34-1.16,27,27,0,0,1,4.27-2.13c-.44-.3-.09-.44,0-.59l.43-.4c-1.58.6-3.25,1.09-4.86,1.75A40.91,40.91,0,0,1,334.65,522.39Zm-8.22,8.41-.23,0L326,530Zm.42,1.26.25-.06C327.21,532.26,327.08,532.23,326.85,532.06Zm2.3-.6a1.54,1.54,0,0,0-.49-.12Zm14.73,16-1.71-3.36,1.57,3.29Z"/><path d="M469.15,541.4l0,.26a.49.49,0,0,1-.43-.25c.64,2.37,3.22,3.24,5.44,3.08a1.1,1.1,0,0,0,1.49-1.61,1.62,1.62,0,0,1-.17-.41,8.55,8.55,0,0,0-1.17-3.5l.21.84a2.63,2.63,0,0,0-.63-.88l-.1.34a2.54,2.54,0,0,0-4.84,1.52Z"/><path d="M468.71,545.48c-.3-.73-.57-1.47-.83-2.22l0-.24-.53.76.05,0a4.41,4.41,0,0,1,2.85.55l.35.1a.83.83,0,0,0,.54-.21.81.81,0,0,0,.06-1.15l-.35-.37c-.65-1.18-2.17-2.39-3.68-1.57-.34.19-.52.64-.75,1a1.11,1.11,0,1,0,1.66,1.48l.17.3-.33,0c.47-.32,1-.07,1.49,0l.59.26.6-1.35-.38,0a.85.85,0,0,1,0,.17,10,10,0,0,1-2.12-.34l-1-.11a.68.68,0,0,0-.53.76l.11.48,0-.25c.49.79,1.11,1.51,1.58,2.31a.28.28,0,0,0,.5-.26Z"/><path d="M466.15,543.74c0-.17-.08-.35-.26-.45l-.14,0c0,.1.05.23.07.36S466,543.91,466.15,543.74Z"/><path d="M465.75,543.33l0-.16a.78.78,0,0,1,0,.16h.05Z"/><path d="M490.86,559.46a38.24,38.24,0,0,0,2.89,3.07s.1,0,.16-.07.07-.14,0-.17a42.1,42.1,0,0,1-2.88-3.08s-.1,0-.16.06S490.83,559.42,490.86,559.46Z"/><path d="M493.64,572.8a.28.28,0,0,0-.14.18c0,.06,0,.1.1.07a.34.34,0,0,0,.13-.18C493.74,572.8,493.7,572.77,493.64,572.8Z"/><path d="M489.13,578.13a1.76,1.76,0,0,0-.74.07c-.05,0-.07,0-.07-.06a.45.45,0,0,1-.28.21,15.52,15.52,0,0,1-4.83-.83,1.71,1.71,0,0,1-.25.22c-.3.22-.58.25-.7.07l-.08-.17c-.38-.56-.78-1.08-1.15-1.65a.82.82,0,0,1-.54,0,13.68,13.68,0,0,1-2.05-.08.92.92,0,0,1-.17.3c-.2.24-.44.34-.55.24l-.2-.13c.13.2.26.4.38.6a.3.3,0,0,1,0,.1,4.25,4.25,0,0,0,.59.43,15.23,15.23,0,0,0,6.66,1.63c.05,0,.09,0,.07.09a.3.3,0,0,1-.15.16c-2,.44-4.09,1.37-5.85,1.29a31.07,31.07,0,0,1-5.95-.8c-1.46-1.13-3.27-1.59-5.09-2.31-.62-.24-1.21-.51-1.77-.79a1.32,1.32,0,0,1-.25-.15l-.39-.24-.76-.5-1.5-1c-2-1.36-3.91-2.79-5.85-4.26a3.3,3.3,0,0,1-1.2-4.54,3.34,3.34,0,0,1,2.56-1.63l-.34-.29-.42-.61a2.81,2.81,0,0,1-.47-2l.07-.91c.37-1.55.28-3.16.78-4.69l.45-.38v-.21a2.93,2.93,0,0,1,.32-1.72l.45-.52a7,7,0,0,1,1.88-1.38,2.48,2.48,0,0,1,.61-.6,3.45,3.45,0,0,1,1.24-1.92.48.48,0,0,1,.47-.5.43.43,0,0,1,.25.07h0a3.4,3.4,0,0,0,.07-.49l-.15-.25-.52-.72a2.33,2.33,0,0,1-.08-.8c.46-1.21.46-1.21.83-1.59l.15-.08c-.13-.32-.14-.35-.17-.44a.88.88,0,0,1,0-.25c.16-.24.16-.24.18-.35a1.41,1.41,0,0,1,.13-.18c.33-.15.33-.15.38-.22a1.08,1.08,0,0,1,.18-.06l.33.07-.12.85.23-.15-.13.33.15-.28.05.28,0-.37c.33.41.33.41.49.52a.89.89,0,0,0,.36.22.69.69,0,0,1,.08-.14c.36.42.36.42.69.85a1.66,1.66,0,0,1,0,.24.25.25,0,0,1,.27.07l.18.22H468v0l.27,0h.06l1.19.12a2.63,2.63,0,0,1,.28.4,1.23,1.23,0,0,1,0-.19c0-.14.22-.3.2-.35a17.27,17.27,0,0,0-2.2-3.15.42.42,0,0,1-.15-.56.42.42,0,0,1,.57-.15,9,9,0,0,1,6.54,4.95c.45.54.92,1.05,1.39,1.57v-.17l.29.49,0,0v-.64l-.14-.29a26.25,26.25,0,0,1-2.7-4,22.35,22.35,0,0,1-1.16-2.29.39.39,0,0,1,0-.53.36.36,0,0,1,.51,0c2.28,1.32,4.44,3.4,5,6a2.11,2.11,0,0,1,.76,1.17v0l0-.52c.22.31.15.7.32,1l.26-.53c1.17,1.36,2.77,2.4,3.55,4a1,1,0,0,1,.12.16,8.7,8.7,0,0,1,2,.46c-.07-.14-.15-.27-.23-.41a1.38,1.38,0,0,1,1,.28,3.1,3.1,0,0,1,.38,3.37,49.57,49.57,0,0,0,4.53,2.64c.08,0,.07.18,0,.32s-.24.24-.32.2a16.25,16.25,0,0,1-3.69-1.38,15.24,15.24,0,0,0,2.13,2.46l.38.19a.69.69,0,0,1,.26.32,13.06,13.06,0,0,0,3.44,2.26,31.25,31.25,0,0,0,3.51,1.1,12.41,12.41,0,0,1,4.77,1.8c.2.09.17.46-.07.82s-.62.58-.83.48c-3.55-1.06-7.23-1.86-10-4.24l-.87-.77-.1.14a2.19,2.19,0,0,1-.47.45,8.65,8.65,0,0,1,.87,1,6.6,6.6,0,0,1,3.41,1.71,9.17,9.17,0,0,1,1.28,2.47c1,.43,2,.8,3,1.26.06,0,.06.07,0,.14a.22.22,0,0,1-.16.13,14,14,0,0,1-2.56-.33,2.44,2.44,0,0,1-.47.9,2.26,2.26,0,0,1-.81.65l.39.33c.07.08.05.25-.08.4s-.29.24-.37.18l-1.59-1.35c-.79-.34-1.56-.7-2.32-1.08a3.41,3.41,0,0,1-.39.9h0l.33.22a13.86,13.86,0,0,1,6.62,3.22s0,.11,0,.18-.14.11-.17.08a11.78,11.78,0,0,0-1.74-1.33h0a.28.28,0,0,1-.14.18c-.06,0-.1,0-.09-.06a.27.27,0,0,1,.13-.18,14.73,14.73,0,0,0-3.86-1.62,17,17,0,0,1,2.91,2.3l.53,0c.05,0,.05.08,0,.16s-.11.12-.16.11h-.14c.16.17.07.58-.22,1s-.7.54-.88.38c-.57-.33-1.11-.69-1.64-1.07l-.22-.06-.3.05c.68.77,1.33,1.57,2,2.38.07,0,0,.2-.06.33s-.25.21-.32.16a28.23,28.23,0,0,1-5.11-2.14l-2.74.64.16.16c1.55,1.19,4.12.57,5.88,1.39,0,0,0,.09,0,.16s-.13.12-.17.09a16.74,16.74,0,0,0-3-.46,15.43,15.43,0,0,0-2.55-.28c1.26.73,2.9.86,4.27,1.42.07,0,.1.08.08.17a.23.23,0,0,1,.1-.07,2.39,2.39,0,0,1,.78-.07c.05,0,.07,0,0,.13A.26.26,0,0,1,489.13,578.13Zm-18.27-26.78v-.13l.09.29-.15.76Zm-5-.65h0c.05-.25.08-.43.08-.43C466,550.45,465.92,550.58,465.9,550.7Zm21,8.75a4.6,4.6,0,0,1-1.41-1.86l.5.25A14.63,14.63,0,0,1,486.94,559.45Zm-16.78-11.93a6,6,0,0,1,0,1.59,2.27,2.27,0,0,1,.68.42,18.3,18.3,0,0,1,1.53,1.52c.08-.25.19-.12.28-.09l.24.12c-.48-.6-1-1.21-1.44-1.84A15.51,15.51,0,0,1,470.16,547.52Zm-4.69-2.46V545l.33-.2Zm-.54.35.05.11C464.87,545.6,464.87,545.54,464.93,545.41Zm.49,1a1.05,1.05,0,0,0,0-.24Zm-6,8.83,1.41-1.19-1.39,1.12Z"/><path d="M314.43,69.37l.61.06c-.1.34-.46.57-.94.74,5.83-.13,9.78-4.67,11.67-8.93a2.27,2.27,0,0,0,1.44-2.92,2.59,2.59,0,0,0-3.38-.81,4.44,4.44,0,0,1-1.07.07,23.57,23.57,0,0,0-9,.3l2.1,0a8.59,8.59,0,0,0-2.62.77l.67.38c-3.46.08-6.66,2.56-6.9,5.49s2.49,5.09,5.87,4.86Z"/><path d="M323,72.33c-1.82.2-3.63.35-5.48.5l-.52-.17,1.25,1.44-.05-.11c.24-2.06,1.91-3.84,3.53-5.35l.52-.63a1.39,1.39,0,0,0,0-1.16,1.82,1.82,0,0,0-2.42-.73l-1.14.49c-3.16.62-7.26,3.12-6.58,6.58.17.79,1,1.36,1.66,2a2.67,2.67,0,0,0,3.56.57,2.32,2.32,0,0,0,1-3.21l.78-.19-.21.67c-.32-1.09.65-2,1.14-3l1.08-1-2.43-1.89-.44.71a1.78,1.78,0,0,1,.33.17,28.1,28.1,0,0,1-2.52,4l-1,2a1.29,1.29,0,0,0,1.28,1.44h1.13l-.57-.08c2.11-.62,4.14-1.48,6.22-2a.64.64,0,0,0,.57-.67A.57.57,0,0,0,323,72.33Z"/><path d="M317.25,76.55a1.71,1.71,0,0,0-1.19.31c0,.17,0,.26,0,.3l.86,0C317.51,77.22,317.53,76.86,317.25,76.55Z"/><path d="M316,77.16h-.35l.32.11s0-.05,0-.05Z"/><path d="M396.15,256.84a70.64,70.64,0,0,0-7.6,13.11l-1.44,3.51-1.36,3.72c-.51,1.45-.92,2.74-1.33,4l-.56,1.85-.13.45-.06.22-.05.08c-.07.1-.07.28-.14.4a18.66,18.66,0,0,0-1.31,6.92,8.9,8.9,0,0,0,2.76,6.41,14.15,14.15,0,0,0,6.44,3.14,49.11,49.11,0,0,0,6,.94c2.52.27,5.21.43,8,.5,5.57.14,11.51-.08,17.6-.48s12.38-.94,18.88-1.55a8.07,8.07,0,0,0,3.05-.63c.06-.17-1.22-.2-2.73,0-6.46.61-12.78,1.13-18.86,1.56s-12,.63-17.55.5c-2.77-.06-5.45-.22-8-.47-1.26-.13-2.48-.29-3.63-.47-.29,0-.6-.08-.87-.14l-.73-.14c-.3,0-.56-.14-.85-.19a13.6,13.6,0,0,1-6.14-2.9,8.5,8.5,0,0,1-2-2.73,9,9,0,0,1-.75-3.29,17,17,0,0,1,1.18-6.57,3.54,3.54,0,0,0,.14-.39c0-.07,0-.14.06-.17l0-.08.06-.21c.17-.6.34-1.2.54-1.82.39-1.24.79-2.52,1.27-3.91l1.36-3.79c.41-1.21.95-2.31,1.39-3.5s1-2.26,1.55-3.39,1.11-2.22,1.75-3.29,1.23-2.18,1.93-3.22,1.4-2.12,2.15-3.16a12.33,12.33,0,0,0,1.46-2.38C397.65,255.1,396.94,255.8,396.15,256.84Z"/><path d="M670.38,284.9c-1.14-.64-1.18-.5-.11.34.87.78,2.56,2,3.61,2.72s1,.47.12-.33A28.39,28.39,0,0,0,670.38,284.9Z"/><path d="M655.38,288.7c-.76-.35-1.56-.64-2.32-1s-1.54-.64-2.3-.87l-2.25-.76c-.74-.25-1.5-.42-2.24-.63-1.46-.44-3-.68-4.38-1s-2.85-.47-4.24-.57c-1-.09-2.16-.33-3-.46.34.29-.92.33-3.27.24a83.53,83.53,0,0,0-8.79.21c-3,.26-5.94.62-8.94,1.12s-6,1.12-9.07,1.85-6.14,1.57-9.24,2.42a360,360,0,0,0-37.09,13q-9.29,3.79-18.71,7.83c-6.32,2.69-12.61,5.41-19.19,8.12A293.15,293.15,0,0,1,479,331.68a7.3,7.3,0,0,1-2.26,1.18c-3.77,1.55-11.67,3.45-19.94,4.49-2.09.21-4.17.46-6.25.65l-4.72.48-4.54.43-9.22.81c-6.22.49-12.57.86-19.06,1a157,157,0,0,1-20.11-.84l-2.61-.32-2.65-.41-2.89-.52c-1.06-.21-2.11-.45-3.16-.69a64.14,64.14,0,0,1-12.13-4.18,42.31,42.31,0,0,1-9.82-5.47,37.28,37.28,0,0,1-8.73-9,37.85,37.85,0,0,1-2.84-4.74c-.42-.83-.82-1.65-1.22-2.49s-.68-1.72-1-2.6a41.83,41.83,0,0,1-1.4-5.39,40.87,40.87,0,0,1-.82-5.54,55.93,55.93,0,0,1,.39-11.4,82.89,82.89,0,0,1,2.66-11.34c.36-.91.67-1.84,1-2.77.09-.23.14-.47.25-.69a5.28,5.28,0,0,0,.29-.69l.44-1.2c.55-1.44,1.12-2.84,1.7-4.21s1.21-2.69,1.78-3.93l.47-1,.51-1,1-2.08a95.31,95.31,0,0,1,10.17-15.76c-1.15,1.12-1.93,1.75-2.1,1.62-.06-.34.78-1.71,2.2-3.64a61,61,0,0,1,6-6.65c1.23-1.21,2.51-2.32,3.76-3.46s2.56-2.17,3.86-3.22a112.76,112.76,0,0,0-11,9.72,98.67,98.67,0,0,0-9.72,11.52c-.82,1.19-1.62,2.29-2.33,3.29-1.47,2.33-2.91,4.71-4.17,7.15l-1,1.83-.85,1.63c-.57,1.12-1.16,2.3-1.73,3.53s-1.12,2.49-1.67,3.78l-.46,1.14a3.41,3.41,0,0,1-.3.64c-.11.2-.16.43-.25.64-.31.87-.59,1.75-1,2.61-1.43,3.47-2,7.14-3,10.78a56.25,56.25,0,0,0-1,12c0,1,.05,2,.14,3,0,.49.05,1,.13,1.48l.25,1.45c.32,1.94.66,3.88,1.16,5.78a40,40,0,0,0,1.89,5.56,56.72,56.72,0,0,0,2.66,5.21,42,42,0,0,0,7.27,9.09,52,52,0,0,0,20,11.66,77.37,77.37,0,0,0,11.41,2.75l1.3.2c.39.06.79.13,1.17.17l2.31.29c1.52.16,3.05.32,4.52.41a194.38,194.38,0,0,0,33-1c5.17-.51,10.22-1.18,15.15-1.84l7.48-1.05c2.56-.36,5.11-.8,7.66-1.2a283.88,283.88,0,0,0,59.36-16.66c2.36-.93,4.69-1.93,7-2.91l6.69-2.92L543.49,311c8.7-3.81,17.27-7.53,25.87-10.89a22.31,22.31,0,0,1,4-1.3c.72-.1.65.12-.6.62-10.74,4.44-21,9.39-31.3,14.44l-15.64,7.66-4.07,1.94c-1.38.66-2.78,1.29-4.19,1.91q-4.21,1.89-8.55,3.66a267.43,267.43,0,0,1-36.7,12.08q-9.69,2.42-19.9,4.22l-5.14.86-5,.8c-3.34.52-6.78,1-10.35,1.51a259.52,259.52,0,0,1-26.76,2.24,141.34,141.34,0,0,1-14.81-.39c-1.28-.09-2.62-.25-3.94-.39-.65-.07-1.35-.17-2-.27s-1.7-.24-2.55-.39a84,84,0,0,1-10.28-2.45A64.89,64.89,0,0,1,361.8,343a50.92,50.92,0,0,1-8.88-5.49,49.16,49.16,0,0,1-7.65-7.05A42.28,42.28,0,0,1,339.2,322c-3.67-6-5.3-12.91-6.37-19.84a64.81,64.81,0,0,1-.18-10.71l.24-2.7.34-2.71c.13-.9.42-1.79.62-2.68s.39-1.79.59-2.68q.58-2.69,1.33-5.33a15.25,15.25,0,0,1,.94-2.6c.38-.85.67-1.72,1-2.59s.73-1.69,1-2.58l.75-1.81c.51-1.19,1-2.34,1.55-3.46s1.06-2.21,1.57-3.2l.77-1.48.91-1.72c.61-1.15,1.21-2.29,1.85-3.43s1.34-2.26,2-3.37a103.74,103.74,0,0,1,20.43-23.76,134.66,134.66,0,0,1,11.78-9c4-2.64,7.86-5,11.7-7.26,7.67-4.42,15-8.28,21.9-12.3a178.81,178.81,0,0,0,20.41-13,142.3,142.3,0,0,0,17.5-15.52c1.38-1.37,2.65-2.85,4-4.28.66-.73,1.31-1.45,1.88-2.14s1.2-1.4,1.76-2.12a87.45,87.45,0,0,0,6.21-8.87,71,71,0,0,0,4.75-9.36,57.36,57.36,0,0,0,3-9.63,47.78,47.78,0,0,0,1-9.59,50.36,50.36,0,0,0-1.06-9.29,45.14,45.14,0,0,0-3.07-8.66,47.34,47.34,0,0,0-4.89-8,49.35,49.35,0,0,0-6.4-7c-1.14-1.09-2.4-2-3.61-3s-2.52-1.81-3.84-2.56a39.54,39.54,0,0,0-8-3.75,37.31,37.31,0,0,0-8.18-1.59c-2-.16-4.09-.2-6.5-.17l-2,0h-1.19l-.89,0c-1.15.07-2.29.09-3.44.22a78,78,0,0,0-13.62,2.43,100.47,100.47,0,0,0-26.05,11.38c-1,.62-2.06,1.27-3.08,1.94-.51.33-1,.64-1.52,1l-.1.07h0l0,0-.08.07-.63.5-1.26,1-2.49,2c-3.3,2.66-6.49,5.41-9.66,8.26-2.14,2.48-5.57,2.5-7.93-.16a7.39,7.39,0,0,1-1.72-5.83l-.65.5-1.23.49a4.72,4.72,0,0,1-3.7-.13l-1.59-.63c-2.63-1.53-5.63-2.16-8.32-3.93l-.52-1.08-.4-.11a5.73,5.73,0,0,1-3.16-1.48l-.81-1.17A13.65,13.65,0,0,1,331,89.19a4.94,4.94,0,0,1-.86-1.53A6.72,6.72,0,0,1,327,84.24a.94.94,0,0,1-.74-1.18,1,1,0,0,1,.3-.49h0a8.78,8.78,0,0,0-1-.38c-.38.12-.62.17-.62.17l-1.83.71a5.32,5.32,0,0,1-1.74-.22c-2.29-1.5-2.3-1.5-2.89-2.44l-.06-.34a10.64,10.64,0,0,1-1.07.13,2.59,2.59,0,0,1-.54-.14c-.41-.45-.41-.45-.64-.54a2.38,2.38,0,0,1-.31-.34c-.1-.74-.1-.74-.22-.89a2.08,2.08,0,0,1,0-.38l.39-.65,1.78.65-.15-.54.62.42-.5-.43.65,0-.82-.13a4.9,4.9,0,0,0,1.49-.76,2,2,0,0,0,.73-.6,1.44,1.44,0,0,1-.24-.24c1.19-.5,1.19-.5,2.36-.94a4.65,4.65,0,0,1,.49.17.55.55,0,0,1,.36-.5l.6-.25.06-.14,0,0,.28-.52.05-.12h0c.19-.35.46-.89,1.21-2.26a8,8,0,0,1,1.07-.32,3,3,0,0,1-.42-.06c-.29-.06-.45-.6-.57-.58a41.13,41.13,0,0,0-8.59,2.71,1.07,1.07,0,0,1-1.37,0,.79.79,0,0,1,.13-1.21c3.2-5.67,10-9,16.51-9.92,1.56-.51,3.08-1.07,4.63-1.6L336,60l1.31-.23.13,0-1.32-.38-.73.06c-3.5,1.38-7.3,1.72-11.07,2.68-2,.52-4,.59-6.1,1a.89.89,0,0,1-1.15-.28.77.77,0,0,1,.49-1c5.11-3.73,12-6.44,18.08-5.88a6.22,6.22,0,0,1,3.24-.61h.06l-1-.38c.86-.19,1.58.17,2.41.07l-.78-.79c4.1-1.17,8.11-3.21,12.3-3.37a3.73,3.73,0,0,1,.44-.08,23.63,23.63,0,0,1,1.94-1.79c.17-.14.35-.28.54-.41l.06,0,0,0,0,0,.07,0,1.45-.58,2.94-1.15c4-1.47,8.15-2.87,12.56-4.12-3,.78-6,1.64-8.87,2.53-1.45.47-2.92.91-4.37,1.41l-4.06,1.41,0,0,.25-.11.57-.24,1.15-.46,2.3-.91c1.54-.59,3.1-1.15,4.66-1.71l4.74-1.59c1.61-.49,3.21-1,4.84-1.46a142.26,142.26,0,0,1,20.53-4.25,128.06,128.06,0,0,1,30.15-.47c2.49.33,5.18.64,7.11,1,2.3.35,4.82.78,7.32,1.33A81.87,81.87,0,0,1,453,43.62,62.5,62.5,0,0,1,459.84,47l3.1,1.85c1,.64,1.94,1.31,2.89,1.95l1.41,1,1.32,1c.87.68,1.73,1.35,2.56,2l2.36,2.1,1.15,1L475.69,59a73.81,73.81,0,0,1,12.18,15.82c1.39,2,2.6,4,3.82,6.11.59,1,1.12,2.13,1.68,3.19s1.07,2.16,1.55,3.26c1,2.18,1.86,4.45,2.7,6.72.39,1.14.72,2.31,1.08,3.47s.66,2.33.93,3.52a75.2,75.2,0,0,1,1.19,28.75,91.52,91.52,0,0,1-3.24,13.76,107.45,107.45,0,0,1-5.21,12.82,126.35,126.35,0,0,1-14.49,22.76A256.4,256.4,0,0,1,441.57,216c-13,11.08-26.71,20.86-36.68,31.17a28.52,28.52,0,0,1-4.34,4.09c-.19,0,0-.37.46-1a22.91,22.91,0,0,1,2.24-2.67c6.94-7.52,16-14.7,25.32-22.23s19-15.46,27.88-24.16c4.46-4.36,8.78-8.86,12.91-13.53l3.05-3.53,3-3.6c1-1.17,2-2.46,2.95-3.73s1.92-2.58,2.87-3.88c7.45-10.47,13.61-22.29,16.84-35.42a101.22,101.22,0,0,1-13.64,30,135.69,135.69,0,0,1-9.66,12.89c-3.32,4-6.87,7.89-10.48,11.7s-7.42,7.46-11.32,11-7.88,7-11.94,10.3-8.17,6.52-12.25,9.68-8.15,6.23-12.08,9.31-7.8,6.37-11.34,9.63-6.69,6.41-9.56,9.67a74.46,74.46,0,0,0-8.85,13.25c-.59,1.16-1.15,2.34-1.7,3.51s-1.05,2.39-1.52,3.61l-1.43,3.82c-.51,1.41-.94,2.72-1.36,4l-1,3.21c-.26.7-.47,1.42-.66,2.14a24.6,24.6,0,0,0-.8,4.41,12.87,12.87,0,0,0,1.93,8.56,13.64,13.64,0,0,0,7.23,5,28.05,28.05,0,0,0,4.37,1,73.31,73.31,0,0,0,7.57.8,143.34,143.34,0,0,0,17.14-.18c6-.37,12.21-1,18.64-1.72l8.19-1c2.61-.31,5.19-.66,7.74-1q7.67-1.12,15-2.6a259,259,0,0,0,28.64-7.41c4.67-1.5,9.31-3.17,14-4.92l3.58-1.37,3.67-1.42,7.44-2.9c5-2,10.11-3.95,15.36-5.94s10.67-3.93,16.24-5.83c7.83-2.66,15.76-5.12,23.78-7.22,4-1,8-2,12.11-2.85s8.22-1.67,12.51-2.3a122,122,0,0,1,27-1.18,101,101,0,0,1,14,2.08,86.84,86.84,0,0,1,13.71,4.32l3.31,1.41c1,.49,2.07,1,3.1,1.5s2,1,3.06,1.58,2,1.11,3,1.69a96,96,0,0,1,11.57,8A100.94,100.94,0,0,1,700.8,296c2.49,3.53,4.74,7.06,6.82,10.52,1.08,1.75,2,3.42,3.07,5.19s2.11,3.73,3.1,5.64c2,3.81,3.83,7.72,5.49,11.73s3.09,8.11,4.38,12.27c2.82,8.86,3.78,17.43,3.48,18.58s-1.56-5.29-4.12-14.09a136.24,136.24,0,0,0-10-24.9c-2-3.94-4.41-7.95-6.56-11.42s-4.61-7.27-7.22-10.93a99.13,99.13,0,0,0-19.4-20.73,87.57,87.57,0,0,0-12.22-8c-1.06-.56-2.12-1.17-3.19-1.69l-3.23-1.55c-1.06-.52-2.27-1-3.4-1.47l-1.72-.71-1.76-.62a90.27,90.27,0,0,0-28.84-5.18,131.53,131.53,0,0,0-27.53,2.52c-8.6,1.66-16.95,3.65-25.2,6s-16.29,5.07-24.21,7.9-15.67,5.84-23.31,8.79l-11.39,4.38-5.55,2.08c-1.82.65-3.65,1.34-5.48,1.95q-11,3.82-22.24,6.61c-7.52,1.85-15.15,3.37-22.9,4.62-3.88.6-7.78,1.16-11.71,1.61l-6,.67-6.12.63c-8.1.8-16,1.5-23.69,1.64-3.82.08-7.56,0-11.15-.23-1.79-.13-3.54-.3-5.22-.53l-1.26-.18-1.13-.19c-.58-.08-1.12-.24-1.69-.33a24.29,24.29,0,0,1-6.43-2.33,13.76,13.76,0,0,1-5-4.56,13.31,13.31,0,0,1-2-5.53,20.92,20.92,0,0,1,.15-5.86,33.71,33.71,0,0,1,1.45-5.63l1.24-3.78c.51-1.48,1-3,1.67-4.63-.17.13-.32.25-.42.2-.38-.23-.32-1.46.11-3.43l-1,2.43-1,2.69c-.64,1.75-1.24,3.42-1.76,5.08a39.59,39.59,0,0,0-2,6.92,22.22,22.22,0,0,0-.2,7.28,14.11,14.11,0,0,0,2.83,6.72,18.26,18.26,0,0,0,8.7,5.13,35.05,35.05,0,0,0,4.94,1.06l1.58.22,1.75.2c1.2.11,2.41.22,3.65.28a141.87,141.87,0,0,0,15.55-.06c5.37-.28,10.88-.79,16.5-1.36l8.54-.91,8.52-1c5.57-.69,11.13-1.5,16.69-2.47a294.74,294.74,0,0,0,33.24-7.69c7.66-2.25,14.9-4.72,22.55-7.41s15.1-5.29,22.69-7.81a376.6,376.6,0,0,1,46.55-12.55c9.9-2.31,20.43-4.33,31.45-4.64a88.76,88.76,0,0,1,33.3,5,91.82,91.82,0,0,1,15.25,7.3,83.78,83.78,0,0,1,13.63,10.15,97.81,97.81,0,0,1,11.21,12.3c3.32,4.3,6.25,8.68,9,13a24.72,24.72,0,0,1,1.94,3.42c.2.56-.35-.13-1.24-1.51-1.92-2.94-3.9-5.91-6-8.88s-4.41-5.93-6.9-8.81a87.85,87.85,0,0,0-17.41-15.63,90.89,90.89,0,0,0-10.23-5.93c-.88-.43-1.77-.82-2.65-1.23s-1.76-.83-2.71-1.19l-2.8-1.12c-.93-.36-1.89-.66-2.84-1-1.9-.68-3.85-1.15-5.79-1.7s-3.9-.91-5.88-1.21a85,85,0,0,0-11.84-1.21,31.76,31.76,0,0,1,3.3.61c1,.22,1.76.43,2.4.64,1.27.46,1.86.85,1.63,1.14-.47.62-4.3.61-10,.89a92.05,92.05,0,0,1,10.33.87c1.72.21,3.43.58,5.14.89s3.41.75,5.08,1.26c1,.31,2,.61,2.88.9s1.63.65,2.26.93c1.26.54,2,1,1.85,1.11a5.73,5.73,0,0,1-2.29-.38c-.66-.18-1.43-.41-2.28-.66s-1.8-.48-2.77-.77-1.69-.45-2.54-.65-1.7-.42-2.56-.58c-1.72-.31-3.44-.67-5.17-.87a86.52,86.52,0,0,0-10.39-.8c-3.46-.09-6.9.07-10.32.31s-6.79.7-10.14,1.21c-6.7,1.07-13.18,2.49-19.67,4.08s-12.87,3.43-19.19,5.43c-15.12,5-29.73,11-44.25,16.67-7.29,2.89-14.41,5.57-21.74,8s-14.72,4.44-22.22,6.15c2.14-.19,4-.35,5.56-.38a16,16,0,0,1,3.58.16,0,0,0,0,1,0,0q7-1.82,13.8-4c5.19-1.77,10.32-3.71,15.43-5.75L531.33,295c10.34-4.21,20.79-8.41,31.5-12.13a288.87,288.87,0,0,1,32.87-9.5c11.19-2.54,23-4.23,35-3.38a80.41,80.41,0,0,1,17.78,3.25c1.43.49,2.88.95,4.3,1.49s2.84,1.1,4.2,1.74c2.72,1.23,5.41,2.57,8,4.08a79.39,79.39,0,0,1,14.54,10.78,100.8,100.8,0,0,1,11.77,13.46c3.52,4.75,6.64,9.58,9.71,14.51a135,135,0,0,1,8.28,15.58,128.67,128.67,0,0,1,10,33.75,17.07,17.07,0,0,1,.32,3.39,13.37,13.37,0,0,1-.6-3,129.77,129.77,0,0,0-13.11-40.23q-2.45-4.72-5.24-9.25c-1.86-3-3.73-5.88-5.71-8.8a118.37,118.37,0,0,0-13.3-16.68l.07.09c.76.9.79,1.16-.16.31s-2.42-2.34-3.25-3.14c-.93-1-.74-1,.13-.33a79.45,79.45,0,0,0-7.91-6.36,81.42,81.42,0,0,0-8.67-5.23c-.75-.38-1.48-.8-2.24-1.15l-2.28-1.06c-1.5-.74-3.11-1.32-4.68-2a73.49,73.49,0,0,0-9.73-2.91,78.87,78.87,0,0,0-10-1.62,93.61,93.61,0,0,0-10-.38,118.24,118.24,0,0,0-19.63,2.06,274.06,274.06,0,0,0-37.22,10C554,286.5,542.23,291.21,530.62,296c21.7-8.48,43.87-16.72,67-21.42a147.94,147.94,0,0,1,17.66-2.62,98,98,0,0,1,18,.21A76.9,76.9,0,0,1,651,276.29a80.61,80.61,0,0,1,16.11,8.13A75.5,75.5,0,0,1,679.82,294a18.24,18.24,0,0,1,2.62,2.95c.19.37-.63-.32-1.67-1.37s-2.13-2-3.26-3c6.66,6.27,10.25,12.3,9.66,12.54-.42,0-1.91-1.4-4.1-3.6s-5.16-5.18-8.61-8.18a74.22,74.22,0,0,0-15.24-10.12,86.53,86.53,0,0,0-8.38-3.68c-1.45-.49-2.89-1-4.35-1.43s-2.93-.84-4.42-1.13l-2.24-.49-2.25-.38c-1.49-.29-3-.4-4.52-.61a89.75,89.75,0,0,0-9.12-.4,113.08,113.08,0,0,0-18.18,1.67c-2.59.49-5.17,1-7.74,1.63s-5.12,1.39-7.65,2.17a160,160,0,0,1,27.9-4.46,79.5,79.5,0,0,1,27.7,3,77.69,77.69,0,0,1,24.54,12.83c7.3,5.71,13.31,12.9,18.66,20.54,1.87,2.6,3.24,5,3.09,5.17s-1.76-1.86-3.64-4.46a97.52,97.52,0,0,0-16.37-17.81,74,74,0,0,0-20.67-11.88A69.35,69.35,0,0,0,628.35,279a106.65,106.65,0,0,0-24,2.35,312.27,312.27,0,0,0-47.43,14.31c-7.79,3-15.56,6.09-23.37,9.26l-11.76,4.75c-3.94,1.57-8,3.13-12,4.56a286.92,286.92,0,0,1-32.38,11.36,329,329,0,0,1-33.94,7.56l4.36-.46c1.47-.17,2.95-.32,4.43-.53a257.83,257.83,0,0,0,53.7-12.72c4.22-1.48,8.36-3.08,12.44-4.74s8-3.36,11.91-5c7.81-3.38,15.49-6.73,23.16-9.92,15.33-6.4,30.73-12,46.83-16a114.59,114.59,0,0,1,24.2-3.59,69.38,69.38,0,0,1,24.2,3.41,11.29,11.29,0,0,1,3,1.35c.11.19-1-.08-2.54-.68a69,69,0,0,0-23.3-3.49A111.42,111.42,0,0,0,602.44,284c-15.62,3.76-30.83,9.18-46.51,15.58-6.5,2.66-12.93,5.39-19.31,8.14l-9.57,4.13c-3.18,1.37-6.36,2.73-9.65,4.09a313.93,313.93,0,0,1-39.8,13.21,273.11,273.11,0,0,0,40.08-12.35c3.23-1.29,6.34-2.58,9.42-3.87l9.21-3.88c6.1-2.58,12.14-5.12,18.18-7.57A359.61,359.61,0,0,1,591,288.63c12.43-3.52,24.75-6.28,37-6.06a26.24,26.24,0,0,1,5.59.54,3.67,3.67,0,0,1,1.21-.07,58.59,58.59,0,0,1,18.9,4.37,14,14,0,0,1,3.27,1.7C657.5,289.52,656.72,289.28,655.38,288.7ZM336.84,71.46l-.23-.08h.64l1.36.71Zm-5.17,9.1h0l-.8-.38ZM478.39,175a122,122,0,0,0,12.24-19.64A91.72,91.72,0,0,0,498.32,133a73.92,73.92,0,0,0-6.06-47.63,74.71,74.71,0,0,1,7.32,22.76,78.13,78.13,0,0,1-4.05,36.22A109.41,109.41,0,0,1,478.39,175ZM328.47,70.61a12.57,12.57,0,0,1,3.29.87,5.38,5.38,0,0,1,1.42-1.06,45.43,45.43,0,0,1,4.43-2c-.43-.28-.07-.42.07-.56l.45-.38c-1.63.53-3.28,1.07-5,1.59C331.61,69.59,330,70.27,328.47,70.61Zm-8.83,7.94-.24-.06-.19-.77S319.39,78.08,319.64,78.55Zm.37,1.27.26-.06C320.37,80,320.25,80,320,79.82Zm2.39-.53a2.17,2.17,0,0,0-.5-.14ZM336.77,95.6l-1.62-3.41,1.48,3.33Z"/><path d="M478.55,111.77l.58.15a1.3,1.3,0,0,1-1,.63c5.57.65,10.07-3.46,12.48-7.69a2.43,2.43,0,0,0,1.8-2.88,2.5,2.5,0,0,0-3.23-1.31,4,4,0,0,1-1.05,0,21.37,21.37,0,0,0-8.78-.79l2,.29a7.93,7.93,0,0,0-2.63.47l.6.48c-3.35-.31-6.64,1.87-7.19,4.82s1.7,5.49,4.92,5.73Z"/><path d="M486.43,116c-1.8,0-3.56-.13-5.37-.25l-.48-.24,1,1.64,0-.12c.52-2,2.33-3.69,4.13-5l.58-.58a1.51,1.51,0,0,0,.19-1.2,1.75,1.75,0,0,0-2.27-1.07l-1.17.35a10.28,10.28,0,0,0-4.82,1.66,4.75,4.75,0,0,0-2.31,4.17c.06.83.81,1.52,1.32,2.25a2.5,2.5,0,0,0,3.31,1.07,2.41,2.41,0,0,0,1.41-3.11l.78-.09-.3.66c-.16-1.15.89-1.94,1.49-2.89l1.18-.89L483,110.07l-.51.67.29.22a26,26,0,0,1-2.95,3.81l-1.23,1.85a1.33,1.33,0,0,0,1,1.64l1.08.16-.53-.15c2.09-.34,4.18-.9,6.27-1.15a.66.66,0,0,0,.65-.61A.58.58,0,0,0,486.43,116Z"/><path d="M480.32,119.46a1.58,1.58,0,0,0-1.18.14c0,.17,0,.25-.05.3l.81.15C480.48,120.17,480.55,119.81,480.32,119.46Z"/><path d="M479.09,119.9l-.34-.07.29.17,0,0Z"/><path d="M624.44,103.39l1.23.4,1.16.34,2.33.69c1.53.45,2.93.76,4.42,1.16l2.07.41a20.53,20.53,0,0,0,2,.37l2,.26c.33,0,.67.11,1,.12l1,0,1.91.1c.64,0,1.26-.06,1.89-.08s1.27,0,1.91-.09l1.91-.3a33.93,33.93,0,0,0,7.7-2c.34-.13.58-.33.54-.45s-.34-.1-.64,0l-.94.37-1,.29c-.64.18-1.26.4-1.9.57l-1.91.45a18.63,18.63,0,0,1-1.92.3l-1.89.29c-.63.08-1.26.06-1.88.1s-1.24.08-1.86.08l-1.89-.11a34.84,34.84,0,0,1-3.84-.41,20.05,20.05,0,0,1-2-.36l-2-.41c-1.46-.38-2.87-.72-4.37-1.15l-2.32-.69c-.76-.22-1.53-.45-2.37-.73-.44-.13-.83-.14-.92,0S624,103.26,624.44,103.39Z"/><path d="M703,69.17c-.08.34,0,.37.24.09a3.31,3.31,0,0,0,.51-1.07c.07-.29,0-.34-.23-.09A3.52,3.52,0,0,0,703,69.17Z"/><path d="M708.73,75.55c-.82,1.94-1.58,3.8-2.14,5.53a3.82,3.82,0,0,1-.45.88c.2,0,.14.4-.18,1.1a113.72,113.72,0,0,1-11.61,20.74,87.58,87.58,0,0,1-17.7,18.64,1.66,1.66,0,0,1-.37.81c-.7,1.17-2.78,2.66-5.07,4l-1.82.82a64.13,64.13,0,0,1-23.33,6.39,40.82,40.82,0,0,1-5.66.84,92.63,92.63,0,0,1-20.35-.13c.37.22.58.44.53.64-.2.44-1.84.55-3.46.2l-2.52-.46,3.57.87,3.74.85a7.94,7.94,0,0,1,1,.25c1.39.24,2.92.41,4.39.61.75.08,1.46.2,2.26.25l2.37.16a68.35,68.35,0,0,0,21.2-1.9q2.53-.75,5-1.55c1.66-.54,3.23-1.25,4.82-1.89s3.08-1.47,4.58-2.24,2.92-1.68,4.34-2.54A74.2,74.2,0,0,0,686.52,116c2.16-2.22,4-4.62,5.87-7,.92-1.18,1.73-2.42,2.59-3.62s1.71-2.4,2.44-3.66a3.62,3.62,0,0,1,.79-1c.21-.13.28,0,.08.36A112.66,112.66,0,0,1,686,119.75a65.12,65.12,0,0,1-20.32,16.39c-1.3.72-2.68,1.29-4,1.91a42.69,42.69,0,0,1-4.21,1.64c-1.44.5-2.87,1-4.34,1.46s-3,.76-4.51,1.12A79.46,79.46,0,0,1,630.44,144h-2.2l-2.08-.1c-1.37-.08-2.81-.14-4.14-.25-2.6-.22-5.3-.44-7.69-.71-5-.53-9.41-1-13.75-1.41a99.2,99.2,0,0,0-24.08-1.12,117.92,117.92,0,0,0-23,4.29A154.19,154.19,0,0,0,538.46,150l-.92.38-.45.19-.19.09-.69.33c-.47.22-.92.48-1.38.7-.91.47-1.83.92-2.74,1.36-3.63,1.86-7.23,3.65-10.84,5.65a4.74,4.74,0,0,1-4.22.8,6.53,6.53,0,0,1-3.81-2.94,7.54,7.54,0,0,1-.86-6.13l-.74.35-1.32.21a5.28,5.28,0,0,1-3.74-.93l-1.51-.95c-2.43-2.06-5.38-3.26-7.79-5.49l-.35-1.16-.38-.18a6,6,0,0,1-2.94-2L493,139a13.72,13.72,0,0,1-1.06-4.69,4.85,4.85,0,0,1-.62-1.66,6.94,6.94,0,0,1-2.6-3.94,1,1,0,0,1-.56-1.3,1.06,1.06,0,0,1,.37-.44s0,0,0,0a8.08,8.08,0,0,0-.91-.55,5.18,5.18,0,0,1-.63.08l-1.88.44a5.09,5.09,0,0,1-1.66-.49c-2-1.85-2-1.85-2.43-2.88a2.11,2.11,0,0,1,0-.35c-.78,0-.83,0-1,0a2.4,2.4,0,0,1-.5-.22c-.32-.51-.32-.51-.54-.64a3.29,3.29,0,0,1-.25-.38c0-.75,0-.75-.07-.92a1.73,1.73,0,0,1,0-.39L479,120l1.62.9-.08-.56.54.52-.42-.51.62.12-.77-.25a4.87,4.87,0,0,0,1.53-.55,2.13,2.13,0,0,0,.79-.5,3,3,0,0,1-.21-.29c1.23-.33,1.23-.33,2.43-.61a3.25,3.25,0,0,1,.45.25.53.53,0,0,1,.41-.46l.61-.18.08-.14,0,0,.34-.5.07-.11h0c.23-.35.58-.84,1.49-2.15a7.43,7.43,0,0,1,1.09-.17l-.41-.13c-.27-.1-.35-.68-.48-.68a38.94,38.94,0,0,0-8.69,1.58,1,1,0,0,1-1.31-.15.85.85,0,0,1,.28-1.22c3.76-5.33,10.82-8,17.43-8l4.81-1-.32-.18,1.33,0,.14,0-1.27-.6-.73,0a36.65,36.65,0,0,1-5.6.79c-1.89.13-3.81.21-5.71.48s-4,.07-6.08.2a.83.83,0,0,1-1.08-.44.81.81,0,0,1,.61-1c5.42-3.23,12.57-5.28,18.58-3.77a5.79,5.79,0,0,1,3.32-.17h.05l-1-.55c.89-.08,1.56.42,2.4.44l-.67-1c4.24-.67,8.54-2.25,12.77-1.7a3.62,3.62,0,0,1,.46,0A17.26,17.26,0,0,1,520.66,96l.6-.35.17-.09.42-.14.85-.27c1.15-.36,2.33-.72,3.59-1-.88.11-1.72.26-2.58.39l-2.52.4c.76-.29,1.73-.62,2.59-.92s1.79-.6,2.71-.83c1.84-.49,3.73-.92,5.71-1.27a75.31,75.31,0,0,1,16.41-.81,39.58,39.58,0,0,1,12.59,2.52c2.58,0,5.15-.1,7.73,0l7.74.28,7.73.66,7.66,1c10.13,1.57,19.87,4.15,28.49,6.37.93.23,1.6.61,1.71.91s-.58.38-1.47.17c-6.19-1.31-13-2.92-20.14-4.17-1.76-.35-3.56-.63-5.38-.89s-3.6-.59-5.45-.76l-5.51-.61-5.55-.37,4.62.64c1.53.2,3,.53,4.58.8,3.06.51,6.06,1.21,9.06,1.87,5.94,1.42,11.83,3,17.36,4.64l4.24,1.06c1.42.36,2.71.79,4,1.25,6.68,1.83,12.5,3.18,17.85,3.4,1.32,0,2.65,0,4-.07l2-.23a11,11,0,0,0,2-.29,37.46,37.46,0,0,0,7.9-2.39C665.11,103,672,96.7,678.79,88.21A134.54,134.54,0,0,0,691.1,68.72c1.91-3.35,3.52-7,5.34-10.46L699,52.78c.43-.92.86-1.84,1.3-2.76l1.23-2.84c.83-2,2-3.82,2.48-3.91s.28,1.54-.54,3.61l-1.15,3.06c-.39,1-.83,2-1.24,3l-2.51,6c-1.83,3.86-3.55,7.81-5.58,11.5a119.74,119.74,0,0,1-13.52,20.87l-2,2.31c-.63.81-1.37,1.45-2.05,2.19s-1.38,1.45-2.09,2.13l-2.2,2c-.36.32-.72.67-1.09,1l-1.15.88c-.78.58-1.52,1.21-2.31,1.76l-2.39,1.58c-.78.55-1.64.93-2.45,1.42a42.62,42.62,0,0,1-10.4,4.06l-2.71.55-.67.15-.69.06-1.36.13a42.15,42.15,0,0,1-5.52.17l-2.45-.22-1.21-.11-1.26-.2-2.49-.39-2.58-.56a.56.56,0,0,1,0,.28c-.06.36-.44.62-1.05.78A76.13,76.13,0,0,0,641,113.13c1.28-.15,2.58-.17,3.84-.37s2.53-.39,3.78-.68l3.75-1c1.22-.45,2.49-.79,3.7-1.33a65.8,65.8,0,0,0,14.41-8.1A99.88,99.88,0,0,0,687.89,85.2a174.91,174.91,0,0,0,14.78-27.77,2.28,2.28,0,0,1,.53-.89c.15-.11.14.14,0,.55C702,60.61,700.46,64,699,67.47c-.72,1.74-1.6,3.39-2.41,5.1S695,76,694,77.61c.91-.84,1.65-1.25,2-.94s.23,1.31-.26,2.68l1.38-2.22c.44-.75.85-1.52,1.28-2.28.53-.93,1.1-1.59,1.29-1.46s-.05,1-.55,1.88-.85,1.57-1.3,2.34l-1.41,2.28c-1,1.5-1.84,3-2.84,4.51l-3,4.37c-1,1.45-2.15,2.78-3.22,4.18a76.85,76.85,0,0,1-17.63,17.68,6.41,6.41,0,0,1,2.75-.32h0l3.1-2.43a101.6,101.6,0,0,0,12-13.61l2.64-3.74c.89-1.24,1.65-2.58,2.49-3.86,1.7-2.54,3.17-5.27,4.72-7.94A259.39,259.39,0,0,0,713,44.61c.18-.46.4-.82.49-.79s0,.4-.14.82L711.19,50c-.7,1.77-1.36,3.56-2.14,5.29-1.53,3.48-2.93,7-4.61,10.39l0,0c.19-.25.32-.25.24.08a3.9,3.9,0,0,1-.51,1.07c-.22.29-.31.21-.24-.08-6,12.72-13,24.87-22,35.17a106.24,106.24,0,0,0,11.85-15l1.35-2c.44-.66.84-1.36,1.26-2l2.51-4.11c.83-1.37,1.56-2.8,2.35-4.2s1.58-2.8,2.32-4.23l1.48-4a2.48,2.48,0,0,1,.58-.89c.12-.06.09.24-.06.61l-.42,1.1c1.09-2.17,2.29-3.7,2.75-3.45s-.09,2.42-1.2,4.73a155.16,155.16,0,0,1-9.67,18.08l-1.14,1.91c-.34.67-.68,1.34-1,2a175.65,175.65,0,0,0,15.81-27.67c.35-.84.78-1.5,1-1.44s0,.79-.31,1.64a176,176,0,0,1-12.16,25.67,102.08,102.08,0,0,1-18,23,72.29,72.29,0,0,1-15.29,13.86l2.44-1.2a62.35,62.35,0,0,0,13.33-9.73l2.72-2.82,1.33-1.41,1.23-1.48,2.4-2.94c.77-1,1.47-2,2.2-3,5.75-8.14,10.18-16.71,14.61-25.81a1.74,1.74,0,0,1,.59-.81c.12,0,0,.35-.19.81-4.24,8.94-8.25,17.23-14.18,25.57a95.84,95.84,0,0,1-17,18.4,77.67,77.67,0,0,0,17.26-17.38l1.76-2.38L696,98.82c1.05-1.65,2.2-3.24,3.14-4.95s2-3.35,2.94-5l2.71-5.16a6.08,6.08,0,0,1,1-1.5.61.61,0,0,1,.07-.4c.63-1.86,1.42-3.82,2.25-5.8a2.62,2.62,0,0,1,.61-1C708.91,74.85,708.88,75.12,708.73,75.55ZM500.22,117.16,500,117l.65.1,1.25,1Zm-6.39,8.53h0l-.74-.52Zm96.71-26.62c-8.68-1.48-17.43-2.29-26.21-3.07l3.21-.1c1.07,0,2.14,0,3.21,0l5,.51c1.66.19,3.31.49,5,.73C584,97.63,587.28,98.38,590.54,99.07ZM492,115a12.79,12.79,0,0,1,3.13,1.4,4.89,4.89,0,0,1,1.55-.9q2.34-.81,4.66-1.36c-.39-.36,0-.45.14-.57l.51-.33-5.17.9C495.27,114.38,493.65,114.9,492,115Zm-9.7,6.82-.22-.09-.08-.8Zm.18,1.34.26,0C482.85,123.42,482.73,123.36,482.52,123.15Zm2.39-.18a1.75,1.75,0,0,0-.47-.21Zm11.75,18.66L495.58,138l.95,3.57Z"/></svg>