<svg id="Layer_1" data-name="Layer 1" xmlns="http://www.w3.org/2000/svg" viewBox="0 0 1080 900.88"><path d="M493.27,47.33l.51.29a1.36,1.36,0,0,1-1.13.36,11,11,0,0,0,7.75,0A18.77,18.77,0,0,0,507,43.92a2.58,2.58,0,0,0,2.65-2.31A2.42,2.42,0,0,0,507,39.47a4.28,4.28,0,0,1-1-.34A20.53,20.53,0,0,0,497.63,36l1.89.83a7.66,7.66,0,0,0-2.7-.24l.43.61a7.66,7.66,0,0,0-4.87,0,6.18,6.18,0,0,0-3.55,2.88c-1.43,2.7,0,5.71,3.08,6.76Z"/><path d="M499.61,53.46c-1.7-.51-3.38-1.1-5.08-1.69l-.39-.35.49,1.84v-.13c1.08-1.82,3.32-2.88,5.43-3.69l.74-.38a1.58,1.58,0,0,0,.55-1.1,1.74,1.74,0,0,0-1.88-1.67c-.41,0-.81,0-1.22,0a10.58,10.58,0,0,0-5.15.33,5,5,0,0,0-3.45,3.42c-.18.8.35,1.66.62,2.49a2.45,2.45,0,0,0,2.88,1.89,2.49,2.49,0,0,0,2.25-2.62l.78.13-.48.55c.18-1.15,1.43-1.62,2.28-2.36l1.4-.56L498,46.86l-.7.52a1.62,1.62,0,0,1,.22.29,30,30,0,0,1-4,2.87L491.87,52a1.29,1.29,0,0,0,.51,1.84l1,.44-.46-.28c2.1.21,4.28.24,6.35.58a.68.68,0,0,0,.8-.42A.56.56,0,0,0,499.61,53.46Z"/><path d="M492.73,55.17a1.58,1.58,0,0,0-1.17-.17l-.14.27.73.36C492.68,55.89,492.84,55.57,492.73,55.17Z"/><path d="M491.42,55.27l-.31-.15.24.23,0,0Z"/><path d="M600.9,241.1c.38.15.78.26,1.17.39.23,0,.35.1.65.17s.66.17,1,.24.66.14,1,.19l1.13.15,1.14.16,1.17,0a36.36,36.36,0,0,0,9.61-.74,46.18,46.18,0,0,0,18.78-8.89,49.61,49.61,0,0,0,7.72-7.48,58.38,58.38,0,0,0,6.32-9.29,73.76,73.76,0,0,0,7.74-22.28,4.43,4.43,0,0,0,.12-2.06c-.11-.07-.31.76-.51,1.74a73,73,0,0,1-7.64,22.16,58.6,58.6,0,0,1-6.23,9.24,49.4,49.4,0,0,1-7.61,7.42A45.77,45.77,0,0,1,618,241.15a36.79,36.79,0,0,1-9.48.81,19,19,0,0,1-2.27-.2c-.73-.11-1.54-.16-2.17-.32a20.91,20.91,0,0,1-2.82-.77c-.4-.12-.76-.17-.88-.07S600.52,241,600.9,241.1Z"/><path d="M732.2,56.45c-1,.13-.9.24.08.26s2.34-.08,3.28-.1.76-.18-.08-.26A15.92,15.92,0,0,0,732.2,56.45Z"/><path d="M725.16,65.35a50.25,50.25,0,0,0-12.84,4.73,21.75,21.75,0,0,1-2.08,1c.16,0,0,.16-.3.39a17.35,17.35,0,0,1-1.65,1.09c-1.88,1.06-3.62,2.36-5.4,3.59s-3.43,2.66-5,4.19-3.07,3.07-4.56,4.64l-2.06,2.53c-.71.81-1.26,1.76-1.91,2.62a51.55,51.55,0,0,0-6,11.38A57.44,57.44,0,0,0,680.26,114a88,88,0,0,0-.5,13.56c.16,4.64.66,9.4,1.25,14.23s1.35,9.78,2,14.83,1.39,10.22,1.81,15.55a6.25,6.25,0,0,1,.58,1.78,46.31,46.31,0,0,1,.74,6.45,68.57,68.57,0,0,1-.19,9.07c-.15,1.61-.32,3.22-.56,4.82a104.73,104.73,0,0,1-7.68,28.55,85,85,0,0,1-16.56,25.29,61.09,61.09,0,0,1-10.43,9.94c-1.72,1.43-3.57,2.7-5.41,4s-3.79,2.46-5.82,3.51-4.07,2.08-6.16,3c-1.06.46-2.14.87-3.22,1.29s-2.19.81-3.31,1.16c-2.21.77-4.51,1.31-6.83,1.87a69.43,69.43,0,0,1-7.12,1.11,71.23,71.23,0,0,1-7.33.39c-2.48-.1-4.93-.16-7.54-.52,1.27.35,2,.63,2,.83-.23.21-1.57.3-3.56.07l-.8-.09a5.26,5.26,0,0,1-.94-.12c-.65-.12-1.34-.25-2.05-.41a43.71,43.71,0,0,1-4.51-1.31,50.51,50.51,0,0,1-9-4.13,52.61,52.61,0,0,0,13.12,5.61c1.15.3,2.34.63,3.48.82s2,.42,3.09.56l1.54.23,1.5.14,3,.27c1.15.08,2.21.07,3.18.12a70.41,70.41,0,0,0,25.43-4.84,79.82,79.82,0,0,0,23.47-14.23,77.59,77.59,0,0,0,9.41-9.69c1.48-1.72,2.72-3.52,4-5.3s2.46-3.63,3.52-5.52a96.11,96.11,0,0,0,9.79-23.4,115.31,115.31,0,0,0,3.67-36l-.17-2.91c-.07-1-.16-1.9-.25-2.86l-.26-2.83-.33-2.79c-.88-7.39-2.06-14.43-3.06-21.22-2-13.53-3.11-26.26-.28-37.81a10.44,10.44,0,0,1,.86-2.51c.23-.39.33-.27.1.55l-.36,1.31c-.12.44-.17.91-.26,1.36-.17.91-.33,1.81-.5,2.71l-.3,2.75-.15,1.37,0,1.39c0,.92-.07,1.84-.11,2.76s0,1.87,0,2.8,0,1.87.12,2.81.12,1.88.2,2.83c.72,7.61,2.19,15.34,3.83,23.69.81,4.14,1.63,8.51,2.39,13s1.4,9.29,1.76,14.38a113.64,113.64,0,0,1-2.22,32.75,98,98,0,0,1-18.14,39.4,87.93,87.93,0,0,1-16.44,16.09,85.55,85.55,0,0,1-20.61,11.32A76.22,76.22,0,0,1,609,283l-3.2.08c-1.07,0-2.15-.06-3.23-.09s-2.14-.1-3.25-.19-2.26-.22-3.39-.41l-1.72-.26a17.5,17.5,0,0,1-2-.36c-1.34-.27-2.66-.62-4-1s-2.61-.8-3.91-1.24-2.57-.95-3.82-1.5c-10-4.32-18.88-11.67-24.13-21.36A49.83,49.83,0,0,1,551,241a54.24,54.24,0,0,1-.75-8.36c0-1.41,0-2.82.06-4.23l0-.53a2.44,2.44,0,0,1,0-.54l.09-1.08c.05-.62.08-1.22.15-1.79.29-2.44.7-4.75,1.16-7,.25-1.09.48-2.21.76-3.27l.41-1.58.43-1.45c.58-1.93,1.14-3.9,1.76-5.77s1.31-3.65,2-5.46c2.73-7.06,5.72-13.44,8.59-19.35s5.6-11.25,7.93-16.32c1.21-2.55,2.18-4.92,3.17-7.29l1.27-3.4c.42-1.12.68-2.15,1-3.23A42.78,42.78,0,0,0,581,139.27c-.05-.79-.08-1.56-.08-2.34s-.22-1.4-.26-2.1-.35-1.4-.46-2.09a6,6,0,0,0-.31-1.05q-.18-.52-.33-1.05c-1.93-5.6-6.18-11.61-12.08-16.37a44.82,44.82,0,0,0-6.3-4.24c-1.06-.68-2.23-1.11-3.3-1.69l-1.68-.68-.82-.35c-.3-.11-.63-.21-.94-.31l-1.87-.66-1.94-.55-1-.28-1-.23-2-.46c-1.39-.21-2.71-.54-4.13-.68-.71-.08-1.4-.2-2.11-.28l-2.15-.18c-.71-.08-1.45-.09-2.19-.13l-1.09,0h-.22l-.64,0-1.32.12c-.88.09-1.73.09-2.62.21-3.49.26-7.07.66-10.74,1.16-2.69.82-5.58-1.28-6.5-4.9a7.54,7.54,0,0,1,.93-6l-.76.07-1.26-.26a5.22,5.22,0,0,1-3.15-2.1l-1.12-1.38c-1.66-2.71-4.05-4.73-5.69-7.59V81.68l-.31-.29a6.22,6.22,0,0,1-2.17-2.78l-.22-1.4a13.52,13.52,0,0,1,.32-4.76,4.72,4.72,0,0,1-.11-1.75,6.89,6.89,0,0,1-1.34-4.49.94.94,0,0,1-.15-1.39,1,1,0,0,1,.47-.31h0c-.28-.32-.36-.42-.71-.77-.4,0-.63-.1-.63-.1l-1.91-.09a5.2,5.2,0,0,1-1.44-.92c-1.38-2.3-1.39-2.3-1.5-3.4a1.78,1.78,0,0,1,.09-.33c-.75-.22-.8-.24-1-.31a2.36,2.36,0,0,1-.41-.35c-.17-.56-.17-.56-.33-.75a2.3,2.3,0,0,1-.13-.42c.22-.72.22-.72.19-.91a1.67,1.67,0,0,1,.14-.35l.62-.45,1.29,1.29.09-.56.37.64-.27-.6.56.28-.66-.43a4.66,4.66,0,0,0,1.62-.13,2,2,0,0,0,.9-.28,2.05,2.05,0,0,1-.11-.33c1.27,0,1.27,0,2.51.07a4,4,0,0,1,.35.37.58.58,0,0,1,.54-.33h.64l.11-.11v0l.47-.38.1-.1h0c.67-.57,1.37-1.1,2.07-1.64a7.51,7.51,0,0,1,1.1.14c-.12-.08-.24-.15-.35-.24s-.14-.75-.26-.78a20.21,20.21,0,0,0-4.36-.69c-1.47-.08-3-.14-4.46-.14a1,1,0,0,1-1.22-.49.87.87,0,0,1,.63-1.1c5.18-4.13,12.83-4.8,19.24-2.92l5,.43L517,47l1.31.37.14,0-1-1c-.23-.1-.47-.19-.7-.27a32.89,32.89,0,0,1-5.68-.87c-1.88-.41-3.75-.84-5.68-1.14s-3.93-1-6-1.46a.82.82,0,0,1-.91-.72.86.86,0,0,1,.89-.77c6.22-1.71,13.89-1.68,19.26,1.59a6,6,0,0,1,3.29.81H522l-.76-.82c.89.17,1.39.89,2.2,1.17-.1-.36-.22-.78-.33-1.15,2.2.36,4.46.42,6.71.75a29.52,29.52,0,0,1,3.3.58,16.07,16.07,0,0,1,3.11,1.14,3.5,3.5,0,0,1,.46.14,19.68,19.68,0,0,1,2.76-.87l.72-.13c.08,0,.07,0,.23,0l1.24.11,2.5.22a104.48,104.48,0,0,1,10.44,1.68l-3.62-.86-3.6-.7c-1.2-.23-2.4-.48-3.6-.63l-3.39-.51h.25l.49,0,1,.07,2,.15c1.31.09,2.64.3,4,.46,2.63.29,5.29.8,8,1.32a96.93,96.93,0,0,1,16.28,4.87A94.83,94.83,0,0,1,594,62.69a91.8,91.8,0,0,1,17.28,16.82,80.23,80.23,0,0,1,11,18.33c.67,1.45,1.19,2.94,1.69,4.37s1,2.76,1.32,4.12a54.65,54.65,0,0,1,1.54,7.36,75.3,75.3,0,0,1,3.37,24.08,86.23,86.23,0,0,1-3.94,22.92c-.58,1.74-1.1,3.56-1.74,5.22l-1.94,5c-1.38,3.15-2.78,6.33-4.26,9.24-2.92,5.92-6,11.41-8.84,16.55s-5.6,10.12-7.87,14.84A100.83,100.83,0,0,0,596,225.18a36.6,36.6,0,0,0-1.28,5.65c0,.24,0,.33,0,.45s0,.25,0,.38,0,.51,0,.76a10.72,10.72,0,0,0,.13,1.5,8.34,8.34,0,0,0,1,2.81,7.87,7.87,0,0,0,2,2.2c.65.49,1.17,1,1.15,1.3s-.75.22-1.51-.29a8.48,8.48,0,0,1-3.17-3.51,10.64,10.64,0,0,1-1-4.78c0-.21,0-.43,0-.62a3.94,3.94,0,0,1,0-.4,4.36,4.36,0,0,1,.06-.49c.08-.66.2-1.35.34-2s.31-1.45.49-2.19l.31-1.14.4-1.23.79-2.46c.23-.82.62-1.68.93-2.51l1-2.53,1.13-2.58c3.06-6.91,7-14.07,11.22-21.85a201,201,0,0,0,12.14-25.77,173.46,173.46,0,0,1-10.69,21.62c-3.74,6.59-7.46,12.73-10.69,18.69a107.75,107.75,0,0,0-7.87,17.44,36.72,36.72,0,0,0-1.18,4c-.15.63-.3,1.27-.4,1.88s-.21,1.28-.25,1.61a14.47,14.47,0,0,0,.33,5.16,10.37,10.37,0,0,0,2.68,4.53,17,17,0,0,0,4.21,3,17.75,17.75,0,0,0,3.16,1c.44.11,1.32.31,2.06.43s1.6.2,2.42.3a38.34,38.34,0,0,0,10.12-.37,45.09,45.09,0,0,0,10.14-3,51.58,51.58,0,0,0,9.49-5.32,53.41,53.41,0,0,0,15-16.32,71.6,71.6,0,0,0,8.56-22.33,83,83,0,0,0,1.52-10.45,88.38,88.38,0,0,0,.3-10.43c-.14-7-.93-14.35-1.79-22s-1.83-15.66-2.07-24.33c0-2.17-.11-4.35,0-6.61,0-1.12,0-2.23.1-3.38l.24-3.45c.06-1.14.21-2.32.36-3.5s.29-2.35.47-3.54L659,107l.36-1.81.48-1.81a73.39,73.39,0,0,1,3.33-10.08c.73-1.61,1.42-3.24,2.21-4.81l2.52-4.59a78,78,0,0,1,12.81-16,80.27,80.27,0,0,1,34.42-19.63A77.47,77.47,0,0,1,735,45.54a78.84,78.84,0,0,1,19.7,2.39,87.06,87.06,0,0,1,18.5,6.89,85.52,85.52,0,0,1,16.59,11c5.51,4.54,9.62,9.8,9.78,10.75.1.48-.74-.21-2.21-1.64s-3.67-3.52-6.33-5.8a86.61,86.61,0,0,0-36-18.87,79.17,79.17,0,0,0-20.57-2.35,74.5,74.5,0,0,0-20.64,3.36,79.26,79.26,0,0,0-34.73,22,73.55,73.55,0,0,0-11.88,17.34c-.73,1.62-1.49,3.22-2.16,4.87s-1.22,3.37-1.79,5l-1.37,5.08c-.37,1.7-.68,3.4-1,5.1a105.16,105.16,0,0,0-1.21,20c.17,6.48.75,12.74,1.38,18.82,1.27,12.12,2.76,23.62,2.21,34.35a93.16,93.16,0,0,1-2.18,16A78.9,78.9,0,0,1,655.86,215a63.32,63.32,0,0,1-8.19,13.22c-.78,1.05-1.66,1.93-2.49,2.88s-1.78,1.8-2.68,2.69a53.37,53.37,0,0,1-5.94,4.76,49.15,49.15,0,0,1-23.42,8.86c.12.07.23.15.24.24,0,.37-.69.84-2,1.15,9.36-.31,19.05-4,27.32-9.87,11-8.68,18.53-21.71,22.23-36.31a97.71,97.71,0,0,0,2.92-22.82c.06-7.92-.65-16.28-1.46-25.2-1-12.2-2.1-24.65-.5-37.36a76.82,76.82,0,0,1,4.71-18.73,68.59,68.59,0,0,1,9.63-16.79,75.33,75.33,0,0,1,17.23-16.91,73.84,73.84,0,0,1,21.66-10.6,72.14,72.14,0,0,1,24.12-3,78.63,78.63,0,0,1,23.67,4.93,14.06,14.06,0,0,1,2.83,1.24c.38.29-.27,0-1.49-.38a81,81,0,0,0-16.13-4.19c-1.39-.17-2.77-.43-4.18-.53l-4.22-.3a80.27,80.27,0,0,0-8.49.19,69.5,69.5,0,0,0-16.76,3.34A77.92,77.92,0,0,0,699,62.63c3.29-1.49,5.38-2,5.32-1.51,0,.27-.58.82-1.57,1.58-.5.38-1.1.8-1.8,1.28s-1.43,1.07-2.27,1.67c2.09-1.37,4.34-2.47,6.55-3.64,2.29-1,4.54-2.1,6.92-2.88A24.15,24.15,0,0,1,715.9,58c1-.2,1.56-.26,1.55-.13,0,.29-2.32,1-5,2.06a73.26,73.26,0,0,0-7,2.92c-2.22,1.18-4.47,2.31-6.58,3.7l-1.6,1c-.53.34-1,.73-1.54,1.09-1,.74-2.06,1.45-3.05,2.23l-2.91,2.42c-1,.8-1.84,1.73-2.77,2.58a65.23,65.23,0,0,0-9.62,11.7,61.4,61.4,0,0,0-6.69,13.69,75.07,75.07,0,0,0-3.39,17.77,122.88,122.88,0,0,0,.12,17.7c.86,11.64,2.67,22.94,3.45,34.17a30.63,30.63,0,0,1,.8-6.64h0c-.33-3.51-.71-7-1.1-10.52-1.05-8-2.12-16.17-2.39-24.5a100.06,100.06,0,0,1,.32-12.58c.26-2.1.44-4.21.87-6.31.21-1.05.35-2.1.61-3.14l.8-3.12a30.65,30.65,0,0,1,1-3.09c.36-1,.68-2,1.08-3.06l1.3-3c.22-.49.42-1,.67-1.48l.77-1.43c.51-1,1-1.91,1.55-2.85l1.75-2.73.89-1.36,1-1.3,2-2.59,2.14-2.44,1.08-1.22,1.15-1.14,2.31-2.28,2.47-2.12,1.23-1c.43-.34.87-.65,1.3-1L697,68.09c.89-.62,1.82-1.18,2.73-1.77a30.4,30.4,0,0,1,2.8-1.67l2.86-1.56c1-.49,2-.91,3-1.37,1.95-1,4-1.64,6.07-2.42a66.9,66.9,0,0,1,12.77-3,69.68,69.68,0,0,1,26.05,1.59A78,78,0,0,1,796.09,86.3a9.88,9.88,0,0,1,1.39,2.11,7,7,0,0,1-1.5-1.7,76.94,76.94,0,0,0-53.24-30.23h.08c.84.14,1,.27,0,.26a30.27,30.27,0,0,1-3.27-.28c-1-.13-.87-.23-.08-.26a72.1,72.1,0,0,0-14.67.82,71.29,71.29,0,0,0-14.08,4,73.81,73.81,0,0,0-12.86,6.87,72,72,0,0,0-11.13,9.34c-.88.83-1.62,1.79-2.44,2.69l-1.19,1.36c-.4.46-.74,1-1.11,1.44-.73,1-1.48,1.92-2.17,2.91l-2,3.06c-.68,1-1.19,2.1-1.78,3.16a32.63,32.63,0,0,0-1.62,3.24l-1.45,3.33-1.18,3.43a68.84,68.84,0,0,0-2.86,14,96.4,96.4,0,0,0-.38,14.09,103.71,103.71,0,0,1,.46-13c.29-2.17.5-4.35,1-6.5.23-1.08.37-2.17.68-3.23l.86-3.19a59,59,0,0,1,5.15-12.2,61.47,61.47,0,0,1,3.5-5.63c.61-.91,1.33-1.75,2-2.64A31.81,31.81,0,0,1,684.35,81l2.21-2.46c.76-.79,1.57-1.54,2.35-2.31l1.19-1.14c.41-.37.84-.71,1.26-1.07l2.52-2.12L696.55,70l1.33-1,1.4-.88,2.79-1.74L705,64.85c.49-.25,1-.52,1.46-.76l1.5-.67c1-.44,2-.91,3-1.32,2.07-.72,4.1-1.58,6.23-2.11a64.58,64.58,0,0,1,12.93-2.38,66,66,0,0,1,11.52-.33,13.39,13.39,0,0,1,2.85.41c.28.13-.5.1-1.58.05l-3.21-.19c6.64.42,11.49,2.19,11.26,2.64-.48.45-6-.48-12.65-.73A67.7,67.7,0,0,0,725,60.4a69.71,69.71,0,0,0-12.82,3.73A68,68,0,0,0,690,78.69c-1.4,1.33-2.6,2.83-3.86,4.28a28,28,0,0,0-1.71,2.34c-.54.79-1.11,1.57-1.62,2.38A66.75,66.75,0,0,1,715.4,63.78c12.91-4.51,27.14-4.16,40-.15.55.16,1.09.32,1.57.48s.91.37,1.27.53c.73.32,1.17.58,1.16.67s-.46,0-1.18-.17L757,64.76l-1.57-.43A63.14,63.14,0,0,0,691,81.89a59.57,59.57,0,0,0-9.92,14.22,56.73,56.73,0,0,0-5.16,16.47c-1.86,11.54-.72,23.56.73,35.7,1.38,7.94,2.94,16,3.91,24.41a120.52,120.52,0,0,1,.89,12.89,106.92,106.92,0,0,1-.58,13.22c.17-1.11.38-2.22.52-3.34s.27-2.24.4-3.37a116.72,116.72,0,0,0,.09-21c-.52-6.73-1.42-13.17-2.29-19.41-1.75-12.45-3.41-24.26-2.39-35.65A58.08,58.08,0,0,1,681,99.64,55.42,55.42,0,0,1,689.66,85a61.78,61.78,0,0,1,29.27-19.71,9.15,9.15,0,0,1,2.36-.53c.15,0-.62.39-1.81.74A61.45,61.45,0,0,0,691,84.2a56.69,56.69,0,0,0-8.85,14.07l-.78,1.93a18.84,18.84,0,0,0-.73,1.94c-.38,1.33-.87,2.62-1.2,4s-.66,2.73-.91,4.13-.47,2.81-.63,4.24a86.23,86.23,0,0,0-.35,14.38c.23,4.81.78,9.63,1.44,14.48,1.3,9.68,3.08,19.44,4,29.59-.65-10.4-2.27-20.18-3.41-29.63-.59-4.73-1.06-9.36-1.27-13.92-.15-2.29-.12-4.53-.14-6.79s.13-4.46.4-6.63a56,56,0,0,1,2.65-12.71,50.92,50.92,0,0,1,5.59-11.65,58.44,58.44,0,0,1,8.34-10.22,65.49,65.49,0,0,1,10.57-8.25,31.68,31.68,0,0,1,3.69-1.91,2.1,2.1,0,0,1,.73-.52,54,54,0,0,1,13.44-5.38,11.09,11.09,0,0,1,2.66-.45C726.77,64.92,726.19,65,725.16,65.35Zm-212.73-6.8-.17-.19.58.3.9,1.32Zm-8.63,6.3h0l-.55-.71ZM607.21,192.7c2.56-4.59,5.22-9.29,7.76-14.36,1.3-2.47,2.51-5.14,3.73-7.78.61-1.31,1.15-2.75,1.72-4.12s1.15-2.76,1.63-4.25l1.49-4.39c.44-1.52.84-3.06,1.25-4.6.19-.78.42-1.53.59-2.32l.45-2.41c.27-1.61.62-3.2.81-4.84a76.67,76.67,0,0,0-.13-20.24,73.33,73.33,0,0,1,.87,19.81,37.44,37.44,0,0,1-.57,3.72l-.68,3.68c-.53,2.4-1.22,4.71-1.85,7.06s-1.53,4.47-2.34,6.66-1.74,4.23-2.67,6.27A231.54,231.54,0,0,1,607.21,192.7ZM505.28,54.09a11.47,11.47,0,0,1,2.57,2.24,5.57,5.57,0,0,1,1.76-.4,34.45,34.45,0,0,1,4.88.08c-.25-.47.13-.44.32-.51l.59-.17c-1.72-.19-3.47-.49-5.23-.68C508.57,54.47,506.84,54.42,505.28,54.09ZM494,58l-.17-.15L494,57S494,57.43,494,58Zm-.21,1.33.26.05C494,59.63,493.91,59.55,493.77,59.29Zm2.34.46a1.65,1.65,0,0,0-.39-.33Zm5.78,21.06,0-3.77-.11,3.64Z"/><path d="M576.27,125.78c0,.17,0,.35,0,.52-.29,0-.52-.17-.69-.5.49,4.7,5.17,6.23,9,5.63a1.74,1.74,0,0,0,2.65-.34,2.35,2.35,0,0,0,0-3,3.16,3.16,0,0,1-.23-.78,20.32,20.32,0,0,0-1.27-6.66c0,.53.09,1.08.14,1.61a4.27,4.27,0,0,0-.82-1.65l-.25.67a3.8,3.8,0,0,0-1.63-2.78,3.44,3.44,0,0,0-3.14-.24,6.16,6.16,0,0,0-3.87,6.29Z"/><path d="M574.7,133.87a40.81,40.81,0,0,1-1.14-4.38l.1-.49-1.13,1.52.09-.08a7.5,7.5,0,0,1,5.07,1l.6.18a1.47,1.47,0,0,0,1-.44,1.8,1.8,0,0,0,.28-2.26l-.55-.72c-1-2.23-3.17-4.6-6.14-3a6.69,6.69,0,0,0-1.64,2,2.31,2.31,0,0,0-.22,3.13,1.92,1.92,0,0,0,2.88-.18c.08.2.16.4.25.59-.21,0-.4,0-.6.05.9-.63,1.81-.18,2.71-.14l1,.5,1.29-2.7-.65-.08a1.68,1.68,0,0,1-.11.33,13,13,0,0,1-3.71-.59l-1.77-.22a1.56,1.56,0,0,0-1.16,1.51l.09,1c0-.17,0-.34,0-.5.37.79.79,1.55,1.22,2.31s.9,1.48,1.29,2.26a.47.47,0,0,0,.68.24A.62.62,0,0,0,574.7,133.87Z"/><path d="M570.29,130.44a1.14,1.14,0,0,0-.37-.9l-.27.07c0,.2,0,.46,0,.73C569.73,130.86,570,130.77,570.29,130.44Z"/><path d="M569.65,129.61c0-.18,0-.3,0-.3s-.06.21-.08.3l0,0Z"/><path d="M650.46,162.16a111.32,111.32,0,0,0,24.19,1.41c.27,0,.49-.12.49-.24s-.23-.2-.48-.17a112.17,112.17,0,0,1-24.08-1.47c-.26,0-.48,0-.53.16S650.22,162.12,650.46,162.16Z"/><path d="M714.11,164.65c-.17.15-.12.24.11.22a1.26,1.26,0,0,0,.66-.29c.14-.13.09-.24-.11-.22A1.25,1.25,0,0,0,714.11,164.65Z"/><path d="M715.33,172.64a30.19,30.19,0,0,0-3.13,2,1.48,1.48,0,0,1-.56.23c.13.13,0,.37-.47.6-8.13,4.77-17.67,8.41-27.36,11.36a1,1,0,0,1-.34.53,6.41,6.41,0,0,1-3.39,1.32l-1.1.1c-4.41.55-8.84.94-13.26,1.09a13.07,13.07,0,0,1-3.07.71A106.3,106.3,0,0,1,651,192.88c.25.15.39.32.39.51-.09.46-1,.81-2.12.81l-1.65,0,4.72.31a4,4,0,0,1,.62,0q2.6-.1,5.25-.3A116.93,116.93,0,0,0,680.3,190a144.31,144.31,0,0,0,20.09-7.65,1.42,1.42,0,0,1,.76-.2c.16,0,.17.17-.06.3-2,1.11-3.86,2.27-5.77,3.41s-3.84,2.23-5.83,3.31-4,2.12-6.25,3.09c-1.1.48-2.23.95-3.4,1.41s-2.37.91-3.63,1.29l-4.52,1.42-4.58,1.25c-1.53.43-3.07.78-4.63,1.13s-3.12.73-4.69,1a156.52,156.52,0,0,1-19.51,2.53c-6.94-.22-13.66-.56-20.48-1.08a204.91,204.91,0,0,1-20.87-2.79,148.71,148.71,0,0,1-15.59-3.93,134.17,134.17,0,0,1-24.47-9.77,9.59,9.59,0,0,1-4.75-4,5.72,5.72,0,0,1-.25-5.19,6.41,6.41,0,0,1,5.32-3.33l-.87-.59-1.18-1.25a5.86,5.86,0,0,1-1.67-4.09l0-1.88c.48-3.19,0-6.51,1-9.63l.93-.74v-.43A5.44,5.44,0,0,1,556,150l.95-1a14,14,0,0,1,3.89-2.69,4.81,4.81,0,0,1,1.27-1.2,6.9,6.9,0,0,1,2.58-3.85,1,1,0,0,1,1-1,.86.86,0,0,1,.49.15h0a8.38,8.38,0,0,0,.18-1c-.17-.31-.26-.51-.26-.51-.51-.78-.51-.78-.93-1.47a4.52,4.52,0,0,1,0-1.61c1.1-2.41,1.11-2.41,1.89-3.17a2.2,2.2,0,0,1,.31-.15c-.18-.65-.19-.7-.23-.89a2.5,2.5,0,0,1,.08-.5c.37-.46.37-.46.44-.68a2.4,2.4,0,0,1,.27-.36c.66-.29.65-.29.78-.42a1.6,1.6,0,0,1,.34-.13l.61.14-.42,1.69.46-.29-.31.66.33-.56,0,.57,0-.74c.53.81.53.81.82,1a1.27,1.27,0,0,0,.61.44,2.44,2.44,0,0,1,.19-.28l1.13,1.7a3.29,3.29,0,0,1-.08.47.42.42,0,0,1,.5.13l.32.42h.13l0,0,.51,0H574l2.16.19a8,8,0,0,1,.47.77c0-.12,0-.24,0-.37s.44-.61.4-.71a18.71,18.71,0,0,0-1.62-3.19c-.31-.5-.63-1-1-1.46l-.91-1.5a.83.83,0,0,1-.13-1.12.76.76,0,0,1,1-.29,10.72,10.72,0,0,1,1.82.42,11.32,11.32,0,0,1,1.71.64,13.31,13.31,0,0,1,3,2,20.33,20.33,0,0,1,4.54,6,37.42,37.42,0,0,0,2.53,2.79v-.33l.56.89.08.07-.09-1.23-.26-.52a15,15,0,0,1-2.57-3.47l-1.07-1.91c-.34-.65-.67-1.31-1-1.93a25.17,25.17,0,0,1-1.67-4.36.8.8,0,0,1,.11-1,.55.55,0,0,1,.86,0,19,19,0,0,1,8.22,10.93,3.81,3.81,0,0,1,1.41,2.09l0,0c0-.33,0-.65,0-1,.39.54.35,1.29.69,1.84.12-.35.24-.71.35-1.06a47,47,0,0,0,3.61,3.12,14.07,14.07,0,0,1,3.34,3.49,2.83,2.83,0,0,1,.25.24,7.76,7.76,0,0,1,4.84.94c-.65-.47-1.3-1-1.91-1.44a21.45,21.45,0,0,1,4.83,1.79c.54.29,1.08.61,1.61.95s1.09.65,1.62,1a35.34,35.34,0,0,1,3.05,2.31,18.53,18.53,0,0,1,4.45,5,129.93,129.93,0,0,0,14.25,3.9,117.94,117.94,0,0,0,14.61,2.12c.5,0,1,.25,1,.52s-.31.46-.82.44a97.19,97.19,0,0,1-21.44-2.54,91.33,91.33,0,0,0,18,4.82l2.42.22a17.7,17.7,0,0,1,2.37.38,98.76,98.76,0,0,0,24.11-.09,127.48,127.48,0,0,0,19.88-4.5c4.73-1.49,9.19-3.08,13.56-4.83s8.71-3.55,13.23-5.48c1.16-.58,2.42-.78,2.78-.45s-.31,1.08-1.49,1.69a150.12,150.12,0,0,1-14,6.62c-2.37,1-4.82,1.87-7.24,2.79s-4.91,1.68-7.43,2.34a109.66,109.66,0,0,1-15.39,3.32,94.54,94.54,0,0,1-16,1l-3.48-.09-3.43-.23a.82.82,0,0,1,.06.26,1.19,1.19,0,0,1-.59.91l3.92.34,4,.26c7.36-.74,14.59-1.92,22.42-2.8l4-.45c1.31-.13,2.59-.25,3.86-.43l3.81-.43,3.78-.58a166.29,166.29,0,0,0,17.85-7.24,1,1,0,0,1,.62-.15c.12.05,0,.18-.19.32-1.91,1.18-3.94,2.18-6,3.27s-4.14,2-6.28,2.91c.8.08,1.36.33,1.46.76s-.29,1-1,1.56l1.53-.48,1.51-.55c.63-.21,1.18-.23,1.25,0s-.36.59-1,.8c-1,.4-2.07.76-3.11,1.08l-3.13,1c-2.1.65-4.21,1.22-6.32,1.81a149.27,149.27,0,0,1-15.25,4,3.32,3.32,0,0,1,1.73,1h0l2.41-.48a243.53,243.53,0,0,0,42.35-16.91c.27-.14.52-.19.58-.11s-.12.25-.37.37c-4.15,2.11-8.3,4.19-12.55,6h0c.2,0,.28.07.12.22a1.56,1.56,0,0,1-.67.29c-.22,0-.25-.1-.11-.22a244.29,244.29,0,0,1-24,9.1,203.89,203.89,0,0,0,22.58-7.13l2.23-1.37a1.05,1.05,0,0,1,.64-.14c.1.05,0,.22-.23.34l-.63.37c1.39-.55,2.62-.63,2.82-.15s-.88,1.42-2.33,2c-3.82,1.79-7.73,3.33-11.7,4.73-.42.19-.84.37-1.26.53l-1.23.67a163,163,0,0,0,18.55-6.5c.5-.26,1-.34,1.08-.18s-.25.51-.76.76a150.37,150.37,0,0,1-15.81,7.6,151.29,151.29,0,0,1-16.88,5.66L683,182.77c-1.87.86-3.78,1.67-5.72,2.52l1.54-.25a79.69,79.69,0,0,0,17.88-5.62c5.57-2.34,10.89-5,16.57-7.62.28-.14.55-.16.62-.09s-.09.25-.39.37c-2.74,1.38-5.4,2.61-8,4s-5.34,2.58-8.22,3.71c-4.74,2-9.37,3.57-13.93,5.3,9.56-2.29,18.24-6.08,27-10a2.56,2.56,0,0,1,1.06-.3c0-.06.07-.13.17-.21a38.56,38.56,0,0,1,3.29-2.07,1,1,0,0,1,.69-.18C715.67,172.33,715.57,172.48,715.33,172.64ZM578.67,145.26V145l.2.55-.18,1.49S578.68,146.17,578.67,145.26Zm-9.58-.88h0c.09-.5.16-.86.16-.86C569.18,143.87,569.13,144.15,569.09,144.38Zm63.31,18.44A51.38,51.38,0,0,1,620,158.19c1,.27,2,.61,3.05.83,1.53.63,3.06,1.32,4.61,1.95Zm-55.18-25a14.32,14.32,0,0,1,0,3.14,3.72,3.72,0,0,1,1.28.76,37.16,37.16,0,0,1,3,2.76c.11-.49.33-.26.49-.22l.47.19q-1.44-1.63-2.82-3.37A23.05,23.05,0,0,1,577.22,137.81Zm-8.46-4.74,0-.22.66-.39Zm-1.1.69c0,.06.05.13.08.21C567.52,134.13,567.53,134,567.66,133.76Zm.78,1.94a1.54,1.54,0,0,0,0-.48ZM556,153.42,559,151l-2.9,2.22Z"/><path d="M331.32,124.76l.65,0c-.08.35-.44.63-.93.87a13.8,13.8,0,0,0,7.43-3.88,20.85,20.85,0,0,0,4.43-6.37c1.37-.73,2.06-2.06,1.54-3s-2.14-1.13-3.59-.39a5.71,5.71,0,0,1-1.14.2,27.76,27.76,0,0,0-9.6,1.45l2.25-.25a11.14,11.14,0,0,0-2.8,1.09l.74.28c-3.69.58-7,3.49-7.1,6.43s3,4.61,6.52,3.88Z"/><path d="M340.36,126.44c-1.85.44-3.68.85-5.59,1.25l-.55-.08,1.4,1.23-.06-.11c.1-2,1.68-4,3.3-5.71l.51-.67a1.28,1.28,0,0,0,0-1.13,1.87,1.87,0,0,0-2.56-.39l-1.16.62c-3.25,1-7.42,4.1-6.43,7.43.24.76,1.21,1.17,1.91,1.7a2.85,2.85,0,0,0,3.73,0c1.22-.91,1.58-2.35.8-3.28l.79-.31c-.05.23-.11.46-.17.69-.41-1,.52-2,1-3.06l1.06-1.13L335.68,122l-.42.76a1.83,1.83,0,0,1,.35.12,33.78,33.78,0,0,1-2.36,4.32c-.31.68-.62,1.38-.92,2.08a1.22,1.22,0,0,0,1.45,1.22l1.17-.17h-.59c2.13-.92,4.13-2,6.22-2.82a.7.7,0,0,0,.53-.74A.54.54,0,0,0,340.36,126.44Z"/><path d="M334.8,131.38a2,2,0,0,0-1.19.49c0,.17,0,.26,0,.3l.88-.1C335.13,132,335.12,131.64,334.8,131.38Z"/><path d="M333.62,132.17l-.37,0,.35.06s0-.05,0-.05Z"/><path d="M390.14,268.61l-.32.9a4.83,4.83,0,0,1-.24.5l-.46.9c-.33.6-.54,1.22-.82,1.84a28.24,28.24,0,0,0-1.31,3.86,16.67,16.67,0,0,0-.61,4.11,8.32,8.32,0,0,0,.91,4.07,6.45,6.45,0,0,0,3.1,2.71,12.34,12.34,0,0,0,4.09.9,30.32,30.32,0,0,0,4.26,0l2.15-.19,4.92-.58c.84-.1,1.54-.33,1.55-.52s-.67-.23-1.45-.12l-5,.58-2.05.18a30.6,30.6,0,0,1-4.06,0,12.18,12.18,0,0,1-3.88-.83,6.21,6.21,0,0,1-3-2.54,7.66,7.66,0,0,1-.9-3.84,15.07,15.07,0,0,1,.56-3.91,26.25,26.25,0,0,1,1.24-3.66c.26-.58.46-1.17.76-1.74l.44-.85.22-.42a3.34,3.34,0,0,0,.14-.38l.16-.45a2.76,2.76,0,0,0,.19-1.42C390.62,267.59,390.36,268,390.14,268.61Z"/><path d="M535.63,289.62c-.54-.57-.63-.46-.24.24a14.29,14.29,0,0,0,1.47,2.2c.41.49.54.38.25-.24A11.25,11.25,0,0,0,535.63,289.62Z"/><path d="M523.34,291.67a26.76,26.76,0,0,0-8.34-5.05,7.27,7.27,0,0,1-1.34-.66c.06.28-.58.23-1.64-.07-5.25-1.41-10.7-.67-16.9,1.42-.77.25-1.56.55-2.36.84l-2.45,1-2.45,1-2.44,1.09c-3.25,1.48-6.49,3.15-9.75,4.93-6.53,3.56-13.1,7.65-20.14,11.81l-2.68,1.57c-1,.54-1.9,1.08-2.87,1.61-1.92,1.06-3.91,2.06-5.91,3.05a130.06,130.06,0,0,1-12.43,5.26,3.33,3.33,0,0,1-1.26,1.1c-2.17,1.44-7,3.21-12.11,4.12-1.29.22-2.58.39-3.87.57-1.92.29-4,.56-5.65.77l-2.83.34c-1.26.17-2.53.3-3.79.42a101.88,101.88,0,0,1-15.06.6A55.75,55.75,0,0,1,372.82,325a35.45,35.45,0,0,1-12.4-6.57,18.34,18.34,0,0,1-2.41-1.84,19,19,0,0,1-2.34-2.25l-1.09-1.29c-.37-.44-.67-.93-1-1.41s-.67-1-1-1.46l-.84-1.6a36.61,36.61,0,0,1-4.07-11.41c-.19-1-.36-2-.49-3.06a24.42,24.42,0,0,1-.32-3.12,51.74,51.74,0,0,1,.07-6.46,66,66,0,0,1,2.4-13.41c.63-2.27,1.57-4.43,2.4-6.66l1.29-3.34c.11-.28.21-.57.33-.84l.43-.77.85-1.55c-.78,1-1.36,1.53-1.59,1.44-.17-.25.21-1.37,1-3,.39-.82.88-1.77,1.45-2.8l.43-.79c.15-.26.31-.56.45-.75l.89-1.3,1.86-2.66.93-1.31,1-1.24a42.48,42.48,0,0,0-2.89,3.65l-1.39,1.89-.69.95c-.23.32-.51.79-.76,1.18-2,3.31-4.3,6.45-5.75,10.18-.46,1.05-.91,2-1.34,2.88a46.74,46.74,0,0,0-2.3,6.11c-.66,2.08-1.17,4.18-1.62,6.28A60.61,60.61,0,0,0,343,291.24a54.37,54.37,0,0,0,1.92,12.93c.36,1,.68,2,1.06,3l1.26,2.94,1.55,2.81c.58.9,1.22,1.77,1.82,2.66s1.35,1.69,2,2.53,1.53,1.52,2.3,2.28a28.65,28.65,0,0,0,2.46,2.07,24.92,24.92,0,0,0,2.63,1.85,44,44,0,0,0,11.69,5c8.23,2.18,17.17,2.2,25.95,1.17,2.2-.27,4.39-.58,6.56-.91.55-.07,1.09-.18,1.63-.27l1.38-.24,2.18-.42,4.59-.93c1.58-.35,3.16-.69,4.74-1.1a128.81,128.81,0,0,0,18.55-6.15,134,134,0,0,0,17-8.67c10-6.06,18.71-12,27.65-16.66a7,7,0,0,1,2.1-.86c.4,0,.4.18-.24.53a184.66,184.66,0,0,0-15.91,10.6l-8.08,5.91c-1.41,1-2.83,2-4.26,3.05s-3.17,2.15-4.82,3.19a122.24,122.24,0,0,1-34.52,15c-1.07.29-2.15.55-3.23.81l-3,.71-1.47.34-.77.16-.48.1-.6.11c-1.61.35-3.27.56-4.93.84-2,.32-4,.57-6,.85s-4,.39-6,.46l-3,.14c-1,.06-2,0-3,0s-2,0-2.95-.1l-2.91-.25c-1-.07-1.93-.23-2.88-.37s-1.91-.29-2.85-.49c-1.84-.47-3.74-.8-5.52-1.45a47.5,47.5,0,0,1-10.35-4.62L354,328.17l-2.25-1.76a27.67,27.67,0,0,1-2.15-1.89l-1.05-1-.26-.25-.07-.06c-.09,0-.06,0-.09,0l-.12-.13-.47-.54a45.36,45.36,0,0,1-6.57-9.27,44.12,44.12,0,0,1-4-10.59c-.42-1.87-.78-3.77-1.12-5.67a18.76,18.76,0,0,1-.32-2.94c0-1-.18-2-.14-3a64.21,64.21,0,0,1,1.06-12.44A59.9,59.9,0,0,1,340,266l2.55-6.17.65-1.55.32-.78c.11-.25.27-.47.4-.71l1.7-2.82,1.7-2.82.86-1.42.43-.71c.14-.23.29-.49.4-.64q1.44-2.08,2.91-4.13c.5-.67,1-1.37,1.5-2l1.63-1.91,1.64-1.89c.55-.63,1.1-1.25,1.68-1.81q1.73-1.73,3.47-3.39c1.17-1.09,2.35-2,3.52-3a148.56,148.56,0,0,1,13.32-9.56c4.35-2.72,8.31-5.15,11.79-7.81,1.82-1.3,3.42-2.7,5.07-4.11.85-.68,1.57-1.45,2.34-2.2s1.53-1.49,2.27-2.26c1.41-1.61,2.83-3.21,4.16-4.89s2.6-3.49,3.78-5.21a52.42,52.42,0,0,0,5.47-10.49,41.91,41.91,0,0,0,2.63-11.09,35.09,35.09,0,0,0-.6-10.86l-.28-1.31c-.11-.43-.25-.83-.37-1.25-.22-.83-.55-1.65-.82-2.46a31.35,31.35,0,0,0-2.2-4.69,30.07,30.07,0,0,0-6-7.63,12.54,12.54,0,0,0-4.15-2.62,2.61,2.61,0,0,0-.78-.18l-.17,0-.11,0a1,1,0,0,0-.2.08c-.25.12-.49.27-.82.41a5.53,5.53,0,0,1-1.58.44c-.34.08-1.82,0-1.85.19a9.82,9.82,0,0,0-1,.32,22.31,22.31,0,0,0-4.06,2c-.34.19-.71.48-1.06.7-.17.11-.35.25-.53.38l-.12.1-.38.33c-.25.22-.51.48-.77.7s-.51.48-.77.73-.51.48-.77.76c-1,1-2.09,2.12-3.13,3.31s-2.1,2.46-3.14,3.82c-1.27,2.37-4.06,2.58-6.47.3a7.66,7.66,0,0,1-2.3-5.35l-.5.51-1,.57a3.94,3.94,0,0,1-3.27.23l-1.5-.43c-2.58-1.18-5.43-1.43-8.2-2.81l-.64-1-.39-.05a5.59,5.59,0,0,1-3.2-1l-.93-1a12.45,12.45,0,0,1-2.28-4.05,4.67,4.67,0,0,1-1-1.37,6.41,6.41,0,0,1-3.48-2.9.88.88,0,0,1-.85-1,1.16,1.16,0,0,1,.25-.51h0a7.17,7.17,0,0,0-1-.24c-.38.17-.61.25-.61.25l-1.75.95a5.79,5.79,0,0,1-1.77.05c-2.48-1.13-2.5-1.13-3.19-2a3,3,0,0,1-.1-.32l-1.08.3a3,3,0,0,1-.57-.06c-.46-.37-.46-.37-.71-.43a2.41,2.41,0,0,1-.35-.28c-.19-.71-.18-.71-.32-.84a2.1,2.1,0,0,1-.06-.37l.35-.71,1.89.36-.21-.5.68.31-.56-.34.67-.07h-.85a6,6,0,0,0,1.46-1,2.32,2.32,0,0,0,.7-.69,2.35,2.35,0,0,1-.27-.2c1.18-.65,1.17-.66,2.34-1.26.19,0,.35.07.51.11a.57.57,0,0,1,.33-.54l.59-.33a1.21,1.21,0,0,0,.05-.14l0,0,.25-.54,0-.12h0c.17-.38.42-.92,1.12-2.35a9.44,9.44,0,0,1,1.08-.44H343c-.29,0-.48-.52-.61-.49a42.84,42.84,0,0,0-8.68,3.81,1.2,1.2,0,0,1-1.42.24c-.39-.27-.37-.81.05-1.21,2.89-6,10-10.14,16.86-11.72l4.94-2-.36-.09,1.41-.31.14-.06-1.39-.25c-.26,0-.53.07-.78.12-3.79,1.61-7.79,2.36-11.74,3.76-2.12.75-4.24,1.07-6.41,1.7a1,1,0,0,1-1.23-.12c-.2-.31,0-.79.5-1,5.27-4.31,12.77-7.77,19.36-7.69a8,8,0,0,1,3.55-.83l.06,0-1.07-.28a19.43,19.43,0,0,1,2.63-.09l-.78-.7c2.29-.7,4.65-1.53,7-2.22a25.84,25.84,0,0,1,7.22-1.15l.53-.06a20.35,20.35,0,0,1,2.63-1.53l.72-.33.23-.09,1.07-.26,2.21-.45a57.68,57.68,0,0,1,9.51-1c-1.15,0-2.28,0-3.39.09s-2.23.14-3.32.27-2.21.23-3.28.4l-1.63.25-1.42.26,0,0,.19,0,.42-.11.86-.2,1.74-.37c1.14-.25,2.35-.42,3.53-.61a58.41,58.41,0,0,1,7.33-.63c1.25,0,2.53,0,3.79,0s2.56.18,3.85.29l1.94.27,1,.14.49.08.24,0,.13,0,3.33.69a46.23,46.23,0,0,1,11.49,4.07,43.87,43.87,0,0,1,5.42,3.36c.8.61,1.58,1.22,2.35,1.84s1.42,1.27,2.12,1.91a54.4,54.4,0,0,1,11.54,16.29,61.08,61.08,0,0,1,4.89,15.35,53.48,53.48,0,0,1,.92,11.9,76.85,76.85,0,0,1-.35,16.83,92.05,92.05,0,0,1-3.61,16.05,107.8,107.8,0,0,1-6.13,14.93c-.62,1.18-1.21,2.39-1.87,3.55l-1,1.75-1,1.65-2,3.3c-.65,1.11-1.32,2.21-2,3.28-2.8,4.33-5.75,8.65-8.89,12.78L414.48,233l-2.41,3-1.21,1.53L409.65,239l-2.41,2.95c-3.15,3.83-6.23,7.56-8.76,11a57,57,0,0,0-5.79,9.93c-.54,1.32-1.09,2.35-1.44,2.41s-.17-1,.33-2.34c.46-1.16,1.05-2.32,1.58-3.52s1.34-2.39,2.06-3.62,1.61-2.47,2.53-3.75,1.87-2.55,2.93-3.89c4.16-5.25,9-10.9,13.55-16.79A201.62,201.62,0,0,0,426.9,213l2.83-4.76c.95-1.66,1.85-3.36,2.71-5.08a101.84,101.84,0,0,0,4.6-10.6c-1.16,3-2.5,6-3.94,8.82-.72,1.44-1.49,2.85-2.26,4.26l-1.2,2.08-1.23,2c-1.64,2.63-3.25,5.27-5.07,7.81-.9,1.27-1.73,2.61-2.67,3.85l-2.82,3.78c-3.81,5-7.88,9.85-12,14.41s-8,8.91-11.2,13.11l-1.18,1.62c-.37.54-.69,1.07-1,1.61l-1,1.59c-.33.53-.58,1.07-.88,1.59-.56,1.05-1.18,2-1.63,3.07l-.75,1.49-.39.73-.32.77-.75,2c-.12.3-.26.69-.36.91l-.28.61c-.36.81-.78,1.61-1.05,2.43a47.28,47.28,0,0,0-1.63,5,26.38,26.38,0,0,0-.83,5.13,12.08,12.08,0,0,0,.7,5.1,7.4,7.4,0,0,0,3.28,3.88,12.19,12.19,0,0,0,5,1.44,27.19,27.19,0,0,0,5.26-.12c.87-.1,1.74-.22,2.6-.37l1.29-.23c.46-.07.67-.14,1.76-.3,3.3-.52,5.81-.94,8.49-1.51s5.19-1.2,7.67-1.93a100.17,100.17,0,0,0,14.33-5.47c2.38-1.12,4.58-2.24,7.3-3.68l8.2-4.34c5.66-3,11.76-6.07,18.55-8.95a131.05,131.05,0,0,1,14.84-5.35,78.32,78.32,0,0,1,17.55-3.3,52.4,52.4,0,0,1,20.77,3,49.76,49.76,0,0,1,9.47,4.7,60.74,60.74,0,0,1,7.64,5.8,62.52,62.52,0,0,1,6.51,6.86,69.18,69.18,0,0,1,5.06,7.27,99,99,0,0,1,6.82,13.9l1.31,3.28c.45,1.14.92,2.37,1.35,3.56.88,2.4,1.63,4.85,2.34,7.31a110.7,110.7,0,0,1,3.16,15,55.69,55.69,0,0,1,.6,7.35,12.12,12.12,0,0,1-.36,3.82c-.44.71-1-3.09-1.75-8.4A110,110,0,0,0,558.85,314q-1.12-3.81-2.52-7.56c-.48-1.24-1-2.48-1.48-3.7l-1.47-3.46A104.24,104.24,0,0,0,546,284.89a58.11,58.11,0,0,0-12.38-14.13c-1.24-1.06-2.58-2-3.9-2.94l-2-1.33c-.66-.43-1.5-.88-2.25-1.3a46.2,46.2,0,0,0-9.94-4,50.46,50.46,0,0,0-20.4-1.14,74.36,74.36,0,0,0-8.85,1.8c-1.36.36-2.64.73-4,1.11s-2.59.79-3.86,1.22A158,158,0,0,0,463.7,270c-4.69,2.13-9.15,4.38-13.47,6.62L443.88,280l-3.09,1.61-2.94,1.49a101.19,101.19,0,0,1-23.21,8.36c-2,.48-4.08.85-6.16,1.22l-3.2.49-3.43.49a61.35,61.35,0,0,1-7.8.8,26.06,26.06,0,0,1-3.95-.17,14.94,14.94,0,0,1-3.85-.93,9.08,9.08,0,0,1-3.32-2.14,8.92,8.92,0,0,1-1.26-1.54,11,11,0,0,1-.84-1.81,15.6,15.6,0,0,1-.6-6.78,34.89,34.89,0,0,1,1.45-6.59,1.11,1.11,0,0,1-.37.11c-.44,0-.73-.43-.83-1.19a44.17,44.17,0,0,0-2,8.15,25.42,25.42,0,0,0-.18,4.28,15.35,15.35,0,0,0,.89,4.23,9.79,9.79,0,0,0,4.22,4,15.36,15.36,0,0,0,5.71,1.47,48.18,48.18,0,0,0,11.56-.87l1.43-.25,2.43-.37,2.38-.37c.74-.12,1.49-.23,2.23-.37,3-.51,5.89-1.13,8.79-1.84a121.81,121.81,0,0,0,17.27-5.68l3-1.25,3-1.36,6.35-2.9c4.28-1.94,8.63-3.89,13.09-5.71s9-3.53,13.74-5c2.35-.73,4.73-1.43,7.16-2,1.21-.31,2.42-.61,3.65-.87l1.85-.4,1.92-.38a65,65,0,0,1,10.38-1.7,45.22,45.22,0,0,1,11.37.55,41.82,41.82,0,0,1,11.19,3.65c.89.41,1.72.91,2.57,1.38s1.56,1,2.34,1.46a49.5,49.5,0,0,1,4.4,3.26,53.12,53.12,0,0,1,7.59,7.71,68.57,68.57,0,0,1,5.69,8.47c1.63,2.84,3,5.66,4.32,8.43.62,1.38,1.25,2.76,1.83,4.12s1.23,2.87,1.81,4.32a9.24,9.24,0,0,1,.71,2.32c0,.39-.26-.09-.65-1s-.86-2-1.3-3L549.85,303q-1.32-2.79-2.79-5.66A88.17,88.17,0,0,0,540,285.69a57.25,57.25,0,0,0-4.73-5.62,51.3,51.3,0,0,0-5.65-5c-1-.79-2.05-1.48-3.09-2.2s-2.08-1.34-3.31-2a39,39,0,0,0-7.46-3.14c3.12,1.54,4.59,3,4.1,3.48s-3-.17-6.67-.76a37,37,0,0,1,6.3,2.44c1,.47,2,1.07,2.93,1.61s1.8,1.14,2.66,1.78c2.16,1.54,3.55,3.14,3.3,3.31s-2-.95-4-2.35c-.86-.62-1.76-1.18-2.66-1.75s-1.9-1.12-2.91-1.57a34.36,34.36,0,0,0-6.23-2.34,38.9,38.9,0,0,0-13.05-1.17,61.73,61.73,0,0,0-12.23,2.25c-3.85,1.05-7.63,2.3-11.32,3.71a261.76,261.76,0,0,0-25,12.31l-6,3.19c-2,1-3.89,2-5.86,2.95a110.39,110.39,0,0,1-12.06,4.91,14.83,14.83,0,0,1,5.42.13h0c2.56-1,5.08-2.05,7.55-3.19,5.55-2.82,11.09-6.16,16.79-9.3s11.54-6.26,17.67-8.95c3.06-1.36,6.21-2.59,9.42-3.7,1.6-.57,3.23-1.06,4.86-1.56s3.36-.92,5.1-1.28a45.66,45.66,0,0,1,10.86-1A35.34,35.34,0,0,1,515.94,273l1.34.51,1.3.58c.88.38,1.71.84,2.54,1.29a47.74,47.74,0,0,1,4.64,3,45.37,45.37,0,0,1,8,7.56c4.65,5.62,7.88,11.85,10.73,17.92,1.41,3,2.85,6.2,4,9.41s2.27,6.48,3.18,9.79a113,113,0,0,1,3.59,20.19,6,6,0,0,1,0,2,4.31,4.31,0,0,1-.33-1.74,112.8,112.8,0,0,0-4.81-24.2,109.35,109.35,0,0,0-4.4-11.58c-1.69-3.72-3.4-7.37-5.42-11l0,.06c.25.63.18.81-.26.22a17.9,17.9,0,0,1-1.28-2.28c-.31-.71-.15-.73.25-.23a57.66,57.66,0,0,0-7-9.69,46.74,46.74,0,0,0-4.41-4.26,45.82,45.82,0,0,0-5-3.6,36.92,36.92,0,0,0-5.55-2.9,35.9,35.9,0,0,0-6.06-1.85,38.45,38.45,0,0,0-12.36-.46,61.68,61.68,0,0,0-11.49,2.6c-3.64,1.14-7.19,2.47-10.66,3.94a202.59,202.59,0,0,0-19.87,10c6-3.14,12.17-6.2,18.56-8.82,3.19-1.32,6.45-2.53,9.77-3.57a77.09,77.09,0,0,1,10.24-2.59,42.57,42.57,0,0,1,10.9-.57,33.44,33.44,0,0,1,10.76,2.73,40.35,40.35,0,0,1,9.22,5.83,44.22,44.22,0,0,1,7.35,7.83,65,65,0,0,1,5.45,7.49,8.21,8.21,0,0,1,.94,2.08c0,.26-.39-.22-.83-1s-.89-1.45-1.37-2.16c2.61,4.6,3.76,8.46,3.14,8.67-.74,0-3.11-3.68-5.87-8.21-3.76-6-8.58-11.43-14.64-15.08a30.33,30.33,0,0,0-9.67-4,33.41,33.41,0,0,0-10.46-.63,45.24,45.24,0,0,0-4.49.76c-1.49.42-2.93.88-4.37,1.41a42.26,42.26,0,0,1,16-1.3,29,29,0,0,1,7.63,2.08,34.93,34.93,0,0,1,6.85,4,43.92,43.92,0,0,1,10.74,11.66,122.51,122.51,0,0,1,7.64,14.27c.82,1.66,1.3,3.17,1.11,3.3s-1-1.14-1.81-2.79a133.06,133.06,0,0,0-7.13-12.23,46,46,0,0,0-9-10.07,35.43,35.43,0,0,0-5.47-3.69,28.33,28.33,0,0,0-5.86-2.45,29.51,29.51,0,0,0-12.61-.59A50,50,0,0,0,492.9,282c-2.16.64-4.4,1.41-6.57,2.21a138.2,138.2,0,0,0-12.9,5.65c-4.25,2.09-8.45,4.38-12.69,6.72s-8.47,4.76-13,7.14a126.26,126.26,0,0,1-18.17,9.79,134.83,134.83,0,0,1-20,6.82c1.74-.25,3.55-.52,5.33-.86a110.51,110.51,0,0,0,31.66-11c4.84-2.56,9.05-5.2,13.25-7.73s8.27-5,12.35-7.35,8.19-4.48,12.4-6.35a79.15,79.15,0,0,1,12.74-4.6,29.89,29.89,0,0,1,12.48-.65,24.37,24.37,0,0,1,6,1.92,32.18,32.18,0,0,1,2.93,1.56l1.43.92c.47.31.92.66,1.39,1a3.43,3.43,0,0,1,1.24,1.29c0,.17-.57-.13-1.28-.71a34.1,34.1,0,0,0-5.53-3.35,23.12,23.12,0,0,0-5.66-1.89,28.25,28.25,0,0,0-11.8.42,53.06,53.06,0,0,0-6.09,1.82q-3.14,1.14-6.26,2.5c-4.15,1.81-8.26,3.89-12.45,6.19-6.94,3.81-13.63,8-20.56,12.22A145.09,145.09,0,0,1,430.32,317a122.18,122.18,0,0,0,23.16-10.53c6.86-3.94,13.27-7.88,19.69-11.38a127.42,127.42,0,0,1,19.49-8.87c6.46-2.23,12.53-3.18,18.14-1.73a7.14,7.14,0,0,1,2.47,1,1.15,1.15,0,0,1,.62,0c.36.11.71.26,1.08.38a10.07,10.07,0,0,1,1.12.45l1.17.54c.39.19.76.41,1.15.61.78.4,1.5.91,2.27,1.39s1.48,1,2.18,1.64a4.62,4.62,0,0,1,1.31,1.48C524.34,292.4,523.94,292.18,523.34,291.67ZM354.43,124l-.25-.06.66-.06,1.38.56Zm-4.76,9.32h0l-.83-.27ZM425,214l3.46-5.63c1.17-1.88,2.27-3.93,3.33-5.93a104.69,104.69,0,0,0,5.48-12.55,86.84,86.84,0,0,0,5.26-27.42,78.85,78.85,0,0,1-1.1,13.78,83.69,83.69,0,0,1-2.64,10.25,88.75,88.75,0,0,1-3.74,9.75c-1.41,3.16-3,6.23-4.7,9.23L429,207.66l-1.35,2.1Zm-79.1-89.87a12.81,12.81,0,0,1,3.37.46,5.71,5.71,0,0,1,1.43-1.18,39.8,39.8,0,0,1,4.49-2.32c-.43-.24-.07-.4.07-.55l.47-.4-5.1,2C349.07,122.74,347.49,123.58,345.9,124.09ZM337.43,133l-.24,0-.27-.72Zm.5,1.19.26-.1C338.32,134.32,338.19,134.31,337.93,134.17Zm2.38-.86a2,2,0,0,0-.52-.07Zm15.9,13.88-2-3.07,1.84,3Z"/><path d="M423.63,162.61l.37,0a.8.8,0,0,1-.57.47c3.49-.09,6-3,7.24-5.78a1.53,1.53,0,0,0,.95-1.92,1.55,1.55,0,0,0-2.11-.53,2.62,2.62,0,0,1-.67.05,13.55,13.55,0,0,0-5.57.28h1.29a5.31,5.31,0,0,0-1.62.53l.41.24a4.29,4.29,0,0,0-4.14,3.6,3,3,0,0,0,3.5,3.07Z"/><path d="M428.82,164.49c-1.12.12-2.21.22-3.34.31l-.31-.11.75.92,0-.07a6.15,6.15,0,0,1,2.18-3.41l.33-.41a.93.93,0,0,0,0-.75,1.07,1.07,0,0,0-1.48-.46l-.7.31c-1.95.42-4.4,2-4,4.21.09.5.62.85,1,1.25a1.55,1.55,0,0,0,2.13.36,1.5,1.5,0,0,0,.63-2l.47-.12-.13.42c-.19-.68.39-1.26.7-1.89l.67-.64-1.47-1.21-.28.45a1.31,1.31,0,0,1,.2.11,17.33,17.33,0,0,1-1.54,2.59l-.62,1.24a.81.81,0,0,0,.76.91h.68l-.34,0c1.28-.39,2.51-.92,3.79-1.25a.41.41,0,0,0,.36-.42A.35.35,0,0,0,428.82,164.49Z"/><path d="M425.31,167.15a1,1,0,0,0-.71.19c0,.11,0,.16,0,.19l.51,0C425.47,167.57,425.48,167.35,425.31,167.15Z"/><path d="M424.59,167.53h-.21l.19.07,0,0Z"/><path d="M509.15,156.49a12.21,12.21,0,0,0,6.79.46,18,18,0,0,0,7.31-4.11c.17-.15.26-.31.21-.37s-.21,0-.35.15a18,18,0,0,1-7.23,4,11.86,11.86,0,0,1-6.61-.47c-.16,0-.35,0-.39,0S509,156.44,509.15,156.49Z"/><path d="M545.77,126.14c0,.2,0,.22.16,0a1.94,1.94,0,0,0,.22-.64c0-.17,0-.19-.15,0A1.91,1.91,0,0,0,545.77,126.14Z"/><path d="M549.8,129.45c-.3,1.16-.52,2.28-.73,3.29a2,2,0,0,1-.2.52c.13,0,.13.22,0,.64a83.79,83.79,0,0,1-10.84,25.39.86.86,0,0,1,0,.51,8.2,8.2,0,0,1-1.91,3l-.8.78a36.75,36.75,0,0,1-11.41,8.2c-.42.29-.89.57-1.4.86a15.32,15.32,0,0,1-1.72.74,20.87,20.87,0,0,1-3.12,1.23,21.26,21.26,0,0,1-3.34.86,24.17,24.17,0,0,1-3.44.44,24.41,24.41,0,0,1-3.41.05c.27.13.42.26.4.38-.12.28-1.18.38-2.4.22-.59-.08-1.14-.19-1.71-.29a44.57,44.57,0,0,0,5.14.9l.74.07,1.55,0a12,12,0,0,0,1.58-.05c1.08-.1,2.16-.17,3.23-.37s2.33-.51,3.46-.83,2.16-.79,3.21-1.21,2-1,3-1.49,1.86-1.11,2.7-1.73a38.23,38.23,0,0,0,8.41-8.27,55.21,55.21,0,0,0,5.55-9l1.12-2.28,1-2.29c.32-.77.67-1.52,1-2.29l.85-2.3a1.82,1.82,0,0,1,.33-.65c.1-.09.16,0,.09.19l-.85,3c-.29,1-.62,2-.93,2.92-.58,2-1.36,3.88-2.13,5.87a43.94,43.94,0,0,1-7.56,12.37,37.54,37.54,0,0,1-8.16,7c-.79.52-1.65,1-2.5,1.45s-1.8.83-2.71,1.24l-1.4.58c-.47.19-1,.32-1.49.47-1,.29-2,.59-3,.82a40.91,40.91,0,0,1-12,.48l-2.66-.31-2.42-.39c-.85-.13-1.54-.26-2.27-.4l-2.15-.39-2-.53-1.87-.43-.92-.21-.86-.17-1.7-.31a35.9,35.9,0,0,0-6.14-.45,38.85,38.85,0,0,0-11.41,1.93,50.84,50.84,0,0,0-8.05,3.4c-2.79,1.7-5.51,3.42-8.26,5.41-1.27,1.25-3.4.89-4.82-.86a4.76,4.76,0,0,1-1-3.64l-.4.24L446,184a3.13,3.13,0,0,1-2.29-.32l-1-.46c-1.62-1.07-3.49-1.58-5.14-2.75l-.3-.67-.25-.08a3.75,3.75,0,0,1-1.95-1l-.48-.73a8.38,8.38,0,0,1-1-2.77,2.85,2.85,0,0,1-.52-1,4.21,4.21,0,0,1-1.9-2.18.59.59,0,0,1-.45-.75.85.85,0,0,1,.19-.3h0c-.24-.11-.31-.14-.6-.25l-.38.1-1.12.42a3,3,0,0,1-1.06-.15c-1.37-1-1.38-1-1.73-1.55l0-.21c-.48.07-.52.07-.65.08a2.12,2.12,0,0,1-.33-.09c-.24-.28-.24-.28-.38-.35a1.17,1.17,0,0,1-.18-.21c-.06-.46-.06-.46-.13-.55a1.1,1.1,0,0,1,0-.24c.15-.26.22-.36.24-.41l1.07.41-.09-.33.37.26-.3-.27.39,0-.49-.08a2.83,2.83,0,0,0,.89-.48,1.16,1.16,0,0,0,.45-.37.83.83,0,0,1-.14-.16c.72-.3.72-.3,1.44-.58a2.09,2.09,0,0,1,.3.11.35.35,0,0,1,.22-.32l.37-.15,0-.09,0,0c.07-.13.12-.22.17-.33l0-.07h0l.77-1.44a3.32,3.32,0,0,1,.66-.2l-.26-.05c-.18,0-.27-.38-.35-.37a23.29,23.29,0,0,0-5.26,1.72.62.62,0,0,1-.82,0,.52.52,0,0,1,.07-.77c1.92-3.6,6.16-5.83,10.31-6.37q1.5-.48,3-1l-.21-.08.84-.12.08,0-.83-.29-.47,0c-2.26.85-4.67,1-7,1.68-1.25.35-2.53.38-3.79.64a.53.53,0,0,1-.71-.17.54.54,0,0,1,.32-.66c3.16-2.45,7.58-4.3,11.48-3.81a4,4,0,0,1,2.09-.35h0l-.63-.26c.55-.12,1,.13,1.54.1l-.47-.55c2.68-.68,5.37-1.94,8.13-1.81l.29,0c.44-.39.88-.77,1.36-1.12l.38-.25.11-.06.25-.09.51-.2c.69-.25,1.4-.49,2.16-.71l-3.09.63c1-.42,2.1-.85,3.18-1.23s2.27-.64,3.48-.9a44.34,44.34,0,0,1,5.08-.65,36.31,36.31,0,0,1,5,0,21.61,21.61,0,0,1,7.68,1.75,69.83,69.83,0,0,1,18.5,2.76c5.82,1.62,10.95,3.75,14.84,4.82.38.08.69.29.72.47s-.28.25-.67.16c-2.8-.55-6.31-1.76-10.2-2.94a86.36,86.36,0,0,0-12.62-3,79.29,79.29,0,0,1,10.49,3.17c3.3,1.2,6.39,2.52,9.14,3.52.74.24,1.38.4,2.08.61s1.24.37,1.85.63a9.37,9.37,0,0,0,1.1.25l1.06.23,1,.1a5.15,5.15,0,0,0,.94.07,8.88,8.88,0,0,0,1.79-.09l.9-.1.92-.26a12.74,12.74,0,0,0,3.73-1.62l.94-.58.91-.69a21.6,21.6,0,0,0,1.81-1.57,42.58,42.58,0,0,0,5.44-6.66,73.51,73.51,0,0,0,4.51-8.11c1-2.06,1.9-4.21,2.81-6.29.44-1.05.83-2.13,1.25-3.19s.85-2.1,1.22-3.19c.76-2.17,1.6-4.29,2.32-6.51s1.56-4.42,2.3-6.73c.38-1.23,1-2.31,1.27-2.38s.26.88-.11,2.12c-2.74,9.73-5.85,19.25-10.23,27.93a56.8,56.8,0,0,1-7.74,11.75,28.85,28.85,0,0,1-4.83,4.31,16.69,16.69,0,0,1-5.29,2.47,13,13,0,0,1-4.48.43.53.53,0,0,1,0,.17.67.67,0,0,1-.42.55,7,7,0,0,0,1.35.09,7.47,7.47,0,0,0,1.34,0c.45,0,.9-.09,1.35-.11s.92-.22,1.38-.31c5-1.94,9.29-6.43,13.63-12a103.41,103.41,0,0,0,7.91-11.88,164,164,0,0,0,6.27-17.25,1.29,1.29,0,0,1,.25-.54c.09-.07.1.07,0,.32-.54,2.07-1,4.19-1.71,6.26s-1.26,4.19-2,6.25c.45-.56.85-.86,1.08-.71s.28.75.14,1.58l1.16-2.78c.23-.59.5-1,.63-.95s.07.57-.14,1.13c-.79,1.91-1.55,3.83-2.38,5.71s-1.66,3.75-2.64,5.54a69.06,69.06,0,0,1-7.28,12.61,3.25,3.25,0,0,1,1.46-.67h0l1.32-1.86a124.4,124.4,0,0,0,8.77-19.21c2.46-6.7,4.64-13.59,6.68-20.58.08-.27.19-.48.24-.47s0,.23,0,.48l-1.86,6.3-2,6.25v0c.09-.16.17-.16.15,0a1.67,1.67,0,0,1-.22.65c-.11.18-.17.14-.15,0a163.6,163.6,0,0,1-9,22.27,140.51,140.51,0,0,0,9-20.17c.2-.78.39-1.57.59-2.36a1.4,1.4,0,0,1,.26-.55c.07,0,.08.13,0,.35s-.11.45-.16.66c.47-1.31,1-2.27,1.33-2.15s.2,1.41-.29,2.8c-.62,1.86-1.23,3.72-1.88,5.57s-1.37,3.67-2.12,5.48l-.45,1.19-.36,1.24c1.33-2.75,2.47-5.58,3.63-8.4s2.17-5.68,3.09-8.57c.15-.5.37-.89.48-.87s.08.45-.07,1a152.56,152.56,0,0,1-4.79,15.49,90,90,0,0,1-7.07,15,54.89,54.89,0,0,1-5.6,10.23l1-1.12c4.39-4.86,6.92-10.14,9.07-15.3s3.67-10.43,5.47-15.91a1,1,0,0,1,.27-.51c.07,0,.06.2,0,.48-1.71,5.37-3.06,10.4-5.28,15.71a93,93,0,0,1-6.33,12.53,64.59,64.59,0,0,0,6.65-12c.82-2.06,1.72-4.08,2.42-6.16l1.13-3.09c.34-1,.68-2.08,1-3.13a3.72,3.72,0,0,1,.41-.93.41.41,0,0,1,0-.23c.24-1.09.5-2.26.79-3.45a1.35,1.35,0,0,1,.26-.59C549.84,129,549.85,129.19,549.8,129.45ZM437.44,164.11l-.15-.06h.41l.84.5Zm-3.34,5.7h0l-.5-.25ZM491.49,153A107.66,107.66,0,0,0,476,149.73c1.3,0,2.6,0,3.9.19A61.88,61.88,0,0,1,491.49,153Zm-59.26,10.45a7.41,7.41,0,0,1,2,.59,3.14,3.14,0,0,1,.91-.65,22.1,22.1,0,0,1,2.81-1.19c-.26-.19,0-.27,0-.36l.3-.24-3.16.93C434.19,162.8,433.21,163.22,432.23,163.43Zm-5.49,5-.14,0-.11-.48Zm.22.8.16,0C427.18,169.35,427.11,169.33,427,169.21Zm1.46-.31a1,1,0,0,0-.3-.09Zm8.67,10.4-.95-2.15.87,2.1Z"/><path d="M366.15,389.22c0,.17,0,.35,0,.51-.31,0-.54-.16-.74-.48a6.25,6.25,0,0,0,3.44,4.83,10.67,10.67,0,0,0,6,.77,1.84,1.84,0,0,0,2.75-.31,2.35,2.35,0,0,0,0-3,2.84,2.84,0,0,1-.25-.78,17,17,0,0,0-1.52-6.61c.07.51.15,1.05.22,1.57a5.28,5.28,0,0,0-.93-1.62c-.08.21-.18.46-.26.68a3.64,3.64,0,0,0-5.11-3A5.89,5.89,0,0,0,366,388Z"/><path d="M364.64,397.37c-.47-1.48-.85-2.95-1.2-4.43l.09-.49L362.39,394l.1-.08c1.86-.49,3.64.24,5.2,1l.64.16a1.53,1.53,0,0,0,1-.46,1.67,1.67,0,0,0,.23-2.24l-.57-.72c-1-2.32-3.41-4.6-6.43-3a6.53,6.53,0,0,0-1.63,2,2.23,2.23,0,0,0-.14,3.11,2,2,0,0,0,3-.21l.27.59-.62.05c.92-.64,1.84-.16,2.76-.11l1,.51,1.3-2.72-.66-.08c-.05.12-.1.32-.11.33a17,17,0,0,1-3.84-.59l-1.85-.2a1.52,1.52,0,0,0-1.15,1.51l.12,1v-.5c.79,1.57,1.84,3,2.63,4.6a.48.48,0,0,0,.69.24A.61.61,0,0,0,364.64,397.37Z"/><path d="M360.08,393.93c-.06-.35-.09-.7-.41-.9l-.27.08c0,.19,0,.46.06.72C359.51,394.35,359.83,394.26,360.08,393.93Z"/><path d="M359.4,393.11l0-.3c0,.1-.05.2-.08.3h.1Z"/><path d="M486.62,435.08c1,0,1.92.12,2.89.12h8.71l5.83-.26,2.93-.14,2.91-.26,5.85-.53,5.84-.78,2.92-.39c1-.14,1.94-.33,2.91-.5l5.83-1c.52-.08.93-.28.93-.4s-.43-.12-.91,0l-5.82,1-2.9.5-2.92.38-5.81.77L510,434l-2.9.26-2.91.14-5.81.25c-1.93,0-3.86,0-5.79,0s-3.86,0-5.77-.11c-.52,0-.94.07-1,.2S486.14,435.06,486.62,435.08Z"/><path d="M604.61,415.37c-.31.26-.24.34.15.21a4.89,4.89,0,0,0,1.2-.66c.26-.21.18-.32-.15-.2A4.55,4.55,0,0,0,604.61,415.37Z"/><path d="M605.33,424.07,602.44,426c-.94.61-1.84,1.22-2.66,1.82a5.93,5.93,0,0,1-1,.52c.2.08-.14.43-.86.9-14.33,9.32-31.12,17.15-48.29,23.59a1.71,1.71,0,0,1-.62.66,19.77,19.77,0,0,1-6,2.49l-2,.45c-2,.5-3.94.9-5.91,1.35s-3.92.93-5.91,1.28l-6,1.08-3,.52-3,.41a48.25,48.25,0,0,1-5.49,1.42c-3.4.89-6.85,1.62-10.33,2.42s-7,1.29-10.62,1.9c.46.11.75.26.75.46s-.5.51-1.17.7a11.72,11.72,0,0,1-2.58.37l-3,.2c2.86-.06,5.73,0,8.56-.23.41,0,.79,0,1.14,0,3.11-.3,6.26-.56,9.42-1.11a214.31,214.31,0,0,0,39.38-9.89,265.12,265.12,0,0,0,35.41-15.57,4.59,4.59,0,0,1,1.32-.57c.26,0,.27.12-.13.36-1.71,1.08-3.42,2.08-5.13,3.07s-3.38,2-5.05,3c-3.39,1.94-6.78,3.84-10.27,5.75a173.92,173.92,0,0,1-23.35,10.37,242.8,242.8,0,0,1-67,13.81,333.06,333.06,0,0,1-36.45-1.87,241.17,241.17,0,0,1-36.92-6.7c-2.15-.5-4.24-1.2-6.35-1.82l-6.31-1.94L377,463c-2.05-.76-4.13-1.47-6.13-2.35l-1.52-.64-.76-.32-.28-.11-1-.38-2.06-.78c-1.36-.54-2.74-1-4.05-1.67-2.66-1.21-5.29-2.46-7.92-3.75s-5.17-2.81-7.77-4.26a8.39,8.39,0,0,1-4.4-4.2,6,6,0,0,1,0-5.28,6.48,6.48,0,0,1,5.34-3.32l-.83-.61L344.44,434a6.06,6.06,0,0,1-1.51-4.16V428c.55-3.19.22-6.62,1.23-9.74l.94-.75v-.43a5.53,5.53,0,0,1,.65-3.53l1-1a14.28,14.28,0,0,1,3.91-2.71,5,5,0,0,1,1.27-1.21,7.1,7.1,0,0,1,2.61-3.86,1,1,0,0,1,1-1,1,1,0,0,1,.51.14h0a8.48,8.48,0,0,0,.17-1c-.18-.31-.27-.51-.27-.51-.52-.76-.52-.76-1-1.44a4.67,4.67,0,0,1-.06-1.61c1.08-2.41,1.09-2.41,1.87-3.17A2.2,2.2,0,0,1,357,396c-.2-.65-.21-.7-.25-.88a2,2,0,0,1,.07-.5c.36-.47.36-.47.43-.69a2,2,0,0,1,.27-.35c.66-.3.66-.3.79-.44a2.69,2.69,0,0,1,.34-.13l.63.14-.38,1.69.47-.3-.31.66.33-.56,0,.56,0-.73c.56.8.56.8.86,1a1.43,1.43,0,0,0,.64.44,2.15,2.15,0,0,1,.19-.29c.61.85.61.85,1.18,1.71a3.7,3.7,0,0,1-.08.48.41.41,0,0,1,.5.13l.32.43h.14l0,0,.51.05h.11c.35,0,.86.09,2.25.16a5.17,5.17,0,0,1,.49.76c0-.13,0-.25,0-.38s.44-.62.4-.71a14.3,14.3,0,0,0-.82-1.61c-.28-.54-.58-1.06-.89-1.57-.63-1-1.31-2-2-3a.85.85,0,0,1,.91-1.42c5.22.72,9.1,4.41,11.53,9.18.84.95,1.72,1.87,2.61,2.79v-.34l.57.92.07.07L379,402c-.08-.18-.16-.36-.25-.53A17.45,17.45,0,0,1,376,398c-.75-1.28-1.4-2.66-2.17-3.91a34.87,34.87,0,0,1-1.83-4.33.75.75,0,0,1,.09-1,.63.63,0,0,1,.92-.06,18.59,18.59,0,0,1,5.29,4.52,15.14,15.14,0,0,1,3.38,6.45,3.9,3.9,0,0,1,1.42,2.14l0,0v-1c.4.56.35,1.29.69,1.86l.39-1.07c1.14,1.15,2.47,2.11,3.71,3.17a20.32,20.32,0,0,1,1.79,1.68,12.7,12.7,0,0,1,1.56,1.92,3.07,3.07,0,0,1,.25.26,17.25,17.25,0,0,1,2.16,0l.53.07.14,0,.36.16.71.32c1,.43,1.89,1,2.92,1.42-.66-.38-1.28-.82-1.9-1.25l-1.83-1.26c.66.25,1.48.6,2.2.91s1.49.65,2.25,1c1.52.63,3,1.34,4.57,2.16,8.36,4.33,17.78,9.73,22,13.81a205.43,205.43,0,0,0,27.78,6.42A199.07,199.07,0,0,0,482,434.61a3.13,3.13,0,0,1,2.06.45c.11.26-.54.51-1.53.53s-1.72.1-2.58.12h-7.78c-1.74,0-3.47-.15-5.21-.23s-3.47-.15-5.21-.31A189,189,0,0,1,441,432.25a168.08,168.08,0,0,0,35.2,5.94c1.55,0,3.1.11,4.66.1s3.07,0,4.6.17a187.1,187.1,0,0,0,46.11-5.14A241.06,241.06,0,0,0,569,420.89c8.86-3.8,17.13-7.87,25.28-12.12s16.08-8.91,24.3-13.85c2.13-1.4,4.32-2.38,4.83-2.18s-.82,1.54-3,3q-12.53,8.37-25.67,15.57a289.75,289.75,0,0,1-27.14,12.81,222.8,222.8,0,0,1-28.72,9.56,194.64,194.64,0,0,1-30.26,5.5c-2.23.25-4.45.34-6.64.52l-3.29.24c-1.09.06-2.19.07-3.28.11a.46.46,0,0,1,.13.26c0,.36-.36.71-1,1l3.75-.09,3.75-.21,3.78-.2,1.89-.1,1.89-.17c13.89-2.35,27.55-5.77,42.12-9.69,10-2.76,19.07-5.4,28.24-8.63a307.39,307.39,0,0,0,32.49-17.46,3.47,3.47,0,0,1,1.08-.52c.2,0,0,.2-.39.49-1.77,1.2-3.58,2.36-5.39,3.55L605,410l-2.79,1.69-5.66,3.36-5.79,3.2c1.39-.33,2.33-.33,2.43.12s-.67,1.32-2,2.33l5.45-2.68c1.14-.53,2.09-.83,2.17-.62s-.71.86-1.78,1.38c-3.71,1.83-7.4,3.72-11.19,5.37-1.88.84-3.74,1.74-5.65,2.52l-5.72,2.37a266.86,266.86,0,0,1-27.81,10.42,6.85,6.85,0,0,1,3.13.38h0l4.41-1.38a372.66,372.66,0,0,0,76-39.68c.47-.32.91-.52,1-.45s-.26.38-.68.66c-3.67,2.41-7.27,4.9-11,7.18-1.86,1.14-3.67,2.37-5.56,3.46L608.3,413h0c.33-.13.44-.06.15.2a5.14,5.14,0,0,1-1.18.69c-.38.15-.41,0-.15-.19a385.83,385.83,0,0,1-43.25,21.4,336.47,336.47,0,0,0,40.41-18.41c1.35-.9,2.72-1.75,4.06-2.7a3.26,3.26,0,0,1,1.11-.5c.15,0-.08.26-.46.52l-1.12.77c2.43-1.39,4.51-2.13,4.74-1.65s-1.72,2.14-4.26,3.62c-6.79,3.93-13.66,7.73-20.75,11.06L585.39,429l-2.2,1.34a299.24,299.24,0,0,0,32.55-16.51c.89-.54,1.73-.87,1.85-.73s-.52.72-1.42,1.26a273.44,273.44,0,0,1-27.91,16.43,265.63,265.63,0,0,1-30,13.23c-3.25,1.64-6.57,3.17-9.9,4.8-3.39,1.46-6.78,3-10.27,4.47.92-.2,1.83-.45,2.75-.72a179,179,0,0,0,31.89-12.52c9.88-4.89,19.36-10.21,29.36-15.94a2,2,0,0,1,1.06-.42c.1.05-.2.34-.71.63-9.72,5.67-18.65,10.92-28.8,15.88l-6.27,3-6.23,2.75-3.07,1.37L555,448.57l-6.12,2.57c2.12-.73,4.21-1.48,6.3-2.24l3.11-1.14,3.06-1.25,6.07-2.52,5.94-2.75,3-1.37,2.91-1.46,5.82-2.93,5.75-3.09,2.89-1.54c1-.52,1.9-1.08,2.86-1.61a7.88,7.88,0,0,1,1.83-.86c0-.07.13-.19.32-.33,1.8-1.27,3.83-2.53,5.85-3.91a3.29,3.29,0,0,1,1.18-.55C606,423.54,605.75,423.77,605.33,424.07ZM368.65,408.85v-.24l.2.55-.21,1.51Zm-9.72-.94h0c.09-.5.16-.86.16-.86C359,407.41,359,407.69,358.93,407.91ZM452,436l-6.23-1.22c-1-.19-2.06-.45-3.08-.73l-3.05-.81a111.86,111.86,0,0,1-11.92-4l5.9,1.46,2.24.77,2.28.68,4.57,1.37c1.53.49,3.07.88,4.63,1.27Zm-84.74-34.66a13.37,13.37,0,0,1,0,3.16,3.87,3.87,0,0,1,1.31.77c1,.95,2,1.86,3,2.81.12-.49.36-.27.52-.22l.48.18a39.27,39.27,0,0,1-2.85-3.39A27.72,27.72,0,0,1,367.27,401.29Zm-8.7-4.73c0-.08,0-.14,0-.22l.67-.4Zm-1.12.69.09.21C357.31,397.63,357.32,397.51,357.45,397.25Zm.83,1.93a1.54,1.54,0,0,0,.05-.48ZM345.78,417l2.93-2.38-2.9,2.22Z"/><path d="M504.33,487.4l-.57-.29c.12-.18.48-.19,1-.11a10.35,10.35,0,0,0-7.08-.49,9.46,9.46,0,0,0-2.45,1.17,7,7,0,0,0-1.62,1.48c-1.15.11-1.56.73-1.14,1.31a2.62,2.62,0,0,0,1.11.73,4.32,4.32,0,0,0,1.61.28,7.43,7.43,0,0,1,.9.21c.6.23,1.18.46,1.8.68l1.94.66,2,.67c.7.21,1.4.43,2.13.67-.64-.3-1.29-.58-1.91-.82a19.77,19.77,0,0,0,2.44.61l-.59-.47c3.14,1.3,6.41,1.69,7.07.2s-1.79-4.52-5.11-5.89Z"/><path d="M496.59,482.83c.82.11,1.7.27,2.56.46s1.73.41,2.62.67l.47.29-1-1.42,0,.1c-.42,1.36-2.21,2-3.78,2.63l-.52.28a.62.62,0,0,0-.11.72,2.57,2.57,0,0,0,2.16,1.06l1.07,0a23,23,0,0,0,2.36.3,13.08,13.08,0,0,0,2.27,0c1.42-.18,2.46-.7,2.33-2.05-.06-.62-.84-1.41-1.37-2.13a3.81,3.81,0,0,0-3.39-1.78c-1.31.1-1.86,1-1.33,1.91l-.76-.1.27-.4c.2.86-.8,1.17-1.36,1.68l-1.06.39,2.06,1.86.46-.32c-.11-.08-.3-.19-.29-.2A14.67,14.67,0,0,1,503,485l1.25-.94c.19-.48-.29-1.16-1.07-1.51l-1.11-.41.55.25a51.52,51.52,0,0,0-6.11-.32c-.32,0-.57.14-.57.37S496.26,482.81,496.59,482.83Z"/><path d="M502.46,481.42a2.33,2.33,0,0,0,1.19.2c0-.12,0-.18.05-.21l-.82-.34C502.29,480.84,502.23,481.09,502.46,481.42Z"/><path d="M503.7,481.41l.35.14-.3-.21,0,0Z"/><path d="M512.79,631.12c-1,24.84-2.15,49.82-3.7,74.78,0,.84,0,1.54.21,1.59s.34-.61.37-1.38c1.61-25,2.79-49.83,3.78-74.66a2.77,2.77,0,0,0-.3-1.65C513,629.76,512.81,630.34,512.79,631.12Z"/><path d="M490.13,817.36c-.06-.6-.17-.58-.26,0a10.75,10.75,0,0,0-.07,2.06c.05.49.17.48.25-.05A10.35,10.35,0,0,0,490.13,817.36Z"/><path d="M481.91,811.92c-.28-3.49-.59-6.81-1-9.77a9.26,9.26,0,0,1,0-1.64c-.18.2-.38-.47-.51-1.73-2.63-24.85-4.51-51.57-6.26-77.88a2.64,2.64,0,0,1-.65-1.12,29.32,29.32,0,0,1-1.11-9.28l.11-2.86c.18-11.54.39-23.07.8-34.55a71,71,0,0,1-.62-8.06c-.91-9.95-1.72-19.93-2.26-30.13-.21.63-.45,1-.72,1-.63-.21-1.09-2.58-1-5.33,0-1.39.08-2.78.17-4.17-.46,4-.54,8-.8,12,0,.57-.06,1.1-.12,1.58-.09,4.38-.09,8.79,0,13.29.42,39.22,4,76.08,7.74,112.67a7.6,7.6,0,0,1,0,2.07c-.1.35-.27.29-.37-.38-3.49-23.07-8.22-43.05-11-69.14-1.62-15.53-3-31-4-46.49-.26-3.89-.52-7.77-.71-11.68l-.3-5.86c-.1-1.95-.23-3.91-.22-5.87a57.56,57.56,0,0,1,5.29-23.65c4-8.28,9-16.37,12.8-24.51,1-2.08,1.81-4,2.71-6.34l.63-1.66c.23-.65.48-1.17.68-1.63.42-.92.82-1.7,1.13-2.49a15.64,15.64,0,0,0,1.21-9.44,13.48,13.48,0,0,0-1.75-4.35c-.44-.69-.94-1.4-1.61-2.35a19.21,19.21,0,0,1-2.2-4,16.75,16.75,0,0,1-1.06-5.26,17.81,17.81,0,0,1,.56-5.15,23.93,23.93,0,0,1,4-7.77,13.46,13.46,0,0,0,1-1.58l0,0v0s0,0,.09.06l.35.19c.23.12.48.22.73.32l.39.13.2.07a2.41,2.41,0,0,0,.66.18h-.19c-.1,0-.2,0-.3,0l-.2,0h.1c.06,0,0,0-.4.18l-.3.17c-.13.07-.21.14-.36.23l-.46.33-.1.08h0s-.05-.16-.18-.31-.14-.16-.23-.26c-.41-.35-.74-.69-1.14-1-.8-.6-1.58-1.19-2.3-1.81a22,22,0,0,1-3.72-3.68,9.88,9.88,0,0,1-1.75-4.15,4,4,0,0,1-.14-1.21,10.12,10.12,0,0,1,.05-1.23,10.34,10.34,0,0,1,.52-2.27,6.33,6.33,0,0,1,.64-1.37,6.4,6.4,0,0,1,.85-1.27,6.74,6.74,0,0,1,.46-.63l.61-.58a16.41,16.41,0,0,1,1.41-1.1,6.94,6.94,0,0,1,.8-.53,6,6,0,0,1,.87-.5c.66-.27,1.32-.56,1.95-.86,1.33-.57,2.84-.95,4.21-1.42l2.08-.69c.42-.16.63-.25.93-.38a9.53,9.53,0,0,0,1.34-.69,1.75,1.75,0,0,0,.28-.23h0s0,0,0,0l.08.09c.18.25.46.53.58.7a6.91,6.91,0,0,0,.51.57l.29.26.19.2a3.94,3.94,0,0,0,.45.36c.17.11.21.17.34.25s.28.14.31.17a.93.93,0,0,0,.2.08c.13.05.19,0,.1.05a1.4,1.4,0,0,0-.34.12,2,2,0,0,0-.59.33,4.81,4.81,0,0,0-.87.63l-.18.18-.28.24c-.19.16-.37.33-.54.5s-.34.36-.49.55a2.25,2.25,0,0,1-.28.32c-.09.09,0,0-.06.05l-.09,0-.38-.08c-.65-.16-1.64-.4-2.72-.58-.56-.1-1.08-.2-1.75-.27l-2-.08c-.68,0-1.37-.2-2.06-.29a81.27,81.27,0,0,1-8.85-1.95l-1.67-1a3,3,0,0,0-.43-.25l-.55-.2-1.09-.4a8.68,8.68,0,0,1-1.06-.41l-.73-.56c-.49-.38-1-.76-1.44-1.14s-.93-.76-1.36-1.15l-.44-.39-.58-.52c-.79-.69-.48-1.58-1.35-2.25l-.5-.53a2.68,2.68,0,0,1-.44-.54l-.66-1.13-.55-1.15a11.68,11.68,0,0,0-.72-1.18c-.65-.8.08-1.59-.74-2.49l-.37-.66a3.5,3.5,0,0,1,0-.65l.06-.66c0-.1,0-.23-.09-.35l-.16-.37c-.17-.48-.56-1-.3-1.43l.16-.69.09-.34a1.46,1.46,0,0,0-.07-.39c-.12-.52-.26-1-.37-1.57l.57-1.37.14-.34a1.26,1.26,0,0,0,0-.39v-.79c0-.54-.05-1.06,0-1.6l.1-1.62,0-.4c0-.15.14-.22.2-.33l.49-.61,1-1.21a10.72,10.72,0,0,0,.56-1.46l.52-1.49,0-.09,0-.05-.06-.1-.26-.41-.13-.21c0-.05,0-.07,0-.11l.08-.2.35-.81.35-.8.27-.71.54-1.32c.35-.84.73-1.72,1.11-2.55s.59-1.37.91-2a19.49,19.49,0,0,1,1-1.8,12.55,12.55,0,0,1,2.07-2.63c1.33-1.27,2.7-1.68,3.68-1,1.19.9,1.55,3.11,1.13,5.55l.64-1c.4-.45.81-.94,1.2-1.35a5,5,0,0,1,3.46-1.88h1.43c2.32.54,5.1.34,7.47,1.75l.38,1,.37.05a3.72,3.72,0,0,1,2.85,1.17l.65,1.13a12.11,12.11,0,0,1,1.21,4.23,4,4,0,0,1,.66,1.4,5.73,5.73,0,0,1,2.63,3.22.8.8,0,0,1,.58,1.08.9.9,0,0,1-.34.36h0c.35.19.45.25.89.45l.6-.05c1-.15,1-.15,1.84-.23a5.89,5.89,0,0,1,1.66.59c2,1.84,2,1.88,2.51,2.79,0,.1,0,.2,0,.29.78.17.84.2,1.06.26a4.5,4.5,0,0,1,.52.31c.34.5.34.5.55.66a2.4,2.4,0,0,1,.26.38c0,.6,0,.59.1.75a.9.9,0,0,1,0,.29l-.46.33-1.65-1.11.08.45-.55-.52.44.49-.63-.24.78.37a4.65,4.65,0,0,0-1.54.06,1.52,1.52,0,0,0-.77.23,3,3,0,0,1,.21.25l-2.33.07-.44-.24c0,.14-.16.26-.39.27l-.59.06-.06.09,0,0-.29.32L496,482h0c-.2.22-.49.53-1.28,1.33a8.69,8.69,0,0,1-1,.05l.38.11c.25.08.36.46.47.47,1.36.08,2.71.14,4,.16s2.76.09,4.19.23a1.51,1.51,0,0,1,1.33.5c.31.37.17.69-.27.76A10.07,10.07,0,0,1,500.6,487a24.42,24.42,0,0,1-3.84.74c-2.7.31-5.46.42-8,.51-.57.07-1.14.21-1.69.33l-1.51.35.23.06c-.25,0-.61,0-.56.15v0h.2a3.32,3.32,0,0,1,.39.07,3.76,3.76,0,0,0,.47,0,17.26,17.26,0,0,1,3.89-.45c.76,0,1.46,0,2.24,0l2.38.12a16.6,16.6,0,0,1,2.67.36l2.77.62a1.34,1.34,0,0,1,1,.54c.14.26-.1.43-.53.39-1.25.14-2.45.17-3.77.24-.64,0-1.23,0-1.88.05h-1.85c-1.26,0-2.39-.08-3.51-.12l-1.58-.16a3.58,3.58,0,0,1-.37-.06,1.6,1.6,0,0,0-.31-.05.23.23,0,0,1-.11.05,1.53,1.53,0,0,1-.84.31h0l.49.08c-.18.11-.6,0-.81.14l.62.19a1.52,1.52,0,0,0-.47,1.31c0,.46.22.84.25,1.2a.22.22,0,0,1,.05.08l1,.29.21.07.06,0,.17.08.35.16c.46.21.92.4,1.38.59a14.39,14.39,0,0,1-1.67-.91c.65.31,1.35.56,2,.79l.24.09.13,0,.06,0,.12.07,1.95,1.3c.68.46,1.38.91,2.14,1.46a27.06,27.06,0,0,1,2.48,2l.46.44.51.55a12.26,12.26,0,0,1,1,1.36,8,8,0,0,1,.5.94,5.51,5.51,0,0,1,.42,1.09,11.07,11.07,0,0,1,.28,1.27,8.68,8.68,0,0,1,0,1.35,7.41,7.41,0,0,1-1.79,4.32,9.63,9.63,0,0,1-2.3,2,22.58,22.58,0,0,1-3.64,1.78l-1.16.46-.35.11a9.75,9.75,0,0,0-1.47.55,1.61,1.61,0,0,0-.62.51l-.1.18a1.21,1.21,0,0,1,0,.19.68.68,0,0,0,.1.35,4.9,4.9,0,0,0,1,1l.28.24.14.12.07.07v0l0,0h0l.17.13a16,16,0,0,1,2.66,2.62,12.53,12.53,0,0,1,2,3.71,11.91,11.91,0,0,1,.48,2,17.91,17.91,0,0,1,.08,2.06,13.81,13.81,0,0,1-.29,2,12.84,12.84,0,0,1-.57,1.72,13.63,13.63,0,0,1-.7,1.38c-.24.37-.48.75-.71,1.08a27.76,27.76,0,0,1-2.11,2.76c-.58.71-1.1,1.3-1.47,1.82a6.23,6.23,0,0,0-1.29,2.82,4.23,4.23,0,0,0,0,1.36,5.36,5.36,0,0,0,.63,1.71c.78,1.49,2,3.54,3,5.58a55.39,55.39,0,0,1,4.11,12.93c.44,2.24.71,4.55,1,6.73l.18,1.56c.08.52.16.83.26,1.32.2.9.44,1.79.66,2.67.5,1.9,1.05,3.85,1.67,5.76s1.29,3.9,2,5.84c1.39,3.89,3,7.81,4.42,11.7A99.35,99.35,0,0,1,513,623.69c.21,1.61,0,3-.29,3.32s-.71-.9-.89-2.51a98.17,98.17,0,0,0-3.92-16.79c-1.8-5.63-4-11.26-6-16.92-1-2.81-1.9-5.64-2.73-8.45-.4-1.4-.78-2.8-1.12-4.2l-.26-1-.22-1c-.15-.65-.29-1.3-.42-2-.26-1.16-.34-2.81-.51-4.39s-.37-3.23-.67-4.85a53.42,53.42,0,0,0-2.54-9.4,50.9,50.9,0,0,1,2.15,7.83,66.39,66.39,0,0,1,1,8.06c.05.65.08,1.28.15,1.85s.16,1.06.25,1.62c.21,1.12.4,2.16.66,3.38.51,2.36,1.05,4.7,1.71,7.11,2.5,9.53,5.88,19.19,7.52,28.89.5,2.47.89,5,1.19,7.46a46.18,46.18,0,0,1,.24,7.33c-.1,12.38-.44,24.44-.7,36.57s-.52,24.33-.67,37c-.25,21.6-.67,40.49-1.64,62-1.42,30.19-3.95,57.69-9.73,87.5a45.5,45.5,0,0,1-2.06,8.1c-.35.47,0-2.4.64-6.38,2.48-15.55,4.13-31,5.39-46.52s2.1-31,2.73-46.59c1.27-31.19,1.81-62.73,2.85-95.25.21-7,.41-13.91.62-20.78a.72.72,0,0,1-.37.17c-.48,0-.92-.66-1.28-1.77q-.39,11.7-1.06,23.53c.51,21.94.66,43.9-1,67.28-1.16,16-2.9,30.57-4.54,45.42-.77,18.81-1.79,37.58-3.59,56.58a8.8,8.8,0,0,1-.28,1.82c-.11.27-.14-.14-.09-.91.85-13.07,1.38-26.46,1.76-40-.5,2.13-1,3.39-1.54,3.22s-.9-1.83-1.14-4.36l-.46,9.19c-.11,1.89-.38,3.38-.62,3.33s-.39-1.56-.31-3.36q.74-18.75,1.49-37.46c.14-15,.2-29.92.24-44.94a10.88,10.88,0,0,1-1.85,4.33h0c0,2.33-.05,4.64-.08,7q.9,31.83.27,64.3t-2.9,65.29a8.38,8.38,0,0,1-.18,1.58,5.61,5.61,0,0,1,0-1.42q1.23-19.82,1.94-39.51v0c-.09.53-.2.63-.25,0a11.87,11.87,0,0,1,.08-2.06c.09-.61.2-.55.25-.06.86-24.46,1.06-48.76.6-72.74q-.45,33.42-1.67,66.8c.06,2.43.11,4.85.16,7.31a7.85,7.85,0,0,1-.18,1.82c-.09.19-.17-.31-.17-1s0-1.36,0-2c-.16,4.21-.64,7.46-1.11,7.39-.48-.24-.83-3.86-.78-8.24q0-17.58.08-35.08l-.1-3.79c-.11-1.27-.21-2.54-.32-3.81-.38,18.16-.73,36.28-.87,54.3a7.71,7.71,0,0,1-.26,2.9,7.08,7.08,0,0,1-.33-2.77c-1.1-31.76-2.38-63.92-3.13-96.22-1.38-10.61-2.86-21.26-4.35-32.1,0,1.36,0,2.74,0,4.12.18,17.56,1.46,33.79,2.7,49.89s2.47,32,3.07,49a4.29,4.29,0,0,1-.13,1.67c-.11.09-.23-.49-.25-1.35-.72-16.6-2.11-31.75-3.3-48.21-1-13.64-1.92-26.62-3.15-39.3.83,25.91,3.05,50.77,4.4,76.44a16.76,16.76,0,0,1,0,3,1.53,1.53,0,0,1,.18.64c.41,3.21.74,6.71,1,10.28a6.8,6.8,0,0,1,0,1.91C482.11,813.1,482,812.69,481.91,811.92Zm2.5-329.2.2,0-.54.07-1.11-.28S483.65,482.6,484.41,482.72Zm4.86-6.89h0l.71.31Zm7.4,99.63c-.14-.79-.28-1.59-.36-2.35l-.21-2.71c-.13-1.89-.32-3.82-.64-5.73a49.51,49.51,0,0,0-3.1-11,47.26,47.26,0,0,0-2.49-5.1,13.61,13.61,0,0,1-1.73-3.73,4.09,4.09,0,0,1,0-1.36,5.94,5.94,0,0,1,.33-1.44,9.2,9.2,0,0,1,1.73-2.74,9.11,9.11,0,0,0-1.62,2.69,5.85,5.85,0,0,0-.28,2.67c0,1.12,1.69,3.54,3,6.15a49.28,49.28,0,0,1,3.09,8.13,52,52,0,0,1,1.62,8.6c.16,1.45.24,2.9.32,4.29,0,.67.07,1.37.15,1.9S496.57,574.87,496.67,575.46Zm-5.15-92.28a19.64,19.64,0,0,1-2.82-.73,5.26,5.26,0,0,1-1.26.7c-1.2.53-2.44,1-3.55,1.53.35.12.08.25,0,.35s-.24.18-.34.27c.62-.25,1.25-.5,1.88-.71s1.37-.41,2.06-.6,1.32-.34,2-.49A13.43,13.43,0,0,1,491.52,483.18Zm8.86-4,.22.11.1.64Zm-.2-1.09-.26,0C499.85,477.81,500,477.87,500.18,478.07Zm-2.37-.21a1.67,1.67,0,0,0,.46.22Zm-11.92-15.23,1.18,3.19L486,462.68Z"/><path d="M583.16,532.09l-.41.31a.75.75,0,0,1,0-.88,6.12,6.12,0,0,0-1.82,5.61,10.44,10.44,0,0,0,2.93,5.24,1.81,1.81,0,0,0,1.89,2,2.35,2.35,0,0,0,2.45-1.77,2.94,2.94,0,0,1,.48-.66,16.92,16.92,0,0,0,4.42-5.14l-1.13,1.11a4.55,4.55,0,0,0,.73-1.7l-.69.2a3.59,3.59,0,0,0-.62-5.85,5.92,5.92,0,0,0-7.32.68Z"/><path d="M575.71,535.72c.9-1.25,1.86-2.43,2.85-3.59l.44-.22h-1.9l.12,0c1.5,1.2,1.95,3,2.3,4.75l.25.6a1.52,1.52,0,0,0,1,.55,1.67,1.67,0,0,0,1.93-1.14c.06-.3.14-.59.23-.89,1.29-2.14,1.67-5.45-1.44-6.88a6.55,6.55,0,0,0-2.56-.14,2.24,2.24,0,0,0-2.59,1.73,2,2,0,0,0,1.94,2.26l-.31.56-.41-.46c1.06.35,1.22,1.37,1.73,2.14l.21,1.13,3-.57-.33-.59-.33.12a16.71,16.71,0,0,1-1.8-3.42l-.94-1.59a1.55,1.55,0,0,0-1.91,0l-.68.66.39-.29c-.78,1.56-1.31,3.24-2.13,4.82a.48.48,0,0,0,.22.7A.63.63,0,0,0,575.71,535.72Z"/><path d="M575.76,530c.25-.25.51-.49.48-.86L576,529c-.15.13-.35.3-.54.48C575.09,529.82,575.35,530,575.76,530Z"/><path d="M576,529l.23-.2-.29.12c0,.05,0,.05,0,.05Z"/><path d="M616.86,651.8c1,1.56,2.15,3,3.22,4.5s2.16,3,3.33,4.45c2.35,2.87,4.62,5.83,7.15,8.58,1.25,1.39,2.47,2.81,3.74,4.18l3.91,4c.66.68,1.3,1.36,2,2l2.05,1.95,4.09,3.89c.38.34.76.54.86.46s-.14-.41-.5-.71a211.71,211.71,0,0,1-15.68-16c-2.52-2.74-4.78-5.69-7.11-8.55-1.18-1.43-2.21-3-3.32-4.43l-1.63-2.23c-.55-.74-1.08-1.48-1.58-2.26-.28-.4-.59-.67-.73-.64S616.61,651.42,616.86,651.8Z"/><path d="M699,731.52c-.37-.09-.4,0-.08.25a4.46,4.46,0,0,0,1.19.54c.31.08.35,0,.07-.24A4.31,4.31,0,0,0,699,731.52Z"/><path d="M692.61,737.34c-1.08-.39-2.13-.76-3.15-1.1s-2-.71-2.92-1a4.16,4.16,0,0,1-1-.47c0,.21-.41.16-1.19-.13-3.86-1.37-7.67-3-11.57-4.72-1.95-.83-3.84-1.8-5.78-2.71s-3.9-1.84-5.79-2.88l-5.76-3.07c-1.93-1-3.79-2.17-5.7-3.26-3.83-2.15-7.5-4.57-11.24-6.89a1.64,1.64,0,0,1-.88-.06,18,18,0,0,1-5.38-3.2l-1.46-1.24c-1.53-1.19-3-2.51-4.43-3.76s-2.93-2.52-4.37-3.81l-4.23-4c-1.41-1.32-2.82-2.64-4.15-4.05a42.88,42.88,0,0,1-4.24-3.4c-1.35-1-2.64-2.11-3.93-3.21l-3.89-3.31c-1.32-1.09-2.55-2.28-3.81-3.46L594,674.06c.18.42.22.73.06.85-.45.2-1.84-.74-3-2.22l-1.86-2.18,2.5,3.27c.85,1.07,1.73,2.11,2.6,3.17.25.29.48.58.67.85l3,3.35c1,1.11,2.15,2.16,3.24,3.25a204.6,204.6,0,0,0,30.26,24.54,253.44,253.44,0,0,0,32.33,18.22,4.05,4.05,0,0,1,1.18.7c.16.19.06.28-.36.11-14.32-5.81-27.27-10.83-42.33-20.76a233.83,233.83,0,0,1-25.77-19.61A226.6,226.6,0,0,1,573,663.79a339.2,339.2,0,0,1-19.66-29.06c-1.45-2.53-3-5-4.41-7.62l-4.19-7.87c-1.34-2.69-2.62-5.43-3.94-8.19-.33-.69-.67-1.38-1-2.09s-.6-1.42-.91-2.13l-1.81-4.32-1.22-2.93c-.39-1-.74-2-1.11-3-.71-2-1.43-4-2.14-6l-.53-1.5-.46-1.51-.92-3c-.61-2-1.22-4-1.8-6.06l-.38-1.54-.19-.77-.08-.29-.31-1.06-.61-2.12c-.38-1.42-.76-2.84-1.15-4.26a165.75,165.75,0,0,1-3-17.44,8.61,8.61,0,0,1,.7-6.07,6,6,0,0,1,4.23-3.18,6.41,6.41,0,0,1,5.84,2.3v-1l.36-1.65a6,6,0,0,1,2.43-3.7l1.5-1.13c2.84-1.47,5.43-3.79,8.53-4.84l1.16.31.34-.27a5.53,5.53,0,0,1,3.22-1.58l1.4.15a14.14,14.14,0,0,1,4.51,1.52,5,5,0,0,1,1.73.31,7,7,0,0,1,4.65-.22,1,1,0,0,1,1.38.18,1,1,0,0,1,.19.49h0a9.52,9.52,0,0,0,.91-.45,5.18,5.18,0,0,1,.25-.52c.3-.88.3-.88.59-1.64a4.37,4.37,0,0,1,1.25-1c2.58-.57,2.58-.56,3.67-.38a2.8,2.8,0,0,1,.3.15c.4-.54.44-.58.56-.72a2.3,2.3,0,0,1,.44-.24c.59,0,.59,0,.81-.07a3.82,3.82,0,0,1,.45,0c.63.36.63.36.81.38a1.56,1.56,0,0,1,.31.2l.27.58-1.59.69.52.21-.71.14.64-.07-.42.38.6-.43a3.49,3.49,0,0,0-.31,1.3,1.45,1.45,0,0,0,0,.77l.35,0c-.33,1-.33,1-.67,2a3.61,3.61,0,0,1-.44.22.39.39,0,0,1,.19.48l-.15.51.08.11h0c.1.18.18.3.26.44l.07.1h0c.17.3.46.74,1.22,1.89a4.8,4.8,0,0,1-.32.85l.29-.25c.21-.16.76,0,.81-.1a44.07,44.07,0,0,0,2.75-6.58.8.8,0,0,1,.79-.79.79.79,0,0,1,.89.68,13.44,13.44,0,0,1,1.6,7.26,15.17,15.17,0,0,1-.67,3.73,18.57,18.57,0,0,1-.66,1.85c-.22.61-.47,1.22-.75,1.81-.26,1.24-.48,2.49-.69,3.75l.27-.2-.4,1a.36.36,0,0,0,0,.1l1-.8c.09-.17.19-.35.27-.52a17.65,17.65,0,0,1,1.19-4.2c.51-1.37,1.29-2.7,1.82-4.05a37.05,37.05,0,0,1,2.4-4,.77.77,0,0,1,.86-.53.62.62,0,0,1,.6.7,18.86,18.86,0,0,1-.49,6.9A14.77,14.77,0,0,1,584,550.7a4.16,4.16,0,0,1-.83,2.41v0l.78-.59c-.16.65-.81,1.05-1.06,1.65l1.1-.32c-.49,3.18-.06,6.52-1.2,9.66,0,.13,0,.24-.06.36a15,15,0,0,1,1.25,1.74l.26.46s0,.07.06.13l.08.36c.05.24.1.48.16.73.17,1,.46,2,.64,3l-.18-2.16c0-.7,0-1.4-.06-2.12.39,1.49.78,3,1.18,4.46a45.32,45.32,0,0,1,.92,4.72c.83,4.42,1.36,9.22,1.82,13.59.09,1.1.16,2.18.2,3.22s.14,2,.16,3a26.57,26.57,0,0,1-.28,5,201.75,201.75,0,0,0,11,24.89A181.78,181.78,0,0,0,614.64,648a2.94,2.94,0,0,1,.8,1.85c-.14.24-.71-.11-1.29-.86-2.15-2.48-4-5.19-6-7.84-1-1.32-1.9-2.71-2.82-4.09l-2.75-4.16c-.88-1.41-1.71-2.86-2.57-4.29s-1.74-2.85-2.5-4.33l-2.34-4.43L594,617.62l-1.07-2.26a159.36,159.36,0,0,0,15.55,30.34c.85,1.21,1.67,2.45,2.6,3.61a42.33,42.33,0,0,1,2.47,3.64l1.63,2.25,1.72,2.17,3.42,4.32c1.18,1.41,2.39,2.78,3.58,4.17s2.38,2.79,3.67,4.09l3.81,4c1.25,1.35,2.65,2.58,4,3.88s2.68,2.6,4.13,3.82l4.33,3.71c1.24,1.07,2.52,2.06,3.78,3l3.73,2.91c2.49,1.9,5,3.65,7.5,5.46s5.12,3.42,7.72,5.16,5.36,3.32,8.18,5c7.95,4.64,15.81,8.64,23.71,12.48s16,7.27,24.47,10.79c2.28.84,4.28,2,4.4,2.51s-1.66.28-4-.55c-9-3.24-17.91-6.83-26.59-10.84a280.67,280.67,0,0,1-25.32-13.51,217.47,217.47,0,0,1-23.72-16.57,182.38,182.38,0,0,1-21.49-20.09c-1.49-1.53-2.81-3.19-4.2-4.78s-2.76-3.16-4-4.83a.65.65,0,0,1-.14.26c-.27.23-.77.14-1.4-.2.74.94,1.44,1.91,2.21,2.82l2.3,2.77c1.54,1.85,3,3.74,4.68,5.53,9.75,9.29,20.18,17.79,31.49,26.76,7.81,6.1,15,11.59,22.7,16.82a300.17,300.17,0,0,0,31.93,15,2.75,2.75,0,0,1,1,.53c.13.15-.14.14-.6,0-1.93-.67-3.85-1.4-5.8-2.11l-2.92-1.08c-1-.38-1.92-.79-2.89-1.18L694.74,725,689,722.41c1,.9,1.57,1.64,1.28,2s-1.41.27-3-.19l5.16,2.67c1,.57,1.83,1.13,1.71,1.32s-1.08,0-2.09-.56c-3.52-1.82-7.07-3.56-10.5-5.54-1.73-1-3.47-1.9-5.17-2.9l-5.08-3.06a247,247,0,0,1-23.89-15.38,6.32,6.32,0,0,1,1.45,2.66h0l3.58,2.6a364.81,364.81,0,0,0,73.9,35.72c.51.18.91.4.89.5s-.44,0-.9-.14c-3.94-1.45-7.91-2.81-11.79-4.38-1.94-.78-3.91-1.48-5.83-2.3L703,733l0,0c.28.19.29.32-.08.24a4.52,4.52,0,0,1-1.2-.51c-.33-.22-.25-.31.06-.24a377.64,377.64,0,0,1-41.15-21,330.23,330.23,0,0,0,37.22,20.56c1.46.51,2.89,1.09,4.39,1.56a3,3,0,0,1,1,.58c.08.12-.25.09-.67-.06l-1.23-.42c2.45,1.09,4.2,2.29,4,2.75s-2.65-.07-5.23-1.17c-6.91-3-13.74-6.09-20.35-9.64l-2.2-1.06-2.29-.91a284.86,284.86,0,0,0,31.26,15.64c.93.38,1.66.84,1.61,1s-.85,0-1.78-.36a265.28,265.28,0,0,1-28.59-12,252.22,252.22,0,0,1-27.35-15.48c-3.15-1.53-6.22-3.21-9.39-4.83s-6.21-3.46-9.36-5.26c.68.58,1.41,1.13,2.14,1.69,2.32,1.74,4.57,3.47,6.9,5s4.65,3.05,7,4.51,4.69,2.72,7,4,4.71,2.48,7,3.71c9.43,4.78,19,9,29.07,13.4a2,2,0,0,1,.93.58c0,.11-.37,0-.89-.17-9.92-4.23-19.08-8.06-28.72-13l-5.89-3.1c-1.93-1.05-3.8-2.15-5.69-3.2l-2.81-1.57c-.94-.53-1.84-1.1-2.76-1.64l-5.48-3.22,5.32,3.56c.89.58,1.77,1.18,2.67,1.73l2.71,1.63c1.82,1.08,3.61,2.17,5.43,3.21l5.51,3,2.75,1.49,2.8,1.39,5.58,2.8,5.67,2.64,2.84,1.34,2.88,1.27a7.5,7.5,0,0,1,1.7.92.79.79,0,0,1,.44.06c2,.65,4.15,1.48,6.36,2.24a3.1,3.1,0,0,1,1.1.59C693.38,737.51,693.09,737.49,692.61,737.34ZM568.92,545.77l.19-.15-.32.49-1.33.73S568.18,546.3,568.92,545.77Zm-5.06-8.35h0l.78-.39Zm32.43,88.5c-1.73-3.67-3.57-7.27-4.93-11.06-.7-1.88-1.47-3.73-2.05-5.65s-1.14-3.84-1.67-5.76c.74,1.79,1.49,3.57,2.23,5.35.93,2.87,2,5.7,3,8.58S595.16,623.05,596.29,625.92Zm-22.16-85.77a13.38,13.38,0,0,1-2.54,1.88,4,4,0,0,1,.16,1.5c-.17,1.38-.22,2.73-.44,4.08.47-.2.42.12.49.28l.13.49c.3-1.43.59-2.86,1-4.31A28.69,28.69,0,0,1,574.13,540.15Zm-1.38-9.77.19-.11.72.3Zm-1.22-.48-.12.19C571.14,530,571.25,530,571.53,529.9Zm-1.06,1.81a1.76,1.76,0,0,0,.42-.25Zm-21.72.56,3.65.94-3.5-1Z"/><path d="M584.23,678.82l-.49-.27a1,1,0,0,1,.93-.37c-4.81-1.88-9.21,1.33-11.39,5a2,2,0,0,0-1.61,2.49,2.43,2.43,0,0,0,2.73,1.7,3.6,3.6,0,0,1,.9.22,20.53,20.53,0,0,0,7.34,2.37l-1.67-.69a6.12,6.12,0,0,0,2.21.1l-.47-.58a4.75,4.75,0,0,0,6.4-2.88,5.57,5.57,0,0,0-3.62-6.61Z"/><path d="M577.66,673.23c1.61.36,3.19.8,4.78,1.28l.4.33-.72-1.78,0,.12c-.69,1.86-2.47,3-4.15,4l-.57.44a1.48,1.48,0,0,0-.24,1.12,1.76,1.76,0,0,0,1.91,1.43l1-.11c2.77.36,6.56-.55,6.84-4a5.94,5.94,0,0,0-.87-2.45,2.44,2.44,0,0,0-2.82-1.78,2.13,2.13,0,0,0-1.63,2.69l-.7-.08.33-.57c0,1.14-1,1.69-1.61,2.47l-1.12.63,1.67,2.57.51-.54a3.09,3.09,0,0,1-.24-.26,18.52,18.52,0,0,1,3-3l1.31-1.49a1.46,1.46,0,0,0-.71-1.8l-.95-.39.46.26c-1.94-.16-3.87,0-5.8-.15a.55.55,0,0,0-.64.48A.61.61,0,0,0,577.66,673.23Z"/><path d="M583.57,671.09a1.34,1.34,0,0,0,1.07.13l.09-.28-.71-.33C583.52,670.38,583.41,670.7,583.57,671.09Z"/><path d="M584.73,670.94l.3.14-.24-.22,0,0Z"/><path d="M490.86,710.29c-8.68,3.41-17.24,7.22-25.67,11.31-.29.13-.48.33-.43.44s.31.07.57-.06c8.45-4.05,17-7.82,25.64-11.22.29-.13.48-.32.46-.45S491.13,710.18,490.86,710.29Z"/><path d="M423.55,734.57c.15-.18.09-.26-.15-.19a1.54,1.54,0,0,0-.65.44c-.12.15,0,.25.16.19A1.59,1.59,0,0,0,423.55,734.57Z"/><path d="M421,727.18a30.42,30.42,0,0,0,2.74-2.67,1.7,1.7,0,0,1,.52-.35c-.15-.09,0-.36.34-.7,7-6.66,15.21-13.05,23.29-19.39a1.1,1.1,0,0,1,.13-.61,6.85,6.85,0,0,1,2.68-2.52l1-.51c3.88-2.23,7.76-4.47,11.7-6.55a16.22,16.22,0,0,1,2.44-2c3-2.56,6-5.15,9.16-7.62-.29,0-.5-.07-.59-.24-.15-.44.48-1.22,1.4-1.77l1.38-.87L473,683.46a3.52,3.52,0,0,1-.57.26c-1.46.88-2.92,1.8-4.38,2.78-6.4,4.24-12.36,8.75-18.06,13.35s-11.18,9.31-16.53,14.07a1.46,1.46,0,0,1-.67.42c-.16,0-.21-.11,0-.3,6.3-6.67,11.31-13.34,19.05-20.3,9.23-8.25,18.59-16.23,28.73-24,11.18-7,21.19-14.29,32.64-21.82,4.25-2.77,8.48-5.43,12.73-7.94,6.63-4.21,13.35-7.85,20.33-11.4,3.44-2.26,7.68-1.45,9.4,1.77a6.86,6.86,0,0,1-.07,6.28l.9-.35,1.55-.21a5.57,5.57,0,0,1,4.06,1.07l1.51,1c2.3,2.23,5.25,3.74,7.35,6.28l.15,1.2.37.23a5.66,5.66,0,0,1,2.64,2.43l.39,1.38a14.2,14.2,0,0,1,.26,4.81,5,5,0,0,1,.35,1.74,7,7,0,0,1,1.93,4.29,1,1,0,0,1,.34,1.36,1,1,0,0,1-.4.37h0a9.74,9.74,0,0,0,.79.69,5.22,5.22,0,0,1,.61,0l1.84-.06a4.9,4.9,0,0,1,1.48.81c1.58,2.21,1.58,2.21,1.82,3.3,0,.11,0,.23,0,.34.71.17.76.19,1,.25a2.84,2.84,0,0,1,.42.32c.22.57.22.57.39.74a2.51,2.51,0,0,1,.17.42c-.11.73-.11.73-.06.91a1.78,1.78,0,0,1-.08.36l-.5.48-1.34-1.23v.56l-.42-.62.32.59-.55-.26.67.4a3.91,3.91,0,0,0-1.46.21,1.51,1.51,0,0,0-.78.32,2.72,2.72,0,0,1,.15.31c-1.14.08-1.14.08-2.27.13-.14-.11-.26-.22-.38-.33a.46.46,0,0,1-.42.37l-.58.05-.09.12,0,0-.36.42-.07.09h0l-1.54,1.81a6.65,6.65,0,0,1-1,0l.36.19c.24.14.27.71.38.73a41.14,41.14,0,0,0,7.92.13.91.91,0,0,1,1.15.44.78.78,0,0,1-.39,1.09c-3.91,4.24-10,5.43-15.88,4.77-1.42.13-2.83.31-4.25.51l.29.2-1.18-.07-.12,0,1.13.67.65.1c3.23-.57,6.57,0,9.9.14a46.89,46.89,0,0,1,5.26.87.84.84,0,0,1,.9.63.67.67,0,0,1-.58.81c-4.82,2-10.79,2.91-16,1a4.74,4.74,0,0,1-2.86-.05h-.05l.86.58c-.76,0-1.37-.49-2.1-.56l.64,1c-3.65.41-7.19,1.85-10.9,1.46l-.4,0a21.28,21.28,0,0,1-1.67,1.62,5.19,5.19,0,0,1-.46.36l-.13.09-.21.11-.44.23a18.77,18.77,0,0,1-1.87.8l2.81-.58a25.91,25.91,0,0,1-5.65,2.63c-5.66,1.8-12.54,2.63-16.55,1.46-10.69,4.42-21.3,9.1-31.63,14.28a1.42,1.42,0,0,1-1.32.15c-.18-.19.07-.57.6-.85,7.17-4.19,14.69-8,22.32-11.58-6.74,2.24-13.46,4.69-20.12,7.61l-2.48,1.26a17.85,17.85,0,0,1-2.57,1,261.37,261.37,0,0,0-24.53,12.55c-7,4.15-12.94,7.93-19.66,12.37-9.43,6.24-17.9,12.08-27.48,17.91-1.24.82-2.6,1.29-3,1s.29-1.14,1.53-2c9.54-6.76,19-13.39,28.9-19.74a301.56,301.56,0,0,1,31.07-17.75c2.39-1.14,4.72-2.27,7.06-3.36a.8.8,0,0,1-.18-.19,1.14,1.14,0,0,1,.15-1.1c-2.68,1.2-5.38,2.42-8.12,3.6-7,4.37-14,8.76-21.87,12.75-5.41,2.74-10.5,4.94-15.61,7.38-5.93,3.92-11.75,7.95-17.67,12a1.11,1.11,0,0,1-.63.29c-.14,0-.06-.17.17-.35,3.84-3.12,7.87-6.2,12-9.23-.85.17-1.48.1-1.66-.29s.12-1.06.77-1.81l-3,1.85c-.62.37-1.19.54-1.29.35s.27-.65.84-1q6-3.86,12.09-7.53c4.7-3.21,9.44-6.33,14.26-9.39a3.55,3.55,0,0,1-2.06-.2h0l-2.26,1.39c-13.09,9.52-26.63,18.89-40.41,28.23-.26.18-.52.28-.58.21s.1-.27.35-.44l12.4-8.49h0c-.2.06-.3,0-.15-.19a1.67,1.67,0,0,1,.64-.44c.23-.07.28,0,.16.18q11.47-7.94,22.63-15.94l-21.44,13.7-2.1,1.85a1.3,1.3,0,0,1-.64.29c-.11,0,0-.21.19-.38l.6-.51c-1.35.87-2.61,1.23-2.87.81s.7-1.58,2.08-2.51c3.63-2.63,7.3-5.16,11-7.65l1.16-.87,1.07-1c-5.92,3.63-11.79,7.31-17.56,11.09-.48.35-1,.53-1.09.39s.19-.54.68-.88c9.49-7.65,19.39-15.05,29.62-22.1l8.95-9.06-1.36.83a140.39,140.39,0,0,0-15.36,11.7c-4.78,4-9.43,8.09-14.65,12-.25.2-.52.29-.6.24s0-.26.31-.45c5-3.92,9.38-7.91,14.32-12,4.08-3.36,8-6.51,11.74-9.81-8.25,5.72-15.59,12-23.41,18.09a2.82,2.82,0,0,1-1,.58c0,.05,0,.14-.13.25-.86.92-1.85,1.86-2.88,2.78a1.19,1.19,0,0,1-.66.35C420.7,727.56,420.78,727.39,421,727.18Zm144.07-56.94.21.15-.6-.16-1.15-1Zm6.7-7.59h0l.66.6Zm-63.54,36a92.06,92.06,0,0,1,14.43-4.87l-3.33,1.53Zm64.28-25.34a13.41,13.41,0,0,1-2.78-1.75,4.33,4.33,0,0,1-1.48.67c-1.46.37-2.91.65-4.36.88.35.38,0,.44-.14.55l-.47.27c1.56-.17,3.15-.3,4.78-.38A31.53,31.53,0,0,1,572.49,673.27Zm9.55-4.88.18.14,0,.79S582.13,668.93,582,668.39Zm0-1.33-.25,0C581.8,666.74,581.9,666.82,582.06,667.06Zm-2.24-.31a1.86,1.86,0,0,0,.41.3Zm-8.6-20.22.47,3.79-.35-3.67Z"/></svg>