<svg id="Layer_1" data-name="Layer 1" xmlns="http://www.w3.org/2000/svg" viewBox="0 0 1080 1306.03"><path d="M351.24,450.75l.51.29a1.31,1.31,0,0,1-1.13.36,11,11,0,0,0,7.75,0,18.93,18.93,0,0,0,6.63-4.08,2.56,2.56,0,0,0,2.64-2.3,2.4,2.4,0,0,0-2.72-2.14,4.29,4.29,0,0,1-1-.35,20.68,20.68,0,0,0-8.31-3.13l1.89.83a7.94,7.94,0,0,0-2.71-.24l.44.62a7.59,7.59,0,0,0-4.87,0,6.18,6.18,0,0,0-3.55,2.88c-1.43,2.7,0,5.71,3.08,6.76Z"/><path d="M357.58,456.89c-1.71-.52-3.38-1.11-5.09-1.7l-.38-.35.49,1.84v-.12c1.09-1.83,3.33-2.88,5.44-3.7l.74-.38a1.53,1.53,0,0,0,.54-1.1,1.71,1.71,0,0,0-1.87-1.66c-.41,0-.81,0-1.22,0a10.62,10.62,0,0,0-5.16.33,3.81,3.81,0,0,0-2.82,5.91,2.46,2.46,0,0,0,2.88,1.9,2.5,2.5,0,0,0,2.25-2.62l.78.13-.48.54c.18-1.15,1.42-1.62,2.28-2.36l1.4-.55L356,450.29l-.7.51a3.62,3.62,0,0,1,.22.29,28.61,28.61,0,0,1-4,2.87l-1.72,1.46a1.29,1.29,0,0,0,.51,1.84l1,.44-.46-.29c2.1.22,4.28.25,6.35.59a.69.69,0,0,0,.8-.42A.56.56,0,0,0,357.58,456.89Z"/><path d="M350.7,458.6a1.53,1.53,0,0,0-1.17-.18l-.14.27.73.36C350.64,459.31,350.81,459,350.7,458.6Z"/><path d="M349.39,458.69l-.31-.15.24.23,0,0Z"/><path d="M458.87,644.53c.38.15.78.26,1.17.38.23.05.35.11.65.18s.66.17,1,.23.67.15,1,.2l1.14.14,1.14.16,1.17.06a36.83,36.83,0,0,0,9.61-.75,46,46,0,0,0,18.77-8.89,49.18,49.18,0,0,0,7.73-7.47,58.47,58.47,0,0,0,6.32-9.3,73.66,73.66,0,0,0,7.74-22.28,4.38,4.38,0,0,0,.12-2.05c-.11-.07-.31.75-.51,1.73A73.39,73.39,0,0,1,508.31,619a59.2,59.2,0,0,1-6.23,9.23,49.93,49.93,0,0,1-7.61,7.43A45.75,45.75,0,0,1,476,644.57a35.93,35.93,0,0,1-9.48.81,19.12,19.12,0,0,1-2.28-.19c-.73-.12-1.53-.17-2.16-.33a21.29,21.29,0,0,1-2.82-.76c-.4-.13-.76-.18-.88-.08S458.48,644.37,458.87,644.53Z"/><path d="M590.17,459.88c-.95.13-.9.23.08.25s2.34-.08,3.27-.1.77-.18-.07-.25A14.63,14.63,0,0,0,590.17,459.88Z"/><path d="M583.13,468.77a50.25,50.25,0,0,0-12.84,4.73,18.61,18.61,0,0,1-2.09.95c.17,0,.06.16-.29.4s-.9.63-1.65,1.09c-1.88,1.05-3.62,2.35-5.4,3.58s-3.43,2.66-5,4.19-3.07,3.07-4.56,4.65l-2.06,2.52c-.72.82-1.27,1.76-1.91,2.63a51.33,51.33,0,0,0-6,11.38,57.17,57.17,0,0,0-3.09,12.58,89.13,89.13,0,0,0-.51,13.55c.17,4.64.67,9.4,1.26,14.23s1.35,9.79,2,14.84,1.38,10.21,1.81,15.55a6.1,6.1,0,0,1,.57,1.78,44.47,44.47,0,0,1,.74,6.44,68.48,68.48,0,0,1-.18,9.07c-.16,1.61-.32,3.22-.57,4.82a105.07,105.07,0,0,1-7.67,28.55,84.77,84.77,0,0,1-16.56,25.29,61.46,61.46,0,0,1-10.43,9.94c-1.72,1.44-3.57,2.7-5.41,4s-3.8,2.46-5.82,3.51-4.07,2.08-6.16,3.05c-1.06.45-2.15.86-3.23,1.29s-2.18.8-3.3,1.15c-2.21.77-4.52,1.31-6.83,1.87a69.86,69.86,0,0,1-7.12,1.11,71.23,71.23,0,0,1-7.33.39c-2.48-.1-4.93-.15-7.54-.51,1.27.34,2,.62,2,.82-.23.21-1.57.3-3.56.08l-.8-.09a6.42,6.42,0,0,1-.94-.13c-.65-.12-1.34-.25-2.05-.41a41.35,41.35,0,0,1-4.51-1.31,51.18,51.18,0,0,1-9-4.12,53,53,0,0,0,13.12,5.6c1.15.3,2.34.63,3.47.82s2.06.42,3.1.56l1.54.23,1.5.15,3,.26c1.15.09,2.21.07,3.18.13a70.62,70.62,0,0,0,25.43-4.84,80.19,80.19,0,0,0,23.47-14.24,77.61,77.61,0,0,0,9.41-9.69c1.47-1.72,2.72-3.52,4-5.29s2.46-3.64,3.51-5.53a95.56,95.56,0,0,0,9.79-23.4,113.7,113.7,0,0,0,2.55-12,117.14,117.14,0,0,0,1.18-12,115.08,115.08,0,0,0-.05-11.9l-.17-2.92c-.07-1-.17-1.9-.25-2.85l-.26-2.84-.33-2.78c-.88-7.4-2.06-14.43-3.06-21.23-2-13.53-3.11-26.26-.28-37.81a10.37,10.37,0,0,1,.86-2.5c.23-.4.32-.28.1.54l-.36,1.32c-.12.43-.17.91-.26,1.36-.17.9-.33,1.81-.5,2.71l-.3,2.75-.15,1.36-.05,1.39c0,.93-.07,1.85-.11,2.77s0,1.86.05,2.8,0,1.86.12,2.81.12,1.87.2,2.82c.72,7.61,2.19,15.34,3.83,23.69.81,4.14,1.63,8.51,2.39,13s1.4,9.29,1.76,14.38a113.66,113.66,0,0,1-2.22,32.75A98.2,98.2,0,0,1,528.17,654,87.87,87.87,0,0,1,511.73,670a85.55,85.55,0,0,1-20.61,11.32,76.22,76.22,0,0,1-24.19,5l-3.2.08c-1.07,0-2.15-.06-3.23-.1s-2.15-.09-3.25-.19-2.26-.22-3.39-.4l-1.73-.27a15.72,15.72,0,0,1-2-.36c-1.34-.27-2.66-.62-4-1s-2.62-.8-3.91-1.23-2.57-.95-3.82-1.51c-10-4.32-18.88-11.67-24.13-21.36A49.76,49.76,0,0,1,409,644.44a56.72,56.72,0,0,1-.75-8.36c0-1.41,0-2.82.07-4.23l0-.53a2.44,2.44,0,0,1,0-.54l.09-1.07c.05-.63.08-1.22.15-1.8.29-2.44.7-4.75,1.16-7,.24-1.09.48-2.21.76-3.26l.41-1.59.42-1.45c.58-1.93,1.15-3.89,1.77-5.77l2-5.46c2.73-7.06,5.72-13.43,8.59-19.34s5.6-11.26,7.93-16.33c1.21-2.55,2.18-4.92,3.17-7.29L436,557c.42-1.13.67-2.16,1-3.23a43,43,0,0,0,1.92-11.12c-.05-.78-.08-1.56-.08-2.33s-.22-1.41-.27-2.11-.34-1.39-.45-2.09a6.28,6.28,0,0,0-.32-1c-.11-.35-.22-.7-.32-1.05-1.93-5.6-6.18-11.61-12.08-16.37a44.75,44.75,0,0,0-6.3-4.23c-1.06-.68-2.23-1.11-3.3-1.7l-1.68-.67-.82-.35-.94-.32-1.87-.66-1.94-.55-1-.28-1-.22-2-.47c-1.38-.21-2.7-.54-4.13-.68-.7-.08-1.39-.2-2.1-.27l-2.15-.19c-.71-.08-1.45-.09-2.19-.12l-1.1-.05h-.21l-.65,0-1.31.12c-.88.09-1.73.1-2.62.21-3.49.26-7.07.67-10.74,1.17-2.69.81-5.58-1.29-6.5-4.9a7.53,7.53,0,0,1,.93-6l-.76.06-1.26-.26a5.18,5.18,0,0,1-3.15-2.1l-1.13-1.38c-1.65-2.71-4.05-4.73-5.68-7.59V485.1l-.31-.28a6.22,6.22,0,0,1-2.18-2.78l-.21-1.41a13.31,13.31,0,0,1,.32-4.76,4.93,4.93,0,0,1-.12-1.75,6.92,6.92,0,0,1-1.33-4.49.94.94,0,0,1-.15-1.39,1.08,1.08,0,0,1,.47-.31h0a9.75,9.75,0,0,0-.72-.78c-.39,0-.62-.1-.62-.1L353.1,467a4.87,4.87,0,0,1-1.44-.91c-1.38-2.31-1.39-2.31-1.51-3.4l.09-.34c-.74-.22-.79-.23-1-.31a2.58,2.58,0,0,1-.41-.34c-.17-.57-.17-.57-.33-.75a2.53,2.53,0,0,1-.13-.43c.22-.72.22-.72.19-.9a1.92,1.92,0,0,1,.14-.36l.62-.45,1.28,1.29.09-.55.38.63-.27-.6.56.29-.66-.44a4.7,4.7,0,0,0,1.62-.13,1.86,1.86,0,0,0,.9-.28,1.81,1.81,0,0,1-.11-.32c1.26,0,1.27,0,2.5.07a3.05,3.05,0,0,1,.36.36.55.55,0,0,1,.53-.32h.64l.12-.12v0l.47-.39.1-.09h0c.67-.57,1.37-1.1,2.07-1.64a7.69,7.69,0,0,1,1.1.14l-.36-.23c-.23-.18-.13-.75-.25-.79a19.6,19.6,0,0,0-4.36-.68c-1.47-.09-3-.14-4.46-.15a1,1,0,0,1-1.22-.49.86.86,0,0,1,.63-1.09c5.18-4.14,12.82-4.81,19.24-2.93l5,.43-.26-.27,1.31.37.14,0-1-1-.69-.27a32,32,0,0,1-5.68-.87c-1.88-.41-3.75-.84-5.69-1.14s-3.92-1-6-1.46a.8.8,0,0,1-.91-.72.84.84,0,0,1,.88-.76c6.23-1.71,13.9-1.68,19.27,1.59a5.93,5.93,0,0,1,3.28.8l.06,0-.76-.83c.89.18,1.39.89,2.2,1.17-.11-.36-.23-.78-.33-1.14,2.2.35,4.46.41,6.71.74a32.49,32.49,0,0,1,3.3.58,16.76,16.76,0,0,1,3.11,1.14l.46.14a21.4,21.4,0,0,1,2.75-.86c.24-.05.48-.1.73-.13a.62.62,0,0,1,.23,0l1.24.1,2.49.22a102,102,0,0,1,10.45,1.69l-3.62-.87-3.6-.7c-1.2-.22-2.41-.47-3.61-.63l-3.39-.5h0l.22,0,.49,0,1,.07,2,.16c1.31.08,2.64.29,3.95.45,2.64.29,5.3.81,8,1.32a98.15,98.15,0,0,1,16.28,4.87,94.6,94.6,0,0,1,21.75,12.07,91.52,91.52,0,0,1,17.29,16.81,80.23,80.23,0,0,1,10.95,18.33c.67,1.45,1.19,2.94,1.69,4.37s1,2.76,1.32,4.13a56.47,56.47,0,0,1,1.54,7.35,75.59,75.59,0,0,1,3.37,24.08,86.31,86.31,0,0,1-3.94,22.93c-.58,1.73-1.1,3.55-1.75,5.21l-1.94,5c-1.37,3.16-2.77,6.33-4.25,9.24-2.92,5.92-6,11.41-8.84,16.56s-5.6,10.11-7.88,14.83A103.11,103.11,0,0,0,454,628.6a36.86,36.86,0,0,0-1.28,5.65c0,.24,0,.34,0,.45s0,.26,0,.38,0,.51,0,.76a9.3,9.3,0,0,0,.14,1.5,8.47,8.47,0,0,0,1,2.82,8,8,0,0,0,2,2.2c.65.48,1.17,1,1.14,1.3s-.74.22-1.5-.29a8.38,8.38,0,0,1-3.17-3.52,10.61,10.61,0,0,1-1-4.78c0-.2,0-.43,0-.62s0-.23,0-.4a4.66,4.66,0,0,1,.06-.49c.08-.65.2-1.34.33-2s.32-1.44.5-2.19l.31-1.13.4-1.23.78-2.47c.23-.82.63-1.67.93-2.51l1-2.53,1.14-2.58c3.05-6.91,7-14.07,11.22-21.84a200.54,200.54,0,0,0,12.14-25.78,172.77,172.77,0,0,1-10.69,21.62c-3.74,6.59-7.46,12.73-10.69,18.7A108.32,108.32,0,0,0,450.8,627a39.53,39.53,0,0,0-1.17,4c-.15.63-.3,1.27-.4,1.88s-.21,1.28-.25,1.62a14.42,14.42,0,0,0,.33,5.15,10.37,10.37,0,0,0,2.68,4.53,16.84,16.84,0,0,0,4.21,3.05,18.55,18.55,0,0,0,3.16,1c.44.11,1.31.31,2.05.44s1.61.2,2.42.3a38.84,38.84,0,0,0,10.13-.38,44.22,44.22,0,0,0,10.14-3,51.32,51.32,0,0,0,9.49-5.32,53.37,53.37,0,0,0,15-16.31,72,72,0,0,0,8.56-22.34,83.13,83.13,0,0,0,1.52-10.44,88.55,88.55,0,0,0,.3-10.44c-.14-7-.93-14.35-1.8-22s-1.82-15.65-2.06-24.33c0-2.17-.11-4.34,0-6.6,0-1.13,0-2.23.1-3.38l.24-3.45c0-1.15.21-2.33.36-3.5s.29-2.36.47-3.55l.69-3.59.36-1.8.47-1.81a74.37,74.37,0,0,1,3.34-10.08c.73-1.61,1.42-3.25,2.21-4.81l2.52-4.6a78.27,78.27,0,0,1,12.8-16,80.26,80.26,0,0,1,34.42-19.62A77.17,77.17,0,0,1,592.94,449a78.83,78.83,0,0,1,19.7,2.38,86.75,86.75,0,0,1,18.5,6.9,85.36,85.36,0,0,1,16.59,11c5.51,4.54,9.62,9.8,9.78,10.74.1.48-.74-.21-2.22-1.64s-3.66-3.52-6.33-5.8a86.63,86.63,0,0,0-36-18.87,79.17,79.17,0,0,0-20.57-2.35,74.44,74.44,0,0,0-20.64,3.36,79.15,79.15,0,0,0-34.73,22A73.55,73.55,0,0,0,525.11,494c-.73,1.62-1.49,3.23-2.17,4.88s-1.21,3.36-1.78,5L519.79,509c-.37,1.7-.68,3.4-1,5.11a105.9,105.9,0,0,0-1.22,20c.17,6.49.76,12.75,1.39,18.82,1.27,12.13,2.76,23.62,2.21,34.36a93.18,93.18,0,0,1-2.18,16,79.6,79.6,0,0,1-5.15,15.06,63.14,63.14,0,0,1-8.19,13.23c-.78,1-1.66,1.92-2.49,2.88s-1.78,1.79-2.68,2.68a55.61,55.61,0,0,1-5.94,4.77,49.24,49.24,0,0,1-23.42,8.85c.12.08.22.16.24.25,0,.36-.69.83-2,1.14,9.36-.31,19.05-4,27.31-9.87,11-8.68,18.53-21.71,22.23-36.31a97,97,0,0,0,2.93-22.82c.06-7.91-.66-16.28-1.46-25.19-1-12.21-2.1-24.66-.5-37.37a77.26,77.26,0,0,1,4.7-18.73,69.18,69.18,0,0,1,9.63-16.78,75.82,75.82,0,0,1,17.24-16.92,73.6,73.6,0,0,1,21.66-10.6,72.36,72.36,0,0,1,24.12-3,78.64,78.64,0,0,1,23.67,4.94,13,13,0,0,1,2.83,1.24c.38.29-.27,0-1.49-.39a80.34,80.34,0,0,0-16.13-4.18c-1.4-.18-2.77-.44-4.18-.53l-4.22-.31a80.45,80.45,0,0,0-8.5.19,70,70,0,0,0-16.75,3.34A77.66,77.66,0,0,0,557,466.05c3.29-1.48,5.38-2,5.32-1.51,0,.28-.58.83-1.57,1.58-.5.38-1.11.81-1.8,1.28s-1.44,1.08-2.28,1.68c2.1-1.38,4.35-2.47,6.56-3.65,2.29-1,4.54-2.1,6.92-2.87a24.35,24.35,0,0,1,3.75-1.12c1-.19,1.56-.25,1.55-.13,0,.29-2.32,1-5,2.06-2.4.79-4.67,1.9-7,2.92-2.22,1.18-4.47,2.32-6.58,3.71l-1.6,1c-.53.34-1,.73-1.55,1.09-1,.75-2.06,1.45-3,2.24l-2.91,2.42c-1,.79-1.84,1.72-2.77,2.58A65.16,65.16,0,0,0,535.35,491a60.62,60.62,0,0,0-6.69,13.7,74.38,74.38,0,0,0-3.39,17.77,122.89,122.89,0,0,0,.12,17.7c.86,11.63,2.67,22.93,3.44,34.16a30.9,30.9,0,0,1,.81-6.63h0c-.33-3.51-.72-7-1.11-10.52-1-8-2.12-16.17-2.38-24.49a100,100,0,0,1,.32-12.58c.25-2.11.43-4.22.87-6.32.21-1,.35-2.1.61-3.14l.8-3.12a28.81,28.81,0,0,1,1-3.08c.36-1,.68-2.06,1.08-3.06l1.3-3c.22-.49.42-1,.67-1.47l.76-1.43c.52-.95,1-1.92,1.56-2.86l1.75-2.73.88-1.36,1-1.29,2-2.59,2.14-2.44,1.07-1.22,1.16-1.15,2.31-2.28,2.47-2.11,1.23-1.06c.42-.34.87-.65,1.3-1l2.62-1.93c.89-.61,1.82-1.18,2.73-1.77s1.83-1.17,2.79-1.67l2.87-1.55c1-.5,2-.92,3-1.38,2-1,4-1.64,6.07-2.42a67.66,67.66,0,0,1,12.77-3,69.69,69.69,0,0,1,26.05,1.6,77.92,77.92,0,0,1,42.86,28.36,9.12,9.12,0,0,1,1.38,2.12,7.51,7.51,0,0,1-1.49-1.71A77,77,0,0,0,600.7,459.9l.09,0c.84.13,1,.26.05.25a27.93,27.93,0,0,1-3.27-.28c-1-.13-.88-.23-.08-.26a65.94,65.94,0,0,0-28.75,4.85,74.12,74.12,0,0,0-12.86,6.87,72.12,72.12,0,0,0-11.13,9.34c-.88.83-1.62,1.8-2.44,2.69l-1.19,1.37c-.4.46-.74,1-1.12,1.43-.72,1-1.47,1.93-2.16,2.92l-2,3c-.69,1-1.19,2.11-1.78,3.16a30.74,30.74,0,0,0-1.62,3.25L531,501.88l-1.18,3.43a68.13,68.13,0,0,0-2.86,14,96.23,96.23,0,0,0-.38,14.08,103.55,103.55,0,0,1,.46-13c.29-2.18.5-4.36,1-6.51.24-1.07.38-2.17.68-3.23l.87-3.19a58.46,58.46,0,0,1,5.15-12.2,65,65,0,0,1,3.49-5.62c.62-.92,1.33-1.76,2-2.64a32.48,32.48,0,0,1,2.1-2.56l2.2-2.46c.77-.79,1.58-1.53,2.36-2.3l1.19-1.15c.4-.37.84-.71,1.25-1.07l2.53-2.11,2.67-1.95,1.33-1,1.4-.87,2.79-1.74,2.91-1.55c.49-.25,1-.52,1.46-.76l1.5-.67c1-.44,2-.9,3-1.32,2.07-.72,4.1-1.58,6.23-2.11A64.58,64.58,0,0,1,588.09,461a67,67,0,0,1,11.52-.33,14.08,14.08,0,0,1,2.85.41c.28.13-.5.1-1.58.05l-3.21-.19c6.64.42,11.49,2.19,11.26,2.64-.48.45-6-.47-12.65-.73a68.47,68.47,0,0,0-13.34.94,70.27,70.27,0,0,0-12.82,3.73A68.07,68.07,0,0,0,548,482.12c-1.4,1.32-2.6,2.82-3.86,4.27-.64.73-1.15,1.56-1.71,2.34s-1.11,1.57-1.63,2.38a66.85,66.85,0,0,1,32.59-23.91c12.92-4.51,27.15-4.15,40-.15.56.16,1.09.32,1.58.48s.91.37,1.27.53c.73.33,1.17.58,1.16.67s-.46,0-1.18-.17c-.37-.1-.8-.23-1.27-.38l-1.57-.42A63.14,63.14,0,0,0,549,485.32a59.38,59.38,0,0,0-9.92,14.22A56.75,56.75,0,0,0,533.88,516c-1.85,11.53-.72,23.55.74,35.69,1.38,7.94,2.94,16,3.91,24.41a120.88,120.88,0,0,1,.89,12.89,108.82,108.82,0,0,1-.58,13.22c.17-1.11.38-2.21.52-3.34s.26-2.24.4-3.36a117.76,117.76,0,0,0,.09-21c-.52-6.73-1.42-13.17-2.29-19.4-1.75-12.46-3.41-24.27-2.39-35.66a58.08,58.08,0,0,1,3.77-16.42,55.37,55.37,0,0,1,8.69-14.66,61.68,61.68,0,0,1,29.27-19.72,9.15,9.15,0,0,1,2.36-.53c.15.06-.63.39-1.82.74A61.48,61.48,0,0,0,549,487.62a56.57,56.57,0,0,0-8.85,14.08l-.78,1.92a19.75,19.75,0,0,0-.73,1.94c-.39,1.34-.87,2.62-1.2,4s-.66,2.73-.91,4.13-.47,2.81-.63,4.25a86.08,86.08,0,0,0-.35,14.37c.23,4.81.78,9.64,1.44,14.48,1.29,9.69,3.08,19.44,4,29.6-.65-10.4-2.27-20.19-3.41-29.63-.59-4.73-1.06-9.37-1.27-13.93-.15-2.29-.12-4.53-.15-6.78s.14-4.46.41-6.64a55.78,55.78,0,0,1,2.65-12.7A50.79,50.79,0,0,1,544.79,495a57.92,57.92,0,0,1,8.34-10.21,64.39,64.39,0,0,1,10.57-8.25,30.46,30.46,0,0,1,3.69-1.92,2.12,2.12,0,0,1,.73-.52,54.09,54.09,0,0,1,13.44-5.38,11.09,11.09,0,0,1,2.66-.45C584.73,468.34,584.16,468.46,583.13,468.77ZM370.4,462l-.17-.19.58.3.9,1.31Zm-8.64,6.3h0l-.55-.71ZM465.18,596.12c2.55-4.59,5.21-9.29,7.76-14.36,1.3-2.47,2.51-5.14,3.73-7.78.61-1.31,1.15-2.75,1.72-4.12s1.15-2.76,1.63-4.25l1.49-4.39c.43-1.52.84-3.06,1.24-4.6.2-.77.42-1.53.6-2.32l.44-2.4c.28-1.62.63-3.2.82-4.85a76.67,76.67,0,0,0-.13-20.24,74.22,74.22,0,0,1,.87,19.82c-.09,1.28-.37,2.48-.57,3.72L484.1,554c-.53,2.41-1.22,4.72-1.85,7.06s-1.53,4.47-2.34,6.66-1.74,4.24-2.67,6.27A236.07,236.07,0,0,1,465.18,596.12ZM363.25,457.51a11.47,11.47,0,0,1,2.57,2.24,5.24,5.24,0,0,1,1.76-.39,33,33,0,0,1,4.88.08c-.25-.47.13-.45.32-.52l.59-.17c-1.72-.19-3.47-.49-5.24-.68C366.54,457.89,364.81,457.84,363.25,457.51ZM352,461.38l-.18-.14.15-.79S351.94,460.85,352,461.38Zm-.21,1.33.26.05C352,463.05,351.88,463,351.74,462.71Zm2.33.46a1.39,1.39,0,0,0-.38-.32Zm5.79,21.06,0-3.77-.12,3.64Z"/><path d="M434.24,529.2c0,.18,0,.35,0,.52-.3,0-.52-.17-.69-.5.49,4.71,5.16,6.23,9,5.63a1.74,1.74,0,0,0,2.65-.34,2.35,2.35,0,0,0,0-3,3.16,3.16,0,0,1-.23-.78,20.26,20.26,0,0,0-1.27-6.65c0,.53.09,1.08.13,1.61a4.44,4.44,0,0,0-.81-1.66c-.08.22-.17.46-.26.67a3.7,3.7,0,0,0-1.63-2.77,3.38,3.38,0,0,0-3.13-.24,6.15,6.15,0,0,0-3.87,6.28Z"/><path d="M432.67,537.29a36.1,36.1,0,0,1-1.14-4.38l.1-.48-1.13,1.51.09-.08a7.48,7.48,0,0,1,5.06,1l.61.18a1.44,1.44,0,0,0,1-.45,1.78,1.78,0,0,0,.28-2.26l-.54-.72c-1-2.23-3.18-4.6-6.14-3a6.69,6.69,0,0,0-1.64,2,2.31,2.31,0,0,0-.22,3.13,1.92,1.92,0,0,0,2.88-.17c.08.19.16.39.25.58-.21,0-.4,0-.6,0,.89-.62,1.81-.17,2.71-.13l1,.49,1.29-2.7-.65-.08c-.05.13-.1.33-.11.33a12.75,12.75,0,0,1-3.72-.58l-1.77-.22a1.54,1.54,0,0,0-1.15,1.51l.09,1c0-.17,0-.33,0-.5.37.79.79,1.55,1.22,2.31s.9,1.48,1.29,2.27a.47.47,0,0,0,.68.23A.61.61,0,0,0,432.67,537.29Z"/><path d="M428.26,533.87c-.05-.35-.07-.7-.37-.91l-.27.08c0,.19,0,.46,0,.72C427.7,534.28,428,534.2,428.26,533.87Z"/><path d="M427.62,533c0-.19,0-.31,0-.31s-.05.21-.07.31h.09Z"/><path d="M508.43,565.59a112,112,0,0,0,24.19,1.4c.27,0,.49-.12.48-.24s-.22-.19-.47-.17a112.17,112.17,0,0,1-24.08-1.46c-.26,0-.49,0-.53.15S508.18,565.54,508.43,565.59Z"/><path d="M572.07,568.07c-.16.15-.11.25.12.23a1.35,1.35,0,0,0,.66-.29c.14-.13.08-.24-.11-.23A1.32,1.32,0,0,0,572.07,568.07Z"/><path d="M573.3,576.07a28.58,28.58,0,0,0-3.13,2,1.52,1.52,0,0,1-.57.23c.13.13,0,.37-.46.6-8.13,4.77-17.68,8.42-27.36,11.37a1.12,1.12,0,0,1-.34.53,6.41,6.41,0,0,1-3.39,1.32l-1.1.09c-4.42.56-8.84.94-13.26,1.09a12.59,12.59,0,0,1-3.07.71,108.69,108.69,0,0,1-11.68,2.33.63.63,0,0,1,.39.51c-.09.46-1,.81-2.13.8l-1.64,0,4.72.3a4,4,0,0,1,.62,0c1.73-.07,3.48-.16,5.25-.3a116.15,116.15,0,0,0,22.12-4.34,143.54,143.54,0,0,0,20.09-7.65,1.4,1.4,0,0,1,.76-.2c.15,0,.17.17-.06.3-2,1.11-3.86,2.27-5.77,3.42s-3.84,2.22-5.83,3.3-4.05,2.12-6.25,3.09c-1.1.48-2.23,1-3.4,1.41s-2.38.91-3.64,1.3l-4.51,1.42L525.08,601c-1.53.43-3.08.78-4.63,1.13s-3.12.74-4.7,1a156.12,156.12,0,0,1-19.5,2.53c-6.95-.22-13.66-.56-20.48-1.08a204.91,204.91,0,0,1-20.87-2.79,146.26,146.26,0,0,1-15.59-3.93,134.13,134.13,0,0,1-24.47-9.76,9.6,9.6,0,0,1-4.75-4,5.72,5.72,0,0,1-.25-5.19,6.41,6.41,0,0,1,5.32-3.33l-.87-.59-1.18-1.24a5.91,5.91,0,0,1-1.68-4.1l0-1.88c.48-3.19,0-6.51,1-9.62l.93-.74V557a5.48,5.48,0,0,1,.62-3.52l1-1a14.2,14.2,0,0,1,3.89-2.69,5,5,0,0,1,1.26-1.2,7,7,0,0,1,2.59-3.85,1,1,0,0,1,.95-1,.88.88,0,0,1,.5.14h0c.09-.41.11-.52.18-1-.17-.31-.26-.51-.26-.51-.51-.78-.51-.78-.93-1.46a4.58,4.58,0,0,1,0-1.62c1.1-2.41,1.11-2.41,1.89-3.17l.31-.14c-.18-.66-.19-.71-.23-.89a2.35,2.35,0,0,1,.08-.5c.37-.47.37-.47.43-.69a3.33,3.33,0,0,1,.28-.35c.65-.29.65-.29.78-.43a2.69,2.69,0,0,1,.34-.13l.61.15-.42,1.69.46-.29-.31.66.33-.56,0,.56,0-.73c.53.8.53.8.82,1a1.36,1.36,0,0,0,.61.45,2.15,2.15,0,0,1,.19-.29l1.13,1.7c0,.17-.05.33-.08.48a.39.39,0,0,1,.49.12l.32.42h.14l0,0,.5,0h.11l2.17.18a5.68,5.68,0,0,1,.46.78c0-.13,0-.25,0-.38s.43-.61.4-.71a19.48,19.48,0,0,0-1.62-3.19c-.31-.49-.63-1-.95-1.46l-.91-1.5a.83.83,0,0,1-.13-1.12.76.76,0,0,1,1.05-.29,10.72,10.72,0,0,1,1.82.42,11.61,11.61,0,0,1,4.69,2.68,20.24,20.24,0,0,1,4.54,6,37.07,37.07,0,0,0,2.53,2.78v-.33l.56.89.08.08-.09-1.24-.26-.52a14.35,14.35,0,0,1-2.57-3.47L442.6,536c-.34-.66-.68-1.31-1-1.94a26.9,26.9,0,0,1-1.67-4.36.82.82,0,0,1,.12-1,.55.55,0,0,1,.86,0,19,19,0,0,1,8.22,10.92,3.94,3.94,0,0,1,1.41,2.09l0,0c0-.34,0-.66,0-1,.39.54.35,1.28.69,1.83.11-.35.23-.71.35-1.06a44.87,44.87,0,0,0,3.61,3.12,14.39,14.39,0,0,1,3.33,3.49,1.43,1.43,0,0,1,.25.24,7.78,7.78,0,0,1,4.85.94c-.65-.47-1.3-1-1.91-1.44a22,22,0,0,1,4.83,1.79c.54.29,1.08.61,1.61,1s1.09.65,1.62,1c1.07.7,2.08,1.53,3.05,2.31a18.56,18.56,0,0,1,4.45,5,132.15,132.15,0,0,0,14.25,3.89,116.19,116.19,0,0,0,14.6,2.12c.51,0,1,.26,1,.52s-.31.46-.83.45a97.19,97.19,0,0,1-21.43-2.55,90,90,0,0,0,18,4.82l2.41.23a14.92,14.92,0,0,1,2.38.38,99.27,99.27,0,0,0,24.11-.1,127.45,127.45,0,0,0,19.88-4.49c4.73-1.5,9.19-3.08,13.56-4.84s8.71-3.55,13.22-5.47c1.17-.58,2.43-.79,2.79-.46s-.31,1.09-1.49,1.69a147.62,147.62,0,0,1-14,6.62c-2.37,1-4.82,1.87-7.24,2.8s-4.91,1.67-7.43,2.34a111.07,111.07,0,0,1-15.39,3.31,95.64,95.64,0,0,1-16,1l-3.47-.09-3.43-.24a.85.85,0,0,1,0,.26,1.14,1.14,0,0,1-.59.91l3.93.35,4,.25c7.35-.74,14.59-1.91,22.42-2.8l4-.45c1.3-.13,2.59-.25,3.86-.42l3.8-.44L558,568a171.41,171.41,0,0,0,17.85-7.24.9.9,0,0,1,.61-.16c.13,0,0,.19-.18.32-1.91,1.19-3.94,2.18-6,3.28s-4.14,2-6.29,2.91c.81.07,1.37.32,1.47.75s-.29,1-1,1.57l1.53-.49,1.51-.54c.63-.22,1.18-.24,1.24,0s-.35.58-.94.8c-1,.39-2.07.75-3.11,1.08l-3.13,1c-2.1.64-4.21,1.21-6.32,1.8a146.72,146.72,0,0,1-15.25,4,3.32,3.32,0,0,1,1.73.95h0l2.42-.48a243.53,243.53,0,0,0,42.35-16.91c.26-.14.52-.19.58-.11s-.12.26-.37.38c-4.15,2.1-8.3,4.18-12.55,6h0c.2,0,.28.07.12.22a1.49,1.49,0,0,1-.67.29c-.22,0-.25-.09-.12-.22a243.24,243.24,0,0,1-24,9.11A203.94,203.94,0,0,0,572,569.19l2.23-1.37a1,1,0,0,1,.64-.13c.1,0,0,.21-.24.33l-.62.37c1.39-.55,2.62-.63,2.82-.15s-.88,1.42-2.33,2c-3.82,1.79-7.74,3.33-11.7,4.73-.42.19-.84.37-1.26.53l-1.23.67a160.23,160.23,0,0,0,18.54-6.5c.5-.25,1-.33,1.09-.17s-.25.5-.76.76a155.45,155.45,0,0,1-15.81,7.6,153.32,153.32,0,0,1-16.88,5.65L541,586.19c-1.87.86-3.78,1.67-5.72,2.52l1.53-.24a79.78,79.78,0,0,0,17.89-5.63c5.57-2.34,10.89-5,16.56-7.61a.72.72,0,0,1,.63-.1c.07.08-.1.25-.39.38-2.74,1.37-5.41,2.6-8,4s-5.34,2.58-8.22,3.71c-4.74,2-9.37,3.57-13.93,5.31,9.56-2.3,18.24-6.09,26.95-10a2.46,2.46,0,0,1,1.07-.29c0-.06.06-.14.17-.22,1-.72,2.13-1.4,3.29-2.07a1.08,1.08,0,0,1,.69-.18C573.64,575.76,573.54,575.9,573.3,576.07ZM436.64,548.68v-.24l.2.55-.18,1.5Zm-9.59-.88h0c.09-.49.15-.86.15-.86C427.15,547.3,427.1,547.57,427.05,547.8Zm63.32,18.44A51.36,51.36,0,0,1,478,561.62c1,.27,2,.6,3.05.82,1.53.63,3.05,1.32,4.61,1.95Zm-55.19-25a13.19,13.19,0,0,1,0,3.14,3.63,3.63,0,0,1,1.28.76,35.65,35.65,0,0,1,3,2.76c.12-.49.34-.26.5-.21l.46.19c-1-1.1-1.89-2.22-2.81-3.37A24.66,24.66,0,0,1,435.18,541.23Zm-8.45-4.74,0-.22.66-.39Zm-1.1.69.08.21C425.48,537.55,425.5,537.43,425.63,537.18Zm.78,2a1.62,1.62,0,0,0,0-.49ZM414,556.84l2.93-2.38-2.9,2.22Z"/><path d="M471.83,702.85l0,.26a.49.49,0,0,1-.43-.25c.63,2.37,3.21,3.24,5.43,3.08a1.1,1.1,0,0,0,1.5-1.61,1.38,1.38,0,0,1-.17-.4,8.54,8.54,0,0,0-1.17-3.51l.21.84a2.74,2.74,0,0,0-.63-.88l-.1.34a2.54,2.54,0,1,0-4.84,1.52Z"/><path d="M471.39,706.94c-.31-.74-.57-1.48-.83-2.23l0-.24-.53.76.05,0a4.48,4.48,0,0,1,2.85.55l.35.1a.83.83,0,0,0,.54-.21.81.81,0,0,0,.06-1.14l-.35-.38c-.65-1.18-2.18-2.38-3.68-1.57-.35.2-.52.64-.75,1a1.11,1.11,0,1,0,1.66,1.48l.17.3-.33,0c.47-.31,1-.06,1.49,0l.59.26.6-1.35-.38-.05c0,.06,0,.17,0,.17a10.17,10.17,0,0,1-2.13-.34l-1-.11a.69.69,0,0,0-.54.76l.11.48c0-.09,0-.17,0-.25.49.79,1.11,1.51,1.58,2.31a.28.28,0,0,0,.38.12A.28.28,0,0,0,471.39,706.94Z"/><path d="M468.83,705.19a.67.67,0,0,0-.26-.45l-.14,0c0,.1,0,.23.07.36S468.71,705.36,468.83,705.19Z"/><path d="M468.43,704.78l0-.15s0,.1,0,.15h.05Z"/><path d="M493.54,720.91a38.24,38.24,0,0,0,2.89,3.07s.1,0,.16-.07.07-.14,0-.17a42,42,0,0,1-2.87-3.08s-.1,0-.16.06S493.51,720.87,493.54,720.91Z"/><path d="M496.32,734.25a.28.28,0,0,0-.14.18c0,.06,0,.1.09.07a.31.31,0,0,0,.14-.18C496.42,734.25,496.37,734.22,496.32,734.25Z"/><path d="M491.81,739.58a2,2,0,0,0-.75.07s-.06,0-.06-.06a.45.45,0,0,1-.28.21,15.47,15.47,0,0,1-4.83-.83,1.78,1.78,0,0,1-.26.22c-.3.22-.57.25-.7.07l-.07-.17c-.38-.56-.78-1.08-1.15-1.65a.82.82,0,0,1-.54,0,13.68,13.68,0,0,1-2.05-.08,1.38,1.38,0,0,1-.17.31c-.2.23-.44.34-.56.23l-.19-.12c.13.19.25.39.38.59a.17.17,0,0,1,0,.1,4.35,4.35,0,0,0,.6.43,15.19,15.19,0,0,0,6.66,1.63c.05,0,.09,0,.07.09a.3.3,0,0,1-.15.16c-2,.44-4.09,1.37-5.85,1.29a31,31,0,0,1-5.95-.8c-1.46-1.13-3.27-1.59-5.09-2.31-.62-.24-1.21-.51-1.77-.79a2.56,2.56,0,0,1-.26-.14l-.38-.25-.76-.5-1.5-1c-2-1.37-3.91-2.8-5.86-4.27a3.32,3.32,0,0,1,1.37-6.17l-.34-.29-.43-.61a2.9,2.9,0,0,1-.47-2l.08-.91c.37-1.55.28-3.16.78-4.69l.45-.38v-.21a2.86,2.86,0,0,1,.32-1.72l.45-.52a7.13,7.13,0,0,1,1.87-1.38,2.52,2.52,0,0,1,.62-.6,3.45,3.45,0,0,1,1.24-1.92.48.48,0,0,1,.46-.5.44.44,0,0,1,.26.07h0a3.4,3.4,0,0,0,.07-.49l-.15-.25-.53-.72a2.28,2.28,0,0,1-.08-.79c.46-1.22.46-1.22.84-1.6l.15-.08c-.13-.32-.14-.35-.17-.44a1.17,1.17,0,0,1,0-.25c.17-.24.17-.24.19-.35l.12-.18c.33-.15.33-.15.39-.22l.17-.06.34.07-.12.85.23-.15-.13.33.15-.28.05.28,0-.36c.33.4.33.4.5.51a.88.88,0,0,0,.35.22,1.1,1.1,0,0,1,.09-.14c.36.43.36.43.69.85a.88.88,0,0,1,0,.24.24.24,0,0,1,.27.07l.19.22h.07l0,0,.27,0H471l1.19.12a2.35,2.35,0,0,1,.27.4l0-.19c0-.14.23-.3.21-.35a17.19,17.19,0,0,0-2.2-3.14.42.42,0,0,1-.15-.57.4.4,0,0,1,.56-.14,8.94,8.94,0,0,1,6.55,5c.45.53.91,1,1.39,1.56v-.17l.29.49,0,.05v-.65c0-.1-.09-.19-.13-.29a26.3,26.3,0,0,1-2.71-4,22.27,22.27,0,0,1-1.15-2.29.36.36,0,0,1,0-.52.36.36,0,0,1,.51,0c2.28,1.32,4.44,3.4,5,6a2.11,2.11,0,0,1,.76,1.17v0l0-.51c.21.3.15.69.32,1l.25-.52c1.18,1.36,2.78,2.39,3.56,4l.11.16a8.67,8.67,0,0,1,2,.46l-.23-.41a1.48,1.48,0,0,1,1,.28,3.12,3.12,0,0,1,.38,3.37,49.57,49.57,0,0,0,4.53,2.64c.08,0,.07.18,0,.33s-.24.23-.33.19a16.35,16.35,0,0,1-3.68-1.38,15.24,15.24,0,0,0,2.13,2.46l.37.19a.63.63,0,0,1,.27.33,13.23,13.23,0,0,0,3.43,2.25,30.5,30.5,0,0,0,3.51,1.1,12.29,12.29,0,0,1,4.77,1.8c.21.09.18.46-.07.82s-.61.58-.82.48c-3.56-1.06-7.24-1.86-10-4.24l-.86-.77-.1.14a2.19,2.19,0,0,1-.47.45,8.58,8.58,0,0,1,.86,1,6.52,6.52,0,0,1,3.41,1.71,8.92,8.92,0,0,1,1.29,2.47c1,.43,2,.8,3,1.26.05,0,.06.07,0,.14a.22.22,0,0,1-.16.13,14,14,0,0,1-2.56-.33,2.44,2.44,0,0,1-.47.9,2.15,2.15,0,0,1-.81.65l.39.33c.07.08,0,.25-.08.41s-.29.24-.37.17l-1.59-1.35c-.8-.33-1.57-.69-2.32-1.08a3,3,0,0,1-.4.9h0l.32.22a13.91,13.91,0,0,1,6.62,3.22s0,.11,0,.18-.13.11-.16.08a11.37,11.37,0,0,0-1.75-1.33h0a.24.24,0,0,1-.13.18c-.06,0-.1,0-.1-.06a.32.32,0,0,1,.14-.18,14.65,14.65,0,0,0-3.87-1.62,17.1,17.1,0,0,1,2.92,2.3l.53,0s0,.08,0,.16-.12.12-.16.11h-.14c.16.17.07.59-.22,1s-.7.54-.88.38c-.57-.33-1.11-.68-1.64-1.06l-.22-.07-.31,0c.69.77,1.34,1.57,2,2.38.07.05.05.2,0,.33s-.25.21-.32.16a28.23,28.23,0,0,1-5.11-2.14l-2.75.64.17.16c1.54,1.19,4.12.57,5.88,1.39,0,0,0,.09,0,.16s-.13.12-.17.09a16.71,16.71,0,0,0-3-.46,15.19,15.19,0,0,0-2.55-.28c1.26.73,2.9.87,4.28,1.42.07,0,.1.08.07.17a.3.3,0,0,1,.1-.07,2.76,2.76,0,0,1,.79-.07c.05,0,.06.05,0,.13A.27.27,0,0,1,491.81,739.58ZM473.53,712.8v-.12l.09.28-.15.76S473.51,713.26,473.53,712.8Zm-4.95-.65h0c.05-.25.08-.43.08-.43C468.63,711.9,468.6,712,468.58,712.15Zm21,8.75a4.54,4.54,0,0,1-1.41-1.86l.5.25A17.73,17.73,0,0,1,489.62,720.9ZM472.84,709a5.72,5.72,0,0,1,0,1.6,2,2,0,0,1,.69.41,20,20,0,0,1,1.53,1.52c.07-.24.19-.12.27-.09l.25.12c-.49-.6-1-1.21-1.44-1.83A16.62,16.62,0,0,1,472.84,709Zm-4.69-2.46v-.11l.33-.2Zm-.55.35.06.11C467.54,707.05,467.55,707,467.6,706.86Zm.5,1a1.05,1.05,0,0,0,0-.24Zm-6,8.83,1.41-1.19-1.39,1.12Z"/><path d="M562.68,606.49l.45.67a3,3,0,0,1-1.52-.77,25.67,25.67,0,0,0,4.26,4.08,40.77,40.77,0,0,0,4.89,3,35.53,35.53,0,0,0,5,2.15,42.2,42.2,0,0,0,4.64,1.52c1.69,1.3,3.48,2,4,1.36s-.4-2.44-2.11-3.92a11.92,11.92,0,0,1-1-1.18,45.87,45.87,0,0,0-3.49-5c-1.34-1.64-2.81-3.4-4.43-5.16l1.74,2.45a23.87,23.87,0,0,0-2.95-2.91c.06.25.13.57.19.83a22.74,22.74,0,0,0-5.5-5,8.88,8.88,0,0,0-5.52-1.63c-3.07.47-3,4.31,0,7.92Z"/><path d="M567.11,616.31c-1.81-1.74-3.53-3.6-5.26-5.52l-.28-.59-.38,1.75.07-.08a8.68,8.68,0,0,1,4,.47,30,30,0,0,1,4.43,1.72l1.07.42a1.23,1.23,0,0,0,1.18-.21c.49-.54-.13-1.77-1.39-2.78-.49-.39-1-.74-1.46-1.1a32.26,32.26,0,0,0-2.9-2.42,21,21,0,0,0-3.32-2.11c-2.25-1.08-4.43-1.61-5.89-.68-.66.44-.5,1.59-.62,2.47-.47,1.13.64,2.91,2.44,4s3.63,1,4.1,0l.87.78-.86,0c.82-.65,2.55.13,4,.36l1.94.84-.23-3-1.08-.28c0,.14.13.38.12.39-2.07-.44-4-.92-6.2-1.57l-2.83-.46c-.84.13-1,1-.37,1.83l1,1.19-.42-.62c1.22,1,2.48,1.87,3.74,2.87s2.49,1.92,3.67,2.88a1.31,1.31,0,0,0,1.17.36C567.56,617,567.49,616.64,567.11,616.31Z"/><path d="M557.87,611.77a3.5,3.5,0,0,0-1.32-1.13l-.32.08c.18.25.44.58.69.91C557.42,612.27,557.79,612.16,557.87,611.77Z"/><path d="M556.23,610.72l-.29-.38.16.39h.07Z"/><path d="M688.25,659.42c-.8-2.83-1.7-5.73-2.75-8.74-.26-.76-.52-1.51-.81-2.27l-.9-2.44q-.94-2.58-2-5.08c-2.72-6.7-5.73-12.9-9-19.35l-5.19-10.22-1.42-2.8-1.45-2.95-1.5-3.09-.79-1.66-.91-2c-1.12-2.51-2.1-4.88-3-7.24s-1.8-4.7-2.62-7.05c-1.65-4.68-3.12-9.38-4.45-14.11-.35-1.27-.85-2.28-1.13-2.27s-.18,1.06.16,2.23c1.32,4.76,2.79,9.47,4.43,14.18s3.42,9.35,5.61,14.32l.89,2,.83,1.75,1.5,3.11,1.45,3c.48,1,1,1.9,1.42,2.81l5.19,10.21c3.25,6.4,6.24,12.53,9,19.16,1.33,3.24,2.7,6.94,3.71,9.74,1.05,3,2,5.85,2.78,8.64.26.76.6,1.34.85,1.42S688.46,660.13,688.25,659.42Z"/><path d="M701.07,414.54c-.4.73-.23.82.4.23a11.07,11.07,0,0,0,1.77-2.25c.34-.61.15-.72-.39-.21A10.75,10.75,0,0,0,701.07,414.54Z"/><path d="M708.7,428.78a86,86,0,0,0-5.14,11.47,8.94,8.94,0,0,1-.9,1.86c.4-.07.3.84-.25,2.34-1.43,3.65-2.48,7.45-3.67,11.18-.51,1.89-.94,3.81-1.43,5.7-.23.94-.5,1.88-.71,2.83l-.53,2.88c-.34,1.93-.76,3.82-1.05,5.74s-.59,3.83-.74,5.77l-.29,2.9c-.1,1-.13,1.94-.2,2.91-.16,1.93-.21,3.89-.27,5.83a167.12,167.12,0,0,0,5.75,46.59,2.93,2.93,0,0,1,1.24,1.11c1.5,1.91,3,6,4,10.36l.67,3.34a168.28,168.28,0,0,0,6.09,19.47c.59,1.53,1.21,3.06,1.79,4.39l.46,1,.56,1.23,1.16,2.51c1.6,3.39,3.27,7,4.92,10.83a64.53,64.53,0,0,1,5.66,10.45,172,172,0,0,1,9,20.76c.6,1.78,1.23,3.56,1.81,5.35l.85,2.69c.27.9.56,1.78.83,2.78a111.57,111.57,0,0,1,2.79,12c.13-1.11.36-1.8.7-1.86.86.14,2,4,2.18,8.71.13,2.38.19,4.79.14,7.22a117.24,117.24,0,0,0-.84-20.47c-.14-1-.24-1.83-.32-2.63-.31-1.79-.67-3.55-1-5.3s-.75-3.27-1.12-4.91-.84-3.29-1.27-5-.93-3.31-1.41-5a166.16,166.16,0,0,0-7.93-21.17c-3.08-6.71-6.47-12.91-9.49-18.15l-2.1-3.67c-.53-.91-1.14-2.05-1.72-3.18-1.18-2.29-2.35-4.72-3.45-7.19-2.23-4.93-4.24-10-6.05-15.17a200.92,200.92,0,0,1-8.22-31.36,151.14,151.14,0,0,1-2.35-31.91,5.27,5.27,0,0,1,.4-2.37c.26-.36.51-.23.5.55a107.71,107.71,0,0,0,2.2,19.61,164.53,164.53,0,0,0,4.94,18.49c1,3,2.09,6.07,3.2,9.12s2.36,6.1,3.63,9.2c2.55,6.17,5.39,12.5,8.56,18.94.94,1.92,1.92,3.79,2.92,5.59s2,3.57,3,5c.23.35.47.7.65.93.26.39.6.94.9,1.4l1.92,3c1.38,2.14,2.71,4.38,4.16,6.83s2.82,5,4.24,7.7,2.71,5.49,4,8.35a176.53,176.53,0,0,1,6.64,17.63c1,3,1.82,6,2.65,8.94l1.18,4.47c.4,1.6.8,3.27,1.16,5a111.61,111.61,0,0,1,2.65,21.35,109.46,109.46,0,0,1-1.93,23.18c-.39,2-.8,3.94-1.32,5.91-.26,1-.49,1.94-.8,3l-.95,3.09A89.84,89.84,0,0,1,746.42,701a90.86,90.86,0,0,1-14.9,20.56,97.2,97.2,0,0,1-18.1,14.64,104.76,104.76,0,0,1-39.93,14.65,80.8,80.8,0,0,1-20.79.42,71.19,71.19,0,0,1-10.32-1.89c-1.71-.47-3.39-.92-5-1.53l-1.25-.42-.63-.22-.77-.29c-1-.39-2-.78-3-1.22s-1.9-1-2.83-1.49-1.76-1.13-2.63-1.69a24.88,24.88,0,0,1-2.43-1.83l-1.16-.95c-.37-.33-.71-.67-1.06-1a45.29,45.29,0,0,1-6.94-8.61,70.66,70.66,0,0,1-7.92-18.23c-.62-2.06-1.13-4.22-1.56-6.22s-.87-4-1.31-6c-.85-4-1.69-8-2.62-12a76.45,76.45,0,0,0-3.25-11,34.58,34.58,0,0,0-4.83-8c-.5-.48-.91-1-1.41-1.4l-.94-.82a8.94,8.94,0,0,0-.77-.56,13.35,13.35,0,0,0-1.57-1,31.09,31.09,0,0,0-3.35-1.72l-1.78-.71c-.61-.22-1.27-.41-1.88-.61s-1.25-.38-1.91-.55-1.28-.33-2-.46c-1.42-.25-2.66-.56-4.16-.71l-2.13-.24-2.25-.16c-.57,0-1.11,0-1.63-.1a12.12,12.12,0,0,1-1.55-.2,9.18,9.18,0,0,1-2.5-.81c-1.47-.67-2.23-1.79-2-3.12.31-1.61,2-3.06,4.43-3.77l-1.17-.18-1.73-.54a10.65,10.65,0,0,1-1.13-.47,6.43,6.43,0,0,1-1-.55,4.41,4.41,0,0,1-1.39-1.4l-.9-1.36a21.94,21.94,0,0,0-2.06-3.81,14.49,14.49,0,0,1-1.84-4.14l.65-.95-.26-.36a4.6,4.6,0,0,1-1.43-3.26l.5-1.24a9.3,9.3,0,0,1,3-3.56,2.93,2.93,0,0,1,.81-1.4,4.24,4.24,0,0,1,.69-4.26.67.67,0,0,1,.56-1.14,1.92,1.92,0,0,1,.77.11h0a9.62,9.62,0,0,0-.49-1.09l-.73-.52c-1.27-.76-1.27-.76-2.37-1.44a7.46,7.46,0,0,1-1.3-1.78c-.45-2.86-.45-2.9,0-3.84a1.57,1.57,0,0,1,.3-.2c-.8-.77-.86-.83-1.07-1.06a4,4,0,0,1-.32-.61c.12-.59.12-.59,0-.88a2.17,2.17,0,0,1,.07-.45c.68-.37.68-.37.74-.54a1.27,1.27,0,0,1,.36-.16l1,.19.86,2.07.41-.35.11.8v-.68l.53.68-.57-.88a10.34,10.34,0,0,0,2,1.25,4.36,4.36,0,0,0,1.24.53,1.23,1.23,0,0,1,0-.33c1.53,1,1.53,1.08,3,2.14a4.32,4.32,0,0,1,.25.55,1,1,0,0,1,.82.2l.78.52.2,0v0l.77.12h.17c.53.08,1.3.21,3.32.67.46.35.87.69,1.25,1-.1-.15-.21-.3-.3-.45-.19-.31.19-.59.07-.72-.75-.73-1.55-1.46-2.37-2.18s-1.66-1.35-2.52-2c-1.72-1.29-3.5-2.73-5.27-4-.68-.31-1.22-1-1.19-1.43s.62-.59,1.32-.25a27.3,27.3,0,0,1,6.35,2.17,38.81,38.81,0,0,1,6.33,3.65,65.44,65.44,0,0,1,11.33,9.84c.91.8,1.82,1.7,2.73,2.54s1.81,1.64,2.7,2.57l-.18-.39,1.29,1.52.15.15-.75-1.52-.66-.85c-1-1-2.07-2-3.07-3l-1.49-1.53-1.47-1.48c-1-1-2-2-3-3.08s-2-2-3-3-2.15-2.19-3.15-3.23-2-2.19-3-3.3c-.59-.47-.9-1.06-.71-1.35s.82-.08,1.4.39a74.78,74.78,0,0,1,11.8,9.15c.93.87,1.83,1.74,2.68,2.61s1.69,1.84,2.46,2.75,1.5,1.81,2.17,2.74,1.29,1.87,1.85,2.77a21.18,21.18,0,0,1,1.77,1.92,18,18,0,0,1,1.4,2l0,.07c-.16-.41-.32-.79-.48-1.2.86,1.08,1.11,1.91,1.84,2.91,0-.26.06-.57.09-.84,1,1.33,2.11,2.68,3.18,4s2.05,2.83,3,4.26a41.85,41.85,0,0,1,4.56,9.06l.27.67a33.18,33.18,0,0,1,2,3.59c.16.32.3.65.43,1l.11.29.36,1.09c.24.73.46,1.46.63,2.22s.38,1.51.53,2.26l.39,2.19c.13.73.2,1.49.29,2.25s.17,1.51.21,2.27a56.25,56.25,0,0,0-.69-6.2c-.14-1-.43-2.15-.66-3.23-.11-.55-.27-1.09-.43-1.63l-.42-1.45.51,1.55c.19.57.36,1.15.5,1.74.29,1.17.59,2.36.75,3.45s.39,2.23.51,3.36.21,2.26.28,3.38a113.93,113.93,0,0,1-.39,12.75,50.53,50.53,0,0,0,1.3,15.71c.32,1.27.64,2.53,1.07,3.77.19.62.39,1.24.59,1.85s.45,1.16.67,1.73a49.07,49.07,0,0,0,3.1,6.43,35.44,35.44,0,0,0,7.67,9.3,24,24,0,0,0,6.83,4l.66.15c.21,0,.44,0,.66.06.44,0,.85.12,1.28.11l1.26,0,1.62-.06a46.51,46.51,0,0,0,6.55-.81c1.09-.25,2.16-.43,3.23-.74l1.59-.43,1.57-.51c1.05-.3,2.08-.71,3.11-1.07s2-.83,3-1.25a62.33,62.33,0,0,0,11.24-6.53,55.3,55.3,0,0,0,9.25-8.58,48.62,48.62,0,0,0,6.62-9.81,40.68,40.68,0,0,0,3.54-10.06,31.27,31.27,0,0,0,.49-9.36l-.11-1.1-.15-1.23c-.11-.83-.22-1.64-.39-2.47-.29-1.63-.71-3.3-1.17-5a9.32,9.32,0,0,1-.33-1.88,1.38,1.38,0,0,1,.23-1c.39-.18,1.07.73,1.48,2.17a53.82,53.82,0,0,1,1.78,7.38,42.23,42.23,0,0,1,.6,7,37.34,37.34,0,0,1-3.56,14.84C685,704.62,675.63,714.33,664,720a60.83,60.83,0,0,0,24.13-19.7,47.14,47.14,0,0,0,6.46-12.69,37,37,0,0,0,1.51-6.42c.21-1.06.23-2.13.35-3.17l0-1.57,0-.79v-.85a52,52,0,0,0-.81-7c-.41-2.39-.81-4.75-1.22-7.11-.77-3-1.65-6.1-2.68-9.21-.53-1.56-1-3.12-1.64-4.7l-1.92-5.06c-1.34-3.38-2.77-6.69-4.25-9.92s-3.08-6.38-4.72-9.55c-3.28-6.36-7-12.72-11.12-20.69l-.79-1.51-.85-1.68c-.62-1.24-1.19-2.42-1.72-3.56-1.07-2.31-2.07-4.56-3-6.82-1.91-4.52-3.66-9.06-5.3-13.68q-2.08-5.92-3.83-11.78c-1.13-3.91-2.19-7.8-3.1-11.71S647.8,543,647.09,539c-.34-2-.64-3.94-1-5.91s-.51-4-.73-6c-.41-4-.74-8-.92-12s-.18-8.14,0-12.27A154.86,154.86,0,0,1,652,459.68c1-2.85,2.09-5.68,3.15-8.48l.8-2.1.91-2c.61-1.35,1.23-2.7,1.84-4a156.76,156.76,0,0,1,18-29.32A171.11,171.11,0,0,1,726.38,371c2.53-1.46,5.08-2.7,7.07-3.6a13.57,13.57,0,0,1,4-1.33c.92.06-2.53,2.27-7.47,5.25a177.16,177.16,0,0,0-50.47,46.35l-2.56,3.63c-.83,1.23-1.72,2.41-2.48,3.7-1.57,2.54-3.17,5.07-4.7,7.65l-4.24,8c-1.34,2.71-2.55,5.52-3.79,8.31l-.92,2.1-.8,2.15-1.59,4.33c-.51,1.45-1.1,2.88-1.54,4.36l-1.33,4.45c-.47,1.48-.8,3-1.2,4.48s-.77,3-1.06,4.52l-1,4.54-.76,4.56a163.29,163.29,0,0,0-1.5,36.65q.63,9.11,2.13,18.06c1,6,2.23,11.88,3.72,17.72s3.23,11.62,5.18,17.36,4.11,11.42,6.64,17.2c.64,1.45,1.3,2.91,2,4.45l.57,1.18.52,1,1,2c1.31,2.55,2.59,5,3.84,7.38,2.48,4.73,4.77,9.07,6.93,13.46a209,209,0,0,1,9.79,23,.89.89,0,0,1,.39-.34c.62-.2,1.52.45,2.41,1.49-1.49-4.48-3.12-9.08-4.88-13.48s-3.63-8.78-5.61-13.17c-3.32-5.86-7-11.67-10.8-18.52l-1.45-2.6-.36-.66-.42-.79-.79-1.54c-1-2-1.94-4-2.82-5.9-1.77-3.89-3.37-7.8-4.85-11.76A170.61,170.61,0,0,1,652.38,526a145.33,145.33,0,0,1,.18-18.1c.19-3,.54-5.9.88-8.8.19-1.45.44-2.9.66-4.33s.48-2.87.77-4.29a143.85,143.85,0,0,1,10.41-32.64,156.38,156.38,0,0,1,19.47-37.38,173.7,173.7,0,0,1,27.59-30.57,9.78,9.78,0,0,1,2.1-1.59c.4-.16,0,.32-.74,1.07a179.65,179.65,0,0,0-19.24,21A167.94,167.94,0,0,0,678.37,435c2.21-2.39,3.87-3.57,4.51-2.93s.14,3.08-1.14,6.47l3.36-5.65c.57-.94,1.1-1.89,1.71-2.8l1.82-2.72c1.53-2.23,3-3.8,3.31-3.51s-.54,2.25-1.94,4.37L688.18,431c-.59.93-1.12,1.9-1.69,2.85-1.11,1.91-2.26,3.8-3.33,5.73-2,4-4.14,7.85-5.83,12A142.16,142.16,0,0,0,668.82,477c-4.16,21.17-3.42,42.81.69,63.53.29-3,.89-5.3,1.82-6.46h0c-.48-3.2-.89-6.4-1.2-9.6a146.23,146.23,0,0,1,.21-44.78,135.36,135.36,0,0,1,14.94-43l2.78-5,3-4.84c1-1.61,2-3.22,3.16-4.75l3.31-4.65a184.82,184.82,0,0,1,14.74-17.32A211,211,0,0,1,747,371.12a7.68,7.68,0,0,1,1.9-1.08c.08.07-.63.64-1.51,1.23a208,208,0,0,0-40.81,36l0-.05c.57-.49.81-.47.38.22a13.18,13.18,0,0,1-1.87,2.16c-.65.57-.76.38-.39-.2-10.9,13.05-20.13,27.73-26.25,43.73-1.67,3.94-2.8,8.09-4.11,12.15-.6,2.05-1.07,4.13-1.6,6.2s-.88,4.17-1.27,6.26a139.11,139.11,0,0,0-2.11,25.2,141,141,0,0,1,9-45.68,152.37,152.37,0,0,1,10.06-21c1.85-3.4,4-6.59,6.11-9.83,1-1.62,2.23-3.14,3.33-4.71s2.22-3.13,3.45-4.61c1.88-2.77,3.7-5.58,5.8-8.26a8.42,8.42,0,0,1,1.81-1.76c.28-.1,0,.52-.61,1.27l-1.7,2.24a45,45,0,0,1,5.15-5.19c1.45-1.15,2.47-1.7,2.76-1.38s-.36,1.64-1.47,3.32a61.25,61.25,0,0,1-4.51,6.22c-9.56,12.63-17.81,26.25-23.52,40.94l-1.67,4.83-1,5.05a153.88,153.88,0,0,1,15.75-32.75,200.14,200.14,0,0,1,22.1-28.71c1.4-1.54,2.76-2.69,3-2.52s-.7,1.57-2.08,3.11c-13.49,16.33-24.44,34.8-30.91,54.52-6.66,19.66-8.17,40.52-6.09,61.05a183.75,183.75,0,0,0,14.15,38.39c-.46-1.63-.93-3.28-1.4-4.93a281.91,281.91,0,0,1-7-30.82,177,177,0,0,1-2.53-30.17,133.62,133.62,0,0,1,1-15.06c.11-1.27.37-2.5.55-3.76s.37-2.52.67-3.75c.55-2.49,1.06-5,1.69-7.53a125.24,125.24,0,0,1,12.1-29.61,3.67,3.67,0,0,1,1.36-1.71c.23,0,0,.72-.59,1.7a122.56,122.56,0,0,0-11.49,28.75l-.5,1.8-.39,1.84L691,467.9c-.56,2.42-.89,4.89-1.27,7.35-.61,4.94-1,9.92-1.18,15A147.4,147.4,0,0,0,695.35,538c-3.43-15.49-5.41-30.89-5-46.34.06-1.92.18-3.85.28-5.78s.28-3.86.55-5.77.44-3.85.8-5.75l.48-2.88c.19-.95.43-1.9.63-2.85l1.32-5.75,1.71-5.69c.51-1.93,1.25-3.79,1.95-5.67l1.06-2.83.54-1.42.61-1.39a14.33,14.33,0,0,1,1.8-3.28,1.44,1.44,0,0,1,.1-.86,57.81,57.81,0,0,1,2.36-6c.46-1,.91-2,1.37-3.09s1-2,1.57-3.07a6.51,6.51,0,0,1,1.44-2C709.26,427.32,709.12,427.88,708.7,428.78ZM580.24,630.05l-.13-.25.58.64.51,1.43Zm-13.67-2.86h0l-.34-.87Zm115,82a60.06,60.06,0,0,1-19.34,12.54,56.37,56.37,0,0,1-22.78,4.39,48.69,48.69,0,0,0,11.29-1.34A66.49,66.49,0,0,0,681.57,709.2ZM573.66,621.47a20.41,20.41,0,0,1,2.05,3.5,14.27,14.27,0,0,1,2.31,1.22l3,2.11c1,.7,1.92,1.38,2.82,2.16-.09-.46.35-.1.6,0l.75.45c-1.9-1.72-3.88-3.26-5.89-5C577.44,624.44,575.37,623.05,573.66,621.47Zm-15.77-6.56a2.18,2.18,0,0,0-.14-.25l.61-.48Zm-1,.84.29.25C557,616.2,556.94,616.06,556.91,615.75Zm2.64,2.16a2.16,2.16,0,0,0-.3-.54Zm-3.88,19.64c.7-1,1.39-1.95,2.09-2.89-.72.9-1.43,1.81-2.15,2.74Z"/><path d="M371.71,794.37v.52c-.3,0-.54-.17-.73-.49a6.23,6.23,0,0,0,3.43,4.83,10.7,10.7,0,0,0,6,.77,1.83,1.83,0,0,0,2.74-.31,2.33,2.33,0,0,0,.05-3,2.72,2.72,0,0,1-.25-.78,16.81,16.81,0,0,0-1.53-6.62c.07.51.15,1,.22,1.57a4.9,4.9,0,0,0-.93-1.62l-.25.68a3.64,3.64,0,0,0-5.12-3,5.9,5.9,0,0,0-3.81,6.29Z"/><path d="M370.2,802.52c-.47-1.48-.85-2.95-1.2-4.43l.08-.48L368,799.13l.09-.08c1.87-.49,3.64.24,5.2,1l.65.16a1.57,1.57,0,0,0,1-.46,1.67,1.67,0,0,0,.23-2.24c-.2-.23-.38-.48-.57-.72-1-2.32-3.42-4.6-6.43-3a6.71,6.71,0,0,0-1.64,2,2.24,2.24,0,0,0-.14,3.12,2,2,0,0,0,3-.21l.27.58-.62.05c.92-.64,1.84-.15,2.77-.11l1,.51,1.31-2.72-.67-.08a2,2,0,0,1-.11.33,16.52,16.52,0,0,1-3.84-.59l-1.84-.2a1.54,1.54,0,0,0-1.16,1.52l.12.94v-.49c.79,1.56,1.84,3,2.63,4.59a.49.49,0,0,0,.69.24A.62.62,0,0,0,370.2,802.52Z"/><path d="M365.63,799.08a1.15,1.15,0,0,0-.4-.9l-.28.08c0,.19,0,.46.07.72C365.06,799.5,365.39,799.41,365.63,799.08Z"/><path d="M365,798.26c0-.18,0-.3,0-.3s-.05.2-.07.3H365Z"/><path d="M492.17,840.24c1,0,1.93.11,2.89.11H498l5.82,0,5.83-.26,2.92-.14,2.92-.26,5.85-.53,5.83-.78,2.93-.39c1-.14,1.94-.33,2.91-.5l5.82-1c.53-.08.94-.28.93-.4s-.42-.12-.91,0L533,837l-2.91.5-2.91.38-5.82.77-5.82.51-2.91.26-2.91.14-5.8.26c-1.94,0-3.87,0-5.8,0s-3.85,0-5.77-.12c-.51,0-.94.08-1,.21S491.69,840.21,492.17,840.24Z"/><path d="M610.16,820.52c-.3.26-.24.34.16.21a4.53,4.53,0,0,0,1.19-.66c.26-.21.19-.32-.15-.2A4.71,4.71,0,0,0,610.16,820.52Z"/><path d="M610.88,829.23,608,831.17c-.94.61-1.83,1.21-2.66,1.81a5.56,5.56,0,0,1-1,.52c.2.08-.13.43-.86.9-14.32,9.32-31.12,17.16-48.29,23.59a1.6,1.6,0,0,1-.61.66,19.73,19.73,0,0,1-6,2.49l-1.95.45c-2,.51-3.94.9-5.9,1.36s-3.93.92-5.92,1.27l-5.95,1.08-3,.52-3,.41a48.45,48.45,0,0,1-5.5,1.42c-3.4.89-6.85,1.62-10.32,2.42s-7,1.29-10.62,1.9c.46.11.74.26.75.46s-.5.51-1.18.7a11.72,11.72,0,0,1-2.58.37l-3,.2c2.86-.06,5.73,0,8.56-.23a11.28,11.28,0,0,1,1.14,0c3.11-.31,6.26-.57,9.42-1.12A213.82,213.82,0,0,0,549,862.43a265,265,0,0,0,35.41-15.57,4.37,4.37,0,0,1,1.32-.57c.26,0,.27.12-.14.36-1.71,1.08-3.42,2.08-5.12,3.08l-5.06,3c-3.38,1.94-6.78,3.84-10.27,5.75a173.36,173.36,0,0,1-23.35,10.37,242.28,242.28,0,0,1-67,13.81,333.32,333.32,0,0,1-36.45-1.87,240.83,240.83,0,0,1-36.91-6.7c-2.16-.5-4.25-1.2-6.36-1.82l-6.31-1.93-6.19-2.23c-2.06-.76-4.14-1.47-6.14-2.35l-1.52-.64-.75-.32-.29-.11-1-.38-2.05-.78c-1.37-.54-2.74-1-4.06-1.66-2.65-1.21-5.29-2.47-7.92-3.76s-5.16-2.81-7.77-4.26a8.39,8.39,0,0,1-4.4-4.2,6.07,6.07,0,0,1,0-5.28,6.48,6.48,0,0,1,5.34-3.32l-.83-.61-1.1-1.27a6.06,6.06,0,0,1-1.51-4.16v-1.87c.54-3.19.21-6.62,1.23-9.74l.93-.75v-.43a5.55,5.55,0,0,1,.64-3.52l1-1.05a14.44,14.44,0,0,1,3.91-2.71,5.07,5.07,0,0,1,1.28-1.21,7,7,0,0,1,2.6-3.86,1,1,0,0,1,1-1,1,1,0,0,1,.5.14h0c.09-.41.11-.52.18-1-.18-.31-.27-.5-.27-.5-.53-.77-.53-.77-1-1.45a4.68,4.68,0,0,1-.06-1.61c1.08-2.41,1.09-2.41,1.88-3.17l.3-.15c-.2-.65-.21-.7-.25-.88a2.78,2.78,0,0,1,.07-.5c.37-.46.37-.46.43-.69a4.21,4.21,0,0,1,.27-.35c.67-.3.67-.3.79-.43a1.6,1.6,0,0,1,.34-.13l.64.13-.39,1.69.47-.3-.31.66.33-.56.06.56v-.73c.57.8.57.8.87,1a1.46,1.46,0,0,0,.64.43,2.15,2.15,0,0,1,.19-.29c.6.85.6.85,1.18,1.71a3.7,3.7,0,0,1-.09.48.4.4,0,0,1,.5.13l.33.43h.14l0,0,.52,0h.11c.35,0,.85.09,2.24.16a4.52,4.52,0,0,1,.5.76,2.43,2.43,0,0,1,0-.38c0-.26.44-.61.41-.71a16.19,16.19,0,0,0-.82-1.61c-.28-.54-.58-1.06-.9-1.57-.63-1-1.31-2-1.95-3a.85.85,0,0,1,.91-1.42c5.23.72,9.11,4.41,11.53,9.18.84.95,1.72,1.87,2.62,2.79v-.34l.56.92.08.07-.06-1.26c-.09-.18-.17-.36-.26-.53a17.4,17.4,0,0,1-2.68-3.46c-.76-1.28-1.4-2.65-2.17-3.9a35.66,35.66,0,0,1-1.83-4.34.75.75,0,0,1,.08-1,.64.64,0,0,1,.93-.06,18.73,18.73,0,0,1,5.29,4.52,15.12,15.12,0,0,1,3.37,6.45,3.8,3.8,0,0,1,1.42,2.14l0,0c0-.34,0-.66,0-1,.39.55.34,1.29.68,1.85l.4-1.07c1.13,1.15,2.46,2.11,3.71,3.17a20.2,20.2,0,0,1,1.78,1.68,11.76,11.76,0,0,1,1.56,1.93,1.48,1.48,0,0,1,.25.25,17.41,17.41,0,0,1,2.17,0l.53.07.14,0,.35.16.71.32c1,.43,1.9,1,2.92,1.42-.66-.38-1.28-.81-1.9-1.25s-1.21-.83-1.82-1.26c.65.25,1.47.6,2.19.91s1.49.65,2.26,1c1.52.63,3,1.34,4.57,2.16,8.35,4.33,17.77,9.73,22,13.81A205.22,205.22,0,0,0,459,837.58a199,199,0,0,0,28.54,2.18,3.17,3.17,0,0,1,2.06.45c.1.26-.54.51-1.54.53s-1.72.1-2.58.12h-7.78c-1.73,0-3.46-.15-5.2-.23s-3.48-.15-5.22-.3a191.66,191.66,0,0,1-20.74-2.94,168,168,0,0,0,35.19,5.94c1.55,0,3.1.11,4.66.1s3.07,0,4.6.17a186.76,186.76,0,0,0,46.12-5.14A240.71,240.71,0,0,0,574.57,826c8.85-3.8,17.13-7.87,25.28-12.12s16.08-8.91,24.29-13.85c2.13-1.4,4.32-2.38,4.84-2.17s-.82,1.53-3,3q-12.54,8.37-25.68,15.57a286.08,286.08,0,0,1-27.14,12.81,223.17,223.17,0,0,1-28.71,9.56,194.76,194.76,0,0,1-30.27,5.5c-2.22.25-4.44.35-6.64.53l-3.29.23c-1.09.06-2.18.07-3.27.11a.64.64,0,0,1,.13.26c0,.36-.37.71-1,1l3.75-.08,3.76-.22,3.77-.2,1.9-.1,1.89-.17c13.89-2.35,27.54-5.77,42.11-9.69,10-2.76,19.08-5.4,28.24-8.63A307.53,307.53,0,0,0,618,809.9a3.45,3.45,0,0,1,1.07-.52c.2,0,0,.21-.39.49-1.77,1.2-3.58,2.36-5.39,3.55l-2.72,1.77-2.8,1.69-5.65,3.37-5.8,3.19c1.4-.33,2.33-.33,2.44.12s-.67,1.32-2,2.33l5.45-2.67c1.13-.54,2.09-.84,2.16-.63s-.7.86-1.78,1.38c-3.71,1.84-7.39,3.72-11.18,5.37-1.89.84-3.75,1.75-5.66,2.53L580,834.23a265.29,265.29,0,0,1-27.8,10.42,6.64,6.64,0,0,1,3.12.39h0l4.4-1.38a372.48,372.48,0,0,0,76-39.68c.47-.32.9-.52,1-.45s-.25.38-.68.66c-3.67,2.41-7.27,4.9-11,7.18-1.86,1.14-3.67,2.37-5.56,3.46l-5.62,3.34h0c.33-.13.45-.06.15.2a5.26,5.26,0,0,1-1.17.7c-.39.14-.41,0-.16-.2a385,385,0,0,1-43.25,21.4,335.76,335.76,0,0,0,40.42-18.41c1.34-.9,2.71-1.75,4.06-2.7a3.38,3.38,0,0,1,1.11-.5c.15,0-.08.27-.47.52l-1.12.77c2.44-1.39,4.52-2.12,4.75-1.65s-1.72,2.14-4.26,3.62c-6.8,3.94-13.66,7.73-20.76,11.06l-2.25,1.18-2.2,1.34A300.3,300.3,0,0,0,621.3,819c.89-.54,1.73-.87,1.84-.73s-.52.72-1.41,1.27a277.42,277.42,0,0,1-27.91,16.42,265.69,265.69,0,0,1-30,13.24c-3.26,1.63-6.58,3.16-9.91,4.79-3.38,1.46-6.78,3-10.27,4.47.92-.2,1.84-.45,2.75-.72a178.37,178.37,0,0,0,31.89-12.52c9.89-4.89,19.36-10.21,29.36-15.94a2.14,2.14,0,0,1,1.06-.42c.1.06-.19.34-.7.63-9.73,5.67-18.65,10.92-28.8,15.88l-6.27,3-6.23,2.75-3.08,1.37-3.09,1.26-6.12,2.57q3.18-1.1,6.3-2.24l3.12-1.13,3-1.26,6.07-2.52,5.94-2.74,3-1.38,2.91-1.46,5.83-2.93,5.75-3.09,2.88-1.54c1-.52,1.91-1.08,2.86-1.61a8.57,8.57,0,0,1,1.84-.86c0-.07.12-.19.31-.33,1.81-1.27,3.84-2.53,5.86-3.91a3.34,3.34,0,0,1,1.17-.55C611.5,828.69,611.3,828.92,610.88,829.23ZM374.21,814v-.25c.06.17.12.35.2.55l-.21,1.51Zm-9.73-1h0c.09-.5.15-.86.15-.86C364.58,812.56,364.52,812.84,364.48,813.06Zm93.09,28.05-6.24-1.23c-1-.19-2.06-.45-3.08-.73l-3.05-.81a111,111,0,0,1-11.91-4l5.89,1.46,2.25.77,2.28.68,4.57,1.37c1.52.49,3.07.88,4.62,1.27Zm-84.75-34.67a13.37,13.37,0,0,1,0,3.16,3.94,3.94,0,0,1,1.31.77c1,1,2,1.86,3,2.81.13-.49.36-.27.53-.22l.47.18a41.15,41.15,0,0,1-2.85-3.39A28.86,28.86,0,0,1,372.82,806.44Zm-8.7-4.73,0-.22.67-.4Zm-1.11.69.08.21C362.86,802.78,362.88,802.66,363,802.4Zm.83,1.93a1.93,1.93,0,0,0,.05-.48Zm-12.51,17.78,2.93-2.37-2.9,2.21Z"/><path d="M509.88,892.55l-.57-.28c.13-.18.48-.2,1-.12a10.41,10.41,0,0,0-7.08-.49,9.79,9.79,0,0,0-2.45,1.17,7.17,7.17,0,0,0-1.62,1.48c-1.15.11-1.56.74-1.14,1.31a2.45,2.45,0,0,0,1.11.73,4.54,4.54,0,0,0,1.62.29,5.81,5.81,0,0,1,.89.2c.6.23,1.18.47,1.81.69l1.93.65,2,.67c.69.21,1.4.43,2.12.67-.64-.3-1.29-.57-1.91-.82a22.41,22.41,0,0,0,2.44.62l-.58-.48c3.13,1.3,6.4,1.69,7.06.21s-1.78-4.53-5.11-5.9Z"/><path d="M502.14,888c.82.11,1.7.27,2.57.46s1.73.41,2.61.67l.47.29-1-1.42,0,.1c-.42,1.36-2.22,2-3.78,2.63l-.52.28a.62.62,0,0,0-.12.73,2.59,2.59,0,0,0,2.16,1l1.07,0a23,23,0,0,0,2.36.3,13.19,13.19,0,0,0,2.28,0c1.41-.18,2.46-.7,2.33-2.05-.06-.61-.85-1.41-1.38-2.13a3.81,3.81,0,0,0-3.39-1.78c-1.31.1-1.86,1-1.33,1.92l-.75-.1.26-.41c.2.86-.8,1.17-1.36,1.68l-1.06.39,2.06,1.86.46-.32c-.11-.08-.29-.19-.29-.2a14.67,14.67,0,0,1,2.78-1.82l1.25-.94c.2-.47-.28-1.16-1.07-1.51l-1.1-.41.54.25a53.68,53.68,0,0,0-6.1-.32c-.32,0-.57.14-.57.37S501.82,888,502.14,888Z"/><path d="M508,886.57a2.09,2.09,0,0,0,1.18.2c0-.12.05-.18.06-.21l-.83-.34C507.84,886,507.78,886.24,508,886.57Z"/><path d="M509.26,886.56l.34.14-.3-.21,0,0Z"/><path d="M518.34,1036.27c-1,24.84-2.14,49.82-3.69,74.78-.06.84,0,1.55.21,1.59s.33-.61.37-1.38c1.61-25,2.78-49.83,3.78-74.66a2.83,2.83,0,0,0-.31-1.65C518.51,1034.91,518.36,1035.49,518.34,1036.27Z"/><path d="M495.68,1222.51c-.05-.6-.16-.57-.26,0a10.75,10.75,0,0,0-.07,2.06c0,.49.18.48.26,0A9.61,9.61,0,0,0,495.68,1222.51Z"/><path d="M487.46,1217.08c-.27-3.5-.59-6.82-1-9.78a11.61,11.61,0,0,1-.05-1.64c-.18.2-.37-.47-.51-1.73-2.62-24.85-4.51-51.56-6.25-77.88a2.54,2.54,0,0,1-.65-1.12,29.52,29.52,0,0,1-1.12-9.28l.12-2.85c.17-11.55.38-23.08.8-34.56a68.64,68.64,0,0,1-.63-8c-.91-10-1.72-19.93-2.25-30.14-.21.64-.46,1-.73,1-.63-.21-1.09-2.57-1-5.33,0-1.39.07-2.78.16-4.17-.45,4-.54,8-.79,12,0,.57-.07,1.1-.13,1.58-.09,4.38-.09,8.79,0,13.29.43,39.22,4,76.08,7.74,112.67a6.88,6.88,0,0,1,0,2.07c-.1.35-.27.29-.36-.38-3.5-23.07-8.22-43-11-69.14-1.63-15.53-3-30.95-4-46.49-.26-3.88-.51-7.77-.71-11.67l-.3-5.86c-.1-2-.23-3.92-.21-5.88a57.55,57.55,0,0,1,5.28-23.65c4-8.28,9-16.37,12.8-24.51,1-2.08,1.82-4,2.71-6.33l.64-1.67c.23-.65.47-1.17.67-1.63.42-.92.82-1.7,1.13-2.49A15.62,15.62,0,0,0,489,964a13,13,0,0,0-1.75-4.36c-.43-.69-.93-1.4-1.61-2.35a18.53,18.53,0,0,1-2.19-4,16.21,16.21,0,0,1-1.06-5.26,17.51,17.51,0,0,1,.56-5.15,23.37,23.37,0,0,1,4-7.76,13.34,13.34,0,0,0,1-1.59l0-.05v0s0,0,.09.06l.35.19c.24.12.48.22.74.32l.38.13a.88.88,0,0,1,.2.08,2.75,2.75,0,0,0,.67.17s0,0,0,0h-.22l-.29,0-.21,0,.11,0a1.82,1.82,0,0,0-.41.18l-.3.17c-.13.07-.21.14-.36.23l-.45.33-.11.09h0a.73.73,0,0,0-.18-.31l-.24-.25c-.4-.36-.73-.7-1.14-1-.79-.6-1.57-1.19-2.29-1.81a21.63,21.63,0,0,1-3.72-3.68,9.77,9.77,0,0,1-1.76-4.15,3.72,3.72,0,0,1-.13-1.21c0-.41,0-.82,0-1.23a10.12,10.12,0,0,1,.52-2.26,6.22,6.22,0,0,1,.65-1.38,6.4,6.4,0,0,1,.85-1.27,3.82,3.82,0,0,1,.46-.62l.6-.59a16.6,16.6,0,0,1,1.42-1.1,6.79,6.79,0,0,1,.79-.53,6,6,0,0,1,.87-.5c.66-.27,1.32-.56,2-.86,1.32-.57,2.83-1,4.2-1.42l2.08-.69c.42-.16.63-.25.93-.38a9.09,9.09,0,0,0,1.34-.68,1.68,1.68,0,0,0,.28-.24h0l.07.1c.19.24.47.52.59.69a6.91,6.91,0,0,0,.51.57l.28.26.2.2a3.13,3.13,0,0,0,.44.36c.17.11.21.17.34.25s.28.14.31.17l.2.08c.13,0,.19,0,.11,0a1.27,1.27,0,0,0-.34.12,1.93,1.93,0,0,0-.6.33,4.42,4.42,0,0,0-.86.63l-.19.18-.28.24a6.51,6.51,0,0,0-.54.51c-.17.17-.33.35-.49.54a2.25,2.25,0,0,1-.28.32c-.08.09,0,0-.06.05l-.08,0-.38-.08c-.65-.16-1.65-.39-2.73-.58-.56-.1-1.08-.19-1.75-.27l-2-.08c-.68,0-1.38-.2-2.06-.29a80.26,80.26,0,0,1-8.85-1.95l-1.68-1a3.48,3.48,0,0,0-.43-.25l-.55-.2-1.09-.4a8.51,8.51,0,0,1-1.05-.41l-.74-.56c-.49-.38-1-.75-1.44-1.14s-.93-.76-1.36-1.15l-.43-.39-.58-.52c-.79-.68-.49-1.58-1.36-2.25l-.5-.53a2.32,2.32,0,0,1-.43-.54l-.67-1.12-.54-1.16a11.83,11.83,0,0,0-.73-1.18c-.64-.8.09-1.59-.74-2.49l-.37-.66a4.73,4.73,0,0,1,0-.65l.05-.66c0-.1,0-.23-.08-.35l-.16-.37c-.18-.48-.56-1-.31-1.43l.17-.69.08-.34a1.33,1.33,0,0,0-.07-.38c-.12-.53-.26-1.06-.36-1.58l.56-1.37.14-.34a1.64,1.64,0,0,0,0-.39l0-.79c0-.54-.05-1.06,0-1.6l.1-1.62,0-.4c0-.15.13-.22.19-.33l.49-.6,1-1.22a10.72,10.72,0,0,0,.56-1.46l.52-1.49,0-.09,0-.05-.06-.1-.26-.41-.13-.21c0-.05,0-.07,0-.11l.09-.2.35-.8.34-.81.28-.71.53-1.32c.36-.84.74-1.72,1.11-2.55s.6-1.37.92-2a17.41,17.41,0,0,1,1-1.8,12.55,12.55,0,0,1,2.07-2.63c1.34-1.27,2.7-1.68,3.68-1,1.2.9,1.55,3.11,1.13,5.55l.65-1c.39-.45.8-.93,1.2-1.35,1.14-1.18,2.35-1.94,3.45-1.87l1.44,0c2.31.54,5.1.34,7.46,1.75l.39,1,.36.05a3.75,3.75,0,0,1,2.86,1.17l.64,1.13a12.11,12.11,0,0,1,1.21,4.23,3.87,3.87,0,0,1,.66,1.41,5.64,5.64,0,0,1,2.63,3.21.8.8,0,0,1,.58,1.08.88.88,0,0,1-.33.36h0c.36.2.46.25.89.45l.61,0c1-.15,1-.15,1.84-.23a5.89,5.89,0,0,1,1.66.59c2,1.84,2.05,1.88,2.5,2.8a2.64,2.64,0,0,1,0,.28,8.64,8.64,0,0,1,1.07.27,4,4,0,0,1,.51.3c.34.5.34.5.56.66a3.62,3.62,0,0,1,.26.38c0,.6,0,.59.09.75a1.12,1.12,0,0,1,0,.29l-.47.33-1.65-1.11.09.45-.56-.52.44.49-.63-.24.78.37a4.65,4.65,0,0,0-1.54.06,1.57,1.57,0,0,0-.77.23,1.65,1.65,0,0,1,.21.25l-2.33.07-.44-.24c0,.14-.16.26-.39.27l-.58.06-.07.09,0,0c-.11.13-.19.22-.29.32l0,.08h0c-.2.22-.5.54-1.29,1.33a8.63,8.63,0,0,1-1,0l.37.11c.26.08.36.46.48.47,1.36.08,2.7.15,4,.17s2.75.08,4.18.22a1.53,1.53,0,0,1,1.34.5c.3.37.17.69-.28.76a10,10,0,0,1-3.23,1.43,24.65,24.65,0,0,1-3.84.74c-2.7.31-5.46.43-8,.51-.57.08-1.15.21-1.69.33l-1.52.36.24,0c-.25,0-.62,0-.56.15v0h.2a3.8,3.8,0,0,1,.4.07h.47a17.08,17.08,0,0,1,3.89-.46c.75,0,1.45,0,2.23,0l2.38.12a16.87,16.87,0,0,1,2.68.36l2.76.62a1.31,1.31,0,0,1,1,.54c.14.26-.1.43-.52.39-1.26.14-2.46.17-3.77.24-.64,0-1.23,0-1.88,0h-1.86c-1.26,0-2.38-.08-3.51-.12L493.7,896a3,3,0,0,1-.36-.06,1.87,1.87,0,0,0-.31-.05l-.11.06a1.56,1.56,0,0,1-.84.3h0l.49.08c-.17.11-.6,0-.8.14l.61.19a1.55,1.55,0,0,0-.47,1.31c.05.46.22.84.26,1.2a.2.2,0,0,1,0,.08c.35.12.69.21,1,.29l.22.07.06,0,.17.08.34.16c.46.21.92.4,1.39.59a12.39,12.39,0,0,1-1.67-.91c.64.31,1.35.56,2,.79l.24.09.12,0,.06,0,.12.08,1.95,1.29c.69.46,1.38.91,2.14,1.46a24.59,24.59,0,0,1,2.48,2l.47.44.5.55a10.23,10.23,0,0,1,1,1.36,8,8,0,0,1,.51.94,7.1,7.1,0,0,1,.42,1.09A11,11,0,0,1,506,911a10.11,10.11,0,0,1,0,1.35,7.57,7.57,0,0,1-1.79,4.33,9.82,9.82,0,0,1-2.31,2,22.52,22.52,0,0,1-3.63,1.78l-1.16.46-.36.11a9.65,9.65,0,0,0-1.46.55,1.66,1.66,0,0,0-.63.51.81.81,0,0,1-.1.18c0,.06,0,.13,0,.19a.6.6,0,0,0,.1.35,4.85,4.85,0,0,0,1,1l.28.24.14.13.07.06,0,0-.05,0s0,0,0,0l.17.13a16.41,16.41,0,0,1,2.67,2.62,12.28,12.28,0,0,1,2,3.71,11.91,11.91,0,0,1,.48,2.05c.06.7.1,1.39.09,2.06a15.36,15.36,0,0,1-.29,2,14.45,14.45,0,0,1-.57,1.72c-.23.48-.47,1-.7,1.38s-.48.75-.72,1.08a26.71,26.71,0,0,1-2.1,2.76c-.59.71-1.1,1.3-1.48,1.83a6.25,6.25,0,0,0-1.29,2.81,4.5,4.5,0,0,0,0,1.36,5.53,5.53,0,0,0,.62,1.71c.79,1.5,2,3.54,3,5.58a55.56,55.56,0,0,1,4.12,12.93c.43,2.24.7,4.56.94,6.73l.19,1.56a12.85,12.85,0,0,0,.26,1.32c.19.9.43,1.79.65,2.67.51,1.91,1.05,3.85,1.67,5.76s1.29,3.9,2,5.85c1.39,3.88,3,7.8,4.42,11.69a99,99,0,0,1,6.27,23.36c.21,1.61,0,3-.29,3.32s-.71-.9-.89-2.51a98.13,98.13,0,0,0-3.91-16.79c-1.81-5.63-4-11.26-6-16.91-1-2.81-1.9-5.65-2.73-8.46-.4-1.4-.78-2.8-1.12-4.2l-.26-1-.22-1c-.14-.65-.29-1.3-.41-2-.26-1.16-.34-2.81-.52-4.39s-.36-3.23-.66-4.85a53.45,53.45,0,0,0-2.55-9.4,51.89,51.89,0,0,1,2.16,7.84,68,68,0,0,1,1,8c.06.65.09,1.28.15,1.86s.16,1.05.26,1.62c.21,1.11.39,2.15.66,3.37.5,2.37,1,4.7,1.7,7.11,2.51,9.53,5.89,19.19,7.53,28.89.49,2.48.88,5,1.19,7.46a46.17,46.17,0,0,1,.23,7.33c-.1,12.38-.44,24.44-.7,36.57s-.52,24.33-.66,37c-.25,21.59-.67,40.48-1.64,62-1.43,30.19-4,57.69-9.74,87.5a43.44,43.44,0,0,1-2.06,8.1c-.35.47,0-2.4.65-6.38,2.47-15.55,4.12-31,5.38-46.52s2.1-31,2.74-46.59c1.26-31.19,1.8-62.73,2.85-95.25.2-7,.41-13.91.61-20.77a.72.72,0,0,1-.36.16c-.49,0-.93-.66-1.28-1.77q-.39,11.7-1.06,23.53c.5,21.94.65,43.91-1,67.28-1.15,16-2.9,30.57-4.53,45.42-.78,18.82-1.79,37.58-3.6,56.58a8.16,8.16,0,0,1-.28,1.82c-.1.27-.13-.14-.09-.91.86-13.06,1.38-26.46,1.77-40-.51,2.13-1.05,3.39-1.55,3.22s-.9-1.83-1.14-4.36l-.46,9.19c-.11,1.89-.37,3.38-.62,3.33s-.39-1.55-.31-3.36q.75-18.75,1.49-37.46c.14-15,.2-29.92.24-44.93a10.74,10.74,0,0,1-1.85,4.32h0c0,2.33-.05,4.65-.08,6.95q.9,31.83.27,64.3t-2.89,65.29a7.92,7.92,0,0,1-.19,1.58,5.9,5.9,0,0,1,0-1.42q1.22-19.81,1.94-39.51v.05c-.08.53-.19.63-.24,0a11,11,0,0,1,.07-2.06c.1-.61.21-.55.25-.05.86-24.47,1.07-48.77.6-72.75q-.43,33.42-1.66,66.8c.05,2.43.1,4.85.16,7.31a7.74,7.74,0,0,1-.19,1.82c-.08.19-.17-.3-.17-1l0-2c-.17,4.22-.65,7.46-1.12,7.39-.48-.24-.83-3.86-.78-8.24q0-17.58.08-35.08l-.1-3.79c-.1-1.27-.21-2.54-.31-3.81-.39,18.16-.73,36.29-.87,54.3a8.22,8.22,0,0,1-.26,2.9c-.16,0-.31-1.22-.34-2.77-1.09-31.76-2.38-63.92-3.13-96.22-1.38-10.61-2.86-21.26-4.34-32.1,0,1.36,0,2.74,0,4.12.17,17.56,1.45,33.79,2.7,49.89s2.47,32,3.06,49a4.09,4.09,0,0,1-.13,1.67c-.1.09-.22-.49-.24-1.35-.73-16.6-2.12-31.74-3.31-48.21-1-13.64-1.91-26.61-3.15-39.3.84,25.92,3.05,50.77,4.4,76.44a15.84,15.84,0,0,1,0,3,1.59,1.59,0,0,1,.18.64c.41,3.21.74,6.71,1,10.28a6.74,6.74,0,0,1-.05,1.91C487.67,1218.26,487.55,1217.84,487.46,1217.08ZM490,887.87l.2,0-.54.07-1.11-.28S489.2,887.75,490,887.87Zm4.87-6.88h0l.71.31Zm7.39,99.63c-.14-.8-.27-1.6-.36-2.36l-.2-2.71c-.13-1.88-.33-3.82-.64-5.73a49.29,49.29,0,0,0-3.11-11,45.47,45.47,0,0,0-2.48-5.1,13.74,13.74,0,0,1-1.74-3.74,4.69,4.69,0,0,1,0-1.36,7.21,7.21,0,0,1,.33-1.44,9.33,9.33,0,0,1,1.73-2.74,9.33,9.33,0,0,0-1.62,2.69,5.74,5.74,0,0,0-.27,2.68c0,1.12,1.68,3.53,2.95,6.14a47.56,47.56,0,0,1,3.09,8.13,52,52,0,0,1,1.62,8.6c.16,1.45.24,2.91.33,4.29,0,.67.07,1.38.14,1.9S502.13,980,502.22,980.62Zm-5.15-92.29a20,20,0,0,1-2.82-.73,4.62,4.62,0,0,1-1.26.7c-1.2.53-2.44,1-3.54,1.53.34.13.07.25,0,.35s-.24.18-.33.27c.61-.25,1.25-.5,1.88-.71s1.37-.41,2-.6,1.33-.34,2-.49A13.62,13.62,0,0,1,497.07,888.33Zm8.87-4,.22.11.09.64Zm-.21-1.09-.26,0C505.41,883,505.52,883,505.73,883.22Zm-2.37-.21a1.82,1.82,0,0,0,.46.22Zm-11.92-15.23,1.18,3.19-1.05-3.14Z"/><path d="M485.56,1097.13l.59,0c-.08.35-.4.6-.85.8a10.59,10.59,0,0,0,6.83-3.4,16.36,16.36,0,0,0,3.93-6.42,2.45,2.45,0,0,0,1.2-3.17,2.39,2.39,0,0,0-3.33-.66,3.89,3.89,0,0,1-1,.15,22.14,22.14,0,0,0-8.7.79l2-.06a6.81,6.81,0,0,0-2.48.94l.67.34c-3.28.38-6.12,3.17-6.17,6.13s2.63,5,5.84,4.65Z"/><path d="M493.94,1099.71c-1.73.32-3.47.56-5.24.79l-.5-.14,1.27,1.41-.05-.12c.13-2.08,1.61-4,3.09-5.68l.48-.65a1.49,1.49,0,0,0,0-1.19,1.75,1.75,0,0,0-2.41-.66c-.36.18-.71.38-1.06.57-3,.88-6.74,3.63-5.93,7,.2.79,1.06,1.32,1.69,1.94a2.51,2.51,0,0,0,3.44.43,2.38,2.38,0,0,0,.82-3.29l.75-.23c-.06.23-.12.46-.17.69-.37-1.09.51-2.06.92-3.1l1-1.11-2.44-1.81-.37.76c.12.07.32.14.32.16a26.6,26.6,0,0,1-2.18,4.29l-.9,2a1.31,1.31,0,0,0,1.3,1.4l1.09,0-.55,0c2-.7,3.92-1.67,5.9-2.31a.65.65,0,0,0,.5-.73A.55.55,0,0,0,493.94,1099.71Z"/><path d="M488.63,1104.27a1.62,1.62,0,0,0-1.13.35v.3h.82C488.91,1104.93,488.91,1104.57,488.63,1104.27Z"/><path d="M487.5,1104.92h-.35l.32.11,0,0Z"/><path d="M639.42,1055.09c1.13.11,2.26.18,3.38.31l3.35.43,6.68.86,6.65,1.11,3.31.55,3.29.67,6.58,1.34,6.5,1.57,3.25.79c1.08.27,2.14.59,3.22.89l6.41,1.8c.58.16,1.08.23,1.14.11s-.36-.35-.9-.48l-6.42-1.82-3.22-.9-3.24-.8-6.51-1.58-6.56-1.36-3.29-.67-3.31-.56-6.64-1.11c-2.22-.32-4.46-.58-6.69-.88s-4.47-.59-6.73-.76a2,2,0,0,0-1.2.15C638.44,1054.89,638.86,1055,639.42,1055.09Z"/><path d="M759.12,1105.21c-.39-.13-.42,0-.1.24a4.64,4.64,0,0,0,1.22.68c.32.11.37,0,.09-.24A4.75,4.75,0,0,0,759.12,1105.21Z"/><path d="M752.13,1110.43c-1.06-.48-2.08-1-3.08-1.36s-2-.74-2.93-1a4.78,4.78,0,0,1-1-.48c.05.2-.42.15-1.19-.15a320.37,320.37,0,0,0-48.42-15.07,1.82,1.82,0,0,1-.82.26,16.8,16.8,0,0,1-6-.77l-1.75-.54c-1.78-.5-3.59-.89-5.38-1.33s-3.58-.91-5.39-1.26l-5.42-1.09-2.7-.55-2.72-.45a39.09,39.09,0,0,1-5.16-.19c-3.19,0-6.39.12-9.57.14l-9.61.46c.39.16.63.35.61.55s-.48.42-1.09.56a9.22,9.22,0,0,1-2.26.25l-2.6.06c2.48.1,5,.13,7.44.39a7.1,7.1,0,0,1,1,.12c2.73.12,5.49.12,8.3.34a288,288,0,0,1,70.74,12,4.14,4.14,0,0,1,1.23.54c.17.17.09.27-.34.16-14.65-3.64-27.75-4.7-44.05-6.31a221,221,0,0,0-57.2,1.86,146.68,146.68,0,0,0-28.27,5.77A166.3,166.3,0,0,0,568,1114c-1.5.67-2.91,1.52-4.35,2.27l-4.28,2.28-4.12,2.45c-1.37.81-2.76,1.56-4.05,2.46l-1,.64-.49.33-.18.13-.63.47-1.27.92c-.84.62-1.71,1.18-2.5,1.83-1.63,1.27-3.27,2.48-4.93,3.67s-3.19,2.53-4.81,3.77a5,5,0,0,1-4,1.46,6.48,6.48,0,0,1-4.22-2.21,7.43,7.43,0,0,1-1.92-5.79l-.65.46-1.25.43a5.12,5.12,0,0,1-3.8-.3l-1.65-.67c-2.72-1.59-5.74-2.2-8.48-3.95l-.55-1.06-.4-.1a6,6,0,0,1-3.2-1.46l-.84-1.14a13.57,13.57,0,0,1-1.88-4.36,4.84,4.84,0,0,1-.9-1.51,6.8,6.8,0,0,1-3.23-3.35,1,1,0,0,1-.77-1.16,1.08,1.08,0,0,1,.28-.5h0a7.88,7.88,0,0,0-1-.35c-.37.13-.6.19-.6.19-.93.42-.93.42-1.76.76a5.07,5.07,0,0,1-1.7-.18c-2.29-1.43-2.3-1.43-2.9-2.35,0-.11-.05-.22-.07-.33-.77.13-.82.14-1,.16a2.58,2.58,0,0,1-.53-.12c-.41-.43-.41-.43-.64-.53a2.25,2.25,0,0,1-.31-.32c-.12-.73-.12-.73-.24-.88a1.6,1.6,0,0,1,0-.37l.35-.66,1.74.58-.17-.53.62.4-.51-.42h.64l-.8-.1a4.5,4.5,0,0,0,1.4-.81,1.93,1.93,0,0,0,.68-.64,3.24,3.24,0,0,1-.25-.24c1.13-.55,1.13-.55,2.24-1.06a3,3,0,0,1,.48.16.55.55,0,0,1,.32-.53l.56-.29.06-.15,0,0,.23-.55,0-.13h0c.17-.39.39-1,1.08-2.36a7.48,7.48,0,0,1,1-.35l-.42,0c-.29-.06-.47-.6-.59-.58a17.44,17.44,0,0,0-2.13.53c-.68.23-1.36.5-2,.79-1.33.58-2.66,1.23-4,1.85a1,1,0,0,1-1.31.1.83.83,0,0,1,.06-1.24c2.7-6,9.14-9.75,15.48-11,1.51-.57,3-1.18,4.47-1.8l-.34-.12,1.28-.28.12-.05-1.33-.36-.71.09a28.44,28.44,0,0,1-5.29,1.72c-1.8.47-3.61.94-5.41,1.54s-3.91.8-5.9,1.26a.84.84,0,0,1-1.13-.24.78.78,0,0,1,.43-1,35.83,35.83,0,0,1,8.14-5.23,20.91,20.91,0,0,1,9.17-1.75,5.68,5.68,0,0,1,3.13-.8l0,0-1-.35c.82-.27,1.58.14,2.39,0l-.83-.83c2-.66,3.93-1.58,5.88-2.37a30.66,30.66,0,0,1,3-1.06,15.12,15.12,0,0,1,3.06-.48,3.12,3.12,0,0,1,.44-.09,20.59,20.59,0,0,1,1.75-2c.16-.15.32-.3.5-.45a.94.94,0,0,1,.14-.12l.43-.24.87-.5a39.51,39.51,0,0,1,3.74-1.87c-.94.3-1.84.66-2.74,1l-2.65,1a1.92,1.92,0,0,1,.27-.17l.34-.2.67-.41,1.36-.79A30.1,30.1,0,0,1,529,1070c1.91-.92,3.89-1.8,6-2.62,11.38-4.36,24.9-6.53,31.66-5.37a245.08,245.08,0,0,1,33.54-6.18,268.94,268.94,0,0,1,33.9-1.43,4.27,4.27,0,0,1,2.41.56c.12.27-.66.48-1.82.45a264.88,264.88,0,0,0-48.55,4.61,288.63,288.63,0,0,1,41.23-2c1.76,0,3.54-.07,5.33,0s3.51.23,5.24.43c17.69,1,34.16,4,51.53,8l2.77.63,2.7.72,5.31,1.42c1.76.44,3.47,1,5.19,1.51l5.12,1.56c3.39,1.07,6.74,2.29,10.16,3.44s6.81,2.57,10.34,3.93a282.53,282.53,0,0,1,27.92,13.11,245.93,245.93,0,0,1,25.84,16.34c2.25,1.62,4.13,3.42,4.13,4s-1.83-.29-4.09-1.89A308.93,308.93,0,0,0,757,1094.52,317.55,317.55,0,0,0,727.55,1081a298.8,298.8,0,0,0-31.18-10.51,312.64,312.64,0,0,0-33-7.39c-2.44-.45-4.88-.73-7.29-1.1l-3.62-.52c-1.21-.15-2.42-.25-3.62-.39a.68.68,0,0,1,.1.28c0,.36-.52.65-1.3.86l4.09.45c1.36.19,2.72.42,4.09.63l4.08.66,2,.33,2,.42a190.39,190.39,0,0,1,45.67,10.7,234.47,234.47,0,0,1,28.52,13.49,281.6,281.6,0,0,1,34.41,18.3,3.19,3.19,0,0,1,1,.79c.11.18-.18.1-.63-.17l-6-3.27-3-1.65-3-1.57-6.14-3.16-6.27-3c1.15,1,1.73,1.75,1.42,2.1s-1.51.2-3.16-.34l5.52,3c1.14.61,1.94,1.27,1.79,1.45s-1.11-.14-2.2-.7c-3.75-2-7.47-4-11.31-5.84-1.91-.92-3.79-1.9-5.73-2.77l-5.8-2.6a292.62,292.62,0,0,0-28.89-9.88,7,7,0,0,1,2.44,2.12h0l4.49,1.39c27.69,7.64,54.5,21,78.43,38.55.47.33.82.67.78.75s-.46-.11-.89-.41c-3.64-2.59-7.25-5.23-11-7.62-1.88-1.2-3.71-2.48-5.63-3.61l-5.72-3.44,0,0c.28.24.28.38-.09.23a4.9,4.9,0,0,1-1.2-.72c-.32-.27-.23-.35.09-.23a244.18,244.18,0,0,0-44.88-20.11,256.34,256.34,0,0,1,40.77,19.23c1.48.7,3,1.34,4.47,2.12a3.35,3.35,0,0,1,1,.75c.06.14-.28,0-.68-.17l-1.23-.63c2.41,1.51,4.07,3,3.76,3.43s-2.71-.52-5.22-2c-6.9-3.75-13.81-7.43-20.92-10.69l-2.34-1-2.42-.84A292.45,292.45,0,0,1,766,1114.2c.89.53,1.57,1.1,1.49,1.27s-.87-.12-1.77-.65a297.55,297.55,0,0,0-28.58-14,288,288,0,0,0-30-11c-3.48-.62-7-1.1-10.47-1.63-3.53-.37-7-.81-10.6-1.1.87.18,1.74.41,2.61.64,11.11,2.61,21.43,5.17,31.57,8.25a197.51,197.51,0,0,1,30.21,11.69,2.05,2.05,0,0,1,.9.67c0,.11-.38,0-.88-.25a222,222,0,0,0-29.7-11.39l-6.34-1.94-6.27-1.65-3.09-.79-3.1-.66c-2.06-.43-4.09-.85-6.12-1.23l6.07,1.6,3,.78,3,.86,6,1.71,5.92,1.89,3,.94,2.93,1,5.87,2.12c1.94.75,3.87,1.55,5.82,2.34l2.91,1.2c1,.41,1.92.87,2.88,1.3a8.08,8.08,0,0,1,1.7,1,.76.76,0,0,1,.43.06,66,66,0,0,1,6.33,2.52,3.18,3.18,0,0,1,1.06.69C752.88,1110.66,752.6,1110.62,752.13,1110.43Zm-244.61-12-.24-.08h.65l1.4.73Zm-4.67,9.44h0l-.82-.38Zm96.62-48.2-7.27.83c-1.21.11-2.41.28-3.62.46l-3.62.49c-4.84.55-9.62,1.45-14.49,2.07l6.93-1.68,2.74-.44,2.75-.32,5.52-.62c1.83-.23,3.68-.34,5.53-.45Zm-100.23,38.15a12.1,12.1,0,0,1,3.28.79,5.13,5.13,0,0,1,1.34-1.15,27.93,27.93,0,0,1,4.27-2.14c-.44-.29-.09-.44,0-.58l.43-.41c-1.58.61-3.25,1.1-4.86,1.76A40.91,40.91,0,0,1,499.24,1097.78Zm-8.22,8.41-.22,0-.23-.76Zm.42,1.26.25-.06C491.8,1107.65,491.67,1107.62,491.44,1107.45Zm2.3-.61a1.79,1.79,0,0,0-.49-.12Zm14.73,16-1.71-3.36,1.57,3.29Z"/><path d="M344.39,69.36l.62.07c-.1.34-.46.57-.94.74,5.82-.14,9.77-4.67,11.67-8.93a2.28,2.28,0,0,0,1.44-2.92,2.61,2.61,0,0,0-3.39-.82,4.35,4.35,0,0,1-1.06.08,23.56,23.56,0,0,0-9,.29l2.1,0a8.86,8.86,0,0,0-2.62.76l.67.38c-3.47.08-6.66,2.57-6.9,5.5s2.49,5.08,5.86,4.86Z"/><path d="M353,72.33c-1.82.2-3.63.34-5.48.49l-.52-.16,1.25,1.44,0-.11c.24-2.06,1.9-3.84,3.53-5.35l.52-.63a1.39,1.39,0,0,0,0-1.16,1.82,1.82,0,0,0-2.43-.73l-1.13.49c-3.16.62-7.26,3.12-6.58,6.58.17.79,1,1.35,1.66,2a2.69,2.69,0,0,0,3.56.57,2.32,2.32,0,0,0,1-3.21l.78-.19-.21.67c-.32-1.09.64-2,1.14-3l1.07-1-2.42-1.88-.44.7c.13.07.33.16.33.17a28.44,28.44,0,0,1-2.52,4l-1,2a1.31,1.31,0,0,0,1.28,1.44h1.14l-.57-.07c2.11-.62,4.13-1.48,6.22-2a.66.66,0,0,0,.57-.68A.57.57,0,0,0,353,72.33Z"/><path d="M347.21,76.55a1.69,1.69,0,0,0-1.18.31c0,.17,0,.25,0,.3l.86,0C347.48,77.22,347.5,76.86,347.21,76.55Z"/><path d="M346,77.16l-.35,0,.32.12s0-.05,0-.05Z"/><path d="M426.12,256.84a70.08,70.08,0,0,0-7.6,13.11l-1.44,3.5-1.36,3.73c-.52,1.45-.92,2.74-1.33,4l-.57,1.86-.13.45-.06.22,0,.08c-.07.09-.07.27-.14.4a18.42,18.42,0,0,0-1.32,6.91,9,9,0,0,0,2.77,6.42,14,14,0,0,0,6.43,3.13,48.82,48.82,0,0,0,6,1c2.52.27,5.21.43,8,.5,5.57.14,11.5-.08,17.6-.48s12.38-.95,18.88-1.56a8.23,8.23,0,0,0,3.05-.62c.06-.17-1.22-.2-2.73,0-6.46.61-12.78,1.13-18.86,1.56s-12,.63-17.55.5c-2.77-.07-5.45-.22-8-.48-1.26-.12-2.47-.28-3.63-.46l-.86-.14-.73-.14c-.3,0-.56-.14-.85-.19a13.6,13.6,0,0,1-6.14-2.9,8.21,8.21,0,0,1-2-2.73,9.18,9.18,0,0,1-.76-3.29,17,17,0,0,1,1.19-6.57l.14-.39a.32.32,0,0,1,.06-.18l0-.07.06-.21c.17-.6.34-1.21.53-1.83.39-1.23.8-2.51,1.28-3.91l1.36-3.79c.41-1.2.95-2.3,1.39-3.49s1-2.26,1.55-3.39,1.11-2.22,1.75-3.29,1.22-2.18,1.93-3.22,1.4-2.12,2.15-3.16a12.65,12.65,0,0,0,1.46-2.38C427.62,255.09,426.91,255.79,426.12,256.84Z"/><path d="M700.35,284.9c-1.15-.64-1.18-.5-.12.34.88.77,2.57,2,3.61,2.72s1,.47.13-.33A29.11,29.11,0,0,0,700.35,284.9Z"/><path d="M685.35,288.7c-.76-.36-1.56-.64-2.32-1s-1.54-.64-2.3-.88l-2.25-.75c-.74-.25-1.5-.42-2.24-.63-1.46-.44-3-.68-4.38-1s-2.86-.46-4.24-.57c-1-.08-2.16-.32-3-.45.34.29-.92.33-3.27.24a83.53,83.53,0,0,0-8.79.21c-3,.26-5.94.61-8.94,1.12s-6,1.12-9.07,1.85-6.14,1.57-9.24,2.42a360,360,0,0,0-37.09,13q-9.29,3.78-18.71,7.83c-6.32,2.69-12.61,5.41-19.19,8.12A293.12,293.12,0,0,1,509,331.67a7.2,7.2,0,0,1-2.26,1.18c-3.78,1.56-11.67,3.46-19.94,4.49-2.09.22-4.17.47-6.25.66l-4.72.48-4.54.43-9.23.81c-6.21.49-12.56.86-19.05,1a156.9,156.9,0,0,1-20.11-.84l-2.62-.33-2.65-.4-2.88-.52c-1.06-.21-2.11-.45-3.16-.69a65.19,65.19,0,0,1-12.14-4.18,42.45,42.45,0,0,1-9.81-5.47,37.46,37.46,0,0,1-8.73-9,36.69,36.69,0,0,1-2.84-4.74c-.42-.83-.82-1.66-1.22-2.49s-.68-1.72-1-2.61a41.27,41.27,0,0,1-1.4-5.38,39.71,39.71,0,0,1-.82-5.55,55.85,55.85,0,0,1,.39-11.39,82.89,82.89,0,0,1,2.66-11.34c.36-.92.67-1.84,1-2.77.08-.23.14-.47.24-.69a4.19,4.19,0,0,0,.29-.69l.45-1.2c.55-1.44,1.12-2.85,1.7-4.22s1.2-2.69,1.78-3.92l.47-1,.51-1,1-2.07a94.67,94.67,0,0,1,10.17-15.76c-1.15,1.12-1.93,1.75-2.1,1.61-.06-.34.78-1.7,2.2-3.64a61.84,61.84,0,0,1,6-6.65c1.23-1.2,2.51-2.31,3.76-3.46s2.56-2.17,3.85-3.21a113.85,113.85,0,0,0-11,9.72,98.67,98.67,0,0,0-9.72,11.52c-.83,1.19-1.62,2.29-2.34,3.28-1.46,2.34-2.9,4.72-4.17,7.16l-1,1.82-.84,1.64c-.57,1.12-1.17,2.3-1.73,3.53s-1.13,2.49-1.67,3.78l-.46,1.14a4.12,4.12,0,0,1-.3.64c-.11.2-.16.43-.25.64-.31.87-.59,1.75-1,2.61-1.43,3.47-2,7.13-3,10.78a56.91,56.91,0,0,0-1,12c0,1,0,2,.14,3,.05.5.06,1,.13,1.48l.25,1.46c.32,1.94.67,3.88,1.17,5.78a40.71,40.71,0,0,0,1.88,5.55c.84,1.76,1.65,3.54,2.66,5.22a42.58,42.58,0,0,0,7.28,9.09,52,52,0,0,0,20,11.66,78.65,78.65,0,0,0,11.41,2.75l1.3.2c.39.06.79.13,1.17.17l2.31.29c1.52.15,3.05.32,4.52.41a194.41,194.41,0,0,0,33-1c5.17-.52,10.22-1.18,15.14-1.85l7.49-1.05c2.56-.35,5.11-.79,7.66-1.19a284.49,284.49,0,0,0,59.36-16.66c2.36-.93,4.69-1.94,7-2.91l6.69-2.92L573.45,311c8.71-3.81,17.27-7.53,25.88-10.89a22.31,22.31,0,0,1,4-1.3c.72-.1.65.12-.6.62-10.74,4.44-21,9.39-31.3,14.43l-15.64,7.66-4.07,2c-1.38.66-2.79,1.28-4.19,1.91q-4.22,1.89-8.55,3.66a267.43,267.43,0,0,1-36.7,12.08q-9.69,2.4-19.9,4.22l-5.14.86-4.95.8c-3.34.52-6.79,1-10.35,1.51a256.83,256.83,0,0,1-26.76,2.23,138.57,138.57,0,0,1-14.81-.38c-1.28-.09-2.62-.25-3.94-.39-.65-.07-1.35-.18-2-.27s-1.7-.24-2.55-.39a82.21,82.21,0,0,1-10.28-2.46,63.81,63.81,0,0,1-9.77-3.86,51.38,51.38,0,0,1-8.88-5.49,49.65,49.65,0,0,1-7.65-7.05,42.57,42.57,0,0,1-6.07-8.46c-3.67-6-5.3-12.92-6.37-19.84a63.74,63.74,0,0,1-.18-10.71l.24-2.71.34-2.7c.13-.9.42-1.79.62-2.68s.39-1.79.59-2.69q.58-2.67,1.33-5.33a15.46,15.46,0,0,1,.94-2.59c.38-.85.66-1.72.95-2.59s.74-1.69,1-2.58l.75-1.81c.51-1.19,1-2.34,1.54-3.47s1.07-2.2,1.58-3.19l.76-1.48.92-1.72c.61-1.15,1.21-2.3,1.85-3.43s1.34-2.26,2-3.37a103.74,103.74,0,0,1,20.43-23.76,131.27,131.27,0,0,1,11.78-9c3.95-2.65,7.86-5,11.7-7.26,7.67-4.43,15-8.29,21.9-12.3a177.84,177.84,0,0,0,20.4-13.05,141.59,141.59,0,0,0,17.51-15.51c1.38-1.37,2.65-2.85,4-4.29.66-.72,1.31-1.44,1.88-2.14s1.2-1.39,1.76-2.11a86.47,86.47,0,0,0,6.21-8.88,69.77,69.77,0,0,0,4.75-9.36,56,56,0,0,0,3-9.62,47.8,47.8,0,0,0,1-9.59A51.23,51.23,0,0,0,503.3,113a45.47,45.47,0,0,0-3.07-8.67,48,48,0,0,0-4.9-8,49.9,49.9,0,0,0-6.39-7c-1.14-1.08-2.4-2-3.61-3s-2.52-1.81-3.85-2.57a40.22,40.22,0,0,0-8-3.74,37.43,37.43,0,0,0-8.18-1.59c-2-.16-4.09-.2-6.5-.17l-2,0h-1.19l-.89,0c-1.16.08-2.29.1-3.44.23a76.92,76.92,0,0,0-13.62,2.43,100.32,100.32,0,0,0-26.05,11.38c-1,.62-2.06,1.26-3.08,1.94-.51.33-1,.64-1.53,1l-.09.06,0,0,0,0-.08.06-.63.51-1.25,1-2.49,2c-3.3,2.66-6.49,5.41-9.66,8.26-2.14,2.48-5.57,2.5-7.93-.16a7.32,7.32,0,0,1-1.72-5.83l-.65.5-1.23.49a4.72,4.72,0,0,1-3.7-.13l-1.59-.63c-2.63-1.54-5.63-2.16-8.32-3.94l-.52-1.07-.4-.11a5.71,5.71,0,0,1-3.16-1.49l-.81-1.17A13.51,13.51,0,0,1,361,89.19a4.94,4.94,0,0,1-.86-1.53A6.76,6.76,0,0,1,357,84.23a.93.93,0,0,1-.73-1.18,1.06,1.06,0,0,1,.3-.48h0a9.61,9.61,0,0,0-1-.38c-.39.12-.62.17-.62.17l-1.83.71a5.32,5.32,0,0,1-1.74-.22c-2.29-1.5-2.3-1.5-2.89-2.44a2.21,2.21,0,0,1-.06-.34c-.79.11-.85.11-1.07.13a2.59,2.59,0,0,1-.54-.14c-.41-.45-.41-.45-.64-.55a2,2,0,0,1-.31-.33c-.11-.74-.11-.74-.22-.89a2.08,2.08,0,0,1,0-.38l.39-.65,1.78.64-.15-.53.62.42-.51-.43.66,0-.82-.13A4.88,4.88,0,0,0,349,76.5a2,2,0,0,0,.74-.6,1.6,1.6,0,0,1-.25-.25c1.19-.49,1.19-.49,2.37-.94a4.6,4.6,0,0,1,.49.18.54.54,0,0,1,.36-.5l.6-.25.06-.14,0,0c.11-.21.19-.36.27-.53l.06-.11h0c.19-.36.45-.89,1.21-2.26a7.62,7.62,0,0,1,1.07-.32l-.42-.06c-.29-.06-.45-.6-.57-.58a40.54,40.54,0,0,0-8.59,2.71,1.09,1.09,0,0,1-1.38,0,.79.79,0,0,1,.14-1.21c3.2-5.67,10-9,16.51-9.92,1.56-.51,3.08-1.08,4.62-1.61L366,60l1.31-.23.13,0-1.32-.38-.73.06c-3.5,1.38-7.31,1.71-11.07,2.68-2,.52-4.05.58-6.1,1a.87.87,0,0,1-1.15-.28.76.76,0,0,1,.49-1c5.11-3.74,12-6.44,18.08-5.88a6.13,6.13,0,0,1,3.24-.61l0,0-1-.37c.86-.19,1.58.17,2.41.07l-.78-.79c4.1-1.17,8.1-3.21,12.29-3.37a3.54,3.54,0,0,1,.45-.08,23.74,23.74,0,0,1,1.94-1.8l.53-.4.07,0,0,0h0l.07,0c.48-.21,1-.4,1.45-.59l2.94-1.14c4-1.47,8.14-2.88,12.56-4.13-3,.79-5.95,1.65-8.87,2.54-1.45.47-2.93.91-4.37,1.41l-4.06,1.41,0,0,.26-.11.57-.24,1.15-.46,2.3-.91c1.54-.59,3.1-1.15,4.66-1.72l4.74-1.58c1.61-.49,3.2-1,4.83-1.46a141.34,141.34,0,0,1,20.54-4.25,128.06,128.06,0,0,1,30.15-.47c2.49.33,5.18.64,7.11,1,2.29.36,4.82.79,7.31,1.33A82.16,82.16,0,0,1,483,43.61,61.82,61.82,0,0,1,489.81,47l3.1,1.85c1,.64,1.94,1.31,2.89,1.95l1.4,1,1.33,1c.87.68,1.73,1.35,2.56,2s1.59,1.41,2.36,2.11c.39.34.77.69,1.14,1L505.66,59a74,74,0,0,1,12.18,15.81c1.39,2,2.6,4.05,3.82,6.12.58,1,1.12,2.13,1.68,3.19s1.07,2.16,1.55,3.26c1,2.17,1.86,4.45,2.7,6.72.39,1.14.72,2.31,1.08,3.47s.66,2.33.92,3.52a75.2,75.2,0,0,1,1.2,28.75,91.39,91.39,0,0,1-3.24,13.75,107.59,107.59,0,0,1-5.21,12.83,125.85,125.85,0,0,1-14.5,22.76A256.84,256.84,0,0,1,471.54,216c-13,11.08-26.71,20.86-36.68,31.17a27.9,27.9,0,0,1-4.35,4.09c-.18,0,0-.37.47-1a21.94,21.94,0,0,1,2.24-2.67c6.94-7.53,16-14.71,25.32-22.23s19-15.46,27.88-24.17c4.46-4.35,8.78-8.85,12.91-13.52l3.05-3.53,3-3.6c1-1.18,2-2.46,2.95-3.73s1.92-2.58,2.87-3.88c7.44-10.47,13.61-22.29,16.84-35.43a101.11,101.11,0,0,1-13.64,30,133.19,133.19,0,0,1-9.66,12.89c-3.32,4-6.87,7.9-10.48,11.71s-7.42,7.45-11.32,11-7.89,7-11.94,10.3-8.17,6.52-12.25,9.68-8.16,6.23-12.08,9.31-7.81,6.37-11.34,9.63-6.69,6.41-9.56,9.67a74.52,74.52,0,0,0-8.86,13.25c-.58,1.16-1.14,2.34-1.7,3.51s-1,2.38-1.51,3.61l-1.43,3.82c-.51,1.41-.94,2.72-1.36,4l-1,3.21c-.25.71-.46,1.43-.66,2.15a24.42,24.42,0,0,0-.79,4.41,12.87,12.87,0,0,0,1.93,8.56,13.6,13.6,0,0,0,7.23,5,28,28,0,0,0,4.37,1,73.22,73.22,0,0,0,7.57.81,143.36,143.36,0,0,0,17.14-.18c6-.38,12.21-1,18.64-1.72l8.19-1c2.61-.31,5.19-.66,7.74-1q7.65-1.12,15-2.6a261.27,261.27,0,0,0,28.64-7.41c4.67-1.51,9.31-3.18,14-4.93l3.59-1.36,3.67-1.42,7.43-2.9c5-2,10.12-3.95,15.37-5.95s10.67-3.92,16.24-5.83c7.83-2.65,15.75-5.12,23.78-7.21,4-1,8-2,12.11-2.85s8.21-1.67,12.51-2.31a122,122,0,0,1,27-1.18,101.28,101.28,0,0,1,14,2.09,87.85,87.85,0,0,1,13.71,4.31l3.31,1.42c1,.49,2.06,1,3.1,1.5s2.05,1,3.06,1.58,2,1.11,3,1.69a93.81,93.81,0,0,1,11.57,8A100.58,100.58,0,0,1,730.76,296c2.5,3.53,4.74,7.05,6.83,10.51,1.07,1.76,2,3.43,3.07,5.2s2.11,3.73,3.1,5.64c2,3.81,3.83,7.72,5.48,11.72s3.1,8.12,4.38,12.28c2.83,8.86,3.78,17.43,3.49,18.58s-1.56-5.29-4.12-14.1a137.16,137.16,0,0,0-10-24.89c-2-3.95-4.41-7.95-6.56-11.42s-4.61-7.27-7.22-10.94a99.87,99.87,0,0,0-19.4-20.72,87.27,87.27,0,0,0-12.22-8c-1.06-.57-2.12-1.17-3.19-1.69l-3.23-1.55c-1.06-.53-2.27-1-3.4-1.47l-1.73-.71-1.75-.63a90.58,90.58,0,0,0-28.84-5.17,131.53,131.53,0,0,0-27.53,2.52c-8.6,1.66-17,3.64-25.2,6s-16.3,5.07-24.21,7.89-15.68,5.84-23.32,8.8l-11.38,4.38-5.55,2.08c-1.83.65-3.65,1.33-5.48,1.95q-11,3.82-22.24,6.61t-22.9,4.62c-3.88.6-7.78,1.15-11.71,1.61l-6,.67-6.12.63c-8.1.8-16,1.49-23.69,1.64-3.82.08-7.57,0-11.15-.23-1.79-.13-3.55-.3-5.23-.53l-1.25-.18-1.13-.19c-.58-.08-1.12-.24-1.69-.33a25,25,0,0,1-6.43-2.33,13.8,13.8,0,0,1-5.06-4.57,13.07,13.07,0,0,1-2-5.52,20.54,20.54,0,0,1,.15-5.86,33.12,33.12,0,0,1,1.45-5.64l1.24-3.77c.51-1.48,1-3,1.66-4.63-.16.13-.31.24-.41.2-.39-.23-.32-1.46.1-3.44l-1,2.44-1,2.69c-.65,1.75-1.24,3.42-1.76,5.07a40.09,40.09,0,0,0-2,6.92,22.29,22.29,0,0,0-.2,7.29,14.14,14.14,0,0,0,2.82,6.72,18.37,18.37,0,0,0,8.71,5.13,36.52,36.52,0,0,0,4.94,1.06l1.57.21,1.76.21c1.2.11,2.4.21,3.64.28a139.48,139.48,0,0,0,15.55-.07c5.37-.27,10.89-.78,16.51-1.35l8.54-.91,8.52-1q8.35-1,16.68-2.47a294.4,294.4,0,0,0,33.25-7.69c7.65-2.25,14.89-4.72,22.55-7.41s15.1-5.29,22.68-7.81a377.07,377.07,0,0,1,46.55-12.55c9.91-2.31,20.44-4.33,31.46-4.64a88.75,88.75,0,0,1,33.3,5,92.66,92.66,0,0,1,15.25,7.31,82.7,82.7,0,0,1,13.62,10.15,95.79,95.79,0,0,1,11.22,12.3c3.31,4.29,6.24,8.68,9,13a22.25,22.25,0,0,1,1.94,3.42c.21.56-.34-.13-1.23-1.51-1.92-2.94-3.9-5.92-6.05-8.88s-4.41-5.93-6.9-8.81a87.87,87.87,0,0,0-17.41-15.64,90.81,90.81,0,0,0-10.23-5.92c-.88-.43-1.77-.82-2.66-1.24s-1.75-.83-2.7-1.19l-2.8-1.11c-.94-.37-1.9-.66-2.85-1-1.89-.68-3.84-1.15-5.78-1.7s-3.91-.91-5.88-1.21a83.52,83.52,0,0,0-11.84-1.21,31.76,31.76,0,0,1,3.3.61c1,.22,1.76.43,2.4.64,1.27.46,1.86.85,1.62,1.14-.46.62-4.3.61-10,.89a90,90,0,0,1,10.33.87c1.72.21,3.43.58,5.14.89s3.4.75,5.08,1.26c1,.3,2,.61,2.88.9s1.63.65,2.26.93c1.26.54,2,1,1.85,1.11a5.71,5.71,0,0,1-2.29-.38c-.66-.18-1.43-.41-2.29-.66s-1.79-.48-2.76-.77-1.69-.45-2.54-.65-1.71-.42-2.57-.58c-1.71-.31-3.43-.67-5.16-.87a86.52,86.52,0,0,0-10.39-.8c-3.46-.1-6.9.07-10.32.31s-6.79.7-10.14,1.2c-6.7,1.08-13.18,2.5-19.67,4.08s-12.87,3.44-19.19,5.44c-15.13,5-29.73,11-44.25,16.67-7.29,2.89-14.41,5.57-21.74,8s-14.72,4.43-22.23,6.15c2.15-.2,4-.35,5.57-.38a16.07,16.07,0,0,1,3.58.16,0,0,0,0,1,0,0c4.65-1.21,9.25-2.55,13.8-4,5.18-1.77,10.32-3.7,15.43-5.74L561.3,295c10.34-4.22,20.78-8.41,31.5-12.13a286.83,286.83,0,0,1,32.87-9.5c11.19-2.55,23-4.23,35-3.38a80.22,80.22,0,0,1,17.77,3.25c1.44.48,2.89.95,4.31,1.48s2.84,1.11,4.19,1.74a89.11,89.11,0,0,1,8,4.09,79.39,79.39,0,0,1,14.54,10.78,100.18,100.18,0,0,1,11.77,13.46c3.52,4.75,6.63,9.58,9.71,14.51a135,135,0,0,1,8.28,15.58,128.67,128.67,0,0,1,10,33.75,17,17,0,0,1,.32,3.38,13,13,0,0,1-.6-3,129.58,129.58,0,0,0-13.12-40.24c-1.63-3.14-3.37-6.23-5.23-9.24s-3.73-5.88-5.71-8.8a117.17,117.17,0,0,0-13.31-16.68l.08.09c.75.9.79,1.16-.16.31s-2.43-2.34-3.25-3.14c-.93-1-.74-1,.13-.34a75.89,75.89,0,0,0-16.58-11.58c-.75-.39-1.48-.8-2.24-1.16l-2.28-1c-1.5-.74-3.12-1.32-4.68-2a74,74,0,0,0-9.73-2.92,79.14,79.14,0,0,0-10-1.61,96.31,96.31,0,0,0-10-.39,119.44,119.44,0,0,0-19.64,2.07,273.93,273.93,0,0,0-37.21,10C584,286.5,572.2,291.21,560.59,296c21.69-8.49,43.87-16.72,67-21.42a148.1,148.1,0,0,1,17.67-2.62,97,97,0,0,1,18,.21A76.64,76.64,0,0,1,681,276.28a80.73,80.73,0,0,1,16.12,8.14A75,75,0,0,1,709.79,294a19.24,19.24,0,0,1,2.62,2.94c.19.38-.63-.31-1.67-1.37s-2.13-2-3.26-3c6.66,6.27,10.25,12.29,9.66,12.54-.42,0-1.91-1.4-4.11-3.61s-5.15-5.17-8.6-8.17a74.15,74.15,0,0,0-15.25-10.12,85.46,85.46,0,0,0-8.38-3.68c-1.44-.5-2.88-1-4.34-1.43s-2.93-.84-4.43-1.14l-2.23-.48-2.25-.38c-1.5-.29-3-.41-4.53-.61a86.72,86.72,0,0,0-9.12-.41,114.21,114.21,0,0,0-18.17,1.67c-2.59.5-5.17,1-7.74,1.64s-5.12,1.39-7.65,2.17a161,161,0,0,1,27.9-4.47,79.66,79.66,0,0,1,27.69,3,77.88,77.88,0,0,1,24.55,12.83c7.3,5.71,13.31,12.9,18.66,20.54,1.87,2.6,3.24,5,3.09,5.17s-1.76-1.86-3.64-4.46a97.91,97.91,0,0,0-16.37-17.82,74.77,74.77,0,0,0-20.67-11.88A69.59,69.59,0,0,0,658.32,279a106.2,106.2,0,0,0-24,2.34,313.33,313.33,0,0,0-47.42,14.32c-7.79,3-15.56,6.08-23.37,9.26l-11.77,4.74c-3.93,1.58-8,3.14-12,4.57a284.91,284.91,0,0,1-32.38,11.35,326.48,326.48,0,0,1-33.94,7.57l4.36-.46c1.47-.18,3-.33,4.43-.53a257.74,257.74,0,0,0,53.69-12.73c4.23-1.48,8.37-3.07,12.45-4.73s8-3.36,11.91-5c7.81-3.37,15.49-6.72,23.16-9.91,15.32-6.41,30.73-12,46.82-16a114.76,114.76,0,0,1,24.21-3.58,69.18,69.18,0,0,1,24.2,3.41,11,11,0,0,1,3,1.35c.11.19-1-.09-2.54-.69a69,69,0,0,0-23.3-3.48A111.41,111.41,0,0,0,632.41,284c-15.63,3.76-30.83,9.19-46.51,15.59-6.51,2.66-12.93,5.39-19.31,8.14L557,311.86c-3.19,1.37-6.37,2.73-9.65,4.08a312.41,312.41,0,0,1-39.8,13.22,271.93,271.93,0,0,0,40.08-12.36c3.23-1.28,6.34-2.57,9.42-3.86l9.21-3.88c6.1-2.58,12.14-5.12,18.18-7.57A359.61,359.61,0,0,1,621,288.63c12.43-3.52,24.75-6.28,37-6.06a26.14,26.14,0,0,1,5.58.54,3.46,3.46,0,0,1,1.22-.07,58.65,58.65,0,0,1,18.9,4.37,14.25,14.25,0,0,1,3.27,1.7C687.47,289.52,686.69,289.28,685.35,288.7ZM366.81,71.46l-.24-.08h.65l1.36.71Zm-5.18,9.1h0l-.81-.38ZM508.36,175a122.36,122.36,0,0,0,12.23-19.64,91.75,91.75,0,0,0,7.7-22.35,74,74,0,0,0-6.06-47.64,74.77,74.77,0,0,1,7.32,22.77,78.13,78.13,0,0,1-4,36.22A109.41,109.41,0,0,1,508.36,175ZM358.44,70.61a12.5,12.5,0,0,1,3.28.87,5.63,5.63,0,0,1,1.43-1.07,44.29,44.29,0,0,1,4.43-2c-.43-.29-.07-.42.07-.56l.45-.39c-1.63.54-3.28,1.08-5,1.6C361.58,69.59,360,70.27,358.44,70.61Zm-8.84,7.93-.23-.06-.2-.76Zm.38,1.28.26-.06C350.34,80,350.21,80,350,79.82Zm2.39-.53a2.17,2.17,0,0,0-.5-.14Zm14.37,16.3-1.62-3.4,1.48,3.33Z"/><path d="M508.52,111.77l.58.15a1.29,1.29,0,0,1-1,.62c5.57.66,10.07-3.45,12.48-7.68a2.44,2.44,0,0,0,1.8-2.88,2.49,2.49,0,0,0-3.23-1.31,4.46,4.46,0,0,1-1,0,21.39,21.39,0,0,0-8.78-.8l2,.3a7.93,7.93,0,0,0-2.63.47l.6.48c-3.35-.32-6.65,1.87-7.2,4.82s1.71,5.49,4.93,5.72Z"/><path d="M516.4,116c-1.8,0-3.56-.14-5.37-.25l-.48-.25,1,1.64,0-.12c.52-2,2.32-3.68,4.12-5l.59-.57a1.56,1.56,0,0,0,.19-1.2,1.75,1.75,0,0,0-2.27-1.07l-1.17.34a10.37,10.37,0,0,0-4.83,1.67,4.77,4.77,0,0,0-2.3,4.17c.05.82.81,1.51,1.31,2.24a2.52,2.52,0,0,0,3.32,1.08,2.41,2.41,0,0,0,1.41-3.11l.78-.09-.3.65c-.16-1.15.89-1.94,1.49-2.88l1.18-.89-2.11-2.27-.52.67c.11.09.3.2.3.22a26,26,0,0,1-3,3.81l-1.24,1.85a1.32,1.32,0,0,0,1,1.63l1.09.17-.54-.15c2.1-.34,4.19-.9,6.28-1.15a.65.65,0,0,0,.64-.61A.56.56,0,0,0,516.4,116Z"/><path d="M510.28,119.46a1.56,1.56,0,0,0-1.17.14l-.05.3.81.15C510.45,120.16,510.51,119.81,510.28,119.46Z"/><path d="M509.06,119.9l-.34-.07.29.16,0,0Z"/><path d="M654.41,103.39l1.23.4,1.16.34,2.33.69c1.53.44,2.93.76,4.42,1.16l2.07.41c.68.12,1.41.32,2,.37l2,.25c.33,0,.67.11,1,.13l.95,0,1.92.1c.64,0,1.25-.07,1.89-.08s1.27,0,1.91-.09l1.91-.31a33.39,33.39,0,0,0,7.7-2c.33-.14.58-.33.54-.45s-.34-.1-.64,0l-.94.37-1,.28c-.64.19-1.26.41-1.9.58l-1.92.44a15.82,15.82,0,0,1-1.91.31l-1.89.29c-.63.08-1.26.05-1.88.09s-1.24.09-1.86.08l-1.89-.1a35,35,0,0,1-3.85-.41,20.39,20.39,0,0,1-2-.36l-2-.41c-1.46-.38-2.87-.72-4.37-1.15l-2.32-.69c-.76-.22-1.53-.45-2.37-.73-.44-.13-.83-.14-.92,0S654,103.26,654.41,103.39Z"/><path d="M733,69.16c-.08.35,0,.38.24.09a3.31,3.31,0,0,0,.51-1.07c.07-.28-.05-.33-.24-.08A3.43,3.43,0,0,0,733,69.16Z"/><path d="M738.69,75.55c-.81,1.94-1.57,3.8-2.13,5.53a3.58,3.58,0,0,1-.46.87c.21,0,.14.41-.17,1.11a114.32,114.32,0,0,1-11.61,20.74,87.58,87.58,0,0,1-17.7,18.64,1.8,1.8,0,0,1-.37.81c-.7,1.17-2.78,2.66-5.07,4l-1.82.82A64.13,64.13,0,0,1,676,134.42a39.45,39.45,0,0,1-5.66.83,92,92,0,0,1-20.35-.12c.37.22.58.44.53.64-.2.44-1.84.54-3.46.2l-2.52-.46,3.57.87,3.74.84a10.19,10.19,0,0,1,1,.25c1.38.25,2.92.42,4.39.62.75.08,1.46.2,2.25.25l2.37.16a68.69,68.69,0,0,0,21.21-1.9q2.53-.75,5-1.55c1.65-.54,3.22-1.26,4.81-1.89s3.09-1.47,4.59-2.24,2.92-1.68,4.34-2.54A74.2,74.2,0,0,0,716.49,116c2.16-2.22,4-4.62,5.87-7,.92-1.18,1.73-2.42,2.58-3.63s1.72-2.39,2.45-3.65a3.62,3.62,0,0,1,.79-1c.2-.13.28,0,.07.36A112.74,112.74,0,0,1,716,119.74a65,65,0,0,1-20.32,16.39c-1.31.73-2.68,1.29-4,1.91a42.75,42.75,0,0,1-4.21,1.65c-1.44.49-2.87,1-4.34,1.46s-3,.76-4.52,1.12A79.32,79.32,0,0,1,660.41,144h-2.2l-2.08-.11c-1.37-.07-2.82-.13-4.14-.24-2.6-.22-5.31-.45-7.69-.71-5-.53-9.41-1-13.75-1.41a99.22,99.22,0,0,0-24.08-1.12,117,117,0,0,0-23,4.29A155.31,155.31,0,0,0,568.42,150l-.91.38-.45.19-.19.09-.7.33c-.46.22-.91.47-1.37.7-.92.47-1.83.92-2.74,1.36-3.63,1.86-7.23,3.64-10.84,5.65a4.74,4.74,0,0,1-4.22.8,6.58,6.58,0,0,1-3.82-2.94,7.5,7.5,0,0,1-.85-6.13l-.74.35-1.32.21a5.28,5.28,0,0,1-3.74-.93l-1.51-.95c-2.43-2.06-5.38-3.26-7.79-5.49l-.35-1.16-.39-.18a6,6,0,0,1-2.93-2l-.62-1.3a13.72,13.72,0,0,1-1.06-4.69,4.85,4.85,0,0,1-.62-1.66,7,7,0,0,1-2.61-3.95,1,1,0,0,1-.55-1.3,1.09,1.09,0,0,1,.37-.43h0a10,10,0,0,0-.91-.54c-.39.06-.63.08-.63.08l-1.89.43a5.11,5.11,0,0,1-1.65-.48c-2-1.86-2-1.85-2.44-2.88,0-.12,0-.24,0-.35-.78,0-.84,0-1.05,0a2.4,2.4,0,0,1-.5-.22c-.33-.51-.33-.51-.54-.64a2.79,2.79,0,0,1-.25-.38c0-.76,0-.76-.08-.93a2.79,2.79,0,0,1,0-.38l.47-.6,1.62.91-.08-.56.54.51-.43-.51.63.12-.77-.24a4.66,4.66,0,0,0,1.52-.55,2.37,2.37,0,0,0,.8-.5,1.76,1.76,0,0,1-.21-.29c1.22-.33,1.22-.33,2.42-.62a4.54,4.54,0,0,1,.45.25.56.56,0,0,1,.42-.46l.61-.17.08-.14,0,0,.34-.49.06-.11h0c.24-.34.59-.83,1.5-2.14a7.23,7.23,0,0,1,1.09-.17l-.41-.13c-.27-.1-.36-.68-.48-.68a38.38,38.38,0,0,0-8.69,1.58,1,1,0,0,1-1.31-.15.84.84,0,0,1,.28-1.22c3.76-5.33,10.81-8,17.43-8l4.81-1-.32-.18,1.33,0,.13,0-1.26-.6-.73,0a35.43,35.43,0,0,1-5.6.78c-1.9.14-3.81.21-5.71.49-2.06.27-4,.07-6.08.2a.87.87,0,0,1-1.09-.44.83.83,0,0,1,.61-1c5.43-3.22,12.58-5.27,18.58-3.76a5.71,5.71,0,0,1,3.32-.17h.06l-1-.55c.89-.08,1.56.42,2.4.44l-.67-1c4.23-.68,8.53-2.25,12.77-1.7a3.62,3.62,0,0,1,.46,0A17.57,17.57,0,0,1,550.63,96l.6-.34a1.31,1.31,0,0,1,.17-.09l.42-.14.85-.27c1.14-.36,2.33-.72,3.58-1-.87.11-1.71.26-2.57.39l-2.52.4c.76-.29,1.73-.63,2.59-.92s1.78-.6,2.71-.84c1.84-.49,3.73-.92,5.71-1.26a75.33,75.33,0,0,1,16.41-.82,39.33,39.33,0,0,1,12.59,2.53c2.58,0,5.15-.11,7.73-.06l7.74.29,7.73.66,7.66,1c10.13,1.57,19.87,4.15,28.49,6.36a2.69,2.69,0,0,1,1.71.92c0,.28-.59.38-1.47.17-6.19-1.31-13-2.92-20.14-4.18-1.76-.34-3.56-.62-5.38-.88s-3.61-.59-5.45-.76l-5.51-.61-5.55-.38,4.61.64c1.54.21,3.06.54,4.59.8,3.06.51,6.05,1.22,9.06,1.88,5.93,1.41,11.82,3,17.36,4.64l4.24,1.06c1.42.35,2.71.79,4,1.24,6.68,1.83,12.5,3.19,17.85,3.41,1.32,0,2.65,0,4-.08l2-.22a12,12,0,0,0,2-.29,37.38,37.38,0,0,0,7.89-2.39C695.08,103,702,96.7,708.76,88.21a134.54,134.54,0,0,0,12.31-19.49c1.91-3.35,3.52-7,5.34-10.47l2.53-5.47c.43-.92.86-1.84,1.3-2.76l1.23-2.85c.83-2,1.95-3.81,2.48-3.9s.28,1.53-.54,3.61l-1.15,3.06c-.39,1-.84,2-1.25,3l-2.5,6c-1.83,3.87-3.55,7.81-5.58,11.51a120.5,120.5,0,0,1-13.52,20.87l-2,2.31c-.64.8-1.37,1.45-2.05,2.19s-1.38,1.45-2.09,2.13l-2.2,2c-.36.32-.72.66-1.1,1l-1.15.89c-.77.58-1.51,1.21-2.3,1.76l-2.39,1.57c-.78.56-1.64.94-2.45,1.42a41.83,41.83,0,0,1-10.4,4.06l-2.71.56-.68.14-.68.07-1.36.13a40.58,40.58,0,0,1-5.52.16l-2.45-.22-1.22-.1-1.25-.2-2.49-.39-2.58-.56a.68.68,0,0,1,0,.28c-.06.35-.45.62-1,.78a74.72,74.72,0,0,0,11.55,1.91c1.29-.14,2.59-.16,3.85-.36s2.52-.39,3.77-.69l3.75-1c1.23-.45,2.5-.79,3.7-1.34a66,66,0,0,0,14.42-8.09A99.88,99.88,0,0,0,717.86,85.2a176.16,176.16,0,0,0,14.78-27.77,2.28,2.28,0,0,1,.53-.89c.15-.11.13.14,0,.55C732,60.61,730.43,64,729,67.47c-.72,1.74-1.61,3.39-2.41,5.1s-1.63,3.41-2.57,5c.91-.85,1.65-1.25,2-1s.23,1.31-.27,2.68l1.39-2.21c.44-.75.85-1.52,1.28-2.28.53-.94,1.1-1.6,1.29-1.46s0,1-.55,1.88-.85,1.57-1.31,2.34l-1.4,2.27c-.95,1.51-1.84,3.06-2.84,4.52l-3,4.36c-1,1.45-2.16,2.79-3.22,4.19a76.85,76.85,0,0,1-17.63,17.68,6.25,6.25,0,0,1,2.75-.32h0l3.09-2.44a99.61,99.61,0,0,0,12-13.61l2.65-3.73c.88-1.24,1.65-2.58,2.49-3.86,1.7-2.55,3.16-5.27,4.72-7.94a259.39,259.39,0,0,0,15.56-34.13c.18-.46.39-.82.49-.8s0,.41-.14.82L741.16,50c-.7,1.77-1.36,3.56-2.14,5.29-1.53,3.48-2.93,7-4.61,10.39l0,0c.18-.25.31-.26.23.08a3.51,3.51,0,0,1-.51,1.07c-.21.28-.3.2-.24-.08-6,12.71-13,24.87-22,35.16a105.52,105.52,0,0,0,11.84-15l1.35-2c.45-.66.84-1.37,1.27-2l2.5-4.1c.84-1.37,1.57-2.81,2.36-4.2s1.58-2.8,2.32-4.23l1.48-4a2.48,2.48,0,0,1,.58-.89c.12-.06.09.24-.06.61s-.28.73-.43,1.1c1.1-2.18,2.3-3.7,2.76-3.45s-.09,2.42-1.2,4.73A155.16,155.16,0,0,1,727,86.53l-1.15,1.9c-.33.68-.67,1.35-1,2a174.93,174.93,0,0,0,15.82-27.67c.34-.84.78-1.5,1-1.45s0,.8-.31,1.65a178.14,178.14,0,0,1-12.16,25.67,102.08,102.08,0,0,1-18,23,72.11,72.11,0,0,1-15.3,13.86l2.45-1.2a62.35,62.35,0,0,0,13.33-9.73l2.72-2.83,1.33-1.41,1.22-1.47,2.41-2.94c.77-1,1.47-2,2.2-3,5.75-8.15,10.18-16.71,14.61-25.81.21-.46.48-.8.59-.81s0,.35-.19.81c-4.25,8.94-8.26,17.23-14.18,25.57a96.08,96.08,0,0,1-17,18.39,77.58,77.58,0,0,0,17.25-17.37l1.77-2.38L726,98.82c1-1.65,2.2-3.25,3.13-4.95l2.94-5,2.71-5.15a6.38,6.38,0,0,1,1-1.5.65.65,0,0,1,.06-.4c.64-1.86,1.42-3.82,2.26-5.81a2.53,2.53,0,0,1,.61-1C738.88,74.85,738.85,75.12,738.69,75.55ZM530.18,117.16,530,117l.64.11,1.26,1Zm-6.39,8.53h0l-.74-.51Zm96.72-26.62c-8.68-1.48-17.43-2.29-26.21-3.08l3.2-.1c1.07,0,2.15,0,3.22,0l5,.51c1.66.19,3.31.49,5,.74C614,97.62,617.25,98.37,620.51,99.07ZM522,115a12.72,12.72,0,0,1,3.12,1.4,4.86,4.86,0,0,1,1.56-.9,48,48,0,0,1,4.65-1.36c-.38-.36,0-.46.15-.58l.51-.32-5.17.89A47.33,47.33,0,0,1,522,115Zm-9.7,6.82-.22-.09-.08-.8S512.13,121.3,512.31,121.81Zm.18,1.34.26,0C512.81,123.42,512.7,123.36,512.49,123.15Zm2.39-.18a1.48,1.48,0,0,0-.47-.21Zm11.74,18.66L525.54,138l1,3.57Z"/></svg>