<svg id="Layer_1" data-name="Layer 1" xmlns="http://www.w3.org/2000/svg" viewBox="0 0 1080 689.88"><path d="M569.25,356.26c0,.19-.08.39-.12.58a1.26,1.26,0,0,1-.67-1,10.76,10.76,0,0,0,2.37,7.39,16.63,16.63,0,0,0,5.85,4.93,2.49,2.49,0,0,0,3,1.69,2.44,2.44,0,0,0,1.16-3.25,3.67,3.67,0,0,1,0-1.05,22.55,22.55,0,0,0,.51-8.87l-.24,2.06a7.62,7.62,0,0,0-.56-2.65l-.45.62c.12-3.36-2.25-6.64-5.22-7.14s-5.43,1.89-5.54,5.17Z"/><path d="M565.4,364.3c0-1.79,0-3.58,0-5.39l.22-.49L564,359.49l.13,0c2.07.45,3.81,2.23,5.23,4l.58.58a1.5,1.5,0,0,0,1.2.15,1.79,1.79,0,0,0,1-2.33c-.12-.39-.27-.77-.41-1.15-.43-3.13-2.62-7.33-6.18-7-.82.08-1.48.87-2.2,1.4a2.56,2.56,0,0,0-1,3.4,2.42,2.42,0,0,0,3.18,1.32l.12.78-.67-.27c1.15-.2,2,.83,3,1.4l1,1.15,2.18-2.18-.71-.5a2.87,2.87,0,0,1-.2.31,27.43,27.43,0,0,1-4-2.85l-1.89-1.21a1.32,1.32,0,0,0-1.6,1.1l-.13,1.1.14-.54c.4,2.12,1.08,4.18,1.43,6.27a.68.68,0,0,0,.65.62A.55.55,0,0,0,565.4,364.3Z"/><path d="M561.62,358.26a1.62,1.62,0,0,0-.18-1.19l-.3,0c0,.22-.08.52-.13.82C560.92,358.44,561.28,358.5,561.62,358.26Z"/><path d="M561.14,357c0-.21.06-.35.06-.35s-.11.21-.16.3l.05,0Z"/><path d="M587.72,515.21c-.49,2.2-1.14,4.36-1.75,6.52s-1.2,4.32-1.86,6.46L582,534.58c-.35,1.06-.68,2.13-1,3.18l-1.16,3.15-2.3,6.28L575,553.37l-1.26,3.08-1.37,3-2.74,6.06c-.24.54-.39,1-.28,1.09s.39-.3.62-.8l2.75-6.06,1.38-3,1.27-3.08,2.53-6.18,2.33-6.27,1.15-3.14c.39-1.05.71-2.12,1.06-3.18l2.09-6.38c.68-2.14,1.25-4.31,1.88-6.46s1.27-4.32,1.77-6.52a2,2,0,0,0,0-1.21C588.06,514.27,587.86,514.66,587.72,515.21Z"/><path d="M520.41,625.8c.19-.37.1-.42-.22-.13a5,5,0,0,0-.85,1.09c-.15.31-.05.37.22.13A4.89,4.89,0,0,0,520.41,625.8Z"/><path d="M516.36,618.18c.63-1,1.24-1.91,1.8-2.84s1-1.85,1.47-2.73a4.58,4.58,0,0,1,.62-.88c-.22,0-.09-.43.32-1.15a317.9,317.9,0,0,0,22-45.57,1.84,1.84,0,0,1-.13-.84,16.84,16.84,0,0,1,1.63-5.77l.8-1.65c.77-1.68,1.4-3.41,2.1-5.11s1.41-3.41,2-5.13l1.87-5.19.94-2.58.85-2.62a40.48,40.48,0,0,1,.93-5.06c.3-1.57.45-3.16.66-4.74s.41-3.15.61-4.73c.37-3.17.61-6.36,1-9.55-.23.37-.45.57-.65.52-.43-.21-.51-1.73-.29-3.43.11-.85.21-1.71.32-2.56-.45,2.43-.87,4.87-1.49,7.27a9.51,9.51,0,0,1-.25,1c-.51,2.67-.94,5.39-1.56,8.13a286.89,286.89,0,0,1-22.29,68,3.94,3.94,0,0,1-.71,1.13c-.19.15-.28,0-.1-.35,5.75-13.92,8.73-26.69,12.69-42.56A220.8,220.8,0,0,0,548,492.47a149,149,0,0,0-1.57-28.73l-.55-3.5-.28-1.74-.36-1.74c-.5-2.31-1-4.63-1.49-6.94s-1.22-4.6-1.83-6.92-1.43-4.6-2.13-6.92c-.45-1.57-1-3.1-1.59-4.62s-1.08-3-1.63-4.54-1.21-3-1.8-4.43-1.14-2.94-1.82-4.35l-.5-1.07-.24-.53-.11-.19-.38-.71-.74-1.4c-.5-.93-.94-1.89-1.45-2.8-1-1.82-2-3.64-3-5.47-.46-.92-1-1.81-1.51-2.7l-1.55-2.68c-1.86-2.52-1.11-6,2-8.1a7.57,7.57,0,0,1,6.11-1.06l-.37-.72L531,389.3a5.27,5.27,0,0,1,.87-3.77l.93-1.54c2-2.5,3.06-5.43,5.24-7.92l1.14-.39.17-.39a6,6,0,0,1,1.93-3l1.28-.67a13.93,13.93,0,0,1,4.66-1.23,4.85,4.85,0,0,1,1.65-.68,7,7,0,0,1,3.85-2.74,1,1,0,0,1,1.28-.59,1,1,0,0,1,.45.35h0a9.79,9.79,0,0,0,.5-.93,5.94,5.94,0,0,1-.1-.63c-.28-1-.28-1-.5-1.88a5.14,5.14,0,0,1,.43-1.69c1.79-2.08,1.78-2.09,2.79-2.55l.35,0c0-.79,0-.85,0-1.07a3,3,0,0,1,.21-.51c.49-.34.49-.34.62-.56a2.56,2.56,0,0,1,.37-.27c.75,0,.75,0,.92-.1a1.4,1.4,0,0,1,.38,0l.61.45-.84,1.67.55-.1-.49.57.49-.45-.1.63.22-.78a5,5,0,0,0,.6,1.53,2,2,0,0,0,.54.78,1.51,1.51,0,0,1,.28-.21c.38,1.21.38,1.21.73,2.41a3.94,3.94,0,0,1-.23.46.56.56,0,0,1,.48.4l.21.61.14.07,0,0,.52.32.12.06h0c.36.22.88.54,2.19,1.44a7.52,7.52,0,0,1,.2,1.1,3.31,3.31,0,0,1,.12-.42c.09-.27.66-.37.66-.5a18.52,18.52,0,0,0-.21-2.22c-.12-.73-.3-1.44-.48-2.16-.38-1.43-.84-2.86-1.26-4.3a1,1,0,0,1,.11-1.34.84.84,0,0,1,1.22.25c5.58,3.62,8.42,10.68,8.71,17.25.35,1.61.74,3.19,1.14,4.77l.16-.32.09,1.32,0,.13c.18-.42.37-.85.55-1.28,0-.24,0-.48,0-.72a30,30,0,0,1-.92-5.58c-.17-1.9-.4-3.78-.72-5.68-.35-2.05-.21-4.06-.38-6.13a.86.86,0,0,1,.42-1.11.82.82,0,0,1,1,.6,36.07,36.07,0,0,1,4,9,21.72,21.72,0,0,1,.37,9.49,5.61,5.61,0,0,1,.31,3.28v.05c.18-.34.35-.65.54-1,.09.88-.4,1.57-.41,2.4l1-.7c.36,2.11,1,4.19,1.49,6.27a28.75,28.75,0,0,1,.6,3.13,16.58,16.58,0,0,1,0,3.15,2.27,2.27,0,0,1,0,.45,21.55,21.55,0,0,1,1.73,2.07l.38.57.09.16.18.46.36.94c.22.64.45,1.28.68,1.93s.39,1.35.58,2c-.18-1-.33-1.92-.56-2.86s-.42-1.84-.63-2.78a1.58,1.58,0,0,1,.13.3l.16.36.29.73.59,1.47c.4,1,.68,2,1,3,.62,2,1.19,4.11,1.69,6.3,2.57,11.89,2.6,25.58.43,32.07a249.76,249.76,0,0,1,1,34A268,268,0,0,1,589.25,510a4.22,4.22,0,0,1-.92,2.29c-.28.08-.37-.72-.17-1.86l.46-3,.35-3q.35-3,.7-6c.27-2,.34-4,.53-6.05s.31-4,.47-6.07.17-4.06.25-6.09.2-4.07.17-6.11c0-4.08.09-8.17-.16-12.25a289.59,289.59,0,0,1-4.27,41c-.26,1.75-.44,3.52-.79,5.26s-.74,3.43-1.2,5.11c-3.65,17.3-9.09,33.08-15.67,49.61-.35.88-.69,1.76-1,2.63L566.85,568l-2.19,5c-1.46,3.31-3.06,6.48-4.57,9.7s-3.27,6.31-4.92,9.51-3.55,6.33-5.43,9.6a277.69,277.69,0,0,1-17.1,25.55,245,245,0,0,1-20,23c-1.93,2-4,3.56-4.54,3.48s.56-1.75,2.48-3.74a311.13,311.13,0,0,0,20.59-24.85,320,320,0,0,0,17.78-27,297.82,297.82,0,0,0,15-29.17,305.94,305.94,0,0,0,12.22-31.39c.42-1.16.78-2.33,1.12-3.51s.71-2.34,1.06-3.51c.71-2.33,1.42-4.65,2-7a.51.51,0,0,1-.29.05c-.35-.08-.57-.6-.66-1.41-.35,1.33-.7,2.65-1.06,4l-1.23,3.93c-.86,2.61-1.62,5.26-2.62,7.83a189.88,189.88,0,0,1-17.38,43.44,237.6,237.6,0,0,1-17.55,26.12,281.81,281.81,0,0,1-23.17,31.2,3.3,3.3,0,0,1-.92.85c-.2.08-.07-.18.26-.59l4.11-5.38L522,631l2-2.77,4-5.58,3.89-5.74c-1.14,1-2,1.45-2.27,1.09s0-1.5.8-3.05l-3.73,5c-.77,1-1.54,1.72-1.7,1.56s.31-1.08,1-2.06c2.51-3.41,5.08-6.78,7.43-10.29,1.19-1.75,2.44-3.47,3.58-5.24l3.43-5.34a291.67,291.67,0,0,0,14-27,7,7,0,0,1-2.44,2.09h0l-2,4.22c-11.66,26.17-28.86,50.62-49.65,71.63-.4.43-.78.72-.86.66s.18-.43.55-.8c3.09-3.22,6.22-6.39,9.14-9.75,1.46-1.68,3-3.29,4.39-5l4.24-5.14,0,0c-.27.23-.4.22-.21-.13a5.33,5.33,0,0,1,.89-1.07c.32-.27.38-.17.22.12a244.72,244.72,0,0,0,26.49-41.28,256.74,256.74,0,0,1-25,37.36c-.91,1.36-1.77,2.76-2.75,4.1a3.45,3.45,0,0,1-.89.86c-.14,0,0-.28.27-.65l.8-1.11c-1.84,2.15-3.56,3.57-3.93,3.2s.92-2.58,2.78-4.84c4.72-6.25,9.37-12.52,13.64-19l1.32-2.16,1.18-2.27a290.55,290.55,0,0,1-22,28.71c-.64.8-1.31,1.39-1.46,1.29s.25-.85.9-1.65a296.82,296.82,0,0,0,18-26.13,285.39,285.39,0,0,0,15.24-28c1.14-3.34,2.11-6.74,3.15-10.1s1.83-6.83,2.66-10.28c-.31.82-.68,1.64-1,2.47-4.22,10.58-8.25,20.39-12.8,29.93a197,197,0,0,1-16,28.08c-.32.46-.67.79-.79.79s0-.37.38-.83a221.24,221.24,0,0,0,15.62-27.62l2.85-6c.88-2,1.72-4,2.55-6,.42-1,.83-1.95,1.24-2.93l1.11-3q1.07-2.94,2.11-5.86l-2.47,5.76-1.22,2.88L539.37,577l-2.57,5.66-2.73,5.56L532.7,591l-1.46,2.73-3,5.49-3.17,5.38-1.61,2.7c-.55.89-1.14,1.77-1.71,2.65a7.86,7.86,0,0,1-1.19,1.54.85.85,0,0,1-.13.42,66.54,66.54,0,0,1-3.42,5.87,3.32,3.32,0,0,1-.84.94C516,618.89,516.11,618.61,516.36,618.18Zm48.31-240c.05-.09.08-.17.12-.23,0,.2-.06.41-.1.65l-.94,1.29ZM555.91,372h0l.5-.76Zm33.34,103.11c.14-4.87.43-9.73.43-14.59.17-4.86.06-9.71.15-14.61l.63,7.09c0,1.84,0,3.69-.1,5.54s-.14,3.68-.22,5.53-.25,3.68-.4,5.52S589.41,473.29,589.25,475.13ZM566.54,369.92a12.21,12.21,0,0,1-1.29,3.17,5.44,5.44,0,0,1,1,1.52,29.18,29.18,0,0,1,1.48,4.62c.36-.39.46,0,.59.13l.34.5c-.37-1.68-.62-3.43-1-5.16A41.19,41.19,0,0,1,566.54,369.92Zm-7.2-9.54.09-.22.79-.11Zm-1.33.22c0,.09,0,.17,0,.27C557.76,360.94,557.81,360.82,558,360.6Zm.27,2.41a1.94,1.94,0,0,0,.19-.48ZM540,375.4l3.63-1.22-3.54,1.08Z"/><path d="M569.91,475.51l.87-.48a5,5,0,0,1-1.54,1.56,22.43,22.43,0,0,0,5.73-4.68c1.69-1.83,3.1-4,4.82-6.16.86-1.09,1.76-2.15,2.74-3.22a38.22,38.22,0,0,1,3.42-3.24,35.18,35.18,0,0,1,7.24-4.68c1-.27,1.86-.54,2.78-.76s1.73-.43,2.48-.6c1.46-.38,2.63-.61,2.81-1,.46-.62-3.36-1.44-7.65-.38-.94.17-2.07.43-2.74.55a29.54,29.54,0,0,0-9.77,3.41,26.77,26.77,0,0,0-2.49,1.55l-1.24.87-1.07.79a49.73,49.73,0,0,0-4.06,3.46l1.67-1.33,1.75-1.29a31.69,31.69,0,0,0-4.52,4.38L572,464c-2.55,2.32-5,5-7.41,7.31l-3.24,3.07a22.63,22.63,0,0,0-2.27,2.29c-1,1.27-.49,1.82,1.29,2a14.17,14.17,0,0,0,7.19-1.76c.43-.21.81-.42,1.2-.64S569.56,475.75,569.91,475.51Z"/><path d="M580.51,470.28a59.72,59.72,0,0,1-6.91,6l-.68.29,1.48.36,0-.07a20.74,20.74,0,0,1,2-4.29c1-1.66,2.08-3.59,3.41-5.45l.93-1.35a2.43,2.43,0,0,0,.54-1.51c-.13-.65-1.71.12-3.26,1.81-.56.63-1.14,1.3-1.66,1.93-2.16,2.25-4.65,5.05-6.93,7.34-1.15,1.17-2.18,2.19-3,3.09a4.27,4.27,0,0,0-1.36,2.2c0,.53,1.48.52,2.39.68a4,4,0,0,0,2.48-.18,8.52,8.52,0,0,0,3.08-1.81c1.83-1.71,2.52-3.66,1.81-4.13.34-.32.7-.64,1-.95-.1.31-.24.61-.36.92-.27-.84,1.1-2.79,1.88-4.48l1.57-2.42-2.7.4-.72,1.35a4,4,0,0,1,.39-.16,41.51,41.51,0,0,1-4.1,6.92c-.62,1-1.25,1.85-1.92,2.71-.35.74.47.92,1.69.38.58-.3,1.13-.57,1.65-.89-.27.13-.52.27-.79.39,3.15-2.26,5.56-5.17,8.11-7.94a2.8,2.8,0,0,0,.78-1.41C581.3,469.72,580.94,469.82,580.51,470.28Z"/><path d="M572.72,480.19a10.55,10.55,0,0,0-1.85,1.14l-.07.28c.36-.15.86-.35,1.32-.57C573,480.62,573.09,480.26,572.72,480.19Z"/><path d="M570.8,481.61l-.6.21.52-.1.06-.07Z"/><path d="M734.61,590.63a62.56,62.56,0,0,0,11.76-6.77,59.06,59.06,0,0,0,9.57-8.73,49.4,49.4,0,0,0,6.67-9.79,38.56,38.56,0,0,0,3.37-9.82,36.7,36.7,0,0,0,.5-4.68c0-.39,0-.76,0-1.14l0-1.14V548l0-.64c0-.43,0-.85-.06-1.29a48.5,48.5,0,0,0-.55-5.25c-.24-1.78-.59-3.6-1-5.46a101.52,101.52,0,0,0-3.4-11.63c-.35-1-.73-2-1.11-3s-.87-2.28-1.28-3.42c-.86-2.27-1.78-4.5-2.67-6.71-.46-1.19-1.1-2.08-1.37-2.05s-.06,1,.4,2.07l1.35,3.31,1.32,3.35c.42,1.14.84,2.28,1.29,3.41s.77,2,1.12,3a108,108,0,0,1,3.45,11.49c.42,1.84.79,3.63,1,5.38a47.51,47.51,0,0,1,.6,5.16c0,.43.06.84.08,1.26s.05.87,0,1.21c0,.72.07,1.47,0,2.21l0,1.13-.1,1.13c0,.77-.21,1.51-.28,2.31a36.4,36.4,0,0,1-3.11,9.65,48.28,48.28,0,0,1-6.38,9.74,59.81,59.81,0,0,1-9.34,8.77A65.39,65.39,0,0,1,734.94,590a9.46,9.46,0,0,0-2.17,1.18C732.74,591.34,733.56,591.08,734.61,590.63Z"/><path d="M764,305.82c-.41,1-.2,1.11.5.18a21.32,21.32,0,0,0,2-3.25c.39-.84.16-.95-.49-.19A14.22,14.22,0,0,0,764,305.82Z"/><path d="M774.36,322.06c-.49,1.38-1,2.76-1.44,4.1-.23.68-.47,1.34-.69,2s-.37,1.34-.55,2c-.35,1.33-.68,2.62-1,3.89a30.1,30.1,0,0,0-.76,3.73,12.85,12.85,0,0,1-.75,2.58c.45-.2.48,1,.08,3a142.89,142.89,0,0,0-2,30.51,177.11,177.11,0,0,0,4.21,31A200.06,200.06,0,0,0,781,435.18c1,2.46,2,4.88,3.1,7.25s2.22,4.7,3.3,6.74l1.89,3.44,2.11,3.77q2.18,3.86,4.41,8a4.67,4.67,0,0,1,1.84,1.48c2.49,2.68,6.06,9.16,8.54,16.47.57,1.86,1.16,3.7,1.66,5.57,1.7,5.59,3.16,11.21,4.34,16.8.61,2.87,1.23,5.93,1.69,9s.85,6.15,1.09,9.31a105.68,105.68,0,0,1-.21,19.3,91.53,91.53,0,0,1-1.58,9.77c-.16.8-.38,1.61-.57,2.42s-.4,1.6-.66,2.44c-.51,1.66-.94,3.32-1.57,4.93a57.9,57.9,0,0,1-2.94,8.51c-.66,1.46-1.33,3-2.16,4.41L804.05,577l-1.38,2.18a73.71,73.71,0,0,1-10.44,13.54,80.38,80.38,0,0,1-12.73,10.68,90.08,90.08,0,0,1-29.47,13c1.36-.17,2.22-.18,2.27,0-.24.52-5,2.07-10.88,2.65-2.95.31-5.87.55-8.81.59a100.26,100.26,0,0,0,12.69-.9,110.11,110.11,0,0,0,12.59-2.55c1.19-.35,2.31-.66,3.34-.93a93.53,93.53,0,0,0,26.42-13.38,85.5,85.5,0,0,0,12.82-11.64,79,79,0,0,0,10.36-14.71,75.73,75.73,0,0,0,6.81-17.16,90.49,90.49,0,0,0,2.82-17.31,111.8,111.8,0,0,0-2.84-32.36c-.27-1.27-.59-2.5-.9-3.74s-.61-2.31-.93-3.47c-.62-2.28-1.34-4.56-2-6.84-1.48-4.54-3.09-9.07-4.91-13.51a217.19,217.19,0,0,0-12.28-24.81L793.5,451l-1.43-2.51-.6-1-.56-1c-1.54-2.87-3.15-6.1-4.6-9.36A195,195,0,0,1,773,395.78a9.87,9.87,0,0,1-.28-3.25c.15-.57.47-.49.71.54a156.84,156.84,0,0,0,8.55,25.2c1.75,4,3.57,7.89,5.57,11.68s4,7.52,6.2,11c1.08,1.71,2.17,3.46,3.12,4.7l4,6c.69,1,1.45,2.19,2.15,3.3l2.21,3.53c1.49,2.42,3,5,4.45,7.66a159.21,159.21,0,0,1,8.18,17.21,163,163,0,0,1,6.31,18.9,125.38,125.38,0,0,1,4.36,27.14,100.59,100.59,0,0,1-3,29.88,82.36,82.36,0,0,1-13.76,29,80.66,80.66,0,0,1-10.17,11.46,86.58,86.58,0,0,1-11.47,9.18,97.71,97.71,0,0,1-25.12,12,110.71,110.71,0,0,1-13.1,3.22,101.37,101.37,0,0,1-13.3,1.41,90.44,90.44,0,0,1-26.6-2.71,61.37,61.37,0,0,1-13.15-5.08c-.52-.26-1-.51-1.54-.78l-1.48-.88c-1-.59-2-1.16-2.9-1.79-1.83-1.32-3.7-2.56-5.37-4a70.91,70.91,0,0,1-9.44-9.56,80,80,0,0,1-7.28-10.47,90.9,90.9,0,0,1-5.47-11l-1.1-2.81c-.37-.93-.7-1.88-1-2.84s-.63-1.87-.91-2.86l-.81-3c-.13-.5-.28-1-.39-1.5l-.3-1.51-.59-3c-.22-2-.63-4-.75-5.94l-.28-3c0-1-.09-1.94-.16-2.92-.2-1.95-.1-3.85-.23-5.78-.15-7.66,0-15.18,0-22.56q0-5.43,0-10.88c0-1.78,0-3.56-.07-5.3s0-3.47-.09-5.17c0-.43,0-.85,0-1.27l0-1.19c0-.8-.07-1.58-.15-2.37-.09-1.57-.21-3.12-.41-4.64a68.09,68.09,0,0,0-1.48-8.71c-.19-.65-.35-1.34-.55-2s-.37-1.27-.6-1.85A32.85,32.85,0,0,0,654,475a12.63,12.63,0,0,0-.79-1.33,8.93,8.93,0,0,0-.82-1.17c-.14-.17-.28-.35-.41-.54l-.46-.44c-.15-.14-.27-.34-.44-.48s-.33-.25-.49-.39a6.43,6.43,0,0,0-.83-.68c-.25-.16-.49-.3-.68-.4a2.24,2.24,0,0,1-.42-.26l-.09-.11a1.38,1.38,0,0,0-.06-.19l0-.05s-.07,0-.14-.05-.12,0-.21,0a2,2,0,0,1-.28.11,4.64,4.64,0,0,0-1.46,1.86A16.13,16.13,0,0,0,645,476a23.4,23.4,0,0,0-.23,3.05c0,.52,0,1,0,1.57l.09,1.84c.19,2.49.39,5.19.54,8.11a45.43,45.43,0,0,1-.53,9.53c-.18.86-.35,1.72-.62,2.61l-.38,1.32-.49,1.33a25.66,25.66,0,0,1-1.21,2.62c-.56.92-1.13,1.84-1.77,2.71a20.8,20.8,0,0,1-10.62,7.24c-.51.15-1,.32-1.54.43l-1.57.27a19.69,19.69,0,0,1-3.16.24,26.38,26.38,0,0,1-3.2-.16,29.61,29.61,0,0,1-3.2-.62,28.27,28.27,0,0,1-3.15-1.14c-.52-.25-1-.5-1.54-.77l-.76-.41-.74-.49a18.25,18.25,0,0,1-2.8-2.21c-.44-.41-.87-.84-1.29-1.27s-.78-.94-1.16-1.43-.76-1-1.08-1.49-.61-1.05-.9-1.59a22.93,22.93,0,0,1-1.4-3.07l-.52-1.45-.42-1.41-.18-.63c-.18-.68-.35-1.36-.48-2-.28-1.31-.48-2.53-.67-3.74-.34-2.38-.53-4.56-.76-6.56s-.42-3.82-.71-5.39a11.11,11.11,0,0,0-1.16-3.61c-.24-.4-.51-.55-.72-.55,0,0-.09,0,0,0l.4-.09c.26-.06.53-.13.79-.21s.48-.13.69-.18.41-.11.61-.18l1.09-.38a7.94,7.94,0,0,0,.89-.38,5.87,5.87,0,0,0,1.46-.82c-.1.08,0,0-.27.27l-.11.14-.05.06h0l1.09-1.41h0v0a1.4,1.4,0,0,0,.13-.18c.16-.3-.13.17-.16,1.07a8.93,8.93,0,0,0,.37,2.94,10,10,0,0,0,.76,1.89,4.72,4.72,0,0,0,.34.59c0,.06,0,0-.14-.22a9.57,9.57,0,0,1-.76-1.64c.12.37.29.7.41,1s0,.14.06.25-.08.13-.22.07-.13-.07-.26-.08a1.65,1.65,0,0,1-.5,0,6.79,6.79,0,0,0-1,.08,6,6,0,0,0-2.93.68,19.06,19.06,0,0,1-3.13,1.35l-.73-.63-.28.24a3.26,3.26,0,0,1-2.56,1.37l-1-.48a6.67,6.67,0,0,1-2.71-3,1.87,1.87,0,0,1-1-.8c-1.33.43-2.64.43-3.44-.68-.57.4-1,.15-.86-.55a2.79,2.79,0,0,1,.28-.79h0c-.41.18-.53.24-1,.51-.39.48-.65.75-.65.75-1,1.28-1,1.28-2,2.35a8.61,8.61,0,0,1-2.12,1.23,21.62,21.62,0,0,1-2.84.21,2,2,0,0,1-1.12-.36,1.1,1.1,0,0,1-.06-.26,14.51,14.51,0,0,1-1.69.84,5.87,5.87,0,0,1-.88.21,2,2,0,0,0-1-.09,2.37,2.37,0,0,1-.48-.1c0-.56,0-.56-.16-.62a.65.65,0,0,1,0-.3l.79-.81c1.38-.3,2-.51,2.32-.59l.32-.09-.17-.38.85-.09h-.67l.91-.49-1.14.53c.83-.67,1.21-1,1.47-1.26a6.19,6.19,0,0,0,.65-.69,5.88,5.88,0,0,0,1-1.25.85.85,0,0,1-.29,0c1.56-1.6,1.53-1.61,3-3.25.21-.12.39-.21.56-.29a2,2,0,0,1,.47-.91l.73-.91.09-.23h0l.41-.91a1.35,1.35,0,0,1,.08-.19h0a28.75,28.75,0,0,1,2.15-4,19.46,19.46,0,0,1,1.67-1.44l-.59.33c-.39.21-.39-.28-.58-.14a40.74,40.74,0,0,0-6,6,53.94,53.94,0,0,1-5.78,5.83,3.34,3.34,0,0,1-2,1.16c-.47,0-.24-.6.45-1.27,1.47-2.06,3.06-4.39,4.83-7,.88-1.31,1.81-2.74,2.92-4.13.56-.7,1.16-1.39,1.81-2.07.31-.34.65-.68,1-1s.65-.64,1.09-1a27.41,27.41,0,0,1,11.36-6.14,25.39,25.39,0,0,1,6.71-.87,21.68,21.68,0,0,1,7.09,1.2,19.63,19.63,0,0,1,9.27,6.15,20.51,20.51,0,0,1,2,2.78c-.09-.21-.17-.42-.25-.62a19.79,19.79,0,0,1,1.48,3.09l.13.32a19.84,19.84,0,0,0-.73-2.53c-.27-.55-.58-1.1-.9-1.65a24.72,24.72,0,0,0-2.54-3.09,16.36,16.36,0,0,0-1.59-1.45,16,16,0,0,0-1.8-1.32,22.22,22.22,0,0,0-8.23-3.21,26.09,26.09,0,0,0-8-.11,29.63,29.63,0,0,0-7.19,1.9,38,38,0,0,0-6.74,3.51l-1.55,1.09-1.35,1c-.87.67-1.73,1.38-2.53,2.11s-1.45,1.26-1.59,1,.37-1.13,1.15-1.93c.62-.7,1.24-1.39,1.95-2.08l1.07-1c.42-.39.86-.78,1.3-1.15a30.68,30.68,0,0,1,5.73-3.84,29.53,29.53,0,0,1,6.58-2.53,30.28,30.28,0,0,1,3.63-.73,29.15,29.15,0,0,1,3.89-.23,25.69,25.69,0,0,1,4.06.35,24.18,24.18,0,0,1,4.11,1.08,21.43,21.43,0,0,1,7.17,4.21,19,19,0,0,1,2.47,2.61,21.45,21.45,0,0,1,1.86,2.75,19.7,19.7,0,0,1,2.14,5.44,17.19,17.19,0,0,1,.91,7.34v.1c.12-.48.19-1,.28-1.51,0,.45,0,.86,0,1.23s-.09.67-.13,1c-.09.65-.24,1.2-.32,1.92l.51-.56a46.41,46.41,0,0,1-.74,5.3c-.3,1.6-.63,3.09-1,4.46-.65,2.75-1.31,5.14-1.83,7.12l-.09.46c0,.84.12,1.62.2,2.36l.06.53,0,.16c0,.22,0,.48,0,.69a5.82,5.82,0,0,0,.08.62,2.27,2.27,0,0,0,.1.48A2.83,2.83,0,0,0,621,501a5,5,0,0,0,1.55,1.22,3.79,3.79,0,0,1-1.8-1.77,1.66,1.66,0,0,0-.14-.49,1.7,1.7,0,0,0-.05-.52c0-.26-.08-.53-.09-.85a3.88,3.88,0,0,1,0-.49c0-.14,0-.41,0-.38v.42a3.75,3.75,0,0,0,0,.5,3.16,3.16,0,0,0,.06.47,2.44,2.44,0,0,0,.08.37,2.7,2.7,0,0,0,.3,1,4.13,4.13,0,0,0,2.14,1.7,5.63,5.63,0,0,0,3.47.15,4.83,4.83,0,0,0,2.79-1.81c1.21-1.66,1.85-4.2,1.92-7.3a44.48,44.48,0,0,0-.21-4.92c-.17-1.73-.38-3.54-.61-5.43-.12-.91-.23-2-.31-3s-.11-2.1-.15-3.16a43.46,43.46,0,0,1,.39-6.49,28.51,28.51,0,0,1,1.73-6.76,20.75,20.75,0,0,1,4.23-6.67c.5-.5,1-1,1.57-1.45a21.52,21.52,0,0,1,1.75-1.26,17.22,17.22,0,0,1,4-1.89,18.79,18.79,0,0,1,8.08-.73,22.38,22.38,0,0,1,6.79,2,28,28,0,0,1,12.19,11.21,19.79,19.79,0,0,1,1.1,2c.32.65.65,1.28.92,1.9.48,1.25,1,2.43,1.3,3.53a57.65,57.65,0,0,1,3.31,23.58c0,1-.13,1.92-.23,2.88s-.18,1.92-.31,2.82c-.28,1.82-.53,3.65-.86,5.43-.65,3.59-1.43,7.08-2.2,10.55-1.58,6.91-3.29,13.65-4.22,20.41s-1.15,13.55.28,19.91a37.5,37.5,0,0,0,3.17,9l1.19,2.16c.39.72.8,1.43,1.25,2.12l1.3,2.08,1.41,2,.71,1,.77.95,1.51,1.89c1.1,1.18,2.11,2.43,3.29,3.51a52.51,52.51,0,0,0,7.21,6A40.08,40.08,0,0,0,707.67,595a20.31,20.31,0,0,0,2,.26l2,.13c.66.07,1.35,0,2,0s1.27,0,2-.09,1.42-.11,2.12-.19l2.12-.28c1.41-.27,2.81-.54,4.2-.92a30.26,30.26,0,0,1,4.75-1c.26.13-1.2.85-3.52,1.49a52.53,52.53,0,0,1-6.1,1.31l-1.54.2c-.52.06-1,.09-1.55.13-1.07.12-2,.11-3,.13-.49,0-1,.06-1.47,0l-1.48-.11c-.5,0-1,0-1.5-.12l-1.5-.24c-.5-.09-1-.15-1.51-.26l-1.49-.4c-.5-.13-1-.25-1.51-.4l-1.49-.52c-8-2.83-15.55-8.61-21.45-15.94a63.1,63.1,0,0,1-7.66-12,39.23,39.23,0,0,1-3.67-13.61,63.15,63.15,0,0,1-.19-7.29c0-1.22.14-2.46.23-3.68s.23-2.46.4-3.7c.62-4.93,1.63-9.86,2.74-14.83-1,4.15-1.82,8.28-2.5,12.41a82.17,82.17,0,0,0-1.05,12.37,50.8,50.8,0,0,0,1.44,12,46.55,46.55,0,0,0,4.73,11,63.32,63.32,0,0,0,7,9.88,54,54,0,0,0,8.61,8.17,48.15,48.15,0,0,0,9.87,5.82,36.21,36.21,0,0,0,10.54,2.8l1.35.15,1.35,0c.91,0,1.75.08,2.73,0s1.89-.06,2.85-.17l1.41-.13,1.42-.22a75.75,75.75,0,0,0,10.95-2.55,65.28,65.28,0,0,0,23.44-14.22,48.5,48.5,0,0,0,13.06-20,35.5,35.5,0,0,0,1.72-10.23l0-1.25c0-.42,0-.92,0-1.37s0-.92,0-1.38,0-.92-.08-1.39c-.12-1.86-.4-3.76-.71-5.68a85.2,85.2,0,0,0-3-11.89c-.7-2-1.45-4.12-2.28-6.22l-1.36-3.33c-.47-1.17-.94-2.33-1.44-3.47a226.81,226.81,0,0,0-10.88-22c-2-3.57-4.12-7.2-6.42-11.21l-1.75-3.09-1.8-3.23c-.54-1-1.39-2.58-2-3.82s-1.28-2.55-1.86-3.8c-2.33-5-4.36-9.87-6.26-14.86s-3.53-10-5-15.2-2.79-10.43-3.94-15.83-2-10.95-2.71-16.63a172.81,172.81,0,0,1,.86-48,148.83,148.83,0,0,1,5.72-23.36c1.32-3.78,2.8-7.47,4.22-11.16,1.64-3.59,3.31-7.15,5.05-10.63a158.51,158.51,0,0,1,26.81-36.81,169.62,169.62,0,0,1,16.51-14.91c3-2.23,5.84-4.51,8.94-6.54s6.12-4.1,9.29-6a90.77,90.77,0,0,1,9.4-5,21.44,21.44,0,0,1,5.2-1.92c1.16,0-3.59,2.76-10.14,6.87-3.24,2-6.35,4.13-9.44,6.35l-4.59,3.4c-1.52,1.15-3,2.4-4.46,3.6l-2.22,1.83c-.73.62-1.44,1.27-2.16,1.91L773.69,268l-4.14,4.08-2,2.07c-.67.7-1.32,1.43-2,2.15q-2,2.16-3.92,4.36c-1.29,1.48-2.5,3-3.75,4.56-2.52,3-4.8,6.28-7.11,9.53-1.18,1.6-2.22,3.32-3.29,5s-2.14,3.4-3.19,5.12l-2.9,5.34c-1,1.8-2,3.56-2.77,5.44l-2.54,5.59c-.41.94-.87,1.86-1.23,2.82l-1.08,2.9-2.15,5.82c-.71,1.94-1.24,4-1.86,5.94a155.32,155.32,0,0,0-4.93,24.32,176,176,0,0,0,1.09,48.67,206.62,206.62,0,0,0,13,46.19c1.55,3.76,3.16,7.45,5.12,11.37l.79,1.54.71,1.34,1.35,2.52,2.62,4.79c1.72,3.1,3.35,6,4.87,8.87s3,5.65,4.38,8.46c2.79,5.62,5.25,11.38,7.61,17.38l1.69,4.52q.78,2.12,1.47,4.2c.93,2.79,1.7,5.56,2.37,8.29a67.65,67.65,0,0,1,2,16l0,1.94-.11,1.8c0,.61-.13,1.2-.19,1.8a15.46,15.46,0,0,1-.26,1.81,37.53,37.53,0,0,1-2,7.27c-3.12,8.35-9.24,16.5-17.39,22.86.16,0,.3,0,.36.1.21.35-.37,1.3-1.61,2.54,9.86-6.88,17.46-16.15,21.2-25.86a42.16,42.16,0,0,0,1.82-10.43c.11-1.66.06-3.61,0-5.42s-.3-3.71-.55-5.59a84.77,84.77,0,0,0-2.48-11.4c-.56-1.93-1.16-3.87-1.85-5.83-.32-1-.7-2-1-2.94l-1.17-3A268.73,268.73,0,0,0,757.61,492c-2.05-4.09-4.26-8.28-6.64-12.83-1.18-2.29-2.41-4.66-3.66-7.19l-1-2-1.05-2.24c-.66-1.45-1.27-2.85-1.85-4.26a176.27,176.27,0,0,1-7.51-22.75,186.7,186.7,0,0,1-4.36-22.5,180.4,180.4,0,0,1-.27-45A152.33,152.33,0,0,1,735.52,345c.3-1.17.57-2.34.89-3.5l1-3.47c.63-2.33,1.51-4.56,2.3-6.83l1.22-3.38.61-1.69.71-1.65,2.89-6.55a158.53,158.53,0,0,1,14.33-24.36,174.4,174.4,0,0,1,18-21.21,13.66,13.66,0,0,1,2.7-2.31c.5-.25,0,.39-1,1.45a169.65,169.65,0,0,0-23.32,30.67A152.85,152.85,0,0,0,740,338.91a19.46,19.46,0,0,1,2.77-4.35c.81-.92,1.46-1.28,1.88-1,.9.64.57,3.92-.08,8.82l1.28-4.28,1.51-4.18,1.52-4.18c.47-1.4,1.15-2.72,1.72-4.08,1.5-3.34,3-5.81,3.41-5.51s-.32,3.07-1.69,6.21c-1.25,2.71-2.2,5.54-3.2,8.35-.49,1.4-1,2.8-1.48,4.22l-1.26,4.31a147.63,147.63,0,0,0-3.76,17.52,163.52,163.52,0,0,0-1.64,17.8,170.78,170.78,0,0,0,.32,17.82,198,198,0,0,0,16.39,61.21c.74,1.62,1.51,3.23,2.33,4.88l1.24,2.37,1.22,2.29,4.83,8.9c-1-3.63-1.4-6.56-1-8.24h0l-2.92-5.64c-1-2-1.92-3.94-2.78-5.92A186,186,0,0,1,750,428.59a183.22,183.22,0,0,1-6.19-29.29,149.54,149.54,0,0,1,4.39-60.6A155,155,0,0,1,777.29,285a194.76,194.76,0,0,1,21-21.83,210.11,210.11,0,0,1,23.84-18.41,12.29,12.29,0,0,1,2.51-1.47,10,10,0,0,1-2,1.58c-20,13.51-38.1,30.29-52.24,50.36l.06-.08c.69-.73,1-.76.47.2a27.45,27.45,0,0,1-2.2,3.15c-.74.88-.87.67-.48-.18a149.49,149.49,0,0,0-15.85,30.51,155.9,155.9,0,0,0-5.1,16.51,146.56,146.56,0,0,0-3,17,155.47,155.47,0,0,0,.07,34,179.67,179.67,0,0,0,6.76,32.82c-5.33-19.9-7.72-40.79-5.72-61.51a137.62,137.62,0,0,1,6.39-30.46,140.61,140.61,0,0,1,12.81-28.18l1.48-3,1.64-2.94,1.66-3c.55-1,1.11-2,1.73-2.93a13.08,13.08,0,0,1,2.17-2.59c.34-.19,0,.67-.72,1.73s-1.38,2.09-2,3.2a66.28,66.28,0,0,1,6.11-7.63c1.76-1.73,3-2.62,3.36-2.27s-.44,2.12-1.74,4.47c-.62,1.2-1.4,2.57-2.29,4-.45.74-.93,1.51-1.44,2.29s-1,1.63-1.5,2.46c-11.06,18-18.64,38.06-21.16,58.9-.21,2.26-.35,4.53-.48,6.79.06,2.3.08,4.56.26,6.84a143.33,143.33,0,0,1,3.24-24c.91-3.93,1.9-7.84,3.18-11.66L760.1,334c.3-1,.69-1.89,1.08-2.81l1.14-2.79c1.43-3.77,3.3-7.34,5-11,.89-1.8,1.92-3.53,2.87-5.3l1.45-2.63c.5-.87,1.05-1.72,1.57-2.57l3.18-5.12,3.4-5c1.1-1.68,2.35-3.25,3.54-4.86s2.37-3.24,3.67-4.77c1.7-2.17,3.35-3.85,3.63-3.69s-.85,2.1-2.53,4.27c-1.06,1.4-2,2.86-3,4.32l-2.93,4.38L779.44,301l-1.37,2.24-1.26,2.31-2.51,4.59c-.8,1.55-1.52,3.14-2.28,4.7-1.59,3.11-2.84,6.35-4.17,9.55-.71,1.58-1.23,3.24-1.8,4.87l-1.7,4.9-1.38,5c-.44,1.67-1,3.3-1.31,5a135.75,135.75,0,0,0-3.09,20.34c-2.06,27.4,3.53,55.34,13.9,80.87,1.09,2,2.2,4,3.35,5.88s2.26,3.58,3.59,5.59c2.59,3.88,5.33,7.91,8,12.15A184.31,184.31,0,0,1,802,496.42c-.75-2.54-1.59-5.09-2.48-7.63A178,178,0,0,0,789.43,466c-1.84-3.52-3.7-6.87-5.45-10.06-.86-1.58-1.78-3.23-2.45-4.5-.73-1.42-1.47-2.93-2.19-4.44a210.72,210.72,0,0,1-13.74-38.24,155.84,155.84,0,0,1-4.94-40.27,124.65,124.65,0,0,1,2.05-20.63c.36-1.71.68-3.44,1.09-5.16s.91-3.42,1.36-5.14l.7-2.59.86-2.55,1.77-5.14a5.58,5.58,0,0,1,1.42-2.49c.26-.06.06.93-.53,2.28l-1.66,5c-.55,1.66-1.12,3.3-1.5,5-.84,3.34-1.75,6.62-2.31,9.94a125.39,125.39,0,0,0-2,19.89,161.85,161.85,0,0,0,4.48,39.79,186.56,186.56,0,0,0,10.34,31.58c1.07,2.47,2.18,4.91,3.34,7.26s2.38,4.68,3.54,6.64c1.36,2.35,2.8,4.75,4.27,7.21s3,5,4.5,7.65c-1.39-2.76-2.77-5.41-4.14-8l-3.94-7.4c-.5-.95-1.06-2.08-1.6-3.2s-1.07-2.29-1.6-3.46c-1.06-2.35-2.06-4.75-3-7.16a205.78,205.78,0,0,1-9.41-29.87,162.21,162.21,0,0,1-4.19-30.9c0-1.3-.11-2.61-.09-3.91v-3.91c.11-2.59.18-5.21.42-7.81a117.82,117.82,0,0,1,2.24-15.56,16.26,16.26,0,0,1,1.48-4.63,2,2,0,0,1,0-1.1c.21-1.32.45-2.67.7-4.05s.72-2.72,1.08-4.12.75-2.82,1.18-4.24,1-2.82,1.5-4.24a9.82,9.82,0,0,1,1.44-2.88C774.83,320.08,774.74,320.82,774.36,322.06ZM603.91,461.56l-.35-.13c.38.07.8.2,1.25.33l.2.13a9.9,9.9,0,0,1,1.37,1l-.74-.46C605.19,462.15,604.57,461.85,603.91,461.56Zm-14.6,9.75h0l-.86.28ZM668.45,555a65.06,65.06,0,0,1,.2-17.62c.78-5.92,2.1-11.81,3.42-17.77s2.66-12,3.51-18.31a68.57,68.57,0,0,0,0-19.82,67.14,67.14,0,0,1,.36,19.38c-1.29,9.54-3.7,18.54-5.57,27.47a111.48,111.48,0,0,0-2.08,13.4A57.09,57.09,0,0,0,668.45,555Zm-79.2-92.29a14.9,14.9,0,0,1,5.08-1.06,14.45,14.45,0,0,1,3.72-1.3,17.88,17.88,0,0,1,5.73-.27,15.51,15.51,0,0,1,5.76,1.85c-.37-.48.49,0,.93.25a10.19,10.19,0,0,1,1.3.82,15.8,15.8,0,0,0-5.9-3,19.11,19.11,0,0,0-6.38-.54A26.06,26.06,0,0,0,589.25,462.75ZM575.86,480.2l-.3.13a4.4,4.4,0,0,1-.22-.59Zm.44.94.35-.27C576.78,481.05,576.61,481.12,576.3,481.14Zm3-2.59a2.52,2.52,0,0,0-.58.31ZM595,482.37c-.74-.66-1.44-1.33-2.1-2,.62.7,1.28,1.39,2,2.08Z"/><path d="M259.21,423.51l.63,0a1.71,1.71,0,0,1-.94,1,15.57,15.57,0,0,0,7.72-4.36,40.85,40.85,0,0,0,3-3.46,25.55,25.55,0,0,0,2.31-3.78c1.51-.82,2.54-2.27,2.09-3.44s-2.19-1.48-3.87-.66a5.93,5.93,0,0,1-1.23.22,20.72,20.72,0,0,0-5,.29,25.51,25.51,0,0,0-2.64.58c-.85.26-1.71.56-2.57.89l2.32-.36a11.38,11.38,0,0,0-2.94,1.38l.73.31a10.09,10.09,0,0,0-5.14,2.86,8,8,0,0,0-2.23,4.77c-.15,3.29,2.78,5,6.24,4.16Z"/><path d="M268.23,425.47c-1.9.44-3.89.78-5.73,1.28l-.54-.09L263.3,428l-.06-.11c.1-2.29,1.93-4.43,3.69-6.32l.57-.76a1.65,1.65,0,0,0,.06-1.3c-.36-.87-1.51-1.08-2.59-.47l-1.23.71c-3.54,1.13-7.58,4.77-6.74,8.31.21.81,1.14,1.25,1.8,1.82a2.63,2.63,0,0,0,3.66,0,2.73,2.73,0,0,0,.9-3.61c.27-.11.53-.23.8-.33-.07.25-.13.5-.2.76-.4-1.15.67-2.23,1.2-3.37l1.16-1.25-2.57-1.74-.48.85c.13,0,.35.12.35.13-.44.83-.84,1.64-1.28,2.44a23.61,23.61,0,0,1-1.32,2.4l-1,2.28a1.2,1.2,0,0,0,1.37,1.33l1.16-.18-.58,0c1.06-.5,2.1-1.06,3.13-1.6a30,30,0,0,1,3.25-1.39.82.82,0,0,0,.6-.8A.54.54,0,0,0,268.23,425.47Z"/><path d="M262.4,430.78a1.87,1.87,0,0,0-1.2.51v.32l.87-.1C262.69,431.44,262.7,431.07,262.4,430.78Z"/><path d="M261.2,431.61l-.36,0,.34.07,0-.06Z"/><path d="M390.38,547.24c9.44-8.39,16.22-22.24,20.11-37.16a139.39,139.39,0,0,0,3.87-23.3,204.07,204.07,0,0,0,.25-24.56,5.38,5.38,0,0,0-.33-2.15,4.4,4.4,0,0,0-.12,1.91,203.17,203.17,0,0,1-.24,24.51,137.77,137.77,0,0,1-3.83,23.18c-3.83,14.85-10.56,28.6-19.83,37a3.44,3.44,0,0,0-1.06,1.27C389.27,548.07,389.78,547.76,390.38,547.24Z"/><path d="M486.84,331.47c-.9.08-.86.19.06.26.4,0,1,0,1.51,0s1.13.08,1.57.07c.75,0,.73-.13-.05-.26a10.76,10.76,0,0,0-1.61-.17C487.76,331.42,487.21,331.44,486.84,331.47Z"/><path d="M480.17,340.05l-3.14.8c-1,.31-2,.73-3,1.08-.47.19-.95.35-1.41.56l-1.34.68c-.87.46-1.73.86-2.53,1.34a15.9,15.9,0,0,1-1.81,1c.31,0-.37.54-1.69,1.4-1.56,1.2-3.19,2.26-4.65,3.62-.73.67-1.53,1.26-2.22,2l-2.12,2.12a66.75,66.75,0,0,0-7.53,9.53c-1.19,1.67-2.14,3.51-3.19,5.26-.49.91-.93,1.85-1.4,2.76l-.7,1.38-.61,1.42a69.77,69.77,0,0,0-4,11.66l-.68,3c-.19,1-.34,2.08-.51,3.11-.4,2.06-.56,4.2-.81,6.31-.14,1-.16,2.14-.23,3.2s-.15,2.14-.19,3.23l0,3.25,0,1.63,0,1.64a261.08,261.08,0,0,0,2,26.8,4.79,4.79,0,0,1,.6,1.51,77,77,0,0,1,1.91,13l.24,4.09c.57,8.29,1,16.78.78,25.45a171.07,171.07,0,0,1-2.62,25.88c-.19,1.77-.37,3.7-.73,5.73q-.27,1.51-.54,3.12c-.24,1.07-.47,2.16-.72,3.27a122,122,0,0,1-6.62,22.42,106.75,106.75,0,0,1-5.2,11l-1.6,2.72-.81,1.36-.88,1.33-1.77,2.66-1.94,2.59c.8-.75,1.36-1.15,1.51-1s-.43,1.27-1.35,2.65c-.45.7-1.08,1.44-1.75,2.27s-1.41,1.7-2.28,2.54l-2.6,2.58c-.89.85-1.83,1.65-2.76,2.46a84.47,84.47,0,0,0,14.25-15.15c.56-.8,1.15-1.51,1.61-2.19a103,103,0,0,0,10-19.53c5.75-14.8,8.3-29.76,9.18-44.35a179.39,179.39,0,0,0-.08-21.64c-.44-7-1.17-13.85-2-20.49-1.62-13.28-3.44-25.84-4-38a120.09,120.09,0,0,1,.39-17.85l.21-2.18.33-2.14c.21-1.43.4-2.89.72-4.22l.44-2.05c.13-.69.36-1.36.54-2l.57-2c.18-.69.45-1.34.68-2a13.34,13.34,0,0,1,1-2.37c.28-.36.33-.25.08.54s-.53,1.7-.79,2.55c-.13.42-.28.83-.39,1.26l-.3,1.27c-.21.84-.41,1.68-.61,2.52s-.29,1.68-.43,2.52c-.33,1.62-.45,3.43-.65,5.14l-.14,1.29-.07,1.32-.13,2.61a138.9,138.9,0,0,0,1.11,21.38c.87,7.33,2.15,14.93,3.49,23.1s2.74,16.95,3.66,26.73c.15,1.45.26,2.92.36,4.41s.23,2.95.3,4.45l.19,4.52.07,4.54a180.91,180.91,0,0,1-.85,18.26,145.21,145.21,0,0,1-8.32,37c-1.17,3.09-2.46,6.17-3.92,9.24a101.28,101.28,0,0,1-4.93,9.16,92,92,0,0,1-13.45,17.27,76.07,76.07,0,0,1-19.15,14.15l-2.86,1.42c-.95.47-2,.85-3,1.27s-2,.83-3.07,1.18l-3.23,1-1.62.48c-.56.14-1.13.26-1.69.38-1.13.25-2.26.49-3.4.71s-2.33.33-3.5.48l-3.85.39a61.42,61.42,0,0,1-16.24-1.74,54.76,54.76,0,0,1-14.94-6.15,53,53,0,0,1-12.4-10.15,54.81,54.81,0,0,1-8.74-13.38,47.07,47.07,0,0,1-2.86-7c-.45-1.33-.78-2.59-1.12-3.87s-.61-2.52-.8-3.69a76.17,76.17,0,0,1-1.24-13.44,100.06,100.06,0,0,1,.67-11.88c.24-1.84.45-3.75.77-5.52l.45-2.69c.16-.92.31-1.63.46-2.46.59-3.17,1.32-6.43,2.08-9.64s1.62-6.35,2.36-9.12a85.24,85.24,0,0,0,2.72-13.35c.12-1.09.25-2.17.35-3.34s.19-2.34.28-3.55l.06-.9c0-.29,0-.44,0-.66v-1.23c0-.41,0-.75-.06-1.12a6.66,6.66,0,0,0-.08-1c0-.32-.08-.63-.11-.95s-.13-.54-.18-.81a3.53,3.53,0,0,0-.19-.73,3,3,0,0,0-.21-.64,8.62,8.62,0,0,0-1.08-2.09,30.83,30.83,0,0,0-2.88-3.77c-.73-.83-1.55-1.75-2.52-2.76l-.74-.77-.18-.19-.09-.09h0l-.13-.06a1.64,1.64,0,0,1-.46-.29c-.64-.19-1-.41-1.4-.28l-.12,0-.16.06a.36.36,0,0,1-.27,0,.72.72,0,0,1-.34.1c-.06,0-.09,0-.16,0l-.22.09c-.14,0-.25,0-.41,0l-.26.1,0,0-.17.11c-.11.08-.19.06-.32.18a2.81,2.81,0,0,1-.76.43c-1.09.64-2.46,1.3-4.1,2.26-.51.66-1.36.58-2.41,0a10.19,10.19,0,0,1-3.4-3,9.33,9.33,0,0,1-2.05-5.66c-.16.11-.33.21-.49.3l-1,.16a5.22,5.22,0,0,1-3.26-.92l-1.48-.79c-2.5-1.74-5.43-2.66-8.16-4.4l-.6-1-.38-.1a6.29,6.29,0,0,1-3.17-1.4l-.88-1.11a13.46,13.46,0,0,1-2.07-4.32,4.79,4.79,0,0,1-.95-1.49,6.68,6.68,0,0,1-3.33-3.26.94.94,0,0,1-.81-1.15,1.17,1.17,0,0,1,.27-.53h0a8.24,8.24,0,0,0-1-.3c-.37.16-.6.24-.6.24-1,.51-1,.51-1.79.94a5.32,5.32,0,0,1-1.76,0c-2.4-1.27-2.42-1.25-3.06-2.14a2.25,2.25,0,0,1-.09-.35c-.8.23-.86.24-1.08.29a2.93,2.93,0,0,1-.56-.06c-.44-.41-.44-.41-.68-.47a2.81,2.81,0,0,1-.34-.3c-.14-.75-.14-.75-.26-.89a1.87,1.87,0,0,1-.05-.4l.38-.74,1.84.41-.19-.54.66.35-.54-.38.67-.07h-.84a5.79,5.79,0,0,0,1.47-1,2.48,2.48,0,0,0,.72-.75,2,2,0,0,1-.26-.23,22.63,22.63,0,0,1,2.41-1.33,2.63,2.63,0,0,1,.52.14.63.63,0,0,1,.37-.57l.63-.34.06-.16,0,0,.29-.59.06-.13h0l1.3-2.6a6.74,6.74,0,0,1,1.14-.45l-.46,0c-.3,0-.46-.61-.59-.58a27.74,27.74,0,0,0-4.6,1.74c-.76.36-1.52.73-2.26,1.12l-2.15,1.26a1.1,1.1,0,0,1-1.4.27.91.91,0,0,1,.08-1.34,22.18,22.18,0,0,1,1.32-2.44,18.61,18.61,0,0,1,1.78-2.22,25.37,25.37,0,0,1,4.4-3.84,34.66,34.66,0,0,1,5.35-2.75,20,20,0,0,1,2.87-.91c1-.25,1.95-.45,2.9-.6,1-.31,1.84-.66,2.8-.93l2.9-.81-.37-.15,1.59-.19.16,0-1.47-.49-.87,0c-1.11.36-2.27.61-3.36.9s-2.18.55-3.29.81l-3.35.75c-1.11.28-2.16.63-3.25,1-2.3.82-4.69,1.08-6.89,1.87-.5.3-1.05.25-1.25-.13s.09-.91.58-1.21c5.85-5.05,14.55-9,22-8a8.54,8.54,0,0,1,2.07-.54,7.58,7.58,0,0,1,2.08.07h.06l-1.14-.52c1.13-.14,1.91.35,3,.34l-.7-1c1.38-.21,2.71-.54,4.13-.76s2.87-.42,4.29-.59l2.12-.21c.72,0,1.45,0,2.16,0a24.15,24.15,0,0,1,4.14.53,5.6,5.6,0,0,1,.6.05,23.48,23.48,0,0,1,3.47-1.13c.3-.08.61-.14.93-.2a1.79,1.79,0,0,1,.29-.05h1.5c.5,0,1,0,1.51,0l1.55.12c2.07.2,4.17.34,6.3.74s4.31.91,6.49,1.51c-1.46-.46-2.94-.83-4.41-1.21a37.23,37.23,0,0,0-4.43-.94c-1.48-.23-3-.44-4.46-.62L315,402l-1.11-.05-1.94-.09h.32l.6,0h1.19a19.65,19.65,0,0,1,2.42.09c1.63.12,3.26.26,4.89.44a21.13,21.13,0,0,1,2.45.39l2.45.5a38.68,38.68,0,0,1,4.89,1.28q2.43.79,4.85,1.69c1.59.67,3.15,1.45,4.72,2.23.78.4,1.57.79,2.33,1.21l2.23,1.42c1.47,1,3,1.93,4.39,3,1.84,1.53,3.73,3.08,5.45,4.75s3.31,3.52,4.79,5.25a109.92,109.92,0,0,1,6.53,9.08,77,77,0,0,1,5.87,11.06,63.14,63.14,0,0,1,4.78,18.43c.12,1,.15,1.95.21,2.92s.11,1.91.09,2.82c0,1.83,0,3.63-.2,5.28-.07.83-.14,1.66-.21,2.47s-.23,1.54-.34,2.3-.24,1.48-.35,2.2-.3,1.38-.44,2-.31,1.32-.45,1.95-.31,1.09-.47,1.63c-.31,1-.62,2-.92,2.91s-.65,1.81-1,2.62c-.23,1.53-.58,3.13-.87,4.69s-.66,3.17-1.07,4.77c-.77,3.18-1.7,6.38-2.63,9.26-1.89,5.81-3.44,10.21-4.73,14.92-.31,1.18-.65,2.33-.93,3.54l-.45,1.79c-.16.61-.24,1.09-.37,1.64l-.36,1.6-.28,1.56c-.21,1.05-.32,2-.47,3a44.35,44.35,0,0,0-.35,5.53,21.61,21.61,0,0,0,.4,4.13,8.64,8.64,0,0,0,.34,1.26l.26.64.14.34,0,0-.06-.15v0l0,0,.08.17a5.54,5.54,0,0,0,.33.64,9.55,9.55,0,0,0,1.78,2.26,9.9,9.9,0,0,0,5.08,2.49c.46.09.94.09,1.41.14a13.26,13.26,0,0,1,1.41,0,4.56,4.56,0,0,1,.82-.09l.49,0c.17,0,.34-.06.5-.08a14.71,14.71,0,0,0,2.06-.41,27.65,27.65,0,0,0,8.82-4.09,11,11,0,0,1,1.73-1.09c.52-.24.9-.47,1.1-.43s.06.29-.21.65a9,9,0,0,1-1.4,1.23,32.52,32.52,0,0,1-6.53,3.88,23.33,23.33,0,0,1-6.36,1.74l-.37,0-.31,0a2.11,2.11,0,0,1-.6.06,9.17,9.17,0,0,0-1.17.06,14.39,14.39,0,0,1-2.35-.23,11.24,11.24,0,0,1-4.39-1.87,11,11,0,0,1-3.27-3.61c-.1-.17-.18-.37-.28-.55l-.07-.13,0-.07,0,0h0l0,.12,0-.07-.3-.71a8.12,8.12,0,0,1-.4-1.11,16.42,16.42,0,0,1-.55-2.81,37.62,37.62,0,0,1,.09-8l.29-2.28.39-2.34c.33-1.61.62-3.12,1.07-4.95-.19.71-.43,1.51-.58,2.14l-.5,2c-.19.68-.29,1.31-.44,2s-.29,1.31-.38,1.94a45.2,45.2,0,0,0-.78,7.24,23.56,23.56,0,0,0,.44,5.51,9.76,9.76,0,0,0,.28,1l.14.4.14.37.05.11,0,.06c0,.1-.08-.2-.05-.11l0,.07.23.52c.12.37.34.68.49,1s.36.67.6,1a12.62,12.62,0,0,0,7.52,5.16,20.22,20.22,0,0,0,2.33.39c.4,0,.8,0,1.19,0,.2,0,.4,0,.6,0l.62,0a12.59,12.59,0,0,0,1.47-.09c.5-.08,1-.15,1.51-.21s1-.24,1.54-.35l.78-.17.78-.27a30,30,0,0,0,6.41-3.07c.53-.34,1.06-.65,1.59-1s1-.73,1.56-1.08a18.7,18.7,0,0,0,1.56-1.13c.52-.4,1.05-.77,1.56-1.18a54.43,54.43,0,0,0,7-7.45c.51-.69,1.07-1.35,1.56-2.07l1.47-2.16c.93-1.52,1.92-3,2.75-4.64s1.68-3.24,2.49-4.88,1.53-3.37,2.18-5.13a99.13,99.13,0,0,0,3.56-10.77,131.8,131.8,0,0,0,4-23c.33-4,.53-8,.56-12,0-2,0-4.1-.07-6.17s-.14-4.18-.27-6.32c-.79-14.58-2.59-28.89-3.08-44a174.08,174.08,0,0,1,.66-23.35c.16-2,.49-4,.78-6.07s.7-4.1,1.11-6.16,1-4.2,1.53-6.35c.27-1.09.62-2.14,1-3.19s.71-2.11,1.06-3.17A92.65,92.65,0,0,1,438.71,343c1.08-1.1,2.08-2.25,3.24-3.29l3.45-3.12A76.7,76.7,0,0,1,453,331a63.52,63.52,0,0,1,17.51-8.06,44.9,44.9,0,0,1,4.81-1.14l2.42-.48c.82-.13,1.66-.2,2.49-.29a41.71,41.71,0,0,1,5-.34H489l1.24.1a58.71,58.71,0,0,1,19.15,4.54,71.09,71.09,0,0,1,16.35,9.74c1.2,1,2.45,2,3.59,3l3.38,3.2a90.62,90.62,0,0,1,6.12,6.9l1.52,1.88c.47.63.9,1.27,1.32,1.88.83,1.23,1.59,2.38,2.21,3.4a17.25,17.25,0,0,1,1.88,4c0,.91-2.61-2.86-6.47-7.95A86.26,86.26,0,0,0,526,337.83a69,69,0,0,0-16.74-10.21,58.29,58.29,0,0,0-19.79-4.55c-1.72-.09-3.45,0-5.18,0s-3.43.31-5.15.48a58.34,58.34,0,0,0-9.93,2.35A66,66,0,0,0,451.55,335a80,80,0,0,0-14,13.12,87.85,87.85,0,0,0-10.52,15.58A92.84,92.84,0,0,0,420,381.1c-.4,1.53-.85,3.08-1.2,4.6l-.92,4.52c-.34,1.51-.49,3-.73,4.52s-.46,3-.58,4.51a156.08,156.08,0,0,0-.84,17.84c.06,11.74,1.08,23.09,1.93,34.18.42,5.54.79,11,1,16.41s.28,10.73.06,16A136.15,136.15,0,0,1,414,514.73a110.23,110.23,0,0,1-4.3,12.51,85,85,0,0,1-5.74,11.31.54.54,0,0,1,.34,0c.32.19.21,1-.24,2.34a99.3,99.3,0,0,0,11.82-27.21,142,142,0,0,0,3.2-21.31,181.54,181.54,0,0,0,.28-22.05c-.58-15.07-2.53-31-2.69-48.24a174.47,174.47,0,0,1,.77-17.62c.12-1.45.35-2.91.52-4.35l.29-2.17c.1-.72.25-1.44.37-2.16.27-1.43.51-2.86.8-4.29s.67-2.83,1-4.25a88.48,88.48,0,0,1,6-16.51,92.81,92.81,0,0,1,9.1-14.73,79.24,79.24,0,0,1,15.07-16.22,62.34,62.34,0,0,1,20-10.93A52.75,52.75,0,0,1,494,326.7a58.8,58.8,0,0,1,21.81,7.9,10.81,10.81,0,0,1,2.4,1.67c.31.33-.28,0-1.3-.64a64.93,64.93,0,0,0-14.56-6.41,51.32,51.32,0,0,0-16.17-2.11l-2.07.05c-.68,0-1.36.14-2.05.21l-2,.25-1,.13-1,.22-4,.89c-1.32.36-2.6.82-3.9,1.24a58.3,58.3,0,0,0-14.34,7.39,29.23,29.23,0,0,1,3.59-1.63c.89-.24,1.37-.25,1.37,0s-.54.75-1.41,1.55-2.11,1.81-3.62,3l2.94-1.9,1.47-.95,1.55-.82c1-.55,2.07-1.11,3.12-1.64l3.25-1.36a18.33,18.33,0,0,1,3.52-1.11c.91-.2,1.47-.27,1.46-.14s-.53.4-1.39.75-2.05.73-3.29,1.3L465,335.92l-3.12,1.65c-.52.29-1.05.55-1.55.85l-1.48.95c-1,.65-2,1.25-2.93,1.94a68.34,68.34,0,0,0-5.45,4.39c-.86.79-1.77,1.52-2.57,2.36l-2.43,2.5a78.85,78.85,0,0,0-8.5,10.95,82.16,82.16,0,0,0-6.58,12.18,77.24,77.24,0,0,0-4.82,15.89,113.33,113.33,0,0,0-2,16.23l-.19,4.06,0,4.05c0,1.35,0,2.7,0,4s0,2.69.09,4c.21,5.36.57,10.69,1,16a22.75,22.75,0,0,1,.89-6.24h0c-.1-1.65-.19-3.29-.29-4.93s-.13-3.29-.2-4.94a153.11,153.11,0,0,1,.37-22.84c.2-1.91.48-3.82.72-5.74s.7-3.81,1-5.72.91-3.82,1.46-5.7l.91-2.8.45-1.4.54-1.37a83.28,83.28,0,0,1,11.42-20.62,69.93,69.93,0,0,1,17.45-16.31l1.27-.84c.43-.26.89-.49,1.33-.74l2.68-1.46c.88-.5,1.86-.84,2.78-1.27s1.86-.84,2.84-1.17L473,333l1.47-.47,1.51-.32,3-.64c1-.21,2.06-.25,3.08-.39a51.43,51.43,0,0,1,6.21-.25c1,0,2.06.16,3.09.24l1.55.14c.51.06,1,.17,1.53.26l3.05.55,3,.83,1.49.42,1.45.54,2.88,1.09a65.3,65.3,0,0,1,19.95,13.81A87.56,87.56,0,0,1,540.56,368a8.43,8.43,0,0,1,1,2.09,6,6,0,0,1-1.16-1.72l-1.76-3.14-1.94-3-1-1.51-1.06-1.47-2.13-2.92a83.45,83.45,0,0,0-9.94-10.57,67,67,0,0,0-12-8.37,55.8,55.8,0,0,0-13.84-5.09l.08,0c.77.21.89.35,0,.26a25,25,0,0,1-3.05-.55c-.89-.24-.79-.34,0-.27a48.91,48.91,0,0,0-13.83,0c-1.14.17-2.26.45-3.39.68l-1.69.36c-.56.13-1.1.33-1.65.5l-3.27,1c-1.06.43-2.1.9-3.15,1.35l-1.57.68-1.5.82-3,1.64-2.83,1.88c-.47.31-.95.61-1.4.94l-1.33,1.05c-.88.7-1.78,1.38-2.64,2.1L450,347.07c-.41.38-.83.75-1.23,1.14l-1.15,1.22-2.29,2.44-2.12,2.58-1.05,1.29-1,1.35-1.94,2.7-1.76,2.81c-1.23,1.84-2.18,3.84-3.26,5.76-.5,1-.94,2-1.41,3s-.95,2-1.32,3l-1.21,3.07c-.39,1-.69,2.09-1,3.13-.73,2.07-1.19,4.23-1.74,6.35s-.83,4.27-1.19,6.41-.62,4.29-.77,6.43c.17-2,.54-4,.81-5.95s.77-3.95,1.15-5.92c.19-1,.5-2,.75-2.94s.49-2,.83-2.92c.67-1.91,1.23-3.86,2.05-5.71l1.15-2.81,1.3-2.73c.83-1.85,1.87-3.58,2.85-5.35.47-.89,1-1.73,1.58-2.58l1.64-2.55,1.79-2.45c.61-.81,1.17-1.64,1.85-2.4a68.25,68.25,0,0,1,18.21-16,50.9,50.9,0,0,1,23.3-7,43.91,43.91,0,0,1,5.38-.07l2.71.14,2.7.4c.49.08,1.05.19,1.53.31a6,6,0,0,1,1.06.4c.24.17-.47,0-1.47-.15l-3-.45,2.21.44a13,13,0,0,1,2,.52c1.25.4,2.36.79,3.26,1.13,1.77.84,2.75,1.47,2.61,1.7-.53.43-5.4-1.29-11.54-2a47.5,47.5,0,0,0-12.32.25l-3,.64-1.51.33-1.47.47-2.93.95c-.95.38-1.89.81-2.83,1.21-7.56,3.27-14.09,8.53-19.67,14.51a25.61,25.61,0,0,0-1.72,2l-1.66,2.07c-1.05,1.45-2,3-3,4.45a71.43,71.43,0,0,1,12.77-14,55.14,55.14,0,0,1,16.21-9.47l4.48-1.38,4.59-.92c1.55-.12,3.09-.35,4.65-.39h3.49l1.16.11a47.17,47.17,0,0,1,17.75,5.1,15.16,15.16,0,0,1,2.4,1.39c.6.41,1,.72.93.81s-.43,0-1.06-.33c-.31-.14-.68-.32-1.08-.53l-.63-.34-.7-.32a46.38,46.38,0,0,0-15.37-4.41,42.59,42.59,0,0,0-15.77,1.41c-10.25,3-19.22,9.61-26.23,17.78a77.24,77.24,0,0,0-15.13,28.45l-1,3.91-.75,4c-.29,1.33-.42,2.7-.61,4s-.38,2.71-.46,4.08a138.19,138.19,0,0,0-.49,16.56c1.17,14.61,4.07,29.19,6.22,44.63-.11-2-.28-3.92-.43-5.89-.54-6.23-1.17-12.27-1.76-18.16s-1.1-11.62-1.45-17.26-.41-11.16-.21-16.6a102.59,102.59,0,0,1,1.87-16,68.67,68.67,0,0,1,4.92-15,74.16,74.16,0,0,1,8.18-13.81,59.48,59.48,0,0,1,11.34-11.63,48.08,48.08,0,0,1,14.47-7.79,5.47,5.47,0,0,1,2.12-.49c.07,0-.07.11-.36.22a10.39,10.39,0,0,1-1.26.48,46.78,46.78,0,0,0-14,7.39A62,62,0,0,0,450,358.51a73.43,73.43,0,0,0-13.49,28.25,93.64,93.64,0,0,0-2,13.14c-.28,4.43-.45,8.83-.29,13.25a246,246,0,0,0,2.36,26.35c-.89-9-1.64-17.75-1.74-26.32a108.94,108.94,0,0,1,2.18-25l.69-2.95.88-2.92c.26-1,.63-1.93,1-2.89s.68-1.93,1.09-2.87c.84-1.87,1.61-3.77,2.61-5.58s2-3.6,3-5.37a66.19,66.19,0,0,1,7.48-9.83c1.33-1.59,2.9-2.91,4.37-4.36l2.38-1.95c.4-.32.79-.67,1.2-1l1.26-.87a15.1,15.1,0,0,1,3.25-1.92,2.17,2.17,0,0,1,.63-.51l1.3-.83.67-.43.7-.35,2.89-1.45a42,42,0,0,1,6.33-2.13,8.47,8.47,0,0,1,2.38-.39C481.61,339.68,481.09,339.75,480.17,340.05Zm-197,83.89-.25-.1.7,0,1.38.84Zm-5.86,9.63h0l-.82-.37ZM357,548a25.37,25.37,0,0,1-.23-4.59c0-.82.1-1.73.13-2.59s.18-1.79.32-2.72a86.83,86.83,0,0,1,2.7-11.78c.61-2.08,1.24-4.12,2-6.16s1.46-4.12,2.29-6.35a158.18,158.18,0,0,0,5-15.13,152.13,152.13,0,0,1-4.19,15c-1.26,3.41-2.37,6.41-3.37,9.5-.52,1.54-1,3.1-1.45,4.67l-.68,2.37-.58,2.19a65.14,65.14,0,0,0-1.65,8.38A35.9,35.9,0,0,0,357,548ZM274.15,423.11a12,12,0,0,1,3.48.8,5.47,5.47,0,0,1,1.6-1.2,51.13,51.13,0,0,1,5.07-2c-.42-.33,0-.48.15-.63s.37-.26.56-.39c-1.87.51-3.73,1.09-5.68,1.64a21.18,21.18,0,0,0-2.6.94A21.83,21.83,0,0,1,274.15,423.11Zm-9.23,9.42-.24,0-.24-.77Zm.45,1.29.26-.1C265.75,434,265.62,434,265.37,433.82Zm2.39-.87a1.68,1.68,0,0,0-.52-.08ZM283,448.54c-.61-1.09-1.21-2.19-1.8-3.29q.81,1.62,1.65,3.21Z"/><path d="M416.24,457.46l.64.13a1.74,1.74,0,0,1-1.13.67,14.72,14.72,0,0,0,8.34-2.2,26,26,0,0,0,3.43-2.5,22.32,22.32,0,0,0,2.79-2.91c1.58-.35,2.67-1.53,2.43-2.65s-1.76-1.76-3.44-1.41a5.51,5.51,0,0,1-1.19-.1,25,25,0,0,0-9.94-.84l2.3.26a11,11,0,0,0-3.08.5l.64.46c-3.82-.26-7.86,2.11-8.65,5.12s1.7,5.37,5.25,5.4C415.17,457.41,415.7,457.42,416.24,457.46Z"/><path d="M424.61,461.36l-5.8-.1-.51-.22,1,1.58,0-.12c.65-2,2.71-3.73,4.8-5l.69-.56a1.46,1.46,0,0,0,.31-1.17c-.18-.87-1.25-1.34-2.41-1l-1.32.35a13.08,13.08,0,0,0-5.49,1.8,5.16,5.16,0,0,0-2.72,4.31c0,.82.85,1.45,1.39,2.15a2.7,2.7,0,0,0,3.57.87c1.39-.66,2.15-2,1.64-3.14l.86-.11-.36.65c-.12-1.13,1.07-1.94,1.78-2.89.45-.31.91-.59,1.36-.88l-2.14-2.2c-.21.21-.42.44-.62.67l.31.2a32.61,32.61,0,0,1-3.48,3.86l-1.41,1.92a1.21,1.21,0,0,0,1.07,1.57l1.16.1-.57-.12,3.41-.74c1.14-.24,2.26-.48,3.39-.61a.77.77,0,0,0,.74-.6A.56.56,0,0,0,424.61,461.36Z"/><path d="M417.88,465a1.91,1.91,0,0,0-1.27.21l-.07.3.87.11C418,465.71,418.11,465.35,417.88,465Z"/><path d="M416.54,465.52l-.36,0,.31.14,0,0Z"/><path d="M506.77,460.34a135.36,135.36,0,0,1,15.31,11.24c.16.14.34.18.42.09s0-.26-.15-.39A132.75,132.75,0,0,0,507,460c-.19-.11-.38-.12-.45,0S506.6,460.23,506.77,460.34Z"/><path d="M534.38,497c-.15,0-.22,0-.18.18a.49.49,0,0,0,.3.33c.13,0,.21,0,.18-.17A.54.54,0,0,0,534.38,497Z"/><path d="M527.89,501.48a8.66,8.66,0,0,0-1.85-1,.43.43,0,0,1-.24-.24c-.09.15-.3.16-.54,0-4.66-2.5-9.25-5.33-14.05-7.43a1.15,1.15,0,0,1-.44.23,2.15,2.15,0,0,1-1.89-.43l-.4-.38c-1.77-1.33-3.59-2.58-5.41-3.79a5.39,5.39,0,0,1-1.59-.31l-3-.34-2.95-.3a.72.72,0,0,1,0,.52,1,1,0,0,1-1.22.35c-.24-.08-.48-.14-.72-.2.65.29,1.26.67,1.89,1a.79.79,0,0,1,.23.16l2.26.82a177.42,177.42,0,0,1,20.46,7.75.42.42,0,0,1,.29.29.16.16,0,0,1-.23.14c-4.83-1.4-9.58-1.44-14.49-2.44a74,74,0,0,0-16.79-1.41l-1.92-.3c-.64-.05-1.28-.07-1.91-.09a27.4,27.4,0,0,0-3.74.18,42.74,42.74,0,0,0-7.27,1.67c-1.77.56-3.44,1.16-5.05,1.76-2.22.87-4.31,1.69-6.33,2.7-1,.43-2,1-3,1.5s-1.94,1.05-2.88,1.69a2.76,2.76,0,0,1-1.46.7,2.8,2.8,0,0,1-1.59-.22,6.63,6.63,0,0,1-3-3,8.29,8.29,0,0,1-.8-5.87l-.6.27-1.08.16a4.38,4.38,0,0,1-3.15-1.05l-1.31-.94a26.83,26.83,0,0,0-3.51-2.67,27.93,27.93,0,0,1-3.62-2.73l-.36-1.12-.36-.18a6.07,6.07,0,0,1-2.83-2l-.64-1.25a12.89,12.89,0,0,1-1.12-4.55,4.65,4.65,0,0,1-.62-1.62,6.64,6.64,0,0,1-2.6-3.81.9.9,0,0,1-.54-1.26,1.12,1.12,0,0,1,.38-.43h0a6.58,6.58,0,0,0-.93-.51l-.65.09c-1.05.24-1,.27-1.94.5a5.34,5.34,0,0,1-1.72-.41C419,470,419,470,418.52,469c0-.12,0-.24,0-.35-.83,0-.89,0-1.12,0a2.46,2.46,0,0,1-.53-.2c-.35-.48-.35-.48-.57-.6a2.21,2.21,0,0,1-.27-.36c0-.75,0-.75-.07-.91a1.6,1.6,0,0,1,0-.38l.51-.63,1.72.81-.07-.56.57.49-.45-.49.67.09-.82-.2a5.8,5.8,0,0,0,1.65-.63,2.74,2.74,0,0,0,.86-.53,1.7,1.7,0,0,1-.21-.27c1.33-.37,1.33-.37,2.63-.69l.46.24a.61.61,0,0,1,.47-.46l.66-.2.09-.13,0,0,.4-.49.07-.11h0l1.77-2.09a8.44,8.44,0,0,1,1.18-.18,3,3,0,0,1-.43-.12c-.28-.1-.33-.66-.46-.66a26,26,0,0,0-4.78.55c-1.57.35-3.16.77-4.76,1.18a1.11,1.11,0,0,1-1.42-.08.83.83,0,0,1,.35-1.22,18.74,18.74,0,0,1,3.94-3.58,25.13,25.13,0,0,1,4.94-2.49,30.7,30.7,0,0,1,5.49-1.32,31.51,31.51,0,0,1,5.55-.22c1.83-.15,3.6-.4,5.42-.52l-.33-.2,1.47.11h.15l-1.28-.7-.79-.12a48.72,48.72,0,0,1-6.28.27c-2.08.06-4.25,0-6.39.21-2.31.22-4.53,0-6.82.14a.92.92,0,0,1-1.18-.42c-.11-.37.26-.81.79-1a33.79,33.79,0,0,1,5.17-2.07,31.82,31.82,0,0,1,5.55-1.24,26.43,26.43,0,0,1,5.53-.22,19.76,19.76,0,0,1,5.11.95,7.13,7.13,0,0,1,3.68.25h.06l-1-.64a23.72,23.72,0,0,1,2.55.75l-.54-1c2.4,0,4.87-.11,7.28-.11a35.25,35.25,0,0,1,3.59.26c.59.07,1.16.17,1.73.28s1.13.3,1.68.48a4,4,0,0,1,.5.1,17.49,17.49,0,0,1,3.69-1.06,11.79,11.79,0,0,1,2.09-.13l-2.1-.45h0a13.94,13.94,0,0,1,4.71-.28,20.07,20.07,0,0,1,6.59,2.05,11.66,11.66,0,0,1,4.58,3.78,103.74,103.74,0,0,1,23.4,7.37c.39.15.66.48.62.74s-.39.33-.77.18a152.36,152.36,0,0,0-16.74-4.87c4.63,1.86,9,4,13.42,6.13l1.73.73a8.55,8.55,0,0,1,1.6.93c5.49,2.88,10.3,6.12,15.5,9.43a143.32,143.32,0,0,1,12.23,8.82,68.41,68.41,0,0,1,14.44,15.35c.57.76.8,1.7.51,2.07s-1,.05-1.57-.7a114.93,114.93,0,0,0-15.65-15.54A213.28,213.28,0,0,0,512.08,469c-1.45-.9-2.85-1.84-4.3-2.68a1,1,0,0,1-.08.24,1.21,1.21,0,0,1-.76.61c1.63.94,3.16,2.09,4.71,3.19A46.24,46.24,0,0,1,525,479.08a56.76,56.76,0,0,1,6.79,8.41,97.14,97.14,0,0,1,9.18,9.3.45.45,0,0,1,.17.4c0,.11-.15.09-.29,0-2.25-2-4.55-4.09-6.93-6.09a1.35,1.35,0,0,1-.32,1.35,1.51,1.51,0,0,1-1.48.09c.45.51.94,1,1.38,1.53.27.33.36.7.19.85s-.53,0-.79-.28c-.93-1-1.9-2-2.84-3.06s-2-2-3-3c-1.29-1.07-2.65-2-4-3.07s-2.71-1.95-4.09-2.9a2.53,2.53,0,0,1,0,1.56h0l1.21.93a65.55,65.55,0,0,1,20.89,19.48c.11.15.15.32.07.38s-.22,0-.32-.15c-.85-1.18-1.72-2.36-2.6-3.52s-1.87-2.23-2.82-3.33h0c0,.13,0,.22-.18.17a.6.6,0,0,1-.3-.34c0-.14.05-.21.17-.17A63.11,63.11,0,0,0,523,487.21a71.53,71.53,0,0,1,10.44,10.29l1.36.94a.47.47,0,0,1,.16.39c0,.09-.18.07-.3,0s-.24-.18-.36-.27c.58.72.71,1.55.31,1.87s-1.23,0-1.86-.73c-.88-.9-1.77-1.79-2.66-2.68l-2.71-2.62-.65-.49-.79-.36a97.89,97.89,0,0,1,7.52,8.84c.22.25.3.56.16.68s-.42,0-.64-.22A128.77,128.77,0,0,0,517,490.39c-1.18-.28-2.31-.59-3.5-.8L510,489c.22.16.44.32.67.47,1.48.94,3,1.71,4.5,2.5l4.55,2.27c1.52.74,3,1.6,4.46,2.47a35.1,35.1,0,0,1,4.2,3.12c.14.11.19.27.13.35s-.21.06-.33-.07a35.47,35.47,0,0,0-4.16-2.91c-1.46-.84-2.92-1.65-4.42-2.47a45.38,45.38,0,0,0-7.43-3.33c4.44,2.6,9.1,4.89,13.28,8.18a.8.8,0,0,1,.37.48.21.21,0,0,1,.19,0,10,10,0,0,1,2,1.06.39.39,0,0,1,.21.35C528.17,501.55,528,501.55,527.89,501.48Zm-88.81-38.61-.22-.13.65.13,1.19,1Zm-7.29,7.95h0l-.72-.5Zm60.72-12.92c-1.65-.54-3.28-1.14-4.91-1.77s-3.28-1.3-4.94-2c.85.11,1.69.27,2.52.43A69.31,69.31,0,0,1,492.51,457.9Zm-61.8,2.55a12.5,12.5,0,0,1,3.17,1.42,5.45,5.45,0,0,1,1.74-.76,33.86,33.86,0,0,1,5.07-1c-.35-.37.06-.43.24-.53l.58-.27-2.77.21-2.81.28c-.86.09-1.75.21-2.62.34A19.36,19.36,0,0,1,430.71,460.45ZM420,467.24l-.23-.08-.07-.79S419.81,466.74,420,467.24Zm.17,1.32.28,0C420.5,468.81,420.37,468.76,420.16,468.56Zm2.52-.28a1.85,1.85,0,0,0-.49-.2Zm11.71,18-1.1-3.55,1,3.46Z"/><path d="M311.82,146l.59,0c-.08.35-.4.6-.85.8a10.49,10.49,0,0,0,6.83-3.4,16.29,16.29,0,0,0,3.93-6.42,2.44,2.44,0,0,0,1.2-3.17,2.39,2.39,0,0,0-3.33-.65,4.31,4.31,0,0,1-1,.14,22,22,0,0,0-8.7.8l2.05-.07A7,7,0,0,0,310,135l.67.34c-3.28.38-6.12,3.17-6.17,6.13s2.63,5,5.84,4.65Z"/><path d="M320.21,148.54c-1.74.32-3.48.56-5.25.79l-.5-.14,1.27,1.41-.05-.11c.13-2.09,1.61-4,3.09-5.69l.48-.65a1.49,1.49,0,0,0,0-1.19,1.76,1.76,0,0,0-2.41-.66c-.36.18-.71.39-1.06.58-3,.87-6.74,3.62-5.92,7.05.19.78,1.06,1.31,1.68,1.93a2.51,2.51,0,0,0,3.44.43,2.39,2.39,0,0,0,.83-3.29l.74-.23c-.06.23-.12.46-.17.69-.37-1.09.51-2.06.92-3.1l1-1.11-2.44-1.81-.37.77c.12.06.32.14.32.15a25.81,25.81,0,0,1-2.18,4.29l-.89,2a1.29,1.29,0,0,0,1.29,1.4l1.09,0-.54-.05c2-.7,3.91-1.67,5.89-2.3a.67.67,0,0,0,.5-.73A.55.55,0,0,0,320.21,148.54Z"/><path d="M314.89,153.11a1.57,1.57,0,0,0-1.13.34v.3h.82C315.17,153.76,315.17,153.41,314.89,153.11Z"/><path d="M313.76,153.75h-.35l.32.11,0-.05Z"/><path d="M465.69,103.92c1.12.11,2.25.18,3.37.32l3.35.42,6.69.87,6.64,1.1,3.31.55,3.3.67,6.57,1.34,6.5,1.57,3.25.79c1.08.27,2.15.6,3.22.89l6.42,1.81c.57.15,1.07.22,1.13.1s-.36-.35-.89-.48l-6.43-1.82-3.21-.9-3.25-.8-6.5-1.58-6.57-1.35-3.29-.68-3.31-.56-6.64-1.11c-2.22-.32-4.46-.58-6.69-.88s-4.47-.59-6.73-.76a1.94,1.94,0,0,0-1.2.16C464.7,103.72,465.12,103.87,465.69,103.92Z"/><path d="M585.38,154c-.38-.13-.42,0-.1.24a4.64,4.64,0,0,0,1.22.68c.32.11.37,0,.09-.23A4.8,4.8,0,0,0,585.38,154Z"/><path d="M578.39,159.26c-1-.47-2.08-.94-3.08-1.35s-2-.75-2.92-1.06a4.62,4.62,0,0,1-1-.48c.05.21-.42.15-1.19-.15a321.52,321.52,0,0,0-48.42-15.07,1.66,1.66,0,0,1-.82.26,17,17,0,0,1-6-.76l-1.75-.55c-1.78-.5-3.59-.88-5.38-1.33s-3.58-.9-5.39-1.25l-5.42-1.1-2.7-.55-2.72-.45a39.09,39.09,0,0,1-5.16-.19c-3.19,0-6.39.12-9.57.15l-9.61.45c.39.16.63.36.61.55s-.48.43-1.09.57a9.72,9.72,0,0,1-2.26.24l-2.6.06c2.48.11,5,.13,7.44.4a8.87,8.87,0,0,1,1,.11c2.73.12,5.49.12,8.3.34a288,288,0,0,1,70.74,12.06,3.89,3.89,0,0,1,1.23.53c.18.17.09.27-.33.16-14.65-3.64-27.75-4.7-44.06-6.31a221.06,221.06,0,0,0-57.2,1.86,147.59,147.59,0,0,0-28.27,5.77,166.3,166.3,0,0,0-26.58,10.66c-1.5.67-2.91,1.52-4.35,2.27l-4.28,2.28-4.12,2.45c-1.37.81-2.76,1.56-4.05,2.46l-1,.65-.49.32-.18.13-.63.47-1.27.92c-.83.62-1.7,1.18-2.5,1.84q-2.44,1.89-4.93,3.66c-1.64,1.21-3.19,2.53-4.81,3.77a5.09,5.09,0,0,1-4,1.47,6.57,6.57,0,0,1-4.22-2.21,7.46,7.46,0,0,1-1.92-5.8l-.65.46-1.24.44a5.19,5.19,0,0,1-3.81-.3l-1.65-.68c-2.72-1.59-5.73-2.2-8.48-4l-.55-1.06-.4-.1a5.94,5.94,0,0,1-3.2-1.45l-.84-1.15a13.57,13.57,0,0,1-1.88-4.36,4.91,4.91,0,0,1-.9-1.5,6.86,6.86,0,0,1-3.23-3.36,1,1,0,0,1-.77-1.16,1,1,0,0,1,.28-.49h0a9.92,9.92,0,0,0-1-.35c-.37.13-.6.19-.6.19-.93.42-.93.42-1.76.76a5.22,5.22,0,0,1-1.7-.17c-2.29-1.44-2.3-1.44-2.9-2.35,0-.12-.05-.23-.07-.34-.77.13-.82.14-1,.16a2.58,2.58,0,0,1-.53-.12c-.41-.43-.41-.43-.64-.52a3.2,3.2,0,0,1-.31-.32c-.12-.73-.12-.74-.24-.88a1.67,1.67,0,0,1,0-.38l.35-.66,1.74.58-.17-.53.63.4-.51-.41h.63l-.8-.09a4.5,4.5,0,0,0,1.4-.82,1.93,1.93,0,0,0,.68-.64,3,3,0,0,1-.24-.23c1.12-.56,1.12-.56,2.23-1.07a3.52,3.52,0,0,1,.49.16.56.56,0,0,1,.31-.53l.57-.29.05-.15,0,0c.09-.22.16-.37.23-.55l0-.12h0c.17-.39.39-.95,1.08-2.35a7.56,7.56,0,0,1,1-.36l-.42,0c-.29-.05-.47-.6-.59-.58-.72.14-1.43.32-2.13.53s-1.35.51-2,.8c-1.34.57-2.66,1.22-4,1.85a1,1,0,0,1-1.31.09.82.82,0,0,1,.06-1.23c2.7-6,9.14-9.76,15.48-11,1.51-.58,3-1.19,4.47-1.81l-.34-.11,1.28-.28.12-.06-1.33-.35c-.24,0-.47.05-.71.09a29.17,29.17,0,0,1-5.29,1.71c-1.8.47-3.6.94-5.41,1.54s-3.91.8-5.9,1.26a.82.82,0,0,1-1.13-.23.79.79,0,0,1,.43-1.05,35.83,35.83,0,0,1,8.14-5.23,20.91,20.91,0,0,1,9.17-1.75,5.68,5.68,0,0,1,3.13-.8h.05l-1-.36c.82-.26,1.58.14,2.39,0l-.83-.83c2-.66,3.93-1.58,5.88-2.37a30.57,30.57,0,0,1,3-1,13.84,13.84,0,0,1,3.06-.48,2.33,2.33,0,0,1,.44-.1,23.29,23.29,0,0,1,1.75-2l.5-.45a.57.57,0,0,1,.14-.11l.43-.25.88-.49a36.07,36.07,0,0,1,3.73-1.88c-.94.3-1.84.66-2.74,1l-2.65,1s.18-.12.27-.18l.34-.2.67-.41,1.37-.79a31.09,31.09,0,0,1,2.8-1.48c1.91-.92,3.89-1.8,6-2.61,11.38-4.37,24.9-6.54,31.66-5.37a245.11,245.11,0,0,1,33.54-6.19,268.93,268.93,0,0,1,33.9-1.42,4.19,4.19,0,0,1,2.41.56c.12.26-.66.47-1.82.44a264.89,264.89,0,0,0-48.55,4.62,288.63,288.63,0,0,1,41.23-2c1.77,0,3.54-.07,5.33,0s3.51.23,5.24.43c17.7,1,34.16,4,51.53,8l2.77.63,2.7.72,5.31,1.42c1.76.44,3.47,1,5.19,1.51l5.12,1.56c3.39,1.08,6.74,2.29,10.16,3.44s6.81,2.58,10.35,3.93a283.46,283.46,0,0,1,27.91,13.12A243.18,243.18,0,0,1,611,157.93c2.26,1.62,4.13,3.43,4.13,4s-1.83-.29-4.09-1.89a309.87,309.87,0,0,0-27.75-16.68,317.55,317.55,0,0,0-29.49-13.57,301.15,301.15,0,0,0-31.18-10.51,312.08,312.08,0,0,0-32.95-7.39c-2.44-.44-4.88-.73-7.29-1.09l-3.62-.52c-1.21-.16-2.42-.26-3.62-.39a.6.6,0,0,1,.1.27c0,.36-.51.65-1.3.86l4.09.45c1.37.19,2.73.42,4.09.63l4.08.66,2.05.33,2,.42A190.39,190.39,0,0,1,536,124.2a235.42,235.42,0,0,1,28.53,13.49A284.47,284.47,0,0,1,598.9,156a3.4,3.4,0,0,1,1,.79c.11.18-.17.1-.63-.17l-6-3.26-3-1.65-3-1.58L581.12,147l-6.27-3c1.15,1,1.73,1.76,1.42,2.1s-1.5.21-3.16-.33l5.52,3c1.14.61,1.94,1.26,1.79,1.45s-1.11-.14-2.2-.71c-3.75-2-7.47-4-11.31-5.84-1.91-.92-3.79-1.9-5.73-2.76l-5.8-2.61a292.62,292.62,0,0,0-28.89-9.88,7,7,0,0,1,2.44,2.12h0l4.49,1.38c27.69,7.64,54.5,21.06,78.43,38.55.48.33.83.67.78.76s-.46-.12-.88-.42c-3.65-2.59-7.26-5.22-11-7.62-1.88-1.2-3.71-2.48-5.63-3.61l-5.72-3.44,0,0c.27.24.27.38-.1.24a5.62,5.62,0,0,1-1.2-.72c-.31-.28-.22-.36.1-.24a244.57,244.57,0,0,0-44.89-20.11,256.8,256.8,0,0,1,40.77,19.23c1.48.7,3,1.35,4.47,2.12a3.73,3.73,0,0,1,1,.75c.06.14-.27.06-.68-.16l-1.23-.64c2.41,1.52,4.07,3,3.76,3.44s-2.7-.52-5.22-2c-6.9-3.75-13.81-7.43-20.92-10.69l-2.34-1-2.42-.83A292.38,292.38,0,0,1,592.21,163c.89.53,1.57,1.1,1.49,1.27s-.87-.12-1.76-.64a296.61,296.61,0,0,0-28.59-14,288,288,0,0,0-30-11c-3.47-.62-7-1.1-10.47-1.63-3.53-.37-7-.81-10.6-1.1.87.19,1.74.42,2.61.64,11.11,2.61,21.43,5.17,31.57,8.25a197.57,197.57,0,0,1,30.21,11.7,2,2,0,0,1,.9.66c0,.12-.38,0-.88-.25A222.79,222.79,0,0,0,547,145.57l-6.34-1.94L534.39,142l-3.09-.79-3.1-.66c-2.06-.43-4.09-.85-6.12-1.23l6.07,1.6,3,.78,3,.87,6,1.7,5.92,1.89,3,.94,2.93,1,5.87,2.11c1.94.76,3.86,1.55,5.81,2.34l2.91,1.2c1,.41,1.92.87,2.88,1.3a8.08,8.08,0,0,1,1.7,1,.76.76,0,0,1,.43.06,66,66,0,0,1,6.33,2.52,3.18,3.18,0,0,1,1.06.69C579.15,159.5,578.86,159.45,578.39,159.26Zm-244.61-12-.24-.08h.65l1.4.73Zm-4.67,9.44h0l-.82-.37Zm96.63-48.19-7.27.82c-1.22.11-2.42.28-3.63.46l-3.61.5c-4.85.55-9.63,1.44-14.5,2.06l6.93-1.68,2.74-.44,2.76-.32,5.51-.61c1.83-.23,3.68-.35,5.53-.46ZM325.51,146.61a12.51,12.51,0,0,1,3.27.79,5.3,5.3,0,0,1,1.34-1.15,27,27,0,0,1,4.27-2.13c-.44-.3-.09-.45,0-.59l.43-.41c-1.58.61-3.25,1.1-4.86,1.76A40.75,40.75,0,0,1,325.51,146.61ZM317.28,155l-.22-.05-.23-.76Zm.42,1.26.25-.06C318.06,156.48,317.94,156.45,317.7,156.28Zm2.3-.61a1.79,1.79,0,0,0-.49-.12Zm14.73,16L333,168.29l1.57,3.29Z"/><path d="M631.71,40.34l-.41.31a.76.76,0,0,1,0-.87,6.07,6.07,0,0,0-1.83,5.6,10.51,10.51,0,0,0,2.93,5.24,1.81,1.81,0,0,0,1.89,2,2.36,2.36,0,0,0,2.46-1.77,2.66,2.66,0,0,1,.48-.66,17.06,17.06,0,0,0,4.42-5.14l-1.14,1.11a4.42,4.42,0,0,0,.74-1.7l-.7.2a3.59,3.59,0,0,0-.61-5.85,5.93,5.93,0,0,0-7.33.68Z"/><path d="M624.26,44c.91-1.25,1.87-2.43,2.85-3.59l.44-.22h-1.9l.12,0c1.51,1.2,2,3.05,2.3,4.75l.25.61a1.6,1.6,0,0,0,1,.54A1.68,1.68,0,0,0,631.25,45a7.22,7.22,0,0,1,.22-.89c1.29-2.14,1.67-5.44-1.44-6.88a6.72,6.72,0,0,0-2.56-.14,2.23,2.23,0,0,0-2.58,1.73A2,2,0,0,0,626.83,41l-.31.56-.41-.46c1.06.36,1.22,1.38,1.73,2.14l.2,1.13,3-.57-.33-.58c-.13,0-.32.12-.33.11a16,16,0,0,1-1.81-3.42l-.94-1.59a1.53,1.53,0,0,0-1.9,0L625,39l.4-.29c-.79,1.56-1.31,3.24-2.13,4.82a.48.48,0,0,0,.21.7A.61.61,0,0,0,624.26,44Z"/><path d="M624.32,38.28c.24-.25.5-.48.47-.86l-.22-.17-.54.48C623.64,38.07,623.91,38.28,624.32,38.28Z"/><path d="M624.57,37.25l.23-.2-.29.13,0,0Z"/><path d="M665.42,160.06c1,1.55,2.14,3,3.22,4.49s2.16,3,3.33,4.45c2.35,2.87,4.62,5.83,7.15,8.58,1.24,1.39,2.46,2.81,3.74,4.18l3.91,4.05c.65.67,1.29,1.36,2,2l2,2,4.1,3.89c.38.34.76.54.86.46s-.15-.4-.5-.71a211.86,211.86,0,0,1-15.69-16c-2.51-2.74-4.77-5.69-7.11-8.55-1.17-1.42-2.21-3-3.31-4.43l-1.64-2.23c-.55-.73-1.08-1.48-1.57-2.26-.28-.4-.6-.67-.74-.64S665.17,159.67,665.42,160.06Z"/><path d="M747.58,239.77c-.37-.09-.4,0-.07.25a3.86,3.86,0,0,0,1.18.54c.32.08.36,0,.08-.24A4.36,4.36,0,0,0,747.58,239.77Z"/><path d="M741.16,245.59c-1.07-.39-2.13-.76-3.15-1.1s-2-.71-2.92-1a4.75,4.75,0,0,1-1-.46c0,.2-.42.15-1.2-.13-3.86-1.38-7.67-3.06-11.56-4.73-2-.82-3.85-1.8-5.79-2.71s-3.89-1.84-5.79-2.88L704,229.51c-1.92-1-3.79-2.17-5.69-3.26-3.83-2.15-7.5-4.57-11.25-6.88a1.79,1.79,0,0,1-.88-.07,18,18,0,0,1-5.37-3.19l-1.47-1.25c-1.52-1.18-3-2.51-4.42-3.76s-2.94-2.52-4.38-3.81l-4.23-4c-1.41-1.32-2.82-2.64-4.14-4a44.12,44.12,0,0,1-4.25-3.4c-1.35-1-2.63-2.11-3.92-3.21s-2.6-2.2-3.89-3.31-2.56-2.28-3.82-3.46l-3.77-3.58c.17.42.21.73.05.86-.44.19-1.84-.75-3-2.23l-1.86-2.18,2.5,3.27c.85,1.07,1.74,2.11,2.6,3.17a9.22,9.22,0,0,1,.67.86l3,3.34c1,1.11,2.14,2.17,3.23,3.25A204,204,0,0,0,680,217.19a254,254,0,0,0,32.32,18.22,4.25,4.25,0,0,1,1.19.7c.16.19.06.28-.36.11-14.33-5.81-27.28-10.83-42.34-20.76a234.48,234.48,0,0,1-25.77-19.61A226.52,226.52,0,0,1,621.54,172,336.09,336.09,0,0,1,601.88,143c-1.46-2.53-3-5-4.41-7.62s-2.79-5.23-4.2-7.87-2.62-5.42-3.94-8.19c-.32-.69-.66-1.38-1-2.08l-.9-2.14-1.82-4.31c-.4-1-.81-2-1.22-2.94s-.73-2-1.1-3c-.72-2-1.43-4-2.15-6l-.53-1.5-.46-1.51-.92-3c-.6-2-1.22-4-1.79-6.06l-.38-1.54-.19-.76-.09-.3-.31-1.06-.6-2.12c-.39-1.42-.77-2.84-1.15-4.25a163.39,163.39,0,0,1-3-17.45,8.61,8.61,0,0,1,.7-6.07,6,6,0,0,1,4.22-3.18,6.45,6.45,0,0,1,5.84,2.3v-1l.36-1.65a6.1,6.1,0,0,1,2.43-3.7l1.5-1.12c2.85-1.48,5.43-3.8,8.54-4.85l1.15.31.35-.27A5.57,5.57,0,0,1,600,38.45l1.41.15a14.31,14.31,0,0,1,4.51,1.52,5,5,0,0,1,1.72.31,7.06,7.06,0,0,1,4.66-.21,1,1,0,0,1,1.38.17.92.92,0,0,1,.18.49h0c.38-.18.49-.23.91-.46.15-.33.25-.52.25-.52.31-.88.31-.88.59-1.64a4.72,4.72,0,0,1,1.26-1c2.58-.57,2.58-.56,3.66-.38l.31.16c.4-.55.43-.59.55-.73a2.23,2.23,0,0,1,.45-.24c.59,0,.59,0,.81-.06a2.74,2.74,0,0,1,.44,0c.63.36.63.36.82.38a2.33,2.33,0,0,1,.31.2c.17.37.23.52.26.59l-1.58.69.51.2-.71.14.65-.07-.42.38.59-.42a3.13,3.13,0,0,0-.3,1.3,1.32,1.32,0,0,0,0,.76l.34,0c-.32,1-.32,1-.67,2a2.92,2.92,0,0,1-.43.22.4.4,0,0,1,.18.48l-.15.51a.83.83,0,0,1,.08.12h0l.27.44L623,44h0c.17.3.46.74,1.22,1.89a5.71,5.71,0,0,1-.31.85,2.37,2.37,0,0,1,.29-.25c.2-.16.75,0,.81-.09a45.72,45.72,0,0,0,2.75-6.59.79.79,0,0,1,.79-.79.8.8,0,0,1,.89.68A13.52,13.52,0,0,1,631,46.92a15.72,15.72,0,0,1-.66,3.74,18.48,18.48,0,0,1-.67,1.84,15.7,15.7,0,0,1-.75,1.81c-.26,1.24-.48,2.49-.69,3.75l.27-.2-.4,1a.41.41,0,0,0,0,.11l1-.81c.1-.17.19-.35.28-.52a17.2,17.2,0,0,1,1.19-4.2c.5-1.36,1.28-2.7,1.82-4a33.2,33.2,0,0,1,2.4-4,.76.76,0,0,1,.86-.54.64.64,0,0,1,.6.71,18.61,18.61,0,0,1-.5,6.89A14.64,14.64,0,0,1,632.59,59a4.28,4.28,0,0,1-.83,2.41v0l.79-.6c-.17.65-.82,1.05-1.07,1.66l1.1-.33c-.48,3.19-.05,6.52-1.2,9.67a2.14,2.14,0,0,1-.06.35,16,16,0,0,1,1.26,1.74c.09.15.17.31.25.47a.53.53,0,0,1,.06.13l.08.35c.06.24.11.49.16.73.18,1,.46,2,.64,3l-.18-2.16-.06-2.11c.39,1.48.79,3,1.18,4.45a45,45,0,0,1,.93,4.73c.83,4.41,1.35,9.22,1.81,13.59.1,1.09.16,2.17.2,3.21s.14,2,.16,3a25.71,25.71,0,0,1-.28,5,201.08,201.08,0,0,0,11,24.89,184.16,184.16,0,0,0,14.65,23.07,2.87,2.87,0,0,1,.81,1.84c-.15.24-.71-.11-1.29-.86-2.16-2.48-4-5.19-6-7.84-1-1.31-1.91-2.71-2.83-4.09l-2.75-4.16c-.88-1.41-1.71-2.86-2.56-4.29S646.8,134,646,132.52l-2.34-4.43-1.17-2.22-1.06-2.26A159.9,159.9,0,0,0,657,154c.85,1.21,1.67,2.45,2.61,3.61s1.69,2.4,2.47,3.64l1.63,2.25c.57.73,1.14,1.45,1.72,2.17l3.42,4.33c1.17,1.4,2.39,2.77,3.58,4.16s2.37,2.79,3.66,4.1l3.81,4c1.26,1.35,2.65,2.58,4,3.88s2.68,2.6,4.12,3.82l4.34,3.71c1.23,1.08,2.51,2.06,3.77,3l3.73,2.92c2.49,1.89,5,3.64,7.51,5.46s5.12,3.42,7.71,5.15,5.37,3.32,8.18,5c8,4.64,15.81,8.65,23.72,12.48s16,7.28,24.46,10.79c2.28.84,4.28,2,4.41,2.51s-1.66.28-4-.55c-9-3.24-17.92-6.83-26.6-10.84A279.32,279.32,0,0,1,720,216.06a216.21,216.21,0,0,1-23.73-16.57,183,183,0,0,1-21.48-20.08c-1.49-1.54-2.81-3.2-4.2-4.79s-2.77-3.16-4-4.83a.55.55,0,0,1-.14.26c-.27.24-.76.14-1.4-.2.74.94,1.44,1.91,2.21,2.83l2.31,2.76c1.53,1.85,3,3.75,4.67,5.53,9.76,9.29,20.19,17.8,31.49,26.76,7.81,6.1,15,11.6,22.7,16.82a298.38,298.38,0,0,0,31.94,15,2.85,2.85,0,0,1,1,.53c.12.15-.15.14-.6,0-1.94-.66-3.86-1.4-5.8-2.11L752,236.88c-1-.37-1.93-.78-2.9-1.18l-5.81-2.41-5.76-2.63c1,.9,1.57,1.64,1.27,2s-1.41.27-3-.19l5.15,2.67c1.06.58,1.84,1.13,1.71,1.32s-1.07,0-2.08-.56c-3.52-1.82-7.08-3.56-10.51-5.54-1.72-1-3.47-1.9-5.17-2.9l-5.07-3.06A248.34,248.34,0,0,1,696,209a6.39,6.39,0,0,1,1.46,2.67h0l3.58,2.61A365.31,365.31,0,0,0,774.9,250c.51.18.91.41.89.5s-.44,0-.9-.14c-3.94-1.45-7.91-2.8-11.78-4.38-2-.78-3.92-1.47-5.84-2.3l-5.77-2.42,0,0c.29.19.3.32-.07.24a4.58,4.58,0,0,1-1.21-.51c-.32-.21-.25-.3.07-.24a377.79,377.79,0,0,1-41.16-21,328,328,0,0,0,37.22,20.56c1.47.51,2.9,1.09,4.4,1.57a2.86,2.86,0,0,1,1,.57c.08.12-.25.1-.66-.05l-1.24-.42c2.46,1.08,4.21,2.28,4,2.74s-2.65-.06-5.24-1.17c-6.9-3-13.74-6.09-20.35-9.64l-2.19-1.06-2.3-.91a285.89,285.89,0,0,0,31.27,15.64c.92.38,1.65.84,1.61,1s-.86,0-1.79-.36a265,265,0,0,1-28.59-12,250.42,250.42,0,0,1-27.34-15.48c-3.15-1.53-6.22-3.21-9.39-4.82s-6.22-3.47-9.37-5.27c.68.59,1.42,1.13,2.14,1.69,2.32,1.74,4.58,3.47,6.9,5s4.66,3.05,7,4.51,4.69,2.72,7,4,4.71,2.48,7,3.72c9.44,4.77,19,9,29.08,13.39a2,2,0,0,1,.92.58c0,.12-.37.05-.88-.17-9.93-4.23-19.09-8.05-28.72-13l-5.89-3.1c-1.93-1.05-3.81-2.15-5.69-3.2l-2.82-1.57c-.93-.53-1.84-1.1-2.75-1.64L688,217.73l5.33,3.56c.89.58,1.76,1.18,2.66,1.73l2.72,1.64c1.81,1.07,3.61,2.16,5.42,3.2l5.51,3,2.75,1.48,2.8,1.39,5.59,2.8,5.67,2.64,2.83,1.34,2.88,1.27a7.59,7.59,0,0,1,1.71.92.76.76,0,0,1,.43.06c2,.65,4.15,1.48,6.37,2.24a3.13,3.13,0,0,1,1.09.59C741.93,245.76,741.64,245.74,741.16,245.59ZM617.47,54l.19-.15-.32.49-1.33.73Zm-5.06-8.34h0l.78-.38Zm32.43,88.49c-1.73-3.67-3.56-7.27-4.93-11.06-.7-1.88-1.47-3.73-2-5.65s-1.14-3.83-1.67-5.76c.75,1.79,1.49,3.57,2.24,5.35.92,2.88,2,5.7,3,8.59S643.72,131.3,644.84,134.17ZM622.69,48.4a13.45,13.45,0,0,1-2.55,1.88,3.62,3.62,0,0,1,.16,1.5c-.16,1.38-.21,2.74-.44,4.08.47-.2.43.12.49.28l.14.49c.3-1.43.58-2.86,1-4.3A28.4,28.4,0,0,1,622.69,48.4Zm-1.39-9.77.19-.11.72.3Zm-1.22-.48-.11.19C619.7,38.26,619.8,38.2,620.08,38.15ZM619,40a1.4,1.4,0,0,0,.41-.25Zm-21.73.56,3.65.94-3.5-1Z"/><path d="M632.79,187.07c-.17-.08-.33-.18-.49-.26.15-.29.49-.39.93-.38-4.82-1.88-9.22,1.33-11.4,5a2,2,0,0,0-1.61,2.5,2.43,2.43,0,0,0,2.74,1.69,3.52,3.52,0,0,1,.89.22,20.58,20.58,0,0,0,7.35,2.37l-1.68-.69a6.17,6.17,0,0,0,2.22.1l-.48-.58c2.78,1,5.63-.25,6.4-2.87a5.56,5.56,0,0,0-3.62-6.62Z"/><path d="M626.21,181.48c1.62.37,3.2.81,4.79,1.29l.4.33-.72-1.79v.12c-.68,1.86-2.46,3-4.15,4l-.56.44a1.48,1.48,0,0,0-.25,1.12,1.78,1.78,0,0,0,1.92,1.44l1-.12c2.76.37,6.55-.55,6.84-4a6.14,6.14,0,0,0-.87-2.45,2.45,2.45,0,0,0-2.83-1.78,2.12,2.12,0,0,0-1.62,2.69l-.7-.08.33-.56c0,1.14-1,1.68-1.61,2.46l-1.12.64,1.67,2.56.5-.54L629,187a18.52,18.52,0,0,1,3-3l1.32-1.49a1.44,1.44,0,0,0-.72-1.79l-1-.4.46.26c-1.93-.15-3.86,0-5.79-.15a.55.55,0,0,0-.64.48A.59.59,0,0,0,626.21,181.48Z"/><path d="M632.12,179.34a1.37,1.37,0,0,0,1.08.13c0-.16.07-.24.09-.28l-.71-.33C632.07,178.63,632,179,632.12,179.34Z"/><path d="M633.29,179.19l.29.14-.24-.22,0,0Z"/><path d="M539.41,218.54c-8.68,3.41-17.24,7.22-25.67,11.31-.28.14-.47.33-.42.44s.31.08.56-.06c8.45-4,17-7.82,25.65-11.22.29-.12.47-.31.45-.44S539.68,218.43,539.41,218.54Z"/><path d="M472.11,242.82c.15-.18.08-.26-.15-.19a1.67,1.67,0,0,0-.65.44c-.12.16-.05.25.15.19A1.63,1.63,0,0,0,472.11,242.82Z"/><path d="M469.54,235.43a33.31,33.31,0,0,0,2.74-2.66,1.58,1.58,0,0,1,.52-.36c-.16-.09,0-.36.33-.69,7.05-6.67,15.22-13.06,23.29-19.4a1.12,1.12,0,0,1,.14-.61,6.7,6.7,0,0,1,2.68-2.51l1-.52c3.89-2.23,7.76-4.46,11.7-6.55a16.62,16.62,0,0,1,2.44-2c3-2.57,6-5.16,9.16-7.63-.28,0-.49-.07-.58-.24-.15-.44.47-1.22,1.4-1.77l1.38-.87-4.16,2.13a3,3,0,0,1-.56.25c-1.47.88-2.93,1.8-4.39,2.78-6.39,4.24-12.35,8.75-18.06,13.35s-11.17,9.31-16.52,14.07a1.44,1.44,0,0,1-.68.42c-.16,0-.2-.11,0-.29,6.31-6.68,11.31-13.35,19.06-20.3,9.22-8.25,18.59-16.24,28.73-24,11.18-7,21.19-14.29,32.64-21.81q6.36-4.17,12.72-8c6.63-4.21,13.35-7.85,20.33-11.4,3.45-2.26,7.68-1.44,9.4,1.77a6.86,6.86,0,0,1-.06,6.28l.9-.35,1.55-.21a5.58,5.58,0,0,1,4.06,1.07l1.51,1.05c2.3,2.22,5.25,3.73,7.35,6.27l.15,1.2.36.23a5.61,5.61,0,0,1,2.64,2.43l.39,1.38a14.2,14.2,0,0,1,.27,4.81,5.24,5.24,0,0,1,.35,1.74,7,7,0,0,1,1.93,4.29,1,1,0,0,1,.34,1.37,1,1,0,0,1-.41.36h0a9.74,9.74,0,0,0,.79.69,4.92,4.92,0,0,1,.6,0l1.85-.06a4.92,4.92,0,0,1,1.47.81c1.58,2.21,1.58,2.21,1.83,3.3,0,.11,0,.23,0,.34.71.17.76.19,1,.25a2.56,2.56,0,0,1,.42.33c.22.56.22.56.39.73a2.51,2.51,0,0,1,.17.42c-.12.73-.12.73-.06.91a1.78,1.78,0,0,1-.08.37l-.51.47L632,177.88v.56l-.42-.61.32.58-.55-.25.66.4a3.78,3.78,0,0,0-1.46.2,1.56,1.56,0,0,0-.78.32,1.52,1.52,0,0,1,.15.31c-1.14.08-1.14.08-2.26.13a3.11,3.11,0,0,1-.38-.33.47.47,0,0,1-.43.37l-.58.05-.08.12v.05l-.35.42-.07.09h0l-1.54,1.81a5.54,5.54,0,0,1-1,0l.36.19c.23.14.27.71.38.73a41,41,0,0,0,7.91.13.91.91,0,0,1,1.15.44.79.79,0,0,1-.39,1.1c-3.9,4.23-10,5.42-15.88,4.76-1.42.13-2.83.32-4.24.51l.29.2-1.19-.07-.11,0,1.13.67.64.1c3.23-.57,6.58,0,9.9.15a42.58,42.58,0,0,1,5.27.87.81.81,0,0,1,.89.63.67.67,0,0,1-.57.8c-4.82,2-10.79,2.91-16,1a4.85,4.85,0,0,1-2.87-.06h0l.86.58c-.76,0-1.37-.48-2.1-.55l.63.95c-3.64.4-7.19,1.84-10.9,1.45a2.69,2.69,0,0,1-.4,0,18.25,18.25,0,0,1-1.67,1.62,4.06,4.06,0,0,1-.46.36l-.12.09-.22.11-.43.23c-.59.29-1.21.56-1.87.81l2.8-.58a26.06,26.06,0,0,1-5.64,2.62c-5.66,1.8-12.54,2.63-16.56,1.47-10.68,4.42-21.3,9.09-31.63,14.27a1.42,1.42,0,0,1-1.32.15c-.17-.19.08-.57.61-.84,7.16-4.2,14.69-8,22.32-11.59-6.75,2.24-13.47,4.69-20.12,7.61l-2.49,1.26a17.78,17.78,0,0,1-2.56,1A260.36,260.36,0,0,0,514,227.91c-6.95,4.14-12.93,7.92-19.65,12.36-9.44,6.25-17.91,12.08-27.49,17.91-1.24.82-2.59,1.3-3,1s.28-1.14,1.52-2c9.55-6.75,19-13.39,28.91-19.73a298.74,298.74,0,0,1,31.07-17.76c2.38-1.14,4.71-2.27,7.06-3.35a.68.68,0,0,1-.18-.2,1.09,1.09,0,0,1,.15-1.1c-2.68,1.2-5.38,2.43-8.13,3.6-7,4.37-14,8.76-21.87,12.75-5.41,2.75-10.5,4.94-15.6,7.38-5.93,3.92-11.75,8-17.67,12a1.1,1.1,0,0,1-.64.29c-.13,0-.05-.17.17-.35,3.84-3.12,7.87-6.2,12-9.23-.86.18-1.48.11-1.67-.28s.12-1.07.77-1.82l-3,1.85c-.61.38-1.18.54-1.28.36s.26-.66.84-1q6-3.84,12.08-7.53,7.05-4.82,14.26-9.39a3.51,3.51,0,0,1-2.05-.2h0l-2.25,1.39c-13.09,9.53-26.63,18.89-40.41,28.23-.27.19-.53.28-.59.21s.11-.27.35-.43l12.4-8.5h0c-.2.06-.29,0-.15-.19a2,2,0,0,1,.65-.44c.23-.07.27,0,.15.19,7.65-5.3,15.22-10.6,22.63-15.95L472,241.73l-2.11,1.86a1.13,1.13,0,0,1-.64.28c-.1,0,0-.21.2-.38L470,243c-1.35.87-2.6,1.24-2.86.81s.69-1.57,2.07-2.51q5.44-3.93,11-7.65l1.16-.87,1.07-1c-5.92,3.63-11.8,7.31-17.57,11.1-.48.34-1,.52-1.08.38s.19-.54.67-.88c9.5-7.65,19.4-15.05,29.63-22.1l8.95-9.06-1.36.83a142.78,142.78,0,0,0-15.37,11.7c-4.78,4-9.43,8.09-14.64,12-.26.21-.52.3-.61.25s0-.27.32-.46c5-3.91,9.37-7.91,14.31-12,4.08-3.37,8-6.52,11.74-9.81-8.25,5.71-15.58,12-23.41,18.08a2.82,2.82,0,0,1-1,.58.37.37,0,0,1-.12.25c-.87.92-1.85,1.86-2.89,2.78a1.17,1.17,0,0,1-.65.35C469.25,235.81,469.33,235.65,469.54,235.43ZM613.61,178.5l.2.14-.6-.16-1.14-1Zm6.69-7.6h0l.65.6Zm-63.54,36A91.69,91.69,0,0,1,571.19,202l-3.33,1.53ZM621,181.52a13.61,13.61,0,0,1-2.77-1.75,4.69,4.69,0,0,1-1.49.68c-1.45.37-2.9.64-4.35.87.34.38,0,.44-.15.55l-.47.28c1.57-.18,3.16-.3,4.78-.39A31.69,31.69,0,0,1,621,181.52Zm9.55-4.88.19.14,0,.79S630.68,177.18,630.59,176.64Zm0-1.33-.24,0C630.35,175,630.45,175.07,630.61,175.31Zm-2.23-.31a1.76,1.76,0,0,0,.4.3Zm-8.61-20.21.48,3.78-.36-3.67Z"/></svg>