<svg id="Layer_1" data-name="Layer 1" xmlns="http://www.w3.org/2000/svg" viewBox="0 0 1080 712.24"><path d="M322.61,82.78c.19,0,.39.07.58.11a1.22,1.22,0,0,1-.92.68c5.51.36,9.48-4.24,11.41-8.55a2.39,2.39,0,0,0,1.43-3,2.44,2.44,0,0,0-3.23-1.07,4.4,4.4,0,0,1-1,0,18,18,0,0,0-4.2-.6,21.89,21.89,0,0,0-4.31.4l2,.14a7.44,7.44,0,0,0-2.47.67l.62.44c-3.23-.06-6.23,2.33-6.56,5.28s2.07,5.37,5.26,5.43Z"/><path d="M330.64,86.45c-1.75.09-3.5.11-5.27.11l-.48-.21L326,87.93l0-.12c.34-2.08,2-3.82,3.61-5.29l.52-.63a1.62,1.62,0,0,0,.06-1.22,1.7,1.7,0,0,0-2.29-.91l-1.09.45c-3,.48-6.95,2.72-6.52,6.26.12.81.91,1.46,1.45,2.16a2.51,2.51,0,0,0,3.36.89,2.38,2.38,0,0,0,1.15-3.18l.75-.14-.24.67c-.25-1.14.72-2,1.23-3l1.06-1-2.24-2.13-.44.71.31.2a25.29,25.29,0,0,1-2.58,4L323,87.6a1.34,1.34,0,0,0,1.13,1.57l1.08.11-.53-.13c2-.43,4-1.15,6.07-1.54a.64.64,0,0,0,.58-.66A.58.58,0,0,0,330.64,86.45Z"/><path d="M324.91,90.33a1.51,1.51,0,0,0-1.15.2c0,.17,0,.25,0,.3l.81.11C325.11,91,325.16,90.67,324.91,90.33Z"/><path d="M323.72,90.83l-.34,0,.3.15s0-.05,0-.05Z"/><path d="M526.06,36.51l9.61.61,4.81.31,4.79.44,9.57.9,9.53,1.17,4.77.59,4.74.72,9.48,1.45,9.42,1.72,4.71.86,4.68,1a3.14,3.14,0,0,0,1.62.11c.06-.1-.57-.34-1.34-.5l-4.69-1L593.05,44l-9.42-1.73-9.47-1.47-4.73-.73-4.76-.59-9.52-1.19-9.56-.91-4.78-.45-4.8-.31L526.38,36a3.68,3.68,0,0,0-1.69.21C524.65,36.35,525.25,36.48,526.06,36.51Z"/><path d="M706.24,89.68c-.58-.16-.6-.05-.06.26a10.22,10.22,0,0,0,1.87.8c.48.14.51,0,.06-.25A10.18,10.18,0,0,0,706.24,89.68Z"/><path d="M698.29,95c-3.24-1.1-6.33-2.08-9.13-2.85a9.85,9.85,0,0,1-1.49-.58c.12.23-.54.14-1.71-.22C662.73,84.43,637.58,78,612.42,74.22a2.75,2.75,0,0,1-1.15.25,21.05,21.05,0,0,1-3.79-.15c-1.55-.17-3.33-.37-5.13-.71l-2.69-.55c-10.92-2.08-21.92-3.47-32.89-4.82-2.28.1-4.9.1-7.75,0-2.39,0-4.78,0-7.18.08l-7.2.26c-4.8.09-9.61.48-14.47.74.61.15,1,.34,1,.54-.2.49-2.44.86-5,.86l-4,.19c3.78-.09,7.56.07,11.33.18.54,0,1,0,1.5.07,4.14-.07,8.34.08,12.61.15A510.62,510.62,0,0,1,654.73,84.19a8.68,8.68,0,0,1,1.91.58c.31.18.21.29-.43.16-5.51-1-10.82-2-16.14-2.68l-7.92-1.07-8-.83c-5.32-.64-10.78-1-16.4-1.49-2.81-.28-5.7-.39-8.63-.62s-5.94-.52-9-.64A415.82,415.82,0,0,0,546.17,77a402,402,0,0,0-43.73,3.88,304.45,304.45,0,0,0-44.24,7.79c-3.56,1-7.15,1.83-10.69,2.89L436.88,94.8,426.3,98.52c-1.79.58-3.51,1.35-5.28,2l-5.3,2.09c-2.42.89-4.74,2-7.08,3s-4.66,2-6.95,3l-6.76,3.27-3.37,1.61-3.27,1.74-1.63.86-.81.44-.22.13-.72.45-1.44.88c-1,.6-2,1.13-2.88,1.74-1.88,1.21-3.76,2.37-5.66,3.51s-3.82,2.23-5.66,3.48c-2.55,2.19-6.42,1.5-8.68-1.49a7.27,7.27,0,0,1-1.26-6.08l-.75.4-1.38.3a5.43,5.43,0,0,1-2,0,5.6,5.6,0,0,1-1.92-.68l-1.6-.83c-2.6-1.87-5.67-2.88-8.25-5l-.43-1.14-.39-.15a6.11,6.11,0,0,1-3.09-1.86l-.7-1.26a13.89,13.89,0,0,1-1.37-4.62,4.78,4.78,0,0,1-.73-1.63A7,7,0,0,1,333.84,99a1,1,0,0,1-.64-1.27,1.18,1.18,0,0,1,.33-.46h0c-.38-.21-.49-.27-.94-.48-.39.08-.62.11-.62.11-1,.3-1,.3-1.85.54a5,5,0,0,1-1.68-.4c-2.11-1.74-2.11-1.73-2.61-2.73a2.16,2.16,0,0,1,0-.35l-1.05,0a2.57,2.57,0,0,1-.51-.2c-.35-.48-.35-.48-.57-.61a2.71,2.71,0,0,1-.28-.36c0-.75,0-.75-.13-.91a2,2,0,0,1,0-.38l.42-.62,1.66.81-.11-.55.57.48-.46-.48.63.09-.78-.2a4.53,4.53,0,0,0,1.47-.63,2,2,0,0,0,.74-.55,2.37,2.37,0,0,1-.22-.27c1.18-.41,1.18-.41,2.33-.78l.47.22a.52.52,0,0,1,.36-.48l.59-.22.07-.15,0,0,.29-.52.06-.12h0l1.26-2.28a7.31,7.31,0,0,1,1.05-.26l-.41-.1c-.27-.08-.41-.65-.53-.64a40.75,40.75,0,0,0-8.34,2.2,1,1,0,0,1-1.3-.08.84.84,0,0,1,.18-1.23,18.81,18.81,0,0,1,6.91-6.55,25.31,25.31,0,0,1,9.28-2.7c1.51-.46,3-1,4.49-1.46l-.33-.15c.42-.06.84-.13,1.27-.16l.13,0-1.29-.5c-.24,0-.47,0-.7,0-3.4,1.3-7.09,1.43-10.74,2.18a19.6,19.6,0,0,1-2.94.33c-1,.09-1.93.15-2.91.29a.8.8,0,0,1-1.08-.36.83.83,0,0,1,.49-1c.62-.45,1.26-.9,1.91-1.33s1.36-.78,2.07-1.14a30.36,30.36,0,0,1,4.38-1.81,19.22,19.22,0,0,1,9.06-.92,5.43,5.43,0,0,1,3.15-.44h.05l-1-.47c.84-.16,1.55.28,2.35.23l-.77-.91c2-.52,3.92-1.31,5.87-2a28.63,28.63,0,0,1,2.93-.85,15.39,15.39,0,0,1,3-.27,3.32,3.32,0,0,1,.44-.06,20.14,20.14,0,0,1,1.78-1.92c.16-.15.33-.29.5-.43a.73.73,0,0,1,.15-.11l.64-.31,1.28-.61c1.73-.81,3.52-1.64,5.41-2.4L361.38,62l0,0,.11-.06.25-.12.5-.25,1-.5,2-1c1.34-.64,2.67-1.33,4.07-1.88C372.11,57.05,375,56,378,54.9c4-1.5,8.3-2.6,12.5-3.72,2.1-.53,4.18-1.09,6.25-1.52s4.12-.79,6.1-1.13A85.71,85.71,0,0,1,422.44,47a426.08,426.08,0,0,1,47.79-8.2l12-1.21,12-.83c1-.07,2-.15,3-.2l3-.11,6-.21c2-.07,4-.18,6-.2l6,0a8,8,0,0,1,3.44.47c.17.27-.92.52-2.57.54a472.46,472.46,0,0,0-69.2,6.8,509.44,509.44,0,0,1,58.81-3.89c2.53-.14,5.08-.13,7.63-.15s5,.07,7.51.2c1.59,0,3.17.05,4.74.13l4.71.2,4.69.2c1.56.06,3.11.13,4.66.27,6.2.48,12.36.84,18.51,1.56,12.32,1.15,24.61,3,37.31,5l8,1.41c2.63.46,5.24.9,7.79,1.46L622,51.73c1.26.27,2.53.51,3.78.79l3.75.89c5,1.18,10,2.31,15,3.71l7.63,2L660,61.42a413.85,413.85,0,0,1,82.09,33.8c3.53,1.94,6.63,4.07,6.83,4.7s-2.53-.43-6.07-2.35Q721.88,86.7,700,78l-5.47-2.15c-1.82-.72-3.64-1.44-5.49-2.08l-11.07-4-11.19-3.69c-3.74-1.21-7.53-2.27-11.3-3.42A536.61,536.61,0,0,0,561,44.16l-5.29-.58c-1.76-.18-3.52-.28-5.27-.43-3.51-.26-7-.56-10.48-.8.08.1.16.19.16.28,0,.37-.69.69-1.81.93,2,.07,4,.25,5.93.42l5.94.51c4,.3,7.92.81,11.88,1.31,22.12,1.52,44.25,4.62,67.05,10.83l5.79,1.62c1.91.53,3.8,1.07,5.64,1.68l10.93,3.55,10.58,3.83c1.76.62,3.5,1.29,5.23,2l5.2,2a464.53,464.53,0,0,1,52.73,21.12,6.93,6.93,0,0,1,1.6.89c.21.2-.2.1-.91-.2-12-5.29-24.51-10.23-37.24-14.83,1.88,1,2.89,2,2.58,2.31s-2,.12-4.47-.46c2.87,1,5.67,2.28,8.51,3.42,1.74.72,3.05,1.45,2.91,1.64s-1.59-.18-3.25-.85c-5.73-2.41-11.58-4.54-17.39-6.72-2.91-1.1-5.87-2-8.8-3.07s-5.87-2-8.84-2.95c-14.29-4.31-28.75-7.8-43.39-10.75a12.8,12.8,0,0,1,4,2.17h0c2.26.44,4.49,1,6.72,1.53A417.53,417.53,0,0,1,688.59,82,432.06,432.06,0,0,1,747.5,109.2c.75.41,1.33.8,1.3.9s-.65-.16-1.32-.53c-11.46-6.4-23.23-12.18-35.14-17.51l0,0c.46.26.5.41-.06.25a11.46,11.46,0,0,1-1.88-.81c-.52-.31-.43-.39,0-.26l-8.38-3.56c-2.81-1.17-5.65-2.22-8.47-3.33-5.62-2.26-11.36-4.16-17-6.17-11.46-3.74-22.94-7.2-34.54-9.89A431.11,431.11,0,0,1,704.6,90.1l6.8,2.52a7.48,7.48,0,0,1,1.6.84c.14.16-.35.05-1-.19l-1.89-.72c1,.42,1.84.85,2.63,1.25s1.47.82,2,1.18c1.12.72,1.73,1.26,1.59,1.49-.44.41-3.82-.78-7.8-2.45l-8-3.33c-2.68-1.09-5.38-2.1-8.07-3.15-5.35-2.15-10.81-4-16.22-6-1.18-.4-2.37-.77-3.56-1.12l-3.66-.91a478.7,478.7,0,0,1,49.45,20.34c1.39.63,2.51,1.3,2.46,1.48s-1.24-.18-2.63-.81c-14.35-6.15-29-11.7-44-16.5s-30.23-8.89-45.66-12.27l-7.74-1-7.8-.78c-5.19-.58-10.44-.86-15.71-1.22l3.94.68c16.8,2.78,32.36,5.56,47.69,9A344.73,344.73,0,0,1,695,92a4.3,4.3,0,0,1,1.47.74c0,.12-.52,0-1.31-.3A371.84,371.84,0,0,0,650,79.24a354.87,354.87,0,0,0-37.57-6.95c12.38,2.11,24.43,4.7,36.42,7.52l9,2.26c1.5.37,3,.78,4.47,1.21l4.45,1.27c6,1.63,11.85,3.62,17.81,5.56a13.75,13.75,0,0,1,2.67,1.1,1.44,1.44,0,0,1,.62.09c3,.86,6.29,1.9,9.61,3a6.07,6.07,0,0,1,1.69.8C699.41,95.31,699,95.24,698.29,95Zm-354-8.35-.23-.11.64.06,1.33.87Zm-5.55,9h0l-.77-.46Zm130.38-52.9L458.69,44c-1.72.21-3.46.38-5.18.61l-5.16.74c-3.44.51-6.9.88-10.34,1.43s-6.87,1.08-10.33,1.58l9.94-2.21,1.95-.32,2-.25,3.93-.5,7.85-1Q461.19,43.37,469.08,42.77ZM336,85.05a12.85,12.85,0,0,1,3.2,1.2,4.91,4.91,0,0,1,1.45-1,45.3,45.3,0,0,1,4.41-1.74c-.42-.34-.06-.46.07-.6l.46-.38c-1.61.47-3.25.91-4.94,1.33A39.58,39.58,0,0,1,336,85.05Zm-8.95,7.51-.22-.08-.14-.79S326.87,92.06,327.07,92.56Zm.27,1.32.26,0C327.68,94.13,327.56,94.08,327.34,93.88Zm2.36-.31a1.53,1.53,0,0,0-.48-.18Zm13,17.91-1.33-3.59,1.19,3.51Z"/><path d="M537.32,502.84c.15.23.31.45.45.67a2.89,2.89,0,0,1-1.52-.77,25.67,25.67,0,0,0,4.26,4.08,40.77,40.77,0,0,0,4.89,3,35.53,35.53,0,0,0,5,2.15,40.17,40.17,0,0,0,4.64,1.52c1.69,1.3,3.48,2,4,1.36s-.4-2.44-2.11-3.91a13.22,13.22,0,0,1-1-1.19,45.87,45.87,0,0,0-3.49-5c-1.34-1.63-2.81-3.39-4.43-5.16.57.81,1.16,1.65,1.74,2.45a23.87,23.87,0,0,0-2.95-2.91c.06.25.13.57.19.83a22.74,22.74,0,0,0-5.5-5A8.86,8.86,0,0,0,536,493.3c-3.07.46-3,4.31,0,7.92Z"/><path d="M541.75,512.66c-1.81-1.74-3.53-3.6-5.26-5.52l-.28-.59-.38,1.76.08-.09a8.79,8.79,0,0,1,4,.47,31.1,31.1,0,0,1,4.43,1.72l1.07.42a1.18,1.18,0,0,0,1.18-.21c.49-.54-.13-1.77-1.39-2.77-.49-.39-1-.75-1.46-1.11a32.26,32.26,0,0,0-2.9-2.42,21,21,0,0,0-3.32-2.11c-2.25-1.08-4.43-1.61-5.89-.67-.66.43-.5,1.58-.62,2.46-.47,1.13.64,2.91,2.44,3.95s3.63,1,4.1,0l.87.78-.86,0c.82-.65,2.55.13,4,.36l1.94.84-.23-3-1.08-.28c0,.15.13.39.12.39-2.07-.44-4-.91-6.2-1.57l-2.83-.46c-.84.13-1,1-.37,1.83l.95,1.19-.4-.61c1.21,1,2.47,1.86,3.73,2.86s2.49,1.92,3.67,2.88a1.31,1.31,0,0,0,1.17.36C542.2,513.36,542.13,513,541.75,512.66Z"/><path d="M532.51,508.12a3.5,3.5,0,0,0-1.32-1.13l-.32.09.69.9C532.06,508.62,532.43,508.52,532.51,508.12Z"/><path d="M530.87,507.08l-.29-.39c0,.14.11.26.16.39h.13Z"/><path d="M662.89,555.77c-.8-2.83-1.7-5.73-2.75-8.74-.26-.76-.52-1.51-.81-2.27l-.9-2.44q-.95-2.58-2-5.08c-2.72-6.7-5.73-12.9-9-19.34l-5.19-10.23-1.42-2.8-1.45-2.95-1.5-3.09-.79-1.66-.91-2c-1.12-2.51-2.1-4.87-3-7.24s-1.8-4.7-2.62-7c-1.65-4.69-3.12-9.39-4.45-14.12-.35-1.27-.85-2.28-1.13-2.26s-.18,1.05.16,2.23q2,7.13,4.43,14.17c1.66,4.73,3.42,9.35,5.61,14.33l.89,1.95.83,1.76,1.5,3.11,1.45,3c.48,1,1,1.89,1.42,2.8l5.19,10.21c3.25,6.4,6.24,12.53,9,19.16,1.33,3.25,2.7,6.94,3.71,9.74,1.05,3,2,5.85,2.78,8.65.26.75.6,1.34.85,1.41S663.1,556.49,662.89,555.77Z"/><path d="M675.71,310.9c-.4.72-.23.81.4.22a11.28,11.28,0,0,0,1.77-2.24c.34-.61.15-.73-.39-.22A11.06,11.06,0,0,0,675.71,310.9Z"/><path d="M683.34,325.13a86,86,0,0,0-5.14,11.47,9.29,9.29,0,0,1-.9,1.87c.4-.08.3.83-.25,2.33-1.43,3.65-2.48,7.45-3.67,11.18-.51,1.89-.94,3.81-1.43,5.7-.23.95-.5,1.88-.71,2.84l-.53,2.88c-.34,1.92-.76,3.81-1.05,5.73s-.59,3.83-.74,5.78l-.29,2.89c-.1,1-.13,1.94-.2,2.91-.16,1.94-.21,3.89-.27,5.83a167.12,167.12,0,0,0,5.75,46.59,3,3,0,0,1,1.24,1.11c1.5,1.91,3,6,4,10.36l.67,3.34a168.28,168.28,0,0,0,6.09,19.47c.59,1.53,1.21,3.06,1.79,4.39l.46,1.06.56,1.22,1.16,2.51c1.6,3.39,3.27,7,4.92,10.83a64.53,64.53,0,0,1,5.66,10.45,171.47,171.47,0,0,1,8.95,20.77c.6,1.77,1.23,3.56,1.81,5.35l.85,2.68c.28.9.56,1.78.83,2.78a112.13,112.13,0,0,1,2.79,12c.13-1.1.36-1.8.7-1.86.86.15,2,4,2.18,8.71.13,2.39.19,4.8.14,7.22a117.13,117.13,0,0,0-.84-20.46c-.14-1-.24-1.84-.32-2.64-.31-1.78-.67-3.55-1-5.3s-.75-3.27-1.12-4.91-.84-3.29-1.27-4.94-.93-3.32-1.41-5a166.16,166.16,0,0,0-7.93-21.17c-3.08-6.71-6.47-12.91-9.49-18.14l-2.1-3.68c-.53-.9-1.14-2-1.72-3.18-1.18-2.29-2.35-4.72-3.45-7.18-2.23-4.93-4.24-10-6-15.18a200.92,200.92,0,0,1-8.22-31.36,151.14,151.14,0,0,1-2.35-31.91,5.27,5.27,0,0,1,.4-2.37c.26-.36.51-.23.5.55a107.71,107.71,0,0,0,2.2,19.61,164.53,164.53,0,0,0,4.94,18.49c1,3,2.09,6.08,3.2,9.12s2.36,6.1,3.63,9.2q3.82,9.25,8.56,18.95c.94,1.91,1.92,3.78,2.92,5.59s2,3.56,3,5c.23.36.47.7.65.93.26.39.6.94.9,1.41l1.92,3c1.38,2.14,2.71,4.38,4.16,6.84s2.82,5,4.24,7.69,2.71,5.49,4,8.35a176.53,176.53,0,0,1,6.64,17.63c1,3,1.82,6,2.65,8.95L727,524c.4,1.61.81,3.28,1.16,5a111.72,111.72,0,0,1,2.65,21.36,109.57,109.57,0,0,1-1.93,23.18c-.39,2-.8,3.93-1.32,5.9-.26,1-.49,1.94-.8,3l-.95,3.09a89.84,89.84,0,0,1-4.78,11.88,90.86,90.86,0,0,1-14.9,20.56,96.8,96.8,0,0,1-18.1,14.64,104.32,104.32,0,0,1-39.93,14.65,80.36,80.36,0,0,1-20.79.42A72.55,72.55,0,0,1,617,645.69c-1.71-.47-3.38-.93-5-1.54l-1.25-.42-.63-.22-.76-.29c-1-.39-2-.78-3-1.22s-1.9-1-2.83-1.49-1.76-1.13-2.63-1.69a24.88,24.88,0,0,1-2.43-1.83l-1.16-1c-.37-.33-.71-.67-1.06-1a45.29,45.29,0,0,1-6.94-8.61,70.74,70.74,0,0,1-7.92-18.22c-.62-2.06-1.13-4.23-1.56-6.22s-.87-4-1.31-6c-.85-4-1.69-8.05-2.62-12a75.92,75.92,0,0,0-3.25-11,34.17,34.17,0,0,0-4.83-8c-.5-.49-.91-1-1.41-1.41l-.94-.82c-.22-.2-.52-.37-.77-.56a14.73,14.73,0,0,0-1.57-1,33,33,0,0,0-3.35-1.72l-1.78-.71c-.61-.22-1.27-.41-1.88-.61s-1.25-.38-1.91-.55-1.28-.33-2-.46c-1.42-.25-2.66-.56-4.16-.7l-2.13-.25-2.25-.16c-.57,0-1.11,0-1.63-.09s-1.07-.11-1.55-.2a9.53,9.53,0,0,1-2.5-.82c-1.47-.67-2.23-1.79-2-3.11.31-1.61,2-3.07,4.43-3.78l-1.17-.18-1.73-.54a8.9,8.9,0,0,1-1.13-.47,6.41,6.41,0,0,1-1-.54,4.44,4.44,0,0,1-1.39-1.41l-.9-1.36a21.86,21.86,0,0,0-2.06-3.8,14.67,14.67,0,0,1-1.84-4.15l.65-.95-.26-.36a4.54,4.54,0,0,1-1.42-3.26l.49-1.24a9.37,9.37,0,0,1,3.05-3.56,2.93,2.93,0,0,1,.81-1.4,4.24,4.24,0,0,1,.69-4.26.67.67,0,0,1,.56-1.14,1.92,1.92,0,0,1,.77.11h0a9.55,9.55,0,0,0-.49-1.08l-.73-.53c-1.27-.76-1.27-.76-2.37-1.44a7.46,7.46,0,0,1-1.3-1.78c-.45-2.86-.45-2.89,0-3.84a1.53,1.53,0,0,1,.3-.19c-.8-.77-.86-.84-1.07-1.06a4.39,4.39,0,0,1-.32-.62c.12-.59.12-.59,0-.87a2.19,2.19,0,0,1,.07-.46c.68-.37.68-.37.74-.54a1.27,1.27,0,0,1,.36-.16l1,.19c.86,2.07.86,2.08.86,2.08l.41-.35.11.79v-.67l.53.68-.57-.89a9.83,9.83,0,0,0,2,1.25,4.36,4.36,0,0,0,1.24.53,1.23,1.23,0,0,1,0-.33c1.53,1.05,1.53,1.08,3,2.14a5.06,5.06,0,0,1,.25.55,1,1,0,0,1,.82.2l.78.52.2,0v0l.77.12h.16v0c.53.07,1.3.2,3.32.67.46.34.87.68,1.25,1-.1-.15-.21-.3-.3-.45-.19-.3.19-.59.07-.72-.75-.73-1.55-1.46-2.37-2.17s-1.66-1.36-2.52-2c-1.72-1.28-3.5-2.73-5.27-4-.68-.31-1.22-1-1.19-1.43s.62-.58,1.32-.25a27.3,27.3,0,0,1,6.35,2.17,39.55,39.55,0,0,1,6.33,3.65A65.87,65.87,0,0,1,559.74,520c.91.8,1.82,1.71,2.73,2.54s1.81,1.64,2.7,2.57l-.18-.39,1.3,1.53.14.15-.75-1.52L565,524c-1-1-2.07-2-3.07-3l-1.49-1.53L559,518c-1-1-2-2-3-3.07s-2-2-3-3-2.15-2.18-3.15-3.23-2-2.19-3-3.3c-.59-.47-.9-1.06-.71-1.34s.82-.09,1.4.38a74.78,74.78,0,0,1,11.8,9.15c.93.87,1.83,1.74,2.68,2.61s1.69,1.85,2.46,2.75,1.5,1.81,2.17,2.74,1.29,1.87,1.85,2.77a21.18,21.18,0,0,1,1.77,1.92,18,18,0,0,1,1.4,2l0,.07c-.16-.41-.32-.79-.48-1.2.86,1.08,1.11,1.91,1.84,2.92,0-.27.06-.58.09-.84l3.18,4c1,1.4,2.05,2.83,3,4.25a42.08,42.08,0,0,1,4.56,9.06l.27.68a32.1,32.1,0,0,1,2,3.58c.16.32.3.65.43,1l.11.3.36,1.09a22.5,22.5,0,0,1,.63,2.21c.19.75.38,1.52.53,2.26l.39,2.2c.13.72.2,1.49.29,2.24s.17,1.51.21,2.27a56.25,56.25,0,0,0-.69-6.2c-.14-1-.43-2.14-.66-3.23-.11-.55-.27-1.09-.43-1.63l-.42-1.45.51,1.55c.19.57.36,1.15.5,1.74.29,1.17.59,2.36.75,3.46s.39,2.22.51,3.36.21,2.25.28,3.37a113.93,113.93,0,0,1-.39,12.75,50.62,50.62,0,0,0,1.3,15.72c.32,1.26.64,2.53,1.07,3.76.2.62.39,1.24.59,1.85s.45,1.16.67,1.73a49.07,49.07,0,0,0,3.1,6.43,35.34,35.34,0,0,0,7.67,9.31,24.17,24.17,0,0,0,6.83,4l.66.15c.21,0,.44,0,.66.07.44,0,.85.12,1.28.1l1.26,0,1.62-.06a46.51,46.51,0,0,0,6.55-.81c1.09-.25,2.16-.43,3.23-.74l1.59-.43,1.57-.5c1.05-.31,2.08-.72,3.11-1.08s2-.82,3-1.25A62.29,62.29,0,0,0,646.05,610a54.94,54.94,0,0,0,9.25-8.59,48.62,48.62,0,0,0,6.62-9.81,40.68,40.68,0,0,0,3.54-10.06,31.27,31.27,0,0,0,.49-9.36l-.11-1.1-.14-1.23c-.12-.83-.23-1.64-.4-2.46-.29-1.64-.71-3.3-1.17-5a10.18,10.18,0,0,1-.34-1.88,1.41,1.41,0,0,1,.24-1c.39-.18,1.07.73,1.48,2.17a54,54,0,0,1,1.78,7.39,42,42,0,0,1,.6,7,37.49,37.49,0,0,1-3.55,14.83c-4.68,10.11-14.07,19.82-25.73,25.49a60.76,60.76,0,0,0,24.13-19.7A47,47,0,0,0,669.2,584a36.82,36.82,0,0,0,1.51-6.42c.21-1,.23-2.13.35-3.17l0-1.57,0-.78v-.86a52.17,52.17,0,0,0-.81-7c-.41-2.39-.81-4.75-1.22-7.1-.77-3-1.65-6.11-2.68-9.22-.53-1.55-1-3.12-1.64-4.69L662.83,538c-1.34-3.39-2.77-6.69-4.25-9.92s-3.08-6.39-4.72-9.56c-3.28-6.36-7-12.72-11.12-20.69l-.79-1.51-.85-1.68c-.62-1.24-1.19-2.41-1.72-3.56-1.07-2.31-2.07-4.56-3-6.82-1.91-4.52-3.66-9.06-5.3-13.68q-2.09-5.92-3.83-11.77c-1.13-3.92-2.19-7.81-3.1-11.72s-1.69-7.83-2.4-11.75c-.34-2-.64-3.94-1-5.91s-.51-4-.73-6c-.41-4-.74-8-.92-12s-.18-8.15,0-12.28A154.86,154.86,0,0,1,626.62,356c1-2.85,2.09-5.67,3.15-8.48l.8-2.09.91-2c.62-1.35,1.23-2.69,1.84-4a156.76,156.76,0,0,1,18-29.32A171.26,171.26,0,0,1,701,267.31c2.53-1.46,5.08-2.7,7.07-3.6a14.27,14.27,0,0,1,4-1.33c.92.07-2.53,2.28-7.47,5.25A177.16,177.16,0,0,0,654.11,314l-2.56,3.63c-.83,1.23-1.72,2.42-2.48,3.7-1.57,2.54-3.17,5.07-4.7,7.65l-4.24,8c-1.34,2.72-2.55,5.52-3.79,8.31l-.92,2.1-.8,2.16L633,353.85c-.51,1.46-1.1,2.88-1.54,4.37l-1.33,4.44c-.47,1.48-.8,3-1.2,4.48s-.77,3-1.06,4.52L627,376.2l-.76,4.56a163.36,163.36,0,0,0-1.5,36.66q.63,9.09,2.13,18.06c1,6,2.23,11.87,3.72,17.71s3.23,11.62,5.18,17.36,4.11,11.42,6.64,17.2c.64,1.45,1.3,2.91,2,4.45l.57,1.19.52,1,1,2c1.31,2.55,2.59,5,3.84,7.38,2.48,4.73,4.77,9.07,6.93,13.46a210.7,210.7,0,0,1,9.79,23,.81.81,0,0,1,.39-.33c.62-.21,1.52.44,2.41,1.48-1.48-4.48-3.12-9.08-4.88-13.48s-3.63-8.78-5.61-13.17c-3.32-5.86-7-11.67-10.8-18.52l-1.45-2.6-.36-.66-.42-.79-.79-1.54c-1-2-1.94-4-2.82-5.9-1.77-3.89-3.37-7.79-4.85-11.76A170.54,170.54,0,0,1,627,422.39a145.33,145.33,0,0,1,.18-18.1c.19-3,.54-5.9.88-8.8.19-1.45.44-2.9.66-4.33s.48-2.87.77-4.29a144,144,0,0,1,10.41-32.64,156.38,156.38,0,0,1,19.47-37.38A173.7,173.7,0,0,1,687,286.28a9.78,9.78,0,0,1,2.1-1.59c.4-.15,0,.32-.74,1.08a179.54,179.54,0,0,0-19.24,21A168.48,168.48,0,0,0,653,331.35c2.21-2.38,3.87-3.57,4.51-2.93s.14,3.08-1.14,6.47l3.36-5.65c.57-.93,1.11-1.89,1.71-2.8l1.82-2.72c1.53-2.22,3-3.8,3.31-3.5s-.54,2.25-1.94,4.36l-1.81,2.76c-.6.93-1.13,1.9-1.7,2.85-1.11,1.91-2.26,3.8-3.33,5.73-2,4-4.14,7.85-5.83,12a142.16,142.16,0,0,0-8.51,25.42c-4.16,21.17-3.42,42.81.69,63.53.29-3,.89-5.29,1.82-6.46h0c-.48-3.2-.89-6.39-1.2-9.59A146.22,146.22,0,0,1,645,376a135.34,135.34,0,0,1,14.94-43l2.78-5,3-4.84c1-1.62,2-3.23,3.16-4.76l3.31-4.65A184.82,184.82,0,0,1,687,296.4a211.48,211.48,0,0,1,34.69-28.93,7.45,7.45,0,0,1,1.9-1.07c.08.06-.63.63-1.51,1.22a208,208,0,0,0-40.81,36l0-.05c.57-.48.81-.46.38.22a13.67,13.67,0,0,1-1.87,2.17c-.65.56-.76.38-.39-.21-10.9,13.05-20.13,27.74-26.25,43.74-1.68,3.94-2.8,8.08-4.11,12.14-.6,2.05-1.07,4.14-1.6,6.2s-.88,4.17-1.27,6.26a139.19,139.19,0,0,0-2.11,25.2,141,141,0,0,1,9-45.68,153.48,153.48,0,0,1,10.06-21c1.85-3.4,4-6.59,6.11-9.82,1-1.63,2.23-3.14,3.33-4.71s2.22-3.14,3.45-4.62c1.88-2.77,3.7-5.58,5.8-8.26a8.42,8.42,0,0,1,1.81-1.76c.28-.1,0,.52-.61,1.27s-1.13,1.5-1.7,2.24a44.81,44.81,0,0,1,5.15-5.18c1.45-1.16,2.47-1.71,2.76-1.39s-.35,1.64-1.47,3.33a63.57,63.57,0,0,1-4.51,6.22c-9.56,12.62-17.81,26.24-23.52,40.93l-1.67,4.83-1,5.05A153.88,153.88,0,0,1,672.8,328a200.14,200.14,0,0,1,22.1-28.71c1.4-1.54,2.76-2.69,3-2.52s-.7,1.57-2.08,3.12c-13.49,16.32-24.44,34.79-30.91,54.52-6.66,19.65-8.17,40.52-6.09,61A183.75,183.75,0,0,0,673,453.83c-.46-1.63-.93-3.28-1.4-4.93a281.39,281.39,0,0,1-7-30.82A177,177,0,0,1,662,387.91a133.62,133.62,0,0,1,1-15.06c.11-1.26.37-2.5.55-3.76s.37-2.51.67-3.75c.55-2.49,1.06-5,1.69-7.53a125.24,125.24,0,0,1,12.1-29.61,3.67,3.67,0,0,1,1.36-1.71c.23,0,0,.72-.59,1.7a122.56,122.56,0,0,0-11.49,28.75l-.5,1.81-.39,1.83-.76,3.67c-.56,2.42-.89,4.89-1.27,7.35-.61,4.94-1,9.93-1.18,15A147.32,147.32,0,0,0,670,434.37c-3.43-15.48-5.41-30.89-5-46.33.06-1.93.18-3.85.28-5.79s.28-3.85.55-5.77.44-3.85.8-5.75l.49-2.88c.18-1,.42-1.9.62-2.85l1.32-5.75,1.71-5.69c.51-1.93,1.25-3.78,1.95-5.67l1.06-2.83.54-1.41.61-1.39a14.42,14.42,0,0,1,1.8-3.29,1.41,1.41,0,0,1,.1-.85,55.08,55.08,0,0,1,2.37-6l1.36-3.09c.49-1,1-2,1.57-3.07a6.64,6.64,0,0,1,1.44-2C683.9,323.67,683.76,324.23,683.34,325.13ZM554.88,526.4l-.13-.25.58.64.51,1.43Zm-13.67-2.86h0c-.2-.5-.34-.87-.34-.87C541,523,541.12,523.31,541.21,523.54Zm115,82a60.09,60.09,0,0,1-19.34,12.55,56.53,56.53,0,0,1-22.78,4.38,48.69,48.69,0,0,0,11.29-1.34A66.39,66.39,0,0,0,656.21,605.55ZM548.3,517.82a20.1,20.1,0,0,1,2.05,3.51,13.81,13.81,0,0,1,2.31,1.21l3,2.11c1,.7,1.92,1.38,2.82,2.17-.09-.47.35-.11.6,0l.76.45c-1.91-1.73-3.89-3.27-5.9-5C552.08,520.79,550,519.4,548.3,517.82Zm-15.77-6.55a1.65,1.65,0,0,0-.14-.26l.61-.47Zm-1,.84.29.24C531.65,512.55,531.58,512.41,531.55,512.11Zm2.64,2.15a2.36,2.36,0,0,0-.3-.54Zm-3.88,19.64c.7-1,1.39-1.94,2.09-2.89-.72.9-1.43,1.81-2.15,2.75Z"/><path d="M374,200.58v.51c-.3,0-.54-.16-.73-.48a6.23,6.23,0,0,0,3.43,4.83,10.7,10.7,0,0,0,6,.77,1.83,1.83,0,0,0,2.74-.31,2.35,2.35,0,0,0,0-3,2.54,2.54,0,0,1-.25-.78,16.8,16.8,0,0,0-1.53-6.61c.07.51.15,1.05.22,1.57a4.9,4.9,0,0,0-.93-1.62l-.25.68a3.64,3.64,0,0,0-5.12-3,5.89,5.89,0,0,0-3.81,6.29Z"/><path d="M372.53,208.73c-.47-1.48-.85-2.95-1.2-4.43l.08-.49-1.13,1.53.09-.08c1.87-.49,3.64.24,5.2,1l.64.16a1.57,1.57,0,0,0,1-.46,1.68,1.68,0,0,0,.23-2.24c-.2-.23-.38-.48-.57-.72-1-2.32-3.42-4.6-6.43-3a6.71,6.71,0,0,0-1.64,2,2.23,2.23,0,0,0-.14,3.11,2,2,0,0,0,3-.2l.27.58-.62.05c.92-.64,1.84-.16,2.77-.11l1,.51,1.31-2.72-.67-.08a2.41,2.41,0,0,1-.11.33,16.52,16.52,0,0,1-3.84-.59l-1.84-.2a1.53,1.53,0,0,0-1.16,1.51l.12,1v-.5c.79,1.57,1.84,3,2.63,4.6a.49.49,0,0,0,.69.24A.62.62,0,0,0,372.53,208.73Z"/><path d="M368,205.29a1.14,1.14,0,0,0-.4-.9l-.28.08c0,.19,0,.46.07.72C367.39,205.71,367.72,205.62,368,205.29Z"/><path d="M367.28,204.47c0-.18,0-.3,0-.3l-.07.3h.09Z"/><path d="M494.5,246.44c1,0,1.93.12,2.89.12h8.72l5.83-.26,2.92-.14,2.92-.26,5.85-.53,5.83-.78,2.93-.39c1-.14,1.94-.33,2.91-.5l5.82-1c.53-.08.94-.28.93-.4s-.43-.12-.91,0l-5.81,1-2.91.5-2.91.38-5.82.77-5.82.51-2.91.26-2.91.14-5.8.25c-1.94,0-3.87,0-5.8,0s-3.85,0-5.77-.11c-.51,0-.94.07-1,.2S494,246.42,494.5,246.44Z"/><path d="M612.49,226.73c-.3.26-.24.34.15.21a4.43,4.43,0,0,0,1.2-.66c.26-.21.19-.32-.15-.2A4.71,4.71,0,0,0,612.49,226.73Z"/><path d="M613.21,235.43l-2.89,1.94c-.94.61-1.83,1.22-2.66,1.82a5.56,5.56,0,0,1-1,.52c.2.08-.13.43-.86.9-14.32,9.32-31.12,17.15-48.29,23.59a1.67,1.67,0,0,1-.61.66,19.73,19.73,0,0,1-6,2.49l-2,.45c-1.95.51-3.94.9-5.9,1.35s-3.93.93-5.92,1.28l-6,1.08-3,.52-3,.41a48.45,48.45,0,0,1-5.5,1.42c-3.4.89-6.85,1.62-10.32,2.42s-7,1.29-10.62,1.9c.46.11.74.26.75.46s-.5.51-1.18.7a11.72,11.72,0,0,1-2.58.37l-3,.2c2.86-.06,5.73,0,8.56-.23a11.28,11.28,0,0,1,1.14,0c3.11-.31,6.26-.57,9.42-1.12a213.82,213.82,0,0,0,39.39-9.89,266.26,266.26,0,0,0,35.41-15.57,4.37,4.37,0,0,1,1.32-.57c.25,0,.26.12-.14.36-1.71,1.08-3.42,2.08-5.12,3.07l-5.06,3c-3.38,1.94-6.78,3.84-10.27,5.75a173.36,173.36,0,0,1-23.35,10.37,242.65,242.65,0,0,1-67,13.81A333.06,333.06,0,0,1,440.63,287a240.83,240.83,0,0,1-36.91-6.7c-2.16-.5-4.25-1.2-6.36-1.82l-6.31-1.94-6.19-2.22c-2.06-.76-4.14-1.47-6.14-2.35l-1.52-.64-.75-.32-.29-.11-1-.38-2.05-.78c-1.37-.54-2.74-1-4.06-1.67q-4-1.81-7.92-3.75c-2.62-1.31-5.16-2.81-7.77-4.26a8.42,8.42,0,0,1-4.4-4.2,6.07,6.07,0,0,1,0-5.28,6.48,6.48,0,0,1,5.34-3.32l-.83-.61-1.1-1.27a6.06,6.06,0,0,1-1.51-4.16v-1.87c.54-3.19.21-6.62,1.23-9.74l.93-.75v-.43a5.6,5.6,0,0,1,.65-3.53l1-1a14.44,14.44,0,0,1,3.91-2.71,4.9,4.9,0,0,1,1.28-1.21,7,7,0,0,1,2.6-3.86,1,1,0,0,1,1-1,1,1,0,0,1,.5.14h0c.09-.41.11-.53.18-1-.18-.31-.27-.5-.27-.5-.53-.77-.53-.77-1-1.45a4.67,4.67,0,0,1-.06-1.61c1.08-2.41,1.09-2.41,1.88-3.17a2.1,2.1,0,0,1,.3-.15c-.2-.65-.21-.7-.25-.88a2,2,0,0,1,.07-.5c.36-.47.36-.47.43-.69a2.66,2.66,0,0,1,.27-.35c.67-.3.66-.3.79-.44a2.69,2.69,0,0,1,.34-.13l.64.14-.39,1.69.47-.3-.31.66.33-.56.06.56v-.73c.57.8.57.8.87,1a1.43,1.43,0,0,0,.64.44,3.11,3.11,0,0,1,.18-.29c.61.85.61.85,1.19,1.71a3.7,3.7,0,0,1-.09.48.4.4,0,0,1,.5.13l.33.43h.14l0,0,.52.05h.11c.35,0,.85.09,2.24.16a5.24,5.24,0,0,1,.5.76,2.43,2.43,0,0,1,0-.38c0-.26.44-.62.41-.71a16.19,16.19,0,0,0-.82-1.61c-.28-.54-.58-1.06-.9-1.57-.63-1-1.31-2-1.95-3a.85.85,0,0,1,.91-1.42c5.23.72,9.1,4.41,11.53,9.18.84.95,1.72,1.87,2.62,2.79v-.34l.56.92.08.07c0-.42,0-.84-.07-1.26-.08-.18-.16-.36-.25-.53a17,17,0,0,1-2.68-3.46c-.76-1.28-1.4-2.66-2.17-3.9a34.15,34.15,0,0,1-1.83-4.34.75.75,0,0,1,.08-1,.64.64,0,0,1,.93-.06,18.73,18.73,0,0,1,5.29,4.52,15.12,15.12,0,0,1,3.37,6.45,3.8,3.8,0,0,1,1.42,2.14l0,0v-1c.4.55.35,1.28.69,1.85l.4-1.07c1.13,1.15,2.46,2.11,3.71,3.17a20.2,20.2,0,0,1,1.78,1.68,12.12,12.12,0,0,1,1.56,1.92,3.07,3.07,0,0,1,.25.26,17.41,17.41,0,0,1,2.17,0l.53.07.14,0,.35.16.71.32c1,.43,1.9,1,2.92,1.42-.66-.38-1.28-.81-1.9-1.25l-1.83-1.26c.66.25,1.48.6,2.2.91s1.49.65,2.26,1c1.52.63,3,1.34,4.56,2.16,8.36,4.33,17.78,9.73,22,13.81a205.22,205.22,0,0,0,27.79,6.42A199,199,0,0,0,489.91,246a3.17,3.17,0,0,1,2.06.45c.1.26-.55.51-1.54.53s-1.72.1-2.58.12h-7.78c-1.73,0-3.47-.15-5.2-.23s-3.48-.15-5.22-.31a189.18,189.18,0,0,1-20.74-2.93,168,168,0,0,0,35.19,5.94c1.55,0,3.1.11,4.66.1s3.07,0,4.6.17a186.76,186.76,0,0,0,46.12-5.14,241.77,241.77,0,0,0,37.42-12.43c8.85-3.8,17.13-7.87,25.28-12.12s16.08-8.91,24.29-13.85c2.13-1.4,4.32-2.38,4.84-2.18s-.82,1.54-3,3q-12.54,8.37-25.68,15.57a288.56,288.56,0,0,1-27.14,12.81A223.17,223.17,0,0,1,546.82,245a194.76,194.76,0,0,1-30.27,5.5c-2.22.25-4.44.34-6.64.52l-3.29.24c-1.09.06-2.18.07-3.27.11a.64.64,0,0,1,.13.26c0,.36-.37.71-1.05,1l3.75-.08,3.76-.22,3.77-.2,1.9-.1,1.89-.17c13.89-2.35,27.54-5.77,42.11-9.69,10-2.76,19.08-5.4,28.24-8.63a307.53,307.53,0,0,0,32.5-17.46,3.45,3.45,0,0,1,1.07-.52c.2,0,0,.2-.39.49-1.77,1.2-3.58,2.36-5.39,3.55l-2.72,1.77-2.8,1.69-5.65,3.36-5.8,3.2c1.4-.33,2.33-.33,2.44.12s-.67,1.32-2,2.33l5.45-2.67c1.13-.54,2.09-.84,2.16-.63s-.7.86-1.78,1.38c-3.71,1.84-7.39,3.72-11.18,5.37-1.89.84-3.75,1.74-5.66,2.53l-5.72,2.36a267.54,267.54,0,0,1-27.8,10.42,6.82,6.82,0,0,1,3.12.38h0l4.4-1.38a372.48,372.48,0,0,0,76-39.68c.47-.32.9-.52,1-.45s-.25.38-.68.66c-3.67,2.41-7.27,4.9-11,7.18-1.86,1.14-3.67,2.37-5.56,3.46l-5.62,3.34h0c.33-.13.45-.06.15.2a5.08,5.08,0,0,1-1.17.69c-.39.15-.41,0-.16-.19a385.83,385.83,0,0,1-43.25,21.4,337.32,337.32,0,0,0,40.42-18.41c1.34-.9,2.71-1.75,4.06-2.7a3.23,3.23,0,0,1,1.1-.5c.15,0-.07.27-.46.52l-1.12.77c2.44-1.39,4.52-2.13,4.75-1.65s-1.72,2.14-4.26,3.62c-6.8,3.94-13.66,7.73-20.76,11.06l-2.25,1.18-2.2,1.34a300.3,300.3,0,0,0,32.56-16.51c.89-.54,1.73-.87,1.84-.73s-.52.72-1.41,1.26a275.62,275.62,0,0,1-27.91,16.43,265.63,265.63,0,0,1-30,13.23c-3.26,1.64-6.58,3.17-9.91,4.8-3.38,1.46-6.78,3-10.27,4.47.92-.2,1.84-.45,2.75-.72a178.37,178.37,0,0,0,31.89-12.52c9.89-4.89,19.36-10.21,29.36-15.94a2.14,2.14,0,0,1,1.06-.42c.1.06-.19.34-.7.63-9.73,5.67-18.65,10.92-28.8,15.88l-6.27,3L569,257.3l-3.08,1.37-3.09,1.26-6.12,2.57q3.18-1.1,6.3-2.24l3.12-1.13,3.05-1.26,6.07-2.52,5.94-2.75,3-1.37,2.91-1.46,5.82-2.93,5.76-3.09,2.88-1.54c1-.52,1.91-1.08,2.86-1.61a7.92,7.92,0,0,1,1.84-.86c0-.07.12-.19.31-.33,1.81-1.27,3.84-2.53,5.86-3.91a3.34,3.34,0,0,1,1.17-.55C613.83,234.9,613.63,235.13,613.21,235.43ZM376.54,220.21V220l.2.55-.21,1.51S376.53,221.12,376.54,220.21Zm-9.73-.94h0l.16-.86C366.91,218.77,366.85,219.05,366.81,219.27Zm93.09,28-6.24-1.22c-1-.19-2.06-.45-3.08-.73l-3.05-.81a111,111,0,0,1-11.91-4l5.89,1.46,2.25.77,2.27.68,4.58,1.37c1.52.49,3.07.88,4.62,1.27Zm-84.75-34.66a13.37,13.37,0,0,1,0,3.16,3.78,3.78,0,0,1,1.31.77c1,.95,2,1.86,3,2.81.13-.49.36-.27.53-.22l.47.18A41.15,41.15,0,0,1,377.6,216,28.86,28.86,0,0,1,375.15,212.65Zm-8.7-4.73,0-.22.66-.4Zm-1.11.69.08.21C365.19,209,365.21,208.87,365.34,208.61Zm.83,1.93a1.47,1.47,0,0,0,0-.48Zm-12.51,17.78,2.93-2.37-2.9,2.21Z"/><path d="M512.21,298.76l-.57-.29c.12-.18.48-.19,1-.11a10.41,10.41,0,0,0-7.08-.49,9.79,9.79,0,0,0-2.45,1.17,7,7,0,0,0-1.62,1.48c-1.15.11-1.56.73-1.14,1.31a2.62,2.62,0,0,0,1.11.73,4.54,4.54,0,0,0,1.62.29,5.81,5.81,0,0,1,.89.2l1.8.69,1.94.65,2,.67c.69.21,1.4.43,2.12.67-.64-.3-1.29-.57-1.91-.82a22.41,22.41,0,0,0,2.44.62l-.58-.48c3.13,1.3,6.4,1.69,7.06.2s-1.78-4.52-5.11-5.89Z"/><path d="M504.47,294.19c.82.11,1.7.27,2.57.46s1.73.41,2.61.67l.47.29-1-1.42,0,.1c-.42,1.36-2.22,2-3.78,2.63l-.52.28a.61.61,0,0,0-.12.72,2.57,2.57,0,0,0,2.16,1.06l1.07,0a23,23,0,0,0,2.36.3,13.19,13.19,0,0,0,2.28,0c1.41-.18,2.46-.7,2.33-2-.06-.61-.85-1.41-1.38-2.13a3.8,3.8,0,0,0-3.39-1.78c-1.31.1-1.86,1-1.33,1.91l-.75-.1.26-.4c.2.86-.8,1.17-1.36,1.68l-1.06.39,2.06,1.86.46-.32-.29-.2a14.67,14.67,0,0,1,2.78-1.82l1.25-.94c.2-.48-.29-1.16-1.07-1.51l-1.1-.41.54.25a51.46,51.46,0,0,0-6.1-.32c-.32,0-.57.14-.57.37S504.15,294.17,504.47,294.19Z"/><path d="M510.35,292.78a2.18,2.18,0,0,0,1.18.2l.06-.21-.83-.34C510.17,292.2,510.11,292.45,510.35,292.78Z"/><path d="M511.59,292.77l.34.14-.3-.21s0,0,0,0Z"/><path d="M520.67,442.48c-1,24.84-2.15,49.82-3.7,74.78-.05.84,0,1.54.22,1.59s.33-.61.37-1.38c1.6-25,2.78-49.83,3.78-74.66a2.83,2.83,0,0,0-.31-1.65C520.84,441.12,520.69,441.7,520.67,442.48Z"/><path d="M498,628.72c-.05-.6-.16-.58-.26,0a10.75,10.75,0,0,0-.07,2.06c.05.49.18.48.26-.05A10.31,10.31,0,0,0,498,628.72Z"/><path d="M489.79,623.28c-.28-3.49-.59-6.81-1-9.77a10.32,10.32,0,0,1,0-1.64c-.18.2-.38-.47-.51-1.73-2.62-24.85-4.51-51.57-6.25-77.88a2.54,2.54,0,0,1-.65-1.12,29.56,29.56,0,0,1-1.12-9.28l.11-2.85c.18-11.55.39-23.08.81-34.56a68.64,68.64,0,0,1-.63-8.05c-.91-10-1.72-19.94-2.25-30.14-.21.64-.46,1-.73,1-.63-.21-1.09-2.58-1-5.33,0-1.39.07-2.78.16-4.17-.45,4-.54,8-.79,12,0,.57-.07,1.1-.13,1.58-.09,4.38-.09,8.79,0,13.29.43,39.22,4,76.08,7.74,112.67a7.22,7.22,0,0,1,0,2.07c-.1.35-.27.29-.36-.38-3.5-23.07-8.22-43.05-11-69.14-1.63-15.53-3-30.95-4-46.49-.26-3.88-.51-7.77-.71-11.68l-.3-5.86c-.1-2-.23-3.91-.21-5.87a57.55,57.55,0,0,1,5.28-23.65c4-8.28,9-16.37,12.8-24.51,1-2.08,1.82-4,2.71-6.33l.64-1.67c.23-.65.47-1.17.67-1.63.42-.92.82-1.7,1.13-2.49a15.62,15.62,0,0,0,1.21-9.43,13,13,0,0,0-1.75-4.36c-.44-.69-.94-1.4-1.61-2.35a18.78,18.78,0,0,1-2.19-4,16.21,16.21,0,0,1-1.06-5.26,17.47,17.47,0,0,1,.56-5.15,23.74,23.74,0,0,1,4-7.77,12.14,12.14,0,0,0,1-1.58l0,0v0s0,0,.09.06l.35.19c.24.12.48.22.74.32l.38.13a.88.88,0,0,1,.2.08,2.79,2.79,0,0,0,.66.17h-.19l-.29,0-.21.05.11,0c.05,0,0,0-.41.18l-.3.17c-.13.07-.21.14-.36.23l-.45.33-.11.08h0a.69.69,0,0,0-.19-.31,2.4,2.4,0,0,0-.23-.25c-.4-.36-.73-.7-1.14-1-.79-.6-1.57-1.19-2.29-1.81a21.63,21.63,0,0,1-3.72-3.68,9.77,9.77,0,0,1-1.76-4.15,3.72,3.72,0,0,1-.13-1.21,10.11,10.11,0,0,1,0-1.23,10.34,10.34,0,0,1,.52-2.27,5.93,5.93,0,0,1,.65-1.37,6.81,6.81,0,0,1,.84-1.27,5.42,5.42,0,0,1,.47-.63l.6-.58a15.17,15.17,0,0,1,1.42-1.1,6.79,6.79,0,0,1,.79-.53,6,6,0,0,1,.87-.5c.66-.27,1.32-.56,2-.86,1.32-.57,2.83-.95,4.2-1.42l2.08-.69c.42-.16.63-.25.93-.38a9,9,0,0,0,1.34-.69,1.75,1.75,0,0,0,.28-.23h0l.07.09c.19.25.46.53.59.7a4.53,4.53,0,0,0,.51.57l.28.26.2.2a3.13,3.13,0,0,0,.44.36c.17.11.21.17.34.25s.28.14.31.17l.2.08c.13.05.19,0,.11.05a1.27,1.27,0,0,0-.34.12,1.93,1.93,0,0,0-.6.33,4.42,4.42,0,0,0-.86.63l-.19.18-.28.24a6.51,6.51,0,0,0-.54.51c-.17.17-.33.35-.49.54a2.25,2.25,0,0,1-.28.32c-.08.09,0,0-.06.05l-.09,0-.37-.08c-.66-.16-1.65-.4-2.73-.58-.56-.1-1.08-.19-1.75-.27l-2-.08c-.67,0-1.37-.2-2.05-.29a80.26,80.26,0,0,1-8.85-1.95l-1.68-1a2.55,2.55,0,0,0-.43-.25l-.55-.2-1.09-.4a7.93,7.93,0,0,1-1.05-.41l-.74-.56c-.49-.38-1-.75-1.44-1.14s-.93-.76-1.36-1.15l-.43-.39-.59-.52c-.79-.69-.48-1.58-1.35-2.25l-.5-.53a2.32,2.32,0,0,1-.43-.54l-.67-1.13-.54-1.15a11.83,11.83,0,0,0-.73-1.18c-.64-.8.09-1.59-.74-2.49l-.37-.66a4.63,4.63,0,0,1,0-.65l.05-.66c0-.1,0-.23-.08-.35l-.16-.37c-.18-.48-.56-1-.31-1.43l.17-.69.08-.34a1.46,1.46,0,0,0-.07-.39c-.12-.52-.26-1.05-.36-1.57l.56-1.37.14-.34a1.64,1.64,0,0,0,0-.39l0-.79c0-.54-.05-1.06,0-1.6l.1-1.62,0-.4c0-.15.13-.22.19-.33l.49-.61,1-1.21a10.72,10.72,0,0,0,.56-1.46l.52-1.49,0-.09,0-.05s0-.06-.06-.1l-.26-.41-.13-.21s0-.07,0-.11l.09-.2.35-.81.34-.8.28-.71.53-1.32c.36-.84.74-1.72,1.11-2.55s.6-1.37.92-2a17.41,17.41,0,0,1,1-1.8,12.55,12.55,0,0,1,2.07-2.63c1.34-1.27,2.7-1.68,3.68-.95,1.2.9,1.55,3.11,1.13,5.55l.65-1c.39-.45.8-.94,1.2-1.35,1.14-1.18,2.35-1.94,3.45-1.88h1.44c2.31.54,5.1.34,7.46,1.75l.39,1,.36.05a3.76,3.76,0,0,1,2.86,1.17l.64,1.13a12.11,12.11,0,0,1,1.21,4.23,3.83,3.83,0,0,1,.66,1.4,5.69,5.69,0,0,1,2.63,3.22.8.8,0,0,1,.58,1.08.84.84,0,0,1-.34.36h0c.35.19.46.25.89.45l.61-.05c1-.15,1-.15,1.84-.23a6,6,0,0,1,1.66.59c2,1.84,2.05,1.88,2.5,2.8a2.64,2.64,0,0,1,0,.28c.78.17.85.2,1.07.26a4.93,4.93,0,0,1,.51.31c.34.5.34.5.56.66a3.62,3.62,0,0,1,.26.38c0,.6,0,.59.09.75a1.12,1.12,0,0,1,0,.29l-.47.33L510,291.59l.09.45-.56-.52.44.49-.63-.24.78.37a4.65,4.65,0,0,0-1.54.06,1.57,1.57,0,0,0-.77.23,1.65,1.65,0,0,1,.21.25l-2.33.07-.44-.24c0,.14-.16.26-.39.27l-.58.06-.07.09,0,0-.29.32-.05.08h0c-.2.22-.5.53-1.29,1.33a8.63,8.63,0,0,1-1,.05l.37.11c.26.08.36.46.48.47,1.36.08,2.7.14,4.05.16s2.75.09,4.18.23a1.53,1.53,0,0,1,1.34.5c.3.37.17.69-.28.76a10.11,10.11,0,0,1-3.23,1.43,24.65,24.65,0,0,1-3.84.74c-2.7.31-5.46.43-8,.51-.56.07-1.14.21-1.68.33l-1.52.35.24.06c-.25,0-.62,0-.56.15v0h.2a3.8,3.8,0,0,1,.4.07,3.64,3.64,0,0,0,.46,0,17.28,17.28,0,0,1,3.9-.45c.75,0,1.45,0,2.23,0l2.38.12a16.87,16.87,0,0,1,2.68.36l2.76.62a1.31,1.31,0,0,1,1,.54c.14.26-.1.43-.53.39-1.25.14-2.45.17-3.76.24-.64,0-1.23,0-1.89,0h-1.85c-1.26,0-2.38-.08-3.51-.12l-1.58-.16a3,3,0,0,1-.36-.06,1.87,1.87,0,0,0-.31-.05l-.11.05a1.48,1.48,0,0,1-.84.31h0l.49.08c-.17.11-.6,0-.8.14l.61.19a1.55,1.55,0,0,0-.47,1.31c0,.46.22.84.26,1.2a.2.2,0,0,1,0,.08l1,.29.22.07,0,0,.18.08.34.16c.46.21.92.4,1.39.59a13.61,13.61,0,0,1-1.67-.91c.64.31,1.35.56,2,.79l.24.09.12,0,.06,0,.12.07,2,1.3c.69.46,1.38.91,2.14,1.46a24.59,24.59,0,0,1,2.48,2l.47.44.5.55a10.23,10.23,0,0,1,1,1.36,6.76,6.76,0,0,1,.5.94,6.19,6.19,0,0,1,.43,1.09,11,11,0,0,1,.27,1.27,10.11,10.11,0,0,1,0,1.35,7.57,7.57,0,0,1-1.79,4.33,9.82,9.82,0,0,1-2.31,1.95,22.52,22.52,0,0,1-3.63,1.78l-1.16.46-.36.11a9.65,9.65,0,0,0-1.46.55,1.57,1.57,0,0,0-.63.51.81.81,0,0,1-.1.18c0,.06,0,.13,0,.19a.6.6,0,0,0,.1.35,4.85,4.85,0,0,0,1,1l.28.24.14.12.07.07v0l0,0c-.05,0,0,0,0,0l.17.13a16.41,16.41,0,0,1,2.67,2.62,12.28,12.28,0,0,1,2,3.71,11.91,11.91,0,0,1,.48,2,20.53,20.53,0,0,1,.09,2.06,15.36,15.36,0,0,1-.29,2,16.51,16.51,0,0,1-.57,1.72c-.23.48-.47,1-.71,1.38s-.47.75-.71,1.08a27.85,27.85,0,0,1-2.1,2.76c-.59.71-1.1,1.3-1.48,1.82a6.33,6.33,0,0,0-1.29,2.82,4.5,4.5,0,0,0,0,1.36,5.53,5.53,0,0,0,.62,1.71c.79,1.5,2,3.54,3,5.58a55.41,55.41,0,0,1,4.12,12.93c.43,2.24.7,4.55.94,6.73l.19,1.56a13.4,13.4,0,0,0,.26,1.32c.19.9.43,1.79.65,2.67.51,1.9,1.05,3.85,1.67,5.76s1.29,3.9,2,5.84c1.39,3.89,3,7.81,4.42,11.7a99,99,0,0,1,6.27,23.36c.21,1.61,0,3-.29,3.32s-.71-.9-.89-2.51a98.13,98.13,0,0,0-3.91-16.79c-1.81-5.63-4-11.26-6-16.92-1-2.81-1.9-5.64-2.73-8.45-.4-1.4-.78-2.8-1.12-4.2l-.26-1.05-.22-1c-.14-.65-.29-1.3-.41-2-.26-1.16-.34-2.81-.52-4.39s-.36-3.23-.66-4.85a53.45,53.45,0,0,0-2.55-9.4,52.09,52.09,0,0,1,2.16,7.83,68.39,68.39,0,0,1,1,8.06c.05.65.09,1.28.15,1.85s.16,1.06.26,1.62c.21,1.12.39,2.16.66,3.38.5,2.36,1,4.7,1.7,7.11,2.51,9.53,5.89,19.19,7.53,28.89.49,2.47.88,5,1.19,7.46a46.17,46.17,0,0,1,.23,7.33c-.1,12.38-.44,24.44-.7,36.57s-.52,24.33-.66,37c-.25,21.59-.67,40.48-1.65,62-1.42,30.19-3.95,57.69-9.73,87.5a43.44,43.44,0,0,1-2.06,8.1c-.35.47,0-2.4.64-6.38,2.48-15.55,4.13-31,5.39-46.52s2.1-31,2.74-46.59c1.26-31.19,1.8-62.73,2.85-95.25.2-7,.41-13.91.61-20.77a.72.72,0,0,1-.36.16c-.49,0-.93-.66-1.29-1.77q-.37,11.7-1.05,23.53c.5,21.94.65,43.91-1,67.28-1.15,16-2.9,30.57-4.53,45.42-.78,18.81-1.8,37.58-3.6,56.58a8.16,8.16,0,0,1-.28,1.82c-.1.27-.14-.14-.09-.91.86-13.07,1.38-26.46,1.77-40-.51,2.13-1,3.39-1.55,3.22s-.9-1.83-1.14-4.36l-.46,9.19c-.11,1.89-.37,3.38-.62,3.33s-.39-1.56-.31-3.36q.75-18.75,1.49-37.46c.14-15,.2-29.92.24-44.94a10.73,10.73,0,0,1-1.85,4.33h0c0,2.33-.05,4.64-.08,7q.9,31.83.27,64.3t-2.89,65.29a7.92,7.92,0,0,1-.19,1.58,5.93,5.93,0,0,1,0-1.42Q497.28,655,498,635.31v.05c-.08.53-.19.63-.24,0a11,11,0,0,1,.07-2.06c.1-.61.21-.55.25-.06.86-24.46,1.07-48.76.6-72.74q-.44,33.42-1.66,66.8c.05,2.43.1,4.85.16,7.31a7.74,7.74,0,0,1-.19,1.82c-.08.19-.17-.31-.17-1l0-2c-.17,4.21-.65,7.46-1.12,7.39-.48-.24-.83-3.86-.78-8.24q0-17.58.08-35.08l-.1-3.79c-.1-1.27-.21-2.54-.31-3.81-.39,18.16-.74,36.28-.87,54.3a8.22,8.22,0,0,1-.26,2.9,6.75,6.75,0,0,1-.34-2.77c-1.09-31.76-2.38-63.92-3.13-96.22-1.38-10.61-2.86-21.26-4.34-32.1,0,1.36,0,2.74,0,4.12.17,17.56,1.45,33.79,2.69,49.89s2.48,32,3.07,49a4.09,4.09,0,0,1-.13,1.67c-.1.09-.22-.49-.24-1.35-.73-16.6-2.12-31.75-3.31-48.21-1-13.64-1.91-26.62-3.15-39.3.84,25.91,3.05,50.77,4.4,76.44a15.84,15.84,0,0,1,0,3,1.53,1.53,0,0,1,.18.64c.41,3.21.74,6.71,1,10.28a6.74,6.74,0,0,1-.05,1.91C490,624.46,489.88,624.05,489.79,623.28Zm2.5-329.2.2,0-.54.07-1.11-.28S491.53,294,492.29,294.08Zm4.87-6.88h0l.71.31Zm7.39,99.63c-.14-.8-.27-1.6-.36-2.36l-.2-2.71c-.13-1.89-.33-3.82-.64-5.73a49.53,49.53,0,0,0-3.11-11,46.16,46.16,0,0,0-2.48-5.09,13.74,13.74,0,0,1-1.74-3.74,4.37,4.37,0,0,1,0-1.36,6.45,6.45,0,0,1,.33-1.44,9.33,9.33,0,0,1,1.73-2.74,9.33,9.33,0,0,0-1.62,2.69,5.71,5.71,0,0,0-.27,2.67c0,1.12,1.68,3.54,2.95,6.15a47.56,47.56,0,0,1,3.09,8.13,52,52,0,0,1,1.62,8.6c.16,1.45.24,2.9.33,4.29,0,.67.07,1.37.14,1.9S504.46,386.23,504.55,386.83Zm-5.15-92.29a20,20,0,0,1-2.82-.73,5.08,5.08,0,0,1-1.26.7c-1.2.53-2.44,1-3.54,1.53.34.13.07.25,0,.35s-.24.18-.33.27c.61-.25,1.25-.5,1.88-.71s1.37-.41,2.05-.6,1.33-.34,2-.49A13.62,13.62,0,0,1,499.4,294.54Zm8.87-4,.22.11.09.64Zm-.21-1.09-.26,0C507.73,289.17,507.85,289.23,508.06,289.43Zm-2.37-.21a1.82,1.82,0,0,0,.46.22ZM493.77,274l1.18,3.19L493.9,274Z"/></svg>