<svg id="Layer_1" data-name="Layer 1" xmlns="http://www.w3.org/2000/svg" viewBox="0 0 1080 1096.91"><path d="M370.53,270.13v.52c-.3,0-.54-.16-.74-.49a6.24,6.24,0,0,0,3.44,4.83,10.71,10.71,0,0,0,6,.78,1.84,1.84,0,0,0,2.74-.31,2.35,2.35,0,0,0,0-3,3,3,0,0,1-.25-.78,16.8,16.8,0,0,0-1.52-6.62c.07.52.15,1.06.22,1.57a5.08,5.08,0,0,0-.93-1.62c-.08.21-.17.46-.26.68a3.63,3.63,0,0,0-5.11-3,5.9,5.9,0,0,0-3.81,6.29Z"/><path d="M369,278.28c-.48-1.47-.86-2.95-1.21-4.43l.09-.48-1.13,1.52.09-.08c1.86-.49,3.64.24,5.2,1l.64.16a1.64,1.64,0,0,0,1-.47,1.67,1.67,0,0,0,.23-2.23c-.2-.24-.38-.49-.57-.73-1-2.32-3.42-4.6-6.43-3a6.42,6.42,0,0,0-1.64,2,2.24,2.24,0,0,0-.14,3.12,2,2,0,0,0,3-.21l.27.58-.62.05c.92-.64,1.84-.15,2.76-.11l1,.52,1.31-2.73-.67-.08c-.05.13-.1.33-.11.33a16.52,16.52,0,0,1-3.84-.59l-1.85-.2a1.54,1.54,0,0,0-1.15,1.52l.12.94v-.49c.79,1.56,1.84,3,2.63,4.59a.48.48,0,0,0,.69.24A.63.63,0,0,0,369,278.28Z"/><path d="M364.45,274.84a1.14,1.14,0,0,0-.41-.9l-.27.08c0,.2,0,.46.07.72C363.88,275.26,364.21,275.17,364.45,274.84Z"/><path d="M363.77,274c0-.18,0-.3,0-.3s-.05.21-.07.3,0,0,0,0Z"/><path d="M491,316c1,0,1.92.11,2.89.12h8.72l5.83-.27,2.92-.14,2.92-.26,5.85-.53,5.83-.78,2.93-.39c1-.14,1.93-.33,2.9-.5l5.83-1c.52-.08.93-.28.93-.4s-.43-.12-.91,0l-5.82,1-2.9.5-2.91.38-5.82.77-5.82.52-2.91.25-2.91.14-5.8.26c-1.94,0-3.87,0-5.8,0s-3.86,0-5.77-.12c-.52,0-.94.08-1,.21S490.51,316,491,316Z"/><path d="M609,296.28c-.31.26-.24.34.15.21a4.43,4.43,0,0,0,1.2-.66c.26-.21.18-.32-.15-.2A4.55,4.55,0,0,0,609,296.28Z"/><path d="M609.7,305l-2.89,1.94c-.94.61-1.83,1.21-2.66,1.81a5,5,0,0,1-1,.52c.2.08-.14.43-.86.9C588,319.48,571.18,327.32,554,333.75a1.58,1.58,0,0,1-.62.66,19.77,19.77,0,0,1-6,2.49l-2,.46c-1.95.5-3.94.89-5.9,1.35s-3.93.92-5.92,1.27l-6,1.08-3,.52-3,.41a47.7,47.7,0,0,1-5.49,1.42c-3.4.89-6.85,1.62-10.32,2.42s-7,1.29-10.63,1.9c.46.11.75.27.75.47s-.5.5-1.17.7a13.06,13.06,0,0,1-2.58.37l-3,.19c2.86,0,5.73,0,8.56-.23a11.28,11.28,0,0,1,1.14,0c3.11-.31,6.26-.57,9.42-1.11a213.52,213.52,0,0,0,39.38-9.9,264.54,264.54,0,0,0,35.42-15.57,4.39,4.39,0,0,1,1.31-.56c.26,0,.27.11-.13.35-1.71,1.08-3.42,2.09-5.12,3.08l-5.06,3c-3.39,1.93-6.78,3.83-10.27,5.74a173.36,173.36,0,0,1-23.35,10.37,242.36,242.36,0,0,1-67,13.81,333.06,333.06,0,0,1-36.45-1.87,241.17,241.17,0,0,1-36.92-6.7c-2.15-.5-4.24-1.2-6.35-1.82l-6.31-1.93-6.19-2.23c-2.06-.76-4.14-1.46-6.14-2.35l-1.52-.64-.75-.32-.29-.11-1-.38-2.06-.78c-1.36-.54-2.73-1-4.05-1.66-2.66-1.21-5.29-2.47-7.92-3.76s-5.16-2.81-7.77-4.26a8.35,8.35,0,0,1-4.4-4.2,6,6,0,0,1,0-5.28,6.5,6.5,0,0,1,5.34-3.32l-.83-.61-1.11-1.27a6,6,0,0,1-1.5-4.16v-1.86c.54-3.19.21-6.63,1.22-9.75l.94-.75V298a5.49,5.49,0,0,1,.65-3.52l1-1A14.25,14.25,0,0,1,355,290.7a4.86,4.86,0,0,1,1.28-1.2,7.05,7.05,0,0,1,2.6-3.87,1,1,0,0,1,1-1,1,1,0,0,1,.51.14h0a10.14,10.14,0,0,0,.18-1c-.18-.32-.27-.51-.27-.51-.53-.77-.53-.77-1-1.45a4.68,4.68,0,0,1-.06-1.61c1.08-2.41,1.09-2.41,1.88-3.17l.3-.15c-.2-.65-.21-.7-.25-.88a2.13,2.13,0,0,1,.07-.5c.36-.46.36-.46.43-.69a2.66,2.66,0,0,1,.27-.35c.66-.3.66-.3.79-.43a1.6,1.6,0,0,1,.34-.13l.64.13-.39,1.69.47-.29-.31.65.33-.56.06.56v-.73c.56.8.56.8.87,1a1.45,1.45,0,0,0,.63.43c.11-.18.19-.29.19-.29.61.85.61.85,1.19,1.71a3.41,3.41,0,0,1-.09.48.42.42,0,0,1,.5.13l.33.43h.13l0,0,.51,0h.12c.35,0,.85.09,2.24.16a5.84,5.84,0,0,1,.5.76,2.43,2.43,0,0,1,0-.38c0-.26.44-.61.4-.71a14.3,14.3,0,0,0-.82-1.61c-.27-.54-.58-1.06-.89-1.57-.63-1-1.31-2-2-3a.79.79,0,0,1-.17-1.11.78.78,0,0,1,1.08-.3c5.23.72,9.1,4.4,11.53,9.17.84.95,1.72,1.87,2.61,2.79v-.33l.56.91.08.08c0-.43-.05-.85-.07-1.26-.08-.19-.16-.37-.25-.54a17.45,17.45,0,0,1-2.69-3.46c-.75-1.27-1.4-2.65-2.16-3.9a34.15,34.15,0,0,1-1.83-4.34.75.75,0,0,1,.08-1,.64.64,0,0,1,.92-.06,18.63,18.63,0,0,1,5.3,4.52,15.23,15.23,0,0,1,3.37,6.45,3.88,3.88,0,0,1,1.42,2.14l0,0v-1c.4.56.35,1.29.69,1.86l.4-1.08c1.13,1.15,2.46,2.12,3.7,3.17a19,19,0,0,1,1.79,1.69,11.28,11.28,0,0,1,1.56,1.92,2,2,0,0,1,.25.25,17.41,17.41,0,0,1,2.17,0l.53.07.14,0,.35.16.71.32c1,.43,1.89,1,2.92,1.42-.66-.38-1.28-.81-1.9-1.24L399,289.09c.66.24,1.48.59,2.2.9s1.49.65,2.26,1c1.51.63,3,1.34,4.56,2.16,8.36,4.33,17.78,9.73,22,13.81a205.43,205.43,0,0,0,27.78,6.42,197.67,197.67,0,0,0,28.55,2.18,3.18,3.18,0,0,1,2.05.45c.11.26-.54.51-1.53.53s-1.72.11-2.58.13h-7.78c-1.73,0-3.47-.15-5.2-.22s-3.48-.16-5.22-.31a191.84,191.84,0,0,1-20.75-2.94,168.19,168.19,0,0,0,35.2,5.94c1.55,0,3.1.11,4.66.1s3.07.05,4.6.17A186.76,186.76,0,0,0,536,314.23a240.24,240.24,0,0,0,37.41-12.43c8.86-3.8,17.13-7.87,25.29-12.12s16.07-8.91,24.29-13.85c2.13-1.4,4.32-2.38,4.84-2.17s-.82,1.53-3,3q-12.52,8.37-25.67,15.57A287.24,287.24,0,0,1,572,305a222.8,222.8,0,0,1-28.72,9.56,194.64,194.64,0,0,1-30.26,5.5c-2.23.25-4.45.35-6.64.53l-3.29.24c-1.09.05-2.18.07-3.27.1a.51.51,0,0,1,.12.26c0,.36-.36.71-1,1l3.75-.08,3.75-.21,3.78-.21,1.9-.09,1.89-.17c13.89-2.36,27.54-5.78,42.11-9.7,10-2.76,19.08-5.4,28.24-8.63a309.14,309.14,0,0,0,32.49-17.45,3.33,3.33,0,0,1,1.08-.53c.2,0,0,.21-.39.49-1.77,1.2-3.58,2.36-5.39,3.55L609.4,291l-2.79,1.69L601,296l-5.8,3.19c1.39-.33,2.33-.33,2.44.12s-.67,1.32-2,2.33L601,299c1.13-.53,2.09-.84,2.16-.63s-.7.86-1.78,1.38c-3.71,1.84-7.4,3.72-11.18,5.37-1.89.84-3.75,1.75-5.66,2.53L578.84,310A265.29,265.29,0,0,1,551,320.41a6.66,6.66,0,0,1,3.12.39h0l4.41-1.38a372.66,372.66,0,0,0,76-39.68c.48-.32.91-.52,1-.45s-.25.38-.68.66c-3.67,2.42-7.27,4.9-11,7.18-1.86,1.15-3.66,2.37-5.56,3.46l-5.62,3.34h0c.33-.12.45-.06.15.2a5.11,5.11,0,0,1-1.17.7c-.39.14-.41,0-.16-.2A385.83,385.83,0,0,1,568.28,316a334.92,334.92,0,0,0,40.41-18.41c1.35-.9,2.72-1.74,4.07-2.7a3.44,3.44,0,0,1,1.1-.5c.15,0-.08.27-.46.52l-1.12.78c2.43-1.39,4.52-2.13,4.75-1.66s-1.73,2.15-4.26,3.62c-6.8,3.94-13.66,7.73-20.76,11.06l-2.25,1.18-2.2,1.34a298.51,298.51,0,0,0,32.56-16.51c.88-.54,1.72-.87,1.84-.72s-.52.71-1.42,1.26a273.36,273.36,0,0,1-27.91,16.42,264.9,264.9,0,0,1-30,13.24c-3.25,1.63-6.57,3.17-9.9,4.79-3.38,1.46-6.78,3-10.27,4.47.92-.2,1.84-.45,2.75-.72A177.91,177.91,0,0,0,577.09,321c9.89-4.89,19.36-10.21,29.36-15.94a2.26,2.26,0,0,1,1.06-.42c.1.06-.2.34-.7.63-9.73,5.67-18.65,10.92-28.81,15.88l-6.26,3-6.23,2.75-3.08,1.37-3.09,1.26-6.12,2.57c2.12-.73,4.21-1.48,6.3-2.23l3.11-1.14,3.06-1.25,6.07-2.53,5.94-2.74,3-1.38,2.91-1.46,5.82-2.93,5.75-3.09,2.89-1.54c1-.52,1.9-1.08,2.86-1.61a8.53,8.53,0,0,1,1.83-.86A.83.83,0,0,1,603,309c1.8-1.28,3.84-2.54,5.85-3.91a3.5,3.5,0,0,1,1.18-.56C610.32,304.45,610.12,304.68,609.7,305ZM373,289.77v-.25c.07.17.13.35.21.56l-.22,1.5Zm-9.72-.94h0c.09-.5.16-.86.16-.86C363.39,288.32,363.34,288.6,363.3,288.83Zm93.09,28-6.24-1.22c-1-.2-2.06-.46-3.08-.73L444,314.1a113.15,113.15,0,0,1-11.91-4l5.89,1.45,2.25.77,2.27.68,4.57,1.37c1.53.5,3.08.88,4.63,1.27ZM371.64,282.2a13.37,13.37,0,0,1,0,3.16,4,4,0,0,1,1.31.77c1,.95,2,1.86,3,2.82.13-.5.36-.27.52-.23l.48.19a43.05,43.05,0,0,1-2.85-3.4A27.72,27.72,0,0,1,371.64,282.2Zm-8.7-4.73c0-.07,0-.14,0-.22l.67-.4Zm-1.12.69.09.21C361.68,278.54,361.69,278.42,361.82,278.16Zm.83,1.93a1.54,1.54,0,0,0,.05-.48Zm-12.5,17.78,2.93-2.37-2.9,2.21Z"/><path d="M508.7,368.31l-.57-.28c.12-.18.48-.2,1-.11a10.36,10.36,0,0,0-7.08-.5,9.79,9.79,0,0,0-2.45,1.17,7,7,0,0,0-1.62,1.49c-1.15.1-1.56.73-1.14,1.3a2.45,2.45,0,0,0,1.11.73,4.54,4.54,0,0,0,1.62.29,5.81,5.81,0,0,1,.89.2c.6.23,1.18.47,1.8.69l1.94.65,2,.67,2.12.67c-.64-.3-1.29-.57-1.91-.82a21.84,21.84,0,0,0,2.44.62l-.58-.48c3.13,1.3,6.4,1.69,7.06.21s-1.78-4.53-5.11-5.89Z"/><path d="M501,363.74c.82.11,1.7.27,2.57.46s1.73.41,2.61.67l.47.29-1-1.42,0,.1c-.42,1.36-2.21,2-3.77,2.63l-.53.28a.64.64,0,0,0-.11.73,2.56,2.56,0,0,0,2.16,1l1.07,0a23,23,0,0,0,2.36.3,13.06,13.06,0,0,0,2.27,0c1.42-.18,2.47-.7,2.34-2.05-.06-.61-.85-1.41-1.38-2.13a3.84,3.84,0,0,0-3.39-1.78c-1.31.1-1.86,1-1.33,1.92l-.75-.1.26-.41c.2.86-.8,1.18-1.36,1.68l-1.06.39,2.06,1.86.46-.31-.29-.21a14.67,14.67,0,0,1,2.78-1.82l1.25-.94c.19-.47-.29-1.16-1.07-1.51l-1.1-.41.54.25a53.73,53.73,0,0,0-6.11-.32c-.31,0-.57.14-.56.37S500.64,363.72,501,363.74Z"/><path d="M506.83,362.33a2.13,2.13,0,0,0,1.19.2,1.66,1.66,0,0,0,.05-.21l-.82-.34C506.66,361.75,506.6,362,506.83,362.33Z"/><path d="M508.07,362.32l.35.14-.3-.21,0,0Z"/><path d="M517.16,512c-1,24.84-2.15,49.82-3.7,74.78-.05.84,0,1.55.22,1.59s.33-.61.37-1.38c1.6-25,2.78-49.83,3.78-74.66a2.76,2.76,0,0,0-.31-1.64C517.33,510.67,517.18,511.25,517.16,512Z"/><path d="M494.5,698.27c-.06-.59-.16-.57-.26,0a10.75,10.75,0,0,0-.07,2.06c.05.5.17.48.26,0A10.31,10.31,0,0,0,494.5,698.27Z"/><path d="M486.28,692.84c-.28-3.5-.59-6.82-1-9.78a9.21,9.21,0,0,1,0-1.64c-.18.2-.38-.47-.51-1.73-2.62-24.84-4.51-51.56-6.26-77.88a2.65,2.65,0,0,1-.64-1.12,29.45,29.45,0,0,1-1.12-9.27l.11-2.86c.18-11.55.39-23.07.8-34.56a70.65,70.65,0,0,1-.62-8c-.91-10-1.72-19.93-2.25-30.14-.21.64-.46,1-.73,1-.63-.2-1.09-2.57-1-5.33,0-1.39.07-2.78.16-4.17-.46,4-.54,8-.8,12a15.16,15.16,0,0,1-.12,1.59c-.09,4.37-.09,8.79,0,13.28.42,39.22,4,76.09,7.74,112.67a7.61,7.61,0,0,1,0,2.07c-.1.35-.27.29-.36-.38-3.5-23.07-8.23-43-11-69.14-1.63-15.52-3-31-4-46.49-.26-3.88-.52-7.77-.71-11.67l-.3-5.86c-.1-2-.23-3.92-.22-5.88a57.56,57.56,0,0,1,5.29-23.65c4-8.28,9-16.36,12.8-24.5,1-2.08,1.82-4,2.71-6.34l.63-1.67c.24-.65.48-1.17.68-1.63.42-.92.82-1.69,1.13-2.49a15.61,15.61,0,0,0,1.21-9.43,13.09,13.09,0,0,0-1.75-4.35c-.44-.69-.94-1.41-1.61-2.36a19,19,0,0,1-2.2-4,16.4,16.4,0,0,1-1.05-5.26,17.21,17.21,0,0,1,.56-5.15,23.57,23.57,0,0,1,4-7.76,13.82,13.82,0,0,0,1-1.58l0-.06h0l.09.05.35.19a6,6,0,0,0,.73.32l.39.13a.88.88,0,0,1,.2.08,2.79,2.79,0,0,0,.66.17s0,0,0,0-.14,0-.22,0l-.29,0-.21.05.1,0c.06,0,0,0-.4.18l-.3.17-.36.24a5.15,5.15,0,0,0-.45.32l-.11.09h0a.69.69,0,0,0-.19-.31,2.4,2.4,0,0,0-.23-.25c-.4-.36-.73-.7-1.14-1-.8-.6-1.58-1.19-2.3-1.81a21.55,21.55,0,0,1-3.71-3.68,9.79,9.79,0,0,1-1.76-4.14,3.78,3.78,0,0,1-.13-1.21,9.2,9.2,0,0,1,.56-3.5,6.19,6.19,0,0,1,.64-1.38,6.87,6.87,0,0,1,.85-1.27,5.52,5.52,0,0,1,.46-.62l.61-.58a14.7,14.7,0,0,1,1.41-1.11,7.92,7.92,0,0,1,.8-.53,6,6,0,0,1,.87-.49c.66-.28,1.32-.56,2-.87,1.32-.57,2.83-.95,4.2-1.42l2.08-.69c.42-.16.63-.25.93-.38a9.09,9.09,0,0,0,1.34-.68,2.29,2.29,0,0,0,.28-.24h0l.08.1c.18.24.46.52.59.7a5.27,5.27,0,0,0,.51.56l.28.26.2.2a3.13,3.13,0,0,0,.44.36c.17.12.21.17.34.25s.28.14.31.17l.2.08c.13.05.19,0,.11.05a1.56,1.56,0,0,0-.34.12,2.16,2.16,0,0,0-.6.33,4.42,4.42,0,0,0-.86.63l-.19.18-.28.24a6.51,6.51,0,0,0-.54.51c-.17.17-.33.36-.49.54a1.81,1.81,0,0,1-.28.32c-.08.09,0,0-.06.05l-.09,0-.38-.07c-.65-.17-1.64-.4-2.72-.59-.56-.09-1.08-.19-1.75-.27l-2-.08c-.67,0-1.37-.2-2.06-.29a79,79,0,0,1-8.85-1.95l-1.67-1a3.48,3.48,0,0,0-.43-.25l-.55-.2-1.09-.39a7.92,7.92,0,0,1-1.05-.42l-.74-.56c-.49-.38-1-.75-1.44-1.14s-.93-.76-1.36-1.14l-.44-.4-.58-.52c-.79-.68-.48-1.58-1.35-2.25l-.5-.53a2.13,2.13,0,0,1-.43-.54l-.67-1.12-.54-1.15a12.71,12.71,0,0,0-.73-1.19c-.65-.8.09-1.59-.74-2.49l-.37-.66a3.54,3.54,0,0,1,0-.65l.06-.65c0-.11,0-.23-.09-.36l-.15-.36c-.18-.49-.56-1-.31-1.44l.16-.68.09-.35a1.33,1.33,0,0,0-.07-.38c-.12-.53-.26-1.06-.36-1.58l.56-1.36.14-.35a1.26,1.26,0,0,0,0-.39v-.79c0-.53-.05-1.06,0-1.6l.1-1.61,0-.41c0-.15.13-.21.19-.33l.49-.6,1-1.22a9.8,9.8,0,0,0,.56-1.46l.52-1.49,0-.09,0,0s0-.07-.06-.11l-.26-.41-.13-.21c0-.05,0-.07,0-.11l.09-.2.34-.8.35-.81.27-.7.54-1.33c.35-.84.73-1.72,1.11-2.55s.6-1.36.92-2a17.41,17.41,0,0,1,1-1.8,12.55,12.55,0,0,1,2.07-2.63c1.34-1.27,2.7-1.68,3.68-.95,1.19.9,1.55,3.11,1.13,5.55.22-.33.43-.66.64-1,.4-.45.81-.93,1.2-1.35,1.15-1.18,2.36-1.94,3.46-1.87l1.43,0c2.32.54,5.1.34,7.47,1.75l.38,1,.37,0A3.72,3.72,0,0,1,493.2,344l.65,1.13a12.17,12.17,0,0,1,1.21,4.23,3.87,3.87,0,0,1,.66,1.41,5.64,5.64,0,0,1,2.63,3.21.8.8,0,0,1,.58,1.08.84.84,0,0,1-.34.36h0c.35.19.46.24.89.44.38,0,.6,0,.6,0a17.6,17.6,0,0,1,1.84-.24,5.89,5.89,0,0,1,1.66.59c2,1.84,2.06,1.88,2.51,2.8a2.83,2.83,0,0,1,0,.29,9.81,9.81,0,0,1,1.07.26,4,4,0,0,1,.51.3c.34.5.34.5.55.66a4.13,4.13,0,0,1,.27.38c0,.6,0,.59.09.75a1.12,1.12,0,0,1,0,.29l-.47.33-1.65-1.11.08.45-.55-.52.44.49-.63-.24.78.37a4.24,4.24,0,0,0-1.54.07,1.5,1.5,0,0,0-.77.22,3,3,0,0,1,.21.25l-2.33.07-.44-.24c0,.14-.16.26-.39.27l-.59.06-.06.09,0,0-.29.33-.06.07h0c-.21.22-.5.54-1.29,1.33a8.63,8.63,0,0,1-1,0l.37.11c.25.08.36.46.47.47,1.37.09,2.71.15,4.06.17s2.75.08,4.18.22a1.54,1.54,0,0,1,1.34.5c.3.37.17.69-.28.76A10.31,10.31,0,0,1,505,368a24.22,24.22,0,0,1-3.84.73c-2.69.31-5.46.43-8,.51-.56.08-1.14.21-1.68.33l-1.52.36.23.05c-.24,0-.61,0-.55.16v0h.2a3.8,3.8,0,0,1,.4.07h.46a17.82,17.82,0,0,1,3.89-.46c.76,0,1.46,0,2.24,0l2.38.12a15.83,15.83,0,0,1,2.68.37l2.76.61a1.37,1.37,0,0,1,1,.54c.14.26-.1.43-.53.4-1.25.13-2.45.16-3.76.24-.64,0-1.24,0-1.89,0l-1,0h-.89c-1.26,0-2.39-.08-3.51-.13l-1.58-.16a3.58,3.58,0,0,1-.37-.06c-.09,0-.28-.06-.31-.05l-.11.06a1.45,1.45,0,0,1-.84.3h0l.49.08c-.17.11-.6,0-.81.14l.62.19a1.55,1.55,0,0,0-.47,1.31c.05.46.22.84.25,1.2a.18.18,0,0,1,.05.08c.35.12.69.21,1,.3l.22.06.05,0,.17.08.35.16c.46.21.92.4,1.39.6a13.61,13.61,0,0,1-1.67-.92c.64.31,1.35.56,2,.79l.23.09.13,0,.06,0,.12.08,1.95,1.29c.68.46,1.38.91,2.14,1.47a23,23,0,0,1,2.48,2l.46.45c.17.16.35.36.51.54a12.26,12.26,0,0,1,1,1.36,7.38,7.38,0,0,1,.5.94,5.51,5.51,0,0,1,.42,1.09,9.29,9.29,0,0,1,.28,1.27,10.14,10.14,0,0,1,0,1.35,7.57,7.57,0,0,1-1.79,4.33,10,10,0,0,1-2.31,1.95,22.18,22.18,0,0,1-3.64,1.78l-1.15.46-.36.11a11.51,11.51,0,0,0-1.47.55,1.7,1.7,0,0,0-.62.51,1.62,1.62,0,0,1-.1.18,1.21,1.21,0,0,1,0,.19.68.68,0,0,0,.1.35,4.66,4.66,0,0,0,1,1l.28.24.14.13.07.06v0l0,0c-.05,0,0,0,0,0l.17.14a15.52,15.52,0,0,1,2.66,2.61,12.53,12.53,0,0,1,2,3.71,11.91,11.91,0,0,1,.48,2.05c.06.7.1,1.39.09,2.06a15.36,15.36,0,0,1-.29,2,13.31,13.31,0,0,1-.58,1.72,13.63,13.63,0,0,1-.7,1.38c-.24.38-.48.75-.71,1.08a28.21,28.21,0,0,1-2.1,2.76c-.59.71-1.1,1.31-1.48,1.83a6.3,6.3,0,0,0-1.29,2.81,4.54,4.54,0,0,0,0,1.36,5.36,5.36,0,0,0,.63,1.71c.79,1.5,2,3.54,3,5.58a56,56,0,0,1,4.12,12.93c.43,2.24.7,4.56.94,6.73L502,454c.08.53.16.83.27,1.32.19.9.43,1.79.65,2.67.51,1.91,1.05,3.85,1.67,5.76s1.29,3.9,2,5.85c1.39,3.88,3,7.81,4.42,11.69a99,99,0,0,1,6.27,23.36c.21,1.61,0,3-.29,3.32s-.71-.9-.89-2.5a99.19,99.19,0,0,0-3.91-16.8c-1.81-5.62-4-11.26-6-16.91-1-2.81-1.9-5.65-2.73-8.46-.4-1.4-.78-2.79-1.12-4.2l-.26-1.05-.22-1c-.15-.65-.29-1.3-.41-2-.26-1.16-.34-2.81-.52-4.39s-.37-3.23-.66-4.84a53.32,53.32,0,0,0-2.55-9.41,50.71,50.71,0,0,1,2.15,7.84,66.23,66.23,0,0,1,1,8.05c.05.66.09,1.28.15,1.86s.16,1.06.26,1.62c.2,1.12.39,2.15.65,3.37.51,2.37,1.05,4.71,1.71,7.11,2.51,9.54,5.88,19.19,7.53,28.89.49,2.48.88,5,1.18,7.46a45,45,0,0,1,.24,7.33c-.1,12.38-.44,24.44-.7,36.58s-.52,24.33-.67,37c-.24,21.59-.67,40.49-1.64,62-1.42,30.2-3.95,57.69-9.73,87.5a44.06,44.06,0,0,1-2.06,8.1c-.35.48,0-2.4.64-6.38,2.48-15.55,4.13-31,5.39-46.52s2.1-31,2.73-46.59c1.27-31.18,1.81-62.73,2.85-95.25.21-7,.42-13.91.62-20.77a.64.64,0,0,1-.37.16c-.48,0-.92-.66-1.28-1.76q-.39,11.68-1.05,23.52c.5,21.94.65,43.91-1,67.28-1.16,16.05-2.9,30.57-4.54,45.42-.77,18.82-1.79,37.58-3.59,56.58a8.8,8.8,0,0,1-.28,1.82c-.1.27-.14-.14-.09-.9.85-13.07,1.38-26.47,1.76-40-.5,2.13-1,3.39-1.54,3.22s-.9-1.83-1.14-4.36l-.46,9.19c-.11,1.9-.38,3.39-.62,3.33s-.39-1.55-.31-3.36q.74-18.75,1.49-37.46c.14-15,.2-29.92.24-44.93a10.74,10.74,0,0,1-1.85,4.32h0c0,2.33-.05,4.65-.08,7q.9,31.82.27,64.29t-2.9,65.29a8.24,8.24,0,0,1-.18,1.58,6.19,6.19,0,0,1,0-1.42q1.23-19.8,1.95-39.51v0c-.08.53-.2.63-.24.05a11,11,0,0,1,.07-2.06c.09-.61.2-.55.25,0,.86-24.47,1.06-48.77.6-72.75q-.44,33.42-1.66,66.8c.05,2.43.1,4.85.16,7.32a7.65,7.65,0,0,1-.19,1.81c-.08.19-.17-.3-.17-1l0-2c-.17,4.22-.65,7.46-1.12,7.39-.48-.24-.83-3.86-.78-8.24q0-17.58.08-35.07l-.1-3.8c-.1-1.27-.21-2.54-.31-3.81-.39,18.16-.74,36.29-.87,54.3a7.84,7.84,0,0,1-.27,2.9,7,7,0,0,1-.33-2.77c-1.09-31.76-2.38-63.92-3.13-96.22-1.38-10.61-2.86-21.26-4.34-32.1,0,1.36,0,2.74,0,4.12.17,17.56,1.45,33.8,2.69,49.89s2.47,32,3.07,49a4.29,4.29,0,0,1-.13,1.67c-.1.09-.22-.49-.25-1.35-.72-16.59-2.11-31.74-3.3-48.21-1-13.64-1.92-26.61-3.15-39.3.83,25.92,3.05,50.78,4.4,76.44a16,16,0,0,1,0,3,1.52,1.52,0,0,1,.18.63c.41,3.21.74,6.71,1,10.28a7.13,7.13,0,0,1-.05,1.91C486.49,694,486.37,693.6,486.28,692.84Zm2.5-329.21.2,0-.54.07-1.11-.27S488,363.51,488.78,363.63Zm4.86-6.88h0l.71.31Zm7.4,99.63c-.14-.8-.28-1.6-.36-2.36l-.2-2.71c-.14-1.88-.33-3.82-.65-5.72a49.36,49.36,0,0,0-3.1-11,48.19,48.19,0,0,0-2.48-5.1,13.31,13.31,0,0,1-1.74-3.74,4.31,4.31,0,0,1,0-1.35,6.67,6.67,0,0,1,.33-1.45,9.33,9.33,0,0,1,1.73-2.74,9.23,9.23,0,0,0-1.62,2.7,5.68,5.68,0,0,0-.27,2.67c0,1.12,1.68,3.53,3,6.14a49.28,49.28,0,0,1,3.09,8.13,52.17,52.17,0,0,1,1.62,8.6c.16,1.45.24,2.91.33,4.29,0,.67.06,1.38.14,1.9S500.94,455.79,501,456.38Zm-5.15-92.29a19.64,19.64,0,0,1-2.82-.73,4.51,4.51,0,0,1-1.26.7c-1.2.54-2.44,1-3.54,1.53.34.13.07.25,0,.35s-.24.18-.33.27c.61-.25,1.24-.49,1.88-.71s1.37-.41,2-.59,1.32-.34,2-.5A13.62,13.62,0,0,1,495.89,364.09Zm8.87-4,.21.12.1.63Zm-.21-1.08-.26,0C504.22,358.72,504.34,358.78,504.55,359Zm-2.37-.21a3,3,0,0,0,.46.22Zm-11.92-15.24,1.18,3.19-1.05-3.14Z"/><path d="M518.42,431.76l.65,0a1.53,1.53,0,0,1-.93.86,13.72,13.72,0,0,0,7.42-3.87,20.5,20.5,0,0,0,4.43-6.37c1.37-.73,2.06-2.07,1.55-3s-2.14-1.13-3.6-.39a6.22,6.22,0,0,1-1.14.2,27.81,27.81,0,0,0-9.6,1.44l2.26-.24a11.14,11.14,0,0,0-2.8,1.09l.73.28c-3.68.58-7,3.49-7.09,6.43s3,4.61,6.52,3.87Z"/><path d="M527.46,433.44c-1.85.44-3.68.85-5.59,1.25l-.55-.08,1.4,1.22-.06-.1c.1-2,1.67-4,3.29-5.71l.51-.67a1.3,1.3,0,0,0,0-1.14,1.89,1.89,0,0,0-2.56-.39l-1.16.63c-3.26,1-7.43,4.1-6.43,7.43.24.75,1.21,1.17,1.91,1.7a2.88,2.88,0,0,0,3.73,0c1.21-.91,1.57-2.36.8-3.29l.79-.3c-.06.23-.11.46-.17.69-.41-1,.52-2,1-3.06l1-1.13-2.6-1.51-.42.75c.13,0,.35.11.35.12a33.23,33.23,0,0,1-2.36,4.33c-.31.68-.62,1.38-.92,2.08a1.21,1.21,0,0,0,1.45,1.21l1.17-.16h-.59c2.13-.92,4.13-2,6.22-2.82a.71.71,0,0,0,.53-.74A.54.54,0,0,0,527.46,433.44Z"/><path d="M521.9,438.38a1.9,1.9,0,0,0-1.19.49c0,.17,0,.25,0,.3l.88-.11C522.23,439,522.22,438.64,521.9,438.38Z"/><path d="M520.72,439.17l-.37,0,.35.06,0,0Z"/><path d="M577.24,575.6l-.32.91c-.1.25-.16.32-.24.5l-.46.9a20,20,0,0,0-.82,1.83,30.76,30.76,0,0,0-1.32,3.86,17.23,17.23,0,0,0-.6,4.12,8.45,8.45,0,0,0,.9,4.07,6.42,6.42,0,0,0,3.11,2.71,12.33,12.33,0,0,0,4.09.89,30.32,30.32,0,0,0,4.26,0l2.15-.19,4.91-.58c.85-.11,1.54-.33,1.55-.52s-.66-.24-1.44-.13l-5,.58-2.06.18a28.86,28.86,0,0,1-4.05,0,12.24,12.24,0,0,1-3.89-.83,6.29,6.29,0,0,1-3-2.54,7.67,7.67,0,0,1-.9-3.85,15.43,15.43,0,0,1,.55-3.9,27.14,27.14,0,0,1,1.24-3.66c.26-.59.47-1.17.77-1.74l.44-.85.22-.43a3,3,0,0,0,.14-.37l.16-.45a2.77,2.77,0,0,0,.19-1.42C577.72,574.58,577.46,575,577.24,575.6Z"/><path d="M722.73,596.61c-.54-.56-.63-.46-.25.25a15.42,15.42,0,0,0,1.48,2.2c.41.49.54.38.25-.24A12.14,12.14,0,0,0,722.73,596.61Z"/><path d="M710.44,598.67a26.43,26.43,0,0,0-8.35-5,6.88,6.88,0,0,1-1.33-.67c.06.29-.58.24-1.64-.07-5.26-1.41-10.7-.66-16.91,1.43-.77.25-1.55.54-2.35.84l-2.45,1-2.45,1-2.44,1.09c-3.26,1.49-6.49,3.16-9.76,4.94-6.52,3.56-13.09,7.64-20.13,11.81l-2.69,1.57c-1,.54-1.89,1.08-2.86,1.6-1.93,1.07-3.92,2.07-5.91,3.06a128.53,128.53,0,0,1-12.43,5.25,3.41,3.41,0,0,1-1.26,1.1c-2.18,1.45-7,3.21-12.11,4.13-1.29.22-2.58.38-3.87.57-1.93.29-4,.56-5.65.76l-2.83.34c-1.26.17-2.53.3-3.8.43a104.54,104.54,0,0,1-15.05.6A55.67,55.67,0,0,1,559.92,632a35.39,35.39,0,0,1-12.4-6.58,18.32,18.32,0,0,1-2.42-1.83,19.69,19.69,0,0,1-2.33-2.25l-1.1-1.3c-.36-.44-.67-.93-1-1.4s-.67-1-1-1.47-.56-1.06-.85-1.59a37.09,37.09,0,0,1-4.07-11.42c-.18-1-.35-2-.48-3.05a22.9,22.9,0,0,1-.32-3.12,49.89,49.89,0,0,1,.07-6.46,65.17,65.17,0,0,1,2.4-13.41c.63-2.28,1.57-4.44,2.4-6.67l1.29-3.34c.11-.27.2-.56.33-.83l.42-.77.85-1.55c-.77,1-1.35,1.52-1.58,1.44-.18-.25.21-1.37,1-3,.4-.82.89-1.77,1.45-2.8.15-.25.29-.52.44-.78a7.8,7.8,0,0,1,.45-.75c.29-.42.58-.86.89-1.3l1.85-2.66.94-1.31,1-1.25a42.37,42.37,0,0,0-2.88,3.65l-1.39,1.89-.69.95c-.24.33-.51.8-.76,1.19-2,3.31-4.3,6.45-5.75,10.18-.46,1-.91,2-1.34,2.88a46.79,46.79,0,0,0-2.31,6.11c-.65,2.08-1.17,4.17-1.62,6.28a60.59,60.59,0,0,0-1.3,12.55,43.4,43.4,0,0,0,.58,6.59,44.47,44.47,0,0,0,1.34,6.33c.35,1,.68,2,1.06,3l1.26,3,1.55,2.81c.58.9,1.22,1.77,1.82,2.65s1.34,1.7,2,2.53,1.53,1.53,2.29,2.28a30.53,30.53,0,0,0,2.47,2.08,23.84,23.84,0,0,0,2.63,1.84,43.84,43.84,0,0,0,11.68,5c8.23,2.17,17.18,2.2,26,1.16,2.2-.26,4.38-.58,6.56-.9.54-.07,1.09-.19,1.62-.27l1.39-.25,2.18-.41,4.59-.93c1.58-.36,3.16-.7,4.74-1.11a128.23,128.23,0,0,0,18.54-6.14,136.85,136.85,0,0,0,17-8.67c10-6.07,18.71-12,27.65-16.66a7,7,0,0,1,2.09-.86c.41,0,.41.18-.23.53A180.87,180.87,0,0,0,655,612.4l-8.08,5.91-4.26,3.05c-1.57,1.08-3.17,2.15-4.83,3.19a121.48,121.48,0,0,1-34.51,15c-1.07.3-2.15.55-3.23.81l-3,.72-1.48.33-.76.17-.48.1-.6.11c-1.61.34-3.27.56-4.93.84-2,.31-4,.57-6,.85s-4,.39-6,.46l-3,.13c-1,.06-2,0-3,0s-2,0-2.95-.1l-2.92-.25c-1-.07-1.92-.23-2.87-.38s-1.91-.29-2.85-.48a56.66,56.66,0,0,1-5.52-1.46,46.57,46.57,0,0,1-10.35-4.62l-2.39-1.55-2.25-1.77a24.14,24.14,0,0,1-2.16-1.89l-1-1-.26-.25-.07-.06c-.09,0-.06,0-.1,0l-.11-.14-.48-.54a45,45,0,0,1-6.56-9.27,44.34,44.34,0,0,1-4-10.58c-.42-1.87-.77-3.77-1.11-5.68a17.4,17.4,0,0,1-.32-2.93c0-1-.18-2-.14-3a64.09,64.09,0,0,1,1-12.43A61.2,61.2,0,0,1,527.11,573l2.56-6.17.64-1.55.32-.77a6.94,6.94,0,0,1,.41-.71l1.7-2.82,1.7-2.83.86-1.41.42-.71c.15-.23.3-.5.41-.64q1.44-2.08,2.91-4.13c.5-.67,1-1.37,1.5-2l1.63-1.92,1.64-1.89c.55-.63,1.1-1.25,1.68-1.8q1.72-1.73,3.47-3.4c1.17-1.08,2.34-2,3.52-3a147.15,147.15,0,0,1,13.32-9.56c4.35-2.72,8.31-5.15,11.79-7.81,1.82-1.3,3.42-2.7,5.07-4.11.85-.68,1.56-1.46,2.34-2.2s1.53-1.49,2.27-2.27c1.41-1.6,2.82-3.2,4.16-4.88s2.6-3.49,3.78-5.22a51.53,51.53,0,0,0,5.46-10.48,41.31,41.31,0,0,0,2.63-11.1,34.81,34.81,0,0,0-.59-10.86l-.28-1.3c-.11-.43-.25-.84-.37-1.25-.22-.84-.55-1.65-.83-2.47A31.66,31.66,0,0,0,599,459a30.07,30.07,0,0,0-6-7.63,12.47,12.47,0,0,0-4.16-2.62,2.59,2.59,0,0,0-.78-.19l-.17,0a.29.29,0,0,0-.1,0l-.2.08c-.25.12-.49.28-.82.42a5.62,5.62,0,0,1-1.58.43c-.35.09-1.82.05-1.85.2a7.79,7.79,0,0,0-1,.31,21.82,21.82,0,0,0-4.07,2c-.33.19-.7.48-1.05.7a5.31,5.31,0,0,0-.53.38l-.12.1-.38.33c-.25.21-.52.48-.77.7s-.51.48-.77.73-.51.48-.77.75c-1,1-2.09,2.13-3.14,3.32s-2.09,2.46-3.13,3.82c-1.27,2.37-4.06,2.58-6.47.29a7.59,7.59,0,0,1-2.3-5.35l-.51.52-1,.57a4,4,0,0,1-3.27.23l-1.51-.43c-2.57-1.18-5.42-1.44-8.19-2.81l-.65-1-.38,0a5.56,5.56,0,0,1-3.2-1l-.94-1a12.87,12.87,0,0,1-2.28-4.06,4.47,4.47,0,0,1-1-1.36,6.45,6.45,0,0,1-3.48-2.9.88.88,0,0,1-.85-1.05,1.06,1.06,0,0,1,.25-.51h0a8.75,8.75,0,0,0-1-.23l-.6.25-1.75.95a5.6,5.6,0,0,1-1.77,0c-2.48-1.12-2.5-1.12-3.19-1.95,0-.11-.07-.22-.1-.33a11.24,11.24,0,0,1-1.09.3,2.52,2.52,0,0,1-.56-.05c-.46-.38-.46-.38-.71-.44a2.12,2.12,0,0,1-.36-.28c-.18-.7-.18-.7-.31-.84a1.93,1.93,0,0,1-.06-.36l.35-.71,1.88.36-.2-.51.68.32-.56-.35.67-.07h-.85a5.88,5.88,0,0,0,1.45-1,2.41,2.41,0,0,0,.71-.69,1.63,1.63,0,0,1-.28-.21c1.19-.65,1.18-.65,2.35-1.25a3.84,3.84,0,0,1,.51.1.56.56,0,0,1,.33-.53l.59-.33,0-.15,0,0,.24-.55,0-.12h0c.17-.38.42-.92,1.11-2.35a10.69,10.69,0,0,1,1.09-.43h-.44c-.29,0-.48-.52-.61-.5a42.64,42.64,0,0,0-8.68,3.82,1.2,1.2,0,0,1-1.42.24.76.76,0,0,1,0-1.21c2.89-6,10-10.14,16.87-11.72l4.93-2-.35-.09,1.41-.32.14-.05-1.4-.26-.77.12c-3.79,1.62-7.79,2.36-11.75,3.76-2.11.75-4.24,1.08-6.4,1.71a1,1,0,0,1-1.23-.13c-.2-.31,0-.78.5-1,5.27-4.31,12.76-7.77,19.35-7.7a8.34,8.34,0,0,1,3.56-.83h.06l-1.07-.28a19.34,19.34,0,0,1,2.62-.09l-.77-.71c2.29-.7,4.65-1.52,7-2.22a26.13,26.13,0,0,1,7.21-1.14l.53-.06a22.41,22.41,0,0,1,2.63-1.54l.73-.32a1.2,1.2,0,0,1,.23-.09l1.06-.26,2.21-.45a58.88,58.88,0,0,1,9.51-1.05c-1.14,0-2.27,0-3.38.1s-2.24.13-3.32.26-2.21.23-3.28.41l-1.64.25-1.41.25h0l.19-.05.42-.11c.28-.08.56-.15.86-.21l1.73-.36c1.15-.26,2.35-.42,3.54-.62a60.35,60.35,0,0,1,7.33-.63c1.25,0,2.52,0,3.79,0s2.56.17,3.85.28l1.94.27,1,.15.49.08.24,0,.13,0L592,408a45.83,45.83,0,0,1,11.49,4.07,44,44,0,0,1,5.43,3.36c.79.6,1.58,1.22,2.34,1.83s1.43,1.28,2.13,1.92A54.46,54.46,0,0,1,625,435.46a61.15,61.15,0,0,1,4.89,15.34,53.6,53.6,0,0,1,.92,11.91,77.47,77.47,0,0,1-.35,16.83,93.18,93.18,0,0,1-3.61,16,107.84,107.84,0,0,1-6.14,14.93c-.62,1.18-1.2,2.39-1.86,3.55l-1,1.75-1,1.64-2,3.31c-.65,1.1-1.32,2.2-2,3.27-2.79,4.34-5.74,8.65-8.89,12.79L601.58,540l-2.41,3L598,544.51,596.75,546l-2.41,2.95c-3.15,3.82-6.23,7.55-8.76,11a56,56,0,0,0-5.79,9.93c-.54,1.31-1.09,2.34-1.44,2.41s-.17-1,.32-2.35c.47-1.16,1.06-2.31,1.59-3.51s1.34-2.39,2.06-3.62,1.61-2.48,2.52-3.76,1.88-2.54,2.94-3.88c4.15-5.25,9-10.9,13.55-16.79A201.62,201.62,0,0,0,614,520l2.83-4.76c.94-1.66,1.85-3.36,2.71-5.08a104,104,0,0,0,4.6-10.6c-1.16,3-2.5,5.95-3.94,8.82-.72,1.44-1.49,2.85-2.26,4.25l-1.21,2.09-1.23,2c-1.64,2.62-3.24,5.27-5.06,7.81-.9,1.27-1.73,2.6-2.67,3.85L605,532.07c-3.81,5-7.89,9.86-12,14.41s-8,8.92-11.2,13.11l-1.18,1.63c-.37.54-.7,1.07-1,1.6l-1,1.6c-.33.52-.58,1.06-.88,1.59-.56,1-1.18,2-1.63,3.06l-.76,1.5-.38.73-.33.77-.74,2-.36.92-.28.61a25.81,25.81,0,0,0-1,2.43,46.54,46.54,0,0,0-1.63,5,26.28,26.28,0,0,0-.84,5.13,12.45,12.45,0,0,0,.7,5.1,7.5,7.5,0,0,0,3.29,3.88,12,12,0,0,0,5,1.43,25.59,25.59,0,0,0,5.25-.12c.88-.09,1.74-.22,2.6-.36l1.29-.23c.47-.08.67-.14,1.76-.31,3.31-.51,5.82-.93,8.5-1.51s5.18-1.2,7.66-1.92A101,101,0,0,0,620,588.58c2.38-1.12,4.57-2.24,7.3-3.69l8.19-4.33c5.67-3,11.77-6.08,18.56-9a130.85,130.85,0,0,1,14.83-5.34,78.53,78.53,0,0,1,17.56-3.3,52.22,52.22,0,0,1,20.77,3,49.18,49.18,0,0,1,9.47,4.7,61.47,61.47,0,0,1,7.64,5.8,63.48,63.48,0,0,1,6.51,6.86,67.59,67.59,0,0,1,5,7.27,99.1,99.1,0,0,1,6.83,13.9l1.31,3.27c.45,1.15.92,2.37,1.35,3.56.87,2.41,1.63,4.85,2.34,7.31a112.72,112.72,0,0,1,3.16,15,55.56,55.56,0,0,1,.6,7.35,11.68,11.68,0,0,1-.37,3.82c-.43.71-1-3.09-1.74-8.41A110.3,110.3,0,0,0,746,621c-.75-2.54-1.6-5.06-2.53-7.55-.47-1.24-1-2.48-1.48-3.71l-1.47-3.45a102.49,102.49,0,0,0-7.42-14.39,58.34,58.34,0,0,0-12.38-14.14c-1.25-1.06-2.58-2-3.9-2.94l-2-1.32c-.66-.43-1.5-.88-2.25-1.3a46.41,46.41,0,0,0-9.94-4,50.46,50.46,0,0,0-20.4-1.14,75.59,75.59,0,0,0-8.85,1.79c-1.37.36-2.64.74-4,1.11s-2.59.8-3.87,1.23A157.81,157.81,0,0,0,650.8,577c-4.69,2.13-9.15,4.39-13.47,6.62L631,587l-3.09,1.6-2.94,1.5a101.36,101.36,0,0,1-23.21,8.36c-2,.47-4.09.85-6.16,1.22l-3.21.49-3.42.49a61.32,61.32,0,0,1-7.81.8,26.12,26.12,0,0,1-3.95-.18,15,15,0,0,1-3.84-.93,9.48,9.48,0,0,1-4.58-3.67,11,11,0,0,1-.84-1.81,15.46,15.46,0,0,1-.6-6.78,34.7,34.7,0,0,1,1.44-6.59,1,1,0,0,1-.36.1c-.44,0-.73-.42-.83-1.18a43.2,43.2,0,0,0-2,8.15,24.41,24.41,0,0,0-.18,4.28,15.42,15.42,0,0,0,.89,4.23,9.85,9.85,0,0,0,4.22,4,15.7,15.7,0,0,0,5.71,1.47,47.71,47.71,0,0,0,11.56-.88l1.43-.24,2.43-.37,2.38-.37c.74-.13,1.49-.23,2.23-.37,3-.51,5.89-1.13,8.79-1.84a120.49,120.49,0,0,0,17.26-5.69l3-1.25,3-1.35,6.35-2.9c4.27-1.94,8.62-3.9,13.08-5.71s9-3.53,13.74-5c2.36-.74,4.74-1.43,7.17-2,1.21-.31,2.42-.61,3.65-.87l1.85-.4,1.92-.38a64.88,64.88,0,0,1,10.37-1.7,45.3,45.3,0,0,1,11.38.55A41.69,41.69,0,0,1,709,575.36c.89.41,1.72.91,2.57,1.38s1.56,1,2.34,1.46a50.88,50.88,0,0,1,4.4,3.25,53.1,53.1,0,0,1,7.58,7.72,66.15,66.15,0,0,1,5.7,8.47c1.63,2.84,3,5.65,4.32,8.43.62,1.38,1.24,2.76,1.83,4.12s1.23,2.87,1.81,4.32a9.56,9.56,0,0,1,.71,2.32c0,.38-.26-.09-.66-1s-.85-2-1.29-3L736.94,610c-.87-1.85-1.81-3.75-2.78-5.65a88.17,88.17,0,0,0-7.08-11.61,56.21,56.21,0,0,0-4.73-5.63,52.15,52.15,0,0,0-5.65-5c-1-.79-2.06-1.49-3.1-2.21s-2.07-1.34-3.3-2a39.41,39.41,0,0,0-7.47-3.13c3.13,1.54,4.6,3,4.1,3.47s-3-.16-6.66-.75a36.57,36.57,0,0,1,6.29,2.44c1,.47,2,1.06,2.94,1.6s1.8,1.15,2.66,1.78c2.16,1.55,3.55,3.15,3.3,3.31s-2-.94-4-2.35c-.87-.62-1.77-1.17-2.67-1.75s-1.89-1.11-2.9-1.56a35.15,35.15,0,0,0-6.23-2.35,39.45,39.45,0,0,0-13-1.17,61.73,61.73,0,0,0-12.23,2.26c-3.86,1.05-7.63,2.3-11.32,3.71a264.11,264.11,0,0,0-25,12.3l-6,3.2c-2,1-3.89,2-5.87,2.95a110.23,110.23,0,0,1-12,4.91,14.32,14.32,0,0,1,5.41.13h0c2.56-1,5.07-2.05,7.55-3.19,5.55-2.83,11.09-6.16,16.79-9.3s11.54-6.26,17.67-9c3.06-1.35,6.21-2.59,9.42-3.69,1.6-.57,3.23-1.06,4.86-1.56s3.35-.92,5.09-1.28a45.79,45.79,0,0,1,10.87-1A35.34,35.34,0,0,1,703,580l1.34.5,1.3.59c.88.37,1.7.84,2.54,1.29a47.59,47.59,0,0,1,4.63,3,45.43,45.43,0,0,1,8,7.56c4.65,5.61,7.87,11.84,10.73,17.91,1.41,3,2.84,6.21,4,9.41s2.27,6.49,3.17,9.8a111.92,111.92,0,0,1,3.6,20.18,5.64,5.64,0,0,1,0,2,4.7,4.7,0,0,1-.32-1.74,112.58,112.58,0,0,0-4.82-24.2,105.32,105.32,0,0,0-4.4-11.59c-1.69-3.71-3.39-7.36-5.41-11l0,.06c.25.63.18.81-.26.21a16.64,16.64,0,0,1-1.28-2.27c-.31-.72-.15-.73.24-.23a56.8,56.8,0,0,0-7-9.69,43.47,43.47,0,0,0-9.38-7.86,37,37,0,0,0-5.56-2.9,35.55,35.55,0,0,0-6.05-1.86,38.46,38.46,0,0,0-12.36-.45,60.9,60.9,0,0,0-11.49,2.6c-3.64,1.14-7.19,2.46-10.66,3.93a202.65,202.65,0,0,0-19.87,10c6-3.14,12.16-6.2,18.56-8.83,3.19-1.32,6.45-2.52,9.77-3.56a78.27,78.27,0,0,1,10.24-2.6,43,43,0,0,1,10.9-.57A34,34,0,0,1,704,582.36a40.73,40.73,0,0,1,9.22,5.84,43.87,43.87,0,0,1,7.35,7.83,64.49,64.49,0,0,1,5.45,7.49,8.21,8.21,0,0,1,.94,2.08c0,.26-.39-.22-.84-1s-.88-1.44-1.36-2.15c2.6,4.59,3.76,8.45,3.14,8.66s-3.12-3.68-5.87-8.2a45.53,45.53,0,0,0-14.64-15.09,30.61,30.61,0,0,0-9.68-4,33.7,33.7,0,0,0-10.46-.63c-1.51.18-3,.45-4.49.77s-2.92.88-4.36,1.41a42.25,42.25,0,0,1,16-1.3,29.16,29.16,0,0,1,7.63,2.08,34.08,34.08,0,0,1,6.84,4,44,44,0,0,1,10.75,11.66,122.4,122.4,0,0,1,7.64,14.27c.82,1.66,1.3,3.17,1.11,3.29s-1-1.14-1.81-2.78a134,134,0,0,0-7.13-12.23,45.78,45.78,0,0,0-9-10.07A35.52,35.52,0,0,0,705,590.6a28.11,28.11,0,0,0-5.86-2.45,29.16,29.16,0,0,0-12.6-.59A51.66,51.66,0,0,0,680,589c-2.17.65-4.4,1.42-6.57,2.22a138.11,138.11,0,0,0-12.9,5.64c-4.25,2.09-8.45,4.39-12.69,6.73s-8.47,4.75-13,7.14a126.22,126.22,0,0,1-18.17,9.78,133.73,133.73,0,0,1-20.05,6.83c1.74-.25,3.55-.52,5.33-.86a110.65,110.65,0,0,0,31.65-11c4.85-2.57,9.06-5.2,13.26-7.74s8.26-5,12.35-7.35,8.19-4.48,12.4-6.34a79.83,79.83,0,0,1,12.74-4.61,29.88,29.88,0,0,1,12.48-.64,24.27,24.27,0,0,1,6,1.91c1,.43,2,1,2.94,1.57l1.43.91c.47.32.92.66,1.38,1a3.26,3.26,0,0,1,1.24,1.3c0,.16-.57-.14-1.27-.71a33.76,33.76,0,0,0-5.54-3.35,22.94,22.94,0,0,0-5.65-1.9,28.47,28.47,0,0,0-11.81.43,50.91,50.91,0,0,0-6.08,1.81c-2.09.77-4.19,1.59-6.26,2.5-4.15,1.82-8.27,3.9-12.45,6.19-6.94,3.81-13.63,8-20.56,12.22A143.91,143.91,0,0,1,617.41,624a122.24,122.24,0,0,0,23.17-10.52c6.86-3.94,13.27-7.88,19.69-11.39a128.33,128.33,0,0,1,19.49-8.86c6.46-2.23,12.53-3.19,18.14-1.73a7,7,0,0,1,2.47,1,1.05,1.05,0,0,1,.62,0c.36.11.71.25,1.08.38a9,9,0,0,1,1.12.45l1.17.54c.39.19.76.4,1.15.61.78.4,1.5.91,2.27,1.38s1.48,1,2.17,1.65a4.52,4.52,0,0,1,1.31,1.48C711.44,599.4,711,599.18,710.44,598.67ZM541.52,431l-.24-.06.65-.06,1.39.56Zm-4.75,9.32h0L536,440ZM612.09,521l3.47-5.63c1.17-1.88,2.27-3.93,3.32-5.93a102.24,102.24,0,0,0,5.48-12.55,86.57,86.57,0,0,0,5.27-27.42,79,79,0,0,1-1.11,13.78,81.3,81.3,0,0,1-2.63,10.24,88,88,0,0,1-3.74,9.75,102.53,102.53,0,0,1-4.7,9.23l-1.31,2.23-1.35,2.1ZM533,431.09a12.83,12.83,0,0,1,3.38.46,5.71,5.71,0,0,1,1.43-1.18,37.45,37.45,0,0,1,4.49-2.32c-.43-.24-.07-.4.07-.55l.47-.41-5.1,2C536.17,429.74,534.58,430.57,533,431.09ZM524.53,440l-.24,0-.28-.72Zm.5,1.2.26-.1C525.42,441.32,525.29,441.3,525,441.17Zm2.38-.87a2.4,2.4,0,0,0-.52-.06Zm15.9,13.89-2-3.08,1.83,3Z"/><path d="M610.72,469.6l.37,0c-.06.22-.27.36-.56.47,3.49-.1,6-3,7.23-5.78a1.39,1.39,0,1,0-1.15-2.45,3.26,3.26,0,0,1-.68.05,13.5,13.5,0,0,0-5.56.27h1.29a5.22,5.22,0,0,0-1.62.53l.41.24a4.28,4.28,0,0,0-4.14,3.6,3,3,0,0,0,3.49,3.06Z"/><path d="M615.92,471.49c-1.13.11-2.21.22-3.34.31l-.31-.11.75.91,0-.07a6.16,6.16,0,0,1,2.18-3.41l.32-.4a.9.9,0,0,0,0-.75,1.08,1.08,0,0,0-1.49-.46l-.7.31c-1.94.42-4.39,2-4,4.2.1.5.62.86,1,1.26a1.56,1.56,0,0,0,2.13.36,1.49,1.49,0,0,0,.63-2c.16,0,.32-.09.48-.12l-.13.42c-.19-.69.39-1.27.7-1.89l.67-.65-1.48-1.21-.27.46.2.11a18.23,18.23,0,0,1-1.54,2.59l-.62,1.24a.8.8,0,0,0,.76.91h.68l-.34-.05c1.27-.38,2.51-.92,3.79-1.24a.41.41,0,0,0,.35-.43A.33.33,0,0,0,615.92,471.49Z"/><path d="M612.41,474.15a.92.92,0,0,0-.71.19,1.77,1.77,0,0,0,0,.19l.51,0C612.57,474.57,612.58,474.34,612.41,474.15Z"/><path d="M611.69,474.53l-.22,0,.2.08,0,0Z"/><path d="M696.25,463.49a12.17,12.17,0,0,0,6.78.45,18.07,18.07,0,0,0,7.32-4.1c.16-.15.26-.31.21-.38s-.21,0-.36.16a17.77,17.77,0,0,1-7.22,4,11.85,11.85,0,0,1-6.61-.46c-.16,0-.35-.05-.39,0S696.08,463.43,696.25,463.49Z"/><path d="M732.87,433.14c0,.2,0,.21.15,0a1.8,1.8,0,0,0,.23-.65c0-.17-.06-.18-.15,0A1.83,1.83,0,0,0,732.87,433.14Z"/><path d="M736.9,436.45c-.3,1.16-.52,2.28-.73,3.28a2,2,0,0,1-.2.53c.12,0,.13.22,0,.64a83.9,83.9,0,0,1-10.84,25.39.86.86,0,0,1,0,.51,8,8,0,0,1-1.92,3l-.8.79a36.87,36.87,0,0,1-11.4,8.2c-.43.28-.89.57-1.4.85a13.68,13.68,0,0,1-1.72.74,19.88,19.88,0,0,1-3.12,1.24,23.72,23.72,0,0,1-3.34.86,24.12,24.12,0,0,1-3.45.44,27.73,27.73,0,0,1-3.4.05c.26.12.42.25.4.38s-1.19.38-2.4.22c-.59-.09-1.14-.2-1.71-.3a41.8,41.8,0,0,0,5.14.91c.27,0,.52,0,.74.07l1.55,0a12,12,0,0,0,1.58-.05c1.07-.11,2.16-.18,3.23-.37s2.33-.52,3.46-.83,2.16-.79,3.21-1.21,2-1,3-1.49,1.86-1.11,2.7-1.74a38.19,38.19,0,0,0,8.41-8.26,56.72,56.72,0,0,0,5.54-9l1.13-2.28,1-2.3c.32-.76.66-1.52.95-2.28l.84-2.3a2,2,0,0,1,.33-.66c.11-.08.17,0,.1.2l-.85,3c-.29,1-.63,1.94-.93,2.92-.58,2-1.36,3.88-2.13,5.87a44.31,44.31,0,0,1-7.56,12.37,37.82,37.82,0,0,1-8.16,7c-.79.51-1.65,1-2.5,1.44s-1.8.84-2.72,1.24l-1.4.59c-.47.19-1,.31-1.48.47-1,.28-2,.59-3,.81a40.93,40.93,0,0,1-12,.49l-2.66-.32-2.43-.38-2.27-.4-2.14-.4-2-.52-1.87-.44-.92-.21-.86-.16-1.7-.31a37.08,37.08,0,0,0-6.14-.46,39.51,39.51,0,0,0-11.41,1.93,51.39,51.39,0,0,0-8.05,3.4c-2.79,1.71-5.51,3.43-8.26,5.41-1.27,1.25-3.4.89-4.83-.86a4.73,4.73,0,0,1-1-3.64l-.41.25-.76.22a3.12,3.12,0,0,1-2.29-.32l-1-.46c-1.62-1.07-3.49-1.59-5.14-2.75l-.31-.67-.24-.08a3.75,3.75,0,0,1-1.95-1l-.48-.74a8.49,8.49,0,0,1-1-2.76,3.12,3.12,0,0,1-.51-1,4.25,4.25,0,0,1-1.91-2.19.58.58,0,0,1-.44-.74.67.67,0,0,1,.19-.3h0a4.94,4.94,0,0,0-.6-.25l-.38.1-1.13.42a3.24,3.24,0,0,1-1-.15c-1.38-1-1.38-1-1.73-1.55a1.55,1.55,0,0,1,0-.21l-.65.07a1.18,1.18,0,0,1-.32-.09c-.24-.28-.24-.28-.38-.34a1.57,1.57,0,0,1-.19-.21c0-.46,0-.46-.12-.56a1,1,0,0,1,0-.23c.15-.26.21-.37.24-.41l1.06.41-.09-.34.38.27-.31-.27.4,0-.5-.08a2.94,2.94,0,0,0,.9-.48,1.26,1.26,0,0,0,.45-.37l-.15-.16c.73-.31.73-.31,1.45-.59a2.68,2.68,0,0,1,.3.12.33.33,0,0,1,.21-.32l.37-.16,0-.09v0c.07-.14.11-.23.17-.33l0-.08h0l.77-1.44a4.1,4.1,0,0,1,.66-.19l-.26-.05c-.18,0-.27-.38-.35-.37a23.61,23.61,0,0,0-5.26,1.71.62.62,0,0,1-.83,0,.52.52,0,0,1,.08-.77c1.91-3.59,6.16-5.82,10.31-6.37,1-.31,2-.64,3-1l-.22-.08.85-.12.08,0-.84-.28-.46,0c-2.26.85-4.67,1-7,1.68-1.26.34-2.54.38-3.79.64a.53.53,0,0,1-.71-.18.52.52,0,0,1,.31-.65c3.17-2.46,7.59-4.3,11.49-3.81a3.82,3.82,0,0,1,2.09-.35h0l-.64-.27c.56-.11,1,.14,1.55.11l-.47-.55c2.68-.68,5.37-1.94,8.12-1.81l.3,0a14.71,14.71,0,0,1,1.36-1.12,3.11,3.11,0,0,1,.38-.25l.1-.06.25-.1.52-.19c.68-.25,1.4-.49,2.15-.71l-3.08.63c1-.42,2.1-.85,3.18-1.23s2.27-.64,3.47-.9a42.74,42.74,0,0,1,5.08-.65,38,38,0,0,1,5,0,21.89,21.89,0,0,1,7.69,1.75,70.72,70.72,0,0,1,18.5,2.76c5.82,1.63,10.94,3.75,14.84,4.82.38.09.68.3.71.47s-.27.25-.66.17c-2.8-.56-6.31-1.77-10.2-2.95a86.37,86.37,0,0,0-12.62-3,78.26,78.26,0,0,1,10.49,3.17c3.3,1.2,6.39,2.52,9.14,3.51.73.24,1.38.41,2.08.62s1.24.37,1.85.63a11.25,11.25,0,0,0,1.1.25l1.06.23,1,.1a4.32,4.32,0,0,0,.94.06,8.24,8.24,0,0,0,1.79-.08c.3,0,.6-.06.9-.11l.91-.25a13.06,13.06,0,0,0,3.74-1.62l.93-.58.92-.7a19.76,19.76,0,0,0,1.81-1.56,43,43,0,0,0,5.44-6.66,74.41,74.41,0,0,0,4.51-8.12c1-2.05,1.9-4.2,2.81-6.28.43-1.06.83-2.14,1.25-3.19s.85-2.11,1.22-3.2c.75-2.16,1.6-4.28,2.32-6.51s1.56-4.41,2.3-6.72c.37-1.23,1-2.31,1.26-2.38s.27.88-.1,2.12c-2.74,9.73-5.85,19.25-10.23,27.92a56.91,56.91,0,0,1-7.75,11.76,29.24,29.24,0,0,1-4.82,4.31,16.69,16.69,0,0,1-5.29,2.47,13,13,0,0,1-4.48.43.53.53,0,0,1,0,.17.7.7,0,0,1-.42.55,6.94,6.94,0,0,0,1.35.08,7.5,7.5,0,0,0,1.34,0q.66-.08,1.35-.12l1.38-.31c5-1.93,9.28-6.42,13.63-12a102.44,102.44,0,0,0,7.91-11.87,164.79,164.79,0,0,0,6.26-17.25,1.34,1.34,0,0,1,.26-.54c.08-.07.1.07,0,.31-.53,2.07-1,4.2-1.7,6.27s-1.26,4.19-2,6.25c.45-.57.84-.86,1.08-.71s.28.75.14,1.58l1.16-2.79c.23-.58.5-1,.62-.94s.08.57-.13,1.13c-.8,1.9-1.55,3.82-2.38,5.7s-1.67,3.76-2.65,5.54a68.36,68.36,0,0,1-7.27,12.61,3.21,3.21,0,0,1,1.46-.66h0l1.32-1.85a124.9,124.9,0,0,0,8.76-19.22c2.47-6.7,4.65-13.58,6.68-20.57.08-.27.19-.49.25-.48s0,.24,0,.48l-1.86,6.31-2,6.24h0c.09-.16.16-.17.15,0a1.93,1.93,0,0,1-.22.65c-.11.17-.17.13-.15,0a163.47,163.47,0,0,1-9,22.26,141.5,141.5,0,0,0,9-20.16c.19-.79.39-1.57.59-2.37a1.41,1.41,0,0,1,.26-.55c.07,0,.08.14,0,.36s-.1.44-.16.66c.48-1.32,1-2.28,1.34-2.16s.19,1.42-.29,2.8c-.63,1.86-1.23,3.73-1.88,5.58s-1.38,3.66-2.12,5.47l-.46,1.19-.35,1.24c1.33-2.75,2.46-5.58,3.63-8.39s2.17-5.69,3.09-8.57c.15-.5.37-.9.48-.87s.08.45-.07.95a152.56,152.56,0,0,1-4.79,15.49,90.36,90.36,0,0,1-7.07,15,55,55,0,0,1-5.6,10.24l1-1.12c4.38-4.86,6.91-10.14,9.06-15.3s3.68-10.44,5.48-15.92a.92.92,0,0,1,.27-.5c.07,0,.06.2,0,.48-1.71,5.37-3.06,10.4-5.28,15.71a93.64,93.64,0,0,1-6.33,12.53,65.17,65.17,0,0,0,6.65-12c.82-2.06,1.72-4.08,2.42-6.16.37-1,.75-2.06,1.13-3.09s.68-2.09,1-3.13a3.39,3.39,0,0,1,.41-.93.34.34,0,0,1,0-.23c.24-1.09.5-2.26.79-3.45a1.34,1.34,0,0,1,.26-.6C736.94,436,737,436.19,736.9,436.45ZM624.54,471.11l-.15-.06h.4l.85.5Zm-3.34,5.7h0l-.49-.25ZM678.59,460a106.18,106.18,0,0,0-15.52-3.25c1.31,0,2.61,0,3.91.18A61.89,61.89,0,0,1,678.59,460Zm-59.26,10.44a7.8,7.8,0,0,1,2,.6,3,3,0,0,1,.91-.66,23.57,23.57,0,0,1,2.81-1.18c-.27-.2,0-.28,0-.36l.3-.24-3.17.93C621.29,469.79,620.31,470.22,619.33,470.42Zm-5.49,5-.14,0-.11-.48Zm.22.8.16,0C614.28,476.35,614.2,476.32,614.06,476.21Zm1.46-.31a.83.83,0,0,0-.31-.09Zm8.67,10.39-1-2.14.87,2.09Z"/><path d="M655.93,811.32l-.41.31a.75.75,0,0,1,0-.88,6.12,6.12,0,0,0-1.82,5.61,10.44,10.44,0,0,0,2.93,5.24,1.81,1.81,0,0,0,1.89,2,2.36,2.36,0,0,0,2.45-1.77,2.73,2.73,0,0,1,.48-.66,16.92,16.92,0,0,0,4.42-5.14l-1.13,1.11a4.55,4.55,0,0,0,.73-1.7l-.7.2a3.59,3.59,0,0,0-.61-5.85,5.92,5.92,0,0,0-7.32.68Z"/><path d="M648.48,815c.9-1.25,1.86-2.43,2.85-3.59l.44-.22h-1.9l.12,0c1.5,1.2,2,3.05,2.3,4.75l.25.6a1.52,1.52,0,0,0,1,.55,1.67,1.67,0,0,0,1.93-1.14c.06-.3.14-.59.23-.89,1.29-2.14,1.67-5.45-1.45-6.88a6.49,6.49,0,0,0-2.55-.14,2.24,2.24,0,0,0-2.59,1.73A2,2,0,0,0,651,812l-.31.56-.41-.46c1.06.35,1.22,1.37,1.73,2.14l.21,1.13,3-.57-.33-.59-.33.12a16.71,16.71,0,0,1-1.8-3.42l-.94-1.59a1.55,1.55,0,0,0-1.91,0l-.69.66.4-.3c-.78,1.57-1.31,3.25-2.13,4.83a.48.48,0,0,0,.22.7A.63.63,0,0,0,648.48,815Z"/><path d="M648.53,809.26c.25-.25.51-.49.48-.86l-.22-.17-.55.48C647.86,809.05,648.12,809.26,648.53,809.26Z"/><path d="M648.79,808.23l.22-.2-.28.12a.12.12,0,0,0,0,.05Z"/><path d="M689.63,931c1,1.56,2.15,3,3.22,4.5s2.16,3,3.33,4.45c2.35,2.87,4.62,5.83,7.15,8.58,1.25,1.39,2.47,2.81,3.74,4.18l3.91,4c.66.67,1.3,1.36,2,2l2,2,4.1,3.89c.38.34.76.54.86.46s-.14-.41-.5-.71a210,210,0,0,1-15.68-16.06c-2.52-2.73-4.78-5.68-7.11-8.54-1.18-1.43-2.21-3-3.32-4.43l-1.63-2.23c-.55-.74-1.08-1.49-1.58-2.26-.28-.4-.59-.67-.73-.64S689.38,930.65,689.63,931Z"/><path d="M771.8,1010.75c-.37-.09-.4,0-.08.25a4.46,4.46,0,0,0,1.19.54c.31.07.35,0,.07-.24A4.31,4.31,0,0,0,771.8,1010.75Z"/><path d="M765.38,1016.57c-1.08-.39-2.13-.76-3.15-1.1s-2-.71-2.92-1a4.61,4.61,0,0,1-1-.47c0,.21-.41.16-1.19-.13-3.86-1.37-7.67-3-11.57-4.72-2-.83-3.84-1.8-5.78-2.71s-3.9-1.84-5.79-2.88l-5.76-3.07c-1.93-1-3.79-2.17-5.7-3.26-3.83-2.15-7.5-4.57-11.24-6.89a1.64,1.64,0,0,1-.88-.06,18.09,18.09,0,0,1-5.38-3.2l-1.46-1.24c-1.53-1.19-3-2.51-4.43-3.76s-2.93-2.52-4.37-3.81l-4.23-4c-1.41-1.32-2.82-2.64-4.15-4a42.88,42.88,0,0,1-4.24-3.4c-1.35-1-2.64-2.11-3.93-3.21l-3.89-3.31c-1.32-1.09-2.55-2.28-3.81-3.46l-3.78-3.58c.18.42.22.73.06.85-.45.2-1.84-.74-3-2.22l-1.87-2.19,2.51,3.28c.84,1.07,1.73,2.11,2.59,3.17a9.36,9.36,0,0,1,.68.85l3,3.35c1,1.11,2.15,2.16,3.24,3.25a204.6,204.6,0,0,0,30.26,24.54,253.44,253.44,0,0,0,32.33,18.22,4.05,4.05,0,0,1,1.18.7c.16.19.06.28-.36.11-14.32-5.81-27.27-10.83-42.33-20.76a233.83,233.83,0,0,1-25.77-19.61A226.6,226.6,0,0,1,645.75,943,339.2,339.2,0,0,1,626.09,914c-1.45-2.53-3-5-4.41-7.62l-4.19-7.87c-1.34-2.69-2.62-5.43-3.94-8.19-.33-.69-.67-1.38-1-2.09s-.6-1.42-.91-2.13l-1.81-4.32c-.41-1-.82-2-1.22-2.94s-.74-2-1.11-3c-.71-2-1.43-4-2.14-6l-.53-1.49-.46-1.51-.92-3c-.61-2-1.22-4-1.8-6.07l-.38-1.53-.19-.77-.08-.29-.31-1.06L600.1,852c-.38-1.42-.76-2.84-1.15-4.26a165.75,165.75,0,0,1-3-17.44,8.6,8.6,0,0,1,.7-6.07,6,6,0,0,1,4.23-3.19,6.44,6.44,0,0,1,5.84,2.31v-1l.36-1.65a6,6,0,0,1,2.43-3.71l1.5-1.12c2.84-1.47,5.43-3.79,8.53-4.84l1.16.3L621,811a5.53,5.53,0,0,1,3.22-1.58l1.4.15a14.14,14.14,0,0,1,4.51,1.52,5,5,0,0,1,1.73.31,7,7,0,0,1,4.65-.22,1,1,0,0,1,1.38.18,1,1,0,0,1,.19.49h0a9.52,9.52,0,0,0,.91-.45,5.18,5.18,0,0,1,.25-.52c.3-.88.3-.88.59-1.64a4.37,4.37,0,0,1,1.25-1c2.58-.57,2.58-.56,3.67-.38l.3.15c.4-.54.44-.58.56-.72a2.3,2.3,0,0,1,.44-.24c.59,0,.59,0,.81-.07a3.82,3.82,0,0,1,.45,0c.63.36.63.36.81.38a1.82,1.82,0,0,1,.31.19l.27.59-1.59.69.52.2-.71.15.64-.07-.42.38.6-.43a3.49,3.49,0,0,0-.31,1.3,1.45,1.45,0,0,0,0,.77l.35,0c-.33,1-.33,1-.67,2-.15.09-.3.15-.44.22a.39.39,0,0,1,.19.48l-.15.51a1,1,0,0,0,.08.11h0c.1.18.18.3.26.44l.07.09h0c.17.3.46.74,1.22,1.89a4.8,4.8,0,0,1-.32.85l.29-.25c.21-.16.76,0,.81-.1a44.07,44.07,0,0,0,2.75-6.58.8.8,0,0,1,.79-.79.79.79,0,0,1,.89.68,13.44,13.44,0,0,1,1.6,7.26,15.17,15.17,0,0,1-.67,3.73,18.57,18.57,0,0,1-.66,1.85c-.22.61-.47,1.21-.75,1.81-.26,1.24-.48,2.49-.69,3.75l.27-.2-.4,1a.36.36,0,0,0,0,.1l1-.8c.1-.17.2-.35.28-.52a17.65,17.65,0,0,1,1.19-4.2c.51-1.37,1.29-2.7,1.82-4a37.05,37.05,0,0,1,2.4-4,.77.77,0,0,1,.86-.53.62.62,0,0,1,.6.7,18.86,18.86,0,0,1-.49,6.9,14.77,14.77,0,0,1-3.16,6.53,4.1,4.1,0,0,1-.83,2.4v0l.78-.59c-.16.65-.81,1.05-1.06,1.65l1.1-.32c-.49,3.18-.06,6.51-1.2,9.66,0,.13,0,.24-.06.36a15,15,0,0,1,1.25,1.74l.26.46s0,.07.06.13l.08.36c.05.24.1.48.16.73.17,1,.46,2,.64,3l-.18-2.16-.06-2.12c.39,1.49.78,3,1.18,4.45a46,46,0,0,1,.92,4.73c.83,4.42,1.36,9.22,1.82,13.59.09,1.1.16,2.18.2,3.22s.14,2,.16,3a26.57,26.57,0,0,1-.28,5,201.75,201.75,0,0,0,11,24.89,181.78,181.78,0,0,0,14.65,23.06,2.94,2.94,0,0,1,.8,1.85c-.14.24-.71-.11-1.29-.86-2.15-2.49-4-5.19-6-7.84-1-1.32-1.9-2.71-2.82-4.1l-2.75-4.15c-.88-1.42-1.71-2.86-2.57-4.29s-1.74-2.85-2.5-4.33l-2.34-4.43-1.17-2.22-1.07-2.26a159.36,159.36,0,0,0,15.55,30.34c.85,1.21,1.67,2.45,2.6,3.61a42.33,42.33,0,0,1,2.47,3.64l1.63,2.25c.58.72,1.15,1.45,1.72,2.17l3.42,4.32c1.18,1.41,2.39,2.78,3.58,4.17s2.38,2.79,3.67,4.09l3.81,4c1.25,1.35,2.65,2.58,4,3.87s2.68,2.61,4.12,3.83,2.89,2.46,4.34,3.71c1.24,1.07,2.52,2.06,3.78,3l3.73,2.91c2.49,1.9,5,3.65,7.5,5.46s5.12,3.42,7.72,5.16,5.36,3.32,8.18,5c7.95,4.64,15.81,8.64,23.71,12.48s16,7.27,24.47,10.79c2.28.84,4.28,2,4.4,2.51s-1.66.28-4-.55c-9-3.24-17.91-6.83-26.59-10.84A278.26,278.26,0,0,1,744.17,987a216,216,0,0,1-23.72-16.56A182.38,182.38,0,0,1,699,950.38c-1.49-1.53-2.81-3.19-4.2-4.78s-2.76-3.16-4-4.83a.65.65,0,0,1-.14.26c-.27.23-.77.14-1.4-.2.74.94,1.44,1.9,2.21,2.82l2.3,2.77c1.54,1.85,3,3.74,4.68,5.53,9.75,9.29,20.18,17.79,31.49,26.76,7.81,6.1,15,11.59,22.7,16.82a300.17,300.17,0,0,0,31.93,15,2.75,2.75,0,0,1,1,.53c.13.15-.14.14-.6,0-1.93-.67-3.85-1.4-5.8-2.11l-2.92-1.08c-1-.38-1.92-.79-2.89-1.18l-5.81-2.41-5.77-2.63c1,.9,1.57,1.64,1.28,2s-1.41.27-3-.19l5.16,2.67c1,.57,1.83,1.13,1.71,1.32s-1.08,0-2.09-.56c-3.52-1.82-7.07-3.56-10.5-5.54-1.73-1-3.47-1.9-5.17-2.9l-5.08-3.06A250.82,250.82,0,0,1,720.19,980a6.32,6.32,0,0,1,1.45,2.66h0l3.58,2.6a364.81,364.81,0,0,0,73.9,35.72c.51.18.91.4.89.5s-.44,0-.9-.15c-3.94-1.44-7.91-2.8-11.79-4.37-1.94-.78-3.91-1.48-5.83-2.3l-5.77-2.42,0,0c.28.19.29.32-.08.24a4.52,4.52,0,0,1-1.2-.51c-.33-.22-.25-.31.06-.24a377.64,377.64,0,0,1-41.15-21,330.23,330.23,0,0,0,37.22,20.56c1.46.51,2.89,1.08,4.39,1.56a3,3,0,0,1,1,.58c.08.12-.25.09-.67-.06l-1.23-.42c2.45,1.09,4.2,2.29,4,2.75s-2.65-.07-5.23-1.17c-6.91-3-13.74-6.09-20.35-9.64l-2.2-1.06L748,1003a284.86,284.86,0,0,0,31.26,15.64c.93.38,1.66.84,1.61,1s-.85,0-1.78-.36a265.28,265.28,0,0,1-28.59-12,252.22,252.22,0,0,1-27.35-15.48c-3.15-1.53-6.22-3.21-9.39-4.83s-6.21-3.46-9.36-5.26c.68.58,1.41,1.13,2.14,1.69,2.32,1.74,4.57,3.47,6.9,5s4.65,3,6.95,4.51,4.69,2.72,7,4,4.71,2.48,7.05,3.71c9.43,4.78,18.95,9,29.07,13.4a1.93,1.93,0,0,1,.93.58c0,.11-.37,0-.89-.17-9.92-4.23-19.08-8.06-28.72-13l-5.89-3.1c-1.93-1.05-3.8-2.15-5.69-3.2l-2.81-1.57c-.94-.53-1.84-1.1-2.76-1.64l-5.48-3.22,5.32,3.56c.89.58,1.77,1.18,2.67,1.73l2.71,1.63c1.82,1.08,3.61,2.17,5.43,3.21l5.51,3,2.75,1.49,2.8,1.39,5.58,2.8,5.67,2.64,2.84,1.34,2.88,1.27a7.5,7.5,0,0,1,1.7.92.79.79,0,0,1,.44.06c2,.65,4.15,1.48,6.36,2.24a3.1,3.1,0,0,1,1.1.59C766.15,1016.74,765.86,1016.72,765.38,1016.57ZM641.68,825l.2-.15-.32.49-1.33.73Zm-5-8.35h0l.78-.39Zm32.43,88.5c-1.73-3.68-3.57-7.27-4.93-11.06-.7-1.88-1.47-3.73-2-5.65s-1.15-3.84-1.67-5.76c.74,1.79,1.49,3.57,2.23,5.35.93,2.87,2,5.69,3,8.58S667.93,902.28,669.06,905.15ZM646.9,819.38a13.82,13.82,0,0,1-2.54,1.88,4,4,0,0,1,.16,1.5c-.17,1.38-.22,2.73-.44,4.08.47-.2.42.12.49.28l.13.49c.3-1.43.59-2.86,1-4.31A28.69,28.69,0,0,1,646.9,819.38Zm-1.38-9.77.19-.11.72.3Zm-1.22-.48-.12.19C643.91,809.23,644,809.17,644.3,809.13Zm-1.06,1.81a1.76,1.76,0,0,0,.42-.25Zm-21.72.56,3.65.94-3.5-1Z"/><path d="M657,958.05l-.49-.27a1,1,0,0,1,.93-.37c-4.81-1.88-9.21,1.33-11.39,5a2,2,0,0,0-1.61,2.49,2.43,2.43,0,0,0,2.73,1.7,4.09,4.09,0,0,1,.9.21,20.55,20.55,0,0,0,7.34,2.38l-1.67-.69a6.11,6.11,0,0,0,2.21.1l-.47-.58a4.75,4.75,0,0,0,6.4-2.88,5.57,5.57,0,0,0-3.62-6.61Z"/><path d="M650.43,952.46c1.62.36,3.2.8,4.78,1.28l.4.33-.72-1.78,0,.12c-.69,1.86-2.47,3-4.15,4l-.57.44A1.48,1.48,0,0,0,650,958a1.76,1.76,0,0,0,1.91,1.43l1-.11c2.77.36,6.56-.55,6.84-4a5.94,5.94,0,0,0-.87-2.45,2.44,2.44,0,0,0-2.82-1.78,2.13,2.13,0,0,0-1.63,2.69l-.7-.08.33-.57c0,1.14-1,1.69-1.61,2.47l-1.12.63,1.67,2.57.51-.54a3.09,3.09,0,0,1-.24-.26,18.52,18.52,0,0,1,3-3l1.31-1.49a1.46,1.46,0,0,0-.71-1.8l-1-.39.46.26c-1.94-.16-3.87,0-5.8-.15a.55.55,0,0,0-.64.48A.61.61,0,0,0,650.43,952.46Z"/><path d="M656.34,950.32a1.3,1.3,0,0,0,1.07.12c.05-.15.08-.23.09-.27l-.71-.33C656.28,949.61,656.18,949.93,656.34,950.32Z"/><path d="M657.5,950.17l.3.14-.24-.22,0,0Z"/><path d="M563.63,989.52c-8.68,3.41-17.24,7.22-25.67,11.31-.29.13-.48.33-.43.44s.31.07.57-.06c8.45-4.05,17-7.82,25.64-11.22.29-.13.48-.32.46-.45S563.9,989.41,563.63,989.52Z"/><path d="M496.32,1013.8c.15-.18.09-.26-.15-.19a1.54,1.54,0,0,0-.65.44c-.12.15,0,.25.16.18A1.48,1.48,0,0,0,496.32,1013.8Z"/><path d="M493.75,1006.41a30.42,30.42,0,0,0,2.74-2.67,1.7,1.7,0,0,1,.52-.35c-.15-.09,0-.36.34-.7,7-6.66,15.21-13.05,23.29-19.39a1.1,1.1,0,0,1,.13-.61,6.78,6.78,0,0,1,2.68-2.52l1-.51c3.88-2.23,7.76-4.47,11.7-6.55a16.22,16.22,0,0,1,2.44-2c3-2.57,6-5.15,9.16-7.62-.29,0-.5-.07-.59-.24-.15-.44.48-1.23,1.4-1.77l1.38-.88-4.15,2.13a3.52,3.52,0,0,1-.57.26c-1.46.88-2.92,1.8-4.38,2.78-6.4,4.24-12.36,8.75-18.07,13.35s-11.17,9.31-16.52,14.07a1.46,1.46,0,0,1-.67.42c-.16,0-.21-.11,0-.3,6.3-6.68,11.31-13.34,19.05-20.3,9.23-8.25,18.59-16.23,28.73-24,11.18-7,21.19-14.29,32.64-21.82,4.25-2.77,8.48-5.43,12.73-7.94,6.63-4.21,13.35-7.85,20.33-11.4,3.44-2.26,7.68-1.45,9.4,1.76a6.88,6.88,0,0,1-.07,6.29l.9-.35,1.55-.21a5.57,5.57,0,0,1,4.06,1.07l1.51,1c2.3,2.23,5.25,3.73,7.35,6.28l.15,1.2.37.22a5.73,5.73,0,0,1,2.64,2.44l.39,1.38a14.2,14.2,0,0,1,.26,4.81,5,5,0,0,1,.35,1.73,7,7,0,0,1,1.93,4.3,1,1,0,0,1,.34,1.36,1,1,0,0,1-.4.37h0a9.74,9.74,0,0,0,.79.69,5.22,5.22,0,0,1,.61,0l1.84-.06a4.9,4.9,0,0,1,1.48.81c1.58,2.21,1.58,2.21,1.82,3.3,0,.11,0,.23,0,.34.71.17.76.19,1,.25a2.84,2.84,0,0,1,.42.32c.22.56.22.56.39.74a2.51,2.51,0,0,1,.17.42c-.11.73-.11.73-.06.91a1.78,1.78,0,0,1-.08.36l-.5.48-1.34-1.23v.56l-.42-.62.32.59-.55-.26.67.4a3.91,3.91,0,0,0-1.46.21,1.51,1.51,0,0,0-.78.32,2.72,2.72,0,0,1,.15.31c-1.14.08-1.14.08-2.27.13-.14-.11-.26-.22-.38-.33a.46.46,0,0,1-.42.37l-.58.05-.09.12,0,0-.36.42-.07.09h0l-1.54,1.81a6.65,6.65,0,0,1-1,0l.36.19c.24.14.27.71.38.73a41.14,41.14,0,0,0,7.92.13.91.91,0,0,1,1.15.44.78.78,0,0,1-.39,1.09c-3.91,4.23-10,5.43-15.88,4.77-1.42.13-2.83.31-4.25.51l.29.19-1.18-.06-.12,0,1.13.67.65.1c3.23-.57,6.57,0,9.9.14a46.89,46.89,0,0,1,5.26.87.84.84,0,0,1,.9.63.67.67,0,0,1-.58.81c-4.82,2-10.79,2.91-16,1a4.74,4.74,0,0,1-2.86,0H634l.86.58c-.76,0-1.37-.49-2.1-.56l.64,1c-3.65.41-7.19,1.85-10.9,1.46l-.4,0a21.28,21.28,0,0,1-1.67,1.62c-.15.12-.3.25-.46.36l-.13.09-.21.11-.44.22a16.71,16.71,0,0,1-1.87.81l2.81-.58a25.91,25.91,0,0,1-5.65,2.63c-5.66,1.79-12.54,2.63-16.55,1.46-10.69,4.42-21.3,9.1-31.63,14.28-.53.27-1.11.33-1.32.15s.07-.57.6-.85c7.17-4.19,14.69-8,22.32-11.58-6.74,2.24-13.46,4.69-20.12,7.61l-2.48,1.26a17.85,17.85,0,0,1-2.57,1,261.37,261.37,0,0,0-24.53,12.55c-7,4.15-12.94,7.93-19.66,12.37-9.43,6.24-17.9,12.08-27.48,17.91-1.24.82-2.6,1.29-3,1s.29-1.14,1.53-2c9.54-6.76,19-13.39,28.9-19.74a301.56,301.56,0,0,1,31.07-17.75c2.39-1.14,4.72-2.28,7.06-3.36a.8.8,0,0,1-.18-.19,1.16,1.16,0,0,1,.15-1.11c-2.68,1.21-5.38,2.43-8.12,3.61-7,4.37-14,8.76-21.87,12.75-5.41,2.74-10.5,4.94-15.61,7.38-5.93,3.91-11.75,8-17.67,12a1.11,1.11,0,0,1-.63.29c-.14,0-.06-.17.17-.35,3.84-3.12,7.87-6.2,12-9.23-.85.17-1.48.1-1.66-.29s.12-1.06.77-1.81l-3,1.85c-.62.37-1.19.54-1.29.35s.27-.65.84-1q6-3.86,12.09-7.53c4.7-3.21,9.44-6.33,14.26-9.39a3.55,3.55,0,0,1-2.06-.2h0l-2.26,1.39c-13.09,9.53-26.63,18.89-40.41,28.24-.26.18-.53.28-.58.21s.1-.27.35-.44l12.4-8.49h0c-.2.06-.3,0-.15-.19a1.67,1.67,0,0,1,.64-.44c.23-.07.28,0,.16.18q11.48-7.94,22.63-16l-21.44,13.71-2.1,1.85a1.3,1.3,0,0,1-.64.29c-.11,0,0-.21.19-.38l.6-.51c-1.35.87-2.61,1.23-2.87.81s.7-1.58,2.08-2.51c3.63-2.63,7.3-5.16,11-7.65l1.16-.87,1.07-1c-5.92,3.63-11.79,7.31-17.56,11.09-.48.35-1,.53-1.09.39s.2-.54.68-.88c9.49-7.65,19.39-15.05,29.62-22.1l8.95-9.06-1.36.83a140.39,140.39,0,0,0-15.36,11.7c-4.78,4-9.43,8.09-14.65,12-.25.2-.52.29-.6.24s0-.26.31-.45c5-3.92,9.38-7.91,14.32-12,4.08-3.37,8-6.52,11.74-9.81-8.25,5.72-15.59,12-23.41,18.09a2.63,2.63,0,0,1-1,.57c0,.06,0,.15-.13.25-.86.93-1.85,1.87-2.88,2.79a1.19,1.19,0,0,1-.66.35C493.47,1006.79,493.55,1006.62,493.75,1006.41Zm144.07-56.94.21.14-.6-.15-1.15-1Zm6.7-7.59h0l.66.6Zm-63.54,36A92.06,92.06,0,0,1,595.41,973l-3.33,1.53Zm64.28-25.34a13.84,13.84,0,0,1-2.78-1.75,4.29,4.29,0,0,1-1.49.67c-1.45.37-2.9.65-4.35.88.35.38,0,.44-.14.55l-.47.27c1.56-.17,3.15-.3,4.78-.38A31.53,31.53,0,0,1,645.26,952.5Zm9.55-4.88.18.14,0,.79S654.9,948.16,654.81,947.62Zm0-1.33-.25,0C654.57,946,654.67,946,654.83,946.29Zm-2.24-.31a1.86,1.86,0,0,0,.41.3ZM644,925.76l.47,3.79-.35-3.67Z"/><path d="M357.78,808.49l.64,0c-.08.35-.43.63-.93.87a13.76,13.76,0,0,0,7.43-3.88,20.85,20.85,0,0,0,4.43-6.37c1.37-.73,2.06-2.06,1.54-3s-2.14-1.13-3.59-.39a5.71,5.71,0,0,1-1.14.2,27.8,27.8,0,0,0-9.6,1.45l2.25-.25a10.93,10.93,0,0,0-2.79,1.09l.73.28c-3.68.58-7,3.49-7.09,6.43s3,4.61,6.52,3.88Z"/><path d="M366.82,810.17c-1.85.44-3.69.85-5.6,1.25l-.54-.08,1.4,1.23-.06-.11c.09-2,1.67-4,3.29-5.71l.51-.67a1.28,1.28,0,0,0,0-1.13,1.87,1.87,0,0,0-2.56-.39l-1.16.62c-3.25,1.05-7.42,4.1-6.42,7.43.23.76,1.2,1.17,1.9,1.7a2.85,2.85,0,0,0,3.73,0c1.22-.91,1.58-2.35.81-3.28l.78-.31c-.05.23-.11.46-.17.69-.41-1,.53-2,1-3.06l1.05-1.13-2.61-1.51-.42.76a1.83,1.83,0,0,1,.35.12,32.51,32.51,0,0,1-2.35,4.32c-.32.68-.62,1.38-.92,2.08a1.22,1.22,0,0,0,1.44,1.22l1.17-.17-.59,0c2.13-.93,4.13-2,6.22-2.83a.72.72,0,0,0,.54-.74A.54.54,0,0,0,366.82,810.17Z"/><path d="M361.26,815.11a1.91,1.91,0,0,0-1.19.49,1.88,1.88,0,0,0,0,.3l.88-.1C361.58,815.72,361.57,815.37,361.26,815.11Z"/><path d="M360.08,815.9l-.38,0,.35.06,0,0Z"/><path d="M416.6,952.34l-.33.9a4.83,4.83,0,0,1-.24.5l-.46.9c-.33.6-.54,1.22-.81,1.84a28.27,28.27,0,0,0-1.32,3.86,17.15,17.15,0,0,0-.61,4.11,8.32,8.32,0,0,0,.91,4.07,6.45,6.45,0,0,0,3.1,2.71,12.4,12.4,0,0,0,4.09.9,30.47,30.47,0,0,0,4.27,0l2.15-.19,4.91-.58c.85-.1,1.54-.33,1.55-.52s-.67-.23-1.44-.12l-5,.58-2.06.18a30.46,30.46,0,0,1-4.05,0,12.18,12.18,0,0,1-3.89-.83,6.26,6.26,0,0,1-3-2.54,7.87,7.87,0,0,1-.9-3.84,16,16,0,0,1,.56-3.91,27.62,27.62,0,0,1,1.24-3.66c.26-.58.47-1.17.77-1.74l.44-.85.21-.42a3,3,0,0,0,.15-.38l.15-.45a2.56,2.56,0,0,0,.19-1.42C417.08,951.32,416.82,951.73,416.6,952.34Z"/><path d="M562.08,973.35c-.54-.57-.63-.46-.24.24a13.68,13.68,0,0,0,1.48,2.2c.41.49.53.38.24-.24A10.83,10.83,0,0,0,562.08,973.35Z"/><path d="M549.79,975.4a26.76,26.76,0,0,0-8.34-5,7.6,7.6,0,0,1-1.34-.66c.07.28-.58.23-1.64-.07-5.25-1.41-10.7-.67-16.9,1.42-.77.25-1.56.55-2.36.84l-2.45,1-2.45,1L511.87,975c-3.25,1.48-6.49,3.15-9.75,4.93-6.53,3.56-13.1,7.65-20.14,11.81l-2.68,1.57c-.95.54-1.9,1.08-2.87,1.61-1.92,1.06-3.91,2.06-5.91,3a131,131,0,0,1-12.42,5.26,3.5,3.5,0,0,1-1.26,1.1c-2.18,1.44-7,3.21-12.11,4.12-1.3.22-2.59.39-3.88.57-1.92.29-4,.56-5.65.77l-2.83.34c-1.25.17-2.53.3-3.79.42a101.82,101.82,0,0,1-15.06.6,55.75,55.75,0,0,1-14.25-2.35,35.32,35.32,0,0,1-12.39-6.57,17.78,17.78,0,0,1-2.42-1.84,18.25,18.25,0,0,1-2.33-2.25c-.37-.42-.73-.86-1.1-1.29s-.67-.93-1-1.41-.68-1-1-1.46-.57-1.06-.85-1.6a36.61,36.61,0,0,1-4.07-11.41c-.18-1-.36-2-.49-3.06a24.42,24.42,0,0,1-.32-3.12,51.74,51.74,0,0,1,.07-6.46,66,66,0,0,1,2.4-13.41c.63-2.27,1.57-4.43,2.4-6.66l1.29-3.34c.11-.28.21-.57.33-.84l.43-.77.85-1.55c-.78,1-1.36,1.53-1.58,1.44-.18-.25.2-1.37,1-3,.39-.82.88-1.77,1.45-2.8l.44-.79c.15-.26.31-.56.44-.75l.89-1.3,1.86-2.66.94-1.31,1-1.24a42.48,42.48,0,0,0-2.89,3.65l-1.39,1.89-.69.95c-.23.32-.5.79-.76,1.18-2,3.31-4.3,6.45-5.74,10.18-.46,1.05-.92,2-1.35,2.88a46.74,46.74,0,0,0-2.3,6.11c-.66,2.08-1.17,4.18-1.62,6.28a59.92,59.92,0,0,0-1.3,12.55,41.94,41.94,0,0,0,.58,6.59,46,46,0,0,0,1.33,6.34c.36,1,.69,2,1.06,3l1.26,2.94,1.55,2.81c.59.9,1.22,1.77,1.83,2.66s1.34,1.69,2,2.53,1.53,1.52,2.3,2.28a30.4,30.4,0,0,0,2.47,2.07,23.81,23.81,0,0,0,2.62,1.85,44,44,0,0,0,11.69,5c8.23,2.18,17.18,2.2,26,1.17,2.19-.27,4.38-.58,6.55-.91.55-.07,1.09-.18,1.63-.27l1.39-.24,2.17-.42,4.59-.93c1.59-.35,3.17-.69,4.74-1.1a128.81,128.81,0,0,0,18.55-6.15,134.84,134.84,0,0,0,17-8.67c10-6.06,18.7-12,27.65-16.66a6.91,6.91,0,0,1,2.09-.86c.4,0,.41.18-.23.53a183.13,183.13,0,0,0-15.91,10.6L486.28,995,482,998.09c-1.56,1.08-3.16,2.15-4.82,3.19a121.31,121.31,0,0,1-22.05,11,123.17,123.17,0,0,1-12.46,4c-1.08.29-2.15.55-3.24.81l-3,.71-1.47.34-.77.16-.48.1-.6.11c-1.61.35-3.27.56-4.93.84-2,.32-4,.57-6,.85s-4,.39-6,.46l-3,.14c-1,.06-2,0-3,0s-2,0-2.95-.1l-2.91-.25c-1-.07-1.93-.23-2.88-.37s-1.91-.29-2.84-.49a55.88,55.88,0,0,1-5.52-1.45,47.29,47.29,0,0,1-10.35-4.62l-2.4-1.56-2.25-1.76c-.77-.57-1.44-1.25-2.15-1.89l-1.05-1-.26-.25-.06-.06c-.1,0-.06,0-.1,0l-.12-.13-.47-.54a44.93,44.93,0,0,1-6.56-9.27,43.73,43.73,0,0,1-4-10.59c-.42-1.87-.77-3.77-1.11-5.67a18.76,18.76,0,0,1-.33-2.94c0-1-.17-2-.13-3a63.41,63.41,0,0,1,1.05-12.44,60.33,60.33,0,0,1,3.58-12.62l2.56-6.17.64-1.55.32-.78a7.24,7.24,0,0,1,.41-.71l1.69-2.82,1.71-2.82.85-1.42.43-.71c.14-.23.29-.49.4-.64q1.44-2.08,2.91-4.13c.51-.67,1-1.37,1.51-2l1.63-1.91,1.64-1.89a24.14,24.14,0,0,1,1.68-1.81c1.14-1.15,2.31-2.28,3.47-3.39s2.34-2,3.51-3a148.61,148.61,0,0,1,13.33-9.56c4.34-2.72,8.31-5.15,11.78-7.81,1.83-1.3,3.43-2.7,5.07-4.11.85-.68,1.57-1.45,2.34-2.2s1.53-1.49,2.27-2.26c1.41-1.61,2.83-3.21,4.17-4.89s2.59-3.49,3.77-5.21A52.42,52.42,0,0,0,440,867.41a41.53,41.53,0,0,0,2.63-11.09,35.09,35.09,0,0,0-.6-10.86l-.28-1.31c-.11-.43-.25-.83-.37-1.25-.21-.83-.54-1.65-.82-2.46a31.35,31.35,0,0,0-2.2-4.69,30,30,0,0,0-6-7.63,12.47,12.47,0,0,0-4.16-2.62,2.55,2.55,0,0,0-.78-.18l-.17,0-.11,0a.77.77,0,0,0-.19.08c-.26.12-.5.27-.82.41a5.74,5.74,0,0,1-1.59.44,12.45,12.45,0,0,0-1.85.19,9.82,9.82,0,0,0-1,.32,22.63,22.63,0,0,0-4.06,2c-.34.19-.71.48-1.05.7-.18.11-.36.25-.54.38s-.07.07-.12.1l-.38.33c-.25.22-.51.48-.77.7s-.51.48-.77.73-.5.48-.77.76c-1,1-2.09,2.12-3.13,3.31s-2.1,2.46-3.13,3.82c-1.28,2.37-4.07,2.58-6.48.3a7.66,7.66,0,0,1-2.3-5.35l-.5.51-1,.57a4,4,0,0,1-3.28.23l-1.5-.43c-2.58-1.18-5.43-1.43-8.2-2.81l-.64-1-.39,0a5.56,5.56,0,0,1-3.19-1l-.94-1a12.83,12.83,0,0,1-2.28-4,4.67,4.67,0,0,1-1-1.37,6.39,6.39,0,0,1-3.47-2.9.88.88,0,0,1-.86-1,1.22,1.22,0,0,1,.25-.51h0a7.69,7.69,0,0,0-1-.24c-.37.17-.6.25-.6.25l-1.76,1a5.79,5.79,0,0,1-1.77,0c-2.47-1.13-2.49-1.13-3.19-2a3,3,0,0,1-.09-.32l-1.09.3a3,3,0,0,1-.57-.06c-.46-.37-.46-.37-.71-.43a2.41,2.41,0,0,1-.35-.28c-.18-.71-.18-.71-.31-.84a1.7,1.7,0,0,1-.07-.37c.23-.45.31-.63.35-.71l1.89.36-.21-.5.68.31-.56-.34.67-.07h-.85a6,6,0,0,0,1.46-1,2.32,2.32,0,0,0,.7-.69,2.35,2.35,0,0,1-.27-.2c1.18-.65,1.18-.66,2.34-1.26.19,0,.36.07.52.11a.54.54,0,0,1,.32-.54l.59-.33.06-.14,0,0,.25-.54,0-.12h0c.17-.38.42-.92,1.12-2.35a9.44,9.44,0,0,1,1.08-.44h-.43c-.3,0-.49-.52-.61-.49a42.92,42.92,0,0,0-8.69,3.81,1.2,1.2,0,0,1-1.42.24c-.39-.27-.37-.81.05-1.21,2.89-6,10-10.14,16.87-11.72l4.93-2-.36-.09,1.41-.31.14-.06-1.39-.25-.78.12c-3.78,1.61-7.79,2.36-11.74,3.76-2.12.75-4.24,1.07-6.41,1.7a1,1,0,0,1-1.22-.12c-.21-.31,0-.79.49-1,5.27-4.31,12.77-7.77,19.36-7.69a8,8,0,0,1,3.56-.83l.05,0-1.06-.28a19.29,19.29,0,0,1,2.62-.09l-.77-.7c2.28-.7,4.64-1.53,7-2.22a25.84,25.84,0,0,1,7.22-1.15l.53-.06a20.35,20.35,0,0,1,2.63-1.53l.73-.33.22-.09,1.07-.26,2.21-.45a57.68,57.68,0,0,1,9.51-1c-1.15,0-2.28,0-3.39.09s-2.23.14-3.32.27-2.2.23-3.28.4l-1.63.25-1.41.26,0,0,.19,0,.43-.11.85-.2,1.74-.37c1.15-.25,2.35-.42,3.53-.61a58.57,58.57,0,0,1,7.33-.63c1.25,0,2.53,0,3.79,0s2.57.18,3.85.29l1.94.27,1,.14.48.08.24,0,.13,0,3.33.69a46.23,46.23,0,0,1,11.49,4.07,44,44,0,0,1,5.43,3.36c.79.61,1.57,1.22,2.34,1.84s1.43,1.27,2.13,1.91a54.36,54.36,0,0,1,11.53,16.29,60.68,60.68,0,0,1,4.89,15.35,52.88,52.88,0,0,1,.92,11.9,76.85,76.85,0,0,1-.35,16.83,93,93,0,0,1-3.6,16.05A107.84,107.84,0,0,1,460,887.25c-.62,1.18-1.2,2.39-1.87,3.55l-1,1.75-1,1.65-2,3.3c-.65,1.11-1.31,2.21-2,3.28-2.8,4.33-5.74,8.65-8.89,12.78l-2.36,3.13-2.41,3-1.2,1.53-1.21,1.46-2.41,2.95c-3.16,3.83-6.24,7.56-8.77,11a56.24,56.24,0,0,0-5.78,9.93c-.54,1.32-1.1,2.35-1.45,2.41s-.17-1,.33-2.34c.46-1.16,1.05-2.32,1.58-3.52s1.34-2.39,2.06-3.62,1.61-2.47,2.53-3.75,1.87-2.55,2.93-3.89c4.16-5.25,9-10.9,13.55-16.79a199.64,199.64,0,0,0,12.67-18.44l2.83-4.76c.95-1.66,1.86-3.36,2.71-5.08a101.84,101.84,0,0,0,4.6-10.6c-1.16,3-2.5,6-3.94,8.82-.72,1.44-1.49,2.85-2.26,4.26l-1.2,2.08-1.23,2c-1.64,2.63-3.24,5.27-5.07,7.81-.9,1.27-1.72,2.61-2.67,3.85l-2.81,3.78c-3.82,5-7.89,9.85-12,14.41s-8,8.91-11.19,13.11L419.94,938c-.36.54-.69,1.07-1,1.61l-1,1.59c-.34.53-.59,1.07-.88,1.59-.56,1-1.19,2-1.63,3.07l-.76,1.49-.39.73-.32.77-.74,2c-.12.3-.27.69-.37.91l-.28.61c-.35.81-.78,1.61-1.05,2.43a45,45,0,0,0-1.62,5,26.4,26.4,0,0,0-.84,5.13,12.08,12.08,0,0,0,.7,5.1A7.44,7.44,0,0,0,413,973.8a12.24,12.24,0,0,0,5,1.44,27.11,27.11,0,0,0,5.25-.12c.87-.1,1.74-.22,2.6-.37l1.29-.23c.46-.07.67-.14,1.76-.3,3.31-.52,5.81-.94,8.5-1.51s5.18-1.2,7.66-1.93a99.72,99.72,0,0,0,14.33-5.47c2.39-1.12,4.58-2.24,7.3-3.68l8.2-4.34c5.66-3,11.76-6.07,18.55-8.95A131.05,131.05,0,0,1,508.26,943a78.54,78.54,0,0,1,17.55-3.3,52.4,52.4,0,0,1,20.77,3,49.47,49.47,0,0,1,9.47,4.7,60,60,0,0,1,7.64,5.8,62.52,62.52,0,0,1,6.51,6.86,67.71,67.71,0,0,1,5.06,7.27,99.1,99.1,0,0,1,6.83,13.9l1.3,3.28c.45,1.14.92,2.37,1.35,3.56.88,2.4,1.63,4.85,2.34,7.31a110.7,110.7,0,0,1,3.16,15,55.69,55.69,0,0,1,.6,7.35,12.12,12.12,0,0,1-.36,3.82c-.44.71-1-3.09-1.74-8.4a111.42,111.42,0,0,0-3.43-15.43c-.75-2.54-1.6-5.06-2.53-7.56-.47-1.24-1-2.48-1.48-3.7L579.83,983a102.08,102.08,0,0,0-7.43-14.39A57.9,57.9,0,0,0,560,954.49c-1.24-1.06-2.57-2-3.9-2.94l-2-1.33c-.66-.43-1.49-.88-2.24-1.3a46.49,46.49,0,0,0-10-4,50.42,50.42,0,0,0-20.39-1.14,73.56,73.56,0,0,0-8.85,1.8c-1.37.36-2.64.73-4,1.11s-2.59.79-3.86,1.22c-5.1,1.73-10,3.73-14.68,5.86s-9.15,4.38-13.46,6.62l-6.36,3.31-3.09,1.61-2.94,1.49a101.19,101.19,0,0,1-23.21,8.36c-2,.48-4.08.85-6.16,1.22l-3.2.49-3.42.49a61.5,61.5,0,0,1-7.81.8,26.06,26.06,0,0,1-3.95-.17,14.94,14.94,0,0,1-3.85-.93,9.08,9.08,0,0,1-3.32-2.14,8.86,8.86,0,0,1-1.25-1.54,11.05,11.05,0,0,1-.85-1.81,15.6,15.6,0,0,1-.6-6.78,34.89,34.89,0,0,1,1.45-6.59.89.89,0,0,1-.36.1c-.45,0-.74-.42-.84-1.18a44.17,44.17,0,0,0-2,8.15,25.42,25.42,0,0,0-.18,4.28,15,15,0,0,0,.9,4.23,9.71,9.71,0,0,0,4.21,4,15.41,15.41,0,0,0,5.72,1.47,48.13,48.13,0,0,0,11.55-.87l1.44-.25,2.43-.37,2.37-.37c.74-.12,1.49-.23,2.23-.37,3-.51,5.89-1.13,8.79-1.84a121.4,121.4,0,0,0,17.27-5.68l3-1.25,3-1.36L474,964c4.28-1.94,8.63-3.89,13.09-5.71s9-3.53,13.74-5c2.36-.73,4.73-1.43,7.16-2,1.21-.31,2.42-.61,3.66-.87l1.84-.4,1.93-.38a64.69,64.69,0,0,1,10.37-1.7,45.22,45.22,0,0,1,11.37.55,41.82,41.82,0,0,1,11.19,3.65c.9.41,1.72.91,2.57,1.38s1.56,1,2.34,1.46a49.5,49.5,0,0,1,4.4,3.26,52.61,52.61,0,0,1,7.59,7.71,67.57,67.57,0,0,1,5.7,8.47c1.62,2.84,3,5.66,4.31,8.43.63,1.38,1.25,2.76,1.84,4.12s1.23,2.87,1.8,4.32a9.24,9.24,0,0,1,.71,2.32c0,.39-.26-.09-.65-1s-.85-2-1.29-3l-1.35-2.88Q575,983.9,573.52,981a89.36,89.36,0,0,0-7.09-11.61,58.55,58.55,0,0,0-4.72-5.62,52.34,52.34,0,0,0-5.66-5c-1-.79-2-1.48-3.09-2.2s-2.08-1.34-3.3-2a39.07,39.07,0,0,0-7.47-3.14c3.13,1.54,4.6,3,4.1,3.48s-3-.17-6.67-.76a37,37,0,0,1,6.3,2.44c1,.47,2,1.07,2.93,1.61s1.8,1.14,2.67,1.78c2.16,1.54,3.54,3.14,3.3,3.31s-2-.95-4-2.35c-.87-.62-1.77-1.18-2.67-1.75s-1.9-1.12-2.91-1.57A34.36,34.36,0,0,0,539,955.3a38.9,38.9,0,0,0-13-1.17,62,62,0,0,0-12.23,2.25c-3.85,1-7.63,2.3-11.31,3.71a260.59,260.59,0,0,0-24.95,12.31l-6,3.19c-2,1-3.88,2-5.86,3a112.35,112.35,0,0,1-12.06,4.9,14.81,14.81,0,0,1,5.42.13h0c2.56-1,5.07-2.05,7.55-3.19,5.54-2.82,11.09-6.16,16.78-9.3s11.54-6.26,17.68-9q4.59-2,9.41-3.7c1.6-.57,3.23-1.06,4.86-1.56s3.36-.92,5.1-1.28a45.66,45.66,0,0,1,10.86-1,35.34,35.34,0,0,1,11.12,2.12l1.34.51,1.3.58c.88.38,1.71.84,2.54,1.29a46.56,46.56,0,0,1,4.64,3,45.37,45.37,0,0,1,8,7.56c4.65,5.62,7.88,11.85,10.73,17.92,1.42,3,2.85,6.2,4,9.41s2.27,6.48,3.18,9.79a114,114,0,0,1,3.6,20.19,6.2,6.2,0,0,1,0,2,4.64,4.64,0,0,1-.32-1.74,113.44,113.44,0,0,0-4.82-24.2,109.35,109.35,0,0,0-4.4-11.58c-1.69-3.72-3.39-7.37-5.41-11l0,.06c.25.63.18.81-.25.22a16.81,16.81,0,0,1-1.29-2.28c-.31-.71-.14-.73.25-.23a57.11,57.11,0,0,0-7-9.69,46.74,46.74,0,0,0-4.41-4.26,45.82,45.82,0,0,0-5-3.6,36.44,36.44,0,0,0-5.55-2.9,35.9,35.9,0,0,0-6.06-1.85,38.45,38.45,0,0,0-12.36-.46,61.76,61.76,0,0,0-11.48,2.6c-3.65,1.14-7.2,2.47-10.66,3.94a202.76,202.76,0,0,0-19.88,10c6-3.14,12.17-6.2,18.56-8.82,3.2-1.32,6.46-2.53,9.78-3.57a76.31,76.31,0,0,1,10.24-2.59,42.55,42.55,0,0,1,10.9-.57,33.57,33.57,0,0,1,10.76,2.73,40.5,40.5,0,0,1,9.21,5.83,44.65,44.65,0,0,1,7.36,7.83,65.27,65.27,0,0,1,5.44,7.49,8.21,8.21,0,0,1,.94,2.08c0,.26-.38-.22-.83-1s-.89-1.45-1.37-2.16c2.61,4.6,3.76,8.46,3.15,8.67-.75.05-3.12-3.68-5.87-8.21a45.44,45.44,0,0,0-14.65-15.08,30.33,30.33,0,0,0-9.67-4,33.41,33.41,0,0,0-10.46-.63,45.24,45.24,0,0,0-4.49.76c-1.48.42-2.93.88-4.36,1.41a42.23,42.23,0,0,1,16-1.3,29,29,0,0,1,7.62,2.08,34.64,34.64,0,0,1,6.85,4A43.81,43.81,0,0,1,559,978.55a121.63,121.63,0,0,1,7.65,14.26c.81,1.66,1.29,3.17,1.1,3.3s-1-1.14-1.81-2.79a133,133,0,0,0-7.12-12.23,46.31,46.31,0,0,0-9-10.07,35.43,35.43,0,0,0-5.47-3.69,28.33,28.33,0,0,0-5.86-2.45,29.47,29.47,0,0,0-12.6-.59,49.28,49.28,0,0,0-6.49,1.48c-2.17.64-4.41,1.41-6.58,2.21a138,138,0,0,0-12.89,5.65c-4.25,2.09-8.46,4.38-12.7,6.72s-8.47,4.76-13,7.14A126.91,126.91,0,0,1,456,997.28a135.09,135.09,0,0,1-20,6.82c1.74-.25,3.54-.52,5.32-.86a110.51,110.51,0,0,0,31.66-11c4.84-2.56,9.06-5.2,13.25-7.73s8.27-5,12.36-7.35,8.19-4.48,12.39-6.35a79.49,79.49,0,0,1,12.74-4.6,29.9,29.9,0,0,1,12.48-.65,24.24,24.24,0,0,1,6,1.92c1,.42,2,1,2.94,1.56l1.42.92c.48.31.92.66,1.39,1a3.43,3.43,0,0,1,1.24,1.29c0,.17-.57-.13-1.28-.71a33.68,33.68,0,0,0-5.53-3.35,23,23,0,0,0-5.66-1.89,28.25,28.25,0,0,0-11.8.42,53.06,53.06,0,0,0-6.09,1.82c-2.08.76-4.18,1.59-6.25,2.5-4.16,1.81-8.27,3.89-12.46,6.19-6.93,3.81-13.63,8-20.56,12.22a144.66,144.66,0,0,1-22.77,11.33,122.56,122.56,0,0,0,23.17-10.53c6.85-3.94,13.26-7.88,19.69-11.38A126.55,126.55,0,0,1,519.12,970c6.46-2.23,12.52-3.18,18.13-1.73a7.11,7.11,0,0,1,2.48,1,1.15,1.15,0,0,1,.62,0c.35.11.71.26,1.07.38a11,11,0,0,1,1.13.45l1.16.54c.39.19.76.41,1.15.61.79.4,1.5.91,2.27,1.39s1.48,1,2.18,1.64a4.62,4.62,0,0,1,1.31,1.48C550.79,976.13,550.39,975.91,549.79,975.4ZM380.88,807.73l-.24-.06.65-.06,1.38.56Zm-4.75,9.32h0l-.82-.27Zm75.32,80.64,3.46-5.63c1.17-1.88,2.27-3.93,3.33-5.93a104.69,104.69,0,0,0,5.48-12.55A86.56,86.56,0,0,0,469,846.16a77.89,77.89,0,0,1-1.1,13.78,83.69,83.69,0,0,1-2.64,10.25,90.76,90.76,0,0,1-3.73,9.75c-1.42,3.16-3,6.23-4.7,9.23l-1.32,2.22-1.35,2.1Zm-79.1-89.87a12.81,12.81,0,0,1,3.37.46,6.09,6.09,0,0,1,1.43-1.18,39.8,39.8,0,0,1,4.49-2.32c-.43-.24-.06-.4.08-.55l.47-.4-5.11,2C375.53,806.47,373.94,807.31,372.35,807.82Zm-8.47,8.89-.24,0-.27-.72Zm.5,1.19.27-.09C364.77,818.05,364.64,818,364.38,817.9Zm2.38-.86a2,2,0,0,0-.52-.07Zm15.9,13.88-2-3.08,1.83,3Z"/><path d="M453.25,1021.72c0,.08,0,.17,0,.26a.48.48,0,0,1-.43-.26c.63,2.37,3.21,3.24,5.43,3.08a1.09,1.09,0,0,0,1.49-1.6,1.78,1.78,0,0,1-.17-.41,8.35,8.35,0,0,0-1.17-3.5l.22.83a2.93,2.93,0,0,0-.64-.88l-.1.35a2.54,2.54,0,1,0-4.84,1.51Z"/><path d="M452.81,1025.8c-.3-.74-.57-1.48-.83-2.23l0-.24-.54.76,0,0a4.54,4.54,0,0,1,2.85.55l.35.1a.76.76,0,0,0,.54-.21.8.8,0,0,0,.06-1.14L455,1023c-.65-1.18-2.17-2.39-3.68-1.57-.34.19-.52.64-.75,1a1.12,1.12,0,0,0,.09,1.58,1.11,1.11,0,0,0,1.57-.09l.17.29-.33,0c.47-.32,1-.07,1.49,0l.59.27.6-1.35-.37-.05a1,1,0,0,1-.05.16,10,10,0,0,1-2.12-.34l-1-.11a.68.68,0,0,0-.53.76l.11.48,0-.25c.5.79,1.11,1.51,1.58,2.31a.28.28,0,1,0,.5-.25Z"/><path d="M450.25,1024.06a.66.66,0,0,0-.26-.46l-.14,0c0,.1,0,.23.07.37S450.14,1024.22,450.25,1024.06Z"/><path d="M449.85,1023.64l0-.15,0,.15h.05Z"/><path d="M475,1039.77a38.24,38.24,0,0,0,2.89,3.07s.1,0,.16-.06.07-.15,0-.17c-1-1-2-2-2.88-3.08,0,0-.1,0-.16.06S474.93,1039.74,475,1039.77Z"/><path d="M477.74,1053.12a.23.23,0,0,0-.13.18c0,.06,0,.09.09.06a.29.29,0,0,0,.13-.18C477.85,1053.11,477.8,1053.09,477.74,1053.12Z"/><path d="M473.24,1058.44a2,2,0,0,0-.75.08c-.05,0-.07,0-.07-.06a.39.39,0,0,1-.28.2,15.23,15.23,0,0,1-4.83-.83,1.79,1.79,0,0,1-.25.23c-.3.22-.58.24-.7.06l-.07-.17c-.38-.55-.79-1.07-1.16-1.64a.76.76,0,0,1-.54,0,12.51,12.51,0,0,1-2-.08,1,1,0,0,1-.17.31c-.19.24-.44.34-.55.24l-.2-.13c.13.19.26.39.38.6a.19.19,0,0,1,0,.09,4.31,4.31,0,0,0,.59.44,15.36,15.36,0,0,0,6.66,1.62c.06,0,.09,0,.07.1s-.09.15-.15.16c-2,.44-4.08,1.37-5.85,1.28a30.3,30.3,0,0,1-5.95-.79c-1.46-1.14-3.26-1.6-5.09-2.31-.62-.25-1.2-.51-1.77-.8a1.84,1.84,0,0,1-.25-.14l-.39-.25-.76-.5-1.5-1c-2-1.37-3.9-2.8-5.85-4.26a3.32,3.32,0,0,1-1.2-4.55,3.36,3.36,0,0,1,2.56-1.63l-.34-.29-.42-.6a2.87,2.87,0,0,1-.47-2l.08-.91c.36-1.54.27-3.16.78-4.69l.44-.38v-.21a2.91,2.91,0,0,1,.32-1.71l.46-.52a6.43,6.43,0,0,1,1.87-1.38,2.52,2.52,0,0,1,.61-.61,3.46,3.46,0,0,1,1.24-1.91.48.48,0,0,1,.47-.5.48.48,0,0,1,.26.06h0c0-.2,0-.26.06-.5l-.15-.25c-.27-.38-.27-.38-.52-.71a2.33,2.33,0,0,1-.08-.8c.46-1.21.46-1.21.83-1.6l.15-.07c-.13-.33-.13-.35-.17-.45a1.91,1.91,0,0,1,0-.25c.16-.23.16-.23.19-.34a1,1,0,0,1,.12-.18c.33-.15.33-.15.39-.22l.17-.07.33.07-.12.85.23-.14-.13.33.15-.28.05.28,0-.37c.33.4.33.4.5.52a.67.67,0,0,0,.35.21.81.81,0,0,1,.09-.14l.69.86,0,.24a.22.22,0,0,1,.27.07l.18.21h.08v0l.28,0h.06l1.19.12a3.51,3.51,0,0,1,.27.4l0-.2c0-.13.22-.3.2-.35a16.58,16.58,0,0,0-2.2-3.14.43.43,0,0,1-.15-.57.42.42,0,0,1,.57-.14,8.91,8.91,0,0,1,6.54,4.95c.45.53.92,1.05,1.39,1.56v-.17l.29.5,0,0v-.64c-.05-.1-.09-.2-.13-.29a26.07,26.07,0,0,1-2.71-4,22.5,22.5,0,0,1-1.16-2.3.37.37,0,0,1,.52-.52c2.27,1.33,4.43,3.41,5,6a2.18,2.18,0,0,1,.76,1.17l0,0,0-.51c.22.3.16.69.32,1l.26-.53c1.17,1.36,2.77,2.4,3.55,4a1.58,1.58,0,0,1,.12.15,8.84,8.84,0,0,1,2,.47l-.24-.41a1.41,1.41,0,0,1,1,.27,3.1,3.1,0,0,1,.38,3.38,49.57,49.57,0,0,0,4.53,2.64c.09,0,.08.18,0,.32s-.24.23-.32.19a16.41,16.41,0,0,1-3.69-1.37,15.16,15.16,0,0,0,2.14,2.45l.37.2a.67.67,0,0,1,.27.32,13,13,0,0,0,3.43,2.25,27.61,27.61,0,0,0,3.51,1.1,12.57,12.57,0,0,1,4.77,1.8c.2.1.17.47-.07.83s-.62.57-.82.48c-3.56-1.06-7.24-1.86-10-4.25l-.87-.77-.1.15a2.14,2.14,0,0,1-.47.44,9.54,9.54,0,0,1,.87,1,6.71,6.71,0,0,1,3.41,1.71,9,9,0,0,1,1.28,2.47c1,.43,2,.8,3,1.27.06,0,.06.06,0,.14a.19.19,0,0,1-.16.12,13.77,13.77,0,0,1-2.55-.33,2.44,2.44,0,0,1-.48.91,2.12,2.12,0,0,1-.81.64l.39.34c.08.07.05.25-.08.4s-.29.24-.37.17l-1.59-1.34c-.79-.34-1.56-.7-2.32-1.09a3.27,3.27,0,0,1-.39.9h0l.33.21a14,14,0,0,1,6.62,3.22s0,.11,0,.19-.13.11-.16.08a11.28,11.28,0,0,0-1.75-1.34h0a.3.3,0,0,1-.14.18s-.1,0-.09-.07a.3.3,0,0,1,.13-.18,14.56,14.56,0,0,0-3.86-1.61,17,17,0,0,1,2.92,2.3l.53,0s0,.08,0,.15a.21.21,0,0,1-.16.12h-.14c.17.18.07.59-.22,1s-.69.55-.88.38a17.64,17.64,0,0,1-1.64-1.06l-.22-.06-.3,0c.68.76,1.34,1.56,2,2.37.07,0,0,.2-.06.34s-.24.2-.31.15a27.91,27.91,0,0,1-5.11-2.13l-2.75.63a1.29,1.29,0,0,0,.17.16c1.54,1.2,4.12.57,5.87,1.39.05,0,0,.1,0,.17s-.13.12-.16.09a17,17,0,0,0-3-.47,16.57,16.57,0,0,0-2.55-.27c1.26.72,2.9.86,4.27,1.42.08,0,.1.07.08.17a.2.2,0,0,1,.1-.07,2.41,2.41,0,0,1,.78-.08c.05,0,.07,0,0,.14A.23.23,0,0,1,473.24,1058.44ZM455,1031.66v-.12l.09.29-.14.75S454.93,1032.13,455,1031.66Zm-5-.65h0c.05-.24.08-.42.08-.42C450.05,1030.76,450,1030.9,450,1031Zm21.05,8.75a4.56,4.56,0,0,1-1.42-1.86l.51.25C470.46,1038.66,470.76,1039.2,471.05,1039.76Zm-16.79-11.92a6,6,0,0,1,0,1.59,2.06,2.06,0,0,1,.68.41,18.41,18.41,0,0,1,1.53,1.53c.08-.25.19-.12.28-.09l.24.11c-.48-.59-1-1.2-1.43-1.83A17.75,17.75,0,0,1,454.26,1027.84Zm-4.68-2.46v-.11l.33-.2Zm-.55.35.05.1C449,1025.91,449,1025.85,449,1025.73Zm.49,1a.68.68,0,0,0,0-.24Zm-6,8.83,1.41-1.2-1.4,1.12Z"/><path d="M450.08,846.34l.37,0a.8.8,0,0,1-.57.47c3.5-.09,6-3,7.24-5.78a1.55,1.55,0,0,0,1-1.92,1.57,1.57,0,0,0-2.12-.53,2.62,2.62,0,0,1-.67,0,13.55,13.55,0,0,0-5.57.28H451a5.31,5.31,0,0,0-1.62.53l.42.24a4.3,4.3,0,0,0-4.15,3.6,3,3,0,0,0,3.5,3.07Z"/><path d="M455.28,848.22c-1.13.12-2.22.22-3.35.31l-.31-.11.75.92,0-.07a6.11,6.11,0,0,1,2.19-3.41l.32-.41a1,1,0,0,0,0-.75,1.08,1.08,0,0,0-1.49-.46l-.7.31c-1.95.42-4.39,2-4,4.21.1.5.62.85,1,1.25a1.55,1.55,0,0,0,2.13.36,1.5,1.5,0,0,0,.63-2l.47-.12-.13.42c-.19-.68.4-1.26.7-1.89l.67-.65-1.47-1.2-.28.45a.92.92,0,0,1,.2.11,16.53,16.53,0,0,1-1.54,2.59l-.62,1.24a.81.81,0,0,0,.77.91h.68l-.34,0c1.27-.39,2.51-.92,3.78-1.25a.41.41,0,0,0,.36-.42A.35.35,0,0,0,455.28,848.22Z"/><path d="M451.77,850.88a1.05,1.05,0,0,0-.72.19c0,.11,0,.16,0,.19l.51,0C451.92,851.3,451.93,851.08,451.77,850.88Z"/><path d="M451,851.26h-.21l.19.07,0,0Z"/><path d="M535.61,840.22a12.18,12.18,0,0,0,6.78.46,18.05,18.05,0,0,0,7.32-4.11c.16-.15.25-.31.2-.37s-.21,0-.35.15a17.89,17.89,0,0,1-7.23,4,11.82,11.82,0,0,1-6.6-.47c-.16,0-.36,0-.39,0S535.44,840.17,535.61,840.22Z"/><path d="M572.23,809.87c0,.2,0,.22.15,0a2,2,0,0,0,.23-.64c0-.17-.06-.19-.16,0A1.69,1.69,0,0,0,572.23,809.87Z"/><path d="M576.25,813.18c-.29,1.16-.51,2.28-.72,3.29a2,2,0,0,1-.2.52c.12,0,.13.22,0,.64A83.79,83.79,0,0,1,564.51,843a1.06,1.06,0,0,1,0,.51,8.39,8.39,0,0,1-1.92,3l-.8.78a36.94,36.94,0,0,1-11.41,8.21c-.42.28-.89.56-1.4.85a15.32,15.32,0,0,1-1.72.74,20.46,20.46,0,0,1-3.12,1.23,21,21,0,0,1-3.34.86,24,24,0,0,1-3.44.44,24.39,24.39,0,0,1-3.41.05c.27.13.42.26.4.38-.11.28-1.18.38-2.4.22-.59-.08-1.14-.19-1.71-.29a44.57,44.57,0,0,0,5.14.9l.75.07,1.55,0a10.6,10.6,0,0,0,1.58,0c1.07-.1,2.15-.17,3.22-.37s2.34-.51,3.46-.83,2.16-.79,3.22-1.21,2-1,3-1.49,1.86-1.11,2.7-1.73a38.4,38.4,0,0,0,8.4-8.27,55.21,55.21,0,0,0,5.55-9l1.12-2.28,1-2.29c.32-.77.67-1.52,1-2.29l.84-2.3a2,2,0,0,1,.33-.65c.1-.09.16,0,.09.19-.28,1-.57,2-.85,3s-.62,2-.93,2.92c-.58,2-1.36,3.88-2.12,5.87a44.17,44.17,0,0,1-7.56,12.37,37.78,37.78,0,0,1-8.16,7c-.8.52-1.66,1-2.5,1.45s-1.8.83-2.72,1.24l-1.4.58c-.47.19-1,.32-1.48.47-1,.29-2,.59-3.05.82a40.89,40.89,0,0,1-12,.48l-2.66-.31-2.42-.39c-.84-.13-1.53-.26-2.27-.4l-2.14-.39-2-.53-1.86-.43-.93-.21-.85-.17-1.71-.31a35.83,35.83,0,0,0-6.14-.45A38.9,38.9,0,0,0,495.8,863a50.84,50.84,0,0,0-8.05,3.4c-2.79,1.7-5.5,3.42-8.26,5.41-1.27,1.25-3.39.89-4.82-.86a4.71,4.71,0,0,1-1-3.64l-.41.24-.76.22a3.15,3.15,0,0,1-2.3-.32l-1-.46c-1.61-1.07-3.49-1.59-5.13-2.75l-.31-.67-.25-.08a3.72,3.72,0,0,1-1.94-1l-.49-.73a8.38,8.38,0,0,1-1-2.77,3,3,0,0,1-.52-1,4.21,4.21,0,0,1-1.9-2.18.59.59,0,0,1-.44-.75.64.64,0,0,1,.19-.3h0c-.24-.11-.31-.14-.6-.25l-.38.1-1.12.42a3,3,0,0,1-1.06-.15c-1.37-1-1.38-1-1.72-1.55a1.55,1.55,0,0,1,0-.21c-.48.07-.52.07-.65.08a2.12,2.12,0,0,1-.33-.09c-.24-.28-.24-.28-.38-.35a2,2,0,0,1-.18-.21c-.06-.46-.06-.46-.12-.55a.83.83,0,0,1,0-.24,4.3,4.3,0,0,0,.24-.41l1.07.41-.09-.33.37.26-.3-.27.39,0-.49-.08a2.83,2.83,0,0,0,.89-.48,1.23,1.23,0,0,0,.46-.37.72.72,0,0,1-.15-.16l1.44-.58a2.09,2.09,0,0,1,.3.11.35.35,0,0,1,.22-.32l.37-.15,0-.09,0,0,.18-.33,0-.07h0c.13-.23.3-.56.77-1.44a3.53,3.53,0,0,1,.66-.2l-.26-.05c-.17,0-.27-.38-.34-.37a23.37,23.37,0,0,0-5.27,1.72.62.62,0,0,1-.82,0,.52.52,0,0,1,.07-.77c1.92-3.6,6.16-5.83,10.31-6.37q1.5-.48,3-1l-.21-.08.84-.12.09,0-.84-.29-.46,0c-2.26.85-4.68,1-7,1.68-1.25.35-2.53.38-3.79.64a.51.51,0,0,1-.7-.17.52.52,0,0,1,.31-.66c3.16-2.45,7.59-4.3,11.48-3.81a4,4,0,0,1,2.09-.35h0L465,837c.56-.12,1,.13,1.55.1l-.48-.55c2.69-.68,5.37-1.94,8.13-1.81l.3,0a13.5,13.5,0,0,1,1.36-1.12l.37-.25.11-.06.25-.09.51-.2c.69-.25,1.41-.49,2.16-.71l-3.09.63c1-.42,2.1-.85,3.18-1.23s2.27-.64,3.48-.9a44.34,44.34,0,0,1,5.08-.65,36.31,36.31,0,0,1,5,0,21.61,21.61,0,0,1,7.68,1.75,69.77,69.77,0,0,1,18.5,2.76c5.82,1.62,10.95,3.75,14.85,4.82.37.08.68.29.71.47s-.28.25-.66.16c-2.8-.55-6.32-1.76-10.21-3a87.68,87.68,0,0,0-12.62-3,79.29,79.29,0,0,1,10.49,3.17c3.3,1.2,6.4,2.52,9.15,3.52.73.24,1.37.4,2.07.61s1.24.37,1.86.63a8.54,8.54,0,0,0,1.1.25l1,.23,1,.1a5.15,5.15,0,0,0,.94.07,9,9,0,0,0,1.8-.09l.89-.1.92-.26a12.91,12.91,0,0,0,3.74-1.62l.93-.58.91-.69a21.7,21.7,0,0,0,1.82-1.57,43.09,43.09,0,0,0,5.43-6.66,73.51,73.51,0,0,0,4.51-8.11c1-2.06,1.9-4.21,2.81-6.29.44-1,.83-2.13,1.25-3.19s.85-2.1,1.22-3.19c.76-2.17,1.6-4.29,2.32-6.51s1.56-4.42,2.3-6.73c.38-1.23,1-2.31,1.27-2.38s.27.88-.1,2.12c-2.75,9.73-5.86,19.25-10.24,27.93a56.4,56.4,0,0,1-7.74,11.75,28.46,28.46,0,0,1-4.83,4.31,16.74,16.74,0,0,1-5.28,2.47,13.07,13.07,0,0,1-4.49.43.53.53,0,0,1,0,.17.65.65,0,0,1-.42.55,7,7,0,0,0,1.35.09,7.6,7.6,0,0,0,1.35,0c.44-.05.89-.09,1.35-.11s.91-.22,1.38-.31c5-1.94,9.28-6.43,13.62-12a103.41,103.41,0,0,0,7.91-11.88,164,164,0,0,0,6.27-17.25,1.17,1.17,0,0,1,.26-.54c.08-.07.09.07,0,.32-.54,2.07-1,4.19-1.7,6.26s-1.27,4.19-2,6.25c.45-.56.85-.86,1.09-.71s.28.75.13,1.58l1.17-2.78c.22-.59.49-1,.62-1s.07.57-.14,1.13c-.79,1.91-1.55,3.83-2.37,5.71s-1.67,3.75-2.65,5.54a68.49,68.49,0,0,1-7.28,12.61,3.23,3.23,0,0,1,1.47-.67h0L561,835a123.46,123.46,0,0,0,8.77-19.21c2.47-6.7,4.65-13.59,6.68-20.58.08-.27.19-.48.25-.47s0,.23,0,.48l-1.86,6.3-2,6.25v0c.09-.16.17-.16.15,0a1.67,1.67,0,0,1-.22.65c-.11.18-.17.14-.15,0a163.6,163.6,0,0,1-9,22.27,140.51,140.51,0,0,0,9-20.17l.6-2.36a1.17,1.17,0,0,1,.26-.55c.07-.05.08.13,0,.35s-.1.45-.16.66c.47-1.31,1-2.27,1.34-2.15s.19,1.41-.3,2.8c-.62,1.86-1.22,3.72-1.88,5.57s-1.37,3.67-2.12,5.48l-.45,1.19-.36,1.24c1.33-2.75,2.47-5.58,3.63-8.4s2.17-5.68,3.1-8.57c.15-.5.36-.89.47-.87s.09.45-.06,1a155.2,155.2,0,0,1-4.8,15.49,89.24,89.24,0,0,1-7.07,15,54.89,54.89,0,0,1-5.6,10.23l1.05-1.12c4.39-4.86,6.92-10.14,9.07-15.3s3.68-10.43,5.48-15.91a.86.86,0,0,1,.27-.51c.06,0,.06.2,0,.48-1.71,5.37-3.06,10.4-5.27,15.71a93,93,0,0,1-6.33,12.53,65.17,65.17,0,0,0,6.65-12c.81-2.06,1.71-4.08,2.42-6.16.37-1,.74-2.06,1.12-3.09s.69-2.08,1-3.13a3.38,3.38,0,0,1,.42-.93s0-.11,0-.23c.24-1.09.51-2.26.79-3.45a1.35,1.35,0,0,1,.26-.59C576.29,812.77,576.3,812.92,576.25,813.18ZM463.89,847.84l-.14-.06h.4l.84.51Zm-3.34,5.71h0l-.49-.25Zm57.39-16.84a107.37,107.37,0,0,0-15.51-3.25c1.3,0,2.6,0,3.9.19A61.68,61.68,0,0,1,517.94,836.71Zm-59.25,10.45a7.35,7.35,0,0,1,2,.59,3.54,3.54,0,0,1,.91-.66,23.57,23.57,0,0,1,2.81-1.18c-.26-.19,0-.27.06-.36l.29-.24-3.16.93C460.65,846.53,459.66,847,458.69,847.16Zm-5.49,5-.14,0-.12-.48Zm.22.8.16,0C453.64,853.08,453.56,853.06,453.42,852.94Zm1.45-.31a1,1,0,0,0-.3-.09Zm8.68,10.4-1-2.15.87,2.1Z"/><path d="M431.24,48.56l.56.21a1.31,1.31,0,0,1-1.08.51c5.54,1.32,10.59-2.09,13.55-5.9a2.42,2.42,0,0,0,2.16-2.59,2.48,2.48,0,0,0-3-1.72,4.58,4.58,0,0,1-1-.19,21,21,0,0,0-8.66-2l2,.55a8.53,8.53,0,0,0-2.71.12l.54.55a7.45,7.45,0,0,0-4.87.54,6,6,0,0,0-3.12,3.29c-1,2.84,1,5.65,4.22,6.29Z"/><path d="M438.58,53.73c-1.79-.27-3.56-.65-5.36-.95l-.44-.3.79,1.76v-.13c.78-2,2.85-3.31,4.82-4.39l.67-.49a1.48,1.48,0,0,0,.34-1.16,1.75,1.75,0,0,0-2.12-1.35l-1.21.19c-3.2-.23-7.73,1.3-8,4.85-.06.82.61,1.6,1,2.39a2.58,2.58,0,0,0,3.22,1.48,2.43,2.43,0,0,0,1.84-2.92h.79l-.38.61c0-1.18,1.16-1.79,1.89-2.63l1.31-.72-1.8-2.52-.61.59c.1.1.27.24.26.26-.56.59-1.11,1.18-1.67,1.74a19.1,19.1,0,0,1-1.82,1.64l-1.51,1.67a1.3,1.3,0,0,0,.82,1.75l1.07.31L432,55.2c2.17-.07,4.33-.41,6.47-.33a.66.66,0,0,0,.73-.52A.58.58,0,0,0,438.58,53.73Z"/><path d="M432,56.4a1.61,1.61,0,0,0-1.2,0c-.06.16-.09.24-.1.28l.8.26C432,57.12,432.14,56.77,432,56.4Z"/><path d="M430.66,56.67l-.34-.11.28.2,0,0Z"/><path d="M553.79,42.13q17.75,3.43,35,8.32c.39.11.73.12.78,0s-.24-.29-.59-.39c-11.5-3.31-23.13-6.09-35-8.4-.4-.07-.74,0-.8.1S553.42,42.05,553.79,42.13Z"/><path d="M635.23,77c-.28,0-.31.07-.07.24a2.11,2.11,0,0,0,.87.36c.23,0,.27-.08.07-.24A2,2,0,0,0,635.23,77Z"/><path d="M630,83.51a36.58,36.58,0,0,0-4.31-.93,2.34,2.34,0,0,1-.69-.24c0,.18-.3.23-.86.12-10.94-2.24-22.52-4.75-34.06-6.23a1.21,1.21,0,0,1-.59.35,8.29,8.29,0,0,1-4.14-.12l-1.2-.35c-2.46-.59-4.94-1.09-7.4-1.64L569.38,73a20.05,20.05,0,0,1-3.57,0l-3.31.11-3.31.17c-2.21.1-4.43.19-6.66.33.26.16.41.35.39.55-.14.46-1.19.75-2.38.67l-1.79-.07,5.1.64a4.36,4.36,0,0,1,.68.12c1.87.14,3.77.3,5.71.4,16.89,1.06,33.11,2.2,49.14,4.89a1.9,1.9,0,0,1,.87.27c.13.13.06.24-.24.22-10.37-.84-19.54,0-30.9-.27-6.77-.15-13.46,0-20.11.33s-13.28.9-19.94,1.62a134,134,0,0,0-20.13,1.93,197.87,197.87,0,0,0-19.71,4.4c-4.93,1.3-9.66,2.78-14.28,4.22-6.05,2.31-11.83,4.39-17.52,6.72-2.81,1.61-6.17.31-7.71-3a7.5,7.5,0,0,1,0-6.17l-.77.25-1.34.06A5.2,5.2,0,0,1,454,90l-1.36-1.12c-2.11-2.31-4.87-3.91-7-6.43l-.2-1.19-.35-.22a6,6,0,0,1-2.63-2.37l-.44-1.36a13.75,13.75,0,0,1-.47-4.8,5.07,5.07,0,0,1-.4-1.74,6.83,6.83,0,0,1-2.07-4.22,1,1,0,0,1-.38-1.36,1.15,1.15,0,0,1,.42-.4h0a9.33,9.33,0,0,0-.83-.64h-.64c-1,.12-1,.12-1.94.2a5.15,5.15,0,0,1-1.6-.69c-1.76-2.09-1.77-2.09-2.07-3.16a2,2,0,0,1,0-.35L431.05,60a2.52,2.52,0,0,1-.47-.29c-.26-.54-.26-.54-.46-.7a3.16,3.16,0,0,1-.2-.4c.11-.75.11-.75,0-.93a1.48,1.48,0,0,1,.09-.37l.55-.54,1.51,1.11V57.3l.48.58-.37-.56.62.2-.75-.34a4.81,4.81,0,0,0,1.62-.35,2,2,0,0,0,.86-.41,1.82,1.82,0,0,1-.16-.3c1.27-.18,1.26-.21,2.51-.31a3.51,3.51,0,0,1,.42.31.53.53,0,0,1,.48-.39l.64-.09.1-.13,0,0L439,55l.08-.1h0L440.82,53a6.92,6.92,0,0,1,1.11,0l-.39-.18c-.26-.14-.26-.72-.38-.73a37.94,37.94,0,0,0-8.94.43,1,1,0,0,1-1.31-.32.83.83,0,0,1,.46-1.16,18.51,18.51,0,0,1,8.5-4.93,25.86,25.86,0,0,1,10-.61c1.63-.08,3.24-.22,4.85-.35l-.29-.21,1.31.15h.14l-1.17-.77c-.24-.06-.47-.11-.71-.15-3.72.45-7.46-.32-11.31-.3-2.08,0-4-.52-6.1-.64a.85.85,0,0,1-1-.58.82.82,0,0,1,.74-.88,30,30,0,0,1,4.64-1.52,32.29,32.29,0,0,1,4.88-.82,20.87,20.87,0,0,1,9.34,1.24,6,6,0,0,1,3.25.28h.06l-.88-.67c.88,0,1.47.61,2.28.74l-.53-1c4.2,0,8.51-1.07,12.53,0a3.13,3.13,0,0,1,.44,0,21.4,21.4,0,0,1,2.26-1.35l.61-.28a1.26,1.26,0,0,1,.16-.07l.32-.07.65-.15c.88-.18,1.78-.34,2.73-.46l-3.86.06a41.22,41.22,0,0,1,8.34-1.55c8.07-.62,17.18.81,21.48,3.31q11.4-.37,22.74.09t22.55,1.66c.77.06,1.44.36,1.55.64s-.47.43-1.24.37c-10.73-.58-21.62-1-32.56-.79,9.16.73,18.26,1.82,27.47,3l3.55.31a22.5,22.5,0,0,1,3.47.61c11.72,1.69,22.66,4,34.41,6.37,10,2.08,18.74,4.24,28.55,7.11,3.46,1,6.79,2.1,10.09,3.16s6.53,2.25,9.7,3.56a170.18,170.18,0,0,1,18.89,8.75c1.69.87,3.08,2,3.08,2.53s-1.38.23-3.07-.63A278.8,278.8,0,0,0,613,60.62q-10.57-3.15-21.46-5.74c-3.62-.92-7.3-1.68-11-2.55s-7.43-1.61-11.2-2.34c-3.25-.69-6.47-1.25-9.68-1.83a.69.69,0,0,1,0,.28c0,.35-.39.62-.93.81,3.62.68,7.26,1.4,10.88,2.3A154,154,0,0,1,600.62,58a184.4,184.4,0,0,1,19.79,8.16,260.21,260.21,0,0,1,24.73,9.4,1.59,1.59,0,0,1,.72.47c.08.14-.13.14-.47,0C642.52,75,639.6,74,636.66,73s-5.9-2.06-8.92-3c.82.66,1.22,1.25,1,1.65s-1.09.52-2.28.38c1.31.53,2.64,1,3.94,1.57.81.35,1.38.78,1.28,1s-.82.13-1.58-.19c-2.67-1.09-5.37-2.08-8.05-3.12s-5.41-2-8.14-2.87c-6.63-1.93-13.3-3.58-20-5.13A4.31,4.31,0,0,1,595.5,65h0l3.08.78a200.41,200.41,0,0,1,56.07,19.61c.35.18.61.39.57.48s-.34,0-.66-.15c-2.71-1.37-5.39-2.8-8.15-4l-4.12-1.9L638.11,78l0,0c.2.15.2.28-.07.24a2.32,2.32,0,0,1-.87-.37c-.23-.18-.17-.27.07-.24a196.85,196.85,0,0,0-31.83-10,227.17,227.17,0,0,1,28.84,10.14c1.09.28,2.15.62,3.23.94a1.68,1.68,0,0,1,.72.45c0,.11-.2.12-.5,0l-.9-.28c1.76.8,3,1.77,2.73,2.24s-2,.19-3.81-.59c-2.48-1-5-1.87-7.47-2.82l-7.5-2.65-1.67-.44-1.73-.29c7.75,2.82,15.35,5.94,22.74,9.39.65.26,1.13.65,1.07.82s-.63.08-1.28-.18c-6.75-2.44-13.62-4.64-20.55-6.67s-14-3.74-21-5.33c-2.43-.08-4.86-.18-7.3-.22s-4.89,0-7.35,0l1.79.38c7.65,1.45,14.82,2.5,21.95,3.71a143.43,143.43,0,0,1,21.42,5.14c.37.11.64.3.65.41s-.28.1-.64,0a168.49,168.49,0,0,0-21.08-4.91c-3-.61-5.94-1-8.82-1.49s-5.74-.73-8.57-1c11.27,2.07,22.26,3.91,33.27,7.16a3.33,3.33,0,0,1,1.21.52.46.46,0,0,1,.32,0,41.74,41.74,0,0,1,4.54,1,1.47,1.47,0,0,1,.76.39C630.59,83.55,630.38,83.58,630,83.51ZM452.11,56.74l-.2-.15.62.19,1.11,1.12Zm-7.47,7.54h0l-.66-.6ZM526.9,43.19c-3.26-.15-6.51-.39-9.76-.58l-4.89-.38c-1.63-.12-3.26-.26-4.9-.44l4.76-.22c2.47.17,4.94.44,7.4.68S524.44,42.87,526.9,43.19ZM444.31,53.52a12.72,12.72,0,0,1,2.91,1.79,5.27,5.27,0,0,1,1.66-.67,38,38,0,0,1,4.78-.69c-.33-.41,0-.45.22-.55l.54-.26c-1.71.09-3.44.12-5.22.17A42.1,42.1,0,0,1,444.31,53.52ZM433.69,59l-.21-.12,0-.8Zm0,1.35.27,0C434,60.64,433.87,60.57,433.69,60.33Zm2.42.12a1.62,1.62,0,0,0-.44-.27Zm9.24,19.94-.6-3.75.48,3.64Z"/><path d="M347.09,168.61c.19,0,.38.08.57.12a1.2,1.2,0,0,1-.91.68c5.51.36,9.47-4.25,11.4-8.55a2.38,2.38,0,0,0,1.43-3,2.43,2.43,0,0,0-3.23-1.07,4.4,4.4,0,0,1-1,0,17.81,17.81,0,0,0-4.19-.6,21.89,21.89,0,0,0-4.31.4l2,.13a7.76,7.76,0,0,0-2.48.68l.63.44c-3.24-.06-6.23,2.33-6.56,5.28s2.07,5.37,5.25,5.43Z"/><path d="M355.12,172.29c-1.76.09-3.5.11-5.27.11l-.49-.21,1.12,1.58,0-.12c.34-2.08,2-3.82,3.61-5.29l.51-.63a1.57,1.57,0,0,0,.07-1.22,1.71,1.71,0,0,0-2.29-.91l-1.09.45c-3,.48-7,2.72-6.52,6.26.11.81.9,1.46,1.45,2.16a2.51,2.51,0,0,0,3.35.89,2.36,2.36,0,0,0,1.15-3.18l.76-.14-.24.67c-.25-1.14.71-2,1.22-3l1.07-1-2.24-2.12-.44.71.3.2a24.55,24.55,0,0,1-2.57,4l-1.09,1.91a1.35,1.35,0,0,0,1.14,1.57l1.08.11-.54-.13c2.06-.43,4-1.15,6.08-1.54a.64.64,0,0,0,.57-.66A.56.56,0,0,0,355.12,172.29Z"/><path d="M349.38,176.17a1.52,1.52,0,0,0-1.15.2c0,.17,0,.25,0,.3l.81.11C349.59,176.86,349.63,176.51,349.38,176.17Z"/><path d="M348.2,176.67l-.34,0,.3.15,0-.05Z"/><path d="M550.53,122.35l9.62.61,4.81.3,4.79.45,9.56.9,9.54,1.17,4.76.59,4.75.72,9.47,1.45,9.43,1.72,4.71.86,4.68,1a3.27,3.27,0,0,0,1.62.11c.06-.1-.57-.34-1.35-.5l-4.68-1-4.71-.87-9.42-1.73-9.47-1.47-4.74-.73-4.75-.59-9.52-1.19-9.56-.91-4.78-.45-4.81-.31-9.62-.63a3.59,3.59,0,0,0-1.7.21C549.12,122.19,549.73,122.32,550.53,122.35Z"/><path d="M730.71,175.52c-.57-.16-.59-.05-.06.26a10.32,10.32,0,0,0,1.88.8c.48.14.51,0,.06-.25A10.25,10.25,0,0,0,730.71,175.52Z"/><path d="M722.77,180.85c-3.24-1.1-6.34-2.08-9.13-2.85a9.85,9.85,0,0,1-1.49-.58c.12.23-.54.14-1.71-.23-23.23-6.92-48.39-13.4-73.55-17.13a2.69,2.69,0,0,1-1.14.25,21.05,21.05,0,0,1-3.79-.15c-1.55-.17-3.34-.37-5.13-.71l-2.7-.55c-10.92-2.08-21.92-3.47-32.88-4.82-2.28.1-4.91.09-7.75,0-2.4,0-4.79,0-7.18.08l-7.2.26c-4.8.09-9.62.47-14.47.74.61.15,1,.33,1,.54-.19.49-2.44.86-5.05.86l-3.95.19c3.78-.09,7.57.07,11.33.18.55,0,1,0,1.51.07,4.14-.07,8.33.08,12.6.15A510.46,510.46,0,0,1,679.2,170a8.61,8.61,0,0,1,1.92.58c.3.18.2.29-.43.16-5.51-1-10.82-2-16.14-2.68L656.62,167l-8-.84c-5.33-.63-10.78-1-16.4-1.48-2.81-.28-5.7-.39-8.64-.62s-5.93-.52-9-.64a416,416,0,0,0-43.93-.63,401.83,401.83,0,0,0-43.72,3.88,304.21,304.21,0,0,0-44.24,7.78c-3.56,1-7.15,1.84-10.69,2.9l-10.63,3.27-10.59,3.71c-1.78.59-3.51,1.36-5.28,2l-5.3,2.08c-2.42.9-4.73,2-7.07,3s-4.67,2-7,3l-6.76,3.27L416,199.39l-3.27,1.74-1.63.86-.82.44-.21.13-.72.45-1.45.88c-.95.6-1.95,1.13-2.88,1.74-1.87,1.21-3.75,2.37-5.65,3.51s-3.83,2.23-5.66,3.47c-2.56,2.2-6.43,1.51-8.68-1.48a7.23,7.23,0,0,1-1.26-6.08l-.75.4-1.38.3a5.43,5.43,0,0,1-2,0,5.35,5.35,0,0,1-1.92-.69l-1.6-.82c-2.6-1.87-5.67-2.88-8.26-5l-.42-1.13-.4-.15a6.13,6.13,0,0,1-3.08-1.86l-.71-1.26a13.89,13.89,0,0,1-1.37-4.62,5.08,5.08,0,0,1-.73-1.63,7,7,0,0,1-2.86-3.78,1,1,0,0,1-.64-1.26,1,1,0,0,1,.33-.46h0a7.41,7.41,0,0,0-.94-.49c-.38.09-.62.12-.62.12-1,.3-1,.3-1.84.54a5,5,0,0,1-1.68-.4c-2.11-1.74-2.12-1.74-2.61-2.73,0-.12,0-.24,0-.35l-1,0a2.57,2.57,0,0,1-.51-.2c-.35-.49-.35-.49-.57-.61a2.21,2.21,0,0,1-.27-.36c0-.75,0-.75-.14-.91a1.73,1.73,0,0,1,0-.39c.27-.39.37-.55.42-.61l1.66.81-.12-.55.58.48-.46-.48.62.09-.78-.2a4.44,4.44,0,0,0,1.48-.64,2,2,0,0,0,.74-.54,2,2,0,0,1-.22-.28c1.17-.4,1.17-.4,2.33-.77a4,4,0,0,1,.46.22.54.54,0,0,1,.37-.49l.59-.21a1,1,0,0,1,.07-.15l0,0,.29-.52.05-.12h0l1.27-2.28a6.88,6.88,0,0,1,1-.26l-.41-.1c-.27-.08-.4-.65-.52-.64a40.58,40.58,0,0,0-8.34,2.2,1,1,0,0,1-1.31-.09.83.83,0,0,1,.19-1.22,18.81,18.81,0,0,1,6.91-6.55,25.26,25.26,0,0,1,9.27-2.7c1.51-.46,3-1,4.49-1.47l-.33-.14c.43-.06.85-.13,1.28-.16l.13,0-1.3-.5c-.23,0-.47,0-.7,0-3.4,1.3-7.08,1.43-10.73,2.18a21,21,0,0,1-2.94.33c-1,.09-1.94.15-2.91.29a.8.8,0,0,1-1.08-.36.81.81,0,0,1,.49-1c.61-.45,1.25-.9,1.91-1.33s1.36-.78,2.06-1.14a31,31,0,0,1,4.39-1.81,19.33,19.33,0,0,1,9-.93,5.44,5.44,0,0,1,3.15-.43h.05l-1-.48c.83-.15,1.54.29,2.34.24l-.76-.91c2-.52,3.91-1.31,5.86-2a26.47,26.47,0,0,1,2.94-.85,14.66,14.66,0,0,1,3-.27l.43-.07a21.52,21.52,0,0,1,1.79-1.91c.16-.15.33-.29.5-.43a.73.73,0,0,1,.15-.11l.63-.31,1.29-.61c1.73-.81,3.52-1.64,5.41-2.41l-7.67,2.73,0,0,.12-.06.25-.12.49-.26,1-.5,2-1c1.35-.64,2.68-1.33,4.07-1.89,2.78-1.14,5.63-2.24,8.62-3.29,4-1.5,8.3-2.6,12.5-3.72,2.11-.53,4.19-1.1,6.26-1.52s4.12-.79,6.1-1.13a85.64,85.64,0,0,1,19.63-1.54,426.3,426.3,0,0,1,47.78-8.2l12-1.22,12-.82c1-.07,2-.15,3-.2l3-.11,6-.22c2-.06,4-.17,6-.19l6,0a8,8,0,0,1,3.45.47c.17.27-.92.52-2.57.54a469.73,469.73,0,0,0-69.2,6.8,509.29,509.29,0,0,1,58.81-3.89c2.53-.14,5.07-.13,7.62-.15s5,.07,7.52.2c1.59,0,3.16,0,4.74.13l4.71.2,4.69.2c1.56,0,3.11.13,4.66.27,6.19.48,12.36.84,18.51,1.56,12.32,1.15,24.6,3,37.31,5l8,1.42c2.63.46,5.23.9,7.79,1.46l7.62,1.57c1.27.27,2.53.51,3.79.79l3.75.89c5,1.18,10,2.31,15,3.71l7.63,2,7.75,2.28a413.94,413.94,0,0,1,82.1,33.8c3.53,1.94,6.62,4.07,6.82,4.7s-2.52-.43-6.06-2.36q-21-10.86-42.79-19.55l-5.47-2.14c-1.82-.72-3.64-1.44-5.49-2.08l-11.08-4L691.29,152c-3.74-1.21-7.53-2.27-11.3-3.42A536.32,536.32,0,0,0,585.48,130l-5.29-.58c-1.76-.19-3.52-.29-5.28-.43-3.5-.27-7-.57-10.48-.8.09.1.17.19.17.28,0,.37-.69.68-1.81.93,2,.07,4,.25,5.93.42l5.93.51c4,.3,7.93.81,11.89,1.31,22.12,1.52,44.24,4.62,67.05,10.83l5.79,1.62c1.91.53,3.79,1.07,5.64,1.68L676,149.32l10.58,3.83c1.76.62,3.49,1.29,5.22,2l5.21,2.06a466,466,0,0,1,52.73,21.12,6.77,6.77,0,0,1,1.6.89c.21.2-.2.1-.91-.2-12-5.29-24.51-10.23-37.25-14.83,1.89,1.05,2.9,2,2.58,2.31s-2,.12-4.46-.46c2.87,1,5.67,2.28,8.5,3.42,1.75.72,3.06,1.45,2.92,1.64s-1.59-.18-3.25-.86c-5.74-2.4-11.58-4.53-17.4-6.71-2.9-1.1-5.86-2-8.8-3.08s-5.86-2.05-8.84-2.94c-14.28-4.31-28.74-7.81-43.38-10.75a12.51,12.51,0,0,1,3.94,2.17h0c2.26.44,4.49,1,6.72,1.52a415.88,415.88,0,0,1,61.39,17.42A431.62,431.62,0,0,1,772,195c.75.4,1.33.8,1.3.9s-.65-.16-1.32-.53c-11.46-6.4-23.23-12.18-35.14-17.51l0,0c.45.27.5.42-.06.25a10.36,10.36,0,0,1-1.88-.81c-.53-.3-.43-.38.05-.25l-8.39-3.56c-2.8-1.17-5.64-2.22-8.46-3.33-5.62-2.26-11.36-4.16-17-6.17-11.45-3.74-22.94-7.2-34.53-9.89a430.57,430.57,0,0,1,62.51,21.78l6.81,2.52a7,7,0,0,1,1.6.84c.14.15-.35,0-1-.2l-1.9-.71c1,.42,1.85.84,2.64,1.25s1.47.82,2,1.18c1.13.72,1.74,1.26,1.6,1.49-.44.41-3.83-.78-7.81-2.45l-8-3.34c-2.67-1.08-5.38-2.09-8.06-3.14-5.35-2.16-10.81-4-16.22-6-1.18-.4-2.37-.77-3.57-1.12l-3.65-.91A479.62,479.62,0,0,1,743,185.71c1.38.62,2.5,1.3,2.45,1.48s-1.23-.19-2.62-.81c-14.35-6.15-29-11.7-44-16.5s-30.24-8.89-45.66-12.27l-7.75-1-7.79-.78c-5.19-.58-10.45-.86-15.71-1.22l3.94.68c16.8,2.78,32.35,5.56,47.68,9a344.86,344.86,0,0,1,46,13.59,4.27,4.27,0,0,1,1.46.73c0,.13-.51,0-1.3-.29a372.36,372.36,0,0,0-45.2-13.24,354.57,354.57,0,0,0-37.58-7c12.38,2.11,24.43,4.7,36.43,7.52l9,2.26c1.5.37,3,.77,4.46,1.21l4.46,1.27c6,1.63,11.85,3.62,17.8,5.56a13.61,13.61,0,0,1,2.68,1.1,1.44,1.44,0,0,1,.62.09c3,.86,6.29,1.9,9.61,3a6.21,6.21,0,0,1,1.69.8C723.89,181.15,723.47,181.08,722.77,180.85Zm-354-8.35-.24-.11.65.05,1.33.87Zm-5.56,9h0l-.77-.46Zm130.39-52.9-10.39,1.24c-1.73.22-3.46.39-5.18.62l-5.17.74c-3.44.5-6.9.88-10.33,1.43s-6.88,1.08-10.33,1.58l9.93-2.21,2-.32,2-.25,3.92-.5,7.85-1C483,129.46,488.29,129,493.56,128.61ZM360.5,170.89a13,13,0,0,1,3.2,1.2,5,5,0,0,1,1.44-1,43.81,43.81,0,0,1,4.41-1.74c-.41-.34-.06-.46.08-.6l.45-.38c-1.61.47-3.25.9-4.94,1.33A39.42,39.42,0,0,1,360.5,170.89Zm-8.95,7.51-.22-.08-.14-.79Zm.27,1.32.26,0C352.16,180,352,179.92,351.82,179.72Zm2.36-.31a1.63,1.63,0,0,0-.48-.18Zm13,17.91-1.32-3.59,1.18,3.5Z"/></svg>