<svg id="Layer_1" data-name="Layer 1" xmlns="http://www.w3.org/2000/svg" viewBox="0 0 1080 502.98"><path d="M466.44,78.83l.59,0a1.28,1.28,0,0,1-.86.8,10.52,10.52,0,0,0,6.84-3.4,16.18,16.18,0,0,0,3.92-6.41,2.47,2.47,0,0,0,1.21-3.18,2.39,2.39,0,0,0-3.33-.65,4.34,4.34,0,0,1-1,.15,21.94,21.94,0,0,0-8.7.79l2-.07a7.19,7.19,0,0,0-2.48.94l.66.35c-3.27.38-6.11,3.16-6.16,6.13s2.63,5,5.84,4.64Z"/><path d="M474.82,81.41c-1.73.31-3.47.55-5.24.79l-.51-.15,1.28,1.41-.05-.11c.13-2.09,1.61-4,3.09-5.68l.47-.66a1.45,1.45,0,0,0,0-1.19,1.76,1.76,0,0,0-2.41-.65c-.36.18-.71.38-1.06.57-3,.88-6.74,3.62-5.93,7.05.2.79,1.06,1.32,1.69,1.93a2.51,2.51,0,0,0,3.44.44,2.38,2.38,0,0,0,.82-3.29l.74-.24c-.05.23-.11.46-.17.7-.36-1.09.52-2.07.93-3.11l1-1.11-2.44-1.8-.37.76c.12.06.32.14.32.15a26.6,26.6,0,0,1-2.18,4.29l-.9,2a1.31,1.31,0,0,0,1.3,1.4l1.09,0-.55-.05c2-.7,3.92-1.67,5.9-2.31a.67.67,0,0,0,.5-.73A.54.54,0,0,0,474.82,81.41Z"/><path d="M469.51,86a1.58,1.58,0,0,0-1.13.35v.3h.82C469.79,86.62,469.79,86.27,469.51,86Z"/><path d="M468.38,86.62H468l.32.1s0,0,0,0Z"/><path d="M620.3,36.78c1.13.11,2.26.18,3.37.32l3.35.43,6.69.86,6.65,1.1,3.31.55,3.29.67,6.57,1.34L660,43.63l3.25.78c1.08.28,2.14.6,3.22.89l6.41,1.81c.58.15,1.08.22,1.13.11s-.35-.35-.89-.49l-6.42-1.82-3.22-.9-3.24-.79-6.51-1.59-6.56-1.35-3.29-.68L640.61,39,634,37.93c-2.23-.32-4.46-.58-6.69-.87s-4.47-.6-6.73-.76a1.87,1.87,0,0,0-1.2.15C619.32,36.59,619.74,36.73,620.3,36.78Z"/><path d="M740,86.91c-.39-.13-.43,0-.1.23a4.64,4.64,0,0,0,1.22.68c.32.11.37,0,.09-.23A4.47,4.47,0,0,0,740,86.91Z"/><path d="M733,92.13c-1.06-.48-2.08-.95-3.08-1.36s-2-.75-2.93-1a5.38,5.38,0,0,1-1-.49c0,.21-.42.15-1.19-.15A321.52,321.52,0,0,0,676.43,74a1.69,1.69,0,0,1-.82.27,17,17,0,0,1-6-.77L667.9,73c-1.78-.5-3.59-.88-5.38-1.33s-3.58-.9-5.39-1.25l-5.42-1.09-2.7-.55-2.72-.46a40.76,40.76,0,0,1-5.16-.18c-3.19,0-6.39.11-9.58.14l-9.6.45c.39.17.63.36.61.56s-.48.42-1.09.56a9.8,9.8,0,0,1-2.26.25l-2.6,0c2.48.11,5,.13,7.43.4a9.07,9.07,0,0,1,1,.11c2.73.12,5.49.12,8.3.34A288,288,0,0,1,704.07,83a3.75,3.75,0,0,1,1.22.54c.18.17.1.27-.33.15-14.65-3.64-27.75-4.7-44.05-6.31a221.58,221.58,0,0,0-57.21,1.86A147.75,147.75,0,0,0,575.43,85,167.19,167.19,0,0,0,548.86,95.7c-1.5.67-2.91,1.52-4.35,2.26l-4.28,2.28-4.13,2.45c-1.36.82-2.75,1.56-4.05,2.46l-1,.65-.49.32-.18.13-.63.47-1.27.93c-.84.62-1.71,1.17-2.51,1.83-1.63,1.26-3.26,2.48-4.92,3.67s-3.19,2.53-4.81,3.76a5,5,0,0,1-4,1.47,6.53,6.53,0,0,1-4.22-2.21,7.44,7.44,0,0,1-1.92-5.79l-.65.46-1.25.43a5.16,5.16,0,0,1-3.8-.3l-1.65-.68c-2.72-1.59-5.74-2.19-8.48-4l-.55-1-.4-.11a6,6,0,0,1-3.21-1.45l-.83-1.15a13.48,13.48,0,0,1-1.88-4.36,4.72,4.72,0,0,1-.9-1.5,6.82,6.82,0,0,1-3.23-3.36.94.94,0,0,1-.77-1.16,1,1,0,0,1,.27-.49h0a9.81,9.81,0,0,0-1-.36c-.37.13-.6.19-.6.19-.93.42-.93.42-1.76.77a5.15,5.15,0,0,1-1.71-.18c-2.28-1.44-2.29-1.43-2.89-2.35a2.05,2.05,0,0,1-.07-.34c-.77.14-.83.14-1,.17a2.26,2.26,0,0,1-.53-.13c-.41-.43-.41-.43-.64-.52a2.25,2.25,0,0,1-.31-.32c-.13-.73-.12-.73-.24-.88a2.1,2.1,0,0,1,0-.38l.36-.66,1.74.58-.17-.53.62.41-.51-.42h.63l-.79-.09a4.81,4.81,0,0,0,1.4-.82,1.94,1.94,0,0,0,.68-.63,1.89,1.89,0,0,1-.25-.24c1.13-.55,1.13-.55,2.24-1.06a4.56,4.56,0,0,1,.48.15.55.55,0,0,1,.32-.52l.56-.29.05-.16,0,0,.24-.56,0-.12h0c.16-.38.39-1,1.08-2.35a7.37,7.37,0,0,1,1-.35l-.42-.06c-.28,0-.46-.59-.58-.58-.72.14-1.43.32-2.13.53s-1.36.51-2,.8c-1.34.58-2.66,1.23-4,1.85a1,1,0,0,1-1.31.09.82.82,0,0,1,.06-1.23c2.7-6,9.14-9.76,15.48-11,1.51-.58,3-1.19,4.47-1.81l-.34-.11,1.28-.28.12-.05L487,67.46c-.24,0-.47.05-.71.09A29.17,29.17,0,0,1,481,69.26c-1.8.47-3.61.95-5.41,1.54s-3.91.8-5.9,1.27a.85.85,0,0,1-1.14-.24.81.81,0,0,1,.43-1,35.74,35.74,0,0,1,8.15-5.22,20.92,20.92,0,0,1,9.17-1.76,5.66,5.66,0,0,1,3.13-.8h.05l-1-.36c.82-.26,1.58.14,2.39,0l-.83-.82c2-.67,3.93-1.58,5.88-2.38,1-.39,2-.76,2.95-1.05a13.65,13.65,0,0,1,3.06-.48,3.34,3.34,0,0,1,.43-.1,23.49,23.49,0,0,1,1.76-2l.49-.46.15-.11.43-.25.87-.49a38.17,38.17,0,0,1,3.73-1.87c-.93.3-1.83.65-2.73,1l-2.65,1a1.28,1.28,0,0,1,.27-.17l.33-.21.68-.4,1.36-.8c.91-.54,1.85-1,2.81-1.48,1.91-.92,3.89-1.79,6-2.61,11.38-4.37,24.9-6.54,31.65-5.37A245.25,245.25,0,0,1,581,37.48a270.74,270.74,0,0,1,33.9-1.42,4.19,4.19,0,0,1,2.41.56c.11.27-.66.48-1.82.45A264.88,264.88,0,0,0,567,41.68a288.56,288.56,0,0,1,41.22-2c1.77,0,3.55-.07,5.34,0s3.5.22,5.24.42c17.69,1,34.15,4,51.53,8l2.77.64,2.7.72,5.31,1.41c1.76.45,3.47,1,5.18,1.52L691.36,54c3.4,1.07,6.75,2.28,10.17,3.44s6.81,2.57,10.34,3.93a280.28,280.28,0,0,1,27.92,13.11,245.82,245.82,0,0,1,25.84,16.33c2.25,1.62,4.13,3.43,4.13,4s-1.84-.28-4.09-1.88a311.39,311.39,0,0,0-27.75-16.69,317.47,317.47,0,0,0-29.49-13.56,298.84,298.84,0,0,0-31.18-10.52,314.77,314.77,0,0,0-33-7.38c-2.43-.45-4.87-.73-7.28-1.1l-3.62-.52c-1.21-.15-2.42-.26-3.63-.39a.46.46,0,0,1,.1.28c0,.35-.51.64-1.3.85l4.1.46c1.36.18,2.72.41,4.08.62l4.09.66,2,.34,2,.42a190,190,0,0,1,45.67,10.7A236,236,0,0,1,719.1,70.55a283,283,0,0,1,34.41,18.3,3.34,3.34,0,0,1,1,.79c.11.19-.18.11-.63-.16l-6-3.27-3-1.65L741.87,83l-6.13-3.16-6.27-3c1.15,1,1.72,1.75,1.41,2.1s-1.5.2-3.15-.34l5.52,3c1.13.61,1.94,1.26,1.79,1.45s-1.12-.14-2.2-.71c-3.75-2-7.47-4-11.31-5.84-1.91-.91-3.79-1.9-5.73-2.76L710,71.08a297.06,297.06,0,0,0-28.89-9.88,7.06,7.06,0,0,1,2.44,2.12h0L688,64.71c27.69,7.64,54.5,21.06,78.43,38.55.47.34.82.67.77.76s-.45-.11-.88-.42c-3.64-2.59-7.26-5.22-11-7.61-1.88-1.21-3.71-2.49-5.63-3.61L744,88.93l0,0c.28.24.28.37-.1.23a5.4,5.4,0,0,1-1.19-.72c-.32-.28-.23-.35.09-.24a245.84,245.84,0,0,0-44.88-20.11A257.22,257.22,0,0,1,738.7,87.35c1.48.71,3,1.35,4.47,2.12a3.49,3.49,0,0,1,1,.75c.07.14-.27.06-.68-.16l-1.22-.63c2.41,1.51,4.06,3,3.75,3.43s-2.7-.52-5.21-2c-6.9-3.75-13.81-7.43-20.92-10.69l-2.34-1-2.42-.83A290.76,290.76,0,0,1,746.83,95.9c.89.52,1.57,1.1,1.49,1.26s-.87-.12-1.77-.64a297.55,297.55,0,0,0-28.58-14,286.65,286.65,0,0,0-30-11c-3.48-.62-7-1.09-10.47-1.63-3.53-.37-7-.81-10.6-1.1.87.19,1.74.42,2.61.64,11.11,2.62,21.43,5.17,31.57,8.26A196.48,196.48,0,0,1,731.3,89.41a2.13,2.13,0,0,1,.9.66c0,.12-.38,0-.88-.25a221.89,221.89,0,0,0-29.7-11.38l-6.34-2L689,74.84l-3.09-.79-3.09-.66c-2.06-.42-4.1-.85-6.13-1.23l6.08,1.61,3,.77,3,.87,6,1.7c2,.64,4,1.26,5.92,1.89l3,1,2.93,1,5.87,2.11c1.94.76,3.87,1.56,5.81,2.35l2.92,1.2c1,.41,1.91.86,2.88,1.3a7.68,7.68,0,0,1,1.7,1,.71.71,0,0,1,.43.07,62.09,62.09,0,0,1,6.33,2.52,3.18,3.18,0,0,1,1.06.68C733.76,92.36,733.47,92.31,733,92.13Zm-244.61-12-.24-.09h.65l1.39.73Zm-4.67,9.44h0l-.82-.37Zm96.62-48.2-7.27.82c-1.21.11-2.42.29-3.62.46l-3.62.5c-4.84.55-9.62,1.44-14.5,2.06l6.93-1.67,2.74-.44,2.76-.33,5.52-.61c1.83-.23,3.68-.34,5.53-.45ZM480.12,79.47a12.59,12.59,0,0,1,3.28.8,5,5,0,0,1,1.34-1.16A27,27,0,0,1,489,77c-.44-.29-.09-.44,0-.59l.43-.4c-1.58.6-3.25,1.09-4.86,1.75A40.91,40.91,0,0,1,480.12,79.47Zm-8.22,8.41-.23,0-.22-.76Zm.42,1.27.25-.07C472.68,89.35,472.55,89.32,472.32,89.15Zm2.3-.61a1.54,1.54,0,0,0-.49-.12Zm14.73,16-1.71-3.36,1.57,3.29Z"/><path d="M641.44,89.5l-.57-.28c.12-.18.48-.2,1-.11a10.3,10.3,0,0,0-7.08-.49,9.29,9.29,0,0,0-2.45,1.16,7.19,7.19,0,0,0-1.62,1.49c-1.15.11-1.56.73-1.14,1.3a2.45,2.45,0,0,0,1.11.73,4.32,4.32,0,0,0,1.61.29,5.94,5.94,0,0,1,.9.2c.6.24,1.18.47,1.8.69l1.94.66,2,.66c.7.22,1.4.43,2.13.67-.64-.29-1.29-.57-1.91-.82a19.86,19.86,0,0,0,2.44.62l-.59-.48c3.14,1.3,6.41,1.69,7.07.21s-1.79-4.52-5.11-5.89Z"/><path d="M633.7,84.94a24.7,24.7,0,0,1,2.56.46c.87.19,1.73.4,2.62.67l.47.28-1-1.41,0,.09c-.42,1.37-2.21,2-3.77,2.64l-.53.27a.64.64,0,0,0-.11.73,2.57,2.57,0,0,0,2.16,1.06l1.07,0c.71.12,1.55.23,2.36.3a12.12,12.12,0,0,0,2.27,0c1.42-.18,2.46-.7,2.33-2,0-.61-.84-1.41-1.37-2.13a3.85,3.85,0,0,0-3.39-1.78c-1.31.1-1.86,1-1.33,1.92l-.76-.1.27-.4c.2.85-.8,1.17-1.36,1.68l-1.06.39,2.06,1.86.46-.32a2.86,2.86,0,0,1-.29-.21,15.17,15.17,0,0,1,2.78-1.82l1.25-.94c.19-.47-.29-1.15-1.07-1.51l-1.1-.41.54.25a53.66,53.66,0,0,0-6.11-.31c-.32,0-.57.13-.57.36S633.37,84.91,633.7,84.94Z"/><path d="M639.57,83.52a2.24,2.24,0,0,0,1.19.21c0-.13,0-.19,0-.22l-.82-.33C639.4,82.94,639.34,83.2,639.57,83.52Z"/><path d="M640.81,83.51l.35.15-.3-.21,0,0Z"/><path d="M649.9,233.23c-1,24.83-2.15,49.81-3.7,74.78-.05.83,0,1.54.21,1.58s.34-.6.37-1.38c1.61-25,2.79-49.83,3.78-74.66a2.73,2.73,0,0,0-.3-1.64C650.07,231.86,649.92,232.45,649.9,233.23Z"/><path d="M627.24,419.46c-.06-.59-.17-.57-.26,0a10.75,10.75,0,0,0-.07,2.06c.05.5.17.48.25,0A10.48,10.48,0,0,0,627.24,419.46Z"/><path d="M619,414c-.28-3.5-.59-6.82-1-9.78a9.21,9.21,0,0,1,0-1.64c-.18.21-.38-.46-.51-1.72-2.63-24.85-4.51-51.57-6.26-77.89a2.59,2.59,0,0,1-.65-1.11,29.32,29.32,0,0,1-1.11-9.28l.11-2.86c.18-11.55.39-23.07.8-34.56a70.65,70.65,0,0,1-.62-8.05c-.91-9.95-1.72-19.93-2.26-30.14-.2.64-.45,1-.72,1-.63-.2-1.09-2.57-1-5.33,0-1.39.08-2.77.17-4.16-.46,4-.54,8-.8,11.95q0,.87-.12,1.59c-.09,4.37-.09,8.79,0,13.28.42,39.22,4,76.09,7.74,112.67a7.61,7.61,0,0,1,0,2.07c-.1.36-.27.29-.36-.38-3.5-23.07-8.23-43.05-11-69.14-1.62-15.52-3-30.95-4-46.49-.26-3.88-.52-7.77-.71-11.67l-.3-5.86c-.1-2-.23-3.92-.22-5.88A57.52,57.52,0,0,1,601.36,207c4-8.29,9-16.37,12.8-24.51,1-2.08,1.81-4,2.71-6.34l.63-1.67c.24-.64.48-1.17.68-1.63.42-.91.82-1.69,1.13-2.48a15.64,15.64,0,0,0,1.21-9.44,13.39,13.39,0,0,0-1.75-4.35c-.44-.69-.94-1.4-1.61-2.35a19.48,19.48,0,0,1-2.2-4A16.81,16.81,0,0,1,613.9,145a17.59,17.59,0,0,1,.57-5.16,23.67,23.67,0,0,1,4-7.76,13.46,13.46,0,0,0,1-1.58l0-.06h0l.09.06.35.18a6,6,0,0,0,.73.32l.39.13c.14,0,.12.06.2.08a2.79,2.79,0,0,0,.66.17s0,0,0,0h-.21l-.29,0-.21,0,.1,0c.06,0,0,0-.4.18l-.3.17-.36.24c-.16.1-.31.21-.46.32l-.1.09h0a.81.81,0,0,0-.19-.3,1.72,1.72,0,0,0-.23-.26c-.41-.36-.74-.7-1.14-1-.8-.6-1.58-1.2-2.3-1.82a22,22,0,0,1-3.72-3.67,9.94,9.94,0,0,1-1.75-4.15,4.09,4.09,0,0,1-.14-1.21,10.2,10.2,0,0,1,0-1.24,10.38,10.38,0,0,1,.52-2.26,6.41,6.41,0,0,1,.64-1.38,6.71,6.71,0,0,1,.85-1.27c.16-.2.27-.42.46-.62l.61-.58a16.47,16.47,0,0,1,1.41-1.11,8.54,8.54,0,0,1,.8-.53,6,6,0,0,1,.87-.49c.66-.28,1.32-.56,1.95-.87,1.33-.56,2.84-1,4.21-1.41l2.08-.7c.42-.15.63-.25.93-.37a9.53,9.53,0,0,0,1.34-.69,1.64,1.64,0,0,0,.28-.24h0s0,0,0,0l.08.09c.18.24.46.52.58.7s.33.38.51.56l.29.26.19.2a3.94,3.94,0,0,0,.45.36,3.54,3.54,0,0,0,.34.25c.09.07.28.14.31.17l.2.09c.13,0,.19,0,.1,0a1.31,1.31,0,0,0-.34.11,2,2,0,0,0-.59.34,4.76,4.76,0,0,0-.87.62l-.18.18-.28.24a6.51,6.51,0,0,0-.54.51c-.17.18-.34.36-.49.55a2.28,2.28,0,0,1-.28.31c-.08.09,0,0-.06.06h-.09c-.11,0-.22,0-.38-.07-.65-.16-1.64-.4-2.72-.58-.56-.1-1.08-.2-1.75-.28l-2-.07c-.68-.05-1.37-.2-2.06-.3a76.82,76.82,0,0,1-8.85-1.95l-1.67-1a4.41,4.41,0,0,0-.43-.25l-.55-.2-1.09-.39a8.67,8.67,0,0,1-1.06-.42l-.73-.56c-.49-.38-1-.75-1.44-1.13s-.93-.76-1.36-1.15l-.44-.39-.58-.52c-.79-.69-.48-1.59-1.35-2.26l-.5-.53a2.43,2.43,0,0,1-.44-.54l-.66-1.12L595.94,97a13,13,0,0,0-.72-1.19c-.65-.8.08-1.59-.74-2.49l-.37-.65a3.65,3.65,0,0,1,0-.66l.06-.65c0-.1,0-.23-.09-.35l-.16-.37c-.17-.49-.56-1-.3-1.44l.16-.68.09-.34a1.4,1.4,0,0,0-.07-.39c-.12-.52-.26-1-.36-1.58l.56-1.36.14-.34a1.27,1.27,0,0,0,0-.39v-.8c0-.53,0-1.06,0-1.6l.1-1.61,0-.41c0-.14.14-.21.2-.32l.49-.61,1-1.22a9.8,9.8,0,0,0,.56-1.46l.52-1.48,0-.1,0,0a.53.53,0,0,0-.06-.1l-.26-.42-.13-.2c0-.06,0-.08,0-.11l.08-.2.35-.81.35-.8.27-.71.54-1.32c.35-.85.73-1.73,1.11-2.56s.6-1.36.91-2a19.74,19.74,0,0,1,1-1.81,12.73,12.73,0,0,1,2.07-2.62c1.33-1.28,2.7-1.68,3.68-.95,1.19.9,1.55,3.11,1.13,5.54.22-.33.43-.66.64-1,.4-.45.81-.93,1.2-1.35,1.14-1.18,2.36-1.94,3.46-1.87h1.43c2.32.53,5.1.33,7.47,1.74l.38,1,.37.05a3.76,3.76,0,0,1,2.85,1.17l.65,1.14a12.06,12.06,0,0,1,1.21,4.22,4,4,0,0,1,.66,1.41,5.67,5.67,0,0,1,2.63,3.22.79.79,0,0,1,.58,1.07.86.86,0,0,1-.34.37h0c.35.19.45.24.89.45a5.12,5.12,0,0,1,.6,0c1-.16,1-.15,1.84-.24a5.89,5.89,0,0,1,1.66.59c2,1.84,2,1.88,2.51,2.8,0,.1,0,.2,0,.29.78.17.84.2,1.07.26a3.51,3.51,0,0,1,.51.31c.34.49.34.49.55.66a3.39,3.39,0,0,1,.27.37c0,.6,0,.6.09.76a1,1,0,0,1,0,.29l-.46.33c-1.65-1.11-1.65-1.12-1.65-1.12l.08.46-.55-.53.44.49-.63-.24.78.37a4.51,4.51,0,0,0-1.54.07,1.7,1.7,0,0,0-.77.22l.21.25-2.33.07-.44-.24c0,.15-.16.26-.39.28l-.59,0-.06.1,0,0-.29.32-.06.07h0c-.2.21-.49.53-1.28,1.33-.34,0-.69,0-1,0l.38.1c.25.08.36.46.47.47,1.36.09,2.71.15,4.05.17s2.76.08,4.19.22a1.57,1.57,0,0,1,1.33.5c.31.37.17.7-.27.76a10.31,10.31,0,0,1-3.24,1.44,24.42,24.42,0,0,1-3.84.74c-2.7.31-5.46.42-8,.5-.57.08-1.14.21-1.69.33l-1.51.36.23.06c-.25,0-.61,0-.56.15v0h.2l.39.08h.47a17.26,17.26,0,0,1,3.89-.45c.76,0,1.46,0,2.24,0l2.38.12a15.55,15.55,0,0,1,2.67.36l2.77.61a1.37,1.37,0,0,1,1,.54c.14.26-.1.44-.53.4-1.25.14-2.45.16-3.77.24-.63,0-1.23,0-1.88,0l-1,0h-.88c-1.26,0-2.39-.08-3.51-.12L625.26,93a3.49,3.49,0,0,1-.37-.07c-.09,0-.28-.06-.31-.05l-.11.06a1.53,1.53,0,0,1-.84.31h0l.49.08c-.18.11-.6,0-.81.14l.62.2a1.5,1.5,0,0,0-.47,1.3c0,.47.22.84.25,1.2l0,.08c.35.12.68.21,1,.3l.22.06,0,0,.17.09.35.16c.46.21.92.39,1.39.59a15.29,15.29,0,0,1-1.68-.91c.65.3,1.35.56,2,.79l.24.08.13,0,.06,0,.12.08,2,1.3c.68.46,1.38.9,2.14,1.46a24,24,0,0,1,2.48,2l.46.44c.17.16.34.36.51.55a10.63,10.63,0,0,1,1,1.36,7.83,7.83,0,0,1,.5.93,5.38,5.38,0,0,1,.42,1.1,10.46,10.46,0,0,1,.28,1.26,8.82,8.82,0,0,1,0,1.36,7.44,7.44,0,0,1-1.79,4.32,9.63,9.63,0,0,1-2.3,2,24.39,24.39,0,0,1-3.64,1.78c-.52.21-1.22.47-1.16.46a2.35,2.35,0,0,0-.35.11,9.69,9.69,0,0,0-1.47.54,1.7,1.7,0,0,0-.62.51,1.62,1.62,0,0,1-.1.18,1.15,1.15,0,0,1,0,.19.75.75,0,0,0,.1.36,4.86,4.86,0,0,0,1,1l.28.24.14.13.07.07h0l0,0c-.05,0,0,0,0,0l.17.14a15.24,15.24,0,0,1,2.66,2.62,12.28,12.28,0,0,1,2,3.71,11.8,11.8,0,0,1,.48,2,18,18,0,0,1,.08,2.06,12.38,12.38,0,0,1-.29,2,12,12,0,0,1-.57,1.72,11.8,11.8,0,0,1-.7,1.38c-.24.38-.48.75-.71,1.08a26.89,26.89,0,0,1-2.11,2.77c-.58.71-1.1,1.3-1.47,1.82a6.18,6.18,0,0,0-1.29,2.82,4.53,4.53,0,0,0,0,1.36,5.24,5.24,0,0,0,.63,1.7c.78,1.5,2,3.54,3,5.59a55.39,55.39,0,0,1,4.11,12.93c.44,2.24.71,4.55,1,6.72l.18,1.56c.08.53.16.84.26,1.32.2.9.44,1.79.66,2.67.5,1.91,1,3.85,1.67,5.77s1.29,3.89,2,5.84c1.39,3.88,3,7.81,4.42,11.7a99.35,99.35,0,0,1,6.27,23.36c.21,1.6,0,3-.29,3.31s-.71-.9-.89-2.5A98.86,98.86,0,0,0,645,209.82c-1.81-5.63-4-11.26-6-16.92-1-2.81-1.9-5.65-2.73-8.46-.4-1.39-.78-2.79-1.12-4.19l-.26-1.05-.22-1c-.15-.65-.29-1.31-.42-2-.26-1.15-.34-2.8-.51-4.39s-.37-3.23-.67-4.84a52.45,52.45,0,0,0-2.54-9.41,50.71,50.71,0,0,1,2.15,7.84,66.23,66.23,0,0,1,1,8c.05.66.08,1.28.15,1.86s.16,1.06.25,1.62c.21,1.12.4,2.15.66,3.38.51,2.36,1,4.7,1.71,7.1,2.51,9.54,5.88,19.2,7.52,28.89.5,2.48.89,5,1.19,7.46a46.22,46.22,0,0,1,.24,7.33c-.1,12.38-.44,24.45-.7,36.58s-.52,24.33-.67,37c-.25,21.6-.67,40.49-1.64,62-1.42,30.2-4,57.7-9.73,87.51a45,45,0,0,1-2.06,8.09c-.35.48,0-2.4.64-6.38,2.48-15.54,4.13-31,5.39-46.52s2.1-31,2.73-46.59c1.27-31.18,1.81-62.73,2.85-95.24.21-7,.41-13.92.62-20.78a.66.66,0,0,1-.37.17c-.48,0-.92-.67-1.28-1.77q-.39,11.69-1.06,23.53c.51,21.93.66,43.9-1,67.27-1.16,16.06-2.9,30.58-4.54,45.42C633.8,400.22,632.78,419,631,438a8.8,8.8,0,0,1-.28,1.81c-.1.28-.14-.13-.09-.9.85-13.07,1.38-26.46,1.76-40-.5,2.12-1,3.39-1.54,3.21s-.9-1.83-1.14-4.36l-.46,9.2c-.11,1.89-.38,3.38-.62,3.32s-.39-1.55-.31-3.35q.74-18.76,1.49-37.47c.14-15,.2-29.92.24-44.93a10.82,10.82,0,0,1-1.85,4.32h0c0,2.32,0,4.64-.08,6.95q.9,31.82.27,64.3t-2.9,65.28a8.24,8.24,0,0,1-.18,1.58,5.48,5.48,0,0,1,0-1.41q1.23-19.81,1.94-39.52v.06c-.08.53-.2.62-.25,0a11.91,11.91,0,0,1,.08-2.06c.09-.6.2-.55.25,0,.86-24.47,1.06-48.77.6-72.75q-.45,33.42-1.66,66.81c0,2.42.1,4.84.15,7.31a7.69,7.69,0,0,1-.18,1.81c-.09.19-.17-.3-.17-1s0-1.36,0-2c-.16,4.21-.64,7.45-1.11,7.38-.48-.24-.83-3.86-.78-8.24,0-11.72,0-23.39.08-35.07l-.1-3.79c-.11-1.28-.21-2.54-.32-3.81-.38,18.16-.73,36.28-.86,54.3a7.81,7.81,0,0,1-.27,2.89,7,7,0,0,1-.33-2.77c-1.1-31.76-2.38-63.92-3.13-96.21-1.38-10.62-2.86-21.26-4.35-32.11v4.13c.17,17.55,1.45,33.79,2.69,49.88s2.47,32.05,3.07,49a4.26,4.26,0,0,1-.13,1.67c-.11.09-.22-.49-.25-1.35-.72-16.59-2.11-31.74-3.3-48.21-1-13.64-1.92-26.61-3.15-39.29.83,25.91,3,50.77,4.4,76.43a16.87,16.87,0,0,1,0,3,1.52,1.52,0,0,1,.18.63c.41,3.21.74,6.71,1,10.29a6.74,6.74,0,0,1,0,1.9C619.22,415.21,619.11,414.79,619,414Zm2.5-329.2.2,0-.54.07-1.11-.27S620.76,84.71,621.52,84.83Zm4.86-6.89h0l.71.31Zm7.4,99.63c-.14-.8-.28-1.59-.36-2.35l-.21-2.71c-.13-1.89-.32-3.83-.64-5.73A48,48,0,0,0,627,150.63a13.31,13.31,0,0,1-1.74-3.74,4.31,4.31,0,0,1,0-1.35,6.13,6.13,0,0,1,.33-1.45,9.33,9.33,0,0,1,1.73-2.74,9.5,9.5,0,0,0-1.62,2.7,5.68,5.68,0,0,0-.27,2.67c0,1.12,1.68,3.53,3,6.15a49.18,49.18,0,0,1,3.09,8.12,52.17,52.17,0,0,1,1.62,8.6c.16,1.45.24,2.91.32,4.3,0,.66.07,1.37.15,1.9S633.68,177,633.78,177.57Zm-5.15-92.28a22.68,22.68,0,0,1-2.82-.73,5.26,5.26,0,0,1-1.26.7c-1.2.53-2.44,1-3.55,1.53.35.12.08.24,0,.34s-.24.18-.34.28c.62-.26,1.25-.5,1.88-.71s1.37-.42,2.06-.6,1.32-.34,2-.49A11.36,11.36,0,0,1,628.63,85.29Zm8.86-4,.22.12.1.63Zm-.2-1.08-.26,0C637,79.91,637.08,80,637.29,80.18ZM634.92,80a2.59,2.59,0,0,0,.46.22ZM623,64.73l1.18,3.19-1-3.13Z"/><path d="M377.67,199.45c.2,0,.41.11.61.16a1.55,1.55,0,0,1-1.12.61c5.91.77,11-3,14.07-6.83,1.47-.35,2.48-1.47,2.25-2.61s-1.66-1.87-3.21-1.53a5.37,5.37,0,0,1-1.11-.13,19.44,19.44,0,0,0-4.44-1.16,31.18,31.18,0,0,0-4.88-.21l2.16.41a9.61,9.61,0,0,0-2.91.3l.6.5c-3.6-.45-7.52,1.62-8.42,4.59s1.39,5.47,4.85,5.73Z"/><path d="M385.61,203.85c-1.86-.1-3.71-.27-5.62-.44l-.48-.25.93,1.64,0-.12c.71-2,2.79-3.54,4.8-4.72l.68-.52a1.42,1.42,0,0,0,.33-1.16A1.81,1.81,0,0,0,384,197.1l-1.28.28a12.39,12.39,0,0,0-5.33,1.47,5.09,5.09,0,0,0-2.83,4.13c0,.81.76,1.5,1.24,2.23a2.66,2.66,0,0,0,3.45,1.11,2.5,2.5,0,0,0,1.73-3l.83-.06-.37.63c-.07-1.14,1.11-1.87,1.83-2.77.45-.28.88-.58,1.33-.83l-2-2.31-.62.64c.11.09.3.21.3.22a31.75,31.75,0,0,1-3.5,3.65l-1.46,1.82a1.24,1.24,0,0,0,1,1.64l1.13.17-.55-.16c2.23-.33,4.47-.76,6.66-.93a.74.74,0,0,0,.73-.57A.56.56,0,0,0,385.61,203.85Z"/><path d="M378.92,207.11a1.77,1.77,0,0,0-1.25.12c0,.17-.07.25-.08.29l.85.17C379,207.81,379.13,207.46,378.92,207.11Z"/><path d="M377.59,207.52l-.35-.06.3.16,0,0Z"/><path d="M475.82,195.7q11.43,3.57,22.27,8.16c.24.1.47.1.52,0s-.11-.27-.34-.36c-7.23-3.09-14.63-5.82-22.27-8.24-.26-.07-.49,0-.54.09S475.58,195.62,475.82,195.7Z"/><path d="M524.69,227.54c-.19,0-.23.08-.11.23a.9.9,0,0,0,.53.29c.15,0,.21-.1.1-.23A.94.94,0,0,0,524.69,227.54Z"/><path d="M519.65,233.71a15,15,0,0,0-2.74-.64.88.88,0,0,1-.41-.2c0,.17-.26.22-.61.14-6.89-1.65-14-3.66-21.17-4.91a1,1,0,0,1-.43.34,3.68,3.68,0,0,1-2.63-.06l-.71-.32c-2.93-1.05-5.91-2-8.87-2.9a9.34,9.34,0,0,1-2.24,0l-8.31.42a.62.62,0,0,1,.17.53c-.14.44-.81.68-1.53.59l-1.09-.08c1,.2,2,.44,3.05.7a2.09,2.09,0,0,1,.4.13l3.47.44c5.15.54,10.22,1.11,15.28,1.73,2.54.29,5,.69,7.57,1s5,.82,7.52,1.35a.74.74,0,0,1,.52.23c.05.12,0,.23-.2.21-6.66-.49-12.69.42-19.74.3a169.13,169.13,0,0,0-24.53,1.44c-8.22-.19-15.76,1.61-23.48,4-2.85.91-5.6,1.81-8.24,2.79-5.41,2.12-10.43,4.19-15.19,6.6a3.69,3.69,0,0,1-3.67.49,6.27,6.27,0,0,1-3.18-3.11,7.8,7.8,0,0,1-.47-6l-.68.28-1.2.11A4.64,4.64,0,0,1,403,238.2l-1.34-1c-2.14-2.18-4.79-3.47-7-5.79l-.3-1.14-.36-.2a6,6,0,0,1-2.73-2.12l-.56-1.3a12.91,12.91,0,0,1-.86-4.63,4.69,4.69,0,0,1-.53-1.65,6.79,6.79,0,0,1-2.38-4,.92.92,0,0,1-.47-1.3,1.12,1.12,0,0,1,.4-.41h0a7.66,7.66,0,0,0-.89-.57,5.81,5.81,0,0,1-.65.05l-1.94.39a5.28,5.28,0,0,1-1.67-.52c-1.95-1.87-2-1.86-2.36-2.89,0-.11,0-.23,0-.34l-1.1,0a3.09,3.09,0,0,1-.51-.23c-.31-.51-.31-.51-.52-.64a2.23,2.23,0,0,1-.24-.38c0-.75,0-.75,0-.91a1.6,1.6,0,0,1,.05-.38l.54-.59,1.64.92,0-.56.53.52-.41-.51.64.13-.79-.25a5.12,5.12,0,0,0,1.64-.53,2.52,2.52,0,0,0,.86-.48,2.57,2.57,0,0,1-.19-.29c1.31-.27,1.31-.27,2.59-.51a3.65,3.65,0,0,1,.44.26.58.58,0,0,1,.47-.43l.66-.15.09-.13,0,0,.39-.48.08-.11h0l1.77-2a7.7,7.7,0,0,1,1.14-.11,2.74,2.74,0,0,1-.4-.15c-.28-.11-.31-.68-.43-.69a37.13,37.13,0,0,0-9.28,1.18,1.09,1.09,0,0,1-1.38-.17.83.83,0,0,1,.4-1.2,19.3,19.3,0,0,1,8.72-5.54,26.18,26.18,0,0,1,10.43-1.14c1.7-.18,3.38-.32,5.07-.46l-.31-.2,1.37.11h.14l-1.21-.71-.74-.12a45.89,45.89,0,0,1-5.87.17c-2-.08-4-.13-6,0-2.2.07-4.27-.2-6.47-.21a.89.89,0,0,1-1.11-.49c-.1-.38.26-.79.77-.91,6.2-2.86,14-4.11,19.94-1.94a6.24,6.24,0,0,1,3.41.24h.06c-.31-.21-.6-.42-.9-.64.91.05,1.52.59,2.37.72l-.54-1c4.41-.11,9-.9,13.09.2l.46.05a13.08,13.08,0,0,1,5.73-1.84c-.88-.08-1.76-.11-2.62-.18a18.65,18.65,0,0,1,5.64-.89,24.3,24.3,0,0,1,4.15.3,30.14,30.14,0,0,1,4,.87,16.09,16.09,0,0,1,6.14,3.19,191.09,191.09,0,0,1,29.89,3.35c.51.08.92.37,1,.63s-.36.42-.87.34c-7-.8-14.21-1.54-21.44-1.84,6,1.1,11.92,2.44,17.88,3.76l2.3.41a12.48,12.48,0,0,1,2.22.64c7.55,1.83,14.51,4.08,22,6.3,6.41,1.94,12,3.85,18.16,6.29,8.71,3.46,16.47,7.24,24,12.74,1,.69,1.77,1.65,1.65,2.11s-1.07.29-2.09-.38a171.38,171.38,0,0,0-25.6-12.72c-8.86-3.6-18-6.64-27.57-9.68-2.07-.61-4.1-1.29-6.15-1.83a1.11,1.11,0,0,1,0,.26,1.14,1.14,0,0,1-.71.77c2.32.63,4.6,1.47,6.88,2.28a76,76,0,0,1,19.61,6c2.22,1,4.24,2.27,6.22,3.43s3.84,2.45,5.71,3.75A146.1,146.1,0,0,1,532,225.75a.75.75,0,0,1,.41.39c0,.12-.13.13-.34,0-3.6-1.65-7.29-3.28-11-4.85.42.59.57,1.13.33,1.5s-.86.52-1.65.43l2.38,1.31c.49.29.79.65.68.84s-.6.16-1.07-.1c-1.61-.88-3.22-1.77-4.87-2.58s-3.28-1.67-5-2.44c-4.1-1.64-8.27-3-12.46-4.42a3,3,0,0,1,.77,1.61h0l1.91.68a106.65,106.65,0,0,1,34.4,15.93c.21.14.34.32.29.4s-.25,0-.44-.09a112.83,112.83,0,0,0-9.85-6.12h0c.11.13.08.24-.11.22a1,1,0,0,1-.53-.29c-.12-.15-.05-.24.11-.22a104.67,104.67,0,0,0-19.65-8.24,123.21,123.21,0,0,1,17.54,8.48l2,.71c.18.08.38.25.4.37s-.17.12-.35,0l-.57-.2c1,.63,1.68,1.46,1.4,1.9s-1.44.28-2.53-.34c-1.51-.77-3-1.54-4.53-2.25s-3-1.49-4.56-2.17l-1-.37-1.1-.22c4.66,2.34,9.16,5,13.52,7.72.39.22.64.54.56.7s-.47.12-.86-.1a210.89,210.89,0,0,0-25.52-9.68l-4.71-.1-4.75.09,1.09.35c4.67,1.29,9.14,2.16,13.62,3.09a71,71,0,0,1,13.32,4c.23.08.37.24.35.34s-.21.11-.43,0a88.18,88.18,0,0,0-13.12-3.83c-1.87-.46-3.71-.82-5.51-1.19s-3.61-.57-5.38-.76c6.9,1.8,13.78,3.22,20.51,5.81a1.49,1.49,0,0,1,.71.44.25.25,0,0,1,.22,0,21.72,21.72,0,0,1,2.88.68.61.61,0,0,1,.43.33C520,233.73,519.87,233.76,519.65,233.71ZM399.58,206l-.21-.14.64.16,1.14,1Zm-7.27,7.73h0l-.7-.55ZM458,195.94c-2.13-.27-4.26-.63-6.39-.95-1.06-.18-2.13-.37-3.2-.59s-2.14-.4-3.21-.64h3.15c1.62.31,3.24.65,4.85,1S456.38,195.54,458,195.94Zm-66.45,7.31a12.38,12.38,0,0,1,3,1.59,5.89,5.89,0,0,1,1.68-.74,45.09,45.09,0,0,1,4.88-.87c-.34-.38.05-.43.22-.54l.55-.26c-1.75.13-3.52.26-5.35.36A49.8,49.8,0,0,1,391.52,203.25Zm-10.65,6.22-.21-.1,0-.79S380.73,209,380.87,209.47Zm.11,1.33.27,0C381.29,211.06,381.18,211,381,210.8Zm2.48-.14a1.55,1.55,0,0,0-.47-.22Zm10.67,18.75-.89-3.62.77,3.52Z"/><path d="M317.54,294.09l.59,0a1.29,1.29,0,0,1-.85.8,10.49,10.49,0,0,0,6.83-3.4,16.32,16.32,0,0,0,3.93-6.41,2.46,2.46,0,0,0,1.2-3.18,2.39,2.39,0,0,0-3.33-.65,3.86,3.86,0,0,1-1,.14,22.15,22.15,0,0,0-8.7.8l2.05-.07a7.17,7.17,0,0,0-2.49.94l.67.35c-3.28.37-6.12,3.16-6.17,6.12s2.63,5,5.84,4.65Z"/><path d="M325.93,296.67c-1.74.31-3.48.55-5.25.79l-.5-.15,1.27,1.41-.05-.11c.13-2.09,1.61-4,3.09-5.68l.48-.66a1.49,1.49,0,0,0,0-1.19,1.77,1.77,0,0,0-2.41-.66c-.36.18-.71.39-1.06.58-3,.87-6.74,3.62-5.93,7.05.2.79,1.06,1.32,1.69,1.93a2.51,2.51,0,0,0,3.44.44,2.38,2.38,0,0,0,.82-3.29l.75-.24c-.06.23-.12.46-.17.7-.37-1.1.51-2.07.92-3.11l1-1.11-2.44-1.8-.37.76.32.15a25.81,25.81,0,0,1-2.18,4.29l-.89,2a1.29,1.29,0,0,0,1.29,1.39l1.09,0-.54-.06c2-.7,3.91-1.66,5.89-2.3a.66.66,0,0,0,.5-.73A.53.53,0,0,0,325.93,296.67Z"/><path d="M320.61,301.23a1.58,1.58,0,0,0-1.13.35v.3h.82C320.89,301.88,320.89,301.53,320.61,301.23Z"/><path d="M319.48,301.88h-.35l.32.11,0-.05Z"/><path d="M471.41,252c1.12.11,2.25.18,3.37.32l3.35.43,6.69.86,6.64,1.1,3.31.55,3.29.67,6.58,1.34,6.5,1.58,3.25.78c1.08.28,2.15.6,3.22.89l6.42,1.81c.57.15,1.07.22,1.13.11s-.36-.35-.9-.49l-6.42-1.82-3.22-.9-3.24-.79-6.51-1.59-6.56-1.35-3.29-.68-3.31-.56-6.64-1.11c-2.22-.32-4.46-.58-6.69-.87s-4.47-.6-6.73-.76a1.89,1.89,0,0,0-1.2.15C470.42,251.85,470.84,252,471.41,252Z"/><path d="M591.1,302.17c-.39-.13-.42,0-.1.23a4.64,4.64,0,0,0,1.22.68c.32.11.37,0,.09-.23A4.47,4.47,0,0,0,591.1,302.17Z"/><path d="M584.11,307.38c-1.06-.47-2.08-.94-3.08-1.35s-2-.75-2.92-1.06a4.62,4.62,0,0,1-1-.48c.05.21-.42.15-1.19-.15a321.52,321.52,0,0,0-48.42-15.07,1.6,1.6,0,0,1-.82.26,17,17,0,0,1-6-.76l-1.75-.55c-1.78-.5-3.59-.88-5.38-1.33s-3.58-.9-5.39-1.25l-5.42-1.09-2.7-.55-2.72-.46a40.76,40.76,0,0,1-5.16-.18c-3.19,0-6.39.11-9.57.14l-9.61.45c.39.17.63.36.61.56s-.48.42-1.09.56a9.72,9.72,0,0,1-2.26.24l-2.6.06c2.48.11,5,.13,7.44.4a9.16,9.16,0,0,1,1,.11c2.73.12,5.49.12,8.3.34a288,288,0,0,1,70.74,12.06,3.9,3.9,0,0,1,1.23.54c.17.17.09.27-.34.15-14.65-3.64-27.74-4.7-44-6.31a221,221,0,0,0-57.2,1.86,147.59,147.59,0,0,0-28.27,5.77A165.42,165.42,0,0,0,400,311c-1.5.66-2.91,1.52-4.35,2.26l-4.28,2.28L387.21,318c-1.37.81-2.76,1.56-4,2.46l-1,.65-.49.32-.18.13-.63.47-1.27.93c-.83.61-1.71,1.17-2.5,1.83q-2.44,1.89-4.93,3.67c-1.64,1.2-3.19,2.52-4.81,3.76a5,5,0,0,1-4,1.47,6.57,6.57,0,0,1-4.22-2.21,7.46,7.46,0,0,1-1.92-5.8l-.65.47-1.25.43a5.16,5.16,0,0,1-3.8-.3l-1.65-.68c-2.72-1.59-5.74-2.19-8.48-3.95l-.55-1.06-.4-.1a5.94,5.94,0,0,1-3.2-1.45l-.84-1.15a13.48,13.48,0,0,1-1.88-4.36,4.91,4.91,0,0,1-.9-1.5,6.82,6.82,0,0,1-3.23-3.36,1,1,0,0,1-.77-1.16,1,1,0,0,1,.28-.49h0a7.83,7.83,0,0,0-1-.36c-.37.13-.6.19-.6.19-.93.42-.93.42-1.76.76a4.92,4.92,0,0,1-1.7-.17c-2.29-1.44-2.3-1.43-2.9-2.35,0-.11,0-.23-.07-.34l-1,.17a3,3,0,0,1-.53-.13c-.41-.43-.41-.43-.64-.52a3.2,3.2,0,0,1-.31-.32c-.12-.73-.12-.73-.24-.88a1.67,1.67,0,0,1,0-.38l.35-.66,1.74.58L321,302l.62.4-.51-.41h.64l-.8-.09a4.65,4.65,0,0,0,1.4-.82,1.94,1.94,0,0,0,.68-.63,3.24,3.24,0,0,1-.25-.24c1.13-.56,1.13-.56,2.24-1.07l.48.16a.55.55,0,0,1,.32-.52l.57-.29a.75.75,0,0,1,0-.16l0,0c.09-.23.16-.38.23-.56l0-.12h0c.17-.38.39-.95,1.08-2.35a6.36,6.36,0,0,1,1-.35c-.15,0-.28,0-.42-.06-.29-.05-.47-.6-.59-.58-.72.14-1.43.32-2.13.53s-1.36.51-2,.8c-1.34.58-2.67,1.23-4,1.85a1,1,0,0,1-1.31.09.82.82,0,0,1,.06-1.23c2.7-6,9.14-9.76,15.48-11,1.51-.58,3-1.19,4.47-1.81l-.34-.11,1.28-.28.12-.05-1.33-.36c-.24,0-.47,0-.71.09a29.17,29.17,0,0,1-5.29,1.71c-1.8.47-3.61,1-5.41,1.54s-3.91.8-5.9,1.27a.84.84,0,0,1-1.13-.24.79.79,0,0,1,.43-1,35.83,35.83,0,0,1,8.14-5.23,20.91,20.91,0,0,1,9.17-1.75,5.68,5.68,0,0,1,3.13-.8h.05l-1-.36c.82-.26,1.58.14,2.39,0l-.83-.83c2-.66,3.93-1.58,5.88-2.37a30.57,30.57,0,0,1,2.95-1,13.84,13.84,0,0,1,3.06-.48,3.48,3.48,0,0,1,.44-.1,21.74,21.74,0,0,1,1.75-2c.16-.16.33-.31.5-.46l.14-.11.43-.25.87-.49a39.54,39.54,0,0,1,3.74-1.88c-.94.3-1.84.66-2.74,1l-2.65,1s.18-.12.27-.18l.34-.2.67-.4,1.37-.8a31.09,31.09,0,0,1,2.8-1.48c1.91-.92,3.89-1.79,6-2.61,11.38-4.37,24.9-6.54,31.66-5.37a245.11,245.11,0,0,1,33.54-6.19,270.82,270.82,0,0,1,33.9-1.42,4.19,4.19,0,0,1,2.41.56c.12.27-.66.47-1.82.44a264.89,264.89,0,0,0-48.55,4.62,288.63,288.63,0,0,1,41.23-2c1.76,0,3.54-.07,5.33,0s3.51.22,5.24.42c17.69,1,34.16,4,51.53,8l2.77.64,2.7.71,5.31,1.42c1.76.44,3.47,1,5.19,1.51l5.12,1.57c3.39,1.07,6.74,2.28,10.16,3.44s6.81,2.57,10.35,3.93a281.15,281.15,0,0,1,27.91,13.11,244.79,244.79,0,0,1,25.84,16.33c2.25,1.62,4.13,3.43,4.13,4s-1.83-.29-4.09-1.89A312.24,312.24,0,0,0,589,291.47a320.17,320.17,0,0,0-29.49-13.57,301.15,301.15,0,0,0-31.18-10.51,317.73,317.73,0,0,0-33-7.39c-2.44-.44-4.88-.72-7.29-1.09l-3.62-.52c-1.21-.15-2.42-.26-3.62-.39a.63.63,0,0,1,.1.28c0,.35-.52.64-1.3.85l4.09.45c1.36.19,2.72.42,4.09.63l4.08.66,2.05.34,2,.42a189.45,189.45,0,0,1,45.67,10.7,234.61,234.61,0,0,1,28.53,13.48,283.6,283.6,0,0,1,34.4,18.3,3.34,3.34,0,0,1,1,.79c.11.18-.17.1-.63-.16l-6-3.27-3-1.65-3-1.57-6.14-3.16-6.27-3c1.15,1,1.73,1.76,1.42,2.1s-1.5.21-3.16-.33l5.52,3c1.14.61,1.94,1.26,1.79,1.45s-1.11-.14-2.2-.71c-3.75-2-7.47-4-11.31-5.84-1.91-.91-3.79-1.9-5.73-2.76l-5.8-2.61a295.24,295.24,0,0,0-28.89-9.88,7,7,0,0,1,2.44,2.12h0l4.49,1.38c27.69,7.64,54.5,21.06,78.43,38.55.48.34.82.67.78.76s-.46-.11-.88-.42c-3.65-2.59-7.26-5.22-11-7.62-1.88-1.2-3.71-2.48-5.63-3.61l-5.72-3.44,0,0c.27.24.27.37-.1.23a5.24,5.24,0,0,1-1.2-.72c-.31-.28-.23-.35.09-.24A244.86,244.86,0,0,0,549,283.38a257.22,257.22,0,0,1,40.77,19.23c1.48.7,3,1.35,4.47,2.12a3.73,3.73,0,0,1,1,.75c.06.14-.28.06-.68-.16l-1.23-.63c2.41,1.51,4.07,3,3.76,3.43s-2.7-.52-5.22-2c-6.9-3.75-13.81-7.43-20.92-10.69l-2.34-1-2.42-.83a290.76,290.76,0,0,1,31.72,17.58c.89.52,1.57,1.1,1.49,1.26s-.87-.12-1.76-.64a296.53,296.53,0,0,0-28.59-14,285.83,285.83,0,0,0-30-11c-3.48-.62-7-1.09-10.47-1.63-3.53-.37-7-.81-10.6-1.1.87.19,1.74.42,2.61.64,11.11,2.61,21.43,5.17,31.57,8.25a197.57,197.57,0,0,1,30.21,11.7,2.06,2.06,0,0,1,.9.66c0,.12-.38,0-.88-.25a222.79,222.79,0,0,0-29.7-11.39l-6.34-1.94-6.27-1.65-3.09-.79-3.1-.66c-2.06-.43-4.09-.85-6.12-1.23l6.07,1.6,3,.78,3,.87,6,1.7,5.92,1.89,3,.95,2.93,1,5.87,2.11c1.94.76,3.86,1.56,5.81,2.35l2.91,1.19c1,.41,1.92.87,2.88,1.31a7.68,7.68,0,0,1,1.7,1,.76.76,0,0,1,.43.06,63.67,63.67,0,0,1,6.33,2.53,3.18,3.18,0,0,1,1.06.68C584.87,307.62,584.58,307.57,584.11,307.38Zm-244.61-12-.24-.09h.65l1.4.73Zm-4.67,9.44h0l-.82-.37Zm96.63-48.2-7.28.82c-1.21.11-2.41.29-3.62.46l-3.62.5c-4.84.55-9.62,1.44-14.49,2.06l6.93-1.68,2.74-.43,2.76-.33,5.51-.61c1.83-.23,3.68-.34,5.53-.45ZM331.22,294.73a12.11,12.11,0,0,1,3.28.8,5,5,0,0,1,1.34-1.16,27,27,0,0,1,4.27-2.13c-.44-.3-.09-.44,0-.59l.43-.4c-1.58.6-3.25,1.09-4.86,1.75A40.91,40.91,0,0,1,331.22,294.73ZM323,303.14l-.22-.05-.23-.76Zm.42,1.27.25-.07C323.78,304.6,323.65,304.57,323.42,304.41Zm2.3-.61a1.48,1.48,0,0,0-.49-.12Zm14.73,16-1.71-3.36,1.57,3.29Z"/></svg>