<svg id="Layer_1" data-name="Layer 1" xmlns="http://www.w3.org/2000/svg" viewBox="0 0 1080 822.44"><path d="M409.65,43.77v.52c-.3,0-.54-.16-.73-.49a6.23,6.23,0,0,0,3.43,4.83,10.71,10.71,0,0,0,6,.78,1.83,1.83,0,0,0,2.74-.31,2.36,2.36,0,0,0,.05-3,2.54,2.54,0,0,1-.25-.78,17,17,0,0,0-1.53-6.62c.07.52.15,1.06.22,1.57a5,5,0,0,0-.93-1.62l-.25.68a3.65,3.65,0,0,0-5.12-3,5.9,5.9,0,0,0-3.81,6.29Z"/><path d="M408.14,51.92c-.47-1.47-.85-3-1.2-4.43L407,47l-1.13,1.52.09-.08c1.86-.48,3.64.25,5.2,1l.64.16a1.64,1.64,0,0,0,1-.47,1.67,1.67,0,0,0,.23-2.23c-.2-.23-.38-.49-.57-.73-1-2.32-3.42-4.6-6.43-2.95a6.46,6.46,0,0,0-1.64,2,2.23,2.23,0,0,0-.14,3.11,2,2,0,0,0,3-.21l.27.58-.62.06c.92-.64,1.84-.16,2.77-.12l1,.52,1.31-2.73-.67-.08a1.68,1.68,0,0,1-.11.33,16.52,16.52,0,0,1-3.84-.59l-1.85-.19a1.52,1.52,0,0,0-1.15,1.51l.12.94v-.49c.79,1.56,1.84,3,2.63,4.59a.47.47,0,0,0,.69.24A.62.62,0,0,0,408.14,51.92Z"/><path d="M403.57,48.48a1.11,1.11,0,0,0-.41-.89l-.27.07c0,.2,0,.46.07.72C403,48.9,403.33,48.81,403.57,48.48Z"/><path d="M402.89,47.66l0-.3c0,.11-.05.21-.07.31h0Z"/><path d="M530.11,89.64c1,0,1.92.11,2.89.12h8.72l5.83-.27,2.92-.14,2.92-.26,5.85-.53,5.83-.77,2.93-.4c1-.14,1.94-.33,2.91-.5l5.82-1c.53-.09.94-.28.93-.41s-.43-.12-.91,0l-5.82,1-2.9.5-2.91.38-5.82.77-5.82.52-2.91.25-2.91.14-5.8.26c-1.94,0-3.87,0-5.8,0s-3.85,0-5.77-.12c-.52,0-.94.08-1,.21S529.63,89.61,530.11,89.64Z"/><path d="M648.1,69.92c-.31.26-.24.34.15.21a4.17,4.17,0,0,0,1.2-.66c.26-.21.19-.31-.15-.2A4.55,4.55,0,0,0,648.1,69.92Z"/><path d="M648.82,78.63l-2.89,1.94c-.94.61-1.83,1.21-2.66,1.81a4.51,4.51,0,0,1-1,.52c.2.08-.13.43-.86.9C627.1,93.12,610.3,101,593.13,107.4a1.59,1.59,0,0,1-.61.65,19.59,19.59,0,0,1-6,2.49l-2,.46c-1.95.5-3.94.89-5.9,1.35s-3.93.92-5.92,1.27l-6,1.08-3,.53-3,.4a47.59,47.59,0,0,1-5.49,1.43c-3.4.88-6.85,1.61-10.32,2.42s-7,1.28-10.63,1.89c.47.11.75.27.76.47s-.5.5-1.18.7a13.06,13.06,0,0,1-2.58.37l-3,.2c2.86-.06,5.73,0,8.56-.24a11.28,11.28,0,0,1,1.14,0c3.11-.31,6.26-.56,9.42-1.11a213.83,213.83,0,0,0,39.39-9.9A263.69,263.69,0,0,0,622.3,96.26a4.34,4.34,0,0,1,1.32-.56c.25,0,.26.11-.14.36-1.71,1.08-3.42,2.08-5.12,3.07l-5.06,3c-3.38,1.94-6.78,3.84-10.27,5.74a170.88,170.88,0,0,1-23.35,10.37,242.28,242.28,0,0,1-67,13.81,333.06,333.06,0,0,1-36.45-1.87,238.76,238.76,0,0,1-36.92-6.7c-2.15-.5-4.24-1.2-6.35-1.82l-6.31-1.93-6.19-2.23c-2.06-.76-4.14-1.46-6.14-2.35l-1.52-.64-.75-.32-.29-.1-1-.39-2.06-.78c-1.36-.53-2.73-1-4.05-1.66-2.66-1.21-5.29-2.47-7.92-3.76s-5.16-2.81-7.77-4.26a8.39,8.39,0,0,1-4.4-4.2,6.07,6.07,0,0,1,0-5.28,6.47,6.47,0,0,1,5.34-3.31l-.83-.62-1.11-1.27a6.07,6.07,0,0,1-1.5-4.15V82.55c.54-3.19.21-6.63,1.22-9.75l.94-.74v-.44a5.49,5.49,0,0,1,.65-3.52l1-1a14.47,14.47,0,0,1,3.91-2.72,5,5,0,0,1,1.28-1.2,7,7,0,0,1,2.6-3.86,1,1,0,0,1,1-1,1,1,0,0,1,.5.14h0a10.14,10.14,0,0,0,.18-1c-.18-.31-.27-.51-.27-.51-.53-.77-.53-.77-1-1.45a4.61,4.61,0,0,1-.06-1.6c1.08-2.42,1.09-2.41,1.88-3.18l.3-.15a8.33,8.33,0,0,1-.25-.88,2.13,2.13,0,0,1,.07-.5c.36-.46.36-.46.43-.69a2.66,2.66,0,0,1,.27-.35c.67-.29.66-.29.79-.43a1.6,1.6,0,0,1,.34-.13l.64.14-.39,1.68.47-.29-.31.66.33-.57.06.56V49c.56.8.57.8.87,1a1.37,1.37,0,0,0,.64.43l.18-.29c.61.85.61.85,1.19,1.71a3.41,3.41,0,0,1-.09.48.41.41,0,0,1,.5.14l.33.42h.13l0,0,.52.05h.11c.35,0,.85.1,2.24.16a5.84,5.84,0,0,1,.5.76,2.43,2.43,0,0,1,0-.38c0-.26.44-.61.41-.71-.25-.56-.53-1.09-.82-1.61s-.58-1.06-.9-1.56c-.63-1-1.31-2-1.95-3a.85.85,0,0,1,.91-1.41c5.23.72,9.1,4.4,11.53,9.17.84,1,1.72,1.87,2.61,2.79v-.33l.56.91.08.08c0-.42,0-.84-.07-1.26-.08-.18-.16-.36-.25-.54a17,17,0,0,1-2.68-3.46c-.76-1.27-1.4-2.65-2.17-3.9a33.55,33.55,0,0,1-1.83-4.34.75.75,0,0,1,.08-1,.65.65,0,0,1,.93-.06,18.89,18.89,0,0,1,5.29,4.52,15.35,15.35,0,0,1,3.37,6.45,3.83,3.83,0,0,1,1.42,2.14l0,0v-1c.4.56.35,1.29.69,1.86l.4-1.08c1.13,1.15,2.46,2.12,3.71,3.17A18.93,18.93,0,0,1,433.23,61,11.68,11.68,0,0,1,434.79,63l.25.25a17.41,17.41,0,0,1,2.17,0,5.24,5.24,0,0,1,.53.08l.14,0,.35.15.71.32c1,.43,1.9,1,2.92,1.43-.66-.39-1.28-.82-1.9-1.25l-1.83-1.26c.66.24,1.48.59,2.2.91s1.49.64,2.26,1a48.24,48.24,0,0,1,4.56,2.17c8.36,4.32,17.78,9.72,22,13.8A203.93,203.93,0,0,0,497,87a199.22,199.22,0,0,0,28.55,2.19,3.13,3.13,0,0,1,2.05.44c.11.27-.54.51-1.53.54s-1.72.1-2.58.12h-7.78c-1.73,0-3.47-.15-5.2-.22s-3.48-.15-5.22-.31a191.66,191.66,0,0,1-20.74-2.94,168,168,0,0,0,35.19,5.94c1.55,0,3.1.12,4.66.1s3.07.06,4.6.18a187.72,187.72,0,0,0,46.12-5.14A240.28,240.28,0,0,0,612.5,75.44c8.86-3.8,17.13-7.86,25.29-12.12s16.08-8.91,24.29-13.85c2.13-1.4,4.32-2.38,4.84-2.17s-.82,1.53-3,3q-12.54,8.37-25.68,15.57a287.24,287.24,0,0,1-27.14,12.81,223.21,223.21,0,0,1-28.71,9.57,195.93,195.93,0,0,1-30.27,5.49c-2.23.26-4.44.35-6.64.53l-3.29.24c-1.09,0-2.18.07-3.27.1a.67.67,0,0,1,.13.27c0,.35-.37.7-1.05,1l3.75-.08,3.76-.21,3.77-.21,1.9-.09,1.89-.17c13.89-2.36,27.54-5.78,42.11-9.7,10-2.76,19.08-5.4,28.24-8.63A309.29,309.29,0,0,0,656,59.31a3,3,0,0,1,1.07-.52c.2,0,0,.2-.39.49-1.77,1.2-3.58,2.36-5.39,3.54l-2.73,1.77-2.79,1.69-5.65,3.37-5.8,3.19c1.4-.32,2.33-.33,2.44.12s-.67,1.32-2,2.33l5.45-2.67c1.13-.53,2.09-.84,2.16-.63s-.7.86-1.78,1.38c-3.71,1.84-7.39,3.72-11.18,5.38-1.89.83-3.75,1.74-5.66,2.52L618,83.63a265.29,265.29,0,0,1-27.8,10.42,6.79,6.79,0,0,1,3.12.39h0l4.41-1.39a372.74,372.74,0,0,0,76-39.68c.47-.32.9-.52,1-.44s-.25.38-.68.66c-3.67,2.41-7.27,4.89-11,7.17-1.86,1.15-3.67,2.38-5.56,3.46l-5.62,3.35,0,0c.33-.12.45-.06.15.2a4.78,4.78,0,0,1-1.17.7c-.39.14-.41,0-.16-.2A387.63,387.63,0,0,1,607.4,89.67a336.53,336.53,0,0,0,40.41-18.42c1.35-.9,2.72-1.74,4.07-2.7a3.44,3.44,0,0,1,1.1-.5c.15,0-.08.27-.46.52l-1.12.78c2.43-1.39,4.52-2.13,4.75-1.66s-1.73,2.15-4.26,3.62c-6.8,3.94-13.66,7.73-20.76,11.06l-2.25,1.18-2.2,1.35a302.12,302.12,0,0,0,32.56-16.51c.89-.55,1.72-.88,1.84-.73s-.52.71-1.41,1.26a277.5,277.5,0,0,1-27.91,16.43,266.79,266.79,0,0,1-30,13.23c-3.25,1.63-6.57,3.17-9.9,4.79-3.38,1.47-6.78,3-10.27,4.47.92-.2,1.84-.45,2.75-.72A177.91,177.91,0,0,0,616.21,94.6c9.89-4.89,19.36-10.21,29.36-15.93a2.2,2.2,0,0,1,1.06-.43c.1.06-.19.34-.7.63-9.73,5.67-18.65,10.93-28.81,15.88l-6.26,3-6.23,2.74-3.08,1.37-3.09,1.27-6.12,2.56c2.12-.72,4.22-1.48,6.3-2.23l3.11-1.14,3.06-1.25,6.07-2.53,5.94-2.74,3-1.37L622.69,93,628.51,90l5.76-3.09,2.88-1.54c1-.52,1.9-1.07,2.86-1.61a8.53,8.53,0,0,1,1.83-.86,1,1,0,0,1,.32-.32C644,81.33,646,80.08,648,78.7a3.39,3.39,0,0,1,1.17-.56C649.44,78.1,649.24,78.32,648.82,78.63ZM412.14,63.41a2.18,2.18,0,0,0,0-.24c.06.17.12.35.2.55l-.21,1.5Zm-9.72-.94h0c.09-.5.16-.85.16-.85C402.51,62,402.46,62.24,402.42,62.47Zm93.09,28-6.24-1.22c-1-.19-2.06-.46-3.08-.73l-3.05-.82a113.15,113.15,0,0,1-11.91-4l5.89,1.45,2.25.78,2.27.67L486.22,88c1.52.49,3.07.87,4.62,1.26ZM410.76,55.84a13.45,13.45,0,0,1,0,3.17,3.84,3.84,0,0,1,1.31.76c1,.95,2,1.86,3,2.82.13-.5.36-.27.52-.23l.48.19a43.05,43.05,0,0,1-2.85-3.4A28.86,28.86,0,0,1,410.76,55.84Zm-8.7-4.73a1.5,1.5,0,0,0,0-.22l.67-.4Zm-1.12.69L401,52C400.8,52.18,400.82,52.06,400.94,51.8Zm.83,1.93a1.54,1.54,0,0,0,.05-.48A3.44,3.44,0,0,1,401.77,53.73Zm-12.5,17.78,2.93-2.37-2.9,2.21Z"/><path d="M547.82,142l-.57-.28c.12-.18.48-.2,1-.11a10.3,10.3,0,0,0-7.08-.49,9.44,9.44,0,0,0-2.45,1.16,7.19,7.19,0,0,0-1.62,1.49c-1.15.11-1.56.73-1.14,1.3a2.45,2.45,0,0,0,1.11.73,4.33,4.33,0,0,0,1.62.29,5.81,5.81,0,0,1,.89.2c.6.24,1.18.47,1.8.69l1.94.65,2,.67c.69.22,1.4.43,2.12.67-.64-.29-1.29-.57-1.91-.82a20.32,20.32,0,0,0,2.44.62l-.58-.48c3.13,1.3,6.4,1.69,7.06.21s-1.78-4.53-5.11-5.89Z"/><path d="M540.08,137.39a25.36,25.36,0,0,1,2.57.46c.86.19,1.73.4,2.61.66l.47.29-1-1.41,0,.09c-.41,1.37-2.21,2.05-3.77,2.64l-.53.27a.64.64,0,0,0-.11.73,2.57,2.57,0,0,0,2.16,1.06l1.07,0a23,23,0,0,0,2.36.3,12.26,12.26,0,0,0,2.28,0c1.41-.18,2.46-.7,2.33-2.05-.06-.61-.85-1.41-1.38-2.13a3.84,3.84,0,0,0-3.39-1.78c-1.31.1-1.86,1-1.33,1.92l-.75-.1.26-.4c.2.85-.8,1.17-1.36,1.68l-1.06.38,2.06,1.87.46-.32-.29-.21a15.17,15.17,0,0,1,2.78-1.82l1.25-.94c.2-.47-.29-1.15-1.07-1.51l-1.1-.41.54.25a53.68,53.68,0,0,0-6.1-.32c-.32,0-.58.14-.57.37S539.76,137.36,540.08,137.39Z"/><path d="M546,136a2.09,2.09,0,0,0,1.18.2,1.66,1.66,0,0,0,.05-.21l-.82-.33C545.78,135.39,545.72,135.65,546,136Z"/><path d="M547.19,136l.35.15a2.73,2.73,0,0,0-.3-.21l0,0Z"/><path d="M556.28,285.68c-1,24.83-2.15,49.81-3.7,74.78-.05.83,0,1.54.22,1.58s.33-.6.37-1.38c1.6-25,2.78-49.83,3.78-74.66a2.79,2.79,0,0,0-.31-1.64C556.45,284.31,556.3,284.9,556.28,285.68Z"/><path d="M533.62,471.91c0-.59-.16-.57-.26,0a10.75,10.75,0,0,0-.07,2.06c.05.5.17.48.26-.05A10.31,10.31,0,0,0,533.62,471.91Z"/><path d="M525.4,466.48c-.28-3.5-.59-6.82-1-9.78a10.26,10.26,0,0,1,0-1.64c-.18.2-.38-.46-.51-1.73-2.62-24.84-4.51-51.56-6.25-77.88a2.48,2.48,0,0,1-.65-1.12,29.45,29.45,0,0,1-1.12-9.27l.11-2.86c.18-11.55.39-23.07.8-34.56a70.65,70.65,0,0,1-.62-8.05c-.91-9.95-1.72-19.93-2.25-30.14-.21.64-.46,1-.73,1-.63-.2-1.09-2.57-1-5.33,0-1.39.07-2.77.16-4.16-.45,4-.54,8-.8,11.95a15,15,0,0,1-.12,1.59c-.09,4.37-.09,8.79,0,13.28.42,39.22,4,76.09,7.74,112.67a7.23,7.23,0,0,1,0,2.07c-.1.36-.27.29-.36-.38-3.5-23.07-8.23-43-11-69.14-1.63-15.52-3-30.95-4-46.49-.26-3.88-.51-7.77-.71-11.67l-.3-5.86c-.1-2-.23-3.92-.21-5.88a57.47,57.47,0,0,1,5.28-23.64c4-8.29,9-16.37,12.8-24.51,1-2.08,1.82-4,2.71-6.34l.64-1.67c.23-.65.47-1.17.67-1.63.42-.92.82-1.69,1.13-2.48a15.64,15.64,0,0,0,1.21-9.44,12.88,12.88,0,0,0-1.75-4.35c-.44-.69-.94-1.4-1.61-2.36a18.53,18.53,0,0,1-2.19-4,16.15,16.15,0,0,1-1.06-5.25,17.24,17.24,0,0,1,.56-5.16,23.57,23.57,0,0,1,4-7.76,12.14,12.14,0,0,0,1-1.58l0-.06h0l.09.06.35.18a5.5,5.5,0,0,0,.74.32l.38.13a.88.88,0,0,1,.2.08,2.79,2.79,0,0,0,.66.17s0,0,0,0h-.22l-.29,0-.21.05.11,0s0,0-.41.18l-.3.17-.36.24a5.15,5.15,0,0,0-.45.32l-.11.09h0a.68.68,0,0,0-.19-.3,1.72,1.72,0,0,0-.23-.26,14.83,14.83,0,0,0-1.14-1c-.79-.6-1.58-1.2-2.29-1.82a21.63,21.63,0,0,1-3.72-3.68,9.73,9.73,0,0,1-1.76-4.14,3.78,3.78,0,0,1-.13-1.21,10.21,10.21,0,0,1,0-1.24,10.38,10.38,0,0,1,.52-2.26,6,6,0,0,1,.65-1.38,6.81,6.81,0,0,1,.84-1.27,6.33,6.33,0,0,1,.47-.62l.6-.58a16.47,16.47,0,0,1,1.41-1.11c.25-.18.51-.36.8-.53a6,6,0,0,1,.87-.49c.66-.28,1.32-.56,2-.87,1.32-.56,2.83-.95,4.2-1.42l2.08-.69c.42-.16.63-.25.93-.38a8.21,8.21,0,0,0,1.34-.68,1.64,1.64,0,0,0,.28-.24h0s0,0,0,0l.07.1c.19.24.46.52.59.7a5.27,5.27,0,0,0,.51.56l.28.26.2.2a3.13,3.13,0,0,0,.44.36c.17.12.21.17.34.25s.28.14.31.17l.2.09c.13,0,.19,0,.11,0a1.76,1.76,0,0,0-.34.12,2.16,2.16,0,0,0-.6.33,4.87,4.87,0,0,0-.86.63l-.19.18-.28.24a6.51,6.51,0,0,0-.54.51c-.17.18-.33.36-.49.55a2.28,2.28,0,0,1-.28.31c-.08.09,0,0-.06.05l-.09,0-.38-.07c-.65-.16-1.64-.4-2.72-.58-.56-.1-1.08-.2-1.75-.28l-2-.07c-.67,0-1.37-.2-2.05-.3a76.52,76.52,0,0,1-8.86-2l-1.67-1a3.48,3.48,0,0,0-.43-.25l-.55-.2-1.09-.39a7.92,7.92,0,0,1-1.05-.42l-.74-.56c-.49-.38-1-.75-1.44-1.13s-.93-.76-1.36-1.15l-.43-.4-.59-.51c-.79-.69-.48-1.59-1.35-2.26l-.5-.53a2.13,2.13,0,0,1-.43-.54l-.67-1.12-.54-1.15c-.18-.38-.49-.79-.73-1.19-.64-.8.09-1.59-.74-2.49l-.37-.66a3.58,3.58,0,0,1,0-.65l.06-.65c0-.11,0-.23-.08-.35l-.16-.37c-.18-.49-.56-1-.31-1.44l.17-.68.08-.34a1.4,1.4,0,0,0-.07-.39c-.12-.53-.26-1.06-.36-1.58l.56-1.36.14-.34a1.67,1.67,0,0,0,0-.39l0-.8c0-.53-.05-1.06,0-1.6l.1-1.61,0-.41c0-.14.13-.21.19-.32l.49-.61,1-1.22a9.8,9.8,0,0,0,.56-1.46l.52-1.48,0-.1,0,0a.53.53,0,0,0-.06-.1l-.26-.42-.13-.2c0-.06,0-.08,0-.11l.09-.21.34-.8.35-.81.28-.7.53-1.32c.36-.85.74-1.73,1.11-2.56s.6-1.36.92-2a17.62,17.62,0,0,1,1-1.81,12.47,12.47,0,0,1,2.07-2.62c1.34-1.28,2.7-1.68,3.68-1,1.19.89,1.55,3.11,1.13,5.54l.65-1c.39-.45.8-.93,1.19-1.35,1.15-1.18,2.36-1.94,3.46-1.87h1.43c2.32.53,5.11.33,7.47,1.74l.38,1,.37,0a3.76,3.76,0,0,1,2.86,1.17l.64,1.14a12.06,12.06,0,0,1,1.21,4.22,3.87,3.87,0,0,1,.66,1.41,5.63,5.63,0,0,1,2.63,3.22.79.79,0,0,1,.58,1.07.92.92,0,0,1-.34.37h0c.35.19.46.24.89.44.38,0,.61,0,.61,0a16.94,16.94,0,0,1,1.84-.24,5.91,5.91,0,0,1,1.65.59c2,1.84,2.06,1.88,2.51,2.8,0,.1,0,.2,0,.29.78.17.85.2,1.07.26a3.51,3.51,0,0,1,.51.31c.34.49.34.49.56.66a4.24,4.24,0,0,1,.26.37c0,.6,0,.6.09.76a1.19,1.19,0,0,1,0,.29l-.47.33-1.65-1.12.09.45-.56-.52.44.49-.63-.24.78.37a4.24,4.24,0,0,0-1.54.07,1.62,1.62,0,0,0-.77.22,2.58,2.58,0,0,1,.21.25l-2.33.07-.44-.24c0,.15-.16.26-.39.28l-.58.05-.07.09,0,0-.29.32,0,.07h0c-.2.21-.5.53-1.29,1.33-.34,0-.69,0-1,.05l.37.1c.26.08.36.46.48.47,1.36.09,2.7.15,4.05.17s2.75.08,4.18.22a1.56,1.56,0,0,1,1.34.5c.3.37.17.7-.28.76a10.35,10.35,0,0,1-3.23,1.44,23.55,23.55,0,0,1-3.84.73c-2.7.32-5.47.43-8,.51-.56.08-1.14.21-1.68.33l-1.52.36.24.06c-.25,0-.62,0-.56.15v0h.2l.4.08h.46a17.84,17.84,0,0,1,3.9-.46c.75,0,1.45,0,2.23,0l2.38.11a15.83,15.83,0,0,1,2.68.37l2.76.61a1.37,1.37,0,0,1,1,.54c.14.26-.1.44-.53.4-1.25.14-2.45.16-3.76.24-.64,0-1.23,0-1.89,0l-1,0h-.89c-1.26,0-2.38-.08-3.51-.13l-1.58-.15a3.49,3.49,0,0,1-.37-.07c-.09,0-.28-.06-.3,0l-.11.06a1.6,1.6,0,0,1-.85.31h0l.49.08c-.17.11-.6,0-.8.14l.61.2a1.53,1.53,0,0,0-.47,1.3c0,.46.22.84.25,1.2a.18.18,0,0,1,0,.08c.35.12.69.21,1,.3l.22.06,0,0,.18.09.34.16c.46.21.92.39,1.39.59a13.61,13.61,0,0,1-1.67-.92c.64.31,1.35.57,2,.8.08,0,.15.06.24.08l.12,0,.06,0,.12.08,2,1.29c.69.46,1.38.91,2.14,1.47a22,22,0,0,1,2.48,2l.47.44c.16.16.34.36.5.55a9.79,9.79,0,0,1,1,1.36,6.6,6.6,0,0,1,.5.93,6.19,6.19,0,0,1,.43,1.09,11,11,0,0,1,.27,1.27,10.14,10.14,0,0,1,0,1.35,7.57,7.57,0,0,1-1.79,4.33,10.36,10.36,0,0,1-2.31,2,23.93,23.93,0,0,1-3.64,1.78c-.51.21-1.22.47-1.15.45l-.36.11a11.51,11.51,0,0,0-1.47.55,1.7,1.7,0,0,0-.62.51,1.62,1.62,0,0,1-.1.18c0,.07,0,.13,0,.19a.65.65,0,0,0,.1.36,4.8,4.8,0,0,0,1,1l.28.24.14.13.07.06v0l0,0c-.05,0,0,0,0,0l.17.14a15.24,15.24,0,0,1,2.66,2.62,12.07,12.07,0,0,1,2,3.71,11.59,11.59,0,0,1,.48,2c.06.7.1,1.39.09,2.06a10.92,10.92,0,0,1-.86,3.71,13.54,13.54,0,0,1-.71,1.38c-.23.38-.47.75-.71,1.08a26.71,26.71,0,0,1-2.1,2.76c-.59.72-1.1,1.31-1.48,1.83a6.29,6.29,0,0,0-1.29,2.82,4.53,4.53,0,0,0,0,1.36,5.77,5.77,0,0,0,.63,1.7c.79,1.5,2,3.54,3,5.58A56,56,0,0,1,540,219.31c.43,2.23.7,4.55.94,6.72l.19,1.56a12.34,12.34,0,0,0,.26,1.32c.19.9.43,1.79.65,2.67.51,1.91,1,3.85,1.67,5.77s1.29,3.89,2,5.84c1.39,3.88,3,7.81,4.42,11.7a98.74,98.74,0,0,1,6.27,23.36c.21,1.6,0,3-.29,3.31s-.71-.9-.89-2.5a97.91,97.91,0,0,0-3.91-16.79c-1.81-5.63-4-11.26-6-16.92-1-2.81-1.9-5.65-2.73-8.46-.4-1.39-.78-2.79-1.12-4.19l-.26-1-.22-1c-.14-.65-.29-1.31-.41-2-.26-1.15-.34-2.8-.52-4.39s-.36-3.23-.66-4.84a53.32,53.32,0,0,0-2.55-9.41,50.71,50.71,0,0,1,2.15,7.84,66.23,66.23,0,0,1,1,8.05c.05.66.09,1.28.15,1.86s.16,1.06.26,1.62c.2,1.12.39,2.15.66,3.37.5,2.37,1,4.71,1.7,7.11,2.51,9.54,5.88,19.2,7.53,28.89q.74,3.72,1.18,7.46a45,45,0,0,1,.24,7.33c-.1,12.38-.44,24.44-.7,36.58s-.52,24.33-.66,37c-.25,21.59-.68,40.49-1.65,62-1.42,30.2-4,57.7-9.73,87.51a44.11,44.11,0,0,1-2.06,8.09c-.35.48,0-2.4.64-6.38,2.48-15.54,4.13-31,5.39-46.52s2.1-31,2.73-46.59c1.27-31.18,1.81-62.73,2.85-95.25.21-7,.42-13.91.62-20.77a.66.66,0,0,1-.36.17c-.49,0-.93-.67-1.29-1.77q-.37,11.69-1,23.53c.5,21.93.65,43.9-1,67.27-1.16,16.05-2.9,30.58-4.53,45.42-.78,18.82-1.8,37.58-3.6,56.58a8.16,8.16,0,0,1-.28,1.82c-.1.27-.14-.14-.09-.9.86-13.07,1.38-26.47,1.77-40-.51,2.13-1,3.4-1.55,3.22s-.9-1.83-1.14-4.36l-.46,9.19c-.11,1.9-.37,3.39-.62,3.33s-.39-1.55-.31-3.35q.75-18.76,1.49-37.47c.14-15,.2-29.92.24-44.93a10.74,10.74,0,0,1-1.85,4.32h0c0,2.32,0,4.64-.08,6.95q.9,31.82.27,64.3t-2.89,65.28a8.72,8.72,0,0,1-.19,1.58,5.87,5.87,0,0,1,0-1.42q1.22-19.8,1.94-39.51v.06c-.08.53-.2.62-.24,0a11,11,0,0,1,.07-2.06c.1-.6.2-.55.25-.05.86-24.47,1.07-48.77.6-72.75q-.43,33.42-1.66,66.8c0,2.43.1,4.85.16,7.32a7.65,7.65,0,0,1-.19,1.81c-.08.19-.17-.3-.17-1l0-2c-.17,4.21-.65,7.45-1.12,7.38-.48-.24-.83-3.86-.78-8.24q0-17.58.08-35.07l-.1-3.79c-.1-1.28-.21-2.54-.31-3.81-.39,18.15-.74,36.28-.87,54.3a7.81,7.81,0,0,1-.27,2.89,7,7,0,0,1-.33-2.77c-1.09-31.76-2.38-63.92-3.13-96.21-1.38-10.62-2.86-21.26-4.34-32.11,0,1.36,0,2.75,0,4.13.17,17.55,1.45,33.79,2.69,49.88s2.48,32,3.07,49a4.09,4.09,0,0,1-.13,1.67c-.1.09-.22-.49-.24-1.35-.73-16.59-2.12-31.74-3.31-48.21-1-13.64-1.91-26.61-3.15-39.29.84,25.91,3.05,50.77,4.4,76.43a16,16,0,0,1,0,3,1.52,1.52,0,0,1,.18.63c.41,3.21.74,6.71,1,10.29a6.68,6.68,0,0,1-.05,1.9C525.61,467.66,525.49,467.24,525.4,466.48Zm2.5-329.21.2,0-.54.07-1.11-.27S527.14,137.16,527.9,137.27Zm4.87-6.88h0l.71.31ZM540.16,230c-.14-.8-.27-1.6-.36-2.36l-.2-2.7c-.14-1.89-.33-3.83-.64-5.73a49.38,49.38,0,0,0-3.11-11,46.32,46.32,0,0,0-2.48-5.1,13.61,13.61,0,0,1-1.74-3.74,4.31,4.31,0,0,1,0-1.35,6.67,6.67,0,0,1,.33-1.45,9.33,9.33,0,0,1,1.73-2.74,9.5,9.5,0,0,0-1.62,2.7,5.68,5.68,0,0,0-.27,2.67c0,1.12,1.68,3.53,3,6.15a49.18,49.18,0,0,1,3.09,8.12,52.17,52.17,0,0,1,1.62,8.6c.16,1.45.24,2.91.33,4.29,0,.67.07,1.38.14,1.9S540.06,229.43,540.16,230ZM535,137.74a22.68,22.68,0,0,1-2.82-.73,5.08,5.08,0,0,1-1.26.7c-1.2.53-2.44,1-3.54,1.53.34.12.07.24,0,.34a3,3,0,0,0-.33.28c.61-.26,1.24-.5,1.88-.71s1.37-.42,2.05-.6,1.32-.34,2-.49A11.5,11.5,0,0,1,535,137.74Zm8.87-4,.22.12.09.63Zm-.21-1.08-.26,0C543.34,132.36,543.46,132.42,543.67,132.63Zm-2.37-.21a3,3,0,0,0,.46.22Zm-11.92-15.24,1.18,3.19-1-3.13Z"/><path d="M626.65,186.65l-.41.3a.77.77,0,0,1,0-.87,6.1,6.1,0,0,0-1.82,5.6,10.51,10.51,0,0,0,2.93,5.24,1.82,1.82,0,0,0,1.89,2,2.36,2.36,0,0,0,2.45-1.78,2.94,2.94,0,0,1,.48-.66,17,17,0,0,0,4.43-5.13l-1.14,1.1a4.74,4.74,0,0,0,.74-1.7l-.7.2a3.59,3.59,0,0,0-.62-5.85,6,6,0,0,0-7.32.68Z"/><path d="M619.2,190.27c.91-1.25,1.87-2.43,2.85-3.59l.44-.21h-1.9l.12,0c1.51,1.2,1.95,3,2.3,4.75l.25.61a1.63,1.63,0,0,0,1,.55,1.68,1.68,0,0,0,1.93-1.15c.06-.29.14-.59.23-.88,1.29-2.15,1.67-5.45-1.44-6.89a6.74,6.74,0,0,0-2.56-.14,2.25,2.25,0,0,0-2.59,1.73,2,2,0,0,0,1.95,2.26c-.11.19-.21.38-.31.57l-.42-.47c1.07.36,1.23,1.38,1.74,2.14l.2,1.13,3-.57-.33-.58a3.08,3.08,0,0,1-.32.11,15.8,15.8,0,0,1-1.81-3.42l-.94-1.59a1.53,1.53,0,0,0-1.9,0l-.69.66.4-.29c-.79,1.56-1.31,3.24-2.14,4.83a.48.48,0,0,0,.22.69A.62.62,0,0,0,619.2,190.27Z"/><path d="M619.26,184.58c.24-.25.5-.48.47-.86l-.22-.17L619,184C618.58,184.38,618.84,184.58,619.26,184.58Z"/><path d="M619.51,183.55l.23-.2-.29.13,0,0Z"/><path d="M660.36,306.36c1,1.55,2.14,3,3.22,4.5s2.16,3,3.33,4.44c2.35,2.87,4.61,5.83,7.15,8.58,1.24,1.39,2.46,2.81,3.74,4.18l3.91,4.05c.65.67,1.29,1.36,2,2l2.05,1.94,4.1,3.9c.38.33.76.54.85.46s-.14-.41-.49-.71a213.86,213.86,0,0,1-15.69-16.06c-2.51-2.74-4.78-5.68-7.11-8.55-1.17-1.42-2.21-3-3.32-4.43l-1.63-2.23c-.55-.73-1.08-1.48-1.57-2.25-.29-.41-.6-.68-.74-.65S660.1,306,660.36,306.36Z"/><path d="M742.52,386.08c-.37-.09-.4,0-.08.24a4.19,4.19,0,0,0,1.19.55c.32.07.35-.05.08-.25A4.16,4.16,0,0,0,742.52,386.08Z"/><path d="M736.1,391.9c-1.08-.39-2.13-.77-3.15-1.11s-2-.71-2.92-1a4.52,4.52,0,0,1-1-.47c0,.21-.42.16-1.2-.13-3.86-1.37-7.67-3.05-11.56-4.73-2-.82-3.85-1.8-5.79-2.71s-3.89-1.83-5.79-2.88L699,375.82c-1.93-1-3.79-2.18-5.69-3.26-3.83-2.15-7.51-4.58-11.25-6.89a1.64,1.64,0,0,1-.88-.06,18.44,18.44,0,0,1-5.38-3.2l-1.46-1.24c-1.53-1.19-2.95-2.51-4.43-3.77s-2.93-2.52-4.37-3.81l-4.23-4c-1.41-1.32-2.82-2.64-4.14-4a45.94,45.94,0,0,1-4.25-3.41c-1.35-1-2.64-2.11-3.93-3.2l-3.89-3.31c-1.32-1.09-2.55-2.29-3.81-3.46l-3.78-3.59c.18.42.22.74.06.86-.44.19-1.84-.74-3-2.23l-1.86-2.18,2.5,3.27c.85,1.08,1.74,2.11,2.6,3.17a10.75,10.75,0,0,1,.67.86l3.05,3.35c1,1.11,2.14,2.16,3.23,3.25A205,205,0,0,0,675,363.49a252.91,252.91,0,0,0,32.33,18.22,4.05,4.05,0,0,1,1.18.7c.16.19.06.28-.35.11-14.33-5.8-27.28-10.83-42.34-20.75A233.63,233.63,0,0,1,640,342.15a225.64,225.64,0,0,1-23.55-23.81,336,336,0,0,1-19.65-29.06c-1.46-2.53-3-5-4.42-7.62l-4.19-7.87c-1.34-2.68-2.62-5.42-3.94-8.19-.33-.69-.67-1.38-1-2.08l-.9-2.13c-.6-1.44-1.21-2.87-1.82-4.32l-1.22-2.94c-.39-1-.74-2-1.1-3l-2.15-6-.53-1.49-.46-1.52-.92-3c-.61-2-1.22-4-1.8-6.06l-.38-1.53-.19-.77-.08-.29-.31-1.07-.61-2.12-1.14-4.25a163.39,163.39,0,0,1-3-17.45,8.5,8.5,0,0,1,.7-6.07,6,6,0,0,1,4.22-3.18,6.43,6.43,0,0,1,5.84,2.31v-1l.36-1.66a6.05,6.05,0,0,1,2.43-3.7l1.5-1.12c2.85-1.47,5.43-3.79,8.53-4.85l1.16.31.35-.26a5.52,5.52,0,0,1,3.21-1.59l1.41.15a14.58,14.58,0,0,1,4.51,1.53,4.72,4.72,0,0,1,1.72.3,7,7,0,0,1,4.65-.21,1,1,0,0,1,1.38.18.87.87,0,0,1,.19.48h0a9.75,9.75,0,0,0,.91-.46c.15-.33.25-.52.25-.52.3-.88.3-.88.59-1.64a4.76,4.76,0,0,1,1.25-1c2.59-.57,2.59-.56,3.67-.38a2.11,2.11,0,0,1,.3.16c.41-.55.44-.58.56-.73a3.22,3.22,0,0,1,.44-.24c.59,0,.59,0,.81-.06a2.3,2.3,0,0,1,.45,0c.63.35.63.35.82.37a1.88,1.88,0,0,1,.3.2l.27.59-1.58.69.51.2-.71.14.65-.06-.42.37.59-.42a3.41,3.41,0,0,0-.31,1.3,1.4,1.4,0,0,0,0,.77,1.71,1.71,0,0,1,.34,0c-.32,1-.32,1-.67,2a4.39,4.39,0,0,1-.44.21.4.4,0,0,1,.19.49l-.15.51a.76.76,0,0,1,.08.11h0l.26.44.07.09h0c.17.31.46.75,1.22,1.89a4.28,4.28,0,0,1-.32.85l.29-.24c.21-.16.76,0,.81-.1a44.51,44.51,0,0,0,2.75-6.58.81.81,0,0,1,.8-.8.78.78,0,0,1,.88.69,13.42,13.42,0,0,1,1.6,7.25,15.72,15.72,0,0,1-.66,3.74,18.48,18.48,0,0,1-.67,1.84c-.22.62-.47,1.22-.75,1.82-.26,1.23-.48,2.48-.69,3.74l.27-.19-.4,1s0,.07,0,.11l1-.8.28-.53a17.45,17.45,0,0,1,1.19-4.2c.5-1.36,1.28-2.69,1.81-4.05a35.46,35.46,0,0,1,2.41-4,.75.75,0,0,1,.86-.53.62.62,0,0,1,.59.7,18.38,18.38,0,0,1-.49,6.89,14.69,14.69,0,0,1-3.15,6.53,4.25,4.25,0,0,1-.83,2.41v0c.27-.2.52-.39.78-.6-.16.65-.81,1.05-1.06,1.66l1.1-.33c-.49,3.19,0,6.52-1.2,9.67a2,2,0,0,1-.06.35,18.69,18.69,0,0,1,1.26,1.74l.25.47a.81.81,0,0,1,.06.13l.08.36c.05.24.11.48.16.72.17,1,.46,2,.64,3l-.18-2.17-.06-2.11c.39,1.48.79,3,1.18,4.45a47.7,47.7,0,0,1,.93,4.73c.83,4.41,1.35,9.22,1.81,13.59.09,1.1.16,2.17.2,3.21s.14,2,.16,3a25.66,25.66,0,0,1-.28,5,201.08,201.08,0,0,0,11,24.89,183,183,0,0,0,14.65,23.07,2.89,2.89,0,0,1,.81,1.85c-.15.23-.71-.12-1.3-.86-2.15-2.49-4-5.2-6-7.85-1-1.31-1.91-2.71-2.83-4.09L646,287.44c-.88-1.41-1.71-2.86-2.56-4.29s-1.75-2.84-2.51-4.33l-2.34-4.43-1.17-2.21-1.06-2.27a159.69,159.69,0,0,0,15.54,30.35c.85,1.2,1.67,2.44,2.6,3.61a43.18,43.18,0,0,1,2.48,3.64l1.62,2.24,1.73,2.17,3.42,4.33c1.17,1.41,2.38,2.78,3.58,4.16s2.37,2.79,3.66,4.1l3.81,4c1.25,1.36,2.65,2.58,4,3.88s2.69,2.6,4.13,3.82l4.34,3.71c1.23,1.08,2.51,2.06,3.77,3l3.73,2.92c2.49,1.89,5,3.65,7.51,5.46s5.12,3.42,7.71,5.16,5.37,3.31,8.18,5c8,4.64,15.81,8.65,23.72,12.49s16,7.27,24.46,10.78c2.28.85,4.28,2,4.4,2.52s-1.65.28-4-.56c-9-3.24-17.91-6.83-26.59-10.84a279.32,279.32,0,0,1-25.31-13.51,216.21,216.21,0,0,1-23.73-16.57,182.2,182.2,0,0,1-21.48-20.08c-1.49-1.54-2.82-3.2-4.2-4.79s-2.77-3.16-4-4.82a.61.61,0,0,1-.14.25c-.27.24-.77.15-1.4-.19.74.93,1.44,1.9,2.21,2.82l2.3,2.76c1.54,1.85,3,3.75,4.68,5.53,9.76,9.29,20.18,17.8,31.49,26.76,7.81,6.11,15,11.6,22.7,16.82a299.13,299.13,0,0,0,31.93,15,3.09,3.09,0,0,1,1,.53c.12.15-.15.14-.61,0-1.93-.66-3.85-1.39-5.79-2.1l-2.92-1.09c-1-.37-1.93-.78-2.9-1.18l-5.81-2.4L732.47,377c1,.91,1.56,1.64,1.27,2s-1.41.26-3-.2l5.16,2.68c1.05.57,1.84,1.12,1.71,1.31s-1.07,0-2.08-.56c-3.53-1.81-7.08-3.56-10.51-5.53-1.72-1-3.47-1.9-5.17-2.91l-5.07-3.05a249.12,249.12,0,0,1-23.9-15.39,6.51,6.51,0,0,1,1.46,2.67h0l3.58,2.6a365.87,365.87,0,0,0,73.9,35.72c.51.18.91.4.89.49s-.44,0-.9-.14c-3.94-1.45-7.91-2.8-11.79-4.38-1.94-.77-3.91-1.47-5.83-2.3l-5.77-2.42,0,0c.28.19.3.32-.07.24a4.55,4.55,0,0,1-1.21-.5c-.33-.22-.25-.31.07-.25a377.73,377.73,0,0,1-41.16-21,328.58,328.58,0,0,0,37.22,20.55c1.46.52,2.89,1.09,4.4,1.57a3,3,0,0,1,1,.57c.08.12-.25.1-.66-.05l-1.24-.42c2.45,1.08,4.2,2.28,4,2.75s-2.64-.07-5.23-1.17c-6.91-3-13.74-6.1-20.35-9.65L721,379.2l-2.29-.91A286.79,286.79,0,0,0,750,393.93c.92.37,1.65.83,1.6,1s-.85,0-1.78-.35a266.21,266.21,0,0,1-28.59-12,251.49,251.49,0,0,1-27.35-15.48c-3.14-1.52-6.21-3.21-9.38-4.82s-6.22-3.47-9.37-5.27c.68.59,1.42,1.13,2.14,1.69,2.32,1.74,4.58,3.48,6.9,5s4.65,3,7,4.5,4.69,2.72,7,4,4.71,2.49,7,3.72c9.43,4.77,19,9,29.07,13.4.52.2.91.46.93.58s-.37.05-.89-.18c-9.92-4.23-19.08-8.05-28.72-13l-5.89-3.1c-1.92-1.06-3.8-2.15-5.69-3.2l-2.81-1.58c-.93-.53-1.84-1.09-2.76-1.63-1.83-1.09-3.66-2.16-5.48-3.23l5.32,3.57c.9.57,1.77,1.17,2.67,1.73l2.72,1.63c1.81,1.08,3.6,2.16,5.42,3.21l5.51,3,2.75,1.48,2.8,1.4,5.58,2.79,5.68,2.65,2.83,1.34,2.88,1.26a7.41,7.41,0,0,1,1.71.93.72.72,0,0,1,.43.05c2,.66,4.15,1.48,6.36,2.24a3.1,3.1,0,0,1,1.1.59C736.87,392.06,736.58,392,736.1,391.9ZM612.41,200.32l.19-.14-.32.49-1.33.73ZM607.35,192h0l.78-.38Zm32.43,88.49c-1.73-3.67-3.57-7.27-4.93-11.05-.7-1.89-1.47-3.74-2.05-5.66s-1.14-3.83-1.67-5.75q1.13,2.67,2.23,5.35c.93,2.87,2,5.69,3,8.58S638.65,277.6,639.78,280.47ZM617.63,194.7a13.34,13.34,0,0,1-2.55,1.88,3.62,3.62,0,0,1,.16,1.5c-.16,1.39-.21,2.74-.44,4.08.47-.2.43.13.49.28l.13.5c.31-1.44.59-2.87,1-4.31A28.86,28.86,0,0,1,617.63,194.7Zm-1.39-9.77a1.86,1.86,0,0,0,.19-.11l.72.3Zm-1.22-.48c0,.06-.07.13-.12.2C614.63,184.56,614.74,184.5,615,184.45ZM614,186.26a1.8,1.8,0,0,0,.42-.24Zm-21.72.56,3.65.94-3.5-1Z"/><path d="M627.73,333.38l-.49-.27c.15-.29.49-.39.92-.38-4.81-1.88-9.21,1.34-11.39,5a2,2,0,0,0-1.61,2.5,2.44,2.44,0,0,0,2.74,1.7,3.13,3.13,0,0,1,.89.21,20.82,20.82,0,0,0,7.34,2.38l-1.67-.69a6.17,6.17,0,0,0,2.22.09l-.48-.57c2.78,1,5.63-.26,6.4-2.88a5.58,5.58,0,0,0-3.62-6.62Z"/><path d="M621.15,327.78c1.62.37,3.2.81,4.79,1.29l.39.33-.71-1.79v.13c-.69,1.86-2.46,3-4.15,4l-.56.45a1.42,1.42,0,0,0-.25,1.11,1.77,1.77,0,0,0,1.91,1.44l1-.11c2.76.36,6.55-.56,6.83-4a6,6,0,0,0-.86-2.45,2.46,2.46,0,0,0-2.83-1.78,2.12,2.12,0,0,0-1.62,2.69l-.71-.07.34-.57c0,1.14-1,1.68-1.62,2.47l-1.12.63,1.67,2.56.51-.53-.24-.27a18.92,18.92,0,0,1,3-3l1.32-1.48a1.46,1.46,0,0,0-.72-1.8l-.95-.4c.15.09.3.18.46.26-1.94-.15-3.87,0-5.79-.15a.57.57,0,0,0-.65.48A.6.6,0,0,0,621.15,327.78Z"/><path d="M627.06,325.65a1.38,1.38,0,0,0,1.07.12c.06-.16.08-.23.1-.27l-.71-.33C627,324.93,626.9,325.26,627.06,325.65Z"/><path d="M628.23,325.5l.29.13-.24-.22,0,0Z"/><path d="M534.35,364.84c-8.68,3.42-17.24,7.23-25.67,11.31-.28.14-.47.33-.43.44s.31.08.57-.06c8.45-4,17-7.82,25.65-11.22.28-.12.47-.31.45-.44S534.62,364.73,534.35,364.84Z"/><path d="M467.05,389.13c.14-.19.08-.27-.15-.19a1.54,1.54,0,0,0-.65.43c-.12.16-.05.25.15.19A1.68,1.68,0,0,0,467.05,389.13Z"/><path d="M464.48,381.73a31.61,31.61,0,0,0,2.73-2.66,1.81,1.81,0,0,1,.52-.36c-.15-.09,0-.35.34-.69,7.05-6.67,15.22-13.06,23.29-19.39a1.16,1.16,0,0,1,.13-.61,6.78,6.78,0,0,1,2.68-2.52l1-.52c3.89-2.23,7.76-4.46,11.7-6.55a15.63,15.63,0,0,1,2.44-2c3-2.57,6-5.15,9.16-7.63a.59.59,0,0,1-.58-.24c-.15-.44.47-1.22,1.4-1.77l1.37-.87L516.5,338a4,4,0,0,1-.56.26q-2.21,1.31-4.39,2.77c-6.39,4.25-12.35,8.75-18.06,13.36s-11.17,9.31-16.52,14.06a1.55,1.55,0,0,1-.68.43c-.16,0-.21-.11,0-.3,6.31-6.68,11.31-13.35,19.05-20.3,9.23-8.25,18.6-16.23,28.73-24,11.18-7,21.2-14.29,32.65-21.81,4.24-2.77,8.47-5.43,12.72-7.94,6.63-4.22,13.35-7.85,20.33-11.41,3.45-2.25,7.68-1.44,9.4,1.77a6.88,6.88,0,0,1-.06,6.29l.9-.36,1.55-.2a5.54,5.54,0,0,1,4.06,1.07l1.5,1c2.31,2.22,5.25,3.73,7.36,6.27l.14,1.2.37.23a5.61,5.61,0,0,1,2.64,2.43l.39,1.38a14.2,14.2,0,0,1,.26,4.81,4.82,4.82,0,0,1,.35,1.74,7,7,0,0,1,1.94,4.29,1,1,0,0,1,.34,1.37,1,1,0,0,1-.41.36h0a9.76,9.76,0,0,0,.79.68c.37,0,.6,0,.6,0,1-.05,1-.05,1.84-.06a4.75,4.75,0,0,1,1.48.8c1.58,2.21,1.58,2.22,1.83,3.3,0,.12,0,.23,0,.34.72.18.77.19,1,.25a2.13,2.13,0,0,1,.42.33c.22.56.22.56.4.74a4.2,4.2,0,0,1,.17.42c-.12.72-.12.72-.07.91a1.78,1.78,0,0,1-.08.36l-.5.47-1.34-1.22v.55l-.43-.61.32.58-.54-.25.66.4a3.78,3.78,0,0,0-1.46.2,1.72,1.72,0,0,0-.78.32,2.39,2.39,0,0,1,.15.32l-2.26.12a3.17,3.17,0,0,1-.39-.32.45.45,0,0,1-.42.36l-.58.06-.09.12,0,0-.36.42-.07.1h0l-1.54,1.81a5.54,5.54,0,0,1-1,0,3.9,3.9,0,0,1,.35.19c.24.14.28.71.39.73a41,41,0,0,0,7.91.13.92.92,0,0,1,1.15.44.79.79,0,0,1-.39,1.1c-3.91,4.23-10,5.42-15.88,4.76-1.42.14-2.83.32-4.24.51l.28.2-1.18-.07-.12,0,1.14.67.64.1c3.23-.57,6.58.05,9.9.15a42.42,42.42,0,0,1,5.26.87.82.82,0,0,1,.9.63.66.66,0,0,1-.58.8c-4.82,2-10.79,2.92-16,1a4.85,4.85,0,0,1-2.87-.06h0l.86.58c-.76,0-1.37-.48-2.1-.55l.63.95c-3.64.4-7.19,1.84-10.9,1.45a1.84,1.84,0,0,1-.4,0,18.36,18.36,0,0,1-1.67,1.63c-.15.12-.3.24-.46.35l-.12.09-.22.12-.43.22c-.59.29-1.22.56-1.88.81l2.81-.58a26.64,26.64,0,0,1-5.65,2.63c-5.65,1.79-12.54,2.62-16.55,1.46-10.68,4.42-21.3,9.09-31.63,14.28a1.45,1.45,0,0,1-1.32.15c-.17-.2.07-.58.6-.85,7.17-4.2,14.7-8,22.33-11.59-6.75,2.24-13.47,4.69-20.13,7.61l-2.48,1.26a18.25,18.25,0,0,1-2.56,1A259.15,259.15,0,0,0,509,374.21c-6.95,4.14-12.93,7.93-19.65,12.36-9.44,6.25-17.91,12.08-27.49,17.91-1.24.82-2.6,1.3-3,1s.29-1.15,1.53-2c9.54-6.75,19-13.39,28.91-19.73a298.58,298.58,0,0,1,31.06-17.76c2.39-1.13,4.72-2.27,7.07-3.35a.68.68,0,0,1-.18-.2,1.11,1.11,0,0,1,.14-1.1c-2.68,1.2-5.38,2.43-8.12,3.61-7,4.36-14,8.76-21.87,12.74-5.41,2.75-10.5,4.94-15.61,7.38-5.92,3.92-11.74,8-17.66,12a1.2,1.2,0,0,1-.64.29c-.14,0-.06-.17.17-.36,3.84-3.12,7.87-6.2,12-9.22-.86.17-1.48.1-1.67-.29s.12-1.07.77-1.82l-3,1.85c-.61.38-1.18.55-1.29.36s.27-.66.85-1q6-3.84,12.08-7.53c4.7-3.21,9.44-6.33,14.26-9.39a3.52,3.52,0,0,1-2.05-.19h0l-2.25,1.39c-13.1,9.53-26.63,18.89-40.41,28.23-.27.19-.53.28-.59.21s.11-.27.35-.43l12.4-8.5h0c-.2.07-.29,0-.15-.18a1.63,1.63,0,0,1,.65-.44c.23-.08.27,0,.15.18q11.47-7.93,22.63-15.95L466.93,388l-2.11,1.86a1.19,1.19,0,0,1-.64.28c-.11,0,0-.21.2-.37l.59-.52c-1.35.87-2.6,1.24-2.87.82s.7-1.58,2.08-2.52q5.44-3.93,11-7.65l1.15-.87,1.08-1c-5.92,3.63-11.8,7.32-17.57,11.1-.48.34-1,.52-1.08.38s.19-.53.67-.88c9.49-7.65,19.4-15.05,29.62-22.1q4.44-4.49,8.95-9.06l-1.35.84A142.73,142.73,0,0,0,481.29,370c-4.78,4-9.43,8.09-14.64,12-.26.21-.53.3-.61.25s0-.26.32-.46c5-3.91,9.37-7.9,14.31-11.95,4.08-3.37,8-6.52,11.74-9.81-8.25,5.71-15.59,12-23.41,18.09a2.93,2.93,0,0,1-1,.57.35.35,0,0,1-.12.25c-.87.92-1.86,1.87-2.89,2.79a1.21,1.21,0,0,1-.65.34C464.19,382.12,464.27,382,464.48,381.73ZM608.54,324.8l.21.14-.6-.16-1.15-1Zm6.7-7.6h0l.65.61Zm-63.54,36a91.73,91.73,0,0,1,14.43-4.87l-3.33,1.53ZM616,327.83a13.73,13.73,0,0,1-2.78-1.76,4.35,4.35,0,0,1-1.48.68c-1.46.37-2.91.64-4.35.87.34.39,0,.44-.15.55l-.47.28c1.57-.17,3.16-.3,4.78-.39A30.17,30.17,0,0,1,616,327.83Zm9.55-4.88.19.13,0,.79S625.62,323.48,625.53,323Zm0-1.33-.24,0C625.29,321.29,625.39,321.37,625.55,321.62Zm-2.23-.31a1.74,1.74,0,0,0,.4.29Zm-8.61-20.22.48,3.79-.36-3.68Z"/><path d="M366.39,564.67l.64,0c-.08.34-.43.62-.93.86a13.76,13.76,0,0,0,7.43-3.88,20.73,20.73,0,0,0,4.43-6.37c1.37-.73,2.06-2.06,1.54-3s-2.14-1.13-3.59-.39a5.77,5.77,0,0,1-1.14.21,27.78,27.78,0,0,0-9.6,1.44l2.25-.24a10.58,10.58,0,0,0-2.79,1.09l.73.28c-3.68.58-7,3.49-7.09,6.43s3,4.61,6.52,3.87Z"/><path d="M375.43,566.35c-1.85.43-3.69.84-5.6,1.25l-.54-.09,1.4,1.23-.06-.1c.09-2,1.67-4,3.29-5.71l.51-.68a1.28,1.28,0,0,0,0-1.13,1.89,1.89,0,0,0-2.56-.39l-1.16.63c-3.25,1-7.42,4.09-6.43,7.43.24.75,1.21,1.16,1.91,1.7a2.87,2.87,0,0,0,3.73,0c1.22-.91,1.58-2.35.81-3.28l.78-.3c-.05.23-.11.46-.17.69-.41-1,.53-2,1-3.06l1.06-1.13-2.61-1.51-.42.75.35.12a32.41,32.41,0,0,1-2.35,4.32c-.32.69-.63,1.39-.92,2.08a1.21,1.21,0,0,0,1.44,1.22l1.17-.16h-.59c2.13-.92,4.13-2,6.22-2.83a.7.7,0,0,0,.54-.73A.54.54,0,0,0,375.43,566.35Z"/><path d="M369.86,571.29a1.9,1.9,0,0,0-1.19.49c0,.16,0,.25,0,.29l.88-.1C370.19,571.9,370.18,571.55,369.86,571.29Z"/><path d="M368.68,572.07l-.37,0,.35.06,0,0Z"/><path d="M425.21,708.51l-.33.91c-.1.25-.16.32-.24.5l-.46.89c-.33.6-.54,1.22-.81,1.84a27.85,27.85,0,0,0-1.32,3.86,17.16,17.16,0,0,0-.61,4.12,8.3,8.3,0,0,0,.91,4.06,6.4,6.4,0,0,0,3.1,2.71,12.15,12.15,0,0,0,4.09.9,28.87,28.87,0,0,0,4.26,0l2.16-.19,4.91-.58c.85-.1,1.54-.33,1.55-.51s-.67-.24-1.44-.13l-5,.58-2.05.18a27.54,27.54,0,0,1-4.06,0,11.66,11.66,0,0,1-3.88-.83,6.24,6.24,0,0,1-3-2.53,7.91,7.91,0,0,1-.9-3.85,15.9,15.9,0,0,1,.56-3.9,27.76,27.76,0,0,1,1.24-3.67c.26-.58.47-1.17.77-1.73l.43-.86.22-.42a2.7,2.7,0,0,0,.15-.37l.15-.45a2.69,2.69,0,0,0,.19-1.43C425.68,707.49,425.42,707.9,425.21,708.51Z"/><path d="M570.69,729.52c-.54-.57-.63-.46-.24.25a14.71,14.71,0,0,0,1.47,2.19c.42.5.54.39.25-.23A10.91,10.91,0,0,0,570.69,729.52Z"/><path d="M558.4,731.58a26.61,26.61,0,0,0-8.34-5.06,7,7,0,0,1-1.34-.66c.07.29-.58.24-1.64-.07-5.25-1.41-10.7-.66-16.9,1.42-.77.26-1.56.55-2.36.85l-2.45,1-2.45,1-2.44,1.09c-3.25,1.49-6.49,3.16-9.75,4.93-6.53,3.57-13.1,7.65-20.14,11.81l-2.68,1.57c-1,.54-1.9,1.09-2.87,1.61-1.92,1.07-3.91,2.07-5.91,3.05a131,131,0,0,1-12.42,5.26,3.47,3.47,0,0,1-1.27,1.1c-2.17,1.45-7,3.21-12.11,4.12-1.29.22-2.58.39-3.87.57-1.92.29-4,.57-5.65.77l-2.83.34c-1.25.17-2.53.3-3.79.42a103.22,103.22,0,0,1-15.06.61,56.63,56.63,0,0,1-14.25-2.35,35.35,35.35,0,0,1-12.39-6.58,17.69,17.69,0,0,1-2.42-1.83,19,19,0,0,1-2.33-2.26c-.37-.42-.73-.85-1.1-1.29s-.67-.93-1-1.4-.68-1-1-1.47l-.85-1.59a36.67,36.67,0,0,1-4.07-11.42c-.18-1-.36-2-.49-3.06a24.26,24.26,0,0,1-.32-3.11,51.9,51.9,0,0,1,.07-6.47,65.75,65.75,0,0,1,2.4-13.4c.63-2.28,1.57-4.44,2.4-6.67l1.29-3.34c.11-.27.21-.56.33-.83l.43-.77.85-1.56c-.78,1-1.36,1.53-1.58,1.45-.18-.25.2-1.38,1-3,.39-.82.88-1.77,1.45-2.8l.44-.79c.15-.26.3-.55.44-.74l.89-1.31,1.86-2.66.94-1.31,1-1.24a42.48,42.48,0,0,0-2.89,3.65L391.85,691l-.69,1c-.23.32-.51.8-.76,1.19-2,3.31-4.3,6.44-5.74,10.18-.46,1-.92,2-1.35,2.87a47.42,47.42,0,0,0-2.3,6.12c-.66,2.07-1.17,4.17-1.62,6.27a60,60,0,0,0-1.3,12.55,41.94,41.94,0,0,0,.58,6.59,44.3,44.3,0,0,0,1.33,6.34c.36,1,.69,2,1.06,3l1.26,2.95,1.55,2.81c.59.9,1.22,1.77,1.83,2.65s1.34,1.69,2,2.53,1.53,1.53,2.3,2.28a28.9,28.9,0,0,0,2.47,2.08,23.72,23.72,0,0,0,2.62,1.84,43.69,43.69,0,0,0,11.69,5c8.23,2.18,17.17,2.2,25.95,1.17,2.2-.26,4.39-.58,6.56-.9.55-.07,1.09-.19,1.63-.28l1.38-.24,2.18-.41,4.59-.93c1.59-.36,3.16-.7,4.74-1.11a128.76,128.76,0,0,0,18.55-6.14,135.4,135.4,0,0,0,17-8.68c10-6.06,18.71-12,27.65-16.66a7,7,0,0,1,2.1-.85c.4,0,.41.17-.23.52A183.25,183.25,0,0,0,503,745.31l-8.08,5.91-4.27,3c-1.56,1.07-3.17,2.14-4.82,3.18a122.31,122.31,0,0,1-22.05,11,125.73,125.73,0,0,1-12.46,4c-1.08.29-2.15.55-3.24.81l-3,.72-1.47.33-.77.17-.48.1-.6.11c-1.61.34-3.27.56-4.93.83-2,.32-4,.57-6,.86s-4,.38-6,.46l-3,.13c-1,.06-2,0-3,0s-2,0-2.95-.1l-2.91-.25c-1-.08-1.93-.23-2.88-.38s-1.91-.29-2.84-.49a53.24,53.24,0,0,1-5.52-1.45,46.62,46.62,0,0,1-10.35-4.62l-2.4-1.55-2.25-1.77a25.72,25.72,0,0,1-2.15-1.89l-1.05-1-.26-.25-.06-.06c-.1,0-.06,0-.1,0L383,763l-.47-.54a44.67,44.67,0,0,1-6.56-9.27,43.73,43.73,0,0,1-4-10.59c-.42-1.86-.78-3.76-1.11-5.67a18.77,18.77,0,0,1-.33-2.93c0-1-.17-2-.13-3a63.25,63.25,0,0,1,1.05-12.43,60.41,60.41,0,0,1,3.58-12.63l2.55-6.17.65-1.55.32-.77a6.37,6.37,0,0,1,.41-.72l1.69-2.81,1.71-2.83.85-1.41.43-.71c.14-.24.29-.5.4-.65q1.44-2.09,2.91-4.12c.5-.68,1-1.38,1.51-2l1.62-1.91,1.65-1.89a24.14,24.14,0,0,1,1.68-1.81c1.14-1.15,2.31-2.27,3.47-3.39s2.34-2,3.51-3a145,145,0,0,1,13.33-9.55c4.34-2.73,8.31-5.16,11.78-7.81,1.83-1.3,3.42-2.7,5.07-4.11.85-.69,1.57-1.46,2.34-2.2s1.53-1.5,2.27-2.27c1.41-1.61,2.83-3.21,4.17-4.89s2.59-3.48,3.77-5.21a51.89,51.89,0,0,0,5.47-10.49,41.91,41.91,0,0,0,2.63-11.09,35.09,35.09,0,0,0-.6-10.86l-.28-1.3c-.11-.43-.25-.84-.37-1.26-.21-.83-.55-1.64-.82-2.46a31.71,31.71,0,0,0-2.2-4.68,29.67,29.67,0,0,0-6-7.63,12.39,12.39,0,0,0-4.15-2.63,3,3,0,0,0-.78-.18l-.17,0a.45.45,0,0,0-.11,0,.77.77,0,0,0-.19.08c-.26.12-.5.27-.82.42a5.84,5.84,0,0,1-1.59.43,12.45,12.45,0,0,0-1.85.19,9.82,9.82,0,0,0-1,.32,21.75,21.75,0,0,0-4.06,2c-.34.19-.71.48-1.05.7a5.77,5.77,0,0,0-.54.37l-.12.1-.38.34c-.25.21-.51.47-.77.7s-.51.47-.77.73-.51.48-.77.75c-1,1-2.09,2.13-3.13,3.32s-2.1,2.46-3.13,3.82c-1.28,2.37-4.07,2.58-6.48.29a7.65,7.65,0,0,1-2.3-5.35l-.5.52-1,.57a4,4,0,0,1-3.28.23l-1.5-.43c-2.58-1.19-5.43-1.44-8.2-2.81l-.64-1-.39-.06a5.6,5.6,0,0,1-3.2-1l-.93-1a12.53,12.53,0,0,1-2.28-4.05,4.5,4.5,0,0,1-1-1.36,6.43,6.43,0,0,1-3.47-2.9.89.89,0,0,1-.86-1,1.28,1.28,0,0,1,.25-.51h0c-.41-.11-.53-.14-1-.24l-.6.26-1.76.95a5.6,5.6,0,0,1-1.77,0c-2.47-1.13-2.49-1.12-3.19-2a2,2,0,0,1-.09-.33c-.81.23-.87.25-1.09.3a2.57,2.57,0,0,1-.57-.05c-.46-.38-.46-.38-.71-.44a2.41,2.41,0,0,1-.35-.28c-.18-.71-.18-.71-.31-.84a1.6,1.6,0,0,1-.07-.37l.35-.7,1.89.35-.21-.5.68.32-.56-.35.67-.07h-.85a5.83,5.83,0,0,0,1.46-1,2.19,2.19,0,0,0,.7-.7,1.47,1.47,0,0,1-.27-.2c1.18-.65,1.18-.66,2.34-1.25a3.54,3.54,0,0,1,.51.1.56.56,0,0,1,.33-.53l.59-.33.06-.15,0,0,.25-.55,0-.12h0c.17-.38.42-.92,1.12-2.35a9.32,9.32,0,0,1,1.08-.43l-.43,0c-.3,0-.49-.52-.61-.49a43,43,0,0,0-8.69,3.82,1.2,1.2,0,0,1-1.42.24.76.76,0,0,1,.05-1.21c2.89-6,10-10.14,16.87-11.73l4.93-2-.36-.08,1.41-.32.14,0-1.39-.26c-.26,0-.52.07-.78.12-3.78,1.62-7.79,2.36-11.74,3.76-2.12.75-4.24,1.08-6.41,1.7a.92.92,0,0,1-1.22-.12c-.21-.31,0-.78.49-1,5.27-4.32,12.77-7.77,19.36-7.7a8.13,8.13,0,0,1,3.56-.83h0L391.2,548a21.18,21.18,0,0,1,2.63-.08l-.77-.71c2.28-.7,4.64-1.53,7-2.22a26.2,26.2,0,0,1,7.22-1.14l.53-.06a19.3,19.3,0,0,1,2.63-1.54l.73-.33a1.2,1.2,0,0,1,.22-.08l1.07-.27,2.21-.44a58.75,58.75,0,0,1,9.51-1.05q-1.73,0-3.39.09c-1.12.06-2.23.14-3.32.27s-2.2.23-3.28.41l-1.63.24-1.41.26,0,0,.19,0,.43-.11.85-.2,1.74-.36c1.14-.26,2.35-.43,3.53-.62a60.52,60.52,0,0,1,7.33-.63c1.25,0,2.53,0,3.79,0s2.57.17,3.85.28l1.94.27,1,.15.48.07.24,0,.13,0,3.33.7A45.83,45.83,0,0,1,451.48,545a42.82,42.82,0,0,1,5.43,3.36q1.18.9,2.34,1.83c.74.63,1.43,1.28,2.12,1.92a54.19,54.19,0,0,1,11.54,16.28,61.21,61.21,0,0,1,4.89,15.35,53,53,0,0,1,.92,11.91,76.74,76.74,0,0,1-.35,16.82,93.28,93.28,0,0,1-3.6,16.06,107.72,107.72,0,0,1-6.14,14.92c-.62,1.19-1.2,2.4-1.87,3.56l-1,1.74-1,1.65-2,3.3c-.65,1.11-1.32,2.21-2,3.28-2.8,4.34-5.74,8.65-8.89,12.79l-2.36,3.12-2.41,3-1.2,1.52-1.21,1.47-2.41,3c-3.16,3.82-6.24,7.55-8.77,11a55.89,55.89,0,0,0-5.78,9.93c-.54,1.31-1.1,2.34-1.45,2.41s-.17-1,.33-2.35c.46-1.16,1.05-2.31,1.58-3.51s1.34-2.39,2.06-3.62,1.61-2.48,2.53-3.76,1.87-2.54,2.93-3.88c4.16-5.26,9-10.9,13.55-16.79A201,201,0,0,0,462,652.86l2.83-4.76c.95-1.66,1.86-3.36,2.71-5.08a101.08,101.08,0,0,0,4.6-10.61c-1.16,3-2.5,6-3.94,8.83-.72,1.44-1.49,2.84-2.26,4.25l-1.2,2.08-1.23,2c-1.64,2.62-3.24,5.27-5.07,7.81-.9,1.27-1.72,2.6-2.67,3.85L452.92,665c-3.82,5-7.89,9.86-12,14.41s-8,8.91-11.19,13.11l-1.19,1.62c-.37.54-.69,1.08-1,1.61l-1,1.59c-.34.53-.59,1.07-.89,1.6-.55,1-1.18,2-1.63,3.06l-.75,1.49-.39.74-.32.76-.75,2c-.11.3-.26.7-.36.92l-.28.6c-.35.82-.78,1.61-1.05,2.44a43.67,43.67,0,0,0-1.62,5,25.55,25.55,0,0,0-.84,5.13,12.06,12.06,0,0,0,.7,5.09,7.5,7.5,0,0,0,3.28,3.89,12.23,12.23,0,0,0,5,1.43,26.34,26.34,0,0,0,5.25-.12c.87-.09,1.74-.22,2.6-.36l1.29-.23c.46-.08.67-.15,1.76-.31,3.31-.52,5.81-.94,8.5-1.51s5.18-1.2,7.66-1.93A99.67,99.67,0,0,0,468,721.49c2.39-1.12,4.58-2.24,7.3-3.69l8.2-4.34c5.66-3,11.76-6.07,18.55-9a131.05,131.05,0,0,1,14.84-5.35,77.9,77.9,0,0,1,17.55-3.29,52.38,52.38,0,0,1,20.77,3,49.76,49.76,0,0,1,9.47,4.7,60.1,60.1,0,0,1,7.64,5.81,61.64,61.64,0,0,1,6.51,6.86,67.71,67.71,0,0,1,5.06,7.27,97.89,97.89,0,0,1,6.82,13.9l1.31,3.27c.45,1.15.92,2.37,1.35,3.56.88,2.4,1.63,4.85,2.34,7.31a111.17,111.17,0,0,1,3.16,15,55.55,55.55,0,0,1,.6,7.34,12,12,0,0,1-.36,3.82c-.44.72-1-3.08-1.74-8.4a111.74,111.74,0,0,0-3.43-15.43c-.75-2.54-1.6-5.06-2.53-7.55-.47-1.24-1-2.48-1.48-3.71l-1.47-3.46A103.07,103.07,0,0,0,581,724.8a57.94,57.94,0,0,0-12.38-14.14c-1.24-1.06-2.58-2-3.9-2.94l-2-1.32c-.66-.44-1.49-.88-2.24-1.31a47.55,47.55,0,0,0-10-4,50.58,50.58,0,0,0-20.39-1.13,75.59,75.59,0,0,0-8.85,1.79c-1.37.36-2.64.74-4,1.11s-2.59.8-3.86,1.23a156.36,156.36,0,0,0-14.68,5.85c-4.68,2.13-9.15,4.39-13.46,6.62l-6.36,3.31-3.09,1.61-2.94,1.5a100.69,100.69,0,0,1-23.21,8.35c-2,.48-4.08.86-6.16,1.22l-3.2.49-3.42.49a59.73,59.73,0,0,1-7.81.8,26.06,26.06,0,0,1-3.95-.17,14.94,14.94,0,0,1-3.85-.93,9.05,9.05,0,0,1-3.32-2.13,9.4,9.4,0,0,1-1.26-1.54,11.9,11.9,0,0,1-.84-1.81,15.61,15.61,0,0,1-.6-6.78,35,35,0,0,1,1.45-6.6.92.92,0,0,1-.36.11c-.45,0-.74-.42-.84-1.19a44.17,44.17,0,0,0-2,8.15,25.58,25.58,0,0,0-.18,4.29,15.35,15.35,0,0,0,.89,4.22,9.81,9.81,0,0,0,4.22,4,15.81,15.81,0,0,0,5.72,1.47,47.63,47.63,0,0,0,11.55-.88l1.43-.25,2.44-.37,2.37-.36c.74-.13,1.49-.23,2.23-.37,3-.52,5.89-1.14,8.79-1.85a121.4,121.4,0,0,0,17.27-5.68l3-1.25,3-1.35,6.35-2.91c4.28-1.94,8.63-3.89,13.09-5.7s9-3.53,13.74-5c2.35-.74,4.73-1.44,7.16-2,1.21-.31,2.42-.6,3.66-.86l1.84-.41,1.93-.37a63.6,63.6,0,0,1,10.37-1.7,45.68,45.68,0,0,1,11.37.54,41.84,41.84,0,0,1,11.19,3.66c.9.41,1.72.91,2.57,1.37s1.56,1,2.34,1.47a49.39,49.39,0,0,1,4.4,3.25,52.68,52.68,0,0,1,7.59,7.72,67.2,67.2,0,0,1,5.7,8.47c1.62,2.84,3,5.65,4.31,8.43.63,1.38,1.25,2.76,1.83,4.12s1.24,2.87,1.81,4.31a9.36,9.36,0,0,1,.71,2.32c0,.39-.26-.08-.65-1s-.86-2-1.3-3l-1.34-2.88c-.88-1.85-1.81-3.75-2.78-5.65A89.45,89.45,0,0,0,575,725.59a57.25,57.25,0,0,0-4.73-5.62,51.22,51.22,0,0,0-5.65-5c-1-.79-2-1.49-3.09-2.21s-2.08-1.34-3.3-2a38.41,38.41,0,0,0-7.47-3.13c3.13,1.54,4.6,3,4.1,3.47s-3-.16-6.67-.76a37.88,37.88,0,0,1,6.3,2.45c1,.46,2,1.06,2.93,1.6s1.8,1.15,2.67,1.78c2.16,1.54,3.54,3.14,3.3,3.31s-2-.94-4-2.35c-.87-.62-1.77-1.17-2.67-1.75s-1.9-1.12-2.91-1.57a35.91,35.91,0,0,0-6.23-2.34,39.43,39.43,0,0,0-13-1.17,61.86,61.86,0,0,0-12.23,2.25c-3.85,1.05-7.63,2.31-11.31,3.72a260.54,260.54,0,0,0-24.95,12.3l-6,3.2c-2,1-3.88,2-5.86,3a112.41,112.41,0,0,1-12.06,4.91,14.66,14.66,0,0,1,5.42.12v0c2.56-1,5.07-2,7.55-3.2,5.54-2.82,11.08-6.16,16.78-9.3s11.54-6.25,17.68-8.95q4.59-2,9.41-3.7c1.6-.56,3.23-1,4.86-1.55s3.36-.92,5.1-1.29a45.66,45.66,0,0,1,10.86-1A35.34,35.34,0,0,1,551,712.87l1.34.5,1.3.59a26.31,26.31,0,0,1,2.54,1.29,44.84,44.84,0,0,1,4.64,3,45.31,45.31,0,0,1,8,7.55c4.65,5.62,7.88,11.85,10.73,17.92,1.42,3,2.85,6.21,4,9.41s2.27,6.49,3.18,9.8a113.7,113.7,0,0,1,3.6,20.18,6.18,6.18,0,0,1,0,2,4.39,4.39,0,0,1-.32-1.73,113.19,113.19,0,0,0-4.82-24.2,109.52,109.52,0,0,0-4.4-11.59c-1.69-3.71-3.4-7.36-5.41-11l0,.07c.25.63.18.81-.25.21a17.32,17.32,0,0,1-1.29-2.27c-.31-.72-.14-.74.25-.23a56.78,56.78,0,0,0-7-9.7,48,48,0,0,0-4.41-4.26,45.73,45.73,0,0,0-5-3.59,37.9,37.9,0,0,0-5.55-2.91,36.84,36.84,0,0,0-6.06-1.85,38.45,38.45,0,0,0-12.36-.45,60.9,60.9,0,0,0-11.49,2.6c-3.64,1.13-7.19,2.46-10.66,3.93a201.55,201.55,0,0,0-19.87,10c6-3.14,12.17-6.2,18.56-8.83,3.2-1.32,6.46-2.52,9.78-3.56a77.87,77.87,0,0,1,10.24-2.6,43,43,0,0,1,10.9-.57A34.1,34.1,0,0,1,552,715.27a40.54,40.54,0,0,1,9.21,5.84,44,44,0,0,1,7.36,7.83,64.41,64.41,0,0,1,5.44,7.49,8.33,8.33,0,0,1,.94,2.07c0,.26-.38-.21-.83-1s-.89-1.44-1.37-2.15c2.61,4.59,3.76,8.45,3.15,8.66-.75.05-3.12-3.68-5.87-8.2a45.38,45.38,0,0,0-14.65-15.09,30.56,30.56,0,0,0-9.67-4,33.41,33.41,0,0,0-10.46-.63,45.27,45.27,0,0,0-4.49.77c-1.48.41-2.93.88-4.36,1.41a42.23,42.23,0,0,1,16-1.3,29,29,0,0,1,7.62,2.07,34.2,34.2,0,0,1,6.85,4,43.92,43.92,0,0,1,10.74,11.66A120.91,120.91,0,0,1,575.2,749c.82,1.65,1.3,3.17,1.11,3.29s-1-1.14-1.81-2.79a136.7,136.7,0,0,0-7.12-12.23,46.31,46.31,0,0,0-9-10.07,34.67,34.67,0,0,0-5.47-3.68,27.8,27.8,0,0,0-5.86-2.45,29.16,29.16,0,0,0-12.6-.59,47.69,47.69,0,0,0-6.49,1.47c-2.17.64-4.41,1.42-6.58,2.22a137.94,137.94,0,0,0-12.89,5.64c-4.25,2.09-8.46,4.38-12.7,6.73s-8.47,4.75-13,7.14a127.21,127.21,0,0,1-18.17,9.78,134,134,0,0,1-20,6.82c1.74-.25,3.54-.51,5.32-.85a110.82,110.82,0,0,0,31.66-11c4.84-2.57,9.06-5.2,13.25-7.74s8.27-5,12.36-7.35,8.19-4.48,12.39-6.34a80.54,80.54,0,0,1,12.74-4.61,29.73,29.73,0,0,1,12.48-.64,23.8,23.8,0,0,1,6,1.91c1,.43,2,1,2.93,1.57l1.43.91c.48.31.92.66,1.39,1a3.36,3.36,0,0,1,1.24,1.3c0,.16-.57-.14-1.28-.72a32.94,32.94,0,0,0-5.53-3.34,23,23,0,0,0-5.66-1.9,28.41,28.41,0,0,0-11.8.42,53.06,53.06,0,0,0-6.09,1.82c-2.08.76-4.18,1.59-6.25,2.5-4.16,1.81-8.27,3.89-12.46,6.19-6.93,3.81-13.63,8-20.56,12.22a143.8,143.8,0,0,1-22.77,11.33,123.16,123.16,0,0,0,23.17-10.52c6.85-3.94,13.26-7.89,19.69-11.39a128.48,128.48,0,0,1,19.49-8.87c6.46-2.22,12.52-3.18,18.13-1.72a6.75,6.75,0,0,1,2.48,1,1,1,0,0,1,.61,0c.36.1.72.25,1.08.38a8.45,8.45,0,0,1,1.12.45l1.17.53c.39.2.76.41,1.15.62.79.4,1.5.91,2.27,1.38s1.48,1,2.18,1.65a4.6,4.6,0,0,1,1.31,1.47C559.4,732.3,559,732.08,558.4,731.58ZM389.49,563.9l-.24,0,.65-.07,1.38.57Zm-4.75,9.32h0l-.82-.27Zm75.32,80.65,3.46-5.64c1.17-1.87,2.27-3.93,3.33-5.93a104.69,104.69,0,0,0,5.48-12.55,86.45,86.45,0,0,0,5.26-27.42,77.89,77.89,0,0,1-1.1,13.78,83.23,83.23,0,0,1-2.64,10.25,88,88,0,0,1-3.74,9.75c-1.41,3.17-3,6.24-4.69,9.23l-1.32,2.22-1.35,2.1ZM381,564a12.41,12.41,0,0,1,3.37.47,5.71,5.71,0,0,1,1.43-1.18,38.22,38.22,0,0,1,4.49-2.32c-.43-.24-.07-.41.08-.55l.47-.41-5.11,2C384.14,562.65,382.55,563.48,381,564Zm-8.47,8.89-.24,0-.27-.72Zm.5,1.19.27-.09C373.38,574.23,373.25,574.21,373,574.07Zm2.38-.86a1.55,1.55,0,0,0-.52-.06Zm15.9,13.89-2-3.08,1.84,3Z"/><path d="M458.69,602.51l.37,0a.85.85,0,0,1-.57.47c3.49-.1,6-3,7.24-5.79a1.54,1.54,0,0,0,1-1.91,1.58,1.58,0,0,0-2.12-.54,2.65,2.65,0,0,1-.67.06,13.54,13.54,0,0,0-5.57.27h1.29a5.58,5.58,0,0,0-1.62.52l.42.24a4.3,4.3,0,0,0-4.15,3.61,3,3,0,0,0,3.5,3.06Z"/><path d="M463.89,604.39c-1.13.12-2.22.23-3.35.31l-.31-.1.75.91,0-.07a6.21,6.21,0,0,1,2.18-3.41l.33-.4a1,1,0,0,0,0-.76,1.09,1.09,0,0,0-1.49-.46l-.7.32c-1.95.42-4.39,2-4,4.2.1.5.62.85,1,1.26a1.56,1.56,0,0,0,2.13.36,1.51,1.51,0,0,0,.63-2l.47-.12-.13.43c-.19-.69.4-1.27.7-1.9l.67-.64-1.47-1.21-.28.46.2.1a16.08,16.08,0,0,1-1.54,2.59l-.62,1.24a.81.81,0,0,0,.77.91h.68l-.34,0c1.27-.38,2.51-.92,3.78-1.24a.43.43,0,0,0,.36-.43A.36.36,0,0,0,463.89,604.39Z"/><path d="M460.38,607.06a1,1,0,0,0-.72.19c0,.1,0,.15,0,.18l.51,0C460.53,607.47,460.54,607.25,460.38,607.06Z"/><path d="M459.65,607.43h-.21l.19.08,0,0Z"/><path d="M544.22,596.39a12.08,12.08,0,0,0,6.78.46,18.2,18.2,0,0,0,7.32-4.1c.16-.15.25-.32.2-.38s-.21,0-.35.16a17.86,17.86,0,0,1-7.23,4,11.73,11.73,0,0,1-6.6-.47c-.16,0-.36,0-.39,0S544.05,596.34,544.22,596.39Z"/><path d="M580.83,566.05c0,.2,0,.21.16,0a2.11,2.11,0,0,0,.23-.64c0-.17-.06-.19-.16,0A1.83,1.83,0,0,0,580.83,566.05Z"/><path d="M584.86,569.36c-.29,1.15-.52,2.27-.72,3.28a3.26,3.26,0,0,1-.2.53c.12,0,.12.22,0,.64a84.15,84.15,0,0,1-10.84,25.39,1,1,0,0,1,0,.5,8.39,8.39,0,0,1-1.92,3l-.8.78A36.78,36.78,0,0,1,559,611.72c-.42.28-.89.57-1.4.85a13.68,13.68,0,0,1-1.72.74,19.88,19.88,0,0,1-3.12,1.24,23.37,23.37,0,0,1-3.34.86,24,24,0,0,1-3.44.44,27.89,27.89,0,0,1-3.41,0c.27.12.42.25.4.37-.11.28-1.18.39-2.4.22-.59-.08-1.14-.19-1.71-.29a42.48,42.48,0,0,0,5.14.91c.27,0,.52,0,.75.07l1.55,0a10.6,10.6,0,0,0,1.58-.05c1.07-.1,2.15-.17,3.22-.37s2.34-.51,3.46-.83,2.16-.79,3.21-1.21,2-1,3-1.48,1.87-1.11,2.71-1.74a38.36,38.36,0,0,0,8.4-8.26,56.07,56.07,0,0,0,5.55-9l1.12-2.28,1-2.3c.32-.76.67-1.52,1-2.29l.84-2.29a1.86,1.86,0,0,1,.33-.66c.1-.09.16,0,.09.2-.28,1-.57,2-.85,3s-.62,1.94-.93,2.92c-.58,2-1.36,3.88-2.12,5.87a44.45,44.45,0,0,1-7.56,12.37,38.34,38.34,0,0,1-8.16,7c-.8.51-1.66,1-2.5,1.44s-1.81.84-2.72,1.24l-1.4.58c-.47.19-1,.32-1.48.48-1,.28-2,.59-3.05.81a40.91,40.91,0,0,1-12,.49l-2.66-.32-2.42-.38-2.27-.4-2.15-.4-2-.52-1.87-.44-.92-.21-.85-.16-1.71-.31a36.92,36.92,0,0,0-6.14-.46,39.57,39.57,0,0,0-11.41,1.93,51.79,51.79,0,0,0-8.05,3.4c-2.79,1.71-5.5,3.43-8.26,5.41-1.27,1.25-3.39.89-4.82-.86a4.69,4.69,0,0,1-1-3.64l-.41.25-.76.22a3.15,3.15,0,0,1-2.3-.32l-1-.46c-1.61-1.07-3.49-1.59-5.13-2.75l-.31-.68-.25-.08a3.6,3.6,0,0,1-1.94-1l-.49-.74a8.38,8.38,0,0,1-1-2.77,3.1,3.1,0,0,1-.52-1,4.19,4.19,0,0,1-1.9-2.19.58.58,0,0,1-.44-.74.6.6,0,0,1,.19-.3h0a4.9,4.9,0,0,0-.6-.26l-.38.1-1.12.43a3.18,3.18,0,0,1-1.06-.16c-1.37-.95-1.38-.95-1.73-1.54l0-.21-.65.07a1.33,1.33,0,0,1-.33-.09c-.24-.28-.24-.28-.38-.34a2,2,0,0,1-.18-.21c-.06-.46-.06-.46-.12-.56a.83.83,0,0,1,0-.24l.24-.4,1.07.41-.09-.34.37.27-.3-.28.39,0-.49-.08a2.68,2.68,0,0,0,.89-.47,1.47,1.47,0,0,0,.46-.37,1.11,1.11,0,0,1-.15-.16c.73-.31.73-.31,1.44-.59a2.09,2.09,0,0,1,.3.11.34.34,0,0,1,.22-.31l.37-.16,0-.09,0,0,.17-.34,0-.07h0c.13-.23.3-.56.77-1.44a6.14,6.14,0,0,1,.66-.2l-.26,0c-.18,0-.27-.39-.35-.38a24.52,24.52,0,0,0-5.26,1.72.62.62,0,0,1-.82,0,.52.52,0,0,1,.07-.77c1.92-3.59,6.16-5.83,10.31-6.37,1-.31,2-.65,3-1l-.21-.09.84-.11.09,0-.84-.28a3.44,3.44,0,0,0-.46,0c-2.27.84-4.68,1-7,1.67-1.25.35-2.53.38-3.79.64a.51.51,0,0,1-.7-.17.51.51,0,0,1,.31-.65c3.16-2.46,7.59-4.3,11.48-3.81a4,4,0,0,1,2.09-.36h0l-.64-.27c.55-.12,1,.14,1.55.1l-.48-.54c2.68-.69,5.37-2,8.13-1.81l.3,0a16.89,16.89,0,0,1,1.36-1.12c.12-.08.24-.17.37-.24l.11-.06.25-.1.51-.19c.69-.25,1.41-.49,2.16-.71l-3.09.63c1-.43,2.1-.86,3.18-1.23a32.76,32.76,0,0,1,3.48-.9,42.22,42.22,0,0,1,5.08-.65,36.34,36.34,0,0,1,5,0,21.83,21.83,0,0,1,7.68,1.75,70.18,70.18,0,0,1,18.5,2.76c5.82,1.62,10.95,3.75,14.85,4.82.37.08.68.29.71.47s-.28.25-.66.17c-2.8-.56-6.32-1.77-10.21-2.95a87.67,87.67,0,0,0-12.62-3,79.29,79.29,0,0,1,10.49,3.17c3.3,1.21,6.39,2.53,9.15,3.52.73.24,1.37.41,2.07.62s1.24.37,1.85.62a9.21,9.21,0,0,0,1.11.26l1,.22,1,.1a3.83,3.83,0,0,0,.94.07,9.68,9.68,0,0,0,1.79-.08c.3,0,.6-.06.9-.11l.92-.26a12.87,12.87,0,0,0,3.74-1.61l.93-.58.91-.7A20,20,0,0,0,558.4,594a43.09,43.09,0,0,0,5.43-6.66,71.72,71.72,0,0,0,4.51-8.11c1-2,1.9-4.21,2.81-6.28.44-1.06.83-2.14,1.25-3.19s.85-2.11,1.22-3.2c.76-2.17,1.6-4.28,2.32-6.51s1.56-4.42,2.3-6.73c.38-1.23,1-2.3,1.27-2.38s.27.88-.1,2.13c-2.75,9.73-5.86,19.25-10.24,27.92a56.74,56.74,0,0,1-7.74,11.76,28.9,28.9,0,0,1-4.83,4.31,16.49,16.49,0,0,1-5.28,2.46,13.08,13.08,0,0,1-4.49.44.47.47,0,0,1,0,.16.67.67,0,0,1-.42.56,7.82,7.82,0,0,0,1.35.08,7.6,7.6,0,0,0,1.35,0l1.35-.11,1.38-.31c5-1.94,9.28-6.43,13.62-12a102.44,102.44,0,0,0,7.91-11.87,165.66,165.66,0,0,0,6.27-17.25,1.22,1.22,0,0,1,.26-.55c.08-.07.09.08,0,.32-.54,2.07-1,4.19-1.7,6.26s-1.27,4.2-2,6.26c.45-.57.85-.86,1.09-.71s.28.74.13,1.58l1.17-2.79c.22-.58.49-1,.62-.94s.07.57-.14,1.13c-.79,1.9-1.55,3.82-2.38,5.7s-1.66,3.75-2.64,5.54a68.73,68.73,0,0,1-7.28,12.61,3.09,3.09,0,0,1,1.47-.66h0l1.32-1.85A124,124,0,0,0,578.37,572c2.47-6.7,4.64-13.59,6.68-20.57.08-.28.19-.49.25-.48s0,.23,0,.48l-1.86,6.31-2,6.24v0c.09-.15.17-.16.15,0a1.68,1.68,0,0,1-.22.64c-.11.18-.17.14-.15,0a163.08,163.08,0,0,1-9,22.27,140.39,140.39,0,0,0,9-20.16l.6-2.37a1.28,1.28,0,0,1,.26-.55c.06,0,.08.13,0,.36s-.1.44-.16.66c.47-1.32,1-2.28,1.33-2.16s.2,1.42-.29,2.8c-.62,1.86-1.23,3.73-1.88,5.57s-1.37,3.67-2.12,5.48l-.45,1.19-.36,1.24c1.33-2.75,2.47-5.58,3.63-8.39s2.17-5.69,3.1-8.57c.14-.5.36-.9.47-.88s.09.46-.06,1a154.22,154.22,0,0,1-4.8,15.48,90,90,0,0,1-7.07,15,55,55,0,0,1-5.6,10.24l1.05-1.12c4.39-4.87,6.92-10.14,9.07-15.31s3.68-10.43,5.47-15.91c.08-.28.21-.49.28-.5s.06.2,0,.47c-1.71,5.37-3.06,10.41-5.27,15.72a94.25,94.25,0,0,1-6.33,12.53,64.53,64.53,0,0,0,6.64-12c.82-2.06,1.72-4.08,2.42-6.16.38-1,.75-2.06,1.13-3.1s.69-2.08,1-3.12a3.25,3.25,0,0,1,.42-.93.35.35,0,0,1,0-.24c.24-1.08.5-2.25.79-3.44a1.46,1.46,0,0,1,.26-.6C584.9,568.94,584.91,569.1,584.86,569.36ZM472.5,604l-.14,0h.4l.84.5Zm-3.34,5.71h0l-.49-.26Zm57.39-16.84A106,106,0,0,0,511,589.64c1.3,0,2.6,0,3.9.18A61.88,61.88,0,0,1,526.55,592.88Zm-59.26,10.45a7.68,7.68,0,0,1,2,.6,3.32,3.32,0,0,1,.91-.66,20.68,20.68,0,0,1,2.81-1.18c-.26-.2,0-.28.06-.37l.29-.23c-1,.3-2.09.6-3.16.93S468.27,603.13,467.29,603.33Zm-5.48,5-.14,0-.12-.48Zm.22.8.16,0C462.25,609.25,462.17,609.23,462,609.12Zm1.45-.32a1.51,1.51,0,0,0-.3-.09Zm8.67,10.4-.95-2.14.87,2.09Z"/><path d="M664.54,567.5l-.41.3a.74.74,0,0,1,0-.87,6.07,6.07,0,0,0-1.82,5.6,10.44,10.44,0,0,0,2.93,5.24,1.82,1.82,0,0,0,1.89,2,2.36,2.36,0,0,0,2.45-1.78,2.94,2.94,0,0,1,.48-.66,17,17,0,0,0,4.42-5.13l-1.13,1.1a4.55,4.55,0,0,0,.73-1.7l-.7.2a3.59,3.59,0,0,0-.61-5.85,6,6,0,0,0-7.32.68Z"/><path d="M657.09,571.12c.9-1.25,1.86-2.43,2.85-3.59l.44-.21h-1.9l.12,0c1.5,1.2,1.95,3,2.3,4.75l.25.61a1.61,1.61,0,0,0,1,.55,1.69,1.69,0,0,0,1.94-1.15c.06-.29.14-.59.23-.88,1.29-2.15,1.67-5.45-1.45-6.89a6.69,6.69,0,0,0-2.55-.14,2.25,2.25,0,0,0-2.59,1.73,2,2,0,0,0,1.94,2.26l-.31.56-.41-.46c1.06.36,1.22,1.38,1.73,2.14l.21,1.13,3-.57-.33-.58c-.13,0-.32.12-.33.11a16.21,16.21,0,0,1-1.8-3.42l-.94-1.59a1.55,1.55,0,0,0-1.91,0l-.69.66.4-.29c-.79,1.56-1.31,3.24-2.13,4.82a.48.48,0,0,0,.22.7A.62.62,0,0,0,657.09,571.12Z"/><path d="M657.14,565.43c.25-.25.51-.48.48-.86a1.7,1.7,0,0,1-.22-.17l-.55.48C656.47,565.23,656.73,565.43,657.14,565.43Z"/><path d="M657.4,564.4l.22-.2-.28.13s0,0,0,0Z"/><path d="M698.24,687.21c1,1.55,2.15,3,3.22,4.5s2.16,3,3.33,4.44c2.35,2.87,4.62,5.83,7.15,8.58,1.25,1.39,2.47,2.81,3.74,4.18l3.91,4.05c.66.67,1.3,1.36,2,2l2,1.94,4.1,3.9c.38.33.76.54.86.45s-.14-.4-.5-.7a213.72,213.72,0,0,1-15.68-16.06c-2.52-2.74-4.78-5.69-7.11-8.55-1.18-1.42-2.21-3-3.32-4.43l-1.63-2.23c-.55-.73-1.08-1.48-1.58-2.25-.28-.41-.59-.68-.73-.65S698,686.82,698.24,687.21Z"/><path d="M780.41,766.93c-.37-.09-.41,0-.08.24a4.19,4.19,0,0,0,1.19.55c.31.07.35-.05.07-.25A4,4,0,0,0,780.41,766.93Z"/><path d="M774,772.74c-1.08-.38-2.13-.76-3.15-1.1s-2-.71-2.92-1a4.61,4.61,0,0,1-1-.47c0,.21-.41.16-1.19-.13-3.86-1.38-7.68-3-11.57-4.73-2-.82-3.84-1.8-5.78-2.71s-3.9-1.83-5.79-2.88l-5.76-3.06c-1.93-1-3.79-2.18-5.7-3.27-3.83-2.14-7.5-4.57-11.24-6.88a1.61,1.61,0,0,1-.89-.07,18.11,18.11,0,0,1-5.37-3.19L712.2,742c-1.53-1.19-3-2.52-4.43-3.77s-2.93-2.52-4.37-3.81l-4.23-4c-1.41-1.32-2.82-2.64-4.15-4a44.61,44.61,0,0,1-4.24-3.41c-1.35-1-2.64-2.11-3.93-3.2s-2.59-2.21-3.89-3.31-2.55-2.29-3.81-3.46l-3.78-3.59c.18.42.21.73.06.86-.45.19-1.84-.74-3-2.23l-1.87-2.18,2.51,3.27c.84,1.08,1.73,2.11,2.59,3.17.26.3.49.59.68.86l3,3.35c1,1.11,2.14,2.16,3.23,3.24a204.55,204.55,0,0,0,30.27,24.54,253.44,253.44,0,0,0,32.33,18.22,4.05,4.05,0,0,1,1.18.7c.16.19.06.28-.36.11-14.32-5.8-27.27-10.83-42.33-20.75A235,235,0,0,1,677.9,723a226.53,226.53,0,0,1-23.54-23.81,336.09,336.09,0,0,1-19.66-29.06c-1.45-2.53-3-5-4.41-7.62l-4.2-7.87c-1.33-2.68-2.61-5.42-3.93-8.19-.33-.69-.67-1.38-1-2.08s-.61-1.42-.91-2.14q-.9-2.15-1.81-4.31c-.41-1-.82-2-1.22-2.94s-.74-2-1.11-3c-.71-2-1.43-4-2.14-6l-.53-1.49L613,623l-.92-3c-.61-2-1.22-4-1.8-6.06l-.38-1.54-.19-.76-.08-.29-.32-1.07-.6-2.12c-.38-1.42-.76-2.84-1.15-4.25a165.94,165.94,0,0,1-3-17.45,8.61,8.61,0,0,1,.7-6.07,6,6,0,0,1,4.23-3.18,6.44,6.44,0,0,1,5.84,2.31c0-.35,0-.7,0-1l.37-1.66a6,6,0,0,1,2.43-3.7l1.5-1.12c2.84-1.47,5.43-3.79,8.53-4.85l1.16.31.34-.26a5.55,5.55,0,0,1,3.21-1.59l1.41.15a14.48,14.48,0,0,1,4.51,1.52,5,5,0,0,1,1.73.31,7,7,0,0,1,4.65-.21,1,1,0,0,1,1.38.17,1,1,0,0,1,.19.49h0c.38-.17.49-.23.92-.46a5.18,5.18,0,0,1,.25-.52c.3-.88.3-.88.59-1.64a4.59,4.59,0,0,1,1.25-1c2.58-.57,2.58-.56,3.67-.38a2.85,2.85,0,0,1,.3.16,8.17,8.17,0,0,1,.56-.73,2.69,2.69,0,0,1,.44-.24c.59,0,.59,0,.81-.06a2.88,2.88,0,0,1,.45,0c.63.36.63.36.81.38a2.33,2.33,0,0,1,.31.2l.27.59-1.59.69.52.2-.71.14.64-.07-.42.38.6-.42a3.41,3.41,0,0,0-.31,1.3,1.45,1.45,0,0,0,0,.77,1.8,1.8,0,0,1,.35,0c-.33,1-.33,1-.67,2l-.44.21a.41.41,0,0,1,.19.48l-.15.52a1,1,0,0,1,.08.11h0c.1.18.18.3.26.44l.06.09h0c.17.3.46.75,1.22,1.89a5.34,5.34,0,0,1-.32.85c.1-.08.19-.17.29-.24s.76,0,.81-.1a44.51,44.51,0,0,0,2.75-6.58.85.85,0,0,1,1.68-.11,13.42,13.42,0,0,1,1.6,7.25,15.25,15.25,0,0,1-.67,3.74,18.4,18.4,0,0,1-.66,1.84c-.22.61-.47,1.22-.75,1.81q-.39,1.86-.69,3.75l.27-.19-.4,1a.43.43,0,0,0,0,.11l1-.81a5.21,5.21,0,0,0,.28-.52,17.65,17.65,0,0,1,1.19-4.2c.51-1.36,1.29-2.69,1.82-4.05a34.54,34.54,0,0,1,2.4-4,.75.75,0,0,1,.86-.53.62.62,0,0,1,.6.7,18.82,18.82,0,0,1-.49,6.89,14.71,14.71,0,0,1-3.16,6.53,4.13,4.13,0,0,1-.83,2.41v0l.79-.6c-.16.65-.82,1-1.06,1.66l1.1-.33c-.49,3.19-.06,6.52-1.2,9.67,0,.12,0,.24-.06.35a16.9,16.9,0,0,1,1.25,1.74c.09.15.18.31.26.47a.81.81,0,0,1,.06.13l.08.36c.05.24.1.48.16.72.17,1,.45,2,.64,3l-.18-2.16c0-.7,0-1.4-.07-2.11.4,1.48.79,2.95,1.19,4.45a45,45,0,0,1,.92,4.73c.83,4.41,1.35,9.22,1.82,13.59.09,1.09.16,2.17.2,3.21s.14,2,.16,3a26.46,26.46,0,0,1-.28,5,201.08,201.08,0,0,0,11,24.89A183,183,0,0,0,696,683.4a2.89,2.89,0,0,1,.81,1.84c-.14.24-.71-.11-1.29-.85-2.15-2.49-4-5.2-6-7.85-1-1.31-1.9-2.71-2.82-4.09l-2.75-4.16c-.89-1.41-1.71-2.86-2.57-4.29s-1.74-2.85-2.5-4.33l-2.34-4.43L675.35,653l-1.07-2.27a160.27,160.27,0,0,0,15.54,30.35c.85,1.2,1.68,2.44,2.61,3.61a42.17,42.17,0,0,1,2.47,3.63l1.63,2.25,1.72,2.17,3.42,4.33c1.18,1.41,2.39,2.78,3.58,4.16s2.38,2.79,3.67,4.1,2.53,2.66,3.81,4,2.65,2.58,4,3.88,2.68,2.6,4.12,3.82l4.34,3.71c1.24,1.08,2.52,2.06,3.78,3l3.73,2.92c2.48,1.89,5,3.65,7.5,5.46s5.12,3.42,7.72,5.16,5.36,3.31,8.18,5C764,747,771.89,751,779.79,754.82s16,7.27,24.46,10.78c2.29.84,4.29,2,4.41,2.52s-1.66.27-4-.56c-9-3.24-17.91-6.83-26.59-10.84a278.16,278.16,0,0,1-25.32-13.51,216.09,216.09,0,0,1-23.72-16.57,183.13,183.13,0,0,1-21.49-20.08c-1.49-1.54-2.81-3.2-4.2-4.79s-2.76-3.16-4-4.82a.5.5,0,0,1-.13.25c-.27.24-.77.15-1.4-.19.74.93,1.44,1.9,2.21,2.82l2.3,2.76c1.54,1.85,3,3.75,4.68,5.53,9.75,9.29,20.18,17.8,31.49,26.76,7.81,6.1,15,11.6,22.69,16.82a299.29,299.29,0,0,0,31.94,15,2.75,2.75,0,0,1,1,.53c.13.15-.14.14-.6,0-1.93-.66-3.85-1.39-5.8-2.1L784.82,764c-1-.37-1.92-.78-2.89-1.18l-5.82-2.41-5.76-2.63c1,.91,1.57,1.64,1.28,2s-1.42.27-3-.19l5.16,2.68c1,.57,1.83,1.12,1.71,1.31s-1.08,0-2.09-.56c-3.52-1.82-7.08-3.56-10.5-5.53-1.73-1-3.47-1.9-5.17-2.91l-5.08-3.05a249,249,0,0,1-23.89-15.39,6.35,6.35,0,0,1,1.45,2.67h0l3.58,2.6a365.87,365.87,0,0,0,73.9,35.72c.51.18.91.4.89.49s-.44,0-.9-.14c-3.94-1.45-7.91-2.8-11.79-4.38-1.94-.77-3.91-1.47-5.83-2.3l-5.77-2.42,0,0c.29.19.3.32-.07.24a4.49,4.49,0,0,1-1.2-.5c-.33-.22-.25-.31.06-.25A377.58,377.58,0,0,1,742,747,329.31,329.31,0,0,0,779.2,767.5c1.47.51,2.9,1.09,4.4,1.57a3,3,0,0,1,1,.57c.07.12-.25.1-.67,0l-1.24-.42c2.46,1.08,4.21,2.28,4,2.75s-2.65-.07-5.23-1.17c-6.91-3-13.74-6.1-20.35-9.65l-2.2-1.05-2.29-.92a284.93,284.93,0,0,0,31.26,15.65c.93.37,1.66.83,1.61,1s-.85,0-1.78-.36a263.28,263.28,0,0,1-28.59-12,250.55,250.55,0,0,1-27.35-15.48c-3.15-1.53-6.22-3.21-9.39-4.82s-6.21-3.47-9.36-5.27c.68.59,1.41,1.13,2.14,1.69,2.32,1.74,4.57,3.48,6.9,5s4.65,3,7,4.5,4.69,2.72,7,4,4.71,2.49,7,3.72c9.43,4.77,19,9,29.07,13.4a1.93,1.93,0,0,1,.93.58c0,.11-.37.05-.89-.18-9.92-4.23-19.08-8.05-28.72-13l-5.89-3.11c-1.93-1-3.8-2.14-5.69-3.19l-2.82-1.58c-.93-.53-1.83-1.1-2.75-1.64l-5.48-3.22,5.32,3.56c.89.58,1.77,1.18,2.67,1.74l2.71,1.63c1.81,1.08,3.61,2.16,5.43,3.21l5.51,3,2.75,1.48,2.8,1.4,5.58,2.79,5.67,2.65,2.84,1.34,2.88,1.26a7.11,7.11,0,0,1,1.7.93c.06,0,.22,0,.44,0,2,.65,4.15,1.48,6.36,2.24a3.1,3.1,0,0,1,1.1.59C774.76,772.91,774.47,772.89,774,772.74ZM650.29,581.17l.2-.14-.32.49-1.34.73Zm-5-8.34h0l.77-.38Zm32.43,88.49c-1.73-3.67-3.57-7.27-4.93-11.06-.71-1.88-1.47-3.73-2-5.65s-1.15-3.83-1.67-5.75l2.23,5.34c.93,2.88,2,5.7,3,8.59S676.54,658.45,677.67,661.32Zm-22.16-85.77a13.38,13.38,0,0,1-2.54,1.88,4,4,0,0,1,.16,1.5c-.17,1.39-.22,2.74-.44,4.08.47-.2.42.12.49.28l.13.5c.3-1.44.59-2.87,1-4.31A28.82,28.82,0,0,1,655.51,575.55Zm-1.38-9.77.19-.11.72.3Zm-1.22-.48-.12.2C652.52,565.41,652.63,565.35,652.91,565.3Zm-1.06,1.81a2,2,0,0,0,.42-.24Zm-21.72.56,3.65.94-3.5-1Z"/><path d="M665.61,714.23l-.49-.27a1,1,0,0,1,.93-.38c-4.81-1.88-9.21,1.33-11.39,5a2,2,0,0,0-1.61,2.5,2.44,2.44,0,0,0,2.73,1.7,3.2,3.2,0,0,1,.9.21,20.75,20.75,0,0,0,7.34,2.38l-1.67-.69a6.1,6.1,0,0,0,2.21.09l-.47-.58a4.75,4.75,0,0,0,6.4-2.87,5.58,5.58,0,0,0-3.62-6.62Z"/><path d="M659,708.63c1.61.37,3.19.81,4.78,1.29l.4.33-.72-1.79,0,.13c-.69,1.86-2.47,3-4.15,4l-.57.45a1.45,1.45,0,0,0-.24,1.11,1.77,1.77,0,0,0,1.91,1.44l1-.11c2.77.36,6.56-.56,6.84-4a6,6,0,0,0-.87-2.45,2.44,2.44,0,0,0-2.82-1.78A2.13,2.13,0,0,0,663,709.9l-.7-.07.33-.57c0,1.14-1,1.68-1.61,2.46l-1.12.64,1.67,2.56.51-.53c-.09-.11-.25-.26-.24-.27a19.29,19.29,0,0,1,3-3l1.32-1.48a1.45,1.45,0,0,0-.71-1.8l-1-.4.46.26c-1.94-.15-3.87,0-5.8-.15a.55.55,0,0,0-.64.48A.6.6,0,0,0,659,708.63Z"/><path d="M665,706.49a1.34,1.34,0,0,0,1.07.13c.05-.16.08-.23.09-.28l-.71-.32C664.89,705.78,664.79,706.11,665,706.49Z"/><path d="M666.11,706.34l.3.14a2.61,2.61,0,0,1-.24-.22l0,0Z"/><path d="M572.23,745.69c-8.67,3.42-17.23,7.23-25.66,11.31-.29.14-.48.33-.43.44s.31.08.57-.06c8.45-4,17-7.82,25.64-11.22.29-.12.48-.31.46-.44S572.51,745.58,572.23,745.69Z"/><path d="M504.93,770c.15-.19.09-.27-.15-.19a1.61,1.61,0,0,0-.65.43c-.12.16-.05.25.15.19A1.54,1.54,0,0,0,504.93,770Z"/><path d="M502.36,762.58a31.79,31.79,0,0,0,2.74-2.66,1.58,1.58,0,0,1,.52-.36c-.15-.09,0-.35.34-.69,7-6.67,15.21-13.06,23.29-19.39a1.07,1.07,0,0,1,.13-.61,6.78,6.78,0,0,1,2.68-2.52l1-.52c3.88-2.23,7.76-4.46,11.7-6.55a15.63,15.63,0,0,1,2.44-2c3-2.57,6-5.16,9.16-7.63a.59.59,0,0,1-.59-.24c-.15-.44.48-1.22,1.4-1.77l1.38-.87-4.15,2.13a4.65,4.65,0,0,1-.57.26q-2.19,1.3-4.38,2.77c-6.4,4.25-12.36,8.75-18.07,13.36s-11.17,9.31-16.52,14.06a1.55,1.55,0,0,1-.68.43c-.16,0-.2-.11,0-.3,6.3-6.68,11.31-13.35,19.05-20.3,9.23-8.25,18.59-16.23,28.73-24,11.18-7,21.19-14.29,32.64-21.81q6.36-4.17,12.73-7.94c6.63-4.22,13.34-7.85,20.32-11.41,3.45-2.26,7.69-1.44,9.41,1.77A6.88,6.88,0,0,1,637,672l.9-.36,1.55-.21a5.58,5.58,0,0,1,4.06,1.08l1.51,1c2.3,2.22,5.25,3.73,7.35,6.27l.15,1.2.37.23a5.66,5.66,0,0,1,2.64,2.43l.39,1.38a14.2,14.2,0,0,1,.26,4.81,5,5,0,0,1,.35,1.74,7,7,0,0,1,1.93,4.29,1,1,0,0,1-.06,1.73h0a9.76,9.76,0,0,0,.79.68c.38,0,.61,0,.61,0,1,0,1,0,1.84-.06a4.75,4.75,0,0,1,1.48.8c1.58,2.21,1.58,2.22,1.82,3.3,0,.12,0,.23,0,.34l1,.25a2.56,2.56,0,0,1,.42.33c.22.56.22.56.39.73a2.81,2.81,0,0,1,.17.43c-.11.72-.11.72-.06.91a1.78,1.78,0,0,1-.08.36l-.5.47L664.83,705v.56l-.42-.61.32.58-.55-.25.67.4a3.78,3.78,0,0,0-1.46.2,1.72,1.72,0,0,0-.78.32,2.39,2.39,0,0,1,.15.32l-2.27.12a4,4,0,0,1-.38-.32.45.45,0,0,1-.42.36l-.58.06-.09.12,0,0-.36.42-.07.1h0l-1.54,1.81a5.55,5.55,0,0,1-1,0l.36.19c.24.14.27.71.38.73a41.14,41.14,0,0,0,7.92.13.92.92,0,0,1,1.15.44.79.79,0,0,1-.39,1.1c-3.91,4.23-10,5.42-15.88,4.76-1.42.14-2.83.32-4.25.51l.29.2-1.18-.07-.12,0,1.13.67.65.1c3.23-.57,6.57.05,9.9.15a42.73,42.73,0,0,1,5.26.87.82.82,0,0,1,.9.63.66.66,0,0,1-.58.8c-4.82,2-10.79,2.92-16,1a4.82,4.82,0,0,1-2.86-.06h-.05l.86.58c-.76,0-1.37-.48-2.1-.55l.64.95c-3.65.4-7.19,1.84-10.9,1.45l-.4,0a21.41,21.41,0,0,1-1.67,1.63c-.15.12-.3.24-.46.35l-.13.09-.21.12-.44.22c-.59.29-1.21.56-1.87.81l2.81-.58a26.36,26.36,0,0,1-5.65,2.62c-5.66,1.8-12.54,2.63-16.55,1.47-10.69,4.42-21.3,9.09-31.63,14.27-.53.28-1.11.34-1.32.16s.07-.58.6-.85c7.17-4.2,14.69-8,22.32-11.59-6.74,2.24-13.46,4.69-20.12,7.61L574,741.48a17.9,17.9,0,0,1-2.57,1,260.36,260.36,0,0,0-24.54,12.55c-6.94,4.14-12.93,7.92-19.65,12.36-9.43,6.25-17.9,12.08-27.48,17.91-1.24.82-2.6,1.3-3,1s.29-1.15,1.53-2c9.54-6.75,19-13.39,28.9-19.73a299.78,299.78,0,0,1,31.07-17.76c2.39-1.14,4.72-2.27,7.06-3.35a.68.68,0,0,1-.18-.2,1.14,1.14,0,0,1,.15-1.1c-2.68,1.2-5.38,2.43-8.12,3.61-7,4.36-14,8.75-21.87,12.74-5.41,2.75-10.5,4.94-15.61,7.38-5.93,3.92-11.75,8-17.67,12a1.18,1.18,0,0,1-.63.29c-.14,0-.06-.18.17-.36,3.84-3.12,7.87-6.2,12-9.22-.85.17-1.48.1-1.66-.29s.11-1.07.77-1.82l-3,1.85c-.62.38-1.19.55-1.29.36s.27-.66.84-1q6-3.84,12.09-7.53,7.05-4.82,14.25-9.39a3.62,3.62,0,0,1-2-.19h0l-2.26,1.39c-13.09,9.53-26.63,18.89-40.41,28.23-.26.19-.53.28-.58.21s.1-.27.35-.43l12.4-8.5h0c-.2.07-.3,0-.15-.18a1.81,1.81,0,0,1,.64-.45c.23-.07.28,0,.15.19q11.49-7.93,22.64-16l-21.44,13.7-2.1,1.86a1.19,1.19,0,0,1-.65.28c-.1,0,0-.21.2-.38l.6-.51c-1.35.87-2.61,1.24-2.87.82s.69-1.58,2.08-2.52q5.44-3.93,11-7.65l1.16-.87,1.07-1c-5.92,3.63-11.8,7.32-17.56,11.1-.49.34-1,.52-1.09.38s.19-.53.68-.88c9.49-7.65,19.39-15,29.62-22.1l8.95-9.06-1.36.84a141.6,141.6,0,0,0-15.36,11.69c-4.78,4-9.43,8.09-14.65,12-.25.21-.52.3-.61.25s.05-.26.32-.46c5-3.91,9.38-7.91,14.32-11.95,4.08-3.37,8-6.52,11.73-9.81-8.24,5.71-15.58,12-23.4,18.09a2.93,2.93,0,0,1-1,.57c0,.06,0,.15-.13.25-.86.92-1.85,1.86-2.88,2.79a1.23,1.23,0,0,1-.66.34C502.08,763,502.16,762.8,502.36,762.58Zm144.07-56.93.21.14-.6-.16-1.15-1Zm6.7-7.6h0l.66.61Zm-63.54,36A90,90,0,0,1,604,729.15l-3.33,1.53Zm64.28-25.34a13.45,13.45,0,0,1-2.78-1.76,4.31,4.31,0,0,1-1.49.68c-1.45.37-2.9.64-4.35.87.35.39,0,.44-.14.55l-.47.28c1.56-.17,3.15-.3,4.78-.39A30.09,30.09,0,0,1,653.87,708.68Zm9.55-4.88.18.13,0,.79S663.51,704.33,663.42,703.8Zm0-1.33-.25,0C663.18,702.14,663.28,702.22,663.44,702.47Zm-2.24-.32a1.58,1.58,0,0,0,.41.3Zm-8.6-20.21.47,3.79-.35-3.68Z"/></svg>