<svg id="Layer_1" data-name="Layer 1" xmlns="http://www.w3.org/2000/svg" viewBox="0 0 1080 1076.14"><path d="M529.85,819.71l.65,0c-.08.35-.44.63-.93.87a13.8,13.8,0,0,0,7.43-3.88,20.64,20.64,0,0,0,4.42-6.37c1.38-.73,2.06-2.06,1.55-3s-2.14-1.13-3.59-.39a5.71,5.71,0,0,1-1.14.2,27.85,27.85,0,0,0-9.61,1.45l2.26-.24a10.75,10.75,0,0,0-2.8,1.08l.73.28c-3.68.58-7,3.5-7.09,6.43s3,4.61,6.52,3.88Z"/><path d="M538.89,821.39c-1.85.44-3.68.85-5.59,1.26l-.55-.09,1.4,1.23-.06-.1c.1-2,1.67-4.05,3.3-5.71l.5-.68a1.25,1.25,0,0,0,0-1.13,1.87,1.87,0,0,0-2.56-.39l-1.16.62c-3.25,1.05-7.42,4.1-6.43,7.43.24.76,1.21,1.17,1.91,1.7a2.85,2.85,0,0,0,3.73,0c1.21-.91,1.57-2.35.8-3.28l.79-.3c-.06.22-.11.45-.17.68-.41-1,.52-2,1-3.06l1.06-1.13-2.61-1.5-.42.75a3.07,3.07,0,0,1,.35.12,33.78,33.78,0,0,1-2.36,4.32c-.31.69-.62,1.38-.92,2.08a1.22,1.22,0,0,0,1.45,1.22l1.17-.17-.59,0c2.13-.93,4.13-2,6.22-2.83a.7.7,0,0,0,.53-.74A.54.54,0,0,0,538.89,821.39Z"/><path d="M533.33,826.33a2,2,0,0,0-1.19.49c0,.17,0,.26,0,.3l.88-.1C533.66,827,533.65,826.59,533.33,826.33Z"/><path d="M532.15,827.12l-.37,0,.35.07,0-.06Z"/><path d="M588.67,963.56l-.32.9a4.83,4.83,0,0,1-.24.5l-.46.9c-.34.6-.54,1.22-.82,1.84a30.22,30.22,0,0,0-1.32,3.86,17.14,17.14,0,0,0-.6,4.11,8.42,8.42,0,0,0,.9,4.07,6.47,6.47,0,0,0,3.11,2.71,12.34,12.34,0,0,0,4.09.9,30.32,30.32,0,0,0,4.26-.05l2.15-.19,4.91-.58c.85-.1,1.54-.33,1.56-.52s-.67-.23-1.45-.12l-5,.58-2.05.18a30.61,30.61,0,0,1-4.06,0,12,12,0,0,1-3.89-.83,6.24,6.24,0,0,1-3-2.54,7.66,7.66,0,0,1-.9-3.84,15.57,15.57,0,0,1,.55-3.91,27.66,27.66,0,0,1,1.25-3.66c.26-.58.46-1.17.76-1.74l.44-.85.22-.42a3.34,3.34,0,0,0,.14-.38l.16-.44a2.81,2.81,0,0,0,.19-1.43C589.15,962.54,588.89,963,588.67,963.56Z"/><path d="M734.16,984.57c-.54-.57-.63-.46-.25.24a14.37,14.37,0,0,0,1.48,2.2c.41.49.54.38.25-.24A11.71,11.71,0,0,0,734.16,984.57Z"/><path d="M721.87,986.62a26.88,26.88,0,0,0-8.34-5,7.27,7.27,0,0,1-1.34-.66c.06.28-.58.24-1.64-.07-5.26-1.41-10.7-.67-16.9,1.42-.78.25-1.56.55-2.36.85l-2.45.95-2.45,1L684,986.18c-3.25,1.49-6.49,3.15-9.75,4.93-6.53,3.56-13.1,7.65-20.14,11.81l-2.69,1.57c-1,.54-1.89,1.09-2.86,1.61-1.93,1.06-3.91,2.06-5.91,3a130.06,130.06,0,0,1-12.43,5.26,3.41,3.41,0,0,1-1.26,1.1c-2.18,1.44-7,3.21-12.11,4.12-1.29.22-2.58.39-3.87.57-1.92.29-4,.56-5.65.77l-2.83.34c-1.26.17-2.53.3-3.8.42a101.69,101.69,0,0,1-15,.6,56.11,56.11,0,0,1-14.25-2.34,35.39,35.39,0,0,1-12.4-6.58,18.46,18.46,0,0,1-2.41-1.83,19.86,19.86,0,0,1-2.34-2.26l-1.1-1.29c-.36-.44-.67-.93-1-1.41s-.67-1-1-1.46l-.84-1.6a36.61,36.61,0,0,1-4.07-11.41c-.19-1-.36-2-.49-3.06a24.42,24.42,0,0,1-.32-3.12,51.74,51.74,0,0,1,.07-6.46,66,66,0,0,1,2.4-13.41c.63-2.27,1.57-4.43,2.4-6.66l1.29-3.34c.11-.28.21-.57.33-.83l.42-.78.86-1.55c-.78,1-1.36,1.53-1.59,1.44-.18-.25.21-1.37,1-3,.39-.82.88-1.77,1.44-2.8l.44-.79a7.55,7.55,0,0,1,.45-.74l.89-1.31,1.86-2.66.93-1.31,1-1.24a42.37,42.37,0,0,0-2.88,3.65l-1.39,1.89-.69,1c-.23.32-.51.79-.76,1.18-2,3.31-4.3,6.45-5.75,10.18-.46,1-.91,2-1.34,2.88a45.35,45.35,0,0,0-2.3,6.11,64.35,64.35,0,0,0-1.62,6.28,60,60,0,0,0-1.31,12.55,54.37,54.37,0,0,0,1.92,12.93c.36,1,.68,2,1.06,3l1.26,2.94,1.55,2.81c.58.9,1.22,1.77,1.82,2.66s1.34,1.69,2,2.53,1.53,1.52,2.3,2.28a28.65,28.65,0,0,0,2.46,2.07,23.93,23.93,0,0,0,2.63,1.85,43.88,43.88,0,0,0,11.69,5c8.23,2.18,17.17,2.2,26,1.17,2.2-.27,4.39-.58,6.56-.91.54-.06,1.09-.18,1.62-.27l1.39-.24,2.18-.42,4.59-.92c1.58-.36,3.16-.7,4.74-1.11a128.27,128.27,0,0,0,18.54-6.15,133.5,133.5,0,0,0,17-8.67c10-6.06,18.71-12,27.65-16.66a7.22,7.22,0,0,1,2.1-.86c.4,0,.4.18-.24.53a184.66,184.66,0,0,0-15.91,10.6l-8.08,5.91-4.26,3c-1.57,1.08-3.17,2.15-4.82,3.19a122.24,122.24,0,0,1-34.52,15c-1.07.29-2.15.55-3.23.81l-3,.72-1.48.33-.76.17-.48.09-.6.11c-1.61.35-3.27.56-4.93.84-2,.32-4,.57-6,.85s-4,.39-6,.46l-3,.14c-1,.06-2,0-3,0s-2,0-3-.1l-2.91-.25c-1-.07-1.93-.22-2.88-.37s-1.91-.29-2.85-.49a54.6,54.6,0,0,1-5.52-1.45,47.5,47.5,0,0,1-10.35-4.62l-2.39-1.56-2.25-1.76a27.82,27.82,0,0,1-2.16-1.89l-1-1-.26-.25-.07-.06c-.09.05-.06,0-.09,0l-.12-.13-.47-.54a45.09,45.09,0,0,1-6.57-9.27,44.12,44.12,0,0,1-4-10.59c-.43-1.87-.78-3.77-1.12-5.67a17.63,17.63,0,0,1-.32-2.93c0-1-.18-2-.14-3A63.27,63.27,0,0,1,535,973.58,59.81,59.81,0,0,1,538.55,961l2.55-6.17.64-1.55.33-.78c.11-.25.27-.47.4-.71l1.7-2.82,1.7-2.82.86-1.42.43-.71c.14-.23.29-.49.4-.64q1.44-2.08,2.91-4.13c.5-.67,1-1.37,1.5-2l1.63-1.91,1.64-1.89c.55-.63,1.1-1.25,1.68-1.81q1.73-1.73,3.47-3.39c1.17-1.09,2.34-2,3.52-3a147.15,147.15,0,0,1,13.32-9.56c4.35-2.72,8.31-5.15,11.79-7.81,1.82-1.3,3.42-2.7,5.07-4.11.85-.68,1.56-1.45,2.34-2.2s1.53-1.49,2.27-2.26c1.41-1.61,2.82-3.21,4.16-4.89s2.6-3.49,3.78-5.21a51.86,51.86,0,0,0,5.46-10.49,41.55,41.55,0,0,0,2.64-11.09,35.09,35.09,0,0,0-.6-10.86l-.28-1.31c-.11-.42-.25-.83-.37-1.25-.22-.83-.55-1.65-.82-2.46a32.38,32.38,0,0,0-2.2-4.69,30.24,30.24,0,0,0-6-7.63,12.54,12.54,0,0,0-4.15-2.62,2.67,2.67,0,0,0-.79-.18l-.16,0-.11,0a1,1,0,0,0-.2.08c-.25.12-.49.27-.82.42a6,6,0,0,1-1.58.43,12.45,12.45,0,0,0-1.85.19,9.82,9.82,0,0,0-1,.32,22.38,22.38,0,0,0-4.07,2c-.33.2-.7.48-1,.7-.17.11-.35.25-.53.38l-.12.1-.38.33-.77.7c-.25.22-.51.48-.77.73s-.51.48-.77.76c-1,1-2.09,2.12-3.14,3.31s-2.09,2.46-3.13,3.82c-1.27,2.37-4.06,2.58-6.47.3a7.66,7.66,0,0,1-2.3-5.35l-.5.51-1,.57a3.94,3.94,0,0,1-3.27.23l-1.51-.42c-2.57-1.19-5.42-1.44-8.19-2.82l-.65-1-.38-.05a5.63,5.63,0,0,1-3.2-1l-.93-1a12.35,12.35,0,0,1-2.28-4,4.67,4.67,0,0,1-1-1.37,6.37,6.37,0,0,1-3.48-2.9.87.87,0,0,1-.85-1,1.11,1.11,0,0,1,.25-.51h0a7,7,0,0,0-1-.24c-.37.17-.6.25-.6.25l-1.75,1a6,6,0,0,1-1.77,0c-2.48-1.13-2.5-1.12-3.19-2a3,3,0,0,1-.1-.32c-.8.23-.86.25-1.08.3a3,3,0,0,1-.57-.06c-.46-.37-.46-.37-.71-.43a2.92,2.92,0,0,1-.36-.28c-.18-.71-.18-.71-.31-.84a2.1,2.1,0,0,1-.06-.37l.35-.7,1.89.35-.21-.5.68.31-.56-.34.67-.07h-.85a6.5,6.5,0,0,0,1.46-1,2.42,2.42,0,0,0,.7-.7,2.35,2.35,0,0,1-.27-.2c1.18-.65,1.17-.66,2.34-1.26.19,0,.35.07.51.11a.57.57,0,0,1,.33-.54l.59-.32.05-.15,0,0c.1-.22.17-.37.24-.54l.05-.12h0c.17-.38.42-.92,1.12-2.35a8.76,8.76,0,0,1,1.08-.44h-.44c-.29,0-.48-.52-.61-.49a42.84,42.84,0,0,0-8.68,3.81,1.2,1.2,0,0,1-1.42.24.76.76,0,0,1,0-1.21c2.9-6,10-10.14,16.87-11.72l4.94-2-.36-.08,1.41-.32.14-.05-1.39-.26c-.26,0-.53.07-.78.12-3.79,1.61-7.79,2.36-11.74,3.76-2.12.75-4.25,1.08-6.41,1.7a.94.94,0,0,1-1.23-.12c-.2-.31,0-.79.5-1,5.27-4.31,12.77-7.77,19.35-7.69a8.06,8.06,0,0,1,3.56-.83l.06,0-1.07-.28a17.81,17.81,0,0,1,2.62-.08l-.77-.71c2.29-.7,4.65-1.53,7-2.22a25.84,25.84,0,0,1,7.22-1.15,4.75,4.75,0,0,1,.53-.05,19.3,19.3,0,0,1,2.63-1.54l.72-.33.23-.09,1.06-.26,2.21-.45a57.92,57.92,0,0,1,9.51-1c-1.14,0-2.27,0-3.38.09s-2.23.14-3.32.27-2.21.23-3.28.4l-1.63.25-1.42.26,0,0,.19-.05.42-.11.86-.2,1.74-.37c1.14-.25,2.34-.42,3.53-.61a58.41,58.41,0,0,1,7.33-.63c1.25,0,2.53,0,3.79,0s2.56.18,3.85.29l1.94.27,1,.15.49.07.24,0,.13,0,3.32.69A46.7,46.7,0,0,1,615,800a44.63,44.63,0,0,1,5.42,3.36c.8.61,1.58,1.22,2.35,1.84s1.42,1.27,2.12,1.91a54.71,54.71,0,0,1,11.54,16.29,61.08,61.08,0,0,1,4.89,15.35,53.48,53.48,0,0,1,.92,11.9,76.83,76.83,0,0,1-.35,16.83,93,93,0,0,1-3.61,16,108.53,108.53,0,0,1-6.13,14.93c-.62,1.18-1.21,2.39-1.87,3.55l-1,1.75-1,1.65-2,3.3c-.65,1.11-1.32,2.21-2,3.28-2.8,4.33-5.75,8.65-8.9,12.79L613,927.91l-2.41,3-1.21,1.53-1.21,1.46-2.41,3c-3.15,3.83-6.23,7.56-8.76,11a56.34,56.34,0,0,0-5.79,9.93c-.54,1.32-1.09,2.35-1.44,2.41s-.17-1,.33-2.34c.46-1.16,1-2.32,1.58-3.52s1.34-2.39,2.06-3.62,1.61-2.47,2.53-3.75,1.87-2.55,2.93-3.89c4.15-5.25,9-10.9,13.55-16.79a200.26,200.26,0,0,0,12.67-18.44l2.83-4.76c1-1.66,1.85-3.36,2.71-5.07a102.94,102.94,0,0,0,4.6-10.61c-1.16,3-2.5,5.95-3.94,8.82-.72,1.44-1.49,2.85-2.26,4.26l-1.21,2.08-1.23,2c-1.63,2.62-3.24,5.26-5.06,7.8-.9,1.28-1.73,2.61-2.67,3.85L616.38,920c-3.81,5-7.88,9.85-12,14.41s-8,8.91-11.2,13.11L592,949.17c-.37.54-.7,1.07-1,1.61l-1,1.59c-.33.53-.58,1.07-.88,1.59-.56,1-1.18,2-1.63,3.07l-.75,1.49-.39.73L586,960l-.75,2c-.12.3-.26.7-.36.91l-.28.61c-.36.81-.78,1.61-1.05,2.43a46.7,46.7,0,0,0-1.63,5,26.18,26.18,0,0,0-.84,5.12,12.41,12.41,0,0,0,.7,5.1,7.46,7.46,0,0,0,3.29,3.88,12,12,0,0,0,5,1.44,27.21,27.21,0,0,0,5.26-.12c.87-.1,1.73-.22,2.6-.37l1.28-.22c.47-.08.68-.15,1.77-.31,3.3-.52,5.81-.94,8.49-1.51s5.19-1.2,7.66-1.93a101,101,0,0,0,14.34-5.46c2.38-1.13,4.57-2.25,7.3-3.69l8.2-4.34c5.66-3,11.76-6.07,18.55-9a130.36,130.36,0,0,1,14.84-5.35,77.79,77.79,0,0,1,17.55-3.29,52.21,52.21,0,0,1,20.77,3,49.76,49.76,0,0,1,9.47,4.7,60.74,60.74,0,0,1,7.64,5.8,63.48,63.48,0,0,1,6.51,6.86,69.18,69.18,0,0,1,5.06,7.27,100.09,100.09,0,0,1,6.82,13.9l1.31,3.28c.45,1.14.92,2.37,1.35,3.56.87,2.4,1.63,4.85,2.34,7.31a112.25,112.25,0,0,1,3.16,15,55.82,55.82,0,0,1,.6,7.35,12,12,0,0,1-.36,3.82c-.44.71-1-3.09-1.75-8.4a110,110,0,0,0-3.43-15.43q-1.12-3.81-2.53-7.55c-.47-1.25-1-2.49-1.48-3.71l-1.46-3.46a104.24,104.24,0,0,0-7.43-14.39,58.11,58.11,0,0,0-12.38-14.13c-1.25-1.06-2.58-2-3.9-2.94l-2-1.32c-.66-.44-1.5-.89-2.25-1.31a46.2,46.2,0,0,0-9.94-4,50.63,50.63,0,0,0-20.4-1.14,74.36,74.36,0,0,0-8.85,1.8c-1.37.36-2.64.73-4,1.11s-2.59.79-3.86,1.23A155.28,155.28,0,0,0,662.23,965c-4.69,2.13-9.15,4.38-13.47,6.62l-6.35,3.31-3.09,1.61L636.38,978a100.89,100.89,0,0,1-23.21,8.36c-2,.48-4.08.86-6.16,1.22l-3.2.49-3.43.49a61.32,61.32,0,0,1-7.81.8,26.17,26.17,0,0,1-4-.17,15,15,0,0,1-3.84-.93,9.18,9.18,0,0,1-3.32-2.13,9.38,9.38,0,0,1-1.26-1.55,11,11,0,0,1-.84-1.81,15.6,15.6,0,0,1-.6-6.78,34.13,34.13,0,0,1,1.45-6.59,1.11,1.11,0,0,1-.37.11c-.44,0-.73-.43-.83-1.19a44.17,44.17,0,0,0-2,8.15,25.42,25.42,0,0,0-.18,4.28,15.35,15.35,0,0,0,.89,4.23,9.73,9.73,0,0,0,4.22,4,15.31,15.31,0,0,0,5.71,1.47,48.18,48.18,0,0,0,11.56-.87l1.43-.25L603,989l2.38-.37c.74-.12,1.49-.22,2.23-.37,3-.51,5.89-1.13,8.79-1.84a121.69,121.69,0,0,0,17.26-5.68l3-1.25,3-1.36,6.35-2.9c4.28-1.94,8.62-3.89,13.09-5.7s9-3.54,13.73-5c2.36-.73,4.74-1.43,7.17-2,1.21-.31,2.42-.61,3.65-.87l1.85-.4,1.92-.38a65.07,65.07,0,0,1,10.37-1.7,45.3,45.3,0,0,1,11.38.55,41.93,41.93,0,0,1,11.19,3.65c.89.41,1.72.91,2.57,1.38s1.56,1,2.34,1.46a51,51,0,0,1,4.4,3.26,53.12,53.12,0,0,1,7.59,7.71,68.57,68.57,0,0,1,5.69,8.47c1.63,2.85,3,5.66,4.32,8.43.62,1.38,1.24,2.76,1.83,4.12s1.23,2.88,1.81,4.32a9.24,9.24,0,0,1,.71,2.32c0,.39-.26-.09-.66-1s-.85-2-1.29-3l-1.34-2.88c-.88-1.86-1.82-3.75-2.79-5.66a88.17,88.17,0,0,0-7.08-11.61,57.25,57.25,0,0,0-4.73-5.62,52.23,52.23,0,0,0-5.65-5c-1-.79-2-1.48-3.09-2.2s-2.08-1.34-3.31-2a39,39,0,0,0-7.46-3.14c3.12,1.55,4.59,3,4.09,3.48s-3-.16-6.66-.76a36.57,36.57,0,0,1,6.29,2.44c1,.47,2,1.07,2.94,1.61s1.8,1.15,2.66,1.78c2.16,1.54,3.55,3.14,3.3,3.31s-2-.95-4-2.35c-.86-.62-1.76-1.17-2.66-1.75s-1.9-1.12-2.91-1.57a34.36,34.36,0,0,0-6.23-2.34,38.9,38.9,0,0,0-13.05-1.17,61.73,61.73,0,0,0-12.23,2.25c-3.85,1-7.63,2.31-11.32,3.71a264.16,264.16,0,0,0-25,12.31l-6,3.19c-2,1-3.89,2-5.86,3a112.35,112.35,0,0,1-12.06,4.9,14.75,14.75,0,0,1,5.41.13h0c2.56-1,5.08-2,7.55-3.19,5.55-2.82,11.09-6.16,16.79-9.3s11.54-6.25,17.67-9c3.06-1.36,6.21-2.59,9.42-3.7,1.6-.57,3.23-1.06,4.86-1.56s3.35-.92,5.1-1.28a45.66,45.66,0,0,1,10.86-1,35.34,35.34,0,0,1,11.12,2.12l1.34.51,1.3.58c.88.38,1.7.84,2.54,1.29a48.26,48.26,0,0,1,4.63,3,45.43,45.43,0,0,1,8,7.56c4.65,5.62,7.88,11.85,10.73,17.92,1.41,3,2.84,6.2,4,9.41s2.27,6.48,3.18,9.79a113,113,0,0,1,3.59,20.19,6,6,0,0,1,0,2,4.31,4.31,0,0,1-.33-1.74,112.8,112.8,0,0,0-4.81-24.2,107.28,107.28,0,0,0-4.41-11.58c-1.68-3.72-3.39-7.37-5.41-11l0,.06c.25.63.18.81-.26.22a18.49,18.49,0,0,1-1.28-2.27c-.31-.72-.15-.74.24-.24a57.6,57.6,0,0,0-7-9.69,46.74,46.74,0,0,0-4.41-4.26,47.22,47.22,0,0,0-5-3.6,37.4,37.4,0,0,0-5.55-2.9,36.84,36.84,0,0,0-6.06-1.85,38.45,38.45,0,0,0-12.36-.46,61.68,61.68,0,0,0-11.49,2.6c-3.64,1.14-7.19,2.47-10.66,3.94a202.59,202.59,0,0,0-19.87,10c6-3.14,12.17-6.2,18.56-8.82,3.19-1.32,6.45-2.53,9.77-3.57a78.66,78.66,0,0,1,10.24-2.59,42.57,42.57,0,0,1,10.9-.57,33.77,33.77,0,0,1,10.76,2.73,40.35,40.35,0,0,1,9.22,5.83A43.93,43.93,0,0,1,732,984a64.06,64.06,0,0,1,5.45,7.48,8.21,8.21,0,0,1,.94,2.08c0,.26-.39-.22-.84-.95s-.88-1.45-1.36-2.16c2.6,4.6,3.76,8.46,3.14,8.67-.74,0-3.11-3.68-5.87-8.21-3.76-6-8.58-11.43-14.64-15.08a30.38,30.38,0,0,0-9.68-4,33.38,33.38,0,0,0-10.46-.63,45,45,0,0,0-4.48.76c-1.49.42-2.93.88-4.37,1.41a42.66,42.66,0,0,1,16-1.3,29.05,29.05,0,0,1,7.63,2.08,34.93,34.93,0,0,1,6.85,4A44,44,0,0,1,731,989.77a121.57,121.57,0,0,1,7.64,14.26c.82,1.66,1.3,3.17,1.11,3.3s-1-1.14-1.81-2.79a133.06,133.06,0,0,0-7.13-12.23,46,46,0,0,0-9-10.07,35,35,0,0,0-5.48-3.69,28.11,28.11,0,0,0-5.86-2.45,29.47,29.47,0,0,0-12.6-.59,50,50,0,0,0-6.49,1.48c-2.16.64-4.4,1.41-6.57,2.22a138.11,138.11,0,0,0-12.9,5.64c-4.25,2.09-8.45,4.38-12.69,6.72s-8.47,4.76-13,7.14a126.26,126.26,0,0,1-18.17,9.79,134.83,134.83,0,0,1-20,6.82c1.74-.25,3.55-.51,5.33-.85a110.83,110.83,0,0,0,31.66-11.05c4.84-2.56,9.05-5.19,13.25-7.73s8.26-5,12.35-7.35,8.19-4.48,12.4-6.35a79.77,79.77,0,0,1,12.74-4.6,29.88,29.88,0,0,1,12.48-.65,24.3,24.3,0,0,1,6,1.92,31,31,0,0,1,2.94,1.56l1.43.92c.47.31.92.66,1.39,1a3.43,3.43,0,0,1,1.24,1.29c0,.17-.57-.13-1.28-.71a33.76,33.76,0,0,0-5.54-3.35,22.91,22.91,0,0,0-5.65-1.89,28.47,28.47,0,0,0-11.81.42,52.92,52.92,0,0,0-6.08,1.82q-3.14,1.14-6.26,2.5c-4.15,1.81-8.26,3.89-12.45,6.19-6.94,3.81-13.63,8-20.56,12.22A144.77,144.77,0,0,1,628.84,1012,122,122,0,0,0,652,1001.42c6.86-3.93,13.27-7.88,19.69-11.38a127.42,127.42,0,0,1,19.49-8.87c6.46-2.22,12.53-3.18,18.14-1.73a7.14,7.14,0,0,1,2.47,1,1.09,1.09,0,0,1,.62,0c.36.1.71.25,1.08.37a10.91,10.91,0,0,1,1.12.45l1.17.54c.39.19.76.41,1.15.61.78.4,1.5.91,2.27,1.39s1.48,1,2.18,1.65A4.72,4.72,0,0,1,722.7,987C722.87,987.35,722.47,987.13,721.87,986.62ZM553,819l-.24-.06.66-.06,1.38.56Zm-4.75,9.32h0l-.83-.27Zm75.33,80.64,3.46-5.63c1.17-1.88,2.27-3.93,3.32-5.93a101.58,101.58,0,0,0,5.48-12.55,86.51,86.51,0,0,0,5.27-27.42A78.85,78.85,0,0,1,640,871.16a81.89,81.89,0,0,1-2.63,10.25,88.75,88.75,0,0,1-3.74,9.75c-1.41,3.16-3,6.23-4.7,9.23l-1.31,2.22-1.35,2.1ZM544.43,819a12.81,12.81,0,0,1,3.37.46,5.71,5.71,0,0,1,1.43-1.18,39,39,0,0,1,4.49-2.32c-.43-.23-.07-.4.07-.55l.47-.4-5.1,2C547.6,817.69,546,818.53,544.43,819ZM536,827.93l-.24,0-.28-.72S535.67,827.5,536,827.93Zm.5,1.19.26-.09C536.85,829.27,536.72,829.26,536.46,829.12Zm2.38-.86a2,2,0,0,0-.52-.07Zm15.9,13.88-2-3.07,1.84,3Z"/><path d="M622.16,857.56l.37,0a.85.85,0,0,1-.57.47c3.49-.1,6-3,7.24-5.79a1.53,1.53,0,0,0,.95-1.92,1.55,1.55,0,0,0-2.11-.53,2.65,2.65,0,0,1-.67,0,13.55,13.55,0,0,0-5.57.28h1.29a5.2,5.2,0,0,0-1.62.52l.41.24a4.29,4.29,0,0,0-4.14,3.61,3,3,0,0,0,3.5,3.06Z"/><path d="M627.35,859.44c-1.12.12-2.21.22-3.34.31l-.31-.11.75.92,0-.07a6.15,6.15,0,0,1,2.18-3.41l.32-.41a.9.9,0,0,0,0-.75,1.08,1.08,0,0,0-1.48-.46l-.7.32c-1.95.42-4.4,2-4,4.2.09.5.62.85,1,1.25a1.56,1.56,0,0,0,2.13.37,1.5,1.5,0,0,0,.62-2l.48-.12-.13.42c-.19-.68.39-1.26.7-1.89l.67-.64-1.48-1.21-.27.45a1.31,1.31,0,0,1,.2.11,18.23,18.23,0,0,1-1.54,2.59l-.62,1.24a.8.8,0,0,0,.76.91H624l-.34-.05c1.27-.39,2.51-.92,3.79-1.24a.44.44,0,0,0,.36-.43A.35.35,0,0,0,627.35,859.44Z"/><path d="M623.84,862.1a1,1,0,0,0-.71.19,1.88,1.88,0,0,0,0,.19l.51,0C624,862.52,624,862.3,623.84,862.1Z"/><path d="M623.12,862.48h-.22l.2.07,0,0Z"/><path d="M707.68,851.44a12.12,12.12,0,0,0,6.79.46,18,18,0,0,0,7.31-4.11c.16-.15.26-.31.21-.37s-.21,0-.36.15a17.92,17.92,0,0,1-7.22,4,11.86,11.86,0,0,1-6.61-.47c-.16,0-.35,0-.39,0S707.51,851.39,707.68,851.44Z"/><path d="M744.3,821.09c0,.2,0,.22.16,0a1.87,1.87,0,0,0,.22-.64c0-.17,0-.19-.15,0A1.91,1.91,0,0,0,744.3,821.09Z"/><path d="M748.33,824.4c-.3,1.16-.52,2.28-.73,3.29a2,2,0,0,1-.2.52c.12,0,.13.22,0,.64a83.79,83.79,0,0,1-10.84,25.39.86.86,0,0,1,0,.51,8.2,8.2,0,0,1-1.91,3l-.8.78a36.9,36.9,0,0,1-11.41,8.21c-.42.28-.89.56-1.4.85a15.32,15.32,0,0,1-1.72.74,20.87,20.87,0,0,1-3.12,1.23,21.26,21.26,0,0,1-3.34.86,29.18,29.18,0,0,1-6.85.49c.26.13.42.26.4.38-.12.28-1.19.38-2.4.22-.59-.08-1.14-.19-1.71-.29a44.2,44.2,0,0,0,5.14.9l.74.07,1.55,0a10.51,10.51,0,0,0,1.58,0c1.08-.1,2.16-.17,3.23-.37s2.33-.51,3.46-.83,2.16-.79,3.21-1.21,2-1,3-1.49,1.86-1.11,2.7-1.73a38.23,38.23,0,0,0,8.41-8.27,55.21,55.21,0,0,0,5.55-9l1.12-2.28,1-2.29c.32-.77.66-1.52,1-2.29l.85-2.3a1.8,1.8,0,0,1,.32-.65c.11-.09.17,0,.1.19l-.85,3c-.29,1-.63,2-.93,2.92-.58,2-1.36,3.88-2.13,5.87a43.94,43.94,0,0,1-7.56,12.37,37.54,37.54,0,0,1-8.16,7c-.79.52-1.65,1-2.5,1.45s-1.8.83-2.72,1.24l-1.4.58c-.46.19-1,.32-1.48.47-1,.29-2,.59-3,.82a40.91,40.91,0,0,1-12,.48l-2.66-.31-2.42-.39c-.85-.13-1.54-.26-2.28-.4l-2.14-.39-2-.53-1.87-.43-.92-.21-.86-.16-1.7-.32a36,36,0,0,0-6.14-.45,39.18,39.18,0,0,0-11.41,1.93,50.45,50.45,0,0,0-8,3.4c-2.79,1.7-5.51,3.42-8.26,5.41-1.27,1.25-3.4.89-4.82-.86a4.72,4.72,0,0,1-1-3.64l-.41.24-.76.22a3.16,3.16,0,0,1-2.29-.31l-1-.47c-1.62-1.07-3.49-1.58-5.14-2.75l-.3-.67-.25-.08a3.81,3.81,0,0,1-2-1l-.48-.74a8.63,8.63,0,0,1-1-2.77,3.07,3.07,0,0,1-.51-1,4.29,4.29,0,0,1-1.91-2.19.6.6,0,0,1-.44-.75.85.85,0,0,1,.19-.3h0c-.24-.11-.31-.14-.6-.25l-.38.1-1.13.42a3,3,0,0,1-1.05-.15c-1.37-1-1.38-1-1.73-1.54a1.92,1.92,0,0,1,0-.22c-.48.07-.52.07-.65.08a1.79,1.79,0,0,1-.33-.09c-.24-.28-.24-.28-.38-.35a1.57,1.57,0,0,1-.19-.21c0-.46,0-.46-.12-.55a1.1,1.1,0,0,1,0-.24l.24-.41,1.07.41-.1-.33.38.26-.31-.27.4,0-.49-.08a3.16,3.16,0,0,0,.89-.47,1.15,1.15,0,0,0,.45-.38,1.74,1.74,0,0,1-.15-.15c.73-.31.73-.31,1.45-.59a2.65,2.65,0,0,1,.3.11.34.34,0,0,1,.22-.32l.37-.15,0-.09,0,0c.07-.13.12-.22.17-.33l0-.07h0l.77-1.44a4.15,4.15,0,0,1,.66-.2l-.26-.05c-.18,0-.27-.38-.35-.37a23.29,23.29,0,0,0-5.26,1.72.64.64,0,0,1-.83,0,.53.53,0,0,1,.08-.77c1.91-3.6,6.16-5.83,10.31-6.37,1-.31,2-.65,3-1l-.21-.08.84-.12.08,0-.83-.28-.47,0c-2.26.85-4.67,1-7,1.68-1.26.35-2.53.38-3.79.64a.53.53,0,0,1-.71-.17.52.52,0,0,1,.32-.65c3.16-2.46,7.58-4.31,11.48-3.82a4,4,0,0,1,2.09-.35h0l-.63-.26c.55-.12,1,.13,1.54.1l-.47-.55c2.68-.68,5.37-1.94,8.13-1.8l.29,0c.44-.39.88-.77,1.36-1.12l.38-.25.1-.06.26-.09.51-.19c.69-.26,1.4-.49,2.15-.71l-3.08.62c1-.42,2.1-.85,3.18-1.23a35.37,35.37,0,0,1,3.48-.89,42.22,42.22,0,0,1,5.08-.66,36.15,36.15,0,0,1,5,0,21.67,21.67,0,0,1,7.69,1.75,70.24,70.24,0,0,1,18.5,2.76c5.82,1.62,10.94,3.75,14.84,4.82.38.08.68.29.72.47s-.28.25-.67.16c-2.8-.55-6.31-1.76-10.2-2.94a86.36,86.36,0,0,0-12.62-3,79.75,79.75,0,0,1,10.49,3.17c3.3,1.2,6.39,2.52,9.14,3.52.73.24,1.38.4,2.08.62s1.24.37,1.85.62a9.37,9.37,0,0,0,1.1.25l1.06.23,1,.1a4.39,4.39,0,0,0,.94.07,8.88,8.88,0,0,0,1.79-.09c.3,0,.6,0,.9-.1l.92-.26a12.74,12.74,0,0,0,3.73-1.62l.94-.58.91-.69a21.6,21.6,0,0,0,1.81-1.57,42.58,42.58,0,0,0,5.44-6.66,72.6,72.6,0,0,0,4.51-8.11c1-2.06,1.9-4.21,2.81-6.29.44-1,.83-2.13,1.25-3.19s.85-2.1,1.22-3.19c.76-2.17,1.6-4.29,2.32-6.51s1.56-4.42,2.3-6.73c.38-1.23.95-2.31,1.26-2.38s.27.88-.1,2.12c-2.74,9.73-5.85,19.26-10.23,27.93a56.78,56.78,0,0,1-7.75,11.76,28.34,28.34,0,0,1-4.82,4.3,16.69,16.69,0,0,1-5.29,2.47,13,13,0,0,1-4.48.43.59.59,0,0,1,0,.17.69.69,0,0,1-.42.55,7,7,0,0,0,1.35.09,7.5,7.5,0,0,0,1.34,0c.45-.05.89-.09,1.35-.11s.92-.22,1.38-.31c5-1.94,9.29-6.43,13.63-12a103.41,103.41,0,0,0,7.91-11.88,164,164,0,0,0,6.27-17.25,1.29,1.29,0,0,1,.25-.54c.09-.07.1.07,0,.32-.53,2.07-1,4.19-1.7,6.26s-1.26,4.2-2,6.25c.45-.56.85-.86,1.08-.7s.28.74.14,1.58l1.16-2.79c.23-.59.5-1,.63-1s.07.57-.14,1.13c-.79,1.91-1.55,3.83-2.38,5.71s-1.66,3.75-2.64,5.54a69.06,69.06,0,0,1-7.28,12.61,3.11,3.11,0,0,1,1.46-.66h0l1.32-1.85A124.94,124.94,0,0,0,741.84,827c2.46-6.7,4.64-13.59,6.68-20.57.07-.28.19-.49.24-.48s0,.23,0,.48l-1.86,6.31-2,6.24v0c.09-.15.17-.16.15,0a1.67,1.67,0,0,1-.22.65c-.11.18-.17.14-.15,0a163.6,163.6,0,0,1-9,22.27,140,140,0,0,0,9-20.17c.2-.78.39-1.57.59-2.36a1.48,1.48,0,0,1,.26-.55c.07,0,.08.13,0,.35s-.11.45-.17.67c.48-1.32,1-2.28,1.34-2.16s.2,1.41-.29,2.8c-.62,1.86-1.23,3.72-1.88,5.57s-1.37,3.67-2.12,5.48l-.45,1.19L741.7,834c1.33-2.75,2.47-5.58,3.63-8.4s2.17-5.68,3.09-8.57c.15-.49.37-.89.48-.87s.08.45-.07,1A153.17,153.17,0,0,1,744,832.55a90.83,90.83,0,0,1-7.07,15,54.89,54.89,0,0,1-5.6,10.23l1-1.12c4.39-4.86,6.92-10.14,9.07-15.3s3.67-10.43,5.47-15.91a.92.92,0,0,1,.27-.51c.07,0,.06.2,0,.48-1.71,5.37-3.06,10.41-5.28,15.71a93.77,93.77,0,0,1-6.33,12.54,65,65,0,0,0,6.65-12c.82-2.06,1.72-4.08,2.42-6.15.38-1,.75-2.07,1.13-3.1s.68-2.08,1-3.13a3.72,3.72,0,0,1,.41-.93.41.41,0,0,1,0-.23c.24-1.08.5-2.26.79-3.45a1.25,1.25,0,0,1,.26-.59C748.37,824,748.38,824.14,748.33,824.4ZM636,859.06l-.15-.06.41,0,.84.5Zm-3.34,5.71h0l-.49-.25ZM690,847.93a107.51,107.51,0,0,0-15.52-3.25c1.31,0,2.61.05,3.91.19A61.88,61.88,0,0,1,690,847.93Zm-59.26,10.45a7.41,7.41,0,0,1,2,.59,3.14,3.14,0,0,1,.91-.65,20.68,20.68,0,0,1,2.81-1.18c-.26-.2,0-.28,0-.37l.3-.24c-1.05.3-2.1.61-3.16.94S631.74,858.17,630.76,858.38Zm-5.49,5-.14,0-.11-.48S625.12,863.06,625.27,863.36Zm.22.81.16,0C625.71,864.3,625.64,864.28,625.49,864.17Zm1.46-.32a1,1,0,0,0-.31-.09Zm8.67,10.4-1-2.15.88,2.1Z"/><path d="M329.27,941c.19,0,.4,0,.59,0a1.33,1.33,0,0,1-.85.8,10.59,10.59,0,0,0,6.83-3.4,16.36,16.36,0,0,0,3.93-6.42,2.44,2.44,0,0,0,1.2-3.17,2.39,2.39,0,0,0-3.33-.66,3.89,3.89,0,0,1-1,.15,22.14,22.14,0,0,0-8.7.79l2-.06a7,7,0,0,0-2.49.93l.67.35c-3.28.38-6.12,3.17-6.17,6.13s2.63,5,5.84,4.64Z"/><path d="M337.65,943.53c-1.73.31-3.47.55-5.24.79l-.5-.14,1.27,1.4-.05-.11c.13-2.09,1.61-4,3.09-5.68l.48-.65a1.51,1.51,0,0,0,0-1.2,1.76,1.76,0,0,0-2.41-.65c-.36.18-.71.38-1.06.57-3,.88-6.74,3.63-5.93,7,.2.79,1.06,1.32,1.69,1.94a2.52,2.52,0,0,0,3.44.43,2.38,2.38,0,0,0,.82-3.29l.75-.23c-.06.23-.12.46-.17.69-.37-1.09.51-2.06.92-3.1l1-1.11-2.44-1.81-.37.76c.12.07.32.14.32.16a25.81,25.81,0,0,1-2.18,4.29l-.9,2a1.31,1.31,0,0,0,1.3,1.4l1.09,0-.55,0c2-.7,3.92-1.67,5.9-2.31a.66.66,0,0,0,.5-.73A.55.55,0,0,0,337.65,943.53Z"/><path d="M332.34,948.09a1.62,1.62,0,0,0-1.13.35v.3H332C332.62,948.75,332.62,948.39,332.34,948.09Z"/><path d="M331.21,948.74h-.35l.32.1,0-.05Z"/><path d="M483.13,898.91c1.13.11,2.26.18,3.38.31l3.35.43,6.68.86,6.65,1.1,3.31.55,3.29.68,6.58,1.34,6.5,1.57,3.25.79c1.08.27,2.15.59,3.22.89l6.41,1.8c.58.16,1.08.22,1.14.11s-.36-.35-.9-.48L529.57,907l-3.22-.9-3.24-.8-6.51-1.59L510,902.4l-3.29-.67-3.31-.56-6.64-1.11c-2.22-.32-4.46-.58-6.69-.88s-4.47-.6-6.73-.76a2,2,0,0,0-1.2.15C482.15,898.71,482.57,898.86,483.13,898.91Z"/><path d="M602.83,949c-.39-.13-.42,0-.1.24A4.64,4.64,0,0,0,604,950c.32.11.37,0,.09-.24A4.75,4.75,0,0,0,602.83,949Z"/><path d="M595.84,954.25c-1.06-.48-2.08-1-3.08-1.36s-2-.75-2.92-1a4.19,4.19,0,0,1-1-.49c0,.21-.42.15-1.19-.15a321.49,321.49,0,0,0-48.42-15.06,1.82,1.82,0,0,1-.82.26,16.83,16.83,0,0,1-6-.77l-1.75-.54c-1.78-.5-3.59-.89-5.38-1.33s-3.58-.91-5.39-1.26l-5.42-1.09-2.7-.55-2.72-.45a40.89,40.89,0,0,1-5.16-.19c-3.19,0-6.39.11-9.57.14l-9.61.46c.39.16.63.35.61.55s-.48.42-1.09.56a9.22,9.22,0,0,1-2.26.25l-2.6.06c2.48.1,5,.13,7.44.39a9.16,9.16,0,0,1,1,.11c2.73.13,5.49.13,8.3.35a287.49,287.49,0,0,1,70.74,12,4.14,4.14,0,0,1,1.23.54c.17.17.09.27-.34.16-14.65-3.64-27.75-4.7-44-6.31a221.49,221.49,0,0,0-57.2,1.85,147.44,147.44,0,0,0-28.27,5.78,166.3,166.3,0,0,0-26.58,10.66c-1.5.67-2.91,1.52-4.35,2.27l-4.28,2.28-4.12,2.44c-1.37.82-2.76,1.57-4.05,2.47l-1,.64-.49.32-.18.13-.63.48-1.27.92c-.83.62-1.71,1.17-2.5,1.83-1.63,1.27-3.27,2.48-4.93,3.67s-3.19,2.53-4.81,3.77a5,5,0,0,1-4,1.46,6.53,6.53,0,0,1-4.22-2.21A7.43,7.43,0,0,1,369,972.5l-.65.46-1.25.43a5.12,5.12,0,0,1-3.8-.3l-1.65-.67c-2.72-1.59-5.74-2.2-8.48-3.95l-.55-1.06-.4-.11a5.94,5.94,0,0,1-3.2-1.45l-.84-1.14a13.67,13.67,0,0,1-1.88-4.36,4.84,4.84,0,0,1-.9-1.51,6.8,6.8,0,0,1-3.23-3.35,1,1,0,0,1-.77-1.16,1.08,1.08,0,0,1,.28-.5h0a9.81,9.81,0,0,0-1-.36c-.37.14-.6.2-.6.2l-1.76.76a5.07,5.07,0,0,1-1.7-.18c-2.29-1.43-2.3-1.43-2.9-2.35,0-.11-.05-.22-.07-.33-.77.13-.82.14-1,.16a2.58,2.58,0,0,1-.53-.12c-.41-.44-.41-.44-.64-.53a2.25,2.25,0,0,1-.31-.32c-.12-.73-.12-.73-.24-.88a1.6,1.6,0,0,1,0-.37l.35-.67,1.74.59-.17-.53.62.4-.51-.42h.64l-.8-.1a4.72,4.72,0,0,0,1.4-.81,1.93,1.93,0,0,0,.68-.64,3.24,3.24,0,0,1-.25-.24c1.13-.55,1.13-.55,2.24-1.06a3,3,0,0,1,.48.16.55.55,0,0,1,.32-.53l.56-.29.06-.15,0,0,.23-.55,0-.13h0c.17-.39.39-.95,1.08-2.36a7.48,7.48,0,0,1,1-.35,2.83,2.83,0,0,1-.42-.06c-.29,0-.47-.59-.59-.57a19.45,19.45,0,0,0-2.13.52c-.68.24-1.36.51-2,.8-1.33.58-2.66,1.23-4,1.85a1,1,0,0,1-1.31.09.82.82,0,0,1,.06-1.23c2.7-6,9.14-9.75,15.48-11,1.51-.57,3-1.18,4.47-1.8l-.34-.12L351,930l.12,0-1.33-.36-.71.09a28.44,28.44,0,0,1-5.29,1.72c-1.8.47-3.61.94-5.41,1.53s-3.91.81-5.9,1.27a.84.84,0,0,1-1.13-.24.8.8,0,0,1,.43-1.05,35.8,35.8,0,0,1,8.14-5.22,20.91,20.91,0,0,1,9.17-1.75,5.6,5.6,0,0,1,3.13-.8l.05,0-1-.36c.82-.26,1.58.14,2.39,0l-.83-.83c2-.66,3.93-1.58,5.88-2.37a30.66,30.66,0,0,1,2.95-1.06,15.12,15.12,0,0,1,3.06-.48,3.12,3.12,0,0,1,.44-.09,20.59,20.59,0,0,1,1.75-2c.16-.15.33-.31.5-.45l.14-.12.43-.25.87-.49a37.25,37.25,0,0,1,3.74-1.87c-.94.3-1.84.66-2.74,1l-2.65,1a1.92,1.92,0,0,1,.27-.17l.34-.2.67-.41,1.36-.8c.91-.54,1.85-1,2.81-1.47,1.91-.93,3.89-1.8,6-2.62,11.38-4.37,24.9-6.53,31.66-5.37a245.08,245.08,0,0,1,33.54-6.18,268.94,268.94,0,0,1,33.9-1.43,4.27,4.27,0,0,1,2.41.56c.12.27-.66.48-1.82.45a264.88,264.88,0,0,0-48.55,4.61,290.1,290.1,0,0,1,41.23-2c1.76,0,3.54-.06,5.33,0s3.51.22,5.24.43c17.69,1,34.16,4,51.53,8l2.77.63,2.7.72,5.31,1.42c1.76.44,3.47,1,5.19,1.51l5.12,1.56c3.39,1.07,6.74,2.29,10.16,3.44s6.81,2.57,10.35,3.93a283.42,283.42,0,0,1,27.91,13.11,244.9,244.9,0,0,1,25.84,16.34c2.25,1.61,4.13,3.42,4.13,4s-1.83-.29-4.09-1.89a310,310,0,0,0-27.75-16.69,320.1,320.1,0,0,0-29.49-13.56,296.48,296.48,0,0,0-31.18-10.51,312.64,312.64,0,0,0-33-7.39c-2.44-.45-4.88-.73-7.29-1.1l-3.62-.52c-1.21-.15-2.42-.26-3.62-.39a.68.68,0,0,1,.1.28c0,.36-.52.65-1.3.85l4.09.46c1.36.19,2.72.41,4.09.63l4.08.65,2,.34,2,.42a189.92,189.92,0,0,1,45.67,10.7,235.34,235.34,0,0,1,28.53,13.49,282.21,282.21,0,0,1,34.4,18.3,3.19,3.19,0,0,1,1,.79c.11.18-.18.1-.63-.17l-6-3.27-3-1.65-3-1.57L598.57,942l-6.27-3c1.15,1,1.73,1.75,1.42,2.1s-1.51.2-3.16-.34l5.52,3c1.14.61,1.94,1.26,1.79,1.45s-1.11-.14-2.2-.7c-3.75-2-7.47-4-11.31-5.84-1.91-.92-3.79-1.9-5.73-2.77l-5.8-2.61a295.18,295.18,0,0,0-28.89-9.87,7.06,7.06,0,0,1,2.44,2.11h0l4.49,1.39c27.69,7.64,54.5,21,78.43,38.55.48.33.82.67.78.75s-.46-.11-.89-.41c-3.64-2.59-7.25-5.23-11-7.62-1.88-1.2-3.71-2.48-5.63-3.61l-5.72-3.44,0,0c.28.24.28.37-.09.23a4.9,4.9,0,0,1-1.2-.72c-.32-.27-.23-.35.09-.23a244.9,244.9,0,0,0-44.88-20.12,257.26,257.26,0,0,1,40.77,19.24c1.48.7,3,1.34,4.47,2.12a3.35,3.35,0,0,1,1,.75c.06.14-.28,0-.68-.17l-1.23-.63c2.41,1.51,4.07,3,3.76,3.43s-2.71-.52-5.22-2c-6.9-3.76-13.81-7.43-20.92-10.7l-2.34-1-2.42-.84A290.76,290.76,0,0,1,609.66,958c.89.52,1.57,1.1,1.49,1.27s-.87-.12-1.77-.65a297.55,297.55,0,0,0-28.58-14,288,288,0,0,0-30-11c-3.48-.62-7-1.1-10.47-1.63-3.53-.37-7-.81-10.6-1.1.87.18,1.74.41,2.61.64,11.11,2.61,21.43,5.16,31.57,8.25a197.51,197.51,0,0,1,30.21,11.69,2.05,2.05,0,0,1,.9.67c0,.11-.38,0-.88-.25a220.09,220.09,0,0,0-29.7-11.39l-6.34-1.94L551.84,937l-3.09-.78-3.1-.66c-2.06-.43-4.09-.85-6.12-1.23l6.07,1.6,3,.77,3,.87,6,1.71,5.92,1.89,3,.94,2.94,1,5.86,2.12c2,.75,3.87,1.55,5.82,2.34l2.91,1.2c1,.41,1.92.86,2.88,1.3a7.66,7.66,0,0,1,1.7,1,.76.76,0,0,1,.43.06,66,66,0,0,1,6.33,2.52,3.18,3.18,0,0,1,1.06.69C596.59,954.48,596.31,954.44,595.84,954.25Zm-244.61-12-.24-.08h.65l1.4.74Zm-4.67,9.44h0l-.82-.38Zm96.63-48.2-7.28.82c-1.21.11-2.41.29-3.62.47l-3.62.49c-4.84.55-9.62,1.44-14.49,2.07l6.93-1.68,2.74-.44,2.75-.32,5.52-.62c1.83-.23,3.68-.34,5.53-.45ZM343,941.6a12.1,12.1,0,0,1,3.28.79,5.13,5.13,0,0,1,1.34-1.15,27.93,27.93,0,0,1,4.27-2.14c-.44-.29-.09-.44,0-.59l.43-.4c-1.58.6-3.25,1.1-4.86,1.76A43,43,0,0,1,343,941.6ZM334.73,950l-.22-.06-.23-.76Zm.42,1.26.25-.06C335.51,951.47,335.38,951.44,335.15,951.27Zm2.3-.61a1.79,1.79,0,0,0-.49-.12Zm14.73,16-1.71-3.36,1.57,3.29Z"/><path d="M477.45,960.61c0,.08,0,.17,0,.26a.5.5,0,0,1-.44-.26c.64,2.37,3.22,3.24,5.44,3.08a1.09,1.09,0,0,0,1.54-.05,1.1,1.1,0,0,0,0-1.55,1.78,1.78,0,0,1-.17-.41,8.4,8.4,0,0,0-1.17-3.5l.21.83a2.74,2.74,0,0,0-.63-.88l-.1.35a2.54,2.54,0,1,0-4.84,1.51Z"/><path d="M477,964.69c-.3-.74-.57-1.48-.83-2.23l0-.24-.54.76.05,0a4.54,4.54,0,0,1,2.85.55l.35.1a.76.76,0,0,0,.54-.21.8.8,0,0,0,.06-1.14l-.35-.37c-.65-1.18-2.17-2.39-3.68-1.57-.34.19-.52.64-.75,1a1.12,1.12,0,0,0,.09,1.58,1.11,1.11,0,0,0,1.57-.09l.17.29-.33,0c.47-.32,1-.07,1.49,0l.59.27.6-1.35-.38-.05a.58.58,0,0,1,0,.16,10,10,0,0,1-2.12-.34l-1-.11a.68.68,0,0,0-.53.76l.11.48,0-.25c.5.79,1.11,1.51,1.58,2.31a.28.28,0,1,0,.5-.25Z"/><path d="M474.45,963a.66.66,0,0,0-.26-.46l-.14,0c0,.1.05.24.07.37S474.33,963.11,474.45,963Z"/><path d="M474.05,962.53l0-.15,0,.15h.05Z"/><path d="M499.16,978.66a38.24,38.24,0,0,0,2.89,3.07s.1,0,.16-.06.07-.15,0-.17a42.1,42.1,0,0,1-2.88-3.08s-.1,0-.16.06S499.13,978.63,499.16,978.66Z"/><path d="M501.94,992a.23.23,0,0,0-.13.18c0,.06,0,.09.09.06a.29.29,0,0,0,.13-.18C502.05,992,502,992,501.94,992Z"/><path d="M497.43,997.33a2,2,0,0,0-.74.08c-.05,0-.07,0-.07-.06a.39.39,0,0,1-.28.2,15.23,15.23,0,0,1-4.83-.83,1.79,1.79,0,0,1-.25.23c-.3.22-.58.24-.7.06l-.07-.17c-.38-.55-.79-1.07-1.16-1.64a.76.76,0,0,1-.54,0,12.51,12.51,0,0,1-2.05-.08,1,1,0,0,1-.17.31c-.2.24-.44.34-.55.24l-.2-.13c.13.19.26.39.38.6a.19.19,0,0,1,0,.09,4.31,4.31,0,0,0,.59.44,15.36,15.36,0,0,0,6.66,1.62c.05,0,.09,0,.07.1a.3.3,0,0,1-.15.16c-2,.44-4.08,1.37-5.85,1.28a30.3,30.3,0,0,1-5.95-.79c-1.46-1.14-3.26-1.59-5.09-2.31-.62-.25-1.21-.51-1.77-.8a1.84,1.84,0,0,1-.25-.14l-.39-.25-.76-.5-1.5-1c-2-1.37-3.91-2.8-5.85-4.26a3.32,3.32,0,0,1-1.2-4.55,3.36,3.36,0,0,1,2.56-1.63l-.34-.29-.42-.6a2.82,2.82,0,0,1-.47-2l.07-.91c.37-1.54.28-3.16.79-4.69l.44-.38v-.21a2.91,2.91,0,0,1,.32-1.71l.46-.52a6.43,6.43,0,0,1,1.87-1.38,2.72,2.72,0,0,1,.61-.61,3.46,3.46,0,0,1,1.24-1.91.48.48,0,0,1,.47-.5.48.48,0,0,1,.26.06h0c0-.2,0-.26.06-.5a2.6,2.6,0,0,1-.15-.25c-.28-.38-.27-.38-.52-.71a2.33,2.33,0,0,1-.08-.8c.46-1.21.46-1.21.83-1.6L473,964c-.13-.33-.14-.35-.17-.45a1.91,1.91,0,0,1,0-.25c.16-.23.16-.23.19-.34a1,1,0,0,1,.12-.18c.33-.15.33-.15.39-.22l.17-.07.33.07-.12.85.23-.14-.13.33.15-.28.05.28,0-.37a2.23,2.23,0,0,0,.49.52.72.72,0,0,0,.36.21.81.81,0,0,1,.09-.14l.69.86,0,.24a.22.22,0,0,1,.27.07l.18.21h.08v0l.28,0h.05l1.19.12a2.63,2.63,0,0,1,.28.4l0-.2c0-.13.22-.3.2-.35a17.54,17.54,0,0,0-2.2-3.14.43.43,0,0,1-.15-.57.42.42,0,0,1,.57-.14,8.93,8.93,0,0,1,6.54,5c.45.53.92,1,1.39,1.56v-.17l.29.5,0,0v-.64c-.05-.1-.09-.2-.14-.29a26.76,26.76,0,0,1-2.7-4,22.5,22.5,0,0,1-1.16-2.3.37.37,0,0,1,.52-.52c2.27,1.33,4.43,3.41,5,6a2.18,2.18,0,0,1,.76,1.17v0l0-.51c.22.3.16.69.32,1l.26-.53c1.17,1.36,2.77,2.4,3.55,4.05a1.58,1.58,0,0,1,.12.15,9.45,9.45,0,0,1,2,.47l-.24-.41a1.42,1.42,0,0,1,1,.27,3.1,3.1,0,0,1,.38,3.38,49.57,49.57,0,0,0,4.53,2.64c.09,0,.07.18,0,.32s-.24.23-.32.2a16.93,16.93,0,0,1-3.69-1.38,15.61,15.61,0,0,0,2.13,2.45l.38.2a.6.6,0,0,1,.26.32,13,13,0,0,0,3.44,2.25,27.61,27.61,0,0,0,3.51,1.1,12.57,12.57,0,0,1,4.77,1.8c.2.1.17.47-.07.83s-.62.57-.82.48c-3.56-1.06-7.24-1.86-10-4.25l-.87-.77-.1.15a2.14,2.14,0,0,1-.47.44,9.54,9.54,0,0,1,.87,1,6.71,6.71,0,0,1,3.41,1.71,9,9,0,0,1,1.28,2.47c1,.43,2,.8,3,1.27.06,0,.06.06,0,.14a.22.22,0,0,1-.16.12,13.77,13.77,0,0,1-2.55-.33,2.59,2.59,0,0,1-.48.91,2.12,2.12,0,0,1-.81.64l.39.34c.08.07.05.25-.08.4s-.29.24-.37.17l-1.59-1.34c-.79-.34-1.56-.7-2.32-1.09a3.27,3.27,0,0,1-.39.9h0l.33.21a14,14,0,0,1,6.62,3.22s0,.11,0,.19-.14.11-.16.08a11.28,11.28,0,0,0-1.75-1.34h0a.3.3,0,0,1-.14.18c-.06,0-.1,0-.09-.07a.27.27,0,0,1,.13-.18,14.7,14.7,0,0,0-3.86-1.61,17,17,0,0,1,2.92,2.3l.53,0s0,.08,0,.15a.21.21,0,0,1-.16.12h-.14c.16.18.07.59-.22,1s-.69.55-.88.39c-.57-.33-1.11-.69-1.64-1.07l-.22-.06-.3.05c.68.76,1.34,1.56,2,2.37.07.05,0,.2-.06.34s-.24.2-.31.15a27.91,27.91,0,0,1-5.11-2.13l-2.75.63.16.16c1.55,1.2,4.12.57,5.88,1.39.05,0,0,.1,0,.17s-.13.12-.16.09a17,17,0,0,0-3-.47,16.57,16.57,0,0,0-2.55-.27c1.26.73,2.9.86,4.27,1.42.08,0,.1.07.08.17a.2.2,0,0,1,.1-.07,2.41,2.41,0,0,1,.78-.08c.05,0,.07.05,0,.14A.23.23,0,0,1,497.43,997.33Zm-18.27-26.78v-.12c0,.09.06.18.09.29l-.15.75Zm-5-.65h0c.05-.24.08-.42.08-.42C474.25,969.65,474.22,969.79,474.2,969.9Zm21,8.75a4.57,4.57,0,0,1-1.41-1.85l.5.24A16.75,16.75,0,0,1,495.24,978.65Zm-16.78-11.92a6,6,0,0,1,0,1.59,2.06,2.06,0,0,1,.68.41,18.41,18.41,0,0,1,1.53,1.53c.08-.25.19-.12.28-.09l.24.11c-.48-.59-1-1.2-1.43-1.83A15.31,15.31,0,0,1,478.46,966.73Zm-4.69-2.46v-.11l.33-.2Zm-.54.35,0,.1C473.17,964.8,473.17,964.74,473.23,964.62Zm.49,1a1.05,1.05,0,0,0,0-.24Zm-6,8.83,1.41-1.2-1.4,1.12Z"/><path d="M347.56,44.6l.09.52a.86.86,0,0,1-.86-.4,7,7,0,0,0,4.42,4.47,9.2,9.2,0,0,0,3.15.56,13.07,13.07,0,0,0,3.26-.43,2.06,2.06,0,0,0,2.91-.66,2.3,2.3,0,0,0-.43-3.08,2.48,2.48,0,0,1-.4-.75,16,16,0,0,0-1.07-3.48A21.17,21.17,0,0,0,357,38.17c.16.53.32,1.09.48,1.63a5.09,5.09,0,0,0-1.25-1.6c-.05.23-.11.5-.15.73A4.2,4.2,0,0,0,350,36.51a5.71,5.71,0,0,0-2.87,6.89Z"/><path d="M347.32,53c-.72-1.42-1.36-2.86-2-4.31v-.5l-.93,1.69.09-.1c1.85-.73,3.84-.24,5.6.33l.68.11a1.57,1.57,0,0,0,1-.58,1.74,1.74,0,0,0-.08-2.34l-.72-.67c-1.41-2.21-4.42-4.22-7.27-2.15a6.56,6.56,0,0,0-1.36,2.22,2.29,2.29,0,0,0,.38,3.18,2.16,2.16,0,0,0,3.07-.62l.38.56-.64.13c.86-.77,1.9-.4,2.88-.48l1.17.38.93-2.92h-.72c0,.14,0,.35-.05.35a18.45,18.45,0,0,1-4.14-.09l-2,.05a1.5,1.5,0,0,0-.94,1.69l.28.94-.08-.5c1.08,1.48,2.4,2.77,3.47,4.28a.52.52,0,0,0,.76.15A.6.6,0,0,0,347.32,53Z"/><path d="M342,50.18c-.11-.34-.21-.69-.57-.85l-.27.11c.05.2.12.46.19.72C341.5,50.68,341.82,50.55,342,50.18Z"/><path d="M341.18,49.44l-.08-.3c0,.11,0,.22,0,.32h.05Z"/><path d="M530.76,98.27c12.28.47,24.68.67,37.09,0,6.21-.17,12.4-.74,18.62-1.17,3.1-.24,6.19-.62,9.3-.93s6.2-.62,9.29-1.08a3.12,3.12,0,0,0,1.53-.43c0-.12-.64-.14-1.41,0-3.08.45-6.18.75-9.28,1.07s-6.18.66-9.28.92c-6.2.41-12.37,1-18.56,1.14-12.37.64-24.72.43-37,0a3.35,3.35,0,0,0-1.62.16C529.41,98.08,530,98.22,530.76,98.27Z"/><path d="M716.8,76.31c-.54.3-.48.39.14.22a10.23,10.23,0,0,0,1.95-.79c.44-.25.38-.36-.14-.21A10.29,10.29,0,0,0,716.8,76.31Z"/><path d="M714.67,85.86c-3.33,1.46-6.48,2.87-9.25,4.26a10.67,10.67,0,0,1-1.59.61c.25.09-.34.48-1.54,1-3,1.29-6,2.54-9,3.81l-4.59,1.9q-2.32.9-4.68,1.78c-3.13,1.18-6.27,2.41-9.46,3.54l-9.67,3.31c-13,4.25-26.34,8.19-39.78,11.42a3.2,3.2,0,0,1-1.05.7,24.9,24.9,0,0,1-3.9,1.41c-1.65.44-3.57.85-5.54,1.17l-3,.44c-6,1.07-12,1.8-18,2.64-3,.45-6,.69-9,1s-6,.65-9,.9c-2.44.48-5.29.93-8.4,1.29-5.18.92-10.41,1.54-15.68,2.23l-4,.51c-1.33.16-2.66.26-4,.4l-8.05.72c.68.13,1.1.3,1.09.51-.2.48-2.71,1-5.64,1l-4.44.07c2.13,0,4.25.11,6.37.1l6.37-.07c.61,0,1.17,0,1.69,0,2.32-.1,4.67-.15,7-.31l7.09-.57a421.22,421.22,0,0,0,59.94-9.58,497.82,497.82,0,0,0,55.82-16.59,10.56,10.56,0,0,1,2.08-.6c.39,0,.36.12-.3.38l-8.32,3.37c-2.74,1.14-5.49,2.12-8.21,3.2s-5.44,2.14-8.18,3.14l-8.29,3-4.21,1.5L631,120.91l-8.82,2.79c-3,.92-6.11,1.72-9.29,2.59s-6.45,1.75-9.85,2.47a471.46,471.46,0,0,1-49,8.8,445.39,445.39,0,0,1-50.84,3.63c-18.07-.47-35.5-1.59-53.06-3.53a428.68,428.68,0,0,1-53.67-9.2c-1.57-.33-3.11-.75-4.65-1.16l-4.63-1.23-4.62-1.24-2.31-.62L378,123.5c-6.08-1.92-12.18-3.69-18.14-6l-2.24-.82-1.12-.41-.3-.09-1-.3-2-.63c-1.35-.4-2.67-.87-4-1.37-2.63-1-5.23-2-7.83-3.08l-3.91-1.61-3.87-1.8c-4.1-1.44-6.37-5.49-5-9a6.82,6.82,0,0,1,4.93-4.08l-.88-.49-1.21-1.12a5.82,5.82,0,0,1-1.87-4l-.17-1.91c.21-3.32-.54-6.66.08-9.94l.84-.89-.06-.43a5.67,5.67,0,0,1,.18-3.62l.83-1.19a14.63,14.63,0,0,1,3.56-3.29,5.23,5.23,0,0,1,1.12-1.39,7.14,7.14,0,0,1,2.1-4.25,1,1,0,0,1,.83-1.14,1,1,0,0,1,.54.07h0a8.58,8.58,0,0,0,0-1c-.23-.29-.35-.47-.35-.47-.66-.7-.66-.7-1.21-1.33a4.68,4.68,0,0,1-.31-1.61c.72-2.59.73-2.58,1.42-3.47a2.9,2.9,0,0,1,.29-.19c-.31-.63-.33-.67-.41-.86a3,3,0,0,1,0-.51c.3-.52.3-.52.33-.76a3.53,3.53,0,0,1,.22-.39c.63-.39.63-.39.74-.55a1.6,1.6,0,0,1,.33-.17l.68.05L341,51.22l.44-.36-.21.7.25-.61.15.56-.11-.74c.71.73.72.73,1.06.92a1.54,1.54,0,0,0,.74.35,2,2,0,0,1,.15-.32c.76.78.76.78,1.49,1.57a4,4,0,0,1,0,.49.44.44,0,0,1,.54.07l.41.39.14,0,0,0,.54,0h.12l2.33-.09a5.19,5.19,0,0,1,.6.75c0-.13-.05-.26-.07-.39s.37-.68.32-.78a34.09,34.09,0,0,0-4.78-5.8.85.85,0,0,1,.71-1.55,13.41,13.41,0,0,1,7.63,2.31,20,20,0,0,1,5.88,5.66c1,.91,2,1.79,3.07,2.66l0-.35.7.9.08.07-.21-1.29a6,6,0,0,0-.33-.54c-2.46-1.9-4.11-4.68-6.13-7a25.34,25.34,0,0,1-2.58-4.28.79.79,0,0,1-.07-1.06.66.66,0,0,1,1-.14,26.88,26.88,0,0,1,6.36,4,16,16,0,0,1,4.4,6.38,4,4,0,0,1,1.82,2l0,0-.12-1c.51.5.52,1.29.95,1.84.09-.36.2-.77.3-1.14,1.33,1.1,2.84,2,4.27,3a17.45,17.45,0,0,1,3.89,3.49l.28.25a18.25,18.25,0,0,1,2.32-.13l.58,0a.69.69,0,0,1,.16,0l.58.22,1.18.46c1.57.63,3.18,1.3,4.84,2l-6.38-3.38a3.46,3.46,0,0,1,.36.12l.47.17.92.34,1.85.69c1.23.46,2.45.94,3.69,1.45,2.5.93,5,1.89,7.63,3,14.07,6,30.11,12.86,37.53,17.61a413.61,413.61,0,0,0,44.91,9,406.49,406.49,0,0,0,45.83,3.81,7.37,7.37,0,0,1,3.28.57c.16.27-.89.49-2.48.47-11,.09-22.12-.56-33.23-1.45-2.78-.24-5.55-.6-8.32-.89s-5.56-.56-8.32-1L466.05,94c-1.38-.21-2.77-.39-4.15-.63l-4.12-.75A358.79,358.79,0,0,0,514,101l3.7.2,3.71.07c2.45,0,4.88.21,7.31.41,3.08.16,6.15.12,9.2.15s6.1.07,9.14,0l9.09-.25c1.52,0,3-.06,4.55-.15l4.54-.28,9.1-.59,9.15-.9,4.6-.47,4.62-.62,9.33-1.3a481.38,481.38,0,0,0,60.56-13.67c14.51-4.28,28.23-8.89,41.69-14.06s26.76-10.63,40.42-16.79c3.57-1.74,7.06-3,7.69-2.81s-1.79,1.8-5.39,3.57Q726,63.84,704.12,72.26c-14.57,5.62-29.38,10.63-44.52,14.83-30.24,8.42-61.68,14.29-94.32,15.92l-5.26.29-5.22.13c-3.47.07-6.93.23-10.36.21a.53.53,0,0,1,.18.27c0,.37-.64.71-1.73,1l2.94,0,2.95,0,5.91-.1,5.94-.09,6-.25,8.25-.81,8.24-1c5.51-.61,11-1.53,16.57-2.3,2.79-.36,5.56-.88,8.36-1.33l8.45-1.36L625,96.09l4.31-.74c1.44-.25,2.87-.57,4.32-.84,4-.79,7.88-1.45,11.7-2.24l11.28-2.33c7.4-1.69,14.69-3.28,22-5.25a539.86,539.86,0,0,0,53.52-20.54,7.14,7.14,0,0,1,1.75-.62c.29,0,0,.22-.76.55-11.91,5.82-24.46,11.1-37.28,16,2.17-.36,3.52-.45,3.51,0s-1.43,1.49-3.78,2.58c3-.95,5.9-2.08,8.85-3.14,1.82-.65,3.31-1,3.34-.77s-1.33,1-3.06,1.58c-6,2.28-12.06,4.23-18.1,6.28-3,1-6.09,1.89-9.14,2.84l-4.57,1.4c-1.53.47-3.07.86-4.61,1.3-14.62,4.53-29.43,8.28-44.46,11.38a13.3,13.3,0,0,1,4.62.43h0l3.5-.72,3.47-.8A644.14,644.14,0,0,0,698.15,83a618.76,618.76,0,0,0,61.21-26.61,3.84,3.84,0,0,1,1.52-.57c.06.07-.51.45-1.22.79-12.07,6.11-24.35,11.68-36.7,17h0c.53-.15.67-.08.14.21a11.53,11.53,0,0,1-1.95.79c-.61.17-.6,0-.15-.21l-8.68,3.57c-2.9,1.16-5.82,2.25-8.73,3.38L699.28,83c-1.46.55-2.93,1.06-4.39,1.59l-8.77,3.16-8.83,3-4.4,1.48-4.42,1.38-8.84,2.74-8.88,2.54a568.93,568.93,0,0,0,65.15-21c2.25-1.06,4.5-2.1,6.8-3.17a7.73,7.73,0,0,1,1.78-.58c.21,0-.22.29-.86.58l-1.91.88c4-1.55,7.23-2.58,7.38-2s-3.22,2.52-7.42,4.17l-8.34,3.49-8.42,3.27c-5.59,2.23-11.31,4.11-17,6.14-1.21.47-2.45.88-3.68,1.31l-3.65,1.46a521.09,521.09,0,0,0,52.57-19.25c1.46-.65,2.77-1.07,2.87-.91s-1,.82-2.47,1.48q-22.22,10.59-45.71,19.1c-15.65,5.61-31.66,10.48-47.92,14.54-2.62.86-5.24,1.79-7.89,2.61l-8,2.44c-5.33,1.71-10.76,3.1-16.24,4.66l4.24-.75A367.28,367.28,0,0,0,662.36,104c15.9-5.31,31.33-11.35,47.64-18a4.62,4.62,0,0,1,1.67-.47c.12.05-.4.36-1.24.69-15.88,6.59-30.49,12.53-46.78,17.91-1.68.59-3.36,1.12-5,1.64l-5,1.56c-3.32,1-6.6,2.09-9.89,3L634,113.13l-9.67,2.61q5-1.11,9.86-2.27l9.69-2.58c1.61-.44,3.22-.84,4.81-1.32l4.76-1.44c3.17-1,6.35-1.89,9.49-2.92,6.26-2.11,12.53-4.12,18.73-6.44,6.24-2.17,12.4-4.62,18.63-7a27.79,27.79,0,0,1,2.93-1,1.72,1.72,0,0,1,.56-.37c3-1.47,6.33-3,9.73-4.47a9.84,9.84,0,0,1,1.88-.65C715.74,85.24,715.37,85.5,714.67,85.86ZM353,64.24l0-.25.27.55,0,1.57S353.12,65.18,353,64.24Zm-10.11.24h0l.05-.9C343,64,342.93,64.24,342.92,64.48ZM475.53,97.35a270.4,270.4,0,0,1-39.09-9l9.47,2.07c2.42.71,4.87,1.3,7.33,1.89l7.37,1.82C465.54,95.26,470.54,96.24,475.53,97.35Zm-125-40.56A12.92,12.92,0,0,1,351,60a3.94,3.94,0,0,1,1.47.6,35.34,35.34,0,0,1,3.45,2.55c.08-.52.34-.31.51-.28L357,63c-1.14-1-2.25-2.1-3.36-3.2A31.89,31.89,0,0,1,350.56,56.79ZM340.89,53a1.55,1.55,0,0,1,0-.22l.62-.49Zm-1,.86.12.2C339.76,54.3,339.76,54.18,339.85,53.9ZM341,55.73a1.69,1.69,0,0,0,0-.49ZM330.84,75.37l2.63-2.8-2.62,2.63Z"/><path d="M526.67,685.8l.07.25a.49.49,0,0,1-.46-.19c1,2.25,3.63,2.76,5.81,2.29a1.1,1.1,0,0,0,1.25-1.8,1.49,1.49,0,0,1-.22-.38,8.35,8.35,0,0,0-1.65-3.3l.33.79a2.79,2.79,0,0,0-.75-.78l0,.35a2.54,2.54,0,0,0-4.58,2.18Z"/><path d="M526.8,689.9c-.4-.68-.76-1.38-1.13-2.09v-.24l-.42.83,0,0a4.45,4.45,0,0,1,2.9.15l.36,0a.82.82,0,0,0,.41-1.43l-.4-.32c-.81-1.07-2.49-2.06-3.86-1a2.76,2.76,0,0,0-.61,1.09,1.12,1.12,0,1,0,1.86,1.24l.21.27-.33.07c.42-.38,1-.2,1.47-.24l.62.18.4-1.42h-.37a1.3,1.3,0,0,1,0,.17,10.28,10.28,0,0,1-2.15,0l-1,0a.7.7,0,0,0-.42.83l.18.46-.06-.25c.6.72,1.31,1.34,1.89,2.07a.27.27,0,0,0,.39.07A.28.28,0,0,0,526.8,689.9Z"/><path d="M524,688.53a.64.64,0,0,0-.31-.41l-.14.06a3.5,3.5,0,0,1,.12.35C523.78,688.78,523.94,688.71,524,688.53Z"/><path d="M523.57,688.18c0-.09,0-.15,0-.15v.16h0Z"/><path d="M556.41,703.91c1.94,1.46,3.93,2.84,6,4.17a.15.15,0,0,0,.21-.05.17.17,0,0,0,0-.21c-2-1.34-4-2.71-5.95-4.17a.16.16,0,0,0-.21,0A.18.18,0,0,0,556.41,703.91Z"/><path d="M567.68,720.55a.16.16,0,0,0-.11.19.13.13,0,0,0,.18.1.19.19,0,0,0,.1-.2A.12.12,0,0,0,567.68,720.55Z"/><path d="M563.77,726.34a3,3,0,0,0-1.08,0,.13.13,0,0,1-.13-.09.32.32,0,0,1-.31.21,35.79,35.79,0,0,1-7.68-1.74.82.82,0,0,1-.25.24.82.82,0,0,1-1,0l-.2-.21c-.86-.73-1.75-1.43-2.6-2.17a1.83,1.83,0,0,1-.83-.12c-1-.1-2.1-.21-3.11-.41a.68.68,0,0,1-.09.35.53.53,0,0,1-.71.2l-.36-.18.89.78a.29.29,0,0,1,.1.12c.37.22.74.43,1.13.62a38.18,38.18,0,0,0,10.83,3,.14.14,0,0,1,.16.13c0,.08-.06.17-.14.17-2.7.24-5.39,1.05-8.08.68A70.33,70.33,0,0,1,541,726c-2.79-1.6-5.73-2.42-8.85-3.57-1.16-.42-2.27-.88-3.36-1.36-3.23-1.47-6.26-3.11-9.35-4.82a3.31,3.31,0,0,1,.48-6.3l-.37-.24-.51-.54a2.85,2.85,0,0,1-.74-1.91l0-.91c.15-1.59-.17-3.17.12-4.76l.38-.44,0-.2a2.9,2.9,0,0,1,.07-1.75l.38-.58A6.9,6.9,0,0,1,520.8,697a2.4,2.4,0,0,1,.53-.69,3.41,3.41,0,0,1,.95-2.07.49.49,0,0,1,.4-.56.57.57,0,0,1,.26,0h0a4.33,4.33,0,0,0,0-.51l-.19-.22-.62-.64a2.43,2.43,0,0,1-.19-.77c.29-1.27.29-1.27.61-1.7a.71.71,0,0,1,.14-.1,3.2,3.2,0,0,1-.23-.41,1.25,1.25,0,0,1,0-.25c.14-.26.14-.26.14-.37a1.06,1.06,0,0,1,.1-.2c.3-.19.3-.19.35-.27l.16-.09.35,0V689l.21-.17-.08.34.11-.3.09.27-.08-.36c.38.36.38.36.57.45a.75.75,0,0,0,.38.16,1.26,1.26,0,0,1,.06-.15l.81.75v.24a.24.24,0,0,1,.28,0l.21.19h.07l0,0h.33l1.2-.05a2.6,2.6,0,0,1,.32.35l0-.18c0-.13.18-.33.15-.38a17,17,0,0,0-2.62-2.8.42.42,0,0,1-.23-.54.41.41,0,0,1,.54-.22,8.93,8.93,0,0,1,7.18,4c.52.47,1,.91,1.59,1.36l0-.17.36.45,0,0-.1-.63c0-.09-.11-.18-.17-.27a26.82,26.82,0,0,1-3.24-3.56A23.45,23.45,0,0,1,530,685.7a.36.36,0,1,1,.44-.58c2.44,1,4.86,2.75,5.83,5.28a2.08,2.08,0,0,1,.91,1.05l0,0-.05-.51c.26.26.25.66.46.95l.18-.56c1.35,1.18,3.08,2,4.09,3.51l.13.14a5.63,5.63,0,0,1,2.29.34l-.56-.53h0a3.64,3.64,0,0,1,1.6.48,5,5,0,0,1,2.36,4.16c2.71,1.34,5.4,2.71,8.19,3.88a.29.29,0,0,1,.15.39.31.31,0,0,1-.39.19,45.05,45.05,0,0,1-6.25-2.23,43.42,43.42,0,0,0,4.5,3.31l.66.29a2,2,0,0,1,.57.43,39.88,39.88,0,0,0,6.34,3.26c2,.72,3.78,1.29,5.85,1.86a34.18,34.18,0,0,1,8.1,2.9.74.74,0,0,1,.33,1,.79.79,0,0,1-1,.46c-5.89-1.83-11.83-3.35-17.19-6.66l-1.71-1.07a.77.77,0,0,1-.07.16,1.18,1.18,0,0,1-.47.47c.63.43,1.24.89,1.84,1.38a18.75,18.75,0,0,1,6,2.59,22.23,22.23,0,0,1,3.24,3.19c1.71.67,3.46,1.27,5.17,2a.13.13,0,0,1,.1.17.15.15,0,0,1-.17.13,29.93,29.93,0,0,1-4-.79,1.54,1.54,0,0,1-.22,1,1.51,1.51,0,0,1-.87.66l.76.47a.36.36,0,0,1,.1.48.34.34,0,0,1-.46.15l-3.11-1.87c-1.36-.53-2.71-1.09-4-1.67a2.17,2.17,0,0,1-.11,1h0l.6.31a40.07,40.07,0,0,1,11.63,4.91.17.17,0,0,1,0,.22.15.15,0,0,1-.2.07,34.18,34.18,0,0,0-3.33-1.88h0a.19.19,0,0,1-.11.2.14.14,0,0,1-.18-.09.18.18,0,0,1,.11-.2,42.06,42.06,0,0,0-6.65-2.55,50.27,50.27,0,0,1,5.6,3.24l.78.05a.17.17,0,0,1,.09.19.17.17,0,0,1-.18.12l-.21,0a.84.84,0,0,1,.18,1.13.83.83,0,0,1-1.11.34c-1-.49-2-1-3-1.54l-.35-.11h-.44c1.43,1,2.84,2.11,4.23,3.18a.31.31,0,0,1,.1.41.31.31,0,0,1-.39.14,78.44,78.44,0,0,1-8.79-3.37l-3.78.36.34.22c2.94,1.68,6.47,1.31,9.54,2.57a.15.15,0,0,1,.07.2.15.15,0,0,1-.2.09,39,39,0,0,0-4.78-1,32.82,32.82,0,0,0-4-.72c2.28,1.07,4.81,1.48,7.16,2.36a.25.25,0,0,1,.2.23.2.2,0,0,1,.12-.08,4.74,4.74,0,0,1,1.13,0,.13.13,0,0,1,.11.17A.17.17,0,0,1,563.77,726.34Zm-34-30.93a.62.62,0,0,1,0-.13l.13.28,0,.76Zm-5,0h0c0-.26,0-.44,0-.44C524.76,695.2,524.76,695.34,524.75,695.45Zm25.79,7.87a12.68,12.68,0,0,1-3.1-2.48l.88.38Q549.45,702.22,550.54,703.32Zm-22-11.6a5.47,5.47,0,0,1,.23,1.57,2,2,0,0,1,.74.32,18.5,18.5,0,0,1,1.73,1.29c0-.25.17-.15.26-.13l.25.08c-.56-.52-1.11-1.05-1.67-1.61A17,17,0,0,1,528.52,691.72Zm-5-1.79s0-.07,0-.1l.3-.25Zm-.49.43.06.09C523,690.55,523,690.49,523.05,690.36Zm.62.88a.79.79,0,0,0,0-.24ZM519,700.82l1.23-1.38-1.23,1.3Z"/><path d="M562.92,153.33l-.57-.27c.14-.21.5-.25,1-.2a9.68,9.68,0,0,0-7-.1A10,10,0,0,0,552,156c-1.14.18-1.76.93-1.34,1.67a3.2,3.2,0,0,0,2.86,1.14,6.51,6.51,0,0,1,.92.18c1.26.5,2.53.9,3.86,1.32.66.2,1.33.39,2,.57l2.11.54c-.64-.27-1.27-.51-1.89-.75a13.49,13.49,0,0,0,2.44.44l-.58-.5a10.55,10.55,0,0,0,4.36.73,2.59,2.59,0,0,0,2.5-1.53c.58-1.85-1.68-4.8-4.85-6Z"/><path d="M555.34,148.66a39.48,39.48,0,0,1,5.12,1.05l.46.29-1-1.49,0,.1c-.5,1.5-2.18,2.37-3.83,3.08l-.53.33a.79.79,0,0,0-.14.83,2.27,2.27,0,0,0,2.15,1.12l1.08,0c2.89.38,7,.31,6.85-2.55,0-.67-.79-1.46-1.29-2.19a3.35,3.35,0,0,0-3.27-1.7c-1.27.19-1.87,1.17-1.36,2.17l-.75-.09c.08-.15.18-.29.28-.45.15.93-.82,1.32-1.37,1.93l-1.08.47,2,2,.46-.39c-.1-.09-.28-.21-.28-.22a13.46,13.46,0,0,1,2.78-2.21l1.21-1.13c.2-.53-.25-1.23-1-1.56l-1.06-.38.52.24c-2.07-.2-4.08-.09-6-.13-.32,0-.59.16-.59.41S555,148.63,555.34,148.66Z"/><path d="M561.18,146.9a1.9,1.9,0,0,0,1.16.16,1.67,1.67,0,0,0,0-.24l-.79-.31C561,146.29,561,146.57,561.18,146.9Z"/><path d="M562.39,146.82l.34.14-.29-.21,0,0Z"/><path d="M569.09,337.58c.19,4.3.14,8.61,0,12.92s-.3,8.62-.44,12.93q-.48,12.94-1,25.9-1,25.94-2.22,51.89a4.37,4.37,0,0,0,.2,2.2c.15.06.34-.84.38-1.91q1.26-26,2.28-51.82l1-25.84.45-12.91c.18-4.31.25-8.61.07-12.91a5.47,5.47,0,0,0-.45-2.28C569.15,335.69,569.05,336.5,569.09,337.58Z"/><path d="M545.76,595.73c0-.83-.16-.8-.26.06a18.9,18.9,0,0,0-.08,2.84c0,.7.17.67.26-.06A18.49,18.49,0,0,0,545.76,595.73Z"/><path d="M537.46,588.22c-.27-4.85-.56-9.44-1-13.55a19.5,19.5,0,0,1,0-2.27c-.19.28-.39-.64-.51-2.39-1.25-17.21-2.36-35.07-3.31-53.19s-1.78-36.48-2.58-54.71a4,4,0,0,1-.65-1.55,54.14,54.14,0,0,1-1.07-12.85l.14-4c.25-16,.55-32,1.07-47.89-.31-3.26-.52-7-.57-11.16-.78-13.78-1.58-27.61-1.9-41.75-.23.89-.5,1.42-.76,1.41-.63-.29-1-3.57-.65-7.38q.23-2.89.55-5.77c-.81,5.51-1.35,11.05-1.61,16.56,0,.79-.07,1.53-.14,2.2-.1,6.06-.18,12.18-.18,18.4.06,54.34,3.38,105.42,7,156.1a13.82,13.82,0,0,1,0,2.87c-.11.49-.27.4-.37-.53-3.4-32-8.08-59.63-10.65-95.77-1.52-21.5-2.76-42.88-3.63-64.4q-.28-8.07-.56-16.17c-.1-2.71-.19-5.41-.14-8.12s.22-5.42.47-8.14.65-5.42,1.14-8.14,1.13-5.45,1.87-8.18a167.64,167.64,0,0,1,5.52-16.42c2.37-5.73,4.83-11.44,7-17.12.56-1.44,1.14-2.87,1.66-4.3l.78-2.14.82-2.33.79-2.32.42-1.2c.14-.45.28-.76.42-1.12.57-1.34,1-2.45,1.48-3.58a26.41,26.41,0,0,0,1.68-6.71,20.79,20.79,0,0,0-.32-6.81,19.72,19.72,0,0,0-2.54-6.41c-.61-1.06-1.39-2.11-2.28-3.51a21.13,21.13,0,0,1-2.67-5.39c-.15-.55-.31-1.1-.42-1.65s-.2-1.11-.27-1.65l-.12-1.59,0-1.59a18.55,18.55,0,0,1,.4-3.19c.09-.54.27-1,.41-1.57a13.39,13.39,0,0,1,.52-1.51,26.78,26.78,0,0,1,2.76-5.18c1-1.43,1.93-2.65,2.68-3.65l.49-.69a2.35,2.35,0,0,0,.19-.3l.08-.12h0a1.19,1.19,0,0,0,.08-.16.47.47,0,0,0,0-.35.48.48,0,0,0-.15-.32c0-.06-.06,0-.15-.14a10,10,0,0,0-.89-.78c-.38-.3-.8-.6-1.29-.93l-.37-.25-.78-.51c-.58-.36-1.14-.74-1.7-1.1s-1.1-.76-1.62-1.15-1.11-.72-1.56-1.14l-1.36-1.24c-.43-.41-.8-.85-1.21-1.26a10.56,10.56,0,0,1-2.62-5.9c0-.57,0-1.15,0-1.71a12.19,12.19,0,0,1,.29-1.64,15.73,15.73,0,0,1,.46-1.51c.2-.48.48-.93.71-1.38a13.56,13.56,0,0,1,5.05-4.68c2.27-1.35,5.31-2.09,7.9-2.92.79-.25,1-.3,1.37-.41l.53-.15.27-.07c.11,0,0,0,.06,0s.09,0,.12,0a1,1,0,0,0,.21-.1c.09-.06.27-.17.15-.3a.8.8,0,0,0-.34-.18l-.11,0s0,0,0,0,0,0,0-.05l-.64-.14L540,185l-5.5-1.06c-1.89-.39-3.86-.78-5.9-1.32a49.38,49.38,0,0,1-6.5-2.08,28.7,28.7,0,0,1-7.52-4.4c-.68-.62-1.35-1.22-2-1.93a24.58,24.58,0,0,1-2-2.44,20.56,20.56,0,0,1-1.74-3c-.26-.55-.5-1.11-.73-1.68s-.39-1.18-.57-1.78-.34-1.22-.46-1.83-.2-1.21-.28-1.82-.14-1.26-.16-1.84,0-1.15,0-1.74,0-1.18.07-1.74l.12-1,.05-.51c.09-.68.19-1.37.3-2.05a50.48,50.48,0,0,1,4.18-12.12c.39-.81.8-1.66,1.21-2.45l1.18-2.24c.82-1.57,1.59-2.84,2.43-4.26q2.41-4.09,4.87-7.87c2.46-4.46,6-6.54,8-4.56,1.18,1.19,1.48,3.35,1,5.64.23-.29.46-.56.7-.81l1.27-1a4.51,4.51,0,0,1,3.62-1.13l1.47.26c2.35,1,5.21,1.14,7.56,2.8l.34,1.08.37.09a4.28,4.28,0,0,1,2.86,1.47l.61,1.18a12.5,12.5,0,0,1,1.06,4.35,4.17,4.17,0,0,1,.62,1.48,6,6,0,0,1,2.54,3.46.84.84,0,0,1,.55,1.14,1,1,0,0,1-.35.37h0c.35.21.46.27.89.5.38,0,.61,0,.61,0,1-.14,1-.14,1.84-.23a5.36,5.36,0,0,1,1.62.61c2,1.89,2,1.92,2.4,2.87,0,.1,0,.21,0,.3.77.16.82.18,1,.24a3.19,3.19,0,0,1,.49.29c.32.51.32.51.53.67a2.79,2.79,0,0,1,.25.38c0,.64,0,.64.07.8a1,1,0,0,1,0,.31c-.29.25-.41.34-.46.38l-1.59-1.1.07.48-.53-.54.42.51-.61-.23.75.36a4.3,4.3,0,0,0-1.49.15,1.47,1.47,0,0,0-.77.27,2,2,0,0,1,.19.26l-2.32.13c-.16-.08-.3-.17-.43-.25a.4.4,0,0,1-.39.31l-.57.07-.08.1,0,0-.31.35-.06.08h0l-1.35,1.48a8.8,8.8,0,0,1-1,0l.37.12c.25.09.35.52.47.53,2.78.24,5.38,0,8.22.16a1.33,1.33,0,0,1,1.29.45.5.5,0,0,1-.27.86,15.07,15.07,0,0,1-7.11,2.87c-1.36.24-2.8.4-4.26.51s-2.84.17-4.27.19c-1.33.22-2.61.49-3.9.82l.29.08c-.38,0-.7.09-1.06.14l-.1,0,1.07.24.6,0c2.92-.77,6.18-.6,9.56-.51A16.91,16.91,0,0,1,556,156l2.79.53a1.16,1.16,0,0,1,1,.55c.13.29-.12.52-.55.51a56.63,56.63,0,0,1-15.66.76,7.42,7.42,0,0,1-2.53.3h0l.79.21c-.64.1-1.19-.09-1.81,0l.65.43c-.73.18-1.51.41-2.12.63s-1.39.49-1.91.71l-.89.33-.78.27c-.25.07-.58.18-.79.22l-.73.13-.2.06a1,1,0,0,1,0,.22c0,.07-.1.15-.08.12h0l-.38-.11-.29-.06c-.22-.06-.54-.1-.69-.14l-.46-.11a5.66,5.66,0,0,0-1-.08,2.15,2.15,0,0,0-.52,0l-.22,0h0l.12,0,.21-.07c.08,0,.07,0,.26-.11a4.49,4.49,0,0,0,.79-.4l.52-.29-.08.07c-.08,0,0,.13-.06.22a.49.49,0,0,0,0,.33,2.88,2.88,0,0,0,.12.4c-.07-.2-.09-.38-.15-.55a3,3,0,0,1,.06-.39l.12-.11s-.58.31-.64.37a4.58,4.58,0,0,1-.54.28l-.31.12-.12.06a2.26,2.26,0,0,1-.31.1h0l.39,0a2.1,2.1,0,0,1,.36,0,6,6,0,0,1,.75.05,7,7,0,0,1,.69.15l.78.15-.83-.16a4.53,4.53,0,0,0-.75-.15,2.6,2.6,0,0,0-.4,0l-.32,0a2.6,2.6,0,0,0-.4,0l-.23,0c-.08,0,0,0,0,0h0l.17,0,.34-.14a3.92,3.92,0,0,0,.62-.29l.28-.17c.15-.08.31-.16.45-.25l.22-.13c.08,0,0,0,0,0l-.07.05s0,.1,0,.16-.05.12,0,.21l.07.27a2.71,2.71,0,0,0,.27.63,13.13,13.13,0,0,0,2.8,3.11,43.37,43.37,0,0,0,4.38,3.25c2.2,1.43,4.64,2.88,7.2,4.3l.48.27.24.14.38.19a11.88,11.88,0,0,0,1.55,1c1,.67,2.11,1.13,3.14,1.69a27.69,27.69,0,0,1,4.89,3.89,8.57,8.57,0,0,1,.85,1.08c.27.36.5.76.75,1.13a10.55,10.55,0,0,1,.51,1.25l.21.67a5.35,5.35,0,0,1,.08.7c0,.48,0,1,0,1.44a7.22,7.22,0,0,1-.3,1.37,7.06,7.06,0,0,1-1.13,2.28,14.42,14.42,0,0,1-1.77,1.91c-.36.29-.73.58-1.13.86s-.82.54-1.29.79a44.74,44.74,0,0,1-6,2.62l-2.79,1-.89.33-.11,0h0l-.07,0-.15.05c-.35.1-.69.2-1,.32a3.55,3.55,0,0,0-1.85,1.15,1,1,0,0,0,0,1,2.48,2.48,0,0,0,.56.71c.42.4.88.74,1.29,1.09l1.4.81c.66.41,1.33.83,2,1.34a23.57,23.57,0,0,1,2.13,1.73,17.55,17.55,0,0,1,2.15,2.49,12.71,12.71,0,0,1,2.29,6.07,11.78,11.78,0,0,1-1,6.38,10.22,10.22,0,0,1-.76,1.47,10.61,10.61,0,0,1-.91,1.38l-.9,1.16-.75.87c-1,1.11-1.92,2-2.64,2.89a10.75,10.75,0,0,0-2.76,4.7c0,.42-.15.85-.17,1.27a5.8,5.8,0,0,0,0,1.19,6,6,0,0,0,.85,2.37c1,1.86,3,4.35,4.42,7a55.56,55.56,0,0,1,6.42,17.3,80.67,80.67,0,0,1,1.15,9.24l.18,2.16a17.22,17.22,0,0,0,.25,1.85q.35,1.88.72,3.72c.55,2.67,1.19,5.34,1.83,8s1.4,5.4,2.14,8.09c1.47,5.38,3.06,10.8,4.4,16.18a165.34,165.34,0,0,1,3.41,16.18c.37,2.22.34,4.21.05,4.6-.32.23-.76-1.25-1.09-3.47-.62-3.87-1.39-7.73-2.27-11.62q-.66-2.91-1.42-5.83t-1.49-5.83c-1-3.88-2.1-7.8-3.09-11.68l-1.45-5.85c-.45-2-.87-3.86-1.28-5.81l-.58-2.9c-.16-.91-.33-1.8-.48-2.71l-.22-1.37c-.08-.48-.12-.81-.16-1.33l-.22-3.11a64.77,64.77,0,0,0-2.08-13.21,53.38,53.38,0,0,0-5-12.2c-1.07-1.9-2.31-3.72-3.39-5.32a21.37,21.37,0,0,1-1.34-2.2,6.57,6.57,0,0,1-.66-1.81,9.24,9.24,0,0,0,1.46,3.26c.81,1.28,1.84,2.74,2.77,4.28a51.81,51.81,0,0,1,4.72,9.91,52.62,52.62,0,0,1,2.57,10.87c.25,1.86.39,3.73.5,5.57s.12,3.69.28,5.08c.2,1.57.39,3.06.64,4.65s.53,3.29.83,4.93c.56,3.27,1.26,6.64,1.93,9.95,1.36,6.66,2.82,13.37,4,20.09.65,3.43,1.23,6.88,1.71,10.34a85.52,85.52,0,0,1,.77,10.17c.59,8.58.17,17,.06,25.47s-.33,16.81-.49,25.22c-.34,16.81-.64,33.72-.83,51.24-.37,29.92-.84,56.11-1.92,85.91-1.55,41.85-4.27,80-10.3,121.29-.77,5.49-1.79,10.58-2.14,11.22s0-3.33.7-8.84,1.23-10.77,1.81-16.15,1.05-10.75,1.51-16.12c.91-10.74,1.74-21.47,2.39-32.21,1.35-21.47,2.27-43,3-64.57,1.43-43.22,2.08-86.94,3.31-132,.24-9.72.47-19.28.71-28.79a.61.61,0,0,1-.37.23c-.48,0-.91-.92-1.26-2.45q-.46,16.2-1.19,32.61c.38,30.4.45,60.84-1.33,93.23-1.23,22.25-3.07,42.38-4.79,63-.87,26.08-2,52.09-3.91,78.42a16.06,16.06,0,0,1-.3,2.53c-.1.37-.14-.2-.08-1.26.91-18.11,1.55-36.67,2-55.41-.52,3-1.07,4.7-1.58,4.46s-.91-2.53-1.13-6l-.52,12.74c-.11,2.63-.39,4.69-.63,4.61s-.4-2.15-.31-4.64q.84-26,1.69-51.92c.15-20.77.31-41.46.46-62.27a18.05,18.05,0,0,1-1.89,6h0q-.06,4.85-.12,9.64.76,44.08,0,89.1t-3.25,90.48a14.05,14.05,0,0,1-.2,2.18,10.72,10.72,0,0,1,0-2q1.34-27.47,2.15-54.76v.08c-.08.73-.2.86-.24.06a21,21,0,0,1,.09-2.85c.09-.85.21-.77.25-.08,1-33.91,1.31-67.58,1-100.81q-.6,46.31-2,92.57c0,3.37.08,6.72.13,10.14a15.6,15.6,0,0,1-.2,2.52c-.09.25-.17-.43-.17-1.38s0-1.89,0-2.83c-.19,5.83-.69,10.33-1.17,10.23-.48-.32-.82-5.35-.75-11.41q.12-24.36.25-48.61l-.08-5.25c-.11-1.77-.21-3.52-.31-5.28-.47,25.16-.91,50.28-1.13,75.25a14.56,14.56,0,0,1-.28,4,13,13,0,0,1-.32-3.84c-1-44-2.12-88.57-2.7-133.32-1.38-14.7-2.77-29.45-4.19-44.47,0,1.89,0,3.8,0,5.72.06,24.32,1.24,46.82,2.42,69.11s2.34,44.4,2.87,68a8,8,0,0,1-.14,2.32c-.11.12-.23-.68-.25-1.88-.65-23-2-44-3.11-66.79-.92-18.9-1.78-36.87-2.94-54.44.66,35.9,2.78,70.34,4,105.9a30.28,30.28,0,0,1,0,4.11,2.77,2.77,0,0,1,.18.88c.41,4.44.71,9.29,1,14.25a12.85,12.85,0,0,1,0,2.64C537.66,589.85,537.55,589.28,537.46,588.22ZM542.73,148l.21.06h-.58l-1.18-.48S542,147.74,542.73,148Zm5.41-7.13h0l.71.38Zm4.64,118.63a52,52,0,0,0-5.56-14.65c-1.25-2.25-2.8-4.39-3.9-6.16a7.29,7.29,0,0,1-1.38-4.67,8.63,8.63,0,0,1,1.58-4.54,44.52,44.52,0,0,1,4.09-4.73c.44-.51.84-.94,1.33-1.57a16.58,16.58,0,0,0,1.51-2.24,12.08,12.08,0,0,0,1.52-5.09,12.59,12.59,0,0,0-3.89-9.68,14.14,14.14,0,0,1,3,4.31,11,11,0,0,1,.78,2.5,8.24,8.24,0,0,1,.16,1.3,9.65,9.65,0,0,1,.06,1.31,12.27,12.27,0,0,1-1.32,5.06,16,16,0,0,1-1.41,2.25c-.59.78-.91,1.17-1.35,1.67-2.64,2.89-4.59,4.77-5.4,7a8.16,8.16,0,0,0-.42,1.72,5.65,5.65,0,0,0-.11.91,6.28,6.28,0,0,0,0,.87,7.65,7.65,0,0,0,1.26,3.46c.8,1.33,1.89,2.87,2.9,4.52a47.85,47.85,0,0,1,2.8,5.19A51,51,0,0,1,552.78,259.46ZM550.17,149a18.27,18.27,0,0,1-2.9-1,6,6,0,0,1-1.35.72c-1.32.5-2.69.95-4,1.4.36.19,0,.3-.07.41l-.4.28a43,43,0,0,1,4.41-1.13A26,26,0,0,1,550.17,149Zm9-4.44.22.11.08.68Zm-.18-1.15-.25,0C558.7,143.15,558.81,143.21,559,143.43Zm-2.33-.18a1.9,1.9,0,0,0,.45.23ZM545.17,126.9l1.08,3.34-1-3.27Z"/></svg>