<svg id="Layer_1" data-name="Layer 1" xmlns="http://www.w3.org/2000/svg" viewBox="0 0 1080 726.57"><path d="M325.06,429.92c.17.08.34.19.51.28a1.31,1.31,0,0,1-1.13.36,10.92,10.92,0,0,0,7.74,0,18.73,18.73,0,0,0,6.63-4.07,2.58,2.58,0,0,0,2.65-2.31,2.41,2.41,0,0,0-2.72-2.14,4.43,4.43,0,0,1-1-.34,20.64,20.64,0,0,0-8.31-3.13l1.89.82a7.71,7.71,0,0,0-2.71-.23c.14.18.3.42.44.61a7.55,7.55,0,0,0-4.88,0,6.2,6.2,0,0,0-3.55,2.87c-1.42,2.7.05,5.72,3.09,6.77Z"/><path d="M331.39,436.05c-1.7-.52-3.38-1.1-5.08-1.69l-.38-.35.49,1.84v-.13c1.09-1.83,3.33-2.88,5.44-3.69l.74-.39a1.53,1.53,0,0,0,.54-1.1,1.73,1.73,0,0,0-1.87-1.66l-1.23,0a10.83,10.83,0,0,0-5.15.33,5,5,0,0,0-3.44,3.42c-.19.81.34,1.66.61,2.49a2.46,2.46,0,0,0,2.88,1.9,2.5,2.5,0,0,0,2.26-2.62l.77.13-.48.54c.18-1.14,1.43-1.61,2.29-2.36l1.39-.55-1.34-2.74-.7.51c.08.12.23.28.22.29a30.85,30.85,0,0,1-4,2.88l-1.73,1.45a1.29,1.29,0,0,0,.52,1.84l1,.44-.47-.29c2.11.22,4.28.25,6.36.59a.67.67,0,0,0,.79-.42A.55.55,0,0,0,331.39,436.05Z"/><path d="M324.51,437.76a1.59,1.59,0,0,0-1.16-.18c-.08.16-.13.23-.15.27l.74.37C324.46,438.48,324.63,438.16,324.51,437.76Z"/><path d="M323.2,437.85l-.3-.15.23.24c.05,0,.05,0,.05,0Z"/><path d="M432.69,623.69c.38.15.77.26,1.17.39.22,0,.34.1.65.17l1,.24c.35,0,.67.14,1,.19l1.14.14,1.14.17,1.16,0a36.44,36.44,0,0,0,9.62-.74,46.14,46.14,0,0,0,18.77-8.89,50.59,50.59,0,0,0,7.73-7.48,59.52,59.52,0,0,0,6.32-9.29,73.57,73.57,0,0,0,7.73-22.28,4.67,4.67,0,0,0,.13-2.06c-.11-.07-.31.76-.51,1.74a73.17,73.17,0,0,1-7.65,22.16,59.15,59.15,0,0,1-6.22,9.23,49.47,49.47,0,0,1-7.61,7.43,45.87,45.87,0,0,1-18.51,8.87,35.93,35.93,0,0,1-9.48.81,17.1,17.1,0,0,1-2.28-.19c-.73-.12-1.53-.16-2.17-.32a21.82,21.82,0,0,1-2.82-.77c-.39-.13-.76-.18-.87-.07S432.3,623.54,432.69,623.69Z"/><path d="M564,439c-.94.13-.9.23.09.25.84,0,2.34-.07,3.27-.1s.77-.17-.08-.25A15.27,15.27,0,0,0,564,439Z"/><path d="M556.94,447.93a50,50,0,0,0-12.84,4.74,21.75,21.75,0,0,1-2.08.95c.17,0,.05.15-.29.39a18.78,18.78,0,0,1-1.65,1.09c-1.88,1.06-3.62,2.35-5.4,3.58s-3.43,2.67-5,4.2a64.53,64.53,0,0,0-4.57,4.64l-2,2.52c-.72.82-1.27,1.76-1.91,2.63a50.92,50.92,0,0,0-6,11.38,56.75,56.75,0,0,0-3.09,12.58,87.94,87.94,0,0,0-.51,13.56c.17,4.63.67,9.39,1.26,14.23s1.34,9.78,2,14.83,1.38,10.22,1.8,15.55a6,6,0,0,1,.58,1.78A46.13,46.13,0,0,1,518,563a70.35,70.35,0,0,1-.18,9.08c-.16,1.61-.32,3.21-.57,4.81a104.73,104.73,0,0,1-7.68,28.55A84.94,84.94,0,0,1,493,630.75a61.07,61.07,0,0,1-10.43,9.94c-1.72,1.44-3.58,2.71-5.42,4s-3.79,2.46-5.81,3.5-4.07,2.08-6.16,3c-1.06.46-2.15.86-3.23,1.29s-2.18.81-3.3,1.16c-2.21.76-4.52,1.31-6.83,1.86a69.64,69.64,0,0,1-7.13,1.12,70.93,70.93,0,0,1-7.33.39c-2.48-.11-4.93-.16-7.53-.52,1.26.35,2,.62,2,.83-.23.2-1.56.29-3.56.07l-.79-.09a4.7,4.7,0,0,1-.95-.13c-.64-.11-1.33-.25-2.05-.4a44.6,44.6,0,0,1-4.51-1.32,50,50,0,0,1-9-4.12A52.59,52.59,0,0,0,424,657c1.14.31,2.34.64,3.47.83s2.06.41,3.09.55l1.55.23,1.49.15,3,.26c1.16.09,2.22.08,3.18.13a70.58,70.58,0,0,0,25.43-4.84,79.93,79.93,0,0,0,23.47-14.24,77.59,77.59,0,0,0,9.42-9.68c1.47-1.73,2.72-3.52,4-5.3s2.46-3.63,3.51-5.53a95.78,95.78,0,0,0,9.79-23.4,110.54,110.54,0,0,0,3.72-24.07,109.76,109.76,0,0,0,0-11.9l-.16-2.91c-.07-1-.17-1.91-.25-2.86l-.27-2.84-.32-2.78c-.88-7.4-2.07-14.43-3.06-21.22-2-13.54-3.12-26.26-.28-37.82a10.36,10.36,0,0,1,.85-2.5c.24-.4.33-.27.11.54l-.36,1.32c-.12.43-.17.91-.27,1.36-.16.91-.33,1.81-.49,2.71l-.3,2.75-.15,1.36-.06,1.4c0,.92-.07,1.84-.1,2.76s0,1.87,0,2.8.06,1.87.13,2.81.11,1.88.19,2.82c.73,7.61,2.2,15.35,3.83,23.7.82,4.13,1.63,8.51,2.39,13s1.4,9.29,1.76,14.38a113.29,113.29,0,0,1-2.22,32.75A98.17,98.17,0,0,1,502,633.11a88.23,88.23,0,0,1-16.44,16.09,85.36,85.36,0,0,1-20.61,11.31,76,76,0,0,1-24.19,5l-3.21.08c-1.06,0-2.15-.06-3.22-.1s-2.15-.09-3.26-.18-2.26-.23-3.39-.41l-1.72-.27a16.2,16.2,0,0,1-2-.36c-1.33-.27-2.65-.62-4-1s-2.62-.8-3.92-1.23-2.57-1-3.82-1.51c-10-4.31-18.87-11.66-24.12-21.36a49.79,49.79,0,0,1-5.34-15.61,55.52,55.52,0,0,1-.75-8.37c0-1.4,0-2.81.07-4.23l0-.53a2.35,2.35,0,0,1,0-.53l.08-1.08c.06-.62.09-1.22.16-1.79.29-2.45.69-4.75,1.16-7,.24-1.1.48-2.22.75-3.27l.41-1.58.43-1.46c.58-1.92,1.14-3.89,1.76-5.77s1.32-3.64,2-5.45c2.73-7.07,5.73-13.44,8.6-19.35s5.6-11.25,7.93-16.32c1.2-2.56,2.17-4.92,3.16-7.29l1.27-3.4c.42-1.13.68-2.16,1-3.23a43.33,43.33,0,0,0,1.92-11.11c-.06-.79-.09-1.57-.08-2.34s-.22-1.41-.27-2.11-.34-1.39-.45-2.08a6,6,0,0,0-.32-1.05c-.12-.35-.23-.7-.33-1.06-1.92-5.6-6.17-11.61-12.08-16.36a43.69,43.69,0,0,0-6.3-4.24c-1.05-.68-2.22-1.11-3.3-1.69l-1.67-.68-.83-.35c-.29-.11-.63-.21-.93-.32l-1.88-.66-1.94-.54-1-.29-1-.22-2-.46c-1.39-.21-2.7-.55-4.13-.68-.7-.09-1.39-.21-2.1-.28l-2.16-.18c-.7-.09-1.45-.1-2.18-.13l-1.1-.05h-.21l-.65,0-1.32.13c-.88.09-1.72.09-2.62.2-3.49.26-7.07.67-10.74,1.17-2.68.81-5.57-1.28-6.5-4.9a7.57,7.57,0,0,1,.94-6l-.77.07-1.25-.27a5.14,5.14,0,0,1-3.15-2.09L339.36,473c-1.65-2.71-4.05-4.73-5.68-7.58v-1.19l-.3-.29a6.17,6.17,0,0,1-2.18-2.78l-.22-1.41a13.72,13.72,0,0,1,.32-4.75,5,5,0,0,1-.11-1.76,7,7,0,0,1-1.34-4.49,1,1,0,0,1-.15-1.39,1.17,1.17,0,0,1,.48-.31h0a6.94,6.94,0,0,0-.71-.77l-.62-.11c-1,0-1,0-1.92-.09a5,5,0,0,1-1.44-.91c-1.37-2.31-1.38-2.31-1.5-3.4l.09-.34c-.74-.21-.8-.23-1-.3a2.68,2.68,0,0,1-.42-.35c-.16-.57-.16-.57-.33-.75a2.53,2.53,0,0,1-.13-.43c.23-.71.23-.71.19-.9a1.92,1.92,0,0,1,.14-.36l.62-.44,1.29,1.29.09-.56.37.64-.26-.6.56.28-.67-.44a5.21,5.21,0,0,0,1.63-.12,2.26,2.26,0,0,0,.9-.28,2.05,2.05,0,0,1-.11-.33c1.26,0,1.26,0,2.5.07a3.12,3.12,0,0,1,.36.37.54.54,0,0,1,.53-.33H331l.12-.11v-.05l.47-.39.09-.09h0c.68-.57,1.37-1.1,2.07-1.64a7.33,7.33,0,0,1,1.1.14l-.35-.24c-.23-.17-.14-.75-.25-.79a20.2,20.2,0,0,0-4.36-.68c-1.48-.09-3-.14-4.46-.15a1,1,0,0,1-1.22-.49.86.86,0,0,1,.62-1.09c5.18-4.14,12.83-4.8,19.25-2.93l5,.44-.25-.27,1.31.37h.14l-1-1-.7-.26a33.21,33.21,0,0,1-5.68-.88c-1.87-.41-3.74-.83-5.68-1.13s-3.92-1-5.95-1.46a.83.83,0,0,1-.92-.72.86.86,0,0,1,.89-.77c6.22-1.71,13.89-1.68,19.26,1.59a5.88,5.88,0,0,1,3.29.81h.05l-.75-.83c.88.18,1.39.89,2.2,1.18-.11-.37-.23-.79-.34-1.15,2.2.36,4.46.42,6.71.74,1.12.15,2.23.33,3.3.58a16.2,16.2,0,0,1,3.12,1.15,3.47,3.47,0,0,1,.46.13,20.92,20.92,0,0,1,2.75-.86l.72-.13a1.17,1.17,0,0,1,.24,0l1.23.1,2.5.23A98.6,98.6,0,0,1,386.31,429l-3.62-.86-3.59-.71c-1.2-.22-2.41-.47-3.61-.63l-3.39-.5h0l.22,0,.49,0,1,.08,2,.15c1.31.09,2.63.3,3.95.45,2.64.3,5.3.81,8,1.32A97,97,0,0,1,404,433.22a94.24,94.24,0,0,1,21.76,12.06,91.85,91.85,0,0,1,17.29,16.82A79.55,79.55,0,0,1,454,480.42a44,44,0,0,1,1.69,4.37c.48,1.44,1,2.77,1.33,4.13a54.71,54.71,0,0,1,1.53,7.35,75,75,0,0,1,3.37,24.08A86.23,86.23,0,0,1,458,543.28c-.58,1.74-1.1,3.56-1.75,5.21l-1.94,5c-1.38,3.16-2.77,6.34-4.26,9.24-2.92,5.92-6,11.41-8.83,16.56s-5.61,10.11-7.88,14.83a101.88,101.88,0,0,0-5.54,13.67,38,38,0,0,0-1.27,5.65c0,.25,0,.34-.05.46s0,.25,0,.38,0,.5,0,.75a9.53,9.53,0,0,0,.14,1.51,8.27,8.27,0,0,0,1,2.81,7.71,7.71,0,0,0,2,2.2c.64.49,1.16,1,1.14,1.3s-.75.22-1.5-.29A8.35,8.35,0,0,1,426,619a10.68,10.68,0,0,1-1-4.79c0-.2,0-.42,0-.61s0-.24,0-.4,0-.33.06-.49c.09-.66.2-1.35.34-2.06s.31-1.44.5-2.19l.3-1.13.4-1.23.79-2.47c.23-.82.63-1.67.93-2.51l1-2.52,1.14-2.58c3.05-6.91,7-14.07,11.21-21.85a200.53,200.53,0,0,0,12.15-25.78A173.62,173.62,0,0,1,443.18,570c-3.73,6.58-7.46,12.72-10.69,18.69a109.11,109.11,0,0,0-7.87,17.44,37.09,37.09,0,0,0-1.17,4c-.15.64-.3,1.28-.4,1.88s-.21,1.28-.25,1.62a14.47,14.47,0,0,0,.32,5.16,10.52,10.52,0,0,0,2.68,4.53,17.3,17.3,0,0,0,4.22,3,17.65,17.65,0,0,0,3.15,1.05c.45.11,1.32.31,2.06.43s1.6.2,2.42.3a39.27,39.27,0,0,0,10.13-.37,45.25,45.25,0,0,0,10.14-3,51.29,51.29,0,0,0,9.48-5.33,53.12,53.12,0,0,0,15-16.31A71.7,71.7,0,0,0,491,580.87a81.48,81.48,0,0,0,1.52-10.45,86.45,86.45,0,0,0,.31-10.44c-.14-7-.93-14.34-1.8-22s-1.82-15.66-2.07-24.33c0-2.18-.11-4.35,0-6.61,0-1.12,0-2.23.1-3.38l.24-3.45c.06-1.15.22-2.32.37-3.5s.29-2.36.47-3.54.45-2.4.68-3.6l.37-1.8.47-1.81A73,73,0,0,1,495,475.87c.73-1.61,1.42-3.24,2.2-4.81l2.53-4.6a78.21,78.21,0,0,1,12.8-16,80.21,80.21,0,0,1,34.42-19.62,77.11,77.11,0,0,1,19.86-2.75,79.41,79.41,0,0,1,19.7,2.38,87.3,87.3,0,0,1,18.5,6.9,85.45,85.45,0,0,1,16.58,11c5.52,4.54,9.62,9.8,9.78,10.75.11.47-.74-.21-2.21-1.65s-3.67-3.52-6.33-5.8a86.73,86.73,0,0,0-36-18.86,79.23,79.23,0,0,0-20.57-2.36,74.75,74.75,0,0,0-20.64,3.36,79.26,79.26,0,0,0-34.74,22,74.09,74.09,0,0,0-11.88,17.33c-.72,1.62-1.49,3.23-2.16,4.88s-1.21,3.36-1.79,5.05l-1.36,5.08c-.37,1.69-.68,3.4-1,5.1a105.13,105.13,0,0,0-1.22,20c.17,6.49.75,12.75,1.38,18.82,1.27,12.13,2.77,23.63,2.22,34.36a92.33,92.33,0,0,1-2.19,16,79.14,79.14,0,0,1-5.15,15.06,62.5,62.5,0,0,1-8.19,13.22c-.77,1-1.66,1.92-2.48,2.88s-1.79,1.8-2.68,2.69a56.79,56.79,0,0,1-5.94,4.76A49.24,49.24,0,0,1,444.93,630c.11.08.22.16.23.25,0,.36-.69.83-2,1.15,9.36-.32,19.05-4,27.31-9.87,11-8.69,18.53-21.72,22.23-36.31a97.71,97.71,0,0,0,2.93-22.82c.05-7.92-.66-16.29-1.46-25.2-1.05-12.21-2.1-24.65-.51-37.36a77.28,77.28,0,0,1,4.71-18.73A68.41,68.41,0,0,1,508,464.28a75.53,75.53,0,0,1,17.23-16.91,73.87,73.87,0,0,1,21.66-10.61,72.68,72.68,0,0,1,24.13-3,78.64,78.64,0,0,1,23.67,4.94,13.5,13.5,0,0,1,2.83,1.24c.38.29-.27,0-1.5-.39a81.52,81.52,0,0,0-16.13-4.18c-1.39-.17-2.77-.44-4.17-.53l-4.22-.3a77.85,77.85,0,0,0-8.5.18,70,70,0,0,0-16.76,3.34,77.4,77.4,0,0,0-15.48,7.17c3.3-1.49,5.39-2,5.33-1.52,0,.28-.58.83-1.58,1.58-.5.38-1.1.81-1.8,1.28s-1.43,1.08-2.27,1.68c2.09-1.38,4.35-2.47,6.55-3.65,2.29-1,4.55-2.09,6.93-2.87a22.81,22.81,0,0,1,3.75-1.11c1-.2,1.56-.26,1.54-.14,0,.29-2.32,1-5,2.06a73.34,73.34,0,0,0-7,2.93,74.4,74.4,0,0,0-6.58,3.7l-1.61,1c-.53.33-1,.72-1.54,1.08-1,.75-2.06,1.46-3,2.24l-2.9,2.42c-1,.79-1.84,1.72-2.77,2.58a65.23,65.23,0,0,0-9.62,11.7,60.8,60.8,0,0,0-6.7,13.69,74.86,74.86,0,0,0-3.38,17.77,122.9,122.9,0,0,0,.11,17.7c.87,11.63,2.67,22.94,3.45,34.16a30.34,30.34,0,0,1,.81-6.63h0c-.32-3.52-.71-7-1.1-10.53-1.05-8-2.12-16.16-2.38-24.49a100,100,0,0,1,.32-12.58c.25-2.1.43-4.22.87-6.31.2-1,.35-2.11.61-3.15l.8-3.11a28.23,28.23,0,0,1,.95-3.09c.36-1,.69-2.05,1.08-3.06l1.31-3c.22-.49.42-1,.67-1.48l.76-1.43c.52-.95,1-1.91,1.55-2.85l1.76-2.73.88-1.37,1-1.29,2-2.59,2.14-2.44,1.07-1.22,1.15-1.14,2.32-2.28,2.46-2.12,1.24-1.06c.42-.34.86-.65,1.3-1l2.61-1.94c.9-.61,1.83-1.17,2.74-1.76a30.24,30.24,0,0,1,2.79-1.67l2.87-1.56c1-.5,2-.92,3-1.38,2-1,4-1.63,6.08-2.41a66.05,66.05,0,0,1,12.76-3,69.67,69.67,0,0,1,26,1.59,77.92,77.92,0,0,1,42.86,28.37,9.88,9.88,0,0,1,1.39,2.11,7.48,7.48,0,0,1-1.5-1.7,76.94,76.94,0,0,0-53.24-30.23h.09c.84.14,1,.27,0,.26a30.71,30.71,0,0,1-3.28-.29c-1-.12-.87-.23-.08-.26a66.4,66.4,0,0,0-28.75,4.85,74.4,74.4,0,0,0-12.85,6.87,72.68,72.68,0,0,0-11.13,9.34c-.88.83-1.63,1.8-2.44,2.69l-1.2,1.37c-.39.46-.74,1-1.11,1.44-.72,1-1.47,1.92-2.17,2.91l-2,3.05c-.69,1-1.19,2.11-1.79,3.16a32.71,32.71,0,0,0-1.61,3.25L504.84,481l-1.18,3.43a67.48,67.48,0,0,0-2.86,14,95,95,0,0,0-.38,14.09,103.64,103.64,0,0,1,.46-13.05c.29-2.17.5-4.35,1-6.51.23-1.07.38-2.16.68-3.22l.86-3.2a59.26,59.26,0,0,1,5.16-12.2,62.6,62.6,0,0,1,3.49-5.62c.62-.92,1.33-1.76,2-2.64s1.34-1.76,2.09-2.56l2.21-2.45c.76-.8,1.57-1.54,2.36-2.31l1.19-1.15c.4-.37.83-.71,1.25-1.07l2.53-2.11,2.66-1.94,1.34-1,1.39-.87,2.8-1.74,2.91-1.54c.48-.26,1-.53,1.46-.77l1.5-.67c1-.44,2-.9,3-1.32,2.08-.71,4.1-1.57,6.24-2.1a65.09,65.09,0,0,1,12.92-2.39,67.09,67.09,0,0,1,11.53-.33,13.82,13.82,0,0,1,2.84.42c.28.12-.49.09-1.58,0l-3.21-.18c6.65.41,11.5,2.19,11.26,2.63-.47.46-6-.47-12.64-.72a67.8,67.8,0,0,0-13.35.94,70.37,70.37,0,0,0-12.81,3.72,68.12,68.12,0,0,0-22.16,14.57c-1.39,1.32-2.6,2.83-3.86,4.27-.63.74-1.15,1.56-1.7,2.34s-1.11,1.57-1.63,2.38a66.85,66.85,0,0,1,32.59-23.91c12.92-4.51,27.14-4.15,40-.15.56.16,1.09.33,1.58.49s.91.37,1.27.52c.72.33,1.17.58,1.16.68s-.46,0-1.19-.18c-.36-.09-.79-.22-1.26-.37l-1.57-.43a63.14,63.14,0,0,0-64.4,17.56,59.57,59.57,0,0,0-9.92,14.22,56.75,56.75,0,0,0-5.17,16.47c-1.86,11.53-.72,23.56.74,35.69,1.38,7.94,2.93,16,3.91,24.41a123.58,123.58,0,0,1,.88,12.9,104.77,104.77,0,0,1-.58,13.21c.18-1.1.38-2.21.52-3.33s.27-2.25.41-3.37a118.71,118.71,0,0,0,.09-21c-.53-6.73-1.43-13.16-2.3-19.4C509.63,521.85,508,510,509,498.65a58.56,58.56,0,0,1,3.76-16.43,55.84,55.84,0,0,1,8.7-14.66,61.78,61.78,0,0,1,29.27-19.72,9.11,9.11,0,0,1,2.35-.53c.15.06-.62.39-1.81.75a61.35,61.35,0,0,0-28.48,18.73,56.55,56.55,0,0,0-8.86,14.07l-.77,1.93a16.78,16.78,0,0,0-.73,1.94c-.39,1.33-.88,2.62-1.2,4s-.67,2.73-.91,4.14-.48,2.8-.63,4.24a86.11,86.11,0,0,0-.35,14.37c.22,4.81.77,9.64,1.43,14.49,1.3,9.68,3.09,19.43,4,29.59-.65-10.4-2.27-20.19-3.41-29.63-.59-4.73-1.07-9.37-1.28-13.92-.15-2.3-.12-4.54-.14-6.79s.14-4.46.41-6.63A55.86,55.86,0,0,1,513,485.86a50.32,50.32,0,0,1,5.59-11.65A57.55,57.55,0,0,1,527,464a65.41,65.41,0,0,1,10.56-8.25,32,32,0,0,1,3.7-1.92,2.15,2.15,0,0,1,.73-.52,54.48,54.48,0,0,1,13.44-5.38,11.45,11.45,0,0,1,2.66-.45C558.55,447.5,558,447.62,556.94,447.93Zm-212.72-6.79L344,441l.59.3.89,1.32Zm-8.64,6.3h0l-.56-.71ZM439,575.28c2.56-4.59,5.22-9.28,7.77-14.35,1.29-2.47,2.5-5.14,3.72-7.78.62-1.32,1.15-2.75,1.73-4.13s1.14-2.76,1.62-4.24l1.5-4.39c.43-1.52.83-3.07,1.24-4.6.2-.78.42-1.54.59-2.33l.45-2.4c.28-1.61.63-3.2.82-4.84A77.1,77.1,0,0,0,458.3,506a73.71,73.71,0,0,1,.86,19.81c-.08,1.28-.36,2.48-.56,3.72l-.68,3.68c-.54,2.4-1.23,4.71-1.86,7.06s-1.53,4.47-2.33,6.66-1.75,4.23-2.68,6.27A231.33,231.33,0,0,1,439,575.28ZM337.07,436.67a11.71,11.71,0,0,1,2.57,2.25,5.2,5.2,0,0,1,1.76-.4,32.91,32.91,0,0,1,4.87.08c-.25-.47.14-.44.33-.52l.58-.16c-1.71-.2-3.46-.49-5.23-.69C340.36,437.05,338.63,437,337.07,436.67Zm-11.3,3.88-.18-.15.15-.79S325.75,440,325.77,440.55Zm-.21,1.32.25.06C325.79,442.21,325.69,442.13,325.56,441.87Zm2.33.47a1.88,1.88,0,0,0-.38-.33Zm5.78,21.06,0-3.78-.12,3.65Z"/><path d="M408.05,508.37c0,.17,0,.35,0,.51-.29,0-.51-.16-.69-.5.49,4.71,5.17,6.24,9,5.63a1.73,1.73,0,0,0,2.65-.33,2.38,2.38,0,0,0,0-3,2.82,2.82,0,0,1-.23-.77,20.27,20.27,0,0,0-1.28-6.66c.05.53.1,1.08.14,1.61a4.44,4.44,0,0,0-.81-1.66c-.08.22-.18.46-.26.68a3.8,3.8,0,0,0-1.63-2.78,3.39,3.39,0,0,0-3.13-.24,6.17,6.17,0,0,0-3.88,6.28Z"/><path d="M406.49,516.46a36.26,36.26,0,0,1-1.14-4.39l.09-.48-1.13,1.51.1-.07a7.42,7.42,0,0,1,5.06,1l.6.18a1.45,1.45,0,0,0,1-.44,1.8,1.8,0,0,0,.28-2.27l-.55-.71c-1-2.24-3.17-4.61-6.13-3a6.61,6.61,0,0,0-1.64,2,2.3,2.3,0,0,0-.23,3.12,1.92,1.92,0,0,0,2.89-.17,5.06,5.06,0,0,0,.25.58l-.61.06c.9-.63,1.81-.18,2.71-.14l1,.49,1.28-2.7-.65-.07c0,.12-.09.32-.1.33a13.1,13.1,0,0,1-3.72-.59l-1.77-.22a1.58,1.58,0,0,0-1.16,1.51l.1.95c0-.17,0-.33,0-.5.36.8.79,1.55,1.22,2.31s.9,1.48,1.28,2.27a.48.48,0,0,0,.69.23A.62.62,0,0,0,406.49,516.46Z"/><path d="M402.08,513c-.05-.35-.08-.7-.38-.9l-.26.07c0,.19,0,.46,0,.72C401.51,513.45,401.83,513.36,402.08,513Z"/><path d="M401.44,512.2c0-.18,0-.3,0-.3s-.05.2-.08.3h.1Z"/><path d="M482.25,544.75a111.32,111.32,0,0,0,24.19,1.41c.27,0,.49-.12.48-.25s-.23-.19-.48-.17a112.08,112.08,0,0,1-24.07-1.46c-.27,0-.49,0-.53.16S482,544.71,482.25,544.75Z"/><path d="M545.89,547.23c-.16.16-.11.25.11.23a1.34,1.34,0,0,0,.67-.29c.14-.13.08-.24-.11-.22A1.31,1.31,0,0,0,545.89,547.23Z"/><path d="M547.11,555.23a26.18,26.18,0,0,0-3.12,2,1.52,1.52,0,0,1-.57.23c.13.13,0,.36-.46.6-8.14,4.77-17.68,8.41-27.36,11.36a1.2,1.2,0,0,1-.34.53,6.45,6.45,0,0,1-3.4,1.32l-1.1.09c-4.41.56-8.83.95-13.25,1.1a12.72,12.72,0,0,1-3.07.7,107,107,0,0,1-11.69,2.33c.25.14.4.32.39.51-.09.46-1,.81-2.12.81l-1.65,0,4.72.31a3.13,3.13,0,0,1,.63,0c1.73-.06,3.47-.16,5.25-.29a116.31,116.31,0,0,0,22.12-4.35,142.3,142.3,0,0,0,20.09-7.65,1.49,1.49,0,0,1,.76-.2c.15,0,.16.18-.07.3-2,1.11-3.86,2.28-5.77,3.42s-3.83,2.22-5.82,3.31-4.06,2.12-6.25,3.09c-1.1.47-2.23.94-3.4,1.41s-2.38.91-3.64,1.29l-4.52,1.42-4.57,1.24c-1.53.44-3.08.78-4.63,1.13s-3.12.74-4.7,1a154.51,154.51,0,0,1-19.5,2.52c-6.95-.21-13.67-.55-20.48-1.08A202,202,0,0,1,428.71,581a147.87,147.87,0,0,1-15.58-3.92,133.89,133.89,0,0,1-24.47-9.77,9.47,9.47,0,0,1-4.75-4,5.69,5.69,0,0,1-.25-5.19,6.42,6.42,0,0,1,5.32-3.32l-.88-.6-1.17-1.24a5.91,5.91,0,0,1-1.68-4.09l0-1.88c.49-3.2,0-6.52,1-9.63l.93-.74v-.44a5.48,5.48,0,0,1,.62-3.52l1-1a14.12,14.12,0,0,1,3.89-2.69,4.74,4.74,0,0,1,1.26-1.19,7,7,0,0,1,2.58-3.85,1,1,0,0,1,1-1,1,1,0,0,1,.5.14h0c.09-.41.11-.53.18-1a4.89,4.89,0,0,1-.26-.52c-.51-.77-.51-.77-.93-1.46a4.66,4.66,0,0,1,0-1.61c1.1-2.42,1.11-2.41,1.9-3.18l.3-.14a6.72,6.72,0,0,1-.22-.89,3,3,0,0,1,.07-.5c.37-.46.37-.46.44-.69a4.21,4.21,0,0,1,.27-.35c.66-.29.66-.29.79-.43a2,2,0,0,1,.33-.12l.61.14-.41,1.69.46-.29-.32.66.34-.56,0,.56,0-.73c.53.8.53.81.82,1a1.3,1.3,0,0,0,.61.44,3.11,3.11,0,0,1,.18-.29l1.14,1.71c0,.16-.05.32-.08.47a.39.39,0,0,1,.49.13l.32.41h.14l0,0,.5,0h.11l2.17.18c.18.26.32.53.46.78,0-.13,0-.25,0-.38s.43-.61.4-.71a19,19,0,0,0-1.63-3.18c-.3-.5-.62-1-.94-1.47l-.91-1.49a.82.82,0,0,1-.13-1.12.74.74,0,0,1,1.05-.29,10.38,10.38,0,0,1,1.81.41,12.07,12.07,0,0,1,1.71.65,12.28,12.28,0,0,1,3,2,20.35,20.35,0,0,1,4.55,6,35,35,0,0,0,2.53,2.78v-.32l.57.88.07.08c0-.41,0-.82-.08-1.23l-.26-.53a14.49,14.49,0,0,1-2.57-3.46l-1.07-1.91c-.34-.66-.68-1.31-1-1.93a25.81,25.81,0,0,1-1.67-4.36.83.83,0,0,1,.11-1,.57.57,0,0,1,.87,0,19.08,19.08,0,0,1,8.22,10.93,3.85,3.85,0,0,1,1.4,2.09l0,0c0-.34,0-.66,0-1,.4.54.35,1.28.69,1.83l.36-1a43.45,43.45,0,0,0,3.61,3.12,14.35,14.35,0,0,1,3.33,3.48l.25.25a7.72,7.72,0,0,1,4.85.94c-.65-.47-1.3-1-1.92-1.44a21.24,21.24,0,0,1,4.83,1.78c.54.3,1.08.61,1.62.95s1.09.66,1.62,1a37.33,37.33,0,0,1,3,2.31,18.93,18.93,0,0,1,4.46,5A133.72,133.72,0,0,0,465.3,542a120.14,120.14,0,0,0,14.61,2.12,1.11,1.11,0,0,1,1,.51c0,.26-.31.47-.82.45a97.18,97.18,0,0,1-21.43-2.54,91,91,0,0,0,18,4.82l2.41.22a16.15,16.15,0,0,1,2.38.38,98.77,98.77,0,0,0,24.11-.1,126.58,126.58,0,0,0,19.88-4.49c4.72-1.5,9.19-3.08,13.56-4.84s8.7-3.55,13.22-5.47c1.16-.58,2.43-.78,2.79-.46s-.32,1.09-1.5,1.69a147.7,147.7,0,0,1-14,6.63c-2.36,1-4.81,1.87-7.23,2.79s-4.92,1.67-7.44,2.34a112.43,112.43,0,0,1-15.38,3.32,96.71,96.71,0,0,1-16,1l-3.48-.09-3.42-.23a1.09,1.09,0,0,1,.05.26,1.17,1.17,0,0,1-.59.91l3.93.34,4,.26c7.35-.75,14.58-1.92,22.42-2.81l4-.45c1.31-.12,2.6-.25,3.86-.42l3.81-.44,3.78-.57a168.54,168.54,0,0,0,17.86-7.24.88.88,0,0,1,.61-.15c.13,0,0,.18-.19.32-1.9,1.18-3.94,2.18-5.95,3.27s-4.14,2-6.29,2.91c.81.08,1.37.32,1.47.76s-.3,1-1,1.56l1.54-.49,1.51-.54c.62-.22,1.18-.24,1.24,0s-.35.58-.95.8c-1,.4-2.06.75-3.11,1.08l-3.13,1c-2.09.64-4.21,1.22-6.31,1.81a146.85,146.85,0,0,1-15.26,4,3.32,3.32,0,0,1,1.74,1h0l2.42-.47a243.48,243.48,0,0,0,42.34-16.92c.27-.14.53-.19.58-.1s-.12.25-.36.37c-4.16,2.1-8.3,4.19-12.55,6h0c.19,0,.27.08.11.22a1.32,1.32,0,0,1-.66.29c-.23,0-.25-.09-.12-.22a242.46,242.46,0,0,1-24,9.11,202.61,202.61,0,0,0,22.58-7.14l2.24-1.36a1,1,0,0,1,.64-.14c.09,0,0,.21-.24.33l-.63.38c1.39-.56,2.63-.63,2.82-.15s-.87,1.41-2.32,2c-3.82,1.78-7.74,3.32-11.7,4.73-.42.18-.84.37-1.27.53l-1.22.67a163.55,163.55,0,0,0,18.54-6.51c.5-.25,1-.33,1.08-.17s-.25.5-.75.76a150.53,150.53,0,0,1-15.82,7.6,153.2,153.2,0,0,1-16.87,5.66l-5.51,2.64c-1.87.86-3.78,1.66-5.72,2.52l1.53-.25A79.94,79.94,0,0,0,528.53,562c5.57-2.35,10.89-5,16.56-7.62.28-.14.55-.17.62-.09s-.09.24-.38.37c-2.74,1.37-5.41,2.61-8.05,4s-5.34,2.58-8.22,3.71c-4.73,2-9.37,3.57-13.92,5.3,9.56-2.3,18.23-6.09,27-10a2.53,2.53,0,0,1,1.07-.29c0-.06.06-.14.17-.22a37,37,0,0,1,3.29-2.06,1.06,1.06,0,0,1,.68-.19C547.46,554.92,547.35,555.07,547.11,555.23ZM410.46,527.85v-.24l.2.55-.19,1.49S410.47,528.75,410.46,527.85Zm-9.59-.89h0l.16-.86C401,526.46,400.91,526.74,400.87,527Zm63.31,18.44a51.09,51.09,0,0,1-12.37-4.62c1,.27,2,.6,3.06.83,1.52.62,3.05,1.32,4.6,1.94ZM409,520.4a13.73,13.73,0,0,1,0,3.14,3.57,3.57,0,0,1,1.28.76,37.16,37.16,0,0,1,3,2.76c.11-.5.34-.27.5-.22l.46.19c-1-1.09-1.89-2.21-2.82-3.37A25.4,25.4,0,0,1,409,520.4Zm-8.45-4.74,0-.22.65-.4Zm-1.1.68c0,.07.05.14.08.22C399.3,516.72,399.32,516.6,399.45,516.34Zm.77,1.95a2.11,2.11,0,0,0,.06-.48ZM387.82,536l2.92-2.37-2.89,2.22Z"/><path d="M655.33,471.62l-.41.31a.77.77,0,0,1,0-.88,6.1,6.1,0,0,0-1.83,5.61A10.55,10.55,0,0,0,656,481.9a1.81,1.81,0,0,0,1.89,2,2.38,2.38,0,0,0,2.46-1.77,2.49,2.49,0,0,1,.48-.66,17.06,17.06,0,0,0,4.42-5.14l-1.14,1.11a4.57,4.57,0,0,0,.74-1.7l-.7.2a3.59,3.59,0,0,0-.61-5.85,5.93,5.93,0,0,0-7.33.68Z"/><path d="M647.88,475.25c.91-1.26,1.87-2.43,2.85-3.59l.44-.22h-1.9l.12,0c1.51,1.2,2,3,2.3,4.75l.25.6a1.61,1.61,0,0,0,1,.55,1.69,1.69,0,0,0,1.94-1.14,7.22,7.22,0,0,1,.22-.89c1.29-2.14,1.67-5.45-1.44-6.88a6.54,6.54,0,0,0-2.56-.14,2.23,2.23,0,0,0-2.58,1.73,2,2,0,0,0,1.94,2.26c-.11.18-.21.38-.31.56l-.42-.47c1.07.36,1.23,1.38,1.74,2.15l.2,1.13,3-.58-.33-.58-.33.12a16.1,16.1,0,0,1-1.81-3.43l-.94-1.58a1.53,1.53,0,0,0-1.9,0l-.69.66.4-.3c-.79,1.57-1.31,3.25-2.13,4.83a.48.48,0,0,0,.21.7A.62.62,0,0,0,647.88,475.25Z"/><path d="M647.94,469.56c.24-.25.5-.49.47-.86l-.22-.17-.54.47C647.26,469.35,647.52,469.56,647.94,469.56Z"/><path d="M648.19,468.53l.23-.2-.29.12,0,.05Z"/><path d="M689,591.33c1,1.56,2.14,3,3.22,4.5s2.16,3,3.33,4.45c2.35,2.87,4.62,5.83,7.15,8.58,1.24,1.39,2.46,2.81,3.74,4.18l3.91,4c.65.67,1.29,1.36,2,2l2,1.95,4.1,3.89c.38.33.76.54.86.46s-.15-.41-.5-.71a210.13,210.13,0,0,1-15.69-16.06c-2.51-2.74-4.77-5.68-7.11-8.54-1.17-1.43-2.21-3-3.31-4.43l-1.64-2.23c-.55-.74-1.08-1.49-1.57-2.26-.28-.4-.6-.67-.74-.65S688.79,591,689,591.33Z"/><path d="M771.2,671.05c-.37-.09-.4,0-.07.24a4,4,0,0,0,1.18.55c.32.07.36-.05.08-.24A4.36,4.36,0,0,0,771.2,671.05Z"/><path d="M764.78,676.87c-1.07-.39-2.13-.76-3.15-1.1s-2-.71-2.92-1a4.76,4.76,0,0,1-1-.47c0,.21-.42.16-1.2-.13-3.86-1.37-7.67-3-11.56-4.72-2-.83-3.85-1.8-5.79-2.71s-3.89-1.84-5.79-2.88l-5.76-3.07c-1.93-1-3.79-2.17-5.69-3.26-3.83-2.15-7.5-4.57-11.25-6.89a1.64,1.64,0,0,1-.88-.06,18.21,18.21,0,0,1-5.38-3.2L703,646.14c-1.53-1.19-3-2.51-4.42-3.76s-2.94-2.52-4.38-3.81l-4.23-4c-1.41-1.32-2.82-2.64-4.14-4.05a44.12,44.12,0,0,1-4.25-3.4c-1.35-1-2.63-2.11-3.92-3.21l-3.9-3.31c-1.32-1.09-2.55-2.28-3.81-3.46l-3.77-3.58c.17.42.21.73.05.85-.44.2-1.84-.74-3-2.22L661.34,610l2.5,3.28c.85,1.07,1.74,2.11,2.6,3.17a9.16,9.16,0,0,1,.67.85l3,3.35c1,1.11,2.14,2.16,3.23,3.25a204.67,204.67,0,0,0,30.27,24.54A255.24,255.24,0,0,0,736,666.69a4.22,4.22,0,0,1,1.19.69c.16.2.05.29-.36.12-14.33-5.81-27.28-10.83-42.34-20.76a235.73,235.73,0,0,1-25.77-19.61,226.52,226.52,0,0,1-23.54-23.81,337.79,337.79,0,0,1-19.66-29.07c-1.46-2.52-3-5-4.41-7.61l-4.2-7.88c-1.34-2.68-2.62-5.42-3.94-8.18-.32-.69-.67-1.38-1-2.09l-.9-2.13L609.25,542c-.4-1-.81-2-1.22-2.94s-.73-2-1.1-3l-2.15-6-.53-1.49-.46-1.51-.92-3c-.6-2-1.22-4-1.79-6.07l-.39-1.53-.18-.77-.09-.29-.31-1.06-.6-2.12c-.39-1.42-.77-2.84-1.15-4.26a163.2,163.2,0,0,1-3-17.44,8.6,8.6,0,0,1,.7-6.07,6,6,0,0,1,4.22-3.19,6.43,6.43,0,0,1,5.84,2.31v-1l.36-1.65a6.12,6.12,0,0,1,2.43-3.71l1.5-1.12c2.85-1.47,5.43-3.79,8.54-4.84l1.15.3.35-.26a5.51,5.51,0,0,1,3.21-1.58l1.41.15a14.31,14.31,0,0,1,4.51,1.52,5,5,0,0,1,1.72.31,7,7,0,0,1,4.65-.22,1,1,0,0,1,1.38.18.81.81,0,0,1,.19.49h0a9.52,9.52,0,0,0,.91-.45c.15-.34.25-.52.25-.52.3-.88.3-.88.59-1.64a4.49,4.49,0,0,1,1.26-1c2.58-.57,2.58-.56,3.66-.38a3,3,0,0,1,.31.15c.4-.54.43-.58.55-.72a2.3,2.3,0,0,1,.44-.24c.6,0,.6,0,.81-.07a3.71,3.71,0,0,1,.45,0c.63.36.63.36.82.38a1.82,1.82,0,0,1,.31.19l.26.59-1.58.69.51.2-.71.15.65-.07-.42.37.59-.42a3.18,3.18,0,0,0-.3,1.3,1.35,1.35,0,0,0,0,.77l.34,0c-.32,1-.32,1-.67,2a4.37,4.37,0,0,1-.43.22.4.4,0,0,1,.18.48l-.15.51.08.11h0l.27.44.06.09h0c.17.3.46.74,1.22,1.89a5.71,5.71,0,0,1-.31.85,2.37,2.37,0,0,1,.29-.25c.2-.16.75,0,.81-.1a45.15,45.15,0,0,0,2.75-6.58.79.79,0,0,1,.79-.79.78.78,0,0,1,.88.68,13.44,13.44,0,0,1,1.6,7.26,15.72,15.72,0,0,1-.66,3.73,18.65,18.65,0,0,1-.67,1.85c-.22.61-.47,1.21-.75,1.81-.26,1.24-.48,2.49-.69,3.75l.27-.2-.4,1s0,.07,0,.1l1-.8c.1-.17.19-.35.28-.52a17.2,17.2,0,0,1,1.19-4.2c.5-1.37,1.28-2.7,1.82-4.05a34.11,34.11,0,0,1,2.4-4,.75.75,0,0,1,.86-.53.64.64,0,0,1,.6.7,18.67,18.67,0,0,1-.5,6.9,14.8,14.8,0,0,1-3.15,6.53,4.25,4.25,0,0,1-.83,2.4v0l.78-.59c-.16.64-.81,1.05-1.06,1.65l1.1-.32c-.48,3.18-.05,6.51-1.2,9.66a2.25,2.25,0,0,1-.06.36,15.07,15.07,0,0,1,1.26,1.74c.09.15.17.3.25.46s0,.07.06.13l.08.36c.06.24.11.48.16.73.18,1,.46,2,.64,3-.06-.73-.12-1.44-.18-2.16l-.06-2.12c.39,1.49.79,3,1.18,4.45a46,46,0,0,1,.93,4.73c.83,4.42,1.35,9.22,1.81,13.59.1,1.1.16,2.17.2,3.22s.14,2,.16,3a25.77,25.77,0,0,1-.28,5,201.75,201.75,0,0,0,11,24.89,184,184,0,0,0,14.65,23.06,2.89,2.89,0,0,1,.81,1.85c-.15.24-.71-.11-1.29-.86-2.16-2.49-4.05-5.2-6-7.84-1-1.32-1.91-2.71-2.83-4.1l-2.75-4.16c-.88-1.41-1.71-2.85-2.56-4.28s-1.74-2.85-2.51-4.33l-2.34-4.43-1.17-2.22-1.06-2.27a159.68,159.68,0,0,0,15.54,30.35c.85,1.21,1.67,2.45,2.61,3.61s1.69,2.39,2.47,3.64l1.63,2.25c.57.72,1.14,1.45,1.72,2.17l3.42,4.32c1.17,1.41,2.39,2.78,3.58,4.17s2.37,2.79,3.66,4.09l3.81,4c1.25,1.35,2.65,2.57,4,3.87s2.69,2.6,4.13,3.83l4.34,3.7c1.23,1.08,2.51,2.07,3.77,3l3.73,2.91c2.49,1.9,5,3.65,7.51,5.46s5.12,3.42,7.71,5.16,5.37,3.32,8.18,5c8,4.64,15.81,8.64,23.72,12.48s16,7.27,24.46,10.79c2.28.84,4.28,2,4.41,2.51s-1.66.28-4-.56c-9-3.24-17.91-6.82-26.59-10.83a282,282,0,0,1-25.31-13.52,214.85,214.85,0,0,1-23.73-16.57,181.37,181.37,0,0,1-21.48-20.08c-1.49-1.53-2.82-3.2-4.2-4.78s-2.77-3.16-4-4.83a.55.55,0,0,1-.14.26c-.27.23-.76.14-1.4-.2.74.93,1.44,1.9,2.21,2.82l2.31,2.77c1.53,1.85,3,3.74,4.67,5.53C707.56,621.54,718,630,729.29,639c7.81,6.1,15,11.59,22.7,16.82a300.33,300.33,0,0,0,31.94,15,2.94,2.94,0,0,1,1,.53c.12.15-.15.14-.6,0-1.94-.67-3.86-1.4-5.8-2.11l-2.92-1.08c-1-.38-1.93-.79-2.9-1.18l-5.81-2.41-5.76-2.63c1,.9,1.57,1.64,1.27,2s-1.41.27-3-.19l5.16,2.67c1.06.57,1.84,1.13,1.71,1.32s-1.07,0-2.08-.56c-3.53-1.82-7.08-3.56-10.51-5.54-1.72-1-3.47-1.9-5.17-2.9l-5.07-3.06a252.24,252.24,0,0,1-23.9-15.38,6.37,6.37,0,0,1,1.46,2.66h0l3.58,2.6a364.81,364.81,0,0,0,73.9,35.72c.51.18.91.4.89.5s-.44,0-.9-.15c-3.94-1.45-7.91-2.8-11.79-4.37-1.94-.78-3.91-1.48-5.83-2.31l-5.77-2.41,0,0c.28.18.3.31-.07.24a4.58,4.58,0,0,1-1.21-.51c-.32-.22-.25-.31.07-.24a377.79,377.79,0,0,1-41.16-21A331.1,331.1,0,0,0,770,671.63c1.46.51,2.9,1.08,4.4,1.56a3.2,3.2,0,0,1,1,.57c.08.13-.25.1-.66,0l-1.24-.42c2.46,1.09,4.2,2.29,4,2.75s-2.65-.07-5.24-1.17c-6.9-3-13.74-6.09-20.35-9.64l-2.19-1.06-2.3-.91a285.89,285.89,0,0,0,31.27,15.64c.92.37,1.65.84,1.6,1s-.85,0-1.78-.36a267,267,0,0,1-28.59-12A252.17,252.17,0,0,1,722.56,652c-3.15-1.52-6.22-3.2-9.39-4.82S707,643.75,703.8,642c.68.58,1.42,1.12,2.14,1.68,2.32,1.74,4.58,3.48,6.9,5s4.66,3.05,7,4.51,4.69,2.72,7,4,4.71,2.48,7,3.71c9.44,4.78,19,9,29.08,13.4.51.2.9.46.92.58s-.37.05-.88-.17c-9.93-4.23-19.09-8.06-28.72-13l-5.89-3.1c-1.93-1-3.81-2.15-5.69-3.2l-2.82-1.58c-.93-.53-1.84-1.09-2.75-1.63L711.61,649l5.33,3.56c.89.58,1.76,1.18,2.66,1.73l2.72,1.63c1.81,1.08,3.61,2.17,5.42,3.21l5.51,3,2.75,1.49,2.8,1.39,5.59,2.8,5.67,2.64,2.83,1.34,2.88,1.26a8,8,0,0,1,1.71.93.82.82,0,0,1,.43,0c2,.66,4.15,1.48,6.37,2.25a3,3,0,0,1,1.09.59C765.55,677,765.26,677,764.78,676.87ZM641.09,485.29l.19-.14-.32.49-1.33.73ZM636,477h0l.78-.39Zm32.43,88.5c-1.73-3.68-3.57-7.27-4.93-11.06-.7-1.88-1.47-3.73-2-5.65s-1.14-3.84-1.67-5.76c.75,1.79,1.49,3.57,2.24,5.35.92,2.87,2,5.69,3,8.58S667.34,562.58,668.46,565.45Zm-22.15-85.77a14.24,14.24,0,0,1-2.55,1.88,3.6,3.6,0,0,1,.16,1.5c-.16,1.38-.21,2.73-.44,4.08.47-.2.43.12.49.28l.13.49c.31-1.43.59-2.86,1-4.31A30.19,30.19,0,0,1,646.31,479.68Zm-1.39-9.77.19-.11.72.3Zm-1.22-.48-.11.19C643.32,469.53,643.42,469.47,643.7,469.43Zm-1.05,1.81a2.36,2.36,0,0,0,.41-.25Zm-21.73.56,3.65.94-3.5-1Z"/><path d="M656.41,618.35l-.49-.27c.15-.28.49-.38.93-.37-4.82-1.88-9.22,1.33-11.4,5a2,2,0,0,0-1.61,2.49,2.43,2.43,0,0,0,2.74,1.7,4,4,0,0,1,.89.21,20.8,20.8,0,0,0,7.35,2.38l-1.68-.69a6.17,6.17,0,0,0,2.22.1l-.48-.58c2.78,1,5.63-.25,6.4-2.88a5.56,5.56,0,0,0-3.62-6.61Z"/><path d="M649.83,612.76c1.62.36,3.2.8,4.79,1.28l.39.33-.71-1.78v.12c-.68,1.86-2.46,3-4.15,4l-.56.45a1.48,1.48,0,0,0-.25,1.12,1.76,1.76,0,0,0,1.92,1.43l1-.11c2.76.36,6.55-.55,6.84-4a6.18,6.18,0,0,0-.87-2.46,2.45,2.45,0,0,0-2.83-1.77,2.11,2.11,0,0,0-1.62,2.68l-.71-.07.34-.57c0,1.14-1,1.69-1.61,2.47l-1.12.63,1.67,2.57.5-.54a2.89,2.89,0,0,1-.24-.27,18.86,18.86,0,0,1,3-3l1.32-1.49a1.45,1.45,0,0,0-.72-1.8l-1-.4.46.27c-1.93-.16-3.87,0-5.79-.15a.56.56,0,0,0-.65.48A.61.61,0,0,0,649.83,612.76Z"/><path d="M655.74,610.62a1.36,1.36,0,0,0,1.08.12c0-.15.07-.23.09-.27l-.71-.33C655.69,609.91,655.58,610.23,655.74,610.62Z"/><path d="M656.91,610.47l.29.14-.24-.22,0,0Z"/><path d="M563,649.82c-8.68,3.41-17.24,7.22-25.67,11.3-.28.14-.47.34-.42.45s.3.07.56-.06c8.45-4.06,17-7.82,25.65-11.22.29-.13.47-.32.45-.45S563.3,649.71,563,649.82Z"/><path d="M495.73,674.1c.15-.18.08-.26-.15-.19a1.48,1.48,0,0,0-.65.44c-.12.15-.05.25.15.18A1.51,1.51,0,0,0,495.73,674.1Z"/><path d="M493.16,666.71A33.36,33.36,0,0,0,495.9,664a1.7,1.7,0,0,1,.52-.35c-.16-.09,0-.36.33-.7,7.05-6.67,15.22-13,23.29-19.39a1.11,1.11,0,0,1,.14-.61,6.65,6.65,0,0,1,2.68-2.52l1-.51c3.89-2.23,7.76-4.47,11.7-6.55a15.57,15.57,0,0,1,2.44-2c3-2.57,6-5.15,9.16-7.62-.28,0-.49-.07-.58-.24-.15-.44.47-1.23,1.4-1.77l1.38-.88L545.18,623a3.09,3.09,0,0,1-.56.26c-1.47.88-2.93,1.8-4.39,2.78-6.39,4.24-12.35,8.75-18.06,13.35s-11.17,9.31-16.52,14.06a1.39,1.39,0,0,1-.68.43c-.16,0-.21-.11,0-.3,6.31-6.68,11.31-13.34,19.06-20.3,9.22-8.25,18.59-16.23,28.73-24,11.18-7,21.19-14.29,32.64-21.82,4.24-2.77,8.47-5.43,12.72-7.94,6.63-4.22,13.35-7.85,20.33-11.4,3.45-2.26,7.68-1.45,9.4,1.76a6.88,6.88,0,0,1-.06,6.29l.9-.35,1.55-.21a5.58,5.58,0,0,1,4.06,1.07l1.51,1c2.3,2.23,5.25,3.73,7.35,6.28l.15,1.2.36.22a5.66,5.66,0,0,1,2.64,2.43l.39,1.39a14,14,0,0,1,.26,4.81,4.77,4.77,0,0,1,.35,1.73,7,7,0,0,1,1.94,4.3,1,1,0,0,1-.07,1.73h0a9.76,9.76,0,0,0,.79.68c.38,0,.6,0,.6,0,1,0,1,0,1.85-.06a5,5,0,0,1,1.47.8c1.58,2.21,1.58,2.22,1.83,3.3,0,.12,0,.24,0,.35.71.17.76.19,1,.25a2.84,2.84,0,0,1,.42.32c.22.56.22.56.39.74a4.2,4.2,0,0,1,.17.42c-.12.73-.12.73-.06.91a2.3,2.3,0,0,1-.09.36c-.32.3-.45.42-.5.48l-1.33-1.23v.56l-.43-.62.33.59-.55-.26.66.4a4.26,4.26,0,0,0-1.46.2,1.58,1.58,0,0,0-.78.33,2.72,2.72,0,0,1,.15.31c-1.14.07-1.14.08-2.26.13a4.29,4.29,0,0,1-.38-.33.48.48,0,0,1-.43.37l-.58,0-.08.12v0l-.35.42-.07.09h0c-.25.28-.6.7-1.54,1.81a6.63,6.63,0,0,1-1,0l.36.19c.23.14.27.71.38.73a41,41,0,0,0,7.91.13.9.9,0,0,1,1.15.44.78.78,0,0,1-.39,1.09c-3.9,4.23-10,5.43-15.88,4.77-1.42.13-2.83.31-4.24.51l.29.19-1.19-.06h-.11l1.13.67.64.11c3.23-.57,6.58.05,9.9.14a46.15,46.15,0,0,1,5.26.87.83.83,0,0,1,.9.63.67.67,0,0,1-.57.81c-4.82,2-10.79,2.91-16,1a4.77,4.77,0,0,1-2.87-.05h0l.86.58c-.76,0-1.37-.49-2.1-.56l.63.95c-3.64.41-7.19,1.85-10.9,1.46-.13,0-.27,0-.4,0a19.67,19.67,0,0,1-1.67,1.62l-.46.36-.12.09-.22.11-.43.22a16.71,16.71,0,0,1-1.87.81l2.8-.58a25.62,25.62,0,0,1-5.64,2.63c-5.66,1.79-12.54,2.63-16.56,1.46-10.68,4.42-21.3,9.1-31.63,14.28a1.45,1.45,0,0,1-1.32.15c-.17-.19.07-.57.6-.85,7.17-4.19,14.7-8,22.33-11.58-6.75,2.24-13.47,4.69-20.12,7.61q-1.25.61-2.49,1.26a17.73,17.73,0,0,1-2.56,1,262.76,262.76,0,0,0-24.54,12.55c-6.95,4.15-12.93,7.93-19.65,12.37-9.44,6.24-17.91,12.08-27.49,17.91-1.24.82-2.59,1.29-3,1s.28-1.14,1.52-2c9.55-6.76,19.05-13.39,28.91-19.74A299.46,299.46,0,0,1,549,651c2.38-1.14,4.71-2.28,7.06-3.36a.8.8,0,0,1-.18-.19,1.11,1.11,0,0,1,.15-1.11c-2.69,1.21-5.38,2.43-8.13,3.61-7,4.37-14,8.76-21.87,12.75-5.41,2.74-10.5,4.94-15.61,7.38-5.92,3.91-11.74,7.95-17.66,12a1.17,1.17,0,0,1-.64.29c-.14,0-.05-.17.17-.35,3.84-3.12,7.87-6.2,12-9.23-.86.17-1.48.1-1.67-.29s.12-1.06.77-1.81l-3,1.85c-.61.37-1.18.54-1.28.35s.26-.66.84-1q6-3.84,12.08-7.52c4.7-3.21,9.44-6.33,14.26-9.39a3.51,3.51,0,0,1-2.05-.2h0L522,656.17c-13.09,9.53-26.63,18.89-40.41,28.24-.27.18-.53.28-.59.21s.11-.27.35-.44l12.4-8.49h0c-.2.06-.29,0-.15-.19a1.63,1.63,0,0,1,.65-.44c.23-.07.27,0,.15.18,7.65-5.29,15.22-10.59,22.63-16L495.61,673l-2.11,1.85a1.23,1.23,0,0,1-.64.29c-.1,0,0-.21.2-.38l.59-.51c-1.35.87-2.6,1.23-2.86.81s.69-1.58,2.07-2.52q5.44-3.93,11-7.64L505,664l1.07-1c-5.92,3.63-11.8,7.31-17.57,11.09-.48.35-1,.52-1.08.39s.19-.54.67-.88c9.5-7.65,19.4-15,29.63-22.1l8.94-9.06-1.35.83A141.5,141.5,0,0,0,510,655c-4.78,4-9.43,8.09-14.64,12-.26.2-.52.29-.61.24s0-.26.32-.45c5-3.92,9.37-7.91,14.31-12,4.08-3.37,8-6.52,11.74-9.81-8.25,5.71-15.58,12-23.41,18.09a2.63,2.63,0,0,1-1,.57.35.35,0,0,1-.12.25c-.87.92-1.85,1.87-2.89,2.79a1.17,1.17,0,0,1-.65.35C492.87,667.09,493,666.92,493.16,666.71Zm144.07-56.94.2.14-.6-.15-1.14-1Zm6.69-7.59h0l.65.6Zm-63.54,36a92.76,92.76,0,0,1,14.43-4.87l-3.33,1.53Zm64.28-25.34a13.66,13.66,0,0,1-2.77-1.76,4.29,4.29,0,0,1-1.49.68c-1.45.37-2.91.65-4.35.88.34.38,0,.44-.15.55l-.47.27c1.57-.17,3.16-.3,4.78-.39A33.26,33.26,0,0,1,644.66,612.8Zm9.55-4.88.19.14,0,.78S654.3,608.45,654.21,607.92Zm0-1.33-.24,0C654,606.27,654.07,606.34,654.23,606.59Zm-2.23-.31a2.13,2.13,0,0,0,.4.3Zm-8.61-20.22.48,3.79-.36-3.67Z"/><path d="M349,47.56l.51.29a1.25,1.25,0,0,1-1.1.37,9.43,9.43,0,0,0,3.83.67,11.18,11.18,0,0,0,3.74-.76,15.69,15.69,0,0,0,3.42-1.84,17.39,17.39,0,0,0,2.89-2.48,2.51,2.51,0,0,0,2.46-2.44A2.4,2.4,0,0,0,362,39.28a4,4,0,0,1-1-.31A17.2,17.2,0,0,0,357.21,37a25.13,25.13,0,0,0-4.27-1l1.84.79a7.39,7.39,0,0,0-2.61-.18l.44.62a6.57,6.57,0,0,0-8.08,3c-1.34,2.74.13,5.8,3.13,6.86Z"/><path d="M355.36,53.71c-1.7-.53-3.37-1.1-5-1.65l-.39-.35.52,1.86v-.13a6.77,6.77,0,0,1,2.24-2.31,18.51,18.51,0,0,1,3-1.51l.71-.42a1.58,1.58,0,0,0,.49-1.13A1.71,1.71,0,0,0,355,46.43l-1.19,0a10.66,10.66,0,0,0-2.49-.15,9.61,9.61,0,0,0-2.54.55,4.92,4.92,0,0,0-3.31,3.48c-.18.81.36,1.68.64,2.52a2.56,2.56,0,0,0,5-.76l.76.11-.45.56c.14-1.18,1.35-1.68,2.18-2.43l1.36-.57L353.65,47l-.67.52a3.19,3.19,0,0,1,.22.3,30.6,30.6,0,0,1-3.82,3L347.7,52.3a1.34,1.34,0,0,0,.54,1.86l1,.45-.47-.29c2.1.24,4.21.15,6.28.51a.64.64,0,0,0,.78-.42A.57.57,0,0,0,355.36,53.71Z"/><path d="M348.6,55.52a1.5,1.5,0,0,0-1.16-.18l-.13.28L348,56C348.56,56.25,348.72,55.92,348.6,55.52Z"/><path d="M347.31,55.62l-.31-.16c.08.09.16.16.24.24l0,0Z"/><path d="M491.09,319.6a33.28,33.28,0,0,0,12.32,4.91c.6.1,1.18.23,1.8.31l1.91.21,1.91.23,1.94.07,1.95.08,2-.07,2-.06c.66,0,1.32-.15,2-.21a68.35,68.35,0,0,0,30.75-11.59,76.62,76.62,0,0,0,13.06-11.08,86.49,86.49,0,0,0,10.56-13.92,110.49,110.49,0,0,0,13.33-33.76,11.1,11.1,0,0,0,.45-3.12,8.84,8.84,0,0,0-.8,2.64A110.18,110.18,0,0,1,573,287.9c-.8,1.23-1.57,2.49-2.38,3.71l-2.54,3.57-2.7,3.41-2.82,3.18a78.36,78.36,0,0,1-12.9,11,68.19,68.19,0,0,1-30.41,11.69l-2,.22c-.65.07-1.3,0-1.95.08l-1.94.08c-.65.05-1.29-.05-1.93-.05a32.24,32.24,0,0,1-3.82-.26c-1.25-.16-2.56-.24-3.7-.49a33.35,33.35,0,0,1-12.26-4.73c-.46-.25-.78-.53-1.1-.69a2.13,2.13,0,0,0-.62-.24C489.83,318.53,490.34,319,491.09,319.6Z"/><path d="M682.86,51.15c-.68.07-1,.14-1,.19a4.1,4.1,0,0,0,1.1.06c1.21,0,3.37-.12,4.71-.27,1.14-.13,1.09-.26-.12-.25C686.17,50.88,684,51,682.86,51.15Z"/><path d="M672.49,61a80.74,80.74,0,0,0-19,7.55c-1,.56-2.12,1.21-3,1.64.46,0-.7.73-2.93,2.12a95.13,95.13,0,0,0-15.07,12.29l-3.37,3.55L626,91.9c-1.09,1.23-1.94,2.63-2.91,3.95l-1.42,2c-.45.69-.85,1.4-1.28,2.1l-1.26,2.1a19.37,19.37,0,0,0-1.2,2.13l-2.21,4.38a83.26,83.26,0,0,0-3.46,9.14,88.72,88.72,0,0,0-3.74,19.52,151.83,151.83,0,0,0-.16,20.59c.45,7,1.21,14.09,2.09,21.26s1.91,14.48,2.78,21.89,1.63,15,1.92,22.68a12.15,12.15,0,0,1,.54,2.6,96.21,96.21,0,0,1-.46,22.08c-.26,2.27-.68,4.52-1.06,6.77a143.57,143.57,0,0,1-12.75,39.76,122.76,122.76,0,0,1-11.06,18.1c-1.09,1.4-2.11,2.85-3.27,4.22l-3.51,4.09-3.72,3.88c-1.27,1.27-2.61,2.46-3.92,3.68a92.41,92.41,0,0,1-15.71,12.55,108.13,108.13,0,0,1-16.69,8.87,95.78,95.78,0,0,1-18.52,5.56l-4.86.82-4.94.47c-1.65.2-3.32.16-5,.21l-2.52,0c-.84,0-1.68-.08-2.52-.12-1.69-.11-3.35-.15-5.08-.34-.86-.11-1.72-.2-2.59-.32l-2.59-.42a72,72,0,0,1-10.32-2.7c1.66.78,2.65,1.26,2.57,1.47-.66.27-7.34-1.22-14.58-5.69A54.14,54.14,0,0,1,462.29,341a53.32,53.32,0,0,0,7.23,6.3c1.28.87,2.55,1.8,3.87,2.55l2,1.17,2,1.05a69.24,69.24,0,0,0,16.33,5.85c1.6.34,3.07.65,4.42.89l2.3.32c.76.1,1.5.14,2.25.21l4.51.34c1.5,0,3,0,4.51,0h2.26l2.24-.16c1.5-.11,3-.2,4.5-.36l4.45-.65c1.5-.18,3-.52,4.41-.84s3-.61,4.38-1A102.6,102.6,0,0,0,552,349.9a110.39,110.39,0,0,0,16.18-9.77,117.2,117.2,0,0,0,14-12.23,119.23,119.23,0,0,0,11.63-14.26,131.06,131.06,0,0,0,9-15.52,135,135,0,0,0,6.68-16.29,143.2,143.2,0,0,0,4.52-16.69c.65-2.8,1-5.62,1.55-8.41s.8-5.62,1-8.43a160.86,160.86,0,0,0,.82-16.81l0-4.19-.18-4.12c-.07-1.37-.11-2.76-.21-4.11l-.32-4c-.89-10.77-2.4-21.13-3.78-31.2s-2.63-19.89-3.09-29.51a117.61,117.61,0,0,1,1.61-28,38.55,38.55,0,0,1,1.06-4c.27-.67.36-.51.09.8-2.49,11.21-2.38,22.66-1.38,34.16s3.18,23.21,5.2,35.57c1,6.16,2,12.55,2.8,19.14.18,1.67.35,3.35.53,5,.09.84.17,1.69.26,2.53l.18,2.6c.12,1.73.25,3.47.35,5.24s.11,3.57.16,5.37a158.36,158.36,0,0,1-5.84,45.51c-5.36,18.84-14.61,37.16-28.86,52.58a113.81,113.81,0,0,1-24.24,19.79,112.58,112.58,0,0,1-14.2,7.33c-1.24.52-2.51,1-3.77,1.48s-2.5,1-3.82,1.39c-2.61.79-5.18,1.7-7.89,2.28l-4,.95c-1.36.27-2.73.48-4.11.72-2.73.52-5.55.73-8.36,1-1.4.15-2.82.17-4.24.2l-4.27.06-4.29-.22c-1.44-.1-2.85-.15-4.35-.36a78.26,78.26,0,0,1-17.82-4.13,73.63,73.63,0,0,1-8.88-3.88,65.14,65.14,0,0,1-8.69-5.48,59.36,59.36,0,0,1-8.13-7.29,55.13,55.13,0,0,1-3.63-4.38c-.57-.78-1.15-1.54-1.69-2.34l-1.55-2.47a26.24,26.24,0,0,1-1.43-2.52c-.45-.85-.9-1.71-1.31-2.58-.76-1.73-1.56-3.5-2.14-5.26a61.78,61.78,0,0,1-2.73-10.54,73.19,73.19,0,0,1-1-10.1,83.81,83.81,0,0,1,.3-9.46,107.47,107.47,0,0,1,3-17.19A202.53,202.53,0,0,1,453.64,248c4.09-9.11,8.37-17.54,12.33-25.51s7.63-15.53,10.61-22.76A110.47,110.47,0,0,0,483,179.27a67.56,67.56,0,0,0,1.13-9.29l.06-2.23,0-2.21c-.11-1.42-.28-2.8-.36-4.19a54.05,54.05,0,0,0-5-16.62,71.87,71.87,0,0,0-25.26-28.35c-1.91-1.13-3.73-2.4-5.7-3.35l-1.44-.78-.71-.4-.74-.32-2.93-1.33c-1-.46-2.11-.82-3.15-1.24l-1.59-.62c-.52-.21-1.09-.35-1.63-.54l-3.26-1.06-3.35-.87c-.56-.15-1.1-.32-1.67-.44l-1.71-.35c-1.15-.22-2.26-.52-3.43-.7-2.33-.35-4.63-.78-7-1s-4.77-.4-7.16-.59c-1.21-.06-2.44-.06-3.65-.1l-1.82,0c-.61,0-1.23,0-1.85,0l-3.68,0-1.87.12H395l-.09,0-.76.12-1.51.21c-1,.11-2,.31-3,.46l-3,.42-3,.48-3,.46-3.06.54a4.86,4.86,0,0,1-2.26.17,5.28,5.28,0,0,1-2.12-.8,7.2,7.2,0,0,1-2.95-4.08,7.44,7.44,0,0,1,.86-6.16l-.82.09-1.36-.21a5.71,5.71,0,0,1-3.4-2l-1.21-1.37c-1.79-2.69-4.33-4.79-6-7.61l0-1.22-.32-.28a6.06,6.06,0,0,1-2.27-2.79l-.23-1.42a14,14,0,0,1,.26-4.84,5.19,5.19,0,0,1-.14-1.79,7,7,0,0,1-1.41-4.54,1,1,0,0,1-.18-1.41,1.18,1.18,0,0,1,.47-.33h0a8.15,8.15,0,0,0-.72-.76,6.21,6.21,0,0,1-.62-.09c-1,0-1,0-1.92-.08a5.07,5.07,0,0,1-1.45-.93c-1.4-2.33-1.41-2.33-1.54-3.44a3.38,3.38,0,0,1,.08-.34l-1-.31a2.36,2.36,0,0,1-.41-.35c-.17-.58-.17-.58-.34-.76a2.5,2.5,0,0,1-.13-.44c.21-.72.21-.72.18-.91a1.56,1.56,0,0,1,.13-.36l.61-.46L348.53,57l.08-.57.38.65-.27-.61.56.28-.67-.44a4.63,4.63,0,0,0,1.61-.13,1.86,1.86,0,0,0,.89-.29,3.24,3.24,0,0,1-.12-.33c1.25,0,1.25,0,2.47,0a4.13,4.13,0,0,1,.36.37.54.54,0,0,1,.52-.33H355l.11-.12v0l.46-.39.09-.09h0l2-1.71a7.45,7.45,0,0,1,1.09.11l-.35-.23c-.24-.17-.17-.76-.28-.8a35.53,35.53,0,0,0-8.69-.7,1,1,0,0,1-1.21-.49.86.86,0,0,1,.6-1.11c5-4.28,12.39-5.06,18.69-3.46,1.63.11,3.25.17,4.86.23l-.26-.26,1.29.29h.13l-1.05-.91-.69-.23a28.91,28.91,0,0,1-5.56-.65c-1.83-.32-3.67-.71-5.55-.95s-3.85-.94-5.82-1.34a.81.81,0,0,1-.91-.7.84.84,0,0,1,.83-.81,30.85,30.85,0,0,1,9.56-1.38,19.92,19.92,0,0,1,9.09,2.26,5.58,5.58,0,0,1,3.22.67h.05l-.78-.8c.87.14,1.39.81,2.19,1.05-.13-.36-.27-.78-.4-1.15,2.12.2,4.3.11,6.46.26a18.77,18.77,0,0,1,6.25,1.16,3,3,0,0,1,.45.1,24.24,24.24,0,0,1,2.54-1.14l.66-.22.09,0h.15L396,42c1.12-.05,2.26,0,3.41,0,4.6,0,9.37.23,14.32.68-1.68-.24-3.33-.34-5-.51s-3.32-.35-5-.41l-4.95-.26c-.83,0-1.66-.09-2.48-.09l-1.24,0h-.58l.67,0,1.33-.05c.89,0,1.79,0,2.68,0l5.39,0c1.8,0,3.62.16,5.43.25l2.73.14,2.75.27A141.32,141.32,0,0,1,438,45.74a137.81,137.81,0,0,1,30.89,11.95,123.35,123.35,0,0,1,26.55,19.2c1.83,1.84,3.67,3.6,5.37,5.43s3.27,3.73,4.82,5.54,2.89,3.76,4.24,5.58l1,1.35.92,1.41c.59.93,1.18,1.84,1.77,2.74l1.68,2.66c.52.89,1,1.8,1.47,2.68,1,1.76,1.85,3.44,2.67,5.07s1.44,3.29,2.07,4.81a43.42,43.42,0,0,1,1.65,4.36,107.46,107.46,0,0,1,9.67,30.63c.33,2.71.66,5.42.92,8.13q.15,4.11.23,8.21a112.18,112.18,0,0,1-1.43,16,137.38,137.38,0,0,1-8.45,29.25,279.44,279.44,0,0,1-12,25.32c-8.37,15.84-16.74,30.27-22.25,44.46-1.37,3.53-2.56,7.08-3.55,10.5a58.3,58.3,0,0,0-1.92,9.53,31.81,31.81,0,0,0,0,8,15.1,15.1,0,0,0,1.78,5.39,4.92,4.92,0,0,1,.24.45c.09.14.18.28.26.42a8.24,8.24,0,0,0,.46.79,4.19,4.19,0,0,1,.31.66.88.88,0,0,1,.15.43c-.07.32-1.08-.29-1.91-1.56a14,14,0,0,1-1.79-3.65,21.57,21.57,0,0,1-.94-4.95,45.08,45.08,0,0,1,1.26-13.16c.28-1.21.59-2.41.94-3.66s.73-2.57,1.18-3.85.83-2.58,1.32-3.88l.7-1.94.77-1.95c2.05-5.2,4.44-10.46,7.09-15.79,5.26-10.68,11.43-21.6,17.34-33.44,2.94-5.92,5.84-12.06,8.42-18.57a149.58,149.58,0,0,0,6.59-20.52,167,167,0,0,1-12.79,32.95c-5,10.1-10.45,19.47-15.49,28.61a264.1,264.1,0,0,0-13.4,27c-.92,2.24-1.77,4.47-2.55,6.71s-1.49,4.5-2.07,6.61a53.92,53.92,0,0,0-2,12.31,24.63,24.63,0,0,0,1.63,10,20.89,20.89,0,0,0,2,3.69,22.65,22.65,0,0,0,3.06,3.38A32.61,32.61,0,0,0,499.45,327a42.16,42.16,0,0,0,7.64,1.3c.67.05,1.33.16,2,.19l2,0,2,.06,2-.11a68.72,68.72,0,0,0,31.59-9.93,79.64,79.64,0,0,0,13.7-10.42,82.27,82.27,0,0,0,11.33-13.29,105.34,105.34,0,0,0,14.91-33.41A137.75,137.75,0,0,0,590.87,230c.12-5.21-.13-10.54-.43-15.88s-.87-10.78-1.47-16.31c-1.14-11-2.58-22.39-3.24-34.47-.08-1.51-.15-3-.23-4.54s-.07-3.08-.1-4.63c-.11-3.08,0-6.27.09-9.44A130.62,130.62,0,0,1,587.7,125l.67-3.52.9-3.49.92-3.48c.29-1.16.76-2.31,1.13-3.46a72,72,0,0,1,2.56-6.8l1.46-3.31.73-1.65c.27-.54.56-1.06.84-1.59a101.81,101.81,0,0,1,16.17-23.19,109.62,109.62,0,0,1,46.16-29.64,98.2,98.2,0,0,1,27.33-4.83,106.88,106.88,0,0,1,27.48,2.64,115.94,115.94,0,0,1,49,24.57l1.43,1.16,1.34,1.24,2.56,2.41a58.05,58.05,0,0,1,4.3,4.51,26.77,26.77,0,0,1,4.15,5.47c.2.61-.89-.42-2.9-2.46-1.05-1-2.32-2.22-3.77-3.65l-1.11-1.1-1.23-1.11-2.62-2.38A116.45,116.45,0,0,0,714.68,45.1a104.58,104.58,0,0,0-28.86-2.63,99,99,0,0,0-28.58,5.74,106.76,106.76,0,0,0-46.77,33.25,98.74,98.74,0,0,0-14.85,25.2,107.44,107.44,0,0,0-6.87,28.22,172.17,172.17,0,0,0-.57,27.92c.48,9.11,1.41,18,2.33,26.69,1.85,17.42,3.67,34.15,2.09,50.3a122.46,122.46,0,0,1-13.22,46.42c-1,1.74-1.88,3.53-3,5.2L574.84,294l-1.7,2.45c-1.08,1.66-2.36,3.17-3.55,4.76-.59.8-1.27,1.49-1.9,2.24s-1.25,1.5-1.93,2.2a84.26,84.26,0,0,1-18.27,14.73c-11.65,6.86-24.7,10.5-37.19,10,.16.1.31.19.3.29s-.3.36-.86.52a10.28,10.28,0,0,1-1,.23c-.4,0-.86.07-1.37.09a62.74,62.74,0,0,0,21.92-2,78.74,78.74,0,0,0,10.77-3.7,85.39,85.39,0,0,0,10.23-5.39,81.88,81.88,0,0,0,12.59-10.16,89.57,89.57,0,0,0,10.46-12.44,109.65,109.65,0,0,0,14.41-30.08,140.9,140.9,0,0,0,5.87-34.15c.58-11.73-.25-24-1.41-36.84-1.55-17.61-3.44-35.17-2.22-53a116.19,116.19,0,0,1,4.79-26.46,94.54,94.54,0,0,1,11.63-24.5,101.82,101.82,0,0,1,22.76-25.31A105,105,0,0,1,658.92,51a94.24,94.24,0,0,1,33.85-5.43,104.26,104.26,0,0,1,17.09,1.76c1.4.27,2.79.62,4.18.93l2.1.49a21,21,0,0,1,2.07.55l4.1,1.24c.68.21,1.38.4,2.05.64l2,.75a39.21,39.21,0,0,1,4,1.66c.58.32-.37,0-2.1-.57l-2.77-1c-.92-.33-1.84-.66-2.79-.92l-5.68-1.63-5.79-1.26a29.47,29.47,0,0,0-2.93-.52l-3-.44a103,103,0,0,0-23.95-.43,99.95,99.95,0,0,0-44.93,16.81A54.45,54.45,0,0,1,641.81,61c1.28-.47,2-.59,1.89-.29s-.91,1-2.3,2.08c-.69.55-1.52,1.2-2.48,1.92l-1.54,1.14c-.55.39-1.11.8-1.68,1.29a104.82,104.82,0,0,1,18.76-10.35c4.13-1.59,7.46-2.6,7.42-2.32s-3.25,1.61-7.13,3.13a103.11,103.11,0,0,0-18.9,10.54l-4.36,3.22-4.13,3.52c-1.41,1.13-2.64,2.47-3.94,3.72l-1.94,1.9c-.64.63-1.21,1.34-1.82,2a90.88,90.88,0,0,0-12.61,17.65l-1.3,2.4c-.22.4-.45.79-.65,1.2l-.55,1.24-2.23,5a100.31,100.31,0,0,0-3.38,10.37,117.58,117.58,0,0,0-3.46,25.6,210.26,210.26,0,0,0,.93,25.41c1.48,16.76,4,33.2,4.62,49.62a72.29,72.29,0,0,1,.82-9.61h0c-.37-5.12-.86-10.22-1.4-15.33-1.39-11.68-3-23.46-3.66-35.46a137.52,137.52,0,0,1,2.14-36.3,90.06,90.06,0,0,1,5.69-17.64,92.37,92.37,0,0,1,4.16-8.33c.76-1.35,1.64-2.63,2.46-4a45.7,45.7,0,0,1,2.6-3.86l2.79-3.74c1-1.22,2-2.36,3-3.55l1.53-1.76c.5-.59,1.08-1.12,1.62-1.68l3.3-3.3c1.14-1.06,2.34-2.05,3.5-3.08l1.77-1.53c.6-.5,1.23-.95,1.85-1.42L637,67.58c1.29-.87,2.61-1.7,3.91-2.55l2-1.28,2-1.14,4.1-2.26,4.26-2,2.13-1,2.19-.84C659,56,660.5,55.44,662,54.92l4.51-1.34c.75-.21,1.49-.48,2.26-.64l2.3-.5c1.54-.32,3.07-.71,4.62-1a92.45,92.45,0,0,1,9.38-1l2.36-.14a20.5,20.5,0,0,1,2.35-.07l4.72.07a95.94,95.94,0,0,1,18.64,2.57c3.08.61,6,1.65,9.06,2.53,1.49.5,3,1.08,4.42,1.62l2.2.83c.73.3,1.44.64,2.15.95l4.29,1.94,4.16,2.2,2.08,1.1,2,1.23c1.34.83,2.69,1.63,4,2.48A109.08,109.08,0,0,1,774.71,93.5a19.54,19.54,0,0,1,2,3A14.36,14.36,0,0,1,774.67,94a107.62,107.62,0,0,0-54.44-38.82l-2.71-.82c-.9-.28-1.81-.55-2.73-.74l-5.53-1.27-5.6-.89c-.93-.17-1.87-.25-2.81-.33L698,50.88l.12,0c1.22.17,1.43.31.09.26-.58,0-1.46-.08-2.34-.16s-1.78,0-2.38-.1c-1.4-.1-1.27-.21-.12-.25-1.77,0-3.53-.11-5.29,0l-5.28.31c-1.76.12-3.5.44-5.25.65-.87.13-1.75.23-2.62.38l-2.58.56-2.59.56-1.29.28-1.26.38-5.06,1.5c-1.66.58-3.29,1.23-4.93,1.84a51.72,51.72,0,0,0-4.83,2.09c-3.23,1.38-6.24,3.18-9.31,4.86-2.93,1.92-5.92,3.73-8.66,5.92-1.39,1.05-2.81,2.08-4.09,3.26s-2.65,2.28-3.94,3.45l-3.69,3.71-.93.92-.86,1-1.7,2-1.71,2c-.57.66-1.06,1.38-1.59,2.07-1,1.41-2.1,2.78-3.08,4.22L610.05,97c-.23.37-.47.73-.69,1.11l-.61,1.15-1.23,2.3-1.22,2.31c-.38.78-.7,1.59-1.06,2.38-.67,1.6-1.42,3.18-2,4.8l-1.68,4.94c-.13.41-.28.82-.41,1.23l-.32,1.26-.64,2.51-.64,2.51c-.21.84-.32,1.69-.49,2.54-.3,1.69-.64,3.38-.9,5.08-.4,3.4-.86,6.8-1,10.21-.28,3.41-.22,6.81-.27,10.2.11,3.38.15,6.77.4,10.12a140.94,140.94,0,0,1,2.5-37.62l1.22-4.61c.21-.77.4-1.54.62-2.3l.79-2.26c.54-1.5,1-3,1.61-4.5L606,106a44.69,44.69,0,0,1,2.15-4.26l1.14-2.1a21.3,21.3,0,0,1,1.19-2.07l2.58-4,.65-1,.72-1,1.43-1.9a94.83,94.83,0,0,1,6.1-7.31c1.06-1.18,2.24-2.25,3.35-3.38L627,77.3c.57-.55,1.19-1,1.79-1.56l3.61-3.1,3.81-2.83c.64-.47,1.27-1,1.92-1.41l2-1.28c1.35-.84,2.65-1.73,4-2.52,2.79-1.5,5.52-3.11,8.45-4.34l2.16-1,1.08-.49,1.11-.41,4.46-1.66c.73-.29,1.5-.5,2.26-.72l2.28-.66a45.66,45.66,0,0,1,4.6-1.19l4.65-1c1.57-.24,3.14-.42,4.71-.63l2-.32c.69-.09,1.38-.12,2.06-.19l4.15-.33c1.38-.12,2.77,0,4.16-.08s2.8-.07,4.2,0a36.82,36.82,0,0,1,4.12.5c.42.12-.71.13-2.27,0L696,52c-.77,0-1.54,0-2.32,0l1.77,0c.58,0,1.15.11,1.7.16l3.19.35a42.66,42.66,0,0,1,5.27.92c1.47.33,2.64.61,3.42.87s1.16.51,1.09.63a5.06,5.06,0,0,1-1.76,0c-1,0-2.36-.16-4-.33-.82-.07-1.71-.22-2.67-.28l-3-.18L695.36,54l-3.56,0-2.45,0c-.81,0-1.62.09-2.44.12-1.62.12-3.25.18-4.87.33A94,94,0,0,0,672.43,56c-3.21.59-6.28,1.66-9.4,2.56-3,1.18-6.12,2.19-9,3.65l-2.21,1-1.1.51-1.06.59-4.26,2.36c-1.41.81-2.74,1.74-4.11,2.6l-2,1.33L637.28,72a92.13,92.13,0,0,0-14.38,13l-2.72,3.2c-.9,1.08-1.68,2.25-2.52,3.36a80.49,80.49,0,0,0-4.5,7.13,93.2,93.2,0,0,1,19.7-22.52L634.29,75l1.5-1.12,3-2.22c1-.78,2.08-1.38,3.12-2.07l3.17-2,3.28-1.79c1.11-.57,2.17-1.24,3.32-1.74l3.4-1.54,1.71-.78c.57-.25,1.16-.44,1.74-.66a88.08,88.08,0,0,1,29.07-6A91.17,91.17,0,0,1,717,58.94c1.63.49,3.13,1,4.21,1.36a6.13,6.13,0,0,1,1.74.9c0,.1-.65-.05-1.7-.37s-2.55-.66-4.16-1.15a93.33,93.33,0,0,0-25.61-3.48,84.68,84.68,0,0,0-25.43,4,92.26,92.26,0,0,0-42.34,28.53,85.23,85.23,0,0,0-13.35,21.91,90.59,90.59,0,0,0-6.19,24.94,153.28,153.28,0,0,0-.34,26.17c.54,8.8,1.58,17.64,2.62,26.56.9,5.82,1.79,11.7,2.6,17.63.35,3,.79,6,1.06,9l.44,4.53c.13,1.52.21,3.05.32,4.58A162.29,162.29,0,0,1,609,261.44c.31-1.57.62-3.15.94-4.73s.52-3.18.78-4.78c.21-1.27.37-2.54.5-3.81s.29-2.53.44-3.79c.17-2.53.45-5.05.52-7.56l.15-3.76c0-1.25,0-2.49,0-3.74,0-2.5-.09-4.94-.16-7.39-.4-9.78-1.49-19.2-2.65-28.36-2.32-18.29-5-35.77-4.1-52.9a95.51,95.51,0,0,1,4.42-24.94,81.42,81.42,0,0,1,11.68-22.56,89.72,89.72,0,0,1,41.9-31.23,16.87,16.87,0,0,1,3.45-.91c.22,0-.93.49-2.69,1a89.22,89.22,0,0,0-41,29.68,82.05,82.05,0,0,0-12,21.74,92.43,92.43,0,0,0-5.09,24.79c-1,14.41.51,28.75,2.39,43,.93,7.14,2,14.29,2.83,21.51s1.65,14.46,1.95,21.84c-.15-7.55-.82-14.9-1.59-22.11s-1.72-14.3-2.56-21.27-1.65-13.87-2.08-20.68a151.63,151.63,0,0,1-.21-20.2c0-1.67.24-3.3.42-5s.3-3.3.62-4.9.52-3.25.84-4.86l1.15-4.76a82.84,82.84,0,0,1,7.33-18.07,90.32,90.32,0,0,1,11.65-16l3.48-3.58c1.21-1.15,2.48-2.23,3.72-3.36s2.58-2.12,3.9-3.16l2-1.54c.66-.51,1.38-.94,2.08-1.42,1-.66,2-1.3,2.86-1.87a21.23,21.23,0,0,1,2.47-1.31,5.81,5.81,0,0,1,1.09-.77,81.39,81.39,0,0,1,19.74-8.69,27.13,27.13,0,0,1,3.94-.78C674.87,60.28,674,60.57,672.49,61ZM368.22,58.51l-.19-.19.59.27,1,1.31Zm-8.4,6.69h0l-.57-.7ZM510.29,231c3.64-7,7.2-14.2,10.36-21.89,1.6-3.82,3-7.81,4.36-11.87s2.42-8.29,3.36-12.58a119.58,119.58,0,0,0,2-13.22c.13-1.11.15-2.25.23-3.37s.15-2.25.11-3.4l-.08-6.88a107.22,107.22,0,0,0-5-26.75,104.25,104.25,0,0,1,5.71,26,108.35,108.35,0,0,1-5.65,40.07C521.54,209.47,516,220.55,510.29,231ZM361,54.2a12.69,12.69,0,0,1,2.62,2.22,4.88,4.88,0,0,1,1.72-.46,31.19,31.19,0,0,1,4.82-.13c-.27-.47.11-.45.29-.53l.57-.2-5.18-.47A41,41,0,0,1,361,54.2Zm-11.08,4.14-.18-.15.13-.8S349.86,57.81,349.89,58.34Zm-.19,1.35.25.05C349.93,60,349.83,60,349.7,59.69Zm2.33.46a1.65,1.65,0,0,0-.39-.33Zm6.16,21.3,0-3.84-.07,3.71Z"/><path d="M458.7,157v.53c-.31,0-.56-.18-.75-.53.58,4.88,5.51,6.57,9.55,6.18a2,2,0,0,0,2.86-.24,2.33,2.33,0,0,0,.06-3.07,2.35,2.35,0,0,1-.26-.8,18.11,18.11,0,0,0-1.42-7c.07.54.13,1.11.2,1.65A4.87,4.87,0,0,0,468,152c-.09.22-.18.47-.26.68a3.92,3.92,0,0,0-5.25-3.32,5.91,5.91,0,0,0-4,6.35Z"/><path d="M457.06,165.24c-.49-1.48-.83-3-1.18-4.56l.1-.5-1.18,1.53.1-.08c1.91-.44,3.68.41,5.32,1.18l.65.2a1.61,1.61,0,0,0,1.06-.43,1.74,1.74,0,0,0,.28-2.3l-.6-.74c-1-2.39-3.44-4.88-6.54-3.28a6.78,6.78,0,0,0-1.69,2,2.32,2.32,0,0,0-.18,3.2,2.06,2.06,0,0,0,3-.12c.09.21.18.41.26.61l-.63,0c.95-.63,1.88-.1,2.82,0,.35.19.72.36,1.08.54l1.35-2.72-.69-.11a3.42,3.42,0,0,1-.11.34,16.61,16.61,0,0,1-3.91-.76l-1.88-.26a1.53,1.53,0,0,0-1.2,1.51l.11,1V161c.79,1.63,1.82,3.14,2.61,4.8a.52.52,0,0,0,.72.25A.62.62,0,0,0,457.06,165.24Z"/><path d="M452.44,161.58a1.2,1.2,0,0,0-.4-.94l-.28.07c0,.2,0,.48.06.75C451.86,162,452.19,161.91,452.44,161.58Z"/><path d="M451.76,160.71c0-.18,0-.31,0-.31s-.05.21-.07.31l0,0Z"/><path d="M560.69,208.19l4.67.79c1.56.29,3.14.41,4.71.62s3.15.42,4.74.54l4.76.36c1.6.15,3.19.19,4.79.24l4.8.14,4.81,0,2.41,0c.8,0,1.61-.08,2.41-.11.43,0,.78-.14.79-.27s-.34-.19-.73-.16a170.75,170.75,0,0,1-38-2.55c-.42-.06-.77,0-.84.12S560.3,208.12,560.69,208.19Z"/><path d="M658.79,207.46c-.27.18-.22.28.12.22a3,3,0,0,0,1.05-.42c.22-.16.16-.27-.13-.22A3.15,3.15,0,0,0,658.79,207.46Z"/><path d="M659.07,215.93c-1.77.91-3.42,1.83-4.9,2.67a3.75,3.75,0,0,1-.87.33c.16.11-.14.39-.78.71a165.42,165.42,0,0,1-20.28,8.56L626.85,230l-2.72.86-2.75.77-5.51,1.54-5.57,1.35a1.43,1.43,0,0,1-.57.56,8,8,0,0,1-2.15.94,19,19,0,0,1-3.08.57l-1.66.13c-6.68.73-13.39,1.07-20.07,1.15a27.88,27.88,0,0,1-4.68.61l-4.37.61c-1.46.18-2.93.3-4.4.45l-4.46.4c-1.49.09-3,.14-4.5.2.36.17.58.36.56.56-.15.47-1.58.76-3.22.67-.83,0-1.65,0-2.48-.1l7.08.7a8.29,8.29,0,0,1,.94.12c2.59.12,5.22.05,7.89,0a176.44,176.44,0,0,0,33.58-4.19,209.94,209.94,0,0,0,30.87-9.46,3.14,3.14,0,0,1,1.16-.31c.22,0,.21.16-.14.32-1.53.71-3,1.49-4.53,2.16l-4.48,2c-3,1.43-6,2.62-9.07,3.93-1.54.67-3.12,1.24-4.72,1.82l-4.93,1.75c-1.69.56-3.43,1.05-5.21,1.56s-3.63,1.05-5.55,1.43l-6.87,1.49-6.93,1.22c-2.32.44-4.65.7-7,1s-4.7.63-7.07.81a201.16,201.16,0,0,1-29,.81c-10.23-1.1-20.11-2.43-30-4.38a264.74,264.74,0,0,1-30.05-7.55l-5.63-1.92-2.8-1L470,232.58l-5.49-2.17c-1.8-.76-3.58-1.57-5.37-2.36-4-1.52-7.81-3.4-11.62-5.26-1.9-.95-3.74-2-5.61-3s-3.75-2.06-5.57-3.22c-4.06-2-6-6.25-4.14-9.53a6.59,6.59,0,0,1,5.46-3.24c-.28-.2-.56-.4-.83-.62l-1.06-1.31a6.07,6.07,0,0,1-1.39-4.22l.06-1.89a46.37,46.37,0,0,0,.53-4.88,20.6,20.6,0,0,1,.9-4.88l1-.74v-.44a5.59,5.59,0,0,1,.72-3.55l1-1a14.37,14.37,0,0,1,4-2.68,5,5,0,0,1,1.32-1.19,7.06,7.06,0,0,1,2.71-3.87,1,1,0,0,1,1-1,.94.94,0,0,1,.52.16h0c.09-.41.12-.53.19-1a4.41,4.41,0,0,1-.26-.53c-.53-.8-.53-.8-1-1.5a4.74,4.74,0,0,1,0-1.65c1.13-2.44,1.14-2.44,1.95-3.2l.31-.14c-.19-.67-.2-.72-.24-.91a2.52,2.52,0,0,1,.08-.51c.37-.47.37-.47.44-.7a2.41,2.41,0,0,1,.28-.35c.68-.29.68-.29.82-.42a1.6,1.6,0,0,1,.34-.13l.65.16-.42,1.72.48-.28-.32.66.34-.56.05.58,0-.75c.57.83.57.83.87,1.08a1.51,1.51,0,0,0,.64.46,2.84,2.84,0,0,1,.2-.29c.61.89.61.89,1.18,1.79a3.86,3.86,0,0,1-.1.49.41.41,0,0,1,.51.16l.33.44h.14l0,0,.53,0h.12l2.29.23a5.63,5.63,0,0,1,.49.81c0-.14,0-.26,0-.4s.46-.61.42-.71a21,21,0,0,0-1.72-3.29c-.62-1.06-1.3-2.08-1.94-3.12a.83.83,0,0,1-.16-1.15.79.79,0,0,1,1.11-.27,11.82,11.82,0,0,1,3.72,1.24,14.46,14.46,0,0,1,3.21,2.16,17.82,17.82,0,0,1,2.61,3,21.21,21.21,0,0,1,2.1,3.47c.82,1,1.67,2.05,2.56,3v-.33l.57.93.07.08c0-.42,0-.84,0-1.27-.08-.18-.17-.37-.26-.55-2.07-2.22-3.28-5.12-4.79-7.77a36.33,36.33,0,0,1-1.76-4.58.78.78,0,0,1,.1-1,.62.62,0,0,1,.94,0c3.88,2.61,7.5,6.55,8.63,11.7a3.92,3.92,0,0,1,1.43,2.21l0,0,0-1c.41.56.32,1.34.64,1.95.14-.36.29-.73.44-1.08a23,23,0,0,0,1.76,1.8l1.91,1.66a14.79,14.79,0,0,1,3.28,3.87,2.11,2.11,0,0,1,.25.27,17.83,17.83,0,0,1,2.21.15l.54.11.14,0,.29.14.59.28c.78.39,1.58.82,2.38,1.31l-3-2.32c1.19.48,2.47,1.07,3.67,1.69a38.25,38.25,0,0,1,3.71,2c.85.51,1.69,1,2.53,1.62s1.7,1.08,2.54,1.65c1.68,1.11,3.27,2.39,4.82,3.52a46,46,0,0,1,4.15,3.52,24.78,24.78,0,0,1,3,3.28c3.6,1.53,7.3,2.81,11,4.15,3.73,1.18,7.45,2.43,11.25,3.4a164.46,164.46,0,0,0,23,4.62c.81.1,1.5.41,1.62.7s-.5.43-1.31.33a160.6,160.6,0,0,1-33.6-6.49,148.12,148.12,0,0,0,28.13,8.46l3.79.5c1.25.15,2.48.46,3.71.72a159.9,159.9,0,0,0,37.92,1,188.64,188.64,0,0,0,31.51-6,284.06,284.06,0,0,0,42.33-16c1.82-1,3.7-1.49,4.14-1.21s-.71,1.31-2.55,2.28a220.61,220.61,0,0,1-22.06,10.27,215.86,215.86,0,0,1-23.18,7.61,168.54,168.54,0,0,1-49.38,5.5c-1.83-.11-3.65-.12-5.44-.3l-5.37-.47a.74.74,0,0,1,.08.28c0,.35-.38.66-1,.9l6.13.61c2,.24,4.12.31,6.19.49,5.76-.18,11.5-.68,17.33-1.19,2.92-.27,5.85-.65,8.83-.9,3-.41,6-.68,9-1.07,2.1-.28,4.16-.52,6.19-.74l6-.84c2-.23,3.92-.6,5.87-.92s3.91-.61,5.84-1.06a221.89,221.89,0,0,0,28-11,2,2,0,0,1,.92-.31c.17,0,0,.19-.34.39A172.17,172.17,0,0,1,647,207.81c1.19-.06,2,.1,2,.55s-.63,1.15-1.82,1.88l4.72-1.59c1-.33,1.78-.48,1.84-.25s-.63.72-1.55,1l-4.82,1.65-2.41.83-2.44.73-4.87,1.45c-1.63.47-3.28.86-4.92,1.29l-2.92.87c-1,.29-2,.51-2.94.77-2,.5-3.94,1-5.92,1.49l-6,1.28c-2,.44-4,.72-6,1.08a5.3,5.3,0,0,1,2.54.92h0c1.25-.2,2.51-.38,3.74-.65a274.32,274.32,0,0,0,65.77-25c.41-.22.79-.33.85-.25s-.23.31-.6.5c-3.2,1.66-6.33,3.42-9.59,4.93-1.62.78-3.21,1.61-4.84,2.35l-4.9,2.2h0c.29-.06.39,0,.13.22a3.17,3.17,0,0,1-1,.45c-.33.07-.35,0-.12-.21a283.69,283.69,0,0,1-37.41,13.16,253.18,253.18,0,0,0,34.9-10.77c1.19-.61,2.37-1.22,3.54-1.89a2.44,2.44,0,0,1,1-.29c.13,0-.07.24-.41.42l-1,.54c2.12-.9,3.93-1.24,4.11-.75s-1.54,1.74-3.76,2.72c-3,1.3-5.94,2.58-9,3.76l-4.54,1.69-2.28.84-2.3.75-2,.74-1.93.91a208.77,208.77,0,0,0,28.37-10.2c.78-.36,1.51-.54,1.6-.39s-.46.61-1.25,1a203.11,203.11,0,0,1-24.46,11c-2.12.75-4.22,1.6-6.38,2.27l-6.46,2.07-6.56,1.81c-1.1.32-2.2.59-3.31.84l-3.32.77c-2.83,1.13-5.72,2.07-8.63,3.08s-5.89,1.87-8.9,2.82l2.34-.3a137.43,137.43,0,0,0,27.56-7c8.63-3.11,16.93-6.63,25.7-10.41a1.47,1.47,0,0,1,.92-.21c.08.07-.18.28-.63.47-8.53,3.78-16.37,7.34-25.23,10.46-3.69,1.19-7.29,2.48-10.89,3.48l-5.34,1.6-5.32,1.48c14.63-2.84,28.11-7.66,41.52-13.29a5.8,5.8,0,0,1,1.61-.5c0-.06.11-.16.28-.26.8-.45,1.65-.89,2.52-1.34s1.75-1,2.65-1.42a2.22,2.22,0,0,1,1-.33C659.62,215.53,659.44,215.71,659.07,215.93ZM460.93,177.07c0-.1,0-.18,0-.25l.18.57-.25,1.53Zm-9.87-1.28h0l.17-.87C451.17,175.28,451.11,175.56,451.06,175.79ZM532.33,206c-3.37-.91-6.64-2.15-9.87-3.37-1.62-.64-3.19-1.38-4.76-2.1s-3.13-1.46-4.63-2.33c1.55.61,3.14,1.13,4.72,1.65l3.57,1.64c1.19.55,2.41,1,3.62,1.54l3.65,1.54C529.85,205.08,531.09,205.52,532.33,206Zm-72.68-36.65a14.1,14.1,0,0,1-.08,3.24,4.7,4.7,0,0,1,1.33.81,36.56,36.56,0,0,1,3,3c.14-.51.37-.26.53-.2l.48.21c-1-1.16-1.89-2.36-2.81-3.59A21.3,21.3,0,0,1,459.65,169.36Zm-8.78-5.13,0-.22.68-.39Zm-1.15.68.09.22C449.57,165.29,449.59,165.17,449.72,164.91Zm.82,2a1.62,1.62,0,0,0,0-.49Zm-13,17.78,3-2.34-3,2.18Z"/></svg>