<svg id="Layer_1" data-name="Layer 1" xmlns="http://www.w3.org/2000/svg" viewBox="0 0 1080 887.12"><path d="M405.28,375.46c0,.17,0,.34,0,.51-.31,0-.55-.16-.74-.48a6.26,6.26,0,0,0,3.43,4.83,10.71,10.71,0,0,0,6,.77,1.84,1.84,0,0,0,2.75-.31,2.36,2.36,0,0,0,0-3,2.84,2.84,0,0,1-.25-.78,16.85,16.85,0,0,0-1.53-6.62c.08.52.15,1.06.22,1.58a4.9,4.9,0,0,0-.93-1.62L414,371a3.64,3.64,0,0,0-5.12-3,5.9,5.9,0,0,0-3.81,6.29Z"/><path d="M403.77,383.61c-.47-1.48-.85-2.95-1.2-4.43l.08-.49-1.13,1.52.1-.07c1.86-.49,3.63.24,5.19,1l.65.16a1.57,1.57,0,0,0,1-.46,1.67,1.67,0,0,0,.23-2.24c-.2-.23-.38-.48-.57-.72-1-2.32-3.42-4.6-6.43-3a6.71,6.71,0,0,0-1.64,2,2.24,2.24,0,0,0-.14,3.11,2,2,0,0,0,3-.21c.09.2.19.4.27.59l-.62.05c.93-.64,1.84-.16,2.77-.11l1,.51,1.31-2.72L407,378c0,.12-.09.32-.1.33a16.53,16.53,0,0,1-3.85-.6l-1.84-.19a1.53,1.53,0,0,0-1.16,1.51l.12.95v-.5c.8,1.57,1.84,3,2.63,4.6a.49.49,0,0,0,.69.24A.61.61,0,0,0,403.77,383.61Z"/><path d="M399.21,380.17c-.06-.35-.1-.7-.41-.9l-.27.08c0,.19,0,.46.06.72C398.64,380.59,399,380.5,399.21,380.17Z"/><path d="M398.53,379.35c0-.18,0-.3,0-.3l-.07.3h.1Z"/><path d="M525.75,421.32c1,0,1.92.11,2.88.12h8.72l5.83-.27,2.92-.13,2.92-.26,5.85-.54,5.83-.77,2.93-.39c1-.14,1.94-.34,2.91-.5l5.83-1c.52-.08.93-.28.92-.41s-.42-.11-.9,0l-5.82,1-2.9.49-2.92.39-5.82.76-5.82.52-2.91.26-2.91.14-5.8.25c-1.94,0-3.87,0-5.8,0s-3.85,0-5.77-.11c-.51,0-.93.07-1,.2S525.26,421.3,525.75,421.32Z"/><path d="M643.74,401.61c-.31.25-.25.34.15.21a4.84,4.84,0,0,0,1.19-.66c.26-.22.19-.32-.15-.21A4.79,4.79,0,0,0,643.74,401.61Z"/><path d="M644.45,410.31l-2.89,1.94c-.94.61-1.83,1.22-2.66,1.82a5.56,5.56,0,0,1-1,.52c.2.08-.13.43-.86.9-14.32,9.31-31.12,17.15-48.29,23.59a1.67,1.67,0,0,1-.61.66,19.73,19.73,0,0,1-6,2.49l-2,.45c-1.95.5-3.93.9-5.9,1.35s-3.93.92-5.92,1.28l-6,1.08-3,.52-3,.41a48.45,48.45,0,0,1-5.5,1.42c-3.4.89-6.84,1.62-10.32,2.42s-7,1.29-10.62,1.9c.46.11.74.26.75.46s-.5.51-1.18.7a12.35,12.35,0,0,1-2.57.37l-3,.2c2.85-.06,5.72,0,8.56-.23a11.15,11.15,0,0,1,1.13,0c3.11-.31,6.26-.56,9.42-1.11a214.42,214.42,0,0,0,39.39-9.89,265,265,0,0,0,35.41-15.58,4.45,4.45,0,0,1,1.32-.56c.26,0,.27.12-.14.36-1.7,1.08-3.42,2.08-5.12,3.07l-5.06,3c-3.38,1.94-6.78,3.84-10.27,5.74a170.88,170.88,0,0,1-23.35,10.37,242.29,242.29,0,0,1-67,13.82,333.32,333.32,0,0,1-36.45-1.87A239.89,239.89,0,0,1,435,455.17c-2.16-.49-4.25-1.19-6.36-1.81l-6.31-1.94-6.19-2.22c-2.06-.76-4.13-1.47-6.14-2.36l-1.51-.63-.76-.32-.29-.11-1-.38-2.05-.78c-1.36-.54-2.74-1-4.06-1.67q-4-1.81-7.92-3.75c-2.62-1.31-5.16-2.82-7.76-4.26a8.35,8.35,0,0,1-4.4-4.2,6,6,0,0,1,0-5.28,6.45,6.45,0,0,1,5.33-3.32l-.83-.61-1.1-1.27a6.07,6.07,0,0,1-1.51-4.16v-1.87c.54-3.19.22-6.62,1.23-9.74l.93-.75v-.43a5.59,5.59,0,0,1,.64-3.53l1-1a14.12,14.12,0,0,1,3.92-2.71,4.71,4.71,0,0,1,1.27-1.21,7,7,0,0,1,2.6-3.86,1,1,0,0,1,1-1,.94.94,0,0,1,.5.14s0,0,0,0a8.38,8.38,0,0,0,.18-1c-.18-.31-.27-.51-.27-.51-.53-.76-.53-.76-1-1.44a4.67,4.67,0,0,1-.06-1.61c1.08-2.41,1.09-2.41,1.88-3.17a1.77,1.77,0,0,1,.31-.15c-.2-.65-.21-.7-.26-.88a2.78,2.78,0,0,1,.07-.5c.37-.47.37-.47.43-.69a3.56,3.56,0,0,1,.27-.36c.67-.29.67-.29.79-.43a3.19,3.19,0,0,1,.35-.13l.63.14-.38,1.68.46-.29-.31.66.34-.56,0,.56v-.73c.57.79.57.8.87,1a1.43,1.43,0,0,0,.64.44,2.15,2.15,0,0,1,.19-.29c.6.85.6.85,1.18,1.71a3.55,3.55,0,0,1-.09.47.42.42,0,0,1,.51.14l.32.43h.14l0,0,.51.05H403c.35,0,.86.1,2.24.17a4.52,4.52,0,0,1,.5.76l0-.38c0-.26.45-.62.41-.71a15.17,15.17,0,0,0-.82-1.61c-.28-.54-.58-1.06-.9-1.57-.62-1-1.3-2-2-3a.81.81,0,0,1-.17-1.12.8.8,0,0,1,1.08-.3c5.23.72,9.11,4.41,11.53,9.18.85.95,1.72,1.87,2.62,2.79v-.34l.57.92a.46.46,0,0,0,.07.07l-.06-1.26c-.09-.18-.17-.36-.26-.53a17.4,17.4,0,0,1-2.68-3.46c-.76-1.28-1.4-2.66-2.17-3.91a34.87,34.87,0,0,1-1.83-4.33.76.76,0,0,1,.08-1,.64.64,0,0,1,.93-.06,18.73,18.73,0,0,1,5.29,4.52,15.25,15.25,0,0,1,3.38,6.45,3.86,3.86,0,0,1,1.42,2.14l0,0c0-.34,0-.66,0-1,.39.56.35,1.29.68,1.86l.4-1.07c1.13,1.14,2.46,2.11,3.71,3.17a21.83,21.83,0,0,1,1.79,1.68,12.17,12.17,0,0,1,1.55,1.92,2,2,0,0,1,.25.26,15.68,15.68,0,0,1,2.17,0l.53.07.14,0,.35.15.71.33c1,.42,1.9,1,2.92,1.42-.66-.39-1.28-.82-1.9-1.25l-1.82-1.26c.65.25,1.47.6,2.19.91s1.49.65,2.26.95c1.52.64,3,1.35,4.57,2.17,8.35,4.33,17.77,9.73,22,13.8a204.44,204.44,0,0,0,27.79,6.43,200.41,200.41,0,0,0,28.54,2.18,3.13,3.13,0,0,1,2.06.45c.11.26-.54.51-1.53.53s-1.72.1-2.59.12h-7.78c-1.73,0-3.46-.16-5.2-.23s-3.48-.15-5.21-.31a189,189,0,0,1-20.75-2.93,167.42,167.42,0,0,0,35.2,5.93c1.54,0,3.1.12,4.66.1s3.07.06,4.6.18a187.64,187.64,0,0,0,46.11-5.14,241.77,241.77,0,0,0,37.42-12.43c8.85-3.8,17.13-7.87,25.28-12.12s16.08-8.91,24.3-13.85c2.13-1.4,4.32-2.39,4.83-2.18s-.82,1.54-3,3q-12.54,8.38-25.68,15.58a288.56,288.56,0,0,1-27.14,12.81,223.17,223.17,0,0,1-28.71,9.56,194.76,194.76,0,0,1-30.27,5.5c-2.22.25-4.44.34-6.64.52l-3.28.24c-1.1.06-2.19.07-3.28.11a.64.64,0,0,1,.13.26c0,.36-.36.71-1.05,1l3.75-.08,3.76-.21L545,427l1.9-.1,1.89-.17c13.89-2.35,27.55-5.77,42.11-9.69,10-2.76,19.08-5.4,28.25-8.63A310.23,310.23,0,0,0,651.59,391a3.23,3.23,0,0,1,1.07-.52c.2,0,0,.2-.39.49-1.77,1.2-3.57,2.36-5.38,3.55l-2.73,1.77-2.8,1.69-5.65,3.36-5.8,3.2c1.4-.33,2.33-.33,2.44.12s-.67,1.32-2,2.32l5.45-2.67c1.13-.53,2.09-.83,2.16-.62s-.7.86-1.78,1.38c-3.71,1.83-7.39,3.72-11.18,5.37-1.89.84-3.75,1.74-5.66,2.52l-5.72,2.37a267.54,267.54,0,0,1-27.8,10.42,6.78,6.78,0,0,1,3.12.38h0l4.41-1.38a373.16,373.16,0,0,0,76-39.68c.47-.32.9-.52,1-.45s-.26.38-.69.66c-3.66,2.41-7.27,4.9-11,7.18-1.86,1.14-3.67,2.37-5.56,3.46l-5.62,3.34h0c.34-.13.45-.06.15.2a4.87,4.87,0,0,1-1.17.69c-.39.14-.41,0-.16-.19A386.69,386.69,0,0,1,603,421.35a337.32,337.32,0,0,0,40.42-18.41c1.34-.91,2.72-1.75,4.06-2.7a3.18,3.18,0,0,1,1.11-.5c.15,0-.08.26-.47.52L647,401c2.44-1.39,4.52-2.13,4.75-1.66s-1.72,2.15-4.26,3.63c-6.8,3.93-13.66,7.73-20.75,11.05l-2.26,1.18c-.73.46-1.46.9-2.2,1.35a299.39,299.39,0,0,0,32.56-16.51c.89-.54,1.73-.87,1.84-.73s-.52.72-1.41,1.26A274.53,274.53,0,0,1,627.39,417a265.63,265.63,0,0,1-30,13.23c-3.26,1.64-6.58,3.17-9.91,4.8-3.38,1.46-6.78,3-10.27,4.47.92-.2,1.84-.46,2.75-.72a178.37,178.37,0,0,0,31.89-12.52c9.89-4.89,19.37-10.22,29.36-15.94a2,2,0,0,1,1.06-.42c.1.05-.19.33-.7.63-9.73,5.67-18.65,10.92-28.8,15.88l-6.27,3-6.23,2.75-3.08,1.36-3.09,1.27L588,437.38c2.11-.73,4.21-1.49,6.29-2.24l3.12-1.14,3.06-1.25c2-.84,4-1.68,6.06-2.53s4-1.82,5.94-2.74l3-1.37,2.92-1.46,5.82-2.93,5.75-3.09,2.89-1.54c1-.52,1.9-1.08,2.85-1.62a8,8,0,0,1,1.84-.85c0-.07.12-.19.31-.33,1.81-1.27,3.84-2.53,5.86-3.91a3.34,3.34,0,0,1,1.17-.55C645.08,409.78,644.88,410,644.45,410.31ZM407.78,395.09v-.24l.2.55-.21,1.5S407.77,396,407.78,395.09Zm-9.73-.94h0l.15-.86C398.15,393.65,398.1,393.92,398.05,394.15Zm93.09,28L484.9,421c-1-.19-2.06-.45-3.08-.73l-3.05-.82a110.9,110.9,0,0,1-11.91-4l5.9,1.45,2.24.78,2.28.68,4.57,1.37c1.52.49,3.07.87,4.62,1.27Zm-84.75-34.66a13.36,13.36,0,0,1,0,3.16,3.59,3.59,0,0,1,1.3.77c1,1,2,1.86,3,2.81.12-.5.35-.27.52-.22l.47.18a41.64,41.64,0,0,1-2.85-3.4A31,31,0,0,1,406.39,387.53Zm-8.7-4.73,0-.22.67-.4Zm-1.11.69.09.21C396.43,383.87,396.45,383.75,396.58,383.49Zm.83,1.93a2,2,0,0,0,0-.48ZM384.9,403.2l2.93-2.38-2.9,2.22Z"/><path d="M543.45,473.63l-.57-.28c.13-.18.48-.19,1-.11a10.35,10.35,0,0,0-7.08-.49,9.79,9.79,0,0,0-2.45,1.17,7.16,7.16,0,0,0-1.62,1.48c-1.15.11-1.56.73-1.14,1.31a2.62,2.62,0,0,0,1.11.73,4.54,4.54,0,0,0,1.62.28,6.85,6.85,0,0,1,.89.21c.6.23,1.19.46,1.81.68l1.93.66,2,.67c.7.21,1.4.43,2.12.67-.63-.3-1.29-.58-1.9-.82a21.59,21.59,0,0,0,2.43.61l-.58-.47c3.13,1.3,6.41,1.69,7.07.2s-1.79-4.52-5.12-5.89Z"/><path d="M535.72,469.07c.82.11,1.69.27,2.56.46s1.73.41,2.61.67l.48.29-1-1.42,0,.1c-.42,1.36-2.22,2-3.78,2.63l-.52.27a.64.64,0,0,0-.12.73,2.57,2.57,0,0,0,2.16,1.06l1.07,0a23.35,23.35,0,0,0,2.36.3,13.18,13.18,0,0,0,2.28,0c1.42-.18,2.46-.7,2.33-2.05-.06-.62-.85-1.42-1.37-2.13a3.81,3.81,0,0,0-3.39-1.78c-1.32.1-1.87,1-1.34,1.91l-.75-.1.26-.4c.2.86-.8,1.17-1.36,1.68l-1.06.39,2.06,1.86.46-.32-.29-.2a14.44,14.44,0,0,1,2.79-1.82l1.24-.94c.2-.48-.28-1.16-1.07-1.51l-1.1-.42.54.26a51.35,51.35,0,0,0-6.1-.32c-.32,0-.57.14-.57.36S535.39,469.05,535.72,469.07Z"/><path d="M541.59,467.65a2.21,2.21,0,0,0,1.19.21l.05-.22-.83-.33C541.42,467.08,541.35,467.33,541.59,467.65Z"/><path d="M542.83,467.64l.34.15-.3-.21,0,0Z"/><path d="M551.92,617.36c-1,24.84-2.15,49.82-3.7,74.78-.05.84,0,1.54.21,1.59s.33-.61.37-1.38c1.61-25,2.78-49.83,3.78-74.66a2.83,2.83,0,0,0-.31-1.65C552.08,616,551.94,616.58,551.92,617.36Z"/><path d="M529.25,803.6c0-.6-.16-.58-.26,0a9.92,9.92,0,0,0-.06,2.05c0,.5.17.48.25,0A9.61,9.61,0,0,0,529.25,803.6Z"/><path d="M521,798.16c-.27-3.49-.59-6.81-1-9.77a9.26,9.26,0,0,1,0-1.64c-.19.2-.38-.47-.52-1.73-2.62-24.85-4.51-51.57-6.25-77.88a2.54,2.54,0,0,1-.65-1.12,29.56,29.56,0,0,1-1.12-9.28l.12-2.86c.17-11.55.38-23.07.8-34.55a68.65,68.65,0,0,1-.63-8.06c-.9-9.95-1.71-19.93-2.25-30.13-.21.63-.46,1-.72,1-.63-.21-1.09-2.58-1-5.33,0-1.4.07-2.78.16-4.17-.45,4-.54,8-.79,12,0,.58-.07,1.11-.13,1.59-.09,4.38-.09,8.79,0,13.29.43,39.21,4,76.08,7.74,112.67a6.88,6.88,0,0,1,0,2.07c-.1.35-.26.28-.36-.39-3.5-23.07-8.22-43-11-69.13-1.63-15.53-3-31-4-46.49-.27-3.89-.52-7.77-.71-11.68q-.17-2.92-.31-5.86c-.09-1.95-.23-3.91-.21-5.87a57.71,57.71,0,0,1,5.28-23.65c4-8.28,9-16.37,12.8-24.51,1-2.08,1.82-4,2.72-6.34l.63-1.66c.23-.65.48-1.17.68-1.63.41-.92.81-1.7,1.12-2.49a15.64,15.64,0,0,0,1.21-9.44,13,13,0,0,0-1.75-4.35c-.43-.69-.93-1.4-1.61-2.35a18.78,18.78,0,0,1-2.19-4,16.26,16.26,0,0,1-1.06-5.26,17.47,17.47,0,0,1,.56-5.15,23.73,23.73,0,0,1,4-7.77,12.76,12.76,0,0,0,1-1.58l0,0v0l.09.06.35.19c.24.11.48.22.74.32l.39.13.19.07a2.78,2.78,0,0,0,.67.18s0,0,0,0h-.21a2.53,2.53,0,0,0-.3,0l-.21,0,.11,0s0,0-.4.19l-.3.17c-.13.07-.22.14-.36.23a3.83,3.83,0,0,0-.46.33l-.1.08h0a.68.68,0,0,0-.18-.31l-.24-.26c-.4-.36-.73-.69-1.13-1-.8-.6-1.58-1.19-2.3-1.82a21.6,21.6,0,0,1-3.72-3.67,9.76,9.76,0,0,1-1.75-4.15,3.75,3.75,0,0,1-.14-1.21c0-.41,0-.83,0-1.23a11.62,11.62,0,0,1,.52-2.27,6.63,6.63,0,0,1,.65-1.37,6.4,6.4,0,0,1,.85-1.27,5.32,5.32,0,0,1,.46-.63l.6-.58c.45-.38.9-.75,1.42-1.11.24-.18.51-.35.79-.52a5.64,5.64,0,0,1,.87-.5c.67-.27,1.32-.56,2-.86,1.32-.57,2.83-.95,4.2-1.42l2.08-.7c.42-.15.63-.24.93-.37a9,9,0,0,0,1.34-.69,1.37,1.37,0,0,0,.28-.23h0l.07.09c.19.25.47.53.59.7a5.47,5.47,0,0,0,.51.56l.28.27.2.2a3.83,3.83,0,0,0,.44.36c.17.11.21.17.34.25a3.13,3.13,0,0,0,.32.16.56.56,0,0,0,.19.09c.13.05.19,0,.11.05a1.27,1.27,0,0,0-.34.12,1.93,1.93,0,0,0-.6.33,4.82,4.82,0,0,0-.86.62l-.19.19-.28.23-.54.51c-.17.18-.33.36-.48.55s-.16.19-.28.32,0,0-.07.05l-.08,0-.38-.08c-.65-.16-1.65-.4-2.73-.58-.56-.1-1.07-.2-1.74-.27l-2-.08c-.68,0-1.38-.2-2.06-.29a80.26,80.26,0,0,1-8.85-1.95l-1.67-1a4.64,4.64,0,0,0-.44-.26l-.54-.19-1.1-.4a9.18,9.18,0,0,1-1.05-.41l-.74-.57c-.49-.37-1-.75-1.44-1.13s-.93-.76-1.36-1.15l-.43-.39-.58-.52c-.79-.69-.49-1.58-1.36-2.25l-.5-.53a2.32,2.32,0,0,1-.43-.54l-.66-1.13-.55-1.15a11.83,11.83,0,0,0-.73-1.18c-.64-.8.09-1.59-.74-2.49l-.37-.66a4.63,4.63,0,0,1,0-.65l.06-.66c0-.1,0-.23-.09-.35l-.16-.37c-.18-.48-.56-1-.31-1.43l.17-.69.08-.34a1.4,1.4,0,0,0-.07-.39c-.12-.52-.26-1.05-.36-1.57L496,469l.15-.34a1.68,1.68,0,0,0,0-.39l0-.79a14.23,14.23,0,0,1,0-1.6l.1-1.62,0-.4c0-.15.14-.22.19-.33l.49-.61,1-1.21a12.17,12.17,0,0,0,.55-1.46l.52-1.49,0-.09v-.05a.53.53,0,0,0-.06-.1l-.26-.41-.13-.21c0-.05,0-.07,0-.11l.09-.2.35-.81.34-.8.28-.71.54-1.32c.35-.84.73-1.72,1.1-2.55s.6-1.37.92-2,.66-1.29,1-1.81a12.73,12.73,0,0,1,2.07-2.62c1.34-1.28,2.7-1.68,3.69-.95,1.19.9,1.54,3.11,1.12,5.55l.65-1c.39-.46.8-.94,1.2-1.36a5,5,0,0,1,3.46-1.87h1.43c2.32.54,5.1.33,7.47,1.75l.38,1,.37,0a3.8,3.8,0,0,1,2.85,1.17l.64,1.14a11.9,11.9,0,0,1,1.21,4.23,3.75,3.75,0,0,1,.66,1.4,5.72,5.72,0,0,1,2.64,3.22.8.8,0,0,1,.57,1.08,1,1,0,0,1-.33.36h0c.36.19.46.25.9.45l.6,0c1-.15,1-.15,1.84-.23a5.56,5.56,0,0,1,1.66.59c2,1.84,2,1.88,2.5,2.79a1.46,1.46,0,0,1,0,.29c.78.17.85.2,1.07.26a4.93,4.93,0,0,1,.51.31c.34.5.34.5.56.66a3.62,3.62,0,0,1,.26.38c0,.6,0,.59.09.75a.77.77,0,0,1,0,.29l-.47.33-1.65-1.11.09.45-.56-.53.44.5-.63-.24.78.36a4.85,4.85,0,0,0-1.54.07,1.57,1.57,0,0,0-.77.23,1.65,1.65,0,0,1,.21.25l-2.33.06a4.53,4.53,0,0,1-.44-.23c0,.14-.16.26-.38.27l-.59.06-.07.09,0,0-.3.32,0,.07h0c-.2.22-.5.53-1.29,1.33-.34,0-.68.05-1,.05l.37.1c.26.09.37.47.48.48,1.36.08,2.7.14,4.05.16s2.76.09,4.18.23a1.52,1.52,0,0,1,1.34.5c.3.37.17.69-.28.76a10,10,0,0,1-3.23,1.43,24.65,24.65,0,0,1-3.84.74c-2.7.31-5.46.42-8,.51-.57.07-1.14.21-1.69.32l-1.52.36.24.06c-.25,0-.62,0-.56.15v0h.19a3.41,3.41,0,0,1,.4.07,3.8,3.8,0,0,0,.47,0,17.26,17.26,0,0,1,3.89-.45c.75,0,1.45,0,2.23,0l2.39.12a16.91,16.91,0,0,1,2.67.36l2.77.61a1.37,1.37,0,0,1,1,.54c.14.27-.11.44-.53.4-1.25.14-2.46.17-3.77.24-.64,0-1.23,0-1.88,0h-1.86c-1.25,0-2.38-.08-3.51-.12l-1.58-.16a3.37,3.37,0,0,1-.36-.06,1.87,1.87,0,0,0-.31-.05.28.28,0,0,1-.11.05,1.53,1.53,0,0,1-.84.31h0l.49.08c-.18.11-.61,0-.81.13l.61.2a1.51,1.51,0,0,0-.46,1.3c0,.47.21.84.25,1.2l0,.09,1,.29.22.07.06,0,.17.08.34.16c.46.21.92.4,1.39.59a14.39,14.39,0,0,1-1.67-.91c.65.31,1.35.56,2,.79l.24.09.12,0,.06,0,.12.07,2,1.3c.68.46,1.38.91,2.14,1.46a24.28,24.28,0,0,1,2.47,2l.47.44c.16.16.34.37.5.55a10.23,10.23,0,0,1,1,1.36,8.65,8.65,0,0,1,.51.93,7.25,7.25,0,0,1,.42,1.1,11,11,0,0,1,.27,1.27,10.11,10.11,0,0,1,0,1.35,7.48,7.48,0,0,1-1.79,4.32,9.65,9.65,0,0,1-2.31,2,23.39,23.39,0,0,1-3.63,1.78c-.52.21-1.22.47-1.16.46l-.36.11a9.65,9.65,0,0,0-1.46.55,1.47,1.47,0,0,0-.62.51c0,.05-.06.11-.11.18a1.2,1.2,0,0,1,0,.19.68.68,0,0,0,.1.35,4.9,4.9,0,0,0,1,1l.28.24.13.12.07.07,0,0,0,0h0l.17.13a16,16,0,0,1,2.67,2.62,12.53,12.53,0,0,1,2,3.71,11.76,11.76,0,0,1,.47,2,18.21,18.21,0,0,1,.09,2.07,13.81,13.81,0,0,1-.29,2,14.45,14.45,0,0,1-.57,1.72,13.63,13.63,0,0,1-.7,1.38c-.24.37-.48.75-.71,1.07a28.39,28.39,0,0,1-2.11,2.77c-.58.71-1.1,1.3-1.47,1.82a6.31,6.31,0,0,0-1.3,2.82,4.5,4.5,0,0,0,0,1.36,5.41,5.41,0,0,0,.62,1.7c.79,1.5,2,3.55,3,5.59A55.41,55.41,0,0,1,535.66,551c.43,2.24.71,4.55,1,6.73l.18,1.55a13,13,0,0,0,.26,1.33c.19.9.43,1.79.65,2.67.51,1.9,1,3.85,1.67,5.76s1.29,3.9,2,5.84c1.4,3.89,3,7.81,4.42,11.7a98.86,98.86,0,0,1,6.27,23.36c.22,1.61,0,3-.29,3.32s-.71-.9-.89-2.51A98.13,98.13,0,0,0,547,594c-1.81-5.63-4-11.26-6-16.92-1-2.81-1.9-5.64-2.73-8.46-.4-1.39-.77-2.79-1.12-4.19l-.26-1-.21-1c-.15-.65-.29-1.31-.42-2-.26-1.16-.34-2.81-.52-4.39s-.36-3.24-.66-4.85a53.22,53.22,0,0,0-2.55-9.4,51.44,51.44,0,0,1,2.16,7.83,66.35,66.35,0,0,1,1,8.06c.06.65.09,1.28.15,1.85s.17,1.06.26,1.62c.21,1.12.39,2.16.66,3.38.5,2.36,1,4.7,1.71,7.1,2.5,9.54,5.88,19.2,7.52,28.9.49,2.47.88,5,1.19,7.45a46.34,46.34,0,0,1,.23,7.34c-.09,12.37-.44,24.44-.7,36.57s-.52,24.33-.66,37c-.25,21.6-.67,40.49-1.64,62-1.43,30.2-3.95,57.7-9.74,87.51a43.69,43.69,0,0,1-2.06,8.1c-.35.47,0-2.41.65-6.38,2.47-15.55,4.13-31,5.38-46.52s2.1-31,2.74-46.59c1.26-31.19,1.81-62.73,2.85-95.25.21-7,.41-13.91.61-20.78a.66.66,0,0,1-.36.17c-.49,0-.93-.67-1.28-1.77q-.39,11.7-1.06,23.53c.51,21.94.65,43.9-1,67.28-1.15,16-2.9,30.57-4.53,45.41-.78,18.82-1.79,37.59-3.59,56.59a8.64,8.64,0,0,1-.29,1.82c-.1.27-.13-.14-.08-.91.85-13.07,1.37-26.46,1.76-40-.51,2.13-1,3.39-1.55,3.21s-.9-1.83-1.13-4.35l-.47,9.19c-.11,1.89-.37,3.38-.61,3.33s-.4-1.56-.32-3.36q.75-18.75,1.49-37.46c.14-15,.2-29.92.24-44.94a10.66,10.66,0,0,1-1.85,4.33h0c0,2.33,0,4.64-.07,7,.59,21.22.72,42.68.27,64.3s-1.44,43.41-2.9,65.29a7.92,7.92,0,0,1-.19,1.58,5.93,5.93,0,0,1,0-1.42q1.22-19.82,1.94-39.51v0c-.08.53-.19.63-.24,0a11.86,11.86,0,0,1,.07-2.06c.1-.61.21-.55.25-.06.86-24.46,1.07-48.76.6-72.75q-.43,33.44-1.66,66.81c0,2.43.11,4.85.16,7.31a7.74,7.74,0,0,1-.19,1.82c-.08.18-.17-.31-.17-1l0-2c-.17,4.21-.65,7.46-1.12,7.38-.48-.23-.82-3.86-.77-8.23q0-17.58.07-35.08l-.09-3.79c-.11-1.28-.22-2.54-.32-3.81-.38,18.16-.73,36.28-.87,54.3a8.22,8.22,0,0,1-.26,2.9,6.66,6.66,0,0,1-.33-2.77c-1.1-31.77-2.38-63.92-3.14-96.22-1.38-10.61-2.86-21.26-4.34-32.1,0,1.36,0,2.74,0,4.12.17,17.56,1.45,33.79,2.7,49.89s2.47,32,3.06,49a4.09,4.09,0,0,1-.13,1.67c-.1.09-.22-.49-.24-1.36-.72-16.59-2.12-31.74-3.31-48.2-1-13.64-1.91-26.62-3.14-39.3.83,25.91,3,50.77,4.39,76.44a15,15,0,0,1,0,3,1.39,1.39,0,0,1,.18.64c.41,3.2.74,6.7,1,10.28a6.75,6.75,0,0,1-.05,1.91C521.24,799.34,521.12,798.93,521,798.16Zm2.5-329.2.2,0-.54.07-1.11-.28S522.78,468.84,523.53,469Zm4.87-6.89h0l.71.3Zm7.4,99.63c-.14-.79-.28-1.59-.37-2.35l-.2-2.71c-.13-1.89-.32-3.82-.64-5.73a49.53,49.53,0,0,0-3.11-11,47.22,47.22,0,0,0-2.48-5.1,13.92,13.92,0,0,1-1.74-3.74,4.62,4.62,0,0,1,0-1.35,6.45,6.45,0,0,1,.34-1.44,8.81,8.81,0,0,1,1.73-2.74,8.9,8.9,0,0,0-1.62,2.69,5.72,5.72,0,0,0-.28,2.67c0,1.12,1.68,3.54,3,6.15a48.34,48.34,0,0,1,3.1,8.12,53.33,53.33,0,0,1,1.61,8.61c.16,1.45.24,2.9.33,4.29,0,.67.07,1.37.15,1.9S535.7,561.11,535.8,561.7Zm-5.15-92.28a21.21,21.21,0,0,1-2.83-.73,4.9,4.9,0,0,1-1.26.7c-1.2.53-2.43,1-3.54,1.53.34.12.07.25,0,.34l-.33.28c.61-.25,1.25-.5,1.88-.71s1.37-.41,2.05-.6,1.33-.34,2-.49A13.56,13.56,0,0,1,530.65,469.42Zm8.86-4,.22.11.1.63S539.69,465.83,539.51,465.4Zm-.21-1.09-.26,0C539,464,539.1,464.11,539.3,464.31Zm-2.37-.21a2,2,0,0,0,.46.22ZM525,448.87l1.18,3.19-1.05-3.14Z"/><path d="M483.08,712.62l.43.37a1.34,1.34,0,0,1-1.1,0,11.14,11.14,0,0,0,7.13,1.76A15.68,15.68,0,0,0,496,713c1.31.25,2.47-.29,2.59-1.21s-.85-1.89-2.18-2.18a4.52,4.52,0,0,1-.85-.48,26.34,26.34,0,0,0-6.94-4.42c.53.37,1.06.73,1.57,1.11a8.84,8.84,0,0,0-2.37-.86l.31.6c-2.67-1.69-6.31-1.81-8-.06s-.87,4.68,1.78,6.35Z"/><path d="M488.06,718.94c-1.52-.75-3-1.56-4.49-2.42l-.31-.38.18,1.61,0-.1c1.3-1.24,3.53-1.6,5.59-1.81l.73-.17a1.08,1.08,0,0,0,.64-.75c.16-.71-.5-1.49-1.48-1.69l-1.13-.24c-2.76-1.13-7.15-1.71-8.51.92-.3.61.05,1.46.17,2.21a2.55,2.55,0,0,0,2.4,2.27c1.35.15,2.46-.57,2.51-1.62l.7.28-.52.33c.34-.88,1.57-1,2.47-1.41l1.37-.14-.87-2.47-.71.26a2.13,2.13,0,0,1,.16.27,24.06,24.06,0,0,1-4.09,1.41l-1.84.75a1.06,1.06,0,0,0,.19,1.64l.86.59-.39-.34c1.94.69,4,1.15,5.87,1.81a.65.65,0,0,0,.8-.18C488.51,719.34,488.37,719.06,488.06,718.94Z"/><path d="M481.35,718.87a1.76,1.76,0,0,0-1.07-.43l-.18.19.63.48C481.18,719.44,481.39,719.22,481.35,718.87Z"/><path d="M480.1,718.63l-.26-.2.18.25h.05Z"/><path d="M593.32,710.55c-1-.54-2-1.07-2.89-1.62-.46-.27-1-.54-1.38-.82l-.89-.83-.44-.41-.64-.43-1.29-.84c-.33-.28-.56-.57-.85-.85l-.41-.42a4.56,4.56,0,0,0-.56-.44l-1.19-.89a7.15,7.15,0,0,1-.81-.87,13.92,13.92,0,0,0-2-1.84c-.52-.63-1-1.23-1.39-1.88-.23-.32-.4-.63-.69-1l-1-1.05a2.91,2.91,0,0,1-.24-.27l-.14-.26-.29-.53c-.2-.34-.38-.7-.56-1.08a8.31,8.31,0,0,0-.62-1.15,10.69,10.69,0,0,1-.79-1.24l-.42-1.27-.37-1.35-.28-1.45c-.16-.55-.38-1.1-.49-1.65s0-1.1,0-1.7a12.28,12.28,0,0,0,0-1.84c0-.33,0-.66,0-1l.26-.93a18.51,18.51,0,0,1,.63-1.86c.23-.61.34-1.27.52-1.9a1,1,0,0,1,.2-.45l.25-.42.51-.83c.32-.56.54-1.13.81-1.7a3.29,3.29,0,0,1,.21-.42l.32-.35.63-.72c.94-.91,1.39-2,2.27-2.85a34.52,34.52,0,0,0,2.84-2.41l1.29-1.23c.45-.4.93-.77,1.39-1.16s.92-.77,1.4-1.14l1.55-1a68.67,68.67,0,0,1,6.23-3.62l3.06-1.53,1.46-.74.72-.37.37-.18a3.31,3.31,0,0,1,.47-.07l1.9-.22,1-.11.47,0,.36-.16,1.41-.65.71-.32c.13,0,.21-.13.37-.14h.5l2,0a5,5,0,0,0,1.86-.17l1.64-.49.82-.24c.11-.06.34,0,.52,0l.56,0,2.24.17,1.12.08,1-.14,2.07-.27c.36,0,.66-.1,1.06-.11l1.19-.06a48.61,48.61,0,0,1,4.9-.09l2.62.07c.87,0,1.76-.07,2.64-.1a13,13,0,0,0,3.48-.48c0-.19-1.51-.27-3.27-.15-.89,0-1.79.12-2.67.14l-2.65-.07c-.87,0-1.81-.07-2.62-.05l-2.38.12-1.19.06a9.13,9.13,0,0,0-1.13.1l-2.08.28a15.46,15.46,0,0,1-4.4,0L613,652.6a.76.76,0,0,0-.47.06l-.41.12-1.64.51-.82.25c-.31,0-.66,0-1,0l-2,0c-.32,0-.68,0-1,0l-.7.34-1.41.67a3.57,3.57,0,0,1-.74.3l-.95.11-1.91.23a3.6,3.6,0,0,0-.91.16l-.73.38-1.45.75-3,1.57c-1,.49-2.07,1.13-3.11,1.71s-2.07,1.23-3.1,1.91a21.31,21.31,0,0,0-3,2.13L583.34,665c-.46.4-.86.83-1.3,1.24s-.83.84-1.32,1.24l-1.47,1.19-.37.3-.18.15-.13.18-.52.74a14.18,14.18,0,0,1-1.09,1.46L575.69,673l-.77,1.71c-.29.57-.67,1.12-1,1.68a1.08,1.08,0,0,0-.18.46l-.12.48-.23,1a12.39,12.39,0,0,0-1,3.76l0,1c0,.32,0,.6,0,.9a14.47,14.47,0,0,0-.05,1.72,57.43,57.43,0,0,0,1.39,5.82,3.73,3.73,0,0,0,.67,1.25l.41.62c.1.2.18.38.26.56.34.76.72,1.45,1.09,2.16a28.24,28.24,0,0,1,3,3.94,2.31,2.31,0,0,0,.47.47l.55.47a6.48,6.48,0,0,1,1,.92l.73.89a2.8,2.8,0,0,0,.53.44l.59.45a9.81,9.81,0,0,1,1.85,1.73c.62.56,1.75,1.14,2.37,1.7.87,1.12,3.05,2.24,5,3.31a12.65,12.65,0,0,0,2.54,1.11C595,711.48,594.32,711.08,593.32,710.55Z"/><path d="M612.67,538.8c-.19.9,0,.9.35,0,.17-.37.37-.89.55-1.42a15.57,15.57,0,0,0,.5-1.51c.19-.73,0-.77-.35-.06a14.39,14.39,0,0,0-.64,1.5C612.9,537.9,612.75,538.43,612.67,538.8Z"/><path d="M622,548.28a35.52,35.52,0,0,0,1.38,11.59,9.94,9.94,0,0,1,.35,2c.18-.29.58.47,1.07,1.93,2.37,7.21,6.17,14.37,10.61,21.64.54.91,1.11,1.82,1.69,2.74l1.74,2.76,1.78,2.78.91,1.4.89,1.34c1.11,1.68,2.37,3.48,3.66,5.3s2.61,3.71,3.93,5.57a272.61,272.61,0,0,1,15.66,24.36,98.18,98.18,0,0,1,6.76,14.69,50.23,50.23,0,0,1,2.39,9.31,31.16,31.16,0,0,1-.43,12.79,10.69,10.69,0,0,1-.62,3.8,14.9,14.9,0,0,1-1,2.62,18.23,18.23,0,0,1-1.75,3,26.11,26.11,0,0,1-2.58,3.16,36.53,36.53,0,0,1-3.31,2.84,40.61,40.61,0,0,1-3.68,2.19l-.25.13-.17.08-.32.14-.65.27-1.32.54c-.9.36-1.82.71-2.76,1s-1.74.42-2.62.63l-1.32.28-.66.13-.29.06h-.14l-1.08.06a23.53,23.53,0,0,1-6.65-.6c-2.23-.47-4.46-1.09-6.76-1.51a24.37,24.37,0,0,0-7-.35,27.21,27.21,0,0,0-6.9,1.89c-.28.3-.59.57-.89.9s-.65.63-1,1a13.11,13.11,0,0,0-2,2.46,5.14,5.14,0,0,0-.22,2.9,6.76,6.76,0,0,0,1.46,2.82,18.93,18.93,0,0,0,5,4,50.2,50.2,0,0,0,11.14,4.61c-.19-.13-.15-.21.17-.21a33.47,33.47,0,0,1,4.35.94l2.49.6a42.64,42.64,0,0,1-6.33-2,4.67,4.67,0,0,1-.73-.34,25.69,25.69,0,0,1-6.75-3.87,6.86,6.86,0,0,1-2.49-3.61,4.31,4.31,0,0,1,1.48-3.83,14.14,14.14,0,0,1,3.37-2.37,17.73,17.73,0,0,1,1.87-.88c.31-.13.65-.21,1-.32a7.23,7.23,0,0,1,1-.26c2.7-.61,5.45-.2,8.22.19a24.1,24.1,0,0,0,4.28.32,14,14,0,0,0,2.22-.2l1.12-.25.28-.06.79-.22,1.65-.44,1.64-.45a8.41,8.41,0,0,0,.84-.24l.9-.35c1.21-.46,2.4-1,3.59-1.45l.89-.38c.44-.22.93-.49,1.39-.74.93-.51,1.84-1.06,2.73-1.63a34.27,34.27,0,0,0,2.74-2.17c.45-.38.88-.77,1.31-1.17s.83-.89,1.23-1.35A33.89,33.89,0,0,0,673.5,678c.64-1,1.23-2.05,1.78-3.11a30.33,30.33,0,0,0,2.22-6.18c.2-1,.38-1.93.54-2.89.09-.51.11-.93.15-1.36l.08-1.29.06-1.29,0-.64,0-.57c0-.77-.08-1.53-.13-2.28,0-.37-.05-.78-.09-1.12l-.14-1-.31-2c-.24-1.28-.53-2.44-.82-3.66s-.64-2.21-1-3.3l-1.09-3a96.61,96.61,0,0,0-4.94-10.63,189.15,189.15,0,0,0-11.09-17.85c-3.8-5.52-7.73-10.81-11.39-15.83a10.55,10.55,0,0,1-1.44-2.35c-.12-.46.09-.5.63.2,4.8,6,10,12.26,15,18.77,2.52,3.27,5,6.65,7.42,10.24a111.87,111.87,0,0,1,7.08,11.8,70,70,0,0,1,3.24,7.18c.26.62.49,1.37.74,2.06s.48,1.38.7,2.16a47.15,47.15,0,0,1,1.17,4.93l.24,1.36a13,13,0,0,1,.2,1.43c.11,1,.19,2.07.25,3.11a16.11,16.11,0,0,1,0,1.72l-.06,1.81c0,.62,0,1.16-.13,1.85s-.19,1.37-.31,2.06-.25,1.37-.39,2.06-.4,1.49-.63,2.23-.5,1.51-.78,2.26c-.14.37-.28.74-.44,1.12l-.57,1.17a34.71,34.71,0,0,1-2.66,4.54,40.54,40.54,0,0,1-3.47,4.13,47.61,47.61,0,0,1-3.95,3.39,42.69,42.69,0,0,1-4,2.52l-1,.56-.39.2-.31.14-1.24.55-2.52,1.08a35,35,0,0,1-4.75,1.6l-2.17.63-.48.19a10,10,0,0,1-3.73.64,19.32,19.32,0,0,0-3.81.18,5.76,5.76,0,0,0-3,1.65,4.52,4.52,0,0,0-1.56,3,2.94,2.94,0,0,0,.89,2,7.93,7.93,0,0,0,1.85,1.42,23.61,23.61,0,0,0,7.42,2.56q1.62.29,2.91.63c.42.11.82.23,1.2.35l.27.09.14,0,.9.53c1.21.72,2.35,1.35,3.72,2.26a86.08,86.08,0,0,1,15.58,12.64,49,49,0,0,1,3.48,4.12l.42.55a3.84,3.84,0,0,1,.23.34l.26.41,1,1.62a27.35,27.35,0,0,1,1.89,3.41,19,19,0,0,1,1.22,14.4c-.22.56-.42,1.13-.68,1.67s-.58,1-.88,1.57a16.49,16.49,0,0,1-2.32,2.74,8.85,8.85,0,0,1-1.35,1.18l-1.46,1.06c-.53.3-1.07.58-1.62.86l-.82.4-.88.32c-.58.21-1.18.4-1.78.59s-1.24.28-1.86.4-1.27.23-1.91.31-1.3.12-1.95.15-1.31.05-2,.05l-1.63-.05-1.61-.06h-.41l-.28,0-.53-.05-17-1.39c-11.33-.91-22.65-1.86-34.11-2.53-5.74-.36-11.48-.71-17.3-.94s-11.66-.5-17.57-.55a420.3,420.3,0,0,0-46.83,1.45l-2.85.25-1.42.14-.29,0-.9.15-1.79.3L516,758c-2.36.35-4.72.74-7,1.18s-4.66.83-7,1.28c-3.47,1.06-6.61-.22-7.11-3.08a5.54,5.54,0,0,1,1.92-4.88l-.87.09-1.37-.14a4.72,4.72,0,0,1-3.14-1.66l-1-1.12c-1.33-2.18-3.49-4-4.67-6.43l.19-1-.26-.26a4.43,4.43,0,0,1-1.73-2.51l0-1.21a10.2,10.2,0,0,1,1.11-3.93,3.48,3.48,0,0,1,.17-1.47,5,5,0,0,1-.59-3.89.71.71,0,0,1,.08-1.16,1.21,1.21,0,0,1,.5-.19h0a9.36,9.36,0,0,0-.57-.75c-.36-.1-.58-.18-.58-.18-1-.22-1-.22-1.83-.44a4.93,4.93,0,0,1-1.23-1c-.93-2.2-.94-2.21-.87-3.14a2.2,2.2,0,0,1,.15-.26l-.91-.48a2.83,2.83,0,0,1-.33-.38c-.06-.51-.06-.51-.19-.7a3.32,3.32,0,0,1-.05-.39c.33-.55.33-.55.33-.71a1.23,1.23,0,0,1,.19-.26l.66-.23,1,1.37.18-.44.25.61-.16-.55.49.36-.56-.51a5.22,5.22,0,0,0,1.55.27,2.13,2.13,0,0,0,.9,0,1.61,1.61,0,0,1-.06-.29c1.19.27,1.19.27,2.34.56.11.12.2.25.29.36a.55.55,0,0,1,.54-.16l.61.12.12-.06v0l.5-.22.1-.06h0c.71-.32,1.44-.64,2.16-.93a8.83,8.83,0,0,1,1,.33l-.29-.26c-.19-.18,0-.61-.13-.66a52,52,0,0,0-8.08-2.5,1,1,0,0,1-1.06-.7c-.09-.4.25-.72.75-.73a18.83,18.83,0,0,1,8.94-.91,34.49,34.49,0,0,1,9,2.53c1.48.35,2.93.78,4.4,1.14l-.2-.24,1.13.47.13,0-.86-.86-.59-.31a86.25,86.25,0,0,1-9.94-3.54c-1.82-.66-3.39-1.66-5.15-2.48-.46-.09-.78-.43-.74-.76s.46-.5.91-.41a41,41,0,0,1,8.92,1.4,23.54,23.54,0,0,1,7.91,3.64,6.84,6.84,0,0,1,2.82,1.07l0,0-.62-.7c.77.26,1.16.82,1.85,1.13-.07-.28-.16-.59-.23-.86,1.88.51,3.84.88,5.73,1.36a26.89,26.89,0,0,1,5.46,1.8l.39.13c.76-.15,1.52-.29,2.31-.37l.6,0h.18l.95.14,1.91.29q3.84.57,7.93,1.26l-5.5-1.08-2.74-.54-2.6-.53,5.81.82,6,.91c4,.72,8.06,1.42,12.26,2.24,5.65,1.23,11.49,2.33,17.17,3.69s11.27,2.57,16.51,3.85c10.47,2.5,19.55,4.88,25.34,6.56,10.77,2.06,21.52,4.07,32.27,5.92,5.37.9,10.75,1.83,16.12,2.62l4,.61,2,.29q.63,0,1.26.12a1.87,1.87,0,0,0,.45,0h.36c.24,0,.48,0,.73-.06a4.4,4.4,0,0,0,1.38-.41,2.4,2.4,0,0,0,1.41-2.33,5.16,5.16,0,0,0-1-2.68l-.24-.33a2.94,2.94,0,0,0-.35-.43l-1.08-1.21L664,736.33c-.4-.39-.86-.76-1.3-1.13a42.2,42.2,0,0,0-5.87-4.08,56.56,56.56,0,0,0-6.59-3.35,12,12,0,0,0-1.87-.69l-2-.64-6.54-2.1c-.3-.09-.56-.19-.89-.27l-1.1-.17-2.21-.35-4.43-.69c-1.41-.2-3.12-.56-4.71-.86l-4.84-.92-2.43-.46-2.12-.62-4.26-1.24-2.13-.61-1.07-.31-.91-.31-3.53-1.24-2.75-1-1.21-.46a5.49,5.49,0,0,1-.71-.38c-.8-.47-1.28-.82-1.3-1s.61.06,1.44.38c.42.16.91.36,1.45.6a9.41,9.41,0,0,0,1.12.4l1.39.48,5,1.71,1.26.42,1.5.43,3,.86,3,.85a24.34,24.34,0,0,0,3.11.78l6.74,1.3c2.32.47,4.31.76,6.37,1.09l3.07.5,1.53.25a2.84,2.84,0,0,1,.68.16l.6.19,8,2.6,1.41.47,1.24.56c.81.38,1.66.73,2.45,1.15s1.6.82,2.37,1.26l2.31,1.34a37.27,37.27,0,0,1,7.91,6.43l.78.87.4.55a8.54,8.54,0,0,1,.64,1.06,5,5,0,0,1,.63,2.36,2.79,2.79,0,0,1-1.08,2.13,4.79,4.79,0,0,1-2.29.87,8.65,8.65,0,0,1-1.25.08c-.12,0-.18,0-.35,0l-.48-.06-1-.07-5.86-.85c-3.91-.55-7.82-1.17-11.74-1.8,3.27.56,6.54,1.14,9.81,1.64l4.9.78,2.46.37c.47.08.68.08,1,.11l.83.1.34,0h.84a8.19,8.19,0,0,0,1.11-.12,4.5,4.5,0,0,0,2.07-.85,3,3,0,0,0,1.12-1.9,4.47,4.47,0,0,0-.27-2.23,8.53,8.53,0,0,0-1.09-2.06c-.13-.18-.22-.33-.38-.54l-.69-.79a18.83,18.83,0,0,0-1.45-1.54,43.21,43.21,0,0,0-7-5.51,61.45,61.45,0,0,0-8.29-4.37c-1.71-.61-2.78-1-5.83-2.05l-1.95-.67-1-.33a5.82,5.82,0,0,0-1.05-.29l-4.88-.9-2.5-.45-2.68-.54-5.45-1.12-1.37-.28c-.45-.1-.82-.24-1.23-.35l-2.44-.71-4.88-1.43c-1.47-.47-2.74-.93-4.1-1.4l-4-1.4-5.28-2.53c-2.12-.93-4.17-1.88-6.07-2.88a11.56,11.56,0,0,1-2.34-1.51c-.7-.51-1.79-1-2.54-1.55l-1-.79c-.17-.13-.3-.26-.5-.39l-.62-.41-1.25-.83-.88-.82-.44-.41-.58-.44-1.16-.88c-.55-.6-1.11-1.16-1.63-1.79-.28-.31-.5-.6-.82-.92l-1-1-.26-.25-.18-.25-.35-.51c-.24-.33-.48-.67-.7-1s-.4-.69-.71-1.09l-.89-1.19-.56-1.21c-.17-.41-.32-.86-.49-1.29s-.27-.92-.41-1.38-.36-1-.53-1.54a2.21,2.21,0,0,1-.14-.8l-.06-.8v-1.71l0-.93,0-.47a2.39,2.39,0,0,1,.09-.45,14.16,14.16,0,0,1,.5-1.77,16.65,16.65,0,0,0,.56-1.78c.09-.3.16-.6.26-.9l.48-.79.48-.79.41-.79a4.8,4.8,0,0,1,.94-1.5c.4-.44.82-.89,1.21-1.34l1.05-1.35a5.47,5.47,0,0,1,1.29-1.19c.46-.37,1-.74,1.39-1.12.87-.74,1.67-1.55,2.58-2.25l1.36-1.06a10.39,10.39,0,0,1,1.42-1l3-1.84,3-1.6c1-.53,2-.94,3-1.42l2.92-1.33.72-.32a6,6,0,0,1,.89-.13l1.81-.19.91-.1a4.45,4.45,0,0,0,.73-.25l1.41-.56.7-.28c.28,0,.62,0,.93,0h1.9c.32,0,.64,0,.95,0l.8-.2,1.6-.42.4-.1a.91.91,0,0,1,.45-.06l1.07.08,2.14.15a8.14,8.14,0,0,0,2-.13l2-.25c.32,0,.69-.07,1.08-.09l1.13-.06,2.28-.12c1.38,0,2.84,0,4.25,0a17.26,17.26,0,0,0,2.15-.09l2.15-.17c1.4-.16,2.92-.1,4.4-.12h2.22c.25,0,.22-.06.3-.09l.18-.13.36-.25,1.32-1a7.67,7.67,0,0,1,.91-.53l.12-.06.06,0h0c1.35,2.89-3-6.48,3,6.48v0l0,.1c.1.25.21.49.33.74s.28.49.44.73.38.51.4.58a3.44,3.44,0,0,0,.56.7l.1.08h0v0l0,.05,0,0,0,0-.07-.06a2.2,2.2,0,0,0-.28-.18,1.83,1.83,0,0,0-.26-.11l-.06,0-.16-.08-.32-.15a5.33,5.33,0,0,0-.63-.23l-.32-.08a3.15,3.15,0,0,1-.38-.1,10,10,0,0,0-2-.44l-.49,0-.7-.11c-.46-.07-.93-.12-1.39-.16-1-.07-1.69,0-3-.07h-1s0-.18-.06-.25a31.23,31.23,0,0,0-1.72-5.34c-1-2.36-2.22-5-3.62-7.67s-3-5.5-4.66-8.36c-3.36-5.74-7.13-11.64-11.19-18.2-1.44-2.34-2.89-4.71-4.44-7.41l-.57-1-.49-.9-1-1.79-1.95-3.63c-2.59-4.91-5.14-10.07-7.41-15.6a107,107,0,0,1-5.7-17.83A74.76,74.76,0,0,1,594.91,552c.16-1.79.34-3.57.56-5.34s.63-3.55,1-5.31a63.31,63.31,0,0,1,3.34-10.19,70.1,70.1,0,0,1,10.56-17.11A83.61,83.61,0,0,1,624,501.12a111.63,111.63,0,0,1,14.87-9.42c5.33-2.9,10.41-4.77,11.25-4.71s-2.71,2.08-7.93,4.92c-2.55,1.4-5.1,2.89-7.62,4.52s-5.05,3.36-7.5,5.26a85.81,85.81,0,0,0-7.23,6.18,83.47,83.47,0,0,0-6.67,7.21,67.76,67.76,0,0,0-10.59,17.75,58.14,58.14,0,0,0-3.08,10.54,53.31,53.31,0,0,0-.82,5.44l-.25,2.73c-.09.92,0,1.81-.08,2.71A75.37,75.37,0,0,0,601,574.83a114.53,114.53,0,0,0,6.51,17.86c2.51,5.53,5.23,10.72,7.94,15.66l1,1.86,1.16,2,2.27,3.81c1.48,2.45,2.93,4.8,4.37,7.11,2.86,4.61,5.64,9.1,8.21,13.55s5,8.84,6.88,13a59,59,0,0,1,2.39,5.94,21,21,0,0,1,1.09,4.3,3.2,3.2,0,0,0,0,.43s0,.05,0,0h.26a16,16,0,0,1,2.15.26,12.7,12.7,0,0,1,1.59.22,7,7,0,0,1,.79.2l.4.12a2.75,2.75,0,0,0,.27.07,4.87,4.87,0,0,1,1,.32c.15.06.35.17.47.23l.19.07a2.32,2.32,0,0,1,.43.27c.06,0,0,0,0,0l0,0,0,0v0l0,0-.14-.13a4.17,4.17,0,0,1-.44-.54c-.07-.11-.07-.14-.19-.31a5.93,5.93,0,0,1-.38-.54,7.18,7.18,0,0,1-.59-1.13l-.11-.28c-3.28-7-.92-1.95-1.66-3.52l0,0-.06,0-.23.1-.45.21c-.31.15-.59.3-.91.49l-1.24.72-.61.36-.16.09a1.63,1.63,0,0,1-.35,0H642l-3.15,0c-2.08,0-4.08.3-6.11.3s-4.08-.12-5.85,0l-1.38,0c-.47,0-.93,0-1.33.06l-2.48.19a12.11,12.11,0,0,1-2.6-.11l-1.32-.12-.66-.06a2.21,2.21,0,0,0-.54.07,15.14,15.14,0,0,1-4.38.44l-1.2,0a2.53,2.53,0,0,0-1.1.09l-1.87.56a8.6,8.6,0,0,1-2.18.31l-1.17.09-.59.05-.29,0-.24.09c-1.3.5-2.53.92-3.89,1.49l-2,.81c-.67.28-1.35.63-2,.94s-1.35.61-2,1l-2,1.14a31.37,31.37,0,0,0-3.78,2.51c-1.21.92-2.24,1.91-3.55,2.85s-2.14,2.12-3.25,3.25a7.14,7.14,0,0,0-1.46,1.84l-.57,1-.65,1a6.08,6.08,0,0,0-.78,1.94c-.2.67-.47,1.33-.67,2-.5,1.3-.17,2.82-.22,4a14,14,0,0,0,.19,1.85c.21.57.47,1.22.64,1.74a18.18,18.18,0,0,0,1.21,3,16.82,16.82,0,0,0,1.83,2.64,26.06,26.06,0,0,0,1.76,2.31l1.21,1.11c.38.36.67.68,1,1s.66.66,1,1a7.33,7.33,0,0,0,1.11,1,.15.15,0,0,1,.18-.1,4.93,4.93,0,0,1,1.16.41c.27.12.57.27.9.44s.71.36,1,.55a26.19,26.19,0,0,1-2.81-2.15q-.6-.54-1.17-1.11c-.39-.38-.75-.76-1.25-1.18a14.11,14.11,0,0,1-2.34-2.55c-.34-.45-.64-.88-1.08-1.39l-.61-.75a6,6,0,0,1-.45-.76,18.56,18.56,0,0,1-1.48-3.35l-.37-1a2.85,2.85,0,0,1-.29-1l-.14-1,0-1.08,0-1.14a3,3,0,0,1,.06-1.15l.26-1.13.39-1.1c.29-.72.45-1.5.8-2.18s.87-1.31,1.24-2l.38-.67a2.37,2.37,0,0,1,.43-.65l1.07-1.16c.72-.75,1.26-1.56,2-2.25s1.69-1.28,2.44-1.91,1.5-1.32,2.34-1.88l1.22-.89a8.91,8.91,0,0,1,1.26-.84l2.65-1.54c.89-.52,1.8-.88,2.7-1.34.45-.21.9-.44,1.35-.64l1.35-.54c.9-.36,1.82-.74,2.67-1l1.31-.48a3.56,3.56,0,0,1,1.4-.35c1-.11,2.14-.15,3.12-.3l2.55-.75c1,0,2.16,0,3.24,0h.41l.36-.06.71-.12,1.42-.25a3.31,3.31,0,0,1,.74-.1l.9.08,1.8.15.91.08a8.12,8.12,0,0,0,.86,0l1.71-.14c1.08-.11,2.4-.12,3.67-.16.64,0,1.24,0,1.93,0l2.09,0,2.08,0,2.12-.14c1.4-.11,2.81-.21,4.29-.2l2.2,0h1l.06,0,.45-.25,1.77-1c.45-.25.9-.46,1.36-.66l.17-.07.09,0,1.32,2.82v0l0,0,0,.1a7.48,7.48,0,0,0,.39.81c.27.53.78,1.16.84,1.3a3.52,3.52,0,0,0,.31.39c.1.11.32.3.26.26s.06.08.09.09a2,2,0,0,0-.6-.34,1.36,1.36,0,0,1-.28-.13l-.36-.16a5,5,0,0,0-.71-.24l-.35-.08-.57-.18c-.39-.1-.77-.19-1.14-.25a5.54,5.54,0,0,0-.57-.07l-.28,0h-.14l-.19,0-.79-.13-.64-.07c0,.09,0-.24,0-.46s0-.39-.06-.59,0-.19,0-.32l-.07-.39-.13-.81-.22-.93-.1-.47-.15-.52-.29-1-.72-2.22a127.39,127.39,0,0,0-5.7-13.27c-2.2-4.5-4.56-9-7-13.57s-4.92-9.1-7.46-14L621,610l-1-1.95-1.7-3.62c-1.13-2.44-2.27-4.92-3.37-7.45-1.56-3.14-3.12-6.32-4.52-9.67-.74-1.63-1.38-3.38-2.06-5.07s-1.28-3.47-1.81-5.3a83.06,83.06,0,0,1-2.75-11.21l-.41-2.94-.2-1.48-.11-1.51-.19-3v-3.07a56.09,56.09,0,0,1,5.71-23.85,70.4,70.4,0,0,1,13.67-18.83,13.34,13.34,0,0,1,2.19-1.9c.4-.21,0,.3-.85,1.16a75.6,75.6,0,0,0-9.89,12.33,61.42,61.42,0,0,0-7,15.08,57.08,57.08,0,0,0-2.31,17,68.25,68.25,0,0,0,2.39,16.44,18.56,18.56,0,0,1,0-4.07c.13-1,.36-1.44.71-1.37.75.12,1.72,2.6,3.14,6.2a66.65,66.65,0,0,1-2.25-14.07,20.08,20.08,0,0,1,.11-3.78c.11-1,.26-1.52.43-1.47s.32.64.43,1.58.13,2.23.25,3.61c.53,9.68,3.43,18.76,7,27.18,1.78,4.22,3.75,8.3,5.81,12.28,1,2,2.06,4,3.12,5.91l.78,1.46.84,1.51,1.7,3c5.66,9.09,11.4,17.68,16.38,26.61a120.49,120.49,0,0,1,6.61,13.47,51.56,51.56,0,0,1,2.17,6.7,18.64,18.64,0,0,1,.59,6c.14-.48.38-.9.51-1.38s.28-.93.43-1.34a8.57,8.57,0,0,1,.8-2.11h0a47.68,47.68,0,0,0-2.54-8.68,150.55,150.55,0,0,0-10.38-19.15c-3.88-6.28-8-12.46-12.13-18.85-2.06-3.16-4.11-6.6-6-9.87s-3.73-6.7-5.49-10.17-3.38-7.06-4.86-10.74a95.08,95.08,0,0,1-3.66-11.5,66.55,66.55,0,0,1-1.7-12.26,52.79,52.79,0,0,1,1.09-12.57,50.24,50.24,0,0,1,4.17-11.87,61.18,61.18,0,0,1,6.55-10.47,85.37,85.37,0,0,1,17.38-16.62,206.37,206.37,0,0,1,19.75-12.52,8.86,8.86,0,0,1,2-1,7.07,7.07,0,0,1-1.65,1.12c-8,4.66-16.12,9.53-23.58,15.56a74,74,0,0,0-18.95,22l0-.07c.45-.66.66-.72.33.1s-1,2.08-1.42,2.76-.6.65-.35-.06a50.6,50.6,0,0,0-4.57,27.38,82.64,82.64,0,0,0,7.7,25.82c1.85,4,3.86,7.86,5.95,11.63,1.06,1.87,2.12,3.75,3.19,5.59.53.91,1.09,1.86,1.66,2.81l1.71,2.75c4.61,7.24,9.32,14.16,13.68,21.24-3.87-6.68-8-13.23-12.17-19.94-1-1.69-2.05-3.38-3.05-5.14s-1.92-3.44-2.87-5.19c-1.89-3.46-3.71-7-5.42-10.6a117,117,0,0,1-4.67-11.1c-.71-1.89-1.29-3.84-1.88-5.78s-1.06-3.94-1.42-6a52.38,52.38,0,0,1,.65-24.57,49.38,49.38,0,0,1,3.5-10.29,10.16,10.16,0,0,1,1.45-2.27c.24-.19,0,.5-.47,1.41s-.86,1.81-1.25,2.73c2.74-5.6,6.14-9,6.57-8.56.4.69-2.22,5.11-4.67,10.73a44.66,44.66,0,0,0-3.27,11.82,47.17,47.17,0,0,0-.13,12.22,68.91,68.91,0,0,0,2.54,12,104.17,104.17,0,0,0,4.37,11.45c.75,1.6,1.56,3.17,2.38,4.74s1.84,3,2.78,4.56a136.61,136.61,0,0,1-7.52-17.39A67.6,67.6,0,0,1,616.07,556,45.94,45.94,0,0,1,619,537.9a58,58,0,0,1,9.36-15.85c1.32-1.66,2.67-2.89,2.87-2.77s-.79,1.52-2.09,3.17c-6.46,8.58-10.82,18.71-10.7,29.08A51.35,51.35,0,0,0,620.77,567a94.77,94.77,0,0,0,6,14.9c2.41,4.87,5.13,9.65,8,14.45,1.45,2.45,2.81,4.69,4.33,7l4.61,7c3.11,4.73,6.24,9.53,9.24,14.48a162.92,162.92,0,0,1,8.41,15.53,70.38,70.38,0,0,1,5.25,11.29,36.88,36.88,0,0,1,1.71,6.85,23.93,23.93,0,0,1-.27,8.61,18.72,18.72,0,0,1-5.32,9.28,19.78,19.78,0,0,1-2.09,1.75c-.7.47-1.43.94-2.17,1.37a8.89,8.89,0,0,1-.92.49l-.83.4-1.67.79c-.55.25-1.13.55-1.68.75l-1.61.55-1.63.55-.41.13-.2.07-.12,0-.48.14c-.64.17-1.26.4-1.89.52l-1.88.33,2,0c.67,0,1.33-.16,2-.25a20.17,20.17,0,0,0,2.34-.52c.92-.25,1.8-.42,2.75-.74s1.91-.72,2.86-1.09l1.41-.57.19-.08.24-.13.49-.25,1-.54a16.6,16.6,0,0,0,1.9-1.2c.63-.48,1.25-1,1.85-1.51a12.69,12.69,0,0,0,1.69-1.74,18.53,18.53,0,0,0,3.66-6.15c.26-.7.52-1.43.71-2.13s.29-1.34.41-2l.18-1c0-.33.06-.63.08-.94l.12-1.85c0-1.21-.07-2.28-.12-3.42s-.27-2.06-.42-3.09l-.62-2.83a62.64,62.64,0,0,0-3.47-9.82c-1.32-3-2.76-5.8-4.25-8.49s-3.05-5.28-4.63-7.8c-3.17-5-6.47-9.79-9.77-14.45s-6.65-9.23-9.54-13.61c-3-4.7-6-9.37-8.65-14.16a98.28,98.28,0,0,1-6.85-14.78,54,54,0,0,1-3.14-15.76,5.27,5.27,0,0,1,.05-1.41,1.55,1.55,0,0,1,.2-.69c.15-.1.23.62.24,1.7a51.89,51.89,0,0,0,3,15.14,89,89,0,0,0,6.53,14.25c2.57,4.64,5.43,9.19,8.43,13.84l1.12,1.72,1.1,1.64c.78,1.11,1.55,2.23,2.33,3.36l4.93,7a281.57,281.57,0,0,1,15.8,24.49,94.06,94.06,0,0,1,6.51,14.1c.25.63.44,1.35.66,2s.43,1.34.59,2.1l.53,2.21.4,2.4a27.89,27.89,0,0,1-.69,11.65,28.33,28.33,0,0,0,1-11.85,46.89,46.89,0,0,0-2-8.87,90.17,90.17,0,0,0-6.15-14.16,250.82,250.82,0,0,0-14.79-23.64c-2.54-3.69-5.11-7.33-7.46-10.83l-1.7-2.58-1.75-2.77c-1.14-1.85-2.28-3.69-3.37-5.53-4.36-7.35-8.29-14.77-10.67-22.44a10.21,10.21,0,0,1-.54-1.95,12.36,12.36,0,0,1-.24-1.63,1.66,1.66,0,0,1-.38-.72,39,39,0,0,1-1.88-12.34,7.32,7.32,0,0,1,.39-2.26C621.91,546.84,622,547.36,622,548.28ZM499.44,725l-.14-.16.52.29.72,1.09Zm-9,3.69h0l-.44-.64ZM666.49,746a9.78,9.78,0,0,1-1.71.24h-.86c-.3,0-.79-.09-1.17-.12l-.63,0-.88-.13-1.76-.26-3.51-.53c-4.68-.69-9.35-1.5-14-2.28-9.31-1.63-18.6-3.37-27.87-5.28L627.7,740q10.56,2,21.13,3.83c3.53.62,7.06,1.15,10.6,1.73l2.65.41,1.82.2A9.81,9.81,0,0,0,666.49,746ZM493.26,720.49a12.76,12.76,0,0,1,2.12,2.17,5.6,5.6,0,0,1,1.69,0c1.55.19,3.06.41,4.54.7-.19-.38.17-.31.35-.33l.55,0-4.79-1.22A44.51,44.51,0,0,1,493.26,720.49Zm-11.17,1-.15-.16.27-.61Zm-.42,1,.24.1C481.84,722.82,481.76,722.73,481.67,722.49Zm2.15.86a1.33,1.33,0,0,0-.32-.34Zm2.28,18.18.64-3.14-.72,3Z"/><path d="M331.87,149.61l.62.06a1.53,1.53,0,0,1-1,.8,12.65,12.65,0,0,0,7.7-3.13,21.73,21.73,0,0,0,3-3,24.63,24.63,0,0,0,2.24-3.44,2.77,2.77,0,0,0,1.89-3.2c-.41-1.19-2-1.65-3.48-1a4.6,4.6,0,0,1-1.15.06,17.79,17.79,0,0,0-4.63-.37,24.65,24.65,0,0,0-4.88.7h2.2a9.73,9.73,0,0,0-2.82.89l.67.41c-3.63.17-7.07,3.08-7.46,6.27s2.2,5.39,5.59,5.09C330.84,149.65,331.35,149.62,331.87,149.61Z"/><path d="M340.38,152.86l-5.62.45-.51-.18,1.17,1.54,0-.12c.39-2.16,2.18-4.13,4-5.69l.59-.67a1.64,1.64,0,0,0,.14-1.27,1.75,1.75,0,0,0-2.45-.83l-1.22.52a11.46,11.46,0,0,0-5,2.43,5.37,5.37,0,0,0-2.11,4.69c.12.84,1,1.42,1.55,2.09a2.53,2.53,0,0,0,3.53.59,2.64,2.64,0,0,0,1.24-3.4l.81-.2-.27.72c-.25-1.16.8-2.13,1.38-3.18l1.19-1.07-2.33-2.08-.52.76c.12.08.33.17.33.19a31.86,31.86,0,0,1-2.87,4.36l-1.15,2.1a1.27,1.27,0,0,0,1.2,1.53h1.13l-.56-.08c2.15-.66,4.28-1.51,6.44-2a.72.72,0,0,0,.64-.7A.57.57,0,0,0,340.38,152.86Z"/><path d="M334.27,157.26a1.74,1.74,0,0,0-1.21.32,2.58,2.58,0,0,1,0,.32l.85,0C334.49,158,334.53,157.59,334.27,157.26Z"/><path d="M333,157.9l-.36,0,.32.12s0-.05,0-.05Z"/><path d="M515.41,292.51a74.42,74.42,0,0,0,11.45-6.75,70,70,0,0,0,10-8.87c1.54-1.58,3-3.39,4.43-5.16l2.06-2.78c.68-.93,1.29-1.93,1.94-2.89A93.11,93.11,0,0,0,552,253.63,108.75,108.75,0,0,0,560,225.57a126.89,126.89,0,0,0,1.27-14.88c.07-5.07,0-10.22-.35-15.57a8.38,8.38,0,0,0-.38-2.67,6.5,6.5,0,0,0-.08,2.37c.37,5.35.42,10.48.37,15.55a130.1,130.1,0,0,1-1.25,14.81,106.51,106.51,0,0,1-3,14.35,100.27,100.27,0,0,1-4.79,13.56,82.94,82.94,0,0,1-14.93,23.15,70.43,70.43,0,0,1-21.22,15.62,6.33,6.33,0,0,0-2,1.16C513.6,293.17,514.4,292.94,515.41,292.51Z"/><path d="M666.29,47.07c-1.11,0-1.07.12.07.27,1,.14,2.71.21,3.8.29.92.06.9-.07-.06-.26A25.13,25.13,0,0,0,666.29,47.07Z"/><path d="M656.72,55l-4.35.49-1.06.12-1,.2-2,.41c-1.35.3-2.69.5-4,.86l-3.69,1.1c-.89.28-1.92.46-2.66.7.37.06-.65.56-2.63,1.29a76.79,76.79,0,0,0-7.2,3c-1.21.49-2.33,1.2-3.5,1.8s-2.33,1.21-3.44,1.91c-2.21,1.44-4.51,2.74-6.59,4.38-1.06.79-2.16,1.53-3.19,2.37l-3,2.56c-1,.82-2,1.78-2.93,2.69s-2,1.8-2.84,2.8l-2.69,3a17.23,17.23,0,0,0-1.29,1.52l-1.24,1.55a38.93,38.93,0,0,0-2.4,3.18l-2.26,3.26c-1.33,2.28-2.76,4.5-3.86,6.88l-.88,1.75c-.29.58-.51,1.19-.76,1.79l-.74,1.79a15.29,15.29,0,0,0-.69,1.81l-1.18,3.64-.92,3.85c-.15.65-.32,1.28-.45,1.93l-.32,2c-.2,1.32-.47,2.62-.62,4-.26,2.69-.59,5.35-.64,8.09s-.08,5.48-.08,8.23c0,1.39.12,2.79.18,4.18l.1,2.09.17,2.12c.39,5.6,1.13,11.32,1.87,17.07a7.44,7.44,0,0,1,.69,1.91,121.25,121.25,0,0,1,2.66,16.49l.44,5.26c.24,2.65.42,5.36.62,8s.33,5.43.36,8.21a161.19,161.19,0,0,1-.37,16.71A151.44,151.44,0,0,1,586,238.62,137.4,137.4,0,0,1,581.77,255a97.59,97.59,0,0,1-5.2,15.06l-1.5,3.41-.76,1.71-.84,1.68-1.68,3.36-1.85,3.29-.93,1.65-1,1.6L566,290l-2.21,3.13-1.11,1.56c-.39.51-.81,1-1.21,1.52L559,299.22c-.85,1-1.73,1.94-2.6,2.91-1.71,2-3.64,3.73-5.5,5.59a102.7,102.7,0,0,1-12.39,9.86c1.21-.6,2-.88,2.1-.7s-1,1.24-2.67,2.47A31.12,31.12,0,0,1,535,321.3c-1.12.66-2.31,1.42-3.62,2.08l-4,2c-1.32.68-2.72,1.21-4.07,1.81a105.29,105.29,0,0,0,22.22-12.31c1-.73,1.92-1.35,2.72-2,1.78-1.5,3.63-2.91,5.3-4.54l2.56-2.39c.85-.8,1.64-1.68,2.46-2.52s1.63-1.69,2.41-2.58,1.53-1.8,2.29-2.71c1.58-1.79,2.91-3.7,4.34-5.58a119.74,119.74,0,0,0,14.28-26.48,139.6,139.6,0,0,0,7.41-28A155.61,155.61,0,0,0,591,210a253.48,253.48,0,0,0-2.47-26.53c-2.34-17-5.21-32.84-5.22-48a89.58,89.58,0,0,1,2.45-21.88c.1-.43.18-.89.3-1.31l.39-1.24.77-2.49c.58-1.64,1.29-3.27,1.93-4.92.82-1.59,1.55-3.23,2.41-4.82L593,96.47c.47-.78.88-1.59,1.43-2.33a22.29,22.29,0,0,1,2-2.65c.4-.41.44-.24-.14.65S595,94.07,594.37,95l-1.62,3-.81,1.47c-.25.49-.45,1-.68,1.5-.46,1-.91,2-1.36,3s-.73,2-1.09,3l-.54,1.49-.4,1.5c-.26,1-.55,2-.8,3l-.59,3.17c-.47,2.07-.6,4.26-.87,6.38-.16,1-.17,2.16-.23,3.24l-.16,3.25,0,3.31c0,1.11,0,2.19.08,3.33.14,2.25.19,4.47.46,6.78.83,9.15,2.47,18.65,4.31,29.05.45,2.63.91,5.28,1.37,8s.9,5.5,1.33,8.35.79,5.83,1.18,8.81.69,6.11.85,9.36c.28,3.81.43,7.74.42,11.67s-.15,7.86-.45,11.8A150.15,150.15,0,0,1,591.12,253a127.71,127.71,0,0,1-20.36,45.11c-.63.87-1.22,1.75-1.9,2.6l-2.05,2.55c-1.35,1.74-2.82,3.34-4.29,5s-3,3.16-4.58,4.69-3.21,3-4.86,4.43a111.33,111.33,0,0,1-22,14.79,104.45,104.45,0,0,1-25.91,9.17,94.31,94.31,0,0,1-28.83,1.61,82.7,82.7,0,0,1-15.93-3.46,69.94,69.94,0,0,1-15.81-7.34,61.08,61.08,0,0,1-14.66-12.79c-1.07-1.36-2.13-2.73-3.11-4.17l-1.41-2.23-.69-1.12-.1-.17,0-.06-.09-.14c-.34-.58-.74-1.25-1.18-2.09s-.85-1.62-1.25-2.46A51.87,51.87,0,0,1,420,301.8c-.63-1.71-1.07-3.35-1.52-5s-.77-3.3-1-4.85l-.36-2.38-.24-2.29c-.17-1.56-.22-3-.27-4.48a87.87,87.87,0,0,1,1.16-16.23c.47-2.42.89-5,1.49-7.23l.87-3.49.85-3c1.14-4,2.45-8.18,3.88-12.15s2.91-7.71,4-10.76a73.82,73.82,0,0,0,2.52-7.87,71.1,71.1,0,0,0,1.52-7.66c.23-1.34.38-2.86.57-4.3a4,4,0,0,0,.06-.83l0-.67,0-.66a5.34,5.34,0,0,0,0-.58,7.39,7.39,0,0,0-1.66-5.11c-.18-.19-.27-.37-.46-.59a7.81,7.81,0,0,1-.58-.71c-.26-.27-.52-.55-.76-.84s-.64-.64-.94-1c-1.35-1.36-3.18-3-5.34-4.8l-1.17-.93-.58-.47a4.11,4.11,0,0,0-.49-.37c-.44-.26-.81-.57-1.28-.81a27.34,27.34,0,0,0-2.81-1.44,33.31,33.31,0,0,0-6.86-2,46.75,46.75,0,0,0-17.09.39c-.76.15-1.51.3-2.28.5l-1.14.27-.19.07-.56.24-1.12.44c-.75.31-1.49.63-2.23.91-3,1.23-5.92,2.55-8.87,4.09a3.59,3.59,0,0,1-3.59.37,8.29,8.29,0,0,1-3.72-3.12,8.1,8.1,0,0,1-1.36-6l-.65.29c-.41,0-.81.1-1.21.17a5.31,5.31,0,0,1-3.58-1l-1.51-.92a32.74,32.74,0,0,0-4-2.58,28.34,28.34,0,0,1-4-2.59l-.47-1.12-.39-.16a6.44,6.44,0,0,1-3.08-1.83l-.74-1.24a13.38,13.38,0,0,1-1.51-4.57,4.92,4.92,0,0,1-.77-1.62,6.93,6.93,0,0,1-3-3.72,1,1,0,0,1-.66-1.25,1,1,0,0,1,.33-.48h0a10.3,10.3,0,0,0-1-.45c-.39.11-.63.15-.63.15l-1.88.67a5.19,5.19,0,0,1-1.73-.28c-2.21-1.61-2.22-1.61-2.75-2.59,0-.12,0-.24-.05-.36-.8.11-.86.11-1.08.13a2.29,2.29,0,0,1-.54-.15c-.38-.47-.38-.47-.61-.57a2.6,2.6,0,0,1-.29-.35c-.06-.77-.06-.77-.16-.93a1.45,1.45,0,0,1,0-.39c.28-.44.39-.61.43-.69l1.75.69-.13-.57.61.45-.49-.46.65,0-.81-.14a5.62,5.62,0,0,0,1.53-.79,2.44,2.44,0,0,0,.79-.62,2.82,2.82,0,0,1-.24-.27c1.25-.5,1.25-.5,2.48-1,.17.06.33.13.48.2a.6.6,0,0,1,.39-.52l.63-.25.08-.15,0,0c.13-.22.22-.37.33-.54l.06-.12h0l1.44-2.38a7.29,7.29,0,0,1,1.13-.3l-.43-.09c-.29-.08-.41-.66-.53-.65a25.34,25.34,0,0,0-4.56,1.07c-1.48.51-2.95,1.11-4.45,1.68a1,1,0,0,1-1.37.05.9.9,0,0,1,.2-1.3c3.56-6.12,11.07-9.78,18.13-10.29,1.71-.45,3.41-.92,5.13-1.35l-.34-.16,1.43-.12.14,0-1.35-.57h-.78c-4,1.14-8,1.3-12.1,2.23-2.17.54-4.33.52-6.49.95a.84.84,0,0,1-1.17-.31,1,1,0,0,1,.61-1.1c5.67-4.14,13.48-7,20-5.71a6.48,6.48,0,0,1,3.6-.33h.06l-1-.54c1-.12,1.67.37,2.58.37l-.7-1c4.63-.82,9.43-2.51,14-1.83a2.89,2.89,0,0,1,.51,0,24.66,24.66,0,0,1,2.54-1.66c.23-.13.45-.25.69-.36a1.11,1.11,0,0,1,.23-.1l1.49-.3,3-.57a104.68,104.68,0,0,1,12.84-1.34c-1.52,0-3,.07-4.53.14s-3,.19-4.48.32-3,.3-4.44.49l-4.13.6h0l.26-.07.59-.12L380,129l2.37-.48c1.59-.27,3.19-.53,4.79-.77,3.23-.41,6.5-.73,9.85-.85a94.1,94.1,0,0,1,20.82,1.51,86.13,86.13,0,0,1,28.95,11,77.3,77.3,0,0,1,12.73,9.71c3,2.93,5.95,6,8.81,9.37a86.81,86.81,0,0,1,8,11.1,64.51,64.51,0,0,1,5.81,12.61c.39,1,.64,2.15.94,3.19s.58,2.09.75,3.13a49.65,49.65,0,0,1,.85,5.94c.07.94.13,1.86.2,2.76s0,1.73,0,2.56-.05,1.63-.08,2.41-.14,1.48-.21,2.19c0,1.27,0,2.58,0,3.81l-.25,3.69c-.08,1.25-.29,2.37-.43,3.56s-.34,2.44-.52,3.33c-.7,3.88-1.53,7.86-2.6,11.93a118,118,0,0,1-3.94,12.11c-1.5,3.9-3.07,7.39-4.42,10.46s-2.52,5.87-3.59,8.72c-.56,1.42-1,2.87-1.55,4.3l-.71,2.2-.36,1.1-.28,1-.56,1.92c-.18.64-.29,1.25-.45,1.87-.34,1.26-.47,2.42-.71,3.6a30.8,30.8,0,0,0-.31,6.07,16,16,0,0,0,.28,2.18,10.23,10.23,0,0,0,.42,1.38c0,.09.08.19.13.3l.11.22.2.37.22.4.17.28.11.17c.07.12.14.24.2.36s.34.47.47.72.4.48.6.73a21.77,21.77,0,0,0,9.26,5.45,35.49,35.49,0,0,0,6.71,1.5c1.24.09,2.48.25,3.73.33s2.51.08,3.78.05a56.33,56.33,0,0,0,15.33-2.61,23.79,23.79,0,0,1,2.87-.8,4.46,4.46,0,0,1,1.63-.28c.32.14-.94,1-3.09,1.69-1.82.71-3.69,1.16-5.54,1.71-.94.22-1.88.39-2.81.6-.47.09-.94.22-1.41.28l-1.41.19-1.41.2a9.64,9.64,0,0,1-1.41.15l-2.81.2c-.94,0-1.87,0-2.8,0-.47,0-.94,0-1.4,0l-1.38-.12c-.91-.09-1.89-.1-2.74-.24s-1.72-.25-2.58-.41a40.7,40.7,0,0,1-4.89-1.32,32.28,32.28,0,0,1-4.27-1.87,21.12,21.12,0,0,1-3.34-2.26,12.55,12.55,0,0,1-2.27-2.39,5.9,5.9,0,0,1-.42-.6l-.18-.31-.1-.15,0-.07,0-.05-.08-.14-.46-.81c-.1-.17-.14-.27-.19-.36s-.16-.35-.25-.53a17.21,17.21,0,0,1-.91-7.19,46.9,46.9,0,0,1,1.93-10.82c.23-.92.59-2,.94-3.12s.69-2.16,1.06-3.22c.72-2.14,1.52-4.23,2.36-6.35-1.52,3.5-2.89,6.94-4.11,10.59-.35.94-.56,1.7-.82,2.52s-.53,1.62-.71,2.4-.43,1.59-.59,2.35l-.47,2.29a30.13,30.13,0,0,0-.42,7.93,14.59,14.59,0,0,0,.52,2.77,8.5,8.5,0,0,0,.4,1.09c0,.09.13.26.19.39l.05.1.13.23.25.47c.16.28.24.41.35.64.17.42.52.78.73,1.2s.56.81,1,1.18a18.11,18.11,0,0,0,2.49,2.31,27.51,27.51,0,0,0,7.27,3.85,36.57,36.57,0,0,0,9.14,2.11l2.49.28,2.53.08,1.26.05c.43,0,.85,0,1.28-.05l2.56-.1a62.24,62.24,0,0,0,10.48-1.89c1.73-.4,3.42-1,5.13-1.52.86-.24,1.69-.61,2.54-.9s1.7-.56,2.52-.94a72,72,0,0,0,12-6.7c.93-.68,1.92-1.26,2.8-2l2.71-2.12c1.71-1.52,3.47-3,5-4.65l1.22-1.2,1.13-1.27c.75-.87,1.56-1.64,2.26-2.58l2.17-2.71,2-2.83a95.29,95.29,0,0,0,7.08-12.18A106.18,106.18,0,0,0,561.42,231a116.43,116.43,0,0,0,1.63-14.91c.09-1.26.08-2.52.11-3.79l0-1.91,0-1.94c0-1.29,0-2.59-.07-3.89l-.21-4c-1-18.23-4.36-36.42-4.84-56A131.94,131.94,0,0,1,560.54,114c.13-.65.25-1.31.4-2l.52-2c.35-1.3.7-2.61,1.06-3.91l.26-1,.35-1,.71-2c.5-1.32.91-2.71,1.5-4,1.16-2.56,2.24-5.21,3.64-7.63.67-1.23,1.33-2.49,2-3.71l2.27-3.56a107.32,107.32,0,0,1,14.86-17.91,115.25,115.25,0,0,1,18-13.89,110.91,110.91,0,0,1,20.28-9.75l5.36-1.71,1.34-.42c.45-.13.91-.22,1.37-.34l2.73-.65a98.19,98.19,0,0,1,33.53-2.16,109.22,109.22,0,0,1,21.89,4.84l5.27,1.92c1.73.71,3.43,1.5,5.15,2.25s3.37,1.63,5,2.49,3.33,1.73,4.91,2.75a105.88,105.88,0,0,1,18.13,13.49,79,79,0,0,1,7.57,7.83,24.73,24.73,0,0,1,3.17,4.58c.24,1-3.6-3.26-9.31-8.81A112.53,112.53,0,0,0,714,53.68l-2.52-1.49-1.26-.75-1.3-.68c-1.74-.89-3.47-1.79-5.22-2.65l-5.39-2.33c-1.8-.76-3.68-1.35-5.52-2a104.61,104.61,0,0,0-23-4.95,96.58,96.58,0,0,0-23.6.69L643.3,40a28.46,28.46,0,0,0-2.9.54l-5.74,1.37c-1.9.5-3.76,1.16-5.63,1.75-.93.31-1.88.57-2.8.93l-2.73,1.1a110.87,110.87,0,0,0-10.67,5l-5.07,2.95c-.86.48-1.67,1-2.48,1.58l-2.43,1.65a108.08,108.08,0,0,0-17.71,15.4,98.89,98.89,0,0,0-13.8,19.36l-1.44,2.65L568.64,97l-1.24,2.79c-.39.95-.72,1.93-1.07,2.9l-1,2.92c-.32,1-.54,1.92-.82,2.89l-.78,2.88-.39,1.45-.29,1.45a116.92,116.92,0,0,0-2.58,23.19,214.81,214.81,0,0,0,.85,22.42c.62,7.29,1.43,14.43,2.16,21.46s1.38,13.91,1.65,20.67a138.83,138.83,0,0,1-.44,19.92,111.68,111.68,0,0,1-10.28,37.75,83.78,83.78,0,0,1-19.23,25.91c.16,0,.32,0,.38,0,.26.28-.26,1.2-1.35,2.56a79.41,79.41,0,0,0,12.64-13.36,94.72,94.72,0,0,0,9.76-16.22,112.55,112.55,0,0,0,7.51-25.83,130.37,130.37,0,0,0,1.56-13.6c.29-4.58.3-9.17.17-13.88-.28-9.42-1.37-19.22-2.39-29.4a313.42,313.42,0,0,1-2.1-32c0-1.92,0-3.81.09-5.74s.11-3.82.3-5.73.37-3.82.55-5.71.58-3.79.87-5.67c.12-.94.34-1.88.55-2.81s.41-1.87.62-2.8.38-1.86.66-2.78l.81-2.74a55.19,55.19,0,0,1,1.81-5.45,57.8,57.8,0,0,1,2.23-5.35,85.45,85.45,0,0,1,12-18.88A106.4,106.4,0,0,1,597.35,65a101.89,101.89,0,0,1,23.31-14.65,97.75,97.75,0,0,1,26.54-7.72,94.27,94.27,0,0,1,27.76.13,99.21,99.21,0,0,1,26.59,8,14.31,14.31,0,0,1,1.92.93,11.22,11.22,0,0,1,1.22.75c.43.33-.32,0-1.66-.62a99.64,99.64,0,0,0-37.29-9.14l-2.44-.13-2.45,0c-1.63,0-3.26,0-4.89.13l-4.89.44-1.22.11-1.21.19-2.42.4a95.69,95.69,0,0,0-18.92,5.1,22.61,22.61,0,0,1,2.7-.65c.8-.15,1.48-.26,2-.33,1.1-.13,1.66-.08,1.57.19s-.85.75-2.14,1.37c-.65.31-1.43.66-2.33,1L626.18,52c2.66-1.15,5.46-1.93,8.22-2.81,1.37-.47,2.79-.74,4.2-1.08l4.23-1c3.55-.53,6.36-.77,6.28-.52S646.3,47.44,643,48a98.46,98.46,0,0,0-32.45,12.84l-3.64,2.44c-.6.41-1.21.8-1.81,1.23l-1.74,1.33-3.46,2.69-3.28,2.91c-.55.49-1.1,1-1.64,1.46l-1.54,1.56c-1,1-2.07,2.07-3.07,3.14-1.89,2.23-3.91,4.37-5.61,6.77a83.31,83.31,0,0,0-10.44,18.41l-1.78,5c-.52,1.69-.93,3.4-1.39,5.1s-.76,3.42-1.11,5.14l-.49,2.58c-.15.86-.23,1.73-.34,2.6-.2,1.73-.49,3.46-.59,5.19l-.35,5.2c-.08,3.45-.19,6.92-.05,10.35.18,6.88.72,13.7,1.44,20.45,0-1.89.06-3.54.16-4.89a17.39,17.39,0,0,1,.48-3.07h0l-.24-3.15-.17-3.15-.17-3.16c0-1.05,0-2.1-.07-3.15a116.8,116.8,0,0,1,2.2-29.16l.92-3.59c.33-1.2.56-2.41,1-3.59l1.22-3.56c.39-1.19,1-2.3,1.45-3.46a69.84,69.84,0,0,1,3.32-6.72c.55-1.12,1.27-2.15,1.92-3.21s1.31-2.13,2-3.16a96.55,96.55,0,0,1,20.61-21.62c1-.81,2-1.51,3-2.22l3.1-2.13c2.11-1.35,4.31-2.59,6.47-3.87,2.26-1.1,4.48-2.29,6.79-3.31l3.5-1.44c1.16-.47,2.32-1,3.54-1.33a91.37,91.37,0,0,1,29.81-5.12,93.15,93.15,0,0,1,15.18,1.22c1.25.21,2.49.5,3.74.75s2.5.46,3.71.83l3.68,1c.61.18,1.22.34,1.83.53l1.79.64a100.46,100.46,0,0,1,26.88,14.13A105.73,105.73,0,0,1,738.74,87a13,13,0,0,1,1.62,2.44,9.68,9.68,0,0,1-1.71-2,103.85,103.85,0,0,0-12.1-13.73c-2.27-2.05-4.5-4.14-6.94-6s-4.91-3.64-7.42-5.38a96.49,96.49,0,0,0-33.72-13.86l.09,0c1,.27,1.11.42,0,.27s-2.8-.56-3.76-.71c-1.11-.23-1-.32-.06-.26l-4.24-.58a21.33,21.33,0,0,0-2.13-.2l-2.13-.14c-2.84-.26-5.69-.17-8.54-.15l-1.06,0-1.07.08-2.13.18-2.12.17-1.07.09-1,.16-4.21.67c-.7.12-1.4.22-2.1.35l-2.06.5-4.14,1c-1.37.35-2.7.85-4.05,1.27l-2,.66a19.77,19.77,0,0,0-2,.71l-3.92,1.61c-.65.28-1.32.52-2,.83l-1.9.94-3.79,1.89L613.46,60c-1.21.72-2.44,1.41-3.58,2.24A94.52,94.52,0,0,0,585.65,85.3L584.42,87l-.62.85-.56.89L581,92.29c-.75,1.17-1.34,2.45-2,3.68l-1,1.85c-.32.62-.57,1.28-.86,1.91-.56,1.29-1.14,2.56-1.66,3.86l-1.37,4-.34,1-.26,1-.52,2c-.32,1.34-.73,2.67-1,4,.24-1.26.65-2.49,1-3.73s.63-2.49,1-3.72a69.09,69.09,0,0,1,2.82-7.24,80.71,80.71,0,0,1,7.64-13.41,97.16,97.16,0,0,1,21.56-21.8A95.39,95.39,0,0,1,633.43,52c1.23-.36,2.43-.82,3.68-1.1l3.74-.87a72.07,72.07,0,0,1,7.56-1.34l1.9-.29,1.92-.14,3.83-.28c1.28-.11,2.56,0,3.84-.06s2.56,0,3.83.05l3.35.12c1.11.06,2.24,0,3.35.19l3.35.37c1.12.12,2.25.23,3.36.46a25.21,25.21,0,0,1,3.25.82c.32.16-.59.07-1.83-.16s-2.45-.51-3.7-.62c1.91.29,3.67.78,5.28,1.15a30.77,30.77,0,0,1,4.13,1.26c2.3.83,3.62,1.45,3.48,1.69s-2,0-4.65-.6c-1.3-.31-2.85-.55-4.55-.85l-2.65-.5c-.91-.18-1.87-.26-2.84-.41l-3.91-.5-3.94-.23-2-.12c-.66,0-1.31,0-2,0l-3.94,0c-1.31,0-2.61.2-3.92.29a39.26,39.26,0,0,0-3.91.42l-3.89.62-1.94.32-1.91.46a93.47,93.47,0,0,0-28.88,12c-1.85,1.31-3.72,2.58-5.54,3.92l-2.6,2.22c-.85.75-1.75,1.43-2.54,2.25a91.69,91.69,0,0,1,43.37-20.31,86.92,86.92,0,0,1,47.2,5.1c2.52,1.07,4.61,2.13,4.58,2.32s-2.11-.53-4.62-1.6a88,88,0,0,0-41.1-5A86.9,86.9,0,0,0,613,67.73l-2.14,1.5c-.71.5-1.44,1-2.1,1.54l-4.07,3.28-3.83,3.53c-1.28,1.18-2.41,2.5-3.63,3.74a83.06,83.06,0,0,0-12,16.82,48,48,0,0,0-2.27,4.61A44,44,0,0,0,581,107.5a46.27,46.27,0,0,0-1.52,4.89l-.64,2.51a23.59,23.59,0,0,0-.57,2.52,101.16,101.16,0,0,0-2,20.77c.75,18.52,5.25,36.92,7.91,56.74-.19-2.5-.4-5-.67-7.54-1.66-15.95-4.16-30.73-4.68-44.95a120.15,120.15,0,0,1,.84-20.79c.28-1.68.56-3.35.83-5s.78-3.28,1.16-4.92,1-3.15,1.46-4.73,1.25-3.08,1.86-4.63c5.47-12.22,14.46-23.07,25.45-31.58a86.57,86.57,0,0,1,18.17-10.64,80,80,0,0,1,20.76-6,14.89,14.89,0,0,1,1.9-.25,4.2,4.2,0,0,1,1,0c.17.12-.82.2-2.28.48l-5.23.92c-1.72.4-3.41.87-5.1,1.3a50.35,50.35,0,0,0-5,1.58l-2.44.85c-.81.31-1.59.68-2.38,1l-2.35,1a21.34,21.34,0,0,0-2.32,1.09l-4.52,2.38-4.32,2.68-1.07.68-1,.74-2,1.49A90.3,90.3,0,0,0,597.41,83.9a80,80,0,0,0-11.1,16.95,68.15,68.15,0,0,0-5.25,15.69c-.27,1.36-.45,2.74-.69,4.09l-.33,2-.2,2.07c-.12,1.38-.29,2.74-.37,4.11s-.11,2.77-.16,4.15a141.93,141.93,0,0,0,.65,16.6c.48,5.53,1.24,11.09,2,16.65-.67-5.7-1.31-11.33-1.68-16.85-.24-2.78-.32-5.51-.43-8.24-.07-1.37,0-2.71,0-4.07s0-2.71.06-4l.19-4c.08-1.33.26-2.63.39-4l.2-2c.06-.66.21-1.29.31-1.94l.65-3.88c.28-1.27.61-2.53.91-3.79l.46-1.9c.18-.62.39-1.21.59-1.81l.58-1.81a15.47,15.47,0,0,1,.66-1.79l1.48-3.54a80.14,80.14,0,0,1,8-13.4c.76-1.08,1.64-2.06,2.45-3.1l1.25-1.54c.42-.52.89-1,1.34-1.47l2.7-2.92,2.9-2.73,1.46-1.37L608,74.87l3.1-2.54L614.36,70,616,68.84l1.72-1,3.44-2.1,3.59-1.86,1.79-.93c.62-.28,1.24-.53,1.86-.8l3.73-1.59A41.74,41.74,0,0,1,636.91,59a4.64,4.64,0,0,1,1-.47,77,77,0,0,1,17-3.74,12.66,12.66,0,0,1,3.24-.1C658.71,54.81,658,54.88,656.72,55Zm-302,97.91-.24-.12.68.08,1.32,1Zm-6.18,9.15h0l-.78-.46ZM459.92,282.63c0-.94.09-2,.15-3s.24-2.14.49-3.28c.11-.56.2-1.11.32-1.68l.43-1.74c.24-1.14.66-2.34,1-3.51l.28-.89.33-1,.66-1.95c.45-1.3.93-2.57,1.4-3.84,1-2.53,2-5,3.2-7.59L472,245.8c1.36-3,2.73-6.38,3.92-9.76s2.2-6.83,3.09-10.2c.4-1.66.86-3.37,1.2-5l.54-2.48c.09-.43.19-.77.27-1.29l.25-1.46c-.25,2.05-.56,3.48-.84,5.15s-.66,3.29-1,4.93-.79,3.34-1.2,5-.91,3.37-1.47,5.06a138.22,138.22,0,0,1-6,14.36c-2,4.19-3.68,7.83-5.21,11.64-.76,1.9-1.5,3.81-2.18,5.77-.17.48-.37,1-.51,1.44l-.43,1.32c-.28.88-.6,1.77-.8,2.62A43.29,43.29,0,0,0,459.92,282.63ZM346.2,151.27a11.49,11.49,0,0,1,3.3,1.17,5.59,5.59,0,0,1,1.6-1,34.12,34.12,0,0,1,4.83-1.67c-.4-.36,0-.47.15-.61l.52-.37c-1.75.42-3.58.76-5.39,1.22C349.56,150.38,347.85,151,346.2,151.27Zm-9.65,8.11-.23-.07-.16-.81Zm.3,1.34.26-.06C337.2,160.94,337.07,160.91,336.85,160.72Zm2.43-.5a1.75,1.75,0,0,0-.5-.16Zm13.44,17.65-1.42-3.57,1.29,3.48Z"/><path d="M562.48,188.3l.58.19A1.39,1.39,0,0,1,562,189a11.88,11.88,0,0,0,7.89-1.33,18.09,18.09,0,0,0,5.88-5.05c1.45-.29,2.45-1.41,2.21-2.59s-1.63-1.9-3.15-1.65a4.46,4.46,0,0,1-1.07-.15,22.68,22.68,0,0,0-9-1.7l2.07.48a9.08,9.08,0,0,0-2.79.22l.57.53a8.29,8.29,0,0,0-5,.72,6.21,6.21,0,0,0-3.1,3.42c-.93,2.88,1.21,5.6,4.54,6.09Z"/><path d="M570.14,193.16c-1.82-.19-3.66-.52-5.49-.74l-.46-.27.87,1.71,0-.12c.72-2,2.82-3.4,4.79-4.57l.67-.51a1.47,1.47,0,0,0,.32-1.17,1.77,1.77,0,0,0-2.2-1.27l-1.24.25c-3.29-.1-7.87,1.6-8,5.17,0,.82.69,1.56,1.14,2.33a2.62,2.62,0,0,0,3.33,1.34,2.45,2.45,0,0,0,1.76-3l.81,0-.38.62c0-1.16,1.13-1.82,1.86-2.69l1.31-.78L567.25,187l-.61.62a2.39,2.39,0,0,1,.28.24,34.81,34.81,0,0,1-3.47,3.51L562,193.12a1.29,1.29,0,0,0,.9,1.71l1.1.26-.53-.2c1.1-.08,2.19-.22,3.28-.37s2.19-.2,3.28-.22a.68.68,0,0,0,.72-.55A.57.57,0,0,0,570.14,193.16Z"/><path d="M563.5,196.09a1.66,1.66,0,0,0-1.22,0l-.09.29.82.22C563.6,196.8,563.7,196.46,563.5,196.09Z"/><path d="M562.19,196.42l-.35-.09.29.19,0,0Z"/><path d="M671,186.13a193.68,193.68,0,0,1,26.64,11.51c.28.15.56.2.62.09s-.13-.3-.39-.43a190,190,0,0,0-26.64-11.6c-.32-.1-.6-.08-.67,0S670.7,186,671,186.13Z"/><path d="M727.18,228.51c-.21-.08-.27,0-.15.21a1.45,1.45,0,0,0,.57.46c.17.06.25,0,.14-.21A1.35,1.35,0,0,0,727.18,228.51Z"/><path d="M720.88,233.62a22.56,22.56,0,0,0-3-1.41,1.28,1.28,0,0,1-.45-.33c0,.18-.3.16-.7,0-7.73-3.47-15.83-7.1-24.12-9.66a1,1,0,0,1-.52.26A5.18,5.18,0,0,1,689,222l-.82-.44c-3.38-1.58-6.86-3-10.33-4.29a15.4,15.4,0,0,1-2.64-.29c-1.66-.08-3.28-.21-4.93-.26l-4.93-.19a.61.61,0,0,1,.19.56c-.17.44-1,.65-1.84.5l-1.29-.18c1.2.32,2.42.59,3.61,1a2,2,0,0,1,.47.17c1.34.29,2.7.54,4.1.79,12.12,2.28,23.86,5,35.29,9.25a.89.89,0,0,1,.57.36c.06.13,0,.23-.24.16-7.63-2-14.69-2.18-22.92-3.35a145.81,145.81,0,0,0-14.57-1.28c-4.82-.12-9.58-.07-14.33.24a70.33,70.33,0,0,0-14.26.66,114.87,114.87,0,0,0-14,3.11L621,230c-1.67.58-3.33,1.08-5,1.66-5.59,2.17-10.88,4.26-16.1,6.71a4.18,4.18,0,0,1-4,.47,6.25,6.25,0,0,1-3.34-3.21,7.75,7.75,0,0,1-.28-6.14l-.73.29-1.28.11a4.83,4.83,0,0,1-3.49-1.27l-1.37-1.05c-2.14-2.21-4.9-3.67-7.09-6.11l-.25-1.18-.36-.21a5.89,5.89,0,0,1-2.71-2.24l-.51-1.34a13.88,13.88,0,0,1-.67-4.77,4.9,4.9,0,0,1-.47-1.71,6.78,6.78,0,0,1-2.24-4.12,1,1,0,0,1-.44-1.34,1.05,1.05,0,0,1,.41-.4,0,0,0,0,0,0,0,8,8,0,0,0-.86-.61c-.4,0-.64,0-.64,0l-2,.29a5.52,5.52,0,0,1-1.64-.62c-1.86-2-1.88-2-2.22-3.06,0-.12,0-.24,0-.36-.8-.07-.86-.07-1.08-.11a2.29,2.29,0,0,1-.49-.26c-.29-.53-.29-.53-.49-.68a2.28,2.28,0,0,1-.23-.4c.08-.74.08-.74,0-.92a1.61,1.61,0,0,1,.07-.38l.54-.55,1.58,1,0-.57.51.56-.39-.54.63.17-.77-.3a5.06,5.06,0,0,0,1.63-.43,2.09,2.09,0,0,0,.86-.44,2.12,2.12,0,0,1-.18-.3,25.7,25.7,0,0,1,2.54-.4,3,3,0,0,1,.44.29.55.55,0,0,1,.47-.41l.65-.12.1-.13,0,0,.4-.46.08-.11h0l1.75-2a5.52,5.52,0,0,1,1.14-.06l-.4-.17c-.27-.13-.29-.71-.42-.72a25.47,25.47,0,0,0-4.53.13c-1.52.15-3,.4-4.56.66a1,1,0,0,1-1.34-.26.82.82,0,0,1,.42-1.18c4.48-5,12.09-6.89,18.82-6.13,1.67-.16,3.34-.29,5-.41l-.3-.21,1.35.12h.14l-1.2-.73c-.25-.05-.49-.1-.74-.13a43,43,0,0,1-5.79.11c-2-.09-3.92-.25-5.9-.16s-4.18-.39-6.3-.44a.86.86,0,0,1-1.07-.53c-.09-.39.26-.8.75-.91,6-2.59,13.63-3.81,19.53-1.56a6.06,6.06,0,0,1,3.38.23h0c-.3-.23-.6-.44-.9-.66.91,0,1.52.61,2.37.74l-.55-1c4.37-.1,8.9-1,13.06.08a3.42,3.42,0,0,1,.46,0,24.85,24.85,0,0,1,2.41-1.24l.64-.26.17-.06.26-.06.52-.12a21.75,21.75,0,0,1,2.21-.32c-1-.05-2.11-.1-3.13-.11a26.85,26.85,0,0,1,6.77-1.11,38,38,0,0,1,5,.22c.83.09,1.66.2,2.47.33s1.61.33,2.38.52a30.43,30.43,0,0,1,4.23,1.38,14.75,14.75,0,0,1,3.18,1.88c3.06,0,6.12.26,9.17.45,1.53.12,3,.3,4.57.44l2.29.24,2.27.31c6.07.75,12.08,1.94,18,3.27.61.14,1.12.48,1.17.76s-.45.39-1.05.25a232.71,232.71,0,0,0-26.07-3.09c7.29,1.23,14.48,2.95,21.7,4.8.93.19,1.87.35,2.8.57a19.13,19.13,0,0,1,2.68.89,256.77,256.77,0,0,1,26.37,9.46A179.68,179.68,0,0,1,717,208.88,127.17,127.17,0,0,1,731,218a98.94,98.94,0,0,1,12.43,11.05c1.07,1.07,1.79,2.33,1.6,2.79s-1.22,0-2.28-1.09a137.58,137.58,0,0,0-13.55-11.08c-2.33-1.75-4.78-3.31-7.2-4.94l-3.71-2.3c-1.24-.78-2.5-1.51-3.77-2.22a231,231,0,0,0-32.34-15.12c-2.47-.93-4.91-1.85-7.39-2.64a.81.81,0,0,1,0,.27,1.14,1.14,0,0,1-.87.71c1.38.49,2.78.95,4.14,1.5l4.09,1.69a87.58,87.58,0,0,1,23.16,9.56,84.63,84.63,0,0,1,7.1,5c1.1.86,2.2,1.7,3.26,2.58l3.15,2.69a142.53,142.53,0,0,1,16.79,12.31,1.07,1.07,0,0,1,.41.54c0,.14-.15.11-.38-.06-1.92-1.46-4-2.78-5.95-4.22s-4.08-2.74-6.18-4.05c.45.72.58,1.32.27,1.65s-1,.32-1.94,0c.89.64,1.76,1.32,2.62,2,.52.43.84.9.69,1.07s-.69,0-1.19-.4c-1.74-1.41-3.59-2.66-5.39-4s-3.7-2.5-5.55-3.76c-4.71-2.59-9.44-5.08-14.36-7.22a3.29,3.29,0,0,1,.84,1.82h0l2.22,1.06a109.67,109.67,0,0,1,38,25.78c.22.21.35.44.29.51s-.29,0-.48-.23a112.49,112.49,0,0,0-10.4-9.5v0c.1.17.06.28-.14.2a1.34,1.34,0,0,1-.57-.46c-.12-.19,0-.27.14-.21a108.22,108.22,0,0,0-22-13.57A121.83,121.83,0,0,1,726.18,229l2.23,1.35a1.07,1.07,0,0,1,.42.52c0,.1-.2.07-.41-.06l-.62-.39c1.13,1,1.75,2,1.4,2.42s-1.65-.12-2.83-1.1c-3.25-2.47-6.59-4.81-10-7.06-.38-.22-.76-.45-1.15-.65l-1.27-.48a148.84,148.84,0,0,1,14.75,11.7c.41.35.66.76.55.91s-.54,0-.95-.36c-4.48-3.16-9.08-6.17-13.85-8.9s-9.66-5.24-14.68-7.47c-1.82-.39-3.68-.67-5.51-1s-3.72-.49-5.57-.72c.41.18.83.36,1.26.53,2.72,1,5.34,2.07,8,3s5.2,1.85,7.73,2.88,5.06,2.08,7.59,3.25a66.51,66.51,0,0,1,7.38,4.19c.25.15.4.36.37.46s-.25.06-.49-.11a67.51,67.51,0,0,0-7.23-4c-2.48-1.09-4.92-2.21-7.52-3.23-1.07-.43-2.12-.87-3.17-1.27l-3.15-1.11c-2.06-.75-4.18-1.27-6.24-1.81,8,3.12,15.86,6.08,23.34,10.49a1.94,1.94,0,0,1,.77.63.33.33,0,0,1,.26,0,31.38,31.38,0,0,1,3.2,1.5.86.86,0,0,1,.46.46C721.3,233.73,721.13,233.73,720.88,233.62ZM584,195.71l-.22-.14.64.17,1.14,1.07S584.76,196.27,584,195.71Zm-7.39,7.7h0l-.69-.57Zm72.7-18.25c-2.59-.43-5.17-.72-7.75-1.2s-5.17-.87-7.78-1.34c1.28,0,2.55,0,3.82.06C641.52,183.31,645.42,184.16,649.29,185.16ZM576,192.74a12.32,12.32,0,0,1,3,1.68,4.82,4.82,0,0,1,1.68-.71c1.64-.36,3.26-.63,4.86-.82-.33-.39,0-.44.22-.55l.55-.26c-1.74.12-3.5.23-5.32.31C579.31,192.44,577.61,192.81,576,192.74Zm-10.63,5.85-.22-.11v-.8Zm0,1.35h.27C565.71,200.23,565.59,200.16,565.4,199.94Zm2.46,0a1.42,1.42,0,0,0-.46-.25Zm10,19.48-.75-3.72.63,3.61Z"/></svg>