<svg id="Layer_1" data-name="Layer 1" xmlns="http://www.w3.org/2000/svg" viewBox="0 0 1080 502.98"><path d="M468.43,78.83l.59,0a1.29,1.29,0,0,1-.85.8,10.49,10.49,0,0,0,6.83-3.4,16.32,16.32,0,0,0,3.93-6.41,2.46,2.46,0,0,0,1.2-3.18A2.39,2.39,0,0,0,476.8,66a4.34,4.34,0,0,1-1,.15,22,22,0,0,0-8.7.79l2.05-.07a7.17,7.17,0,0,0-2.49.94l.67.35c-3.28.38-6.12,3.16-6.17,6.13s2.63,5,5.84,4.64Z"/><path d="M476.81,81.41c-1.73.31-3.47.55-5.24.79l-.5-.15,1.27,1.41,0-.11c.13-2.09,1.61-4,3.09-5.68l.48-.66a1.49,1.49,0,0,0,0-1.19,1.76,1.76,0,0,0-2.41-.65c-.36.18-.71.38-1.06.57-3,.88-6.74,3.62-5.93,7.05.2.79,1.06,1.32,1.69,1.93a2.51,2.51,0,0,0,3.44.44,2.38,2.38,0,0,0,.82-3.29l.75-.24c-.06.23-.12.46-.17.7-.37-1.09.51-2.07.92-3.11l1-1.11-2.44-1.8-.37.76c.12.06.32.14.32.15a25.81,25.81,0,0,1-2.18,4.29l-.89,2a1.29,1.29,0,0,0,1.29,1.39l1.09,0-.55-.05c2-.7,3.92-1.67,5.9-2.31a.66.66,0,0,0,.5-.73A.54.54,0,0,0,476.81,81.41Z"/><path d="M471.5,86a1.58,1.58,0,0,0-1.13.35v.3h.82C471.78,86.62,471.78,86.27,471.5,86Z"/><path d="M470.37,86.62H470l.32.1,0,0Z"/><path d="M622.29,36.78c1.13.11,2.26.18,3.38.32l3.35.43,6.69.86,6.64,1.1,3.31.55,3.29.67,6.58,1.34,6.5,1.58,3.25.78c1.08.28,2.15.6,3.22.89l6.41,1.81c.58.15,1.08.22,1.14.11s-.36-.35-.89-.49l-6.43-1.82-3.22-.9-3.24-.79-6.51-1.59-6.56-1.35-3.29-.68L642.6,39,636,37.93c-2.22-.32-4.46-.58-6.69-.87s-4.47-.6-6.73-.76a1.87,1.87,0,0,0-1.2.15C621.31,36.59,621.73,36.73,622.29,36.78Z"/><path d="M742,86.91c-.39-.13-.42,0-.1.23a4.64,4.64,0,0,0,1.22.68c.32.11.37,0,.09-.23A4.47,4.47,0,0,0,742,86.91Z"/><path d="M735,92.13c-1.06-.48-2.08-.95-3.08-1.36s-2-.75-2.92-1a5.17,5.17,0,0,1-1-.49c.05.21-.42.15-1.19-.15A321.52,321.52,0,0,0,678.42,74a1.69,1.69,0,0,1-.82.27,17.06,17.06,0,0,1-6-.77L669.89,73c-1.78-.5-3.59-.88-5.38-1.33s-3.58-.9-5.39-1.25l-5.42-1.09-2.7-.55-2.72-.46a40.76,40.76,0,0,1-5.16-.18c-3.19,0-6.39.11-9.57.14l-9.61.45c.39.17.63.36.61.56s-.48.42-1.09.56a9.74,9.74,0,0,1-2.26.25l-2.6,0c2.48.11,5,.13,7.44.4a9.16,9.16,0,0,1,1,.11c2.73.12,5.49.12,8.3.34A288,288,0,0,1,706.06,83a3.9,3.9,0,0,1,1.23.54c.17.17.09.27-.34.15C692.3,80.07,679.21,79,662.9,77.4a221.48,221.48,0,0,0-57.2,1.86A147.59,147.59,0,0,0,577.43,85,167.29,167.29,0,0,0,550.85,95.7c-1.5.67-2.91,1.52-4.35,2.26l-4.28,2.28-4.12,2.45c-1.37.82-2.76,1.56-4.05,2.46l-1,.65-.49.32-.18.13-.63.47-1.27.93c-.83.62-1.71,1.17-2.5,1.83q-2.44,1.89-4.93,3.67c-1.64,1.2-3.19,2.53-4.81,3.76a5,5,0,0,1-4,1.47,6.53,6.53,0,0,1-4.22-2.21,7.44,7.44,0,0,1-1.92-5.79l-.65.46-1.25.43a5.16,5.16,0,0,1-3.8-.3l-1.65-.68c-2.72-1.59-5.74-2.19-8.48-4l-.55-1-.4-.11a5.94,5.94,0,0,1-3.2-1.45l-.84-1.15a13.48,13.48,0,0,1-1.88-4.36,4.91,4.91,0,0,1-.9-1.5,6.82,6.82,0,0,1-3.23-3.36,1,1,0,0,1-.77-1.16,1,1,0,0,1,.28-.49h0a9.81,9.81,0,0,0-1-.36c-.37.13-.6.19-.6.19-.93.42-.93.42-1.76.77a5.07,5.07,0,0,1-1.7-.18c-2.29-1.44-2.3-1.43-2.9-2.35,0-.11-.05-.23-.07-.34-.77.14-.82.14-1,.17a2.26,2.26,0,0,1-.53-.13c-.41-.43-.41-.43-.64-.52a3.2,3.2,0,0,1-.31-.32c-.12-.73-.12-.73-.24-.88a1.67,1.67,0,0,1,0-.38l.35-.66,1.74.58-.17-.53.62.41-.51-.42h.64l-.8-.09a4.65,4.65,0,0,0,1.4-.82,1.94,1.94,0,0,0,.68-.63,3.24,3.24,0,0,1-.25-.24c1.13-.55,1.13-.55,2.24-1.07a4.49,4.49,0,0,1,.48.16.55.55,0,0,1,.32-.52l.56-.29.06-.16,0,0c.09-.23.16-.38.23-.56l0-.12h0c.17-.38.39-1,1.08-2.35a7.48,7.48,0,0,1,1-.35c-.15,0-.28,0-.42-.06-.29,0-.47-.59-.59-.58-.72.14-1.43.32-2.13.53s-1.36.51-2,.8c-1.34.58-2.67,1.23-4,1.85a1,1,0,0,1-1.31.09.82.82,0,0,1,.06-1.23c2.7-6,9.14-9.76,15.48-11,1.51-.58,3-1.19,4.47-1.81l-.34-.11,1.28-.28.12-.05L489,67.46c-.24,0-.47.05-.71.09A29.17,29.17,0,0,1,483,69.26c-1.8.47-3.61.95-5.41,1.54s-3.91.8-5.9,1.27a.84.84,0,0,1-1.13-.24.8.8,0,0,1,.43-1,35.46,35.46,0,0,1,8.14-5.22,20.92,20.92,0,0,1,9.17-1.76,5.68,5.68,0,0,1,3.13-.8h0l-1-.36c.82-.26,1.58.14,2.39,0l-.83-.82c2-.67,3.93-1.58,5.88-2.38,1-.39,2-.76,2.95-1.05a14.45,14.45,0,0,1,3.06-.48,3.13,3.13,0,0,1,.44-.1,21.74,21.74,0,0,1,1.75-2c.16-.16.33-.31.5-.46l.14-.11.43-.25.87-.49a37.25,37.25,0,0,1,3.74-1.87c-.94.3-1.84.65-2.74,1l-2.65,1a1.64,1.64,0,0,1,.27-.17l.34-.21.67-.4,1.37-.8a31.09,31.09,0,0,1,2.8-1.48c1.91-.92,3.89-1.79,6-2.61,11.38-4.37,24.9-6.54,31.66-5.37A245.11,245.11,0,0,1,583,37.48a270.82,270.82,0,0,1,33.9-1.42,4.19,4.19,0,0,1,2.41.56c.12.27-.66.48-1.82.45a264.88,264.88,0,0,0-48.55,4.61,288.63,288.63,0,0,1,41.23-2c1.76,0,3.54-.07,5.33,0s3.51.22,5.24.42c17.69,1,34.16,4,51.53,8l2.77.64,2.7.72,5.31,1.41c1.76.45,3.47,1,5.19,1.52L693.36,54c3.39,1.07,6.74,2.28,10.16,3.44s6.81,2.57,10.35,3.93a281.15,281.15,0,0,1,27.91,13.11,244.79,244.79,0,0,1,25.84,16.33c2.25,1.62,4.13,3.43,4.13,4s-1.83-.29-4.09-1.88a310,310,0,0,0-27.75-16.69,317.47,317.47,0,0,0-29.49-13.56,298.84,298.84,0,0,0-31.18-10.52,314.58,314.58,0,0,0-33-7.38c-2.44-.45-4.88-.73-7.29-1.1l-3.62-.52c-1.21-.15-2.42-.26-3.62-.39a.63.63,0,0,1,.1.28c0,.36-.52.64-1.3.85l4.09.46c1.36.18,2.72.41,4.09.62l4.08.66,2,.34,2,.42a189.92,189.92,0,0,1,45.67,10.7A236.83,236.83,0,0,1,721.1,70.55a283.6,283.6,0,0,1,34.4,18.3,3.34,3.34,0,0,1,1,.79c.11.19-.18.1-.63-.16l-6-3.27-3-1.65-3-1.57-6.14-3.16-6.27-3c1.15,1,1.73,1.75,1.42,2.1s-1.5.2-3.16-.34l5.52,3c1.14.61,1.94,1.26,1.79,1.45s-1.11-.14-2.2-.71c-3.75-2-7.47-4-11.31-5.84-1.91-.91-3.79-1.9-5.73-2.76L712,71.08A295.24,295.24,0,0,0,683.1,61.2a7.06,7.06,0,0,1,2.44,2.12h0L690,64.71c27.69,7.64,54.5,21.06,78.43,38.55.48.34.82.67.78.76s-.46-.11-.88-.42c-3.65-2.59-7.26-5.22-11-7.61-1.88-1.21-3.71-2.49-5.63-3.61L746,88.93l0,0c.28.24.28.37-.09.23a5.24,5.24,0,0,1-1.2-.72c-.31-.28-.23-.35.09-.24a245.53,245.53,0,0,0-44.88-20.11,257.22,257.22,0,0,1,40.77,19.23c1.48.71,3,1.35,4.47,2.12a3.73,3.73,0,0,1,1,.75c.06.14-.28.06-.68-.16l-1.23-.63c2.41,1.51,4.07,3,3.76,3.43s-2.7-.52-5.22-2c-6.9-3.75-13.81-7.43-20.92-10.69l-2.34-1-2.42-.83A290.76,290.76,0,0,1,748.82,95.9c.89.52,1.57,1.1,1.49,1.26s-.87-.12-1.76-.64a298.88,298.88,0,0,0-28.59-14,285.83,285.83,0,0,0-30-11c-3.48-.62-7-1.09-10.47-1.63-3.53-.37-7-.81-10.6-1.1.87.19,1.74.42,2.61.64,11.11,2.62,21.43,5.17,31.57,8.26a196.48,196.48,0,0,1,30.21,11.69,2.06,2.06,0,0,1,.9.66c0,.12-.38,0-.88-.25a221.38,221.38,0,0,0-29.7-11.38l-6.34-2L691,74.84l-3.09-.79-3.1-.66c-2.06-.42-4.09-.85-6.12-1.23l6.07,1.61,3,.77,3,.87,6,1.7L702.7,79l3,1,2.94,1,5.86,2.11c1.95.76,3.87,1.56,5.82,2.35l2.91,1.2c1,.41,1.92.86,2.88,1.3a7.68,7.68,0,0,1,1.7,1,.71.71,0,0,1,.43.07,61.19,61.19,0,0,1,6.33,2.52,3.18,3.18,0,0,1,1.06.68C735.76,92.36,735.47,92.31,735,92.13Zm-244.61-12-.24-.09h.65l1.4.73Zm-4.67,9.44h0l-.82-.37Zm96.63-48.2-7.28.82c-1.21.11-2.41.29-3.62.46l-3.62.5c-4.84.55-9.62,1.44-14.49,2.06l6.93-1.67,2.74-.44,2.76-.33,5.51-.61c1.83-.23,3.68-.34,5.53-.45ZM482.11,79.47a12.5,12.5,0,0,1,3.28.8,5,5,0,0,1,1.34-1.16A27,27,0,0,1,491,77c-.44-.29-.09-.44,0-.59l.43-.4c-1.58.6-3.25,1.09-4.86,1.75A40.91,40.91,0,0,1,482.11,79.47Zm-8.22,8.41-.22,0-.23-.76Zm.42,1.27.25-.07C474.67,89.35,474.54,89.32,474.31,89.15Zm2.3-.61a1.48,1.48,0,0,0-.49-.12Zm14.73,16-1.71-3.36,1.57,3.29Z"/><path d="M643.43,89.5l-.57-.28c.12-.18.48-.2,1-.11a10.3,10.3,0,0,0-7.08-.49,9.44,9.44,0,0,0-2.45,1.16,7.19,7.19,0,0,0-1.62,1.49c-1.15.11-1.56.73-1.14,1.3a2.45,2.45,0,0,0,1.11.73,4.33,4.33,0,0,0,1.62.29,5.81,5.81,0,0,1,.89.2c.6.24,1.18.47,1.8.69l1.94.66,2,.66c.69.22,1.4.43,2.12.67-.64-.29-1.29-.57-1.91-.82a19.86,19.86,0,0,0,2.44.62l-.58-.48c3.13,1.3,6.4,1.69,7.06.21s-1.78-4.52-5.11-5.89Z"/><path d="M635.69,84.94a25.36,25.36,0,0,1,2.57.46c.86.19,1.73.4,2.61.67l.47.28-1-1.41,0,.09c-.41,1.37-2.21,2-3.77,2.64l-.53.27a.64.64,0,0,0-.11.73,2.57,2.57,0,0,0,2.16,1.06l1.07,0c.71.12,1.55.23,2.36.3a12.1,12.1,0,0,0,2.27,0c1.42-.18,2.47-.7,2.34-2-.06-.61-.85-1.41-1.38-2.13a3.84,3.84,0,0,0-3.39-1.78c-1.31.1-1.86,1-1.33,1.92l-.75-.1.26-.4c.2.85-.8,1.17-1.36,1.68l-1.06.39,2.06,1.86.46-.32c-.11-.08-.29-.2-.29-.21a15.17,15.17,0,0,1,2.78-1.82l1.25-.94c.19-.47-.29-1.15-1.07-1.51l-1.1-.41.54.25a53.66,53.66,0,0,0-6.11-.31c-.31,0-.57.13-.56.36S635.37,84.91,635.69,84.94Z"/><path d="M641.56,83.52a2.24,2.24,0,0,0,1.19.21,2.11,2.11,0,0,0,0-.22l-.82-.33C641.39,82.94,641.33,83.2,641.56,83.52Z"/><path d="M642.8,83.51l.35.15-.3-.21,0,0Z"/><path d="M651.89,233.23c-1,24.83-2.15,49.81-3.7,74.78-.05.83,0,1.54.22,1.58s.33-.6.37-1.38c1.6-25,2.78-49.83,3.78-74.66a2.79,2.79,0,0,0-.31-1.64C652.06,231.86,651.91,232.45,651.89,233.23Z"/><path d="M629.23,419.46c-.06-.59-.16-.57-.26,0a10.75,10.75,0,0,0-.07,2.06c.05.5.17.48.26,0A10.43,10.43,0,0,0,629.23,419.46Z"/><path d="M621,414c-.28-3.5-.59-6.82-1-9.78a9.21,9.21,0,0,1,0-1.64c-.18.21-.38-.46-.51-1.72-2.62-24.85-4.51-51.57-6.25-77.89a2.49,2.49,0,0,1-.65-1.11,29.56,29.56,0,0,1-1.12-9.28l.11-2.86c.18-11.55.39-23.07.8-34.56a70.65,70.65,0,0,1-.62-8.05c-.91-9.95-1.72-19.93-2.25-30.14-.21.64-.46,1-.73,1-.63-.2-1.09-2.57-1-5.33,0-1.39.07-2.77.16-4.16-.46,4-.54,8-.8,11.95a14.75,14.75,0,0,1-.12,1.59c-.09,4.37-.09,8.79,0,13.28.42,39.22,4,76.09,7.74,112.67a7.61,7.61,0,0,1,0,2.07c-.1.36-.27.29-.36-.38-3.5-23.07-8.23-43.05-11-69.14-1.63-15.52-3-30.95-4-46.49-.26-3.88-.52-7.77-.71-11.67l-.3-5.86c-.1-2-.23-3.92-.21-5.88A57.34,57.34,0,0,1,603.35,207c4-8.29,9-16.37,12.8-24.51,1-2.08,1.82-4,2.71-6.34l.63-1.67c.24-.64.48-1.17.68-1.63.42-.91.82-1.69,1.13-2.48a15.64,15.64,0,0,0,1.21-9.44,13.17,13.17,0,0,0-1.75-4.35c-.44-.69-.94-1.4-1.61-2.35a19,19,0,0,1-2.19-4A16.26,16.26,0,0,1,615.9,145a17.24,17.24,0,0,1,.56-5.16,23.67,23.67,0,0,1,4-7.76,12.14,12.14,0,0,0,1-1.58l0-.06h0l.09.06.35.18a6,6,0,0,0,.73.32l.39.13a2,2,0,0,1,.2.08,2.79,2.79,0,0,0,.66.17s0,0,0,0h-.22l-.29,0-.21,0,.1,0c.06,0,0,0-.4.18l-.3.17-.36.24a3.72,3.72,0,0,0-.45.33l-.11.08h0a.68.68,0,0,0-.19-.3,1.72,1.72,0,0,0-.23-.26,14.83,14.83,0,0,0-1.14-1c-.79-.6-1.58-1.2-2.3-1.82a21.88,21.88,0,0,1-3.71-3.67,9.83,9.83,0,0,1-1.76-4.15,3.78,3.78,0,0,1-.13-1.21,10.21,10.21,0,0,1,0-1.24,10.38,10.38,0,0,1,.52-2.26,6.41,6.41,0,0,1,.64-1.38,7.22,7.22,0,0,1,.85-1.27c.16-.2.27-.42.46-.62l.61-.58a16.47,16.47,0,0,1,1.41-1.11c.25-.18.51-.36.8-.53a6,6,0,0,1,.87-.49c.66-.28,1.32-.56,2-.87,1.32-.56,2.83-1,4.2-1.41l2.08-.7c.42-.15.63-.25.93-.37a9,9,0,0,0,1.34-.69,1.64,1.64,0,0,0,.28-.24h0l.08.1c.19.24.46.52.59.7a5.27,5.27,0,0,0,.51.56l.28.26.2.2a3.13,3.13,0,0,0,.44.36,3.54,3.54,0,0,0,.34.25c.09.07.28.14.31.17l.2.09c.13,0,.19,0,.11,0a1.11,1.11,0,0,0-.34.11,2,2,0,0,0-.6.34,4.37,4.37,0,0,0-.86.62l-.19.18-.28.24a6.51,6.51,0,0,0-.54.51c-.17.18-.33.36-.49.55a2.28,2.28,0,0,1-.28.31c-.08.09,0,0-.06,0l-.09,0c-.11,0-.22,0-.38-.07-.65-.16-1.64-.4-2.72-.58-.56-.1-1.08-.2-1.75-.28l-2-.07c-.67-.05-1.37-.2-2.06-.3a76.82,76.82,0,0,1-8.85-1.95l-1.67-1a3.48,3.48,0,0,0-.43-.25l-.55-.2L607,106.8a7.92,7.92,0,0,1-1-.42l-.74-.56c-.49-.38-1-.75-1.44-1.13s-.93-.76-1.36-1.15l-.44-.39-.58-.52c-.79-.69-.48-1.59-1.35-2.26l-.5-.53a2.13,2.13,0,0,1-.43-.54l-.67-1.12L597.94,97c-.18-.38-.49-.79-.73-1.19-.64-.8.09-1.59-.74-2.49l-.37-.65a3.65,3.65,0,0,1,0-.66l.06-.65c0-.1,0-.23-.09-.35l-.15-.37c-.18-.49-.56-1-.31-1.44l.16-.68.09-.34a1.4,1.4,0,0,0-.07-.39c-.12-.52-.26-1-.36-1.58l.56-1.36.14-.34a1.67,1.67,0,0,0,0-.39l0-.8c0-.53,0-1.06,0-1.6l.1-1.61,0-.41c0-.14.13-.21.19-.32l.49-.61,1-1.22a9.8,9.8,0,0,0,.56-1.46l.52-1.48,0-.1,0,0a.53.53,0,0,0-.06-.1l-.26-.42-.13-.2c0-.06,0-.08,0-.11l.09-.2.34-.81.35-.8.27-.71.54-1.32c.35-.85.73-1.72,1.11-2.56.28-.69.6-1.36.92-2a17.62,17.62,0,0,1,1-1.81,12.47,12.47,0,0,1,2.07-2.62c1.34-1.28,2.7-1.68,3.68-.95,1.19.9,1.55,3.11,1.13,5.54.22-.33.43-.66.64-1,.4-.45.81-.93,1.2-1.35,1.15-1.18,2.36-1.94,3.46-1.87h1.43c2.32.53,5.1.33,7.47,1.74l.38,1,.37.05a3.76,3.76,0,0,1,2.85,1.17l.65,1.14a12.06,12.06,0,0,1,1.21,4.22,3.87,3.87,0,0,1,.66,1.41,5.63,5.63,0,0,1,2.63,3.22.79.79,0,0,1,.58,1.07.86.86,0,0,1-.34.37h0c.35.19.46.24.89.45a5.19,5.19,0,0,1,.61,0c1-.16,1-.15,1.83-.24a5.89,5.89,0,0,1,1.66.59c2,1.84,2.06,1.88,2.51,2.8,0,.1,0,.2,0,.29.78.17.85.2,1.07.26a3.51,3.51,0,0,1,.51.31c.34.49.34.49.56.66a4.24,4.24,0,0,1,.26.37c0,.6,0,.6.09.76a1.19,1.19,0,0,1,0,.29l-.47.33c-1.65-1.11-1.65-1.12-1.65-1.12l.08.46-.55-.53.44.49-.63-.24.78.37a4.51,4.51,0,0,0-1.54.07,1.75,1.75,0,0,0-.77.22l.21.25-2.33.07-.44-.24c0,.15-.16.26-.39.28l-.59,0-.06.1,0,0-.29.32-.06.07h0c-.21.21-.5.53-1.29,1.33-.34,0-.69,0-1,0l.37.1c.26.08.36.46.47.47,1.37.09,2.71.15,4.06.17s2.75.08,4.18.22a1.6,1.6,0,0,1,1.34.5c.3.37.17.7-.28.76a10.31,10.31,0,0,1-3.24,1.44,24.29,24.29,0,0,1-3.83.74c-2.7.31-5.47.42-8,.5-.56.08-1.14.21-1.68.33l-1.52.36.23.06c-.24,0-.61,0-.55.15v0h.2l.4.08h.46a17.26,17.26,0,0,1,3.89-.45c.76,0,1.46,0,2.24,0l2.38.12a15.79,15.79,0,0,1,2.68.36l2.76.61a1.37,1.37,0,0,1,1,.54c.14.26-.1.44-.53.4-1.25.14-2.45.16-3.76.24-.64,0-1.24,0-1.89,0l-1,0h-.89c-1.26,0-2.39-.08-3.51-.12L627.25,93a3.49,3.49,0,0,1-.37-.07c-.09,0-.28-.06-.31-.05l-.1.06a1.6,1.6,0,0,1-.85.31h0l.49.08c-.17.11-.6,0-.81.14l.62.2a1.53,1.53,0,0,0-.47,1.3c0,.47.22.84.25,1.2a.25.25,0,0,1,0,.08c.35.12.69.21,1,.3l.22.06,0,0,.17.09.35.16c.46.21.92.39,1.39.59a15.1,15.1,0,0,1-1.67-.91c.64.3,1.35.56,2,.79l.23.08.13,0,.06,0,.12.08,2,1.3c.69.46,1.38.9,2.14,1.46a22,22,0,0,1,2.48,2l.47.44c.16.16.34.36.5.55a10.63,10.63,0,0,1,1,1.36,6.6,6.6,0,0,1,.5.93,5.38,5.38,0,0,1,.42,1.1,8.84,8.84,0,0,1,.28,1.26,10.29,10.29,0,0,1,0,1.36,7.57,7.57,0,0,1-1.79,4.32,9.85,9.85,0,0,1-2.31,2,23.93,23.93,0,0,1-3.64,1.78c-.51.21-1.22.47-1.15.46a2.15,2.15,0,0,0-.36.11,10.1,10.1,0,0,0-1.47.54,1.7,1.7,0,0,0-.62.51,1.62,1.62,0,0,1-.1.18,1.15,1.15,0,0,1,0,.19.75.75,0,0,0,.1.36,4.86,4.86,0,0,0,1,1l.28.24.14.13.07.07h0l0,0c-.05,0,0,0,0,0l.17.14a15.24,15.24,0,0,1,2.66,2.62,12.28,12.28,0,0,1,2,3.71,11.8,11.8,0,0,1,.48,2c.06.7.1,1.39.09,2.06a15.11,15.11,0,0,1-.29,2,13.31,13.31,0,0,1-.58,1.72,11.8,11.8,0,0,1-.7,1.38c-.24.38-.48.75-.71,1.08a28.49,28.49,0,0,1-2.1,2.77c-.59.71-1.1,1.3-1.48,1.82a6.29,6.29,0,0,0-1.29,2.82,4.53,4.53,0,0,0,0,1.36,5.24,5.24,0,0,0,.63,1.7c.79,1.5,2,3.54,3,5.59a55.89,55.89,0,0,1,4.12,12.93c.43,2.24.7,4.55.94,6.72l.18,1.56c.08.53.16.84.27,1.32.19.9.43,1.79.65,2.67.51,1.91,1.05,3.85,1.67,5.77s1.29,3.89,2,5.84c1.39,3.88,3,7.81,4.42,11.7a98.86,98.86,0,0,1,6.27,23.36c.21,1.6,0,3-.29,3.31s-.71-.9-.89-2.5A98.86,98.86,0,0,0,647,209.82c-1.81-5.63-4-11.26-6-16.92-1-2.81-1.9-5.65-2.73-8.46-.4-1.39-.78-2.79-1.12-4.19l-.26-1.05-.22-1c-.15-.65-.29-1.31-.41-2-.26-1.15-.34-2.8-.52-4.39s-.37-3.23-.66-4.84a53.32,53.32,0,0,0-2.55-9.41,50.71,50.71,0,0,1,2.15,7.84,66.23,66.23,0,0,1,1,8c.05.66.09,1.28.15,1.86s.16,1.06.26,1.62c.2,1.12.39,2.15.65,3.38.51,2.36,1,4.7,1.71,7.1,2.51,9.54,5.88,19.2,7.53,28.89q.74,3.72,1.18,7.46a45.07,45.07,0,0,1,.24,7.33c-.1,12.38-.44,24.45-.7,36.58s-.52,24.33-.67,37c-.24,21.6-.67,40.49-1.64,62-1.42,30.2-4,57.7-9.73,87.51a44.11,44.11,0,0,1-2.06,8.09c-.35.48,0-2.4.64-6.38,2.48-15.54,4.13-31,5.39-46.52s2.1-31,2.73-46.59c1.27-31.18,1.81-62.73,2.85-95.24.21-7,.42-13.92.62-20.78a.66.66,0,0,1-.36.17c-.49,0-.93-.67-1.29-1.77q-.39,11.69-1,23.53c.5,21.93.65,43.9-1,67.27-1.16,16.06-2.9,30.58-4.53,45.42-.78,18.82-1.8,37.58-3.6,56.59a8.8,8.8,0,0,1-.28,1.81c-.1.28-.14-.13-.09-.9.85-13.07,1.38-26.46,1.76-40-.5,2.12-1,3.39-1.54,3.21s-.9-1.83-1.14-4.36l-.46,9.2c-.11,1.89-.38,3.38-.62,3.32s-.39-1.55-.31-3.35q.74-18.76,1.49-37.47c.14-15,.2-29.92.24-44.93a10.67,10.67,0,0,1-1.85,4.32h0c0,2.32,0,4.64-.08,6.95q.9,31.82.27,64.3t-2.9,65.28a8.24,8.24,0,0,1-.18,1.58,6.09,6.09,0,0,1,0-1.41q1.23-19.81,2-39.52v.06c-.08.53-.2.62-.24,0a11,11,0,0,1,.07-2.06c.09-.6.2-.55.25,0,.86-24.47,1.07-48.77.6-72.75q-.43,33.42-1.66,66.81c0,2.42.1,4.84.16,7.31a7.58,7.58,0,0,1-.19,1.81c-.08.19-.17-.3-.17-1l0-2c-.17,4.21-.65,7.45-1.12,7.38-.48-.24-.83-3.86-.78-8.24,0-11.72,0-23.39.08-35.07l-.1-3.79c-.1-1.28-.21-2.54-.31-3.81-.39,18.16-.74,36.28-.87,54.3a7.81,7.81,0,0,1-.27,2.89,7,7,0,0,1-.33-2.77c-1.09-31.76-2.38-63.92-3.13-96.21-1.38-10.62-2.86-21.26-4.34-32.11,0,1.37,0,2.75,0,4.13.17,17.55,1.45,33.79,2.69,49.88s2.47,32.05,3.07,49a4.09,4.09,0,0,1-.13,1.67c-.1.09-.22-.49-.25-1.35-.72-16.59-2.11-31.74-3.3-48.21-1-13.64-1.91-26.61-3.15-39.29.83,25.91,3,50.77,4.4,76.43a16,16,0,0,1,0,3,1.52,1.52,0,0,1,.18.63c.41,3.21.74,6.71,1,10.29a6.68,6.68,0,0,1-.05,1.9C621.22,415.21,621.1,414.79,621,414Zm2.5-329.2.2,0-.54.07-1.11-.27S622.75,84.71,623.51,84.83Zm4.86-6.89h0l.71.31Zm7.4,99.63c-.14-.8-.28-1.59-.36-2.35l-.2-2.71c-.14-1.89-.33-3.83-.65-5.73a49.36,49.36,0,0,0-3.1-11.05,48.19,48.19,0,0,0-2.48-5.1,13.31,13.31,0,0,1-1.74-3.74,4.31,4.31,0,0,1,0-1.35,6.67,6.67,0,0,1,.33-1.45,9.33,9.33,0,0,1,1.73-2.74,9.5,9.5,0,0,0-1.62,2.7,5.68,5.68,0,0,0-.27,2.67c0,1.12,1.68,3.53,3,6.15a49.18,49.18,0,0,1,3.09,8.12,52.17,52.17,0,0,1,1.62,8.6c.16,1.45.24,2.91.33,4.3,0,.66.07,1.37.14,1.9S635.67,177,635.77,177.57Zm-5.15-92.28a22.68,22.68,0,0,1-2.82-.73,5.08,5.08,0,0,1-1.26.7c-1.2.53-2.44,1-3.54,1.53.34.12.07.24,0,.34s-.24.19-.33.28c.61-.26,1.24-.5,1.88-.71s1.37-.42,2.05-.6,1.32-.34,2-.49A11.5,11.5,0,0,1,630.62,85.29Zm8.87-4,.22.12.09.63Zm-.21-1.08-.26,0C639,79.91,639.07,80,639.28,80.18ZM636.91,80a3,3,0,0,0,.46.22ZM625,64.73l1.18,3.19-1-3.13Z"/><path d="M316.07,210.59l.63,0a1.69,1.69,0,0,1-.93,1,15.75,15.75,0,0,0,7.72-4.37,39.58,39.58,0,0,0,3-3.46,25.46,25.46,0,0,0,2.31-3.77c1.51-.82,2.54-2.27,2.09-3.44s-2.19-1.48-3.88-.66a5.84,5.84,0,0,1-1.22.22,21.18,21.18,0,0,0-5,.28,25,25,0,0,0-2.64.59c-.85.26-1.71.56-2.58.89l2.33-.36a11.23,11.23,0,0,0-2.94,1.38l.72.3a10.15,10.15,0,0,0-5.13,2.87,7.87,7.87,0,0,0-2.23,4.77c-.16,3.28,2.77,5,6.24,4.16Z"/><path d="M325.1,212.54c-1.91.45-3.9.79-5.74,1.29l-.53-.1,1.33,1.36-.05-.12c.09-2.28,1.93-4.42,3.69-6.31l.56-.76a1.63,1.63,0,0,0,.06-1.31c-.35-.86-1.5-1.07-2.58-.46l-1.24.71c-3.53,1.13-7.58,4.76-6.73,8.3.21.82,1.13,1.26,1.8,1.83a2.63,2.63,0,0,0,3.66,0,2.76,2.76,0,0,0,.9-3.62c.27-.1.52-.23.79-.33l-.19.76c-.4-1.15.67-2.22,1.19-3.36l1.16-1.26-2.56-1.73-.49.84c.14.06.36.13.35.14-.43.83-.84,1.64-1.27,2.43a22.58,22.58,0,0,1-1.32,2.4l-1,2.29a1.21,1.21,0,0,0,1.38,1.32l1.16-.17h-.59c1.07-.49,2.1-1.05,3.13-1.59a28.31,28.31,0,0,1,3.26-1.4.8.8,0,0,0,.59-.79A.53.53,0,0,0,325.1,212.54Z"/><path d="M319.26,217.86a1.84,1.84,0,0,0-1.19.51v.31l.87-.09C319.56,218.52,319.56,218.14,319.26,217.86Z"/><path d="M318.07,218.68l-.37,0,.34.07,0-.06Z"/><path d="M447.25,334.32c9.43-8.39,16.22-22.24,20.1-37.17a137.08,137.08,0,0,0,3.87-23.29,204,204,0,0,0,.26-24.56,5.77,5.77,0,0,0-.33-2.15,4.19,4.19,0,0,0-.12,1.9,205.39,205.39,0,0,1-.25,24.52A137.65,137.65,0,0,1,467,296.74c-3.82,14.85-10.56,28.61-19.83,37a3.4,3.4,0,0,0-1.06,1.27C446.13,335.14,446.65,334.83,447.25,334.32Z"/><path d="M543.7,118.55c-.89.08-.85.19.07.25.39,0,.94,0,1.51,0s1.13.07,1.57.07c.74,0,.73-.13-.06-.26a10.76,10.76,0,0,0-1.6-.17C544.62,118.49,544.08,118.51,543.7,118.55Z"/><path d="M537,127.13l-3.15.8c-1,.31-2,.73-2.95,1.08-.48.19-1,.35-1.42.55l-1.33.68c-.87.47-1.74.87-2.53,1.35a15.08,15.08,0,0,1-1.81,1c.31,0-.37.55-1.69,1.41a55.26,55.26,0,0,0-4.65,3.62c-.74.67-1.53,1.25-2.23,2l-2.12,2.12a66.75,66.75,0,0,0-7.53,9.53c-1.19,1.66-2.13,3.5-3.19,5.26-.48.91-.93,1.84-1.4,2.76l-.69,1.38-.61,1.42a68.77,68.77,0,0,0-4,11.65l-.68,3c-.19,1-.34,2.07-.52,3.11-.39,2.06-.56,4.2-.8,6.31-.15,1-.16,2.13-.24,3.2s-.15,2.14-.18,3.22l-.06,3.26,0,1.63,0,1.64a261.08,261.08,0,0,0,2,26.8,4.87,4.87,0,0,1,.61,1.51,77.27,77.27,0,0,1,1.9,13l.24,4.1c.57,8.29,1,16.78.78,25.45a170.8,170.8,0,0,1-2.61,25.87c-.2,1.78-.37,3.7-.74,5.73-.17,1-.35,2.06-.54,3.13l-.71,3.26a122.29,122.29,0,0,1-6.62,22.42,103.88,103.88,0,0,1-5.21,11l-1.6,2.73-.8,1.36-.88,1.33-1.78,2.66L475.39,352c.8-.75,1.35-1.15,1.51-1s-.43,1.27-1.35,2.65a27.31,27.31,0,0,1-1.76,2.26,32.05,32.05,0,0,1-2.28,2.55L468.92,361c-.89.84-1.84,1.64-2.76,2.46a84.74,84.74,0,0,0,14.24-15.15c.57-.8,1.15-1.51,1.62-2.19a104,104,0,0,0,10-19.54c5.74-14.8,8.29-29.75,9.17-44.34a177.36,177.36,0,0,0-.08-21.64c-.43-7-1.17-13.86-2-20.49-1.61-13.28-3.44-25.84-4-38a121.34,121.34,0,0,1,.4-17.84l.21-2.18.32-2.15c.22-1.43.4-2.89.73-4.22l.43-2c.13-.69.37-1.36.54-2l.57-2c.19-.68.46-1.34.68-2a13.47,13.47,0,0,1,1-2.38c.28-.36.33-.24.07.55s-.53,1.7-.79,2.54c-.13.43-.27.84-.38,1.26l-.31,1.28c-.2.84-.4,1.68-.61,2.52s-.28,1.68-.43,2.51c-.33,1.62-.44,3.43-.64,5.15l-.14,1.29-.07,1.31-.13,2.62a137.78,137.78,0,0,0,1.11,21.38c.87,7.33,2.15,14.92,3.48,23.1s2.74,16.94,3.66,26.73c.16,1.45.27,2.92.37,4.4s.22,2.95.29,4.46l.19,4.52.07,4.53q0,9.09-.84,18.27a145.83,145.83,0,0,1-8.32,37c-1.17,3.09-2.46,6.17-3.93,9.24a101.28,101.28,0,0,1-4.93,9.16,91.88,91.88,0,0,1-13.45,17.27,76,76,0,0,1-19.14,14.15l-2.86,1.42c-1,.47-2,.85-3,1.27s-2,.82-3.08,1.18l-3.22,1-1.63.48c-.55.14-1.12.25-1.68.38-1.13.25-2.27.48-3.41.71s-2.33.33-3.5.47l-3.84.4A61.38,61.38,0,0,1,412.69,386a54.7,54.7,0,0,1-14.95-6.15,53.24,53.24,0,0,1-12.4-10.16,54.91,54.91,0,0,1-8.74-13.38,48.18,48.18,0,0,1-2.86-7c-.44-1.32-.77-2.58-1.12-3.87s-.6-2.51-.8-3.68a75.17,75.17,0,0,1-1.23-13.44,100,100,0,0,1,.66-11.88c.25-1.84.45-3.76.77-5.52l.46-2.7c.15-.91.3-1.62.46-2.45.59-3.18,1.31-6.43,2.07-9.64s1.62-6.35,2.36-9.13a83.8,83.8,0,0,0,2.73-13.35c.12-1.09.25-2.16.34-3.34s.2-2.33.28-3.54l.07-.9c0-.3,0-.44,0-.66l0-1.24c0-.4-.05-.74-.06-1.11a8,8,0,0,0-.08-1c-.05-.32-.09-.63-.11-1s-.13-.54-.18-.81a4.29,4.29,0,0,0-.19-.73,3.81,3.81,0,0,0-.21-.65,9.19,9.19,0,0,0-1.08-2.09,32.86,32.86,0,0,0-2.88-3.76c-.73-.84-1.55-1.75-2.53-2.76l-.73-.77-.19-.19-.08-.09,0,0-.14-.05a1.64,1.64,0,0,1-.46-.29c-.64-.19-1-.42-1.39-.29a.21.21,0,0,1-.12,0s-.12,0-.16.06a.49.49,0,0,1-.27,0,.85.85,0,0,1-.35.1c-.05,0-.09,0-.16,0l-.21.08a2.83,2.83,0,0,1-.42.06l-.26.1-.05,0-.16.1c-.11.08-.19.06-.33.19a3.1,3.1,0,0,1-.76.43c-1.09.64-2.46,1.3-4.09,2.25-.52.66-1.36.59-2.42,0a10.4,10.4,0,0,1-3.4-3,9.35,9.35,0,0,1-2.05-5.66l-.49.3-1,.16a5.25,5.25,0,0,1-3.26-.92l-1.48-.79c-2.51-1.74-5.43-2.66-8.16-4.4l-.6-1-.39-.1a6.26,6.26,0,0,1-3.16-1.4l-.88-1.12a13.11,13.11,0,0,1-2.07-4.31,5,5,0,0,1-1-1.49,6.76,6.76,0,0,1-3.33-3.26.93.93,0,0,1-.8-1.15A1.2,1.2,0,0,1,329,223h0a8.61,8.61,0,0,0-1-.3c-.38.17-.61.25-.61.25-.94.51-.95.51-1.79.93a5.17,5.17,0,0,1-1.76,0c-2.4-1.27-2.41-1.25-3.06-2.15,0-.11-.06-.23-.08-.34-.8.22-.86.24-1.09.29a2.53,2.53,0,0,1-.56-.07c-.43-.4-.43-.4-.68-.47a2,2,0,0,1-.33-.29c-.15-.75-.14-.76-.27-.9a2.17,2.17,0,0,1,0-.39l.37-.74,1.84.4-.18-.54.66.35-.54-.38.66-.06h-.84a5.79,5.79,0,0,0,1.48-1,2.51,2.51,0,0,0,.72-.75,1.69,1.69,0,0,1-.26-.22,20.05,20.05,0,0,1,2.4-1.33,3.59,3.59,0,0,1,.52.13.63.63,0,0,1,.38-.57l.62-.33.07-.16,0,0c.11-.24.2-.41.29-.6l.05-.13h0l1.3-2.59a6,6,0,0,1,1.14-.45l-.45,0c-.3,0-.46-.61-.59-.58a27.51,27.51,0,0,0-4.61,1.74c-.75.36-1.52.73-2.26,1.12L318.28,214a1.1,1.1,0,0,1-1.41.27.9.9,0,0,1,.09-1.33,19.86,19.86,0,0,1,1.32-2.44,17.76,17.76,0,0,1,1.77-2.22,25,25,0,0,1,4.41-3.84,33.81,33.81,0,0,1,5.35-2.75,19.2,19.2,0,0,1,2.87-.91c1-.25,1.94-.45,2.9-.61s1.83-.65,2.8-.92l2.9-.81-.37-.15,1.59-.19.16,0-1.47-.5-.88,0c-1.11.36-2.27.61-3.36.9s-2.18.55-3.28.8l-3.36.76c-1.1.28-2.16.62-3.24,1-2.3.81-4.7,1.08-6.9,1.87-.5.3-1,.25-1.24-.13s.08-.91.58-1.22c5.84-5,14.55-9,22-8a8.4,8.4,0,0,1,2.07-.53,7.5,7.5,0,0,1,2.07.07h.07l-1.15-.53c1.14-.13,1.92.35,3,.35-.22-.32-.47-.68-.7-1,1.38-.21,2.71-.55,4.14-.76s2.86-.43,4.28-.59l2.13-.21c.71,0,1.44,0,2.15,0a23.08,23.08,0,0,1,4.14.53,6,6,0,0,1,.61.05,22.24,22.24,0,0,1,3.46-1.13q.46-.12.93-.21a2.2,2.2,0,0,1,.29,0l1.5,0c.5,0,1,0,1.51,0l1.55.12c2.07.2,4.17.35,6.31.74s4.3.91,6.48,1.52c-1.46-.46-2.93-.83-4.41-1.21a36.46,36.46,0,0,0-4.43-.95c-1.48-.22-3-.43-4.45-.62l-1.13-.13-1.1-.06-1.94-.08h.91l1.2,0a19.83,19.83,0,0,1,2.42.1c1.62.11,3.25.26,4.88.43a23.57,23.57,0,0,1,2.45.4l2.46.5a37.83,37.83,0,0,1,4.89,1.27c1.62.53,3.23,1.1,4.85,1.7s3.15,1.45,4.71,2.23c.78.39,1.57.78,2.34,1.21l2.23,1.41c1.47,1,3,1.93,4.38,3,1.85,1.53,3.73,3.08,5.46,4.75s3.3,3.52,4.79,5.24c2.17,2.75,4.39,5.76,6.53,9.09a76,76,0,0,1,5.86,11.06A61.78,61.78,0,0,1,433,243.62c.45,2.07.7,4.1.93,6.09.11,1,.15,2,.21,2.92s.11,1.92.09,2.83c0,1.83,0,3.62-.2,5.28-.07.83-.15,1.65-.22,2.46s-.22,1.55-.33,2.3-.24,1.49-.36,2.21-.29,1.37-.44,2-.3,1.31-.45,1.95-.31,1.09-.46,1.63q-.46,1.53-.93,2.91c-.32.93-.65,1.81-1,2.62-.24,1.53-.58,3.13-.87,4.69s-.67,3.17-1.08,4.76c-.76,3.18-1.7,6.39-2.63,9.26-1.89,5.82-3.44,10.22-4.73,14.92-.31,1.18-.64,2.34-.93,3.54l-.45,1.8c-.15.61-.24,1.08-.37,1.64l-.35,1.59-.28,1.56c-.22,1.06-.32,2-.47,3.05a44.35,44.35,0,0,0-.35,5.53,21.72,21.72,0,0,0,.39,4.13,8.4,8.4,0,0,0,.35,1.25l.25.65.14.34,0,.05s-.08-.21-.05-.15v0l0,0,.09.16a5,5,0,0,0,.33.65,9.5,9.5,0,0,0,1.78,2.26,9.78,9.78,0,0,0,5.07,2.48,13.49,13.49,0,0,0,1.41.15c.48,0,.94-.05,1.41,0a7.81,7.81,0,0,1,.83-.09h.49a4.8,4.8,0,0,0,.5-.09,14.24,14.24,0,0,0,2.05-.4,27.67,27.67,0,0,0,8.82-4.09,10.72,10.72,0,0,1,1.73-1.09,3.3,3.3,0,0,1,1.11-.44c.14.05.06.29-.22.66a8.37,8.37,0,0,1-1.39,1.22,32.18,32.18,0,0,1-6.54,3.89,23.63,23.63,0,0,1-6.35,1.74l-.38,0-.31,0a1.79,1.79,0,0,1-.6.05,9.41,9.41,0,0,0-1.17.07,13.27,13.27,0,0,1-2.34-.24,11.12,11.12,0,0,1-4.4-1.86,11,11,0,0,1-3.26-3.61c-.11-.18-.18-.37-.28-.55l-.08-.14,0-.07v0h0l.05.12,0-.07-.3-.71a9.73,9.73,0,0,1-.4-1.11,16.52,16.52,0,0,1-.54-2.81,36.35,36.35,0,0,1,.09-8l.29-2.28.39-2.35c.33-1.61.61-3.11,1.07-4.95-.19.71-.43,1.51-.59,2.15l-.5,2c-.18.67-.28,1.31-.43,2s-.29,1.31-.38,1.93a45.51,45.51,0,0,0-.79,7.25,24,24,0,0,0,.45,5.51,8.08,8.08,0,0,0,.27,1l.15.4.14.36.05.12,0,.06c0,.09-.08-.2,0-.11l0,.06.22.53c.12.36.35.68.49,1s.37.68.61,1a12.71,12.71,0,0,0,7.52,5.16,18,18,0,0,0,2.33.38c.39,0,.79,0,1.19,0,.19,0,.39,0,.59,0l.63-.05a12.42,12.42,0,0,0,1.46-.09c.5-.08,1-.15,1.51-.21s1-.25,1.54-.35l.78-.17.79-.27a30.42,30.42,0,0,0,6.41-3.07c.52-.34,1.05-.66,1.58-1s1-.73,1.57-1.08,1-.74,1.56-1.14,1-.76,1.55-1.17a55.61,55.61,0,0,0,7-7.45c.52-.7,1.08-1.35,1.57-2.08l1.47-2.16c.93-1.51,1.91-3,2.75-4.63s1.67-3.24,2.49-4.88,1.53-3.37,2.17-5.13a99.13,99.13,0,0,0,3.56-10.77,132.14,132.14,0,0,0,4.06-23c.32-4,.53-8,.55-12,0-2,0-4.1-.07-6.17s-.13-4.18-.27-6.32c-.79-14.59-2.59-28.89-3.08-44a172.37,172.37,0,0,1,.67-23.34c.15-2,.49-4,.77-6.07s.7-4.1,1.11-6.17,1-4.2,1.54-6.35c.27-1.08.62-2.13,1-3.18l1.07-3.18a92.74,92.74,0,0,1,19.16-31.29c1.08-1.1,2.09-2.26,3.24-3.29l3.45-3.13a79.63,79.63,0,0,1,7.58-5.59A63.26,63.26,0,0,1,527.35,110a40.39,40.39,0,0,1,4.8-1.14l2.43-.48c.82-.13,1.66-.2,2.49-.29a39.71,39.71,0,0,1,5-.34h3.76l1.25.1a58.4,58.4,0,0,1,19.14,4.54,70.32,70.32,0,0,1,16.35,9.74c1.2,1,2.46,2,3.59,3l3.39,3.2c2.11,2.23,4.25,4.48,6.12,6.9l1.51,1.88c.48.63.9,1.27,1.32,1.88.83,1.23,1.6,2.37,2.22,3.4a17.09,17.09,0,0,1,1.87,4c0,.9-2.6-2.87-6.46-7.95a87.65,87.65,0,0,0-13.25-13.59,69.49,69.49,0,0,0-16.74-10.2,58.36,58.36,0,0,0-19.8-4.56c-1.72-.08-3.45,0-5.17,0s-3.44.31-5.15.49a58.11,58.11,0,0,0-9.93,2.35A65.6,65.6,0,0,0,508.41,122a79.91,79.91,0,0,0-14,13.12,86.79,86.79,0,0,0-10.52,15.58,92.6,92.6,0,0,0-7.11,17.44c-.4,1.53-.85,3.08-1.2,4.6l-.92,4.52c-.34,1.51-.48,3-.73,4.52s-.45,3-.57,4.51a158.32,158.32,0,0,0-.85,17.84c.07,11.74,1.08,23.09,1.93,34.18.43,5.53.8,11,1,16.41s.28,10.72.06,16a137.44,137.44,0,0,1-4.75,31.08,114.14,114.14,0,0,1-4.3,12.5,86.38,86.38,0,0,1-5.75,11.32c.14-.05.27-.09.35,0,.32.18.2,1-.25,2.34a99,99,0,0,0,11.82-27.21,143.34,143.34,0,0,0,3.21-21.31,181.54,181.54,0,0,0,.28-22.05c-.59-15.07-2.54-31-2.69-48.24a174.47,174.47,0,0,1,.76-17.62c.12-1.45.35-2.91.53-4.36l.28-2.16c.11-.72.25-1.44.38-2.16.26-1.44.5-2.87.79-4.29s.68-2.84,1-4.25a88,88,0,0,1,6-16.51A94.1,94.1,0,0,1,492.4,143a79.19,79.19,0,0,1,15.07-16.21,62.47,62.47,0,0,1,20-10.94,53.07,53.07,0,0,1,23.35-2.11,58.94,58.94,0,0,1,21.8,7.91,10.6,10.6,0,0,1,2.41,1.67c.3.32-.28,0-1.31-.64a65.54,65.54,0,0,0-14.55-6.42A52,52,0,0,0,543,114.18l-2.06.06c-.69,0-1.37.14-2.05.21l-2.06.25-1,.13-1,.21-4,.9c-1.31.35-2.59.82-3.89,1.24a58.12,58.12,0,0,0-14.34,7.39,26.6,26.6,0,0,1,3.59-1.63c.88-.25,1.37-.26,1.36,0s-.54.76-1.4,1.56-2.11,1.81-3.63,3l2.94-1.9,1.47-1,1.56-.83c1-.54,2.06-1.1,3.11-1.63l3.26-1.36a18.33,18.33,0,0,1,3.52-1.11c.9-.2,1.46-.27,1.45-.15s-.53.41-1.38.76-2.06.73-3.3,1.3L521.84,123l-3.12,1.65c-.51.28-1.05.54-1.55.85l-1.48,1c-1,.65-2,1.25-2.93,1.94a69.73,69.73,0,0,0-5.45,4.39c-.85.79-1.77,1.52-2.57,2.36l-2.42,2.5a78.16,78.16,0,0,0-8.51,11,82,82,0,0,0-6.57,12.17,77.54,77.54,0,0,0-4.83,15.9,111.9,111.9,0,0,0-2,16.23l-.19,4.06-.05,4.05c0,1.35,0,2.69,0,4s0,2.69.1,4c.2,5.36.56,10.69,1,16a23.23,23.23,0,0,1,.89-6.24h0c-.09-1.65-.19-3.29-.28-4.94s-.14-3.29-.2-4.93a151.73,151.73,0,0,1,.36-22.84c.2-1.92.48-3.83.72-5.74s.7-3.82,1-5.73.91-3.81,1.46-5.69l.9-2.81.46-1.4.54-1.37a83.93,83.93,0,0,1,11.41-20.62,70.33,70.33,0,0,1,17.46-16.31l1.26-.83c.44-.26.89-.5,1.33-.74l2.68-1.46c.89-.5,1.86-.84,2.79-1.27S526,121.29,527,121l2.93-1,1.47-.46,1.51-.33,3-.63c1-.21,2.05-.26,3.08-.39a49.3,49.3,0,0,1,6.2-.25c1,0,2.06.16,3.1.24l1.54.13c.52.07,1,.18,1.53.26l3,.56,3,.82,1.48.42,1.45.54,2.88,1.1a65.49,65.49,0,0,1,20,13.8,87.34,87.34,0,0,1,14.26,19.29,7.51,7.51,0,0,1,1,2.09,6.56,6.56,0,0,1-1.16-1.72l-1.76-3.15-1.94-3-1-1.52-1.07-1.46-2.13-2.92a82.11,82.11,0,0,0-9.94-10.58,67.7,67.7,0,0,0-12-8.36,55.8,55.8,0,0,0-13.84-5.09l.07,0c.78.21.89.35,0,.26a27,27,0,0,1-3-.56c-.89-.23-.79-.33,0-.26a49.29,49.29,0,0,0-13.83,0c-1.14.18-2.26.46-3.39.68l-1.68.36c-.56.13-1.1.34-1.65.51l-3.28,1c-1.06.43-2.1.9-3.15,1.35l-1.57.68-1.5.81-3,1.65-2.82,1.87c-.47.32-1,.62-1.41.95l-1.33,1c-.88.7-1.77,1.39-2.64,2.1l-2.47,2.28c-.41.38-.83.75-1.23,1.14l-1.15,1.22L502.22,139l-2.12,2.58L499,142.82l-1,1.35-1.93,2.7-1.77,2.81c-1.22,1.84-2.18,3.84-3.25,5.76-.51,1-.95,2-1.42,3s-.94,2-1.32,3l-1.2,3.07c-.4,1-.69,2.08-1,3.13-.73,2.07-1.19,4.23-1.74,6.35s-.84,4.27-1.2,6.41-.61,4.28-.77,6.43c.17-2,.55-4,.81-6s.77-3.94,1.15-5.91c.2-1,.51-2,.76-2.95s.48-2,.82-2.92c.67-1.91,1.24-3.86,2-5.71l1.15-2.8,1.31-2.74c.83-1.84,1.86-3.58,2.84-5.34.47-.9,1-1.74,1.58-2.59l1.64-2.55,1.8-2.44c.6-.81,1.17-1.65,1.84-2.41a68.64,68.64,0,0,1,18.22-16,50.82,50.82,0,0,1,23.3-7,43.85,43.85,0,0,1,5.38-.08l2.7.15,2.7.4c.49.08,1,.19,1.54.31a6.2,6.2,0,0,1,1.06.39c.24.18-.47,0-1.47-.14l-3-.45,2.2.44a14.39,14.39,0,0,1,2,.51c1.25.41,2.35.79,3.26,1.14,1.76.83,2.74,1.47,2.6,1.69-.53.43-5.4-1.29-11.53-2a47.92,47.92,0,0,0-12.32.24l-3,.65-1.51.32-1.46.48-2.94.94c-.95.39-1.88.81-2.83,1.22-7.55,3.27-14.09,8.52-19.66,14.51a23.94,23.94,0,0,0-1.72,2l-1.67,2.07c-1.05,1.45-2,3-2.95,4.45a70.84,70.84,0,0,1,12.77-14,55.26,55.26,0,0,1,16.21-9.48l4.48-1.38,4.58-.91c1.56-.12,3.1-.36,4.65-.39h3.49l1.16.11a47.11,47.11,0,0,1,17.75,5.1,14,14,0,0,1,2.4,1.39c.6.41,1,.71.94.8s-.43,0-1.06-.32c-.31-.14-.68-.32-1.09-.53l-.63-.34-.7-.32a46.38,46.38,0,0,0-15.37-4.41,42.61,42.61,0,0,0-15.77,1.41c-10.25,3-19.21,9.61-26.23,17.78a77.31,77.31,0,0,0-15.13,28.45l-1,3.91-.75,4c-.28,1.33-.42,2.69-.6,4s-.38,2.7-.47,4.08a142.41,142.41,0,0,0-.49,16.56c1.17,14.61,4.07,29.19,6.23,44.63-.12-2-.29-3.92-.44-5.89-.53-6.23-1.16-12.27-1.76-18.16s-1.1-11.62-1.44-17.26-.41-11.16-.22-16.6a103.94,103.94,0,0,1,1.88-16,68.64,68.64,0,0,1,4.91-15,74.81,74.81,0,0,1,8.18-13.81A60.38,60.38,0,0,1,517,134.69a48.12,48.12,0,0,1,14.46-7.78,5.47,5.47,0,0,1,2.13-.49c.07,0-.08.11-.37.22s-.72.3-1.26.48a46.75,46.75,0,0,0-14,7.38,62.64,62.64,0,0,0-11,11.08,73.41,73.41,0,0,0-13.49,28.26,93.64,93.64,0,0,0-2,13.14,130.28,130.28,0,0,0-.28,13.25,246,246,0,0,0,2.35,26.35c-.88-9-1.64-17.76-1.74-26.33a110,110,0,0,1,2.18-25l.69-3,.88-2.92a29.84,29.84,0,0,1,1-2.89c.37-.95.68-1.93,1.09-2.87.83-1.87,1.61-3.78,2.6-5.58s2-3.6,3-5.38a67.49,67.49,0,0,1,7.48-9.82c1.34-1.59,2.91-2.91,4.38-4.37l2.37-2c.41-.32.79-.66,1.2-1l1.27-.87a14.43,14.43,0,0,1,3.24-1.92,2.34,2.34,0,0,1,.63-.51l1.31-.84.66-.42.71-.35,2.89-1.45a40.83,40.83,0,0,1,6.32-2.14,8.4,8.4,0,0,1,2.38-.38C538.47,126.76,538,126.83,537,127.13ZM340,211l-.25-.1.7,0,1.37.85Zm-5.87,9.63h0l-.82-.36Zm79.72,114.41a27.39,27.39,0,0,1-.23-4.59c0-.82.1-1.73.14-2.59s.17-1.79.32-2.72a85,85,0,0,1,2.7-11.78c.6-2.08,1.24-4.12,2-6.17s1.45-4.11,2.28-6.35c1.65-4.38,3.57-9.79,5-15.12a150.09,150.09,0,0,1-4.2,15c-1.25,3.4-2.36,6.41-3.37,9.5-.51,1.54-1,3.09-1.45,4.66l-.68,2.37-.58,2.19a67.39,67.39,0,0,0-1.65,8.39A36.64,36.64,0,0,0,413.84,335.06ZM331,210.19a11.64,11.64,0,0,1,3.48.8,5.51,5.51,0,0,1,1.61-1.2,49.56,49.56,0,0,1,5.06-2c-.42-.34,0-.48.16-.63a4.31,4.31,0,0,1,.56-.39c-1.88.5-3.73,1.08-5.69,1.63a21.22,21.22,0,0,0-2.6.95A25.32,25.32,0,0,1,331,210.19Zm-9.22,9.42-.24,0-.24-.78Zm.44,1.28.26-.09C322.61,221.07,322.48,221.05,322.23,220.89Zm2.39-.86a1.62,1.62,0,0,0-.51-.08Zm15.22,15.58c-.61-1.08-1.21-2.18-1.8-3.28.54,1.08,1.09,2.15,1.66,3.21Z"/><path d="M473.11,244.54l.63.12a1.66,1.66,0,0,1-1.12.67,14.62,14.62,0,0,0,8.33-2.19,26.21,26.21,0,0,0,3.43-2.5,23.8,23.8,0,0,0,2.8-2.91c1.58-.35,2.66-1.53,2.43-2.65s-1.77-1.76-3.44-1.41a6.33,6.33,0,0,1-1.2-.1,25,25,0,0,0-9.93-.84l2.3.26a11.44,11.44,0,0,0-3.09.49l.65.46c-3.82-.25-7.87,2.11-8.65,5.13s1.69,5.37,5.25,5.4C472,244.49,472.56,244.5,473.11,244.54Z"/><path d="M481.47,248.44l-5.8-.1-.51-.22,1,1.58,0-.12c.65-2,2.71-3.74,4.8-5l.69-.56a1.41,1.41,0,0,0,.31-1.18c-.18-.87-1.25-1.33-2.4-1l-1.33.35a13,13,0,0,0-5.48,1.8,5.14,5.14,0,0,0-2.73,4.31c0,.81.86,1.45,1.39,2.15a2.72,2.72,0,0,0,3.57.87c1.39-.66,2.15-2,1.65-3.15l.85-.11-.35.66c-.13-1.13,1.06-1.95,1.78-2.89.44-.31.9-.59,1.36-.89l-2.14-2.2c-.22.22-.43.44-.63.67.12.09.32.19.31.21a32.61,32.61,0,0,1-3.48,3.86l-1.41,1.92a1.21,1.21,0,0,0,1.07,1.57l1.17.1-.57-.12,3.41-.74c1.14-.24,2.26-.48,3.39-.62a.74.74,0,0,0,.73-.59A.55.55,0,0,0,481.47,248.44Z"/><path d="M474.74,252.09a1.83,1.83,0,0,0-1.26.21l-.07.3.87.11C474.9,252.78,475,252.43,474.74,252.09Z"/><path d="M473.41,252.6l-.37,0,.32.15,0,0Z"/><path d="M563.64,247.42A136.26,136.26,0,0,1,579,258.66c.15.14.34.18.41.09s0-.27-.15-.39A132.63,132.63,0,0,0,563.9,247c-.19-.11-.39-.12-.46,0S563.47,247.31,563.64,247.42Z"/><path d="M591.24,284.12c-.14-.05-.21,0-.18.17a.58.58,0,0,0,.31.34.13.13,0,0,0,.18-.17A.55.55,0,0,0,591.24,284.12Z"/><path d="M584.75,288.55a9.35,9.35,0,0,0-1.85-1,.45.45,0,0,1-.24-.23c-.08.14-.29.15-.53,0-4.66-2.5-9.25-5.33-14.06-7.44a1.16,1.16,0,0,1-.44.24,2.13,2.13,0,0,1-1.88-.43l-.41-.38c-1.76-1.33-3.58-2.58-5.41-3.8a5.06,5.06,0,0,1-1.58-.3l-3-.34-3-.3a.69.69,0,0,1,0,.51,1,1,0,0,1-1.21.36l-.72-.21c.64.3,1.26.68,1.88,1a.84.84,0,0,1,.24.16l2.25.82A177.42,177.42,0,0,1,575.27,285a.39.39,0,0,1,.29.29.16.16,0,0,1-.23.14c-4.82-1.41-9.58-1.45-14.48-2.44a73,73,0,0,0-16.79-1.41c-.65-.12-1.29-.21-1.92-.3s-1.28-.07-1.91-.09a27.25,27.25,0,0,0-3.74.17,42.55,42.55,0,0,0-7.27,1.68c-1.77.55-3.45,1.15-5.06,1.76-2.21.87-4.31,1.69-6.32,2.7-1,.43-2,1-3,1.49s-1.94,1.06-2.87,1.7a2.77,2.77,0,0,1-1.47.69,2.68,2.68,0,0,1-1.58-.21,6.63,6.63,0,0,1-3-3,8.19,8.19,0,0,1-.8-5.87l-.61.27-1.08.15a4.36,4.36,0,0,1-3.14-1l-1.32-1a26.66,26.66,0,0,0-3.5-2.66,25.92,25.92,0,0,1-3.62-2.74l-.37-1.11-.36-.18a6.12,6.12,0,0,1-2.83-2l-.63-1.25a12.73,12.73,0,0,1-1.12-4.56,4.6,4.6,0,0,1-.62-1.61,6.62,6.62,0,0,1-2.6-3.81.9.9,0,0,1-.55-1.26,1.21,1.21,0,0,1,.38-.43h0c-.37-.22-.48-.28-.93-.51-.41.07-.65.09-.65.09-1.06.25-1,.28-2,.5a5.38,5.38,0,0,1-1.71-.4c-2.09-1.73-2.11-1.73-2.55-2.72a2.08,2.08,0,0,1,0-.35l-1.13,0a3.16,3.16,0,0,1-.53-.19c-.34-.48-.34-.48-.57-.6a2.27,2.27,0,0,1-.26-.36c0-.75,0-.75-.08-.92a1.42,1.42,0,0,1,0-.38c.32-.4.45-.55.51-.62l1.72.81L475,253l.57.48-.45-.48.66.09-.82-.2a5.8,5.8,0,0,0,1.65-.63,3,3,0,0,0,.86-.53c-.13-.16-.21-.28-.21-.28,1.33-.36,1.33-.36,2.63-.68a3.45,3.45,0,0,1,.47.24.61.61,0,0,1,.46-.47l.66-.19.1-.13,0,0c.16-.19.28-.32.4-.48l.08-.11h0l1.76-2.1a10.48,10.48,0,0,1,1.18-.17l-.42-.12c-.29-.1-.33-.66-.46-.67a27,27,0,0,0-4.78.56c-1.58.34-3.17.76-4.76,1.18a1.14,1.14,0,0,1-1.43-.08.84.84,0,0,1,.36-1.23,19,19,0,0,1,3.94-3.58,24.82,24.82,0,0,1,4.94-2.48,31.28,31.28,0,0,1,5.48-1.33,30.64,30.64,0,0,1,5.56-.21c1.82-.15,3.6-.4,5.41-.52l-.32-.2,1.46.11h.15l-1.27-.7-.8-.12a50.34,50.34,0,0,1-6.27.27c-2.08.06-4.26,0-6.39.21-2.31.21-4.53,0-6.83.13-.54.15-1.05,0-1.17-.42s.25-.8.78-.95a32.91,32.91,0,0,1,5.18-2.07,31.91,31.91,0,0,1,5.54-1.24,26.43,26.43,0,0,1,5.53-.22,19.35,19.35,0,0,1,5.11.95,7.16,7.16,0,0,1,3.69.25h.06l-1-.64a21.09,21.09,0,0,1,2.55.75l-.53-1c2.4,0,4.87-.11,7.28-.12a35,35,0,0,1,3.58.27c.59.07,1.17.16,1.74.28a16.12,16.12,0,0,1,1.68.48c.17,0,.33.06.5.09a17.31,17.31,0,0,1,3.69-1,11.73,11.73,0,0,1,2.09-.13l-2.11-.45h0a13.88,13.88,0,0,1,4.7-.27,20.14,20.14,0,0,1,6.59,2,11.78,11.78,0,0,1,4.59,3.78,103.9,103.9,0,0,1,23.4,7.37c.39.16.65.49.62.75s-.4.33-.78.17a151.06,151.06,0,0,0-16.74-4.86c4.63,1.86,9,4,13.43,6.13l1.72.72a8.6,8.6,0,0,1,1.6.94c5.5,2.88,10.31,6.12,15.51,9.43a142.71,142.71,0,0,1,12.23,8.82,68.58,68.58,0,0,1,14.44,15.34c.57.77.79,1.71.5,2.07s-1,.06-1.57-.69a114.93,114.93,0,0,0-15.65-15.54A215.3,215.3,0,0,0,569,256c-1.45-.89-2.85-1.83-4.31-2.67a1.09,1.09,0,0,1-.07.24,1.18,1.18,0,0,1-.77.6c1.64.95,3.17,2.1,4.71,3.2a45.74,45.74,0,0,1,13.37,8.75,56.8,56.8,0,0,1,6.78,8.41,94.73,94.73,0,0,1,9.18,9.29.46.46,0,0,1,.18.4c0,.11-.16.1-.29,0-2.26-2-4.55-4.09-6.93-6.09a1.35,1.35,0,0,1-.32,1.35,1.55,1.55,0,0,1-1.49.09c.46.51.94,1,1.38,1.53.27.33.36.7.2.84s-.53,0-.79-.27c-.94-1-1.9-2-2.85-3.06s-2-2-2.95-3c-1.28-1.07-2.65-2.05-4-3.07s-2.72-2-4.09-2.9a2.57,2.57,0,0,1,0,1.55h0l1.22.93a65.62,65.62,0,0,1,20.88,19.48c.12.15.15.32.08.38s-.23,0-.32-.15c-.86-1.19-1.72-2.36-2.61-3.52s-1.87-2.24-2.82-3.33h0c0,.13,0,.22-.17.17a.65.65,0,0,1-.31-.34c0-.15.06-.21.18-.17a63.41,63.41,0,0,0-12.23-10.43,71,71,0,0,1,10.44,10.29l1.35.94a.43.43,0,0,1,.16.39c0,.08-.18.07-.29,0s-.25-.18-.37-.27c.58.72.71,1.55.32,1.87s-1.23,0-1.86-.73c-.89-.9-1.78-1.79-2.66-2.69l-2.72-2.61-.65-.5-.78-.35a99.79,99.79,0,0,1,7.52,8.84c.22.25.29.55.16.68s-.43,0-.65-.22a126.37,126.37,0,0,0-15.93-12.43c-1.17-.29-2.31-.59-3.49-.81l-3.54-.62.68.47c1.48.94,3,1.72,4.5,2.51l4.54,2.26c1.53.75,3,1.61,4.47,2.48a37,37,0,0,1,4.2,3.11.31.31,0,0,1,.13.36c-.06.08-.21.06-.34-.07a34.74,34.74,0,0,0-4.16-2.92c-1.46-.83-2.91-1.64-4.42-2.46a45.07,45.07,0,0,0-7.43-3.34c4.44,2.6,9.11,4.9,13.28,8.19a.77.77,0,0,1,.37.48.27.27,0,0,1,.2,0,10.69,10.69,0,0,1,2,1.07.37.37,0,0,1,.2.35C585,288.62,584.9,288.63,584.75,288.55ZM495.94,250a1.79,1.79,0,0,0-.22-.13l.66.13,1.18,1Zm-7.29,7.95h0l-.73-.51ZM549.37,245c-1.64-.54-3.27-1.15-4.91-1.77s-3.27-1.3-4.93-2c.85.1,1.68.27,2.52.42A70.14,70.14,0,0,1,549.37,245Zm-61.8,2.55a12.5,12.5,0,0,1,3.17,1.42,5.31,5.31,0,0,1,1.75-.77,34.87,34.87,0,0,1,5.07-1c-.35-.38.05-.43.23-.53l.58-.27-2.77.21-2.81.28c-.85.09-1.74.2-2.61.34A21.52,21.52,0,0,1,487.57,247.53Zm-10.72,6.79-.22-.08-.08-.79Zm.18,1.32.27,0C477.36,255.89,477.24,255.84,477,255.64Zm2.51-.29a1.65,1.65,0,0,0-.49-.19Zm11.71,18-1.1-3.56,1,3.46Z"/><path d="M441,400.19l0,.26a.47.47,0,0,1-.43-.25c.63,2.37,3.21,3.24,5.43,3.08a1.1,1.1,0,0,0,1.49-1.61,1.62,1.62,0,0,1-.17-.41,8.26,8.26,0,0,0-1.17-3.5l.22.84a2.93,2.93,0,0,0-.64-.88l-.1.34a2.54,2.54,0,0,0-4.84,1.52Z"/><path d="M440.57,404.28c-.3-.74-.57-1.48-.82-2.23l0-.24-.54.76,0,0a4.41,4.41,0,0,1,2.85.55l.35.1A.81.81,0,0,0,443,403a.8.8,0,0,0,.06-1.14l-.35-.38c-.65-1.18-2.17-2.38-3.68-1.57a2.86,2.86,0,0,0-.75,1,1.12,1.12,0,0,0,1.67,1.48l.17.3-.34,0c.47-.31,1-.07,1.49,0l.59.26.6-1.35-.37-.05a1.34,1.34,0,0,1-.05.17,10,10,0,0,1-2.12-.34l-1-.11a.68.68,0,0,0-.53.76l.11.48,0-.25c.5.79,1.11,1.51,1.58,2.31a.28.28,0,0,0,.38.12A.27.27,0,0,0,440.57,404.28Z"/><path d="M438,402.53a.61.61,0,0,0-.26-.45l-.13,0c0,.1,0,.23.06.36S437.9,402.7,438,402.53Z"/><path d="M437.62,402.12l0-.16a1,1,0,0,0,0,.16h.05Z"/><path d="M462.72,418.25a38.24,38.24,0,0,0,2.89,3.07s.11,0,.16-.07.07-.14,0-.17a39.9,39.9,0,0,1-2.87-3.08s-.11,0-.17.06A.22.22,0,0,0,462.72,418.25Z"/><path d="M465.5,431.59a.26.26,0,0,0-.13.18c0,.06,0,.1.09.07a.29.29,0,0,0,.13-.18C465.61,431.59,465.56,431.56,465.5,431.59Z"/><path d="M461,436.92a1.8,1.8,0,0,0-.75.07c-.05,0-.07,0-.07-.06a.45.45,0,0,1-.28.21,15.52,15.52,0,0,1-4.83-.83,1.31,1.31,0,0,1-.25.22c-.3.22-.58.25-.7.07l-.07-.17c-.38-.56-.79-1.08-1.16-1.65a.82.82,0,0,1-.54,0,13.73,13.73,0,0,1-2.05-.08,1.07,1.07,0,0,1-.17.31c-.19.23-.44.33-.55.23l-.2-.12c.13.19.26.39.38.59a.3.3,0,0,1,0,.1,4.25,4.25,0,0,0,.59.43,15.23,15.23,0,0,0,6.66,1.63c.06,0,.09,0,.07.09s-.09.15-.15.16c-2,.44-4.08,1.37-5.85,1.29a31.17,31.17,0,0,1-5.95-.8c-1.46-1.13-3.26-1.59-5.09-2.31-.62-.24-1.2-.51-1.77-.79a1.84,1.84,0,0,1-.25-.14l-.38-.25-.77-.5-1.5-1c-2-1.36-3.9-2.79-5.85-4.26a3.32,3.32,0,0,1,1.36-6.17l-.34-.29-.42-.61a2.85,2.85,0,0,1-.47-2l.08-.91c.37-1.55.27-3.16.78-4.69l.44-.38v-.21a2.94,2.94,0,0,1,.32-1.72l.46-.52a6.82,6.82,0,0,1,1.87-1.38,2.48,2.48,0,0,1,.61-.6,3.45,3.45,0,0,1,1.24-1.92.48.48,0,0,1,.73-.43h0c0-.2,0-.26.07-.49l-.15-.25-.53-.72a2.33,2.33,0,0,1-.08-.8c.46-1.21.46-1.21.83-1.59l.15-.08a4,4,0,0,1-.16-.44,1.17,1.17,0,0,1,0-.25c.16-.24.16-.24.19-.35a1,1,0,0,1,.12-.18c.33-.15.33-.15.39-.22a.85.85,0,0,1,.17-.06l.34.07c-.12.84-.13.85-.13.85l.23-.15-.13.33.15-.28.05.28,0-.36c.33.4.33.4.5.51a.82.82,0,0,0,.35.22,1.1,1.1,0,0,1,.09-.14c.35.42.35.42.69.85l0,.24a.25.25,0,0,1,.27.07l.18.22h.08v0l.28,0h.06l1.19.12a4.68,4.68,0,0,1,.27.4c0-.06,0-.13,0-.19s.22-.3.2-.35a16.33,16.33,0,0,0-2.2-3.15.42.42,0,0,1-.15-.56.41.41,0,0,1,.57-.14,8.92,8.92,0,0,1,6.54,4.94c.45.54.92,1.05,1.39,1.57v-.17l.29.49,0,0v-.65c-.05-.1-.09-.19-.13-.29a25.59,25.59,0,0,1-2.71-4,22.35,22.35,0,0,1-1.16-2.29.37.37,0,0,1,0-.52.37.37,0,0,1,.52,0c2.28,1.32,4.43,3.4,5,6a2.11,2.11,0,0,1,.76,1.17l0,0,0-.51c.22.3.16.69.32,1l.26-.52c1.17,1.36,2.77,2.39,3.55,4a1.67,1.67,0,0,1,.12.16,9,9,0,0,1,2,.46c-.08-.14-.16-.27-.23-.41a1.4,1.4,0,0,1,1,.28,3.09,3.09,0,0,1,.38,3.37,49.57,49.57,0,0,0,4.53,2.64c.09,0,.08.18,0,.33s-.25.23-.33.19a16.43,16.43,0,0,1-3.69-1.38,14.82,14.82,0,0,0,2.14,2.46l.37.19a.77.77,0,0,1,.27.32,13,13,0,0,0,3.43,2.26,29.32,29.32,0,0,0,3.51,1.1,12.35,12.35,0,0,1,4.77,1.8c.21.09.18.46-.07.82s-.61.58-.82.48c-3.56-1.06-7.24-1.86-10-4.24l-.87-.77-.1.14a2,2,0,0,1-.47.45,8.65,8.65,0,0,1,.87,1,6.52,6.52,0,0,1,3.41,1.71,8.9,8.9,0,0,1,1.28,2.47c1,.43,2,.8,3,1.26.05,0,.06.07,0,.14a.21.21,0,0,1-.17.13,13.77,13.77,0,0,1-2.55-.33,2.48,2.48,0,0,1-.48.9,2.21,2.21,0,0,1-.8.65l.38.33c.08.08.05.25-.07.41s-.3.23-.37.17l-1.6-1.35c-.79-.33-1.56-.7-2.32-1.08a3.41,3.41,0,0,1-.39.9h0l.32.22a14,14,0,0,1,6.62,3.22s0,.11,0,.18-.13.11-.16.08a11.87,11.87,0,0,0-1.75-1.33h0a.25.25,0,0,1-.14.18.06.06,0,0,1-.09-.06.3.3,0,0,1,.13-.18A14.58,14.58,0,0,0,462,430a17.1,17.1,0,0,1,2.92,2.3l.53,0s.05.08,0,.16-.12.12-.16.11h-.15c.17.17.08.59-.22,1s-.69.54-.87.38c-.58-.33-1.12-.69-1.65-1.06l-.21-.07-.31,0c.68.77,1.34,1.57,2,2.38.07.05,0,.2-.06.33s-.24.21-.31.16a27.94,27.94,0,0,1-5.11-2.14l-2.75.64.17.16c1.54,1.19,4.12.57,5.87,1.39.05,0,0,.09,0,.16s-.12.12-.16.09a17,17,0,0,0-3-.46,15.43,15.43,0,0,0-2.55-.28c1.26.73,2.9.87,4.27,1.42.08,0,.1.08.08.17a.3.3,0,0,1,.1-.07,2.39,2.39,0,0,1,.78-.07c.05,0,.07.05,0,.13A.27.27,0,0,1,461,436.92Zm-18.28-26.78a.41.41,0,0,1,0-.12c0,.09,0,.18.08.28l-.14.76Zm-5-.65h0l.08-.43C437.81,409.24,437.79,409.37,437.76,409.49Zm21.05,8.75a4.62,4.62,0,0,1-1.42-1.86l.51.25C458.22,417.14,458.52,417.67,458.81,418.24ZM442,406.31a6.12,6.12,0,0,1,0,1.6,2.21,2.21,0,0,1,.69.41,19.82,19.82,0,0,1,1.52,1.52c.08-.24.19-.12.28-.09l.24.12c-.48-.6-1-1.21-1.43-1.83A16.72,16.72,0,0,1,442,406.31Zm-4.68-2.46v-.11l.33-.2Zm-.55.35,0,.11C436.73,404.39,436.73,404.33,436.79,404.2Zm.49,1a.68.68,0,0,0,0-.24Zm-6,8.83,1.41-1.19-1.4,1.12Z"/></svg>