<svg id="Layer_1" data-name="Layer 1" xmlns="http://www.w3.org/2000/svg" viewBox="0 0 1080 817.24"><path d="M567.37,564.82c.2,0,.41.11.61.16a1.59,1.59,0,0,1-1.12.61c5.91.77,11-3,14.07-6.83,1.47-.35,2.48-1.48,2.25-2.61s-1.67-1.87-3.21-1.53a4.74,4.74,0,0,1-1.11-.14,20,20,0,0,0-4.44-1.15,31.18,31.18,0,0,0-4.88-.21l2.16.4a10,10,0,0,0-2.91.31l.6.5c-3.6-.45-7.52,1.62-8.42,4.59s1.39,5.47,4.85,5.73Z"/><path d="M575.31,569.22c-1.86-.1-3.72-.27-5.62-.44l-.48-.26.93,1.65,0-.12c.71-2,2.78-3.55,4.8-4.72l.68-.52a1.41,1.41,0,0,0,.32-1.16,1.8,1.8,0,0,0-2.28-1.18l-1.27.28a12.47,12.47,0,0,0-5.33,1.46,5.08,5.08,0,0,0-2.83,4.13c0,.82.76,1.51,1.24,2.24a2.65,2.65,0,0,0,3.44,1.11,2.52,2.52,0,0,0,1.74-3.05l.83,0c-.13.21-.25.42-.37.63-.08-1.14,1.11-1.87,1.83-2.77.44-.28.88-.58,1.33-.83l-2-2.32-.62.65c.11.09.3.21.29.22a32.49,32.49,0,0,1-3.49,3.65L567,569.64a1.23,1.23,0,0,0,1,1.63l1.14.18-.55-.16c2.23-.33,4.47-.76,6.66-.93a.74.74,0,0,0,.73-.58A.57.57,0,0,0,575.31,569.22Z"/><path d="M568.62,572.47a1.76,1.76,0,0,0-1.25.13c0,.16-.07.25-.08.29l.84.17C568.74,573.18,568.83,572.83,568.62,572.47Z"/><path d="M567.29,572.89l-.35-.07.3.17,0,0Z"/><path d="M665.52,561.06q11.43,3.59,22.27,8.17c.24.1.47.1.52,0s-.12-.27-.34-.36c-7.23-3.09-14.63-5.83-22.27-8.24-.26-.07-.49,0-.55.09S665.28,561,665.52,561.06Z"/><path d="M714.39,592.91c-.19,0-.24.07-.11.23a.9.9,0,0,0,.52.29c.16,0,.22-.1.11-.23A.89.89,0,0,0,714.39,592.91Z"/><path d="M709.35,599.08a15,15,0,0,0-2.74-.64.89.89,0,0,1-.41-.21c0,.18-.26.23-.61.14-6.89-1.64-14-3.65-21.17-4.9a.93.93,0,0,1-.43.33,3.63,3.63,0,0,1-2.63-.06l-.71-.31c-2.94-1-5.91-2-8.88-2.9a9.26,9.26,0,0,1-2.23,0l-8.31.42a.61.61,0,0,1,.17.53c-.14.44-.81.68-1.53.59l-1.09-.08c1,.19,2,.44,3.05.7a1.57,1.57,0,0,1,.4.13l3.46.44c5.16.54,10.23,1.1,15.29,1.73,2.53.29,5,.68,7.57,1s5,.81,7.52,1.35a.72.72,0,0,1,.51.23c.06.12,0,.22-.2.2-6.65-.48-12.68.43-19.73.31a169.36,169.36,0,0,0-24.54,1.44c-8.21-.19-15.76,1.61-23.47,4-2.85.92-5.6,1.82-8.24,2.8-5.41,2.12-10.43,4.19-15.19,6.59a3.68,3.68,0,0,1-3.68.49,6.18,6.18,0,0,1-3.17-3.11,7.68,7.68,0,0,1-.47-6l-.68.28-1.2.11a4.59,4.59,0,0,1-3.31-1.16l-1.34-1c-2.14-2.18-4.79-3.47-7-5.79l-.29-1.14-.36-.2A6.17,6.17,0,0,1,581,593.3l-.56-1.3a13.11,13.11,0,0,1-.85-4.63,4.76,4.76,0,0,1-.53-1.65,6.79,6.79,0,0,1-2.38-4,.92.92,0,0,1-.47-1.3,1.1,1.1,0,0,1,.39-.41h0a7.66,7.66,0,0,0-.89-.57l-.65,0-1.94.38a5.12,5.12,0,0,1-1.67-.51c-1.95-1.87-2-1.86-2.36-2.89,0-.11,0-.23,0-.35a11,11,0,0,1-1.1,0,2.34,2.34,0,0,1-.51-.22c-.31-.51-.31-.51-.53-.64a3.37,3.37,0,0,1-.24-.38c.06-.75.06-.75,0-.92a1.57,1.57,0,0,1,.05-.37l.54-.59,1.63.92,0-.56.54.52-.42-.51.65.13-.79-.25a5.74,5.74,0,0,0,1.64-.53,2.52,2.52,0,0,0,.86-.48c-.12-.17-.19-.29-.19-.29,1.31-.28,1.31-.28,2.58-.51a3.81,3.81,0,0,1,.45.26.58.58,0,0,1,.47-.43l.65-.15.1-.13,0-.05.39-.47.08-.11h0c.28-.31.69-.77,1.76-2a9.41,9.41,0,0,1,1.15-.1l-.41-.15c-.27-.11-.3-.68-.42-.69a37.59,37.59,0,0,0-9.28,1.17,1.07,1.07,0,0,1-1.38-.16.84.84,0,0,1,.4-1.21,19.35,19.35,0,0,1,8.71-5.54,26.61,26.61,0,0,1,10.44-1.14c1.7-.17,3.38-.31,5.07-.45l-.31-.2,1.37.11h.14l-1.21-.71-.74-.12a46,46,0,0,1-5.87.17c-2-.08-4-.13-6,0-2.19.07-4.26-.2-6.46-.21a.89.89,0,0,1-1.11-.49c-.1-.38.26-.79.77-.91,6.2-2.86,14-4.11,19.94-1.94a6.16,6.16,0,0,1,3.41.24h.06l-.91-.64c.92,0,1.53.59,2.38.72l-.54-1c4.41-.1,9-.9,13.09.21a3.41,3.41,0,0,1,.46.05,13.08,13.08,0,0,1,5.73-1.84c-.88-.09-1.76-.12-2.62-.18a18.05,18.05,0,0,1,5.64-.89,23.32,23.32,0,0,1,4.15.3,30.13,30.13,0,0,1,4,.86,16.1,16.1,0,0,1,6.14,3.2,191.22,191.22,0,0,1,29.89,3.35c.5.08.92.37,1,.63s-.36.42-.87.33c-7-.79-14.21-1.53-21.44-1.84,6,1.1,11.92,2.44,17.87,3.77l2.3.41a12.59,12.59,0,0,1,2.23.64c7.55,1.82,14.51,4.08,22,6.3,6.41,1.93,11.94,3.85,18.16,6.29,8.7,3.46,16.47,7.24,24,12.74,1,.69,1.77,1.65,1.64,2.11s-1.06.29-2.08-.38a171.86,171.86,0,0,0-25.6-12.72c-8.86-3.6-18-6.64-27.57-9.68-2.07-.61-4.1-1.29-6.16-1.83a.76.76,0,0,1,0,.26,1.17,1.17,0,0,1-.71.77c2.32.63,4.6,1.47,6.88,2.28a76,76,0,0,1,19.61,6c2.22,1,4.24,2.27,6.22,3.43s3.84,2.45,5.71,3.75a148,148,0,0,1,15.25,7.68.76.76,0,0,1,.41.4c0,.12-.13.13-.34,0-3.6-1.65-7.3-3.28-11-4.85.42.59.57,1.13.33,1.5s-.87.52-1.65.42l2.38,1.32c.48.28.79.65.67.84s-.59.15-1.06-.1c-1.62-.88-3.22-1.77-4.88-2.58s-3.27-1.68-4.95-2.44c-4.1-1.64-8.27-3-12.47-4.42a2.94,2.94,0,0,1,.78,1.61h0l1.91.68a106.39,106.39,0,0,1,34.39,15.93c.22.14.35.32.3.4s-.25,0-.44-.09a112.83,112.83,0,0,0-9.85-6.12h0c.1.13.07.24-.11.22a1,1,0,0,1-.53-.29c-.12-.15,0-.24.11-.23A105.38,105.38,0,0,0,696,585.13a122.75,122.75,0,0,1,17.55,8.47l2,.72a.7.7,0,0,1,.4.37c0,.1-.17.12-.35,0l-.57-.21c1,.64,1.67,1.46,1.4,1.91s-1.44.28-2.54-.34c-1.5-.77-3-1.54-4.52-2.26s-3-1.48-4.56-2.16l-1-.37-1.11-.22c4.67,2.34,9.16,5,13.53,7.72.39.22.64.53.56.7s-.47.12-.86-.1a209.86,209.86,0,0,0-25.52-9.68l-4.71-.1-4.75.09,1.09.35c4.67,1.29,9.14,2.15,13.62,3.09a71.26,71.26,0,0,1,13.32,4c.22.08.37.24.35.34s-.21.11-.43,0a88.14,88.14,0,0,0-13.12-3.82c-1.87-.46-3.72-.83-5.51-1.19s-3.61-.58-5.39-.77c6.9,1.81,13.79,3.23,20.52,5.82a1.42,1.42,0,0,1,.71.44.26.26,0,0,1,.22,0,23.5,23.5,0,0,1,2.88.69.6.6,0,0,1,.43.33C709.71,599.1,709.56,599.13,709.35,599.08Zm-120.07-27.7-.21-.14.63.16,1.15,1ZM582,579.11h0l-.7-.55Zm65.67-17.8c-2.14-.27-4.26-.63-6.39-.95-1.07-.18-2.13-.37-3.2-.59s-2.14-.41-3.21-.65H638c1.63.31,3.24.65,4.86,1S646.07,560.91,647.67,561.31Zm-66.46,7.31a12.44,12.44,0,0,1,3,1.59,5.77,5.77,0,0,1,1.68-.74,42.77,42.77,0,0,1,4.88-.87c-.34-.38,0-.43.22-.54l.55-.26c-1.75.13-3.52.26-5.35.36A49.73,49.73,0,0,1,581.21,568.62Zm-10.64,6.22-.22-.1,0-.79S570.43,574.32,570.57,574.84Zm.11,1.32H571C571,576.43,570.87,576.38,570.68,576.16Zm2.47-.13a1.52,1.52,0,0,0-.46-.22Zm10.68,18.75-.89-3.62.77,3.52Z"/><path d="M507.24,659.46l.59,0c-.08.35-.4.6-.86.8a10.52,10.52,0,0,0,6.84-3.4,16.15,16.15,0,0,0,3.92-6.42,2.46,2.46,0,0,0,1.21-3.17,2.39,2.39,0,0,0-3.33-.65,4.31,4.31,0,0,1-1,.14,22,22,0,0,0-8.7.8l2-.07a7,7,0,0,0-2.48.94l.66.34c-3.27.38-6.11,3.17-6.16,6.13s2.63,5,5.84,4.65Z"/><path d="M515.62,662c-1.73.32-3.47.56-5.24.79l-.51-.14,1.28,1.41,0-.11c.13-2.09,1.61-4,3.09-5.69l.47-.65a1.45,1.45,0,0,0,0-1.19,1.76,1.76,0,0,0-2.41-.66c-.36.18-.71.39-1.06.58-3,.87-6.74,3.62-5.93,7,.2.78,1.06,1.31,1.69,1.93a2.51,2.51,0,0,0,3.44.43,2.38,2.38,0,0,0,.82-3.29l.74-.23c-.05.23-.11.46-.17.69-.36-1.09.52-2.06.93-3.1l1-1.11-2.44-1.81-.37.77.32.15a26.6,26.6,0,0,1-2.18,4.29l-.9,2a1.3,1.3,0,0,0,1.3,1.4l1.09,0-.55,0c2-.7,3.92-1.67,5.9-2.3a.67.67,0,0,0,.5-.73A.55.55,0,0,0,515.62,662Z"/><path d="M510.31,666.6a1.53,1.53,0,0,0-1.13.35v.29H510C510.59,667.25,510.59,666.9,510.31,666.6Z"/><path d="M509.18,667.24h-.35l.32.11c0-.05,0-.05,0-.05S509.18,667.3,509.18,667.24Z"/><path d="M661.1,617.41c1.13.11,2.26.18,3.37.32l3.35.42,6.69.87,6.65,1.1,3.31.55,3.29.67,6.57,1.34,6.51,1.57,3.25.79c1.08.27,2.14.6,3.22.89l6.41,1.81c.58.15,1.08.22,1.13.1s-.35-.35-.89-.48l-6.42-1.82-3.22-.9-3.24-.8-6.51-1.58L688,620.91l-3.29-.68-3.31-.56-6.64-1.11c-2.23-.32-4.46-.58-6.69-.88s-4.47-.59-6.73-.76a1.92,1.92,0,0,0-1.2.16C660.12,617.22,660.54,617.36,661.1,617.41Z"/><path d="M780.8,667.53c-.39-.13-.43,0-.1.24a4.74,4.74,0,0,0,1.21.68c.33.11.38,0,.1-.23A4.8,4.8,0,0,0,780.8,667.53Z"/><path d="M773.8,672.75c-1-.47-2.07-.94-3.07-1.35s-2-.75-2.93-1.06a4.78,4.78,0,0,1-1-.48c0,.21-.42.15-1.19-.15a321.52,321.52,0,0,0-48.42-15.07,1.7,1.7,0,0,1-.82.26,17,17,0,0,1-6-.76l-1.75-.55c-1.78-.5-3.59-.88-5.38-1.33s-3.58-.9-5.39-1.25l-5.42-1.1-2.7-.55-2.72-.45a39.09,39.09,0,0,1-5.16-.19c-3.19,0-6.39.12-9.58.15l-9.61.45c.4.16.63.36.62.55s-.48.43-1.09.57a9.85,9.85,0,0,1-2.26.24l-2.6.06c2.48.11,5,.13,7.43.4a9.07,9.07,0,0,1,1,.11c2.73.12,5.49.12,8.3.34a288,288,0,0,1,70.74,12.06,3.74,3.74,0,0,1,1.22.53c.18.17.09.27-.33.16-14.65-3.64-27.75-4.7-44-6.31a221.13,221.13,0,0,0-57.21,1.86,147.75,147.75,0,0,0-28.27,5.77,166.19,166.19,0,0,0-26.57,10.66c-1.5.67-2.91,1.52-4.36,2.27L581,680.87l-4.12,2.45c-1.37.81-2.76,1.56-4.06,2.46l-1,.65-.49.32-.18.13-.63.47-1.27.92c-.84.62-1.71,1.18-2.51,1.84-1.63,1.26-3.26,2.48-4.92,3.66s-3.19,2.53-4.81,3.77a5.1,5.1,0,0,1-4,1.47,6.57,6.57,0,0,1-4.22-2.21,7.46,7.46,0,0,1-1.92-5.8l-.65.46-1.25.44a5.16,5.16,0,0,1-3.8-.3l-1.65-.68c-2.72-1.59-5.74-2.2-8.48-3.95l-.55-1.06-.4-.1a6,6,0,0,1-3.21-1.45l-.83-1.15a13.57,13.57,0,0,1-1.88-4.36,4.72,4.72,0,0,1-.9-1.5A6.86,6.86,0,0,1,520.1,674a.94.94,0,0,1-.77-1.16,1,1,0,0,1,.27-.49h0a9.92,9.92,0,0,0-1-.35c-.37.13-.6.19-.6.19-.93.42-.93.42-1.76.76a5.31,5.31,0,0,1-1.71-.17c-2.28-1.44-2.29-1.44-2.89-2.35a2.29,2.29,0,0,1-.07-.34c-.77.13-.83.14-1,.16a2.58,2.58,0,0,1-.53-.12c-.41-.43-.41-.43-.64-.52a2.25,2.25,0,0,1-.31-.32c-.13-.73-.12-.74-.24-.88a2.1,2.1,0,0,1,0-.38l.36-.66,1.74.58-.17-.53.62.4-.51-.41h.63l-.79-.09a4.81,4.81,0,0,0,1.4-.82,1.93,1.93,0,0,0,.68-.64,2.42,2.42,0,0,1-.25-.23c1.13-.56,1.13-.56,2.24-1.07a3,3,0,0,1,.48.16.57.57,0,0,1,.32-.53l.56-.29a.88.88,0,0,0,0-.15l0,0,.24-.55,0-.12h0c.16-.38.39-.95,1.08-2.35a7.45,7.45,0,0,1,1-.36l-.42,0c-.28,0-.46-.6-.58-.58-.72.14-1.43.32-2.13.53s-1.36.51-2,.8c-1.34.57-2.66,1.22-4,1.85a1,1,0,0,1-1.31.09.82.82,0,0,1,.06-1.23c2.7-6,9.14-9.76,15.48-11,1.51-.58,3-1.19,4.47-1.81l-.34-.11,1.28-.28.12-.06-1.33-.35c-.24,0-.47,0-.71.09a29.17,29.17,0,0,1-5.29,1.71c-1.8.47-3.61.94-5.41,1.54s-3.91.8-5.9,1.27a.85.85,0,0,1-1.14-.24.8.8,0,0,1,.43-1.05,36.12,36.12,0,0,1,8.15-5.23,20.91,20.91,0,0,1,9.17-1.75,5.68,5.68,0,0,1,3.13-.8h0l-1-.36c.82-.26,1.58.14,2.39,0l-.83-.83c2-.66,3.93-1.58,5.88-2.37a30.57,30.57,0,0,1,2.95-1.05,13.65,13.65,0,0,1,3.06-.48,2.23,2.23,0,0,1,.43-.1,23.49,23.49,0,0,1,1.76-2l.49-.46a1,1,0,0,1,.15-.11l.43-.25.87-.49a38.2,38.2,0,0,1,3.73-1.88c-.93.3-1.83.66-2.73,1l-2.65,1s.17-.12.27-.18l.33-.2.68-.41,1.36-.79c.91-.54,1.85-1,2.81-1.48,1.91-.92,3.89-1.8,6-2.61,11.38-4.37,24.9-6.54,31.65-5.37a245.25,245.25,0,0,1,33.55-6.19,268.85,268.85,0,0,1,33.9-1.42,4.19,4.19,0,0,1,2.41.56c.11.26-.66.47-1.82.44a264.89,264.89,0,0,0-48.55,4.62,288.56,288.56,0,0,1,41.22-2c1.77,0,3.55-.07,5.33,0s3.51.23,5.25.43c17.69,1,34.15,4,51.53,8l2.77.63,2.7.72,5.31,1.42c1.76.44,3.47,1,5.18,1.51l5.12,1.56c3.4,1.08,6.75,2.29,10.17,3.44s6.81,2.58,10.34,3.93a282.57,282.57,0,0,1,27.92,13.12,244.2,244.2,0,0,1,25.84,16.33c2.25,1.62,4.12,3.43,4.13,4s-1.84-.29-4.09-1.89a311.29,311.29,0,0,0-27.75-16.68,317.55,317.55,0,0,0-29.49-13.57,301.15,301.15,0,0,0-31.18-10.51,312.27,312.27,0,0,0-33-7.39c-2.43-.44-4.87-.73-7.28-1.09l-3.62-.52c-1.21-.16-2.42-.26-3.63-.39a.43.43,0,0,1,.1.27c0,.36-.51.65-1.3.86l4.1.45c1.36.19,2.72.42,4.08.63l4.09.66,2,.33,2,.42a190.47,190.47,0,0,1,45.68,10.7,236,236,0,0,1,28.52,13.49,283,283,0,0,1,34.41,18.3,3.34,3.34,0,0,1,1,.79c.11.18-.18.1-.63-.17l-5.95-3.26-3-1.65-3.06-1.58-6.13-3.16-6.27-3c1.15,1,1.72,1.76,1.41,2.1s-1.5.21-3.15-.33l5.52,3c1.13.61,1.94,1.26,1.79,1.45s-1.12-.14-2.2-.71c-3.75-2-7.47-4-11.31-5.84-1.91-.92-3.79-1.9-5.73-2.76l-5.8-2.61a294.41,294.41,0,0,0-28.89-9.88,7,7,0,0,1,2.44,2.12h0l4.49,1.38c27.69,7.64,54.5,21.06,78.43,38.55.47.33.82.67.77.76s-.45-.12-.88-.42c-3.64-2.59-7.25-5.22-11-7.62-1.88-1.2-3.71-2.48-5.63-3.61l-5.73-3.44,0,0c.28.24.28.38-.1.24a5.4,5.4,0,0,1-1.19-.72c-.32-.28-.23-.36.09-.24a244.48,244.48,0,0,0-44.88-20.11A257.22,257.22,0,0,1,779.5,668c1.48.7,3,1.35,4.47,2.12a3.49,3.49,0,0,1,1,.75c.07.14-.27.06-.68-.16l-1.22-.64c2.41,1.52,4.06,3,3.75,3.44s-2.7-.52-5.21-2c-6.9-3.75-13.81-7.43-20.92-10.69l-2.34-1-2.42-.83a292.38,292.38,0,0,1,31.72,17.57c.89.53,1.57,1.1,1.49,1.27s-.87-.12-1.77-.64a295.3,295.3,0,0,0-28.58-14,288.87,288.87,0,0,0-30-11c-3.48-.62-7-1.1-10.47-1.63-3.53-.37-7-.81-10.6-1.1.87.19,1.74.42,2.61.64,11.11,2.61,21.43,5.17,31.57,8.25A197.57,197.57,0,0,1,772.1,670c.5.24.88.54.89.66s-.37,0-.87-.25a223.32,223.32,0,0,0-29.7-11.39l-6.34-1.94-6.28-1.65-3.09-.79-3.09-.66c-2.06-.43-4.1-.85-6.13-1.23l6.08,1.6,3,.78,3,.87,6,1.7,5.92,1.89,3,.94,2.93,1,5.87,2.11c1.94.76,3.87,1.55,5.81,2.34l2.92,1.2c1,.41,1.91.87,2.88,1.3a8.08,8.08,0,0,1,1.7,1,.76.76,0,0,1,.43.06,67.09,67.09,0,0,1,6.33,2.52,3.18,3.18,0,0,1,1.06.69C774.56,673,774.27,672.94,773.8,672.75Zm-244.6-12-.24-.08h.65l1.39.73Zm-4.67,9.45h0l-.81-.37ZM621.15,622l-7.27.82c-1.21.11-2.42.28-3.62.46l-3.62.5c-4.84.55-9.62,1.44-14.5,2.06l6.93-1.68,2.74-.44,2.76-.32,5.52-.61c1.83-.23,3.68-.35,5.53-.46ZM520.92,660.1a12.58,12.58,0,0,1,3.28.79,5.13,5.13,0,0,1,1.34-1.15,27,27,0,0,1,4.27-2.13c-.44-.3-.09-.45,0-.59l.43-.41c-1.58.61-3.25,1.1-4.86,1.76A40.91,40.91,0,0,1,520.92,660.1Zm-8.22,8.41-.23,0-.22-.76Zm.42,1.26.25-.06C513.48,670,513.35,669.94,513.12,669.77Zm2.3-.61a1.87,1.87,0,0,0-.49-.12Zm14.73,16-1.71-3.36,1.57,3.29Z"/><path d="M277.26,552.44l.63,0a1.69,1.69,0,0,1-.93,1,15.57,15.57,0,0,0,7.72-4.36,42.75,42.75,0,0,0,3-3.46,25.55,25.55,0,0,0,2.31-3.78c1.51-.82,2.54-2.27,2.09-3.44s-2.19-1.48-3.87-.66a5.33,5.33,0,0,1-1.23.22,20.69,20.69,0,0,0-5,.29,25,25,0,0,0-2.64.58c-.85.26-1.71.56-2.58.89l2.33-.36a11.38,11.38,0,0,0-2.94,1.38l.73.31a10,10,0,0,0-5.14,2.86,7.89,7.89,0,0,0-2.23,4.77c-.15,3.29,2.77,5,6.24,4.16Z"/><path d="M286.29,554.4c-1.9.44-3.89.78-5.74,1.28l-.53-.09,1.33,1.35-.05-.11c.1-2.29,1.93-4.43,3.69-6.32l.56-.76a1.61,1.61,0,0,0,.07-1.3c-.36-.87-1.51-1.08-2.59-.47l-1.23.71c-3.54,1.13-7.58,4.77-6.74,8.31.21.81,1.13,1.25,1.8,1.82a2.63,2.63,0,0,0,3.66,0,2.75,2.75,0,0,0,.9-3.61c.27-.11.52-.23.8-.33-.07.25-.14.5-.2.76-.4-1.15.67-2.23,1.19-3.37l1.16-1.25-2.56-1.74-.49.85.36.13c-.44.83-.85,1.65-1.28,2.44a23.61,23.61,0,0,1-1.32,2.4l-1,2.28a1.2,1.2,0,0,0,1.37,1.33l1.16-.18-.58,0c1.06-.5,2.1-1.06,3.13-1.6a30,30,0,0,1,3.25-1.39.82.82,0,0,0,.6-.8A.54.54,0,0,0,286.29,554.4Z"/><path d="M280.45,559.71a1.9,1.9,0,0,0-1.19.51v.32l.87-.1C280.75,560.37,280.75,560,280.45,559.71Z"/><path d="M279.26,560.54l-.37,0,.34.07,0-.06Z"/><path d="M408.44,676.17c9.43-8.39,16.22-22.24,20.1-37.16a138.38,138.38,0,0,0,3.88-23.3,206.16,206.16,0,0,0,.25-24.56,5.87,5.87,0,0,0-.33-2.15,4.22,4.22,0,0,0-.12,1.91,205.2,205.2,0,0,1-.25,24.51,137.77,137.77,0,0,1-3.83,23.18c-3.82,14.85-10.56,28.6-19.83,37a3.3,3.3,0,0,0-1.05,1.26C407.32,677,407.84,676.69,408.44,676.17Z"/><path d="M504.89,460.4c-.89.08-.85.19.07.26.4,0,1,0,1.51,0s1.13.08,1.57.07c.74,0,.73-.13-.06-.26a10.61,10.61,0,0,0-1.6-.17C505.81,460.35,505.27,460.37,504.89,460.4Z"/><path d="M498.23,469l-3.15.8c-1,.31-2,.74-2.95,1.08-.48.19-1,.35-1.42.56l-1.33.68c-.87.46-1.74.86-2.53,1.34a16.8,16.8,0,0,1-1.81,1c.31,0-.37.54-1.69,1.4-1.56,1.2-3.2,2.26-4.65,3.62-.74.67-1.53,1.26-2.23,2l-2.12,2.12a67.46,67.46,0,0,0-7.53,9.53c-1.18,1.67-2.13,3.51-3.19,5.26-.48.91-.93,1.85-1.39,2.76l-.7,1.38-.61,1.42a68.87,68.87,0,0,0-4,11.66l-.68,3c-.19,1-.34,2.08-.52,3.11-.39,2.06-.56,4.2-.8,6.31-.15,1-.16,2.14-.24,3.21s-.15,2.13-.18,3.22l-.06,3.25,0,1.63,0,1.64a263.93,263.93,0,0,0,2,26.8,4.73,4.73,0,0,1,.61,1.51,76.22,76.22,0,0,1,1.9,13l.24,4.09c.57,8.29,1,16.78.78,25.45a169.65,169.65,0,0,1-2.61,25.88c-.19,1.77-.37,3.7-.73,5.73q-.27,1.51-.54,3.12t-.72,3.27a122.75,122.75,0,0,1-6.62,22.42,103.88,103.88,0,0,1-5.21,11L442,685.89l-.81,1.36-.88,1.33-1.78,2.66-1.93,2.59c.8-.75,1.35-1.15,1.51-1s-.43,1.27-1.35,2.65c-.45.7-1.08,1.44-1.75,2.27s-1.41,1.7-2.29,2.54l-2.59,2.58c-.89.85-1.84,1.65-2.76,2.47a85.08,85.08,0,0,0,14.24-15.15c.57-.81,1.15-1.52,1.62-2.2a104.17,104.17,0,0,0,10-19.53c5.75-14.8,8.29-29.76,9.17-44.35a177.36,177.36,0,0,0-.08-21.64c-.43-7-1.17-13.85-2-20.49-1.62-13.28-3.44-25.84-4-38a121.44,121.44,0,0,1,.4-17.85l.21-2.18.32-2.14c.22-1.43.4-2.89.73-4.22l.43-2c.13-.69.37-1.36.55-2l.56-2c.19-.69.46-1.34.68-2a13.36,13.36,0,0,1,1-2.37c.28-.36.33-.25.07.54s-.53,1.7-.79,2.55c-.13.42-.27.83-.38,1.26l-.31,1.27-.6,2.52c-.15.84-.29,1.68-.43,2.52-.33,1.62-.45,3.43-.65,5.14l-.14,1.29-.07,1.32-.13,2.61a137.65,137.65,0,0,0,1.11,21.38c.87,7.33,2.15,14.93,3.49,23.11s2.74,16.94,3.65,26.73c.16,1.44.27,2.91.37,4.4s.23,2.95.3,4.45l.18,4.52.08,4.54a180.91,180.91,0,0,1-.85,18.26,145.64,145.64,0,0,1-8.32,37c-1.17,3.09-2.46,6.17-3.92,9.24s-3.07,6.09-4.93,9.16a92,92,0,0,1-13.46,17.27,75.83,75.83,0,0,1-19.14,14.15l-2.86,1.42c-1,.47-2,.85-3,1.27s-2,.83-3.08,1.18l-3.22,1-1.63.48c-.55.14-1.12.26-1.68.38-1.13.25-2.27.49-3.4.71s-2.34.33-3.51.48l-3.84.39a61.83,61.83,0,0,1-16.24-1.73,55,55,0,0,1-14.94-6.16,53,53,0,0,1-12.41-10.15,55.07,55.07,0,0,1-8.73-13.38,47,47,0,0,1-2.87-7c-.44-1.33-.77-2.59-1.12-3.87s-.6-2.52-.8-3.69a76.11,76.11,0,0,1-1.23-13.44,100.12,100.12,0,0,1,.66-11.88c.25-1.84.45-3.75.77-5.52l.46-2.69c.15-.92.3-1.63.46-2.45.59-3.18,1.31-6.44,2.07-9.65s1.63-6.35,2.37-9.12a85.24,85.24,0,0,0,2.72-13.35c.12-1.09.25-2.17.34-3.34s.2-2.33.28-3.54l.07-.91c0-.29,0-.44,0-.66v-1.23c0-.41-.05-.75-.06-1.12a8.15,8.15,0,0,0-.08-1c-.05-.32-.08-.63-.11-1s-.13-.54-.18-.81a4.29,4.29,0,0,0-.19-.73,3.69,3.69,0,0,0-.21-.64,9,9,0,0,0-1.08-2.09,31.91,31.91,0,0,0-2.88-3.77c-.73-.83-1.55-1.75-2.52-2.76l-.74-.77-.18-.19-.09-.09h0l-.14-.06a1.45,1.45,0,0,1-.45-.29c-.64-.19-1-.41-1.4-.28a.28.28,0,0,1-.12,0l-.16.06a.36.36,0,0,1-.27,0,.88.88,0,0,1-.35.11c-.05,0-.09,0-.16,0l-.21.09a2.87,2.87,0,0,1-.41,0,1.48,1.48,0,0,1-.27.1l-.05,0-.16.11c-.11.08-.19.06-.33.18a2.76,2.76,0,0,1-.75.43c-1.1.64-2.47,1.3-4.1,2.26-.52.66-1.36.58-2.42,0a10.38,10.38,0,0,1-3.4-3,9.25,9.25,0,0,1-2-5.66c-.17.11-.33.21-.5.3l-1,.16a5.22,5.22,0,0,1-3.26-.92l-1.48-.79c-2.51-1.74-5.43-2.66-8.16-4.4l-.6-1-.39-.1a6.17,6.17,0,0,1-3.16-1.4l-.88-1.11a13.46,13.46,0,0,1-2.07-4.32,4.79,4.79,0,0,1-.95-1.49,6.69,6.69,0,0,1-3.34-3.26.93.93,0,0,1-.8-1.15,1.17,1.17,0,0,1,.27-.53h0a8.05,8.05,0,0,0-1-.3c-.37.16-.61.24-.61.24-.94.51-.94.51-1.78.94a5.37,5.37,0,0,1-1.77,0c-2.4-1.26-2.41-1.25-3.06-2.14,0-.12-.06-.23-.08-.35-.8.23-.86.24-1.09.29a2.76,2.76,0,0,1-.55-.06c-.44-.41-.44-.41-.68-.47a2.11,2.11,0,0,1-.34-.3c-.14-.75-.14-.75-.26-.89a1.81,1.81,0,0,1-.05-.39l.37-.75,1.85.41-.19-.54.66.35-.54-.38.66-.07h-.83a6,6,0,0,0,1.47-1,2.48,2.48,0,0,0,.72-.75,1.42,1.42,0,0,1-.26-.23,20.83,20.83,0,0,1,2.41-1.33,2.73,2.73,0,0,1,.51.14.64.64,0,0,1,.38-.57l.63-.34.06-.16,0,0,.29-.59.05-.13h0l1.3-2.6a6.52,6.52,0,0,1,1.15-.45l-.46,0c-.3,0-.46-.61-.59-.58a28,28,0,0,0-4.6,1.74c-.76.36-1.53.73-2.27,1.12l-2.14,1.26a1.12,1.12,0,0,1-1.41.27.91.91,0,0,1,.09-1.34,20.61,20.61,0,0,1,1.32-2.44,18.61,18.61,0,0,1,1.78-2.22,25,25,0,0,1,4.4-3.84,34.66,34.66,0,0,1,5.35-2.75,19.2,19.2,0,0,1,2.87-.91c1-.25,1.94-.45,2.9-.6.94-.31,1.83-.66,2.8-.93l2.9-.81-.37-.15,1.59-.19.16,0-1.47-.49a8.44,8.44,0,0,0-.87,0c-1.11.35-2.27.6-3.37.89s-2.17.56-3.28.81l-3.36.75c-1.1.28-2.15.63-3.24,1-2.3.82-4.7,1.08-6.9,1.87-.5.3-1,.25-1.24-.13s.08-.91.58-1.21c5.84-5,14.55-9,22-8a8.43,8.43,0,0,1,2.07-.54,7.5,7.5,0,0,1,2.07.07h.07l-1.15-.52c1.14-.14,1.92.35,3,.34l-.7-1c1.39-.21,2.72-.54,4.14-.76s2.86-.42,4.29-.59c.71-.08,1.42-.15,2.12-.2s1.44,0,2.15,0a23.31,23.31,0,0,1,4.15.52,5.82,5.82,0,0,1,.6.05,23.35,23.35,0,0,1,3.46-1.13l.93-.2a1.34,1.34,0,0,1,.3,0l1.49,0c.51,0,1,0,1.52,0l1.54.12c2.08.2,4.17.34,6.31.74s4.31.91,6.49,1.51c-1.47-.46-2.94-.83-4.42-1.21a36.41,36.41,0,0,0-4.43-.94c-1.47-.23-3-.44-4.45-.62l-1.12-.14-1.11,0-1.94-.09h.31l.6,0h1.2a19.73,19.73,0,0,1,2.42.09c1.63.12,3.25.26,4.88.44a21.13,21.13,0,0,1,2.45.39l2.46.5a39.59,39.59,0,0,1,4.89,1.28q2.43.8,4.85,1.69c1.59.67,3.15,1.45,4.71,2.23.78.4,1.57.79,2.34,1.21l2.23,1.42c1.47,1,3,1.93,4.38,3,1.85,1.53,3.73,3.09,5.46,4.75s3.31,3.52,4.79,5.25c2.18,2.74,4.39,5.76,6.53,9.08a76,76,0,0,1,5.86,11.06,62.84,62.84,0,0,1,4.79,18.43c.11,1,.15,1.95.21,2.92s.11,1.91.09,2.82c0,1.83,0,3.63-.2,5.28-.07.83-.15,1.66-.22,2.47l-.33,2.3c-.12.74-.24,1.48-.36,2.2s-.29,1.38-.44,2-.3,1.32-.45,1.95-.31,1.1-.46,1.63q-.47,1.55-.93,2.91c-.32.94-.64,1.81-1,2.62-.24,1.53-.58,3.13-.87,4.69s-.67,3.17-1.08,4.77c-.76,3.18-1.7,6.38-2.62,9.26-1.9,5.81-3.45,10.22-4.73,14.92-.31,1.18-.65,2.33-.94,3.54l-.44,1.79c-.16.61-.25,1.09-.37,1.64l-.36,1.6-.28,1.56c-.22,1-.32,2-.47,3a44.35,44.35,0,0,0-.35,5.53,21.61,21.61,0,0,0,.4,4.13,7.54,7.54,0,0,0,.34,1.26l.25.64.14.34,0,.05s-.09-.21-.06-.15v0l0,0,.09.16a5.54,5.54,0,0,0,.33.64,9.81,9.81,0,0,0,1.78,2.27,9.93,9.93,0,0,0,5.07,2.48,13.73,13.73,0,0,0,1.41.14,13.45,13.45,0,0,1,1.42,0,4.45,4.45,0,0,1,.82-.09l.49,0c.16,0,.33-.06.5-.08a14.3,14.3,0,0,0,2.05-.41,27.59,27.59,0,0,0,8.83-4.09,11.42,11.42,0,0,1,1.72-1.09,3.07,3.07,0,0,1,1.11-.43c.15,0,.06.29-.22.65a8.39,8.39,0,0,1-1.39,1.23,32.58,32.58,0,0,1-6.54,3.88,23.27,23.27,0,0,1-6.35,1.74l-.38,0-.31,0a2.07,2.07,0,0,1-.6.06,9.11,9.11,0,0,0-1.16.06,14.28,14.28,0,0,1-2.35-.23,11.35,11.35,0,0,1-4.4-1.87,10.94,10.94,0,0,1-3.26-3.6c-.1-.18-.18-.38-.28-.56l-.08-.13,0-.07,0,0h0l.05.12,0-.07-.3-.71a9.73,9.73,0,0,1-.4-1.11,16.52,16.52,0,0,1-.54-2.81,36.36,36.36,0,0,1,.09-8l.29-2.28.39-2.34c.33-1.61.62-3.12,1.07-5-.19.71-.43,1.51-.58,2.14l-.51,2c-.18.67-.28,1.3-.43,2s-.29,1.31-.38,1.94a46.45,46.45,0,0,0-.79,7.24,24,24,0,0,0,.45,5.51c.08.36.15.62.27,1l.15.4.14.37.05.11,0,.06c0,.1-.08-.2,0-.11l0,.07.22.52c.12.37.35.68.49,1s.37.67.61,1a12.62,12.62,0,0,0,7.52,5.16,20.22,20.22,0,0,0,2.33.39c.4,0,.79,0,1.19,0,.2,0,.39,0,.59,0l.63-.06a12.3,12.3,0,0,0,1.46-.09c.5-.08,1-.15,1.51-.21s1-.24,1.54-.35l.78-.17.79-.27a30.42,30.42,0,0,0,6.41-3.07c.52-.33,1.05-.65,1.59-1s1-.74,1.56-1.09a18.7,18.7,0,0,0,1.56-1.13c.51-.4,1-.77,1.56-1.18a54.36,54.36,0,0,0,7-7.45c.52-.69,1.08-1.35,1.57-2.07l1.47-2.16c.93-1.52,1.91-3,2.75-4.64s1.68-3.24,2.49-4.88,1.53-3.37,2.18-5.13A99.64,99.64,0,0,0,430.28,643a131.16,131.16,0,0,0,4.06-23c.32-4,.53-8,.55-12,0-2,0-4.09-.07-6.17s-.13-4.18-.27-6.32c-.79-14.58-2.58-28.89-3.08-44a172.48,172.48,0,0,1,.67-23.35c.15-2,.49-4,.77-6.07s.7-4.1,1.11-6.16,1-4.2,1.54-6.35c.27-1.09.62-2.14,1-3.19s.71-2.11,1.07-3.17a92.78,92.78,0,0,1,19.16-31.3c1.09-1.1,2.09-2.25,3.25-3.29l3.44-3.12a79.73,79.73,0,0,1,7.58-5.6,63.26,63.26,0,0,1,17.51-8.06,44.72,44.72,0,0,1,4.8-1.14l2.43-.48c.82-.13,1.66-.2,2.49-.29a41.69,41.69,0,0,1,5-.34H507l1.24.1a58.59,58.59,0,0,1,19.14,4.54A70.67,70.67,0,0,1,543.75,464c1.2,1,2.46,2,3.59,3l3.39,3.2c2.11,2.24,4.25,4.48,6.12,6.9l1.51,1.88c.48.63.9,1.27,1.32,1.88.84,1.23,1.6,2.38,2.22,3.4a17,17,0,0,1,1.87,4c0,.91-2.6-2.86-6.46-8a87.59,87.59,0,0,0-13.25-13.58,69,69,0,0,0-16.74-10.21,58.35,58.35,0,0,0-19.8-4.55c-1.71-.09-3.45,0-5.17,0s-3.43.31-5.15.48a58.11,58.11,0,0,0-9.93,2.35,65.57,65.57,0,0,0-17.66,9.07,78.88,78.88,0,0,0-14,13.12,86.88,86.88,0,0,0-10.52,15.57A92.18,92.18,0,0,0,438,510c-.41,1.53-.86,3.08-1.21,4.6l-.91,4.52c-.35,1.51-.49,3-.73,4.52s-.46,3-.58,4.51a156.08,156.08,0,0,0-.84,17.84c.06,11.74,1.07,23.09,1.92,34.18.43,5.54.8,11,1.05,16.41s.28,10.73.06,16A136.71,136.71,0,0,1,432,643.66a114.31,114.31,0,0,1-4.3,12.51A85,85,0,0,1,422,667.48a.57.57,0,0,1,.35,0c.32.19.2,1-.24,2.34a99.28,99.28,0,0,0,11.81-27.21,143.34,143.34,0,0,0,3.21-21.31,181.54,181.54,0,0,0,.28-22c-.59-15.07-2.54-31-2.69-48.24,0-5.94.18-11.8.76-17.62.13-1.45.36-2.91.53-4.35l.28-2.17c.11-.72.25-1.44.38-2.16.26-1.43.5-2.86.79-4.28s.68-2.84,1-4.25a88.31,88.31,0,0,1,6-16.52,93.55,93.55,0,0,1,9.1-14.73,79.24,79.24,0,0,1,15.07-16.22,62.45,62.45,0,0,1,20-10.93A52.94,52.94,0,0,1,512,455.63a58.86,58.86,0,0,1,21.81,7.9,11.06,11.06,0,0,1,2.4,1.67c.31.33-.28,0-1.31-.64a65,65,0,0,0-14.55-6.41A51.38,51.38,0,0,0,504.19,456l-2.06,0c-.69,0-1.37.14-2.05.21l-2.05.25-1,.13-1,.22-4,.89c-1.32.36-2.6.83-3.9,1.24a58.33,58.33,0,0,0-14.34,7.4,26.91,26.91,0,0,1,3.59-1.64c.88-.24,1.37-.25,1.36,0s-.54.75-1.4,1.55-2.11,1.81-3.63,3l2.94-1.9,1.47-.95,1.56-.82c1-.55,2.06-1.11,3.11-1.64l3.26-1.36a18.33,18.33,0,0,1,3.52-1.11c.91-.2,1.46-.26,1.45-.14s-.52.4-1.38.75-2.06.74-3.3,1.3L483,464.85l-3.12,1.66c-.51.28-1.05.54-1.55.84l-1.47.95c-1,.65-2,1.25-2.94,1.94-1.84,1.43-3.76,2.79-5.45,4.39-.85.79-1.77,1.52-2.57,2.36l-2.42,2.5a78.68,78.68,0,0,0-8.5,10.95,81.74,81.74,0,0,0-6.58,12.18,76.63,76.63,0,0,0-4.82,15.89,111.92,111.92,0,0,0-2,16.23l-.19,4.06-.05,4.05c0,1.35,0,2.7,0,4s0,2.69.1,4c.2,5.36.56,10.69,1,16a23.15,23.15,0,0,1,.89-6.24h0c-.09-1.64-.19-3.29-.28-4.93s-.13-3.29-.2-4.93a153.22,153.22,0,0,1,.37-22.85c.19-1.91.48-3.82.72-5.74s.69-3.81,1-5.72.91-3.82,1.46-5.7l.9-2.8.46-1.4.54-1.37a83.57,83.57,0,0,1,11.41-20.62,70.14,70.14,0,0,1,17.46-16.31l1.27-.84c.43-.26.88-.49,1.33-.74l2.67-1.46c.89-.5,1.86-.84,2.79-1.27s1.86-.84,2.83-1.17l2.94-.94,1.46-.47,1.51-.32,3-.64c1-.21,2.05-.25,3.08-.39a51.26,51.26,0,0,1,6.2-.25c1,0,2.07.16,3.1.24l1.55.14c.51.06,1,.17,1.52.26l3.06.55,3,.83,1.49.42,1.44.54,2.89,1.09a65.3,65.3,0,0,1,20,13.81A87.2,87.2,0,0,1,558.61,497a7.65,7.65,0,0,1,1,2.09,6.2,6.2,0,0,1-1.15-1.72l-1.77-3.14-1.94-3-1-1.52-1.06-1.47-2.14-2.92a82.65,82.65,0,0,0-9.93-10.57,67,67,0,0,0-12-8.37,55.8,55.8,0,0,0-13.84-5.09l.08,0c.77.21.89.35,0,.26a24.89,24.89,0,0,1-3-.55c-.89-.24-.79-.34,0-.27a48.91,48.91,0,0,0-13.83,0c-1.14.17-2.26.45-3.38.68l-1.69.36c-.56.13-1.1.33-1.65.5l-3.28,1c-1,.43-2.1.9-3.15,1.35l-1.57.68-1.5.82-3,1.64-2.83,1.88c-.47.31-.95.61-1.41.94l-1.32,1.05c-.89.7-1.78,1.38-2.65,2.1L468.08,476c-.41.38-.83.75-1.23,1.15l-1.15,1.21-2.29,2.44-2.12,2.58-1.05,1.29-1,1.35-1.93,2.7-1.77,2.81c-1.22,1.84-2.18,3.84-3.25,5.76-.5,1-.94,2-1.42,3s-.94,2-1.32,3l-1.2,3.07c-.39,1-.69,2.09-1,3.13-.73,2.07-1.19,4.23-1.74,6.35s-.84,4.27-1.2,6.41-.61,4.29-.77,6.44c.18-2,.55-4,.81-6s.78-4,1.16-5.92c.19-1,.5-2,.75-2.94s.48-2,.83-2.92c.66-1.91,1.23-3.86,2-5.71l1.15-2.81,1.31-2.73c.83-1.85,1.87-3.58,2.84-5.35.48-.89,1-1.73,1.59-2.58l1.64-2.55,1.79-2.45c.6-.8,1.17-1.64,1.84-2.4a68.62,68.62,0,0,1,18.22-16,50.83,50.83,0,0,1,23.3-7,43.88,43.88,0,0,1,5.38-.07l2.7.14,2.7.4c.49.08,1.06.19,1.54.31a6,6,0,0,1,1.06.4c.24.17-.47,0-1.47-.15l-3-.45,2.2.44a13.11,13.11,0,0,1,2,.52c1.25.4,2.35.79,3.26,1.13,1.76.84,2.74,1.47,2.6,1.7-.52.43-5.4-1.29-11.53-2a47.92,47.92,0,0,0-12.32.25l-3,.64-1.5.33-1.47.47-2.93.95c-.95.38-1.89.81-2.83,1.21-7.56,3.27-14.09,8.53-19.67,14.51a25.61,25.61,0,0,0-1.72,2l-1.67,2.07c-1.05,1.45-2,3-2.95,4.45a71.12,71.12,0,0,1,12.77-14,55,55,0,0,1,16.21-9.47l4.48-1.38,4.59-.91c1.55-.13,3.09-.36,4.64-.4h3.49l1.16.11a47.21,47.21,0,0,1,17.76,5.1,15.16,15.16,0,0,1,2.4,1.39c.6.41,1,.72.93.81s-.43,0-1.06-.33c-.31-.14-.68-.32-1.09-.53l-.63-.34-.7-.31A46.16,46.16,0,0,0,509.87,466a42.61,42.61,0,0,0-15.77,1.41c-10.25,3-19.21,9.61-26.23,17.79a77.25,77.25,0,0,0-15.12,28.44l-1,3.91-.76,4c-.28,1.33-.42,2.7-.6,4s-.38,2.71-.46,4.08a140.29,140.29,0,0,0-.5,16.56c1.17,14.61,4.07,29.19,6.23,44.63-.11-2-.28-3.92-.44-5.89-.53-6.23-1.16-12.27-1.76-18.16s-1.09-11.62-1.44-17.26-.41-11.16-.21-16.6a102.59,102.59,0,0,1,1.87-16,69.18,69.18,0,0,1,4.91-15,74.21,74.21,0,0,1,8.19-13.81,59.48,59.48,0,0,1,11.34-11.63,48.15,48.15,0,0,1,14.46-7.79,5.53,5.53,0,0,1,2.13-.49c.07,0-.07.11-.37.22a9.77,9.77,0,0,1-1.26.48,46.61,46.61,0,0,0-14,7.39A62.36,62.36,0,0,0,468,487.44a73.58,73.58,0,0,0-13.49,28.25,93.63,93.63,0,0,0-2,13.14,130.29,130.29,0,0,0-.29,13.25,243.49,243.49,0,0,0,2.36,26.35c-.89-9-1.65-17.75-1.75-26.32a109.5,109.5,0,0,1,2.19-25l.68-3,.88-2.92c.27-1,.63-1.93,1-2.89s.68-1.93,1.09-2.87c.84-1.87,1.61-3.77,2.6-5.58s2-3.6,3-5.37a66.94,66.94,0,0,1,7.49-9.83c1.33-1.59,2.9-2.91,4.37-4.36l2.38-2c.4-.32.78-.67,1.2-1l1.26-.87a15.49,15.49,0,0,1,3.24-1.92,2.28,2.28,0,0,1,.64-.51l1.3-.83.67-.43.7-.35,2.89-1.45a42,42,0,0,1,6.33-2.13,8,8,0,0,1,2.38-.38C499.66,468.62,499.15,468.68,498.23,469Zm-197,83.89-.25-.1.7,0,1.38.84Zm-5.87,9.63h0l-.82-.36ZM375,676.91a26.39,26.39,0,0,1-.22-4.59c0-.82.09-1.73.13-2.59s.17-1.79.32-2.72a85.34,85.34,0,0,1,2.7-11.78c.61-2.08,1.24-4.11,2-6.16s1.46-4.12,2.29-6.35c1.64-4.39,3.56-9.79,5-15.13a149.34,149.34,0,0,1-4.2,15c-1.25,3.41-2.36,6.41-3.37,9.51-.51,1.53-1,3.09-1.45,4.66l-.68,2.37-.58,2.19a65.06,65.06,0,0,0-1.64,8.38A36,36,0,0,0,375,676.91ZM292.2,552a11.65,11.65,0,0,1,3.48.81,5.5,5.5,0,0,1,1.61-1.21,51.13,51.13,0,0,1,5.07-2c-.43-.33,0-.48.15-.63s.37-.26.56-.39c-1.88.51-3.73,1.09-5.69,1.64a22.44,22.44,0,0,0-2.6.94A20.66,20.66,0,0,1,292.2,552ZM283,561.46l-.24,0-.24-.77Zm.44,1.29.27-.1C283.8,562.92,283.67,562.9,283.42,562.75Zm2.39-.87a1.62,1.62,0,0,0-.51-.08ZM301,577.47c-.61-1.09-1.21-2.19-1.8-3.29.54,1.08,1.09,2.15,1.66,3.21Z"/><path d="M434.3,586.39l.64.13a1.74,1.74,0,0,1-1.13.67,14.59,14.59,0,0,0,8.33-2.2,26.07,26.07,0,0,0,3.44-2.5,23.73,23.73,0,0,0,2.79-2.91c1.58-.35,2.66-1.53,2.43-2.65s-1.77-1.76-3.44-1.4a6.29,6.29,0,0,1-1.2-.11,25,25,0,0,0-9.93-.84l2.3.26a11,11,0,0,0-3.08.5l.64.46c-3.82-.26-7.86,2.11-8.65,5.13s1.69,5.36,5.25,5.39C433.23,586.34,433.76,586.35,434.3,586.39Z"/><path d="M442.66,590.29l-5.8-.1-.51-.22,1,1.58,0-.12c.66-2,2.71-3.73,4.8-5l.7-.56a1.41,1.41,0,0,0,.3-1.17,1.82,1.82,0,0,0-2.4-1l-1.33.35a13.08,13.08,0,0,0-5.48,1.8c-1.63,1.06-2.78,2.54-2.72,4.31,0,.82.85,1.45,1.38,2.15a2.72,2.72,0,0,0,3.58.87c1.38-.66,2.14-2,1.64-3.14l.85-.11-.35.65c-.12-1.13,1.07-1.94,1.78-2.89.44-.31.91-.59,1.36-.88l-2.14-2.2c-.22.21-.42.44-.63.67a3.55,3.55,0,0,1,.31.2,33.43,33.43,0,0,1-3.47,3.87l-1.42,1.91a1.22,1.22,0,0,0,1.08,1.57l1.16.1-.57-.12,3.41-.74c1.14-.24,2.26-.48,3.39-.61a.75.75,0,0,0,.73-.6C443.33,590.51,443.05,590.27,442.66,590.29Z"/><path d="M435.93,594a1.82,1.82,0,0,0-1.26.2l-.07.3.87.11C436.09,594.64,436.17,594.28,435.93,594Z"/><path d="M434.6,594.45l-.36,0,.31.14,0,0Z"/><path d="M524.83,589.27a135.36,135.36,0,0,1,15.31,11.24c.16.14.34.18.41.09s0-.26-.15-.38a130.7,130.7,0,0,0-15.31-11.33c-.19-.11-.38-.11-.46,0S524.66,589.16,524.83,589.27Z"/><path d="M552.43,626c-.14,0-.21,0-.17.18a.49.49,0,0,0,.3.33c.12,0,.21,0,.18-.17A.55.55,0,0,0,552.43,626Z"/><path d="M545.94,630.41a8.2,8.2,0,0,0-1.85-1,.51.51,0,0,1-.24-.24c-.08.15-.29.16-.53,0-4.66-2.5-9.25-5.33-14.06-7.43a1.11,1.11,0,0,1-.43.23,2.11,2.11,0,0,1-1.89-.43l-.4-.38c-1.77-1.32-3.59-2.58-5.42-3.79a5.09,5.09,0,0,1-1.58-.31l-3-.34-3-.3a.67.67,0,0,1,0,.52,1,1,0,0,1-1.21.35c-.24-.08-.48-.14-.72-.2.64.29,1.26.67,1.88,1a.72.72,0,0,1,.24.16l2.26.82a177.28,177.28,0,0,1,20.45,7.75.41.41,0,0,1,.29.29c0,.11-.09.19-.23.14-4.82-1.4-9.57-1.44-14.48-2.44a74.05,74.05,0,0,0-16.79-1.41l-1.92-.3c-.64,0-1.28-.07-1.91-.09a27.24,27.24,0,0,0-3.74.18,42.74,42.74,0,0,0-7.27,1.67c-1.77.56-3.45,1.16-5.05,1.76-2.22.87-4.31,1.69-6.33,2.7-1,.43-2,1-3,1.5s-1.93,1-2.87,1.69a2.8,2.8,0,0,1-3.05.48,6.63,6.63,0,0,1-3-3,8.18,8.18,0,0,1-.8-5.87l-.6.27-1.08.16a4.38,4.38,0,0,1-3.15-1l-1.32-.94a26.73,26.73,0,0,0-3.5-2.67,26.63,26.63,0,0,1-3.62-2.73l-.37-1.12-.36-.17a6.32,6.32,0,0,1-2.83-2l-.63-1.26a12.68,12.68,0,0,1-1.12-4.55,4.65,4.65,0,0,1-.62-1.62,6.59,6.59,0,0,1-2.6-3.81.9.9,0,0,1-.55-1.26,1.15,1.15,0,0,1,.39-.43h0a7.2,7.2,0,0,0-.93-.51c-.41.07-.65.09-.65.09-1.05.24-1,.27-2,.5a5.33,5.33,0,0,1-1.71-.41c-2.08-1.73-2.1-1.73-2.55-2.72a2.08,2.08,0,0,1,0-.35c-.83,0-.89,0-1.12,0a2.69,2.69,0,0,1-.54-.2c-.34-.48-.34-.48-.57-.6a2.55,2.55,0,0,1-.26-.36c0-.75,0-.75-.08-.91a1.35,1.35,0,0,1,0-.38l.51-.63,1.72.81-.07-.55.57.48-.45-.48.66.08-.81-.2a5.68,5.68,0,0,0,1.64-.63,2.48,2.48,0,0,0,.86-.53,2,2,0,0,1-.2-.27c1.32-.37,1.32-.37,2.62-.69a5.09,5.09,0,0,1,.47.24.6.6,0,0,1,.46-.46l.67-.19.09-.14,0,0,.39-.49.08-.1h0L445,589.3a10.58,10.58,0,0,1,1.18-.18l-.42-.12c-.28-.1-.33-.66-.46-.66a26,26,0,0,0-4.78.55c-1.57.35-3.17.77-4.76,1.18a1.1,1.1,0,0,1-1.42-.08c-.31-.36-.15-.9.35-1.22a18.5,18.5,0,0,1,3.94-3.58,25.13,25.13,0,0,1,4.94-2.49,30.59,30.59,0,0,1,5.48-1.32,31.62,31.62,0,0,1,5.56-.22c1.82-.15,3.6-.4,5.41-.52l-.32-.2,1.46.11h.15l-1.27-.7-.79-.12A50.59,50.59,0,0,1,453,580c-2.08,0-4.26,0-6.39.2-2.31.22-4.53,0-6.83.14-.54.15-1.05,0-1.17-.42s.25-.81.79-1a32.39,32.39,0,0,1,5.17-2.06,31,31,0,0,1,5.54-1.25,26.46,26.46,0,0,1,5.53-.22,19.61,19.61,0,0,1,5.11,1,7.16,7.16,0,0,1,3.69.25h.06l-1-.65c1,.06,1.64.61,2.55.75l-.53-1c2.4,0,4.87-.11,7.28-.11a35.46,35.46,0,0,1,3.59.26c.58.07,1.16.17,1.73.28s1.13.3,1.68.48a4.42,4.42,0,0,1,.5.1,16.9,16.9,0,0,1,3.69-1,10.9,10.9,0,0,1,2.09-.14l-2.11-.45h0a13.89,13.89,0,0,1,4.7-.28,20.05,20.05,0,0,1,6.6,2,11.73,11.73,0,0,1,4.58,3.78,103.9,103.9,0,0,1,23.4,7.37c.39.15.65.48.62.74s-.39.33-.78.18a153.75,153.75,0,0,0-16.73-4.87c4.62,1.86,9,4,13.42,6.13l1.72.73a8.24,8.24,0,0,1,1.6.93c5.5,2.88,10.31,6.12,15.51,9.43a144.92,144.92,0,0,1,12.23,8.82,68.41,68.41,0,0,1,14.44,15.35c.57.76.8,1.7.5,2.07s-1,.05-1.56-.7a115.5,115.5,0,0,0-15.65-15.54,213.28,213.28,0,0,0-18.44-13.42c-1.45-.9-2.85-1.84-4.31-2.68a.67.67,0,0,1-.07.24,1.2,1.2,0,0,1-.77.61c1.64.95,3.17,2.09,4.72,3.19A46.24,46.24,0,0,1,543.07,608a57.32,57.32,0,0,1,6.78,8.41,96.07,96.07,0,0,1,9.19,9.3.45.45,0,0,1,.17.4c0,.11-.16.09-.29,0-2.25-2-4.55-4.09-6.93-6.09a1.35,1.35,0,0,1-.32,1.35,1.53,1.53,0,0,1-1.49.09c.46.51.94,1,1.38,1.53.27.33.37.7.2.85s-.53,0-.79-.28c-.93-1-1.9-2-2.84-3.06s-2-2-3-3c-1.29-1.07-2.66-2-4-3.07s-2.72-2-4.09-2.9a2.61,2.61,0,0,1,0,1.56h0l1.22.93a65.52,65.52,0,0,1,20.88,19.48c.12.15.15.32.08.38s-.22,0-.32-.15c-.86-1.18-1.72-2.36-2.61-3.51s-1.86-2.24-2.82-3.34h0c0,.13,0,.22-.18.17a.56.56,0,0,1-.3-.34c0-.14,0-.21.17-.17a63.41,63.41,0,0,0-12.23-10.43,71.53,71.53,0,0,1,10.44,10.29l1.35.94a.45.45,0,0,1,.16.39c0,.09-.18.07-.29,0s-.24-.18-.37-.27c.58.72.71,1.55.32,1.87s-1.23,0-1.86-.73l-2.66-2.68-2.72-2.62-.65-.49-.78-.36a99.92,99.92,0,0,1,7.52,8.85c.22.24.29.55.16.67s-.43,0-.65-.22a128.24,128.24,0,0,0-15.93-12.43c-1.17-.28-2.31-.59-3.49-.8l-3.54-.62.68.47c1.48.94,3,1.71,4.5,2.5l4.54,2.27c1.53.74,3,1.6,4.47,2.47a35.1,35.1,0,0,1,4.2,3.12.3.3,0,0,1,.13.35c-.06.08-.21.06-.34-.07a34.65,34.65,0,0,0-4.16-2.91c-1.46-.84-2.91-1.65-4.42-2.47a45,45,0,0,0-7.43-3.33c4.45,2.6,9.11,4.89,13.28,8.18a.82.82,0,0,1,.38.48.21.21,0,0,1,.19,0A10.31,10.31,0,0,1,546,630a.38.38,0,0,1,.2.35C546.22,630.48,546.09,630.48,545.94,630.41ZM457.13,591.8l-.21-.13.65.13,1.18,1Zm-7.28,8h0l-.73-.5Zm60.72-12.92c-1.65-.54-3.28-1.14-4.91-1.77s-3.28-1.3-4.94-2c.85.11,1.68.27,2.52.43A71.19,71.19,0,0,1,510.57,586.83Zm-61.81,2.55a12.5,12.5,0,0,1,3.17,1.42,5.6,5.6,0,0,1,1.75-.76,33.61,33.61,0,0,1,5.07-1c-.35-.37.05-.43.24-.53l.57-.27-2.77.21-2.81.28c-.85.09-1.74.21-2.61.34A19.51,19.51,0,0,1,448.76,589.38ZM438,596.17l-.22-.08-.08-.79Zm.18,1.32.27,0C438.55,597.74,438.43,597.69,438.22,597.49Zm2.51-.28a1.73,1.73,0,0,0-.49-.2Zm11.71,18-1.1-3.55,1,3.46Z"/><path d="M402.21,742.05l0,.26a.51.51,0,0,1-.43-.26c.63,2.37,3.21,3.24,5.43,3.08a1.09,1.09,0,0,0,1.49-1.6,1.39,1.39,0,0,1-.16-.41,8.5,8.5,0,0,0-1.17-3.5l.21.83a2.9,2.9,0,0,0-.63-.88l-.11.34a2.53,2.53,0,1,0-4.83,1.52Z"/><path d="M401.76,746.13c-.3-.74-.56-1.48-.82-2.23l0-.24-.53.76,0,0a4.54,4.54,0,0,1,2.85.55l.35.1a.8.8,0,0,0,.6-1.35l-.35-.38c-.65-1.17-2.17-2.38-3.67-1.56-.35.19-.52.64-.76,1a1.12,1.12,0,0,0,1.67,1.49l.17.29-.33,0c.46-.31,1-.06,1.49,0l.58.27.6-1.36-.37,0c0,.07,0,.17,0,.17a10,10,0,0,1-2.13-.34l-1-.11a.68.68,0,0,0-.53.76l.11.48a2.11,2.11,0,0,1,0-.25c.49.79,1.1,1.51,1.58,2.31a.28.28,0,1,0,.49-.25Z"/><path d="M399.2,744.39a.65.65,0,0,0-.25-.46l-.14,0c0,.1,0,.23.06.37S399.09,744.55,399.2,744.39Z"/><path d="M398.81,744l0-.15a.77.77,0,0,0,0,.15h.05Z"/><path d="M423.91,760.1a40.12,40.12,0,0,0,2.89,3.07s.11,0,.16-.06.07-.15,0-.17a41.83,41.83,0,0,1-2.87-3.08s-.11,0-.16,0A.2.2,0,0,0,423.91,760.1Z"/><path d="M426.69,773.45a.25.25,0,0,0-.13.17c0,.07,0,.1.09.07a.31.31,0,0,0,.14-.18C426.8,773.44,426.75,773.42,426.69,773.45Z"/><path d="M422.19,778.77a1.83,1.83,0,0,0-.75.08.06.06,0,0,1-.07-.06.36.36,0,0,1-.28.2,15.23,15.23,0,0,1-4.83-.83,1.84,1.84,0,0,1-.25.23c-.3.22-.57.24-.7.06l-.07-.17c-.38-.56-.79-1.08-1.15-1.64a.81.81,0,0,1-.54,0,12.64,12.64,0,0,1-2.06-.08.92.92,0,0,1-.16.31c-.2.24-.45.34-.56.24l-.19-.13c.12.19.25.39.37.6a.13.13,0,0,1,0,.09,3.86,3.86,0,0,0,.6.44,15.28,15.28,0,0,0,6.65,1.62c.06,0,.1,0,.07.1s-.09.15-.15.16c-2,.44-4.08,1.37-5.85,1.28a30.41,30.41,0,0,1-5.95-.79c-1.45-1.14-3.26-1.6-5.09-2.32-.61-.24-1.2-.5-1.77-.79a1.84,1.84,0,0,1-.25-.14l-.38-.25-.76-.5-1.51-1c-2-1.37-3.9-2.8-5.85-4.26a3.33,3.33,0,0,1-1.2-4.55,3.38,3.38,0,0,1,2.56-1.63l-.33-.29-.43-.6a2.87,2.87,0,0,1-.47-2l.08-.91c.37-1.55.27-3.16.78-4.69l.44-.38v-.21a2.81,2.81,0,0,1,.31-1.71l.46-.52a6.57,6.57,0,0,1,1.87-1.38,2.4,2.4,0,0,1,.62-.61,3.36,3.36,0,0,1,1.23-1.91.48.48,0,0,1,.47-.5.48.48,0,0,1,.26.06h0c0-.2,0-.26.07-.5a2.6,2.6,0,0,1-.15-.25l-.53-.71a2.34,2.34,0,0,1-.08-.8c.46-1.21.46-1.21.83-1.6l.16-.07c-.13-.33-.14-.35-.17-.45a1.23,1.23,0,0,1,0-.25c.17-.23.17-.23.19-.35a1.13,1.13,0,0,1,.12-.17c.33-.15.33-.15.39-.22a.62.62,0,0,1,.17-.07l.34.07-.12.85.23-.14-.13.33.14-.29.06.29,0-.37c.33.4.33.4.5.52a.75.75,0,0,0,.35.21l.09-.14.69.86a2,2,0,0,1,0,.24.22.22,0,0,1,.27.07l.19.21H401v0l.28,0h.06l1.19.11c.1.14.19.27.27.4a1.37,1.37,0,0,0,0-.19c0-.13.23-.3.2-.35a17,17,0,0,0-2.19-3.14.41.41,0,0,1-.15-.57.4.4,0,0,1,.56-.14,8.94,8.94,0,0,1,6.55,5c.44.53.91,1,1.38,1.56,0,0,0-.11,0-.17l.29.5,0,0V749l-.13-.28a26.81,26.81,0,0,1-2.71-4,22.5,22.5,0,0,1-1.16-2.3.37.37,0,0,1,.52-.52c2.28,1.33,4.43,3.41,5,6a2.1,2.1,0,0,1,.75,1.17l0,0,0-.51c.22.3.16.69.33,1l.25-.52c1.17,1.36,2.78,2.4,3.55,4a.79.79,0,0,1,.12.15,8.7,8.7,0,0,1,2,.47l-.23-.42a1.49,1.49,0,0,1,1,.28,3.14,3.14,0,0,1,.38,3.38,51.82,51.82,0,0,0,4.52,2.64c.09,0,.08.18,0,.32s-.24.23-.33.19a16,16,0,0,1-3.69-1.38,15.3,15.3,0,0,0,2.14,2.46l.37.2a.67.67,0,0,1,.27.32,13,13,0,0,0,3.43,2.25,27.61,27.61,0,0,0,3.51,1.1,12.44,12.44,0,0,1,4.77,1.8c.21.09.18.47-.07.83s-.61.57-.82.48c-3.56-1.06-7.24-1.86-10-4.25l-.87-.77-.1.14a2,2,0,0,1-.46.45,9.64,9.64,0,0,1,.86,1,6.6,6.6,0,0,1,3.41,1.71,9,9,0,0,1,1.28,2.47c1,.43,2,.8,3,1.27,0,0,.06.06,0,.14a.22.22,0,0,1-.16.12,13.88,13.88,0,0,1-2.56-.33,2.59,2.59,0,0,1-1.28,1.55l.38.34c.08.07.05.25-.07.4s-.3.24-.37.17l-1.6-1.34c-.79-.34-1.56-.7-2.32-1.09a3.27,3.27,0,0,1-.39.9h0l.32.21a14,14,0,0,1,6.62,3.22s0,.11,0,.19-.13.11-.16.08a11.28,11.28,0,0,0-1.75-1.34h0a.32.32,0,0,1-.13.18c-.06,0-.11,0-.1-.07a.28.28,0,0,1,.14-.18,14.63,14.63,0,0,0-3.87-1.61,17,17,0,0,1,2.92,2.29h.53s.05.07,0,.15a.24.24,0,0,1-.16.12h-.14c.16.18.07.59-.23,1s-.69.55-.87.38a16.41,16.41,0,0,1-1.64-1.06l-.22-.06-.31,0c.68.76,1.34,1.56,2,2.37.07,0,.05.2-.06.34s-.24.2-.31.15a28.94,28.94,0,0,1-5.11-2.13l-2.75.63a1.29,1.29,0,0,0,.17.16c1.54,1.19,4.12.57,5.87,1.39.05,0,0,.1,0,.17s-.12.11-.16.09a16.7,16.7,0,0,0-3-.47,15.31,15.31,0,0,0-2.55-.27c1.26.72,2.9.86,4.28,1.41.07,0,.09.08.07.18a.2.2,0,0,1,.1-.07,2.41,2.41,0,0,1,.78-.08c.06,0,.07,0,0,.14A.23.23,0,0,1,422.19,778.77ZM403.91,752s0-.08,0-.12.05.18.09.29l-.15.75S403.88,752.46,403.91,752Zm-5-.65h0c0-.24.08-.42.08-.42C399,751.09,399,751.23,399,751.34Zm21,8.75a4.45,4.45,0,0,1-1.41-1.86l.5.25C419.41,759,419.71,759.53,420,760.09Zm-16.79-11.92a6,6,0,0,1,0,1.59,2.21,2.21,0,0,1,.69.41,19.93,19.93,0,0,1,1.52,1.53c.08-.25.2-.13.28-.1l.24.12c-.48-.59-1-1.2-1.43-1.83A17.75,17.75,0,0,1,403.21,748.17Zm-4.68-2.46v-.11l.33-.2Zm-.55.34,0,.11C397.92,746.24,397.92,746.18,398,746.05Zm.49,1a.5.5,0,0,0,0-.24Zm-6,8.83,1.41-1.2-1.39,1.12Z"/><path d="M340.13,149.61l.61.06a1.5,1.5,0,0,1-1,.8,12.68,12.68,0,0,0,7.71-3.13,21.66,21.66,0,0,0,2.95-3,24.71,24.71,0,0,0,2.25-3.44,2.77,2.77,0,0,0,1.89-3.21c-.41-1.18-2-1.64-3.49-1a4.5,4.5,0,0,1-1.14.06,17.79,17.79,0,0,0-4.63-.37,24.54,24.54,0,0,0-4.88.7h2.2a9.64,9.64,0,0,0-2.82.89l.66.41c-3.63.17-7.07,3.08-7.46,6.27s2.2,5.39,5.6,5.09C339.09,149.65,339.6,149.62,340.13,149.61Z"/><path d="M348.64,152.86l-5.62.44-.52-.18,1.17,1.55,0-.12c.39-2.17,2.19-4.13,4-5.7l.59-.66a1.62,1.62,0,0,0,.14-1.28,1.74,1.74,0,0,0-2.44-.82l-1.22.52a11.41,11.41,0,0,0-5,2.43,5.38,5.38,0,0,0-2.12,4.69c.12.84,1,1.42,1.55,2.09a2.55,2.55,0,0,0,3.53.59,2.65,2.65,0,0,0,1.25-3.4l.8-.2c-.08.24-.17.48-.26.72-.25-1.16.8-2.13,1.37-3.19l1.2-1.06-2.34-2.08-.51.76a2.36,2.36,0,0,1,.32.19,32.48,32.48,0,0,1-2.87,4.36l-1.15,2.1a1.28,1.28,0,0,0,1.2,1.53h1.14l-.57-.08c2.15-.66,4.29-1.51,6.45-2a.72.72,0,0,0,.63-.7A.55.55,0,0,0,348.64,152.86Z"/><path d="M342.52,157.26a1.72,1.72,0,0,0-1.2.32c0,.18,0,.27,0,.32l.85,0C342.75,158,342.79,157.59,342.52,157.26Z"/><path d="M341.29,157.9l-.36,0,.32.12s0-.05,0-.05Z"/><path d="M523.66,292.5a73.1,73.1,0,0,0,11.45-6.74,70,70,0,0,0,10-8.87c1.55-1.59,3-3.39,4.44-5.16l2-2.78c.69-.94,1.29-1.93,2-2.89a93.11,93.11,0,0,0,6.71-12.43,108.73,108.73,0,0,0,7.9-28.06,125,125,0,0,0,1.28-14.88c.07-5.07,0-10.22-.35-15.57a8.49,8.49,0,0,0-.39-2.67,6.38,6.38,0,0,0-.07,2.37c.36,5.35.41,10.48.37,15.55a132.43,132.43,0,0,1-1.25,14.81,108.08,108.08,0,0,1-3,14.35A100.75,100.75,0,0,1,560,253.09a82.88,82.88,0,0,1-14.94,23.15,70.3,70.3,0,0,1-21.22,15.62,6.16,6.16,0,0,0-2,1.16C521.85,293.17,522.65,292.94,523.66,292.5Z"/><path d="M674.54,47.07c-1.1,0-1.06.12.07.27,1,.14,2.72.21,3.8.29.92.06.9-.07-.06-.26A25,25,0,0,0,674.54,47.07Z"/><path d="M665,55l-4.34.49-1.07.12-1,.2-2.06.41c-1.35.29-2.69.5-4,.86l-3.69,1.1c-.88.28-1.91.46-2.66.7.37.06-.65.56-2.63,1.29a77.93,77.93,0,0,0-7.2,3c-1.21.49-2.33,1.19-3.49,1.8s-2.33,1.2-3.45,1.91c-2.2,1.44-4.5,2.73-6.59,4.38-1,.79-2.15,1.53-3.18,2.37l-3,2.56c-1.05.82-2,1.78-2.94,2.69s-2,1.8-2.84,2.8l-2.69,2.94a18.85,18.85,0,0,0-1.28,1.53l-1.24,1.55a36.77,36.77,0,0,0-2.4,3.18l-2.26,3.26c-1.34,2.28-2.77,4.5-3.86,6.87l-.89,1.75c-.28.59-.5,1.2-.76,1.8l-.74,1.79a17.89,17.89,0,0,0-.68,1.8l-1.18,3.65-.92,3.85c-.15.65-.33,1.28-.46,1.93l-.32,2c-.2,1.32-.47,2.61-.62,4-.25,2.69-.58,5.34-.63,8.09s-.09,5.48-.09,8.23c0,1.39.13,2.79.19,4.18l.09,2.09.17,2.11c.39,5.61,1.13,11.33,1.87,17.08a7,7,0,0,1,.7,1.91,121.58,121.58,0,0,1,2.65,16.49l.44,5.25c.24,2.66.43,5.37.63,8s.33,5.43.36,8.2a161.34,161.34,0,0,1-.38,16.72,153.85,153.85,0,0,1-2.23,16.66A139.34,139.34,0,0,1,590,255,98.79,98.79,0,0,1,584.82,270l-1.5,3.41-.75,1.71-.84,1.67-1.68,3.37-1.85,3.29-.94,1.65-1,1.6-2,3.22L572,293.09l-1.12,1.56c-.39.51-.8,1-1.2,1.52l-2.44,3.05c-.85,1-1.74,1.93-2.61,2.91-1.71,2-3.64,3.73-5.49,5.59a104.29,104.29,0,0,1-12.39,9.86c1.21-.6,2-.89,2.1-.7,0,.32-1.05,1.24-2.67,2.47a30.79,30.79,0,0,1-2.92,1.94c-1.11.67-2.31,1.43-3.61,2.09l-4,2c-1.31.68-2.71,1.2-4.07,1.81a104.64,104.64,0,0,0,22.22-12.32c1-.72,1.92-1.35,2.73-2,1.77-1.5,3.62-2.91,5.3-4.54l2.56-2.39c.85-.8,1.63-1.68,2.45-2.52s1.63-1.69,2.41-2.58l2.3-2.71c1.58-1.79,2.9-3.7,4.33-5.58a119.33,119.33,0,0,0,14.28-26.48,139.63,139.63,0,0,0,7.42-28A155.61,155.61,0,0,0,599.29,210a259,259,0,0,0-2.47-26.53c-2.34-17-5.21-32.84-5.22-48A89.1,89.1,0,0,1,594,113.59c.11-.43.19-.89.31-1.31l.39-1.24.76-2.49c.59-1.64,1.29-3.27,1.94-4.92.81-1.6,1.54-3.23,2.41-4.82l1.37-2.34c.47-.78.88-1.59,1.42-2.33a24.69,24.69,0,0,1,2-2.65c.41-.41.45-.24-.13.65L602.63,95,601,98l-.8,1.46c-.25.5-.46,1-.69,1.51l-1.35,3c-.37,1-.73,2-1.09,3l-.55,1.49-.4,1.5c-.26,1-.55,2-.79,3l-.59,3.18c-.47,2.07-.61,4.26-.88,6.38-.16,1-.16,2.16-.22,3.24l-.17,3.25,0,3.31c0,1.11,0,2.19.07,3.33.15,2.25.2,4.46.46,6.77.84,9.15,2.48,18.66,4.31,29.06.46,2.63.91,5.28,1.38,8s.9,5.5,1.32,8.35.8,5.83,1.19,8.81.68,6.11.85,9.36c.27,3.81.42,7.74.41,11.66s-.14,7.87-.45,11.8A148.93,148.93,0,0,1,599.37,253,127.68,127.68,0,0,1,579,298.12c-.64.87-1.22,1.75-1.91,2.6l-2.05,2.55c-1.34,1.73-2.81,3.34-4.29,5s-3,3.16-4.58,4.69-3.2,3-4.85,4.43a112.06,112.06,0,0,1-22,14.79,104.45,104.45,0,0,1-25.91,9.17,94.37,94.37,0,0,1-28.84,1.61,83.52,83.52,0,0,1-15.92-3.46,70.21,70.21,0,0,1-15.82-7.34,60.85,60.85,0,0,1-14.65-12.79c-1.07-1.36-2.13-2.73-3.11-4.17l-1.41-2.23-.69-1.12-.1-.17-.05-.07-.09-.13c-.34-.58-.74-1.25-1.18-2.09s-.84-1.62-1.24-2.46a54.58,54.58,0,0,1-2.09-5.09c-.62-1.71-1.06-3.36-1.51-5s-.77-3.29-1-4.84l-.37-2.38-.23-2.29c-.17-1.56-.23-3-.27-4.48A87,87,0,0,1,426,266.55c.47-2.42.89-5,1.49-7.24l.86-3.48.85-3c1.14-4,2.46-8.18,3.89-12.15s2.9-7.71,4-10.76a74.84,74.84,0,0,0,2.53-7.87,70.9,70.9,0,0,0,1.51-7.67c.23-1.33.39-2.85.58-4.29a6.3,6.3,0,0,0,.06-.83l0-.67,0-.66a5.22,5.22,0,0,0,0-.58,8.26,8.26,0,0,0-.55-3.28,8.37,8.37,0,0,0-1.11-1.83c-.17-.19-.27-.37-.45-.59a7.81,7.81,0,0,1-.58-.71c-.27-.27-.52-.55-.77-.84s-.63-.64-.93-1c-1.36-1.36-3.18-3-5.35-4.8l-1.16-.93-.58-.47a4.94,4.94,0,0,0-.5-.37c-.43-.26-.8-.57-1.27-.81a28.41,28.41,0,0,0-2.81-1.44,32.88,32.88,0,0,0-6.86-2,46.75,46.75,0,0,0-17.09.39c-.76.15-1.52.3-2.28.5l-1.14.27-.2.07-.56.24-1.12.44c-.74.3-1.49.63-2.23.91-3,1.23-5.91,2.55-8.86,4.09a3.59,3.59,0,0,1-3.59.37,8.15,8.15,0,0,1-3.72-3.13,8,8,0,0,1-1.36-6l-.66.29c-.4,0-.8.1-1.2.17a5.31,5.31,0,0,1-3.58-1l-1.52-.91a30.78,30.78,0,0,0-4-2.58,28.51,28.51,0,0,1-4-2.6l-.46-1.11-.39-.16a6.47,6.47,0,0,1-3.09-1.83l-.74-1.24a13.57,13.57,0,0,1-1.51-4.58,5,5,0,0,1-.77-1.61,6.91,6.91,0,0,1-3-3.72,1,1,0,0,1-.67-1.25,1.11,1.11,0,0,1,.34-.48h0a10,10,0,0,0-1-.45,6.26,6.26,0,0,1-.64.15l-1.88.67a5.26,5.26,0,0,1-1.73-.28c-2.2-1.62-2.22-1.61-2.75-2.59,0-.12,0-.24,0-.36-.8.11-.86.11-1.09.13a3.07,3.07,0,0,1-.53-.15c-.38-.47-.38-.47-.61-.57A2.6,2.6,0,0,1,341,160c-.06-.77-.06-.77-.16-.93a1.84,1.84,0,0,1,0-.4l.44-.68,1.74.69-.12-.57.6.45-.48-.46.65,0-.81-.13a5.62,5.62,0,0,0,1.53-.79,2.49,2.49,0,0,0,.78-.62,2,2,0,0,1-.23-.27c1.24-.5,1.25-.5,2.47-1a4.34,4.34,0,0,1,.48.2.61.61,0,0,1,.4-.52l.63-.26.08-.15,0,0,.32-.54.07-.13h0l1.44-2.38a7,7,0,0,1,1.13-.3l-.44-.09c-.28-.08-.4-.66-.53-.65a25.21,25.21,0,0,0-4.55,1.06c-1.48.52-3,1.12-4.45,1.69a1,1,0,0,1-1.38.05.91.91,0,0,1,.21-1.31c3.55-6.11,11.06-9.77,18.12-10.28,1.71-.46,3.42-.93,5.14-1.35l-.34-.17,1.42-.11.15,0-1.35-.57h-.79c-3.95,1.14-8,1.3-12.1,2.23-2.16.53-4.33.52-6.49.95a.84.84,0,0,1-1.17-.31,1,1,0,0,1,.61-1.1c5.68-4.14,13.48-7,20-5.71a6.45,6.45,0,0,1,3.59-.33h.06l-1-.54c1-.12,1.68.37,2.58.37l-.69-1c4.63-.82,9.42-2.51,14-1.83a2.9,2.9,0,0,1,.51,0,23.11,23.11,0,0,1,2.54-1.66c.22-.13.45-.25.68-.36a.84.84,0,0,1,.24-.1l1.48-.3,3-.57a100.94,100.94,0,0,1,12.83-1.34c-1.51,0-3,.07-4.53.14s-3,.19-4.47.32-3,.3-4.44.49l-4.14.6,0,0,.26-.06.59-.12,1.18-.24,2.36-.48c1.59-.27,3.19-.53,4.8-.77,3.23-.42,6.5-.73,9.84-.85a93.46,93.46,0,0,1,20.82,1.51,86.26,86.26,0,0,1,29,11,77.73,77.73,0,0,1,12.73,9.71c3,2.93,6,6,8.81,9.37a89.42,89.42,0,0,1,8,11.09,66.26,66.26,0,0,1,5.81,12.61c.38,1.05.64,2.16.94,3.2s.58,2.09.74,3.13a51.87,51.87,0,0,1,.86,5.94c.07.94.13,1.86.19,2.75s0,1.74,0,2.57-.05,1.63-.07,2.41-.14,1.48-.22,2.19c0,1.27,0,2.58,0,3.81l-.25,3.69c-.07,1.25-.28,2.37-.43,3.56s-.33,2.44-.51,3.33c-.7,3.88-1.54,7.86-2.6,11.93a119.51,119.51,0,0,1-3.94,12.1c-1.51,3.91-3.08,7.4-4.42,10.47s-2.53,5.87-3.59,8.72c-.56,1.41-1,2.87-1.55,4.3l-.72,2.2-.36,1.1-.28,1-.55,1.92c-.19.64-.3,1.25-.45,1.87-.34,1.26-.48,2.41-.71,3.6a29.31,29.31,0,0,0-.31,6.07,15.65,15.65,0,0,0,.28,2.17,8.79,8.79,0,0,0,.42,1.39,1.82,1.82,0,0,0,.13.3s0,.11.11.22l.2.37.22.4.16.28.11.17a3.24,3.24,0,0,1,.2.36c.14.24.34.46.48.72s.39.48.6.73a21.64,21.64,0,0,0,9.26,5.45,36.18,36.18,0,0,0,6.7,1.5c1.25.08,2.48.25,3.73.33s2.52.08,3.79.05a56.2,56.2,0,0,0,15.32-2.61,24.85,24.85,0,0,1,2.87-.8,4.5,4.5,0,0,1,1.64-.28c.31.14-1,1-3.09,1.69-1.82.71-3.69,1.16-5.55,1.71-.93.22-1.87.39-2.81.6-.47.09-.93.22-1.4.28l-1.41.19-1.41.2a9.64,9.64,0,0,1-1.41.15l-2.82.2c-.93,0-1.86,0-2.8,0-.46,0-.93,0-1.4,0l-1.38-.12c-.9-.09-1.88-.1-2.73-.24s-1.73-.26-2.58-.42a39.53,39.53,0,0,1-4.9-1.31,34.29,34.29,0,0,1-4.27-1.87,22.2,22.2,0,0,1-3.33-2.26,12.55,12.55,0,0,1-2.27-2.39,4.14,4.14,0,0,1-.42-.61l-.18-.3-.1-.15-.05-.08,0,0-.08-.14-.46-.81a3.4,3.4,0,0,1-.19-.36c-.11-.2-.16-.35-.25-.53a17.34,17.34,0,0,1-.92-7.19,47.45,47.45,0,0,1,1.93-10.82c.23-.92.6-2,.94-3.12s.7-2.16,1.07-3.23c.72-2.13,1.51-4.22,2.35-6.34-1.52,3.5-2.88,6.94-4.11,10.59-.34.94-.55,1.7-.81,2.52s-.54,1.62-.71,2.4-.44,1.58-.6,2.35l-.46,2.29a29.74,29.74,0,0,0-.43,7.93,14.52,14.52,0,0,0,.53,2.77,8.5,8.5,0,0,0,.4,1.09c0,.09.13.26.19.39l0,.1.12.23.26.47c.16.28.24.41.35.63.17.43.51.78.73,1.21s.56.8,1,1.18a17.55,17.55,0,0,0,2.49,2.31,27.6,27.6,0,0,0,7.26,3.85,37.09,37.09,0,0,0,9.15,2.11l2.49.28,2.52.07,1.27.05c.42,0,.85,0,1.28,0l2.55-.1a60.94,60.94,0,0,0,10.48-1.9c1.74-.39,3.42-1,5.14-1.51.86-.24,1.68-.61,2.53-.9s1.71-.56,2.53-.94a72,72,0,0,0,12-6.7c.92-.68,1.92-1.26,2.8-2l2.71-2.12c1.71-1.53,3.46-3,5-4.65l1.22-1.2,1.14-1.27c.74-.87,1.55-1.64,2.25-2.58l2.18-2.71,2-2.83A94.06,94.06,0,0,0,561,258.67,105.81,105.81,0,0,0,569.67,231a114.66,114.66,0,0,0,1.63-14.91c.1-1.26.09-2.53.12-3.79l0-1.91,0-1.94c0-1.3,0-2.59-.08-3.9s-.13-2.64-.2-4c-1-18.23-4.36-36.43-4.84-56A131.89,131.89,0,0,1,568.8,114c.13-.65.24-1.31.4-2l.51-2c.36-1.3.71-2.61,1.06-3.92l.27-1,.35-1,.7-2c.5-1.33.92-2.71,1.5-4,1.16-2.55,2.24-5.2,3.65-7.62.67-1.23,1.33-2.49,2-3.71l2.26-3.56a107.46,107.46,0,0,1,14.87-17.91,115.1,115.1,0,0,1,18-13.9,111.61,111.61,0,0,1,20.29-9.74L640,40.09l1.34-.42c.45-.13.91-.23,1.36-.34l2.74-.65a103.14,103.14,0,0,1,11-2A106.16,106.16,0,0,1,679,36.52a109.06,109.06,0,0,1,21.89,4.84l5.28,1.92c1.73.71,3.43,1.49,5.15,2.25s3.37,1.63,5,2.49,3.33,1.73,4.92,2.75a105.81,105.81,0,0,1,18.12,13.49A80.34,80.34,0,0,1,747,72.08a25,25,0,0,1,3.17,4.59c.23,1-3.6-3.26-9.31-8.81a112.06,112.06,0,0,0-18.55-14.18l-2.51-1.5-1.26-.74-1.3-.68c-1.74-.89-3.47-1.79-5.23-2.65l-5.39-2.33c-1.8-.76-3.67-1.35-5.51-2a104,104,0,0,0-23-4.95,97.1,97.1,0,0,0-23.6.68l-2.92.46c-1,.16-1.94.3-2.89.55l-5.75,1.37c-1.9.49-3.75,1.16-5.63,1.74-.93.32-1.88.58-2.79.94l-2.73,1.1a112.1,112.1,0,0,0-10.67,4.94l-5.08,3c-.85.48-1.67,1-2.47,1.58l-2.43,1.65a107.61,107.61,0,0,0-17.71,15.4,98.75,98.75,0,0,0-13.81,19.35l-1.43,2.66L576.9,97l-1.25,2.79c-.38.95-.71,1.93-1.07,2.9l-1,2.92c-.32,1-.55,1.92-.82,2.88l-.78,2.89-.39,1.45-.29,1.45a116.16,116.16,0,0,0-2.58,23.18,217.51,217.51,0,0,0,.84,22.42c.63,7.3,1.43,14.44,2.16,21.46s1.38,13.92,1.66,20.68a138.83,138.83,0,0,1-.44,19.92,111.91,111.91,0,0,1-10.28,37.75,83.8,83.8,0,0,1-19.24,25.91c.17,0,.33,0,.39,0,.26.27-.27,1.2-1.36,2.56a79,79,0,0,0,12.64-13.36,93.46,93.46,0,0,0,9.76-16.22,112.07,112.07,0,0,0,7.52-25.83,136.33,136.33,0,0,0,1.56-13.6c.29-4.58.3-9.17.16-13.88-.27-9.42-1.36-19.22-2.39-29.41a315.91,315.91,0,0,1-2.1-32c0-1.92,0-3.81.09-5.74s.12-3.82.31-5.73.36-3.82.54-5.71.59-3.79.87-5.67c.13-.94.35-1.88.55-2.82s.42-1.86.62-2.79.38-1.86.66-2.78l.82-2.74a56.15,56.15,0,0,1,1.8-5.46c.72-1.8,1.35-3.65,2.23-5.34a85.82,85.82,0,0,1,12-18.88A106,106,0,0,1,605.61,65a101.34,101.34,0,0,1,23.31-14.65,97.78,97.78,0,0,1,26.53-7.72,94.27,94.27,0,0,1,27.76.13,99.39,99.39,0,0,1,26.6,8,14.92,14.92,0,0,1,1.92.93,10.84,10.84,0,0,1,1.21.75c.43.33-.32,0-1.66-.62A99.54,99.54,0,0,0,674,42.64l-2.44-.13-2.44,0c-1.63,0-3.27,0-4.9.13l-4.88.43-1.23.12-1.21.19-2.41.4a95.6,95.6,0,0,0-18.93,5.1,21.22,21.22,0,0,1,2.7-.65c.8-.15,1.48-.26,2-.33,1.1-.13,1.66-.08,1.57.19s-.85.75-2.15,1.37c-.65.31-1.43.66-2.32,1l-3,1.42c2.67-1.15,5.46-1.93,8.22-2.81a43.29,43.29,0,0,1,4.21-1.08l4.23-1c3.54-.53,6.35-.77,6.28-.53s-2.82.86-6.15,1.38a98.46,98.46,0,0,0-32.45,12.84l-3.64,2.43c-.61.42-1.22.81-1.82,1.23l-1.73,1.34-3.46,2.69-3.29,2.91c-.54.48-1.1,1-1.63,1.46l-1.54,1.56c-1,1-2.07,2.07-3.07,3.14-1.9,2.23-3.91,4.37-5.61,6.77a82.91,82.91,0,0,0-10.44,18.41l-1.79,5c-.51,1.69-.92,3.4-1.38,5.1s-.77,3.42-1.11,5.14l-.49,2.58c-.15.86-.23,1.73-.35,2.6-.19,1.73-.49,3.46-.59,5.19l-.35,5.2c-.08,3.45-.18,6.91-.05,10.35.18,6.87.72,13.7,1.45,20.45,0-1.9.06-3.54.15-4.89a17.23,17.23,0,0,1,.48-3.07h0l-.25-3.15-.17-3.16-.16-3.15c-.05-1.05-.05-2.1-.08-3.15a117.27,117.27,0,0,1,2.2-29.16l.92-3.6c.34-1.19.56-2.41,1-3.58l1.23-3.56c.39-1.19,1-2.3,1.44-3.46A72.34,72.34,0,0,1,588,93.73c.55-1.12,1.26-2.15,1.91-3.21s1.31-2.13,2-3.17a96.76,96.76,0,0,1,20.62-21.61c1-.81,2-1.51,3-2.22l3.11-2.13c2.11-1.35,4.3-2.59,6.47-3.87,2.26-1.1,4.48-2.29,6.78-3.31l3.5-1.44A37.74,37.74,0,0,1,639,51.44a91.47,91.47,0,0,1,29.82-5.12A94,94,0,0,1,684,47.53c1.26.22,2.5.51,3.74.76s2.5.46,3.72.83l3.67,1c.61.18,1.23.34,1.83.53l1.8.63a100.43,100.43,0,0,1,26.87,14.14A105.47,105.47,0,0,1,747,87a13,13,0,0,1,1.63,2.44,9.89,9.89,0,0,1-1.72-2,103.85,103.85,0,0,0-12.1-13.73c-2.26-2.05-4.49-4.15-6.94-6s-4.91-3.64-7.41-5.39a96.71,96.71,0,0,0-33.73-13.85l.1,0c.95.27,1.11.42,0,.27s-2.81-.56-3.76-.71c-1.11-.23-1-.33-.07-.26l-4.23-.58c-.71-.11-1.42-.16-2.13-.2l-2.13-.14c-2.84-.26-5.69-.17-8.54-.15l-1.07,0-1.06.08-2.13.17-2.13.18-1.06.09-1,.16-4.21.67c-.7.12-1.4.21-2.1.35l-2.07.5-4.13,1c-1.38.35-2.71.85-4.06,1.27l-2,.65c-.67.22-1.35.44-2,.72L633,54.18c-.65.28-1.31.52-2,.83l-1.89.94-3.79,1.89L621.71,60c-1.21.72-2.43,1.41-3.57,2.24A94.36,94.36,0,0,0,593.91,85.3L592.67,87l-.61.85-.56.89-2.22,3.55c-.75,1.18-1.34,2.46-2,3.68l-1,1.86c-.33.62-.58,1.27-.87,1.91-.55,1.29-1.13,2.56-1.65,3.86l-1.37,4-.34,1-.26,1-.52,2c-.32,1.34-.74,2.67-1,4,.23-1.26.64-2.49,1-3.73s.63-2.49,1-3.72a73.8,73.8,0,0,1,2.82-7.24,81.47,81.47,0,0,1,7.65-13.41,96.91,96.91,0,0,1,21.55-21.8A95.44,95.44,0,0,1,641.69,52c1.23-.36,2.43-.82,3.68-1.1l3.74-.87a71.61,71.61,0,0,1,7.56-1.34l1.9-.29,1.91-.14,3.83-.28c1.28-.11,2.56,0,3.84-.06s2.56,0,3.84.05l3.34.12c1.12.06,2.24,0,3.35.19l3.35.37c1.13.12,2.25.23,3.37.46a25.66,25.66,0,0,1,3.25.82c.32.15-.59.07-1.83-.17s-2.45-.5-3.71-.61c1.92.29,3.68.78,5.28,1.15a31,31,0,0,1,4.14,1.26c2.29.83,3.61,1.45,3.47,1.69s-2,0-4.65-.6c-1.29-.32-2.84-.55-4.54-.85l-2.65-.5c-.91-.18-1.88-.26-2.85-.41l-3.91-.5-3.94-.23-2-.12c-.66,0-1.32,0-2,0l-3.94,0c-1.31,0-2.62.21-3.93.3s-2.62.16-3.91.42l-3.88.62-1.94.32-1.91.46a93.13,93.13,0,0,0-28.88,12c-1.85,1.31-3.73,2.58-5.54,3.92L613,70.3c-.85.75-1.76,1.43-2.55,2.25a91.62,91.62,0,0,1,43.38-20.31,86.92,86.92,0,0,1,47.2,5.1c2.52,1.07,4.61,2.13,4.58,2.32s-2.11-.53-4.62-1.6a88,88,0,0,0-41.1-5,87,87,0,0,0-38.65,14.7l-2.14,1.5c-.71.5-1.44,1-2.1,1.54L612.94,74l-3.84,3.54c-1.27,1.18-2.41,2.5-3.62,3.74a83.5,83.5,0,0,0-12.05,16.82,48,48,0,0,0-2.27,4.61,46.1,46.1,0,0,0-1.9,4.75,44,44,0,0,0-1.52,4.89l-.64,2.5a24.38,24.38,0,0,0-.58,2.53,101.85,101.85,0,0,0-2,20.77c.74,18.52,5.25,36.92,7.91,56.74-.2-2.5-.4-5-.68-7.54-1.65-15.95-4.15-30.73-4.67-44.95a120.15,120.15,0,0,1,.84-20.79c.28-1.68.55-3.36.83-5s.77-3.28,1.16-4.92,1-3.15,1.46-4.73,1.24-3.08,1.85-4.63c5.48-12.22,14.47-23.07,25.45-31.58a86.9,86.9,0,0,1,18.18-10.64,79.75,79.75,0,0,1,20.76-6,14.67,14.67,0,0,1,1.9-.25,3.7,3.7,0,0,1,1,0c.17.11-.82.2-2.28.48l-5.24.92c-1.72.4-3.41.87-5.1,1.3a50.16,50.16,0,0,0-5,1.58l-2.45.85c-.8.31-1.58.68-2.37,1l-2.36,1a22.26,22.26,0,0,0-2.32,1.09l-4.51,2.38-4.32,2.68-1.08.67-1,.75-2,1.49A90.71,90.71,0,0,0,605.66,83.9a80.43,80.43,0,0,0-11.1,16.95,67.49,67.49,0,0,0-5.24,15.69c-.28,1.36-.46,2.74-.69,4.09l-.33,2-.2,2.07c-.12,1.38-.29,2.74-.38,4.11l-.15,4.15a141.92,141.92,0,0,0,.64,16.6c.48,5.53,1.24,11.08,2.06,16.65-.67-5.71-1.32-11.33-1.69-16.85-.23-2.78-.31-5.51-.42-8.24-.08-1.37,0-2.71,0-4.07s0-2.71.07-4l.19-4c.07-1.33.26-2.63.38-4l.21-2c.06-.66.21-1.3.3-1.94l.66-3.88c.28-1.27.61-2.53.91-3.8l.45-1.89c.19-.62.4-1.21.59-1.81l.59-1.81a15.39,15.39,0,0,1,.65-1.79l1.49-3.55a80.27,80.27,0,0,1,8-13.4c.75-1.07,1.64-2.05,2.45-3.09l1.25-1.54c.41-.52.89-1,1.33-1.47l2.71-2.92,2.9-2.73,1.45-1.37,1.55-1.27,3.1-2.54L622.62,70l1.64-1.16,1.71-1,3.44-2.11L633,63.83l1.8-.93c.61-.28,1.24-.53,1.86-.8l3.73-1.59A41.67,41.67,0,0,1,645.16,59a4.1,4.1,0,0,1,1-.47,76.35,76.35,0,0,1,17-3.74,12.59,12.59,0,0,1,3.23-.1C667,54.81,666.25,54.88,665,55ZM363,152.92l-.24-.12.67.08,1.33,1Zm-6.19,9.15h0l-.79-.46ZM468.18,282.63c0-.94.09-2,.15-3s.23-2.14.49-3.28c.11-.56.19-1.11.32-1.69l.42-1.73c.24-1.14.67-2.34,1-3.51l.27-.9.33-1,.67-2c.45-1.29.93-2.56,1.4-3.83,1-2.53,2-5,3.19-7.59q1.92-4.17,3.82-8.34c1.36-3,2.73-6.38,3.91-9.76s2.2-6.83,3.09-10.2c.4-1.66.87-3.37,1.21-5l.54-2.48c.09-.43.18-.77.27-1.29l.25-1.46c-.25,2.05-.56,3.48-.85,5.15s-.66,3.29-1,4.93-.79,3.34-1.21,5-.91,3.37-1.46,5.06a139.14,139.14,0,0,1-6,14.36c-2,4.19-3.69,7.83-5.22,11.63-.75,1.91-1.49,3.82-2.18,5.78-.17.48-.37,1-.51,1.44l-.42,1.32c-.29.88-.6,1.77-.81,2.62A43.24,43.24,0,0,0,468.18,282.63ZM354.46,151.27a11.49,11.49,0,0,1,3.3,1.17,5.33,5.33,0,0,1,1.6-1,34.12,34.12,0,0,1,4.83-1.67c-.4-.36,0-.48.14-.61l.52-.37c-1.75.42-3.57.76-5.39,1.22C357.82,150.38,356.1,151,354.46,151.27Zm-9.66,8.1-.23-.06-.15-.81S344.58,158.88,344.8,159.37Zm.3,1.35.27-.06C345.45,160.94,345.33,160.9,345.1,160.72Zm2.44-.5a1.55,1.55,0,0,0-.5-.16ZM361,177.87l-1.42-3.57,1.28,3.48Z"/><path d="M570.74,188.3l.58.19a1.39,1.39,0,0,1-1.09.55,11.82,11.82,0,0,0,7.89-1.34,18.15,18.15,0,0,0,5.88-5,2.43,2.43,0,0,0,2.21-2.59c-.23-1.17-1.63-1.9-3.15-1.65a4.45,4.45,0,0,1-1.08-.16,22.81,22.81,0,0,0-9-1.69l2.08.48a9.15,9.15,0,0,0-2.8.22l.57.53a8.27,8.27,0,0,0-5,.72,6.18,6.18,0,0,0-3.1,3.42c-.94,2.88,1.2,5.6,4.54,6.09Z"/><path d="M578.4,193.16c-1.83-.19-3.66-.52-5.49-.74l-.47-.27.87,1.71,0-.12c.71-2,2.81-3.4,4.79-4.57l.66-.51a1.5,1.5,0,0,0,.33-1.18,1.78,1.78,0,0,0-2.21-1.26l-1.24.25c-3.29-.1-7.87,1.6-8,5.16,0,.83.69,1.57,1.14,2.34a2.61,2.61,0,0,0,3.32,1.34,2.44,2.44,0,0,0,1.76-3l.82,0-.38.62c0-1.16,1.13-1.83,1.86-2.69l1.31-.78L575.51,187l-.61.62a3.57,3.57,0,0,1,.28.24,35.9,35.9,0,0,1-3.47,3.51l-1.48,1.73a1.3,1.3,0,0,0,.9,1.71l1.11.26-.54-.2c1.1-.08,2.2-.22,3.28-.37s2.2-.21,3.28-.22a.69.69,0,0,0,.73-.55A.56.56,0,0,0,578.4,193.16Z"/><path d="M571.76,196.09a1.64,1.64,0,0,0-1.23,0,2.78,2.78,0,0,1-.09.29l.82.22C571.85,196.8,572,196.46,571.76,196.09Z"/><path d="M570.44,196.42l-.34-.09.29.19,0-.05Z"/><path d="M679.24,186.13a192.63,192.63,0,0,1,26.64,11.51c.29.15.56.2.62.09s-.12-.3-.39-.44a191.32,191.32,0,0,0-26.64-11.6c-.31-.09-.59-.08-.66,0S679,186,679.24,186.13Z"/><path d="M735.43,228.51c-.21-.08-.27,0-.14.2a1.36,1.36,0,0,0,.56.47c.18.06.25,0,.15-.21A1.3,1.3,0,0,0,735.43,228.51Z"/><path d="M729.14,233.62a22.66,22.66,0,0,0-3-1.41,1.37,1.37,0,0,1-.44-.33c0,.18-.31.16-.71,0-7.72-3.47-15.83-7.1-24.12-9.66a1,1,0,0,1-.52.26,5.16,5.16,0,0,1-3.06-.51l-.82-.44c-3.39-1.58-6.86-3-10.33-4.29a15.3,15.3,0,0,1-2.64-.29c-1.66-.08-3.29-.21-4.94-.26l-4.93-.19a.6.6,0,0,1,.2.56c-.18.43-1,.65-1.84.5l-1.3-.18c1.21.32,2.43.59,3.62,1a2.17,2.17,0,0,1,.47.17c1.33.29,2.7.54,4.09.79,12.12,2.28,23.87,5,35.29,9.25a.91.91,0,0,1,.58.36c0,.13,0,.23-.25.16-7.62-2-14.68-2.18-22.92-3.35A145.87,145.87,0,0,0,677,224.44c-4.82-.12-9.58-.07-14.34.24a70.24,70.24,0,0,0-14.25.66,114,114,0,0,0-14,3.11L629.25,230c-1.68.59-3.34,1.09-5,1.67-5.59,2.17-10.89,4.26-16.1,6.71a4.19,4.19,0,0,1-4,.47,6.27,6.27,0,0,1-3.33-3.21,7.75,7.75,0,0,1-.28-6.14l-.73.29-1.28.11a4.84,4.84,0,0,1-3.5-1.27l-1.36-1.05c-2.15-2.21-4.91-3.67-7.1-6.12l-.25-1.17-.36-.21a5.81,5.81,0,0,1-2.7-2.24l-.51-1.34a13.67,13.67,0,0,1-.67-4.77,4.9,4.9,0,0,1-.47-1.71,6.74,6.74,0,0,1-2.25-4.12,1,1,0,0,1-.43-1.34.93.93,0,0,1,.41-.4h0a7.27,7.27,0,0,0-.87-.61c-.4,0-.64,0-.64,0-1,.16-1,.16-1.94.28a5.22,5.22,0,0,1-1.64-.61c-1.87-2-1.88-2-2.22-3.07a2.11,2.11,0,0,1,0-.35c-.8-.07-.86-.08-1.08-.11a2.54,2.54,0,0,1-.5-.26c-.28-.53-.28-.53-.49-.68a3.36,3.36,0,0,1-.22-.4c.08-.75.08-.75,0-.92a1.61,1.61,0,0,1,.07-.38c.34-.35.48-.5.54-.55,1.57,1,1.57,1,1.57,1l0-.57.51.56-.39-.54.63.17-.77-.3a5.06,5.06,0,0,0,1.63-.43,2.1,2.1,0,0,0,.85-.44,2.69,2.69,0,0,1-.17-.3c1.27-.25,1.27-.24,2.54-.41l.44.3a.55.55,0,0,1,.47-.42l.65-.11a1.13,1.13,0,0,1,.1-.13l0,0,.4-.46.07-.11h0l1.76-2a6.23,6.23,0,0,1,1.13-.05l-.4-.18c-.26-.12-.28-.7-.41-.71a25.44,25.44,0,0,0-4.53.13c-1.52.15-3.05.4-4.56.66a1.06,1.06,0,0,1-1.35-.26.83.83,0,0,1,.42-1.18c4.48-5,12.09-6.9,18.83-6.13,1.67-.16,3.34-.29,5-.42l-.31-.2,1.36.12H596l-1.21-.74-.73-.13a41.46,41.46,0,0,1-5.79.11c-2-.08-3.93-.24-5.91-.16s-4.18-.38-6.3-.43a.87.87,0,0,1-1.06-.53.84.84,0,0,1,.74-.91c6-2.59,13.64-3.82,19.54-1.56a6,6,0,0,1,3.37.23h.06l-.91-.65c.91,0,1.53.6,2.37.74l-.55-1c4.38-.11,8.91-1,13.07.07l.46.05a23.75,23.75,0,0,1,2.41-1.24l.64-.26.17-.06.26-.06.52-.12a19,19,0,0,1,2.21-.32c-1.05-.05-2.12-.11-3.13-.11A26.33,26.33,0,0,1,623,175.9a38.18,38.18,0,0,1,5,.22c.83.09,1.66.2,2.46.33s1.61.33,2.38.52a29.58,29.58,0,0,1,4.23,1.38,14.84,14.84,0,0,1,3.19,1.88c3.06,0,6.12.26,9.17.45,1.53.11,3.05.29,4.57.44l2.28.23,2.28.31c6.06.75,12.07,2,18,3.28.61.14,1.11.48,1.16.76s-.44.39-1.05.25a232.53,232.53,0,0,0-26.06-3.09c7.29,1.23,14.48,2.95,21.7,4.8.92.19,1.86.35,2.79.57a19.7,19.7,0,0,1,2.69.89,258.48,258.48,0,0,1,26.37,9.46,178.79,178.79,0,0,1,21.15,10.3,127.31,127.31,0,0,1,14,9.16,98.08,98.08,0,0,1,12.42,11.05c1.07,1.07,1.8,2.33,1.61,2.79s-1.22,0-2.29-1.1a137.36,137.36,0,0,0-13.54-11.07c-2.33-1.75-4.79-3.32-7.2-4.94l-3.72-2.3c-1.23-.78-2.49-1.51-3.77-2.22a230.32,230.32,0,0,0-32.33-15.12c-2.48-.93-4.92-1.85-7.39-2.64a.61.61,0,0,1,0,.27,1.14,1.14,0,0,1-.87.71c1.39.49,2.78.95,4.15,1.5l4.09,1.69a87.66,87.66,0,0,1,23.15,9.56c2.53,1.63,4.91,3.2,7.11,4.95,1.1.87,2.2,1.71,3.26,2.59l3.15,2.69a142.43,142.43,0,0,1,16.78,12.31,1.1,1.1,0,0,1,.42.54c0,.14-.16.11-.38-.06-1.92-1.46-4-2.79-5.95-4.22s-4.08-2.74-6.18-4.05c.45.72.58,1.32.27,1.65s-1,.32-1.95,0c.9.64,1.77,1.32,2.62,2,.53.43.85.9.7,1.07s-.69,0-1.2-.4c-1.74-1.41-3.59-2.66-5.39-4s-3.69-2.51-5.54-3.77c-4.71-2.58-9.44-5.07-14.36-7.21a3.36,3.36,0,0,1,.84,1.82h0l2.22,1.06A109.76,109.76,0,0,1,748,239c.22.21.35.44.28.51s-.28,0-.47-.23a111.21,111.21,0,0,0-10.41-9.5v0c.11.17.07.28-.14.2a1.49,1.49,0,0,1-.57-.46c-.12-.2,0-.27.14-.21a107.67,107.67,0,0,0-22-13.57A120.31,120.31,0,0,1,734.43,229l2.24,1.35a1.07,1.07,0,0,1,.41.51c0,.11-.2.08-.4-.06l-.62-.38c1.13,1,1.74,2,1.39,2.42s-1.65-.12-2.82-1.1c-3.26-2.48-6.6-4.81-10-7.06-.39-.22-.76-.45-1.16-.65l-1.27-.48A150.14,150.14,0,0,1,737,235.25c.41.35.66.76.55.91s-.54,0-.95-.36c-4.49-3.16-9.09-6.17-13.85-8.9s-9.66-5.24-14.68-7.47c-1.82-.39-3.68-.67-5.52-1s-3.71-.49-5.57-.72l1.26.53c2.73,1,5.34,2.07,8,3s5.21,1.85,7.74,2.88,5.06,2.08,7.59,3.25a68.38,68.38,0,0,1,7.38,4.19c.25.15.4.36.37.46s-.25.06-.49-.11a67.68,67.68,0,0,0-7.23-4c-2.48-1.1-4.92-2.21-7.52-3.23-1.08-.43-2.12-.87-3.17-1.27l-3.16-1.11c-2.06-.75-4.17-1.27-6.23-1.81,8,3.12,15.86,6.08,23.33,10.49a1.89,1.89,0,0,1,.78.63s.14,0,.25,0a30.41,30.41,0,0,1,3.2,1.5.88.88,0,0,1,.47.46C729.55,233.73,729.38,233.73,729.14,233.62ZM592.23,195.71l-.21-.14.64.17,1.14,1.07Zm-7.39,7.7h0l-.69-.57Zm72.7-18.25c-2.58-.43-5.17-.73-7.75-1.21s-5.17-.86-7.77-1.33c1.27,0,2.54,0,3.81.06C649.77,183.3,653.68,184.16,657.54,185.16Zm-73.31,7.58a12.39,12.39,0,0,1,3,1.68,4.82,4.82,0,0,1,1.68-.71c1.64-.36,3.25-.63,4.86-.82-.34-.39.05-.44.22-.55l.55-.26c-1.74.12-3.51.23-5.33.31C587.57,192.44,585.87,192.81,584.23,192.74Zm-10.63,5.85-.21-.11v-.8Zm.06,1.35h.27C574,200.23,573.85,200.16,573.66,199.94Zm2.45,0a1.39,1.39,0,0,0-.45-.25Zm10,19.48-.75-3.72.63,3.61Z"/><path d="M511.18,359.89l.06.26a.52.52,0,0,1-.46-.2c.93,2.27,3.6,2.81,5.78,2.37a1.1,1.1,0,0,0,1.28-1.78,1.49,1.49,0,0,1-.22-.38,8.31,8.31,0,0,0-1.6-3.33l.32.8a2.93,2.93,0,0,0-.74-.79l-.06.35a2.53,2.53,0,1,0-4.61,2.11Z"/><path d="M511.25,364c-.39-.69-.75-1.4-1.1-2.11v-.24l-.43.82,0,0a4.46,4.46,0,0,1,2.9.18l.36.06a.75.75,0,0,0,.51-.28.81.81,0,0,0-.09-1.14l-.39-.33c-.79-1.08-2.45-2.09-3.85-1.09a2.92,2.92,0,0,0-.62,1.08,1.12,1.12,0,0,0,1.84,1.27l.21.27-.33.06c.42-.37,1-.19,1.47-.22l.62.19.42-1.41h-.37c0,.07,0,.17,0,.17a10.37,10.37,0,0,1-2.16-.07l-1,0a.68.68,0,0,0-.43.82l.17.46-.06-.24c.59.72,1.29,1.36,1.86,2.09a.28.28,0,1,0,.46-.31Z"/><path d="M508.49,362.59c-.07-.17-.12-.34-.31-.42l-.13.06.11.35C508.24,362.83,508.4,362.77,508.49,362.59Z"/><path d="M508.05,362.23l-.05-.15v.16h.05Z"/><path d="M540.14,378.13c1.84,1.44,3.74,2.8,5.66,4.11A.15.15,0,0,0,546,382c-1.91-1.32-3.8-2.68-5.64-4.12a.16.16,0,0,0-.19.26Z"/><path d="M550.58,394.58a.16.16,0,0,0-.11.19.12.12,0,0,0,.16.09.18.18,0,0,0,.11-.19A.11.11,0,0,0,550.58,394.58Z"/><path d="M546.6,400.32a3.29,3.29,0,0,0-1,0,.11.11,0,0,1-.13-.08.35.35,0,0,1-.31.21,34.29,34.29,0,0,1-7.4-1.7,1,1,0,0,1-.26.23.78.78,0,0,1-1,0l-.19-.21c-.82-.73-1.66-1.41-2.46-2.15a1.57,1.57,0,0,1-.8-.12,24.76,24.76,0,0,1-3-.4.64.64,0,0,1-.1.35.51.51,0,0,1-.69.2l-.34-.18.83.78a.29.29,0,0,1,.1.12c.34.21.7.42,1.07.61a35.74,35.74,0,0,0,10.43,2.91.13.13,0,0,1,.15.13c0,.08-.06.17-.14.17-2.63.24-5.26,1.05-7.86.69a65,65,0,0,1-9-1.82c-2.66-1.57-5.5-2.38-8.49-3.51-1.11-.42-2.18-.86-3.22-1.34-3.21-1.51-6.22-3.2-9.29-4.95a3.33,3.33,0,0,1-1.76-4.36,3.37,3.37,0,0,1,2.34-1.94l-.37-.24-.5-.55a2.93,2.93,0,0,1-.72-1.92l0-.91c.17-1.58-.13-3.17.18-4.76l.4-.43,0-.2a3,3,0,0,1,.1-1.75l.39-.57a6.75,6.75,0,0,1,1.69-1.6,2.54,2.54,0,0,1,.53-.68,3.42,3.42,0,0,1,1-2.06.47.47,0,0,1,.4-.55.46.46,0,0,1,.26,0h0a4.21,4.21,0,0,0,0-.51,2,2,0,0,1-.18-.22l-.61-.65a2.29,2.29,0,0,1-.18-.78c.3-1.26.3-1.26.62-1.69l.14-.09c-.17-.31-.18-.33-.22-.42a1.76,1.76,0,0,1,0-.25c.14-.25.14-.25.15-.37a1.19,1.19,0,0,1,.1-.19c.3-.19.3-.19.35-.27l.16-.08.35,0,0,.85.21-.17-.08.34.11-.29.08.27-.07-.36a2.22,2.22,0,0,0,.56.45.85.85,0,0,0,.38.17.69.69,0,0,1,.07-.15l.79.76a1,1,0,0,1,0,.24.23.23,0,0,1,.28,0l.21.18h.07v0h.34l1.2,0a2.74,2.74,0,0,1,.32.36c0-.06,0-.13-.05-.19s.19-.33.16-.37a17,17,0,0,0-2.57-2.85.41.41,0,1,1,.32-.75,9,9,0,0,1,7.11,4.09c.51.47,1,.92,1.57,1.38V366l.35.45,0,0-.1-.64-.16-.27a26.23,26.23,0,0,1-3.19-3.61,23.29,23.29,0,0,1-1.43-2.13.38.38,0,0,1-.07-.52.36.36,0,0,1,.51-.06c2.43,1,4.83,2.82,5.76,5.36a2.15,2.15,0,0,1,.9,1.07h0l0-.51c.26.27.24.67.45,1l.19-.55c1.33,1.2,3,2,4,3.57a.86.86,0,0,1,.13.14,5.54,5.54,0,0,1,2.26.35l-.53-.52a3.28,3.28,0,0,1,1.56.47,4.81,4.81,0,0,1,2.17,4.11c2.59,1.32,5.16,2.67,7.83,3.83a.29.29,0,0,1,.13.39.31.31,0,0,1-.38.18,40.56,40.56,0,0,1-6-2.19,40.1,40.1,0,0,0,4.27,3.26l.64.29a1.71,1.71,0,0,1,.54.43,36.06,36.06,0,0,0,6.06,3.21c1.91.7,3.62,1.26,5.62,1.83a31.85,31.85,0,0,1,7.77,2.85.71.71,0,0,1,.3,1,.78.78,0,0,1-1,.46c-5.67-1.79-11.39-3.28-16.5-6.55l-1.62-1.05-.08.16a1.27,1.27,0,0,1-.46.46c.59.42,1.18.88,1.74,1.36a17.51,17.51,0,0,1,5.77,2.55,21.16,21.16,0,0,1,3,3.16c1.64.65,3.32,1.25,5,2a.13.13,0,0,1,.09.17.15.15,0,0,1-.17.13,29.44,29.44,0,0,1-3.87-.77,1.56,1.56,0,0,1-.25,1,1.62,1.62,0,0,1-.86.66l.72.46a.37.37,0,0,1-.37.62l-3-1.85c-1.31-.52-2.6-1.06-3.88-1.64a2.34,2.34,0,0,1-.14,1h0l.57.31a37.17,37.17,0,0,1,11.15,4.83.16.16,0,0,1,0,.22.15.15,0,0,1-.2.07,32.44,32.44,0,0,0-3.17-1.86h0a.17.17,0,0,1-.11.19.13.13,0,0,1-.17-.09.19.19,0,0,1,.11-.19,38.27,38.27,0,0,0-6.38-2.51,48,48,0,0,1,5.34,3.19l.76,0a.16.16,0,0,1,.08.19.18.18,0,0,1-.17.12l-.21,0a.84.84,0,0,1,.14,1.12.8.8,0,0,1-1.09.33c-1-.47-1.94-1-2.89-1.51l-.35-.11-.42,0q2,1.53,4,3.14a.27.27,0,0,1,.08.39.29.29,0,0,1-.38.14,71.9,71.9,0,0,1-8.43-3.31l-3.68.37a3.53,3.53,0,0,0,.32.21c2.81,1.66,6.24,1.29,9.18,2.53.08,0,.1.12.07.2a.16.16,0,0,1-.2.08,35.89,35.89,0,0,0-4.61-1,32.88,32.88,0,0,0-3.83-.7c2.17,1.06,4.62,1.46,6.88,2.33a.22.22,0,0,1,.19.21.26.26,0,0,1,.11-.07,4.49,4.49,0,0,1,1.1,0c.07,0,.12.08.1.17S546.69,400.31,546.6,400.32Zm-32.48-30.77a.62.62,0,0,1,0-.13l.12.28-.05.76Zm-5,0h0c0-.25,0-.43,0-.43C509.13,369.27,509.13,369.41,509.12,369.52Zm25.34,8a12,12,0,0,1-2.94-2.44l.85.37C533.08,376.14,533.77,376.83,534.46,377.56ZM513,365.84a5.9,5.9,0,0,1,.2,1.58,2.17,2.17,0,0,1,.73.32,17.25,17.25,0,0,1,1.71,1.32c0-.25.17-.14.26-.12l.26.08c-.56-.53-1.1-1.07-1.65-1.64A15.66,15.66,0,0,1,513,365.84ZM508,364v-.1l.3-.24Zm-.5.42.06.1C507.45,364.59,507.45,364.53,507.49,364.4Zm.61.89a.79.79,0,0,0,0-.24Zm-4.81,9.51,1.25-1.36-1.25,1.28Z"/></svg>