<svg id="Layer_1" data-name="Layer 1" xmlns="http://www.w3.org/2000/svg" viewBox="0 0 1080 906.86"><path d="M539.1,276.46c.15.23.31.45.45.67a2.89,2.89,0,0,1-1.52-.77,25.67,25.67,0,0,0,4.26,4.08,39.51,39.51,0,0,0,4.89,3,35.62,35.62,0,0,0,5,2.16,42.2,42.2,0,0,0,4.64,1.52c1.69,1.29,3.48,2,4,1.35s-.4-2.44-2.11-3.91a12,12,0,0,1-1-1.19,46.4,46.4,0,0,0-3.49-5c-1.34-1.63-2.81-3.39-4.43-5.15l1.74,2.45a23.26,23.26,0,0,0-2.95-2.92c.06.26.13.58.19.83a22.74,22.74,0,0,0-5.5-5,8.93,8.93,0,0,0-5.52-1.62c-3.07.47-3,4.31,0,7.92Z"/><path d="M543.53,286.29c-1.81-1.75-3.53-3.61-5.26-5.53l-.28-.58-.38,1.75.08-.09a8.79,8.79,0,0,1,4,.47,30,30,0,0,1,4.43,1.73l1.07.42a1.23,1.23,0,0,0,1.18-.21c.49-.55-.13-1.78-1.39-2.78-.49-.39-1-.75-1.46-1.1a30.67,30.67,0,0,0-2.9-2.42,21.06,21.06,0,0,0-3.32-2.12c-2.25-1.08-4.43-1.61-5.89-.67-.66.43-.5,1.58-.62,2.46-.47,1.13.64,2.92,2.44,4s3.63,1,4.1,0l.87.77-.86,0c.82-.66,2.55.12,4,.36l1.94.84-.23-3-1.08-.28c0,.15.13.39.12.39-2.07-.43-4-.91-6.2-1.57l-2.83-.45c-.84.12-1,.95-.37,1.83l.95,1.18-.4-.61c1.21,1,2.47,1.87,3.73,2.86s2.49,1.92,3.67,2.88a1.29,1.29,0,0,0,1.17.37C544,287,543.91,286.62,543.53,286.29Z"/><path d="M534.29,281.74a3.69,3.69,0,0,0-1.32-1.13l-.32.09.69.9C533.84,282.24,534.21,282.14,534.29,281.74Z"/><path d="M532.65,280.7l-.29-.38c0,.13.11.26.16.38s.07,0,.07,0Z"/><path d="M664.67,329.39c-.8-2.83-1.7-5.73-2.75-8.74-.26-.75-.52-1.5-.81-2.27l-.9-2.44q-.94-2.58-2-5.07c-2.72-6.71-5.73-12.91-9-19.35l-5.19-10.22-1.42-2.8-1.45-2.95-1.5-3.1-.79-1.66-.91-2c-1.12-2.5-2.1-4.87-3-7.23s-1.8-4.71-2.62-7c-1.65-4.69-3.12-9.38-4.45-14.11-.35-1.27-.85-2.28-1.13-2.27s-.18,1,.16,2.23q2,7.13,4.43,14.18c1.66,4.72,3.42,9.34,5.61,14.32l.89,1.95.83,1.76,1.5,3.11,1.45,3c.48,1,1,1.9,1.42,2.81l5.19,10.2c3.25,6.4,6.24,12.53,9,19.17,1.33,3.24,2.7,6.93,3.71,9.73q1.57,4.47,2.78,8.65c.26.75.6,1.34.85,1.42S664.88,330.11,664.67,329.39Z"/><path d="M677.49,84.52c-.4.73-.23.81.4.22a11,11,0,0,0,1.77-2.24c.34-.61.15-.73-.39-.22A11.06,11.06,0,0,0,677.49,84.52Z"/><path d="M685.12,98.75A86.08,86.08,0,0,0,680,110.23a9.19,9.19,0,0,1-.9,1.86c.4-.07.3.83-.25,2.33-1.43,3.66-2.48,7.46-3.67,11.18-.51,1.9-.94,3.81-1.43,5.7-.23.95-.5,1.89-.71,2.84l-.53,2.88c-.34,1.92-.76,3.82-1,5.74s-.59,3.82-.74,5.77l-.29,2.89c-.1,1-.13,2-.2,2.92-.16,1.93-.21,3.88-.27,5.82a167.12,167.12,0,0,0,5.75,46.59,3,3,0,0,1,1.24,1.11c1.5,1.92,3,6,4,10.37l.67,3.33A168.28,168.28,0,0,0,687.67,241c.59,1.53,1.21,3.06,1.79,4.4l.46,1,.56,1.23,1.16,2.51c1.6,3.38,3.27,7,4.92,10.82a64.53,64.53,0,0,1,5.66,10.45,172.15,172.15,0,0,1,8.95,20.77c.61,1.78,1.23,3.56,1.81,5.35l.85,2.69c.28.9.56,1.78.83,2.77a112.31,112.31,0,0,1,2.79,12c.13-1.11.36-1.81.7-1.87.86.15,2,4,2.18,8.71.13,2.39.19,4.8.14,7.23a117.2,117.2,0,0,0-.84-20.47c-.14-.95-.24-1.84-.32-2.64-.31-1.78-.67-3.55-1-5.3s-.75-3.26-1.12-4.9-.84-3.3-1.27-4.95-.93-3.32-1.41-5a167.3,167.3,0,0,0-7.93-21.17c-3.08-6.7-6.47-12.9-9.49-18.14l-2.1-3.67c-.53-.91-1.14-2.05-1.72-3.19-1.18-2.29-2.35-4.72-3.45-7.18-2.23-4.93-4.24-10-6-15.18A200.8,200.8,0,0,1,675.5,186a151.29,151.29,0,0,1-2.35-31.92,5.23,5.23,0,0,1,.4-2.36c.26-.37.51-.24.5.55a107.6,107.6,0,0,0,2.2,19.6,164.12,164.12,0,0,0,4.94,18.5c1,3,2.09,6.07,3.2,9.12s2.36,6.1,3.63,9.19c2.55,6.17,5.39,12.51,8.56,18.95.94,1.91,1.92,3.79,2.92,5.59s2,3.56,3,5c.23.36.47.7.65.93.26.39.6.95.9,1.41l1.92,3c1.38,2.14,2.71,4.38,4.16,6.84s2.82,5,4.24,7.69,2.71,5.49,4,8.35A176.7,176.7,0,0,1,725,284.18c1,3,1.82,6,2.65,8.94l1.18,4.46c.4,1.61.81,3.28,1.16,5a111.51,111.51,0,0,1,2.65,21.35,109.57,109.57,0,0,1-1.93,23.18c-.39,2-.8,3.94-1.32,5.91-.26,1-.49,1.94-.8,3l-1,3.1a90.39,90.39,0,0,1-4.78,11.88,91.31,91.31,0,0,1-14.9,20.56,97.6,97.6,0,0,1-18.1,14.64,104.52,104.52,0,0,1-39.93,14.64,80.36,80.36,0,0,1-20.79.42,71.17,71.17,0,0,1-10.32-1.88c-1.71-.47-3.38-.93-5-1.53l-1.25-.43-.63-.22-.76-.29c-1-.39-2-.78-3-1.21s-1.91-1-2.84-1.49-1.76-1.14-2.63-1.7a24.8,24.8,0,0,1-2.43-1.82l-1.16-1c-.37-.32-.71-.67-1.06-1A45,45,0,0,1,591,400a70.6,70.6,0,0,1-7.92-18.22c-.62-2.06-1.13-4.23-1.56-6.22s-.87-4-1.31-6c-.85-4-1.69-8-2.62-12a76.3,76.3,0,0,0-3.25-11,34.37,34.37,0,0,0-4.83-8c-.5-.48-.91-1-1.41-1.41l-.94-.81a9,9,0,0,0-.77-.57,13.29,13.29,0,0,0-1.57-1,31.09,31.09,0,0,0-3.35-1.72l-1.78-.71c-.61-.22-1.27-.41-1.88-.62s-1.25-.38-1.91-.54-1.28-.33-2-.47c-1.42-.25-2.66-.56-4.16-.7l-2.13-.24-2.25-.16c-.57,0-1.11,0-1.63-.1s-1.07-.11-1.55-.2a9.36,9.36,0,0,1-2.51-.82,2.86,2.86,0,0,1-2-3.11c.31-1.61,2-3.06,4.43-3.78l-1.17-.18-1.73-.54a7.65,7.65,0,0,1-1.13-.47,6.41,6.41,0,0,1-1-.54,4.51,4.51,0,0,1-1.39-1.4l-.9-1.37a22.23,22.23,0,0,0-2.06-3.8,14.42,14.42,0,0,1-1.84-4.15l.65-.94-.26-.37a4.52,4.52,0,0,1-1.42-3.25l.49-1.25a9.27,9.27,0,0,1,3.05-3.55,3,3,0,0,1,.81-1.41,4.24,4.24,0,0,1,.69-4.26c-.38-.57-.13-1.08.56-1.14a2.11,2.11,0,0,1,.77.11h0a10.42,10.42,0,0,0-.49-1.08l-.73-.53c-1.27-.75-1.27-.75-2.37-1.44a7.25,7.25,0,0,1-1.3-1.78c-.45-2.86-.45-2.89,0-3.84a2.2,2.2,0,0,1,.3-.19c-.8-.77-.86-.84-1.07-1.06a3.86,3.86,0,0,1-.32-.62c.12-.59.12-.59,0-.87a2,2,0,0,1,.07-.45c.68-.38.68-.37.74-.55a1.72,1.72,0,0,1,.36-.16l1,.19.86,2.08.41-.35.11.79v-.67l.53.68-.57-.89a10.09,10.09,0,0,0,2,1.26,4.52,4.52,0,0,0,1.24.52,1.23,1.23,0,0,1,0-.33c1.53,1,1.53,1.08,3,2.14a5.06,5.06,0,0,1,.25.55,1,1,0,0,1,.82.21l.78.52h.2v0l.77.12.16,0h0c.53.07,1.3.21,3.32.67.46.34.87.69,1.25,1-.1-.15-.21-.29-.3-.44-.19-.31.19-.6.07-.72-.75-.74-1.55-1.46-2.37-2.18s-1.66-1.35-2.52-2c-1.72-1.29-3.5-2.74-5.27-4-.68-.3-1.22-1-1.19-1.43s.62-.58,1.32-.24a27.25,27.25,0,0,1,6.35,2.16,38.88,38.88,0,0,1,6.33,3.66,65.81,65.81,0,0,1,11.33,9.83c.91.8,1.82,1.71,2.73,2.54s1.81,1.65,2.7,2.58l-.18-.4,1.3,1.53.14.15-.75-1.52-.66-.85c-1-1-2.07-2-3.07-3l-1.49-1.54-1.47-1.47c-1-1-2-2-3-3.08s-2-2-3-3-2.15-2.18-3.15-3.22-2-2.19-3-3.3c-.59-.48-.9-1.07-.71-1.35s.82-.09,1.4.38a74.78,74.78,0,0,1,11.8,9.15c.93.87,1.83,1.74,2.68,2.61s1.69,1.85,2.46,2.76,1.5,1.8,2.17,2.73,1.29,1.87,1.85,2.77a21.28,21.28,0,0,1,1.77,1.93,18,18,0,0,1,1.4,2l.05.06c-.16-.41-.32-.79-.48-1.2.86,1.08,1.11,1.92,1.84,2.92,0-.27.06-.57.09-.84l3.18,4c1,1.4,2,2.83,3,4.26a42,42,0,0,1,4.56,9.05c.09.24.18.46.27.68a31.39,31.39,0,0,1,2,3.59,8.94,8.94,0,0,1,.43,1l.11.29.36,1.09a22.7,22.7,0,0,1,.63,2.22c.19.75.38,1.51.53,2.26s.26,1.45.39,2.19.2,1.49.29,2.24.17,1.51.21,2.28a56.43,56.43,0,0,0-.69-6.21c-.14-1-.43-2.14-.66-3.23-.11-.55-.27-1.08-.43-1.62l-.42-1.45.51,1.54c.19.58.36,1.15.5,1.75.29,1.17.59,2.35.75,3.45s.39,2.23.51,3.36.21,2.25.28,3.38a113.93,113.93,0,0,1-.39,12.75,50.56,50.56,0,0,0,1.3,15.71c.32,1.27.64,2.53,1.07,3.77.2.61.39,1.23.59,1.85l.67,1.72a49.07,49.07,0,0,0,3.1,6.43,35.34,35.34,0,0,0,7.67,9.31,23.92,23.92,0,0,0,6.83,4l.66.15c.21,0,.44,0,.66.07.44,0,.85.12,1.28.1l1.26,0,1.62-.07a46.51,46.51,0,0,0,6.55-.81c1.09-.24,2.16-.42,3.23-.74l1.59-.42,1.57-.51c1-.3,2.08-.72,3.11-1.08s2-.82,3-1.25a61.7,61.7,0,0,0,11.24-6.52,54.94,54.94,0,0,0,9.25-8.59,48.56,48.56,0,0,0,6.62-9.8,40.68,40.68,0,0,0,3.54-10.06,31.32,31.32,0,0,0,.49-9.37l-.11-1.1-.14-1.23c-.12-.82-.23-1.63-.4-2.46-.29-1.64-.71-3.3-1.17-5a9.12,9.12,0,0,1-.33-1.87,1.4,1.4,0,0,1,.23-1.06c.39-.17,1.07.74,1.48,2.17a54,54,0,0,1,1.78,7.39,42,42,0,0,1,.6,7,37.53,37.53,0,0,1-3.55,14.84c-4.68,10.1-14.07,19.82-25.73,25.48a60.74,60.74,0,0,0,24.13-19.7A47.09,47.09,0,0,0,671,357.59a36.92,36.92,0,0,0,1.51-6.43c.21-1.05.23-2.13.35-3.16l0-1.58,0-.78v-.85a52.31,52.31,0,0,0-.81-7.06c-.41-2.38-.81-4.74-1.22-7.1-.77-3-1.65-6.1-2.68-9.22-.53-1.55-1-3.12-1.64-4.69l-1.92-5.06q-2-5.09-4.25-9.92c-1.51-3.22-3.08-6.39-4.72-9.56-3.28-6.36-6.95-12.71-11.12-20.69l-.79-1.51-.85-1.67c-.62-1.25-1.19-2.42-1.72-3.57-1.07-2.3-2.07-4.56-3-6.82-1.91-4.52-3.66-9.06-5.3-13.68-1.39-4-2.67-7.86-3.83-11.77s-2.19-7.81-3.1-11.72-1.69-7.82-2.4-11.75c-.34-2-.64-3.94-1-5.9s-.51-4-.73-6c-.41-4-.74-8-.92-12s-.18-8.14,0-12.28a155.05,155.05,0,0,1,7.52-43.17c1-2.85,2.09-5.67,3.15-8.47l.8-2.1.91-2c.61-1.35,1.23-2.7,1.84-4a157.16,157.16,0,0,1,18-29.33A171.26,171.26,0,0,1,702.8,40.93c2.53-1.46,5.08-2.69,7.07-3.6a14.27,14.27,0,0,1,4-1.33c.92.07-2.53,2.28-7.47,5.25a177,177,0,0,0-50.47,46.36l-2.56,3.63c-.83,1.23-1.72,2.41-2.48,3.69-1.57,2.54-3.17,5.07-4.7,7.66l-4.24,8c-1.34,2.71-2.55,5.52-3.79,8.3l-.92,2.1-.8,2.16-1.59,4.33c-.51,1.45-1.1,2.87-1.54,4.36l-1.33,4.44c-.47,1.49-.8,3-1.2,4.49s-.77,3-1.06,4.51l-.95,4.54-.76,4.56a163.38,163.38,0,0,0-1.5,36.66q.63,9.11,2.13,18.06c1,6,2.23,11.87,3.72,17.71s3.23,11.63,5.18,17.37,4.11,11.41,6.64,17.2c.64,1.45,1.3,2.9,2,4.44l.57,1.19.52,1,1,2c1.31,2.55,2.59,5.05,3.84,7.38,2.48,4.73,4.77,9.08,6.93,13.47a209.71,209.71,0,0,1,9.79,23,.81.81,0,0,1,.39-.33c.62-.21,1.52.44,2.41,1.49-1.49-4.49-3.12-9.08-4.88-13.49s-3.63-8.77-5.61-13.17c-3.32-5.85-7-11.67-10.8-18.51l-1.45-2.61-.36-.66-.42-.78-.79-1.55c-1-2-1.94-3.94-2.82-5.89-1.77-3.9-3.37-7.8-4.85-11.76A170.61,170.61,0,0,1,628.8,196a145.35,145.35,0,0,1,.18-18.1c.19-3,.54-5.89.88-8.79.19-1.46.44-2.9.66-4.34s.48-2.87.77-4.29a143.77,143.77,0,0,1,10.41-32.63,156.26,156.26,0,0,1,19.47-37.39,173.28,173.28,0,0,1,27.59-30.56,9.78,9.78,0,0,1,2.1-1.59c.4-.16,0,.32-.74,1.07a179.54,179.54,0,0,0-19.24,21A168.48,168.48,0,0,0,654.79,105c2.21-2.38,3.87-3.56,4.51-2.93s.14,3.08-1.14,6.47l3.36-5.65c.57-.93,1.1-1.89,1.71-2.8l1.82-2.71c1.53-2.23,3-3.8,3.31-3.51s-.54,2.25-1.94,4.37L664.61,101c-.6.93-1.13,1.89-1.7,2.84-1.11,1.91-2.26,3.8-3.33,5.74-2,4-4.14,7.85-5.83,12A141.89,141.89,0,0,0,645.24,147c-4.16,21.16-3.42,42.81.69,63.52.29-3,.89-5.29,1.82-6.45h0c-.48-3.2-.89-6.39-1.2-9.59a146.22,146.22,0,0,1,.21-44.78,135.51,135.51,0,0,1,14.94-43l2.78-5,3-4.84c1-1.61,2-3.22,3.16-4.76L674,87.34A186.11,186.11,0,0,1,688.75,70,210.92,210.92,0,0,1,723.44,41.1a7.68,7.68,0,0,1,1.9-1.08c.08.06-.63.63-1.51,1.22a207.7,207.7,0,0,0-40.81,36l.05,0c.57-.49.81-.47.38.22a13.61,13.61,0,0,1-1.87,2.16c-.65.56-.76.38-.39-.21-10.9,13.06-20.13,27.74-26.25,43.74-1.68,3.94-2.8,8.08-4.11,12.14-.6,2-1.07,4.14-1.6,6.2s-.88,4.17-1.27,6.26a139.22,139.22,0,0,0-2.11,25.21,140.85,140.85,0,0,1,9-45.68,152.37,152.37,0,0,1,10.06-21c1.85-3.4,4-6.6,6.11-9.83,1-1.63,2.23-3.14,3.33-4.71s2.22-3.14,3.45-4.61c1.88-2.77,3.7-5.59,5.8-8.26a8.18,8.18,0,0,1,1.81-1.76c.28-.11,0,.52-.61,1.26l-1.7,2.25a44.22,44.22,0,0,1,5.15-5.19c1.45-1.16,2.47-1.71,2.76-1.39s-.35,1.64-1.47,3.33A60,60,0,0,1,685,83.55c-9.55,12.62-17.8,26.24-23.51,40.94l-1.67,4.82-1,5.06a153.42,153.42,0,0,1,15.75-32.75,200.79,200.79,0,0,1,22.1-28.72c1.4-1.53,2.76-2.68,3-2.52S699,72,697.59,73.5C684.1,89.82,673.15,108.29,666.68,128c-6.66,19.65-8.17,40.52-6.09,61a183.46,183.46,0,0,0,14.15,38.38c-.46-1.63-.93-3.28-1.4-4.93a281.75,281.75,0,0,1-7-30.81,177,177,0,0,1-2.53-30.17,133.62,133.62,0,0,1,1-15.06c.11-1.27.37-2.5.55-3.76s.37-2.52.67-3.76c.56-2.49,1.06-5,1.69-7.52a125.31,125.31,0,0,1,12.1-29.62,3.73,3.73,0,0,1,1.36-1.71c.23,0-.05.72-.59,1.71a122.32,122.32,0,0,0-11.49,28.74l-.5,1.81-.39,1.84-.76,3.66c-.56,2.42-.89,4.89-1.27,7.35-.61,4.95-1.05,9.93-1.18,15A147.42,147.42,0,0,0,671.77,208c-3.43-15.49-5.41-30.9-5-46.34.06-1.93.18-3.85.28-5.78s.28-3.86.55-5.77.44-3.86.8-5.76l.49-2.87c.18-1,.42-1.9.63-2.86.43-1.91.87-3.83,1.31-5.74l1.71-5.69c.51-1.93,1.25-3.79,2-5.67l1.06-2.83.54-1.42.61-1.39a14.42,14.42,0,0,1,1.8-3.29,1.41,1.41,0,0,1,.1-.85,58,58,0,0,1,2.36-6c.46-1,.91-2,1.37-3.09s1-2,1.57-3.06a6.57,6.57,0,0,1,1.44-2C685.68,97.3,685.54,97.86,685.12,98.75ZM556.66,300l-.13-.24.58.64.51,1.43ZM543,297.16h0c-.2-.5-.34-.87-.34-.87C542.79,296.65,542.9,296.93,543,297.16Zm115,82a60.22,60.22,0,0,1-19.34,12.54,56.53,56.53,0,0,1-22.78,4.38,48.69,48.69,0,0,0,11.29-1.34A66.38,66.38,0,0,0,658,379.18ZM550.08,291.44a20.85,20.85,0,0,1,2,3.51,14.27,14.27,0,0,1,2.31,1.22l2.95,2.1c1,.7,1.92,1.39,2.82,2.17-.09-.47.35-.1.6,0l.76.45c-1.91-1.73-3.89-3.27-5.9-5C553.86,294.41,551.79,293,550.08,291.44Zm-15.77-6.55-.14-.26.61-.47Zm-1,.84.29.24C533.43,286.17,533.36,286,533.33,285.73Zm2.64,2.15a2.07,2.07,0,0,0-.3-.53Zm-3.88,19.65c.7-1,1.39-1.95,2.09-2.9-.72.9-1.43,1.82-2.15,2.75Z"/><path d="M318.79,186.78l.64,0a1.71,1.71,0,0,1-.94,1,15.57,15.57,0,0,0,7.72-4.36,40.85,40.85,0,0,0,3-3.46,25.55,25.55,0,0,0,2.31-3.78c1.51-.82,2.54-2.27,2.09-3.44s-2.19-1.48-3.87-.66a5.93,5.93,0,0,1-1.23.22,20.69,20.69,0,0,0-5,.29,25.51,25.51,0,0,0-2.64.58c-.85.26-1.71.56-2.57.89l2.32-.36a11.38,11.38,0,0,0-2.94,1.38l.73.3a10.18,10.18,0,0,0-5.14,2.87A8,8,0,0,0,311,183c-.15,3.29,2.78,5,6.24,4.16Z"/><path d="M327.82,188.74c-1.9.44-3.89.78-5.73,1.28l-.54-.1,1.34,1.36-.06-.11c.1-2.29,1.93-4.43,3.69-6.32l.57-.76a1.65,1.65,0,0,0,.06-1.3c-.36-.87-1.51-1.08-2.59-.47l-1.23.71c-3.54,1.13-7.58,4.77-6.74,8.31.21.81,1.14,1.25,1.8,1.82a2.63,2.63,0,0,0,3.66,0,2.75,2.75,0,0,0,.9-3.61l.8-.34-.2.77c-.4-1.15.67-2.23,1.2-3.37l1.16-1.26-2.57-1.73-.48.85.35.13c-.44.83-.84,1.64-1.28,2.43a23.74,23.74,0,0,1-1.32,2.41l-1,2.28a1.21,1.21,0,0,0,1.37,1.33l1.16-.18h-.58c1.06-.49,2.1-1.05,3.13-1.59a28.16,28.16,0,0,1,3.25-1.4.8.8,0,0,0,.6-.79A.54.54,0,0,0,327.82,188.74Z"/><path d="M322,194.05a1.85,1.85,0,0,0-1.2.51v.32l.87-.1C322.28,194.71,322.29,194.34,322,194.05Z"/><path d="M320.79,194.88l-.36,0,.33.07,0-.06Z"/><path d="M450,310.51c9.44-8.39,16.22-22.24,20.11-37.17A139.1,139.1,0,0,0,474,250.05a204.07,204.07,0,0,0,.25-24.56,5.38,5.38,0,0,0-.33-2.15,4.4,4.4,0,0,0-.12,1.91,203.17,203.17,0,0,1-.24,24.51,137.94,137.94,0,0,1-3.83,23.18c-3.83,14.85-10.57,28.6-19.83,37a3.44,3.44,0,0,0-1.06,1.27C448.86,311.34,449.37,311,450,310.51Z"/><path d="M546.43,94.74c-.9.08-.86.19.06.26.4,0,1,0,1.51,0s1.13.07,1.57.07c.75,0,.73-.13-.05-.26a10.76,10.76,0,0,0-1.61-.17C547.35,94.68,546.8,94.71,546.43,94.74Z"/><path d="M539.76,103.32l-3.14.8c-1,.31-2,.73-3,1.08-.47.19-.95.35-1.41.55l-1.34.69c-.87.46-1.73.86-2.53,1.34a16.8,16.8,0,0,1-1.81,1c.31,0-.37.54-1.69,1.4-1.56,1.2-3.19,2.26-4.65,3.62-.74.67-1.53,1.25-2.22,2l-2.12,2.12a66.75,66.75,0,0,0-7.53,9.53c-1.19,1.66-2.14,3.51-3.2,5.26-.48.91-.92,1.84-1.39,2.76l-.7,1.38-.61,1.42a69.77,69.77,0,0,0-4,11.66l-.68,3c-.19,1-.34,2.08-.51,3.11-.4,2.06-.56,4.2-.81,6.31-.14,1.05-.16,2.14-.24,3.2s-.14,2.14-.18,3.22L496,172l0,1.63,0,1.64a261.08,261.08,0,0,0,2,26.8,4.68,4.68,0,0,1,.6,1.51,77,77,0,0,1,1.91,13l.24,4.09c.57,8.29,1,16.78.77,25.45a169.52,169.52,0,0,1-2.61,25.87c-.19,1.78-.37,3.71-.73,5.73-.18,1-.36,2.06-.54,3.13s-.48,2.15-.72,3.27a122.75,122.75,0,0,1-6.62,22.42,105.76,105.76,0,0,1-5.21,11l-1.59,2.72-.81,1.36-.88,1.33-1.77,2.66-1.94,2.59c.8-.75,1.36-1.15,1.51-1s-.43,1.27-1.35,2.65c-.45.7-1.08,1.44-1.75,2.27s-1.41,1.7-2.29,2.54l-2.59,2.58c-.89.85-1.83,1.65-2.76,2.46a84.47,84.47,0,0,0,14.25-15.15c.56-.8,1.15-1.51,1.61-2.19a102.77,102.77,0,0,0,10-19.54c5.75-14.79,8.3-29.75,9.18-44.34a181.47,181.47,0,0,0-.08-21.64c-.44-7-1.17-13.85-2-20.49-1.62-13.28-3.44-25.84-4-38a120.09,120.09,0,0,1,.39-17.85l.21-2.18.33-2.15c.21-1.43.4-2.89.72-4.21l.43-2.05c.14-.69.37-1.36.55-2l.57-2c.18-.68.45-1.33.68-2a13.77,13.77,0,0,1,1-2.38c.28-.35.33-.24.08.55s-.53,1.7-.79,2.54c-.13.43-.28.84-.39,1.27l-.3,1.27c-.21.84-.41,1.68-.61,2.52s-.29,1.68-.43,2.52c-.33,1.61-.45,3.43-.65,5.14l-.14,1.29-.07,1.31-.13,2.62a139,139,0,0,0,1.11,21.38c.87,7.33,2.15,14.93,3.49,23.1s2.74,17,3.66,26.73c.15,1.45.26,2.92.36,4.41s.23,2.95.3,4.45l.19,4.52.07,4.54a180.91,180.91,0,0,1-.85,18.26,145.21,145.21,0,0,1-8.32,37c-1.17,3.09-2.46,6.17-3.92,9.24s-3.07,6.09-4.93,9.16A92.39,92.39,0,0,1,477,342.49a76.07,76.07,0,0,1-19.15,14.15L455,358.06c-.95.47-2,.85-3,1.27s-2,.83-3.07,1.18l-3.23,1-1.62.48c-.56.14-1.13.26-1.69.38-1.13.25-2.26.49-3.4.71s-2.33.33-3.51.48l-3.84.39a61.42,61.42,0,0,1-16.24-1.74,54.76,54.76,0,0,1-14.94-6.15,53.24,53.24,0,0,1-12.4-10.15,54.87,54.87,0,0,1-8.74-13.39,46.18,46.18,0,0,1-2.86-7c-.45-1.32-.78-2.58-1.12-3.86s-.61-2.52-.8-3.69a76.17,76.17,0,0,1-1.24-13.44,100.06,100.06,0,0,1,.67-11.88c.24-1.84.45-3.75.77-5.52l.45-2.7c.16-.91.31-1.62.46-2.45.59-3.18,1.32-6.43,2.08-9.64s1.62-6.35,2.36-9.12a85.11,85.11,0,0,0,2.72-13.36c.12-1.09.25-2.16.35-3.33s.19-2.34.28-3.55l.06-.9c0-.29,0-.44,0-.66V240.2c0-.41,0-.75-.06-1.12a6.56,6.56,0,0,0-.08-1c0-.32-.08-.63-.11-.95s-.13-.54-.18-.81a3.53,3.53,0,0,0-.19-.73,3.43,3.43,0,0,0-.21-.64,8.62,8.62,0,0,0-1.08-2.09,30.83,30.83,0,0,0-2.88-3.77c-.73-.83-1.55-1.75-2.52-2.76l-.74-.77-.18-.19-.09-.09,0,0-.13-.05a1.64,1.64,0,0,1-.46-.29c-.64-.19-1-.42-1.4-.28l-.12,0-.16.06a.42.42,0,0,1-.27,0,.72.72,0,0,1-.34.1c-.06,0-.09,0-.16,0a1.19,1.19,0,0,1-.22.08c-.14.06-.25,0-.41.06l-.26.1-.06,0-.16.11c-.11.08-.19.06-.33.18a2.62,2.62,0,0,1-.75.43c-1.09.64-2.46,1.3-4.1,2.25-.51.67-1.36.59-2.41,0a10.3,10.3,0,0,1-3.4-3,9.27,9.27,0,0,1-2-5.66,5.09,5.09,0,0,1-.5.3l-1,.16a5.22,5.22,0,0,1-3.26-.92l-1.48-.79c-2.5-1.74-5.43-2.66-8.16-4.4l-.6-1-.38-.1a6.29,6.29,0,0,1-3.17-1.4l-.88-1.11a13.46,13.46,0,0,1-2.07-4.32,4.79,4.79,0,0,1-.95-1.49,6.73,6.73,0,0,1-3.34-3.26.94.94,0,0,1-.8-1.15,1.17,1.17,0,0,1,.27-.53h0a7.56,7.56,0,0,0-1-.3c-.37.17-.6.25-.6.25-.95.51-.95.51-1.79.94a5.32,5.32,0,0,1-1.76,0c-2.4-1.27-2.42-1.25-3.06-2.14a2.58,2.58,0,0,1-.09-.35c-.8.23-.86.24-1.08.29a2.42,2.42,0,0,1-.56-.07c-.44-.4-.44-.4-.68-.46a2.81,2.81,0,0,1-.34-.3c-.14-.75-.14-.75-.26-.9a1.75,1.75,0,0,1-.05-.39l.37-.74,1.85.4-.19-.54.66.36-.54-.38.67-.07h-.84a5.79,5.79,0,0,0,1.47-1,2.48,2.48,0,0,0,.72-.75c-.16-.13-.26-.23-.26-.23a22.63,22.63,0,0,1,2.41-1.33,2.83,2.83,0,0,1,.52.14.63.63,0,0,1,.37-.57l.63-.34.06-.16,0,0,.29-.59.06-.14h0l1.3-2.6a6.43,6.43,0,0,1,1.14-.45l-.46,0c-.3,0-.46-.61-.59-.58a27.74,27.74,0,0,0-4.6,1.74c-.76.36-1.52.73-2.26,1.12L321,190.18a1.09,1.09,0,0,1-1.4.26.9.9,0,0,1,.08-1.33,22.18,22.18,0,0,1,1.32-2.44,17.85,17.85,0,0,1,1.78-2.22,25.37,25.37,0,0,1,4.4-3.84,33.81,33.81,0,0,1,5.35-2.75,20,20,0,0,1,2.87-.91c1-.25,2-.45,2.9-.6.94-.31,1.84-.66,2.8-.93l2.9-.81-.37-.15,1.59-.19.16,0-1.47-.5-.87,0c-1.11.36-2.27.61-3.36.9s-2.18.55-3.29.8l-3.35.76c-1.11.28-2.16.63-3.25,1-2.3.82-4.69,1.08-6.89,1.87-.5.3-1,.25-1.25-.13s.09-.91.58-1.21c5.84-5,14.55-9,22-8a8.43,8.43,0,0,1,2.07-.54,7.5,7.5,0,0,1,2.07.07h.07l-1.14-.52c1.13-.14,1.91.35,3,.34l-.7-1c1.38-.21,2.71-.54,4.13-.76s2.87-.42,4.29-.59l2.12-.21c.72,0,1.45,0,2.16,0a24.15,24.15,0,0,1,4.14.53,5.6,5.6,0,0,1,.6,0,23.48,23.48,0,0,1,3.47-1.13c.3-.08.61-.14.92-.2a2,2,0,0,1,.3-.05h1.5c.5,0,1,0,1.51,0l1.55.13c2.07.2,4.17.34,6.3.73s4.31.91,6.49,1.52c-1.46-.46-2.94-.83-4.41-1.21a37.23,37.23,0,0,0-4.43-.94c-1.48-.23-3-.44-4.46-.62l-1.12-.14-1.11-.05-1.94-.09h.92l1.19,0a22,22,0,0,1,2.42.1c1.63.12,3.26.26,4.89.44a20.63,20.63,0,0,1,2.44.39l2.46.5a38.68,38.68,0,0,1,4.89,1.28q2.43.8,4.85,1.69c1.59.67,3.15,1.45,4.72,2.23.78.39,1.57.78,2.33,1.21l2.23,1.42c1.47,1,3,1.92,4.39,3,1.84,1.53,3.73,3.08,5.45,4.75s3.31,3.52,4.79,5.24a110.15,110.15,0,0,1,6.53,9.09,76.5,76.5,0,0,1,5.87,11.06,62.4,62.4,0,0,1,3.85,12.33c.45,2.07.7,4.1.93,6.09.12,1,.15,2,.21,2.93s.11,1.91.09,2.82c0,1.83,0,3.63-.2,5.28q-.11,1.24-.21,2.46c-.12.78-.23,1.55-.34,2.3s-.24,1.49-.35,2.21-.3,1.37-.44,2-.31,1.31-.45,1.95-.31,1.09-.47,1.63c-.31,1-.62,2-.92,2.91s-.65,1.81-1,2.62c-.23,1.53-.58,3.13-.87,4.69s-.66,3.17-1.07,4.77c-.77,3.18-1.7,6.38-2.63,9.25-1.89,5.82-3.45,10.22-4.73,14.92-.31,1.18-.65,2.34-.93,3.55L422,294c-.16.61-.24,1.09-.37,1.64l-.36,1.6-.28,1.56c-.21,1.05-.32,2-.47,3a44.35,44.35,0,0,0-.35,5.53,21.61,21.61,0,0,0,.4,4.13,7.81,7.81,0,0,0,.34,1.26l.26.64.14.34,0,.05-.06-.15v0l0,0,.08.16a5,5,0,0,0,.33.65,9.55,9.55,0,0,0,1.78,2.26,9.81,9.81,0,0,0,5.08,2.48,13.21,13.21,0,0,0,1.41.15,13.26,13.26,0,0,1,1.41,0,4.56,4.56,0,0,1,.82-.09l.49,0a4,4,0,0,0,.5-.09,13.34,13.34,0,0,0,2.06-.4,27.65,27.65,0,0,0,8.82-4.09,11,11,0,0,1,1.73-1.09,3.35,3.35,0,0,1,1.1-.44c.15.06.06.3-.21.66a8.52,8.52,0,0,1-1.4,1.22,32.18,32.18,0,0,1-6.54,3.89,23.18,23.18,0,0,1-6.35,1.74l-.37,0-.31,0a2.11,2.11,0,0,1-.6.06,9.17,9.17,0,0,0-1.17.06,14.39,14.39,0,0,1-2.35-.23,11.24,11.24,0,0,1-4.39-1.87,11,11,0,0,1-3.27-3.61c-.1-.18-.18-.37-.28-.55l-.07-.14,0-.06,0,0h0a.57.57,0,0,0,.05.12l0-.07-.3-.71a8.12,8.12,0,0,1-.4-1.11,16.42,16.42,0,0,1-.55-2.81,37,37,0,0,1,.09-8l.29-2.28.39-2.34c.33-1.61.62-3.12,1.07-5-.19.71-.43,1.5-.58,2.14l-.5,2c-.19.67-.29,1.31-.44,2s-.29,1.31-.38,1.94a45.2,45.2,0,0,0-.78,7.24,23.56,23.56,0,0,0,.44,5.51c.08.35.15.61.28,1l.14.4.14.37.05.11,0,.06c0,.09-.07-.2,0-.11l0,.07.22.52c.13.37.35.68.5,1s.36.67.6,1a12.67,12.67,0,0,0,7.52,5.16,20.22,20.22,0,0,0,2.33.39c.4,0,.8,0,1.19,0,.2,0,.4,0,.6,0l.62-.05a12.3,12.3,0,0,0,1.46-.09c.51-.08,1-.15,1.52-.21s1-.24,1.54-.35l.78-.17.78-.27a30,30,0,0,0,6.41-3.07c.53-.34,1.06-.65,1.59-1s1-.73,1.56-1.08a18.7,18.7,0,0,0,1.56-1.13c.51-.4,1.05-.77,1.56-1.18a55,55,0,0,0,7-7.45c.51-.69,1.07-1.35,1.56-2.07l1.47-2.16c.93-1.52,1.92-3,2.75-4.64s1.68-3.24,2.49-4.88,1.53-3.37,2.18-5.13a99.13,99.13,0,0,0,3.56-10.77,131.8,131.8,0,0,0,4.05-23c.32-4,.53-8,.56-12,0-2,0-4.1-.07-6.17s-.14-4.18-.27-6.32c-.8-14.59-2.59-28.89-3.08-44a174.08,174.08,0,0,1,.66-23.35c.16-2,.49-4,.78-6.07s.7-4.1,1.11-6.16,1-4.2,1.53-6.35c.27-1.09.62-2.14,1-3.19s.71-2.11,1.06-3.18a92.7,92.7,0,0,1,19.17-31.29c1.08-1.1,2.08-2.25,3.24-3.29L505,99.85a76.7,76.7,0,0,1,7.57-5.6,63.39,63.39,0,0,1,17.51-8.06,40.86,40.86,0,0,1,4.8-1.14l2.43-.48c.82-.13,1.66-.2,2.49-.29a41.71,41.71,0,0,1,5-.34h3.76l1.24.1a58.34,58.34,0,0,1,19.14,4.54,70.6,70.6,0,0,1,16.36,9.74c1.19,1,2.45,2,3.59,3l3.38,3.2a90.62,90.62,0,0,1,6.12,6.9l1.52,1.88c.47.63.89,1.27,1.32,1.88.83,1.23,1.59,2.37,2.21,3.4a17.06,17.06,0,0,1,1.88,4c0,.9-2.61-2.86-6.47-7.95a87.2,87.2,0,0,0-13.25-13.59,69.3,69.3,0,0,0-16.74-10.2,58.29,58.29,0,0,0-19.79-4.55c-1.72-.09-3.45,0-5.18,0s-3.43.32-5.15.49a58.34,58.34,0,0,0-9.93,2.35,65.54,65.54,0,0,0-17.66,9.06,80,80,0,0,0-14,13.12,87.85,87.85,0,0,0-10.52,15.58,92.18,92.18,0,0,0-7.1,17.44c-.41,1.53-.85,3.08-1.2,4.6l-.92,4.52c-.34,1.51-.49,3-.73,4.52s-.46,3-.58,4.51a156.08,156.08,0,0,0-.84,17.84c.06,11.74,1.08,23.09,1.92,34.18.43,5.54.8,11,1.05,16.41s.28,10.73.06,16A136.24,136.24,0,0,1,473.56,278a110.23,110.23,0,0,1-4.3,12.51,85.61,85.61,0,0,1-5.74,11.31c.13,0,.26-.09.34,0,.32.18.2,1-.24,2.34a99.61,99.61,0,0,0,11.82-27.21,142,142,0,0,0,3.2-21.31,181.54,181.54,0,0,0,.28-22c-.58-15.07-2.53-31-2.69-48.24a174.47,174.47,0,0,1,.77-17.62c.12-1.45.35-2.91.52-4.35l.29-2.17c.1-.72.25-1.44.37-2.16.27-1.43.51-2.86.79-4.29l1-4.25A88,88,0,0,1,486,134a93.36,93.36,0,0,1,9.1-14.74A79.19,79.19,0,0,1,510.2,103a62.15,62.15,0,0,1,20-10.93A52.73,52.73,0,0,1,553.55,90a58.86,58.86,0,0,1,21.81,7.9,10.81,10.81,0,0,1,2.4,1.67c.31.33-.28,0-1.3-.64a64.93,64.93,0,0,0-14.56-6.41,51.61,51.61,0,0,0-16.17-2.12l-2.07.06c-.68,0-1.36.14-2,.21l-2.05.25-1,.13-1,.21-4,.9c-1.32.35-2.6.82-3.9,1.24a58.3,58.3,0,0,0-14.34,7.39,27.77,27.77,0,0,1,3.59-1.63c.89-.24,1.37-.26,1.37,0s-.55.75-1.41,1.55-2.11,1.81-3.62,3l2.93-1.9,1.48-1,1.55-.82c1-.55,2.07-1.11,3.11-1.64L527.54,97a18.33,18.33,0,0,1,3.52-1.11c.91-.2,1.46-.27,1.46-.14s-.53.4-1.39.75-2,.73-3.29,1.3l-3.27,1.38-3.12,1.65c-.52.29-1.05.54-1.55.85l-1.48,1c-1,.65-2,1.25-2.94,1.94-1.84,1.43-3.76,2.79-5.44,4.39-.86.79-1.77,1.52-2.57,2.36l-2.43,2.5a78.85,78.85,0,0,0-8.5,11A82.56,82.56,0,0,0,490,137a77.51,77.51,0,0,0-4.82,15.9,113.33,113.33,0,0,0-2,16.23l-.19,4.06,0,4.05c0,1.35,0,2.69,0,4s0,2.69.1,4c.21,5.36.56,10.69,1,16a22.75,22.75,0,0,1,.89-6.24,0,0,0,0,1,0,0c-.1-1.65-.19-3.29-.29-4.93s-.13-3.29-.2-4.94a153.09,153.09,0,0,1,.37-22.84c.2-1.91.48-3.82.72-5.74s.7-3.81,1-5.72.91-3.82,1.46-5.7l.9-2.81.46-1.4.54-1.37a83.93,83.93,0,0,1,11.41-20.62,70.1,70.1,0,0,1,17.46-16.3l1.27-.84c.43-.26.89-.49,1.33-.74l2.68-1.46c.88-.5,1.86-.84,2.78-1.27s1.86-.85,2.84-1.17l2.93-.94,1.47-.47,1.51-.32,3-.64c1-.21,2.06-.26,3.08-.39a51.34,51.34,0,0,1,6.21-.25c1,0,2.06.16,3.09.24l1.55.13c.51.07,1,.18,1.53.27l3,.55,3,.82,1.49.43,1.44.53,2.89,1.1a65.45,65.45,0,0,1,20,13.8,87.39,87.39,0,0,1,14.27,19.29,8.26,8.26,0,0,1,1,2.09,6,6,0,0,1-1.16-1.72l-1.76-3.14-1.94-3-1-1.52-1.06-1.46-2.13-2.92A84.21,84.21,0,0,0,582.16,109a67.41,67.41,0,0,0-12-8.36,55.8,55.8,0,0,0-13.84-5.09l.08,0c.77.21.89.35,0,.26a25.09,25.09,0,0,1-3-.56c-.89-.23-.79-.33,0-.26a49.22,49.22,0,0,0-13.82,0c-1.14.18-2.26.46-3.39.69l-1.69.36c-.56.13-1.1.33-1.65.5l-3.27,1c-1.06.43-2.1.9-3.15,1.35l-1.57.68-1.5.82-3,1.64L517.46,104c-.47.32-1,.62-1.4,1l-1.33,1c-.88.7-1.78,1.38-2.64,2.1l-2.48,2.27c-.41.38-.83.75-1.23,1.14l-1.15,1.22-2.29,2.44-2.12,2.58L501.77,119l-1,1.35-1.94,2.7-1.76,2.81c-1.23,1.84-2.19,3.84-3.26,5.76-.5,1-.94,2-1.41,3s-.95,2-1.33,3l-1.2,3.07c-.39,1-.69,2.09-1,3.13-.73,2.07-1.19,4.23-1.74,6.35s-.83,4.27-1.19,6.41-.62,4.29-.77,6.43c.17-2,.54-4,.81-6s.77-3.94,1.15-5.91c.19-1,.5-2,.75-2.94s.49-2,.83-2.93c.67-1.9,1.23-3.85,2.05-5.71l1.15-2.8,1.3-2.73c.83-1.85,1.87-3.59,2.85-5.35.47-.9,1-1.73,1.58-2.58l1.64-2.55,1.79-2.45c.61-.81,1.17-1.65,1.85-2.4a68.25,68.25,0,0,1,18.21-16,50.78,50.78,0,0,1,23.3-7,43.91,43.91,0,0,1,5.38-.07l2.71.14,2.7.4c.49.08,1,.19,1.53.31a5.31,5.31,0,0,1,1.06.4c.24.17-.47,0-1.47-.15l-3-.45,2.21.44a13,13,0,0,1,2,.52c1.25.4,2.36.78,3.26,1.13,1.77.84,2.75,1.47,2.6,1.69-.52.44-5.4-1.28-11.53-2a47.5,47.5,0,0,0-12.32.25l-3,.64-1.51.33-1.47.47-2.93.94c-.95.39-1.89.81-2.83,1.22-7.56,3.27-14.09,8.53-19.67,14.51a23.94,23.94,0,0,0-1.72,2l-1.66,2.07c-1,1.45-2,3-3,4.45a71.43,71.43,0,0,1,12.77-14,55,55,0,0,1,16.21-9.47l4.48-1.38,4.59-.92c1.55-.12,3.09-.35,4.64-.39H548l1.16.11a47.17,47.17,0,0,1,17.75,5.1,14.43,14.43,0,0,1,2.4,1.39c.6.41,1,.71.93.8s-.43,0-1.06-.32c-.31-.14-.68-.32-1.08-.53l-.64-.34-.7-.32a46.25,46.25,0,0,0-15.36-4.41,42.59,42.59,0,0,0-15.77,1.41c-10.25,3-19.22,9.61-26.24,17.78A77.37,77.37,0,0,0,494.28,148l-1,3.91-.75,4c-.29,1.33-.42,2.69-.61,4s-.38,2.71-.46,4.08a140.29,140.29,0,0,0-.5,16.56c1.18,14.61,4.08,29.19,6.23,44.63-.11-2-.28-3.92-.43-5.89-.54-6.23-1.17-12.27-1.76-18.16s-1.1-11.62-1.45-17.26-.41-11.16-.21-16.6a102.45,102.45,0,0,1,1.87-16,68.32,68.32,0,0,1,4.92-15,74.56,74.56,0,0,1,8.18-13.82,60,60,0,0,1,11.34-11.63,48.27,48.27,0,0,1,14.47-7.78,5.47,5.47,0,0,1,2.12-.49c.07,0-.07.11-.36.22a10.39,10.39,0,0,1-1.26.48,46.78,46.78,0,0,0-14,7.39,62,62,0,0,0-11.05,11.08A73.36,73.36,0,0,0,496.09,150a93.64,93.64,0,0,0-2,13.14c-.28,4.43-.45,8.83-.29,13.25a246,246,0,0,0,2.36,26.35c-.89-9-1.64-17.75-1.74-26.32a108.94,108.94,0,0,1,2.18-25l.69-3,.87-2.92c.27-1,.63-1.93,1-2.89s.68-1.93,1.09-2.87c.84-1.87,1.61-3.78,2.61-5.58s2-3.6,3-5.38a66.11,66.11,0,0,1,7.48-9.82c1.33-1.59,2.9-2.91,4.37-4.36l2.38-2c.4-.32.79-.66,1.2-1l1.26-.87a15.1,15.1,0,0,1,3.25-1.92,2,2,0,0,1,.63-.51l1.3-.84.67-.42.7-.35,2.89-1.45a42,42,0,0,1,6.33-2.14,8.4,8.4,0,0,1,2.38-.38C541.2,103,540.68,103,539.76,103.32Zm-197,83.89-.25-.1.7,0,1.38.84Zm-5.86,9.63h0l-.82-.37Zm79.71,114.41a26.39,26.39,0,0,1-.22-4.59c0-.82.09-1.73.13-2.59s.18-1.79.32-2.72a86.83,86.83,0,0,1,2.7-11.78c.61-2.08,1.24-4.12,1.95-6.17s1.46-4.11,2.29-6.35a157,157,0,0,0,5-15.12,152.9,152.9,0,0,1-4.19,15c-1.26,3.4-2.37,6.41-3.37,9.5-.52,1.54-1,3.1-1.45,4.67l-.69,2.37-.58,2.18a67.3,67.3,0,0,0-1.64,8.39A36.71,36.71,0,0,0,416.56,311.25ZM333.73,186.38a11.7,11.7,0,0,1,3.49.8,5.47,5.47,0,0,1,1.6-1.2,51.13,51.13,0,0,1,5.07-2c-.42-.34,0-.48.15-.63s.37-.26.56-.39c-1.87.51-3.73,1.08-5.69,1.64a20,20,0,0,0-2.59.94A21.37,21.37,0,0,1,333.73,186.38Zm-9.22,9.42-.24,0L324,195S324.24,195.34,324.51,195.8Zm.45,1.29.26-.1C325.34,197.26,325.21,197.24,325,197.09Zm2.38-.87a1.59,1.59,0,0,0-.51-.08Zm15.23,15.58c-.62-1.08-1.22-2.18-1.8-3.28q.81,1.62,1.65,3.21Z"/><path d="M475.83,220.73c.21,0,.43.09.64.13a1.74,1.74,0,0,1-1.13.67,14.72,14.72,0,0,0,8.34-2.2,26,26,0,0,0,3.43-2.5,22.32,22.32,0,0,0,2.79-2.91c1.58-.35,2.66-1.53,2.43-2.65s-1.76-1.76-3.44-1.41a5.51,5.51,0,0,1-1.19-.1,25,25,0,0,0-9.94-.84l2.3.26a11,11,0,0,0-3.08.5l.64.46c-3.82-.26-7.86,2.1-8.65,5.12s1.69,5.37,5.25,5.4C474.76,220.68,475.29,220.69,475.83,220.73Z"/><path d="M484.2,224.63l-5.8-.1-.51-.22,1,1.58,0-.12c.65-2,2.71-3.73,4.8-5l.69-.56a1.48,1.48,0,0,0,.31-1.18c-.18-.86-1.25-1.33-2.41-1l-1.33.35a13.08,13.08,0,0,0-5.48,1.8,5.16,5.16,0,0,0-2.72,4.31c0,.82.85,1.45,1.39,2.15a2.71,2.71,0,0,0,3.57.87c1.38-.66,2.15-2,1.64-3.14l.86-.12-.36.66c-.12-1.13,1.07-1.94,1.78-2.89.45-.31.91-.59,1.36-.89l-2.14-2.19c-.21.21-.42.44-.62.67l.31.2a32.61,32.61,0,0,1-3.48,3.86l-1.41,1.92a1.21,1.21,0,0,0,1.07,1.57l1.16.1-.57-.12,3.41-.74c1.14-.24,2.26-.48,3.39-.62a.75.75,0,0,0,.74-.59A.56.56,0,0,0,484.2,224.63Z"/><path d="M477.47,228.28a1.91,1.91,0,0,0-1.27.21l-.07.3.87.11C477.62,229,477.7,228.62,477.47,228.28Z"/><path d="M476.13,228.79l-.36,0,.31.14,0,0Z"/><path d="M566.36,223.61a135.36,135.36,0,0,1,15.31,11.24c.16.14.34.18.42.09s0-.27-.15-.39a132.75,132.75,0,0,0-15.32-11.32c-.19-.11-.38-.12-.45,0S566.19,223.5,566.36,223.61Z"/><path d="M594,260.31c-.15-.05-.22,0-.18.18a.54.54,0,0,0,.3.33.13.13,0,0,0,.18-.17A.57.57,0,0,0,594,260.31Z"/><path d="M587.48,264.75a8.66,8.66,0,0,0-1.85-1,.47.47,0,0,1-.24-.24c-.09.14-.3.16-.54,0-4.66-2.5-9.25-5.33-14.06-7.43a1.11,1.11,0,0,1-.43.23,2.15,2.15,0,0,1-1.89-.43l-.4-.38c-1.77-1.33-3.59-2.58-5.41-3.79a5.39,5.39,0,0,1-1.59-.31l-3-.34-3-.3a.69.69,0,0,1,0,.51,1,1,0,0,1-1.22.36c-.24-.08-.48-.14-.72-.21.65.3,1.26.68,1.89,1a.79.79,0,0,1,.23.16l2.26.82A176.59,176.59,0,0,1,578,261.19a.42.42,0,0,1,.3.29.16.16,0,0,1-.23.14c-4.83-1.4-9.58-1.44-14.49-2.44a74,74,0,0,0-16.79-1.41l-1.92-.3c-.64-.05-1.28-.07-1.91-.09a27.4,27.4,0,0,0-3.74.17,43.75,43.75,0,0,0-7.27,1.68c-1.77.55-3.45,1.16-5.05,1.76-2.22.87-4.31,1.69-6.33,2.7-1,.43-2,1-3,1.5s-1.94,1.05-2.88,1.69a2.83,2.83,0,0,1-1.46.7,2.8,2.8,0,0,1-1.59-.22,6.63,6.63,0,0,1-3-3,8.29,8.29,0,0,1-.8-5.87l-.6.27-1.08.16a4.38,4.38,0,0,1-3.15-1l-1.31-.94a26.83,26.83,0,0,0-3.51-2.67,27.93,27.93,0,0,1-3.62-2.73l-.36-1.12-.36-.18a6.07,6.07,0,0,1-2.83-2l-.64-1.25a12.89,12.89,0,0,1-1.12-4.55,4.73,4.73,0,0,1-.62-1.62,6.64,6.64,0,0,1-2.6-3.81.9.9,0,0,1-.54-1.26,1.12,1.12,0,0,1,.38-.43h0a9.5,9.5,0,0,0-.93-.51c-.4.07-.65.09-.65.09-1.05.25-1,.28-1.94.5a5.18,5.18,0,0,1-1.72-.4c-2.08-1.73-2.1-1.73-2.55-2.72,0-.12,0-.24,0-.35a10.35,10.35,0,0,1-1.12,0,2.17,2.17,0,0,1-.53-.19c-.35-.48-.35-.48-.57-.6a2.84,2.84,0,0,1-.27-.36c0-.75,0-.75-.08-.91a2.15,2.15,0,0,1,0-.39c.33-.39.46-.55.51-.62l1.72.81-.07-.56.57.49-.45-.49.67.09-.82-.2a5.54,5.54,0,0,0,1.64-.63,2.91,2.91,0,0,0,.87-.53,1.51,1.51,0,0,1-.21-.28c1.33-.36,1.33-.36,2.63-.68a4,4,0,0,1,.46.24.62.62,0,0,1,.47-.47l.66-.19.09-.13,0,0,.4-.49.07-.11h0l1.76-2.09a8.81,8.81,0,0,1,1.19-.18,3,3,0,0,1-.43-.12c-.28-.1-.33-.66-.46-.66a26,26,0,0,0-4.78.55c-1.57.35-3.16.76-4.76,1.18a1.11,1.11,0,0,1-1.42-.08.83.83,0,0,1,.35-1.22,19.06,19.06,0,0,1,3.94-3.59A25.66,25.66,0,0,1,485.1,217a28.07,28.07,0,0,1,11-1.54c1.83-.15,3.6-.4,5.41-.52l-.32-.2,1.47.11h.15l-1.28-.7-.79-.12a48.72,48.72,0,0,1-6.28.27c-2.08.06-4.25,0-6.39.21-2.31.22-4.53,0-6.82.14a.94.94,0,0,1-1.18-.42c-.11-.38.26-.81.79-1a33.79,33.79,0,0,1,5.17-2.07,31.82,31.82,0,0,1,5.55-1.24,26.43,26.43,0,0,1,5.53-.22,19.61,19.61,0,0,1,5.1.95,7.16,7.16,0,0,1,3.69.25H506l-.95-.64c1,.06,1.63.61,2.55.75l-.54-1c2.4,0,4.87-.11,7.28-.12a35.24,35.24,0,0,1,3.59.27c.58.07,1.16.16,1.73.28s1.13.29,1.68.48c.17,0,.34.06.5.09a18.09,18.09,0,0,1,3.69-1.05,11.79,11.79,0,0,1,2.09-.13l-2.11-.45h0a13.94,13.94,0,0,1,4.71-.27,20.07,20.07,0,0,1,6.59,2.05,11.73,11.73,0,0,1,4.58,3.77,104.93,104.93,0,0,1,23.4,7.37c.39.16.65.49.62.75s-.39.33-.77.18a152.36,152.36,0,0,0-16.74-4.87c4.63,1.86,9,4,13.42,6.13l1.72.73a7.84,7.84,0,0,1,1.61.93c5.49,2.88,10.3,6.12,15.5,9.43a143.32,143.32,0,0,1,12.23,8.82,68.41,68.41,0,0,1,14.44,15.35c.57.76.8,1.7.51,2.07s-1,.05-1.57-.7a114.93,114.93,0,0,0-15.65-15.54,213.28,213.28,0,0,0-18.44-13.42c-1.45-.9-2.85-1.84-4.3-2.68a1,1,0,0,1-.08.24,1.21,1.21,0,0,1-.76.61c1.63.94,3.16,2.09,4.71,3.19a46.24,46.24,0,0,1,13.36,8.75,56.76,56.76,0,0,1,6.79,8.41,98.2,98.2,0,0,1,9.18,9.29.48.48,0,0,1,.17.41c0,.1-.15.09-.29,0-2.25-2-4.55-4.09-6.93-6.09a1.35,1.35,0,0,1-.32,1.35,1.51,1.51,0,0,1-1.48.09c.45.51.94,1,1.38,1.53.27.33.36.7.19.84s-.53,0-.79-.27c-.93-1-1.9-2-2.84-3.06s-2-2-2.95-3c-1.29-1.07-2.65-2.05-4-3.07s-2.71-1.95-4.09-2.9a2.53,2.53,0,0,1,0,1.56h0l1.22.93a65.66,65.66,0,0,1,20.89,19.48c.11.15.15.32.07.38s-.22,0-.32-.15c-.85-1.18-1.72-2.36-2.61-3.52s-1.86-2.23-2.81-3.33h0c0,.13,0,.22-.18.17a.6.6,0,0,1-.3-.34c0-.14.05-.21.17-.17a63.11,63.11,0,0,0-12.23-10.43A71,71,0,0,1,593,260.77l1.36.94a.46.46,0,0,1,.16.39c0,.09-.18.07-.3,0s-.24-.18-.36-.27c.58.72.71,1.55.31,1.87s-1.23,0-1.86-.73c-.88-.9-1.77-1.79-2.66-2.69L587,257.64l-.65-.49-.79-.36a99.54,99.54,0,0,1,7.52,8.84c.22.25.3.56.16.68s-.42,0-.64-.22a128.12,128.12,0,0,0-15.94-12.43c-1.17-.28-2.3-.59-3.49-.8l-3.53-.62c.22.16.44.32.67.47,1.48.94,3,1.71,4.5,2.5l4.55,2.26c1.52.75,3,1.61,4.46,2.48a35.1,35.1,0,0,1,4.2,3.12c.14.11.19.27.13.35s-.21.06-.33-.07a36.8,36.8,0,0,0-4.16-2.92c-1.46-.83-2.92-1.64-4.42-2.46a45.38,45.38,0,0,0-7.43-3.33c4.44,2.59,9.1,4.89,13.28,8.18a.8.8,0,0,1,.37.48.21.21,0,0,1,.19,0,10,10,0,0,1,1.95,1.06.36.36,0,0,1,.2.35C587.76,264.82,587.63,264.82,587.48,264.75Zm-88.81-38.61-.22-.13.65.13,1.19,1Zm-7.29,8h0l-.72-.5Zm60.72-12.92c-1.65-.54-3.28-1.14-4.91-1.77s-3.28-1.3-4.94-2c.85.11,1.69.27,2.52.43A69.31,69.31,0,0,1,552.1,221.17Zm-61.8,2.55a12.83,12.83,0,0,1,3.17,1.42,5.45,5.45,0,0,1,1.74-.76,33.86,33.86,0,0,1,5.07-1c-.35-.38.06-.43.24-.53l.58-.27-2.77.21-2.81.28c-.86.09-1.75.2-2.62.34A19.36,19.36,0,0,1,490.3,223.72Zm-10.72,6.79-.23-.08-.08-.79Zm.17,1.32.28,0C480.09,232.08,480,232,479.75,231.83Zm2.52-.29a2.14,2.14,0,0,0-.49-.19Zm11.7,18L492.88,246l1,3.47Z"/><path d="M443.74,376.38l0,.27a.52.52,0,0,1-.43-.26c.63,2.37,3.21,3.24,5.43,3.08a1.1,1.1,0,0,0,1.5-1.6,1.55,1.55,0,0,1-.17-.41,8.45,8.45,0,0,0-1.17-3.5l.21.83a2.74,2.74,0,0,0-.63-.88l-.1.34a2.54,2.54,0,0,0-4.84,1.52Z"/><path d="M443.3,380.47c-.31-.74-.57-1.48-.83-2.23l0-.24-.53.76.05,0a4.48,4.48,0,0,1,2.85.55l.35.1a.83.83,0,0,0,.54-.21.81.81,0,0,0,.06-1.14l-.35-.38c-.65-1.18-2.18-2.38-3.68-1.56-.35.19-.52.63-.75,1a1.11,1.11,0,1,0,1.66,1.48l.17.3-.33,0c.47-.31,1-.06,1.49,0l.59.26.6-1.35-.38-.05a1.47,1.47,0,0,1,0,.17,10.17,10.17,0,0,1-2.13-.34l-1-.11a.69.69,0,0,0-.54.76l.11.48c0-.09,0-.16,0-.25.49.79,1.11,1.51,1.58,2.31a.29.29,0,0,0,.38.13A.3.3,0,0,0,443.3,380.47Z"/><path d="M440.74,378.72a.7.7,0,0,0-.26-.45l-.14,0c0,.1,0,.23.07.36S440.62,378.89,440.74,378.72Z"/><path d="M440.34,378.31l0-.15s0,.1,0,.15h0Z"/><path d="M465.45,394.44a38.24,38.24,0,0,0,2.89,3.07s.1,0,.16-.06.07-.15,0-.18a42,42,0,0,1-2.87-3.08s-.1,0-.16.06S465.42,394.4,465.45,394.44Z"/><path d="M468.23,407.78a.28.28,0,0,0-.14.18c0,.06,0,.1.09.07a.31.31,0,0,0,.14-.18C468.33,407.78,468.28,407.76,468.23,407.78Z"/><path d="M463.72,413.11a1.83,1.83,0,0,0-.75.08s-.06,0-.06-.07a.45.45,0,0,1-.28.21,15.18,15.18,0,0,1-4.83-.83,1.78,1.78,0,0,1-.26.22c-.3.23-.57.25-.7.07l-.07-.17c-.38-.56-.78-1.08-1.15-1.65a.76.76,0,0,1-.54,0,13.68,13.68,0,0,1-2.05-.08,1.19,1.19,0,0,1-.17.31c-.2.24-.44.34-.56.23l-.19-.12c.13.19.26.39.38.59a.17.17,0,0,1,0,.1,4.35,4.35,0,0,0,.6.43,15.19,15.19,0,0,0,6.66,1.63c.05,0,.09,0,.07.1a.27.27,0,0,1-.15.15c-2,.44-4.09,1.37-5.85,1.29a31,31,0,0,1-6-.8c-1.46-1.13-3.27-1.59-5.09-2.31a17.87,17.87,0,0,1-1.77-.79,2.56,2.56,0,0,1-.26-.14l-.38-.25-.76-.5-1.5-1c-2-1.37-3.91-2.8-5.86-4.26a3.32,3.32,0,0,1,1.37-6.18l-.34-.29-.43-.6a2.94,2.94,0,0,1-.47-2l.08-.91c.37-1.55.28-3.16.78-4.69l.45-.38v-.21a2.82,2.82,0,0,1,.32-1.71l.45-.53a7,7,0,0,1,1.88-1.38,2.32,2.32,0,0,1,.61-.6,3.45,3.45,0,0,1,1.24-1.92.49.49,0,0,1,.46-.5.53.53,0,0,1,.26.07h0a3.54,3.54,0,0,0,.07-.5,2.6,2.6,0,0,1-.15-.25l-.53-.71a2.34,2.34,0,0,1-.08-.8c.47-1.21.47-1.21.84-1.6l.15-.07c-.13-.33-.14-.35-.17-.45a1.17,1.17,0,0,1,0-.25c.17-.23.17-.23.19-.35l.12-.18c.33-.14.33-.14.39-.21a.78.78,0,0,1,.17-.07l.34.07-.12.85.23-.15-.13.33.15-.28.05.28,0-.36c.33.4.33.4.5.51a.88.88,0,0,0,.35.22,1.1,1.1,0,0,1,.09-.14c.36.43.36.43.69.86a1,1,0,0,1,0,.24.23.23,0,0,1,.27.06l.19.22h.07l0,0,.27,0h.06l1.19.12a2.35,2.35,0,0,1,.27.4v-.19c0-.13.22-.3.2-.35a17.19,17.19,0,0,0-2.2-3.14.42.42,0,0,1-.15-.57.4.4,0,0,1,.56-.14,8.94,8.94,0,0,1,6.55,5c.45.53.91,1,1.39,1.56v-.17l.29.49,0,.05v-.65c0-.1-.09-.19-.13-.28a26.91,26.91,0,0,1-2.71-4,22.27,22.27,0,0,1-1.15-2.29.36.36,0,0,1,0-.52.36.36,0,0,1,.51,0c2.28,1.32,4.44,3.41,5,6a2.11,2.11,0,0,1,.76,1.17v0l0-.51c.21.3.15.69.32,1l.25-.52c1.18,1.36,2.78,2.39,3.56,4l.11.16a8.05,8.05,0,0,1,2,.47l-.23-.42a1.48,1.48,0,0,1,1,.28,3.12,3.12,0,0,1,.38,3.37,49.57,49.57,0,0,0,4.53,2.64c.08,0,.07.18,0,.33s-.24.23-.33.19a16.35,16.35,0,0,1-3.68-1.38,15.24,15.24,0,0,0,2.13,2.46l.37.2a.58.58,0,0,1,.27.32,13,13,0,0,0,3.43,2.25,30.06,30.06,0,0,0,3.52,1.1,12.3,12.3,0,0,1,4.76,1.8c.21.09.18.47-.07.83s-.61.57-.82.48c-3.56-1.07-7.24-1.86-10-4.25l-.86-.77-.1.14a2.19,2.19,0,0,1-.47.45,8.58,8.58,0,0,1,.86,1,6.6,6.6,0,0,1,3.41,1.71,8.92,8.92,0,0,1,1.29,2.47c1,.43,2,.8,3,1.26.05,0,.06.07,0,.14a.22.22,0,0,1-.16.13,14,14,0,0,1-2.56-.33,2.3,2.3,0,0,1-.47.9,2.15,2.15,0,0,1-.81.65l.39.34c.07.07,0,.24-.08.4s-.29.24-.37.17l-1.59-1.35c-.8-.33-1.57-.69-2.32-1.08a3,3,0,0,1-.4.9h0l.32.21a14,14,0,0,1,6.62,3.22s0,.11,0,.19-.13.11-.16.07a11.37,11.37,0,0,0-1.75-1.33h0a.24.24,0,0,1-.13.17c-.06,0-.1,0-.09-.06a.27.27,0,0,1,.13-.18,15,15,0,0,0-3.87-1.62,17.1,17.1,0,0,1,2.92,2.3l.53,0s.05.08,0,.16-.12.12-.16.11h-.14c.16.17.07.59-.22,1s-.7.55-.88.38a17.64,17.64,0,0,1-1.64-1.06l-.22-.06-.31,0c.69.77,1.34,1.57,2,2.38.07.05.05.2-.05.34s-.25.2-.32.15a28.23,28.23,0,0,1-5.11-2.14l-2.75.64.17.16c1.54,1.19,4.12.57,5.88,1.39.05,0,0,.1,0,.17s-.13.11-.17.08a16.71,16.71,0,0,0-3-.46,14.22,14.22,0,0,0-2.55-.27c1.26.72,2.9.86,4.28,1.41.07,0,.1.08.07.18a.24.24,0,0,1,.1-.08,2.76,2.76,0,0,1,.79-.07c.05,0,.07.05,0,.13A.24.24,0,0,1,463.72,413.11Zm-18.28-26.78v-.12c0,.09.06.18.09.29l-.15.75S445.42,386.8,445.44,386.33Zm-4.95-.65h0c.05-.25.08-.43.08-.43C440.54,385.43,440.51,385.57,440.49,385.68Zm21,8.75a4.54,4.54,0,0,1-1.41-1.86l.5.25C460.94,393.33,461.25,393.87,461.53,394.43Zm-16.78-11.92a5.65,5.65,0,0,1,0,1.59,2,2,0,0,1,.69.41A20,20,0,0,1,447,386c.07-.24.19-.12.27-.09l.25.12c-.49-.6-1-1.2-1.44-1.83A17.64,17.64,0,0,1,444.75,382.51ZM440.06,380v-.1l.33-.2Zm-.55.35.06.11C439.45,380.58,439.46,380.52,439.51,380.39Zm.5,1a1.08,1.08,0,0,0,0-.24Zm-6,8.83,1.41-1.2-1.39,1.12Z"/><path d="M525.65,573.24c0,.2-.09.4-.12.59a1.33,1.33,0,0,1-.68-1,10.83,10.83,0,0,0,2.38,7.4,16.52,16.52,0,0,0,5.85,4.92,2.5,2.5,0,0,0,3,1.7,2.44,2.44,0,0,0,1.16-3.25,4.17,4.17,0,0,1,0-1.06,22.35,22.35,0,0,0,.52-8.87c-.08.68-.16,1.39-.24,2.07a7.53,7.53,0,0,0-.56-2.65l-.45.62c.11-3.36-2.25-6.64-5.22-7.14s-5.43,1.88-5.54,5.17Z"/><path d="M521.8,581.28c0-1.79,0-3.57,0-5.39l.22-.49-1.61,1.07.12,0c2.08.45,3.82,2.22,5.23,4l.59.58a1.51,1.51,0,0,0,1.2.16,1.8,1.8,0,0,0,1-2.33c-.12-.39-.27-.77-.41-1.16-.43-3.13-2.62-7.32-6.19-7-.82.08-1.48.87-2.19,1.4a2.55,2.55,0,0,0-.95,3.4,2.41,2.41,0,0,0,3.17,1.33c0,.26.09.52.13.78l-.67-.28c1.15-.2,2,.83,3,1.41l1,1.14,2.18-2.18-.71-.49c-.08.11-.19.31-.2.3a26.18,26.18,0,0,1-4-2.85l-1.89-1.2a1.32,1.32,0,0,0-1.6,1.09l-.13,1.1.13-.54c.41,2.12,1.09,4.19,1.43,6.27a.67.67,0,0,0,.66.62A.55.55,0,0,0,521.8,581.28Z"/><path d="M518,575.25a1.61,1.61,0,0,0-.18-1.19l-.3,0c0,.22-.08.53-.13.83C517.32,575.43,517.68,575.49,518,575.25Z"/><path d="M517.54,574l.05-.35-.15.31,0,0Z"/><path d="M544.12,732.2c-.49,2.2-1.14,4.35-1.75,6.51s-1.21,4.33-1.87,6.47l-2.07,6.38c-.36,1.07-.68,2.13-1,3.19l-1.16,3.14-2.31,6.28-2.52,6.18-1.26,3.09-1.37,3L526,782.53c-.24.54-.39,1-.28,1.1s.39-.3.62-.8l2.75-6.07,1.38-3,1.26-3.08,2.54-6.18,2.32-6.27,1.16-3.14c.39-1,.71-2.12,1.06-3.18l2.09-6.38c.67-2.14,1.25-4.31,1.88-6.47s1.27-4.31,1.77-6.52a2,2,0,0,0,0-1.2C544.46,731.25,544.26,731.65,544.12,732.2Z"/><path d="M476.81,842.78c.19-.36.09-.41-.22-.13a5,5,0,0,0-.85,1.1c-.15.3-.05.37.22.13A4.72,4.72,0,0,0,476.81,842.78Z"/><path d="M472.76,835.16c.63-1,1.24-1.91,1.79-2.83s1-1.85,1.47-2.73a5.23,5.23,0,0,1,.62-.88c-.21,0-.08-.44.33-1.16A317.27,317.27,0,0,0,499,782a1.78,1.78,0,0,1-.13-.85,16.85,16.85,0,0,1,1.63-5.76l.79-1.65c.77-1.68,1.4-3.41,2.11-5.11s1.4-3.41,2-5.14l1.87-5.18.95-2.59.85-2.61A40.29,40.29,0,0,1,510,748c.29-1.56.45-3.16.66-4.73s.41-3.16.61-4.74c.37-3.16.6-6.36,1-9.54-.22.36-.44.56-.64.52-.43-.22-.52-1.74-.29-3.43.1-.86.21-1.71.32-2.57-.45,2.43-.87,4.87-1.49,7.27a7.38,7.38,0,0,1-.26,1c-.5,2.68-.93,5.4-1.55,8.14A287.57,287.57,0,0,1,486,808a4.08,4.08,0,0,1-.71,1.14c-.19.15-.28,0-.11-.35,5.75-13.93,8.74-26.7,12.7-42.56a220.86,220.86,0,0,0,6.53-56.73,148.9,148.9,0,0,0-1.56-28.72l-.55-3.5-.28-1.75-.36-1.73c-.5-2.32-1-4.64-1.5-7s-1.21-4.59-1.82-6.92-1.43-4.59-2.13-6.91c-.45-1.58-1-3.1-1.59-4.62s-1.09-3-1.63-4.55-1.21-2.95-1.8-4.42-1.14-3-1.82-4.36l-.5-1.06-.25-.53-.1-.2-.38-.7-.75-1.41c-.5-.93-.93-1.88-1.44-2.79-1-1.82-2-3.64-3-5.47-.45-.93-1-1.81-1.5-2.7s-1-1.79-1.55-2.69c-1.87-2.52-1.12-6,2-8.1a7.56,7.56,0,0,1,6.11-1l-.37-.72-.25-1.31a5.26,5.26,0,0,1,.87-3.77l.92-1.55c2-2.49,3.07-5.42,5.25-7.91l1.14-.4.17-.38a6,6,0,0,1,1.93-3l1.28-.66a13.72,13.72,0,0,1,4.66-1.24,5.07,5.07,0,0,1,1.64-.67,6.92,6.92,0,0,1,3.86-2.74,1,1,0,0,1,1.28-.6,1,1,0,0,1,.45.35h0a7.83,7.83,0,0,0,.5-.93c-.08-.39-.11-.62-.11-.62-.27-1-.27-1-.49-1.89a5.23,5.23,0,0,1,.43-1.69C513,576.51,513,576.5,514,576l.35,0c0-.79,0-.85,0-1.07a2.63,2.63,0,0,1,.21-.51c.49-.35.49-.35.62-.57a3,3,0,0,1,.37-.26c.75,0,.75,0,.92-.11a2.09,2.09,0,0,1,.38,0l.61.46c-.84,1.66-.85,1.66-.85,1.66l.56-.09-.5.57.5-.45-.1.63.21-.79a4.83,4.83,0,0,0,.61,1.54,2.05,2.05,0,0,0,.54.78,2.37,2.37,0,0,1,.27-.22c.39,1.22.39,1.22.74,2.42a4,4,0,0,1-.24.46.56.56,0,0,1,.49.39l.2.61.15.08,0,0,.52.32.12.07h0c.37.22.89.54,2.2,1.45a7.34,7.34,0,0,1,.19,1.09l.12-.41c.1-.28.67-.38.67-.5a20.35,20.35,0,0,0-.21-2.22c-.12-.73-.3-1.44-.49-2.16-.38-1.44-.83-2.86-1.25-4.31a1,1,0,0,1,.1-1.34.84.84,0,0,1,1.23.26c5.58,3.62,8.41,10.67,8.71,17.25.35,1.6.74,3.19,1.14,4.77l.16-.33.09,1.33,0,.13.56-1.28c0-.25,0-.49,0-.73a29,29,0,0,1-.92-5.58c-.18-1.89-.4-3.77-.72-5.68s-.21-4-.38-6.12a.86.86,0,0,1,.41-1.11.82.82,0,0,1,1,.59,37.15,37.15,0,0,1,4,9,21.61,21.61,0,0,1,.36,9.5,5.42,5.42,0,0,1,.31,3.27v.05l.53-1c.1.88-.39,1.57-.4,2.41l1-.7c.37,2.1,1,4.19,1.5,6.27a26.33,26.33,0,0,1,.59,3.12,15.79,15.79,0,0,1,0,3.15,3.67,3.67,0,0,1,0,.46,21.45,21.45,0,0,1,1.72,2.07c.14.18.26.37.38.56l.1.16.18.47c.12.31.23.62.35.94.23.63.46,1.27.69,1.93s.39,1.34.58,2c-.18-1-.33-1.92-.56-2.86l-.63-2.78a1.41,1.41,0,0,1,.13.29l.15.37.3.73.59,1.46c.4,1,.68,2,1,3,.62,2,1.19,4.11,1.68,6.29,2.58,11.9,2.61,25.58.44,32.07a249.91,249.91,0,0,1,1,34A268.48,268.48,0,0,1,545.64,727a4.23,4.23,0,0,1-.91,2.29c-.28.07-.38-.72-.17-1.86l.45-3,.35-3q.36-3,.7-6c.28-2,.35-4,.54-6s.31-4.05.47-6.07.17-4.06.25-6.1.2-4.07.17-6.11c0-4.07.09-8.16-.16-12.25a289.88,289.88,0,0,1-4.27,41c-.27,1.74-.44,3.51-.79,5.26s-.74,3.43-1.2,5.11c-3.66,17.29-9.09,33.07-15.67,49.6-.35.89-.7,1.76-1,2.63s-.75,1.71-1.11,2.56l-2.19,5c-1.46,3.31-3.07,6.48-4.58,9.7s-3.26,6.3-4.91,9.51-3.55,6.33-5.43,9.6A281.12,281.12,0,0,1,489,844.35a244.77,244.77,0,0,1-20,23c-1.93,2-4,3.56-4.54,3.49s.57-1.76,2.48-3.74a311,311,0,0,0,20.6-24.86,321.45,321.45,0,0,0,17.78-27,299,299,0,0,0,15-29.17,309.17,309.17,0,0,0,12.22-31.39c.42-1.16.77-2.34,1.12-3.51s.7-2.35,1.06-3.51c.7-2.33,1.41-4.65,2-7a.56.56,0,0,1-.29.06c-.36-.08-.57-.6-.66-1.41-.35,1.32-.7,2.64-1.06,4s-.82,2.62-1.24,3.93c-.85,2.62-1.61,5.27-2.62,7.84a189.77,189.77,0,0,1-17.37,43.43A235.71,235.71,0,0,1,496,824.57a282.87,282.87,0,0,1-23.17,31.21,3.47,3.47,0,0,1-.92.85c-.2.08-.08-.19.25-.6q2.06-2.67,4.11-5.37l2.08-2.7c.66-.93,1.33-1.85,2-2.78,1.34-1.85,2.69-3.71,4-5.58s2.6-3.82,3.89-5.73c-1.13,1-2,1.44-2.27,1.09s0-1.51.81-3.06l-3.74,5c-.76,1-1.53,1.72-1.69,1.55s.31-1.07,1-2.06c2.51-3.41,5.07-6.77,7.43-10.29,1.19-1.75,2.43-3.46,3.58-5.24l3.43-5.34a289.16,289.16,0,0,0,14-27,6.92,6.92,0,0,1-2.45,2.09h0q-1,2.11-2,4.23c-11.66,26.17-28.86,50.61-49.65,71.63-.4.42-.78.72-.86.66s.18-.44.54-.81c3.09-3.21,6.23-6.39,9.14-9.75,1.47-1.67,3-3.29,4.4-5l4.24-5.14,0,0c-.28.24-.41.22-.21-.13a5.27,5.27,0,0,1,.89-1.07c.31-.27.38-.17.21.13a244.86,244.86,0,0,0,26.5-41.29,258.19,258.19,0,0,1-25,37.37c-.91,1.36-1.77,2.75-2.76,4.09a3.44,3.44,0,0,1-.88.86c-.15.05,0-.27.26-.64l.81-1.12c-1.85,2.16-3.56,3.57-3.93,3.21s.92-2.58,2.78-4.84c4.72-6.25,9.36-12.53,13.63-19.06l1.32-2.16,1.18-2.26a290.32,290.32,0,0,1-22,28.7c-.65.81-1.31,1.39-1.46,1.29s.25-.84.89-1.65a295.44,295.44,0,0,0,18-26.13,285.2,285.2,0,0,0,15.24-28c1.13-3.33,2.11-6.73,3.15-10.09s1.83-6.83,2.66-10.29c-.31.83-.68,1.64-1,2.47-4.22,10.58-8.25,20.39-12.8,29.94a197.51,197.51,0,0,1-16,28.08c-.32.46-.67.78-.79.78s0-.37.38-.82a221.24,221.24,0,0,0,15.62-27.62l2.85-6c.88-2,1.72-4,2.55-5.94.42-1,.83-2,1.24-2.93s.74-2,1.1-3l2.12-5.86c-.83,1.93-1.65,3.85-2.48,5.76-.4,1-.81,1.92-1.21,2.87l-1.3,2.83c-.85,1.89-1.71,3.78-2.56,5.66s-1.82,3.71-2.74,5.57L489.1,808l-1.46,2.74-2.95,5.48c-1.06,1.79-2.11,3.59-3.17,5.39l-1.61,2.7c-.56.89-1.14,1.76-1.71,2.65a7.47,7.47,0,0,1-1.2,1.53.76.76,0,0,1-.12.42,63.94,63.94,0,0,1-3.43,5.87,3.09,3.09,0,0,1-.83,1C472.42,835.87,472.5,835.6,472.76,835.16Zm48.31-240a2.42,2.42,0,0,1,.12-.23c0,.2-.06.42-.1.65l-.94,1.29ZM512.31,589h0l.5-.76Zm33.33,103.11c.15-4.87.43-9.72.44-14.58.17-4.87.06-9.72.15-14.62l.63,7.09c0,1.85,0,3.7-.1,5.54s-.15,3.69-.22,5.54-.26,3.68-.4,5.52S545.81,690.27,545.64,692.11Zm-22.7-105.2a12.5,12.5,0,0,1-1.29,3.16,5.49,5.49,0,0,1,1,1.53,29.18,29.18,0,0,1,1.48,4.62c.36-.4.46,0,.59.13l.34.49c-.37-1.68-.62-3.42-1-5.15A42.13,42.13,0,0,1,522.94,586.91Zm-7.2-9.55.09-.22.79-.11Zm-1.33.23,0,.26C514.15,577.92,514.2,577.8,514.41,577.59Zm.26,2.41a1.82,1.82,0,0,0,.2-.48Zm-18.25,12.38,3.64-1.21-3.54,1.08Z"/><path d="M526.31,692.5l.87-.48a4.9,4.9,0,0,1-1.54,1.55,22.19,22.19,0,0,0,5.73-4.67c1.69-1.83,3.1-4,4.82-6.17.85-1.08,1.76-2.15,2.74-3.21a35.75,35.75,0,0,1,3.42-3.25,35.27,35.27,0,0,1,7.24-4.67c1-.27,1.86-.54,2.77-.76s1.73-.43,2.49-.61c1.46-.37,2.63-.61,2.8-1,.46-.63-3.35-1.45-7.64-.38-1,.17-2.07.42-2.75.55a29.34,29.34,0,0,0-9.76,3.41,28.14,28.14,0,0,0-2.5,1.54l-1.23.88-1.07.78a45,45,0,0,0-4.06,3.47l1.67-1.33c.58-.44,1.17-.87,1.75-1.29a31.62,31.62,0,0,0-4.52,4.37l.85-.35c-2.54,2.32-5,5-7.41,7.32l-3.24,3.07a22.39,22.39,0,0,0-2.26,2.29c-1,1.26-.49,1.81,1.29,2a14.3,14.3,0,0,0,7.19-1.76c.43-.21.81-.42,1.2-.65S526,692.73,526.31,692.5Z"/><path d="M536.91,687.26a59,59,0,0,1-6.92,6l-.67.3,1.48.36,0-.07a19.79,19.79,0,0,1,2-4.29c1-1.67,2.08-3.59,3.4-5.45l.94-1.36a2.41,2.41,0,0,0,.54-1.51c-.14-.64-1.71.13-3.26,1.82-.56.63-1.15,1.29-1.66,1.92-2.16,2.25-4.65,5.06-6.93,7.35-1.15,1.16-2.18,2.18-3,3.09a4.18,4.18,0,0,0-1.36,2.19c0,.54,1.47.52,2.39.68a4,4,0,0,0,2.48-.17,8.82,8.82,0,0,0,3.08-1.81c1.83-1.71,2.52-3.66,1.8-4.13.35-.32.71-.64,1-1-.11.31-.24.62-.36.93-.27-.84,1.1-2.79,1.88-4.49l1.56-2.41-2.69.39-.72,1.36a3.16,3.16,0,0,1,.39-.16,41.92,41.92,0,0,1-4.1,6.92c-.62,1-1.25,1.84-1.92,2.71-.35.74.47.91,1.69.37.57-.29,1.12-.57,1.65-.88-.28.13-.52.26-.8.38,3.16-2.26,5.56-5.16,8.11-7.94a2.77,2.77,0,0,0,.79-1.4C537.7,686.7,537.34,686.8,536.91,687.26Z"/><path d="M529.12,697.17a9.94,9.94,0,0,0-1.85,1.15l-.07.27c.36-.14.86-.35,1.32-.56C529.43,697.61,529.49,697.25,529.12,697.17Z"/><path d="M527.2,698.59l-.6.22.52-.11.06-.06Z"/><path d="M691,807.62a64,64,0,0,0,11.76-6.77,60.42,60.42,0,0,0,9.57-8.73,49.46,49.46,0,0,0,6.67-9.8,38.37,38.37,0,0,0,3.37-9.81,36.8,36.8,0,0,0,.49-4.69c0-.38,0-.76,0-1.14l0-1.14V765l0-.64c0-.43,0-.84-.06-1.28a48.5,48.5,0,0,0-.55-5.25c-.24-1.79-.59-3.6-1-5.47a104.19,104.19,0,0,0-3.4-11.63c-.35-1-.73-2-1.11-3s-.87-2.28-1.28-3.42c-.86-2.27-1.78-4.49-2.67-6.7-.47-1.19-1.1-2.09-1.37-2.06s-.06,1,.4,2.08l1.35,3.3,1.32,3.36c.42,1.14.84,2.27,1.28,3.41s.78,2,1.12,3a105.83,105.83,0,0,1,3.45,11.5c.43,1.84.8,3.62,1.06,5.38a47.27,47.27,0,0,1,.59,5.15c0,.43.07.85.08,1.27s.06.87.05,1.2c0,.73.07,1.48,0,2.21l0,1.13-.11,1.13c0,.77-.2,1.52-.27,2.31a36.54,36.54,0,0,1-3.11,9.65,47.79,47.79,0,0,1-6.39,9.74,59.78,59.78,0,0,1-9.33,8.78A64.48,64.48,0,0,1,691.33,807a9.29,9.29,0,0,0-2.16,1.18C689.14,808.32,690,808.06,691,807.62Z"/><path d="M720.43,522.8c-.41,1-.2,1.11.5.19a22.67,22.67,0,0,0,2-3.25c.39-.85.15-1-.49-.19A13.84,13.84,0,0,0,720.43,522.8Z"/><path d="M730.76,539l-1.44,4.11c-.24.67-.47,1.34-.7,2s-.36,1.34-.54,2c-.35,1.32-.69,2.62-1,3.88a32.56,32.56,0,0,0-.77,3.73,12.49,12.49,0,0,1-.74,2.58c.45-.2.48,1,.08,3a142.89,142.89,0,0,0-2,30.51,176.17,176.17,0,0,0,4.21,31,200.42,200.42,0,0,0,9.49,30.34c1,2.46,2,4.87,3.1,7.24s2.22,4.71,3.3,6.75l1.88,3.43,2.12,3.78c1.45,2.56,2.91,5.24,4.41,8a4.58,4.58,0,0,1,1.84,1.48c2.48,2.68,6.06,9.15,8.54,16.47.57,1.85,1.16,3.7,1.66,5.56,1.7,5.6,3.15,11.22,4.34,16.81.61,2.86,1.23,5.93,1.69,9s.85,6.16,1.09,9.31a105.67,105.67,0,0,1-.21,19.3,90.72,90.72,0,0,1-1.58,9.77c-.16.81-.38,1.62-.58,2.43s-.39,1.6-.65,2.44c-.51,1.65-.94,3.32-1.57,4.92a57.5,57.5,0,0,1-2.94,8.51c-.66,1.46-1.34,3-2.16,4.41L760.45,794l-1.38,2.18a73.81,73.81,0,0,1-10.44,13.54,79.85,79.85,0,0,1-12.73,10.68,89.8,89.8,0,0,1-29.48,13c1.37-.16,2.23-.18,2.28,0-.24.52-5.05,2.06-10.89,2.65-2.94.31-5.86.54-8.8.58a98.44,98.44,0,0,0,12.69-.9,106.36,106.36,0,0,0,12.59-2.55c1.19-.35,2.31-.65,3.33-.92A93.44,93.44,0,0,0,744,818.85a85,85,0,0,0,12.83-11.64,79.86,79.86,0,0,0,10.36-14.7A76.09,76.09,0,0,0,774,775.34a89.47,89.47,0,0,0,2.81-17.3A111.53,111.53,0,0,0,774,725.67c-.28-1.26-.59-2.49-.9-3.73s-.61-2.32-.94-3.47c-.61-2.29-1.34-4.57-2-6.84-1.47-4.55-3.08-9.07-4.91-13.51A213.15,213.15,0,0,0,753,673.31L749.9,668l-1.43-2.51-.6-1.05-.56-1c-1.54-2.87-3.15-6.11-4.6-9.36a195.12,195.12,0,0,1-13.35-41.3,9.79,9.79,0,0,1-.28-3.24c.15-.58.46-.5.71.54a155.75,155.75,0,0,0,8.55,25.19c1.75,4,3.57,7.89,5.56,11.68s4,7.53,6.21,11c1.08,1.7,2.17,3.45,3.12,4.7,1.33,2,2.66,4,4,6,.69,1,1.44,2.19,2.15,3.29l2.2,3.54c1.5,2.41,3,5,4.45,7.65a157.54,157.54,0,0,1,8.19,17.22,162.81,162.81,0,0,1,6.31,18.89,126,126,0,0,1,4.36,27.14,100.55,100.55,0,0,1-3,29.88,82.3,82.3,0,0,1-13.76,29A80.64,80.64,0,0,1,758,816.62a85.78,85.78,0,0,1-11.47,9.18,98.08,98.08,0,0,1-25.12,12.06,108.43,108.43,0,0,1-13.11,3.21A101.06,101.06,0,0,1,695,842.49a90.75,90.75,0,0,1-26.6-2.72,61.14,61.14,0,0,1-13.15-5.07c-.52-.26-1-.52-1.54-.79l-1.48-.87c-1-.6-2-1.17-2.9-1.79-1.84-1.33-3.7-2.56-5.37-4a70.26,70.26,0,0,1-9.44-9.55,79.76,79.76,0,0,1-7.28-10.48,91.51,91.51,0,0,1-5.47-11l-1.1-2.82c-.37-.93-.7-1.88-1-2.83s-.63-1.88-.92-2.86l-.81-3c-.12-.5-.28-1-.38-1.49l-.3-1.51-.59-3c-.22-2-.63-4-.75-5.94l-.28-2.94c0-1-.09-1.95-.17-2.92-.19-2-.09-3.86-.22-5.79-.15-7.66,0-15.17,0-22.56l0-10.88c0-1.78,0-3.56-.07-5.3s0-3.46-.1-5.16c0-.43,0-.86,0-1.28l-.05-1.19c0-.79-.07-1.58-.15-2.36-.09-1.57-.21-3.13-.41-4.65A67.63,67.63,0,0,0,613,699c-.19-.66-.35-1.34-.55-2s-.38-1.27-.6-1.85a31.83,31.83,0,0,0-1.42-3.23,12.81,12.81,0,0,0-.79-1.34,8.19,8.19,0,0,0-.82-1.16c-.14-.17-.28-.36-.41-.54l-.46-.44c-.16-.15-.28-.35-.44-.48a6.12,6.12,0,0,1-.49-.4,6.06,6.06,0,0,0-.83-.67c-.25-.17-.49-.3-.68-.41a3.07,3.07,0,0,1-.42-.25.47.47,0,0,1-.09-.12,1.1,1.1,0,0,1-.06-.18l0-.05s-.08,0-.14-.06-.12,0-.21,0a2.17,2.17,0,0,1-.28.1,4.48,4.48,0,0,0-1.46,1.86,16.28,16.28,0,0,0-1.46,5.14,23.56,23.56,0,0,0-.23,3.06c0,.52,0,1,0,1.56l.09,1.84c.19,2.5.39,5.19.53,8.11a44.69,44.69,0,0,1-.52,9.53c-.18.87-.36,1.73-.62,2.61l-.38,1.33-.5,1.33a24.46,24.46,0,0,1-1.2,2.62c-.56.91-1.13,1.84-1.78,2.71a20.87,20.87,0,0,1-10.61,7.24c-.51.15-1,.31-1.54.42l-1.57.27a21,21,0,0,1-3.17.25,26.32,26.32,0,0,1-3.19-.16c-1.07-.14-2.14-.38-3.2-.62a31.46,31.46,0,0,1-3.16-1.14l-1.53-.77-.76-.41-.74-.49a19.56,19.56,0,0,1-2.8-2.21c-.44-.42-.87-.84-1.29-1.28s-.78-.94-1.16-1.42-.76-1-1.08-1.49-.61-1.06-.9-1.6a22.85,22.85,0,0,1-1.4-3.06l-.52-1.45-.43-1.42-.17-.63c-.18-.67-.35-1.35-.48-2-.28-1.32-.48-2.54-.67-3.75-.34-2.37-.54-4.55-.76-6.55s-.42-3.83-.71-5.39a10.84,10.84,0,0,0-1.17-3.62c-.23-.39-.5-.55-.72-.55,0,0-.08,0,0,0l.4-.09.79-.21c.29-.09.48-.13.68-.18l.62-.18,1.09-.38c.3-.11.62-.25.89-.38a5.89,5.89,0,0,0,1.45-.83l-.26.27-.11.14-.05.07h0l1.1-1.41h0l.13-.18c.16-.3-.13.17-.17,1.07a8.85,8.85,0,0,0,.38,2.93,10.52,10.52,0,0,0,.75,1.89,5.22,5.22,0,0,0,.35.6l-.14-.22a9.42,9.42,0,0,1-.76-1.65,9.59,9.59,0,0,0,.41,1c.1.19,0,.14.06.25s-.08.12-.22.07-.13-.07-.26-.08a2.09,2.09,0,0,1-.5,0,6.79,6.79,0,0,0-1,.08,6.07,6.07,0,0,0-2.93.68,19.09,19.09,0,0,1-3.13,1.36l-.73-.64-.28.25a3.26,3.26,0,0,1-2.56,1.36l-1-.48a6.57,6.57,0,0,1-2.71-3,1.92,1.92,0,0,1-1.05-.8c-1.32.43-2.63.44-3.44-.67-.56.39-1,.15-.85-.55a3,3,0,0,1,.27-.79h0c-.41.19-.53.24-1,.52a9.37,9.37,0,0,1-.64.74c-1,1.29-1,1.28-2,2.36a8.23,8.23,0,0,1-2.11,1.22,20.59,20.59,0,0,1-2.84.22,2.22,2.22,0,0,1-1.13-.36,1.31,1.31,0,0,1-.06-.27,14,14,0,0,1-1.68.85,7.82,7.82,0,0,1-.88.21,2,2,0,0,0-1-.09,1.84,1.84,0,0,1-.48-.11c0-.55,0-.56-.16-.62a.65.65,0,0,1,.05-.3l.79-.81c1.38-.3,2-.5,2.32-.58l.32-.09-.17-.38.85-.09-.68,0,.92-.48-1.15.52c.84-.66,1.21-1,1.48-1.25a6.07,6.07,0,0,0,.64-.69,6.33,6.33,0,0,0,1-1.26,1.11,1.11,0,0,1-.29,0c1.56-1.61,1.53-1.61,3-3.25.21-.12.39-.21.56-.29a2.06,2.06,0,0,1,.46-.92l.74-.9.09-.23,0,0c.16-.36.28-.61.4-.9l.08-.19h0a28.32,28.32,0,0,1,2.15-4,19.63,19.63,0,0,1,1.67-1.45l-.59.34c-.39.21-.4-.28-.58-.14a40.33,40.33,0,0,0-6,6,53.93,53.93,0,0,1-5.78,5.83,3.3,3.3,0,0,1-2,1.15c-.48,0-.24-.59.44-1.27,1.47-2.05,3.06-4.39,4.84-7,.88-1.3,1.81-2.74,2.92-4.12.56-.7,1.15-1.39,1.8-2.08.31-.34.66-.68,1-1s.66-.63,1.1-1A27.35,27.35,0,0,1,550,672.67a25.34,25.34,0,0,1,6.71-.88,21.67,21.67,0,0,1,7.08,1.2,19.69,19.69,0,0,1,9.28,6.16,20.08,20.08,0,0,1,2,2.77l-.24-.62a19.79,19.79,0,0,1,1.48,3.09l.12.33a19.31,19.31,0,0,0-.72-2.53c-.27-.56-.58-1.11-.9-1.66a23.94,23.94,0,0,0-2.55-3.09,16.15,16.15,0,0,0-1.58-1.44,15.7,15.7,0,0,0-1.8-1.32,22,22,0,0,0-8.23-3.21,26.43,26.43,0,0,0-8-.12,29.51,29.51,0,0,0-7.19,1.9,38.72,38.72,0,0,0-6.74,3.52c-.52.35-1,.72-1.55,1.09l-1.35,1c-.87.67-1.73,1.38-2.54,2.11s-1.44,1.26-1.59,1,.38-1.12,1.16-1.92c.62-.7,1.24-1.4,2-2.09l1.07-1,1.3-1.15A30.93,30.93,0,0,1,542.8,672a30.62,30.62,0,0,1,6.59-2.53,30.11,30.11,0,0,1,3.62-.72,27.8,27.8,0,0,1,3.9-.23,26.67,26.67,0,0,1,4.05.34,25,25,0,0,1,4.12,1.08,21.45,21.45,0,0,1,7.17,4.22,18.42,18.42,0,0,1,2.47,2.61,21.69,21.69,0,0,1,1.86,2.74,20.27,20.27,0,0,1,2.14,5.44,17.23,17.23,0,0,1,.91,7.35v.1c.11-.49.19-1,.28-1.52,0,.46,0,.86,0,1.23s-.09.68-.14,1c-.08.65-.23,1.21-.31,1.92l.51-.56a46.41,46.41,0,0,1-.74,5.3c-.3,1.61-.63,3.09-1,4.47-.66,2.74-1.31,5.13-1.83,7.12l-.09.46c0,.84.12,1.61.19,2.35,0,.18,0,.36.07.54l0,.16c0,.22,0,.47,0,.68a5.87,5.87,0,0,0,.07.62c0,.2.07.41.1.49a3,3,0,0,0,.55,1.39,5,5,0,0,0,1.55,1.22,3.79,3.79,0,0,1-1.8-1.77,2.83,2.83,0,0,1-.19-1c0-.26-.08-.54-.09-.86,0-.14,0-.3,0-.48s0-.41,0-.38v.14l0,.27a3.91,3.91,0,0,0,0,.51,2.86,2.86,0,0,0,.06.46,3,3,0,0,0,.07.38,2.71,2.71,0,0,0,.31,1,4.14,4.14,0,0,0,2.13,1.69,5.67,5.67,0,0,0,3.48.15,4.78,4.78,0,0,0,2.79-1.81c1.21-1.66,1.85-4.2,1.92-7.29a47.25,47.25,0,0,0-.21-4.93q-.27-2.58-.61-5.42c-.12-.91-.23-2-.31-3s-.11-2.11-.15-3.17a43.33,43.33,0,0,1,.39-6.48,28.51,28.51,0,0,1,1.73-6.76,20.46,20.46,0,0,1,4.23-6.68c.49-.5,1-1,1.57-1.45s1.15-.85,1.75-1.26a17.12,17.12,0,0,1,4-1.88,18.82,18.82,0,0,1,8.08-.74,23,23,0,0,1,6.8,2,28.86,28.86,0,0,1,5.23,3.24,28.48,28.48,0,0,1,7,8,19.67,19.67,0,0,1,1.1,2c.32.65.65,1.28.92,1.91.47,1.24,1,2.42,1.3,3.52a57.49,57.49,0,0,1,3.3,23.59c0,1-.12,1.92-.22,2.87s-.18,1.93-.32,2.82c-.27,1.82-.52,3.65-.85,5.43-.66,3.59-1.43,7.08-2.2,10.55-1.59,6.92-3.29,13.66-4.22,20.42s-1.16,13.55.28,19.9a37.33,37.33,0,0,0,3.16,9l1.2,2.16c.38.73.79,1.44,1.24,2.13l1.3,2.08,1.42,2,.71,1,.76.95,1.52,1.89c1.1,1.18,2.1,2.43,3.29,3.5a52.31,52.31,0,0,0,7.2,6A40,40,0,0,0,664.06,812a20.17,20.17,0,0,0,2.05.27l2,.12a16.68,16.68,0,0,0,2,0c.69,0,1.28,0,2-.08s1.41-.11,2.12-.19l2.12-.29c1.41-.27,2.8-.54,4.2-.91a29.06,29.06,0,0,1,4.75-1c.26.13-1.2.85-3.52,1.49a50.91,50.91,0,0,1-6.1,1.3l-1.55.21c-.51.06-1,.08-1.54.13-1.07.12-2,.1-3,.13-.49,0-1,0-1.48,0l-1.48-.1c-.49,0-1,0-1.5-.12l-1.49-.24c-.5-.09-1-.16-1.51-.27l-1.49-.39c-.5-.14-1-.25-1.52-.4l-1.49-.53c-8-2.83-15.54-8.6-21.45-15.93a63.63,63.63,0,0,1-7.65-12,39.12,39.12,0,0,1-3.67-13.61,65.47,65.47,0,0,1-.2-7.29c0-1.22.15-2.45.23-3.68s.24-2.46.4-3.69C626,749.92,627,745,628.1,740c-1,4.15-1.81,8.28-2.5,12.42a83.35,83.35,0,0,0-1,12.36,50.74,50.74,0,0,0,1.44,12,46.2,46.2,0,0,0,4.73,11,63.41,63.41,0,0,0,7,9.89,55.24,55.24,0,0,0,8.6,8.17,48.1,48.1,0,0,0,9.87,5.81,35.65,35.65,0,0,0,10.55,2.8l1.34.15,1.36,0c.91,0,1.75.07,2.73,0s1.89-.07,2.84-.18l1.42-.13,1.42-.21a74,74,0,0,0,10.94-2.56,65.06,65.06,0,0,0,23.44-14.22,48.36,48.36,0,0,0,13.07-20A35.36,35.36,0,0,0,727,767.12l0-1.25c0-.42,0-.91,0-1.36s0-.92-.06-1.39,0-.92-.08-1.39a57.21,57.21,0,0,0-.71-5.68,84.44,84.44,0,0,0-3-11.89c-.7-2-1.45-4.11-2.28-6.21-.45-1.11-.91-2.22-1.36-3.34s-.94-2.33-1.45-3.47a222.31,222.31,0,0,0-10.88-22c-2-3.56-4.11-7.19-6.41-11.21L699,694.88l-1.8-3.23c-.54-1-1.39-2.59-2-3.82s-1.28-2.55-1.86-3.8c-2.33-5-4.37-9.88-6.27-14.86s-3.53-10-5-15.2-2.79-10.44-3.94-15.84-2-10.94-2.71-16.63a173.12,173.12,0,0,1,.85-48A150.1,150.1,0,0,1,682,550.12c1.32-3.77,2.79-7.46,4.22-11.15,1.63-3.59,3.3-7.15,5.05-10.64a158.42,158.42,0,0,1,26.8-36.8,169.6,169.6,0,0,1,16.52-14.91c3-2.23,5.84-4.51,8.93-6.54s6.12-4.11,9.3-6a86.72,86.72,0,0,1,9.4-5,21.05,21.05,0,0,1,5.2-1.93c1.16,0-3.59,2.77-10.15,6.87-3.23,2-6.34,4.14-9.43,6.35l-4.59,3.41c-1.53,1.15-3,2.39-4.46,3.59l-2.22,1.83c-.73.62-1.44,1.28-2.16,1.91L730.08,485,726,489.08l-2.05,2.07c-.67.71-1.32,1.44-2,2.15-1.32,1.44-2.63,2.9-3.93,4.36s-2.49,3-3.74,4.56c-2.52,3-4.81,6.29-7.11,9.54-1.18,1.6-2.22,3.32-3.3,5s-2.13,3.41-3.18,5.13l-2.9,5.34c-1,1.79-2,3.55-2.77,5.43l-2.55,5.59c-.41.94-.86,1.86-1.22,2.83L690.13,544,688,549.8c-.72,1.94-1.24,4-1.86,5.94a153.29,153.29,0,0,0-4.93,24.32,176.46,176.46,0,0,0,1.08,48.68,206.56,206.56,0,0,0,13,46.18c1.55,3.76,3.16,7.46,5.12,11.38l.78,1.54.71,1.34,1.36,2.51,2.62,4.8c1.72,3.1,3.35,6,4.87,8.86s3,5.65,4.38,8.47c2.79,5.61,5.25,11.38,7.6,17.38l1.7,4.52c.52,1.4,1,2.8,1.46,4.2.94,2.78,1.71,5.55,2.37,8.29a67.66,67.66,0,0,1,2,16l0,1.95-.12,1.8c0,.61-.12,1.19-.18,1.8s-.13,1.21-.26,1.81a37.25,37.25,0,0,1-2,7.27c-3.12,8.34-9.24,16.5-17.38,22.85.16,0,.3,0,.35.1.22.36-.36,1.3-1.6,2.55,9.86-6.89,17.45-16.16,21.2-25.86A41.84,41.84,0,0,0,732,768c.12-1.65.06-3.6,0-5.42s-.29-3.71-.54-5.58A83.78,83.78,0,0,0,729,745.63c-.55-1.93-1.15-3.86-1.85-5.82-.32-1-.69-2-1-2.94l-1.18-3A264.83,264.83,0,0,0,714,709c-2.06-4.09-4.26-8.28-6.64-12.83-1.19-2.29-2.41-4.67-3.67-7.2l-1-2-1-2.24c-.67-1.45-1.27-2.85-1.85-4.27a173.75,173.75,0,0,1-7.51-22.75,186.7,186.7,0,0,1-4.36-22.5,180.79,180.79,0,0,1-.28-44.95,152.45,152.45,0,0,1,4.23-28.39c.3-1.16.56-2.33.89-3.49l1-3.47c.63-2.33,1.51-4.57,2.3-6.83l1.22-3.39.61-1.69.71-1.65,2.89-6.54a157.59,157.59,0,0,1,14.33-24.36,173.64,173.64,0,0,1,18-21.21,13.39,13.39,0,0,1,2.69-2.31c.51-.26.05.38-1,1.44a170,170,0,0,0-23.33,30.67,153.46,153.46,0,0,0-15.82,36.8,19.33,19.33,0,0,1,2.77-4.36c.81-.91,1.46-1.28,1.88-1,.9.64.57,3.92-.09,8.81l1.29-4.27,1.51-4.19,1.52-4.17c.47-1.41,1.15-2.73,1.72-4.09,1.5-3.33,3-5.8,3.41-5.5s-.33,3.07-1.69,6.21c-1.25,2.7-2.2,5.53-3.2,8.34-.49,1.41-1,2.81-1.48,4.23l-1.26,4.3A148.48,148.48,0,0,0,699,577.77a166.49,166.49,0,0,0-1.65,17.81,170.59,170.59,0,0,0,.33,17.81,197.77,197.77,0,0,0,16.39,61.21c.73,1.63,1.51,3.24,2.33,4.88l1.24,2.38,1.22,2.28q2.42,4.46,4.82,8.91c-1-3.64-1.39-6.56-1-8.24v0q-1.47-2.82-2.92-5.64c-1-2-1.92-3.94-2.78-5.91a186.87,186.87,0,0,1-10.63-27.66,183.24,183.24,0,0,1-6.2-29.29,149.58,149.58,0,0,1,4.4-60.61A154.76,154.76,0,0,1,733.69,502a194.85,194.85,0,0,1,21-21.84,210.37,210.37,0,0,1,23.84-18.41,12.52,12.52,0,0,1,2.51-1.46,10.22,10.22,0,0,1-2.05,1.57c-20,13.52-38.1,30.29-52.25,50.36l.07-.07c.68-.74,1-.76.46.2a26.16,26.16,0,0,1-2.19,3.15c-.74.87-.87.66-.48-.18a149.23,149.23,0,0,0-15.85,30.51,155.9,155.9,0,0,0-5.1,16.51,146.76,146.76,0,0,0-3,17,155.47,155.47,0,0,0,.06,34,180.81,180.81,0,0,0,6.77,32.83c-5.33-19.9-7.72-40.79-5.72-61.52a137.18,137.18,0,0,1,6.39-30.46A140.87,140.87,0,0,1,721,526l1.48-3,1.63-2.94c.56-1,1.11-2,1.66-2.95s1.11-2,1.74-2.93a12.79,12.79,0,0,1,2.17-2.59c.33-.19,0,.66-.72,1.72s-1.38,2.09-2,3.2a68.37,68.37,0,0,1,6.1-7.63c1.77-1.73,3-2.61,3.37-2.27s-.44,2.12-1.74,4.48c-.62,1.2-1.4,2.57-2.3,4.05-.45.74-.93,1.5-1.43,2.29s-1,1.63-1.5,2.46c-11.06,18-18.64,38.05-21.16,58.9-.21,2.26-.35,4.52-.48,6.78.06,2.3.08,4.57.25,6.84a143.49,143.49,0,0,1,3.25-24c.91-3.93,1.9-7.84,3.18-11.65L716.5,551c.3-1,.69-1.89,1.07-2.82l1.15-2.79c1.43-3.76,3.3-7.33,5-11,.9-1.8,1.92-3.53,2.87-5.3l1.45-2.64c.51-.87,1.06-1.71,1.58-2.57l3.17-5.11,3.41-5c1.09-1.68,2.34-3.26,3.54-4.87s2.37-3.23,3.66-4.77c1.7-2.17,3.36-3.85,3.64-3.68s-.86,2.09-2.53,4.27c-1.06,1.4-2,2.86-3,4.32l-2.93,4.37L735.84,518l-1.37,2.24-1.26,2.3-2.51,4.6c-.8,1.55-1.52,3.14-2.28,4.7-1.59,3.1-2.84,6.35-4.18,9.55-.7,1.58-1.23,3.24-1.8,4.87l-1.69,4.89-1.39,5c-.43,1.66-1,3.3-1.3,5A135.55,135.55,0,0,0,715,581.46c-2.06,27.4,3.53,55.33,13.9,80.87,1.08,2,2.2,4,3.35,5.87s2.26,3.58,3.59,5.6c2.58,3.88,5.33,7.91,8,12.14a183.84,183.84,0,0,1,14.58,27.46c-.74-2.53-1.58-5.09-2.47-7.63A179.21,179.21,0,0,0,745.83,683c-1.84-3.52-3.7-6.87-5.45-10.06-.87-1.58-1.78-3.23-2.45-4.51s-1.47-2.92-2.2-4.44A211.34,211.34,0,0,1,722,625.72a156.31,156.31,0,0,1-5-40.28,125.74,125.74,0,0,1,2.06-20.62c.36-1.71.67-3.45,1.09-5.16s.9-3.42,1.36-5.14l.7-2.59.86-2.55,1.77-5.14a5.72,5.72,0,0,1,1.42-2.5c.25-.06.06.94-.53,2.29q-.84,2.51-1.66,5c-.55,1.66-1.12,3.29-1.5,5-.85,3.35-1.75,6.62-2.31,10a123,123,0,0,0-2,19.88,162.21,162.21,0,0,0,4.47,39.79,187.18,187.18,0,0,0,10.35,31.58c1.07,2.48,2.17,4.91,3.34,7.27s2.38,4.68,3.54,6.64c1.36,2.34,2.8,4.75,4.27,7.21s3,5,4.5,7.65q-2.09-4.14-4.15-8c-1.31-2.47-2.63-4.93-3.94-7.39-.5-1-1.05-2.08-1.59-3.21s-1.08-2.29-1.61-3.46c-1-2.34-2.06-4.74-3-7.16a204.18,204.18,0,0,1-9.41-29.87,161.3,161.3,0,0,1-4.19-30.9c0-1.3-.11-2.6-.09-3.9v-3.91c.11-2.6.18-5.21.42-7.81a117.58,117.58,0,0,1,2.24-15.56,16.45,16.45,0,0,1,1.48-4.64,2,2,0,0,1,0-1.09c.21-1.32.45-2.67.7-4.05s.71-2.73,1.08-4.12.75-2.83,1.18-4.25,1-2.81,1.5-4.24a9.51,9.51,0,0,1,1.44-2.87C731.23,537.06,731.14,537.81,730.76,539ZM560.31,678.54l-.35-.13a11.36,11.36,0,0,1,1.25.34l.2.13a10.78,10.78,0,0,1,1.37,1l-.74-.45C561.59,679.13,561,678.84,560.31,678.54Zm-14.6,9.76h0l-.86.27ZM624.85,772a64.65,64.65,0,0,1,.2-17.62c.78-5.92,2.1-11.81,3.42-17.78s2.66-12,3.51-18.3a68.64,68.64,0,0,0,0-19.83,67.15,67.15,0,0,1,.36,19.38c-1.29,9.55-3.71,18.54-5.57,27.48a108.93,108.93,0,0,0-2.08,13.4A57.1,57.1,0,0,0,624.85,772Zm-79.2-92.29a14.94,14.94,0,0,1,5.08-1.07,14,14,0,0,1,3.72-1.29,17.87,17.87,0,0,1,5.73-.28,15.66,15.66,0,0,1,5.75,1.86c-.36-.49.49,0,.94.25a10,10,0,0,1,1.29.81,15.66,15.66,0,0,0-5.89-3,19,19,0,0,0-6.39-.55A26.07,26.07,0,0,0,545.65,679.74Zm-13.39,17.44-.3.14s0,0-.23-.59Zm.44.94.35-.27C533.17,698,533,698.1,532.7,698.12Zm3-2.59a2.52,2.52,0,0,0-.58.31Zm15.74,3.83c-.74-.67-1.44-1.34-2.1-2,.62.71,1.28,1.39,2,2.08Z"/><path d="M304.85,593.91c.19-.07.41-.12.61-.18a1.73,1.73,0,0,1-.7,1.16,15,15,0,0,0,6.41-5.94,26.14,26.14,0,0,0,3.17-8.08c1.24-1.1,1.72-2.73,1-3.73s-2.43-.93-3.75.23a4.73,4.73,0,0,1-1.11.47,18.31,18.31,0,0,0-4.68,1.35,27.81,27.81,0,0,0-4.59,2.54l2.16-.84a10.7,10.7,0,0,0-2.51,1.94l.78.14c-3.49,1.58-5.94,5.79-5.27,9s3.87,4.24,7,2.6Z"/><path d="M314,593.75c-1.71.87-3.48,1.66-5.21,2.55l-.54,0,1.61,1-.08-.1c-.36-2.22.77-4.74,2-6.93l.37-.85a1.61,1.61,0,0,0-.25-1.26,1.76,1.76,0,0,0-2.62.11l-1,1c-3,1.9-6.25,6.3-4.52,9.59.4.74,1.4.95,2.18,1.36a2.59,2.59,0,0,0,3.53-.85,2.71,2.71,0,0,0,.06-3.69c.24-.17.47-.35.71-.5l0,.78c-.62-1,.1-2.31.32-3.53.27-.5.52-1,.81-1.48l-2.9-1.1-.24.93c.14,0,.36,0,.37.06a47.6,47.6,0,0,1-1.36,5.25c-.15.82-.3,1.62-.42,2.44a1.21,1.21,0,0,0,1.65,1l1.07-.44-.56.15c.93-.72,1.82-1.49,2.71-2.25a32.4,32.4,0,0,1,2.77-2.09.81.81,0,0,0,.38-.91A.54.54,0,0,0,314,593.75Z"/><path d="M309.63,600.23a1.79,1.79,0,0,0-1,.77l.07.31.81-.3C310.08,600.8,310,600.43,309.63,600.23Z"/><path d="M308.68,601.31l-.34.13h.34c0-.06,0-.06,0-.06Z"/><path d="M341.91,737.51l-2.58,1.89c-.84.64-1.63,1.3-2.45,2-1.61,1.32-3.31,2.59-4.77,4l-2.29,2c-.76.68-1.54,1.35-2.22,2.08l-.5.52-.17.18-.33.36c-.2.25-.61.55-.87.86a23.84,23.84,0,0,0-3.09,4.07,6.18,6.18,0,0,0-.78,2.45,3.89,3.89,0,0,0,.64,2.44,11.74,11.74,0,0,0,4,3.13,27.14,27.14,0,0,0,4.82,2.07c.09,0,.23.07.36.11l.49.14,1.36.42c.91.27,1.85.48,2.77.73,1.87.43,3.76.84,5.69,1.12a84.06,84.06,0,0,0,11.85,1,5,5,0,0,0,2-.23c0-.11-.79-.22-1.78-.21a83.21,83.21,0,0,1-11.79-1c-1.93-.28-3.81-.68-5.67-1.1l-2.75-.71c-.84-.26-2-.63-2.3-.7a25.88,25.88,0,0,1-4.58-2,11.77,11.77,0,0,1-3.86-2.93,3.61,3.61,0,0,1-.69-2.29,5.7,5.7,0,0,1,.68-2.34,20.58,20.58,0,0,1,2.92-3.87,10.94,10.94,0,0,1,.84-.83l.31-.34.15-.17.08-.08.23-.24,1-1.06,1.14-1,2.28-2c.77-.66,1.47-1.37,2.3-2l2.43-2,2.43-2,2.56-1.88a6.52,6.52,0,0,0,1.65-1.54C343.48,736.49,342.77,736.88,341.91,737.51Z"/><path d="M512.73,730.42c-1,0-.94.1,0,.26s2.35.37,3.3.46c.8.1.8,0,0-.26A15.35,15.35,0,0,0,512.73,730.42Z"/><path d="M504.85,738.43a61,61,0,0,0-13.21,3.43c-.74.28-1.59.52-2.25.7.33.07-.54.52-2.26,1.17-16.91,6.44-33.59,15.6-51.12,24.73-8.78,4.56-17.82,9.08-27.26,13.13a193.65,193.65,0,0,1-29.6,10.16,5.7,5.7,0,0,1-1.67.83,41.46,41.46,0,0,1-6.13,1.74c-1.3.26-2.72.51-4.2.75s-3,.37-4.59.52-3.16.18-4.74.23a116.49,116.49,0,0,1-14.46-.32,96.87,96.87,0,0,1-14.45-2.27l-1.79-.42-1.78-.49-2-.56a17.92,17.92,0,0,1-2.23-.69c-1.47-.53-2.95-1-4.4-1.58l-4.31-1.76a67.35,67.35,0,0,1-15.12-9.43A28.58,28.58,0,0,1,292,773a19.2,19.2,0,0,1-3.51-7.64,21.59,21.59,0,0,1-.43-7.42,30.09,30.09,0,0,1,1.7-7.19,32.87,32.87,0,0,1,3.29-6.89l4.46-6.7c.74-1.12,1.48-2.26,2.35-3.34.42-.55.82-1.11,1.26-1.66l1.43-1.66,2.56-3c.66-.83,1.38-1.58,2.1-2.33l4.32-4.55c1.47-1.48,3-2.87,4.51-4.31-.89.58-1.49.86-1.61.7-.07-.55,2.55-3.54,6.05-6.27,1.74-1.42,3.47-2.9,5.23-4.2-1.28.91-2.56,1.9-3.83,2.91l-3.82,3c-2.52,2-5,4.23-7.5,6.35-.69.67-1.34,1.27-1.95,1.81l-3.92,3.86c-.66.64-1.27,1.38-1.9,2.06l-2.67,3c-.44.51-.94,1-1.35,1.53l-1.2,1.53c-.84,1-1.56,2.07-2.28,3.12q-2.18,3.17-4.38,6.34l-1.19,1.74c-.35.59-.65,1.19-1,1.78a31,31,0,0,0-1.66,3.63c-.49,1.22-.89,2.45-1.29,3.69a38,38,0,0,0-.81,3.78,29.16,29.16,0,0,0-.37,3.86,27,27,0,0,0,.24,3.9,23,23,0,0,0,.87,3.82c.19.62.42,1.23.65,1.83s.54,1.17.83,1.74a27.87,27.87,0,0,0,4.35,6.16,34.5,34.5,0,0,0,2.74,2.66c1,.83,2.09,1.6,3.13,2.41a67.68,67.68,0,0,0,14.37,7.86l3.91,1.5,4,1.3c.67.21,1.32.45,2,.64s1.3.32,2,.47l3.08.74a105.74,105.74,0,0,0,12.2,1.83A115.76,115.76,0,0,0,362.8,797c15.62-1.93,30-6.6,43.34-12.28s25.75-12.34,37.86-18.83a20.91,20.91,0,0,1,2.8-1.34c.52-.15.49,0-.39.5-15,8.55-29.27,17.13-45.69,24.27A160.28,160.28,0,0,1,374,798.32a115.83,115.83,0,0,1-32,3.21c-.87,0-1.73-.06-2.59-.12l-2.6-.21c-1.73-.12-3.46-.37-5.2-.59s-3.48-.56-5.22-.85c-.88-.14-1.75-.35-2.62-.54l-3.06-.71A11.28,11.28,0,0,1,319,798l-1.8-.57-3.59-1.16L310.06,795l-1.77-.66a12.63,12.63,0,0,1-1.73-.73l-3.34-1.65c-1.12-.56-2.24-1.1-3.28-1.74l-3.17-1.85c-.52-.32-1.09-.6-1.57-1l-1.39-1.08a48.76,48.76,0,0,1-5.33-4.46,35.62,35.62,0,0,1-4.2-5.16l-.89-1.41c-.27-.48-.54-1-.79-1.47a25.45,25.45,0,0,1-1.39-3.1c-.37-1.08-.72-2.18-1-3.29s-.47-2.26-.61-3.4a34.31,34.31,0,0,1,1.21-13.49,36.92,36.92,0,0,1,2.43-6.53l.78-1.61c.31-.53.67-1,1-1.57l2-3.14,4.09-6.31A56.31,56.31,0,0,1,296,725.1l2.53-2.93c.56-.65,1.11-1.34,1.69-2l3.5-3.7c2.32-2.53,4.75-4.77,7.17-7.08l1.83-1.72,1.84-1.63,3.71-3.23c9.94-8.48,20.08-15.77,29.7-22.8,10.24-7,19.62-13.73,27.67-20.64,1-.84,2-1.72,2.93-2.6l2.85-2.61c.95-.86,1.75-1.77,2.63-2.65l2.58-2.65a64,64,0,0,0,7.72-10.27c.54-.84.91-1.67,1.38-2.48s.8-1.62,1.07-2.39a23.78,23.78,0,0,0,1.37-4.31,15.69,15.69,0,0,0,.35-3.48,11.16,11.16,0,0,0-.39-2.6,15.25,15.25,0,0,0-2.68-4.91,16.76,16.76,0,0,0-5-4.22,20.06,20.06,0,0,0-8.88-2,25.56,25.56,0,0,0-5.39.49,26.07,26.07,0,0,0-5.2,1.65c-.4.19-.8.34-1.23.58l-.63.31-.12.08-.34.28c-.23.18-.47.35-.7.51-.45.4-.92.71-1.38,1.1a57,57,0,0,0-5.49,4.91,2.57,2.57,0,0,1-2.78,1,9.16,9.16,0,0,1-4.21-2,8.61,8.61,0,0,1-3.27-5c-.15.15-.3.3-.45.43l-1,.43a5,5,0,0,1-3.46.05l-1.66-.42c-2.92-1.12-5.93-1.22-9-2.29l-.82-.87H334a6.38,6.38,0,0,1-3.43-.64l-1.12-.88a13.17,13.17,0,0,1-3-3.7,4.92,4.92,0,0,1-1.26-1.23,6.73,6.73,0,0,1-4-2.4.94.94,0,0,1-1.05-.93,1.19,1.19,0,0,1,.15-.58h0a8.27,8.27,0,0,0-1-.06c-.33.24-.54.37-.54.37l-1.55,1.31a5.38,5.38,0,0,1-1.7.39c-2.61-.67-2.63-.65-3.46-1.37-.06-.11-.12-.21-.17-.32-.71.41-.76.44-1,.54a2.56,2.56,0,0,1-.55.07c-.52-.29-.52-.29-.77-.3a2.55,2.55,0,0,1-.4-.21c-.32-.7-.31-.7-.47-.81a1.74,1.74,0,0,1-.13-.37l.17-.82,1.87,0-.31-.48.72.18-.61-.24.63-.22-.81.19a7,7,0,0,0,1.19-1.33,2.45,2.45,0,0,0,.54-.89,2,2,0,0,1-.31-.16c1-1,1-1,2-1.83a4.6,4.6,0,0,1,.53,0,.63.63,0,0,1,.21-.64l.52-.47c0-.06,0-.12,0-.17l0,0,.13-.65,0-.14h0l.65-2.77a9.87,9.87,0,0,1,1-.69l-.44.07c-.3,0-.59-.48-.71-.42a35.16,35.16,0,0,0-7.73,6,1.12,1.12,0,0,1-1.32.58.89.89,0,0,1-.22-1.31,21.07,21.07,0,0,1,5.19-9.86,27.24,27.24,0,0,1,9.3-6.56c1.6-1,3.13-2,4.75-3l-.38-.06,1.39-.55.14-.08-1.49-.12-.79.25c-3.63,2.39-7.64,3.89-11.36,6.27-2,1.28-4.07,2.08-6.05,3.31a.87.87,0,0,1-1.24.14,1,1,0,0,1,.27-1.29c4.25-6.15,11.37-11.66,18.23-12.49a7.38,7.38,0,0,1,3.56-1.44l.05,0-1.17-.2c.94-.42,1.79-.17,2.72-.43l-.94-.75c4.51-2.21,9.13-5.2,14.08-5.65a5.18,5.18,0,0,1,.53-.14,29.58,29.58,0,0,1,2.37-2.21c.21-.17.43-.34.66-.5a1.21,1.21,0,0,1,.22-.14l1.29-.54c.87-.35,1.73-.72,2.63-1a77.76,77.76,0,0,1,11.49-3.25c-1.37.26-2.74.51-4.09.79s-2.69.64-4,1-2.67.78-4,1.2l-3.65,1.27,0,0,.23-.09.51-.22,1-.44,2.06-.85c1.42-.51,2.84-1,4.28-1.51a79.17,79.17,0,0,1,8.82-2.27,75.79,75.79,0,0,1,45.2,4.95,72.12,72.12,0,0,1,12.11,6.89,70.69,70.69,0,0,1,10.05,8.8,69.66,69.66,0,0,1,7.56,9.76,63.84,63.84,0,0,1,5.14,10,53.31,53.31,0,0,1,4,17.51c.22,1.07.42,2.14.55,3.25s.3,2.18.39,3.29l.18,3.33c.07,1.12,0,2.18,0,3.28a62.74,62.74,0,0,1-.47,6.46c-.13,1.07-.33,2.1-.51,3.15a30.92,30.92,0,0,1-.63,3.1l-.75,3-.91,2.94c-.3,1-.64,1.94-1,2.87s-.71,1.89-1.09,2.8a85.5,85.5,0,0,1-5.27,10.33,105.34,105.34,0,0,1-13.09,17.25c-2.37,2.54-4.86,5-7.29,7.2L413.38,688c-1.22,1.13-2.5,2.1-3.74,3.16a317.43,317.43,0,0,1-30.43,21.79c-10,6.5-19.79,12.55-28.7,18.86a14.08,14.08,0,0,1-4.05,2.34c-.35-.09.7-1.15,2.52-2.48,12.6-9.35,27-18.11,41.59-28.31a254.69,254.69,0,0,0,21.67-17l5.23-4.86c1.74-1.67,3.48-3.47,5.16-5.3a108.8,108.8,0,0,0,9.53-11.93,101.94,101.94,0,0,1-8.15,9.88c-.71.77-1.42,1.53-2.16,2.26s-1.45,1.5-2.2,2.2l-2.23,2.13-2.25,2-4.49,3.93-4.6,3.66-2.31,1.82-2.33,1.7-4.68,3.41c-12.51,8.74-25.26,16.24-37.24,23.9l-4.53,3-4.43,3-4.32,3c-1.41,1-2.91,1.92-4.28,2.92L336.83,737,332,741c-1.59,1.36-3,2.79-4.57,4.18l-1.13,1c-.37.35-.7.73-1.06,1.09l-.46.49-.23.26-.46.53c-.3.36-.76.75-1.09,1.15L322,751a30.45,30.45,0,0,0-2,2.57,12.41,12.41,0,0,0-1.43,2.87,5.9,5.9,0,0,0-.21,3.17,5.34,5.34,0,0,0,1.64,2.72,13.18,13.18,0,0,0,2.62,1.88A31.54,31.54,0,0,0,328.5,767c.5.19,1,.33,1.54.49l.77.24.45.11.64.17,1.39.4,1.43.33c1,.21,1.9.46,2.88.61a74.82,74.82,0,0,0,12,1.31,95.58,95.58,0,0,0,10.45-.25c3.46-.3,6.84-.71,10.26-1.35a142,142,0,0,0,20.23-5.35c13.41-4.54,26.64-10.77,41.13-17.82,10.19-5,20.39-9.93,31-14.38,5.29-2.22,10.67-4.31,16.18-6.17a124.05,124.05,0,0,1,17.64-4.79,59.84,59.84,0,0,1,21-.37,44.25,44.25,0,0,1,21,9.81,55.85,55.85,0,0,1,13.38,16.95,76,76,0,0,1,6.65,18.92c1.52,6.65,1.84,12.48,1.51,13.26s-1.24-3.56-2.54-10a81.63,81.63,0,0,0-6.39-19.3,54.57,54.57,0,0,0-13.31-17.5,44,44,0,0,0-9.92-6.45,42.79,42.79,0,0,0-11.42-3.43,60.14,60.14,0,0,0-21.48,1c-3.28.69-6.43,1.54-9.45,2.47s-5.91,1.9-8.82,2.93c-5.78,2.08-11.42,4.37-16.95,6.78-11.06,4.82-21.66,10.09-32.14,15.11s-20.86,9.76-31.38,13.6a142.07,142.07,0,0,1-31.88,8,87.89,87.89,0,0,1-31.51-1.88l-1.86-.54c-.52-.14-.9-.23-1.28-.36-.78-.27-1.57-.48-2.32-.79s-1.54-.58-2.28-.93-1.49-.69-2.21-1.07-1.44-.8-2.14-1.22a16.66,16.66,0,0,1-2-1.39,6.87,6.87,0,0,1-2.71-4,7.25,7.25,0,0,1,.56-4.16,17.44,17.44,0,0,1,2.13-3.64c.87-1.11,1.77-2.18,2.64-3.26.42-.53,1-1,1.4-1.49s.68-.78,1.65-1.78a.47.47,0,0,1-.36,0c-.26-.25.07-1.16,1-2.38-.49.46-1,.9-1.46,1.39l-1.2,1.26c-.53.57-1.05,1.15-1.69,1.77-1.15,1.29-2.23,2.65-3.36,4a19,19,0,0,0-2.7,4.53,7.44,7.44,0,0,0-.29,5.19,8,8,0,0,0,2.34,2.87,18.72,18.72,0,0,0,3.13,2,40,40,0,0,0,6.67,3c1.12.42,2.28.73,3.42,1.06l.47.11.54.14,1.31.35c.86.24,1.76.39,2.64.6a79.83,79.83,0,0,0,10.91,1.55,100.68,100.68,0,0,0,11.28.2q5.7-.27,11.47-1.1A155.36,155.36,0,0,0,392,766.62a333.92,333.92,0,0,0,31.52-12c10.24-4.37,20.37-8.94,30.88-13.28,6.55-3,13.22-5.86,20.09-8.44,3.43-1.28,6.91-2.5,10.43-3.62a110.38,110.38,0,0,1,11.1-3,63.75,63.75,0,0,1,12.1-1.37,43.5,43.5,0,0,1,12.94,1.69c1.08.28,2.14.71,3.21,1.08s2.12.86,3.11,1.4a39.76,39.76,0,0,1,5.75,3.51,46.18,46.18,0,0,1,9.22,9.14,16.2,16.2,0,0,1,1.79,2.7c.19.46-.28-.1-1.09-1.19a45.52,45.52,0,0,0-13.11-12,38.12,38.12,0,0,0-8.55-3.74,40.62,40.62,0,0,0-9-1.56,59.45,59.45,0,0,0-17.09,1.61c-2.69.61-5.31,1.34-7.86,2.14-1.29.39-2.53.81-3.78,1.23s-2.49.86-3.73,1.3c3.24-.77,5.28-.9,5.15-.41s-2.42,1.68-6,3.23c4.46-1.52,8.93-3,13.64-4.12,2.91-.7,5.29-1,5.25-.7s-2.33.86-5.07,1.53a204.13,204.13,0,0,0-27.16,9.36c-8.78,3.63-17.35,7.64-25.84,11.65-10.13,5-20.14,9.93-30.37,14.28a191.13,191.13,0,0,1-31.36,10.63,31.57,31.57,0,0,1,6.54-.27h0c3.32-.94,6.61-1.92,9.86-3,14.83-5.37,29.09-12.5,43.51-19.68s29.1-14.42,44.78-19.78c7.79-2.65,16-5.07,24.86-5.3A38.66,38.66,0,0,1,521,731.55a34.27,34.27,0,0,1,11.76,6.79c6.81,5.93,11.37,13.84,14.12,22s4,16.6,5,24.78a7.79,7.79,0,0,1,.14,2.38,6.81,6.81,0,0,1-.44-2.09c-1.26-9.86-2.74-20.08-6.9-29.73a50,50,0,0,0-8.41-13.37,36.71,36.71,0,0,0-13-9.53l.08.05c.79.41.89.57,0,.26s-2.4-.86-3.19-1.2-.83-.43,0-.27a40.7,40.7,0,0,0-14.81-1.49,73.08,73.08,0,0,0-14.14,2.59,212.29,212.29,0,0,0-26.12,9.6c-16.88,7.37-32.82,16.1-49.08,23.61,15.23-6.73,30.08-14.51,45.52-21.26a245.34,245.34,0,0,1,23.65-9.07,105.5,105.5,0,0,1,12.37-3.27,54.88,54.88,0,0,1,13-1.05,35.62,35.62,0,0,1,11.5,1.92,12.23,12.23,0,0,1,2.63,1.33c.23.22-.5-.09-1.53-.49A32.46,32.46,0,0,0,520,733a25.19,25.19,0,0,1,7.47,3.89c1.66,1.3,2.45,2.29,2.25,2.45-.61.24-5.13-3.11-11.51-4.82a38.17,38.17,0,0,0-13.08-1A71,71,0,0,0,492.21,736a212.74,212.74,0,0,0-24.74,8.93c-1.74.75-3.46,1.56-5.18,2.35s-3.41,1.71-5.1,2.6c6.22-2.79,12.5-5.44,18.86-7.82,3.18-1.19,6.39-2.31,9.62-3.33s6.48-2,9.76-2.73c6.54-1.49,13.32-2.2,19.79-1a30,30,0,0,1,9.16,3.34,33.42,33.42,0,0,1,7.63,6.09c1.57,1.6,2.61,3.24,2.49,3.39s-1.32-1.2-2.86-2.79a29.68,29.68,0,0,0-14.26-8.34,39.85,39.85,0,0,0-16.81,0,106.41,106.41,0,0,0-16.85,4.9c-5.57,2-11.07,4.3-16.52,6.73-21.79,9.74-42.8,22.07-66,30.88A178.58,178.58,0,0,1,378,787.59a123.37,123.37,0,0,1-25.26,4.47c1.1,0,2.21,0,3.31-.06s2.22-.06,3.33-.16c14.14-1,27.12-4.57,39.13-9.06a313.86,313.86,0,0,0,33.91-15.67c10.79-5.62,21.3-11.38,32.19-16.58,5.45-2.59,11-5,16.68-7.26a119.45,119.45,0,0,1,17.49-5.52,8.34,8.34,0,0,1,2.36-.27c.15.06-.64.31-1.85.53a112.9,112.9,0,0,0-16.92,5.33c-5.51,2.12-10.86,4.51-16.16,7-10.6,5-21,10.7-32,16.43-9.16,4.74-18.26,9.28-27.54,13.28A198.52,198.52,0,0,1,378.12,790a176.16,176.16,0,0,0,28.75-9.37c9.13-3.81,17.84-8.08,26.38-12.44,17.06-8.7,33.51-17.79,51.14-24.27a30.73,30.73,0,0,1,4.13-1.29,3.29,3.29,0,0,1,.84-.42,70.81,70.81,0,0,1,14-4,10.56,10.56,0,0,1,2.61-.16C506.43,738.16,505.88,738.28,504.85,738.43Zm-177-149.57-.26,0,.66-.15,1.54.48Zm-3.14,10.67h0l-.89-.17Zm84.45,87c2.15-1.78,4.22-3.75,6.33-5.62s4.19-4,6.22-6.12A106.74,106.74,0,0,0,433,660.66a77.72,77.72,0,0,0,8.78-17.26,64,64,0,0,0,3.78-20.64,62.8,62.8,0,0,1-3,20.37,80.94,80.94,0,0,1-14.49,25.1,114.09,114.09,0,0,1-9.22,9.86c-.81.74-1.61,1.54-2.42,2.23l-2.43,2.1C412.43,683.79,410.84,685.25,409.17,686.53Zm-90.06-96.37a11.07,11.07,0,0,1,3.54,0,5.91,5.91,0,0,1,1.23-1.51,34.78,34.78,0,0,1,4.22-3.15c-.49-.22-.14-.45,0-.63l.41-.51L326,585.75l-2.47,1.48C322.1,588.16,320.62,589.32,319.11,590.16Zm-6.62,11.18-.24,0-.41-.7Zm.73,1.15.23-.16C313.63,602.57,313.5,602.58,313.22,602.49Zm2.14-1.38a1.53,1.53,0,0,0-.52,0Zm18.45,11.64L331.29,610c.78.93,1.57,1.84,2.37,2.75Z"/><path d="M433.78,790.2l0,.27a.52.52,0,0,1-.43-.26c.64,2.37,3.22,3.24,5.43,3.08a1.1,1.1,0,0,0,1.55-.06,1.09,1.09,0,0,0-.05-1.54,2,2,0,0,1-.17-.41,8.45,8.45,0,0,0-1.17-3.5l.21.83a2.74,2.74,0,0,0-.63-.88l-.1.34a2.54,2.54,0,1,0-4.84,1.52Z"/><path d="M433.34,794.29c-.31-.74-.57-1.48-.83-2.23l0-.24-.53.76.05,0a4.48,4.48,0,0,1,2.85.55l.35.1a.83.83,0,0,0,.54-.21.8.8,0,0,0,.06-1.14l-.35-.38c-.65-1.18-2.17-2.38-3.68-1.56-.34.19-.52.63-.75,1a1.11,1.11,0,0,0,.09,1.57,1.09,1.09,0,0,0,1.57-.09l.17.3-.33,0c.47-.31,1-.06,1.49,0l.59.26.6-1.35-.38-.05a.58.58,0,0,1,0,.17,10,10,0,0,1-2.12-.34l-1-.11a.68.68,0,0,0-.53.76l.1.48a2.11,2.11,0,0,0,0-.25c.49.79,1.11,1.51,1.58,2.31a.29.29,0,0,0,.38.13A.29.29,0,0,0,433.34,794.29Z"/><path d="M430.78,792.54a.66.66,0,0,0-.26-.45l-.14,0c0,.1.05.23.07.36S430.66,792.71,430.78,792.54Z"/><path d="M430.38,792.13l0-.15a.77.77,0,0,1,0,.15h.05Z"/><path d="M455.49,808.26a38.24,38.24,0,0,0,2.89,3.07s.1,0,.16-.06.07-.15,0-.18A42.1,42.1,0,0,1,455.7,808s-.1,0-.16.06S455.46,808.22,455.49,808.26Z"/><path d="M458.27,821.6a.31.31,0,0,0-.14.18c0,.06,0,.1.1.07a.34.34,0,0,0,.13-.18C458.37,821.6,458.33,821.58,458.27,821.6Z"/><path d="M453.76,826.93a1.77,1.77,0,0,0-.74.08s-.07,0-.07-.07a.45.45,0,0,1-.28.21,15.23,15.23,0,0,1-4.83-.83,1.71,1.71,0,0,1-.25.22c-.3.23-.58.25-.7.07l-.08-.17c-.38-.56-.78-1.08-1.15-1.65a.76.76,0,0,1-.54,0,13.68,13.68,0,0,1-2.05-.08,1,1,0,0,1-.17.31c-.2.24-.44.34-.55.23l-.2-.12c.13.19.26.39.38.59a.3.3,0,0,1,0,.1,4.25,4.25,0,0,0,.59.43,15.23,15.23,0,0,0,6.66,1.63c.05,0,.09,0,.07.1a.27.27,0,0,1-.15.15c-2,.44-4.09,1.37-5.85,1.29a31.07,31.07,0,0,1-5.95-.8c-1.46-1.13-3.27-1.59-5.09-2.31a17.87,17.87,0,0,1-1.77-.79,1.84,1.84,0,0,1-.25-.14l-.39-.25-.76-.5-1.5-1c-2-1.37-3.91-2.8-5.85-4.26a3.32,3.32,0,0,1,1.36-6.18l-.34-.29-.42-.6a2.89,2.89,0,0,1-.48-2l.08-.91c.37-1.55.28-3.16.78-4.69l.45-.38v-.21a2.89,2.89,0,0,1,.32-1.71l.45-.53a7,7,0,0,1,1.88-1.38,2.48,2.48,0,0,1,.61-.6,3.45,3.45,0,0,1,1.24-1.92.5.5,0,0,1,.47-.5.52.52,0,0,1,.25.07h0a3.54,3.54,0,0,0,.07-.5,2.6,2.6,0,0,1-.15-.25l-.52-.72a2.28,2.28,0,0,1-.08-.79c.46-1.21.46-1.21.83-1.6l.15-.07c-.13-.33-.14-.35-.17-.45a.88.88,0,0,1,0-.25c.16-.23.16-.23.18-.35a1.41,1.41,0,0,1,.13-.18c.33-.15.33-.15.38-.21a.75.75,0,0,1,.18-.07l.33.07-.12.85.23-.15-.13.33.15-.28.05.28,0-.36c.33.4.33.4.49.51a.89.89,0,0,0,.36.22.69.69,0,0,1,.08-.14c.36.43.36.43.69.86a1.94,1.94,0,0,1,0,.24.23.23,0,0,1,.27.06l.18.22h.08v0l.27,0H433l1.19.12a3.24,3.24,0,0,1,.28.4,1.11,1.11,0,0,1,0-.19c0-.13.22-.3.2-.35a17.19,17.19,0,0,0-2.2-3.14.43.43,0,0,1-.15-.57.41.41,0,0,1,.57-.14,8.92,8.92,0,0,1,6.54,5c.45.53.92,1,1.39,1.56a1,1,0,0,1,0-.17c.09.17.19.33.29.49l0,0v-.65l-.14-.28a27.7,27.7,0,0,1-2.71-4,24.49,24.49,0,0,1-1.15-2.29.37.37,0,0,1,0-.52.36.36,0,0,1,.51,0c2.28,1.32,4.44,3.4,5,6a2.11,2.11,0,0,1,.76,1.17v0l0-.51c.22.3.15.69.32,1l.26-.52c1.17,1.36,2.77,2.39,3.55,4a1.67,1.67,0,0,1,.12.16,8.07,8.07,0,0,1,2,.47c-.07-.14-.15-.28-.23-.42a1.48,1.48,0,0,1,1,.28,3.12,3.12,0,0,1,.38,3.37,49.57,49.57,0,0,0,4.53,2.64c.08,0,.07.18,0,.33s-.24.23-.33.19a16.35,16.35,0,0,1-3.68-1.38,15.24,15.24,0,0,0,2.13,2.46l.38.2a.6.6,0,0,1,.26.32,13.14,13.14,0,0,0,3.43,2.25,30.06,30.06,0,0,0,3.52,1.1,12.41,12.41,0,0,1,4.77,1.8c.2.09.17.47-.07.83s-.62.57-.83.48c-3.55-1.07-7.23-1.87-10-4.25l-.86-.77-.1.14a2.19,2.19,0,0,1-.47.45,8.65,8.65,0,0,1,.87,1,6.67,6.67,0,0,1,3.41,1.71,9.17,9.17,0,0,1,1.28,2.47c1,.43,2,.8,3,1.26.06,0,.06.07,0,.14a.22.22,0,0,1-.16.13,14,14,0,0,1-2.56-.33,2.3,2.3,0,0,1-.47.9,2.15,2.15,0,0,1-.81.65l.39.34c.07.07,0,.24-.08.4s-.29.24-.37.17l-1.59-1.35c-.79-.33-1.56-.69-2.32-1.08a3.27,3.27,0,0,1-.39.9h0l.33.22a14,14,0,0,1,6.62,3.22s0,.11,0,.19-.13.11-.16.07a11.78,11.78,0,0,0-1.74-1.33h0a.26.26,0,0,1-.14.17c-.06,0-.1,0-.09-.06a.27.27,0,0,1,.13-.18,15.07,15.07,0,0,0-3.86-1.62,17,17,0,0,1,2.91,2.3l.53,0c.05,0,.05.08,0,.16s-.11.12-.16.11h-.14c.16.17.07.59-.22,1s-.7.55-.88.38a17.64,17.64,0,0,1-1.64-1.06l-.22-.06-.3,0c.68.77,1.33,1.57,2,2.38.07.05,0,.2-.06.34s-.25.2-.32.15a28.23,28.23,0,0,1-5.11-2.14l-2.74.64a1.21,1.21,0,0,0,.16.16c1.55,1.19,4.12.57,5.88,1.39.05,0,0,.1,0,.17s-.13.11-.17.08a16.74,16.74,0,0,0-3-.46,14.42,14.42,0,0,0-2.55-.27c1.26.72,2.9.86,4.27,1.41.07,0,.1.08.08.18a.19.19,0,0,1,.1-.08,2.7,2.7,0,0,1,.78-.07c.05,0,.07.05,0,.13A.24.24,0,0,1,453.76,826.93Zm-18.27-26.78V800l.09.29-.15.75Zm-5-.65h0c.05-.25.08-.43.08-.43C430.58,799.25,430.55,799.39,430.53,799.5Zm21,8.75a4.54,4.54,0,0,1-1.41-1.86l.5.25A16.75,16.75,0,0,1,451.57,808.25Zm-16.78-11.92a6,6,0,0,1,0,1.59,2.06,2.06,0,0,1,.68.41,20,20,0,0,1,1.53,1.52c.08-.24.19-.12.28-.09l.24.12c-.48-.6-1-1.2-1.44-1.83A17.64,17.64,0,0,1,434.79,796.33Zm-4.69-2.47v-.1l.33-.2Zm-.55.35.06.11C429.5,794.4,429.5,794.34,429.55,794.21Zm.5,1a1,1,0,0,0,0-.23Zm-6,8.84,1.41-1.2-1.39,1.12Z"/></svg>