<svg id="Layer_1" data-name="Layer 1" xmlns="http://www.w3.org/2000/svg" viewBox="0 0 1080 893.8"><path d="M357.3,382.14v.52c-.3,0-.54-.16-.74-.49A6.24,6.24,0,0,0,360,387a10.71,10.71,0,0,0,6,.78,1.84,1.84,0,0,0,2.74-.31,2.36,2.36,0,0,0,.05-3,2.56,2.56,0,0,1-.26-.78A16.85,16.85,0,0,0,367,377c.07.52.15,1.06.22,1.57a4.9,4.9,0,0,0-.93-1.62c-.08.21-.17.47-.26.68a3.64,3.64,0,0,0-5.11-3,5.9,5.9,0,0,0-3.81,6.29Z"/><path d="M355.79,390.29c-.48-1.47-.86-3-1.2-4.43l.08-.48-1.13,1.52.09-.08c1.86-.48,3.64.25,5.2,1l.64.16a1.64,1.64,0,0,0,1-.47,1.67,1.67,0,0,0,.23-2.23c-.2-.24-.38-.49-.57-.73-1-2.32-3.42-4.6-6.43-2.95a6.46,6.46,0,0,0-1.64,2,2.23,2.23,0,0,0-.14,3.11,2,2,0,0,0,3-.21l.27.58-.62.06c.92-.65,1.84-.16,2.77-.12l1,.52,1.31-2.73-.67-.08a2.93,2.93,0,0,1-.11.33,16.52,16.52,0,0,1-3.84-.59l-1.85-.2a1.54,1.54,0,0,0-1.15,1.52l.12.94v-.49c.79,1.56,1.84,3,2.63,4.59a.48.48,0,0,0,.69.24A.62.62,0,0,0,355.79,390.29Z"/><path d="M351.22,386.85a1.11,1.11,0,0,0-.41-.89l-.27.07c0,.2,0,.46.07.72C350.65,387.27,351,387.18,351.22,386.85Z"/><path d="M350.54,386l0-.3-.07.3h.09Z"/><path d="M477.76,428c1,0,1.92.11,2.89.12h8.72l5.83-.27,2.92-.14,2.92-.26,5.85-.53,5.83-.77,2.93-.4c1-.14,1.93-.33,2.91-.5l5.82-1c.52-.08.93-.27.93-.4s-.43-.12-.91,0l-5.82,1-2.9.5-2.91.38-5.82.77-5.82.52-2.91.25-2.91.14-5.8.26c-1.94,0-3.87,0-5.8,0s-3.86,0-5.77-.12c-.52,0-.94.08-1,.21S477.28,428,477.76,428Z"/><path d="M595.75,408.29c-.31.26-.24.34.15.21a4.17,4.17,0,0,0,1.2-.66c.26-.21.18-.31-.15-.2A4.55,4.55,0,0,0,595.75,408.29Z"/><path d="M596.47,417l-2.89,1.94c-.94.61-1.83,1.21-2.66,1.81a4.51,4.51,0,0,1-1,.52c.2.08-.13.43-.86.9-14.33,9.32-31.12,17.16-48.29,23.59a1.52,1.52,0,0,1-.62.66,19.77,19.77,0,0,1-6,2.49l-1.95.46c-2,.5-3.94.89-5.9,1.35s-3.93.92-5.92,1.27l-6,1.08-3,.53-3,.4a47.7,47.7,0,0,1-5.49,1.42c-3.4.89-6.85,1.62-10.32,2.42s-7,1.29-10.63,1.9c.47.11.75.27.75.47s-.49.5-1.17.7a13.06,13.06,0,0,1-2.58.37l-3,.2c2.86-.06,5.73,0,8.56-.24a11.28,11.28,0,0,1,1.14,0c3.11-.31,6.26-.57,9.42-1.11a213.52,213.52,0,0,0,39.38-9.9A264.54,264.54,0,0,0,570,434.63a4.39,4.39,0,0,1,1.31-.56c.26,0,.27.11-.13.35-1.71,1.09-3.42,2.09-5.12,3.08l-5.06,3c-3.39,1.94-6.78,3.84-10.27,5.74a170.88,170.88,0,0,1-23.35,10.37,242.36,242.36,0,0,1-67,13.81,333.06,333.06,0,0,1-36.45-1.87,241.17,241.17,0,0,1-36.92-6.7c-2.15-.5-4.24-1.2-6.35-1.82l-6.31-1.93-6.19-2.23c-2.06-.76-4.14-1.46-6.14-2.35l-1.52-.64-.75-.32-.29-.1-1-.39-2.06-.78c-1.36-.53-2.73-1-4.05-1.66-2.66-1.21-5.29-2.47-7.92-3.76s-5.16-2.81-7.77-4.26a8.39,8.39,0,0,1-4.4-4.2,6,6,0,0,1,0-5.28,6.47,6.47,0,0,1,5.34-3.31l-.83-.62-1.11-1.27a6.07,6.07,0,0,1-1.5-4.15v-1.87c.54-3.19.21-6.63,1.22-9.75l.94-.75V410a5.49,5.49,0,0,1,.65-3.52l1-1a14.47,14.47,0,0,1,3.91-2.72,4.86,4.86,0,0,1,1.28-1.2,7,7,0,0,1,2.6-3.86,1,1,0,0,1,1-1,1,1,0,0,1,.51.14h0a10.14,10.14,0,0,0,.18-1c-.18-.31-.27-.51-.27-.51-.53-.77-.53-.77-1-1.45a4.68,4.68,0,0,1-.06-1.61c1.08-2.41,1.09-2.4,1.88-3.17l.3-.15a8.33,8.33,0,0,1-.25-.88,2.13,2.13,0,0,1,.07-.5c.36-.46.36-.46.43-.69a2.66,2.66,0,0,1,.27-.35c.66-.3.66-.3.79-.43a1.6,1.6,0,0,1,.34-.13l.64.13-.39,1.69.47-.29-.31.65.33-.56.06.56v-.73c.56.8.57.8.87,1a1.41,1.41,0,0,0,.64.43,3.11,3.11,0,0,1,.18-.29c.61.85.61.85,1.19,1.71a3.41,3.41,0,0,1-.09.48.41.41,0,0,1,.5.14l.33.42h.13l0,0,.52.05H355c.35,0,.85.1,2.24.16a5.84,5.84,0,0,1,.5.76,2.43,2.43,0,0,1,0-.38c0-.26.44-.61.4-.71a14.3,14.3,0,0,0-.82-1.61c-.27-.54-.58-1.06-.89-1.57-.63-1-1.31-2-1.95-3a.85.85,0,0,1,.91-1.41c5.23.72,9.1,4.4,11.53,9.17.84.95,1.72,1.87,2.61,2.79v-.33l.56.91.08.08c0-.42-.05-.84-.07-1.26-.08-.19-.16-.37-.25-.54a17,17,0,0,1-2.68-3.46c-.76-1.27-1.41-2.65-2.17-3.9a33.55,33.55,0,0,1-1.83-4.34.75.75,0,0,1,.08-1,.64.64,0,0,1,.92-.06,18.79,18.79,0,0,1,5.3,4.52,15.29,15.29,0,0,1,3.37,6.45,3.88,3.88,0,0,1,1.42,2.14l0,0v-1c.4.56.35,1.29.69,1.86l.4-1.08c1.13,1.15,2.46,2.12,3.7,3.17a19,19,0,0,1,1.79,1.69,11.68,11.68,0,0,1,1.56,1.92l.25.25a17.41,17.41,0,0,1,2.17,0l.53.07.14,0,.35.16.71.32c1,.43,1.89,1,2.92,1.42-.66-.38-1.28-.81-1.9-1.24l-1.83-1.26c.66.24,1.48.59,2.2.91s1.49.64,2.26.95a49.44,49.44,0,0,1,4.56,2.17c8.36,4.32,17.78,9.72,22,13.8a205.43,205.43,0,0,0,27.78,6.42,197.67,197.67,0,0,0,28.55,2.18,3.18,3.18,0,0,1,2.05.45c.11.26-.54.51-1.53.53s-1.72.11-2.58.13h-7.78c-1.73,0-3.47-.15-5.2-.22s-3.48-.16-5.22-.31a192.19,192.19,0,0,1-20.75-2.94,168.19,168.19,0,0,0,35.2,5.94c1.55,0,3.1.11,4.66.1s3.07.05,4.6.17a186.76,186.76,0,0,0,46.12-5.14,240.24,240.24,0,0,0,37.41-12.43c8.86-3.8,17.13-7.86,25.29-12.12s16.07-8.91,24.29-13.85c2.13-1.4,4.32-2.38,4.84-2.17s-.82,1.53-3,3Q599.08,397,585.93,404.2A287.24,287.24,0,0,1,558.79,417a224.76,224.76,0,0,1-28.71,9.57,196.15,196.15,0,0,1-30.27,5.49c-2.23.26-4.45.35-6.64.53l-3.29.24c-1.09.05-2.18.07-3.27.1a.55.55,0,0,1,.12.26c0,.36-.36.71-1,1l3.75-.08,3.76-.21,3.77-.21,1.9-.09,1.89-.17c13.89-2.36,27.54-5.78,42.11-9.7,10-2.76,19.08-5.4,28.24-8.63a309.14,309.14,0,0,0,32.49-17.45,3.14,3.14,0,0,1,1.08-.52c.2,0,0,.2-.39.49-1.77,1.2-3.58,2.36-5.39,3.54L596.17,403l-2.79,1.69L587.73,408l-5.8,3.19c1.4-.32,2.33-.33,2.44.12s-.67,1.32-2,2.33l5.45-2.67c1.13-.53,2.09-.84,2.16-.63s-.7.86-1.78,1.38c-3.71,1.84-7.4,3.72-11.18,5.37-1.89.84-3.75,1.75-5.66,2.53L565.61,422a265.29,265.29,0,0,1-27.8,10.42,6.79,6.79,0,0,1,3.12.39h0l4.41-1.39a373,373,0,0,0,76-39.68c.47-.32.9-.52,1-.45s-.25.39-.68.67c-3.67,2.41-7.27,4.89-11,7.17-1.87,1.15-3.67,2.37-5.57,3.46l-5.62,3.34h0c.33-.12.45-.06.15.2a4.78,4.78,0,0,1-1.17.7c-.39.14-.41,0-.16-.2A385.83,385.83,0,0,1,555.05,428a334.92,334.92,0,0,0,40.41-18.41c1.35-.9,2.72-1.74,4.07-2.7a3.44,3.44,0,0,1,1.1-.5c.15,0-.08.27-.46.52l-1.12.78c2.43-1.39,4.52-2.13,4.75-1.66s-1.73,2.15-4.26,3.62c-6.8,3.94-13.66,7.73-20.76,11.06l-2.25,1.18-2.2,1.35a300.38,300.38,0,0,0,32.56-16.52c.88-.54,1.72-.87,1.84-.72s-.52.71-1.42,1.26a275.29,275.29,0,0,1-27.91,16.43,266.63,266.63,0,0,1-30,13.23c-3.25,1.63-6.57,3.17-9.9,4.79-3.38,1.46-6.78,3-10.27,4.47.92-.2,1.84-.45,2.75-.72A177.91,177.91,0,0,0,563.86,433c9.89-4.89,19.36-10.21,29.36-15.93a2.2,2.2,0,0,1,1.06-.43c.1.06-.19.34-.7.63-9.73,5.67-18.65,10.92-28.81,15.88l-6.26,3-6.23,2.74-3.08,1.37-3.09,1.27L540,444.06c2.12-.72,4.22-1.48,6.3-2.23l3.11-1.14,3.06-1.25,6.07-2.53,5.94-2.74,3-1.37,2.91-1.47,5.82-2.93c1.92-1,3.83-2,5.76-3.09l2.88-1.54c1-.52,1.9-1.08,2.86-1.61a8.53,8.53,0,0,1,1.83-.86c0-.07.13-.18.32-.32,1.8-1.28,3.84-2.53,5.85-3.91a3.5,3.5,0,0,1,1.18-.56C597.09,416.46,596.89,416.69,596.47,417ZM359.79,401.78v-.24c.07.16.13.35.21.55l-.21,1.5Zm-9.72-.94h0c.09-.5.16-.85.16-.85C350.16,400.33,350.11,400.61,350.07,400.84Zm93.09,28-6.24-1.22c-1-.19-2.06-.46-3.08-.73l-3-.82a113.15,113.15,0,0,1-11.91-4l5.89,1.45,2.25.78,2.27.67,4.58,1.37c1.52.5,3.07.88,4.62,1.27Zm-84.75-34.67a13.45,13.45,0,0,1,0,3.17,3.84,3.84,0,0,1,1.31.76c1,.95,2,1.86,3,2.82.13-.5.36-.27.52-.23l.48.19a43.05,43.05,0,0,1-2.85-3.4A27.72,27.72,0,0,1,358.41,394.21Zm-8.7-4.73a1.5,1.5,0,0,0,0-.22l.67-.4Zm-1.12.69.09.22C348.45,390.55,348.46,390.43,348.59,390.17Zm.83,1.93a1.54,1.54,0,0,0,.05-.48Zm-12.5,17.78,2.93-2.37-2.9,2.21Z"/><path d="M495.47,480.32l-.57-.28c.12-.18.48-.2,1-.11a10.3,10.3,0,0,0-7.08-.49,9.44,9.44,0,0,0-2.45,1.16,7,7,0,0,0-1.62,1.49c-1.15.1-1.56.73-1.14,1.3a2.45,2.45,0,0,0,1.11.73,4.33,4.33,0,0,0,1.62.29,5.81,5.81,0,0,1,.89.2c.6.24,1.18.47,1.8.69l1.94.65,2,.67c.69.22,1.4.43,2.12.67-.64-.29-1.29-.57-1.91-.82a21.84,21.84,0,0,0,2.44.62l-.58-.48c3.13,1.3,6.4,1.69,7.06.21s-1.78-4.53-5.11-5.89Z"/><path d="M487.73,475.75c.82.11,1.7.27,2.57.47s1.73.4,2.61.66l.47.29-1-1.41,0,.09c-.41,1.37-2.21,2-3.77,2.64l-.53.27a.64.64,0,0,0-.11.73,2.56,2.56,0,0,0,2.16,1.05l1.07,0a23,23,0,0,0,2.36.3,12.14,12.14,0,0,0,2.27,0c1.42-.18,2.47-.7,2.34-2-.06-.61-.85-1.41-1.38-2.13a3.84,3.84,0,0,0-3.39-1.78c-1.31.1-1.86,1-1.33,1.92l-.75-.1.26-.4c.2.85-.8,1.17-1.36,1.67l-1.06.39,2.06,1.86.46-.31-.29-.21a14.67,14.67,0,0,1,2.78-1.82l1.25-.94c.19-.47-.29-1.15-1.07-1.51l-1.1-.41.54.25a53.73,53.73,0,0,0-6.11-.32c-.31,0-.57.14-.56.37S487.41,475.73,487.73,475.75Z"/><path d="M493.6,474.34a2.13,2.13,0,0,0,1.19.2,1.66,1.66,0,0,0,0-.21L494,474C493.43,473.76,493.37,474,493.6,474.34Z"/><path d="M494.84,474.33l.35.14-.3-.2,0,0Z"/><path d="M503.93,624c-1,24.84-2.15,49.82-3.7,74.79-.05.83,0,1.54.22,1.58s.33-.6.37-1.38c1.6-25,2.78-49.83,3.78-74.66a2.79,2.79,0,0,0-.31-1.64C504.1,622.68,504,623.27,503.93,624Z"/><path d="M481.27,810.28c-.06-.59-.16-.57-.26,0a10.75,10.75,0,0,0-.07,2.06c.05.5.17.48.26,0A10.31,10.31,0,0,0,481.27,810.28Z"/><path d="M473.05,804.85c-.28-3.5-.59-6.82-1-9.78a9.21,9.21,0,0,1-.05-1.64c-.18.2-.38-.47-.51-1.73-2.62-24.84-4.51-51.56-6.25-77.88a2.54,2.54,0,0,1-.65-1.12,29.45,29.45,0,0,1-1.12-9.27l.11-2.86c.18-11.55.39-23.07.8-34.56a70.65,70.65,0,0,1-.62-8c-.91-10-1.72-19.93-2.25-30.14-.21.64-.46,1-.73,1-.63-.2-1.09-2.57-1-5.33,0-1.39.07-2.78.16-4.16-.46,4-.54,8-.8,11.95a15.16,15.16,0,0,1-.12,1.59c-.09,4.37-.09,8.79,0,13.28.42,39.22,4,76.09,7.74,112.67a7.61,7.61,0,0,1,0,2.07c-.1.35-.27.29-.36-.38-3.5-23.07-8.23-43-11-69.14-1.63-15.52-3-31-4-46.49-.26-3.88-.52-7.77-.71-11.67l-.3-5.86c-.1-2-.23-3.92-.21-5.88a57.31,57.31,0,0,1,5.28-23.64c4-8.29,9-16.37,12.8-24.51,1-2.08,1.82-4,2.71-6.34l.63-1.67c.24-.65.48-1.17.68-1.63.42-.92.82-1.69,1.13-2.48a15.64,15.64,0,0,0,1.21-9.44,13.09,13.09,0,0,0-1.75-4.35c-.44-.69-.94-1.41-1.61-2.36a18.53,18.53,0,0,1-2.19-4,16.15,16.15,0,0,1-1.06-5.25,17.24,17.24,0,0,1,.56-5.16,23.57,23.57,0,0,1,4-7.76,12.14,12.14,0,0,0,1-1.58l0-.06h0s0,0,.09.06l.35.18a6,6,0,0,0,.73.32l.39.13a.88.88,0,0,1,.2.08,2.79,2.79,0,0,0,.66.17h-.19l-.29,0-.21,0,.1,0c.06,0,0,0-.4.18l-.3.17-.36.24a5.15,5.15,0,0,0-.45.32l-.11.09h0a.63.63,0,0,0-.19-.3,1.72,1.72,0,0,0-.23-.26,14.83,14.83,0,0,0-1.14-1c-.79-.61-1.58-1.2-2.3-1.82a21.92,21.92,0,0,1-3.71-3.68,9.73,9.73,0,0,1-1.76-4.14,3.78,3.78,0,0,1-.13-1.21,10.21,10.21,0,0,1,0-1.24,10.38,10.38,0,0,1,.52-2.26,6.41,6.41,0,0,1,.64-1.38,6.87,6.87,0,0,1,.85-1.27,5.52,5.52,0,0,1,.46-.62l.61-.58a16.47,16.47,0,0,1,1.41-1.11c.25-.18.51-.36.8-.53a6,6,0,0,1,.87-.49c.66-.28,1.32-.56,2-.87,1.32-.56,2.83-.95,4.2-1.42l2.08-.69c.42-.16.63-.25.93-.38a9.09,9.09,0,0,0,1.34-.68,1.64,1.64,0,0,0,.28-.24h0l.08.1c.19.24.46.52.59.7a5.27,5.27,0,0,0,.51.56l.28.26.2.2a3.13,3.13,0,0,0,.44.36c.17.12.21.17.34.25s.28.14.31.17l.2.08c.13.05.19,0,.11.05a1.76,1.76,0,0,0-.34.12,2.16,2.16,0,0,0-.6.33,4.87,4.87,0,0,0-.86.63l-.19.18-.28.24a6.51,6.51,0,0,0-.54.51c-.17.17-.33.36-.49.55a2.28,2.28,0,0,1-.28.31c-.08.09,0,0-.06.05l-.09,0-.38-.07c-.65-.16-1.64-.4-2.72-.58-.56-.1-1.08-.2-1.75-.28l-2-.07c-.67-.05-1.37-.2-2.06-.3a76.82,76.82,0,0,1-8.85-1.95l-1.67-1a3.48,3.48,0,0,0-.43-.25l-.55-.2-1.09-.39a7.92,7.92,0,0,1-1.05-.42l-.74-.56c-.49-.38-1-.75-1.44-1.14s-.93-.76-1.36-1.14l-.44-.4-.58-.52c-.79-.68-.48-1.58-1.35-2.25l-.5-.53a2.13,2.13,0,0,1-.43-.54l-.67-1.12-.54-1.15c-.18-.39-.49-.79-.73-1.19-.64-.8.09-1.59-.74-2.49l-.37-.66a3.58,3.58,0,0,1,0-.65l.06-.65c0-.11,0-.23-.08-.36l-.16-.36c-.18-.49-.56-1-.31-1.44l.16-.68.09-.35a1.4,1.4,0,0,0-.07-.38c-.12-.53-.26-1.06-.36-1.58l.56-1.36.14-.34a1.7,1.7,0,0,0,0-.39l0-.8c0-.53-.05-1.06,0-1.6l.1-1.61,0-.41c0-.14.13-.21.19-.32l.49-.61,1-1.22a9.8,9.8,0,0,0,.56-1.46l.52-1.48,0-.1,0,0a.53.53,0,0,0-.06-.1l-.26-.42-.13-.2c0-.06,0-.08,0-.12l.09-.2.34-.8.35-.81.27-.7.54-1.33c.35-.84.73-1.72,1.11-2.55s.6-1.36.92-2a17.41,17.41,0,0,1,1-1.8,12.82,12.82,0,0,1,2.07-2.63c1.34-1.27,2.7-1.67,3.68-.94,1.19.89,1.55,3.1,1.13,5.54.22-.33.43-.66.64-1,.4-.45.81-.93,1.2-1.35,1.15-1.18,2.36-1.94,3.46-1.87h1.43c2.32.53,5.1.33,7.47,1.74l.38,1,.37.05A3.72,3.72,0,0,1,480,456l.65,1.13a12.17,12.17,0,0,1,1.21,4.23,3.87,3.87,0,0,1,.66,1.41,5.64,5.64,0,0,1,2.63,3.21.8.8,0,0,1,.58,1.08.84.84,0,0,1-.34.36h0c.35.19.46.24.89.44.38,0,.61,0,.61,0a17.1,17.1,0,0,1,1.83-.24,5.89,5.89,0,0,1,1.66.59c2,1.84,2.06,1.88,2.51,2.8,0,.1,0,.2,0,.29a9.81,9.81,0,0,1,1.07.26,3.51,3.51,0,0,1,.51.31c.34.49.34.49.56.66a4.24,4.24,0,0,1,.26.37c0,.6,0,.6.09.76a1.19,1.19,0,0,1,0,.29l-.47.33-1.65-1.12.09.45-.56-.52.44.49-.63-.24.78.37a4.24,4.24,0,0,0-1.54.07,1.62,1.62,0,0,0-.77.22,3,3,0,0,1,.21.25l-2.33.07-.44-.24c0,.15-.16.26-.39.28l-.59,0-.06.09,0,0-.29.32-.05.07h0c-.21.22-.5.54-1.29,1.33a8.63,8.63,0,0,1-1,.05l.37.11c.26.08.36.46.48.47,1.36.09,2.7.15,4.05.17s2.75.08,4.18.22a1.57,1.57,0,0,1,1.34.5c.3.37.17.69-.28.76a10.35,10.35,0,0,1-3.23,1.44,23.55,23.55,0,0,1-3.84.73c-2.7.31-5.47.43-8,.51-.56.08-1.14.21-1.68.33l-1.52.36.23.06c-.24,0-.61,0-.55.15v0h.2l.4.08h.46a17.84,17.84,0,0,1,3.9-.46c.75,0,1.45,0,2.23,0l2.38.12a15.83,15.83,0,0,1,2.68.37l2.76.61a1.37,1.37,0,0,1,1,.54c.14.26-.1.44-.53.4-1.25.13-2.45.16-3.76.24-.64,0-1.24,0-1.89,0l-1,0h-.89c-1.26,0-2.39-.08-3.51-.13l-1.58-.16a2,2,0,0,1-.37-.06c-.09,0-.28-.06-.31-.05l-.1.06a1.52,1.52,0,0,1-.85.3h0l.49.08c-.17.11-.6,0-.81.14l.62.2a1.53,1.53,0,0,0-.47,1.3c0,.46.22.84.25,1.2a.18.18,0,0,1,0,.08c.35.12.69.21,1,.3l.22.06,0,0,.17.08.35.17c.46.21.92.39,1.39.59a13.61,13.61,0,0,1-1.67-.92c.64.31,1.35.56,2,.79a1.7,1.7,0,0,0,.24.09l.12,0,.06,0,.12.08,2,1.29c.69.46,1.38.91,2.14,1.47a23,23,0,0,1,2.48,2l.47.45c.16.16.34.36.5.55a10.63,10.63,0,0,1,1,1.36,6.6,6.6,0,0,1,.5.93,5.51,5.51,0,0,1,.42,1.09,9.29,9.29,0,0,1,.28,1.27,10.14,10.14,0,0,1,0,1.35,7.57,7.57,0,0,1-1.79,4.33,10.36,10.36,0,0,1-2.31,2,22.88,22.88,0,0,1-3.64,1.77c-.51.22-1.22.48-1.15.46l-.36.11a11.51,11.51,0,0,0-1.47.55,1.7,1.7,0,0,0-.62.51,1.62,1.62,0,0,1-.1.18,1.21,1.21,0,0,1,0,.19.88.88,0,0,0,.1.36,5.1,5.1,0,0,0,1,1l.28.24.14.13.07.06v0l0,0c-.05,0,0,0,0,0l.17.14a15.24,15.24,0,0,1,2.66,2.62,12.07,12.07,0,0,1,2,3.71,11.59,11.59,0,0,1,.48,2c.06.7.1,1.39.09,2.06a15.36,15.36,0,0,1-.29,2,13.31,13.31,0,0,1-.58,1.72,12.65,12.65,0,0,1-.7,1.38c-.24.38-.48.75-.71,1.08a28.21,28.21,0,0,1-2.1,2.76c-.59.72-1.1,1.31-1.48,1.83a6.3,6.3,0,0,0-1.29,2.81,4.6,4.6,0,0,0,0,1.37,5.41,5.41,0,0,0,.63,1.7c.79,1.5,2,3.54,3,5.58a56,56,0,0,1,4.12,12.94c.43,2.23.7,4.55.94,6.72l.18,1.56c.08.53.16.83.27,1.32.19.9.43,1.79.65,2.67.51,1.91,1,3.85,1.67,5.77s1.29,3.89,2,5.84c1.39,3.88,3,7.81,4.42,11.7a98.74,98.74,0,0,1,6.27,23.36c.21,1.6,0,3-.29,3.31s-.71-.9-.89-2.5A98.86,98.86,0,0,0,499,600.64c-1.81-5.63-4-11.26-6-16.92-1-2.81-1.9-5.65-2.73-8.46-.4-1.39-.78-2.79-1.12-4.19l-.26-1.05-.22-1c-.15-.65-.29-1.3-.41-2-.26-1.16-.34-2.8-.52-4.39s-.37-3.23-.66-4.84a53.32,53.32,0,0,0-2.55-9.41,50.71,50.71,0,0,1,2.15,7.84,66.23,66.23,0,0,1,1,8.05c.05.66.09,1.28.15,1.86s.16,1.06.26,1.62c.2,1.12.39,2.15.66,3.37.5,2.37,1,4.71,1.7,7.11,2.51,9.54,5.88,19.19,7.53,28.89q.74,3.72,1.18,7.46a45,45,0,0,1,.24,7.33c-.1,12.38-.44,24.44-.7,36.58s-.52,24.33-.67,37c-.24,21.59-.67,40.49-1.64,62-1.42,30.2-4,57.69-9.73,87.5a44.06,44.06,0,0,1-2.06,8.1c-.35.48,0-2.4.64-6.38,2.48-15.54,4.13-31,5.39-46.52s2.1-31,2.73-46.59c1.27-31.18,1.81-62.73,2.85-95.25.21-7,.42-13.91.62-20.77a.58.58,0,0,1-.36.16c-.49,0-.93-.66-1.29-1.76q-.39,11.68-1.05,23.52c.5,21.94.65,43.91-1,67.28-1.16,16.05-2.9,30.57-4.53,45.42-.78,18.82-1.8,37.58-3.6,56.58a8.16,8.16,0,0,1-.28,1.82c-.1.27-.14-.14-.09-.9.85-13.07,1.38-26.47,1.76-40-.5,2.13-1,3.4-1.54,3.22s-.9-1.83-1.14-4.36l-.46,9.19c-.11,1.9-.38,3.39-.62,3.33s-.39-1.55-.31-3.35q.75-18.76,1.49-37.47c.14-15,.2-29.92.24-44.93a10.74,10.74,0,0,1-1.85,4.32h0c0,2.32-.05,4.64-.08,6.95q.9,31.82.27,64.29t-2.9,65.29a8.24,8.24,0,0,1-.18,1.58,6.19,6.19,0,0,1,0-1.42q1.23-19.8,1.95-39.51v.06c-.08.52-.2.62-.24,0a11,11,0,0,1,.07-2.06c.09-.61.2-.55.25,0,.86-24.47,1.07-48.77.6-72.75q-.44,33.42-1.66,66.8c.05,2.43.1,4.85.16,7.32a7.65,7.65,0,0,1-.19,1.81c-.08.19-.17-.3-.17-1l0-2c-.17,4.22-.65,7.46-1.12,7.39-.48-.24-.83-3.86-.78-8.24q0-17.58.08-35.07l-.1-3.79c-.1-1.28-.21-2.55-.31-3.82-.39,18.16-.74,36.29-.87,54.31a7.81,7.81,0,0,1-.27,2.89,7,7,0,0,1-.33-2.77c-1.09-31.76-2.38-63.92-3.13-96.22-1.38-10.61-2.86-21.25-4.34-32.1,0,1.36,0,2.74,0,4.13.17,17.55,1.45,33.79,2.69,49.88s2.47,32,3.07,49a4.09,4.09,0,0,1-.13,1.67c-.1.09-.22-.49-.25-1.35-.72-16.59-2.11-31.74-3.3-48.21-1-13.64-1.91-26.61-3.15-39.29.83,25.91,3,50.77,4.4,76.43a16,16,0,0,1,0,3,1.52,1.52,0,0,1,.18.63c.41,3.21.74,6.71,1,10.29a6.68,6.68,0,0,1-.05,1.9C473.26,806,473.14,805.61,473.05,804.85Zm2.5-329.21.2,0-.54.07-1.11-.27S474.79,475.52,475.55,475.64Zm4.87-6.88h0l.71.31Zm7.39,99.63c-.14-.8-.28-1.6-.36-2.36l-.2-2.7c-.14-1.89-.33-3.83-.65-5.73a48.83,48.83,0,0,0-3.1-11.05,46.32,46.32,0,0,0-2.48-5.1,13.31,13.31,0,0,1-1.74-3.74,4.31,4.31,0,0,1,0-1.35,6.67,6.67,0,0,1,.33-1.45,9.33,9.33,0,0,1,1.73-2.74,9.23,9.23,0,0,0-1.62,2.7,5.68,5.68,0,0,0-.27,2.67c0,1.12,1.68,3.53,2.95,6.14a49.28,49.28,0,0,1,3.09,8.13,52.17,52.17,0,0,1,1.62,8.6c.16,1.45.24,2.91.33,4.29,0,.67.07,1.38.14,1.9S487.71,567.8,487.81,568.39Zm-5.15-92.28a21,21,0,0,1-2.82-.74,4.8,4.8,0,0,1-1.26.71c-1.2.53-2.44,1-3.54,1.52.34.13.07.25,0,.35a3,3,0,0,0-.33.28c.61-.26,1.24-.5,1.88-.71s1.37-.42,2.05-.6,1.32-.34,2-.49A11.5,11.5,0,0,1,482.66,476.11Zm8.87-4,.22.12.09.63Zm-.21-1.08-.26,0C491,470.73,491.11,470.79,491.32,471Zm-2.37-.21a3,3,0,0,0,.46.22ZM477,455.55l1.18,3.19-1-3.13Z"/><path d="M624.89,583.05l-.34-.34c.12-.25.37-.3.69-.22a4.29,4.29,0,0,0-5-.41,4.9,4.9,0,0,0-1,.72,8.08,8.08,0,0,0-.91,1,9.26,9.26,0,0,0-1.33,2.43c-.88.11-1.29,1.25-.93,2.4a2.32,2.32,0,0,0,2.13,1.84,2.18,2.18,0,0,1,.64.29,16,16,0,0,0,2.54,1.81c.42.25.83.43,1.24.65s.83.41,1.24.58l-1.11-.89a2.79,2.79,0,0,0,1.42.37l-.32-.62a2.33,2.33,0,0,0,2.47.38,3.18,3.18,0,0,0,1.58-2.34c.59-2.47-.18-5.64-2.13-7Z"/><path d="M620.06,576.73a25.1,25.1,0,0,1,3.71,1.84l.29.39-.45-1.85v.12a7.2,7.2,0,0,1-3.35,3.43l-.43.38a1.64,1.64,0,0,0-.17,1.07,1.81,1.81,0,0,0,1.45,1.64h.77c2,.58,4.66.36,5.17-3a7.75,7.75,0,0,0-.42-2.53,2.16,2.16,0,0,0-2-2.15,1.87,1.87,0,0,0-1.45,2.37c-.18-.06-.37-.13-.54-.17.09-.19.19-.34.28-.51,0,1.09-.83,1.56-1.33,2.26l-.86.51,1.24,2.71.38-.47-.18-.29c.36-.49.7-1,1.08-1.45a7.17,7.17,0,0,1,1.25-1.15l1.1-1.25a1.74,1.74,0,0,0-.41-1.86l-.71-.53.34.32c-.75-.21-1.52-.36-2.29-.52s-1.54-.19-2.33-.38a.42.42,0,0,0-.53.4A.63.63,0,0,0,620.06,576.73Z"/><path d="M624.9,575.4c.27.19.53.39.84.28.06-.14.08-.22.1-.25l-.53-.43C624.93,574.7,624.81,575,624.9,575.4Z"/><path d="M625.84,575.43l.22.17-.17-.25,0,0Z"/><path d="M610.4,705a77.88,77.88,0,0,0,35.07,6.48,65.91,65.91,0,0,0,17.28-3.3,67.6,67.6,0,0,0,16-7.88c.69-.43,1.18-.9,1.13-1s-.6.19-1.23.58a66.89,66.89,0,0,1-15.85,7.85A65.46,65.46,0,0,1,645.66,711,73.88,73.88,0,0,1,628,709.9a82.89,82.89,0,0,1-17.14-5.22,3.24,3.24,0,0,0-1.55-.4C609.23,704.4,609.71,704.73,610.4,705Z"/><path d="M706.67,597.56c.41.54.49.46.19-.18a11.78,11.78,0,0,0-1.25-2c-.36-.44-.45-.35-.18.18A13.92,13.92,0,0,0,706.67,597.56Z"/><path d="M716.75,599.12c2.18,3.71,4,7.37,5.63,10.69a13.71,13.71,0,0,1,.71,1.91c.06-.29.53.42,1.1,1.88a91.74,91.74,0,0,1,5.92,23.08,90.08,90.08,0,0,1-.49,24.79c-.27,2.08-.77,4.12-1.16,6.19l-.77,3.07c-.25,1-.51,2-.85,3-.67,2-1.21,4.1-2,6.07s-1.51,4-2.46,5.93a96.6,96.6,0,0,1-13.71,21.76A4.23,4.23,0,0,1,708,709a37.56,37.56,0,0,1-3.17,4.1c-.69.81-1.54,1.59-2.4,2.43s-1.76,1.7-2.75,2.48l-3,2.31a95.41,95.41,0,0,1-19.78,11.66,90.6,90.6,0,0,1-22,6.44c-.76.2-1.54.43-2.37.6l-2.56.47-2.72.45c-.94.11-1.9.19-2.88.27a106.06,106.06,0,0,1-39.76-2.72c.77.4,1.21.73,1.15.92-.38.36-3.56-.14-7.06-1.39-1.75-.65-3.53-1.23-5.25-2a121.14,121.14,0,0,0,15.19,5.37c.75.2,1.44.41,2.06.61a109.66,109.66,0,0,0,17.83,2.72,99.56,99.56,0,0,0,39.22-5.11A95.32,95.32,0,0,0,700.65,719a104.54,104.54,0,0,0,12.54-13.86,103.37,103.37,0,0,0,9.52-15.78A98.65,98.65,0,0,0,729,672.23a96.15,96.15,0,0,0,2.89-17.65,17.5,17.5,0,0,1,.27-2.68c.12-.45.25-.36.23.52a100.66,100.66,0,0,1-2.74,22,93.69,93.69,0,0,1-7.58,21,96.54,96.54,0,0,1-13,19.58,95.4,95.4,0,0,1-19.34,17.25c-1.11.81-2.31,1.48-3.48,2.21s-2.33,1.47-3.56,2.11c-2.44,1.29-4.87,2.64-7.44,3.72a99.65,99.65,0,0,1-15.8,5.62,110,110,0,0,1-33.14,3.35,121.37,121.37,0,0,1-16.57-1.94l-4.09-.87-2-.45-2-.53-4.05-1.09-4-1.28c-2.69-.82-5.27-1.9-7.91-2.89-1.31-.53-2.59-1.11-3.88-1.67s-2.59-1.12-3.85-1.77l-3.8-1.9c-1.27-.64-2.49-1.37-3.73-2.06-2.49-1.37-5-2.88-7.38-4.47a121.9,121.9,0,0,1-26.68-25.17A102.15,102.15,0,0,1,526,686.9a93.48,93.48,0,0,1-7.06-18.8,102.91,102.91,0,0,1-2-39.31A126.77,126.77,0,0,1,542,569.39a128.12,128.12,0,0,1,18.07-19.18c.81-.75,1.69-1.41,2.55-2.11l1.29-1,.29-.25,1-.84c.64-.55,1.27-1.11,1.92-1.65,1.34-1,2.68-2.05,4-3.05l2-1.49c.69-.49,1.41-.93,2.12-1.39q2.15-1.36,4.32-2.7c1.46-.88,3-1.65,4.5-2.46s3-1.64,4.63-2.32a11.63,11.63,0,0,1,6.94-1.53,6.27,6.27,0,0,1,4.8,3,6.2,6.2,0,0,1-.72,6.39l1.11-.35,1.88-.19a6.59,6.59,0,0,1,4.66,1.2l1.62,1.17c2.39,2.41,5.45,4.13,7.31,6.9l0,1.2.35.27a5.53,5.53,0,0,1,2.41,2.77l.18,1.41a14.38,14.38,0,0,1-.4,4.73,5,5,0,0,1,.13,1.75,7.16,7.16,0,0,1,1.35,4.48,1,1,0,0,1,.18,1.38.84.84,0,0,1-.41.29h0a10,10,0,0,0,.65.79c.34.07.53.13.53.13.89.1.89.1,1.65.21a4.51,4.51,0,0,1,1.19,1c1.09,2.39,1.07,2.4,1.15,3.49a2.72,2.72,0,0,1-.07.33,7.62,7.62,0,0,1,.76.39,2.6,2.6,0,0,1,.3.37c.11.58.11.58.23.78a2.9,2.9,0,0,1,.08.44c-.17.69-.17.69-.15.88a2.86,2.86,0,0,1-.1.34l-.45.39L625,574l-.06.54-.28-.66.2.61-.42-.32.5.49c-.86-.1-.87-.1-1.19,0a1.14,1.14,0,0,0-.66.19,2.69,2.69,0,0,1,.1.33c-.93-.1-.93-.13-1.84-.18q-.16-.18-.3-.36a.37.37,0,0,1-.36.32h-.48l-.07.11v0l-.3.38-.06.09h0l-1.28,1.62a5.4,5.4,0,0,1-.82-.12,3.15,3.15,0,0,1,.29.22c.2.17.23.73.32.77a15.29,15.29,0,0,0,3.14.69c.51.06,1,.1,1.52.14l1.53.24c.33-.11.71.17.84.61a.82.82,0,0,1-.36,1,9.55,9.55,0,0,1-1.24,1.16,12,12,0,0,1-1.3,1,9.25,9.25,0,0,1-2.88,1.13A15.44,15.44,0,0,1,613,584a21.4,21.4,0,0,0-3.27.44l.26.19-.94,0h-.09l1,.66a4.71,4.71,0,0,0,.52.09,10.78,10.78,0,0,1,3.76-.06c.64.08,1.26.15,1.89.27s1.26.25,1.87.34a15.88,15.88,0,0,1,3.82,1.32c.28,0,.57.31.64.72s-.1.72-.37.72a13.74,13.74,0,0,1-11.43.19,2.9,2.9,0,0,1-2.2-.06h0l.78.58c-.58,0-1.16-.49-1.73-.51.23.29.47.63.7.92-1.32.3-2.59.82-3.9,1.26a10,10,0,0,1-4.13.89,2.84,2.84,0,0,1-.31.06,15.67,15.67,0,0,1-.72,1.82c-.08.14-.15.28-.23.41a.59.59,0,0,1-.08.11l-.45.36-.9.71c-1.21,1-2.39,2.06-3.7,3.07l2.75-1.91a14.45,14.45,0,0,1,1.39-.91l1.35-.8a3,3,0,0,1-.26.23l-.34.28-.69.57c-.48.36-.89.79-1.33,1.19-.87.82-1.8,1.57-2.67,2.41s-1.74,1.69-2.66,2.52-1.74,1.79-2.67,2.67a110.49,110.49,0,0,0-13.37,16.32c-3.91,5.55-6.7,10.88-9,14.28a56.36,56.36,0,0,0-1.28,20,42.93,42.93,0,0,0,2.22,9.19,50,50,0,0,0,4.25,8.88,67.46,67.46,0,0,0,13.81,16.11,78,78,0,0,0,8.94,6.66A88.45,88.45,0,0,0,604,701.7a7,7,0,0,1,2.73,1.78c0,.32-1,.11-2.42-.53A89.4,89.4,0,0,1,590,695a78.77,78.77,0,0,1-12.33-10.47c-7.33-7.74-12.49-16.76-14.42-26a52.11,52.11,0,0,0,10,23.08,78.35,78.35,0,0,0,20.84,19.07l3.25,1.88c1.08.63,2.22,1.15,3.33,1.74s2.21,1.12,3.31,1.66,2.19,1.15,3.32,1.64c22.95,9.73,48.89,9.79,69.7-4a73.57,73.57,0,0,0,21.25-21.69,71.92,71.92,0,0,0,6.53-13.4,69.48,69.48,0,0,0,2.25-7.33c.27-1.26.63-2.51.83-3.8s.49-2.58.64-3.89c2-14.68-.75-29.11-6.84-42.23a84.41,84.41,0,0,0-5.16-9.5c-.95-1.51-1.95-3-2.94-4.32-.49-.66-1-1.33-1.26-1.6l-1.76-1.93a69.12,69.12,0,0,0-17-12.92c-3.47-1.84-6.77-3.54-7-4.14s2.59.06,6.25,1.83A69.61,69.61,0,0,1,691.79,592c.69.67,1.33,1.4,2,2.09a9,9,0,0,1,.73.81c.26.32.54.67.82,1,1.14,1.48,2.27,3.11,3.34,4.78a86.23,86.23,0,0,1,5.73,10.53,80.65,80.65,0,0,1,6.65,22.83,72.05,72.05,0,0,1-.72,23.57l-.28,1.46-.35,1.46c-.24,1-.42,1.94-.73,2.9l-.84,2.88-1,2.79c-.6,1.89-1.5,3.67-2.25,5.5-.4.91-.9,1.78-1.33,2.67s-.87,1.79-1.41,2.63a72.65,72.65,0,0,1-15.1,18.57,71.37,71.37,0,0,1-20.42,12.76c-.93.39-1.88.7-2.82,1l-1.42.52c-.48.16-1,.28-1.45.43l-2.89.84-3,.65c-.5.11-1,.23-1.49.33l-1.51.23c-1,.14-2,.33-3,.45-2,.17-4.06.44-6.13.44a80,80,0,0,1-21-2.06c.07.11.14.22.12.31-.07.36-.79.53-2,.54a89.59,89.59,0,0,0,12,2.21c2,.16,4.05.43,6.08.44,1,0,2,.12,3.05.09l3-.05A73.74,73.74,0,0,0,676,707.24a81,81,0,0,0,25.16-24c.56-.87,1.11-1.73,1.65-2.59.28-.44.57-.85.82-1.29l.74-1.33,1.48-2.64,1.29-2.69.66-1.34c.21-.45.38-.92.57-1.37.37-.92.75-1.83,1.12-2.74s.66-1.86,1-2.79l.49-1.4.41-1.41a73.17,73.17,0,0,0,2.55-11.42,74.56,74.56,0,0,0,.78-11.69,82.7,82.7,0,0,0-7.53-29,88.79,88.79,0,0,0-7.45-13.14c-.71-1-1.44-2-2.17-3-.35-.44-.78-1-1-1.2L695.33,591a72.66,72.66,0,0,0-5.38-5.14,7.93,7.93,0,0,1-1.39-1.31c-.17-.25.22,0,.86.44a72.21,72.21,0,0,1,7.65,6.95l.33.37.39.45.79,1c.54.68,1.07,1.37,1.59,2.08,1.05,1.43,2,2.92,3,4.44A87.42,87.42,0,0,1,712.46,620c-.36-2.3-.41-3.76.07-3.73s1.5,1.61,2.56,4.23a92.35,92.35,0,0,0-3.31-9.7c-.8-2-1.33-3.55-1.11-3.59s1.13,1.4,1.9,3.28a83.6,83.6,0,0,1,6,41.11,81.69,81.69,0,0,1-6.05,24.26A82.85,82.85,0,0,1,706.83,687a83.94,83.94,0,0,1-7.48,10.15,22.44,22.44,0,0,1,4.13-3h0c1.68-2.06,3.09-4.3,4.56-6.48a86,86,0,0,0,11.3-34.2,84.89,84.89,0,0,0-4-35.89A94.93,94.93,0,0,0,708,600.88a89.37,89.37,0,0,0-4.89-7.74c-.88-1.24-1.8-2.47-2.72-3.57l-.31-.37-.39-.41-.78-.83c-.53-.54-1-1.12-1.58-1.64a80.23,80.23,0,0,0-31-19,4.91,4.91,0,0,1-1.65-.72,3.88,3.88,0,0,1,1.58.34,84.11,84.11,0,0,1,20,9.82,73.25,73.25,0,0,1,8.73,6.84c.71.59,1.35,1.26,2,1.9l1,1,1,1,.94,1,.48.5.39.47c.56.67,1.13,1.39,1.67,2.12l0,0c-.3-.51-.28-.67.17-.19a12.36,12.36,0,0,1,1.36,1.88c.32.61.19.62-.17.19a93.74,93.74,0,0,1,15.48,38,84.3,84.3,0,0,1-3.42,40.52,85.86,85.86,0,0,0,4.43-18.5,84.92,84.92,0,0,0,.13-19,92.91,92.91,0,0,0-11.94-36c-1.52-2.34-3.13-4.59-4.87-6.79a11,11,0,0,1-1.12-1.72c-.07-.22.36.15.84.76s1,1.22,1.45,1.83c-1.37-2-2.57-3.75-3.43-4.92s-1.37-2.07-1.16-2.22,1.23.55,2.54,1.7a32.79,32.79,0,0,1,4.2,5.12,93.7,93.7,0,0,1,15.42,37.81c.28,1.46.48,2.93.71,4.4s.49,2.95.64,4.45a91,91,0,0,0-7.19-31.17,96.68,96.68,0,0,0-7.43-14.23,72.45,72.45,0,0,0-4.65-6.58,79.48,79.48,0,0,0-5.56-5.87c-1.37-1.23-2.47-2.37-2.37-2.54s1.32.7,2.72,1.93l2.63,2.43,2.52,2.55a62.26,62.26,0,0,1,4.54,5.7,97.69,97.69,0,0,1,7.45,12.28,95.2,95.2,0,0,1,9.14,27.43,89.09,89.09,0,0,1,1.21,14.61A88.17,88.17,0,0,1,725.29,660a84.91,84.91,0,0,1-3.67,14.31c-.72,2.37-1.77,4.62-2.69,6.93-.5,1.13-1.07,2.23-1.61,3.35s-1.08,2.24-1.72,3.31a92.26,92.26,0,0,1-24.4,31.65l2.14-1.52,2.06-1.65a87.51,87.51,0,0,0,31.09-53.28,92.23,92.23,0,0,0,.28-29.84,102.14,102.14,0,0,0-9.12-28.81,6.72,6.72,0,0,1-.73-1.9c0-.14.43.45.88,1.39a102.31,102.31,0,0,1,9.28,28,89.39,89.39,0,0,1,.18,29.84,90.89,90.89,0,0,1-2.9,12.35c-.32,1-.63,2-.94,3s-.74,2-1.1,2.94-.74,2-1.14,2.92l-1.28,2.84a98.32,98.32,0,0,1-13,20.84,90.13,90.13,0,0,0,13.54-20.55,91.7,91.7,0,0,0,8.81-34.87c.16-2,.11-4,.14-6s-.11-4-.3-6A96.15,96.15,0,0,0,724.27,616a35,35,0,0,1-1.09-3.51,2.28,2.28,0,0,1-.4-.69c-1.64-3.63-3.55-7.5-5.71-11.32a12.38,12.38,0,0,1-1-2.11C715.92,597.92,716.25,598.32,716.75,599.12ZM609.34,573l.19.15L609,573l-1.09-1.06S608.62,572.41,609.34,573Zm6-7.31h0l.57.67Zm-47.9,108.5a46.49,46.49,0,0,1-5.67-17.08,50.29,50.29,0,0,1,1.2-18.08,56.14,56.14,0,0,0-.72,8.88c-.12,1.14-.1,2.26-.15,3.39s0,2.25.09,3.36a47.89,47.89,0,0,0,.81,6.58A53,53,0,0,0,567.41,674.15Zm48.43-97.83a14.52,14.52,0,0,1-2.38-1.92,3.23,3.23,0,0,1-1.26.58,32.91,32.91,0,0,1-3.67.81c.34.4,0,.45-.07.55l-.38.27c1.34-.14,2.69-.24,4-.32A20.08,20.08,0,0,1,615.84,576.32Zm8.08-3.78.14.16-.1.76S623.94,573.07,623.92,572.54Zm.14-1.3-.2-.07C623.88,570.89,624,571,624.06,571.24Zm-1.85-.64a1.67,1.67,0,0,0,.31.35Zm-5.91-21v3.82l.11-3.69Z"/><path d="M484.53,130.44l.61,0a1.39,1.39,0,0,1-.93.8,12.25,12.25,0,0,0,7.35-3.26,19.13,19.13,0,0,0,4.58-6.22c1.35-.63,2.07-2,1.59-3s-2-1.42-3.46-.79a5.4,5.4,0,0,1-1.1.11,22.94,22.94,0,0,0-9.22.59l2.15-.05a9,9,0,0,0-2.7.89l.68.36c-3.52.26-6.75,3-7,6s2.52,5,5.88,4.65Z"/><path d="M493.11,133.13c-1.82.26-3.64.46-5.48.69l-.52-.14,1.25,1.41-.05-.12c.23-2.09,1.89-4,3.55-5.55l.53-.65a1.42,1.42,0,0,0,.05-1.19,1.78,1.78,0,0,0-2.45-.67l-1.15.53c-3.19.76-7.3,3.52-6.56,7,.18.79,1.05,1.32,1.67,1.93a2.61,2.61,0,0,0,3.54.42,2.43,2.43,0,0,0,1-3.29l.78-.22-.21.68c-.33-1.09.64-2,1.14-3.05l1.09-1.06L488.86,128l-.45.74c.13.07.33.15.33.16a32,32,0,0,1-2.53,4.23l-1,2a1.26,1.26,0,0,0,1.28,1.41l1.13,0-.56-.06c2.1-.71,4.11-1.65,6.2-2.22a.68.68,0,0,0,.57-.7A.55.55,0,0,0,493.11,133.13Z"/><path d="M487.39,137.6a1.75,1.75,0,0,0-1.17.36v.31h.84C487.66,138.26,487.67,137.9,487.39,137.6Z"/><path d="M486.21,138.27h-.36l.33.1c0-.05,0-.05,0-.05Z"/><path d="M694,244.41A80.6,80.6,0,0,1,703.05,269a81.49,81.49,0,0,1,.86,26.32A65.37,65.37,0,0,1,694.34,322c-.68,1-1.32,2.09-2.07,3.09s-1.54,2-2.33,2.94a33.51,33.51,0,0,1-2.43,2.79c-.83.86-1.65,1.75-2.52,2.57a67.8,67.8,0,0,1-11.14,8.57,71.79,71.79,0,0,1-12.06,6,82,82,0,0,1-12.4,3.78,93.76,93.76,0,0,1-12.46,1.88,97.16,97.16,0,0,1-12.27.17,132.66,132.66,0,0,1-22.76-3.19c-7.18-1.61-14-3.6-20.43-5.64a10.48,10.48,0,0,0-3.34-.75c-.13.11,1.15.68,2.76,1.17,6.46,2.06,13.25,4.06,20.42,5.69a134.64,134.64,0,0,0,22.78,3.29c1,.06,2,.1,3,.12s2,.06,3,0l3.12-.06,3.13-.19a96.1,96.1,0,0,0,12.51-1.78,80.48,80.48,0,0,0,24.63-9.63,67,67,0,0,0,11.28-8.49c.89-.8,1.73-1.67,2.57-2.54a36.55,36.55,0,0,0,2.47-2.74,56.74,56.74,0,0,0,4.52-6,66.82,66.82,0,0,0,10-26.77,81.88,81.88,0,0,0-.61-26.51c-.34-2.16-.93-4.26-1.44-6.38s-1.26-4.18-1.91-6.26C699.65,255,698.91,253,698,251s-1.85-4-3-6c-.61-1.07-1.2-2-1.68-2.73a6.16,6.16,0,0,0-1.09-1.29c-.11,0,.06.38.42,1S693.4,243.42,694,244.41Z"/><path d="M363.28,284.3c1.18-.28,1.11-.41-.14-.3a24.32,24.32,0,0,0-4.13.78c-1,.28-.91.43.16.3C360.42,284.93,362.29,284.5,363.28,284.3Z"/><path d="M372.78,272.47l5.47-.87c1.79-.3,3.58-.44,5.33-.67s3.45-.46,5.13-.63l4.91-.44a26.93,26.93,0,0,1,3.53-.11c-.44-.22,1-.42,3.73-.51a177.05,177.05,0,0,1,20.42.52l5.16.51c.89.1,1.84.26,2.75.4l1.39.21,1.28.23c3.42.6,6.72,1.28,10,1.95,13.19,2.75,26.33,5.85,39.56,9.06s26.5,6.58,39.77,10.05,26.54,7,39.74,10.65a7.34,7.34,0,0,1,2.4.07,120,120,0,0,1,18.75,4.73l5.63,1.89c11.12,3.67,21.75,6.82,31.94,8.12,2.56.36,5.06.53,7.54.64l1.85.05,1.8,0c1.19,0,2.39-.08,3.57-.16a57.94,57.94,0,0,0,7-1,52.58,52.58,0,0,0,6.63-1.83,47.85,47.85,0,0,0,10-6.37l.48-.44.45-.46.89-.92.81-1a6.73,6.73,0,0,0,.76-1c.41-.67.91-1.26,1.31-1.94s.76-1.38,1.14-2.08a30.2,30.2,0,0,0,2.73-9.7,45.15,45.15,0,0,0-3.29-22.14c.21.94.13,1.58-.1,1.65s-.35-.25-.61-.61a11.27,11.27,0,0,1-.91-1.46l-.51-1c-.2-.34-.4-.7-.61-1.07s-.4-.78-.6-1.19l-.68-1.19-.69-1.22-.72-1.07c-.44-.76-1-1.37-1.52-2.07.35.51.73,1,1.07,1.49s.64,1.07,1,1.59.61,1.18.93,1.76a14.32,14.32,0,0,1,.87,1.85c.61,1.23,1,2.6,1.52,3.92s.83,2.73,1.07,4.15a14.58,14.58,0,0,1,.39,2.25,40.29,40.29,0,0,1,.67,9.24,31,31,0,0,1-1.4,8.47,23.4,23.4,0,0,1-3.67,7.19c-.19.24-.37.5-.56.76s-.47.51-.69.77c-.45.54-1,1-1.51,1.5s-1.12.94-1.67,1.42-1.18.92-1.86,1.31c-5.13,3.41-12.12,5.64-19.43,6.37a68.63,68.63,0,0,1-11.51.12,107.65,107.65,0,0,1-12.4-1.66c-4.24-.82-8.59-1.85-13-3s-9-2.49-13.71-3.8c-18.79-5.22-37.42-10.21-56-14.85q-13.95-3.5-27.86-6.86t-27.87-6.5a29.49,29.49,0,0,1-4.17-1.14c-.68-.3-.51-.44.87-.16l34.51,6.9c11.28,2.31,22.47,4.6,33.84,7s22.88,5,34.88,7.9c6,1.42,12.11,2.95,18.35,4.53,6,1.56,12,3.06,17.75,4.19a95.05,95.05,0,0,0,19.25,2,55.54,55.54,0,0,0,8.23-.69,43.52,43.52,0,0,0,7.4-1.87,26.38,26.38,0,0,0,10.49-6.44c.14-.16.31-.3.44-.46L653,299a4,4,0,0,0,.38-.46c.08-.15.16-.29.25-.43a8.1,8.1,0,0,0,.55-.84,7.28,7.28,0,0,1,.48-.92,1.62,1.62,0,0,0,.22-.5l.21-.52c.08-.17.16-.34.25-.51a4.91,4.91,0,0,0,.17-.58c.11-.39.26-.76.39-1.16s.17-.87.28-1.3a25.52,25.52,0,0,0,.51-5.92V285l-.08-.83c0-.56,0-1.1-.13-1.66-.19-1.12-.28-2.25-.58-3.37s-.59-2.23-.86-3.35-.71-2.18-1.21-3.16-1-1.95-1.41-2.9c-.26-.45-.54-.84-.79-1.27a9.25,9.25,0,0,0-.75-1.11,23,23,0,0,0-3.23-3.7,36.24,36.24,0,0,0-5-3.75,76.12,76.12,0,0,0-7.56-4.11c-3-1.4-6.31-2.87-9.9-4.38l-5.75-2.57c-1.68-.78-3.36-1.59-5.07-2.31s-3.44-1.44-5.17-2.18-3.5-1.38-5.28-2a170.44,170.44,0,0,0-22.31-6.5c-3.9-.9-7.89-1.62-12-2.35s-8.45-1.34-13.27-2.3l-1.84-.37-1.92-.44c-.31-.06-.68-.17-1-.25l-1.38-.33a4.76,4.76,0,0,1-.67-.35l-.69-.21-1.39-.41a23,23,0,0,1-9.54-5.71l-1-.91c-.3-.34-.53-.75-.8-1.12a25.84,25.84,0,0,1-1.43-2.35c-.29-.89-.75-1.65-1.11-2.49s-.45-1.76-.67-2.65-.29-1.79-.4-2.7l.08-2.81c.09-.94.28-1.9.42-2.84a8.82,8.82,0,0,1,.32-1.42l.4-1.42.19-.71c0-.12.06-.24.11-.36l.18-.33.72-1.35,1.43-2.67.7-1.32a3.28,3.28,0,0,1,.85-1.24l.77-1.1.59-.81a52.78,52.78,0,0,1,5.22-5.8,50.11,50.11,0,0,1,6.07-4.89l1.7-1.09c.58-.35,1.21-.66,1.81-1l1.83-1c.62-.3,1.29-.54,1.92-.82a54.9,54.9,0,0,1,15.56-3.64c4.76-.54,9-1,11.74-2.32l1-.48.45-.23.37-.28.72-.51a7.53,7.53,0,0,0,.56-.58,5.37,5.37,0,0,0,.51-.56,5.91,5.91,0,0,1,.42-.61,13.7,13.7,0,0,0,.77-1.24,25.05,25.05,0,0,0,2.55-5.81c.55-2,.39-3.86-.2-4.3l-.21-.09h-.07l.21,0c.18,0,.37,0,.56-.07h0a3.05,3.05,0,0,0-.4.13h0l-.11,0-.22.08-.41.18-.24.11-.15.07h0l-.09,0a1.06,1.06,0,0,1-.55,0c-.58-.15-1.66-.64-3-1.16a51.8,51.8,0,0,0-5-1.6,69.32,69.32,0,0,0-12.7-2.07l-1.57-.08c-.51,0-.93,0-1.4,0-.9,0-1.81.09-2.7.13a41.93,41.93,0,0,0-5.33.85,50.72,50.72,0,0,0-10.46,3.66c-.87.44-1.73.82-2.6,1.31l-1.29.7-.08,0,0,0,0,0-.07.05-.53.38c-.36.26-.71.48-1.07.75l-2.12,1.55c-2.82,2-5.63,4.21-8.42,6.59-1.84,2.14-5,1.78-7.34-.93a7.63,7.63,0,0,1-1.76-5.74l-.61.44-1.16.39a4.68,4.68,0,0,1-3.55-.34l-1.54-.68c-2.57-1.6-5.52-2.32-8.18-4.08l-.53-1.06-.4-.11a5.92,5.92,0,0,1-3.13-1.48l-.81-1.15a13.3,13.3,0,0,1-1.82-4.36,5,5,0,0,1-.87-1.5,6.78,6.78,0,0,1-3.16-3.38.92.92,0,0,1-.74-1.16,1.09,1.09,0,0,1,.3-.49h0c-.39-.16-.5-.21-1-.37-.38.13-.61.19-.61.19l-1.81.76a5.35,5.35,0,0,1-1.72-.17c-2.29-1.44-2.3-1.43-2.89-2.35a2.05,2.05,0,0,1-.07-.34l-1.06.18a2.78,2.78,0,0,1-.54-.12c-.4-.44-.4-.44-.64-.53a3.2,3.2,0,0,1-.31-.32c-.11-.73-.11-.74-.22-.88a1.69,1.69,0,0,1,0-.38l.38-.68,1.77.57-.16-.53.62.4-.51-.41h.65l-.81-.1a5.18,5.18,0,0,0,1.47-.82,2.12,2.12,0,0,0,.73-.63,1.89,1.89,0,0,1-.25-.24c1.18-.55,1.19-.54,2.36-1a4.65,4.65,0,0,1,.49.17.56.56,0,0,1,.36-.51l.6-.28.06-.15,0,0,.28-.54.05-.12h0c.19-.37.48-.9,1.24-2.31a8.35,8.35,0,0,1,1.08-.34,3,3,0,0,1-.42-.06c-.29,0-.45-.6-.57-.58a37.39,37.39,0,0,0-8.63,3,1.07,1.07,0,0,1-1.37.09.82.82,0,0,1,.12-1.24c3.15-5.92,10.15-9.55,16.91-10.47l4.84-1.58-.34-.13,1.37-.2.13,0-1.34-.42-.76,0c-3.71,1.33-7.62,1.7-11.5,2.76-2.07.57-4.14.69-6.24,1.14a.87.87,0,0,1-1.17-.25.83.83,0,0,1,.52-1c5.26-4,12.54-6.93,18.87-6.2a6.63,6.63,0,0,1,3.43-.56h0l-1-.41a18.7,18.7,0,0,1,2.51.15l-.75-.84c4.37-1.09,8.83-3,13.33-2.73a3.91,3.91,0,0,1,.48,0,21.34,21.34,0,0,1,2.31-1.64l.63-.36.09,0,0,0h0l.08,0c.54-.16,1.1-.29,1.65-.44,1.12-.27,2.22-.58,3.37-.81a91.58,91.58,0,0,1,14.49-2.07,100.09,100.09,0,0,0-10.2,1c-1.69.21-3.33.54-5,.83-.83.15-1.64.34-2.47.51l-2.14.47,0,0,.29-.09.65-.18,1.32-.34c.88-.22,1.74-.46,2.64-.65,1.78-.4,3.56-.79,5.39-1.09s3.66-.56,5.5-.81,3.72-.39,5.63-.45a86.35,86.35,0,0,1,11.58.15,82.82,82.82,0,0,1,11.83,1.87c1.34.27,2.67.68,4,1,.64.18,1.37.37,1.93.56l1.88.62c2.47.85,4.84,1.77,7.2,2.78a97.07,97.07,0,0,1,14,7.32,63.27,63.27,0,0,1,13.39,11.17,42.65,42.65,0,0,1,5.7,8.13,34.79,34.79,0,0,1,3.56,10,32.89,32.89,0,0,1,.18,10.21,33.63,33.63,0,0,1-2.32,8.51,37.12,37.12,0,0,1-3.64,6.87,37.72,37.72,0,0,1-4.38,5.52,35.49,35.49,0,0,1-10.09,7.51c-.91.43-1.8.81-2.66,1.18a23.87,23.87,0,0,1-2.63.88,29.12,29.12,0,0,1-4.89,1c-1.38.25-2.72.29-4.06.42s-2.6,0-3.82-.09-2.43-.2-3.51-.38l-1.67-.23-1.57-.26c-4.14-.69-7.75-1.3-11-.93a16,16,0,0,0-8.55,3.59,29,29,0,0,0-6.51,7.6,28.48,28.48,0,0,0-1.45,2.71,6.46,6.46,0,0,0-.55,2.1,3.1,3.1,0,0,0,.54,2.07,3.42,3.42,0,0,0,1.79,1.16,5.6,5.6,0,0,0,1.06.24c.1,0,.17,0,.25,0s.36,0,.52,0l1.24,0c1.71,0,3.52-.16,5.44-.35,3.8-.34,7.85-.8,12-1.25,8.25-.89,16.85-1.66,25.62-1.75a166.73,166.73,0,0,1,26.57,1.7c1.11.14,2.21.35,3.32.52l3.23.54c2,.36,4.06.72,6.14,1.13,4.18.83,8.53,1.8,13,3.11a89.08,89.08,0,0,1,14,5.3,70.79,70.79,0,0,1,14.18,9c.94.78,1.82,1.57,2.63,2.33a30,30,0,0,1,2.11,2.22,12.8,12.8,0,0,1,2.16,2.87c.1.58-2.21-1.72-5.78-4.93a69.87,69.87,0,0,0-20.07-12.13,114.32,114.32,0,0,0-19.36-5.7l-4.53-.9-4.42-.8c-1.39-.26-3.05-.52-4.63-.78s-3.18-.48-4.77-.7a171,171,0,0,0-19.1-1.42c-6.33-.11-12.61.11-18.77.53s-12.21,1.07-18,1.66c-2.9.28-5.74.54-8.42.7-1.35.08-2.61.1-3.83.1a6.88,6.88,0,0,1-1.19-.12,7.06,7.06,0,0,1-.91-.21,4.83,4.83,0,0,1-1.69-.82,3,3,0,0,1-1-1.54,5.69,5.69,0,0,1,.32-3.7,6.6,6.6,0,0,0-.53,3.14,3.3,3.3,0,0,0,1.7,2.59,6.27,6.27,0,0,0,1.5.6l.79.19a1,1,0,0,1,.39.07c.21,0,.46,0,.71,0,2,.06,4.3,0,6.64-.19,4.69-.29,9.66-.78,14.72-1.15s10.25-.7,15.5-.79a170.78,170.78,0,0,1,32,2.21c1.35.22,2.68.46,4,.73s2.71.51,3.9.77c2.47.52,5,1.05,7.56,1.66a131.8,131.8,0,0,1,16.07,4.72,75.78,75.78,0,0,1,17.31,8.75,57,57,0,0,1,14.59,14.79l1.86,2.73,1.6,2.76c1.11,1.83,2,3.72,2.86,5.6s1.58,3.81,2.36,5.72c.63,1.94,1.3,3.87,1.84,5.83a79.22,79.22,0,0,1,2.8,24.21,65.15,65.15,0,0,1-5.82,24.88,53.1,53.1,0,0,1-3.18,5.94l-1.84,2.87c-.63.94-1.37,1.82-2.07,2.72s-1.43,1.81-2.17,2.66l-2.28,2.4c-.76.8-1.59,1.51-2.39,2.27s-1.63,1.45-2.49,2.13c-1.67,1.4-3.44,2.62-5.21,3.84s-3.61,2.28-5.47,3.24a73.11,73.11,0,0,1-11.38,4.92,85.87,85.87,0,0,1-11.69,3,96.24,96.24,0,0,1-11.81,1.38c-15.78.69-30.41-2.36-43.91-6-2.88-.79-5.71-1.6-8.44-2.41l-8-2.41-15.37-4.64c-10.16-3-20.2-5.93-30.21-8.86s-20-5.8-30.25-8.66-20.54-5.83-31.22-8.74l-22.2-6-5.44-1.43q-2.73-.72-5.37-1.38c-1.78-.44-3.57-.9-5.22-1.27l-2.53-.59-2-.4-.52-.11-.63-.09-1.25-.18-2.5-.38c-1.66-.29-3.34-.42-5-.63l-2.51-.29-2.51-.18c-1.68-.11-3.35-.3-5-.34l-5-.17c-1.68-.08-3.37,0-5.05,0-3.36,0-6.74.21-10.12.35-27.07,1.79-54.26,9.28-81.8,20.34-3.63,1.56-7.17,3-10,4a29.91,29.91,0,0,1-5.28,1.77c-.54,0,.44-.71,2.47-1.86,1-.59,2.3-1.22,3.79-1.91s3.18-1.47,5-2.27a316.56,316.56,0,0,1,43.41-15.68c1.83-.5,3.65-1.06,5.49-1.51l5.53-1.28c3.67-.94,7.39-1.52,11.08-2.24,1.84-.39,3.7-.6,5.55-.88s3.7-.57,5.55-.79c3.71-.33,7.41-.85,11.12-1a168.47,168.47,0,0,1,22.13,0c3.68.2,7.32.64,11,1.08l5.4.81,2.3.46,2.71.62c1.79.4,3.71.89,5.6,1.36s3.8,1,5.71,1.46c3.82,1,7.68,2,11.53,3.07,7.71,2.09,15.45,4.2,23.2,6.38,31,8.71,62.14,17.76,93.39,27.41L579.31,339c4,1.24,8.15,2.48,12.4,3.64a160.12,160.12,0,0,0,27,5.23,102.15,102.15,0,0,0,14.71.37,86.65,86.65,0,0,0,15.08-2.13,70.83,70.83,0,0,0,28.83-13.78c1-.74,1.85-1.57,2.75-2.4.45-.41.91-.81,1.34-1.24l1.28-1.33,1.26-1.33c.42-.46.81-1,1.21-1.45l2.36-3a56.73,56.73,0,0,0,7-13,66.63,66.63,0,0,0,4.06-27.31c-.1.24-.2.46-.31.46-.47,0-.85-1.67-1.55-4.39.32,2.45.33,5,.42,7.45a71.8,71.8,0,0,1-.44,7.58c-.17,1.27-.24,2.53-.51,3.8l-.76,3.81c-.27,1.27-.68,2.53-1,3.79l-.56,1.89-.72,1.87c-.5,1.24-.93,2.49-1.52,3.71l-1.83,3.62a16.48,16.48,0,0,1-1,1.76l-1.12,1.73-1.12,1.71c-.4.56-.85,1.09-1.27,1.63-.87,1.07-1.73,2.16-2.63,3.18s-1.85,1.94-2.82,2.86-2,1.81-3,2.64-2.06,1.66-3.13,2.41a66.73,66.73,0,0,1-9.12,5.8,76.05,76.05,0,0,1-9.69,4.17A82,82,0,0,1,634.71,347c-13.63,1.06-26.58-1-38.64-4-6-1.49-11.87-3.2-17.55-5l-16.73-5.24-34.08-10.71-45.63-14.64c-14.75-4.74-29.25-9.36-43.82-13.73L431.31,292l-3.39-.78-1.67-.38-1.51-.29c-.52-.09-1-.21-1.54-.29l-1.7-.24-3.39-.49c-2.27-.3-4.54-.5-6.82-.76a174.3,174.3,0,0,0-27.52-.19,226.56,226.56,0,0,0-54.92,11.11,23.69,23.69,0,0,1-3.52,1c-.56.06.19-.29,1.64-.79a237,237,0,0,1,38.14-10.25,191,191,0,0,1,39.61-2.93c-4.17-.62-6.68-1.2-6.34-1.81.17-.3,1.07-.57,2.58-.79.75-.12,1.65-.22,2.68-.31s2.18-.08,3.45-.11c-3.06-.28-6.14-.28-9.21-.39s-6.15.06-9.23.08c-3.8.2-6.81.15-6.73-.15s3.08-.75,6.72-1l4.74-.08c1.57,0,3.15-.1,4.73,0,3.15.09,6.31.12,9.44.39,1.57.13,3.15.18,4.71.37l4.69.52c1.57.14,3.11.44,4.67.65s3.13.45,4.56.77,3,.67,4.55,1,3.09.75,4.64,1.15c3.1.77,6.21,1.61,9.32,2.43,6.22,1.68,12.43,3.41,18.65,5.15,30,8,59.73,16.45,89.55,25.27-4-1.72-6.85-3.22-8.1-4.3v0q-6.93-2.06-13.81-4.1-31.8-8.69-64-17.19c-10.73-2.79-21.51-5.61-32.27-8.15-1.35-.33-2.69-.64-4-.92s-2.7-.63-4-.83l-1.92-.36c-.65-.11-1.35-.19-2-.28l-4-.55c-2.71-.29-5.42-.57-8.14-.78l-4.08-.23c-1.37-.09-2.73-.16-4.09-.16a210.15,210.15,0,0,0-65.13,9.19c-5.35,1.46-10.58,3.38-15.86,5.13l-7.81,3-3.91,1.5-3.86,1.66-7.71,3.31-7.6,3.6c-5.11,2.32-10,5-15.05,7.59a16.35,16.35,0,0,1-3,1.35,11.73,11.73,0,0,1,2.5-1.5c24-12.75,49.07-23.41,75.16-29.54l-.1,0c-1.07.18-1.3.09-.17-.28a23.38,23.38,0,0,1,4.09-1c1.24-.15,1.15,0,.18.29a203.9,203.9,0,0,1,36.87-4.78l4.63-.13c1.54-.07,3.08,0,4.63,0s3.08,0,4.62.1l4.61.26c1.54.06,3.07.21,4.6.36s3.06.28,4.59.46c3,.42,6.14.77,9,1.37,12.05,2.59,24.25,5.81,36.32,8.91s24.12,6.37,36.12,9.58c-11.09-3.17-22.2-6.32-33.32-9.37s-22.26-6.09-33.4-8.83c-2.78-.65-5.58-1.32-8.26-1.81-1.37-.24-2.79-.42-4.19-.63s-2.81-.42-4.22-.55c-2.82-.3-5.64-.63-8.48-.77l-4.25-.27-4.26-.1a194.81,194.81,0,0,0-34,2.37l-3.66.71-3.64.85c-2.42.6-4.87,1.1-7.3,1.77a24.81,24.81,0,0,1-3.66.74c-.39,0,.55-.38,1.92-.75s2.68-.78,4.05-1.07c-1.07.19-2.09.43-3.07.66l-2.84.62c-1.8.39-3.41.7-4.77.92-2.71.49-4.34.74-4.37.4.25-.81,7.32-3.43,16.2-5.36,23.68-5.38,48.36-6.69,72.31-2.63,1.31.21,2.59.46,3.88.74s2.57.51,3.85.81l7.77,1.53c-4.56-1.2-9.13-2.35-13.75-3.39-1.17-.23-2.34-.48-3.51-.69l-3.51-.51c-2.34-.38-4.69-.63-7.05-.87a183.58,183.58,0,0,0-28.33-.67c-18.89,1-37.49,4.91-55.41,10.54-3.06,1-5.69,1.83-5.83,1.63s2.25-1.27,5.31-2.33a235.25,235.25,0,0,1,48.76-11.46,205.1,205.1,0,0,1,25.31-1.25l6.36.25c2.12.07,4.23.31,6.35.46s4.23.44,6.35.69c1.06.15,2.09.22,3.19.43s2.19.37,3.25.58c8.33,1.7,16.42,3.65,24.55,5.66s16.21,4.1,24.3,6.22q24.27,6.36,48.47,13.2c10.77,2.41,21.52,4.92,32.35,7.46l32.49,7.81-8-2.5c-34.92-10.8-67.58-19.21-100.1-27-16.29-3.89-32.45-7.73-49.15-11.19l-3.19-.61-1.6-.31-1.68-.28c-2.29-.42-4.41-.59-6.6-.84s-4.36-.4-6.55-.56l-3.29-.23-3.3-.11a192.91,192.91,0,0,0-26.7.89c-.9.09-1.72.14-2.35.15a4.8,4.8,0,0,1-1.19,0c-.21-.1,1-.41,2.82-.54l6.56-.62c2.18-.15,4.35-.23,6.52-.36s4.33-.14,6.48-.17,4.31-.07,6.45,0,4.29.07,6.41.24,4.27.26,6.39.45l6.36.67,3.32.53,3.14.58c16.43,3.23,32.34,7,49,11,13.78,3.34,27.19,6.73,40.35,10.08l38.84,10q-19.39-5.67-38.58-10.77t-38.34-9.89c-12.79-3.17-25.55-6.29-38.51-9.2-3.22-.74-6.5-1.44-9.78-2.14l-5-1c-.83-.17-1.79-.31-2.68-.47s-1.83-.31-2.66-.38a201,201,0,0,0-20.67-1.47,62.82,62.82,0,0,1-6.39-.18,5.23,5.23,0,0,1-1.37.18c-6.89.54-14.38,1.19-21.92,2.44a25.25,25.25,0,0,1-4.06.39C370.31,273,371.17,272.75,372.78,272.47ZM507.09,132.2l-.24-.09.66,0,1.35.75Zm-5.32,9.12h0l-.8-.38Zm68.57,68.6c-3.54.3-7,.57-10.33.74-1.63.08-3.25.12-4.72.08a4.87,4.87,0,0,1-.55,0,2,2,0,0,1-.47,0c-.18-.07-.4,0-.61-.11a8.77,8.77,0,0,1-1.22-.32,4.56,4.56,0,0,1-2.11-1.33,3.93,3.93,0,0,1-.85-2.32,9.18,9.18,0,0,1,1.44-4.73c.06-.09.09-.19.16-.28a2.17,2.17,0,0,0,.22-.36c.18-.32.34-.65.55-1a22.26,22.26,0,0,1,1.24-1.86,33,33,0,0,1,2.89-3.49,30.47,30.47,0,0,1,3.33-2.94c.57-.46,1.2-.75,1.8-1.15a10,10,0,0,1,1.88-.94,18.91,18.91,0,0,1,8.51-1.31c3.1.15,6.43.83,10.22,1.36-3.71-.48-7-1.09-10-1.23a19.3,19.3,0,0,0-8.28,1.2l-1.45.62c-.46.26-.91.55-1.37.82a10.36,10.36,0,0,0-1.33.9c-.43.33-.87.66-1.28,1a30.26,30.26,0,0,0-4.58,5,25,25,0,0,0-1.83,2.81l-.19.36a1.09,1.09,0,0,1-.16.24,4,4,0,0,0-.22.4,8.67,8.67,0,0,0-.43.79,8.11,8.11,0,0,0-.92,3.51,4.19,4.19,0,0,0,.42,1.78,3.73,3.73,0,0,0,1.24,1.35,6.86,6.86,0,0,0,1.69.73c.3.09.61.15.91.21s.27.07.46.09.52,0,.81,0C559.71,210.74,565,210.27,570.34,209.92Zm-71.68-78.61a11.81,11.81,0,0,1,3.3.87,5.48,5.48,0,0,1,1.47-1.08,38.73,38.73,0,0,1,4.53-1.93c-.41-.3,0-.43.1-.57l.48-.38-5.12,1.55C501.85,130.25,500.25,131,498.66,131.31Zm-8.88,8.21-.23-.05-.2-.76Zm.39,1.27.26-.07C490.53,141,490.4,141,490.17,140.79Zm2.37-.61a1.93,1.93,0,0,0-.5-.12Zm14.39,16.06-1.64-3.36,1.5,3.29Z"/><path d="M541.48,64l.26.07a.53.53,0,0,1-.4.31c2.43.28,4.19-1.8,4.86-3.92a1.09,1.09,0,0,0-.93-2,1.37,1.37,0,0,1-.45,0,8.32,8.32,0,0,0-3.68-.2l.85.11a2.75,2.75,0,0,0-1,.26l.28.22a2.54,2.54,0,1,0-.37,5.06Z"/><path d="M545.11,65.88c-.79,0-1.58,0-2.37,0l-.22-.11.51.77,0,0A4.49,4.49,0,0,1,544.57,64l.23-.29a.83.83,0,0,0,0-.58.8.8,0,0,0-1-.47l-.48.18c-1.33.17-3,1.14-2.81,2.84a2.76,2.76,0,0,0,.65,1.07,1.11,1.11,0,1,0,2-1l.34,0c0,.11-.07.21-.1.32-.12-.55.3-.94.52-1.4l.46-.45-1-1-.18.33.14.1a10.75,10.75,0,0,1-1.1,1.85l-.47.88a.69.69,0,0,0,.51.78l.49.07-.25-.07c.92-.16,1.82-.47,2.74-.61a.28.28,0,0,0-.06-.56Z"/><path d="M542.55,67.62a.68.68,0,0,0-.52.07v.14l.36.08C542.64,68,542.66,67.79,542.55,67.62Z"/><path d="M542,67.83l-.15,0,.13.08,0,0Z"/><path d="M571.43,47.39c2.15-.92,4.25-1.93,6.33-3a.14.14,0,0,0,0-.2.14.14,0,0,0-.19-.07c-2.09,1-4.18,2-6.33,3a.17.17,0,0,0-.06.21A.17.17,0,0,0,571.43,47.39Z"/><path d="M590.87,46.17a.15.15,0,0,0,.11.19.12.12,0,0,0,.17-.1.2.2,0,0,0-.12-.19A.13.13,0,0,0,590.87,46.17Z"/><path d="M594,52.43a3.21,3.21,0,0,0-.52.9.11.11,0,0,1-.13.07.32.32,0,0,1,0,.37,33.8,33.8,0,0,1-5.06,5.67.77.77,0,0,1,.08.34.79.79,0,0,1-.49.85l-.28.06c-1,.37-2,.77-3.07,1.12a1.51,1.51,0,0,1-.48.64,24.93,24.93,0,0,1-1.8,2.45.67.67,0,0,1,.25.25.52.52,0,0,1-.15.71l-.33.21,1.08-.36a.41.41,0,0,1,.16,0c.35-.19.7-.41,1.05-.64a35.64,35.64,0,0,0,7.58-7.73.14.14,0,0,1,.19-.07.18.18,0,0,1,.08.2c-1.06,2.43-1.62,5.12-3.19,7.23a64.83,64.83,0,0,1-5.94,7c-2.66,1.57-4.74,3.67-7.17,5.74-.9.77-1.81,1.5-2.72,2.18-2.87,2.08-5.8,3.9-8.82,5.75a3.33,3.33,0,0,1-4.67-.56,3.38,3.38,0,0,1-.57-3l-.39.21-.72.17a2.92,2.92,0,0,1-2-.29l-.81-.41c-1.31-.92-2.84-1.42-4.08-2.46l-.19-.55-.19-.08a2.83,2.83,0,0,1-1.48-.93l-.32-.61a7.2,7.2,0,0,1-.59-2.25,2.42,2.42,0,0,1-.33-.8A3.38,3.38,0,0,1,546.63,72a.49.49,0,0,1-.29-.62.5.5,0,0,1,.16-.22h0a2.56,2.56,0,0,0-.44-.24l-.28,0-.86.23a2.38,2.38,0,0,1-.77-.22c-1-.88-1-.88-1.18-1.37a.86.86,0,0,1,0-.16h-.48a1.61,1.61,0,0,1-.23-.1c-.15-.25-.15-.25-.25-.31a1.59,1.59,0,0,1-.12-.18c0-.36,0-.36-.06-.44a.93.93,0,0,1,0-.18l.19-.29.75.43,0-.27.25.24-.2-.24.28.06-.35-.12c.49-.15.49-.15.66-.27a.7.7,0,0,0,.33-.25l-.1-.13,1-.33.22.12a.25.25,0,0,1,.16-.23l.27-.09,0-.07,0,0,.13-.24,0-.06h0l.55-1.06a4,4,0,0,1,.47-.11l-.19,0c-.12,0-.2-.32-.25-.32a17.18,17.18,0,0,0-3.73.89.41.41,0,0,1-.51-.65,9,9,0,0,1,7-4.26c.66-.22,1.31-.46,2-.71l-.16-.07.57-.09.06,0-.61-.23-.31,0a27.15,27.15,0,0,1-4.7,1,22.13,22.13,0,0,1-2.56.23.38.38,0,0,1-.49-.2.36.36,0,0,1,.2-.47c2.07-1.63,4.8-2.87,7.47-2.46a2.11,2.11,0,0,1,1.37-.27h0l-.47-.21c.36-.09.7.11,1.06.07l-.4-.43c1.7-.59,3.25-1.7,5.07-1.81a.67.67,0,0,1,.19-.05,5.55,5.55,0,0,1,1.4-1.8l-.71.2a3.3,3.3,0,0,1,1.16-1.13,4.78,4.78,0,0,1,4.65.08c2.4-1.63,4.83-3.23,7.13-5a.28.28,0,0,1,.4.07.32.32,0,0,1,0,.43,41.58,41.58,0,0,1-4.81,4.2,40.42,40.42,0,0,0,4.92-2.17l.55-.42a1.82,1.82,0,0,1,.64-.27,35.54,35.54,0,0,0,5.73-3.76c1.54-1.34,2.86-2.57,4.31-4a31.81,31.81,0,0,1,6.25-5.43.71.71,0,0,1,1,.21.78.78,0,0,1-.06,1.06c-4.31,4.1-8.38,8.4-13.7,11.29l-1.7.92.1.14a1.43,1.43,0,0,1,.19.64c.65-.32,1.33-.61,2-.88a17.63,17.63,0,0,1,5-3.82,21.22,21.22,0,0,1,4.23-1.15c1.37-1.12,2.7-2.31,4.11-3.4a.12.12,0,0,1,.19,0,.16.16,0,0,1,0,.22,29.4,29.4,0,0,1-2.54,3,1.55,1.55,0,0,1,.77.71,1.58,1.58,0,0,1,.17,1.07l.75-.41a.37.37,0,0,1,.37.63l-3,1.69c-1.09.9-2.19,1.77-3.31,2.62a2.29,2.29,0,0,1,.83.61h0l.54-.36a37,37,0,0,1,9.61-7.43.16.16,0,0,1,.21.07.14.14,0,0,1,0,.2,30.32,30.32,0,0,0-3.16,1.89h0a.16.16,0,0,1,.11.19.13.13,0,0,1-.16.1.18.18,0,0,1-.12-.19,39.25,39.25,0,0,0-5.27,4.38A48.8,48.8,0,0,1,591.22,47l.41-.64a.15.15,0,0,1,.21,0,.17.17,0,0,1,0,.21l-.12.17a.84.84,0,0,1,1,.42.8.8,0,0,1-.23,1.11c-.89.64-1.81,1.23-2.73,1.8l-.26.26-.19.37c1.55-.7,3.12-1.36,4.69-2a.29.29,0,0,1,.38.13.29.29,0,0,1-.06.4,74,74,0,0,1-7,5.79L586,58.45a2.21,2.21,0,0,0,.34-.18c2.81-1.66,4.14-4.85,6.65-6.82,0-.06.15,0,.2,0a.14.14,0,0,1,0,.21,34.51,34.51,0,0,0-3.1,3.57,31.42,31.42,0,0,0-2.46,3c2-1.39,3.5-3.34,5.35-4.9a.24.24,0,0,1,.29-.07.15.15,0,0,1,0-.13,4.41,4.41,0,0,1,.54-1,.13.13,0,0,1,.2,0A.17.17,0,0,1,594,52.43ZM551.36,66.05l-.12-.06.3,0,.65.41Zm-2.44,4.36h0l-.37-.23Zm19.26-18.32a12,12,0,0,1-3.55,1.4l.73-.57C566.28,52.62,567.22,52.34,568.18,52.09ZM547.54,65.28a6.31,6.31,0,0,1,1.49.58,2,2,0,0,1,.63-.48,20.09,20.09,0,0,1,2-.86c-.2-.16,0-.22,0-.29l.2-.18c-.73.23-1.48.44-2.24.66A15.26,15.26,0,0,1,547.54,65.28Zm-4,3.45-.1,0-.06-.38Zm.12.64h.12C543.8,69.5,543.75,69.47,543.65,69.37Zm1.08-.1a.66.66,0,0,0-.22-.1Zm6,8.8-.59-1.75.52,1.7Z"/></svg>