<svg id="Layer_1" data-name="Layer 1" xmlns="http://www.w3.org/2000/svg" viewBox="0 0 1080 1329.91"><path d="M378.48,818.25v.52c-.3,0-.54-.16-.73-.49a6.23,6.23,0,0,0,3.43,4.83,10.71,10.71,0,0,0,6,.77,1.83,1.83,0,0,0,2.74-.31,2.33,2.33,0,0,0,.05-3,2.72,2.72,0,0,1-.25-.78,16.81,16.81,0,0,0-1.53-6.62c.07.51.15,1.05.22,1.57a4.9,4.9,0,0,0-.93-1.62l-.25.68a3.64,3.64,0,0,0-5.12-3,5.9,5.9,0,0,0-3.81,6.29Z"/><path d="M377,826.4c-.47-1.48-.85-2.95-1.2-4.43l.08-.48L374.72,823l.09-.08c1.87-.49,3.64.24,5.2,1l.65.16a1.57,1.57,0,0,0,1-.46,1.67,1.67,0,0,0,.23-2.24c-.2-.23-.38-.48-.57-.72-1-2.32-3.42-4.6-6.43-3a6.71,6.71,0,0,0-1.64,2,2.24,2.24,0,0,0-.14,3.12,2,2,0,0,0,3-.21l.27.58-.62.05c.92-.64,1.84-.15,2.77-.11l1,.51,1.31-2.72-.67-.08c0,.12-.09.33-.1.33a16.52,16.52,0,0,1-3.85-.59l-1.84-.2a1.54,1.54,0,0,0-1.16,1.52l.12.94v-.49c.79,1.56,1.84,3,2.63,4.59a.49.49,0,0,0,.69.24A.62.62,0,0,0,377,826.4Z"/><path d="M372.4,823a1.15,1.15,0,0,0-.4-.9l-.28.08c0,.19,0,.46.07.72C371.83,823.38,372.16,823.29,372.4,823Z"/><path d="M371.72,822.14l0-.3c0,.1-.05.2-.07.3h.09Z"/><path d="M498.94,864.12c1,0,1.93.11,2.89.11h2.9l5.82,0,5.83-.26,2.92-.14,2.92-.26,5.85-.53,5.83-.78,2.93-.39c1-.14,1.94-.33,2.91-.5l5.82-1c.53-.08.94-.28.93-.4s-.42-.12-.91,0l-5.81,1-2.91.5-2.91.38-5.82.77-5.82.51-2.91.26-2.91.14-5.8.26c-1.94,0-3.87,0-5.8,0s-3.85,0-5.77-.12c-.51,0-.94.08-1,.21S498.46,864.09,498.94,864.12Z"/><path d="M616.93,844.4c-.3.26-.24.34.16.21a4.53,4.53,0,0,0,1.19-.66c.26-.21.19-.32-.15-.2A4.71,4.71,0,0,0,616.93,844.4Z"/><path d="M617.65,853.11l-2.89,1.94c-.94.61-1.83,1.21-2.66,1.81a5.56,5.56,0,0,1-1,.52c.2.08-.13.43-.86.9-14.32,9.32-31.12,17.16-48.29,23.59a1.6,1.6,0,0,1-.61.66,19.73,19.73,0,0,1-6,2.49l-2,.45c-2,.51-3.94.9-5.9,1.36s-3.93.92-5.92,1.27l-5.95,1.08-3,.52-3,.41a48.45,48.45,0,0,1-5.5,1.42c-3.4.89-6.85,1.62-10.32,2.42s-7,1.29-10.62,1.9c.46.11.74.26.75.46s-.5.51-1.18.7a11.72,11.72,0,0,1-2.58.37l-3,.2c2.86-.06,5.73,0,8.56-.23a11.28,11.28,0,0,1,1.14,0c3.11-.31,6.26-.57,9.42-1.12a213.82,213.82,0,0,0,39.39-9.89,265,265,0,0,0,35.41-15.57,4.37,4.37,0,0,1,1.32-.57c.26,0,.27.12-.14.36-1.71,1.08-3.42,2.08-5.12,3.08l-5.06,3c-3.38,1.94-6.78,3.84-10.27,5.75a173.36,173.36,0,0,1-23.35,10.37,242.28,242.28,0,0,1-67,13.81,333.32,333.32,0,0,1-36.45-1.87,240.83,240.83,0,0,1-36.91-6.7c-2.16-.5-4.25-1.2-6.36-1.82l-6.31-1.93L389.3,892c-2.06-.76-4.14-1.47-6.14-2.35l-1.52-.64-.75-.32-.29-.11-1-.38-2.05-.78c-1.37-.54-2.74-1-4.06-1.66-2.65-1.21-5.29-2.47-7.92-3.76s-5.16-2.81-7.76-4.26a8.37,8.37,0,0,1-4.41-4.2,6,6,0,0,1,0-5.28,6.45,6.45,0,0,1,5.33-3.32l-.83-.61-1.1-1.27a6.06,6.06,0,0,1-1.51-4.16V857c.54-3.19.21-6.62,1.23-9.74l.93-.75v-.43a5.55,5.55,0,0,1,.64-3.52l1-1.05a14.44,14.44,0,0,1,3.91-2.71,5.07,5.07,0,0,1,1.28-1.21,7,7,0,0,1,2.6-3.86,1,1,0,0,1,1-1,1,1,0,0,1,.5.14h0c.09-.41.11-.52.18-1-.18-.32-.27-.51-.27-.51-.53-.77-.53-.77-1-1.45a4.68,4.68,0,0,1-.06-1.61c1.08-2.41,1.09-2.41,1.88-3.17l.3-.15c-.19-.65-.21-.7-.25-.88a2.78,2.78,0,0,1,.07-.5c.37-.46.37-.46.43-.69a4.21,4.21,0,0,1,.27-.35c.67-.3.67-.3.79-.43A1.6,1.6,0,0,1,371,822l.64.13c-.38,1.68-.39,1.69-.39,1.69l.47-.3-.31.66.33-.56.06.56v-.73c.57.8.57.8.87,1a1.46,1.46,0,0,0,.64.43,2.15,2.15,0,0,1,.19-.29c.6.85.6.85,1.18,1.71a3.7,3.7,0,0,1-.09.48.4.4,0,0,1,.5.13l.33.43h.14l0,0,.52.06h.11c.35,0,.85.09,2.24.16a4.52,4.52,0,0,1,.5.76c0-.13,0-.25,0-.38s.44-.61.41-.71a16.19,16.19,0,0,0-.82-1.61c-.28-.54-.58-1.06-.9-1.57-.63-1-1.3-2-1.95-3a.85.85,0,0,1,.91-1.42c5.23.72,9.11,4.41,11.53,9.18.84.95,1.72,1.87,2.62,2.79v-.34l.56.92.08.08L391.3,831c-.09-.18-.17-.36-.26-.53a17.4,17.4,0,0,1-2.68-3.46c-.76-1.28-1.4-2.65-2.17-3.9a35.66,35.66,0,0,1-1.83-4.34.75.75,0,0,1,.08-1,.64.64,0,0,1,.93-.06,18.73,18.73,0,0,1,5.29,4.52A15.25,15.25,0,0,1,394,828.7a3.87,3.87,0,0,1,1.41,2.14l0,0c0-.34,0-.66,0-1,.39.55.34,1.29.68,1.85l.4-1.07c1.13,1.15,2.46,2.11,3.71,3.17a20.2,20.2,0,0,1,1.78,1.68,12.12,12.12,0,0,1,1.56,1.92,2,2,0,0,1,.25.26,17.41,17.41,0,0,1,2.17,0l.53.07.14,0,.35.16.71.32c1,.43,1.9,1,2.92,1.42-.66-.38-1.28-.81-1.9-1.25s-1.21-.83-1.82-1.26c.65.25,1.47.6,2.19.91s1.49.65,2.26,1c1.52.63,3,1.34,4.57,2.16,8.35,4.33,17.77,9.73,22,13.81a205.22,205.22,0,0,0,27.79,6.42,199,199,0,0,0,28.54,2.18,3.17,3.17,0,0,1,2.06.45c.1.26-.54.51-1.54.53s-1.71.1-2.58.12h-7.78c-1.73,0-3.46-.15-5.2-.22s-3.48-.16-5.22-.31a191.66,191.66,0,0,1-20.74-2.94,168,168,0,0,0,35.19,5.94c1.55,0,3.11.11,4.66.1s3.07,0,4.6.17a186.76,186.76,0,0,0,46.12-5.14,240.71,240.71,0,0,0,37.42-12.43c8.85-3.8,17.13-7.87,25.28-12.12s16.08-8.91,24.3-13.85c2.12-1.4,4.32-2.38,4.83-2.17s-.82,1.53-3,3q-12.54,8.37-25.68,15.57A286.08,286.08,0,0,1,580,853.12a223.17,223.17,0,0,1-28.71,9.56,194.76,194.76,0,0,1-30.27,5.5c-2.22.25-4.44.35-6.64.53l-3.28.23c-1.1.06-2.19.07-3.28.11a.64.64,0,0,1,.13.26c0,.36-.37.71-1.05,1l3.75-.08,3.76-.22,3.77-.2,1.9-.09,1.89-.18c13.89-2.35,27.54-5.77,42.11-9.69,10-2.76,19.08-5.4,28.25-8.63a308.37,308.37,0,0,0,32.49-17.46,3.45,3.45,0,0,1,1.07-.52c.2,0,0,.21-.39.49-1.77,1.2-3.58,2.36-5.39,3.55l-2.72,1.77-2.8,1.69-5.65,3.37-5.8,3.19c1.4-.33,2.33-.33,2.44.12s-.67,1.32-2,2.33L609,847.1c1.13-.54,2.09-.84,2.16-.63s-.7.86-1.78,1.38c-3.71,1.84-7.39,3.72-11.18,5.37-1.89.84-3.75,1.75-5.66,2.53l-5.72,2.36A265.29,265.29,0,0,1,559,868.53a6.64,6.64,0,0,1,3.12.39h0l4.4-1.38a372.48,372.48,0,0,0,76-39.68c.47-.32.9-.52,1-.45s-.26.38-.69.66c-3.67,2.42-7.27,4.9-11,7.18-1.86,1.14-3.67,2.37-5.56,3.46l-5.62,3.34h0c.33-.13.45-.06.15.2a5.26,5.26,0,0,1-1.17.7c-.39.14-.41,0-.16-.2a385,385,0,0,1-43.25,21.4,335.76,335.76,0,0,0,40.42-18.41c1.34-.9,2.71-1.75,4.06-2.7a3.38,3.38,0,0,1,1.11-.5c.15,0-.08.27-.47.52l-1.12.77c2.44-1.39,4.52-2.12,4.75-1.65s-1.72,2.14-4.26,3.62c-6.8,3.94-13.66,7.73-20.76,11.06L597.71,858l-2.2,1.34a300.3,300.3,0,0,0,32.56-16.51c.89-.54,1.73-.87,1.84-.73s-.52.72-1.41,1.27a277.42,277.42,0,0,1-27.91,16.42,265.69,265.69,0,0,1-30,13.24c-3.26,1.63-6.58,3.16-9.91,4.79-3.38,1.46-6.78,3-10.27,4.47.92-.2,1.84-.45,2.75-.72A178.37,178.37,0,0,0,585,869.08c9.89-4.89,19.36-10.21,29.36-15.94a2.14,2.14,0,0,1,1.06-.42c.1.06-.19.34-.7.63C605,859,596.11,864.27,586,869.23l-6.27,3L573.46,875l-3.08,1.37-3.09,1.26-6.12,2.57q3.18-1.09,6.3-2.24l3.12-1.13,3.06-1.26,6.06-2.52,5.94-2.74,3-1.38,2.91-1.46,5.83-2.93,5.75-3.09,2.88-1.54c1-.52,1.91-1.08,2.86-1.61a8.57,8.57,0,0,1,1.84-.86c0-.07.12-.19.31-.33,1.81-1.27,3.84-2.53,5.86-3.91a3.34,3.34,0,0,1,1.17-.55C618.27,852.57,618.07,852.8,617.65,853.11ZM381,837.89v-.25l.2.55L381,839.7S381,838.79,381,837.89Zm-9.73-.94h0c.09-.5.15-.86.15-.86C371.35,836.44,371.29,836.72,371.25,837Zm93.09,28-6.24-1.23c-1-.19-2.06-.45-3.08-.73l-3-.81a111,111,0,0,1-11.91-4l5.89,1.46,2.25.77,2.28.68,4.57,1.37c1.52.5,3.07.88,4.62,1.27Zm-84.75-34.67a13.37,13.37,0,0,1,0,3.16,3.94,3.94,0,0,1,1.31.77c1,1,2,1.86,3,2.81.12-.49.35-.26.52-.22l.47.19c-1-1.11-2-2.16-2.85-3.4A28.86,28.86,0,0,1,379.59,830.32Zm-8.7-4.73,0-.22.67-.4Zm-1.11.69a1.8,1.8,0,0,0,.08.21C369.63,826.66,369.65,826.54,369.78,826.28Zm.83,1.93a1.93,1.93,0,0,0,.05-.48ZM358.1,846l2.93-2.37-2.9,2.21Z"/><path d="M516.65,916.43l-.57-.28c.13-.18.48-.2,1-.12a10.41,10.41,0,0,0-7.08-.49,9.79,9.79,0,0,0-2.45,1.17,7.18,7.18,0,0,0-1.62,1.49c-1.15.1-1.56.73-1.14,1.3a2.45,2.45,0,0,0,1.11.73,4.54,4.54,0,0,0,1.62.29,5.81,5.81,0,0,1,.89.2c.6.23,1.18.47,1.81.69l1.93.65,2,.67c.7.21,1.4.43,2.12.67-.64-.3-1.29-.57-1.91-.82a22.41,22.41,0,0,0,2.44.62l-.58-.48c3.13,1.3,6.4,1.69,7.06.21s-1.78-4.53-5.11-5.9Z"/><path d="M508.91,911.86c.82.11,1.7.27,2.57.46s1.73.41,2.61.67l.47.29-1-1.42,0,.1c-.42,1.36-2.22,2-3.78,2.63l-.52.28a.62.62,0,0,0-.12.73,2.59,2.59,0,0,0,2.16,1l1.07,0a23,23,0,0,0,2.36.3,13.19,13.19,0,0,0,2.28,0c1.41-.18,2.46-.7,2.33-2.05-.06-.61-.85-1.41-1.38-2.13a3.81,3.81,0,0,0-3.39-1.78c-1.31.1-1.86,1-1.33,1.92l-.75-.1.26-.41c.2.86-.8,1.17-1.36,1.68l-1.06.39,2.06,1.86.46-.32c-.11-.08-.29-.19-.29-.2a14.44,14.44,0,0,1,2.79-1.82l1.24-.94c.2-.47-.28-1.16-1.07-1.51l-1.1-.41.54.25a53.68,53.68,0,0,0-6.1-.32c-.32,0-.57.14-.57.37S508.59,911.84,508.91,911.86Z"/><path d="M514.79,910.45a2.09,2.09,0,0,0,1.18.2c0-.12,0-.18.06-.21l-.83-.34C514.61,909.87,514.55,910.12,514.79,910.45Z"/><path d="M516,910.44l.34.14-.3-.21,0,0Z"/><path d="M525.11,1060.15c-1,24.84-2.14,49.82-3.69,74.78-.06.84,0,1.55.21,1.59s.33-.61.37-1.38c1.61-25,2.78-49.83,3.78-74.66a2.83,2.83,0,0,0-.31-1.65C525.28,1058.79,525.13,1059.37,525.11,1060.15Z"/><path d="M502.45,1246.39c-.05-.6-.16-.57-.26,0a10.75,10.75,0,0,0-.07,2.06c.05.5.18.48.26,0A9.61,9.61,0,0,0,502.45,1246.39Z"/><path d="M494.23,1241c-.27-3.5-.59-6.82-1-9.78a11.61,11.61,0,0,1-.05-1.64c-.18.2-.37-.47-.51-1.73-2.62-24.84-4.51-51.56-6.25-77.88a2.54,2.54,0,0,1-.65-1.12,29.49,29.49,0,0,1-1.12-9.27l.12-2.86c.17-11.55.38-23.08.8-34.56a68.64,68.64,0,0,1-.63-8c-.91-10-1.72-19.93-2.25-30.14-.21.64-.46,1-.73,1-.63-.21-1.09-2.58-1-5.33,0-1.39.07-2.78.16-4.17-.45,4-.54,8-.79,12,0,.57-.07,1.1-.13,1.59-.09,4.37-.09,8.79,0,13.28.43,39.22,4,76.09,7.74,112.67a6.88,6.88,0,0,1,0,2.07c-.1.35-.27.29-.36-.38-3.5-23.07-8.22-43.05-11-69.14-1.63-15.52-3-31-4-46.49-.26-3.88-.51-7.77-.71-11.67l-.3-5.86c-.1-2-.23-3.92-.21-5.88a57.55,57.55,0,0,1,5.28-23.65c4-8.28,9-16.37,12.8-24.51,1-2.08,1.82-4,2.71-6.33l.64-1.67c.23-.65.47-1.17.67-1.63.42-.92.82-1.7,1.13-2.49a15.62,15.62,0,0,0,1.21-9.43,13,13,0,0,0-1.75-4.36c-.43-.68-.93-1.4-1.61-2.35a18.53,18.53,0,0,1-2.19-4,16.21,16.21,0,0,1-1.06-5.26,17.54,17.54,0,0,1,.56-5.15,23.37,23.37,0,0,1,4-7.76,13.34,13.34,0,0,0,1-1.59l0-.05v0s0,0,.09.06l.35.19c.24.12.48.22.74.32l.39.13a1,1,0,0,1,.19.08,2.75,2.75,0,0,0,.67.17s0,0,0,0H497l-.29,0-.21,0,.11,0a1.82,1.82,0,0,0-.41.18l-.3.17-.36.23-.45.33-.11.09h0a.73.73,0,0,0-.18-.31l-.24-.25c-.4-.36-.73-.7-1.14-1-.79-.6-1.57-1.19-2.29-1.81a21.63,21.63,0,0,1-3.72-3.68,9.9,9.9,0,0,1-1.76-4.15,3.72,3.72,0,0,1-.13-1.21c0-.41,0-.82,0-1.23a10.25,10.25,0,0,1,.52-2.26,6.71,6.71,0,0,1,.65-1.38,6.4,6.4,0,0,1,.85-1.27,3.82,3.82,0,0,1,.46-.62l.6-.58A14.86,14.86,0,0,1,490,938.5a6.79,6.79,0,0,1,.79-.53,6,6,0,0,1,.87-.5c.67-.27,1.32-.56,2-.86,1.32-.57,2.83-1,4.2-1.42l2.08-.69c.42-.16.63-.25.93-.38a9.09,9.09,0,0,0,1.34-.68,1.68,1.68,0,0,0,.28-.24h0s0,0,0,0l.07.1c.19.24.47.52.59.69a6.91,6.91,0,0,0,.51.57l.28.26.2.2a3.13,3.13,0,0,0,.44.36c.17.12.21.17.34.25s.28.14.32.17l.19.08c.13,0,.19,0,.11,0a1.76,1.76,0,0,0-.34.12,2.16,2.16,0,0,0-.6.33,4.42,4.42,0,0,0-.86.63l-.19.18-.28.24a6.51,6.51,0,0,0-.54.51c-.17.17-.33.35-.49.54a2.25,2.25,0,0,1-.28.32c-.08.09,0,0-.06.05l-.08,0-.38-.08c-.65-.16-1.65-.4-2.73-.58-.56-.09-1.08-.19-1.74-.27l-2-.08c-.68,0-1.38-.2-2.06-.29a80.26,80.26,0,0,1-8.85-1.95l-1.68-1a3.48,3.48,0,0,0-.43-.25l-.55-.2-1.09-.4a8.51,8.51,0,0,1-1.05-.41l-.74-.56c-.49-.38-1-.75-1.44-1.14s-.93-.76-1.36-1.15l-.43-.39-.58-.52c-.79-.68-.49-1.58-1.36-2.25l-.5-.53a2.32,2.32,0,0,1-.43-.54l-.67-1.12-.54-1.16a11.83,11.83,0,0,0-.73-1.18c-.64-.8.09-1.59-.74-2.49l-.37-.66a4.73,4.73,0,0,1,0-.65l.05-.66c0-.1,0-.22-.08-.35l-.16-.37c-.18-.48-.56-1-.31-1.43l.17-.69.08-.34a1.33,1.33,0,0,0-.07-.38c-.12-.53-.26-1.06-.36-1.58l.56-1.37.14-.34a1.64,1.64,0,0,0,0-.39l0-.79c0-.53-.05-1.06,0-1.6l.1-1.62,0-.4c0-.15.13-.21.19-.33l.49-.6,1-1.22a10.72,10.72,0,0,0,.56-1.46l.52-1.49,0-.09,0-.05-.06-.1-.26-.41-.13-.21c0-.05,0-.07,0-.11l.09-.2.35-.8.34-.81.28-.71.53-1.32c.36-.84.74-1.72,1.11-2.55s.6-1.36.92-2a17.41,17.41,0,0,1,1-1.8,12.55,12.55,0,0,1,2.07-2.63c1.34-1.27,2.7-1.68,3.68-1,1.2.9,1.55,3.11,1.13,5.55l.65-1c.39-.45.8-.94,1.2-1.35,1.14-1.18,2.35-1.94,3.45-1.87l1.44,0c2.31.54,5.1.34,7.46,1.75l.39,1,.36.05a3.75,3.75,0,0,1,2.86,1.17l.64,1.13a11.9,11.9,0,0,1,1.21,4.23,3.87,3.87,0,0,1,.66,1.41,5.64,5.64,0,0,1,2.63,3.21.8.8,0,0,1,.58,1.08.88.88,0,0,1-.33.36h0c.36.2.46.25.89.45l.61,0c1-.15,1-.15,1.84-.23a5.89,5.89,0,0,1,1.66.59c2,1.84,2.05,1.88,2.5,2.8a1.42,1.42,0,0,1,0,.29,7.7,7.7,0,0,1,1.07.26,4,4,0,0,1,.51.3c.34.5.34.5.56.66a3.62,3.62,0,0,1,.26.38c0,.6,0,.59.09.75a1.12,1.12,0,0,1,0,.29l-.47.33-1.65-1.11.09.45-.56-.52.44.49-.63-.24.78.37a4.65,4.65,0,0,0-1.54.06,1.57,1.57,0,0,0-.77.23,1.65,1.65,0,0,1,.21.25l-2.33.07-.44-.24c0,.14-.16.26-.39.27l-.58.06-.07.09,0,0c-.11.13-.19.22-.29.32l-.05.08h0c-.2.22-.5.54-1.29,1.33a8.63,8.63,0,0,1-1,0l.37.11c.26.08.36.46.48.47,1.36.08,2.7.15,4.05.17s2.75.08,4.18.22a1.53,1.53,0,0,1,1.34.5c.3.37.17.69-.28.76a10,10,0,0,1-3.23,1.43,24.65,24.65,0,0,1-3.84.74c-2.7.31-5.46.43-8,.51-.57.08-1.15.21-1.69.33l-1.52.36.24,0c-.25,0-.62,0-.56.15v0h.2a3.8,3.8,0,0,1,.4.07h.47a17.15,17.15,0,0,1,3.89-.46c.75,0,1.45,0,2.23,0l2.38.12a16.87,16.87,0,0,1,2.68.36l2.76.62a1.34,1.34,0,0,1,1,.54c.14.26-.11.43-.53.39-1.26.14-2.46.17-3.77.24-.64,0-1.23,0-1.88.05h-1.86c-1.25,0-2.38-.07-3.51-.12l-1.58-.16a3.37,3.37,0,0,1-.36-.06,1.87,1.87,0,0,0-.31-.05l-.11.06a1.53,1.53,0,0,1-.84.3h0l.49.08c-.17.11-.6,0-.8.14l.61.19a1.55,1.55,0,0,0-.47,1.31c0,.46.22.84.26,1.2a.2.2,0,0,1,0,.08c.35.12.69.21,1,.3l.22.06.06,0,.17.08.34.16c.46.21.92.4,1.39.59a12.39,12.39,0,0,1-1.67-.91c.64.31,1.35.56,2,.79l.24.09.12,0,.06,0,.12.08,2,1.29c.69.46,1.38.91,2.14,1.46a24.59,24.59,0,0,1,2.48,2l.47.44.5.55a10.23,10.23,0,0,1,1,1.36,8,8,0,0,1,.51.94,7.1,7.1,0,0,1,.42,1.09,11,11,0,0,1,.27,1.27,10.11,10.11,0,0,1,0,1.35,7.51,7.51,0,0,1-1.79,4.33,9.82,9.82,0,0,1-2.31,2,22.52,22.52,0,0,1-3.63,1.78l-1.16.46-.36.11a9.65,9.65,0,0,0-1.46.55,1.66,1.66,0,0,0-.63.51.81.81,0,0,1-.1.18c0,.06,0,.13,0,.19a.6.6,0,0,0,.1.35,5.1,5.1,0,0,0,1,1l.28.24.14.13.07.06,0,0-.05,0c-.05,0,0,0,0,0l.17.14a15.93,15.93,0,0,1,2.67,2.61,12.28,12.28,0,0,1,2,3.71,11.91,11.91,0,0,1,.48,2.05c.06.7.1,1.39.09,2.06a15.36,15.36,0,0,1-.29,2,13.87,13.87,0,0,1-.57,1.72c-.23.48-.47,1-.7,1.38s-.48.75-.71,1.08a28.11,28.11,0,0,1-2.11,2.76c-.59.71-1.1,1.3-1.48,1.83a6.25,6.25,0,0,0-1.29,2.81,4.5,4.5,0,0,0,0,1.36,5.53,5.53,0,0,0,.62,1.71c.79,1.5,2,3.54,3,5.58a55.56,55.56,0,0,1,4.12,12.93c.43,2.24.7,4.56.94,6.73l.19,1.56a12.85,12.85,0,0,0,.26,1.32c.19.9.43,1.79.65,2.67.51,1.91,1.05,3.85,1.67,5.76s1.29,3.9,2,5.85c1.39,3.88,3,7.8,4.42,11.69a99,99,0,0,1,6.27,23.36c.21,1.61,0,3-.29,3.32s-.71-.9-.89-2.51a98.13,98.13,0,0,0-3.91-16.79c-1.81-5.63-4-11.26-6-16.91-1-2.81-1.9-5.65-2.73-8.46-.4-1.4-.78-2.8-1.12-4.2l-.26-1-.21-1c-.15-.65-.3-1.3-.42-2-.26-1.16-.34-2.81-.52-4.39s-.36-3.23-.66-4.85a53.45,53.45,0,0,0-2.55-9.4,51.89,51.89,0,0,1,2.16,7.84,68,68,0,0,1,1,8.05c.06.65.09,1.28.15,1.86s.16,1.05.26,1.62c.21,1.11.39,2.15.66,3.37.5,2.37,1,4.7,1.7,7.11,2.51,9.53,5.89,19.19,7.53,28.89.49,2.48.88,5,1.19,7.46a46.17,46.17,0,0,1,.23,7.33c-.1,12.38-.44,24.44-.7,36.57s-.52,24.34-.66,37c-.25,21.59-.67,40.48-1.64,62-1.43,30.19-4,57.69-9.74,87.5a43.2,43.2,0,0,1-2.06,8.1c-.35.47,0-2.4.65-6.38,2.47-15.55,4.12-31,5.38-46.52s2.1-31,2.74-46.59c1.26-31.19,1.81-62.73,2.85-95.25.2-7,.41-13.91.61-20.77a.72.72,0,0,1-.36.16c-.49,0-.93-.66-1.28-1.77q-.39,11.7-1.06,23.53c.5,21.94.65,43.91-1,67.28-1.15,16-2.9,30.57-4.53,45.42-.78,18.82-1.79,37.58-3.6,56.58a8.16,8.16,0,0,1-.28,1.82c-.1.27-.13-.14-.08-.91.85-13.06,1.37-26.46,1.76-40-.51,2.13-1,3.39-1.55,3.22s-.9-1.83-1.14-4.36l-.46,9.19c-.11,1.89-.37,3.38-.61,3.33s-.4-1.55-.32-3.36q.75-18.75,1.49-37.46c.14-15,.2-29.92.24-44.93a10.74,10.74,0,0,1-1.85,4.32h0q0,3.49-.08,7,.9,31.82.27,64.29t-2.89,65.29a7.92,7.92,0,0,1-.19,1.58,5.93,5.93,0,0,1,0-1.42q1.22-19.82,1.94-39.51v0c-.08.53-.19.63-.24,0a11.86,11.86,0,0,1,.07-2.06c.1-.61.21-.55.25,0,.86-24.47,1.07-48.77.6-72.75q-.44,33.42-1.66,66.8c.05,2.43.1,4.85.16,7.31a7.74,7.74,0,0,1-.19,1.82c-.08.19-.17-.3-.17-1l0-2.05c-.17,4.22-.65,7.46-1.12,7.39-.48-.24-.83-3.86-.78-8.24q0-17.58.08-35.08l-.1-3.79c-.1-1.27-.21-2.54-.31-3.81-.39,18.16-.73,36.29-.87,54.3a8.22,8.22,0,0,1-.26,2.9c-.16,0-.31-1.22-.34-2.77-1.09-31.76-2.38-63.92-3.13-96.22-1.38-10.61-2.86-21.26-4.34-32.1,0,1.36,0,2.74,0,4.12.17,17.56,1.45,33.79,2.7,49.89s2.47,32,3.06,49a4.09,4.09,0,0,1-.13,1.67c-.1.09-.22-.49-.24-1.35-.73-16.6-2.12-31.74-3.31-48.21-1-13.64-1.91-26.61-3.15-39.3.84,25.92,3,50.77,4.4,76.44a15.84,15.84,0,0,1,0,3,1.43,1.43,0,0,1,.18.64c.41,3.21.74,6.71,1,10.28a6.74,6.74,0,0,1-.05,1.91C494.44,1242.14,494.32,1241.72,494.23,1241Zm2.5-329.21.2,0-.54.07-1.11-.28S496,911.63,496.73,911.75Zm4.87-6.88h0l.71.31Zm7.4,99.63c-.15-.8-.28-1.6-.37-2.36l-.2-2.71c-.13-1.88-.32-3.82-.64-5.73a49.29,49.29,0,0,0-3.11-11,45.47,45.47,0,0,0-2.48-5.1,13.74,13.74,0,0,1-1.74-3.74,4.69,4.69,0,0,1,0-1.36,7.21,7.21,0,0,1,.33-1.44,9.33,9.33,0,0,1,1.73-2.74,9.33,9.33,0,0,0-1.62,2.69,5.74,5.74,0,0,0-.27,2.68c0,1.12,1.68,3.53,2.95,6.14a47.56,47.56,0,0,1,3.09,8.13,52,52,0,0,1,1.62,8.6c.16,1.45.24,2.9.33,4.29,0,.67.07,1.38.14,1.9S508.9,1003.91,509,1004.5Zm-5.16-92.29a20,20,0,0,1-2.82-.73,4.62,4.62,0,0,1-1.26.7c-1.2.54-2.44,1-3.54,1.53.34.13.07.25,0,.35s-.24.18-.33.27c.61-.25,1.25-.5,1.88-.71s1.37-.41,2.05-.6,1.33-.34,2-.49A13.62,13.62,0,0,1,503.84,912.21Zm8.87-4,.22.11.09.64Zm-.21-1.09-.26,0C512.18,906.84,512.29,906.9,512.5,907.1Zm-2.37-.2a2.34,2.34,0,0,0,.46.21Zm-11.92-15.24,1.18,3.19-1.05-3.14Z"/><path d="M595.48,961.12l-.41.31a.77.77,0,0,1,0-.88,6.1,6.1,0,0,0-1.83,5.61,10.51,10.51,0,0,0,2.93,5.24,1.81,1.81,0,0,0,1.89,2,2.37,2.37,0,0,0,2.46-1.77A2.43,2.43,0,0,1,601,971a17.06,17.06,0,0,0,4.42-5.14l-1.14,1.11a4.42,4.42,0,0,0,.74-1.7l-.7.2a3.59,3.59,0,0,0-.61-5.85,5.93,5.93,0,0,0-7.33.68Z"/><path d="M588,964.75c.91-1.25,1.87-2.43,2.85-3.59l.44-.22h-1.9l.12,0c1.51,1.2,2,3,2.3,4.75l.25.61a1.6,1.6,0,0,0,1,.54,1.68,1.68,0,0,0,1.94-1.14,7.22,7.22,0,0,1,.22-.89c1.29-2.14,1.67-5.45-1.44-6.88a6.74,6.74,0,0,0-2.56-.14,2.23,2.23,0,0,0-2.58,1.73,2,2,0,0,0,1.94,2.26l-.31.56-.41-.46c1.06.36,1.22,1.38,1.73,2.14l.2,1.13,3-.57-.33-.59a2.46,2.46,0,0,1-.33.12,16,16,0,0,1-1.81-3.42l-.94-1.59a1.53,1.53,0,0,0-1.9,0l-.69.66.4-.29c-.79,1.56-1.31,3.24-2.13,4.82a.48.48,0,0,0,.21.7A.61.61,0,0,0,588,964.75Z"/><path d="M588.09,959.06c.24-.25.5-.48.47-.86l-.22-.17-.54.48C587.41,958.85,587.67,959.06,588.09,959.06Z"/><path d="M588.34,958l.23-.2-.29.12,0,0Z"/><path d="M629.19,1080.84c1,1.55,2.14,3,3.22,4.49s2.16,3,3.33,4.45c2.35,2.87,4.62,5.83,7.15,8.58,1.24,1.39,2.46,2.81,3.74,4.18l3.91,4c.65.67,1.29,1.36,2,2l2,2,4.1,3.89c.38.34.76.54.85.46s-.14-.41-.49-.71a211.86,211.86,0,0,1-15.69-16c-2.51-2.74-4.77-5.69-7.11-8.55-1.17-1.43-2.21-3-3.31-4.43l-1.64-2.23c-.55-.73-1.08-1.48-1.57-2.26-.28-.4-.6-.67-.74-.64S628.94,1080.45,629.19,1080.84Z"/><path d="M711.35,1160.55c-.37-.09-.4,0-.07.25a3.75,3.75,0,0,0,1.18.54c.32.08.36,0,.08-.24A4.36,4.36,0,0,0,711.35,1160.55Z"/><path d="M704.93,1166.37c-1.07-.39-2.13-.76-3.15-1.1s-2-.71-2.92-1a4.75,4.75,0,0,1-1-.46c0,.2-.42.15-1.2-.14-3.86-1.37-7.67-3.05-11.56-4.72-2-.82-3.85-1.8-5.79-2.71s-3.89-1.84-5.79-2.88l-5.76-3.07c-1.93-1-3.79-2.17-5.69-3.26-3.83-2.15-7.5-4.57-11.25-6.88a1.79,1.79,0,0,1-.88-.07,18.14,18.14,0,0,1-5.38-3.19l-1.46-1.25c-1.53-1.19-2.95-2.51-4.42-3.76s-2.94-2.52-4.38-3.81l-4.23-4c-1.41-1.32-2.82-2.64-4.14-4a44.12,44.12,0,0,1-4.25-3.4c-1.35-1-2.63-2.11-3.92-3.21l-3.9-3.31c-1.32-1.09-2.55-2.28-3.81-3.46l-3.77-3.58c.17.42.21.73,0,.86-.44.19-1.84-.75-3-2.23l-1.86-2.18,2.5,3.27c.85,1.07,1.74,2.11,2.6,3.17a9.22,9.22,0,0,1,.67.86l3,3.34c1,1.11,2.14,2.17,3.23,3.25A205.12,205.12,0,0,0,643.8,1138a254.13,254.13,0,0,0,32.33,18.22,4.25,4.25,0,0,1,1.19.7c.16.19,0,.28-.36.11-14.33-5.81-27.28-10.83-42.34-20.76a234.48,234.48,0,0,1-25.77-19.61,226.52,226.52,0,0,1-23.54-23.81,337.64,337.64,0,0,1-19.66-29.06c-1.46-2.53-3-5-4.41-7.62s-2.79-5.23-4.2-7.87-2.62-5.43-3.94-8.19c-.32-.69-.67-1.38-1-2.08l-.9-2.14-1.82-4.31c-.4-1-.81-2-1.22-2.94s-.73-2-1.1-3c-.72-2-1.43-4-2.15-6l-.53-1.5-.46-1.51-.92-3c-.6-2-1.22-4-1.8-6.06l-.38-1.54-.18-.76-.09-.3-.31-1.06-.6-2.12c-.39-1.42-.77-2.84-1.15-4.25a163.39,163.39,0,0,1-3-17.45,8.5,8.5,0,0,1,.7-6.07,6,6,0,0,1,4.22-3.18,6.43,6.43,0,0,1,5.84,2.3v-1l.36-1.65a6.1,6.1,0,0,1,2.43-3.7l1.5-1.12c2.85-1.48,5.43-3.8,8.54-4.85l1.15.31.35-.27a5.57,5.57,0,0,1,3.21-1.58l1.41.15a14.31,14.31,0,0,1,4.51,1.52,5,5,0,0,1,1.72.31,7.1,7.1,0,0,1,4.65-.22,1,1,0,0,1,1.38.18.86.86,0,0,1,.19.49h0c.38-.18.49-.23.91-.46.15-.33.25-.52.25-.52.3-.88.3-.88.59-1.64a4.49,4.49,0,0,1,1.26-1c2.58-.57,2.58-.56,3.66-.38l.31.16c.4-.55.43-.59.55-.73a2.3,2.3,0,0,1,.44-.24c.6,0,.6,0,.81-.07a3.71,3.71,0,0,1,.45,0c.63.36.63.36.82.38a2.33,2.33,0,0,1,.31.2l.26.58-1.58.7.51.2-.71.14.65-.07-.42.38.59-.42a3.13,3.13,0,0,0-.3,1.3,1.32,1.32,0,0,0,0,.76l.34,0c-.32,1-.32,1-.67,2a3.51,3.51,0,0,1-.43.22.4.4,0,0,1,.18.48l-.15.51a.83.83,0,0,1,.08.12h.05l.27.44.06.09h0c.17.3.46.74,1.22,1.89a5.71,5.71,0,0,1-.31.85,2.37,2.37,0,0,1,.29-.25c.2-.16.75,0,.81-.1a45.15,45.15,0,0,0,2.75-6.58.84.84,0,0,1,1.67-.11,13.44,13.44,0,0,1,1.6,7.26,15.72,15.72,0,0,1-.66,3.74,18.48,18.48,0,0,1-.67,1.84c-.22.61-.47,1.22-.75,1.81-.26,1.24-.48,2.49-.69,3.75l.27-.2-.4,1s0,.07,0,.11l1-.81c.1-.17.19-.35.28-.52a17.2,17.2,0,0,1,1.19-4.2c.5-1.36,1.28-2.7,1.82-4.05a33.2,33.2,0,0,1,2.4-4,.76.76,0,0,1,.86-.54.64.64,0,0,1,.6.71,18.61,18.61,0,0,1-.5,6.89,14.75,14.75,0,0,1-3.15,6.53,4.3,4.3,0,0,1-.83,2.41v0l.78-.6c-.16.65-.81,1-1.06,1.66l1.1-.33c-.48,3.18-.05,6.52-1.2,9.67a2.14,2.14,0,0,1-.06.35,16,16,0,0,1,1.26,1.74c.09.15.17.31.25.46s0,.07.06.13l.08.36c.06.24.11.49.16.73.18,1,.46,2,.64,3l-.18-2.16-.06-2.11c.39,1.48.79,2.95,1.18,4.45a45.3,45.3,0,0,1,.93,4.72c.83,4.42,1.35,9.23,1.81,13.59.1,1.1.16,2.18.2,3.22s.14,2,.16,3a25.71,25.71,0,0,1-.28,5,201.08,201.08,0,0,0,11,24.89A184.89,184.89,0,0,0,627,1077a2.87,2.87,0,0,1,.81,1.84c-.15.24-.71-.11-1.29-.86-2.16-2.48-4.05-5.19-6-7.84-1-1.31-1.91-2.71-2.83-4.09l-2.75-4.16c-.88-1.41-1.71-2.86-2.56-4.29s-1.74-2.85-2.51-4.33l-2.34-4.43-1.17-2.22-1.06-2.26a159.9,159.9,0,0,0,15.54,30.34c.85,1.21,1.67,2.45,2.61,3.61s1.69,2.4,2.47,3.64l1.63,2.25c.57.73,1.14,1.45,1.72,2.17l3.42,4.33c1.17,1.4,2.39,2.77,3.58,4.16s2.37,2.79,3.66,4.1l3.81,4c1.25,1.35,2.65,2.58,4,3.88s2.69,2.6,4.13,3.82l4.34,3.71c1.23,1.08,2.51,2.06,3.77,3l3.73,2.91c2.49,1.9,5,3.65,7.51,5.47s5.12,3.41,7.71,5.15,5.37,3.32,8.18,5c8,4.64,15.81,8.64,23.72,12.48s16,7.28,24.46,10.79c2.28.84,4.28,2,4.41,2.51s-1.66.28-4-.55c-9-3.24-17.91-6.83-26.59-10.84a279.32,279.32,0,0,1-25.31-13.51A216.21,216.21,0,0,1,660,1120.27a182.29,182.29,0,0,1-21.48-20.09c-1.49-1.53-2.82-3.19-4.2-4.78s-2.77-3.16-4-4.83a.55.55,0,0,1-.14.26c-.27.24-.76.14-1.4-.2.74.94,1.44,1.91,2.21,2.82l2.31,2.77c1.53,1.85,3,3.75,4.67,5.53,9.76,9.29,20.19,17.8,31.49,26.76,7.81,6.1,15,11.6,22.7,16.82a300.33,300.33,0,0,0,31.94,15,2.94,2.94,0,0,1,1,.53c.12.15-.15.14-.6,0-1.94-.67-3.86-1.4-5.8-2.11l-2.92-1.08c-1-.37-1.93-.78-2.9-1.18l-5.81-2.41-5.76-2.63c1,.9,1.57,1.64,1.27,2s-1.41.27-3-.19l5.15,2.67c1.06.58,1.84,1.13,1.71,1.32s-1.07,0-2.08-.56c-3.53-1.82-7.08-3.56-10.51-5.54-1.72-1-3.47-1.9-5.17-2.9l-5.07-3.06a248.34,248.34,0,0,1-23.9-15.38,6.39,6.39,0,0,1,1.46,2.67h0l3.58,2.6a364.81,364.81,0,0,0,73.9,35.72c.51.18.91.41.89.5s-.44,0-.9-.14c-3.94-1.45-7.91-2.81-11.79-4.38-1.94-.78-3.91-1.47-5.83-2.3l-5.77-2.42,0,0c.28.19.3.32-.07.24a4.58,4.58,0,0,1-1.21-.51c-.32-.21-.25-.3.07-.24a377.79,377.79,0,0,1-41.16-21,328,328,0,0,0,37.22,20.56c1.46.51,2.89,1.09,4.4,1.57a2.86,2.86,0,0,1,1,.57c.08.12-.25.09-.66,0l-1.24-.42c2.46,1.08,4.2,2.28,4,2.74s-2.65-.07-5.24-1.17c-6.9-3-13.74-6.09-20.35-9.64l-2.19-1.06-2.3-.91a285,285,0,0,0,31.27,15.64c.92.38,1.65.84,1.6,1s-.85,0-1.78-.36a265,265,0,0,1-28.59-12,250.42,250.42,0,0,1-27.34-15.48c-3.15-1.53-6.22-3.21-9.39-4.82s-6.22-3.47-9.37-5.27c.68.59,1.42,1.13,2.14,1.69,2.32,1.74,4.58,3.47,6.9,5s4.66,3,7,4.51,4.69,2.72,7,4,4.71,2.48,7,3.72c9.44,4.77,19,9,29.08,13.39a2,2,0,0,1,.92.58c0,.12-.37,0-.88-.17-9.93-4.23-19.09-8-28.72-13l-5.89-3.1c-1.93-1.05-3.81-2.15-5.69-3.2l-2.82-1.57c-.93-.53-1.84-1.1-2.75-1.64l-5.49-3.22,5.33,3.56c.89.58,1.76,1.18,2.66,1.73l2.72,1.64c1.81,1.07,3.61,2.16,5.42,3.2l5.51,3,2.75,1.48,2.8,1.39,5.58,2.8,5.68,2.64,2.83,1.34,2.88,1.27a7.59,7.59,0,0,1,1.71.92.76.76,0,0,1,.43.06c2,.65,4.15,1.48,6.37,2.24a3.13,3.13,0,0,1,1.09.59C705.7,1166.54,705.41,1166.52,704.93,1166.37ZM581.24,974.8l.19-.15-.32.49-1.33.73Zm-5.06-8.34h0l.78-.38ZM608.61,1055c-1.73-3.67-3.57-7.27-4.93-11.06-.7-1.88-1.47-3.73-2-5.65s-1.14-3.84-1.67-5.76c.75,1.79,1.49,3.57,2.24,5.35.92,2.88,2,5.7,3,8.58S607.49,1052.08,608.61,1055Zm-22.15-85.77a13.78,13.78,0,0,1-2.55,1.88,3.62,3.62,0,0,1,.16,1.5c-.16,1.38-.21,2.74-.44,4.08.47-.2.43.12.49.28l.13.49c.31-1.43.59-2.86,1-4.31A30.19,30.19,0,0,1,586.46,969.18Zm-1.39-9.77.19-.11.72.3Zm-1.22-.48-.11.19C583.47,959,583.57,959,583.85,958.93Zm-1.05,1.81a1.55,1.55,0,0,0,.41-.25Zm-21.73.56,3.65.94-3.5-1Z"/><path d="M596.56,1107.85l-.49-.26c.15-.29.49-.39.92-.38-4.81-1.88-9.21,1.33-11.39,5a2,2,0,0,0-1.61,2.5,2.43,2.43,0,0,0,2.74,1.69,3.52,3.52,0,0,1,.89.22A20.58,20.58,0,0,0,595,1119l-1.68-.69a6.17,6.17,0,0,0,2.22.1l-.48-.58c2.78,1,5.63-.25,6.4-2.87a5.57,5.57,0,0,0-3.62-6.62Z"/><path d="M590,1102.26c1.62.36,3.2.81,4.79,1.28l.39.33-.71-1.78v.12c-.68,1.86-2.46,3-4.15,4l-.56.44a1.48,1.48,0,0,0-.25,1.12,1.78,1.78,0,0,0,1.92,1.44l1-.12c2.76.36,6.55-.55,6.84-4a6.09,6.09,0,0,0-.87-2.45,2.45,2.45,0,0,0-2.83-1.78,2.12,2.12,0,0,0-1.62,2.69l-.71-.08.34-.56c0,1.14-1,1.68-1.61,2.46l-1.12.64,1.67,2.56.5-.54-.24-.26a18.52,18.52,0,0,1,3-3l1.32-1.49a1.45,1.45,0,0,0-.72-1.8l-1-.39.46.26c-1.93-.16-3.87,0-5.79-.15a.55.55,0,0,0-.64.48A.59.59,0,0,0,590,1102.26Z"/><path d="M595.89,1100.12a1.37,1.37,0,0,0,1.08.13c0-.16.07-.24.09-.28l-.71-.33C595.84,1099.41,595.73,1099.73,595.89,1100.12Z"/><path d="M597.06,1100l.29.14-.24-.22,0,0Z"/><path d="M503.18,1139.32c-8.68,3.41-17.24,7.22-25.67,11.31-.28.13-.47.33-.42.44s.3.07.56-.06c8.45-4,17-7.82,25.65-11.22.29-.12.47-.32.45-.44S503.45,1139.21,503.18,1139.32Z"/><path d="M435.88,1163.6c.15-.18.08-.26-.15-.19a1.48,1.48,0,0,0-.65.44c-.12.16-.05.25.15.19A1.63,1.63,0,0,0,435.88,1163.6Z"/><path d="M433.31,1156.21a33.31,33.31,0,0,0,2.74-2.66,1.58,1.58,0,0,1,.52-.36c-.16-.09,0-.36.33-.69,7.05-6.67,15.22-13.06,23.29-19.4a1.12,1.12,0,0,1,.14-.61A6.73,6.73,0,0,1,463,1130l1-.52c3.89-2.23,7.76-4.46,11.7-6.55a16.11,16.11,0,0,1,2.44-2c3-2.57,6-5.16,9.16-7.63-.28,0-.49-.07-.58-.24-.15-.44.47-1.22,1.4-1.77l1.38-.87-4.16,2.13a3,3,0,0,1-.56.25c-1.47.88-2.93,1.8-4.39,2.78-6.39,4.24-12.35,8.75-18.06,13.35s-11.17,9.31-16.52,14.07a1.44,1.44,0,0,1-.68.42c-.16,0-.21-.11,0-.3,6.31-6.67,11.31-13.34,19.06-20.3,9.22-8.24,18.59-16.23,28.72-24,11.19-7,21.2-14.29,32.65-21.81q6.36-4.17,12.72-8c6.63-4.21,13.35-7.85,20.33-11.4,3.45-2.26,7.68-1.45,9.4,1.77a6.86,6.86,0,0,1-.06,6.28l.9-.35,1.55-.21a5.58,5.58,0,0,1,4.06,1.07l1.51,1c2.3,2.22,5.25,3.73,7.35,6.27l.15,1.2.36.23a5.61,5.61,0,0,1,2.64,2.43l.39,1.38a14.2,14.2,0,0,1,.26,4.81,4.78,4.78,0,0,1,.35,1.74,6.92,6.92,0,0,1,1.94,4.29,1,1,0,0,1,.34,1.36,1,1,0,0,1-.41.37h0a9.74,9.74,0,0,0,.79.69,4.92,4.92,0,0,1,.6,0l1.84-.06a4.9,4.9,0,0,1,1.48.81c1.58,2.21,1.58,2.21,1.83,3.3,0,.11,0,.23,0,.34.71.17.76.19,1,.25a2.56,2.56,0,0,1,.42.33c.22.56.22.56.39.73a4.2,4.2,0,0,1,.17.42c-.12.73-.12.73-.07.91a1.78,1.78,0,0,1-.08.37l-.5.47-1.33-1.23v.56l-.43-.62.33.59-.55-.25.66.4a3.78,3.78,0,0,0-1.46.2,1.51,1.51,0,0,0-.78.32,2.72,2.72,0,0,1,.15.31c-1.14.08-1.14.08-2.26.13a4.29,4.29,0,0,1-.38-.33.48.48,0,0,1-.43.37l-.58.05-.08.12v0l-.35.42-.07.09h0l-1.54,1.81a6.63,6.63,0,0,1-1,0l.36.19c.23.14.27.71.38.73a41,41,0,0,0,7.91.13.91.91,0,0,1,1.15.44.79.79,0,0,1-.39,1.1c-3.91,4.23-10,5.42-15.88,4.76-1.42.13-2.83.32-4.24.51l.28.2-1.18-.07-.12,0,1.14.67.64.1c3.23-.57,6.58,0,9.9.14a44.06,44.06,0,0,1,5.26.88.81.81,0,0,1,.9.63.67.67,0,0,1-.57.8c-4.82,2-10.8,2.91-16,1a4.77,4.77,0,0,1-2.87,0h0l.86.58c-.76,0-1.37-.49-2.1-.55l.63,1c-3.64.4-7.19,1.84-10.9,1.45a2.69,2.69,0,0,1-.4,0,18.25,18.25,0,0,1-1.67,1.62,5.19,5.19,0,0,1-.46.36l-.12.09-.22.11-.43.23c-.59.29-1.21.56-1.87.81l2.8-.58a26.06,26.06,0,0,1-5.64,2.62c-5.66,1.8-12.55,2.63-16.56,1.47-10.68,4.41-21.3,9.09-31.63,14.27a1.42,1.42,0,0,1-1.32.15c-.17-.19.07-.57.6-.84,7.17-4.2,14.7-8,22.33-11.59-6.75,2.24-13.47,4.69-20.12,7.61l-2.49,1.26a19,19,0,0,1-2.56,1,260.36,260.36,0,0,0-24.54,12.55c-7,4.14-12.93,7.92-19.65,12.36-9.44,6.24-17.91,12.08-27.49,17.91-1.24.82-2.6,1.3-3,1s.28-1.14,1.52-2c9.55-6.75,19.05-13.39,28.91-19.73a297.71,297.71,0,0,1,31.07-17.76c2.38-1.14,4.71-2.27,7.06-3.35a.85.85,0,0,1,0-1.3c-2.69,1.2-5.38,2.43-8.13,3.6-7,4.37-14,8.76-21.87,12.75-5.41,2.74-10.5,4.94-15.61,7.38-5.92,3.92-11.74,8-17.66,12a1.1,1.1,0,0,1-.64.29c-.14,0-.06-.17.17-.35,3.84-3.12,7.87-6.2,12-9.23-.86.18-1.48.11-1.67-.28s.12-1.07.77-1.82l-3,1.85c-.61.38-1.18.54-1.29.35s.27-.65.85-1q6-3.84,12.08-7.53c4.7-3.21,9.44-6.33,14.26-9.39a3.51,3.51,0,0,1-2.05-.2h0l-2.25,1.39c-13.09,9.52-26.63,18.89-40.41,28.23-.27.19-.53.28-.59.21s.11-.27.35-.43l12.4-8.5h0c-.2.06-.29,0-.15-.19a1.87,1.87,0,0,1,.65-.44c.23-.07.27,0,.15.19,7.65-5.3,15.22-10.6,22.63-16l-21.43,13.7-2.11,1.85a1.09,1.09,0,0,1-.64.29c-.1,0,0-.21.2-.38l.59-.51c-1.35.87-2.6,1.24-2.86.81s.69-1.57,2.07-2.51q5.44-3.93,11-7.65l1.16-.87,1.07-1c-5.92,3.63-11.8,7.31-17.57,11.1-.48.34-1,.52-1.08.38s.19-.54.67-.88c9.49-7.65,19.4-15,29.63-22.1l8.94-9.06-1.35.83a142.78,142.78,0,0,0-15.37,11.7c-4.78,4-9.43,8.09-14.64,12-.26.21-.52.3-.61.24s.05-.26.32-.45c5-3.91,9.37-7.91,14.31-12,4.08-3.37,8-6.52,11.74-9.82-8.25,5.72-15.58,12-23.41,18.09a2.82,2.82,0,0,1-1,.58s0,.14-.12.25c-.87.92-1.85,1.86-2.89,2.78a1.17,1.17,0,0,1-.65.35C433,1156.59,433.1,1156.42,433.31,1156.21Zm144.07-56.93.2.14-.6-.16-1.14-1Zm6.69-7.6h0l.65.6Zm-63.54,36a92.76,92.76,0,0,1,14.43-4.87l-3.33,1.54Zm64.28-25.34a13.34,13.34,0,0,1-2.77-1.75,4.69,4.69,0,0,1-1.49.68c-1.45.37-2.9.64-4.35.87.34.38,0,.44-.15.55l-.47.28c1.57-.18,3.16-.3,4.78-.39A31.69,31.69,0,0,1,584.81,1102.3Zm9.55-4.88.19.14,0,.79S594.45,1098,594.36,1097.42Zm0-1.33-.24,0C594.12,1095.77,594.22,1095.85,594.38,1096.09Zm-2.23-.31a1.76,1.76,0,0,0,.4.3Zm-8.61-20.21.48,3.78-.36-3.67Z"/><path d="M279.93,607l.45.67a2.9,2.9,0,0,1-1.52-.77,25.28,25.28,0,0,0,4.26,4.08,40,40,0,0,0,4.89,3,35,35,0,0,0,5,2.15,39.55,39.55,0,0,0,4.64,1.52c1.69,1.3,3.48,2,4,1.36s-.4-2.44-2.12-3.92a11.73,11.73,0,0,1-1-1.18,45.87,45.87,0,0,0-3.49-5c-1.34-1.64-2.82-3.39-4.44-5.16l1.74,2.45a22.56,22.56,0,0,0-2.95-2.91c.06.25.14.57.2.83a22.6,22.6,0,0,0-5.51-5,8.85,8.85,0,0,0-5.52-1.62c-3.06.46-3,4.31,0,7.92Z"/><path d="M284.35,616.82c-1.8-1.74-3.52-3.6-5.26-5.52l-.27-.59-.38,1.76.07-.09a8.77,8.77,0,0,1,4,.47,30.75,30.75,0,0,1,4.44,1.72L288,615a1.19,1.19,0,0,0,1.17-.21c.49-.54-.12-1.77-1.39-2.77-.48-.39-1-.75-1.45-1.11a33.73,33.73,0,0,0-2.9-2.42,20.62,20.62,0,0,0-3.33-2.11c-2.24-1.08-4.42-1.61-5.88-.67-.66.43-.5,1.58-.62,2.46-.47,1.13.63,2.91,2.44,4s3.63,1,4.1,0l.87.78-.86,0c.81-.65,2.55.13,3.95.36l1.93.84-.22-3-1.08-.28a2.93,2.93,0,0,1,.11.39c-2.07-.44-4-.92-6.19-1.57l-2.84-.46c-.84.13-1,1-.37,1.83l1,1.19-.41-.61c1.22,1,2.48,1.86,3.73,2.86s2.5,1.92,3.67,2.88a1.33,1.33,0,0,0,1.18.36C284.81,617.52,284.73,617.15,284.35,616.82Z"/><path d="M275.11,612.28a3.43,3.43,0,0,0-1.32-1.13l-.32.09.7.9C274.66,612.78,275,612.68,275.11,612.28Z"/><path d="M273.47,611.24l-.29-.39.16.39h.13Z"/><path d="M405.49,659.93c-.8-2.83-1.69-5.73-2.74-8.74-.27-.76-.52-1.51-.81-2.27l-.91-2.44c-.62-1.72-1.29-3.41-2-5.08-2.72-6.7-5.73-12.9-9-19.34l-5.2-10.23-1.42-2.8L382,606.08l-1.5-3.09-.79-1.66-.91-2c-1.11-2.51-2.09-4.87-3-7.24s-1.79-4.7-2.61-7.05q-2.47-7-4.46-14.11c-.35-1.27-.84-2.28-1.12-2.26s-.19,1,.15,2.22q2,7.14,4.44,14.18c1.65,4.73,3.42,9.35,5.61,14.33l.88,2,.84,1.76,1.5,3.11,1.45,3c.47,1,1,1.89,1.42,2.8l5.18,10.21c3.25,6.4,6.25,12.53,9,19.16,1.34,3.24,2.7,6.94,3.72,9.74,1,3,2,5.85,2.78,8.65.25.75.6,1.33.85,1.41S405.71,660.65,405.49,659.93Z"/><path d="M418.32,415.06c-.41.72-.23.81.4.22a11.66,11.66,0,0,0,1.77-2.24c.34-.62.15-.73-.4-.22A10.8,10.8,0,0,0,418.32,415.06Z"/><path d="M426,429.29a84.73,84.73,0,0,0-5.14,11.47,9.29,9.29,0,0,1-.9,1.87c.39-.08.29.83-.25,2.33-1.44,3.65-2.48,7.45-3.67,11.18-.51,1.89-.94,3.81-1.44,5.7-.23.94-.49,1.88-.7,2.84l-.54,2.88c-.34,1.92-.76,3.81-1,5.73s-.59,3.83-.74,5.78l-.29,2.89c-.1,1-.14,1.94-.21,2.91-.15,1.93-.2,3.89-.26,5.83a167.48,167.48,0,0,0,5.74,46.59,2.82,2.82,0,0,1,1.24,1.11c1.5,1.91,2.95,6,4,10.36l.67,3.34a164.48,164.48,0,0,0,6.09,19.47c.59,1.53,1.21,3.06,1.78,4.39l.47,1,.56,1.23,1.16,2.51c1.6,3.39,3.26,7,4.92,10.83A65.31,65.31,0,0,1,443.05,602,169.85,169.85,0,0,1,452,622.8c.61,1.77,1.24,3.56,1.82,5.35l.84,2.68c.28.9.56,1.78.84,2.78a112.13,112.13,0,0,1,2.79,12c.13-1.1.35-1.8.69-1.86.87.15,2,4,2.19,8.71.13,2.39.19,4.79.14,7.22a118.11,118.11,0,0,0-.84-20.46c-.14-1-.24-1.84-.32-2.64-.32-1.78-.68-3.55-1.05-5.3s-.75-3.27-1.13-4.91l-1.26-4.95-1.41-5a164.7,164.7,0,0,0-7.94-21.17c-3.07-6.71-6.47-12.91-9.49-18.15l-2.09-3.67c-.53-.9-1.14-2.05-1.73-3.18-1.18-2.29-2.34-4.72-3.45-7.18-2.23-4.94-4.23-10-6-15.18a200.92,200.92,0,0,1-8.22-31.36A150.49,150.49,0,0,1,414,484.66a5.14,5.14,0,0,1,.4-2.37c.26-.36.51-.23.5.55a107.71,107.71,0,0,0,2.2,19.61A166.65,166.65,0,0,0,422,520.94c1,3,2.1,6.07,3.2,9.12s2.36,6.1,3.63,9.2c2.55,6.17,5.39,12.5,8.56,18.94,1,1.92,1.93,3.79,2.92,5.6s2,3.56,3,5c.24.36.47.7.65.93.27.39.61.94.9,1.41l1.93,3c1.38,2.14,2.71,4.38,4.15,6.84s2.82,5,4.24,7.69,2.72,5.49,4,8.35a176.53,176.53,0,0,1,6.64,17.63c1,3,1.82,6,2.65,8.94l1.17,4.47c.4,1.61.81,3.28,1.17,5a110.93,110.93,0,0,1,2.64,21.36,108.89,108.89,0,0,1-1.92,23.18c-.39,2-.81,3.93-1.32,5.9-.27,1-.5,1.94-.8,3l-.95,3.09a92.65,92.65,0,0,1-4.78,11.88A91.17,91.17,0,0,1,448.77,722a96.8,96.8,0,0,1-18.1,14.64,104.44,104.44,0,0,1-39.94,14.65,80.36,80.36,0,0,1-20.79.42,71.69,71.69,0,0,1-10.32-1.89c-1.7-.46-3.38-.92-5.05-1.53l-1.24-.42-.63-.22-.77-.29c-1-.39-2-.78-3-1.22s-1.9-1-2.83-1.49-1.76-1.13-2.63-1.69a24.88,24.88,0,0,1-2.43-1.83l-1.16-.95c-.37-.33-.71-.67-1.06-1a44.91,44.91,0,0,1-6.94-8.61,70.69,70.69,0,0,1-7.93-18.23c-.61-2.05-1.12-4.22-1.55-6.21s-.88-4-1.31-6c-.86-4-1.69-8-2.62-12a76.45,76.45,0,0,0-3.25-11,34.6,34.6,0,0,0-4.84-8c-.49-.48-.9-1-1.4-1.4l-1-.82c-.22-.2-.52-.38-.76-.56a14.73,14.73,0,0,0-1.57-1,35.26,35.26,0,0,0-3.35-1.72l-1.78-.71c-.61-.22-1.27-.41-1.88-.61s-1.25-.38-1.92-.55-1.27-.33-2-.46c-1.42-.25-2.66-.56-4.16-.7l-2.14-.25-2.24-.16c-.57,0-1.12,0-1.63-.09s-1.07-.11-1.56-.2a9.53,9.53,0,0,1-2.5-.82c-1.46-.67-2.22-1.79-2-3.11.3-1.62,2-3.07,4.43-3.78l-1.17-.18-1.73-.54A10,10,0,0,1,279,651a6,6,0,0,1-1-.55,4.12,4.12,0,0,1-1.39-1.4l-.9-1.36a22.89,22.89,0,0,0-2.06-3.8,14.42,14.42,0,0,1-1.85-4.15l.66-1-.27-.36a4.58,4.58,0,0,1-1.42-3.26l.5-1.24a9.29,9.29,0,0,1,3.05-3.56,2.85,2.85,0,0,1,.81-1.4,4.24,4.24,0,0,1,.69-4.26c-.39-.57-.14-1.09.56-1.14a1.9,1.9,0,0,1,.76.11h0c-.18-.44-.23-.56-.49-1.09l-.73-.52c-1.27-.76-1.27-.76-2.37-1.44a7.35,7.35,0,0,1-1.31-1.78c-.44-2.86-.44-2.9,0-3.84a2.49,2.49,0,0,1,.3-.19c-.8-.77-.85-.84-1.06-1.06a3.4,3.4,0,0,1-.32-.62c.11-.59.11-.59,0-.88a1.84,1.84,0,0,1,.08-.45c.67-.37.67-.37.73-.54a1.4,1.4,0,0,1,.37-.16l1,.19c.86,2.07.87,2.08.87,2.08l.41-.35.11.79v-.68l.53.69-.58-.89a10.34,10.34,0,0,0,2.05,1.25,4.49,4.49,0,0,0,1.25.53,1.62,1.62,0,0,1,0-.33c1.54,1,1.54,1.08,3,2.14.1.2.18.38.25.55a1,1,0,0,1,.81.2l.79.52.2,0v0l.77.12H284c.53.08,1.3.21,3.33.68.45.34.87.68,1.25,1l-.31-.45c-.19-.3.2-.59.08-.72-.76-.73-1.55-1.46-2.37-2.17s-1.66-1.36-2.52-2c-1.73-1.29-3.51-2.73-5.27-4-.68-.31-1.22-1-1.2-1.43s.63-.58,1.33-.25a27.45,27.45,0,0,1,6.35,2.17,39.55,39.55,0,0,1,6.33,3.65,65.44,65.44,0,0,1,11.33,9.84c.91.8,1.82,1.7,2.73,2.54s1.81,1.64,2.69,2.57l-.17-.39,1.29,1.53.15.15-.75-1.53-.66-.85c-1.05-1-2.07-2-3.07-3l-1.49-1.53-1.48-1.48c-1-1-2-2-2.95-3.07s-2-2-3.05-3-2.16-2.18-3.15-3.23-2-2.19-3.05-3.3c-.58-.47-.9-1.06-.71-1.34s.83-.09,1.4.38a74.39,74.39,0,0,1,11.81,9.15c.92.87,1.82,1.74,2.68,2.61s1.68,1.85,2.46,2.75,1.5,1.81,2.17,2.74,1.29,1.87,1.85,2.77a22.73,22.73,0,0,1,1.77,1.92,16.64,16.64,0,0,1,1.39,2l.06.07c-.17-.41-.32-.79-.48-1.2.86,1.08,1.11,1.91,1.84,2.91,0-.26.06-.57.08-.83,1.05,1.32,2.11,2.67,3.18,4s2.06,2.82,3,4.25a42,42,0,0,1,4.55,9.06c.1.23.19.45.27.67a31.59,31.59,0,0,1,2,3.59c.16.32.3.65.43,1l.11.3.36,1.09c.23.72.46,1.45.63,2.21s.37,1.52.53,2.26.25,1.46.38,2.2.2,1.49.3,2.24.17,1.51.21,2.27a58.77,58.77,0,0,0-.69-6.2c-.14-1-.43-2.14-.66-3.23-.11-.55-.27-1.09-.43-1.63l-.42-1.45.5,1.55a15,15,0,0,1,.5,1.74c.29,1.17.59,2.36.76,3.46s.38,2.22.5,3.35.22,2.26.29,3.38a113.84,113.84,0,0,1-.4,12.75,50.84,50.84,0,0,0,1.3,15.71c.33,1.27.65,2.54,1.07,3.77l.6,1.85.66,1.73a47.86,47.86,0,0,0,3.11,6.43,35.09,35.09,0,0,0,7.67,9.3,23.87,23.87,0,0,0,6.83,4l.65.15c.22,0,.45,0,.66.07.44,0,.86.12,1.29.1l1.26,0,1.61-.06a46.65,46.65,0,0,0,6.56-.81c1.09-.25,2.15-.43,3.22-.74l1.59-.43,1.58-.5c1-.31,2.08-.72,3.11-1.08s2-.82,3-1.25a63,63,0,0,0,11.25-6.52,54.9,54.9,0,0,0,9.24-8.59,48.68,48.68,0,0,0,6.63-9.81,41.09,41.09,0,0,0,3.54-10.06,31.27,31.27,0,0,0,.49-9.36l-.11-1.1L408.3,674c-.12-.83-.23-1.64-.39-2.46-.29-1.64-.72-3.3-1.17-5a8.74,8.74,0,0,1-.34-1.88,1.41,1.41,0,0,1,.24-1c.39-.18,1.06.73,1.48,2.17a55.7,55.7,0,0,1,1.78,7.38,42.23,42.23,0,0,1,.6,7A37.34,37.34,0,0,1,406.94,695c-4.67,10.11-14.07,19.82-25.72,25.49a60.9,60.9,0,0,0,24.13-19.7,47,47,0,0,0,6.46-12.69,36.82,36.82,0,0,0,1.51-6.42c.2-1.05.23-2.13.34-3.17l0-1.57,0-.78v-.86a52.17,52.17,0,0,0-.81-7.05c-.41-2.39-.82-4.75-1.22-7.1-.77-3-1.65-6.11-2.68-9.22-.54-1.55-1-3.12-1.64-4.69l-1.92-5.06q-2-5.09-4.26-9.92c-1.51-3.23-3.07-6.39-4.72-9.56-3.27-6.36-6.94-12.72-11.11-20.69l-.79-1.51-.86-1.68c-.62-1.24-1.18-2.41-1.71-3.56-1.07-2.31-2.07-4.56-3-6.82-1.91-4.52-3.66-9.06-5.3-13.68q-2.1-5.92-3.83-11.77c-1.13-3.92-2.2-7.81-3.1-11.72s-1.7-7.83-2.41-11.75c-.34-2-.63-3.94-.95-5.91s-.51-4-.73-6c-.4-4-.73-8-.91-12s-.19-8.15,0-12.28A157.83,157.83,0,0,1,364.59,478a155.47,155.47,0,0,1,4.64-17.8c1-2.85,2.09-5.67,3.15-8.48l.8-2.09.91-2,1.83-4a156.27,156.27,0,0,1,18-29.32,171,171,0,0,1,49.71-42.75c2.53-1.46,5.08-2.7,7.07-3.6a13.91,13.91,0,0,1,4-1.33c.91.07-2.53,2.28-7.47,5.25a176.81,176.81,0,0,0-50.47,46.35l-2.56,3.63c-.83,1.23-1.72,2.41-2.49,3.7-1.56,2.54-3.16,5.07-4.69,7.65l-4.24,8c-1.35,2.72-2.56,5.52-3.79,8.31l-.92,2.1-.8,2.16-1.6,4.32c-.51,1.46-1.1,2.88-1.53,4.36l-1.34,4.45c-.46,1.48-.79,3-1.19,4.48s-.77,3-1.07,4.52l-.94,4.54-.76,4.56a163.36,163.36,0,0,0-1.5,36.66c.42,6.06,1.12,12.09,2.12,18s2.24,11.88,3.73,17.72,3.22,11.62,5.17,17.36,4.12,11.42,6.65,17.2c.63,1.45,1.29,2.91,2,4.45l.57,1.19.51,1,1,2c1.31,2.55,2.58,5,3.83,7.38,2.48,4.73,4.78,9.07,6.94,13.46a207.88,207.88,0,0,1,9.78,23,.92.92,0,0,1,.4-.34c.62-.2,1.52.45,2.41,1.49-1.49-4.48-3.13-9.08-4.88-13.48s-3.64-8.78-5.61-13.17c-3.32-5.86-6.95-11.67-10.8-18.52l-1.45-2.6-.37-.66-.41-.79-.79-1.54c-1-2-1.94-4-2.83-5.9-1.76-3.89-3.37-7.79-4.84-11.76a170.61,170.61,0,0,1-10.83-50.55,145.35,145.35,0,0,1,.17-18.1c.19-3,.54-5.9.89-8.8.19-1.45.44-2.9.66-4.33s.47-2.87.76-4.29a144.53,144.53,0,0,1,10.42-32.64A156.35,156.35,0,0,1,402,421a174.14,174.14,0,0,1,27.6-30.57,9.54,9.54,0,0,1,2.1-1.59c.39-.16.05.32-.75,1.08a179.54,179.54,0,0,0-19.23,21,168,168,0,0,0-16.1,24.59c2.21-2.38,3.87-3.57,4.51-2.93s.15,3.08-1.14,6.47l3.37-5.65c.57-.93,1.1-1.89,1.7-2.8l1.83-2.72c1.52-2.22,3-3.8,3.3-3.5s-.53,2.24-1.93,4.36l-1.82,2.76c-.59.93-1.13,1.9-1.69,2.85-1.11,1.91-2.27,3.8-3.34,5.73-2,4-4.14,7.85-5.82,12a142.16,142.16,0,0,0-8.51,25.42c-4.16,21.17-3.42,42.81.69,63.53.28-3,.88-5.29,1.82-6.46h0c-.48-3.2-.89-6.4-1.21-9.59a146.61,146.61,0,0,1,.21-44.79,135.63,135.63,0,0,1,14.95-43l2.78-5,3-4.85c1-1.61,2-3.22,3.16-4.75l3.31-4.65a183.33,183.33,0,0,1,14.74-17.32,211.48,211.48,0,0,1,34.69-28.93,6.94,6.94,0,0,1,1.9-1.07,5.68,5.68,0,0,1-1.51,1.22,208.31,208.31,0,0,0-40.82,36l.06-.05c.57-.49.81-.47.37.22a12.29,12.29,0,0,1-1.87,2.16c-.65.57-.75.39-.39-.2a155.73,155.73,0,0,0-26.25,43.74c-1.67,3.93-2.79,8.08-4.1,12.14-.61,2.05-1.07,4.14-1.6,6.2s-.88,4.17-1.28,6.26a140.09,140.09,0,0,0-2.11,25.2,141.24,141.24,0,0,1,9-45.68,153.43,153.43,0,0,1,10.05-21c1.85-3.4,4-6.59,6.11-9.82,1-1.63,2.23-3.14,3.34-4.71s2.22-3.14,3.45-4.62c1.87-2.77,3.7-5.58,5.8-8.26a8.66,8.66,0,0,1,1.8-1.76c.28-.1,0,.52-.61,1.27l-1.69,2.24a44.81,44.81,0,0,1,5.15-5.18c1.45-1.16,2.47-1.71,2.76-1.39s-.36,1.64-1.47,3.32a61.09,61.09,0,0,1-4.52,6.23c-9.56,12.62-17.8,26.24-23.51,40.93l-1.67,4.83-1,5a153.36,153.36,0,0,1,15.74-32.75,200.93,200.93,0,0,1,22.11-28.71c1.39-1.54,2.75-2.69,3-2.52s-.7,1.57-2.07,3.12c-13.49,16.32-24.45,34.79-30.91,54.52-6.67,19.65-8.18,40.51-6.1,61A184.32,184.32,0,0,0,415.56,558c-.46-1.63-.92-3.28-1.39-4.93a281.47,281.47,0,0,1-7-30.82,178.05,178.05,0,0,1-2.52-30.17,129.1,129.1,0,0,1,1-15.06c.11-1.26.36-2.5.54-3.76s.38-2.51.68-3.75c.55-2.49,1.06-5,1.68-7.53a125.28,125.28,0,0,1,12.11-29.61,3.61,3.61,0,0,1,1.36-1.71c.22,0,0,.72-.6,1.7a122.09,122.09,0,0,0-11.48,28.75l-.51,1.8-.38,1.84-.76,3.67c-.56,2.42-.9,4.89-1.27,7.35-.62,4.94-1.06,9.93-1.19,15a147.05,147.05,0,0,0,6.77,47.75c-3.44-15.49-5.42-30.89-5-46.33.06-1.93.18-3.85.28-5.79s.28-3.85.54-5.77.45-3.85.81-5.75l.48-2.88c.19-.95.42-1.9.63-2.85.44-1.92.88-3.83,1.31-5.75l1.71-5.69c.52-1.93,1.26-3.78,2-5.67l1-2.83.54-1.42.62-1.38a14.84,14.84,0,0,1,1.79-3.29,1.54,1.54,0,0,1,.11-.85,57.08,57.08,0,0,1,2.36-6l1.37-3.09c.49-1,1-2,1.57-3.07a6.64,6.64,0,0,1,1.44-2C426.5,427.83,426.37,428.39,426,429.29ZM297.49,630.56l-.13-.25.57.64.52,1.43Zm-13.67-2.86h0l-.34-.87Zm115,82a60.3,60.3,0,0,1-19.34,12.55,56.58,56.58,0,0,1-22.79,4.38A48.71,48.71,0,0,0,368,725.3,66.53,66.53,0,0,0,398.82,709.71ZM290.9,622a20.5,20.5,0,0,1,2.06,3.5,15.59,15.59,0,0,1,2.31,1.22l3,2.11c1,.7,1.91,1.38,2.82,2.17-.09-.47.35-.11.6,0l.75.44c-1.9-1.72-3.88-3.26-5.89-5C294.69,625,292.62,623.56,290.9,622Zm-15.76-6.55-.14-.26.61-.47Zm-1,.84.29.24C274.26,616.71,274.19,616.57,274.16,616.27Zm2.64,2.15a2.81,2.81,0,0,0-.3-.54Zm-3.88,19.64c.69-1,1.39-1.94,2.09-2.89-.72.9-1.44,1.81-2.15,2.75Z"/><path d="M522.21,497.18l-.41.3a.74.74,0,0,1,0-.87,6.07,6.07,0,0,0-1.82,5.6,10.44,10.44,0,0,0,2.93,5.24,1.82,1.82,0,0,0,1.89,2,2.36,2.36,0,0,0,2.45-1.78,2.94,2.94,0,0,1,.48-.66,17,17,0,0,0,4.42-5.13L531,503a4.55,4.55,0,0,0,.73-1.7l-.7.2a3.59,3.59,0,0,0-.61-5.85,6,6,0,0,0-7.32.68Z"/><path d="M514.76,500.8c.9-1.25,1.86-2.43,2.85-3.59l.44-.21h-1.9l.12,0c1.5,1.2,2,3.05,2.3,4.75l.25.61a1.61,1.61,0,0,0,1,.55,1.69,1.69,0,0,0,1.94-1.15c.06-.29.14-.59.23-.88,1.29-2.15,1.67-5.45-1.45-6.89a6.69,6.69,0,0,0-2.55-.14,2.25,2.25,0,0,0-2.59,1.73,2,2,0,0,0,1.94,2.26l-.31.56-.41-.46c1.06.36,1.22,1.38,1.73,2.14l.21,1.13,3-.57-.33-.58c-.13,0-.32.12-.33.11a16.21,16.21,0,0,1-1.8-3.42l-.94-1.59a1.55,1.55,0,0,0-1.91,0l-.69.66.4-.29c-.79,1.56-1.31,3.24-2.13,4.82a.48.48,0,0,0,.22.7A.62.62,0,0,0,514.76,500.8Z"/><path d="M514.81,495.11c.25-.25.5-.48.48-.86a1.7,1.7,0,0,1-.22-.17l-.55.48C514.14,494.91,514.4,495.11,514.81,495.11Z"/><path d="M515.07,494.08l.22-.2L515,494s0,0,0,0Z"/><path d="M555.91,616.89c1,1.55,2.15,3,3.22,4.5s2.16,3,3.33,4.44c2.35,2.87,4.62,5.83,7.15,8.58,1.25,1.39,2.47,2.81,3.74,4.18l3.91,4c.66.67,1.3,1.36,2,2l2,1.94,4.1,3.9c.38.33.76.54.86.46s-.14-.41-.5-.71a213.72,213.72,0,0,1-15.68-16.06c-2.52-2.74-4.78-5.69-7.11-8.55-1.18-1.42-2.21-3-3.32-4.43L558,619c-.55-.73-1.08-1.48-1.58-2.25-.28-.41-.59-.68-.73-.65S555.66,616.5,555.91,616.89Z"/><path d="M638.08,696.61c-.37-.09-.41,0-.08.24a4.19,4.19,0,0,0,1.19.55c.31.07.35,0,.07-.25A4,4,0,0,0,638.08,696.61Z"/><path d="M631.66,702.42c-1.08-.38-2.13-.76-3.15-1.1s-2-.71-2.92-1a4.61,4.61,0,0,1-1-.47c0,.21-.41.16-1.19-.13-3.86-1.37-7.68-3.05-11.57-4.73-2-.82-3.84-1.8-5.78-2.71s-3.9-1.83-5.79-2.88l-5.76-3.06c-1.93-1-3.79-2.18-5.7-3.27-3.83-2.14-7.5-4.57-11.24-6.88a1.61,1.61,0,0,1-.89-.07,18.11,18.11,0,0,1-5.37-3.19l-1.46-1.24c-1.53-1.19-3-2.52-4.43-3.77s-2.93-2.52-4.37-3.81l-4.23-4c-1.41-1.32-2.82-2.64-4.15-4a44.61,44.61,0,0,1-4.24-3.41c-1.35-1-2.64-2.11-3.93-3.2s-2.59-2.21-3.89-3.31-2.55-2.29-3.81-3.46L533,639.14c.18.42.21.73.06.86-.45.19-1.84-.74-3-2.23l-1.87-2.18,2.51,3.27c.84,1.08,1.73,2.11,2.59,3.17.26.3.49.59.68.86l3,3.35c1,1.11,2.15,2.16,3.23,3.25A205.11,205.11,0,0,0,570.53,674a253.44,253.44,0,0,0,32.33,18.22,4.05,4.05,0,0,1,1.18.7c.16.19.06.28-.36.11-14.32-5.8-27.27-10.83-42.33-20.75a233.73,233.73,0,0,1-25.78-19.62A226.53,226.53,0,0,1,512,628.87a336.09,336.09,0,0,1-19.66-29.06c-1.45-2.53-3-5-4.41-7.62l-4.2-7.87c-1.33-2.68-2.61-5.42-3.93-8.19-.33-.69-.67-1.38-1-2.08l-.91-2.13-1.81-4.32c-.41-1-.82-2-1.22-2.94s-.74-2-1.11-3c-.71-2-1.43-4-2.14-6l-.53-1.49-.46-1.52-.92-3c-.61-2-1.22-4-1.8-6.06l-.38-1.54-.19-.76-.08-.29L467,540l-.6-2.12c-.38-1.42-.76-2.84-1.15-4.25a165.94,165.94,0,0,1-3-17.45,8.61,8.61,0,0,1,.7-6.07,6,6,0,0,1,4.23-3.18,6.44,6.44,0,0,1,5.84,2.31v-1l.37-1.66a6,6,0,0,1,2.43-3.7l1.5-1.12c2.84-1.47,5.43-3.79,8.53-4.85l1.16.31.34-.26a5.52,5.52,0,0,1,3.21-1.59l1.41.15a14.74,14.74,0,0,1,4.51,1.52,5,5,0,0,1,1.73.31,7,7,0,0,1,4.65-.21,1,1,0,0,1,1.38.17,1,1,0,0,1,.19.49h0c.37-.17.48-.23.91-.46a5.18,5.18,0,0,1,.25-.52c.3-.88.3-.88.59-1.64a4.59,4.59,0,0,1,1.25-1c2.58-.57,2.58-.56,3.67-.38l.3.16a8.17,8.17,0,0,1,.56-.73,2.69,2.69,0,0,1,.44-.24c.59,0,.59,0,.81-.06a2.88,2.88,0,0,1,.45,0c.63.36.63.36.81.38a2.33,2.33,0,0,1,.31.2l.27.59-1.59.69.52.2-.72.14.65-.07-.42.38.6-.42a3.41,3.41,0,0,0-.31,1.3,1.45,1.45,0,0,0,0,.77,1.8,1.8,0,0,1,.35,0c-.33,1-.33,1-.67,2l-.44.21a.41.41,0,0,1,.19.48l-.15.52.08.11h0c.1.18.18.3.26.44l.07.09h0c.17.3.46.75,1.22,1.89a5,5,0,0,1-.32.85c.1-.08.19-.17.29-.24s.76,0,.81-.1a45.61,45.61,0,0,0,2.75-6.58.85.85,0,0,1,1.68-.11,13.42,13.42,0,0,1,1.6,7.25,15.25,15.25,0,0,1-.67,3.74,18.4,18.4,0,0,1-.66,1.84,19.13,19.13,0,0,1-.75,1.81q-.39,1.86-.69,3.75l.27-.19-.4,1a.43.43,0,0,0,0,.11l1-.81a5.21,5.21,0,0,0,.28-.52,17.65,17.65,0,0,1,1.19-4.2c.51-1.36,1.29-2.69,1.82-4a34.54,34.54,0,0,1,2.4-4,.75.75,0,0,1,.86-.53.62.62,0,0,1,.6.7,18.82,18.82,0,0,1-.49,6.89,14.71,14.71,0,0,1-3.16,6.53,4.18,4.18,0,0,1-.83,2.41v0l.79-.6c-.16.65-.82,1-1.06,1.66l1.1-.33c-.49,3.19-.06,6.52-1.2,9.67,0,.12,0,.24-.06.35a16.9,16.9,0,0,1,1.25,1.74c.09.16.18.31.26.47a.81.81,0,0,1,.06.13l.08.36c0,.24.1.48.16.72.17,1,.45,2,.64,3l-.18-2.17c0-.7,0-1.4-.07-2.11.4,1.48.79,3,1.19,4.45a45,45,0,0,1,.92,4.73c.83,4.41,1.35,9.22,1.82,13.59.09,1.09.16,2.17.2,3.21s.14,2,.16,3a26.46,26.46,0,0,1-.28,5A201.08,201.08,0,0,0,539,590a183,183,0,0,0,14.64,23.07,2.89,2.89,0,0,1,.81,1.84c-.14.24-.71-.11-1.29-.85-2.15-2.49-4-5.2-6-7.85-1-1.31-1.9-2.71-2.82-4.09L541.6,598c-.89-1.41-1.71-2.86-2.57-4.29s-1.74-2.84-2.5-4.33l-2.34-4.43L533,582.71,532,580.44a160.27,160.27,0,0,0,15.54,30.35c.85,1.2,1.68,2.44,2.61,3.61a42.17,42.17,0,0,1,2.47,3.63l1.63,2.25,1.72,2.17,3.42,4.33c1.18,1.41,2.39,2.78,3.58,4.16s2.38,2.79,3.67,4.1,2.53,2.66,3.81,4,2.65,2.58,4,3.88,2.68,2.6,4.12,3.82l4.34,3.71c1.24,1.08,2.52,2.06,3.78,3s2.5,2,3.73,2.92c2.48,1.89,5,3.65,7.5,5.46s5.12,3.42,7.72,5.16,5.36,3.31,8.18,5c8,4.64,15.8,8.65,23.71,12.49s16,7.27,24.47,10.78c2.28.85,4.28,2,4.4,2.52s-1.66.28-4-.56c-9.05-3.24-17.91-6.83-26.59-10.84a278.16,278.16,0,0,1-25.32-13.51,216.09,216.09,0,0,1-23.72-16.57,183.13,183.13,0,0,1-21.49-20.08c-1.49-1.54-2.81-3.2-4.2-4.79s-2.76-3.16-4-4.82a.5.5,0,0,1-.13.25c-.27.24-.77.15-1.4-.19.74.93,1.44,1.9,2.21,2.82l2.3,2.76c1.54,1.85,3,3.75,4.68,5.53,9.75,9.29,20.18,17.8,31.49,26.76,7.81,6.11,15,11.6,22.69,16.82a299.29,299.29,0,0,0,31.94,15,2.92,2.92,0,0,1,1,.53c.13.15-.14.14-.6,0-1.93-.66-3.85-1.39-5.8-2.1l-2.92-1.09c-1-.37-1.92-.78-2.89-1.18l-5.82-2.4L628,687.49c1,.91,1.57,1.64,1.28,2s-1.42.26-3-.2l5.16,2.68c1,.57,1.83,1.12,1.71,1.31s-1.08,0-2.09-.56c-3.52-1.82-7.08-3.56-10.5-5.53-1.73-1-3.47-1.9-5.17-2.91l-5.08-3a249,249,0,0,1-23.89-15.39,6.35,6.35,0,0,1,1.45,2.67h0l3.58,2.6a365.87,365.87,0,0,0,73.9,35.72c.51.18.91.4.89.49s-.44,0-.9-.14c-3.94-1.45-7.91-2.8-11.79-4.38-1.94-.77-3.91-1.47-5.83-2.3L642,698.09l0,0c.29.19.3.32-.07.24a4.49,4.49,0,0,1-1.2-.5c-.33-.22-.25-.31.06-.25a377.58,377.58,0,0,1-41.15-21,329.31,329.31,0,0,0,37.21,20.55c1.47.52,2.9,1.09,4.4,1.57a3,3,0,0,1,1,.57c.07.12-.25.1-.67-.05l-1.24-.42c2.46,1.08,4.21,2.28,4,2.75s-2.65-.07-5.23-1.17c-6.91-3-13.74-6.1-20.35-9.65l-2.2-1-2.29-.91a286.64,286.64,0,0,0,31.26,15.64c.93.37,1.66.83,1.61,1s-.85,0-1.78-.36a263.28,263.28,0,0,1-28.59-12,250.55,250.55,0,0,1-27.35-15.48c-3.15-1.52-6.22-3.21-9.39-4.82s-6.21-3.47-9.36-5.27c.68.59,1.41,1.13,2.13,1.69,2.33,1.74,4.58,3.48,6.91,5s4.65,3,6.95,4.5,4.69,2.72,7,4,4.71,2.49,7.05,3.72c9.43,4.77,18.95,9,29.07,13.4a1.93,1.93,0,0,1,.93.58c0,.11-.37,0-.89-.18-9.92-4.23-19.08-8-28.72-13l-5.89-3.1c-1.93-1.06-3.8-2.15-5.69-3.2l-2.82-1.58c-.93-.53-1.83-1.1-2.75-1.64l-5.48-3.22,5.32,3.57c.89.57,1.77,1.17,2.67,1.73l2.71,1.63c1.81,1.08,3.61,2.16,5.43,3.21l5.51,3,2.75,1.48,2.8,1.4,5.58,2.79,5.67,2.65,2.84,1.34,2.88,1.26a7.11,7.11,0,0,1,1.7.93c.06,0,.22,0,.44.05,2,.65,4.15,1.48,6.36,2.24a3.1,3.1,0,0,1,1.1.59C632.43,702.59,632.14,702.57,631.66,702.42ZM508,510.85l.2-.14-.32.49-1.33.73Zm-5-8.34h0l.77-.38ZM535.34,591c-1.73-3.67-3.57-7.27-4.93-11-.71-1.89-1.47-3.74-2-5.66s-1.15-3.83-1.67-5.75l2.23,5.34c.93,2.88,2,5.7,3,8.59S534.21,588.13,535.34,591Zm-22.16-85.77a13,13,0,0,1-2.54,1.88,4,4,0,0,1,.16,1.5c-.17,1.39-.22,2.74-.44,4.08.47-.2.42.12.49.28l.13.5c.3-1.44.59-2.87,1-4.31A28.82,28.82,0,0,1,513.18,505.23Zm-1.38-9.77.19-.11.72.3Zm-1.22-.48-.12.2C510.19,495.09,510.29,495,510.58,495Zm-1.06,1.81a2,2,0,0,0,.42-.24Zm-21.72.56,3.65.94-3.5-1Z"/><path d="M523.28,643.91l-.49-.27a1,1,0,0,1,.93-.38c-4.81-1.88-9.21,1.33-11.39,5a2,2,0,0,0-1.61,2.5,2.44,2.44,0,0,0,2.73,1.7,3.2,3.2,0,0,1,.9.21,20.75,20.75,0,0,0,7.34,2.38l-1.67-.69a6.1,6.1,0,0,0,2.21.09l-.47-.58a4.75,4.75,0,0,0,6.4-2.87,5.58,5.58,0,0,0-3.62-6.62Z"/><path d="M516.71,638.31c1.61.37,3.19.81,4.78,1.29l.4.33-.72-1.79,0,.13c-.69,1.86-2.47,3-4.16,4l-.56.45a1.45,1.45,0,0,0-.24,1.11,1.77,1.77,0,0,0,1.91,1.44l1-.11c2.77.36,6.56-.56,6.84-4a6,6,0,0,0-.87-2.45,2.44,2.44,0,0,0-2.82-1.78,2.13,2.13,0,0,0-1.63,2.69l-.7-.07.33-.57c0,1.14-1,1.68-1.61,2.46l-1.12.64,1.67,2.56.51-.53c-.09-.11-.25-.26-.24-.27a18.92,18.92,0,0,1,3-3l1.31-1.48a1.45,1.45,0,0,0-.71-1.8l-1-.4.46.26c-1.94-.15-3.87,0-5.8-.15a.55.55,0,0,0-.64.48A.6.6,0,0,0,516.71,638.31Z"/><path d="M522.62,636.17a1.34,1.34,0,0,0,1.07.13c0-.16.08-.23.09-.28l-.71-.32C522.56,635.46,522.46,635.79,522.62,636.17Z"/><path d="M523.78,636l.3.14a2.61,2.61,0,0,1-.24-.22l0,0Z"/><path d="M429.9,675.37c-8.67,3.42-17.23,7.23-25.66,11.31-.29.14-.48.33-.43.44s.31.08.57-.06c8.45-4,17-7.82,25.64-11.22.29-.12.48-.31.46-.44S430.18,675.26,429.9,675.37Z"/><path d="M362.6,699.66c.15-.19.09-.27-.15-.19a1.61,1.61,0,0,0-.65.43c-.12.16-.05.25.15.19A1.54,1.54,0,0,0,362.6,699.66Z"/><path d="M360,692.26a31.79,31.79,0,0,0,2.74-2.66,1.58,1.58,0,0,1,.52-.36c-.15-.09,0-.35.34-.69,7-6.67,15.21-13.06,23.29-19.39a1.07,1.07,0,0,1,.13-.61,6.78,6.78,0,0,1,2.68-2.52l1-.52c3.88-2.23,7.76-4.46,11.7-6.55a15.63,15.63,0,0,1,2.44-2c3-2.57,6-5.16,9.16-7.63a.59.59,0,0,1-.59-.24c-.15-.44.48-1.22,1.4-1.77l1.38-.87-4.15,2.13a4.65,4.65,0,0,1-.57.26q-2.19,1.31-4.39,2.77c-6.39,4.25-12.35,8.75-18.06,13.36s-11.17,9.31-16.52,14.06a1.55,1.55,0,0,1-.68.43c-.16,0-.2-.11,0-.3,6.3-6.68,11.31-13.35,19.05-20.3,9.23-8.25,18.59-16.23,28.73-24,11.18-7,21.19-14.29,32.64-21.81q6.36-4.17,12.73-7.94c6.63-4.22,13.34-7.85,20.32-11.41,3.45-2.26,7.69-1.44,9.41,1.77a6.88,6.88,0,0,1-.07,6.29l.9-.36,1.55-.21a5.58,5.58,0,0,1,4.06,1.08l1.51,1c2.3,2.22,5.25,3.73,7.35,6.27l.15,1.2.37.23a5.66,5.66,0,0,1,2.64,2.43l.39,1.38a14.2,14.2,0,0,1,.26,4.81,5,5,0,0,1,.35,1.74,7,7,0,0,1,1.93,4.29,1,1,0,0,1-.06,1.73h0a9.76,9.76,0,0,0,.79.68c.38,0,.61,0,.61,0,1-.05,1-.05,1.84-.06a4.75,4.75,0,0,1,1.48.8c1.58,2.21,1.58,2.22,1.82,3.3,0,.12,0,.23,0,.34l1,.25a2.56,2.56,0,0,1,.42.33c.22.56.22.56.39.74a2.51,2.51,0,0,1,.17.42c-.11.72-.11.72-.06.91a1.78,1.78,0,0,1-.08.36l-.5.47-1.34-1.23v.56l-.42-.61.32.58-.55-.25.67.4a3.78,3.78,0,0,0-1.46.2,1.72,1.72,0,0,0-.78.32,2.39,2.39,0,0,1,.15.32l-2.27.12a4,4,0,0,1-.38-.32.45.45,0,0,1-.42.36l-.58.06-.09.12,0,0-.36.42-.07.1h0l-1.54,1.81a5.55,5.55,0,0,1-1,0l.36.19c.24.14.27.71.38.73a41.14,41.14,0,0,0,7.92.13.92.92,0,0,1,1.15.44.79.79,0,0,1-.39,1.1c-3.91,4.23-10,5.42-15.88,4.76-1.42.14-2.83.32-4.25.51l.29.2-1.18-.07-.12,0,1.13.67.65.1c3.23-.57,6.57,0,9.9.15a42.73,42.73,0,0,1,5.26.87.83.83,0,0,1,.9.63.66.66,0,0,1-.58.8c-4.82,2-10.79,2.92-16,1a4.82,4.82,0,0,1-2.86-.06h-.05l.86.58c-.76,0-1.37-.48-2.1-.55l.64,1c-3.65.4-7.19,1.84-10.91,1.45a1.71,1.71,0,0,1-.39,0,21.41,21.41,0,0,1-1.67,1.63c-.15.12-.3.24-.46.35l-.13.09-.21.12-.44.22c-.59.29-1.21.56-1.87.81l2.81-.58a26.88,26.88,0,0,1-5.65,2.63c-5.66,1.79-12.54,2.62-16.55,1.46-10.69,4.42-21.3,9.09-31.63,14.27-.53.28-1.11.34-1.32.16s.07-.58.6-.85c7.17-4.2,14.69-8,22.32-11.59-6.74,2.24-13.46,4.69-20.12,7.61l-2.48,1.26a17.9,17.9,0,0,1-2.57,1,260.36,260.36,0,0,0-24.54,12.55c-6.94,4.14-12.93,7.93-19.65,12.36-9.43,6.25-17.9,12.08-27.48,17.91-1.24.82-2.6,1.3-3,1s.29-1.15,1.53-2c9.54-6.75,19-13.39,28.9-19.73a299.78,299.78,0,0,1,31.07-17.76c2.39-1.13,4.72-2.27,7.06-3.35a.68.68,0,0,1-.18-.2,1.14,1.14,0,0,1,.15-1.1c-2.68,1.2-5.38,2.43-8.12,3.61-7,4.36-14,8.75-21.87,12.74-5.41,2.75-10.5,4.94-15.61,7.38-5.93,3.92-11.75,8-17.67,12a1.18,1.18,0,0,1-.63.29c-.14,0-.06-.17.17-.36,3.84-3.12,7.87-6.2,12-9.22-.85.17-1.48.1-1.66-.29s.11-1.07.77-1.82l-3,1.85c-.62.38-1.19.55-1.29.36s.27-.66.84-1q6-3.84,12.09-7.53,7.05-4.81,14.25-9.39a3.62,3.62,0,0,1-2-.19h0l-2.26,1.39c-13.09,9.53-26.63,18.89-40.41,28.23-.26.19-.53.28-.58.21s.1-.27.35-.43l12.4-8.5h0c-.2.07-.3,0-.15-.18a1.81,1.81,0,0,1,.64-.45c.23-.07.28,0,.15.19q11.49-7.93,22.64-15.95l-21.44,13.7-2.1,1.86a1.19,1.19,0,0,1-.65.28c-.1,0,0-.21.2-.37l.6-.52c-1.35.87-2.61,1.24-2.87.82s.69-1.58,2.08-2.52q5.44-3.93,11-7.65l1.16-.87,1.07-1c-5.92,3.63-11.8,7.32-17.56,11.1-.49.34-1,.52-1.09.38s.19-.53.68-.88c9.49-7.65,19.39-15,29.62-22.1l8.95-9.06-1.36.84a141.6,141.6,0,0,0-15.36,11.69c-4.78,4-9.43,8.09-14.65,12-.25.21-.52.3-.61.25s.05-.26.32-.46c5-3.91,9.38-7.9,14.32-12,4.08-3.37,8-6.52,11.73-9.81-8.24,5.71-15.58,12-23.4,18.09a2.93,2.93,0,0,1-1,.57c0,.06,0,.15-.13.25-.86.92-1.85,1.86-2.88,2.79a1.23,1.23,0,0,1-.66.34C359.75,692.65,359.83,692.48,360,692.26ZM504.1,635.33l.21.14-.6-.16-1.15-1Zm6.7-7.6h0l.66.61Zm-63.54,36a91,91,0,0,1,14.43-4.87l-3.33,1.53Zm64.28-25.34a13.45,13.45,0,0,1-2.78-1.76,4.31,4.31,0,0,1-1.49.68c-1.45.37-2.9.64-4.35.87.35.39,0,.44-.14.55l-.47.28c1.56-.17,3.15-.3,4.78-.39A30.09,30.09,0,0,1,511.54,638.36Zm9.55-4.88.18.13,0,.79Zm0-1.33-.25,0C520.85,631.82,521,631.9,521.11,632.15Zm-2.24-.32a1.58,1.58,0,0,0,.41.3Zm-8.6-20.21.47,3.79-.35-3.68Z"/><path d="M522.21,497.18l-.41.3a.74.74,0,0,1,0-.87,6.07,6.07,0,0,0-1.82,5.6,10.44,10.44,0,0,0,2.93,5.24,1.82,1.82,0,0,0,1.89,2,2.36,2.36,0,0,0,2.45-1.78,2.94,2.94,0,0,1,.48-.66,17,17,0,0,0,4.42-5.13L531,503a4.55,4.55,0,0,0,.73-1.7l-.7.2a3.59,3.59,0,0,0-.61-5.85,6,6,0,0,0-7.32.68Z"/><path d="M514.76,500.8c.9-1.25,1.86-2.43,2.85-3.59l.44-.21h-1.9l.12,0c1.5,1.2,2,3.05,2.3,4.75l.25.61a1.61,1.61,0,0,0,1,.55,1.69,1.69,0,0,0,1.94-1.15c.06-.29.14-.59.23-.88,1.29-2.15,1.67-5.45-1.45-6.89a6.69,6.69,0,0,0-2.55-.14,2.25,2.25,0,0,0-2.59,1.73,2,2,0,0,0,1.94,2.26l-.31.56-.41-.46c1.06.36,1.22,1.38,1.73,2.14l.21,1.13,3-.57-.33-.58c-.13,0-.32.12-.33.11a16.21,16.21,0,0,1-1.8-3.42l-.94-1.59a1.55,1.55,0,0,0-1.91,0l-.69.66.4-.29c-.79,1.56-1.31,3.24-2.13,4.82a.48.48,0,0,0,.22.7A.62.62,0,0,0,514.76,500.8Z"/><path d="M514.81,495.11c.25-.25.5-.48.48-.86a1.7,1.7,0,0,1-.22-.17l-.55.48C514.14,494.91,514.4,495.11,514.81,495.11Z"/><path d="M515.07,494.08l.22-.2L515,494s0,0,0,0Z"/><path d="M555.91,616.89c1,1.55,2.15,3,3.22,4.5s2.16,3,3.33,4.44c2.35,2.87,4.62,5.83,7.15,8.58,1.25,1.39,2.47,2.81,3.74,4.18l3.91,4c.66.67,1.3,1.36,2,2l2,1.94,4.1,3.9c.38.33.76.54.86.46s-.14-.41-.5-.71a213.72,213.72,0,0,1-15.68-16.06c-2.52-2.74-4.78-5.69-7.11-8.55-1.18-1.42-2.21-3-3.32-4.43L558,619c-.55-.73-1.08-1.48-1.58-2.25-.28-.41-.59-.68-.73-.65S555.66,616.5,555.91,616.89Z"/><path d="M638.08,696.61c-.37-.09-.41,0-.08.24a4.19,4.19,0,0,0,1.19.55c.31.07.35,0,.07-.25A4,4,0,0,0,638.08,696.61Z"/><path d="M631.66,702.42c-1.08-.38-2.13-.76-3.15-1.1s-2-.71-2.92-1a4.61,4.61,0,0,1-1-.47c0,.21-.41.16-1.19-.13-3.86-1.37-7.68-3.05-11.57-4.73-2-.82-3.84-1.8-5.78-2.71s-3.9-1.83-5.79-2.88l-5.76-3.06c-1.93-1-3.79-2.18-5.7-3.27-3.83-2.14-7.5-4.57-11.24-6.88a1.61,1.61,0,0,1-.89-.07,18.11,18.11,0,0,1-5.37-3.19l-1.46-1.24c-1.53-1.19-3-2.52-4.43-3.77s-2.93-2.52-4.37-3.81l-4.23-4c-1.41-1.32-2.82-2.64-4.15-4a44.61,44.61,0,0,1-4.24-3.41c-1.35-1-2.64-2.11-3.93-3.2s-2.59-2.21-3.89-3.31-2.55-2.29-3.81-3.46L533,639.14c.18.42.21.73.06.86-.45.19-1.84-.74-3-2.23l-1.87-2.18,2.51,3.27c.84,1.08,1.73,2.11,2.59,3.17.26.3.49.59.68.86l3,3.35c1,1.11,2.15,2.16,3.23,3.25A205.11,205.11,0,0,0,570.53,674a253.44,253.44,0,0,0,32.33,18.22,4.05,4.05,0,0,1,1.18.7c.16.19.06.28-.36.11-14.32-5.8-27.27-10.83-42.33-20.75a233.73,233.73,0,0,1-25.78-19.62A226.53,226.53,0,0,1,512,628.87a336.09,336.09,0,0,1-19.66-29.06c-1.45-2.53-3-5-4.41-7.62l-4.2-7.87c-1.33-2.68-2.61-5.42-3.93-8.19-.33-.69-.67-1.38-1-2.08l-.91-2.13-1.81-4.32c-.41-1-.82-2-1.22-2.94s-.74-2-1.11-3c-.71-2-1.43-4-2.14-6l-.53-1.49-.46-1.52-.92-3c-.61-2-1.22-4-1.8-6.06l-.38-1.54-.19-.76-.08-.29L467,540l-.6-2.12c-.38-1.42-.76-2.84-1.15-4.25a165.94,165.94,0,0,1-3-17.45,8.61,8.61,0,0,1,.7-6.07,6,6,0,0,1,4.23-3.18,6.44,6.44,0,0,1,5.84,2.31v-1l.37-1.66a6,6,0,0,1,2.43-3.7l1.5-1.12c2.84-1.47,5.43-3.79,8.53-4.85l1.16.31.34-.26a5.52,5.52,0,0,1,3.21-1.59l1.41.15a14.74,14.74,0,0,1,4.51,1.52,5,5,0,0,1,1.73.31,7,7,0,0,1,4.65-.21,1,1,0,0,1,1.38.17,1,1,0,0,1,.19.49h0c.37-.17.48-.23.91-.46a5.18,5.18,0,0,1,.25-.52c.3-.88.3-.88.59-1.64a4.59,4.59,0,0,1,1.25-1c2.58-.57,2.58-.56,3.67-.38l.3.16a8.17,8.17,0,0,1,.56-.73,2.69,2.69,0,0,1,.44-.24c.59,0,.59,0,.81-.06a2.88,2.88,0,0,1,.45,0c.63.36.63.36.81.38a2.33,2.33,0,0,1,.31.2l.27.59-1.59.69.52.2-.72.14.65-.07-.42.38.6-.42a3.41,3.41,0,0,0-.31,1.3,1.45,1.45,0,0,0,0,.77,1.8,1.8,0,0,1,.35,0c-.33,1-.33,1-.67,2l-.44.21a.41.41,0,0,1,.19.48l-.15.52.08.11h0c.1.18.18.3.26.44l.07.09h0c.17.3.46.75,1.22,1.89a5,5,0,0,1-.32.85c.1-.08.19-.17.29-.24s.76,0,.81-.1a45.61,45.61,0,0,0,2.75-6.58.85.85,0,0,1,1.68-.11,13.42,13.42,0,0,1,1.6,7.25,15.25,15.25,0,0,1-.67,3.74,18.4,18.4,0,0,1-.66,1.84,19.13,19.13,0,0,1-.75,1.81q-.39,1.86-.69,3.75l.27-.19-.4,1a.43.43,0,0,0,0,.11l1-.81a5.21,5.21,0,0,0,.28-.52,17.65,17.65,0,0,1,1.19-4.2c.51-1.36,1.29-2.69,1.82-4a34.54,34.54,0,0,1,2.4-4,.75.75,0,0,1,.86-.53.62.62,0,0,1,.6.7,18.82,18.82,0,0,1-.49,6.89,14.71,14.71,0,0,1-3.16,6.53,4.18,4.18,0,0,1-.83,2.41v0l.79-.6c-.16.65-.82,1-1.06,1.66l1.1-.33c-.49,3.19-.06,6.52-1.2,9.67,0,.12,0,.24-.06.35a16.9,16.9,0,0,1,1.25,1.74c.09.16.18.31.26.47a.81.81,0,0,1,.06.13l.08.36c0,.24.1.48.16.72.17,1,.45,2,.64,3l-.18-2.17c0-.7,0-1.4-.07-2.11.4,1.48.79,3,1.19,4.45a45,45,0,0,1,.92,4.73c.83,4.41,1.35,9.22,1.82,13.59.09,1.09.16,2.17.2,3.21s.14,2,.16,3a26.46,26.46,0,0,1-.28,5A201.08,201.08,0,0,0,539,590a183,183,0,0,0,14.64,23.07,2.89,2.89,0,0,1,.81,1.84c-.14.24-.71-.11-1.29-.85-2.15-2.49-4-5.2-6-7.85-1-1.31-1.9-2.71-2.82-4.09L541.6,598c-.89-1.41-1.71-2.86-2.57-4.29s-1.74-2.84-2.5-4.33l-2.34-4.43L533,582.71,532,580.44a160.27,160.27,0,0,0,15.54,30.35c.85,1.2,1.68,2.44,2.61,3.61a42.17,42.17,0,0,1,2.47,3.63l1.63,2.25,1.72,2.17,3.42,4.33c1.18,1.41,2.39,2.78,3.58,4.16s2.38,2.79,3.67,4.1,2.53,2.66,3.81,4,2.65,2.58,4,3.88,2.68,2.6,4.12,3.82l4.34,3.71c1.24,1.08,2.52,2.06,3.78,3s2.5,2,3.73,2.92c2.48,1.89,5,3.65,7.5,5.46s5.12,3.42,7.72,5.16,5.36,3.31,8.18,5c8,4.64,15.8,8.65,23.71,12.49s16,7.27,24.47,10.78c2.28.85,4.28,2,4.4,2.52s-1.66.28-4-.56c-9.05-3.24-17.91-6.83-26.59-10.84a278.16,278.16,0,0,1-25.32-13.51,216.09,216.09,0,0,1-23.72-16.57,183.13,183.13,0,0,1-21.49-20.08c-1.49-1.54-2.81-3.2-4.2-4.79s-2.76-3.16-4-4.82a.5.5,0,0,1-.13.25c-.27.24-.77.15-1.4-.19.74.93,1.44,1.9,2.21,2.82l2.3,2.76c1.54,1.85,3,3.75,4.68,5.53,9.75,9.29,20.18,17.8,31.49,26.76,7.81,6.11,15,11.6,22.69,16.82a299.29,299.29,0,0,0,31.94,15,2.92,2.92,0,0,1,1,.53c.13.15-.14.14-.6,0-1.93-.66-3.85-1.39-5.8-2.1l-2.92-1.09c-1-.37-1.92-.78-2.89-1.18l-5.82-2.4L628,687.49c1,.91,1.57,1.64,1.28,2s-1.42.26-3-.2l5.16,2.68c1,.57,1.83,1.12,1.71,1.31s-1.08,0-2.09-.56c-3.52-1.82-7.08-3.56-10.5-5.53-1.73-1-3.47-1.9-5.17-2.91l-5.08-3a249,249,0,0,1-23.89-15.39,6.35,6.35,0,0,1,1.45,2.67h0l3.58,2.6a365.87,365.87,0,0,0,73.9,35.72c.51.18.91.4.89.49s-.44,0-.9-.14c-3.94-1.45-7.91-2.8-11.79-4.38-1.94-.77-3.91-1.47-5.83-2.3L642,698.09l0,0c.29.19.3.32-.07.24a4.49,4.49,0,0,1-1.2-.5c-.33-.22-.25-.31.06-.25a377.58,377.58,0,0,1-41.15-21,329.31,329.31,0,0,0,37.21,20.55c1.47.52,2.9,1.09,4.4,1.57a3,3,0,0,1,1,.57c.07.12-.25.1-.67-.05l-1.24-.42c2.46,1.08,4.21,2.28,4,2.75s-2.65-.07-5.23-1.17c-6.91-3-13.74-6.1-20.35-9.65l-2.2-1-2.29-.91a286.64,286.64,0,0,0,31.26,15.64c.93.37,1.66.83,1.61,1s-.85,0-1.78-.36a263.28,263.28,0,0,1-28.59-12,250.55,250.55,0,0,1-27.35-15.48c-3.15-1.52-6.22-3.21-9.39-4.82s-6.21-3.47-9.36-5.27c.68.59,1.41,1.13,2.13,1.69,2.33,1.74,4.58,3.48,6.91,5s4.65,3,6.95,4.5,4.69,2.72,7,4,4.71,2.49,7.05,3.72c9.43,4.77,18.95,9,29.07,13.4a1.93,1.93,0,0,1,.93.58c0,.11-.37,0-.89-.18-9.92-4.23-19.08-8-28.72-13l-5.89-3.1c-1.93-1.06-3.8-2.15-5.69-3.2l-2.82-1.58c-.93-.53-1.83-1.1-2.75-1.64l-5.48-3.22,5.32,3.57c.89.57,1.77,1.17,2.67,1.73l2.71,1.63c1.81,1.08,3.61,2.16,5.43,3.21l5.51,3,2.75,1.48,2.8,1.4,5.58,2.79,5.67,2.65,2.84,1.34,2.88,1.26a7.11,7.11,0,0,1,1.7.93c.06,0,.22,0,.44.05,2,.65,4.15,1.48,6.36,2.24a3.1,3.1,0,0,1,1.1.59C632.43,702.59,632.14,702.57,631.66,702.42ZM508,510.85l.2-.14-.32.49-1.33.73Zm-5-8.34h0l.77-.38ZM535.34,591c-1.73-3.67-3.57-7.27-4.93-11-.71-1.89-1.47-3.74-2-5.66s-1.15-3.83-1.67-5.75l2.23,5.34c.93,2.88,2,5.7,3,8.59S534.21,588.13,535.34,591Zm-22.16-85.77a13,13,0,0,1-2.54,1.88,4,4,0,0,1,.16,1.5c-.17,1.39-.22,2.74-.44,4.08.47-.2.42.12.49.28l.13.5c.3-1.44.59-2.87,1-4.31A28.82,28.82,0,0,1,513.18,505.23Zm-1.38-9.77.19-.11.72.3Zm-1.22-.48-.12.2C510.19,495.09,510.29,495,510.58,495Zm-1.06,1.81a2,2,0,0,0,.42-.24Zm-21.72.56,3.65.94-3.5-1Z"/><path d="M523.28,643.91l-.49-.27a1,1,0,0,1,.93-.38c-4.81-1.88-9.21,1.33-11.39,5a2,2,0,0,0-1.61,2.5,2.44,2.44,0,0,0,2.73,1.7,3.2,3.2,0,0,1,.9.21,20.75,20.75,0,0,0,7.34,2.38l-1.67-.69a6.1,6.1,0,0,0,2.21.09l-.47-.58a4.75,4.75,0,0,0,6.4-2.87,5.58,5.58,0,0,0-3.62-6.62Z"/><path d="M516.71,638.31c1.61.37,3.19.81,4.78,1.29l.4.33-.72-1.79,0,.13c-.69,1.86-2.47,3-4.16,4l-.56.45a1.45,1.45,0,0,0-.24,1.11,1.77,1.77,0,0,0,1.91,1.44l1-.11c2.77.36,6.56-.56,6.84-4a6,6,0,0,0-.87-2.45,2.44,2.44,0,0,0-2.82-1.78,2.13,2.13,0,0,0-1.63,2.69l-.7-.07.33-.57c0,1.14-1,1.68-1.61,2.46l-1.12.64,1.67,2.56.51-.53c-.09-.11-.25-.26-.24-.27a18.92,18.92,0,0,1,3-3l1.31-1.48a1.45,1.45,0,0,0-.71-1.8l-1-.4.46.26c-1.94-.15-3.87,0-5.8-.15a.55.55,0,0,0-.64.48A.6.6,0,0,0,516.71,638.31Z"/><path d="M522.62,636.17a1.34,1.34,0,0,0,1.07.13c0-.16.08-.23.09-.28l-.71-.32C522.56,635.46,522.46,635.79,522.62,636.17Z"/><path d="M523.78,636l.3.14a2.61,2.61,0,0,1-.24-.22l0,0Z"/><path d="M429.9,675.37c-8.67,3.42-17.23,7.23-25.66,11.31-.29.14-.48.33-.43.44s.31.08.57-.06c8.45-4,17-7.82,25.64-11.22.29-.12.48-.31.46-.44S430.18,675.26,429.9,675.37Z"/><path d="M362.6,699.66c.15-.19.09-.27-.15-.19a1.61,1.61,0,0,0-.65.43c-.12.16-.05.25.15.19A1.54,1.54,0,0,0,362.6,699.66Z"/><path d="M360,692.26a31.79,31.79,0,0,0,2.74-2.66,1.58,1.58,0,0,1,.52-.36c-.15-.09,0-.35.34-.69,7-6.67,15.21-13.06,23.29-19.39a1.07,1.07,0,0,1,.13-.61,6.78,6.78,0,0,1,2.68-2.52l1-.52c3.88-2.23,7.76-4.46,11.7-6.55a15.63,15.63,0,0,1,2.44-2c3-2.57,6-5.16,9.16-7.63a.59.59,0,0,1-.59-.24c-.15-.44.48-1.22,1.4-1.77l1.38-.87-4.15,2.13a4.65,4.65,0,0,1-.57.26q-2.19,1.31-4.39,2.77c-6.39,4.25-12.35,8.75-18.06,13.36s-11.17,9.31-16.52,14.06a1.55,1.55,0,0,1-.68.43c-.16,0-.2-.11,0-.3,6.3-6.68,11.31-13.35,19.05-20.3,9.23-8.25,18.59-16.23,28.73-24,11.18-7,21.19-14.29,32.64-21.81q6.36-4.17,12.73-7.94c6.63-4.22,13.34-7.85,20.32-11.41,3.45-2.26,7.69-1.44,9.41,1.77a6.88,6.88,0,0,1-.07,6.29l.9-.36,1.55-.21a5.58,5.58,0,0,1,4.06,1.08l1.51,1c2.3,2.22,5.25,3.73,7.35,6.27l.15,1.2.37.23a5.66,5.66,0,0,1,2.64,2.43l.39,1.38a14.2,14.2,0,0,1,.26,4.81,5,5,0,0,1,.35,1.74,7,7,0,0,1,1.93,4.29,1,1,0,0,1-.06,1.73h0a9.76,9.76,0,0,0,.79.68c.38,0,.61,0,.61,0,1-.05,1-.05,1.84-.06a4.75,4.75,0,0,1,1.48.8c1.58,2.21,1.58,2.22,1.82,3.3,0,.12,0,.23,0,.34l1,.25a2.56,2.56,0,0,1,.42.33c.22.56.22.56.39.74a2.51,2.51,0,0,1,.17.42c-.11.72-.11.72-.06.91a1.78,1.78,0,0,1-.08.36l-.5.47-1.34-1.23v.56l-.42-.61.32.58-.55-.25.67.4a3.78,3.78,0,0,0-1.46.2,1.72,1.72,0,0,0-.78.32,2.39,2.39,0,0,1,.15.32l-2.27.12a4,4,0,0,1-.38-.32.45.45,0,0,1-.42.36l-.58.06-.09.12,0,0-.36.42-.07.1h0l-1.54,1.81a5.55,5.55,0,0,1-1,0l.36.19c.24.14.27.71.38.73a41.14,41.14,0,0,0,7.92.13.92.92,0,0,1,1.15.44.79.79,0,0,1-.39,1.1c-3.91,4.23-10,5.42-15.88,4.76-1.42.14-2.83.32-4.25.51l.29.2-1.18-.07-.12,0,1.13.67.65.1c3.23-.57,6.57,0,9.9.15a42.73,42.73,0,0,1,5.26.87.83.83,0,0,1,.9.63.66.66,0,0,1-.58.8c-4.82,2-10.79,2.92-16,1a4.82,4.82,0,0,1-2.86-.06h-.05l.86.58c-.76,0-1.37-.48-2.1-.55l.64,1c-3.65.4-7.19,1.84-10.91,1.45a1.71,1.71,0,0,1-.39,0,21.41,21.41,0,0,1-1.67,1.63c-.15.12-.3.24-.46.35l-.13.09-.21.12-.44.22c-.59.29-1.21.56-1.87.81l2.81-.58a26.88,26.88,0,0,1-5.65,2.63c-5.66,1.79-12.54,2.62-16.55,1.46-10.69,4.42-21.3,9.09-31.63,14.27-.53.28-1.11.34-1.32.16s.07-.58.6-.85c7.17-4.2,14.69-8,22.32-11.59-6.74,2.24-13.46,4.69-20.12,7.61l-2.48,1.26a17.9,17.9,0,0,1-2.57,1,260.36,260.36,0,0,0-24.54,12.55c-6.94,4.14-12.93,7.93-19.65,12.36-9.43,6.25-17.9,12.08-27.48,17.91-1.24.82-2.6,1.3-3,1s.29-1.15,1.53-2c9.54-6.75,19-13.39,28.9-19.73a299.78,299.78,0,0,1,31.07-17.76c2.39-1.13,4.72-2.27,7.06-3.35a.68.68,0,0,1-.18-.2,1.14,1.14,0,0,1,.15-1.1c-2.68,1.2-5.38,2.43-8.12,3.61-7,4.36-14,8.75-21.87,12.74-5.41,2.75-10.5,4.94-15.61,7.38-5.93,3.92-11.75,8-17.67,12a1.18,1.18,0,0,1-.63.29c-.14,0-.06-.17.17-.36,3.84-3.12,7.87-6.2,12-9.22-.85.17-1.48.1-1.66-.29s.11-1.07.77-1.82l-3,1.85c-.62.38-1.19.55-1.29.36s.27-.66.84-1q6-3.84,12.09-7.53,7.05-4.81,14.25-9.39a3.62,3.62,0,0,1-2-.19h0l-2.26,1.39c-13.09,9.53-26.63,18.89-40.41,28.23-.26.19-.53.28-.58.21s.1-.27.35-.43l12.4-8.5h0c-.2.07-.3,0-.15-.18a1.81,1.81,0,0,1,.64-.45c.23-.07.28,0,.15.19q11.49-7.93,22.64-15.95l-21.44,13.7-2.1,1.86a1.19,1.19,0,0,1-.65.28c-.1,0,0-.21.2-.37l.6-.52c-1.35.87-2.61,1.24-2.87.82s.69-1.58,2.08-2.52q5.44-3.93,11-7.65l1.16-.87,1.07-1c-5.92,3.63-11.8,7.32-17.56,11.1-.49.34-1,.52-1.09.38s.19-.53.68-.88c9.49-7.65,19.39-15,29.62-22.1l8.95-9.06-1.36.84a141.6,141.6,0,0,0-15.36,11.69c-4.78,4-9.43,8.09-14.65,12-.25.21-.52.3-.61.25s.05-.26.32-.46c5-3.91,9.38-7.9,14.32-12,4.08-3.37,8-6.52,11.73-9.81-8.24,5.71-15.58,12-23.4,18.09a2.93,2.93,0,0,1-1,.57c0,.06,0,.15-.13.25-.86.92-1.85,1.86-2.88,2.79a1.23,1.23,0,0,1-.66.34C359.75,692.65,359.83,692.48,360,692.26ZM504.1,635.33l.21.14-.6-.16-1.15-1Zm6.7-7.6h0l.66.61Zm-63.54,36a91,91,0,0,1,14.43-4.87l-3.33,1.53Zm64.28-25.34a13.45,13.45,0,0,1-2.78-1.76,4.31,4.31,0,0,1-1.49.68c-1.45.37-2.9.64-4.35.87.35.39,0,.44-.14.55l-.47.28c1.56-.17,3.15-.3,4.78-.39A30.09,30.09,0,0,1,511.54,638.36Zm9.55-4.88.18.13,0,.79Zm0-1.33-.25,0C520.85,631.82,521,631.9,521.11,632.15Zm-2.24-.32a1.58,1.58,0,0,0,.41.3Zm-8.6-20.21.47,3.79-.35-3.68Z"/><path d="M645.51,518.49l-.41.31a.75.75,0,0,1-.05-.88,6.12,6.12,0,0,0-1.82,5.61,10.48,10.48,0,0,0,2.93,5.24,1.81,1.81,0,0,0,1.89,2A2.36,2.36,0,0,0,650.5,529a2.73,2.73,0,0,1,.48-.66,16.92,16.92,0,0,0,4.42-5.14l-1.13,1.11a4.55,4.55,0,0,0,.73-1.7l-.69.2a3.59,3.59,0,0,0-.62-5.85,5.92,5.92,0,0,0-7.32.68Z"/><path d="M638.06,522.12c.9-1.26,1.86-2.43,2.85-3.59l.44-.22h-1.9l.12,0c1.51,1.21,1.95,3.06,2.3,4.76l.25.6a1.56,1.56,0,0,0,1,.55A1.68,1.68,0,0,0,645,523.1c.06-.3.14-.59.23-.89,1.29-2.14,1.67-5.45-1.44-6.88a6.55,6.55,0,0,0-2.56-.14,2.24,2.24,0,0,0-2.59,1.73,2,2,0,0,0,1.94,2.26l-.31.56-.41-.47c1.06.36,1.22,1.38,1.73,2.15l.21,1.13,3-.58-.33-.58c-.13,0-.32.12-.33.11a16.21,16.21,0,0,1-1.8-3.42l-.94-1.58a1.55,1.55,0,0,0-1.91,0l-.68.66.39-.3c-.78,1.57-1.31,3.25-2.13,4.83a.48.48,0,0,0,.22.7A.63.63,0,0,0,638.06,522.12Z"/><path d="M638.11,516.43c.25-.25.51-.49.48-.86l-.22-.17-.54.47C637.44,516.22,637.7,516.43,638.11,516.43Z"/><path d="M638.37,515.4l.23-.2-.29.12s0,0,0,0Z"/><path d="M679.21,638.2c1,1.56,2.15,3,3.22,4.5s2.16,3,3.33,4.45c2.35,2.87,4.62,5.83,7.15,8.58,1.25,1.39,2.47,2.81,3.74,4.18l3.91,4c.66.67,1.3,1.36,2,2l2.05,1.95,4.09,3.89c.38.33.76.54.86.46s-.14-.41-.5-.71a210,210,0,0,1-15.68-16.06c-2.52-2.74-4.78-5.68-7.11-8.54-1.18-1.43-2.21-3-3.32-4.43l-1.63-2.23c-.55-.74-1.08-1.49-1.58-2.26-.28-.4-.59-.67-.73-.65S679,637.82,679.21,638.2Z"/><path d="M761.38,717.92c-.37-.09-.4,0-.08.24a4.19,4.19,0,0,0,1.19.55c.31.07.35-.05.07-.24A4.31,4.31,0,0,0,761.38,717.92Z"/><path d="M755,723.74c-1.08-.39-2.13-.76-3.15-1.1s-2-.71-2.92-1a4.61,4.61,0,0,1-1-.47c.05.21-.41.16-1.19-.13-3.86-1.37-7.67-3-11.57-4.72-1.95-.83-3.84-1.8-5.78-2.71s-3.9-1.84-5.79-2.88l-5.76-3.07c-1.93-1-3.79-2.17-5.7-3.26-3.83-2.15-7.5-4.57-11.24-6.89a1.64,1.64,0,0,1-.88-.06,18.21,18.21,0,0,1-5.38-3.2L693.17,693c-1.53-1.19-2.95-2.51-4.43-3.76s-2.93-2.52-4.37-3.81l-4.23-4c-1.41-1.32-2.82-2.64-4.14-4.05a42.92,42.92,0,0,1-4.25-3.4c-1.35-1-2.64-2.11-3.93-3.21l-3.89-3.31c-1.32-1.09-2.55-2.28-3.81-3.46l-3.78-3.58c.18.42.22.73.06.85-.45.2-1.84-.74-3-2.22-.63-.73-1.24-1.46-1.86-2.19l2.5,3.27c.85,1.08,1.73,2.12,2.6,3.17.25.3.48.59.67.86l3,3.35c1,1.11,2.15,2.16,3.24,3.25a205.12,205.12,0,0,0,30.26,24.54,255.36,255.36,0,0,0,32.33,18.22,4,4,0,0,1,1.18.69c.16.2.06.28-.36.12-14.32-5.81-27.27-10.83-42.33-20.76A233.83,233.83,0,0,1,658.88,674a226.6,226.6,0,0,1-23.55-23.81,337.79,337.79,0,0,1-19.66-29.07c-1.45-2.52-3-5-4.41-7.61l-4.19-7.88c-1.34-2.68-2.62-5.42-3.94-8.18-.33-.69-.67-1.38-1-2.09s-.6-1.42-.91-2.13l-1.81-4.32c-.41-1-.82-2-1.22-2.94s-.74-2-1.11-3L595,577l-.53-1.49L594,574l-.92-3c-.61-2-1.22-4-1.8-6.07l-.38-1.53-.19-.77-.08-.29-.31-1.06-.61-2.12c-.38-1.43-.76-2.84-1.15-4.26a165.75,165.75,0,0,1-3-17.44,8.58,8.58,0,0,1,.71-6.08,6,6,0,0,1,4.22-3.18,6.44,6.44,0,0,1,5.84,2.31v-1l.36-1.65a6.08,6.08,0,0,1,2.43-3.71l1.5-1.12c2.84-1.47,5.43-3.79,8.53-4.84l1.16.3.34-.26a5.53,5.53,0,0,1,3.22-1.58l1.41.15a14.17,14.17,0,0,1,4.5,1.52,5.24,5.24,0,0,1,1.73.3,7,7,0,0,1,4.65-.21,1,1,0,0,1,1.38.18,1,1,0,0,1,.19.49h0a9.52,9.52,0,0,0,.91-.45,4.84,4.84,0,0,1,.25-.53c.3-.87.3-.87.59-1.63a4.37,4.37,0,0,1,1.25-1c2.58-.57,2.59-.56,3.67-.39l.3.16c.4-.54.44-.58.56-.72a2.3,2.3,0,0,1,.44-.24c.59,0,.59,0,.81-.07a3.82,3.82,0,0,1,.45,0c.63.36.63.36.81.38a1.82,1.82,0,0,1,.31.19l.27.59-1.58.69.51.2-.71.15.64-.07-.41.37.59-.42a3.49,3.49,0,0,0-.31,1.3,1.45,1.45,0,0,0,0,.77l.35,0c-.32,1-.32,1-.67,2a4.51,4.51,0,0,1-.44.22.39.39,0,0,1,.19.48l-.15.51.08.11h.05c.1.18.18.3.26.44l.07.09h0c.17.3.46.74,1.22,1.89a4.8,4.8,0,0,1-.32.85l.29-.25c.21-.16.76,0,.81-.1a44.07,44.07,0,0,0,2.75-6.58.8.8,0,0,1,.79-.79.79.79,0,0,1,.89.68,13.44,13.44,0,0,1,1.6,7.26,15.26,15.26,0,0,1-.67,3.73,18.57,18.57,0,0,1-.66,1.85c-.22.61-.47,1.21-.75,1.81-.26,1.24-.48,2.49-.69,3.75l.27-.2-.4,1a.36.36,0,0,0,0,.1l1-.8c.09-.18.19-.35.28-.52a17.17,17.17,0,0,1,1.18-4.2c.51-1.37,1.29-2.7,1.82-4.06a36.36,36.36,0,0,1,2.41-4,.75.75,0,0,1,.85-.53.62.62,0,0,1,.6.7,18.87,18.87,0,0,1-.49,6.9,14.82,14.82,0,0,1-3.16,6.53,4.16,4.16,0,0,1-.82,2.4v0l.78-.59c-.16.64-.81,1-1.06,1.65l1.1-.32c-.49,3.18,0,6.51-1.2,9.66,0,.12,0,.24-.06.36a15,15,0,0,1,1.25,1.74c.09.15.18.3.26.46s0,.07.06.13l.08.36c0,.24.1.48.16.73.17,1,.46,2,.64,3-.06-.73-.12-1.44-.18-2.16l-.06-2.12c.39,1.49.78,3,1.18,4.45s.69,3.09.93,4.73c.82,4.42,1.35,9.22,1.81,13.59.09,1.1.16,2.17.2,3.22s.14,2,.16,3a26.57,26.57,0,0,1-.28,5,201.75,201.75,0,0,0,11,24.89A181.78,181.78,0,0,0,677,634.39a2.92,2.92,0,0,1,.8,1.85c-.14.24-.71-.11-1.29-.86-2.15-2.49-4-5.2-6-7.84-1-1.32-1.9-2.71-2.82-4.1l-2.75-4.16c-.88-1.41-1.71-2.85-2.57-4.28s-1.74-2.85-2.5-4.33l-2.34-4.43L656.32,604l-1.07-2.27A159.15,159.15,0,0,0,670.8,632.1c.85,1.21,1.67,2.45,2.6,3.61a42.33,42.33,0,0,1,2.47,3.64l1.63,2.25c.58.72,1.15,1.45,1.72,2.17l3.42,4.32c1.18,1.41,2.39,2.78,3.58,4.17s2.38,2.79,3.67,4.09l3.81,4c1.25,1.35,2.65,2.57,4,3.87s2.68,2.6,4.13,3.83l4.33,3.7c1.24,1.08,2.52,2.07,3.78,3l3.73,2.91c2.49,1.9,5,3.65,7.5,5.46s5.12,3.42,7.72,5.16,5.36,3.32,8.18,5c8,4.64,15.81,8.64,23.71,12.48s16,7.27,24.47,10.79c2.28.84,4.28,2,4.4,2.51s-1.66.28-4-.56c-9-3.24-17.91-6.82-26.59-10.83a282.12,282.12,0,0,1-25.32-13.52A214.73,214.73,0,0,1,710,677.63a181.45,181.45,0,0,1-21.49-20.08c-1.49-1.53-2.81-3.2-4.19-4.78s-2.77-3.16-4-4.83a.65.65,0,0,1-.14.26c-.27.23-.77.14-1.4-.2.74.93,1.44,1.9,2.21,2.82l2.3,2.77c1.54,1.84,3,3.74,4.68,5.53,9.75,9.29,20.18,17.79,31.49,26.76,7.81,6.1,15,11.59,22.7,16.82a300.17,300.17,0,0,0,31.93,15,2.75,2.75,0,0,1,1,.53c.13.15-.14.14-.6,0-1.93-.67-3.85-1.4-5.8-2.11L765.79,715c-1-.38-1.92-.79-2.89-1.18l-5.81-2.41-5.77-2.63c1,.9,1.57,1.64,1.28,2s-1.41.27-3-.19l5.16,2.67c1.05.57,1.83,1.13,1.71,1.32s-1.08,0-2.09-.56c-3.52-1.82-7.07-3.56-10.5-5.54-1.73-1-3.47-1.9-5.17-2.9l-5.08-3.06a252.09,252.09,0,0,1-23.89-15.38,6.32,6.32,0,0,1,1.45,2.66h0l3.58,2.6a364.81,364.81,0,0,0,73.9,35.72c.51.18.91.4.89.5s-.44,0-.9-.15c-3.94-1.45-7.91-2.8-11.79-4.37-1.94-.78-3.91-1.48-5.83-2.31l-5.77-2.41,0,0c.28.18.29.31-.07.24a4.78,4.78,0,0,1-1.21-.51c-.33-.22-.25-.31.06-.24a377.64,377.64,0,0,1-41.15-21,330.23,330.23,0,0,0,37.22,20.56c1.46.51,2.89,1.08,4.39,1.56a3.16,3.16,0,0,1,1,.57c.08.13-.25.1-.67,0l-1.23-.42c2.45,1.09,4.2,2.29,4,2.75s-2.65-.07-5.23-1.17c-6.91-3-13.74-6.09-20.35-9.64l-2.2-1.06-2.29-.91a284.86,284.86,0,0,0,31.26,15.64c.93.37,1.66.84,1.61,1s-.85,0-1.78-.36a263.35,263.35,0,0,1-28.59-12,250.55,250.55,0,0,1-27.35-15.48c-3.15-1.52-6.22-3.2-9.39-4.82s-6.21-3.46-9.36-5.26c.68.58,1.42,1.12,2.14,1.68,2.32,1.74,4.57,3.48,6.9,5s4.65,3.05,7,4.51,4.69,2.72,7,4,4.71,2.48,7,3.71c9.43,4.78,19,9,29.07,13.4a1.93,1.93,0,0,1,.93.58c0,.11-.37.05-.89-.17-9.92-4.23-19.08-8.06-28.72-13l-5.89-3.1c-1.92-1-3.8-2.15-5.69-3.2L710,700.73c-.94-.53-1.84-1.09-2.76-1.63l-5.48-3.22,5.32,3.56c.89.58,1.77,1.18,2.67,1.73l2.71,1.63c1.82,1.08,3.61,2.17,5.43,3.21l5.51,3,2.75,1.49,2.8,1.39,5.58,2.8,5.67,2.64,2.84,1.34,2.88,1.26a7.89,7.89,0,0,1,1.7.93.86.86,0,0,1,.44,0c2,.66,4.15,1.48,6.36,2.25a3,3,0,0,1,1.1.59C755.73,723.91,755.44,723.89,755,723.74ZM631.27,532.16l.19-.14-.32.49-1.33.73Zm-5.06-8.34h0l.78-.39Zm32.43,88.5c-1.73-3.68-3.57-7.27-4.93-11.06-.7-1.88-1.47-3.73-2.05-5.65s-1.14-3.84-1.67-5.76c.74,1.79,1.49,3.57,2.23,5.35.93,2.87,2,5.69,3,8.58S657.51,609.45,658.64,612.32Zm-22.16-85.77a13.82,13.82,0,0,1-2.54,1.88,3.77,3.77,0,0,1,.16,1.5c-.16,1.38-.22,2.73-.44,4.08.47-.2.42.12.49.28l.13.49c.3-1.43.59-2.86,1-4.31A28.69,28.69,0,0,1,636.48,526.55Zm-1.38-9.77.19-.11.72.3Zm-1.22-.48-.12.19C633.49,516.4,633.6,516.34,633.88,516.3Zm-1.06,1.81a2.17,2.17,0,0,0,.42-.25Zm-21.72.56,3.65.94-3.5-1Z"/><path d="M646.58,665.22l-.49-.27a1,1,0,0,1,.93-.37c-4.81-1.88-9.21,1.33-11.39,5a2,2,0,0,0-1.61,2.49,2.43,2.43,0,0,0,2.73,1.7,3.59,3.59,0,0,1,.9.21,20.75,20.75,0,0,0,7.34,2.38l-1.67-.69a6.12,6.12,0,0,0,2.21.1l-.47-.58c2.78,1,5.63-.25,6.4-2.88a5.58,5.58,0,0,0-3.62-6.62Z"/><path d="M640,659.63c1.62.36,3.2.8,4.78,1.28l.4.33-.72-1.78,0,.12c-.69,1.86-2.47,3-4.15,4l-.57.45a1.48,1.48,0,0,0-.24,1.12,1.77,1.77,0,0,0,1.91,1.43l1-.11c2.77.36,6.56-.55,6.84-4a6,6,0,0,0-.87-2.46,2.44,2.44,0,0,0-2.82-1.77,2.13,2.13,0,0,0-1.63,2.68l-.7-.07.33-.57c0,1.14-1,1.69-1.61,2.47l-1.12.63,1.67,2.57.51-.54c-.09-.1-.25-.25-.24-.27a18.86,18.86,0,0,1,3-3l1.31-1.49a1.46,1.46,0,0,0-.71-1.8l-.95-.4.46.27c-1.94-.16-3.87,0-5.8-.15a.55.55,0,0,0-.64.48A.61.61,0,0,0,640,659.63Z"/><path d="M645.92,657.49a1.34,1.34,0,0,0,1.07.12l.09-.27-.71-.33C645.87,656.78,645.76,657.1,645.92,657.49Z"/><path d="M647.08,657.34l.3.14-.24-.22,0,0Z"/><path d="M553.21,696.68c-8.68,3.42-17.24,7.23-25.67,11.31-.29.14-.48.34-.43.45s.31.07.57-.06c8.45-4.06,17-7.82,25.64-11.22.29-.13.48-.32.46-.45S553.48,696.58,553.21,696.68Z"/><path d="M485.9,721c.15-.18.09-.26-.15-.19a1.54,1.54,0,0,0-.65.44c-.12.15,0,.25.16.18A1.57,1.57,0,0,0,485.9,721Z"/><path d="M483.34,713.58a33.16,33.16,0,0,0,2.73-2.67,1.7,1.7,0,0,1,.52-.35c-.15-.09,0-.36.34-.7,7-6.67,15.22-13.06,23.29-19.39a1.08,1.08,0,0,1,.13-.61,6.78,6.78,0,0,1,2.68-2.52l1-.51c3.88-2.23,7.76-4.47,11.7-6.55a15.12,15.12,0,0,1,2.44-2c3-2.57,6-5.15,9.16-7.62a.65.65,0,0,1-.59-.24c-.15-.45.48-1.23,1.4-1.77l1.38-.88-4.15,2.13a3.52,3.52,0,0,1-.57.26c-1.46.88-2.92,1.8-4.38,2.78-6.4,4.24-12.36,8.75-18.06,13.35s-11.17,9.31-16.53,14.06a1.41,1.41,0,0,1-.67.43c-.16,0-.21-.11,0-.3,6.3-6.68,11.31-13.34,19-20.3,9.23-8.25,18.59-16.23,28.73-24,11.18-7,21.19-14.29,32.64-21.82,4.25-2.77,8.48-5.43,12.73-7.94,6.63-4.22,13.35-7.85,20.33-11.4,3.44-2.26,7.68-1.45,9.4,1.76a6.88,6.88,0,0,1-.07,6.29l.9-.35,1.55-.21a5.61,5.61,0,0,1,4.07,1.07l1.5,1c2.3,2.23,5.25,3.73,7.35,6.28l.15,1.2.37.22a5.71,5.71,0,0,1,2.64,2.43l.39,1.39a14.15,14.15,0,0,1,.26,4.8,5.09,5.09,0,0,1,.35,1.74,7,7,0,0,1,1.93,4.3,1,1,0,0,1,.34,1.36,1,1,0,0,1-.4.37h0a9.76,9.76,0,0,0,.79.68c.38,0,.61,0,.61,0,1,0,1,0,1.84-.06a5,5,0,0,1,1.48.8c1.58,2.21,1.58,2.22,1.82,3.3a2,2,0,0,1,0,.35c.71.17.77.19,1,.25a2.84,2.84,0,0,1,.42.32c.22.56.22.56.39.74a2.51,2.51,0,0,1,.17.42c-.11.73-.11.73-.06.91a1.78,1.78,0,0,1-.08.36c-.32.3-.45.42-.5.48L645.8,656v.56l-.43-.62.32.58-.55-.25.67.4a4.26,4.26,0,0,0-1.46.2,1.58,1.58,0,0,0-.78.33,2,2,0,0,1,.15.31c-1.14.07-1.14.08-2.26.13a4.49,4.49,0,0,1-.39-.33.45.45,0,0,1-.42.36l-.58.06-.09.12,0,0-.36.41-.07.1h0L638,660.25a6.66,6.66,0,0,1-1,0l.36.19c.24.14.27.71.38.73a41.14,41.14,0,0,0,7.92.13.91.91,0,0,1,1.15.44.78.78,0,0,1-.39,1.09c-3.91,4.23-10,5.42-15.88,4.77-1.42.13-2.83.31-4.25.51l.29.19-1.18-.06h-.12l1.13.67.65.11c3.23-.57,6.57.05,9.9.14a46.89,46.89,0,0,1,5.26.87.84.84,0,0,1,.9.63.67.67,0,0,1-.58.81c-4.82,2-10.79,2.91-16,1a4.74,4.74,0,0,1-2.86-.05h0c.3.19.57.38.86.58-.76,0-1.36-.49-2.1-.56l.64.95c-3.65.41-7.19,1.84-10.9,1.46l-.4,0a21.28,21.28,0,0,1-1.67,1.62l-.46.36-.13.09-.21.11-.44.22a16.71,16.71,0,0,1-1.87.81l2.81-.58a25.91,25.91,0,0,1-5.65,2.63c-5.66,1.79-12.54,2.63-16.55,1.46-10.69,4.42-21.3,9.1-31.63,14.28-.53.27-1.11.33-1.32.15s.07-.57.6-.85c7.17-4.19,14.69-8,22.32-11.58-6.74,2.24-13.46,4.69-20.12,7.61l-2.48,1.26a19.5,19.5,0,0,1-2.56,1,261.53,261.53,0,0,0-24.54,12.55c-7,4.15-12.94,7.93-19.66,12.37-9.43,6.24-17.9,12.08-27.48,17.91-1.24.82-2.6,1.29-3,1s.29-1.14,1.53-2c9.54-6.76,19-13.39,28.9-19.74a301.56,301.56,0,0,1,31.07-17.75c2.39-1.14,4.72-2.28,7.06-3.36a1.07,1.07,0,0,1-.18-.19,1.16,1.16,0,0,1,.15-1.11c-2.68,1.21-5.38,2.43-8.12,3.61-7,4.37-14,8.76-21.87,12.75-5.41,2.74-10.5,4.94-15.61,7.37-5.93,3.92-11.75,8-17.67,12a1.18,1.18,0,0,1-.63.29c-.14,0-.06-.17.17-.35,3.84-3.12,7.87-6.2,12-9.23-.85.17-1.48.1-1.66-.29s.12-1.06.77-1.81l-3,1.85c-.62.37-1.19.54-1.29.35s.27-.66.84-1q6-3.84,12.09-7.52c4.7-3.21,9.44-6.33,14.26-9.39a3.55,3.55,0,0,1-2.06-.2h0L512.21,703c-13.1,9.53-26.64,18.89-40.42,28.24-.26.18-.52.28-.58.21s.1-.27.35-.44l12.4-8.49h0c-.2.06-.3,0-.15-.19a1.67,1.67,0,0,1,.64-.44c.23-.07.28,0,.16.18q11.48-7.93,22.63-16l-21.44,13.71-2.1,1.85a1.3,1.3,0,0,1-.64.29c-.11,0,0-.21.19-.38l.6-.51c-1.35.87-2.61,1.23-2.87.81s.7-1.58,2.08-2.52q5.44-3.93,11-7.64l1.16-.88,1.07-1c-5.92,3.62-11.79,7.31-17.56,11.09-.48.35-1,.52-1.09.39s.2-.54.68-.88c9.49-7.65,19.39-15,29.62-22.11l8.95-9-1.36.83a140.39,140.39,0,0,0-15.36,11.7c-4.78,4-9.43,8.09-14.65,12-.25.2-.52.29-.6.24s0-.26.31-.45c5-3.92,9.38-7.91,14.32-12,4.08-3.37,8-6.52,11.74-9.81-8.25,5.71-15.59,12-23.41,18.09a2.63,2.63,0,0,1-1,.57c0,.06,0,.15-.13.25-.86.92-1.85,1.87-2.88,2.79a1.19,1.19,0,0,1-.66.35C483.05,714,483.13,713.79,483.34,713.58ZM627.4,656.64l.21.14-.6-.15-1.15-1Zm6.7-7.59h0l.65.6Zm-63.54,36A92.06,92.06,0,0,1,585,680.14l-3.33,1.53Zm64.28-25.34a13.45,13.45,0,0,1-2.78-1.76,4.16,4.16,0,0,1-1.48.68c-1.46.37-2.91.65-4.36.88.35.38,0,.44-.14.55l-.47.27c1.57-.17,3.15-.3,4.78-.39A33.17,33.17,0,0,1,634.84,659.67Zm9.55-4.88.19.14,0,.78Zm0-1.33-.25,0C644.15,653.14,644.25,653.21,644.41,653.46Zm-2.24-.31a1.86,1.86,0,0,0,.41.3Zm-8.6-20.22.47,3.79-.35-3.67Z"/><path d="M503.92,130.44l.61,0a1.4,1.4,0,0,1-.93.79A12.3,12.3,0,0,0,511,128a19.46,19.46,0,0,0,4.58-6.23c1.34-.63,2.07-2,1.58-3s-2-1.41-3.45-.78a4.84,4.84,0,0,1-1.1.1,23.12,23.12,0,0,0-9.22.59l2.14-.05a9.06,9.06,0,0,0-2.69.89l.68.36c-3.53.26-6.75,3-7,6s2.51,5,5.88,4.64Z"/><path d="M512.5,133.14c-1.82.26-3.64.46-5.49.68l-.51-.14,1.25,1.41-.05-.11c.23-2.09,1.89-4,3.55-5.56l.53-.65a1.44,1.44,0,0,0,.05-1.18,1.8,1.8,0,0,0-2.45-.68l-1.15.54c-3.2.75-7.3,3.51-6.57,7,.18.8,1.06,1.32,1.68,1.94a2.6,2.6,0,0,0,3.53.41,2.41,2.41,0,0,0,1-3.29l.79-.22c-.08.23-.15.46-.22.69-.32-1.09.64-2.05,1.15-3.06l1.08-1.06L508.24,128l-.44.74a2.56,2.56,0,0,1,.33.16,32.6,32.6,0,0,1-2.53,4.23l-1,2a1.26,1.26,0,0,0,1.29,1.4l1.13,0-.57-.05c2.1-.71,4.12-1.66,6.21-2.23a.69.69,0,0,0,.57-.7A.55.55,0,0,0,512.5,133.14Z"/><path d="M506.78,137.61a1.64,1.64,0,0,0-1.17.36c0,.17,0,.26,0,.3h.85C507,138.26,507.06,137.91,506.78,137.61Z"/><path d="M505.59,138.27h-.35l.32.1s0-.05,0-.05Z"/><path d="M713.36,244.41a80.56,80.56,0,0,1,9.08,24.6,81.42,81.42,0,0,1,.86,26.31A65.39,65.39,0,0,1,713.72,322c-.68,1-1.32,2.1-2.06,3.1s-1.55,2-2.34,2.94a35,35,0,0,1-2.42,2.78c-.84.86-1.65,1.76-2.53,2.57a67.92,67.92,0,0,1-11.13,8.58,71.88,71.88,0,0,1-12.07,6,83.86,83.86,0,0,1-12.39,3.78,95.65,95.65,0,0,1-12.46,1.87,97.29,97.29,0,0,1-12.28.17,132.68,132.68,0,0,1-22.75-3.19c-7.19-1.61-14-3.6-20.43-5.64a10.81,10.81,0,0,0-3.34-.75c-.13.11,1.15.68,2.76,1.18,6.46,2.05,13.24,4.05,20.42,5.68a132.65,132.65,0,0,0,22.78,3.29c1,.07,2,.11,3,.12s2,.06,3,0l3.12-.06,3.12-.19a98,98,0,0,0,12.52-1.79,79.82,79.82,0,0,0,24.62-9.63,66.25,66.25,0,0,0,11.28-8.49c.9-.79,1.74-1.67,2.58-2.54a36.76,36.76,0,0,0,2.47-2.74,56.74,56.74,0,0,0,4.52-6,66.61,66.61,0,0,0,10-26.76,81.39,81.39,0,0,0-.61-26.52c-.33-2.16-.92-4.25-1.43-6.37s-1.26-4.19-1.92-6.27S718.3,253,717.37,251s-1.85-4-3-6c-.61-1.07-1.2-2-1.67-2.73a7,7,0,0,0-1.09-1.28c-.11,0,.06.38.42,1S712.79,243.43,713.36,244.41Z"/><path d="M382.67,284.31c1.18-.29,1.11-.41-.15-.31a23.49,23.49,0,0,0-4.12.79c-1,.28-.91.43.16.29C379.8,284.94,381.68,284.51,382.67,284.31Z"/><path d="M392.16,272.47l5.47-.87c1.8-.29,3.59-.44,5.33-.67s3.46-.46,5.13-.62l4.91-.45a28.84,28.84,0,0,1,3.54-.1c-.44-.23,1-.43,3.73-.51a172.72,172.72,0,0,1,20.42.52l5.16.5c.88.1,1.83.26,2.75.4l1.39.21,1.27.23c3.43.61,6.72,1.28,10.05,2,13.19,2.74,26.33,5.84,39.56,9.05s26.5,6.58,39.76,10.05,26.55,7,39.75,10.65a7.34,7.34,0,0,1,2.4.07,120.24,120.24,0,0,1,18.75,4.73l5.62,1.9c11.13,3.67,21.76,6.81,32,8.12,2.55.35,5,.52,7.54.63l1.85.05,1.8,0c1.19,0,2.38-.08,3.57-.16a57.51,57.51,0,0,0,7-1,52.74,52.74,0,0,0,6.64-1.83,47.14,47.14,0,0,0,10-6.37l.49-.43.44-.47.9-.92.81-1a6,6,0,0,0,.75-1c.42-.66.92-1.25,1.32-1.93s.76-1.39,1.13-2.08a30.36,30.36,0,0,0,2.74-9.7,45.31,45.31,0,0,0-3.29-22.15c.2.94.12,1.59-.1,1.65s-.36-.25-.61-.61a11.18,11.18,0,0,1-.92-1.46l-.5-1c-.2-.33-.41-.69-.61-1.07s-.4-.77-.6-1.19l-.68-1.18-.69-1.22-.73-1.08a22.24,22.24,0,0,0-1.51-2.06c.34.51.72,1,1.07,1.48s.63,1.07,1,1.59.62,1.18.94,1.76a15,15,0,0,1,.87,1.85c.6,1.23,1,2.61,1.51,3.92s.84,2.73,1.07,4.15a13.65,13.65,0,0,1,.39,2.25,39.74,39.74,0,0,1,.67,9.24,31.54,31.54,0,0,1-1.39,8.48,23.68,23.68,0,0,1-3.67,7.18c-.19.25-.38.5-.56.76s-.47.51-.7.77a19.41,19.41,0,0,1-1.5,1.51c-.52.49-1.12.94-1.68,1.42s-1.17.92-1.86,1.31c-5.13,3.41-12.11,5.64-19.42,6.36a69.79,69.79,0,0,1-11.52.13,107.56,107.56,0,0,1-12.39-1.67c-4.25-.82-8.59-1.85-13-3s-9-2.49-13.72-3.8c-18.79-5.22-37.41-10.21-56-14.85Q532,287.47,518,284.11t-27.87-6.5a30.75,30.75,0,0,1-4.16-1.13c-.69-.31-.51-.44.86-.17l34.52,6.9c11.28,2.31,22.47,4.6,33.83,7s22.89,5,34.88,7.9c6,1.42,12.11,3,18.36,4.54,6,1.55,12,3.05,17.75,4.18a94.18,94.18,0,0,0,19.24,2,55.67,55.67,0,0,0,8.24-.69,42.26,42.26,0,0,0,7.39-1.87,26.21,26.21,0,0,0,10.5-6.44c.14-.16.31-.3.44-.46l.38-.48c.12-.16.29-.31.38-.46s.16-.3.25-.44c.16-.3.41-.51.55-.83a6.78,6.78,0,0,1,.48-.93,1.76,1.76,0,0,0,.22-.5l.21-.52.24-.5c.08-.17.11-.39.18-.58.11-.4.26-.77.39-1.16s.17-.88.28-1.3a26.17,26.17,0,0,0,.51-5.93V285l-.08-.83c-.06-.55,0-1.1-.13-1.66-.19-1.12-.29-2.25-.59-3.37s-.58-2.23-.85-3.34c-.43-1.06-.72-2.18-1.22-3.16s-.94-2-1.4-2.91c-.26-.44-.54-.84-.79-1.27a10.13,10.13,0,0,0-.75-1.11,23.93,23.93,0,0,0-3.23-3.7,35.8,35.8,0,0,0-5-3.75,76.12,76.12,0,0,0-7.56-4.11c-3-1.4-6.3-2.86-9.9-4.38l-5.74-2.56c-1.68-.79-3.36-1.6-5.08-2.31s-3.44-1.45-5.17-2.19-3.49-1.37-5.28-2a170.31,170.31,0,0,0-22.3-6.51c-3.9-.89-7.9-1.61-12-2.35s-8.45-1.34-13.26-2.3l-1.84-.37L572,230.4l-1-.26-1.37-.33a4.86,4.86,0,0,1-.68-.35l-.69-.2-1.38-.41a23,23,0,0,1-9.54-5.72l-1-.9a12.79,12.79,0,0,1-.8-1.13,26,26,0,0,1-1.44-2.35c-.29-.89-.74-1.65-1.1-2.48s-.45-1.77-.68-2.65-.28-1.8-.39-2.71l.08-2.81c.08-.94.28-1.89.41-2.84a9.11,9.11,0,0,1,.33-1.42l.39-1.42.2-.71c0-.12.06-.24.1-.35l.18-.34.73-1.35,1.42-2.67.71-1.32a3.36,3.36,0,0,1,.85-1.24l.76-1.1.6-.81a54.7,54.7,0,0,1,5.21-5.8,53,53,0,0,1,6.07-4.89l1.71-1.08c.58-.35,1.21-.67,1.81-1l1.83-1c.62-.31,1.28-.55,1.92-.83a54.53,54.53,0,0,1,15.56-3.63c4.76-.55,9-1.06,11.74-2.33l.94-.47c.15-.08.31-.15.46-.24l.37-.27.71-.52c.22-.18.38-.4.57-.58a3.34,3.34,0,0,0,.5-.56c.15-.22.28-.43.42-.61a12.44,12.44,0,0,0,.77-1.24,25,25,0,0,0,2.56-5.8c.54-2,.39-3.87-.21-4.3l-.21-.1h.15l.56-.08h0a2,2,0,0,0-.41.12l0,0-.11,0-.23.08-.4.18-.24.11-.15.07h0l-.1,0a1.34,1.34,0,0,1-.55,0c-.57-.15-1.65-.64-3-1.16a48.3,48.3,0,0,0-5-1.6,69.59,69.59,0,0,0-12.7-2.08l-1.57-.08c-.51,0-.94,0-1.4,0-.9,0-1.82.09-2.71.14a38.5,38.5,0,0,0-5.32.85,50.37,50.37,0,0,0-10.47,3.65c-.87.45-1.73.82-2.59,1.31l-1.3.7-.07,0h0l0,0-.07.05-.54.38c-.35.26-.71.49-1.06.76l-2.12,1.54c-2.83,2.05-5.64,4.21-8.42,6.6-1.85,2.13-5,1.77-7.35-.94a7.66,7.66,0,0,1-1.76-5.73l-.61.43-1.16.39a4.6,4.6,0,0,1-3.55-.34l-1.54-.68c-2.56-1.6-5.52-2.31-8.18-4.08L526.7,157l-.39-.11a5.88,5.88,0,0,1-3.13-1.48l-.82-1.15a13.14,13.14,0,0,1-1.81-4.35,4.79,4.79,0,0,1-.87-1.51,6.71,6.71,0,0,1-3.16-3.37.92.92,0,0,1-.74-1.17,1.06,1.06,0,0,1,.3-.48h0a9.19,9.19,0,0,0-1-.36,5.32,5.32,0,0,1-.61.18l-1.8.76a5.38,5.38,0,0,1-1.73-.17c-2.28-1.43-2.3-1.43-2.89-2.35a2,2,0,0,1-.06-.34l-1.06.18a2.57,2.57,0,0,1-.54-.12c-.41-.43-.41-.43-.64-.52a2.25,2.25,0,0,1-.31-.32c-.11-.74-.11-.74-.23-.89a1.67,1.67,0,0,1,0-.38c.25-.43.34-.6.38-.68l1.77.58-.16-.54.63.41-.51-.42h.65l-.82-.09a5.41,5.41,0,0,0,1.48-.82,2.28,2.28,0,0,0,.72-.63,2.86,2.86,0,0,1-.24-.25c1.18-.54,1.19-.53,2.36-1a4.65,4.65,0,0,1,.49.17.54.54,0,0,1,.36-.51l.59-.27.07-.15,0,0,.27-.54,0-.12h0c.2-.36.49-.9,1.24-2.31a8.38,8.38,0,0,1,1.09-.33l-.43-.07c-.28,0-.44-.59-.56-.58a38.11,38.11,0,0,0-8.64,3,1.05,1.05,0,0,1-1.36.09.81.81,0,0,1,.12-1.23c3.14-5.92,10.15-9.55,16.91-10.47l4.84-1.59-.35-.13,1.38-.19.13,0-1.35-.41c-.25,0-.51,0-.75,0-3.71,1.33-7.62,1.69-11.5,2.75-2.08.58-4.15.69-6.25,1.14a.86.86,0,0,1-1.16-.25.83.83,0,0,1,.52-1c5.25-4,12.53-6.92,18.87-6.2a6.5,6.5,0,0,1,3.43-.55h.05l-1-.41c.92-.18,1.65.21,2.52.14-.24-.26-.52-.57-.75-.84,4.37-1.08,8.83-3,13.32-2.73a4.28,4.28,0,0,1,.49,0,20.71,20.71,0,0,1,2.31-1.63,6.44,6.44,0,0,1,.63-.36l.08,0,0,0h0l.09,0c.54-.16,1.1-.29,1.65-.43,1.12-.28,2.22-.58,3.37-.82a92.58,92.58,0,0,1,14.49-2.07c-3.45.18-6.87.46-10.2,1-1.69.21-3.33.54-5,.83-.83.15-1.64.34-2.47.51l-2.14.47,0,0,.29-.08.65-.18,1.32-.34c.88-.23,1.74-.47,2.64-.66,1.78-.4,3.56-.78,5.38-1.09s3.67-.55,5.5-.8,3.73-.4,5.64-.46a87.87,87.87,0,0,1,11.57.15,84.62,84.62,0,0,1,11.84,1.87c1.34.27,2.66.69,4,1,.65.19,1.38.38,1.94.56l1.88.62c2.46.85,4.83,1.77,7.2,2.78a97.15,97.15,0,0,1,14,7.33,63.15,63.15,0,0,1,13.39,11.16,42.86,42.86,0,0,1,5.7,8.14,34.61,34.61,0,0,1,3.55,10,32.9,32.9,0,0,1,.19,10.21,34.68,34.68,0,0,1-2.32,8.52,40.55,40.55,0,0,1-8,12.38,35.21,35.21,0,0,1-10.1,7.51c-.9.43-1.79.82-2.65,1.19a25.27,25.27,0,0,1-2.63.87,29.23,29.23,0,0,1-4.9,1c-1.37.25-2.72.3-4.06.42s-2.6,0-3.81-.08-2.43-.21-3.52-.39l-1.67-.23-1.57-.26c-4.14-.69-7.74-1.3-11-.93a16.14,16.14,0,0,0-8.56,3.6,28.77,28.77,0,0,0-6.5,7.59c-1,1.79-1.12,1.93-1.46,2.71a6.44,6.44,0,0,0-.54,2.11,3.06,3.06,0,0,0,.53,2.06,3.37,3.37,0,0,0,1.8,1.17,6.47,6.47,0,0,0,1.06.23c.1,0,.16,0,.25,0a2.7,2.7,0,0,0,.52,0l1.24,0c1.7,0,3.51-.16,5.43-.35,3.8-.33,7.85-.8,12-1.25,8.24-.89,16.85-1.66,25.61-1.75a167.9,167.9,0,0,1,26.57,1.7c1.12.15,2.22.35,3.33.52l3.23.55c2,.35,4.06.71,6.14,1.12,4.18.83,8.53,1.8,13,3.12a88.63,88.63,0,0,1,14,5.29,71,71,0,0,1,14.19,9c.93.78,1.82,1.57,2.63,2.33s1.5,1.55,2.11,2.22a13.51,13.51,0,0,1,2.16,2.87c.09.58-2.21-1.72-5.78-4.93a70.14,70.14,0,0,0-20.08-12.13A114.15,114.15,0,0,0,661,211.59l-4.53-.91-4.42-.8c-1.39-.25-3-.51-4.63-.78s-3.18-.48-4.77-.7A168.93,168.93,0,0,0,623.5,207c-6.34-.12-12.61.11-18.78.52s-12.2,1.07-18,1.67c-2.89.27-5.74.54-8.42.7-1.34.07-2.61.09-3.83.09a7.16,7.16,0,0,1-1.18-.11c-.31-.06-.62-.13-.92-.22a5.08,5.08,0,0,1-1.69-.81,3.19,3.19,0,0,1-1-1.54,5.73,5.73,0,0,1,.33-3.71,6.39,6.39,0,0,0-.53,3.14,3.58,3.58,0,0,0,.52,1.51,3.49,3.49,0,0,0,1.18,1.08,6.56,6.56,0,0,0,1.5.61c.26.07.52.12.79.18a1,1,0,0,1,.39.07l.71,0c2,0,4.3,0,6.63-.2,4.7-.28,9.67-.77,14.73-1.15s10.25-.7,15.49-.79a171,171,0,0,1,32,2.22c1.34.21,2.68.46,4,.72s2.72.52,3.91.78c2.46.51,5,1,7.56,1.65a130.66,130.66,0,0,1,16.07,4.73,75.46,75.46,0,0,1,17.3,8.74,56.85,56.85,0,0,1,14.59,14.79l1.87,2.73,1.6,2.76c1.11,1.83,1.94,3.73,2.86,5.6s1.58,3.81,2.35,5.72,1.31,3.87,1.85,5.83a79.26,79.26,0,0,1,2.8,24.21,65.17,65.17,0,0,1-5.83,24.88,50.7,50.7,0,0,1-3.18,5.94l-1.83,2.87c-.63.94-1.38,1.82-2.08,2.73s-1.42,1.8-2.16,2.65l-2.28,2.4c-.76.81-1.59,1.52-2.39,2.27s-1.64,1.45-2.49,2.13c-1.67,1.4-3.44,2.62-5.21,3.85s-3.61,2.27-5.47,3.24a74,74,0,0,1-11.38,4.91,86.25,86.25,0,0,1-11.69,3,96.4,96.4,0,0,1-11.82,1.38c-15.77.69-30.41-2.35-43.91-6-2.87-.79-5.7-1.59-8.43-2.41l-8-2.4-15.38-4.64c-10.16-3.05-20.19-5.94-30.21-8.86s-20-5.81-30.24-8.67S495.65,312,485,309.11l-22.2-6-5.44-1.43Q454.6,301,452,300.3c-1.77-.45-3.56-.9-5.22-1.27l-2.52-.59-2-.41-.51-.11-.63-.09-1.25-.18-2.5-.38c-1.66-.29-3.34-.41-5-.62l-2.5-.29-2.52-.19c-1.67-.11-3.34-.29-5-.34l-5-.17c-1.68-.08-3.37,0-5.05,0-3.37,0-6.75.2-10.13.34-27.07,1.8-54.26,9.29-81.79,20.34-3.63,1.56-7.17,3-10,4A30,30,0,0,1,305,322.1c-.55,0,.44-.71,2.47-1.85,1-.6,2.29-1.22,3.79-1.92s3.18-1.47,5-2.27a317.76,317.76,0,0,1,43.4-15.68c1.84-.5,3.66-1.05,5.5-1.51l5.53-1.28c3.67-.94,7.38-1.52,11.07-2.23,1.85-.4,3.7-.61,5.55-.89s3.7-.57,5.56-.79c3.71-.33,7.41-.84,11.11-1a165.22,165.22,0,0,1,22.14,0c3.67.2,7.32.63,11,1.08l5.41.8,2.3.46,2.71.62c1.79.4,3.71.89,5.6,1.36s3.79,1,5.71,1.47c3.82,1,7.68,2,11.53,3.06,7.71,2.09,15.45,4.2,23.19,6.38,31,8.72,62.15,17.77,93.4,27.41L598.69,339c4,1.25,8.16,2.49,12.4,3.64a160.24,160.24,0,0,0,27,5.23,100.63,100.63,0,0,0,14.7.37,86.9,86.9,0,0,0,15.09-2.13,70.89,70.89,0,0,0,28.83-13.78c.95-.73,1.85-1.57,2.75-2.39.45-.42.9-.82,1.34-1.25l1.28-1.32,1.26-1.34c.42-.45.81-1,1.21-1.45l2.35-3a56.35,56.35,0,0,0,7-13,66.61,66.61,0,0,0,4.06-27.31c-.1.24-.2.46-.31.47-.46,0-.85-1.67-1.54-4.4.32,2.45.33,5,.42,7.46a74.22,74.22,0,0,1-.44,7.57c-.17,1.27-.24,2.53-.51,3.8L714.8,300c-.27,1.27-.69,2.53-1,3.79l-.56,1.89-.71,1.87c-.5,1.24-.93,2.5-1.52,3.71l-1.84,3.62a15.55,15.55,0,0,1-1,1.76L707,318.39l-1.13,1.72c-.39.56-.84,1.08-1.27,1.63-.86,1.06-1.72,2.16-2.63,3.17s-1.84,1.95-2.81,2.87-2,1.8-3,2.64-2.06,1.66-3.14,2.41a67.53,67.53,0,0,1-9.11,5.79,74.77,74.77,0,0,1-9.7,4.17A81.5,81.5,0,0,1,654.1,347c-13.64,1.07-26.59-1-38.64-4-6-1.49-11.87-3.2-17.55-5l-16.73-5.24-34.09-10.71-45.63-14.64c-14.75-4.74-29.24-9.35-43.81-13.72L450.7,292l-3.39-.78-1.67-.38-1.51-.29c-.52-.09-1-.21-1.55-.29l-1.69-.24-3.39-.49c-2.27-.3-4.55-.5-6.82-.76a174.3,174.3,0,0,0-27.52-.19,226.46,226.46,0,0,0-54.92,11.11,22.8,22.8,0,0,1-3.52,1c-.56.07.18-.29,1.64-.79a236.61,236.61,0,0,1,38.13-10.25,191,191,0,0,1,39.62-2.93c-4.17-.62-6.69-1.2-6.35-1.8.17-.31,1.08-.58,2.58-.8.75-.11,1.65-.21,2.68-.3s2.19-.09,3.45-.11c-3.05-.29-6.13-.29-9.2-.4s-6.15.06-9.23.08c-3.8.21-6.82.15-6.73-.15s3.07-.75,6.71-1l4.74-.08c1.58,0,3.16-.09,4.74,0,3.15.1,6.3.12,9.44.4,1.57.12,3.15.18,4.71.36l4.69.52c1.56.14,3.11.44,4.67.65s3.13.45,4.56.77,3,.67,4.54,1,3.09.76,4.64,1.15c3.1.77,6.22,1.62,9.32,2.44,6.22,1.67,12.44,3.4,18.66,5.14,29.95,8,59.73,16.45,89.54,25.28-4-1.73-6.84-3.23-8.09-4.31h0l-13.81-4.1q-31.8-8.7-64-17.2c-10.74-2.79-21.51-5.6-32.28-8.15-1.35-.33-2.69-.64-4-.92s-2.71-.62-4-.83l-1.93-.36c-.65-.11-1.34-.19-2-.28l-4.05-.55c-2.7-.29-5.42-.57-8.13-.78l-4.09-.23c-1.36-.09-2.72-.16-4.09-.15a210.07,210.07,0,0,0-65.12,9.18c-5.36,1.46-10.58,3.38-15.87,5.14l-7.81,3-3.91,1.5-3.85,1.65-7.71,3.31-7.6,3.6c-5.11,2.32-10,5-15.05,7.59a15.2,15.2,0,0,1-3,1.35,13.16,13.16,0,0,1,2.51-1.49c24-12.76,49.07-23.42,75.16-29.55l-.11,0c-1.07.18-1.3.09-.17-.28a25.21,25.21,0,0,1,4.1-1c1.23-.15,1.15,0,.18.29a204.79,204.79,0,0,1,36.87-4.78l4.63-.13c1.54-.06,3.08,0,4.62,0s3.09,0,4.62.09l4.62.26c1.54.06,3.07.21,4.6.37s3.06.27,4.59.46c3,.42,6.14.77,9,1.36,12.06,2.59,24.25,5.81,36.32,8.92s24.13,6.36,36.13,9.57c-11.1-3.16-22.2-6.32-33.33-9.37s-22.26-6.09-33.4-8.82c-2.77-.66-5.57-1.32-8.25-1.82-1.37-.24-2.8-.41-4.2-.62s-2.8-.43-4.21-.56c-2.83-.3-5.64-.63-8.48-.77l-4.25-.27-4.26-.1a193.9,193.9,0,0,0-34,2.38l-3.66.7-3.63.86c-2.42.59-4.87,1.1-7.31,1.77a24.48,24.48,0,0,1-3.65.74c-.4,0,.55-.38,1.91-.75s2.69-.79,4.06-1.08c-1.07.19-2.09.43-3.08.66l-2.83.63c-1.8.38-3.42.69-4.77.92-2.71.49-4.35.74-4.37.39.25-.81,7.32-3.42,16.2-5.35,23.68-5.39,48.35-6.69,72.31-2.64,1.3.21,2.59.46,3.87.74s2.58.51,3.85.81l7.77,1.53c-4.56-1.2-9.13-2.35-13.75-3.39-1.17-.22-2.34-.47-3.51-.68l-3.51-.52c-2.33-.38-4.69-.62-7-.87a183.6,183.6,0,0,0-28.33-.66c-18.9,1-37.5,4.9-55.42,10.53-3.05,1-5.69,1.83-5.83,1.63s2.25-1.27,5.32-2.33a235.08,235.08,0,0,1,48.76-11.45,205,205,0,0,1,25.3-1.26l6.36.25c2.12.07,4.24.32,6.36.47s4.23.44,6.34.68c1.07.15,2.1.22,3.19.43s2.2.37,3.25.58c8.34,1.7,16.43,3.66,24.55,5.67s16.22,4.09,24.31,6.21q24.27,6.36,48.47,13.2,16.14,3.63,32.34,7.47l32.5,7.8-8-2.5c-34.91-10.8-67.57-19.2-100.1-27-16.28-3.89-32.44-7.73-49.15-11.19l-3.18-.61-1.6-.31-1.68-.28c-2.29-.42-4.42-.58-6.6-.84s-4.36-.4-6.55-.56l-3.29-.23-3.31-.11a191.29,191.29,0,0,0-26.69.9c-.9.08-1.73.13-2.36.14a4.83,4.83,0,0,1-1.19,0c-.2-.1,1-.4,2.83-.53l6.55-.63c2.18-.15,4.36-.23,6.52-.35s4.33-.15,6.49-.17,4.3-.07,6.44,0,4.29.07,6.42.24,4.26.26,6.39.45l6.36.68,3.32.52,3.13.58c16.44,3.24,32.34,7,49,11,13.78,3.34,27.19,6.73,40.35,10.08l38.85,10q-19.4-5.69-38.58-10.77c-12.81-3.42-25.56-6.72-38.35-9.89s-25.55-6.3-38.5-9.21c-3.23-.74-6.51-1.44-9.78-2.14l-5-1c-.84-.17-1.8-.31-2.69-.46s-1.82-.31-2.66-.39a200.64,200.64,0,0,0-20.67-1.47,62.91,62.91,0,0,1-6.39-.18,4.71,4.71,0,0,1-1.36.18c-6.9.54-14.38,1.19-21.92,2.44a24.15,24.15,0,0,1-4.06.39C389.69,273,390.56,272.76,392.16,272.47ZM526.48,132.2l-.24-.08h.66l1.35.76Zm-5.33,9.13h0l-.8-.38Zm68.57,68.59c-3.54.3-7,.58-10.32.75-1.64.08-3.25.11-4.72.07h-.55a4.13,4.13,0,0,1-.47,0,6,6,0,0,0-.61-.11,12.12,12.12,0,0,1-1.22-.32,4.66,4.66,0,0,1-2.11-1.34,3.88,3.88,0,0,1-.85-2.32,9.05,9.05,0,0,1,1.44-4.73,1.33,1.33,0,0,1,.16-.28,2.45,2.45,0,0,0,.22-.36c.18-.32.34-.64.55-.95a22.41,22.41,0,0,1,1.24-1.87,31.94,31.94,0,0,1,2.89-3.48A28.61,28.61,0,0,1,578.7,192c.57-.47,1.2-.76,1.79-1.16a10,10,0,0,1,1.89-.93,18.78,18.78,0,0,1,8.51-1.31c3.1.14,6.42.82,10.21,1.35-3.7-.48-7-1.09-10-1.23a19.37,19.37,0,0,0-8.29,1.2l-1.44.62c-.47.26-.92.55-1.37.83a10.28,10.28,0,0,0-1.33.89,14,14,0,0,0-1.28,1.05,29.38,29.38,0,0,0-4.58,5,26.07,26.07,0,0,0-1.83,2.82l-.2.36a2.33,2.33,0,0,1-.15.23c-.1.13-.14.27-.23.4a7.6,7.6,0,0,0-.42.8,8,8,0,0,0-.92,3.5,4.05,4.05,0,0,0,.42,1.78,3.63,3.63,0,0,0,1.23,1.35,6.93,6.93,0,0,0,1.7.73c.3.09.6.15.91.22s.27.06.46.08.51,0,.81,0C579.09,210.75,584.41,210.27,589.72,209.92Zm-71.67-78.61a12.26,12.26,0,0,1,3.3.87,5.25,5.25,0,0,1,1.46-1.07,41.55,41.55,0,0,1,4.54-1.94c-.42-.29-.05-.43.09-.57l.48-.37-5.11,1.55C521.24,130.26,519.64,131,518.05,131.31Zm-8.88,8.21-.23-.05-.21-.76Zm.38,1.27.26-.06C509.92,141,509.79,141,509.55,140.79Zm2.38-.6a1.66,1.66,0,0,0-.5-.13Zm14.39,16.05-1.64-3.36,1.5,3.29Z"/><path d="M560.87,64l.25.06a.48.48,0,0,1-.39.31c2.43.28,4.19-1.79,4.86-3.91a1.1,1.1,0,1,0-.94-2,1.62,1.62,0,0,1-.44,0,8.53,8.53,0,0,0-3.69-.2l.86.11a2.66,2.66,0,0,0-1,.26l.28.22a2.54,2.54,0,0,0-.38,5.06Z"/><path d="M564.5,65.89c-.8,0-1.58,0-2.37-.06l-.22-.11.51.78,0-.06A4.52,4.52,0,0,1,564,64l.22-.29a.78.78,0,0,0,0-.58.81.81,0,0,0-1-.47l-.48.19c-1.33.17-3,1.14-2.81,2.84,0,.39.4.71.64,1.06a1.12,1.12,0,0,0,2-1l.34,0-.1.32c-.13-.55.3-.94.51-1.4l.47-.45-1-1-.18.33s.14.09.13.1a9.78,9.78,0,0,1-1.09,1.85l-.47.89a.67.67,0,0,0,.51.77l.48.08-.24-.07c.92-.17,1.81-.47,2.73-.62a.28.28,0,0,0,.26-.31A.28.28,0,0,0,564.5,65.89Z"/><path d="M561.94,67.62a.64.64,0,0,0-.52.08l0,.14.37.07C562,68,562.05,67.79,561.94,67.62Z"/><path d="M561.4,67.84l-.15,0,.14.07v0Z"/><path d="M590.81,47.39c2.15-.91,4.26-1.92,6.34-3a.14.14,0,0,0,.05-.2.14.14,0,0,0-.19-.07c-2.09,1-4.19,2-6.34,3a.15.15,0,0,0,0,.2A.16.16,0,0,0,590.81,47.39Z"/><path d="M610.25,46.18a.18.18,0,0,0,.12.19.12.12,0,0,0,.16-.1.19.19,0,0,0-.12-.19A.12.12,0,0,0,610.25,46.18Z"/><path d="M613.37,52.43a3.26,3.26,0,0,0-.52.91.13.13,0,0,1-.13.07.33.33,0,0,1,0,.37,33.73,33.73,0,0,1-5.06,5.66,1.3,1.3,0,0,1,.08.34.78.78,0,0,1-.5.85l-.27.06c-1,.37-2,.77-3.07,1.12a1.5,1.5,0,0,1-.49.65,26.18,26.18,0,0,1-1.8,2.45.62.62,0,0,1,.26.25.51.51,0,0,1-.16.7l-.32.22,1.08-.36a.4.4,0,0,1,.15,0A11.42,11.42,0,0,0,603.7,65a35.68,35.68,0,0,0,7.59-7.73.12.12,0,0,1,.18-.07c.07,0,.12.14.08.21-1,2.42-1.61,5.12-3.18,7.22a66.11,66.11,0,0,1-5.94,7c-2.66,1.56-4.74,3.66-7.17,5.74-.9.77-1.81,1.49-2.72,2.17-2.88,2.08-5.8,3.91-8.82,5.75a3.32,3.32,0,0,1-5.24-3.54l-.4.21-.71.17a2.87,2.87,0,0,1-2-.3l-.82-.41c-1.3-.91-2.84-1.42-4.07-2.45l-.19-.56-.19-.08a2.81,2.81,0,0,1-1.48-.92l-.32-.62a6.64,6.64,0,0,1-.59-2.25,2.63,2.63,0,0,1-.34-.79A3.48,3.48,0,0,1,566,72a.48.48,0,0,1-.29-.62.45.45,0,0,1,.15-.21h0l-.44-.25-.29,0-.85.22a2.22,2.22,0,0,1-.78-.22c-.95-.87-.95-.87-1.17-1.36,0-.06,0-.11,0-.17h-.47a1.61,1.61,0,0,1-.23-.1c-.16-.24-.16-.24-.25-.3a1.59,1.59,0,0,1-.12-.18c0-.36,0-.36-.06-.45a.93.93,0,0,1,0-.18l.19-.29.74.43,0-.27.26.25-.21-.25.28.06-.35-.11a2,2,0,0,0,.67-.27.86.86,0,0,0,.33-.25l-.1-.14,1-.32a1,1,0,0,1,.21.11.22.22,0,0,1,.17-.22l.26-.1,0-.06v0l.13-.25,0-.06h0l.55-1.07a2.83,2.83,0,0,1,.47-.1l-.18-.06c-.13,0-.2-.31-.25-.31a16.88,16.88,0,0,0-3.73.88.41.41,0,0,1-.58-.07.41.41,0,0,1,.07-.58,8.93,8.93,0,0,1,7-4.25c.66-.23,1.31-.47,2-.72l-.16-.07.57-.09.05,0-.6-.22h-.32a26.06,26.06,0,0,1-4.7,1,21.93,21.93,0,0,1-2.56.23.36.36,0,0,1-.48-.19.37.37,0,0,1,.19-.48c2.07-1.63,4.8-2.87,7.47-2.45a2.12,2.12,0,0,1,1.37-.28h0l-.46-.22c.36-.09.7.11,1.05.07l-.39-.43c1.69-.58,3.25-1.69,5.07-1.81l.19-.05a5.42,5.42,0,0,1,1.4-1.8l-.71.21a3.24,3.24,0,0,1,1.16-1.14,4.78,4.78,0,0,1,4.65.08c2.4-1.63,4.82-3.23,7.13-5a.28.28,0,0,1,.4.07.31.31,0,0,1,0,.42,41.67,41.67,0,0,1-4.82,4.2,39.11,39.11,0,0,0,4.92-2.17l.56-.41a1.61,1.61,0,0,1,.63-.27,36.55,36.55,0,0,0,5.74-3.76c1.54-1.34,2.86-2.57,4.31-4a31.26,31.26,0,0,1,6.25-5.44.71.71,0,0,1,1,.21.79.79,0,0,1-.06,1.07c-4.3,4.1-8.37,8.39-13.69,11.29l-1.7.91.1.15a1.23,1.23,0,0,1,.18.63c.66-.32,1.33-.61,2-.88a17.77,17.77,0,0,1,5-3.82,20.63,20.63,0,0,1,4.24-1.14c1.37-1.13,2.7-2.31,4.1-3.41a.13.13,0,0,1,.2,0,.17.17,0,0,1,0,.21,29.61,29.61,0,0,1-2.54,3,1.55,1.55,0,0,1,.77.71,1.52,1.52,0,0,1,.16,1.07l.75-.41a.36.36,0,0,1,.46.16.33.33,0,0,1-.09.47l-3,1.7c-1.09.9-2.19,1.76-3.31,2.61a2.38,2.38,0,0,1,.83.61h0L604,51a37.23,37.23,0,0,1,9.61-7.44.16.16,0,0,1,.21.07c0,.08,0,.17,0,.2a31.25,31.25,0,0,0-3.15,1.89h0a.19.19,0,0,1,.12.19.12.12,0,0,1-.16.1.17.17,0,0,1-.12-.18,37.8,37.8,0,0,0-5.27,4.38A47.2,47.2,0,0,1,610.6,47l.42-.64a.14.14,0,0,1,.2,0,.18.18,0,0,1,0,.21l-.12.17a.88.88,0,0,1,.81,1.53c-.89.63-1.8,1.22-2.72,1.8l-.26.25-.19.38c1.55-.7,3.12-1.36,4.68-2a.31.31,0,0,1,.33.52,72.53,72.53,0,0,1-7,5.79l-1.45,3.4.34-.17c2.81-1.66,4.14-4.86,6.64-6.83.06-.06.15,0,.21,0a.15.15,0,0,1,0,.21,35.54,35.54,0,0,0-3.09,3.56,31.42,31.42,0,0,0-2.46,3c2-1.39,3.5-3.34,5.35-4.9a.22.22,0,0,1,.28-.06.23.23,0,0,1,0-.14,4.45,4.45,0,0,1,.55-1c0-.06.12-.07.2,0A.18.18,0,0,1,613.37,52.43ZM570.74,66.05l-.11,0,.3,0,.65.42Zm-2.43,4.37h0l-.36-.23Zm19.26-18.33a12,12,0,0,1-3.56,1.4l.74-.56Q586.13,52.47,587.57,52.09Zm-20.64,13.2a5.84,5.84,0,0,1,1.48.58,2.18,2.18,0,0,1,.64-.49,19.11,19.11,0,0,1,2-.86c-.2-.16,0-.22,0-.29l.2-.18c-.73.23-1.47.45-2.23.66A16.9,16.9,0,0,1,566.93,65.29Zm-4,3.45-.1,0-.06-.38Zm.13.63h.11C563.19,69.5,563.14,69.47,563,69.37Zm1.07-.1a1,1,0,0,0-.22-.1Zm6,8.8-.59-1.75.53,1.71Z"/></svg>