<svg id="Layer_1" data-name="Layer 1" xmlns="http://www.w3.org/2000/svg" viewBox="0 0 1080 1028.99"><path d="M536.21,276.46l.45.67a2.83,2.83,0,0,1-1.52-.77,25.67,25.67,0,0,0,4.26,4.08,40.77,40.77,0,0,0,4.89,3,35,35,0,0,0,5,2.15,39.55,39.55,0,0,0,4.64,1.52c1.69,1.3,3.48,2,4,1.36s-.4-2.44-2.12-3.91a13,13,0,0,1-1-1.19,46.84,46.84,0,0,0-3.49-5c-1.34-1.63-2.81-3.39-4.43-5.16l1.73,2.45a23.11,23.11,0,0,0-2.94-2.91c.06.25.13.57.19.83a22.6,22.6,0,0,0-5.51-5,8.85,8.85,0,0,0-5.52-1.62c-3.06.46-3,4.31,0,7.92Z"/><path d="M540.63,286.28c-1.8-1.74-3.52-3.6-5.25-5.52l-.28-.59-.38,1.76.07-.09a8.76,8.76,0,0,1,4,.47,30.75,30.75,0,0,1,4.44,1.72l1.07.42a1.19,1.19,0,0,0,1.18-.21c.49-.54-.13-1.77-1.39-2.77-.49-.39-1-.75-1.46-1.11a32.26,32.26,0,0,0-2.9-2.42,21,21,0,0,0-3.32-2.11c-2.25-1.08-4.43-1.61-5.89-.67-.66.43-.5,1.58-.62,2.46-.47,1.13.63,2.92,2.44,3.95s3.63,1,4.1,0l.87.78-.86,0c.82-.65,2.55.13,4,.36l1.94.84-.23-3-1.08-.28c0,.15.13.39.12.39-2.07-.44-4-.91-6.2-1.57l-2.84-.46c-.84.13-1,1-.37,1.83l1,1.19-.41-.61c1.22,1,2.48,1.86,3.73,2.86s2.5,1.92,3.67,2.88a1.33,1.33,0,0,0,1.18.36C541.09,287,541,286.61,540.63,286.28Z"/><path d="M531.4,281.74a3.53,3.53,0,0,0-1.33-1.13l-.31.09.69.9C530.94,282.24,531.32,282.14,531.4,281.74Z"/><path d="M529.76,280.7c-.18-.23-.29-.39-.29-.39s.1.26.15.39h.14Z"/><path d="M661.78,329.39c-.8-2.83-1.7-5.73-2.75-8.74-.27-.76-.52-1.51-.81-2.27l-.91-2.44c-.62-1.72-1.28-3.41-2-5.08-2.72-6.7-5.73-12.9-9-19.34l-5.2-10.23-1.42-2.8-1.44-2.95-1.5-3.09-.8-1.66-.91-2c-1.11-2.51-2.09-4.87-3-7.24s-1.79-4.7-2.61-7c-1.65-4.69-3.12-9.39-4.46-14.12-.35-1.27-.84-2.28-1.12-2.26s-.19,1,.16,2.23q2,7.13,4.43,14.17c1.65,4.73,3.42,9.35,5.61,14.33l.89,1.95.83,1.76,1.5,3.11,1.45,3c.48,1,1,1.89,1.42,2.8l5.19,10.21c3.24,6.4,6.24,12.53,9,19.16,1.33,3.25,2.69,6.94,3.71,9.74,1.05,3,2,5.85,2.78,8.65.26.75.6,1.34.85,1.41S662,330.11,661.78,329.39Z"/><path d="M674.6,84.52c-.4.72-.23.81.4.22a11.28,11.28,0,0,0,1.77-2.24c.34-.61.15-.73-.39-.22A11.06,11.06,0,0,0,674.6,84.52Z"/><path d="M682.23,98.75a84.73,84.73,0,0,0-5.14,11.47,9.29,9.29,0,0,1-.9,1.87c.39-.08.29.83-.25,2.33-1.44,3.65-2.48,7.45-3.67,11.18-.51,1.89-.94,3.81-1.43,5.7-.24.95-.5,1.88-.71,2.84L669.6,137c-.34,1.92-.77,3.81-1.05,5.73s-.59,3.83-.74,5.78l-.29,2.89c-.1,1-.13,1.94-.21,2.91-.15,1.94-.2,3.89-.26,5.83a167.12,167.12,0,0,0,5.75,46.59,2.93,2.93,0,0,1,1.23,1.11c1.51,1.91,3,6,4,10.37l.67,3.33A166.36,166.36,0,0,0,684.78,241c.59,1.53,1.21,3.06,1.78,4.39l.47,1.06.56,1.22,1.16,2.51c1.6,3.39,3.26,7,4.92,10.83a65.31,65.31,0,0,1,5.66,10.45,169.85,169.85,0,0,1,8.94,20.77c.61,1.77,1.24,3.56,1.82,5.35l.84,2.68c.28.9.57,1.78.84,2.78a112.13,112.13,0,0,1,2.79,12c.13-1.1.36-1.8.7-1.86.86.15,2,4,2.18,8.71.13,2.39.19,4.8.14,7.22a117.13,117.13,0,0,0-.84-20.46c-.14-.95-.24-1.84-.32-2.64-.31-1.78-.67-3.55-1-5.3s-.75-3.27-1.12-4.91-.84-3.29-1.27-4.94l-1.41-5a164.7,164.7,0,0,0-7.94-21.17c-3.07-6.71-6.47-12.91-9.49-18.14-.69-1.23-1.39-2.45-2.09-3.68-.53-.9-1.14-2-1.72-3.18-1.19-2.29-2.35-4.72-3.46-7.18-2.23-4.93-4.23-10-6-15.18A200.92,200.92,0,0,1,672.61,186a150.49,150.49,0,0,1-2.35-31.91,5.27,5.27,0,0,1,.4-2.37c.26-.36.51-.23.5.55a107.71,107.71,0,0,0,2.2,19.61,165.27,165.27,0,0,0,4.94,18.5c1,3,2.09,6.07,3.19,9.11s2.37,6.1,3.64,9.2q3.81,9.25,8.56,18.95c.94,1.91,1.92,3.78,2.92,5.59s2,3.56,3,5c.23.36.46.7.64.93.27.39.61.94.9,1.41l1.93,3c1.38,2.14,2.71,4.38,4.15,6.84s2.82,5,4.24,7.69,2.72,5.49,4,8.35a177.46,177.46,0,0,1,6.64,17.63c1,3,1.82,6,2.65,8.95l1.18,4.46c.39,1.61.8,3.28,1.16,5a111.72,111.72,0,0,1,2.65,21.36,109.57,109.57,0,0,1-1.93,23.18c-.39,2-.8,3.93-1.32,5.9-.26,1-.5,1.95-.8,3l-.95,3.09A92.65,92.65,0,0,1,720,370.92a91.17,91.17,0,0,1-14.9,20.56A96.8,96.8,0,0,1,687,406.12,104.32,104.32,0,0,1,647,420.77a80.42,80.42,0,0,1-20.8.42,72.67,72.67,0,0,1-10.31-1.88c-1.71-.47-3.39-.93-5-1.54l-1.25-.42-.63-.22-.77-.29c-1-.39-2-.78-3-1.22s-1.9-1-2.83-1.49-1.76-1.13-2.63-1.69a24.88,24.88,0,0,1-2.43-1.83l-1.16-.95c-.37-.33-.71-.67-1.06-1a44.91,44.91,0,0,1-6.94-8.61,71.13,71.13,0,0,1-7.93-18.22c-.61-2.06-1.12-4.23-1.55-6.22s-.87-4-1.31-6c-.85-4-1.69-8.05-2.62-12a75.92,75.92,0,0,0-3.25-11,33.85,33.85,0,0,0-4.84-8c-.49-.49-.9-1-1.4-1.41l-.94-.82c-.23-.2-.52-.37-.77-.56a14.73,14.73,0,0,0-1.57-1,34,34,0,0,0-3.35-1.71l-1.78-.72c-.61-.22-1.27-.41-1.88-.61s-1.25-.38-1.91-.55-1.28-.33-2-.46c-1.42-.25-2.66-.56-4.16-.7l-2.13-.25-2.25-.16c-.57,0-1.11,0-1.63-.09s-1.07-.11-1.55-.2a9.6,9.6,0,0,1-2.51-.82c-1.46-.67-2.22-1.79-2-3.11.3-1.61,2-3.07,4.43-3.78l-1.17-.18-1.73-.54a8.47,8.47,0,0,1-1.14-.47,6.77,6.77,0,0,1-1-.54,4.33,4.33,0,0,1-1.39-1.41l-.9-1.36a23,23,0,0,0-2.06-3.8,14.7,14.7,0,0,1-1.85-4.15l.66-.95-.27-.36a4.62,4.62,0,0,1-1.42-3.26l.5-1.24a9.37,9.37,0,0,1,3.05-3.56,2.93,2.93,0,0,1,.81-1.4,4.24,4.24,0,0,1,.69-4.26c-.39-.57-.14-1.09.56-1.14a1.87,1.87,0,0,1,.76.11h0a9.55,9.55,0,0,0-.49-1.08l-.73-.53c-1.27-.76-1.27-.76-2.37-1.44a7.14,7.14,0,0,1-1.3-1.78c-.45-2.86-.45-2.89,0-3.84a1.81,1.81,0,0,1,.29-.19c-.8-.77-.85-.84-1.06-1.06a4.39,4.39,0,0,1-.32-.62c.11-.59.11-.59,0-.87a2,2,0,0,1,.07-.45c.67-.38.67-.38.74-.55a1.27,1.27,0,0,1,.36-.16l1,.19c.86,2.07.87,2.08.87,2.08l.41-.35.11.79v-.67l.53.68-.57-.89a10.17,10.17,0,0,0,2,1.25,4.49,4.49,0,0,0,1.25.53,1.23,1.23,0,0,1,0-.33c1.53,1,1.53,1.08,3,2.14a5.06,5.06,0,0,1,.25.55,1,1,0,0,1,.82.2l.78.52.2,0v0l.77.12.16,0h0c.52.07,1.29.2,3.32.67.45.34.87.68,1.25,1q-.17-.22-.3-.45c-.2-.3.19-.59.07-.72-.76-.73-1.55-1.46-2.37-2.17s-1.66-1.36-2.52-2c-1.72-1.28-3.51-2.73-5.27-4-.68-.31-1.22-1-1.2-1.43s.63-.58,1.33-.25a27.3,27.3,0,0,1,6.35,2.17,39.55,39.55,0,0,1,6.33,3.65,65.87,65.87,0,0,1,11.33,9.84c.91.8,1.82,1.71,2.73,2.54s1.81,1.64,2.69,2.57l-.17-.39,1.29,1.53.15.15-.75-1.52-.66-.85c-1-1-2.07-2-3.07-3l-1.49-1.53-1.48-1.48c-1-1-2-2-3-3.07s-2-2-3-3-2.15-2.18-3.15-3.23-2-2.19-3-3.3c-.59-.47-.91-1.06-.72-1.34s.83-.09,1.4.38a74.39,74.39,0,0,1,11.81,9.15c.93.87,1.82,1.74,2.68,2.61s1.68,1.85,2.46,2.75,1.5,1.81,2.17,2.74,1.29,1.87,1.85,2.77a21.18,21.18,0,0,1,1.77,1.92,18,18,0,0,1,1.4,2l0,.07c-.17-.41-.32-.79-.48-1.2.86,1.08,1.11,1.91,1.84,2.92,0-.27.06-.58.08-.84,1,1.32,2.11,2.67,3.18,4s2.06,2.83,3,4.26a41.73,41.73,0,0,1,4.55,9.05c.1.23.19.45.28.68a31.39,31.39,0,0,1,2,3.59,9.66,9.66,0,0,1,.43,1l.11.3.36,1.09a22.5,22.5,0,0,1,.63,2.21c.18.75.38,1.52.53,2.26s.25,1.46.38,2.2.21,1.49.3,2.24.17,1.51.21,2.27a58.77,58.77,0,0,0-.69-6.2c-.14-1-.43-2.14-.66-3.23-.11-.55-.27-1.08-.43-1.63l-.42-1.45.51,1.55a17.25,17.25,0,0,1,.49,1.74c.29,1.17.59,2.36.76,3.46s.38,2.22.5,3.36.22,2.25.29,3.37a113.84,113.84,0,0,1-.4,12.75,50.92,50.92,0,0,0,1.3,15.72c.33,1.26.65,2.53,1.07,3.76l.6,1.85.66,1.73a49.1,49.1,0,0,0,3.11,6.43,35.15,35.15,0,0,0,7.67,9.31,24.17,24.17,0,0,0,6.83,4l.65.15c.22,0,.45,0,.67.07.44,0,.85.12,1.28.1l1.26,0,1.61-.06a46.65,46.65,0,0,0,6.56-.81c1.09-.25,2.15-.43,3.22-.74l1.59-.43,1.58-.5c1.05-.31,2.08-.72,3.11-1.08s2-.82,3-1.25a62,62,0,0,0,11.25-6.52,54.49,54.49,0,0,0,9.24-8.59,48.68,48.68,0,0,0,6.63-9.81,41.09,41.09,0,0,0,3.54-10.06,31.27,31.27,0,0,0,.49-9.36l-.11-1.1-.15-1.23c-.11-.82-.22-1.64-.39-2.46-.29-1.64-.72-3.3-1.17-5a9.41,9.41,0,0,1-.34-1.88,1.41,1.41,0,0,1,.24-1.05c.39-.18,1.07.74,1.48,2.17a54,54,0,0,1,1.78,7.39,42,42,0,0,1,.6,7,37.34,37.34,0,0,1-3.56,14.83c-4.67,10.11-14.06,19.82-25.72,25.49a60.9,60.9,0,0,0,24.13-19.7,47,47,0,0,0,6.46-12.69,36.82,36.82,0,0,0,1.51-6.42c.2-1.05.23-2.13.35-3.17l0-1.57,0-.78v-.86a52.35,52.35,0,0,0-.81-7c-.41-2.39-.82-4.75-1.22-7.1-.77-3-1.65-6.11-2.68-9.22-.54-1.55-1-3.12-1.64-4.69l-1.92-5.06q-2-5.09-4.26-9.92c-1.5-3.23-3.07-6.39-4.71-9.56-3.28-6.36-7-12.72-11.12-20.69l-.79-1.51-.86-1.67c-.61-1.25-1.18-2.42-1.71-3.57-1.07-2.31-2.07-4.56-3-6.82-1.91-4.52-3.66-9.06-5.3-13.68q-2.09-5.93-3.83-11.77c-1.13-3.92-2.19-7.81-3.1-11.72s-1.69-7.83-2.41-11.75c-.34-2-.63-3.94-1-5.91s-.5-4-.72-6c-.41-4-.74-8-.92-12s-.19-8.15,0-12.28a154.86,154.86,0,0,1,7.52-43.17c1-2.85,2.09-5.67,3.15-8.48l.8-2.09.91-2c.61-1.35,1.22-2.69,1.84-4a156.23,156.23,0,0,1,18-29.32,171.26,171.26,0,0,1,49.71-42.75c2.53-1.46,5.08-2.7,7.07-3.6a14.27,14.27,0,0,1,4-1.33c.92.07-2.53,2.28-7.47,5.25A176.81,176.81,0,0,0,653,87.6l-2.56,3.63c-.83,1.23-1.72,2.42-2.48,3.7-1.57,2.54-3.17,5.07-4.7,7.65l-4.24,8c-1.34,2.72-2.55,5.52-3.79,8.31l-.92,2.1-.8,2.16-1.6,4.32c-.51,1.46-1.09,2.88-1.53,4.37L629,136.28c-.46,1.48-.79,3-1.19,4.48s-.77,3-1.07,4.52l-.94,4.54-.76,4.56a163.36,163.36,0,0,0-1.5,36.66q.63,9.09,2.13,18.06c1,6,2.23,11.87,3.72,17.71s3.22,11.62,5.18,17.36,4.11,11.42,6.64,17.2c.63,1.46,1.3,2.91,2,4.45l.57,1.19.52,1,1,2c1.31,2.55,2.58,5,3.84,7.38,2.48,4.73,4.77,9.08,6.93,13.47a209.71,209.71,0,0,1,9.79,23,.77.77,0,0,1,.39-.33c.62-.21,1.52.44,2.41,1.48-1.49-4.48-3.13-9.08-4.88-13.48s-3.63-8.78-5.61-13.17c-3.32-5.86-7-11.67-10.8-18.52l-1.45-2.6-.36-.66-.42-.79-.79-1.54c-1-2-1.94-4-2.82-5.9-1.77-3.89-3.37-7.79-4.85-11.76A170.54,170.54,0,0,1,625.91,196a145.33,145.33,0,0,1,.18-18.1c.18-3,.54-5.9.88-8.8.19-1.45.44-2.9.66-4.33s.47-2.87.77-4.29a143.77,143.77,0,0,1,10.41-32.63,155.9,155.9,0,0,1,19.47-37.39A173.7,173.7,0,0,1,685.87,59.9a9.78,9.78,0,0,1,2.1-1.59c.4-.15,0,.32-.74,1.08a179.54,179.54,0,0,0-19.24,21A168.54,168.54,0,0,0,651.89,105c2.21-2.38,3.87-3.57,4.51-2.93s.15,3.08-1.14,6.47l3.37-5.65c.57-.93,1.1-1.89,1.71-2.8l1.82-2.72c1.53-2.22,3-3.8,3.3-3.5s-.53,2.25-1.93,4.36L661.71,101c-.59.93-1.13,1.9-1.69,2.85-1.11,1.91-2.26,3.8-3.34,5.74-2,4-4.14,7.84-5.82,12a142.16,142.16,0,0,0-8.51,25.42c-4.16,21.17-3.42,42.81.69,63.53.29-3,.89-5.29,1.82-6.46h0c-.48-3.2-.89-6.39-1.21-9.59a146.86,146.86,0,0,1,.21-44.78,135.6,135.6,0,0,1,15-43l2.78-5,3-4.84c1-1.62,2-3.23,3.16-4.76l3.31-4.65A184.82,184.82,0,0,1,685.86,70,210.92,210.92,0,0,1,720.55,41.1a7.31,7.31,0,0,1,1.9-1.08,5.68,5.68,0,0,1-1.51,1.22,208,208,0,0,0-40.81,36l0,0c.57-.48.81-.46.37.22a13.11,13.11,0,0,1-1.86,2.17c-.66.56-.76.38-.4-.21-10.89,13-20.12,27.74-26.25,43.74-1.67,3.94-2.79,8.08-4.1,12.14-.61,2-1.07,4.14-1.6,6.2s-.88,4.17-1.28,6.26a141,141,0,0,0-2.11,25.2,141.24,141.24,0,0,1,9-45.68,152.32,152.32,0,0,1,10.06-21c1.85-3.4,4-6.59,6.11-9.82,1-1.63,2.22-3.14,3.33-4.71s2.22-3.14,3.45-4.62c1.88-2.77,3.7-5.58,5.8-8.25a8.27,8.27,0,0,1,1.81-1.77c.27-.1,0,.52-.61,1.27l-1.7,2.25a44.22,44.22,0,0,1,5.15-5.19c1.45-1.16,2.47-1.71,2.76-1.39s-.36,1.64-1.47,3.33a62.23,62.23,0,0,1-4.52,6.22c-9.56,12.62-17.8,26.24-23.51,40.93L657,129.31l-1,5.05a153.4,153.4,0,0,1,15.75-32.75,200.14,200.14,0,0,1,22.1-28.71c1.39-1.54,2.75-2.69,3-2.52s-.71,1.57-2.08,3.12c-13.49,16.32-24.44,34.79-30.91,54.52-6.66,19.65-8.18,40.52-6.1,61a183.78,183.78,0,0,0,14.16,38.39c-.47-1.63-.93-3.28-1.4-4.93a281.39,281.39,0,0,1-7-30.82,177,177,0,0,1-2.53-30.17,131.32,131.32,0,0,1,1-15.06c.11-1.26.36-2.5.55-3.76s.37-2.51.67-3.75c.55-2.49,1.06-5,1.68-7.53a125.7,125.7,0,0,1,12.11-29.61,3.67,3.67,0,0,1,1.36-1.71c.23,0,0,.72-.6,1.7a122.09,122.09,0,0,0-11.48,28.75l-.5,1.81-.39,1.83-.76,3.67c-.56,2.42-.9,4.89-1.27,7.35-.62,4.94-1,9.93-1.19,15A147.05,147.05,0,0,0,668.88,208c-3.44-15.48-5.41-30.89-5-46.33.06-1.93.18-3.85.28-5.79s.28-3.85.55-5.76.44-3.86.8-5.76l.48-2.88c.19-.95.42-1.9.63-2.85.44-1.92.88-3.83,1.31-5.75l1.71-5.69c.52-1.93,1.26-3.78,2-5.67l1.06-2.83.54-1.41.61-1.39a14.84,14.84,0,0,1,1.79-3.29,1.54,1.54,0,0,1,.11-.85,57.08,57.08,0,0,1,2.36-6l1.37-3.09c.49-1,1-2,1.57-3.07a6.64,6.64,0,0,1,1.44-2C682.78,97.29,682.65,97.85,682.23,98.75ZM553.77,300l-.13-.25.57.64.52,1.43Zm-13.67-2.86h0l-.35-.87Zm115,82a60.19,60.19,0,0,1-19.34,12.55A56.58,56.58,0,0,1,613,396.1a48.71,48.71,0,0,0,11.3-1.34A66.39,66.39,0,0,0,655.1,379.17ZM547.18,291.44a20.19,20.19,0,0,1,2.06,3.51,14.2,14.2,0,0,1,2.31,1.21l3,2.11c1,.7,1.91,1.38,2.82,2.17-.09-.47.35-.11.6,0l.75.45c-1.9-1.73-3.88-3.27-5.89-5C551,294.41,548.9,293,547.18,291.44Zm-15.76-6.55c0-.09-.09-.17-.14-.26l.61-.47Zm-1,.84.29.24C530.54,286.17,530.47,286,530.44,285.73Zm2.64,2.15a2.81,2.81,0,0,0-.3-.54Zm-3.88,19.64c.69-1,1.39-1.94,2.09-2.89-.72.9-1.44,1.81-2.15,2.75Z"/><path d="M339.17,199.86l.63-.07a1.5,1.5,0,0,1-.81,1,12.82,12.82,0,0,0,6.9-4.51,20.58,20.58,0,0,0,3.71-7c1.3-.86,1.84-2.32,1.2-3.3s-2.27-1.08-3.65-.2a5.81,5.81,0,0,1-1.1.29,24.54,24.54,0,0,0-9.32,2.19l2.18-.42a9.71,9.71,0,0,0-2.61,1.36l.75.24c-3.54.86-6.37,4.17-6.09,7.21s3.37,4.61,6.69,3.66Z"/><path d="M348.26,201.1c-1.8.57-3.59,1.08-5.42,1.62l-.54-.06,1.49,1.2-.07-.1c-.11-2.13,1.25-4.31,2.69-6.17l.44-.74a1.43,1.43,0,0,0-.13-1.19,1.84,1.84,0,0,0-2.59-.26l-1.08.73c-3.12,1.3-6.81,4.76-5.49,8.1.31.77,1.27,1.15,2,1.66a2.68,2.68,0,0,0,3.63-.18,2.47,2.47,0,0,0,.47-3.46l.75-.36c0,.24-.07.49-.11.73-.5-1,.32-2.16.67-3.25l.93-1.25-2.75-1.43-.33.82a2.36,2.36,0,0,1,.36.1,35.13,35.13,0,0,1-1.87,4.66l-.69,2.2a1.27,1.27,0,0,0,1.52,1.19l1.13-.24-.58.05c2-1.07,3.87-2.35,5.89-3.28a.71.71,0,0,0,.46-.8A.56.56,0,0,0,348.26,201.1Z"/><path d="M343.22,206.54a1.66,1.66,0,0,0-1.11.56c0,.17,0,.26,0,.3l.85-.15C343.6,207.15,343.56,206.79,343.22,206.54Z"/><path d="M342.14,207.4l-.35.06.34,0a.25.25,0,0,0,0-.06Z"/><path d="M526.22,331a105.2,105.2,0,0,1,7,21.55,122,122,0,0,1,2.63,21.69,110.67,110.67,0,0,1-1.43,22.25,86.11,86.11,0,0,1-7.21,22.9l-.67,1.42-.8,1.43-1.63,2.84-.83,1.4-.91,1.34c-.62.88-1.21,1.78-1.86,2.64a69.85,69.85,0,0,1-8.89,9.75,63.28,63.28,0,0,1-23.12,13.26,66,66,0,0,1-13,2.73c-1.09.1-2.19.2-3.28.27l-3.29.1c-2.13,0-4.22-.07-6.27-.25a94.13,94.13,0,0,1-22.49-4.83,12.92,12.92,0,0,0-3.49-.9c-.13.11,1.19.75,2.87,1.31a96.74,96.74,0,0,0,22.54,5c1,.08,2.07.16,3.11.22l3.17.07c2.19,0,4.42-.09,6.62-.32a67.16,67.16,0,0,0,13.09-2.61,64,64,0,0,0,23.42-13.14,66.4,66.4,0,0,0,9.05-9.73c.7-.86,1.29-1.76,1.91-2.65s1.26-1.76,1.79-2.72l1.65-2.85c.52-1,1.13-1.91,1.54-2.87a85.16,85.16,0,0,0,7.44-23,112.53,112.53,0,0,0,1.58-22.34A123.72,123.72,0,0,0,534,353.16a106.32,106.32,0,0,0-6.84-21.64,18.46,18.46,0,0,0-2.15-3.76C524.78,327.74,525.35,329.18,526.22,331Z"/><path d="M243.72,376.27c1.06-.34,1-.46-.16-.3a20.08,20.08,0,0,0-3.77.88c-.88.33-.8.48.17.28C241.09,376.9,242.82,376.57,243.72,376.27Z"/><path d="M252,364.2l2.59-.53,2.59-.38,5.06-.75,4.91-.47,2.37-.24,2.32-.11c1.14-.05,2.42,0,3.38,0-.41-.2,1-.48,3.59-.36l4.85.17,4.87.45c1.63.11,3.24.41,4.87.63l2.44.37c.85.15,1.78.37,2.66.57,3.44.81,6.39,1.68,9.44,2.58s6,1.83,9,2.77c11.95,3.79,23.86,7.9,35.83,12.15s23.94,8.66,35.9,13.21,23.92,9.18,35.8,13.94a6.83,6.83,0,0,1,2.23.29,62.52,62.52,0,0,1,7.26,2.32c2.88,1.07,6.05,2.36,9.16,3.65q2.32,1,4.61,1.9c2.31.87,4.58,1.66,6.81,2.33s4.39,1.17,6.51,1.56a42.23,42.23,0,0,0,6.16.69c1,.06,1.93,0,2.86,0s1.86-.13,2.78-.28a28.94,28.94,0,0,0,18.77-10.78c.45-.64.81-1.41,1.26-2.15s.74-1.56,1.16-2.34a23.32,23.32,0,0,0,1.15-2.6c.19-.45.39-.91.58-1.38s.34-1,.5-1.51c4.05-13.9,2.68-31.87-2.62-46.72.15,1,.09,1.63-.15,1.7-.29-.08-.85-.92-1.47-2.23-.31-.65-.62-1.44-1-2.23s-.72-1.73-1.12-2.57-.78-1.7-1.22-2.48-.83-1.59-1.31-2.3c.34.49.58,1.13.89,1.68a15.77,15.77,0,0,1,.84,1.75l.81,1.82.74,2,.37,1c.12.34.22.71.32,1.06l.65,2.13c.38,1.46.75,2.93,1.07,4.42.18.87.32,1.68.43,2.42A87.59,87.59,0,0,1,495.21,382c-.35,7.44-1.73,14.56-4.22,19.89a13.08,13.08,0,0,1-.95,1.91,16.65,16.65,0,0,1-1,1.82l-.57.9c-.19.3-.41.56-.61.84s-.4.57-.62.83l-.66.77a26.56,26.56,0,0,1-2.79,2.82,26.91,26.91,0,0,1-6.61,4.07c-.62.21-1.21.51-1.86.68l-.95.31-1,.24a28.58,28.58,0,0,1-8.42.75,53.73,53.73,0,0,1-10.06-1.57c-3.56-.9-7.28-2.08-11.15-3.48s-7.78-3-12.09-4.68-8.42-3.34-12.63-5c-8.4-3.29-16.82-6.42-25.22-9.52s-16.79-6.13-25.19-9.1-16.81-5.85-25.23-8.7a25.58,25.58,0,0,1-3.76-1.46c-.6-.36-.42-.48.83-.09l31.4,9.63c10.26,3.22,20.44,6.42,30.76,9.78s20.77,6.95,31.64,10.87c2.77,1,5.3,1.92,7.85,2.8s5,1.67,7.43,2.37a66.9,66.9,0,0,0,13.42,2.77c.6.06,1.18.09,1.75.1s1.12,0,1.66,0,1.06-.05,1.58-.07.92-.12,1.38-.15a19.79,19.79,0,0,0,5-1.4A19.48,19.48,0,0,0,482,405c.24-.36.52-.66.75-1s.48-.73.73-1.1.44-.79.68-1.18.34-.8.54-1.19a22.76,22.76,0,0,0,1.07-2.59,9.19,9.19,0,0,0,.47-1.48c.15-.51.31-1,.47-1.52A59.64,59.64,0,0,0,488.22,380a77.73,77.73,0,0,0-2-16.37,67.84,67.84,0,0,0-2.28-7.61l-.66-1.77-.73-1.63-.35-.82-.37-.69-.72-1.37c-.52-.79-1-1.68-1.49-2.35a25.38,25.38,0,0,0-1.5-2.06,10.32,10.32,0,0,1-.79-1c-.28-.31-.59-.6-.86-.91s-.64-.61-.94-.94a9.72,9.72,0,0,0-1-1c-.18-.15-.36-.32-.54-.49s-.41-.33-.61-.49c-.43-.33-.8-.68-1.32-1s-.91-.71-1.46-1.06l-1.63-1.1c-2.29-1.5-5.09-3.09-8.22-4.84l-1.22-.72-1.29-.73-1.28-.75-1.05-.63-2-1.25-2.06-1.2c-2.78-1.53-5.62-3-8.59-4.34a104,104,0,0,0-19.43-6.47c-1.79-.41-3.61-.81-5.53-1.2l-6-1.15c-2.08-.39-4.35-.85-6.84-1.4-.66-.16-1.24-.28-1.94-.47l-1.06-.28-.61-.16-.16,0c-.05,0-.08-.14-.13-.2a.36.36,0,0,0-.07-.1l-.08,0-.16-.05c-.86-.27-1.73-.51-2.58-.81s-1.66-.67-2.46-1.06-1.54-.87-2.35-1.24l-1.21-.55a2.93,2.93,0,0,1-.58-.31l-.5-.44-1-.88c-.32-.3-.6-.64-.91-1a18.94,18.94,0,0,1-1.68-2c-.52-.72-1.09-1.33-1.64-2l-.21-.24c-.05-.09-.09-.2-.14-.3l-.27-.59-.56-1.19c-.33-.81-.59-1.65-.89-2.47-.15-.41-.3-.82-.41-1.24l-.17-.63c0-.21-.05-.45-.08-.68-.11-.91-.21-1.82-.28-2.72l-.12-1.35a6.92,6.92,0,0,1-.06-1.37l.13-2.78a4,4,0,0,1,.28-1.39l.41-1.39c.59-1.88,1-3.64,1.48-5.45,0-.24.4-.39.43-.6l.23-.58.21-.49.18-.43c.24-.58.49-1.15.76-1.68a58.21,58.21,0,0,1,7.65-12c.72-.93,1.57-1.82,2.37-2.71s1.7-1.75,2.7-2.61a32,32,0,0,1,3.14-2.46,26.88,26.88,0,0,1,3.59-2.16l.93-.5,1-.42,2-.79c.67-.27,1.38-.39,2.06-.6s1.4-.4,2.06-.49c1.34-.21,2.73-.47,3.95-.54.62-.06,1.3-.14,1.87-.17l1.74-.1,1.62-.11,1.53-.12a26,26,0,0,0,2.59-.39,9.08,9.08,0,0,0,1.09-.28l.89-.35a2.45,2.45,0,0,0,.7-.42c.19-.16.45-.25.56-.44a3.49,3.49,0,0,0,.63-1l.2-.48.17-.58c.11-.27.24-.84.36-1.25s.27-1,.41-1.46a57,57,0,0,0,1.46-7.27,21.48,21.48,0,0,0-.08-7.14,10,10,0,0,0-.9-2.62,8.4,8.4,0,0,0-1.29-1.72,13.69,13.69,0,0,0-2.28-1.79,25.85,25.85,0,0,0-3.18-1.74A40.75,40.75,0,0,0,417.6,216a23.36,23.36,0,0,0-4.78-.56,14.4,14.4,0,0,0-3.08.57,21.85,21.85,0,0,0-2.79,1.19c-.95.53-1.89,1.06-2.92,1.77-.24.15-.52.37-.77.55a7.54,7.54,0,0,0-.79.58l-.81.61-.13.13-.36.37c-.24.25-.48.47-.73.75l-.74.76-.75.81c-1,1.07-2.06,2.17-3.12,3.38s-2.14,2.44-3.22,3.79c-1.32,2.32-4.45,2.43-7.17.1a7.88,7.88,0,0,1-2.73-5.41l-.52.52-1.06.57a4.61,4.61,0,0,1-3.54.23l-1.64-.43c-2.81-1.17-5.86-1.39-8.81-2.7l-.71-1-.41,0a6,6,0,0,1-3.37-.95l-1-1a13.23,13.23,0,0,1-2.55-4.06,4.67,4.67,0,0,1-1.12-1.35,6.79,6.79,0,0,1-3.73-2.84.94.94,0,0,1-.94-1,1.11,1.11,0,0,1,.22-.54h0a10.41,10.41,0,0,0-1.05-.2l-.58.29-1.69,1.07a5.55,5.55,0,0,1-1.75.12c-2.54-1.05-2.55-1-3.3-1.86a2.19,2.19,0,0,1-.12-.33c-.77.27-.82.29-1,.35a2.47,2.47,0,0,1-.55,0c-.48-.36-.48-.36-.73-.41a2.21,2.21,0,0,1-.37-.27c-.24-.72-.24-.72-.37-.85a1.39,1.39,0,0,1-.1-.37l.27-.74,1.87.28-.25-.51.7.29-.58-.33.65-.1-.83,0a5.37,5.37,0,0,0,1.34-1.07,2.05,2.05,0,0,0,.63-.75,2.07,2.07,0,0,1-.28-.2c1.1-.75,1.1-.74,2.2-1.43a3.79,3.79,0,0,1,.52.08.56.56,0,0,1,.28-.57l.56-.38c0-.05,0-.11,0-.16l0,0c.08-.23.13-.4.2-.58l0-.13h0c.14-.4.32-1,.89-2.53a11.2,11.2,0,0,1,1-.52,3.23,3.23,0,0,1-.44,0c-.3,0-.54-.52-.66-.48a39,39,0,0,0-8.23,4.48,1.09,1.09,0,0,1-1.36.33.82.82,0,0,1-.08-1.26c2.2-6.44,8.74-11.3,15.56-13.37,1.58-.8,3.15-1.61,4.77-2.4l-.37-.07,1.38-.43.13-.06-1.44-.2-.77.18c-3.65,2-7.61,3-11.4,4.72-2,.92-4.11,1.4-6.18,2.21a.89.89,0,0,1-1.22,0,.85.85,0,0,1,.37-1.13,34.54,34.54,0,0,1,8.5-6.45,24.42,24.42,0,0,1,10-3,7.53,7.53,0,0,1,3.51-1.11l.06,0-1.13-.25c.93-.33,1.76,0,2.66-.25l-.88-.72c1.12-.46,2.24-1,3.38-1.45s2.28-1,3.45-1.45a24.49,24.49,0,0,1,7.17-1.78,4.82,4.82,0,0,1,.52-.11,19.91,19.91,0,0,1,2.46-1.92c.22-.15.45-.29.68-.43l.09-.06,0,0h0l.09,0c.54-.2,1.12-.37,1.67-.56,1.13-.36,2.25-.74,3.45-1a66.76,66.76,0,0,1,15.31-2.39,68.79,68.79,0,0,0-10.86,1.07c-1.78.29-3.48.69-5.2,1.09-.87.2-1.68.45-2.53.68l-1.27.36-.63.19-.25.08h0l0,0,.29-.11.66-.22,1.34-.44c.9-.29,1.77-.59,2.71-.83l2.76-.75,2.85-.62A64.59,64.59,0,0,1,404,167.52a58.62,58.62,0,0,1,12.46,1.1,63.39,63.39,0,0,1,6.18,1.54c2,.68,4.08,1.38,5.82,2.16A77.79,77.79,0,0,1,442,179.9a68.41,68.41,0,0,1,12.19,10.77,50.65,50.65,0,0,1,9.23,14.77,42.76,42.76,0,0,1,3.08,16.89,47,47,0,0,1-2.64,14.39A48,48,0,0,1,458.39,248a41.84,41.84,0,0,1-7.34,8.34c-.64.58-1.39,1.11-2.05,1.63s-1.46,1-2.16,1.43a22.45,22.45,0,0,1-2.12,1.23c-.75.36-1.48.69-2.18,1l-.93.45-1,.35c-.67.23-1.34.44-2,.65a34.62,34.62,0,0,1-4.07.69,26.88,26.88,0,0,1-3.79,0c-.59,0-1.21-.06-1.77-.11l-1.63-.2c-.56-.06-1.06-.14-1.55-.22L424.3,263c-.88-.13-1.85-.29-2.65-.36l-1.23-.12c-.41,0-.76,0-1.14,0a13.09,13.09,0,0,0-2.12.12c-2.65.3-4.66,1.75-6.64,3.84a30.42,30.42,0,0,0-5,7.91c-.36.72-.63,1.48-.93,2.22s-.53,1.51-.74,2.26a21,21,0,0,0-.56,2.24c0,.09,0,.2-.06.26l0,.16c-.05.11,0,.18-.07.27l-.12.49a6.62,6.62,0,0,0,.14,4,3,3,0,0,0,1.38,1.42,4,4,0,0,0,.94.36,2.7,2.7,0,0,0,.49.12,3.4,3.4,0,0,0,.6.07c1.29,0,2.83-.13,4.54-.32l5.34-.61a182.33,182.33,0,0,1,24.26-1.76,119.59,119.59,0,0,1,12.89.76c2.17.24,4.33.55,6.49.91s4.31.8,6.44,1.32,4.26,1.07,6.39,1.66c1.87.52,3.68,1,5.63,1.63a120.16,120.16,0,0,1,12.16,4.38,75.45,75.45,0,0,1,13,7.09,68.67,68.67,0,0,1,12.08,10.57,49.65,49.65,0,0,1,3.66,4.76,13.88,13.88,0,0,1,1.5,2.85c0,.27-.47-.15-1.26-1.08-.39-.47-.86-1.06-1.4-1.74l-1.93-2.29a65.76,65.76,0,0,0-8.11-8.07c-1.47-1.18-3-2.33-4.49-3.4s-3.06-2.07-4.61-2.93l-2.32-1.32-2.31-1.17c-1.56-.81-3.06-1.42-4.59-2.12-3-1.24-6-2.34-8.81-3.24l-2.12-.68-2.06-.61c-1.39-.42-2.68-.78-4-1.16l-4.49-1.23-4.59-1.06A116.89,116.89,0,0,0,445.24,287a142,142,0,0,0-18.05.35c-5.82.45-11.48,1.22-16.44,1.67-.62.05-1.22.11-1.79.14s-1.13.05-1.67.07c-.28,0-.53,0-.76,0s-.44,0-.6,0a8.64,8.64,0,0,1-.85-.19,3.94,3.94,0,0,1-2.7-2,4.07,4.07,0,0,1-.44-1.69,3.07,3.07,0,0,1-.07-.86,6.48,6.48,0,0,1,0-.88,10.3,10.3,0,0,1,.31-1.73c.07-.32.12-.48.26-1a14.41,14.41,0,0,1,.42-1.66c-.14.46-.28.92-.38,1.38s-.23.8-.26,1a14.57,14.57,0,0,0-.35,1.45,9.53,9.53,0,0,0-.15,1.5v.38l.05.36a1.68,1.68,0,0,1,0,.39c0,.13.05.25.07.38a3.88,3.88,0,0,0,1.51,2.54,5.4,5.4,0,0,0,.65.4c.24.08.45.22.7.28a6.25,6.25,0,0,0,.74.21l.37.1c.15,0,.26,0,.48,0,1.66,0,3.7-.07,5.84-.24l6.74-.58c4.66-.43,9.59-.78,14.6-.86a116.76,116.76,0,0,1,30.8,3.41c1.27.34,2.57.64,3.83,1l3.77,1.15c2.24.7,4.52,1.44,6.89,2.26a103.32,103.32,0,0,1,14.87,6.37A66.73,66.73,0,0,1,509,313a58.2,58.2,0,0,1,11.3,15.22c1,1.71,1.74,3.45,2.59,5.17s1.43,3.41,2.14,5.12,1.19,3.39,1.78,5.09,1,3.4,1.49,5.1a116.61,116.61,0,0,1,3.52,20.47c1.09,13.7.21,27.78-4.91,42.15-.33.89-.61,1.79-1,2.68l-1.19,2.68c-.4.89-.79,1.78-1.22,2.67L522,422l-1.51,2.62-1.67,2.5c-.55.83-1.16,1.64-1.78,2.44s-1.22,1.61-1.9,2.38a64,64,0,0,1-8.85,8.63,60.2,60.2,0,0,1-10.58,6.77,62.21,62.21,0,0,1-24.17,6.46c-1,.05-2.1.1-3.14.12l-3,0c-2-.08-4-.2-5.94-.43a90.64,90.64,0,0,1-11.29-2,131.82,131.82,0,0,1-17-5.46c-5.17-2-10.05-4.18-14.47-6.06-9-3.9-18-7.58-26.93-11.33s-17.93-7.4-27.07-11.05-18.41-7.42-28-11.15l-20-7.72L305,395.05l-4.82-1.76-4.7-1.64-2.18-.72c-.69-.21-1.57-.53-1.95-.62l-.73-.21a4.91,4.91,0,0,0-.83-.23l-2.13-.45-2.14-.46-2.14-.34c-1.43-.22-2.86-.5-4.31-.59s-2.87-.34-4.32-.41l-4.35-.19c-1.45,0-2.92,0-4.38,0l-2.19,0-2.2.16a117.78,117.78,0,0,0-17.74,2.56l-4.46,1.13c-1.49.38-3,.7-4.46,1.22l-4.47,1.4c-.74.24-1.5.44-2.24.72l-2.22.84c-3,1.13-6,2.13-8.93,3.49s-6,2.5-8.9,4c-6,2.77-11.83,6-17.79,9.39-3.1,1.9-6.15,3.66-8.58,4.93a25.12,25.12,0,0,1-4.61,2.3c-.51.06.29-.73,2-2.07.43-.33.9-.71,1.43-1.09l1.77-1.19c1.27-.83,2.71-1.76,4.27-2.74a225.77,225.77,0,0,1,37.59-19.23,145.78,145.78,0,0,1,19.45-6.12,122.85,122.85,0,0,1,19.6-2.9,104.14,104.14,0,0,1,19.36.8c1.59.27,3.19.43,4.77.81l2.36.49c.38.08.83.15,1.16.24l.88.26.88.25,1.17.38,2.39.77,5,1.75c6.83,2.45,13.76,5.09,20.69,7.76s13.89,5.39,20.84,8.16c13.89,5.56,27.82,11.19,41.73,17l20.87,8.82,10.43,4.49,10.63,4.63a139.73,139.73,0,0,0,24.37,8.34,80.35,80.35,0,0,0,14.19,2c1.25,0,2.49.06,3.75.06s2.58-.06,3.87-.18a60.14,60.14,0,0,0,22.51-6.29,58.15,58.15,0,0,0,12.95-9,61.1,61.1,0,0,0,10-11.9c.71-1.07,1.32-2.22,2-3.34s1.32-2.26,1.81-3.41a68.39,68.39,0,0,0,2.9-6.93,89.24,89.24,0,0,0,4.9-23.82,114.24,114.24,0,0,0-.72-23.06c-.08.21-.16.41-.28.42-.46.06-1-1.33-1.74-3.65a109.66,109.66,0,0,1,1.1,25.77,86.7,86.7,0,0,1-6,26.3l-2,4.58c-.7,1.52-1.58,3-2.38,4.51s-1.79,2.88-2.7,4.31-2,2.78-3.12,4.09a59.72,59.72,0,0,1-7.34,7.41,58.66,58.66,0,0,1-8.69,6,57.82,57.82,0,0,1-20,6.73,62.83,62.83,0,0,1-10.46.57,76.89,76.89,0,0,1-10-1c-12.94-2.19-24-7-34.2-11.55l-30.31-13.49-40.68-18.21c-13.16-5.87-26.1-11.58-39.18-17.09-4.2-1.56-8.39-3.08-12.52-4.48-1.06-.38-2-.66-3-1l-1.5-.48-1.24-.35c-.43-.11-.78-.24-1.28-.35l-1.5-.3-3-.61a101.33,101.33,0,0,0-24.5-1.29c-2.06.19-4.13.33-6.19.56l-6.19.94c-4.1.84-8.23,1.65-12.31,2.87l-3.07.83c-1,.3-2,.68-3,1-2,.7-4.06,1.34-6.08,2.09-4,1.66-8.06,3.09-12,5a19.8,19.8,0,0,1-3.11,1.27c-.5.11.13-.3,1.4-.92a154.06,154.06,0,0,1,33.78-12.39c1.47-.31,2.92-.72,4.39-1l4.43-.74c.73-.12,1.47-.26,2.21-.36l2.23-.22,4.46-.46a114.65,114.65,0,0,1,17.87.27c-3.7-.79-5.93-1.59-5.6-2.13.17-.32,1-.52,2.37-.66.68-.07,1.51-.11,2.45-.14.46,0,1,0,1.49,0l1.65.1c-.69-.1-1.38-.24-2.07-.31l-2.09-.2c-1.39-.11-2.78-.31-4.18-.36-2.8-.08-5.59-.29-8.4-.15-1.73.05-3.29,0-4.4,0s-1.79-.08-1.75-.23.72-.37,1.84-.57a41.86,41.86,0,0,1,4.31-.29c2.89-.16,5.78.06,8.66.13,1.44.08,2.87.26,4.31.38l2.15.2,2.13.32c1.42.24,2.86.39,4.27.69l4.22.88c.71.14,1.3.36,2,.53l1,.27,1,.33c1.38.47,2.75.88,4.15,1.4,11.2,3.93,22.42,8.36,33.58,12.8q40.44,15.48,80.32,32.38c-3.48-2-6-3.76-7-4.94h0l-12.35-5.23q-28.55-11.27-57.56-22.24c-9.67-3.63-19.37-7.26-29.11-10.68L305,380l-3.64-1.22c-1.22-.43-2.43-.8-3.63-1.17L296,377l-1.71-.45a35.14,35.14,0,0,0-3.58-.77c-1.23-.22-2.44-.52-3.68-.67-2.48-.33-4.94-.74-7.44-.88a113.26,113.26,0,0,0-30,1.54,148.38,148.38,0,0,0-29.2,8.75L216.79,386l-1.78.74-1.74.83-7,3.33c-2.3,1.18-4.55,2.46-6.83,3.67l-3.41,1.85-3.33,2-6.66,4-6.5,4.33c-4.39,2.81-8.52,6-12.77,9.07a14.27,14.27,0,0,1-2.55,1.66,10.82,10.82,0,0,1,2.09-1.74l7.64-5.61c1.25-1,2.59-1.79,3.9-2.68l3.92-2.63,3.92-2.64,4-2.44,4-2.45,2-1.22,2.07-1.12a183.51,183.51,0,0,1,34-15.21l-.1,0c-1,.26-1.19.18-.18-.27a21.15,21.15,0,0,1,3.71-1.1c1.13-.23,1.07-.06.2.27a126.38,126.38,0,0,1,33.69-5.37,108.56,108.56,0,0,1,16.91,1.15c.69.1,1.4.17,2.09.3l2.08.4,2.08.4c.35.07.7.12,1,.2l1,.26c.65.18,1.26.31,1.95.53l2,.63c1.36.4,2.73.87,4.1,1.33,11,3.68,21.94,7.78,32.83,11.83s21.72,8.23,32.52,12.4c-19.92-8.08-39.91-16-60-23.41-2.51-.93-5-1.77-7.55-2.65l-3.75-1.21c-.62-.19-1.21-.34-1.82-.51a17.24,17.24,0,0,0-1.85-.46l-3.85-.78c-1.28-.29-2.58-.41-3.87-.62-2.58-.45-5.19-.62-7.8-.86a114.56,114.56,0,0,0-31.32,2.16l-3.34.87c-1.11.3-2.23.54-3.32.93l-6.62,2.13a28.7,28.7,0,0,1-3.31,1c-.37,0,.46-.42,1.69-.88s2.45-.82,3.68-1.24c-7.68,2.25-13.63,4.1-13.74,3.49.08-.39,1.66-1.43,4.29-2.54,1.31-.58,2.86-1.23,4.59-1.91l1.32-.52,1.41-.44,3-.89a126.21,126.21,0,0,1,33.4-5.44c1.41-.06,2.83,0,4.24,0s2.83,0,4.24.15l4.23.33c1.41.08,2.8.35,4.2.52,2.82.32,5.58.94,8.36,1.46,2.76.69,5.45,1.55,8.13,2.43,2.33.75,4.66,1.48,7,2.28s4.71,1.42,7.05,2.15q-3.08-1.17-6.17-2.3c-2.06-.76-4.12-1.51-6.2-2.23s-4.17-1.42-6.27-2.1c-1.06-.33-2.15-.6-3.23-.91l-3.25-.67a109.21,109.21,0,0,0-26.39-2A131.06,131.06,0,0,0,238.71,372l-6.35,1.82-1.59.46-1.55.55L226.1,376c-4.18,1.36-8.19,3.18-12.24,4.86-1.4.57-2.64,1.21-3.59,1.59s-1.59.6-1.66.51,1.91-1.48,4.68-2.75l5.31-2.4,2.67-1.2c.89-.38,1.81-.71,2.72-1.07l5.47-2.1c1.83-.69,3.72-1.21,5.58-1.83,3.71-1.29,7.56-2.13,11.38-3.11,1.93-.43,3.88-.74,5.82-1.12,1-.17,1.94-.37,2.92-.52l3-.36c3.93-.57,7.91-.76,11.89-.95l6,0c2,.06,4,.23,6,.34a119.57,119.57,0,0,1,11.91,1.63c1,.15,2,.41,3,.67.51.13,1,.25,1.53.39l1.43.42,2.87.86,2.8.9c14.89,4.87,29.47,10.24,44.07,15.74s29.12,11.2,43.61,17c9.75,3.3,19.47,6.7,29.25,10.16,4.88,1.74,9.84,3.56,14.56,5.18A142.42,142.42,0,0,0,451.1,423c-2.26-.72-4.56-1.54-6.89-2.4-3.71-1.39-7.43-2.94-11.18-4.54l-11.46-4.82q-11.42-4.7-22.61-9C384,396.42,369.32,391,354.6,385.84s-29.37-10.25-44.48-15c-3.79-1.2-7.61-2.37-11.61-3.46l-3.24-.76-3.08-.51c-1-.17-2.05-.36-3.08-.5l-3.12-.35a121.14,121.14,0,0,0-25.26-.08,13.66,13.66,0,0,1-3.35.17c-.19-.11.95-.37,2.67-.56a121.86,121.86,0,0,1,24.66-.27l3,.33c1,.1,2,.21,3,.39l3,.48,1.5.24c.51.09,1.05.23,1.58.35,4.25,1,7.8,2.12,11.58,3.25,14.8,4.6,29.29,9.53,44.33,14.89,12.46,4.42,24.56,8.87,36.43,13.29s23.52,8.8,35,13.2c-11.6-4.89-23.15-9.51-34.68-14S366.5,388.16,355,384s-23.1-8.29-34.82-12.22c-5.86-2-11.74-3.9-17.88-5.72-1.57-.45-3.06-.91-4.9-1.32l-1.31-.31c-.45-.11-.83-.15-1.24-.23l-2.44-.41-2.44-.41-2.46-.29c-1.64-.17-3.27-.42-4.93-.52-2.3-.09-4.62-.34-6.08-.55a5,5,0,0,1-1.31.17l-5,.2c-1.71.1-3.44.3-5.2.45l-2.64.23-2.65.39c-1.77.27-3.57.51-5.35.8a22.17,22.17,0,0,1-3.83.54C249.71,364.81,250.51,364.54,252,364.2ZM362.25,197.81l-.26-.05.67-.09,1.47.53Zm-4,10h0l-.86-.25Zm55.06,82c-1.55.12-3.11.26-4.5.3a14,14,0,0,1-3.5-.12,6.16,6.16,0,0,1-2.18-.87,3.88,3.88,0,0,1-1.47-1.8,8.2,8.2,0,0,1-.21-4.63,11.1,11.1,0,0,1,.27-1.14,5.19,5.19,0,0,1,.17-.6c.08-.27.16-.65.23-1,.18-.66.41-1.33.6-2l.74-2a36.8,36.8,0,0,1,4.1-7.5,18.23,18.23,0,0,1,5.49-5.37,12.08,12.08,0,0,1,7.1-1.45c2.79.14,6,.93,10,1.19-3.9-.22-7.05-.94-9.79-1.07a12,12,0,0,0-6.92,1.31,13.45,13.45,0,0,0-2.18,1.59l-1,.93-1,1.1a32.79,32.79,0,0,0-3.56,5.24,36.36,36.36,0,0,0-2.62,5.89,28.41,28.41,0,0,0-.87,3c-.14.42-.18.63-.26.91a8.41,8.41,0,0,0-.21.83,9.63,9.63,0,0,0-.18,3.43,4.25,4.25,0,0,0,1.69,2.94,5.08,5.08,0,0,0,1.57.76,6.14,6.14,0,0,0,.84.23,3,3,0,0,0,.48.08l.68,0C408.7,290.15,411,290,413.34,289.85Zm-59.76-91.53a12.51,12.51,0,0,1,3.47.32,5.34,5.34,0,0,1,1.32-1.32,39.3,39.3,0,0,1,4.33-2.69c-.47-.23-.11-.42,0-.59l.43-.45-5,2.4C356.65,196.73,355.14,197.7,353.58,198.32ZM346,208.05h-.24l-.34-.73Zm.59,1.21.25-.11C346.94,209.39,346.81,209.38,346.54,209.26Zm2.29-1a1.77,1.77,0,0,0-.53,0Zm17.08,13.61-2.2-3.08,2.05,3Z"/><path d="M369.36,452.74a2.5,2.5,0,0,0,.07.26.52.52,0,0,1-.47-.2c1,2.26,3.64,2.76,5.81,2.3a1.1,1.1,0,0,0,1.26-1.8,1.93,1.93,0,0,1-.23-.38,8.37,8.37,0,0,0-1.64-3.31l.32.8a2.65,2.65,0,0,0-.75-.78l-.05.35a2.54,2.54,0,0,0-4.58,2.18Z"/><path d="M369.49,456.85c-.41-.69-.77-1.39-1.13-2.09v-.24l-.42.82,0,0a4.52,4.52,0,0,1,2.9.14l.36.05a.75.75,0,0,0,.5-.28.8.8,0,0,0-.1-1.14l-.4-.32c-.8-1.08-2.48-2.06-3.86-1a2.88,2.88,0,0,0-.6,1.09,1.11,1.11,0,1,0,1.85,1.24l.21.27-.32.07c.41-.38,1-.21,1.47-.25l.62.19.4-1.43h-.38a1.59,1.59,0,0,1,0,.17,10.29,10.29,0,0,1-2.15,0l-1,0a.67.67,0,0,0-.42.83l.17.45a2.1,2.1,0,0,0-.06-.24c.6.72,1.31,1.34,1.89,2.07a.28.28,0,1,0,.46-.32Z"/><path d="M366.71,455.48c-.07-.17-.13-.34-.32-.41l-.13.05c0,.1.07.23.12.36S366.62,455.66,366.71,455.48Z"/><path d="M366.26,455.12l-.05-.14v.15h.05Z"/><path d="M393.37,467.59a39.19,39.19,0,0,0,3.29,2.64s.11,0,.15-.09.05-.15,0-.17c-1.12-.83-2.22-1.7-3.27-2.65,0,0-.1,0-.15.08S393.34,467.56,393.37,467.59Z"/><path d="M398,480.42a.25.25,0,0,0-.11.19c0,.06,0,.1.1.05a.29.29,0,0,0,.11-.19C398.09,480.4,398,480.38,398,480.42Z"/><path d="M394.27,486.32a1.74,1.74,0,0,0-.73.18.05.05,0,0,1-.07-.05.41.41,0,0,1-.25.24,15.31,15.31,0,0,1-4.9-.15,2.75,2.75,0,0,1-.22.26c-.27.26-.53.32-.68.16l-.1-.15c-.45-.5-.93-1-1.37-1.48a.8.8,0,0,1-.54.05,13.4,13.4,0,0,1-2,.2.91.91,0,0,1-.13.33c-.16.27-.39.4-.51.31l-.21-.09.45.53a.16.16,0,0,1,0,.09,5.07,5.07,0,0,0,.65.35,15.31,15.31,0,0,0,6.82.68c.05,0,.1,0,.09.09s-.08.16-.13.17c-1.88.71-3.85,1.93-5.61,2.09a31,31,0,0,1-6,.05c-1.6-.92-3.45-1.12-5.36-1.58-.65-.15-1.26-.34-1.86-.54a1.9,1.9,0,0,1-.27-.11l-.42-.19-.82-.38-1.63-.8c-2.16-1.08-4.26-2.22-6.39-3.4a3.32,3.32,0,0,1-1.82-4.34,3.37,3.37,0,0,1,2.31-2l-.38-.24-.5-.54a2.89,2.89,0,0,1-.75-1.91l-.05-.91c.15-1.58-.17-3.17.12-4.75l.39-.44,0-.21a2.8,2.8,0,0,1,.08-1.74l.37-.58a7,7,0,0,1,1.67-1.63,2.32,2.32,0,0,1,.52-.68,3.37,3.37,0,0,1,1-2.07.48.48,0,0,1,.39-.56.42.42,0,0,1,.27,0h0c0-.2,0-.26,0-.5a2.69,2.69,0,0,1-.18-.23l-.62-.63a2.18,2.18,0,0,1-.19-.78c.29-1.26.29-1.26.6-1.69l.14-.1c-.17-.3-.19-.33-.23-.42a.9.9,0,0,1,0-.25c.13-.25.13-.25.14-.37a1.89,1.89,0,0,1,.09-.19c.31-.2.31-.2.36-.27a.54.54,0,0,1,.16-.09l.34,0V456l.21-.18-.09.35.11-.3.09.27-.07-.36c.38.35.38.35.56.44a.9.9,0,0,0,.38.17.69.69,0,0,1,.07-.15c.41.37.41.37.8.75a1.93,1.93,0,0,1,0,.24.23.23,0,0,1,.27,0l.22.19h.07v0l.28,0h.06l1.19-.05q.18.18.33.36c0-.06,0-.12,0-.19s.18-.33.15-.37a17,17,0,0,0-2.61-2.81.42.42,0,0,1-.23-.54.41.41,0,0,1,.54-.22,8.94,8.94,0,0,1,7.17,4q.78.69,1.59,1.35c0-.05,0-.11,0-.17l.35.45.05,0-.1-.64-.17-.26a26.29,26.29,0,0,1-3.24-3.57,22.08,22.08,0,0,1-1.47-2.11.36.36,0,0,1,.44-.58c2.44,1,4.87,2.75,5.83,5.27a2.17,2.17,0,0,1,.92,1.06h0l0-.51c.25.27.25.67.46,1l.18-.55c1.35,1.18,3.08,2,4.08,3.51l.14.14a9.06,9.06,0,0,1,2,.18l-.29-.37a1.37,1.37,0,0,1,1,.14,3.11,3.11,0,0,1,.85,3.28,47.83,47.83,0,0,0,4.85,2c.09,0,.1.17,0,.33s-.21.26-.3.23a16,16,0,0,1-3.84-.85,15.11,15.11,0,0,0,2.46,2.14l.39.14a.64.64,0,0,1,.31.28,13.11,13.11,0,0,0,3.72,1.75,28,28,0,0,0,3.63.6,12.51,12.51,0,0,1,5,1.12c.22.06.24.44.05.82s-.53.66-.75.6c-3.67-.56-7.43-.84-10.47-2.82l-1-.64-.08.16a2.31,2.31,0,0,1-.4.5,10.44,10.44,0,0,1,1,.89,6.68,6.68,0,0,1,3.61,1.22,8.9,8.9,0,0,1,1.62,2.27c1,.29,2.12.51,3.15.83.05,0,.07.06,0,.14s-.09.14-.14.14a13.14,13.14,0,0,1-2.58,0,2.42,2.42,0,0,1-.34,1,2.29,2.29,0,0,1-.71.76l.43.28c.08.06.08.24,0,.4s-.26.28-.35.23l-1.76-1.11c-.83-.23-1.65-.48-2.45-.75a3.43,3.43,0,0,1-.26.94h0l.35.17a13.91,13.91,0,0,1,7,2.26s0,.11,0,.19-.11.13-.15.1a11.58,11.58,0,0,0-1.91-1.08h0a.27.27,0,0,1-.11.19c-.05,0-.1,0-.1-.05a.24.24,0,0,1,.11-.19,14.28,14.28,0,0,0-4.06-1.06,17.09,17.09,0,0,1,3.21,1.86l.53-.09s.05.07,0,.15-.09.14-.14.14l-.14,0c.19.15.15.57-.08,1s-.62.63-.82.5a15.87,15.87,0,0,1-1.77-.83l-.23,0-.29.09c.78.67,1.54,1.37,2.29,2.08.07,0,.07.19,0,.34s-.21.24-.29.2a27.78,27.78,0,0,1-5.36-1.41l-2.63,1,.19.13c1.69,1,4.16,0,6,.56.05,0,.05.09,0,.16s-.11.14-.15.12a15.54,15.54,0,0,0-3.06,0,15.84,15.84,0,0,0-2.57.08c1.35.55,3,.45,4.44.81.07,0,.1.06.09.16a.22.22,0,0,1,.09-.08,2.29,2.29,0,0,1,.77-.19c.05,0,.07,0,0,.13A.25.25,0,0,1,394.27,486.32Zm-21.84-24a.49.49,0,0,0,0-.12c0,.09.08.18.13.27l0,.77Zm-5,0h0c0-.25,0-.43,0-.43C367.45,462.15,367.44,462.29,367.44,462.4Zm22.05,5.73a4.54,4.54,0,0,1-1.65-1.64l.53.17C388.76,467.12,389.13,467.61,389.49,468.13Zm-18.28-9.47a6,6,0,0,1,.23,1.58,2.29,2.29,0,0,1,.74.31,20.38,20.38,0,0,1,1.72,1.3c0-.26.17-.15.26-.13l.26.08c-.56-.52-1.12-1.06-1.68-1.61A17,17,0,0,1,371.21,458.66Zm-5-1.78,0-.11.3-.24Zm-.5.42.07.1C365.7,457.5,365.69,457.44,365.73,457.3Zm.63.89a1,1,0,0,0,0-.24Zm-4.68,9.57,1.23-1.38-1.22,1.3Z"/><path d="M367.51,725.46c.2,0,.41.11.61.16a1.62,1.62,0,0,1-1.12.61c5.91.77,11-3,14.07-6.84,1.47-.34,2.48-1.47,2.25-2.6s-1.67-1.87-3.21-1.53a4.74,4.74,0,0,1-1.11-.14,20.53,20.53,0,0,0-4.44-1.16,32.47,32.47,0,0,0-4.88-.2l2.16.4a10.29,10.29,0,0,0-2.91.3l.6.5c-3.6-.44-7.52,1.62-8.42,4.6s1.39,5.47,4.85,5.73Z"/><path d="M375.45,729.86c-1.86-.1-3.72-.27-5.62-.45l-.48-.25.93,1.65,0-.12c.71-2,2.78-3.55,4.8-4.72l.68-.53a1.4,1.4,0,0,0,.32-1.15,1.8,1.8,0,0,0-2.28-1.18l-1.27.27a12.63,12.63,0,0,0-5.33,1.47,5.08,5.08,0,0,0-2.83,4.13c0,.82.76,1.51,1.24,2.24a2.65,2.65,0,0,0,3.44,1.1,2.5,2.5,0,0,0,1.74-3l.83,0c-.13.21-.25.41-.37.63-.08-1.14,1.11-1.88,1.83-2.78.44-.27.88-.57,1.33-.82l-2-2.32-.62.65a2.43,2.43,0,0,1,.29.22,32.4,32.4,0,0,1-3.49,3.64l-1.47,1.82a1.24,1.24,0,0,0,1,1.64l1.14.18-.55-.16c2.23-.33,4.47-.76,6.66-.94a.72.72,0,0,0,.73-.57A.56.56,0,0,0,375.45,729.86Z"/><path d="M368.76,733.11a1.76,1.76,0,0,0-1.25.13c-.05.16-.07.25-.08.29l.84.16C368.88,733.81,369,733.46,368.76,733.11Z"/><path d="M367.43,733.53l-.35-.07.3.17,0,0Z"/><path d="M465.66,721.7q11.43,3.59,22.27,8.16c.24.11.47.11.52,0s-.12-.27-.34-.36c-7.23-3.09-14.63-5.83-22.27-8.24-.26-.07-.49,0-.55.08S465.42,721.63,465.66,721.7Z"/><path d="M514.52,753.55c-.18,0-.23.07-.1.22a.85.85,0,0,0,.52.29c.16,0,.22-.09.11-.22A.88.88,0,0,0,514.52,753.55Z"/><path d="M509.49,759.72a15,15,0,0,0-2.74-.65.88.88,0,0,1-.41-.2c0,.17-.26.23-.61.14-6.89-1.64-14-3.66-21.17-4.9a1,1,0,0,1-.43.33,3.63,3.63,0,0,1-2.63-.06l-.71-.31c-2.94-1.05-5.91-2-8.88-2.9a8.8,8.8,0,0,1-2.23,0l-8.31.43a.61.61,0,0,1,.17.53c-.14.44-.81.68-1.53.58l-1.09-.07c1,.19,2,.44,3.05.7a1.57,1.57,0,0,1,.4.13l3.46.43c5.16.55,10.23,1.11,15.29,1.74,2.53.29,5,.68,7.57,1s5,.81,7.52,1.34a.77.77,0,0,1,.52.24c0,.11,0,.22-.21.2-6.65-.48-12.68.43-19.73.3a172.24,172.24,0,0,0-24.54,1.44c-8.21-.18-15.76,1.61-23.47,4-2.85.92-5.6,1.82-8.24,2.8-5.41,2.12-10.43,4.18-15.19,6.59a3.68,3.68,0,0,1-3.68.49,6.18,6.18,0,0,1-3.17-3.11,7.73,7.73,0,0,1-.47-6l-.68.28-1.2.11a4.68,4.68,0,0,1-3.31-1.16l-1.34-1c-2.14-2.17-4.79-3.46-7-5.79l-.29-1.14-.36-.19a6.24,6.24,0,0,1-2.74-2.12l-.55-1.3a13,13,0,0,1-.86-4.63,4.81,4.81,0,0,1-.53-1.66,6.73,6.73,0,0,1-2.38-4,.91.91,0,0,1-.47-1.29,1.1,1.1,0,0,1,.39-.41h0a7.66,7.66,0,0,0-.89-.57l-.65,0-1.94.38a5.42,5.42,0,0,1-1.67-.51c-2-1.87-2-1.87-2.36-2.89,0-.12,0-.24,0-.35-.81,0-.87,0-1.1,0a2.68,2.68,0,0,1-.51-.23c-.31-.5-.31-.5-.52-.64a2.4,2.4,0,0,1-.25-.37c.06-.75.06-.75,0-.92a1.71,1.71,0,0,1,0-.38l.54-.58,1.64.91,0-.55.54.52-.42-.51.65.13-.79-.26a5.53,5.53,0,0,0,1.64-.52,2.46,2.46,0,0,0,.86-.49,3.25,3.25,0,0,1-.19-.28c1.31-.28,1.31-.28,2.58-.51a3.81,3.81,0,0,1,.45.26.58.58,0,0,1,.47-.43l.66-.15.09-.14,0,0c.16-.19.27-.32.39-.48L376,731h0l1.76-2a9.41,9.41,0,0,1,1.15-.1l-.41-.15c-.27-.12-.3-.68-.42-.69a37.59,37.59,0,0,0-9.28,1.17,1.06,1.06,0,0,1-1.38-.17.83.83,0,0,1,.4-1.2,19.35,19.35,0,0,1,8.71-5.54,26.61,26.61,0,0,1,10.44-1.14c1.7-.17,3.38-.32,5.06-.45l-.3-.2,1.37.11h.14l-1.21-.71-.74-.12a45.94,45.94,0,0,1-5.87.16c-2-.08-4-.12-6,0s-4.26-.19-6.46-.2a.89.89,0,0,1-1.11-.5c-.1-.37.26-.79.77-.9,6.2-2.87,14-4.11,19.94-2a6.24,6.24,0,0,1,3.41.25H396l-.91-.64c.92,0,1.53.59,2.38.72l-.54-1c4.41-.1,9-.9,13.09.21a3.42,3.42,0,0,1,.46,0,13.22,13.22,0,0,1,5.73-1.84c-.88-.08-1.76-.11-2.62-.17a18.35,18.35,0,0,1,5.64-.9,24.3,24.3,0,0,1,4.15.3,30.14,30.14,0,0,1,4,.87,16,16,0,0,1,6.14,3.2,191.22,191.22,0,0,1,29.89,3.34c.5.09.92.37,1,.64s-.36.41-.87.33c-7-.79-14.21-1.53-21.44-1.84,6,1.1,11.92,2.44,17.87,3.77l2.3.4a13.53,13.53,0,0,1,2.23.65c7.55,1.82,14.51,4.08,22,6.3,6.41,1.93,11.94,3.85,18.16,6.29,8.7,3.46,16.47,7.24,24,12.74,1,.69,1.77,1.65,1.64,2.11s-1.06.29-2.08-.38a171.86,171.86,0,0,0-25.6-12.72c-8.86-3.6-18-6.64-27.57-9.69-2.07-.61-4.1-1.29-6.16-1.83a.82.82,0,0,1,0,.27,1.17,1.17,0,0,1-.71.77c2.32.63,4.6,1.47,6.88,2.27a76.41,76.41,0,0,1,19.61,6c2.22,1,4.24,2.27,6.22,3.43s3.84,2.45,5.71,3.74a148.08,148.08,0,0,1,15.25,7.69.78.78,0,0,1,.41.39c0,.13-.13.14-.34,0-3.6-1.66-7.29-3.28-11-4.85.42.59.57,1.13.33,1.5s-.87.51-1.65.42l2.38,1.32c.48.28.79.64.67.83s-.59.16-1.06-.09c-1.62-.88-3.23-1.77-4.88-2.59s-3.27-1.67-5-2.43c-4.1-1.64-8.27-3-12.47-4.42a2.94,2.94,0,0,1,.78,1.61h0l1.91.69a106.3,106.3,0,0,1,34.39,15.93c.22.14.35.31.3.4s-.25,0-.44-.09a110.57,110.57,0,0,0-9.85-6.13v0c.1.13.07.24-.11.22a1.11,1.11,0,0,1-.53-.29c-.12-.15-.05-.24.11-.23a104.71,104.71,0,0,0-19.66-8.23,121.69,121.69,0,0,1,17.55,8.47l2,.72a.7.7,0,0,1,.4.37c0,.1-.17.12-.35,0l-.57-.21c1,.64,1.68,1.46,1.4,1.91s-1.44.28-2.54-.34c-1.5-.77-3-1.54-4.52-2.26s-3-1.48-4.56-2.16l-1-.37-1.11-.22c4.67,2.34,9.16,5,13.53,7.72.39.22.64.53.56.69s-.47.12-.86-.09a209.86,209.86,0,0,0-25.52-9.68l-4.71-.1-4.75.09,1.09.35c4.67,1.29,9.14,2.15,13.62,3.09a72,72,0,0,1,13.32,4c.22.09.37.25.35.34s-.21.12-.43,0a89.39,89.39,0,0,0-13.12-3.83c-1.87-.46-3.72-.82-5.51-1.18s-3.61-.58-5.39-.77c6.9,1.81,13.79,3.23,20.52,5.81a1.5,1.5,0,0,1,.71.45.27.27,0,0,1,.22,0,21.72,21.72,0,0,1,2.88.68.64.64,0,0,1,.43.34C509.85,759.73,509.7,759.77,509.49,759.72ZM389.42,732l-.21-.14.63.16,1.15,1Zm-7.28,7.74h0l-.7-.55ZM447.81,722c-2.14-.27-4.26-.63-6.39-1-1.07-.17-2.13-.37-3.2-.59s-2.14-.4-3.21-.64h3.14q2.44.47,4.86,1C444.62,721.11,446.21,721.54,447.81,722Zm-66.46,7.3a12.83,12.83,0,0,1,3,1.6,5.52,5.52,0,0,1,1.68-.74,42.77,42.77,0,0,1,4.88-.87c-.34-.39,0-.44.22-.54l.55-.26c-1.75.13-3.52.26-5.35.36A49.72,49.72,0,0,1,381.35,729.25Zm-10.64,6.22-.22-.09,0-.8S370.57,735,370.71,735.47Zm.11,1.33h.27C371.13,737.07,371,737,370.82,736.8Zm2.47-.13a1.61,1.61,0,0,0-.46-.23ZM384,755.42l-.89-3.62.77,3.52Z"/><path d="M307.38,820.09l.59,0c-.08.35-.4.6-.86.8a10.61,10.61,0,0,0,6.84-3.4,16.36,16.36,0,0,0,3.93-6.42,2.46,2.46,0,0,0,1.2-3.17,2.39,2.39,0,0,0-3.33-.66,3.89,3.89,0,0,1-1,.15,22.12,22.12,0,0,0-8.7.79l2-.06a6.81,6.81,0,0,0-2.48.94l.66.34c-3.27.38-6.11,3.17-6.16,6.13s2.63,5,5.84,4.65Z"/><path d="M315.76,822.67c-1.73.31-3.47.56-5.24.79l-.51-.14,1.28,1.4-.05-.11c.13-2.08,1.61-4,3.09-5.68l.47-.65a1.47,1.47,0,0,0,0-1.2,1.76,1.76,0,0,0-2.41-.65c-.36.18-.71.38-1.06.57-3,.88-6.74,3.63-5.93,7,.2.79,1.06,1.32,1.69,1.94a2.51,2.51,0,0,0,3.44.43,2.38,2.38,0,0,0,.82-3.29l.74-.23c-.05.23-.11.46-.17.69-.36-1.09.52-2.06.93-3.1l1-1.11-2.44-1.81-.37.76c.12.07.32.14.32.16a26.6,26.6,0,0,1-2.18,4.29l-.9,2a1.31,1.31,0,0,0,1.3,1.4l1.09,0-.55,0c2-.7,3.92-1.67,5.9-2.31a.66.66,0,0,0,.5-.73A.55.55,0,0,0,315.76,822.67Z"/><path d="M310.45,827.23a1.62,1.62,0,0,0-1.13.35v.3h.82C310.73,827.89,310.73,827.53,310.45,827.23Z"/><path d="M309.32,827.88H309l.32.1s0,0,0,0Z"/><path d="M461.24,778.05c1.13.11,2.26.18,3.37.31l3.35.43,6.69.86,6.65,1.11,3.31.54,3.29.68,6.57,1.34,6.51,1.57,3.25.79c1.08.27,2.14.59,3.22.89l6.41,1.8c.58.16,1.08.22,1.13.11s-.35-.35-.89-.48l-6.42-1.82-3.22-.9-3.24-.8-6.51-1.59-6.56-1.35-3.29-.67-3.31-.56-6.64-1.11c-2.22-.32-4.46-.58-6.69-.88s-4.47-.59-6.73-.76a2,2,0,0,0-1.2.15C460.26,777.85,460.68,778,461.24,778.05Z"/><path d="M580.94,828.17c-.39-.13-.43,0-.1.24a4.64,4.64,0,0,0,1.22.68c.32.11.37,0,.09-.24A4.75,4.75,0,0,0,580.94,828.17Z"/><path d="M574,833.39c-1.06-.48-2.08-.95-3.08-1.36s-2-.75-2.93-1a4.78,4.78,0,0,1-1-.48c0,.2-.42.15-1.19-.16a321.49,321.49,0,0,0-48.42-15.06,1.82,1.82,0,0,1-.82.26,16.8,16.8,0,0,1-6-.77l-1.75-.54c-1.78-.5-3.59-.89-5.38-1.33s-3.58-.91-5.39-1.26l-5.42-1.09L490,810l-2.72-.45a40.89,40.89,0,0,1-5.16-.19c-3.19,0-6.39.12-9.58.14l-9.6.46c.39.16.63.35.61.55s-.48.42-1.09.56a9.28,9.28,0,0,1-2.26.25l-2.6.06c2.48.1,5,.13,7.43.39a7.06,7.06,0,0,1,1,.12c2.73.12,5.49.12,8.3.34a288,288,0,0,1,70.74,12,4,4,0,0,1,1.22.54c.18.17.1.27-.33.16-14.65-3.64-27.75-4.7-44-6.31a221.58,221.58,0,0,0-57.21,1.85,147.76,147.76,0,0,0-28.27,5.78A166.19,166.19,0,0,0,389.8,837c-1.5.67-2.91,1.52-4.36,2.27l-4.27,2.28L377,844c-1.36.81-2.75,1.56-4,2.46l-1,.64-.49.33-.18.12-.63.48-1.27.92c-.84.62-1.71,1.18-2.51,1.83-1.63,1.27-3.26,2.48-4.92,3.67s-3.19,2.53-4.81,3.77a5.06,5.06,0,0,1-4,1.46,6.48,6.48,0,0,1-4.22-2.21,7.43,7.43,0,0,1-1.92-5.79l-.65.46-1.25.43a5.12,5.12,0,0,1-3.8-.3l-1.65-.67c-2.72-1.59-5.74-2.2-8.48-3.95l-.55-1.06-.4-.11a6,6,0,0,1-3.21-1.45l-.83-1.14a13.57,13.57,0,0,1-1.88-4.36,4.66,4.66,0,0,1-.9-1.51,6.8,6.8,0,0,1-3.23-3.35,1,1,0,0,1-.77-1.16,1.06,1.06,0,0,1,.27-.5h0a7.88,7.88,0,0,0-1-.35c-.37.13-.6.19-.6.19-.93.42-.93.42-1.76.76a5.15,5.15,0,0,1-1.71-.18C312.41,832,312.4,832,311.8,831c0-.11-.05-.22-.07-.33-.77.13-.83.14-1,.16a2.58,2.58,0,0,1-.53-.12c-.41-.43-.41-.43-.64-.53a2.25,2.25,0,0,1-.31-.32c-.13-.73-.13-.73-.24-.88a2,2,0,0,1,0-.37l.36-.67,1.74.59-.17-.53.62.4L311,828h.63l-.79-.1a4.64,4.64,0,0,0,1.4-.81,1.93,1.93,0,0,0,.68-.64,1.89,1.89,0,0,1-.25-.24c1.13-.55,1.13-.55,2.24-1.06a3,3,0,0,1,.48.16.55.55,0,0,1,.32-.53l.56-.29a.88.88,0,0,0,.05-.15l0,0c.1-.22.16-.38.24-.55l0-.13h0c.16-.39.39-.95,1.08-2.36a7.07,7.07,0,0,1,1-.35l-.43-.05c-.28-.06-.46-.6-.58-.58a17.44,17.44,0,0,0-2.13.53c-.68.23-1.36.5-2,.79-1.34.58-2.66,1.23-4,1.85a1,1,0,0,1-1.31.09.82.82,0,0,1,.06-1.23c2.7-6,9.14-9.75,15.48-11,1.51-.57,3-1.18,4.47-1.8l-.34-.12,1.28-.28.12,0-1.33-.36-.71.09a28.44,28.44,0,0,1-5.29,1.72c-1.8.47-3.61.94-5.41,1.54s-3.91.8-5.9,1.26a.85.85,0,0,1-1.14-.24.8.8,0,0,1,.43-1,36.12,36.12,0,0,1,8.15-5.23,20.91,20.91,0,0,1,9.17-1.75,5.66,5.66,0,0,1,3.13-.8l.05,0-1-.35c.82-.27,1.58.14,2.39,0l-.83-.83c2-.66,3.93-1.58,5.88-2.37a30.66,30.66,0,0,1,2.95-1.06,14.9,14.9,0,0,1,3.06-.48,3.29,3.29,0,0,1,.43-.09,22.15,22.15,0,0,1,1.76-2l.49-.45.15-.12.43-.24.87-.5a38.17,38.17,0,0,1,3.73-1.87c-.93.3-1.83.66-2.73,1l-2.65,1a1.92,1.92,0,0,1,.27-.17l.33-.2.68-.41,1.36-.8c.91-.54,1.85-1,2.81-1.47,1.91-.92,3.89-1.8,6-2.62,11.38-4.36,24.9-6.53,31.65-5.37A245.22,245.22,0,0,1,422,778.75a268.86,268.86,0,0,1,33.9-1.43,4.27,4.27,0,0,1,2.41.56c.11.27-.66.48-1.82.45a264.88,264.88,0,0,0-48.55,4.61,288.56,288.56,0,0,1,41.22-2c1.77,0,3.55-.07,5.34,0s3.5.22,5.24.43c17.69,1,34.15,4,51.53,8L514,790l2.7.72,5.31,1.42c1.76.44,3.47,1,5.18,1.51l5.12,1.56c3.4,1.07,6.75,2.29,10.17,3.44s6.81,2.57,10.34,3.93a282.53,282.53,0,0,1,27.92,13.11,245.93,245.93,0,0,1,25.84,16.34c2.25,1.62,4.13,3.42,4.13,4s-1.84-.29-4.09-1.89a311.39,311.39,0,0,0-27.75-16.69,320.1,320.1,0,0,0-29.49-13.56,296.48,296.48,0,0,0-31.18-10.51,312.27,312.27,0,0,0-33-7.39c-2.43-.45-4.87-.73-7.28-1.1l-3.62-.52c-1.21-.15-2.42-.25-3.63-.39a.48.48,0,0,1,.1.28c0,.36-.51.65-1.3.85l4.1.46c1.36.19,2.72.42,4.09.63l4.08.66,2,.33,2,.42a190.5,190.5,0,0,1,45.67,10.7A234.47,234.47,0,0,1,560,811.82a281.6,281.6,0,0,1,34.41,18.3,3.19,3.19,0,0,1,1,.79c.1.18-.18.1-.63-.17l-5.95-3.27-3-1.65-3.06-1.57-6.13-3.16-6.27-3c1.15,1,1.72,1.75,1.41,2.1s-1.5.2-3.15-.34l5.52,3c1.13.61,1.94,1.27,1.79,1.45s-1.12-.14-2.2-.7c-3.75-2-7.47-4-11.31-5.84-1.91-.92-3.79-1.9-5.73-2.77l-5.8-2.61a297,297,0,0,0-28.89-9.87,7.06,7.06,0,0,1,2.44,2.11h0L529,806c27.69,7.64,54.5,21,78.43,38.55.47.33.82.67.78.75s-.46-.11-.89-.41c-3.64-2.59-7.26-5.23-11-7.62-1.88-1.2-3.71-2.48-5.63-3.61l-5.73-3.44,0,0c.28.24.28.37-.1.23a5,5,0,0,1-1.19-.72c-.32-.27-.23-.35.09-.23a245.2,245.2,0,0,0-44.88-20.12,257.26,257.26,0,0,1,40.77,19.24c1.48.7,3,1.34,4.47,2.12a3.16,3.16,0,0,1,1,.75c.07.14-.27,0-.68-.17l-1.22-.63c2.41,1.51,4.06,3,3.75,3.43s-2.7-.52-5.21-2c-6.9-3.76-13.81-7.43-20.92-10.69l-2.34-1-2.42-.84a290.76,290.76,0,0,1,31.72,17.58c.89.52,1.57,1.1,1.49,1.27s-.87-.12-1.77-.65a297.55,297.55,0,0,0-28.58-14,288.87,288.87,0,0,0-30-11c-3.48-.62-7-1.1-10.47-1.63-3.53-.37-7-.81-10.6-1.1.87.18,1.74.41,2.61.64,11.11,2.61,21.43,5.16,31.57,8.25a197.51,197.51,0,0,1,30.21,11.69,2.12,2.12,0,0,1,.9.67c0,.11-.38,0-.88-.25a222,222,0,0,0-29.7-11.39l-6.34-1.94-6.28-1.66-3.09-.78-3.09-.66c-2.06-.43-4.09-.85-6.13-1.23l6.08,1.6,3,.78,3,.86,6,1.71,5.92,1.89,3,.94,2.93,1,5.87,2.12c1.94.75,3.87,1.55,5.81,2.34l2.92,1.2c1,.41,1.91.87,2.88,1.3a8.08,8.08,0,0,1,1.7,1,.76.76,0,0,1,.43.06,66,66,0,0,1,6.33,2.52,3.18,3.18,0,0,1,1.06.69C574.7,833.62,574.42,833.58,574,833.39Zm-244.61-12-.24-.08h.65l1.39.73Zm-4.67,9.44h0l-.82-.38Zm96.62-48.2-7.27.83c-1.21.11-2.42.28-3.62.46l-3.62.49c-4.84.55-9.62,1.45-14.5,2.07l6.93-1.68,2.74-.44,2.76-.32,5.52-.62c1.83-.23,3.68-.34,5.53-.45ZM321.06,820.74a12.19,12.19,0,0,1,3.28.79,5.13,5.13,0,0,1,1.34-1.15,27.93,27.93,0,0,1,4.27-2.14c-.44-.29-.09-.44,0-.59l.43-.4c-1.58.61-3.25,1.1-4.86,1.76A43,43,0,0,1,321.06,820.74Zm-8.22,8.41-.23,0-.22-.76Zm.41,1.26.26-.06C313.62,830.61,313.49,830.58,313.25,830.41Zm2.31-.61a1.87,1.87,0,0,0-.49-.12Zm14.73,16-1.71-3.36,1.57,3.29Z"/><path d="M493.1,517.33c0,.17,0,.35,0,.51-.31,0-.55-.16-.74-.48a6.24,6.24,0,0,0,3.44,4.83,10.67,10.67,0,0,0,6,.77,1.84,1.84,0,0,0,2.75-.31,2.34,2.34,0,0,0,0-3,3.07,3.07,0,0,1-.25-.78,17,17,0,0,0-1.52-6.62c.07.51.14,1,.22,1.57a5.28,5.28,0,0,0-.93-1.62c-.08.21-.18.46-.26.68a3.64,3.64,0,0,0-5.12-3,5.92,5.92,0,0,0-3.81,6.29Z"/><path d="M491.59,525.48c-.47-1.48-.85-3-1.2-4.43l.09-.48-1.14,1.52.1-.08c1.86-.49,3.64.24,5.2,1l.64.16a1.55,1.55,0,0,0,1-.46,1.67,1.67,0,0,0,.23-2.24c-.2-.23-.38-.48-.57-.72-1-2.32-3.42-4.6-6.43-3a6.53,6.53,0,0,0-1.63,2,2.24,2.24,0,0,0-.15,3.11,2,2,0,0,0,3-.2l.27.58-.62,0c.92-.64,1.84-.16,2.76-.11l1,.51,1.3-2.72-.67-.08c0,.12-.09.33-.1.33a16.52,16.52,0,0,1-3.85-.59l-1.84-.2a1.54,1.54,0,0,0-1.16,1.51l.13.95v-.5c.79,1.57,1.83,3,2.62,4.6a.49.49,0,0,0,.7.24A.61.61,0,0,0,491.59,525.48Z"/><path d="M487,522c-.06-.35-.09-.69-.41-.9l-.27.08c0,.19,0,.46.06.72C486.46,522.46,486.78,522.37,487,522Z"/><path d="M486.35,521.22l0-.3c0,.1,0,.2-.07.3h.1Z"/><path d="M613.57,563.2c1,0,1.92.11,2.89.11h8.71L631,563l2.93-.14,2.91-.26,5.85-.53,5.84-.78,2.92-.39c1-.14,1.94-.33,2.91-.5l5.83-1c.52-.08.93-.28.93-.4s-.43-.12-.91,0l-5.82,1-2.9.5-2.92.38-5.81.77-5.83.51-2.9.26-2.91.14-5.81.25c-1.93,0-3.87,0-5.79,0s-3.86,0-5.77-.12a1.48,1.48,0,0,0-1,.2C612.72,563.05,613.09,563.17,613.57,563.2Z"/><path d="M731.56,543.48c-.31.26-.25.34.15.21a4.58,4.58,0,0,0,1.2-.66c.25-.21.18-.32-.16-.2A4.64,4.64,0,0,0,731.56,543.48Z"/><path d="M732.28,552.19l-2.9,1.94c-.94.6-1.83,1.21-2.65,1.81a6,6,0,0,1-1,.52c.2.08-.13.43-.86.9-14.32,9.32-31.12,17.15-48.29,23.59a1.6,1.6,0,0,1-.61.66,19.77,19.77,0,0,1-6,2.49l-2,.45c-2,.51-3.94.9-5.91,1.36s-3.93.92-5.91,1.27l-5.95,1.08-3,.52-3,.41a48.25,48.25,0,0,1-5.49,1.42c-3.4.89-6.85,1.62-10.33,2.42s-7,1.29-10.62,1.9c.46.11.75.26.75.46s-.5.51-1.18.7a11.62,11.62,0,0,1-2.57.37l-3,.2c2.85-.06,5.73,0,8.56-.23a11.15,11.15,0,0,1,1.13,0c3.12-.31,6.26-.57,9.43-1.12a213.71,213.71,0,0,0,39.38-9.89,265.69,265.69,0,0,0,35.41-15.57,4.59,4.59,0,0,1,1.32-.57c.26,0,.27.12-.13.36-1.71,1.08-3.43,2.08-5.13,3.07l-5,3c-3.39,1.94-6.78,3.84-10.27,5.75a173.52,173.52,0,0,1-23.36,10.37,242.29,242.29,0,0,1-67,13.81,333.37,333.37,0,0,1-36.46-1.87,241.26,241.26,0,0,1-36.91-6.7c-2.15-.5-4.24-1.2-6.36-1.82l-6.3-1.93-6.2-2.23c-2.05-.76-4.13-1.47-6.14-2.35l-1.51-.64-.76-.32-.28-.11-1-.38-2.06-.78c-1.36-.54-2.74-1-4.05-1.66-2.66-1.22-5.29-2.47-7.93-3.76s-5.16-2.81-7.76-4.26a8.35,8.35,0,0,1-4.4-4.2,6,6,0,0,1,0-5.28,6.45,6.45,0,0,1,5.34-3.32l-.84-.61-1.1-1.27a6.06,6.06,0,0,1-1.51-4.16V556.1c.55-3.19.22-6.62,1.23-9.74l.93-.75v-.43a5.59,5.59,0,0,1,.64-3.53l1-1a14.28,14.28,0,0,1,3.91-2.71,5.2,5.2,0,0,1,1.27-1.21,7,7,0,0,1,2.61-3.86,1,1,0,0,1,1.47-.86h0c.08-.41.11-.53.17-1-.18-.31-.27-.5-.27-.5-.53-.77-.53-.77-1-1.45a4.4,4.4,0,0,1-.06-1.61c1.07-2.41,1.08-2.41,1.87-3.17a2.2,2.2,0,0,1,.31-.15c-.2-.65-.21-.7-.25-.88a2.33,2.33,0,0,1,.06-.5c.37-.47.37-.47.43-.69a3.33,3.33,0,0,1,.28-.35c.66-.3.66-.3.79-.44a2,2,0,0,1,.34-.12l.63.13-.38,1.69.47-.3-.31.66.33-.56.05.56,0-.73c.56.8.56.8.86,1a1.46,1.46,0,0,0,.64.43,2.15,2.15,0,0,1,.19-.29c.61.85.61.85,1.18,1.71,0,.17-.05.32-.08.48a.41.41,0,0,1,.5.13l.32.43h.14l0,0,.51.05h.11c.35,0,.86.09,2.25.16a5.17,5.17,0,0,1,.49.76c0-.13,0-.25,0-.38s.44-.61.4-.71a14.3,14.3,0,0,0-.82-1.61c-.28-.54-.58-1.06-.89-1.57-.63-1-1.31-2-1.95-3a.85.85,0,0,1,.91-1.42c5.22.72,9.1,4.41,11.52,9.18.85,1,1.73,1.87,2.62,2.79v-.34l.57.92.07.07-.06-1.26c-.08-.18-.17-.36-.26-.53a17.4,17.4,0,0,1-2.68-3.46c-.75-1.28-1.4-2.65-2.17-3.9a35.66,35.66,0,0,1-1.83-4.34.75.75,0,0,1,.09-1,.63.63,0,0,1,.92-.06,18.73,18.73,0,0,1,5.29,4.52,15.14,15.14,0,0,1,3.38,6.45,3.9,3.9,0,0,1,1.42,2.14l0,0c0-.34,0-.66,0-1,.4.55.35,1.29.68,1.85l.4-1.07c1.14,1.15,2.46,2.11,3.71,3.17a20.32,20.32,0,0,1,1.79,1.68,12.7,12.7,0,0,1,1.56,1.92,3.07,3.07,0,0,1,.25.26,17.25,17.25,0,0,1,2.16,0l.53.07.14,0,.36.16.71.32c1,.43,1.89,1,2.92,1.42-.66-.38-1.29-.81-1.91-1.25l-1.82-1.26c.66.25,1.48.6,2.2.91s1.49.65,2.25,1c1.52.63,3,1.34,4.57,2.16,8.35,4.33,17.78,9.73,22,13.81a205.43,205.43,0,0,0,27.78,6.42A199.07,199.07,0,0,0,609,562.72a3.13,3.13,0,0,1,2.06.45c.11.26-.54.51-1.53.53s-1.72.1-2.58.12h-7.78c-1.74,0-3.47-.15-5.21-.23s-3.48-.15-5.21-.3A191.49,191.49,0,0,1,568,560.36a168.08,168.08,0,0,0,35.2,5.94c1.54,0,3.1.11,4.66.1s3.07.05,4.6.17a186.68,186.68,0,0,0,46.11-5.14A240,240,0,0,0,696,549c8.86-3.8,17.13-7.87,25.28-12.12S737.32,528,745.54,523c2.13-1.4,4.32-2.38,4.83-2.18s-.82,1.54-3,3q-12.52,8.37-25.67,15.57A289.75,289.75,0,0,1,694.6,552.2a223.31,223.31,0,0,1-28.72,9.56,194.76,194.76,0,0,1-30.27,5.5c-2.22.25-4.44.34-6.63.53l-3.29.23c-1.09.06-2.19.07-3.28.11a.53.53,0,0,1,.13.26c0,.36-.36.71-1,1l3.74-.08,3.76-.22,3.78-.2,1.89-.1,1.89-.17c13.89-2.35,27.55-5.77,42.12-9.69,10-2.76,19.07-5.4,28.24-8.63a307.39,307.39,0,0,0,32.49-17.46,3.37,3.37,0,0,1,1.08-.52c.2,0,0,.2-.39.49-1.77,1.2-3.58,2.36-5.39,3.55L732,538.15l-2.8,1.69-5.65,3.37-5.8,3.19c1.4-.33,2.34-.33,2.44.12s-.67,1.32-2,2.33l5.45-2.67c1.14-.54,2.09-.84,2.16-.63s-.7.86-1.77,1.38c-3.72,1.84-7.4,3.72-11.19,5.37-1.89.84-3.74,1.74-5.65,2.53l-5.72,2.36a265.45,265.45,0,0,1-27.81,10.42,6.69,6.69,0,0,1,3.13.39h0l4.41-1.38a372.66,372.66,0,0,0,76-39.68c.47-.32.9-.52,1-.45s-.26.38-.69.66c-3.66,2.41-7.27,4.9-11,7.18-1.86,1.14-3.67,2.37-5.56,3.46l-5.62,3.34h0c.34-.13.45-.06.16.2a5.57,5.57,0,0,1-1.18.7c-.38.14-.41,0-.16-.2a384.84,384.84,0,0,1-43.24,21.4,335.62,335.62,0,0,0,40.41-18.41c1.35-.9,2.72-1.75,4.06-2.7a3.48,3.48,0,0,1,1.11-.5c.15,0-.08.27-.46.52l-1.13.77c2.44-1.39,4.52-2.12,4.75-1.65s-1.72,2.14-4.26,3.62c-6.79,3.94-13.66,7.73-20.75,11.06l-2.26,1.18-2.19,1.34a299.24,299.24,0,0,0,32.55-16.51c.89-.54,1.73-.87,1.85-.73s-.53.72-1.42,1.26a274.53,274.53,0,0,1-27.91,16.43,265.63,265.63,0,0,1-30,13.23c-3.26,1.64-6.57,3.17-9.91,4.8-3.38,1.46-6.77,3-10.26,4.47.91-.2,1.83-.45,2.75-.72a179,179,0,0,0,31.89-12.52C709.55,563.27,719,558,729,552.22a2.12,2.12,0,0,1,1.05-.42c.11.06-.19.34-.7.63-9.72,5.67-18.65,10.92-28.8,15.88l-6.27,3-6.23,2.75L685,575.42l-3.08,1.26-6.12,2.57c2.12-.73,4.21-1.48,6.3-2.24l3.11-1.13,3.06-1.26,6.07-2.52,5.94-2.75,3-1.37,2.92-1.46,5.82-2.93,5.75-3.09,2.89-1.54c1-.52,1.9-1.08,2.86-1.61a8.31,8.31,0,0,1,1.83-.86c0-.07.13-.19.32-.33,1.8-1.27,3.83-2.53,5.85-3.91a3.29,3.29,0,0,1,1.18-.55C732.9,551.65,732.7,551.88,732.28,552.19ZM495.6,537v-.24l.2.55-.21,1.51S495.6,537.87,495.6,537Zm-9.72-.94h0c.09-.5.16-.86.16-.86C486,535.52,485.92,535.8,485.88,536ZM579,564.07l-6.23-1.23c-1-.19-2.07-.45-3.08-.73l-3.06-.81a112.45,112.45,0,0,1-11.91-4l5.9,1.46,2.24.77,2.28.68,4.57,1.37c1.52.49,3.07.88,4.62,1.27ZM494.22,529.4a13.37,13.37,0,0,1,0,3.16,4,4,0,0,1,1.31.77c1,.95,2,1.86,3,2.81.12-.49.35-.27.52-.22l.48.18a41.25,41.25,0,0,1-2.86-3.39A28.77,28.77,0,0,1,494.22,529.4Zm-8.7-4.73a1.8,1.8,0,0,1,0-.22l.67-.4Zm-1.12.69.09.21C484.26,525.74,484.27,525.62,484.4,525.36Zm.83,1.93a1.54,1.54,0,0,0,0-.48Zm-12.51,17.78,2.94-2.37-2.9,2.21Z"/><path d="M631.28,615.51l-.57-.28c.12-.18.48-.2,1-.12a10.44,10.44,0,0,0-7.09-.49,9.79,9.79,0,0,0-2.45,1.17,7.33,7.33,0,0,0-1.61,1.48c-1.15.11-1.56.74-1.14,1.31a2.49,2.49,0,0,0,1.1.73,4.62,4.62,0,0,0,1.62.29,5.55,5.55,0,0,1,.89.2l1.81.69,1.94.65,2,.67c.7.21,1.4.43,2.12.67-.63-.3-1.28-.57-1.9-.82a21.3,21.3,0,0,0,2.44.62l-.59-.48c3.14,1.3,6.41,1.69,7.07.2s-1.79-4.52-5.11-5.89Z"/><path d="M623.54,610.94c.82.11,1.7.27,2.56.46s1.73.41,2.62.67l.47.29-1-1.42,0,.1c-.42,1.36-2.22,2-3.78,2.63l-.52.28a.63.63,0,0,0-.11.73,2.57,2.57,0,0,0,2.16,1.05l1.07,0a23.14,23.14,0,0,0,2.35.3,13.18,13.18,0,0,0,2.28,0c1.42-.18,2.46-.7,2.33-2-.06-.61-.85-1.41-1.37-2.13a3.83,3.83,0,0,0-3.39-1.78c-1.32.1-1.86,1-1.34,1.92l-.75-.11.27-.4c.2.86-.81,1.17-1.37,1.68l-1.06.39,2.07,1.86.46-.32c-.11-.08-.3-.19-.29-.2a14.67,14.67,0,0,1,2.78-1.82l1.24-.94c.2-.48-.28-1.16-1.06-1.51l-1.11-.41.55.25a53.73,53.73,0,0,0-6.11-.32c-.32,0-.57.14-.57.37S623.21,610.92,623.54,610.94Z"/><path d="M629.41,609.53a2.12,2.12,0,0,0,1.19.2c0-.12,0-.18,0-.21l-.82-.34C629.24,609,629.17,609.2,629.41,609.53Z"/><path d="M630.65,609.52l.35.14-.31-.21,0,0Z"/><path d="M639.74,759.23c-1,24.84-2.15,49.82-3.7,74.78,0,.84,0,1.54.21,1.59s.34-.61.37-1.38c1.61-25,2.79-49.83,3.78-74.66a2.67,2.67,0,0,0-.31-1.65C639.91,757.87,639.76,758.45,639.74,759.23Z"/><path d="M617.08,945.47c-.06-.6-.17-.57-.26,0a10,10,0,0,0-.07,2.06c0,.49.17.48.25-.05A10.35,10.35,0,0,0,617.08,945.47Z"/><path d="M608.86,940c-.28-3.5-.59-6.82-1-9.78a9.23,9.23,0,0,1-.05-1.64c-.18.2-.38-.47-.51-1.73C604.66,902,602.78,875.33,601,849a2.54,2.54,0,0,1-.65-1.12,29.32,29.32,0,0,1-1.11-9.28l.11-2.85c.18-11.55.39-23.08.8-34.56a68.78,68.78,0,0,1-.62-8.05c-.91-9.95-1.72-19.94-2.26-30.14-.21.64-.46,1-.72,1-.63-.21-1.09-2.58-1-5.33,0-1.39.07-2.78.17-4.17-.46,4-.55,8-.8,12a14.63,14.63,0,0,1-.13,1.58c-.08,4.38-.08,8.79,0,13.29.43,39.22,4,76.08,7.75,112.67a7.21,7.21,0,0,1,0,2.07c-.1.35-.26.29-.36-.38-3.49-23.07-8.22-43.05-11-69.14-1.63-15.53-3-31-4-46.49-.27-3.88-.52-7.77-.71-11.67q-.15-2.94-.31-5.86c-.09-2-.22-3.92-.21-5.88A57.71,57.71,0,0,1,591.19,733c4-8.28,9-16.37,12.81-24.51,1-2.08,1.81-4,2.71-6.33l.63-1.67c.23-.65.48-1.17.68-1.63.42-.92.82-1.7,1.13-2.49a15.69,15.69,0,0,0,1.2-9.43,13.2,13.2,0,0,0-1.74-4.36c-.44-.69-.94-1.4-1.62-2.35a19.73,19.73,0,0,1-2.19-4,16.75,16.75,0,0,1-1.06-5.26,17.85,17.85,0,0,1,.56-5.15,23.75,23.75,0,0,1,4-7.76,14.1,14.1,0,0,0,1-1.59.05.05,0,0,1,0,0v0s0,0,.1.06l.34.19c.24.12.49.22.74.32l.39.13a1,1,0,0,1,.19.08,3,3,0,0,0,.67.17h-.19l-.3,0-.2,0,.1,0c.06,0,0,0-.4.18l-.3.17c-.13.07-.21.14-.36.23l-.46.33-.1.08h0s0-.15-.18-.31l-.23-.25c-.41-.36-.74-.7-1.14-1-.8-.6-1.58-1.19-2.3-1.81a22,22,0,0,1-3.72-3.68,9.76,9.76,0,0,1-1.75-4.15,3.72,3.72,0,0,1-.14-1.21c0-.41,0-.82,0-1.23a10.69,10.69,0,0,1,.53-2.26,6.19,6.19,0,0,1,.64-1.38,6.4,6.4,0,0,1,.85-1.27,5.52,5.52,0,0,1,.46-.62l.61-.59a16.41,16.41,0,0,1,1.41-1.1,7.76,7.76,0,0,1,.79-.53,7.31,7.31,0,0,1,.87-.5c.67-.27,1.33-.56,2-.86,1.33-.57,2.83-1,4.21-1.42l2.07-.69c.43-.16.64-.25.94-.38a10.24,10.24,0,0,0,1.34-.68,1.47,1.47,0,0,0,.27-.24h0l.08.1c.18.24.46.52.58.69a6.91,6.91,0,0,0,.51.57l.29.26.19.2a3.94,3.94,0,0,0,.45.36c.17.11.21.17.34.25s.28.14.31.17l.19.08c.13,0,.2,0,.11,0a1.4,1.4,0,0,0-.34.12,1.93,1.93,0,0,0-.6.33,4.42,4.42,0,0,0-.86.63l-.18.18-.28.24a6.51,6.51,0,0,0-.54.51,6.28,6.28,0,0,0-.49.54l-.28.32c-.09.09,0,0-.06,0l-.09,0-.38-.08c-.65-.16-1.65-.4-2.72-.58-.56-.1-1.08-.19-1.75-.27l-2-.08c-.68,0-1.37-.2-2.06-.29a81.27,81.27,0,0,1-8.85-1.95l-1.67-1a3.63,3.63,0,0,0-.44-.25l-.54-.2-1.09-.4a8.68,8.68,0,0,1-1.06-.41l-.74-.56c-.48-.38-1-.75-1.44-1.14s-.93-.76-1.35-1.15l-.44-.39-.58-.52c-.79-.69-.48-1.58-1.36-2.25l-.49-.53a2.37,2.37,0,0,1-.44-.54l-.66-1.13-.55-1.15c-.17-.38-.49-.79-.72-1.18-.65-.8.08-1.59-.74-2.49l-.38-.66a4.63,4.63,0,0,1,0-.65l.06-.66c0-.1,0-.23-.09-.35l-.16-.37c-.18-.48-.56-1-.31-1.43l.17-.69.08-.34a1,1,0,0,0-.06-.38c-.12-.53-.27-1.06-.37-1.58l.57-1.37.14-.34a1.67,1.67,0,0,0,0-.39l0-.79a14.23,14.23,0,0,1,0-1.6l.1-1.62,0-.4c0-.15.14-.22.2-.33l.49-.6,1-1.22a10.72,10.72,0,0,0,.56-1.46l.52-1.49,0-.09,0,0a.24.24,0,0,1-.06-.1l-.26-.41-.13-.21s0-.07,0-.11l.09-.2.35-.81.35-.8.27-.71.54-1.32c.35-.84.73-1.72,1.11-2.55s.59-1.37.91-2a19.49,19.49,0,0,1,1-1.8,12.53,12.53,0,0,1,2.06-2.63c1.34-1.27,2.7-1.68,3.69-1,1.19.9,1.54,3.11,1.13,5.55l.64-1c.4-.45.8-.94,1.2-1.35,1.14-1.18,2.36-1.94,3.46-1.87l1.43,0c2.32.54,5.1.34,7.47,1.75l.38,1,.37,0a3.72,3.72,0,0,1,2.85,1.17l.64,1.13a12.13,12.13,0,0,1,1.22,4.23,4,4,0,0,1,.65,1.41,5.66,5.66,0,0,1,2.64,3.21.8.8,0,0,1,.57,1.08.88.88,0,0,1-.33.36h0a8.14,8.14,0,0,0,.89.45l.6-.05c1-.15,1-.15,1.84-.23a5.89,5.89,0,0,1,1.66.59c2,1.84,2.05,1.88,2.51,2.8a2.64,2.64,0,0,1,0,.28,8.2,8.2,0,0,1,1.06.27,3.32,3.32,0,0,1,.51.3c.34.5.34.5.56.66a2.4,2.4,0,0,1,.26.38c0,.6,0,.59.1.75a.9.9,0,0,1,0,.29l-.47.33-1.64-1.11.08.45-.56-.52.45.49-.64-.24.79.37a4.62,4.62,0,0,0-1.54.06,1.48,1.48,0,0,0-.77.23,2,2,0,0,1,.2.25l-2.32.07c-.17-.08-.31-.16-.45-.24,0,.14-.16.26-.38.27l-.59.06-.07.09,0,0L623,610l-.06.08h0c-.2.22-.49.53-1.29,1.33a8.42,8.42,0,0,1-1,.05l.38.11c.25.08.36.46.47.47,1.36.08,2.7.14,4,.17s2.76.08,4.19.22a1.51,1.51,0,0,1,1.33.5c.3.37.17.69-.28.76a9.92,9.92,0,0,1-3.23,1.43,24.42,24.42,0,0,1-3.84.74c-2.7.31-5.46.43-8,.51-.57.07-1.14.21-1.69.33l-1.51.36.23,0c-.25,0-.61,0-.56.15v.05h.2a3.72,3.72,0,0,1,.39.07,3.8,3.8,0,0,0,.47,0,17.85,17.85,0,0,1,3.89-.45c.76,0,1.46,0,2.24,0l2.38.12a16.6,16.6,0,0,1,2.67.36l2.77.62a1.34,1.34,0,0,1,1,.54c.14.26-.11.43-.53.39-1.25.14-2.45.17-3.77.24-.64,0-1.23,0-1.88,0h-1.85c-1.26,0-2.39-.08-3.52-.12l-1.58-.16a3.37,3.37,0,0,1-.36-.06,1.87,1.87,0,0,0-.31-.05.23.23,0,0,1-.11.05,1.45,1.45,0,0,1-.84.31h0l.49.08c-.18.11-.61,0-.81.14l.61.19a1.54,1.54,0,0,0-.46,1.31c0,.46.22.84.25,1.2a.22.22,0,0,1,.05.08l1,.29.21.07.06,0,.17.08.34.16c.46.21.92.4,1.39.59a13,13,0,0,1-1.67-.91c.65.31,1.35.56,2,.79l.24.09.13,0,.05,0,.12.08,2,1.29c.68.46,1.38.91,2.14,1.46a27.06,27.06,0,0,1,2.48,2l.46.44.51.55a11.16,11.16,0,0,1,1,1.36,6.74,6.74,0,0,1,.51.94,6.2,6.2,0,0,1,.42,1.09,9.26,9.26,0,0,1,.27,1.27,10.11,10.11,0,0,1,0,1.35,7.44,7.44,0,0,1-1.79,4.33,9.8,9.8,0,0,1-2.3,2,22.58,22.58,0,0,1-3.64,1.78l-1.16.46-.36.11a10.07,10.07,0,0,0-1.46.55,1.47,1.47,0,0,0-.62.51,1.62,1.62,0,0,1-.1.18,1.21,1.21,0,0,1,0,.19.68.68,0,0,0,.1.35,4.9,4.9,0,0,0,1,1l.28.24.14.12.06.07,0,0s0,0-.05,0h0l.17.13a16,16,0,0,1,2.66,2.62,12.53,12.53,0,0,1,2,3.71,12.92,12.92,0,0,1,.48,2,18,18,0,0,1,.08,2.06,13.81,13.81,0,0,1-.29,2,14.45,14.45,0,0,1-.57,1.72,13.63,13.63,0,0,1-.7,1.38c-.24.37-.48.75-.71,1.08a29.38,29.38,0,0,1-2.11,2.76c-.58.71-1.1,1.3-1.47,1.83a6.28,6.28,0,0,0-1.3,2.81,4.5,4.5,0,0,0,0,1.36,5.36,5.36,0,0,0,.63,1.71c.78,1.5,2,3.54,3,5.58a55.1,55.1,0,0,1,4.12,12.93c.44,2.24.71,4.55.95,6.73l.18,1.56c.07.52.16.83.26,1.32.19.9.44,1.79.65,2.67.51,1.91,1.06,3.85,1.67,5.76s1.3,3.9,2,5.84c1.4,3.89,3,7.81,4.43,11.7a99,99,0,0,1,6.26,23.36c.22,1.61.05,3-.28,3.32s-.71-.9-.89-2.51a99.12,99.12,0,0,0-3.92-16.79c-1.8-5.63-4-11.26-6-16.92-1-2.81-1.91-5.64-2.73-8.45-.41-1.4-.78-2.8-1.12-4.2l-.26-1-.22-1c-.15-.65-.29-1.3-.42-2-.26-1.16-.34-2.81-.51-4.39s-.37-3.23-.67-4.85a52.6,52.6,0,0,0-2.55-9.4,49.65,49.65,0,0,1,2.16,7.84,66,66,0,0,1,1,8c0,.65.08,1.28.15,1.85s.16,1.06.25,1.62c.21,1.12.39,2.16.66,3.38.51,2.37,1,4.7,1.71,7.11,2.5,9.53,5.88,19.19,7.52,28.89.5,2.47.88,5,1.19,7.46a46.18,46.18,0,0,1,.24,7.33c-.1,12.38-.44,24.44-.71,36.57s-.52,24.33-.66,37c-.25,21.59-.67,40.48-1.64,62-1.42,30.19-4,57.69-9.74,87.5a44.67,44.67,0,0,1-2.05,8.1c-.35.47,0-2.4.64-6.38,2.48-15.55,4.13-31,5.39-46.52s2.1-31,2.73-46.59c1.27-31.19,1.81-62.73,2.85-95.25.21-7,.41-13.91.62-20.77a.79.79,0,0,1-.37.16c-.48,0-.92-.66-1.28-1.77q-.39,11.7-1.06,23.53c.51,21.94.65,43.91-1,67.28-1.16,16-2.9,30.57-4.54,45.42-.78,18.82-1.79,37.58-3.59,56.58a8.8,8.8,0,0,1-.28,1.82c-.11.27-.14-.14-.09-.91.85-13.07,1.38-26.46,1.76-40-.5,2.13-1.05,3.39-1.54,3.22s-.91-1.83-1.14-4.36l-.46,9.19c-.11,1.89-.38,3.38-.62,3.33s-.4-1.56-.32-3.36q.75-18.75,1.49-37.46c.14-15,.21-29.92.25-44.93a10.89,10.89,0,0,1-1.85,4.32h0c0,2.33,0,4.64-.07,7q.9,31.83.27,64.3t-2.9,65.29a7.14,7.14,0,0,1-.19,1.58,6.62,6.62,0,0,1,0-1.42q1.23-19.82,1.94-39.51v.05c-.08.53-.19.63-.24,0a11.87,11.87,0,0,1,.08-2.06c.09-.61.2-.55.24-.06.87-24.46,1.07-48.76.6-72.74q-.43,33.42-1.66,66.8c.06,2.43.11,4.85.16,7.31a7.85,7.85,0,0,1-.18,1.82c-.09.19-.17-.31-.17-1s0-1.37,0-2c-.16,4.21-.65,7.46-1.11,7.39-.48-.24-.83-3.86-.78-8.24q0-17.58.08-35.08l-.1-3.79c-.11-1.27-.21-2.54-.32-3.81-.38,18.16-.73,36.28-.87,54.3a7.71,7.71,0,0,1-.26,2.9,7.08,7.08,0,0,1-.33-2.77c-1.1-31.76-2.38-63.92-3.13-96.22-1.38-10.61-2.86-21.26-4.35-32.1,0,1.36,0,2.74,0,4.12.18,17.56,1.45,33.79,2.7,49.89s2.47,32,3.07,49a4,4,0,0,1-.14,1.67c-.1.09-.22-.49-.24-1.35-.72-16.6-2.11-31.74-3.31-48.21-1-13.64-1.91-26.61-3.14-39.3.83,25.92,3,50.77,4.39,76.44a15,15,0,0,1,0,3,1.27,1.27,0,0,1,.18.64c.42,3.21.75,6.71,1,10.28a7.2,7.2,0,0,1,0,1.91C609.06,941.22,608.94,940.8,608.86,940Zm2.5-329.21.2,0-.54.07-1.12-.28S610.6,610.71,611.36,610.83Zm4.86-6.88h0l.71.31Zm7.4,99.63c-.14-.8-.28-1.6-.36-2.36l-.21-2.71c-.13-1.89-.32-3.82-.64-5.73a49.51,49.51,0,0,0-3.1-11,46.21,46.21,0,0,0-2.49-5.09,13.63,13.63,0,0,1-1.73-3.74,4.36,4.36,0,0,1,0-1.36,6.45,6.45,0,0,1,.34-1.44,9.12,9.12,0,0,1,1.73-2.74,9.11,9.11,0,0,0-1.62,2.69,5.72,5.72,0,0,0-.28,2.67c0,1.13,1.69,3.54,2.95,6.15a48.44,48.44,0,0,1,3.1,8.13,52,52,0,0,1,1.62,8.6c.16,1.45.23,2.9.32,4.29,0,.67.07,1.38.15,1.9S623.52,703,623.62,703.58Zm-5.15-92.29a19.3,19.3,0,0,1-2.82-.73,5.26,5.26,0,0,1-1.26.7c-1.21.53-2.44,1-3.55,1.53.35.13.08.25,0,.35l-.33.27c.62-.25,1.25-.5,1.88-.71s1.37-.41,2.06-.6,1.32-.34,2-.49A13.75,13.75,0,0,1,618.47,611.29Zm8.86-4,.22.11.1.64Zm-.2-1.09-.27,0C626.8,605.92,626.92,606,627.13,606.18Zm-2.37-.21a1.79,1.79,0,0,0,.45.22Zm-11.92-15.23,1.18,3.19L613,590.79Z"/></svg>