<svg id="Layer_1" data-name="Layer 1" xmlns="http://www.w3.org/2000/svg" viewBox="0 0 1080 719.12"><path d="M545.93,464.17l-.41.31a.76.76,0,0,1,0-.87,6.09,6.09,0,0,0-1.82,5.6,10.51,10.51,0,0,0,2.93,5.24,1.82,1.82,0,0,0,1.89,2,2.36,2.36,0,0,0,2.45-1.78,2.94,2.94,0,0,1,.48-.66,17,17,0,0,0,4.43-5.13l-1.14,1.1a4.74,4.74,0,0,0,.74-1.7l-.7.2a3.59,3.59,0,0,0-.62-5.85,5.92,5.92,0,0,0-7.32.68Z"/><path d="M538.48,467.8c.91-1.25,1.87-2.43,2.85-3.59l.44-.22h-1.9l.12,0c1.51,1.2,2,3.05,2.3,4.75l.25.61a1.55,1.55,0,0,0,1,.54,1.67,1.67,0,0,0,1.93-1.14,8.75,8.75,0,0,1,.23-.88c1.29-2.15,1.67-5.45-1.44-6.89a6.74,6.74,0,0,0-2.56-.14,2.25,2.25,0,0,0-2.59,1.73,2,2,0,0,0,1.94,2.26c-.1.19-.2.38-.31.56l-.41-.46c1.07.36,1.22,1.38,1.74,2.14l.2,1.13,3-.57-.33-.58a3,3,0,0,1-.33.11,16.45,16.45,0,0,1-1.8-3.42l-.94-1.59a1.53,1.53,0,0,0-1.9,0l-.69.66.4-.29c-.79,1.56-1.31,3.24-2.14,4.82a.49.49,0,0,0,.22.7A.62.62,0,0,0,538.48,467.8Z"/><path d="M538.54,462.11c.24-.25.5-.48.47-.86l-.22-.17c-.15.13-.35.3-.54.48C537.86,461.9,538.12,462.11,538.54,462.11Z"/><path d="M538.79,461.08l.23-.2-.29.13,0,0Z"/><path d="M579.64,583.89c1,1.55,2.14,3,3.21,4.49s2.16,3,3.34,4.45c2.35,2.87,4.61,5.83,7.14,8.58,1.25,1.39,2.47,2.81,3.74,4.18l3.91,4c.66.67,1.3,1.36,2,2l2,2,4.1,3.89c.38.34.75.55.85.46s-.14-.4-.49-.71a211.86,211.86,0,0,1-15.69-16c-2.51-2.74-4.78-5.69-7.11-8.55-1.18-1.42-2.21-3-3.32-4.43L581.71,586c-.55-.73-1.08-1.48-1.58-2.25-.28-.41-.59-.68-.73-.65S579.38,583.5,579.64,583.89Z"/><path d="M661.8,663.6c-.37-.08-.4,0-.08.25a3.91,3.91,0,0,0,1.19.54c.31.08.35,0,.08-.24A4.5,4.5,0,0,0,661.8,663.6Z"/><path d="M655.38,669.42c-1.08-.39-2.13-.76-3.15-1.1s-2-.71-2.92-1a4.6,4.6,0,0,1-1-.46c0,.21-.41.15-1.19-.13-3.86-1.38-7.67-3.06-11.56-4.73-2-.82-3.85-1.8-5.79-2.71s-3.9-1.84-5.79-2.88l-5.76-3.07c-1.93-1-3.79-2.17-5.69-3.26-3.84-2.14-7.51-4.57-11.25-6.88a1.78,1.78,0,0,1-.88-.07,18.14,18.14,0,0,1-5.38-3.19l-1.46-1.25c-1.53-1.18-3-2.51-4.43-3.76s-2.93-2.52-4.37-3.81l-4.23-4c-1.41-1.32-2.82-2.64-4.14-4a44.65,44.65,0,0,1-4.25-3.41c-1.35-1-2.64-2.11-3.93-3.21l-3.89-3.3c-1.32-1.1-2.55-2.29-3.81-3.47l-3.78-3.58c.18.42.22.73.06.86-.44.19-1.84-.75-3-2.23l-1.86-2.18,2.5,3.27c.85,1.08,1.74,2.11,2.6,3.17a9.22,9.22,0,0,1,.67.86l3,3.34c1,1.11,2.14,2.17,3.23,3.25A204.48,204.48,0,0,0,594.25,641a254.13,254.13,0,0,0,32.33,18.22,4.05,4.05,0,0,1,1.18.7c.16.19.06.28-.35.11-14.33-5.81-27.28-10.83-42.34-20.76a232.59,232.59,0,0,1-25.77-19.61,226.6,226.6,0,0,1-23.55-23.81,336,336,0,0,1-19.65-29.06c-1.46-2.53-3-5-4.42-7.62s-2.79-5.23-4.19-7.87-2.62-5.42-3.94-8.19c-.33-.69-.67-1.38-1-2.08l-.9-2.14c-.61-1.43-1.21-2.87-1.82-4.31l-1.22-2.94c-.39-1-.74-2-1.1-3l-2.15-6-.53-1.5-.46-1.51-.92-3c-.61-2-1.22-4-1.8-6.06l-.38-1.54-.19-.76L491,508l-.31-1.06-.61-2.12L489,500.58a160.92,160.92,0,0,1-3-17.45,8.5,8.5,0,0,1,.7-6.07,6,6,0,0,1,4.22-3.18,6.46,6.46,0,0,1,5.84,2.3v-1l.36-1.65a6.05,6.05,0,0,1,2.43-3.7l1.5-1.12c2.84-1.48,5.43-3.79,8.53-4.85l1.16.31.34-.27a5.59,5.59,0,0,1,3.22-1.58l1.41.15a14.31,14.31,0,0,1,4.51,1.52,5,5,0,0,1,1.72.31,7,7,0,0,1,4.65-.21,1,1,0,0,1,1.38.17.93.93,0,0,1,.19.49h0c.38-.18.49-.23.91-.46a5.18,5.18,0,0,1,.25-.52c.3-.88.3-.88.59-1.64a4.76,4.76,0,0,1,1.25-1c2.58-.57,2.59-.56,3.67-.38a2.11,2.11,0,0,1,.3.16c.41-.55.44-.58.56-.73a2.3,2.3,0,0,1,.44-.24c.59,0,.59,0,.81-.06a2.88,2.88,0,0,1,.45,0c.63.36.63.36.82.38a1.88,1.88,0,0,1,.3.2l.27.59-1.58.69.51.2L537,462l.65-.07-.42.38.59-.42a3.41,3.41,0,0,0-.31,1.3,1.38,1.38,0,0,0,0,.76,2.2,2.2,0,0,1,.34,0c-.32,1-.32,1-.67,1.95a3,3,0,0,1-.44.22.39.39,0,0,1,.19.48l-.15.52a.44.44,0,0,1,.08.11h0c.11.17.18.3.26.44l.07.09h0c.17.3.46.75,1.22,1.89a4.8,4.8,0,0,1-.32.85l.29-.25c.21-.15.76,0,.81-.09a44.51,44.51,0,0,0,2.75-6.58.8.8,0,0,1,.8-.8.78.78,0,0,1,.88.69,13.4,13.4,0,0,1,1.6,7.25,15.72,15.72,0,0,1-.66,3.74,18.48,18.48,0,0,1-.67,1.84c-.22.61-.47,1.22-.75,1.81-.26,1.24-.48,2.49-.69,3.75l.27-.2-.4,1s0,.07,0,.11l1-.81c.1-.17.19-.34.28-.52a16.76,16.76,0,0,1,1.19-4.2c.5-1.36,1.28-2.7,1.81-4a34.61,34.61,0,0,1,2.41-4,.76.76,0,0,1,.86-.54.63.63,0,0,1,.59.71,18.4,18.4,0,0,1-.49,6.89,14.66,14.66,0,0,1-3.16,6.53,4.19,4.19,0,0,1-.82,2.41v0c.26-.21.52-.4.78-.6-.16.65-.81,1.05-1.06,1.66l1.1-.33c-.49,3.19,0,6.52-1.2,9.67,0,.12,0,.23-.06.35a17.45,17.45,0,0,1,1.26,1.74c.09.15.17.31.25.47a.53.53,0,0,1,.06.13l.08.35c.05.25.11.49.16.73.17,1,.46,2,.64,3l-.18-2.16-.06-2.11,1.18,4.45a47.7,47.7,0,0,1,.93,4.73c.83,4.41,1.35,9.22,1.81,13.59.09,1.09.16,2.17.2,3.21s.14,2,.16,3a26.46,26.46,0,0,1-.28,5,201.08,201.08,0,0,0,11,24.89,181.9,181.9,0,0,0,14.65,23.07c.57.74.92,1.54.81,1.84s-.72-.11-1.3-.85c-2.15-2.49-4-5.2-6-7.85-1-1.31-1.91-2.71-2.83-4.09L565.32,565c-.88-1.41-1.71-2.86-2.57-4.29s-1.74-2.85-2.5-4.33l-2.34-4.43-1.17-2.21-1.07-2.27a160.32,160.32,0,0,0,15.55,30.35c.85,1.2,1.67,2.44,2.6,3.6a43.94,43.94,0,0,1,2.47,3.64l1.63,2.25,1.72,2.17,3.42,4.33c1.18,1.4,2.39,2.77,3.59,4.16s2.37,2.79,3.66,4.1l3.81,4c1.25,1.35,2.65,2.58,4,3.88s2.68,2.6,4.13,3.82l4.34,3.71c1.23,1.08,2.51,2.06,3.77,3l3.73,2.92c2.49,1.89,5,3.64,7.51,5.46s5.12,3.42,7.71,5.15,5.36,3.32,8.18,5c8,4.64,15.81,8.65,23.71,12.48s16,7.28,24.47,10.79c2.28.84,4.28,2,4.4,2.51s-1.65.28-4-.55c-9-3.24-17.91-6.83-26.59-10.84a278,278,0,0,1-25.31-13.51,216.21,216.21,0,0,1-23.73-16.57A183,183,0,0,1,589,603.24c-1.49-1.54-2.82-3.2-4.2-4.79s-2.77-3.16-4-4.83a.59.59,0,0,1-.14.26c-.27.24-.77.14-1.4-.19.74.93,1.44,1.9,2.21,2.82l2.3,2.76c1.54,1.85,3,3.75,4.68,5.53,9.76,9.29,20.18,17.8,31.49,26.76,7.81,6.1,15,11.6,22.7,16.82a299.13,299.13,0,0,0,31.93,15,2.91,2.91,0,0,1,1,.53c.12.15-.15.14-.61,0-1.93-.66-3.85-1.4-5.8-2.11l-2.91-1.08c-1-.37-1.93-.78-2.9-1.18l-5.81-2.41-5.76-2.63c1,.9,1.56,1.64,1.27,2s-1.41.27-3-.19l5.16,2.67c1,.58,1.83,1.13,1.71,1.32s-1.07,0-2.09-.56c-3.52-1.82-7.07-3.56-10.5-5.54-1.72-1-3.47-1.89-5.17-2.9l-5.08-3a250.22,250.22,0,0,1-23.89-15.39,6.35,6.35,0,0,1,1.45,2.67h0l3.58,2.61a365.87,365.87,0,0,0,73.9,35.72c.51.17.91.4.89.49s-.44,0-.9-.14c-3.94-1.45-7.91-2.8-11.79-4.38-1.94-.78-3.91-1.47-5.83-2.3l-5.77-2.42,0,0c.28.19.3.32-.07.24a4.27,4.27,0,0,1-1.21-.51c-.33-.21-.25-.3.07-.24a379.52,379.52,0,0,1-41.16-21,328.58,328.58,0,0,0,37.22,20.55c1.46.51,2.89,1.09,4.4,1.57a3,3,0,0,1,1,.57c.08.12-.25.1-.67-.05l-1.23-.42c2.45,1.08,4.2,2.28,4,2.74s-2.64-.06-5.23-1.17c-6.91-3-13.74-6.09-20.35-9.64l-2.2-1-2.29-.92a283.23,283.23,0,0,0,31.27,15.64c.92.38,1.65.84,1.6,1s-.85,0-1.78-.36a263.28,263.28,0,0,1-28.59-12,250.55,250.55,0,0,1-27.35-15.48c-3.15-1.53-6.22-3.21-9.38-4.82s-6.22-3.47-9.37-5.27c.68.59,1.42,1.13,2.14,1.69,2.32,1.74,4.57,3.48,6.9,5s4.65,3,6.95,4.5,4.69,2.72,7,4,4.72,2.48,7.05,3.72c9.43,4.77,19,9,29.07,13.39a2.1,2.1,0,0,1,.93.58c0,.12-.37,0-.89-.17-9.92-4.23-19.08-8-28.72-13L619,651.19c-1.92-1.05-3.8-2.15-5.69-3.2l-2.81-1.57c-.93-.53-1.84-1.1-2.76-1.64l-5.48-3.22,5.32,3.56c.89.58,1.77,1.18,2.67,1.73l2.72,1.64c1.81,1.08,3.6,2.16,5.42,3.2l5.51,3,2.75,1.48,2.8,1.4,5.58,2.79,5.67,2.65,2.84,1.33,2.88,1.27a7.11,7.11,0,0,1,1.7.93c.06,0,.22,0,.44.05,2,.65,4.15,1.48,6.36,2.24a3.1,3.1,0,0,1,1.1.59C656.15,669.59,655.86,669.57,655.38,669.42ZM531.69,477.85l.19-.14-.32.48-1.33.73Zm-5.06-8.34h0l.78-.38ZM559.06,558c-1.73-3.67-3.57-7.27-4.93-11.06-.7-1.88-1.47-3.73-2-5.65s-1.14-3.83-1.67-5.76l2.23,5.35c.93,2.88,2,5.7,3,8.59S557.93,555.13,559.06,558Zm-22.15-85.77a13.78,13.78,0,0,1-2.55,1.88,3.79,3.79,0,0,1,.16,1.5c-.16,1.38-.22,2.74-.44,4.08.47-.2.43.12.49.28l.13.49c.3-1.43.59-2.86,1-4.3A27.52,27.52,0,0,1,536.91,472.23Zm-1.39-9.77.19-.11.72.3ZM534.3,462l-.12.19C533.91,462.09,534,462,534.3,462Zm-1.06,1.81a1.48,1.48,0,0,0,.42-.25Zm-21.72.56,3.65.94-3.5-1Z"/><path d="M547,610.9l-.48-.26c.15-.29.49-.39.92-.38-4.81-1.88-9.21,1.33-11.39,5a2,2,0,0,0-1.61,2.5,2.42,2.42,0,0,0,2.74,1.69,3.63,3.63,0,0,1,.89.22,20.6,20.6,0,0,0,7.34,2.37l-1.67-.69a6,6,0,0,0,2.22.1c-.16-.18-.33-.39-.48-.58,2.78,1,5.63-.25,6.4-2.87a5.57,5.57,0,0,0-3.62-6.62Z"/><path d="M540.43,605.31c1.62.37,3.2.81,4.79,1.29l.39.33-.71-1.79v.12c-.69,1.87-2.46,3-4.15,4l-.57.44a1.48,1.48,0,0,0-.24,1.12,1.77,1.77,0,0,0,1.91,1.44l1-.12c2.76.37,6.55-.55,6.83-4a5.85,5.85,0,0,0-.87-2.45,2.44,2.44,0,0,0-2.82-1.78,2.12,2.12,0,0,0-1.62,2.69l-.71-.07.33-.57c0,1.14-1,1.68-1.61,2.46l-1.12.64L543,611.6l.51-.54a3.09,3.09,0,0,1-.24-.26,18.92,18.92,0,0,1,3-3l1.31-1.49a1.44,1.44,0,0,0-.71-1.79l-1-.4.46.26c-1.94-.15-3.87,0-5.79-.15a.56.56,0,0,0-.65.48A.6.6,0,0,0,540.43,605.31Z"/><path d="M546.34,603.17a1.35,1.35,0,0,0,1.07.13c.06-.16.08-.24.1-.28l-.71-.33C546.29,602.46,546.18,602.79,546.34,603.17Z"/><path d="M547.51,603l.29.14-.24-.22,0,0Z"/><path d="M453.63,642.37c-8.68,3.42-17.24,7.23-25.67,11.31-.28.14-.47.33-.43.44s.31.08.57-.06c8.45-4,17-7.82,25.65-11.22.28-.12.47-.31.45-.44S453.9,642.26,453.63,642.37Z"/><path d="M386.33,666.65c.14-.18.08-.26-.15-.19a1.67,1.67,0,0,0-.65.44c-.13.16,0,.25.15.19A1.7,1.7,0,0,0,386.33,666.65Z"/><path d="M383.76,659.26a33.11,33.11,0,0,0,2.73-2.66,1.68,1.68,0,0,1,.52-.36c-.15-.09,0-.36.34-.69,7-6.67,15.22-13.06,23.29-19.4a1.19,1.19,0,0,1,.13-.61,6.84,6.84,0,0,1,2.68-2.51l1-.52c3.89-2.23,7.76-4.46,11.7-6.55a15.63,15.63,0,0,1,2.44-2c3-2.57,6-5.16,9.16-7.63-.28,0-.5-.07-.58-.24-.15-.44.47-1.22,1.4-1.77l1.37-.87-4.15,2.13a4,4,0,0,1-.56.26q-2.21,1.31-4.39,2.77c-6.4,4.24-12.35,8.75-18.06,13.36s-11.17,9.3-16.52,14.06a1.49,1.49,0,0,1-.68.42c-.16,0-.21-.1,0-.29,6.3-6.68,11.31-13.35,19.05-20.3,9.23-8.25,18.59-16.24,28.73-24,11.18-7,21.2-14.29,32.65-21.81q6.36-4.17,12.72-7.94c6.63-4.22,13.35-7.85,20.33-11.41,3.45-2.26,7.68-1.44,9.4,1.77a6.89,6.89,0,0,1-.06,6.28l.89-.35,1.56-.21a5.6,5.6,0,0,1,4.06,1.07l1.5,1c2.31,2.22,5.25,3.73,7.35,6.27l.15,1.2.37.23a5.61,5.61,0,0,1,2.64,2.43l.39,1.38a14.2,14.2,0,0,1,.26,4.81,4.78,4.78,0,0,1,.35,1.74,7,7,0,0,1,1.94,4.29,1,1,0,0,1,.34,1.37,1,1,0,0,1-.41.36h0a9.29,9.29,0,0,0,.78.69,5.22,5.22,0,0,1,.61,0L543,595a4.9,4.9,0,0,1,1.48.81c1.58,2.21,1.58,2.21,1.82,3.3a1.86,1.86,0,0,1,0,.34c.72.17.77.19,1,.25a2.13,2.13,0,0,1,.42.33c.22.56.22.56.39.73a3.22,3.22,0,0,1,.18.42c-.12.73-.12.73-.07.92a1.78,1.78,0,0,1-.08.36l-.5.47-1.34-1.23v.56l-.43-.61.32.58-.55-.25.67.4a3.78,3.78,0,0,0-1.46.2,1.61,1.61,0,0,0-.78.32,2.72,2.72,0,0,1,.15.31c-1.14.08-1.14.08-2.26.13a3.22,3.22,0,0,1-.39-.33.45.45,0,0,1-.42.37l-.58.05-.09.12,0,.05-.36.42-.07.1h0l-1.54,1.81a5.56,5.56,0,0,1-1,0l.36.19c.24.14.27.71.38.73a41.14,41.14,0,0,0,7.92.13.92.92,0,0,1,1.15.44.79.79,0,0,1-.39,1.1c-3.91,4.23-10,5.42-15.88,4.76-1.42.13-2.83.32-4.25.51l.29.2-1.18-.07-.12,0,1.14.67.64.1c3.23-.57,6.58,0,9.9.15a42.73,42.73,0,0,1,5.26.87.81.81,0,0,1,.9.63.67.67,0,0,1-.58.8c-4.82,2-10.79,2.91-16,1a4.82,4.82,0,0,1-2.86-.06h0l.86.58c-.76,0-1.37-.48-2.1-.55l.63,1c-3.64.4-7.19,1.84-10.9,1.45l-.4,0a18.25,18.25,0,0,1-1.67,1.62,5.19,5.19,0,0,1-.46.36l-.12.09-.22.11-.44.23c-.59.29-1.21.56-1.87.81l2.81-.58a26.36,26.36,0,0,1-5.65,2.62c-5.65,1.8-12.54,2.63-16.55,1.47-10.68,4.42-21.3,9.09-31.63,14.27a1.42,1.42,0,0,1-1.32.15c-.17-.19.07-.57.6-.84,7.17-4.2,14.69-8,22.33-11.59-6.75,2.24-13.47,4.69-20.13,7.61l-2.48,1.26a18.25,18.25,0,0,1-2.56,1,259.15,259.15,0,0,0-24.54,12.55c-6.95,4.14-12.94,7.92-19.66,12.36-9.43,6.25-17.9,12.08-27.48,17.91-1.24.82-2.6,1.3-3,1s.29-1.14,1.53-2c9.54-6.75,19.05-13.39,28.9-19.73a299.78,299.78,0,0,1,31.07-17.76c2.39-1.14,4.72-2.27,7.07-3.35a.57.57,0,0,1-.18-.2,1.11,1.11,0,0,1,.14-1.1c-2.68,1.2-5.38,2.43-8.12,3.6-7,4.37-14,8.76-21.87,12.75-5.41,2.75-10.5,4.94-15.61,7.38-5.92,3.92-11.75,8-17.66,12a1.06,1.06,0,0,1-.64.29c-.14,0-.06-.17.17-.35,3.84-3.12,7.87-6.2,12-9.23-.86.18-1.48.11-1.67-.28s.12-1.07.77-1.82l-3,1.85c-.61.38-1.18.55-1.29.36s.27-.66.84-1q6-3.84,12.09-7.53c4.7-3.21,9.44-6.33,14.26-9.39a3.56,3.56,0,0,1-2.06-.2h0l-2.25,1.39c-13.1,9.53-26.64,18.89-40.41,28.23-.27.19-.53.28-.59.21s.1-.27.35-.43l12.4-8.5h0c-.2.06-.3,0-.15-.18a1.81,1.81,0,0,1,.64-.45c.24-.07.28,0,.16.19q11.48-7.95,22.63-15.95l-21.43,13.7-2.11,1.86a1.19,1.19,0,0,1-.64.28c-.11,0,0-.21.2-.38l.59-.51c-1.35.87-2.61,1.24-2.87.82s.7-1.58,2.08-2.52q5.44-3.93,11-7.65l1.15-.87,1.08-1c-5.93,3.63-11.8,7.31-17.57,11.1-.48.34-1,.52-1.08.38s.19-.53.67-.88c9.49-7.65,19.4-15,29.62-22.1l9-9.06-1.35.83a143.09,143.09,0,0,0-15.37,11.7c-4.78,4-9.43,8.09-14.65,12-.25.21-.52.3-.6.25s.05-.27.32-.46c5-3.91,9.37-7.91,14.31-12,4.08-3.37,8-6.52,11.74-9.81-8.25,5.71-15.59,12-23.41,18.08a2.82,2.82,0,0,1-1,.58.37.37,0,0,1-.12.25c-.87.92-1.86,1.86-2.89,2.78a1.17,1.17,0,0,1-.65.35C383.47,659.64,383.55,659.48,383.76,659.26Zm144.06-56.93.21.14-.6-.16-1.15-1Zm6.7-7.6h0l.65.61ZM471,630.7a90.71,90.71,0,0,1,14.43-4.87l-3.33,1.53Zm64.28-25.34a13.89,13.89,0,0,1-2.78-1.76,4.54,4.54,0,0,1-1.48.68c-1.46.37-2.91.64-4.35.87.34.38,0,.44-.15.55L526,606c1.57-.18,3.15-.3,4.78-.39A30.17,30.17,0,0,1,535.26,605.36Zm9.55-4.89.19.14,0,.79S544.9,601,544.81,600.47Zm0-1.32-.25,0C544.57,598.82,544.67,598.9,544.83,599.15Zm-2.24-.32a1.58,1.58,0,0,0,.41.3ZM534,578.62l.48,3.78-.36-3.67Z"/><path d="M571.87,545.57l.59,0c-.08.35-.4.6-.85.8a10.49,10.49,0,0,0,6.83-3.4,16.29,16.29,0,0,0,3.93-6.42,2.44,2.44,0,0,0,1.2-3.17,2.39,2.39,0,0,0-3.33-.65,4.31,4.31,0,0,1-1,.14,21.9,21.9,0,0,0-8.69.8l2-.07a7.24,7.24,0,0,0-2.49.94l.67.35c-3.28.37-6.12,3.16-6.17,6.12s2.63,5,5.84,4.65Z"/><path d="M580.26,548.14c-1.74.32-3.48.56-5.25.79l-.5-.14,1.27,1.41,0-.11c.13-2.09,1.61-4,3.09-5.69l.48-.65a1.45,1.45,0,0,0,0-1.19,1.77,1.77,0,0,0-2.41-.66c-.36.18-.71.39-1.06.58-3,.87-6.74,3.62-5.92,7,.19.79,1.06,1.31,1.68,1.93a2.53,2.53,0,0,0,3.45.44,2.39,2.39,0,0,0,.82-3.29l.74-.24c-.06.23-.12.46-.17.7-.37-1.1.51-2.07.92-3.11l1-1.11-2.43-1.8-.38.76c.12.06.33.14.32.15a25.81,25.81,0,0,1-2.18,4.29l-.89,2a1.29,1.29,0,0,0,1.29,1.4l1.1,0-.55-.06c2-.7,3.91-1.67,5.89-2.3a.68.68,0,0,0,.51-.73A.56.56,0,0,0,580.26,548.14Z"/><path d="M574.94,552.71a1.53,1.53,0,0,0-1.13.35v.3h.82C575.22,553.36,575.23,553,574.94,552.71Z"/><path d="M573.81,553.36h-.35l.32.11,0-.05Z"/><path d="M725.74,503.52c1.12.11,2.25.18,3.37.32l3.35.43,6.69.86,6.64,1.1,3.32.55,3.29.67,6.57,1.34,6.5,1.57,3.25.79c1.08.27,2.15.6,3.22.89l6.42,1.81c.57.15,1.07.22,1.13.1s-.36-.35-.89-.48l-6.43-1.82-3.21-.9-3.25-.79-6.5-1.59L752.64,507l-3.29-.68-3.31-.56-6.64-1.11c-2.22-.32-4.46-.58-6.69-.88s-4.47-.59-6.73-.76c-.6,0-1.11,0-1.19.16S725.17,503.47,725.74,503.52Z"/><path d="M845.43,553.65c-.38-.14-.42,0-.09.23a4.58,4.58,0,0,0,1.21.68c.32.11.38,0,.1-.23A4.67,4.67,0,0,0,845.43,553.65Z"/><path d="M838.44,558.86c-1.05-.47-2.07-.94-3.08-1.35s-2-.75-2.92-1.06a4.3,4.3,0,0,1-1-.48c0,.21-.42.15-1.2-.15a321.16,321.16,0,0,0-48.42-15.07,1.56,1.56,0,0,1-.82.26,17,17,0,0,1-6-.76l-1.75-.55c-1.78-.5-3.59-.88-5.38-1.33s-3.58-.9-5.39-1.25l-5.41-1.1-2.71-.55-2.72-.45a40.82,40.82,0,0,1-5.16-.18c-3.19,0-6.39.11-9.57.14l-9.61.45c.39.17.63.36.61.56s-.48.42-1.09.56a9.72,9.72,0,0,1-2.26.24l-2.6.06c2.48.11,5,.13,7.44.4a8.6,8.6,0,0,1,1,.11c2.73.12,5.49.12,8.3.34a288,288,0,0,1,70.74,12.06,4.13,4.13,0,0,1,1.23.53c.18.17.09.28-.33.16-14.65-3.64-27.75-4.7-44.06-6.31a221.07,221.07,0,0,0-57.2,1.86,147.59,147.59,0,0,0-28.27,5.77,166.3,166.3,0,0,0-26.58,10.66c-1.5.67-2.91,1.52-4.35,2.27L645.66,567l-4.12,2.45c-1.37.81-2.76,1.56-4,2.46l-1,.65-.49.32-.18.13-.63.47-1.26.92c-.84.62-1.71,1.18-2.51,1.84q-2.45,1.89-4.92,3.67c-1.65,1.2-3.19,2.52-4.82,3.76a5,5,0,0,1-4,1.47,6.57,6.57,0,0,1-4.23-2.21,7.5,7.5,0,0,1-1.92-5.8l-.65.46-1.24.44a5.19,5.19,0,0,1-3.81-.3l-1.65-.68c-2.72-1.59-5.73-2.19-8.48-3.95l-.55-1.06-.4-.1a5.94,5.94,0,0,1-3.2-1.45l-.84-1.15a13.48,13.48,0,0,1-1.88-4.36,4.91,4.91,0,0,1-.9-1.5,6.86,6.86,0,0,1-3.23-3.36,1,1,0,0,1-.77-1.16,1.09,1.09,0,0,1,.28-.49h0a9.92,9.92,0,0,0-1-.35c-.37.13-.6.19-.6.19-.93.42-.93.42-1.76.76a5.27,5.27,0,0,1-1.7-.17c-2.29-1.44-2.29-1.44-2.9-2.35,0-.11,0-.23-.07-.34l-1,.17a3,3,0,0,1-.53-.13c-.4-.43-.4-.43-.63-.52a2.74,2.74,0,0,1-.32-.32c-.12-.73-.12-.73-.23-.88a1.4,1.4,0,0,1,0-.38l.35-.66,1.75.58-.18-.53.63.4-.51-.41h.63l-.8-.09a4.5,4.5,0,0,0,1.4-.82,2.14,2.14,0,0,0,.69-.63,1.89,1.89,0,0,1-.25-.24c1.12-.56,1.12-.56,2.23-1.07a4.7,4.7,0,0,1,.49.16.56.56,0,0,1,.31-.53l.57-.29a.88.88,0,0,1,0-.15l0,0c.09-.23.16-.38.23-.56s0-.12,0-.12h0c.17-.38.39-1,1.08-2.35a7.56,7.56,0,0,1,1-.36l-.42,0c-.29,0-.47-.6-.59-.58-.72.14-1.43.32-2.13.53s-1.35.51-2,.8c-1.34.57-2.66,1.23-4,1.85a1,1,0,0,1-1.31.09.83.83,0,0,1,.06-1.23c2.7-6,9.14-9.76,15.48-11,1.51-.58,3-1.19,4.48-1.81l-.35-.11,1.28-.28.12-.06-1.33-.35-.71.09a29.17,29.17,0,0,1-5.29,1.71c-1.8.47-3.6,1-5.41,1.54s-3.91.8-5.9,1.27a.84.84,0,0,1-1.13-.24.79.79,0,0,1,.43-1.05,36.05,36.05,0,0,1,8.14-5.23,20.91,20.91,0,0,1,9.17-1.75,5.68,5.68,0,0,1,3.13-.8h0l-1-.36c.82-.26,1.58.14,2.39,0l-.83-.83c2-.66,3.93-1.58,5.89-2.37a29.47,29.47,0,0,1,2.94-1.05,13.84,13.84,0,0,1,3.06-.48,3.48,3.48,0,0,1,.44-.1,21.74,21.74,0,0,1,1.75-2c.16-.16.33-.31.5-.46a.85.85,0,0,1,.14-.11l.43-.25.88-.49a38.18,38.18,0,0,1,3.73-1.88c-.94.3-1.84.66-2.74,1l-2.65,1s.18-.12.27-.18l.34-.2.67-.4,1.37-.8a31.09,31.09,0,0,1,2.8-1.48c1.91-.92,3.89-1.8,6-2.61,11.38-4.37,24.9-6.54,31.66-5.37a245.11,245.11,0,0,1,33.54-6.19,269,269,0,0,1,33.91-1.42,4.17,4.17,0,0,1,2.4.56c.12.26-.65.47-1.81.44a265.08,265.08,0,0,0-48.56,4.62,288.63,288.63,0,0,1,41.23-2c1.77,0,3.55-.07,5.33,0s3.51.22,5.24.42c17.7,1,34.16,4,51.53,8l2.77.64,2.7.71,5.31,1.42c1.76.44,3.47,1,5.19,1.51l5.12,1.56c3.39,1.08,6.74,2.29,10.17,3.44s6.81,2.58,10.34,3.93a283.46,283.46,0,0,1,27.91,13.12,243.18,243.18,0,0,1,25.84,16.33c2.26,1.62,4.13,3.43,4.13,4s-1.83-.29-4.09-1.89A309.87,309.87,0,0,0,843.35,543a320.17,320.17,0,0,0-29.49-13.57,299.56,299.56,0,0,0-31.18-10.51,314.6,314.6,0,0,0-32.95-7.39c-2.43-.44-4.87-.72-7.29-1.09l-3.62-.52c-1.21-.15-2.42-.26-3.62-.39a.6.6,0,0,1,.1.27c0,.36-.51.65-1.3.86l4.09.45c1.37.19,2.73.42,4.09.63l4.08.66,2,.34,2,.42A189.89,189.89,0,0,1,796,523.8a235.42,235.42,0,0,1,28.53,13.49A284.47,284.47,0,0,1,859,555.59a3.4,3.4,0,0,1,1,.79c.11.18-.17.1-.63-.17L853.35,553l-3-1.65-3.05-1.58-6.14-3.16-6.27-3c1.15,1,1.73,1.76,1.42,2.1s-1.5.21-3.16-.33l5.52,3c1.14.61,1.94,1.26,1.8,1.45s-1.12-.14-2.21-.71c-3.75-2-7.47-4-11.3-5.84-1.92-.92-3.8-1.9-5.74-2.76l-5.8-2.61a292.62,292.62,0,0,0-28.89-9.88,7,7,0,0,1,2.44,2.12h0l4.49,1.38c27.69,7.64,54.5,21.06,78.43,38.55.48.33.83.67.78.76s-.46-.11-.88-.42c-3.65-2.59-7.26-5.22-11-7.62-1.88-1.2-3.71-2.48-5.63-3.61l-5.72-3.44,0,0c.27.24.27.38-.1.24a5.46,5.46,0,0,1-1.2-.72c-.31-.28-.22-.36.1-.24a244.27,244.27,0,0,0-44.89-20.11,256.8,256.8,0,0,1,40.77,19.23c1.48.7,3,1.35,4.47,2.12a3.73,3.73,0,0,1,1,.75c.06.14-.27.06-.68-.16l-1.23-.63c2.41,1.51,4.07,3,3.76,3.43s-2.7-.52-5.22-2c-6.9-3.75-13.81-7.43-20.92-10.69l-2.34-1-2.42-.83a291.84,291.84,0,0,1,31.73,17.58c.88.52,1.56,1.09,1.49,1.26s-.88-.12-1.77-.64a297.59,297.59,0,0,0-28.58-14,289,289,0,0,0-30-11c-3.47-.62-7-1.09-10.47-1.63-3.53-.37-7-.81-10.59-1.1.86.19,1.73.42,2.6.64,11.11,2.61,21.43,5.17,31.57,8.25a197.57,197.57,0,0,1,30.21,11.7,2,2,0,0,1,.9.66c0,.12-.38,0-.88-.25a223.19,223.19,0,0,0-29.69-11.39l-6.35-1.94-6.27-1.65-3.09-.79-3.1-.66c-2-.43-4.09-.85-6.12-1.23l6.08,1.6,3,.78,3,.87,6,1.7,5.92,1.89,3,1,2.93,1,5.87,2.11c1.94.76,3.87,1.56,5.81,2.35l2.91,1.19c1,.41,1.92.87,2.88,1.3a7.83,7.83,0,0,1,1.7,1,.79.79,0,0,1,.44.06,64.51,64.51,0,0,1,6.32,2.53,3.18,3.18,0,0,1,1.06.68C839.2,559.1,838.91,559.05,838.44,558.86Zm-244.61-12-.24-.08h.65l1.4.73Zm-4.67,9.45h0l-.82-.37C588.69,556,589,556.16,589.16,556.27Zm96.63-48.2-7.27.82c-1.22.11-2.42.28-3.63.46l-3.61.5c-4.85.55-9.63,1.44-14.5,2.06l6.93-1.68,2.74-.44,2.76-.32,5.51-.61c1.83-.23,3.68-.34,5.53-.46ZM585.56,546.21a12.14,12.14,0,0,1,3.27.8,5.15,5.15,0,0,1,1.34-1.16,27,27,0,0,1,4.27-2.13c-.44-.3-.09-.44,0-.59l.43-.4c-1.58.6-3.24,1.09-4.86,1.75A40.75,40.75,0,0,1,585.56,546.21Zm-8.22,8.41-.23,0-.23-.76S577.08,554.15,577.34,554.62Zm.41,1.26.25-.06C578.11,556.08,578,556.05,577.75,555.88Zm2.3-.6a1.48,1.48,0,0,0-.49-.12Zm14.73,16-1.71-3.36,1.57,3.29Z"/><path d="M378.75,97.76c.2-.07.42-.12.61-.19a1.67,1.67,0,0,1-.69,1.16,14.85,14.85,0,0,0,6.41-5.94,26,26,0,0,0,3.17-8.07c1.23-1.11,1.72-2.74,1-3.73s-2.43-.93-3.75.23a5.11,5.11,0,0,1-1.11.47A17.91,17.91,0,0,0,379.7,83a26.72,26.72,0,0,0-4.59,2.54l2.16-.85a11,11,0,0,0-2.51,2l.78.13c-3.49,1.59-5.94,5.8-5.27,9s3.87,4.24,7,2.6Z"/><path d="M387.92,97.6c-1.71.87-3.49,1.66-5.21,2.55l-.55,0,1.62,1-.08-.1c-.37-2.22.77-4.74,2-6.93l.37-.85a1.57,1.57,0,0,0-.25-1.26c-.55-.75-1.72-.71-2.62.11l-1,1c-3,1.9-6.25,6.3-4.52,9.58.4.75,1.4,1,2.17,1.36a2.58,2.58,0,0,0,3.53-.84,2.71,2.71,0,0,0,.07-3.7c.23-.16.46-.34.7-.49,0,.25,0,.51,0,.77-.63-1,.1-2.3.32-3.52.26-.5.52-1,.8-1.48l-2.89-1.1-.25.93a3.45,3.45,0,0,1,.37.06,48.13,48.13,0,0,1-1.35,5.25c-.15.82-.31,1.62-.42,2.44a1.2,1.2,0,0,0,1.64,1c.36-.15.71-.3,1.08-.44l-.56.15c.92-.72,1.82-1.49,2.7-2.25a34.34,34.34,0,0,1,2.78-2.1.8.8,0,0,0,.38-.9A.54.54,0,0,0,387.92,97.6Z"/><path d="M383.54,104.07a1.83,1.83,0,0,0-1,.78c.05.18.07.27.08.31l.81-.3C384,104.65,383.89,104.28,383.54,104.07Z"/><path d="M382.59,105.16l-.34.13h.34v-.12Z"/><path d="M415.81,241.36l-2.58,1.89c-.83.64-1.62,1.3-2.44,1.95-1.61,1.32-3.31,2.59-4.78,4l-2.28,2a29.44,29.44,0,0,0-2.22,2.08l-.5.52-.17.18-.33.36c-.21.25-.61.55-.87.86a23.69,23.69,0,0,0-3.1,4.06,6.27,6.27,0,0,0-.77,2.45,3.86,3.86,0,0,0,.64,2.45,11.86,11.86,0,0,0,4,3.13,27.14,27.14,0,0,0,4.82,2.07,3.21,3.21,0,0,0,.36.11l.49.14,1.35.42c.92.27,1.85.48,2.78.73,1.86.43,3.75.84,5.69,1.12a84.06,84.06,0,0,0,11.85,1,5,5,0,0,0,2-.23c.05-.11-.79-.22-1.79-.21a83.21,83.21,0,0,1-11.79-1c-1.92-.28-3.8-.68-5.66-1.1l-2.75-.71c-.84-.26-2-.63-2.31-.7a28.18,28.18,0,0,1-4.58-2,11.77,11.77,0,0,1-3.86-2.93,3.62,3.62,0,0,1-.68-2.29,5.7,5.7,0,0,1,.68-2.34,20.53,20.53,0,0,1,2.91-3.87c.24-.31.6-.56.85-.83l.3-.34.16-.17.07-.08.24-.24,1-1.06,1.14-1,2.27-2c.78-.67,1.47-1.37,2.31-2l2.43-1.95,2.42-2,2.57-1.89a6.25,6.25,0,0,0,1.64-1.53C417.39,240.34,416.67,240.73,415.81,241.36Z"/><path d="M586.63,234.27c-1,0-.93.1,0,.26s2.35.36,3.3.46.81,0,0-.27A15.77,15.77,0,0,0,586.63,234.27Z"/><path d="M578.76,242.28a60.39,60.39,0,0,0-13.21,3.43c-.75.28-1.6.52-2.25.7.33.07-.55.52-2.26,1.17-16.91,6.44-33.59,15.6-51.13,24.73-8.78,4.55-17.81,9.08-27.25,13.13a193.65,193.65,0,0,1-29.6,10.16,6,6,0,0,1-1.67.83,41.83,41.83,0,0,1-6.13,1.74c-1.31.26-2.72.51-4.2.75s-3,.37-4.59.52-3.16.18-4.75.23a116.37,116.37,0,0,1-14.45-.32,98,98,0,0,1-14.45-2.27l-1.79-.42-1.79-.49-2-.56a16.43,16.43,0,0,1-2.23-.7c-1.47-.52-2.95-1-4.4-1.57l-4.31-1.76a67.35,67.35,0,0,1-15.12-9.43,28.28,28.28,0,0,1-5.26-5.28,19.41,19.41,0,0,1-3.52-7.64,21.84,21.84,0,0,1-.43-7.42,30.46,30.46,0,0,1,1.7-7.19,33.42,33.42,0,0,1,3.3-6.89c1.48-2.23,3-4.46,4.45-6.7.75-1.12,1.49-2.26,2.35-3.34.43-.56.82-1.11,1.27-1.66l1.42-1.66,2.56-3c.67-.83,1.39-1.58,2.1-2.33l4.33-4.55c1.47-1.48,3-2.87,4.5-4.31-.88.58-1.48.86-1.61.7-.07-.55,2.56-3.54,6.06-6.27,1.74-1.42,3.47-2.9,5.23-4.2-1.29.91-2.56,1.9-3.83,2.91l-3.82,3c-2.53,2-5,4.24-7.5,6.36-.69.67-1.35,1.27-1.95,1.8l-3.93,3.87c-.66.64-1.26,1.37-1.89,2.06l-2.67,3c-.45.51-.94,1-1.35,1.53l-1.21,1.53c-.83,1-1.55,2.07-2.27,3.12l-4.38,6.34-1.2,1.74c-.35.59-.65,1.18-1,1.78A32.78,32.78,0,0,0,361,253c-.49,1.21-.88,2.45-1.28,3.69s-.61,2.51-.82,3.78a30.94,30.94,0,0,0-.36,3.86,25.4,25.4,0,0,0,.24,3.89,21.89,21.89,0,0,0,.87,3.83c.19.62.41,1.23.64,1.83s.55,1.17.83,1.74a27.91,27.91,0,0,0,4.36,6.16,34.36,34.36,0,0,0,2.73,2.66c1,.83,2.09,1.6,3.13,2.41a68.13,68.13,0,0,0,14.37,7.86l3.92,1.49,4,1.31c.66.21,1.32.45,2,.64s1.3.31,1.95.47l3.09.73a101.27,101.27,0,0,0,12.2,1.83,115.08,115.08,0,0,0,23.87-.4c15.62-1.93,30-6.6,43.33-12.28s25.76-12.35,37.87-18.83a20.91,20.91,0,0,1,2.8-1.34c.51-.15.48,0-.39.5-15,8.55-29.28,17.13-45.7,24.27a159.66,159.66,0,0,1-26.68,9.05A116.13,116.13,0,0,1,416,305.38c-.86,0-1.72-.06-2.58-.12l-2.6-.22c-1.73-.11-3.47-.36-5.21-.58s-3.48-.56-5.22-.85c-.87-.14-1.74-.35-2.61-.54l-3.06-.71a11.4,11.4,0,0,1-1.82-.5l-1.79-.57-3.59-1.16L384,298.81l-1.77-.66a13.4,13.4,0,0,1-1.73-.73l-3.34-1.66c-1.12-.55-2.25-1.09-3.28-1.73l-3.18-1.85c-.51-.32-1.09-.6-1.56-.95l-1.39-1.08a48.88,48.88,0,0,1-5.34-4.46,35.55,35.55,0,0,1-4.19-5.16l-.89-1.41c-.27-.48-.54-1-.79-1.47a26.15,26.15,0,0,1-1.39-3.1c-.37-1.08-.73-2.18-1-3.29s-.48-2.26-.61-3.4a34.13,34.13,0,0,1,1.21-13.49,36.63,36.63,0,0,1,2.43-6.53l.78-1.61c.31-.53.67-1,1-1.57l2-3.14,4.09-6.31a56.31,56.31,0,0,1,4.83-6.26L372.4,226c.56-.65,1.1-1.34,1.69-2l3.49-3.7c2.32-2.53,4.75-4.77,7.18-7.08l1.82-1.73,1.85-1.62,3.71-3.23c9.93-8.48,20.08-15.78,29.69-22.8,10.25-7.05,19.63-13.73,27.68-20.64,1.05-.85,2-1.72,2.93-2.6l2.84-2.61c1-.86,1.76-1.78,2.64-2.65l2.58-2.65a63.27,63.27,0,0,0,7.71-10.27c.55-.84.91-1.67,1.39-2.48s.8-1.62,1.07-2.39A23.68,23.68,0,0,0,472,133.3a15.17,15.17,0,0,0,.36-3.48,11.72,11.72,0,0,0-.39-2.6,15.14,15.14,0,0,0-2.69-4.92,16.49,16.49,0,0,0-5-4.21,20.05,20.05,0,0,0-8.87-2,25.56,25.56,0,0,0-5.39.49,26.07,26.07,0,0,0-5.2,1.65c-.41.19-.8.34-1.23.58l-.64.31a.26.26,0,0,0-.11.08l-.35.27c-.23.19-.46.36-.69.52-.46.4-.93.71-1.38,1.1A58.3,58.3,0,0,0,435,126a2.56,2.56,0,0,1-2.77,1,9.14,9.14,0,0,1-4.22-2,8.59,8.59,0,0,1-3.26-5l-.46.43-1,.43a5,5,0,0,1-3.47,0l-1.66-.42c-2.92-1.12-5.92-1.22-9-2.29l-.82-.87h-.41a6.42,6.42,0,0,1-3.43-.64l-1.11-.88a13.45,13.45,0,0,1-3-3.7,5,5,0,0,1-1.27-1.23,6.78,6.78,0,0,1-4-2.4.93.93,0,0,1-1-.93,1.16,1.16,0,0,1,.14-.58h0a6.89,6.89,0,0,0-1.06-.06l-.53.37c-.82.7-.82.7-1.55,1.3a5.24,5.24,0,0,1-1.7.4c-2.62-.67-2.63-.65-3.47-1.37l-.16-.32c-.71.41-.77.44-1,.54a2.69,2.69,0,0,1-.56.07c-.51-.29-.51-.29-.77-.3a2.75,2.75,0,0,1-.39-.21c-.32-.7-.32-.7-.47-.81a2.13,2.13,0,0,1-.14-.38c.11-.52.16-.72.18-.81l1.87,0-.31-.48.72.18-.61-.24.62-.22-.81.19a7.11,7.11,0,0,0,1.2-1.34,2.43,2.43,0,0,0,.53-.88,2.22,2.22,0,0,1-.3-.16c1-1,1-1,2-1.83a2.23,2.23,0,0,1,.52,0,.64.64,0,0,1,.22-.64l.52-.47a.88.88,0,0,1,0-.17l0,0c.05-.26.09-.44.13-.65a.42.42,0,0,1,0-.14h0l.65-2.77a8.84,8.84,0,0,1,1-.69l-.44.07c-.3,0-.59-.48-.71-.43a35,35,0,0,0-7.74,6,1.12,1.12,0,0,1-1.31.58.89.89,0,0,1-.22-1.31A20.89,20.89,0,0,1,385.34,90a27.29,27.29,0,0,1,9.29-6.56c1.6-1,3.14-2,4.76-3l-.39-.06,1.4-.55.14-.08-1.5-.12-.78.24c-3.63,2.4-7.64,3.9-11.36,6.28-2,1.28-4.07,2.08-6,3.3-.42.4-1,.47-1.24.15s-.14-.89.27-1.29c4.25-6.15,11.36-11.66,18.22-12.49a7.48,7.48,0,0,1,3.56-1.45l.06,0-1.17-.2c.94-.42,1.78-.17,2.72-.43l-.94-.75c4.5-2.22,9.13-5.2,14.08-5.65a5.18,5.18,0,0,1,.53-.14A29.31,29.31,0,0,1,419.3,65l.66-.51a1.66,1.66,0,0,1,.23-.13l1.29-.54c.87-.35,1.73-.72,2.63-1.05a78,78,0,0,1,11.48-3.25c-1.37.26-2.73.5-4.08.79s-2.7.64-4,1-2.66.78-4,1.2l-3.65,1.27,0,0,.23-.1.51-.22,1-.43c.69-.28,1.37-.58,2.07-.85,1.42-.51,2.84-1.05,4.28-1.51a78.61,78.61,0,0,1,8.82-2.27A76,76,0,0,1,482,63.26a73.28,73.28,0,0,1,12.11,6.9,66.85,66.85,0,0,1,17.61,18.56,62.9,62.9,0,0,1,5.13,10,53.1,53.1,0,0,1,4,17.51c.22,1.07.42,2.14.55,3.24s.3,2.19.39,3.3l.18,3.33c.07,1.12,0,2.18,0,3.28a60.25,60.25,0,0,1-.48,6.46c-.12,1.07-.33,2.1-.5,3.15s-.37,2.1-.63,3.1l-.75,3-.91,2.94c-.3,1-.64,1.94-1,2.87s-.71,1.88-1.1,2.8A84.62,84.62,0,0,1,511.34,164a103.9,103.9,0,0,1-13.09,17.26c-2.36,2.54-4.85,5-7.29,7.2l-3.67,3.35c-1.23,1.13-2.5,2.1-3.75,3.16a317.32,317.32,0,0,1-30.42,21.79c-10,6.5-19.79,12.54-28.7,18.86a14.09,14.09,0,0,1-4.06,2.33c-.35-.08.71-1.14,2.53-2.47,12.59-9.35,27-18.11,41.59-28.31a254.69,254.69,0,0,0,21.67-17l5.23-4.86c1.74-1.67,3.48-3.47,5.16-5.3a107.91,107.91,0,0,0,9.52-11.94,100.8,100.8,0,0,1-8.14,9.89c-.71.77-1.43,1.53-2.16,2.26s-1.45,1.5-2.2,2.2l-2.24,2.13-2.24,2-4.49,3.93-4.6,3.66-2.31,1.81-2.34,1.71-4.67,3.41c-12.51,8.74-25.26,16.24-37.24,23.9l-4.53,3L424.46,231l-4.31,3c-1.42,1-2.91,1.92-4.28,2.92-1.72,1.3-3.43,2.61-5.13,3.91l-4.85,4c-1.6,1.36-3,2.79-4.57,4.17l-1.14,1c-.37.35-.7.73-1.05,1.09l-.46.49-.23.26-.47.53c-.29.36-.75.75-1.08,1.15l-1,1.26a28.46,28.46,0,0,0-1.95,2.57,12.41,12.41,0,0,0-1.43,2.87,5.9,5.9,0,0,0-.22,3.17,5.52,5.52,0,0,0,1.64,2.72,13.55,13.55,0,0,0,2.63,1.88,31.54,31.54,0,0,0,5.86,2.73c.5.19,1,.33,1.53.49l.78.24.45.1.64.18,1.39.4,1.43.32c.95.22,1.9.46,2.88.62a76,76,0,0,0,12,1.31,95.77,95.77,0,0,0,10.46-.25c3.46-.31,6.83-.71,10.26-1.35a141.91,141.91,0,0,0,20.22-5.35c13.42-4.54,26.65-10.77,41.13-17.82,10.19-5,20.4-9.93,31-14.38,5.29-2.22,10.68-4.31,16.19-6.17a122.74,122.74,0,0,1,17.64-4.79,59.84,59.84,0,0,1,21-.37,44.25,44.25,0,0,1,21,9.81,55.74,55.74,0,0,1,13.37,16.94,76.28,76.28,0,0,1,6.66,18.93c1.51,6.65,1.83,12.48,1.5,13.26s-1.23-3.57-2.54-10A81.14,81.14,0,0,0,625,253.6a54.71,54.71,0,0,0-13.31-17.5,43.65,43.65,0,0,0-9.92-6.45,42.79,42.79,0,0,0-11.42-3.43,60.2,60.2,0,0,0-21.49,1c-3.28.69-6.42,1.54-9.45,2.47s-5.9,1.9-8.81,2.93c-5.79,2.07-11.43,4.37-17,6.78-11,4.82-21.66,10.09-32.14,15.1s-20.85,9.77-31.38,13.61a142.48,142.48,0,0,1-31.88,8,87.92,87.92,0,0,1-31.51-1.88l-1.86-.54c-.51-.14-.89-.23-1.28-.37-.77-.26-1.56-.47-2.32-.78s-1.53-.58-2.27-.93-1.49-.69-2.22-1.08-1.43-.8-2.14-1.21a17.47,17.47,0,0,1-2-1.39,6.85,6.85,0,0,1-2.7-4,7.16,7.16,0,0,1,.56-4.16,17.19,17.19,0,0,1,2.13-3.64c.87-1.11,1.76-2.18,2.64-3.26.42-.53,1-1,1.4-1.49s.68-.78,1.64-1.78c-.14,0-.29,0-.35,0-.26-.25.06-1.16,1-2.38-.49.46-1,.9-1.45,1.39l-1.2,1.26c-.53.57-1.05,1.15-1.69,1.77-1.16,1.29-2.24,2.65-3.37,4a19,19,0,0,0-2.69,4.53,7.38,7.38,0,0,0-.29,5.19,8,8,0,0,0,2.34,2.87,19.06,19.06,0,0,0,3.12,2,40.37,40.37,0,0,0,6.67,3c1.13.42,2.29.73,3.43,1.06l.47.11.54.14,1.3.35c.87.24,1.77.39,2.65.6a79.68,79.68,0,0,0,10.9,1.55,100.72,100.72,0,0,0,11.28.2q5.72-.27,11.47-1.1a154.8,154.8,0,0,0,23.53-5.56,334.58,334.58,0,0,0,31.52-12c10.24-4.37,20.37-8.94,30.89-13.28,6.55-3,13.22-5.86,20.08-8.44q5.15-1.93,10.44-3.62a107.58,107.58,0,0,1,11.09-2.95A63.85,63.85,0,0,1,582,228.85,43.75,43.75,0,0,1,595,230.53c1.09.29,2.15.72,3.22,1.09s2.12.86,3.11,1.4a39.13,39.13,0,0,1,5.74,3.51,46,46,0,0,1,9.23,9.14,16,16,0,0,1,1.79,2.7c.18.45-.28-.1-1.09-1.19a45.44,45.44,0,0,0-13.12-12,37.29,37.29,0,0,0-8.55-3.74,40.44,40.44,0,0,0-9-1.56,59.07,59.07,0,0,0-17.09,1.61c-2.69.61-5.31,1.34-7.87,2.14-1.28.39-2.53.81-3.77,1.23s-2.5.85-3.73,1.3c3.24-.77,5.27-.9,5.15-.41s-2.43,1.68-6,3.23c4.46-1.52,8.93-3,13.64-4.12,2.91-.7,5.29-1,5.25-.7s-2.34.86-5.07,1.53A204.54,204.54,0,0,0,539.64,245c-8.79,3.64-17.35,7.65-25.84,11.66-10.13,5-20.15,9.93-30.37,14.28a192.4,192.4,0,0,1-31.36,10.63,30.78,30.78,0,0,1,6.53-.27h0c3.32-.94,6.61-1.92,9.85-3.05,14.84-5.36,29.1-12.49,43.51-19.67s29.11-14.42,44.78-19.79c7.79-2.64,16-5.06,24.87-5.29a38.69,38.69,0,0,1,13.28,1.88,34.46,34.46,0,0,1,11.76,6.79c6.81,5.93,11.37,13.84,14.11,22s4,16.59,5,24.78a8.62,8.62,0,0,1,.14,2.38,6.48,6.48,0,0,1-.44-2.09c-1.26-9.86-2.75-20.08-6.91-29.73a50,50,0,0,0-8.4-13.37,36.88,36.88,0,0,0-13-9.53l.08,0c.79.41.89.58,0,.27s-2.39-.86-3.18-1.2c-1-.34-.83-.43,0-.27A40.75,40.75,0,0,0,579.23,234a72.23,72.23,0,0,0-14.13,2.59,212.29,212.29,0,0,0-26.12,9.6c-16.89,7.37-32.82,16.1-49.08,23.61,15.22-6.73,30.08-14.51,45.52-21.27a244.27,244.27,0,0,1,23.65-9.06,105.5,105.5,0,0,1,12.37-3.27,54.88,54.88,0,0,1,13-1,35.39,35.39,0,0,1,11.5,1.92,12,12,0,0,1,2.63,1.33c.22.22-.5-.09-1.54-.49a31.35,31.35,0,0,0-3.09-1.07,25.44,25.44,0,0,1,7.47,3.89c1.66,1.3,2.45,2.29,2.25,2.45-.62.23-5.14-3.12-11.52-4.82a38.36,38.36,0,0,0-13.07-1,71.54,71.54,0,0,0-12.91,2.44,212.68,212.68,0,0,0-24.74,8.92c-1.74.76-3.46,1.57-5.19,2.35s-3.4,1.72-5.09,2.61c6.21-2.79,12.49-5.44,18.86-7.82,3.18-1.19,6.38-2.31,9.62-3.33s6.47-2,9.75-2.73c6.54-1.5,13.32-2.2,19.8-1a30,30,0,0,1,9.16,3.34,33.1,33.1,0,0,1,7.62,6.09c1.58,1.6,2.62,3.24,2.5,3.39s-1.32-1.2-2.86-2.79a29.72,29.72,0,0,0-14.26-8.34,39.89,39.89,0,0,0-16.82,0,106.72,106.72,0,0,0-16.85,4.9c-5.57,2-11.07,4.3-16.52,6.73-21.79,9.74-42.79,22.07-66,30.87a179.12,179.12,0,0,1-23.23,8.47,122.82,122.82,0,0,1-25.26,4.48c1.1,0,2.2,0,3.31-.06s2.22-.06,3.32-.16c14.15-.95,27.12-4.57,39.14-9.06A313.69,313.69,0,0,0,506.32,271c10.79-5.62,21.31-11.38,32.2-16.58,5.45-2.59,11-5,16.68-7.26a119.33,119.33,0,0,1,17.48-5.52,7.65,7.65,0,0,1,2.37-.27c.14.06-.65.31-1.85.53a113.66,113.66,0,0,0-16.92,5.32c-5.51,2.13-10.86,4.51-16.16,7-10.61,5-21,10.71-32,16.44-9.15,4.74-18.25,9.28-27.53,13.28A198.52,198.52,0,0,1,452,293.88a176.48,176.48,0,0,0,28.75-9.37c9.12-3.81,17.84-8.08,26.38-12.44,17.05-8.7,33.51-17.79,51.14-24.27a30.73,30.73,0,0,1,4.13-1.29,3,3,0,0,1,.83-.42,70.43,70.43,0,0,1,14-4,10.53,10.53,0,0,1,2.61-.16C580.34,242,579.79,242.13,578.76,242.28Zm-177-149.57-.27,0,.67-.15,1.54.48Zm-3.15,10.67h0l-.89-.17Zm84.46,87c2.15-1.79,4.22-3.75,6.33-5.62s4.19-4,6.22-6.12a106.74,106.74,0,0,0,11.31-14.13,77.72,77.72,0,0,0,8.78-17.26,64,64,0,0,0,3.77-20.64,62.53,62.53,0,0,1-3,20.37,81.25,81.25,0,0,1-14.49,25.1,114.09,114.09,0,0,1-9.22,9.86c-.81.74-1.61,1.53-2.43,2.23l-2.43,2.1C486.34,187.64,484.75,189.1,483.08,190.38ZM393,94a11,11,0,0,1,3.53,0,6.18,6.18,0,0,1,1.24-1.52A35,35,0,0,1,402,89.33c-.5-.22-.15-.45,0-.63l.42-.51-2.46,1.41-2.46,1.48C396,92,394.52,93.17,393,94Zm-6.63,11.18-.24,0-.41-.69Zm.74,1.15.23-.16C387.53,106.41,387.41,106.43,387.13,106.34Zm2.14-1.38a1.53,1.53,0,0,0-.52,0Zm18.45,11.64-2.53-2.79c.79.92,1.57,1.84,2.37,2.75Z"/><path d="M629.36,40.34l-.41.31a.75.75,0,0,1-.05-.88,6.12,6.12,0,0,0-1.82,5.61A10.44,10.44,0,0,0,630,50.62a1.81,1.81,0,0,0,1.89,2,2.35,2.35,0,0,0,2.45-1.77,2.94,2.94,0,0,1,.48-.66,16.92,16.92,0,0,0,4.42-5.14l-1.13,1.11a4.55,4.55,0,0,0,.73-1.7l-.69.2a3.59,3.59,0,0,0-.62-5.85,5.92,5.92,0,0,0-7.32.68Z"/><path d="M621.91,44c.9-1.25,1.86-2.43,2.85-3.59l.44-.22h-1.9l.12,0c1.5,1.2,2,3.05,2.3,4.75l.25.61a1.55,1.55,0,0,0,1,.54A1.67,1.67,0,0,0,628.89,45c.06-.3.14-.59.23-.89,1.29-2.14,1.67-5.45-1.44-6.88a6.75,6.75,0,0,0-2.56-.14,2.24,2.24,0,0,0-2.59,1.73A2,2,0,0,0,624.47,41l-.31.56-.41-.46c1.06.36,1.22,1.38,1.73,2.14l.21,1.13,3-.57-.33-.59a2.46,2.46,0,0,1-.33.12,16.45,16.45,0,0,1-1.8-3.42l-.94-1.59a1.55,1.55,0,0,0-1.91,0l-.68.66.39-.29c-.78,1.56-1.31,3.24-2.13,4.82a.48.48,0,0,0,.22.7A.62.62,0,0,0,621.91,44Z"/><path d="M622,38.28c.25-.25.51-.48.48-.86l-.22-.17c-.15.13-.35.3-.54.48C621.29,38.07,621.55,38.28,622,38.28Z"/><path d="M622.22,37.25l.23-.2-.29.12s0,0,0,0Z"/><path d="M663.06,160.06c1,1.55,2.15,3,3.22,4.49s2.16,3,3.33,4.45c2.35,2.87,4.62,5.83,7.15,8.58,1.25,1.39,2.47,2.81,3.74,4.18l3.91,4.05c.66.67,1.3,1.36,2,2l2,2,4.09,3.89c.38.34.76.54.86.46s-.14-.41-.5-.71a211.71,211.71,0,0,1-15.68-16c-2.52-2.74-4.78-5.69-7.11-8.55-1.18-1.43-2.21-3-3.32-4.43l-1.63-2.23c-.55-.73-1.08-1.48-1.58-2.26-.28-.4-.59-.67-.73-.64S662.81,159.67,663.06,160.06Z"/><path d="M745.23,239.77c-.37-.09-.4,0-.08.25a3.91,3.91,0,0,0,1.19.54c.31.08.35,0,.07-.24A4.31,4.31,0,0,0,745.23,239.77Z"/><path d="M738.81,245.59c-1.08-.39-2.13-.76-3.15-1.1s-2-.71-2.92-1a4.6,4.6,0,0,1-1-.46c.05.2-.41.15-1.19-.14-3.86-1.37-7.67-3-11.57-4.72-2-.83-3.84-1.8-5.78-2.71s-3.9-1.84-5.79-2.88l-5.76-3.07c-1.93-1-3.79-2.17-5.7-3.26-3.83-2.15-7.5-4.57-11.24-6.88a1.78,1.78,0,0,1-.88-.07,18.14,18.14,0,0,1-5.38-3.19L677,214.86c-1.53-1.19-2.95-2.51-4.43-3.76s-2.93-2.52-4.37-3.81l-4.23-4c-1.41-1.32-2.82-2.64-4.14-4a41.79,41.79,0,0,1-4.25-3.4c-1.35-1-2.64-2.11-3.93-3.21l-3.89-3.31c-1.32-1.09-2.55-2.28-3.81-3.46l-3.78-3.58c.18.42.22.73.06.86-.45.19-1.84-.75-3-2.23l-1.86-2.18,2.5,3.27c.85,1.07,1.73,2.11,2.6,3.17.25.3.48.58.67.86l3,3.34c1,1.11,2.15,2.17,3.24,3.25a205.12,205.12,0,0,0,30.26,24.54A253.44,253.44,0,0,0,710,235.41a4.05,4.05,0,0,1,1.18.7c.16.19.06.28-.36.11-14.32-5.81-27.27-10.83-42.33-20.76a232.59,232.59,0,0,1-25.77-19.61A226.6,226.6,0,0,1,619.18,172,337.64,337.64,0,0,1,599.52,143c-1.45-2.53-3-5-4.41-7.62s-2.79-5.23-4.19-7.87-2.62-5.42-3.94-8.19c-.33-.69-.67-1.38-1-2.08l-.91-2.14q-.9-2.14-1.81-4.31l-1.22-2.94c-.39-1-.74-2-1.11-3-.71-2-1.43-4-2.14-6l-.53-1.5-.46-1.51-.92-3c-.61-2-1.22-4-1.8-6.06l-.38-1.54-.19-.76-.08-.3-.31-1.06L573.53,81c-.38-1.42-.76-2.84-1.15-4.25a165.94,165.94,0,0,1-3-17.45,8.61,8.61,0,0,1,.7-6.07,6,6,0,0,1,4.23-3.18,6.43,6.43,0,0,1,5.84,2.3v-1l.36-1.65a6.05,6.05,0,0,1,2.43-3.7l1.5-1.12c2.84-1.48,5.43-3.8,8.53-4.85l1.16.31.34-.27a5.53,5.53,0,0,1,3.22-1.58l1.41.15a14.17,14.17,0,0,1,4.5,1.52,5,5,0,0,1,1.73.31,7.09,7.09,0,0,1,4.65-.22,1,1,0,0,1,1.38.18,1,1,0,0,1,.19.49h0c.38-.18.49-.23.91-.46a5.18,5.18,0,0,1,.25-.52c.3-.88.3-.88.59-1.64a4.59,4.59,0,0,1,1.25-1c2.58-.57,2.58-.56,3.67-.38a2.85,2.85,0,0,1,.3.16,8.63,8.63,0,0,1,.56-.73,2.3,2.3,0,0,1,.44-.24c.59,0,.59,0,.81-.07a3.82,3.82,0,0,1,.45,0c.63.36.63.36.81.38a2.33,2.33,0,0,1,.31.2l.27.58-1.58.7.51.2-.71.14.64-.07-.42.38.6-.42a3.41,3.41,0,0,0-.31,1.3,1.42,1.42,0,0,0,0,.76l.35,0c-.33,1-.33,1-.67,2a3,3,0,0,1-.44.22.39.39,0,0,1,.19.48l-.15.51.08.12h.05l.26.44.07.09h0c.17.3.46.74,1.22,1.89a4.8,4.8,0,0,1-.32.85l.29-.25c.21-.16.76,0,.81-.09a44.62,44.62,0,0,0,2.75-6.59.85.85,0,0,1,1.68-.11,13.44,13.44,0,0,1,1.6,7.26,15.25,15.25,0,0,1-.67,3.74,18.4,18.4,0,0,1-.66,1.84c-.22.61-.47,1.22-.75,1.81-.26,1.24-.48,2.49-.69,3.75l.27-.2-.4,1a.43.43,0,0,0,0,.11l1-.81.28-.52a17.17,17.17,0,0,1,1.18-4.2c.51-1.36,1.29-2.7,1.82-4a36,36,0,0,1,2.4-4,.77.77,0,0,1,.86-.54.63.63,0,0,1,.6.71,18.82,18.82,0,0,1-.49,6.89A14.77,14.77,0,0,1,630.23,59a4.22,4.22,0,0,1-.82,2.41v0l.78-.6c-.16.65-.81,1.05-1.06,1.66l1.1-.33c-.49,3.19-.05,6.52-1.2,9.67,0,.12,0,.23-.06.35a15.88,15.88,0,0,1,1.25,1.74c.09.15.18.31.26.47a.67.67,0,0,1,.06.12l.08.36c0,.24.1.49.16.73.17,1,.46,2,.64,3l-.18-2.16-.06-2.11,1.18,4.45a45.32,45.32,0,0,1,.92,4.72c.83,4.42,1.36,9.23,1.82,13.59.09,1.1.16,2.18.2,3.22s.14,2,.16,3a26.52,26.52,0,0,1-.28,5,201.08,201.08,0,0,0,11,24.89,181.78,181.78,0,0,0,14.65,23.06,2.94,2.94,0,0,1,.8,1.85c-.14.24-.71-.11-1.29-.86-2.15-2.48-4-5.19-6-7.84-1-1.31-1.9-2.71-2.82-4.09l-2.75-4.16c-.88-1.41-1.71-2.86-2.57-4.29s-1.74-2.85-2.5-4.33l-2.34-4.43-1.17-2.22-1.07-2.26A159.36,159.36,0,0,0,654.65,154c.85,1.21,1.67,2.45,2.6,3.61a43.94,43.94,0,0,1,2.47,3.64l1.63,2.25,1.72,2.17,3.42,4.33c1.18,1.4,2.39,2.77,3.58,4.16s2.38,2.79,3.67,4.1l3.81,4c1.25,1.35,2.65,2.58,4,3.88s2.68,2.6,4.13,3.82l4.33,3.71c1.24,1.08,2.52,2.06,3.78,3l3.73,2.92c2.49,1.89,5,3.64,7.5,5.46s5.12,3.41,7.72,5.15,5.36,3.32,8.18,5c8,4.64,15.81,8.64,23.71,12.48s16,7.28,24.47,10.79c2.28.84,4.28,2,4.4,2.51s-1.66.28-4-.55c-9-3.24-17.91-6.83-26.59-10.84a278.16,278.16,0,0,1-25.32-13.51,216.09,216.09,0,0,1-23.72-16.57,182.38,182.38,0,0,1-21.49-20.09c-1.49-1.53-2.81-3.19-4.2-4.78s-2.76-3.16-4-4.83a.65.65,0,0,1-.14.26c-.27.24-.77.14-1.4-.2.74.94,1.44,1.91,2.21,2.82l2.3,2.77c1.54,1.85,3,3.75,4.68,5.53,9.75,9.29,20.18,17.8,31.49,26.76,7.81,6.1,15,11.6,22.7,16.82a298.22,298.22,0,0,0,31.93,15,2.75,2.75,0,0,1,1,.53c.13.15-.14.14-.6,0-1.93-.67-3.85-1.4-5.8-2.11l-2.92-1.08c-1-.37-1.92-.78-2.89-1.18l-5.81-2.41-5.77-2.63c1,.9,1.57,1.64,1.28,2s-1.41.27-3-.19l5.16,2.67c1.05.58,1.83,1.13,1.71,1.32s-1.08,0-2.09-.56c-3.52-1.82-7.07-3.56-10.5-5.54-1.73-1-3.47-1.9-5.17-2.9l-5.08-3.06A247,247,0,0,1,693.62,209a6.35,6.35,0,0,1,1.45,2.67h0l3.58,2.6A364.81,364.81,0,0,0,772.55,250c.51.18.91.41.89.5s-.44,0-.9-.14c-3.94-1.45-7.91-2.81-11.79-4.38-1.94-.78-3.91-1.47-5.83-2.3l-5.77-2.42,0,0c.28.19.29.32-.08.24a4.52,4.52,0,0,1-1.2-.51c-.33-.21-.25-.3.06-.24a377.64,377.64,0,0,1-41.15-21A327.1,327.1,0,0,0,744,240.35c1.46.51,2.89,1.09,4.39,1.57a2.82,2.82,0,0,1,1,.57c.08.12-.25.09-.67-.05s-.82-.28-1.23-.42c2.45,1.08,4.2,2.28,4,2.74s-2.65-.07-5.23-1.17c-6.91-3-13.74-6.09-20.35-9.64l-2.2-1.06-2.29-.91a284.86,284.86,0,0,0,31.26,15.64c.93.38,1.66.84,1.61,1s-.85,0-1.78-.36a263.28,263.28,0,0,1-28.59-12,250.55,250.55,0,0,1-27.35-15.48c-3.15-1.53-6.22-3.21-9.39-4.83s-6.21-3.46-9.36-5.26c.68.59,1.42,1.13,2.14,1.69,2.32,1.74,4.57,3.47,6.9,5s4.65,3.05,7,4.51,4.69,2.72,7,4,4.71,2.48,7,3.72c9.43,4.77,19,9,29.07,13.39a2,2,0,0,1,.93.58c0,.12-.37.05-.89-.17-9.92-4.23-19.08-8.05-28.72-13l-5.89-3.1c-1.92-1.05-3.8-2.15-5.69-3.2l-2.81-1.57c-.94-.53-1.84-1.1-2.76-1.64l-5.48-3.22,5.32,3.56c.89.58,1.77,1.18,2.67,1.73l2.71,1.64c1.82,1.07,3.61,2.16,5.43,3.2l5.51,3,2.75,1.48,2.8,1.39,5.58,2.8,5.67,2.64,2.84,1.34,2.88,1.27a7.5,7.5,0,0,1,1.7.92.79.79,0,0,1,.44.06c2,.65,4.15,1.48,6.36,2.24a3.1,3.1,0,0,1,1.1.59C739.58,245.76,739.29,245.74,738.81,245.59ZM615.12,54l.19-.15-.32.49-1.33.73Zm-5.06-8.34h0l.78-.38Zm32.43,88.49c-1.73-3.67-3.57-7.27-4.93-11.06-.7-1.88-1.47-3.73-2-5.65s-1.14-3.83-1.67-5.76c.74,1.79,1.49,3.57,2.23,5.35.93,2.88,2,5.7,3,8.58S641.36,131.3,642.49,134.17ZM620.33,48.4a13.38,13.38,0,0,1-2.54,1.88,3.79,3.79,0,0,1,.16,1.5c-.16,1.38-.22,2.74-.44,4.08.47-.2.42.12.49.28l.13.49c.3-1.43.59-2.86,1-4.31A28.69,28.69,0,0,1,620.33,48.4ZM619,38.63l.19-.11.72.3Zm-1.22-.48-.12.19C617.34,38.26,617.45,38.2,617.73,38.15ZM616.67,40a1.48,1.48,0,0,0,.42-.25ZM595,40.52l3.65.94-3.5-1Z"/><path d="M630.43,187.07l-.49-.26a1,1,0,0,1,.93-.38c-4.81-1.88-9.21,1.33-11.39,5a2,2,0,0,0-1.61,2.5,2.42,2.42,0,0,0,2.73,1.69,3.6,3.6,0,0,1,.9.22,20.53,20.53,0,0,0,7.34,2.37l-1.67-.69a6.12,6.12,0,0,0,2.21.1l-.47-.58c2.78,1,5.63-.25,6.4-2.87a5.57,5.57,0,0,0-3.62-6.62Z"/><path d="M623.86,181.48c1.62.36,3.2.81,4.78,1.28l.4.33-.72-1.78,0,.12c-.69,1.86-2.47,3-4.15,4l-.57.44a1.48,1.48,0,0,0-.24,1.12,1.78,1.78,0,0,0,1.91,1.44l1-.12c2.77.36,6.56-.55,6.84-4a5.94,5.94,0,0,0-.87-2.45,2.44,2.44,0,0,0-2.82-1.78,2.13,2.13,0,0,0-1.63,2.69l-.7-.08.33-.56c0,1.14-1,1.68-1.61,2.46l-1.12.64,1.67,2.56.51-.54a3.09,3.09,0,0,1-.24-.26,18.52,18.52,0,0,1,3-3l1.31-1.49a1.46,1.46,0,0,0-.71-1.8l-1-.39.46.26c-1.94-.16-3.87,0-5.8-.15a.55.55,0,0,0-.64.48A.61.61,0,0,0,623.86,181.48Z"/><path d="M629.77,179.34a1.34,1.34,0,0,0,1.07.13l.09-.28-.71-.33C629.72,178.63,629.61,179,629.77,179.34Z"/><path d="M630.93,179.19l.3.14-.24-.22,0,0Z"/><path d="M537.06,218.54c-8.68,3.41-17.24,7.22-25.67,11.31-.29.13-.48.33-.43.44s.31.07.57-.06c8.45-4,17-7.82,25.64-11.22.29-.12.48-.32.46-.44S537.33,218.43,537.06,218.54Z"/><path d="M469.75,242.82c.15-.18.09-.26-.15-.19a1.54,1.54,0,0,0-.65.44c-.12.16,0,.25.16.19A1.59,1.59,0,0,0,469.75,242.82Z"/><path d="M467.19,235.43a33.11,33.11,0,0,0,2.73-2.66,1.58,1.58,0,0,1,.52-.36c-.15-.09,0-.36.34-.69,7-6.67,15.22-13.06,23.29-19.4a1.1,1.1,0,0,1,.13-.61,6.84,6.84,0,0,1,2.68-2.51l1-.52c3.88-2.23,7.76-4.46,11.7-6.55a15.63,15.63,0,0,1,2.44-2c3-2.57,6-5.16,9.16-7.63a.62.62,0,0,1-.59-.24c-.15-.44.48-1.22,1.4-1.77l1.38-.87-4.15,2.13a3.42,3.42,0,0,1-.57.25c-1.46.88-2.92,1.8-4.38,2.78-6.4,4.24-12.36,8.75-18.06,13.35s-11.18,9.31-16.53,14.07a1.46,1.46,0,0,1-.67.42c-.16,0-.21-.11,0-.3,6.3-6.67,11.31-13.34,19-20.3,9.23-8.24,18.59-16.23,28.73-24,11.18-7,21.19-14.29,32.64-21.81,4.25-2.78,8.48-5.43,12.73-8,6.63-4.21,13.35-7.85,20.33-11.4,3.44-2.26,7.68-1.45,9.4,1.77a6.86,6.86,0,0,1-.07,6.28c.31-.11.6-.23.9-.35l1.55-.21a5.61,5.61,0,0,1,4.07,1.07l1.5,1.05c2.3,2.22,5.25,3.73,7.35,6.27l.15,1.2.37.23a5.66,5.66,0,0,1,2.64,2.43l.39,1.38a14.2,14.2,0,0,1,.26,4.81,5,5,0,0,1,.35,1.74,7,7,0,0,1,1.93,4.29,1,1,0,0,1,.34,1.36,1,1,0,0,1-.4.37h0c.31.29.41.38.79.69a5.22,5.22,0,0,1,.61,0l1.84-.06a4.9,4.9,0,0,1,1.48.81c1.58,2.21,1.58,2.21,1.82,3.3a2,2,0,0,1,0,.34c.71.17.77.19,1,.25a2.56,2.56,0,0,1,.42.33c.22.56.22.56.39.73a2.51,2.51,0,0,1,.17.42c-.11.73-.11.73-.06.91a1.78,1.78,0,0,1-.08.37l-.5.47-1.34-1.23v.56l-.42-.62.32.59-.55-.25.67.4a3.78,3.78,0,0,0-1.46.2,1.51,1.51,0,0,0-.78.32,2.72,2.72,0,0,1,.15.31c-1.14.08-1.14.08-2.26.13a4.49,4.49,0,0,1-.39-.33.46.46,0,0,1-.42.37l-.58.05-.09.12,0,.05-.36.42-.07.09h0l-1.54,1.81a6.65,6.65,0,0,1-1,0l.36.19c.24.14.27.71.38.73a41.14,41.14,0,0,0,7.92.13.92.92,0,0,1,1.15.44.79.79,0,0,1-.39,1.1c-3.91,4.23-10,5.42-15.88,4.76-1.42.13-2.83.32-4.25.51l.29.2-1.18-.07-.12,0,1.13.67.65.1c3.23-.57,6.57,0,9.9.14a44.74,44.74,0,0,1,5.26.88.82.82,0,0,1,.9.63.67.67,0,0,1-.58.8c-4.82,2-10.79,2.91-16,1a4.82,4.82,0,0,1-2.86-.06h0l.86.58c-.76,0-1.37-.48-2.1-.55l.64.95c-3.65.4-7.19,1.84-10.9,1.45l-.4,0a19.63,19.63,0,0,1-1.67,1.62,5.19,5.19,0,0,1-.46.36l-.13.09-.21.11-.44.23c-.59.29-1.21.56-1.87.81l2.81-.58A26.36,26.36,0,0,1,588,202c-5.66,1.8-12.54,2.63-16.55,1.47-10.69,4.41-21.3,9.09-31.63,14.27a1.42,1.42,0,0,1-1.32.15c-.18-.19.07-.57.6-.84,7.17-4.2,14.69-8,22.32-11.59-6.74,2.24-13.46,4.69-20.12,7.61l-2.48,1.26a19.55,19.55,0,0,1-2.56,1,259.15,259.15,0,0,0-24.54,12.55c-6.95,4.14-12.94,7.92-19.66,12.36-9.43,6.24-17.9,12.08-27.48,17.91-1.24.82-2.6,1.3-3,1s.29-1.14,1.53-2c9.54-6.75,19-13.39,28.9-19.73A299.78,299.78,0,0,1,523,219.75c2.39-1.14,4.72-2.27,7.06-3.35a1.12,1.12,0,0,1-.18-.2,1.14,1.14,0,0,1,.15-1.1c-2.68,1.2-5.38,2.43-8.12,3.6-7,4.37-14,8.76-21.87,12.75-5.41,2.74-10.5,4.94-15.61,7.38-5.93,3.92-11.75,8-17.67,12a1.11,1.11,0,0,1-.63.29c-.14,0-.06-.17.17-.35,3.84-3.12,7.87-6.2,12-9.23-.85.18-1.48.11-1.66-.28s.12-1.07.77-1.82l-3,1.85c-.62.38-1.19.54-1.29.35s.27-.65.84-1q6-3.84,12.09-7.53c4.7-3.21,9.44-6.33,14.26-9.39a3.55,3.55,0,0,1-2.06-.2h0c-.76.46-1.51.92-2.25,1.39-13.1,9.52-26.64,18.89-40.42,28.23-.26.19-.52.28-.58.21s.1-.27.35-.43l12.4-8.5h0c-.2.06-.3,0-.15-.19a1.92,1.92,0,0,1,.64-.44c.23-.07.28,0,.16.19Q479.92,236,491.07,228l-21.44,13.7-2.1,1.85a1.14,1.14,0,0,1-.64.29c-.11,0,0-.21.19-.38l.6-.51c-1.35.87-2.61,1.24-2.87.81s.7-1.57,2.08-2.51q5.44-3.93,11-7.65l1.16-.87,1.07-1c-5.92,3.63-11.79,7.31-17.56,11.1-.48.34-1,.52-1.09.38s.2-.54.68-.88c9.49-7.65,19.39-15.05,29.62-22.1l9-9.06-1.36.83A141.66,141.66,0,0,0,484,223.71c-4.78,4-9.43,8.09-14.65,12-.25.21-.52.3-.6.24s0-.26.31-.45c5-3.91,9.38-7.91,14.32-12,4.08-3.37,8-6.52,11.74-9.82-8.25,5.72-15.59,12-23.41,18.09a2.82,2.82,0,0,1-1,.58.35.35,0,0,1-.13.25c-.86.92-1.85,1.86-2.88,2.78a1.19,1.19,0,0,1-.66.35C466.9,235.81,467,235.64,467.19,235.43ZM611.25,178.5l.21.14-.6-.16-1.15-1Zm6.7-7.6h0l.66.6Zm-63.54,36A92.06,92.06,0,0,1,568.84,202l-3.33,1.54Zm64.28-25.34a13.41,13.41,0,0,1-2.78-1.75,4.54,4.54,0,0,1-1.48.68c-1.46.37-2.91.64-4.36.87.35.38,0,.44-.14.55l-.47.28c1.56-.18,3.15-.3,4.78-.39A31.61,31.61,0,0,1,618.69,181.52Zm9.55-4.88.19.14,0,.79S628.33,177.18,628.24,176.64Zm0-1.33-.25,0C628,175,628.1,175.07,628.26,175.31ZM626,175a1.58,1.58,0,0,0,.41.3Zm-8.6-20.21.47,3.78-.35-3.67Z"/><path d="M244.55,558.23l.43.36a1.36,1.36,0,0,1-1.11,0,11.17,11.17,0,0,0,7.14,1.77,15.92,15.92,0,0,0,6.47-1.75c1.3.25,2.46-.29,2.59-1.22s-.85-1.88-2.19-2.18a4.57,4.57,0,0,1-.85-.47,26.19,26.19,0,0,0-6.93-4.42c.52.37,1.05.72,1.56,1.11a8.21,8.21,0,0,0-2.37-.86c.1.18.22.41.31.6-2.66-1.7-6.3-1.81-8-.06s-.87,4.68,1.78,6.34Z"/><path d="M249.53,564.54c-1.53-.74-3-1.55-4.5-2.41l-.3-.38.17,1.61,0-.1c1.29-1.25,3.53-1.61,5.59-1.82l.73-.16a1.12,1.12,0,0,0,.64-.75c.15-.71-.51-1.49-1.49-1.7l-1.13-.24c-2.76-1.13-7.14-1.7-8.5.93-.31.61,0,1.45.17,2.21a2.53,2.53,0,0,0,2.39,2.27c1.35.15,2.47-.57,2.52-1.62l.7.27L246,563c.34-.89,1.57-1,2.47-1.41l1.37-.15L249,559l-.71.25a2.86,2.86,0,0,1,.16.28,25.08,25.08,0,0,1-4.1,1.41l-1.84.75a1.05,1.05,0,0,0,.19,1.63l.86.6-.39-.34c2,.69,4,1.14,5.87,1.81a.67.67,0,0,0,.81-.18A.47.47,0,0,0,249.53,564.54Z"/><path d="M242.81,564.47a1.82,1.82,0,0,0-1.07-.42l-.18.19.64.47C242.65,565.05,242.86,564.83,242.81,564.47Z"/><path d="M241.56,564.24l-.26-.2c.06.09.13.17.18.25l.05,0Z"/><path d="M354.78,556.15c-1-.53-2-1.06-2.89-1.61-.45-.28-1-.55-1.37-.82l-.89-.83-.45-.42-.64-.42-1.29-.85c-.33-.28-.56-.56-.85-.84l-.41-.43a4.39,4.39,0,0,0-.55-.43l-1.2-.89a5.85,5.85,0,0,1-.8-.88,13.87,13.87,0,0,0-2-1.83,21.64,21.64,0,0,1-1.39-1.88c-.24-.33-.41-.63-.7-1l-1-1.06a2.68,2.68,0,0,1-.23-.26l-.15-.26-.29-.53c-.19-.35-.38-.71-.56-1.08a6.56,6.56,0,0,0-.62-1.15,12.32,12.32,0,0,1-.79-1.25l-.42-1.26-.36-1.35-.29-1.45c-.15-.55-.38-1.1-.48-1.65s0-1.1,0-1.7a11.11,11.11,0,0,0,0-1.84c0-.33,0-.66,0-1l.25-.93a18.51,18.51,0,0,1,.63-1.86,18,18,0,0,0,.52-1.91,1.17,1.17,0,0,1,.2-.44l.25-.42.51-.83c.32-.56.54-1.14.82-1.7a3.29,3.29,0,0,1,.21-.42l.31-.36.64-.71c.93-.92,1.38-2,2.27-2.86a34,34,0,0,0,2.83-2.4l1.3-1.24c.45-.39.92-.77,1.39-1.15s.92-.78,1.4-1.15l1.55-1a69.92,69.92,0,0,1,6.22-3.62l3.06-1.54L360,502l.73-.37.36-.19c.15,0,.32,0,.47-.06l1.9-.22.95-.11.48-.05.35-.16,1.42-.65.7-.32c.13-.05.22-.14.38-.14h2.48a5,5,0,0,0,1.87-.18l1.64-.48.82-.24c.11-.07.34,0,.51,0l.56,0,2.25.17,1.12.08,1-.14,2.07-.27c.36,0,.66-.11,1.07-.12l1.18,0a45.82,45.82,0,0,1,4.9-.1l2.63.08c.87.05,1.76-.08,2.63-.1a12.48,12.48,0,0,0,3.49-.49c0-.18-1.52-.26-3.28-.14-.89,0-1.78.12-2.67.14l-2.65-.07c-.87,0-1.81-.08-2.61-.05l-2.39.12-1.19.06a7.4,7.4,0,0,0-1.12.1l-2.09.28a16.15,16.15,0,0,1-4.39,0l-1.13-.08a.81.81,0,0,0-.48.06l-.41.12-1.63.51-.82.25c-.32,0-.66,0-1,0l-2,0c-.32,0-.69,0-1,0l-.7.33-1.4.67a2.87,2.87,0,0,1-.74.3l-1,.12-1.9.23a3.27,3.27,0,0,0-.92.16l-.72.37-1.45.76-3,1.56c-1,.5-2.07,1.14-3.1,1.72s-2.08,1.23-3.1,1.91a21.41,21.41,0,0,0-3,2.13l-1.39,1.16c-.45.39-.86.83-1.3,1.24s-.82.84-1.31,1.23l-1.48,1.2-.36.3-.19.15L340,515l-.52.74a14.18,14.18,0,0,1-1.09,1.46l-1.26,1.43-.78,1.71c-.29.57-.66,1.12-1,1.68a1,1,0,0,0-.18.45l-.12.48-.24,1a12.69,12.69,0,0,0-1,3.76l.05,1a8.72,8.72,0,0,1-.05.9,14.41,14.41,0,0,0-.05,1.72c.53,2.34.82,4.15,1.39,5.82a3.83,3.83,0,0,0,.67,1.25l.41.62c.1.19.18.37.27.56.34.76.71,1.45,1.08,2.15a29.23,29.23,0,0,1,3,4,2.08,2.08,0,0,0,.47.47l.54.47a5.7,5.7,0,0,1,1,.92l.72.88c.08.15.36.3.53.45l.6.44a10.87,10.87,0,0,1,1.85,1.73c.62.57,1.75,1.15,2.36,1.71.87,1.12,3.06,2.23,5,3.31a12.64,12.64,0,0,0,2.53,1.11C356.41,557.09,355.78,556.69,354.78,556.15Z"/><path d="M374.13,384.41c-.18.89,0,.9.36,0,.17-.37.36-.89.55-1.43s.38-1.07.5-1.5c.19-.74,0-.78-.35-.06a11.83,11.83,0,0,0-.65,1.5A15,15,0,0,0,374.13,384.41Z"/><path d="M383.44,393.88a35.31,35.31,0,0,0,1.39,11.6,10.52,10.52,0,0,1,.34,1.95c.18-.29.59.47,1.07,1.93,2.38,7.21,6.17,14.37,10.61,21.64.54.91,1.12,1.82,1.69,2.74l1.74,2.75,1.79,2.78.91,1.4.88,1.35c1.12,1.67,2.38,3.47,3.66,5.3l3.93,5.57a267.6,267.6,0,0,1,15.66,24.36,97.71,97.71,0,0,1,6.76,14.69,51.1,51.1,0,0,1,2.4,9.3,31.56,31.56,0,0,1-.43,12.8,10.9,10.9,0,0,1-.62,3.79,15.92,15.92,0,0,1-1.05,2.63,18.13,18.13,0,0,1-1.74,3,27.21,27.21,0,0,1-2.58,3.15,37.72,37.72,0,0,1-3.31,2.84,38.65,38.65,0,0,1-3.69,2.2l-.25.13-.16.08-.32.13-.65.28-1.33.54c-.9.36-1.82.71-2.76,1s-1.73.43-2.61.64l-1.33.27-.66.14-.29.06h-.13l-1.09.07a23.56,23.56,0,0,1-6.65-.6c-2.23-.47-4.46-1.1-6.75-1.51a24.06,24.06,0,0,0-7-.35,26.3,26.3,0,0,0-6.9,1.89c-.28.29-.59.57-.9.9s-.64.63-1,1a13.24,13.24,0,0,0-2,2.47,5.11,5.11,0,0,0-.23,2.89,6.91,6.91,0,0,0,1.46,2.83,19,19,0,0,0,5.05,4,49.61,49.61,0,0,0,11.13,4.6c-.19-.13-.14-.2.17-.2a33.47,33.47,0,0,1,4.35.94l2.49.6a43,43,0,0,1-6.33-2,5.86,5.86,0,0,1-.73-.33,26,26,0,0,1-6.74-3.87,6.88,6.88,0,0,1-2.49-3.61,4.27,4.27,0,0,1,1.47-3.83,14.9,14.9,0,0,1,3.37-2.38c.6-.35,1.25-.58,1.87-.87.32-.14.65-.21,1-.32a4.81,4.81,0,0,1,1-.26c2.69-.61,5.45-.2,8.21.19a25.08,25.08,0,0,0,4.28.32,17,17,0,0,0,2.23-.2l1.11-.25.28-.07.8-.21,1.64-.45,1.64-.44c.29-.08.54-.13.84-.24l.91-.35c1.2-.47,2.4-1,3.59-1.46l.88-.38c.44-.22.94-.48,1.39-.73.93-.52,1.85-1.06,2.74-1.64a33.65,33.65,0,0,0,2.74-2.16c.44-.38.88-.78,1.3-1.17s.83-.9,1.23-1.36a33.88,33.88,0,0,0,2.25-2.88c.63-1,1.23-2.05,1.77-3.11a21.44,21.44,0,0,0,1.31-3.12,22.53,22.53,0,0,0,.91-3.06c.21-1,.39-1.93.54-2.9a11.84,11.84,0,0,0,.15-1.35l.08-1.29.06-1.29,0-.64,0-.58q0-1.14-.12-2.28c0-.37-.05-.77-.1-1.11l-.14-1-.31-2c-.24-1.28-.53-2.44-.81-3.66s-.64-2.21-1-3.31l-1.08-3a95.75,95.75,0,0,0-4.95-10.63,189.15,189.15,0,0,0-11.09-17.85c-3.8-5.52-7.73-10.81-11.39-15.84a10.42,10.42,0,0,1-1.43-2.35c-.12-.45.09-.49.62.2,4.8,6.05,10,12.27,15,18.78,2.51,3.27,5,6.64,7.42,10.24a115.37,115.37,0,0,1,7.08,11.8,71.23,71.23,0,0,1,3.23,7.18c.26.62.5,1.37.74,2.06s.48,1.38.7,2.15a50,50,0,0,1,1.18,4.94l.24,1.35c.07.46.15.89.2,1.43.1,1,.18,2.07.25,3.12,0,.49,0,1.13,0,1.72l-.06,1.8c0,.62-.05,1.17-.14,1.85s-.19,1.38-.31,2.07-.24,1.37-.39,2-.4,1.5-.62,2.24-.51,1.51-.79,2.26c-.14.37-.27.74-.44,1.11l-.56,1.18a34,34,0,0,1-2.67,4.53,38.32,38.32,0,0,1-3.46,4.14,49.3,49.3,0,0,1-3.95,3.39,42.83,42.83,0,0,1-4,2.52l-1,.56a3.14,3.14,0,0,1-.39.19l-.31.14-1.24.56-2.51,1.08a34,34,0,0,1-4.76,1.59l-2.16.64-.49.19a10.16,10.16,0,0,1-3.72.64,20.17,20.17,0,0,0-3.81.17,5.68,5.68,0,0,0-3,1.65,4.55,4.55,0,0,0-1.56,3,3,3,0,0,0,.88,2,8.1,8.1,0,0,0,1.85,1.41,23.65,23.65,0,0,0,7.42,2.57c1.08.19,2.05.4,2.91.62q.64.16,1.2.36l.28.09.13,0,.9.53c1.22.72,2.35,1.35,3.73,2.26a85.19,85.19,0,0,1,15.57,12.63,48.91,48.91,0,0,1,3.48,4.13l.42.54a4,4,0,0,1,.24.35l.26.4,1,1.62a27,27,0,0,1,1.9,3.42,19,19,0,0,1,1.21,14.4c-.21.56-.41,1.13-.67,1.67s-.58,1-.89,1.57a16.42,16.42,0,0,1-2.32,2.74,8.46,8.46,0,0,1-1.35,1.18l-1.46,1.06-1.61.86-.82.4-.88.32c-.59.2-1.18.4-1.78.58a18.8,18.8,0,0,1-1.87.41c-.63.12-1.26.22-1.9.31s-1.3.11-2,.15-1.31.05-2,.05l-1.62-.05-1.62-.06H422l-.28,0-.54,0-17-1.38c-11.33-.91-22.66-1.86-34.12-2.53-5.74-.37-11.48-.72-17.3-.94s-11.65-.5-17.56-.55a422.75,422.75,0,0,0-46.83,1.44l-2.85.26-1.43.14-.28.05-.9.15-1.8.3-3.56.57c-2.37.35-4.73.74-7.05,1.18s-4.65.83-7,1.28c-3.47,1.06-6.6-.22-7.11-3.08a5.52,5.52,0,0,1,1.92-4.88l-.86.09-1.37-.15a4.59,4.59,0,0,1-3.14-1.66l-1-1.11c-1.34-2.18-3.49-3.95-4.68-6.43l.2-1-.27-.26a4.47,4.47,0,0,1-1.73-2.51l0-1.21a10.2,10.2,0,0,1,1.11-3.93,3.48,3.48,0,0,1,.17-1.47,5,5,0,0,1-.58-3.89.72.72,0,0,1,.07-1.17,1.11,1.11,0,0,1,.51-.18h0a7.25,7.25,0,0,0-.56-.75c-.37-.11-.58-.19-.58-.19-1-.22-1-.22-1.83-.43a4.72,4.72,0,0,1-1.23-1c-.93-2.2-.94-2.21-.87-3.14,0-.09.09-.18.14-.27l-.9-.47a2.53,2.53,0,0,1-.34-.38c-.06-.52-.06-.52-.18-.71a1.81,1.81,0,0,1-.05-.39c.33-.54.33-.54.33-.7a1.09,1.09,0,0,1,.19-.27l.65-.22,1,1.37.17-.44.25.61-.15-.55.48.36-.56-.51a5.14,5.14,0,0,0,1.56.26,2.37,2.37,0,0,0,.89,0,1.14,1.14,0,0,1,0-.29c1.18.27,1.18.27,2.34.56a2.93,2.93,0,0,1,.28.36.54.54,0,0,1,.55-.16l.6.12.13-.07v0l.5-.22.1,0h0c.72-.32,1.44-.64,2.16-.93a6.9,6.9,0,0,1,1,.33l-.3-.26c-.19-.18,0-.61-.13-.67a52.69,52.69,0,0,0-8.08-2.49,1,1,0,0,1-1-.7c-.09-.4.24-.73.75-.73a18.77,18.77,0,0,1,8.93-.91,34,34,0,0,1,9,2.53c1.48.35,2.94.78,4.41,1.14l-.21-.24,1.14.47.12,0-.85-.87-.6-.3a88.18,88.18,0,0,1-9.94-3.54c-1.82-.66-3.39-1.66-5.15-2.48-.45-.09-.77-.43-.73-.76s.46-.51.9-.41a41,41,0,0,1,8.93,1.4,23.76,23.76,0,0,1,7.9,3.63,6.8,6.8,0,0,1,2.82,1.08l0,0-.61-.71c.76.27,1.16.83,1.85,1.14-.08-.28-.16-.59-.24-.87,1.89.52,3.84.88,5.74,1.37a27,27,0,0,1,5.45,1.8l.4.13c.75-.15,1.51-.3,2.3-.38l.6,0h.19l.94.14,1.91.29c2.57.38,5.2.8,7.93,1.26L291.61,564l-2.75-.54-2.59-.53,5.8.82,6,.91c4,.72,8.07,1.41,12.27,2.24,5.65,1.22,11.49,2.33,17.16,3.68s11.28,2.57,16.51,3.85c10.47,2.51,19.55,4.89,25.35,6.56,10.76,2.07,21.52,4.07,32.26,5.93,5.38.89,10.75,1.83,16.12,2.61l4,.62,2,.29c.42,0,.83.06,1.25.11a2,2,0,0,0,.45,0h.36a5.83,5.83,0,0,0,.73-.06,4.73,4.73,0,0,0,1.39-.4,2.43,2.43,0,0,0,1.41-2.33,5.23,5.23,0,0,0-1-2.68l-.24-.34a2.43,2.43,0,0,0-.35-.42l-1.08-1.21-1.2-1.17c-.41-.39-.87-.77-1.31-1.14a42.72,42.72,0,0,0-5.87-4.08,56.51,56.51,0,0,0-6.59-3.34,12.62,12.62,0,0,0-1.87-.7l-2-.64L401.32,570c-.29-.09-.55-.19-.88-.27l-1.11-.17-2.21-.35-4.42-.7c-1.42-.19-3.12-.55-4.72-.85l-4.84-.92-2.42-.47-2.13-.61-4.26-1.24-2.13-.62-1.06-.31c-.36-.1-.61-.2-.92-.3l-3.52-1.24-2.76-1-1.21-.46a5.28,5.28,0,0,1-.7-.38c-.8-.48-1.29-.83-1.3-1s.61.07,1.44.39l1.44.59a10.1,10.1,0,0,0,1.13.41l1.38.47,5,1.71,1.26.43,1.5.43,3,.85,3,.86A26.63,26.63,0,0,0,383,566l6.75,1.29c2.32.47,4.3.76,6.36,1.1l3.07.5,1.54.24a3.1,3.1,0,0,1,.67.17l.61.19,8,2.6c.47.15.95.3,1.41.47l1.23.56c.82.38,1.67.73,2.45,1.15s1.61.81,2.38,1.25l2.3,1.35a36.77,36.77,0,0,1,7.91,6.43l.78.87.4.54a8.74,8.74,0,0,1,.65,1.07,5,5,0,0,1,.62,2.35,2.79,2.79,0,0,1-1.07,2.14,4.86,4.86,0,0,1-2.3.87,7.43,7.43,0,0,1-1.25.07,1.34,1.34,0,0,1-.34,0l-.49-.05-1-.08-5.87-.84c-3.91-.55-7.82-1.17-11.73-1.8,3.26.56,6.53,1.14,9.8,1.64l4.91.77,2.46.38c.46.08.67.08,1,.11l.83.09a1.13,1.13,0,0,0,.34,0h.84a8.52,8.52,0,0,0,1.12-.12,4.5,4.5,0,0,0,2.07-.85,3,3,0,0,0,1.12-1.9,4.64,4.64,0,0,0-.27-2.24,9,9,0,0,0-1.1-2.06c-.13-.18-.21-.32-.38-.53l-.68-.79c-.43-.53-.95-1-1.45-1.54a42.75,42.75,0,0,0-7.05-5.51,59.76,59.76,0,0,0-8.29-4.37c-1.71-.62-2.78-1-5.82-2.06l-1.95-.66-1-.33a5.37,5.37,0,0,0-1.06-.3l-4.87-.89-2.5-.45c-.85-.16-1.8-.37-2.69-.55L386,565.22l-1.36-.28c-.45-.09-.83-.23-1.24-.34l-2.43-.72-4.88-1.42c-1.48-.47-2.75-.94-4.11-1.41l-4-1.4-5.28-2.52c-2.11-.94-4.16-1.88-6.06-2.88a11.39,11.39,0,0,1-2.35-1.51c-.69-.51-1.78-1-2.54-1.55l-.95-.79c-.17-.13-.3-.26-.5-.39l-.63-.42-1.24-.82-.89-.82-.44-.42-.58-.44-1.16-.88c-.54-.59-1.11-1.16-1.63-1.78-.27-.31-.49-.6-.82-.93l-1-1-.25-.25-.18-.26-.36-.5c-.24-.33-.47-.67-.69-1s-.41-.68-.72-1.09l-.89-1.18-.55-1.21c-.18-.41-.33-.86-.49-1.29s-.28-.92-.42-1.38-.35-1-.53-1.54a2.44,2.44,0,0,1-.13-.8l-.07-.8v-1.71l-.06-.94,0-.46a1.71,1.71,0,0,1,.09-.45,13.84,13.84,0,0,1,.5-1.78,17.53,17.53,0,0,0,.56-1.78c.08-.29.16-.6.25-.89l.49-.79.48-.79.4-.79a4.83,4.83,0,0,1,1-1.5c.4-.45.82-.89,1.2-1.34l1.05-1.35a5.49,5.49,0,0,1,1.29-1.2c.46-.37.95-.73,1.4-1.11.86-.75,1.66-1.55,2.57-2.25l1.36-1.07a10.33,10.33,0,0,1,1.42-1l3-1.84,3-1.6c1-.53,2-.95,3-1.43l2.91-1.32.72-.33a8,8,0,0,1,.89-.12l1.82-.2.91-.09a3.92,3.92,0,0,0,.73-.26l1.4-.55.7-.28c.28,0,.62,0,.93,0h1.91c.31,0,.64,0,.94,0l.8-.2,1.61-.42.4-.11a1,1,0,0,1,.45-.05l1.07.08,2.14.14a8,8,0,0,0,2-.12l2-.25c.32-.05.7-.07,1.08-.09l1.14-.06,2.27-.12c1.38,0,2.85,0,4.26,0a17.28,17.28,0,0,0,2.15-.1l2.14-.16a42.63,42.63,0,0,1,4.4-.12h2.23c.24,0,.21-.06.29-.09l.18-.13.36-.26,1.33-.95a7,7,0,0,1,.91-.53l.11-.06.06,0h0c1.35,2.89-3-6.48,3,6.48v0l0,.09a6.12,6.12,0,0,0,.33.75,7.6,7.6,0,0,0,.43.72c.16.24.39.52.4.58a3,3,0,0,0,.57.7l.09.09h0s0,0,0,.05l0,0,0,0-.06,0a2.29,2.29,0,0,0-.29-.18,1.51,1.51,0,0,0-.26-.12l-.06,0-.15-.08-.32-.15a6.21,6.21,0,0,0-.64-.23l-.31-.08a3.15,3.15,0,0,1-.38-.1,10,10,0,0,0-2-.45l-.5,0-.69-.12c-.47-.07-.93-.12-1.39-.15-1-.07-1.7,0-3-.07h-1s-.06-.17-.07-.25a31.49,31.49,0,0,0-1.72-5.33c-.95-2.36-2.21-5-3.62-7.67s-3-5.5-4.66-8.36c-3.35-5.74-7.12-11.64-11.19-18.2-1.44-2.34-2.89-4.71-4.43-7.41l-.58-1-.49-.89-1-1.79c-.66-1.21-1.31-2.43-2-3.64-2.59-4.91-5.14-10.06-7.41-15.59A106.32,106.32,0,0,1,358.09,418a74.8,74.8,0,0,1-1.72-20.4c.17-1.78.34-3.56.57-5.33s.63-3.56,1-5.32a63,63,0,0,1,3.33-10.19,70.26,70.26,0,0,1,10.57-17.1,83.21,83.21,0,0,1,13.62-12.93,110.53,110.53,0,0,1,14.86-9.42c5.34-2.9,10.42-4.78,11.26-4.72s-2.72,2.08-7.94,4.92c-2.55,1.4-5.1,2.9-7.62,4.53s-5,3.35-7.5,5.26a85.81,85.81,0,0,0-7.23,6.18,82,82,0,0,0-6.67,7.21A68,68,0,0,0,364,378.44,59.68,59.68,0,0,0,361,389c-.3,1.81-.69,3.63-.82,5.45l-.24,2.73c-.09.91-.06,1.8-.08,2.71a75,75,0,0,0,2.67,20.58A114.41,114.41,0,0,0,369,438.29c2.51,5.54,5.23,10.72,7.93,15.67l1,1.85,1.17,2.06,2.26,3.8c1.48,2.46,2.94,4.8,4.38,7.12,2.85,4.61,5.64,9.1,8.2,13.55s4.95,8.84,6.88,13a61,61,0,0,1,2.39,5.94,21.45,21.45,0,0,1,1.1,4.31c0,.23,0,.28,0,.42s0,.05,0,0h.26a18.11,18.11,0,0,1,2.16.25,15.24,15.24,0,0,1,1.59.22l.79.2.39.13a1.36,1.36,0,0,0,.27.06,5.65,5.65,0,0,1,1,.33c.15.06.35.17.47.22l.2.08a2.59,2.59,0,0,1,.43.26c.06.05,0,0,0,0l0,0,0,0,0,0s0,0,0,0l-.14-.13a2.63,2.63,0,0,1-.44-.53c-.08-.11-.07-.14-.2-.31s-.26-.36-.38-.55a6.29,6.29,0,0,1-.58-1.12l-.11-.29c-3.29-7-.93-1.94-1.67-3.51h0l-.06,0-.23.1-.45.21c-.31.15-.58.3-.91.49l-1.23.72-.62.35-.15.09s-.24,0-.35,0h-.79l-3.15,0c-2.08,0-4.07.29-6.1.3s-4.09-.13-5.86,0l-1.38,0c-.46,0-.93,0-1.32.06l-2.49.19a12.69,12.69,0,0,1-2.59-.11l-1.32-.12-.66-.06a1.88,1.88,0,0,0-.55.07,15.07,15.07,0,0,1-4.38.44l-1.2,0a2.57,2.57,0,0,0-1.1.09l-1.87.56a8.6,8.6,0,0,1-2.18.31l-1.17.09-.58,0-.3,0-.24.09c-1.29.49-2.53.92-3.89,1.49l-2,.8c-.67.29-1.34.64-2,.95s-1.35.61-2,1l-2,1.13a30.66,30.66,0,0,0-3.78,2.52c-1.22.92-2.24,1.91-3.56,2.85s-2.14,2.12-3.24,3.25a7,7,0,0,0-1.47,1.84l-.57,1-.64,1a6,6,0,0,0-.79,1.94c-.19.67-.47,1.33-.66,2-.51,1.3-.18,2.82-.23,4a15.48,15.48,0,0,0,.19,1.84c.21.58.48,1.23.64,1.74a18,18,0,0,0,1.22,3,16,16,0,0,0,1.82,2.63,24.78,24.78,0,0,0,1.77,2.31l1.21,1.11c.38.36.66.69,1,1s.66.67,1,1a7,7,0,0,0,1.12,1c0-.06.05-.11.17-.1a4.41,4.41,0,0,1,1.17.41l.9.43c.33.17.7.37,1,.56a26.19,26.19,0,0,1-2.81-2.15c-.4-.36-.8-.73-1.18-1.12s-.75-.75-1.25-1.18a14,14,0,0,1-2.33-2.54c-.35-.46-.65-.88-1.08-1.4l-.61-.74a5.59,5.59,0,0,1-.46-.77,18.85,18.85,0,0,1-1.48-3.34l-.37-1a3.33,3.33,0,0,1-.29-1l-.13-1,0-1.08,0-1.13a3.22,3.22,0,0,1,.05-1.16l.27-1.12.39-1.1a22.81,22.81,0,0,1,.8-2.19c.41-.65.87-1.31,1.24-1.94l.38-.68a2.48,2.48,0,0,1,.43-.64l1.07-1.16c.72-.75,1.26-1.56,2-2.25s1.69-1.28,2.44-1.92,1.5-1.31,2.34-1.88l1.22-.88a10.69,10.69,0,0,1,1.26-.85l2.66-1.53c.88-.52,1.8-.89,2.7-1.34.45-.21.9-.44,1.35-.64l1.35-.54c.89-.36,1.81-.75,2.67-1.05l1.3-.48a3.66,3.66,0,0,1,1.41-.36c1-.1,2.14-.14,3.11-.3l2.56-.74c1,0,2.15,0,3.23,0H376l.36-.06.71-.13,1.42-.25a4,4,0,0,1,.74-.09l.9.08,1.81.15.9.08a6,6,0,0,0,.86-.05l1.71-.13c1.09-.11,2.41-.12,3.67-.16.65,0,1.25-.05,1.94,0l2.08,0,2.09,0,2.11-.15c1.4-.1,2.81-.2,4.29-.19l2.2,0h1l.06,0,.45-.25,1.76-1a14.36,14.36,0,0,1,1.37-.66l.17-.07.09,0c2.61,5.61.73,1.57,1.31,2.83v0l0,.06,0,.1a7.37,7.37,0,0,0,.38.81c.27.52.79,1.15.84,1.3a2.72,2.72,0,0,0,.31.38c.1.12.32.31.26.26s.07.08.1.1a2.12,2.12,0,0,0-.61-.34l-.27-.13-.36-.17A7.3,7.3,0,0,0,410,507l-.36-.08-.57-.18a9.31,9.31,0,0,0-1.14-.25l-.56-.08-.28,0h-.14l-.2,0q-.39-.07-.78-.12l-.64-.07c0,.08,0-.25,0-.46s-.05-.4-.06-.59,0-.2,0-.32l-.07-.39-.13-.81-.22-.93-.1-.47-.15-.52-.29-1-.72-2.22a129.42,129.42,0,0,0-5.69-13.27c-2.21-4.51-4.57-9-7-13.57s-4.93-9.1-7.47-14l-1-1.88-1-1.94-1.7-3.62c-1.14-2.44-2.28-4.92-3.38-7.45-1.56-3.14-3.11-6.32-4.52-9.67-.73-1.64-1.37-3.39-2.06-5.07s-1.28-3.48-1.81-5.3a86.58,86.58,0,0,1-2.75-11.21l-.41-2.95-.19-1.47-.11-1.51-.2-3v-3.06a56.13,56.13,0,0,1,5.7-23.86,70.4,70.4,0,0,1,13.67-18.82,12.4,12.4,0,0,1,2.19-1.9c.41-.21,0,.29-.85,1.16a75.65,75.65,0,0,0-9.88,12.33,60.89,60.89,0,0,0-7,15.08,56.42,56.42,0,0,0-2.31,17,68.33,68.33,0,0,0,2.38,16.45,17.94,17.94,0,0,1,0-4.08c.12-.95.35-1.43.7-1.36.75.12,1.72,2.6,3.15,6.2a67.52,67.52,0,0,1-2.26-14.07,20.08,20.08,0,0,1,.12-3.79c.11-.95.26-1.51.42-1.46s.33.64.43,1.58.13,2.23.26,3.61c.52,9.68,3.43,18.76,7,27.17,1.78,4.23,3.75,8.31,5.8,12.29,1,2,2.07,4,3.12,5.9l.79,1.47.84,1.51,1.69,2.94c5.66,9.09,11.41,17.69,16.39,26.62a119.55,119.55,0,0,1,6.6,13.47,52.7,52.7,0,0,1,2.18,6.7,18.59,18.59,0,0,1,.58,6c.15-.48.38-.9.51-1.38s.28-.93.44-1.35a8.25,8.25,0,0,1,.8-2.1h0a46,46,0,0,0-2.54-8.67,149.23,149.23,0,0,0-10.37-19.15c-3.89-6.29-8-12.46-12.14-18.85-2.06-3.16-4.1-6.61-5.95-9.87s-3.74-6.71-5.5-10.17-3.37-7.06-4.85-10.75a92.8,92.8,0,0,1-3.66-11.5,64.67,64.67,0,0,1-1.7-12.25,52.22,52.22,0,0,1,1.08-12.57A50.53,50.53,0,0,1,376.3,377a60.79,60.79,0,0,1,6.55-10.47,85.37,85.37,0,0,1,17.38-16.62A204.56,204.56,0,0,1,420,337.37a9,9,0,0,1,2-1,6.2,6.2,0,0,1-1.64,1.13c-8,4.66-16.12,9.53-23.58,15.55a74.21,74.21,0,0,0-19,22l.05-.07c.46-.66.66-.72.33.09a27.88,27.88,0,0,1-1.42,2.77c-.49.78-.59.65-.34-.07a50.54,50.54,0,0,0-4.58,27.38,82.75,82.75,0,0,0,7.7,25.82c1.85,4,3.87,7.86,6,11.63q1.58,2.82,3.18,5.6c.53.91,1.09,1.86,1.66,2.8l1.72,2.76c4.6,7.24,9.31,14.15,13.67,21.24-3.87-6.69-8.05-13.23-12.16-19.95-1-1.68-2.06-3.37-3.05-5.13s-1.93-3.44-2.87-5.19c-1.89-3.46-3.72-7-5.43-10.6a117,117,0,0,1-4.67-11.1c-.7-1.89-1.28-3.84-1.88-5.78s-1.06-3.94-1.41-6a52.55,52.55,0,0,1,.64-24.58,50.69,50.69,0,0,1,3.5-10.28,10.66,10.66,0,0,1,1.45-2.28c.24-.18,0,.5-.46,1.41s-.86,1.81-1.25,2.74c2.74-5.61,6.13-9,6.57-8.56.39.69-2.22,5.1-4.67,10.73a44.34,44.34,0,0,0-3.28,11.81,46.8,46.8,0,0,0-.12,12.23,68,68,0,0,0,2.54,12A102,102,0,0,0,383.55,428c.76,1.6,1.56,3.18,2.38,4.74s1.84,3.06,2.78,4.57a136.55,136.55,0,0,1-7.51-17.39,67.31,67.31,0,0,1-3.67-18.29,46.2,46.2,0,0,1,2.91-18.1,57.81,57.81,0,0,1,9.37-15.84c1.32-1.67,2.67-2.9,2.86-2.78s-.79,1.52-2.09,3.18c-6.46,8.57-10.81,18.71-10.7,29.08a51.67,51.67,0,0,0,2.35,15.42,95.64,95.64,0,0,0,6,14.89c2.41,4.88,5.13,9.66,8,14.46,1.45,2.44,2.81,4.69,4.33,7l4.61,7c3.12,4.73,6.24,9.53,9.24,14.49A160.71,160.71,0,0,1,422.81,486a68.74,68.74,0,0,1,5.25,11.29,37.47,37.47,0,0,1,1.72,6.85,24.4,24.4,0,0,1-.27,8.61,18.86,18.86,0,0,1-5.33,9.28,18.44,18.44,0,0,1-2.08,1.74c-.71.48-1.43.94-2.18,1.38a7.23,7.23,0,0,1-.92.49l-.83.4-1.66.79c-.56.25-1.14.55-1.68.75l-1.62.54-1.63.55-.4.14-.2.07-.12,0-.48.14c-.64.17-1.27.39-1.9.52l-1.87.33,2,0c.67,0,1.33-.17,2-.25a20.71,20.71,0,0,0,2.34-.53c.92-.25,1.81-.42,2.75-.73s1.91-.72,2.86-1.1l1.42-.57.18-.07.25-.13.49-.26,1-.53a16.25,16.25,0,0,0,1.9-1.2c.63-.48,1.25-1,1.85-1.51a13.35,13.35,0,0,0,1.7-1.74c.52-.64,1.07-1.27,1.51-1.94a21.16,21.16,0,0,0,2.14-4.21c.26-.7.52-1.43.71-2.13s.29-1.34.42-2l.17-1c.05-.32.06-.62.09-.93l.11-1.86c0-1.21-.06-2.27-.12-3.41s-.27-2.06-.42-3.09l-.62-2.84a61.51,61.51,0,0,0-3.47-9.81c-1.31-3-2.75-5.81-4.25-8.5s-3.05-5.27-4.63-7.79c-3.17-5-6.46-9.8-9.76-14.45s-6.66-9.23-9.55-13.61c-3-4.7-6-9.37-8.64-14.16a98.39,98.39,0,0,1-6.85-14.79A53.91,53.91,0,0,1,381,398.91a5.18,5.18,0,0,1,.05-1.4,1.7,1.7,0,0,1,.2-.69c.16-.11.24.62.25,1.69a52,52,0,0,0,3,15.15A91.14,91.14,0,0,0,391,427.9c2.57,4.64,5.43,9.2,8.44,13.84l1.12,1.73,1.1,1.63,2.33,3.36,4.92,7a280.15,280.15,0,0,1,15.81,24.49,93.14,93.14,0,0,1,6.51,14.1c.24.63.43,1.35.65,2s.43,1.35.6,2.11l.53,2.21.4,2.39a27.8,27.8,0,0,1-.7,11.66,28.17,28.17,0,0,0,1-11.85,46,46,0,0,0-2-8.87,89.36,89.36,0,0,0-6.15-14.16,244.32,244.32,0,0,0-14.79-23.64c-2.53-3.69-5.11-7.33-7.46-10.83l-1.7-2.58-1.74-2.78c-1.15-1.84-2.29-3.69-3.37-5.53-4.37-7.35-8.3-14.77-10.68-22.43a11.09,11.09,0,0,1-.54-2,13.89,13.89,0,0,1-.23-1.62,1.47,1.47,0,0,1-.38-.72,38.8,38.8,0,0,1-1.88-12.34,7.27,7.27,0,0,1,.39-2.26C383.38,392.45,383.46,393,383.44,393.88ZM260.91,570.61l-.15-.17.52.3.72,1.09Zm-9,3.68h0l-.43-.63ZM428,591.62a9.92,9.92,0,0,1-1.71.24h-.86c-.31,0-.79-.09-1.18-.12l-.62,0-.88-.13L421,591.3l-3.51-.53c-4.68-.69-9.35-1.5-14-2.28-9.32-1.63-18.6-3.37-27.87-5.28l13.61,2.42c7,1.33,14.07,2.62,21.13,3.82,3.53.62,7.05,1.16,10.59,1.74l2.65.41,1.83.2A9.84,9.84,0,0,0,428,591.62ZM254.72,566.1a12.7,12.7,0,0,1,2.12,2.16,6,6,0,0,1,1.69,0c1.56.18,3.07.41,4.55.7-.19-.39.16-.31.34-.34l.56,0-4.79-1.23A42.13,42.13,0,0,1,254.72,566.1Zm-11.17.95-.14-.16.26-.62S243.62,566.61,243.55,567.05Zm-.41,1.05.23.09C243.3,568.42,243.22,568.34,243.14,568.1Zm2.14.86a1.93,1.93,0,0,0-.31-.35Zm2.28,18.18.64-3.14-.71,3Z"/><path d="M545.93,464.17l-.41.31a.76.76,0,0,1,0-.87,6.09,6.09,0,0,0-1.82,5.6,10.51,10.51,0,0,0,2.93,5.24,1.82,1.82,0,0,0,1.89,2,2.36,2.36,0,0,0,2.45-1.78,2.94,2.94,0,0,1,.48-.66,17,17,0,0,0,4.43-5.13l-1.14,1.1a4.74,4.74,0,0,0,.74-1.7l-.7.2a3.59,3.59,0,0,0-.62-5.85,5.92,5.92,0,0,0-7.32.68Z"/><path d="M538.48,467.8c.91-1.25,1.87-2.43,2.85-3.59l.44-.22h-1.9l.12,0c1.51,1.2,2,3.05,2.3,4.75l.25.61a1.55,1.55,0,0,0,1,.54,1.67,1.67,0,0,0,1.93-1.14,8.75,8.75,0,0,1,.23-.88c1.29-2.15,1.67-5.45-1.44-6.89a6.74,6.74,0,0,0-2.56-.14,2.25,2.25,0,0,0-2.59,1.73,2,2,0,0,0,1.94,2.26c-.1.19-.2.38-.31.56l-.41-.46c1.07.36,1.22,1.38,1.74,2.14l.2,1.13,3-.57-.33-.58a3,3,0,0,1-.33.11,16.45,16.45,0,0,1-1.8-3.42l-.94-1.59a1.53,1.53,0,0,0-1.9,0l-.69.66.4-.29c-.79,1.56-1.31,3.24-2.14,4.82a.49.49,0,0,0,.22.7A.62.62,0,0,0,538.48,467.8Z"/><path d="M538.54,462.11c.24-.25.5-.48.47-.86l-.22-.17c-.15.13-.35.3-.54.48C537.86,461.9,538.12,462.11,538.54,462.11Z"/><path d="M538.79,461.08l.23-.2-.29.13,0,0Z"/><path d="M579.64,583.89c1,1.55,2.14,3,3.21,4.49s2.16,3,3.34,4.45c2.35,2.87,4.61,5.83,7.14,8.58,1.25,1.39,2.47,2.81,3.74,4.18l3.91,4c.66.67,1.3,1.36,2,2l2,2,4.1,3.89c.38.34.75.55.85.46s-.14-.4-.49-.71a211.86,211.86,0,0,1-15.69-16c-2.51-2.74-4.78-5.69-7.11-8.55-1.18-1.42-2.21-3-3.32-4.43L581.71,586c-.55-.73-1.08-1.48-1.58-2.25-.28-.41-.59-.68-.73-.65S579.38,583.5,579.64,583.89Z"/><path d="M661.8,663.6c-.37-.08-.4,0-.08.25a3.91,3.91,0,0,0,1.19.54c.31.08.35,0,.08-.24A4.5,4.5,0,0,0,661.8,663.6Z"/><path d="M655.38,669.42c-1.08-.39-2.13-.76-3.15-1.1s-2-.71-2.92-1a4.6,4.6,0,0,1-1-.46c0,.21-.41.15-1.19-.13-3.86-1.38-7.67-3.06-11.56-4.73-2-.82-3.85-1.8-5.79-2.71s-3.9-1.84-5.79-2.88l-5.76-3.07c-1.93-1-3.79-2.17-5.69-3.26-3.84-2.14-7.51-4.57-11.25-6.88a1.78,1.78,0,0,1-.88-.07,18.14,18.14,0,0,1-5.38-3.19l-1.46-1.25c-1.53-1.18-3-2.51-4.43-3.76s-2.93-2.52-4.37-3.81l-4.23-4c-1.41-1.32-2.82-2.64-4.14-4a44.65,44.65,0,0,1-4.25-3.41c-1.35-1-2.64-2.11-3.93-3.21l-3.89-3.3c-1.32-1.1-2.55-2.29-3.81-3.47l-3.78-3.58c.18.42.22.73.06.86-.44.19-1.84-.75-3-2.23l-1.86-2.18,2.5,3.27c.85,1.08,1.74,2.11,2.6,3.17a9.22,9.22,0,0,1,.67.86l3,3.34c1,1.11,2.14,2.17,3.23,3.25A204.48,204.48,0,0,0,594.25,641a254.13,254.13,0,0,0,32.33,18.22,4.05,4.05,0,0,1,1.18.7c.16.19.06.28-.35.11-14.33-5.81-27.28-10.83-42.34-20.76a232.59,232.59,0,0,1-25.77-19.61,226.6,226.6,0,0,1-23.55-23.81,336,336,0,0,1-19.65-29.06c-1.46-2.53-3-5-4.42-7.62s-2.79-5.23-4.19-7.87-2.62-5.42-3.94-8.19c-.33-.69-.67-1.38-1-2.08l-.9-2.14c-.61-1.43-1.21-2.87-1.82-4.31l-1.22-2.94c-.39-1-.74-2-1.1-3l-2.15-6-.53-1.5-.46-1.51-.92-3c-.61-2-1.22-4-1.8-6.06l-.38-1.54-.19-.76L491,508l-.31-1.06-.61-2.12L489,500.58a160.92,160.92,0,0,1-3-17.45,8.5,8.5,0,0,1,.7-6.07,6,6,0,0,1,4.22-3.18,6.46,6.46,0,0,1,5.84,2.3v-1l.36-1.65a6.05,6.05,0,0,1,2.43-3.7l1.5-1.12c2.84-1.48,5.43-3.79,8.53-4.85l1.16.31.34-.27a5.59,5.59,0,0,1,3.22-1.58l1.41.15a14.31,14.31,0,0,1,4.51,1.52,5,5,0,0,1,1.72.31,7,7,0,0,1,4.65-.21,1,1,0,0,1,1.38.17.93.93,0,0,1,.19.49h0c.38-.18.49-.23.91-.46a5.18,5.18,0,0,1,.25-.52c.3-.88.3-.88.59-1.64a4.76,4.76,0,0,1,1.25-1c2.58-.57,2.59-.56,3.67-.38a2.11,2.11,0,0,1,.3.16c.41-.55.44-.58.56-.73a2.3,2.3,0,0,1,.44-.24c.59,0,.59,0,.81-.06a2.88,2.88,0,0,1,.45,0c.63.36.63.36.82.38a1.88,1.88,0,0,1,.3.2l.27.59-1.58.69.51.2L537,462l.65-.07-.42.38.59-.42a3.41,3.41,0,0,0-.31,1.3,1.38,1.38,0,0,0,0,.76,2.2,2.2,0,0,1,.34,0c-.32,1-.32,1-.67,1.95a3,3,0,0,1-.44.22.39.39,0,0,1,.19.48l-.15.52a.44.44,0,0,1,.08.11h0c.11.17.18.3.26.44l.07.09h0c.17.3.46.75,1.22,1.89a4.8,4.8,0,0,1-.32.85l.29-.25c.21-.15.76,0,.81-.09a44.51,44.51,0,0,0,2.75-6.58.8.8,0,0,1,.8-.8.78.78,0,0,1,.88.69,13.4,13.4,0,0,1,1.6,7.25,15.72,15.72,0,0,1-.66,3.74,18.48,18.48,0,0,1-.67,1.84c-.22.61-.47,1.22-.75,1.81-.26,1.24-.48,2.49-.69,3.75l.27-.2-.4,1s0,.07,0,.11l1-.81c.1-.17.19-.34.28-.52a16.76,16.76,0,0,1,1.19-4.2c.5-1.36,1.28-2.7,1.81-4a34.61,34.61,0,0,1,2.41-4,.76.76,0,0,1,.86-.54.63.63,0,0,1,.59.71,18.4,18.4,0,0,1-.49,6.89,14.66,14.66,0,0,1-3.16,6.53,4.19,4.19,0,0,1-.82,2.41v0c.26-.21.52-.4.78-.6-.16.65-.81,1.05-1.06,1.66l1.1-.33c-.49,3.19,0,6.52-1.2,9.67,0,.12,0,.23-.06.35a17.45,17.45,0,0,1,1.26,1.74c.09.15.17.31.25.47a.53.53,0,0,1,.06.13l.08.35c.05.25.11.49.16.73.17,1,.46,2,.64,3l-.18-2.16-.06-2.11,1.18,4.45a47.7,47.7,0,0,1,.93,4.73c.83,4.41,1.35,9.22,1.81,13.59.09,1.09.16,2.17.2,3.21s.14,2,.16,3a26.46,26.46,0,0,1-.28,5,201.08,201.08,0,0,0,11,24.89,181.9,181.9,0,0,0,14.65,23.07c.57.74.92,1.54.81,1.84s-.72-.11-1.3-.85c-2.15-2.49-4-5.2-6-7.85-1-1.31-1.91-2.71-2.83-4.09L565.32,565c-.88-1.41-1.71-2.86-2.57-4.29s-1.74-2.85-2.5-4.33l-2.34-4.43-1.17-2.21-1.07-2.27a160.32,160.32,0,0,0,15.55,30.35c.85,1.2,1.67,2.44,2.6,3.6a43.94,43.94,0,0,1,2.47,3.64l1.63,2.25,1.72,2.17,3.42,4.33c1.18,1.4,2.39,2.77,3.59,4.16s2.37,2.79,3.66,4.1l3.81,4c1.25,1.35,2.65,2.58,4,3.88s2.68,2.6,4.13,3.82l4.34,3.71c1.23,1.08,2.51,2.06,3.77,3l3.73,2.92c2.49,1.89,5,3.64,7.51,5.46s5.12,3.42,7.71,5.15,5.36,3.32,8.18,5c8,4.64,15.81,8.65,23.71,12.48s16,7.28,24.47,10.79c2.28.84,4.28,2,4.4,2.51s-1.65.28-4-.55c-9-3.24-17.91-6.83-26.59-10.84a278,278,0,0,1-25.31-13.51,216.21,216.21,0,0,1-23.73-16.57A183,183,0,0,1,589,603.24c-1.49-1.54-2.82-3.2-4.2-4.79s-2.77-3.16-4-4.83a.59.59,0,0,1-.14.26c-.27.24-.77.14-1.4-.19.74.93,1.44,1.9,2.21,2.82l2.3,2.76c1.54,1.85,3,3.75,4.68,5.53,9.76,9.29,20.18,17.8,31.49,26.76,7.81,6.1,15,11.6,22.7,16.82a299.13,299.13,0,0,0,31.93,15,2.91,2.91,0,0,1,1,.53c.12.15-.15.14-.61,0-1.93-.66-3.85-1.4-5.8-2.11l-2.91-1.08c-1-.37-1.93-.78-2.9-1.18l-5.81-2.41-5.76-2.63c1,.9,1.56,1.64,1.27,2s-1.41.27-3-.19l5.16,2.67c1,.58,1.83,1.13,1.71,1.32s-1.07,0-2.09-.56c-3.52-1.82-7.07-3.56-10.5-5.54-1.72-1-3.47-1.89-5.17-2.9l-5.08-3a250.22,250.22,0,0,1-23.89-15.39,6.35,6.35,0,0,1,1.45,2.67h0l3.58,2.61a365.87,365.87,0,0,0,73.9,35.72c.51.17.91.4.89.49s-.44,0-.9-.14c-3.94-1.45-7.91-2.8-11.79-4.38-1.94-.78-3.91-1.47-5.83-2.3l-5.77-2.42,0,0c.28.19.3.32-.07.24a4.27,4.27,0,0,1-1.21-.51c-.33-.21-.25-.3.07-.24a379.52,379.52,0,0,1-41.16-21,328.58,328.58,0,0,0,37.22,20.55c1.46.51,2.89,1.09,4.4,1.57a3,3,0,0,1,1,.57c.08.12-.25.1-.67-.05l-1.23-.42c2.45,1.08,4.2,2.28,4,2.74s-2.64-.06-5.23-1.17c-6.91-3-13.74-6.09-20.35-9.64l-2.2-1-2.29-.92a283.23,283.23,0,0,0,31.27,15.64c.92.38,1.65.84,1.6,1s-.85,0-1.78-.36a263.28,263.28,0,0,1-28.59-12,250.55,250.55,0,0,1-27.35-15.48c-3.15-1.53-6.22-3.21-9.38-4.82s-6.22-3.47-9.37-5.27c.68.59,1.42,1.13,2.14,1.69,2.32,1.74,4.57,3.48,6.9,5s4.65,3,6.95,4.5,4.69,2.72,7,4,4.72,2.48,7.05,3.72c9.43,4.77,19,9,29.07,13.39a2.1,2.1,0,0,1,.93.58c0,.12-.37,0-.89-.17-9.92-4.23-19.08-8-28.72-13L619,651.19c-1.92-1.05-3.8-2.15-5.69-3.2l-2.81-1.57c-.93-.53-1.84-1.1-2.76-1.64l-5.48-3.22,5.32,3.56c.89.58,1.77,1.18,2.67,1.73l2.72,1.64c1.81,1.08,3.6,2.16,5.42,3.2l5.51,3,2.75,1.48,2.8,1.4,5.58,2.79,5.67,2.65,2.84,1.33,2.88,1.27a7.11,7.11,0,0,1,1.7.93c.06,0,.22,0,.44.05,2,.65,4.15,1.48,6.36,2.24a3.1,3.1,0,0,1,1.1.59C656.15,669.59,655.86,669.57,655.38,669.42ZM531.69,477.85l.19-.14-.32.48-1.33.73Zm-5.06-8.34h0l.78-.38ZM559.06,558c-1.73-3.67-3.57-7.27-4.93-11.06-.7-1.88-1.47-3.73-2-5.65s-1.14-3.83-1.67-5.76l2.23,5.35c.93,2.88,2,5.7,3,8.59S557.93,555.13,559.06,558Zm-22.15-85.77a13.78,13.78,0,0,1-2.55,1.88,3.79,3.79,0,0,1,.16,1.5c-.16,1.38-.22,2.74-.44,4.08.47-.2.43.12.49.28l.13.49c.3-1.43.59-2.86,1-4.3A27.52,27.52,0,0,1,536.91,472.23Zm-1.39-9.77.19-.11.72.3ZM534.3,462l-.12.19C533.91,462.09,534,462,534.3,462Zm-1.06,1.81a1.48,1.48,0,0,0,.42-.25Zm-21.72.56,3.65.94-3.5-1Z"/><path d="M547,610.9l-.48-.26c.15-.29.49-.39.92-.38-4.81-1.88-9.21,1.33-11.39,5a2,2,0,0,0-1.61,2.5,2.42,2.42,0,0,0,2.74,1.69,3.63,3.63,0,0,1,.89.22,20.6,20.6,0,0,0,7.34,2.37l-1.67-.69a6,6,0,0,0,2.22.1c-.16-.18-.33-.39-.48-.58,2.78,1,5.63-.25,6.4-2.87a5.57,5.57,0,0,0-3.62-6.62Z"/><path d="M540.43,605.31c1.62.37,3.2.81,4.79,1.29l.39.33-.71-1.79v.12c-.69,1.87-2.46,3-4.15,4l-.57.44a1.48,1.48,0,0,0-.24,1.12,1.77,1.77,0,0,0,1.91,1.44l1-.12c2.76.37,6.55-.55,6.83-4a5.85,5.85,0,0,0-.87-2.45,2.44,2.44,0,0,0-2.82-1.78,2.12,2.12,0,0,0-1.62,2.69l-.71-.07.33-.57c0,1.14-1,1.68-1.61,2.46l-1.12.64L543,611.6l.51-.54a3.09,3.09,0,0,1-.24-.26,18.92,18.92,0,0,1,3-3l1.31-1.49a1.44,1.44,0,0,0-.71-1.79l-1-.4.46.26c-1.94-.15-3.87,0-5.79-.15a.56.56,0,0,0-.65.48A.6.6,0,0,0,540.43,605.31Z"/><path d="M546.34,603.17a1.35,1.35,0,0,0,1.07.13c.06-.16.08-.24.1-.28l-.71-.33C546.29,602.46,546.18,602.79,546.34,603.17Z"/><path d="M547.51,603l.29.14-.24-.22,0,0Z"/><path d="M453.63,642.37c-8.68,3.42-17.24,7.23-25.67,11.31-.28.14-.47.33-.43.44s.31.08.57-.06c8.45-4,17-7.82,25.65-11.22.28-.12.47-.31.45-.44S453.9,642.26,453.63,642.37Z"/><path d="M386.33,666.65c.14-.18.08-.26-.15-.19a1.67,1.67,0,0,0-.65.44c-.13.16,0,.25.15.19A1.7,1.7,0,0,0,386.33,666.65Z"/><path d="M383.76,659.26a33.11,33.11,0,0,0,2.73-2.66,1.68,1.68,0,0,1,.52-.36c-.15-.09,0-.36.34-.69,7-6.67,15.22-13.06,23.29-19.4a1.19,1.19,0,0,1,.13-.61,6.84,6.84,0,0,1,2.68-2.51l1-.52c3.89-2.23,7.76-4.46,11.7-6.55a15.63,15.63,0,0,1,2.44-2c3-2.57,6-5.16,9.16-7.63-.28,0-.5-.07-.58-.24-.15-.44.47-1.22,1.4-1.77l1.37-.87-4.15,2.13a4,4,0,0,1-.56.26q-2.21,1.31-4.39,2.77c-6.4,4.24-12.35,8.75-18.06,13.36s-11.17,9.3-16.52,14.06a1.49,1.49,0,0,1-.68.42c-.16,0-.21-.1,0-.29,6.3-6.68,11.31-13.35,19.05-20.3,9.23-8.25,18.59-16.24,28.73-24,11.18-7,21.2-14.29,32.65-21.81q6.36-4.17,12.72-7.94c6.63-4.22,13.35-7.85,20.33-11.41,3.45-2.26,7.68-1.44,9.4,1.77a6.89,6.89,0,0,1-.06,6.28l.89-.35,1.56-.21a5.6,5.6,0,0,1,4.06,1.07l1.5,1c2.31,2.22,5.25,3.73,7.35,6.27l.15,1.2.37.23a5.61,5.61,0,0,1,2.64,2.43l.39,1.38a14.2,14.2,0,0,1,.26,4.81,4.78,4.78,0,0,1,.35,1.74,7,7,0,0,1,1.94,4.29,1,1,0,0,1,.34,1.37,1,1,0,0,1-.41.36h0a9.29,9.29,0,0,0,.78.69,5.22,5.22,0,0,1,.61,0L543,595a4.9,4.9,0,0,1,1.48.81c1.58,2.21,1.58,2.21,1.82,3.3a1.86,1.86,0,0,1,0,.34c.72.17.77.19,1,.25a2.13,2.13,0,0,1,.42.33c.22.56.22.56.39.73a3.22,3.22,0,0,1,.18.42c-.12.73-.12.73-.07.92a1.78,1.78,0,0,1-.08.36l-.5.47-1.34-1.23v.56l-.43-.61.32.58-.55-.25.67.4a3.78,3.78,0,0,0-1.46.2,1.61,1.61,0,0,0-.78.32,2.72,2.72,0,0,1,.15.31c-1.14.08-1.14.08-2.26.13a3.22,3.22,0,0,1-.39-.33.45.45,0,0,1-.42.37l-.58.05-.09.12,0,.05-.36.42-.07.1h0l-1.54,1.81a5.56,5.56,0,0,1-1,0l.36.19c.24.14.27.71.38.73a41.14,41.14,0,0,0,7.92.13.92.92,0,0,1,1.15.44.79.79,0,0,1-.39,1.1c-3.91,4.23-10,5.42-15.88,4.76-1.42.13-2.83.32-4.25.51l.29.2-1.18-.07-.12,0,1.14.67.64.1c3.23-.57,6.58,0,9.9.15a42.73,42.73,0,0,1,5.26.87.81.81,0,0,1,.9.63.67.67,0,0,1-.58.8c-4.82,2-10.79,2.91-16,1a4.82,4.82,0,0,1-2.86-.06h0l.86.58c-.76,0-1.37-.48-2.1-.55l.63,1c-3.64.4-7.19,1.84-10.9,1.45l-.4,0a18.25,18.25,0,0,1-1.67,1.62,5.19,5.19,0,0,1-.46.36l-.12.09-.22.11-.44.23c-.59.29-1.21.56-1.87.81l2.81-.58a26.36,26.36,0,0,1-5.65,2.62c-5.65,1.8-12.54,2.63-16.55,1.47-10.68,4.42-21.3,9.09-31.63,14.27a1.42,1.42,0,0,1-1.32.15c-.17-.19.07-.57.6-.84,7.17-4.2,14.69-8,22.33-11.59-6.75,2.24-13.47,4.69-20.13,7.61l-2.48,1.26a18.25,18.25,0,0,1-2.56,1,259.15,259.15,0,0,0-24.54,12.55c-6.95,4.14-12.94,7.92-19.66,12.36-9.43,6.25-17.9,12.08-27.48,17.91-1.24.82-2.6,1.3-3,1s.29-1.14,1.53-2c9.54-6.75,19.05-13.39,28.9-19.73a299.78,299.78,0,0,1,31.07-17.76c2.39-1.14,4.72-2.27,7.07-3.35a.57.57,0,0,1-.18-.2,1.11,1.11,0,0,1,.14-1.1c-2.68,1.2-5.38,2.43-8.12,3.6-7,4.37-14,8.76-21.87,12.75-5.41,2.75-10.5,4.94-15.61,7.38-5.92,3.92-11.75,8-17.66,12a1.06,1.06,0,0,1-.64.29c-.14,0-.06-.17.17-.35,3.84-3.12,7.87-6.2,12-9.23-.86.18-1.48.11-1.67-.28s.12-1.07.77-1.82l-3,1.85c-.61.38-1.18.55-1.29.36s.27-.66.84-1q6-3.84,12.09-7.53c4.7-3.21,9.44-6.33,14.26-9.39a3.56,3.56,0,0,1-2.06-.2h0l-2.25,1.39c-13.1,9.53-26.64,18.89-40.41,28.23-.27.19-.53.28-.59.21s.1-.27.35-.43l12.4-8.5h0c-.2.06-.3,0-.15-.18a1.81,1.81,0,0,1,.64-.45c.24-.07.28,0,.16.19q11.48-7.95,22.63-15.95l-21.43,13.7-2.11,1.86a1.19,1.19,0,0,1-.64.28c-.11,0,0-.21.2-.38l.59-.51c-1.35.87-2.61,1.24-2.87.82s.7-1.58,2.08-2.52q5.44-3.93,11-7.65l1.15-.87,1.08-1c-5.93,3.63-11.8,7.31-17.57,11.1-.48.34-1,.52-1.08.38s.19-.53.67-.88c9.49-7.65,19.4-15,29.62-22.1l9-9.06-1.35.83a143.09,143.09,0,0,0-15.37,11.7c-4.78,4-9.43,8.09-14.65,12-.25.21-.52.3-.6.25s.05-.27.32-.46c5-3.91,9.37-7.91,14.31-12,4.08-3.37,8-6.52,11.74-9.81-8.25,5.71-15.59,12-23.41,18.08a2.82,2.82,0,0,1-1,.58.37.37,0,0,1-.12.25c-.87.92-1.86,1.86-2.89,2.78a1.17,1.17,0,0,1-.65.35C383.47,659.64,383.55,659.48,383.76,659.26Zm144.06-56.93.21.14-.6-.16-1.15-1Zm6.7-7.6h0l.65.61ZM471,630.7a90.71,90.71,0,0,1,14.43-4.87l-3.33,1.53Zm64.28-25.34a13.89,13.89,0,0,1-2.78-1.76,4.54,4.54,0,0,1-1.48.68c-1.46.37-2.91.64-4.35.87.34.38,0,.44-.15.55L526,606c1.57-.18,3.15-.3,4.78-.39A30.17,30.17,0,0,1,535.26,605.36Zm9.55-4.89.19.14,0,.79S544.9,601,544.81,600.47Zm0-1.32-.25,0C544.57,598.82,544.67,598.9,544.83,599.15Zm-2.24-.32a1.58,1.58,0,0,0,.41.3ZM534,578.62l.48,3.78-.36-3.67Z"/></svg>