<svg id="Layer_1" data-name="Layer 1" xmlns="http://www.w3.org/2000/svg" viewBox="0 0 1080 650.61"><path d="M367.84,92.68c.2-.07.41-.12.61-.18a1.73,1.73,0,0,1-.69,1.16,15.08,15.08,0,0,0,6.41-5.94,26.29,26.29,0,0,0,3.17-8.08c1.23-1.1,1.71-2.73,1-3.73s-2.44-.93-3.75.23a5.11,5.11,0,0,1-1.11.47A17.94,17.94,0,0,0,368.79,78a26.29,26.29,0,0,0-4.59,2.53l2.15-.84a11.21,11.21,0,0,0-2.5,1.94l.77.14c-3.48,1.58-5.94,5.79-5.27,9s3.87,4.24,7,2.6Z"/><path d="M377,92.52c-1.71.87-3.49,1.66-5.21,2.55l-.55,0,1.62,1-.08-.1c-.37-2.22.77-4.74,2-6.93l.37-.85a1.62,1.62,0,0,0-.25-1.26c-.55-.75-1.72-.7-2.62.11l-1,1c-3,1.9-6.24,6.3-4.51,9.59.39.74,1.39,1,2.17,1.36a2.58,2.58,0,0,0,3.53-.85,2.7,2.7,0,0,0,.07-3.69c.23-.17.46-.34.7-.5,0,.26,0,.52,0,.78-.63-1,.1-2.31.32-3.53.26-.49.51-1,.8-1.47l-2.89-1.1-.25.93a2.29,2.29,0,0,1,.37,0,48.3,48.3,0,0,1-1.35,5.26c-.16.81-.31,1.61-.42,2.43a1.2,1.2,0,0,0,1.64,1c.36-.14.71-.3,1.08-.43L372,98c.93-.72,1.82-1.49,2.71-2.24a33.64,33.64,0,0,1,2.77-2.1.81.81,0,0,0,.38-.91A.53.53,0,0,0,377,92.52Z"/><path d="M372.62,99a1.8,1.8,0,0,0-1,.78l.07.31.82-.3C373.07,99.57,373,99.2,372.62,99Z"/><path d="M371.67,100.09l-.34.12h.35a.45.45,0,0,0,0-.06Z"/><path d="M404.9,236.28l-2.58,1.89c-.84.64-1.63,1.31-2.45,2-1.6,1.31-3.31,2.58-4.77,4l-2.29,2c-.76.68-1.54,1.36-2.21,2.08l-.51.52-.16.18-.33.37c-.21.24-.61.55-.87.85a23.38,23.38,0,0,0-3.1,4.07,6.4,6.4,0,0,0-.78,2.45,3.9,3.9,0,0,0,.65,2.44,11.65,11.65,0,0,0,4,3.13,27.83,27.83,0,0,0,4.81,2.08l.36.1.5.15,1.35.42c.91.26,1.85.47,2.77.72,1.87.43,3.76.84,5.7,1.12a83.91,83.91,0,0,0,11.84,1,4.92,4.92,0,0,0,2-.23c.05-.11-.79-.22-1.78-.2a86.27,86.27,0,0,1-11.79-1c-1.92-.28-3.8-.69-5.66-1.11l-2.76-.7c-.83-.27-2-.63-2.3-.71A27,27,0,0,1,390,262a11.94,11.94,0,0,1-3.86-2.94,3.59,3.59,0,0,1-.69-2.29,5.85,5.85,0,0,1,.68-2.34,20.58,20.58,0,0,1,2.92-3.87,9.5,9.5,0,0,1,.85-.83l.3-.34.15-.16.08-.09.23-.24,1.05-1.06,1.14-1,2.27-2c.77-.67,1.47-1.38,2.3-2l2.43-1.95,2.43-1.95,2.56-1.88a6.33,6.33,0,0,0,1.65-1.54C406.47,235.26,405.76,235.65,404.9,236.28Z"/><path d="M575.72,229.19c-1,0-.93.1,0,.26s2.35.37,3.3.46.8,0,0-.26A15.91,15.91,0,0,0,575.72,229.19Z"/><path d="M567.85,237.21a60.39,60.39,0,0,0-13.21,3.42c-.75.28-1.6.53-2.26.7.34.07-.54.52-2.26,1.17-16.9,6.44-33.58,15.6-51.12,24.73-8.78,4.56-17.82,9.08-27.26,13.13a192.94,192.94,0,0,1-29.6,10.17,6.09,6.09,0,0,1-1.66.82,42,42,0,0,1-6.13,1.75c-1.31.25-2.73.5-4.2.74s-3,.38-4.6.52-3.16.18-4.74.23a116.28,116.28,0,0,1-14.45-.32A96.67,96.67,0,0,1,391.91,292l-1.8-.41-1.78-.5-2-.55a20.35,20.35,0,0,1-2.22-.7c-1.47-.53-2.95-1-4.41-1.58l-4.31-1.76a67.28,67.28,0,0,1-15.11-9.43,28,28,0,0,1-5.27-5.28,19.34,19.34,0,0,1-3.51-7.64,21.55,21.55,0,0,1-.43-7.41,30.06,30.06,0,0,1,1.7-7.2,32.91,32.91,0,0,1,3.3-6.89q2.22-3.35,4.45-6.69c.74-1.13,1.48-2.26,2.35-3.35.42-.55.82-1.1,1.27-1.66l1.42-1.66,2.56-3c.67-.82,1.38-1.58,2.1-2.33l4.33-4.55c1.47-1.48,3-2.86,4.5-4.3-.88.57-1.48.85-1.61.69-.07-.55,2.56-3.53,6.05-6.26,1.75-1.42,3.47-2.9,5.24-4.21-1.29.92-2.56,1.91-3.84,2.91l-3.81,3c-2.53,2-5,4.23-7.5,6.35-.7.67-1.35,1.27-2,1.81l-3.92,3.87c-.66.63-1.26,1.37-1.9,2.05l-2.66,3c-.45.51-.94,1-1.36,1.53l-1.2,1.54c-.84,1-1.55,2.06-2.28,3.12l-4.37,6.33-1.2,1.74c-.35.59-.65,1.19-1,1.78a31.82,31.82,0,0,0-1.66,3.63c-.49,1.22-.88,2.46-1.29,3.69s-.6,2.51-.81,3.78a30.94,30.94,0,0,0-.37,3.86,26.88,26.88,0,0,0,.25,3.9,20.92,20.92,0,0,0,.87,3.82c.18.62.41,1.23.64,1.83s.54,1.18.83,1.75a27.52,27.52,0,0,0,4.36,6.15,34.36,34.36,0,0,0,2.73,2.66c1,.83,2.09,1.61,3.13,2.41a67.68,67.68,0,0,0,14.37,7.86l3.91,1.5,4,1.3c.66.21,1.32.45,2,.64s1.31.32,2,.47l3.08.74a105.59,105.59,0,0,0,12.21,1.83,115.79,115.79,0,0,0,23.87-.4c15.61-1.94,30-6.61,43.33-12.28S494.89,271.1,507,264.62a21.61,21.61,0,0,1,2.8-1.35c.52-.15.49,0-.39.5-15,8.55-29.27,17.13-45.69,24.28A161.5,161.5,0,0,1,437,297.1a116.19,116.19,0,0,1-31.95,3.2c-.86,0-1.72-.06-2.59-.12L399.9,300c-1.73-.12-3.47-.36-5.21-.59s-3.48-.56-5.22-.85c-.87-.14-1.74-.34-2.61-.54l-3.06-.71a10.2,10.2,0,0,1-1.82-.5l-1.79-.57-3.6-1.15-3.53-1.33-1.78-.66a12.63,12.63,0,0,1-1.73-.73l-3.34-1.65c-1.11-.55-2.24-1.09-3.27-1.73l-3.18-1.86c-.52-.31-1.09-.6-1.56-1l-1.39-1.07a51.26,51.26,0,0,1-5.34-4.46,36.17,36.17,0,0,1-4.19-5.17l-.89-1.4c-.27-.49-.54-1-.8-1.48a23.36,23.36,0,0,1-1.38-3.1c-.37-1.07-.73-2.17-1-3.29s-.48-2.26-.62-3.4a34.31,34.31,0,0,1,1.21-13.49,37,37,0,0,1,2.44-6.53l.77-1.61c.31-.52.67-1,1-1.57l2-3.14,4.08-6.31a56.31,56.31,0,0,1,4.83-6.26l2.53-2.93c.57-.65,1.11-1.34,1.69-2l3.5-3.7c2.32-2.53,4.75-4.77,7.18-7.08l1.82-1.72,1.85-1.62,3.71-3.24c9.93-8.48,20.08-15.77,29.69-22.8,10.24-7,19.63-13.72,27.67-20.63,1.06-.85,2-1.73,2.94-2.61l2.84-2.6c.95-.87,1.75-1.78,2.64-2.66l2.57-2.64a62.84,62.84,0,0,0,7.72-10.28c.54-.84.91-1.67,1.38-2.48s.81-1.62,1.07-2.39a22.78,22.78,0,0,0,1.37-4.31,15.75,15.75,0,0,0,.36-3.48,11.53,11.53,0,0,0-.39-2.59,15,15,0,0,0-2.69-4.92,16.52,16.52,0,0,0-5-4.22,20.06,20.06,0,0,0-8.88-2.05,27,27,0,0,0-5.39.49,26.28,26.28,0,0,0-5.2,1.65c-.4.19-.8.34-1.22.58l-.64.31-.12.08-.34.28-.7.52c-.45.39-.92.7-1.38,1.09a58.22,58.22,0,0,0-5.49,4.91,2.54,2.54,0,0,1-2.77,1,9.14,9.14,0,0,1-4.22-2,8.62,8.62,0,0,1-3.27-5,6.14,6.14,0,0,1-.45.43l-1,.43a5,5,0,0,1-3.46,0l-1.66-.42c-2.92-1.12-5.93-1.21-9-2.28l-.82-.87-.4,0a6.31,6.31,0,0,1-3.43-.64l-1.12-.88a13.13,13.13,0,0,1-3-3.7,4.8,4.8,0,0,1-1.27-1.23,6.74,6.74,0,0,1-4-2.4.93.93,0,0,1-1.05-.93,1.32,1.32,0,0,1,.15-.58h0a10.47,10.47,0,0,0-1.05-.06c-.33.24-.54.37-.54.37-.82.71-.82.71-1.55,1.31a5,5,0,0,1-1.7.39c-2.61-.67-2.62-.65-3.46-1.37a3.18,3.18,0,0,1-.16-.32c-.72.41-.77.44-1,.54a2.56,2.56,0,0,1-.55.07c-.52-.29-.52-.29-.77-.3a2.2,2.2,0,0,1-.39-.21c-.32-.7-.32-.7-.47-.81a1.5,1.5,0,0,1-.14-.37c.11-.52.16-.73.18-.82l1.87,0-.31-.48.72.19-.61-.25.62-.22-.81.19a7.27,7.27,0,0,0,1.2-1.33,2.44,2.44,0,0,0,.53-.89,2,2,0,0,1-.31-.16c1-.95,1-1,2-1.83a4.42,4.42,0,0,1,.52,0,.65.65,0,0,1,.22-.64l.51-.47a1.11,1.11,0,0,0,0-.17l0,0c.05-.26.08-.44.12-.64l0-.14h0l.65-2.78a10,10,0,0,1,1-.69l-.45.07c-.29,0-.59-.48-.71-.42a35.21,35.21,0,0,0-7.73,6,1.12,1.12,0,0,1-1.32.57c-.43-.2-.52-.78-.21-1.31a20.93,20.93,0,0,1,5.18-9.85,27.2,27.2,0,0,1,9.3-6.56c1.6-1,3.13-2,4.76-3l-.39,0,1.4-.56.13-.08-1.49-.12-.78.25c-3.63,2.39-7.64,3.89-11.36,6.27-2,1.28-4.08,2.08-6.06,3.31-.41.39-.95.46-1.23.14a1,1,0,0,1,.26-1.28c4.25-6.16,11.37-11.67,18.23-12.5a7.42,7.42,0,0,1,3.56-1.44l.05,0-1.17-.2c.95-.42,1.79-.16,2.72-.42l-.94-.76c4.51-2.21,9.13-5.2,14.09-5.65a3.3,3.3,0,0,1,.52-.13,27.76,27.76,0,0,1,2.37-2.21,8.27,8.27,0,0,1,.66-.51,1.43,1.43,0,0,1,.23-.14l1.29-.54c.87-.35,1.73-.72,2.63-1.05a78,78,0,0,1,11.48-3.24c-1.37.25-2.73.5-4.09.79s-2.69.63-4,1-2.67.77-4,1.19l-3.66,1.27,0,0,.22-.1.52-.22,1-.44c.69-.28,1.37-.57,2.06-.84,1.42-.52,2.84-1.05,4.28-1.52a79.74,79.74,0,0,1,8.82-2.27,75.8,75.8,0,0,1,45.21,4.95,72.73,72.73,0,0,1,12.1,6.89,70.15,70.15,0,0,1,10.05,8.8,68.91,68.91,0,0,1,7.56,9.76,62.58,62.58,0,0,1,5.14,10,53.36,53.36,0,0,1,4,17.51c.23,1.07.43,2.15.56,3.25s.29,2.18.38,3.29l.19,3.33c.07,1.12,0,2.19,0,3.28a62.74,62.74,0,0,1-.48,6.46c-.12,1.07-.33,2.11-.5,3.16s-.37,2.09-.63,3.1l-.75,3L507.8,143c-.29,1-.64,1.94-1,2.87s-.72,1.89-1.1,2.81A86.1,86.1,0,0,1,500.43,159a105.3,105.3,0,0,1-13.09,17.26c-2.37,2.54-4.85,5-7.29,7.2l-3.68,3.35c-1.22,1.12-2.49,2.1-3.74,3.15a316.82,316.82,0,0,1-30.42,21.79c-10,6.5-19.79,12.55-28.7,18.87a14.35,14.35,0,0,1-4.06,2.33c-.35-.08.71-1.15,2.52-2.48,12.6-9.35,27-18.1,41.59-28.31a252.8,252.8,0,0,0,21.68-17l5.22-4.86c1.75-1.67,3.49-3.47,5.17-5.3A108,108,0,0,0,495.15,163,100.5,100.5,0,0,1,487,172.9c-.7.78-1.42,1.53-2.16,2.27s-1.44,1.49-2.2,2.19l-2.23,2.13-2.24,2-4.5,3.93-4.6,3.66-2.3,1.82-2.34,1.71-4.67,3.4c-12.52,8.74-25.26,16.25-37.24,23.91l-4.53,3-4.44,3-4.32,3c-1.41,1-2.91,1.92-4.27,2.92l-5.14,3.92-4.85,4c-1.59,1.36-3,2.8-4.57,4.18l-1.13,1c-.37.36-.7.73-1,1.09l-.46.49-.24.27-.46.52c-.3.36-.75.75-1.08,1.16l-1,1.25a32,32,0,0,0-1.94,2.57,12,12,0,0,0-1.43,2.87,5.8,5.8,0,0,0-.22,3.17,5.4,5.4,0,0,0,1.64,2.72,13.48,13.48,0,0,0,2.62,1.88,30.91,30.91,0,0,0,5.86,2.73c.5.2,1,.33,1.54.5l.77.23.46.11.63.17,1.4.4,1.43.33c.95.21,1.9.46,2.88.61a76,76,0,0,0,12,1.32,95.58,95.58,0,0,0,10.45-.26c3.47-.3,6.84-.71,10.26-1.35a141.68,141.68,0,0,0,20.23-5.35c13.41-4.54,26.65-10.77,41.13-17.82,10.19-4.94,20.39-9.93,31-14.38,5.29-2.22,10.68-4.3,16.19-6.17a124.05,124.05,0,0,1,17.64-4.79,59.61,59.61,0,0,1,21-.36,44,44,0,0,1,21,9.81,55.39,55.39,0,0,1,13.38,16.94,76.4,76.4,0,0,1,6.66,18.93c1.51,6.64,1.83,12.47,1.5,13.25s-1.24-3.56-2.54-10a82,82,0,0,0-6.38-19.3A54.75,54.75,0,0,0,600.75,231a43.92,43.92,0,0,0-9.91-6.45,42.75,42.75,0,0,0-11.43-3.43,59.9,59.9,0,0,0-21.48,1c-3.28.68-6.42,1.54-9.45,2.46s-5.9,1.9-8.81,2.93c-5.79,2.08-11.43,4.37-17,6.78-11.06,4.82-21.66,10.09-32.14,15.11s-20.85,9.76-31.38,13.61a142.62,142.62,0,0,1-31.88,8,87.68,87.68,0,0,1-31.51-1.89l-1.86-.54c-.51-.14-.9-.22-1.28-.36-.77-.26-1.56-.48-2.32-.79s-1.53-.58-2.27-.93-1.49-.68-2.22-1.07-1.43-.8-2.14-1.22a17.47,17.47,0,0,1-2-1.39,6.81,6.81,0,0,1-2.7-4,7.25,7.25,0,0,1,.55-4.16,17.05,17.05,0,0,1,2.14-3.64c.87-1.1,1.76-2.18,2.64-3.26.42-.53,1-1,1.39-1.49s.69-.78,1.65-1.77c-.15,0-.29,0-.36,0-.25-.25.07-1.15,1-2.37-.49.45-1,.89-1.46,1.38l-1.2,1.26c-.52.57-1.05,1.15-1.69,1.78-1.15,1.28-2.23,2.64-3.36,4a19.19,19.19,0,0,0-2.7,4.53,7.38,7.38,0,0,0-.28,5.19,8,8,0,0,0,2.33,2.87,20.36,20.36,0,0,0,3.13,2,41.17,41.17,0,0,0,6.67,3c1.13.42,2.29.73,3.43,1.06l.46.12.55.13,1.3.35c.87.24,1.77.4,2.65.6a79.46,79.46,0,0,0,10.9,1.55,100.72,100.72,0,0,0,11.28.2q5.7-.26,11.47-1.1A155,155,0,0,0,455,265.4a334.62,334.62,0,0,0,31.52-12c10.24-4.37,20.37-8.94,30.88-13.28,6.55-3,13.23-5.86,20.09-8.44q5.14-1.92,10.43-3.61a105.28,105.28,0,0,1,11.1-2.95,63,63,0,0,1,12.1-1.38,43.83,43.83,0,0,1,12.94,1.69c1.08.28,2.15.71,3.21,1.08s2.12.86,3.12,1.4a39.66,39.66,0,0,1,5.74,3.51,46.18,46.18,0,0,1,9.22,9.14,16.2,16.2,0,0,1,1.79,2.7c.19.46-.27-.1-1.08-1.19a45.56,45.56,0,0,0-13.12-12,38.12,38.12,0,0,0-8.55-3.74,41.12,41.12,0,0,0-9-1.56,59.74,59.74,0,0,0-17.09,1.61c-2.69.61-5.31,1.34-7.87,2.14-1.29.39-2.53.82-3.78,1.24s-2.49.85-3.73,1.3c3.25-.77,5.28-.91,5.16-.41s-2.43,1.67-6,3.23c4.46-1.53,8.94-3,13.64-4.13,2.91-.7,5.3-.94,5.25-.7s-2.33.87-5.07,1.54a202.68,202.68,0,0,0-27.16,9.35c-8.78,3.63-17.34,7.64-25.84,11.66-10.12,5-20.14,9.92-30.36,14.27a191.77,191.77,0,0,1-31.36,10.63,31.49,31.49,0,0,1,6.53-.27h0c3.31-.94,6.61-1.92,9.85-3,14.83-5.37,29.09-12.49,43.51-19.67s29.1-14.42,44.78-19.79c7.79-2.65,16-5.07,24.86-5.3A38.71,38.71,0,0,1,584,230.32a34.48,34.48,0,0,1,11.76,6.8c6.8,5.93,11.37,13.83,14.11,22s4,16.6,5,24.78a8.69,8.69,0,0,1,.14,2.39,6.68,6.68,0,0,1-.44-2.1c-1.27-9.86-2.75-20.08-6.91-29.73a49.79,49.79,0,0,0-8.41-13.37,36.73,36.73,0,0,0-13-9.52l.08,0c.78.41.88.58,0,.26s-2.39-.85-3.19-1.2-.82-.43,0-.27a40.78,40.78,0,0,0-14.82-1.49,72.35,72.35,0,0,0-14.14,2.6,209.08,209.08,0,0,0-26.12,9.6c-16.88,7.36-32.81,16.09-49.08,23.6,15.23-6.73,30.08-14.51,45.52-21.26a242.68,242.68,0,0,1,23.65-9.06,104.1,104.1,0,0,1,12.37-3.28,54.93,54.93,0,0,1,13-1.05A35.36,35.36,0,0,1,585,232a12,12,0,0,1,2.64,1.32c.22.22-.51-.09-1.54-.48a31.42,31.42,0,0,0-3.09-1.08,25.48,25.48,0,0,1,7.46,3.89c1.67,1.3,2.45,2.29,2.26,2.45-.62.24-5.14-3.11-11.52-4.81a38.11,38.11,0,0,0-13.07-1,70.93,70.93,0,0,0-12.92,2.43,213.25,213.25,0,0,0-24.73,8.93c-1.74.76-3.46,1.56-5.19,2.35s-3.41,1.72-5.1,2.61c6.22-2.8,12.5-5.44,18.86-7.82q4.79-1.78,9.62-3.34c3.23-1,6.48-2,9.76-2.72,6.54-1.5,13.32-2.21,19.8-1a29.93,29.93,0,0,1,9.15,3.34,33.2,33.2,0,0,1,7.63,6.09c1.58,1.61,2.61,3.25,2.49,3.39s-1.31-1.2-2.85-2.79a29.85,29.85,0,0,0-14.26-8.34,39.89,39.89,0,0,0-16.82,0,107.79,107.79,0,0,0-16.85,4.9c-5.57,2-11.07,4.3-16.52,6.73-21.79,9.75-42.8,22.07-66,30.88A178.58,178.58,0,0,1,441,286.36a124.08,124.08,0,0,1-25.25,4.48c1.1,0,2.2,0,3.31-.07s2.22-.06,3.32-.16c14.15-.95,27.12-4.56,39.14-9.06a315.58,315.58,0,0,0,33.9-15.66c10.79-5.62,21.31-11.39,32.2-16.58,5.44-2.6,11-5.06,16.67-7.27a119.83,119.83,0,0,1,17.49-5.52,8.39,8.39,0,0,1,2.37-.27c.14.07-.65.32-1.85.54a113,113,0,0,0-16.93,5.32c-5.51,2.12-10.86,4.51-16.16,7-10.6,5-21,10.7-32,16.43-9.15,4.75-18.25,9.28-27.53,13.28a199,199,0,0,1-28.55,9.95,175.83,175.83,0,0,0,28.75-9.37c9.12-3.8,17.83-8.08,26.38-12.44,17-8.7,33.5-17.79,51.14-24.26a29.16,29.16,0,0,1,4.13-1.3,3.14,3.14,0,0,1,.83-.42,70.81,70.81,0,0,1,14-4,10.49,10.49,0,0,1,2.61-.15C569.43,236.93,568.87,237.05,567.85,237.21Zm-177-149.57-.26,0,.67-.14,1.53.47ZM387.71,98.3h0l-.89-.17Zm84.45,87c2.15-1.78,4.22-3.75,6.33-5.62s4.2-4,6.22-6.12A106.16,106.16,0,0,0,496,159.43a78.15,78.15,0,0,0,8.78-17.26,64,64,0,0,0,3.77-20.64,62.8,62.8,0,0,1-2.95,20.37A81.33,81.33,0,0,1,491.14,167a115.77,115.77,0,0,1-9.23,9.86c-.8.74-1.61,1.54-2.42,2.24l-2.43,2.09C475.43,182.56,473.83,184,472.16,185.3ZM382.11,88.93a11,11,0,0,1,3.53,0,6.13,6.13,0,0,1,1.23-1.51,34.78,34.78,0,0,1,4.22-3.15c-.49-.22-.14-.44,0-.63l.41-.51L389,84.52,386.57,86C385.09,86.94,383.61,88.09,382.11,88.93Zm-6.63,11.18-.24,0-.41-.7Zm.73,1.15.24-.15C376.62,101.34,376.49,101.35,376.21,101.26Zm2.14-1.38a1.84,1.84,0,0,0-.52,0Zm18.46,11.64-2.53-2.79c.78.93,1.57,1.85,2.37,2.75Z"/><path d="M533.16,261.64l.43.36a1.34,1.34,0,0,1-1.1,0,11.15,11.15,0,0,0,7.13,1.77,15.92,15.92,0,0,0,6.47-1.75c1.31.25,2.46-.29,2.59-1.22s-.85-1.88-2.18-2.18a4.37,4.37,0,0,1-.86-.47,26,26,0,0,0-6.93-4.42c.53.37,1,.72,1.57,1.11a8.38,8.38,0,0,0-2.38-.86c.1.18.22.41.31.6-2.66-1.7-6.3-1.81-8-.07s-.87,4.69,1.78,6.35Z"/><path d="M538.14,268c-1.52-.74-3-1.55-4.5-2.41l-.3-.38.18,1.61,0-.1c1.29-1.25,3.53-1.61,5.59-1.82l.73-.16a1.12,1.12,0,0,0,.64-.75c.15-.71-.51-1.49-1.49-1.7l-1.12-.24c-2.77-1.13-7.15-1.7-8.51.93-.3.61,0,1.45.17,2.21a2.51,2.51,0,0,0,2.39,2.26c1.35.16,2.47-.56,2.52-1.61l.7.27-.53.34c.35-.89,1.57-1,2.47-1.41l1.37-.15-.86-2.46-.71.25a2.86,2.86,0,0,1,.16.28,25,25,0,0,1-4.09,1.41l-1.84.75a1,1,0,0,0,.19,1.63l.86.6-.4-.34c2,.69,4,1.14,5.87,1.81a.67.67,0,0,0,.81-.18A.47.47,0,0,0,538.14,268Z"/><path d="M531.42,267.88a1.76,1.76,0,0,0-1.07-.42l-.17.19.63.47C531.26,268.46,531.47,268.24,531.42,267.88Z"/><path d="M530.18,267.65l-.27-.2.19.25,0,0Z"/><path d="M643.39,259.56c-1-.53-2-1.06-2.89-1.61-.45-.28-1-.55-1.37-.82l-.89-.83-.45-.42-.64-.42-1.28-.85a11.29,11.29,0,0,1-.85-.84l-.42-.43a4.59,4.59,0,0,0-.55-.44l-1.2-.88a7.08,7.08,0,0,1-.8-.88,14.49,14.49,0,0,0-2-1.84,22.06,22.06,0,0,1-1.39-1.87c-.24-.33-.4-.63-.69-1l-1-1c-.07-.09-.17-.17-.23-.26l-.14-.27-.29-.52c-.2-.35-.39-.71-.56-1.08a6.66,6.66,0,0,0-.63-1.15,14.38,14.38,0,0,1-.79-1.25l-.42-1.26-.36-1.35-.29-1.45c-.15-.55-.37-1.1-.48-1.66s0-1.09,0-1.69a11.15,11.15,0,0,0,0-1.85c0-.32,0-.65,0-1l.26-.94a16.82,16.82,0,0,1,.63-1.85c.23-.62.34-1.27.52-1.91a1,1,0,0,1,.19-.44l.26-.42.51-.83c.31-.56.54-1.14.81-1.7a3.29,3.29,0,0,1,.21-.42l.32-.36.63-.71c.94-.92,1.38-2,2.27-2.86a34.15,34.15,0,0,0,2.84-2.4l1.29-1.24c.45-.39.93-.77,1.39-1.15s.92-.78,1.4-1.15l1.55-1a69.92,69.92,0,0,1,6.22-3.62l3.06-1.54,1.46-.74.73-.36.37-.19c.14,0,.31,0,.46-.06l1.9-.22,1-.11.47-.06.36-.15,1.41-.65.7-.33c.13,0,.22-.13.38-.13h2.48a5,5,0,0,0,1.87-.18l1.64-.48.82-.24c.11-.07.34,0,.52,0l.56,0,2.24.17c.37,0,.75.06,1.12.07l1-.13,2.08-.27c.35,0,.66-.11,1.06-.12l1.18-.05a46,46,0,0,1,4.91-.1l2.62.08c.87,0,1.76-.08,2.64-.1a12.37,12.37,0,0,0,3.48-.49c0-.19-1.51-.26-3.27-.14-.9.05-1.79.12-2.68.14l-2.65-.07c-.87,0-1.8-.08-2.61-.05l-2.38.12-1.2.06a9.24,9.24,0,0,0-1.12.09l-2.08.29a16.23,16.23,0,0,1-4.4,0l-1.13-.08a.9.9,0,0,0-.48,0l-.4.13-1.64.51-.82.25c-.31,0-.66,0-1,0l-2,0a7.87,7.87,0,0,0-1,0l-.7.33-1.4.67a2.73,2.73,0,0,1-.74.3l-1,.12-1.9.23a3.69,3.69,0,0,0-.92.15l-.72.38-1.45.76-3,1.56c-1,.5-2.07,1.14-3.11,1.72s-2.07,1.23-3.1,1.91a21.31,21.31,0,0,0-3,2.13l-1.39,1.16c-.46.39-.87.82-1.3,1.23s-.83.84-1.32,1.24l-1.47,1.2-.37.3-.19.15-.13.18-.51.73a13.38,13.38,0,0,1-1.1,1.47L625.77,222,625,223.7c-.28.57-.66,1.12-1,1.68a1,1,0,0,0-.18.45l-.12.48-.24,1a12.69,12.69,0,0,0-1,3.76l.05,1a8.76,8.76,0,0,1-.05.91,14.41,14.41,0,0,0,0,1.72c.53,2.34.82,4.15,1.39,5.82a4.25,4.25,0,0,0,.67,1.25l.41.62c.11.19.18.37.27.56.34.76.72,1.45,1.09,2.15a29.92,29.92,0,0,1,3,3.95,2.31,2.31,0,0,0,.47.47l.54.47a5.7,5.7,0,0,1,1,.92l.72.88a3.11,3.11,0,0,0,.53.45l.6.44a10.5,10.5,0,0,1,1.85,1.73c.62.57,1.75,1.14,2.36,1.71.87,1.12,3.06,2.23,5,3.31a11.86,11.86,0,0,0,2.53,1.1C645,260.5,644.39,260.09,643.39,259.56Z"/><path d="M662.74,87.82c-.18.89,0,.9.36,0a15.05,15.05,0,0,0,.55-1.43,14.73,14.73,0,0,0,.5-1.51c.19-.73,0-.77-.35,0a13.47,13.47,0,0,0-.65,1.5A14.26,14.26,0,0,0,662.74,87.82Z"/><path d="M672.06,97.29a35.31,35.31,0,0,0,1.38,11.6,10.52,10.52,0,0,1,.34,2c.19-.29.59.46,1.07,1.92,2.38,7.21,6.17,14.38,10.61,21.65.54.91,1.12,1.82,1.7,2.73l1.73,2.76,1.79,2.78.91,1.4.89,1.35c1.11,1.67,2.37,3.47,3.66,5.29l3.92,5.58a267.6,267.6,0,0,1,15.66,24.36,98.72,98.72,0,0,1,6.77,14.69,51.13,51.13,0,0,1,2.39,9.3,31.38,31.38,0,0,1-.43,12.8,10.9,10.9,0,0,1-.62,3.79,15.4,15.4,0,0,1-1.05,2.63,18.13,18.13,0,0,1-1.74,3,26,26,0,0,1-2.58,3.15,36.31,36.31,0,0,1-3.31,2.84,39.51,39.51,0,0,1-3.69,2.2l-.24.13-.17.08-.32.13-.65.28-1.33.54c-.9.36-1.82.71-2.75,1s-1.74.43-2.62.64l-1.33.27-.66.14-.29.06H701l-1.08.07a23.63,23.63,0,0,1-6.66-.6c-2.22-.47-4.45-1.1-6.75-1.51a24.39,24.39,0,0,0-7-.36,26.72,26.72,0,0,0-6.9,1.9c-.28.29-.59.57-.89.9s-.65.63-1,1a13.24,13.24,0,0,0-2,2.47,5.11,5.11,0,0,0-.22,2.89,6.89,6.89,0,0,0,1.45,2.83,18.93,18.93,0,0,0,5,4,49.38,49.38,0,0,0,11.13,4.61c-.18-.13-.14-.2.17-.2a33.47,33.47,0,0,1,4.35.94l2.49.6a43.41,43.41,0,0,1-6.33-2,5.06,5.06,0,0,1-.72-.33,25.93,25.93,0,0,1-6.75-3.87,6.88,6.88,0,0,1-2.49-3.61,4.27,4.27,0,0,1,1.47-3.83,14.44,14.44,0,0,1,3.38-2.38c.59-.35,1.24-.58,1.86-.87.32-.14.65-.21,1-.32a5,5,0,0,1,1-.26c2.7-.61,5.45-.21,8.21.19A25.19,25.19,0,0,0,698,241a17,17,0,0,0,2.22-.2l1.11-.25.29-.07.79-.21,1.64-.45,1.65-.44c.28-.09.53-.13.83-.25l.91-.34c1.2-.47,2.4-1,3.59-1.46l.89-.38c.43-.22.93-.48,1.38-.73.93-.52,1.85-1.06,2.74-1.64a34.12,34.12,0,0,0,2.74-2.16c.44-.38.88-.78,1.3-1.17s.83-.9,1.23-1.36a33.88,33.88,0,0,0,2.25-2.88c.63-1,1.23-2.06,1.78-3.11a22.52,22.52,0,0,0,1.3-3.12,22.23,22.23,0,0,0,.91-3.07c.21-1,.39-1.92.54-2.89a11.84,11.84,0,0,0,.15-1.35l.09-1.29,0-1.29,0-.65,0-.57q0-1.14-.12-2.28c0-.37,0-.78-.1-1.11l-.14-1-.31-2c-.23-1.28-.53-2.45-.81-3.66s-.64-2.21-1-3.31l-1.08-3a95.75,95.75,0,0,0-4.94-10.63,189.15,189.15,0,0,0-11.09-17.85c-3.81-5.52-7.73-10.81-11.39-15.84a10.12,10.12,0,0,1-1.44-2.35c-.12-.46.09-.49.62.2,4.8,6.05,10,12.27,15,18.78,2.51,3.27,5,6.64,7.42,10.24a115.37,115.37,0,0,1,7.08,11.8,74.38,74.38,0,0,1,3.24,7.17c.26.62.49,1.38.73,2.07s.48,1.38.7,2.15A47.28,47.28,0,0,1,732,203.9l.24,1.35c.07.46.15.89.2,1.43.1,1,.19,2.07.25,3.12a16.11,16.11,0,0,1,0,1.72l-.06,1.8c0,.62,0,1.17-.13,1.85s-.2,1.38-.32,2.06-.24,1.38-.39,2.06a23.17,23.17,0,0,1-.62,2.24c-.24.75-.51,1.51-.79,2.25-.14.38-.27.74-.43,1.12l-.57,1.18a34,34,0,0,1-2.67,4.53,38.32,38.32,0,0,1-3.46,4.14,47.61,47.61,0,0,1-4,3.39,44,44,0,0,1-4,2.52l-1,.56a3.88,3.88,0,0,1-.4.19l-.3.14-1.24.56-2.52,1.08a34.36,34.36,0,0,1-4.75,1.59l-2.17.64-.49.19a10.16,10.16,0,0,1-3.72.64,19.37,19.37,0,0,0-3.81.17,5.72,5.72,0,0,0-3,1.65,4.55,4.55,0,0,0-1.56,3,2.92,2.92,0,0,0,.89,2,8,8,0,0,0,1.84,1.41,23.74,23.74,0,0,0,7.42,2.57c1.09.19,2.06.39,2.91.62q.64.17,1.2.36l.28.09.14,0,.9.53c1.21.72,2.34,1.35,3.72,2.26a85.59,85.59,0,0,1,15.58,12.63,53,53,0,0,1,3.48,4.13l.41.54a2.57,2.57,0,0,1,.24.35l.26.4,1,1.62a27,27,0,0,1,1.9,3.42,19,19,0,0,1,1.22,14.4c-.22.56-.42,1.13-.68,1.67s-.58,1-.89,1.57a16.42,16.42,0,0,1-2.32,2.74,8.46,8.46,0,0,1-1.35,1.18L727,306.65c-.53.29-1.07.58-1.61.85l-.82.41-.88.32c-.59.2-1.18.4-1.78.58s-1.24.28-1.87.41-1.26.22-1.9.31-1.3.11-2,.14-1.31.06-2,.06l-1.63-.06-1.62-.05h-.4l-.28,0-.53-.05-17-1.38c-11.33-.91-22.66-1.87-34.12-2.53-5.73-.37-11.48-.72-17.29-.95s-11.66-.49-17.57-.54a422.75,422.75,0,0,0-46.83,1.44l-2.85.26-1.42.14-.29,0-.9.16-1.8.3-3.56.57c-2.37.35-4.73.74-7,1.18s-4.66.83-7,1.28c-3.47,1.06-6.6-.22-7.11-3.08a5.54,5.54,0,0,1,1.92-4.88l-.86.09-1.37-.15a4.63,4.63,0,0,1-3.14-1.66l-1-1.11c-1.34-2.19-3.49-3.95-4.68-6.43l.2-1-.27-.26A4.44,4.44,0,0,1,534,288.5l0-1.2a10.18,10.18,0,0,1,1.1-3.93,3.63,3.63,0,0,1,.18-1.47,5,5,0,0,1-.59-3.89.72.72,0,0,1,.07-1.17,1.16,1.16,0,0,1,.51-.18h0a9.36,9.36,0,0,0-.57-.75c-.37-.11-.58-.19-.58-.19-1-.22-1-.22-1.83-.43a4.94,4.94,0,0,1-1.23-1c-.93-2.2-.94-2.21-.87-3.14a2.29,2.29,0,0,1,.14-.27l-.9-.47a2.59,2.59,0,0,1-.33-.39c-.06-.51-.06-.51-.19-.7a1.81,1.81,0,0,1-.05-.39c.33-.54.33-.54.33-.7a1.49,1.49,0,0,1,.19-.27l.66-.22,1,1.37.17-.44.25.61-.15-.55.49.36-.56-.52a4.88,4.88,0,0,0,1.55.27,2.06,2.06,0,0,0,.89,0,2,2,0,0,1,0-.29l2.34.57a2.93,2.93,0,0,1,.28.36.54.54,0,0,1,.55-.16l.6.12.13-.07v0l.5-.22.11-.05h0l2.16-.93a8.36,8.36,0,0,1,1,.34l-.29-.26c-.19-.18,0-.62-.14-.67a52.91,52.91,0,0,0-8.07-2.49,1,1,0,0,1-1.06-.7c-.09-.4.24-.73.75-.73a18.81,18.81,0,0,1,8.94-.91,33.93,33.93,0,0,1,9,2.53c1.49.35,2.94.78,4.41,1.13l-.21-.23,1.14.47.12,0-.85-.87-.6-.3a87.7,87.7,0,0,1-9.94-3.55c-1.82-.65-3.39-1.65-5.15-2.47-.45-.1-.77-.43-.73-.77s.46-.5.9-.41a41.68,41.68,0,0,1,8.93,1.41,23.58,23.58,0,0,1,7.9,3.63,6.75,6.75,0,0,1,2.82,1.08l0,0-.62-.71c.76.27,1.16.83,1.85,1.13-.07-.27-.16-.58-.23-.86,1.88.52,3.83.88,5.73,1.37a27,27,0,0,1,5.45,1.8l.4.13c.75-.15,1.51-.3,2.3-.38l.6,0h.19l1,.14,1.91.29c2.56.38,5.19.8,7.93,1.26l-5.5-1.08-2.75-.54-2.59-.54,5.8.83,6,.91c4,.72,8.07,1.41,12.27,2.24,5.65,1.22,11.49,2.33,17.16,3.68s11.28,2.57,16.52,3.85c10.46,2.51,19.54,4.89,25.34,6.56,10.77,2.07,21.52,4.07,32.27,5.93,5.37.89,10.75,1.83,16.12,2.61l4,.62,2,.29c.42,0,.84.06,1.25.11a3,3,0,0,0,.45,0h.37a5.83,5.83,0,0,0,.72-.06,4.46,4.46,0,0,0,1.39-.41,2.4,2.4,0,0,0,1.41-2.33,5.13,5.13,0,0,0-1-2.67l-.24-.34a5.13,5.13,0,0,0-.35-.43l-1.09-1.2-1.2-1.17c-.4-.4-.87-.77-1.3-1.14a43.07,43.07,0,0,0-5.87-4.08,59.17,59.17,0,0,0-6.6-3.35,14.24,14.24,0,0,0-1.86-.69l-2-.64-6.54-2.09c-.29-.09-.55-.19-.88-.27l-1.1-.17-2.22-.35-4.42-.7c-1.42-.19-3.12-.56-4.71-.85l-4.85-.92-2.42-.47L667.2,269,663,267.78l-2.14-.62-1.06-.31c-.36-.1-.61-.2-.91-.31l-3.53-1.23-2.76-1-1.21-.46a6,6,0,0,1-.7-.38c-.8-.48-1.29-.83-1.3-1s.61.07,1.44.39c.42.16.91.36,1.45.59a9.14,9.14,0,0,0,1.12.41l1.38.47,5,1.71,1.26.43,1.5.43,3,.85,3,.86a26.81,26.81,0,0,0,3.12.78l6.74,1.29c2.32.47,4.3.76,6.36,1.1l3.08.49,1.53.25a3.1,3.1,0,0,1,.67.17l.61.19,8,2.59c.47.16,1,.31,1.41.48l1.23.56c.82.38,1.67.73,2.45,1.15s1.61.81,2.38,1.25l2.3,1.35a37.08,37.08,0,0,1,7.92,6.43l.77.87.4.54a7.65,7.65,0,0,1,.65,1.07,4.94,4.94,0,0,1,.62,2.35,2.75,2.75,0,0,1-1.07,2.14,4.83,4.83,0,0,1-2.29.87,7.49,7.49,0,0,1-1.25.07,1.42,1.42,0,0,1-.35,0l-.49-.05-1-.08-5.87-.84c-3.9-.56-7.82-1.17-11.73-1.8,3.26.56,6.53,1.14,9.8,1.64l4.91.77,2.46.38c.47.08.67.07,1,.11l.83.09a1.15,1.15,0,0,0,.34,0h.84a8.52,8.52,0,0,0,1.12-.12,4.5,4.5,0,0,0,2.07-.85,3,3,0,0,0,1.12-1.9,4.64,4.64,0,0,0-.27-2.24,9.32,9.32,0,0,0-1.09-2.06c-.13-.18-.22-.32-.39-.53l-.68-.79c-.43-.53-1-1-1.45-1.54a42.75,42.75,0,0,0-7-5.51A60.21,60.21,0,0,0,700,275c-1.72-.62-2.79-1-5.83-2.06l-2-.66-1-.33a5,5,0,0,0-1.06-.3l-4.87-.9-2.5-.45c-.84-.15-1.79-.36-2.69-.54l-5.44-1.12-1.37-.28c-.45-.1-.82-.23-1.24-.34l-2.43-.72-4.88-1.43c-1.48-.46-2.74-.93-4.11-1.4l-4-1.4-5.29-2.52c-2.11-.94-4.16-1.88-6.06-2.88a11.82,11.82,0,0,1-2.35-1.51c-.69-.51-1.78-1-2.53-1.55l-1-.79c-.17-.13-.3-.26-.5-.4l-.63-.41-1.24-.82-.88-.82-.45-.42-.58-.44-1.16-.88c-.54-.59-1.11-1.16-1.63-1.78-.27-.31-.49-.6-.82-.93l-1-1-.26-.25-.18-.26-.35-.5c-.24-.33-.48-.67-.7-1s-.4-.69-.71-1.09l-.9-1.18-.55-1.21c-.18-.41-.33-.87-.49-1.29s-.28-.93-.42-1.38-.35-1-.53-1.54a2.44,2.44,0,0,1-.13-.8l-.07-.81v-1.7l0-.94,0-.46a1.71,1.71,0,0,1,.09-.45,13.84,13.84,0,0,1,.5-1.78,17.53,17.53,0,0,0,.56-1.78c.09-.29.16-.6.25-.89l.49-.79.48-.79.4-.79a5,5,0,0,1,.95-1.5c.4-.45.82-.89,1.2-1.34l1-1.35a5.49,5.49,0,0,1,1.29-1.2c.47-.37.95-.74,1.4-1.11.86-.75,1.67-1.55,2.58-2.26l1.36-1.06a10.87,10.87,0,0,1,1.41-1l3-1.84,3-1.6c1-.54,2-.95,3-1.43l2.91-1.32.72-.33a6.16,6.16,0,0,1,.89-.12l1.82-.2.91-.09a4.81,4.81,0,0,0,.73-.26l1.4-.55.71-.28c.27,0,.62,0,.92,0h1.91c.31,0,.64,0,1,0l.8-.21,1.6-.41.4-.11a1,1,0,0,1,.45-.05l1.07.08,2.14.14a8,8,0,0,0,2-.12l2-.25a10.73,10.73,0,0,1,1.07-.09l1.14-.06,2.27-.13c1.38,0,2.85,0,4.26,0a17.28,17.28,0,0,0,2.15-.1l2.15-.16a42.47,42.47,0,0,1,4.4-.12h2.22c.24,0,.21-.05.3-.08l.17-.13.36-.26,1.33-.95a6.51,6.51,0,0,1,.91-.53l.11-.06.06,0h0c1.35,2.89-3-6.48,3,6.48v0l0,.09a5.4,5.4,0,0,0,.33.74,7.74,7.74,0,0,0,.43.73c.16.24.39.52.41.58a2.92,2.92,0,0,0,.56.7l.09.09h0l0,0,0,0,0,0-.07-.05-.28-.18-.26-.12-.07,0-.15-.08-.32-.15a5.47,5.47,0,0,0-.64-.23l-.31-.08a3.15,3.15,0,0,1-.38-.1,10,10,0,0,0-2-.45l-.5,0-.69-.12c-.47-.07-.93-.12-1.39-.15-1-.08-1.69,0-3-.07h-1s0-.17-.06-.25a32.8,32.8,0,0,0-1.73-5.33c-.94-2.36-2.21-5-3.62-7.68s-3-5.49-4.66-8.35c-3.35-5.74-7.12-11.64-11.19-18.2-1.44-2.35-2.88-4.71-4.43-7.41l-.58-1-.49-.89-1-1.79c-.65-1.22-1.31-2.43-2-3.64-2.6-4.91-5.14-10.06-7.42-15.59a106.32,106.32,0,0,1-5.69-17.83A74.8,74.8,0,0,1,645,101c.16-1.78.33-3.56.56-5.34s.63-3.55,1-5.31a63,63,0,0,1,3.33-10.19,70.26,70.26,0,0,1,10.57-17.1,83.21,83.21,0,0,1,13.62-12.93A110,110,0,0,1,689,40.72c5.33-2.9,10.41-4.78,11.25-4.72s-2.71,2.08-7.94,4.92c-2.55,1.4-5.09,2.9-7.62,4.53s-5,3.35-7.5,5.26a89.1,89.1,0,0,0-7.23,6.18,83.58,83.58,0,0,0-6.67,7.21,68,68,0,0,0-10.59,17.75,59.43,59.43,0,0,0-3.08,10.53c-.3,1.81-.69,3.63-.81,5.45l-.25,2.73c-.09.91-.06,1.8-.08,2.71a75.42,75.42,0,0,0,2.67,20.58,114.41,114.41,0,0,0,6.51,17.85c2.51,5.54,5.23,10.72,7.93,15.67l1,1.85,1.17,2.05,2.26,3.81c1.48,2.46,2.94,4.8,4.38,7.11,2.85,4.62,5.64,9.11,8.2,13.56s5,8.84,6.89,13a63.58,63.58,0,0,1,2.39,5.94,21.26,21.26,0,0,1,1.09,4.31c0,.23,0,.27,0,.42s0,.05,0,0h.26a17.71,17.71,0,0,1,2.15.25,15.24,15.24,0,0,1,1.59.22c.26.06.53.12.79.2l.39.13a1.52,1.52,0,0,0,.27.06,5.59,5.59,0,0,1,1,.32l.47.23.2.08a2.59,2.59,0,0,1,.43.26c.06.05,0,0,0,0l0,0,0,0s0,0,0,0,0,0,0,0l-.14-.13a3,3,0,0,1-.44-.53c-.08-.11-.07-.14-.19-.31s-.27-.36-.39-.55a7.47,7.47,0,0,1-.58-1.12l-.11-.29c-3.29-7-.93-1.94-1.67-3.51h0l0,0-.23.1-.46.21c-.3.15-.58.29-.91.49l-1.23.72-.62.35-.15.09s-.24,0-.35,0h-.79l-3.15,0c-2.08,0-4.07.3-6.1.31s-4.09-.13-5.86,0l-1.38,0c-.46,0-.93,0-1.32.06l-2.48.19a12.76,12.76,0,0,1-2.6-.11l-1.32-.12-.66-.06a1.88,1.88,0,0,0-.55.07,15,15,0,0,1-4.37.44l-1.21,0a2.42,2.42,0,0,0-1.1.09l-1.86.55a7.86,7.86,0,0,1-2.19.31l-1.17.1-.58,0-.29,0-.25.09c-1.29.49-2.53.92-3.88,1.49l-2,.8c-.67.29-1.34.63-2,.95s-1.36.61-2,1l-2,1.13a30.66,30.66,0,0,0-3.78,2.52c-1.22.92-2.24,1.91-3.56,2.85s-2.13,2.12-3.24,3.25a7,7,0,0,0-1.47,1.84l-.56,1-.65,1a5.78,5.78,0,0,0-.78,1.94c-.2.67-.48,1.32-.67,2-.5,1.31-.18,2.83-.23,4.06a15.46,15.46,0,0,0,.2,1.84c.21.58.47,1.23.63,1.74a18.36,18.36,0,0,0,1.22,3,16.31,16.31,0,0,0,1.82,2.64,24.78,24.78,0,0,0,1.77,2.31l1.21,1.11c.38.36.66.69,1,1s.65.67,1,1a6.37,6.37,0,0,0,1.11,1,.14.14,0,0,1,.17-.09,4.41,4.41,0,0,1,1.17.41l.9.43c.33.17.7.36,1,.56a26.19,26.19,0,0,1-2.81-2.15c-.4-.36-.8-.73-1.18-1.12s-.75-.75-1.25-1.18a14.36,14.36,0,0,1-2.33-2.54c-.35-.46-.64-.88-1.08-1.4l-.61-.74a5.59,5.59,0,0,1-.46-.77,18.85,18.85,0,0,1-1.48-3.34l-.37-1a3,3,0,0,1-.28-1l-.14-1,0-1.08,0-1.14a3.17,3.17,0,0,1,0-1.15l.27-1.12.39-1.1a22.81,22.81,0,0,1,.8-2.19c.42-.65.87-1.31,1.24-1.94l.38-.68a2.48,2.48,0,0,1,.43-.64l1.07-1.16c.72-.75,1.26-1.56,2-2.25s1.69-1.28,2.44-1.92,1.51-1.31,2.34-1.88l1.23-.88a9.26,9.26,0,0,1,1.26-.85l2.65-1.53c.88-.52,1.8-.89,2.7-1.34.45-.21.9-.44,1.35-.64l1.35-.54c.9-.36,1.81-.75,2.67-1l1.3-.48a3.66,3.66,0,0,1,1.41-.36c1-.1,2.14-.15,3.11-.3l2.56-.74c1,0,2.16,0,3.24,0h.41l.35-.06.71-.13,1.42-.25a4.16,4.16,0,0,1,.74-.09l.9.08,1.81.15.9.08a6.26,6.26,0,0,0,.87,0l1.7-.13c1.09-.11,2.41-.12,3.67-.16.65,0,1.25,0,1.94,0l2.08,0,2.09,0,2.11-.15c1.41-.1,2.81-.2,4.3-.2l2.19,0h1l.06,0,.45-.25,1.77-1a14.19,14.19,0,0,1,1.36-.66l.17-.07.09,0c2.61,5.61.73,1.57,1.31,2.83v0l0,.05,0,.11a7.37,7.37,0,0,0,.38.81c.28.52.79,1.15.85,1.3a3.32,3.32,0,0,0,.3.38c.1.12.32.31.26.26a.46.46,0,0,0,.1.1,2.12,2.12,0,0,0-.61-.34l-.27-.14-.36-.16a7.3,7.3,0,0,0-.71-.23l-.35-.08-.58-.18a9.31,9.31,0,0,0-1.14-.25l-.56-.08-.28,0h-.14l-.2,0q-.39-.08-.78-.12l-.64-.07c0,.08,0-.25,0-.46a5.8,5.8,0,0,1-.06-.6c0-.1,0-.19,0-.31l-.07-.4-.13-.8-.22-.94-.1-.47-.15-.51-.29-1-.72-2.22a127.24,127.24,0,0,0-5.69-13.27c-2.2-4.51-4.57-9-7-13.57s-4.93-9.1-7.47-14l-1-1.88-1-1.94-1.7-3.62c-1.14-2.44-2.27-4.92-3.37-7.46-1.57-3.14-3.12-6.31-4.53-9.66-.73-1.64-1.37-3.39-2-5.08s-1.28-3.47-1.82-5.29a85,85,0,0,1-2.74-11.21l-.42-3-.19-1.47-.11-1.51-.19-3v-3.06a56.09,56.09,0,0,1,5.7-23.86,70.83,70.83,0,0,1,13.67-18.83,12.64,12.64,0,0,1,2.2-1.89c.4-.21,0,.29-.85,1.16a75.18,75.18,0,0,0-9.89,12.33,60.89,60.89,0,0,0-7,15.08,56.38,56.38,0,0,0-2.31,17,68.83,68.83,0,0,0,2.38,16.45,17.93,17.93,0,0,1,0-4.08c.12-1,.36-1.43.71-1.36.74.12,1.72,2.6,3.14,6.2a66.86,66.86,0,0,1-2.25-14.07,19.37,19.37,0,0,1,.11-3.79c.11-.95.26-1.51.42-1.46s.33.64.43,1.58.13,2.23.26,3.61c.52,9.68,3.43,18.76,7,27.17,1.78,4.22,3.75,8.31,5.8,12.28,1,2,2.07,4,3.12,5.91l.79,1.46.84,1.52,1.69,2.94c5.66,9.09,11.41,17.69,16.39,26.62a119.55,119.55,0,0,1,6.6,13.47,52.7,52.7,0,0,1,2.18,6.7,18.62,18.62,0,0,1,.59,6c.14-.48.37-.9.51-1.38s.27-.93.43-1.35a8.25,8.25,0,0,1,.8-2.1,0,0,0,0,1,0,0,46,46,0,0,0-2.54-8.67,149.34,149.34,0,0,0-10.37-19.16c-3.88-6.28-8-12.45-12.14-18.84-2.06-3.16-4.1-6.61-6-9.87s-3.73-6.71-5.49-10.17-3.38-7.06-4.86-10.75a92.8,92.8,0,0,1-3.66-11.5,64.66,64.66,0,0,1-1.7-12.26,52.7,52.7,0,0,1,1.08-12.56,50.53,50.53,0,0,1,4.17-11.87,60.79,60.79,0,0,1,6.55-10.47A85.16,85.16,0,0,1,688.85,53.3,202.51,202.51,0,0,1,708.6,40.78a8.73,8.73,0,0,1,2-1A6.6,6.6,0,0,1,709,40.92c-8,4.66-16.12,9.53-23.58,15.55a74.17,74.17,0,0,0-19,22l0-.07c.46-.66.66-.72.33.09a28.71,28.71,0,0,1-1.41,2.76c-.5.79-.6.65-.35-.06a50.64,50.64,0,0,0-4.58,27.38,82.49,82.49,0,0,0,7.71,25.82c1.84,4,3.86,7.86,6,11.63,1,1.88,2.11,3.75,3.19,5.59.52.92,1.08,1.87,1.65,2.81l1.72,2.76c4.6,7.24,9.31,14.15,13.67,21.24-3.86-6.69-8-13.23-12.16-20-1-1.68-2.05-3.37-3.05-5.13s-1.92-3.45-2.87-5.19c-1.89-3.46-3.71-7-5.43-10.6a117,117,0,0,1-4.66-11.1c-.71-1.89-1.29-3.84-1.89-5.78s-1-3.94-1.41-6a52.42,52.42,0,0,1,.65-24.58A50.06,50.06,0,0,1,667,79.89a10.24,10.24,0,0,1,1.46-2.28c.24-.18,0,.5-.47,1.41s-.86,1.81-1.25,2.74c2.74-5.61,6.14-9,6.57-8.57.4.7-2.22,5.11-4.67,10.73a44.49,44.49,0,0,0-3.27,11.82,47.24,47.24,0,0,0-.13,12.23,68.91,68.91,0,0,0,2.54,12,104.72,104.72,0,0,0,4.36,11.44c.76,1.6,1.56,3.18,2.38,4.74s1.85,3,2.79,4.57a135.81,135.81,0,0,1-7.52-17.39A66.92,66.92,0,0,1,666.15,105a45.84,45.84,0,0,1,2.91-18.1,57.72,57.72,0,0,1,9.36-15.85c1.32-1.66,2.67-2.89,2.86-2.77s-.79,1.52-2.08,3.18c-6.47,8.57-10.82,18.71-10.71,29.07A51.74,51.74,0,0,0,670.84,116a95.64,95.64,0,0,0,6,14.89c2.41,4.87,5.14,9.66,8,14.45,1.45,2.45,2.81,4.7,4.33,7l4.61,7c3.12,4.73,6.25,9.53,9.24,14.49a161.77,161.77,0,0,1,8.42,15.53,69.56,69.56,0,0,1,5.24,11.29,37.47,37.47,0,0,1,1.72,6.85,24.34,24.34,0,0,1-.27,8.6,18.77,18.77,0,0,1-5.33,9.29,19.57,19.57,0,0,1-2.08,1.74c-.71.48-1.43.94-2.17,1.38a9.9,9.9,0,0,1-.93.49l-.82.4-1.67.79c-.56.25-1.14.55-1.68.74l-1.62.55-1.62.55-.41.14-.2.07-.12,0-.48.14c-.64.17-1.27.39-1.9.52l-1.87.33,2,0c.66,0,1.32-.17,2-.25a21.21,21.21,0,0,0,2.34-.53c.92-.25,1.8-.42,2.74-.73s1.92-.72,2.86-1.1l1.42-.57.18-.07.25-.13.49-.26,1-.54a16.91,16.91,0,0,0,1.89-1.19c.64-.48,1.26-1,1.86-1.51a14,14,0,0,0,1.69-1.74c.52-.64,1.07-1.27,1.51-1.94a21.49,21.49,0,0,0,2.15-4.21c.25-.71.51-1.43.71-2.13s.28-1.34.41-2l.18-1c0-.32,0-.62.08-.93l.11-1.86c0-1.21-.06-2.27-.12-3.41s-.27-2.07-.42-3.09l-.61-2.84a63.54,63.54,0,0,0-3.47-9.81c-1.32-3-2.76-5.81-4.25-8.5s-3.05-5.27-4.63-7.79c-3.17-5-6.47-9.8-9.77-14.45s-6.66-9.23-9.54-13.61c-3-4.7-6-9.37-8.65-14.16a98.39,98.39,0,0,1-6.85-14.79,53.89,53.89,0,0,1-3.14-15.76,5.22,5.22,0,0,1,0-1.4,1.6,1.6,0,0,1,.21-.69c.15-.11.23.62.24,1.69a52.28,52.28,0,0,0,3,15.15,91.14,91.14,0,0,0,6.53,14.24c2.57,4.64,5.44,9.2,8.44,13.84l1.12,1.73,1.1,1.63,2.33,3.36,4.92,7a280.15,280.15,0,0,1,15.81,24.49,93.14,93.14,0,0,1,6.51,14.1c.24.63.44,1.35.65,2s.43,1.35.6,2.11l.53,2.2.4,2.4a27.8,27.8,0,0,1-.7,11.66,28.17,28.17,0,0,0,1-11.85,45.22,45.22,0,0,0-2-8.87A87.56,87.56,0,0,0,714.21,183a244.32,244.32,0,0,0-14.79-23.64c-2.53-3.69-5.11-7.34-7.46-10.83l-1.69-2.58-1.75-2.78c-1.15-1.84-2.28-3.69-3.37-5.53-4.37-7.35-8.3-14.77-10.68-22.43a11.09,11.09,0,0,1-.54-2,13.74,13.74,0,0,1-.23-1.63,1.45,1.45,0,0,1-.38-.72,39,39,0,0,1-1.88-12.33,7.27,7.27,0,0,1,.39-2.26C672,95.86,672.07,96.38,672.06,97.29ZM549.52,274l-.15-.17.52.29.72,1.1S550.07,274.62,549.52,274Zm-9,3.68h0l-.43-.63C540.25,277.33,540.39,277.53,540.51,277.7ZM716.57,295a8.93,8.93,0,0,1-1.71.25H714c-.3,0-.79-.09-1.17-.11l-.63,0-.88-.13-1.76-.26-3.51-.54c-4.68-.68-9.35-1.49-14-2.28q-14-2.43-27.87-5.27L677.78,289q10.54,2,21.13,3.82c3.53.62,7.06,1.16,10.59,1.74l2.66.41,1.82.2A9.44,9.44,0,0,0,716.57,295ZM543.33,269.51a12.41,12.41,0,0,1,2.13,2.16,6,6,0,0,1,1.69,0c1.55.18,3.06.41,4.54.7-.19-.39.16-.31.34-.34l.56,0-4.79-1.23A42.13,42.13,0,0,1,543.33,269.51Zm-11.17.95-.14-.16.27-.62S532.23,270,532.16,270.46Zm-.41,1,.23.1C531.91,271.83,531.83,271.75,531.75,271.5Zm2.14.87a1.63,1.63,0,0,0-.31-.35Zm2.28,18.18.64-3.14-.71,3Z"/><path d="M540.31,389.07c.2,0,.41.11.61.16a1.59,1.59,0,0,1-1.12.61c5.91.77,11-3,14.07-6.83,1.47-.35,2.48-1.48,2.25-2.61s-1.67-1.87-3.21-1.53a4.74,4.74,0,0,1-1.11-.14,20,20,0,0,0-4.44-1.15,31.18,31.18,0,0,0-4.88-.21l2.16.4a10.29,10.29,0,0,0-2.91.3c.19.17.4.34.6.5-3.6-.44-7.52,1.63-8.42,4.6s1.39,5.47,4.85,5.73Z"/><path d="M548.25,393.47c-1.86-.1-3.71-.27-5.62-.44l-.48-.26.93,1.65,0-.12c.71-2,2.79-3.55,4.8-4.72l.68-.52a1.47,1.47,0,0,0,.33-1.16,1.8,1.8,0,0,0-2.28-1.18l-1.28.27a12.63,12.63,0,0,0-5.33,1.47,5.08,5.08,0,0,0-2.83,4.13c0,.82.76,1.51,1.24,2.24a2.67,2.67,0,0,0,3.45,1.11,2.52,2.52,0,0,0,1.73-3.05l.83-.05-.37.63c-.07-1.14,1.11-1.87,1.83-2.77.44-.28.88-.58,1.33-.83l-2-2.32-.62.65.3.22a32.49,32.49,0,0,1-3.5,3.64l-1.47,1.83a1.23,1.23,0,0,0,1,1.63l1.13.18-.55-.16c2.23-.33,4.47-.76,6.66-.93a.74.74,0,0,0,.73-.58A.56.56,0,0,0,548.25,393.47Z"/><path d="M541.56,396.72a1.76,1.76,0,0,0-1.25.13c0,.16-.07.25-.08.29l.85.17C541.68,397.43,541.77,397.08,541.56,396.72Z"/><path d="M540.23,397.14l-.35-.07.3.17,0-.05Z"/><path d="M638.46,385.31q11.43,3.58,22.27,8.17c.24.1.47.1.52,0s-.11-.27-.34-.36c-7.23-3.09-14.63-5.83-22.27-8.24-.26-.07-.49,0-.55.09S638.22,385.24,638.46,385.31Z"/><path d="M687.33,417.16c-.19,0-.23.07-.11.22a.91.91,0,0,0,.53.3c.15,0,.21-.1.1-.23A.89.89,0,0,0,687.33,417.16Z"/><path d="M682.29,423.33a15.9,15.9,0,0,0-2.74-.65.79.79,0,0,1-.41-.2c0,.17-.26.23-.61.14-6.89-1.64-14-3.66-21.17-4.9a.93.93,0,0,1-.43.33,3.63,3.63,0,0,1-2.63-.06l-.71-.31c-2.93-1.05-5.91-2-8.87-2.9a9.34,9.34,0,0,1-2.24,0l-8.31.42a.61.61,0,0,1,.17.53c-.14.44-.81.68-1.53.59l-1.09-.08c1,.19,2,.44,3,.7a1.57,1.57,0,0,1,.4.13l3.46.44c5.16.54,10.23,1.1,15.29,1.73,2.54.29,5,.68,7.57,1s5,.81,7.52,1.35a.74.74,0,0,1,.52.23c.05.12,0,.22-.21.2-6.65-.48-12.68.43-19.73.3a170.77,170.77,0,0,0-24.54,1.45c-8.21-.19-15.75,1.6-23.47,4-2.85.92-5.6,1.82-8.24,2.8-5.41,2.12-10.43,4.19-15.19,6.59a3.66,3.66,0,0,1-3.67.49,6.19,6.19,0,0,1-3.18-3.11,7.77,7.77,0,0,1-.47-6l-.68.28L569,429a4.63,4.63,0,0,1-3.31-1.16l-1.34-1c-2.14-2.18-4.79-3.47-7-5.79l-.29-1.15-.36-.19a6.17,6.17,0,0,1-2.74-2.12l-.55-1.3a13,13,0,0,1-.86-4.63A4.81,4.81,0,0,1,552,410a6.74,6.74,0,0,1-2.38-4,.92.92,0,0,1-.47-1.3,1.05,1.05,0,0,1,.4-.41h0a7.66,7.66,0,0,0-.89-.57l-.65,0-1.94.38a5.42,5.42,0,0,1-1.67-.51c-2-1.87-2-1.87-2.36-2.89,0-.12,0-.23,0-.35-.81,0-.87,0-1.1,0a2.64,2.64,0,0,1-.51-.22c-.31-.51-.31-.51-.52-.64a2.79,2.79,0,0,1-.25-.38c.06-.75.06-.75,0-.92a1.71,1.71,0,0,1,0-.38l.54-.58,1.64.92-.05-.56.54.52-.42-.51.65.13-.79-.26a5.53,5.53,0,0,0,1.64-.52,2.3,2.3,0,0,0,.86-.49,3.25,3.25,0,0,1-.19-.28c1.31-.28,1.31-.28,2.59-.51a3.65,3.65,0,0,1,.44.26.58.58,0,0,1,.47-.43l.66-.15.09-.13,0-.05c.16-.19.27-.32.39-.48l.08-.1h0c.28-.32.69-.77,1.76-2a9.41,9.41,0,0,1,1.15-.1l-.41-.15c-.27-.11-.3-.68-.42-.69a37.59,37.59,0,0,0-9.28,1.17,1.07,1.07,0,0,1-1.38-.16.84.84,0,0,1,.4-1.21,19.41,19.41,0,0,1,8.71-5.54,26.61,26.61,0,0,1,10.44-1.14c1.7-.17,3.38-.31,5.07-.45l-.31-.2,1.37.11H566l-1.21-.71c-.25,0-.49-.09-.74-.12a45.89,45.89,0,0,1-5.87.17c-2-.08-4-.13-6,0-2.2.07-4.27-.2-6.47-.21a.9.9,0,0,1-1.11-.49c-.1-.38.26-.79.77-.91,6.2-2.86,14-4.11,19.94-1.95a6.24,6.24,0,0,1,3.41.25h.06l-.91-.64c.92,0,1.53.59,2.38.72l-.54-1c4.41-.1,9-.9,13.09.21a2.31,2.31,0,0,1,.46,0,13.08,13.08,0,0,1,5.73-1.84c-.88-.09-1.76-.12-2.62-.18a18.05,18.05,0,0,1,5.64-.89,23.32,23.32,0,0,1,4.15.3,30.13,30.13,0,0,1,4,.86,16,16,0,0,1,6.14,3.2,189.9,189.9,0,0,1,29.89,3.35c.51.08.92.36,1,.63s-.36.42-.87.33c-7-.79-14.21-1.53-21.44-1.84,6,1.1,11.92,2.44,17.87,3.77l2.3.41a12.35,12.35,0,0,1,2.23.64c7.55,1.82,14.51,4.08,22,6.3,6.41,1.93,12,3.85,18.16,6.29,8.71,3.46,16.47,7.24,24,12.74,1,.69,1.77,1.65,1.65,2.11s-1.07.29-2.09-.38a171.38,171.38,0,0,0-25.6-12.72c-8.86-3.6-18-6.64-27.57-9.68-2.07-.61-4.1-1.3-6.16-1.83a.76.76,0,0,1,0,.26,1.17,1.17,0,0,1-.71.77c2.32.63,4.6,1.47,6.88,2.27a76.41,76.41,0,0,1,19.61,6c2.22,1,4.24,2.27,6.22,3.43s3.84,2.45,5.71,3.75a148,148,0,0,1,15.25,7.68.78.78,0,0,1,.41.39c0,.13-.13.14-.34,0-3.6-1.65-7.29-3.28-11-4.85.42.59.57,1.13.33,1.5s-.87.52-1.65.42l2.38,1.32c.48.28.79.65.67.84s-.59.15-1.06-.1c-1.61-.88-3.22-1.77-4.87-2.58s-3.28-1.68-5-2.44c-4.1-1.64-8.27-3-12.47-4.42a2.94,2.94,0,0,1,.78,1.61h0l1.91.68a106.3,106.3,0,0,1,34.39,15.93c.22.14.35.31.3.4s-.25,0-.44-.09a110.57,110.57,0,0,0-9.85-6.13v0c.1.13.07.24-.11.22a1.11,1.11,0,0,1-.53-.29c-.12-.15,0-.24.11-.23A105.57,105.57,0,0,0,669,409.38a122.09,122.09,0,0,1,17.54,8.47l2,.72a.7.7,0,0,1,.4.37c0,.1-.17.12-.35,0l-.57-.21c1.05.64,1.68,1.46,1.4,1.91s-1.44.28-2.53-.34c-1.51-.77-3-1.54-4.53-2.26s-3-1.48-4.56-2.16l-1-.37-1.1-.22c4.66,2.34,9.16,5,13.52,7.72.39.22.64.53.56.7s-.47.12-.86-.1A209.86,209.86,0,0,0,663.37,414l-4.71-.1-4.75.09,1.09.35c4.67,1.29,9.14,2.15,13.62,3.09a71.75,71.75,0,0,1,13.32,4c.23.09.37.25.35.35s-.21.11-.43,0A88.14,88.14,0,0,0,668.74,418c-1.87-.46-3.71-.83-5.51-1.19s-3.61-.58-5.38-.77c6.9,1.81,13.78,3.23,20.51,5.82a1.42,1.42,0,0,1,.71.44.28.28,0,0,1,.22-.05,23.5,23.5,0,0,1,2.88.69.58.58,0,0,1,.43.33C682.65,423.35,682.5,423.38,682.29,423.33ZM562.22,395.62l-.21-.14.64.17,1.14,1ZM555,403.36h0l-.7-.55C554.53,403,554.76,403.21,555,403.36Zm65.66-17.8c-2.13-.27-4.26-.63-6.39-.95-1.06-.18-2.13-.37-3.2-.59s-2.14-.41-3.21-.65H611c1.62.31,3.24.65,4.85,1S619,385.16,620.61,385.56Zm-66.46,7.31a12.44,12.44,0,0,1,3.05,1.59,5.63,5.63,0,0,1,1.68-.74,42.77,42.77,0,0,1,4.88-.87c-.34-.38,0-.43.22-.54l.55-.26c-1.75.13-3.52.26-5.35.36A49.73,49.73,0,0,1,554.15,392.87Zm-10.64,6.22-.21-.1,0-.79S543.37,398.57,543.51,399.09Zm.11,1.32h.27C543.93,400.68,543.82,400.63,543.62,400.41Zm2.48-.13a1.55,1.55,0,0,0-.47-.22ZM556.77,419l-.89-3.62.77,3.52Z"/><path d="M480.18,483.71l.59,0c-.08.35-.4.6-.85.8a10.61,10.61,0,0,0,6.83-3.4,16.29,16.29,0,0,0,3.93-6.42,2.46,2.46,0,0,0,1.2-3.17,2.39,2.39,0,0,0-3.33-.65,4.31,4.31,0,0,1-1,.14,22.14,22.14,0,0,0-8.7.79l2-.06a7,7,0,0,0-2.48.94l.67.34c-3.28.38-6.12,3.17-6.17,6.13s2.63,5,5.84,4.65Z"/><path d="M488.56,486.28c-1.73.32-3.47.56-5.24.79l-.5-.14,1.27,1.41,0-.12c.13-2.08,1.61-4,3.09-5.68l.48-.65a1.49,1.49,0,0,0,0-1.19,1.76,1.76,0,0,0-2.41-.66c-.36.18-.71.38-1.06.58-3,.87-6.74,3.62-5.93,7.05.2.78,1.06,1.31,1.69,1.93a2.51,2.51,0,0,0,3.44.43,2.38,2.38,0,0,0,.82-3.29l.74-.23c-.05.23-.11.46-.16.69-.37-1.09.51-2.06.92-3.1l1-1.11-2.44-1.81-.37.77c.12.06.32.14.32.15a26.6,26.6,0,0,1-2.18,4.29l-.9,2a1.3,1.3,0,0,0,1.3,1.4l1.09,0-.55,0c2-.7,3.92-1.67,5.9-2.3a.67.67,0,0,0,.5-.73A.55.55,0,0,0,488.56,486.28Z"/><path d="M483.25,490.84a1.62,1.62,0,0,0-1.13.35v.3h.82C483.53,491.5,483.53,491.15,483.25,490.84Z"/><path d="M482.12,491.49h-.35l.32.11,0-.05Z"/><path d="M634,441.66c1.13.11,2.26.18,3.38.32l3.35.42,6.68.86,6.65,1.11,3.31.55,3.29.67,6.58,1.34,6.5,1.57,3.25.79c1.08.27,2.14.6,3.22.89l6.41,1.8c.58.16,1.08.23,1.14.11s-.36-.35-.9-.48l-6.42-1.82-3.22-.9-3.24-.8-6.51-1.58L661,445.16l-3.29-.68-3.31-.56-6.64-1.11c-2.22-.32-4.46-.58-6.69-.88s-4.47-.59-6.73-.76a2,2,0,0,0-1.2.15C633.06,441.46,633.48,441.61,634,441.66Z"/><path d="M753.74,491.78c-.39-.13-.42,0-.1.24a4.64,4.64,0,0,0,1.22.68c.32.11.37,0,.09-.23A4.51,4.51,0,0,0,753.74,491.78Z"/><path d="M746.75,497c-1.06-.48-2.08-.94-3.08-1.35s-2-.75-2.93-1.06a4.78,4.78,0,0,1-1-.48c.05.21-.42.15-1.19-.15a320.37,320.37,0,0,0-48.42-15.07,1.82,1.82,0,0,1-.82.26,17,17,0,0,1-6-.76l-1.75-.55c-1.78-.5-3.59-.88-5.38-1.33s-3.58-.9-5.39-1.25l-5.42-1.1-2.7-.55-2.72-.45a39.09,39.09,0,0,1-5.16-.19c-3.19,0-6.39.12-9.58.14l-9.6.46c.39.16.63.36.61.55s-.48.42-1.09.57a9.85,9.85,0,0,1-2.26.24l-2.6.06c2.48.11,5,.13,7.44.39.35,0,.68.07,1,.12,2.73.12,5.49.12,8.3.34a288,288,0,0,1,70.74,12.06,3.89,3.89,0,0,1,1.23.53c.17.17.09.27-.34.16-14.65-3.64-27.75-4.7-44.05-6.31a221.13,221.13,0,0,0-57.21,1.86,147.49,147.49,0,0,0-28.26,5.77,166.3,166.3,0,0,0-26.58,10.66c-1.5.67-2.91,1.52-4.35,2.27L554,505.12l-4.12,2.45c-1.37.81-2.76,1.56-4.05,2.46l-1,.65-.49.32-.18.13-.63.47-1.27.92c-.84.62-1.71,1.18-2.51,1.83q-2.43,1.9-4.92,3.67c-1.64,1.21-3.19,2.53-4.81,3.77a5,5,0,0,1-4,1.46,6.48,6.48,0,0,1-4.22-2.21,7.43,7.43,0,0,1-1.92-5.79l-.65.46-1.25.43a5.07,5.07,0,0,1-3.8-.3l-1.65-.67c-2.72-1.59-5.74-2.2-8.48-3.95l-.55-1.06-.4-.1a6,6,0,0,1-3.2-1.45l-.84-1.15a13.57,13.57,0,0,1-1.88-4.36,4.84,4.84,0,0,1-.9-1.51,6.8,6.8,0,0,1-3.23-3.35,1,1,0,0,1-.77-1.16,1.06,1.06,0,0,1,.27-.5h0a9.92,9.92,0,0,0-1-.35c-.37.13-.6.19-.6.19-.93.42-.93.42-1.76.76a5.07,5.07,0,0,1-1.7-.18c-2.29-1.43-2.3-1.43-2.9-2.34,0-.12-.05-.23-.07-.34-.77.13-.82.14-1,.16a2.58,2.58,0,0,1-.53-.12c-.41-.43-.41-.43-.64-.52a3.09,3.09,0,0,1-.31-.32c-.12-.74-.12-.74-.24-.88a2.1,2.1,0,0,1,0-.38l.36-.66,1.74.58-.17-.53.62.4-.51-.41h.64l-.8-.1a4.5,4.5,0,0,0,1.4-.81,1.93,1.93,0,0,0,.68-.64l-.25-.23c1.13-.56,1.13-.56,2.24-1.07a3,3,0,0,1,.48.16.57.57,0,0,1,.32-.53l.56-.29.06-.15,0,0c.1-.22.17-.37.24-.55l0-.12h0c.17-.39.39-.95,1.08-2.36a9.09,9.09,0,0,1,1-.35l-.42-.05c-.29-.05-.47-.6-.59-.58-.72.14-1.43.32-2.13.53s-1.36.51-2,.79c-1.33.58-2.66,1.23-4,1.86a1,1,0,0,1-1.31.09.82.82,0,0,1,.06-1.23c2.7-6,9.14-9.76,15.48-11,1.51-.58,3-1.19,4.47-1.81l-.34-.12,1.28-.28.12-.05-1.33-.35c-.24,0-.47.05-.71.09a29.17,29.17,0,0,1-5.29,1.71c-1.8.47-3.61.94-5.41,1.54s-3.91.8-5.9,1.26a.82.82,0,0,1-1.13-.23.79.79,0,0,1,.42-1,36.12,36.12,0,0,1,8.15-5.23,20.91,20.91,0,0,1,9.17-1.75,5.68,5.68,0,0,1,3.13-.8l0,0-1-.35c.82-.26,1.58.14,2.39,0l-.83-.83c2-.66,3.93-1.58,5.88-2.37a28.1,28.1,0,0,1,3-1.05,14.46,14.46,0,0,1,3.06-.49,3.12,3.12,0,0,1,.44-.09,21.85,21.85,0,0,1,1.75-2c.16-.15.32-.3.5-.45a.94.94,0,0,1,.14-.12l.43-.24.87-.49a37.29,37.29,0,0,1,3.74-1.88c-.94.3-1.84.66-2.74,1l-2.65,1s.17-.12.27-.18l.33-.2.68-.41,1.36-.79c.91-.54,1.85-1,2.81-1.48,1.91-.92,3.89-1.8,6-2.61,11.38-4.37,24.9-6.54,31.66-5.38a245.08,245.08,0,0,1,33.54-6.18,268.94,268.94,0,0,1,33.9-1.43,4.25,4.25,0,0,1,2.41.57c.12.26-.66.47-1.82.44a264.89,264.89,0,0,0-48.55,4.62,287.18,287.18,0,0,1,41.23-2c1.76,0,3.54-.07,5.33,0s3.51.23,5.24.43c17.69,1,34.16,4,51.53,8l2.77.63,2.7.72,5.31,1.42c1.76.44,3.47,1,5.18,1.51l5.13,1.56c3.39,1.08,6.74,2.29,10.16,3.44s6.81,2.58,10.34,3.93a282.53,282.53,0,0,1,27.92,13.11,245.93,245.93,0,0,1,25.84,16.34c2.25,1.62,4.13,3.43,4.13,4s-1.83-.29-4.09-1.89a311.29,311.29,0,0,0-27.75-16.68,317.55,317.55,0,0,0-29.49-13.57A301.15,301.15,0,0,0,691,457a312.64,312.64,0,0,0-33-7.39c-2.44-.44-4.88-.73-7.29-1.09l-3.62-.52c-1.21-.16-2.42-.26-3.63-.4a.58.58,0,0,1,.11.28c0,.36-.52.65-1.3.86l4.09.45c1.36.19,2.72.42,4.09.63l4.08.66,2,.33,2,.42a190.39,190.39,0,0,1,45.67,10.7,236,236,0,0,1,28.52,13.49,281.6,281.6,0,0,1,34.41,18.3,3.19,3.19,0,0,1,1,.79c.11.18-.18.1-.63-.17l-6-3.27-3-1.64-3-1.58-6.14-3.16-6.27-3c1.15,1,1.73,1.76,1.42,2.1s-1.51.2-3.16-.33l5.52,3c1.14.6,1.94,1.26,1.79,1.45s-1.11-.14-2.2-.71c-3.75-2-7.47-4-11.31-5.84-1.91-.92-3.79-1.9-5.73-2.76l-5.8-2.61a292.62,292.62,0,0,0-28.89-9.88,7,7,0,0,1,2.44,2.12h0l4.49,1.38c27.69,7.64,54.5,21.06,78.43,38.55.47.33.82.67.78.75s-.46-.11-.89-.41c-3.64-2.59-7.25-5.22-11-7.62-1.88-1.2-3.71-2.48-5.63-3.61l-5.72-3.44,0,0c.28.24.28.38-.09.24a5.62,5.62,0,0,1-1.2-.72c-.32-.28-.23-.36.09-.24A244.18,244.18,0,0,0,711.67,473a257.22,257.22,0,0,1,40.77,19.23c1.48.7,3,1.35,4.47,2.12a3.32,3.32,0,0,1,1,.75c.07.14-.27.06-.68-.16L756,494.3c2.41,1.51,4.07,3,3.76,3.43s-2.71-.51-5.22-2c-6.9-3.75-13.81-7.43-20.92-10.69l-2.34-1-2.42-.83a290.69,290.69,0,0,1,31.72,17.57c.89.53,1.57,1.1,1.49,1.27s-.87-.12-1.77-.64a295.3,295.3,0,0,0-28.58-14,288,288,0,0,0-30-11c-3.48-.62-7-1.1-10.47-1.63-3.53-.37-7-.81-10.6-1.1.87.19,1.74.42,2.61.64,11.11,2.61,21.43,5.17,31.57,8.25A197.57,197.57,0,0,1,745,494.29a2,2,0,0,1,.9.66c0,.11-.38,0-.88-.25a223.32,223.32,0,0,0-29.7-11.39L709,481.37l-6.27-1.65-3.09-.79-3.1-.66c-2.06-.43-4.09-.85-6.12-1.23l6.07,1.6,3,.78,3,.86,6,1.71,5.92,1.89,3,.94,2.93,1,5.87,2.12c1.94.76,3.87,1.55,5.81,2.34l2.92,1.2c1,.41,1.92.87,2.88,1.3a8.08,8.08,0,0,1,1.7,1,.76.76,0,0,1,.43.06,66,66,0,0,1,6.33,2.52,3.18,3.18,0,0,1,1.06.69C747.5,497.23,747.22,497.19,746.75,497ZM502.14,485l-.24-.08h.65l1.4.73Zm-4.67,9.44h0l-.82-.38Zm96.62-48.19-7.27.82c-1.21.11-2.41.28-3.62.46l-3.62.49c-4.84.56-9.62,1.45-14.49,2.07l6.93-1.68,2.74-.44,2.75-.32L583,447c1.83-.24,3.68-.35,5.53-.46ZM493.86,484.35a12.1,12.1,0,0,1,3.28.79,5.13,5.13,0,0,1,1.34-1.15,27,27,0,0,1,4.27-2.13c-.44-.3-.09-.45,0-.59l.43-.41c-1.58.61-3.25,1.1-4.86,1.76A40.91,40.91,0,0,1,493.86,484.35Zm-8.22,8.41-.22-.05-.23-.76Zm.42,1.26.25-.06C486.42,494.22,486.29,494.19,486.06,494Zm2.3-.61a1.79,1.79,0,0,0-.49-.12Zm14.73,16L501.38,506l1.57,3.29Z"/><path d="M344.45,394.19l.64,0c-.08.34-.43.62-.93.86a13.76,13.76,0,0,0,7.43-3.88,20.73,20.73,0,0,0,4.43-6.37c1.37-.73,2.06-2.06,1.54-3s-2.14-1.13-3.59-.39a5.77,5.77,0,0,1-1.14.21,27.54,27.54,0,0,0-9.6,1.44l2.25-.24a10.24,10.24,0,0,0-2.79,1.09l.73.27c-3.68.58-7,3.5-7.09,6.44s3,4.61,6.52,3.87Z"/><path d="M353.49,395.86c-1.85.44-3.69.85-5.6,1.26l-.54-.09,1.4,1.23-.06-.1c.09-2,1.67-4.05,3.29-5.71l.51-.68a1.28,1.28,0,0,0,0-1.13,1.88,1.88,0,0,0-2.56-.39l-1.16.63c-3.25,1-7.42,4.09-6.43,7.42.24.76,1.21,1.17,1.91,1.7a2.85,2.85,0,0,0,3.73,0c1.22-.91,1.58-2.35.81-3.28l.78-.3c-.05.22-.11.45-.17.69-.41-1,.53-2,1-3.06l1.06-1.14-2.61-1.5-.42.75a3.07,3.07,0,0,1,.35.12,31.31,31.31,0,0,1-2.35,4.32c-.32.69-.63,1.38-.92,2.08a1.22,1.22,0,0,0,1.44,1.22l1.17-.17-.59,0c2.13-.92,4.13-2.05,6.22-2.83a.71.71,0,0,0,.54-.74A.56.56,0,0,0,353.49,395.86Z"/><path d="M347.92,400.81a1.89,1.89,0,0,0-1.19.48c0,.17,0,.26,0,.3l.88-.1C348.25,401.42,348.24,401.07,347.92,400.81Z"/><path d="M346.74,401.59l-.37,0,.35.07,0-.05Z"/><path d="M403.27,538l-.33.9a4.83,4.83,0,0,1-.24.5l-.46.9c-.33.6-.54,1.22-.81,1.84a27.85,27.85,0,0,0-1.32,3.86,17.15,17.15,0,0,0-.61,4.11,8.32,8.32,0,0,0,.91,4.07,6.45,6.45,0,0,0,3.1,2.71,12.15,12.15,0,0,0,4.09.9,30.31,30.31,0,0,0,4.26-.05l2.16-.19,4.91-.58c.85-.1,1.54-.33,1.55-.51s-.67-.24-1.44-.13l-5,.58-2,.18a30.6,30.6,0,0,1-4.06,0,11.92,11.92,0,0,1-3.88-.83,6.24,6.24,0,0,1-3-2.53,7.91,7.91,0,0,1-.9-3.85,16,16,0,0,1,.56-3.91,28.12,28.12,0,0,1,1.24-3.66c.26-.58.47-1.17.77-1.74l.43-.85.22-.42a3.38,3.38,0,0,0,.15-.37l.15-.45a2.59,2.59,0,0,0,.19-1.43C403.74,537,403.48,537.42,403.27,538Z"/><path d="M548.75,559c-.54-.57-.63-.46-.24.25a14.71,14.71,0,0,0,1.47,2.19c.42.49.54.38.25-.23A10.64,10.64,0,0,0,548.75,559Z"/><path d="M536.46,561.09a26.76,26.76,0,0,0-8.34-5.05,7.6,7.6,0,0,1-1.34-.66c.07.28-.58.24-1.64-.07-5.25-1.41-10.7-.67-16.9,1.42-.77.26-1.56.55-2.36.85l-2.45.95-2.45,1-2.44,1.09c-3.25,1.49-6.49,3.16-9.75,4.93-6.53,3.56-13.1,7.65-20.14,11.81L466,579c-1,.54-1.9,1.09-2.87,1.61-1.92,1.07-3.91,2.07-5.91,3a131,131,0,0,1-12.42,5.26,3.47,3.47,0,0,1-1.27,1.1c-2.17,1.45-7,3.21-12.11,4.12-1.29.22-2.58.39-3.87.57-1.92.29-4,.57-5.65.77l-2.83.34c-1.25.17-2.53.3-3.79.42a103.22,103.22,0,0,1-15.06.61,56.63,56.63,0,0,1-14.25-2.35,35.35,35.35,0,0,1-12.39-6.58,17.69,17.69,0,0,1-2.42-1.83,19,19,0,0,1-2.33-2.26c-.37-.42-.73-.85-1.1-1.29s-.67-.93-1-1.41-.68-1-1-1.46-.57-1.06-.85-1.6a36.52,36.52,0,0,1-4.07-11.41c-.18-1-.36-2-.49-3.06a24.45,24.45,0,0,1-.32-3.11A51.88,51.88,0,0,1,360,554a65.75,65.75,0,0,1,2.4-13.4c.63-2.28,1.57-4.44,2.4-6.67l1.29-3.34c.11-.28.21-.56.33-.83l.43-.78.85-1.55c-.78,1-1.36,1.53-1.58,1.45-.18-.25.2-1.38,1-3,.39-.82.88-1.77,1.45-2.8l.44-.79c.15-.26.31-.55.44-.74l.89-1.31,1.86-2.66.94-1.31,1-1.24a42.48,42.48,0,0,0-2.89,3.65l-1.39,1.89-.69,1c-.23.32-.51.8-.76,1.19-2,3.31-4.3,6.44-5.74,10.18-.46,1-.92,2-1.35,2.87a47.29,47.29,0,0,0-2.3,6.11c-.66,2.08-1.17,4.18-1.62,6.28a60,60,0,0,0-1.3,12.55,41.94,41.94,0,0,0,.58,6.59,44.59,44.59,0,0,0,1.33,6.34c.36,1,.69,2,1.06,3l1.26,2.94,1.55,2.81c.59.91,1.22,1.78,1.83,2.66s1.34,1.69,2,2.53,1.53,1.53,2.3,2.28a30.86,30.86,0,0,0,2.47,2.08,23.72,23.72,0,0,0,2.62,1.84,43.69,43.69,0,0,0,11.69,5c8.23,2.18,17.17,2.2,25.95,1.17,2.2-.26,4.39-.58,6.56-.9.55-.07,1.09-.19,1.63-.28l1.38-.24,2.18-.41,4.59-.93c1.59-.36,3.17-.7,4.74-1.11a128.81,128.81,0,0,0,18.55-6.15,134,134,0,0,0,17-8.67c10-6.06,18.71-12,27.65-16.66a7.34,7.34,0,0,1,2.1-.86c.4,0,.41.18-.23.53A185.44,185.44,0,0,0,481,574.82L473,580.74l-4.27,3c-1.56,1.07-3.17,2.14-4.82,3.18a121.63,121.63,0,0,1-22.05,11,123.17,123.17,0,0,1-12.46,4c-1.08.29-2.15.55-3.24.81l-3,.72-1.47.33-.77.17-.48.09-.6.12c-1.61.34-3.27.56-4.93.83-2,.32-4,.57-6,.85s-4,.39-6,.47l-3,.13c-1,.06-2,0-3,0s-2,0-2.95-.09l-2.91-.25c-1-.08-1.93-.23-2.88-.38s-1.91-.29-2.84-.49a53.24,53.24,0,0,1-5.52-1.45,47.08,47.08,0,0,1-10.35-4.62l-2.4-1.56-2.25-1.76a27.67,27.67,0,0,1-2.15-1.89l-1.05-1-.26-.24-.06-.07c-.1.05-.06,0-.1,0l-.12-.13-.47-.54a44.67,44.67,0,0,1-6.56-9.27,43.73,43.73,0,0,1-4-10.59c-.42-1.87-.78-3.77-1.11-5.67a18.77,18.77,0,0,1-.33-2.93c0-1-.17-2-.13-3a63.25,63.25,0,0,1,1.05-12.43,60.41,60.41,0,0,1,3.58-12.63l2.55-6.17.65-1.55.32-.77a6.37,6.37,0,0,1,.41-.72l1.69-2.81,1.71-2.83.85-1.42.43-.7c.14-.24.29-.5.4-.65,1-1.39,1.93-2.76,2.91-4.13.5-.67,1-1.37,1.51-2l1.62-1.91,1.65-1.89a24.14,24.14,0,0,1,1.68-1.81c1.14-1.15,2.31-2.27,3.47-3.39s2.34-2,3.51-3a145,145,0,0,1,13.33-9.55c4.34-2.73,8.31-5.16,11.78-7.82,1.83-1.3,3.42-2.7,5.07-4.1.85-.69,1.57-1.46,2.34-2.21s1.53-1.49,2.27-2.26c1.41-1.61,2.83-3.21,4.17-4.89s2.59-3.49,3.77-5.21a52.15,52.15,0,0,0,5.47-10.49A41.91,41.91,0,0,0,429.33,442a35.09,35.09,0,0,0-.6-10.86l-.28-1.3c-.11-.43-.25-.84-.37-1.26-.21-.83-.55-1.65-.82-2.46a31.71,31.71,0,0,0-2.2-4.68,29.67,29.67,0,0,0-6-7.63,12.39,12.39,0,0,0-4.15-2.63,2.61,2.61,0,0,0-.78-.18l-.17,0-.11,0a.77.77,0,0,0-.19.08c-.26.12-.5.27-.82.42a5.84,5.84,0,0,1-1.59.43,12.45,12.45,0,0,0-1.85.19,9.82,9.82,0,0,0-1,.32,21.75,21.75,0,0,0-4.06,2c-.34.19-.71.47-1.05.69-.18.11-.36.25-.54.38l-.12.1-.38.34c-.25.21-.51.47-.77.69s-.51.48-.77.73-.51.48-.77.76c-1,1-2.09,2.13-3.13,3.32s-2.1,2.46-3.13,3.82c-1.28,2.36-4.07,2.58-6.48.29a7.65,7.65,0,0,1-2.3-5.35l-.5.51-1,.58a4,4,0,0,1-3.28.22l-1.5-.42c-2.58-1.19-5.43-1.44-8.2-2.81l-.64-1-.39-.06a5.6,5.6,0,0,1-3.2-1l-.93-1a12.53,12.53,0,0,1-2.28-4.05,4.76,4.76,0,0,1-1-1.36,6.43,6.43,0,0,1-3.47-2.9.89.89,0,0,1-.86-1.05,1.22,1.22,0,0,1,.25-.51h0c-.41-.11-.53-.14-1-.24-.37.17-.6.25-.6.25l-1.76,1a5.6,5.6,0,0,1-1.77,0c-2.47-1.13-2.49-1.12-3.19-1.95a2,2,0,0,1-.09-.33c-.81.23-.87.25-1.09.3a3,3,0,0,1-.57-.06c-.46-.37-.46-.37-.71-.43a2.41,2.41,0,0,1-.35-.28c-.18-.71-.18-.71-.31-.84a1.6,1.6,0,0,1-.07-.37c.23-.45.31-.63.35-.7l1.89.35-.21-.5.68.32-.56-.35.67-.07h-.85a6.14,6.14,0,0,0,1.46-1,2.19,2.19,0,0,0,.7-.7,2.35,2.35,0,0,1-.27-.2c1.18-.65,1.18-.66,2.34-1.26a5,5,0,0,1,.51.11.58.58,0,0,1,.33-.54l.59-.32.06-.15,0,0,.25-.55,0-.12h0c.17-.38.42-.92,1.12-2.35a9.44,9.44,0,0,1,1.08-.44h-.43c-.3,0-.49-.52-.61-.49a42.41,42.41,0,0,0-8.69,3.82,1.19,1.19,0,0,1-1.42.23c-.39-.27-.37-.81.05-1.21,2.89-6,10-10.14,16.87-11.72l4.93-2-.36-.08,1.41-.32.14-.05-1.39-.26-.78.12c-3.78,1.61-7.79,2.36-11.74,3.76-2.12.75-4.24,1.08-6.41,1.7a.92.92,0,0,1-1.22-.12c-.21-.31,0-.78.49-1,5.27-4.31,12.77-7.77,19.36-7.69a8.13,8.13,0,0,1,3.56-.83l.05,0-1.07-.28a21.18,21.18,0,0,1,2.63-.08l-.77-.71c2.28-.7,4.64-1.53,7-2.22a26.2,26.2,0,0,1,7.22-1.14l.53-.06a19.3,19.3,0,0,1,2.63-1.54l.73-.33a1.2,1.2,0,0,1,.22-.08l1.07-.27,2.21-.45a58.78,58.78,0,0,1,9.51-1q-1.73,0-3.39.09c-1.12.06-2.23.14-3.32.27s-2.2.23-3.28.4l-1.63.25-1.41.26,0,0,.19-.05.43-.11.85-.2,1.74-.37c1.14-.25,2.35-.42,3.53-.61a60.52,60.52,0,0,1,7.33-.63c1.25,0,2.53,0,3.79,0s2.57.17,3.85.28l1.94.27,1,.15.48.07.24,0,.13,0,3.33.7a45.83,45.83,0,0,1,11.49,4.07,42.82,42.82,0,0,1,5.43,3.36q1.18.9,2.34,1.83c.74.63,1.43,1.27,2.12,1.92A54.19,54.19,0,0,1,451,397.88a61.21,61.21,0,0,1,4.89,15.35,52.88,52.88,0,0,1,.92,11.9,76.83,76.83,0,0,1-.35,16.83,93,93,0,0,1-3.6,16.05,107.34,107.34,0,0,1-6.14,14.93c-.62,1.19-1.2,2.39-1.87,3.55l-1,1.75-1,1.65-2,3.3c-.65,1.11-1.32,2.21-2,3.28-2.8,4.34-5.74,8.65-8.89,12.79l-2.36,3.12-2.41,3-1.2,1.52-1.21,1.47-2.41,3c-3.16,3.82-6.24,7.55-8.77,11a56.24,56.24,0,0,0-5.78,9.93c-.54,1.32-1.1,2.35-1.45,2.41s-.17-1,.33-2.34c.46-1.16,1.05-2.31,1.58-3.51s1.34-2.39,2.06-3.62,1.61-2.48,2.53-3.76,1.87-2.55,2.93-3.89c4.16-5.25,9-10.89,13.55-16.79A199.5,199.5,0,0,0,440,482.38l2.83-4.77c.95-1.65,1.86-3.36,2.71-5.07a101.08,101.08,0,0,0,4.6-10.61c-1.16,3-2.5,6-3.94,8.83-.72,1.44-1.49,2.84-2.26,4.25l-1.2,2.08-1.23,2c-1.64,2.62-3.24,5.27-5.07,7.81-.9,1.27-1.72,2.6-2.67,3.85L431,494.5c-3.82,5-7.89,9.85-12,14.41s-8,8.91-11.19,13.11l-1.19,1.62c-.37.54-.69,1.08-1,1.61l-1,1.59c-.34.53-.59,1.07-.88,1.59-.56,1.05-1.19,2-1.64,3.07l-.75,1.49-.39.74-.32.76-.75,2c-.11.3-.26.7-.36.92l-.28.6c-.35.81-.78,1.61-1.05,2.44a43.67,43.67,0,0,0-1.62,5,25.55,25.55,0,0,0-.84,5.13,12.06,12.06,0,0,0,.7,5.09,7.5,7.5,0,0,0,3.28,3.89,12.23,12.23,0,0,0,5,1.43,26.34,26.34,0,0,0,5.25-.12c.87-.1,1.74-.22,2.6-.36l1.29-.23c.46-.08.67-.15,1.76-.31,3.31-.52,5.81-.94,8.5-1.51s5.18-1.2,7.66-1.93A100.86,100.86,0,0,0,446,551c2.39-1.12,4.58-2.24,7.3-3.69l8.2-4.34c5.66-3,11.76-6.07,18.55-9a131.05,131.05,0,0,1,14.84-5.35,77.9,77.9,0,0,1,17.55-3.29,52.21,52.21,0,0,1,20.77,3,49.76,49.76,0,0,1,9.47,4.7,60,60,0,0,1,7.64,5.8,61.72,61.72,0,0,1,6.51,6.87,67.61,67.61,0,0,1,5.06,7.26,98.5,98.5,0,0,1,6.82,13.91l1.31,3.27c.45,1.14.92,2.37,1.35,3.56.88,2.4,1.63,4.85,2.34,7.31a111,111,0,0,1,3.16,15,55.82,55.82,0,0,1,.6,7.35,12,12,0,0,1-.36,3.82c-.44.71-1-3.08-1.74-8.4A111.42,111.42,0,0,0,572,583.42c-.75-2.54-1.6-5.06-2.53-7.55-.47-1.25-1-2.48-1.48-3.71l-1.47-3.46a103.71,103.71,0,0,0-7.43-14.39,57.9,57.9,0,0,0-12.38-14.13c-1.24-1.06-2.58-2-3.9-2.94l-2-1.32c-.66-.44-1.49-.88-2.24-1.31a46.49,46.49,0,0,0-9.95-4,50.58,50.58,0,0,0-20.39-1.13,75.59,75.59,0,0,0-8.85,1.79c-1.37.36-2.64.73-4,1.11s-2.59.8-3.86,1.23a156.36,156.36,0,0,0-14.68,5.85c-4.68,2.13-9.15,4.38-13.46,6.62L457,549.37,453.91,551l-2.94,1.5a101.16,101.16,0,0,1-23.21,8.35c-2,.48-4.08.86-6.16,1.22l-3.2.49L415,563a59.73,59.73,0,0,1-7.81.8,26.06,26.06,0,0,1-3.95-.17,14.94,14.94,0,0,1-3.85-.93,9.18,9.18,0,0,1-3.32-2.13,10.33,10.33,0,0,1-1.26-1.54,12,12,0,0,1-.84-1.82,15.58,15.58,0,0,1-.6-6.78,35.06,35.06,0,0,1,1.45-6.59.92.92,0,0,1-.36.11c-.45,0-.74-.42-.84-1.19a44.17,44.17,0,0,0-2,8.15,25.54,25.54,0,0,0-.18,4.29,15.35,15.35,0,0,0,.89,4.22,9.81,9.81,0,0,0,4.22,4,15.59,15.59,0,0,0,5.72,1.46,47.63,47.63,0,0,0,11.55-.87l1.43-.25,2.44-.37,2.37-.37c.74-.12,1.49-.22,2.23-.36,3-.52,5.89-1.14,8.79-1.85a121.4,121.4,0,0,0,17.27-5.68l3-1.25,3-1.35,6.35-2.91c4.28-1.94,8.63-3.89,13.09-5.7s9-3.53,13.74-5c2.35-.73,4.73-1.43,7.16-2,1.21-.31,2.42-.6,3.66-.86l1.84-.41,1.93-.38a65.83,65.83,0,0,1,10.37-1.7,46.17,46.17,0,0,1,11.37.55A41.49,41.49,0,0,1,535,537.79c.9.41,1.72.91,2.57,1.37s1.56,1,2.34,1.47a49.39,49.39,0,0,1,4.4,3.25,52.68,52.68,0,0,1,7.59,7.72,67.84,67.84,0,0,1,5.7,8.46c1.62,2.85,3,5.66,4.31,8.44.63,1.38,1.25,2.75,1.83,4.11s1.24,2.88,1.81,4.32a9.36,9.36,0,0,1,.71,2.32c0,.39-.26-.08-.65-1s-.86-2-1.3-3L563,572.38c-.88-1.85-1.81-3.75-2.78-5.66a90,90,0,0,0-7.09-11.61,57.25,57.25,0,0,0-4.73-5.62,51.3,51.3,0,0,0-5.65-5c-1-.79-2.05-1.48-3.09-2.2s-2.08-1.34-3.3-2a39.07,39.07,0,0,0-7.47-3.14c3.13,1.55,4.6,3,4.1,3.48s-3-.16-6.67-.76a38.74,38.74,0,0,1,6.3,2.44c1,.47,2,1.07,2.93,1.61s1.8,1.15,2.67,1.78c2.16,1.54,3.54,3.14,3.3,3.31s-2-1-4-2.35c-.87-.62-1.77-1.17-2.67-1.75s-1.9-1.12-2.91-1.57A34.36,34.36,0,0,0,525.7,541a38.9,38.9,0,0,0-13.05-1.17,61.86,61.86,0,0,0-12.23,2.25c-3.85,1-7.63,2.31-11.31,3.72a260.54,260.54,0,0,0-24.95,12.3l-6,3.2c-2,1-3.88,2-5.86,3a112.35,112.35,0,0,1-12.06,4.9,14.83,14.83,0,0,1,5.42.13h0c2.56-1,5.07-2,7.55-3.19,5.54-2.82,11.08-6.16,16.78-9.3s11.54-6.25,17.68-8.95q4.59-2,9.41-3.7c1.6-.56,3.23-1,4.86-1.56s3.36-.92,5.1-1.28a45.66,45.66,0,0,1,10.86-1,35.06,35.06,0,0,1,11.12,2.12l1.34.5,1.3.58c.88.38,1.71.84,2.54,1.29a46.64,46.64,0,0,1,4.64,3,45,45,0,0,1,8,7.55c4.65,5.62,7.88,11.85,10.73,17.92,1.42,3,2.85,6.2,4,9.41s2.27,6.48,3.18,9.79a114,114,0,0,1,3.6,20.19,6.18,6.18,0,0,1,0,2,4.41,4.41,0,0,1-.32-1.74,113.22,113.22,0,0,0-4.82-24.19,108.7,108.7,0,0,0-4.4-11.59c-1.69-3.72-3.4-7.36-5.41-11l0,.07c.25.62.18.81-.25.21a17.32,17.32,0,0,1-1.29-2.27c-.31-.72-.14-.74.25-.24a57.11,57.11,0,0,0-7-9.69,46.74,46.74,0,0,0-4.41-4.26,47.22,47.22,0,0,0-5-3.6,38.85,38.85,0,0,0-5.55-2.9,36.84,36.84,0,0,0-6.06-1.85,38.74,38.74,0,0,0-12.36-.46,62.49,62.49,0,0,0-11.49,2.6c-3.64,1.14-7.19,2.47-10.66,3.94a203.71,203.71,0,0,0-19.87,10c6-3.14,12.17-6.2,18.56-8.82,3.2-1.32,6.46-2.52,9.78-3.56a77.87,77.87,0,0,1,10.24-2.6,43,43,0,0,1,10.9-.57A34.1,34.1,0,0,1,530,544.79a40.85,40.85,0,0,1,9.21,5.83,44.36,44.36,0,0,1,7.36,7.84,65.16,65.16,0,0,1,5.44,7.48A8.37,8.37,0,0,1,553,568c0,.26-.38-.22-.83-.95s-.89-1.44-1.37-2.15c2.61,4.59,3.76,8.45,3.15,8.66-.75,0-3.12-3.68-5.87-8.21a45.44,45.44,0,0,0-14.65-15.08,30.33,30.33,0,0,0-9.67-4,33.41,33.41,0,0,0-10.46-.63,42.53,42.53,0,0,0-4.49.77c-1.48.41-2.93.87-4.36,1.41a42.44,42.44,0,0,1,16-1.31,29.37,29.37,0,0,1,7.62,2.08,34.64,34.64,0,0,1,6.85,4,44,44,0,0,1,10.74,11.67,121.57,121.57,0,0,1,7.64,14.26c.82,1.66,1.3,3.18,1.11,3.3s-1-1.14-1.81-2.79a135.31,135.31,0,0,0-7.12-12.23,46.31,46.31,0,0,0-9-10.07A35.43,35.43,0,0,0,531,553a28.29,28.29,0,0,0-5.86-2.44,29.16,29.16,0,0,0-12.6-.59,47.69,47.69,0,0,0-6.49,1.47c-2.17.64-4.41,1.42-6.58,2.22a137.94,137.94,0,0,0-12.89,5.64c-4.25,2.09-8.46,4.38-12.7,6.73s-8.47,4.75-13,7.13A126.26,126.26,0,0,1,442.71,583a134,134,0,0,1-20,6.82c1.74-.25,3.54-.51,5.32-.85a110.53,110.53,0,0,0,31.66-11.05c4.84-2.56,9.06-5.19,13.25-7.73s8.27-5,12.36-7.35,8.19-4.48,12.39-6.34a79.56,79.56,0,0,1,12.74-4.61,29.9,29.9,0,0,1,12.48-.65,24.24,24.24,0,0,1,6,1.92,32.18,32.18,0,0,1,2.93,1.56l1.43.92c.48.31.92.66,1.39,1a3.36,3.36,0,0,1,1.24,1.3c0,.16-.57-.14-1.28-.72a33.68,33.68,0,0,0-5.53-3.35,23.41,23.41,0,0,0-5.66-1.89,28.41,28.41,0,0,0-11.8.42,53.06,53.06,0,0,0-6.09,1.82c-2.08.76-4.18,1.59-6.25,2.5-4.16,1.81-8.27,3.89-12.46,6.19-6.93,3.81-13.63,8-20.56,12.22a143.8,143.8,0,0,1-22.77,11.33,122.56,122.56,0,0,0,23.17-10.53c6.85-3.93,13.26-7.88,19.69-11.38a127.51,127.51,0,0,1,19.49-8.87c6.46-2.22,12.52-3.18,18.13-1.72a6.93,6.93,0,0,1,2.48,1,1.05,1.05,0,0,1,.61,0c.36.1.72.25,1.08.38a8.45,8.45,0,0,1,1.12.45l1.17.53c.39.19.76.41,1.15.62.79.39,1.5.9,2.27,1.38s1.48,1,2.18,1.65a4.6,4.6,0,0,1,1.31,1.47C537.46,561.82,537.06,561.6,536.46,561.09ZM367.55,393.42l-.24-.05.65-.07,1.38.56Zm-4.75,9.32h0l-.82-.27Zm75.32,80.64,3.46-5.63c1.17-1.88,2.27-3.93,3.33-5.93a104.69,104.69,0,0,0,5.48-12.55,86.51,86.51,0,0,0,5.26-27.42,77.89,77.89,0,0,1-1.1,13.78,83.69,83.69,0,0,1-2.64,10.25,88.75,88.75,0,0,1-3.74,9.75c-1.41,3.16-3,6.24-4.69,9.23l-1.32,2.22-1.35,2.1ZM359,393.51a12.41,12.41,0,0,1,3.37.47,5.53,5.53,0,0,1,1.43-1.19,41.52,41.52,0,0,1,4.49-2.32c-.43-.23-.07-.4.08-.55l.47-.4-5.11,2C362.2,392.17,360.61,393,359,393.51Zm-8.47,8.89-.24,0-.27-.72Zm.5,1.19.27-.09C351.44,403.74,351.31,403.73,351.05,403.59Zm2.38-.86a1.55,1.55,0,0,0-.52-.06Zm15.9,13.89-2-3.08,1.84,3Z"/><path d="M436.75,432l.37,0a.85.85,0,0,1-.57.47c3.49-.1,6-3,7.24-5.79a1.54,1.54,0,0,0,1-1.91,1.56,1.56,0,0,0-2.12-.54,2.62,2.62,0,0,1-.67.05,13.73,13.73,0,0,0-5.57.28h1.29a5.58,5.58,0,0,0-1.62.52l.42.24a4.3,4.3,0,0,0-4.15,3.61,3,3,0,0,0,3.5,3.06Z"/><path d="M442,433.91c-1.13.12-2.22.23-3.35.31l-.31-.1.75.91,0-.07a6.18,6.18,0,0,1,2.18-3.41l.33-.4a1,1,0,0,0,0-.76,1.09,1.09,0,0,0-1.49-.46l-.7.32c-1.95.42-4.39,2-4,4.2.1.5.62.85,1,1.26a1.56,1.56,0,0,0,2.13.36,1.51,1.51,0,0,0,.63-2l.47-.12-.13.43c-.19-.69.4-1.27.7-1.9l.67-.64-1.47-1.21-.28.45c.08.05.2.1.2.11a16.53,16.53,0,0,1-1.54,2.59l-.62,1.24a.81.81,0,0,0,.77.91h.68l-.34-.05c1.27-.38,2.51-.92,3.78-1.24a.43.43,0,0,0,.36-.43A.36.36,0,0,0,442,433.91Z"/><path d="M438.44,436.57a1.05,1.05,0,0,0-.72.19c0,.11,0,.16,0,.19l.51,0C438.59,437,438.6,436.77,438.44,436.57Z"/><path d="M437.71,437h-.21l.19.08,0,0Z"/><path d="M522.28,425.91a12.09,12.09,0,0,0,6.78.46,18.11,18.11,0,0,0,7.32-4.11c.16-.14.25-.31.2-.37s-.21,0-.35.15a17.89,17.89,0,0,1-7.23,4,11.82,11.82,0,0,1-6.6-.47c-.16,0-.36,0-.39,0S522.11,425.86,522.28,425.91Z"/><path d="M558.9,395.56c0,.21,0,.22.15,0a2.11,2.11,0,0,0,.23-.64c0-.17-.06-.19-.16,0A1.74,1.74,0,0,0,558.9,395.56Z"/><path d="M562.92,398.87c-.29,1.16-.52,2.28-.72,3.29a2.82,2.82,0,0,1-.2.52c.12,0,.12.22,0,.65a84.26,84.26,0,0,1-10.84,25.39,1,1,0,0,1,0,.5,8.39,8.39,0,0,1-1.92,3l-.8.78A36.78,36.78,0,0,1,537,441.24c-.42.28-.89.56-1.4.85a15.32,15.32,0,0,1-1.72.74,19.85,19.85,0,0,1-3.12,1.23,21,21,0,0,1-3.34.86,22.68,22.68,0,0,1-3.44.45,27.89,27.89,0,0,1-3.41.05c.27.12.42.25.4.37-.11.28-1.18.38-2.4.22-.59-.08-1.14-.19-1.71-.29a44.53,44.53,0,0,0,5.14.91,5.63,5.63,0,0,1,.75.07l1.55,0a10.6,10.6,0,0,0,1.58-.05c1.07-.1,2.15-.17,3.22-.37s2.34-.51,3.46-.83,2.16-.79,3.21-1.21,2-1,3-1.48,1.87-1.11,2.71-1.74a38.58,38.58,0,0,0,8.4-8.26,55.72,55.72,0,0,0,5.55-9l1.12-2.27,1-2.3c.32-.77.67-1.52,1-2.29l.84-2.29a1.86,1.86,0,0,1,.33-.66c.1-.09.16,0,.09.19-.28,1-.57,2-.85,3s-.62,1.94-.93,2.92c-.58,2-1.36,3.87-2.12,5.86a44.35,44.35,0,0,1-7.56,12.38,38.34,38.34,0,0,1-8.16,7c-.8.51-1.66,1-2.5,1.44s-1.81.83-2.72,1.24l-1.4.58c-.47.19-1,.32-1.48.47-1,.29-2,.6-3,.82a40.89,40.89,0,0,1-12,.48l-2.66-.31-2.42-.39c-.84-.13-1.53-.26-2.27-.4l-2.14-.39-2.05-.52-1.87-.44-.92-.21-.85-.16-1.71-.32a36.87,36.87,0,0,0-6.14-.45,39.23,39.23,0,0,0-11.41,1.93,51.79,51.79,0,0,0-8.05,3.4c-2.79,1.7-5.5,3.42-8.26,5.41-1.27,1.25-3.39.89-4.82-.86a4.69,4.69,0,0,1-1-3.64l-.41.24-.76.23a3.2,3.2,0,0,1-2.3-.32l-1-.46c-1.61-1.08-3.49-1.59-5.13-2.75l-.31-.68-.25-.08a3.67,3.67,0,0,1-1.94-1l-.49-.74a8.38,8.38,0,0,1-1-2.77,3.1,3.1,0,0,1-.52-1,4.23,4.23,0,0,1-1.9-2.19.59.59,0,0,1-.44-.75.61.61,0,0,1,.19-.29h0c-.24-.11-.31-.14-.6-.25l-.38.1-1.12.43a3.18,3.18,0,0,1-1.06-.16c-1.37-1-1.38-1-1.72-1.54a1.7,1.7,0,0,1,0-.22c-.48.07-.52.07-.65.08a2.12,2.12,0,0,1-.33-.09c-.24-.28-.24-.28-.38-.34a2,2,0,0,1-.18-.21c-.06-.47-.06-.47-.12-.56a.83.83,0,0,1,0-.24l.24-.4,1.07.41-.09-.34.37.27-.3-.28.39,0-.49-.08a3.16,3.16,0,0,0,.89-.47,1.31,1.31,0,0,0,.46-.38.85.85,0,0,1-.15-.15c.73-.31.73-.31,1.44-.59a2.09,2.09,0,0,1,.3.11.34.34,0,0,1,.22-.31l.37-.16,0-.09,0,0c.07-.13.12-.22.17-.33l0-.07h0c.13-.23.3-.56.77-1.44a4.49,4.49,0,0,1,.66-.2l-.26,0c-.17,0-.27-.39-.35-.38a24,24,0,0,0-5.26,1.72.62.62,0,0,1-.82,0,.52.52,0,0,1,.07-.77c1.92-3.6,6.16-5.83,10.31-6.37,1-.31,2-.65,3-1l-.21-.09.84-.12.09,0-.84-.28a3.44,3.44,0,0,0-.46,0c-2.27.84-4.68,1-7,1.67-1.25.35-2.53.38-3.79.64a.51.51,0,0,1-.7-.17.51.51,0,0,1,.31-.65c3.16-2.46,7.59-4.31,11.48-3.82a4,4,0,0,1,2.09-.35h0l-.64-.27c.55-.12,1,.13,1.55.1l-.48-.55c2.69-.68,5.37-1.94,8.13-1.8l.3,0a15,15,0,0,1,1.36-1.12l.37-.25.11,0,.25-.1.51-.19c.69-.25,1.41-.49,2.16-.71l-3.09.63c1-.43,2.1-.86,3.18-1.23a32.76,32.76,0,0,1,3.48-.9,44.34,44.34,0,0,1,5.08-.66,38,38,0,0,1,5,0,21.83,21.83,0,0,1,7.68,1.75,70.18,70.18,0,0,1,18.5,2.76c5.82,1.62,11,3.75,14.85,4.82.37.08.68.29.71.47s-.28.25-.66.16c-2.8-.55-6.32-1.76-10.21-2.94a87.67,87.67,0,0,0-12.62-3,79.29,79.29,0,0,1,10.49,3.17c3.3,1.2,6.39,2.52,9.15,3.52.73.24,1.37.41,2.07.62s1.24.37,1.85.62a9.21,9.21,0,0,0,1.11.26l1,.22,1,.1a3.83,3.83,0,0,0,.94.07,8.88,8.88,0,0,0,1.79-.09c.3,0,.6-.05.9-.1l.92-.26a12.64,12.64,0,0,0,3.74-1.62l.93-.57.91-.7a20,20,0,0,0,1.82-1.57,43.09,43.09,0,0,0,5.43-6.66,72.6,72.6,0,0,0,4.51-8.11c1-2.06,1.9-4.21,2.81-6.29.44-1.05.83-2.13,1.25-3.19s.85-2.1,1.22-3.19c.76-2.17,1.6-4.28,2.32-6.51s1.56-4.42,2.3-6.73c.38-1.23,1-2.31,1.27-2.38s.27.88-.1,2.12c-2.75,9.74-5.86,19.26-10.24,27.93a56.74,56.74,0,0,1-7.74,11.76,28.39,28.39,0,0,1-4.83,4.3,16.31,16.31,0,0,1-5.28,2.47,13.07,13.07,0,0,1-4.49.43.59.59,0,0,1,0,.17.65.65,0,0,1-.42.55,7,7,0,0,0,1.35.09,7.6,7.6,0,0,0,1.35,0c.44-.05.89-.08,1.35-.11s.91-.22,1.38-.31c5-1.94,9.28-6.43,13.62-12A101.7,101.7,0,0,0,551.47,406a164,164,0,0,0,6.27-17.25,1.17,1.17,0,0,1,.26-.54c.08-.07.09.08,0,.32-.54,2.07-1,4.19-1.7,6.26s-1.27,4.2-2,6.26c.45-.57.85-.86,1.09-.71s.28.74.13,1.58l1.17-2.79c.22-.58.49-1,.62-.94s.07.57-.14,1.13c-.79,1.9-1.55,3.82-2.37,5.7s-1.67,3.75-2.65,5.54a69.06,69.06,0,0,1-7.28,12.61,3.09,3.09,0,0,1,1.47-.66h0l1.32-1.85a124,124,0,0,0,8.77-19.22c2.47-6.7,4.64-13.59,6.68-20.57.08-.28.19-.49.25-.48s0,.23,0,.48l-1.86,6.31-2,6.24v0c.09-.15.17-.16.15,0a1.68,1.68,0,0,1-.22.64c-.11.18-.17.14-.15,0a163.6,163.6,0,0,1-9,22.27,140,140,0,0,0,9-20.17c.2-.78.4-1.56.6-2.36a1.22,1.22,0,0,1,.26-.55c.06,0,.08.13,0,.36s-.1.44-.16.66c.47-1.32,1-2.28,1.33-2.16s.2,1.42-.29,2.8c-.62,1.86-1.23,3.73-1.88,5.57s-1.37,3.67-2.12,5.48l-.45,1.19-.36,1.24c1.33-2.75,2.47-5.58,3.63-8.4s2.17-5.68,3.1-8.57c.15-.49.36-.89.47-.87s.09.46-.06,1a155.84,155.84,0,0,1-4.8,15.48,90,90,0,0,1-7.07,15,55.28,55.28,0,0,1-5.6,10.24l1-1.12c4.39-4.87,6.92-10.15,9.07-15.31s3.68-10.43,5.47-15.91c.08-.28.21-.49.28-.5s.06.19,0,.47c-1.71,5.37-3.06,10.41-5.27,15.72a94.25,94.25,0,0,1-6.33,12.53,64.85,64.85,0,0,0,6.64-12c.82-2.07,1.72-4.08,2.42-6.16.38-1,.75-2.07,1.13-3.1s.69-2.08,1-3.13a3.38,3.38,0,0,1,.42-.93s0-.11,0-.23c.24-1.08.5-2.26.79-3.45a1.35,1.35,0,0,1,.26-.59C563,398.46,563,398.62,562.92,398.87ZM450.56,433.53l-.14-.06.4,0,.84.5Zm-3.34,5.71h0l-.49-.26Zm57.39-16.84a107.37,107.37,0,0,0-15.51-3.25c1.3,0,2.6.05,3.9.19A61.88,61.88,0,0,1,504.61,422.4Zm-59.26,10.45a7.68,7.68,0,0,1,2,.6,3.12,3.12,0,0,1,.91-.66,20.68,20.68,0,0,1,2.81-1.18c-.26-.2,0-.28.06-.37l.29-.24c-1,.31-2.09.61-3.16.94S446.33,432.65,445.35,432.85Zm-5.48,5-.14,0-.12-.49Zm.22.81.16,0C440.31,438.77,440.23,438.75,440.09,438.64Zm1.45-.32a1.51,1.51,0,0,0-.3-.09Zm8.67,10.4-.95-2.14.87,2.09Z"/></svg>