<svg id="Layer_1" data-name="Layer 1" xmlns="http://www.w3.org/2000/svg" viewBox="0 0 1080 890.4"><path d="M603.38,551.74c.15.22.31.45.45.67a3,3,0,0,1-1.52-.77,25.67,25.67,0,0,0,4.26,4.08,40.77,40.77,0,0,0,4.89,3,35.53,35.53,0,0,0,5,2.15,42.2,42.2,0,0,0,4.64,1.52c1.69,1.3,3.48,2,4,1.36s-.4-2.44-2.11-3.92a11.92,11.92,0,0,1-1-1.18,44.53,44.53,0,0,0-3.49-5c-1.34-1.64-2.81-3.4-4.43-5.16l1.74,2.45a23.87,23.87,0,0,0-3-2.91c.06.25.13.57.19.83a22.74,22.74,0,0,0-5.5-5,9,9,0,0,0-5.52-1.63c-3.07.47-3,4.31,0,7.92Z"/><path d="M607.81,561.56c-1.81-1.74-3.53-3.6-5.26-5.52l-.28-.59-.38,1.75.08-.08a8.65,8.65,0,0,1,4,.47,30,30,0,0,1,4.43,1.72l1.07.42a1.23,1.23,0,0,0,1.18-.21c.49-.54-.13-1.77-1.39-2.78-.49-.39-1-.74-1.46-1.1a32.26,32.26,0,0,0-2.9-2.42,21,21,0,0,0-3.32-2.11c-2.25-1.08-4.43-1.61-5.89-.68-.66.44-.5,1.59-.62,2.47-.47,1.13.64,2.91,2.44,4s3.63,1,4.1,0l.87.78-.86,0c.82-.65,2.55.13,3.95.36l1.94.84-.23-3-1.08-.28c0,.14.13.38.12.39-2.07-.44-4-.92-6.2-1.57l-2.83-.46c-.84.13-1,1-.37,1.83l1,1.19-.41-.62c1.21,1,2.47,1.87,3.73,2.87s2.49,1.92,3.67,2.88a1.31,1.31,0,0,0,1.17.36C608.26,562.26,608.19,561.89,607.81,561.56Z"/><path d="M598.57,557a3.5,3.5,0,0,0-1.32-1.13l-.32.08c.18.25.44.58.69.91C598.12,557.52,598.49,557.41,598.57,557Z"/><path d="M596.93,556c-.18-.22-.29-.38-.29-.38l.16.39h.07Z"/><path d="M729,604.67c-.8-2.83-1.7-5.73-2.75-8.74-.26-.76-.52-1.51-.81-2.27l-.9-2.44q-.94-2.58-2-5.08c-2.72-6.7-5.73-12.9-9-19.34l-5.19-10.23-1.42-2.8-1.45-2.95-1.5-3.09-.79-1.66-.91-2c-1.12-2.51-2.1-4.88-3-7.24s-1.8-4.7-2.62-7.05c-1.65-4.68-3.12-9.38-4.45-14.11-.35-1.27-.85-2.28-1.13-2.27s-.18,1.06.16,2.23c1.32,4.76,2.79,9.47,4.43,14.18s3.42,9.35,5.61,14.32l.89,2,.83,1.76,1.5,3.1,1.45,3c.48,1,1,1.9,1.42,2.81L712.54,567c3.25,6.4,6.24,12.53,9,19.16,1.33,3.24,2.7,6.94,3.71,9.74,1,3,2,5.85,2.78,8.64.26.76.6,1.34.85,1.42S729.16,605.38,729,604.67Z"/><path d="M741.77,359.79c-.4.73-.23.82.4.23a11.07,11.07,0,0,0,1.77-2.25c.34-.61.15-.72-.39-.21A10.75,10.75,0,0,0,741.77,359.79Z"/><path d="M749.4,374a86,86,0,0,0-5.14,11.47,8.94,8.94,0,0,1-.9,1.86c.4-.07.3.84-.25,2.34-1.43,3.65-2.48,7.45-3.67,11.18-.51,1.89-.94,3.81-1.43,5.7-.23.94-.5,1.88-.71,2.83l-.53,2.89c-.34,1.92-.76,3.81-1,5.73s-.59,3.83-.74,5.77l-.29,2.9c-.1,1-.13,1.94-.2,2.91-.16,1.93-.21,3.89-.27,5.83A167.12,167.12,0,0,0,740,482a2.88,2.88,0,0,1,1.24,1.11c1.5,1.91,2.95,6,4,10.36l.67,3.34A168.28,168.28,0,0,0,752,516.31c.59,1.53,1.21,3.06,1.79,4.39l.47,1,.55,1.23,1.16,2.51c1.6,3.39,3.27,7,4.92,10.83a64.53,64.53,0,0,1,5.66,10.45,172,172,0,0,1,9,20.76c.61,1.78,1.23,3.56,1.81,5.35l.85,2.69c.28.9.56,1.78.83,2.78a111.57,111.57,0,0,1,2.79,12c.13-1.11.36-1.8.7-1.86.86.14,2,4,2.18,8.71.13,2.38.19,4.79.14,7.22a117.24,117.24,0,0,0-.84-20.47c-.14-1-.24-1.83-.32-2.63-.31-1.79-.67-3.55-1.05-5.3s-.75-3.27-1.12-4.91-.84-3.29-1.27-5-.93-3.31-1.41-5A166.16,166.16,0,0,0,770.81,540c-3.08-6.71-6.47-12.91-9.49-18.15l-2.1-3.67c-.53-.91-1.14-2.05-1.72-3.18-1.18-2.29-2.35-4.72-3.45-7.19-2.23-4.93-4.24-10-6-15.17a200.92,200.92,0,0,1-8.22-31.36,151.14,151.14,0,0,1-2.35-31.91,5.27,5.27,0,0,1,.4-2.37c.26-.36.51-.23.5.55a107.71,107.71,0,0,0,2.2,19.61,164.53,164.53,0,0,0,4.94,18.49c1,3,2.09,6.07,3.2,9.12s2.36,6.1,3.63,9.2c2.55,6.17,5.39,12.5,8.56,18.94.94,1.92,1.92,3.79,2.92,5.59s2,3.57,3,5c.23.35.47.7.65.93.26.39.6.94.9,1.4l1.92,3c1.38,2.14,2.71,4.38,4.16,6.84s2.82,5,4.24,7.69,2.71,5.49,4,8.35a176.53,176.53,0,0,1,6.64,17.63c1,3,1.82,6,2.65,8.94l1.18,4.47c.4,1.61.8,3.27,1.16,5a111.61,111.61,0,0,1,2.65,21.35A109.6,109.6,0,0,1,795,622.36c-.39,2-.8,3.93-1.32,5.9-.26,1-.49,1.94-.8,3l-1,3.09a89.84,89.84,0,0,1-4.78,11.88,90.86,90.86,0,0,1-14.9,20.56,97.2,97.2,0,0,1-18.1,14.64,104.76,104.76,0,0,1-39.93,14.65,80.8,80.8,0,0,1-20.79.42,71.44,71.44,0,0,1-10.32-1.89c-1.71-.47-3.38-.92-5.05-1.53l-1.25-.42-.63-.22-.76-.29c-1-.39-2-.78-3-1.22s-1.9-1-2.83-1.49-1.76-1.13-2.63-1.69a24.88,24.88,0,0,1-2.43-1.83l-1.16-.95c-.37-.33-.71-.67-1.06-1a45.29,45.29,0,0,1-6.94-8.61,70.66,70.66,0,0,1-7.92-18.23c-.62-2.05-1.13-4.22-1.56-6.22s-.87-4-1.31-6c-.85-4-1.69-8-2.62-12a76.45,76.45,0,0,0-3.25-11,34.58,34.58,0,0,0-4.83-8c-.5-.48-.91-1-1.41-1.4l-.94-.82a8.94,8.94,0,0,0-.77-.56,14.73,14.73,0,0,0-1.57-1,31.09,31.09,0,0,0-3.35-1.72l-1.78-.71c-.61-.22-1.27-.41-1.88-.61s-1.25-.38-1.91-.55-1.28-.33-2-.46c-1.42-.25-2.66-.56-4.16-.71L612,605l-2.25-.16c-.57,0-1.11,0-1.63-.1a12.12,12.12,0,0,1-1.55-.2,9.18,9.18,0,0,1-2.5-.81c-1.47-.67-2.23-1.79-2-3.12.31-1.61,2-3.06,4.43-3.77l-1.17-.18-1.73-.54a10.65,10.65,0,0,1-1.13-.47,6.43,6.43,0,0,1-1-.55,4.41,4.41,0,0,1-1.39-1.4l-.9-1.36a21.94,21.94,0,0,0-2.06-3.81,14.49,14.49,0,0,1-1.84-4.14l.65-.95-.26-.36a4.54,4.54,0,0,1-1.42-3.26l.49-1.24a9.3,9.3,0,0,1,3-3.56,2.93,2.93,0,0,1,.81-1.4,4.24,4.24,0,0,1,.69-4.26.68.68,0,0,1,.56-1.14,1.92,1.92,0,0,1,.77.11h0a9.62,9.62,0,0,0-.49-1.09l-.73-.52c-1.27-.76-1.27-.76-2.37-1.44a7.46,7.46,0,0,1-1.3-1.78c-.45-2.86-.45-2.9,0-3.84a2.23,2.23,0,0,1,.3-.2c-.8-.77-.86-.83-1.07-1.06a4,4,0,0,1-.32-.61c.12-.59.12-.59,0-.88a2.17,2.17,0,0,1,.07-.45c.68-.37.68-.37.74-.54a1.27,1.27,0,0,1,.36-.16l1,.19.86,2.07.41-.34.11.79v-.68l.53.68-.57-.88a10.34,10.34,0,0,0,2.05,1.25,4.36,4.36,0,0,0,1.24.53,1.23,1.23,0,0,1,0-.33c1.53,1,1.53,1.08,3,2.14a4.32,4.32,0,0,1,.25.55,1,1,0,0,1,.82.2l.78.52.2,0v0l.77.12h.17c.53.08,1.3.21,3.32.67.46.35.87.69,1.25,1-.1-.15-.21-.3-.3-.45-.19-.31.19-.59.07-.72-.75-.73-1.55-1.46-2.37-2.18s-1.66-1.35-2.52-2c-1.72-1.29-3.5-2.73-5.27-4-.68-.31-1.22-1-1.19-1.43s.62-.58,1.32-.25a27.3,27.3,0,0,1,6.35,2.17,38.81,38.81,0,0,1,6.33,3.65,65.44,65.44,0,0,1,11.33,9.84c.92.8,1.82,1.7,2.73,2.54s1.81,1.64,2.7,2.57l-.18-.39,1.3,1.52.14.15-.75-1.52-.66-.85c-1.05-1-2.07-2-3.07-3l-1.49-1.53-1.47-1.48c-1-1-2-2-3-3.08s-2-2-3.05-3-2.15-2.19-3.15-3.23-2-2.19-3-3.3c-.59-.47-.9-1.06-.71-1.35s.82-.08,1.4.39a74.78,74.78,0,0,1,11.8,9.15c.93.87,1.83,1.74,2.68,2.61s1.69,1.84,2.46,2.75,1.5,1.81,2.17,2.74,1.29,1.87,1.85,2.77a21.18,21.18,0,0,1,1.77,1.92,18,18,0,0,1,1.4,2l.05.07c-.16-.41-.32-.79-.48-1.2.86,1.08,1.11,1.91,1.84,2.91,0-.26.06-.57.09-.84,1,1.33,2.11,2.68,3.18,4s2,2.83,3,4.26a41.85,41.85,0,0,1,4.56,9.06l.27.67a33.18,33.18,0,0,1,2,3.59c.16.32.3.65.43,1l.11.29.36,1.09c.24.73.46,1.46.63,2.22s.38,1.51.53,2.26l.39,2.19c.13.73.2,1.5.29,2.25s.17,1.51.21,2.27a56.25,56.25,0,0,0-.69-6.2c-.14-1-.43-2.15-.65-3.23-.12-.55-.28-1.09-.44-1.63l-.42-1.45.51,1.55c.19.57.36,1.15.5,1.74.29,1.17.59,2.36.75,3.45s.39,2.23.51,3.36.21,2.26.28,3.38a113.93,113.93,0,0,1-.39,12.75,50.53,50.53,0,0,0,1.3,15.71c.32,1.27.64,2.53,1.07,3.77.2.62.39,1.24.59,1.85s.45,1.16.67,1.73a49.07,49.07,0,0,0,3.1,6.43,35.28,35.28,0,0,0,7.67,9.3,24,24,0,0,0,6.83,4l.66.15c.21,0,.44,0,.66.06a11.25,11.25,0,0,0,1.28.11l1.26,0,1.62-.06a46.51,46.51,0,0,0,6.55-.81c1.09-.25,2.16-.43,3.23-.74l1.59-.43,1.57-.5c1-.31,2.08-.72,3.11-1.08s2-.83,3-1.25a62.33,62.33,0,0,0,11.24-6.53,55.3,55.3,0,0,0,9.25-8.58,48.62,48.62,0,0,0,6.62-9.81,40.68,40.68,0,0,0,3.54-10.06A31.27,31.27,0,0,0,732,621l-.11-1.1-.14-1.23c-.12-.83-.23-1.64-.4-2.47-.29-1.63-.71-3.3-1.17-5a9.32,9.32,0,0,1-.33-1.88,1.38,1.38,0,0,1,.23-1c.39-.18,1.07.73,1.48,2.17a53.82,53.82,0,0,1,1.78,7.38,42.23,42.23,0,0,1,.6,7,37.34,37.34,0,0,1-3.56,14.84c-4.67,10.11-14.06,19.82-25.72,25.49a60.76,60.76,0,0,0,24.13-19.7,47.14,47.14,0,0,0,6.46-12.69,37,37,0,0,0,1.51-6.42c.21-1.06.23-2.13.35-3.17l0-1.57,0-.79v-.85a52.17,52.17,0,0,0-.81-7c-.41-2.39-.81-4.75-1.22-7.11-.77-3-1.65-6.1-2.68-9.21-.53-1.56-1-3.12-1.64-4.69l-1.92-5.07c-1.34-3.38-2.77-6.69-4.25-9.92s-3.08-6.38-4.72-9.55c-3.28-6.36-6.95-12.72-11.12-20.69l-.79-1.51-.85-1.68c-.62-1.24-1.19-2.42-1.72-3.56-1.07-2.31-2.07-4.56-3-6.82-1.91-4.52-3.66-9.06-5.3-13.68q-2.08-5.92-3.83-11.78c-1.12-3.91-2.19-7.8-3.1-11.71s-1.69-7.83-2.4-11.75c-.34-2-.64-3.94-.95-5.91s-.51-4-.73-5.95c-.41-4-.74-8-.92-12.05s-.18-8.14,0-12.27a154.86,154.86,0,0,1,7.52-43.17c1-2.85,2.09-5.68,3.15-8.48l.8-2.09.91-2c.62-1.35,1.23-2.69,1.84-4a156.76,156.76,0,0,1,18-29.32,171.24,171.24,0,0,1,49.71-42.75c2.53-1.46,5.08-2.7,7.07-3.6a13.91,13.91,0,0,1,4-1.33c.92.06-2.53,2.27-7.47,5.25a177.16,177.16,0,0,0-50.47,46.35l-2.56,3.63c-.83,1.23-1.72,2.41-2.48,3.7-1.57,2.54-3.17,5.07-4.69,7.65l-4.25,8c-1.34,2.72-2.55,5.52-3.79,8.31l-.92,2.1-.8,2.15-1.59,4.33c-.51,1.45-1.1,2.88-1.54,4.36l-1.33,4.45c-.47,1.48-.8,3-1.2,4.48s-.77,3-1.06,4.52l-1,4.54-.76,4.56a164,164,0,0,0-1.5,36.66c.43,6.06,1.12,12.09,2.13,18.05s2.23,11.88,3.72,17.72,3.23,11.62,5.18,17.36,4.11,11.42,6.64,17.2c.64,1.45,1.3,2.91,2,4.45l.57,1.18.52,1,1,2c1.31,2.55,2.59,5,3.84,7.38,2.48,4.73,4.77,9.07,6.93,13.46a209,209,0,0,1,9.79,23,.89.89,0,0,1,.39-.34c.62-.2,1.52.45,2.41,1.49-1.48-4.48-3.12-9.08-4.88-13.48s-3.63-8.78-5.61-13.17c-3.32-5.86-6.95-11.67-10.8-18.52l-1.45-2.6-.36-.66-.42-.79-.79-1.54c-1-2-1.94-4-2.82-5.9-1.77-3.89-3.37-7.8-4.85-11.76a170.61,170.61,0,0,1-10.83-50.55,145.33,145.33,0,0,1,.18-18.1c.19-3,.54-5.9.88-8.8.19-1.45.44-2.9.66-4.33s.48-2.87.77-4.29A144,144,0,0,1,706,403.13a156.38,156.38,0,0,1,19.47-37.38A173.7,173.7,0,0,1,753,335.18a9.78,9.78,0,0,1,2.1-1.59c.4-.16.05.32-.74,1.07a179.65,179.65,0,0,0-19.24,21,167.94,167.94,0,0,0-16.09,24.59c2.21-2.39,3.87-3.57,4.51-2.93s.14,3.08-1.14,6.47l3.36-5.65c.57-.94,1.11-1.89,1.71-2.8l1.82-2.72c1.53-2.23,3-3.8,3.31-3.51s-.54,2.25-1.94,4.37l-1.81,2.76c-.6.93-1.13,1.9-1.7,2.85-1.11,1.91-2.26,3.8-3.33,5.73-2,4-4.14,7.85-5.83,12a142.16,142.16,0,0,0-8.51,25.42c-4.16,21.17-3.42,42.81.69,63.53.29-3,.89-5.3,1.82-6.46h0c-.48-3.2-.89-6.4-1.2-9.6a146.23,146.23,0,0,1,.21-44.78,135.36,135.36,0,0,1,14.94-43l2.78-5,3-4.84c1-1.61,2-3.22,3.16-4.75l3.31-4.65A184.82,184.82,0,0,1,753,345.3a211.39,211.39,0,0,1,34.69-28.93,7.68,7.68,0,0,1,1.9-1.08c.08.07-.63.64-1.51,1.23a208,208,0,0,0-40.81,36l.05-.05c.57-.49.81-.47.38.22a13.18,13.18,0,0,1-1.87,2.16c-.65.57-.76.38-.39-.2-10.9,13.05-20.13,27.73-26.25,43.74-1.67,3.93-2.8,8.08-4.11,12.14-.6,2.05-1.07,4.13-1.6,6.2s-.88,4.17-1.27,6.26a139.11,139.11,0,0,0-2.11,25.2,141,141,0,0,1,9-45.68,152.37,152.37,0,0,1,10.06-21c1.85-3.4,4-6.59,6.11-9.83,1-1.62,2.23-3.14,3.33-4.71s2.22-3.13,3.45-4.61c1.88-2.77,3.7-5.58,5.8-8.26a8.42,8.42,0,0,1,1.81-1.76c.28-.1,0,.52-.61,1.27l-1.7,2.24a45.84,45.84,0,0,1,5.15-5.19c1.45-1.15,2.47-1.7,2.76-1.38s-.35,1.64-1.47,3.32a61.25,61.25,0,0,1-4.51,6.22c-9.56,12.63-17.81,26.25-23.51,40.94l-1.68,4.83-1,5.05a153.88,153.88,0,0,1,15.75-32.75A200.14,200.14,0,0,1,761,348.18c1.4-1.54,2.76-2.69,3-2.52s-.7,1.57-2.08,3.11c-13.49,16.33-24.44,34.8-30.91,54.52-6.66,19.66-8.17,40.52-6.09,61A183.75,183.75,0,0,0,739,502.73c-.46-1.63-.93-3.28-1.4-4.93a281.91,281.91,0,0,1-7-30.82,177,177,0,0,1-2.53-30.17,133.62,133.62,0,0,1,1-15.06c.11-1.27.37-2.5.55-3.76s.37-2.52.67-3.75c.55-2.49,1.06-5,1.69-7.53a125.24,125.24,0,0,1,12.1-29.61,3.67,3.67,0,0,1,1.36-1.71c.23,0-.05.72-.59,1.7a122.56,122.56,0,0,0-11.49,28.75l-.5,1.8-.39,1.84-.76,3.67c-.56,2.42-.89,4.89-1.26,7.35-.62,4.94-1.06,9.92-1.19,15a147.13,147.13,0,0,0,6.77,47.75c-3.44-15.49-5.42-30.89-5-46.33.06-1.93.18-3.86.28-5.79s.28-3.86.55-5.77.44-3.85.8-5.75l.49-2.88c.18-.95.42-1.9.63-2.85.43-1.92.87-3.83,1.31-5.75l1.71-5.69c.51-1.93,1.25-3.79,2-5.67L739.8,394l.54-1.42.61-1.39a14.55,14.55,0,0,1,1.8-3.28,1.44,1.44,0,0,1,.1-.86,55.76,55.76,0,0,1,2.37-6l1.36-3.09c.49-1,1-2,1.57-3.07a6.51,6.51,0,0,1,1.44-2C750,372.57,749.82,373.13,749.4,374ZM620.94,575.3l-.13-.25.58.64.51,1.43Zm-13.67-2.86h0l-.34-.87Zm115,82A59.89,59.89,0,0,1,702.93,667a56.37,56.37,0,0,1-22.78,4.39A48.69,48.69,0,0,0,691.44,670,66.49,66.49,0,0,0,722.27,654.45ZM614.36,566.72a20.41,20.41,0,0,1,2,3.5,13.87,13.87,0,0,1,2.31,1.22l2.95,2.11c1,.7,1.92,1.38,2.82,2.16-.09-.46.35-.1.6,0l.76.45c-1.91-1.72-3.89-3.26-5.9-5C618.14,569.69,616.07,568.3,614.36,566.72Zm-15.77-6.56a2.18,2.18,0,0,0-.14-.25l.61-.48Zm-1,.84.29.25C597.72,561.45,597.64,561.31,597.61,561Zm2.64,2.16a2.16,2.16,0,0,0-.3-.54Zm-3.88,19.64c.7-1,1.39-1.94,2.09-2.89-.72.9-1.43,1.81-2.15,2.74Z"/><path d="M575.44,521.62l-.41.3c-.22-.21-.2-.52,0-.87a6.1,6.1,0,0,0-1.82,5.6,10.51,10.51,0,0,0,2.93,5.24,1.82,1.82,0,0,0,1.89,2,2.36,2.36,0,0,0,2.45-1.78,3.19,3.19,0,0,1,.48-.66,17.18,17.18,0,0,0,4.43-5.13l-1.14,1.11a4.86,4.86,0,0,0,.74-1.71l-.7.2a3.59,3.59,0,0,0-.62-5.85,6,6,0,0,0-7.32.68Z"/><path d="M568,525.24c.9-1.25,1.86-2.43,2.85-3.59l.44-.21h-1.9l.12,0c1.51,1.2,2,3,2.3,4.75l.25.61a1.56,1.56,0,0,0,1,.55,1.68,1.68,0,0,0,1.93-1.15c.06-.29.14-.59.23-.88,1.29-2.15,1.67-5.45-1.44-6.88a6.55,6.55,0,0,0-2.56-.15,2.25,2.25,0,0,0-2.59,1.73,2,2,0,0,0,1.94,2.26c-.1.19-.2.38-.31.57l-.41-.47c1.07.36,1.22,1.38,1.74,2.14l.2,1.13,3-.57-.33-.58a3,3,0,0,1-.33.11,16.21,16.21,0,0,1-1.8-3.42l-.94-1.59a1.53,1.53,0,0,0-1.91,0l-.68.65.4-.29c-.79,1.56-1.32,3.24-2.14,4.83a.49.49,0,0,0,.22.7A.63.63,0,0,0,568,525.24Z"/><path d="M568,519.55c.25-.25.51-.48.48-.85l-.22-.18-.54.48C567.37,519.35,567.63,519.55,568,519.55Z"/><path d="M568.3,518.52l.23-.2-.29.13,0,0Z"/><path d="M609.15,641.33c1,1.55,2.14,3,3.21,4.5s2.16,3,3.34,4.44c2.35,2.87,4.61,5.84,7.14,8.58,1.25,1.39,2.47,2.81,3.74,4.18l3.91,4.05c.66.67,1.3,1.36,2,2l2,1.94,4.09,3.9c.38.33.76.54.86.46s-.14-.41-.49-.71a211.94,211.94,0,0,1-15.69-16.06c-2.52-2.74-4.78-5.68-7.11-8.55-1.18-1.42-2.21-3-3.32-4.43l-1.63-2.22c-.55-.74-1.08-1.49-1.58-2.26-.28-.41-.59-.68-.73-.65S608.89,640.94,609.15,641.33Z"/><path d="M691.31,721.05c-.37-.09-.4,0-.08.24a4.19,4.19,0,0,0,1.19.55c.31.07.35-.05.08-.25A4.16,4.16,0,0,0,691.31,721.05Z"/><path d="M684.89,726.87c-1.08-.39-2.13-.77-3.15-1.11s-2-.71-2.92-1a4.61,4.61,0,0,1-1-.47c0,.21-.41.16-1.19-.13-3.86-1.37-7.67-3-11.57-4.73-2-.82-3.84-1.8-5.78-2.71s-3.9-1.83-5.79-2.88l-5.76-3.06c-1.93-1-3.79-2.18-5.7-3.26-3.83-2.15-7.5-4.58-11.24-6.89a1.64,1.64,0,0,1-.88-.06,18.44,18.44,0,0,1-5.38-3.2l-1.46-1.24c-1.53-1.19-3-2.51-4.43-3.76s-2.93-2.53-4.37-3.82l-4.23-4c-1.41-1.32-2.82-2.64-4.14-4a44.65,44.65,0,0,1-4.25-3.41c-1.35-1-2.64-2.11-3.93-3.2l-3.89-3.31c-1.32-1.09-2.55-2.29-3.81-3.46l-3.78-3.59c.18.42.22.74.06.86-.44.19-1.84-.74-3-2.23L581.45,660l2.5,3.27c.85,1.08,1.73,2.11,2.6,3.17a10.75,10.75,0,0,1,.67.86l3,3.35c1,1.11,2.15,2.16,3.24,3.25a205,205,0,0,0,30.26,24.53,254.21,254.21,0,0,0,32.33,18.23,3.82,3.82,0,0,1,1.18.69c.16.19.06.28-.35.11-14.33-5.8-27.28-10.83-42.34-20.75a232.69,232.69,0,0,1-25.77-19.62,225.64,225.64,0,0,1-23.55-23.81,333.71,333.71,0,0,1-19.65-29.06c-1.46-2.53-3-5-4.42-7.62s-2.79-5.23-4.19-7.87-2.62-5.42-3.94-8.18c-.33-.7-.67-1.39-1-2.09s-.6-1.42-.91-2.13L529.36,592c-.41-1-.82-2-1.22-2.94s-.74-2-1.1-3l-2.15-6-.53-1.49-.46-1.52-.92-3c-.61-2-1.22-4-1.8-6.07l-.38-1.53-.19-.77-.08-.29-.31-1.06-.61-2.13L518.47,558a163.4,163.4,0,0,1-3-17.45,8.56,8.56,0,0,1,.71-6.07,6,6,0,0,1,4.22-3.18,6.44,6.44,0,0,1,5.84,2.31v-1l.36-1.65a6,6,0,0,1,2.43-3.71l1.5-1.12c2.84-1.47,5.43-3.79,8.53-4.85l1.16.31.34-.26a5.55,5.55,0,0,1,3.22-1.59l1.41.15a14.58,14.58,0,0,1,4.51,1.53,4.94,4.94,0,0,1,1.72.3,7,7,0,0,1,4.65-.21,1,1,0,0,1,1.38.18.87.87,0,0,1,.19.48h0a7.79,7.79,0,0,0,.91-.46,5.18,5.18,0,0,1,.25-.52c.3-.88.3-.88.59-1.64a4.76,4.76,0,0,1,1.25-1c2.58-.57,2.59-.56,3.67-.38a2.85,2.85,0,0,1,.3.16c.4-.55.44-.58.56-.73a3.22,3.22,0,0,1,.44-.24c.59,0,.59,0,.81-.06a2.3,2.3,0,0,1,.45,0c.63.35.63.35.82.37a1.88,1.88,0,0,1,.3.2l.27.59-1.58.69.51.2-.71.14.64-.06-.41.37.59-.42a3.41,3.41,0,0,0-.31,1.3,1.4,1.4,0,0,0,0,.77,1.71,1.71,0,0,1,.34,0c-.32,1-.32,1-.67,2a4.39,4.39,0,0,1-.44.21.4.4,0,0,1,.19.49l-.15.51.08.11h0c.1.18.18.3.26.44l.07.09h0c.17.3.46.74,1.22,1.88a4.28,4.28,0,0,1-.32.85l.29-.24c.21-.16.76,0,.81-.1a44.51,44.51,0,0,0,2.75-6.58.81.81,0,0,1,.8-.8.78.78,0,0,1,.88.69,13.42,13.42,0,0,1,1.6,7.25,15.25,15.25,0,0,1-.67,3.74,16.35,16.35,0,0,1-.66,1.85c-.22.61-.47,1.21-.75,1.81-.26,1.23-.48,2.48-.69,3.74l.27-.19-.4,1s0,.07,0,.11l1-.8.28-.53a17.42,17.42,0,0,1,1.18-4.2c.51-1.36,1.29-2.69,1.82-4.05a35.46,35.46,0,0,1,2.41-4,.75.75,0,0,1,.86-.53.62.62,0,0,1,.59.7,18.59,18.59,0,0,1-.49,6.89,14.61,14.61,0,0,1-3.16,6.53,4.17,4.17,0,0,1-.82,2.41v0l.78-.6c-.16.65-.81,1-1.06,1.66l1.1-.33c-.49,3.19,0,6.52-1.2,9.67,0,.12,0,.24-.06.35a16.9,16.9,0,0,1,1.25,1.74c.09.16.18.31.26.47a.81.81,0,0,1,.06.13l.08.36c0,.24.11.48.16.72.17,1,.46,2,.64,3q-.09-1.1-.18-2.16l-.06-2.12,1.18,4.45a47.7,47.7,0,0,1,.93,4.73c.83,4.42,1.35,9.22,1.81,13.59.09,1.1.16,2.17.2,3.21s.14,2,.16,3a26.46,26.46,0,0,1-.28,5,201.88,201.88,0,0,0,11,24.9,182.5,182.5,0,0,0,14.65,23.06,3,3,0,0,1,.81,1.85c-.15.24-.72-.12-1.3-.86-2.15-2.49-4-5.2-6-7.85-1-1.31-1.91-2.71-2.83-4.09l-2.75-4.16c-.88-1.41-1.71-2.86-2.57-4.29s-1.74-2.84-2.5-4.33l-2.34-4.43-1.17-2.21-1.07-2.27a159.74,159.74,0,0,0,15.55,30.35c.85,1.21,1.67,2.44,2.6,3.61a40.83,40.83,0,0,1,2.47,3.64l1.63,2.24,1.72,2.18q1.73,2.16,3.42,4.32c1.18,1.41,2.39,2.78,3.59,4.16s2.37,2.79,3.66,4.1,2.53,2.66,3.81,4,2.65,2.58,4,3.88,2.68,2.6,4.13,3.82l4.34,3.71c1.23,1.08,2.51,2.06,3.77,3l3.73,2.92c2.49,1.9,5,3.65,7.5,5.46s5.13,3.42,7.72,5.16,5.36,3.31,8.18,5c8,4.64,15.81,8.65,23.71,12.49s16,7.27,24.47,10.78c2.28.85,4.28,2,4.4,2.52s-1.65.28-4-.56c-9-3.24-17.91-6.83-26.59-10.84a278,278,0,0,1-25.31-13.51A215.26,215.26,0,0,1,640,680.76a182.2,182.2,0,0,1-21.48-20.08c-1.49-1.54-2.82-3.2-4.2-4.78s-2.77-3.16-4-4.83a.61.61,0,0,1-.14.25c-.27.24-.77.15-1.4-.19.74.93,1.44,1.9,2.21,2.82l2.3,2.76c1.54,1.85,3,3.75,4.68,5.53,9.76,9.29,20.18,17.8,31.49,26.76,7.81,6.11,15,11.6,22.7,16.82a299.13,299.13,0,0,0,31.93,15,2.9,2.9,0,0,1,1,.54c.13.15-.14.13-.6,0-1.93-.66-3.85-1.39-5.8-2.1l-2.91-1.09c-1-.37-1.93-.78-2.9-1.17L687,714.57l-5.77-2.63c1,.9,1.57,1.63,1.28,2s-1.41.26-3-.2l5.16,2.68c1,.57,1.83,1.12,1.71,1.31s-1.08,0-2.09-.56c-3.52-1.81-7.07-3.56-10.5-5.53-1.72-1-3.47-1.9-5.17-2.91l-5.08-3.05a250.22,250.22,0,0,1-23.89-15.39,6.35,6.35,0,0,1,1.45,2.67h0l3.58,2.6a365.87,365.87,0,0,0,73.9,35.72c.51.18.91.4.89.49s-.44,0-.9-.14c-3.94-1.45-7.91-2.8-11.79-4.38-1.94-.77-3.91-1.47-5.83-2.3l-5.77-2.42,0,0c.28.19.29.32-.07.24a4.55,4.55,0,0,1-1.21-.5c-.33-.22-.25-.31.07-.25a377.73,377.73,0,0,1-41.16-21,328.58,328.58,0,0,0,37.22,20.55c1.46.52,2.89,1.09,4.4,1.57a3,3,0,0,1,1,.57c.08.12-.25.1-.67,0l-1.23-.42c2.45,1.08,4.2,2.28,4,2.75s-2.64-.07-5.23-1.17c-6.91-3-13.74-6.1-20.35-9.64l-2.2-1.06-2.29-.91a286.79,286.79,0,0,0,31.27,15.64c.92.37,1.65.83,1.6,1s-.85,0-1.78-.35a265.36,265.36,0,0,1-28.59-12A250.55,250.55,0,0,1,642.66,702c-3.15-1.52-6.22-3.21-9.39-4.82s-6.21-3.46-9.36-5.27c.68.59,1.42,1.13,2.14,1.69,2.32,1.74,4.57,3.48,6.9,5s4.65,3,6.95,4.5,4.69,2.72,7,4,4.72,2.49,7.05,3.72c9.43,4.77,19,9,29.07,13.4a1.93,1.93,0,0,1,.93.58c0,.11-.37.05-.89-.18-9.92-4.22-19.08-8.05-28.72-13l-5.89-3.1c-1.92-1.06-3.8-2.15-5.69-3.2L640,703.86c-.94-.53-1.84-1.09-2.76-1.63L631.72,699c1.78,1.19,3.56,2.37,5.32,3.56.89.58,1.77,1.18,2.67,1.73l2.72,1.63c1.81,1.08,3.6,2.16,5.42,3.21l5.51,3,2.75,1.48,2.8,1.4,5.58,2.79,5.67,2.65,2.84,1.34,2.88,1.26a7.11,7.11,0,0,1,1.7.93.76.76,0,0,1,.44,0c2,.66,4.15,1.48,6.36,2.24a3.1,3.1,0,0,1,1.1.59C685.66,727,685.37,727,684.89,726.87ZM561.2,535.29l.19-.14-.32.49-1.33.73ZM556.14,527h0l.78-.38Zm32.43,88.5c-1.73-3.68-3.57-7.27-4.93-11.06-.7-1.89-1.47-3.74-2-5.65s-1.14-3.84-1.67-5.76q1.13,2.67,2.23,5.35c.93,2.87,2,5.69,3,8.58S587.44,612.57,588.57,615.45Zm-22.15-85.78a13.34,13.34,0,0,1-2.55,1.88,3.79,3.79,0,0,1,.16,1.5c-.16,1.39-.22,2.74-.44,4.08.47-.2.43.13.49.28l.13.5c.3-1.44.59-2.87,1-4.31A27.91,27.91,0,0,1,566.42,529.67ZM565,519.9l.19-.11.72.3Zm-1.22-.48-.12.2C563.42,519.53,563.53,519.47,563.81,519.42Zm-1.06,1.81a1.8,1.8,0,0,0,.42-.24Zm-21.72.56,3.65.94-3.5-1Z"/><path d="M576.51,668.35l-.49-.27c.16-.29.5-.38.93-.38-4.81-1.88-9.21,1.34-11.39,5a2,2,0,0,0-1.61,2.5,2.44,2.44,0,0,0,2.74,1.7,3.22,3.22,0,0,1,.89.21,20.82,20.82,0,0,0,7.34,2.38l-1.67-.69a6.16,6.16,0,0,0,2.22.09c-.16-.18-.33-.39-.48-.57,2.78,1,5.63-.26,6.4-2.88a5.58,5.58,0,0,0-3.62-6.62Z"/><path d="M569.94,662.75c1.62.37,3.2.81,4.79,1.29l.39.33-.71-1.79v.13c-.69,1.86-2.46,3-4.15,4l-.57.45a1.45,1.45,0,0,0-.24,1.11,1.77,1.77,0,0,0,1.91,1.44l1-.11c2.76.36,6.55-.55,6.83-4a5.89,5.89,0,0,0-.87-2.46,2.43,2.43,0,0,0-2.82-1.77,2.11,2.11,0,0,0-1.62,2.68l-.71-.07.33-.57c0,1.14-1,1.69-1.61,2.47l-1.12.63,1.67,2.57.51-.54c-.09-.11-.25-.26-.24-.27a18.92,18.92,0,0,1,3-3l1.31-1.48a1.45,1.45,0,0,0-.71-1.8l-1-.4c.15.09.3.18.46.26-1.94-.15-3.87,0-5.8-.14a.55.55,0,0,0-.64.47A.6.6,0,0,0,569.94,662.75Z"/><path d="M575.85,660.62a1.38,1.38,0,0,0,1.07.12,1.92,1.92,0,0,0,.09-.27l-.7-.33C575.8,659.9,575.69,660.23,575.85,660.62Z"/><path d="M577,660.47l.3.14-.24-.23,0,0Z"/><path d="M483.14,699.81c-8.68,3.42-17.24,7.23-25.67,11.31-.28.14-.48.33-.43.44s.31.08.57-.06c8.45-4,17-7.82,25.65-11.22.28-.12.47-.31.45-.44S483.41,699.71,483.14,699.81Z"/><path d="M415.84,724.1c.14-.19.08-.27-.15-.19a1.49,1.49,0,0,0-.65.43c-.13.16-.05.25.15.19A1.68,1.68,0,0,0,415.84,724.1Z"/><path d="M413.27,716.7A33.11,33.11,0,0,0,416,714a1.58,1.58,0,0,1,.52-.36c-.15-.09,0-.35.34-.69,7-6.67,15.22-13.06,23.29-19.39a1.07,1.07,0,0,1,.13-.61,6.78,6.78,0,0,1,2.68-2.52l1-.51c3.89-2.24,7.76-4.47,11.7-6.56a15.63,15.63,0,0,1,2.44-2c3-2.57,6-5.15,9.16-7.63-.28,0-.5-.07-.58-.24-.15-.44.47-1.22,1.4-1.77l1.37-.87L465.29,673a4,4,0,0,1-.56.26c-1.47.88-2.93,1.79-4.39,2.77-6.4,4.25-12.36,8.75-18.06,13.36s-11.17,9.31-16.53,14.06a1.52,1.52,0,0,1-.67.43c-.16,0-.21-.11,0-.3,6.3-6.68,11.31-13.35,19.05-20.3,9.23-8.25,18.59-16.23,28.73-24,11.18-7,21.2-14.3,32.65-21.82,4.24-2.77,8.47-5.43,12.72-7.94,6.63-4.22,13.35-7.85,20.33-11.41,3.45-2.25,7.68-1.44,9.4,1.77a6.88,6.88,0,0,1-.07,6.29l.9-.35,1.56-.21a5.55,5.55,0,0,1,4.06,1.07l1.5,1c2.3,2.23,5.25,3.73,7.35,6.27l.15,1.2.37.23a5.66,5.66,0,0,1,2.64,2.43l.39,1.38a14.21,14.21,0,0,1,.26,4.81,5,5,0,0,1,.35,1.74,7,7,0,0,1,1.93,4.29,1,1,0,0,1,.35,1.37,1,1,0,0,1-.41.36h0c.31.29.41.37.79.68.38,0,.61,0,.61,0,1,0,1,0,1.84-.06a4.75,4.75,0,0,1,1.48.8c1.58,2.21,1.58,2.22,1.82,3.3a1.86,1.86,0,0,1,0,.34,8.5,8.5,0,0,1,1,.26,2.23,2.23,0,0,1,.42.32c.22.56.22.56.39.74a2.51,2.51,0,0,1,.17.42c-.11.73-.11.72-.06.91a1.78,1.78,0,0,1-.08.36l-.5.47-1.34-1.22v.55l-.43-.61.32.58-.55-.25.67.4a3.78,3.78,0,0,0-1.46.2,1.72,1.72,0,0,0-.78.32,2.39,2.39,0,0,1,.15.32c-1.14.07-1.14.08-2.26.12a3.17,3.17,0,0,1-.39-.32.45.45,0,0,1-.42.36l-.58.06-.09.12,0,0c-.14.17-.24.29-.36.42l-.07.1h0L568,663.37a5.56,5.56,0,0,1-1,0l.36.19c.24.14.27.71.38.73a40.35,40.35,0,0,0,7.92.13.92.92,0,0,1,1.15.45.78.78,0,0,1-.39,1.09c-3.91,4.23-10,5.42-15.88,4.76-1.42.14-2.83.32-4.25.52l.29.19-1.18-.07-.12,0,1.13.67.65.1c3.23-.57,6.58.05,9.9.15a42.73,42.73,0,0,1,5.26.87.82.82,0,0,1,.9.63.66.66,0,0,1-.58.8c-4.82,2-10.79,2.92-16,1a4.82,4.82,0,0,1-2.86-.06h-.05l.87.59c-.77,0-1.37-.49-2.11-.56l.64.95c-3.64.4-7.19,1.84-10.9,1.45a1.84,1.84,0,0,1-.4,0,18.36,18.36,0,0,1-1.67,1.63l-.46.36-.12.08-.22.12-.44.22a18.79,18.79,0,0,1-1.87.81l2.81-.58a26.88,26.88,0,0,1-5.65,2.63c-5.65,1.79-12.54,2.62-16.55,1.46-10.68,4.42-21.3,9.09-31.63,14.28-.53.27-1.11.33-1.32.15s.07-.58.6-.85c7.17-4.19,14.69-8,22.33-11.59-6.75,2.24-13.47,4.69-20.13,7.61l-2.48,1.26a18.25,18.25,0,0,1-2.56,1,259.15,259.15,0,0,0-24.54,12.55c-6.95,4.14-12.94,7.93-19.66,12.36-9.43,6.25-17.9,12.08-27.48,17.91-1.24.83-2.6,1.3-3,1s.29-1.15,1.53-2c9.54-6.75,19.05-13.39,28.9-19.73A301.61,301.61,0,0,1,469.11,701c2.39-1.13,4.72-2.27,7.07-3.35a.72.72,0,0,1-.19-.2,1.14,1.14,0,0,1,.15-1.1c-2.68,1.21-5.38,2.43-8.12,3.61-7,4.36-14,8.76-21.87,12.74-5.41,2.75-10.5,4.94-15.61,7.38-5.93,3.92-11.75,8-17.67,12a1.18,1.18,0,0,1-.63.29c-.14,0-.06-.17.17-.36,3.84-3.12,7.87-6.2,12-9.22-.85.17-1.48.1-1.66-.29s.12-1.07.77-1.82l-3,1.85c-.61.38-1.18.55-1.29.36s.27-.66.84-1q6-3.84,12.09-7.53c4.7-3.21,9.44-6.33,14.26-9.39a3.56,3.56,0,0,1-2.06-.19h0l-2.25,1.39c-13.1,9.53-26.64,18.89-40.41,28.23-.27.19-.53.29-.59.21s.1-.27.35-.43l12.4-8.49h0c-.2.07-.3,0-.15-.18a1.67,1.67,0,0,1,.64-.44c.24-.08.28,0,.16.18q11.48-7.93,22.63-16L415.71,723l-2.1,1.85a1.19,1.19,0,0,1-.64.28c-.11,0,0-.21.2-.37l.59-.52c-1.35.87-2.61,1.24-2.87.82s.7-1.58,2.08-2.52q5.44-3.93,11-7.65l1.16-.87,1.08-1q-8.9,5.44-17.57,11.1c-.48.34-1,.52-1.08.39s.19-.54.67-.89c9.49-7.65,19.4-15.05,29.62-22.1l8.95-9.06-1.35.84A141.75,141.75,0,0,0,430.08,705c-4.78,4-9.43,8.09-14.65,12-.25.21-.52.3-.6.25s0-.26.31-.46c5-3.91,9.38-7.9,14.32-11.95,4.08-3.37,8-6.52,11.74-9.81-8.25,5.71-15.59,12-23.41,18.09a2.93,2.93,0,0,1-1,.57.33.33,0,0,1-.13.25c-.86.92-1.85,1.87-2.88,2.79a1.09,1.09,0,0,1-.65.34C413,717.09,413.06,716.92,413.27,716.7Zm144.06-56.93.21.14-.6-.16-1.15-1Zm6.7-7.6h0l.65.61Zm-63.54,36a91.38,91.38,0,0,1,14.43-4.87l-3.33,1.53Zm64.28-25.34A13.45,13.45,0,0,1,562,661a4.35,4.35,0,0,1-1.48.68c-1.46.37-2.91.64-4.35.87.34.39,0,.44-.15.55l-.47.28c1.57-.17,3.15-.3,4.78-.39A30.17,30.17,0,0,1,564.77,662.8Zm9.55-4.88.19.13,0,.79S574.41,658.45,574.32,657.92Zm0-1.33-.25,0C574.08,656.26,574.18,656.34,574.34,656.59Zm-2.24-.31a1.75,1.75,0,0,0,.41.29Zm-8.6-20.22.48,3.79-.36-3.68Z"/><path d="M358.44,378.75v.51c-.3,0-.54-.16-.74-.49a6.24,6.24,0,0,0,3.44,4.83,10.69,10.69,0,0,0,6,.78,1.83,1.83,0,0,0,2.74-.31,2.35,2.35,0,0,0,0-3,2.84,2.84,0,0,1-.25-.78,16.85,16.85,0,0,0-1.52-6.62c.07.52.15,1.06.22,1.58a5.24,5.24,0,0,0-.93-1.63c-.08.22-.17.47-.26.68a3.64,3.64,0,0,0-5.11-3,5.9,5.9,0,0,0-3.81,6.29Z"/><path d="M356.92,386.89c-.47-1.47-.85-2.95-1.2-4.43l.09-.48-1.13,1.52.09-.08c1.86-.48,3.64.25,5.2,1l.64.16a1.59,1.59,0,0,0,1-.47,1.67,1.67,0,0,0,.24-2.23c-.2-.23-.38-.49-.57-.73-1-2.32-3.42-4.6-6.43-3a6.19,6.19,0,0,0-1.64,2,2.23,2.23,0,0,0-.14,3.11,2,2,0,0,0,3-.21l.27.58-.62.06c.92-.64,1.84-.16,2.76-.11l1,.51,1.3-2.73-.66-.08c-.05.13-.1.33-.11.33a16.44,16.44,0,0,1-3.84-.59l-1.85-.19a1.52,1.52,0,0,0-1.15,1.51l.12.94v-.49c.79,1.56,1.84,3,2.63,4.59a.48.48,0,0,0,.69.25A.63.63,0,0,0,356.92,386.89Z"/><path d="M352.36,383.45a1.11,1.11,0,0,0-.41-.89l-.27.07c0,.2,0,.46.06.72C351.79,383.87,352.12,383.78,352.36,383.45Z"/><path d="M351.68,382.63l0-.3c0,.11-.05.21-.07.31h0Z"/><path d="M478.9,424.61c1,0,1.92.11,2.89.12h8.72l5.83-.27,2.92-.14,2.92-.26,5.84-.53,5.84-.77,2.92-.4c1-.14,1.94-.33,2.91-.49l5.83-1c.52-.09.93-.28.93-.41s-.43-.12-.91,0l-5.82,1-2.9.5-2.91.39-5.82.76-5.83.52-2.9.25-2.91.14-5.81.26c-1.93,0-3.86,0-5.79,0s-3.86,0-5.77-.12c-.52,0-.94.08-1,.21S478.42,424.58,478.9,424.61Z"/><path d="M596.89,404.9c-.31.25-.24.34.15.2a4.54,4.54,0,0,0,1.2-.65c.26-.22.18-.32-.15-.21A4.29,4.29,0,0,0,596.89,404.9Z"/><path d="M597.61,413.6l-2.89,1.94c-.94.61-1.83,1.21-2.66,1.81a4.51,4.51,0,0,1-1,.52c.2.09-.14.44-.86.91-14.33,9.31-31.12,17.15-48.29,23.59a1.63,1.63,0,0,1-.62.66,19.8,19.8,0,0,1-6,2.48l-1.95.46c-2,.5-3.94.9-5.91,1.35s-3.92.92-5.91,1.27l-6,1.08-3,.53-3,.4A47.59,47.59,0,0,1,504.1,452c-3.4.89-6.85,1.61-10.33,2.42s-7,1.29-10.62,1.89c.46.11.75.27.75.47s-.5.5-1.17.7a13.06,13.06,0,0,1-2.58.37l-3,.2c2.86-.06,5.73,0,8.56-.24a11.28,11.28,0,0,1,1.14,0c3.11-.31,6.26-.56,9.42-1.11a213.52,213.52,0,0,0,39.38-9.9,263.27,263.27,0,0,0,35.42-15.57,4.39,4.39,0,0,1,1.31-.56c.26,0,.27.11-.13.36-1.71,1.08-3.42,2.08-5.12,3.07l-5.06,3c-3.39,1.94-6.78,3.84-10.27,5.74a171.43,171.43,0,0,1-23.35,10.37,242.44,242.44,0,0,1-67,13.81A333.06,333.06,0,0,1,425,465.16a238.76,238.76,0,0,1-36.92-6.7c-2.15-.5-4.24-1.2-6.35-1.81l-6.31-1.94-6.19-2.23c-2.06-.76-4.14-1.46-6.14-2.35l-1.52-.64-.75-.32-.29-.1-1-.39-2.06-.78c-1.36-.53-2.74-1-4.05-1.66-2.66-1.21-5.29-2.47-7.92-3.75s-5.16-2.82-7.77-4.27a8.35,8.35,0,0,1-4.4-4.2,6,6,0,0,1,0-5.28,6.47,6.47,0,0,1,5.34-3.31l-.83-.62-1.11-1.27a6,6,0,0,1-1.5-4.15v-1.87c.54-3.19.21-6.62,1.22-9.75l.94-.74v-.44a5.49,5.49,0,0,1,.65-3.52l1-1a14.47,14.47,0,0,1,3.91-2.72,5,5,0,0,1,1.28-1.2,7,7,0,0,1,2.6-3.86,1,1,0,0,1,1-1,1,1,0,0,1,.51.14h0c.09-.41.11-.53.18-1a5.08,5.08,0,0,1-.28-.51c-.52-.77-.52-.77-1-1.45a4.61,4.61,0,0,1-.06-1.6c1.08-2.42,1.09-2.41,1.87-3.18l.31-.15a8.33,8.33,0,0,1-.25-.88,2.13,2.13,0,0,1,.07-.5c.36-.46.36-.46.43-.69a2.66,2.66,0,0,1,.27-.35c.66-.29.66-.29.79-.43a1.6,1.6,0,0,1,.34-.13l.64.14-.39,1.68.47-.29-.31.66.33-.56.05.56,0-.73c.56.79.56.79.86,1a1.33,1.33,0,0,0,.64.43,3.45,3.45,0,0,1,.19-.29c.61.85.61.85,1.19,1.71,0,.17-.06.33-.09.48a.41.41,0,0,1,.5.14l.32.42h.14l0,0,.51.05h.12c.35,0,.85.1,2.24.16a5.84,5.84,0,0,1,.5.76,2.34,2.34,0,0,1,0-.38c0-.26.44-.61.4-.71a15.21,15.21,0,0,0-.82-1.61c-.27-.54-.58-1.06-.89-1.56-.63-1-1.31-2-1.95-3a.85.85,0,0,1,.91-1.41c5.23.72,9.1,4.4,11.53,9.17.84,1,1.72,1.87,2.61,2.79v-.33l.56.91.08.08c0-.42-.05-.84-.07-1.26-.08-.18-.16-.36-.25-.54a17.68,17.68,0,0,1-2.69-3.45c-.75-1.28-1.4-2.66-2.17-3.91a36.6,36.6,0,0,1-1.83-4.34.76.76,0,0,1,.09-1,.63.63,0,0,1,.92,0,18.59,18.59,0,0,1,5.3,4.51,15.35,15.35,0,0,1,3.37,6.45,3.88,3.88,0,0,1,1.42,2.14l0,0v-1c.4.56.35,1.29.69,1.86l.4-1.08c1.13,1.15,2.46,2.12,3.7,3.17A19,19,0,0,1,382,396a11.68,11.68,0,0,1,1.56,1.92c.09.08.17.17.25.25a17.41,17.41,0,0,1,2.17,0l.52.08.15,0,.35.15.71.32c1,.43,1.89,1,2.92,1.43-.66-.39-1.28-.82-1.9-1.25l-1.83-1.26c.66.24,1.48.6,2.2.91s1.49.64,2.25.95a48.39,48.39,0,0,1,4.57,2.17c8.36,4.32,17.78,9.72,22,13.8A204,204,0,0,0,445.76,422a200.55,200.55,0,0,0,28.55,2.18,3.13,3.13,0,0,1,2.05.44c.11.27-.54.51-1.53.54s-1.72.1-2.58.12h-7.78c-1.74,0-3.47-.15-5.2-.22s-3.48-.15-5.22-.31a189.39,189.39,0,0,1-20.75-2.94,168.08,168.08,0,0,0,35.2,5.94c1.55,0,3.1.12,4.66.1s3.07.06,4.6.18a187.72,187.72,0,0,0,46.12-5.14,240.28,240.28,0,0,0,37.41-12.44c8.86-3.8,17.13-7.86,25.29-12.12s16.07-8.9,24.29-13.85c2.13-1.4,4.32-2.38,4.83-2.17s-.81,1.53-3,3q-12.53,8.37-25.67,15.58a289.67,289.67,0,0,1-27.14,12.8,222.84,222.84,0,0,1-28.72,9.57A194.62,194.62,0,0,1,501,428.67c-2.23.26-4.45.35-6.64.53l-3.29.24c-1.09.06-2.19.07-3.27.1a.54.54,0,0,1,.12.27c0,.36-.36.7-1,1l3.75-.08,3.75-.21,3.78-.21,1.89-.09,1.9-.17c13.89-2.36,27.54-5.78,42.11-9.7,10-2.75,19.08-5.4,28.24-8.62a311.09,311.09,0,0,0,32.49-17.46,3.06,3.06,0,0,1,1.08-.52c.2,0,0,.2-.39.49-1.77,1.2-3.58,2.36-5.39,3.54l-2.73,1.77-2.79,1.69-5.65,3.37-5.8,3.19c1.39-.32,2.33-.33,2.44.12s-.68,1.32-2,2.33l5.46-2.67c1.13-.53,2.08-.83,2.16-.63s-.71.86-1.78,1.38c-3.71,1.84-7.4,3.72-11.18,5.38-1.89.83-3.75,1.74-5.66,2.52l-5.72,2.36A264.62,264.62,0,0,1,538.94,429a6.82,6.82,0,0,1,3.13.39h0l4.41-1.39a372.66,372.66,0,0,0,76-39.68c.47-.32.91-.52,1-.44s-.25.38-.68.66c-3.67,2.41-7.27,4.9-11,7.17-1.86,1.15-3.66,2.38-5.56,3.46l-5.62,3.35,0,0c.33-.12.45-.06.15.2a4.84,4.84,0,0,1-1.18.7c-.38.14-.4,0-.15-.2a385.91,385.91,0,0,1-43.25,21.41,336.53,336.53,0,0,0,40.41-18.42c1.35-.9,2.72-1.74,4.06-2.69a3.35,3.35,0,0,1,1.11-.5c.15,0-.08.26-.46.51l-1.12.78c2.43-1.39,4.52-2.13,4.75-1.66s-1.73,2.15-4.26,3.62c-6.8,3.94-13.66,7.73-20.76,11.06l-2.25,1.18-2.2,1.35A300.3,300.3,0,0,0,608,403.36c.88-.54,1.72-.88,1.84-.73s-.52.71-1.42,1.26a273.44,273.44,0,0,1-27.91,16.43,266.63,266.63,0,0,1-30,13.23c-3.25,1.63-6.57,3.17-9.9,4.79s-6.78,3-10.27,4.47c.92-.2,1.84-.45,2.75-.72A177.91,177.91,0,0,0,565,429.57c9.89-4.89,19.36-10.21,29.36-15.93a2,2,0,0,1,1.06-.42c.1,0-.2.33-.7.62-9.73,5.67-18.66,10.93-28.81,15.89l-6.26,3-6.23,2.74-3.08,1.37-3.09,1.27-6.12,2.56c2.12-.72,4.21-1.48,6.3-2.23l3.11-1.14L553.6,436l6.07-2.53,5.94-2.74,3-1.37,2.91-1.47L577.3,425l5.75-3.1,2.89-1.53c1-.52,1.9-1.08,2.86-1.62a8.31,8.31,0,0,1,1.83-.86c0-.06.13-.18.32-.32,1.8-1.28,3.84-2.53,5.85-3.91a3.5,3.5,0,0,1,1.18-.56C598.23,413.07,598,413.29,597.61,413.6ZM360.93,398.38v-.24c.07.17.13.35.21.55l-.22,1.5Zm-9.72-.94h0c.09-.49.16-.85.16-.85C351.3,396.94,351.25,397.21,351.21,397.44Zm93.09,28-6.24-1.22c-1-.19-2.06-.46-3.08-.73l-3.05-.82a113.15,113.15,0,0,1-11.91-4l5.89,1.45,2.25.78,2.27.68L435,423c1.53.49,3.08.87,4.63,1.26Zm-84.75-34.67a13.45,13.45,0,0,1,0,3.17,3.84,3.84,0,0,1,1.31.76c1,.95,2,1.86,3,2.82.13-.5.36-.27.52-.23l.48.19a41,41,0,0,1-2.85-3.4A27.72,27.72,0,0,1,359.55,390.81Zm-8.7-4.73c0-.07,0-.14,0-.22l.67-.39Zm-1.12.7.09.21C349.59,387.15,349.6,387,349.73,386.78Zm.83,1.93a1.59,1.59,0,0,0,.05-.48Zm-12.5,17.77,2.93-2.37-2.9,2.21Z"/><path d="M496.61,476.92l-.57-.28c.12-.18.48-.2,1-.11a10.3,10.3,0,0,0-7.08-.49,9.44,9.44,0,0,0-2.45,1.16,7.19,7.19,0,0,0-1.62,1.49c-1.15.11-1.56.73-1.14,1.3a2.45,2.45,0,0,0,1.11.73,4.33,4.33,0,0,0,1.62.29,5.81,5.81,0,0,1,.89.2c.6.24,1.18.47,1.8.69l1.94.66,2,.66,2.12.67c-.64-.29-1.29-.57-1.91-.82a19.86,19.86,0,0,0,2.44.62l-.58-.48c3.13,1.3,6.4,1.69,7.06.21s-1.79-4.52-5.11-5.89Z"/><path d="M488.87,472.36a25.36,25.36,0,0,1,2.57.46c.86.19,1.73.4,2.61.67l.47.28-1-1.41,0,.09c-.42,1.37-2.21,2.05-3.77,2.64l-.53.27a.64.64,0,0,0-.11.73,2.57,2.57,0,0,0,2.16,1.06l1.07,0c.71.12,1.55.23,2.36.29a11.35,11.35,0,0,0,2.27,0c1.42-.18,2.46-.7,2.33-2.05-.05-.61-.84-1.41-1.37-2.13a3.85,3.85,0,0,0-3.39-1.78c-1.31.1-1.86,1-1.33,1.92l-.76-.1.27-.4c.2.85-.8,1.17-1.36,1.68l-1.06.39,2.06,1.86.46-.32-.29-.21a15.17,15.17,0,0,1,2.78-1.82l1.25-.94c.19-.47-.29-1.15-1.07-1.51l-1.1-.41.54.25a51.46,51.46,0,0,0-6.11-.31c-.31,0-.57.13-.56.36S488.55,472.33,488.87,472.36Z"/><path d="M494.74,470.94a2.24,2.24,0,0,0,1.19.21,2.11,2.11,0,0,0,.05-.22l-.82-.33C494.57,470.36,494.51,470.62,494.74,470.94Z"/><path d="M496,470.93l.35.15-.3-.21,0,0Z"/><path d="M505.07,620.65c-1,24.83-2.15,49.81-3.7,74.78-.05.83,0,1.54.22,1.58s.33-.6.37-1.38c1.6-25,2.78-49.83,3.77-74.66a2.73,2.73,0,0,0-.3-1.64C505.24,619.28,505.09,619.87,505.07,620.65Z"/><path d="M482.41,806.88c-.06-.59-.16-.57-.26,0a10.75,10.75,0,0,0-.07,2.06c.05.5.17.48.26,0A10.43,10.43,0,0,0,482.41,806.88Z"/><path d="M474.19,801.45c-.28-3.5-.59-6.82-1-9.78a9.21,9.21,0,0,1-.05-1.64c-.18.21-.38-.46-.51-1.72-2.62-24.85-4.51-51.57-6.26-77.89a2.58,2.58,0,0,1-.64-1.12A29.16,29.16,0,0,1,464.6,700l.11-2.86c.18-11.55.39-23.07.8-34.56a70.65,70.65,0,0,1-.62-8.05c-.91-9.95-1.72-19.93-2.25-30.14-.21.64-.46,1-.73,1-.63-.2-1.09-2.57-1-5.33,0-1.39.07-2.77.16-4.16-.46,4-.54,8-.8,11.95a14.75,14.75,0,0,1-.12,1.59c-.09,4.37-.09,8.79,0,13.28.42,39.22,4,76.09,7.74,112.67a7.61,7.61,0,0,1,0,2.07c-.1.36-.27.29-.36-.38-3.5-23.07-8.23-43-11-69.14-1.62-15.52-3-31-4-46.49-.26-3.88-.52-7.77-.71-11.67l-.3-5.86c-.1-2-.23-3.92-.22-5.88a57.52,57.52,0,0,1,5.29-23.64c4-8.29,9-16.37,12.8-24.51,1-2.08,1.81-4,2.71-6.34l.63-1.67c.24-.64.48-1.17.68-1.63.42-.91.82-1.69,1.13-2.48a15.64,15.64,0,0,0,1.21-9.44,13.09,13.09,0,0,0-1.75-4.35c-.44-.69-.94-1.4-1.61-2.35a19.33,19.33,0,0,1-2.2-4,16.39,16.39,0,0,1-1.05-5.25,17.24,17.24,0,0,1,.56-5.16,23.67,23.67,0,0,1,4-7.76,13.46,13.46,0,0,0,1-1.58l0-.06h0s0,0,.09.06l.35.18a6,6,0,0,0,.73.32l.39.13a.88.88,0,0,1,.2.08,2.79,2.79,0,0,0,.66.17s0,0,0,0h-.21l-.29,0-.21,0,.1,0c.06,0,0,0-.4.18l-.3.17-.36.24c-.16.1-.31.21-.46.32l-.1.09h0a.81.81,0,0,0-.19-.3,1.72,1.72,0,0,0-.23-.26,14.83,14.83,0,0,0-1.14-1c-.8-.6-1.58-1.2-2.3-1.82a21.2,21.2,0,0,1-3.71-3.68,9.73,9.73,0,0,1-1.76-4.14,3.78,3.78,0,0,1-.13-1.21,8.52,8.52,0,0,1,0-1.24A10.38,10.38,0,0,1,466,504a6.41,6.41,0,0,1,.64-1.38,7.22,7.22,0,0,1,.85-1.27c.16-.2.27-.42.46-.62l.61-.58A16.47,16.47,0,0,1,470,499c.25-.18.51-.36.8-.53a6,6,0,0,1,.87-.49c.66-.28,1.32-.56,1.95-.87,1.33-.56,2.84-1,4.21-1.41l2.08-.7c.42-.15.63-.25.93-.37a9,9,0,0,0,1.34-.69,1.64,1.64,0,0,0,.28-.24h0l.08.1c.18.24.46.52.59.7a6.47,6.47,0,0,0,.5.56l.29.26.19.2a3.94,3.94,0,0,0,.45.36,3.54,3.54,0,0,0,.34.25c.09.07.28.14.31.17l.2.09c.13,0,.19,0,.11.05a1.11,1.11,0,0,0-.34.11,2,2,0,0,0-.6.34,4.37,4.37,0,0,0-.86.62l-.19.18-.28.24a6.51,6.51,0,0,0-.54.51c-.17.18-.33.36-.49.55a2.28,2.28,0,0,1-.28.31c-.08.09,0,0-.06.05l-.09,0c-.11,0-.22,0-.38-.07-.65-.16-1.64-.4-2.72-.58-.56-.1-1.08-.2-1.75-.28l-2-.07c-.67-.05-1.37-.2-2.06-.3A76.82,76.82,0,0,1,464,496.1l-1.67-1a4.41,4.41,0,0,0-.43-.25l-.55-.2-1.09-.39a7.92,7.92,0,0,1-1.05-.42l-.74-.56c-.49-.38-1-.75-1.44-1.13s-.93-.76-1.36-1.15l-.44-.39-.58-.52c-.79-.69-.48-1.59-1.35-2.26l-.5-.53a2.13,2.13,0,0,1-.43-.54l-.67-1.12-.54-1.15c-.18-.38-.49-.79-.73-1.19-.65-.8.08-1.59-.74-2.49l-.37-.66a3.58,3.58,0,0,1,0-.65l.06-.65c0-.1,0-.23-.09-.35l-.15-.37c-.18-.49-.57-1-.31-1.44L449,476l.09-.34a1.4,1.4,0,0,0-.07-.39c-.12-.52-.26-1.05-.36-1.58l.56-1.36.14-.34a1.27,1.27,0,0,0,0-.39v-.8c0-.53,0-1.06,0-1.6l.1-1.61,0-.41c0-.14.13-.21.19-.32l.49-.61,1-1.22a9.8,9.8,0,0,0,.56-1.46l.52-1.48,0-.1,0,0a.53.53,0,0,0-.06-.1l-.26-.42-.13-.2c0-.06,0-.08,0-.11l.08-.21.35-.8.35-.8.27-.71.54-1.32c.35-.85.73-1.73,1.11-2.56s.6-1.36.92-2a17.62,17.62,0,0,1,1-1.81,12.47,12.47,0,0,1,2.07-2.62c1.33-1.28,2.7-1.68,3.68-.95,1.19.9,1.55,3.11,1.13,5.54.22-.33.43-.66.64-1,.4-.45.81-.93,1.2-1.35,1.15-1.18,2.36-1.94,3.46-1.87H470c2.32.53,5.1.33,7.47,1.74l.38,1,.37.05a3.76,3.76,0,0,1,2.85,1.17l.65,1.14A12.06,12.06,0,0,1,483,458a3.87,3.87,0,0,1,.66,1.41,5.67,5.67,0,0,1,2.63,3.22.79.79,0,0,1,.58,1.07.86.86,0,0,1-.34.37h0c.35.19.45.24.89.45a5.12,5.12,0,0,1,.6-.05c1-.16,1-.15,1.84-.24a5.89,5.89,0,0,1,1.66.59c2,1.84,2.06,1.88,2.51,2.8,0,.1,0,.2,0,.29.78.17.85.2,1.07.26a3.51,3.51,0,0,1,.51.31c.34.49.34.49.55.66a3.39,3.39,0,0,1,.27.37c0,.6,0,.6.09.76a1,1,0,0,1,0,.29l-.46.33-1.65-1.12.08.46-.55-.53.44.49-.63-.24.78.37a4.51,4.51,0,0,0-1.54.07,1.75,1.75,0,0,0-.77.22l.21.25-2.33.07-.44-.24c0,.15-.16.26-.39.28l-.59.05-.06.09,0,0-.29.32-.06.07h0c-.21.21-.5.53-1.29,1.33-.34,0-.69,0-1,0l.37.1c.25.08.36.46.47.47,1.37.09,2.71.15,4.06.17s2.75.08,4.18.22a1.6,1.6,0,0,1,1.34.5c.3.37.16.7-.28.76a10.31,10.31,0,0,1-3.24,1.44,24.2,24.2,0,0,1-3.84.74c-2.69.31-5.46.42-8,.5-.56.08-1.14.21-1.69.33l-1.51.36.23.06c-.25,0-.61,0-.56.15v0h.2l.39.08h.47a17.82,17.82,0,0,1,3.89-.46c.76,0,1.46,0,2.24,0l2.38.12a14.85,14.85,0,0,1,2.68.36l2.76.61a1.37,1.37,0,0,1,1,.54c.14.26-.1.44-.53.4-1.25.14-2.45.16-3.77.24-.63,0-1.23,0-1.88,0l-1,0h-.89c-1.26,0-2.39-.08-3.51-.12l-1.58-.16a3.49,3.49,0,0,1-.37-.07c-.09,0-.28-.06-.31-.05l-.11.06a1.53,1.53,0,0,1-.84.31h0l.49.08c-.18.11-.6,0-.81.14l.62.2a1.53,1.53,0,0,0-.47,1.3c.05.47.22.84.25,1.2a.18.18,0,0,1,.05.08c.35.12.68.21,1,.3l.22.06.05,0,.17.09.35.16c.46.21.92.39,1.39.59a16.27,16.27,0,0,1-1.68-.91c.65.3,1.35.56,2,.79l.24.08.13,0,.06,0,.12.08,1.95,1.3c.68.46,1.38.9,2.14,1.46a22,22,0,0,1,2.48,2l.46.44a6.77,6.77,0,0,1,.51.55,10.63,10.63,0,0,1,1,1.36,6.6,6.6,0,0,1,.5.93,5.38,5.38,0,0,1,.42,1.1,9.15,9.15,0,0,1,.28,1.26,10.18,10.18,0,0,1,0,1.35,7.57,7.57,0,0,1-1.79,4.33,10.1,10.1,0,0,1-2.31,2,23.93,23.93,0,0,1-3.64,1.78c-.51.21-1.22.47-1.15.46a2.15,2.15,0,0,0-.36.11,10.1,10.1,0,0,0-1.47.54,1.7,1.7,0,0,0-.62.51,1.62,1.62,0,0,1-.1.18,1.15,1.15,0,0,1,0,.19.75.75,0,0,0,.1.36,4.86,4.86,0,0,0,1,1l.28.24.14.13.07.06v0l0,0c-.05,0,0,0,0,0l.17.14a15.24,15.24,0,0,1,2.66,2.62,12.28,12.28,0,0,1,2,3.71,11.59,11.59,0,0,1,.48,2c.06.7.1,1.39.09,2.06a13.59,13.59,0,0,1-.3,2,12,12,0,0,1-.57,1.72,11.8,11.8,0,0,1-.7,1.38c-.24.38-.48.75-.71,1.08a28.49,28.49,0,0,1-2.1,2.77c-.59.71-1.1,1.3-1.48,1.82a6.29,6.29,0,0,0-1.29,2.82,4.53,4.53,0,0,0,0,1.36,5.24,5.24,0,0,0,.63,1.7c.78,1.5,2,3.54,3,5.59a55.24,55.24,0,0,1,4.11,12.93c.44,2.24.71,4.55.95,6.72l.18,1.56c.08.53.16.84.26,1.32.2.9.44,1.79.66,2.67.51,1.91,1.05,3.85,1.67,5.77s1.29,3.89,2,5.84c1.39,3.88,3,7.81,4.42,11.7a99.35,99.35,0,0,1,6.27,23.36c.21,1.6,0,3-.29,3.31s-.71-.9-.89-2.5a98.86,98.86,0,0,0-3.91-16.79c-1.81-5.63-4-11.26-6-16.92-1-2.81-1.9-5.65-2.73-8.46-.4-1.39-.78-2.79-1.12-4.19l-.26-1-.22-1c-.15-.65-.29-1.31-.42-2-.25-1.15-.33-2.8-.51-4.39s-.37-3.23-.66-4.84A53.32,53.32,0,0,0,485.7,545a50.71,50.71,0,0,1,2.15,7.84,66.23,66.23,0,0,1,1,8c.05.66.08,1.28.15,1.86s.16,1.06.26,1.62c.2,1.12.39,2.15.65,3.37.51,2.37,1.05,4.71,1.71,7.11,2.51,9.54,5.88,19.2,7.53,28.89q.74,3.72,1.18,7.46a45.07,45.07,0,0,1,.24,7.33c-.1,12.38-.44,24.45-.7,36.58s-.52,24.33-.67,37c-.24,21.6-.67,40.49-1.64,62-1.42,30.2-3.95,57.7-9.73,87.51a44.11,44.11,0,0,1-2.06,8.09c-.35.48,0-2.4.64-6.38,2.48-15.54,4.13-31,5.39-46.52s2.1-31,2.73-46.59c1.27-31.18,1.81-62.73,2.85-95.24.21-7,.42-13.92.62-20.78a.66.66,0,0,1-.37.17c-.48,0-.92-.67-1.28-1.77q-.39,11.68-1,23.53c.5,21.93.65,43.9-1,67.27-1.16,16.05-2.9,30.58-4.54,45.42-.77,18.82-1.79,37.58-3.59,56.58a8.8,8.8,0,0,1-.28,1.82c-.1.28-.14-.13-.09-.9.85-13.07,1.38-26.46,1.76-40-.5,2.12-1,3.39-1.54,3.21s-.9-1.83-1.14-4.36l-.46,9.19c-.11,1.9-.38,3.39-.62,3.33s-.39-1.55-.31-3.35q.73-18.76,1.49-37.47c.14-15,.2-29.92.24-44.93a10.89,10.89,0,0,1-1.85,4.32h0c0,2.32,0,4.64-.08,7q.9,31.82.27,64.3t-2.9,65.28a8.24,8.24,0,0,1-.18,1.58,5.48,5.48,0,0,1,0-1.41q1.23-19.82,1.94-39.52v.06c-.08.53-.2.62-.25,0a11.91,11.91,0,0,1,.08-2.06c.09-.6.2-.55.25,0,.86-24.47,1.06-48.77.6-72.75q-.45,33.42-1.66,66.81c0,2.42.1,4.84.15,7.31a7.18,7.18,0,0,1-.18,1.81c-.09.19-.17-.3-.17-1s0-1.36,0-2c-.16,4.21-.64,7.45-1.11,7.38-.48-.24-.83-3.86-.78-8.24,0-11.72.05-23.39.08-35.07l-.1-3.79c-.1-1.28-.21-2.54-.32-3.81-.38,18.16-.73,36.28-.86,54.3a7.81,7.81,0,0,1-.27,2.89,7,7,0,0,1-.33-2.77c-1.1-31.76-2.38-63.92-3.13-96.21C473,715.67,471.49,705,470,694.18v4.13c.17,17.55,1.45,33.79,2.69,49.88s2.47,32,3.07,49a4.29,4.29,0,0,1-.13,1.67c-.1.09-.22-.49-.25-1.35-.72-16.59-2.11-31.74-3.3-48.21-1-13.64-1.92-26.61-3.15-39.29.83,25.91,3.05,50.77,4.4,76.43a16,16,0,0,1,0,3,1.52,1.52,0,0,1,.18.63c.41,3.21.74,6.71,1,10.29a7.07,7.07,0,0,1,0,1.9C474.39,802.63,474.28,802.21,474.19,801.45Zm2.5-329.2.2,0-.54.07-1.11-.27S475.93,472.13,476.69,472.25Zm4.86-6.89h0l.71.31ZM489,565c-.14-.8-.28-1.59-.36-2.36l-.2-2.7c-.14-1.89-.33-3.83-.65-5.73a49.36,49.36,0,0,0-3.1-11.05,48.19,48.19,0,0,0-2.48-5.1,13.31,13.31,0,0,1-1.74-3.74,4.31,4.31,0,0,1,0-1.35,6.67,6.67,0,0,1,.33-1.45,9.33,9.33,0,0,1,1.73-2.74,9.5,9.5,0,0,0-1.62,2.7,5.68,5.68,0,0,0-.27,2.67c0,1.12,1.68,3.53,2.95,6.15a49.18,49.18,0,0,1,3.09,8.12,52.17,52.17,0,0,1,1.62,8.6c.16,1.45.24,2.91.32,4.29,0,.67.07,1.38.15,1.91S488.85,564.4,489,565Zm-5.15-92.28A22.68,22.68,0,0,1,481,472a5.08,5.08,0,0,1-1.26.7c-1.2.53-2.44,1-3.54,1.53.34.12.07.24,0,.34a3,3,0,0,0-.33.28c.61-.26,1.24-.5,1.88-.71s1.36-.42,2.05-.6,1.32-.34,2-.49A11.5,11.5,0,0,1,483.8,472.71Zm8.87-4,.21.12.1.63Zm-.21-1.08-.26,0C492.13,467.33,492.25,467.39,492.46,467.6Zm-2.37-.21a3,3,0,0,0,.46.22Zm-11.92-15.24,1.18,3.19-1.05-3.13Z"/><path d="M575.44,521.62l-.41.3c-.22-.21-.2-.52,0-.87a6.1,6.1,0,0,0-1.82,5.6,10.51,10.51,0,0,0,2.93,5.24,1.82,1.82,0,0,0,1.89,2,2.36,2.36,0,0,0,2.45-1.78,3.19,3.19,0,0,1,.48-.66,17.18,17.18,0,0,0,4.43-5.13l-1.14,1.11a4.86,4.86,0,0,0,.74-1.71l-.7.2a3.59,3.59,0,0,0-.62-5.85,6,6,0,0,0-7.32.68Z"/><path d="M568,525.24c.9-1.25,1.86-2.43,2.85-3.59l.44-.21h-1.9l.12,0c1.51,1.2,2,3,2.3,4.75l.25.61a1.56,1.56,0,0,0,1,.55,1.68,1.68,0,0,0,1.93-1.15c.06-.29.14-.59.23-.88,1.29-2.15,1.67-5.45-1.44-6.88a6.55,6.55,0,0,0-2.56-.15,2.25,2.25,0,0,0-2.59,1.73,2,2,0,0,0,1.94,2.26c-.1.19-.2.38-.31.57l-.41-.47c1.07.36,1.22,1.38,1.74,2.14l.2,1.13,3-.57-.33-.58a3,3,0,0,1-.33.11,16.21,16.21,0,0,1-1.8-3.42l-.94-1.59a1.53,1.53,0,0,0-1.91,0l-.68.65.4-.29c-.79,1.56-1.32,3.24-2.14,4.83a.49.49,0,0,0,.22.7A.63.63,0,0,0,568,525.24Z"/><path d="M568,519.55c.25-.25.51-.48.48-.85l-.22-.18-.54.48C567.37,519.35,567.63,519.55,568,519.55Z"/><path d="M568.3,518.52l.23-.2-.29.13,0,0Z"/><path d="M609.15,641.33c1,1.55,2.14,3,3.21,4.5s2.16,3,3.34,4.44c2.35,2.87,4.61,5.84,7.14,8.58,1.25,1.39,2.47,2.81,3.74,4.18l3.91,4.05c.66.67,1.3,1.36,2,2l2,1.94,4.09,3.9c.38.33.76.54.86.46s-.14-.41-.49-.71a211.94,211.94,0,0,1-15.69-16.06c-2.52-2.74-4.78-5.68-7.11-8.55-1.18-1.42-2.21-3-3.32-4.43l-1.63-2.22c-.55-.74-1.08-1.49-1.58-2.26-.28-.41-.59-.68-.73-.65S608.89,640.94,609.15,641.33Z"/><path d="M691.31,721.05c-.37-.09-.4,0-.08.24a4.19,4.19,0,0,0,1.19.55c.31.07.35-.05.08-.25A4.16,4.16,0,0,0,691.31,721.05Z"/><path d="M684.89,726.87c-1.08-.39-2.13-.77-3.15-1.11s-2-.71-2.92-1a4.61,4.61,0,0,1-1-.47c0,.21-.41.16-1.19-.13-3.86-1.37-7.67-3-11.57-4.73-2-.82-3.84-1.8-5.78-2.71s-3.9-1.83-5.79-2.88l-5.76-3.06c-1.93-1-3.79-2.18-5.7-3.26-3.83-2.15-7.5-4.58-11.24-6.89a1.64,1.64,0,0,1-.88-.06,18.44,18.44,0,0,1-5.38-3.2l-1.46-1.24c-1.53-1.19-3-2.51-4.43-3.76s-2.93-2.53-4.37-3.82l-4.23-4c-1.41-1.32-2.82-2.64-4.14-4a44.65,44.65,0,0,1-4.25-3.41c-1.35-1-2.64-2.11-3.93-3.2l-3.89-3.31c-1.32-1.09-2.55-2.29-3.81-3.46l-3.78-3.59c.18.42.22.74.06.86-.44.19-1.84-.74-3-2.23L581.45,660l2.5,3.27c.85,1.08,1.73,2.11,2.6,3.17a10.75,10.75,0,0,1,.67.86l3,3.35c1,1.11,2.15,2.16,3.24,3.25a205,205,0,0,0,30.26,24.53,254.21,254.21,0,0,0,32.33,18.23,3.82,3.82,0,0,1,1.18.69c.16.19.06.28-.35.11-14.33-5.8-27.28-10.83-42.34-20.75a232.69,232.69,0,0,1-25.77-19.62,225.64,225.64,0,0,1-23.55-23.81,333.71,333.71,0,0,1-19.65-29.06c-1.46-2.53-3-5-4.42-7.62s-2.79-5.23-4.19-7.87-2.62-5.42-3.94-8.18c-.33-.7-.67-1.39-1-2.09s-.6-1.42-.91-2.13L529.36,592c-.41-1-.82-2-1.22-2.94s-.74-2-1.1-3l-2.15-6-.53-1.49-.46-1.52-.92-3c-.61-2-1.22-4-1.8-6.07l-.38-1.53-.19-.77-.08-.29-.31-1.06-.61-2.13L518.47,558a163.4,163.4,0,0,1-3-17.45,8.56,8.56,0,0,1,.71-6.07,6,6,0,0,1,4.22-3.18,6.44,6.44,0,0,1,5.84,2.31v-1l.36-1.65a6,6,0,0,1,2.43-3.71l1.5-1.12c2.84-1.47,5.43-3.79,8.53-4.85l1.16.31.34-.26a5.55,5.55,0,0,1,3.22-1.59l1.41.15a14.58,14.58,0,0,1,4.51,1.53,4.94,4.94,0,0,1,1.72.3,7,7,0,0,1,4.65-.21,1,1,0,0,1,1.38.18.87.87,0,0,1,.19.48h0a7.79,7.79,0,0,0,.91-.46,5.18,5.18,0,0,1,.25-.52c.3-.88.3-.88.59-1.64a4.76,4.76,0,0,1,1.25-1c2.58-.57,2.59-.56,3.67-.38a2.85,2.85,0,0,1,.3.16c.4-.55.44-.58.56-.73a3.22,3.22,0,0,1,.44-.24c.59,0,.59,0,.81-.06a2.3,2.3,0,0,1,.45,0c.63.35.63.35.82.37a1.88,1.88,0,0,1,.3.2l.27.59-1.58.69.51.2-.71.14.64-.06-.41.37.59-.42a3.41,3.41,0,0,0-.31,1.3,1.4,1.4,0,0,0,0,.77,1.71,1.71,0,0,1,.34,0c-.32,1-.32,1-.67,2a4.39,4.39,0,0,1-.44.21.4.4,0,0,1,.19.49l-.15.51.08.11h0c.1.18.18.3.26.44l.07.09h0c.17.3.46.74,1.22,1.88a4.28,4.28,0,0,1-.32.85l.29-.24c.21-.16.76,0,.81-.1a44.51,44.51,0,0,0,2.75-6.58.81.81,0,0,1,.8-.8.78.78,0,0,1,.88.69,13.42,13.42,0,0,1,1.6,7.25,15.25,15.25,0,0,1-.67,3.74,16.35,16.35,0,0,1-.66,1.85c-.22.61-.47,1.21-.75,1.81-.26,1.23-.48,2.48-.69,3.74l.27-.19-.4,1s0,.07,0,.11l1-.8.28-.53a17.42,17.42,0,0,1,1.18-4.2c.51-1.36,1.29-2.69,1.82-4.05a35.46,35.46,0,0,1,2.41-4,.75.75,0,0,1,.86-.53.62.62,0,0,1,.59.7,18.59,18.59,0,0,1-.49,6.89,14.61,14.61,0,0,1-3.16,6.53,4.17,4.17,0,0,1-.82,2.41v0l.78-.6c-.16.65-.81,1-1.06,1.66l1.1-.33c-.49,3.19,0,6.52-1.2,9.67,0,.12,0,.24-.06.35a16.9,16.9,0,0,1,1.25,1.74c.09.16.18.31.26.47a.81.81,0,0,1,.06.13l.08.36c0,.24.11.48.16.72.17,1,.46,2,.64,3q-.09-1.1-.18-2.16l-.06-2.12,1.18,4.45a47.7,47.7,0,0,1,.93,4.73c.83,4.42,1.35,9.22,1.81,13.59.09,1.1.16,2.17.2,3.21s.14,2,.16,3a26.46,26.46,0,0,1-.28,5,201.88,201.88,0,0,0,11,24.9,182.5,182.5,0,0,0,14.65,23.06,3,3,0,0,1,.81,1.85c-.15.24-.72-.12-1.3-.86-2.15-2.49-4-5.2-6-7.85-1-1.31-1.91-2.71-2.83-4.09l-2.75-4.16c-.88-1.41-1.71-2.86-2.57-4.29s-1.74-2.84-2.5-4.33l-2.34-4.43-1.17-2.21-1.07-2.27a159.74,159.74,0,0,0,15.55,30.35c.85,1.21,1.67,2.44,2.6,3.61a40.83,40.83,0,0,1,2.47,3.64l1.63,2.24,1.72,2.18q1.73,2.16,3.42,4.32c1.18,1.41,2.39,2.78,3.59,4.16s2.37,2.79,3.66,4.1,2.53,2.66,3.81,4,2.65,2.58,4,3.88,2.68,2.6,4.13,3.82l4.34,3.71c1.23,1.08,2.51,2.06,3.77,3l3.73,2.92c2.49,1.9,5,3.65,7.5,5.46s5.13,3.42,7.72,5.16,5.36,3.31,8.18,5c8,4.64,15.81,8.65,23.71,12.49s16,7.27,24.47,10.78c2.28.85,4.28,2,4.4,2.52s-1.65.28-4-.56c-9-3.24-17.91-6.83-26.59-10.84a278,278,0,0,1-25.31-13.51A215.26,215.26,0,0,1,640,680.76a182.2,182.2,0,0,1-21.48-20.08c-1.49-1.54-2.82-3.2-4.2-4.78s-2.77-3.16-4-4.83a.61.61,0,0,1-.14.25c-.27.24-.77.15-1.4-.19.74.93,1.44,1.9,2.21,2.82l2.3,2.76c1.54,1.85,3,3.75,4.68,5.53,9.76,9.29,20.18,17.8,31.49,26.76,7.81,6.11,15,11.6,22.7,16.82a299.13,299.13,0,0,0,31.93,15,2.9,2.9,0,0,1,1,.54c.13.15-.14.13-.6,0-1.93-.66-3.85-1.39-5.8-2.1l-2.91-1.09c-1-.37-1.93-.78-2.9-1.17L687,714.57l-5.77-2.63c1,.9,1.57,1.63,1.28,2s-1.41.26-3-.2l5.16,2.68c1,.57,1.83,1.12,1.71,1.31s-1.08,0-2.09-.56c-3.52-1.81-7.07-3.56-10.5-5.53-1.72-1-3.47-1.9-5.17-2.91l-5.08-3.05a250.22,250.22,0,0,1-23.89-15.39,6.35,6.35,0,0,1,1.45,2.67h0l3.58,2.6a365.87,365.87,0,0,0,73.9,35.72c.51.18.91.4.89.49s-.44,0-.9-.14c-3.94-1.45-7.91-2.8-11.79-4.38-1.94-.77-3.91-1.47-5.83-2.3l-5.77-2.42,0,0c.28.19.29.32-.07.24a4.55,4.55,0,0,1-1.21-.5c-.33-.22-.25-.31.07-.25a377.73,377.73,0,0,1-41.16-21,328.58,328.58,0,0,0,37.22,20.55c1.46.52,2.89,1.09,4.4,1.57a3,3,0,0,1,1,.57c.08.12-.25.1-.67,0l-1.23-.42c2.45,1.08,4.2,2.28,4,2.75s-2.64-.07-5.23-1.17c-6.91-3-13.74-6.1-20.35-9.64l-2.2-1.06-2.29-.91a286.79,286.79,0,0,0,31.27,15.64c.92.37,1.65.83,1.6,1s-.85,0-1.78-.35a265.36,265.36,0,0,1-28.59-12A250.55,250.55,0,0,1,642.66,702c-3.15-1.52-6.22-3.21-9.39-4.82s-6.21-3.46-9.36-5.27c.68.59,1.42,1.13,2.14,1.69,2.32,1.74,4.57,3.48,6.9,5s4.65,3,6.95,4.5,4.69,2.72,7,4,4.72,2.49,7.05,3.72c9.43,4.77,19,9,29.07,13.4a1.93,1.93,0,0,1,.93.58c0,.11-.37.05-.89-.18-9.92-4.22-19.08-8.05-28.72-13l-5.89-3.1c-1.92-1.06-3.8-2.15-5.69-3.2L640,703.86c-.94-.53-1.84-1.09-2.76-1.63L631.72,699c1.78,1.19,3.56,2.37,5.32,3.56.89.58,1.77,1.18,2.67,1.73l2.72,1.63c1.81,1.08,3.6,2.16,5.42,3.21l5.51,3,2.75,1.48,2.8,1.4,5.58,2.79,5.67,2.65,2.84,1.34,2.88,1.26a7.11,7.11,0,0,1,1.7.93.76.76,0,0,1,.44,0c2,.66,4.15,1.48,6.36,2.24a3.1,3.1,0,0,1,1.1.59C685.66,727,685.37,727,684.89,726.87ZM561.2,535.29l.19-.14-.32.49-1.33.73ZM556.14,527h0l.78-.38Zm32.43,88.5c-1.73-3.68-3.57-7.27-4.93-11.06-.7-1.89-1.47-3.74-2-5.65s-1.14-3.84-1.67-5.76q1.13,2.67,2.23,5.35c.93,2.87,2,5.69,3,8.58S587.44,612.57,588.57,615.45Zm-22.15-85.78a13.34,13.34,0,0,1-2.55,1.88,3.79,3.79,0,0,1,.16,1.5c-.16,1.39-.22,2.74-.44,4.08.47-.2.43.13.49.28l.13.5c.3-1.44.59-2.87,1-4.31A27.91,27.91,0,0,1,566.42,529.67ZM565,519.9l.19-.11.72.3Zm-1.22-.48-.12.2C563.42,519.53,563.53,519.47,563.81,519.42Zm-1.06,1.81a1.8,1.8,0,0,0,.42-.24Zm-21.72.56,3.65.94-3.5-1Z"/><path d="M576.51,668.35l-.49-.27c.16-.29.5-.38.93-.38-4.81-1.88-9.21,1.34-11.39,5a2,2,0,0,0-1.61,2.5,2.44,2.44,0,0,0,2.74,1.7,3.22,3.22,0,0,1,.89.21,20.82,20.82,0,0,0,7.34,2.38l-1.67-.69a6.16,6.16,0,0,0,2.22.09c-.16-.18-.33-.39-.48-.57,2.78,1,5.63-.26,6.4-2.88a5.58,5.58,0,0,0-3.62-6.62Z"/><path d="M569.94,662.75c1.62.37,3.2.81,4.79,1.29l.39.33-.71-1.79v.13c-.69,1.86-2.46,3-4.15,4l-.57.45a1.45,1.45,0,0,0-.24,1.11,1.77,1.77,0,0,0,1.91,1.44l1-.11c2.76.36,6.55-.55,6.83-4a5.89,5.89,0,0,0-.87-2.46,2.43,2.43,0,0,0-2.82-1.77,2.11,2.11,0,0,0-1.62,2.68l-.71-.07.33-.57c0,1.14-1,1.69-1.61,2.47l-1.12.63,1.67,2.57.51-.54c-.09-.11-.25-.26-.24-.27a18.92,18.92,0,0,1,3-3l1.31-1.48a1.45,1.45,0,0,0-.71-1.8l-1-.4c.15.09.3.18.46.26-1.94-.15-3.87,0-5.8-.14a.55.55,0,0,0-.64.47A.6.6,0,0,0,569.94,662.75Z"/><path d="M575.85,660.62a1.38,1.38,0,0,0,1.07.12,1.92,1.92,0,0,0,.09-.27l-.7-.33C575.8,659.9,575.69,660.23,575.85,660.62Z"/><path d="M577,660.47l.3.14-.24-.23,0,0Z"/><path d="M483.14,699.81c-8.68,3.42-17.24,7.23-25.67,11.31-.28.14-.48.33-.43.44s.31.08.57-.06c8.45-4,17-7.82,25.65-11.22.28-.12.47-.31.45-.44S483.41,699.71,483.14,699.81Z"/><path d="M415.84,724.1c.14-.19.08-.27-.15-.19a1.49,1.49,0,0,0-.65.43c-.13.16-.05.25.15.19A1.68,1.68,0,0,0,415.84,724.1Z"/><path d="M413.27,716.7A33.11,33.11,0,0,0,416,714a1.58,1.58,0,0,1,.52-.36c-.15-.09,0-.35.34-.69,7-6.67,15.22-13.06,23.29-19.39a1.07,1.07,0,0,1,.13-.61,6.78,6.78,0,0,1,2.68-2.52l1-.51c3.89-2.24,7.76-4.47,11.7-6.56a15.63,15.63,0,0,1,2.44-2c3-2.57,6-5.15,9.16-7.63-.28,0-.5-.07-.58-.24-.15-.44.47-1.22,1.4-1.77l1.37-.87L465.29,673a4,4,0,0,1-.56.26c-1.47.88-2.93,1.79-4.39,2.77-6.4,4.25-12.36,8.75-18.06,13.36s-11.17,9.31-16.53,14.06a1.52,1.52,0,0,1-.67.43c-.16,0-.21-.11,0-.3,6.3-6.68,11.31-13.35,19.05-20.3,9.23-8.25,18.59-16.23,28.73-24,11.18-7,21.2-14.3,32.65-21.82,4.24-2.77,8.47-5.43,12.72-7.94,6.63-4.22,13.35-7.85,20.33-11.41,3.45-2.25,7.68-1.44,9.4,1.77a6.88,6.88,0,0,1-.07,6.29l.9-.35,1.56-.21a5.55,5.55,0,0,1,4.06,1.07l1.5,1c2.3,2.23,5.25,3.73,7.35,6.27l.15,1.2.37.23a5.66,5.66,0,0,1,2.64,2.43l.39,1.38a14.21,14.21,0,0,1,.26,4.81,5,5,0,0,1,.35,1.74,7,7,0,0,1,1.93,4.29,1,1,0,0,1,.35,1.37,1,1,0,0,1-.41.36h0c.31.29.41.37.79.68.38,0,.61,0,.61,0,1,0,1,0,1.84-.06a4.75,4.75,0,0,1,1.48.8c1.58,2.21,1.58,2.22,1.82,3.3a1.86,1.86,0,0,1,0,.34,8.5,8.5,0,0,1,1,.26,2.23,2.23,0,0,1,.42.32c.22.56.22.56.39.74a2.51,2.51,0,0,1,.17.42c-.11.73-.11.72-.06.91a1.78,1.78,0,0,1-.08.36l-.5.47-1.34-1.22v.55l-.43-.61.32.58-.55-.25.67.4a3.78,3.78,0,0,0-1.46.2,1.72,1.72,0,0,0-.78.32,2.39,2.39,0,0,1,.15.32c-1.14.07-1.14.08-2.26.12a3.17,3.17,0,0,1-.39-.32.45.45,0,0,1-.42.36l-.58.06-.09.12,0,0c-.14.17-.24.29-.36.42l-.07.1h0L568,663.37a5.56,5.56,0,0,1-1,0l.36.19c.24.14.27.71.38.73a40.35,40.35,0,0,0,7.92.13.92.92,0,0,1,1.15.45.78.78,0,0,1-.39,1.09c-3.91,4.23-10,5.42-15.88,4.76-1.42.14-2.83.32-4.25.52l.29.19-1.18-.07-.12,0,1.13.67.65.1c3.23-.57,6.58.05,9.9.15a42.73,42.73,0,0,1,5.26.87.82.82,0,0,1,.9.63.66.66,0,0,1-.58.8c-4.82,2-10.79,2.92-16,1a4.82,4.82,0,0,1-2.86-.06h-.05l.87.59c-.77,0-1.37-.49-2.11-.56l.64.95c-3.64.4-7.19,1.84-10.9,1.45a1.84,1.84,0,0,1-.4,0,18.36,18.36,0,0,1-1.67,1.63l-.46.36-.12.08-.22.12-.44.22a18.79,18.79,0,0,1-1.87.81l2.81-.58a26.88,26.88,0,0,1-5.65,2.63c-5.65,1.79-12.54,2.62-16.55,1.46-10.68,4.42-21.3,9.09-31.63,14.28-.53.27-1.11.33-1.32.15s.07-.58.6-.85c7.17-4.19,14.69-8,22.33-11.59-6.75,2.24-13.47,4.69-20.13,7.61l-2.48,1.26a18.25,18.25,0,0,1-2.56,1,259.15,259.15,0,0,0-24.54,12.55c-6.95,4.14-12.94,7.93-19.66,12.36-9.43,6.25-17.9,12.08-27.48,17.91-1.24.83-2.6,1.3-3,1s.29-1.15,1.53-2c9.54-6.75,19.05-13.39,28.9-19.73A301.61,301.61,0,0,1,469.11,701c2.39-1.13,4.72-2.27,7.07-3.35a.72.72,0,0,1-.19-.2,1.14,1.14,0,0,1,.15-1.1c-2.68,1.21-5.38,2.43-8.12,3.61-7,4.36-14,8.76-21.87,12.74-5.41,2.75-10.5,4.94-15.61,7.38-5.93,3.92-11.75,8-17.67,12a1.18,1.18,0,0,1-.63.29c-.14,0-.06-.17.17-.36,3.84-3.12,7.87-6.2,12-9.22-.85.17-1.48.1-1.66-.29s.12-1.07.77-1.82l-3,1.85c-.61.38-1.18.55-1.29.36s.27-.66.84-1q6-3.84,12.09-7.53c4.7-3.21,9.44-6.33,14.26-9.39a3.56,3.56,0,0,1-2.06-.19h0l-2.25,1.39c-13.1,9.53-26.64,18.89-40.41,28.23-.27.19-.53.29-.59.21s.1-.27.35-.43l12.4-8.49h0c-.2.07-.3,0-.15-.18a1.67,1.67,0,0,1,.64-.44c.24-.08.28,0,.16.18q11.48-7.93,22.63-16L415.71,723l-2.1,1.85a1.19,1.19,0,0,1-.64.28c-.11,0,0-.21.2-.37l.59-.52c-1.35.87-2.61,1.24-2.87.82s.7-1.58,2.08-2.52q5.44-3.93,11-7.65l1.16-.87,1.08-1q-8.9,5.44-17.57,11.1c-.48.34-1,.52-1.08.39s.19-.54.67-.89c9.49-7.65,19.4-15.05,29.62-22.1l8.95-9.06-1.35.84A141.75,141.75,0,0,0,430.08,705c-4.78,4-9.43,8.09-14.65,12-.25.21-.52.3-.6.25s0-.26.31-.46c5-3.91,9.38-7.9,14.32-11.95,4.08-3.37,8-6.52,11.74-9.81-8.25,5.71-15.59,12-23.41,18.09a2.93,2.93,0,0,1-1,.57.33.33,0,0,1-.13.25c-.86.92-1.85,1.87-2.88,2.79a1.09,1.09,0,0,1-.65.34C413,717.09,413.06,716.92,413.27,716.7Zm144.06-56.93.21.14-.6-.16-1.15-1Zm6.7-7.6h0l.65.61Zm-63.54,36a91.38,91.38,0,0,1,14.43-4.87l-3.33,1.53Zm64.28-25.34A13.45,13.45,0,0,1,562,661a4.35,4.35,0,0,1-1.48.68c-1.46.37-2.91.64-4.35.87.34.39,0,.44-.15.55l-.47.28c1.57-.17,3.15-.3,4.78-.39A30.17,30.17,0,0,1,564.77,662.8Zm9.55-4.88.19.13,0,.79S574.41,658.45,574.32,657.92Zm0-1.33-.25,0C574.08,656.26,574.18,656.34,574.34,656.59Zm-2.24-.31a1.75,1.75,0,0,0,.41.29Zm-8.6-20.22.48,3.79-.36-3.68Z"/><path d="M425.08,79.2l.62-.13a1.64,1.64,0,0,1-.78,1.09A11.92,11.92,0,0,0,428.75,78a14.36,14.36,0,0,0,2.93-3.19A18.85,18.85,0,0,0,433.82,71a22,22,0,0,0,1.37-4c1.25-1,1.77-2.57,1.07-3.63s-2.36-1.1-3.7-.07a5,5,0,0,1-1.11.38,22.1,22.1,0,0,0-9.33,3c.72-.22,1.46-.44,2.19-.63a9,9,0,0,0-2.57,1.7l.76.2a9.1,9.1,0,0,0-4.39,3.47,7.31,7.31,0,0,0-1.4,5c.43,3.28,3.59,4.6,6.85,3.24Z"/><path d="M434.28,79.86l-2.7,1-2.7,1-.55,0,1.56,1.16-.08-.11a7.73,7.73,0,0,1,.63-3.44,21.76,21.76,0,0,1,1.83-3.3c.14-.27.27-.56.41-.82a1.57,1.57,0,0,0-.18-1.27,1.75,1.75,0,0,0-2.62-.12l-1.06.87c-3.13,1.59-6.62,5.7-5.15,9.14.34.78,1.33,1.08,2.08,1.56a2.6,2.6,0,0,0,3.61-.52,2.71,2.71,0,0,0,.32-3.69l.74-.43c0,.25-.05.52-.07.78-.55-1.07.22-2.33.53-3.51l.9-1.39L429,75.48l-.31.9.37.08a42.6,42.6,0,0,1-1.69,5.12c-.22.79-.4,1.6-.58,2.41a1.23,1.23,0,0,0,1.58,1.12l1.11-.35-.57.1c.95-.66,1.93-1.32,2.87-2A26.48,26.48,0,0,1,434.64,81a.76.76,0,0,0,.44-.87A.55.55,0,0,0,434.28,79.86Z"/><path d="M429.44,86a1.79,1.79,0,0,0-1.09.68c0,.18,0,.27.06.32l.84-.23C429.85,86.57,429.79,86.19,429.44,86Z"/><path d="M428.41,87l-.36.1.35,0,0-.06Z"/><path d="M463.53,237.33c-4.79,2.88-9.32,5.94-13.72,9.08-2.12,1.63-4.31,3.21-6.39,4.86l-1.49,1.29-.51.44-.26.24c-.18.16-.33.31-.54.48l-.63.5a26.72,26.72,0,0,0-4.34,4.84,5.45,5.45,0,0,0-.9,3.12,4.12,4.12,0,0,0,1.5,2.81,13.1,13.1,0,0,0,2.72,1.8c1,.52,2,1,3,1.43l1.55.62c.52.2,1.15.4,1.72.6.3.12,1.93.59,3.08.94l1.86.56,1.9.48a131.4,131.4,0,0,0,31.75,3.87,9.25,9.25,0,0,0,2.76-.24,6.66,6.66,0,0,0-2.42-.21A150.84,150.84,0,0,1,468,273.9a123,123,0,0,1-15.53-2.85c-1.25-.32-2.52-.63-3.74-1l-1.84-.56-.92-.27-.46-.15-1.66-.58-1.47-.58c-1-.43-1.92-.86-2.83-1.36a12.88,12.88,0,0,1-2.61-1.67,4.09,4.09,0,0,1-1.52-2.61,4.81,4.81,0,0,1,.75-3,23.42,23.42,0,0,1,4.08-4.62c.36-.34.84-.65,1.12-.94l.49-.45,1.48-1.27c.95-.87,2.09-1.63,3.14-2.45l3.19-2.41,1.6-1.2L453,244.8l3.38-2.29c2.2-1.56,4.62-3,7-4.44a10.21,10.21,0,0,0,2.34-1.77C465.66,236.14,464.71,236.6,463.53,237.33Z"/><path d="M689.06,230.89c-1.18.09-1.13.2.09.26,1.05,0,2.93.11,4.11.07,1,0,1-.13-.09-.26A26.06,26.06,0,0,0,689.06,230.89Z"/><path d="M679.54,239.68A117,117,0,0,0,662,244.1c-1,.31-2.11.61-3,.81.41.05-.75.55-3,1.29-22.18,7.28-44.37,17.46-67.52,27.36-11.59,4.95-23.45,9.79-35.67,14.07a287.92,287.92,0,0,1-37.77,10.57,9.53,9.53,0,0,1-2.12.85,61.62,61.62,0,0,1-7.68,1.77c-1.62.27-3.38.53-5.2.77s-3.74.38-5.67.54l-5.84.25q-8.85.3-17.74-.23A159.67,159.67,0,0,1,453.12,300l-4.41-.84-4.4-1c-1.47-.32-2.92-.78-4.38-1.16l-2.2-.62-2.77-.92-2.77-.92-1.38-.47-1.38-.54L424,291.35l-5.2-2.56c-.43-.22-.88-.42-1.29-.66l-1.18-.74-2.36-1.47a33.8,33.8,0,0,1-7.79-5.59,26.49,26.49,0,0,1-3.33-3.79,24.91,24.91,0,0,1-1.42-2.23c-.42-.79-.79-1.63-1.15-2.49a21.09,21.09,0,0,1-1.18-4.56,21.58,21.58,0,0,1-.08-4.68,25.45,25.45,0,0,1,.82-4.53c.17-.75.43-1.47.66-2.2s.54-1.45.86-2.16a35,35,0,0,1,2.09-4.21c.41-.69.8-1.38,1.24-2.06.22-.34.43-.68.67-1l.8-1,6.45-7.93a71.5,71.5,0,0,1,7.35-7.73l3-2.91c.95-.9,1.95-1.72,2.93-2.59,2-1.69,3.95-3.45,6-5.09l6.15-4.79c-1.15.65-1.9,1-2,.79s1-1.28,2.45-2.57,3.62-2.76,5.94-4.32l3.5-2.38,3.52-2.23c-6.83,4.12-13.61,8.68-20.25,13.5-1,.68-1.84,1.36-2.65,2l-5.33,4.36-1.33,1.09c-.44.38-.86.79-1.29,1.18l-3,2.78c-5.29,4.56-9,9.68-13.28,14.68l-1.71,2.05a25.42,25.42,0,0,0-1.41,2.14,41.2,41.2,0,0,0-2.36,4.37,38.23,38.23,0,0,0-1.78,4.5,35.07,35.07,0,0,0-1.1,4.66,27.85,27.85,0,0,0-.3,4.84,25,25,0,0,0,.7,4.86,24.12,24.12,0,0,0,4.18,8.55c7.21,9.84,21.8,15.8,35,19.77l1.25.39a5.15,5.15,0,0,0,.53.15l.46.12,1.87.46c1.24.3,2.48.64,3.72.89,2.49.5,5,1,7.45,1.41,5,.87,9.92,1.32,14.85,1.7a182.18,182.18,0,0,0,29.13-.58c19.17-2,37.29-6.72,54.52-12.67s33.59-13.1,49.62-20.19a34.09,34.09,0,0,1,3.69-1.47c.66-.17.6,0-.57.53-20,9.34-39,18.49-60,25.9q-7.89,2.79-16.25,5.14c-5.58,1.57-11.34,3-17.32,4.14a178,178,0,0,1-38.79,3.39,159.43,159.43,0,0,1-25-2.58l-3.14-.6-3.14-.72-1.57-.37a18.13,18.13,0,0,1-1.78-.47l-4.49-1.36c-3-.82-6-2-9-3.13l-2.27-.84c-.75-.3-1.44-.67-2.16-1l-4.28-2.06-1.07-.52a6.29,6.29,0,0,1-1-.55l-1.9-1.22-3.82-2.46-.95-.61-.86-.67c-.56-.46-1.14-.9-1.64-1.38a39.46,39.46,0,0,1-3-2.93,33.35,33.35,0,0,1-4.77-6.65,28.14,28.14,0,0,1-2.89-8,30.16,30.16,0,0,1-.46-8.51,20.55,20.55,0,0,1,.24-2.09c.09-.69.24-1.37.37-2.05a28,28,0,0,1,1.08-4.06c.45-1.33.94-2.66,1.51-4s1.28-2.61,2-3.9l1.13-1.94,1.47-1.85,2.94-3.73,5.93-7.47c1.11-1.22,2.15-2.46,3.33-3.66L414,223.4l2.58-2.5c.77-.77,1.56-1.46,2.35-2.14l4.77-4.14,2.4-2.05,2.44-1.92,4.9-3.82c.82-.65,1.64-1.26,2.46-1.84l2.48-1.78,5-3.56c13.3-9.17,26.76-17.11,39.73-24.93,13.73-7.84,26.56-15.41,37.88-23.5l4.09-3.08,2-1.54,1-.77,1-.8,3.8-3.17c.62-.53,1.28-1.06,1.88-1.58l1.7-1.56A73.08,73.08,0,0,0,547.57,126a26.74,26.74,0,0,0,4.6-10.55,9.82,9.82,0,0,0-.11-3.06,9.49,9.49,0,0,0-1-2.39,21.86,21.86,0,0,0-6-6.76,33.53,33.53,0,0,0-4.9-3.1,40.24,40.24,0,0,0-5.83-2.3A54.1,54.1,0,0,0,514.65,96a60.48,60.48,0,0,0-10.21,1.73c-1.64.43-3.24.93-4.79,1.48-.79.27-1.58.61-2.37.9l-2.32,1-2.28,1.11-1.12.6a.61.61,0,0,0-.17.12l-.5.34c-.33.22-.65.48-1,.71-.65.47-1.3.92-1.93,1.41-2.54,1.89-5,3.81-7.34,5.92a3.28,3.28,0,0,1-3.25,1.12,9.1,9.1,0,0,1-7.23-7.53l-.52.45-1.09.42a5.24,5.24,0,0,1-3.63-.09l-1.7-.53c-2.87-1.27-6-1.62-9-2.91l-.76-1-.41,0a6.51,6.51,0,0,1-3.45-.93l-1.06-1a13.55,13.55,0,0,1-2.72-4A5.1,5.1,0,0,1,444.62,94a6.89,6.89,0,0,1-3.87-2.76.94.94,0,0,1-1-1,1.17,1.17,0,0,1,.19-.57h0a9.52,9.52,0,0,0-1.07-.15l-.57.33c-.88.63-.9.61-1.65,1.18a5.34,5.34,0,0,1-1.75.24c-2.59-.91-2.6-.89-3.39-1.69,0-.11-.09-.22-.13-.33-.76.34-.81.37-1,.45a2.56,2.56,0,0,1-.56,0c-.5-.33-.5-.33-.75-.36a2.49,2.49,0,0,1-.38-.25c-.27-.73-.27-.74-.41-.86a1.85,1.85,0,0,1-.11-.38c.15-.51.21-.72.24-.8l1.89.13-.28-.51.71.25-.6-.3.65-.17-.83.12a6.93,6.93,0,0,0,1.29-1.23,2.37,2.37,0,0,0,.6-.84,2.15,2.15,0,0,1-.29-.19c1.08-.85,1.08-.85,2.15-1.66a3,3,0,0,1,.53.06.61.61,0,0,1,.26-.62l.55-.42c0-.06,0-.12,0-.17l0,0c.07-.25.12-.43.17-.63s0-.14,0-.14h0c.13-.42.28-1.07.8-2.72a7.93,7.93,0,0,1,1-.6c-.15,0-.3,0-.45,0-.3,0-.57-.53-.69-.49a35.86,35.86,0,0,0-8.12,5.3,1.09,1.09,0,0,1-1.35.46.9.9,0,0,1-.14-1.33A20.85,20.85,0,0,1,432.1,72a26.44,26.44,0,0,1,9.43-5.8l4.71-2.65-.38-.08,1.39-.46.13-.07-1.47-.21a6.66,6.66,0,0,0-.77.19c-3.56,2.18-7.58,3.33-11.33,5.42-2.05,1.07-4.1,1.76-6.17,2.75a.85.85,0,0,1-1.23,0,1,1,0,0,1,.32-1.26c4.57-5.7,11.59-10.59,18.27-11a6.48,6.48,0,0,1,3.44-1.25l.06,0-1.15-.27c.92-.35,1.74,0,2.63-.27l-.92-.8c2.16-1,4.32-2.17,6.49-3.21a21.33,21.33,0,0,1,6.74-2c.17-.06.33-.09.49-.13a19.72,19.72,0,0,1,2.06-2.23c.19-.17.38-.34.58-.5l.08-.07,0,0h0s0,0,.07,0l1.45-.71c1-.48,2-.9,3-1.34a101.06,101.06,0,0,1,12.78-4.59c-3.09.8-6.09,1.7-9.06,2.74-1.5.48-3,1.08-4.43,1.63-.74.28-1.48.56-2.21.88l-1.09.47-.55.23-.22.1h0l0,0,.26-.13.57-.28,1.15-.57c.76-.38,1.55-.71,2.32-1.07,1.56-.69,3.13-1.38,4.73-2l2.4-.93,2.45-.84,2.46-.83,2.52-.73a104.82,104.82,0,0,1,21-3.75,109.93,109.93,0,0,1,30.18,1.86,95.22,95.22,0,0,1,28.5,10.67,79.9,79.9,0,0,1,11.9,8.39c1.81,1.46,3.44,3.11,5,4.64.78.81,1.52,1.63,2.26,2.43s1.45,1.59,2.11,2.43a63,63,0,0,1,11,18.94,63.48,63.48,0,0,1,5.41,15.85q.36,2.14.66,4.29c.15,1.45.24,2.91.33,4.37s0,2.87,0,4.31l-.08,2.14-.23,2.11-.24,2.1-.14,1.05-.19,1c-.27,1.36-.55,2.72-.84,4.07a74.77,74.77,0,0,1-9.21,21.24l-1,1.55-1,1.48c-.68,1-1.35,2-2,2.92-1.42,1.85-2.83,3.72-4.32,5.43s-3,3.39-4.52,5-3.09,3.2-4.69,4.66c-3.16,3-6.45,5.83-9.75,8.46l-4.92,3.76c-1.64,1.24-3.27,2.53-4.95,3.64-13.31,9.4-27,17.13-40.32,24.39s-26.44,14-38.74,21.18c-2.52,1.5-4.85,2.67-5.45,2.69-.4-.08,1.12-1.28,3.61-2.8,8.75-5.28,17.92-10.39,27.31-15.54s19.08-10.47,28.75-16.18a286.24,286.24,0,0,0,28.81-19.17l3.52-2.73,1.76-1.37,1.76-1.48q1.77-1.45,3.48-3c1.16-1,2.3-2.09,3.43-3.17a116.93,116.93,0,0,0,12.83-14.39,108.5,108.5,0,0,1-10.88,12,146.52,146.52,0,0,1-11.76,10.09c-4,2.93-8,6-12.08,8.62-2,1.34-4.06,2.77-6.13,4l-6.18,3.8c-2.06,1.3-4.14,2.42-6.21,3.62s-4.15,2.42-6.22,3.53c-4.15,2.26-8.31,4.55-12.45,6.71L488.59,218.9l-6.13,3.38c-2,1.12-4,2.29-6,3.44l-11.76,6.69-7.08,4.5c-1.19.73-2.29,1.54-3.42,2.32l-3.36,2.35-1.69,1.17c-.55.39-1.06.82-1.6,1.23l-3.18,2.46c-1,.84-2.16,1.61-3.13,2.49l-1.48,1.3-.33.3-.18.16-.34.33c-.44.42-1,.87-1.5,1.32l-1.43,1.48a37.53,37.53,0,0,0-2.76,3,12.3,12.3,0,0,0-2,3.55,5.16,5.16,0,0,0,.18,4,7.82,7.82,0,0,0,2.85,2.89,29.45,29.45,0,0,0,3.64,1.93c1.25.57,2.51,1.11,3.81,1.56l1,.35,1,.33,1.05.33.26.08.35.1.94.27a109.28,109.28,0,0,0,15.5,3.34,140.47,140.47,0,0,0,16.32,1.35c4.74.08,9.42,0,14.05-.33s9.18-.78,13.75-1.5,9.06-1.49,13.54-2.48,8.94-2.08,13.39-3.31c17.82-4.89,35.4-11.68,54.42-19.36,13.37-5.38,26.64-10.82,40.18-15.67,6.77-2.42,13.6-4.7,20.53-6.76l5.21-1.5,5.25-1.4c3.55-.92,7.2-1.77,10.94-2.49a101.78,101.78,0,0,1,23.79-2A68.9,68.9,0,0,1,706,221.87a58.22,58.22,0,0,1,12.74,4.65,60.63,60.63,0,0,1,20.55,17.07,67.85,67.85,0,0,1,7,11.21A80.8,80.8,0,0,1,751,266.65,77.42,77.42,0,0,1,753.65,278a23.77,23.77,0,0,1,.48,5.67c-.15.51-.54-.64-1.14-2.94s-1.41-5.78-2.55-9.91a85.81,85.81,0,0,0-4.37-12.13c-.45-1-.94-2-1.43-3s-1-2-1.62-3a62.13,62.13,0,0,0-3.69-5.69,59.78,59.78,0,0,0-20.62-18,56.58,56.58,0,0,0-13.11-4.85,67.2,67.2,0,0,0-13.33-1.69A104.62,104.62,0,0,0,667.42,225c-3.92.83-7.75,1.8-11.45,2.83s-7.42,2.1-11.09,3.24c-7.34,2.28-14.56,4.79-21.67,7.43-14.24,5.27-28.1,11-41.88,16.48s-27.51,10.62-41.44,14.76a224.71,224.71,0,0,1-42.2,8.62,146.79,146.79,0,0,1-42.26-1.86c-3.43-.67-6.8-1.54-10.13-2.52l-.62-.17-.44-.14-.79-.25-1.57-.51c-1-.36-2-.72-2.94-1.11a55.52,55.52,0,0,1-5.67-2.71c-1.78-1-3.62-2.29-4.52-4.23a6.26,6.26,0,0,1,.23-5.25,18,18,0,0,1,3-4.44c1.23-1.3,2.49-2.56,3.72-3.84.67-.59,1.35-1.16,1.94-1.72l.46-.42.78-.68,1.69-1.49c-.18,0-.35.06-.41,0-.26-.3.44-1.28,1.8-2.71l-2.07,1.6c-.67.55-1.31,1.13-2,1.69l-1.41,1.25c-.39.35-.77.7-1.2,1.06a30.31,30.31,0,0,0-2.38,2.29l-2.35,2.37a19.31,19.31,0,0,0-3.78,5.54,7.46,7.46,0,0,0-.6,3.29,6.11,6.11,0,0,0,1.11,3.14,13.14,13.14,0,0,0,3.71,3c1.37.8,2.83,1.41,4.25,2.07a71.89,71.89,0,0,0,8.87,3.09,135.18,135.18,0,0,0,14.06,3.16q7.25,1.13,14.68,1.58t15,.13q7.57-.3,15.22-1.22a244.84,244.84,0,0,0,31-6c28.78-7.42,54.44-18,81.59-27.55,8.51-3.26,17.11-6.43,25.88-9.27,4.38-1.45,8.81-2.76,13.27-4s9-2.43,13.66-3.41A117.94,117.94,0,0,1,683,225.91a73.86,73.86,0,0,1,15.21.2,60.87,60.87,0,0,1,7.77,1.44,53.24,53.24,0,0,1,21.25,11.12c.65.56,1.3,1.14,1.82,1.65a14.94,14.94,0,0,1,1.09,1.21c.36.5-.34-.09-1.6-1.25a53,53,0,0,0-19-11,62.48,62.48,0,0,0-21.44-2.76,109.19,109.19,0,0,0-20.44,2.84c-3.28.75-6.55,1.58-9.72,2.49s-6.36,1.83-9.52,2.82c4.1-.87,6.61-1.1,6.41-.58s-3.19,1.79-7.79,3.52c5.71-1.74,11.44-3.31,17.29-4.71,3.62-.85,6.57-1.21,6.5-1s-2.91,1-6.34,1.81c-23.69,5.7-46.19,14.56-68.43,23.34-13.3,5.43-26.51,10.8-39.93,15.48a289.11,289.11,0,0,1-40.95,11.34,47.93,47.93,0,0,1,8.32-.34h0q6.47-1.45,12.81-3.22c19.36-5.69,38.21-13.37,57.18-21.21s38.16-15.79,58.25-21.81c5-1.49,10.07-2.89,15.24-4.09a117,117,0,0,1,15.85-2.61,70.62,70.62,0,0,1,16.42.32,54.37,54.37,0,0,1,8.18,1.88,49.25,49.25,0,0,1,7.8,3.26,53.52,53.52,0,0,1,22.69,24,77,77,0,0,1,5.48,15.44c1.32,5.25,2.22,10.52,3,15.73a13.94,13.94,0,0,1,.31,3,10.17,10.17,0,0,1-.59-2.66,161.49,161.49,0,0,0-3.87-18.94,67.77,67.77,0,0,0-7.89-18.16,53.27,53.27,0,0,0-13.69-14.59,47.89,47.89,0,0,0-18.41-8.07l.11,0c1,.31,1.21.47,0,.27l-2.05-.33-2.06-.37c-1.21-.23-1.09-.33-.08-.27a62.25,62.25,0,0,0-9.23-.51,78.57,78.57,0,0,0-9.1.63,133.09,133.09,0,0,0-17.61,3.46,347.24,347.24,0,0,0-33.58,10.74c-21.93,8.13-43,17.67-64.4,25.76C584.33,264,603.92,255.5,624,248c10-3.73,20.21-7.2,30.55-10.11s20.9-5.48,31.85-5.93a63,63,0,0,1,14.48.5,20.33,20.33,0,0,1,3.53.9c.34.17-.64,0-2-.24-.67-.15-1.34-.23-2-.34s-1.34-.22-2-.27a38.85,38.85,0,0,1,10.14,2.8,19.73,19.73,0,0,1,2.74,1.43c.61.38.89.67.8.77a3.88,3.88,0,0,1-1.52-.26l-1.46-.43-1.88-.53a71.49,71.49,0,0,0-10.68-2,72.83,72.83,0,0,0-16.76.4A135.41,135.41,0,0,0,663.33,238q-8.12,2.12-16.12,4.65c-5.33,1.7-10.62,3.52-15.88,5.42q-3.39,1.27-6.77,2.6c-2.26.94-4.48,1.91-6.71,2.86,16.24-6.16,32.71-11.81,49.54-15.7a96.17,96.17,0,0,1,25.49-2.71,52.36,52.36,0,0,1,12.47,2.14,42.58,42.58,0,0,1,11.33,5.39c2.4,1.59,4.19,3.3,4.1,3.48s-1.92-1.2-4.28-2.79a43.14,43.14,0,0,0-9.79-4.67A47.67,47.67,0,0,0,696,236.54a79.34,79.34,0,0,0-22.09,1.63A216.64,216.64,0,0,0,652,244c-7.24,2.29-14.42,4.84-21.56,7.55C601.92,262.4,574,275.87,544,285.12q-7.28,2.61-14.75,4.83c-5,1.5-10,2.82-15.16,4a192.7,192.7,0,0,1-31.69,4.65c1.36,0,2.73-.05,4.11-.08s2.76-.08,4.13-.18c17.58-1,34-4.68,49.48-9.41a440.94,440.94,0,0,0,44.29-16.71c14.25-6.09,28.19-12.41,42.53-18.16,7.17-2.88,14.43-5.63,21.87-8.11,3.72-1.23,7.47-2.43,11.28-3.52s7.63-2.13,11.51-3a13.36,13.36,0,0,1,3.09-.44c.18.06-.85.35-2.43.68-3.78.82-7.49,1.79-11.18,2.87q-2.77.8-5.5,1.66c-1.82.55-3.63,1.15-5.43,1.75-7.19,2.41-14.23,5-21.2,7.85-14,5.6-27.71,11.81-42.28,18-24.13,10.29-47.89,19.42-72.64,24.58a259.16,259.16,0,0,0,36.72-9.77c11.81-4,23.25-8.57,34.49-13.3,22.49-9.45,44.34-19.47,67.38-26.83A51.39,51.39,0,0,1,658,245a4.89,4.89,0,0,1,1.11-.46,136.68,136.68,0,0,1,18.46-4.94,18.49,18.49,0,0,1,3.46-.39C681.64,239.26,680.9,239.45,679.54,239.68ZM448.36,76,448.1,76l.67-.1,1.52.57Zm-3.69,10.51h0l-.89-.24Zm110.08,93.57c2.82-2.15,5.65-4.21,8.46-6.44,1.41-1.15,2.82-2.29,4.2-3.51s2.75-2.43,4.1-3.7a110.56,110.56,0,0,0,15.14-17.2,73.43,73.43,0,0,0,11-22.77c.28-1.09.52-2.21.77-3.32l.36-1.68.25-1.72c.16-1.15.31-2.3.44-3.45l.17-3.52a54.64,54.64,0,0,0-1.44-14.17A54.23,54.23,0,0,1,600,112.44l-.07,3.46c0,1.15-.21,2.27-.32,3.41a60.68,60.68,0,0,1-1.14,6.67,68.08,68.08,0,0,1-7.7,18.15A91.58,91.58,0,0,1,580,158.56,126.1,126.1,0,0,1,567.7,170.3c-1.06.9-2.13,1.78-3.22,2.62s-2.15,1.71-3.24,2.47ZM439.55,76.67a12,12,0,0,1,3.55.27,5.88,5.88,0,0,1,1.29-1.44,38.86,38.86,0,0,1,4.31-2.87c-.49-.25-.13-.46,0-.63l.43-.49c-1.66.82-3.28,1.7-5,2.58C442.61,74.9,441.13,76,439.55,76.67Zm-7.32,10.65H432l-.37-.74Zm.66,1.22.24-.13C433.29,88.66,433.16,88.66,432.89,88.54Zm2.25-1.2a1.91,1.91,0,0,0-.53,0Zm17.76,13.28-2.35-3.05,2.2,3Z"/></svg>