<svg id="Layer_1" data-name="Layer 1" xmlns="http://www.w3.org/2000/svg" viewBox="0 0 1080 1010.88"><path d="M538.21,276.46l.45.67a2.83,2.83,0,0,1-1.52-.77,25.67,25.67,0,0,0,4.26,4.08,38.79,38.79,0,0,0,4.89,3,36.3,36.3,0,0,0,5,2.16,41.52,41.52,0,0,0,4.64,1.52c1.69,1.29,3.48,2,4,1.35s-.4-2.44-2.12-3.91a11.77,11.77,0,0,1-1-1.19,47.85,47.85,0,0,0-3.49-5c-1.34-1.63-2.81-3.39-4.44-5.15.58.8,1.17,1.64,1.74,2.44a22.56,22.56,0,0,0-2.95-2.91c.06.26.14.57.2.83a22.6,22.6,0,0,0-5.51-5,8.91,8.91,0,0,0-5.52-1.62c-3.06.47-3,4.31,0,7.92Z"/><path d="M542.63,286.29c-1.8-1.75-3.52-3.61-5.25-5.53l-.28-.58-.38,1.75.07-.09a8.77,8.77,0,0,1,4,.47,29.7,29.7,0,0,1,4.44,1.73l1.07.41a1.19,1.19,0,0,0,1.17-.2c.49-.55-.12-1.78-1.39-2.78-.48-.39-1-.75-1.45-1.11a33.69,33.69,0,0,0-2.9-2.41,20.69,20.69,0,0,0-3.33-2.12c-2.24-1.08-4.42-1.61-5.88-.67-.66.43-.5,1.58-.62,2.46-.47,1.13.63,2.92,2.44,4s3.63,1,4.1,0l.87.77-.86,0c.81-.65,2.55.13,4,.37l1.94.84-.23-3-1.08-.28c0,.15.13.39.12.39-2.08-.44-4-.91-6.2-1.57l-2.84-.45c-.84.12-1,.95-.37,1.83l1,1.18-.41-.61c1.22,1,2.48,1.87,3.73,2.86s2.5,1.92,3.67,2.88a1.32,1.32,0,0,0,1.18.37C543.09,287,543,286.62,542.63,286.29Z"/><path d="M533.39,281.74a3.51,3.51,0,0,0-1.32-1.13l-.32.09.7.9C532.94,282.24,533.32,282.14,533.39,281.74Z"/><path d="M531.75,280.7l-.28-.38.15.38c.07,0,.08,0,.08,0Z"/><path d="M663.78,329.39c-.81-2.83-1.7-5.73-2.75-8.74-.27-.75-.52-1.51-.81-2.27l-.91-2.44c-.62-1.72-1.29-3.41-2-5.08-2.72-6.7-5.73-12.9-9-19.34l-5.2-10.22-1.42-2.81-1.44-2.95-1.51-3.09-.79-1.66-.91-2c-1.11-2.5-2.09-4.87-3-7.23s-1.79-4.71-2.61-7c-1.65-4.69-3.12-9.38-4.46-14.12-.35-1.27-.84-2.28-1.12-2.26s-.19,1,.16,2.23q2,7.13,4.43,14.17c1.65,4.73,3.42,9.35,5.61,14.33l.89,1.95.83,1.76,1.5,3.11,1.45,3c.47,1,1,1.9,1.42,2.81l5.18,10.2c3.25,6.4,6.25,12.53,9,19.17,1.33,3.24,2.69,6.93,3.71,9.73q1.58,4.47,2.78,8.65c.25.75.6,1.34.85,1.42S664,330.11,663.78,329.39Z"/><path d="M676.6,84.52c-.41.73-.23.81.4.22a11,11,0,0,0,1.77-2.24c.34-.61.15-.73-.39-.22A11.06,11.06,0,0,0,676.6,84.52Z"/><path d="M684.23,98.75a84.73,84.73,0,0,0-5.14,11.47,9,9,0,0,1-.9,1.87c.39-.07.29.83-.25,2.33-1.44,3.65-2.48,7.45-3.67,11.18-.51,1.9-.94,3.81-1.43,5.7-.24.95-.5,1.89-.71,2.84l-.54,2.88c-.33,1.92-.76,3.81-1,5.74s-.59,3.82-.74,5.77l-.29,2.89c-.1,1-.14,2-.21,2.91-.15,1.94-.2,3.89-.26,5.83a167.12,167.12,0,0,0,5.75,46.59,2.93,2.93,0,0,1,1.23,1.11c1.51,1.92,3,6,4,10.37l.67,3.33A164.48,164.48,0,0,0,686.78,241c.59,1.53,1.21,3.06,1.78,4.4l.47,1,.56,1.22,1.16,2.51c1.6,3.39,3.26,7,4.92,10.83a65.31,65.31,0,0,1,5.66,10.45,169.85,169.85,0,0,1,8.94,20.77c.61,1.78,1.24,3.56,1.82,5.35l.84,2.69c.28.89.56,1.77.84,2.77a111.75,111.75,0,0,1,2.79,12c.13-1.11.35-1.81.7-1.87.86.15,2,4,2.18,8.71.13,2.39.19,4.8.14,7.23a118.19,118.19,0,0,0-.84-20.47c-.14-.95-.24-1.84-.32-2.64-.32-1.78-.68-3.55-1-5.3s-.75-3.27-1.13-4.91-.84-3.29-1.26-4.94l-1.41-5a165.26,165.26,0,0,0-7.94-21.17c-3.07-6.71-6.47-12.91-9.49-18.14-.69-1.23-1.39-2.45-2.09-3.67-.53-.91-1.14-2.05-1.72-3.19-1.19-2.29-2.35-4.72-3.46-7.18-2.23-4.93-4.23-10-6-15.18A200.8,200.8,0,0,1,674.61,186a150.63,150.63,0,0,1-2.35-31.92,5.23,5.23,0,0,1,.4-2.36c.26-.37.51-.24.5.54a107.61,107.61,0,0,0,2.2,19.61,164.12,164.12,0,0,0,4.94,18.5c1,3,2.09,6.07,3.19,9.12s2.36,6.1,3.64,9.19q3.81,9.25,8.55,18.95c1,1.91,1.93,3.79,2.92,5.59s2,3.56,3,5c.23.36.46.7.64.93.27.39.61.95.9,1.41l1.93,3c1.38,2.14,2.71,4.38,4.15,6.84s2.82,5,4.24,7.69,2.72,5.49,4,8.35a176.7,176.7,0,0,1,6.64,17.64c1,3,1.82,6,2.65,8.94l1.17,4.46c.4,1.61.81,3.28,1.17,5a110.93,110.93,0,0,1,2.64,21.36,108.89,108.89,0,0,1-1.92,23.18c-.39,2-.81,3.94-1.32,5.91-.26,1-.5,1.94-.8,3l-.95,3.1A93.24,93.24,0,0,1,722,370.93a91.62,91.62,0,0,1-14.9,20.56A97.13,97.13,0,0,1,689,406.12,104.32,104.32,0,0,1,649,420.77a80.44,80.44,0,0,1-20.8.42,71.28,71.28,0,0,1-10.31-1.88c-1.71-.47-3.39-.93-5.06-1.53l-1.24-.43-.63-.22-.77-.29c-1-.39-2-.78-3-1.21s-1.9-1-2.83-1.49-1.76-1.14-2.63-1.7a24.8,24.8,0,0,1-2.43-1.82l-1.16-1c-.37-.32-.71-.67-1.06-1a44.91,44.91,0,0,1-6.94-8.61,71,71,0,0,1-7.93-18.22c-.61-2.06-1.12-4.23-1.55-6.22s-.88-4-1.31-6c-.86-4-1.69-8.05-2.62-12a75.92,75.92,0,0,0-3.25-11,34.39,34.39,0,0,0-4.84-8c-.49-.48-.9-1-1.4-1.41l-1-.81a8.85,8.85,0,0,0-.76-.57,13.29,13.29,0,0,0-1.57-1,33.07,33.07,0,0,0-3.35-1.72l-1.78-.71c-.61-.22-1.27-.42-1.88-.62s-1.25-.38-1.92-.54-1.27-.33-2-.47c-1.42-.25-2.66-.56-4.16-.7l-2.13-.25-2.25-.16a14.05,14.05,0,0,1-1.63-.09c-.54-.05-1.07-.11-1.56-.2a9.29,9.29,0,0,1-2.5-.82c-1.46-.67-2.22-1.79-2-3.11.3-1.61,2-3.07,4.43-3.78l-1.17-.18-1.73-.54a8.47,8.47,0,0,1-1.14-.47,6.77,6.77,0,0,1-1-.54,4.33,4.33,0,0,1-1.39-1.41l-.9-1.36a23,23,0,0,0-2.06-3.8,14.18,14.18,0,0,1-1.85-4.15l.66-.94-.27-.37a4.56,4.56,0,0,1-1.42-3.25l.5-1.25a9.27,9.27,0,0,1,3.05-3.55,3,3,0,0,1,.81-1.41,4.24,4.24,0,0,1,.69-4.26c-.39-.57-.14-1.08.56-1.14a1.9,1.9,0,0,1,.76.11h0c-.18-.43-.23-.56-.49-1.08l-.73-.53c-1.27-.75-1.27-.75-2.37-1.44a7.14,7.14,0,0,1-1.3-1.78c-.45-2.86-.45-2.89,0-3.84a1.81,1.81,0,0,1,.29-.19c-.8-.77-.85-.84-1.06-1.06a3.08,3.08,0,0,1-.32-.62c.11-.59.11-.59,0-.87a1.72,1.72,0,0,1,.08-.45c.67-.38.67-.37.74-.55a1.27,1.27,0,0,1,.36-.16l1,.19c.86,2.07.87,2.08.87,2.08l.41-.35.11.79v-.67l.53.68-.57-.89a9.88,9.88,0,0,0,2,1.25,4.49,4.49,0,0,0,1.25.53,1.23,1.23,0,0,1,0-.33c1.53,1,1.53,1.08,3,2.14.1.2.18.38.25.55a1,1,0,0,1,.81.21l.79.52h.2v0l.77.12.16,0h0c.53.07,1.3.21,3.33.67.45.34.87.68,1.25,1-.11-.15-.21-.29-.31-.45s.2-.59.08-.71c-.76-.74-1.55-1.47-2.37-2.18s-1.66-1.35-2.52-2c-1.72-1.29-3.51-2.74-5.27-4-.68-.31-1.22-1-1.2-1.43s.63-.58,1.33-.25a27.77,27.77,0,0,1,6.35,2.17,39.55,39.55,0,0,1,6.33,3.65,66.3,66.3,0,0,1,11.33,9.84c.91.8,1.82,1.71,2.73,2.54s1.81,1.65,2.69,2.57l-.17-.39,1.29,1.53.15.15-.75-1.52-.66-.85c-1-1-2.07-2-3.07-3l-1.49-1.54-1.48-1.48c-1-1-2-2-3-3.07s-2-2-3-3-2.16-2.18-3.15-3.22-2-2.19-3.05-3.31c-.58-.47-.9-1.06-.71-1.34s.83-.09,1.4.38a74.39,74.39,0,0,1,11.81,9.15c.93.87,1.82,1.74,2.68,2.61s1.68,1.85,2.46,2.76,1.5,1.8,2.17,2.73,1.29,1.87,1.85,2.77a22.6,22.6,0,0,1,1.77,1.92,19,19,0,0,1,1.4,2l0,.06c-.17-.41-.32-.79-.48-1.2.86,1.08,1.11,1.91,1.84,2.92,0-.27.06-.57.08-.84,1,1.32,2.11,2.67,3.18,4s2.06,2.83,3,4.26a42,42,0,0,1,4.55,9.05l.28.68a31.39,31.39,0,0,1,2,3.59,9.66,9.66,0,0,1,.43,1l.11.3.36,1.09a22.7,22.7,0,0,1,.63,2.22c.18.75.38,1.51.53,2.25s.25,1.46.38,2.2.2,1.49.3,2.24.17,1.51.21,2.28a59,59,0,0,0-.69-6.21c-.14-1-.43-2.14-.66-3.23-.11-.55-.27-1.08-.43-1.63l-.42-1.44.51,1.54a17.25,17.25,0,0,1,.49,1.74c.29,1.18.59,2.36.76,3.46s.38,2.22.5,3.36.22,2.25.29,3.37a114,114,0,0,1-.4,12.76,50.86,50.86,0,0,0,1.3,15.71c.33,1.26.65,2.53,1.07,3.76l.6,1.85.66,1.73a47.86,47.86,0,0,0,3.11,6.43,35.15,35.15,0,0,0,7.67,9.31,24.17,24.17,0,0,0,6.83,4l.65.15c.22,0,.45,0,.66.07.45,0,.86.12,1.29.1s.85,0,1.26,0l1.61-.07a46.65,46.65,0,0,0,6.56-.81c1.09-.24,2.15-.42,3.22-.74l1.59-.42,1.58-.51c1-.3,2.08-.72,3.11-1.08s2-.82,3-1.25a61.45,61.45,0,0,0,11.25-6.52,54.49,54.49,0,0,0,9.24-8.59,48.9,48.9,0,0,0,6.63-9.8,41.16,41.16,0,0,0,3.54-10.07,31.25,31.25,0,0,0,.49-9.36l-.11-1.1-.15-1.23c-.11-.82-.22-1.63-.39-2.46-.29-1.64-.72-3.3-1.17-5a9.32,9.32,0,0,1-.34-1.87,1.43,1.43,0,0,1,.24-1.06c.39-.18,1.07.74,1.48,2.17a55.46,55.46,0,0,1,1.78,7.39,42,42,0,0,1,.6,7,37.42,37.42,0,0,1-3.56,14.84c-4.67,10.1-14.06,19.81-25.72,25.48a60.81,60.81,0,0,0,24.13-19.7,47,47,0,0,0,6.46-12.69,36.82,36.82,0,0,0,1.51-6.42c.2-1.05.23-2.13.34-3.17l0-1.57,0-.78v-.86a52.35,52.35,0,0,0-.81-7c-.41-2.38-.82-4.74-1.22-7.1-.77-3-1.65-6.11-2.68-9.22-.54-1.55-1-3.12-1.64-4.69l-1.92-5.06q-2-5.09-4.26-9.92c-1.51-3.23-3.07-6.39-4.71-9.56-3.28-6.36-7-12.71-11.12-20.69l-.79-1.51-.86-1.67c-.61-1.25-1.18-2.42-1.71-3.57-1.07-2.31-2.07-4.56-3-6.82-1.91-4.52-3.66-9.06-5.3-13.68q-2.1-5.93-3.83-11.77c-1.13-3.92-2.2-7.81-3.1-11.72s-1.7-7.82-2.41-11.75c-.34-2-.63-3.94-1-5.91s-.5-4-.73-6c-.4-4-.73-8-.91-12s-.19-8.14,0-12.28a155.48,155.48,0,0,1,7.53-43.17c1-2.85,2.09-5.67,3.15-8.47l.8-2.1.91-2,1.83-4a156.59,156.59,0,0,1,18-29.32,171.13,171.13,0,0,1,49.71-42.75c2.53-1.46,5.08-2.7,7.07-3.6a14.27,14.27,0,0,1,4-1.33c.92.07-2.53,2.28-7.47,5.25A176.81,176.81,0,0,0,655,87.6l-2.56,3.64c-.83,1.22-1.72,2.41-2.48,3.69-1.57,2.54-3.17,5.07-4.7,7.65l-4.24,8c-1.35,2.72-2.56,5.52-3.79,8.31l-.92,2.1-.8,2.16-1.6,4.33c-.51,1.45-1.1,2.87-1.53,4.36L631,136.28c-.46,1.48-.79,3-1.19,4.49s-.77,3-1.07,4.51l-.94,4.54-.76,4.56a163.36,163.36,0,0,0-1.5,36.66q.63,9.11,2.12,18.06c1,6,2.24,11.87,3.73,17.71s3.22,11.63,5.18,17.37,4.11,11.41,6.64,17.2c.63,1.45,1.29,2.9,2,4.44l.57,1.19.52,1,1,2c1.31,2.55,2.58,5.05,3.83,7.38,2.48,4.73,4.78,9.08,6.94,13.47a207.72,207.72,0,0,1,9.78,23,.83.83,0,0,1,.4-.33c.62-.21,1.52.44,2.41,1.49-1.49-4.49-3.13-9.09-4.88-13.49s-3.63-8.77-5.61-13.17c-3.32-5.85-7-11.67-10.8-18.51L648,267.21l-.36-.66-.42-.78-.79-1.55c-1-2-1.94-4-2.82-5.9-1.77-3.89-3.38-7.79-4.85-11.75A170.68,170.68,0,0,1,627.91,196a145.35,145.35,0,0,1,.18-18.1c.18-3,.54-5.89.88-8.8.19-1.45.44-2.89.66-4.33s.47-2.87.76-4.29a144.29,144.29,0,0,1,10.42-32.63,155.9,155.9,0,0,1,19.47-37.39A173.7,173.7,0,0,1,687.87,59.9a10.13,10.13,0,0,1,2.1-1.59c.4-.15,0,.33-.75,1.08a180.35,180.35,0,0,0-19.23,21A168.54,168.54,0,0,0,653.89,105c2.21-2.38,3.87-3.56,4.51-2.93s.15,3.08-1.14,6.47l3.37-5.65c.57-.93,1.1-1.89,1.71-2.8l1.82-2.72c1.53-2.22,3-3.8,3.3-3.5s-.53,2.25-1.93,4.36L663.71,101c-.59.93-1.13,1.89-1.69,2.84-1.11,1.91-2.26,3.8-3.34,5.74-2,4-4.14,7.85-5.82,12A141.89,141.89,0,0,0,644.35,147c-4.16,21.16-3.42,42.8.69,63.52.28-3,.89-5.29,1.82-6.45,0,0,0,0,0,0-.48-3.2-.89-6.39-1.21-9.59a146.54,146.54,0,0,1,.21-44.78,135.77,135.77,0,0,1,15-43l2.78-5,3-4.84c1-1.62,2-3.23,3.16-4.76l3.31-4.65A184.82,184.82,0,0,1,687.86,70,210.92,210.92,0,0,1,722.55,41.1a7.49,7.49,0,0,1,1.9-1.08,5.68,5.68,0,0,1-1.51,1.22,208,208,0,0,0-40.82,36l.06-.06c.57-.48.81-.46.37.22a12.35,12.35,0,0,1-1.87,2.17c-.65.56-.75.38-.39-.21-10.9,13.06-20.12,27.74-26.25,43.74-1.67,3.94-2.79,8.08-4.1,12.14-.61,2-1.07,4.14-1.6,6.2s-.88,4.17-1.28,6.26a141,141,0,0,0-2.11,25.2,141.12,141.12,0,0,1,9-45.67,151.89,151.89,0,0,1,10.06-21c1.85-3.39,4-6.59,6.11-9.82,1-1.63,2.22-3.14,3.33-4.71s2.22-3.14,3.45-4.62c1.88-2.77,3.7-5.58,5.8-8.25a8.18,8.18,0,0,1,1.81-1.76c.27-.11,0,.52-.62,1.26s-1.13,1.5-1.69,2.25a44.22,44.22,0,0,1,5.15-5.19c1.45-1.16,2.47-1.71,2.76-1.39s-.36,1.64-1.47,3.33a60,60,0,0,1-4.52,6.22c-9.56,12.62-17.8,26.24-23.51,40.93L659,129.31l-1,5.05a153.84,153.84,0,0,1,15.74-32.75A201.5,201.5,0,0,1,695.79,72.9c1.39-1.53,2.75-2.68,3-2.52s-.71,1.57-2.08,3.12c-13.49,16.32-24.44,34.79-30.91,54.52-6.67,19.65-8.18,40.52-6.1,61a184.11,184.11,0,0,0,14.15,38.39c-.46-1.63-.92-3.28-1.39-4.93a279.09,279.09,0,0,1-7-30.82,176.93,176.93,0,0,1-2.53-30.16,129.27,129.27,0,0,1,1-15.07c.11-1.26.36-2.5.54-3.75s.38-2.52.68-3.76c.55-2.49,1.06-5,1.68-7.52a125.35,125.35,0,0,1,12.11-29.62,3.67,3.67,0,0,1,1.36-1.71c.23,0,0,.72-.6,1.7a122.09,122.09,0,0,0-11.48,28.75l-.51,1.81-.38,1.84-.76,3.66c-.56,2.42-.9,4.89-1.27,7.35-.62,4.95-1.06,9.93-1.19,15A147.15,147.15,0,0,0,670.88,208c-3.44-15.49-5.41-30.9-5-46.34.06-1.93.18-3.85.28-5.78s.28-3.86.54-5.77.45-3.86.81-5.76l.48-2.87c.19-1,.42-1.91.63-2.86q.66-2.87,1.31-5.75l1.71-5.69c.52-1.92,1.26-3.78,2-5.67l1.06-2.83.53-1.41.62-1.39a14.84,14.84,0,0,1,1.79-3.29,1.54,1.54,0,0,1,.11-.85,57.08,57.08,0,0,1,2.36-6l1.37-3.09c.49-1,1-2,1.57-3.07a6.64,6.64,0,0,1,1.44-2C684.78,97.3,684.65,97.86,684.23,98.75ZM555.77,300l-.13-.24.57.64.52,1.42Zm-13.67-2.86h0l-.35-.87Zm115,82a60.44,60.44,0,0,1-19.34,12.54A56.58,56.58,0,0,1,615,396.1a48.71,48.71,0,0,0,11.3-1.34A66.38,66.38,0,0,0,657.1,379.18ZM549.18,291.44a20.19,20.19,0,0,1,2.06,3.51,15.51,15.51,0,0,1,2.31,1.21c1,.72,2,1.42,3,2.11s1.91,1.39,2.82,2.17c-.09-.47.35-.11.6,0l.75.45c-1.9-1.73-3.88-3.27-5.89-5C553,294.41,550.9,293,549.18,291.44Zm-15.76-6.55c0-.09-.09-.16-.14-.26l.61-.47Zm-1,.84.29.24C532.54,286.17,532.47,286,532.44,285.73Zm2.64,2.15a2.42,2.42,0,0,0-.3-.53Zm-3.88,19.65c.69-1,1.39-1.95,2.09-2.9-.72.9-1.44,1.81-2.15,2.75Z"/><path d="M380.32,213.25c.2-.07.41-.12.61-.18a1.73,1.73,0,0,1-.69,1.16,15.08,15.08,0,0,0,6.41-5.94,26.09,26.09,0,0,0,3.17-8.07c1.23-1.11,1.71-2.74,1-3.74s-2.44-.93-3.75.23a5.73,5.73,0,0,1-1.11.48,17.54,17.54,0,0,0-4.68,1.35,26.29,26.29,0,0,0-4.59,2.53l2.15-.84a11.21,11.21,0,0,0-2.5,1.94l.78.14c-3.49,1.58-5.95,5.79-5.28,9s3.88,4.24,7,2.6Z"/><path d="M389.49,213.09c-1.71.87-3.49,1.66-5.21,2.55l-.55,0,1.62,1-.08-.1c-.37-2.22.77-4.74,2-6.92l.37-.86a1.62,1.62,0,0,0-.25-1.26c-.55-.75-1.72-.7-2.62.12l-1,1c-3,1.89-6.24,6.29-4.51,9.58.4.75,1.39,1,2.17,1.36a2.58,2.58,0,0,0,3.53-.85A2.7,2.7,0,0,0,385,215c.23-.16.46-.34.7-.5,0,.26,0,.52,0,.78-.63-1,.1-2.31.32-3.53.26-.49.52-1,.8-1.47l-2.89-1.1-.25.93a2.29,2.29,0,0,1,.37,0,48.3,48.3,0,0,1-1.35,5.26c-.16.81-.31,1.62-.42,2.44a1.2,1.2,0,0,0,1.64,1c.36-.15.71-.3,1.08-.44l-.56.14c.92-.72,1.81-1.49,2.7-2.24s1.83-1.46,2.77-2.1a.8.8,0,0,0,.38-.9A.54.54,0,0,0,389.49,213.09Z"/><path d="M385.1,219.57a1.8,1.8,0,0,0-1,.78,3,3,0,0,0,.08.31l.81-.3C385.55,220.14,385.46,219.78,385.1,219.57Z"/><path d="M384.16,220.66l-.35.12h.35v-.11Z"/><path d="M417.38,356.85l-2.58,1.89c-.84.64-1.63,1.31-2.44,2-1.61,1.31-3.31,2.58-4.78,4l-2.28,2.05a27.52,27.52,0,0,0-2.22,2.08l-.51.51-.16.18-.33.37c-.21.24-.61.55-.87.85a23.38,23.38,0,0,0-3.1,4.07,6.27,6.27,0,0,0-.77,2.45,3.81,3.81,0,0,0,.64,2.44,11.79,11.79,0,0,0,4,3.14,28.69,28.69,0,0,0,4.82,2.07l.35.1.5.15,1.35.42c.91.26,1.85.47,2.77.72,1.87.43,3.76.84,5.7,1.12a85.42,85.42,0,0,0,11.84,1,5.13,5.13,0,0,0,2-.24,3.84,3.84,0,0,0-1.79-.2,86.27,86.27,0,0,1-11.79-1c-1.92-.28-3.8-.69-5.66-1.1l-2.76-.71c-.83-.26-2-.63-2.3-.7a27.81,27.81,0,0,1-4.58-2,11.8,11.8,0,0,1-3.86-2.94,3.52,3.52,0,0,1-.68-2.29,5.55,5.55,0,0,1,.68-2.34,20.14,20.14,0,0,1,2.91-3.86,7.37,7.37,0,0,1,.85-.83l.3-.34.16-.17.07-.09.23-.23,1.05-1.07,1.14-1,2.27-2c.77-.67,1.47-1.38,2.3-2l2.44-1.95,2.42-2,2.56-1.88A6.15,6.15,0,0,0,419,356C419,355.84,418.24,356.22,417.38,356.85Z"/><path d="M588.2,349.76c-1,0-.93.1,0,.26s2.35.37,3.3.47.81,0,0-.27A15.91,15.91,0,0,0,588.2,349.76Z"/><path d="M580.33,357.78a61,61,0,0,0-13.21,3.42,21.19,21.19,0,0,1-2.26.7c.34.07-.54.53-2.25,1.17-16.91,6.44-33.59,15.6-51.13,24.73-8.78,4.56-17.82,9.08-27.26,13.13a192.94,192.94,0,0,1-29.6,10.17,6.32,6.32,0,0,1-1.66.83,43.52,43.52,0,0,1-6.13,1.74c-1.31.25-2.73.51-4.2.74s-3,.38-4.6.52-3.16.18-4.74.23a116.33,116.33,0,0,1-14.45-.32,95.4,95.4,0,0,1-14.45-2.27l-1.8-.41-1.78-.5-2-.55a20.35,20.35,0,0,1-2.22-.7c-1.47-.53-2.95-1-4.41-1.57l-4.3-1.77a67.45,67.45,0,0,1-15.12-9.42,28.34,28.34,0,0,1-5.26-5.29,19.15,19.15,0,0,1-3.52-7.64,21.79,21.79,0,0,1-.43-7.41,30.54,30.54,0,0,1,1.7-7.2,33.15,33.15,0,0,1,3.3-6.89q2.22-3.35,4.45-6.69c.74-1.13,1.48-2.26,2.35-3.35.42-.55.82-1.1,1.27-1.65l1.42-1.66,2.56-3c.67-.82,1.38-1.58,2.1-2.33L387,340c1.47-1.48,3-2.86,4.5-4.3-.88.57-1.48.85-1.61.69-.07-.55,2.56-3.53,6.05-6.26,1.75-1.42,3.47-2.9,5.24-4.21-1.29.92-2.56,1.91-3.83,2.91l-3.82,3c-2.53,2.05-5,4.23-7.5,6.35-.7.67-1.35,1.27-2,1.81l-3.92,3.87c-.66.63-1.26,1.37-1.9,2.05l-2.66,3c-.45.51-.94,1-1.36,1.53l-1.2,1.54c-.84,1-1.55,2.06-2.28,3.12q-2.17,3.15-4.37,6.34l-1.2,1.73c-.35.59-.65,1.19-1,1.79a31.68,31.68,0,0,0-1.66,3.62c-.49,1.22-.88,2.46-1.28,3.7s-.61,2.5-.82,3.78a29,29,0,0,0-.36,3.85,25.45,25.45,0,0,0,.24,3.9,20.73,20.73,0,0,0,.87,3.82c.18.62.41,1.23.64,1.83s.54,1.18.83,1.75a27.3,27.3,0,0,0,4.36,6.15,34.36,34.36,0,0,0,2.73,2.66c1,.83,2.09,1.61,3.13,2.41a67.68,67.68,0,0,0,14.37,7.86l3.91,1.5,4,1.31c.66.21,1.32.44,2,.63s1.3.32,1.95.47l3.08.74a103.78,103.78,0,0,0,12.21,1.83,115.79,115.79,0,0,0,23.87-.4c15.62-1.94,30-6.61,43.33-12.28s25.76-12.35,37.86-18.83a21.61,21.61,0,0,1,2.8-1.35c.52-.15.49,0-.39.5-15,8.55-29.27,17.13-45.69,24.28a160.57,160.57,0,0,1-26.68,9.05,116.19,116.19,0,0,1-31.95,3.2c-.86,0-1.72-.06-2.59-.12l-2.59-.21c-1.73-.12-3.47-.36-5.21-.59s-3.48-.56-5.22-.85c-.87-.14-1.74-.34-2.61-.54l-3.06-.71a11.37,11.37,0,0,1-1.82-.49l-1.79-.58-3.6-1.15-3.53-1.33-1.78-.66a12.63,12.63,0,0,1-1.73-.73l-3.33-1.65c-1.12-.55-2.25-1.09-3.28-1.73l-3.18-1.85c-.52-.32-1.09-.6-1.56-.95l-1.39-1.08a51.26,51.26,0,0,1-5.34-4.46,36.65,36.65,0,0,1-4.19-5.16l-.89-1.41c-.27-.49-.54-1-.8-1.48a24.73,24.73,0,0,1-1.38-3.1c-.37-1.07-.73-2.17-1-3.29s-.48-2.26-.62-3.4a34.31,34.31,0,0,1,1.21-13.49,36.59,36.59,0,0,1,2.44-6.52l.77-1.62c.32-.52.67-1,1-1.57l2-3.14,4.08-6.31a56.23,56.23,0,0,1,4.83-6.25l2.54-2.94c.56-.65,1.1-1.34,1.68-1.95l3.5-3.7c2.32-2.54,4.75-4.78,7.18-7.09l1.82-1.72,1.85-1.62,3.71-3.23c9.93-8.48,20.08-15.78,29.69-22.81,10.24-7.05,19.63-13.72,27.67-20.63,1.06-.85,2-1.73,2.94-2.6l2.84-2.61c.95-.87,1.75-1.78,2.64-2.66l2.58-2.64A63.27,63.27,0,0,0,469.78,258c.54-.84.91-1.67,1.38-2.49s.81-1.62,1.07-2.39a22.56,22.56,0,0,0,1.37-4.31,15.14,15.14,0,0,0,.36-3.47,11.54,11.54,0,0,0-.39-2.6,15,15,0,0,0-2.69-4.92,16.66,16.66,0,0,0-5-4.22,20.06,20.06,0,0,0-8.88-2.05,26.86,26.86,0,0,0-5.38.49,26.18,26.18,0,0,0-5.21,1.66c-.4.19-.8.33-1.22.57l-.64.31a.43.43,0,0,0-.11.08l-.35.28-.7.52c-.45.4-.92.7-1.37,1.1a56.79,56.79,0,0,0-5.5,4.9,2.54,2.54,0,0,1-2.77,1,9,9,0,0,1-4.22-2,8.52,8.52,0,0,1-3.26-5l-.46.43-1,.43a5,5,0,0,1-3.46,0l-1.66-.41c-2.92-1.13-5.93-1.22-9-2.29l-.81-.87-.41,0a6.31,6.31,0,0,1-3.43-.64l-1.12-.88a13.13,13.13,0,0,1-3-3.7,4.92,4.92,0,0,1-1.27-1.22,6.8,6.8,0,0,1-4-2.41.92.92,0,0,1-1-.93,1.18,1.18,0,0,1,.14-.58h0a8,8,0,0,0-1.05-.07c-.33.25-.54.38-.54.38-.81.7-.81.7-1.54,1.3a5.11,5.11,0,0,1-1.71.39c-2.61-.67-2.62-.65-3.46-1.37a3.18,3.18,0,0,1-.16-.32l-1,.55a3,3,0,0,1-.55.06c-.52-.29-.52-.29-.77-.3a1.93,1.93,0,0,1-.39-.21c-.32-.7-.32-.7-.47-.81a1.5,1.5,0,0,1-.14-.37c.11-.52.16-.73.18-.82l1.87,0-.31-.48.72.19-.61-.25.62-.22-.81.19a6.87,6.87,0,0,0,1.2-1.33,2.44,2.44,0,0,0,.53-.89,1.63,1.63,0,0,1-.3-.16c1-.95,1-1,2-1.83a4.42,4.42,0,0,1,.52,0,.65.65,0,0,1,.22-.64l.51-.47,0-.17,0,0c.05-.26.08-.44.12-.64l0-.14h0l.66-2.77a6.81,6.81,0,0,1,1-.69l-.44.06c-.3,0-.6-.48-.71-.42a35,35,0,0,0-7.74,6,1.11,1.11,0,0,1-1.31.57c-.44-.2-.53-.78-.22-1.31a20.86,20.86,0,0,1,5.19-9.85,27.2,27.2,0,0,1,9.29-6.56c1.6-1,3.14-2,4.76-3l-.39,0,1.4-.56.13-.08-1.49-.12-.78.25c-3.63,2.39-7.64,3.89-11.36,6.27-2,1.28-4.08,2.09-6.06,3.31-.41.39-1,.46-1.23.15a1,1,0,0,1,.27-1.29c4.24-6.16,11.36-11.67,18.22-12.49a7.34,7.34,0,0,1,3.56-1.45l0,0-1.16-.2c.94-.42,1.78-.16,2.71-.42l-.94-.76c4.51-2.21,9.13-5.2,14.09-5.65a3.3,3.3,0,0,1,.52-.13,27.76,27.76,0,0,1,2.37-2.21q.33-.27.66-.51a1.43,1.43,0,0,1,.23-.14l1.29-.53c.87-.36,1.73-.72,2.63-1.05A76.77,76.77,0,0,1,437.16,175c-1.37.25-2.73.5-4.08.79s-2.7.64-4,1-2.67.78-4,1.19l-3.66,1.27,0,0,.23-.1.51-.22,1-.43c.69-.29,1.37-.58,2.07-.85,1.41-.52,2.83-1,4.27-1.51a79.78,79.78,0,0,1,8.82-2.28,75.8,75.8,0,0,1,45.21,4.95,72.79,72.79,0,0,1,12.1,6.9,66.85,66.85,0,0,1,17.61,18.56,62.08,62.08,0,0,1,5.14,9.95,53.41,53.41,0,0,1,4,17.51c.22,1.07.42,2.15.55,3.25s.29,2.18.38,3.29l.19,3.33c.07,1.12,0,2.19,0,3.28a63.14,63.14,0,0,1-.48,6.47c-.12,1.06-.33,2.1-.5,3.15s-.37,2.09-.63,3.1l-.75,3-.92,2.94c-.29,1-.64,1.93-1,2.87s-.72,1.88-1.1,2.8a85.36,85.36,0,0,1-5.27,10.32,104.74,104.74,0,0,1-13.09,17.26c-2.37,2.54-4.85,5-7.29,7.2l-3.68,3.35c-1.22,1.12-2.49,2.1-3.74,3.15a315.58,315.58,0,0,1-30.42,21.79c-10,6.5-19.79,12.55-28.7,18.87a14.09,14.09,0,0,1-4.06,2.33c-.35-.08.71-1.15,2.52-2.48,12.6-9.35,27-18.1,41.59-28.31a252.8,252.8,0,0,0,21.68-17l5.23-4.85c1.74-1.68,3.48-3.48,5.16-5.3a109.09,109.09,0,0,0,9.52-11.94,101.86,101.86,0,0,1-8.14,9.88c-.71.78-1.43,1.54-2.16,2.27s-1.45,1.49-2.2,2.19l-2.24,2.13-2.24,2-4.5,3.92-4.6,3.66-2.3,1.82-2.34,1.71-4.67,3.4C459.72,325.29,447,332.8,435,340.46l-4.53,3-4.44,3-4.32,3c-1.41,1-2.9,1.93-4.27,2.92l-5.14,3.92-4.85,4c-1.59,1.35-3,2.79-4.57,4.17l-1.13,1c-.37.36-.7.73-1.05,1.09l-.46.49-.24.27-.46.53c-.3.35-.75.74-1.08,1.15l-1,1.26a28.33,28.33,0,0,0-1.95,2.56,12,12,0,0,0-1.43,2.87,5.81,5.81,0,0,0-.22,3.17,5.4,5.4,0,0,0,1.64,2.72,13.48,13.48,0,0,0,2.62,1.88,31.2,31.2,0,0,0,5.86,2.73c.5.2,1,.33,1.54.5l.77.23.46.11.63.18,1.4.39,1.43.33c.95.22,1.9.46,2.88.61a76,76,0,0,0,12,1.32,98.15,98.15,0,0,0,10.45-.25c3.47-.31,6.84-.72,10.27-1.36A143.2,143.2,0,0,0,466,383c13.41-4.54,26.65-10.78,41.13-17.83,10.19-4.94,20.39-9.93,31-14.37,5.29-2.23,10.68-4.31,16.19-6.18A122.75,122.75,0,0,1,572,339.87a59.36,59.36,0,0,1,21-.37,44,44,0,0,1,21,9.81,55.39,55.39,0,0,1,13.38,16.94A76.55,76.55,0,0,1,634,385.18c1.51,6.65,1.83,12.47,1.5,13.25s-1.24-3.56-2.54-10a81.29,81.29,0,0,0-6.38-19.3,54.68,54.68,0,0,0-13.32-17.51,43.66,43.66,0,0,0-9.91-6.44,43.14,43.14,0,0,0-11.43-3.44,59.9,59.9,0,0,0-21.48,1c-3.28.69-6.42,1.54-9.45,2.46s-5.9,1.91-8.81,2.93c-5.79,2.08-11.43,4.38-17,6.78-11.06,4.82-21.66,10.1-32.14,15.11s-20.85,9.77-31.38,13.61a142.62,142.62,0,0,1-31.88,8,87.68,87.68,0,0,1-31.51-1.89l-1.86-.54c-.51-.14-.9-.22-1.28-.36-.77-.26-1.56-.48-2.32-.79s-1.53-.58-2.27-.93-1.49-.68-2.22-1.07-1.43-.8-2.14-1.22a18.71,18.71,0,0,1-2-1.38,6.83,6.83,0,0,1-2.7-4,7.26,7.26,0,0,1,.55-4.16,17.48,17.48,0,0,1,2.14-3.64c.87-1.1,1.76-2.18,2.64-3.26.42-.53,1-1,1.4-1.49s.68-.77,1.64-1.77c-.15,0-.29,0-.35,0-.26-.25.06-1.15,1-2.37-.49.46-1,.89-1.45,1.38l-1.2,1.26c-.53.58-1.06,1.15-1.7,1.78-1.15,1.28-2.23,2.64-3.36,4a18.83,18.83,0,0,0-2.69,4.53,7.33,7.33,0,0,0-.29,5.19,8,8,0,0,0,2.33,2.88,20.3,20.3,0,0,0,3.13,2,41.17,41.17,0,0,0,6.67,3c1.13.42,2.29.73,3.43,1.07l.47.11.54.13,1.3.35c.87.24,1.77.4,2.65.6a81,81,0,0,0,10.9,1.56,103.18,103.18,0,0,0,11.28.19,115.2,115.2,0,0,0,11.47-1.1A155,155,0,0,0,467.47,386,331.89,331.89,0,0,0,499,374c10.24-4.37,20.37-8.94,30.88-13.27,6.56-3,13.23-5.87,20.09-8.44q5.14-1.94,10.44-3.62a105.09,105.09,0,0,1,11.09-2.95,63.83,63.83,0,0,1,12.1-1.38A43.83,43.83,0,0,1,596.53,346c1.09.29,2.15.71,3.22,1.08s2.11.86,3.11,1.4A38.85,38.85,0,0,1,608.6,352a46.19,46.19,0,0,1,9.23,9.13,16.63,16.63,0,0,1,1.78,2.7c.19.46-.27-.1-1.08-1.19a45.71,45.71,0,0,0-13.12-12,38.58,38.58,0,0,0-8.55-3.74,41.12,41.12,0,0,0-9-1.56A59.77,59.77,0,0,0,570.76,347c-2.69.62-5.31,1.35-7.87,2.14-1.29.4-2.53.82-3.78,1.24s-2.49.85-3.72,1.3c3.24-.77,5.27-.91,5.15-.41s-2.43,1.67-6,3.23c4.46-1.53,8.94-3,13.64-4.13,2.91-.7,5.3-.94,5.25-.7s-2.33.87-5.06,1.54a203.74,203.74,0,0,0-27.17,9.35c-8.78,3.64-17.34,7.64-25.83,11.66-10.13,5-20.15,9.92-30.37,14.28a192.36,192.36,0,0,1-31.36,10.62,30.58,30.58,0,0,1,6.53-.26h0c3.31-.94,6.61-1.92,9.85-3,14.83-5.37,29.09-12.49,43.51-19.67s29.1-14.42,44.78-19.79c7.79-2.65,16-5.07,24.86-5.29a38.46,38.46,0,0,1,13.29,1.87,34.48,34.48,0,0,1,11.76,6.8c6.8,5.93,11.37,13.83,14.11,22s4,16.6,5,24.78a8.69,8.69,0,0,1,.14,2.39,6.59,6.59,0,0,1-.44-2.1c-1.27-9.85-2.75-20.08-6.91-29.72a49.63,49.63,0,0,0-8.41-13.37,36.76,36.76,0,0,0-13-9.53l.08,0c.78.41.88.58,0,.26s-2.39-.85-3.19-1.2-.82-.42,0-.26a40.78,40.78,0,0,0-14.82-1.5,72.48,72.48,0,0,0-14.14,2.6,210.67,210.67,0,0,0-26.12,9.6c-16.88,7.37-32.81,16.09-49.08,23.6,15.23-6.73,30.09-14.51,45.52-21.26A242.68,242.68,0,0,1,560.63,355,104.58,104.58,0,0,1,573,351.7a54.41,54.41,0,0,1,13-1.06,35.47,35.47,0,0,1,11.51,1.93,12.07,12.07,0,0,1,2.63,1.32c.22.23-.51-.09-1.54-.48a31.42,31.42,0,0,0-3.09-1.08,25.48,25.48,0,0,1,7.46,3.89c1.67,1.3,2.46,2.29,2.26,2.45-.62.24-5.14-3.11-11.52-4.81a38.11,38.11,0,0,0-13.07-1,70.93,70.93,0,0,0-12.92,2.43A215.12,215.12,0,0,0,543,364.22c-1.74.76-3.46,1.56-5.19,2.35s-3.41,1.72-5.1,2.61c6.22-2.8,12.5-5.44,18.86-7.82q4.79-1.78,9.62-3.34c3.23-1,6.48-2,9.76-2.72,6.54-1.5,13.32-2.21,19.8-1a29.84,29.84,0,0,1,9.15,3.34,33.2,33.2,0,0,1,7.63,6.09c1.58,1.61,2.62,3.25,2.5,3.39s-1.32-1.2-2.86-2.78A29.65,29.65,0,0,0,592.86,356,40.06,40.06,0,0,0,576,356a108.89,108.89,0,0,0-16.85,4.9c-5.57,2-11.07,4.3-16.52,6.73-21.79,9.75-42.8,22.07-66,30.88a178.58,178.58,0,0,1-23.23,8.47,122.72,122.72,0,0,1-25.25,4.48c1.1,0,2.2,0,3.31-.06s2.22-.07,3.32-.17c14.15-.95,27.12-4.56,39.14-9.05a317.57,317.57,0,0,0,33.9-15.67c10.79-5.62,21.31-11.39,32.2-16.58,5.44-2.6,11-5.05,16.68-7.27a120.51,120.51,0,0,1,17.48-5.51,8.18,8.18,0,0,1,2.37-.28c.14.07-.65.32-1.85.54a113.66,113.66,0,0,0-16.92,5.32c-5.52,2.12-10.87,4.51-16.17,7-10.6,5.05-21,10.7-32,16.43-9.15,4.75-18.25,9.29-27.53,13.28a196.54,196.54,0,0,1-28.55,9.95A175.83,175.83,0,0,0,482.35,400c9.12-3.8,17.83-8.08,26.38-12.44,17-8.7,33.5-17.79,51.14-24.26A30.53,30.53,0,0,1,564,362a3.34,3.34,0,0,1,.83-.42,70.81,70.81,0,0,1,14-4,10.49,10.49,0,0,1,2.61-.15C581.91,357.5,581.35,357.62,580.33,357.78Zm-177-149.57-.26,0,.67-.14,1.53.47Zm-3.14,10.66h0l-.89-.17Zm84.45,87c2.15-1.78,4.22-3.75,6.33-5.62s4.2-4,6.22-6.12A106.16,106.16,0,0,0,508.51,280a77.72,77.72,0,0,0,8.78-17.26,64,64,0,0,0,3.77-20.64,62.8,62.8,0,0,1-2.95,20.37,81.33,81.33,0,0,1-14.49,25.1,115.78,115.78,0,0,1-9.22,9.86c-.81.75-1.62,1.54-2.43,2.24l-2.43,2.09C487.91,303.13,486.31,304.6,484.64,305.87ZM394.59,209.5a11.3,11.3,0,0,1,3.53,0,6.13,6.13,0,0,1,1.23-1.51,34.11,34.11,0,0,1,4.23-3.15c-.5-.22-.15-.44,0-.62l.41-.52-2.45,1.41-2.46,1.49C397.57,207.51,396.09,208.66,394.59,209.5ZM388,220.68l-.24,0-.41-.7Zm.74,1.15.23-.15C389.1,221.91,389,221.92,388.7,221.83Zm2.13-1.38a1.84,1.84,0,0,0-.52,0Zm18.46,11.64-2.53-2.79c.78.93,1.57,1.85,2.37,2.75Z"/><path d="M509.26,409.55l0,.26a.48.48,0,0,1-.43-.26c.63,2.37,3.21,3.24,5.43,3.08a1.09,1.09,0,0,0,1.49-1.6,1.39,1.39,0,0,1-.16-.41,8.55,8.55,0,0,0-1.17-3.5l.21.83a3.08,3.08,0,0,0-.63-.88l-.11.35a2.53,2.53,0,0,0-4.83,1.51Z"/><path d="M508.81,413.63c-.3-.74-.57-1.48-.82-2.22l0-.25-.53.76,0,0a4.54,4.54,0,0,1,2.85.55l.35.1a.72.72,0,0,0,.54-.21.8.8,0,0,0,.06-1.14l-.35-.37c-.65-1.18-2.17-2.39-3.67-1.57-.35.19-.52.64-.76,1a1.12,1.12,0,0,0,1.67,1.49l.17.29-.33,0c.46-.32,1-.07,1.49,0l.58.27.6-1.35-.37-.05c0,.06,0,.16,0,.16a10.63,10.63,0,0,1-2.13-.33l-1-.12a.68.68,0,0,0-.53.76l.11.48a2.11,2.11,0,0,1,0-.25c.49.8,1.1,1.51,1.58,2.31a.28.28,0,1,0,.49-.25Z"/><path d="M506.25,411.89a.59.59,0,0,0-.26-.45l-.13,0c0,.1,0,.24.06.37S506.14,412.05,506.25,411.89Z"/><path d="M505.86,411.47l0-.15a1,1,0,0,0,0,.15h.05Z"/><path d="M531,427.6a40.12,40.12,0,0,0,2.89,3.07s.11,0,.16-.06.07-.15,0-.17a39.9,39.9,0,0,1-2.87-3.08s-.11,0-.16.06S530.94,427.57,531,427.6Z"/><path d="M533.74,441a.25.25,0,0,0-.13.18c0,.06,0,.1.09.06a.31.31,0,0,0,.14-.18C533.85,440.94,533.8,440.92,533.74,441Z"/><path d="M529.24,446.27a2,2,0,0,0-.75.08s-.07,0-.07-.06a.36.36,0,0,1-.28.2,15.23,15.23,0,0,1-4.83-.83,1.37,1.37,0,0,1-.25.23c-.3.22-.57.24-.7.06l-.07-.17c-.38-.55-.79-1.07-1.15-1.64a.78.78,0,0,1-.55,0,12.56,12.56,0,0,1-2.05-.08,1.15,1.15,0,0,1-.16.31c-.2.24-.45.34-.56.24l-.2-.13c.13.2.26.39.38.6a.19.19,0,0,1,0,.09,3.86,3.86,0,0,0,.6.44,15.14,15.14,0,0,0,6.65,1.62c.06,0,.09,0,.07.1s-.09.15-.15.16c-2,.44-4.08,1.37-5.85,1.28a30.41,30.41,0,0,1-6-.79c-1.46-1.14-3.26-1.59-5.09-2.31a19,19,0,0,1-1.77-.8,1.84,1.84,0,0,1-.25-.14l-.38-.25-.77-.49-1.5-1c-2-1.37-3.9-2.8-5.85-4.26a3.33,3.33,0,0,1-1.2-4.55,3.38,3.38,0,0,1,2.56-1.63l-.34-.29-.42-.6a2.87,2.87,0,0,1-.47-2l.08-.9c.37-1.55.27-3.17.78-4.7l.44-.38v-.21a2.91,2.91,0,0,1,.32-1.71l.46-.52a6.57,6.57,0,0,1,1.87-1.38,2.36,2.36,0,0,1,.62-.6,3.38,3.38,0,0,1,1.23-1.92.48.48,0,0,1,.47-.5.58.58,0,0,1,.26.06h0c0-.2,0-.26.07-.5a2.6,2.6,0,0,1-.15-.25l-.53-.71a2.33,2.33,0,0,1-.08-.8c.46-1.21.46-1.21.83-1.6l.16-.07c-.13-.33-.14-.35-.17-.44a1.3,1.3,0,0,1,0-.26c.17-.23.17-.23.19-.34a1,1,0,0,1,.12-.18c.33-.15.33-.15.39-.22l.17-.07.34.07-.12.85.23-.14-.14.33.15-.28.06.28,0-.37c.33.4.33.4.5.52a.82.82,0,0,0,.35.22l.09-.15.69.86,0,.24a.22.22,0,0,1,.27.07l.19.21h.07v0l.28,0h.06l1.19.12a3.51,3.51,0,0,1,.27.4c0-.07,0-.13,0-.2s.22-.3.2-.35a17,17,0,0,0-2.19-3.14.41.41,0,1,1,.41-.71,8.93,8.93,0,0,1,6.54,4.95c.45.53.92,1.05,1.39,1.56,0-.05,0-.11,0-.17l.29.5,0,0v-.64c0-.1-.09-.2-.13-.29a26.81,26.81,0,0,1-2.71-4,22.5,22.5,0,0,1-1.16-2.3.37.37,0,1,1,.52-.52c2.28,1.33,4.43,3.41,5,6a2.22,2.22,0,0,1,.75,1.17l0,0,0-.51c.22.3.16.69.33,1l.25-.53c1.17,1.36,2.77,2.4,3.55,4a1.58,1.58,0,0,1,.12.15,9.28,9.28,0,0,1,2,.47c-.08-.14-.16-.27-.23-.41a1.39,1.39,0,0,1,1,.28,3.12,3.12,0,0,1,.38,3.37,48.09,48.09,0,0,0,4.52,2.64c.09,0,.08.18,0,.32s-.25.23-.33.2a16.93,16.93,0,0,1-3.69-1.38,15.23,15.23,0,0,0,2.14,2.45l.37.2a.67.67,0,0,1,.27.32,13.26,13.26,0,0,0,3.43,2.26,29.3,29.3,0,0,0,3.51,1.09,12.44,12.44,0,0,1,4.77,1.8c.21.1.18.47-.07.83s-.61.57-.82.48c-3.56-1.06-7.24-1.86-10-4.25l-.87-.77-.1.15a1.94,1.94,0,0,1-.47.44,9.54,9.54,0,0,1,.87,1,6.67,6.67,0,0,1,3.41,1.71,9.19,9.19,0,0,1,1.28,2.47c1,.43,2,.8,3,1.27.05,0,.06.06,0,.14s-.11.13-.16.12a13.08,13.08,0,0,1-2.56-.33,2.3,2.3,0,0,1-.48.91,2.17,2.17,0,0,1-.8.64l.38.34c.08.08.05.25-.07.4s-.3.24-.37.17l-1.6-1.34c-.79-.34-1.56-.7-2.32-1.09a3.27,3.27,0,0,1-.39.9h0l.32.21a13.92,13.92,0,0,1,6.62,3.23s0,.1,0,.18-.13.11-.16.08a11.28,11.28,0,0,0-1.75-1.34h0a.29.29,0,0,1-.13.18.06.06,0,0,1-.1-.07.28.28,0,0,1,.14-.18,14.63,14.63,0,0,0-3.87-1.61,16.62,16.62,0,0,1,2.92,2.3l.53,0s.05.08,0,.15a.24.24,0,0,1-.16.12h-.14c.16.18.07.59-.23,1s-.69.55-.87.39c-.57-.33-1.12-.69-1.65-1.07l-.21-.06-.31.05q1,1.15,2,2.37c.07.05,0,.2-.06.34s-.24.2-.31.15a27.23,27.23,0,0,1-5.11-2.13l-2.75.63a1.29,1.29,0,0,0,.17.16c1.54,1.2,4.12.57,5.87,1.39.05,0,0,.1,0,.17s-.12.12-.16.09a16.7,16.7,0,0,0-3-.47,16.44,16.44,0,0,0-2.55-.27c1.26.73,2.9.86,4.28,1.42.07,0,.09.07.07.17a.2.2,0,0,1,.1-.07,2.41,2.41,0,0,1,.78-.08c.06,0,.07.05,0,.14A.23.23,0,0,1,529.24,446.27ZM511,419.49s0-.08,0-.12a2.33,2.33,0,0,0,.09.29l-.15.75S510.93,420,511,419.49Zm-4.95-.65h0c0-.24.08-.42.08-.42C506.05,418.59,506,418.73,506,418.84Zm21,8.76a4.58,4.58,0,0,1-1.41-1.86l.5.24C526.46,426.49,526.76,427,527.05,427.6Zm-16.79-11.93a6,6,0,0,1,0,1.59,2.21,2.21,0,0,1,.69.41,19.93,19.93,0,0,1,1.52,1.53c.08-.25.19-.12.28-.09l.24.11c-.48-.59-1-1.2-1.43-1.83A16.6,16.6,0,0,1,510.26,415.67Zm-4.68-2.46v-.11l.33-.2Zm-.55.35.05.1C505,413.74,505,413.68,505,413.56Zm.49,1a.5.5,0,0,0,0-.24Zm-6,8.83,1.41-1.19-1.39,1.11Z"/><path d="M504,499.22v.52c-.3,0-.54-.17-.73-.49a6.23,6.23,0,0,0,3.43,4.83,10.71,10.71,0,0,0,6,.77,1.84,1.84,0,0,0,2.75-.31,2.34,2.34,0,0,0,0-3,3.07,3.07,0,0,1-.25-.78,16.81,16.81,0,0,0-1.53-6.62c.08.51.15,1.05.22,1.57a4.9,4.9,0,0,0-.93-1.62l-.25.68a3.64,3.64,0,0,0-5.12-3,5.9,5.9,0,0,0-3.81,6.29Z"/><path d="M502.49,507.37c-.47-1.48-.85-2.95-1.2-4.43l.08-.48L500.24,504l.09-.08c1.87-.49,3.64.24,5.2,1l.65.16a1.57,1.57,0,0,0,1-.46,1.67,1.67,0,0,0,.23-2.24c-.2-.23-.38-.48-.57-.72-1-2.32-3.42-4.6-6.43-3a6.71,6.71,0,0,0-1.64,2,2.23,2.23,0,0,0-.14,3.11,2,2,0,0,0,3-.2l.27.58-.62.05c.92-.64,1.84-.16,2.77-.11l1,.51,1.31-2.72-.67-.08c0,.12-.09.33-.1.33a16.52,16.52,0,0,1-3.85-.59l-1.84-.2a1.53,1.53,0,0,0-1.16,1.51l.12,1v-.5c.8,1.57,1.84,3,2.63,4.6a.49.49,0,0,0,.69.24A.62.62,0,0,0,502.49,507.37Z"/><path d="M497.92,503.93a1.15,1.15,0,0,0-.4-.9l-.28.08c0,.19,0,.46.07.72C497.35,504.35,497.68,504.26,497.92,503.93Z"/><path d="M497.24,503.11c0-.18,0-.3,0-.3s-.05.2-.07.3h.09Z"/><path d="M624.46,545.09c1,0,1.93.11,2.89.11h8.72l5.83-.26,2.92-.14,2.92-.26,5.85-.53,5.83-.78,2.93-.39c1-.14,1.94-.33,2.91-.5l5.82-1c.53-.08.94-.28.93-.4s-.42-.12-.91,0l-5.81,1-2.91.5-2.91.38-5.82.77-5.82.51-2.91.26-2.91.14-5.8.26c-1.94,0-3.87,0-5.8,0s-3.85,0-5.77-.12c-.51,0-.94.08-1,.2S624,545.06,624.46,545.09Z"/><path d="M742.45,525.37c-.3.26-.24.34.16.21a4.53,4.53,0,0,0,1.19-.66c.26-.21.19-.32-.15-.2A4.71,4.71,0,0,0,742.45,525.37Z"/><path d="M743.17,534.08,740.28,536c-.94.6-1.83,1.21-2.66,1.81a5.56,5.56,0,0,1-1,.52c.2.08-.13.43-.86.9-14.32,9.32-31.12,17.16-48.29,23.59a1.6,1.6,0,0,1-.61.66,19.73,19.73,0,0,1-6,2.49l-2,.45c-1.95.51-3.94.9-5.9,1.36s-3.93.92-5.92,1.27l-6,1.08-3,.52-3,.41a48.45,48.45,0,0,1-5.5,1.42c-3.4.89-6.85,1.62-10.32,2.42s-7,1.29-10.62,1.9c.46.11.74.26.75.46s-.5.51-1.18.7a11.71,11.71,0,0,1-2.57.37l-3,.2c2.86-.06,5.73,0,8.56-.23a11.28,11.28,0,0,1,1.14,0c3.11-.31,6.26-.57,9.42-1.12a213.82,213.82,0,0,0,39.39-9.89,265,265,0,0,0,35.41-15.57,4.48,4.48,0,0,1,1.32-.57c.26,0,.27.12-.14.36-1.71,1.08-3.42,2.08-5.12,3.07l-5.06,3c-3.38,1.94-6.78,3.84-10.27,5.75A173.36,173.36,0,0,1,674,573.7a242.28,242.28,0,0,1-67,13.81,333.32,333.32,0,0,1-36.45-1.87,240.83,240.83,0,0,1-36.91-6.7c-2.16-.5-4.25-1.2-6.36-1.82L521,575.19,514.82,573c-2.06-.76-4.14-1.47-6.14-2.35l-1.51-.64-.76-.32-.29-.11-1-.38-2-.78c-1.36-.54-2.74-1-4.06-1.66q-4-1.83-7.92-3.76c-2.62-1.3-5.16-2.81-7.76-4.26a8.37,8.37,0,0,1-4.41-4.2,6,6,0,0,1,0-5.28,6.45,6.45,0,0,1,5.33-3.32l-.83-.61-1.1-1.27a6.06,6.06,0,0,1-1.51-4.16V538c.54-3.19.21-6.62,1.23-9.74l.93-.75v-.43a5.55,5.55,0,0,1,.64-3.52l1-1a14.44,14.44,0,0,1,3.91-2.71,5.07,5.07,0,0,1,1.28-1.21,7,7,0,0,1,2.6-3.86,1,1,0,0,1,1-1,1,1,0,0,1,.5.14h0c.09-.41.11-.53.18-1-.18-.31-.27-.5-.27-.5-.53-.77-.53-.77-1-1.45a4.68,4.68,0,0,1-.06-1.61c1.08-2.41,1.09-2.41,1.88-3.17l.3-.15c-.19-.65-.2-.7-.25-.88a2.78,2.78,0,0,1,.07-.5c.37-.47.37-.47.43-.69a4.21,4.21,0,0,1,.27-.35c.67-.3.67-.3.79-.44a1.91,1.91,0,0,1,.35-.12l.63.13c-.38,1.68-.39,1.69-.39,1.69l.47-.3-.31.66.33-.56.06.56v-.73c.57.8.57.8.87,1a1.46,1.46,0,0,0,.64.43,2.15,2.15,0,0,1,.19-.29c.6.85.6.85,1.18,1.71a3.7,3.7,0,0,1-.09.48.42.42,0,0,1,.51.13l.32.43h.14l0,0,.52.05h.11c.35,0,.85.09,2.24.16a4.52,4.52,0,0,1,.5.76c0-.13,0-.25,0-.38s.44-.61.41-.71a16.19,16.19,0,0,0-.82-1.61c-.28-.54-.58-1.06-.9-1.57-.62-1-1.3-2-1.95-3A.8.8,0,0,1,501,501a.79.79,0,0,1,1.08-.31c5.23.72,9.11,4.41,11.53,9.18.84.95,1.72,1.87,2.62,2.79v-.34l.56.92.08.07-.06-1.26c-.09-.18-.17-.36-.26-.53a17.4,17.4,0,0,1-2.68-3.46c-.76-1.28-1.4-2.65-2.17-3.9a35.66,35.66,0,0,1-1.83-4.34.75.75,0,0,1,.08-1,.64.64,0,0,1,.93-.06,18.73,18.73,0,0,1,5.29,4.52,15.25,15.25,0,0,1,3.38,6.45,3.83,3.83,0,0,1,1.41,2.14l0,0c0-.34,0-.66,0-1,.39.55.34,1.29.68,1.85l.4-1.07c1.13,1.15,2.46,2.11,3.71,3.17a20.2,20.2,0,0,1,1.78,1.68,12.12,12.12,0,0,1,1.56,1.92,2,2,0,0,1,.25.26,17.41,17.41,0,0,1,2.17,0l.53.07.14,0,.35.16.71.32c1,.43,1.9,1,2.92,1.42-.66-.38-1.28-.81-1.9-1.25s-1.21-.83-1.82-1.26c.65.25,1.47.6,2.19.91s1.49.65,2.26,1c1.52.63,3,1.34,4.57,2.16,8.35,4.33,17.77,9.73,22,13.81a205.22,205.22,0,0,0,27.79,6.42,199,199,0,0,0,28.54,2.18,3.17,3.17,0,0,1,2.06.45c.1.26-.54.51-1.54.53s-1.71.1-2.58.12H610c-1.73,0-3.46-.15-5.2-.23s-3.48-.15-5.21-.3a191.49,191.49,0,0,1-20.75-2.94,168,168,0,0,0,35.19,5.94c1.55,0,3.11.11,4.66.1s3.07.05,4.6.17a186.76,186.76,0,0,0,46.12-5.14,240.71,240.71,0,0,0,37.42-12.43c8.85-3.8,17.13-7.87,25.28-12.12s16.08-8.91,24.3-13.85c2.12-1.4,4.32-2.38,4.83-2.18s-.82,1.54-3,3q-12.54,8.37-25.68,15.57a286.08,286.08,0,0,1-27.14,12.81,223.17,223.17,0,0,1-28.71,9.56,194.76,194.76,0,0,1-30.27,5.5c-2.22.25-4.44.34-6.64.53l-3.28.23c-1.1.06-2.19.07-3.28.11a.64.64,0,0,1,.13.26c0,.36-.37.71-1.05,1l3.75-.08,3.76-.22,3.77-.2,1.9-.1,1.89-.17c13.89-2.35,27.54-5.77,42.11-9.69,10-2.76,19.08-5.4,28.25-8.63a308.37,308.37,0,0,0,32.49-17.46,3.45,3.45,0,0,1,1.07-.52c.2,0,0,.2-.39.49-1.77,1.2-3.58,2.36-5.38,3.55L742.88,520l-2.8,1.69-5.65,3.37-5.8,3.19c1.4-.33,2.33-.33,2.44.12s-.67,1.32-2,2.33l5.45-2.67c1.13-.54,2.09-.84,2.16-.63s-.7.86-1.78,1.38c-3.71,1.84-7.39,3.72-11.18,5.37-1.89.84-3.75,1.74-5.66,2.53l-5.72,2.36a265.29,265.29,0,0,1-27.8,10.42,6.64,6.64,0,0,1,3.12.39h0l4.4-1.38a372.48,372.48,0,0,0,76-39.68c.47-.32.9-.52,1-.45s-.26.38-.69.66c-3.67,2.41-7.27,4.9-11,7.18-1.86,1.14-3.67,2.37-5.56,3.46L746.15,523h0c.33-.13.45-.06.15.2a5.26,5.26,0,0,1-1.17.7c-.39.14-.41,0-.16-.2a385,385,0,0,1-43.25,21.4,335.76,335.76,0,0,0,40.42-18.41c1.34-.9,2.71-1.75,4.06-2.7a3.38,3.38,0,0,1,1.11-.5c.15,0-.08.27-.47.52l-1.12.77c2.44-1.39,4.52-2.12,4.75-1.65s-1.72,2.14-4.26,3.62c-6.8,3.94-13.66,7.73-20.76,11.06L723.23,539l-2.2,1.34a299.39,299.39,0,0,0,32.56-16.51c.89-.54,1.73-.87,1.84-.73s-.52.72-1.41,1.26a275.62,275.62,0,0,1-27.91,16.43,263.84,263.84,0,0,1-30,13.23c-3.26,1.64-6.58,3.17-9.91,4.8-3.38,1.46-6.78,3-10.27,4.47.92-.2,1.84-.45,2.75-.72a178.37,178.37,0,0,0,31.89-12.52c9.89-4.89,19.36-10.21,29.36-15.94a2.14,2.14,0,0,1,1.06-.42c.1.06-.19.34-.7.63-9.73,5.67-18.65,10.92-28.8,15.88l-6.27,3L699,555.94l-3.08,1.37-3.09,1.26-6.12,2.57q3.18-1.1,6.3-2.24l3.12-1.13,3.06-1.26,6.06-2.52,5.94-2.75,3-1.37,2.92-1.46,5.82-2.93,5.75-3.09,2.88-1.54c1-.52,1.91-1.08,2.86-1.61a8.57,8.57,0,0,1,1.84-.86c0-.07.12-.19.31-.33,1.81-1.27,3.84-2.53,5.86-3.91a3.34,3.34,0,0,1,1.17-.55C743.79,533.54,743.59,533.77,743.17,534.08ZM506.5,518.85v-.24l.2.55-.21,1.51Zm-9.73-.94h0c.09-.5.15-.86.15-.86C496.87,517.41,496.81,517.69,496.77,517.91ZM589.86,546l-6.24-1.23c-1-.19-2.06-.45-3.08-.73l-3-.81a111,111,0,0,1-11.91-4l5.89,1.46,2.25.77,2.28.68,4.57,1.37c1.52.49,3.07.88,4.62,1.27Zm-84.75-34.67a13.37,13.37,0,0,1,0,3.16,3.94,3.94,0,0,1,1.31.77c1,.95,2,1.86,3,2.81.12-.49.35-.27.52-.22l.47.18a43.23,43.23,0,0,1-2.85-3.39A28.86,28.86,0,0,1,505.11,511.29Zm-8.7-4.73,0-.22.67-.4Zm-1.11.69.08.21C495.15,507.63,495.17,507.51,495.3,507.25Zm.83,1.93a1.93,1.93,0,0,0,.05-.48ZM483.62,527l2.93-2.37-2.9,2.21Z"/><path d="M642.17,597.4l-.57-.28c.13-.18.48-.2,1-.12a10.41,10.41,0,0,0-7.08-.49,9.79,9.79,0,0,0-2.45,1.17,7.4,7.4,0,0,0-1.62,1.48c-1.15.11-1.56.74-1.14,1.31a2.53,2.53,0,0,0,1.11.73,4.54,4.54,0,0,0,1.62.29,5.81,5.81,0,0,1,.89.2c.6.23,1.18.47,1.81.69l1.93.65,2,.67c.7.21,1.4.43,2.12.67-.63-.3-1.29-.57-1.91-.82a22.41,22.41,0,0,0,2.44.62l-.58-.48c3.13,1.3,6.4,1.69,7.06.21s-1.78-4.53-5.11-5.9Z"/><path d="M634.43,592.83c.82.11,1.7.27,2.57.46s1.73.41,2.61.67l.47.29-1-1.42,0,.1c-.42,1.36-2.22,2-3.78,2.63l-.52.28a.62.62,0,0,0-.12.73,2.59,2.59,0,0,0,2.16,1l1.07,0a23,23,0,0,0,2.36.3,13.19,13.19,0,0,0,2.28,0c1.41-.18,2.46-.7,2.33-2-.06-.61-.85-1.41-1.38-2.13A3.81,3.81,0,0,0,640.1,592c-1.31.1-1.86,1-1.33,1.92l-.75-.11.26-.4c.2.86-.8,1.17-1.36,1.68l-1.06.39,2.06,1.86.46-.32-.29-.2a14.44,14.44,0,0,1,2.79-1.82l1.24-.94c.2-.48-.28-1.16-1.07-1.51l-1.1-.41.54.25a53.68,53.68,0,0,0-6.1-.32c-.32,0-.57.14-.57.37S634.11,592.81,634.43,592.83Z"/><path d="M640.31,591.42a2.09,2.09,0,0,0,1.18.2c0-.12,0-.18.06-.21l-.83-.34C640.13,590.84,640.07,591.09,640.31,591.42Z"/><path d="M641.55,591.41l.34.14-.3-.21,0,0Z"/><path d="M650.63,741.12c-1,24.84-2.14,49.82-3.69,74.78-.06.84,0,1.55.21,1.59s.33-.61.37-1.38c1.61-25,2.78-49.83,3.78-74.66a2.83,2.83,0,0,0-.31-1.65C650.8,739.76,650.65,740.34,650.63,741.12Z"/><path d="M628,927.36c-.05-.6-.16-.57-.26,0a10.75,10.75,0,0,0-.07,2.06c.05.49.18.48.26-.05A9.61,9.61,0,0,0,628,927.36Z"/><path d="M619.75,921.93c-.27-3.5-.59-6.82-1-9.78a11.61,11.61,0,0,1,0-1.64c-.18.2-.37-.47-.51-1.73-2.62-24.85-4.51-51.56-6.25-77.88a2.54,2.54,0,0,1-.65-1.12,29.52,29.52,0,0,1-1.12-9.28l.12-2.85c.17-11.55.38-23.08.8-34.56a68.64,68.64,0,0,1-.63-8.05c-.91-9.95-1.72-19.94-2.25-30.14-.21.64-.46,1-.73,1-.63-.21-1.09-2.58-1-5.33,0-1.39.07-2.78.16-4.17-.45,4-.54,8-.79,12,0,.57-.07,1.1-.13,1.58-.09,4.38-.09,8.79,0,13.29.43,39.22,4,76.08,7.74,112.67a6.88,6.88,0,0,1,0,2.07c-.1.35-.26.29-.36-.38-3.5-23.07-8.22-43.05-11-69.14-1.63-15.53-3-31-4-46.49-.26-3.88-.51-7.77-.7-11.67q-.17-2.94-.31-5.86c-.1-2-.23-3.92-.21-5.88a57.71,57.71,0,0,1,5.28-23.65c4-8.28,9-16.37,12.8-24.51,1-2.08,1.82-4,2.71-6.33l.64-1.67c.23-.65.47-1.17.67-1.63.42-.92.82-1.7,1.13-2.49a15.62,15.62,0,0,0,1.21-9.43,13,13,0,0,0-1.75-4.36c-.43-.69-.93-1.4-1.61-2.35a18.78,18.78,0,0,1-2.19-4,16.21,16.21,0,0,1-1.06-5.26,17.51,17.51,0,0,1,.56-5.15,23.37,23.37,0,0,1,4-7.76,13.34,13.34,0,0,0,1-1.59l0,0v0l.09.06.35.19c.24.12.48.22.74.32l.39.13a1,1,0,0,1,.19.08,2.75,2.75,0,0,0,.67.17s0,0,0,0-.14,0-.22,0l-.29,0-.21,0,.11,0a1.8,1.8,0,0,0-.4.18l-.31.17-.35.23c-.17.11-.32.22-.46.33l-.11.08h0a.73.73,0,0,0-.18-.31l-.24-.25c-.4-.36-.73-.7-1.14-1-.79-.6-1.57-1.19-2.29-1.81a21.63,21.63,0,0,1-3.72-3.68,9.9,9.9,0,0,1-1.76-4.15,3.72,3.72,0,0,1-.13-1.21c0-.41,0-.82,0-1.23a10.7,10.7,0,0,1,.52-2.26,6.71,6.71,0,0,1,.65-1.38,6.4,6.4,0,0,1,.85-1.27,4.52,4.52,0,0,1,.46-.62l.6-.59a16.6,16.6,0,0,1,1.42-1.1,6.79,6.79,0,0,1,.79-.53,6,6,0,0,1,.87-.5c.67-.27,1.32-.56,2-.86,1.32-.57,2.83-1,4.2-1.42l2.08-.69c.42-.16.63-.25.93-.38a9.09,9.09,0,0,0,1.34-.68,1.68,1.68,0,0,0,.28-.24h0l.07.1c.19.24.47.52.59.69a6.91,6.91,0,0,0,.51.57l.28.26.2.2a3.13,3.13,0,0,0,.44.36c.17.11.21.17.34.25s.28.14.32.17l.19.08c.13,0,.19,0,.11,0a1.27,1.27,0,0,0-.34.12,1.93,1.93,0,0,0-.6.33,4.42,4.42,0,0,0-.86.63l-.19.18-.28.24a6.51,6.51,0,0,0-.54.51,6.17,6.17,0,0,0-.48.54l-.28.32c-.09.09,0,0-.07,0l-.08,0-.38-.08c-.65-.16-1.65-.4-2.73-.58-.56-.1-1.08-.19-1.74-.27l-2-.08c-.68,0-1.38-.2-2.06-.29a80.26,80.26,0,0,1-8.85-1.95l-1.68-1a3.48,3.48,0,0,0-.43-.25l-.55-.2-1.09-.4a8.51,8.51,0,0,1-1-.41l-.74-.56c-.49-.38-1-.75-1.44-1.14s-.93-.76-1.36-1.15l-.43-.39-.58-.52c-.79-.69-.49-1.58-1.36-2.25l-.5-.53a2.32,2.32,0,0,1-.43-.54l-.67-1.13-.54-1.15a11.83,11.83,0,0,0-.73-1.18c-.64-.8.09-1.59-.74-2.49l-.37-.66a4.73,4.73,0,0,1,0-.65l0-.66c0-.1,0-.23-.08-.35l-.16-.37c-.18-.48-.56-1-.31-1.43l.17-.69.08-.34a1.33,1.33,0,0,0-.07-.38c-.12-.53-.26-1.06-.36-1.58l.56-1.37.14-.34a1.25,1.25,0,0,0,0-.39l0-.79c0-.54,0-1.06,0-1.6L595,588l0-.4c0-.15.13-.22.19-.33l.49-.6,1-1.22a10.72,10.72,0,0,0,.56-1.46l.52-1.49,0-.09,0-.05-.06-.1-.26-.41-.13-.21s0-.07,0-.11l.09-.2.35-.81.34-.8.28-.71.53-1.32c.36-.84.74-1.72,1.11-2.55s.6-1.37.92-2a17.41,17.41,0,0,1,1-1.8,12.55,12.55,0,0,1,2.07-2.63c1.34-1.27,2.7-1.68,3.68-1,1.2.9,1.55,3.11,1.13,5.55l.65-1c.39-.45.8-.94,1.2-1.35,1.14-1.18,2.35-1.94,3.45-1.87l1.44,0c2.31.54,5.1.34,7.46,1.75l.39,1,.36,0a3.75,3.75,0,0,1,2.86,1.17l.64,1.13a11.9,11.9,0,0,1,1.21,4.23,3.87,3.87,0,0,1,.66,1.41,5.64,5.64,0,0,1,2.63,3.21.8.8,0,0,1,.58,1.08.88.88,0,0,1-.33.36h0c.36.2.46.25.89.45l.61-.05c1-.15,1-.15,1.84-.23a5.89,5.89,0,0,1,1.66.59c2,1.84,2,1.88,2.5,2.8a1.32,1.32,0,0,1,0,.28,8.64,8.64,0,0,1,1.07.27,4,4,0,0,1,.51.3c.34.5.34.5.56.66a3.62,3.62,0,0,1,.26.38c0,.6,0,.59.09.75a1.12,1.12,0,0,1,0,.29l-.47.33-1.65-1.11.09.45-.56-.52.44.49-.63-.24.78.37a4.65,4.65,0,0,0-1.54.06,1.57,1.57,0,0,0-.77.23,1.65,1.65,0,0,1,.21.25l-2.33.07-.44-.24c0,.14-.16.26-.39.27l-.58.06-.07.09,0,0c-.11.13-.19.22-.29.32l0,.08h0c-.2.22-.5.54-1.29,1.33a8.63,8.63,0,0,1-1,0l.37.11c.26.08.37.46.48.47,1.36.08,2.7.14,4.05.17s2.75.08,4.18.22a1.52,1.52,0,0,1,1.34.5c.3.37.17.69-.28.76a10,10,0,0,1-3.23,1.43,24.65,24.65,0,0,1-3.84.74c-2.7.31-5.46.43-8,.51-.57.08-1.14.21-1.69.33l-1.52.36.24,0c-.25,0-.62,0-.56.15v.05h.19a3.8,3.8,0,0,1,.4.07,3.8,3.8,0,0,0,.47,0,17.78,17.78,0,0,1,3.89-.45c.75,0,1.45,0,2.23,0l2.38.12a16.87,16.87,0,0,1,2.68.36l2.76.62a1.34,1.34,0,0,1,1,.54c.14.26-.11.43-.53.39-1.26.14-2.46.17-3.77.24-.64,0-1.23,0-1.88,0h-1.86c-1.25,0-2.38-.08-3.51-.12l-1.58-.16a3.37,3.37,0,0,1-.36-.06,1.87,1.87,0,0,0-.31-.05.28.28,0,0,1-.11.05,1.45,1.45,0,0,1-.84.31h0l.49.08c-.17.11-.6,0-.8.14l.61.19a1.55,1.55,0,0,0-.47,1.31c.05.46.22.84.26,1.2a.2.2,0,0,1,0,.08l1,.29.22.07.06,0,.17.08.34.16c.46.21.92.4,1.39.59a12.39,12.39,0,0,1-1.67-.91c.64.31,1.35.56,2,.79l.24.09.12,0,.06,0,.12.08,2,1.29c.68.46,1.37.91,2.13,1.46a24.59,24.59,0,0,1,2.48,2l.47.44.5.55a10.23,10.23,0,0,1,1,1.36,8,8,0,0,1,.51.94,7.1,7.1,0,0,1,.42,1.09,11,11,0,0,1,.27,1.27,10.11,10.11,0,0,1,0,1.35,7.51,7.51,0,0,1-1.79,4.33,9.82,9.82,0,0,1-2.31,2,22.52,22.52,0,0,1-3.63,1.78l-1.16.46-.36.11a9.65,9.65,0,0,0-1.46.55,1.57,1.57,0,0,0-.63.51.81.81,0,0,1-.1.18c0,.06,0,.13,0,.19a.68.68,0,0,0,.1.35,5.1,5.1,0,0,0,1,1l.28.24.14.13.07.06,0,0s0,0,0,0,0,0,0,0l.17.13a16.41,16.41,0,0,1,2.67,2.62,12.28,12.28,0,0,1,2,3.71,11.91,11.91,0,0,1,.48,2c.06.7.1,1.39.09,2.06a15.36,15.36,0,0,1-.29,2,14.45,14.45,0,0,1-.57,1.72c-.22.48-.47,1-.7,1.38s-.48.75-.71,1.08a29.38,29.38,0,0,1-2.11,2.76c-.59.71-1.1,1.3-1.47,1.83a6.17,6.17,0,0,0-1.3,2.81,4.5,4.5,0,0,0,0,1.36,5.53,5.53,0,0,0,.62,1.71c.79,1.5,2,3.54,3,5.58a55.56,55.56,0,0,1,4.12,12.93c.43,2.24.71,4.55,1,6.73l.18,1.56a12.85,12.85,0,0,0,.26,1.32c.19.9.43,1.79.65,2.67.51,1.91,1.05,3.85,1.67,5.76s1.29,3.9,2,5.85c1.39,3.88,3,7.8,4.42,11.69a99,99,0,0,1,6.27,23.36c.21,1.61,0,3-.29,3.32s-.71-.9-.89-2.51a98.13,98.13,0,0,0-3.91-16.79c-1.81-5.63-4-11.26-6-16.92-1-2.81-1.9-5.64-2.73-8.45-.4-1.4-.78-2.8-1.12-4.2l-.26-1-.21-1c-.15-.65-.3-1.3-.42-2-.26-1.16-.34-2.81-.52-4.39s-.36-3.23-.66-4.85a53.45,53.45,0,0,0-2.55-9.4,51.89,51.89,0,0,1,2.16,7.84,68,68,0,0,1,1,8c.06.65.09,1.28.15,1.85s.17,1.06.26,1.63c.21,1.11.39,2.15.66,3.37.5,2.37,1,4.7,1.7,7.11,2.51,9.53,5.89,19.19,7.53,28.89.49,2.47.88,5,1.19,7.46a46.17,46.17,0,0,1,.23,7.33c-.09,12.38-.44,24.44-.7,36.57s-.52,24.33-.66,37c-.25,21.59-.67,40.48-1.64,62-1.43,30.19-4,57.69-9.74,87.5a43.44,43.44,0,0,1-2.06,8.1c-.35.47,0-2.4.65-6.38,2.47-15.55,4.13-31,5.38-46.52s2.1-31,2.74-46.59c1.26-31.19,1.81-62.73,2.85-95.25.2-7,.41-13.91.61-20.77a.72.72,0,0,1-.36.16c-.49,0-.93-.66-1.28-1.77q-.39,11.7-1.06,23.53c.5,21.94.65,43.91-1,67.28-1.15,16-2.9,30.57-4.53,45.42-.78,18.82-1.79,37.58-3.6,56.58a8.16,8.16,0,0,1-.28,1.82c-.1.27-.13-.14-.08-.91.85-13.07,1.37-26.46,1.76-40-.51,2.13-1.05,3.39-1.55,3.22s-.9-1.83-1.13-4.36l-.47,9.19c-.11,1.89-.37,3.38-.61,3.33s-.4-1.55-.32-3.36q.75-18.75,1.49-37.46c.14-15,.2-29.92.24-44.93a10.74,10.74,0,0,1-1.85,4.32h0c0,2.33,0,4.65-.07,7q.88,31.83.26,64.3T626.2,973.3a7.92,7.92,0,0,1-.19,1.58,5.93,5.93,0,0,1,0-1.42Q627.24,953.65,628,934v0c-.08.53-.19.63-.24,0a11.86,11.86,0,0,1,.07-2.06c.1-.61.21-.55.25-.06.86-24.46,1.07-48.76.6-72.74Q628.2,892.61,627,926c0,2.43.1,4.85.16,7.31a7.74,7.74,0,0,1-.19,1.82c-.08.19-.17-.31-.17-1l0-2c-.17,4.21-.65,7.46-1.12,7.39-.48-.24-.83-3.86-.78-8.24q0-17.58.08-35.08l-.09-3.79c-.11-1.27-.22-2.54-.32-3.81-.39,18.16-.73,36.28-.87,54.3a8.22,8.22,0,0,1-.26,2.9A6.75,6.75,0,0,1,623,943c-1.09-31.76-2.37-63.92-3.13-96.22-1.38-10.61-2.86-21.26-4.34-32.1,0,1.36,0,2.74,0,4.12.17,17.56,1.45,33.79,2.7,49.89s2.47,32,3.06,49a4.09,4.09,0,0,1-.13,1.67c-.1.09-.22-.49-.24-1.35-.73-16.6-2.12-31.74-3.31-48.21-1-13.64-1.91-26.61-3.15-39.3.84,25.92,3,50.77,4.4,76.44a15.84,15.84,0,0,1,0,3,1.43,1.43,0,0,1,.18.64c.41,3.21.74,6.71,1,10.28a6.74,6.74,0,0,1-.05,1.91C620,923.11,619.84,922.69,619.75,921.93Zm2.5-329.21.2,0-.54.07-1.11-.28S621.49,592.6,622.25,592.72Zm4.87-6.88h0l.71.31Zm7.4,99.63c-.15-.8-.28-1.6-.37-2.36l-.2-2.71c-.13-1.89-.32-3.82-.64-5.73a49.29,49.29,0,0,0-3.11-11,45.47,45.47,0,0,0-2.48-5.1,14.06,14.06,0,0,1-1.74-3.74,4.7,4.7,0,0,1,0-1.36,7.05,7.05,0,0,1,.33-1.44,9.33,9.33,0,0,1,1.73-2.74,9.33,9.33,0,0,0-1.62,2.69,5.71,5.71,0,0,0-.27,2.67c0,1.13,1.68,3.54,3,6.15a47.56,47.56,0,0,1,3.09,8.13,52,52,0,0,1,1.62,8.6c.16,1.45.24,2.9.33,4.29,0,.67.07,1.38.14,1.9S634.42,684.87,634.52,685.47Zm-5.16-92.29a20,20,0,0,1-2.82-.73,4.9,4.9,0,0,1-1.26.7c-1.2.53-2.44,1-3.54,1.53.34.13.07.25,0,.35s-.24.18-.33.27c.61-.25,1.25-.5,1.88-.71s1.37-.41,2-.6,1.33-.34,2-.49A13.62,13.62,0,0,1,629.36,593.18Zm8.87-4,.22.11.09.64Zm-.21-1.09-.26,0C637.7,587.81,637.81,587.87,638,588.07Zm-2.37-.21a2,2,0,0,0,.46.22Zm-11.92-15.23,1.18,3.19-1-3.14Z"/><path d="M378.41,707.35c.2,0,.4.11.6.16a1.62,1.62,0,0,1-1.11.61c5.9.77,11-3,14.06-6.84,1.48-.34,2.49-1.47,2.26-2.6s-1.67-1.87-3.22-1.53a4.59,4.59,0,0,1-1.1-.14,20.77,20.77,0,0,0-4.45-1.16,32.42,32.42,0,0,0-4.88-.2l2.17.4a10.36,10.36,0,0,0-2.92.3l.6.5c-3.59-.44-7.51,1.62-8.41,4.6s1.39,5.47,4.84,5.73Z"/><path d="M386.34,711.75c-1.86-.1-3.71-.27-5.61-.45l-.48-.25.93,1.65,0-.12c.71-2,2.79-3.55,4.81-4.72l.68-.53a1.44,1.44,0,0,0,.32-1.15,1.8,1.8,0,0,0-2.28-1.18l-1.27.27a12.63,12.63,0,0,0-5.33,1.47,5.12,5.12,0,0,0-2.84,4.13c0,.82.76,1.51,1.25,2.24a2.64,2.64,0,0,0,3.44,1.1,2.5,2.5,0,0,0,1.73-3l.83,0-.37.63c-.07-1.14,1.11-1.87,1.84-2.78.44-.27.88-.57,1.32-.82l-2-2.32-.61.65a2.43,2.43,0,0,1,.29.22,32.4,32.4,0,0,1-3.49,3.64L378,712.16a1.23,1.23,0,0,0,1,1.64l1.13.18-.55-.16c2.23-.33,4.48-.76,6.67-.93a.72.72,0,0,0,.72-.58A.54.54,0,0,0,386.34,711.75Z"/><path d="M379.65,715a1.74,1.74,0,0,0-1.24.13c-.05.16-.07.25-.08.29l.84.17C379.77,715.7,379.87,715.35,379.65,715Z"/><path d="M378.33,715.42l-.36-.07.3.17,0,0Z"/><path d="M476.55,703.59q11.43,3.58,22.27,8.16c.24.11.47.11.52,0s-.11-.27-.34-.36q-10.83-4.64-22.26-8.24c-.26-.07-.49,0-.55.08S476.32,703.52,476.55,703.59Z"/><path d="M525.42,735.44c-.19,0-.23.07-.11.22a.9.9,0,0,0,.53.29c.16,0,.21-.09.11-.22A.88.88,0,0,0,525.42,735.44Z"/><path d="M520.38,741.61a14.83,14.83,0,0,0-2.74-.65.88.88,0,0,1-.41-.2c0,.17-.26.23-.61.14-6.89-1.64-14-3.66-21.16-4.9a1.11,1.11,0,0,1-.44.33,3.6,3.6,0,0,1-2.62-.06l-.71-.31c-2.94-1.05-5.91-2-8.88-2.9a9.26,9.26,0,0,1-2.23,0l-8.32.42a.62.62,0,0,1,.18.53c-.14.44-.82.68-1.53.58l-1.1-.07c1,.19,2,.44,3.05.7a1.45,1.45,0,0,1,.4.13l3.47.43c5.15.55,10.22,1.11,15.28,1.74,2.54.29,5,.68,7.57,1s5,.81,7.53,1.34a.75.75,0,0,1,.51.24c.06.11,0,.22-.2.2-6.65-.48-12.68.43-19.74.3a172.1,172.1,0,0,0-24.53,1.44c-8.21-.18-15.76,1.61-23.48,4-2.85.92-5.6,1.82-8.23,2.8C426,751,421,753,416.24,755.45a3.66,3.66,0,0,1-3.67.49,6.19,6.19,0,0,1-3.18-3.11,7.77,7.77,0,0,1-.47-6l-.67.28-1.2.11a4.72,4.72,0,0,1-3.32-1.16l-1.33-1c-2.15-2.17-4.79-3.46-7-5.79l-.3-1.14-.36-.19a6.16,6.16,0,0,1-2.73-2.12l-.56-1.3a12.72,12.72,0,0,1-.85-4.63,4.81,4.81,0,0,1-.53-1.66,6.63,6.63,0,0,1-2.38-4,.91.91,0,0,1-.48-1.29,1.12,1.12,0,0,1,.4-.41h0a7.66,7.66,0,0,0-.89-.57l-.64,0-1.94.38a5.3,5.3,0,0,1-1.67-.51c-2-1.87-2-1.87-2.36-2.89,0-.12,0-.24,0-.35-.82,0-.88,0-1.1,0a2.68,2.68,0,0,1-.51-.23c-.31-.5-.31-.5-.53-.64a2.83,2.83,0,0,1-.24-.37c.05-.75.05-.75,0-.92a2.16,2.16,0,0,1,.06-.38l.53-.58,1.64.91,0-.55.54.52-.42-.51.64.13-.79-.26a5.65,5.65,0,0,0,1.65-.52,2.58,2.58,0,0,0,.86-.49,1.71,1.71,0,0,1-.19-.28c1.3-.28,1.3-.28,2.58-.51a3.81,3.81,0,0,1,.45.26.58.58,0,0,1,.47-.43l.65-.15.1-.14,0,0,.4-.48.08-.11h0c.28-.32.68-.78,1.76-2a9.41,9.41,0,0,1,1.15-.1c-.14,0-.28-.09-.41-.15s-.3-.68-.43-.69a37.51,37.51,0,0,0-9.27,1.17,1.08,1.08,0,0,1-1.39-.17.84.84,0,0,1,.4-1.2,19.44,19.44,0,0,1,8.72-5.54,26.61,26.61,0,0,1,10.44-1.14c1.69-.17,3.38-.32,5.06-.45l-.3-.2,1.36.11h.14l-1.21-.71c-.24,0-.49-.09-.74-.12a45.89,45.89,0,0,1-5.87.16c-2-.08-4-.12-6,0s-4.26-.19-6.47-.2a.88.88,0,0,1-1.1-.5c-.1-.37.25-.79.76-.9,6.2-2.87,14-4.11,20-2a6.25,6.25,0,0,1,3.41.25h.05l-.9-.64c.91,0,1.53.59,2.38.72l-.54-1c4.4-.1,9-.9,13.08.21a3.42,3.42,0,0,1,.46,0,13.31,13.31,0,0,1,5.73-1.84c-.87-.08-1.75-.11-2.62-.17a18.37,18.37,0,0,1,5.65-.9,24.18,24.18,0,0,1,4.14.3,29.47,29.47,0,0,1,4,.87,16,16,0,0,1,6.14,3.2,191.08,191.08,0,0,1,29.89,3.34c.51.09.93.37,1,.64s-.36.41-.86.33c-7.05-.79-14.21-1.53-21.45-1.84,6,1.1,11.93,2.44,17.88,3.77l2.3.4a13.14,13.14,0,0,1,2.22.65c7.56,1.82,14.52,4.08,22,6.3,6.4,1.93,11.94,3.85,18.16,6.29,8.7,3.46,16.47,7.24,24,12.74,1,.69,1.78,1.65,1.65,2.11s-1.06.29-2.09-.38A171.27,171.27,0,0,0,513.51,721c-8.86-3.6-18-6.64-27.57-9.69-2.08-.61-4.1-1.29-6.16-1.83a.82.82,0,0,1,0,.27,1.17,1.17,0,0,1-.71.77c2.32.63,4.59,1.47,6.88,2.27a76.23,76.23,0,0,1,19.6,6c2.23,1,4.25,2.27,6.23,3.43s3.84,2.45,5.71,3.74a146.93,146.93,0,0,1,15.24,7.69c.21.1.39.27.41.39s-.12.14-.33,0c-3.6-1.66-7.3-3.28-11-4.85.42.59.57,1.13.33,1.5s-.87.51-1.66.42l2.38,1.32c.49.28.8.65.68.84s-.6.15-1.06-.1c-1.62-.88-3.23-1.77-4.88-2.59s-3.28-1.67-4.95-2.43c-4.1-1.64-8.28-3-12.47-4.42a2.94,2.94,0,0,1,.78,1.61h0l1.91.69A106.49,106.49,0,0,1,537.22,742c.21.14.34.31.3.4s-.26,0-.44-.09a109.31,109.31,0,0,0-9.86-6.13v0c.11.13.08.24-.1.22a1.07,1.07,0,0,1-.53-.29c-.12-.15-.05-.24.1-.23a104.35,104.35,0,0,0-19.65-8.23,122.2,122.2,0,0,1,17.55,8.47l2,.72a.73.73,0,0,1,.4.37c0,.1-.17.12-.36,0l-.56-.21c1,.64,1.67,1.46,1.39,1.91s-1.43.28-2.53-.34c-1.5-.77-3-1.54-4.53-2.26s-3-1.48-4.55-2.16l-1-.37-1.11-.22c4.67,2.34,9.16,5,13.53,7.72.38.22.64.53.55.69s-.47.12-.85-.09a210.49,210.49,0,0,0-25.52-9.68l-4.72-.1-4.74.09,1.08.35c4.68,1.29,9.15,2.15,13.63,3.09a71.65,71.65,0,0,1,13.31,4c.23.09.37.25.36.34s-.22.12-.44,0a89.39,89.39,0,0,0-13.12-3.83c-1.86-.45-3.71-.82-5.51-1.18s-3.6-.58-5.38-.77c6.9,1.81,13.79,3.23,20.52,5.81a1.47,1.47,0,0,1,.7.45.28.28,0,0,1,.22,0,21.85,21.85,0,0,1,2.89.68.64.64,0,0,1,.43.34C520.75,741.62,520.6,741.66,520.38,741.61ZM400.32,713.9l-.22-.14.64.16,1.15,1ZM393,721.64h0l-.71-.55Zm65.67-17.8c-2.14-.27-4.26-.63-6.39-1-1.07-.18-2.13-.38-3.2-.6s-2.14-.4-3.22-.64h3.15c1.62.31,3.24.64,4.85,1S457.11,703.43,458.71,703.84Zm-66.46,7.3a12.83,12.83,0,0,1,3.05,1.6A5.41,5.41,0,0,1,397,712a42.22,42.22,0,0,1,4.87-.87c-.34-.39,0-.44.22-.54l.55-.26c-1.74.13-3.51.26-5.35.36A49.52,49.52,0,0,1,392.25,711.14Zm-10.64,6.22-.22-.09,0-.8S381.46,716.85,381.61,717.36Zm.1,1.33H382C382,719,381.91,718.91,381.71,718.69Zm2.48-.13a1.63,1.63,0,0,0-.47-.23Zm10.68,18.75-.89-3.62.77,3.52Z"/><path d="M318.27,802l.59,0c-.07.35-.4.6-.85.8a10.64,10.64,0,0,0,6.84-3.4,16.33,16.33,0,0,0,3.92-6.42,2.44,2.44,0,0,0,1.2-3.17,2.39,2.39,0,0,0-3.33-.66,3.82,3.82,0,0,1-1,.15,22.11,22.11,0,0,0-8.7.79l2-.06a6.86,6.86,0,0,0-2.49.94l.67.34c-3.28.38-6.11,3.17-6.16,6.13s2.63,5,5.84,4.65Z"/><path d="M326.66,804.56c-1.74.31-3.47.56-5.24.79l-.51-.14,1.28,1.4-.06-.11c.13-2.08,1.61-4,3.09-5.68l.48-.65a1.47,1.47,0,0,0,0-1.2,1.76,1.76,0,0,0-2.41-.65c-.36.18-.7.38-1.06.57-3,.88-6.73,3.63-5.92,7.05.19.79,1.06,1.32,1.68,1.94a2.52,2.52,0,0,0,3.45.43,2.39,2.39,0,0,0,.82-3.29l.74-.23c-.06.23-.11.46-.17.69-.37-1.09.51-2.06.93-3.1l1-1.11-2.44-1.81-.38.76a3.52,3.52,0,0,1,.33.16,25.85,25.85,0,0,1-2.19,4.29l-.89,2a1.3,1.3,0,0,0,1.3,1.4l1.09,0-.55,0c2-.7,3.91-1.67,5.89-2.31a.66.66,0,0,0,.51-.73A.55.55,0,0,0,326.66,804.56Z"/><path d="M321.34,809.12a1.61,1.61,0,0,0-1.12.35v.3H321C321.62,809.78,321.63,809.42,321.34,809.12Z"/><path d="M320.21,809.77h-.34l.32.1,0,0Z"/><path d="M472.14,759.94c1.12.11,2.25.18,3.37.31l3.35.43,6.69.86,6.64,1.11,3.32.55,3.29.67,6.57,1.34,6.51,1.57,3.24.79c1.08.27,2.15.59,3.22.89l6.42,1.8c.57.16,1.07.23,1.13.11s-.36-.35-.89-.48l-6.42-1.82-3.22-.9-3.25-.8-6.5-1.59L499,763.43l-3.28-.67-3.32-.56-6.64-1.11c-2.22-.32-4.45-.58-6.69-.88s-4.46-.59-6.72-.76a2,2,0,0,0-1.2.15C471.15,759.74,471.58,759.89,472.14,759.94Z"/><path d="M591.84,810.06c-.39-.13-.43,0-.1.24A4.74,4.74,0,0,0,593,811c.33.11.38,0,.1-.24A5.12,5.12,0,0,0,591.84,810.06Z"/><path d="M584.84,815.28c-1.05-.48-2.07-.95-3.07-1.36s-2-.74-2.93-1a4.3,4.3,0,0,1-1-.48c0,.2-.42.15-1.2-.16a320.78,320.78,0,0,0-48.42-15.06,1.77,1.77,0,0,1-.82.26,16.78,16.78,0,0,1-6-.77l-1.75-.54c-1.79-.5-3.59-.89-5.39-1.33s-3.58-.91-5.39-1.26l-5.41-1.09-2.71-.55-2.71-.45a41.11,41.11,0,0,1-5.17-.19c-3.19,0-6.38.11-9.57.14l-9.61.46c.4.16.63.35.62.55s-.49.42-1.09.56a9.31,9.31,0,0,1-2.27.25l-2.59.06c2.48.1,5,.13,7.43.39a7.06,7.06,0,0,1,1,.12c2.72.12,5.49.12,8.29.34a288,288,0,0,1,70.74,12,3.93,3.93,0,0,1,1.23.54c.18.17.09.27-.33.16-14.65-3.64-27.75-4.7-44.06-6.31a221.52,221.52,0,0,0-57.2,1.85,147.76,147.76,0,0,0-28.27,5.78,166.3,166.3,0,0,0-26.58,10.66c-1.5.67-2.91,1.52-4.35,2.27l-4.28,2.28-4.12,2.45c-1.36.81-2.75,1.56-4.05,2.46l-1,.64-.5.33-.17.13-.64.47-1.26.92c-.84.62-1.71,1.18-2.51,1.83-1.63,1.27-3.27,2.48-4.92,3.67s-3.19,2.53-4.82,3.77a5,5,0,0,1-4,1.46,6.46,6.46,0,0,1-4.22-2.21,7.44,7.44,0,0,1-1.93-5.79l-.65.46-1.24.43a5.14,5.14,0,0,1-3.81-.3l-1.64-.67c-2.72-1.59-5.74-2.2-8.49-4l-.55-1.06-.4-.11a6,6,0,0,1-3.2-1.45l-.83-1.14a13.36,13.36,0,0,1-1.88-4.36,4.87,4.87,0,0,1-.91-1.51,6.84,6.84,0,0,1-3.23-3.35.94.94,0,0,1-.76-1.16,1.06,1.06,0,0,1,.27-.5h0a7.34,7.34,0,0,0-1-.35c-.37.13-.59.19-.59.19-.94.42-.94.42-1.76.76a5.15,5.15,0,0,1-1.71-.18c-2.28-1.43-2.29-1.43-2.89-2.35,0-.11-.06-.22-.08-.33-.76.13-.82.14-1,.16a2.8,2.8,0,0,1-.53-.12c-.4-.43-.4-.43-.63-.53a2.25,2.25,0,0,1-.31-.32c-.13-.73-.13-.73-.24-.88a2,2,0,0,1,0-.37l.36-.67,1.74.59-.17-.53.62.4-.51-.42h.63l-.8-.1a4.61,4.61,0,0,0,1.41-.81,2,2,0,0,0,.68-.64,1.89,1.89,0,0,1-.25-.24c1.12-.55,1.12-.55,2.24-1.06a3.38,3.38,0,0,1,.48.16.54.54,0,0,1,.32-.53l.56-.29s0-.1.05-.15l0,0c.09-.22.16-.38.24-.55l0-.13h0c.16-.39.39-.95,1.07-2.36a7.48,7.48,0,0,1,1-.35l-.42-.05c-.28-.06-.47-.6-.59-.58a17.44,17.44,0,0,0-2.13.53c-.68.23-1.35.5-2,.79-1.34.58-2.66,1.23-4,1.85a1,1,0,0,1-1.32.1.84.84,0,0,1,.06-1.24c2.7-6,9.14-9.75,15.48-11,1.51-.57,3-1.18,4.48-1.8l-.34-.12L340,791l.13,0-1.33-.36-.71.09a28.44,28.44,0,0,1-5.29,1.72c-1.8.47-3.61.94-5.42,1.54s-3.91.8-5.89,1.26a.85.85,0,0,1-1.14-.24.79.79,0,0,1,.43-1,35.9,35.9,0,0,1,8.15-5.23,20.88,20.88,0,0,1,9.17-1.75,5.64,5.64,0,0,1,3.13-.8l.05,0-1-.35c.82-.27,1.58.14,2.39,0l-.82-.83c2-.66,3.93-1.58,5.88-2.37a29.55,29.55,0,0,1,2.94-1.06,15.12,15.12,0,0,1,3.06-.48l.44-.09a20.7,20.7,0,0,1,1.76-2c.15-.15.32-.3.49-.45l.14-.12.43-.24.88-.5a38.17,38.17,0,0,1,3.73-1.87c-.93.3-1.83.66-2.73,1l-2.66,1,.27-.17.34-.2.68-.41,1.36-.8c.91-.54,1.84-1,2.8-1.47,1.92-.92,3.9-1.8,6-2.62,11.37-4.36,24.9-6.53,31.65-5.37a244.94,244.94,0,0,1,33.55-6.18,268.78,268.78,0,0,1,33.9-1.43,4.3,4.3,0,0,1,2.41.56c.11.27-.66.48-1.82.45a264.88,264.88,0,0,0-48.55,4.61,288.42,288.42,0,0,1,41.22-2c1.77,0,3.55-.07,5.33,0s3.51.22,5.25.43c17.69,1,34.15,4,51.52,8l2.77.63,2.7.72,5.31,1.42c1.77.44,3.48,1,5.19,1.51l5.12,1.56c3.4,1.07,6.74,2.29,10.17,3.44s6.81,2.57,10.34,3.93a283.42,283.42,0,0,1,27.91,13.11A244.9,244.9,0,0,1,617.46,814c2.26,1.62,4.13,3.42,4.13,4s-1.83-.29-4.09-1.89a311.22,311.22,0,0,0-27.74-16.69,321.5,321.5,0,0,0-29.5-13.56,294.93,294.93,0,0,0-31.18-10.51,311.52,311.52,0,0,0-33-7.39c-2.43-.45-4.87-.73-7.29-1.1l-3.62-.52c-1.2-.15-2.41-.25-3.62-.39a.48.48,0,0,1,.1.28c0,.36-.51.65-1.3.86l4.1.45c1.36.19,2.72.42,4.08.63l4.09.66,2,.33,2,.42a190.28,190.28,0,0,1,45.67,10.7,233.92,233.92,0,0,1,28.53,13.49A281.6,281.6,0,0,1,605.35,812a3.12,3.12,0,0,1,1,.79c.11.18-.17.1-.63-.17l-5.94-3.27-3-1.65-3-1.57L587.57,803l-6.26-3c1.14,1,1.72,1.75,1.41,2.1s-1.5.2-3.15-.34l5.51,3c1.14.61,1.94,1.27,1.8,1.45s-1.12-.14-2.2-.7c-3.75-2-7.48-4-11.31-5.84-1.91-.92-3.79-1.9-5.73-2.77l-5.81-2.61A295.9,295.9,0,0,0,533,784.36a7,7,0,0,1,2.43,2.11h0l4.49,1.39c27.69,7.64,54.5,21,78.43,38.55.48.33.83.67.78.75s-.46-.11-.88-.41c-3.65-2.59-7.26-5.23-11-7.62-1.87-1.2-3.7-2.48-5.63-3.61l-5.72-3.44,0,0c.27.24.27.38-.1.23a5,5,0,0,1-1.19-.72c-.32-.27-.23-.35.09-.23a244.27,244.27,0,0,0-44.89-20.11,255.52,255.52,0,0,1,40.77,19.23c1.49.7,3,1.34,4.48,2.12a3.28,3.28,0,0,1,1,.75c.07.14-.27,0-.68-.17l-1.23-.63c2.41,1.51,4.07,3,3.76,3.43s-2.7-.52-5.22-2c-6.9-3.76-13.81-7.43-20.92-10.69l-2.34-1-2.42-.84a290.9,290.9,0,0,1,31.73,17.58c.89.52,1.57,1.1,1.49,1.27s-.88-.12-1.77-.65a298.71,298.71,0,0,0-28.58-14,289.72,289.72,0,0,0-30-11c-3.48-.62-7-1.1-10.47-1.63-3.54-.37-7.05-.81-10.6-1.1.86.18,1.73.41,2.6.64,11.12,2.61,21.43,5.16,31.58,8.25a197.8,197.8,0,0,1,30.2,11.69,2.05,2.05,0,0,1,.9.67c0,.11-.37,0-.88-.25a221.31,221.31,0,0,0-29.69-11.39l-6.35-1.94L540.84,798l-3.09-.78-3.1-.66c-2-.43-4.09-.85-6.12-1.23l6.08,1.6,3,.78,3,.86,6,1.71,5.93,1.89,3,.94,2.93,1,5.87,2.12c1.94.75,3.87,1.55,5.81,2.34l2.91,1.2c1,.41,1.92.87,2.88,1.3a7.83,7.83,0,0,1,1.7,1,.79.79,0,0,1,.44.06,65.89,65.89,0,0,1,6.32,2.52,3.18,3.18,0,0,1,1.06.69C585.6,815.51,585.31,815.47,584.84,815.28Zm-244.6-12-.25-.08h.65l1.4.73Zm-4.67,9.44h0l-.81-.38Zm96.62-48.2-7.27.83c-1.22.11-2.42.28-3.62.46l-3.62.49c-4.85.55-9.63,1.45-14.5,2.07l6.93-1.68,2.74-.44,2.76-.32,5.51-.62c1.84-.23,3.69-.34,5.53-.45ZM332,802.63a12,12,0,0,1,3.27.79,5.18,5.18,0,0,1,1.35-1.15,28.29,28.29,0,0,1,4.26-2.14c-.43-.29-.09-.44,0-.59l.43-.4c-1.57.61-3.24,1.1-4.85,1.76A40.91,40.91,0,0,1,332,802.63ZM323.74,811l-.23,0-.22-.76Zm.41,1.26.25-.06C324.51,812.5,324.39,812.47,324.15,812.3Zm2.3-.61a1.79,1.79,0,0,0-.49-.12Zm14.74,16-1.71-3.36L341,827.6Z"/><path d="M435.6,661.76l.26,0c0,.16-.16.27-.36.35,2.45,0,3.94-2.3,4.34-4.49a1.1,1.1,0,0,0-1.18-1.85,1.37,1.37,0,0,1-.44.06,8.48,8.48,0,0,0-3.68.26h.86a2.83,2.83,0,0,0-1,.39l.31.18a2.54,2.54,0,0,0,.26,5.07Z"/><path d="M439.44,663.21c-.79.11-1.57.18-2.36.25l-.23-.09.6.71,0-.05a4.46,4.46,0,0,1,1.24-2.63l.18-.31a.78.78,0,0,0-.06-.58.81.81,0,0,0-1.1-.34l-.45.25c-1.3.33-2.85,1.5-2.43,3.17.1.38.49.66.77,1a1.12,1.12,0,1,0,1.86-1.24l.33-.09-.06.33c-.19-.53.18-1,.33-1.46l.41-.5-1.16-.91-.14.35.15.08a10.22,10.22,0,0,1-.86,2l-.36.94a.7.7,0,0,0,.61.71h.49l-.25,0c.89-.28,1.74-.7,2.63-1a.29.29,0,0,0,.22-.34A.28.28,0,0,0,439.44,663.21Z"/><path d="M437.12,665.26a.67.67,0,0,0-.51.13v.15l.36,0C437.25,665.58,437.25,665.41,437.12,665.26Z"/><path d="M436.62,665.54h-.16l.14.06,0,0Z"/><path d="M458.49,645.24a40,40,0,0,0,3.7-2s0-.1,0-.18-.12-.1-.15-.07c-1.2.72-2.42,1.4-3.7,2,0,0,0,.1,0,.17S458.45,645.26,458.49,645.24Z"/><path d="M472.11,645.87a.24.24,0,0,0,.14.18c.05,0,.1,0,.08-.08a.28.28,0,0,0-.13-.17C472.13,645.77,472.1,645.81,472.11,645.87Z"/><path d="M476.14,651.56a1.89,1.89,0,0,0-.11.74c0,.05,0,.06-.08.05a.42.42,0,0,1,.13.33,15.2,15.2,0,0,1-2,4.47,1.08,1.08,0,0,1,.16.3c.14.34.09.62-.11.69l-.18,0c-.64.23-1.24.49-1.88.71a.82.82,0,0,1-.17.51,12.6,12.6,0,0,1-.59,2,1,1,0,0,1,.26.24c.18.25.21.51.09.6l-.18.15c.23-.07.45-.15.68-.21a.16.16,0,0,1,.1,0,4.18,4.18,0,0,0,.57-.47,15.25,15.25,0,0,0,3.23-6c0-.06,0-.08.11,0a.29.29,0,0,1,.12.18c-.07,2,.31,4.3-.22,6a29.77,29.77,0,0,1-2.25,5.56c-1.46,1.13-2.35,2.77-3.5,4.36-.39.54-.8,1-1.21,1.51-.08.08-.07.09-.2.21l-.34.31-.67.62-1.36,1.2c-1.82,1.58-3.68,3.08-5.58,4.6a3.32,3.32,0,0,1-5.64-2.85l-.37.25-.69.26a2.84,2.84,0,0,1-2.05,0l-.86-.3c-1.41-.75-3-1.06-4.35-1.93l-.26-.52-.2-.06a2.82,2.82,0,0,1-1.58-.73l-.39-.57a6.72,6.72,0,0,1-.87-2.16,2.36,2.36,0,0,1-.43-.75,3.33,3.33,0,0,1-1.55-1.67.48.48,0,0,1-.37-.58.48.48,0,0,1,.13-.23h0A3.36,3.36,0,0,0,441,668l-.28.08-.82.33a2.29,2.29,0,0,1-.8-.12c-1.05-.75-1.05-.75-1.33-1.2a1.36,1.36,0,0,1,0-.17,4.69,4.69,0,0,1-.47,0,1,1,0,0,1-.24-.07c-.19-.22-.19-.22-.29-.27a1.69,1.69,0,0,1-.14-.16c-.07-.36-.07-.36-.12-.43a1.09,1.09,0,0,1,0-.19l.15-.3.8.32-.09-.26.29.21-.24-.21.29,0-.36-.07a1.91,1.91,0,0,0,.62-.35.78.78,0,0,0,.3-.29l-.12-.12c.51-.24.51-.24,1-.45l.22.08a.24.24,0,0,1,.14-.24l.25-.13,0-.07,0,0c0-.1.07-.17.1-.26l0,0h0c.06-.18.16-.44.41-1.12a2.14,2.14,0,0,1,.46-.17l-.2,0c-.13,0-.23-.29-.29-.28a17.26,17.26,0,0,0-3.59,1.34.4.4,0,0,1-.58,0,.42.42,0,0,1,0-.59,9,9,0,0,1,6.42-5.1c.63-.3,1.25-.63,1.86-1l-.16,0,.55-.16.05,0-.62-.15-.31.06a26.61,26.61,0,0,1-4.54,1.63,23.35,23.35,0,0,1-2.51.55.37.37,0,0,1-.5-.14.36.36,0,0,1,.13-.49c1.85-1.88,4.4-3.45,7.1-3.38a2.19,2.19,0,0,1,1.33-.44h0l-.49-.15c.34-.14.71,0,1.05-.06l-.44-.38c1.61-.8,3-2.09,4.8-2.43a.71.71,0,0,1,.18-.08,8.89,8.89,0,0,1,.94-1.79l-.45.12a1.36,1.36,0,0,1,.51-.88,3.11,3.11,0,0,1,3.36.47,50,50,0,0,0,3.69-3.73c.05-.07.19,0,.31.1s.16.29.1.36a16,16,0,0,1-2.25,3.23,14.67,14.67,0,0,0,2.91-1.46l.28-.31a.71.71,0,0,1,.38-.18,12.8,12.8,0,0,0,3-2.76,30.52,30.52,0,0,0,1.94-3.13,12.5,12.5,0,0,1,2.93-4.17c.14-.17.49-.05.78.28s.4.73.26.91c-1.91,3.18-3.6,6.55-6.59,8.6l-1,.65.12.13a2.1,2.1,0,0,1,.31.56,9.63,9.63,0,0,1,1.21-.58,6.63,6.63,0,0,1,2.5-2.88A9,9,0,0,1,468,644c.66-.86,1.27-1.77,2-2.6,0,0,.08,0,.14,0a.2.2,0,0,1,.08.19,13.4,13.4,0,0,1-1,2.39,2.38,2.38,0,0,1,.76.68,2.33,2.33,0,0,1,.43.95l.42-.29c.09-.06.25,0,.37.17s.16.35.07.4l-1.7,1.21c-.52.68-1.06,1.34-1.63,2a3.14,3.14,0,0,1,.78.6h0l.29-.26a13.89,13.89,0,0,1,4.77-5.61s.11,0,.17.07.07.16,0,.18a10.91,10.91,0,0,0-1.73,1.36h0a.26.26,0,0,1,.14.18c0,.06,0,.1-.08.07a.26.26,0,0,1-.14-.17,14.33,14.33,0,0,0-2.53,3.34,17,17,0,0,1,3-2.26l.12-.51s.08,0,.15,0,.09.14.07.18l0,.14c.21-.12.59.07.87.45s.36.81.16.94a18,18,0,0,1-1.44,1.33l-.12.2,0,.3c.92-.47,1.85-.9,2.8-1.32.06-.06.2,0,.31.14s.14.28.07.34a27.85,27.85,0,0,1-3.34,4.42c0,.93-.05,1.88-.07,2.82l.19-.13c1.55-1.19,1.59-3.84,2.82-5.34,0,0,.1,0,.15,0s.09.15.05.18a16.4,16.4,0,0,0-1.21,2.82,16,16,0,0,0-.9,2.4c1-1,1.56-2.59,2.44-3.79,0-.06.1-.07.19,0a.24.24,0,0,1,0-.12,2.71,2.71,0,0,1,.12-.78c0-.05.07-.05.14,0A.23.23,0,0,1,476.14,651.56Zm-30.49,11-.11,0h.3l.69.33Zm-1.86,4.64h0l-.39-.19ZM457.51,649a4.53,4.53,0,0,1-2.15.9l.36-.42A16.16,16.16,0,0,1,457.51,649Zm-15.73,13.28a6.57,6.57,0,0,1,1.54.39,2.17,2.17,0,0,1,.57-.56,19.71,19.71,0,0,1,1.86-1.1c-.22-.13-.07-.21,0-.29l.17-.21c-.7.33-1.4.63-2.13.94A15.52,15.52,0,0,1,441.78,662.31Zm-3.55,3.93-.11,0-.11-.37Zm.2.62.11,0C438.59,667,438.54,666.94,438.43,666.86Zm1.05-.24a.71.71,0,0,0-.23-.07Zm7.07,8-.81-1.66.74,1.63Z"/></svg>